<?xml version="1.0" encoding="UTF-8" standalone="no"?>
<!DOCTYPE svg PUBLIC "-//W3C//DTD SVG 1.1//EN"
"http://www.w3.org/Graphics/SVG/1.1/DTD/svg11.dtd">
<svg viewBox="0 0 811 1017" version="1.1" xmlns="http://www.w3.org/2000/svg" xmlns:xlink="http://www.w3.org/1999/xlink">
<defs>
<clipPath id="c0_57"><path d="M171.2,538.8V484.2h43v54.6Z"/></clipPath>
<clipPath id="c1_57"><path d="M214.1,538.8V484.2h43.1v54.6Z"/></clipPath>
<clipPath id="c2_57"><path d="M257.1,538.8V484.2h43.1v54.6Z"/></clipPath>
<clipPath id="c3_57"><path d="M300.1,538.8V484.2h43v54.6Z"/></clipPath>
<clipPath id="c4_57"><path d="M171.2,593.3V538.7h43v54.6Z"/></clipPath>
<clipPath id="c5_57"><path d="M214.1,593.3V538.7h43.1v54.6Z"/></clipPath>
<clipPath id="c6_57"><path d="M257.1,593.3V538.7h43.1v54.6Z"/></clipPath>
<clipPath id="c7_57"><path d="M300.1,593.3V538.7h43v54.6Z"/></clipPath>
<style type="text/css"><![CDATA[
.g0_57{
fill: #211E1E;
}
.g1_57{
fill: #222326;
}
.g2_57{
fill: #C6EAFA;
}
.g3_57{
fill: #CEBCDA;
}
.g4_57{
fill: #959799;
}
.g5_57{
fill: #636566;
}
.g6_57{
fill: #FFF;
}
.g7_57{
fill: #D1CECE;
}
.g8_57{
fill: #AEACAD;
}
.g9_57{
fill: #918C8F;
}
.ga_57{
fill: #797577;
}
.gb_57{
fill: #777376;
}
.gc_57{
fill: #757274;
}
.gd_57{
fill: #747173;
}
.ge_57{
fill: #737173;
}
.gf_57{
fill: #736F71;
}
.gg_57{
fill: #726E70;
}
.gh_57{
fill: #6F6C6F;
}
.gi_57{
fill: #6E6B6E;
}
.gj_57{
fill: #6D6A6D;
}
.gk_57{
fill: #6D696C;
}
.gl_57{
fill: #6C696C;
}
.gm_57{
fill: #6C696B;
}
.gn_57{
fill: #6A6869;
}
.go_57{
fill: #686669;
}
.gp_57{
fill: #686769;
}
.gq_57{
fill: #676567;
}
.gr_57{
fill: #676566;
}
.gs_57{
fill: #656467;
}
.gt_57{
fill: #656365;
}
.gu_57{
fill: #646263;
}
.gv_57{
fill: #636162;
}
.gw_57{
fill: #626063;
}
.gx_57{
fill: #626162;
}
.gy_57{
fill: #615E60;
}
.gz_57{
fill: #605E5F;
}
.g10_57{
fill: #5E5D5F;
}
.g11_57{
fill: #5D5B5D;
}
.g12_57{
fill: #5C5A5B;
}
.g13_57{
fill: #5A595A;
}
.g14_57{
fill: #5A5759;
}
.g15_57{
fill: #595859;
}
.g16_57{
fill: #595759;
}
.g17_57{
fill: #595658;
}
.g18_57{
fill: #585557;
}
.g19_57{
fill: #575456;
}
.g1a_57{
fill: #555355;
}
.g1b_57{
fill: #545355;
}
.g1c_57{
fill: #535154;
}
.g1d_57{
fill: #535153;
}
.g1e_57{
fill: #524F51;
}
.g1f_57{
fill: #504E50;
}
.g1g_57{
fill: #4F4D4F;
}
.g1h_57{
fill: #4E4B4D;
}
.g1i_57{
fill: #4D4A4C;
}
.g1j_57{
fill: #4A484B;
}
.g1k_57{
fill: #494749;
}
.g1l_57{
fill: #484649;
}
.g1m_57{
fill: #474648;
}
.g1n_57{
fill: #474547;
}
.g1o_57{
fill: #454547;
}
.g1p_57{
fill: #454346;
}
.g1q_57{
fill: #444143;
}
.g1r_57{
fill: #444144;
}
.g1s_57{
fill: #424043;
}
.g1t_57{
fill: #413F42;
}
.g1u_57{
fill: #403F41;
}
.g1v_57{
fill: #403E41;
}
.g1w_57{
fill: #3F3D3F;
}
.g1x_57{
fill: #3D3C3F;
}
.g1y_57{
fill: #3D3C3E;
}
.g1z_57{
fill: #3B3B3D;
}
.g20_57{
fill: #3C3A3D;
}
.g21_57{
fill: #3A393B;
}
.g22_57{
fill: #39393B;
}
.g23_57{
fill: #38393A;
}
.g24_57{
fill: #383739;
}
.g25_57{
fill: #37373A;
}
.g26_57{
fill: #363738;
}
.g27_57{
fill: #363639;
}
.g28_57{
fill: #353538;
}
.g29_57{
fill: #353537;
}
.g2a_57{
fill: #343436;
}
.g2b_57{
fill: #353436;
}
.g2c_57{
fill: #313334;
}
.g2d_57{
fill: #313234;
}
.g2e_57{
fill: #303233;
}
.g2f_57{
fill: #303134;
}
.g2g_57{
fill: #2F3033;
}
.g2h_57{
fill: #2E2F31;
}
.g2i_57{
fill: #2D2E30;
}
.g2j_57{
fill: #2D2D30;
}
.g2k_57{
fill: #2C2D2F;
}
.g2l_57{
fill: #2C2C2F;
}
.g2m_57{
fill: #2B2B2E;
}
.g2n_57{
fill: #282A2D;
}
.g2o_57{
fill: #27292C;
}
.g2p_57{
fill: #25262A;
}
.g2q_57{
fill: #27272A;
}
.g2r_57{
fill: #25272A;
}
.g2s_57{
fill: #252628;
}
.g2t_57{
fill: #232427;
}
.g2u_57{
fill: #D1D4D5;
}
]]></style>
</defs>
<path d="M599.4,724.7c.4,-1.3,.7,-2.1,1.1,-3.1h-3.8c.1,.3,.7,1.8,1.1,3.1c.4,1.3,.7,2.5,.8,3.3c.1,-.8,.4,-2,.8,-3.3Z" class="g0_57"/>
<path d="M355.2,549.9H536v-.7H355.2Z" class="g1_57"/>
<path d="M537.8,548.8c-1.3,-.4,-2.1,-.8,-3.1,-1.2v3.9c.4,-.2,1.8,-.8,3.1,-1.2c1.3,-.4,2.6,-.7,3.4,-.8c-.8,-.1,-2.1,-.3,-3.4,-.7Z" class="g0_57"/>
<path d="M418.3,531.5V563c0,0,14.3,4.4,29.2,1.6c14.8,-2.8,41.9,-7.2,49.2,-4.5V531.5H418.3Z" class="g2_57"/>
<path d="M418.3,531.5h-.4V563c0,.2,.1,.3,.3,.4c0,0,8.3,2.5,18.8,2.5c3.4,0,6.9,-.3,10.5,-.9c11.7,-2.2,30.8,-5.4,42,-5.4c3.1,0,5.6,.3,7.1,.8h.3l.2,-.3V531.5l-.1,-.3l-.3,-.1H418.3l-.3,.1l-.1,.3h.4v.4h78v28.2h.4l.2,-.4c-1.7,-.6,-4.2,-.8,-7.4,-.8c-11.3,0,-30.4,3.1,-42.1,5.3c-3.6,.7,-7.1,.9,-10.4,.9c-5.2,0,-9.8,-.6,-13.2,-1.2c-1.7,-.3,-3,-.7,-3.9,-.9c-1,-.2,-1.5,-.4,-1.5,-.4l-.1,.4h.4V531.5h-.4v.4v-.4Z" class="g0_57"/>
<path d="M541.8,759.8L340.8,615.3l-.4,.6L541.3,760.4l.5,-.6Z" class="g1_57"/>
<path d="M338.7,615.2c.8,1.1,1.3,1.8,1.8,2.7l2.3,-3.1c-.4,-.1,-1.9,-.4,-3.2,-.9c-1.3,-.4,-2.5,-.9,-3.2,-1.3c.6,.5,1.4,1.5,2.3,2.6Z" class="g0_57"/>
<path d="M540.7,586.5c0,3.4,2.8,6.1,6.1,6.1H650.4c3.3,0,6.1,-2.7,6.1,-6.1V512.6c0,-3.4,-2.8,-6.1,-6.1,-6.1H546.8c-3.3,0,-6.1,2.7,-6.1,6.1v73.9Z" class="g3_57"/>
<path d="M540.7,586.5h-.3c0,3.6,2.9,6.5,6.4,6.5H650.4c3.4,0,6.2,-2.6,6.4,-6V512.1c-.2,-3.4,-3,-6,-6.4,-6H546.8c-3.5,0,-6.4,2.9,-6.4,6.5v73.9h.7V512.6c0,-3.2,2.6,-5.8,5.7,-5.8H650.4c3.1,0,5.7,2.6,5.7,5.8v73.9c0,1.6,-.7,3,-1.7,4.1c-1,1,-2.5,1.6,-4,1.6H546.8c-3.1,0,-5.7,-2.5,-5.7,-5.7h-.4Z" class="g1_57"/>
<path d="M540.7,808.4c0,3.4,2.8,6.1,6.1,6.1H650.4c3.3,0,6.1,-2.7,6.1,-6.1V734.5c0,-3.4,-2.8,-6.1,-6.1,-6.1H546.8c-3.3,0,-6.1,2.7,-6.1,6.1v73.9Z" class="g3_57"/>
<path d="M540.7,808.4h-.3c0,3.6,2.9,6.5,6.4,6.5H650.4c3.4,0,6.2,-2.6,6.4,-6V734c-.2,-3.4,-3,-6,-6.4,-6H546.8c-3.5,0,-6.4,2.9,-6.4,6.5v73.9h.7V734.5c0,-3.2,2.6,-5.7,5.7,-5.7H650.4c3.1,0,5.7,2.5,5.7,5.7v73.9c0,1.6,-.7,3,-1.7,4.1c-1,1,-2.5,1.7,-4,1.7H546.8c-3.1,0,-5.7,-2.6,-5.7,-5.8h-.4Z" class="g1_57"/>
<path d="M490,686.4v43.8H427.9V669.9h47.7c0,0,3.6,.4,8.9,5.6c5.5,5.5,5.5,10.9,5.5,10.9Z" class="g2_57"/>
<path d="M490,686.4h-.4v43.4H428.3V670.3h47.3v-.4v.4c.4,.1,3.7,.7,8.6,5.5c2.7,2.7,4.1,5.4,4.8,7.4c.3,1,.5,1.8,.6,2.4c0,.2,0,.5,0,.6q0,.2,0,.2h.8c0,0,0,-5.6,-5.7,-11.2c-5.2,-5.2,-9,-5.6,-9,-5.6H427.9l-.3,.1l-.1,.2v60.3l.1,.2l.3,.1H490l.3,-.1l.1,-.2V686.4H490Z" class="g1_57"/>
<path d="M475.6,669.9v11.9c0,0,7.6,-.1,10.8,0c2.5,.2,3.2,2.3,3.2,2.3l-14,-14.2Z" class="g2_57"/>
<path d="M475.2,669.9v11.9l.2,.3l.2,.1c0,0,3.4,0,6.6,0c1.6,0,3.1,0,4.2,0c1.1,.1,1.8,.6,2.3,1.1c.2,.2,.4,.4,.5,.6l.1,.2v.1l.7,-.3c0,0,-.2,-.6,-.7,-1.2c-.6,-.6,-1.5,-1.2,-2.9,-1.2c-1.1,-.1,-2.6,-.1,-4.2,-.1c-3.2,0,-6.6,.1,-6.6,.1v.3h.4V669.9h-.8Z" class="g1_57"/>
<path d="M355.2,604.3V478.8c0,-3.1,-2.5,-5.6,-5.6,-5.6H164.7c-3.1,0,-5.6,2.5,-5.6,5.6V604.3H355.2Z" class="g4_57"/>
<path d="M355.2,604.3h.7V478.8c0,-3.5,-2.8,-6.3,-6.2,-6.4H164.6c-3.5,.1,-6.3,2.9,-6.3,6.4V605.1H355.9v-.8h-.7v-.7H159.9V478.8c0,-2.7,2.1,-4.9,4.8,-4.9H349.6c2.6,0,4.8,2.2,4.8,4.9V604.3h.8v-.7v.7Z" class="g5_57"/>
<path d="M167.8,595.9H346.5V481.8H167.8Z" class="g6_57"/>
<path d="M346.5,595.9v-.8h-178V482.6H345.7V595.9h.8v-.8v.8h.8V481.1H167V596.6H347.3v-.7h-.8Z" class="g5_57"/>
<path fill-rule="evenodd" d="M260.9,477.5c0,1.4,-1.1,2.6,-2.6,2.6c-1.4,0,-2.6,-1.2,-2.6,-2.6c0,-1.5,1.2,-2.6,2.6,-2.6c1.5,0,2.6,1.1,2.6,2.6Z" class="g1_57"/>
<path fill-rule="evenodd" d="M258.4,477.5c0,0,-.1,0,-.1,0c0,0,0,-.1,0,-.1c0,0,.1,.1,.1,.1Z" class="g7_57"/>
<path fill-rule="evenodd" d="M258.4,477.5c0,0,0,.1,-.1,.1c0,0,-.1,-.1,-.1,-.1c0,0,.1,-.1,.1,-.1c.1,0,.1,.1,.1,.1Zm0,0c0,0,-.1,0,-.1,0c0,0,.1,0,.1,0Z" class="g8_57"/>
<path fill-rule="evenodd" d="M258.4,477.5c0,0,0,.1,-.1,.1c0,0,-.1,-.1,-.1,-.1c0,-.1,.1,-.1,.1,-.1q.1,0,.1,.1Zm0,0c0,0,0,-.1,-.1,-.1c0,0,0,.1,0,.1c0,0,0,.1,0,.1c.1,0,.1,-.1,.1,-.1Z" class="g9_57"/>
<path fill-rule="evenodd" d="M258.4,477.5q0,.1,-.1,.1c0,0,-.1,0,-.1,-.1c0,-.1,.1,-.1,.1,-.1q.1,0,.1,.1Zm0,0q0,-.1,-.1,-.1c0,0,-.1,0,-.1,.1c0,0,.1,.1,.1,.1c.1,0,.1,-.1,.1,-.1Z" class="ga_57"/>
<path fill-rule="evenodd" d="M258.5,477.5c0,.1,-.1,.1,-.2,.1q-.1,0,-.1,-.1q0,-.1,.1,-.1c.1,0,.2,0,.2,.1Zm-.1,0q0,-.1,-.1,-.1c0,0,-.1,0,-.1,.1c0,0,.1,.1,.1,.1c.1,0,.1,-.1,.1,-.1Z" class="ga_57"/>
<path fill-rule="evenodd" d="M258.5,477.5c0,.1,-.1,.1,-.2,.1q-.1,0,-.1,-.1c0,-.1,0,-.2,.1,-.2c.1,0,.2,.1,.2,.2Zm-.1,0q0,-.1,-.1,-.1q-.1,0,-.1,.1q0,.1,.1,.1q.1,0,.1,-.1Z" class="gb_57"/>
<path fill-rule="evenodd" d="M258.5,477.5c0,.1,-.1,.2,-.2,.2c-.1,0,-.2,-.1,-.2,-.2c0,-.1,.1,-.2,.2,-.2c.1,0,.2,.1,.2,.2Zm0,0c0,-.1,-.1,-.2,-.2,-.2c-.1,0,-.1,.1,-.1,.2q0,.1,.1,.1c.1,0,.2,0,.2,-.1Z" class="gc_57"/>
<path fill-rule="evenodd" d="M258.5,477.5c0,.1,-.1,.2,-.2,.2c-.1,0,-.2,-.1,-.2,-.2c0,-.1,.1,-.2,.2,-.2c.1,0,.2,.1,.2,.2Zm0,0c0,-.1,-.1,-.2,-.2,-.2c-.1,0,-.1,.1,-.1,.2c0,.1,0,.2,.1,.2c.1,0,.2,-.1,.2,-.2Z" class="gc_57"/>
<path fill-rule="evenodd" d="M258.5,477.5c0,.1,-.1,.2,-.2,.2c-.1,0,-.2,-.1,-.2,-.2c0,-.1,.1,-.2,.2,-.2c.1,0,.2,.1,.2,.2Zm0,0c0,-.1,-.1,-.2,-.2,-.2c-.1,0,-.2,.1,-.2,.2c0,.1,.1,.2,.2,.2c.1,0,.2,-.1,.2,-.2Z" class="gd_57"/>
<path fill-rule="evenodd" d="M258.6,477.5c0,.1,-.2,.2,-.3,.2c-.1,0,-.2,-.1,-.2,-.2c0,-.1,.1,-.2,.2,-.2c.1,0,.3,.1,.3,.2Zm-.1,0c0,-.1,-.1,-.2,-.2,-.2c-.1,0,-.2,.1,-.2,.2c0,.1,.1,.2,.2,.2c.1,0,.2,-.1,.2,-.2Z" class="ge_57"/>
<path fill-rule="evenodd" d="M258.6,477.5c0,.1,-.1,.2,-.3,.2c-.1,0,-.2,-.1,-.2,-.2c0,-.1,.1,-.3,.2,-.3c.2,0,.3,.2,.3,.3Zm-.1,0c0,-.1,-.1,-.2,-.2,-.2c-.1,0,-.2,.1,-.2,.2c0,.1,.1,.2,.2,.2c.1,0,.2,-.1,.2,-.2Z" class="gf_57"/>
<path fill-rule="evenodd" d="M258.6,477.5c0,.1,-.1,.3,-.3,.3c-.1,0,-.3,-.2,-.3,-.3c0,-.2,.2,-.3,.3,-.3c.2,0,.3,.1,.3,.3Zm0,0c0,-.1,-.1,-.3,-.3,-.3c-.1,0,-.2,.2,-.2,.3c0,.1,.1,.2,.2,.2c.2,0,.3,-.1,.3,-.2Z" class="gg_57"/>
<path fill-rule="evenodd" d="M258.6,477.5c0,.2,-.1,.3,-.3,.3c-.1,0,-.3,-.1,-.3,-.3c0,-.2,.2,-.3,.3,-.3c.2,0,.3,.1,.3,.3Zm0,0c0,-.2,-.1,-.3,-.3,-.3c-.1,0,-.3,.1,-.3,.3c0,.1,.2,.3,.3,.3c.2,0,.3,-.2,.3,-.3Z" class="gg_57"/>
<path fill-rule="evenodd" d="M258.6,477.5c0,.2,-.1,.3,-.3,.3c-.2,0,-.3,-.1,-.3,-.3c0,-.2,.1,-.3,.3,-.3c.2,0,.3,.1,.3,.3Zm0,0c0,-.2,-.1,-.3,-.3,-.3c-.1,0,-.3,.1,-.3,.3c0,.2,.2,.3,.3,.3c.2,0,.3,-.1,.3,-.3Z" class="gg_57"/>
<path fill-rule="evenodd" d="M258.7,477.5c0,.2,-.2,.3,-.4,.3c-.2,0,-.3,-.1,-.3,-.3c0,-.2,.1,-.3,.3,-.3c.2,0,.4,.1,.4,.3Zm-.1,0c0,-.2,-.1,-.3,-.3,-.3c-.2,0,-.3,.1,-.3,.3c0,.2,.1,.3,.3,.3c.2,0,.3,-.1,.3,-.3Z" class="gh_57"/>
<path fill-rule="evenodd" d="M258.7,477.5c0,.2,-.2,.4,-.4,.4c-.2,0,-.3,-.2,-.3,-.4c0,-.2,.1,-.4,.3,-.4c.2,0,.4,.2,.4,.4Zm-.1,0c0,-.2,-.1,-.3,-.3,-.3c-.2,0,-.3,.1,-.3,.3c0,.2,.1,.3,.3,.3c.2,0,.3,-.1,.3,-.3Z" class="gi_57"/>
<path fill-rule="evenodd" d="M258.7,477.5c0,.2,-.2,.4,-.4,.4c-.2,0,-.4,-.2,-.4,-.4c0,-.2,.2,-.4,.4,-.4c.2,0,.4,.2,.4,.4Zm0,0c0,-.2,-.2,-.4,-.4,-.4c-.2,0,-.3,.2,-.3,.4c0,.2,.1,.3,.3,.3c.2,0,.4,-.1,.4,-.3Z" class="gj_57"/>
<path fill-rule="evenodd" d="M258.7,477.5c0,.2,-.2,.4,-.4,.4c-.2,0,-.4,-.2,-.4,-.4c0,-.2,.2,-.4,.4,-.4c.2,0,.4,.2,.4,.4Zm0,0c0,-.2,-.2,-.4,-.4,-.4c-.2,0,-.4,.2,-.4,.4c0,.2,.2,.4,.4,.4c.2,0,.4,-.2,.4,-.4Z" class="gk_57"/>
<path fill-rule="evenodd" d="M258.7,477.5c0,.2,-.1,.4,-.4,.4c-.2,0,-.4,-.2,-.4,-.4c0,-.2,.2,-.4,.4,-.4c.3,0,.4,.2,.4,.4Zm0,0c0,-.2,-.2,-.4,-.4,-.4c-.2,0,-.4,.2,-.4,.4c0,.2,.2,.4,.4,.4c.2,0,.4,-.2,.4,-.4Z" class="gl_57"/>
<path fill-rule="evenodd" d="M258.8,477.5c0,.2,-.2,.4,-.5,.4c-.2,0,-.4,-.2,-.4,-.4c0,-.3,.2,-.4,.4,-.4c.3,0,.5,.1,.5,.4Zm-.1,0c0,-.2,-.2,-.4,-.4,-.4c-.2,0,-.4,.2,-.4,.4c0,.2,.2,.4,.4,.4c.2,0,.4,-.2,.4,-.4Z" class="gm_57"/>
<path fill-rule="evenodd" d="M258.8,477.5c0,.2,-.2,.5,-.5,.5c-.2,0,-.4,-.3,-.4,-.5c0,-.3,.2,-.5,.4,-.5c.3,0,.5,.2,.5,.5Zm-.1,0c0,-.2,-.1,-.4,-.4,-.4c-.2,0,-.4,.2,-.4,.4c0,.2,.2,.4,.4,.4c.3,0,.4,-.2,.4,-.4Z" class="gn_57"/>
<path fill-rule="evenodd" d="M258.8,477.5c0,.3,-.2,.5,-.5,.5c-.3,0,-.5,-.2,-.5,-.5c0,-.3,.2,-.5,.5,-.5c.3,0,.5,.2,.5,.5Zm0,0c0,-.3,-.2,-.5,-.5,-.5c-.2,0,-.4,.2,-.4,.5c0,.2,.2,.4,.4,.4c.3,0,.5,-.2,.5,-.4Z" class="go_57"/>
<path fill-rule="evenodd" d="M258.8,477.5c0,.3,-.2,.5,-.5,.5c-.3,0,-.5,-.2,-.5,-.5c0,-.3,.2,-.5,.5,-.5c.3,0,.5,.2,.5,.5Zm0,0c0,-.3,-.2,-.5,-.5,-.5c-.2,0,-.5,.2,-.5,.5c0,.3,.3,.5,.5,.5c.3,0,.5,-.2,.5,-.5Z" class="gp_57"/>
<path fill-rule="evenodd" d="M258.8,477.5c0,.3,-.2,.5,-.5,.5c-.3,0,-.5,-.2,-.5,-.5c0,-.3,.2,-.5,.5,-.5c.3,0,.5,.2,.5,.5Zm0,0c0,-.3,-.2,-.5,-.5,-.5c-.3,0,-.5,.2,-.5,.5c0,.3,.2,.5,.5,.5c.3,0,.5,-.2,.5,-.5Z" class="gq_57"/>
<path fill-rule="evenodd" d="M258.9,477.5c0,.3,-.3,.5,-.6,.5c-.3,0,-.5,-.2,-.5,-.5c0,-.3,.2,-.6,.5,-.6c.3,0,.6,.3,.6,.6Zm-.1,0c0,-.3,-.2,-.5,-.5,-.5c-.3,0,-.5,.2,-.5,.5c0,.3,.2,.5,.5,.5c.3,0,.5,-.2,.5,-.5Z" class="gr_57"/>
<path fill-rule="evenodd" d="M258.9,477.5c0,.3,-.3,.6,-.6,.6c-.3,0,-.5,-.3,-.5,-.6c0,-.3,.2,-.6,.5,-.6c.3,0,.6,.3,.6,.6Zm0,0c0,-.3,-.3,-.5,-.6,-.5c-.3,0,-.5,.2,-.5,.5c0,.3,.2,.5,.5,.5c.3,0,.6,-.2,.6,-.5Z" class="gs_57"/>
<path fill-rule="evenodd" d="M258.9,477.5c0,.3,-.3,.6,-.6,.6c-.3,0,-.6,-.3,-.6,-.6c0,-.3,.3,-.6,.6,-.6c.3,0,.6,.3,.6,.6Zm0,0c0,-.3,-.3,-.6,-.6,-.6c-.3,0,-.5,.3,-.5,.6c0,.3,.2,.5,.5,.5c.3,0,.6,-.2,.6,-.5Z" class="gt_57"/>
<path fill-rule="evenodd" d="M258.9,477.5c0,.3,-.2,.6,-.6,.6c-.3,0,-.6,-.3,-.6,-.6c0,-.3,.3,-.6,.6,-.6c.4,0,.6,.3,.6,.6Zm0,0c0,-.3,-.3,-.6,-.6,-.6c-.3,0,-.6,.3,-.6,.6c0,.3,.3,.6,.6,.6c.3,0,.6,-.3,.6,-.6Z" class="gt_57"/>
<path fill-rule="evenodd" d="M258.9,477.5c0,.3,-.2,.6,-.6,.6c-.3,0,-.6,-.3,-.6,-.6c0,-.4,.3,-.6,.6,-.6c.4,0,.6,.2,.6,.6Zm0,0c0,-.3,-.3,-.6,-.6,-.6c-.3,0,-.6,.3,-.6,.6c0,.3,.3,.6,.6,.6c.3,0,.6,-.3,.6,-.6Z" class="gu_57"/>
<path fill-rule="evenodd" d="M259,477.5c0,.4,-.3,.6,-.7,.6c-.3,0,-.6,-.2,-.6,-.6c0,-.4,.3,-.7,.6,-.7c.4,0,.7,.3,.7,.7Zm-.1,0c0,-.3,-.2,-.6,-.6,-.6c-.3,0,-.6,.3,-.6,.6c0,.3,.3,.6,.6,.6c.4,0,.6,-.3,.6,-.6Z" class="gv_57"/>
<path fill-rule="evenodd" d="M259,477.5c0,.4,-.3,.7,-.7,.7c-.4,0,-.7,-.3,-.7,-.7c0,-.4,.3,-.7,.7,-.7c.4,0,.7,.3,.7,.7Zm0,0c0,-.4,-.3,-.6,-.7,-.6c-.3,0,-.6,.2,-.6,.6c0,.3,.3,.6,.6,.6c.4,0,.7,-.3,.7,-.6Z" class="gw_57"/>
<path fill-rule="evenodd" d="M259,477.5c0,.4,-.3,.7,-.7,.7c-.4,0,-.7,-.3,-.7,-.7c0,-.4,.3,-.7,.7,-.7c.4,0,.7,.3,.7,.7Zm0,0c0,-.4,-.3,-.7,-.7,-.7c-.3,0,-.6,.3,-.6,.7c0,.4,.3,.7,.6,.7c.4,0,.7,-.3,.7,-.7Z" class="gx_57"/>
<path fill-rule="evenodd" d="M259,477.5c0,.4,-.3,.7,-.7,.7c-.4,0,-.7,-.3,-.7,-.7c0,-.4,.3,-.7,.7,-.7c.4,0,.7,.3,.7,.7Zm0,0c0,-.4,-.3,-.7,-.7,-.7c-.4,0,-.7,.3,-.7,.7c0,.4,.3,.7,.7,.7c.4,0,.7,-.3,.7,-.7Z" class="gy_57"/>
<path fill-rule="evenodd" d="M259,477.5c0,.4,-.3,.7,-.7,.7c-.4,0,-.7,-.3,-.7,-.7c0,-.4,.3,-.7,.7,-.7c.4,0,.7,.3,.7,.7Zm0,0c0,-.4,-.3,-.7,-.7,-.7c-.4,0,-.7,.3,-.7,.7c0,.4,.3,.7,.7,.7c.4,0,.7,-.3,.7,-.7Z" class="gz_57"/>
<path fill-rule="evenodd" d="M259.1,477.5c0,.4,-.4,.7,-.8,.7c-.4,0,-.7,-.3,-.7,-.7c0,-.4,.3,-.8,.7,-.8c.4,0,.8,.4,.8,.8Zm-.1,0c0,-.4,-.3,-.7,-.7,-.7c-.4,0,-.7,.3,-.7,.7c0,.4,.3,.7,.7,.7c.4,0,.7,-.3,.7,-.7Z" class="g10_57"/>
<path fill-rule="evenodd" d="M259.1,477.5c0,.4,-.4,.8,-.8,.8c-.4,0,-.8,-.4,-.8,-.8c0,-.4,.4,-.8,.8,-.8c.4,0,.8,.4,.8,.8Zm0,0c0,-.4,-.4,-.7,-.8,-.7c-.4,0,-.7,.3,-.7,.7c0,.4,.3,.7,.7,.7c.4,0,.8,-.3,.8,-.7Z" class="gz_57"/>
<path fill-rule="evenodd" d="M259.1,477.5c0,.4,-.3,.8,-.8,.8c-.4,0,-.8,-.4,-.8,-.8c0,-.4,.4,-.8,.8,-.8c.5,0,.8,.4,.8,.8Zm0,0c0,-.4,-.4,-.8,-.8,-.8c-.4,0,-.7,.4,-.7,.8c0,.4,.3,.8,.7,.8c.4,0,.8,-.4,.8,-.8Z" class="g11_57"/>
<path fill-rule="evenodd" d="M259.1,477.5c0,.4,-.3,.8,-.8,.8c-.4,0,-.8,-.4,-.8,-.8c0,-.5,.4,-.8,.8,-.8c.5,0,.8,.3,.8,.8Zm0,0c0,-.4,-.4,-.8,-.8,-.8c-.4,0,-.8,.4,-.8,.8c0,.4,.4,.8,.8,.8c.4,0,.8,-.4,.8,-.8Z" class="g11_57"/>
<path fill-rule="evenodd" d="M259.1,477.5c0,.5,-.3,.8,-.8,.8c-.4,0,-.8,-.3,-.8,-.8c0,-.5,.4,-.8,.8,-.8c.5,0,.8,.3,.8,.8Zm0,0c0,-.4,-.3,-.8,-.8,-.8c-.4,0,-.8,.4,-.8,.8c0,.4,.4,.8,.8,.8c.5,0,.8,-.4,.8,-.8Z" class="g11_57"/>
<path fill-rule="evenodd" d="M259.2,477.5c0,.5,-.4,.8,-.9,.8c-.5,0,-.8,-.3,-.8,-.8c0,-.5,.3,-.9,.8,-.9c.5,0,.9,.4,.9,.9Zm-.1,0c0,-.5,-.3,-.8,-.8,-.8c-.4,0,-.8,.3,-.8,.8c0,.4,.4,.8,.8,.8c.5,0,.8,-.4,.8,-.8Z" class="g12_57"/>
<path fill-rule="evenodd" d="M259.2,477.5c0,.5,-.4,.9,-.9,.9c-.5,0,-.9,-.4,-.9,-.9c0,-.5,.4,-.9,.9,-.9c.5,0,.9,.4,.9,.9Zm0,0c0,-.5,-.4,-.8,-.9,-.8c-.4,0,-.8,.3,-.8,.8c0,.5,.4,.8,.8,.8c.5,0,.9,-.3,.9,-.8Z" class="g12_57"/>
<path fill-rule="evenodd" d="M259.2,477.5c0,.5,-.4,.9,-.9,.9c-.5,0,-.9,-.4,-.9,-.9c0,-.5,.4,-.9,.9,-.9c.5,0,.9,.4,.9,.9Zm0,0c0,-.5,-.4,-.9,-.9,-.9c-.5,0,-.8,.4,-.8,.9c0,.5,.3,.9,.8,.9c.5,0,.9,-.4,.9,-.9Z" class="g13_57"/>
<path fill-rule="evenodd" d="M259.2,477.5c0,.5,-.4,.9,-.9,.9c-.5,0,-.9,-.4,-.9,-.9c0,-.5,.4,-.9,.9,-.9c.5,0,.9,.4,.9,.9Zm0,0c0,-.5,-.4,-.9,-.9,-.9c-.5,0,-.9,.4,-.9,.9c0,.5,.4,.9,.9,.9c.5,0,.9,-.4,.9,-.9Z" class="g14_57"/>
<path fill-rule="evenodd" d="M259.3,477.5c0,.5,-.5,.9,-1,.9c-.5,0,-.9,-.4,-.9,-.9c0,-.5,.4,-.9,.9,-.9c.5,0,1,.4,1,.9Zm-.1,0c0,-.5,-.4,-.9,-.9,-.9c-.5,0,-.9,.4,-.9,.9c0,.5,.4,.9,.9,.9c.5,0,.9,-.4,.9,-.9Z" class="g15_57"/>
<path fill-rule="evenodd" d="M259.3,477.5c0,.5,-.5,.9,-1,.9c-.5,0,-.9,-.4,-.9,-.9c0,-.5,.4,-1,.9,-1c.5,0,1,.5,1,1Zm-.1,0c0,-.5,-.4,-.9,-.9,-.9c-.5,0,-.9,.4,-.9,.9c0,.5,.4,.9,.9,.9c.5,0,.9,-.4,.9,-.9Z" class="g16_57"/>
<path fill-rule="evenodd" d="M259.3,477.5c0,.5,-.4,1,-1,1c-.5,0,-1,-.5,-1,-1c0,-.5,.5,-1,1,-1c.6,0,1,.5,1,1Zm0,0c0,-.5,-.5,-1,-1,-1c-.5,0,-.9,.5,-.9,1c0,.5,.4,.9,.9,.9c.5,0,1,-.4,1,-.9Z" class="g17_57"/>
<path fill-rule="evenodd" d="M259.3,477.5c0,.5,-.4,1,-1,1c-.5,0,-1,-.5,-1,-1c0,-.6,.5,-1,1,-1c.6,0,1,.4,1,1Zm0,0c0,-.5,-.5,-1,-1,-1c-.5,0,-.9,.5,-.9,1c0,.5,.4,1,.9,1c.5,0,1,-.5,1,-1Z" class="g18_57"/>
<path fill-rule="evenodd" d="M259.3,477.5c0,.6,-.4,1,-1,1c-.5,0,-1,-.4,-1,-1c0,-.6,.5,-1,1,-1c.6,0,1,.4,1,1Zm0,0c0,-.6,-.4,-1,-1,-1c-.5,0,-1,.4,-1,1c0,.5,.5,1,1,1c.6,0,1,-.5,1,-1Z" class="g19_57"/>
<path fill-rule="evenodd" d="M259.4,477.5c0,.6,-.5,1,-1.1,1c-.6,0,-1,-.4,-1,-1c0,-.6,.4,-1,1,-1c.6,0,1.1,.4,1.1,1Zm-.1,0c0,-.6,-.4,-1,-1,-1c-.5,0,-1,.4,-1,1c0,.5,.5,1,1,1c.6,0,1,-.5,1,-1Z" class="g1a_57"/>
<path fill-rule="evenodd" d="M259.4,477.5c0,.6,-.5,1.1,-1.1,1.1c-.6,0,-1,-.5,-1,-1.1c0,-.6,.4,-1.1,1,-1.1c.6,0,1.1,.5,1.1,1.1Zm-.1,0c0,-.6,-.4,-1,-1,-1c-.6,0,-1,.4,-1,1c0,.6,.4,1,1,1c.6,0,1,-.4,1,-1Z" class="g1a_57"/>
<path fill-rule="evenodd" d="M259.4,477.5c0,.6,-.5,1.1,-1.1,1.1c-.6,0,-1.1,-.5,-1.1,-1.1c0,-.6,.5,-1.1,1.1,-1.1c.6,0,1.1,.5,1.1,1.1Zm0,0c0,-.6,-.5,-1.1,-1.1,-1.1c-.6,0,-1,.5,-1,1.1c0,.6,.4,1,1,1c.6,0,1.1,-.4,1.1,-1Z" class="g1b_57"/>
<path fill-rule="evenodd" d="M259.4,477.5c0,.6,-.5,1.1,-1.1,1.1c-.6,0,-1.1,-.5,-1.1,-1.1c0,-.6,.5,-1.1,1.1,-1.1c.6,0,1.1,.5,1.1,1.1Zm0,0c0,-.6,-.5,-1.1,-1.1,-1.1c-.6,0,-1,.5,-1,1.1c0,.6,.4,1.1,1,1.1c.6,0,1.1,-.5,1.1,-1.1Z" class="g1c_57"/>
<path fill-rule="evenodd" d="M259.4,477.5c0,.6,-.5,1.1,-1.1,1.1c-.6,0,-1.1,-.5,-1.1,-1.1c0,-.6,.5,-1.1,1.1,-1.1c.6,0,1.1,.5,1.1,1.1Zm0,0c0,-.6,-.5,-1.1,-1.1,-1.1c-.6,0,-1.1,.5,-1.1,1.1c0,.6,.5,1.1,1.1,1.1c.6,0,1.1,-.5,1.1,-1.1Z" class="g1d_57"/>
<path fill-rule="evenodd" d="M259.5,477.5c0,.6,-.6,1.1,-1.2,1.1c-.6,0,-1.1,-.5,-1.1,-1.1c0,-.6,.5,-1.1,1.1,-1.1c.6,0,1.2,.5,1.2,1.1Zm-.1,0c0,-.6,-.5,-1.1,-1.1,-1.1c-.6,0,-1.1,.5,-1.1,1.1c0,.6,.5,1.1,1.1,1.1c.6,0,1.1,-.5,1.1,-1.1Z" class="g1d_57"/>
<path fill-rule="evenodd" d="M259.5,477.5c0,.6,-.5,1.2,-1.2,1.2c-.6,0,-1.1,-.6,-1.1,-1.2c0,-.6,.5,-1.2,1.1,-1.2c.7,0,1.2,.6,1.2,1.2Zm-.1,0c0,-.6,-.5,-1.1,-1.1,-1.1c-.6,0,-1.1,.5,-1.1,1.1c0,.6,.5,1.1,1.1,1.1c.6,0,1.1,-.5,1.1,-1.1Z" class="g1e_57"/>
<path fill-rule="evenodd" d="M259.5,477.5c0,.6,-.5,1.2,-1.2,1.2c-.6,0,-1.2,-.6,-1.2,-1.2c0,-.7,.6,-1.2,1.2,-1.2c.7,0,1.2,.5,1.2,1.2Zm0,0c0,-.6,-.5,-1.2,-1.2,-1.2c-.6,0,-1.1,.6,-1.1,1.2c0,.6,.5,1.1,1.1,1.1c.7,0,1.2,-.5,1.2,-1.1Z" class="g1e_57"/>
<path fill-rule="evenodd" d="M259.5,477.5c0,.7,-.5,1.2,-1.2,1.2c-.6,0,-1.2,-.5,-1.2,-1.2c0,-.7,.6,-1.2,1.2,-1.2c.7,0,1.2,.5,1.2,1.2Zm0,0c0,-.7,-.5,-1.2,-1.2,-1.2c-.6,0,-1.2,.5,-1.2,1.2c0,.6,.6,1.2,1.2,1.2c.7,0,1.2,-.6,1.2,-1.2Z" class="g1f_57"/>
<path fill-rule="evenodd" d="M259.5,477.5c0,.7,-.5,1.2,-1.2,1.2c-.7,0,-1.2,-.5,-1.2,-1.2c0,-.7,.5,-1.2,1.2,-1.2c.7,0,1.2,.5,1.2,1.2Zm0,0c0,-.7,-.5,-1.2,-1.2,-1.2c-.6,0,-1.2,.5,-1.2,1.2c0,.7,.6,1.2,1.2,1.2c.7,0,1.2,-.5,1.2,-1.2Z" class="g1g_57"/>
<path fill-rule="evenodd" d="M259.6,477.5c0,.7,-.6,1.2,-1.3,1.2c-.7,0,-1.2,-.5,-1.2,-1.2c0,-.7,.5,-1.2,1.2,-1.2c.7,0,1.3,.5,1.3,1.2Zm-.1,0c0,-.7,-.5,-1.2,-1.2,-1.2c-.7,0,-1.2,.5,-1.2,1.2c0,.7,.5,1.2,1.2,1.2c.7,0,1.2,-.5,1.2,-1.2Z" class="g1g_57"/>
<path fill-rule="evenodd" d="M259.6,477.5c0,.7,-.6,1.3,-1.3,1.3c-.7,0,-1.2,-.6,-1.2,-1.3c0,-.7,.5,-1.3,1.2,-1.3c.7,0,1.3,.6,1.3,1.3Zm-.1,0c0,-.7,-.5,-1.2,-1.2,-1.2c-.7,0,-1.2,.5,-1.2,1.2c0,.7,.5,1.2,1.2,1.2c.7,0,1.2,-.5,1.2,-1.2Z" class="g1g_57"/>
<path fill-rule="evenodd" d="M259.6,477.5c0,.7,-.6,1.3,-1.3,1.3c-.7,0,-1.3,-.6,-1.3,-1.3c0,-.7,.6,-1.3,1.3,-1.3c.7,0,1.3,.6,1.3,1.3Zm0,0c0,-.7,-.6,-1.3,-1.3,-1.3c-.7,0,-1.2,.6,-1.2,1.3c0,.7,.5,1.2,1.2,1.2c.7,0,1.3,-.5,1.3,-1.2Z" class="g1h_57"/>
<path fill-rule="evenodd" d="M259.6,477.5c0,.7,-.6,1.3,-1.3,1.3c-.7,0,-1.3,-.6,-1.3,-1.3c0,-.7,.6,-1.3,1.3,-1.3c.7,0,1.3,.6,1.3,1.3Zm0,0c0,-.7,-.6,-1.3,-1.3,-1.3c-.7,0,-1.3,.6,-1.3,1.3c0,.7,.6,1.3,1.3,1.3c.7,0,1.3,-.6,1.3,-1.3Z" class="g1h_57"/>
<path fill-rule="evenodd" d="M259.6,477.5c0,.7,-.6,1.3,-1.3,1.3c-.7,0,-1.3,-.6,-1.3,-1.3c0,-.7,.6,-1.3,1.3,-1.3c.7,0,1.3,.6,1.3,1.3Zm0,0c0,-.7,-.6,-1.3,-1.3,-1.3c-.7,0,-1.3,.6,-1.3,1.3c0,.7,.6,1.3,1.3,1.3c.7,0,1.3,-.6,1.3,-1.3Z" class="g1i_57"/>
<path fill-rule="evenodd" d="M259.7,477.5c0,.7,-.6,1.3,-1.4,1.3c-.7,0,-1.3,-.6,-1.3,-1.3c0,-.7,.6,-1.4,1.3,-1.4c.8,0,1.4,.7,1.4,1.4Zm-.1,0c0,-.7,-.6,-1.3,-1.3,-1.3c-.7,0,-1.3,.6,-1.3,1.3c0,.7,.6,1.3,1.3,1.3c.7,0,1.3,-.6,1.3,-1.3Z" class="g1i_57"/>
<path fill-rule="evenodd" d="M259.7,477.5c0,.7,-.6,1.4,-1.4,1.4c-.7,0,-1.3,-.7,-1.3,-1.4c0,-.8,.6,-1.4,1.3,-1.4c.8,0,1.4,.6,1.4,1.4Zm0,0c0,-.7,-.6,-1.3,-1.4,-1.3c-.7,0,-1.3,.6,-1.3,1.3c0,.7,.6,1.3,1.3,1.3c.8,0,1.4,-.6,1.4,-1.3Z" class="g1j_57"/>
<path fill-rule="evenodd" d="M259.7,477.5c0,.8,-.6,1.4,-1.4,1.4c-.7,0,-1.4,-.6,-1.4,-1.4c0,-.8,.7,-1.4,1.4,-1.4c.8,0,1.4,.6,1.4,1.4Zm0,0c0,-.8,-.6,-1.4,-1.4,-1.4c-.7,0,-1.3,.6,-1.3,1.4c0,.7,.6,1.3,1.3,1.3c.8,0,1.4,-.6,1.4,-1.3Z" class="g1j_57"/>
<path fill-rule="evenodd" d="M259.7,477.5c0,.8,-.6,1.4,-1.4,1.4c-.8,0,-1.4,-.6,-1.4,-1.4c0,-.8,.6,-1.4,1.4,-1.4c.8,0,1.4,.6,1.4,1.4Zm0,0c0,-.8,-.6,-1.4,-1.4,-1.4c-.7,0,-1.4,.6,-1.4,1.4c0,.8,.7,1.4,1.4,1.4c.8,0,1.4,-.6,1.4,-1.4Z" class="g1k_57"/>
<path fill-rule="evenodd" d="M259.7,477.5c0,.8,-.6,1.4,-1.4,1.4c-.8,0,-1.4,-.6,-1.4,-1.4c0,-.8,.6,-1.4,1.4,-1.4c.8,0,1.4,.6,1.4,1.4Zm0,0c0,-.8,-.6,-1.4,-1.4,-1.4c-.8,0,-1.4,.6,-1.4,1.4c0,.8,.6,1.4,1.4,1.4c.8,0,1.4,-.6,1.4,-1.4Z" class="g1k_57"/>
<path fill-rule="evenodd" d="M259.8,477.5c0,.8,-.7,1.4,-1.5,1.4c-.8,0,-1.4,-.6,-1.4,-1.4c0,-.8,.6,-1.5,1.4,-1.5c.8,0,1.5,.7,1.5,1.5Zm-.1,0c0,-.8,-.6,-1.4,-1.4,-1.4c-.8,0,-1.4,.6,-1.4,1.4c0,.8,.6,1.4,1.4,1.4c.8,0,1.4,-.6,1.4,-1.4Z" class="g1l_57"/>
<path fill-rule="evenodd" d="M259.8,477.5c0,.8,-.7,1.5,-1.5,1.5c-.8,0,-1.5,-.7,-1.5,-1.5c0,-.8,.7,-1.5,1.5,-1.5c.8,0,1.5,.7,1.5,1.5Zm0,0c0,-.8,-.7,-1.4,-1.5,-1.4c-.8,0,-1.4,.6,-1.4,1.4c0,.8,.6,1.4,1.4,1.4c.8,0,1.5,-.6,1.5,-1.4Z" class="g1m_57"/>
<path fill-rule="evenodd" d="M259.8,477.5c0,.8,-.7,1.5,-1.5,1.5c-.8,0,-1.5,-.7,-1.5,-1.5c0,-.8,.7,-1.5,1.5,-1.5c.8,0,1.5,.7,1.5,1.5Zm0,0c0,-.8,-.7,-1.5,-1.5,-1.5c-.8,0,-1.4,.7,-1.4,1.5c0,.8,.6,1.5,1.4,1.5c.8,0,1.5,-.7,1.5,-1.5Z" class="g1n_57"/>
<path fill-rule="evenodd" d="M259.8,477.5c0,.8,-.6,1.5,-1.5,1.5c-.8,0,-1.5,-.7,-1.5,-1.5c0,-.8,.7,-1.5,1.5,-1.5c.9,0,1.5,.7,1.5,1.5Zm0,0c0,-.8,-.7,-1.5,-1.5,-1.5c-.8,0,-1.5,.7,-1.5,1.5c0,.8,.7,1.5,1.5,1.5c.8,0,1.5,-.7,1.5,-1.5Z" class="g1o_57"/>
<path fill-rule="evenodd" d="M259.8,477.5c0,.8,-.6,1.5,-1.5,1.5c-.8,0,-1.5,-.7,-1.5,-1.5c0,-.9,.7,-1.5,1.5,-1.5c.9,0,1.5,.6,1.5,1.5Zm0,0c0,-.8,-.7,-1.5,-1.5,-1.5c-.8,0,-1.5,.7,-1.5,1.5c0,.8,.7,1.5,1.5,1.5c.8,0,1.5,-.7,1.5,-1.5Z" class="g1o_57"/>
<path fill-rule="evenodd" d="M259.9,477.5c0,.9,-.7,1.5,-1.6,1.5c-.8,0,-1.5,-.6,-1.5,-1.5c0,-.9,.7,-1.6,1.5,-1.6c.9,0,1.6,.7,1.6,1.6Zm-.1,0c0,-.8,-.6,-1.5,-1.5,-1.5c-.8,0,-1.5,.7,-1.5,1.5c0,.8,.7,1.5,1.5,1.5c.9,0,1.5,-.7,1.5,-1.5Z" class="g1p_57"/>
<path fill-rule="evenodd" d="M259.9,477.5c0,.9,-.7,1.6,-1.6,1.6c-.9,0,-1.6,-.7,-1.6,-1.6c0,-.9,.7,-1.6,1.6,-1.6c.9,0,1.6,.7,1.6,1.6Zm0,0c0,-.9,-.7,-1.5,-1.6,-1.5c-.8,0,-1.5,.6,-1.5,1.5c0,.8,.7,1.5,1.5,1.5c.9,0,1.6,-.7,1.6,-1.5Z" class="g1p_57"/>
<path fill-rule="evenodd" d="M259.9,477.5c0,.9,-.7,1.6,-1.6,1.6c-.9,0,-1.6,-.7,-1.6,-1.6c0,-.9,.7,-1.6,1.6,-1.6c.9,0,1.6,.7,1.6,1.6Zm0,0c0,-.9,-.7,-1.6,-1.6,-1.6c-.8,0,-1.5,.7,-1.5,1.6c0,.9,.7,1.6,1.5,1.6c.9,0,1.6,-.7,1.6,-1.6Z" class="g1q_57"/>
<path fill-rule="evenodd" d="M259.9,477.5c0,.9,-.7,1.6,-1.6,1.6c-.9,0,-1.6,-.7,-1.6,-1.6c0,-.9,.7,-1.6,1.6,-1.6c.9,0,1.6,.7,1.6,1.6Zm0,0c0,-.9,-.7,-1.6,-1.6,-1.6c-.9,0,-1.6,.7,-1.6,1.6c0,.9,.7,1.6,1.6,1.6c.9,0,1.6,-.7,1.6,-1.6Z" class="g1r_57"/>
<path fill-rule="evenodd" d="M259.9,477.5c0,.9,-.7,1.6,-1.6,1.6c-.9,0,-1.6,-.7,-1.6,-1.6c0,-.9,.7,-1.6,1.6,-1.6c.9,0,1.6,.7,1.6,1.6Zm0,0c0,-.9,-.7,-1.6,-1.6,-1.6c-.9,0,-1.6,.7,-1.6,1.6c0,.9,.7,1.6,1.6,1.6c.9,0,1.6,-.7,1.6,-1.6Z" class="g1s_57"/>
<path fill-rule="evenodd" d="M260,477.5c0,.9,-.8,1.6,-1.7,1.6c-.9,0,-1.6,-.7,-1.6,-1.6c0,-.9,.7,-1.7,1.6,-1.7c.9,0,1.7,.8,1.7,1.7Zm-.1,0c0,-.9,-.7,-1.6,-1.6,-1.6c-.9,0,-1.6,.7,-1.6,1.6c0,.9,.7,1.6,1.6,1.6c.9,0,1.6,-.7,1.6,-1.6Z" class="g1s_57"/>
<path fill-rule="evenodd" d="M260,477.5c0,.9,-.8,1.7,-1.7,1.7c-.9,0,-1.7,-.8,-1.7,-1.7c0,-.9,.8,-1.7,1.7,-1.7c.9,0,1.7,.8,1.7,1.7Zm0,0c0,-.9,-.8,-1.6,-1.7,-1.6c-.9,0,-1.6,.7,-1.6,1.6c0,.9,.7,1.6,1.6,1.6c.9,0,1.7,-.7,1.7,-1.6Z" class="g1t_57"/>
<path fill-rule="evenodd" d="M260,477.5c0,.9,-.7,1.7,-1.7,1.7c-.9,0,-1.7,-.8,-1.7,-1.7c0,-.9,.8,-1.7,1.7,-1.7c1,0,1.7,.8,1.7,1.7Zm0,0c0,-.9,-.8,-1.7,-1.7,-1.7c-.9,0,-1.6,.8,-1.6,1.7c0,.9,.7,1.7,1.6,1.7c.9,0,1.7,-.8,1.7,-1.7Z" class="g1u_57"/>
<path fill-rule="evenodd" d="M260,477.5c0,.9,-.7,1.7,-1.7,1.7c-.9,0,-1.7,-.8,-1.7,-1.7c0,-1,.8,-1.7,1.7,-1.7c1,0,1.7,.7,1.7,1.7Zm0,0c0,-.9,-.8,-1.7,-1.7,-1.7c-.9,0,-1.7,.8,-1.7,1.7c0,.9,.8,1.7,1.7,1.7c.9,0,1.7,-.8,1.7,-1.7Z" class="g1u_57"/>
<path fill-rule="evenodd" d="M260.1,477.5c0,1,-.8,1.7,-1.8,1.7c-.9,0,-1.7,-.7,-1.7,-1.7c0,-1,.8,-1.7,1.7,-1.7c1,0,1.8,.7,1.8,1.7Zm-.1,0c0,-.9,-.7,-1.7,-1.7,-1.7c-.9,0,-1.7,.8,-1.7,1.7c0,.9,.8,1.7,1.7,1.7c1,0,1.7,-.8,1.7,-1.7Z" class="g1v_57"/>
<path fill-rule="evenodd" d="M260.1,477.5c0,1,-.8,1.7,-1.8,1.7c-1,0,-1.7,-.7,-1.7,-1.7c0,-1,.7,-1.8,1.7,-1.8c1,0,1.8,.8,1.8,1.8Zm-.1,0c0,-1,-.7,-1.7,-1.7,-1.7c-.9,0,-1.7,.7,-1.7,1.7c0,.9,.8,1.7,1.7,1.7c1,0,1.7,-.8,1.7,-1.7Z" class="g1u_57"/>
<path fill-rule="evenodd" d="M260.1,477.5c0,1,-.8,1.8,-1.8,1.8c-1,0,-1.8,-.8,-1.8,-1.8c0,-1,.8,-1.8,1.8,-1.8c1,0,1.8,.8,1.8,1.8Zm0,0c0,-1,-.8,-1.8,-1.8,-1.8c-.9,0,-1.7,.8,-1.7,1.8c0,1,.8,1.7,1.7,1.7c1,0,1.8,-.7,1.8,-1.7Z" class="g1w_57"/>
<path fill-rule="evenodd" d="M260.1,477.5c0,1,-.8,1.8,-1.8,1.8c-1,0,-1.8,-.8,-1.8,-1.8c0,-1,.8,-1.8,1.8,-1.8c1,0,1.8,.8,1.8,1.8Zm0,0c0,-1,-.8,-1.8,-1.8,-1.8c-1,0,-1.7,.8,-1.7,1.8c0,1,.7,1.8,1.7,1.8c1,0,1.8,-.8,1.8,-1.8Z" class="g1x_57"/>
<path fill-rule="evenodd" d="M260.1,477.5c0,1,-.8,1.8,-1.8,1.8c-1,0,-1.8,-.8,-1.8,-1.8c0,-1,.8,-1.8,1.8,-1.8c1,0,1.8,.8,1.8,1.8Zm0,0c0,-1,-.8,-1.8,-1.8,-1.8c-1,0,-1.8,.8,-1.8,1.8c0,1,.8,1.8,1.8,1.8c1,0,1.8,-.8,1.8,-1.8Z" class="g1y_57"/>
<path fill-rule="evenodd" d="M260.2,477.5c0,1,-.9,1.8,-1.9,1.8c-1,0,-1.8,-.8,-1.8,-1.8c0,-1,.8,-1.8,1.8,-1.8c1,0,1.9,.8,1.9,1.8Zm-.1,0c0,-1,-.8,-1.8,-1.8,-1.8c-1,0,-1.8,.8,-1.8,1.8c0,1,.8,1.8,1.8,1.8c1,0,1.8,-.8,1.8,-1.8Z" class="g1z_57"/>
<path fill-rule="evenodd" d="M260.2,477.5c0,1,-.9,1.9,-1.9,1.9c-1,0,-1.8,-.9,-1.8,-1.9c0,-1,.8,-1.9,1.8,-1.9c1,0,1.9,.9,1.9,1.9Zm-.1,0c0,-1,-.8,-1.8,-1.8,-1.8c-1,0,-1.8,.8,-1.8,1.8c0,1,.8,1.8,1.8,1.8c1,0,1.8,-.8,1.8,-1.8Z" class="g20_57"/>
<path fill-rule="evenodd" d="M260.2,477.5c0,1,-.8,1.9,-1.9,1.9c-1,0,-1.9,-.9,-1.9,-1.9c0,-1,.9,-1.9,1.9,-1.9c1.1,0,1.9,.9,1.9,1.9Zm0,0c0,-1,-.9,-1.9,-1.9,-1.9c-1,0,-1.8,.9,-1.8,1.9c0,1,.8,1.8,1.8,1.8c1,0,1.9,-.8,1.9,-1.8Z" class="g20_57"/>
<path fill-rule="evenodd" d="M260.2,477.5c0,1,-.8,1.9,-1.9,1.9c-1,0,-1.9,-.9,-1.9,-1.9c0,-1.1,.9,-1.9,1.9,-1.9c1.1,0,1.9,.8,1.9,1.9Zm0,0c0,-1,-.9,-1.9,-1.9,-1.9c-1,0,-1.9,.9,-1.9,1.9c0,1,.9,1.9,1.9,1.9c1,0,1.9,-.9,1.9,-1.9Z" class="g21_57"/>
<path fill-rule="evenodd" d="M260.2,477.5c0,1.1,-.8,1.9,-1.9,1.9c-1,0,-1.9,-.8,-1.9,-1.9c0,-1.1,.9,-1.9,1.9,-1.9c1.1,0,1.9,.8,1.9,1.9Zm0,0c0,-1.1,-.8,-1.9,-1.9,-1.9c-1,0,-1.9,.8,-1.9,1.9c0,1,.9,1.9,1.9,1.9c1.1,0,1.9,-.9,1.9,-1.9Z" class="g22_57"/>
<path fill-rule="evenodd" d="M260.3,477.5c0,1.1,-.9,1.9,-2,1.9c-1.1,0,-1.9,-.8,-1.9,-1.9c0,-1.1,.8,-1.9,1.9,-1.9c1.1,0,2,.8,2,1.9Zm-.1,0c0,-1.1,-.8,-1.9,-1.9,-1.9c-1,0,-1.9,.8,-1.9,1.9c0,1,.9,1.9,1.9,1.9c1.1,0,1.9,-.9,1.9,-1.9Z" class="g23_57"/>
<path fill-rule="evenodd" d="M260.3,477.5c0,1.1,-.9,2,-2,2c-1.1,0,-1.9,-.9,-1.9,-2c0,-1.1,.8,-2,1.9,-2c1.1,0,2,.9,2,2Zm-.1,0c0,-1.1,-.8,-1.9,-1.9,-1.9c-1,0,-1.9,.8,-1.9,1.9c0,1.1,.9,1.9,1.9,1.9c1.1,0,1.9,-.8,1.9,-1.9Z" class="g24_57"/>
<path fill-rule="evenodd" d="M260.3,477.5c0,1.1,-.9,2,-2,2c-1.1,0,-2,-.9,-2,-2c0,-1.1,.9,-2,2,-2c1.1,0,2,.9,2,2Zm0,0c0,-1.1,-.9,-2,-2,-2c-1.1,0,-1.9,.9,-1.9,2c0,1.1,.8,1.9,1.9,1.9c1.1,0,2,-.8,2,-1.9Z" class="g25_57"/>
<path fill-rule="evenodd" d="M260.3,477.5c0,1.1,-.9,2,-2,2c-1.1,0,-2,-.9,-2,-2c0,-1.1,.9,-2,2,-2c1.1,0,2,.9,2,2Zm0,0c0,-1.1,-.9,-2,-2,-2c-1.1,0,-2,.9,-2,2c0,1.1,.9,2,2,2c1.1,0,2,-.9,2,-2Z" class="g26_57"/>
<path fill-rule="evenodd" d="M260.3,477.5c0,1.1,-.9,2,-2,2c-1.1,0,-2,-.9,-2,-2c0,-1.1,.9,-2,2,-2c1.1,0,2,.9,2,2Zm0,0c0,-1.1,-.9,-2,-2,-2c-1.1,0,-2,.9,-2,2c0,1.1,.9,2,2,2c1.1,0,2,-.9,2,-2Z" class="g27_57"/>
<path fill-rule="evenodd" d="M260.4,477.5c0,1.1,-1,2,-2.1,2c-1.1,0,-2,-.9,-2,-2c0,-1.1,.9,-2,2,-2c1.1,0,2.1,.9,2.1,2Zm-.1,0c0,-1.1,-.9,-2,-2,-2c-1.1,0,-2,.9,-2,2c0,1.1,.9,2,2,2c1.1,0,2,-.9,2,-2Z" class="g28_57"/>
<path fill-rule="evenodd" d="M260.4,477.5c0,1.1,-.9,2.1,-2.1,2.1c-1.1,0,-2,-1,-2,-2.1c0,-1.1,.9,-2.1,2,-2.1c1.2,0,2.1,1,2.1,2.1Zm0,0c0,-1.1,-1,-2,-2.1,-2c-1.1,0,-2,.9,-2,2c0,1.1,.9,2,2,2c1.1,0,2.1,-.9,2.1,-2Z" class="g29_57"/>
<path fill-rule="evenodd" d="M260.4,477.5c0,1.1,-.9,2.1,-2.1,2.1c-1.1,0,-2.1,-1,-2.1,-2.1c0,-1.2,1,-2.1,2.1,-2.1c1.2,0,2.1,.9,2.1,2.1Zm0,0c0,-1.1,-.9,-2.1,-2.1,-2.1c-1.1,0,-2,1,-2,2.1c0,1.1,.9,2,2,2c1.2,0,2.1,-.9,2.1,-2Z" class="g29_57"/>
<path fill-rule="evenodd" d="M260.4,477.5c0,1.2,-.9,2.1,-2.1,2.1c-1.1,0,-2.1,-.9,-2.1,-2.1c0,-1.2,1,-2.1,2.1,-2.1c1.2,0,2.1,.9,2.1,2.1Zm0,0c0,-1.2,-.9,-2.1,-2.1,-2.1c-1.1,0,-2.1,.9,-2.1,2.1c0,1.1,1,2.1,2.1,2.1c1.2,0,2.1,-1,2.1,-2.1Z" class="g2a_57"/>
<path fill-rule="evenodd" d="M260.4,477.5c0,1.2,-.9,2.1,-2.1,2.1c-1.2,0,-2.1,-.9,-2.1,-2.1c0,-1.2,.9,-2.1,2.1,-2.1c1.2,0,2.1,.9,2.1,2.1Zm0,0c0,-1.2,-.9,-2.1,-2.1,-2.1c-1.1,0,-2.1,.9,-2.1,2.1c0,1.1,1,2.1,2.1,2.1c1.2,0,2.1,-1,2.1,-2.1Z" class="g2b_57"/>
<path fill-rule="evenodd" d="M260.5,477.5c0,1.2,-1,2.1,-2.2,2.1c-1.2,0,-2.1,-.9,-2.1,-2.1c0,-1.2,.9,-2.2,2.1,-2.2c1.2,0,2.2,1,2.2,2.2Zm-.1,0c0,-1.2,-.9,-2.1,-2.1,-2.1c-1.2,0,-2.1,.9,-2.1,2.1c0,1.2,.9,2.1,2.1,2.1c1.2,0,2.1,-.9,2.1,-2.1Z" class="g2c_57"/>
<path fill-rule="evenodd" d="M260.5,477.5c0,1.2,-1,2.2,-2.2,2.2c-1.2,0,-2.1,-1,-2.1,-2.2c0,-1.2,.9,-2.2,2.1,-2.2c1.2,0,2.2,1,2.2,2.2Zm0,0c0,-1.2,-1,-2.1,-2.2,-2.1c-1.2,0,-2.1,.9,-2.1,2.1c0,1.2,.9,2.1,2.1,2.1c1.2,0,2.2,-.9,2.2,-2.1Z" class="g2d_57"/>
<path fill-rule="evenodd" d="M260.5,477.5c0,1.2,-1,2.2,-2.2,2.2c-1.2,0,-2.2,-1,-2.2,-2.2c0,-1.2,1,-2.2,2.2,-2.2c1.2,0,2.2,1,2.2,2.2Zm0,0c0,-1.2,-1,-2.2,-2.2,-2.2c-1.2,0,-2.1,1,-2.1,2.2c0,1.2,.9,2.2,2.1,2.2c1.2,0,2.2,-1,2.2,-2.2Z" class="g2e_57"/>
<path fill-rule="evenodd" d="M260.5,477.5c0,1.2,-1,2.2,-2.2,2.2c-1.2,0,-2.2,-1,-2.2,-2.2c0,-1.2,1,-2.2,2.2,-2.2c1.2,0,2.2,1,2.2,2.2Zm0,0c0,-1.2,-1,-2.2,-2.2,-2.2c-1.2,0,-2.2,1,-2.2,2.2c0,1.2,1,2.2,2.2,2.2c1.2,0,2.2,-1,2.2,-2.2Z" class="g2f_57"/>
<path fill-rule="evenodd" d="M260.5,477.5c0,1.2,-1,2.2,-2.2,2.2c-1.2,0,-2.2,-1,-2.2,-2.2c0,-1.2,1,-2.2,2.2,-2.2c1.2,0,2.2,1,2.2,2.2Zm0,0c0,-1.2,-1,-2.2,-2.2,-2.2c-1.2,0,-2.2,1,-2.2,2.2c0,1.2,1,2.2,2.2,2.2c1.2,0,2.2,-1,2.2,-2.2Z" class="g2g_57"/>
<path fill-rule="evenodd" d="M260.6,477.5c0,1.2,-1,2.2,-2.3,2.2c-1.2,0,-2.2,-1,-2.2,-2.2c0,-1.2,1,-2.3,2.2,-2.3c1.3,0,2.3,1.1,2.3,2.3Zm-.1,0c0,-1.2,-1,-2.2,-2.2,-2.2c-1.2,0,-2.2,1,-2.2,2.2c0,1.2,1,2.2,2.2,2.2c1.2,0,2.2,-1,2.2,-2.2Z" class="g2g_57"/>
<path fill-rule="evenodd" d="M260.6,477.5c0,1.2,-1,2.3,-2.3,2.3c-1.2,0,-2.3,-1.1,-2.3,-2.3c0,-1.3,1.1,-2.3,2.3,-2.3c1.3,0,2.3,1,2.3,2.3Zm0,0c0,-1.2,-1,-2.2,-2.3,-2.2c-1.2,0,-2.2,1,-2.2,2.2c0,1.2,1,2.2,2.2,2.2c1.3,0,2.3,-1,2.3,-2.2Z" class="g2h_57"/>
<path fill-rule="evenodd" d="M260.6,477.5c0,1.3,-1,2.3,-2.3,2.3c-1.2,0,-2.3,-1,-2.3,-2.3c0,-1.3,1.1,-2.3,2.3,-2.3c1.3,0,2.3,1,2.3,2.3Zm0,0c0,-1.3,-1,-2.3,-2.3,-2.3c-1.2,0,-2.2,1,-2.2,2.3c0,1.2,1,2.3,2.2,2.3c1.3,0,2.3,-1.1,2.3,-2.3Z" class="g2i_57"/>
<path fill-rule="evenodd" d="M260.6,477.5c0,1.3,-1,2.3,-2.3,2.3c-1.3,0,-2.3,-1,-2.3,-2.3c0,-1.3,1,-2.3,2.3,-2.3c1.3,0,2.3,1,2.3,2.3Zm0,0c0,-1.3,-1,-2.3,-2.3,-2.3c-1.2,0,-2.3,1,-2.3,2.3c0,1.3,1.1,2.3,2.3,2.3c1.3,0,2.3,-1,2.3,-2.3Z" class="g2j_57"/>
<path fill-rule="evenodd" d="M260.6,477.5c0,1.3,-1,2.3,-2.3,2.3c-1.3,0,-2.3,-1,-2.3,-2.3c0,-1.3,1,-2.3,2.3,-2.3c1.3,0,2.3,1,2.3,2.3Zm0,0c0,-1.3,-1,-2.3,-2.3,-2.3c-1.3,0,-2.3,1,-2.3,2.3c0,1.3,1,2.3,2.3,2.3c1.3,0,2.3,-1,2.3,-2.3Z" class="g2k_57"/>
<path fill-rule="evenodd" d="M260.7,477.5c0,1.3,-1.1,2.3,-2.4,2.3c-1.3,0,-2.3,-1,-2.3,-2.3c0,-1.3,1,-2.4,2.3,-2.4c1.3,0,2.4,1.1,2.4,2.4Zm-.1,0c0,-1.3,-1,-2.3,-2.3,-2.3c-1.3,0,-2.3,1,-2.3,2.3c0,1.3,1,2.3,2.3,2.3c1.3,0,2.3,-1,2.3,-2.3Z" class="g2l_57"/>
<path fill-rule="evenodd" d="M260.7,477.5c0,1.3,-1.1,2.4,-2.4,2.4c-1.3,0,-2.4,-1.1,-2.4,-2.4c0,-1.3,1.1,-2.4,2.4,-2.4c1.3,0,2.4,1.1,2.4,2.4Zm0,0c0,-1.3,-1.1,-2.3,-2.4,-2.3c-1.3,0,-2.3,1,-2.3,2.3c0,1.3,1,2.3,2.3,2.3c1.3,0,2.4,-1,2.4,-2.3Z" class="g2m_57"/>
<path fill-rule="evenodd" d="M260.7,477.5c0,1.3,-1.1,2.4,-2.4,2.4c-1.3,0,-2.4,-1.1,-2.4,-2.4c0,-1.3,1.1,-2.4,2.4,-2.4c1.3,0,2.4,1.1,2.4,2.4Zm0,0c0,-1.3,-1.1,-2.4,-2.4,-2.4c-1.3,0,-2.3,1.1,-2.3,2.4c0,1.3,1,2.4,2.3,2.4c1.3,0,2.4,-1.1,2.4,-2.4Z" class="g2m_57"/>
<path fill-rule="evenodd" d="M260.7,477.5c0,1.3,-1.1,2.4,-2.4,2.4c-1.3,0,-2.4,-1.1,-2.4,-2.4c0,-1.3,1.1,-2.4,2.4,-2.4c1.3,0,2.4,1.1,2.4,2.4Zm0,0c0,-1.3,-1.1,-2.4,-2.4,-2.4c-1.3,0,-2.4,1.1,-2.4,2.4c0,1.3,1.1,2.4,2.4,2.4c1.3,0,2.4,-1.1,2.4,-2.4Z" class="g2m_57"/>
<path fill-rule="evenodd" d="M260.8,477.5c0,1.3,-1.1,2.4,-2.5,2.4c-1.3,0,-2.4,-1.1,-2.4,-2.4c0,-1.4,1.1,-2.4,2.4,-2.4c1.4,0,2.5,1,2.5,2.4Zm-.1,0c0,-1.3,-1.1,-2.4,-2.4,-2.4c-1.3,0,-2.4,1.1,-2.4,2.4c0,1.3,1.1,2.4,2.4,2.4c1.3,0,2.4,-1.1,2.4,-2.4Z" class="g2n_57"/>
<path fill-rule="evenodd" d="M260.8,477.5c0,1.3,-1.1,2.4,-2.5,2.4c-1.3,0,-2.4,-1.1,-2.4,-2.4c0,-1.4,1.1,-2.5,2.4,-2.5c1.4,0,2.5,1.1,2.5,2.5Zm-.1,0c0,-1.3,-1,-2.4,-2.4,-2.4c-1.3,0,-2.4,1.1,-2.4,2.4c0,1.3,1.1,2.4,2.4,2.4c1.4,0,2.4,-1.1,2.4,-2.4Z" class="g2n_57"/>
<path fill-rule="evenodd" d="M260.8,477.5c0,1.4,-1.1,2.5,-2.5,2.5c-1.3,0,-2.5,-1.1,-2.5,-2.5c0,-1.4,1.2,-2.5,2.5,-2.5c1.4,0,2.5,1.1,2.5,2.5Zm0,0c0,-1.4,-1.1,-2.4,-2.5,-2.4c-1.3,0,-2.4,1,-2.4,2.4c0,1.3,1.1,2.4,2.4,2.4c1.4,0,2.5,-1.1,2.5,-2.4Z" class="g2n_57"/>
<path fill-rule="evenodd" d="M260.8,477.5c0,1.4,-1.1,2.5,-2.5,2.5c-1.4,0,-2.5,-1.1,-2.5,-2.5c0,-1.4,1.1,-2.5,2.5,-2.5c1.4,0,2.5,1.1,2.5,2.5Zm0,0c0,-1.4,-1.1,-2.5,-2.5,-2.5c-1.3,0,-2.4,1.1,-2.4,2.5c0,1.4,1.1,2.5,2.4,2.5c1.4,0,2.5,-1.1,2.5,-2.5Z" class="g2o_57"/>
<path fill-rule="evenodd" d="M260.8,477.5c0,1.4,-1.1,2.5,-2.5,2.5c-1.4,0,-2.5,-1.1,-2.5,-2.5c0,-1.4,1.1,-2.5,2.5,-2.5c1.4,0,2.5,1.1,2.5,2.5Zm0,0c0,-1.4,-1.1,-2.5,-2.5,-2.5c-1.4,0,-2.5,1.1,-2.5,2.5c0,1.4,1.1,2.5,2.5,2.5c1.4,0,2.5,-1.1,2.5,-2.5Z" class="g2p_57"/>
<path fill-rule="evenodd" d="M260.9,477.5c0,1.4,-1.2,2.5,-2.6,2.5c-1.4,0,-2.5,-1.1,-2.5,-2.5c0,-1.4,1.1,-2.5,2.5,-2.5c1.4,0,2.6,1.1,2.6,2.5Zm-.1,0c0,-1.4,-1.1,-2.5,-2.5,-2.5c-1.4,0,-2.5,1.1,-2.5,2.5c0,1.4,1.1,2.5,2.5,2.5c1.4,0,2.5,-1.1,2.5,-2.5Z" class="g2q_57"/>
<path fill-rule="evenodd" d="M260.9,477.5c0,1.4,-1.2,2.6,-2.6,2.6c-1.4,0,-2.5,-1.2,-2.5,-2.6c0,-1.4,1.1,-2.6,2.5,-2.6c1.4,0,2.6,1.2,2.6,2.6Zm-.1,0c0,-1.4,-1.1,-2.5,-2.5,-2.5c-1.4,0,-2.5,1.1,-2.5,2.5c0,1.4,1.1,2.5,2.5,2.5c1.4,0,2.5,-1.1,2.5,-2.5Z" class="g2r_57"/>
<path fill-rule="evenodd" d="M260.9,477.5c0,1.4,-1.2,2.6,-2.6,2.6c-1.4,0,-2.6,-1.2,-2.6,-2.6c0,-1.4,1.2,-2.6,2.6,-2.6c1.4,0,2.6,1.2,2.6,2.6Zm0,0c0,-1.4,-1.2,-2.6,-2.6,-2.6c-1.4,0,-2.5,1.2,-2.5,2.6c0,1.4,1.1,2.5,2.5,2.5c1.4,0,2.6,-1.1,2.6,-2.5Z" class="g2s_57"/>
<path fill-rule="evenodd" d="M260.9,477.5c0,1.4,-1.1,2.6,-2.6,2.6c-1.4,0,-2.6,-1.2,-2.6,-2.6c0,-1.4,1.2,-2.6,2.6,-2.6c1.5,0,2.6,1.2,2.6,2.6Zm0,0c0,-1.4,-1.2,-2.6,-2.6,-2.6c-1.4,0,-2.6,1.2,-2.6,2.6c0,1.4,1.2,2.6,2.6,2.6c1.4,0,2.6,-1.2,2.6,-2.6Z" class="g2t_57"/>
<path fill-rule="evenodd" d="M260.9,477.5c0,1.4,-1.1,2.6,-2.6,2.6c-1.4,0,-2.6,-1.2,-2.6,-2.6c0,-1.5,1.2,-2.6,2.6,-2.6c1.5,0,2.6,1.1,2.6,2.6Zm0,0c0,-1.4,-1.2,-2.6,-2.6,-2.6c-1.4,0,-2.6,1.2,-2.6,2.6c0,1.4,1.2,2.6,2.6,2.6c1.4,0,2.6,-1.2,2.6,-2.6Z" class="g2t_57"/>
<path fill-rule="evenodd" d="M260.9,477.5v.2c0,1,-.7,1.8,-1.6,2.2c-.6,.3,-1.4,.3,-2,0c-.9,-.4,-1.6,-1.3,-1.6,-2.4c0,-.6,.2,-1.2,.6,-1.7c.4,-.5,1,-.8,1.6,-.9h.1c.2,0,.3,0,.5,0h.1c.1,0,.2,0,.4,0v.1c.3,0,.5,.1,.7,.3h.1c0,0,.1,.1,.1,.1c.3,.2,.5,.5,.7,.8c.2,.3,.3,.7,.3,1v.3Zm0,0c0,-1.4,-1.1,-2.6,-2.6,-2.6c-1.4,0,-2.6,1.2,-2.6,2.6c0,1.4,1.2,2.6,2.6,2.6c1.5,0,2.6,-1.2,2.6,-2.6Z" class="g1_57"/>
<path d="M260.9,477.5h-.3c0,1.2,-1,2.2,-2.3,2.2c-1.2,0,-2.2,-1,-2.2,-2.2c0,-1.2,1,-2.3,2.2,-2.3c1.3,0,2.3,1.1,2.3,2.3h.7c0,-1.7,-1.3,-3,-3,-3c-1.6,0,-3,1.3,-3,3c0,1.7,1.4,3,3,3c1.7,0,3,-1.3,3,-3h-.4Z" class="g1_57"/>
<path d="M143.9,608.1c0,2,1.7,3.7,3.7,3.7h219c2.1,0,3.8,-1.7,3.8,-3.7c0,-2.1,-1.7,-3.8,-3.8,-3.8h-219c-2,0,-3.7,1.7,-3.7,3.8c0,0,0,-2.1,0,0Z" class="g2u_57"/>
<path d="M143.9,608.1h-.7v-.5c.2,-2.3,2.1,-4,4.4,-4h219c2.5,0,4.5,2,4.5,4.5c0,2.4,-2,4.5,-4.5,4.5h-219c-2.3,0,-4.2,-1.8,-4.4,-4.1v-.4h1.5v-1c0,-.2,-.1,-.4,-.2,-.5c-.2,-.1,-.4,-.2,-.6,-.2c-.2,0,-.4,.1,-.5,.2c-.1,.1,-.2,.2,-.2,.4c0,-.2,.1,-.3,.2,-.4c.1,-.1,.3,-.2,.5,-.2c.2,0,.4,.1,.6,.2c.1,.1,.2,.3,.2,.5c0,0,0,.3,0,1h-1.5h1.5c0,-1.7,1.3,-3,2.9,-3h219c1.7,0,3,1.3,3,3c0,1.6,-1.3,2.9,-3,2.9h-219c-1.6,0,-2.9,-1.3,-2.9,-2.9h-.8Z" class="g5_57"/>
<path d="M243,608h30.6v-3.7H243Z" class="g5_57"/>
<path d="M273.6,604.3v-.7H242.2v5.2h32.2v-5.2h-.8v.7h-.7v3H243.7v-2.2h29.9v-.8h-.7h.7Z" class="g5_57"/>
<image clip-path="url(#c0_57)" preserveAspectRatio="none" x="171" y="484" width="43" height="55" xlink:href="img/1.jpg"/>
<image clip-path="url(#c1_57)" preserveAspectRatio="none" x="214" y="484" width="43" height="55" xlink:href="img/2.jpg"/>
<image clip-path="url(#c2_57)" preserveAspectRatio="none" x="257" y="484" width="43" height="55" xlink:href="img/3.jpg"/>
<image clip-path="url(#c3_57)" preserveAspectRatio="none" x="300" y="484" width="43" height="55" xlink:href="img/4.jpg"/>
<image clip-path="url(#c4_57)" preserveAspectRatio="none" x="171" y="539" width="43" height="54" xlink:href="img/5.jpg"/>
<image clip-path="url(#c5_57)" preserveAspectRatio="none" x="214" y="539" width="43" height="54" xlink:href="img/6.jpg"/>
<image clip-path="url(#c6_57)" preserveAspectRatio="none" x="257" y="539" width="43" height="54" xlink:href="img/7.jpg"/>
<image clip-path="url(#c7_57)" preserveAspectRatio="none" x="300" y="539" width="43" height="54" xlink:href="img/8.jpg"/>
<path d="M598.6,722.9h.8V592.6h-.8Z" class="g1_57"/>
<path d="M549,650.6v33.6c0,0,18.1,4.7,36.9,1.8c18.8,-3,53.1,-7.7,62.3,-4.9V650.6H549Z" class="g2_57"/>
<path d="M549,650.6h-.4v33.6c0,.2,.1,.4,.3,.4c0,0,10.4,2.7,23.8,2.7c4.2,0,8.7,-.2,13.2,-1c14.8,-2.3,39,-5.7,53.2,-5.7c4,0,7.1,.3,9,.9l.4,-.1l.1,-.3V650.6l-.1,-.3l-.3,-.1H549l-.3,.1l-.1,.3h.4v.3h98.9v30.2h.3l.1,-.3c-2,-.7,-5.2,-.9,-9.2,-.9c-14.3,0,-38.5,3.4,-53.3,5.7c-4.5,.7,-9,1,-13.1,1c-6.6,0,-12.5,-.7,-16.8,-1.4c-2.1,-.3,-3.8,-.7,-5,-.9c-1.2,-.3,-1.8,-.4,-1.8,-.4l-.1,.3h.3V650.6H549v.3v-.3Z" class="g1_57"/>
<path d="M559.4,650.6h78.4V628.5H559.4Z" class="g2_57"/>
<path d="M559.4,628.5H559v22.1l.1,.2l.3,.1h78.4l.3,-.1l.1,-.2V628.5l-.1,-.3l-.3,-.1H559.4l-.3,.1l-.1,.3h.4v.4h78.1v21.3H559.8V628.5h-.4v.4v-.4Z" class="g1_57"/>
<path d="M549,650.6h10.4V628.5H549Z" class="g2_57"/>
<path d="M549,628.5h-.4v22.1l.1,.2l.3,.1h10.4l.2,-.1l.2,-.2V628.5l-.2,-.3l-.2,-.1H549l-.3,.1l-.1,.3h.4v.4h10v21.3h-9.7V628.5H549v.4v-.4Z" class="g1_57"/>
<path d="M637.8,650.6h10.4V628.5H637.8Z" class="g2_57"/>
<path d="M648.2,628.5v-.4H637.8l-.2,.1l-.1,.3v22.1l.1,.2l.2,.1h10.4l.3,-.1l.1,-.2V628.5l-.1,-.3l-.3,-.1v.4h-.3v21.7h-9.7V628.9h10v-.4h-.3h.3Z" class="g1_57"/>
</svg>