<?xml version="1.0" encoding="UTF-8" standalone="no"?>
<!DOCTYPE svg PUBLIC "-//W3C//DTD SVG 1.1//EN"
"http://www.w3.org/Graphics/SVG/1.1/DTD/svg11.dtd">
<svg viewBox="0 0 931 1096" version="1.1" xmlns="http://www.w3.org/2000/svg" xmlns:xlink="http://www.w3.org/1999/xlink">
<defs>
<clipPath id="c0_24"><path d="M53.5,434.6V295.3H241.7V434.6Z"/></clipPath>
<style type="text/css"><![CDATA[
.g0_24{
fill: none;
stroke: #241F1F;
stroke-width: 0.611;
stroke-miterlimit: 10;
}
.g1_24{
fill: none;
stroke: #241F1F;
stroke-width: 0.763;
stroke-miterlimit: 10;
}
.g2_24{
fill: none;
stroke: #241F1F;
stroke-width: 0.534;
stroke-miterlimit: 10;
}
.g3_24{
fill: none;
stroke: #00AEEF;
stroke-width: 1.145;
}
.g4_24{
fill: #EE008C;
}
.g5_24{
fill: none;
stroke: #EE008C;
stroke-width: 0.763;
stroke-miterlimit: 3;
}
.g6_24{
fill: #00AEEF;
}
.g7_24{
fill: none;
stroke: #241F1F;
stroke-width: 0.611;
stroke-miterlimit: 3;
}
.g8_24{
fill: #241F1F;
}
.g9_24{
fill: none;
stroke: #241F1F;
stroke-width: 0.381;
stroke-miterlimit: 3;
}
.ga_24{
fill: none;
stroke: #00AEEF;
stroke-width: 0.763;
}
]]></style>
</defs>
<path d="M344.4,209.2h6.7" class="g0_24"/>
<path d="M373.1,214.6h15.6m108.5,0h61.9m-186.8,55h44.3m145.9,0h44.3" class="g1_24"/>
<path d="M678.5,269.5h5.4m28,0h5.4" class="g2_24"/>
<path d="M373.1,324.6h62" class="g1_24"/>
<path d="M446.2,363.5H453" class="g0_24"/>
<path d="M496.1,419.3h62.1" class="g1_24"/>
<path d="M307.7,557c0,0,-1.6,0,-1.6,1.5v14.2c0,0,0,1.5,1.6,1.5h14.1c0,0,1.5,0,1.5,-1.5V558.5c0,0,0,-1.5,-1.5,-1.5H307.7Zm0,50.4c0,0,-1.6,0,-1.6,1.6v14.1c0,0,0,1.5,1.6,1.5h14.1c0,0,1.5,0,1.5,-1.5V609c0,0,0,-1.6,-1.5,-1.6H307.7Zm0,169.6c0,0,-1.6,0,-1.6,1.5v14.2c0,0,0,1.5,1.6,1.5h14.1c0,0,1.5,0,1.5,-1.5V778.5c0,0,0,-1.5,-1.5,-1.5H307.7Z" class="g3_24"/>
<path d="M143.4,386.2c0,-1,.8,-1.7,1.8,-1.7c.9,0,1.7,.7,1.7,1.7c0,.9,-.8,1.7,-1.7,1.7c-1,0,-1.8,-.8,-1.8,-1.7Z" class="g4_24"/>
<path d="M143.4,386.2c0,-1,.8,-1.7,1.8,-1.7c.9,0,1.7,.7,1.7,1.7c0,.9,-.8,1.7,-1.7,1.7c-1,0,-1.8,-.8,-1.8,-1.7Z" class="g5_24"/>
<path d="M198.8,407.1h2.7c0,-30.8,-25.3,-55.7,-56.4,-55.7c-31,0,-56.2,24.9,-56.2,55.7h2.6c0,-30.2,24,-54.6,53.6,-54.6c29.7,0,53.7,24.4,53.7,54.6Z" class="g6_24"/>
<path d="M145.2,434.6V306.3" class="g7_24"/>
<path fill-rule="evenodd" d="M145.2,306.3l-2.5,1.6l2.5,-6.5l2.4,6.5Z" class="g8_24"/>
<path d="M53.5,407.1H236.8M200.2,404v6.1M90.2,404v6.1m51.9,-58h6.1" class="g7_24"/>
<path clip-path="url(#c0_24)" fill-rule="evenodd" d="M236.8,407.1l-1.6,-2.5l6.5,2.5l-6.5,2.4Z" class="g8_24"/>
<path d="M180.3,354.2l-28.7,26.5" class="g9_24"/>
<path d="M149.2,383l2.1,-4.2l.3,1.9l1.9,.5Z" class="g8_24"/>
<path d="M396.1,758.6c0,0,-3.1,0,-3.1,3V858c0,0,0,3.1,3.1,3.1H711.9c0,0,3,0,3,-3.1V761.6c0,0,0,-3,-3,-3H396.1Z" class="ga_24"/>
</svg>