<?xml version="1.0" encoding="UTF-8" standalone="no"?>
<!DOCTYPE svg PUBLIC "-//W3C//DTD SVG 1.1//EN"
"http://www.w3.org/Graphics/SVG/1.1/DTD/svg11.dtd">
<svg viewBox="0 0 931 1096" version="1.1" xmlns="http://www.w3.org/2000/svg" xmlns:xlink="http://www.w3.org/1999/xlink">
<defs>
<clipPath id="c0_79"><path d="M514.9,894.6v-32h64.8v32Z"/></clipPath>
<style type="text/css"><![CDATA[
.g0_79{
fill: none;
stroke: #241F1F;
stroke-width: 0.611;
stroke-miterlimit: 3;
}
.g1_79{
fill: none;
stroke: #FFBB08;
stroke-width: 0.916;
stroke-linejoin: round;
}
.g2_79{
fill: none;
stroke: #EE008C;
stroke-width: 0.763;
stroke-linejoin: round;
}
.g3_79{
fill: none;
stroke: #00AEEF;
stroke-width: 0.763;
stroke-linejoin: round;
}
.g4_79{
fill: none;
stroke: #A9D264;
stroke-width: 0.916;
stroke-linejoin: round;
}
.g5_79{
fill: none;
stroke: #A753A1;
stroke-width: 0.916;
stroke-linejoin: round;
}
.g6_79{
fill: none;
stroke: #F8831E;
stroke-width: 0.916;
stroke-linejoin: round;
}
.g7_79{
fill: none;
stroke: #241F1F;
stroke-width: 0.534;
stroke-miterlimit: 3;
}
.g8_79{
fill: none;
stroke: #241F1F;
stroke-width: 0.763;
stroke-linejoin: round;
}
.g9_79{
fill: #241F1F;
}
.ga_79{
fill: none;
stroke: #00AEEF;
stroke-width: 1.069;
stroke-linejoin: round;
}
.gb_79{
fill: #00AEEF;
}
.gc_79{
fill: none;
stroke: #00AEEF;
stroke-width: 0.763;
stroke-miterlimit: 3;
}
.gd_79{
fill: none;
stroke: #241F1F;
stroke-width: 0.763;
stroke-miterlimit: 10;
}
.ge_79{
fill: none;
stroke: #00AEEF;
stroke-width: 0.763;
}
.gf_79{
fill: #F6F5F5;
}
]]></style>
</defs>
<path d="M680.5,402.9V409M585.8,314.2h6.1" class="g0_79"/>
<path d="M424,404.4c95.3,-2.1,137.3,-23.2,164.8,-90.2c9.2,-22.3,27.5,-78.8,34,-129.6" class="g1_79"/>
<path d="M424,398.3c54,-7.1,119.7,-19.7,164.8,-84.1c16.3,-23.2,42,-69.6,58.4,-129.6" class="g2_79"/>
<path d="M424,379.2c57.1,-10.1,119.7,-33.4,164.8,-65C620.2,292.3,669,249.1,705.7,184.6" class="g3_79"/>
<path d="M470,185.3C528.5,280.1,579.4,307,588.8,314.2c16,12.5,77.2,51.8,185.4,69.9" class="g4_79"/>
<path d="M528.8,185.3c21,72.6,52.8,120.5,60,128.9c17.6,20.9,42.8,73.6,185.4,86.8" class="g5_79"/>
<path d="M424,314.4H762.3" class="g6_79"/>
<path d="M508.8,192.7h5.1m-63.3,.8h5" class="g7_79"/>
<path d="M424,360.9c57.1,-10.2,109.6,-23.7,164.8,-46.7C655.3,286.6,728.6,245.7,772.1,201.4" class="g8_79"/>
<path d="M423.9,405.9H778.3" class="g0_79"/>
<path fill-rule="evenodd" d="M778.3,405.9l-1.6,-2.4l6.5,2.4l-6.5,2.5Z" class="g9_79"/>
<path d="M588.9,427.3V185.9" class="g0_79"/>
<path fill-rule="evenodd" d="M588.9,185.9l-2.5,1.6l2.5,-6.5l2.4,6.5Z" class="g9_79"/>
<path d="M672.3,636.6H539.5" class="ga_79"/>
<path d="M794.7,636.6c0,-.6,.5,-1.2,1.2,-1.2c.7,0,1.2,.6,1.2,1.2c0,.7,-.5,1.2,-1.2,1.2c-.7,0,-1.2,-.5,-1.2,-1.2Z" class="gb_79"/>
<path d="M794.7,636.6c0,-.6,.5,-1.2,1.2,-1.2c.7,0,1.2,.6,1.2,1.2c0,.7,-.5,1.2,-1.2,1.2c-.7,0,-1.2,-.5,-1.2,-1.2Z" class="gc_79"/>
<path d="M841.5,578.5C822,626.4,783,654.5,729.1,659.3M375.5,578.5c19.5,47.9,58.5,76,112.3,80.8" class="ga_79"/>
<path d="M419.8,636.6c0,-.6,.6,-1.2,1.3,-1.2c.6,0,1.2,.6,1.2,1.2c0,.7,-.6,1.2,-1.2,1.2c-.7,0,-1.3,-.5,-1.3,-1.2Z" class="gb_79"/>
<path d="M419.8,636.6c0,-.6,.6,-1.2,1.3,-1.2c.6,0,1.2,.6,1.2,1.2c0,.7,-.6,1.2,-1.2,1.2c-.7,0,-1.3,-.5,-1.3,-1.2Z" class="gc_79"/>
<path d="M539.6,663H674.3M607,679.3V578.4M728.5,663H863.3m-67.4,16.3V578.4M353.7,663H488.4m-67.3,16.3V578.4" class="g0_79"/>
<path fill-rule="evenodd" d="M673.5,663l-1.7,-2.4l6.5,2.4l-6.5,2.5Z" class="g9_79"/>
<path fill-rule="evenodd" d="M607.2,579.9l-2.5,1.6l2.5,-6.5l2.4,6.5Z" class="g9_79"/>
<path fill-rule="evenodd" d="M796.2,579.7l-2.5,1.6l2.5,-6.5l2.4,6.5Z" class="g9_79"/>
<path fill-rule="evenodd" d="M862.1,663l-1.6,-2.4L867,663l-6.5,2.5Z" class="g9_79"/>
<path fill-rule="evenodd" d="M487.3,662.9l-1.6,-2.4l6.5,2.4l-6.5,2.5Z" class="g9_79"/>
<path fill-rule="evenodd" d="M421.3,579.8l-2.4,1.7l2.4,-6.6l2.5,6.6Z" class="g9_79"/>
<path clip-path="url(#c0_79)" d="M562.2,878.8H580" class="gd_79"/>
<path d="M345.7,810c0,0,-3.1,0,-3.1,2.4v93.8c0,0,0,2.4,3.1,2.4H875.1c0,0,3,0,3,-2.4V812.4c0,0,0,-2.4,-3,-2.4H345.7Z" class="ge_79"/>
<path d="M114.6,809.6c0,0,-6.1,0,-6.1,6.1v61.2c0,0,0,6.1,6.1,6.1H322.4c0,0,6.1,0,6.1,-6.1V815.7c0,0,0,-6.1,-6.1,-6.1Z" class="gf_79"/>
</svg>