<?xml version="1.0" encoding="UTF-8" standalone="no"?>
<!DOCTYPE svg PUBLIC "-//W3C//DTD SVG 1.1//EN"
"http://www.w3.org/Graphics/SVG/1.1/DTD/svg11.dtd">
<svg viewBox="0 0 907 1045" version="1.1" xmlns="http://www.w3.org/2000/svg" xmlns:xlink="http://www.w3.org/1999/xlink">
<defs>
<clipPath id="c0_340"><path d="M639.9,240.9v-1.1h-8.7v-1.1h-4.3v-1.1h-3.3v-1.1h-1v-1h-3.3v-1.1h-1.1v-1.1h-1.1v-1.1H615v-1.1h-1.1v-1h-2.2V229h-1.1v-1.1h-1.1v-1.1h-1.1v-2.2h-1v-1h-1.1v-1.1h-1.1v-1.1h-1.1v-2.2H603v-1h-1.1V216h-1v-3.2h-1.1v-5.4h-1.1V193.3h1.1V189h1.1v-2.2h1v-2.1H603v-2.2h1.1v-1.1h1.1v-1.1h1.1v-1h1.1v-1.1h1v-1.1h1.1V176h1.1v-1.1h1.1v-1h1.1v-1.1H615v-1.1h1v-1.1h1.1v-1.1h1.1v-2.1h-1.1v-2.2H616v-1.1h-1v-3.2h-1.1v-4.3h-1.1v-2.2h-1.1v-2.2h-1.1v-2.1h-1.1V136h1.1v-3.2h1.1v-2.2h1.1v-3.2h1.1v-3.3H615v-4.3h1v-2.1h1.1v-2.2h1.1v-1.1h1.1v-2.1h2.2v-1.1h1.1v-1.1h2.1V109h2.2v-1.1h2.2v-1.1h5.4v-1h3.2v1h5.5v1.1h3.2V109h1.1v1.1h2.2v1.1h1.1v1.1h1v1h1.1v1.1H654v1.1h1.1v1.1h1.1v1.1h1.1v2.1h1.1v1.1h1V122h1.1v2.1h1.1v2.2h1.1v3.2h1.1v2.2h1.1V136H666v6.5h-1.1v4.3h-1.1V149h-1.1v2.2h-1.1v1h-1.1v2.2h-1.1v1.1h-1v1.1h-1.1v2.1H667v1.1h13.1v-1.1h8.6v-1.1h5.5v-1h4.3v-1.1h2.2v-1.1h3.2v-1.1h2.2v-1.1h1.1v-1h2.2v-1.1h1V149h1.1v-1.1h3.3V149H717v1.1h1v1.1h1.1v1h1.1v1.1h1.1v1.1h1.1v1.1h1.1v2.1h1v1.1h1.1V162h1.1v2.1h1.1v3.3h1.1v9.7h-1.1v4.3h-1.1v4.3h-1.1v2.2h-1.1v2.2h-1v3.2h-1.1v1.1h-1.1v2.1h-1.1v1.1h-1.1v2.2H718v1.1h-1V202h-1.1v1h-1.1v1.1h-1.1v1.1h-1.1v1.1h-1.1v1.1h-1.1v1h-1v1.1h-1.1v1.1h-1.1v1.1H705v2.1h-2.2v1.1h-1V216h-1.1v1.1h-1.1v1.1h-2.2v1h-1.1v1.1h-1v1.1h-1.1v1.1H692v1.1h-1.1v1h-2.2v1.1h-1v1.1h-1.1v1.1h-1.1V229h-2.2v1.1h-2.2v1h-1v1.1h-2.2v1.1h-1.1v1.1h-2.2v1.1h-2.1v1h-2.2v1.1H667v1.1h-4.3v1.1h-7.6v1.1Z"/></clipPath>
<clipPath id="c1_340"><path d="M689.9,254.1v-.9h-7.3v-.9h-3.7v-1h-2.7v-.9h-.9v-.9h-2.8v-.9h-.9v-.9h-.9v-.9h-1.9v-.9h-.9V245h-1.8v-1h-.9v-.9h-.9v-.9h-1v-1.8h-.9v-.9h-.9v-.9h-.9v-.9h-.9v-1.9h-.9v-.9h-1v-1.8h-.9v-2.8H656v-4.5h-.9V213.9h.9v-3.6h.9v-1.9h.9v-1.8h1v-1.8h.9v-.9h.9V203h.9v-.9h.9v-1h.9v-.9h1v-.9h.9v-.9h.9v-.9h.9v-.9h1.8v-.9h1v-.9h.9v-1h.9V192h-.9v-1.8h-.9v-.9h-1v-2.8h-.9v-3.6H667v-1.8h-.9v-1.9h-.9v-1.8h-.9V165.5h.9v-2.7h.9V161h.9v-2.8h.9v-2.7h.9v-3.6h1V150h.9v-1.8h.9v-.9h.9v-1.8h1.8v-.9h1v-1h1.8v-.9h1.8v-.9h1.9v-.9h4.5V140h2.8v.9h4.6v.9h2.7v.9h.9v.9h1.9v1h.9v.9h.9v.9h.9v.9h.9v.9h.9v.9h1v.9h.9v1.9h.9v.9h.9v.9h.9v1.8h.9v1.8h1v2.8h.9v1.8h.9v3.6h.9V171H711v3.7h-.9v1.8h-.9v1.8h-1v.9h-.9v1.9h-.9v.9h-.9v.9h-.9v1.8h8.2v.9h11v-.9h7.4v-.9h4.5v-.9h3.7V182h1.8v-.9H744v-.9h1.8v-1h.9v-.9h1.9v-.9h.9v-.9h.9v-.9h2.8v.9H755v.9h.9v.9h.9v.9h.9v1h.9v.9h1v.9h.9v1.8h.9v.9h.9v2.8h.9v1.8h.9V192h1v8.2h-1v3.7h-.9v3.6h-.9v1.9h-.9v1.8h-.9v2.7h-.9v.9h-1v1.9h-.9v.9h-.9v1.8h-.9v.9H755v.9h-.9v.9h-.9v.9h-1v1h-.9v.9h-.9v.9h-.9v.9h-.9v.9h-.9v.9h-1v.9h-1.8v1.9h-1.8v.9h-.9v.9h-1v.9h-.9v.9h-1.8v.9h-.9v.9h-.9v1h-1v.9h-1.8v.9H733v.9h-1.8v.9h-1v.9h-.9v.9h-.9v.9h-1.8v1h-1.9v.9h-.9v.9H722v.9h-.9v.9h-1.9v.9h-1.8v.9h-1.8v.9h-2.8v1h-3.6v.9h-6.5v.9Z"/></clipPath>
<clipPath id="c2_340"><path d="M731.4,261.1v-.7h-5.5v-.6h-2.8v-.7H721v-.7h-.7v-.7h-2V257h-.7v-.7h-.7v-.7h-1.4v-.7h-.7v-.7h-1.4v-.6h-.7v-.7H712v-.7h-.7v-1.4h-.6v-.7H710v-.7h-.7v-.7h-.7v-1.4h-.7v-.6h-.7v-1.4h-.7v-2.1h-.7v-3.4h-.7v-9h.7v-2.7h.7v-1.4h.7v-1.4h.7v-1.4h.7v-.7h.7v-.7h.7v-.6h.7v-.7h.6v-.7h.7v-.7h.7v-.7h.7v-.7h.7v-.7h1.4V217h.7v-.7h.7v-.7h.7v-1.3h-.7v-1.4h-.7v-.7h-.7v-2.1h-.7v-2.7h-.7V206h-.7v-1.4h-.7v-1.4H712v-8.9h.7v-2.1h.7v-1.4h.7v-2h.7v-2.1h.7v-2.8h.7v-1.3h.7v-1.4h.7v-.7h.7v-1.4h1.3v-.7h.7v-.7h1.4v-.6h1.4v-.7h1.4v-.7h3.4V175H730v.7h3.5v.7h2.1v.7h.7v.6h1.3v.7h.7v.7h.7v.7h.7v.7h.7v.7h.7v.7h.7v.7h.7v1.3h.7v.7h.7v.7h.7v1.4h.6v1.4h.7v2.1h.7v1.3h.7v2.8h.7v4.1h-.7v2.8h-.7v1.4h-.7v1.3h-.7v.7h-.6V206h-.7v.7h-.7v.7h-.7v1.4h6.2v.6H757v-.6h5.5v-.7H766v-.7h2.8v-.7h1.4V206h2v-.7h1.4v-.7h.7v-.7h1.4v-.7h.7v-.6h.7v-.7h2.1v.7h1.3v.6h.7v.7h.7v.7h.7v.7h.7v.7h.7v.7h.7v1.4h.7v.7h.7v2h.7v1.4h.7v2.1h.6v6.2h-.6v2.7h-.7V226h-.7v1.4h-.7v1.3h-.7v2.1H784v.7h-.7v1.4h-.7v.7h-.7v1.3h-.7v.7h-.7v.7h-.7v.7h-.6v.7h-.7v.7h-.7v.7h-.7v.7h-.7v.7h-.7v.6H775v.7h-.7v.7h-1.4v1.4h-1.4v.7h-.7v.7h-.6v.7h-.7v.7h-1.4v.6h-.7v.7h-.7v.7H766v.7h-1.4v.7h-.7v.7h-1.4v.7h-.6v.7h-.7v.7h-.7v.7h-1.4v.6h-1.4v.7H757v.7h-1.4v.7h-.7v.7h-1.3v.7h-1.4v.7h-1.4v.7h-2.1v.7h-2.8v.6h-4.8v.7Z"/></clipPath>
<clipPath id="c3_340"><path d="M767.9,267.8v-.5h-3.7v-.4h-1.8v-.5H761v-.5h-.5v-.4h-1.4V265h-.4v-.4h-.5v-.5h-.9v-.5h-.5v-.4h-.9v-.5h-.5v-.4H755v-.5h-.5v-.9h-.4v-.5h-.5V260h-.5v-.5h-.4v-.9h-.5v-.5h-.4v-.9h-.5v-1.4h-.5v-2.3h-.4v-6h.4v-1.8h.5v-.9h.5v-1h.4v-.9h.5v-.4h.4V242h.5v-.5h.5v-.4h.4v-.5h.5v-.4h.4v-.5h.5v-.5h.5v-.4h.9v-.5h.5v-.4h.4v-.5h.5v-.9h-.5v-.9h-.4v-.5h-.5v-1.4h-.5v-1.8h-.4V231h-.5v-1h-.5v-.9H755v-6h.4v-1.3h.5v-1h.5v-1.3h.4v-1.4h.5v-1.9h.5v-.9h.4v-.9h.5v-.5h.4V213h1v-.5h.4v-.4h1v-.5h.9v-.4h.9v-.5h2.3v-.5H767v.5h2.3v.5h1.4v.4h.5v.5h.9v.4h.4v.5h.5v.5h.5v.4h.4v.5h.5v.4h.5v.5h.4v.9h.5v.5h.4v.4h.5v1h.5v.9h.4v1.4h.5v.9h.5v1.8h.4v2.8h-.4v1.8h-.5v1h-.5v.9h-.4v.4h-.5v1h-.5v.4h-.4v.5h-.5v.9h4.2v.5H785v-.5h3.7v-.5H791v-.4h1.9v-.5h.9V231h1.4v-.5h.9V230h.5v-.4h.9v-.5h.5v-.4h.4v-.5h1.4v.5h.9v.4h.5v.5h.5v.4h.4v.5h.5v.5h.4v.4h.5v.9h.5v.5h.4v1.4h.5v.9h.5v1.4h.4v4.1h-.4v1.9h-.5v1.8h-.5v.9H804v.9h-.5v1.4H803v.5h-.4v.9h-.5v.5h-.4v.9h-.5v.4h-.5v.5h-.4v.5h-.5v.4h-.5v.5h-.4v.4h-.5v.5H798v.5h-.5v.4H797v.5h-.4v.4h-.9v1h-1v.4h-.4v.5h-.5v.4h-.5v.5h-.9v.5H792v.4h-.5v.5H791v.5h-.9v.4h-.5v.5h-.9v.4h-.4v.5h-.5v.5h-.5v.4h-.9v.5h-.9v.4H785v.5h-.9v.5h-.5v.4h-.9v.5h-.9v.4h-.9v.5h-1.4v.5h-1.9v.4h-3.2v.5Z"/></clipPath>
<clipPath id="c4_340"><path d="M-2.6,1047.7V-2.6H910.2V1047.7Z"/></clipPath>
<style type="text/css"><![CDATA[
.g0_340{
fill: none;
stroke: #636363;
stroke-width: 1.527;
stroke-linecap: butt;
stroke-linejoin: miter;
stroke-miterlimit: 4;
}
.g1_340{
fill: none;
stroke: #FFFFFF;
stroke-width: 1.909;
stroke-linecap: butt;
stroke-linejoin: miter;
}
.g2_340{
fill: none;
stroke: #000000;
stroke-width: 0.381;
stroke-linecap: butt;
stroke-linejoin: miter;
}
]]></style>
</defs>
<path d="M358.9,388.2c-8.7,-7.7,-20.2,-12.9,-32.2,-12.7c-4.7,.1,-8.6,1.6,-12.1,5.1c-3.3,3.3,-3.2,9,-6.3,11.7c-1.9,-1.3,-2.8,-3.8,-2.7,-6c-.3,2.8,.5,5.5,2.2,7.8c1.8,-2.7,4.3,-4.2,6.9,-5.9m139.5,59.3C448.4,435.2,440.3,430.4,427,428c-9.7,-1.7,-16.9,-.8,-26,3c-.3,-1.5,-.1,-3,0,-4.7c-1.1,2.3,-6.9,11.5,-4.7,13.5c2.4,-1.2,5.2,-1.5,7.7,-2.2m46.3,106.1c-4.1,1,-8.1,2.2,-12.2,3.1c-3,.7,-13.8,4.6,-16.3,2.3c1.2,-.8,2.1,-1.8,2.7,-3.1c-1.6,.3,-4,4.5,-5.6,6.2c2.1,1.5,5.4,1.4,7.8,2M414.6,630c-10.8,-8.6,-25.4,-11.6,-38.9,-13c-13.8,-1.5,-30,-2,-43.2,2.6c-11.1,3.9,-21.3,8.5,-30.8,15.5c-4.1,3,-7.4,6,-6.6,-1.1c-3.5,1.9,-6,6.2,-7.4,9.8c3.9,-.9,7.5,-2.8,11.6,-2.8m151.4,40.3c-9.4,0,-17,-.1,-26.1,-2.5c-13.5,-3.6,-26.9,-8.3,-39.5,-14.5c-.7,2,-.2,5,-.2,7.3c.3,-2.3,-.8,-4.3,-1.8,-6.4c2.4,-.6,5.1,-.3,7.7,-.3m186.7,85.6c-3.7,-2.6,-6.5,-4.1,-11,-5.1c-6.3,-1.4,-14.3,-4,-20.8,-3.9c-4.5,.1,-8.5,2.6,-13,2.9c-4.8,.4,-9.4,.8,-13.4,4c.6,-2.6,1.8,-5.1,3.3,-7.3c-2.7,3,-3.8,7.2,-4.5,11.1c2.2,.8,4.6,.2,6.9,.2" class="g0_340"/>
<image clip-path="url(#c0_340)" preserveAspectRatio="none" x="598" y="106" width="131" height="135" xlink:href="img/1.jpg"/>
<image clip-path="url(#c1_340)" preserveAspectRatio="none" x="654" y="140" width="111" height="114" xlink:href="img/2.jpg"/>
<image clip-path="url(#c2_340)" preserveAspectRatio="none" x="704" y="175" width="84" height="86" xlink:href="img/3.jpg"/>
<image clip-path="url(#c3_340)" preserveAspectRatio="none" x="750" y="210" width="56" height="58" xlink:href="img/4.jpg"/>
<path d="M452.7,686.1c-1,.7,-2.4,.7,-3.4,.9c-3.3,.7,-6.6,1,-9.9,1.3c-2.6,.2,-5.1,.3,-7.6,.7c-2.6,.4,-5,.8,-7.6,.9c-5.1,.1,-10.3,.1,-15.4,.4c.9,-.1,2.1,-1,2.9,-1.5c.8,-.3,1.6,-.7,2.2,-1.3c-.9,.4,-1.9,.5,-2.9,.9c-.8,.3,-1.3,.7,-2,1.1c-.3,.2,-1.9,.6,-2,1c-.2,.9,1.6,.9,2.3,1.1c2,.5,3.8,1.3,5.6,2.3" class="g0_340"/>
<g clip-path="url(#c4_340)">
<path d="M-4.5,13.7H-27.4m939.5,0H935M-4.5,1031.2H-27.4m939.5,0H935M13.7,-4.5V-27.4m0,1077v22.9m880,-1077V-27.4m0,1077v22.9" class="g1_340"/>
<path d="M-4.5,13.7H-27.4m939.5,0H935M-4.5,1031.2H-27.4m939.5,0H935M13.7,-4.5V-27.4m0,1077v22.9m880,-1077V-27.4m0,1077v22.9" class="g2_340"/>
</g>
</svg>