<?xml version="1.0" encoding="UTF-8" standalone="no"?>
<!DOCTYPE svg PUBLIC "-//W3C//DTD SVG 1.1//EN"
"http://www.w3.org/Graphics/SVG/1.1/DTD/svg11.dtd">
<svg viewBox="0 0 907 1045" version="1.1" xmlns="http://www.w3.org/2000/svg" xmlns:xlink="http://www.w3.org/1999/xlink">
<defs>
<clipPath id="c0_384"><path d="M623.5,202.4c-6.9,-4.6,-14.9,-4.9,-12.3,-18.1c1.4,-7,6.7,-9.8,12.7,-12.3h6.6c15.3,6.9,11.7,24.1,-1.8,30.4Z"/></clipPath>
<clipPath id="c1_384"><path d="M667.6,202.4c-6.9,-4.6,-14.9,-4.9,-12.2,-18.1c1.4,-7,6.6,-9.8,12.6,-12.3h6.6c15.3,7,11.7,24.1,-1.7,30.4Z"/></clipPath>
<clipPath id="c2_384"><path d="M711.7,202.4c-6.9,-4.6,-14.8,-4.9,-12.2,-18.1c1.4,-7,6.7,-9.8,12.7,-12.3h6.5c15.3,7,11.8,24.1,-1.7,30.4Z"/></clipPath>
<clipPath id="c3_384"><path d="M755.9,202.4c-7,-4.6,-14.9,-4.9,-12.3,-18.1c1.4,-7,6.7,-9.8,12.7,-12.3h6.6c15.2,7,11.7,24.1,-1.8,30.4Z"/></clipPath>
<clipPath id="c4_384"><path d="M690,373.2c-6.9,-4.6,-14.8,-4.9,-12.2,-18.1c1.4,-7,6.7,-9.8,12.7,-12.3H697c15.3,6.9,11.7,24.1,-1.7,30.4Z"/></clipPath>
<clipPath id="c5_384"><path d="M690.2,329.6C683.3,325,675.3,324.7,678,311.5c1.4,-7,6.6,-9.8,12.6,-12.3h6.6c15.3,6.9,11.7,24.1,-1.7,30.4Z"/></clipPath>
<clipPath id="c6_384"><path d="M690.2,418.9C683.3,414.3,675.3,414,678,400.8c1.4,-7,6.6,-9.9,12.6,-12.4h6.6c15.3,7,11.7,24.1,-1.7,30.5Z"/></clipPath>
<clipPath id="c7_384"><path d="M689.9,463.8C683,459.2,675,459,677.7,445.8c1.4,-7.1,6.6,-9.9,12.6,-12.4h6.6c15.3,7,11.7,24.1,-1.7,30.4Z"/></clipPath>
<clipPath id="c8_384"><path d="M91,405.5v-234H247.7v234Z"/></clipPath>
<clipPath id="c9_384"><path d="M353.5,708.5c-14.4,-9.6,-30.9,-10.2,-25.4,-37.6c2.9,-14.6,13.8,-20.4,26.3,-25.6H368c31.7,14.4,24.3,50,-3.6,63.2Z"/></clipPath>
<clipPath id="ca_384"><path d="M360.2,835.6C345.8,826,329.3,825.5,334.8,798.1c2.9,-14.6,13.9,-20.4,26.3,-25.6h13.6c31.7,14.4,24.4,49.9,-3.6,63.1Z"/></clipPath>
<clipPath id="cb_384"><path d="M625.8,629.8c-7,-4.6,-14.9,-4.9,-12.3,-18.1c1.4,-7,6.7,-9.8,12.7,-12.3h6.6c15.2,7,11.7,24.1,-1.8,30.4Z"/></clipPath>
<clipPath id="cc_384"><path d="M669.9,629.8c-6.9,-4.6,-14.9,-4.9,-12.3,-18c1.4,-7.1,6.7,-9.9,12.7,-12.4h6.6c15.2,7,11.7,24.1,-1.8,30.4Z"/></clipPath>
<clipPath id="cd_384"><path d="M714,629.8c-6.9,-4.6,-14.9,-4.9,-12.2,-18c1.4,-7.1,6.6,-9.9,12.6,-12.4H721c15.3,7,11.7,24.1,-1.7,30.4Z"/></clipPath>
<clipPath id="ce_384"><path d="M758.1,629.8c-6.9,-4.6,-14.8,-4.9,-12.2,-18c1.4,-7.1,6.7,-9.9,12.7,-12.4h6.5c15.3,7,11.7,24.1,-1.7,30.4Z"/></clipPath>
<clipPath id="cf_384"><path d="M697.2,815.5c-6.9,-4.6,-14.8,-4.9,-12.2,-18.1c1.4,-7,6.7,-9.8,12.7,-12.3h6.5c15.3,6.9,11.8,24.1,-1.7,30.4Z"/></clipPath>
<clipPath id="cg_384"><path d="M697.4,771.9c-6.9,-4.6,-14.8,-4.9,-12.2,-18.1c1.4,-7,6.7,-9.8,12.7,-12.3h6.5c15.3,6.9,11.7,24,-1.7,30.4Z"/></clipPath>
<clipPath id="ch_384"><path d="M697.4,861.2c-6.9,-4.7,-14.8,-4.9,-12.2,-18.1c1.4,-7.1,6.7,-9.9,12.7,-12.4h6.5c15.3,7,11.7,24.1,-1.7,30.5Z"/></clipPath>
<clipPath id="ci_384"><path d="M697.1,906.1c-6.9,-4.6,-14.8,-4.9,-12.2,-18.1c1.4,-7,6.7,-9.8,12.7,-12.3h6.5c15.3,7,11.7,24.1,-1.7,30.4Z"/></clipPath>
<clipPath id="cj_384"><path d="M156.7,722.9v-.6h.5v.6Zm-21.8,14.5c2.7,-5.5,8.3,-9,11.9,-13.3h.6v.1c1.1,-1.5,2.2,-3.1,2.9,-4.8h1.1c-.2,1.7,-3,3.2,-2.9,5.3h-1.1v-.5c-3.5,4.5,-8.4,8.8,-12.5,13.2ZM167.1,720c-.2,-.6,-.4,-1.1,-.6,-1.5V720Zm-.6,-1.5v0v-1.6c-.2,.3,-.2,.8,0,1.6Zm52.4,.9v-2.9h.6v2.9Zm-54.1,-2.9v-1.1h.6v1.1Zm14,183.3c-7.3,-5.2,-2.1,-17.4,0,-25c-2.3,-10.8,-4.1,-20,-7,-30.9h-.6v.6h-4.7c.5,-.1,3.7,-1.6,4.1,-1.7c-3.4,-.5,-5.7,-1,-7.5,-3h-1.8c.1,.7,0,1,-.5,1c-.3,0,-.7,-.2,-1.2,-.4c.3,1.6,1.1,2.3,2.3,2.9h-1.2c-.4,-.4,-1,-1,-1.7,-1.1c1.4,-7.4,-2.9,-14.5,0,-21.6c-1.2,-.3,-1.8,-1.3,-2.9,-1.7c.7,-1.6,.6,-2.4,-.3,-2.4c-.1,0,-.2,.1,-.3,.1c1.8,-8,1,-45.6,9.9,-46.6c0,-.2,.5,-1.1,.6,-1.1c-13.2,-4.8,-28.2,-15.2,-35.5,-26.2c1.2,-1.8,2.7,-3.5,4.4,-5.3c-.8,1.4,-1.3,3,-1.5,4.7h1.2c-.2,-.7,.1,-1,.7,-1c.3,0,.9,.1,1.6,.4c-.1,-1.3,-.1,-1,-.6,-1.7c1.5,-1.7,2.4,-3.6,3.5,-5.8c.8,-.6,2.3,-1.4,2.9,-1.8c.1,-.2,-.4,-1.2,-.6,-1.7c5.1,-.4,9.4,-4.8,11.7,-8.2h1.7v.6h1.2v1.2h.5v.6h.6c-.1,-.7,.1,-1.1,.7,-1.1c.4,0,1,.2,1.6,.5c-.2,-1,0,-1.4,.7,-1.4c.3,0,.6,0,1.1,.2c-.1,-2.6,.1,-3,.2,-3c.1,0,.2,.1,.3,.1c0,0,.1,-.2,.1,-1.2c.1,.1,.2,.1,.3,.1c1.1,0,.9,-.5,1.4,-1.2h.6v1.1h.6v-2.3h1.1v.4c.2,-.3,.5,-.4,.9,-.4c.1,0,.2,0,.3,0c-.3,-.8,-.5,-2.7,-.6,-3.5c-.7,-1.3,-.6,-3.9,-1.1,-5.2c.1,0,.2,.1,.3,.1c.3,0,.4,-.3,.2,-.7c.6,.2,1,.3,1.2,.3c.5,0,.7,-.3,.6,-.9h.6v.6H170c2.3,-.5,5.6,-1.2,7,-2.9h1.2v.6h1.1c4.8,-2.3,5.7,-11.4,-.5,-12.8c-.6,-1.2,-.5,-1.8,.2,-1.8c.1,0,.2,0,.3,0C176.2,684.6,173.9,673,177,666.5c1.8,-3.7,5.8,-5,8.7,-7.6h3.5c2.4,.9,5.2,1.3,8.2,1.8c2.9,4,8.1,5.7,8.7,12.2c.8,10.3,-1.9,24.9,-7.6,30.2c2.6,1.5,5.3,2.4,7,4.7h.6v-1.2h4.6c3.3,1.1,6.2,1.9,8.8,3.5c-1.9,2.4,-2.6,4.9,-2.9,8.7h.5v-1.1h.6v1.7h1.2v.6h1.7v5.2h.6v-.5h.6v.5h.6v.6h-.6v1.8h1.7c1.4,-2.2,3.6,-3.4,5.3,-5.3h1.7c-.1,.6,-.2,.6,-.3,.6h-.1c0,0,-.1,.2,-.2,1.2c5.1,7.2,12.6,14.4,14.6,24.4c-10.7,7.3,-19.6,18.5,-33.2,22.7c3,6.1,5.3,18.9,4.7,25.6c2.2,3.2,.9,24.3,-1.8,25.6c0,14.6,.1,6.6,-.6,16.3c-.1,-.1,-.2,-.1,-.3,-.1c-.3,0,-.4,.2,-.2,.7c-1,-.3,-1.8,-.4,-2.6,-.4c-4.1,0,-5,3.4,-6.7,5.6c-1.4,8.6,-9.9,25.8,-5.3,33.7c-.3,.9,-.5,.3,-.6,1.2c.2,0,.3,0,.4,0c1.2,0,1.3,1.2,.2,3.5c1,.5,1.3,1.2,2.4,1.7c-.6,1.5,-.4,3.9,-.6,4.7c-.1,1,-.3,.2,-.6,1.2c1.1,3.1,-1.1,7.7,-3.5,9.3h-5.8v-.6h-.6v-.6h-1.2v-1.2h-.5v-.5h-1.2v.5h-.6v.6h-.6v1.2h-1.1v.6Z"/></clipPath>
<clipPath id="ck_384"><path d="M-2.6,1047.7V-2.6H910.2V1047.7Z"/></clipPath>
<style type="text/css"><![CDATA[
.g0_384{
fill: #D9D9D9;
}
.g1_384{
fill: none;
stroke: #636363;
stroke-width: 0.984;
stroke-linecap: butt;
stroke-linejoin: miter;
stroke-miterlimit: 4;
}
.g2_384{
fill: none;
stroke: #404040;
stroke-width: 0.984;
stroke-linecap: butt;
stroke-linejoin: miter;
stroke-miterlimit: 4;
}
.g3_384{
fill: none;
stroke: #5A5A5A;
stroke-width: 1.527;
stroke-linecap: butt;
stroke-linejoin: miter;
stroke-miterlimit: 4;
}
.g4_384{
fill: none;
stroke: #393939;
stroke-width: 1.145;
stroke-linecap: butt;
stroke-linejoin: miter;
stroke-miterlimit: 4;
}
.g5_384{
fill: #393939;
}
.g6_384{
fill: #FFFFFF;
}
.g7_384{
fill: none;
stroke: #404040;
stroke-width: 1.145;
stroke-linecap: butt;
stroke-linejoin: miter;
stroke-miterlimit: 4;
}
.g8_384{
fill: #404040;
}
.g9_384{
fill: none;
stroke: #FFFFFF;
stroke-width: 1.909;
stroke-linecap: butt;
stroke-linejoin: miter;
}
.ga_384{
fill: none;
stroke: #000000;
stroke-width: 0.381;
stroke-linecap: butt;
stroke-linejoin: miter;
}
]]></style>
</defs>
<path d="M667.8,147.8c-3.1,.6,-6.1,0,-9,.5c-3.4,.5,-6.7,1.9,-10.1,2.4c-9.7,1.3,-19.2,0,-28.7,3.8c-6.8,2.7,-10.9,7.4,-15.8,13.5c-1.5,1.9,-2.9,3.7,-4.4,5.6c-4.7,6,-4.6,12.4,-3.7,20.8c1.2,11.2,5.2,24,12.6,31.1c6.3,6.1,14.7,8.9,22.5,10.1c11.7,1.9,23.9,-.4,35.6,-2.5c10.6,-2,21.8,-2.1,32.4,.7c9.3,2.5,19.2,5.9,28.8,6.1c3.7,.1,6.9,-1.2,10.5,-2c3.6,-.7,7.2,-1.2,10.8,-1.6c3.5,-.4,7.1,-.5,10.6,.4c4,1,8.1,2.5,12.2,1.7c6,-1.1,8.8,-4,12.2,-10c4.2,-7.5,6.1,-15.2,7,-24.2c1.4,-13.8,-4,-27,-10.8,-37.4c-3.6,-5.6,-6.9,-11.5,-12.4,-14.1C762.2,149.9,755.2,149,749,148.9c-4.5,0,-8.8,1.7,-13.1,2.7c-5.3,1.3,-11.4,2.1,-16.8,1.6c-3.7,-.4,-8,-1.1,-11.6,-2.6c-4.6,-2,-8.8,-4.9,-13.6,-5.9c-6.8,-1.5,-13.9,-3.4,-20.3,0c-1.9,1,-3.5,3.3,-5.8,3c.1,0,-.1,0,.1,0Z" class="g0_384"/>
<path d="M667.8,147.8c-3.1,.6,-6.1,0,-9,.5c-3.4,.5,-6.7,1.9,-10.1,2.4c-9.7,1.3,-19.2,0,-28.7,3.8c-6.8,2.7,-10.9,7.4,-15.8,13.5c-1.5,1.9,-2.9,3.7,-4.4,5.6c-4.7,6,-4.6,12.4,-3.7,20.8c1.2,11.2,5.2,24,12.6,31.1c6.3,6.1,14.7,8.9,22.5,10.1c11.7,1.9,23.9,-.4,35.6,-2.5c10.6,-2,21.8,-2.1,32.4,.7c9.3,2.5,19.2,5.9,28.8,6.1c3.7,.1,6.9,-1.2,10.5,-2c3.6,-.7,7.2,-1.2,10.8,-1.6c3.5,-.4,7.1,-.5,10.6,.4c4,1,8.1,2.5,12.2,1.7c6,-1.1,8.8,-4,12.2,-10c4.2,-7.5,6.1,-15.2,7,-24.2c1.4,-13.8,-4,-27,-10.8,-37.4c-3.6,-5.6,-6.9,-11.5,-12.4,-14.1C762.2,149.9,755.2,149,749,148.9c-4.5,0,-8.8,1.7,-13.1,2.7c-5.3,1.3,-11.4,2.1,-16.8,1.6c-3.7,-.4,-8,-1.1,-11.6,-2.6c-4.6,-2,-8.8,-4.9,-13.6,-5.9c-6.8,-1.5,-13.9,-3.4,-20.3,0c-1.9,1,-3.5,3.3,-5.8,3c.1,0,-.1,0,.1,0" class="g1_384"/>
<image clip-path="url(#c0_384)" preserveAspectRatio="none" x="610" y="171" width="32" height="32" xlink:href="img/1.jpg"/>
<image clip-path="url(#c1_384)" preserveAspectRatio="none" x="654" y="171" width="32" height="32" xlink:href="img/2.jpg"/>
<image clip-path="url(#c2_384)" preserveAspectRatio="none" x="699" y="171" width="32" height="32" xlink:href="img/3.jpg"/>
<image clip-path="url(#c3_384)" preserveAspectRatio="none" x="743" y="171" width="32" height="32" xlink:href="img/4.jpg"/>
<path d="M604.4,200.6v10.5h44.7V200.6m.3,0v10.5h44.7V200.6m.4,0v10.5h44.7V200.6m.2,0v10.5h44.7V200.6" class="g2_384"/>
<path d="M735.7,355.9c-.7,-3,-.1,-6,-.6,-9c-.5,-3.3,-1.8,-6.6,-2.3,-10c-1.4,-9.8,-.1,-19.2,-3.9,-28.7c-2.7,-6.8,-7.4,-10.9,-13.5,-15.8c-1.8,-1.5,-3.7,-3,-5.5,-4.4c-6.1,-4.7,-12.4,-4.6,-20.9,-3.7c-11.1,1.2,-24,5.1,-31.1,12.6c-6,6.3,-8.8,14.7,-10.1,22.5c-1.8,11.7,.4,23.9,2.6,35.5c2,10.7,2,21.9,-.8,32.4c-2.5,9.4,-5.8,19.3,-6,28.9c-.1,3.7,1.1,6.9,1.9,10.5c.8,3.5,1.2,7.2,1.7,10.8c.4,3.5,.4,7.1,-.5,10.6c-1,4,-2.4,8.1,-1.7,12.2c1.2,6,4,8.8,10.1,12.2c7.5,4.2,15.1,6.1,24.1,7c13.8,1.4,27,-4,37.5,-10.9c5.5,-3.6,11.5,-6.8,14.1,-12.3c2.8,-5.9,3.7,-12.9,3.7,-19.2c0,-4.4,-1.6,-8.7,-2.7,-13c-1.3,-5.3,-2.1,-11.4,-1.6,-16.8c.4,-3.7,1.1,-8,2.7,-11.6c1.9,-4.6,4.8,-8.8,5.9,-13.6c1.5,-6.8,3.4,-14,0,-20.3c-1.1,-1.9,-3.4,-3.5,-3.1,-5.9c0,.2,0,0,0,.1Z" class="g0_384"/>
<path d="M735.7,355.9c-.7,-3,-.1,-6,-.6,-9c-.5,-3.3,-1.8,-6.6,-2.3,-10c-1.4,-9.8,-.1,-19.2,-3.9,-28.7c-2.7,-6.8,-7.4,-10.9,-13.5,-15.8c-1.8,-1.5,-3.7,-3,-5.5,-4.4c-6.1,-4.7,-12.4,-4.6,-20.9,-3.7c-11.1,1.2,-24,5.1,-31.1,12.6c-6,6.3,-8.8,14.7,-10.1,22.5c-1.8,11.7,.4,23.9,2.6,35.5c2,10.7,2,21.9,-.8,32.4c-2.5,9.4,-5.8,19.3,-6,28.9c-.1,3.7,1.1,6.9,1.9,10.5c.8,3.5,1.2,7.2,1.7,10.8c.4,3.5,.4,7.1,-.5,10.6c-1,4,-2.4,8.1,-1.7,12.2c1.2,6,4,8.8,10.1,12.2c7.5,4.2,15.1,6.1,24.1,7c13.8,1.4,27,-4,37.5,-10.9c5.5,-3.6,11.5,-6.8,14.1,-12.3c2.8,-5.9,3.7,-12.9,3.7,-19.2c0,-4.4,-1.6,-8.7,-2.7,-13c-1.3,-5.3,-2.1,-11.4,-1.6,-16.8c.4,-3.7,1.1,-8,2.7,-11.6c1.9,-4.6,4.8,-8.8,5.9,-13.6c1.5,-6.8,3.4,-14,0,-20.3c-1.1,-1.9,-3.4,-3.5,-3.1,-5.9c0,.2,0,0,0,.1" class="g1_384"/>
<image clip-path="url(#c4_384)" preserveAspectRatio="none" x="677" y="342" width="32" height="32" xlink:href="img/5.jpg"/>
<image clip-path="url(#c5_384)" preserveAspectRatio="none" x="677" y="298" width="32" height="33" xlink:href="img/6.jpg"/>
<image clip-path="url(#c6_384)" preserveAspectRatio="none" x="677" y="388" width="32" height="32" xlink:href="img/7.jpg"/>
<image clip-path="url(#c7_384)" preserveAspectRatio="none" x="677" y="433" width="32" height="32" xlink:href="img/8.jpg"/>
<path d="M679.6,294.2H669.1v44.7h10.5m0,.4H669.1V384h10.5m0,.4H669.1v44.7h10.5m0,.1H669.1v44.7h10.5" class="g2_384"/>
<image clip-path="url(#c8_384)" preserveAspectRatio="none" x="91" y="171" width="157" height="235" xlink:href="img/9.jpg"/>
<path d="M280.4,312.3c.6,-2.6,.7,-4.9,.1,-7.5c-1,-4.4,-4.6,-6.9,-8.1,-9.4c-5.3,-3.9,-13.2,-4,-19.5,-3.7c-5.2,.2,-10.6,.3,-15.7,.8c-1.3,.2,-3.8,.8,-5.1,.6c3.8,0,7.4,2.1,10.4,4.2c-2.6,-.6,-5.4,-2.2,-7.9,-3.3c-1.7,-.7,-2,-.4,-1.9,-1.7c.7,-.7,1.3,-1.5,1.9,-2.3c1.1,-1.4,2.3,-2.8,3.2,-4.4" class="g3_384"/>
<image clip-path="url(#c9_384)" preserveAspectRatio="none" x="326" y="643" width="67" height="67" xlink:href="img/10.jpg"/>
<image clip-path="url(#ca_384)" preserveAspectRatio="none" x="333" y="771" width="66" height="66" xlink:href="img/11.jpg"/>
<path d="M670,575.2c-3,.6,-6,0,-9,.5c-3.3,.5,-6.6,1.9,-10,2.4c-9.8,1.3,-19.2,0,-28.7,3.8c-6.8,2.7,-10.9,7.4,-15.8,13.6c-1.5,1.8,-3,3.6,-4.4,5.5c-4.7,6,-4.6,12.4,-3.7,20.8c1.2,11.2,5.1,24,12.6,31.1c6.3,6.1,14.7,8.9,22.5,10.1c11.7,1.9,23.9,-.4,35.5,-2.5c10.6,-2,21.9,-2.1,32.4,.7c9.4,2.5,19.3,5.9,28.9,6.1c3.6,.1,6.9,-1.2,10.5,-1.9c3.5,-.8,7.2,-1.3,10.8,-1.7c3.5,-.4,7.1,-.4,10.6,.4c4,1,8.1,2.5,12.2,1.7c5.9,-1.1,8.8,-4,12.2,-10c4.2,-7.5,6.1,-15.2,7,-24.2c1.4,-13.8,-4,-27,-10.9,-37.4c-3.6,-5.5,-6.8,-11.5,-12.4,-14.1c-5.8,-2.8,-12.8,-3.7,-19.1,-3.8c-4.4,0,-8.7,1.7,-13.1,2.7c-5.3,1.3,-11.3,2.2,-16.7,1.6c-3.8,-.4,-8.1,-1.1,-11.6,-2.6c-4.6,-2,-8.8,-4.9,-13.6,-5.9c-6.8,-1.5,-14,-3.4,-20.3,0c-1.9,1,-3.5,3.3,-5.9,3c.2,0,0,0,.1,.1Z" class="g0_384"/>
<path d="M670,575.2c-3,.6,-6,0,-9,.5c-3.3,.5,-6.6,1.9,-10,2.4c-9.8,1.3,-19.2,0,-28.7,3.8c-6.8,2.7,-10.9,7.4,-15.8,13.6c-1.5,1.8,-3,3.6,-4.4,5.5c-4.7,6,-4.6,12.4,-3.7,20.8c1.2,11.2,5.1,24,12.6,31.1c6.3,6.1,14.7,8.9,22.5,10.1c11.7,1.9,23.9,-.4,35.5,-2.5c10.6,-2,21.9,-2.1,32.4,.7c9.4,2.5,19.3,5.9,28.9,6.1c3.6,.1,6.9,-1.2,10.5,-1.9c3.5,-.8,7.2,-1.3,10.8,-1.7c3.5,-.4,7.1,-.4,10.6,.4c4,1,8.1,2.5,12.2,1.7c5.9,-1.1,8.8,-4,12.2,-10c4.2,-7.5,6.1,-15.2,7,-24.2c1.4,-13.8,-4,-27,-10.9,-37.4c-3.6,-5.5,-6.8,-11.5,-12.4,-14.1c-5.8,-2.8,-12.8,-3.7,-19.1,-3.8c-4.4,0,-8.7,1.7,-13.1,2.7c-5.3,1.3,-11.3,2.2,-16.7,1.6c-3.8,-.4,-8.1,-1.1,-11.6,-2.6c-4.6,-2,-8.8,-4.9,-13.6,-5.9c-6.8,-1.5,-14,-3.4,-20.3,0c-1.9,1,-3.5,3.3,-5.9,3c.2,0,0,0,.1,.1" class="g1_384"/>
<image clip-path="url(#cb_384)" preserveAspectRatio="none" x="613" y="599" width="32" height="32" xlink:href="img/12.jpg"/>
<image clip-path="url(#cc_384)" preserveAspectRatio="none" x="657" y="599" width="32" height="32" xlink:href="img/13.jpg"/>
<image clip-path="url(#cd_384)" preserveAspectRatio="none" x="701" y="599" width="32" height="32" xlink:href="img/14.jpg"/>
<image clip-path="url(#ce_384)" preserveAspectRatio="none" x="745" y="599" width="32" height="32" xlink:href="img/15.jpg"/>
<path d="M606.6,628.1v10.5h44.7V628.1m.4,0v10.5h44.7V628.1m.4,0v10.5h44.7V628.1m.2,0v10.5h44.7V628.1" class="g2_384"/>
<path d="M742.9,798.2c-.7,-3,-.1,-6,-.5,-9c-.6,-3.3,-1.9,-6.6,-2.4,-10c-1.4,-9.8,0,-19.2,-3.9,-28.7c-2.7,-6.8,-7.4,-10.9,-13.5,-15.8c-1.8,-1.5,-3.7,-3,-5.5,-4.4c-6.1,-4.7,-12.4,-4.6,-20.9,-3.7c-11.1,1.2,-23.9,5.1,-31.1,12.6c-6,6.3,-8.8,14.7,-10.1,22.5c-1.8,11.7,.4,23.9,2.6,35.5c2,10.6,2,21.9,-.8,32.4c-2.5,9.4,-5.8,19.3,-6,28.9c-.1,3.6,1.1,6.9,1.9,10.5c.8,3.5,1.3,7.2,1.7,10.8c.4,3.5,.4,7.1,-.5,10.6c-1,4,-2.4,8.1,-1.6,12.2c1.1,5.9,3.9,8.8,10,12.2c7.5,4.2,15.1,6.1,24.2,7c13.7,1.4,27,-4,37.4,-10.9c5.5,-3.6,11.5,-6.8,14.1,-12.4c2.8,-5.8,3.7,-12.8,3.7,-19.1c0,-4.4,-1.6,-8.7,-2.7,-13.1C737.7,861,736.9,855,737.4,849.6c.4,-3.8,1.1,-8.1,2.7,-11.6c1.9,-4.6,4.8,-8.8,5.9,-13.6c1.5,-6.8,3.4,-14,0,-20.3c-1.1,-1.9,-3.4,-3.5,-3,-5.9c-.1,.2,-.1,0,-.1,.1Z" class="g0_384"/>
<path d="M742.9,798.2c-.7,-3,-.1,-6,-.5,-9c-.6,-3.3,-1.9,-6.6,-2.4,-10c-1.4,-9.8,0,-19.2,-3.9,-28.7c-2.7,-6.8,-7.4,-10.9,-13.5,-15.8c-1.8,-1.5,-3.7,-3,-5.5,-4.4c-6.1,-4.7,-12.4,-4.6,-20.9,-3.7c-11.1,1.2,-23.9,5.1,-31.1,12.6c-6,6.3,-8.8,14.7,-10.1,22.5c-1.8,11.7,.4,23.9,2.6,35.5c2,10.6,2,21.9,-.8,32.4c-2.5,9.4,-5.8,19.3,-6,28.9c-.1,3.6,1.1,6.9,1.9,10.5c.8,3.5,1.3,7.2,1.7,10.8c.4,3.5,.4,7.1,-.5,10.6c-1,4,-2.4,8.1,-1.6,12.2c1.1,5.9,3.9,8.8,10,12.2c7.5,4.2,15.1,6.1,24.2,7c13.7,1.4,27,-4,37.4,-10.9c5.5,-3.6,11.5,-6.8,14.1,-12.4c2.8,-5.8,3.7,-12.8,3.7,-19.1c0,-4.4,-1.6,-8.7,-2.7,-13.1C737.7,861,736.9,855,737.4,849.6c.4,-3.8,1.1,-8.1,2.7,-11.6c1.9,-4.6,4.8,-8.8,5.9,-13.6c1.5,-6.8,3.4,-14,0,-20.3c-1.1,-1.9,-3.4,-3.5,-3,-5.9c-.1,.2,-.1,0,-.1,.1" class="g1_384"/>
<image clip-path="url(#cf_384)" preserveAspectRatio="none" x="684" y="784" width="32" height="32" xlink:href="img/16.jpg"/>
<image clip-path="url(#cg_384)" preserveAspectRatio="none" x="684" y="741" width="32" height="32" xlink:href="img/17.jpg"/>
<image clip-path="url(#ch_384)" preserveAspectRatio="none" x="684" y="830" width="32" height="32" xlink:href="img/18.jpg"/>
<image clip-path="url(#ci_384)" preserveAspectRatio="none" x="684" y="875" width="32" height="32" xlink:href="img/19.jpg"/>
<path d="M686.8,736.5H676.3v44.7h10.5m0,.4H676.3v44.6h10.5m0,.4H676.3v44.7h10.5m0,.2H676.3v44.7h10.5" class="g2_384"/>
<path d="M220.8,781.2c0,0,73.3,-11,107.4,5.1" class="g4_384"/>
<path d="M335.3,789.7L327.6,782c0,0,.6,4.3,-3.1,6.7l10.8,1Z" class="g5_384"/>
<path d="M268,770.1v15.7h44.5V770.1H268Z" class="g6_384"/>
<path d="M269,770.6V789h46V770.6H269Z" class="g6_384"/>
<path d="M222.8,771.9c0,0,11.8,-120.6,90.8,-105.7" class="g4_384"/>
<path d="M321.3,667.6l-9.4,-5.5l1.7,4.1l-3,3.2l10.7,-1.8Z" class="g5_384"/>
<path d="M235.3,675.6v18.5h46V675.6h-46Z" class="g6_384"/>
<path d="M384,664.2c0,0,97.5,-105.8,206.5,-57.1" class="g7_384"/>
<path d="M597.6,610.3l-7.8,-7.5l.7,4.3l-3.7,2.4l10.8,.8Z" class="g8_384"/>
<path d="M395.6,808.1c0,0,133.4,-17.5,249.2,26.9" class="g7_384"/>
<path d="M652.1,837.8l-8.2,-7.1l.9,4.3l-3.5,2.6l10.8,.2Z" class="g8_384"/>
<path d="M341.6,948.7c1.7,.8,3,.1,4.8,-.2c2.3,-.4,4.7,-.4,7.1,-.7c5.1,-.6,10.3,-1.6,15.5,-1.7c4.2,-.1,8.3,-.5,12.5,-.9c1.9,-.2,4.3,-1,6.2,-.6c-1.5,1.2,-5.5,1.4,-7.3,1.7c-6,.7,-12.2,.9,-18.3,1.5c-3.9,.4,-7.9,.4,-11.9,.4c-2,0,-4.2,-.3,-6.2,0c-1.2,.1,-2.1,.6,-3.4,.5M245.4,185.1c-.2,-4.5,.2,-9,-5.6,-10.4c-4.2,-1.1,-8.2,2.5,-11.1,5.1c-1.6,1.5,-2.6,2.3,-3.5,4.3c-.6,1.2,1.2,3.4,-.9,4.1c-2.2,.8,-2.8,-3.5,-3.2,-4.8c-1.9,3.4,-2.5,7.2,-2,11.1c4.5,-1.1,9,-3.8,13.6,-4.1m313,19.1c-4.2,-7.5,5.5,-14.8,11.1,-17.9c5.9,-3.2,10.9,-4.9,17.4,-5.6c.3,-2.3,-1.2,-4.5,-3.1,-5.7c2.4,1.4,7.9,.8,8.5,3.6c.3,1.3,-1.2,6.4,-1.2,7.5c-.1,2.4,0,4.7,.1,7M551.9,299.6c2.1,2.9,3.6,6,5.5,8.9c4.1,6.3,10.8,10.1,17.7,12.8c12.5,4.7,28.2,7.4,41.6,5.4c.6,-4.9,-5.7,-7.2,-7.6,-11.1c1.1,.9,2.2,2.1,3.4,2.8c1.9,1.2,5.9,1.1,7.3,2.1c4,2.8,-1,10.7,-3.2,14.4M145.4,582.8c.4,-.9,.8,-1.7,1.3,-2.6c-1.9,-2.4,-9,-.1,-11,.6c-4,1.3,-7.1,3.6,-9.5,7c-2.5,5.9,3.4,12.4,6,16.9c5.5,9.2,11.3,18.2,18,26.5c2.6,3.2,6.1,6,8.5,9.1c-3.2,-.5,-7.7,-3.2,-10.7,-2.1c.9,4.3,7.8,6.9,11.6,6c.4,-1.8,-.4,-2.8,-.7,-4.5c-.5,-3.1,-.2,-6.2,-.2,-9.3M313.1,609.3c1.7,6,4.4,11.7,7.4,17.2c1.4,2.3,3.4,4.8,3.5,7.7c-2.6,-1.2,-5.5,-2.7,-7.5,-4.7c3.9,.8,5.8,6.6,9.4,6.9c.5,-3.4,.4,-7,-.8,-10.2M591.2,566.7c-2.3,3.6,2.5,7.8,5,10c-2,0,-4.1,0,-5.8,-1c0,3.4,5,5.7,7.5,3.2c2.5,-2.5,-.7,-6.4,-.3,-9.2m39.1,161c4.2,1.9,8.8,3.6,13.1,5.1c-1.6,-2.4,-2.5,-5.5,-3.2,-8.3c1.8,3,3.5,6.4,7.2,7.2c-3.2,-.6,-7.9,1.5,-10.8,2.9M304.6,864.1c4.6,-6.4,8.4,-14.2,14.3,-19.6c-2.5,.2,-5,.1,-7.5,.2c3.7,.1,6.3,-2.8,9.7,-3.7c-1.2,4.9,-1.6,5.7,.1,10.5m-53.6,33.8c-6.4,-1.5,-13,-1.5,-19.6,-2.9c-4.1,-.9,-7.8,-2.6,-11.9,-3.5c2.3,.7,3.4,3.2,5,4.8c1.9,2,4.3,3.6,6.2,5.6c-4.8,-3.3,-8.1,-7.9,-12.8,-11.1c4.7,-.2,12.8,-3.7,15,-8" class="g3_384"/>
<image clip-path="url(#cj_384)" preserveAspectRatio="none" x="130" y="658" width="115" height="242" xlink:href="img/20.jpg"/>
<g clip-path="url(#ck_384)">
<path d="M-4.5,13.7H-27.4m939.5,0H935M-4.5,1031.2H-27.4m939.5,0H935M13.7,-4.5V-27.4m0,1077v22.9m880,-1077V-27.4m0,1077v22.9" class="g9_384"/>
<path d="M-4.5,13.7H-27.4m939.5,0H935M-4.5,1031.2H-27.4m939.5,0H935M13.7,-4.5V-27.4m0,1077v22.9m880,-1077V-27.4m0,1077v22.9" class="ga_384"/>
</g>
</svg>