<?xml version="1.0" encoding="UTF-8" standalone="no"?>
<!DOCTYPE svg PUBLIC "-//W3C//DTD SVG 1.1//EN"
"http://www.w3.org/Graphics/SVG/1.1/DTD/svg11.dtd">
<svg viewBox="0 0 931 1096" version="1.1" xmlns="http://www.w3.org/2000/svg" xmlns:xlink="http://www.w3.org/1999/xlink">
<defs>
<clipPath id="c0_78"><path d="M203.7,643.9V611h80v32.9Z"/></clipPath>
<clipPath id="c1_78"><path d="M97,831.5v-16h84.3v16Z"/></clipPath>
<clipPath id="c2_78"><path d="M107.6,910.4V886.8H379.8v23.6Z"/></clipPath>
<clipPath id="c3_78"><path d="M566.1,261.7V139H714.2V261.7Z"/></clipPath>
<style type="text/css"><![CDATA[
.g0_78{
fill: none;
stroke: #241F1F;
stroke-width: 0.687;
stroke-miterlimit: 10;
}
.g1_78{
fill: none;
stroke: #241F1F;
stroke-width: 0.481;
stroke-miterlimit: 10;
}
.g2_78{
fill: #CFEDFC;
}
.g3_78{
fill: #D6D5D6;
}
.g4_78{
fill: none;
stroke: #00AEEF;
stroke-width: 1.069;
stroke-linejoin: round;
}
.g5_78{
fill: none;
stroke: #241F1F;
stroke-width: 0.381;
stroke-miterlimit: 3;
}
.g6_78{
fill: none;
stroke: #241F1F;
stroke-width: 0.534;
stroke-miterlimit: 3;
}
.g7_78{
fill: none;
stroke: #241F1F;
stroke-width: 0.611;
stroke-miterlimit: 3;
}
.g8_78{
fill: #241F1F;
}
.g9_78{
fill: none;
stroke: #00AEEF;
stroke-width: 1.066;
stroke-linejoin: round;
}
.ga_78{
fill: none;
stroke: #EE008C;
stroke-width: 1.066;
stroke-linejoin: round;
}
.gb_78{
fill: none;
stroke: #241F1F;
stroke-width: 0.38;
stroke-miterlimit: 3;
}
.gc_78{
fill: none;
stroke: #241F1F;
stroke-width: 0.609;
stroke-miterlimit: 3;
}
.gd_78{
fill: none;
stroke: #241F1F;
stroke-width: 1.066;
stroke-linejoin: round;
}
.ge_78{
fill: #00AEEF;
}
.gf_78{
fill: none;
stroke: #00AEEF;
stroke-width: 0.762;
stroke-miterlimit: 3;
}
.gg_78{
fill: #EE008C;
}
.gh_78{
fill: none;
stroke: #EE008C;
stroke-width: 0.762;
stroke-miterlimit: 3;
}
.gi_78{
fill: none;
stroke: #00AEEF;
stroke-width: 0.765;
stroke-linejoin: round;
}
.gj_78{
fill: none;
stroke: #EE008C;
stroke-width: 0.765;
stroke-linejoin: round;
}
.gk_78{
fill: none;
stroke: #EE008C;
stroke-width: 0.918;
stroke-linejoin: round;
}
.gl_78{
fill: none;
stroke: #00AEEF;
stroke-width: 0.918;
stroke-linejoin: round;
}
.gm_78{
fill: none;
stroke: #241F1F;
stroke-width: 0.536;
stroke-miterlimit: 3;
}
.gn_78{
fill: none;
stroke: #241F1F;
stroke-width: 0.765;
stroke-miterlimit: 3;
stroke-dasharray: 8,4;
}
]]></style>
</defs>
<path d="M205.3,138.6H277m16.6,87.9H332" class="g0_78"/>
<path d="M228.4,323.3h4.8" class="g1_78"/>
<path d="M285.3,455.7c13.5,19.8,20,44.8,20,70.4h-20Z" class="g2_78"/>
<path d="M285.3,526.1h-114l114,-70.4Z" class="g3_78"/>
<path d="M285.3,455.7v70.4V455.7Zm0,0c13.5,19.8,20,44.8,20,70.4h-134l114,-70.4Z" class="g4_78"/>
<path d="M193.4,515.8c1.4,3.1,2.2,6.6,2.2,10.3" class="g5_78"/>
<path d="M285.3,518.9h-7.2v7.2" class="g6_78"/>
<path d="M156.6,526.1h170M171.3,541.8V445" class="g7_78"/>
<path fill-rule="evenodd" d="M325.9,526.2l-1.6,-2.5l6.5,2.5l-6.5,2.4Z" class="g8_78"/>
<path fill-rule="evenodd" d="M171.2,445.5l-2.4,1.6l2.4,-6.5l2.5,6.5Z" class="g8_78"/>
<path d="M192.2,513.1l3.3,3.3l-1.9,-.3l-1.1,1.7Z" class="g8_78"/>
<path clip-path="url(#c0_78)" d="M215.4,625.6H284" class="g0_78"/>
<path d="M240.8,628.4H282" class="g0_78"/>
<path clip-path="url(#c1_78)" d="M141.2,815.9h40.5" class="g0_78"/>
<path d="M133,889.2h43.8" class="g0_78"/>
<path d="M210.5,897.4h4.8m93.5,0h4.8" class="g1_78"/>
<path clip-path="url(#c2_78)" d="M334.1,889.2h46" class="g0_78"/>
<path d="M650.9,197.1v46.2" class="g9_78"/>
<path d="M650.9,197.1C637,179,615.1,167.2,590.5,167.2" class="ga_78"/>
<path clip-path="url(#c3_78)" fill-rule="evenodd" d="M709.3,243.4L707.7,241l6.5,2.4l-6.5,2.4Z" class="g8_78"/>
<path d="M590.5,256.9V142.7" class="gb_78"/>
<path d="M590.5,261.7V147.3" class="gc_78"/>
<path fill-rule="evenodd" d="M590.5,147.3l-2.5,1.6l2.5,-6.5l2.4,6.5Z" class="g8_78"/>
<path d="M566.1,243.4H709.3" class="gc_78"/>
<path d="M590.5,243.4l60.4,-46.3" class="gd_78"/>
<path d="M582.3,293.8h4.8" class="g1_78"/>
<path d="M618.5,432.9H718.7" class="g0_78"/>
<path d="M566.3,628.8V533.6" class="gc_78"/>
<path fill-rule="evenodd" d="M566.3,533.6l-2.4,1.6l2.4,-6.5l2.5,6.5Z" class="g8_78"/>
<path fill-rule="evenodd" d="M733.8,581.2l-1.6,-2.5l6.5,2.5l-6.5,2.4Z" class="g8_78"/>
<path d="M566.3,583.9H700.9v-5.5H566.3v5.5Z" class="ge_78"/>
<path d="M566.3,583.9H700.9v-5.5H566.3v5.5Z" class="gf_78"/>
<path d="M633.2,551c0,-1,.8,-1.7,1.8,-1.7c.9,0,1.7,.7,1.7,1.7c0,.9,-.8,1.7,-1.7,1.7c-1,0,-1.8,-.8,-1.8,-1.7Z" class="gg_78"/>
<path d="M633.2,551c0,-1,.8,-1.7,1.8,-1.7c.9,0,1.7,.7,1.7,1.7c0,.9,-.8,1.7,-1.7,1.7c-1,0,-1.8,-.8,-1.8,-1.7Z" class="gh_78"/>
<path d="M541.6,581.2H733.8" class="gc_78"/>
<path d="M640.2,727.1h29.1" class="gi_78"/>
<path d="M640.2,767.4h49.9" class="gj_78"/>
<path d="M611,726.8c.2,-16,13.2,-28.8,29.2,-28.8c15.9,0,28.9,12.8,29.1,28.8c-8.2,-5.9,-18.3,-9.4,-29.1,-9.4c-10.9,0,-21,3.5,-29.2,9.4Z" class="g2_78"/>
<path d="M590.2,767.4c0,-27.6,22.3,-50,50,-50c27.6,0,49.9,22.4,49.9,50c0,27.6,-22.3,50,-49.9,50c-27.7,0,-50,-22.4,-50,-50Z" class="gk_78"/>
<path d="M611,727.1C611,711,624.1,698,640.2,698c16.1,0,29.1,13,29.1,29.1c0,16.1,-13,29.2,-29.1,29.2C624.1,756.3,611,743.2,611,727.1Z" class="gl_78"/>
<path d="M640.2,732.7h5.5v-5.6" class="gm_78"/>
<path d="M640.2,767.4V727.1" class="gn_78"/>
</svg>