<?xml version="1.0" encoding="UTF-8" standalone="no"?>
<!DOCTYPE svg PUBLIC "-//W3C//DTD SVG 1.1//EN"
"http://www.w3.org/Graphics/SVG/1.1/DTD/svg11.dtd">
<svg viewBox="0 0 662 1017" version="1.1" xmlns="http://www.w3.org/2000/svg" xmlns:xlink="http://www.w3.org/1999/xlink">
<defs>
<style type="text/css"><![CDATA[
.g0_51{
fill: none;
stroke: #000;
stroke-width: 0.733;
stroke-linecap: round;
stroke-miterlimit: 10;
}
.g1_51{
fill: #000;
}
.g2_51{
fill: #FFF;
stroke: #FFF;
stroke-width: 1.527;
stroke-miterlimit: 10;
}
]]></style>
</defs>
<path d="M166.6 129h27.5" class="g0_51"/>
<path d="M183.2 126.2l10.9 2.8l-10.9 2.7Z" class="g1_51"/>
<path d="M183.2 126.2l10.9 2.8l-10.9 2.7Zm10.9 30.3h27.5v-55H194.1Zm27.5 0h55v-55h-55Zm55 0h27.5v-55H276.6ZM166.6 195h110m0 0h27.5" class="g0_51"/>
<path d="M293.2 192.2l10.9 2.8l-10.9 2.7Z" class="g1_51"/>
<path d="M293.2 192.2l10.9 2.8l-10.9 2.7Zm10.9 30.3h27.5v-55H304.1Zm27.5 0h55.1v-55H331.6Zm55.1 0h27.5v-55H386.7ZM166.6 261H386.7m0 0h27.5" class="g0_51"/>
<path d="M403.2 258.2l11 2.8l-11 2.7Z" class="g1_51"/>
<path d="M403.2 258.2l11 2.8l-11 2.7Zm11 30.3h27.5v-55H414.2Zm27.5 0h55v-55h-55Zm55 0h27.5v-55H496.7Z" class="g0_51"/>
<path d="M454.3 1016H660.7v-15.9H454.3Z" class="g2_51"/>
</svg>