<?xml version="1.0" encoding="UTF-8" standalone="no"?>
<!DOCTYPE svg PUBLIC "-//W3C//DTD SVG 1.1//EN"
"http://www.w3.org/Graphics/SVG/1.1/DTD/svg11.dtd">
<svg viewBox="0 0 931 1096" version="1.1" xmlns="http://www.w3.org/2000/svg" xmlns:xlink="http://www.w3.org/1999/xlink">
<defs>
<clipPath id="c0_42"><path d="M53.5,1016.5V859.6H249.6v156.9Z"/></clipPath>
<style type="text/css"><![CDATA[
.g0_42{
fill: none;
stroke: #00AEEF;
stroke-width: 1.145;
}
.g1_42{
fill: none;
stroke: #0079C2;
stroke-width: 0.763;
}
.g2_42{
fill: #D0007A;
}
.g3_42{
fill: none;
stroke: #EE008C;
stroke-width: 0.916;
stroke-miterlimit: 3;
}
.g4_42{
fill: #EE008C;
}
.g5_42{
fill: #B5B5B6;
}
.g6_42{
fill: #CBCACB;
}
.g7_42{
fill: #DBF2FD;
}
.g8_42{
fill: none;
stroke: #C1E8FB;
stroke-width: 0.534;
stroke-miterlimit: 3;
}
.g9_42{
fill: #7E7D7F;
}
.ga_42{
fill: #C1E8FB;
}
.gb_42{
fill: none;
stroke: #A3DFF9;
stroke-width: 0.534;
stroke-miterlimit: 3;
}
.gc_42{
fill: #A3DFF9;
}
.gd_42{
fill: #E8F6FE;
}
.ge_42{
fill: none;
stroke: #7E7D7F;
stroke-width: 0.534;
stroke-miterlimit: 3;
}
.gf_42{
fill: none;
stroke: #00AEEF;
stroke-width: 0.916;
stroke-miterlimit: 3;
}
.gg_42{
fill: #00AEEF;
}
.gh_42{
fill: none;
stroke: #EE008C;
stroke-width: 0.916;
stroke-miterlimit: 3;
stroke-dasharray: 9,4;
}
.gi_42{
fill: none;
stroke: #241F1F;
stroke-width: 0.763;
stroke-miterlimit: 3;
stroke-dasharray: 10,4;
}
.gj_42{
fill: #C1CED4;
}
.gk_42{
fill: none;
stroke: #A3AFB5;
stroke-width: 1.069;
stroke-linecap: round;
stroke-linejoin: round;
}
.gl_42{
fill: none;
stroke: #ADB9BF;
stroke-width: 1.069;
stroke-linecap: round;
stroke-miterlimit: 3;
}
.gm_42{
fill: none;
stroke: #E7EDF0;
stroke-width: 1.069;
stroke-linecap: round;
stroke-linejoin: round;
}
.gn_42{
fill: none;
stroke: #879198;
stroke-width: 1.069;
stroke-linecap: round;
stroke-linejoin: round;
}
.go_42{
fill: none;
stroke: #ADB9BF;
stroke-width: 1.069;
stroke-linecap: round;
stroke-linejoin: round;
}
.gp_42{
fill: #D6D5D6;
}
.gq_42{
fill: none;
stroke: #00AEEF;
stroke-width: 0.916;
stroke-linejoin: round;
}
.gr_42{
fill: #A3AFB5;
}
.gs_42{
fill: #E7EDF0;
}
.gt_42{
fill: #C0BFC1;
}
.gu_42{
fill: #969698;
}
.gv_42{
fill: #EBEAEA;
}
]]></style>
</defs>
<path d="M306.1,113.4c0,0,-1.5,0,-1.5,1.5v14.2c0,0,0,1.5,1.5,1.5h15.7c0,0,1.5,0,1.5,-1.5V114.9c0,0,0,-1.5,-1.5,-1.5H306.1Z" class="g0_42"/>
<path d="M290.7,97.9c0,0,-3.1,0,-3.1,3.1v90.9c0,0,0,3.1,3.1,3.1H820.1c0,0,3,0,3,-3.1V101c0,0,0,-3.1,-3,-3.1H290.7Z" class="g1_42"/>
<path d="M288.8,687.3c0,0,-1.6,0,-1.6,1.5V698c0,0,0,1.5,1.6,1.5h9.1c0,0,1.6,0,1.6,-1.5v-9.2c0,0,0,-1.5,-1.6,-1.5Z" class="g2_42"/>
<path d="M109.4,703.3l17.9,-8.1" class="g3_42"/>
<path d="M131.8,693.2l-4.9,4.9l.4,-2.9l-2.4,-1.6Z" class="g4_42"/>
<path d="M107.1,715.2c1.9,-1.2,3.1,-3.6,3.1,-6.6c0,-5.2,-3.4,-10.4,-7.6,-11.5c-1.8,-.5,-3.3,-.2,-4.6,.6L60.9,714.9c-1.9,1.2,-3,3.6,-3,6.6c0,5.1,3.4,10.2,7.5,11.4c1.7,.5,3,.4,4.2,-.5Z" class="g5_42"/>
<path d="M102.8,717.1l-2.9,1.4c2.1,.2,4.5,-.3,5.8,-1.4c1.9,-1.7,2.8,-4.6,2.1,-8c-1.1,-5.6,-6.2,-10.6,-11.4,-11c-2.2,-.2,-4.3,.6,-5.6,1.7c-.6,.5,-1.1,1.2,-1.5,1.9l3.1,-1.4c.6,-.1,1.2,-.2,1.9,-.1c4.7,.3,9.4,4.8,10.4,9.8c.6,3,-.1,5.6,-1.9,7.1Z" class="g6_42"/>
<path d="M95.3,720.5l-3,1.5c2.1,.2,4.5,-.3,5.9,-1.5c1.9,-1.6,2.7,-4.6,2.1,-7.9C99.1,706.9,94,701.9,88.8,701.5c-2.1,-.1,-4.3,.6,-5.6,1.8c-.6,.5,-1.1,1.2,-1.4,1.9l3,-1.4c.6,-.2,1.2,-.2,1.9,-.2c4.7,.4,9.4,4.8,10.4,9.9c.6,3,-.1,5.5,-1.8,7Z" class="g6_42"/>
<path d="M89.1,723.5l-4.7,2.2c2.1,.1,4.5,-.3,5.9,-1.5c1.9,-1.6,2.7,-4.6,2.1,-7.9C91.2,710.6,86.1,705.6,80.9,705.2c-2.1,-.1,-4.3,.6,-5.6,1.8c-.6,.5,-1.1,1.2,-1.4,1.9l4.7,-2.2c.6,-.1,1.2,-.2,1.9,-.1c4.7,.3,9.4,4.8,10.4,9.9c.6,3,-.1,5.5,-1.8,7Z" class="g6_42"/>
<path d="M95.3,717.2c-.9,-.4,-4,-2.1,-4.4,-2.8C84.5,705.2,71.2,698.9,64,704.9c-.6,.6,-1.3,1.2,-1.8,1.8l3.5,2.4l10.2,3l5.5,12.7l-5.6,9l-9.7,-3.1l-3.8,.2c.5,.9,1.1,1.9,1.7,2.7c6.9,10,19.9,12,26.4,7c.4,-.3,2.5,-.2,4.2,0l82.2,23.6c2.5,.8,5.2,.6,7.2,-.7c4.2,-2.6,4.7,-9.3,1.1,-14.4c-1.6,-2.3,-4,-4,-6.2,-5Z" class="g7_42"/>
<path d="M95.3,717.2c-.9,-.4,-4,-2.1,-4.4,-2.8C84.5,705.2,71.2,698.9,64,704.9c-.6,.6,-1.3,1.2,-1.8,1.8l3.5,2.4l10.2,3l5.5,12.7l-5.6,9l-9.7,-3.1l-3.8,.2c.5,.9,1.1,1.9,1.7,2.7c6.9,10,19.9,12,26.4,7c.4,-.3,2.5,-.2,4.2,0l82.2,23.6c2.5,.8,5.2,.6,7.2,-.7c4.2,-2.6,4.7,-9.3,1.1,-14.4c-1.6,-2.3,-4,-4,-6.2,-5L95.3,717.2Z" class="g8_42"/>
<path d="M61.9,710l-2.5,1.3l16.5,16l2.4,-1.4L72.8,713.2Z" class="g9_42"/>
<path d="M92.2,718.3c-.8,-.3,-3.9,-2.1,-4.4,-2.7C81.4,706.4,68.1,700,61,706.1c-.6,.5,-1.3,1.1,-1.9,1.7l3.6,2.4l10.1,3l5.5,12.7l-5.6,9L63,731.8l-3.7,.2c.5,1,1,1.9,1.6,2.8c6.9,10,19.9,11.9,26.4,7c.4,-.3,2.6,-.2,4.2,-.1l82.2,23.7c2.6,.8,5.2,.5,7.2,-.7c4.2,-2.7,4.8,-9.4,1.2,-14.5c-1.6,-2.2,-4,-4,-6.3,-5Z" class="ga_42"/>
<path d="M92.2,718.3c-.8,-.3,-3.9,-2.1,-4.4,-2.7C81.4,706.4,68.1,700,61,706.1c-.6,.5,-1.3,1.1,-1.9,1.7l3.6,2.4l10.1,3l5.5,12.7l-5.6,9L63,731.8l-3.7,.2c.5,1,1,1.9,1.6,2.8c6.9,10,19.9,11.9,26.4,7c.4,-.3,2.6,-.2,4.2,-.1l82.2,23.7c2.6,.8,5.2,.5,7.2,-.7c4.2,-2.7,4.8,-9.4,1.2,-14.5c-1.6,-2.2,-4,-4,-6.3,-5L92.2,718.3Z" class="gb_42"/>
<path d="M169.4,759.6c2.5,.9,8.4,1.4,9.4,-2.9l-.1,-.1c.3,2.2,-.4,4.2,-2.1,5.3c-1.2,.8,-3.1,.9,-4.6,.3L96.7,740.5c-1.2,-.7,-2.7,-1.8,-3.5,-3.1c-1.3,-1.8,-1.7,-4.1,-1.3,-5.9c0,0,.1,5.6,7.2,8c4.5,1.7,67.8,19.4,70.3,20.1Z" class="gc_42"/>
<path d="M170.2,748.2c2.6,.7,8.3,3.8,8.6,8.5l-.1,.1c.6,-2,.3,-4.4,-1.2,-6.4c-1,-1.5,-2.8,-2.8,-4.4,-3.1l-76,-24.5c-1.2,-.1,-2.7,.1,-3.6,.9c-1.3,1,-1.8,3,-1.6,5c0,0,.4,-5.5,7.6,-3.5c4.5,1.1,68.3,22.2,70.7,23Z" class="gd_42"/>
<path d="M59.4,711.3l-5.6,9.2l5.4,12.3l11,3.5l5.7,-9L70.3,714.6Z" class="g6_42"/>
<path d="M59.4,711.3l-5.6,9.2l5.4,12.3l11,3.5l5.7,-9L70.3,714.6L59.4,711.3Z" class="ge_42"/>
<path d="M70.2,736.3l5.7,-9l2.4,-1.4l-5.6,9Z" class="g9_42"/>
<path d="M181.2,758.1l11.5,44.7" class="gf_42"/>
<path d="M193.9,807.6l-4,-5.7l2.8,.9l2,-2.2Z" class="gg_42"/>
<path d="M65.8,723.8l109.7,32.4" class="gf_42"/>
<path d="M180.2,757.6l-6.9,.6l2.2,-2l-.8,-2.8Z" class="gg_42"/>
<path d="M68.1,722.3L109,703.6" class="gh_42"/>
<path d="M181.2,758.1l43.2,13.3" class="gi_42"/>
<path d="M100.5,987.2c-.6,.8,-2.6,4,-2.6,4.8c0,10.8,-9.5,23.9,-21.7,23.9c-1.1,0,-2.3,0,-3.4,-.1l2.1,-4.1l8.8,-8.7L80.1,989.8L67.2,986.3l-8.5,8.5L54.3,997c-.1,-1.1,-.3,-2.1,-.3,-3.2c0,-12.2,13.2,-21.7,24,-21.7c.6,0,2.9,-1.4,4.6,-2.4l72.6,-69.3c1.8,-1.8,4.4,-2.9,7,-2.9c5.5,0,10.2,4.8,10.2,10.3c0,2.4,-1,4.9,-2.4,6.7Z" class="gj_42"/>
<path d="M170.5,901.9c1.2,1.6,1.9,3.7,1.9,5.9c0,2.4,-1,4.9,-2.4,6.7l-69.5,72.7c-.6,.8,-2.6,4,-2.6,4.8c0,10.8,-9.5,23.9,-21.7,23.9c-1.1,0,-2.3,0,-3.4,-.1l2.1,-4.1l8.8,-8.7" class="gk_42"/>
<path d="M83.7,1003L80.1,989.8" class="gl_42"/>
<path d="M54,993.8c0,-12.2,13.2,-21.7,24,-21.7c.6,0,2.9,-1.4,4.6,-2.4l72.6,-69.3c1.8,-1.8,4.4,-2.9,7,-2.9c3.3,0,6.4,1.8,8.2,4.4" class="gm_42"/>
<path d="M80.2,989.8l-13,-3.5l-8.5,8.5L54.3,997" class="gn_42"/>
<path d="M54.3,997c-.1,-1.1,-.3,-2.1,-.3,-3.2" class="go_42"/>
<path d="M74.2,1012.4l-13.3,-3.5l-3.4,-13l9.7,-9.6l12.9,3.5l3.6,13.2Z" class="gp_42"/>
<path d="M169.2,900.3l76.1,44.3" class="gq_42"/>
<path clip-path="url(#c0_42)" d="M249.6,947.1L242.7,946l2.6,-1.4l-.1,-2.9Z" class="gg_42"/>
<path d="M157.5,907.3c1.8,-1.8,5.8,-6.1,9.4,-3.3v.1c-1.2,-1.8,-2.1,-2.3,-4.4,-2.3c-1.5,0,-3.4,.8,-4.4,2l-67,63.1c-.7,1.2,-1.5,2.9,-1.5,4.4c0,2.2,.3,3.4,2,4.6c0,0,-2.9,-3.3,2.9,-9.3c3.5,-3.8,61.1,-57.6,63,-59.3Z" class="gr_42"/>
<path d="M163.3,912.5c1.8,-1.8,6.1,-5.8,3.3,-9.5h-.1c1.8,1.3,2.5,2.2,2.5,4.5c0,1.5,-.8,3.4,-2,4.4l-63.1,66.9c-1.2,.8,-2.9,1.6,-4.4,1.6c-2.1,0,-3.6,-.4,-4.8,-2c0,0,3.3,2.9,9.3,-2.9c3.8,-3.6,57.6,-61.2,59.3,-63Z" class="gs_42"/>
<path d="M73.6,1010.1l-11,-2.9L59.8,996.5l8,-7.9l10.7,2.9l2.9,10.8Z" class="gp_42"/>
<path d="M57.5,995.9l2.3,.6l2.8,10.7l-1.7,1.7Z" class="gt_42"/>
<path d="M60.9,1008.9l1.7,-1.7l11,2.9l.6,2.3Z" class="gu_42"/>
<path d="M74.2,1012.4l-.6,-2.3l7.8,-7.8l2.3,.7Z" class="gu_42"/>
<path d="M83.7,1003l-2.3,-.7L78.5,991.5l1.6,-1.7Z" class="gt_42"/>
<path d="M80.1,989.8l-1.6,1.7L67.8,988.6l-.6,-2.3Z" class="gv_42"/>
<path d="M67.8,988.6l-8,7.9l-2.3,-.6l9.7,-9.6Z" class="gv_42"/>
<path d="M169.4,900.6l40.7,-40.7" class="gi_42"/>
</svg>