<?xml version="1.0" encoding="UTF-8" standalone="no"?>
<!DOCTYPE svg PUBLIC "-//W3C//DTD SVG 1.1//EN"
"http://www.w3.org/Graphics/SVG/1.1/DTD/svg11.dtd">
<svg viewBox="0 0 907 1045" version="1.1" xmlns="http://www.w3.org/2000/svg" xmlns:xlink="http://www.w3.org/1999/xlink">
<defs>
<clipPath id="c0_566"><path d="M255,572.2V322.6H358.2V572.2Z"/></clipPath>
<clipPath id="c1_566"><path d="M-2.6,1047.7V-2.6H910.2V1047.7Z"/></clipPath>
<style type="text/css"><![CDATA[
.g0_566{
fill: #FFFFFF;
}
.g1_566{
fill: none;
stroke: #000000;
stroke-width: 1.527;
stroke-linecap: butt;
stroke-linejoin: miter;
stroke-miterlimit: 4;
}
.g2_566{
fill: none;
stroke: #FFFFFF;
stroke-width: 1.909;
stroke-linecap: butt;
stroke-linejoin: miter;
}
.g3_566{
fill: none;
stroke: #000000;
stroke-width: 0.381;
stroke-linecap: butt;
stroke-linejoin: miter;
}
]]></style>
</defs>
<image clip-path="url(#c0_566)" preserveAspectRatio="none" x="255" y="323" width="103" height="249" xlink:href="img/1.jpg"/>
<path d="M310.6,297.8c-2.6,.8,-2.2,4,-1.8,6.1c4.3,2.1,8.3,1.9,10.1,-2.6c-1.7,-1.5,-6.7,-6.5,-8.3,-2.4Z" class="g0_566"/>
<path d="M310.6,297.8c-2.6,.8,-2.2,4,-1.8,6.1c4.3,2.1,8.3,1.9,10.1,-2.6c-1.7,-1.5,-6.7,-6.5,-8.3,-2.4" class="g1_566"/>
<path d="M309,313.9c-3.8,-1.2,-3.2,3.4,-2.8,5.8c2.7,-.5,5.1,5,6.6,-.1c1,-3.4,-2.6,-6.3,-5.7,-5.7Z" class="g0_566"/>
<path d="M309,313.9c-3.8,-1.2,-3.2,3.4,-2.8,5.8c2.7,-.5,5.1,5,6.6,-.1c1,-3.4,-2.6,-6.3,-5.7,-5.7" class="g1_566"/>
<path d="M264.7,200.6c-7.2,-1.4,-11.2,9.9,-11.6,13.7c-.5,4.9,2.4,8.3,6.4,11.7c2.6,2.3,5.3,2.4,8.2,4.1c-2.7,4.9,-4.3,8.1,-1.8,13.9c3.2,7.3,14.7,20,23.4,23.9c3,1.4,7.7,.2,9.7,2.6c1.7,2.1,1.2,5.1,2.9,7.4c5,6.4,15.5,10.3,24.2,11.1c6.2,.5,22.9,.6,26.7,-5.9c2.1,1.2,3.7,3.7,5.7,5.3c8.7,7,17.9,7.7,30.2,9.1c10.6,1.2,17.8,-.7,26.7,-6c3.1,-1.9,8.3,-4.2,9.7,-7.3c11.1,8.6,30.4,5,42.8,.8c12.1,-4,22.9,-10,21.7,-21.4c1.6,4,14.8,-3.1,16.7,-4c6.4,-3.3,9.8,-6.3,13.6,-11.4c3.2,-4.3,6.6,-7.8,6.3,-13c.4,-2.3,-.3,-4.4,-2.1,-6.2c-1.6,-1.8,-7.8,-3.9,-8,-6.2c4.3,-2.3,7.9,-4,10.6,-7.8c4.9,-6.8,3.4,-16.6,-.1,-23.6C520.3,178.7,502.5,174,487,174.6c4.2,-1.5,8.8,-4,8.1,-8.2c-.5,-2.7,-6.8,-7.2,-8.9,-8.8c-4.9,-3.7,-6.4,-3.2,-14,-4.1c-19.3,-2.2,-35.5,-3.2,-54.2,1.3c-8.2,2,-24.9,5.7,-25.8,14.7c1.7,-5.1,-4.9,-9.8,-9.7,-11.9c-11.8,-5.2,-24.2,-4.8,-36.9,-3.5c-9,1,-37.6,6.1,-31.5,18.3c-8.1,-7.8,-26.8,-.6,-34.5,4.6c-2.3,1.6,-24.5,23.1,-14.9,24.5Z" class="g0_566"/>
<path d="M264.7,200.6c-7.2,-1.4,-11.2,9.9,-11.6,13.7c-.5,4.9,2.4,8.3,6.4,11.7c2.6,2.3,5.3,2.4,8.2,4.1c-2.7,4.9,-4.3,8.1,-1.8,13.9c3.2,7.3,14.7,20,23.4,23.9c3,1.4,7.7,.2,9.7,2.6c1.7,2.1,1.2,5.1,2.9,7.4c5,6.4,15.5,10.3,24.2,11.1c6.2,.5,22.9,.6,26.7,-5.9c2.1,1.2,3.7,3.7,5.7,5.3c8.7,7,17.9,7.7,30.2,9.1c10.6,1.2,17.8,-.7,26.7,-6c3.1,-1.9,8.3,-4.2,9.7,-7.3c11.1,8.6,30.4,5,42.8,.8c12.1,-4,22.9,-10,21.7,-21.4c1.6,4,14.8,-3.1,16.7,-4c6.4,-3.3,9.8,-6.3,13.6,-11.4c3.2,-4.3,6.6,-7.8,6.3,-13c.4,-2.3,-.3,-4.4,-2.1,-6.2c-1.6,-1.8,-7.8,-3.9,-8,-6.2c4.3,-2.3,7.9,-4,10.6,-7.8c4.9,-6.8,3.4,-16.6,-.1,-23.6C520.3,178.7,502.5,174,487,174.6c4.2,-1.5,8.8,-4,8.1,-8.2c-.5,-2.7,-6.8,-7.2,-8.9,-8.8c-4.9,-3.7,-6.4,-3.2,-14,-4.1c-19.3,-2.2,-35.5,-3.2,-54.2,1.3c-8.2,2,-24.9,5.7,-25.8,14.7c1.7,-5.1,-4.9,-9.8,-9.7,-11.9c-11.8,-5.2,-24.2,-4.8,-36.9,-3.5c-9,1,-37.6,6.1,-31.5,18.3c-8.1,-7.8,-26.8,-.6,-34.5,4.6c-2.3,1.6,-24.5,23.1,-14.9,24.5" class="g1_566"/>
<g clip-path="url(#c1_566)">
<path d="M-4.5,13.7H-27.4m939.5,0H935M-4.5,1031.2H-27.4m939.5,0H935M13.7,-4.5V-27.4m0,1077v22.9m880,-1077V-27.4m0,1077v22.9" class="g2_566"/>
<path d="M-4.5,13.7H-27.4m939.5,0H935M-4.5,1031.2H-27.4m939.5,0H935M13.7,-4.5V-27.4m0,1077v22.9m880,-1077V-27.4m0,1077v22.9" class="g3_566"/>
</g>
</svg>