<?xml version="1.0" encoding="UTF-8" standalone="no"?>
<!DOCTYPE svg PUBLIC "-//W3C//DTD SVG 1.1//EN"
"http://www.w3.org/Graphics/SVG/1.1/DTD/svg11.dtd">
<svg viewBox="0 0 811 1017" version="1.1" xmlns="http://www.w3.org/2000/svg" xmlns:xlink="http://www.w3.org/1999/xlink">
<defs>
<style type="text/css"><![CDATA[
.g0_443{
fill: #CCCCCC;
}
.g1_443{
fill: #476B85;
}
.g2_443{
fill: #F7F5E8;
}
]]></style>
</defs>
<path d="M559.3,100.1c-23.7,11.4,-49.4,17.2,-75.6,19L482,127c7.2,-.4,14.1,-.4,21.2,-.8c7.7,0,16.3,.8,16.3,10c0,4.5,-3.1,15.9,-4.1,20.6L482,283.7c-2.4,9.3,-6.5,27.5,-13.1,34c-6.5,6.9,-25.4,6.9,-33.7,7.3l-2,7.5c17.2,-.3,34,-1,51.2,-1.3c17.8,.3,35.7,1,53.6,1.3l2,-7.5c-18.9,-.8,-35.4,.6,-35.4,-13.8c0,-9.3,11,-47.5,13.8,-58.5Zm189,6.2H660.6c-6.1,0,-20.6,.7,-25.7,-2.4c-5.1,-3.1,-4.5,-11,-4.9,-15.8h-6.8l-21.7,80h7.3c7.2,-18.5,11.3,-28.1,16.1,-32c6.2,-4.4,15.1,-4.1,34,-4.1H728c-11,19.3,-27.1,49.2,-33,57.5L596.4,336.2h39.9Z" class="g0_443"/>
<path d="M270.7,283.9H724.4v-.4H270.7Z" class="g1_443"/>
<path d="M119.4,575.8H521.9V444.4H119.4Z" class="g2_443"/>
</svg>