<?xml version="1.0" encoding="UTF-8" standalone="no"?>
<!DOCTYPE svg PUBLIC "-//W3C//DTD SVG 1.1//EN"
"http://www.w3.org/Graphics/SVG/1.1/DTD/svg11.dtd">
<svg viewBox="0 0 931 1096" version="1.1" xmlns="http://www.w3.org/2000/svg" xmlns:xlink="http://www.w3.org/1999/xlink">
<defs>
<clipPath id="c0_37"><path d="M424.2,628.1c-29,0,-52.5,-3.2,-52.5,-7c0,-3.9,23.5,-7.1,52.5,-7.1c29,0,52.5,3.2,52.5,7.1c0,3.8,-23.5,7,-52.5,7Z"/></clipPath>
<clipPath id="c1_37"><path d="M424.4,680.2c-33.5,0,-60.7,-4.6,-60.7,-10.2V621.7c0,5.6,27.2,10.1,60.7,10.1c22.6,0,42.3,-2,52.7,-5.1v43.1H485V622.6c.1,-.3,.2,-.6,.2,-.9V670c0,5.6,-27.2,10.2,-60.8,10.2Z"/></clipPath>
<clipPath id="c2_37"><path d="M477.1,669.8V626.7c4.4,-1.2,7.1,-2.6,7.9,-4.1v47.2Z"/></clipPath>
<clipPath id="c3_37"><path d="M166.2,944.3c-25.2,0,-45.6,-3.4,-45.6,-7.6V900.4c0,0,0,.1,0,.1c.3,4.1,20.6,7.5,45.6,7.5c16.7,0,31.2,-1.5,39.2,-3.7v32.2l.1,.3l.3,.1h5.8l.2,-.1c-.5,4.2,-20.7,7.5,-45.6,7.5Z"/></clipPath>
<clipPath id="c4_37"><path d="M166,905.2c-15.8,0,-29.4,-1.3,-35.7,-3c-2.4,-.7,-3.7,-1.5,-3.7,-2.3c0,-2.6,14.5,-4.8,33.3,-5.2c2,0,4.1,0,6.1,0c21.3,0,38.6,2.2,39.4,5v.4c-.2,.8,-1.5,1.5,-3.8,2.1c-6.3,1.8,-19.9,3,-35.6,3Z"/></clipPath>
<clipPath id="c5_37"><path d="M206.2,936.1v-2.9c1.3,.5,2.4,.9,3.3,1.4c.6,.3,1.1,.7,1.3,1c.2,.2,.3,.4,.4,.5Zm5.1,-1.2c-1,-.9,-2.7,-1.7,-5.1,-2.5V904.3c.7,-.3,1.4,-.5,2,-.7c1.2,-.5,2.1,-1,2.8,-1.5c.1,-.1,.2,-.2,.3,-.3v33.1Z"/></clipPath>
<clipPath id="c6_37"><path d="M211.2,936.1c-.1,-.1,-.2,-.3,-.4,-.5c-.2,-.3,-.7,-.7,-1.3,-1c-.9,-.5,-2,-.9,-3.3,-1.4v-.8c2.4,.8,4.1,1.6,5.1,2.5v1.2Z"/></clipPath>
<clipPath id="c7_37"><path d="M206.2,904.3v-.2c2.5,-.8,4.2,-1.6,5.1,-2.5v.2c-.1,.1,-.2,.2,-.3,.3c-.7,.5,-1.6,1,-2.8,1.5c-.6,.2,-1.3,.4,-2,.7Z"/></clipPath>
<clipPath id="c8_37"><path d="M205.9,936.9c.1,-.1,.1,-.2,.1,-.3q0,-.1,0,-.1h5.2c0,.1,0,.3,-.1,.4Zm-.1,-1c-.1,-.1,-.2,-.2,-.3,-.3c0,-.1,-.1,-.1,-.1,-.1V933c.1,.1,.3,.1,.4,.1v2.8Zm0,-3.6c-.1,0,-.3,0,-.4,-.1V904.5c.1,0,.3,-.1,.4,-.1v27.9Z"/></clipPath>
<clipPath id="c9_37"><path d="M205.8,933.1c-.1,0,-.3,0,-.4,-.1v-.8c.1,.1,.3,.1,.4,.1v.8Z"/></clipPath>
<clipPath id="ca_37"><path d="M205.8,936.9l-.3,-.1l-.1,-.3v-1c0,0,.1,0,.1,.1c.1,.1,.2,.2,.3,.3v.6h.2v.1c0,.1,0,.2,-.1,.3Z"/></clipPath>
<clipPath id="cb_37"><path d="M211.8,935.6c0,-.1,-.1,-.2,-.2,-.2v-34c.1,-.1,.2,-.1,.2,-.2v34.4Z"/></clipPath>
<clipPath id="cc_37"><path d="M211.6,936.5v-1.1c.1,0,.2,.1,.2,.2v.9Z"/></clipPath>
<clipPath id="cd_37"><path d="M205.4,900.1v-.4c0,.1,0,.2,0,.2c0,.1,0,.2,0,.2Z"/></clipPath>
<clipPath id="ce_37"><path d="M205.4,904.5v-.2c.1,0,.3,-.1,.4,-.1v.2c-.1,0,-.3,.1,-.4,.1Z"/></clipPath>
<clipPath id="cf_37"><path d="M211.6,901.4v-.3c.2,-.3,.2,-.5,.2,-.7v.8c0,.1,-.1,.1,-.2,.2Z"/></clipPath>
<clipPath id="cg_37"><path d="M211.1,936.9c.1,-.1,.1,-.3,.1,-.4h.6v.2c0,0,0,.1,0,.1l-.2,.1Z"/></clipPath>
<clipPath id="ch_37"><path d="M206,936.5c0,-.2,-.1,-.4,-.2,-.6v-2.8c.1,.1,.2,.1,.4,.1v2.9h5c0,.2,.1,.3,.1,.4h-.1Zm.2,-4.1c-.2,0,-.3,0,-.4,-.1V904.4c.1,0,.2,-.1,.4,-.1v28.1Zm5.4,3c0,-.1,-.1,-.2,-.2,-.3c0,-.1,-.1,-.1,-.1,-.2V901.8c.1,-.1,.2,-.2,.3,-.4v34Z"/></clipPath>
<clipPath id="ci_37"><path d="M211.3,936.5c0,-.1,-.1,-.2,-.1,-.4h.1v-1.2c0,.1,.1,.1,.1,.2c.1,.1,.2,.2,.2,.3v1.1Zm-5.1,-3.3c-.2,0,-.3,0,-.4,-.1v-.8c.1,.1,.2,.1,.4,.1v.8Z"/></clipPath>
<clipPath id="cj_37"><path d="M205.8,936.5v-.6c.1,.2,.2,.4,.2,.6Z"/></clipPath>
<clipPath id="ck_37"><path d="M205.8,904.4v-.2c.1,0,.2,-.1,.4,-.1v.2c-.2,0,-.3,.1,-.4,.1Z"/></clipPath>
<clipPath id="cl_37"><path d="M211.3,901.8v-.2c.1,-.2,.3,-.4,.3,-.5v.3c-.1,.2,-.2,.3,-.3,.4Z"/></clipPath>
<style type="text/css"><![CDATA[
.g0_37{
fill: none;
stroke: #241F1F;
stroke-width: 0.611;
stroke-miterlimit: 10;
}
.g1_37{
fill: #FFF;
}
.g2_37{
fill: none;
stroke: #00AEEF;
stroke-width: 1.145;
}
.g3_37{
fill: none;
stroke: #00AEEF;
stroke-width: 0.763;
}
.g4_37{
fill: #00AEEF;
}
.g5_37{
fill: #EED0AD;
}
.g6_37{
fill: #C0E8FB;
}
.g7_37{
fill: #B7BEAB;
}
.g8_37{
fill: none;
stroke: #F9951B;
stroke-width: 0.915;
stroke-linejoin: round;
stroke-dasharray: 8,4;
}
.g9_37{
fill: none;
stroke: #F9951B;
stroke-width: 0.915;
stroke-linejoin: round;
}
.ga_37{
fill: none;
stroke: #00AEEF;
stroke-width: 0.763;
stroke-linejoin: round;
}
.gb_37{
fill: none;
stroke: #241F1F;
stroke-width: 0.534;
stroke-miterlimit: 3;
}
.gc_37{
fill: #D7AD74;
}
.gd_37{
fill: #EEC696;
}
.ge_37{
fill: #F8D8B3;
}
.gf_37{
fill: none;
stroke: #241F1F;
stroke-width: 0.611;
stroke-miterlimit: 3;
}
.gg_37{
fill: #241F1F;
}
.gh_37{
fill: none;
stroke: #969698;
stroke-width: 0.763;
stroke-miterlimit: 3;
stroke-dasharray: 10,4;
}
.gi_37{
fill: none;
stroke: #00AEEF;
stroke-width: 0.915;
stroke-linejoin: round;
}
.gj_37{
fill: none;
stroke: #241F1F;
stroke-width: 0.763;
stroke-miterlimit: 3;
stroke-dasharray: 10,4;
}
.gk_37{
fill: none;
stroke: #241F1F;
stroke-width: 0.534;
stroke-miterlimit: 10;
}
.gl_37{
fill: #F9951B;
}
.gm_37{
fill: none;
stroke: #F9951B;
stroke-width: 0.916;
stroke-linejoin: round;
}
.gn_37{
fill: none;
stroke: #F9951B;
stroke-width: 0.763;
stroke-miterlimit: 3;
stroke-dasharray: 8,4;
}
.go_37{
fill: #C88B2D;
}
.gp_37{
fill: #B67F27;
}
.gq_37{
fill: none;
stroke: #241F1F;
stroke-width: 0.916;
stroke-linejoin: round;
}
.gr_37{
fill: none;
stroke: #241F1F;
stroke-width: 0.381;
stroke-miterlimit: 3;
}
]]></style>
</defs>
<path d="M642.8,131.2h6.8m17.9,0h6.8M558.8,229h6.7m19.5,0h6.7" class="g0_37"/>
<path d="M345.7,305.5c0,0,-3.1,0,-3.1,3v98.6c0,0,0,3,3.1,3H875.1c0,0,3,0,3,-3V308.5c0,0,0,-3,-3,-3Z" class="g1_37"/>
<path d="M358.8,314.8c0,0,-1.5,0,-1.5,1.6v14.1c0,0,0,1.5,1.5,1.5H373c0,0,1.5,0,1.5,-1.5V316.4c0,0,0,-1.6,-1.5,-1.6H358.8Z" class="g2_37"/>
<path d="M345.7,305.5c0,0,-3.1,0,-3.1,3v98.6c0,0,0,3,3.1,3H875.1c0,0,3,0,3,-3V308.5c0,0,0,-3,-3,-3H345.7Z" class="g3_37"/>
<path d="M580.4,544c-1.4,0,-2.3,.5,-2.9,1.9h-.1c-.5,-1.4,-1.5,-1.9,-2.8,-1.9h-16c-1.7,0,-2.4,-1.3,-2.5,-2.8h-.5c.2,2.9,.9,3.9,3.9,3.9h15.2c1.2,0,2.2,.2,2.5,1.9h.5c.4,-1.7,1.4,-1.9,2.6,-1.9h15.1c3,0,3.7,-1,4,-3.9h-.6c0,1.5,-.8,2.8,-2.5,2.8Z" class="g4_37"/>
<path d="M640.7,544c-1.3,0,-2.3,.5,-2.8,1.9h-.1c-.6,-1.4,-1.5,-1.9,-2.9,-1.9h-16c-1.7,0,-2.4,-1.3,-2.5,-2.8h-.5c.3,2.9,1,3.9,4,3.9H635c1.2,0,2.2,.2,2.6,1.9h.5c.3,-1.7,1.3,-1.9,2.5,-1.9h15.2c2.9,0,3.6,-1,3.9,-3.9h-.5c-.1,1.5,-.8,2.8,-2.5,2.8Z" class="g4_37"/>
<path d="M691.1,544c-1.3,0,-2.3,.5,-2.8,1.9h-.1c-.5,-1.4,-1.5,-1.9,-2.9,-1.9h-5.2c-1.8,0,-2.5,-1.3,-2.6,-2.8H677c.3,2.9,1,3.9,4,3.9h4.5c1.1,0,2.2,.2,2.5,1.9h.5c.3,-1.7,1.3,-1.9,2.5,-1.9h4.5c3,0,3.6,-1,3.9,-3.9h-.5c-.1,1.5,-.8,2.8,-2.5,2.8Z" class="g4_37"/>
<image clip-path="url(#c0_37)" x="371" y="614" width="106" height="15" xlink:href="shade/1.png"/>
<path fill-rule="evenodd" d="M371.3,620.7c0,3.8,23.7,6.9,53,6.9c29.2,0,52.9,-3.1,52.8,-6.9c0,-3.9,-23.7,-7,-52.9,-7c-29.2,.1,-52.9,3.2,-52.9,7m-7.8,0c0,-5.5,27.2,-10,60.7,-10c33.5,0,60.7,4.4,60.7,10c.1,5.5,-27.1,10,-60.6,10c-33.6,0,-60.8,-4.5,-60.8,-10Z" class="g5_37"/>
<image clip-path="url(#c1_37)" x="363" y="621" width="123" height="60" xlink:href="shade/2.png"/>
<path d="M477.1,626.7v-1.1c5,-1.5,7.8,-3.2,7.8,-5h.1v2c-.8,1.5,-3.5,2.9,-7.9,4.1m0,-6v-.1c0,0,0,.1,0,.1Z" class="g6_37"/>
<path d="M477.1,625.6v-4.9c0,0,0,-.1,0,-.1h7.8v.1c0,1.7,-2.8,3.4,-7.8,4.9Z" class="g7_37"/>
<g clip-path="url(#c2_37)">
<image preserveAspectRatio="none" x="477" y="622" width="8" height="48" xlink:href="img/1.jpg"/>
<image preserveAspectRatio="none" x="477" y="622" width="8" height="48" xlink:href="img/2.jpg"/>
</g>
<path d="M372,669.5c0,-3.8,23.4,-7,52.4,-7c29,0,52.5,3.2,52.5,7c0,3.9,-23.5,7.1,-52.5,7.1c-29,0,-52.4,-3.2,-52.4,-7.1Zm-8.5,-.1c0,-5.6,27.2,-10.1,60.7,-10.1c33.6,0,60.8,4.5,60.8,10.1" class="g8_37"/>
<path d="M363.5,670V620.3M485,669.4c0,5.6,-27.2,10.1,-60.8,10.1c-33.5,0,-60.7,-4.5,-60.7,-10.1M372,620.7c0,-3.9,23.4,-7,52.4,-7c29,0,52.5,3.1,52.5,7c0,3.9,-23.5,7,-52.5,7c-29,0,-52.4,-3.1,-52.4,-7Z" class="g9_37"/>
<path d="M371.9,620.3v49.9" class="g8_37"/>
<path d="M477.1,669.8H485V620.7h-7.9v49.1Z" class="ga_37"/>
<path d="M363.5,621.1c0,-5.6,27.2,-10.1,60.7,-10.1c33.6,0,60.8,4.5,60.8,10.1c0,5.6,-27.2,10.1,-60.8,10.1c-33.5,0,-60.7,-4.5,-60.7,-10.1Z" class="g9_37"/>
<path d="M480.9,641.2v13.7" class="gb_37"/>
<path d="M848.3,620.4l4.9,-2.1v49.2l-4.9,2.1Z" class="gc_37"/>
<path d="M848.3,620.4l4.9,-2.1v49.2l-4.9,2.1V620.4Z" class="g9_37"/>
<path d="M848.3,620.4H592.5v49.2H848.3Z" class="gd_37"/>
<path d="M848.3,620.4H592.5v49.2H848.3V620.4Z" class="g9_37"/>
<path d="M848.3,620.4H592.5l5.5,-2.1H853.2Z" class="ge_37"/>
<path d="M848.3,620.4H592.5l5.5,-2.1H853.2l-4.9,2.1Z" class="g9_37"/>
<path d="M485.4,669.5h74.9" class="gf_37"/>
<path fill-rule="evenodd" d="M560.3,669.5l-1.6,-2.4l6.5,2.4l-6.5,2.5Z" class="gg_37"/>
<path d="M424.6,676.6V631.1" class="gh_37"/>
<path d="M341.5,669.6h22.3m60.8,10v26.1" class="gf_37"/>
<path d="M366.6,669.6H482.4" class="gh_37"/>
<path d="M424.6,627.5v-46" class="gf_37"/>
<path fill-rule="evenodd" d="M424.6,581.5l-2.4,1.6l2.4,-6.5l2.5,6.5Z" class="gg_37"/>
<path d="M429.3,647.9H448" class="gb_37"/>
<path d="M425.6,647.9l4.8,-1.9l-1.1,1.9l1.1,1.8Z" class="gg_37"/>
<path d="M459.9,647.9h16.7" class="gb_37"/>
<path d="M480.2,647.9l-4.8,1.8l1.2,-1.8L475.4,646Z" class="gg_37"/>
<path d="M481.1,641v13.7" class="gb_37"/>
<path d="M441,599c1.4,-.4,2.3,-.6,3.8,-.6c20.6,0,28.9,12.1,38.2,24.5c7.6,10.2,20.3,15.2,37.4,15.2" class="gi_37"/>
<path d="M485.2,620.9h57.3" class="gj_37"/>
<path d="M537.9,653.6v11.1" class="gb_37"/>
<path d="M537.9,668.3l-1.8,-4.8l1.8,1.2l1.9,-1.2Z" class="gg_37"/>
<path d="M537.9,625v9.5" class="gb_37"/>
<path d="M537.9,621.3l1.9,4.8L537.9,625l-1.8,1.1Z" class="gg_37"/>
<path d="M522.3,917.1c-1.3,0,-2.3,.5,-2.8,1.9h-.1c-.6,-1.4,-1.5,-1.9,-2.9,-1.9H505.1c-1.7,0,-2.4,-1.3,-2.5,-2.7h-.5c.3,2.8,1,3.8,3.9,3.8h10.6c1.2,0,2.2,.3,2.6,1.9h.5c.3,-1.6,1.3,-1.9,2.5,-1.9h10.6c3,0,3.6,-1,3.9,-3.8h-.5c-.1,1.4,-.8,2.7,-2.5,2.7Z" class="g4_37"/>
<path d="M579.6,917.1c-1.4,0,-2.3,.5,-2.8,1.9h-.2c-.5,-1.4,-1.4,-1.9,-2.8,-1.9H551.7c-1.7,0,-2.4,-1.3,-2.5,-2.7h-.5c.3,2.8,.9,3.8,3.9,3.8h21.3c1.2,0,2.2,.3,2.5,1.9h.6c.3,-1.6,1.3,-1.9,2.5,-1.9h21.3c2.9,0,3.6,-1,3.9,-3.8h-.5c-.1,1.4,-.8,2.7,-2.5,2.7Z" class="g4_37"/>
<path d="M630,917.1c-1.3,0,-2.3,.5,-2.8,1.9h-.1c-.6,-1.4,-1.5,-1.9,-2.9,-1.9h-6.8c-1.7,0,-2.4,-1.3,-2.5,-2.7h-.5c.3,2.8,.9,3.8,3.9,3.8h6c1.2,0,2.2,.3,2.6,1.9h.5c.3,-1.6,1.3,-1.9,2.5,-1.9h6c3,0,3.7,-1,3.9,-3.8h-.5c-.1,1.4,-.8,2.7,-2.5,2.7Z" class="g4_37"/>
<path d="M652.5,958.8h6.9m37.5,0h5.3M537.6,998.6h10.7m28.9,0H588" class="gk_37"/>
<image clip-path="url(#c3_37)" x="120" y="900" width="92" height="45" xlink:href="shade/3.png"/>
<image clip-path="url(#c4_37)" x="126" y="894" width="80" height="12" xlink:href="shade/4.png"/>
<path fill-rule="evenodd" d="M126.3,899.9c.1,2.8,17.8,5.2,39.8,5.2c21.9,0,39.7,-2.4,39.7,-5.2c0,-2.9,-17.8,-5.2,-39.8,-5.2c-21.9,0,-39.7,2.3,-39.7,5.2m-5.8,0c0,-4.2,20.3,-7.5,45.5,-7.6c25.2,0,45.6,3.4,45.6,7.5c0,4.2,-20.3,7.6,-45.5,7.6c-25.2,0,-45.6,-3.4,-45.6,-7.5Z" class="g5_37"/>
<path d="M120.9,936.5c0,-.3,.1,-.6,.4,-.9c.9,-1,3.3,-2.1,6.9,-3l-.1,-.7c-2.5,.6,-4.4,1.3,-5.8,2c-.7,.4,-1.2,.7,-1.6,1.2c-.4,.4,-.6,.8,-.6,1.4h.8M131.2,932c2.6,-.6,5.7,-1,9,-1.4v-.8c-3.4,.4,-6.5,.9,-9.1,1.4l.1,.8m12.1,-1.7c2.8,-.3,5.9,-.5,9.1,-.7v-.8c-3.3,.2,-6.3,.4,-9.2,.7l.1,.8m12.2,-.8c2.9,-.2,6,-.2,9.1,-.3v-.7c-3.1,0,-6.2,.1,-9.2,.2l.1,.8m12.2,-.3c3.1,.1,6.2,.1,9.1,.3v-.8c-2.9,-.1,-6,-.2,-9.1,-.2v.7m12.2,.4c3.2,.2,6.2,.4,9.1,.7l.1,-.8c-2.9,-.3,-6,-.5,-9.2,-.7v.8m12.1,1c3.4,.4,6.4,.9,9.1,1.4l.1,-.8c-2.6,-.5,-5.7,-1,-9.1,-1.4l-.1,.8m12,2c2.4,.6,4.2,1.3,5.5,2c.6,.3,1.1,.7,1.3,1c.3,.3,.5,.6,.5,.9h.7c0,-.6,-.2,-1,-.6,-1.4c-1.1,-1.3,-3.6,-2.3,-7.2,-3.2l-.2,.7Z" class="gl_37"/>
<path d="M136.6,933.5c2.2,-.4,4.8,-.7,7.6,-.9l-.1,-.8c-2.8,.3,-5.4,.6,-7.6,.9l.1,.8m10.6,-1.2c2.4,-.1,4.9,-.3,7.6,-.4v-.8c-2.7,.1,-5.3,.3,-7.7,.5l.1,.7m10.7,-.5c2.4,-.1,5,-.1,7.6,-.1v-.8c-2.6,0,-5.2,.1,-7.6,.1v.8m10.6,-.1c2.7,0,5.2,.1,7.7,.2v-.8c-2.5,-.1,-5,-.1,-7.6,-.2l-.1,.8m10.7,.3c2.7,.1,5.3,.3,7.6,.5l.1,-.8c-2.4,-.2,-4.9,-.4,-7.6,-.5l-.1,.8m10.7,.7c2.8,.3,5.4,.7,7.5,1l.2,-.7c-2.2,-.4,-4.8,-.7,-7.6,-1l-.1,.7m10.5,1.6c1.6,.4,2.9,.8,3.7,1.2c.4,.2,.7,.4,.9,.6c.2,.2,.2,.4,.2,.5c0,0,0,.2,-.1,.3c-.2,.2,-.4,.3,-.7,.5l.4,.7c.4,-.2,.6,-.5,.8,-.7c.3,-.2,.4,-.5,.4,-.8c0,-.4,-.2,-.7,-.5,-1c-.8,-.8,-2.5,-1.4,-4.9,-2l-.2,.7m1.3,4.2c-1.9,.5,-4.5,1,-7.5,1.4l.1,.7c3.1,-.4,5.6,-.9,7.5,-1.4l-.1,-.7m-10.5,1.7c-2.4,.3,-4.9,.5,-7.6,.7v.8c2.8,-.2,5.3,-.5,7.7,-.7l-.1,-.8m-10.7,.9c-2.4,.1,-5,.2,-7.6,.3v.7c2.7,0,5.2,-.1,7.7,-.3l-.1,-.7m-10.6,.3c-1.2,0,-2.5,0,-3.7,0c-1.3,0,-2.7,0,-4,0v.8c1.3,0,2.7,0,4,0c1.2,0,2.5,0,3.7,0v-.8m-10.7,0c-2.7,-.1,-5.2,-.2,-7.7,-.3v.7c2.4,.2,5,.2,7.6,.3l.1,-.7m-10.7,-.5c-2.7,-.2,-5.3,-.4,-7.6,-.7l-.1,.8c2.3,.2,4.9,.4,7.6,.6l.1,-.7m-10.6,-1.1c-3.1,-.4,-5.6,-.9,-7.5,-1.4l-.2,.7c1.9,.6,4.5,1,7.6,1.5l.1,-.8m-10.2,-2.6c-.4,-.3,-.5,-.5,-.5,-.6c0,-.2,.1,-.3,.3,-.6c.8,-.6,2.9,-1.4,6.1,-2l-.2,-.8c-2.1,.5,-3.8,.9,-5,1.4c-.6,.3,-1,.6,-1.4,.9c-.3,.3,-.6,.6,-.6,1.1c0,.5,.4,.9,.9,1.3l.4,-.7Z" class="gl_37"/>
<path d="M126.8,899.9h.5l.1,-.3c.1,-.2,.6,-.5,1.2,-.8c2.3,-1,7.3,-2,13.9,-2.7c6.6,-.6,14.8,-1,23.7,-1c10.9,0,20.7,.6,27.8,1.5c3.6,.5,6.4,1.1,8.4,1.7c.9,.3,1.7,.6,2.2,.9c.2,.2,.4,.3,.4,.4l.2,.3l-.2,.3c-.1,.2,-.6,.5,-1.2,.8c-2.3,1,-7.3,2,-13.9,2.6c-6.6,.7,-14.8,1.1,-23.7,1.1c-10.9,0,-20.7,-.6,-27.8,-1.5c-3.5,-.5,-6.4,-1.1,-8.4,-1.7c-.9,-.3,-1.7,-.6,-2.1,-.9c-.3,-.2,-.4,-.3,-.5,-.4l-.1,-.3h-.9c0,.3,.1,.6,.2,.8c.4,.4,.9,.8,1.7,1.1c2.5,1.1,7.5,2.1,14.1,2.7c6.6,.7,14.9,1.1,23.8,1.1c10.9,0,20.8,-.6,27.9,-1.5c3.6,-.5,6.5,-1.1,8.5,-1.7c1.1,-.4,1.9,-.7,2.5,-1.1c.2,-.2,.5,-.4,.7,-.6c.1,-.2,.3,-.5,.3,-.8c0,-.3,-.2,-.6,-.3,-.8c-.4,-.5,-.9,-.8,-1.6,-1.1c-2.6,-1.2,-7.6,-2.1,-14.2,-2.8c-6.6,-.6,-14.9,-1,-23.8,-1c-10.9,0,-20.8,.6,-27.9,1.5c-3.6,.5,-6.5,1.1,-8.5,1.7c-1.1,.3,-1.9,.7,-2.4,1c-.3,.2,-.6,.4,-.8,.7c-.1,.2,-.2,.5,-.2,.8h.4Z" class="gl_37"/>
<path d="M120.5,936.9V899.6" class="gm_37"/>
<path d="M126.8,899.6l-.1,37.4" class="gn_37"/>
<path d="M120.5,900.2h.4c0,-.3,.2,-.7,.8,-1.2c1,-.8,2.9,-1.6,5.5,-2.3c7.9,-2.2,22.4,-3.7,38.9,-3.7c12.5,0,23.9,.9,32.1,2.3c4.1,.6,7.4,1.5,9.7,2.3c1.1,.5,2,1,2.5,1.4c.6,.5,.8,.9,.8,1.2c0,.3,-.2,.7,-.8,1.2c-.9,.8,-2.9,1.6,-5.5,2.3c-7.9,2.1,-22.3,3.6,-38.8,3.6c-12.6,0,-24,-.8,-32.2,-2.2c-4.1,-.7,-7.4,-1.5,-9.7,-2.4c-1.1,-.4,-2,-.9,-2.5,-1.3c-.6,-.5,-.8,-.9,-.8,-1.2H120c0,.7,.5,1.3,1.1,1.9c1.2,.9,3.2,1.7,5.9,2.5c8,2.2,22.5,3.6,39.1,3.6c12.6,0,24,-.8,32.3,-2.2c4.1,-.7,7.5,-1.5,9.8,-2.4c1.2,-.5,2.1,-1,2.8,-1.5c.7,-.6,1.1,-1.2,1.1,-1.9c0,-.7,-.4,-1.4,-1.1,-1.9c-1.2,-.9,-3.1,-1.8,-5.8,-2.5c-8.1,-2.2,-22.6,-3.7,-39.1,-3.7c-12.6,0,-24.1,.9,-32.3,2.3c-4.2,.6,-7.5,1.5,-9.9,2.4c-1.2,.5,-2.1,1,-2.8,1.5c-.6,.5,-1.1,1.2,-1.1,1.9h.5Z" class="gl_37"/>
<path d="M211.2,936.5c0,.3,-.2,.7,-.7,1.1c-1,.8,-2.9,1.6,-5.6,2.3c-7.9,2.2,-22.3,3.7,-38.8,3.7c-12.6,0,-24,-.9,-32.2,-2.2c-4.1,-.7,-7.4,-1.5,-9.7,-2.4c-1.1,-.5,-2,-.9,-2.5,-1.4c-.6,-.4,-.8,-.8,-.8,-1.1H120c0,.7,.5,1.3,1.1,1.8c1.2,1,3.2,1.8,5.9,2.5c8,2.3,22.5,3.7,39.1,3.7c12.6,0,24,-.8,32.3,-2.2c4.1,-.7,7.5,-1.5,9.8,-2.5c1.2,-.4,2.2,-.9,2.8,-1.5c.7,-.5,1.1,-1.1,1.1,-1.8h-.9Z" class="gl_37"/>
<g clip-path="url(#c5_37)">
<image preserveAspectRatio="none" x="206" y="901" width="6" height="36" xlink:href="img/3.jpg"/>
<image preserveAspectRatio="none" x="206" y="901" width="6" height="36" xlink:href="img/4.jpg"/>
</g>
<image clip-path="url(#c6_37)" preserveAspectRatio="none" x="206" y="932" width="6" height="5" xlink:href="img/5.jpg"/>
<path d="M206.2,903.3V900h5q0,.1,0,.2c0,.3,-.2,.7,-.8,1.2c-.8,.6,-2.2,1.3,-4.2,1.9Z" class="g7_37"/>
<path d="M206.2,904.1v-.7c2.6,-.8,4.3,-1.6,5.1,-2.6v.8c-.9,.9,-2.6,1.7,-5.1,2.5Z" class="go_37"/>
<image clip-path="url(#c7_37)" preserveAspectRatio="none" x="206" y="901" width="6" height="4" xlink:href="img/6.jpg"/>
<path d="M206.2,903.4v-.1c2,-.6,3.4,-1.3,4.2,-1.9c.6,-.5,.8,-.9,.8,-1.2q0,-.1,0,-.2h.1v.8c-.8,1,-2.5,1.8,-5.1,2.6Z" class="gp_37"/>
<g clip-path="url(#c8_37)">
<image preserveAspectRatio="none" x="205" y="904" width="7" height="34" xlink:href="img/7.jpg"/>
<image preserveAspectRatio="none" x="205" y="904" width="7" height="34" xlink:href="img/8.jpg"/>
</g>
<image clip-path="url(#c9_37)" preserveAspectRatio="none" x="205" y="932" width="1" height="2" xlink:href="img/9.jpg"/>
<image clip-path="url(#ca_37)" preserveAspectRatio="none" x="205" y="935" width="1" height="3" xlink:href="img/10.jpg"/>
<path d="M212,936.5h-.2h.2c0,-.3,-.1,-.6,-.2,-.9V901.2c.1,-.2,.2,-.3,.2,-.5v35.8Z" class="g6_37"/>
<image clip-path="url(#cb_37)" preserveAspectRatio="none" x="211" y="901" width="1" height="35" xlink:href="img/11.jpg"/>
<path d="M212,936.5h-.2v-.9c.1,.3,.2,.6,.2,.9Z" class="go_37"/>
<image clip-path="url(#cc_37)" preserveAspectRatio="none" x="211" y="935" width="1" height="2" xlink:href="img/12.jpg"/>
<path d="M205.4,903.5v-2.4c.1,-.1,.3,-.3,.4,-.4v2.7c-.1,.1,-.3,.1,-.4,.1Z" class="g7_37"/>
<path d="M212,899.7c0,-.1,-.1,-.3,-.1,-.4l.1,.3v.1Z" class="g6_37"/>
<path d="M211,899.6h-5c0,-.1,-.1,-.3,-.1,-.4h4.8c.1,.2,.2,.3,.3,.4Z" class="g7_37"/>
<path d="M205.4,900.6v-.5c0,0,0,-.1,0,-.2c0,0,0,-.1,0,-.2v-.1l.1,-.3h.1c.1,.2,.2,.4,.2,.5v.1c0,.2,-.2,.5,-.4,.7Z" class="go_37"/>
<image clip-path="url(#cd_37)" preserveAspectRatio="none" x="205" y="899" width="1" height="2" xlink:href="img/13.jpg"/>
<path d="M205.4,901.1v-.5c.2,-.2,.4,-.5,.4,-.7v.8c-.1,.1,-.3,.3,-.4,.4m.4,-1.3c0,-.2,-.1,-.3,-.2,-.5l.2,-.1h.1c0,.1,.1,.3,.1,.4h-.2v.2Z" class="gp_37"/>
<path d="M205.4,904.3v-.7c.1,0,.3,0,.4,-.1v.7c-.1,0,-.3,.1,-.4,.1Z" class="go_37"/>
<image clip-path="url(#ce_37)" preserveAspectRatio="none" x="205" y="904" width="1" height="1" xlink:href="img/14.jpg"/>
<path d="M205.4,903.6v-.1c.1,0,.3,0,.4,-.1v.1c-.1,.1,-.3,.1,-.4,.1Z" class="gp_37"/>
<path d="M211.8,901.2v-.8c0,.2,0,.4,-.2,.7v-1.5c0,-.1,-.1,-.2,-.1,-.4h.1l.3,.1c0,.1,.1,.3,.1,.4v1c0,.2,-.1,.3,-.2,.5Z" class="go_37"/>
<image clip-path="url(#cf_37)" preserveAspectRatio="none" x="211" y="900" width="1" height="2" xlink:href="img/15.jpg"/>
<path d="M211.6,899.6H211c-.1,-.1,-.2,-.2,-.3,-.4h.8c0,.2,.1,.3,.1,.4Z" class="gp_37"/>
<path d="M211.8,936.8c0,0,0,-.1,0,-.1v-.2h.2l-.1,.3h-.1Z" class="go_37"/>
<image clip-path="url(#cg_37)" preserveAspectRatio="none" x="210" y="936" width="2" height="2" xlink:href="img/16.jpg"/>
<g clip-path="url(#ch_37)">
<image preserveAspectRatio="none" x="205" y="901" width="7" height="36" xlink:href="img/17.jpg"/>
<image preserveAspectRatio="none" x="205" y="901" width="7" height="36" xlink:href="img/18.jpg"/>
</g>
<image clip-path="url(#ci_37)" preserveAspectRatio="none" x="205" y="932" width="7" height="5" xlink:href="img/19.jpg"/>
<image clip-path="url(#cj_37)" preserveAspectRatio="none" x="205" y="935" width="1" height="2" xlink:href="img/20.jpg"/>
<path d="M205.8,903.4v-2.7c.1,-.2,.3,-.5,.3,-.8c0,-.1,0,-.2,-.1,-.3h5c.1,.1,.1,.3,.2,.4h-5v3.3c-.2,.1,-.3,.1,-.4,.1Z" class="g7_37"/>
<path d="M205.8,899.9v-.1v.1Z" class="go_37"/>
<path d="M205.8,900.7v-.8q0,-.1,0,-.1v-.2h.2c.1,.1,.1,.2,.1,.3c0,.3,-.2,.6,-.3,.8Z" class="gp_37"/>
<path d="M205.8,904.2v-.7c.1,0,.2,0,.4,-.1v.7c-.2,0,-.3,.1,-.4,.1Z" class="go_37"/>
<image clip-path="url(#ck_37)" preserveAspectRatio="none" x="205" y="903" width="2" height="2" xlink:href="img/21.jpg"/>
<path d="M205.8,903.5v-.1c.1,0,.2,0,.4,-.1v.1c-.2,.1,-.3,.1,-.4,.1Z" class="gp_37"/>
<path d="M211.3,901.6v-.8c.2,-.3,.3,-.6,.3,-1c0,0,0,-.1,0,-.2v1.5c0,.1,-.2,.3,-.3,.5Z" class="go_37"/>
<image clip-path="url(#cl_37)" preserveAspectRatio="none" x="211" y="900" width="1" height="2" xlink:href="img/22.jpg"/>
<path d="M211.3,900.8V900h-.1c-.1,-.1,-.1,-.3,-.2,-.4h.6c0,.1,0,.2,0,.2c0,.4,-.1,.7,-.3,1Z" class="gp_37"/>
<path d="M211.8,936.5H317.1" class="gf_37"/>
<path fill-rule="evenodd" d="M317.1,936.5l-1.6,-2.4l6.5,2.4l-6.5,2.5Z" class="gg_37"/>
<path d="M166.2,942.6V905.2" class="gj_37"/>
<path d="M108.5,936.8h12.1m45.6,7.5V973" class="gf_37"/>
<path d="M123.4,936.8h85.4" class="gj_37"/>
<path d="M205.8,936.5h5.8V899.6h-5.8v36.9Z" class="ga_37"/>
<path d="M166.2,936.5c30.4,0,60.7,-81.5,91.9,-81.5c25.8,0,42.2,64.6,45.6,81.5" class="gq_37"/>
<path d="M166.2,905.2V848.7" class="gf_37"/>
<path fill-rule="evenodd" d="M166.2,848.7l-2.4,1.6l2.4,-6.5l2.5,6.5Z" class="gg_37"/>
<path d="M169.7,923.5h4.9" class="gb_37"/>
<path d="M166,923.5l4.8,-1.9l-1.1,1.9l1.1,1.8Z" class="gg_37"/>
<path d="M184.5,923.5h20.7" class="gb_37"/>
<path d="M208.8,923.5l-4.8,1.8l1.2,-1.8L204,921.6Z" class="gg_37"/>
<path d="M208.6,918.3v10.3m6.3,-28.8c2.1,.1,2.4,2,2.5,4.4V913c.1,2.4,-.1,4.3,2,4.4c-2.1,0,-1.9,2,-2,4.3v9.6c-.1,2.4,-.4,4.5,-2.5,4.6" class="gb_37"/>
<path d="M158.8,963.9c-6.5,-.6,-11.1,-2.1,-11.1,-4c0,-2.5,8.1,-4.8,18.2,-5c10.2,-.2,18.4,1.7,18.5,4.2c0,1.7,-3.6,3.3,-9.1,4.2" class="gr_37"/>
<path d="M172.1,963.6l4.5,1.3l-1.2,-1.5l.9,-1.8Z" class="gg_37"/>
</svg>