<?xml version="1.0" encoding="UTF-8" standalone="no"?>
<!DOCTYPE svg PUBLIC "-//W3C//DTD SVG 1.1//EN"
"http://www.w3.org/Graphics/SVG/1.1/DTD/svg11.dtd">
<svg viewBox="0 0 931 1096" version="1.1" xmlns="http://www.w3.org/2000/svg" xmlns:xlink="http://www.w3.org/1999/xlink">
<defs>
<clipPath id="c0_110"><path d="M82.5,439.9c-5.1,0,-9.2,-4,-9.2,-9V339c0,-5,4.1,-9.1,9.2,-9.1H232.2c5,0,9.1,4.1,9.1,9.1v91.9c0,5,-4.1,9,-9.1,9Z"/></clipPath>
<style type="text/css"><![CDATA[
.g0_110{
fill: none;
stroke: #241F1F;
stroke-width: 0.534;
stroke-miterlimit: 10;
}
.g1_110{
fill: none;
stroke: #241F1F;
stroke-width: 0.381;
stroke-miterlimit: 3;
}
.g2_110{
fill: #241F1F;
}
.g3_110{
fill: none;
stroke: #EE008C;
stroke-width: 0.916;
stroke-miterlimit: 3;
}
.g4_110{
fill: none;
stroke: #00AEEF;
stroke-width: 0.916;
stroke-miterlimit: 3;
}
.g5_110{
fill: none;
stroke: #6AC48C;
stroke-width: 0.993;
stroke-miterlimit: 3;
}
.g6_110{
fill: none;
stroke: #241F1F;
stroke-width: 0.763;
stroke-miterlimit: 3;
}
.g7_110{
fill: none;
stroke: #241F1F;
stroke-width: 0.534;
stroke-miterlimit: 3;
}
.g8_110{
fill: none;
stroke: #72D0F6;
stroke-width: 0.534;
stroke-miterlimit: 3;
}
]]></style>
</defs>
<path d="M566.4,106.6h5.4m52.1,0h5.3m-67.3,39.7h5.4m30.5,0h5.4M565.2,406h5.4m42.9,78h5.3m30.6,0h5.4m41.2,0h5.4" class="g0_110"/>
<g clip-path="url(#c0_110)">
<path d="M177,390.2c8.2,0,13.3,3.1,16.8,9.6" class="g1_110"/>
<path d="M195.3,402.7l-3.5,-3l2,.1l1,-1.7Z" class="g2_110"/>
<path d="M238.3,333l.6,-3.3m-2.6,11.9l2,-8.6m-3.7,16.2l1.7,-7.6M233,355.1l1.6,-5.9m-3.3,11.6l1.7,-5.7m-3.7,10.6l2,-4.9m-3.7,9.5l1.7,-4.6m-3.4,8.6l1.7,-4m-3.3,7.6l1.6,-3.6m-3.6,7.3l2,-3.7m-3.7,6.6l1.7,-2.9m-5,7.6l3.3,-4.7m-5.3,7l2,-2.3m-3.7,4.2l1.7,-1.9m-5,4.9l3.3,-3m-7,5.3l3.7,-2.3m-7.4,4.3l3.7,-2m-7,3.3l3.3,-1.3m-7,2.3l3.7,-1m-7,1.7l3.3,-.7m-7,1.4l3.7,-.7m-7,1l3.3,-.3m-7,.3h3.7m-7,0h3.3m-7,0h3.7m-7,0h3.3m-7,0h3.7m-7.4,-.3l3.7,.3m-7,-.3h3.3m-6.6,.3l3.3,-.3m-7,.3h3.7m-7.4,.3l3.7,-.3m-7,.3h3.3m-7,.3l3.7,-.3m-7,.7l3.3,-.4m-7,1l3.7,-.6m-7,1l3.3,-.4m-7,1l3.7,-.6m-7,1l3.3,-.4m-7,.7l3.7,-.3m-7,.9l3.3,-.6m-7,1l3.7,-.4m-7,.7l3.3,-.3m-7,.3h3.7m-7.1,.3l3.4,-.3m-7,.3h3.6m-7.3,0h3.7m-7,0h3.3m-7,-.3l3.7,.3m-7,-.6l3.3,.3m-7,-.7l3.7,.4m-7,-.7l3.3,.3m-7,-.6l3.7,.3m-7,-.6l3.3,.3" class="g3_110"/>
<path d="M238.2,425.5l3.3,3.6m-7,-7.2l3.7,3.6m-7,-6.6l3.3,3m-7,-6l3.7,3m-7,-5.6l3.3,2.6m-7,-5.9l3.7,3.3m-7,-6l3.3,2.7m-7,-6l3.7,3.3m-7,-6.9l3.3,3.6m-7,-7.6l3.7,4m-7.4,-8.9l3.7,4.9m-7,-10.5l3.3,5.6m-7,-12.6l3.7,7m-7,-14.9l3.3,7.9m-7,-18.1l3.7,10.2m-7,-21.8l3.3,11.6m-7,-26.1l3.7,14.5m-4.7,-19.5l1,5" class="g4_110"/>
<path d="M224.2,330.7l.3,-1m-4,14.5l3.7,-13.5m-7,22.5l3.3,-9m-7,15.9l3.7,-6.9m-7,11.5l3.3,-4.6m-7,7.3l3.7,-2.7m-7.4,3.3l3.7,-.6m-7,-.7l3.3,1.3m-7,-4.6l3.7,3.3m-7,-8.3l3.3,5m-7,-12.6l3.7,7.6m-7,-17.5l3.3,9.9m-6.3,-21.1l3,11.2" class="g5_110"/>
<path d="M240,429.4l1.6,1.6m-3.3,-3.3l1.7,1.7m-3.7,-3l2,1.3m-3.7,-2.9l1.7,1.6m-5,-3.6l3.3,2m-5.3,-3.3l2,1.3m-3.7,-2l1.7,.7m-5,-2.4l3.3,1.7m-7,-3.3l3.7,1.6m-7,-2.9l3.3,1.3m-7,-2.3l3.7,1m-7,-2l3.3,1m-7,-2l3.7,1m-7.4,-1.7l3.7,.7m-7,-1.7l3.3,1m-7,-1.6l3.7,.6m-7,-1.3l3.3,.7m-7,-1.7l3.7,1m-7,-1.6l3.3,.6m-7,-1.3l3.7,.7m-7,-1.4l3.3,.7m-7,-1l3.7,.3m-7,-.9l3.3,.6m-7,-1l3.7,.4m-7.4,-.7l3.7,.3m-7,-.6l3.3,.3m-6.6,-.3h3.3m-7,0h3.7m-7.4,0h3.7m-7,.3l3.3,-.3m-7,.3h3.7m-7,.3l3.3,-.3m-7,.7l3.7,-.4m-7,1l3.3,-.6m-7,.9l3.7,-.3m-7,.7l3.3,-.4m-7,1l3.7,-.6m-7,1l3.3,-.4m-7,.7l3.7,-.3m-7,.6l3.3,-.3m-7,.3h3.7m-7.1,.4l3.4,-.4m-7,.4h3.6m-7.3,0h3.7m-7,0h3.3m-7,-.4l3.7,.4m-7,-.7l3.3,.3m-7,-.6l3.7,.3m-7,-.7l3.3,.4m-7,-.7l3.7,.3m-7,-.6l3.3,.3" class="g6_110"/>
<path d="M208,439.8v-110M73.3,408.4H241.8" class="g7_110"/>
<path d="M170.5,338.5c9.5,0,26.8,-.6,28.6,4.9c1.8,5.2,-2.3,7.1,-6.1,8.4" class="g1_110"/>
<path d="M189.9,352.9l3.6,-3l-.5,1.9l1.5,1.3Z" class="g2_110"/>
</g>
<path d="M82.5,329.9H232.2c5,0,9.1,4.1,9.1,9.1v91.9c0,5,-4.1,9,-9.1,9H82.5c-5.1,0,-9.2,-4,-9.2,-9V339c0,-5,4.1,-9.1,9.2,-9.1Z" class="g8_110"/>
</svg>