<?xml version="1.0" encoding="UTF-8" standalone="no"?>
<!DOCTYPE svg PUBLIC "-//W3C//DTD SVG 1.1//EN"
"http://www.w3.org/Graphics/SVG/1.1/DTD/svg11.dtd">
<svg viewBox="0 0 931 1096" version="1.1" xmlns="http://www.w3.org/2000/svg" xmlns:xlink="http://www.w3.org/1999/xlink">
<defs>
<clipPath id="c0_284"><path d="M599.4,619.9V593.8h44.5v26.1Z"/></clipPath>
<clipPath id="c1_284"><path d="M62.7,842.2V724.8H398.5V842.2Z"/></clipPath>
<style type="text/css"><![CDATA[
.g0_284{
fill: none;
stroke: #00AEEF;
stroke-width: 0.763;
stroke-miterlimit: 10;
}
.g1_284{
fill: none;
stroke: #241F1F;
stroke-width: 0.412;
stroke-miterlimit: 10;
}
.g2_284{
fill: none;
stroke: #241F1F;
stroke-width: 0.687;
stroke-miterlimit: 10;
}
.g3_284{
fill: none;
stroke: #241F1F;
stroke-width: 0.481;
stroke-miterlimit: 10;
}
.g4_284{
fill: none;
stroke: #EE008C;
stroke-width: 0.763;
stroke-linejoin: round;
}
.g5_284{
fill: none;
stroke: #89898B;
stroke-width: 0.381;
stroke-miterlimit: 3;
}
.g6_284{
fill: none;
stroke: #241F1F;
stroke-width: 0.611;
stroke-miterlimit: 3;
}
.g7_284{
fill: #241F1F;
}
.g8_284{
fill: #FFF;
}
.g9_284{
fill: #FFDEB8;
}
.ga_284{
fill: none;
stroke: #F9951B;
stroke-width: 0.916;
stroke-linejoin: round;
}
.gb_284{
fill: none;
stroke: #F9951B;
stroke-width: 0.916;
}
]]></style>
</defs>
<path d="M53.5,119.8h770M443.1,467.5H823.5" class="g0_284"/>
<path d="M698.6,448h4.9" class="g1_284"/>
<path d="M710.5,442h24.3M485.5,573.4h42.4" class="g2_284"/>
<path clip-path="url(#c0_284)" d="M636,594.2h8.3" class="g2_284"/>
<path d="M485.5,633h42.4M733.8,795.1h9" class="g2_284"/>
<path d="M523.4,953.7h5.5" class="g3_284"/>
<path d="M53.5,666.4H433.9M53.5,854H433.9" class="g0_284"/>
<path d="M182.2,239c68.3,33.6,142.9,78.6,181.8,130.2M144,239c94.8,43.5,220,126.4,220,220M329.9,239c7.7,3,26,11.9,34.1,17.4M293.3,239c13.7,6.3,55.7,28.2,70.7,39M255.8,239c30.1,14,75.7,38.4,108.2,62.8M219.7,239c53.6,26.3,104.6,56.5,144.3,91.1M144,257.7C223.6,297,327.4,374.9,327.4,459M144,278.7C208.4,313.8,290.7,385.6,290.7,459M144,303.1c49.2,31,110,91.3,110,155.9M144,332.2c34,26.7,73.4,75.6,73.4,126.8M144,369.6c18.8,22.5,36.7,53.8,36.7,89.4" class="g4_284"/>
<path d="M364,239H144m220,73.3H144m220,73.3H144M364,459V239M290.7,459V239M217.4,459V239" class="g5_284"/>
<path d="M125.4,459h253" class="g6_284"/>
<path fill-rule="evenodd" d="M378.4,459l-1.6,-2.5l6.5,2.5l-6.5,2.4Z" class="g7_284"/>
<path d="M144,477.3V224.6" class="g6_284"/>
<path fill-rule="evenodd" d="M144,224.6l-2.4,1.6l2.4,-6.5l2.5,6.5Z" class="g7_284"/>
<path d="M161.4,413.6h12.7V397.9H161.4v15.7Z" class="g8_284"/>
<path d="M180.2,384.8H193V369H180.2v15.8Z" class="g8_284"/>
<path d="M202.8,366.9h12.8V351.1H202.8v15.8Z" class="g8_284"/>
<path d="M225.1,349h12.7V333.2H225.1V349Z" class="g8_284"/>
<path d="M245.5,336.8h12.7V321H245.5v15.8Z" class="g8_284"/>
<path d="M305.4,298.6h12.7V282.8H305.4v15.8Z" class="g8_284"/>
<path d="M320.3,285.3H333V269.5H320.3v15.8Z" class="g8_284"/>
<path d="M334.5,270h15.8V254.2H334.5V270Z" class="g8_284"/>
<path d="M292.6,310.8h10.5V295H292.6v15.8Z" class="g8_284"/>
<path d="M269.8,327.1h12.8V312.8H269.8v14.3Z" class="g8_284"/>
<path d="M125,626.7h18.7" class="g1_284"/>
<path d="M261.5,816.1L319.6,758l58,58.1Z" class="g9_284"/>
<path d="M261.5,816.1L319.6,758l58,58.1H261.5Z" class="ga_284"/>
<path d="M77.8,816c0,-32.5,26.3,-58.8,58.8,-58.8c32.4,0,58.8,26.3,58.8,58.8Z" class="g9_284"/>
<path d="M107.2,816c0,-16.3,13.2,-29.4,29.4,-29.4c16.2,0,29.4,13.1,29.4,29.4Z" class="g8_284"/>
<path d="M62.7,816.1h148" class="g6_284"/>
<path fill-rule="evenodd" d="M210.7,816.1l-1.6,-2.5l6.5,2.5l-6.5,2.4Z" class="g7_284"/>
<path d="M107.2,816c0,-16.3,13.2,-29.4,29.4,-29.4c16.2,0,29.4,13.1,29.4,29.4m-88.2,0c0,-32.5,26.3,-58.8,58.8,-58.8c32.4,0,58.8,26.3,58.8,58.8" class="gb_284"/>
<path d="M136.7,842.2V735.9" class="g6_284"/>
<path fill-rule="evenodd" d="M136.7,735.9l-2.5,1.7l2.5,-6.5l2.4,6.5Z" class="g7_284"/>
<path d="M319.6,842.2V735.9" class="g6_284"/>
<path fill-rule="evenodd" d="M319.6,735.9l-2.5,1.7l2.5,-6.5l2.4,6.5Z" class="g7_284"/>
<path d="M245.5,816.1H393.6" class="g6_284"/>
<path clip-path="url(#c1_284)" fill-rule="evenodd" d="M393.6,816.1l-1.7,-2.5l6.6,2.5l-6.6,2.4Z" class="g7_284"/>
<path d="M332.2,870.7h9" class="g2_284"/>
</svg>