<?xml version="1.0" encoding="UTF-8" standalone="no"?>
<!DOCTYPE svg PUBLIC "-//W3C//DTD SVG 1.1//EN"
"http://www.w3.org/Graphics/SVG/1.1/DTD/svg11.dtd">
<svg viewBox="0 0 907 1045" version="1.1" xmlns="http://www.w3.org/2000/svg" xmlns:xlink="http://www.w3.org/1999/xlink">
<defs>
<clipPath id="c0_206"><path d="M91.3,193.9V105.4H246v88.5Z"/></clipPath>
<clipPath id="c1_206"><path d="M139.5,750.8V353.3H769.6V750.8Z"/></clipPath>
<clipPath id="c2_206"><path d="M-2.6,1047.7V-2.6H910.2V1047.7Z"/></clipPath>
<style type="text/css"><![CDATA[
.g0_206{
fill: #5E5E5E;
}
.g1_206{
fill: #FFFFFF;
}
.g2_206{
fill: none;
stroke: #5E5E5E;
stroke-width: 1.165;
stroke-linecap: butt;
stroke-linejoin: miter;
}
.g3_206{
fill: none;
stroke: #5E5E5E;
stroke-width: 1.164;
stroke-linecap: butt;
stroke-linejoin: miter;
}
.g4_206{
fill: none;
stroke: #000000;
stroke-width: 0.763;
stroke-linecap: butt;
stroke-linejoin: miter;
stroke-miterlimit: 4;
}
.g5_206{
fill: none;
stroke: #FFFFFF;
stroke-width: 1.909;
stroke-linecap: butt;
stroke-linejoin: miter;
}
.g6_206{
fill: none;
stroke: #000000;
stroke-width: 0.381;
stroke-linecap: butt;
stroke-linejoin: miter;
}
]]></style>
</defs>
<image clip-path="url(#c0_206)" preserveAspectRatio="none" x="91" y="72" width="155" height="154" xlink:href="img/1.jpg"/>
<g clip-path="url(#c1_206)">
<path d="M161.6,353.3h24.5v23.8H161.6Z" class="g0_206"/>
<path d="M184.9,353.3h24.5v23.8H184.9Z" class="g0_206"/>
<path d="M208.2,353.3h24.5v23.8H208.2Z" class="g0_206"/>
<path d="M231.5,353.3H256v23.8H231.5Z" class="g0_206"/>
<path d="M254.8,353.3h24.5v23.8H254.8Z" class="g0_206"/>
<path d="M278.1,353.3h23.3v22.6H278.1Z" class="g1_206"/>
</g>
<path d="M278.7,353.8H302v22.7H278.7Z" class="g2_206"/>
<path clip-path="url(#c1_206)" d="M301.4,353.3h23.4v22.6H301.4Z" class="g1_206"/>
<path d="M302,353.8h23.3v22.7H302Z" class="g2_206"/>
<path clip-path="url(#c1_206)" d="M324.8,353.3h23.3v22.6H324.8Z" class="g1_206"/>
<path d="M325.3,353.8h23.3v22.7H325.3Z" class="g2_206"/>
<path clip-path="url(#c1_206)" d="M348.1,353.3h23.3v22.6H348.1Z" class="g1_206"/>
<path d="M348.6,353.8h23.3v22.7H348.6Z" class="g2_206"/>
<path d="M371.3,353.3h23.4v22.6H371.3Z" class="g1_206"/>
<path d="M371.9,353.8h23.3v22.7H371.9Z" class="g2_206"/>
<path d="M394.7,353.3H418v22.6H394.7Z" class="g1_206"/>
<path d="M395.2,353.8h23.3v22.7H395.2Z" class="g2_206"/>
<path clip-path="url(#c1_206)" d="M418,353.2h23.3v22.7H418Z" class="g1_206"/>
<path d="M418.5,353.8h23.3v22.7H418.5Z" class="g2_206"/>
<path clip-path="url(#c1_206)" d="M441.3,353.2h23.3v22.7H441.3Z" class="g1_206"/>
<path d="M441.8,353.8h23.4v22.7H441.8Z" class="g2_206"/>
<path clip-path="url(#c1_206)" d="M464.6,353.2h23.3v22.7H464.6Z" class="g1_206"/>
<path d="M465.2,353.8h23.3v22.7H465.2Z" class="g2_206"/>
<path clip-path="url(#c1_206)" d="M487.9,353.2h23.3v22.7H487.9Z" class="g1_206"/>
<path d="M488.5,353.8h23.3v22.7H488.5Z" class="g2_206"/>
<path clip-path="url(#c1_206)" d="M511.2,353.2h23.3v22.7H511.2Z" class="g1_206"/>
<path d="M511.8,353.8h23.3v22.7H511.8Z" class="g2_206"/>
<path clip-path="url(#c1_206)" d="M534.5,353.2h23.3v22.7H534.5Z" class="g1_206"/>
<path d="M535.1,353.8h23.3v22.7H535.1Z" class="g2_206"/>
<path clip-path="url(#c1_206)" d="M557.8,353.2h23.3v22.7H557.8Z" class="g1_206"/>
<path d="M558.4,353.8h23.3v22.7H558.4Z" class="g2_206"/>
<path clip-path="url(#c1_206)" d="M581.1,353.2h23.3v22.7H581.1Z" class="g1_206"/>
<path d="M581.7,353.8H605v22.7H581.7Z" class="g2_206"/>
<path clip-path="url(#c1_206)" d="M604.4,353.2h23.3v22.7H604.4Z" class="g1_206"/>
<path d="M605,353.8h23.3v22.7H605Z" class="g2_206"/>
<g clip-path="url(#c1_206)">
<path d="M627.7,353.2h24.5V377H627.7Z" class="g0_206"/>
<path d="M651,353.2h24.5V377H651Z" class="g0_206"/>
<path d="M674.3,353.2h24.5V377H674.3Z" class="g0_206"/>
<path d="M697.6,353.2h24.5V377H697.6Z" class="g0_206"/>
<path d="M720.9,353.2h24.5V377H720.9Z" class="g0_206"/>
</g>
<path d="M161.6,375.9h24.5v23.8H161.6Z" class="g0_206"/>
<path d="M184.9,375.9h24.5v23.8H184.9Z" class="g0_206"/>
<path d="M208.2,375.9h24.5v23.8H208.2Z" class="g0_206"/>
<path d="M231.5,375.9H256v23.8H231.5Z" class="g0_206"/>
<path d="M254.8,375.9h24.5v23.8H254.8Z" class="g0_206"/>
<path d="M278.1,375.9h24.5v23.8H278.1Z" class="g0_206"/>
<path d="M301.4,375.9h23.3v22.6H301.4Z" class="g1_206"/>
<path d="M302,376.5h23.3v22.6H302Z" class="g2_206"/>
<path d="M324.7,375.9h24.5v23.8H324.7Z" class="g0_206"/>
<path d="M348,375.9h24.5v23.8H348Z" class="g0_206"/>
<path d="M371.3,375.9h24.5v23.8H371.3Z" class="g0_206"/>
<path d="M394.7,375.9h24.4v23.8H394.7Z" class="g0_206"/>
<path d="M418,375.9h24.4v23.8H418Z" class="g0_206"/>
<path d="M441.3,375.9h24.4v23.8H441.3Z" class="g0_206"/>
<path d="M464.6,375.9H489v23.8H464.6Z" class="g0_206"/>
<path d="M487.9,375.9h24.4v23.8H487.9Z" class="g0_206"/>
<path d="M511.2,375.9h24.5v23.8H511.2Z" class="g0_206"/>
<path d="M534.5,375.9H559v23.8H534.5Z" class="g0_206"/>
<path d="M557.8,375.9h24.5v23.8H557.8Z" class="g0_206"/>
<path d="M581.1,375.9h24.5v23.8H581.1Z" class="g0_206"/>
<path d="M604.4,375.9h24.5v23.8H604.4Z" class="g0_206"/>
<path d="M627.7,375.9H651v22.6H627.7Z" class="g1_206"/>
<path d="M628.3,376.5h23.3v22.6H628.3Z" class="g2_206"/>
<path d="M651,375.9h24.5v23.8H651Z" class="g0_206"/>
<path d="M674.3,375.9h24.5v23.8H674.3Z" class="g0_206"/>
<path d="M697.6,375.9h24.5v23.8H697.6Z" class="g0_206"/>
<path d="M721,375.9h24.4v23.8H721Z" class="g0_206"/>
<path d="M161.6,398.5h24.5v23.8H161.6Z" class="g0_206"/>
<path d="M184.9,398.5h24.5v23.8H184.9Z" class="g0_206"/>
<path d="M208.2,398.5h24.5v23.8H208.2Z" class="g0_206"/>
<path d="M231.5,398.5H256v23.8H231.5Z" class="g0_206"/>
<path d="M254.8,398.5h24.5v23.8H254.8Z" class="g0_206"/>
<path d="M278.1,398.5h24.5v23.8H278.1Z" class="g0_206"/>
<path d="M301.4,398.5h23.3v22.7H301.4Z" class="g1_206"/>
<path d="M302,399.1h23.3v22.7H302Z" class="g2_206"/>
<path d="M324.7,398.5h24.5v23.8H324.7Z" class="g0_206"/>
<path d="M348,398.5h24.5v23.8H348Z" class="g0_206"/>
<path d="M371.3,398.5h24.5v23.8H371.3Z" class="g0_206"/>
<path d="M394.7,398.5h24.4v23.8H394.7Z" class="g0_206"/>
<path d="M418,398.5h24.4v23.8H418Z" class="g0_206"/>
<path d="M441.3,398.5h24.4v23.8H441.3Z" class="g0_206"/>
<path d="M464.6,398.5H489v23.8H464.6Z" class="g0_206"/>
<path d="M487.9,398.5h24.4v23.8H487.9Z" class="g0_206"/>
<path d="M511.2,398.5h23.3v22.7H511.2Z" class="g1_206"/>
<path d="M511.8,399.1h23.3v22.7H511.8Z" class="g2_206"/>
<path d="M534.5,398.5h23.3v22.7H534.5Z" class="g1_206"/>
<path d="M535.1,399.1h23.3v22.7H535.1Z" class="g2_206"/>
<path d="M557.8,398.5h23.3v22.7H557.8Z" class="g1_206"/>
<path d="M558.4,399.1h23.3v22.7H558.4Z" class="g2_206"/>
<path d="M581.1,398.5h23.3v22.7H581.1Z" class="g1_206"/>
<path d="M581.7,399.1H605v22.7H581.7Z" class="g2_206"/>
<path d="M604.4,398.5h23.3v22.7H604.4Z" class="g1_206"/>
<path d="M605,399.1h23.3v22.7H605Z" class="g2_206"/>
<path d="M627.7,398.6H651v22.6H627.7Z" class="g1_206"/>
<path d="M628.3,399.1h23.3v22.7H628.3Z" class="g2_206"/>
<path d="M651,398.6h23.3v22.6H651Z" class="g1_206"/>
<path d="M651.6,399.1h23.3v22.7H651.6Z" class="g2_206"/>
<path d="M674.3,398.6h23.3v22.6H674.3Z" class="g1_206"/>
<path d="M674.9,399.1h23.3v22.7H674.9Z" class="g2_206"/>
<path d="M697.6,398.5h24.5v23.8H697.6Z" class="g0_206"/>
<path d="M720.9,398.5h24.5v23.8H720.9Z" class="g0_206"/>
<path d="M161.6,421.2h24.5V445H161.6Z" class="g0_206"/>
<path d="M184.9,421.2h24.5V445H184.9Z" class="g0_206"/>
<path d="M208.2,421.2h24.5V445H208.2Z" class="g0_206"/>
<path d="M231.5,421.2H256V445H231.5Z" class="g0_206"/>
<path d="M254.8,421.2h24.5V445H254.8Z" class="g0_206"/>
<path d="M278.1,421.2h24.5V445H278.1Z" class="g0_206"/>
<path d="M301.4,421.2h23.3v22.6H301.4Z" class="g1_206"/>
<path d="M302,421.8h23.3v22.6H302Z" class="g2_206"/>
<path d="M324.7,421.2h24.5V445H324.7Z" class="g0_206"/>
<path d="M348,421.2h24.5V445H348Z" class="g0_206"/>
<path d="M371.3,421.2h24.5V445H371.3Z" class="g0_206"/>
<path d="M394.6,421.2h24.5V445H394.6Z" class="g0_206"/>
<path d="M417.9,421.2h24.5V445H417.9Z" class="g0_206"/>
<path d="M441.2,421.2h24.5V445H441.2Z" class="g0_206"/>
<path d="M464.5,421.2H489V445H464.5Z" class="g0_206"/>
<path d="M487.8,421.2h24.5V445H487.8Z" class="g0_206"/>
<path d="M511.1,421.2h24.5V445H511.1Z" class="g0_206"/>
<path d="M534.5,421.2h24.4V445H534.5Z" class="g0_206"/>
<path d="M557.8,421.2h24.4V445H557.8Z" class="g0_206"/>
<path d="M581.1,421.2h24.4V445H581.1Z" class="g0_206"/>
<path d="M604.4,421.2h24.4V445H604.4Z" class="g0_206"/>
<path d="M627.7,421.2H651v22.7H627.7Z" class="g1_206"/>
<path d="M628.3,421.8h23.3v22.6H628.3Z" class="g2_206"/>
<path d="M651,421.2h24.4V445H651Z" class="g0_206"/>
<path d="M674.3,421.2h24.4V445H674.3Z" class="g0_206"/>
<path d="M697.6,421.2H722V445H697.6Z" class="g0_206"/>
<path d="M720.9,421.2h24.5V445H720.9Z" class="g0_206"/>
<path d="M161.6,443.9h24.5v23.7H161.6Z" class="g0_206"/>
<path d="M184.9,443.9h24.5v23.7H184.9Z" class="g0_206"/>
<path d="M208.2,443.9h23.3v22.6H208.2Z" class="g1_206"/>
<path d="M208.8,444.4h23.3v22.7H208.8Z" class="g2_206"/>
<path d="M231.5,443.9H256v23.7H231.5Z" class="g0_206"/>
<path d="M254.8,443.9h24.5v23.7H254.8Z" class="g0_206"/>
<path d="M278.1,443.9h24.5v23.7H278.1Z" class="g0_206"/>
<path d="M301.4,443.9h23.3v22.6H301.4Z" class="g1_206"/>
<path d="M302,444.4h23.3v22.7H302Z" class="g2_206"/>
<path d="M324.7,443.9H348v22.6H324.7Z" class="g1_206"/>
<path d="M325.3,444.4h23.3v22.7H325.3Z" class="g2_206"/>
<path d="M348,443.9h23.3v22.6H348Z" class="g1_206"/>
<path d="M348.6,444.4h23.3v22.7H348.6Z" class="g2_206"/>
<path d="M371.3,443.9h23.3v22.6H371.3Z" class="g1_206"/>
<path d="M371.9,444.4h23.3v22.7H371.9Z" class="g2_206"/>
<path d="M394.6,443.9h23.3v22.6H394.6Z" class="g1_206"/>
<path d="M395.2,444.4h23.3v22.7H395.2Z" class="g2_206"/>
<path d="M417.9,443.9h23.3v22.6H417.9Z" class="g1_206"/>
<path d="M418.5,444.4h23.3v22.7H418.5Z" class="g2_206"/>
<path d="M441.2,443.9h23.3v22.6H441.2Z" class="g1_206"/>
<path d="M441.8,444.4h23.3v22.7H441.8Z" class="g2_206"/>
<path d="M464.5,443.9H489v23.7H464.5Z" class="g0_206"/>
<path d="M487.8,443.9h24.5v23.7H487.8Z" class="g0_206"/>
<path d="M511.1,443.9h24.5v23.7H511.1Z" class="g0_206"/>
<path d="M534.4,443.9h23.4v22.6H534.4Z" class="g1_206"/>
<path d="M535,444.4h23.3v22.7H535Z" class="g2_206"/>
<path d="M557.8,443.9h23.3v22.6H557.8Z" class="g1_206"/>
<path d="M558.3,444.4h23.3v22.7H558.3Z" class="g2_206"/>
<path d="M581.1,443.9h23.3v22.6H581.1Z" class="g1_206"/>
<path d="M581.6,444.4h23.3v22.7H581.6Z" class="g2_206"/>
<path d="M604.4,443.9h23.3v22.6H604.4Z" class="g1_206"/>
<path d="M604.9,444.4h23.3v22.7H604.9Z" class="g2_206"/>
<path d="M627.7,443.8H651v22.7H627.7Z" class="g1_206"/>
<path d="M628.2,444.4h23.4v22.7H628.2Z" class="g2_206"/>
<path d="M651,443.8h23.3v22.7H651Z" class="g1_206"/>
<path d="M651.6,444.4h23.3v22.7H651.6Z" class="g2_206"/>
<path d="M674.3,443.8h23.3v22.7H674.3Z" class="g1_206"/>
<path d="M674.9,444.4h23.3v22.7H674.9Z" class="g2_206"/>
<path d="M697.6,443.9h23.3v22.6H697.6Z" class="g1_206"/>
<path d="M698.2,444.4h23.3v22.7H698.2Z" class="g2_206"/>
<path d="M720.9,443.8h24.5v23.8H720.9Z" class="g0_206"/>
<path d="M161.6,466.5h24.5v23.8H161.6Z" class="g0_206"/>
<path d="M184.9,466.5h24.5v23.8H184.9Z" class="g0_206"/>
<path d="M208.2,466.5h23.3v22.6H208.2Z" class="g1_206"/>
<path d="M208.8,467.1h23.3v22.6H208.8Z" class="g2_206"/>
<path d="M231.5,466.5H256v23.8H231.5Z" class="g0_206"/>
<path d="M254.8,466.5h24.5v23.8H254.8Z" class="g0_206"/>
<path d="M278.1,466.5h24.5v23.8H278.1Z" class="g0_206"/>
<path d="M301.4,466.5h23.3v22.6H301.4Z" class="g1_206"/>
<path d="M302,467.1h23.3v22.6H302Z" class="g2_206"/>
<path d="M324.7,466.5h24.5v23.8H324.7Z" class="g0_206"/>
<path d="M348,466.5h24.5v23.8H348Z" class="g0_206"/>
<path d="M371.3,466.5h24.5v23.8H371.3Z" class="g0_206"/>
<path d="M394.6,466.5h24.5v23.8H394.6Z" class="g0_206"/>
<path d="M417.9,466.5h24.5v23.8H417.9Z" class="g0_206"/>
<path d="M441.2,466.5h24.5v23.8H441.2Z" class="g0_206"/>
<path d="M464.5,466.5H489v23.8H464.5Z" class="g0_206"/>
<path d="M487.8,466.5h24.5v23.8H487.8Z" class="g0_206"/>
<path d="M511.1,466.5h24.5v23.8H511.1Z" class="g0_206"/>
<path d="M534.5,466.5h24.4v23.8H534.5Z" class="g0_206"/>
<path d="M557.8,466.5h24.4v23.8H557.8Z" class="g0_206"/>
<path d="M581.1,466.5h24.4v23.8H581.1Z" class="g0_206"/>
<path d="M604.4,466.5h24.4v23.8H604.4Z" class="g0_206"/>
<path d="M627.7,466.5H651v22.6H627.7Z" class="g1_206"/>
<path d="M628.2,467.1h23.4v22.6H628.2Z" class="g2_206"/>
<path d="M651,466.5h24.4v23.8H651Z" class="g0_206"/>
<path d="M674.3,466.5h24.4v23.8H674.3Z" class="g0_206"/>
<path d="M697.6,466.5H722v23.8H697.6Z" class="g0_206"/>
<path d="M720.9,466.5h24.5v23.8H720.9Z" class="g0_206"/>
<path d="M161.6,489.1h24.5v23.8H161.6Z" class="g0_206"/>
<path d="M184.9,489.1h24.5v23.8H184.9Z" class="g0_206"/>
<path d="M208.2,489.1h23.3v22.7H208.2Z" class="g1_206"/>
<path d="M208.8,489.7h23.3v22.7H208.8Z" class="g2_206"/>
<path d="M231.5,489.1H256v23.8H231.5Z" class="g0_206"/>
<path d="M254.8,489.1h24.5v23.8H254.8Z" class="g0_206"/>
<path d="M278.1,489.1h24.5v23.8H278.1Z" class="g0_206"/>
<path d="M301.4,489.1h23.3v22.7H301.4Z" class="g1_206"/>
<path d="M302,489.7h23.3v22.7H302Z" class="g2_206"/>
<path d="M324.7,489.1H348v22.7H324.7Z" class="g1_206"/>
<path d="M325.3,489.7h23.3v22.7H325.3Z" class="g2_206"/>
<path d="M348,489.1h23.3v22.7H348Z" class="g1_206"/>
<path d="M348.6,489.7h23.3v22.7H348.6Z" class="g2_206"/>
<path d="M371.3,489.1h23.3v22.7H371.3Z" class="g1_206"/>
<path d="M371.9,489.7h23.3v22.7H371.9Z" class="g2_206"/>
<path d="M394.6,489.1h23.3v22.7H394.6Z" class="g1_206"/>
<path d="M395.2,489.7h23.3v22.6H395.2Z" class="g2_206"/>
<path d="M417.9,489.1h23.3v22.7H417.9Z" class="g1_206"/>
<path d="M418.5,489.7h23.3v22.6H418.5Z" class="g2_206"/>
<path d="M441.2,489.1h23.3v22.7H441.2Z" class="g1_206"/>
<path d="M441.8,489.7h23.3v22.6H441.8Z" class="g2_206"/>
<path d="M464.5,489.1h23.3v22.7H464.5Z" class="g1_206"/>
<path d="M465.1,489.7h23.3v22.6H465.1Z" class="g2_206"/>
<path d="M487.8,489.1h23.3v22.7H487.8Z" class="g1_206"/>
<path d="M488.4,489.7h23.3v22.6H488.4Z" class="g2_206"/>
<path d="M511.1,489.1h23.3v22.7H511.1Z" class="g1_206"/>
<path d="M511.7,489.7H535v22.6H511.7Z" class="g2_206"/>
<path d="M534.4,489.1h23.3v22.7H534.4Z" class="g1_206"/>
<path d="M535,489.7h23.3v22.6H535Z" class="g2_206"/>
<path d="M557.7,489.1H581v22.7H557.7Z" class="g1_206"/>
<path d="M558.3,489.7h23.3v22.6H558.3Z" class="g2_206"/>
<path d="M581,489.1h23.3v22.7H581Z" class="g1_206"/>
<path d="M581.6,489.7h23.3v22.6H581.6Z" class="g2_206"/>
<path d="M604.3,489.1h23.3v22.7H604.3Z" class="g1_206"/>
<path d="M604.9,489.7h23.3v22.6H604.9Z" class="g2_206"/>
<path d="M627.6,489.1h23.3v22.7H627.6Z" class="g1_206"/>
<path d="M628.2,489.7h23.3v22.6H628.2Z" class="g2_206"/>
<path d="M650.9,489.1h24.5v23.8H650.9Z" class="g0_206"/>
<path d="M674.2,489.1h24.5v23.8H674.2Z" class="g0_206"/>
<path d="M697.5,489.1H722v23.8H697.5Z" class="g0_206"/>
<path d="M720.9,489.1h24.4v23.8H720.9Z" class="g0_206"/>
<path d="M161.6,511.8H186v23.8H161.6Z" class="g0_206"/>
<path d="M184.9,511.8h24.4v23.8H184.9Z" class="g0_206"/>
<path d="M208.2,511.8h23.3v22.6H208.2Z" class="g1_206"/>
<path d="M208.8,512.3h23.3V535H208.8Z" class="g2_206"/>
<path d="M231.5,511.8H256v23.8H231.5Z" class="g0_206"/>
<path d="M254.8,511.8h24.5v23.8H254.8Z" class="g0_206"/>
<path d="M278.1,511.8h24.5v23.8H278.1Z" class="g0_206"/>
<path d="M301.4,511.8h23.3v22.6H301.4Z" class="g1_206"/>
<path d="M302,512.3h23.3V535H302Z" class="g2_206"/>
<path d="M324.7,511.8h24.5v23.8H324.7Z" class="g0_206"/>
<path d="M348,511.8h24.5v23.8H348Z" class="g0_206"/>
<path d="M371.3,511.8h24.5v23.8H371.3Z" class="g0_206"/>
<path d="M394.6,511.8h24.5v23.8H394.6Z" class="g0_206"/>
<path d="M417.9,511.8h24.5v23.8H417.9Z" class="g0_206"/>
<path d="M441.2,511.8h24.5v23.8H441.2Z" class="g0_206"/>
<path d="M464.5,511.8H489v23.8H464.5Z" class="g0_206"/>
<path d="M487.8,511.8h24.5v23.8H487.8Z" class="g0_206"/>
<path d="M511.1,511.8h24.5v23.8H511.1Z" class="g0_206"/>
<path d="M534.4,511.8h24.5v23.8H534.4Z" class="g0_206"/>
<path d="M557.7,511.8h24.5v23.8H557.7Z" class="g0_206"/>
<path d="M581,511.8h24.5v23.8H581Z" class="g0_206"/>
<path d="M604.3,511.8h24.5v23.8H604.3Z" class="g0_206"/>
<path d="M627.6,511.8h24.5v23.8H627.6Z" class="g0_206"/>
<path d="M650.9,511.8h24.5v23.8H650.9Z" class="g0_206"/>
<path d="M674.2,511.8h24.5v23.8H674.2Z" class="g0_206"/>
<path d="M697.5,511.8H722v23.8H697.5Z" class="g0_206"/>
<path d="M720.9,511.8h24.4v23.8H720.9Z" class="g0_206"/>
<path d="M161.6,534.4H186v23.8H161.6Z" class="g0_206"/>
<path d="M184.9,534.4h24.4v23.8H184.9Z" class="g0_206"/>
<path d="M208.2,534.4h23.3v22.7H208.2Z" class="g1_206"/>
<path d="M208.8,535h23.3v22.6H208.8Z" class="g2_206"/>
<path d="M231.5,534.4h24.4v23.8H231.5Z" class="g0_206"/>
<path d="M254.8,534.4h24.5v23.8H254.8Z" class="g0_206"/>
<path d="M278.1,534.4h23.3v22.7H278.1Z" class="g1_206"/>
<path d="M278.7,535H302v22.6H278.7Z" class="g2_206"/>
<path d="M301.4,534.4h23.3v22.7H301.4Z" class="g1_206"/>
<path d="M302,535h23.3v22.6H302Z" class="g2_206"/>
<path d="M324.7,534.4H348v22.7H324.7Z" class="g1_206"/>
<path d="M325.3,535h23.3v22.6H325.3Z" class="g2_206"/>
<path d="M348,534.4h23.3v22.7H348Z" class="g1_206"/>
<path d="M348.6,535h23.3v22.6H348.6Z" class="g2_206"/>
<path d="M371.3,534.4h23.3v22.7H371.3Z" class="g1_206"/>
<path d="M371.9,535h23.3v22.6H371.9Z" class="g2_206"/>
<path d="M394.6,534.4h23.3v22.7H394.6Z" class="g1_206"/>
<path d="M395.2,535h23.3v22.6H395.2Z" class="g2_206"/>
<path d="M417.9,534.4h23.3v22.7H417.9Z" class="g1_206"/>
<path d="M418.5,535h23.3v22.6H418.5Z" class="g2_206"/>
<path d="M441.2,534.4h23.3v22.7H441.2Z" class="g1_206"/>
<path d="M441.8,535h23.3v22.6H441.8Z" class="g2_206"/>
<path d="M464.5,534.4h23.3v22.7H464.5Z" class="g1_206"/>
<path d="M465.1,535h23.3v22.6H465.1Z" class="g2_206"/>
<path d="M487.8,534.4h23.3v22.7H487.8Z" class="g1_206"/>
<path d="M488.4,535h23.3v22.6H488.4Z" class="g2_206"/>
<path d="M511.1,534.4h23.3v22.7H511.1Z" class="g1_206"/>
<path d="M511.7,535H535v22.6H511.7Z" class="g2_206"/>
<path d="M534.4,534.4h23.3v22.7H534.4Z" class="g1_206"/>
<path d="M535,535h23.3v22.6H535Z" class="g2_206"/>
<path d="M557.7,534.4H581v22.7H557.7Z" class="g1_206"/>
<path d="M558.3,535h23.3v22.6H558.3Z" class="g2_206"/>
<path d="M581,534.4h23.3v22.7H581Z" class="g1_206"/>
<path d="M581.6,535h23.3v22.6H581.6Z" class="g2_206"/>
<path d="M604.3,534.4h24.4v23.8H604.3Z" class="g0_206"/>
<path d="M627.6,534.4H652v23.8H627.6Z" class="g0_206"/>
<path d="M650.9,534.4h24.4v23.8H650.9Z" class="g0_206"/>
<path d="M674.2,534.4h24.4v23.8H674.2Z" class="g0_206"/>
<path d="M697.5,534.4h24.4v23.8H697.5Z" class="g0_206"/>
<path d="M720.8,534.4h24.4v23.8H720.8Z" class="g0_206"/>
<path d="M161.6,557.1H186v23.8H161.6Z" class="g0_206"/>
<path d="M184.9,557.1h24.4v23.8H184.9Z" class="g0_206"/>
<path d="M208.2,557.1h23.3v22.6H208.2Z" class="g1_206"/>
<path d="M208.7,557.6H232v22.7H208.7Z" class="g2_206"/>
<path d="M231.5,557.1h24.4v23.8H231.5Z" class="g0_206"/>
<path d="M254.8,557.1h24.4v23.8H254.8Z" class="g0_206"/>
<path d="M278.1,557.1h24.4v23.8H278.1Z" class="g0_206"/>
<path d="M301.4,557.1h23.3v22.6H301.4Z" class="g1_206"/>
<path d="M301.9,557.6h23.3v22.7H301.9Z" class="g2_206"/>
<path d="M324.7,557.1h24.4v23.8H324.7Z" class="g0_206"/>
<path d="M348,557.1h24.4v23.8H348Z" class="g0_206"/>
<path d="M371.3,557.1h24.4v23.8H371.3Z" class="g0_206"/>
<path d="M394.6,557.1H419v23.8H394.6Z" class="g0_206"/>
<path d="M417.9,557.1h24.4v23.8H417.9Z" class="g0_206"/>
<path d="M441.2,557.1h24.4v23.8H441.2Z" class="g0_206"/>
<path d="M464.5,557.1h24.4v23.8H464.5Z" class="g0_206"/>
<path d="M487.8,557.1h24.4v23.8H487.8Z" class="g0_206"/>
<path d="M511.1,557.1h24.4v23.8H511.1Z" class="g0_206"/>
<path d="M534.4,557.1h24.4v23.8H534.4Z" class="g0_206"/>
<path d="M557.7,557.1h24.4v23.8H557.7Z" class="g0_206"/>
<path d="M581,557.1h23.3v22.6H581Z" class="g1_206"/>
<path d="M581.6,557.6h23.3v22.7H581.6Z" class="g2_206"/>
<path d="M604.3,557.1h24.4v23.8H604.3Z" class="g0_206"/>
<path d="M627.6,557.1H652v23.8H627.6Z" class="g0_206"/>
<path d="M650.9,557.1h24.4v23.8H650.9Z" class="g0_206"/>
<path d="M674.2,557.1h24.4v23.8H674.2Z" class="g0_206"/>
<path d="M697.5,557.1h24.4v23.8H697.5Z" class="g0_206"/>
<path d="M720.8,557.1h24.4v23.8H720.8Z" class="g0_206"/>
<path d="M161.6,579.7H186v23.8H161.6Z" class="g0_206"/>
<path d="M184.9,579.7h24.4v23.8H184.9Z" class="g0_206"/>
<path d="M208.2,579.7h23.3v22.7H208.2Z" class="g1_206"/>
<path d="M208.7,580.3H232V603H208.7Z" class="g2_206"/>
<path d="M231.5,579.7h23.3v22.7H231.5Z" class="g1_206"/>
<path d="M232,580.3h23.3v22.6H232Z" class="g2_206"/>
<path d="M254.8,579.7h23.3v22.7H254.8Z" class="g1_206"/>
<path d="M255.3,580.3h23.3v22.6H255.3Z" class="g2_206"/>
<path d="M278.1,579.7h23.3v22.7H278.1Z" class="g1_206"/>
<path d="M278.6,580.3h23.3V603H278.6Z" class="g2_206"/>
<path d="M301.4,579.7h23.3v22.7H301.4Z" class="g1_206"/>
<path d="M301.9,580.3h23.3V603H301.9Z" class="g2_206"/>
<path d="M324.7,579.7H348v22.7H324.7Z" class="g1_206"/>
<path d="M325.2,580.3h23.3V603H325.2Z" class="g2_206"/>
<path d="M348,579.7h23.3v22.7H348Z" class="g1_206"/>
<path d="M348.5,580.3h23.3V603H348.5Z" class="g2_206"/>
<path d="M371.3,579.7h23.3v22.7H371.3Z" class="g1_206"/>
<path d="M371.8,580.3h23.3V603H371.8Z" class="g2_206"/>
<path d="M394.6,579.7h23.3v22.7H394.6Z" class="g1_206"/>
<path d="M395.1,580.3h23.3V603H395.1Z" class="g2_206"/>
<path d="M417.9,579.7h23.3v22.7H417.9Z" class="g1_206"/>
<path d="M418.5,580.3h23.3V603H418.5Z" class="g2_206"/>
<path d="M441.2,579.7h23.3v22.7H441.2Z" class="g1_206"/>
<path d="M441.8,580.3h23.3V603H441.8Z" class="g2_206"/>
<path d="M464.5,579.7h23.3v22.7H464.5Z" class="g1_206"/>
<path d="M465.1,580.3h23.3V603H465.1Z" class="g2_206"/>
<path d="M487.8,579.7h23.3v22.7H487.8Z" class="g1_206"/>
<path d="M488.4,580.3h23.3V603H488.4Z" class="g2_206"/>
<path d="M511.1,579.7h24.4v23.8H511.1Z" class="g0_206"/>
<path d="M534.4,579.7h24.4v23.8H534.4Z" class="g0_206"/>
<path d="M557.7,579.7h24.4v23.8H557.7Z" class="g0_206"/>
<path d="M581,579.7h23.3v22.7H581Z" class="g1_206"/>
<path d="M581.6,580.3h23.3V603H581.6Z" class="g2_206"/>
<path d="M604.3,579.7h24.4v23.8H604.3Z" class="g0_206"/>
<path d="M627.6,579.7H652v23.8H627.6Z" class="g0_206"/>
<path d="M650.9,579.7h24.4v23.8H650.9Z" class="g0_206"/>
<path d="M674.2,579.7h24.4v23.8H674.2Z" class="g0_206"/>
<path d="M697.5,579.7h24.4v23.8H697.5Z" class="g0_206"/>
<path d="M720.8,579.7h24.4v23.8H720.8Z" class="g0_206"/>
<path d="M161.6,602.4H186v23.8H161.6Z" class="g0_206"/>
<path d="M184.9,602.4h24.4v23.8H184.9Z" class="g0_206"/>
<path d="M208.2,602.4h23.3V625H208.2Z" class="g1_206"/>
<path d="M208.7,603H232v22.6H208.7Z" class="g2_206"/>
<path d="M231.5,602.4h24.4v23.8H231.5Z" class="g0_206"/>
<path d="M254.8,602.4h24.4v23.8H254.8Z" class="g0_206"/>
<path d="M278.1,602.4h24.4v23.8H278.1Z" class="g0_206"/>
<path d="M301.4,602.4h23.3V625H301.4Z" class="g1_206"/>
<path d="M301.9,603h23.3v22.6H301.9Z" class="g2_206"/>
<path d="M324.7,602.4h24.4v23.8H324.7Z" class="g0_206"/>
<path d="M348,602.4h24.4v23.8H348Z" class="g0_206"/>
<path d="M371.3,602.4h24.4v23.8H371.3Z" class="g0_206"/>
<path d="M394.6,602.4H419v23.8H394.6Z" class="g0_206"/>
<path d="M417.9,602.4h24.4v23.8H417.9Z" class="g0_206"/>
<path d="M441.2,602.4h24.4v23.8H441.2Z" class="g0_206"/>
<path d="M464.5,602.4h24.4v23.8H464.5Z" class="g0_206"/>
<path d="M487.8,602.4h24.4v23.8H487.8Z" class="g0_206"/>
<path d="M511.1,602.4h24.4v23.8H511.1Z" class="g0_206"/>
<path d="M534.4,602.4h24.4v23.8H534.4Z" class="g0_206"/>
<path d="M557.7,602.4h24.4v23.8H557.7Z" class="g0_206"/>
<path d="M581,602.4h23.3v22.7H581Z" class="g1_206"/>
<path d="M581.5,603h23.3v22.6H581.5Z" class="g2_206"/>
<path d="M604.3,602.4h24.4v23.8H604.3Z" class="g0_206"/>
<path d="M627.6,602.4H652v23.8H627.6Z" class="g0_206"/>
<path d="M650.9,602.4h24.4v23.8H650.9Z" class="g0_206"/>
<path d="M674.2,602.4h24.4v23.8H674.2Z" class="g0_206"/>
<path d="M697.5,602.4h24.4v23.8H697.5Z" class="g0_206"/>
<path d="M720.8,602.4h24.4v23.8H720.8Z" class="g0_206"/>
<path d="M161.6,625H186v23.8H161.6Z" class="g0_206"/>
<path d="M184.9,625h24.4v23.8H184.9Z" class="g0_206"/>
<path d="M208.2,625h23.3v22.7H208.2Z" class="g1_206"/>
<path d="M208.7,625.6H232v22.7H208.7Z" class="g2_206"/>
<path d="M231.4,625h24.5v23.8H231.4Z" class="g0_206"/>
<path d="M254.7,625H278v22.7H254.7Z" class="g1_206"/>
<path d="M255.3,625.6h23.3v22.7H255.3Z" class="g3_206"/>
<path d="M278,625h23.3v22.7H278Z" class="g1_206"/>
<path d="M278.6,625.6h23.3v22.7H278.6Z" class="g3_206"/>
<path d="M301.3,625h23.3v22.7H301.3Z" class="g1_206"/>
<path d="M301.9,625.6h23.3v22.7H301.9Z" class="g3_206"/>
<path d="M324.6,625h23.3v22.7H324.6Z" class="g1_206"/>
<path d="M325.2,625.6h23.3v22.7H325.2Z" class="g3_206"/>
<path d="M347.9,625h23.3v22.7H347.9Z" class="g1_206"/>
<path d="M348.5,625.6h23.3v22.7H348.5Z" class="g3_206"/>
<path d="M371.2,625h23.3v22.7H371.2Z" class="g1_206"/>
<path d="M371.8,625.6h23.3v22.7H371.8Z" class="g3_206"/>
<path d="M394.5,625h23.3v22.7H394.5Z" class="g1_206"/>
<path d="M395.1,625.6h23.3v22.7H395.1Z" class="g3_206"/>
<path d="M417.8,625h23.3v22.7H417.8Z" class="g1_206"/>
<path d="M418.4,625.6h23.3v22.7H418.4Z" class="g3_206"/>
<path d="M441.1,625h23.3v22.7H441.1Z" class="g1_206"/>
<path d="M441.7,625.6H465v22.7H441.7Z" class="g3_206"/>
<path d="M464.4,625h23.3v22.7H464.4Z" class="g1_206"/>
<path d="M465,625.6h23.3v22.6H465Z" class="g3_206"/>
<path d="M487.7,625H511v22.7H487.7Z" class="g1_206"/>
<path d="M488.3,625.6h23.3v22.6H488.3Z" class="g3_206"/>
<path d="M511,625h23.3v22.7H511Z" class="g1_206"/>
<path d="M511.6,625.6h23.3v22.6H511.6Z" class="g3_206"/>
<path d="M534.3,625h24.5v23.8H534.3Z" class="g0_206"/>
<path d="M557.6,625h24.5v23.8H557.6Z" class="g0_206"/>
<path d="M580.9,625h23.3v22.7H580.9Z" class="g1_206"/>
<path d="M581.5,625.6h23.3v22.6H581.5Z" class="g3_206"/>
<path d="M604.2,625h24.5v23.8H604.2Z" class="g0_206"/>
<path d="M627.5,625H652v23.8H627.5Z" class="g0_206"/>
<path d="M650.8,625h24.5v23.8H650.8Z" class="g0_206"/>
<path d="M674.1,625h24.5v23.8H674.1Z" class="g0_206"/>
<path d="M697.4,625h24.5v23.8H697.4Z" class="g0_206"/>
<path d="M720.7,625h24.5v23.8H720.7Z" class="g0_206"/>
<path d="M161.5,647.7H186v23.8H161.5Z" class="g0_206"/>
<path d="M184.8,647.7h24.5v23.8H184.8Z" class="g0_206"/>
<path d="M208.1,647.7h23.3v22.6H208.1Z" class="g1_206"/>
<path d="M208.7,648.2H232v22.7H208.7Z" class="g3_206"/>
<path d="M231.4,647.7h24.5v23.8H231.4Z" class="g0_206"/>
<path d="M254.7,647.7h24.5v23.8H254.7Z" class="g0_206"/>
<path d="M278,647.7h24.5v23.8H278Z" class="g0_206"/>
<path d="M301.3,647.7h23.3v22.6H301.3Z" class="g1_206"/>
<path d="M301.9,648.2h23.3v22.7H301.9Z" class="g3_206"/>
<path d="M324.6,647.7h24.5v23.8H324.6Z" class="g0_206"/>
<path d="M347.9,647.7h24.5v23.8H347.9Z" class="g0_206"/>
<path d="M371.2,647.7h24.5v23.8H371.2Z" class="g0_206"/>
<path d="M394.5,647.7H419v23.8H394.5Z" class="g0_206"/>
<path d="M417.8,647.7h24.5v23.8H417.8Z" class="g0_206"/>
<path d="M441.1,647.7h24.5v23.8H441.1Z" class="g0_206"/>
<path d="M464.4,647.7h24.5v23.8H464.4Z" class="g0_206"/>
<path d="M487.7,647.7h24.5v23.8H487.7Z" class="g0_206"/>
<path d="M511,647.7h24.5v23.8H511Z" class="g0_206"/>
<path d="M534.3,647.7h24.5v23.8H534.3Z" class="g0_206"/>
<path d="M557.6,647.7h24.5v23.8H557.6Z" class="g0_206"/>
<path d="M580.9,647.7h23.3v22.6H580.9Z" class="g1_206"/>
<path d="M581.5,648.2h23.3v22.7H581.5Z" class="g3_206"/>
<path d="M604.2,647.7h24.5v23.8H604.2Z" class="g0_206"/>
<path d="M627.5,647.7H652v23.8H627.5Z" class="g0_206"/>
<path d="M650.8,647.7h24.5v23.8H650.8Z" class="g0_206"/>
<path d="M674.1,647.7h24.5v23.8H674.1Z" class="g0_206"/>
<path d="M697.4,647.7h24.5v23.8H697.4Z" class="g0_206"/>
<path d="M720.7,647.7h24.5v23.8H720.7Z" class="g0_206"/>
<path d="M161.5,670.3H186v23.8H161.5Z" class="g0_206"/>
<path d="M184.8,670.3h24.5v23.8H184.8Z" class="g0_206"/>
<path d="M208.1,670.3h23.3V693H208.1Z" class="g1_206"/>
<path d="M208.7,670.9H232v22.7H208.7Z" class="g3_206"/>
<path d="M231.4,670.3h24.5v23.8H231.4Z" class="g0_206"/>
<path d="M254.7,670.3h24.5v23.8H254.7Z" class="g0_206"/>
<path d="M278,670.3h23.3V693H278Z" class="g1_206"/>
<path d="M278.6,670.9h23.3v22.7H278.6Z" class="g3_206"/>
<path d="M301.3,670.3h23.3V693H301.3Z" class="g1_206"/>
<path d="M301.9,670.9h23.3v22.7H301.9Z" class="g3_206"/>
<path d="M324.6,670.3h23.3V693H324.6Z" class="g1_206"/>
<path d="M325.2,670.9h23.3v22.7H325.2Z" class="g3_206"/>
<path d="M347.9,670.3h23.3V693H347.9Z" class="g1_206"/>
<path d="M348.5,670.9h23.3v22.7H348.5Z" class="g3_206"/>
<path d="M371.2,670.3h23.3V693H371.2Z" class="g1_206"/>
<path d="M371.8,670.9h23.3v22.7H371.8Z" class="g3_206"/>
<path d="M394.5,670.3H419v23.8H394.5Z" class="g0_206"/>
<path d="M417.8,670.3h24.5v23.8H417.8Z" class="g0_206"/>
<path d="M441.1,670.3h24.5v23.8H441.1Z" class="g0_206"/>
<path d="M464.4,670.3h24.5v23.8H464.4Z" class="g0_206"/>
<path d="M487.7,670.3h24.5v23.8H487.7Z" class="g0_206"/>
<path d="M511,670.3h23.3V693H511Z" class="g1_206"/>
<path d="M511.6,670.9h23.3v22.7H511.6Z" class="g3_206"/>
<path d="M534.3,670.3h23.3V693H534.3Z" class="g1_206"/>
<path d="M534.9,670.9h23.3v22.7H534.9Z" class="g3_206"/>
<path d="M557.6,670.3h23.3V693H557.6Z" class="g1_206"/>
<path d="M558.2,670.9h23.3v22.7H558.2Z" class="g3_206"/>
<path d="M580.9,670.3h23.3V693H580.9Z" class="g1_206"/>
<path d="M581.5,670.9h23.3v22.7H581.5Z" class="g3_206"/>
<path d="M604.2,670.3h23.3V693H604.2Z" class="g1_206"/>
<path d="M604.8,670.9h23.3v22.7H604.8Z" class="g3_206"/>
<path d="M627.5,670.3h23.3V693H627.5Z" class="g1_206"/>
<path d="M628.1,670.9h23.3v22.7H628.1Z" class="g3_206"/>
<path d="M650.8,670.3h23.3V693H650.8Z" class="g1_206"/>
<path d="M651.3,670.9h23.3v22.7H651.3Z" class="g3_206"/>
<path d="M674.1,670.3h23.2V693H674.1Z" class="g1_206"/>
<path d="M674.6,670.9h23.3v22.7H674.6Z" class="g3_206"/>
<path d="M697.3,670.3h23.3V693H697.3Z" class="g1_206"/>
<path d="M697.9,670.9h23.3v22.7H697.9Z" class="g3_206"/>
<path d="M720.6,670.3h24.5v23.8H720.6Z" class="g0_206"/>
<path d="M161.5,693H186v23.8H161.5Z" class="g0_206"/>
<path d="M184.8,693h24.5v23.8H184.8Z" class="g0_206"/>
<path d="M208.1,693h23.3v22.6H208.1Z" class="g1_206"/>
<path d="M208.7,693.6H232v22.6H208.7Z" class="g3_206"/>
<path d="M231.4,693h24.5v23.8H231.4Z" class="g0_206"/>
<path d="M254.7,693h24.5v23.8H254.7Z" class="g0_206"/>
<path d="M278,693h24.5v23.8H278Z" class="g0_206"/>
<path d="M301.3,693h23.3v22.6H301.3Z" class="g1_206"/>
<path d="M301.9,693.6h23.3v22.6H301.9Z" class="g3_206"/>
<path d="M324.6,693h24.5v23.8H324.6Z" class="g0_206"/>
<path d="M347.9,693h24.5v23.8H347.9Z" class="g0_206"/>
<path d="M371.2,693h24.5v23.8H371.2Z" class="g0_206"/>
<path d="M394.5,693H419v23.8H394.5Z" class="g0_206"/>
<path d="M417.8,693h24.4v23.8H417.8Z" class="g0_206"/>
<path d="M441.1,693h24.4v23.8H441.1Z" class="g0_206"/>
<path d="M464.4,693h24.4v23.8H464.4Z" class="g0_206"/>
<path d="M487.7,693h24.4v23.8H487.7Z" class="g0_206"/>
<path d="M511,693h24.4v23.8H511Z" class="g0_206"/>
<path d="M534.3,693h24.4v23.8H534.3Z" class="g0_206"/>
<path d="M557.6,693H582v23.8H557.6Z" class="g0_206"/>
<path d="M580.9,693h24.4v23.8H580.9Z" class="g0_206"/>
<path d="M604.2,693h24.4v23.8H604.2Z" class="g0_206"/>
<path d="M627.5,693h24.4v23.8H627.5Z" class="g0_206"/>
<path d="M650.8,693h24.4v23.8H650.8Z" class="g0_206"/>
<path d="M674.1,693h24.4v23.8H674.1Z" class="g0_206"/>
<path d="M697.3,693h24.5v23.8H697.3Z" class="g0_206"/>
<path d="M720.6,693h24.5v23.8H720.6Z" class="g0_206"/>
<path d="M161.5,715.6H186v23.8H161.5Z" class="g0_206"/>
<path d="M184.8,715.6h24.5v23.8H184.8Z" class="g0_206"/>
<path d="M208.1,715.6h23.3v22.7H208.1Z" class="g1_206"/>
<path d="M208.7,716.2H232v22.7H208.7Z" class="g3_206"/>
<path d="M231.4,715.6h24.5v23.8H231.4Z" class="g0_206"/>
<path d="M254.7,715.6h24.5v23.8H254.7Z" class="g0_206"/>
<path d="M278,715.6h23.3v22.7H278Z" class="g1_206"/>
<path d="M278.6,716.2h23.3v22.7H278.6Z" class="g3_206"/>
<path d="M301.3,715.6h23.3v22.7H301.3Z" class="g1_206"/>
<path d="M301.9,716.2h23.3v22.7H301.9Z" class="g3_206"/>
<path d="M324.6,715.6h23.3v22.7H324.6Z" class="g1_206"/>
<path d="M325.2,716.2h23.3v22.7H325.2Z" class="g3_206"/>
<path d="M347.9,715.6h23.3v22.7H347.9Z" class="g1_206"/>
<path d="M348.5,716.2h23.3v22.7H348.5Z" class="g3_206"/>
<path d="M371.2,715.6h23.3v22.7H371.2Z" class="g1_206"/>
<path d="M371.8,716.2h23.3v22.7H371.8Z" class="g3_206"/>
<path d="M394.5,715.6h23.3v22.7H394.5Z" class="g1_206"/>
<path d="M395.1,716.2h23.3v22.7H395.1Z" class="g3_206"/>
<path d="M417.8,715.6h23.3v22.7H417.8Z" class="g1_206"/>
<path d="M418.4,716.2h23.3v22.7H418.4Z" class="g3_206"/>
<path d="M441.1,715.6h23.3v22.7H441.1Z" class="g1_206"/>
<path d="M441.7,716.2H465v22.7H441.7Z" class="g3_206"/>
<path d="M464.4,715.6h23.3v22.7H464.4Z" class="g1_206"/>
<path d="M465,716.2h23.3v22.7H465Z" class="g3_206"/>
<path d="M487.7,715.7H511v22.6H487.7Z" class="g1_206"/>
<path d="M488.3,716.2h23.3v22.7H488.3Z" class="g3_206"/>
<path d="M511,715.7h23.3v22.6H511Z" class="g1_206"/>
<path d="M511.6,716.2h23.3v22.7H511.6Z" class="g3_206"/>
<path d="M534.3,715.7h24.4v23.7H534.3Z" class="g0_206"/>
<path d="M557.6,715.7H582v23.7H557.6Z" class="g0_206"/>
<path d="M580.9,715.7h24.4v23.7H580.9Z" class="g0_206"/>
<path d="M604.2,715.7h24.4v23.7H604.2Z" class="g0_206"/>
<path d="M627.5,715.7h24.4v23.7H627.5Z" class="g0_206"/>
<path d="M650.8,715.7h24.4v23.7H650.8Z" class="g0_206"/>
<path d="M674,715.7h24.5v23.7H674Z" class="g0_206"/>
<path d="M697.3,715.7h24.5v23.7H697.3Z" class="g0_206"/>
<path d="M720.6,715.7h24.5v23.7H720.6Z" class="g0_206"/>
<path d="M161.8,354.3V739.4H745.7V354.3H161.8Z" class="g4_206"/>
<g clip-path="url(#c2_206)">
<path d="M-4.5,13.7H-27.4m939.5,0H935M-4.5,1031.2H-27.4m939.5,0H935M13.7,-4.5V-27.4m0,1077v22.9m880,-1077V-27.4m0,1077v22.9" class="g5_206"/>
<path d="M-4.5,13.7H-27.4m939.5,0H935M-4.5,1031.2H-27.4m939.5,0H935M13.7,-4.5V-27.4m0,1077v22.9m880,-1077V-27.4m0,1077v22.9" class="g6_206"/>
</g>
</svg>