<?xml version="1.0" encoding="UTF-8" standalone="no"?>
<!DOCTYPE svg PUBLIC "-//W3C//DTD SVG 1.1//EN"
"http://www.w3.org/Graphics/SVG/1.1/DTD/svg11.dtd">
<svg viewBox="0 0 931 1096" version="1.1" xmlns="http://www.w3.org/2000/svg" xmlns:xlink="http://www.w3.org/1999/xlink">
<defs>
<clipPath id="c0_178"><path d="M52,130.1V96.5H825v33.6Z"/></clipPath>
<style type="text/css"><![CDATA[
.g0_178{
fill: #D0007A;
}
.g1_178{
fill: #FFF;
}
.g2_178{
fill: none;
stroke: #00AEEF;
stroke-width: 1.145;
}
.g3_178{
fill: none;
stroke: #241F1F;
stroke-width: 0.763;
stroke-miterlimit: 10;
}
.g4_178{
fill: none;
stroke: #00AEEF;
stroke-width: 0.763;
}
.g5_178{
fill: none;
stroke: #241F1F;
stroke-width: 0.534;
stroke-miterlimit: 10;
}
.g6_178{
fill: #B2E3FA;
}
.g7_178{
fill: none;
stroke: #241F1F;
stroke-width: 0.381;
stroke-miterlimit: 3;
}
.g8_178{
fill: #241F1F;
}
.g9_178{
fill: none;
stroke: #241F1F;
stroke-width: 0.611;
stroke-miterlimit: 3;
}
.ga_178{
fill: none;
stroke: #241F1F;
stroke-width: 0.763;
stroke-linejoin: round;
}
.gb_178{
fill: none;
stroke: #00AEEF;
stroke-width: 0.916;
stroke-linejoin: round;
}
.gc_178{
fill: none;
stroke: #241F1F;
stroke-width: 0.916;
stroke-linejoin: round;
}
.gd_178{
fill: none;
stroke: #241F1F;
stroke-width: 0.763;
stroke-miterlimit: 3;
}
]]></style>
</defs>
<path d="M288.8,306.6c0,0,-1.6,0,-1.6,1.5v9.2c0,0,0,1.5,1.6,1.5h9.1c0,0,1.6,0,1.6,-1.5v-9.2c0,0,0,-1.5,-1.6,-1.5Z" class="g0_178"/>
<path d="M290.7,360.5c0,0,-3.1,0,-3.1,3v81.1c0,0,0,3.1,3.1,3.1H820.1c0,0,3,0,3,-3.1V363.5c0,0,0,-3,-3,-3Z" class="g1_178"/>
<path d="M303.8,371.4c0,0,-1.5,0,-1.5,1.5V387c0,0,0,1.5,1.5,1.5H318c0,0,1.5,0,1.5,-1.5V372.9c0,0,0,-1.5,-1.5,-1.5H303.8Z" class="g2_178"/>
<path d="M534.7,417.8h12.2" class="g3_178"/>
<path d="M290.7,360.5c0,0,-3.1,0,-3.1,3v81.1c0,0,0,3.1,3.1,3.1H820.1c0,0,3,0,3,-3.1V363.5c0,0,0,-3,-3,-3H290.7Z" class="g4_178"/>
<path d="M558.2,553.1h12.2m-52.7,45.8h12.2m67.4,0h12.2" class="g3_178"/>
<path d="M504.3,698.1h5.4m67.4,0h5.4M470.2,837.2h5.4m111.2,0h5.4m36.4,0H634M492.1,873.8h5.4m67.4,0h5.4" class="g5_178"/>
<path d="M432.6,950.3h12.2m9.7,53.5h31.3m21.9,0H539m64.3,0h31.3" class="g3_178"/>
<path d="M125.7,573.1v-46c16,15.9,41,26.1,82.5,30.7v15.3Z" class="g6_178"/>
<path d="M178.2,538.1l-20.8,18.7M140.8,490.6H135" class="g7_178"/>
<path d="M155,559.1l2.1,-4.2l.3,1.9l1.9,.6Z" class="g8_178"/>
<path d="M52.4,573.1H254.1" class="g9_178"/>
<path fill-rule="evenodd" d="M254.1,573.1l-1.7,-2.5l6.5,2.5l-6.5,2.4Z" class="g8_178"/>
<path d="M79.9,590.9V467.7" class="g9_178"/>
<path fill-rule="evenodd" d="M79.9,467.7l-2.5,1.6l2.5,-6.5l2.4,6.5Z" class="g8_178"/>
<path d="M208.2,570v6.1M125.7,570v6.1" class="g9_178"/>
<path d="M208.2,557.8v15.3m-82.5,-46v46" class="ga_178"/>
<path d="M100,468.9c10.7,57.6,35.2,88.3,147.4,91.4" class="gb_178"/>
<path d="M102.7,757.9V670.1c4.6,16.8,11.4,31,22.9,42.2v45.6Z" class="g6_178"/>
<path d="M138.8,692.4l-26.2,18" class="g7_178"/>
<path d="M109.9,712.2l2.6,-3.8l.1,2l1.8,.8Z" class="g8_178"/>
<path d="M233.8,729H228" class="g7_178"/>
<path d="M52.3,757.9H253.9" class="g9_178"/>
<path fill-rule="evenodd" d="M253.9,757.9l-1.6,-2.4l6.5,2.4l-6.5,2.5Z" class="g8_178"/>
<path d="M79.8,775.8V652.5" class="g9_178"/>
<path fill-rule="evenodd" d="M79.8,652.5l-2.5,1.6l2.5,-6.5l2.4,6.5Z" class="g8_178"/>
<path d="M102.7,754.9V761m22.9,-6.1V761" class="g9_178"/>
<path d="M102.7,670.1v87.8m22.9,-45.6v45.6" class="ga_178"/>
<path d="M99.1,653.7c10.7,57.7,36,88.4,148.2,91.5" class="gb_178"/>
<path d="M125.3,930.3c7.2,8.8,25.2,18.7,45.8,22.2v23.8H125.3Z" class="g6_178"/>
<path d="M130.8,855.6h-5.9" class="g7_178"/>
<path d="M52.3,976.4H254.1" class="g9_178"/>
<path fill-rule="evenodd" d="M254.1,976.4L252.5,974l6.5,2.4l-6.5,2.5Z" class="g8_178"/>
<path d="M79.8,994.7v-156" class="g9_178"/>
<path fill-rule="evenodd" d="M79.8,838.7l-2.5,1.6l2.5,-6.5l2.4,6.5Z" class="g8_178"/>
<path d="M94.8,838.7c7.5,95.4,32.7,116,151.8,124.9" class="gb_178"/>
<path d="M125.3,952.8h45.5M125.3,930.3v46h45.8V952.5L125.3,930.3Z" class="gc_178"/>
<path d="M169.7,952.5c0,-.9,.7,-1.7,1.7,-1.7c.9,0,1.7,.8,1.7,1.7c0,1,-.8,1.8,-1.7,1.8c-1,0,-1.7,-.8,-1.7,-1.8Z" class="g8_178"/>
<path d="M169.7,952.5c0,-.9,.7,-1.7,1.7,-1.7c.9,0,1.7,.8,1.7,1.7c0,1,-.8,1.8,-1.7,1.8c-1,0,-1.7,-.8,-1.7,-1.8Z" class="gd_178"/>
<path d="M123.8,952.8c0,-.9,.8,-1.7,1.7,-1.7c1,0,1.8,.8,1.8,1.7c0,1,-.8,1.8,-1.8,1.8c-.9,0,-1.7,-.8,-1.7,-1.8Z" class="g8_178"/>
<path d="M123.8,952.8c0,-.9,.8,-1.7,1.7,-1.7c1,0,1.8,.8,1.8,1.7c0,1,-.8,1.8,-1.8,1.8c-.9,0,-1.7,-.8,-1.7,-1.8Z" class="gd_178"/>
<path d="M123.5,930.3c0,-.9,.8,-1.7,1.7,-1.7c1,0,1.8,.8,1.8,1.7c0,1,-.8,1.7,-1.8,1.7c-.9,0,-1.7,-.7,-1.7,-1.7Z" class="g8_178"/>
<path d="M123.5,930.3c0,-.9,.8,-1.7,1.7,-1.7c1,0,1.8,.8,1.8,1.7c0,1,-.8,1.7,-1.8,1.7c-.9,0,-1.7,-.7,-1.7,-1.7Z" class="gd_178"/>
<image clip-path="url(#c0_178)" preserveAspectRatio="none" x="52" y="97" width="773" height="33" xlink:href="img/1.png"/>
</svg>