<?xml version="1.0" encoding="UTF-8" standalone="no"?>
<!DOCTYPE svg PUBLIC "-//W3C//DTD SVG 1.1//EN"
"http://www.w3.org/Graphics/SVG/1.1/DTD/svg11.dtd">
<svg viewBox="0 0 660 990" version="1.1" xmlns="http://www.w3.org/2000/svg" xmlns:xlink="http://www.w3.org/1999/xlink">
<defs>
<clipPath id="c0_18"><path d="M86.9,390.4L85.7,388l-1.2,-2.4H576.2l-1.1,2.4l-1.2,2.4Z"/></clipPath>
<clipPath id="c1_18"><path d="M577.3,692.2L575,691l-2.4,-1.2V389.1l2.4,-1.2l2.3,-1.2V692.2Z"/></clipPath>
<clipPath id="c2_18"><path d="M84.5,693.3l1.2,-2.4l1.2,-2.4h487l1.2,2.4l1.1,2.4Z"/></clipPath>
<clipPath id="c3_18"><path d="M83.5,692.2V386.7l2.3,1.2l2.4,1.2V689.8L85.8,691l-2.3,1.2Z"/></clipPath>
<clipPath id="c4_18"><path d="M85.6,915.9v-5.1H574.4v5.1Z"/></clipPath>
<style type="text/css"><![CDATA[
.g0_18{
fill: none;
stroke: #231F20;
stroke-width: 0.381;
stroke-linecap: round;
stroke-linejoin: miter;
}
.g1_18{
fill: none;
stroke: #231F20;
stroke-width: 0.763;
stroke-linecap: round;
stroke-linejoin: miter;
}
]]></style>
</defs>
<path clip-path="url(#c0_18)" d="M85.6,388H575.1" class="g0_18"/>
<path clip-path="url(#c1_18)" d="M575,387.8V691.1" class="g0_18"/>
<path clip-path="url(#c2_18)" d="M575.1,690.9H85.6" class="g0_18"/>
<path clip-path="url(#c3_18)" d="M85.8,691.1V387.8" class="g0_18"/>
<path clip-path="url(#c4_18)" d="M85.6,913.4H574.4" class="g1_18"/>
<image preserveAspectRatio="none" x="180" y="396" width="301" height="286" xlink:href="img/1.jpg"/>
</svg>