<?xml version="1.0" encoding="UTF-8" standalone="no"?>
<!DOCTYPE svg PUBLIC "-//W3C//DTD SVG 1.1//EN"
"http://www.w3.org/Graphics/SVG/1.1/DTD/svg11.dtd">
<svg viewBox="0 0 907 1045" version="1.1" xmlns="http://www.w3.org/2000/svg" xmlns:xlink="http://www.w3.org/1999/xlink">
<defs>
<clipPath id="c0_552"><path d="M-2.6,1047.7V-2.6H910.2V1047.7Z"/></clipPath>
<style type="text/css"><![CDATA[
.g0_552{
fill: #D9D9D9;
}
.g1_552{
fill: #B8B8B8;
}
.g2_552{
fill: none;
stroke: #000000;
stroke-width: 1.675;
stroke-linecap: butt;
stroke-linejoin: miter;
stroke-miterlimit: 4;
}
.g3_552{
fill: none;
stroke: #636363;
stroke-width: 1.527;
stroke-linecap: butt;
stroke-linejoin: miter;
stroke-miterlimit: 4;
}
.g4_552{
fill: none;
stroke: #FFFFFF;
stroke-width: 1.909;
stroke-linecap: butt;
stroke-linejoin: miter;
}
.g5_552{
fill: none;
stroke: #000000;
stroke-width: 0.381;
stroke-linecap: butt;
stroke-linejoin: miter;
}
]]></style>
</defs>
<path d="M157.6,767.9v17.8h202V767.9h-202Z" class="g0_552"/>
<path d="M153.1,718.2v19.4H334.9V718.2H153.1Z" class="g0_552"/>
<path d="M157.6,667.3v22.6h264V667.3h-264Z" class="g0_552"/>
<path d="M153.1,584.4v68.7H423.3V584.4H153.1Z" class="g0_552"/>
<path d="M153.1,468.6v20.5H445.3V468.6H153.1Z" class="g0_552"/>
<path d="M153.1,388.2v64.9H391.4V388.2H153.1Z" class="g0_552"/>
<path d="M154.4,353.6v22.6h264V353.6h-264Z" class="g0_552"/>
<path d="M102.2,125.8c5.4,0,9.8,-4.4,9.8,-9.8c0,-5.4,-4.4,-9.7,-9.8,-9.7c-5.4,0,-9.8,4.3,-9.8,9.7c0,5.4,4.4,9.8,9.8,9.8Z" class="g1_552"/>
<path d="M102.2,125.8c5.4,0,9.8,-4.4,9.8,-9.8c0,-5.4,-4.4,-9.7,-9.8,-9.7c-5.4,0,-9.8,4.3,-9.8,9.7c0,5.4,4.4,9.8,9.8,9.8Z" class="g2_552"/>
<path d="M607.8,391.1c0,-.6,0,-1.1,0,-1.7c-2.2,-1.1,-5.7,-1.3,-8.3,-2.4c-10.2,-4.2,-20.8,-6.6,-31.1,-10.4c-5.9,-2.2,-11.3,-3.6,-17.6,-4.1c-3.7,-.4,-7.4,0,-11.2,.2c3.1,-2.1,7.2,-3.2,10.5,-4.9c-2.7,.6,-4.6,2.1,-7.1,3.5c-3.1,1.7,-7.7,3,-11.3,3.6c3.7,2.1,10.9,2.9,12.2,8.6m65.2,25.9c-8.3,4.6,-18.5,4.8,-27.8,6.1c-13.4,1.9,-26.3,4.7,-39.4,7.7c-10.2,2.4,-20.6,4.2,-31,5c-4.4,.3,-8.8,-.3,-13.1,.3c-1.6,.2,-2.7,.9,-4.3,.4c2.7,-4.1,3.2,-8.9,5.7,-13.2c-1.1,2,-2.1,4.2,-3.4,6.1c-1.5,2.1,-7.5,5.5,-6.2,8.6c.9,1.9,1.8,1,4,2.1c3.4,1.6,4.7,6.2,8.3,7.5m107.2,14.4c-12.9,5.3,-26.5,7.6,-39.9,11.2c-6.6,1.8,-13.2,3.5,-19.7,5.7c-2.1,.8,-9.3,4.4,-11.7,3c-.1,-3,1.2,-8.4,5.2,-8.2c-1,2.8,-3.8,4.1,-5.7,6c-2.8,2.9,-5.8,6.4,-7.8,9.9c3.3,3.2,11.5,1.3,15.9,1.3m132.9,29.6c-.7,-3.6,-5.9,-7.3,-8.9,-8.9c-5.1,-2.7,-11.8,-2.6,-17.5,-2c-9,.8,-16.4,3.7,-23.4,9.2c-1.1,-1.9,-1.6,-5,-1.3,-7.4c.3,2.9,-3.7,10.3,-2.5,11.9c1.8,2.3,9.6,-1,12.6,-.8M589,611.1c-13.4,2.8,-27.4,2.6,-41,3.8c-8,.7,-16.6,.9,-24.5,2.8c-2.2,.5,-4.6,1.6,-6.9,.9c1.4,-4.5,6.2,-5.7,8.3,-9.5c-2,1,-4.1,3.3,-5.7,4.6c-3.1,2.4,-7.6,5.3,-9.2,9c3.4,4.5,10.9,-2,14.6,1.4m89.6,30.4c-3.2,.1,-4.1,.6,-6.9,1.5c-8.2,2.6,-16.8,3.2,-25.2,4.6c-14.3,2.3,-28,4.8,-42.5,4.8c-2.5,0,-3.5,-.1,-5.6,.5c-.9,.3,-4.3,2.4,-5.1,1.1c-1.2,-2.1,6.5,-9.2,7.6,-11.2c-2.8,1.8,-5.7,3.4,-8.3,5.7c-1.7,1.7,-3.5,3.4,-5.4,4.9c-1.1,.8,-2.2,1.6,-3.1,2.6c-3.2,6.7,13.1,2.7,15.8,2.5m46.8,64.8c-6.2,0,-12.2,1.4,-18.5,1.4c-4.9,0,-9.7,0,-14.6,0c-3.4,0,-7.1,.4,-10.5,-.2c-1.7,-.3,-4.3,-.8,-6.1,-1.2c-1.8,-.4,-2.6,-1.4,-4.2,-2c1.5,-1.6,4.9,-1.4,6.9,-1.8c2,-.3,4.2,-1.5,6.1,-1.5c-5.8,-.5,-11.5,3.9,-16.6,6c3.5,1.9,6.2,4,9.2,7m6.8,40.5c-7.7,-1.7,-16.8,-2.8,-24.7,-3.1c-4.1,-.1,-7.9,-1.3,-11.9,-1.5c-.6,.1,-1.1,.3,-1.6,.7c-.8,-.1,-1,-.7,-1.9,-.7c-1.7,-.1,-3.4,0,-5,0c-2.8,0,-5.7,-.3,-8.3,.7c1.2,-3.5,7.5,-4.2,9.1,-7.3c-3.4,1.9,-9.5,5.9,-11.3,9.5c2.7,-.2,4.3,1.7,6.5,3.4c1.6,1.2,6.8,3.6,7.4,5.9m69.1,62.5c-1.8,-.6,-3.4,-.5,-5,.5c-4.1,1.5,-8.2,2.4,-12.3,3.6c-7.2,2.2,-14.5,3.8,-22.1,2.9c-6.3,-.7,-11.6,-4,-16.7,-7.5c-2,-1.4,-5.4,-5.9,-7.8,-6.2c-.2,3.1,-1.1,6.1,-.9,9.3c.4,-4.9,-2,-9.2,.5,-13.9c2.9,3.5,8.4,.4,10.7,3.1M583,219.2c14.6,-1.1,37.4,-1.8,44.3,14.7c1.2,3,2.2,8.2,1.5,11.5c-.8,3.5,-4.6,5,-6,8.2c3.4,-2.3,8.8,-3.3,12.9,-3.1c-2.8,2.3,-6.8,3.9,-9.1,6.5c4.7,2.4,11,2.9,16,4.7c14.8,5.5,23,19.8,33.5,30.8c4.2,4.4,9.1,8.8,12.3,14c1.3,2.2,3.9,6.5,3.8,9.2c-.1,4.3,-4.6,7.3,-5.5,11.2M410.8,932.4c-.3,1,-1.9,1.1,-2.7,1.2c-3,.3,-6,.6,-9,.7c-2.9,.1,-5.8,-.1,-8.7,-.2c-3.3,0,-6.4,.1,-9.6,-.4c-1.2,-.2,-2.3,-.5,-3.4,-.7c-1,-.3,-2.1,-.3,-3.1,-.5c-2.8,-.5,-5.5,-1,-8.3,-1.5c-2.4,-.4,-4.8,-.8,-7.2,-1.4c-2,-.6,-3.9,-1.5,-6,-2.2c-1.6,-.5,-3.2,-.7,-4.9,-1.1c-2.5,-.6,-4.8,-1.6,-7.3,-2.4c-2.6,-.8,-5.3,-1.5,-7.8,-2.6c-1.3,-.6,-2.1,-1.7,-3.5,-1.9c-3.3,-.7,-6.4,-2.3,-9.5,-3.5c-1.4,-.6,-3,-1.4,-4.5,-1.8c-.6,-.2,-1.2,-.1,-1.8,-.2c-.8,-.2,-1.7,-.5,-2.4,-.7c-1,-.4,-1.9,-.7,-2.9,-1.1c-.8,-.4,-1.7,-.4,-2.6,-.6c-.1,.5,.3,1.4,.4,1.9c.1,1.1,.5,2,1.2,2.9c.2,.4,.7,.8,.8,1.2c0,-2.5,-2.6,-4.8,-2.4,-7.4c3.3,-.2,6.8,0,10.1,0" class="g3_552"/>
<g clip-path="url(#c0_552)">
<path d="M-4.5,13.7H-27.4m939.5,0H935M-4.5,1031.2H-27.4m939.5,0H935M13.7,-4.5V-27.4m0,1077v22.9m880,-1077V-27.4m0,1077v22.9" class="g4_552"/>
<path d="M-4.5,13.7H-27.4m939.5,0H935M-4.5,1031.2H-27.4m939.5,0H935M13.7,-4.5V-27.4m0,1077v22.9m880,-1077V-27.4m0,1077v22.9" class="g5_552"/>
</g>
</svg>