<?xml version="1.0" encoding="UTF-8" standalone="no"?>
<!DOCTYPE svg PUBLIC "-//W3C//DTD SVG 1.1//EN"
"http://www.w3.org/Graphics/SVG/1.1/DTD/svg11.dtd">
<svg viewBox="0 0 811 1017" version="1.1" xmlns="http://www.w3.org/2000/svg" xmlns:xlink="http://www.w3.org/1999/xlink">
<defs>
<style type="text/css"><![CDATA[
.g0_263{
fill: #70A6CC;
}
.g1_263{
}
]]></style>
</defs>
<path d="M156.1,455.8H724.4V433.9H156.1Z" class="g0_263"/>
<path d="M566.3,164.4v3.2l-.3,-.1l-6.3,-3l-.4,-.1l.4,-.2l6.3,-3l.3,-.1v.3l-.1,.2l-6.3,2.9l-.2,-.3h.2l6.3,2.9l-.2,.4v-3.1Z" class="g1_263"/>
<path d="M566,164.4h.3v-3H566Z" class="g1_263"/>
<path d="M585.6,190.8h.3V164.2h-.3Z" class="g1_263"/>
<path d="M566.3,164.5h19.4v-.3H566.3Z" class="g1_263"/>
<path d="M507.8,210.4v3.2l-.2,-.1l-6.3,-2.9l-.3,-.2l.3,-.2l6.3,-2.9l.2,-.1v.2l-.1,.2l-6.2,3l-.2,-.4h.2l6.2,2.9l-.1,.4l-.1,-.2v-2.9Z" class="g1_263"/>
<path d="M507.5,210.4h.3v-3h-.3Z" class="g1_263"/>
<path d="M527.1,249.3h.3V210.2h-.3Z" class="g1_263"/>
<path d="M507.8,210.6h19.5v-.4H507.8Z" class="g1_263"/>
<path d="M468.9,256.2v3.2l-.3,-.1l-6.2,-2.9l-.4,-.2l.4,-.2l6.2,-2.9l.3,-.1v.3l-.1,.2l-6.2,2.9l-.2,-.4h.2l6.2,3l-.2,.3l-.1,-.2v-2.9Z" class="g1_263"/>
<path d="M468.5,256.2h.4v-2.9h-.4Z" class="g1_263"/>
<path d="M488.1,313.5h.4V256h-.4Z" class="g1_263"/>
<path d="M468.9,256.4h19.4V256H468.9Z" class="g1_263"/>
</svg>