<?xml version="1.0" encoding="UTF-8" standalone="no"?>
<!DOCTYPE svg PUBLIC "-//W3C//DTD SVG 1.1//EN"
"http://www.w3.org/Graphics/SVG/1.1/DTD/svg11.dtd">
<svg viewBox="0 0 935 1210" version="1.1" xmlns="http://www.w3.org/2000/svg" xmlns:xlink="http://www.w3.org/1999/xlink">
<defs>
<clipPath id="c0_398"><path d="M42.8,1168.2V41.8H892.2V1168.2Z"/></clipPath>
<style type="text/css"><![CDATA[
.g0_398{
fill: #D9D9D9;
}
.g1_398{
}
]]></style>
</defs>
<path d="M93.4,928.4H476.3V968H93.4V928.4Z" class="g0_398"/>
<path d="M476.3,928.4H855.9V968H476.3V928.4Z" class="g0_398"/>
<path d="M476.3,1166H857v1.1H476.3V1166Z" class="g1_398"/>
<g clip-path="url(#c0_398)">
<path d="M476.3,1166h1.1v40.7h-1.1V1166Z" class="g1_398"/>
<path d="M855.9,1166H857v40.7h-1.1V1166Z" class="g1_398"/>
</g>
<path d="M93.4,1166h384v1.1H93.4V1166Z" class="g1_398"/>
<g clip-path="url(#c0_398)">
<path d="M93.4,1166h1.1v40.7H93.4V1166Z" class="g1_398"/>
<path d="M476.3,1166h1.1v40.7h-1.1V1166Z" class="g1_398"/>
</g>
<path d="M476.3,1126.4H857v1.1H476.3v-1.1Z" class="g1_398"/>
<path d="M476.3,1166H857v1.1H476.3V1166Z" class="g1_398"/>
<path d="M476.3,1126.4h1.1v40.7h-1.1v-40.7Z" class="g1_398"/>
<path d="M855.9,1126.4H857v40.7h-1.1v-40.7Z" class="g1_398"/>
<path d="M93.4,1126.4h384v1.1H93.4v-1.1Z" class="g1_398"/>
<path d="M93.4,1166h384v1.1H93.4V1166Z" class="g1_398"/>
<path d="M93.4,1126.4h1.1v40.7H93.4v-40.7Z" class="g1_398"/>
<path d="M476.3,1126.4h1.1v40.7h-1.1v-40.7Z" class="g1_398"/>
<path d="M476.3,1086.8H857v1.1H476.3v-1.1Z" class="g1_398"/>
<path d="M476.3,1126.4H857v1.1H476.3v-1.1Z" class="g1_398"/>
<path d="M476.3,1086.8h1.1v40.7h-1.1v-40.7Z" class="g1_398"/>
<path d="M855.9,1086.8H857v40.7h-1.1v-40.7Z" class="g1_398"/>
<path d="M93.4,1086.8h384v1.1H93.4v-1.1Z" class="g1_398"/>
<path d="M93.4,1126.4h384v1.1H93.4v-1.1Z" class="g1_398"/>
<path d="M93.4,1086.8h1.1v40.7H93.4v-40.7Z" class="g1_398"/>
<path d="M476.3,1086.8h1.1v40.7h-1.1v-40.7Z" class="g1_398"/>
<path d="M476.3,1047.2H857v1.1H476.3v-1.1Z" class="g1_398"/>
<path d="M476.3,1086.8H857v1.1H476.3v-1.1Z" class="g1_398"/>
<path d="M476.3,1047.2h1.1v40.7h-1.1v-40.7Z" class="g1_398"/>
<path d="M855.9,1047.2H857v40.7h-1.1v-40.7Z" class="g1_398"/>
<path d="M93.4,1047.2h384v1.1H93.4v-1.1Z" class="g1_398"/>
<path d="M93.4,1086.8h384v1.1H93.4v-1.1Z" class="g1_398"/>
<path d="M93.4,1047.2h1.1v40.7H93.4v-40.7Z" class="g1_398"/>
<path d="M476.3,1047.2h1.1v40.7h-1.1v-40.7Z" class="g1_398"/>
<path d="M476.3,1007.6H857v1.1H476.3v-1.1Z" class="g1_398"/>
<path d="M476.3,1047.2H857v1.1H476.3v-1.1Z" class="g1_398"/>
<path d="M476.3,1007.6h1.1v40.7h-1.1v-40.7Z" class="g1_398"/>
<path d="M855.9,1007.6H857v40.7h-1.1v-40.7Z" class="g1_398"/>
<path d="M93.4,1007.6h384v1.1H93.4v-1.1Z" class="g1_398"/>
<path d="M93.4,1047.2h384v1.1H93.4v-1.1Z" class="g1_398"/>
<path d="M93.4,1007.6h1.1v40.7H93.4v-40.7Z" class="g1_398"/>
<path d="M476.3,1007.6h1.1v40.7h-1.1v-40.7Z" class="g1_398"/>
<path d="M476.3,968H857v1.1H476.3V968Z" class="g1_398"/>
<path d="M476.3,1007.6H857v1.1H476.3v-1.1Z" class="g1_398"/>
<path d="M476.3,968h1.1v40.7h-1.1V968Z" class="g1_398"/>
<path d="M855.9,968H857v40.7h-1.1V968Z" class="g1_398"/>
<path d="M93.4,968h384v1.1H93.4V968Z" class="g1_398"/>
<path d="M93.4,1007.6h384v1.1H93.4v-1.1Z" class="g1_398"/>
<path d="M93.4,968h1.1v40.7H93.4V968Z" class="g1_398"/>
<path d="M476.3,968h1.1v40.7h-1.1V968Z" class="g1_398"/>
<path d="M476.3,928.4H857v1.1H476.3v-1.1Z" class="g1_398"/>
<path d="M476.3,968H857v1.1H476.3V968Z" class="g1_398"/>
<path d="M476.3,928.4h1.1v40.7h-1.1V928.4Z" class="g1_398"/>
<path d="M855.9,928.4H857v40.7h-1.1V928.4Z" class="g1_398"/>
<path d="M93.4,928.4h384v1.1H93.4v-1.1Z" class="g1_398"/>
<path d="M93.4,968h384v1.1H93.4V968Z" class="g1_398"/>
<path d="M93.4,928.4h1.1v40.7H93.4V928.4Z" class="g1_398"/>
<path d="M476.3,928.4h1.1v40.7h-1.1V928.4Z" class="g1_398"/>
</svg>