<?xml version="1.0" encoding="UTF-8" standalone="no"?>
<!DOCTYPE svg PUBLIC "-//W3C//DTD SVG 1.1//EN"
"http://www.w3.org/Graphics/SVG/1.1/DTD/svg11.dtd">
<svg viewBox="0 0 907 1045" version="1.1" xmlns="http://www.w3.org/2000/svg" xmlns:xlink="http://www.w3.org/1999/xlink">
<defs>
<clipPath id="c0_322"><path d="M89.9,280.5V211.7h173v68.8Z"/></clipPath>
<clipPath id="c1_322"><path d="M-2.6,1047.7V-2.6H910.2V1047.7Z"/></clipPath>
<style type="text/css"><![CDATA[
.g0_322{
fill: none;
stroke: #000000;
stroke-width: 1.527;
stroke-linecap: butt;
stroke-linejoin: miter;
stroke-miterlimit: 4;
}
.g1_322{
fill: #FFFFFF;
}
.g2_322{
}
.g3_322{
fill: #B6B6B6;
}
.g4_322{
fill: #343434;
}
.g5_322{
fill: #7C7C7C;
}
.g6_322{
fill: #909090;
}
.g7_322{
fill: #737373;
}
.g8_322{
fill: #C7C7C7;
}
.g9_322{
fill: #ACACAC;
}
.ga_322{
fill: #A8A8A8;
}
.gb_322{
fill: #E6E6E6;
}
.gc_322{
fill: #D2D2D2;
}
.gd_322{
fill: #CFCFCF;
}
.ge_322{
fill: #ECECEC;
}
.gf_322{
fill: #DDDDDD;
}
.gg_322{
fill: #DBDBDB;
}
.gh_322{
fill: #D5D5D5;
}
.gi_322{
fill: #3C3C3C;
}
.gj_322{
fill: none;
stroke: #FFFFFF;
stroke-width: 1.909;
stroke-linecap: butt;
stroke-linejoin: miter;
}
.gk_322{
fill: none;
stroke: #000000;
stroke-width: 0.381;
stroke-linecap: butt;
stroke-linejoin: miter;
}
]]></style>
</defs>
<path d="M93.3,230V827H817.8V230H93.3Z" class="g0_322"/>
<path d="M134.7,245.1v59.7H369.2V245.1H134.7Z" class="g1_322"/>
<path d="M92.5,216.4v59.7H296.6V216.4H92.5Z" class="g1_322"/>
<path d="M88.4,209.4v44.8H263V209.4H88.4Z" class="g1_322"/>
<path d="M89.9,211.7v68.8h173V211.7H89.9Z" class="g1_322"/>
<path d="M142.7,265.4l-1.1,-.2l.4,.8l9.2,1.2l-6.5,-5.6l-.8,.5l-.5,.4l-.2,.7l-.3,.6l-.2,1.1v.5Z" class="g2_322"/>
<path d="M129.7,251.7v0l1.1,1.4l.9,1.3l.4,.8l.4,1l.2,.8l.1,.9v.9l-.3,.9l-.4,.7l-.9,.8l-1,.6l-1.4,.5l12.8,2.9l-.3,-1.3l-.2,-1.1l.2,-.9l.3,-.7l.3,-.6l.4,-.4l.3,-.2l2.1,1.6l-4.4,-4.5l-3.4,-3.8l-1.3,-1.6l-.8,-1.4l-.2,.4l-.2,.3l-.3,.4l-.7,.4l-.8,.2h-1.4l-1.5,-.3Z" class="g3_322"/>
<path d="M141.6,265.2l1.1,.2v-.5l.2,-1.1l.3,-.6l.2,-.7l.5,-.4l.8,-.5L142.6,260l-.3,.2l-.4,.4l-.3,.6l-.3,.7l-.2,.9l.2,1.1l.3,1.3Z" class="g4_322"/>
<path d="M102.1,240.1v0l2.3,1.5l2.4,1.3l4.6,3.1l4.6,3.5l4.3,3.3l3.8,3l2.8,2.5l2.5,2.3l-.3,.5l.9,-.8l.6,-.8l.4,-1v-1.8l-.3,-1l-.2,-.9l-.6,-.9l-1,-1.7l-.9,-1.3l-1.2,-1.3l1.1,.5l1.3,.3l1.4,.2h1.2l2.2,-.2l.8,-.1l-1.7,-.4l-1.7,-.8l-3.9,-1.8l-3.9,-2.1l-4.1,-2.5l-3.7,-2.4L112.2,238l-5.1,-3.7l-1.5,.5l-1,.7l-.9,.7l-.7,.6l-.5,.9l-.2,.9l-.1,.8l-.1,.7Z" class="g5_322"/>
<path d="M128.7,262.3v0h.1h-.1Z" class="g5_322"/>
<path d="M129.1,261.1v0l-.4,1.2h.1l1.4,-.5l1,-.6l.9,-.8l.4,-.7l.3,-.9v-.9l-.1,-.9l-.2,-.8l-.4,-1l-.4,-.8l-.9,-1.3l-1.1,-1.5l1.5,.4h1.4l.8,-.2l.7,-.4l.3,-.3l.2,-.4l.2,-.4l-.8,.1l-2.2,.2h-1.2l-1.4,-.2l-1.3,-.3l-1.1,-.5l1.2,1.3l.9,1.3l1,1.7l.6,.9l.2,.9l.3,1v1.8l-.4,1l-.6,.8l-.9,.8Z" class="g6_322"/>
<path d="M91.8,230.7v0l-.4,.8l-.1,.7v1.3l.3,1.2l.5,.8l.7,.7l.5,.5l.7,.4l1.4,.3l-.1,-1l.1,-1l.2,-.8l.2,-.8l.3,-.7l.5,-.6l.9,-1l1,-.9l.9,-.4l.8,-.3l.7,-.2l-1,-1l-.7,-.4l-.9,-.4l-.8,-.4h-1l-1.2,.1l-1.3,.3l-.7,.5l-.6,.6l-.6,.8l-.3,.9Z" class="g7_322"/>
<path d="M97.5,238.1v0l2.2,1l-.1,-.9l.1,-.8l.3,-.9l.5,-.9l.7,-.7l1,-.8l1.4,-.6l1.7,-.5l1.8,1.3l.6,-.2l-.5,-.5L106,232.2l-.9,-.6l-1.1,-.8l-1.4,-.6l-1.4,-.6l-.3,.1l.5,.9l-.8,.3l-.7,.3l-.6,.3l-.5,.4l-.5,.6l-.3,.4l-.4,1.2l-.2,1.1l-.2,1.1l.1,.9l.2,.9Z" class="g8_322"/>
<path d="M99.7,239.1v0l2.4,1l.1,-.7l.1,-.8l.2,-.9l.5,-.9l.7,-.6l.9,-.7l1,-.7l1.5,-.5L105.3,233l-1.7,.5l-1.4,.6l-1,.8l-.7,.7l-.5,.9l-.3,.9l-.1,.8l.1,.9Z" class="g9_322"/>
<path d="M95.4,237.4v0l2.1,.7l-.2,-.9l-.1,-.9l.2,-1.1l.2,-1.1l.4,-1.2l.3,-.4l.5,-.6l.5,-.4l.6,-.3l.7,-.3l.8,-.3l-.5,-.9l-.7,.2l-.8,.3l-.9,.4l-1,.9l-.9,1l-.5,.6l-.3,.7l-.2,.8l-.2,.8l-.1,1l.1,1Z" class="ga_322"/>
<path d="M127.4,262h.2h-.2Z" class="gb_322"/>
<path d="M127.6,262v0l.4,.5l.7,-.2l-1.1,-.3Z" class="gc_322"/>
<path d="M102.4,242.1v0l1.9,1l2,1.2l3.9,2.7l4,2.9l3.6,3.1l3.3,3l2.9,2.5l3.6,3.5l.8,-.4l.7,-.5l.3,-.5l-2.5,-2.3l-2.8,-2.5l-3.8,-3L116,249.5L111.4,246l-4.6,-3.1l-2.4,-1.3l-2.3,-1.5l.1,1.1l.2,.9Z" class="g6_322"/>
<path d="M127.6,262l1.1,.3l.4,-1.2l-.7,.5l-.8,.4Z" class="g6_322"/>
<path d="M91.9,229.3v0l-1,2.5l-.8,2.7l.2,.8l.5,.8l.6,.6l.6,.7l.7,.5l.9,.6l1,.2l1.1,.3l-.3,-1.6L94,237.1l-.7,-.4l-.5,-.5l-.7,-.7l-.5,-.8l-.3,-1.2v-1.3l.1,-.7l.4,-.8l.3,-.9l.6,-.8l.6,-.6l.7,-.5l-1.3,.7l-.8,.7Z" class="gd_322"/>
<path d="M103.5,244.4v0l-.5,-.7l-.4,-.8l-.2,-.8l-2.2,-1.2l-.3,-.5l-.1,-.6l-.1,-.7l-2.2,-1l.3,.9l-1.2,.1l-.9,-.1v.8l.8,.7l.7,.8l.9,.8l1.1,.8l1.4,.7l1.3,.6l.8,.1l.8,.1Z" class="ge_322"/>
<path d="M100.2,240.9v0l2.2,1.2l-.2,-.9l-.1,-1.1l-2.4,-1l.1,.7l.1,.6l.3,.5Z" class="gf_322"/>
<path d="M97.5,238.1v0l-2.1,-.7l.3,1.6l.9,.1l1.2,-.1l-.3,-.9Z" class="gg_322"/>
<path clip-path="url(#c0_322)" d="M90.1,234.5v0l.8,-2.7l1,-2.5l-.6,.6l-.5,.5l-.4,.6l-.3,.7l-.1,.8l-.1,.6v.8l.2,.6Z" class="gh_322"/>
<path d="M125.9,261.7v0l-5.8,-4.5l-5.9,-4.6l-6.1,-4.5l-3,-2l-3.2,-1.9l-.2,.5l1.6,.8l1.6,1.1l3.1,2.2l6,4.4l5.9,4.5l2.8,2.2l2.8,2.3v-.1l.4,-.4Z" class="gi_322"/>
<path d="M133.6,247.1v0l-6.6,-3l-6.5,-3.3l-3.2,-1.6l-3.1,-1.7L111,235.6l-3,-2l-.3,.5l3,2l3.1,1.8l3.2,1.8l3.2,1.6l6.6,3.3l6.5,3.1l.3,-.6Z" class="gi_322"/>
<path d="M103.5,245.8v0l-.8,-1l-.6,-1.1l-.3,-1.2l-.2,-1.3l.1,-1.4l.4,-1.3l.5,-1.4l.5,-.6l.5,-.4l1.1,-.9l1.1,-.6l1.3,-.5l1.3,-.5l-.3,-.5l-1.3,.5l-1.2,.4l-1.3,.8l-1.1,.9l-.6,.6l-.5,.6l-.5,1.4l-.5,1.5l-.1,1.5l.2,1.4l.4,1.3l.7,1.1l.4,.6l.5,.5l.3,-.4Z" class="gi_322"/>
<path d="M99.4,242.5v0l-.4,-1l-.4,-.9l-.1,-.9l-.2,-1v-1.1l.2,-1l.2,-1l.3,-1l.5,-.9l.6,-.7l.7,-.7l.8,-.5l.9,-.5l1,-.3l.8,-.2l1,.1v-.6l-1,.1l-1.1,.1l-1,.4l-.9,.4l-.8,.5l-.8,.8l-.7,.8l-.5,.9l-.3,1l-.3,1.2l-.1,1v1.1l.1,1.1l.3,1l.3,1l.5,1.1l.4,-.3Z" class="gi_322"/>
<path d="M97.2,240.2v0l-.4,-1.6l-.1,-1.4l.1,-1.5l.2,-1.5l.3,-1l.4,-.7l.6,-.7l.6,-.7l.7,-.5l.7,-.4l1.7,-.9l-.3,-.6l-1.7,.9l-.8,.5l-.7,.7l-.6,.6l-.5,.8l-.6,.8l-.3,.9l-.2,1.6l-.2,1.6l.1,1.6l.4,1.6l.6,-.1Z" class="gi_322"/>
<path d="M105,231.4v0l-1.8,-1.5l-1.8,-1.7l-.4,.4l1.8,1.7l1.9,1.5l.3,-.4Z" class="gi_322"/>
<path d="M100.7,242.3v0L98.3,241l-2.6,-1.2l-.1,.5l2.4,1.2l2.4,1.4l.3,-.6Z" class="gi_322"/>
<path d="M94.9,238.8v0L93.7,238l-1.3,-.9l-.6,-.6l-.4,-.5l-.4,-.8l-.2,-.8l-.1,-1.2v-1L91,231l.5,-.9l.8,-.9l1,-.8l.9,-.5l1.1,-.4l1.2,-.4l1.1,.1l1.2,.3l1.2,.3l.1,-.5L99,226.8l-1.3,-.1H96.4l-1.3,.2l-1.2,.5l-1,.5l-1,.9l-.8,1l-.4,.7l-.3,.7l-.3,.6l.1,.8l-.1,1.4l.4,1.4l.3,.7l.5,.7l1,1l1,.7l1.4,.8l.2,-.5Z" class="gi_322"/>
<path d="M131.3,251.2v0l-3.4,-1.7l-3.4,-1.7l-3.3,-2l-3.3,-1.9l-6.4,-4.2l-6.3,-4.2l-.3,.6l6.4,4.1l6.4,4.2l3.2,2l3.3,1.9l3.4,1.7l3.4,1.8l.3,-.6Z" class="gi_322"/>
<image x="128" y="250" width="7" height="13" xlink:href="shade/1.png"/>
<path d="M135.9,250.5v0l-1.1,.3l-1.3,.2l-2.4,.3v.6l2.6,-.3l1.2,-.2l1.3,-.3l-.3,-.6Z" class="gi_322"/>
<path d="M153.1,267.7v0l-6,-1.3l-6.2,-1.1l-6.1,-1l-6.1,-.9l-.1,.5l6.1,.9l6.2,1L147,267l6,1.4l.1,-.7Z" class="gi_322"/>
<path d="M153.2,267.1v0l-4.6,-4.3l-4.5,-4.7l-4.3,-4.7l-4.3,-4.9l-.3,.2l4.1,5.1l4.3,4.7l4.6,4.7l4.7,4.3l.3,-.4Z" class="gi_322"/>
<path d="M144.7,265.8v0l-.3,-.7l-.2,-.9l-.1,-.8l.1,-.9l.4,-.7l.4,-.7l.4,-.7l.6,-.5l-.3,-.5l-.7,.6l-.5,.8l-.6,.7l-.2,1l-.2,.8l.1,1l.2,.9l.4,.8l.5,-.2Z" class="gi_322"/>
<g clip-path="url(#c1_322)">
<path d="M-4.5,13.7H-27.4m939.5,0H935M-4.5,1031.2H-27.4m939.5,0H935M13.7,-4.5V-27.4m0,1077v22.9m880,-1077V-27.4m0,1077v22.9" class="gj_322"/>
<path d="M-4.5,13.7H-27.4m939.5,0H935M-4.5,1031.2H-27.4m939.5,0H935M13.7,-4.5V-27.4m0,1077v22.9m880,-1077V-27.4m0,1077v22.9" class="gk_322"/>
</g>
</svg>