<?xml version="1.0" encoding="UTF-8" standalone="no"?>
<!DOCTYPE svg PUBLIC "-//W3C//DTD SVG 1.1//EN"
"http://www.w3.org/Graphics/SVG/1.1/DTD/svg11.dtd">
<svg viewBox="0 0 931 1096" version="1.1" xmlns="http://www.w3.org/2000/svg" xmlns:xlink="http://www.w3.org/1999/xlink">
<defs>
<clipPath id="c0_4"><path d="M0,42.4V0H931.9V42.4Z"/></clipPath>
<style type="text/css"><![CDATA[
.g0_4{
fill: #FFF;
}
.g1_4{
fill: #002F4C;
}
.g2_4{
fill: #005F85;
}
.g3_4{
fill: #008CC1;
}
.g4_4{
fill: #00BBEA;
}
.g5_4{
fill: #72D0F6;
}
.g6_4{
fill: #B2E3FA;
}
.g7_4{
fill: none;
stroke: #241F1F;
stroke-width: 0.381;
}
.g8_4{
fill: none;
stroke: #241F1F;
stroke-width: 1.145;
}
]]></style>
</defs>
<path d="M43,110.1H240V50H43v60.1Z" class="g0_4"/>
<path fill-rule="evenodd" d="M62.2,59.4l5.1,1.7l-.9,4.1l-7,-2.4l1.7,-3c.3,-.5,.6,-.6,1.1,-.4Z" class="g1_4"/>
<path fill-rule="evenodd" d="M55,72.2l4.4,-3.8l3.5,3l-6.2,5.4L54.8,73.5c-.3,-.5,-.2,-.9,.2,-1.3Z" class="g2_4"/>
<path fill-rule="evenodd" d="M62.9,85.6L61.7,79.2l4.7,-1.6l1.8,8.8H64c-.6,0,-.9,-.3,-1.1,-.8Z" class="g3_4"/>
<path fill-rule="evenodd" d="M79.3,85.3L72.5,83l1.1,-5.4L83,80.8l-2.3,3.9c-.4,.6,-.8,.8,-1.4,.6Z" class="g4_4"/>
<path fill-rule="evenodd" d="M87.7,70.2l-5.9,5.2l-4.6,-4l8.2,-7.2l2.5,4.4c.4,.6,.3,1.1,-.2,1.6Z" class="g5_4"/>
<path fill-rule="evenodd" d="M78.3,54.5L79.9,63l-6.3,2.2L71.3,53.4h5.5c.9,0,1.3,.4,1.5,1.1Z" class="g6_4"/>
<path d="M98.3,77.3h1.6V90.1h5.3v1.3H98.3Z" class="g1_4"/>
<path d="M113.2,85.4c-.1,-1.5,-.8,-3.1,-2.4,-3.1c-1.6,0,-2.5,1.4,-2.5,3.1Zm-6.6,.8c0,-3,1.7,-5.2,4.2,-5.2c2.6,0,4,2,4,5.2v.4h-6.6c.1,2.1,1.3,3.7,3.4,3.7c1,0,1.8,-.3,2.5,-.7l.5,1.1c-.9,.6,-2.1,1,-3.2,1c-3.2,0,-4.8,-2.5,-4.8,-5.5Z" class="g1_4"/>
<path d="M121.7,86.5c-.9,0,-1.5,.1,-2,.4c-.5,.3,-.8,.9,-.8,1.5c0,1.2,.7,1.9,1.9,1.9c1.2,0,2.2,-.8,2.6,-1.3V86.4Zm1.8,3.8c-.8,.8,-1.8,1.4,-3,1.4c-1.9,0,-3.2,-1.2,-3.2,-3.2c0,-1.3,.6,-2.3,1.7,-2.7c.7,-.4,1.5,-.5,2.5,-.5l1.9,-.1v-.6c0,-1.6,-.9,-2.3,-2.2,-2.3c-1.2,0,-2,.5,-2.7,.9l-.6,-1.1c1.1,-.8,2.4,-1.1,3.5,-1.1c2.1,0,3.6,1.1,3.6,3.5V88c0,2,.1,2.9,.2,3.4h-1.4Z" class="g1_4"/>
<path d="M128.8,81.3h1.3l.2,1.3c1.1,-1.2,2,-1.6,2.9,-1.6c.4,0,.8,.1,1.1,.3l-.6,1.4c-.3,-.1,-.5,-.2,-.9,-.2c-.7,0,-1.4,.5,-2.4,1.5v7.4h-1.6Z" class="g1_4"/>
<path d="M136.5,81.3h1.4l.2,1.3c1.1,-.9,2.2,-1.6,3.5,-1.6c1.6,0,3,1,3,3.6v6.8H143V85.1c0,-1.5,-.3,-2.6,-1.8,-2.6c-1.1,0,-2.1,.6,-3.1,1.5v7.4h-1.6Z" class="g1_4"/>
<path d="M148.4,81.3H150V91.4h-1.6Zm-.3,-3.4c0,-.5,.4,-1,1.1,-1c.6,0,1,.4,1,1c0,.7,-.4,1.1,-1,1.1c-.7,0,-1.1,-.4,-1.1,-1.1Z" class="g1_4"/>
<path d="M153.7,81.3h1.4l.2,1.3c1.1,-.9,2.2,-1.6,3.5,-1.6c1.6,0,3,1,3,3.6v6.8h-1.6V85.1c0,-1.5,-.3,-2.6,-1.8,-2.6c-1.1,0,-2.1,.6,-3.1,1.5v7.4h-1.6Z" class="g1_4"/>
<path d="M171.3,84.7c0,-1.3,-1,-2.3,-2.3,-2.3c-1.4,0,-2.3,.9,-2.3,2.3c0,1.4,.9,2.4,2.3,2.4c1.3,0,2.3,-.9,2.3,-2.4m.9,8.8c0,-1.8,-3,-1.5,-4.9,-2.1c-.5,.4,-1.4,1,-1.4,1.9c0,1.3,1.3,2,3.1,2c2.2,0,3.2,-.8,3.2,-1.8m-7.7,.1c0,-1,.6,-2,1.9,-2.6c-.5,-.3,-.8,-.7,-.8,-1.3c0,-.4,.2,-1.2,1.1,-2c-.9,-.6,-1.6,-1.7,-1.6,-3c0,-2.1,1.6,-3.6,3.8,-3.6c.8,0,1.4,.2,1.9,.3q.1,.1,.2,0c.5,-.5,1.2,-.8,2.1,-.8c.2,0,.5,0,.6,.1l-.4,1.2c-.2,0,-.4,-.1,-.6,-.1c-.3,0,-.7,.1,-1,.3c.8,.7,1.2,1.7,1.2,2.6c0,2.2,-1.6,3.7,-3.9,3.7c-.5,0,-1,-.1,-1.4,-.2c-.3,.4,-.5,.8,-.5,1.1c0,2,6.7,.3,6.7,4c0,2,-1.9,3.2,-4.9,3.2c-2.7,0,-4.4,-1,-4.4,-2.9Z" class="g1_4"/>
<path d="M107.7,70.6c-1.4,.7,-2.8,1,-4.1,1c-4.4,0,-7,-3.1,-7,-7.4c0,-4.3,2.9,-7.6,7.3,-7.6c1.5,0,2.9,.3,3.6,.8v1.5c-1,-.5,-2.1,-.9,-3.6,-.9c-3.4,0,-5.6,2.6,-5.6,6.1c0,3.6,2.1,6.1,5.4,6.1c1.4,0,2.5,-.4,3.5,-.9Z" class="g1_4"/>
<path d="M112.7,56.7h7l-.5,1.4h-4.9v5.1h4.8v1.3h-4.8V70h5.6v1.4h-7.2Z" class="g1_4"/>
<path d="M125.3,56.7h1.6l6.8,8.9c.9,1.3,1.6,2.2,2.1,3h.1c-.1,-.8,-.1,-1.5,-.1,-2.6V56.7h1.7V71.4h-1.4L129,62.1C128.1,61,127.4,60,126.9,59.3c0,.7,.1,1.3,.1,2.5v9.6h-1.7Z" class="g1_4"/>
<path d="M152.1,65.3h-3.5L148.1,64h5.6v6.5c-1,.5,-2.7,1.1,-4.8,1.1c-4.3,0,-7.2,-3,-7.2,-7.4c0,-4.4,3,-7.6,7.6,-7.6c1.7,0,3.1,.4,4,.8v1.5c-1.1,-.5,-2.4,-.9,-4,-.9c-3.7,0,-5.9,2.5,-5.9,6.1c0,3.7,2.2,6.1,5.7,6.1c1.2,0,2.3,-.3,3,-.6Z" class="g1_4"/>
<path d="M165.3,66l-1.6,-4.2c-.4,-1.3,-.7,-2,-.8,-2.5h-.1c-.1,.5,-.4,1.2,-.9,2.5L160.4,66Zm-3,-9.3h1.1L169,71.4h-1.7l-1.5,-4h-5.9l-1.4,4h-1.8Z" class="g1_4"/>
<path d="M182.1,65.3h-3.4L178.2,64h5.6v6.5c-1,.5,-2.8,1.1,-4.9,1.1c-4.3,0,-7.2,-3,-7.2,-7.4c0,-4.4,3,-7.6,7.6,-7.6c1.7,0,3.1,.4,4,.8v1.5C182.2,58.4,181,58,179.4,58c-3.8,0,-6,2.5,-6,6.1c0,3.7,2.3,6.1,5.7,6.1c1.3,0,2.4,-.3,3,-.6Z" class="g1_4"/>
<path d="M188.6,56.7h7.1l-.5,1.4h-4.9v5.1h4.8v1.3h-4.8V70h5.5v1.4h-7.2Z" class="g1_4"/>
<path d="M176.1,81.9c.2,0,.3,0,.3,-.2c0,-.1,-.1,-.2,-.2,-.2H176v.4Zm-.5,-.7h.6c.4,0,.6,.2,.6,.5c0,.3,-.2,.4,-.4,.4c.1,.1,.1,.2,.2,.3l.3,.5h-.4l-.3,-.5q-.1,-.2,-.2,-.2v.7h-.4Zm1.8,.9c0,-.8,-.5,-1.3,-1.2,-1.3c-.7,0,-1.2,.5,-1.2,1.3c0,.7,.5,1.2,1.2,1.2c.7,0,1.2,-.5,1.2,-1.2m-2.8,0c0,-.9,.7,-1.6,1.6,-1.6c.8,0,1.5,.7,1.5,1.6c0,.8,-.7,1.5,-1.5,1.5c-.9,0,-1.6,-.7,-1.6,-1.5Z" class="g1_4"/>
<path d="M96.6,103H823.5" class="g7_4"/>
<path d="M97.2,955.3H389.9V121H97.2V955.3Z" class="g0_4"/>
<path d="M400.2,102.8V990.1" class="g7_4"/>
<path d="M422.9,411.2H806.7V307.4H422.9V411.2Z" class="g0_4"/>
<path d="M422.9,411.2H806.7V307.4H422.9V411.2Z" class="g8_4"/>
<image clip-path="url(#c0_4)" preserveAspectRatio="none" x="0" y="-19" width="935" height="61" xlink:href="img/1.png"/>
</svg>