<?xml version="1.0" encoding="UTF-8" standalone="no"?>
<!DOCTYPE svg PUBLIC "-//W3C//DTD SVG 1.1//EN"
"http://www.w3.org/Graphics/SVG/1.1/DTD/svg11.dtd">
<svg viewBox="0 0 931 1096" version="1.1" xmlns="http://www.w3.org/2000/svg" xmlns:xlink="http://www.w3.org/1999/xlink">
<defs>
<clipPath id="c0_215"><path d="M157,286.4V270.6h30.6v15.8Z"/></clipPath>
<style type="text/css"><![CDATA[
.g0_215{
fill: none;
stroke: #241F1F;
stroke-width: 0.534;
stroke-linecap: round;
stroke-linejoin: round;
}
.g1_215{
fill: none;
stroke: #241F1F;
stroke-width: 0.763;
stroke-miterlimit: 3;
}
.g2_215{
fill: none;
stroke: #241F1F;
stroke-width: 0.916;
}
.g3_215{
fill: none;
stroke: #241F1F;
stroke-width: 0.919;
stroke-linejoin: round;
}
.g4_215{
fill: none;
stroke: #241F1F;
stroke-width: 0.536;
stroke-linecap: round;
stroke-linejoin: round;
}
.g5_215{
fill: none;
stroke: #241F1F;
stroke-width: 0.43;
stroke-linecap: round;
stroke-linejoin: round;
}
.g6_215{
fill: none;
stroke: #241F1F;
stroke-width: 0.766;
stroke-miterlimit: 3;
}
.g7_215{
fill: none;
stroke: #241F1F;
stroke-width: 0.919;
stroke-linejoin: round;
stroke-dasharray: 8,4;
}
.g8_215{
fill: none;
stroke: #241F1F;
stroke-width: 0.913;
stroke-linecap: round;
stroke-linejoin: round;
}
.g9_215{
fill: none;
stroke: #241F1F;
stroke-width: 0.427;
stroke-linecap: round;
stroke-linejoin: round;
}
.ga_215{
fill: none;
stroke: #241F1F;
stroke-width: 0.533;
stroke-linecap: round;
stroke-linejoin: round;
}
.gb_215{
fill: none;
stroke: #241F1F;
stroke-width: 0.76;
stroke-miterlimit: 3;
}
.gc_215{
fill: none;
stroke: #241F1F;
stroke-width: 0.687;
stroke-miterlimit: 10;
}
.gd_215{
fill: none;
stroke: #241F1F;
stroke-width: 0.916;
stroke-linecap: square;
stroke-miterlimit: 10;
}
.ge_215{
fill: none;
stroke: #241F1F;
stroke-width: 0.536;
stroke-miterlimit: 10;
}
.gf_215{
fill: none;
stroke: #241F1F;
stroke-width: 0.921;
stroke-linecap: square;
stroke-miterlimit: 10;
}
.gg_215{
fill: #241F1F;
}
.gh_215{
fill: none;
stroke: #241F1F;
stroke-width: 0.763;
stroke-linecap: round;
stroke-dasharray: 8,4;
}
.gi_215{
fill: none;
stroke: #241F1F;
stroke-width: 0.381;
}
.gj_215{
fill: none;
stroke: #241F1F;
stroke-width: 0.533;
}
.gk_215{
fill: none;
stroke: #241F1F;
stroke-width: 0.915;
}
.gl_215{
fill: none;
stroke: #241F1F;
stroke-width: 0.533;
stroke-dasharray: 8,4;
}
.gm_215{
fill: none;
stroke: #241F1F;
stroke-width: 0.916;
stroke-linecap: round;
stroke-linejoin: round;
}
.gn_215{
fill: none;
stroke: #241F1F;
stroke-width: 0.763;
stroke-dasharray: 8,4;
}
.go_215{
fill: none;
stroke: #241F1F;
stroke-width: 0.534;
}
.gp_215{
fill: none;
stroke: #241F1F;
stroke-width: 0.458;
}
.gq_215{
fill: none;
stroke: #241F1F;
stroke-width: 0.481;
stroke-miterlimit: 10;
}
.gr_215{
fill: none;
stroke: #241F1F;
stroke-width: 0.536;
stroke-linecap: round;
stroke-linejoin: round;
}
.gs_215{
fill: none;
stroke: #241F1F;
stroke-width: 0.919;
stroke-linecap: round;
stroke-linejoin: round;
}
.gt_215{
fill: none;
stroke: #241F1F;
stroke-width: 0.536;
stroke-linecap: round;
stroke-linejoin: round;
stroke-dasharray: 7,4;
}
.gu_215{
fill: none;
stroke: #241F1F;
stroke-width: 0.383;
stroke-linecap: round;
stroke-linejoin: round;
}
.gv_215{
fill: none;
stroke: #241F1F;
stroke-width: 0.403;
stroke-linecap: round;
stroke-linejoin: round;
stroke-dasharray: 7,4;
}
.gw_215{
fill: none;
stroke: #241F1F;
stroke-width: 0.759;
stroke-linecap: round;
stroke-linejoin: round;
stroke-dasharray: 6,3;
}
.gx_215{
fill: none;
stroke: #241F1F;
stroke-width: 0.482;
stroke-linecap: round;
stroke-linejoin: round;
}
.gy_215{
fill: none;
stroke: #241F1F;
stroke-width: 0.345;
stroke-linecap: round;
stroke-linejoin: round;
}
.gz_215{
fill: none;
stroke: #241F1F;
stroke-width: 0.993;
stroke-linecap: square;
stroke-miterlimit: 10;
}
.g10_215{
fill: none;
stroke: #241F1F;
stroke-width: 0.916;
stroke-miterlimit: 3;
}
]]></style>
</defs>
<path d="M525.8,292.1h132m-88,38.5V244m-22,45.8v4.6m43.9,-4.6v4.6m22,-4.6v4.6m21.9,-4.6v4.6m-68.1,26.5h4.6m-4.6,-9.6h4.6m-4.6,-9.6h4.6m-4.6,-19.3h4.6m-4.6,-9.6h4.6m-4.6,-9.6h4.6m-4.6,-9.6h4.6" class="g0_215"/>
<path d="M531.3,244h121c3.1,0,5.5,2.4,5.5,5.5v75.6c0,3,-2.4,5.5,-5.5,5.5h-121c-3,0,-5.5,-2.5,-5.5,-5.5V249.5c0,-3.1,2.5,-5.5,5.5,-5.5Z" class="g1_215"/>
<path d="M530,244.1c2.2,15.6,5.7,28.3,10.9,28c4.4,-.3,6.4,-3.1,10.2,-3.1c15.6,.2,26.2,56,41.9,55c10.2,-.6,20.6,-22.1,30.5,-21.5c4.9,.3,6.8,.3,8.9,0c9.9,-1.4,14.7,-46.6,15,-58.1" class="g2_215"/>
<path d="M656,516.9l2.9,.1m-5.6,-.2l2.7,.1m-5.5,-.2l2.8,.1m-5.4,-.3l2.6,.2m-5.5,-.4l2.9,.2m-5.5,-.3l2.6,.1m-5.4,-.4l2.8,.3m-5.6,-.5l2.8,.2m-5.5,-.5l2.7,.3m-5.6,-.7l2.9,.4m-5.6,-.8l2.7,.4m-5.5,-.8l2.8,.4m-5.5,-.9l2.7,.5m-5.5,-1l2.8,.5m-5.4,-.8l2.6,.3m-5.4,-.6l2.8,.3m-5.5,-.1l2.7,-.2m-5.7,1.1l3,-.9m-5.7,2.3l2.7,-1.4m-5.5,3.3l2.8,-1.9m-5.6,4.1l2.8,-2.2m-5.5,4.2l2.7,-2m-5.3,3.7l2.6,-1.7m-5.5,3.5l2.9,-1.8m-5.7,3.5l2.8,-1.7m-5.4,3.6l2.6,-1.9m-5.5,4.7l2.9,-2.8M583,533l1.3,-1.9m-2.7,4.5L583,533m-2.8,6.5l1.4,-3.9M578.8,546l1.4,-6.5m-2.1,11.1l.7,-4.6m-1.4,11.2l.7,-6.6m-1,11l.3,-4.4m-.3,4.5v-.1m-5.8,-78.9l.5,-8M570.7,489l.6,-6.3m-2.1,15.2l1.5,-8.9m-3,13.8l1.5,-4.9m-2.8,7.6l1.3,-2.7m-2.5,4.6l1.2,-1.9m-4,4.7l2.8,-2.8m-5.7,4.7l2.9,-1.9m-5.7,3.1l2.8,-1.2m-5.4,2l2.6,-.8m-5.4,1.4l2.8,-.6m-5.6,1.1l2.8,-.5m-5.7,.9l2.9,-.4m-5.6,.7l2.7,-.3m-5.3,.5l2.6,-.2m-5.4,.5l2.8,-.3m-5.7,.5l2.9,-.2m-5.7,.3l2.8,-.1m-5.3,.2l2.5,-.1m-5.4,.3l2.9,-.2" class="g3_215"/>
<path d="M603.9,547.2h-3.5m3.5,-14.5h-3.5m3.5,-29h-3.5M640,519.8v-3.5m-75.7,3.5v-3.5m18.9,3.5v-3.5m-37.8,3.5v-3.5m75.7,3.5v-3.5M603.9,489.2h-3.5" class="g4_215"/>
<path d="M526.4,518.9v-.7m37.9,.7v-.7m75.7,.7v-.7" class="g5_215"/>
<path d="M532,474.4H653.5c3,0,5.5,2.5,5.5,5.5v75.9c0,3.1,-2.5,5.5,-5.5,5.5H532c-3,0,-5.5,-2.4,-5.5,-5.5V479.9c0,-3,2.5,-5.5,5.5,-5.5Z" class="g6_215"/>
<path d="M602.1,474.6v87" class="g4_215"/>
<path d="M574.2,474.6v86.9" class="g7_215"/>
<path d="M526.4,518.1H659" class="g4_215"/>
<path d="M655.5,797.6l.4,7.1M654.2,783l1.3,14.6m-2.6,-23.2l1.3,8.6m-4.1,-19.8l2.8,11.2m-5.4,-18.3l2.6,7.1m-5.5,-13.3l2.9,6.2M642,745.4l2.6,4.5m-5.3,-8.5l2.7,4m-5.5,-7.5l2.8,3.5m-5.5,-6.2l2.7,2.7m-5.6,-5l2.9,2.3m-5.6,-3.8l2.7,1.5m-5.4,-2.5l2.7,1M622.8,730l2.7,.4m-5.5,-.3l2.8,-.1m-5.3,.7l2.5,-.6m-5.4,1.6l2.9,-1m-5.6,2.2l2.7,-1.2m-5.6,2.9l2.9,-1.7m-5.6,3.2l2.7,-1.5m-5.4,2.7l2.7,-1.2m-5.6,1.3l2.9,-.1M598,734l2.7,3.4m-5.1,-17.7L598,734m-10.8,57.4l2.5,14.5m-5.3,-17.7l2.8,3.2m-5.5,-3.1l2.7,-.1m-5.5,1.4l2.8,-1.3m-5.4,2.7l2.6,-1.4m-5.5,3.1l2.9,-1.7m-5.4,2.9l2.5,-1.2m-5.5,2.2l3,-1m-5.5,1.6l2.5,-.6m-5.2,.7l2.7,-.1m-5.6,-.3l2.9,.4M557,794.1l2.8,1.1m-5.4,-2.5l2.6,1.4m-5.4,-3.6l2.8,2.2m-5.6,-5l2.8,2.8M546,784.2l2.8,3.5m-5.5,-7.5l2.7,4m-5.3,-8.5l2.6,4.5m-5.4,-10.5l2.8,6M535.1,762l2.8,7.7m-5.6,-19.3l2.8,11.6M531,742l1.3,8.4m-2.5,-22.3L531,742m-1.5,-21l.3,7.1" class="g8_215"/>
<path d="M592.1,805.9h.6m-1.1,-43.1h1.1m17,43.1h-.5m.5,-86.3h-.5m.7,86.3h-1M594.4,741.2h-3.5m3.5,43.2h-3.5" class="g9_215"/>
<path d="M592.7,805.9V719.6M527,762.8H658.5" class="ga_215"/>
<path d="M532.5,719.6H653c3,0,5.5,2.5,5.5,5.5v75.3c0,3,-2.5,5.5,-5.5,5.5H532.5c-3,0,-5.5,-2.5,-5.5,-5.5V725.1c0,-3,2.5,-5.5,5.5,-5.5Z" class="gb_215"/>
<path d="M550.8,764.5v-3.4m20.9,3.4v-3.4m-41.8,3.4v-3.4m104.6,3.4v-3.4m-20.9,3.4v-3.4m41.8,3.4v-3.4" class="ga_215"/>
<path d="M618.2,851.5H632m55,0h13.8m133.3,0h13.8M562.6,874.4h13.8m163.7,0h22m61.8,0h21.9m-169.9,23h22m72.5,0h20.7" class="gc_215"/>
<path d="M544.4,944.4H663.6c3.5,0,6.4,2.8,6.4,6.4v73.8c0,3.5,-2.9,6.4,-6.4,6.4H544.4c-3.5,0,-6.4,-2.9,-6.4,-6.4V950.8c0,-3.6,2.9,-6.4,6.4,-6.4Z" class="g1_215"/>
<path d="M538,960.3l.7,.1m0,0l.6,.2m0,0h.7m0,0l.6,.1m0,0l.7,.1m0,0h.6m0,0l.7,.1m0,0l.6,.1m0,0h.8m0,0l.5,.1m0,0l.8,.1m0,0h.7m0,0l.6,.2m0,0l.7,.1m0,0l.7,.1m0,0h.6m0,0l.7,.1m0,0l.6,.1m0,0l.7,.1m0,0h.6m0,0l.7,.1m0,0l.6,.2m0,0l.7,.1m0,0h.6m0,0l.7,.1m0,0l.6,.1m0,0l.8,.1m0,0l.7,.1m0,0l.6,.1m0,0h.7m0,0l.6,.2m0,0l.7,.1m0,0l.7,.1m0,0l.6,.1m0,0l.7,.1m0,0l.6,.1m0,0l.7,.1m0,0h.8m0,0l.6,.2m0,0l.7,.1m0,0l.6,.1m0,0l.7,.1m0,0l.6,.1m0,0l.7,.1m0,0l.6,.1m0,0l.7,.1m0,0l.6,.2m0,0l.7,.1m0,0l.7,.1m0,0l.6,.1m0,0l.8,.1m0,0l.7,.1m0,0l.6,.3m0,0l.6,.1m0,0l.7,.1m0,0l.7,.1m0,0l.6,.1m0,0l.7,.1m0,0l.6,.1m0,0l.7,.3m0,0l.6,.1m0,0l.7,.1m0,0l.6,.1m0,0l.7,.1m0,0l.8,.3m0,0l.5,.1m0,0l.7,.1m0,0l.7,.1m0,0l.7,.2m0,0l.7,.1m0,0l.6,.3m0,0l.7,.1m0,0l.6,.1m0,0l.7,.2m0,0l.6,.1m0,0l.7,.3m0,0l.8,.1m0,0l.5,.1m0,0l.6,.2m0,0l.8,.2m0,0l.7,.2m0,0l.6,.2m0,0l.7,.1m0,0l.6,.2m0,0l.7,.3m0,0l.7,.1m0,0l.6,.2m0,0l.7,.1m0,0l.6,.2m0,0l.7,.3m0,0l.6,.2m0,0l.7,.2m0,0l.8,.1m0,0l.5,.3m0,0l.8,.2m0,0l.6,.2m0,0l.7,.3m0,0l.6,.2m0,0l.7,.2m0,0l.6,.2m0,0l.7,.3m0,0l.6,.2m0,0l.7,.2m0,0l.7,.3m0,0l.7,.3m0,0l.6,.2m0,0l.6,.2m0,0l.8,.3m0,0l.7,.3m0,0l.6,.2m0,0l.7,.3m0,0l.6,.3m0,0l.7,.4m0,0l.6,.2m0,0l.7,.2m0,0l.6,.4m0,0l.7,.3m0,0l.6,.3m0,0l.7,.3m0,0l.8,.3m0,0l.5,.4m0,0l.8,.3m0,0l.7,.3m0,0l.6,.4m0,0l.7,.3m0,0l.6,.4m0,0l.7,.3m0,0l.6,.3m0,0l.7,.4m0,0l.6,.4m0,0l.8,.4m0,0l.5,.3m0,0l.8,.5m0,0l.5,.3m0,0l.8,.5m0,0l.7,.4m0,0l.6,.4m0,0l.7,.4m0,0l.6,.5m0,0l.7,.4m0,0l.7,.5m0,0l.6,.5m0,0l.7,.4m0,0l.6,.5m0,0l.7,.4m0,0l.6,.5m0,0l.7,.4m0,0l.8,.6m0,0l.5,.5m0,0l.8,.5m0,0l.6,.5m0,0l.7,.4m0,0l.6,.6m0,0l.7,.5m0,0l.6,.5m0,0l.7,.5m0,0l.6,.6m0,0l.7,.4m0,0l.7,.5m0,0l.6,.4m0,0l.8,.5m0,0l.5,.4m0,0l.8,.5m0,0l.7,.3m0,0l.6,.4m0,0l.7,.2m0,0l.6,.2m0,0l.7,.3m0,0h.6m0,0h.7m0,0l.6,-.1m0,0l.7,-.4m0,0l.6,-.4m0,0l.7,-.7m0,0l.7,-1m0,0l.7,-1.3m0,0l.6,-1.7m0,0l.7,-2.3m0,0l.7,-2.7m0,0l.6,-3.6m0,0l.7,-4.5m0,0l.7,-5.8m0,0l.6,-6.9m0,0l.7,-9.1m0,0l.6,-11.3m0,0l.2,-2.8" class="gd_215"/>
<path d="M724.5,944.7H844.2c3.5,0,6.4,2.9,6.4,6.5v74.1c0,3.6,-2.9,6.4,-6.4,6.4H724.5c-3.6,0,-6.4,-2.8,-6.4,-6.4V951.2c0,-3.6,2.8,-6.5,6.4,-6.5Z" class="g6_215"/>
<path d="M784.3,944.7v87m-66.2,-10.2H850.6" class="ge_215"/>
<path d="M718.1,1014.3l.6,-.1m0,0l.7,-.1m0,0l.6,-.1m0,0l.7,-.2m0,0l.6,-.1m0,0l.7,-.2m0,0l.7,-.1m0,0l.6,-.1m0,0l.8,-.3m0,0l.5,-.1m0,0l.8,-.2m0,0l.7,-.1m0,0l.6,-.2m0,0l.7,-.2m0,0l.6,-.2m0,0l.7,-.2m0,0l.6,-.1m0,0l.7,-.3m0,0l.7,-.2m0,0l.6,-.2m0,0l.7,-.2m0,0l.6,-.3m0,0l.7,-.3m0,0l.6,-.2m0,0l.7,-.3m0,0l.7,-.3m0,0l.8,-.2m0,0l.6,-.4m0,0l.7,-.2m0,0l.6,-.5m0,0l.7,-.2m0,0l.6,-.3m0,0l.7,-.5m0,0l.7,-.3m0,0l.6,-.4m0,0l.7,-.4m0,0l.6,-.5m0,0l.8,-.5m0,0l.7,-.4m0,0l.6,-.5m0,0l.7,-.5m0,0l.6,-.5m0,0l.7,-.6m0,0l.6,-.5m0,0l.7,-.6m0,0l.7,-.7m0,0l.6,-.7m0,0l.7,-.7m0,0l.6,-.8m0,0l.7,-.7m0,0l.8,-.9m0,0l.6,-.8m0,0l.7,-.9m0,0l.7,-.9m0,0l.6,-1m0,0l.7,-1.1m0,0l.6,-1m0,0l.7,-1.1m0,0l.6,-1.3m0,0l.7,-1.2m0,0l.6,-1.4m0,0l.7,-1.5m0,0l.7,-1.5m0,0l.6,-1.6m0,0l.8,-1.7m0,0l.5,-1.7m0,0l.7,-1.8m0,0l.8,-2.1m0,0l.6,-2.1m0,0l.7,-2.1m0,0l.6,-2.3m0,0l.7,-2.2m0,0l.7,-2.4m0,0l.6,-2.4m0,0l.7,-2.6m0,0l.6,-2.4m0,0l.8,-2.4m0,0l.5,-2m0,0l.7,-1.7m0,0l.8,-1.1m0,0l.6,-.1m0,0l.7,1.3m0,0l.7,3.6m0,0l.6,7.1m0,0l.7,12.9m0,0l.6,18.6m0,0l.7,34.6m0,0l.1,5.2m33.8,-86.9l.1,.6m0,0l.7,4.2m0,0l.6,3.8m0,0l.7,3.5m0,0l.6,3.2m0,0l.7,2.8m0,0l.7,2.9m0,0l.6,2.4m0,0l.7,2.6m0,0l.6,2.1m0,0l.8,2.2m0,0l.5,1.8m0,0l.8,2m0,0l.7,1.6m0,0l.6,1.6m0,0l.7,1.5m0,0l.7,1.5m0,0l.6,1.3m0,0l.7,1.3m0,0l.6,1.1m0,0l.7,1.2m0,0l.6,1m0,0l.7,1m0,0l.8,1.1m0,0l.5,.8m0,0l.8,.9m0,0l.7,.8m0,0l.6,.8m0,0l.7,.8m0,0l.6,.7m0,0l.7,.6m0,0l.6,.7m0,0l.7,.6m0,0l.7,.6m0,0l.6,.5m0,0l.7,.6m0,0l.6,.5m0,0l.7,.5m0,0l.8,.5m0,0l.5,.5m0,0l.8,.4m0,0l.6,.4m0,0l.7,.4m0,0l.7,.4m0,0l.6,.4m0,0l.7,.4m0,0l.6,.3m0,0l.7,.3m0,0l.8,.4m0,0l.5,.2m0,0l.7,.4m0,0l.7,.3m0,0l.7,.2m0,0l.7,.3m0,0l.6,.3m0,0l.7,.2m0,0l.6,.3m0,0l.7,.2m0,0l.6,.2m0,0l.7,.2m0,0l.6,.3m0,0l.7,.2" class="gf_215"/>
<path d="M318.7,164.6h132m-66,66v-121" class="g0_215"/>
<path d="M450.7,164.6l-1.2,-1.9l5,1.9l-5,1.9Z" class="gg_215"/>
<path d="M384.7,109.6l-1.9,1.2l1.9,-5l1.9,5Z" class="gg_215"/>
<path d="M401.3,108.1c1.8,14.6,4.6,18.8,9.5,18.8c4.9,0,19.6,-7.3,35.7,-19M306.2,213c19.4,-13.5,67.5,-48.6,78.5,-48.4c11.9,.2,10.7,33.7,11.4,56.5" class="g2_215"/>
<path d="M397.8,107.9v113m-92.6,-9.4L448.6,108.4" class="gh_215"/>
<path d="M383.2,164.6c0,-.8,.7,-1.5,1.5,-1.5c.9,0,1.6,.7,1.6,1.5c0,.9,-.7,1.6,-1.6,1.6c-.8,0,-1.5,-.7,-1.5,-1.6Z" class="gg_215"/>
<path d="M373.2,182.4l8.9,-13.9" class="gi_215"/>
<path d="M383.1,166.9l-2.4,1.7l1.3,.1l.6,1.1Z" class="gg_215"/>
<path d="M409.3,126.8c0,-.8,.7,-1.5,1.5,-1.5c.9,0,1.6,.7,1.6,1.5c0,.9,-.7,1.6,-1.6,1.6c-.8,0,-1.5,-.7,-1.5,-1.6Z" class="gg_215"/>
<path d="M320.3,340.2h103m-63,38.6V266.2" class="ga_215"/>
<path d="M423.3,340.2L422,338.3l5,1.9l-5,1.9Z" class="gg_215"/>
<path d="M360.3,266.2l-1.9,1.3l1.9,-5l1.8,5Z" class="gg_215"/>
<path d="M347.6,338.1v4.2m-12.5,-4.2v4.2" class="gj_215"/>
<path d="M371.5,264.9c.3,3.7,1.9,37.6,13.8,37.6c11.1,0,37.7,-27,37.8,-27.3M321.2,374.1c26.3,-30.9,27.5,-71.9,29.1,-109.4" class="gk_215"/>
<path d="M322.9,378L423.7,276.5" class="gl_215"/>
<path clip-path="url(#c0_215)" d="M178.9,271h9" class="gc_215"/>
<path d="M289,504.9H451.1m-87.2,16.5V413.2" class="g0_215"/>
<path d="M451.1,504.9l-1.4,-2.1l5.6,2.1l-5.6,2.1Z" class="gg_215"/>
<path d="M363.9,413.2l-2.1,1.4l2.1,-5.6l2.1,5.6Z" class="gg_215"/>
<path d="M289.9,516L451.2,457.6" class="gh_215"/>
<path d="M325.4,410.5c6.2,24,16.6,55.3,38.6,62.9c25.3,8.8,68.6,-10.7,85.8,-15.8" class="gm_215"/>
<path d="M361.7,473.3h4.5m-4.5,15.8h4.5" class="gn_215"/>
<path d="M385.7,502.6v4.6" class="go_215"/>
<path d="M377.3,475.7c0,-.9,.7,-1.7,1.7,-1.7c.9,0,1.7,.8,1.7,1.7c0,1,-.8,1.7,-1.7,1.7c-1,0,-1.7,-.7,-1.7,-1.7Z" class="gg_215"/>
<path d="M422.2,488.2h6.4M393.5,441.3H400m12.9,0h6.5" class="gp_215"/>
<path d="M392.5,455l-9.9,15.4" class="gi_215"/>
<path d="M381.5,472.2l2.7,-1.8l-1.5,-.1l-.6,-1.3Z" class="gg_215"/>
<path d="M202.7,442.6h4.7M233.1,493h4.8m20.1,0h4.7" class="gq_215"/>
<path d="M137.8,616.5H250.3M194,672.8V560.3" class="gr_215"/>
<path d="M140.5,654.1l4.4,-4.3l4.5,-4.4l4.4,-4.2l4.5,-4.2l4.5,-4l4.4,-3.9l4.5,-3.6l4.5,-3.2l4.4,-2.7l2.3,-1.1l2.2,-.8l1.1,-.4l1.1,-.2l1.1,-.2l.6,-.1l.6,-.1h.5l.6,-.1h1.9l.2,-.1h4.6l.5,-.1h.6l1.1,-.2l1.1,-.2l1.1,-.2l1.2,-.4m0,0l2.2,-.8l2.2,-1.1l4.5,-2.6l4.4,-3.3l4.5,-3.6l4.5,-3.9l4.4,-4l4.5,-4.2l4.5,-4.2l4.4,-4.3l4.5,-4.4" class="gs_215"/>
<path d="M140.5,650.7l4.4,-4.7l4.5,-4.7l4.4,-4.7l4.5,-4.6l4.5,-4.7l4.4,-4.7l4.5,-4.7l4.5,-4.7l4.4,-4.7l4.5,-4.7l4.5,-4.6l4.4,-4.7l4.5,-4.7l4.5,-4.7l4.4,-4.7l4.5,-4.7l4.4,-4.7l4.5,-4.7l4.5,-4.6m1.2,-1.4l-1.2,1.4M161.5,672.8l1.3,-1.4m0,0l4.4,-4.6l4.5,-4.7l4.5,-4.7l4.4,-4.7l4.5,-4.7l4.5,-4.7l4.4,-4.7l4.5,-4.6l4.5,-4.7l4.4,-4.7l4.5,-4.7l4.4,-4.7l4.5,-4.7l4.5,-4.7l4.4,-4.7l4.5,-4.6l4.5,-4.7l4.4,-4.7l4.5,-4.7" class="gt_215"/>
<path d="M137.8,616.5H250.3" class="gu_215"/>
<path fill-rule="evenodd" d="M250.3,616.5l-1.5,-2.1l5.7,2.1l-5.7,2.2Z" class="gg_215"/>
<path d="M194,672.8V560.3" class="gu_215"/>
<path fill-rule="evenodd" d="M194,560.3l-2.1,1.4l2.1,-5.6l2.1,5.6Z" class="gg_215"/>
<path d="M175.2,595h5.7m61.2,43.7h5.6" class="gv_215"/>
<path d="M428.3,573.3C413.8,614,404.1,624.1,375.8,624c-27.4,0,-37.5,9.8,-51.9,50.8" class="gw_215"/>
<path d="M418.8,626v-4m-86,4v-4m-11.7,2H436.9M373.8,586.4h4m-4,75.2h4m-2,13.9V569.3" class="gx_215"/>
<path d="M325.2,675l1.3,-4.1m0,0L331,659.8l4.5,-9l4.5,-7.1l4.5,-5.4l2.2,-2.2l2.2,-1.7l2.3,-1.4l1.1,-.6l1.1,-.5l1.1,-.4l1.2,-.4l.5,-.1l.6,-.1l.5,-.1l.6,-.1h.7l.1,-.1h1.4l.3,.1h.8l.6,.1l.6,.2l.5,.1l.6,.2l1.1,.5l1.1,.6l1.1,.9l1.2,1.2l.5,.8l.6,.9l.5,1l.6,1.3l.6,1.6l.5,2l.6,2.6l.5,3.4m0,0l.3,2.2l.3,2.6l.3,3.2l.3,4l.2,5.2l.3,6.9v3.6M377.5,573v2.9l.3,6.8l.2,5.2l.3,4l.3,3.2l.6,4.8l.5,3.5l.6,2.5l.5,2l.6,1.6l.6,1.3l.5,1.1l1.1,1.6l1.2,1.2l1.1,.9l1.1,.7l.6,.2l.5,.2l.6,.2l.5,.2l.6,.1l.6,.1h.2l.3,.1h2.3l.5,-.1h.6l.5,-.1l1.2,-.3l1.1,-.3l1.1,-.4l2.2,-1.1l2.3,-1.4l4.5,-3.9l4.4,-5.5l4.5,-7.1m0,0l4.5,-9l4.5,-11.1m1.2,-3.7l-1.2,3.7" class="gs_215"/>
<path d="M321.1,624H436.9" class="gy_215"/>
<path fill-rule="evenodd" d="M436.9,624l-1.2,-1.9l5,1.9l-5,1.9Z" class="gg_215"/>
<path d="M375.8,675.5V569.3" class="gy_215"/>
<path fill-rule="evenodd" d="M375.8,569.3l-1.9,1.3l1.9,-5.1l1.9,5.1Z" class="gg_215"/>
<path d="M124.8,884.4h132m-82.5,35.1V832.8m16.6,49.3v4.6m16.5,-4.6v4.6M224,882.1v4.6m16.5,-4.6v4.6m-82.7,-4.6v4.6m-16.6,-4.6v4.6M172,867h4.6M172,849.6h4.6M172,901.8h4.6" class="g0_215"/>
<path d="M130.3,832.8h121c3,0,5.5,2.5,5.5,5.5V914c0,3,-2.5,5.5,-5.5,5.5h-121c-3,0,-5.5,-2.5,-5.5,-5.5V838.3c0,-3,2.5,-5.5,5.5,-5.5Z" class="g1_215"/>
<path d="M133,919c1,-11.5,6.4,-47.6,16.3,-47.4c8,.3,15.3,13.3,25.2,12.8c18.1,-1,23.3,-21,43.5,-19.6c15.9,1.1,18.4,-7.5,24.7,-31.5" class="gz_215"/>
<path d="M306.4,876.1h132m-79,43.4V832.8m26.4,41.1v4.5m26.3,-4.5v4.5M333,873.9v4.5" class="g0_215"/>
<path d="M311.9,832.8h121c3.1,0,5.5,2.5,5.5,5.5V914c0,3,-2.4,5.5,-5.5,5.5h-121c-3,0,-5.5,-2.5,-5.5,-5.5V838.3c0,-3,2.5,-5.5,5.5,-5.5Z" class="g1_215"/>
<path d="M318,832.6c8.4,17.4,28.9,45.1,50.8,45.1c24.8,0,45.6,-33.8,51.3,-45" class="g2_215"/>
<path d="M124.7,1011.7H127m-2.3,-17.1H127m-2.3,-17.3H127M124.7,960H127m11.7,67.2v2.3m13,-2.3v2.3m13.1,-2.3v2.3m13.2,-2.3v2.3m13.2,-2.3v2.3m13.1,-2.3v2.3m13.1,-2.3v2.3m13.1,-2.3v2.3m13.1,-2.3v2.3" class="g0_215"/>
<path d="M130.2,942.8h121c3.1,0,5.5,2.5,5.5,5.5V1024c0,3,-2.4,5.5,-5.5,5.5h-121c-3,0,-5.5,-2.5,-5.5,-5.5V948.3c0,-3,2.5,-5.5,5.5,-5.5Z" class="g1_215"/>
<path d="M125.1,1015.6c12.6,-12.7,28.6,-18.8,42.8,-18.6c14.1,.2,17.7,2.1,31.2,1.9c33.9,-.4,48.5,-42.1,53.1,-55.6" class="g10_215"/>
</svg>