<?xml version="1.0" encoding="UTF-8" standalone="no"?>
<!DOCTYPE svg PUBLIC "-//W3C//DTD SVG 1.1//EN"
"http://www.w3.org/Graphics/SVG/1.1/DTD/svg11.dtd">
<svg viewBox="0 0 770 1017" version="1.1" xmlns="http://www.w3.org/2000/svg" xmlns:xlink="http://www.w3.org/1999/xlink">
<defs>
<clipPath id="c0_150"><path d="M201.1,407.5L194.9,406l6.2,-1.6h-7.8v3.1Zm304.2,0v-3.1h-7.8l6.2,1.6l-6.2,1.5ZM128.1,429.3V102.4h495V429.3Z"/></clipPath>
<clipPath id="c1_150"><path d="M556.5,387.4v-7.9l-1.5,6.3l-1.6,-6.3v7.9Zm0,-277.1v-7.8h-3.1v7.8l1.6,-6.2l1.5,6.2Zm-428.4,319V102.4h495V429.3Z"/></clipPath>
<style type="text/css"><![CDATA[
.g0_150{
fill: none;
stroke: #000000;
stroke-width: 0.618;
stroke-linecap: butt;
stroke-linejoin: miter;
}
.g1_150{
fill: none;
stroke: #000000;
stroke-width: 0.388;
stroke-linecap: butt;
stroke-linejoin: miter;
}
.g2_150{
stroke: #000000;
stroke-width: 0.388;
stroke-linecap: butt;
stroke-linejoin: miter;
}
.g3_150{
fill: none;
stroke: #000000;
stroke-width: 0.388;
stroke-linecap: butt;
stroke-linejoin: miter;
stroke-dasharray: 4;
}
.g4_150{
}
]]></style>
</defs>
<path d="M56,69.2H695.2" class="g0_150"/>
<path d="M419.1,173.1v62.1m0,-62.1l-19.4,62.1M357.1,173.1l19.4,62.1M357.1,173.1v62.1m0,-62.1l-19.4,62.1M357.1,111.1l62,62m-62,-62v62m0,-62l-62.1,62" class="g1_150"/>
<path fill-rule="evenodd" d="M421.8,173.1c0,1.5,-1.2,2.7,-2.7,2.7c-1.4,0,-2.6,-1.2,-2.6,-2.7c0,-1.4,1.2,-2.6,2.6,-2.6c1.5,0,2.7,1.2,2.7,2.6Z" class="g2_150"/>
<path fill-rule="evenodd" d="M359.7,173.1c0,1.5,-1.2,2.7,-2.7,2.7c-1.4,0,-2.6,-1.2,-2.6,-2.7c0,-1.4,1.2,-2.6,2.6,-2.6c1.5,0,2.7,1.2,2.7,2.6Z" class="g2_150"/>
<path fill-rule="evenodd" d="M359.7,108.4c0,1.5,-1.2,2.7,-2.7,2.7c-1.4,0,-2.6,-1.2,-2.6,-2.7c0,-1.4,1.2,-2.6,2.6,-2.6c1.5,0,2.7,1.2,2.7,2.6Z" class="g2_150"/>
<path d="M318.2,111.1c4.1,18.1,20.3,31,38.9,31c18.6,0,34.7,-12.9,38.8,-31" class="g3_150"/>
<path fill-rule="evenodd" d="M442.4,354.2c.8,0,1.4,.6,1.4,1.4c0,.7,-.6,1.3,-1.4,1.3c-.7,0,-1.4,-.6,-1.4,-1.3c0,-.8,.7,-1.4,1.4,-1.4Z" class="g2_150"/>
<path fill-rule="evenodd" d="M407.5,354.2c.8,0,1.4,.6,1.4,1.4c0,.7,-.6,1.3,-1.4,1.3c-.8,0,-1.4,-.6,-1.4,-1.3c0,-.8,.6,-1.4,1.4,-1.4Z" class="g2_150"/>
<path fill-rule="evenodd" d="M419.1,354.2c.8,0,1.4,.6,1.4,1.4c0,.7,-.6,1.3,-1.4,1.3c-.7,0,-1.4,-.6,-1.4,-1.3c0,-.8,.7,-1.4,1.4,-1.4Z" class="g2_150"/>
<path fill-rule="evenodd" d="M430.8,354.2c.8,0,1.4,.6,1.4,1.4c0,.7,-.6,1.3,-1.4,1.3c-.8,0,-1.4,-.6,-1.4,-1.3c0,-.8,.6,-1.4,1.4,-1.4Z" class="g2_150"/>
<path d="M481.2,324.5l19.4,62.1M481.2,328.4v58.2M419.1,173.1l19.4,62.1" class="g1_150"/>
<path clip-path="url(#c0_150)" d="M194.1,406H504.5" class="g1_150"/>
<path fill-rule="evenodd" d="M201.1,404.4l-6.2,1.6l6.2,1.5v-3.1Z" class="g2_150"/>
<path fill-rule="evenodd" d="M497.5,407.5l6.2,-1.5l-6.2,-1.6v3.1Z" class="g2_150"/>
<path clip-path="url(#c1_150)" d="M555,103.3V386.6" class="g1_150"/>
<path fill-rule="evenodd" d="M556.5,110.3L555,104.1l-1.6,6.2h3.1Z" class="g4_150"/>
<path d="M556.5,110.3L555,104.1l-1.6,6.2h3.1Z" class="g1_150"/>
<path fill-rule="evenodd" d="M553.4,379.5l1.6,6.3l1.5,-6.3h-3.1Z" class="g2_150"/>
<path d="M481.2,324.5l-19.4,62.1" class="g1_150"/>
<path fill-rule="evenodd" d="M379.1,386.6c0,1.4,-1.2,2.6,-2.6,2.6c-1.5,0,-2.7,-1.2,-2.7,-2.6c0,-1.5,1.2,-2.7,2.7,-2.7c1.4,0,2.6,1.2,2.6,2.7Z" class="g2_150"/>
<path fill-rule="evenodd" d="M340.3,386.6c0,1.4,-1.2,2.6,-2.6,2.6c-1.5,0,-2.7,-1.2,-2.7,-2.6c0,-1.5,1.2,-2.7,2.7,-2.7c1.4,0,2.6,1.2,2.6,2.7Z" class="g2_150"/>
<path fill-rule="evenodd" d="M359.7,386.6c0,1.4,-1.2,2.6,-2.7,2.6c-1.4,0,-2.6,-1.2,-2.6,-2.6c0,-1.5,1.2,-2.7,2.6,-2.7c1.5,0,2.7,1.2,2.7,2.7Z" class="g2_150"/>
<path fill-rule="evenodd" d="M358.4,293.4c0,.8,-.6,1.4,-1.4,1.4c-.7,0,-1.4,-.6,-1.4,-1.4c0,-.7,.7,-1.3,1.4,-1.3c.8,0,1.4,.6,1.4,1.3Z" class="g2_150"/>
<path fill-rule="evenodd" d="M358.4,258.5c0,.8,-.6,1.4,-1.4,1.4c-.7,0,-1.4,-.6,-1.4,-1.4c0,-.7,.7,-1.4,1.4,-1.4c.8,0,1.4,.7,1.4,1.4Z" class="g2_150"/>
<path fill-rule="evenodd" d="M358.4,270.2c0,.7,-.6,1.4,-1.4,1.4c-.7,0,-1.4,-.7,-1.4,-1.4c0,-.8,.7,-1.4,1.4,-1.4c.8,0,1.4,.6,1.4,1.4Z" class="g2_150"/>
<path fill-rule="evenodd" d="M358.4,281.8c0,.8,-.6,1.4,-1.4,1.4c-.7,0,-1.4,-.6,-1.4,-1.4c0,-.8,.7,-1.4,1.4,-1.4c.8,0,1.4,.6,1.4,1.4Z" class="g2_150"/>
<path d="M295,173.1l19.4,62.1M295,177v58.2m0,-62.1l-19.4,62.1" class="g1_150"/>
<path fill-rule="evenodd" d="M297.6,173.1c0,1.5,-1.2,2.7,-2.6,2.7c-1.5,0,-2.7,-1.2,-2.7,-2.7c0,-1.4,1.2,-2.6,2.7,-2.6c1.4,0,2.6,1.2,2.6,2.6Z" class="g2_150"/>
<path fill-rule="evenodd" d="M317,235.2c0,1.5,-1.2,2.7,-2.6,2.7c-1.5,0,-2.7,-1.2,-2.7,-2.7c0,-1.4,1.2,-2.6,2.7,-2.6c1.4,0,2.6,1.2,2.6,2.6Z" class="g2_150"/>
<path fill-rule="evenodd" d="M278.2,235.2c0,1.5,-1.2,2.7,-2.6,2.7c-1.5,0,-2.7,-1.2,-2.7,-2.7c0,-1.4,1.2,-2.6,2.7,-2.6c1.4,0,2.6,1.2,2.6,2.6Z" class="g2_150"/>
<path fill-rule="evenodd" d="M297.6,235.2c0,1.5,-1.2,2.7,-2.6,2.7c-1.5,0,-2.7,-1.2,-2.7,-2.7c0,-1.4,1.2,-2.6,2.7,-2.6c1.4,0,2.6,1.2,2.6,2.6Z" class="g2_150"/>
<path fill-rule="evenodd" d="M441.2,235.2c0,1.5,-1.2,2.7,-2.7,2.7c-1.4,0,-2.6,-1.2,-2.6,-2.7c0,-1.4,1.2,-2.6,2.6,-2.6c1.5,0,2.7,1.2,2.7,2.6Z" class="g2_150"/>
<path fill-rule="evenodd" d="M402.4,235.2c0,1.5,-1.2,2.7,-2.6,2.7c-1.5,0,-2.7,-1.2,-2.7,-2.7c0,-1.4,1.2,-2.6,2.7,-2.6c1.4,0,2.6,1.2,2.6,2.6Z" class="g2_150"/>
<path fill-rule="evenodd" d="M421.8,235.2c0,1.5,-1.2,2.7,-2.7,2.7c-1.4,0,-2.6,-1.2,-2.6,-2.7c0,-1.4,1.2,-2.6,2.6,-2.6c1.5,0,2.7,1.2,2.7,2.6Z" class="g2_150"/>
<path fill-rule="evenodd" d="M379.1,235.2c0,1.5,-1.2,2.7,-2.6,2.7c-1.5,0,-2.7,-1.2,-2.7,-2.7c0,-1.4,1.2,-2.6,2.7,-2.6c1.4,0,2.6,1.2,2.6,2.6Z" class="g2_150"/>
<path fill-rule="evenodd" d="M340.3,235.2c0,1.5,-1.2,2.7,-2.6,2.7c-1.5,0,-2.7,-1.2,-2.7,-2.7c0,-1.4,1.2,-2.6,2.7,-2.6c1.4,0,2.6,1.2,2.6,2.6Z" class="g2_150"/>
<path fill-rule="evenodd" d="M359.7,235.2c0,1.5,-1.2,2.7,-2.7,2.7c-1.4,0,-2.6,-1.2,-2.6,-2.7c0,-1.4,1.2,-2.6,2.6,-2.6c1.5,0,2.7,1.2,2.7,2.6Z" class="g2_150"/>
<path fill-rule="evenodd" d="M359.7,324.5c0,1.4,-1.2,2.6,-2.7,2.6c-1.4,0,-2.6,-1.2,-2.6,-2.6c0,-1.5,1.2,-2.7,2.6,-2.7c1.5,0,2.7,1.2,2.7,2.7Z" class="g2_150"/>
<path fill-rule="evenodd" d="M483.9,324.5c0,1.4,-1.2,2.6,-2.6,2.6c-1.5,0,-2.7,-1.2,-2.7,-2.6c0,-1.5,1.2,-2.7,2.7,-2.7c1.4,0,2.6,1.2,2.6,2.7Z" class="g2_150"/>
<path fill-rule="evenodd" d="M503.3,386.6c0,1.4,-1.2,2.6,-2.7,2.6c-1.4,0,-2.6,-1.2,-2.6,-2.6c0,-1.5,1.2,-2.7,2.6,-2.7c1.5,0,2.7,1.2,2.7,2.7Z" class="g2_150"/>
<path fill-rule="evenodd" d="M464.5,386.6c0,1.4,-1.2,2.6,-2.7,2.6c-1.4,0,-2.6,-1.2,-2.6,-2.6c0,-1.5,1.2,-2.7,2.6,-2.7c1.5,0,2.7,1.2,2.7,2.7Z" class="g2_150"/>
<path fill-rule="evenodd" d="M483.9,386.6c0,1.4,-1.2,2.6,-2.6,2.6c-1.5,0,-2.7,-1.2,-2.7,-2.6c0,-1.5,1.2,-2.7,2.7,-2.7c1.4,0,2.6,1.2,2.6,2.7Z" class="g2_150"/>
<path d="M287.2,324.5l19.4,62.1M287.2,328.4v58.2m0,-62.1l-19.4,62.1" class="g1_150"/>
<path fill-rule="evenodd" d="M289.8,324.5c0,1.4,-1.2,2.6,-2.6,2.6c-1.5,0,-2.6,-1.2,-2.6,-2.6c0,-1.5,1.1,-2.7,2.6,-2.7c1.4,0,2.6,1.2,2.6,2.7Z" class="g2_150"/>
<path fill-rule="evenodd" d="M309.2,386.6c0,1.4,-1.1,2.6,-2.6,2.6c-1.5,0,-2.6,-1.2,-2.6,-2.6c0,-1.5,1.1,-2.7,2.6,-2.7c1.5,0,2.6,1.2,2.6,2.7Z" class="g2_150"/>
<path fill-rule="evenodd" d="M270.4,386.6c0,1.4,-1.1,2.6,-2.6,2.6c-1.5,0,-2.6,-1.2,-2.6,-2.6c0,-1.5,1.1,-2.7,2.6,-2.7c1.5,0,2.6,1.2,2.6,2.7Z" class="g2_150"/>
<path fill-rule="evenodd" d="M289.8,386.6c0,1.4,-1.2,2.6,-2.6,2.6c-1.5,0,-2.6,-1.2,-2.6,-2.6c0,-1.5,1.1,-2.7,2.6,-2.7c1.4,0,2.6,1.2,2.6,2.7Z" class="g2_150"/>
<path d="M217.4,324.5l19.4,62.1M217.4,328.4v58.2m0,-62.1l-19.5,62.1" class="g1_150"/>
<path fill-rule="evenodd" d="M220,324.5c0,1.4,-1.2,2.6,-2.7,2.6c-1.4,0,-2.6,-1.2,-2.6,-2.6c0,-1.5,1.2,-2.7,2.6,-2.7c1.5,0,2.7,1.2,2.7,2.7Z" class="g2_150"/>
<path fill-rule="evenodd" d="M239.4,386.6c0,1.4,-1.2,2.6,-2.6,2.6c-1.5,0,-2.7,-1.2,-2.7,-2.6c0,-1.5,1.2,-2.7,2.7,-2.7c1.4,0,2.6,1.2,2.6,2.7Z" class="g2_150"/>
<path fill-rule="evenodd" d="M200.6,386.6c0,1.4,-1.2,2.6,-2.6,2.6c-1.5,0,-2.7,-1.2,-2.7,-2.6c0,-1.5,1.2,-2.7,2.7,-2.7c1.4,0,2.6,1.2,2.6,2.7Z" class="g2_150"/>
<path fill-rule="evenodd" d="M220,386.6c0,1.4,-1.2,2.6,-2.7,2.6c-1.4,0,-2.6,-1.2,-2.6,-2.6c0,-1.5,1.2,-2.7,2.6,-2.7c1.5,0,2.7,1.2,2.7,2.7Z" class="g2_150"/>
<path d="M357.1,324.5l19.4,62.1M357.1,328.4v58.2m0,-62.1l-19.4,62.1" class="g1_150"/>
<path d="M65.1,500.5h621" class="g0_150"/>
</svg>