<?xml version="1.0" encoding="UTF-8" standalone="no"?>
<!DOCTYPE svg PUBLIC "-//W3C//DTD SVG 1.1//EN"
"http://www.w3.org/Graphics/SVG/1.1/DTD/svg11.dtd">
<svg viewBox="0 0 931 1096" version="1.1" xmlns="http://www.w3.org/2000/svg" xmlns:xlink="http://www.w3.org/1999/xlink">
<defs>
<clipPath id="c0_318"><path d="M51.8,1044.7V95.8H931.9v948.9Z"/></clipPath>
<clipPath id="c1_318"><path d="M553.4,585.7V547h63.4v38.7Z"/></clipPath>
<clipPath id="c2_318"><path d="M347.2,981V724.3H784.9V981Z"/></clipPath>
<clipPath id="c3_318"><path d="M202.7,494.5c-42.4,0,-76.9,-34.4,-76.9,-76.9c0,-42.5,34.5,-76.9,76.9,-76.9c42.5,0,76.9,34.4,76.9,76.9c0,42.5,-34.4,76.9,-76.9,76.9Z"/></clipPath>
<clipPath id="c4_318"><path d="M275.4,667.7c-3.3,0,-6.1,-2.8,-6.1,-6.2c0,-3.3,2.8,-6.1,6.1,-6.1c3.4,0,6.1,2.8,6.1,6.1c0,3.4,-2.7,6.2,-6.1,6.2Z"/></clipPath>
<clipPath id="c5_318"><path d="M275.4,693.1c-3.3,0,-6.1,-2.7,-6.1,-6.1c0,-3.4,2.8,-6.1,6.1,-6.1c3.4,0,6.1,2.7,6.1,6.1c0,3.4,-2.7,6.1,-6.1,6.1Z"/></clipPath>
<clipPath id="c6_318"><path d="M67.2,802.7V574.2H282V802.7Z"/></clipPath>
<clipPath id="c7_318"><path d="M84.4,791.8l.1,-.3l1.2,.1l.2,.2Z"/></clipPath>
<clipPath id="c8_318"><path d="M88.2,791.8H86.3c.3,-.3,.9,-.4,1.2,-.4c.2,0,.5,0,.7,0c.2,0,.3,0,.4,0c.2,.2,-.1,.3,-.4,.4Z"/></clipPath>
<clipPath id="c9_318"><path d="M78.8,791.8v-.4l1.2,.2v.2Z"/></clipPath>
<clipPath id="ca_318"><path d="M82.3,791.8H80.5c.5,-.2,.9,-.5,1.2,-.5c.2,-.1,.6,-.1,.8,-.1q.1,0,.2,0c.3,.2,-.1,.5,-.4,.6Z"/></clipPath>
<clipPath id="cb_318"><path d="M84.7,771.6l-.3,-.1l-3.5,-.4l-2.3,-3.8h-.1c-.1,-.1,-.1,-.2,0,-.2c.1,-.1,0,-.3,0,-.3c-.1,-.1,0,-.3,0,-.3c.1,0,.1,-1,.2,-1.4c0,0,0,-.9,0,-1.2c0,-.3,.1,-.9,.1,-.9c.1,-.5,.2,-.7,.4,-.9c.3,-.2,.6,-.4,1,-.4c.2,-.2,.9,-.2,1.2,-.8c.2,.3,.4,.3,.9,.7c.5,.3,.6,.4,.8,.4c.4,0,.6,-.4,.5,-.5c.6,.2,.9,.1,1.4,.4c.8,.5,1,1.3,1,2.2c0,.8,-.1,1.2,-.1,2c0,1.3,-.4,2,-.4,3.2c0,.7,.1,.3,.3,1.1v1.2Z"/></clipPath>
<clipPath id="cc_318"><path d="M81.4,772.9l-.1,-.1c-.1,-.1,0,-.2,0,-.2h.1c0,0,0,.2,.1,.3h-.1Z"/></clipPath>
<clipPath id="cd_318"><path d="M82.6,759c-.1,0,-.2,-.1,-.3,-.3c0,-.1,-.2,-.1,-.2,-.3c-.1,-.1,0,-.3,.2,-.4h.1c.1,0,.2,0,.2,.1c0,.6,.3,.6,.1,.8c0,0,-.1,.1,-.1,.1Z"/></clipPath>
<clipPath id="ce_318"><path d="M82.4,758.5c0,-.1,-.1,0,-.1,-.1q0,-.1,.1,-.2q0,.1,0,.2c0,0,0,.1,0,.1Z"/></clipPath>
<clipPath id="cf_318"><path d="M82.4,758.4v-.1q0,-.1,0,-.1c0,0,0,-.1,0,-.1c0,0,.1,0,.1,.1c0,.1,-.1,.2,-.1,.2Z"/></clipPath>
<clipPath id="cg_318"><path d="M82.5,758.8c-.1,-.1,-.1,-.2,-.2,-.2c0,-.1,-.1,-.2,-.1,-.2c-.1,-.2,0,-.3,.2,-.3h.1q-.1,0,-.1,0c-.2,0,-.2,.1,-.2,.3c0,0,.1,.1,.1,.1c.1,.1,.1,.2,.2,.3Z"/></clipPath>
<clipPath id="ch_318"><path d="M82.5,758.6q-.1,0,-.1,-.1c0,0,0,-.1,.1,-.1v.2Z"/></clipPath>
<clipPath id="ci_318"><path d="M84.2,757.8c.1,-.1,.3,-.2,.3,-.2h.2c-.1,0,-.1,.1,-.1,.1c0,0,0,-.1,-.1,-.1c0,0,-.1,.1,0,.2q-.1,-.1,-.1,-.1c0,0,-.1,.1,-.2,.1Z"/></clipPath>
<clipPath id="cj_318"><path d="M84.5,757.8c0,0,-.1,0,-.1,-.1c0,0,.1,-.1,.1,-.1q.1,0,.1,.1v.1c0,0,-.1,0,-.1,0Z"/></clipPath>
<clipPath id="ck_318"><path d="M80.1,604.4l1.1,-10.1l-8.6,6.5l3.9,-6.5l-7.9,-.1l6.8,-4.5l-5,-7.9l9.3,3.9L75.8,576l6.8,5.1l2.9,-6.9l1.4,7.2l6.9,-6.5l-2.9,8.7l9.3,-.4l-8.6,6l8.3,5.6l-10.3,.7l.8,8.4l-6.3,-5.6l-4,6.1Z"/></clipPath>
<clipPath id="cl_318"><path d="M84.1,598.3c-4.8,0,-8.7,-3.9,-8.7,-8.6c0,-4.8,3.9,-8.6,8.7,-8.6c4.7,0,8.6,3.8,8.6,8.6c0,4.7,-3.9,8.6,-8.6,8.6Z"/></clipPath>
<clipPath id="cm_318"><path d="M226.4,149.4c-.6,0,-1.1,-.4,-1.2,-.9c-.1,-.8,.8,-1.5,.3,-2.7c.6,.6,1.7,1.4,1.9,2.2c.1,.6,-.3,1.3,-.8,1.4c-.1,0,-.2,0,-.2,0Z"/></clipPath>
<clipPath id="cn_318"><path d="M229.2,150.7c-.5,0,-.9,-.3,-1,-.7c-.1,-.7,.7,-1.3,.3,-2.3c.4,.5,1.4,1.2,1.5,1.9c.1,.4,-.2,1,-.7,1.1c0,0,-.1,0,-.1,0Z"/></clipPath>
<clipPath id="co_318"><path d="M229.4,154.9c-.4,0,-.8,-.3,-.8,-.7c-.2,-.7,.7,-1,.4,-2.2c.7,.5,1.3,.6,1.5,1.4c.1,.6,-.1,1.1,-.6,1.4c-.2,.1,-.3,.1,-.5,.1Z"/></clipPath>
<clipPath id="cp_318"><path d="M227.3,153c-.5,0,-.9,-.4,-1,-.8c-.1,-.6,.7,-1.2,.3,-2.2c.4,.5,1.4,1.1,1.5,1.8c.1,.5,-.2,1.1,-.7,1.1c0,.1,-.1,.1,-.1,.1Z"/></clipPath>
<clipPath id="cq_318"><path d="M223.4,148.7c-.5,0,-.9,-.3,-1,-.7c-.1,-.7,.7,-1.3,.3,-2.2c.4,.5,1.3,1.1,1.5,1.8c.1,.5,-.2,1,-.7,1.1c0,0,-.1,0,-.1,0Z"/></clipPath>
<clipPath id="cr_318"><path d="M225.4,154.8c-.4,0,-.9,-.3,-1,-.8c-.1,-.6,.7,-1.2,.3,-2.2c.4,.5,1.4,1.2,1.5,1.9c.1,.4,-.2,1,-.7,1.1c0,0,-.1,0,-.1,0Z"/></clipPath>
<clipPath id="cs_318"><path d="M232.6,153.1c-.5,0,-1,-.5,-1.1,-1c-.2,-.8,.7,-1.5,.3,-2.7c.5,.6,1.7,1.4,1.8,2.2c.1,.6,-.2,1.3,-.8,1.4c-.1,0,-.1,.1,-.2,.1Z"/></clipPath>
<clipPath id="ct_318"><path d="M230.4,147.7c-.5,0,-.9,-.4,-1,-.8c-.1,-.6,.6,-1.2,.3,-2.2c.4,.5,1.3,1.2,1.5,1.8c.1,.5,-.2,1.1,-.7,1.2q-.1,0,-.1,0Z"/></clipPath>
<clipPath id="cu_318"><path d="M218.7,152.8c-.4,0,-.8,-.3,-.9,-.7c-.1,-.7,.6,-1.3,.3,-2.3c.4,.5,1.4,1.2,1.5,1.9c.1,.5,-.2,1,-.7,1.1q-.1,0,-.2,0Z"/></clipPath>
<clipPath id="cv_318"><path d="M222.2,155.2c-.5,0,-1,-.5,-1.1,-1c-.2,-.7,.7,-1.5,.3,-2.7c.5,.6,1.7,1.4,1.8,2.3c.1,.5,-.3,1.2,-.8,1.3q-.1,.1,-.2,.1Z"/></clipPath>
<clipPath id="cw_318"><path d="M219.9,149.8c-.4,0,-.8,-.4,-.9,-.8c-.1,-.6,.6,-1.2,.3,-2.2c.4,.5,1.3,1.1,1.5,1.8c.1,.5,-.2,1.1,-.7,1.2q-.1,0,-.2,0Z"/></clipPath>
<clipPath id="cx_318"><path d="M224.2,138.9c-.5,0,-1.1,-.4,-1.2,-.9c-.1,-.8,.8,-1.5,.3,-2.7c.6,.5,1.7,1.4,1.9,2.2c.1,.6,-.3,1.3,-.8,1.4c-.1,0,-.2,0,-.2,0Z"/></clipPath>
<clipPath id="cy_318"><path d="M226.9,140.2c-.4,0,-.8,-.3,-.9,-.7c-.1,-.7,.7,-1.3,.3,-2.3c.4,.5,1.4,1.2,1.5,1.9c.1,.4,-.2,1,-.7,1.1c0,0,-.1,0,-.2,0Z"/></clipPath>
<clipPath id="cz_318"><path d="M227.2,144.4c-.4,0,-.8,-.3,-.8,-.7c-.2,-.8,.7,-1,.4,-2.2c.7,.5,1.3,.6,1.5,1.4c.1,.6,-.1,1.1,-.6,1.4c-.2,.1,-.3,.1,-.5,.1Z"/></clipPath>
<clipPath id="c10_318"><path d="M225.1,142.4c-.5,0,-.9,-.3,-1,-.7c-.1,-.6,.7,-1.3,.3,-2.2c.4,.5,1.4,1.1,1.5,1.8c.1,.5,-.2,1,-.7,1.1c0,0,-.1,0,-.1,0Z"/></clipPath>
<clipPath id="c11_318"><path d="M223.2,144.3c-.5,0,-.9,-.3,-1,-.8c-.1,-.6,.7,-1.2,.3,-2.2c.4,.5,1.4,1.2,1.5,1.9c.1,.4,-.2,1,-.7,1.1c0,0,-.1,0,-.1,0Z"/></clipPath>
<clipPath id="c12_318"><path d="M230.4,142.5c-.5,0,-1,-.4,-1.1,-.9c-.2,-.8,.8,-1.5,.3,-2.7c.5,.6,1.7,1.4,1.8,2.3c.1,.5,-.2,1.2,-.8,1.3q-.1,0,-.2,0Z"/></clipPath>
<clipPath id="c13_318"><path d="M228.2,137.2c-.5,0,-.9,-.4,-1,-.8c-.1,-.6,.7,-1.2,.3,-2.2c.4,.5,1.3,1.1,1.5,1.8c.1,.5,-.2,1.1,-.7,1.2q-.1,0,-.1,0Z"/></clipPath>
<clipPath id="c14_318"><path d="M235.2,140.4c-.4,0,-.9,-.4,-1,-.8c-.1,-.6,.7,-1.2,.3,-2.2c.4,.5,1.4,1.1,1.5,1.8c.1,.5,-.2,1,-.7,1.1c0,.1,-.1,.1,-.1,.1Z"/></clipPath>
<clipPath id="c15_318"><path d="M231.3,136.1c-.4,0,-.9,-.3,-1,-.7c-.1,-.7,.7,-1.2,.3,-2.2c.4,.4,1.4,1.1,1.5,1.8c.1,.5,-.2,1,-.7,1.1c0,0,-.1,0,-.1,0Z"/></clipPath>
<clipPath id="c16_318"><path d="M233.3,142.2c-.4,0,-.9,-.3,-.9,-.8c-.2,-.6,.6,-1.2,.2,-2.2c.5,.5,1.4,1.2,1.5,1.9c.1,.4,-.2,1,-.7,1.1c0,0,-.1,0,-.1,0Z"/></clipPath>
<clipPath id="c17_318"><path d="M220.1,144.8c-.5,0,-1,-.4,-1.1,-.9c-.2,-.8,.7,-1.5,.3,-2.7c.5,.6,1.7,1.4,1.8,2.2c.1,.6,-.2,1.3,-.8,1.4q-.1,0,-.2,0Z"/></clipPath>
<style type="text/css"><![CDATA[
.g0_318{
fill: none;
stroke: #008048;
stroke-width: 3.055;
stroke-miterlimit: 10;
}
.g1_318{
fill: none;
stroke: #241F1F;
stroke-width: 0.687;
stroke-miterlimit: 10;
}
.g2_318{
fill: none;
stroke: #241F1F;
stroke-width: 0.481;
stroke-miterlimit: 10;
}
.g3_318{
fill: #CFEDFC;
}
.g4_318{
fill: #D0EEFC;
}
.g5_318{
fill: #D1EEFC;
}
.g6_318{
fill: #D2EEFC;
}
.g7_318{
fill: #D3EFFC;
}
.g8_318{
fill: #D4EFFC;
}
.g9_318{
fill: #D5EFFC;
}
.ga_318{
fill: #D6F0FC;
}
.gb_318{
fill: #D7F0FC;
}
.gc_318{
fill: #D8F1FD;
}
.gd_318{
fill: #D9F1FD;
}
.ge_318{
fill: #DAF1FD;
}
.gf_318{
fill: #DBF2FD;
}
.gg_318{
fill: #DCF2FD;
}
.gh_318{
fill: #DDF2FD;
}
.gi_318{
fill: #DEF3FD;
}
.gj_318{
fill: #DFF3FD;
}
.gk_318{
fill: #E0F4FD;
}
.gl_318{
fill: #E1F4FD;
}
.gm_318{
fill: #E2F4FD;
}
.gn_318{
fill: #E3F5FD;
}
.go_318{
fill: #E4F5FD;
}
.gp_318{
fill: #E5F5FD;
}
.gq_318{
fill: #E6F6FD;
}
.gr_318{
fill: #E7F6FE;
}
.gs_318{
fill: #E8F6FE;
}
.gt_318{
fill: #E9F7FE;
}
.gu_318{
fill: #EAF7FE;
}
.gv_318{
fill: #EBF8FE;
}
.gw_318{
fill: #ECF8FE;
}
.gx_318{
fill: #EDF8FE;
}
.gy_318{
fill: #EEF9FE;
}
.gz_318{
fill: #EFF9FE;
}
.g10_318{
fill: #F1F9FE;
}
.g11_318{
fill: #F2FAFE;
}
.g12_318{
fill: #F3FAFE;
}
.g13_318{
fill: #F4FBFE;
}
.g14_318{
fill: #F5FBFE;
}
.g15_318{
fill: #F6FBFE;
}
.g16_318{
fill: #F7FCFE;
}
.g17_318{
fill: #F7FCFF;
}
.g18_318{
fill: #F8FCFF;
}
.g19_318{
fill: #F9FDFF;
}
.g1a_318{
fill: #FAFDFF;
}
.g1b_318{
fill: #FBFDFF;
}
.g1c_318{
fill: #FCFEFF;
}
.g1d_318{
fill: #FDFEFF;
}
.g1e_318{
fill: #FEFFFF;
}
.g1f_318{
fill: #FFF;
}
.g1g_318{
fill: none;
stroke: #72D0F6;
stroke-width: 0.916;
stroke-miterlimit: 3;
}
.g1h_318{
fill: none;
stroke: #EE008C;
stroke-width: 0.916;
stroke-miterlimit: 3;
}
.g1i_318{
fill: #EE008C;
}
.g1j_318{
fill: none;
stroke: #241F1F;
stroke-width: 0.763;
stroke-miterlimit: 3;
stroke-dasharray: 10,4;
}
.g1k_318{
fill: #4ACAF5;
}
.g1l_318{
fill: #6BCFF6;
}
.g1m_318{
fill: #87D6F8;
}
.g1n_318{
fill: #A1DEF9;
}
.g1o_318{
fill: #B8E5FA;
}
.g1p_318{
fill: none;
stroke: #241F1F;
stroke-width: 0.381;
stroke-miterlimit: 3;
}
.g1q_318{
fill: #241F1F;
}
.g1r_318{
fill: none;
stroke: #D8B580;
stroke-width: 0.611;
stroke-miterlimit: 3;
}
.g1s_318{
fill: none;
stroke: #EE008C;
stroke-width: 0.916;
stroke-linejoin: round;
}
.g1t_318{
fill: none;
stroke: #241F1F;
stroke-width: 0.611;
stroke-miterlimit: 3;
}
.g1u_318{
fill: none;
stroke: #EAD1B1;
stroke-width: 0.611;
stroke-miterlimit: 3;
}
.g1v_318{
fill: none;
stroke: #EAD3B4;
stroke-width: 0.611;
stroke-miterlimit: 3;
}
.g1w_318{
fill: none;
stroke: #EBD5B7;
stroke-width: 0.611;
stroke-miterlimit: 3;
}
.g1x_318{
fill: none;
stroke: #EBD6BA;
stroke-width: 0.611;
stroke-miterlimit: 3;
}
.g1y_318{
fill: none;
stroke: #EBD7BD;
stroke-width: 0.611;
stroke-miterlimit: 3;
}
.g1z_318{
fill: none;
stroke: #ECD9BF;
stroke-width: 0.611;
stroke-miterlimit: 3;
}
.g20_318{
fill: none;
stroke: #ECDAC2;
stroke-width: 0.611;
stroke-miterlimit: 3;
}
.g21_318{
fill: none;
stroke: #EDDCC5;
stroke-width: 0.611;
stroke-miterlimit: 3;
}
.g22_318{
fill: none;
stroke: #EEDEC8;
stroke-width: 0.611;
stroke-miterlimit: 3;
}
.g23_318{
fill: none;
stroke: #EDDFCC;
stroke-width: 0.611;
stroke-miterlimit: 3;
}
.g24_318{
fill: none;
stroke: #EDE1CF;
stroke-width: 0.611;
stroke-miterlimit: 3;
}
.g25_318{
fill: none;
stroke: #EEE2D1;
stroke-width: 0.611;
stroke-miterlimit: 3;
}
.g26_318{
fill: none;
stroke: #EFE4D5;
stroke-width: 0.611;
stroke-miterlimit: 3;
}
.g27_318{
fill: none;
stroke: #EFE5D7;
stroke-width: 0.611;
stroke-miterlimit: 3;
}
.g28_318{
fill: none;
stroke: #EFE7DA;
stroke-width: 0.611;
stroke-miterlimit: 3;
}
.g29_318{
fill: none;
stroke: #EFE8DD;
stroke-width: 0.611;
stroke-miterlimit: 3;
}
.g2a_318{
fill: none;
stroke: #F0EAE0;
stroke-width: 0.611;
stroke-miterlimit: 3;
}
.g2b_318{
fill: none;
stroke: #F0EBE3;
stroke-width: 0.611;
stroke-miterlimit: 3;
}
.g2c_318{
fill: none;
stroke: #F0EDE6;
stroke-width: 0.611;
stroke-miterlimit: 3;
}
.g2d_318{
fill: none;
stroke: #F0EEE8;
stroke-width: 0.611;
stroke-miterlimit: 3;
}
.g2e_318{
fill: none;
stroke: #F0EFEB;
stroke-width: 0.611;
stroke-miterlimit: 3;
}
.g2f_318{
fill: none;
stroke: #F1F1EE;
stroke-width: 0.611;
stroke-miterlimit: 3;
}
.g2g_318{
fill: none;
stroke: #F1F2F1;
stroke-width: 0.611;
stroke-miterlimit: 3;
}
.g2h_318{
fill: none;
stroke: #F1F2F2;
stroke-width: 0.611;
stroke-miterlimit: 3;
}
.g2i_318{
fill: none;
stroke: #F2F4F5;
stroke-width: 0.611;
stroke-miterlimit: 3;
}
.g2j_318{
fill: none;
stroke: #F1F4F6;
stroke-width: 0.611;
stroke-miterlimit: 3;
}
.g2k_318{
fill: #E6CBA5;
}
.g2l_318{
fill: #656365;
}
.g2m_318{
fill: #545152;
}
.g2n_318{
fill: #444041;
}
.g2o_318{
fill: #332E2F;
}
.g2p_318{
fill: none;
stroke: #241F1F;
stroke-width: 0.305;
stroke-miterlimit: 3;
}
.g2q_318{
fill: none;
stroke: #7B5A4C;
stroke-width: 0.305;
stroke-miterlimit: 3;
}
.g2r_318{
fill: none;
stroke: #D8B580;
stroke-width: 0.305;
stroke-miterlimit: 3;
}
.g2s_318{
fill: #EAD1B1;
}
.g2t_318{
fill: #EDD7BA;
}
.g2u_318{
fill: #F0DCC3;
}
.g2v_318{
fill: #F1E1CB;
}
.g2w_318{
fill: #839EC5;
}
.g2x_318{
fill: #97ACCE;
}
.g2y_318{
fill: none;
stroke: #2E77AA;
stroke-width: 0.305;
stroke-miterlimit: 3;
}
.g2z_318{
fill: none;
stroke: #457CAC;
stroke-width: 0.305;
stroke-linecap: round;
stroke-miterlimit: 3;
}
.g30_318{
fill: none;
stroke: #5081B0;
stroke-width: 0.305;
stroke-linecap: round;
stroke-miterlimit: 3;
}
.g31_318{
fill: none;
stroke: #5985B3;
stroke-width: 0.305;
stroke-linecap: round;
stroke-miterlimit: 3;
}
.g32_318{
fill: none;
stroke: #618AB7;
stroke-width: 0.305;
stroke-linecap: round;
stroke-miterlimit: 3;
}
.g33_318{
fill: none;
stroke: #6A8FBA;
stroke-width: 0.305;
stroke-linecap: round;
stroke-miterlimit: 3;
}
.g34_318{
fill: none;
stroke: #7294BE;
stroke-width: 0.305;
stroke-linecap: round;
stroke-miterlimit: 3;
}
.g35_318{
fill: none;
stroke: #7A99C1;
stroke-width: 0.305;
stroke-linecap: round;
stroke-miterlimit: 3;
}
.g36_318{
fill: none;
stroke: #839EC5;
stroke-width: 0.305;
stroke-linecap: round;
stroke-miterlimit: 3;
}
.g37_318{
fill: #F8D3B9;
}
.g38_318{
fill: none;
stroke: #F7C8A7;
stroke-width: 0.305;
stroke-miterlimit: 3;
}
.g39_318{
fill: #F1C067;
}
.g3a_318{
fill: none;
stroke: #EEB958;
stroke-width: 0.305;
stroke-miterlimit: 3;
}
.g3b_318{
fill: #F2C777;
}
.g3c_318{
fill: #F7D494;
}
.g3d_318{
fill: #FADECA;
}
.g3e_318{
fill: #FAD8C1;
}
.g3f_318{
fill: #F8CDB0;
}
.g3g_318{
fill: #F7C8A7;
}
.g3h_318{
fill: none;
stroke: #F0B186;
stroke-width: 0.305;
stroke-miterlimit: 3;
}
.g3i_318{
fill: none;
stroke: #F7C8A7;
stroke-width: 0.305;
stroke-linecap: round;
stroke-miterlimit: 3;
}
.g3j_318{
fill: #F8CFB4;
}
.g3k_318{
fill: #F7CAAC;
}
.g3l_318{
fill: #F0B186;
}
.g3m_318{
fill: #F2BA92;
}
.g3n_318{
fill: #F5C19F;
}
.g3o_318{
fill: #F2B78E;
}
.g3p_318{
fill: #F3BC96;
}
.g3q_318{
fill: #A98F7F;
}
.g3r_318{
fill: #927263;
}
.g3s_318{
fill: none;
stroke: #E6925C;
stroke-width: 0.305;
stroke-miterlimit: 3;
}
.g3t_318{
fill: #7B5A4C;
}
.g3u_318{
fill: #F6C5A3;
}
.g3v_318{
fill: #FCECE0;
}
.g3w_318{
fill: #977869;
}
.g3x_318{
fill: #B89F91;
}
.g3y_318{
fill: #DDCDC6;
}
.g3z_318{
fill: none;
stroke: #8D6C5D;
stroke-width: 0.305;
stroke-miterlimit: 3;
}
.g40_318{
fill: #FFDB7F;
}
.g41_318{
fill: #FFDD86;
}
.g42_318{
fill: #FFDF8D;
}
.g43_318{
fill: #FFE193;
}
.g44_318{
fill: #FFE39C;
}
.g45_318{
fill: #FFE6A4;
}
.g46_318{
fill: #FFE8AC;
}
.g47_318{
fill: #FFEBB4;
}
.g48_318{
fill: #FFEDBC;
}
.g49_318{
fill: #FFEFC4;
}
.g4a_318{
fill: #FFF1CB;
}
.g4b_318{
fill: #FFF4D4;
}
.g4c_318{
fill: #FFDE8A;
}
.g4d_318{
fill: #FFE295;
}
.g4e_318{
fill: #FFE5A1;
}
.g4f_318{
fill: #FFE9AE;
}
.g4g_318{
fill: #FFECBA;
}
.g4h_318{
fill: #FFF0C7;
}
.g4i_318{
fill: none;
stroke: #FDC4DA;
stroke-width: 1.145;
stroke-miterlimit: 3;
}
.g4j_318{
fill: none;
stroke: #241F1F;
stroke-width: 0.763;
stroke-linejoin: round;
}
.g4k_318{
fill: none;
stroke: #FFF300;
stroke-width: 1.145;
stroke-miterlimit: 3;
}
.g4l_318{
fill: none;
stroke: #B2E3FA;
stroke-width: 1.145;
stroke-miterlimit: 3;
}
.g4m_318{
fill: none;
stroke: #241F1F;
stroke-width: 0.763;
stroke-miterlimit: 3;
}
.g4n_318{
fill: #B2E3FA;
}
.g4o_318{
fill: #9CDCF9;
}
.g4p_318{
fill: #84D5F7;
}
.g4q_318{
fill: #69CFF6;
}
]]></style>
</defs>
<path d="M67.2,377.1H823.5" class="g0_318"/>
<image clip-path="url(#c0_318)" preserveAspectRatio="none" x="52" y="96" width="883" height="949" xlink:href="img/1.png"/>
<path d="M572.7,569.1h42.4" class="g1_318"/>
<path clip-path="url(#c1_318)" d="M572.7,547.3h44.4" class="g1_318"/>
<path d="M386.6,618.9h4.8" class="g2_318"/>
<image clip-path="url(#c2_318)" preserveAspectRatio="none" x="347" y="724" width="438" height="257" xlink:href="img/2.jpg"/>
<g clip-path="url(#c3_318)">
<path d="M297.4,399.3v0c0,61,-49.5,110.5,-110.5,110.5C125.8,509.8,76.3,460.3,76.3,399.3c0,-61,49.5,-110.5,110.6,-110.5c61,0,110.5,49.5,110.5,110.5m2.1,0C299.5,337.1,249,286.5,186.7,286.5c-62.2,0,-112.8,50.6,-112.8,112.8c0,62.3,50.6,112.8,112.8,112.8c62.3,0,112.8,-50.5,112.8,-112.8Z" class="g3_318"/>
<path d="M295.2,399.3v0c0,59.8,-48.6,108.3,-108.3,108.3C127.1,507.6,78.6,459.1,78.6,399.3C78.6,339.5,127.1,291,186.9,291c59.7,0,108.3,48.5,108.3,108.3m2,0c0,-61,-49.5,-110.5,-110.5,-110.5c-61,0,-110.5,49.5,-110.5,110.5c0,61,49.5,110.5,110.5,110.5c61,0,110.5,-49.5,110.5,-110.5Z" class="g4_318"/>
<path d="M292.9,399.3v0c0,58.6,-47.5,106.1,-106,106.1C128.3,505.4,80.8,457.9,80.8,399.3c0,-58.5,47.5,-106.1,106.1,-106.1c58.5,0,106,47.6,106,106.1m2.3,0C295.2,339.5,246.7,291,186.9,291C127.1,291,78.6,339.5,78.6,399.3c0,59.8,48.5,108.3,108.3,108.3c59.8,0,108.3,-48.5,108.3,-108.3Z" class="g5_318"/>
<path d="M290.7,399.3v0c0,57.3,-46.5,103.9,-103.8,103.9C129.5,503.2,83,456.6,83,399.3C83,342,129.5,295.5,186.9,295.5c57.3,0,103.8,46.5,103.8,103.8m2.3,0C293,340.8,245.4,293.2,186.9,293.2c-58.6,0,-106.1,47.6,-106.1,106.1c0,58.6,47.5,106.1,106.1,106.1C245.4,505.4,293,457.9,293,399.3Z" class="g6_318"/>
<path d="M288.5,399.3v0c0,56.1,-45.6,101.6,-101.6,101.6C130.8,500.9,85.2,455.4,85.2,399.3c0,-56.1,45.6,-101.6,101.7,-101.6c56,0,101.6,45.5,101.6,101.6m2.2,0C290.7,342,244.2,295.5,186.9,295.5C129.6,295.5,83,342,83,399.3c0,57.3,46.6,103.9,103.9,103.9c57.3,0,103.8,-46.6,103.8,-103.9Z" class="g7_318"/>
<path d="M286.2,399.3v0c0,54.9,-44.5,99.4,-99.3,99.4C132,498.7,87.5,454.2,87.5,399.3c0,-54.8,44.5,-99.4,99.4,-99.4c54.8,0,99.3,44.6,99.3,99.4m2.3,0C288.5,343.2,243,297.7,186.9,297.7c-56.1,0,-101.6,45.5,-101.6,101.6c0,56.1,45.5,101.6,101.6,101.6c56.1,0,101.6,-45.5,101.6,-101.6Z" class="g8_318"/>
<path d="M284,399.3v0c0,53.6,-43.5,97.2,-97.1,97.2c-53.7,0,-97.2,-43.6,-97.2,-97.2c0,-53.6,43.5,-97.1,97.2,-97.1c53.6,0,97.1,43.5,97.1,97.1m2.3,0c0,-54.8,-44.6,-99.4,-99.4,-99.4c-54.9,0,-99.4,44.6,-99.4,99.4c0,54.9,44.5,99.4,99.4,99.4c54.8,0,99.4,-44.5,99.4,-99.4Z" class="g9_318"/>
<path d="M281.8,399.3v0c0,52.4,-42.5,94.9,-94.9,94.9c-52.4,0,-95,-42.5,-95,-94.9c0,-52.4,42.6,-94.9,95,-94.9c52.4,0,94.9,42.5,94.9,94.9m2.2,0c0,-53.6,-43.5,-97.1,-97.1,-97.1c-53.6,0,-97.2,43.5,-97.2,97.1c0,53.6,43.6,97.2,97.2,97.2c53.6,0,97.1,-43.6,97.1,-97.2Z" class="ga_318"/>
<path d="M279.5,399.3v0c0,51.2,-41.5,92.7,-92.6,92.7C135.7,492,94.2,450.5,94.2,399.3c0,-51.2,41.5,-92.7,92.7,-92.7c51.1,0,92.6,41.5,92.6,92.7m2.3,0c0,-52.4,-42.5,-94.9,-94.9,-94.9C134.5,304.4,92,346.9,92,399.3c0,52.4,42.5,94.9,94.9,94.9c52.4,0,94.9,-42.5,94.9,-94.9Z" class="gb_318"/>
<path d="M277.3,399.3v0c0,49.9,-40.5,90.4,-90.4,90.4c-50,0,-90.5,-40.5,-90.5,-90.4c0,-49.9,40.5,-90.4,90.5,-90.4c49.9,0,90.4,40.5,90.4,90.4m2.3,0c0,-51.2,-41.6,-92.7,-92.7,-92.7c-51.2,0,-92.7,41.5,-92.7,92.7c0,51.2,41.5,92.7,92.7,92.7c51.1,0,92.7,-41.5,92.7,-92.7Z" class="gc_318"/>
<path d="M275.1,399.3v0c0,48.7,-39.5,88.2,-88.2,88.2C138.2,487.5,98.7,448,98.7,399.3c0,-48.7,39.5,-88.2,88.2,-88.2c48.7,0,88.2,39.5,88.2,88.2m2.2,0c0,-49.9,-40.5,-90.4,-90.4,-90.4c-49.9,0,-90.5,40.5,-90.5,90.4c0,49.9,40.6,90.4,90.5,90.4c49.9,0,90.4,-40.5,90.4,-90.4Z" class="gd_318"/>
<path d="M272.8,399.3v0c0,47.5,-38.5,86,-85.9,86c-47.5,0,-86,-38.5,-86,-86c0,-47.5,38.5,-86,86,-86c47.4,0,85.9,38.5,85.9,86m2.1,0c0,-48.7,-39.5,-88.2,-88.2,-88.2c-48.7,0,-88.2,39.5,-88.2,88.2c0,48.7,39.5,88.2,88.2,88.2c48.7,0,88.2,-39.5,88.2,-88.2Z" class="ge_318"/>
<path d="M270.6,399.3v0c0,46.2,-37.5,83.8,-83.7,83.8c-46.3,0,-83.8,-37.6,-83.8,-83.8c0,-46.2,37.5,-83.7,83.8,-83.7c46.2,0,83.7,37.5,83.7,83.7m2.1,0c0,-47.5,-38.5,-86,-86,-86c-47.5,0,-86,38.5,-86,86c0,47.5,38.5,86,86,86c47.5,0,86,-38.5,86,-86Z" class="gf_318"/>
<path d="M268.4,399.3v0c0,45,-36.5,81.5,-81.5,81.5c-45,0,-81.6,-36.5,-81.6,-81.5c0,-45,36.6,-81.5,81.6,-81.5c45,0,81.5,36.5,81.5,81.5m2.2,0c0,-46.2,-37.5,-83.7,-83.7,-83.7c-46.2,0,-83.8,37.5,-83.8,83.7c0,46.2,37.6,83.8,83.8,83.8c46.2,0,83.7,-37.6,83.7,-83.8Z" class="gg_318"/>
<path d="M266.1,399.3v0c0,43.8,-35.5,79.3,-79.2,79.3c-43.8,0,-79.3,-35.5,-79.3,-79.3c0,-43.8,35.5,-79.3,79.3,-79.3c43.7,0,79.2,35.5,79.2,79.3m2.3,0c0,-45,-36.5,-81.5,-81.5,-81.5c-45,0,-81.5,36.5,-81.5,81.5c0,45,36.5,81.5,81.5,81.5c45,0,81.5,-36.5,81.5,-81.5Z" class="gh_318"/>
<path d="M263.9,399.3v0c0,42.5,-34.5,77.1,-77,77.1c-42.6,0,-77.1,-34.6,-77.1,-77.1c0,-42.5,34.5,-77,77.1,-77c42.5,0,77,34.5,77,77m2.3,0C266.2,355.5,230.6,320,186.9,320c-43.8,0,-79.3,35.5,-79.3,79.3c0,43.8,35.5,79.3,79.3,79.3c43.7,0,79.3,-35.5,79.3,-79.3Z" class="gi_318"/>
<path d="M261.7,399.3v0c0,41.3,-33.5,74.8,-74.8,74.8C145.6,474.1,112,440.6,112,399.3c0,-41.3,33.6,-74.8,74.9,-74.8c41.3,0,74.8,33.5,74.8,74.8m2.2,0c0,-42.5,-34.5,-77,-77,-77c-42.5,0,-77.1,34.5,-77.1,77c0,42.5,34.6,77.1,77.1,77.1c42.5,0,77,-34.6,77,-77.1Z" class="gj_318"/>
<path d="M259.4,399.3v0c0,40.1,-32.5,72.6,-72.5,72.6c-40.1,0,-72.6,-32.5,-72.6,-72.6c0,-40.1,32.5,-72.6,72.6,-72.6c40,0,72.5,32.5,72.5,72.6m2.3,0c0,-41.3,-33.5,-74.8,-74.8,-74.8c-41.3,0,-74.8,33.5,-74.8,74.8c0,41.3,33.5,74.8,74.8,74.8c41.3,0,74.8,-33.5,74.8,-74.8Z" class="gk_318"/>
<path d="M257.2,399.3v0c0,38.8,-31.5,70.4,-70.3,70.4c-38.9,0,-70.4,-31.6,-70.4,-70.4C116.5,360.5,148,329,186.9,329c38.8,0,70.3,31.5,70.3,70.3m2.3,0c0,-40.1,-32.5,-72.6,-72.6,-72.6c-40.1,0,-72.6,32.5,-72.6,72.6c0,40.1,32.5,72.6,72.6,72.6c40.1,0,72.6,-32.5,72.6,-72.6Z" class="gl_318"/>
<path d="M255,399.3v0c0,37.6,-30.5,68.1,-68.1,68.1c-37.6,0,-68.2,-30.5,-68.2,-68.1c0,-37.6,30.6,-68.1,68.2,-68.1c37.6,0,68.1,30.5,68.1,68.1m2.2,0C257.2,360.5,225.7,329,186.9,329c-38.8,0,-70.4,31.5,-70.4,70.3c0,38.8,31.6,70.4,70.4,70.4c38.8,0,70.3,-31.6,70.3,-70.4Z" class="gm_318"/>
<path d="M252.7,399.3v0c0,36.4,-29.5,65.9,-65.8,65.9C150.5,465.2,121,435.7,121,399.3c0,-36.4,29.5,-65.9,65.9,-65.9c36.3,0,65.8,29.5,65.8,65.9m2.3,0c0,-37.6,-30.5,-68.1,-68.1,-68.1c-37.6,0,-68.1,30.5,-68.1,68.1c0,37.6,30.5,68.1,68.1,68.1c37.6,0,68.1,-30.5,68.1,-68.1Z" class="gn_318"/>
<path d="M250.5,399.3v0c0,35.1,-28.5,63.6,-63.6,63.6c-35.2,0,-63.7,-28.5,-63.7,-63.6c0,-35.1,28.5,-63.6,63.7,-63.6c35.1,0,63.6,28.5,63.6,63.6m2.3,0c0,-36.4,-29.5,-65.9,-65.9,-65.9c-36.4,0,-65.9,29.5,-65.9,65.9c0,36.4,29.5,65.9,65.9,65.9c36.4,0,65.9,-29.5,65.9,-65.9Z" class="go_318"/>
<path d="M248.3,399.3v0c0,33.9,-27.5,61.4,-61.4,61.4c-33.9,0,-61.5,-27.5,-61.5,-61.4c0,-33.9,27.6,-61.4,61.5,-61.4c33.9,0,61.4,27.5,61.4,61.4m2.1,0c0,-35.1,-28.6,-63.6,-63.7,-63.6c-35.1,0,-63.6,28.5,-63.6,63.6c0,35.1,28.5,63.6,63.6,63.6c35.1,0,63.7,-28.5,63.7,-63.6Z" class="gp_318"/>
<path d="M246,399.3v0c0,32.7,-26.5,59.2,-59.1,59.2c-32.7,0,-59.2,-26.5,-59.2,-59.2c0,-32.7,26.5,-59.2,59.2,-59.2c32.6,0,59.1,26.5,59.1,59.2m2.1,0c0,-33.9,-27.5,-61.4,-61.4,-61.4c-33.9,0,-61.4,27.5,-61.4,61.4c0,33.9,27.5,61.4,61.4,61.4c33.9,0,61.4,-27.5,61.4,-61.4Z" class="gq_318"/>
<path d="M243.8,399.3v0c0,31.4,-25.5,57,-56.9,57c-31.5,0,-57,-25.6,-57,-57c0,-31.4,25.5,-56.9,57,-56.9c31.4,0,56.9,25.5,56.9,56.9m2.3,0c0,-32.7,-26.5,-59.2,-59.2,-59.2c-32.7,0,-59.2,26.5,-59.2,59.2c0,32.7,26.5,59.2,59.2,59.2c32.7,0,59.2,-26.5,59.2,-59.2Z" class="gr_318"/>
<path d="M241.6,399.3v0c0,30.2,-24.5,54.7,-54.7,54.7c-30.2,0,-54.8,-24.5,-54.8,-54.7c0,-30.2,24.6,-54.7,54.8,-54.7c30.2,0,54.7,24.5,54.7,54.7m2.2,0c0,-31.4,-25.5,-56.9,-56.9,-56.9c-31.4,0,-57,25.5,-57,56.9c0,31.4,25.6,57,57,57c31.4,0,56.9,-25.6,56.9,-57Z" class="gs_318"/>
<path d="M239.3,399.3v0c0,29,-23.5,52.5,-52.4,52.5c-29,0,-52.5,-23.5,-52.5,-52.5c0,-29,23.5,-52.5,52.5,-52.5c28.9,0,52.4,23.5,52.4,52.5m2.3,0c0,-30.2,-24.5,-54.7,-54.7,-54.7c-30.2,0,-54.7,24.5,-54.7,54.7c0,30.2,24.5,54.7,54.7,54.7c30.2,0,54.7,-24.5,54.7,-54.7Z" class="gt_318"/>
<path d="M237.1,399.3v0c0,27.7,-22.5,50.2,-50.2,50.2c-27.8,0,-50.3,-22.5,-50.3,-50.2c0,-27.7,22.5,-50.2,50.3,-50.2c27.7,0,50.2,22.5,50.2,50.2m2.3,0c0,-29,-23.5,-52.5,-52.5,-52.5c-29,0,-52.5,23.5,-52.5,52.5c0,29,23.5,52.5,52.5,52.5c29,0,52.5,-23.5,52.5,-52.5Z" class="gu_318"/>
<path d="M234.9,399.3v0c0,26.5,-21.5,48,-48,48c-26.5,0,-48.1,-21.5,-48.1,-48c0,-26.5,21.6,-48,48.1,-48c26.5,0,48,21.5,48,48m2.2,0c0,-27.7,-22.5,-50.2,-50.2,-50.2c-27.8,0,-50.3,22.5,-50.3,50.2c0,27.7,22.5,50.2,50.3,50.2c27.7,0,50.2,-22.5,50.2,-50.2Z" class="gv_318"/>
<path d="M232.6,399.3v0c0,25.3,-20.5,45.8,-45.7,45.8c-25.3,0,-45.8,-20.5,-45.8,-45.8c0,-25.3,20.5,-45.8,45.8,-45.8c25.2,0,45.7,20.5,45.7,45.8m2.3,0c0,-26.5,-21.5,-48,-48,-48c-26.5,0,-48,21.5,-48,48c0,26.5,21.5,48,48,48c26.5,0,48,-21.5,48,-48Z" class="gw_318"/>
<path d="M230.4,399.3v0c0,24,-19.5,43.6,-43.5,43.6c-24.1,0,-43.6,-19.6,-43.6,-43.6c0,-24,19.5,-43.5,43.6,-43.5c24,0,43.5,19.5,43.5,43.5m2.3,0c0,-25.3,-20.5,-45.8,-45.8,-45.8c-25.3,0,-45.8,20.5,-45.8,45.8c0,25.3,20.5,45.8,45.8,45.8c25.3,0,45.8,-20.5,45.8,-45.8Z" class="gx_318"/>
<path d="M228.2,399.3v0c0,22.8,-18.5,41.3,-41.3,41.3c-22.8,0,-41.4,-18.5,-41.4,-41.3c0,-22.8,18.6,-41.3,41.4,-41.3c22.8,0,41.3,18.5,41.3,41.3m2.2,0c0,-24,-19.5,-43.5,-43.5,-43.5c-24.1,0,-43.6,19.5,-43.6,43.5c0,24,19.5,43.6,43.6,43.6c24,0,43.5,-19.6,43.5,-43.6Z" class="gy_318"/>
<path d="M225.9,399.3v0c0,21.6,-17.5,39.1,-39,39.1c-21.6,0,-39.1,-17.5,-39.1,-39.1c0,-21.6,17.5,-39.1,39.1,-39.1c21.5,0,39,17.5,39,39.1m2.3,0C228.2,376.5,209.7,358,186.9,358c-22.8,0,-41.3,18.5,-41.3,41.3c0,22.8,18.5,41.3,41.3,41.3c22.8,0,41.3,-18.5,41.3,-41.3Z" class="gz_318"/>
<path d="M223.7,399.3v0c0,20.3,-16.5,36.9,-36.8,36.9C166.5,436.2,150,419.6,150,399.3c0,-20.3,16.5,-36.8,36.9,-36.8c20.3,0,36.8,16.5,36.8,36.8m2.3,0c0,-21.6,-17.5,-39.1,-39.1,-39.1c-21.6,0,-39.1,17.5,-39.1,39.1c0,21.6,17.5,39.1,39.1,39.1c21.6,0,39.1,-17.5,39.1,-39.1Z" class="g10_318"/>
<path d="M221.5,399.3v0c0,19.1,-15.5,34.6,-34.6,34.6c-19.1,0,-34.7,-15.5,-34.7,-34.6c0,-19.1,15.6,-34.6,34.7,-34.6c19.1,0,34.6,15.5,34.6,34.6m2.1,0C223.6,379,207,362.5,186.7,362.5c-20.3,0,-36.8,16.5,-36.8,36.8c0,20.3,16.5,36.8,36.8,36.8c20.3,0,36.9,-16.5,36.9,-36.8Z" class="g11_318"/>
<path d="M219.2,399.3v0c0,17.9,-14.5,32.4,-32.3,32.4c-17.9,0,-32.4,-14.5,-32.4,-32.4c0,-17.9,14.5,-32.4,32.4,-32.4c17.8,0,32.3,14.5,32.3,32.4m2.3,0c0,-19.1,-15.5,-34.6,-34.6,-34.6c-19.1,0,-34.6,15.5,-34.6,34.6c0,19.1,15.5,34.6,34.6,34.6c19.1,0,34.6,-15.5,34.6,-34.6Z" class="g11_318"/>
<path d="M217,399.3v0c0,16.7,-13.5,30.2,-30.1,30.2c-16.7,0,-30.2,-13.5,-30.2,-30.2c0,-16.6,13.5,-30.1,30.2,-30.1c16.6,0,30.1,13.5,30.1,30.1m2.3,0c0,-17.9,-14.5,-32.4,-32.4,-32.4c-17.9,0,-32.4,14.5,-32.4,32.4c0,17.9,14.5,32.4,32.4,32.4c17.9,0,32.4,-14.5,32.4,-32.4Z" class="g12_318"/>
<path d="M214.8,399.3v0c0,15.4,-12.5,27.9,-27.9,27.9C171.4,427.2,159,414.7,159,399.3c0,-15.4,12.4,-27.9,27.9,-27.9c15.4,0,27.9,12.5,27.9,27.9m2.2,0c0,-16.6,-13.5,-30.1,-30.1,-30.1c-16.7,0,-30.2,13.5,-30.2,30.1c0,16.7,13.5,30.2,30.2,30.2c16.6,0,30.1,-13.5,30.1,-30.2Z" class="g13_318"/>
<path d="M212.5,399.3v0c0,14.2,-11.5,25.7,-25.6,25.7c-14.2,0,-25.7,-11.5,-25.7,-25.7c0,-14.2,11.5,-25.7,25.7,-25.7c14.1,0,25.6,11.5,25.6,25.7m2.3,0c0,-15.4,-12.5,-27.9,-27.9,-27.9c-15.4,0,-27.9,12.5,-27.9,27.9c0,15.4,12.5,27.9,27.9,27.9c15.4,0,27.9,-12.5,27.9,-27.9Z" class="g14_318"/>
<path d="M210.3,399.3v0c0,13,-10.5,23.5,-23.4,23.5c-13,0,-23.5,-10.5,-23.5,-23.5c0,-12.9,10.5,-23.4,23.5,-23.4c12.9,0,23.4,10.5,23.4,23.4m2.3,0c0,-14.2,-11.5,-25.7,-25.7,-25.7c-14.2,0,-25.7,11.5,-25.7,25.7c0,14.2,11.5,25.7,25.7,25.7c14.2,0,25.7,-11.5,25.7,-25.7Z" class="g15_318"/>
<path d="M208.1,399.3v0c0,11.7,-9.5,21.2,-21.2,21.2c-11.8,0,-21.3,-9.5,-21.3,-21.2c0,-11.7,9.5,-21.2,21.3,-21.2c11.7,0,21.2,9.5,21.2,21.2m2.2,0c0,-12.9,-10.5,-23.4,-23.4,-23.4c-12.9,0,-23.5,10.5,-23.5,23.4c0,13,10.6,23.5,23.5,23.5c12.9,0,23.4,-10.5,23.4,-23.5Z" class="g16_318"/>
<path d="M205.8,399.3v0c0,10.5,-8.5,19,-18.9,19c-10.5,0,-19,-8.5,-19,-19c0,-10.5,8.5,-19,19,-19c10.4,0,18.9,8.5,18.9,19m2.3,0c0,-11.7,-9.5,-21.2,-21.2,-21.2c-11.7,0,-21.2,9.5,-21.2,21.2c0,11.7,9.5,21.2,21.2,21.2c11.7,0,21.2,-9.5,21.2,-21.2Z" class="g17_318"/>
<path d="M203.6,399.3v0c0,9.3,-7.5,16.8,-16.7,16.8c-9.3,0,-16.8,-7.5,-16.8,-16.8c0,-9.2,7.5,-16.7,16.8,-16.7c9.2,0,16.7,7.5,16.7,16.7m2.3,0c0,-10.5,-8.5,-19,-19,-19c-10.5,0,-19,8.5,-19,19c0,10.5,8.5,19,19,19c10.5,0,19,-8.5,19,-19Z" class="g18_318"/>
<path d="M201.4,399.3v0c0,8,-6.5,14.5,-14.5,14.5c-8.1,0,-14.6,-6.5,-14.6,-14.5c0,-8,6.5,-14.5,14.6,-14.5c8,0,14.5,6.5,14.5,14.5m2.2,0c0,-9.2,-7.5,-16.7,-16.7,-16.7c-9.2,0,-16.8,7.5,-16.8,16.7c0,9.3,7.6,16.8,16.8,16.8c9.2,0,16.7,-7.5,16.7,-16.8Z" class="g19_318"/>
<path d="M199.1,399.3v0c0,6.8,-5.5,12.3,-12.2,12.3c-6.8,0,-12.3,-5.5,-12.3,-12.3c0,-6.8,5.5,-12.3,12.3,-12.3c6.7,0,12.2,5.5,12.2,12.3m2.3,0c0,-8,-6.5,-14.5,-14.5,-14.5c-8,0,-14.5,6.5,-14.5,14.5c0,8,6.5,14.5,14.5,14.5c8,0,14.5,-6.5,14.5,-14.5Z" class="g1a_318"/>
<path d="M196.9,399.3v0c0,5.6,-4.5,10.1,-10,10.1c-5.6,0,-10.1,-4.5,-10.1,-10.1c0,-5.5,4.5,-10,10.1,-10c5.5,0,10,4.5,10,10m2.1,0C199,392.5,193.5,387,186.7,387c-6.8,0,-12.3,5.5,-12.3,12.3c0,6.8,5.5,12.3,12.3,12.3c6.8,0,12.3,-5.5,12.3,-12.3Z" class="g1b_318"/>
<path d="M194.7,399.3v0c0,4.3,-3.5,7.8,-7.8,7.8c-4.4,0,-7.9,-3.5,-7.9,-7.8c0,-4.3,3.5,-7.8,7.9,-7.8c4.3,0,7.8,3.5,7.8,7.8m2.2,0c0,-5.5,-4.5,-10,-10,-10c-5.6,0,-10.1,4.5,-10.1,10c0,5.6,4.5,10.1,10.1,10.1c5.5,0,10,-4.5,10,-10.1Z" class="g1c_318"/>
<path d="M192.4,399.3v0c0,3.1,-2.5,5.6,-5.5,5.6c-3.1,0,-5.6,-2.5,-5.6,-5.6c0,-3.1,2.5,-5.6,5.6,-5.6c3,0,5.5,2.5,5.5,5.6m2.3,0c0,-4.3,-3.5,-7.8,-7.8,-7.8c-4.3,0,-7.8,3.5,-7.8,7.8c0,4.3,3.5,7.8,7.8,7.8c4.3,0,7.8,-3.5,7.8,-7.8Z" class="g1c_318"/>
<path d="M190.2,399.3v0c0,1.9,-1.5,3.4,-3.3,3.4c-1.9,0,-3.4,-1.5,-3.4,-3.4c0,-1.8,1.5,-3.3,3.4,-3.3c1.8,0,3.3,1.5,3.3,3.3m2.3,0c0,-3.1,-2.5,-5.6,-5.6,-5.6c-3.1,0,-5.6,2.5,-5.6,5.6c0,3.1,2.5,5.6,5.6,5.6c3.1,0,5.6,-2.5,5.6,-5.6Z" class="g1d_318"/>
<path d="M188,399.3v0c0,.6,-.5,1.1,-1.1,1.1c-.7,0,-1.2,-.5,-1.2,-1.1c0,-.6,.5,-1.1,1.2,-1.1c.6,0,1.1,.5,1.1,1.1m2.2,0c0,-1.8,-1.5,-3.3,-3.3,-3.3c-1.9,0,-3.4,1.5,-3.4,3.3c0,1.9,1.5,3.4,3.4,3.4c1.8,0,3.3,-1.5,3.3,-3.4Z" class="g1e_318"/>
<path d="M188,399.3c0,-.6,-.5,-1.1,-1.1,-1.1c-.6,0,-1.1,.5,-1.1,1.1c0,.6,.5,1.1,1.1,1.1c.6,0,1.1,-.5,1.1,-1.1Z" class="g1f_318"/>
</g>
<path d="M125.8,417.6c0,-42.5,34.5,-76.9,76.9,-76.9c42.5,0,76.9,34.4,76.9,76.9c0,42.5,-34.4,76.9,-76.9,76.9c-42.4,0,-76.9,-34.4,-76.9,-76.9Z" class="g1g_318"/>
<path d="M209.8,467.9l57,-10L252.3,404.1" class="g1h_318"/>
<path d="M251.1,399.7l3.8,5.2l-2.6,-.8l-1.8,2Z" class="g1i_318"/>
<path d="M252.4,404.1L237.5,349.3l-51.4,17.6" class="g1h_318"/>
<path d="M181.8,368.4l4.9,-4.1l-.6,2.6l2.1,1.7Z" class="g1i_318"/>
<path d="M131.3,472.4l23.5,5l54.9,-9.5" class="g1h_318"/>
<path d="M214.3,467.1l-5.6,3.3l1,-2.5l-1.8,-2.1Z" class="g1i_318"/>
<path d="M111.6,468.2l19.7,4.2M114.5,398.6L100,409.3" class="g1h_318"/>
<path d="M135.8,473.4l-6.4,1l1.9,-2l-.9,-2.5Z" class="g1i_318"/>
<path d="M186.2,366.9l-53.7,18.4l-18.1,13.3" class="g1h_318"/>
<path d="M110.7,401.3l3.6,-5.4l.1,2.7l2.6,1Z" class="g1i_318"/>
<path d="M237.5,349.3L139.7,502.5M266.8,457.9L106.3,370.8" class="g1j_318"/>
<g clip-path="url(#c4_318)">
<path d="M281.9,660.1v0c0,4.6,-3.7,8.4,-8.3,8.4c-4.6,0,-8.4,-3.8,-8.4,-8.4c0,-4.6,3.8,-8.4,8.4,-8.4c4.6,0,8.3,3.8,8.3,8.4m1.9,.1c0,-5.7,-4.6,-10.3,-10.2,-10.3c-5.7,0,-10.2,4.6,-10.2,10.3c0,5.6,4.5,10.2,10.2,10.2c5.6,0,10.2,-4.6,10.2,-10.2Z" class="g1k_318"/>
<path d="M280.1,660.1v0c0,3.6,-2.9,6.5,-6.5,6.5c-3.6,0,-6.5,-2.9,-6.5,-6.5c0,-3.6,2.9,-6.5,6.5,-6.5c3.6,0,6.5,2.9,6.5,6.5m1.9,.1c0,-4.7,-3.8,-8.4,-8.4,-8.4c-4.6,0,-8.4,3.7,-8.4,8.4c0,4.6,3.8,8.3,8.4,8.3c4.6,0,8.4,-3.7,8.4,-8.3Z" class="g1l_318"/>
<path d="M278.2,660.1v0c0,2.6,-2.1,4.6,-4.6,4.6c-2.6,0,-4.7,-2,-4.7,-4.6c0,-2.6,2.1,-4.7,4.7,-4.7c2.5,0,4.6,2.1,4.6,4.7m1.9,.1c0,-3.6,-2.9,-6.6,-6.5,-6.6c-3.6,0,-6.5,3,-6.5,6.6c0,3.5,2.9,6.5,6.5,6.5c3.6,0,6.5,-3,6.5,-6.5Z" class="g1m_318"/>
<path d="M276.4,660.1v0c0,1.5,-1.3,2.8,-2.8,2.8c-1.6,0,-2.8,-1.3,-2.8,-2.8c0,-1.6,1.2,-2.8,2.8,-2.8c1.5,0,2.8,1.2,2.8,2.8m1.8,.1c0,-2.6,-2,-4.7,-4.6,-4.7c-2.6,0,-4.6,2.1,-4.6,4.7c0,2.5,2,4.6,4.6,4.6c2.6,0,4.6,-2.1,4.6,-4.6Z" class="g1n_318"/>
<path d="M274.5,660.1v0c0,.5,-.4,.9,-.9,.9c-.5,0,-1,-.4,-1,-.9c0,-.5,.5,-.9,1,-.9c.5,0,.9,.4,.9,.9m1.9,-.1c0,-1.6,-1.3,-2.8,-2.8,-2.8c-1.5,0,-2.8,1.2,-2.8,2.8c0,1.5,1.3,2.8,2.8,2.8c1.5,0,2.8,-1.3,2.8,-2.8Z" class="g1o_318"/>
<path d="M274.5,660c0,-.5,-.4,-1,-.9,-1c-.5,0,-.9,.5,-.9,1c0,.5,.4,.9,.9,.9c.5,0,.9,-.4,.9,-.9Z" class="g3_318"/>
</g>
<g clip-path="url(#c5_318)">
<path d="M281.9,685.5v0c0,4.7,-3.7,8.4,-8.3,8.4c-4.6,0,-8.4,-3.7,-8.4,-8.4c0,-4.6,3.8,-8.3,8.4,-8.3c4.6,0,8.3,3.7,8.3,8.3m1.9,0c0,-5.7,-4.6,-10.3,-10.2,-10.3c-5.7,0,-10.2,4.6,-10.2,10.3c0,5.6,4.5,10.2,10.2,10.2c5.6,0,10.2,-4.6,10.2,-10.2Z" class="g1k_318"/>
<path d="M280.1,685.5v0c0,3.6,-2.9,6.6,-6.5,6.6c-3.6,0,-6.5,-3,-6.5,-6.6c0,-3.5,2.9,-6.5,6.5,-6.5c3.6,0,6.5,3,6.5,6.5m1.9,0c0,-4.7,-3.8,-8.4,-8.4,-8.4c-4.6,0,-8.4,3.7,-8.4,8.4c0,4.6,3.8,8.3,8.4,8.3c4.6,0,8.4,-3.7,8.4,-8.3Z" class="g1l_318"/>
<path d="M278.2,685.5v0c0,2.6,-2.1,4.7,-4.6,4.7c-2.6,0,-4.7,-2.1,-4.7,-4.7c0,-2.5,2.1,-4.6,4.7,-4.6c2.5,0,4.6,2.1,4.6,4.6m1.9,.1c0,-3.6,-2.9,-6.5,-6.5,-6.5c-3.6,0,-6.5,2.9,-6.5,6.5c0,3.6,2.9,6.5,6.5,6.5c3.6,0,6.5,-2.9,6.5,-6.5Z" class="g1m_318"/>
<path d="M276.4,685.5v0c0,1.6,-1.3,2.8,-2.8,2.8c-1.6,0,-2.8,-1.2,-2.8,-2.8c0,-1.5,1.2,-2.7,2.8,-2.7c1.5,0,2.8,1.2,2.8,2.7m1.8,.1c0,-2.5,-2,-4.6,-4.6,-4.6c-2.6,0,-4.6,2.1,-4.6,4.6c0,2.6,2,4.7,4.6,4.7c2.6,0,4.6,-2.1,4.6,-4.7Z" class="g1n_318"/>
<path d="M274.5,685.5v0c0,.6,-.4,1,-.9,1c-.5,0,-1,-.4,-1,-1c0,-.5,.5,-.9,1,-.9c.5,0,.9,.4,.9,.9m1.9,.1c0,-1.5,-1.3,-2.7,-2.8,-2.7c-1.5,0,-2.8,1.2,-2.8,2.7c0,1.6,1.3,2.8,2.8,2.8c1.5,0,2.8,-1.2,2.8,-2.8Z" class="g1o_318"/>
<path d="M274.5,685.6c0,-.5,-.4,-.9,-.9,-.9c-.5,0,-.9,.4,-.9,.9c0,.6,.4,1,.9,1c.5,0,.9,-.4,.9,-1Z" class="g3_318"/>
</g>
<path d="M113.9,751.3c.4,1.9,.5,3.8,.5,5.7c0,4,-.8,7.7,-2.2,11.1" class="g1p_318"/>
<path d="M113.3,748.1l2.4,3.9l-1.8,-.7l-1.4,1.4Z" class="g1q_318"/>
<path d="M280.9,793c-15.8,1.6,-9,-1.5,-24.8,-1.5c-5.1,0,-8.6,.2,-13,-.7h-15c-11.9,2.3,-18.4,1.2,-30.2,1.8l-30.1,-1.8c-14.8,1,-22.7,2.3,-37.4,1.8l-25.8,-1.5c-7.2,.6,-22.7,.6,-29.9,.6c-7.2,0,-7.2,1.5,-7.2,1.5" class="g1r_318"/>
<path d="M85.7,757l98.7,-52.9" class="g1h_318"/>
<path d="M105.4,590.1l166.4,76.1l8.1,-1.1l-1.6,-8.4l-7.4,1.4l-86.5,46" class="g1s_318"/>
<path d="M180.4,706.2l4.2,-4.8l-.2,2.7l2.4,1.3Z" class="g1i_318"/>
<path d="M100.9,602.8l172.2,78.9l8.1,5.3l-8.1,5.4l-78.4,27.1" class="g1h_318"/>
<path d="M190.4,721l4.9,-4.2l-.6,2.7l2.1,1.7Z" class="g1i_318"/>
<path d="M194.7,719.5L85.7,757" class="g1h_318"/>
<path d="M138.3,733.3c2.9,7,4.8,15.7,4.8,23.7c0,8.1,-1.6,15.7,-4.6,22.7" class="g1p_318"/>
<path d="M137,730.3l3.2,3.4l-1.9,-.4l-1.2,1.7Z" class="g1q_318"/>
<path d="M68.6,749.5l84.7,36.3" class="g1t_318"/>
<path d="M67.5,793.2c0,0,0,-1.5,7.2,-1.5c7.2,0,22.7,0,29.9,-.6l25.8,1.5c14.7,.5,22.6,-.8,37.4,-1.8l30.1,1.8c11.8,-.6,18.3,.5,30.2,-1.8h15c4.4,.9,7.9,.7,13,.7c15.8,0,9,3.1,24.8,1.5" class="g1u_318"/>
<path d="M67.5,793.5c0,0,0,-1.4,7.2,-1.4c7.2,0,22.7,-.1,29.9,-.6l25.8,1.4c14.7,.6,22.6,-.7,37.4,-1.8l30.1,1.8c11.8,-.5,18.3,.6,30.2,-1.8h15c4.4,.9,7.9,.7,13,.7c15.8,0,9,3.1,24.8,1.5" class="g1v_318"/>
<path d="M67.5,793.9c0,0,0,-1.5,7.2,-1.5c7.2,0,22.7,0,29.9,-.6l25.8,1.5c14.7,.5,22.6,-.7,37.4,-1.8l30.1,1.8c11.8,-.6,18.3,.5,30.2,-1.8h15c4.4,.9,7.9,.7,13,.7c15.8,0,9,3.1,24.8,1.5" class="g1w_318"/>
<path d="M67.5,794.2c0,0,0,-1.4,7.2,-1.4c7.2,0,22.7,-.1,29.9,-.6l25.8,1.4c14.7,.6,22.6,-.7,37.4,-1.8l30.1,1.8c11.8,-.5,18.3,.6,30.2,-1.8h15c4.4,.9,7.9,.8,13,.8c15.8,0,9,3.1,24.8,1.5" class="g1x_318"/>
<path d="M67.5,794.6c0,0,0,-1.5,7.2,-1.5c7.2,0,22.7,0,29.9,-.5l25.8,1.4c14.7,.5,22.6,-.7,37.4,-1.8l30.1,1.8c11.8,-.5,18.3,.5,30.2,-1.8h15c4.4,.9,7.9,.7,13,.7c15.8,0,9,3.1,24.8,1.5" class="g1y_318"/>
<path d="M67.5,794.9c0,0,0,-1.4,7.2,-1.4c7.2,0,22.7,0,29.9,-.6l25.8,1.5c14.7,.5,22.6,-.8,37.4,-1.8l30.1,1.8c11.8,-.6,18.3,.5,30.2,-1.8h15c4.4,.9,7.9,.7,13,.7c15.8,0,9,3.1,24.8,1.5" class="g1z_318"/>
<path d="M67.5,795.3c0,0,0,-1.4,7.2,-1.4c7.2,0,22.7,-.1,29.9,-.6l25.8,1.4c14.7,.6,22.6,-.7,37.4,-1.8l30.1,1.8c11.8,-.5,18.3,.6,30.2,-1.8h15c4.4,.9,7.9,.7,13,.7c15.8,0,9,3.2,24.8,1.5" class="g20_318"/>
<path d="M67.5,795.7c0,0,0,-1.5,7.2,-1.5c7.2,0,22.7,0,29.9,-.6l25.8,1.5c14.7,.5,22.6,-.7,37.4,-1.8l30.1,1.8c11.8,-.6,18.3,.5,30.2,-1.8h15c4.4,.9,7.9,.7,13,.7c15.8,0,9,3.1,24.8,1.5" class="g21_318"/>
<path d="M67.5,796c0,0,0,-1.4,7.2,-1.4c7.2,0,22.7,-.1,29.9,-.6l25.8,1.4c14.7,.6,22.6,-.7,37.4,-1.8l30.1,1.8c11.8,-.5,18.3,.6,30.2,-1.8h15c4.4,.9,7.9,.8,13,.8c15.8,0,9,3.1,24.8,1.4" class="g22_318"/>
<path d="M67.5,796.4c0,0,0,-1.5,7.2,-1.5c7.2,0,22.7,0,29.9,-.5l25.8,1.4c14.7,.5,22.6,-.7,37.4,-1.8l30.1,1.8c11.8,-.5,18.3,.5,30.2,-1.8h15c4.4,.9,7.9,.7,13,.7c15.8,0,9,3.1,24.8,1.5" class="g23_318"/>
<path d="M67.5,796.8c0,0,0,-1.5,7.2,-1.5c7.2,0,22.7,0,29.9,-.6l25.8,1.5c14.7,.5,22.6,-.8,37.4,-1.8l30.1,1.8c11.8,-.6,18.3,.5,30.2,-1.8h15c4.4,.9,7.9,.7,13,.7c15.8,0,9,3.1,24.8,1.5" class="g24_318"/>
<path d="M67.5,797.1c0,0,0,-1.4,7.2,-1.4c7.2,0,22.7,-.1,29.9,-.6l25.8,1.4c14.7,.6,22.6,-.7,37.4,-1.8l30.1,1.8c11.8,-.5,18.3,.6,30.2,-1.8h15c4.4,.9,7.9,.7,13,.7c15.8,0,9,3.1,24.8,1.5" class="g25_318"/>
<path d="M67.5,797.5c0,0,0,-1.5,7.2,-1.5c7.2,0,22.7,0,29.9,-.6l25.8,1.5c14.7,.5,22.6,-.7,37.4,-1.8l30.1,1.8c11.8,-.6,18.3,.5,30.2,-1.8h15c4.4,.9,7.9,.7,13,.7c15.8,0,9,3.1,24.8,1.5" class="g26_318"/>
<path d="M67.5,797.8c0,0,0,-1.4,7.2,-1.4c7.2,0,22.7,-.1,29.9,-.6l25.8,1.4c14.7,.6,22.6,-.7,37.4,-1.8l30.1,1.8c11.8,-.5,18.3,.6,30.2,-1.8h15c4.4,.9,7.9,.8,13,.8c15.8,0,9,3.1,24.8,1.5" class="g27_318"/>
<path d="M67.5,798.2c0,0,0,-1.5,7.2,-1.5c7.2,0,22.7,0,29.9,-.5l25.8,1.4c14.7,.5,22.6,-.7,37.4,-1.8l30.1,1.8c11.8,-.5,18.3,.5,30.2,-1.8h15c4.4,.9,7.9,.7,13,.7c15.8,0,9,3.1,24.8,1.5" class="g28_318"/>
<path d="M67.5,798.5c0,0,0,-1.4,7.2,-1.4c7.2,0,22.7,0,29.9,-.6l25.8,1.5c14.7,.5,22.6,-.8,37.4,-1.8l30.1,1.8c11.8,-.6,18.3,.5,30.2,-1.8h15c4.4,.9,7.9,.7,13,.7c15.8,0,9,3.1,24.8,1.5" class="g29_318"/>
<path d="M67.5,798.9c0,0,0,-1.4,7.2,-1.4c7.2,0,22.7,-.1,29.9,-.6l25.8,1.4c14.7,.5,22.6,-.7,37.4,-1.8l30.1,1.8c11.8,-.5,18.3,.5,30.2,-1.8h15c4.4,.9,7.9,.7,13,.7c15.8,0,9,3.1,24.8,1.5" class="g2a_318"/>
<path d="M67.5,799.3c0,0,0,-1.5,7.2,-1.5c7.2,0,22.7,0,29.9,-.6l25.8,1.5c14.7,.5,22.6,-.7,37.4,-1.8l30.1,1.8c11.8,-.6,18.3,.5,30.2,-1.8h15c4.4,.9,7.9,.7,13,.7c15.8,0,9,3.1,24.8,1.5" class="g2b_318"/>
<path d="M67.5,799.6c0,0,0,-1.4,7.2,-1.4c7.2,0,22.7,-.1,29.9,-.6l25.8,1.4c14.7,.6,22.6,-.7,37.4,-1.8l30.1,1.8c11.8,-.5,18.3,.6,30.2,-1.8h15c4.4,.9,7.9,.8,13,.8c15.8,0,9,3.1,24.8,1.4" class="g2c_318"/>
<path d="M67.5,800c0,0,0,-1.5,7.2,-1.5c7.2,0,22.7,0,29.9,-.5l25.8,1.4c14.7,.5,22.6,-.7,37.4,-1.8l30.1,1.8c11.8,-.6,18.3,.5,30.2,-1.8h15c4.4,.9,7.9,.7,13,.7c15.8,0,9,3.1,24.8,1.5" class="g2d_318"/>
<path d="M67.5,800.3c0,0,0,-1.4,7.2,-1.4c7.2,0,22.7,-.1,29.9,-.6l25.8,1.4c14.7,.6,22.6,-.7,37.4,-1.7l30.1,1.7c11.8,-.5,18.3,.6,30.2,-1.7h15c4.4,.8,7.9,.7,13,.7c15.8,0,9,3.1,24.8,1.5" class="g2e_318"/>
<path d="M67.5,800.7c0,0,0,-1.5,7.2,-1.5c7.2,0,22.7,0,29.9,-.5l25.8,1.4c14.7,.5,22.6,-.7,37.4,-1.8l30.1,1.8c11.8,-.5,18.3,.5,30.2,-1.8h15c4.4,.9,7.9,.7,13,.7c15.8,0,9,3.1,24.8,1.5" class="g2f_318"/>
<path d="M67.5,801.1c0,0,0,-1.5,7.2,-1.5c7.2,0,22.7,0,29.9,-.6l25.8,1.5c14.7,.5,22.6,-.8,37.4,-1.8l30.1,1.8c11.8,-.6,18.3,.5,30.2,-1.8h15c4.4,.9,7.9,.7,13,.7c15.8,0,9,3.1,24.8,1.5" class="g2g_318"/>
<g clip-path="url(#c6_318)">
<path d="M67.5,801.4c0,0,0,-1.4,7.2,-1.4c7.2,0,22.7,-.1,29.9,-.6l25.8,1.4c14.7,.6,22.6,-.7,37.4,-1.8l30.1,1.8c11.8,-.5,18.3,.6,30.2,-1.8h15c4.4,.9,7.9,.7,13,.7c15.8,0,9,3.1,24.8,1.5" class="g2h_318"/>
<path d="M67.5,801.8c0,0,0,-1.5,7.2,-1.5c7.2,0,22.7,0,29.9,-.6l25.8,1.5c14.7,.5,22.6,-.7,37.4,-1.8l30.1,1.8c11.8,-.6,18.3,.5,30.2,-1.8h15c4.4,.9,7.9,.7,13,.7c15.8,0,9,3.1,24.8,1.5" class="g2i_318"/>
<path d="M67.5,802.1c0,0,0,-1.4,7.2,-1.4c7.2,0,22.7,-.1,29.9,-.6l25.8,1.4c14.7,.6,22.6,-.7,37.4,-1.8l30.1,1.8c11.8,-.5,18.3,.6,30.2,-1.8h15c4.4,.9,7.9,.8,13,.8c15.8,0,9,3.1,24.8,1.5" class="g2j_318"/>
</g>
<path d="M84.5,790.4c.1,-.1,.4,-.2,.6,-.1c.2,0,.4,-.3,.8,-.4c.3,0,.5,0,.7,.1c.1,.1,.6,.4,.7,.5c.2,0,.3,0,.5,0c.7,.1,.9,.6,.8,.9c-.2,-.1,-.8,0,-1.1,0c-.3,0,-.9,.1,-1.2,.4c-.2,0,-.5,0,-.6,-.2l-1.2,-.1c-.1,-.6,-.1,-.9,0,-1.1Z" class="g2k_318"/>
<g clip-path="url(#c7_318)">
<path d="M84.4,791.8l.8,-.7l-.8,.6Z" class="g2l_318"/>
<path d="M84.6,792l.8,-.7l-.1,-.1l-.8,.7Z" class="g2m_318"/>
<path d="M84.7,792.1l.8,-.6v-.1l-.8,.7Z" class="g2n_318"/>
<path d="M84.9,792.3l.8,-.7h-.1l-.8,.6Z" class="g2o_318"/>
<path d="M85,792.5l.8,-.7v-.1l-.8,.7Z" class="g1q_318"/>
</g>
<path d="M84.4,791.8l.1,-.3l1.2,.1l.2,.2H84.4Z" class="g2p_318"/>
<path d="M86.6,790c-.1,.2,-.2,.2,-.4,.3m.6,-.1c-.2,0,-.4,0,-.6,-.1" class="g2q_318"/>
<path d="M87.3,790.5c-.1,0,-.3,.2,-.4,.2q-.3,0,-.5,-.1m-.7,-.5c.1,.1,.3,.2,.4,.3" class="g2r_318"/>
<path d="M87,790.5c-.2,0,-.3,0,-.5,-.1m.4,0c-.2,0,-.2,.1,-.4,.3" class="g2q_318"/>
<path d="M86.6,790c.1,.1,.6,.4,.7,.5c.2,0,.3,0,.5,0c.7,.1,.9,.6,.8,.9m-4.1,.1c-.1,-.6,-.1,-.9,0,-1.1" class="g2r_318"/>
<g clip-path="url(#c8_318)">
<path d="M86.3,791.4h2.2Z" class="g2l_318"/>
<path d="M86.3,791.5h2.2Z" class="g2m_318"/>
<path d="M86.3,791.6h2.2Z" class="g2n_318"/>
<path d="M86.3,791.7h2.2Z" class="g2o_318"/>
<path d="M86.3,791.8h2.2Z" class="g1q_318"/>
</g>
<path d="M86.3,791.8c.3,-.3,.9,-.4,1.2,-.4c.3,0,.8,-.1,1.1,0c.2,.2,-.1,.3,-.4,.4H86.3Z" class="g2p_318"/>
<path d="M84.7,790.3c0,.3,-.2,.3,-.2,.5c0,.2,.2,.3,.2,.5l.3,.1l-.2,-1.1Z" class="g2s_318"/>
<path d="M84.5,790.8c0,.2,.2,.3,.2,.5l.2,.1l-.1,-1.1h-.1c0,.3,-.2,.3,-.2,.5Z" class="g2t_318"/>
<path d="M84.5,790.8c0,.2,.1,.3,.1,.5h.2l-.1,-.9h-.1c0,.2,-.1,.2,-.1,.4Z" class="g2u_318"/>
<path d="M84.6,790.4c0,.2,-.1,.2,-.1,.4c0,.2,.1,.3,.1,.5h.2l-.1,-.9Z" class="g2v_318"/>
<path d="M87.6,790.8c0,.2,.5,.1,.5,.1c0,0,.3,0,.3,-.1c0,-.1,-.3,-.1,-.3,-.1c-.2,0,-.5,-.1,-.5,.1Z" class="g2s_318"/>
<path d="M88.1,790.9c0,0,.2,0,.2,-.1c0,-.1,-.2,-.1,-.2,-.1c-.2,0,-.5,-.1,-.5,.1c0,.2,.5,.1,.5,.1Z" class="g2t_318"/>
<path d="M88.1,790.8c0,0,.1,0,.2,0c0,-.1,-.3,-.1,-.3,-.1c-.1,0,-.4,-.1,-.4,.1c0,.2,.5,0,.5,0Z" class="g2u_318"/>
<path d="M87.6,790.7c0,.2,.5,.1,.5,.1c0,0,.1,0,.1,-.1c.1,0,-.2,-.1,-.2,-.1c-.1,.1,-.3,0,-.4,.1Z" class="g2v_318"/>
<g clip-path="url(#c9_318)">
<path d="M78.7,791.6l1.1,-.4l-1.1,.3Z" class="g2l_318"/>
<path d="M78.8,791.7l1.1,-.3v-.1l-1.1,.4Z" class="g2m_318"/>
<path d="M78.8,791.8l1.1,-.3l-1.1,.3Z" class="g2n_318"/>
<path d="M78.9,792l1.1,-.4l-1.1,.3Z" class="g2o_318"/>
<path d="M78.9,792.1l1.1,-.3v-.1l-1.1,.4Z" class="g1q_318"/>
</g>
<path d="M78.8,791.8v-.4l1.2,.2v.2H78.8Z" class="g2p_318"/>
<path d="M78.9,790.2c.3,-.2,1,-.3,1.4,-.4c.2,0,.6,.1,.8,.2c0,.1,.2,.3,.3,.4q.2,0,.4,0c.7,0,1.1,.5,1,.8c-.3,-.1,-.8,0,-1.1,.1c-.3,0,-.7,.2,-1.2,.5c-.1,0,-.2,0,-.3,0l-.2,-.2l-1.2,-.2c0,-.5,0,-.9,.1,-1.2Z" class="g2k_318"/>
<path d="M80.9,790c-.2,.2,-.3,.2,-.4,.3m.5,-.1c-.2,0,-.3,0,-.6,-.1" class="g2q_318"/>
<path d="M80,790c0,.2,.1,.3,.2,.4" class="g2r_318"/>
<path d="M81.2,790.5c-.2,0,-.3,0,-.5,0m.3,-.2c-.1,.1,-.2,.2,-.3,.3" class="g2q_318"/>
<path d="M81.6,790.4c-.2,.1,-.4,.3,-.6,.3q-.2,0,-.4,-.1m.5,-.6c0,.1,.2,.3,.3,.4q.2,0,.4,0c.7,0,1.1,.5,1,.8c-.3,-.1,-.8,0,-1.1,.1c-.3,0,-.7,.2,-1.2,.5c-.1,0,-.2,0,-.3,0l-.2,-.2l-1.2,-.2c0,-.5,0,-.9,.1,-1.2" class="g2r_318"/>
<g clip-path="url(#ca_318)">
<path d="M80.5,791.3h2.2Z" class="g2l_318"/>
<path d="M80.5,791.4h2.2Z" class="g2m_318"/>
<path d="M80.5,791.5h2.2Z" class="g2n_318"/>
<path d="M80.5,791.6h2.2Z" class="g2o_318"/>
<path d="M80.5,791.8h2.2Z" class="g1q_318"/>
</g>
<path d="M80.5,791.8c.5,-.2,.9,-.5,1.2,-.5c.3,-.1,.8,-.1,1,-.1c.3,.2,-.1,.5,-.4,.6H80.5Z" class="g2p_318"/>
<path d="M79.1,790.2c0,.2,-.2,.4,-.2,.6c0,.2,.2,.3,.2,.5l.2,.1l-.1,-1.2Z" class="g2s_318"/>
<path d="M78.9,790.8c0,.2,.1,.3,.1,.5l.3,.1l-.2,-1.2H79c0,.2,-.1,.4,-.1,.6Z" class="g2t_318"/>
<path d="M78.9,790.8c0,.2,.1,.3,.1,.5h.2l-.1,-1.1H79c0,.2,-.1,.4,-.1,.6Z" class="g2u_318"/>
<path d="M79,790.2c0,.3,-.1,.4,-.1,.6c0,.2,.1,.3,.1,.5h.1L79,790.2Z" class="g2v_318"/>
<path d="M81.5,790.7c0,.2,.6,0,.6,0c0,0,.2,.1,.3,0c0,-.1,-.3,-.2,-.3,-.2c-.2,0,-.5,0,-.6,.2Z" class="g2s_318"/>
<path d="M82.1,790.7c0,0,.2,0,.2,0c.1,-.2,-.2,-.2,-.2,-.2c-.2,0,-.5,0,-.5,.2c0,.2,.5,0,.5,0Z" class="g2t_318"/>
<path d="M82.1,790.7c0,0,.1,0,.2,-.1c0,-.1,-.3,-.1,-.3,-.1c-.1,0,-.4,0,-.4,.1c0,.2,.5,.1,.5,.1Z" class="g2u_318"/>
<path d="M81.6,790.6c0,.2,.5,.1,.5,.1c0,0,.1,0,.1,-.1c.1,-.1,-.2,-.1,-.2,-.1c-.2,0,-.4,-.1,-.4,.1Z" class="g2v_318"/>
<path d="M79.6,770.8l1.3,.3l3.5,.4h1.4c0,.3,0,.6,.1,.9c0,.9,.2,1.4,.3,2.3c.2,2.1,0,3.3,0,5.3c0,1,.4,1.5,.4,2.5c0,.3,-.1,4.1,-.1,4.4c0,.4,.4,1.4,.4,1.8c0,0,-.1,.5,-.2,.7c0,0,.2,.2,.2,.2l-.2,.4c0,0,-.6,-.1,-.8,-.1c-.2,0,-.6,.5,-.8,.4c-.2,-.1,-.6,.1,-.7,.1c-.2,-.4,-.3,-2.8,-.3,-2.8L83.6,785v-2.1l.1,-.4l-.3,-.6c-.1,-.8,-.4,-1.1,-.5,-1.8c0,-.7,.1,-1.1,-.1,-2c-.2,.5,-.1,1,-.3,1.6c-.2,.7,-.2,1.1,-.4,1.8c-.1,.3,-.3,.5,-.3,.8c0,1,-.2,1.5,-.3,2.4l-.1,2.6l-.3,1.5c0,.6,.2,1.1,.2,1.2c-.2,-.1,-.8,-.2,-1,-.2c-.4,.1,-1.2,.2,-1.6,.5c-.3,-.6,.2,-2.9,.2,-3.7c0,-.6,-.2,-2,-.1,-2.5c.1,-.7,.2,-1.5,.6,-2l-.1,-3.6c0,-1.6,-.1,-3.2,-.1,-4.8c0,-.7,.2,-1.1,.4,-1.8Z" class="g2w_318"/>
<path d="M79.6,770.8c.5,.2,.3,.9,.5,1.4c.2,.7,.4,1.2,.4,2c0,.1,-.2,.4,-.2,.5l.1,.5c0,.2,-.3,.3,-.3,.6c0,.9,.6,1.3,.6,2.3c0,.6,-.5,.9,-.7,1.6c.2,.3,.5,0,.8,.4c-.1,.1,-.2,.2,-.3,.4v.2l.2,-.1l.1,.2l-.7,.6c.2,0,.4,0,.5,.1c-.3,.4,0,.5,-.3,.9c.1,.1,-.1,.4,-.3,.4v.5c.2,.6,.3,.9,.3,1.5c0,.7,-.4,1.1,-.2,1.9c-.2,0,-.3,.1,-.5,.1v.4c0,.2,.2,.4,.2,.6c0,.3,-.3,.5,-.3,.9c.3,.1,.6,.3,.7,.7c-.2,-.1,-.3,-.3,-.5,-.3c-.2,0,-.2,.3,-.2,.5c-.2,.2,-.6,.4,-.8,.7c-.3,-.6,.2,-2.9,.2,-3.7c0,-.6,-.2,-2,-.1,-2.5c.1,-.7,.2,-1.5,.6,-2l-.1,-3.6c0,-1.6,-.1,-3.2,-.1,-4.8c0,-.7,.2,-1.1,.4,-1.8Z" class="g2x_318"/>
<path d="M82.7,778.1c.1,-.2,.3,-.7,.4,-.8c.3,.8,.3,1.4,.3,2.2c0,.4,.3,.6,.5,.8c.2,.4,-.2,.7,.1,1.1c.1,.2,.5,.4,.7,.6c.2,.2,.1,.3,-.1,.3c-.3,0,-.2,0,-.5,0c0,0,-.1,0,-.1,.1c0,.4,.6,.6,.6,1c0,.2,-.2,.4,-.4,.4c-.3,0,-.2,.4,-.2,.7c0,.4,.4,.5,.4,.9c0,.3,-.1,.4,-.1,.6c0,1.4,.2,2.2,.2,3.6c0,.2,.4,-.1,.4,.1c0,.1,-.5,.6,-.5,.7c-.2,-.4,-.3,-2.8,-.3,-2.8L83.6,785v-2.1l.1,-.4l-.3,-.6c-.1,-.8,-.4,-1.1,-.5,-1.8c0,-.7,0,-1.1,-.2,-2Z" class="g2x_318"/>
<path d="M84.4,771.7c0,.3,0,.7,0,.9c0,.5,-.1,.8,-.3,1.1m1.7,-2.2c0,.3,0,.6,.1,.9c0,.9,.2,1.4,.3,2.3c.2,2.1,0,3.3,0,5.3c0,1,.4,1.5,.4,2.5c0,.3,-.1,4.1,-.1,4.4c0,.4,.4,1.4,.4,1.8c0,0,-.1,.5,-.2,.7c0,0,.2,.2,.2,.2l-.2,.4c0,0,-.6,-.1,-.8,-.1c-.2,0,-.6,.5,-.8,.4c-.2,-.1,-.6,.1,-.7,.1c-.2,-.4,-.3,-2.8,-.3,-2.8L83.6,785v-2.1l.1,-.4l-.3,-.6c-.1,-.8,-.4,-1.1,-.5,-1.8c0,-.7,.1,-1.1,-.1,-2c-.2,.5,-.1,1,-.3,1.6c-.2,.7,-.2,1.1,-.4,1.8c-.1,.3,-.3,.5,-.3,.8c0,1,-.2,1.5,-.3,2.4l-.1,2.6l-.3,1.5c0,.6,.2,1.1,.2,1.2c-.2,-.1,-.8,-.2,-1,-.2c-.4,.1,-1.2,.2,-1.6,.5c-.3,-.6,.2,-2.9,.2,-3.7c0,-.6,-.2,-2,-.1,-2.5c.1,-.7,.2,-1.5,.6,-2l-.1,-3.6c0,-1.6,-.1,-3.2,-.1,-4.8c0,-.7,.2,-1.1,.4,-1.8v-1.1" class="g2y_318"/>
<path d="M82.8,778.1c0,-.2,.1,-.4,.2,-.6c.4,-.6,.6,-1,.6,-1.7c0,-.5,.1,-.8,.3,-1.1" class="g2z_318"/>
<path d="M82.7,778c.1,-.1,.2,-.3,.3,-.5c.3,-.6,.6,-1,.6,-1.7c0,-.5,.1,-.8,.2,-1.1" class="g30_318"/>
<path d="M82.7,778c.1,-.2,.1,-.3,.3,-.5c.3,-.6,.5,-1,.5,-1.7c0,-.5,.2,-.8,.3,-1.1" class="g31_318"/>
<path d="M82.7,778c0,-.2,.1,-.3,.2,-.5c.4,-.6,.6,-1,.6,-1.7c0,-.5,.2,-.8,.3,-1.1" class="g32_318"/>
<path d="M82.7,778c0,-.2,.1,-.3,.2,-.5c.3,-.6,.6,-1,.6,-1.7c0,-.5,.1,-.8,.2,-1.1" class="g33_318"/>
<path d="M82.6,778c.1,-.2,.1,-.3,.3,-.5c.3,-.6,.6,-1,.6,-1.7c0,-.5,.1,-.8,.2,-1.1" class="g34_318"/>
<path d="M82.6,778c.1,-.2,.1,-.3,.2,-.5c.4,-.6,.6,-1,.6,-1.7c0,-.5,.2,-.8,.3,-1.1" class="g35_318"/>
<path d="M82.6,778c0,-.2,.1,-.3,.2,-.5c.4,-.6,.6,-1,.6,-1.7c0,-.5,.1,-.8,.3,-1.1" class="g36_318"/>
<path d="M85.7,770.4c-.2,-.8,-.3,-.4,-.3,-1.1c0,-1,.3,-1.6,.4,-2.4H86v.8c-.1,.7,0,1.1,-.3,1.8Z" class="g37_318"/>
<path d="M86,766.9v.8c-.1,.7,0,1.1,-.3,1.8v.9" class="g38_318"/>
<path d="M85.1,762c.6,.1,1,.8,1,1.4c0,.7,0,2,0,2l-.1,1.5h-.1c0,-.2,0,-.5,0,-.8c0,-.8,.1,-1.2,.1,-2c0,-.9,-.2,-1.6,-.9,-2.1Z" class="g39_318"/>
<path d="M85.1,762c.6,.1,1,.8,1,1.4c0,.7,0,2,0,2l-.1,1.5h-.1" class="g3a_318"/>
<path d="M78.6,767.3h-.1c-.1,-.1,-.1,-.2,0,-.2c.1,-.1,0,-.3,0,-.3c-.1,-.1,0,-.3,0,-.3c.1,.1,.1,-1,.2,-1.4c0,0,0,-.9,0,-1.2c0,-.4,.1,-.9,.1,-.9c.1,-.5,.2,-.7,.4,-.9c.3,-.2,.6,-.4,1,-.4c.2,-.2,.9,-.2,1.2,-.8c.2,.3,.4,.3,.9,.7c.5,.3,.6,.4,.8,.4c.4,0,.6,-.4,.5,-.5c.6,.2,.9,.1,1.4,.4c.8,.5,1,1.3,1,2.2c0,.8,-.1,1.2,-.1,2c0,1.3,-.4,2,-.4,3.2c0,.7,.1,.3,.3,1.1v1.2H84.7l-.3,-.1l-3.5,-.4Z" class="g3b_318"/>
<path clip-path="url(#cb_318)" d="M78.8,767.3c.1,0,-.1,-.1,-.1,-.1q0,-.2,.2,-.2c.1,-.1,0,-.4,.1,-.5c.1,-.1,-.2,-.1,-.2,-.3c0,-.2,.2,-.3,.2,-.5v-.5c-.1,-.4,0,-.6,.1,-1.1c.1,-.2,.1,-.4,.3,-.6l-.2,-.3v-.4c.2,-.2,.3,-.4,.5,-.5c.1,-.1,.3,-.1,.4,-.2c0,-.1,.2,-.2,.2,-.2c.1,-.2,.8,-.4,.8,-.6c-.1,0,-2.2,.3,-2.3,.5c-.1,.2,-.9,5.3,-.8,5.5c.2,0,.4,0,.8,0Z" class="g3c_318"/>
<path d="M78.6,767.3h-.1c-.1,-.1,-.1,-.2,0,-.2c.1,-.1,0,-.3,0,-.3c-.1,-.1,0,-.3,0,-.3c.1,.1,.1,-1,.2,-1.4c0,0,0,-.9,0,-1.2c0,-.3,.1,-.9,.1,-.9c.1,-.5,.2,-.7,.4,-.9c.3,-.2,.6,-.4,1,-.4c.2,-.2,.9,-.2,1.2,-.8c.2,.3,.4,.3,.9,.7c.5,.3,.6,.4,.8,.4c.4,0,.6,-.4,.5,-.5c.6,.2,.9,.1,1.4,.5c.8,.4,1,1.2,1,2.1c0,.8,-.1,1.2,-.1,2c0,1.3,-.4,2,-.4,3.2c0,.7,.1,.3,.3,1.1v1.2H84.7l-.3,-.1l-3.5,-.4l-2.3,-3.8Z" class="g3a_318"/>
<path d="M80.9,771.1c-.1,-.3,0,0,-.2,-.8L80.6,769l-.2,-1.2c0,0,.1,-.3,.1,-.4c.2,-.6,.1,-1.5,.2,-2c0,-.4,.2,-.9,.2,-1.5c.1,.6,.2,1,.1,1.6c0,.3,-.3,.5,-.2,.8c.1,.2,.2,.2,.3,.4c0,.3,-.1,.5,-.2,.8c0,.1,0,.2,0,.4c.1,.2,.3,.2,.4,.3c.3,.4,.1,.9,.1,1.4c0,.3,-.3,.6,-.1,.9c.2,.1,.4,0,.4,.2c.1,.2,-.2,.4,-.2,.4Z" class="g39_318"/>
<path d="M81.2,773.9l-.1,-.1c0,0,0,-.1,0,-.2m-.7,-6.2c0,.1,0,.4,0,.4l.2,1.2l.1,1.3c.3,1.1,0,.2,.4,1.3c0,.2,.3,.8,.4,.9c0,.1,.1,.2,.1,.3l.5,.5c0,.2,.2,.5,.1,.5c-.1,.1,-.1,.4,-.1,.4c.1,0,.2,.3,.4,.4c0,0,0,.1,-.1,.2c0,0,-.1,0,-.1,0l.1,.2c-.1,0,-.2,.1,-.4,.1c-.1,-.1,-.4,-.4,-.4,-.4l.1,.1c0,0,-.1,.1,-.2,.1c-.1,0,-.4,-.2,-.4,-.2c0,.1,-.1,.1,-.2,0c-.2,-.1,-.2,-.4,-.3,-.5c-.1,-.1,-.1,-.3,-.1,-.4c-.2,-.1,-.2,-.3,-.2,-.6c0,-.1,.1,-.2,0,-.3c0,0,-.1,-.2,0,-.3c-.2,-.5,-1.1,-2.4,-1.4,-3.4c-.1,-.3,-.3,-.7,-.3,-1.2c0,0,0,-.6,0,-.7" class="g38_318"/>
<path fill-rule="evenodd" d="M78.6,767.4l1.8,.1c0,.1,-.1,.3,-.1,.4l.3,1.1l.1,1.4c.2,1.1,-.1,.2,.3,1.3c0,.2,.3,.8,.4,.9c.1,.1,.1,.2,.1,.3l.5,.5c.1,.2,.2,.4,.1,.5c0,.1,-.1,.3,-.1,.3c.1,.1,.3,.3,.4,.5c0,0,0,.1,0,.1c-.1,.1,-.2,.1,-.2,.1l.1,.1c0,.1,-.2,.2,-.4,.1c0,0,-.4,-.3,-.4,-.3l.1,.1c0,0,-.1,.1,-.2,.1c-.1,0,-.3,-.2,-.3,-.2c-.1,0,-.2,0,-.3,0c-.2,-.1,-.2,-.4,-.3,-.6c-.1,0,-.1,-.2,-.1,-.3c-.1,-.1,-.2,-.3,-.2,-.6c0,-.1,.1,-.2,.1,-.3c-.1,0,-.1,-.2,-.1,-.3c-.1,-.5,-1.1,-2.4,-1.4,-3.5c0,-.2,-.3,-.6,-.3,-1.1c0,-.1,.1,-.6,.1,-.7Z" class="g3d_318"/>
<path fill-rule="evenodd" d="M78.7,767.4l1.7,.1c0,.1,-.1,.3,-.1,.4l.3,1.1l.1,1.4c.2,1.1,-.1,.2,.3,1.3c0,.2,.3,.8,.4,.9c.1,.1,.1,.2,.1,.3l.5,.5c.1,.2,.2,.4,.1,.5c0,.1,-.1,.3,-.1,.3c.1,.1,.3,.3,.4,.5c0,0,0,.1,0,.1c-.1,.1,-.2,.1,-.2,.1l.1,.1c0,.1,-.2,.2,-.4,.1c0,0,-.4,-.3,-.4,-.3l.1,.1c0,0,-.1,.1,-.2,.1c-.1,0,-.3,-.2,-.3,-.2c-.1,0,-.2,0,-.3,0c-.1,-.1,-.2,-.5,-.3,-.6c-.1,-.1,0,-.2,0,-.3c-.2,-.1,-.2,-.3,-.2,-.6c0,-.1,.1,-.2,0,-.3c-.1,0,-.1,-.2,0,-.3c-.2,-.5,-1.1,-2.4,-1.4,-3.4c0,-.3,-.3,-.7,-.3,-1.2c0,0,.1,-.6,.1,-.7Z" class="g3e_318"/>
<path fill-rule="evenodd" d="M78.8,767.4l1.6,.1c0,.1,-.1,.3,-.1,.4l.3,1.1l.1,1.4c.2,1.1,-.1,.2,.3,1.3c0,.2,.3,.8,.4,.9c.1,.1,.1,.2,.1,.3l.5,.5c.1,.2,.2,.4,.1,.5c0,.1,-.1,.3,-.1,.3c.1,.1,.3,.3,.4,.5c0,0,0,.1,0,.1c-.1,.1,-.2,.1,-.2,.1l.1,.1c0,.1,-.2,.2,-.4,.1c0,0,-.4,-.3,-.4,-.3l.1,.1c0,0,-.1,.1,-.2,.1c-.1,0,-.3,-.2,-.3,-.2c-.1,0,-.2,0,-.3,0c-.1,-.1,-.1,-.5,-.3,-.6c0,-.1,0,-.2,0,-.3c-.1,-.1,-.1,-.3,-.1,-.6c0,-.1,.1,-.2,0,-.3c-.1,0,-.1,-.2,0,-.3c-.2,-.5,-1.1,-2.4,-1.4,-3.4c0,-.3,-.3,-.7,-.3,-1.1c0,-.1,.1,-.7,.1,-.8Z" class="g37_318"/>
<path fill-rule="evenodd" d="M78.9,767.4l1.5,.1c0,.1,-.1,.3,-.1,.4l.3,1.1l.1,1.4c.2,1.1,-.1,.2,.3,1.3c0,.2,.3,.8,.4,.9c.1,.1,.1,.2,.1,.3l.5,.5c.1,.2,.2,.4,.1,.5c0,.1,-.1,.3,-.1,.3c.1,.1,.3,.3,.4,.5c0,0,0,.1,0,.1c-.1,.1,-.2,.1,-.2,.1l.1,.1c0,.1,-.2,.2,-.4,.1c0,0,-.4,-.3,-.4,-.3l.1,.1c0,0,-.1,.1,-.2,.1c-.1,0,-.3,-.2,-.3,-.2q-.1,0,-.2,-.1c-.2,0,-.2,-.4,-.3,-.5c-.1,-.1,-.1,-.2,-.1,-.3c-.1,-.1,-.1,-.2,-.1,-.6c0,-.1,.1,-.2,.1,-.3c-.1,0,-.1,-.2,-.1,-.3c-.1,-.5,-1,-2.4,-1.3,-3.4c-.1,-.3,-.3,-.7,-.3,-1.1c0,-.1,.1,-.7,.1,-.8Z" class="g3f_318"/>
<path fill-rule="evenodd" d="M79,767.5h1.4c0,.1,-.1,.3,-.1,.4l.3,1.1l.1,1.4c.2,1.1,-.1,.2,.3,1.3c0,.2,.3,.8,.4,.9c.1,.1,.1,.2,.1,.3l.5,.5c.1,.2,.2,.4,.1,.5c0,.1,-.1,.3,-.1,.3c.1,.1,.3,.3,.4,.5c0,0,0,.1,0,.1c-.1,.1,-.2,.1,-.2,.1l.1,.1c0,.1,-.2,.2,-.4,.1c0,0,-.4,-.3,-.4,-.3l.1,.1c0,0,-.1,.1,-.2,.1c-.1,0,-.3,-.2,-.3,-.2c-.1,0,-.1,-.1,-.2,-.1c-.2,-.1,-.2,-.4,-.3,-.6c-.1,0,-.1,-.2,-.1,-.3c-.1,-.1,0,-.1,0,-.4c0,-.2,.1,-.3,.1,-.4c-.1,0,-.2,-.2,-.1,-.3c-.1,-.5,-1,-2.4,-1.3,-3.4c-.1,-.3,-.3,-.7,-.3,-1.1c0,-.1,0,-.7,.1,-.7Z" class="g3g_318"/>
<path d="M80.8,764c0,.6,-.2,1.1,-.2,1.5c0,.5,0,1.4,-.2,2c0,0,-1.2,-.1,-1.8,-.1" class="g3a_318"/>
<g clip-path="url(#cc_318)">
<path d="M81.4,772.9h.1l-.1,-.3h-.1Z" class="g3g_318"/>
<path d="M81.4,772.9h.1l-.1,-.4l-.1,.1Z" class="g3f_318"/>
<path d="M81.5,772.9l.1,-.1l-.1,-.3l-.2,.1Z" class="g37_318"/>
<path d="M81.5,772.9l.1,-.1l-.1,-.3l-.1,.1Z" class="g3e_318"/>
<path d="M81.5,772.9l.1,-.1l-.1,-.3l-.1,.1Z" class="g3d_318"/>
</g>
<path d="M82.3,774.8l-.6,-.4c0,-.2,-.2,-.6,-.3,-.6m.2,.9l-.2,-.2c-.1,-.2,-.2,-.5,-.3,-.5m.1,.7c-.2,-.2,-.2,-.5,-.4,-.7m.1,0c-.1,-.1,-.1,-.3,-.1,-.4m1.3,.6l-.1,-.3c-.1,-.1,-.1,-.2,-.2,-.2c-.1,-.1,0,-.2,0,-.3m-.6,.5l-.1,-.1c0,0,0,-.1,0,-.2" class="g3h_318"/>
<path d="M81.5,761c0,0,.3,-.4,.3,-.7c0,-.3,-.2,-.7,-.2,-.7c-.3,-.6,-.4,-.6,-.6,-1.1c-.1,-.3,-.2,-.5,-.2,-.8c-.1,-.9,.4,-1.6,1.3,-1.9l.7,-.2c.7,-.1,1.5,0,1.9,.8c.1,.4,.3,.6,.3,.9c0,.3,.5,.7,.5,.9c.1,.2,-.4,.2,-.3,.4c.1,.2,.1,.3,.1,.5c0,.1,.2,.4,.2,.5c0,.2,-.5,.4,-.7,.3c-.5,.2,-1.1,1.1,-1.2,1.6c.1,.1,-.1,.5,-.5,.5c-.3,0,-.3,-.1,-.8,-.4c-.3,-.3,-.6,-.2,-.8,-.6Z" class="g37_318"/>
<path d="M81.5,761c.1,-.2,.3,-.4,.3,-.7c0,-.3,-.2,-.7,-.2,-.7" class="g3h_318"/>
<path d="M84.9,759.9c-.3,.1,-1.5,-.1,-1.7,-.3c-.1,-.2,0,-.5,-.4,-.7" class="g3i_318"/>
<g clip-path="url(#cd_318)">
<path d="M82.7,758.9l-.3,-1l.3,-.1l.2,1.1Z" class="g37_318"/>
<path d="M82.6,759l-.3,-1.1h.3l.2,1Z" class="g3j_318"/>
<path d="M82.4,759l-.2,-1.1h.2l.3,1.1Z" class="g3f_318"/>
<path d="M82.3,759l-.2,-1l.2,-.1l.2,1.1Z" class="g3k_318"/>
<path d="M82.2,759L82,758l.2,-.1l.2,1.1Z" class="g3g_318"/>
</g>
<path d="M82.6,758.1c0,-.1,-.2,-.1,-.3,-.1c-.2,.1,-.3,.3,-.2,.4c0,.2,.2,.2,.2,.3c.1,.2,.3,.3,.4,.2" class="g3h_318"/>
<g clip-path="url(#ce_318)">
<path d="M82.3,758.6h.1v-.4h-.1v.4Z" class="g3l_318"/>
<path d="M82.4,758.6v0v-.4v.4Z" class="g3m_318"/>
<path d="M82.4,758.2v.4v-.4Z" class="g3n_318"/>
<path d="M82.4,758.2v.4v-.4Z" class="g3k_318"/>
<path d="M82.4,758.2v.4v-.4Z" class="g37_318"/>
</g>
<g clip-path="url(#cf_318)">
<path d="M82.4,758.4v0V758h.1Z" class="g3l_318"/>
<path d="M82.4,758.4v0V758h.1Z" class="g3m_318"/>
<path d="M82.4,758.4v0V758Z" class="g3n_318"/>
<path d="M82.4,758.4h-.1l.1,-.4Z" class="g3k_318"/>
<path d="M82.3,758.4v0V758h.1Z" class="g37_318"/>
</g>
<g clip-path="url(#cg_318)">
<path d="M82.5,758.2l-.4,.1v-.1l.4,-.1Z" class="g3l_318"/>
<path d="M82.5,758.3l-.3,.1l-.1,-.1h.4Z" class="g3o_318"/>
<path d="M82.5,758.5l-.3,.1v-.1l.3,-.1Z" class="g3p_318"/>
<path d="M82.6,758.6l-.4,.1v-.1h.4Z" class="g3n_318"/>
<path d="M82.6,758.8h-.4l.4,-.1Z" class="g3g_318"/>
</g>
<g clip-path="url(#ch_318)">
<path d="M82.5,758.6v-.3l.1,.3Z" class="g3l_318"/>
<path d="M82.5,758.6l-.1,-.3h.1l.1,.3Z" class="g3o_318"/>
<path d="M82.5,758.6l-.1,-.3h.1l.1,.3Z" class="g3p_318"/>
<path d="M82.5,758.6l-.1,-.3h.1l.1,.3Z" class="g3n_318"/>
<path d="M82.4,758.7v-.4l.1,.3Z" class="g3g_318"/>
</g>
<path d="M84.6,757.1c-.2,0,-.2,.1,-.4,.2c.1,-.1,.2,-.3,.4,-.3c.1,0,.4,.1,.3,.1c-.1,0,-.2,0,-.3,0Z" class="g3q_318"/>
<path d="M84.6,757.1c-.2,0,-.2,.1,-.4,.2c.1,-.1,.2,-.3,.4,-.3c.1,0,.4,.1,.3,.1c-.1,0,-.2,0,-.3,0Z" class="g2q_318"/>
<path d="M84.5,758.2c-.1,-.2,-.2,-.2,-.5,-.3c-.1,-.1,-.2,-.3,-.2,-.4c0,-.1,.1,0,.1,0c.1,.4,.8,.3,.9,.8c0,.1,-.1,.3,-.2,.3c-.2,0,-.1,-.2,-.1,-.4Z" class="g37_318"/>
<path d="M84.5,758.2c-.1,-.2,-.2,-.2,-.4,-.3c-.2,-.1,-.2,-.2,-.2,-.4c-.1,-.1,0,0,0,0c.1,.4,.7,.3,.8,.7c0,.1,0,.3,-.1,.4c-.2,0,-.1,-.3,-.1,-.4Z" class="g3e_318"/>
<path d="M84.5,758.2c-.1,-.2,-.2,-.3,-.4,-.4c-.2,0,-.2,-.1,-.2,-.2q0,-.1,0,-.1c.1,.4,.7,.3,.7,.7c0,.1,.1,.3,0,.3c-.2,0,-.1,-.2,-.1,-.3Z" class="g3d_318"/>
<path d="M84.7,756.4c.1,.5,.3,.6,.3,.9c0,.3,.5,.7,.5,.9c.1,.2,-.4,.2,-.3,.4c.1,.2,.1,.3,.1,.5c0,.1,.2,.4,.2,.5c0,.2,-.5,.4,-.7,.3c-.5,.2,-1.1,1.1,-1.2,1.6m1.2,-2.9c0,.2,-.2,.4,-.2,.5" class="g38_318"/>
<path fill-rule="evenodd" d="M83.7,758.5H83l-.2,-.7c-.1,-.1,-.2,-.2,-.4,-.1c-.3,.2,-.2,.4,0,.7c.1,.3,0,.8,-.1,1c-.1,.2,-.2,.2,-.4,.2c-.2,.1,-.3,.3,-.4,.1c-.2,-.3,-.4,-1,-.7,-1.4c-.1,-.3,-.3,-1.1,0,-1.5c.3,-.6,.7,-1,1.4,-1.2c.8,-.2,1.2,0,1.8,0c.4,0,.6,.1,.7,.5c.2,.3,-.1,.2,-.3,.3c-.5,.1,-.8,.2,-1.4,.1c-.1,0,-.1,.5,0,.7c0,.2,.2,.9,.7,1.3Z" class="g3r_318"/>
<path d="M83.7,758.5H83l-.2,-.7c-.1,-.1,-.2,-.2,-.4,-.1c-.3,.2,-.2,.4,0,.7c.1,.3,0,.8,-.1,1c-.1,.2,-.2,.2,-.4,.2c-.2,.1,-.3,.3,-.4,.1c-.2,-.3,-.4,-1,-.7,-1.4c-.1,-.3,-.3,-1.1,0,-1.5c.3,-.6,.7,-1,1.4,-1.2c.8,-.2,1.2,0,1.8,0c.4,0,.6,.1,.7,.5c.2,.3,-.1,.2,-.3,.3c-.5,.1,-.8,.2,-1.4,.1c-.1,0,-.1,.5,0,.7c0,.2,.2,.9,.7,1.3Z" class="g2q_318"/>
<path d="M85.3,758.9h-.1c-.1,0,-.1,.1,-.3,.1" class="g3s_318"/>
<path fill-rule="evenodd" d="M82.8,756c-.3,.3,-.2,.6,-.2,1c-.1,0,-.1,-.1,-.1,-.1c-.1,-.3,.1,-.7,.3,-.9Z" class="g3t_318"/>
<path d="M82.8,756c-.3,.3,-.2,.6,-.2,1c-.1,0,-.1,-.1,-.1,-.1c-.1,-.3,.1,-.7,.3,-.9Z" class="g2q_318"/>
<path fill-rule="evenodd" d="M81.6,757c0,.3,.1,.4,.2,.7v-.4c-.1,-.1,-.2,-.2,-.2,-.3c0,-.2,0,-.4,.1,-.6c-.2,.2,-.2,.4,-.1,.6Z" class="g3t_318"/>
<path d="M81.6,757c0,.3,.1,.4,.2,.7v-.4c-.1,-.1,-.2,-.2,-.2,-.3c0,-.2,0,-.4,.1,-.6c-.2,.2,-.2,.4,-.1,.6Z" class="g2q_318"/>
<path fill-rule="evenodd" d="M82,756.2c0,.4,-.1,.5,0,.8c0,.2,.1,.4,.2,.6c-.1,-.2,-.1,-.3,-.2,-.5c0,-.3,0,-.5,0,-.9Z" class="g3t_318"/>
<path d="M82,756.2c0,.4,-.1,.5,0,.8c0,.2,.1,.4,.2,.6c-.1,-.2,-.1,-.3,-.2,-.5c0,-.3,0,-.5,0,-.9Z" class="g2q_318"/>
<path fill-rule="evenodd" d="M82.2,756.2c-.1,.4,-.1,.7,0,1Z" class="g3t_318"/>
<path d="M82.2,756.2c-.1,.4,-.1,.7,0,1v-1Z" class="g2q_318"/>
<path d="M82.4,756.2c0,.1,0,.2,-.1,.3l.1,.2c0,-.2,0,-.3,0,-.5Z" class="g3t_318"/>
<path d="M82.4,756.2c0,.1,0,.2,-.1,.3l.1,.2c0,-.2,0,-.3,0,-.5Z" class="g2q_318"/>
<path d="M81.8,756.5c0,.2,-.1,.2,0,.4c0,.1,0,.2,.1,.4c0,-.3,-.1,-.5,-.1,-.8Z" class="g3t_318"/>
<path d="M81.8,756.5c0,.2,-.1,.2,0,.4c0,.1,0,.2,.1,.4c0,-.3,-.1,-.5,-.1,-.8Z" class="g2q_318"/>
<path fill-rule="evenodd" d="M81,758.5c0,.3,.3,.7,.7,.6q-.4,-.2,-.7,-.5Z" class="g3t_318"/>
<path d="M81,758.5c0,.3,.3,.7,.7,.6q-.4,-.2,-.7,-.5v-.1Z" class="g2q_318"/>
<path fill-rule="evenodd" d="M80.8,758.1c.1,.3,.3,.5,.6,.6c-.4,0,-.5,-.2,-.6,-.6Z" class="g3t_318"/>
<path d="M80.8,758.1c.1,.3,.3,.5,.6,.6c-.4,0,-.5,-.2,-.6,-.6Z" class="g2q_318"/>
<path d="M81.3,759.1c0,.2,.2,.3,.4,.3q-.1,0,-.2,0c-.2,0,-.2,-.1,-.2,-.3Z" class="g3t_318"/>
<path d="M81.3,759.1c0,.2,.2,.3,.4,.3q-.1,0,-.2,0c-.2,0,-.2,-.1,-.2,-.3Z" class="g2q_318"/>
<g clip-path="url(#ci_318)">
<path d="M84.2,757.7l.1,.1l.3,-.1l-.1,-.1Z" class="g3l_318"/>
<path d="M84.2,757.7l.1,.2l.3,-.2v-.1Z" class="g3u_318"/>
<path d="M84.2,757.8l.1,.1l.3,-.1v-.1Z" class="g3e_318"/>
<path d="M84.2,757.8l.1,.1l.3,-.1v-.1Z" class="g3v_318"/>
<path d="M84.3,757.8v.1l.3,-.1v-.1Z" class="g1f_318"/>
</g>
<g clip-path="url(#cj_318)">
<path d="M84.7,757.7v0c0,0,-.1,.1,-.1,.1c-.1,0,-.2,-.1,-.2,-.1c0,-.1,.1,-.2,.2,-.2c0,0,.1,.1,.1,.2m-.1,-.2c0,-.1,-.1,-.2,-.2,-.2c-.1,0,-.2,.1,-.2,.2c0,.1,.1,.2,.2,.2c.1,0,.2,-.1,.2,-.2Z" class="g3t_318"/>
<path d="M84.7,757.7v0c0,0,-.1,.1,-.1,.1c-.1,0,-.1,-.1,-.1,-.1q0,-.1,.1,-.1c0,0,.1,0,.1,.1m0,0c0,-.1,-.1,-.2,-.1,-.2c-.1,0,-.2,.1,-.2,.2c0,.1,.1,.1,.2,.1c0,0,.1,0,.1,-.1Z" class="g3w_318"/>
<path d="M84.6,757.7v0q-.1,0,-.1,0q0,-.1,.1,-.1v.1m.1,0c0,-.1,-.1,-.1,-.1,-.1q-.1,0,-.1,.1c0,0,0,.1,.1,.1c0,0,.1,-.1,.1,-.1Z" class="g3x_318"/>
<path d="M84.6,757.7v0q-.1,0,-.1,0c0,0,0,-.1,.1,-.1c0,0,0,.1,0,.1m0,0c0,0,0,-.1,0,-.1c-.1,0,-.1,.1,-.1,.1h.1Z" class="g3y_318"/>
</g>
<path d="M84.4,757.7c0,.1,.1,.1,.2,.1q0,-.1,0,-.1q0,-.1,-.1,-.1c0,0,-.1,.1,-.1,.1Z" class="g2q_318"/>
<path d="M84.7,757.6c-.1,.1,-.1,.2,-.1,.2" class="g3h_318"/>
<path d="M84.2,757.8c.1,-.1,.3,-.2,.3,-.2q.1,0,.2,0" class="g3z_318"/>
<g clip-path="url(#ck_318)">
<path d="M105.3,590v0c0,10,-8.1,18.2,-18.1,18.2C77.2,608.2,69,600,69,590c0,-10,8.2,-18.1,18.2,-18.1c10,0,18.1,8.1,18.1,18.1m1.7,.1c0,-11,-8.9,-19.9,-19.9,-19.9c-10.9,0,-19.8,8.9,-19.8,19.9c0,11,8.9,19.9,19.8,19.9c11,0,19.9,-8.9,19.9,-19.9Z" class="g40_318"/>
<path d="M103.6,590v0c0,9.1,-7.3,16.5,-16.4,16.5c-9.1,0,-16.4,-7.4,-16.4,-16.5c0,-9,7.3,-16.4,16.4,-16.4c9.1,0,16.4,7.4,16.4,16.4m1.9,-.1c0,-10,-8.2,-18.1,-18.2,-18.1c-10,0,-18.1,8.1,-18.1,18.1c0,10.1,8.1,18.2,18.1,18.2c10,0,18.2,-8.1,18.2,-18.2Z" class="g41_318"/>
<path d="M101.9,590v0c0,8.1,-6.6,14.7,-14.7,14.7c-8.1,0,-14.7,-6.6,-14.7,-14.7c0,-8.1,6.6,-14.7,14.7,-14.7c8.1,0,14.7,6.6,14.7,14.7m1.7,.1c0,-9,-7.4,-16.4,-16.5,-16.4c-9,0,-16.4,7.4,-16.4,16.4c0,9.1,7.4,16.4,16.4,16.4c9.1,0,16.5,-7.3,16.5,-16.4Z" class="g42_318"/>
<path d="M100.2,590v0c0,7.2,-5.9,13,-13,13c-7.2,0,-13,-5.8,-13,-13c0,-7.1,5.8,-12.9,13,-12.9c7.1,0,13,5.8,13,12.9m1.6,.1c0,-8.1,-6.5,-14.7,-14.7,-14.7c-8.1,0,-14.6,6.6,-14.6,14.7c0,8.1,6.5,14.7,14.6,14.7c8.2,0,14.7,-6.6,14.7,-14.7Z" class="g43_318"/>
<path d="M98.4,590v0c0,6.2,-5,11.3,-11.2,11.3C81,601.3,76,596.2,76,590c0,-6.2,5,-11.2,11.2,-11.2c6.2,0,11.2,5,11.2,11.2m1.7,-.1c0,-7.1,-5.8,-12.9,-13,-12.9c-7.1,0,-12.9,5.8,-12.9,12.9c0,7.2,5.8,13,12.9,13c7.2,0,13,-5.8,13,-13Z" class="g44_318"/>
<path d="M96.7,590v0c0,5.3,-4.3,9.5,-9.5,9.5c-5.3,0,-9.5,-4.2,-9.5,-9.5c0,-5.2,4.2,-9.5,9.5,-9.5c5.2,0,9.5,4.3,9.5,9.5m1.7,-.1c0,-6.2,-5.1,-11.2,-11.3,-11.2c-6.2,0,-11.2,5,-11.2,11.2c0,6.2,5,11.3,11.2,11.3c6.2,0,11.3,-5.1,11.3,-11.3Z" class="g45_318"/>
<path d="M95,590v0c0,4.3,-3.5,7.8,-7.8,7.8c-4.3,0,-7.8,-3.5,-7.8,-7.8c0,-4.3,3.5,-7.7,7.8,-7.7c4.3,0,7.8,3.4,7.8,7.7m1.6,.1c0,-5.2,-4.2,-9.5,-9.5,-9.5c-5.2,0,-9.5,4.3,-9.5,9.5c0,5.3,4.3,9.5,9.5,9.5c5.3,0,9.5,-4.2,9.5,-9.5Z" class="g46_318"/>
<path d="M93.2,590v0c0,3.4,-2.7,6.1,-6,6.1c-3.4,0,-6.1,-2.7,-6.1,-6.1c0,-3.3,2.7,-6,6.1,-6c3.3,0,6,2.7,6,6m1.7,.1c0,-4.3,-3.5,-7.8,-7.8,-7.8c-4.3,0,-7.7,3.5,-7.7,7.8c0,4.3,3.4,7.8,7.7,7.8c4.3,0,7.8,-3.5,7.8,-7.8Z" class="g47_318"/>
<path d="M91.5,590v0c0,2.4,-1.9,4.4,-4.3,4.4c-2.4,0,-4.3,-2,-4.3,-4.4c0,-2.4,1.9,-4.3,4.3,-4.3c2.4,0,4.3,1.9,4.3,4.3m1.9,-.1c0,-3.3,-2.7,-6,-6.1,-6c-3.3,0,-6,2.7,-6,6c0,3.4,2.7,6.1,6,6.1c3.4,0,6.1,-2.7,6.1,-6.1Z" class="g48_318"/>
<path d="M89.8,590v0c0,1.5,-1.2,2.6,-2.6,2.6c-1.4,0,-2.6,-1.1,-2.6,-2.6c0,-1.4,1.2,-2.6,2.6,-2.6c1.4,0,2.6,1.2,2.6,2.6m1.7,.1c0,-2.4,-2,-4.3,-4.4,-4.3c-2.3,0,-4.3,1.9,-4.3,4.3c0,2.4,2,4.3,4.3,4.3c2.4,0,4.4,-1.9,4.4,-4.3Z" class="g49_318"/>
<path d="M88.1,590v0c0,.5,-.4,.9,-.9,.9c-.5,0,-.9,-.4,-.9,-.9c0,-.4,.4,-.8,.9,-.8c.5,0,.9,.4,.9,.8m1.6,.1c0,-1.4,-1.1,-2.6,-2.6,-2.6c-1.4,0,-2.6,1.2,-2.6,2.6c0,1.5,1.2,2.6,2.6,2.6c1.5,0,2.6,-1.1,2.6,-2.6Z" class="g4a_318"/>
<path d="M88,589.9c0,-.4,-.4,-.8,-.9,-.8c-.4,0,-.8,.4,-.8,.8c0,.5,.4,.9,.8,.9c.5,0,.9,-.4,.9,-.9Z" class="g4b_318"/>
</g>
<g clip-path="url(#cl_318)">
<path d="M93.9,587.7v0c0,6.3,-5.2,11.5,-11.6,11.5c-6.4,0,-11.5,-5.2,-11.5,-11.5c0,-6.4,5.1,-11.6,11.5,-11.6c6.4,0,11.6,5.2,11.6,11.6m1.8,0c0,-7.3,-6,-13.3,-13.3,-13.3c-7.4,0,-13.4,6,-13.4,13.3c0,7.4,6,13.4,13.4,13.4c7.3,0,13.3,-6,13.3,-13.4Z" class="g40_318"/>
<path d="M92.1,587.7v0c0,5.4,-4.4,9.7,-9.8,9.7c-5.4,0,-9.7,-4.3,-9.7,-9.7c0,-5.4,4.3,-9.8,9.7,-9.8c5.4,0,9.8,4.4,9.8,9.8m1.7,0c0,-6.3,-5.2,-11.5,-11.6,-11.5c-6.4,0,-11.6,5.2,-11.6,11.5c0,6.4,5.2,11.6,11.6,11.6c6.4,0,11.6,-5.2,11.6,-11.6Z" class="g4c_318"/>
<path d="M90.3,587.7v0c0,4.4,-3.6,8,-8,8c-4.4,0,-8,-3.6,-8,-8c0,-4.5,3.6,-8,8,-8c4.4,0,8,3.5,8,8m1.9,0c0,-5.4,-4.4,-9.7,-9.8,-9.7c-5.4,0,-9.8,4.3,-9.8,9.7c0,5.4,4.4,9.8,9.8,9.8c5.4,0,9.8,-4.4,9.8,-9.8Z" class="g4d_318"/>
<path d="M88.6,587.7v0c0,3.4,-2.8,6.2,-6.3,6.2c-3.4,0,-6.2,-2.8,-6.2,-6.2c0,-3.5,2.8,-6.3,6.2,-6.3c3.5,0,6.3,2.8,6.3,6.3m1.8,-.1c0,-4.5,-3.6,-8,-8,-8c-4.4,0,-8,3.5,-8,8c0,4.4,3.6,8,8,8c4.4,0,8,-3.6,8,-8Z" class="g4e_318"/>
<path d="M86.8,587.7v0c0,2.4,-2,4.4,-4.5,4.4c-2.4,0,-4.4,-2,-4.4,-4.4c0,-2.5,2,-4.5,4.4,-4.5c2.5,0,4.5,2,4.5,4.5m1.8,-.1c0,-3.5,-2.8,-6.3,-6.2,-6.3c-3.5,0,-6.2,2.8,-6.2,6.3c0,3.4,2.7,6.2,6.2,6.2c3.4,0,6.2,-2.8,6.2,-6.2Z" class="g4f_318"/>
<path d="M85,587.7v0c0,1.4,-1.2,2.6,-2.7,2.6c-1.4,0,-2.6,-1.2,-2.6,-2.6c0,-1.5,1.2,-2.7,2.6,-2.7c1.5,0,2.7,1.2,2.7,2.7m1.8,-.1c0,-2.5,-2,-4.5,-4.4,-4.5c-2.5,0,-4.5,2,-4.5,4.5c0,2.4,2,4.4,4.5,4.4c2.4,0,4.4,-2,4.4,-4.4Z" class="g4g_318"/>
<path d="M83.2,587.7v0c0,.4,-.4,.8,-.9,.8c-.5,0,-.9,-.4,-.9,-.8c0,-.5,.4,-.9,.9,-.9c.5,0,.9,.4,.9,.9m1.8,0c0,-1.4,-1.2,-2.6,-2.6,-2.6c-1.5,0,-2.7,1.2,-2.7,2.6c0,1.5,1.2,2.7,2.7,2.7c1.4,0,2.6,-1.2,2.6,-2.7Z" class="g4h_318"/>
<path d="M83.1,587.7c0,-.5,-.4,-.9,-.9,-.9c-.5,0,-.9,.4,-.9,.9c0,.5,.4,.9,.9,.9c.5,0,.9,-.4,.9,-.9Z" class="g4b_318"/>
</g>
<path d="M194.4,262.8c0,0,-.3,-94.2,31.6,-117.7c16.5,-12.2,25.8,50.6,25.8,60.3" class="g4i_318"/>
<path d="M88.6,130l53.4,5.7" class="g1h_318"/>
<path d="M146.5,136.2l-6.2,1.7l1.7,-2.2l-1.2,-2.4Z" class="g1i_318"/>
<path d="M67.3,216.6l31.6,3.9M142,135.7l140,15.5" class="g1h_318"/>
<path d="M103.4,221l-6.2,1.6l1.7,-2.1L97.8,218Z" class="g1i_318"/>
<path d="M98.9,220.5l161.8,17.2" class="g1h_318"/>
<path d="M128.3,224.1l97.7,-79" class="g4j_318"/>
<path d="M198.9,259.2c.2,-13.7,2.4,-89.4,27.2,-109.7c14.1,-11.6,22.1,48.1,22.1,57.3" class="g4k_318"/>
<path d="M196.7,261.1c.1,-11,1.7,-92.7,29.3,-114.3c15.4,-11.9,24.1,49.7,24.1,59.2" class="g4l_318"/>
<path d="M128.3,224.1L251.8,205.4M128.3,224.1l68.4,37" class="g1j_318"/>
<path d="M156.3,205.4c4.2,4.9,6.7,11.3,6.7,18.2" class="g1p_318"/>
<path d="M154.2,202.9l4.1,2.3l-2,.2l-.6,1.9Z" class="g1q_318"/>
<path d="M163,226.9l-1.7,-4.3l1.7,1l1.6,-1Z" class="g1q_318"/>
<path d="M126.6,224.1c0,-1,.8,-1.7,1.7,-1.7c1,0,1.8,.7,1.8,1.7c0,.9,-.8,1.7,-1.8,1.7c-.9,0,-1.7,-.8,-1.7,-1.7Z" class="g1q_318"/>
<path d="M126.6,224.1c0,-1,.8,-1.7,1.7,-1.7c1,0,1.8,.7,1.8,1.7c0,.9,-.8,1.7,-1.8,1.7c-.9,0,-1.7,-.8,-1.7,-1.7Z" class="g4m_318"/>
<path d="M238.2,149.8c0,7.7,-6.3,14,-14,14c-4.2,0,-7.9,-1.8,-10.5,-4.7" class="g1p_318"/>
<path d="M238.2,146.5l1.7,4.3l-1.7,-1l-1.7,1Z" class="g1q_318"/>
<path d="M211.5,156.7l4.2,2.1l-2,.3l-.5,1.9Z" class="g1q_318"/>
<path d="M102.8,249.1l19.4,-19.4" class="g1p_318"/>
<path d="M124.5,227.3l-1.9,4.3l-.4,-1.9l-1.9,-.5Z" class="g1q_318"/>
<g clip-path="url(#cm_318)">
<path d="M224.5,148.3l1.6,-2.2l-.5,-.4l-1.6,2.2Z" class="g4n_318"/>
<path d="M225,148.7l1.6,-2.2l-.5,-.4l-1.6,2.2Z" class="g4o_318"/>
<path d="M225.5,149l1.6,-2.2l-.5,-.3l-1.6,2.2Z" class="g4p_318"/>
<path d="M226,149.4l1.6,-2.2l-.5,-.3l-1.6,2.2Z" class="g4q_318"/>
<path d="M226.6,149.8l1.6,-2.2l-.5,-.4l-1.6,2.2Z" class="g1k_318"/>
</g>
<g clip-path="url(#cn_318)">
<path d="M227.6,149.8l1.3,-1.8l-.6,-.4l-1.3,1.8Z" class="g4n_318"/>
<path d="M228,150.1l1.3,-1.8l-.5,-.4l-1.3,1.8Z" class="g4o_318"/>
<path d="M228.4,150.4l1.4,-1.8l-.6,-.4l-1.3,1.8Z" class="g4p_318"/>
<path d="M228.9,150.7l1.3,-1.8l-.6,-.4l-1.3,1.8Z" class="g4q_318"/>
<path d="M229.3,151.1l1.3,-1.9l-.6,-.4l-1.3,1.8Z" class="g1k_318"/>
</g>
<g clip-path="url(#co_318)">
<path d="M228.1,154.1l1.4,-1.9l-.3,-.3l-1.5,2Z" class="g4n_318"/>
<path d="M228.5,154.4l1.4,-1.9l-.3,-.3l-1.5,2Z" class="g4o_318"/>
<path d="M228.9,154.7l1.4,-2l-.3,-.2l-1.5,2Z" class="g4p_318"/>
<path d="M229.3,155l1.4,-2l-.3,-.2l-1.5,2Z" class="g4q_318"/>
<path d="M229.7,155.3l1.4,-2l-.3,-.2l-1.5,2Z" class="g1k_318"/>
</g>
<g clip-path="url(#cp_318)">
<path d="M225.7,152l1.3,-1.7l-.6,-.5l-1.3,1.8Z" class="g4n_318"/>
<path d="M226.1,152.3l1.3,-1.7l-.5,-.5l-1.3,1.8Z" class="g4o_318"/>
<path d="M226.6,152.7l1.3,-1.8l-.6,-.4l-1.3,1.7Z" class="g4p_318"/>
<path d="M227,153l1.3,-1.8l-.6,-.4l-1.3,1.8Z" class="g4q_318"/>
<path d="M227.4,153.3l1.3,-1.8l-.6,-.4l-1.3,1.8Z" class="g1k_318"/>
</g>
<g clip-path="url(#cq_318)">
<path d="M221.8,147.8l1.3,-1.8l-.5,-.4l-1.3,1.8Z" class="g4n_318"/>
<path d="M222.2,148.1l1.3,-1.8l-.5,-.4l-1.3,1.8Z" class="g4o_318"/>
<path d="M222.7,148.4l1.3,-1.8l-.6,-.4l-1.3,1.8Z" class="g4p_318"/>
<path d="M223.1,148.7l1.3,-1.7l-.6,-.5l-1.3,1.8Z" class="g4q_318"/>
<path d="M223.5,149l1.3,-1.7l-.6,-.5l-1.3,1.8Z" class="g1k_318"/>
</g>
<g clip-path="url(#cr_318)">
<path d="M223.8,153.9l1.3,-1.8l-.5,-.4l-1.3,1.8Z" class="g4n_318"/>
<path d="M224.2,154.2l1.3,-1.8L225,152l-1.3,1.8Z" class="g4o_318"/>
<path d="M224.7,154.5l1.3,-1.8l-.6,-.4l-1.3,1.8Z" class="g4p_318"/>
<path d="M225.1,154.8l1.3,-1.8l-.6,-.4l-1.3,1.8Z" class="g4q_318"/>
<path d="M225.5,155.1l1.3,-1.8l-.6,-.4l-1.2,1.8Z" class="g1k_318"/>
</g>
<g clip-path="url(#cs_318)">
<path d="M230.7,151.9l1.6,-2.2l-.5,-.3l-1.6,2.2Z" class="g4n_318"/>
<path d="M231.2,152.3l1.6,-2.2l-.5,-.4l-1.5,2.2Z" class="g4o_318"/>
<path d="M231.8,152.7l1.6,-2.2l-.5,-.4l-1.6,2.2Z" class="g4p_318"/>
<path d="M232.3,153.1l1.6,-2.2l-.5,-.4l-1.6,2.2Z" class="g4q_318"/>
<path d="M232.8,153.4l1.6,-2.2l-.5,-.3l-1.6,2.2Z" class="g1k_318"/>
</g>
<g clip-path="url(#ct_318)">
<path d="M228.8,146.8l1.3,-1.8l-.6,-.4l-1.3,1.8Z" class="g4n_318"/>
<path d="M229.2,147.1l1.3,-1.8l-.5,-.4l-1.4,1.8Z" class="g4o_318"/>
<path d="M229.7,147.4l1.3,-1.8l-.6,-.4l-1.3,1.8Z" class="g4p_318"/>
<path d="M230.1,147.7l1.3,-1.8l-.6,-.4l-1.3,1.8Z" class="g4q_318"/>
<path d="M230.5,148l1.3,-1.8l-.6,-.4l-1.3,1.8Z" class="g1k_318"/>
</g>
<g clip-path="url(#cu_318)">
<path d="M217.2,151.9l1.3,-1.8l-.6,-.4l-1.3,1.8Z" class="g4n_318"/>
<path d="M217.6,152.2l1.3,-1.8l-.5,-.4l-1.3,1.8Z" class="g4o_318"/>
<path d="M218.1,152.5l1.3,-1.8l-.6,-.4l-1.3,1.8Z" class="g4p_318"/>
<path d="M218.5,152.9l1.3,-1.8l-.6,-.4l-1.3,1.7Z" class="g4q_318"/>
<path d="M218.9,153.2l1.3,-1.8l-.6,-.4l-1.3,1.7Z" class="g1k_318"/>
</g>
<g clip-path="url(#cv_318)">
<path d="M220.3,154l1.6,-2.2l-.5,-.3l-1.6,2.2Z" class="g4n_318"/>
<path d="M220.8,154.4l1.6,-2.2l-.5,-.4l-1.6,2.2Z" class="g4o_318"/>
<path d="M221.3,154.8l1.6,-2.2l-.5,-.4l-1.6,2.2Z" class="g4p_318"/>
<path d="M221.9,155.2l1.6,-2.2l-.5,-.4l-1.6,2.2Z" class="g4q_318"/>
<path d="M222.4,155.5l1.6,-2.2l-.5,-.3l-1.6,2.2Z" class="g1k_318"/>
</g>
<g clip-path="url(#cw_318)">
<path d="M218.4,148.9l1.3,-1.8l-.6,-.4l-1.3,1.8Z" class="g4n_318"/>
<path d="M218.8,149.2l1.3,-1.8l-.6,-.4l-1.3,1.8Z" class="g4o_318"/>
<path d="M219.2,149.5l1.3,-1.8l-.5,-.4l-1.3,1.8Z" class="g4p_318"/>
<path d="M219.7,149.8L221,148l-.6,-.4l-1.3,1.8Z" class="g4q_318"/>
<path d="M220.1,150.1l1.3,-1.8l-.6,-.4l-1.3,1.8Z" class="g1k_318"/>
</g>
<g clip-path="url(#cx_318)">
<path d="M222.3,137.8l1.6,-2.2l-.5,-.4l-1.6,2.2Z" class="g4n_318"/>
<path d="M222.8,138.2l1.6,-2.2l-.5,-.4l-1.6,2.2Z" class="g4o_318"/>
<path d="M223.3,138.6l1.6,-2.3l-.5,-.3l-1.6,2.2Z" class="g4p_318"/>
<path d="M223.9,138.9l1.6,-2.2l-.5,-.3l-1.7,2.2Z" class="g4q_318"/>
<path d="M224.4,139.3l1.6,-2.2l-.5,-.4l-1.6,2.2Z" class="g1k_318"/>
</g>
<g clip-path="url(#cy_318)">
<path d="M225.4,139.3l1.3,-1.8l-.5,-.4l-1.3,1.8Z" class="g4n_318"/>
<path d="M225.8,139.6l1.4,-1.8l-.6,-.4l-1.3,1.8Z" class="g4o_318"/>
<path d="M226.3,139.9l1.3,-1.8l-.6,-.4l-1.3,1.8Z" class="g4p_318"/>
<path d="M226.7,140.2l1.3,-1.8l-.6,-.4l-1.3,1.8Z" class="g4q_318"/>
<path d="M227.1,140.5l1.3,-1.7l-.5,-.5l-1.3,1.8Z" class="g1k_318"/>
</g>
<g clip-path="url(#cz_318)">
<path d="M225.9,143.6l1.4,-1.9l-.3,-.3l-1.5,2Z" class="g4n_318"/>
<path d="M226.3,143.9l1.4,-1.9l-.3,-.3l-1.5,2Z" class="g4o_318"/>
<path d="M226.7,144.2l1.4,-1.9l-.3,-.3l-1.5,2Z" class="g4p_318"/>
<path d="M227.1,144.5l1.4,-2l-.4,-.2l-1.4,2Z" class="g4q_318"/>
<path d="M227.4,144.8l1.5,-2l-.4,-.2l-1.4,1.9Z" class="g1k_318"/>
</g>
<g clip-path="url(#c10_318)">
<path d="M223.5,141.5l1.3,-1.8l-.6,-.4l-1.3,1.8Z" class="g4n_318"/>
<path d="M223.9,141.8l1.3,-1.7l-.5,-.5l-1.3,1.8Z" class="g4o_318"/>
<path d="M224.4,142.1l1.3,-1.7l-.6,-.5l-1.3,1.8Z" class="g4p_318"/>
<path d="M224.8,142.5l1.3,-1.8l-.6,-.4l-1.3,1.8Z" class="g4q_318"/>
<path d="M225.2,142.8l1.3,-1.8l-.5,-.4l-1.3,1.8Z" class="g1k_318"/>
</g>
<g clip-path="url(#c11_318)">
<path d="M221.6,143.4l1.3,-1.8l-.5,-.4l-1.3,1.8Z" class="g4n_318"/>
<path d="M222.1,143.7l1.3,-1.8l-.6,-.4l-1.3,1.8Z" class="g4o_318"/>
<path d="M222.5,144l1.3,-1.8l-.6,-.4l-1.3,1.8Z" class="g4p_318"/>
<path d="M222.9,144.3l1.3,-1.8l-.6,-.4l-1.3,1.8Z" class="g4q_318"/>
<path d="M223.3,144.6l1.3,-1.8l-.5,-.4l-1.3,1.8Z" class="g1k_318"/>
</g>
<g clip-path="url(#c12_318)">
<path d="M228.5,141.4l1.6,-2.2l-.5,-.3l-1.6,2.2Z" class="g4n_318"/>
<path d="M229,141.8l1.6,-2.2l-.5,-.4l-1.6,2.2Z" class="g4o_318"/>
<path d="M229.6,142.2l1.6,-2.2l-.5,-.4l-1.6,2.2Z" class="g4p_318"/>
<path d="M230.1,142.6l1.6,-2.2l-.5,-.4l-1.6,2.2Z" class="g4q_318"/>
<path d="M230.6,142.9l1.6,-2.2l-.5,-.3l-1.6,2.2Z" class="g1k_318"/>
</g>
<g clip-path="url(#c13_318)">
<path d="M226.6,136.3l1.3,-1.8l-.6,-.4l-1.2,1.7Z" class="g4n_318"/>
<path d="M227,136.6l1.3,-1.8l-.5,-.4l-1.3,1.8Z" class="g4o_318"/>
<path d="M227.5,136.9l1.3,-1.8l-.6,-.4l-1.3,1.8Z" class="g4p_318"/>
<path d="M227.9,137.2l1.3,-1.8l-.6,-.4l-1.3,1.8Z" class="g4q_318"/>
<path d="M228.3,137.5l1.3,-1.8l-.6,-.4l-1.3,1.8Z" class="g1k_318"/>
</g>
<g clip-path="url(#c14_318)">
<path d="M233.6,139.4l1.3,-1.8l-.5,-.4l-1.3,1.8Z" class="g4n_318"/>
<path d="M234.1,139.7l1.3,-1.8l-.6,-.4l-1.3,1.8Z" class="g4o_318"/>
<path d="M234.5,140.1l1.3,-1.8l-.6,-.4l-1.3,1.7Z" class="g4p_318"/>
<path d="M234.9,140.4l1.3,-1.8l-.6,-.4l-1.3,1.7Z" class="g4q_318"/>
<path d="M235.3,140.7l1.3,-1.8l-.5,-.4l-1.3,1.7Z" class="g1k_318"/>
</g>
<g clip-path="url(#c15_318)">
<path d="M229.7,135.2l1.3,-1.8l-.5,-.4l-1.3,1.8Z" class="g4n_318"/>
<path d="M230.2,135.5l1.3,-1.8l-.6,-.4l-1.3,1.8Z" class="g4o_318"/>
<path d="M230.6,135.8l1.3,-1.8l-.6,-.4l-1.3,1.8Z" class="g4p_318"/>
<path d="M231,136.1l1.3,-1.7l-.6,-.5l-1.3,1.8Z" class="g4q_318"/>
<path d="M231.4,136.4l1.3,-1.7l-.5,-.5l-1.3,1.8Z" class="g1k_318"/>
</g>
<g clip-path="url(#c16_318)">
<path d="M231.7,141.3l1.3,-1.8l-.5,-.4l-1.3,1.8Z" class="g4n_318"/>
<path d="M232.2,141.6l1.3,-1.8l-.6,-.4l-1.3,1.8Z" class="g4o_318"/>
<path d="M232.6,141.9l1.3,-1.8l-.6,-.4l-1.3,1.8Z" class="g4p_318"/>
<path d="M233,142.2l1.3,-1.8l-.5,-.4l-1.3,1.8Z" class="g4q_318"/>
<path d="M233.4,142.5l1.3,-1.8l-.5,-.4l-1.3,1.8Z" class="g1k_318"/>
</g>
<g clip-path="url(#c17_318)">
<path d="M218.2,143.7l1.6,-2.2l-.5,-.3l-1.6,2.2Z" class="g4n_318"/>
<path d="M218.7,144.1l1.6,-2.2l-.5,-.4l-1.6,2.2Z" class="g4o_318"/>
<path d="M219.3,144.5l1.5,-2.2l-.4,-.4l-1.7,2.2Z" class="g4p_318"/>
<path d="M219.8,144.8l1.6,-2.2l-.5,-.3l-1.6,2.2Z" class="g4q_318"/>
<path d="M220.3,145.2l1.6,-2.2l-.5,-.4l-1.6,2.3Z" class="g1k_318"/>
</g>
</svg>