<?xml version="1.0" encoding="UTF-8" standalone="no"?>
<!DOCTYPE svg PUBLIC "-//W3C//DTD SVG 1.1//EN"
"http://www.w3.org/Graphics/SVG/1.1/DTD/svg11.dtd">
<svg viewBox="0 0 931 1096" version="1.1" xmlns="http://www.w3.org/2000/svg" xmlns:xlink="http://www.w3.org/1999/xlink">
<defs>
<clipPath id="c0_277"><path d="M494.2,311.4V278.2H726.5v33.2Z"/></clipPath>
<clipPath id="c1_277"><path d="M585.1,626.1v-74h89.8v74Z"/></clipPath>
<clipPath id="c2_277"><path d="M476.8,850.5V774.4H743.9v76.1Z"/></clipPath>
<style type="text/css"><![CDATA[
.g0_277{
fill: none;
stroke: #241F1F;
stroke-width: 0.763;
stroke-miterlimit: 10;
}
.g1_277{
fill: none;
stroke: #00AEEF;
stroke-width: 1.145;
}
.g2_277{
fill: none;
stroke: #0079C2;
stroke-width: 0.763;
}
.g3_277{
fill: #CFEDFC;
}
.g4_277{
fill: none;
stroke: #00AEEF;
stroke-width: 0.763;
stroke-linejoin: round;
}
.g5_277{
fill: #D4EAD6;
}
.g6_277{
fill: #A1D5AF;
}
.g7_277{
fill: none;
stroke: #6AC48C;
stroke-width: 0.763;
stroke-linejoin: round;
}
.g8_277{
fill: none;
stroke: #00C3F4;
stroke-width: 0.763;
stroke-miterlimit: 3;
stroke-dasharray: 10,4;
}
.g9_277{
fill: none;
stroke: #EE008C;
stroke-width: 1.069;
stroke-linejoin: round;
}
.ga_277{
fill: #EE008C;
}
.gb_277{
fill: none;
stroke: #241F1F;
stroke-width: 0.763;
}
]]></style>
</defs>
<path d="M671.7,139.7h19m29.9,0h18.9" class="g0_277"/>
<path clip-path="url(#c0_277)" d="M561.3,295.5H726.9" class="g0_277"/>
<path d="M362.7,474.5c0,0,-1.6,0,-1.6,1.5v14.1c0,0,0,1.6,1.6,1.6h14.1c0,0,1.5,0,1.5,-1.6V476c0,0,0,-1.5,-1.5,-1.5H362.7Z" class="g1_277"/>
<path d="M495.3,588.9h19.9m15.2,0h19.9m-54.6,42.7h19m16.2,0h18.9m67.5,-64.1h19.8" class="g0_277"/>
<path clip-path="url(#c1_277)" d="M655.5,567.5h19.8" class="g0_277"/>
<path d="M618.5,610.3h19m18.4,0h19m51.4,-42.8h19.9m18.3,0h18.9m-56.3,42.8h19.8m17.6,0h18.9" class="g0_277"/>
<path d="M361.1,735c0,0,-1.5,0,-1.5,1.5v14.1c0,0,0,1.6,1.5,1.6h14.2c0,0,1.5,0,1.5,-1.6V736.5c0,0,0,-1.5,-1.5,-1.5H361.1Z" class="g1_277"/>
<path clip-path="url(#c2_277)" d="M477.2,811.2h44.1m29,-21.4h19.8m18.4,0h18.9m-57.1,42.7h19.8m18.4,0h18.9m29.8,-21.3H657m3.8,0h19m21.9,0h18.9m3.8,0h19.9" class="g0_277"/>
<path d="M345.7,722.5c0,0,-3.1,0,-3.1,3.1v138c0,0,0,3,3.1,3H875.1c0,0,3,0,3,-3v-138c0,0,0,-3.1,-3,-3.1H345.7Z" class="g2_277"/>
<path d="M362.7,953.9c0,0,-1.6,0,-1.6,1.5v14.2c0,0,0,1.5,1.6,1.5h14.1c0,0,1.5,0,1.5,-1.5V955.4c0,0,0,-1.5,-1.5,-1.5H362.7Z" class="g1_277"/>
<path d="M587.5,962.9h44.3" class="g0_277"/>
<path d="M154.3,425.1c12.7,2.6,75.5,30.5,99.6,56C268.1,461.8,289,442.9,313,431.6c-5.5,-5.4,-11.7,-10.8,-18.5,-16.1Z" class="g3_277"/>
<path d="M294.5,415.5c-23,-17.6,-53,-33.8,-87.9,-40.8c-30.9,11.2,-46.3,41.1,-52.3,50.4Z" class="g3_277"/>
<path d="M154.3,425.1c12.7,2.6,75.5,30.6,99.5,56C268,461.8,289,442.9,313,431.6c-5.5,-5.3,-15.6,-13.9,-22.5,-19.1" class="g4_277"/>
<path d="M154.3,243.3c12.7,2.6,75.5,30.5,99.6,55.9C268.1,279.9,289,261.1,313,249.7C289,226.5,251.9,202,206.6,192.9c-30.9,11.2,-46.3,41,-52.3,50.4Z" class="g3_277"/>
<path d="M154.3,243.3c12.7,2.6,75.5,30.5,99.6,55.9C268.1,279.9,289,261.1,313,249.7C289,226.5,251.9,202,206.6,192.9c-30.9,11.2,-46.3,41,-52.3,50.4Z" class="g4_277"/>
<path d="M154.6,426.2l37.1,-62.4l109.8,29.1l-37.3,62.6Z" class="g5_277"/>
<path d="M264.4,455.2l25.5,-43c-4.6,-3.2,-12.7,-8.7,-22.7,-14.5C245.1,384.7,222.8,376,206.7,373.2c-19.5,5.9,-34.3,26.5,-46.9,44.1l-5.9,8.6Z" class="g6_277"/>
<path d="M153.8,426.1l37.9,-62.3l109.8,29.1l-37.3,62.6L154.6,426.2l-.8,-.1Z" class="g7_277"/>
<path d="M155,423.8c12.1,-18.2,29.4,-43.4,52.4,-50.3c16,2.7,38.2,11.5,60.3,24.4c7.2,4.2,14.9,9.3,21.7,13.9" class="g8_277"/>
<path d="M153.9,426.2l105.4,27.9" class="g9_277"/>
<path d="M264.1,455.4l-6.9,.7l2.1,-2l-.9,-2.8Z" class="ga_277"/>
<path d="M153.9,426.2l35.4,-58.3" class="g9_277"/>
<path d="M191.8,363.7l-1.2,6.8l-1.3,-2.6h-2.9Z" class="ga_277"/>
<path d="M154.5,242.9l95,53.8" class="g9_277"/>
<path d="M253.8,299.2L247,298.1l2.5,-1.4l-.1,-2.9Z" class="ga_277"/>
<path d="M154.5,242.9l48.1,-47" class="g9_277"/>
<path d="M206.1,192.5l-2.9,6.3l-.6,-2.9l-2.9,-.7Z" class="ga_277"/>
<path d="M609.2,551.9v75.7M681,551.9v75.7m39.7,-75.7v75.7m68.8,-75.7v75.7M485.8,549.2V649.3M582.9,549.2V649.3" class="gb_277"/>
</svg>