<?xml version="1.0" encoding="UTF-8" standalone="no"?>
<!DOCTYPE svg PUBLIC "-//W3C//DTD SVG 1.1//EN"
"http://www.w3.org/Graphics/SVG/1.1/DTD/svg11.dtd">
<svg viewBox="0 0 931 1096" version="1.1" xmlns="http://www.w3.org/2000/svg" xmlns:xlink="http://www.w3.org/1999/xlink">
<defs>
<clipPath id="c0_299"><path d="M738.7,326.3v-16H828v16Z"/></clipPath>
<clipPath id="c1_299"><path d="M549.6,405.7V389.8h90.5v15.9Z"/></clipPath>
<clipPath id="c2_299"><path d="M588.2,574V541.1h66.7V574Z"/></clipPath>
<clipPath id="c3_299"><path d="M738.7,653.5V624.7h64.2v28.8Z"/></clipPath>
<clipPath id="c4_299"><path d="M537,676.1V660.2H637.8v15.9Z"/></clipPath>
<clipPath id="c5_299"><path d="M572.5,882.4V866.5h96.3v15.9Z"/></clipPath>
<clipPath id="c6_299"><path d="M559.9,916V900.1h78.7V916Z"/></clipPath>
<clipPath id="c7_299"><path d="M335.4,304.4V271.7h92.5v32.7Z"/></clipPath>
<clipPath id="c8_299"><path d="M133.7,348V314.2h94.2V348Z"/></clipPath>
<clipPath id="c9_299"><path d="M335.4,344.7V317.3h84.5v27.4Z"/></clipPath>
<clipPath id="ca_299"><path d="M133.7,418.1V387.5h66.2v30.6Z"/></clipPath>
<clipPath id="cb_299"><path d="M133.7,475.2V459.3h88v15.9Z"/></clipPath>
<clipPath id="cc_299"><path d="M133.7,520.4V489.2h48.8v31.2Z"/></clipPath>
<clipPath id="cd_299"><path d="M133.7,592.9v-16h81.4v16Z"/></clipPath>
<clipPath id="ce_299"><path d="M335.4,735.2V716.5h74.2v18.7Z"/></clipPath>
<clipPath id="cf_299"><path d="M335.4,808.5V775.6h138v32.9Z"/></clipPath>
<clipPath id="cg_299"><path d="M335.4,896.9V881h75.7v15.9Z"/></clipPath>
<clipPath id="ch_299"><path d="M133.7,1002.5V967.6H256.1v34.9Z"/></clipPath>
<clipPath id="ci_299"><path d="M335.4,1000.1V969.6h77.7v30.5Z"/></clipPath>
<clipPath id="cj_299"><path d="M335.4,1042.9v-28.8h66.5v28.8Z"/></clipPath>
<style type="text/css"><![CDATA[
.g0_299{
fill: none;
stroke: #241F1F;
stroke-width: 0.687;
stroke-miterlimit: 10;
}
.g1_299{
fill: none;
stroke: #00AEEF;
stroke-width: 0.763;
stroke-miterlimit: 10;
}
.g2_299{
fill: none;
stroke: #241F1F;
stroke-width: 0.412;
stroke-miterlimit: 10;
}
.g3_299{
fill: none;
stroke: #241F1F;
stroke-width: 0.649;
stroke-miterlimit: 10;
}
.g4_299{
fill: none;
stroke: #241F1F;
stroke-width: 0.756;
stroke-miterlimit: 10;
}
.g5_299{
fill: none;
stroke: #241F1F;
stroke-width: 0.481;
stroke-miterlimit: 10;
}
]]></style>
</defs>
<path d="M657.7,163h67.8" class="g0_299"/>
<path d="M108.5,242h770M511.8,372H878.5M511.8,689.7H878.5M511.8,804.3H878.5" class="g1_299"/>
<path d="M784.3,276.2h45.4" class="g0_299"/>
<path clip-path="url(#c0_299)" d="M819.3,310.7h9" class="g0_299"/>
<path d="M599.2,341.6h21.1" class="g2_299"/>
<path d="M819.9,342.8h37.6" class="g0_299"/>
<path clip-path="url(#c1_299)" d="M602.4,390.1h38.1" class="g0_299"/>
<path clip-path="url(#c2_299)" d="M610.7,557.3h44.6" class="g0_299"/>
<path clip-path="url(#c3_299)" d="M763.8,640.1h39.5" class="g3_299"/>
<path clip-path="url(#c4_299)" d="M573.7,660.5h64.5" class="g0_299"/>
<path clip-path="url(#c5_299)" d="M634.4,866.8h34.8" class="g0_299"/>
<path clip-path="url(#c6_299)" d="M604.1,900.4h34.8" class="g0_299"/>
<path d="M361.8,286.1h22.6M371.7,289H380" class="g0_299"/>
<path clip-path="url(#c7_299)" d="M401.8,286.9h26.4" class="g0_299"/>
<path d="M413.9,289.8h12.3" class="g0_299"/>
<path clip-path="url(#c8_299)" d="M160.2,330.4h68.1" class="g0_299"/>
<path d="M195.2,333.3h8.2" class="g0_299"/>
<path clip-path="url(#c9_299)" d="M361.8,330.4h58.5" class="g0_299"/>
<path clip-path="url(#ca_299)" d="M160.2,403.8h40.1" class="g0_299"/>
<path clip-path="url(#cb_299)" d="M170.3,459.6h8.3m35.2,0h8.3" class="g0_299"/>
<path clip-path="url(#cc_299)" d="M160.2,506.1h22.7" class="g0_299"/>
<path d="M371.3,545.9H441" class="g0_299"/>
<path clip-path="url(#cd_299)" d="M170.3,577.3h45.1" class="g0_299"/>
<path d="M186.4,625.3h40.1M421.6,688h8.2m-44.1,-2.2h44.1" class="g0_299"/>
<g clip-path="url(#ce_299)">
<path d="M401.7,719.4h8.2" class="g0_299"/>
<path d="M372.2,716.9H410" class="g4_299"/>
</g>
<path d="M219.4,791.7h4.8" class="g5_299"/>
<path clip-path="url(#cf_299)" d="M361.8,791.8H473.7" class="g0_299"/>
<path clip-path="url(#cg_299)" d="M372,881.3h39.5" class="g0_299"/>
<path d="M211.1,911.9h40.4m194.7,0h8.2m-282,56h32.7" class="g0_299"/>
<path clip-path="url(#ch_299)" d="M160.2,985.9h96.3" class="g0_299"/>
<path clip-path="url(#ci_299)" d="M361.8,985.9h51.6" class="g0_299"/>
<path clip-path="url(#cj_299)" d="M361.8,1028.6h40.4" class="g0_299"/>
</svg>