<?xml version="1.0" encoding="UTF-8" standalone="no"?>
<!DOCTYPE svg PUBLIC "-//W3C//DTD SVG 1.1//EN"
"http://www.w3.org/Graphics/SVG/1.1/DTD/svg11.dtd">
<svg viewBox="0 0 811 1017" version="1.1" xmlns="http://www.w3.org/2000/svg" xmlns:xlink="http://www.w3.org/1999/xlink">
<defs>
<style type="text/css"><![CDATA[
.g0_529{
fill: #70A6CC;
}
.g1_529{
fill: #FFFFFF;
}
.g2_529{
fill: #C4E5B6;
}
.g3_529{
fill: #231F20;
}
.g4_529{
}
]]></style>
</defs>
<path d="M156.1,673.5H724.4V651.7H156.1Z" class="g0_529"/>
<path d="M137.8,512.6H724.3V84.8H137.8Z" class="g1_529"/>
<path d="M175.7,248.4H335.5V190.6H175.7Z" class="g2_529"/>
<path d="M175.7,190.6v.4H335.1v57h-159V190.6h-.4v.4v-.4h-.4v57.8l.2,.3l.2,.1H335.5l.2,-.1l.1,-.3V190.6l-.1,-.3l-.2,-.1H175.7l-.2,.1l-.2,.3h.4Z" class="g3_529"/>
<path d="M366,191.2v.4H527.1v57H366.4V191.2H366v.4v-.4h-.3V249l.1,.3l.2,.1H527.4l.3,-.1l.1,-.3V191.2l-.1,-.3l-.3,-.1H366l-.2,.1l-.1,.3h.3Z" class="g3_529"/>
<path d="M551.9,193v.4H723.1v57H552.2V193h-.3v.4V193h-.4v57.8l.1,.2l.3,.1H723.5l.2,-.1l.2,-.2V193l-.2,-.3l-.2,-.1H551.9l-.3,.1l-.1,.3h.4Z" class="g3_529"/>
<path d="M254.4,177.8c.7,-.3,1.4,-.6,2.1,-.9l-.3,-.7c-.7,.3,-1.4,.6,-2.1,.9l.3,.7Z" class="g3_529"/>
<path d="M257.9,176.3c1.4,-.6,2.8,-1.2,4.2,-1.8l-.3,-.7c-1.4,.6,-2.8,1.2,-4.2,1.8l.3,.7Zm5.6,-2.3c1.4,-.6,2.9,-1.1,4.3,-1.7l-.3,-.7c-1.4,.6,-2.8,1.1,-4.3,1.7l.3,.7Zm5.7,-2.2c1.4,-.5,2.8,-1,4.3,-1.5l-.3,-.7c-1.4,.5,-2.8,1,-4.3,1.5l.3,.7Zm5.7,-1.9c1.5,-.5,2.9,-1,4.3,-1.4l-.2,-.7c-1.4,.4,-2.9,.8,-4.3,1.3l.2,.8Zm5.8,-1.9c1.5,-.4,2.9,-.8,4.4,-1.2l-.2,-.7c-1.5,.4,-3,.8,-4.4,1.2l.2,.7Zm5.8,-1.6c1.5,-.4,3,-.7,4.4,-1.1l-.1,-.7c-1.5,.3,-3,.7,-4.5,1.1l.2,.7Zm5.9,-1.4c1.5,-.4,3,-.7,4.5,-1l-.2,-.7c-1.5,.3,-3,.6,-4.5,.9l.2,.8Zm5.9,-1.3c1.5,-.3,3,-.5,4.5,-.8l-.1,-.8c-1.5,.3,-3,.6,-4.5,.9l.1,.7Zm6,-1c1.5,-.3,3,-.5,4.5,-.7l-.1,-.8c-1.5,.2,-3,.5,-4.5,.7l.1,.8Zm6,-.9c1.5,-.2,3,-.4,4.5,-.5l-.1,-.8c-1.5,.2,-3,.3,-4.5,.5l.1,.8Zm6,-.7c1.5,-.1,3,-.2,4.5,-.3V160c-1.5,.1,-3,.2,-4.6,.4l.1,.7Zm6.1,-.4c1.5,-.1,3,-.2,4.5,-.3v-.7c-1.6,0,-3.1,.1,-4.6,.2l.1,.8Zm6,-.3c1.5,0,3,-.1,4.5,-.1v-.7c-1.5,0,-3,0,-4.5,0v.8Zm6.1,-.1c1.5,.1,3,.1,4.5,.1v-.7c-1.5,-.1,-3,-.1,-4.5,-.1v.7Zm6,.2c1.5,0,3,.1,4.5,.2l.1,-.7c-1.5,-.1,-3,-.2,-4.6,-.3v.8Zm6.1,.3c1.5,.1,3,.3,4.5,.4l.1,-.8c-1.6,-.1,-3.1,-.2,-4.6,-.3v.7Zm6,.6c1.5,.1,3,.3,4.5,.5l.1,-.8c-1.5,-.2,-3,-.3,-4.5,-.5l-.1,.8Zm6,.7c1.5,.2,3,.4,4.5,.6l.1,-.7c-1.5,-.3,-3,-.5,-4.5,-.7l-.1,.8Zm6,.9c1.5,.2,3,.5,4.4,.8l.2,-.8c-1.5,-.3,-3,-.5,-4.5,-.8l-.1,.8Zm5.9,1.1c1.5,.3,3,.6,4.5,.9l.1,-.8c-1.4,-.3,-2.9,-.6,-4.4,-.9l-.2,.8Zm6,1.2c1.4,.3,2.9,.7,4.4,1.1l.2,-.8c-1.5,-.4,-3,-.7,-4.5,-1l-.1,.7Zm5.8,1.4c1.5,.4,3,.8,4.4,1.2l.2,-.8c-1.4,-.4,-2.9,-.7,-4.4,-1.1l-.2,.7Zm5.9,1.6c1.4,.4,2.9,.8,4.3,1.3l.3,-.8c-1.5,-.4,-3,-.8,-4.4,-1.2l-.2,.7ZM394,170c1.4,.4,2.9,.9,4.3,1.4l.2,-.7c-1.4,-.5,-2.8,-1,-4.3,-1.4l-.2,.7Zm5.7,1.9c1.5,.4,2.9,.9,4.3,1.4l.3,-.7c-1.4,-.5,-2.9,-1,-4.3,-1.5l-.3,.8Zm5.8,1.9c1.4,.6,2.8,1.1,4.2,1.6l.3,-.7c-1.4,-.5,-2.9,-1.1,-4.3,-1.6l-.2,.7Zm5.6,2.2c1.4,.5,2.8,1.1,4.3,1.6l.2,-.7c-1.4,-.6,-2.8,-1.1,-4.2,-1.7l-.3,.8Z" class="g3_529"/>
<path d="M416.8,178.2c.7,.3,1.4,.6,2.1,.9l.3,-.7c-.7,-.3,-1.4,-.6,-2.1,-.9l-.3,.7Z" class="g3_529"/>
<path d="M416.8,180.2l8.5,1.2l-6.8,-5.3l-1.7,4.1Z" class="g3_529"/>
<path d="M443.9,260.7c.6,.4,1.2,.8,1.9,1.2l.4,-.6c-.6,-.4,-1.3,-.8,-1.9,-1.3l-.4,.7Z" class="g3_529"/>
<path d="M447,262.8c1.3,.8,2.6,1.6,3.9,2.4l.4,-.6c-1.3,-.8,-2.6,-1.6,-3.8,-2.5l-.5,.7Zm5.2,3.2c1.3,.8,2.6,1.6,3.9,2.4l.4,-.7c-1.3,-.7,-2.6,-1.5,-3.9,-2.3l-.4,.6Zm5.2,3.2c1.3,.7,2.6,1.5,3.9,2.2l.4,-.6c-1.3,-.8,-2.6,-1.5,-3.9,-2.3l-.4,.7Zm5.3,3c1.3,.7,2.7,1.4,4,2.1l.4,-.6c-1.4,-.7,-2.7,-1.5,-4.1,-2.2l-.3,.7ZM468,275c1.4,.7,2.8,1.4,4.1,2.1l.4,-.7c-1.4,-.7,-2.8,-1.3,-4.1,-2l-.4,.6Zm5.5,2.7c1.4,.7,2.8,1.3,4.1,1.9l.4,-.6c-1.4,-.7,-2.8,-1.3,-4.2,-1.9l-.3,.6Zm5.5,2.6c1.4,.6,2.8,1.2,4.3,1.7l.2,-.7c-1.4,-.6,-2.8,-1.1,-4.2,-1.7l-.3,.7Zm5.7,2.3c1.4,.5,2.8,1.1,4.2,1.6l.3,-.8c-1.4,-.5,-2.8,-1,-4.3,-1.5l-.2,.7Zm5.7,2.1c1.4,.5,2.9,.9,4.3,1.4l.2,-.8c-1.4,-.4,-2.8,-.9,-4.3,-1.4l-.2,.8Zm5.8,1.8c1.4,.4,2.9,.8,4.4,1.2l.2,-.7c-1.5,-.4,-3,-.8,-4.4,-1.2l-.2,.7Zm5.9,1.6c1.4,.3,2.9,.7,4.4,1l.2,-.8c-1.5,-.3,-3,-.6,-4.5,-1l-.1,.8Zm5.9,1.3c1.5,.3,3,.5,4.5,.8l.1,-.8c-1.5,-.2,-3,-.5,-4.5,-.8l-.1,.8Zm6,1c1.5,.2,3,.4,4.5,.5l.1,-.7c-1.5,-.2,-3,-.4,-4.5,-.6l-.1,.8Zm6,.7c1.5,.1,3.1,.2,4.6,.3v-.8c-1.5,-.1,-3,-.2,-4.5,-.3l-.1,.8Zm6.1,.4c1.4,0,2.8,0,4.2,0h.4v-.7h-.4c-1.4,0,-2.8,-.1,-4.2,-.1v.8Zm6.1,0c1.5,0,3,-.1,4.6,-.2l-.1,-.7c-1.5,.1,-3,.1,-4.5,.1v.8Zm6.1,-.2c1.5,-.1,3,-.3,4.5,-.4v-.8c-1.6,.2,-3.1,.3,-4.6,.4l.1,.8Zm6,-.6c1.5,-.2,3.1,-.4,4.6,-.6l-.1,-.8c-1.6,.2,-3.1,.4,-4.5,.6v.8Zm6.1,-.9c1.5,-.2,3,-.5,4.5,-.8l-.2,-.8c-1.5,.3,-3,.6,-4.5,.9l.2,.7Zm5.9,-1.1c1.5,-.4,3,-.7,4.5,-1.1l-.2,-.7c-1.5,.3,-3,.7,-4.4,1l.1,.8Zm6,-1.5c1.4,-.4,2.9,-.8,4.3,-1.2l-.2,-.8c-1.4,.5,-2.9,.9,-4.3,1.3l.2,.7Zm5.8,-1.7c1.4,-.4,2.9,-.9,4.3,-1.4l-.2,-.7c-1.5,.5,-2.9,.9,-4.3,1.4l.2,.7Zm5.8,-1.9c1.4,-.5,2.8,-1.1,4.2,-1.6l-.2,-.7c-1.5,.5,-2.9,1.1,-4.3,1.6l.3,.7Zm5.7,-2.2c1.4,-.5,2.8,-1.1,4.2,-1.7l-.3,-.7c-1.4,.6,-2.8,1.2,-4.2,1.7l.3,.7Zm5.6,-2.3c1.3,-.6,2.7,-1.3,4.1,-1.9l-.3,-.7c-1.4,.6,-2.8,1.3,-4.1,1.9l.3,.7Zm5.5,-2.6c1.3,-.7,2.7,-1.3,4.1,-2l-.4,-.7c-1.4,.7,-2.7,1.4,-4.1,2l.4,.7Zm5.4,-2.7c1.3,-.7,2.7,-1.4,4,-2.2l-.3,-.7c-1.4,.8,-2.7,1.5,-4,2.2l.3,.7Zm5.4,-2.9c1.3,-.8,2.6,-1.5,3.9,-2.3l-.4,-.7c-1.3,.8,-2.6,1.6,-3.9,2.3l.4,.7Zm5.2,-3.1c1.3,-.7,2.6,-1.5,3.9,-2.3l-.4,-.7c-1.3,.8,-2.6,1.6,-3.9,2.4l.4,.6Z" class="g3_529"/>
<path d="M611.9,264.6c.7,-.4,1.3,-.8,2,-1.2l-.4,-.7c-.7,.5,-1.3,.9,-2,1.3l.4,.6Z" class="g3_529"/>
<path d="M613.5,265.6l5.8,-6.3l-8.2,2.6l2.4,3.7Z" class="g3_529"/>
<path d="M176.6,371.6v.4H326.8v57.1H177V371.6h-.4v.4v-.4h-.4v57.8l.1,.3l.3,.1H327.2l.2,-.1l.2,-.3V371.6l-.2,-.3l-.2,-.1H176.6l-.3,.1l-.1,.3h.4Z" class="g3_529"/>
<path d="M364.3,429.4H525.7V371.6H364.3Z" class="g2_529"/>
<path d="M364.3,371.6v.4h161v57H364.6V371.6h-.3v.4v-.4h-.4v57.8l.1,.3l.3,.1H525.7l.2,-.1l.2,-.3V371.6l-.2,-.3l-.2,-.1H364.3l-.3,.1l-.1,.3h.4Z" class="g3_529"/>
<path d="M552.2,371.6v.4H723.5v57H552.6V371.6h-.4v.4v-.4h-.3v57.8l.1,.3l.2,.1H723.9l.2,-.1l.1,-.3V371.6l-.1,-.2l-.2,-.2H552.2l-.2,.2l-.1,.2h.3Z" class="g3_529"/>
<path d="M257.2,357.5c.7,-.3,1.4,-.6,2.1,-.9l-.3,-.7c-.7,.3,-1.4,.6,-2.1,.9l.3,.7Z" class="g3_529"/>
<path d="M260.7,356c1.4,-.6,2.8,-1.1,4.2,-1.7l-.3,-.7c-1.4,.6,-2.8,1.1,-4.2,1.7l.3,.7Zm5.6,-2.3c1.5,-.5,2.9,-1.1,4.3,-1.6l-.3,-.7c-1.4,.5,-2.8,1.1,-4.2,1.6l.2,.7Zm5.7,-2.1c1.5,-.5,2.9,-1.1,4.3,-1.5l-.2,-.8c-1.4,.5,-2.9,1,-4.3,1.6l.2,.7Zm5.8,-2c1.4,-.5,2.9,-1,4.3,-1.5l-.2,-.7c-1.4,.5,-2.9,.9,-4.4,1.4l.3,.8Zm5.8,-1.9c1.5,-.5,2.9,-.9,4.4,-1.3l-.2,-.8c-1.5,.4,-3,.9,-4.4,1.3l.2,.8Zm5.8,-1.8c1.5,-.4,3,-.8,4.4,-1.2l-.1,-.7c-1.5,.4,-3,.8,-4.5,1.2l.2,.7Zm5.9,-1.5c1.5,-.4,3,-.8,4.5,-1.1l-.2,-.8c-1.5,.4,-3,.7,-4.5,1.1l.2,.8Zm6,-1.4c1.4,-.4,2.9,-.7,4.4,-1l-.1,-.7c-1.5,.3,-3,.6,-4.5,.9l.2,.8Zm5.9,-1.3c1.5,-.3,3,-.5,4.5,-.8l-.1,-.7c-1.5,.2,-3,.5,-4.5,.8l.1,.7Zm6,-1c1.5,-.3,3.1,-.5,4.6,-.7l-.1,-.7c-1.6,.2,-3.1,.4,-4.6,.6l.1,.8Zm6.1,-.9c1.5,-.2,3,-.4,4.5,-.5l-.1,-.8c-1.5,.2,-3,.4,-4.5,.6l.1,.7Zm6,-.7c1.6,-.1,3.1,-.2,4.6,-.3l-.1,-.8c-1.5,.1,-3,.2,-4.5,.4v.7Zm6.1,-.4c1.5,-.1,3.1,-.2,4.6,-.2v-.8c-1.6,.1,-3.1,.1,-4.6,.2v.8Zm6.1,-.3c1.4,0,2.7,0,4.1,0c.2,0,.3,0,.5,0v-.8c-.2,0,-.3,0,-.5,0c-1.4,0,-2.7,0,-4.1,.1v.7Zm6.1,0c1.5,0,3.1,.1,4.6,.1v-.8c-1.5,0,-3.1,-.1,-4.6,-.1v.8Zm6.1,.2c1.5,.1,3,.1,4.6,.3v-.8c-1.5,-.1,-3,-.2,-4.6,-.3v.8Zm6.1,.4c1.5,.1,3,.3,4.5,.4l.1,-.7c-1.5,-.2,-3,-.4,-4.6,-.5v.8Zm6,.6c1.5,.2,3.1,.4,4.6,.6l.1,-.7c-1.5,-.3,-3.1,-.5,-4.6,-.7l-.1,.8Zm6.1,.8c1.5,.3,3,.5,4.5,.8l.1,-.7c-1.5,-.3,-3,-.6,-4.5,-.8l-.1,.7Zm6,1.1c1.5,.3,2.9,.6,4.4,.9l.2,-.7c-1.5,-.3,-3,-.7,-4.5,-1l-.1,.8Zm5.9,1.3c1.5,.3,3,.7,4.5,1.1l.2,-.8c-1.5,-.4,-3,-.7,-4.5,-1.1l-.2,.8Zm5.9,1.5c1.5,.4,3,.8,4.4,1.2l.2,-.7c-1.4,-.5,-2.9,-.9,-4.4,-1.3l-.2,.8Zm5.9,1.7c1.4,.4,2.9,.9,4.3,1.4l.3,-.8c-1.5,-.5,-2.9,-.9,-4.4,-1.4l-.2,.8Zm5.8,1.9c1.4,.4,2.8,1,4.3,1.5l.2,-.7c-1.4,-.6,-2.9,-1.1,-4.3,-1.6l-.2,.8Zm5.7,2c1.4,.6,2.8,1.1,4.2,1.7l.3,-.7c-1.4,-.6,-2.8,-1.1,-4.2,-1.7l-.3,.7Zm5.6,2.3c1.4,.6,2.8,1.2,4.2,1.8l.3,-.7c-1.4,-.6,-2.8,-1.2,-4.2,-1.8l-.3,.7Zm5.6,2.5c1.4,.6,2.8,1.2,4.1,1.9l.4,-.7c-1.4,-.6,-2.8,-1.3,-4.2,-1.9l-.3,.7Z" class="g3_529"/>
<path d="M419.8,357.3c.7,.3,1.4,.7,2.1,1l.3,-.7c-.7,-.3,-1.3,-.6,-2,-1l-.4,.7Z" class="g3_529"/>
<path d="M419.7,359.3l8.3,1.8l-6.3,-5.7l-2,3.9Z" class="g3_529"/>
<path d="M439.7,440.3c.7,.2,1.4,.5,2.1,.7l.3,-.7c-.7,-.2,-1.5,-.5,-2.2,-.7l-.2,.7Z" class="g3_529"/>
<path d="M443.3,441.6c1.4,.5,2.9,1,4.3,1.5l.3,-.7c-1.5,-.5,-2.9,-1,-4.4,-1.6l-.2,.8Zm5.8,2c1.4,.5,2.9,1,4.4,1.5l.2,-.7c-1.4,-.5,-2.9,-1,-4.4,-1.5l-.2,.7Zm5.8,2c1.5,.5,2.9,1,4.4,1.5l.3,-.7c-1.5,-.5,-3,-1,-4.4,-1.5l-.3,.7Zm5.9,2c1.4,.5,2.9,.9,4.4,1.4l.2,-.7c-1.5,-.5,-2.9,-1,-4.4,-1.4l-.2,.7Zm5.9,1.9c1.4,.4,2.9,.9,4.4,1.4l.2,-.8c-1.5,-.4,-2.9,-.9,-4.4,-1.4l-.2,.8Zm5.9,1.8c1.4,.4,2.9,.9,4.4,1.3l.2,-.7c-1.5,-.4,-2.9,-.9,-4.4,-1.3l-.2,.7Zm5.9,1.7c1.5,.5,3,.9,4.4,1.3l.2,-.8c-1.4,-.4,-2.9,-.8,-4.4,-1.2l-.2,.7Zm5.9,1.7c1.5,.4,3,.8,4.5,1.2l.2,-.8c-1.5,-.4,-3,-.8,-4.5,-1.2l-.2,.8Zm6,1.5c1.5,.4,3,.8,4.5,1.1l.2,-.7c-1.5,-.4,-3,-.7,-4.5,-1.1l-.2,.7Zm6,1.4c1.5,.4,3.1,.7,4.6,1l.1,-.7c-1.5,-.3,-3,-.7,-4.5,-1l-.2,.7Zm6.1,1.3c1.5,.3,3,.6,4.5,.9l.2,-.7c-1.5,-.3,-3.1,-.6,-4.6,-.9l-.1,.7Zm6.1,1.2c1.5,.2,3,.5,4.5,.7l.1,-.7c-1.5,-.3,-3,-.5,-4.5,-.8l-.1,.8Zm6.1,1c1.5,.2,3,.4,4.6,.6v-.8c-1.5,-.2,-3,-.4,-4.5,-.6l-.1,.8Zm6.1,.8c1.5,.1,3.1,.3,4.6,.4l.1,-.7c-1.6,-.2,-3.1,-.3,-4.6,-.5l-.1,.8Zm6.1,.6c1.6,.1,3.1,.2,4.7,.3V462c-1.5,-.1,-3.1,-.2,-4.6,-.3l-.1,.8Zm6.2,.4c1.6,0,3.1,.1,4.7,.1v-.8c-1.6,0,-3.1,0,-4.6,-.1l-.1,.8Zm6.2,.1c.3,0,.7,0,1,0c1.2,0,2.4,0,3.6,0v-.8c-1.2,.1,-2.4,.1,-3.6,.1c-.3,0,-.7,0,-1,0v.7Zm6.2,-.1c1.5,0,3.1,-.1,4.6,-.2v-.8c-1.6,.1,-3.1,.2,-4.6,.3v.7Zm6.2,-.3c1.5,-.1,3,-.3,4.6,-.5l-.1,-.7c-1.5,.2,-3.1,.3,-4.6,.4l.1,.8Zm6.1,-.7c1.5,-.1,3.1,-.4,4.6,-.6l-.1,-.8c-1.6,.3,-3.1,.5,-4.6,.7l.1,.7Zm6.1,-.9c1.5,-.3,3,-.6,4.6,-.9l-.2,-.7c-1.5,.3,-3,.6,-4.5,.9l.1,.7Zm6.1,-1.2c1.5,-.4,3,-.8,4.5,-1.2l-.2,-.7c-1.5,.4,-3,.8,-4.5,1.1l.2,.8Zm5.9,-1.6c1.5,-.4,3,-.9,4.5,-1.4l-.3,-.7c-1.4,.5,-2.9,1,-4.4,1.4l.2,.7Zm5.9,-1.9c1.5,-.5,2.9,-1,4.4,-1.6l-.3,-.7c-1.4,.6,-2.9,1.1,-4.3,1.6l.2,.7Zm5.8,-2.2c1.4,-.6,2.8,-1.2,4.3,-1.8l-.4,-.7c-1.4,.6,-2.8,1.2,-4.2,1.8l.3,.7Zm5.7,-2.5c1.3,-.7,2.7,-1.4,4.1,-2.1l-.4,-.7c-1.3,.8,-2.7,1.5,-4.1,2.1l.4,.7Zm5.5,-2.8c1.3,-.8,2.6,-1.5,4,-2.3l-.4,-.7c-1.3,.8,-2.7,1.6,-4,2.3l.4,.7Zm5.3,-3.1c1.3,-.8,2.6,-1.7,3.9,-2.6l-.4,-.6c-1.3,.9,-2.6,1.7,-3.9,2.5l.4,.7Z" class="g3_529"/>
<path d="M609.2,442.3c.6,-.4,1.3,-.9,1.9,-1.3l-.5,-.6c-.6,.4,-1.2,.8,-1.8,1.3l.4,.6Z" class="g3_529"/>
<path d="M611,443.3l5.3,-6.8l-8,3.3l2.7,3.5Z" class="g3_529"/>
<path d="M239.4,149.7c0,5,-2.3,8.6,-5.9,11.6c-5.4,4.5,-13.7,7.2,-21.1,10c-7.5,2.9,-14.1,5.7,-16,10.5l.4,.2c1.2,-3,4.5,-5.3,8.7,-7.3c6.4,-3.1,15,-5.5,22,-9c6.9,-3.6,12.4,-8.3,12.4,-16h-.5Z" class="g3_529"/>
<path d="M194.1,180.6l2,5.4l3.6,-4.4l-5.6,-1Z" class="g3_529"/>
<path d="M325.9,465.2c6.3,-6.3,18.3,-6.8,29.1,-8.6c5.5,-.9,10.7,-2.2,14.7,-4.7c4.1,-2.5,7,-6.3,7.9,-12.2l-.5,-.1c-.8,5.8,-3.7,9.5,-7.6,11.9c-6,3.7,-14.5,4.7,-22.8,5.9c-8.3,1.2,-16.3,2.6,-21.1,7.5l.3,.3Z" class="g3_529"/>
<path d="M380.1,440.7l-2.4,-5.2l-3.3,4.7l5.7,.5Z" class="g3_529"/>
<path d="M498.9,845.1v3.2l-.2,-.1l-6.4,-2.9l-.3,-.2l.3,-.2l6.4,-2.9l.2,-.1v.2l-.1,.2l-6.3,3l-.2,-.4h.2l6.3,2.9l-.1,.4l-.1,-.2v-2.9Z" class="g4_529"/>
<path d="M498.6,845.1h.3v-3h-.3Z" class="g4_529"/>
<path d="M498.9,845.3h18.7v-.4H498.9Z" class="g4_529"/>
<path d="M517.3,845.1h.3V821h-.3Z" class="g4_529"/>
</svg>