<?xml version="1.0" encoding="UTF-8" standalone="no"?>
<!DOCTYPE svg PUBLIC "-//W3C//DTD SVG 1.1//EN"
"http://www.w3.org/Graphics/SVG/1.1/DTD/svg11.dtd">
<svg viewBox="0 0 931 1096" version="1.1" xmlns="http://www.w3.org/2000/svg" xmlns:xlink="http://www.w3.org/1999/xlink">
<defs>
<clipPath id="c0_88"><path d="M161.3,658.7c-18.5,0,-45,-4.7,-62.8,-12.8c-2.7,-1.3,-3.2,-1.6,-4,-3V600.2c5.7,-1.2,10.7,-1.7,15.4,-1.7c13.5,0,23.3,4.3,32.6,8.6c9.3,4.3,18,8.6,29,8.6c1.9,0,3.9,-.2,6,-.4c13.7,-2.6,28.9,-17.3,28.9,-22.9v43.3c-2.5,4.1,-13.3,16,-29.1,21.2c-3.8,1.2,-9.4,1.8,-16,1.8Z"/></clipPath>
<clipPath id="c1_88"><path d="M170.6,615.8c-10.7,0,-18.8,-4,-27.5,-8c-8.6,-4,-17.7,-8,-30.4,-8c-3.7,0,-7.7,.4,-12.1,1.2c-1,.2,-1.9,.2,-2.7,.2c-11.9,0,9.4,-21.3,27.5,-25c3.5,-.7,6.8,-1,9.8,-1c10.4,0,18.2,3.8,27.1,7.6c9,3.9,19.1,7.7,34.2,7.7c1.9,0,3.8,-.1,5.9,-.2c.2,0,.4,0,.7,0c12.7,0,-11.5,23.7,-25.6,25c-2.4,.3,-4.7,.5,-6.9,.5Z"/></clipPath>
<clipPath id="c2_88"><path d="M162.2,658.8c-20.8,0,-52.1,-6.6,-65.5,-13.8c-8,-4.3,5.8,-5.4,16,-11.4c8,-4.7,7.9,-12.2,13.5,-12.2h.2c28.7,1.3,64.3,3.4,78,9.5c9.3,4.1,-14.1,22.9,-27.1,26c-3.6,1.3,-8.9,1.9,-15.1,1.9Z"/></clipPath>
<clipPath id="c3_88"><path d="M53.5,722.2V540.9H272.6V722.2Z"/></clipPath>
<style type="text/css"><![CDATA[
.g0_88{
fill: none;
stroke: #00AEEF;
stroke-width: 1.145;
}
.g1_88{
fill: none;
stroke: #241F1F;
stroke-width: 0.763;
stroke-miterlimit: 10;
}
.g2_88{
fill: #FFDEB8;
}
.g3_88{
fill: none;
stroke: #F9951B;
stroke-width: 0.916;
stroke-linejoin: round;
}
.g4_88{
fill: none;
stroke: #00A3CD;
stroke-width: 0.763;
stroke-miterlimit: 3;
stroke-dasharray: 9,4;
}
.g5_88{
fill: none;
stroke: #00AEEF;
stroke-width: 0.763;
stroke-miterlimit: 3;
stroke-dasharray: 9,4;
}
.g6_88{
fill: none;
stroke: #00AEEF;
stroke-width: 0.763;
stroke-linejoin: round;
}
.g7_88{
fill: none;
stroke: #241F1F;
stroke-width: 0.381;
stroke-miterlimit: 3;
}
.g8_88{
fill: #241F1F;
}
.g9_88{
fill: none;
stroke: #00A3CD;
stroke-width: 0.763;
stroke-miterlimit: 3;
stroke-dasharray: 10,4;
}
.ga_88{
fill: none;
stroke: #241F1F;
stroke-width: 0.611;
stroke-miterlimit: 3;
}
.gb_88{
fill: none;
stroke: #241F1F;
stroke-width: 0.763;
stroke-miterlimit: 3;
stroke-dasharray: 9,4;
}
.gc_88{
fill: none;
stroke: #241F1F;
stroke-width: 0.763;
stroke-miterlimit: 3;
stroke-dasharray: 10,4;
}
.gd_88{
fill: none;
stroke: #241F1F;
stroke-width: 0.381;
stroke-miterlimit: 3;
stroke-dasharray: 2,2;
}
.ge_88{
fill: none;
stroke: #969698;
stroke-width: 0.763;
stroke-miterlimit: 3;
stroke-dasharray: 9,4;
}
.gf_88{
fill: none;
stroke: #241F1F;
stroke-width: 0.381;
}
]]></style>
</defs>
<path d="M307.7,126.1c0,0,-1.6,0,-1.6,1.6v14.1c0,0,0,1.5,1.6,1.5h14.1c0,0,1.5,0,1.5,-1.5V127.7c0,0,0,-1.6,-1.5,-1.6H307.7Z" class="g0_88"/>
<path d="M600,135.1h21.5" class="g1_88"/>
<path d="M307.7,181.1c0,0,-1.6,0,-1.6,1.6v14.1c0,0,0,1.5,1.6,1.5h14.1c0,0,1.5,0,1.5,-1.5V182.7c0,0,0,-1.6,-1.5,-1.6H307.7Z" class="g0_88"/>
<path d="M598.5,190.1h23.3" class="g1_88"/>
<path d="M307.7,236.1c0,0,-1.6,0,-1.6,1.6v14.1c0,0,0,1.5,1.6,1.5h14.1c0,0,1.5,0,1.5,-1.5V237.7c0,0,0,-1.6,-1.5,-1.6H307.7Z" class="g0_88"/>
<path d="M600.2,245.1h21.6m-180,160.4h21.5m111.4,0h21.5" class="g1_88"/>
<path d="M307.7,488.2c0,0,-1.6,0,-1.6,1.6v14.1c0,0,0,1.5,1.6,1.5h14.1c0,0,1.5,0,1.5,-1.5V489.8c0,0,0,-1.6,-1.5,-1.6H307.7Z" class="g0_88"/>
<path d="M403.9,497.2h21.5" class="g1_88"/>
<path d="M307.7,711.3c0,0,-1.6,0,-1.6,1.5v14.1c0,0,0,1.6,1.6,1.6h14.1c0,0,1.5,0,1.5,-1.6V712.8c0,0,0,-1.5,-1.5,-1.5H307.7Z" class="g0_88"/>
<image clip-path="url(#c0_88)" x="94" y="592" width="113" height="70" xlink:href="shade/1.png"/>
<image clip-path="url(#c1_88)" x="83" y="575" width="134" height="43" xlink:href="shade/2.png"/>
<image clip-path="url(#c2_88)" x="88" y="621" width="126" height="42" xlink:href="shade/3.png"/>
<g clip-path="url(#c3_88)">
<path d="M124.3,682.9c15.9,-.4,60.5,1.6,80.3,12.3c8.9,4.8,-15,23,-27.3,25.6C164,723.7,116.4,719.6,96.1,708.6c-7.4,-4.1,12.4,-25.3,28.2,-25.7Z" class="g2_88"/>
<path d="M124.3,682.9c15.9,-.4,60.5,1.6,80.3,12.3c8.9,4.8,-15,23,-27.3,25.6C164,723.7,116.4,719.6,96.1,708.6c-7.4,-4.1,12.4,-25.3,28.2,-25.7Z" class="g3_88"/>
</g>
<path d="M124.3,576.7v45.1" class="g4_88"/>
<path d="M177.3,614.7v45" class="g5_88"/>
<path d="M94.5,599.2v43.4M206.4,592.4v41.2m-81,-57.4c32,-5.8,39.3,16.7,77,14.1c14,-1,-10.7,23.2,-25.1,24.8C151.1,620,133.4,593.2,100.6,601c-17.4,4.1,6.2,-21.4,24.8,-24.8Z" class="g6_88"/>
<path d="M172.6,575.2l-9.7,19.5" class="g7_88"/>
<path d="M161.4,597.7l.5,-4.7l1,1.7l1.9,-.2Z" class="g8_88"/>
<path d="M94.6,642.7c.1,-3.3,9.7,-4.2,18.1,-9.1c8.1,-4.8,7.9,-12.5,13.7,-12.2c28.7,1.3,64.3,3.4,78,9.5c1.3,.5,1.9,1.3,2.1,2.3" class="g9_88"/>
<path d="M206.5,633.2c1.2,6.5,-17.9,21,-29.2,23.7C161.7,662.7,114.1,654.4,96.7,645c-1.5,-.8,-2.1,-1.6,-2.1,-2.3" class="g6_88"/>
<path d="M108.5,665.7l137,21.9" class="ga_88"/>
<path fill-rule="evenodd" d="M245.5,687.6l-1.2,-2.7l6,3.5l-6.8,1.3Z" class="g8_88"/>
<path d="M108.5,584.1V545.8" class="ga_88"/>
<path fill-rule="evenodd" d="M108.5,545.8l-2.4,1.6l2.4,-6.5l2.5,6.5Z" class="g8_88"/>
<path d="M108.5,665.9l-43,36" class="ga_88"/>
<path fill-rule="evenodd" d="M65.5,701.9l2.8,.8L61.7,705l3.5,-6Z" class="g8_88"/>
<path d="M94.5,642.6v65.2m29.8,-53.7v28.8m53,-23.2v61.1" class="gb_88"/>
<path d="M206,677.1l.4,20.4" class="gc_88"/>
<path d="M108.5,649.8v15.9" class="ga_88"/>
<path d="M206.4,633.6v30.6" class="gc_88"/>
<path d="M188.6,651.6l.2,-5.8" class="gd_88"/>
<path d="M189,642.5l1.5,4.4l-1.7,-1.1l-1.7,.9Z" class="g8_88"/>
<path d="M124.3,621.8v32.1" class="ge_88"/>
<path d="M188.5,653.1c-.2,5.2,-.8,10.6,1.1,13.7c2.2,3.5,6,2.6,7.9,1.9" class="gf_88"/>
</svg>