<?xml version="1.0" encoding="UTF-8" standalone="no"?>
<!DOCTYPE svg PUBLIC "-//W3C//DTD SVG 1.1//EN"
"http://www.w3.org/Graphics/SVG/1.1/DTD/svg11.dtd">
<svg viewBox="0 0 907 1045" version="1.1" xmlns="http://www.w3.org/2000/svg" xmlns:xlink="http://www.w3.org/1999/xlink">
<defs>
<clipPath id="c0_618"><path d="M137.4,491.5V258H271.6V491.5Z"/></clipPath>
<clipPath id="c1_618"><path d="M-2.6,1047.7V-2.6H910.2V1047.7Z"/></clipPath>
<style type="text/css"><![CDATA[
.g0_618{
fill: #FFFFFF;
}
.g1_618{
fill: none;
stroke: #000000;
stroke-width: 1.527;
stroke-linecap: butt;
stroke-linejoin: miter;
stroke-miterlimit: 4;
}
.g2_618{
fill: none;
stroke: #000000;
stroke-width: 1.145;
stroke-linecap: butt;
stroke-linejoin: miter;
stroke-miterlimit: 4;
}
.g3_618{
fill: none;
stroke: #000000;
stroke-width: 0.763;
stroke-linecap: butt;
stroke-linejoin: miter;
stroke-miterlimit: 4;
}
.g4_618{
fill: none;
stroke: #FFFFFF;
stroke-width: 1.909;
stroke-linecap: butt;
stroke-linejoin: miter;
}
.g5_618{
fill: none;
stroke: #000000;
stroke-width: 0.381;
stroke-linecap: butt;
stroke-linejoin: miter;
}
]]></style>
</defs>
<image clip-path="url(#c0_618)" preserveAspectRatio="none" x="137" y="258" width="135" height="233" xlink:href="img/1.jpg"/>
<path d="M238.1,175.5c-2.6,.7,-5.1,2,-7.6,2.7c-2.6,.8,-4.2,.6,-6.8,2.4c-2,1.4,-2.3,2.6,-5,3.1c-.8,3.4,-.3,6,2,8.8c1.5,1.7,6.6,6.2,9.4,6.3c-3.5,4.6,-7.6,8.9,-4.4,14.4c1.4,2.2,5.7,7.5,8.9,8.8c3,1.1,7.6,0,10.8,.4c.4,2.1,-.5,4.4,.3,6.4c1.4,3.2,5.9,6.9,8.9,9.3c6.7,5.5,23.7,15.1,33,8.8c3.6,6.3,12.5,11.8,21.4,14.3c5.9,1.7,18.2,2.8,24.2,1.1c3.8,-1.1,7.2,-5.4,11.1,-6c1.7,-.2,8,2.7,9.8,3c8.5,1.2,19.3,1.2,27.7,-.2c12.3,-1.9,18.4,-9,22,-17c2.8,4.2,18.1,.8,22.1,-.7c7.9,-3.1,16.2,-7.6,19.3,-14c2.3,-4.7,-4.4,-9.4,-2.7,-13.1c.9,-1.7,3.4,-2.8,4.7,-4.3c7.2,-8.4,4.2,-16.6,-2.3,-24.4C438,177.3,429,171.9,416,169.1c-3.3,-.8,-6.4,-1.2,-9.8,-1.1c-2,.1,-2.8,.9,-4.8,.6c9.8,-9.2,-24.6,-17.2,-30.7,-18c-15.4,-1.9,-33.4,.2,-47.8,4c-6.9,1.9,-13.5,4.6,-20.1,6.5c1.2,-9.9,-24.2,-6.8,-30.9,-5.3c-8,1.8,-18.1,5.4,-23,10.4c-2.9,3.1,-4.4,6.9,-7,10.2Z" class="g0_618"/>
<path d="M238.1,175.5c-2.6,.7,-5.1,2,-7.6,2.7c-2.6,.8,-4.2,.6,-6.8,2.4c-2,1.4,-2.3,2.6,-5,3.1c-.8,3.4,-.3,6,2,8.8c1.5,1.7,6.6,6.2,9.4,6.3c-3.5,4.6,-7.6,8.9,-4.4,14.4c1.4,2.2,5.7,7.5,8.9,8.8c3,1.1,7.6,0,10.8,.4c.4,2.1,-.5,4.4,.3,6.4c1.4,3.2,5.9,6.9,8.9,9.3c6.7,5.5,23.7,15.1,33,8.8c3.6,6.3,12.5,11.8,21.4,14.3c5.9,1.7,18.2,2.8,24.2,1.1c3.8,-1.1,7.2,-5.4,11.1,-6c1.7,-.2,8,2.7,9.8,3c8.5,1.2,19.3,1.2,27.7,-.2c12.3,-1.9,18.4,-9,22,-17c2.8,4.2,18.1,.8,22.1,-.7c7.9,-3.1,16.2,-7.6,19.3,-14c2.3,-4.7,-4.4,-9.4,-2.7,-13.1c.9,-1.7,3.4,-2.8,4.7,-4.3c7.2,-8.4,4.2,-16.6,-2.3,-24.4C438,177.3,429,171.9,416,169.1c-3.3,-.8,-6.4,-1.2,-9.8,-1.1c-2,.1,-2.8,.9,-4.8,.6c9.8,-9.2,-24.6,-17.2,-30.7,-18c-15.4,-1.9,-33.4,.2,-47.8,4c-6.9,1.9,-13.5,4.6,-20.1,6.5c1.2,-9.9,-24.2,-6.8,-30.9,-5.3c-8,1.8,-18.1,5.4,-23,10.4c-2.9,3.1,-4.4,6.9,-7,10.2" class="g1_618"/>
<path d="M221,235.1c0,-.3,-.1,-.6,-.2,-.9c-6.2,-2,-4.1,13.8,3.3,8.5c7.3,-5.3,-3.7,-10.8,-5.3,-6.5Z" class="g0_618"/>
<path d="M221,235.1c0,-.3,-.1,-.6,-.2,-.9c-6.2,-2,-4.1,13.8,3.3,8.5c7.3,-5.3,-3.7,-10.8,-5.3,-6.5" class="g2_618"/>
<path d="M206.8,252.1c-3.2,.7,-2.7,4,-2.2,6.4c1.5,.7,3,1.1,4.5,1.1c.6,-2.7,.7,-7,-3.5,-6.4Z" class="g0_618"/>
<path d="M206.8,252.1c-3.2,.7,-2.7,4,-2.2,6.4c1.5,.7,3,1.1,4.5,1.1c.6,-2.7,.7,-7,-3.5,-6.4" class="g3_618"/>
<path d="M133.2,756.5v59.8H367.6V756.5H133.2Z" class="g0_618"/>
<path d="M91.7,741.5V950H817V741.5H91.7Z" class="g1_618"/>
<path d="M102.1,727.8v59.8H305.8V727.8H102.1Z" class="g0_618"/>
<g clip-path="url(#c1_618)">
<path d="M-4.5,13.7H-27.4m939.5,0H935M-4.5,1031.2H-27.4m939.5,0H935M13.7,-4.5V-27.4m0,1077v22.9m880,-1077V-27.4m0,1077v22.9" class="g4_618"/>
<path d="M-4.5,13.7H-27.4m939.5,0H935M-4.5,1031.2H-27.4m939.5,0H935M13.7,-4.5V-27.4m0,1077v22.9m880,-1077V-27.4m0,1077v22.9" class="g5_618"/>
</g>
</svg>