<?xml version="1.0" encoding="UTF-8" standalone="no"?>
<!DOCTYPE svg PUBLIC "-//W3C//DTD SVG 1.1//EN"
"http://www.w3.org/Graphics/SVG/1.1/DTD/svg11.dtd">
<svg viewBox="0 0 931 1096" version="1.1" xmlns="http://www.w3.org/2000/svg" xmlns:xlink="http://www.w3.org/1999/xlink">
<defs>
<clipPath id="c0_73"><path d="M472.4,142V124.5H748.3V142Z"/></clipPath>
<clipPath id="c1_73"><path d="M444.5,717.7V700.5H514v17.2Z"/></clipPath>
<clipPath id="c2_73"><path d="M543.7,717.9V700.5h96.2v17.4Z"/></clipPath>
<clipPath id="c3_73"><path d="M455.9,802.4V782.9H819.8v19.5Z"/></clipPath>
<clipPath id="c4_73"><path d="M689.1,881.7V862.4h83.2v19.3Z"/></clipPath>
<clipPath id="c5_73"><path d="M367,919.1v-17h21.2v17Z"/></clipPath>
<clipPath id="c6_73"><path d="M631.2,922.3V900.6h61.4v21.7Z"/></clipPath>
<clipPath id="c7_73"><path d="M498,991.8V972.4H777.7v19.4Z"/></clipPath>
<clipPath id="c8_73"><path d="M149.7,346.5H128.5l4.8,-12.6H114.4c-3.3,0,-5.9,-3.5,-5.9,-7.7V309.4c0,-4.2,2.6,-7.6,5.9,-7.6h18.7l-4.6,-13.2h21.2l-4.6,13.2h19.2c3.3,0,5.9,3.4,5.9,7.6v16.8c0,4.2,-2.6,7.7,-5.9,7.7H144.9l4.8,12.6Z"/></clipPath>
<clipPath id="c9_73"><path d="M146.8,346.5H131.4l4.9,-15.9h-21c-2.4,0,-4.4,-2.6,-4.4,-5.7V310.7c0,-3.1,2,-5.7,4.4,-5.7h20.9l-4.8,-16.4h15.4L142,305h21.4c2.4,0,4.4,2.6,4.4,5.7v14.2c0,3.1,-2,5.7,-4.4,5.7H141.9l4.9,15.9Z"/></clipPath>
<clipPath id="ca_73"><path d="M149.7,241.3H128.5l4.8,-12.6H114.4c-3.3,0,-5.9,-3.5,-5.9,-7.7V204.2c0,-4.2,2.6,-7.7,5.9,-7.7h18.7l-4.6,-13.1h21.2l-4.6,13.1h19.2c3.3,0,5.9,3.5,5.9,7.7V221c0,4.2,-2.6,7.7,-5.9,7.7H144.9l4.8,12.6Z"/></clipPath>
<clipPath id="cb_73"><path d="M146.8,241.3H131.4l4.9,-15.9h-21c-2.4,0,-4.4,-2.6,-4.4,-5.7V205.5c0,-3.1,2,-5.7,4.4,-5.7h20.9l-4.8,-16.4h15.4L142,199.8h21.4c2.4,0,4.4,2.6,4.4,5.7v14.2c0,3.1,-2,5.7,-4.4,5.7H141.9l4.9,15.9Z"/></clipPath>
<clipPath id="cc_73"><path d="M233.9,296.1l4.8,-12.7H217.8c-3.3,0,-5.9,-3.4,-5.9,-7.6V255.9c0,-4.2,2.6,-7.7,5.9,-7.7h20.8l-4.7,-13.1h21.3l-4.7,13.1h20.3c3.3,0,5.9,3.5,5.9,7.7v19.9c0,4.2,-2.6,7.6,-5.9,7.6H250.4l4.8,12.7H233.9Z"/></clipPath>
<clipPath id="cd_73"><path d="M236.8,296.1l4.9,-15.9h-23c-2.4,0,-4.4,-2.6,-4.4,-5.8V257.2c0,-3.1,2,-5.7,4.4,-5.7h22.9l-4.8,-16.4h15.5l-4.8,16.4h22.4c2.4,0,4.4,2.6,4.4,5.7v17.2c0,3.2,-2,5.8,-4.4,5.8H247.3l5,15.9H236.8Z"/></clipPath>
<style type="text/css"><![CDATA[
.g0_73{
fill: none;
stroke: #241F1F;
stroke-width: 0.763;
stroke-miterlimit: 10;
}
.g1_73{
fill: none;
stroke: #00AEEF;
stroke-width: 0.763;
}
.g2_73{
fill: none;
stroke: #241F1F;
stroke-width: 0.84;
stroke-miterlimit: 10;
}
.g3_73{
fill: none;
stroke: #241F1F;
stroke-width: 0.916;
stroke-linejoin: round;
}
.g4_73{
fill: #241F1F;
}
.g5_73{
fill: #EE008C;
}
.g6_73{
fill: none;
stroke: #FFF;
stroke-width: 1.145;
}
.g7_73{
fill: none;
stroke: #FFF;
stroke-width: 1.283;
}
]]></style>
</defs>
<path clip-path="url(#c0_73)" d="M705.4,124.9h43.3" class="g0_73"/>
<path d="M345.7,303.9c0,0,-3.1,0,-3.1,2v77.8c0,0,0,2,3.1,2H875.1c0,0,3,0,3,-2V305.9c0,0,0,-2,-3,-2H345.7Z" class="g1_73"/>
<path clip-path="url(#c1_73)" d="M504.5,700.9h9.9" class="g0_73"/>
<path clip-path="url(#c2_73)" d="M601.6,700.9h38.6" class="g0_73"/>
<path d="M622.2,784.9h36.4m51.2,.7h38.7" class="g0_73"/>
<path d="M698.3,783.3h50.2" class="g2_73"/>
<path clip-path="url(#c3_73)" d="M781.6,784.9h38.6" class="g0_73"/>
<path d="M672.9,864.3h9.9" class="g0_73"/>
<g clip-path="url(#c4_73)">
<path d="M763.6,865.1h9.1" class="g0_73"/>
<path d="M722.5,862.8h50.2" class="g2_73"/>
</g>
<path clip-path="url(#c5_73)" d="M378.7,902.5h9.9" class="g0_73"/>
<g clip-path="url(#c6_73)">
<path d="M683.8,903.3H693" class="g0_73"/>
<path d="M643.1,901H693" class="g2_73"/>
</g>
<path d="M383.4,920.9h9.9m93,0h9.9m170.1,53.4h9.2m51.2,.8h9.1" class="g0_73"/>
<path d="M715.2,972.8h20.7" class="g2_73"/>
<path clip-path="url(#c7_73)" d="M769,974.3h9.1" class="g0_73"/>
<image clip-path="url(#c8_73)" x="108" y="288" width="63" height="59" xlink:href="shade/1.png"/>
<image clip-path="url(#c9_73)" x="110" y="288" width="58" height="59" xlink:href="shade/2.png"/>
<image clip-path="url(#ca_73)" x="108" y="183" width="63" height="59" xlink:href="shade/3.png"/>
<image clip-path="url(#cb_73)" x="110" y="183" width="58" height="59" xlink:href="shade/4.png"/>
<path d="M139.4,168.8v18.4" class="g3_73"/>
<path d="M139.4,192.1l-2.5,-6.5l2.5,1.6l2.4,-1.6Z" class="g4_73"/>
<path d="M139.4,235.3v16.8" class="g3_73"/>
<path d="M139.4,257l-2.5,-6.5l2.5,1.6l2.4,-1.6Z" class="g4_73"/>
<path d="M139.4,274.7v18.4" class="g3_73"/>
<path d="M139.4,298l-2.5,-6.5l2.5,1.6l2.4,-1.6Z" class="g4_73"/>
<path d="M139.4,341.2V358" class="g3_73"/>
<path d="M139.4,362.9l-2.5,-6.4l2.5,1.5l2.4,-1.5Z" class="g4_73"/>
<image clip-path="url(#cc_73)" x="211" y="235" width="66" height="62" xlink:href="shade/5.png"/>
<image clip-path="url(#cd_73)" x="214" y="235" width="61" height="62" xlink:href="shade/6.png"/>
<path d="M244.6,244.8l2.5,-6.5l-2.5,1.5l-2.4,-1.5Z" class="g4_73"/>
<path d="M244.6,240.9v-60c-.6,-13.6,-6,-18.8,-23.1,-18.6h-33M212,373.8h9.5c17.1,.2,22.5,-5.2,23.1,-18.7V292.8" class="g3_73"/>
<path d="M207.2,373.8l6.5,2.4l-1.6,-2.4l1.6,-2.5Z" class="g4_73"/>
<path d="M314.7,625h13.8V610.5H314.7V625Z" class="g5_73"/>
<path d="M321.6,623.6c3.2,0,5.8,-2.6,5.8,-5.9c0,-3.2,-2.6,-5.8,-5.8,-5.8c-3.2,0,-5.8,2.6,-5.8,5.8c0,3.3,2.6,5.9,5.8,5.9Z" class="g5_73"/>
<path d="M321.6,623.6c3.2,0,5.8,-2.6,5.8,-5.9c0,-3.2,-2.6,-5.8,-5.8,-5.8c-3.2,0,-5.8,2.6,-5.8,5.8c0,3.3,2.6,5.9,5.8,5.9Z" class="g6_73"/>
<path d="M325.8,613.6l-8.3,8.3" class="g7_73"/>
</svg>