<?xml version="1.0" encoding="UTF-8" standalone="no"?>
<!DOCTYPE svg PUBLIC "-//W3C//DTD SVG 1.1//EN"
"http://www.w3.org/Graphics/SVG/1.1/DTD/svg11.dtd">
<svg viewBox="0 0 931 1096" version="1.1" xmlns="http://www.w3.org/2000/svg" xmlns:xlink="http://www.w3.org/1999/xlink">
<defs>
<clipPath id="c0_40"><path d="M52,324.4V290.8H825v33.6Z"/></clipPath>
<style type="text/css"><![CDATA[
.g0_40{
fill: none;
stroke: #00AEEF;
stroke-width: 0.763;
stroke-miterlimit: 10;
}
.g1_40{
fill: none;
stroke: #00AEEF;
stroke-width: 0.763;
stroke-linecap: round;
stroke-linejoin: round;
}
.g2_40{
fill: none;
stroke: #241F1F;
stroke-width: 0.611;
stroke-miterlimit: 3;
}
.g3_40{
fill: #241F1F;
}
.g4_40{
fill: none;
stroke: #EE008C;
stroke-width: 0.763;
stroke-linecap: round;
stroke-linejoin: round;
}
.g5_40{
fill: none;
stroke: #241F1F;
stroke-width: 0.481;
stroke-miterlimit: 10;
}
.g6_40{
fill: none;
stroke: #EE008C;
stroke-width: 0.763;
stroke-linejoin: round;
}
.g7_40{
fill: #FFF;
}
.g8_40{
fill: none;
stroke: #00AEEF;
stroke-width: 0.916;
stroke-linejoin: round;
}
.g9_40{
fill: #00AEEF;
}
.ga_40{
fill: #F6FBF5;
}
.gb_40{
fill: none;
stroke: #241F1F;
stroke-width: 0.381;
stroke-miterlimit: 3;
}
.gc_40{
fill: none;
stroke: #FFF;
stroke-width: 1.527;
}
]]></style>
</defs>
<image clip-path="url(#c0_40)" preserveAspectRatio="none" x="52" y="291" width="773" height="34" xlink:href="img/1.png"/>
<path d="M447.7,395.8H823.5" class="g0_40"/>
<path d="M583.7,624.6v-.5m.5,0l-.5,.5m-2.2,0l2.7,-.5m-20.6,0l.4,.5m-.4,0v-.5m.4,.5h-.4m-.9,0H564m158.5,15.6l3.1,-.9m-.9,3.5l-2.2,-2.6m3.1,-.9l-.9,3.5m-8.8,5.7l9.7,-9.2m-22.9,1.8l2.7,-.5m-.9,2.2l-1.8,-1.7m2.7,-.5l-.9,2.2m-7.9,4.4l8.8,-6.6m-22.4,.9l2.2,-.4m-.9,2.2L683,641.5m2.2,-.4l-.9,2.2m-6.6,3.4l7.5,-5.6m-22,.9H665m-.9,1.7l-.9,-1.7m1.8,0l-.9,1.7m-5.7,2.2L665,642m-21.5,.4h1.3m-.9,1.3l-.4,-1.3m1.3,0l-.9,1.3m-4.4,1.7l5.3,-3m-21.5,.4l1.3,.5m-.9,.8l-.4,-1.3m1.3,.5l-.9,.8m-3.5,.5l4.4,-1.3m-21.1,0h.9m-.9,.8v-.8m.9,0l-.9,.8m-2.6,.5l3.5,-1.3m-20.7,.4h.5m-.5,.4v-.4m.5,0l-.5,.4m-1.7,0l2.2,-.4m-20.6,0h.4m-.4,.4v-.4m.4,0l-.4,.4m-.9,0l1.3,-.4m158.1,16.1l2.6,-.9m-.4,3l-2.2,-2.1m2.6,-.9l-.4,3m-7.5,5.7l7.9,-8.7m-22.4,1.7l2.2,-.8m-.4,2.6l-1.8,-1.8m2.2,-.8l-.4,2.6m-6.6,4.3l7,-6.9m-22,1.3l1.8,-.5m-.5,2.2l-1.3,-1.7m1.8,-.5l-.5,2.2m-5.2,3.1l5.7,-5.3m-21.5,.9h1.7m-.8,1.3l-.9,-1.3m1.7,0l-.8,1.3m-4.4,2.6l5.2,-3.9m-21.5,.4h1.3m-.8,1.4l-.5,-1.4m1.3,0l-.8,1.4m-3.6,1.3l4.4,-2.7m-21,.5h.8m-.4,.9l-.4,-.9m.8,0l-.4,.9m-3.1,.8l3.5,-1.7m-20.6,.4h.4m-.4,.5v-.5m.4,0l-.4,.5m-2.2,.4l2.6,-.9m-20.6,.5h.4m-.4,.4v-.4m.4,0l-.4,.4m-1.3,0l1.7,-.4m-20.1,.4v-.4m0,0v.4m-.9,-.4h.9m158,16.5l2.2,-1.3m0,2.6l-2.2,-1.3m2.2,-1.3v2.6m-5.7,6.1l5.7,-8.7m-21.9,1.7l1.7,-.9m0,2.2l-1.7,-1.3m1.7,-.9v2.2m-5.3,4.8l5.3,-7m-21.5,1.3l1.7,-.4m-.4,1.7l-1.3,-1.3m1.7,-.4l-.4,1.7m-4.4,3.5l4.8,-5.2m-21.5,1.3l1.4,-.4m-.5,1.3l-.9,-.9m1.4,-.4l-.5,1.3m-3.5,2.6l4,-3.9m-21.1,.8l1.3,-.4m-.4,.9l-.9,-.5m1.3,-.4l-.4,.9m-3.1,1.7l3.5,-2.6m-21.1,.4h.9m-.4,.9l-.5,-.9m.9,0l-.4,.9m-2.2,.9l2.6,-1.8m-20.6,.5h.4m0,.4l-.4,-.4m.4,0v.4m-1.8,.4l1.8,-.8m-20.2,.4h.4m0,0h-.4m-.9,.4l1.3,-.4m-20.6,0h.5m157.1,16.5l2.2,-1.3m0,2.2l-2.2,-.9m2.2,-1.3v2.2m-3.9,6.5l3.9,-8.7m-21.5,2.2l1.3,-1.3m.5,2.2l-1.8,-.9m1.3,-1.3l.5,2.2m-4,4.7l3.5,-6.9m-21,1.7l1.3,-.8m0,1.3l-1.3,-.5m1.3,-.8v1.3m-3.1,3.9l3.1,-5.2m-21.1,1.3l1.3,-.5m-.4,.9l-.9,-.4m1.3,-.5l-.4,.9m-2.2,3l2.6,-3.9m-21.1,.9l.9,-.4m0,.8l-.9,-.4m.9,-.4v.8m-2.2,1.8l2.2,-2.6m-20.2,.4h.5m0,.4l-.5,-.4m.5,0v.4m-1.8,1.3l1.8,-1.7m-20.2,.4h.4m-.4,.5v-.5m.4,0l-.4,.5m-.9,.4l1.3,-.9m-21.1,.9l.9,-.4m-20.2,0h.5m156.7,16.9l1.3,-1.7m.9,2.2l-2.2,-.5m1.3,-1.7l.9,2.2m-2.6,6.5l1.7,-8.7M701,719.8l.9,-1.3m.4,1.7l-1.3,-.4m.9,-1.3l.4,1.7m-2.2,5.2l1.8,-6.9m-20.7,1.7l.9,-.9m.4,1.3l-1.3,-.4m.9,-.9l.4,1.3m-1.7,3.9l1.3,-5.2m-20.6,1.3l.8,-.8m.5,1.3l-1.3,-.5m.8,-.8l.5,1.3m-1.8,2.6l1.3,-3.9m-20.2,1.3l.5,-.5m0,.5h-.5m.5,-.5v.5m-.9,2.1l.9,-2.6m-20.2,.9l.4,-.4m0,.4h-.4m.4,-.4v.4m-.9,1.3l.9,-1.7m-20.2,.4h.5m0,0h-.5m-.4,.9l.9,-.9m-20.2,.4l.4,-.4m0,.4h-.4m.4,-.4v.4m-.4,0l.4,-.4m-20.2,.4h.5m0,0h-.5m0,0h.5m156.3,17l.8,-1.7m1.4,1.7h-2.2m.8,-1.7l1.4,1.7m-1.4,6.9v-8.6m-20.6,2.1L701,738m.9,1.3h-1.8M701,738l.9,1.3M701,745v-7m-20.2,1.8l.9,-.9m.4,.9h-1.3m.9,-.9l.4,.9m-.4,4.3v-5.2m-20.2,1.3l.4,-.9m.4,.9h-.8m.4,-.9l.4,.9m-.4,3v-3.9m-20.2,1.3l.4,-.4m.5,.4h-.9m.4,-.4l.5,.4m-.5,2.2v-2.6m-20.2,.9l.5,-.5m0,.5h-.5m.5,-.5v.5m0,1.3v-1.8m-19.8,1.3v-.8m-19.7,.4v-.4m141.8,-180l4.8,.4m-2.6,3.9l-2.2,-4.3m4.8,.4l-2.6,3.9M712,570.2l17.5,-8.7m-24.6,.5l4,.4m-2.7,3.5L704.9,562m4,.4l-2.7,3.5m-12.7,3.5l15.4,-7m-24.2,.4l3.5,.5m-2.2,3l-1.3,-3.5m3.5,.5l-2.2,3m-11.4,2.2l13.6,-5.2m-23.7,0l3.1,.8m-2.2,2.2l-.9,-3m3.1,.8l-2.2,2.2m-9.6,1.7l11.8,-3.9m-23.3,0l2.7,.5m-1.8,1.7l-.9,-2.2m2.7,.5l-1.8,1.7m-7.9,.9l9.7,-2.6m-22.4,0l1.7,.4m-1.3,1.3l-.4,-1.7m1.7,.4l-1.3,1.3m-6.6,.4l7.9,-1.7m-21.9,0l1.3,.4m-1.3,.9V565m1.3,.4l-1.3,.9m-4.9,0l6.2,-.9m-21.5,0l.9,.5m-.9,.4v-.9m.9,.5l-.9,.4m-3.1,0l4,-.4M564,565.4l.4,.5m-.4,.4v-.9m.4,.5l-.4,.4m-1.8,-.4h2.2m159.9,15.2h4.3m-2.2,3.9l-2.1,-3.9m4.3,0l-2.2,3.9m-13.6,4.8l15.8,-8.7m-24.5,.4l3.9,.5m-2.2,3l-1.7,-3.5m3.9,.5l-2.2,3m-11.4,3.9L708,582m-23.7,.4l3.1,.4m-1.8,2.6l-1.3,-3m3.1,.4l-1.8,2.6M675.5,588l11.9,-5.2m-23.3,0l3.1,.5m-1.8,2.1l-1.3,-2.6m3.1,.5l-1.8,2.1m-8.8,1.8l10.6,-3.9m-22.9,.4l2.2,.4m-1.7,1.8l-.5,-2.2m2.2,.4l-1.7,1.8m-7,.8l8.7,-2.6m-22.4,0l1.8,.5m-1.3,1.3l-.5,-1.8m1.8,.5l-1.3,1.3m-5.7,.4l7,-1.7m-22,0l1.4,.4m-.9,.9l-.5,-1.3m1.4,.4l-.9,.9m-4.4,0l5.3,-.9m-21.6,0h.9m-.4,.9l-.5,-.9m.9,0l-.4,.9m-3.1,-.5l3.5,-.4m-21,0l.4,.4m0,0l-.4,-.4m-1.4,.4H564m159.8,15.2h4m-1.8,3.5l-2.2,-3.5m4,0l-1.8,3.5m-11.8,5.3l13.6,-8.8m-24.2,.9h3.5m-1.7,3.1l-1.8,-3.1m3.5,0l-1.7,3.1m-10.1,3.9l11.8,-7m-23.3,.5l3.1,.4m-1.7,2.2L683.8,602m3.1,.4l-1.7,2.2m-9.2,3l10.9,-5.2m-23.2,.4h2.6M665,605l-1.3,-2.2m2.6,0L665,605m-7.9,1.7l9.2,-3.9m-22.4,.5l1.8,.4m-.9,1.3l-.9,-1.7m1.8,.4l-.9,1.3m-6.6,1.3l7.5,-2.6m-22,0l1.8,.4m-1.4,.9l-.4,-1.3m1.8,.4l-1.4,.9m-4.8,.9l6.2,-1.8m-21.6,0l.9,.5m-.9,.4v-.9m.9,.5l-.9,.4m-3.5,.4l4.4,-.8m-21.1,0h.9m-.9,.4v-.4m.9,0l-.9,.4m-2.2,0l3.1,-.4m-21,0l.4,.4m-.4,0v-.4m.4,.4h-.4m-.9,0H564m158.9,15.6l4,-.4m-1.8,3.1l-2.2,-2.7m4,-.4l-1.8,3.1M715,628.9l11.9,-8.7m-23.7,.9h3m-1.3,2.6l-1.7,-2.6m3,0l-1.3,2.6m-9.2,4.3l10.5,-6.9m-22.8,.9H686m-1.3,2.1L683.4,622m2.6,0l-1.3,2.1m-7.9,3.1L686,622m-22.3,.4h2.2m-1.4,1.7l-.8,-1.7m2.2,0l-1.4,1.7m-6.5,2.2l7.9,-3.9m-22.4,.4l1.7,.5m-.9,1.3l-.8,-1.8m1.7,.5l-.9,1.3m-5.7,1.3l6.6,-2.6m-21.5,0l1.3,.4m-.9,.9l-.4,-1.3m1.3,.4l-.9,.9m-4.4,.8l5.3,-1.7m-21.5,0l1.3,.4m-.9,.5l-.4,-.9m1.3,.4l-.9,.5m-3,.4l3.9,-.9m-21.1,0h.5" class="g1_40"/>
<path d="M521.2,741.6H745.1" class="g2_40"/>
<path fill-rule="evenodd" d="M745.1,741.6l-1.7,-2.5l6.6,2.5l-6.6,2.4Z" class="g3_40"/>
<path d="M544.1,764.5V543" class="g2_40"/>
<path fill-rule="evenodd" d="M544.1,543l-2.5,1.6l2.5,-6.5l2.4,6.5Z" class="g3_40"/>
<path d="M709.1,738.5v6.1M541,576.6h6.1m-6.1,55h6.1m-6.1,55h6.1m107,51.9v6.1m-55,-6.1v6.1" class="g2_40"/>
<path d="M687.3,625.8l1.2,-.4m-1.6,.4h.4m-.4,.4v-.4m-.8,.4h.8m-2,1.2l1.2,-1.2m-2.4,2l1.2,-.8m-2,2.3l.8,-1.5m-2,2.7l1.2,-1.2m-2.4,2.8l1.2,-1.6m-2.4,2.8l1.2,-1.2m-2.4,2.4l1.2,-1.2m-2.4,2l1.2,-.8m-1.6,1.2l.4,-.4m-.8,.4h.4m-.8,.4l.4,-.4m-1.6,.4h1.2m-2,0h.8m-1.2,-.4l.4,.4m-.8,-.4h.4m-.8,-.4l.4,.4m-1.6,-1.2l1.2,.8m-2.4,-2l1.2,1.2m-2.4,-2.4l1.2,1.2m-2.4,-2.8l1.2,1.6m-2.4,-2.8l1.2,1.2m-2.4,-2.7l1.2,1.5m-2,-2.3l.8,.8m-2,-2l1.2,1.2m-2,-1.2h.8m-.8,-.4v.4m-.4,-.4h.4m-1.6,-.4l1.2,.4m-2.4,0l1.2,-.4m-1.6,.4h.4m-.4,.4v-.4m-.8,.4h.8m-2,1.2l1.2,-1.2m-2.4,2l1.2,-.8m-1.9,2.3l.7,-1.5m-1.9,2.7l1.2,-1.2m-2.4,2.8l1.2,-1.6m-2.4,2.8l1.2,-1.2m-2.4,2.4l1.2,-1.2m-2.4,2l1.2,-.8m-1.6,1.2l.4,-.4m-.8,.4h.4m-.8,.4l.4,-.4m-1.6,.4h1.2m-2,0h.8m-1.2,-.4l.4,.4m-.8,-.4h.4m-.8,-.4l.4,.4m-1.6,-1.2l1.2,.8m-2.4,-2l1.2,1.2m-2.4,-2.4l1.2,1.2m-2.4,-2.8l1.2,1.6M639,629.7l1.2,1.2m-2.4,-2.7l1.2,1.5m-2,-2.3l.8,.8m-2,-2l1.2,1.2m-2,-1.2h.8m-.8,-.4v.4m-.4,-.4h.4m-1.6,-.4l1.2,.4m-2.4,0l1.2,-.4m-1.6,.4h.4m-.4,.4v-.4m-.8,.4h.8m-2,1.2l1.2,-1.2m-2.4,2l1.2,-.8m-2,2.3l.8,-1.5m-2,2.7l1.2,-1.2m-2.4,2.8l1.2,-1.6m-2.4,2.8l1.2,-1.2m-2.4,2.4l1.2,-1.2m-2.4,2l1.2,-.8m-1.6,1.2l.4,-.4m-.8,.4h.4m-.8,.4l.4,-.4m-1.6,.4h1.2m-2,0h.8m-1.2,-.4l.4,.4m-.8,-.4h.4m-.8,-.4l.4,.4m-1.6,-1.2l1.2,.8m-2.4,-2l1.2,1.2m-2.4,-2.4l1.2,1.2m-2.4,-2.8l1.2,1.6m-2.4,-2.8l1.2,1.2m-2.4,-2.7l1.2,1.5m-2,-2.3l.8,.8m-1.9,-2l1.1,1.2m-2,-1.2h.9m-.9,-.4v.4m-.4,-.4h.4m-1.5,-.4l1.1,.4m-2.3,0l1.2,-.4m-1.6,.4h.4m-.4,.4v-.4m-.8,.4h.8m-2,1.2l1.2,-1.2m-2.4,2l1.2,-.8m-2,2.3l.8,-1.5m-2,2.7l1.2,-1.2m-1.2,-2.3v3.5m.4,-7.1l-.4,3.6m.8,-7.2l-.4,3.6m1.2,-6.8l-.8,3.2m2,-6.8l-1.2,3.6m2.4,-7.2l-1.2,3.6m2.8,-6.8l-1.6,3.2m3.2,-6.4l-1.6,3.2m3.6,-6l-2,2.8m3.9,-6l-1.9,3.2m4.3,-6l-2.4,2.8m4.8,-5.2l-2.4,2.4m5.2,-4.8l-2.8,2.4m5.6,-4.8l-2.8,2.4m5.6,-4.4l-2.8,2m6,-4l-3.2,2m6.4,-3.5l-3.2,1.5m6.4,-3.2l-3.2,1.7m6.4,-2.8l-3.2,1.1m6.8,-2.3l-3.6,1.2m7.2,-2l-3.6,.8m7.2,-1.6l-3.6,.8m7.2,-.8H647m7.2,-.4l-3.6,.4m7.2,0l-3.6,-.4m7.1,.4h-3.5m7.1,.8l-3.6,-.8m6.8,1.6l-3.2,-.8m6.8,2l-3.6,-1.2m7.2,2.3l-3.6,-1.1m6.8,2.8l-3.2,-1.7m6.4,3.2l-3.2,-1.5m6,3.5l-2.8,-2m6,4l-3.2,-2m6,4.4l-2.8,-2.4m5.2,4.8l-2.4,-2.4m4.8,4.8l-2.4,-2.4m4.8,5.2l-2.4,-2.8m4.4,6l-2,-3.2m4,6l-2,-2.8m3.6,6l-1.6,-3.2m3.2,6.4l-1.6,-3.2m2.7,6.8l-1.1,-3.6m2.3,7.2L706,613.4m2,6.8l-.8,-3.2m1.6,6.8l-.8,-3.6m.8,7.2v-3.6m.4,7.1l-.4,-3.5m-2,8.3l2.4,-4.8m-4.7,8.8l2.3,-4m-4.7,8.4l2.4,-4.4m-4.4,8l2,-3.6m-4.4,7.6l2.4,-4m-4.8,7.6l2.4,-3.6m-4.8,6.8l2.4,-3.2m-4.4,6.4l2,-3.2m-4.4,6l2.4,-2.8m-4.8,5.6l2.4,-2.8m-4.8,5.6l2.4,-2.8m-4.4,5.2l2,-2.4m-4.4,4.4l2.4,-2m-4.8,4l2.4,-2m-4.8,4l2.4,-2m-4.4,3.5l2,-1.5m-4.4,3.1l2.4,-1.6m-4.8,2.8l2.4,-1.2m-4.8,2l2.4,-.8m-4.4,1.6l2,-.8m-4.4,1.6l2.4,-.8m-4.8,1.2l2.4,-.4m-4.8,.8l2.4,-.4m-4.3,.4h1.9m-4.3,0h2.4m-4.8,-.4l2.4,.4m-4.8,-.8l2.4,.4M645,684.4l2,.8m-4.4,-1.6l2.4,.8m-4.8,-1.6l2.4,.8m-4.8,-2l2.4,1.2M635.8,680l2,1.6m-4.4,-3.1l2.4,1.5M631,676.5l2.4,2m-4.8,-4l2.4,2m-4.4,-4l2,2m-4.4,-4.4l2.4,2.4m-4.8,-5.2l2.4,2.8m-4.8,-5.6l2.4,2.8m-4.4,-5.6l2,2.8m-4.4,-6l2.4,3.2m-4.8,-6.4l2.4,3.2m-4.8,-6.8l2.4,3.6m-4.3,-7.6l1.9,4m-4.3,-7.6l2.4,3.6m-4.8,-8l2.4,4.4m-4.8,-8.4l2.4,4m-4.4,-8.8l2,4.8M708,632.5l1.2,-1.6m-2.4,2.8l1.2,-1.2m-2.4,2.4l1.2,-1.2m-2.3,2l1.1,-.8m-1.5,1.2l.4,-.4m-.9,.4h.5m-.8,.4l.3,-.4m-1.5,.4h1.2m-2,0h.8m-1.2,-.4l.4,.4m-.8,-.4h.4m-.8,-.4l.4,.4m-1.6,-1.2l1.2,.8m-2.4,-2l1.2,1.2m-2.4,-2.4l1.2,1.2m-2.4,-2.8l1.2,1.6m-2.4,-2.8l1.2,1.2m-2.4,-2.7l1.2,1.5m-2,-2.3l.8,.8m-2,-2l1.2,1.2m-2,-1.2h.8m-.8,-.4v.4m-.4,-.4h.4m-1.6,-.4l1.2,.4" class="g4_40"/>
<path d="M777.5,862.3h4.8" class="g5_40"/>
<path d="M123.9,551.8H366.2" class="g2_40"/>
<path fill-rule="evenodd" d="M366.2,551.8l-1.6,-2.5l6.5,2.5l-6.5,2.4Z" class="g3_40"/>
<path d="M146.9,574.7V389.8" class="g2_40"/>
<path fill-rule="evenodd" d="M146.9,389.8l-2.5,1.6l2.5,-6.5l2.4,6.5Z" class="g3_40"/>
<path d="M146.8,478.7c69.6,0,113.8,37.4,113.8,72.5" class="g6_40"/>
<path d="M219.9,508.2h16V492.9h-16v15.3Z" class="g7_40"/>
<path d="M343.6,405c6.6,3.8,12.8,7.8,18.7,12M307,405c20.8,9.7,39.4,21.1,55.3,33.5M259.3,405c41.4,14,76.8,34.9,102.7,58.8m-215.2,-58c112.2,0,186.7,46.5,215.2,98.3M146.8,425.4c121.6,0,197.3,65.2,197.3,125.8M146.8,448.4C247.4,448.4,308,502,308,551.2" class="g6_40"/>
<path d="M253.3,486.8h16V471.5h-16v15.3Z" class="g7_40"/>
<path d="M278.1,470.7h16.1V455.4H278.1v15.3Z" class="g7_40"/>
<path d="M299.9,456.4h16V441.1h-16v15.3Z" class="g7_40"/>
<path d="M317.7,444.8h16V429.5h-16v15.3Z" class="g7_40"/>
<path d="M334.3,432.3h16V417.1h-16v15.2Z" class="g7_40"/>
<path d="M170.7,480.3c4.2,-13.4,23.9,-32.2,41.5,-35.9m.1,0c21.3,-4.6,46.5,-15.3,53,-37.1" class="g8_40"/>
<path d="M217.1,443.3l-5.9,3.8l1,-2.7l-2,-2.1Z" class="g9_40"/>
<path d="M149.7,791.6h50.4V708.3H149.7v83.3Z" class="ga_40"/>
<path d="M149.7,708.3H351.3V678.9H149.7v29.4Z" class="ga_40"/>
<path d="M149.7,678.9H351.3V791.6H149.7Zm0,0l50.4,29.4m0,-29.4V791.6M149.7,708.3H351.3m-201.6,55H351.3M300.9,678.9V791.6M250.5,678.9V791.6M149.7,735.8H351.3" class="gb_40"/>
<path d="M355.5,678.7V791.4" class="gc_40"/>
</svg>