<?xml version="1.0" encoding="UTF-8" standalone="no"?>
<!DOCTYPE svg PUBLIC "-//W3C//DTD SVG 1.1//EN"
"http://www.w3.org/Graphics/SVG/1.1/DTD/svg11.dtd">
<svg viewBox="0 0 907 1045" version="1.1" xmlns="http://www.w3.org/2000/svg" xmlns:xlink="http://www.w3.org/1999/xlink">
<defs>
<clipPath id="c0_135"><path d="M144,912.3V856.2H285.1v56.1Z"/></clipPath>
<clipPath id="c1_135"><path d="M-2.6,1047.7V-2.6H910.2V1047.7Z"/></clipPath>
<style type="text/css"><![CDATA[
.g0_135{
fill: none;
stroke: #636363;
stroke-width: 1.527;
stroke-linecap: butt;
stroke-linejoin: miter;
stroke-miterlimit: 4;
}
.g1_135{
fill: none;
stroke: #636363;
stroke-width: 1.513;
stroke-linecap: butt;
stroke-linejoin: miter;
stroke-miterlimit: 4;
}
.g2_135{
fill: #FFFFFF;
}
.g3_135{
}
.g4_135{
fill: #B6B6B6;
}
.g5_135{
fill: #343434;
}
.g6_135{
fill: #7C7C7C;
}
.g7_135{
fill: #909090;
}
.g8_135{
fill: #737373;
}
.g9_135{
fill: #C7C7C7;
}
.ga_135{
fill: #ACACAC;
}
.gb_135{
fill: #A8A8A8;
}
.gc_135{
fill: #E6E6E6;
}
.gd_135{
fill: #D2D2D2;
}
.ge_135{
fill: #CFCFCF;
}
.gf_135{
fill: #ECECEC;
}
.gg_135{
fill: #DDDDDD;
}
.gh_135{
fill: #DBDBDB;
}
.gi_135{
fill: #D5D5D5;
}
.gj_135{
fill: #3C3C3C;
}
.gk_135{
fill: none;
stroke: #FFFFFF;
stroke-width: 1.909;
stroke-linecap: butt;
stroke-linejoin: miter;
}
.gl_135{
fill: none;
stroke: #000000;
stroke-width: 0.381;
stroke-linecap: butt;
stroke-linejoin: miter;
}
]]></style>
</defs>
<path d="M554.7,400.8c-6.3,-1.3,-11.4,-1.6,-17.8,.2c-12.2,3.3,-22,10.6,-32.3,17.7c-12.2,8.4,-21.9,20.7,-37.6,21.9c-4.9,.4,-9.3,-2.4,-13.8,-3.6c-3.3,-.9,-6.5,-1.2,-9.7,-2.2c-3,-.8,-1.3,-4.3,.4,-5.9c-1.1,2.5,-6.3,5.2,-5.7,7.6c.7,.6,1.3,1.2,2,1.8c1.4,1.2,2.1,2.4,3.2,3.7c.5,.6,1,.7,1.3,1.4m130.7,3.2c-8,-5.3,-18.1,-5.1,-27.1,-3.2c-10.8,2.3,-22.9,4,-32.2,10.4c-3,2.1,-6,4.7,-8.5,7.5c-1.8,2,-3.1,4.4,-5,6.3c-4.3,4.4,-9.2,6.8,-15.2,8.4c-4.5,1.2,-8.8,.7,-13.4,.4c-4.5,-.3,-8.9,-.8,-13.4,-1.8c-3.4,-.8,-7,-1.3,-10.5,-1.7c-2.3,-.3,-4.8,.2,-7.1,-.2c1.7,-1.7,5.8,-1,6.2,-4.1c-1.2,1.3,-3,1.8,-4.6,2.2c-1.3,.4,-3.5,.4,-4.3,1.5c.4,.8,.4,1.7,.8,2.6c.9,2,2.9,3.1,4.2,4.8c.6,.8,1.3,1.8,1.7,2.7m98.5,111.4c-4.7,1.5,-9,4,-13.7,5.2c-5.5,1.5,-11,2.1,-16.6,2c-7.3,-.1,-14.6,-4.9,-19.3,-10.6c-2.6,-3,-5.1,-6.7,-5.7,-10.7c-.3,-1.7,-1.1,-3.3,-1,-5.1c.1,-3,.3,-6.3,.5,-9.4c-1.2,.1,-3.7,2.9,-4.7,3.7c-1.1,.8,-2.2,2,-3.1,2.7c.7,-1.3,2.6,-2.4,3.7,-3.4c1.6,-1.3,3,-2.7,4.4,-4.1c1.4,1.9,4.4,5.9,7,4.4" class="g0_135"/>
<path d="M232.7,652.7c.1,-3.7,14.7,-24.5,8.8,-26.2c-3,-.9,-7,4.6,-8.9,6.2c1.5,-1.3,2.7,-2.5,4.5,-3.3c1.7,-.7,4.4,-2.6,6.3,-2.2c.8,2.2,1.4,6.1,3.8,7.2" class="g1_135"/>
<path d="M278.3,368.5c0,5.8,2.1,11.7,1.3,17.5c-.6,5,-2.7,8.3,-2.4,13.4c-.8,-2.5,-2.1,-4.9,-4,-6.7c.2,2.9,3.3,3.5,2.8,6.9c3.7,.6,5.3,-2.6,7.7,-4.7c-1.8,.9,-3.7,2.1,-5.4,3.6M400.1,364.7c-11.1,7.3,-10.2,22.6,-4.2,32.6c-3.5,.7,-5.6,-1.8,-8.6,-2.6c3.7,.1,6.9,.6,10.1,1.1c.3,-3.1,.2,-5.9,2.9,-8.1c-2,3,-3,7.2,-2.7,10.8" class="g0_135"/>
<path d="M144,856.2v56.1H285.1V856.2H144Z" class="g2_135"/>
<path d="M187.1,900l-.9,-.2l.3,.7l7.5,1l-5.3,-4.6l-.6,.4l-.4,.4l-.2,.5l-.3,.5l-.1,.9v.4Z" class="g3_135"/>
<path d="M176.4,888.8v0l.9,1.1l.8,1.1l.3,.7l.3,.8l.2,.7l.1,.7v.7l-.3,.7l-.3,.6l-.7,.7l-.8,.5l-1.1,.4l10.4,2.3l-.3,-1l-.1,-.9l.2,-.8l.2,-.5l.2,-.5l.3,-.3l.3,-.2l1.7,1.3l-3.6,-3.7l-2.7,-3l-1.1,-1.4l-.6,-1.1l-.2,.3l-.2,.3l-.3,.3l-.5,.3l-.7,.2h-1.1l-1.3,-.3Z" class="g4_135"/>
<path d="M186.2,899.8l.9,.2v-.4l.1,-.9l.3,-.5l.2,-.5l.4,-.4l.6,-.4L187,895.6l-.3,.2l-.3,.3l-.2,.5l-.2,.5l-.2,.8l.1,.9l.3,1Z" class="g5_135"/>
<path d="M153.9,879.4v0l1.9,1.2l2,1.1l3.8,2.5l3.7,2.8l3.5,2.8l3.1,2.4l2.3,2.1l2.1,1.8l-.3,.4l.7,-.6l.5,-.7l.3,-.8l.1,-.8l-.1,-.7l-.2,-.8l-.2,-.7l-.4,-.8l-.9,-1.4l-.7,-1l-1,-1l.9,.3l1.1,.3l1.1,.2h1l1.7,-.2l.8,-.1l-1.5,-.4l-1.4,-.6l-3.1,-1.5l-3.2,-1.6l-3.3,-2.1l-3.1,-1.9l-2.9,-1.9L158,874.6l-1.2,.5l-.8,.5l-.7,.6l-.6,.5l-.4,.8l-.2,.6l-.1,.7l-.1,.6Z" class="g6_135"/>
<path d="M175.6,897.5v0h.2h-.2Z" class="g6_135"/>
<path d="M176,896.5v0l-.4,1h.2l1.1,-.4l.8,-.5l.7,-.7l.3,-.6l.3,-.7v-.7l-.1,-.7l-.2,-.7l-.3,-.8l-.3,-.7l-.8,-1.1l-.9,-1.1l1.3,.3h1.1l.7,-.2l.5,-.3l.3,-.3l.2,-.3l.2,-.3l-.8,.1l-1.7,.2h-1l-1.1,-.2l-1.1,-.3l-.9,-.3l1,1l.7,1l.9,1.4l.4,.8l.2,.7l.2,.8l.1,.7l-.1,.8l-.3,.8l-.5,.7l-.7,.6Z" class="g7_135"/>
<path d="M145.5,871.7v0l-.3,.7l-.1,.5l.1,.6v.5l.2,1l.4,.6l.5,.6l.5,.4l.6,.4l1.1,.2l-.1,-.9l.1,-.7l.2,-.7l.2,-.7l.2,-.5l.3,-.5l.8,-.8l.8,-.7l.8,-.4l.6,-.2l.6,-.2l-.8,-.8l-.6,-.3l-.7,-.4l-.7,-.3h-.8l-1,.1l-1,.3l-.6,.4l-.5,.5l-.4,.6l-.4,.7Z" class="g8_135"/>
<path d="M150.2,877.7v0l1.8,.8v-1.3l.2,-.7l.4,-.7l.6,-.7l.8,-.6l1.2,-.5l1.4,-.4l1.4,1l.5,-.1l-.3,-.4L157.1,873l-.7,-.6l-.9,-.6l-1.1,-.5l-1.2,-.4H153l.4,.8l-.7,.2l-.5,.2l-.5,.3l-.4,.3l-.4,.5l-.3,.3l-.3,1l-.2,.9l-.1,.9l.1,.7l.1,.7Z" class="g9_135"/>
<path d="M152,878.5v0l1.9,.9l.1,-.6l.1,-.7l.2,-.6l.4,-.8l.6,-.5l.7,-.6l.8,-.5l1.2,-.5l-1.4,-1l-1.4,.4l-1.2,.5l-.8,.6l-.6,.7l-.4,.7l-.2,.7v1.3Z" class="ga_135"/>
<path d="M148.5,877.2v0l1.7,.5l-.1,-.7l-.1,-.7l.1,-.9l.2,-.9l.3,-1l.3,-.3l.4,-.5l.4,-.3l.5,-.3l.5,-.2l.7,-.2l-.4,-.8l-.6,.2l-.6,.2l-.8,.4l-.8,.7l-.8,.8l-.3,.5l-.2,.5l-.2,.7l-.2,.7l-.1,.7l.1,.9Z" class="gb_135"/>
<path d="M174.6,897.3l.1,-.1l-.1,.1Z" class="gc_135"/>
<path d="M174.7,897.2v0l.4,.5l.5,-.2l-.9,-.3Z" class="gd_135"/>
<path d="M154.2,881v0l1.6,.8l1.6,1l3.2,2.2l3.3,2.4l2.9,2.5l2.7,2.4l2.3,2.1l2.9,2.8l.7,-.2l.6,-.5l.3,-.4l-2.1,-1.8l-2.3,-2.1l-3.1,-2.4L165.3,887l-3.7,-2.8l-3.8,-2.5l-2,-1.1l-1.9,-1.2l.1,.9l.2,.7Z" class="g7_135"/>
<path d="M174.7,897.2l.9,.3l.4,-1l-.6,.5l-.7,.2Z" class="g7_135"/>
<path d="M145.6,870.5v0l-.8,2.1l-.6,2.2l.1,.7l.5,.6l.4,.5l.5,.5l.6,.5l.8,.5l.7,.1l.9,.3l-.2,-1.3l-1.1,-.2l-.6,-.4l-.5,-.4l-.5,-.6l-.4,-.6l-.2,-1v-.5l-.1,-.6l.1,-.5l.3,-.7l.4,-.7l.4,-.6l.5,-.5l.6,-.4l-1.1,.5l-.7,.5Z" class="ge_135"/>
<path d="M155.1,882.9v0l-.4,-.5l-.3,-.7l-.2,-.7l-1.8,-.9l-.2,-.5l-.1,-.4l-.1,-.7l-1.8,-.8l.2,.7l-.9,.2l-.8,-.1l.1,.6l.6,.6l.5,.6l.8,.7l.9,.6l1.1,.6l1.1,.5l.6,.1l.7,.1Z" class="gf_135"/>
<path d="M152.4,880.1v0l1.8,.9l-.2,-.7l-.1,-.9l-1.9,-.9l.1,.7l.1,.4l.2,.5Z" class="gg_135"/>
<path d="M150.2,877.7v0l-1.7,-.5l.2,1.3l.8,.1l.9,-.2l-.2,-.7Z" class="gh_135"/>
<path clip-path="url(#c0_135)" d="M144.2,874.8v0l.6,-2.2l.8,-2.1l-.5,.5l-.3,.5l-.4,.5l-.2,.5l-.1,.7l-.1,.5v.6l.2,.5Z" class="gi_135"/>
<path d="M173.3,897v0l-4.7,-3.7l-4.8,-3.8l-4.9,-3.6l-2.5,-1.6l-2.6,-1.6l-.1,.4l1.2,.7l1.4,.9l2.5,1.7l4.9,3.7l4.8,3.6l2.3,1.8l2.3,1.9v-.1l.2,-.3Z" class="gj_135"/>
<path d="M179.6,885.1v0l-5.3,-2.5L169,880l-2.7,-1.4l-2.5,-1.3l-2.6,-1.6l-2.5,-1.6l-.2,.4l2.5,1.6l2.5,1.5l2.6,1.5l2.6,1.3l5.4,2.6l5.3,2.6l.2,-.5Z" class="gj_135"/>
<path d="M155.1,884v0l-.7,-.8l-.4,-.9l-.3,-.9l-.1,-1.1v-1.2L154,878l.4,-1.1l.4,-.4l.4,-.4l.9,-.7l.9,-.5l1,-.4l1.1,-.4l-.2,-.4l-1.1,.4l-1,.3l-1.1,.7l-.9,.7l-.4,.5l-.4,.5l-.4,1.1l-.5,1.2v1.3l.2,1.1l.2,1l.6,1l.4,.4l.3,.4l.3,-.3Z" class="gj_135"/>
<path d="M151.8,881.4v0l-.3,-.8l-.4,-.8V879l-.3,-.8l.1,-.9l.1,-.8l.2,-.8l.3,-.8l.4,-.7l.4,-.6l.6,-.5l.6,-.5l.8,-.4l.8,-.2l.7,-.2l.8,.1v-.5h-.8l-1,.2l-.7,.3l-.8,.3l-.6,.4l-.7,.7l-.6,.6l-.4,.8l-.2,.8l-.3,.9v1.8l.1,.8l.2,.9l.2,.8l.5,.9l.3,-.2Z" class="gj_135"/>
<path d="M150,879.4v0l-.4,-1.2v-2.4l.2,-1.2l.3,-.8l.3,-.6l.5,-.6l.4,-.5l.7,-.4l.5,-.4l1.4,-.7l-.3,-.5l-1.4,.8l-.6,.4l-.6,.5l-.5,.5l-.4,.6l-.4,.7l-.3,.7l-.2,1.3l-.1,1.3l.1,1.4l.3,1.3l.5,-.2Z" class="gj_135"/>
<path d="M156.4,872.3v0l-1.6,-1.2l-1.4,-1.4l-.3,.3l1.5,1.4l1.5,1.2l.3,-.3Z" class="gj_135"/>
<path d="M152.8,881.2v0l-2,-1.1l-2,-1l-.2,.4l2,1l2,1.1l.2,-.4Z" class="gj_135"/>
<path d="M148.1,878.3v0l-1,-.6l-1.1,-.8l-.4,-.5l-.4,-.4l-.3,-.6l-.1,-.6l-.2,-1l.1,-.9l.2,-.9l.4,-.8l.7,-.7l.8,-.6l.7,-.5l.9,-.3l1,-.3l.9,.1l1,.2l.9,.3l.2,-.5l-1,-.3l-1,-.2l-1.1,.1l-1,.1l-1,.4l-.9,.5l-.8,.7l-.6,.8l-.3,.5l-.3,.6l-.2,.6l.1,.6l-.1,1.1l.3,1.2l.2,.5l.4,.6l.8,.8l.9,.6l1.1,.6l.2,-.4Z" class="gj_135"/>
<path d="M177.8,888.5v0L175,887l-2.8,-1.4l-2.7,-1.5l-2.7,-1.6l-5.2,-3.4l-5.1,-3.5l-.3,.5l5.3,3.4l5.2,3.4l2.6,1.6l2.7,1.6l2.8,1.4l2.8,1.4l.2,-.4Z" class="gj_135"/>
<image x="175" y="887" width="6" height="11" xlink:href="shade/1.png"/>
<path d="M181.5,887.9v0l-.9,.2l-1,.2l-2,.2v.5l2.1,-.3l1,-.1l1.1,-.3l-.3,-.4Z" class="gj_135"/>
<path d="M195.5,901.9v0l-4.8,-1.1l-5.1,-.8l-4.9,-.9l-5.1,-.7v.4l4.9,.7l5.1,.9l5,.9l4.8,1.2l.1,-.6Z" class="gj_135"/>
<path d="M195.7,901.4v0l-3.9,-3.5L188.2,894l-3.5,-3.8l-3.5,-4l-.3,.2l3.4,4.2l3.5,3.8l3.8,3.8l3.8,3.5l.3,-.3Z" class="gj_135"/>
<path d="M188.7,900.3v0l-.3,-.6l-.1,-.7l-.1,-.6l.1,-.7l.3,-.6l.3,-.6l.4,-.6l.5,-.4l-.2,-.4l-.6,.5l-.5,.6l-.4,.6l-.2,.8l-.2,.7l.1,.9l.2,.7l.3,.6l.4,-.2Z" class="gj_135"/>
<path d="M90.8,839.5h733" class="g0_135"/>
<g clip-path="url(#c1_135)">
<path d="M-4.5,13.7H-27.4m939.5,0H935M-4.5,1031.2H-27.4m939.5,0H935M13.7,-4.5V-27.4m0,1077v22.9m880,-1077V-27.4m0,1077v22.9" class="gk_135"/>
<path d="M-4.5,13.7H-27.4m939.5,0H935M-4.5,1031.2H-27.4m939.5,0H935M13.7,-4.5V-27.4m0,1077v22.9m880,-1077V-27.4m0,1077v22.9" class="gl_135"/>
</g>
</svg>