<?xml version="1.0" encoding="UTF-8" standalone="no"?>
<!DOCTYPE svg PUBLIC "-//W3C//DTD SVG 1.1//EN"
"http://www.w3.org/Graphics/SVG/1.1/DTD/svg11.dtd">
<svg viewBox="0 0 931 1096" version="1.1" xmlns="http://www.w3.org/2000/svg" xmlns:xlink="http://www.w3.org/1999/xlink">
<defs>
<style type="text/css"><![CDATA[
.g0_161{
fill: #C1E8FB;
}
.g1_161{
fill: #C0E8FB;
}
.g2_161{
fill: #BEE8FB;
}
.g3_161{
fill: #BDE7FB;
}
.g4_161{
fill: #BCE7FB;
}
.g5_161{
fill: #BBE6FB;
}
.g6_161{
fill: #BAE6FB;
}
.g7_161{
fill: #B9E6FB;
}
.g8_161{
fill: #B8E5FA;
}
.g9_161{
fill: #B7E5FA;
}
.ga_161{
fill: #B6E5FA;
}
.gb_161{
fill: #B4E4FA;
}
.gc_161{
fill: #B3E4FA;
}
.gd_161{
fill: #B2E3FA;
}
.ge_161{
fill: #B1E3FA;
}
.gf_161{
fill: #B0E3FA;
}
.gg_161{
fill: #AFE2FA;
}
.gh_161{
fill: #AEE2FA;
}
.gi_161{
fill: #ADE2FA;
}
.gj_161{
fill: #ABE1FA;
}
.gk_161{
fill: #AAE1FA;
}
.gl_161{
fill: #A9E0FA;
}
.gm_161{
fill: #A8E0F9;
}
.gn_161{
fill: #A7E0F9;
}
.go_161{
fill: #A6DFF9;
}
.gp_161{
fill: #A4DFF9;
}
.gq_161{
fill: #A3DFF9;
}
.gr_161{
fill: #A2DEF9;
}
.gs_161{
fill: #A1DEF9;
}
.gt_161{
fill: #A0DDF9;
}
.gu_161{
fill: #9FDDF9;
}
.gv_161{
fill: #9DDDF9;
}
.gw_161{
fill: #9CDCF9;
}
.gx_161{
fill: #9BDCF9;
}
.gy_161{
fill: #9ADCF9;
}
.gz_161{
fill: #98DBF9;
}
.g10_161{
fill: #97DBF8;
}
.g11_161{
fill: #96DAF8;
}
.g12_161{
fill: #95DAF8;
}
.g13_161{
fill: #92D9F8;
}
.g14_161{
fill: #91D9F8;
}
.g15_161{
fill: #90D9F8;
}
.g16_161{
fill: #8ED8F8;
}
.g17_161{
fill: #8DD8F8;
}
.g18_161{
fill: #8CD7F8;
}
.g19_161{
fill: #8BD7F8;
}
.g1a_161{
fill: #89D7F8;
}
.g1b_161{
fill: #88D6F8;
}
.g1c_161{
fill: #87D6F8;
}
.g1d_161{
fill: #85D6F7;
}
.g1e_161{
fill: #84D5F7;
}
.g1f_161{
fill: none;
stroke: #00AEEF;
stroke-width: 0.763;
stroke-linejoin: round;
}
.g1g_161{
fill: none;
stroke: #EE008C;
stroke-width: 0.916;
stroke-linejoin: round;
}
.g1h_161{
fill: #00AEEF;
}
.g1i_161{
fill: none;
stroke: #00AEEF;
stroke-width: 0.763;
stroke-miterlimit: 3;
}
.g1j_161{
fill: none;
stroke: #00AEEF;
stroke-width: 0.916;
stroke-linejoin: round;
}
.g1k_161{
fill: none;
stroke: #241F1F;
stroke-width: 0.611;
stroke-miterlimit: 3;
}
.g1l_161{
fill: #241F1F;
}
.g1m_161{
fill: none;
stroke: #241F1F;
stroke-width: 0.534;
stroke-miterlimit: 3;
}
.g1n_161{
fill: none;
stroke: #EE008C;
stroke-width: 0.534;
stroke-miterlimit: 3;
}
.g1o_161{
fill: #EE008C;
}
.g1p_161{
fill: none;
stroke: #241F1F;
stroke-width: 0.687;
stroke-miterlimit: 10;
}
.g1q_161{
fill: none;
stroke: #241F1F;
stroke-width: 0.481;
stroke-miterlimit: 10;
}
.g1r_161{
fill: none;
stroke: #00AEEF;
stroke-width: 0.763;
stroke-miterlimit: 10;
}
.g1s_161{
fill: none;
stroke: #EE008C;
stroke-width: 0.763;
stroke-linejoin: round;
}
.g1t_161{
fill: none;
stroke: #241F1F;
stroke-width: 0.763;
stroke-miterlimit: 3;
stroke-dasharray: 10,4;
}
.g1u_161{
fill: none;
stroke: #241F1F;
stroke-width: 0.763;
stroke-miterlimit: 3;
}
]]></style>
</defs>
<path d="M678.2,299.8c-12.9,3.1,-10.7,3.8,-16.8,10.7c-5.6,6.3,-9.9,15.3,-10.7,21.4c-.8,6.1,5.5,8.3,6.1,11.5c1.4,6.5,-4.5,7.6,-5.9,12.1c-.4,3.7,1.7,1.4,1.7,4.3c1.4,4.1,-.8,6.6,-.7,7.2c.2,2.1,7.8,3.3,8.4,5.4c-.6,3.8,-13,8.4,-10,13c1,1.5,18.7,2.8,18.7,2.8c.4,3.1,9.3,.5,11.5,1.8c5,2.8,8.4,-.6,10.5,2.4c-.4,2.7,-4.4,2.3,7.5,6c5.4,.9,16.4,4.6,21.3,6.8c5.3,2.5,14.6,2.3,23,.8c5.2,-1,10.7,-3,16.8,-6.9Z" class="g0_161"/>
<path d="M681.7,303.9c-12.1,2.8,-10,3.5,-15.7,9.9c-5.1,5.8,-9.2,14.3,-9.9,19.9c-.7,5.7,1.8,7.1,2.4,10.1c1.3,6,-1,7.7,-2.2,11.9c-1.1,4.4,.6,6.5,.8,10.7c.2,3.2,3,3.6,3.6,5.5c1,3.9,-2.5,5.7,.3,9c2.1,2.5,9.6,3.1,12.1,5.2c2.1,1.6,10.9,2,13.1,2.7c7.2,2.2,3.3,3.3,14.3,6.7c5.1,.9,15.3,4.3,19.9,6.4c4.9,2.2,13.5,2.1,21.3,.7c4.9,-.9,9.9,-2.8,15.6,-6.4Z" class="g0_161"/>
<path d="M681.8,304c-12,2.9,-9.9,3.6,-15.6,9.9c-5.1,5.8,-9.2,14.3,-9.9,19.9c-.7,5.6,1.9,7,2.5,10c1.2,6,-1.1,7.6,-2.3,11.9c-1.2,4.4,.6,6.5,.9,10.6c.2,3.2,2.9,3.7,3.5,5.6c1,3.9,-2.5,5.6,.3,8.9c2.1,2.5,9.6,3.1,12.1,5.2c2,1.6,10.8,1.9,13.1,2.6c7.1,2.3,3,4.1,14.2,6.7c5,1.2,15.2,4.3,19.8,6.4c4.9,2.3,13.4,2.1,21.2,.7c4.9,-.9,9.9,-2.8,15.6,-6.4Z" class="g1_161"/>
<path d="M682,304.2c-12,2.8,-9.9,3.5,-15.6,9.9c-5.1,5.8,-9.1,14.1,-9.8,19.7c-.7,5.7,1.8,7.1,2.4,10c1.2,6,-1.1,7.6,-2.2,11.9c-1.2,4.3,.6,6.5,.8,10.6c.2,3.1,3,3.6,3.5,5.6c1,3.8,-2.5,5.6,.3,8.9c2.1,2.4,9.6,3,12.1,5c2,1.7,10.8,2,13,2.7c7.1,2.2,3,4,14.1,6.7c5,1.2,15.2,4.2,19.8,6.3c4.8,2.3,13.4,2.1,21.1,.7c4.9,-.9,9.9,-2.8,15.6,-6.3Z" class="g2_161"/>
<path d="M682.1,304.4c-11.9,2.8,-9.8,3.5,-15.5,9.8c-5.1,5.8,-9.1,14.1,-9.8,19.7c-.7,5.6,1.8,7,2.4,10c1.3,5.9,-1.1,7.5,-2.2,11.7c-1.2,4.4,.6,6.5,.9,10.6c.2,3.2,2.9,3.7,3.4,5.6c1,3.9,-2.5,5.6,.3,8.9c2.1,2.4,9.6,3,12.1,5c2,1.7,10.7,2,12.9,2.6c7.1,2.3,3.1,4.1,14.1,6.7c5,1.2,15.1,4.2,19.7,6.3c4.8,2.3,13.3,2.1,21.1,.7c4.8,-.8,9.8,-2.8,15.4,-6.3Z" class="g3_161"/>
<path d="M682.3,304.6c-11.9,2.8,-9.8,3.5,-15.4,9.8c-5.1,5.7,-9.1,14,-9.8,19.6c-.7,5.6,1.8,7,2.4,9.9c1.2,5.9,-1.1,7.5,-2.2,11.7c-1.2,4.4,.6,6.5,.8,10.6c.2,3.1,2.9,3.7,3.4,5.6c1.1,3.8,-2.5,5.5,.3,8.8c2,2.4,9.6,2.9,12.1,5c2,1.6,10.7,1.9,12.9,2.6c7,2.2,3,4,14,6.7c5,1.1,15.1,4.2,19.6,6.3c4.8,2.2,13.3,2.1,21,.7c4.8,-.9,9.8,-2.8,15.4,-6.3Z" class="g4_161"/>
<path d="M682.4,304.8c-11.8,2.7,-9.7,3.4,-15.3,9.7c-5.1,5.7,-9.1,14,-9.8,19.5c-.7,5.6,1.8,7,2.4,9.9c1.2,5.9,-1.1,7.5,-2.2,11.7c-1.2,4.3,.6,6.5,.9,10.5c.1,3.1,2.8,3.7,3.3,5.6c1.1,3.9,-2.5,5.5,.2,8.8c2.1,2.4,9.7,2.9,12.1,5c2,1.6,10.7,1.9,12.9,2.6c7,2.2,3,4,14,6.6c4.9,1.2,15,4.2,19.5,6.3c4.8,2.2,13.3,2.1,20.9,.7c4.8,-.9,9.8,-2.8,15.4,-6.3Z" class="g5_161"/>
<path d="M682.6,304.9c-11.8,2.8,-9.8,3.5,-15.3,9.8c-5.1,5.7,-9.1,13.9,-9.7,19.4c-.7,5.6,1.7,7,2.3,9.8c1.3,6,-1,7.5,-2.2,11.7c-1.1,4.3,.7,6.4,.9,10.5c.2,3.1,2.8,3.7,3.3,5.6c1.1,3.8,-2.6,5.5,.2,8.7c2.1,2.4,9.6,2.9,12.1,4.9c2,1.7,10.6,2,12.8,2.6c7,2.2,3,4,14,6.6c4.9,1.2,14.9,4.2,19.4,6.3c4.8,2.2,13.2,2.1,20.8,.7c4.8,-.9,9.8,-2.8,15.3,-6.3Z" class="g6_161"/>
<path d="M682.7,305.1c-11.7,2.8,-9.7,3.5,-15.2,9.7c-5.1,5.7,-9,13.9,-9.7,19.4c-.7,5.5,1.8,6.9,2.4,9.8c1.2,5.9,-1.1,7.4,-2.2,11.6c-1.2,4.3,.6,6.4,.8,10.4c.2,3.1,2.8,3.8,3.4,5.7c1,3.8,-2.7,5.4,.1,8.6c2.1,2.4,9.6,2.9,12.1,4.9c2,1.6,10.6,1.9,12.8,2.6c6.9,2.2,2.9,4,13.8,6.6c4.9,1.1,14.9,4.1,19.4,6.2c4.8,2.2,13.2,2.1,20.8,.7c4.7,-.9,9.7,-2.8,15.2,-6.2Z" class="g7_161"/>
<path d="M682.9,305.3c-11.7,2.8,-9.7,3.4,-15.2,9.7c-5,5.6,-9,13.8,-9.7,19.2c-.7,5.6,1.8,6.9,2.4,9.8c1.2,5.9,-1.1,7.5,-2.2,11.6c-1.1,4.2,.6,6.3,.9,10.4c.2,3.1,2.7,3.7,3.3,5.6c1,3.8,-2.7,5.4,.1,8.6c2,2.4,9.6,2.9,12.1,4.9c1.9,1.6,10.5,1.9,12.7,2.6c7,2.2,3,3.9,13.8,6.5c4.9,1.2,14.8,4.2,19.3,6.2c4.7,2.2,13.1,2.1,20.7,.7c4.7,-.9,9.6,-2.7,15.2,-6.2Z" class="g8_161"/>
<path d="M683,305.5c-11.6,2.7,-9.6,3.4,-15.1,9.6c-5,5.6,-8.9,13.8,-9.6,19.2c-.7,5.5,1.8,6.9,2.3,9.8c1.2,5.8,-1,7.4,-2.1,11.5c-1.2,4.2,.6,6.3,.8,10.3c.2,3.1,2.8,3.8,3.3,5.7c1,3.7,-2.7,5.3,.1,8.5c2,2.4,9.6,2.9,12.1,4.9c1.9,1.6,10.5,1.9,12.6,2.5c7,2.2,3,4,13.8,6.6c4.9,1.1,14.8,4.1,19.2,6.1c4.7,2.2,13.1,2.1,20.6,.7c4.8,-.8,9.6,-2.7,15.1,-6.2Z" class="g9_161"/>
<path d="M683.2,305.7c-11.6,2.7,-9.6,3.4,-15.1,9.5c-5,5.6,-8.9,13.8,-9.6,19.2c-.7,5.5,1.8,6.8,2.4,9.7c1.2,5.8,-1.1,7.4,-2.2,11.4c-1.1,4.3,.6,6.4,.9,10.4c.1,3,2.7,3.8,3.2,5.6c1,3.8,-2.7,5.4,.1,8.5c2,2.4,9.6,2.8,12,4.8c2,1.6,10.5,1.9,12.7,2.6c6.9,2.2,2.9,3.9,13.7,6.5c4.8,1.2,14.7,4.1,19.1,6.1c4.7,2.2,13,2.1,20.5,.7c4.8,-.8,9.6,-2.7,15.1,-6.1Z" class="ga_161"/>
<path d="M683.3,305.8c-11.6,2.8,-9.5,3.5,-15,9.6c-5,5.6,-8.9,13.7,-9.5,19.1c-.7,5.4,1.7,6.8,2.3,9.6c1.2,5.8,-1,7.4,-2.1,11.4c-1.2,4.2,.6,6.3,.8,10.3c.2,3.1,2.7,3.8,3.2,5.7c1,3.7,-2.7,5.3,0,8.5c2.1,2.3,9.7,2.7,12.1,4.7c2,1.6,10.4,1.9,12.6,2.6c6.9,2.1,2.9,3.9,13.7,6.4c4.8,1.2,14.6,4.1,19,6.2c4.7,2.1,13,2,20.5,.7c4.7,-.9,9.5,-2.8,15,-6.2Z" class="gb_161"/>
<path d="M683.5,306c-11.6,2.7,-9.6,3.4,-15,9.5c-4.9,5.6,-8.8,13.6,-9.5,19c-.7,5.5,1.8,6.8,2.4,9.6c1.1,5.8,-1.1,7.4,-2.2,11.4c-1.1,4.2,.6,6.3,.8,10.2c.2,3.1,2.7,3.9,3.2,5.8c1,3.7,-2.7,5.2,0,8.4c2,2.3,9.7,2.7,12.1,4.7c1.9,1.6,10.4,1.9,12.5,2.5c6.9,2.2,2.9,3.9,13.6,6.5c4.8,1.1,14.6,4,19,6.1c4.7,2.1,12.9,2,20.4,.7c4.7,-.9,9.5,-2.8,14.9,-6.2Z" class="gc_161"/>
<path d="M683.6,306.2c-11.5,2.7,-9.5,3.4,-14.9,9.5c-4.9,5.5,-8.8,13.5,-9.4,18.9c-.7,5.4,1.7,6.8,2.3,9.6c1.2,5.7,-1.1,7.3,-2.2,11.3c-1.1,4.2,.6,6.3,.9,10.2c.2,3,2.6,3.9,3.1,5.7c1,3.7,-2.7,5.2,0,8.4c2,2.3,9.7,2.7,12.1,4.6c1.9,1.6,10.3,1.9,12.5,2.6c6.8,2.1,2.9,3.9,13.5,6.4c4.8,1.1,14.6,4.1,18.9,6.1c4.7,2.1,12.9,2,20.3,.7c4.7,-.9,9.5,-2.7,14.9,-6.1Z" class="gd_161"/>
<path d="M683.8,306.4c-11.5,2.7,-9.5,3.3,-14.9,9.4c-4.9,5.5,-8.7,13.5,-9.4,18.9c-.7,5.4,1.7,6.7,2.3,9.5c1.2,5.7,-1,7.3,-2.1,11.3c-1.1,4.2,.6,6.2,.8,10.1c.2,3.1,2.6,3.9,3.1,5.8c1,3.7,-2.7,5.2,0,8.3c2,2.3,9.7,2.7,12.1,4.6c1.9,1.6,10.3,1.9,12.4,2.6c6.8,2.1,2.9,3.8,13.5,6.3c4.8,1.2,14.5,4.1,18.9,6.1c4.6,2.2,12.7,2,20.2,.7c4.6,-.9,9.4,-2.7,14.8,-6.1Z" class="ge_161"/>
<path d="M683.9,306.6c-11.4,2.7,-9.4,3.3,-14.8,9.4c-4.9,5.5,-8.7,13.4,-9.3,18.7c-.7,5.4,1.7,6.7,2.3,9.5c1.1,5.7,-1.1,7.3,-2.2,11.3c-1.1,4.1,.6,6.2,.8,10.1c.2,3,2.6,3.9,3.2,5.7c.9,3.7,-2.8,5.2,-.1,8.3c2,2.3,9.7,2.6,12,4.6c2,1.6,10.3,1.9,12.4,2.5c6.8,2.1,2.9,3.9,13.5,6.4c4.7,1.1,14.4,4,18.8,6c4.6,2.2,12.7,2,20.1,.7c4.6,-.8,9.4,-2.7,14.7,-6Z" class="gf_161"/>
<path d="M684.1,306.7c-11.4,2.7,-9.4,3.4,-14.7,9.4c-4.9,5.5,-8.7,13.4,-9.4,18.7c-.7,5.3,1.7,6.7,2.3,9.5c1.2,5.7,-1,7.2,-2.1,11.2c-1.1,4.1,.6,6.1,.8,10c.2,3,2.6,4,3.1,5.8c1,3.6,-2.8,5.1,-.1,8.2c1.9,2.3,9.7,2.6,12,4.6c1.9,1.5,10.2,1.8,12.4,2.5c6.7,2.1,2.8,3.8,13.4,6.3c4.7,1.2,14.3,4,18.7,6c4.6,2.2,12.6,2,20,.7c4.6,-.8,9.4,-2.7,14.7,-6Z" class="gg_161"/>
<path d="M684.2,306.9c-11.3,2.7,-9.3,3.3,-14.6,9.3c-4.9,5.5,-8.7,13.4,-9.4,18.7c-.6,5.3,1.8,6.6,2.3,9.4c1.2,5.7,-1,7.2,-2.1,11.2c-1.1,4.1,.6,6.1,.8,10c.2,3,2.6,3.9,3.1,5.8c1,3.6,-2.8,5,-.2,8.1c2,2.3,9.7,2.6,12.1,4.5c1.9,1.6,10.2,1.9,12.3,2.6c6.7,2.1,2.8,3.8,13.3,6.3c4.7,1.1,14.3,4,18.7,6c4.5,2.1,12.6,2,19.9,.6c4.6,-.8,9.3,-2.6,14.7,-6Z" class="gh_161"/>
<path d="M684.4,307.1c-11.3,2.7,-9.3,3.3,-14.6,9.3c-4.9,5.4,-8.7,13.3,-9.3,18.5c-.7,5.4,1.7,6.7,2.3,9.4c1.1,5.7,-1.1,7.2,-2.1,11.1c-1.1,4.1,.5,6.2,.8,10c.2,3,2.5,4,3,5.8c1,3.6,-2.8,5.1,-.2,8.1c2,2.3,9.7,2.6,12.1,4.5c1.9,1.6,10.1,1.9,12.2,2.5c6.7,2.1,2.9,3.8,13.3,6.3c4.7,1.1,14.3,4,18.6,6c4.5,2.1,12.6,2,19.8,.6c4.6,-.8,9.3,-2.6,14.6,-5.9Z" class="gi_161"/>
<path d="M684.5,307.3c-11.2,2.6,-9.3,3.3,-14.5,9.2c-4.8,5.4,-8.6,13.3,-9.3,18.5c-.6,5.3,1.7,6.6,2.3,9.4c1.2,5.6,-1,7.1,-2.1,11c-1.1,4.1,.6,6.1,.8,10c.2,2.9,2.5,4,3,5.8c1,3.6,-2.8,5,-.2,8.1c2,2.2,9.7,2.5,12.1,4.4c1.9,1.5,10.1,1.8,12.2,2.5c6.6,2.1,2.8,3.7,13.2,6.2c4.7,1.2,14.2,4,18.5,6c4.5,2.1,12.5,2,19.8,.7c4.5,-.9,9.2,-2.7,14.5,-6Z" class="gj_161"/>
<path d="M684.7,307.5c-11.2,2.6,-9.3,3.2,-14.5,9.2c-4.8,5.4,-8.6,13.2,-9.2,18.4c-.7,5.2,1.7,6.6,2.2,9.3c1.2,5.6,-1,7.1,-2,11c-1.1,4.1,.5,6.1,.8,9.9c.1,3,2.4,4,2.9,5.8c1,3.6,-2.8,5,-.2,8.1c1.9,2.2,9.7,2.5,12.1,4.4c1.8,1.5,10,1.8,12.1,2.4c6.6,2.1,2.8,3.8,13.2,6.3c4.6,1.1,14.1,3.9,18.4,5.9c4.5,2.1,12.5,2,19.7,.7c4.5,-.9,9.2,-2.7,14.5,-6Z" class="gk_161"/>
<path d="M684.8,307.6c-11.1,2.7,-9.2,3.3,-14.4,9.2c-4.8,5.4,-8.5,13.2,-9.2,18.3c-.6,5.3,1.7,6.6,2.3,9.3c1.1,5.6,-1,7.1,-2.1,11c-1.1,4.1,.6,6.1,.8,9.9c.2,2.9,2.4,4,2.9,5.8c1,3.6,-2.8,4.9,-.2,8c1.9,2.2,9.7,2.4,12,4.3c1.9,1.6,10,1.9,12.1,2.5c6.6,2.1,2.8,3.8,13.2,6.2c4.6,1.1,14,4,18.3,5.9c4.5,2.1,12.4,2,19.6,.7c4.5,-.9,9.2,-2.6,14.4,-5.9Z" class="gl_161"/>
<path d="M685,307.8c-11.1,2.6,-9.2,3.3,-14.4,9.2c-4.8,5.3,-8.5,13,-9.1,18.2c-.7,5.2,1.6,6.5,2.2,9.3c1.1,5.5,-1,7,-2.1,10.9c-1,4,.6,6,.8,9.8c.2,3,2.5,4.1,2.9,5.9c1,3.5,-2.8,4.9,-.2,7.9c1.9,2.2,9.7,2.4,12,4.3c1.9,1.5,10,1.8,12,2.5c6.6,2,2.8,3.7,13.1,6.2c4.6,1.1,14.1,3.9,18.3,5.8c4.5,2.1,12.4,2,19.6,.7c4.4,-.8,9.1,-2.6,14.3,-5.9Z" class="gm_161"/>
<path d="M685.1,308c-11,2.6,-9.1,3.3,-14.3,9.1c-4.7,5.3,-8.4,13,-9.1,18.2c-.6,5.2,1.7,6.5,2.2,9.2c1.2,5.5,-1,7,-2,10.9c-1.1,4,.6,6,.8,9.8c.2,2.9,2.4,4,2.8,5.8c1,3.6,-2.8,4.9,-.2,7.9c1.9,2.2,9.7,2.4,12,4.3c1.8,1.5,9.9,1.8,12,2.4c6.5,2.1,2.8,3.8,13,6.2c4.6,1.1,14,3.9,18.2,5.8c4.5,2.1,12.3,2,19.5,.7c4.5,-.8,9.1,-2.6,14.3,-5.8Z" class="gn_161"/>
<path d="M685.3,308.2c-11,2.6,-9.1,3.2,-14.3,9c-4.7,5.3,-8.4,13,-9,18.2c-.7,5.1,1.6,6.4,2.2,9.1c1.1,5.5,-1,7,-2.1,10.9c-1,4,.6,5.9,.8,9.7c.2,2.9,2.4,4.1,2.9,5.9c.9,3.5,-3,4.8,-.4,7.8c1.9,2.2,9.8,2.4,12.1,4.3c1.8,1.5,9.9,1.8,11.9,2.4c6.5,2.1,2.8,3.7,13,6.1c4.6,1.1,13.9,3.9,18.1,5.9c4.4,2,12.3,1.9,19.4,.6c4.5,-.8,9.1,-2.6,14.2,-5.8Z" class="go_161"/>
<path d="M685.4,308.4c-10.9,2.5,-9,3.2,-14.2,9c-4.7,5.3,-8.4,12.9,-9,18c-.6,5.2,1.7,6.5,2.2,9.2c1.1,5.4,-1,6.9,-2,10.8c-1.1,3.9,.5,5.9,.8,9.7c.1,2.9,2.3,4.1,2.8,5.8c.9,3.6,-3,4.8,-.4,7.8c1.9,2.3,9.8,2.4,12.1,4.2c1.8,1.5,9.8,1.8,11.8,2.5c6.6,2,2.8,3.6,13,6.1c4.5,1.1,13.8,3.8,18,5.8c4.4,2,12.3,1.9,19.3,.6c4.5,-.8,9.1,-2.6,14.2,-5.8Z" class="gp_161"/>
<path d="M685.6,308.5c-10.9,2.6,-9,3.3,-14.2,9c-4.6,5.3,-8.3,12.9,-9,18c-.6,5.1,1.7,6.4,2.2,9.1c1.2,5.4,-.9,6.9,-2,10.7c-1.1,4,.6,6,.8,9.7c.2,2.9,2.3,4.1,2.8,5.9c.9,3.5,-3,4.7,-.4,7.7c1.9,2.3,9.8,2.4,12,4.2c1.9,1.5,9.9,1.8,11.9,2.4c6.5,2.1,2.7,3.7,12.8,6.1c4.6,1.1,13.8,3.9,18,5.8c4.4,2,12.2,1.9,19.3,.6c4.4,-.8,8.9,-2.5,14.1,-5.7Z" class="gq_161"/>
<path d="M685.7,308.7c-10.8,2.6,-9,3.2,-14.1,9c-4.6,5.2,-8.3,12.8,-8.9,17.9c-.7,5.1,1.6,6.3,2.2,9c1.1,5.4,-1,6.9,-2,10.7c-1.1,4,.5,5.9,.8,9.7c.1,2.8,2.2,4.1,2.7,5.9c.9,3.5,-3,4.7,-.4,7.7c1.9,2.2,9.8,2.2,12,4.1c1.8,1.5,9.8,1.8,11.8,2.4c6.5,2,2.8,3.6,12.8,6.1c4.5,1,13.8,3.8,17.9,5.7c4.4,2,12.2,1.9,19.2,.7c4.4,-.9,8.9,-2.6,14,-5.8Z" class="gr_161"/>
<path d="M685.9,308.9c-10.9,2.6,-9,3.2,-14.1,8.9c-4.6,5.2,-8.2,12.8,-8.9,17.8c-.6,5.1,1.7,6.4,2.2,9.1c1.1,5.4,-1,6.8,-2,10.6c-1.1,4,.6,5.9,.8,9.6c.2,2.9,2.2,4.2,2.7,5.9c1,3.5,-3,4.7,-.4,7.7c1.9,2.2,9.7,2.2,12,4.1c1.8,1.5,9.7,1.7,11.7,2.4c6.5,2,2.8,3.6,12.8,6c4.5,1.1,13.7,3.8,17.8,5.7c4.4,2.1,12.1,1.9,19.1,.7c4.4,-.8,8.9,-2.6,14,-5.8Z" class="gs_161"/>
<path d="M686,309.1c-10.8,2.5,-8.9,3.2,-14,8.9c-4.6,5.2,-8.2,12.7,-8.8,17.7c-.7,5.1,1.6,6.3,2.1,9c1.2,5.4,-.9,6.8,-2,10.6c-1,3.9,.6,5.9,.8,9.5c.2,2.9,2.3,4.2,2.7,6c1,3.4,-3,4.6,-.4,7.6c1.8,2.2,9.7,2.2,12,4c1.8,1.5,9.7,1.8,11.7,2.4c6.4,2,2.7,3.7,12.7,6c4.5,1.1,13.6,3.8,17.7,5.7c4.4,2.1,12.1,1.9,19,.7c4.4,-.8,8.9,-2.6,14,-5.7Z" class="gt_161"/>
<path d="M686.2,309.3c-10.8,2.5,-8.9,3.1,-13.9,8.8c-4.6,5.2,-8.3,12.7,-8.9,17.7c-.6,5,1.6,6.3,2.2,8.9c1.1,5.4,-1,6.8,-2,10.6c-1.1,3.9,.5,5.8,.8,9.5c.1,2.8,2.2,4.2,2.6,5.9c1,3.5,-3,4.6,-.5,7.6c1.9,2.2,9.8,2.2,12.1,4c1.8,1.5,9.6,1.8,11.6,2.4c6.4,2,2.7,3.6,12.7,6c4.4,1.1,13.5,3.8,17.6,5.7c4.4,2,12,1.8,19,.6c4.3,-.8,8.8,-2.5,13.8,-5.7Z" class="gu_161"/>
<path d="M686.3,309.5c-10.7,2.5,-8.8,3.1,-13.8,8.8c-4.6,5.1,-8.2,12.6,-8.8,17.5c-.7,5.1,1.6,6.3,2.1,8.9c1.1,5.4,-1,6.8,-2,10.6c-1,3.9,.6,5.8,.8,9.4c.2,2.9,2.2,4.3,2.7,6c.9,3.4,-3.1,4.6,-.6,7.5c1.9,2.2,9.8,2.2,12,4c1.8,1.5,9.7,1.7,11.6,2.3c6.4,2,2.7,3.6,12.6,6c4.5,1.1,13.6,3.8,17.6,5.7c4.4,2,12,1.9,18.9,.6c4.3,-.8,8.8,-2.5,13.8,-5.7Z" class="gv_161"/>
<path d="M686.5,309.6c-10.7,2.5,-8.8,3.2,-13.8,8.8c-4.6,5.1,-8.2,12.5,-8.8,17.5c-.6,5,1.6,6.3,2.2,8.9c1,5.3,-1,6.7,-2,10.5c-1.1,3.8,.5,5.8,.7,9.4c.2,2.8,2.2,4.2,2.7,6c.9,3.4,-3.1,4.5,-.6,7.4c1.9,2.2,9.8,2.1,12,4c1.8,1.4,9.6,1.7,11.6,2.3c6.3,2,2.7,3.6,12.5,6c4.5,1,13.5,3.7,17.5,5.6c4.3,2,11.9,1.9,18.8,.6c4.3,-.8,8.8,-2.5,13.8,-5.6Z" class="gw_161"/>
<path d="M686.6,309.8c-10.6,2.5,-8.7,3.1,-13.7,8.7c-4.6,5.1,-8.1,12.5,-8.7,17.5c-.7,5,1.6,6.2,2.1,8.8c1.1,5.3,-1,6.7,-2,10.5c-1,3.8,.6,5.7,.8,9.3c.2,2.8,2.1,4.3,2.6,6c.9,3.4,-3.1,4.5,-.6,7.4c1.8,2.2,9.8,2.1,12,3.9c1.8,1.5,9.5,1.8,11.5,2.4c6.3,2,2.7,3.5,12.5,5.9c4.4,1,13.4,3.7,17.4,5.6c4.3,2,11.9,1.9,18.7,.6c4.3,-.8,8.8,-2.5,13.8,-5.6Z" class="gx_161"/>
<path d="M686.8,310c-10.6,2.5,-8.8,3.1,-13.7,8.7c-4.5,5.1,-8.1,12.4,-8.7,17.3c-.6,5,1.6,6.3,2.1,8.8c1.1,5.3,-.9,6.7,-1.9,10.4c-1.1,3.9,.5,5.8,.7,9.4c.2,2.8,2.1,4.3,2.6,6c.9,3.4,-3.1,4.4,-.6,7.3c1.8,2.2,9.8,2.1,12,3.9c1.8,1.5,9.5,1.7,11.4,2.3c6.3,2,2.7,3.6,12.5,5.9c4.4,1.1,13.3,3.8,17.3,5.6c4.3,2,11.8,1.9,18.7,.6c4.2,-.7,8.6,-2.4,13.6,-5.5Z" class="gy_161"/>
<path d="M686.9,310.2c-10.5,2.4,-8.7,3.1,-13.6,8.6c-4.5,5.1,-8,12.4,-8.7,17.3c-.6,5,1.6,6.2,2.2,8.8c1.1,5.2,-1,6.6,-2,10.3c-1,3.9,.5,5.7,.8,9.3c.1,2.8,2,4.3,2.5,6c.9,3.4,-3.1,4.5,-.6,7.3c1.8,2.2,9.8,2.1,12,3.9c1.7,1.4,9.4,1.7,11.4,2.3c6.2,2,2.6,3.6,12.4,5.9c4.3,1,13.2,3.7,17.3,5.5c4.2,2,11.7,1.9,18.5,.6c4.3,-.7,8.6,-2.4,13.6,-5.5Z" class="gz_161"/>
<path d="M687.1,310.4c-10.5,2.4,-8.7,3,-13.6,8.6c-4.5,5,-8,12.3,-8.6,17.2c-.6,4.9,1.6,6.1,2.1,8.7c1.1,5.2,-.9,6.6,-1.9,10.3c-1.1,3.8,.5,5.7,.7,9.3c.2,2.8,2.1,4.3,2.5,6c.9,3.4,-3.1,4.4,-.7,7.3c1.9,2.1,9.9,2,12,3.8c1.8,1.4,9.5,1.7,11.4,2.3c6.2,1.9,2.6,3.5,12.3,5.8c4.4,1.1,13.3,3.7,17.3,5.6c4.2,1.9,11.6,1.8,18.4,.6c4.3,-.8,8.6,-2.5,13.6,-5.6Z" class="g10_161"/>
<path d="M687.2,310.5c-10.4,2.5,-8.6,3.1,-13.5,8.6c-4.5,5,-8,12.3,-8.6,17.2c-.6,4.9,1.6,6.1,2.1,8.6c1.1,5.3,-.9,6.7,-1.9,10.3c-1,3.8,.5,5.7,.8,9.2c.1,2.8,2,4.4,2.4,6.1c.9,3.3,-3.1,4.3,-.7,7.2c1.8,2.1,9.8,2,12,3.7c1.8,1.5,9.4,1.7,11.3,2.3c6.2,2,2.6,3.5,12.3,5.9c4.4,1,13.2,3.6,17.2,5.5c4.2,1.9,11.6,1.8,18.3,.6c4.3,-.8,8.6,-2.5,13.5,-5.5Z" class="g10_161"/>
<path d="M687.3,310.7c-10.3,2.4,-8.5,3.1,-13.4,8.5c-4.4,5,-7.9,12.3,-8.5,17.1c-.6,4.9,1.6,6.1,2.1,8.7c1,5.2,-1,6.6,-2,10.2c-1,3.8,.6,5.6,.8,9.2c.1,2.7,2,4.3,2.4,6c1,3.4,-3.1,4.3,-.7,7.2c1.8,2.1,9.8,1.9,12,3.7c1.8,1.4,9.3,1.7,11.3,2.3c6.1,1.9,2.6,3.5,12.2,5.8c4.3,1,13.1,3.7,17.1,5.5c4.2,1.9,11.6,1.8,18.3,.6c4.2,-.8,8.5,-2.4,13.4,-5.5Z" class="g11_161"/>
<path d="M687.5,310.9c-10.3,2.4,-8.5,3,-13.4,8.5c-4.4,5,-7.9,12.2,-8.5,17c-.6,4.9,1.6,6.1,2.1,8.6c1.1,5.2,-.9,6.6,-1.9,10.2c-1,3.7,.5,5.6,.7,9.1c.2,2.8,2,4.4,2.5,6.1c.9,3.3,-3.2,4.3,-.8,7.1c1.8,2.1,9.8,1.9,12,3.7c1.7,1.4,9.3,1.7,11.2,2.3c6.1,1.9,2.6,3.4,12.2,5.7c4.3,1.1,13,3.7,17,5.5c4.1,1.9,11.5,1.8,18.2,.6c4.2,-.8,8.5,-2.4,13.4,-5.5Z" class="g12_161"/>
<path d="M687.7,311.1c-10.3,2.4,-8.5,3,-13.4,8.4c-4.4,5,-7.8,12.2,-8.4,17c-.6,4.8,1.5,6,2,8.5c1.1,5.2,-.9,6.6,-1.9,10.2c-1,3.7,.6,5.6,.8,9.1c.1,2.7,1.9,4.4,2.4,6c.9,3.3,-3.2,4.3,-.8,7.1c1.8,2.1,9.8,1.9,12,3.7c1.7,1.4,9.2,1.6,11.1,2.2c6.1,1.9,2.6,3.5,12.1,5.8c4.3,1,13,3.6,17,5.4c4.1,1.9,11.5,1.8,18.1,.6c4.2,-.7,8.5,-2.4,13.3,-5.4Z" class="g13_161"/>
<path d="M687.8,311.3c-10.2,2.4,-8.4,3,-13.3,8.4c-4.4,4.9,-7.8,12.1,-8.4,16.8c-.6,4.9,1.6,6.1,2.1,8.6c1,5.1,-1,6.5,-1.9,10.1c-1,3.7,.5,5.5,.7,9c.2,2.7,1.9,4.4,2.4,6.1c.9,3.3,-3.3,4.2,-.8,7c1.7,2.1,9.8,1.9,11.9,3.6c1.8,1.4,9.3,1.7,11.2,2.3c6,1.9,2.5,3.4,12,5.7c4.3,1,13,3.6,16.9,5.4c4.1,1.9,11.4,1.8,18,.6c4.2,-.7,8.5,-2.4,13.3,-5.4Z" class="g14_161"/>
<path d="M687.9,311.4c-10.1,2.4,-8.4,3,-13.2,8.4c-4.3,4.9,-7.7,12,-8.3,16.8c-.7,4.8,1.5,6,2,8.5c1.1,5.1,-.9,6.5,-1.9,10c-1,3.8,.5,5.6,.7,9.1c.2,2.7,2,4.4,2.4,6.1c.9,3.2,-3.3,4.1,-.9,6.9c1.8,2.1,9.9,1.9,12,3.6c1.7,1.4,9.2,1.7,11.1,2.3c6,1.9,2.6,3.4,12,5.6c4.2,1.1,12.9,3.6,16.8,5.4c4.1,1.9,11.4,1.8,18,.6c4.1,-.7,8.4,-2.4,13.2,-5.4Z" class="g14_161"/>
<path d="M688.1,311.6c-10.1,2.4,-8.4,3,-13.1,8.4c-4.4,4.9,-7.8,11.9,-8.4,16.7c-.6,4.7,1.5,5.9,2,8.4c1.1,5.1,-.9,6.5,-1.8,10c-1,3.7,.5,5.5,.7,9c.2,2.7,1.9,4.5,2.3,6.1c.9,3.3,-3.3,4.2,-.9,6.9c1.8,2.1,9.9,1.8,12,3.6c1.7,1.4,9.1,1.6,11,2.2c6.1,1.9,2.6,3.4,12,5.7c4.2,1,12.8,3.6,16.7,5.4c4.1,1.8,11.3,1.8,17.9,.5c4.1,-.7,8.4,-2.3,13.1,-5.3Z" class="g15_161"/>
<path d="M688.2,311.8c-10.1,2.4,-8.3,3,-13,8.3c-4.4,4.9,-7.8,11.9,-8.4,16.6c-.6,4.8,1.6,6,2.1,8.5c1,5,-.9,6.4,-1.9,9.9c-1,3.7,.5,5.5,.7,9c.2,2.6,1.9,4.4,2.3,6.1c.9,3.2,-3.3,4.1,-.9,6.9c1.8,2,9.9,1.7,12,3.5c1.7,1.3,9.1,1.6,11,2.2c6,1.9,2.5,3.4,11.9,5.6c4.2,1,12.7,3.6,16.6,5.4c4.1,1.8,11.3,1.8,17.8,.6c4.1,-.8,8.3,-2.4,13.1,-5.4Z" class="g16_161"/>
<path d="M688.4,312c-10.1,2.3,-8.3,2.9,-13,8.3c-4.3,4.8,-7.7,11.8,-8.3,16.5c-.6,4.7,1.5,5.9,2,8.4c1.1,5,-.9,6.4,-1.9,9.9c-.9,3.7,.6,5.5,.8,8.9c.1,2.7,1.8,4.5,2.2,6.1c.9,3.3,-3.3,4.1,-.9,6.9c1.7,2,9.9,1.7,12,3.4c1.7,1.4,9,1.7,10.9,2.2c6,1.9,2.5,3.4,11.8,5.7c4.2,1,12.8,3.5,16.6,5.3c4.1,1.9,11.2,1.8,17.7,.6c4.1,-.8,8.3,-2.4,13.1,-5.4Z" class="g17_161"/>
<path d="M688.5,312.2c-10,2.3,-8.2,2.9,-12.9,8.2c-4.3,4.8,-7.7,11.8,-8.3,16.5c-.6,4.7,1.5,5.9,2.1,8.3c1,5,-1,6.4,-1.9,9.9c-1,3.6,.5,5.4,.7,8.9c.2,2.6,1.8,4.5,2.3,6.1c.8,3.2,-3.4,4,-1,6.8c1.7,2,9.9,1.7,12,3.4c1.6,1.4,9,1.6,10.8,2.2c6,1.9,2.5,3.4,11.8,5.6c4.2,1,12.7,3.5,16.5,5.3c4.1,1.9,11.2,1.8,17.7,.6c4,-.8,8.2,-2.4,12.9,-5.3Z" class="g18_161"/>
<path d="M688.7,312.3c-10,2.4,-8.2,3,-12.9,8.2c-4.3,4.8,-7.6,11.8,-8.2,16.5c-.6,4.6,1.5,5.8,2,8.3c1,4.9,-.9,6.3,-1.9,9.8c-.9,3.6,.5,5.4,.7,8.8c.2,2.6,1.8,4.6,2.3,6.2c.8,3.2,-3.4,4,-1,6.7c1.7,2,9.9,1.7,11.9,3.4c1.7,1.3,9,1.6,10.8,2.2c6,1.8,2.6,3.3,11.8,5.5c4.2,1,12.6,3.6,16.4,5.3c4,1.9,11.2,1.8,17.6,.6c4,-.7,8.2,-2.3,12.9,-5.3Z" class="g19_161"/>
<path d="M688.8,312.5c-9.9,2.3,-8.1,2.9,-12.8,8.2c-4.3,4.8,-7.6,11.7,-8.2,16.3c-.6,4.7,1.5,5.8,2,8.3c1,4.9,-.9,6.3,-1.8,9.8c-1,3.6,.5,5.4,.7,8.8c.1,2.6,1.7,4.5,2.2,6.1c.8,3.2,-3.4,4,-1.1,6.7c1.8,2,9.9,1.7,12,3.3c1.7,1.4,8.9,1.7,10.8,2.2c5.9,1.9,2.5,3.4,11.7,5.6c4.1,1,12.5,3.5,16.3,5.2c4,1.9,11.1,1.8,17.5,.6c4,-.7,8.2,-2.3,12.9,-5.2Z" class="g1a_161"/>
<path d="M689,312.7c-9.9,2.3,-8.2,2.9,-12.8,8.1c-4.2,4.8,-7.6,11.7,-8.1,16.3c-.6,4.6,1.5,5.8,2,8.2c1,5,-.9,6.3,-1.9,9.8c-.9,3.6,.5,5.3,.7,8.7c.2,2.6,1.7,4.6,2.2,6.2c.8,3.2,-3.4,3.9,-1.1,6.6c1.7,2,9.9,1.6,12,3.3c1.7,1.4,8.9,1.6,10.7,2.2c5.9,1.8,2.5,3.3,11.7,5.5c4.1,1,12.4,3.5,16.2,5.3c4,1.8,11.1,1.7,17.5,.5c4,-.7,8.1,-2.3,12.7,-5.2Z" class="g1b_161"/>
<path d="M689.1,312.9c-9.8,2.3,-8.1,2.9,-12.7,8.1c-4.2,4.7,-7.5,11.6,-8.1,16.1c-.6,4.7,1.5,5.8,2,8.3c1,4.9,-.9,6.2,-1.8,9.6c-1,3.6,.5,5.4,.7,8.7c.1,2.7,1.7,4.6,2.1,6.2c.9,3.2,-3.4,3.9,-1.1,6.6c1.7,2,9.9,1.6,12,3.3c1.6,1.3,8.8,1.6,10.6,2.2c5.9,1.8,2.5,3.3,11.6,5.5c4.1,.9,12.5,3.4,16.2,5.2c4,1.8,11,1.7,17.4,.5c4,-.7,8.1,-2.3,12.7,-5.2Z" class="g1c_161"/>
<path d="M689.3,313.1c-9.8,2.2,-8.1,2.8,-12.7,8c-4.2,4.7,-7.5,11.6,-8,16.1c-.6,4.6,1.4,5.8,1.9,8.2c1,4.9,-.9,6.2,-1.8,9.6c-1,3.6,.5,5.3,.7,8.7c.2,2.6,1.7,4.6,2.1,6.2c.9,3.1,-3.4,3.9,-1.1,6.5c1.7,2,9.9,1.6,12,3.3c1.6,1.3,8.8,1.6,10.6,2.1c5.8,1.9,2.4,3.3,11.5,5.5c4.1,1,12.4,3.4,16.1,5.2c4,1.8,11,1.7,17.3,.6c4,-.8,8.1,-2.4,12.7,-5.2Z" class="g1d_161"/>
<path d="M689.4,313.2c-9.7,2.3,-8,2.9,-12.6,8c-4.1,4.8,-7.4,11.5,-8,16.1c-.6,4.6,1.5,5.7,2,8.1c1,4.9,-.8,6.2,-1.8,9.6c-.9,3.6,.5,5.3,.7,8.6c.1,2.6,1.6,4.7,2,6.3c.9,3.1,-3.4,3.8,-1.1,6.5c1.7,1.9,9.9,1.5,12,3.1c1.6,1.4,8.7,1.6,10.5,2.2c5.8,1.8,2.6,2.7,11.5,5.4c4.1,.8,12.3,3.5,16,5.2c4,1.8,10.9,1.7,17.2,.6c4,-.8,8,-2.3,12.6,-5.2Z" class="g1e_161"/>
<path d="M678.3,299.8c-13,3.1,-10.8,3.8,-16.9,10.7c-5.6,6.3,-9.9,15.3,-10.7,21.4c-.8,6.1,5.5,8.3,6.1,11.5c1.4,6.5,-4.5,7.6,-5.9,12.1c-.4,3.7,1.7,1.4,1.7,4.3c1.4,4.1,-.8,6.6,-.7,7.2c.2,2.1,7.8,3.3,8.4,5.4c-.6,3.8,-13,8.4,-10,13c1,1.5,18.7,2.8,18.7,2.8c.4,3.1,9.3,.5,11.5,1.8c5,2.8,8.4,-.6,10.5,2.4c-.4,2.7,-4.4,2.3,7.5,6c5.4,.9,16.4,4.6,21.3,6.8c5.3,2.5,14.6,2.3,23,.8c5.2,-1,10.7,-3,16.8,-6.9" class="g1f_161"/>
<path d="M649.1,293.1L644,389.2l102.8,29.5L649.1,293.1Z" class="g1g_161"/>
<path d="M714.7,639.1c0,-1,.7,-1.8,1.7,-1.8c.9,0,1.7,.8,1.7,1.8c0,.9,-.8,1.7,-1.7,1.7c-1,0,-1.7,-.8,-1.7,-1.7Z" class="g1h_161"/>
<path d="M714.7,639.1c0,-1,.7,-1.8,1.7,-1.8c.9,0,1.7,.8,1.7,1.8c0,.9,-.8,1.7,-1.7,1.7c-1,0,-1.7,-.8,-1.7,-1.7Z" class="g1i_161"/>
<path d="M696.3,611.6c0,-1,.8,-1.8,1.8,-1.8c.9,0,1.7,.8,1.7,1.8c0,.9,-.8,1.7,-1.7,1.7c-1,0,-1.8,-.8,-1.8,-1.7Z" class="g1h_161"/>
<path d="M696.3,611.6c0,-1,.8,-1.8,1.8,-1.8c.9,0,1.7,.8,1.7,1.8c0,.9,-.8,1.7,-1.7,1.7c-1,0,-1.8,-.8,-1.8,-1.7Z" class="g1i_161"/>
<path d="M615.6,694.1l82.5,-82.5m0,0l18.3,27.5m-100.8,55l100.8,-55v55H615.6Z" class="g1j_161"/>
<path d="M589.6,694.1h26" class="g1k_161"/>
<path fill-rule="evenodd" d="M795.8,694.1l-1.6,-2.5l6.5,2.5l-6.5,2.4Z" class="g1l_161"/>
<path d="M615.6,712.4V596.3" class="g1k_161"/>
<path fill-rule="evenodd" d="M615.6,596.3l-2.5,1.6l2.5,-6.5l2.4,6.5Z" class="g1l_161"/>
<path d="M716.4,686.4h-7.6v7.7" class="g1m_161"/>
<path d="M656.4,676.8c2.9,4.2,4.2,10.5,4.2,17.3" class="g1n_161"/>
<path d="M654.6,674.1l3.8,2.6l-2,.1l-.8,1.8Z" class="g1o_161"/>
<path d="M635.6,679.4c2.9,4,4,8.9,4,14.7" class="g1n_161"/>
<path d="M633.7,676.7l3.9,2.5l-2,.2l-.7,1.8Z" class="g1o_161"/>
<path d="M716.4,694.1h79.4" class="g1k_161"/>
<path d="M579.5,831.4h13.4m148.7,0H755" class="g1p_161"/>
<path d="M684.9,948.9h4.8" class="g1q_161"/>
<path d="M109.4,148.7H476.1m-366.7,136H476.1M109.4,445.1H476.1M109.4,556.7H476.1M109.4,766H476.1" class="g1r_161"/>
<path d="M210.3,173.6h4.8m73.8,0h4.8M180.8,511.2h4.8" class="g1q_161"/>
<path d="M214.6,648.8h13.3m-66.8,48.9h11m55.4,0h13.3m199,39.7h13.3" class="g1p_161"/>
<path d="M221.5,978.9l41.3,-85.2l85,85.2H221.5Z" class="g1s_161"/>
<path d="M347.8,978.9h47.9" class="g1k_161"/>
<path fill-rule="evenodd" d="M395.7,978.9l-1.6,-2.5l6.5,2.5l-6.5,2.4Z" class="g1l_161"/>
<path d="M221.5,1001.8V876.5" class="g1k_161"/>
<path fill-rule="evenodd" d="M221.5,876.5l-2.4,1.6l2.4,-6.5l2.5,6.5Z" class="g1l_161"/>
<path d="M262.8,972.7h-6.1v5.8" class="g1m_161"/>
<path d="M262.8,978.9V893.7" class="g1t_161"/>
<path d="M346.1,978.9c0,-1,.7,-1.8,1.7,-1.8c.9,0,1.7,.8,1.7,1.8c0,.9,-.8,1.7,-1.7,1.7c-1,0,-1.7,-.8,-1.7,-1.7Z" class="g1l_161"/>
<path d="M346.1,978.9c0,-1,.7,-1.8,1.7,-1.8c.9,0,1.7,.8,1.7,1.8c0,.9,-.8,1.7,-1.7,1.7c-1,0,-1.7,-.8,-1.7,-1.7Z" class="g1u_161"/>
<path d="M261.1,893.7c0,-1,.7,-1.7,1.7,-1.7c.9,0,1.7,.7,1.7,1.7c0,.9,-.8,1.7,-1.7,1.7c-1,0,-1.7,-.8,-1.7,-1.7Z" class="g1l_161"/>
<path d="M261.1,893.7c0,-1,.7,-1.7,1.7,-1.7c.9,0,1.7,.7,1.7,1.7c0,.9,-.8,1.7,-1.7,1.7c-1,0,-1.7,-.8,-1.7,-1.7Z" class="g1u_161"/>
<path d="M184.9,978.9h36.6" class="g1k_161"/>
</svg>