<?xml version="1.0" encoding="UTF-8" standalone="no"?>
<!DOCTYPE svg PUBLIC "-//W3C//DTD SVG 1.1//EN"
"http://www.w3.org/Graphics/SVG/1.1/DTD/svg11.dtd">
<svg viewBox="0 0 907 1045" version="1.1" xmlns="http://www.w3.org/2000/svg" xmlns:xlink="http://www.w3.org/1999/xlink">
<defs>
<clipPath id="c0_159"><path d="M296.7,606.8V542.3h78.4l-12.4,18.2l.9,.6l12.9,-18.8h55.2v64.5Z"/></clipPath>
<clipPath id="c1_159"><path d="M363.6,561.1l-.9,-.6l12.4,-18.2h1.4l-12.9,18.8Z"/></clipPath>
<clipPath id="c2_159"><path d="M487.9,605.5V540.9h24.6l13.8,20.2l.9,-.6L513.9,540.9H622.8v64.6Z"/></clipPath>
<clipPath id="c3_159"><path d="M526.3,561.1L512.5,540.9h1.4l13.3,19.6l-.9,.6Z"/></clipPath>
<clipPath id="c4_159"><path d="M457.5,464.8l2,-1.4l1,1.4Zm-28.1,0l1,-1.4l2,1.4Zm-47.2,0V375.7H517.1v89.1H461.9l-1.4,-2l5.8,-4l1.2,-.8l-1.4,-.3l-10.9,-1.8l-.6,-.1l-.1,.6l-1.3,8.4H436.7l-1.3,-8.4l-.1,-.6l-.6,.1l-10.9,1.8l-1.4,.3l1.2,.8l5.8,4l-1.4,2Z"/></clipPath>
<clipPath id="c5_159"><path d="M460.5,464.8l-1,-1.4l1,-.6l1.4,2Z"/></clipPath>
<clipPath id="c6_159"><path d="M428,464.8l1.4,-2l1,.6l-1,1.4Z"/></clipPath>
<clipPath id="c7_159"><path d="M434.5,464.8l-9.1,-6.2l8.9,-1.5l1.2,7.7Z"/></clipPath>
<clipPath id="c8_159"><path d="M432.4,464.8l-2,-1.4l.3,-.5l2.8,1.9Zm3.7,0l-1.3,-8.3l-10.9,1.8l5.8,4l-.3,.5l-5.8,-4l-1.2,-.8l1.4,-.3l10.9,-1.8l.6,-.1l.1,.6l1.3,8.4Z"/></clipPath>
<clipPath id="c9_159"><path d="M430.4,463.4l-1,-.6l.3,-.5l1,.6l-.3,.5Z"/></clipPath>
<clipPath id="ca_159"><path d="M433.5,464.8l-2.8,-1.9l-1,-.6l-5.8,-4l10.9,-1.8l1.3,8.3h-.6l-1.2,-7.7l-8.9,1.5l9.1,6.2Z"/></clipPath>
<clipPath id="cb_159"><path d="M454.4,464.8l1.2,-7.7l8.9,1.5l-9.1,6.2Z"/></clipPath>
<clipPath id="cc_159"><path d="M456.4,464.8l2.8,-1.9l.3,.5l-2,1.4Zm-3.2,0l1.3,-8.4l.1,-.6l.6,.1l10.9,1.8l1.4,.3l-1.2,.8l-5.8,4l-.3,-.5l5.8,-4l-10.9,-1.8l-1.3,8.3Z"/></clipPath>
<clipPath id="cd_159"><path d="M459.5,463.4l-.3,-.5l1,-.6l.3,.5l-1,.6Z"/></clipPath>
<clipPath id="ce_159"><path d="M453.8,464.8l1.3,-8.3l10.9,1.8l-5.8,4l-1,.6l-2.8,1.9h-1l9.1,-6.2l-8.9,-1.5l-1.2,7.7Z"/></clipPath>
<clipPath id="cf_159"><path d="M-2.6,1047.7V-2.6H910.2V1047.7Z"/></clipPath>
<style type="text/css"><![CDATA[
.g0_159{
}
.g1_159{
fill: #FFFFFF;
}
.g2_159{
fill: #D8D8D8;
}
.g3_159{
fill: none;
stroke: #D8D8D8;
stroke-width: 1.527;
stroke-linecap: butt;
stroke-linejoin: bevel;
stroke-miterlimit: 12;
}
.g4_159{
fill: none;
stroke: #000000;
stroke-width: 0.492;
stroke-linecap: butt;
stroke-linejoin: miter;
stroke-miterlimit: 4;
}
.g5_159{
fill: none;
stroke: #000000;
stroke-width: 0.656;
stroke-linecap: butt;
stroke-linejoin: miter;
stroke-miterlimit: 4;
}
.g6_159{
fill: none;
stroke: #636363;
stroke-width: 1.527;
stroke-linecap: butt;
stroke-linejoin: bevel;
stroke-miterlimit: 12;
}
.g7_159{
fill: none;
stroke: #FFFFFF;
stroke-width: 1.909;
stroke-linecap: butt;
stroke-linejoin: miter;
}
.g8_159{
fill: none;
stroke: #000000;
stroke-width: 0.381;
stroke-linecap: butt;
stroke-linejoin: miter;
}
]]></style>
</defs>
<path d="M526.3,561.1L458.4,461.7l.9,-.7l67.9,99.5l-.9,.6Z" class="g0_159"/>
<path d="M363.6,561.1l67.9,-99.4l-.9,-.7l-67.9,99.5l.9,.6Z" class="g0_159"/>
<path d="M434.8,456.5l-10.9,1.8l12.5,8.5l-1.6,-10.3Z" class="g1_159"/>
<path d="M434.8,456.5l-.1,-.6l-10.9,1.8l-1.4,.3l1.2,.8l12.4,8.5l1.1,.8l-.2,-1.4l-1.5,-10.3l-.1,-.6l-.6,.1l.1,.6l-.5,.1l1.5,10.3l.6,-.1l.3,-.5l-12.5,-8.5l-.3,.5l.1,.6L434.9,457l-.1,-.5l-.5,.1l.5,-.1Z" class="g0_159"/>
<path d="M455.1,456.5l10.9,1.8l-12.5,8.5l1.6,-10.3Z" class="g1_159"/>
<path d="M455.1,456.5l.1,-.6l10.9,1.8l1.4,.3l-1.2,.8l-12.4,8.5l-1.1,.8l.2,-1.4l1.5,-10.3l.1,-.6l.6,.1l-.1,.6l.5,.1l-1.5,10.3l-.6,-.1l-.3,-.5l12.5,-8.5l.3,.5l-.1,.6L455,457l.1,-.5l.5,.1l-.5,-.1Z" class="g0_159"/>
<path d="M148.3,726c-10.7,1.9,-21.3,8.1,-29,15.9c-4,4.1,-4.7,7.1,-4.8,12.7c-.1,6.6,.9,12.5,3.4,18.7c2.5,6.1,5.8,11.8,9.1,17.5c4.7,8.1,7.5,16.7,9.7,25.8c3.5,15.2,2.6,28.4,-2.7,43c-2.6,7.2,-6.3,13.3,-9.9,20c-5.4,10.2,-8.3,20.6,-9.5,32.1c-2.1,18.8,5.5,41.7,26.4,45.5c9.9,1.8,21.3,-.4,30.3,-4.8c12.8,-6.2,21.2,-18.7,33.4,-25.9c14.4,-8.4,31.7,-13.1,48.4,-12.6c4.5,.2,9,.6,13.5,1.3c10.1,1,20.2,1,30.3,1.2c14.2,.4,28.6,.7,42.8,-.6c16.4,-1.5,35.1,-2.6,46.9,-15.7c11.4,-12.8,11.3,-33,3.4,-47.7c-2.7,-5,-5.9,-10.4,-3.1,-16.2c1.8,-2.5,3.8,-5,5.9,-7.3c3.2,-4.6,3.7,-9.3,3.5,-14.8C395.5,789,384.5,763.3,366.4,746C354.9,735,341.6,725.9,327.5,718.4C320.9,714.6,314,711.8,306.6,710c-13.4,-3.4,-27.3,-3.1,-41,-4.8c-8.3,-1,-16.3,-1.8,-24.8,-.9c-7,1,-13.9,2.4,-20.7,4.1c-7,1.7,-14.9,3.1,-21.5,6.2c-7,3.3,-12.6,9.2,-19.9,11.9c-5.1,1.8,-10.6,2.8,-16,2.6c-4.8,-.2,-9.2,-1.8,-13.8,-2.5Z" class="g2_159"/>
<path d="M148.3,726c-10.7,1.9,-21.3,8.1,-29,15.9c-4,4.1,-4.7,7.1,-4.8,12.7c-.1,6.6,.9,12.5,3.4,18.7c2.5,6.1,5.8,11.8,9.1,17.5c4.7,8.1,7.5,16.7,9.7,25.8c3.5,15.2,2.6,28.4,-2.7,43c-2.6,7.2,-6.3,13.3,-9.9,20c-5.4,10.2,-8.3,20.6,-9.5,32.1c-2.1,18.8,5.5,41.7,26.4,45.5c9.9,1.8,21.3,-.4,30.3,-4.8c12.8,-6.2,21.2,-18.7,33.4,-25.9c14.4,-8.4,31.7,-13.1,48.4,-12.6c4.5,.2,9,.6,13.5,1.3c10.1,1,20.2,1,30.3,1.2c14.2,.4,28.6,.7,42.8,-.6c16.4,-1.5,35.1,-2.6,46.9,-15.7c11.4,-12.8,11.3,-33,3.4,-47.7c-2.7,-5,-5.9,-10.4,-3.1,-16.2c1.8,-2.5,3.8,-5,5.9,-7.3c3.2,-4.6,3.7,-9.3,3.5,-14.8C395.5,789,384.5,763.3,366.4,746C354.9,735,341.6,725.9,327.5,718.4C320.9,714.6,314,711.8,306.6,710c-13.4,-3.4,-27.3,-3.1,-41,-4.8c-8.3,-1,-16.3,-1.8,-24.8,-.9c-7,1,-13.9,2.4,-20.7,4.1c-7,1.7,-14.9,3.1,-21.5,6.2c-7,3.3,-12.6,9.2,-19.9,11.9c-5.1,1.8,-10.6,2.8,-16,2.6c-4.8,-.2,-9.2,-1.8,-13.8,-2.5" class="g3_159"/>
<path d="M541.4,711.6c-11.9,2,-23.6,8.3,-32.1,16.2c-4.5,4.1,-5.3,7.2,-5.4,12.9c0,6.7,1,12.7,3.8,18.9c2.8,6.2,6.4,12,10.1,17.7c5.2,8.3,8.3,17,10.7,26.2c3.9,15.4,3,28.8,-2.9,43.6c-2.9,7.3,-7,13.5,-11,20.2c-6.1,10.4,-9.2,20.9,-10.6,32.6c-2.3,19,6.1,42.2,29.3,46.1c10.9,1.8,23.6,-.4,33.6,-4.8c14.2,-6.4,23.5,-19,37.1,-26.3c15.9,-8.6,35.1,-13.3,53.6,-12.8c5,.2,10,.6,15,1.3c11.2,1,22.4,1.1,33.6,1.3c15.8,.3,31.7,.7,47.5,-.7c18.2,-1.5,38.9,-2.6,52,-15.9c12.7,-12.9,12.5,-33.5,3.8,-48.3c-3,-5,-6.5,-10.5,-3.5,-16.4c2.1,-2.6,4.3,-5.1,6.6,-7.4c3.5,-4.7,4.1,-9.4,3.9,-15c-.9,-25.5,-13.2,-51.5,-33.2,-69C770.6,720.8,755.8,711.6,740.2,704c-7.3,-3.8,-15.1,-6.7,-23.3,-8.5c-14.8,-3.5,-30.3,-3.1,-45.4,-4.9c-9.2,-1,-18.1,-1.8,-27.5,-.9c-7.7,1.1,-15.4,2.4,-22.9,4.2c-7.9,1.7,-16.6,3.1,-23.9,6.3c-7.8,3.3,-14,9.2,-22.1,12c-5.6,1.9,-11.8,2.9,-17.7,2.7c-5.4,-.2,-10.3,-1.9,-15.3,-2.6Z" class="g2_159"/>
<path d="M541.4,711.6c-11.9,2,-23.6,8.3,-32.1,16.2c-4.5,4.1,-5.3,7.2,-5.4,12.9c0,6.7,1,12.7,3.8,18.9c2.8,6.2,6.4,12,10.1,17.7c5.2,8.3,8.3,17,10.7,26.2c3.9,15.4,3,28.8,-2.9,43.6c-2.9,7.3,-7,13.5,-11,20.2c-6.1,10.4,-9.2,20.9,-10.6,32.6c-2.3,19,6.1,42.2,29.3,46.1c10.9,1.8,23.6,-.4,33.6,-4.8c14.2,-6.4,23.5,-19,37.1,-26.3c15.9,-8.6,35.1,-13.3,53.6,-12.8c5,.2,10.1,.6,15,1.3c11.2,1,22.4,1.1,33.6,1.3c15.8,.3,31.7,.7,47.5,-.7c18.2,-1.5,38.9,-2.6,52,-15.9c12.7,-12.9,12.5,-33.5,3.8,-48.3c-3,-5,-6.5,-10.5,-3.5,-16.4c2.1,-2.6,4.3,-5.1,6.6,-7.4c3.5,-4.7,4.1,-9.4,3.9,-15c-.9,-25.5,-13.2,-51.5,-33.2,-69C770.6,720.8,755.8,711.6,740.2,704c-7.3,-3.8,-15.1,-6.7,-23.3,-8.5c-14.8,-3.5,-30.3,-3.1,-45.4,-4.9c-9.2,-1,-18.1,-1.8,-27.5,-.9c-7.7,1.1,-15.4,2.4,-22.9,4.2c-7.9,1.7,-16.6,3.1,-23.9,6.3c-7.8,3.3,-14,9.2,-22.1,12c-5.6,1.9,-11.8,2.9,-17.7,2.7c-5.4,-.2,-10.3,-1.9,-15.3,-2.6" class="g3_159"/>
<image clip-path="url(#c0_159)" preserveAspectRatio="none" x="296" y="542" width="136" height="65" xlink:href="img/1.jpg"/>
<image clip-path="url(#c1_159)" preserveAspectRatio="none" x="362" y="542" width="15" height="19" xlink:href="img/2.jpg"/>
<path d="M302.5,548.1v44.2H417.3V548.1H302.5Z" class="g1_159"/>
<path d="M302.5,548.1v44.2H417.3V548.1H302.5Z" class="g4_159"/>
<image clip-path="url(#c2_159)" preserveAspectRatio="none" x="488" y="541" width="135" height="65" xlink:href="img/3.jpg"/>
<image clip-path="url(#c3_159)" preserveAspectRatio="none" x="512" y="541" width="15" height="20" xlink:href="img/4.jpg"/>
<path d="M493.7,546.7V591H608.5V546.7H493.7Z" class="g1_159"/>
<path d="M493.7,546.7V591H608.5V546.7H493.7Z" class="g4_159"/>
<path d="M493.6,563.3h116m-307.1,1.3H418.4" class="g5_159"/>
<path d="M242.4,554.5c7.9,-1.1,13.1,-6.9,20.8,-8.6c5,-1,10.1,.5,15.1,-.3c-.8,-1.6,-2.4,-2.8,-3.4,-4.4c1.5,1.1,4.9,2.8,5.8,4.3c1.5,.3,2.1,1.1,1.7,2.4c-1.4,1.8,-2.8,3.6,-4,5.5M182,679.7c-2.4,9.6,-2.1,20.4,5.9,27c-2.7,.5,-6,0,-8.1,-1.9c2.9,-.5,6.7,2.7,9.1,4c-.7,-1.6,-1.1,-3.7,0,-5.2M653.6,542.3c-5,-12,-14.8,-17.8,-27.8,-19c-8.6,-.8,-19.9,.6,-21,11.1c-.5,-1.4,-.9,-2.8,-1.5,-4.2c-.8,1.7,-.8,4.5,-.2,6.8c2.1,0,3.9,-1,6,-1.1m89,93.9c0,16.6,2,34.1,-8.4,48.1c-.2,-1.7,0,-3.5,-1,-5.1c-.7,3.2,-.6,6.9,.5,9.8c.1,-2.4,2.2,-3.7,4.6,-3.5" class="g6_159"/>
<image clip-path="url(#c4_159)" preserveAspectRatio="none" x="382" y="375" width="135" height="90" xlink:href="img/5.jpg"/>
<image clip-path="url(#c5_159)" preserveAspectRatio="none" x="459" y="462" width="3" height="3" xlink:href="img/6.jpg"/>
<image clip-path="url(#c6_159)" preserveAspectRatio="none" x="428" y="462" width="3" height="3" xlink:href="img/7.jpg"/>
<image clip-path="url(#c7_159)" preserveAspectRatio="none" x="425" y="457" width="11" height="8" xlink:href="img/8.jpg"/>
<image clip-path="url(#c8_159)" preserveAspectRatio="none" x="422" y="455" width="15" height="10" xlink:href="img/9.jpg"/>
<image clip-path="url(#c9_159)" preserveAspectRatio="none" x="429" y="462" width="2" height="2" xlink:href="img/10.jpg"/>
<image clip-path="url(#ca_159)" preserveAspectRatio="none" x="424" y="456" width="12" height="9" xlink:href="img/11.jpg"/>
<image clip-path="url(#cb_159)" preserveAspectRatio="none" x="454" y="457" width="11" height="8" xlink:href="img/12.jpg"/>
<image clip-path="url(#cc_159)" preserveAspectRatio="none" x="453" y="455" width="15" height="10" xlink:href="img/13.jpg"/>
<image clip-path="url(#cd_159)" preserveAspectRatio="none" x="459" y="462" width="2" height="2" xlink:href="img/14.jpg"/>
<image clip-path="url(#ce_159)" preserveAspectRatio="none" x="453" y="456" width="13" height="9" xlink:href="img/15.jpg"/>
<path d="M388,381.5v68.6H502.8V381.5H388Z" class="g1_159"/>
<path d="M388,381.5v68.6H502.8V381.5H388Z" class="g4_159"/>
<path d="M387.9,404.2h116" class="g5_159"/>
<path d="M553.3,367.7c-2.1,-2.3,-5.7,-1.4,-8.1,-.3c-1.6,.7,-3.5,1.6,-4.9,2.7c-2.1,1.8,-3.3,4.7,-4.3,7.2c-1.3,3.5,-1,6.9,-1.1,10.5c0,1.2,-.4,2.3,-.4,3.5c0,1.7,-.2,3.4,-.6,5.1c-.7,2.5,-2.8,4.9,-4.8,6.4c-1.5,1.1,-3.4,2.3,-5.1,2.9c-1.2,.5,-2.5,.3,-3.7,.6c-.4,.1,-1.4,.7,-1.8,.5c.4,-1.3,1.9,-2.3,2.6,-3.4c.3,-.5,.6,-1.2,.7,-1.8c-1,1.8,-1.5,4,-2.9,5.6c1.8,-.1,3.1,1.3,5,1.2" class="g6_159"/>
<g clip-path="url(#cf_159)">
<path d="M-4.5,13.7H-27.4m939.5,0H935M-4.5,1031.2H-27.4m939.5,0H935M13.7,-4.5V-27.4m0,1077v22.9m880,-1077V-27.4m0,1077v22.9" class="g7_159"/>
<path d="M-4.5,13.7H-27.4m939.5,0H935M-4.5,1031.2H-27.4m939.5,0H935M13.7,-4.5V-27.4m0,1077v22.9m880,-1077V-27.4m0,1077v22.9" class="g8_159"/>
</g>
</svg>