<?xml version="1.0" encoding="UTF-8" standalone="no"?>
<!DOCTYPE svg PUBLIC "-//W3C//DTD SVG 1.1//EN"
"http://www.w3.org/Graphics/SVG/1.1/DTD/svg11.dtd">
<svg viewBox="0 0 907 1045" version="1.1" xmlns="http://www.w3.org/2000/svg" xmlns:xlink="http://www.w3.org/1999/xlink">
<defs>
<clipPath id="c0_506"><path d="M-2.6,1047.7V-2.6H910.2V1047.7Z"/></clipPath>
<style type="text/css"><![CDATA[
.g0_506{
fill: none;
stroke: #000000;
stroke-width: 1.527;
stroke-linecap: butt;
stroke-linejoin: miter;
stroke-miterlimit: 4;
}
.g1_506{
fill: #FFFFFF;
}
.g2_506{
fill: none;
stroke: #636363;
stroke-width: 1.527;
stroke-linecap: butt;
stroke-linejoin: miter;
stroke-miterlimit: 4;
}
.g3_506{
fill: none;
stroke: #FFFFFF;
stroke-width: 1.909;
stroke-linecap: butt;
stroke-linejoin: miter;
}
.g4_506{
fill: none;
stroke: #000000;
stroke-width: 0.381;
stroke-linecap: butt;
stroke-linejoin: miter;
}
]]></style>
</defs>
<path d="M91.1,126V952.6H815.5V126H91.1Z" class="g0_506"/>
<path d="M137.1,141v59.8H371.5V141H137.1Z" class="g1_506"/>
<path d="M94.9,112.3v59.8H326.8V112.3H94.9Z" class="g1_506"/>
<path d="M520.9,417.8c.7,-3.6,-2.8,-8.5,-5.2,-10.6c-3,-2.8,-6.4,-6.3,-10.3,-7.8c-2.8,-1.1,-6.2,-2.2,-9.3,-2.8c-1.9,-.3,-4.6,.5,-6,-1.1c.9,-.3,1.9,-.4,2.9,-.5c0,0,4.3,-1,4.8,-.9c-2.3,0,-6.6,-.1,-8.3,1.8c1.5,2.8,5.9,2.1,7.4,4.5m26.4,28.7c-2.8,3.1,-5.4,6.2,-8.4,9.2c-3.6,3.5,-8.8,8,-13.8,9.6c-2.4,.7,-4.4,1.3,-6.9,1.6c-1,.1,-2.2,-.2,-2.8,.7c.2,-1.6,2.2,-6.8,1.2,-7.8c-.9,1.5,-1.3,3.4,-2.1,4.9c-.3,.5,-2.4,3.3,-2,4c1,2,7.2,.9,9.2,.9M511.4,542c-.9,-4.2,-3.8,-5.7,-7.1,-8c-1.6,-1.2,-3.1,-2.6,-4.9,-3.6c-2.1,-1.1,-4.6,-1.5,-6.8,-2.6c-2.1,-1,-4.5,-1.2,-6.8,-1.7c-1.8,-.4,-3.9,-1,-5.7,-1c-.1,-1.6,3.8,-2.4,5.1,-2.2c-1.5,-.4,-11.3,3.1,-10.9,4.2c2.9,.3,6,0,8.9,0m16.4,33.4c-1.6,1.9,-2.8,4.1,-4.3,6c-3,3.9,-6.2,6.3,-10.5,8.4c-4.1,2,-10.1,4.9,-14.8,4.5c1.7,-.8,5.1,-6,4.5,-7.7c-1,.4,-1.6,1.7,-2.1,2.4c-1.1,1.4,-2.1,2.9,-3.2,4.3c-.5,.6,-1,1.4,-1.4,2.1c.1,3.5,6.6,.3,8.2,0c0,.1,0,.3,0,.4m220.7,90.2c-3.2,-2.6,-6.6,-5.1,-10.4,-6.8c-3.1,-1.4,-5.9,-3.3,-9.4,-3.5c-2.5,-.2,-4.7,-1.2,-7.3,-1.2c-1.7,0,-3.8,.4,-5.4,-.1c.5,-.8,1.1,-.6,2,-1.1c1.5,-.7,3,-2.2,4.9,-1.9c-1.8,-.1,-3.9,.8,-5.6,1.3c-1.2,.4,-4.4,1,-4.8,2.4c.9,.8,4.3,.7,5,.8c1.6,.2,3.7,.8,5.4,.6m68.6,25.5c2,5.3,3.2,11.6,3.5,17.2c.4,5.9,-.7,13.1,-5.4,17.1c-2,1.7,-4.5,2.2,-6.7,3.3c-2.9,1.3,-5.5,3.2,-8.4,4.5c-2.1,.9,-4.2,1.5,-6.4,2.2c-1.1,.4,-2.2,1.1,-3.4,1.1c.7,-.6,3.5,-7.3,1.7,-7.3c-1.8,0,-1.2,6.9,-1.1,7.9c1,.4,2.4,.1,3.4,-.1c2.4,-.4,4.5,-.6,6.9,-.6" class="g2_506"/>
<g clip-path="url(#c0_506)">
<path d="M-4.5,13.7H-27.4m939.5,0H935M-4.5,1031.2H-27.4m939.5,0H935M13.7,-4.5V-27.4m0,1077v22.9m880,-1077V-27.4m0,1077v22.9" class="g3_506"/>
<path d="M-4.5,13.7H-27.4m939.5,0H935M-4.5,1031.2H-27.4m939.5,0H935M13.7,-4.5V-27.4m0,1077v22.9m880,-1077V-27.4m0,1077v22.9" class="g4_506"/>
</g>
</svg>