<?xml version="1.0" encoding="UTF-8" standalone="no"?>
<!DOCTYPE svg PUBLIC "-//W3C//DTD SVG 1.1//EN"
"http://www.w3.org/Graphics/SVG/1.1/DTD/svg11.dtd">
<svg viewBox="0 0 931 1096" version="1.1" xmlns="http://www.w3.org/2000/svg" xmlns:xlink="http://www.w3.org/1999/xlink">
<defs>
<clipPath id="c0_18"><path d="M287.2,186.9V168.8H425v18.1Z"/></clipPath>
<clipPath id="c1_18"><path d="M84.3,989.9c-5.8,0,-10.5,-4.7,-10.5,-10.4V856c0,-5.7,4.7,-10.4,10.5,-10.4H207.7c5.8,0,10.5,4.7,10.5,10.4V979.5c0,5.7,-4.7,10.4,-10.5,10.4Z"/></clipPath>
<style type="text/css"><![CDATA[
.g0_18{
fill: none;
stroke: #241F1F;
stroke-width: 0.763;
stroke-miterlimit: 10;
}
.g1_18{
fill: none;
stroke: #00AEEF;
stroke-width: 1.145;
}
.g2_18{
fill: #D0007A;
}
.g3_18{
fill: none;
stroke: #EE008C;
stroke-width: 0.916;
stroke-miterlimit: 3;
}
.g4_18{
fill: none;
stroke: #00AEEF;
stroke-width: 0.916;
stroke-linecap: round;
stroke-miterlimit: 3;
}
.g5_18{
fill: none;
stroke: #00AEEF;
stroke-width: 0.534;
stroke-miterlimit: 3;
}
.g6_18{
fill: none;
stroke: #241F1F;
stroke-width: 0.534;
stroke-miterlimit: 3;
}
.g7_18{
fill: none;
stroke: #00AEEF;
stroke-width: 0.763;
stroke-linejoin: round;
}
.g8_18{
fill: none;
stroke: #241F1F;
stroke-width: 0.611;
stroke-miterlimit: 3;
}
.g9_18{
fill: #241F1F;
}
]]></style>
</defs>
<path clip-path="url(#c0_18)" d="M341.4,169.2h84" class="g0_18"/>
<path d="M390.7,228.3H502.2m29.9,0H643.7m30.8,0H786.1" class="g0_18"/>
<path d="M307.7,398.1c0,0,-1.6,0,-1.6,1.5v14.2c0,0,0,1.5,1.6,1.5h14.1c0,0,1.5,0,1.5,-1.5V399.6c0,0,0,-1.5,-1.5,-1.5H307.7Z" class="g1_18"/>
<path d="M557.7,407.1h32.8M526,581.2h12.2m53.6,0h32.8" class="g0_18"/>
<path d="M288.8,662.6c0,0,-1.6,0,-1.6,1.5v9.2c0,0,0,1.5,1.6,1.5h9.1c0,0,1.6,0,1.6,-1.5v-9.2c0,0,0,-1.5,-1.6,-1.5Z" class="g2_18"/>
<path d="M477.9,963.2h19m29.9,0h19" class="g0_18"/>
<g clip-path="url(#c1_18)">
<path d="M76.6,918.1H215m-138.4,11c6.5,1.6,17.9,7.8,17.9,18.2c0,11.7,-10.3,24.1,-17.9,33.6m0,-38.2c2.5,2.8,5.3,8.3,5.3,11.1c0,5.8,-2.5,12,-5.3,17.1m69.2,-15.6c-24.9,0,-49.9,19.9,-63.2,32.2m63.2,-22.2c-23.2,0,-42.6,11.9,-57.2,22.2m57.2,-15.3c-22.2,0,-37.7,8,-50.3,15.6m50.3,-9.9c-15.6,0,-29,3.5,-42.3,9.9m42.3,-5.3c-9.9,0,-24.2,2.5,-32,5.7M215,929.1c-6.4,1.6,-17.9,7.8,-17.9,18.2c0,11.7,10.3,24.1,17.9,33.6m0,-38.2c-2.5,2.8,-5.3,8.3,-5.3,11.1c0,5.8,2.5,12,5.3,17.1m0,16.3L76.6,848.8m69.2,106.5c24.9,0,50,19.9,63.3,32.2M145.8,965.3c23.3,0,42.7,11.9,57.3,22.2M145.8,972.2c22.3,0,37.7,8,50.3,15.6m-50.3,-9.9c15.6,0,29.1,3.5,42.3,9.9m-42.3,-5.3c10,0,24.3,2.5,32.1,5.7M76.6,906.8c6.5,-1.6,17.9,-7.8,17.9,-18.2C94.5,877,84.2,864.5,76.6,855.1m0,38.1c2.5,-2.8,5.3,-8.3,5.3,-11.1c0,-5.8,-2.5,-11.9,-5.3,-17.1m69.2,15.6c-24.9,0,-49.9,-19.9,-63.2,-32.2m63.2,22.2c-23.2,0,-42.6,-11.9,-57.2,-22.2m57.2,15.3c-22.2,0,-37.7,-8,-50.3,-15.6m50.3,9.9c-15.6,0,-29,-3.4,-42.3,-9.9m42.3,5.3c-9.9,0,-24.2,-2.5,-32,-5.7M215,906.8c-6.4,-1.6,-17.9,-7.8,-17.9,-18.2c0,-11.6,10.3,-24.1,17.9,-33.5m0,38.1c-2.5,-2.8,-5.3,-8.3,-5.3,-11.1c0,-5.8,2.5,-11.9,5.3,-17.1m0,-16.2L76.6,987.2M145.8,880.6c24.9,0,50,-19.9,63.3,-32.2m-63.3,22.2c23.3,0,42.7,-11.9,57.3,-22.2m-57.3,15.3c22.3,0,37.7,-8,50.3,-15.6M145.8,858c15.6,0,29.1,-3.4,42.3,-9.9m-42.3,5.3c10,0,24.3,-2.5,32.1,-5.7" class="g3_18"/>
<path d="M188.6,868.9l6.2,6.2m-19.3,-1.3l-.3,2.4m-1.8,-1.4l2.1,-1m-.3,2.4l-1.8,-1.4m-1.7,-6.9l3.5,8.3m-18.7,-1.7l-.7,2m-1.3,-1.7l2,-.3m-.7,2l-1.3,-1.7m0,-7.6l1.3,9.3m-18.2,-1.7l-1.4,1.7m-.7,-2l2.1,.3m-1.4,1.7l-.7,-2m2.1,-7.3l-1.4,9.3m-17.6,-1.7l-2.1,1.4m0,-2.4l2.1,1m-2.1,1.4v-2.4m3.8,-5.9l-3.8,8.3M99.3,874.5l-2.1,.6m.3,-2l1.8,1.4m-2.1,.6l.3,-2m5.9,-4.2l-6.2,6.2m-17.3,-1l-2.4,-.3m1.4,-2.1l1,2.4m-2.4,-.3l1.4,-2.1m7.3,-1.4l-8.7,3.5m133.9,15.1h1.4m-.7,1.4l-.7,-1.4m1.4,0l-.7,1.4m-4.5,1.4l5.2,-2.8M192.7,890l1.1,.3m-1.1,.7v-1m1.1,.3l-1.1,.7m-2.7,-.7h3.8m-19.3,.4v.7m-.7,0l.7,-.7m0,.7h-.7m-1.4,-2.1l2.1,2.1M155.8,891l-.3,1.1m-.7,-.7l1,-.4m-.3,1.1l-.7,-.7m0,-2.8l.7,3.5m-18.6,-.7l-.4,.7m-.3,-1.1l.7,.4m-.4,.7l-.3,-1.1m1,-2.4l-.7,3.5m-18.3,-.7h-.7m0,-.7l.7,.7m-.7,0v-.7m2.1,-1.4l-2.1,2.1M99.3,891l-1.1,-.7m1.1,-.3v1m-1.1,-.7l1.1,-.3m2.7,.3H98.2m-18.3,0l-.6,-1.4m1.3,0l-.7,1.4m-.6,-1.4h1.3m3.8,2.8l-5.1,-2.8m130.7,18l1,-1.1m.4,1.4l-1.4,-.3m1,-1.1l.4,1.4m-2.1,4.2l1.7,-5.6m-19.3,1.8l.7,-.4m0,.7l-.7,-.3m.7,-.4v.7M191,910l1.4,-2.8m-19,1.1h.4m0,.3l-.4,-.3m.4,0v.3m-.7,.4l.7,-.7m-55.6,.3v-.3m0,0v.3m.7,.4l-.7,-.7m-18.6,-.4v-.7m.7,.4l-.7,.3m0,-.7l.7,.4m.7,2.4l-1.4,-2.8m-19,0l.4,-1.4m1,1.1l-1.4,.3m.4,-1.4l1,1.1m.7,4.5L81,905.8m128,19.7l.3,-1.4m1,1.1l-1.3,.3m.3,-1.4l1,1.1m.7,4.5l-1.7,-5.6M191,926.2v-.7m.7,.3l-.7,.4m0,-.7l.7,.3m.7,2.5L191,925.5m-17.9,1.4v-.3m.3,0l-.3,.3m0,-.3h.3m.4,.6l-.7,-.6m-54.5,0h.3m0,.3l-.3,-.3m.3,0v.3m-.7,.3l.7,-.6m-18.6,-.8l.7,-.3m0,.7l-.7,-.4m.7,-.3v.7m-1.4,2.1l1.4,-2.8m-19.3,-.3l1,-1.1m.3,1.4l-1.3,-.3m1,-1.1l.3,1.4m-2,4.2l1.7,-5.6m125.6,21.1l-.7,-1.4m1.4,0l-.7,1.4m-.7,-1.4H209m3.8,2.8l-5.2,-2.8m-16.9,2.1l-.7,-.4m.7,-.7v1.1m-.7,-.4l.7,-.7m3.1,.4l-3.8,.3m-16.9,.7h-.7m0,-.7l.7,.7m-.7,0v-.7m2.1,-1.4l-2.1,2.1m-16.9,0l-.7,.7m-.3,-.7h1m-.7,.7l-.3,-.7m1,-2.4l-.7,3.1m-17.2,-.7l-.4,.7m-.7,-.7h1.1m-.4,.7l-.7,-.7m0,-2.4l.7,3.1m-17.9,-1.4l.3,.7m-.7,0l.4,-.7m.3,.7h-.7m-1.4,-2.1l2.1,2.1m-18.3,-1.4l.7,.7m-.7,.4v-1.1m.7,.7l-.7,.4m-3.1,-.7l3.8,.3M83,943.8h1.4m-.7,1.4L83,943.8m1.4,0l-.7,1.4m-4.4,1.4l5.1,-2.8m123.5,21.7l-2,-.3m1.3,-1.7l.7,2m-2,-.3l1.3,-1.7m7.3,-1.4l-8.6,3.1m-15.2,1l-2.1,.4m.7,-2.1l1.4,1.7m-2.1,.4l.7,-2.1m5.5,-4.1l-6.2,6.2m-15.2,-.4l-1.7,1.4m-.3,-2.1l2,.7m-1.7,1.4l-.3,-2.1m3.8,-6.2l-3.5,8.3m-15.9,-1.4l-1.3,2.1m-.7,-2.4l2,.3m-1.3,2.1l-.7,-2.4m2,-6.9l-1.3,9.3m-16.3,-2.4l-.6,2.4m-1.4,-2.1l2,-.3m-.6,2.4l-1.4,-2.1m0,-7.2l1.4,9.3m-16.9,-2.8l-.4,2.1m-1.7,-1.4l2.1,-.7m-.4,2.1l-1.7,-1.4m-2.1,-6.9l3.8,8.3m-17.6,-3.1l.7,2.1m-2.1,-.4l1.4,-1.7m.7,2.1l-2.1,-.4m-4.1,-5.8l6.2,6.2M84.8,963.5l1.4,1.7m-2.1,.3l.7,-2m1.4,1.7l-2.1,.3m-6.6,-3.4l8.7,3.1m122.1,21.7l-4.5,1m1.4,-4.1l3.1,3.1m-4.5,1l1.4,-4.1m11,-7.9l-12.4,12M191,987.3l-3.8,2m0,-4.1l3.8,2.1m-3.8,2v-4.1m9,-11l-9,15.1m-13.1,-2l-3.4,3.1m-1.1,-4.2l4.5,1.1m-3.4,3.1l-1.1,-4.2m6.6,-13.1l-5.5,17.3m-13.8,-3.1l-2.8,3.8m-1.7,-4.2l4.5,.4m-2.8,3.8l-1.7,-4.2m3.4,-14.1l-1.7,18.3m-14.5,-4.2l-2,4.2m-2.5,-3.8l4.5,-.4m-2,4.2l-2.5,-3.8m.7,-14.5l1.8,18.3M122,986.2l-1,4.2m-3.1,-3.1l4.1,-1.1m-1,4.2l-3.1,-3.1m-2.1,-14.2l5.2,17.3m-16.6,-5.2v4.1m-3.8,-2l3.8,-2.1m0,4.1l-3.8,-2M95.8,974.2l8.6,15.1M86.8,983.8l1.1,4.1m-4.2,-1l3.1,-3.1m1.1,4.1l-4.2,-1m-7.9,-11l12.1,12M215.2,855.5l1,4.5m-4.1,-1.4l3.1,-3.1m1,4.5l-4.1,-1.4m-8.3,-11.1L216.2,860m-20,-3.1v4.4m-3.8,-2.4l3.8,-2m0,4.4l-3.8,-2.4m-5.2,-12.7l9,15.1m-19,-3.4l-1,4.5m-3.5,-3.1l4.5,-1.4m-1,4.5l-3.5,-3.1m-2,-14.2l5.5,17.3m-18.3,-3.8l-2.1,4.1m-2.4,-3.8l4.5,-.3m-2.1,4.1l-2.4,-3.8m.7,-14.5l1.7,18.3m-17.2,-3.8l-2.8,3.8m-1.7,-4.1l4.5,.3m-2.8,3.8l-1.7,-4.1m3.5,-14.2l-1.8,18.3m-16.5,-3.4l-3.5,3.1m-1,-4.5l4.5,1.4m-3.5,3.1l-1,-4.5M121,845.1l-5.2,17.3M99.6,858.9l-3.8,2.4m0,-4.4l3.8,2m-3.8,2.4v-4.4m8.6,-10.7l-8.6,15.1M79.9,858.6L75.8,860m1,-4.5l3.1,3.1M75.8,860l1,-4.5m11.1,-8L75.8,860m137.3,11.7l1.4,2.1m-2.4,.3l1,-2.4m1.4,2.1l-2.4,.3m-6.2,-3.8l8.6,3.5m-20,-.7l.3,2m-2.1,-.6l1.8,-1.4m.3,2l-2.1,-.6" class="g4_18"/>
</g>
<path d="M84.3,845.6H207.7c5.8,0,10.5,4.7,10.5,10.4V979.5c0,5.7,-4.7,10.4,-10.5,10.4H84.3c-5.8,0,-10.5,-4.7,-10.5,-10.4V856c0,-5.7,4.7,-10.4,10.5,-10.4Z" class="g5_18"/>
<path d="M146,990V845.6M73.8,918.1H218.2" class="g6_18"/>
<path d="M95.5,188.8h-2m-5.6,-1.6l7.6,1.6m16.2,-11.2v.5m-1.5,0l1.5,-.5m0,.5h-1.5m-2.5,-2l4,2M128.4,167v.5m-1,-.5h1m0,.5l-1,-.5m-.5,-1l1.5,1.5m51.2,99.2l.5,-.5m.5,.5h-1m.5,-.5l.5,.5m.5,2l-1,-2.5m16.7,-10.1v-1m1,.5l-1,.5m0,-1l1,.5m2,3l-3,-3.5m17.7,-9.6l-1,-1.6m1.5,1l-.5,.6m-1,-1.6l1.5,1m4.1,3.6l-5.6,-4.6m19.2,-9.1l-1.5,-.5m0,0l1.5,.5m4.1,2.1l-5.6,-2.6m19.7,-9.6l-.5,-.5m.5,0v.5m-.5,-.5h.5m3.1,1l-3.6,-1M148.7,260.1l.5,-1m1,1h-1.5m.5,-1l1,1m-1,3.6v-4.6M165.4,248l.5,-2m1.5,2h-2m.5,-2l1.5,2m1,7.6L165.9,246m15.2,-9.7l-1.5,-3.5m3,2.5l-1.5,1m-1.5,-3.5l3,2.5m8.1,11.7L179.6,232.8m21.2,-4.6l-2.5,-1.5m1.5,.5l1,1m-2.5,-1.5l1.5,.5m8.1,5.1l-9.6,-5.6m21.8,-8.1l-1.6,-.5m.6,0l1,.5m-1.6,-.5h.6m4,1l-4.6,-1M118.3,253.5l1.5,-1m0,1.6l-1.5,-.6m1.5,-1v1.6m-3.5,3.5l3.5,-5.1m16.7,-12.6l2.6,-3m0,3.5l-2.6,-.5m2.6,-3v3.5M133,252.5l6.1,-15.6m14.7,-12.7v-7.1m0,0v7.1m0,26.3V217.1m17.7,4l-2.6,-2m0,1.5l2.6,.5m-2.6,-2v1.5m6.1,6.6l-6.1,-8.1m20.8,-6.6l-1.5,-.5m0,0l1.5,.5m1.5,.5l-3,-1M87.9,248l1.6,-.5m-1,1l-.6,-.5m1.6,-.5l-1,1m-3.6,2l4.6,-3m17.7,-11.7l2.5,-1m-1.5,2.1l-1,-1.1m2.5,-1l-1.5,2.1m-8.1,5l9.6,-7.1m17.2,-10.1l1.5,-2m-3,2.5l1.5,-.5m1.5,-2l-3,2.5m-8.1,7.6l11.1,-10.1m14.2,-6.6l-.5,-.5m-1.5,.5h2m-.5,-.5l-1.5,.5m-1,2.5l2.5,-3m17.2,-9.1l-.5,-.5m-1,.5h1.5m-.5,-.5l-1,.5m1,0V206M56.6,242.4l1,-.5m-.5,.5h-.5m1,-.5l-.5,.5M54,243.9l3.6,-2M75.3,231.3h1.5m-1.5,.5v-.5m1.5,0l-1.5,.5m-4.1,1.5l5.6,-2M93.5,220.6h1m-1.5,.5l.5,-.5m1,0l-1.5,.5m-4,1.6l5.5,-2.1M110.2,211l1,-.5m0,0l-1,.5m-2,.5l3,-1m17.2,-10.1h-.5m-.5,0h1m-.5,0h-.5m-.5,0h1m52.2,100.2v-.5m.5,.5h-.5m0,-.5l.5,.5m0,2.1l-.5,-2.6m17.2,-10.6V289m1,.5h-1m0,-.5l1,.5m1,2.5l-2,-3M215,278.9v-.6m.5,.6H215m0,-.6l.5,.6m2,3L215,278.3m18.2,-9.6l-.5,-1m.5,.5v.5m-.5,-1l.5,.5m2.6,2.6l-3.1,-3.1m18.7,-9.6h-.5m0,0h.5m2.1,1l-2.6,-1M148.7,294l.5,-.5m.5,.5h-1m.5,-.5l.5,.5m-.5,3.1v-3.6m17.2,-10.6l.5,-1.5m.5,1.5h-1m.5,-1.5l.5,1.5m0,4.6l-.5,-6.1m17.2,-9.1l-.5,-2.1m1,1.6l-.5,.5m-.5,-2.1l1,1.6m2,5l-3,-6.6m18.7,-8l-1,-1.1m.5,.5l.5,.6m-1,-1.1l.5,.5m3.1,3.6l-3.6,-4.1M220.6,252l-1,-.5m.5,0l.5,.5m-1,-.5h.5m2,2l-2.5,-2M118.3,288l.5,-1m0,1h-.5m.5,-1v1m-1.5,3l1.5,-4M136,276.3l1,-1.5m0,1.5h-1m1,-1.5v1.5m-2,5.6l2,-7.1m16.8,-9.6v-2m0,0v2m0,6.6v-8.6M172,255.6l-1,-1m0,1h1m-1,-1v1m1.5,4l-1.5,-5M189.7,246l-.5,-.5m0,0l.5,.5m1,1.5l-1.5,-2M87.4,281.9l1.1,-.5m-.6,.5h-.5m1.1,-.5l-.6,.5m-2,2.5l2.6,-3m17.2,-10.6l1,-1.1m-.5,1.1h-.5m1,-1.1l-.5,1.1m-3.1,4l3.6,-5.1m17.2,-10.1l.5,-1m-1,1.5l.5,-.5m.5,-1l-1,1.5m-2,4.1l3,-5.6M141.6,250l-.5,-1m-.5,1h1m-.5,-1l-.5,1m0,2.5l.5,-3.5m17.7,-9.1v-.5m-.5,.5h.5m0,-.5l-.5,.5m.5,1v-1.5M56.6,275.8h.5m-.5,.5v-.5m.5,0l-.5,.5m-2.1,1.5l2.6,-2M74.8,265.2l.5,-.5m0,0l-.5,.5m-2.5,2l3,-2.5M92.5,254.6l.5,-.5m0,0l-.5,.5m-2,2L93,254.1m17.2,-10.2h.5m-1,.5l.5,-.5m.5,0l-1,.5m-1,1.1l2,-1.6m16.7,-10.1h.5m0,0h-.5m0,.5l.5,-.5M158.3,106.3h.5m0,.5l-.5,-.5m.5,-3.1v3.6M56.6,142.2l.5,.5m0,0l-.5,-.5m-2.1,-1l2.6,1.5M74.8,131.6l.5,1m-.5,-.5v-.5m.5,1l-.5,-.5M72.3,130l3,2.6M92.5,121.4l.5,.5m0,0l-.5,-.5m-2,-3l2.5,3.5m17.2,-11.1l.5,.5m-1,-.5h.5m.5,.5l-1,-.5m-1,-2.5l2,3M127.9,99.7v.5m-.5,-.5h.5m0,.5l-.5,-.5m0,-2.1l.5,2.6m51.7,99.7h.5m.5,0h-1m.5,0h.5m.5,0h-1m17.7,-10.6l-1,.5m0,0l1,-.5m2,0l-3,.5m17.7,-10.1h-1m1.5,-.6l-.5,.6m-1,0l1.5,-.6m4.1,-1.5l-5.6,2.1M232.7,169h-1.5m1.5,-.5v.5m-1.5,0l1.5,-.5m4.1,-1.5l-5.6,2m19.7,-11.1l-.5,.5m0,0l.5,-.5m3.1,-1.5l-3.6,2M148.7,193.8l.5,.5m1,-.5h-1.5m.5,.5l1,-.5m-1,0v.5m16.2,-10.1l.5,.5m1.5,-.5h-2m.5,.5l1.5,-.5m1,-2.5l-2.5,3m15.2,-9.1l-1.5,2m3,-2.5l-1.5,.5m-1.5,2l3,-2.5m8.1,-7.6l-11.1,10.1m21.2,-13.1l-2.5,1m1.5,-2l1,1m-2.5,1l1.5,-2m8.1,-5.1l-9.6,7.1m21.8,-13.2l-1.6,.5m.6,-1l1,.5m-1.6,.5l.6,-1m4,-2l-4.6,3M118.3,187.7l1.5,.6m0,0l-1.5,-.6m-2,-.5l3.5,1.1m16.7,-9.2l2.6,2.1m0,-1.5l-2.6,-.6m2.6,2.1v-1.5M133,173.1l6.1,8.1m14.7,-5.1v7.1m0,0v-7.1m0,-26.3v33.4m17.7,-22.8l-2.6,3.1m0,-3.6l2.6,.5m-2.6,3.1v-3.6M175,147.8l-6.1,15.7m20.8,-16.8l-1.5,1.1m0,-1.6l1.5,.5m-1.5,1.1v-1.6m3,-3.5l-3,5.1M87.9,181.7l1.6,.5m-1,0l-.6,-.5m1.6,.5h-1m-3.6,-1l4.6,1m17.7,-10.1l2.5,1.5m-1.5,-.5l-1,-1m2.5,1.5l-1.5,-.5M100.1,168l9.6,5.6M126.9,164l1.5,3.5m-3,-2.5l1.5,-1m1.5,3.5l-3,-2.5m-8.1,-11.7l11.1,14.2m14.2,-15.2l-.5,2m-1.5,-2h2m-.5,2l-1.5,-2m-1,-7.6l2.5,9.6m17.2,-14.1l-.5,1m-1,-1h1.5m-.5,1l-1,-1m1,-3.6v4.6M56.6,175.6l1,.5m-.5,0l-.5,-.5m1,.5h-.5m-3.1,-1l3.6,1M75.3,165.5l1.5,.5m0,0l-1.5,-.5m-4.1,-2l5.6,2.5M93.5,154.8l1,1.6M93,155.3l.5,-.5m1,1.6L93,155.3m-4,-3l5.5,4.1m16.7,-12.2v1m-1,-.5l1,-.5m0,1l-1,-.5m-2,-3l3,3.5m17.2,-11.6l-.5,.5m-.5,-.5h1m-.5,.5l-.5,-.5m-.5,-2l1,2.5m52.7,99.2h-1m0,0h1m.5,1l-1.5,-1m16.7,-10.6v-.5m1.5,0l-1.5,.5m0,-.5h1.5m2.5,2l-4,-2m17.2,-9.7l-1,-1m2,0l-1,1m-1,-1h2m5.6,1.5l-7.6,-1.5m19.7,-9.6h-1.5m1.5,-.5v.5m-1.5,0l1.5,-.5m5.6,.5h-7.1m20.2,-10.6h-1m0,0h1m3.6,-.5l-4.6,.5M148.7,226.7l1,-.5m.5,.5h-1.5m1,-.5l.5,.5m-1,2l.5,-2.5m14.2,-10.6l1,-1.5m3,1l-4,.5m1,-1.5l3,1m1.5,5l-4.5,-6M174,206l-4.6,-2.6m9.2,0L174,206m-4.6,-2.6h9.2m22.2,6.1l-31.4,-6.1m29.4,-6.5l-4.6,-.6m3.6,-1l1,1.6m-4.6,-.6l3.6,-1m13.7,-.5l-17.3,1.5m25.4,-10.6H218m.5,-.5l1.1,.5m-1.6,0l.5,-.5m5.6,-1l-6.1,1.5m-99.7,34.9l2,-.5m0,1l-2,-.5m2,-.5v1m-4.5,1.6l4.5,-2.6M137,207l8.1,-1.5m0,3L137,207m8.1,-1.5v3m-18.2,7.6l18.2,-10.6M171,193.3l-8.1,1.5m0,-3l8.1,1.5m-8.1,1.5v-3m18.2,-7.6l-18.2,10.6m26.8,-15.1l-2,.5m0,-1.1l2,.6m-2,.5v-1.1m4.5,-1.5l-4.5,2.6M88.5,214.6H90m-.5,.5l-1,-.5m1.5,0l-.5,.5m-5.6,1L90,214.6m19.2,-11.2l4.6,.5m-3.6,1.1l-1,-1.6m4.6,.5l-3.6,1.1M96,205.5l17.8,-1.6M134,194.3l4.6,2.6m-9.1,0l4.5,-2.6m4.6,2.6h-9.1m-22.3,-6.1l31.4,6.1m5.5,-12.2l-1,1.5m-3,-1l4,-.5m-1,1.5l-3,-1m-1.5,-5l4.5,6m16.2,-12.6l-1,.5m-.5,-.5h1.5m-1,.5l-.5,-.5m1,-2l-.5,2.5M57.1,209h1m-1,.5V209m1,0l-1,.5m-3.6,0l4.6,-.5M75.8,198.4h1.5m-1.5,.5v-.5m1.5,0l-1.5,.5m-5.6,-.5h7.1M94.5,187.7l1,1.1m-2,0l1,-1.1m85.6,-21.2v.5m.5,-.5h-.5m0,.5l.5,-.5m0,-.5l-.5,1m18.2,-11.2l-1,.6m0,0l1,-.6m1,-1l-2,1.6M215,145.7v.5m.5,-.5H215m0,.5l.5,-.5m2,-2l-2.5,2.5m18.2,-11.1l-.5,.5m0,0l.5,-.5m2.6,-2l-3.1,2.5m18.7,-11.1h-.5m.5,-.5v.5m-.5,0l.5,-.5m2.1,-1l-2.6,1.5M148.7,160.4l.5,.5m.5,-.5h-1m.5,.5l.5,-.5m-.5,-1v1.5m17.2,-10.6l.5,1m.5,-1h-1m.5,1l.5,-1m0,-2.5l-.5,3.5m17.2,-10.6l-.5,1m1,-1.5l-.5,.5m-.5,1l1,-1.5m2,-4.1l-3,5.6m18.7,-12.2l-1,1m.5,-1h.5m-1,1l.5,-1m3.1,-4l-3.6,5m19.3,-12.1l-1,.5m.5,-.5h.5m-1,.5l.5,-.5m2,-2.5l-2.5,3M118.3,154.3l.5,.5m0,0l-.5,-.5m-1,-1.5l1.5,2M136,144.7l1,1m0,-1h-1m1,1v-1m-2,-4l2,5m16.8,-10.6v2m0,0v-2m0,-6.6v8.6M172,124l-1,1.5m0,-1.5h1m-1,1.5V124m1.5,-5.6l-1.5,7.1m18.7,-13.2l-.5,1m0,-1h.5m-.5,1v-1m1.5,-3l-1.5,4m-101.8,35l1.1,.5m-.6,0l-.5,-.5m1.1,.5h-.6m-2,-2.1l2.6,2.1m17.2,-10.7l1,1m-.5,-.5l-.5,-.5m1,1l-.5,-.5m-3.1,-3.5l3.6,4m17.2,-10.6l.5,1.5m-1,-1.5h.5m.5,1.5l-1,-1.5m-2,-5l3,6.5m17.2,-12.6l-.5,1.5m-.5,-1.5h1m-.5,1.5l-.5,-1.5m0,-4.6l.5,6.1m17.7,-12.6v.5" class="g7_18"/>
<path d="M154.1,200.4l-39.6,23.5" class="g8_18"/>
<path fill-rule="evenodd" d="M114.5,223.9l2.7,1.3l-6.9,1.2l4.4,-5.4Z" class="g9_18"/>
<path d="M154.1,200.4L154,125.7" class="g8_18"/>
<path fill-rule="evenodd" d="M154,125.7l-2.4,1.7l2.4,-6.6l2.4,6.6Z" class="g9_18"/>
<path d="M154.1,200.4l68.8,13.4" class="g8_18"/>
<path fill-rule="evenodd" d="M222.9,213.8l-1.1,-2.7l5.9,3.6l-6.8,1.2Z" class="g9_18"/>
</svg>