<svg viewBox="0 0 935 1210" version="1.1" xmlns="http://www.w3.org/2000/svg">
<defs>
<clipPath id="c0_17"><path d="M569.5 831.4V563.5H838.2V831.4Z"/></clipPath>
<style>
.g0_17{fill:#CEE5BF;}
.g1_17{fill:#375523;}
.g2_17{fill:#2D5191;}
.g3_17{fill:#365F91;}
.g4_17{fill:#B84C10;}
</style>
</defs>
<path fill-rule="evenodd" d="M167.7 135.3H822.3V111.1H167.7v24.2Z" class="g0_17"/>
<path d="M166.6 111.1h1.1V110h-1.1v1.1Z" class="g1_17"/>
<path d="M166.6 111.1h1.1V110h-1.1v1.1Z" class="g1_17"/>
<path d="M167.7 111.1H822.3V110H167.7v1.1Z" class="g1_17"/>
<path d="M822.3 111.1h1.1V110h-1.1v1.1Z" class="g1_17"/>
<path d="M822.3 111.1h1.1V110h-1.1v1.1Z" class="g1_17"/>
<path d="M166.6 136.4h1.1v-1.1h-1.1v1.1Z" class="g1_17"/>
<path d="M166.6 136.4h1.1v-1.1h-1.1v1.1Z" class="g1_17"/>
<path d="M167.7 136.4H822.3v-1.1H167.7v1.1Z" class="g1_17"/>
<path d="M822.3 136.4h1.1v-1.1h-1.1v1.1Z" class="g1_17"/>
<path d="M822.3 136.4h1.1v-1.1h-1.1v1.1Z" class="g1_17"/>
<path d="M166.6 135.3h1.1V111.1h-1.1v24.2Z" class="g1_17"/>
<path d="M822.3 135.3h1.1V111.1h-1.1v24.2Z" class="g1_17"/>
<path d="M166.6 162.1h1.1V136.4h-1.1v25.7Z" class="g1_17"/>
<path d="M822.3 162.1h1.1V136.4h-1.1v25.7Z" class="g1_17"/>
<path d="M166.6 183.2h1.1V162.1h-1.1v21.1Z" class="g1_17"/>
<path d="M822.3 183.2h1.1V162.1h-1.1v21.1Z" class="g1_17"/>
<path d="M166.6 204.2h1.1v-21h-1.1v21Z" class="g1_17"/>
<path d="M822.3 204.2h1.1v-21h-1.1v21Z" class="g1_17"/>
<path d="M166.6 228h1.1v-1.1h-1.1V228Z" class="g1_17"/>
<path d="M166.6 228h1.1v-1.1h-1.1V228Z" class="g1_17"/>
<path d="M167.7 228H822.3v-1.1H167.7V228Z" class="g1_17"/>
<path d="M822.3 228h1.1v-1.1h-1.1V228Z" class="g1_17"/>
<path d="M822.3 228h1.1v-1.1h-1.1V228Z" class="g1_17"/>
<path d="M166.6 226.9h1.1V204.2h-1.1v22.7Z" class="g1_17"/>
<path d="M822.3 226.9h1.1V204.2h-1.1v22.7Z" class="g1_17"/>
<path fill-rule="evenodd" d="M167.7 295.5H822.3V271.2H167.7v24.3Z" class="g0_17"/>
<path d="M166.6 271.2h1.1v-1.1h-1.1v1.1Z" class="g1_17"/>
<path d="M166.6 271.2h1.1v-1.1h-1.1v1.1Z" class="g1_17"/>
<path d="M167.7 271.2H822.3v-1.1H167.7v1.1Z" class="g1_17"/>
<path d="M822.3 271.2h1.1v-1.1h-1.1v1.1Z" class="g1_17"/>
<path d="M822.3 271.2h1.1v-1.1h-1.1v1.1Z" class="g1_17"/>
<path d="M166.6 296.6h1.1v-1.1h-1.1v1.1Z" class="g1_17"/>
<path d="M166.6 296.6h1.1v-1.1h-1.1v1.1Z" class="g1_17"/>
<path d="M167.7 296.6H822.3v-1.1H167.7v1.1Z" class="g1_17"/>
<path d="M822.3 296.6h1.1v-1.1h-1.1v1.1Z" class="g1_17"/>
<path d="M822.3 296.6h1.1v-1.1h-1.1v1.1Z" class="g1_17"/>
<path d="M166.6 295.5h1.1V271.2h-1.1v24.3Z" class="g1_17"/>
<path d="M822.3 295.5h1.1V271.2h-1.1v24.3Z" class="g1_17"/>
<path d="M166.6 322.3h1.1V296.6h-1.1v25.7Z" class="g1_17"/>
<path d="M822.3 322.3h1.1V296.6h-1.1v25.7Z" class="g1_17"/>
<path d="M166.6 343.4h1.1V322.3h-1.1v21.1Z" class="g1_17"/>
<path d="M822.3 343.4h1.1V322.3h-1.1v21.1Z" class="g1_17"/>
<path d="M166.6 364.5h1.1V343.4h-1.1v21.1Z" class="g1_17"/>
<path d="M822.3 364.5h1.1V343.4h-1.1v21.1Z" class="g1_17"/>
<path d="M166.6 388.2h1.1v-1.1h-1.1v1.1Z" class="g1_17"/>
<path d="M166.6 388.2h1.1v-1.1h-1.1v1.1Z" class="g1_17"/>
<path d="M167.7 388.2H822.3v-1.1H167.7v1.1Z" class="g1_17"/>
<path d="M822.3 388.2h1.1v-1.1h-1.1v1.1Z" class="g1_17"/>
<path d="M822.3 388.2h1.1v-1.1h-1.1v1.1Z" class="g1_17"/>
<path d="M166.6 387.1h1.1V364.5h-1.1v22.6Z" class="g1_17"/>
<path d="M822.3 387.1h1.1V364.5h-1.1v22.6Z" class="g1_17"/>
<path fill-rule="evenodd" d="M162.7 558.5H827.3V535.8H162.7v22.7Z" class="g2_17"/>
<path d="M166.6 579.6h1.1V558.5h-1.1v21.1Z" class="g3_17"/>
<path d="M166.6 600.7h1.1V579.6h-1.1v21.1Z" class="g3_17"/>
<path d="M166.6 621.8h1.1V600.7h-1.1v21.1Z" class="g3_17"/>
<path d="M166.6 642.9h1.1V621.8h-1.1v21.1Z" class="g3_17"/>
<path d="M166.6 663.9h1.1v-21h-1.1v21Z" class="g3_17"/>
<path d="M166.6 685h1.1V663.9h-1.1V685Z" class="g3_17"/>
<path d="M166.6 706.1h1.1V685h-1.1v21.1Z" class="g3_17"/>
<path d="M166.6 727.2h1.1V706.1h-1.1v21.1Z" class="g3_17"/>
<path d="M166.6 748.3h1.1V727.2h-1.1v21.1Z" class="g3_17"/>
<path d="M166.6 769.4h1.1V748.3h-1.1v21.1Z" class="g3_17"/>
<path d="M166.6 790.4h1.1v-21h-1.1v21Z" class="g3_17"/>
<path d="M166.6 811.5h1.1V790.4h-1.1v21.1Z" class="g3_17"/>
<path d="M166.6 832.6h1.1V811.5h-1.1v21.1Z" class="g3_17"/>
<path d="M166.6 853.7h1.1V832.6h-1.1v21.1Z" class="g3_17"/>
<path fill-rule="evenodd" d="M162.7 984.7H827.3v-4.6H162.7v4.6Z" class="g4_17"/>
<path d="M162.7 986.9H827.3v-1.1H162.7v1.1Z" class="g4_17"/>
<path fill-rule="evenodd" d="M162.7 1039.1H827.3v-4.5H162.7v4.5Z" class="g4_17"/>
<path d="M162.7 1033.5H827.3v-1.1H162.7v1.1Z" class="g4_17"/>
<image clip-path="url(#c0_17)" preserveAspectRatio="none" x="570" y="564" width="268" height="267" href="img/1.jpg"/>
</svg>