<?xml version="1.0" encoding="UTF-8" standalone="no"?>
<!DOCTYPE svg PUBLIC "-//W3C//DTD SVG 1.1//EN"
"http://www.w3.org/Graphics/SVG/1.1/DTD/svg11.dtd">
<svg viewBox="0 0 811 1017" version="1.1" xmlns="http://www.w3.org/2000/svg" xmlns:xlink="http://www.w3.org/1999/xlink">
<defs>
<style type="text/css"><![CDATA[
.g0_317{
fill: none;
stroke: #222326;
stroke-width: 1.145;
}
.g1_317{
fill: #211E1E;
}
.g2_317{
fill: #FED9A1;
}
.g3_317{
fill: none;
stroke: #222326;
stroke-width: 0.763;
}
.g4_317{
fill: none;
stroke: #222326;
stroke-width: 0.886;
}
.g5_317{
fill: none;
stroke: #222326;
stroke-width: 1.075;
}
.g6_317{
fill: #C6EAFA;
}
.g7_317{
fill: none;
stroke: #222326;
stroke-width: 0.763;
stroke-dasharray: 4,4;
}
.g8_317{
fill: none;
stroke: #222326;
stroke-width: 1.527;
}
]]></style>
</defs>
<path d="M143.6,500.8H398.1" class="g0_317"/>
<path d="M400.8,499.6c-1.9,-.5,-3.2,-1.1,-4.7,-1.7v5.8c.6,-.2,2.8,-1.1,4.7,-1.7c2,-.6,3.8,-1,5,-1.2c-1.2,-.1,-3,-.6,-5,-1.2Z" class="g1_317"/>
<path d="M203.6,500.8c0,5.8,-4.7,10.5,-10.5,10.5c-5.8,0,-10.5,-4.7,-10.5,-10.5c0,-5.8,4.7,-10.5,10.5,-10.5c5.8,0,10.5,4.7,10.5,10.5Z" class="g2_317"/>
<path d="M203.6,500.8c0,5.8,-4.7,10.5,-10.5,10.5c-5.8,0,-10.5,-4.7,-10.5,-10.5c0,-5.8,4.7,-10.5,10.5,-10.5c5.8,0,10.5,4.7,10.5,10.5Z" class="g3_317"/>
<path d="M236.4,501.5c0,5.8,-6.3,10.5,-14.1,10.5c-7.8,0,-14.1,-4.7,-14.1,-10.5c0,-5.8,6.3,-10.5,14.1,-10.5c7.8,0,14.1,4.7,14.1,10.5Z" class="g2_317"/>
<path d="M236.4,501.5c0,5.8,-6.3,10.5,-14.1,10.5c-7.8,0,-14.1,-4.7,-14.1,-10.5c0,-5.8,6.3,-10.5,14.1,-10.5c7.8,0,14.1,4.7,14.1,10.5Z" class="g4_317"/>
<path d="M269.3,501.5c0,5.8,-6.4,10.5,-14.1,10.5c-7.8,0,-14.1,-4.7,-14.1,-10.5c0,-5.8,6.3,-10.5,14.1,-10.5c7.7,0,14.1,4.7,14.1,10.5Z" class="g2_317"/>
<path d="M269.3,501.5c0,5.8,-6.4,10.5,-14.1,10.5c-7.8,0,-14.1,-4.7,-14.1,-10.5c0,-5.8,6.3,-10.5,14.1,-10.5c7.7,0,14.1,4.7,14.1,10.5Z" class="g4_317"/>
<path d="M302.1,501.5c0,5.8,-6.3,10.5,-14.1,10.5c-7.8,0,-14.1,-4.7,-14.1,-10.5c0,-5.8,6.3,-10.5,14.1,-10.5c7.8,0,14.1,4.7,14.1,10.5Z" class="g2_317"/>
<path d="M302.1,501.5c0,5.8,-6.3,10.5,-14.1,10.5c-7.8,0,-14.1,-4.7,-14.1,-10.5c0,-5.8,6.3,-10.5,14.1,-10.5c7.8,0,14.1,4.7,14.1,10.5Z" class="g4_317"/>
<path d="M362.6,501.5c0,5.8,-9.3,10.5,-20.8,10.5c-11.4,0,-20.7,-4.7,-20.7,-10.5c0,-5.8,9.3,-10.5,20.7,-10.5c11.5,0,20.8,4.7,20.8,10.5Z" class="g2_317"/>
<path d="M362.6,501.5c0,5.8,-9.3,10.5,-20.8,10.5c-11.4,0,-20.7,-4.7,-20.7,-10.5c0,-5.8,9.3,-10.5,20.7,-10.5c11.5,0,20.8,4.7,20.8,10.5Z" class="g5_317"/>
<path d="M159.1,461.3c0,3.3,2.7,6.1,6.1,6.1H373.1c3.4,0,6.2,-2.8,6.2,-6.1v-24c0,-3.4,-2.8,-6.1,-6.2,-6.1H165.2c-3.4,0,-6.1,2.7,-6.1,6.1v24Z" class="g6_317"/>
<path d="M159.1,461.3c0,3.3,2.7,6.1,6.1,6.1H373.1c3.4,0,6.2,-2.8,6.2,-6.1v-24c0,-3.4,-2.8,-6.1,-6.2,-6.1H165.2c-3.4,0,-6.1,2.7,-6.1,6.1v24Z" class="g3_317"/>
<path d="M193.1,467.4v17.8" class="g7_317"/>
<path d="M193.9,487c.3,-1.3,.7,-2.1,1.1,-3.1h-3.9c.2,.3,.8,1.8,1.2,3.1c.4,1.3,.7,2.5,.8,3.3c.1,-.8,.4,-2,.8,-3.3Z" class="g1_317"/>
<path d="M222.3,467.4v17.8" class="g7_317"/>
<path d="M223.1,487c.4,-1.3,.7,-2.1,1.1,-3.1h-3.8c.1,.3,.7,1.8,1.1,3.1c.4,1.3,.7,2.5,.8,3.3c.1,-.8,.4,-2,.8,-3.3Z" class="g1_317"/>
<path d="M255.2,467.4v17.8" class="g7_317"/>
<path d="M255.9,487c.4,-1.3,.8,-2.1,1.2,-3.1h-3.9c.2,.3,.8,1.8,1.2,3.1c.4,1.3,.7,2.5,.8,3.3c.1,-.8,.3,-2,.7,-3.3Z" class="g1_317"/>
<path d="M288,467.4v17.8" class="g7_317"/>
<path d="M288.8,487c.4,-1.3,.7,-2.1,1.1,-3.1h-3.8c.1,.3,.7,1.8,1.1,3.1c.4,1.3,.7,2.5,.8,3.3c.1,-.8,.4,-2,.8,-3.3Z" class="g1_317"/>
<path d="M341.8,467.4v17.8" class="g7_317"/>
<path d="M342.6,487c.4,-1.3,.8,-2.1,1.2,-3.1h-3.9c.2,.3,.8,1.8,1.2,3.1c.4,1.3,.6,2.5,.7,3.3c.1,-.8,.4,-2,.8,-3.3Z" class="g1_317"/>
<path d="M371.3,511.3v-21" class="g8_317"/>
</svg>