<?xml version="1.0" encoding="UTF-8" standalone="no"?>
<!DOCTYPE svg PUBLIC "-//W3C//DTD SVG 1.1//EN"
"http://www.w3.org/Graphics/SVG/1.1/DTD/svg11.dtd">
<svg viewBox="0 0 931 1096" version="1.1" xmlns="http://www.w3.org/2000/svg" xmlns:xlink="http://www.w3.org/1999/xlink">
<defs>
<clipPath id="c0_135"><path d="M503.4,281.7V264.8h19v16.9Z"/></clipPath>
<clipPath id="c1_135"><path d="M549.7,590.5V546.1h75.1v44.4Z"/></clipPath>
<style type="text/css"><![CDATA[
.g0_135{
fill: none;
stroke: #241F1F;
stroke-width: 0.534;
stroke-miterlimit: 10;
}
.g1_135{
fill: none;
stroke: #241F1F;
stroke-width: 0.763;
stroke-miterlimit: 10;
}
.g2_135{
fill: none;
stroke: #EE008C;
stroke-width: 0.763;
stroke-miterlimit: 10;
}
.g3_135{
fill: none;
stroke: #00AEEF;
stroke-width: 0.763;
}
.g4_135{
fill: #FFF;
}
.g5_135{
fill: none;
stroke: #00AEEF;
stroke-width: 1.145;
}
.g6_135{
fill: #EE008C;
}
.g7_135{
fill: none;
stroke: #FFF;
stroke-width: 1.145;
}
.g8_135{
fill: none;
stroke: #FFF;
stroke-width: 1.283;
}
.g9_135{
fill: none;
stroke: #EE008C;
stroke-width: 0.763;
stroke-miterlimit: 3;
}
.ga_135{
fill: none;
stroke: #241F1F;
stroke-width: 0.611;
stroke-miterlimit: 3;
}
.gb_135{
fill: #241F1F;
}
.gc_135{
fill: none;
stroke: #00AEEF;
stroke-width: 0.534;
stroke-miterlimit: 3;
}
.gd_135{
fill: none;
stroke: #EE008C;
stroke-width: 0.534;
stroke-miterlimit: 3;
}
.ge_135{
fill: #00AEEF;
}
.gf_135{
fill: none;
stroke: #241F1F;
stroke-width: 0.763;
stroke-miterlimit: 3;
}
]]></style>
</defs>
<path d="M670.8,213.4h5.3m-5.3,21.4h5.3" class="g0_135"/>
<path clip-path="url(#c0_135)" d="M515,265.1h7.8" class="g1_135"/>
<path d="M797.8,265.1h9.9" class="g1_135"/>
<path d="M619.6,283.5h16.1" class="g2_135"/>
<path d="M665.2,301.8h16.1m-94.2,74.1h16.1" class="g1_135"/>
<path d="M508.4,357.1c0,0,-3.1,0,-3.1,3.1v43.5c0,0,0,3.1,3.1,3.1H712.3c0,0,3.1,0,3.1,-3.1V360.2c0,0,0,-3.1,-3.1,-3.1H508.4Z" class="g3_135"/>
<path d="M345.7,494.6c0,0,-3.1,0,-3.1,3.1V600.8c0,0,0,3.1,3.1,3.1H875.1c0,0,3,0,3,-3.1V497.7c0,0,0,-3.1,-3,-3.1Z" class="g4_135"/>
<path d="M358.8,504c0,0,-1.5,0,-1.5,1.5v14.1c0,0,0,1.6,1.5,1.6H373c0,0,1.5,0,1.5,-1.6V505.5c0,0,0,-1.5,-1.5,-1.5H358.8Z" class="g5_135"/>
<path clip-path="url(#c1_135)" d="M555.7,568.7h12.2m29.8,0h27.5" class="g1_135"/>
<path d="M345.7,494.6c0,0,-3.1,0,-3.1,3.1V600.8c0,0,0,3.1,3.1,3.1H875.1c0,0,3,0,3,-3.1V497.7c0,0,0,-3.1,-3,-3.1H345.7Z" class="g3_135"/>
<path d="M345.7,691.7c0,0,-3.1,0,-3.1,3.1V797.9c0,0,0,3,3.1,3H875.1c0,0,3,0,3,-3V694.8c0,0,0,-3.1,-3,-3.1Z" class="g4_135"/>
<path d="M358.8,701.1c0,0,-1.5,0,-1.5,1.5v14.1c0,0,0,1.5,1.5,1.5H373c0,0,1.5,0,1.5,-1.5V702.6c0,0,0,-1.5,-1.5,-1.5H358.8Z" class="g5_135"/>
<path d="M345.7,691.7c0,0,-3.1,0,-3.1,3.1V797.9c0,0,0,3,3.1,3H875.1c0,0,3,0,3,-3V694.8c0,0,0,-3.1,-3,-3.1H345.7Z" class="g3_135"/>
<path d="M314.7,299.4h13.8V284.9H314.7v14.5Z" class="g6_135"/>
<path d="M321.6,298c3.2,0,5.8,-2.6,5.8,-5.8c0,-3.2,-2.6,-5.8,-5.8,-5.8c-3.2,0,-5.8,2.6,-5.8,5.8c0,3.2,2.6,5.8,5.8,5.8Z" class="g6_135"/>
<path d="M321.6,298c3.2,0,5.8,-2.6,5.8,-5.8c0,-3.2,-2.6,-5.8,-5.8,-5.8c-3.2,0,-5.8,2.6,-5.8,5.8c0,3.2,2.6,5.8,5.8,5.8Z" class="g7_135"/>
<path d="M325.8,288l-8.3,8.3" class="g8_135"/>
<path d="M359.6,376.2c0,0,-1.5,0,-1.5,1.5v14.2c0,0,0,1.5,1.5,1.5h14.1c0,0,1.6,0,1.6,-1.5V377.7c0,0,0,-1.5,-1.6,-1.5H359.6Z" class="g5_135"/>
<path d="M157.2,796.2c0,-.9,.8,-1.7,1.7,-1.7c1,0,1.7,.8,1.7,1.7c0,1,-.7,1.7,-1.7,1.7c-.9,0,-1.7,-.7,-1.7,-1.7Z" class="g6_135"/>
<path d="M157.2,796.2c0,-.9,.8,-1.7,1.7,-1.7c1,0,1.7,.8,1.7,1.7c0,1,-.7,1.7,-1.7,1.7c-.9,0,-1.7,-.7,-1.7,-1.7Z" class="g9_135"/>
<path d="M108.5,796.2H313.2" class="ga_135"/>
<path fill-rule="evenodd" d="M313.2,796.2l-1.6,-2.4l6.5,2.4l-6.5,2.5Z" class="gb_135"/>
<path d="M213.1,793.2v6.1" class="ga_135"/>
<path d="M130.6,773.3V787M294.9,773.3V787M213.1,773.3V787" class="gc_135"/>
<path d="M213.1,819.1v13.8M158.9,819.1v13.8" class="gd_135"/>
<path d="M209.2,780.2H134.4" class="gc_135"/>
<path d="M212.9,780.2l-4.8,1.8l1.1,-1.8l-1.1,-1.9Z" class="ge_135"/>
<path d="M130.7,780.2l4.9,-1.9l-1.2,1.9l1.2,1.8Z" class="ge_135"/>
<path d="M217.2,780.2h73.7" class="gc_135"/>
<path d="M213.6,780.2l4.8,-1.9l-1.2,1.9l1.2,1.8Z" class="ge_135"/>
<path d="M294.6,780.2l-4.9,1.8l1.2,-1.8l-1.2,-1.9Z" class="ge_135"/>
<path d="M128.7,796.4c0,-.9,.8,-1.7,1.7,-1.7c1,0,1.8,.8,1.8,1.7c0,1,-.8,1.7,-1.8,1.7c-.9,0,-1.7,-.7,-1.7,-1.7Z" class="g4_135"/>
<path d="M128.7,796.4c0,-.9,.8,-1.7,1.7,-1.7c1,0,1.8,.8,1.8,1.7c0,1,-.8,1.7,-1.8,1.7c-.9,0,-1.7,-.7,-1.7,-1.7Z" class="gf_135"/>
<path d="M293,796.4c0,-.9,.7,-1.7,1.7,-1.7c.9,0,1.7,.8,1.7,1.7c0,1,-.8,1.7,-1.7,1.7c-1,0,-1.7,-.7,-1.7,-1.7Z" class="g4_135"/>
<path d="M293,796.4c0,-.9,.7,-1.7,1.7,-1.7c.9,0,1.7,.8,1.7,1.7c0,1,-.8,1.7,-1.7,1.7c-1,0,-1.7,-.7,-1.7,-1.7Z" class="gf_135"/>
<path d="M209.2,826H162.8" class="gd_135"/>
<path d="M212.8,826l-4.8,1.9l1.2,-1.9L208,824.2Z" class="g6_135"/>
<path d="M159.2,826l4.8,-1.8l-1.2,1.8l1.2,1.9Z" class="g6_135"/>
<path d="M164.2,783.2h15.3V768H164.2v15.2Z" class="g4_135"/>
<path d="M246.4,783.2h15.3V768H246.4v15.2Z" class="g4_135"/>
<path d="M177.1,832h18.3V813.6H177.1V832Z" class="g4_135"/>
<path d="M157.3,922.3c0,-.9,.8,-1.7,1.8,-1.7c.9,0,1.7,.8,1.7,1.7c0,1,-.8,1.7,-1.7,1.7c-1,0,-1.8,-.7,-1.8,-1.7Z" class="g6_135"/>
<path d="M157.3,922.3c0,-.9,.8,-1.7,1.8,-1.7c.9,0,1.7,.8,1.7,1.7c0,1,-.8,1.7,-1.7,1.7c-1,0,-1.8,-.7,-1.8,-1.7Z" class="g9_135"/>
<path d="M267.3,922.3c0,-.9,.8,-1.7,1.8,-1.7c.9,0,1.7,.8,1.7,1.7c0,1,-.8,1.7,-1.7,1.7c-1,0,-1.8,-.7,-1.8,-1.7Z" class="g6_135"/>
<path d="M267.3,922.3c0,-.9,.8,-1.7,1.8,-1.7c.9,0,1.7,.8,1.7,1.7c0,1,-.8,1.7,-1.7,1.7c-1,0,-1.8,-.7,-1.8,-1.7Z" class="g9_135"/>
<path d="M157.3,978.8c0,-.9,.8,-1.7,1.8,-1.7c.9,0,1.7,.8,1.7,1.7c0,1,-.8,1.7,-1.7,1.7c-1,0,-1.8,-.7,-1.8,-1.7Z" class="g6_135"/>
<path d="M157.3,978.8c0,-.9,.8,-1.7,1.8,-1.7c.9,0,1.7,.8,1.7,1.7c0,1,-.8,1.7,-1.7,1.7c-1,0,-1.8,-.7,-1.8,-1.7Z" class="g9_135"/>
<path d="M267.3,978.8c0,-.9,.8,-1.7,1.8,-1.7c.9,0,1.7,.8,1.7,1.7c0,1,-.8,1.7,-1.7,1.7c-1,0,-1.8,-.7,-1.8,-1.7Z" class="g6_135"/>
<path d="M267.3,978.8c0,-.9,.8,-1.7,1.8,-1.7c.9,0,1.7,.8,1.7,1.7c0,1,-.8,1.7,-1.7,1.7c-1,0,-1.8,-.7,-1.8,-1.7Z" class="g9_135"/>
<path d="M109.4,922.3h205" class="ga_135"/>
<path fill-rule="evenodd" d="M314.4,922.3l-1.6,-2.4l6.5,2.4l-6.5,2.4Z" class="gb_135"/>
<path d="M265.2,908.6H163.1" class="gc_135"/>
<path d="M268.9,908.6l-4.8,1.8l1.1,-1.8l-1.1,-1.9Z" class="ge_135"/>
<path d="M159.4,908.6l4.9,-1.9l-1.2,1.9l1.2,1.8Z" class="ge_135"/>
<path d="M159.1,901.7v13.7m110,-13.7v13.7" class="gc_135"/>
<path d="M193,915.1h42.8v-17H193v17Z" class="g4_135"/>
<path d="M108.5,978.8h205" class="ga_135"/>
<path fill-rule="evenodd" d="M313.5,978.8l-1.6,-2.4l6.5,2.4l-6.5,2.5Z" class="gb_135"/>
<path d="M265.3,965.1H163.1" class="gc_135"/>
<path d="M269,965.1l-4.9,1.8l1.2,-1.8l-1.2,-1.9Z" class="ge_135"/>
<path d="M159.5,965.1l4.8,-1.9l-1.2,1.9l1.2,1.8Z" class="ge_135"/>
<path d="M159.1,958.2V972m110,-13.8V972" class="gc_135"/>
<path d="M192.8,971.6h42.8V954.7H192.8v16.9Z" class="g4_135"/>
</svg>