<?xml version="1.0" encoding="UTF-8" standalone="no"?>
<!DOCTYPE svg PUBLIC "-//W3C//DTD SVG 1.1//EN"
"http://www.w3.org/Graphics/SVG/1.1/DTD/svg11.dtd">
<svg viewBox="0 0 907 1045" version="1.1" xmlns="http://www.w3.org/2000/svg" xmlns:xlink="http://www.w3.org/1999/xlink">
<defs>
<clipPath id="c0_660"><path d="M341.8,686.4c-19.1,-12.8,-41,-13.5,-33.8,-50c3.9,-19.3,18.4,-27.1,35,-34h18.1c42.1,19.2,32.3,66.4,-4.8,84Z"/></clipPath>
<clipPath id="c1_660"><path d="M546.1,685.5C527,672.7,505.1,672,512.3,635.5c3.8,-19.4,18.4,-27.1,35,-34h18.1c42.1,19.2,32.3,66.4,-4.8,84Z"/></clipPath>
<clipPath id="c2_660"><path d="M552.5,518.4C531.8,504.6,508.2,503.8,516,464.5c4.1,-21,19.9,-29.3,37.8,-36.8h19.5c45.5,20.7,34.9,71.7,-5.2,90.7Z"/></clipPath>
<clipPath id="c3_660"><path d="M390.2,469.7C373.1,458.2,353.6,457.6,360,425.1c3.5,-17.3,16.5,-24.2,31.3,-30.4h16.1c37.6,17.1,28.9,59.3,-4.3,75Z"/></clipPath>
<clipPath id="c4_660"><path d="M610.6,826.7v-187H774.9v187Z"/></clipPath>
<clipPath id="c5_660"><path d="M126.3,816.3v-187H290.5v187Z"/></clipPath>
<clipPath id="c6_660"><path d="M625.7,553.7V389.4H790V553.7Z"/></clipPath>
<clipPath id="c7_660"><path d="M146.3,576.9V403.8H310.6V576.9Z"/></clipPath>
<clipPath id="c8_660"><path d="M-2.6,1047.7V-2.6H910.2V1047.7Z"/></clipPath>
<style type="text/css"><![CDATA[
.g0_660{
fill: #FFFFFF;
}
.g1_660{
fill: none;
stroke: #000000;
stroke-width: 0.763;
stroke-linecap: butt;
stroke-linejoin: miter;
stroke-miterlimit: 4;
}
.g2_660{
fill: none;
stroke: #454545;
stroke-width: 0.763;
stroke-linecap: butt;
stroke-linejoin: miter;
stroke-miterlimit: 4;
}
.g3_660{
fill: none;
stroke: #FFFFFF;
stroke-width: 1.527;
stroke-linecap: butt;
stroke-linejoin: miter;
stroke-miterlimit: 4;
}
.g4_660{
fill: none;
stroke: #4D4D4D;
stroke-width: 1.062;
stroke-linecap: butt;
stroke-linejoin: miter;
stroke-miterlimit: 4;
}
.g5_660{
fill: none;
stroke: #474747;
stroke-width: 2.102;
stroke-linecap: butt;
stroke-linejoin: miter;
stroke-miterlimit: 4;
}
.g6_660{
fill: none;
stroke: #4D4D4D;
stroke-width: 4.183;
stroke-linecap: butt;
stroke-linejoin: miter;
stroke-miterlimit: 4;
}
.g7_660{
fill: none;
stroke: #4D4D4D;
stroke-width: 3.214;
stroke-linecap: butt;
stroke-linejoin: miter;
stroke-miterlimit: 4;
}
.g8_660{
fill: none;
stroke: #474747;
stroke-width: 1.892;
stroke-linecap: butt;
stroke-linejoin: miter;
stroke-miterlimit: 4;
}
.g9_660{
fill: none;
stroke: #969696;
stroke-width: 0.936;
stroke-linecap: butt;
stroke-linejoin: miter;
stroke-miterlimit: 4;
}
.ga_660{
fill: none;
stroke: #FFFFFF;
stroke-width: 1.909;
stroke-linecap: butt;
stroke-linejoin: miter;
}
.gb_660{
fill: none;
stroke: #000000;
stroke-width: 0.381;
stroke-linecap: butt;
stroke-linejoin: miter;
}
]]></style>
</defs>
<image clip-path="url(#c4_660)" preserveAspectRatio="none" x="610" y="639" width="165" height="188" xlink:href="img/1.jpg"/>
<path d="M616.1,644.8V810.9h143V644.8h-143Z" class="g0_660"/>
<path d="M616.1,644.8V810.9h143V644.8h-143Z" class="g1_660"/>
<image clip-path="url(#c5_660)" preserveAspectRatio="none" x="126" y="629" width="165" height="188" xlink:href="img/2.jpg"/>
<path d="M131.8,634.4V800.5h143V634.4h-143Z" class="g0_660"/>
<path d="M131.8,634.4V800.5h143V634.4h-143Z" class="g1_660"/>
<path d="M131.5,661.5H275.2" class="g2_660"/>
<image clip-path="url(#c6_660)" preserveAspectRatio="none" x="625" y="389" width="165" height="165" xlink:href="img/3.jpg"/>
<path d="M631.2,394.5V538.2h143V394.5h-143Z" class="g0_660"/>
<path d="M631.2,394.5V538.2h143V394.5h-143Z" class="g1_660"/>
<path d="M631,418H774.6" class="g2_660"/>
<g clip-path="url(#c0_660)">
<image clip-path="url(#c0_660)" preserveAspectRatio="none" x="306" y="600" width="88" height="89" xlink:href="img/4.jpg"/>
</g>
<path d="M92.3,200.1v22.8H294.9V200.1H92.3Z" class="g0_660"/>
<g clip-path="url(#c1_660)">
<image clip-path="url(#c1_660)" preserveAspectRatio="none" x="510" y="599" width="88" height="89" xlink:href="img/5.jpg"/>
</g>
<g clip-path="url(#c2_660)">
<image clip-path="url(#c2_660)" preserveAspectRatio="none" x="513" y="425" width="96" height="96" xlink:href="img/6.jpg"/>
</g>
<g clip-path="url(#c3_660)">
<image clip-path="url(#c3_660)" preserveAspectRatio="none" x="358" y="392" width="79" height="80" xlink:href="img/7.jpg"/>
</g>
<path d="M628.7,400.1V520.2H771.2V400.1H628.7Z" class="g3_660"/>
<image clip-path="url(#c7_660)" preserveAspectRatio="none" x="146" y="403" width="165" height="174" xlink:href="img/8.jpg"/>
<path d="M151.8,408.9V561.6h143V408.9h-143Z" class="g0_660"/>
<path d="M151.8,408.9V561.6h143V408.9h-143Z" class="g1_660"/>
<path d="M151.5,433.8H295.2" class="g2_660"/>
<path d="M149.9,413.7V565H273.3V413.7H149.9Zm-21,225.7V794H271.4V639.4H128.9Zm483.2,11.2V821.2H754.6V650.6H612.1Z" class="g3_660"/>
<path d="M363.4,596c1.3,-.5,2.8,-7.3,3.5,-9.4c1.4,-4.6,2.7,-9.2,4.1,-13.7c.6,-1.9,1.2,-3.3,1.9,-5.1c.7,-2,1,-4.1,1.5,-6.1c1.1,-4.3,1.8,-8.3,2.9,-12.5c.6,-2.4,1.2,-4.4,1.7,-6.8c.4,-2.3,1.3,-4.4,1.8,-6.6c.3,-1.5,.4,-2.9,.7,-4.4c.4,-2,1,-4.1,1.3,-6c.5,-3.5,1,-6.6,1.3,-9.8c.5,-3.9,.5,-6.9,1.2,-10.8c1.2,-6.2,1.6,-12.4,2,-18.2c0,-.7,.4,-1.8,.4,-2.6c0,.5,-.2,-1.6,-.2,-1.3l-.1,-1.8c0,-.5,.3,-1.4,.3,-1.8c-.1,-.5,-.8,-3.4,.1,-3.4c.4,0,.6,1.8,.7,2.4c.4,1.8,.9,2.2,1.8,2.9c.3,.2,1.1,.3,1,1.2c-.2,2.5,-1,-.6,-1,-.8c-.4,-1.4,-1.2,-2.8,-1.8,-3.8c-.2,-.4,-.3,-2,-1.1,-1.4c-.9,.6,-2,4.2,-2.6,5.6c-.8,1.7,-1.8,3.2,-2.5,5" class="g4_660"/>
<path d="M401.6,636.5c2.1,-.5,4.1,-1,6.4,-1.3c3.1,-.4,5.9,-1.6,9,-2.2c2,-.4,4.1,0,6.1,-.3c2.7,-.3,5.6,-1.2,8.3,-1.2c4.9,-.1,9.2,-.3,13.9,-.1c5.4,.1,9.8,1,15.2,.5c8.7,-.8,17.5,.3,25.7,1.1c1.1,.1,2.6,-.3,3.7,-.3c-.6,0,2.4,1.1,2,1l2.6,.7c.7,.2,2,-.1,2.6,.1c.7,.2,5.1,2.8,4.9,.7c-.1,-.9,-2.8,-2.1,-3.7,-2.5c-2.8,-1.4,-3.6,-2.7,-4.8,-5.3c-.4,-.7,-.8,-2.6,-2.1,-2.7c-3.6,-.2,1.2,2.6,1.5,2.7c2.1,1.5,4.4,3.7,6.1,5.5c.6,.6,3,1.4,2.4,3.2c-.7,1.8,-5.6,3.4,-7.4,4.4c-2.2,1.3,-4,3.3,-6.5,4.2" class="g5_660"/>
<path d="M395.8,612.7c1.9,.7,9.1,-4.8,11.6,-6.3c5.3,-3.3,10.5,-6.7,15.8,-10c2.2,-1.4,4,-2.2,6.2,-3.5c2.5,-1.3,4.5,-3.1,6.7,-4.7c4.7,-3.3,8.8,-6.7,13.5,-10.1c2.7,-1.8,5,-3.3,7.5,-5.3c2.4,-1.8,5,-3.2,7.4,-5c1.6,-1.2,2.9,-2.6,4.4,-3.8c2.1,-1.7,4.5,-3.2,6.4,-4.9c3.4,-3.1,6.5,-5.8,9.7,-8.8c3.6,-3.5,6.2,-6.5,10.2,-9.8c6.5,-5.3,12,-11.2,17.2,-16.7c.8,-.8,2,-1.5,2.7,-2.3c-.4,.4,1.1,-1.8,.9,-1.6l1.4,-1.8c.4,-.6,1.5,-1.3,1.8,-1.7c.3,-.5,2,-4.2,3,-3.3c.3,.3,-.9,2.4,-1.2,3.1c-1.2,2.2,-1.1,3.1,-.6,4.7c.2,.5,.9,1.4,0,2.2c-2.4,2.4,-.5,-1.6,-.4,-1.8c.7,-1.8,1.1,-4,1.3,-5.6c.1,-.6,1.3,-2.4,0,-2.6c-1.4,-.1,-5.7,2.5,-7.5,3.3c-2.2,1,-4.5,1.5,-6.7,2.8" class="g6_660"/>
<path d="M507.9,456.7c0,-1.1,-3.4,-2.5,-4.5,-3.1c-2.2,-1.3,-4.4,-2.6,-6.6,-3.9c-1,-.5,-1.6,-1.1,-2.4,-1.7c-1,-.6,-2.1,-.9,-3.1,-1.4c-2.1,-1.1,-4.2,-1.8,-6.4,-2.8c-1.2,-.6,-2.1,-1.2,-3.4,-1.7c-1.1,-.4,-2.1,-1.1,-3.2,-1.7c-.8,-.3,-1.6,-.4,-2.3,-.7c-1.1,-.4,-2.1,-1,-3.1,-1.3c-1.9,-.5,-3.5,-1,-5.2,-1.5c-2.1,-.5,-3.8,-.7,-5.8,-1.4c-3.3,-1.2,-6.7,-1.7,-9.9,-2.3c-.4,-.1,-.9,-.4,-1.3,-.5c.2,0,-1,.1,-.9,.1h-1c-.3,0,-.7,-.3,-1,-.3c-.2,0,-2.1,.4,-1.9,-.2c.1,-.3,1.2,-.5,1.6,-.5c1.1,-.2,1.5,-.6,2.1,-1.3c.2,-.2,.5,-.8,1,-.7c1.4,.3,-.6,.8,-.7,.8c-.9,.2,-1.9,.8,-2.7,1.2c-.2,.1,-1.2,.2,-1.1,.8c.1,.7,1.9,1.8,2.5,2.3c.8,.7,1.3,1.5,2.2,2.1" class="g7_660"/>
<path d="M499.8,647.7c-2.1,.5,-4.1,1,-6.4,1.3c-3.1,.4,-5.9,1.6,-9,2.2c-2,.3,-4.1,0,-6.1,.3c-2.8,.3,-5.6,1.2,-8.3,1.2c-4.9,.1,-9.2,.3,-13.9,.1c-5.4,-.2,-9.8,-1,-15.2,-.5c-8.7,.8,-17.5,-.3,-25.7,-1.1c-1.1,-.1,-2.6,.3,-3.7,.3c.6,0,-2.4,-1.1,-2,-1l-2.6,-.7c-.7,-.2,-2,.1,-2.6,-.1c-.7,-.2,-5.1,-2.8,-4.9,-.7c.1,.8,2.8,2.1,3.7,2.5c2.8,1.4,3.6,2.7,4.8,5.3c.4,.7,.8,2.6,2.1,2.7c3.6,.2,-1.2,-2.6,-1.5,-2.8c-2.1,-1.4,-4.4,-3.6,-6.1,-5.4c-.6,-.6,-3,-1.5,-2.4,-3.2c.7,-1.8,5.6,-3.4,7.4,-4.5c2.2,-1.2,4,-3.2,6.5,-4.2" class="g8_660"/>
<path d="M515.1,505.3c-1.9,-.7,-9.1,4.8,-11.6,6.3c-5.3,3.4,-10.5,6.7,-15.8,10c-2.2,1.4,-4,2.2,-6.2,3.5c-2.5,1.3,-4.5,3.1,-6.7,4.7c-4.7,3.3,-8.8,6.7,-13.6,10.1c-2.6,1.8,-4.9,3.3,-7.4,5.3c-2.4,1.8,-5,3.2,-7.4,5c-1.6,1.2,-2.9,2.6,-4.4,3.8c-2.1,1.7,-4.5,3.2,-6.5,4.9c-3.3,3.1,-6.4,5.8,-9.6,8.8c-3.6,3.5,-6.2,6.5,-10.2,9.8c-6.5,5.3,-12,11.2,-17.3,16.7c-.7,.8,-1.9,1.5,-2.6,2.3c.4,-.4,-1.1,1.8,-.9,1.6l-1.4,1.8c-.4,.6,-1.5,1.3,-1.8,1.7c-.3,.5,-2,4.2,-3,3.3c-.4,-.3,.9,-2.4,1.2,-3.1c1.2,-2.2,1.1,-3.1,.6,-4.7c-.2,-.5,-.9,-1.4,0,-2.2c2.4,-2.4,.5,1.6,.4,1.8c-.7,1.8,-1.1,4,-1.3,5.6c-.1,.6,-1.3,2.4,0,2.6c1.4,.1,5.7,-2.5,7.5,-3.3c2.2,-1,4.5,-1.5,6.7,-2.8" class="g6_660"/>
<path d="M375.7,476.6c-1.3,.6,-2.8,7.4,-3.4,9.5c-1.4,4.6,-2.8,9.1,-4.2,13.7c-.6,1.9,-1.2,3.3,-1.8,5.1c-.8,2,-1.1,4,-1.6,6.1c-1.1,4.2,-1.8,8.2,-2.9,12.5c-.6,2.4,-1.2,4.4,-1.7,6.8c-.4,2.2,-1.2,4.3,-1.7,6.6c-.4,1.4,-.5,2.9,-.7,4.3c-.4,2,-1.1,4.1,-1.4,6.1c-.4,3.4,-.9,6.5,-1.3,9.8c-.4,3.8,-.5,6.9,-1.2,10.7c-1.2,6.3,-1.5,12.4,-2,18.2c0,.8,-.3,1.8,-.4,2.6c0,-.4,.2,1.6,.2,1.4l.1,1.7c0,.5,-.3,1.5,-.2,1.9c0,.4,.7,3.4,-.2,3.4c-.3,0,-.6,-1.8,-.7,-2.4c-.4,-1.9,-.9,-2.3,-1.8,-2.9c-.3,-.2,-1.1,-.3,-1,-1.3c.3,-2.5,1,.7,1,.8c.5,1.4,1.2,2.8,1.8,3.8c.2,.4,.4,2.1,1.2,1.5c.8,-.7,2,-4.3,2.6,-5.7c.7,-1.6,1.7,-3.1,2.4,-4.9" class="g4_660"/>
<path d="M444.1,442.4c-.1,1,3.4,2.5,4.4,3.1c2.2,1.3,4.5,2.5,6.7,3.8c.9,.6,1.5,1.1,2.4,1.7c.9,.7,2,1,3.1,1.5c2.1,1,4.2,1.8,6.3,2.8c1.2,.6,2.2,1.1,3.4,1.6c1.2,.5,2.1,1.2,3.3,1.7c.7,.4,1.5,.5,2.3,.8c1,.4,2,1,3.1,1.3c1.8,.5,3.4,1,5.2,1.4c2.1,.6,3.8,.7,5.8,1.5c3.2,1.2,6.6,1.7,9.8,2.3c.4,.1,1,.4,1.4,.5c-.3,-.1,1,-.1,.8,-.1h1c.3,0,.8,.2,1,.2c.3,0,2.1,-.4,1.9,.3c-.1,.3,-1.2,.4,-1.5,.5c-1.2,.2,-1.6,.5,-2.2,1.2c-.2,.2,-.5,.9,-1,.7c-1.3,-.3,.7,-.7,.8,-.7c.9,-.3,1.9,-.8,2.6,-1.2c.3,-.2,1.3,-.2,1.1,-.9c-.1,-.7,-1.8,-1.7,-2.5,-2.3c-.7,-.6,-1.3,-1.5,-2.2,-2.1" class="g7_660"/>
<path d="M426.1,469.6c1.5,.3,6.9,8.1,8.8,10.5c3.9,5.1,7.9,10.2,11.9,15.3c1.7,2.2,3.1,3.7,4.7,5.7c1.9,2.2,3.4,4.6,5.1,6.9c3.5,4.8,6.6,9.4,10.1,14.3c2,2.7,3.7,5,5.6,7.7c1.8,2.6,3.8,4.9,5.6,7.5c1.2,1.7,2.2,3.4,3.3,5c1.6,2.3,3.4,4.7,4.8,7c2.6,4,4.9,7.5,7.2,11.4c2.8,4.4,4.6,8.1,7.7,12.5c4.8,7.2,8.9,14.5,12.8,21.3c.5,.9,1.4,2.1,2,3c-.3,-.5,.8,2,.6,1.7l1,2.1c.4,.6,1.2,1.7,1.4,2.2c.2,.5,1.4,4.1,2.2,4c.3,-.1,-.6,-2.3,-.8,-3.1c-.9,-2.2,-.7,-2.9,-.3,-3.9c.1,-.3,.7,-.6,0,-1.7c-1.7,-2.9,-.4,1,-.3,1.2c.5,1.8,.7,3.6,.8,5c.1,.5,1,2.5,-.1,2c-1.1,-.6,-4.3,-4.7,-5.7,-6.2c-1.6,-1.8,-3.4,-3.3,-5.1,-5.4m3.2,15.6c-1.5,-.3,-6.9,-8.1,-8.8,-10.5c-3.9,-5.1,-7.9,-10.2,-11.9,-15.3c-1.7,-2.2,-3.1,-3.7,-4.7,-5.7c-1.9,-2.2,-3.4,-4.6,-5.1,-6.9C478.6,568,475.5,563.4,472,558.5c-2,-2.7,-3.7,-5,-5.6,-7.7c-1.8,-2.6,-3.8,-4.9,-5.6,-7.5c-1.2,-1.7,-2.2,-3.4,-3.3,-5c-1.6,-2.3,-3.4,-4.7,-4.8,-7c-2.6,-4,-4.9,-7.5,-7.2,-11.4c-2.7,-4.4,-4.6,-8.1,-7.7,-12.5C433,500.2,428.9,492.9,425,486.1c-.5,-.9,-1.4,-2.1,-2,-3c.3,.5,-.8,-2,-.6,-1.7l-1,-2.1c-.4,-.6,-1.2,-1.7,-1.4,-2.2c-.2,-.5,-1.4,-4.1,-2.2,-4c-.3,.1,.6,2.3,.9,3.1c.8,2.2,.6,2.9,.2,3.9c-.1,.3,-.7,.6,0,1.7c1.7,2.9,.4,-1,.4,-1.2c-.6,-1.8,-.8,-3.6,-.9,-5c-.1,-.5,-1,-2.5,.1,-2c1.1,.6,4.3,4.7,5.7,6.2c1.6,1.8,3.4,3.3,5.1,5.4" class="g9_660"/>
<path d="M90.7,882.8V905h294V882.8H90.7Z" class="g0_660"/>
<path d="M615.8,671.9H759.5" class="g2_660"/>
<g clip-path="url(#c8_660)">
<path d="M-4.5,13.7H-27.4m939.5,0H935M-4.5,1031.2H-27.4m939.5,0H935M13.7,-4.5V-27.4m0,1077v22.9m880,-1077V-27.4m0,1077v22.9" class="ga_660"/>
<path d="M-4.5,13.7H-27.4m939.5,0H935M-4.5,1031.2H-27.4m939.5,0H935M13.7,-4.5V-27.4m0,1077v22.9m880,-1077V-27.4m0,1077v22.9" class="gb_660"/>
</g>
</svg>