<?xml version="1.0" encoding="UTF-8" standalone="no"?>
<!DOCTYPE svg PUBLIC "-//W3C//DTD SVG 1.1//EN"
"http://www.w3.org/Graphics/SVG/1.1/DTD/svg11.dtd">
<svg viewBox="0 0 931 1096" version="1.1" xmlns="http://www.w3.org/2000/svg" xmlns:xlink="http://www.w3.org/1999/xlink">
<defs>
<clipPath id="c0_244"><path d="M51.8,508.5V95.8H931.9V508.5Z"/></clipPath>
<clipPath id="c1_244"><path d="M52,624.2V590.6H825v33.6Z"/></clipPath>
<style type="text/css"><![CDATA[
.g0_244{
fill: none;
stroke: #241F1F;
stroke-width: 0.611;
stroke-miterlimit: 3;
}
.g1_244{
fill: #241F1F;
}
.g2_244{
fill: none;
stroke: #00AEEF;
stroke-width: 0.916;
stroke-linejoin: round;
}
.g3_244{
fill: none;
stroke: #EE008C;
stroke-width: 0.381;
stroke-miterlimit: 3;
}
.g4_244{
fill: #EE008C;
}
.g5_244{
fill: none;
stroke: #241F1F;
stroke-width: 0.763;
stroke-miterlimit: 3;
}
.g6_244{
fill: #00AEEF;
}
.g7_244{
fill: none;
stroke: #00AEEF;
stroke-width: 0.763;
stroke-miterlimit: 3;
}
.g8_244{
fill: none;
stroke: #00AEEF;
stroke-width: 0.763;
stroke-miterlimit: 3;
stroke-dasharray: 10,4;
}
.g9_244{
fill: none;
stroke: #241F1F;
stroke-width: 0.763;
stroke-linejoin: round;
}
.ga_244{
fill: none;
stroke: #241F1F;
stroke-width: 0.381;
stroke-miterlimit: 3;
}
]]></style>
</defs>
<path d="M70,749.3H250.3" class="g0_244"/>
<path fill-rule="evenodd" d="M250.3,749.3l-1.7,-2.4l6.6,2.4l-6.6,2.5Z" class="g1_244"/>
<path d="M211.2,652.8L70,749.3" class="g2_244"/>
<path d="M96.5,736c2.4,3.8,3.8,8.4,3.8,13.1" class="g3_244"/>
<path d="M94.7,733.2l3.7,2.8H96.5l-.8,1.8Z" class="g4_244"/>
<path d="M68.3,749.3c0,-.9,.7,-1.7,1.7,-1.7c.9,0,1.7,.8,1.7,1.7c0,1,-.8,1.7,-1.7,1.7c-1,0,-1.7,-.7,-1.7,-1.7Z" class="g1_244"/>
<path d="M68.3,749.3c0,-.9,.7,-1.7,1.7,-1.7c.9,0,1.7,.8,1.7,1.7c0,1,-.8,1.7,-1.7,1.7c-1,0,-1.7,-.7,-1.7,-1.7Z" class="g5_244"/>
<path d="M209.4,652.8c0,-1,.8,-1.8,1.8,-1.8c.9,0,1.7,.8,1.7,1.8c0,.9,-.8,1.7,-1.7,1.7c-1,0,-1.8,-.8,-1.8,-1.7Z" class="g6_244"/>
<path d="M209.4,652.8c0,-1,.8,-1.8,1.8,-1.8c.9,0,1.7,.8,1.7,1.8c0,.9,-.8,1.7,-1.7,1.7c-1,0,-1.8,-.8,-1.8,-1.7Z" class="g7_244"/>
<path d="M147.8,900.2H260.9" class="g0_244"/>
<path fill-rule="evenodd" d="M260.9,900.2l-1.7,-2.5l6.5,2.5l-6.5,2.4Z" class="g1_244"/>
<path d="M147.8,900.2L70.6,951.3" class="g8_244"/>
<path d="M147.8,900.2L225,849" class="g9_244"/>
<path d="M129.4,907.7c-.9,-2.4,-1.5,-5,-1.5,-7.5c0,-11,9,-20.2,20,-20.2c11.1,0,20.2,9.2,20.2,20.2" class="ga_244"/>
<path d="M130.7,910.7l-3.2,-3.4l1.9,.4l1.2,-1.6Z" class="g1_244"/>
<path d="M146.1,900.2c0,-1,.7,-1.8,1.7,-1.8c.9,0,1.7,.8,1.7,1.8c0,.9,-.8,1.7,-1.7,1.7c-1,0,-1.7,-.8,-1.7,-1.7Z" class="g1_244"/>
<path d="M146.1,900.2c0,-1,.7,-1.8,1.7,-1.8c.9,0,1.7,.8,1.7,1.8c0,.9,-.8,1.7,-1.7,1.7c-1,0,-1.7,-.8,-1.7,-1.7Z" class="g5_244"/>
<path d="M174.6,886.3c2.2,4,3.4,8.7,3.4,13.5" class="g3_244"/>
<path d="M173,883.4l3.5,3l-1.9,-.1l-1,1.7Z" class="g4_244"/>
<path d="M223.2,849c0,-1,.8,-1.7,1.8,-1.7c.9,0,1.7,.7,1.7,1.7c0,.9,-.8,1.7,-1.7,1.7c-1,0,-1.8,-.8,-1.8,-1.7Z" class="g1_244"/>
<path d="M223.2,849c0,-1,.8,-1.7,1.8,-1.7c.9,0,1.7,.7,1.7,1.7c0,.9,-.8,1.7,-1.7,1.7c-1,0,-1.8,-.8,-1.8,-1.7Z" class="g5_244"/>
<path d="M68.9,951.3c0,-.9,.8,-1.7,1.7,-1.7c1,0,1.8,.8,1.8,1.7c0,1,-.8,1.8,-1.8,1.8c-.9,0,-1.7,-.8,-1.7,-1.8Z" class="g6_244"/>
<path d="M68.9,951.3c0,-.9,.8,-1.7,1.7,-1.7c1,0,1.8,.8,1.8,1.7c0,1,-.8,1.8,-1.8,1.8c-.9,0,-1.7,-.8,-1.7,-1.8Z" class="g7_244"/>
<image clip-path="url(#c0_244)" preserveAspectRatio="none" x="52" y="96" width="883" height="412" xlink:href="img/1.png"/>
<image clip-path="url(#c1_244)" preserveAspectRatio="none" x="52" y="591" width="773" height="33" xlink:href="img/2.png"/>
</svg>