<?xml version="1.0" encoding="UTF-8" standalone="no"?>
<!DOCTYPE svg PUBLIC "-//W3C//DTD SVG 1.1//EN"
"http://www.w3.org/Graphics/SVG/1.1/DTD/svg11.dtd">
<svg viewBox="0 0 931 1096" version="1.1" xmlns="http://www.w3.org/2000/svg" xmlns:xlink="http://www.w3.org/1999/xlink">
<defs>
<clipPath id="c0_91"><path d="M258.5,801.3v-33H358.8v33Z"/></clipPath>
<style type="text/css"><![CDATA[
.g0_91{
fill: none;
stroke: #00AEEF;
stroke-width: 0.763;
stroke-miterlimit: 10;
}
.g1_91{
fill: none;
stroke: #241F1F;
stroke-width: 0.687;
stroke-miterlimit: 10;
}
.g2_91{
fill: none;
stroke: #00AEEF;
stroke-width: 0.916;
stroke-linejoin: round;
}
.g3_91{
fill: none;
stroke: #EE008C;
stroke-width: 0.916;
stroke-linejoin: round;
}
.g4_91{
fill: none;
stroke: #241F1F;
stroke-width: 0.611;
stroke-miterlimit: 3;
}
.g5_91{
fill: #241F1F;
}
.g6_91{
fill: none;
stroke: #241F1F;
stroke-width: 0.481;
stroke-miterlimit: 10;
}
.g7_91{
fill: #00AEEF;
}
]]></style>
</defs>
<path d="M129.9,182.4H487.4M129.9,300H487.4M129.9,525.2H487.4M129.9,953.4H487.4" class="g0_91"/>
<path d="M254.9,270.8H264" class="g1_91"/>
<path d="M130.1,489.6c41.4,-1.6,51.5,-35.9,73.6,-35.9c22,0,32.1,34.3,73.5,35.9" class="g2_91"/>
<path d="M130.1,480.9c10.1,-6.5,14.3,-14.7,22.1,-14.7c8.8,0,16,11.1,25.3,24.1c19.2,-27.4,18.2,-73.4,26.2,-73.4c7.9,0,6.9,46,26.1,73.4c9.3,-13,16.5,-24.1,25.3,-24.1c7.8,0,12,8.2,22.1,14.7" class="g3_91"/>
<path d="M203.6,508.8l.1,-102.4" class="g4_91"/>
<path fill-rule="evenodd" d="M203.7,406.4l-2.5,1.6l2.5,-6.5l2.4,6.5Z" class="g5_91"/>
<path d="M130.2,490.4H276.9" class="g4_91"/>
<path fill-rule="evenodd" d="M276.9,490.4L275.3,488l6.5,2.4l-6.5,2.5Z" class="g5_91"/>
<path d="M354.2,490.4c18.3,-36.6,37,-76.6,58.9,-76.6c22,0,41.1,40,59.5,76.6" class="g3_91"/>
<path d="M354.2,490.4c40.1,-23.6,44.7,-76.6,58.9,-76.6c14.3,0,19.4,53,59.5,76.6" class="g2_91"/>
<path d="M354.2,508.8V406.4" class="g4_91"/>
<path fill-rule="evenodd" d="M354.2,406.4l-2.5,1.6l2.5,-6.5l2.4,6.5Z" class="g5_91"/>
<path d="M335.8,490.4H482.5" class="g4_91"/>
<path fill-rule="evenodd" d="M482.5,490.4L480.9,488l6.5,2.4l-6.5,2.5Z" class="g5_91"/>
<path d="M300.9,647.8h4.8m62,0h4.8" class="g6_91"/>
<path clip-path="url(#c0_91)" d="M286.5,784.3h72.6" class="g1_91"/>
<path d="M109.7,214.1h15.7v-9.8H109.7v9.8Z" class="g7_91"/>
<path d="M109.7,557h15.7v-9.8H109.7V557Z" class="g7_91"/>
<path d="M109.7,653.2h15.7v-9.8H109.7v9.8Z" class="g7_91"/>
<path d="M521,173.2H878.5M521,286.2H878.5" class="g0_91"/>
<path d="M609.6,127.8h4.8m57.9,0h4.8M572.6,398.2h4.8m163.2,0h4.8M666.9,633.4h4.8" class="g6_91"/>
<path d="M613.2,828.5h9m30.7,0h9m7.9,82.3h21.7" class="g1_91"/>
<path d="M500.8,486.1h15.7v-9.8H500.8v9.8Z" class="g7_91"/>
</svg>