<?xml version="1.0" encoding="UTF-8" standalone="no"?>
<!DOCTYPE svg PUBLIC "-//W3C//DTD SVG 1.1//EN"
"http://www.w3.org/Graphics/SVG/1.1/DTD/svg11.dtd">
<svg viewBox="0 0 907 1045" version="1.1" xmlns="http://www.w3.org/2000/svg" xmlns:xlink="http://www.w3.org/1999/xlink">
<defs>
<clipPath id="c0_473"><path d="M255.9,551.6V307.9H428.1V551.6Z"/></clipPath>
<clipPath id="c1_473"><path d="M-2.6,1047.7V-2.6H910.2V1047.7Z"/></clipPath>
<style type="text/css"><![CDATA[
.g0_473{
fill: #FFFFFF;
}
.g1_473{
fill: none;
stroke: #000000;
stroke-width: 1.527;
stroke-linecap: butt;
stroke-linejoin: miter;
stroke-miterlimit: 4;
}
.g2_473{
fill: none;
stroke: #000000;
stroke-width: 0.763;
stroke-linecap: butt;
stroke-linejoin: miter;
stroke-miterlimit: 4;
}
.g3_473{
fill: none;
stroke: #FFFFFF;
stroke-width: 1.909;
stroke-linecap: butt;
stroke-linejoin: miter;
}
.g4_473{
fill: none;
stroke: #000000;
stroke-width: 0.381;
stroke-linecap: butt;
stroke-linejoin: miter;
}
]]></style>
</defs>
<path d="M133,625.9v59.8H367.4V625.9H133Z" class="g0_473"/>
<path d="M91.5,610.8V764.3H816.8V610.8H91.5Z" class="g1_473"/>
<path d="M101.9,597.2V657H305.6V597.2H101.9Z" class="g0_473"/>
<path d="M133,814.1v59.8H367.4V814.1H133Z" class="g0_473"/>
<path d="M91.5,799.1V952.6H816.8V799.1H91.5Z" class="g1_473"/>
<path d="M101.9,785.4v59.8H305.6V785.4H101.9Z" class="g0_473"/>
<image clip-path="url(#c0_473)" preserveAspectRatio="none" x="256" y="308" width="172" height="244" xlink:href="img/1.jpg"/>
<path d="M356.5,297.9c-2.7,.9,-2.2,4,-1.8,6.1c4.3,2.1,8.3,2,10.1,-2.6c-1.7,-1.5,-6.8,-6.5,-8.3,-2.4Z" class="g0_473"/>
<path d="M356.5,297.9c-2.7,.9,-2.2,4,-1.8,6.1c4.3,2.1,8.3,2,10.1,-2.6c-1.7,-1.5,-6.8,-6.5,-8.3,-2.4" class="g2_473"/>
<path d="M351.3,314.4c-3.9,-1.2,-3.2,3.3,-2.8,5.8c2.6,-.6,5.1,5,6.6,-.1c.9,-3.4,-2.6,-6.3,-5.7,-5.7Z" class="g0_473"/>
<path d="M351.3,314.4c-3.9,-1.2,-3.2,3.3,-2.8,5.8c2.6,-.6,5.1,5,6.6,-.1c.9,-3.4,-2.6,-6.3,-5.7,-5.7" class="g2_473"/>
<path d="M461,352.6c-7,-1.6,-10.9,11.5,-11.3,16.1c-.5,5.6,2.4,9.5,6.2,13.5c2.6,2.7,5.2,2.9,8,4.9c-2.6,5.6,-4.2,9.4,-1.7,16.2c3.1,8.5,14.3,23.4,22.8,27.9c3,1.6,7.5,.3,9.5,3c1.6,2.4,1.1,6,2.8,8.6c4.9,7.5,15.1,12.1,23.6,12.9c6,.7,22.3,.9,26,-6.8c2,1.4,3.6,4.3,5.6,6.2c8.5,8.1,17.4,9,29.4,10.6c10.4,1.4,17.4,-.8,26,-7c3.1,-2.2,8.2,-4.9,9.6,-8.5c10.7,10,29.5,5.8,41.7,1c11.7,-4.7,22.3,-11.8,21.1,-25.1c1.6,4.7,14.4,-3.5,16.3,-4.7c6.2,-3.8,9.6,-7.3,13.3,-13.2c3.1,-5,6.4,-9.1,6,-15.2c.5,-2.7,-.2,-5.1,-2,-7.3c-1.5,-2,-7.5,-4.4,-7.8,-7.2c4.3,-2.7,7.7,-4.7,10.3,-9c4.8,-8,3.4,-19.4,0,-27.7c-6.1,-14.7,-23.5,-20.2,-38.6,-19.5c4.1,-1.7,8.5,-4.7,7.8,-9.6c-.4,-3.2,-6.5,-8.4,-8.6,-10.3c-4.8,-4.3,-6.3,-3.7,-13.6,-4.7c-18.9,-2.6,-34.7,-3.8,-52.9,1.4c-8,2.4,-24.3,6.8,-25.2,17.2c1.7,-5.9,-4.8,-11.5,-9.5,-13.9c-11.4,-6,-23.5,-5.6,-35.9,-4c-8.8,1.1,-36.6,7.1,-30.7,21.3c-7.9,-9.1,-26.2,-.8,-33.7,5.4c-2.2,1.8,-23.8,26.9,-14.5,28.5Z" class="g0_473"/>
<path d="M461,352.6c-7,-1.6,-10.9,11.5,-11.3,16.1c-.5,5.6,2.4,9.5,6.2,13.5c2.6,2.7,5.2,2.9,8,4.9c-2.6,5.6,-4.2,9.4,-1.7,16.2c3.1,8.5,14.3,23.4,22.8,27.9c3,1.6,7.5,.3,9.5,3c1.6,2.4,1.1,6,2.8,8.6c4.9,7.5,15.1,12.1,23.6,12.9c6,.7,22.3,.9,26,-6.8c2,1.4,3.6,4.3,5.6,6.2c8.5,8.1,17.4,9,29.4,10.6c10.4,1.4,17.4,-.8,26,-7c3.1,-2.2,8.2,-4.9,9.6,-8.5c10.7,10,29.5,5.8,41.7,1c11.7,-4.7,22.3,-11.8,21.1,-25.1c1.6,4.7,14.4,-3.5,16.3,-4.7c6.2,-3.8,9.6,-7.3,13.3,-13.2c3.1,-5,6.4,-9.1,6,-15.2c.5,-2.7,-.2,-5.1,-2,-7.3c-1.5,-2,-7.5,-4.4,-7.8,-7.2c4.3,-2.7,7.7,-4.7,10.3,-9c4.8,-8,3.4,-19.4,0,-27.7c-6.1,-14.7,-23.5,-20.2,-38.6,-19.5c4.1,-1.7,8.5,-4.7,7.8,-9.6c-.4,-3.2,-6.5,-8.4,-8.6,-10.3c-4.8,-4.3,-6.3,-3.7,-13.6,-4.7c-18.9,-2.6,-34.7,-3.8,-52.9,1.4c-8,2.4,-24.3,6.8,-25.2,17.2c1.7,-5.9,-4.8,-11.5,-9.5,-13.9c-11.4,-6,-23.5,-5.6,-35.9,-4c-8.8,1.1,-36.6,7.1,-30.7,21.3c-7.9,-9.1,-26.2,-.8,-33.7,5.4c-2.2,1.8,-23.8,26.9,-14.5,28.5" class="g1_473"/>
<path d="M437.8,334.3c-2.7,.8,-2.2,3.9,-1.8,6.1c4.3,2.1,8.2,1.9,10.1,-2.7c-1.8,-1.5,-6.8,-6.5,-8.3,-2.4Z" class="g0_473"/>
<path d="M437.8,334.3c-2.7,.8,-2.2,3.9,-1.8,6.1c4.3,2.1,8.2,1.9,10.1,-2.7c-1.8,-1.5,-6.8,-6.5,-8.3,-2.4" class="g2_473"/>
<path d="M420.4,329c-3.9,-1.2,-3.2,3.4,-2.8,5.8c2.6,-.5,5.1,5,6.5,-.1c1,-3.3,-2.6,-6.3,-5.7,-5.7Z" class="g0_473"/>
<path d="M420.4,329c-3.9,-1.2,-3.2,3.4,-2.8,5.8c2.6,-.5,5.1,5,6.5,-.1c1,-3.3,-2.6,-6.3,-5.7,-5.7" class="g2_473"/>
<path d="M301.3,149.7c-4.2,1.2,-7.9,3.4,-11.7,4.6c-4,1.4,-6.5,1.1,-10.5,4.2c-3,2.4,-3.6,4.3,-7.7,5.2c-1.2,5.8,-.5,10.1,3.1,14.9c2.2,2.8,10,10.6,14.4,10.8c-5.3,7.7,-11.7,15.1,-6.7,24.4c2.1,3.8,8.7,12.9,13.7,15c4.5,1.9,11.6,0,16.5,.7c.7,3.5,-.8,7.5,.5,10.9c2.2,5.5,9,11.7,13.7,15.8c10.2,9.3,36.4,25.6,50.7,14.9c5.6,10.7,19.1,20.1,32.8,24.3c9.2,2.9,27.9,4.8,37.2,1.9c5.8,-1.8,11.1,-9.2,17.1,-10.1c2.7,-.4,12.3,4.6,15.1,5c13.1,2.1,29.6,2,42.5,-.2c18.9,-3.3,28.4,-15.4,33.9,-29c4.3,7.2,27.7,1.3,33.9,-1.3C602,256.6,614.7,248.9,619.5,238c3.5,-8,-6.8,-16,-4.1,-22.3c1.2,-2.9,5.1,-4.7,7.1,-7.3c11.1,-14.3,6.4,-28.2,-3.5,-41.5C608.4,152.8,594.6,143.5,574.6,138.8c-5.1,-1.2,-9.8,-2,-15.1,-1.8c-3,.2,.6,-2.7,-2.4,-3.2c15,-15.6,-42.7,-25.1,-52.1,-26.4c-23.7,-3.2,-51.4,.2,-73.5,6.8c-10.6,3.1,-21.2,1.8,-31.2,5c1.9,-16.8,-36.9,-5.5,-47.2,-3c-12.3,3,-27.8,9.1,-35.2,17.7c-4.6,5.3,-6.8,11.8,-10.8,17.3Z" class="g0_473"/>
<path d="M301.3,149.7c-4.2,1.2,-7.9,3.4,-11.7,4.6c-4,1.4,-6.5,1.1,-10.5,4.2c-3,2.4,-3.6,4.3,-7.7,5.2c-1.2,5.8,-.5,10.1,3.1,14.9c2.2,2.8,10,10.6,14.4,10.8c-5.3,7.7,-11.7,15.1,-6.7,24.4c2.1,3.8,8.7,12.9,13.7,15c4.5,1.9,11.6,0,16.5,.7c.7,3.5,-.8,7.5,.5,10.9c2.2,5.5,9,11.7,13.7,15.8c10.2,9.3,36.4,25.6,50.7,14.9c5.6,10.7,19.1,20.1,32.8,24.3c9.2,2.9,27.9,4.8,37.2,1.9c5.8,-1.8,11.1,-9.2,17.1,-10.1c2.7,-.4,12.3,4.6,15.1,5c13.1,2.1,29.6,2,42.5,-.2c18.9,-3.3,28.4,-15.4,33.9,-29c4.3,7.2,27.7,1.3,33.9,-1.3C602,256.6,614.7,248.9,619.5,238c3.5,-8,-6.8,-16,-4.1,-22.3c1.2,-2.9,5.1,-4.7,7.1,-7.3c11.1,-14.3,6.4,-28.2,-3.5,-41.5C608.4,152.8,594.6,143.5,574.6,138.8c-5.1,-1.2,-9.8,-2,-15.1,-1.8c-3,.2,.6,-2.7,-2.4,-3.2c15,-15.6,-42.7,-25.1,-52.1,-26.4c-23.7,-3.2,-51.4,.2,-73.5,6.8c-10.6,3.1,-21.2,1.8,-31.2,5c1.9,-16.8,-36.9,-5.5,-47.2,-3c-12.3,3,-27.8,9.1,-35.2,17.7c-4.6,5.3,-6.8,11.8,-10.8,17.3" class="g1_473"/>
<g clip-path="url(#c1_473)">
<path d="M-4.5,13.7H-27.4m939.5,0H935M-4.5,1031.2H-27.4m939.5,0H935M13.7,-4.5V-27.4m0,1077v22.9m880,-1077V-27.4m0,1077v22.9" class="g3_473"/>
<path d="M-4.5,13.7H-27.4m939.5,0H935M-4.5,1031.2H-27.4m939.5,0H935M13.7,-4.5V-27.4m0,1077v22.9m880,-1077V-27.4m0,1077v22.9" class="g4_473"/>
</g>
</svg>