<?xml version="1.0" encoding="UTF-8" standalone="no"?>
<!DOCTYPE svg PUBLIC "-//W3C//DTD SVG 1.1//EN"
"http://www.w3.org/Graphics/SVG/1.1/DTD/svg11.dtd">
<svg viewBox="0 0 931 1096" version="1.1" xmlns="http://www.w3.org/2000/svg" xmlns:xlink="http://www.w3.org/1999/xlink">
<defs>
<clipPath id="c0_145"><path d="M445.8,201V167.5h98.1V201Z"/></clipPath>
<clipPath id="c1_145"><path d="M617.7,199.3V167.5H774.9v31.8Z"/></clipPath>
<clipPath id="c2_145"><path d="M342.2,847.6V830.7h83.3v16.9Z"/></clipPath>
<clipPath id="c3_145"><path d="M255.2,871.4l.2,-.2l.1,-.2v-7.7l-.1,-.2l-.2,-.2H172.7l-.3,.2l-.1,.2V871l.1,.2l.3,.2ZM108.5,946.8V777c2.3,.5,4.6,1,6.9,1.5c4,-.2,8.1,-.5,12.2,-.7c3.3,-.8,6.6,-1.6,9.9,-2.3c2.6,.7,5.1,1.5,7.7,2.3c2.8,-.5,5.6,-1,8.4,-1.6c2.4,.3,4.8,.6,7.2,.9c1.9,.2,3.8,.4,5.7,.7c3.9,-.5,7.7,-1,11.5,-1.6c2.8,.3,5.6,.6,8.4,.8h9.2c4.1,.3,8.1,.5,12.2,.8c2,.1,4.1,.3,6.1,.4c1.3,.1,2.6,.2,3.8,.3c2.8,-.2,5.6,-.5,8.4,-.7c2.8,-.5,5.6,-1,8.4,-1.6c3.3,.3,6.6,.6,10,.8c2.3,.3,4.5,.5,6.8,.8c2.8,-.3,5.6,-.5,8.4,-.8c2.4,-.2,4.8,-.4,7.2,-.6c.4,-.1,.8,-.1,1.2,-.2c3.3,.6,6.7,1.1,10,1.6c3.8,.7,7.6,1.5,11.4,2.3c3.3,-.8,6.6,-1.6,10,-2.3c3.5,.7,7.1,1.5,10.7,2.3c3,-.3,6.1,-.6,9.1,-.8c0,14,0,27.9,0,41.9c0,13.9,0,27.9,0,41.9c0,13.9,0,27.9,0,41.8c0,14,0,28,0,41.9Z"/></clipPath>
<clipPath id="c4_145"><path d="M173,870.6v-6.9h81.8v6.9Z"/></clipPath>
<clipPath id="c5_145"><path d="M255.2,871v-7.7H172.7V871Zm-82.5,.4l-.3,-.2l-.1,-.2v-7.7l.1,-.2l.3,-.2h82.5l.2,.2l.1,.2V871l-.1,.2l-.2,.2Z"/></clipPath>
<clipPath id="c6_145"><path d="M254.8,870.6v-6.9H173v6.9Zm-82.1,.4v-7.7h82.5V871Z"/></clipPath>
<clipPath id="c7_145"><path d="M153.7,199.9L136.6,165.6h149l-17.3,34.3Zm133.7,-38v-4H134.6v3.7L123.3,138.8H299l-11.6,23.1Z"/></clipPath>
<clipPath id="c8_145"><path d="M136.6,165.6l-2,-4v-3.7H287.4v4l-1.8,3.7Z"/></clipPath>
<style type="text/css"><![CDATA[
.g0_145{
fill: none;
stroke: #241F1F;
stroke-width: 0.763;
stroke-miterlimit: 10;
}
.g1_145{
fill: none;
stroke: #241F1F;
stroke-width: 0.534;
stroke-miterlimit: 10;
}
.g2_145{
fill: #E0DDCD;
}
.g3_145{
fill: none;
stroke: #241F1F;
stroke-width: 0.381;
stroke-miterlimit: 3;
}
.g4_145{
fill: #241F1F;
}
.g5_145{
fill: none;
stroke: #241F1F;
stroke-width: 0.611;
stroke-miterlimit: 3;
}
.g6_145{
fill: none;
stroke: #241F1F;
stroke-width: 1.069;
stroke-linejoin: round;
}
.g7_145{
fill: none;
stroke: #241F1F;
stroke-width: 0.534;
stroke-miterlimit: 3;
}
.g8_145{
fill: none;
stroke: #241F1F;
stroke-width: 0.763;
stroke-miterlimit: 3;
stroke-dasharray: 10,4;
}
.g9_145{
fill: #FECDE0;
}
.ga_145{
fill: none;
stroke: #EE008C;
stroke-width: 0.763;
stroke-linejoin: round;
}
.gb_145{
fill: none;
stroke: #241F1F;
stroke-width: 0.763;
stroke-linejoin: round;
}
.gc_145{
fill: none;
stroke: #969698;
stroke-width: 0.763;
stroke-miterlimit: 3;
stroke-dasharray: 9,4;
}
.gd_145{
fill: none;
stroke: #969698;
stroke-width: 0.763;
stroke-miterlimit: 3;
stroke-dasharray: 10,4;
}
]]></style>
</defs>
<path d="M446.2,183.6h56.3" class="g0_145"/>
<path clip-path="url(#c0_145)" d="M524.4,183.6h19.9" class="g0_145"/>
<path d="M647.6,183.6h56.3" class="g0_145"/>
<path clip-path="url(#c1_145)" d="M755.3,183.6h20" class="g0_145"/>
<path d="M660.1,240h5.4" class="g1_145"/>
<path d="M737.4,612.9h18.2" class="g0_145"/>
<path clip-path="url(#c2_145)" d="M363.1,831.1h62.8" class="g0_145"/>
<path d="M596.4,867h62.9m-9.7,149.7h62.8" class="g0_145"/>
<image clip-path="url(#c3_145)" x="108" y="775" width="212" height="172" xlink:href="shade/1.png"/>
<path d="M108.5,955.8H319.3v-9H108.5v9Z" class="g2_145"/>
<image clip-path="url(#c4_145)" preserveAspectRatio="none" x="173" y="863" width="82" height="8" xlink:href="img/1.jpg"/>
<image clip-path="url(#c5_145)" preserveAspectRatio="none" x="172" y="862" width="84" height="10" xlink:href="img/2.jpg"/>
<image clip-path="url(#c6_145)" preserveAspectRatio="none" x="172" y="863" width="84" height="9" xlink:href="img/3.jpg"/>
<path d="M246.8,837.4l-11.1,17.5" class="g3_145"/>
<path d="M233.9,857.7l.9,-4.5l.9,1.7h1.9Z" class="g4_145"/>
<path d="M213.9,955.8v-188" class="g5_145"/>
<path fill-rule="evenodd" d="M213.9,767.8l-2.4,1.7l2.4,-6.5l2.4,6.5Z" class="g4_145"/>
<path d="M108.5,896.2H314.7" class="g5_145"/>
<path fill-rule="evenodd" d="M314.7,896.2l-1.6,-2.5l6.5,2.5l-6.5,2.4Z" class="g4_145"/>
<path d="M163.5,896.2c0,-27.9,22.6,-50.4,50.4,-50.4c27.8,0,50.4,22.5,50.4,50.4c0,27.8,-22.6,50.4,-50.4,50.4c-27.8,0,-50.4,-22.6,-50.4,-50.4Z" class="g6_145"/>
<path d="M126.8,848.1V782.4" class="g7_145"/>
<path d="M126.8,778.7l1.9,4.8l-1.9,-1.1l-1.8,1.1Z" class="g4_145"/>
<path d="M126.8,865.6V943" class="g7_145"/>
<path d="M126.8,946.7L125,941.9l1.8,1.1l1.9,-1.1Z" class="g4_145"/>
<path d="M149.8,822.8l-.1,-40.4" class="g7_145"/>
<path d="M149.7,778.7l1.9,4.8l-1.9,-1.1l-1.8,1.1Z" class="g4_145"/>
<path d="M149.8,840.4l-.1,52" class="g7_145"/>
<path d="M149.7,896l-1.8,-4.8l1.8,1.2l1.9,-1.2Z" class="g4_145"/>
<path d="M172.7,867.2h82.5" class="g8_145"/>
<path d="M226.1,871v21.4" class="g7_145"/>
<path d="M226.1,867.3l1.9,4.8L226.1,871l-1.8,1.1Z" class="g4_145"/>
<path d="M226.1,896l-1.8,-4.8l1.8,1.2l1.9,-1.2Z" class="g4_145"/>
<path d="M259.6,862.9c.8,0,1,.5,1,1v.5c0,1.4,-.1,2.6,1.2,2.6c-1.3,.1,-1.2,1.2,-1.2,2.6v.5c0,.5,-.2,1,-1,1m-45.8,-9.4c.1,-1.3,1.2,-1.8,2.6,-1.8h15c1.4,-.1,2.5,0,2.6,-1.2c0,1.2,1.2,1.1,2.5,1.2H252c1.4,0,2.7,.5,2.8,1.8M189.3,808.3V782.4" class="g7_145"/>
<path d="M189.3,778.7l1.8,4.8l-1.8,-1.1l-1.9,1.1Z" class="g4_145"/>
<path d="M189.3,825.9v37.4" class="g7_145"/>
<path d="M189.3,867l-1.9,-4.8l1.9,1.1l1.8,-1.1Z" class="g4_145"/>
<image clip-path="url(#c7_145)" x="123" y="138" width="176" height="62" xlink:href="shade/2.png"/>
<path d="M287.4,165.5h-1.8l1.8,-3.6v3.6m-150.8,0h-2v-3.9Z" class="g9_145"/>
<image clip-path="url(#c8_145)" preserveAspectRatio="none" x="134" y="157" width="154" height="9" xlink:href="img/4.jpg"/>
<path d="M211,319.1h19.1" class="ga_145"/>
<path d="M249.2,280.9H211v76.4l38.2,-76.4Z" class="gb_145"/>
<path d="M208.3,320.4c-1.3,.1,-1.8,1.2,-1.8,2.6v11.9c-.1,1.4,0,2.6,-1.2,2.6c1.2,0,1.1,1.2,1.2,2.6v12.4c0,1.4,.5,2.7,1.8,2.7M139.2,311.8V284.7m-7.6,72.6h13.7M131.6,280.9h13.7" class="g7_145"/>
<path d="M139.2,281l1.8,4.9l-1.8,-1.2l-1.8,1.2Z" class="g4_145"/>
<path d="M139.2,327.5v26" class="g7_145"/>
<path d="M139.2,357.1l-1.8,-4.8l1.8,1.2l1.8,-1.2Z" class="g4_145"/>
<path d="M134.6,165.5H287.4v-7.6H134.6v7.6ZM211,97.6V225.9" class="g5_145"/>
<path fill-rule="evenodd" d="M211,225.9l2.4,-1.6l-2.4,6.5l-2.4,-6.5Z" class="g4_145"/>
<path d="M306.5,123.6l-38.2,76.3H153.7L115.5,123.6h191Z" class="gb_145"/>
<path d="M268.3,199.9V123.6" class="gc_145"/>
<path d="M134.6,161.7H287.4" class="gd_145"/>
<path d="M123.3,138.8H299" class="gb_145"/>
<path d="M131.8,157.3c-.8,0,-1,.6,-1,1.1v.5c-.1,1.4,0,2.5,-1.2,2.6c1.2,0,1.1,1.1,1.2,2.5v.5c0,.6,.2,1.1,1,1.1m76.5,-26.2c-1.3,0,-1.8,1.1,-1.8,2.5V147c-.1,1.4,0,2.5,-1.2,2.6c1.2,0,1.1,1.2,1.2,2.6v5.5c0,1.4,.5,2.7,1.8,2.7" class="g7_145"/>
</svg>