<?xml version="1.0" encoding="UTF-8" standalone="no"?>
<!DOCTYPE svg PUBLIC "-//W3C//DTD SVG 1.1//EN"
"http://www.w3.org/Graphics/SVG/1.1/DTD/svg11.dtd">
<svg viewBox="0 0 907 1045" version="1.1" xmlns="http://www.w3.org/2000/svg" xmlns:xlink="http://www.w3.org/1999/xlink">
<defs>
<clipPath id="c0_276"><path d="M595.6,305.9V162.7h95.9V305.9Z"/></clipPath>
<clipPath id="c1_276"><path d="M-2.6,1047.7V-2.6H910.2V1047.7Z"/></clipPath>
<style type="text/css"><![CDATA[
.g0_276{
fill: none;
stroke: #000000;
stroke-width: 1.527;
stroke-linecap: butt;
stroke-linejoin: miter;
stroke-miterlimit: 4;
}
.g1_276{
fill: none;
stroke: #636363;
stroke-width: 1.527;
stroke-linecap: butt;
stroke-linejoin: miter;
stroke-miterlimit: 4;
}
.g2_276{
fill: none;
stroke: #FFFFFF;
stroke-width: 1.909;
stroke-linecap: butt;
stroke-linejoin: miter;
}
.g3_276{
fill: none;
stroke: #000000;
stroke-width: 0.381;
stroke-linecap: butt;
stroke-linejoin: miter;
}
]]></style>
</defs>
<image clip-path="url(#c0_276)" preserveAspectRatio="none" x="596" y="163" width="95" height="143" xlink:href="img/1.jpg"/>
<path d="M347.1,153h53.6m-230.4,1h53.6" class="g0_276"/>
<path d="M470.4,347.4c.4,-2.7,-1.6,-4.9,-3,-7c-3.1,-4.9,-5.4,-11.3,-10.3,-14.8c-7,-5.1,-20.4,-7.8,-28.8,-5.8c-9.7,2.2,-17.8,6,-23.7,13.8c-3.1,4.2,-5.4,9.7,-8.8,13.6c-4.3,-2.5,1.2,-12.6,3.1,-15.2c-2.8,5.1,-2.2,11.8,-3.3,17.3c4.6,.5,11.4,-.5,15.9,-1.9M564.8,597.6c-6,6,-17.6,3.6,-24.9,1.2c-3.3,-1,-8.3,-2.8,-10.9,-5.2c-1.8,-1.7,-2.2,-4.8,-4.1,-6.2c-.2,1.3,.5,8.7,-1.3,8c-1.5,-.7,0,-7.3,.1,-8.9c3.1,-.9,7.1,.4,10.4,.4M569,613.7c-3.4,.6,-7.3,-2,-10.7,-2.3c-5,-.4,-9.9,.2,-14.8,1.1c-4.6,.9,-7.1,2.5,-10.4,5.9c-1.8,2,-4.1,3.7,-4.3,6.6c.1,-2.8,-.2,-5.6,.1,-8.3c-2.3,1.9,-3.9,5.5,-3.5,8.4c2.7,-1,7.6,-4.4,10.3,-2.2M442.2,811.6c-2.3,-.7,-4.7,-1.4,-7.2,-.9c-2.9,.5,-6.1,2,-8.8,3.2c-2.4,1,-5.5,2.7,-6.8,5c-1.1,1.9,-1.2,4.1,-1.7,6.1c-.6,2.6,-1.8,4.9,-3.1,7.3c-.6,1,-1.1,2.1,-2.2,2.4c-.7,.2,-2.4,.4,-3,.3c-.2,-.6,.1,-3.4,.7,-3.7c.2,.6,-.9,1.8,-1.2,2.5c-.6,1.2,-1,2.4,-1.4,3.7c1.2,.2,1.9,.2,3.1,.6c1.6,.6,3.7,1.1,5.3,1.3m26.3,39.7c-7.4,1.8,-15.3,1.6,-22.7,.3c-3.8,-.7,-7.5,-2.2,-10.5,-4.6c-2.5,-2.1,-4,-4.8,-5.7,-7.5c-3.1,-4.6,-6.8,-7.8,-12.1,-9.6c-2.8,-.9,-5.5,-1.5,-8.2,-2.8c1.1,-1.5,5,-.7,6.7,-1.3c-2.8,1,-6,.7,-8.8,1.7c.3,.1,.5,.3,.6,.6c.5,1.2,.8,2.2,1.5,3.4c.5,.8,1.7,4.2,2.9,4.1" class="g1_276"/>
<g clip-path="url(#c1_276)">
<path d="M-4.5,13.7H-27.4m939.5,0H935M-4.5,1031.2H-27.4m939.5,0H935M13.7,-4.5V-27.4m0,1077v22.9m880,-1077V-27.4m0,1077v22.9" class="g2_276"/>
<path d="M-4.5,13.7H-27.4m939.5,0H935M-4.5,1031.2H-27.4m939.5,0H935M13.7,-4.5V-27.4m0,1077v22.9m880,-1077V-27.4m0,1077v22.9" class="g3_276"/>
</g>
</svg>