<?xml version="1.0" encoding="UTF-8" standalone="no"?>
<!DOCTYPE svg PUBLIC "-//W3C//DTD SVG 1.1//EN"
"http://www.w3.org/Graphics/SVG/1.1/DTD/svg11.dtd">
<svg viewBox="0 0 907 1045" version="1.1" xmlns="http://www.w3.org/2000/svg" xmlns:xlink="http://www.w3.org/1999/xlink">
<defs>
<clipPath id="c0_288"><path d="M-2.6,1047.7V-2.6H910.2V1047.7Z"/></clipPath>
<style type="text/css"><![CDATA[
.g0_288{
fill: none;
stroke: #636363;
stroke-width: 1.527;
stroke-linecap: butt;
stroke-linejoin: miter;
stroke-miterlimit: 4;
}
.g1_288{
fill: none;
stroke: #FFFFFF;
stroke-width: 1.909;
stroke-linecap: butt;
stroke-linejoin: miter;
}
.g2_288{
fill: none;
stroke: #000000;
stroke-width: 0.381;
stroke-linecap: butt;
stroke-linejoin: miter;
}
]]></style>
</defs>
<path d="M561.4,498.8c-6.1,-6.4,-12.8,-13.5,-21.3,-16.7c-15,-5.7,-30.8,-7.1,-46.7,-7.9c-12.7,-.8,-35.1,5.4,-37.6,20.5c-2.5,-.5,-2.7,2.4,-4.6,3.2c-.4,-1.9,-.1,-4.2,-.1,-6.3c0,2.7,.2,5.5,-.2,8.1c4.1,1.2,8.1,-3.3,12.5,-2.5m83.4,94.7c-7.4,-7.1,-15.5,-13.6,-25.4,-17c-9.2,-3.1,-18.5,-7.1,-27.9,-8.1c-2.9,-.3,-5.7,-1.3,-8.6,-1.5c-3.8,-.2,-7.3,.6,-11.1,.9c-5.5,.4,-11.4,1.7,-16.9,.7c0,-.7,-.3,-1.5,-.1,-2.2c-.6,1.6,-1.8,2.8,-2.3,4.5c-.5,1.5,-.2,3,-1,4.6c3.2,.5,7.3,-.8,10.8,-.8m66.9,66.2c-8.8,0,-16.8,1.5,-25.4,2.4c-4.9,.5,-10,-.3,-14.9,.2c-2.6,.2,-5,.7,-7.7,.8c-5.8,.2,-11.3,-1.3,-17,-.6c-5,.5,-12.5,.5,-16.6,3.1c0,-1.8,2.1,-2.3,2.2,-4.1c-2,.4,-3.4,3.7,-3.7,5.6c2.6,1,7.4,.2,10.3,.2m83.3,58.6c-9.2,-3.2,-22.2,-.6,-31.3,1.3c-10.8,2.2,-21.7,4,-32.7,4.7c-6.2,.5,-12.4,2.3,-18.4,4.5c-1.9,.7,-3.7,1.6,-5.5,2.3c-2.2,.8,-4.6,3.6,-6.5,3.4c1,-2.2,3.3,-4.8,5.2,-6.5c-1.4,1.4,-3.6,2.8,-4.7,4c-1.1,1.2,-1.2,3.7,-2.7,4.4c5,-.2,9.9,-.1,14.9,-.1M567.4,793c-1.6,-1.3,-5.5,-3,-7.5,-3.5c-3.7,-.8,-7.4,-1.6,-11.2,-2.5c-7.7,-2,-16.2,-3.5,-24.2,-3.4c-5.6,0,-11,-.9,-16.6,-.9c-2.1,0,-4.5,-.4,-6.5,0c-1.5,.3,-2.7,1.2,-4.2,.7c.7,-1,1.5,-2,2.4,-2.9c-2,1.2,-4.2,3.9,-4.2,6.2c2.1,-.4,8.6,-3,9.3,-.5" class="g0_288"/>
<g clip-path="url(#c0_288)">
<path d="M-4.5,13.7H-27.4m939.5,0H935M-4.5,1031.2H-27.4m939.5,0H935M13.7,-4.5V-27.4m0,1077v22.9m880,-1077V-27.4m0,1077v22.9" class="g1_288"/>
<path d="M-4.5,13.7H-27.4m939.5,0H935M-4.5,1031.2H-27.4m939.5,0H935M13.7,-4.5V-27.4m0,1077v22.9m880,-1077V-27.4m0,1077v22.9" class="g2_288"/>
</g>
</svg>