<?xml version="1.0" encoding="UTF-8" standalone="no"?>
<!DOCTYPE svg PUBLIC "-//W3C//DTD SVG 1.1//EN"
"http://www.w3.org/Graphics/SVG/1.1/DTD/svg11.dtd">
<svg viewBox="0 0 907 1045" version="1.1" xmlns="http://www.w3.org/2000/svg" xmlns:xlink="http://www.w3.org/1999/xlink">
<defs>
<clipPath id="c0_257"><path d="M-2.6,1047.7V-2.6H910.2V1047.7Z"/></clipPath>
<style type="text/css"><![CDATA[
.g0_257{
fill: #D9D9D9;
}
.g1_257{
fill: none;
stroke: #5A5A5A;
stroke-width: 1.527;
stroke-linecap: butt;
stroke-linejoin: miter;
stroke-miterlimit: 4;
}
.g2_257{
fill: none;
stroke: #3D3D3D;
stroke-width: 1.527;
stroke-linecap: butt;
stroke-linejoin: miter;
stroke-miterlimit: 4;
}
.g3_257{
fill: #393939;
}
.g4_257{
fill: none;
stroke: #404040;
stroke-width: 2.276;
stroke-linecap: butt;
stroke-linejoin: miter;
stroke-miterlimit: 4;
}
.g5_257{
fill: #FFFFFF;
}
.g6_257{
fill: none;
stroke: #C6C6C6;
stroke-width: 1.527;
stroke-linecap: butt;
stroke-linejoin: miter;
stroke-miterlimit: 4;
}
.g7_257{
fill: none;
stroke: #FFFFFF;
stroke-width: 1.909;
stroke-linecap: butt;
stroke-linejoin: miter;
}
.g8_257{
fill: none;
stroke: #000000;
stroke-width: 0.381;
stroke-linecap: butt;
stroke-linejoin: miter;
}
]]></style>
</defs>
<path d="M154,404.2v132H447.9v-132H154Z" class="g0_257"/>
<path d="M572.4,271.4c-2.1,0,-4.3,.2,-6.3,-.2c-1.5,-.3,-2.8,-1.3,-4.4,-1.3c1.2,1.1,1.9,2.6,2.7,4.1c-.7,-1.4,-1.4,-2.7,-2.7,-3.5c1.1,-1.3,2.7,-2.7,4.4,-3" class="g1_257"/>
<path d="M572.6,288.8c-.4,-.1,-.9,-.1,-1.4,-.1c-1,-.1,-1.9,-.3,-2.8,-.3c-2.9,0,-5.8,.5,-8.6,1.1c-3.1,.6,-6.1,2,-9,3.3c-3.5,1.5,-6.5,3.3,-9.4,5.8c-1.9,1.6,-3.6,3.2,-5.5,4.7c-1.2,.8,-2,1.8,-2.9,2.8c-.6,.6,-1.1,1.3,-1.7,1.9c-.3,.4,-.6,.5,-.8,1c.1,-1.2,.2,-2.2,.4,-3.4c.1,-.4,.2,-1.3,.7,-1.4c-.4,.5,-.6,1,-.8,1.5c-.2,.5,-.5,1.1,-.7,1.6c-.2,.3,-.6,.8,-.7,1c-.1,.6,.1,.7,.7,.9c.9,.4,1.9,.2,3,.3c.4,0,.8,.2,1.3,.3m22.3,103.6c-1.3,.2,-2.7,.3,-4,0c-1.1,-.3,-2.8,-1,-3.8,-1.6c-2,-1.4,-2.1,-3.3,-2.4,-5.6c-.1,-1.1,-1,-2.2,-.7,-3.4c.2,-.8,.8,-1.7,1.2,-2.6c.5,-1.4,1.1,-2.8,2,-4c-.5,.2,-1,.3,-1.5,.5c-.7,.3,-1.3,.7,-2,.9c.7,-.1,1.1,-.3,1.6,-.9c.5,-.4,.5,-.8,1.1,-.6c.9,.3,1.6,1.7,2.2,2.3c.9,.9,1.2,.9,2.4,.9m-30.5,53.1c-1.4,0,-2.7,0,-4.2,-.3c-2.1,-.5,-4.1,-1.1,-6.2,-1.9c-.6,-.2,-1.2,-.4,-1.7,-.8c-1.6,-1,-3.4,-1.4,-5.1,-2c-2.3,-.9,-4.2,-2,-6.5,-2.7c-5,-1.4,-9.5,-3.7,-14.4,-5.4c-2.2,-.8,-4.8,-1.6,-7.2,-1.8c.7,-.7,2,-1.5,2.9,-2c.3,-.2,1.4,-1,1.6,-.9c-1.1,.8,-2.4,1.3,-3.5,2c-.5,.3,-1.1,.8,-1.8,.8c-.1,.9,-.1,1,.6,1.9c.6,.8,1.5,1.6,1.4,2.8m9.1,69.7c-2.7,-2,-5,-4.4,-7.2,-7c-2.2,-2.6,-5.1,-4.4,-7.1,-7c-.7,-.8,-1.3,-1.6,-2,-2.4c-1.1,-1.1,-2.7,-1.9,-3.9,-3c-.9,-.7,-1.6,-1.5,-2.4,-2.4c-1,-1.1,-2.3,-1.8,-3.6,-2.7c-.7,-.6,-1.4,-1.2,-2.2,-1.6c-.8,-.4,-1.6,-.5,-2.3,-.9c-.8,-.3,-2.1,-1.2,-1.6,.3c.3,1.1,.8,3.2,.2,4.2c-.4,-1.1,-.4,-2.4,-.5,-3.6c0,-.6,-.2,-1.7,.2,-2.3c.4,-.4,.9,-.4,1.4,-.5c1.3,-.2,2.6,-.5,3.9,-.6c0,.2,0,.3,0,.4" class="g2_257"/>
<path d="M198.2,605.8V951.2H766V605.8H198.2Z" class="g3_257"/>
<path d="M198.2,605.8V951.2H766V605.8H198.2Z" class="g4_257"/>
<path d="M198.1,605.5v11.6h568V605.5h-568Z" class="g5_257"/>
<path d="M307.4,636.1c-3.7,-3.2,-10.1,-4.1,-14.7,-2.4c-2.5,.9,-4.9,1.8,-7,3.4c-.8,.6,-1.8,.7,-1.2,2.3c1.4,-1.6,-.1,-5.4,1.1,-6.8c-1.2,.9,-3.9,3.2,-3.4,5c.4,1.4,4.3,1.4,5.4,1.3m310.9,18.2c-1,-.3,-2.2,-.3,-3.2,-.5c-4.5,-.9,-8.9,-2.7,-13.3,-4.1c-11.8,-3.8,-23.6,-5.5,-36,-5.7c-17,-.2,-34,-1.2,-50.7,2.2c-6.8,1.4,-13.6,3.2,-20,5.8c-2.4,1,-4.9,1,-7.3,2c-2,.7,-4.1,1.9,-5.8,3.1c-1.8,1.2,-2.3,2.5,-4.3,3.2c-1.1,.3,-2.3,.7,-3,1.7c.1,-.8,.9,-1.7,1.3,-2.4c1,-1.7,1.7,-3.2,1.8,-5.1c-.8,4,-4,6.9,-6.1,10.3c1.2,2.4,5.6,-.5,7.5,-.2M611.1,662c-1.8,-.4,-3,-.5,-4.9,0c-1.6,.5,-3.8,.7,-5.2,1.6c-2,1.3,-3,4.3,-5.1,5.2c-.2,-.8,-.4,-3.3,.6,-3.7c.2,.6,-.1,.9,-.2,1.4c-.1,.5,-1,2.2,-.9,2.6c.3,1.3,3.9,.6,5.2,.6m-70.1,89.9c-1.7,-2.4,-5,-3.6,-7.5,-4.8c-4.4,-2.1,-9.4,-3.1,-14,-4.5c-7.6,-2.2,-15.6,-2.4,-23.4,-3c-2.7,-.2,-6,-.5,-8.6,.3c-2.6,.7,-4.2,1.6,-7,1.6c-1.8,-.1,-3.6,-.1,-5.4,-.1c-1.1,.1,-2.5,.7,-3.5,.4c.5,-1.4,2.2,-4.2,3.6,-4.8c-.2,.6,-1.2,.9,-1.7,1.3c-.6,.6,-1.2,1.1,-1.8,1.6c-1.1,.9,-2.2,1.3,-3.3,2.1c.1,.7,.4,1.1,1.1,1.5c1.4,.1,2.8,.3,4.1,.6c.8,.2,1.6,.4,2.4,.6M315.9,767.1c-3.3,-.7,-6.2,.1,-9.5,.6c-1.5,.3,-3,.5,-4.5,.6c-2.5,.4,-4.7,1.6,-7,2.5c-2.4,.9,-4.2,2.3,-6.4,3.4c-1.2,.5,-2.2,1,-3.3,1.6c-.6,.5,-1,1.2,-1.7,1.5c-.8,-1.7,1.5,-5.3,2.8,-6.5c-1,.3,-4.1,4.6,-3.6,5.6c.5,1,1.6,.5,2.4,.7c.9,.2,1.6,.9,2.5,1m19.5,28.3c-3.6,.5,-7.7,-1.7,-11.1,-2.4c-2.5,-.5,-5,-1.4,-7.6,-1.5c-1.5,0,-3.1,0,-4.6,.1c1,-.3,3.7,-1.8,3.8,-2.9c-1.3,-.8,-5.6,1.3,-5.3,2.8c.2,.9,1.8,1.4,2.5,1.9c1.1,.7,5.2,2.2,4.7,4M522.6,925.2c-1.3,-.7,-2.7,-1.1,-4.1,-1.6c-3.1,-1.2,-6,-2.8,-9,-4.1c-2.6,-1.1,-5.7,-2.3,-8.5,-2.6c-1.9,-.2,-3.3,-.1,-5.2,-.7c-3,-1,-5.9,-2.8,-9.1,-3.1c-2.5,-.4,-5,-.4,-7.6,-.5c-2.1,0,-4.2,-.4,-6.3,-.4c-2,0,-3.8,.4,-5.8,.4c-1.2,.1,-8.4,.7,-8.7,-.6c.7,-.6,3.5,-3.3,4.1,-3.2c-1.2,2,-4.6,2.2,-5.7,4.3c-1.6,3,4.1,2.3,5.5,3.1c0,.2,0,.4,-.1,.6m-168,13c.9,-1.3,-1,-2.5,-2,-3.1c-1.7,-1,-3.5,-.8,-5.4,-.4c-1.6,.3,-3.5,.8,-4.7,1.8c-.6,.5,-1.1,1.6,-1.9,1.8c.8,-.4,1.7,-.9,2.3,-1.7c.6,-.8,.5,-1.9,1.3,-2.5c-.7,.4,-1.1,1,-1.6,1.5c-.3,.4,-2.6,2.4,-2.5,2.7c.2,1.3,4.3,.7,5.5,.7" class="g6_257"/>
<g clip-path="url(#c0_257)">
<path d="M-4.5,13.7H-27.4m939.5,0H935M-4.5,1031.2H-27.4m939.5,0H935M13.7,-4.5V-27.4m0,1077v22.9m880,-1077V-27.4m0,1077v22.9" class="g7_257"/>
<path d="M-4.5,13.7H-27.4m939.5,0H935M-4.5,1031.2H-27.4m939.5,0H935M13.7,-4.5V-27.4m0,1077v22.9m880,-1077V-27.4m0,1077v22.9" class="g8_257"/>
</g>
</svg>