<?xml version="1.0" encoding="UTF-8" standalone="no"?>
<!DOCTYPE svg PUBLIC "-//W3C//DTD SVG 1.1//EN"
"http://www.w3.org/Graphics/SVG/1.1/DTD/svg11.dtd">
<svg viewBox="0 0 931 1096" version="1.1" xmlns="http://www.w3.org/2000/svg" xmlns:xlink="http://www.w3.org/1999/xlink">
<defs>
<clipPath id="c0_222"><path d="M491.2,677.5V661.6H608.4v15.9Z"/></clipPath>
<style type="text/css"><![CDATA[
.g0_222{
fill: none;
stroke: #00AEEF;
stroke-width: 0.763;
stroke-miterlimit: 10;
}
.g1_222{
fill: none;
stroke: #241F1F;
stroke-width: 0.687;
stroke-miterlimit: 10;
}
.g2_222{
fill: #00AEEF;
}
.g3_222{
fill: none;
stroke: #241F1F;
stroke-width: 0.481;
stroke-miterlimit: 10;
}
]]></style>
</defs>
<path d="M466,691.1H823.5M466,819.4H823.5" class="g0_222"/>
<path clip-path="url(#c0_222)" d="M569.5,661.9h39.2" class="g1_222"/>
<path d="M507.7,742H550M523.5,872.3h50m139.8,0h50" class="g1_222"/>
<path d="M445.8,457.1h15.7v-9.9H445.8v9.9Z" class="g2_222"/>
<path d="M445.8,531.9h15.7v-9.8H445.8v9.8Z" class="g2_222"/>
<path d="M445.8,848.2h15.7v-9.8H445.8v9.8Z" class="g2_222"/>
<path d="M53.5,364.5H411M53.5,780.1H411M53.5,916H411" class="g0_222"/>
<path d="M331.4,178.6h24.2M119.3,222.9h10.2m19.7,0h10.2m-25.8,68.9h43.8m164.1,34.3h31.1M95.2,510.1h42.3M95.2,559h52.9m-40.8,2.9H146" class="g1_222"/>
<path d="M395.3,558.9h4.8" class="g3_222"/>
<path d="M95.2,650.7h43.5M95.2,743.9h62.4" class="g1_222"/>
</svg>