<?xml version="1.0" encoding="UTF-8" standalone="no"?>
<!DOCTYPE svg PUBLIC "-//W3C//DTD SVG 1.1//EN"
"http://www.w3.org/Graphics/SVG/1.1/DTD/svg11.dtd">
<svg viewBox="0 0 931 1096" version="1.1" xmlns="http://www.w3.org/2000/svg" xmlns:xlink="http://www.w3.org/1999/xlink">
<defs>
<clipPath id="c0_226"><path d="M479.1,800.8V772.1H668.9v28.7Z"/></clipPath>
<clipPath id="c1_226"><path d="M497.8,836.7V806.1H787.1v30.6Z"/></clipPath>
<clipPath id="c2_226"><path d="M633.3,873.8V843.1H810.2v30.7Z"/></clipPath>
<clipPath id="c3_226"><path d="M479.1,1045.4v-31.1H718.3v31.1Z"/></clipPath>
<clipPath id="c4_226"><path d="M78,170.7V154.1h25.9v16.6Z"/></clipPath>
<clipPath id="c5_226"><path d="M276.2,423.2c-3,0,-5.5,-2.5,-5.5,-5.5V342.1c0,-3.1,2.5,-5.5,5.5,-5.5h121c3,0,5.5,2.4,5.5,5.5v75.6c0,3,-2.5,5.5,-5.5,5.5Z"/></clipPath>
<clipPath id="c6_226"><path d="M223.9,597.8v-32h35.7v32Z"/></clipPath>
<clipPath id="c7_226"><path d="M70.9,617.5V600.7h69.9v16.8Z"/></clipPath>
<clipPath id="c8_226"><path d="M78,742.5V704.7H334.7v37.8Z"/></clipPath>
<clipPath id="c9_226"><path d="M93.1,918.3V889.7H194.5v28.6Z"/></clipPath>
<clipPath id="ca_226"><path d="M238,918.3V889.7H378.7v28.6Z"/></clipPath>
<clipPath id="cb_226"><path d="M93.1,952.4V923.7H210.5v28.7Z"/></clipPath>
<clipPath id="cc_226"><path d="M254.1,952.4V923.7H405.9v28.7Z"/></clipPath>
<clipPath id="cd_226"><path d="M93.1,984.5V955.8H290.3v28.7Z"/></clipPath>
<clipPath id="ce_226"><path d="M76.4,1020.4v-31H290v31Z"/></clipPath>
<style type="text/css"><![CDATA[
.g0_226{
fill: none;
stroke: #241F1F;
stroke-width: 0.481;
stroke-miterlimit: 10;
}
.g1_226{
fill: none;
stroke: #241F1F;
stroke-width: 0.687;
stroke-miterlimit: 10;
}
.g2_226{
fill: none;
stroke: #969698;
stroke-width: 0.76;
stroke-linecap: square;
stroke-miterlimit: 10;
}
.g3_226{
fill: none;
stroke: #969698;
stroke-width: 0.988;
stroke-linecap: square;
stroke-miterlimit: 10;
}
.g4_226{
fill: none;
stroke: #241F1F;
stroke-width: 0.533;
stroke-linecap: round;
stroke-linejoin: round;
}
.g5_226{
fill: none;
stroke: #241F1F;
stroke-width: 0.76;
stroke-miterlimit: 3;
}
.g6_226{
fill: none;
stroke: #241F1F;
stroke-width: 0.988;
stroke-linecap: square;
stroke-miterlimit: 10;
}
.g7_226{
fill: none;
stroke: #969698;
stroke-width: 0.993;
stroke-linecap: round;
stroke-linejoin: round;
}
.g8_226{
fill: none;
stroke: #241F1F;
stroke-width: 0.534;
stroke-linecap: round;
stroke-linejoin: round;
}
.g9_226{
fill: none;
stroke: #241F1F;
stroke-width: 0.993;
stroke-linecap: round;
stroke-linejoin: round;
}
.ga_226{
fill: none;
stroke: #241F1F;
stroke-width: 0.763;
stroke-miterlimit: 3;
}
]]></style>
</defs>
<path d="M472.2,105.8H477m245,0h4.8m-98.9,19.9h4.8m107.9,0h4.8M479.3,147.1h9.6m44.4,0h4.8m51,0h4.8m17.9,0h4.8M479.3,168.5h4.8m128.4,0h4.8m34.2,0h9.6" class="g0_226"/>
<path d="M479.4,201.1h11m83.5,0h34.5m93.7,0h34.5" class="g1_226"/>
<path d="M556.3,231.6h4.8m82.4,0h4.8m-169,49.3h4.8m135.4,0h4.8" class="g0_226"/>
<path d="M664.8,281h11" class="g1_226"/>
<path d="M479.3,322.2h4.8m115.7,0h4.8" class="g0_226"/>
<path d="M645.6,322.3h36.8" class="g1_226"/>
<path d="M479.3,357.3h4.8m82.4,0h4.8" class="g0_226"/>
<path d="M679.4,357.4h21.3m-9.1,2.1h7m36.6,-2.1h44.3m-20.6,2.1h7" class="g1_226"/>
<path d="M479.3,386.3h4.8m17.9,0h4.8m33.3,26.5h4.8m81.6,0h4.7" class="g0_226"/>
<path d="M689,412.9h58.4" class="g1_226"/>
<path d="M479.3,452.5h4.8" class="g0_226"/>
<path d="M496.2,444.3h8.3m42.1,8.3h36.7m-17.4,2.1h8.2m38.4,-2.1H705M527.9,476.4H564m-38.7,24.4h8.3m19.7,8.3h22.5m-10.4,2.1h8.3m57.4,-10.4h8.3" class="g1_226"/>
<path d="M479.3,538h9.6m82,0h4.8" class="g0_226"/>
<path d="M497.9,549.7h7.5m38.2,0h7.3m38.2,0h7.5m60.2,0h7.5M501.4,590.5h55.2" class="g1_226"/>
<path d="M510.4,666.8h4.8" class="g0_226"/>
<path d="M672.2,658.6h9.1m40.5,8.3h44.4m-21.6,2.9h9" class="g1_226"/>
<path d="M490.7,695.9H497m-17.7,32h4.8" class="g0_226"/>
<path d="M507.1,728h39.8" class="g1_226"/>
<path d="M629.7,727.9h4.8" class="g0_226"/>
<path d="M660.2,728h88.2" class="g1_226"/>
<path d="M503.6,760h4.8m118.7,0h9.5" class="g0_226"/>
<path d="M517,786.6h41.8" class="g1_226"/>
<path clip-path="url(#c0_226)" d="M609.6,786.6h59.6" class="g1_226"/>
<path d="M498.1,820.6h41.8m3.4,0h43.5m19.7,0h24.7m3.4,0H679m19.7,0h41.7" class="g1_226"/>
<path clip-path="url(#c1_226)" d="M743.8,820.6h43.6" class="g1_226"/>
<path d="M653.3,857.8h48.6" class="g1_226"/>
<path clip-path="url(#c2_226)" d="M705.3,857.8H810.5" class="g1_226"/>
<path d="M477.8,890.3h31.5m86.5,0h24.7m32.8,31h41.8M474.6,958.4h48.6m107.7,0H705m-15.9,2.1h13.8m36.6,-2.1h44.3m-24,2.1h13.8m-294.2,68.2h59.2m19.6,0h22.7m19.7,0h38.9" class="g1_226"/>
<path clip-path="url(#c3_226)" d="M695.3,1028.7h23.4" class="g1_226"/>
<path d="M323.7,97.9h8.2" class="g1_226"/>
<path d="M351.5,106.1h4.8m-278,16.8H92.6" class="g0_226"/>
<path d="M104.8,114.7h9" class="g1_226"/>
<path d="M133.4,122.9h14.4M89.7,142.8H96m58.1,0h9.6m126.3,0h9.6M78.3,162.6H83" class="g0_226"/>
<path clip-path="url(#c4_226)" d="M95.2,154.4h9" class="g1_226"/>
<path d="M156.2,162.6h4.7m44.6,19.9h4.8m-132,19.9H83m33.3,0h4.8" class="g0_226"/>
<path d="M267.2,261l.7,-5.4m0,0l.6,-2.4m0,0l.7,.6m0,0l.6,3.5m0,0l.4,2.8m0,0l.3,3.3m0,0l.7,7.5m0,0l.7,7.6m0,0l.4,3.4m0,0l.3,3.1m0,0l.3,2.6m0,0l.4,1.9m0,0l.3,1.4m0,0l.4,.6m0,0l.8,-.8m0,0l.2,-1.4m0,0l.4,-1.9m0,0l.7,-5.1m0,0l.4,-3m0,0l.2,-3.2m0,0l.8,-6.4m0,0l.3,-3.2m0,0l.3,-3m0,0l.7,-5.1m0,0l.4,-1.9m0,0l.3,-1.6m0,0l.6,-1.7m0,0l.4,-.1m0,0l.4,.2m0,0l.6,1.8m0,0l.3,1.4m0,0l.4,1.7m0,0l.6,4.1m0,0l.7,4.6m0,0l.8,4.8m0,0l.2,2.3m0,0l.4,2m0,0l.7,3.4m0,0l.4,1.4m0,0l.4,1m0,0l.2,.7m0,0l.4,.3m0,0l.4,.1m0,0l.3,-.3m0,0l.7,-1.4m0,0l.3,-1.1m0,0l.4,-1.3m0,0l.6,-3.2m0,0l.8,-3.9m0,0l.8,-4m0,0l.7,-3.8m0,0l.6,-3.1m0,0l.7,-2.7m0,0l.6,-2.2m0,0l.5,-1.6m0,0l.4,-.5m0,0l.4,-.5m0,0l.4,-.2m0,0h.3m0,0l.7,.3m0,0l.7,1.1m0,0l.7,1.3m0,0l.7,1.7m0,0l1.3,4m0,0l1.5,3.8m0,0l.8,1.8m0,0l.6,1.3m0,0l.7,.9m0,0l.6,.7m0,0l1.2,.7m0,0l.8,-.1m0,0l.7,-.5m0,0l1.5,-1.6m0,0l1.3,-1.9m0,0l1.3,-2.2m0,0l1.4,-2.3m0,0l1.5,-2.2m0,0l1.3,-1.7m0,0l1.3,-1.5m0,0l1.3,-1.2m0,0l1.4,-.9m0,0l2.7,-1.1m0,0l2.9,-.3m0,0l2.6,-.1m0,0h2.7m0,0H333m0,0l2.6,-.1m0,0h2.7m0,0l2.8,-.1m0,0l2.8,-.4m0,0l2.6,-1m0,0l1.5,-.9m0,0l1.4,-1.3m0,0l1.5,-1.4m0,0l1.3,-1.9m0,0l2.7,-4.4m0,0l1.3,-2.1m0,0l1.3,-2.1m0,0l.8,-.8m0,0l.6,-.6m0,0l.8,-.4m0,0l.7,-.2m0,0l.6,.2m0,0l.7,.4m0,0l1.3,1.8m0,0l.7,1.3m0,0l.7,1.6m0,0l1.4,3.9m0,0l.7,2m0,0l.6,1.8m0,0l.7,1.7m0,0l.6,1.4m0,0l.8,1m0,0l.7,.5m0,0h.4m0,0l.4,-.2m0,0l.2,-.4m0,0l.4,-.6m0,0l.4,-.8m0,0l.3,-.9m0,0l.7,-2.2m0,0l.7,-3m0,0l.6,-3.5m0,0l.7,-3.6m0,0l.8,-3.9m0,0l.6,-3.5m0,0l.7,-3.2m0,0l.4,-1.3m0,0l.2,-1.1m0,0l.4,-.9m0,0l.4,-.6m0,0l.4,-.2m0,0l.3,.1m0,0l.4,.5m0,0l.3,.7m0,0l.7,2.1m0,0l.5,3.2m0,0l.7,3.9m0,0l.6,4.2m0,0l.8,5.1m0,0l.6,4.5m0,0l.4,1.9m0,0l.4,1.6m0,0l.4,1.2m0,0l.4,.7m0,0l.3,.2m0,0l.4,-.1m0,0l.6,-1.9m0,0l.3,-1.5m0,0l.4,-2m0,0l.6,-5m0,0l.4,-2.9m0,0l.3,-3.2m0,0l.8,-6.5m0,0l.2,-3.1m0,0l.4,-3m0,0l.3,-2.7m0,0l.4,-2.3m0,0l.2,-1.9m0,0l.4,-1.4m0,0l.4,-.8m0,0l.3,-.2m0,0l.4,.4m0,0l.2,1.1m0,0l.7,3.7m0,0l.3,3.1m0,0l.4,3.4m0,0l.8,7.9m0,0l.3,4m0,0l.4,4m0,0l.4,3.5m0,0l.4,3m0,0l.3,2.1m0,0l.3,1.5m0,0l.7,.7m0,0l.4,-.8m0,0l.2,-1.6m0,0l.7,-5.5" class="g2_226"/>
<path d="M267.2,261l.7,-5.4m0,0l.6,-2.4m0,0l.7,.6m0,0l.6,3.5m0,0l.4,2.8m0,0l.3,3.3m0,0l.7,7.5m0,0l.7,7.6m0,0l.4,3.4m0,0l.3,3.1m0,0l.3,2.6m0,0l.4,1.9m0,0l.3,1.4m0,0l.4,.6m0,0l.8,-.8m0,0l.2,-1.4m0,0l.4,-1.9m0,0l.7,-5.1m0,0l.4,-3m0,0l.2,-3.2m0,0l.8,-6.4m0,0l.3,-3.2m0,0l.3,-3m0,0l.7,-5.1m0,0l.4,-1.9m0,0l.3,-1.6m0,0l.6,-1.7m0,0l.4,-.1m0,0l.4,.2m0,0l.6,1.8m0,0l.3,1.4m0,0l.4,1.7m0,0l.6,4.1m0,0l.7,4.6m0,0l.8,4.8m0,0l.2,2.3m0,0l.4,2m0,0l.7,3.4m0,0l.4,1.4m0,0l.4,1m0,0l.2,.7m0,0l.4,.3m0,0l.4,.1m0,0l.3,-.3m0,0l.7,-1.4m0,0l.3,-1.1m0,0l.4,-1.3m0,0l.6,-3.2m0,0l.8,-3.9m0,0l.8,-4m0,0l.7,-3.8m0,0l.6,-3.1m0,0l.7,-2.7m0,0l.6,-2.2m0,0l.5,-1.6m0,0l.4,-.5m0,0l.4,-.5m0,0l.4,-.2m0,0h.3m0,0l.7,.3m0,0l.7,1.1m0,0l.7,1.3m0,0l.7,1.7m0,0l1.3,4m0,0l1.5,3.8m0,0l.8,1.8m0,0l.6,1.3m0,0l.7,.9m0,0l.6,.7m0,0l1.2,.7m0,0l.8,-.1m0,0l.7,-.5m0,0l1.5,-1.6m0,0l1.3,-1.9m0,0l1.3,-2.2m0,0l1.4,-2.3m0,0l1.5,-2.2m0,0l1.3,-1.7m0,0l1.3,-1.5m0,0l1.3,-1.2m0,0l1.4,-.9m0,0l2.7,-1.1m0,0l2.9,-.3m0,0l2.6,-.1m0,0h2.7m0,0H333m0,0l2.6,-.1m0,0h2.7m0,0l2.8,-.1m0,0l2.8,-.4m0,0l2.6,-1m0,0l1.5,-.9m0,0l1.4,-1.3m0,0l1.5,-1.4m0,0l1.3,-1.9m0,0l2.7,-4.4m0,0l1.3,-2.1m0,0l1.3,-2.1m0,0l.8,-.8m0,0l.6,-.6m0,0l.8,-.4m0,0l.7,-.2m0,0l.6,.2m0,0l.7,.4m0,0l1.3,1.8m0,0l.7,1.3m0,0l.7,1.6m0,0l1.4,3.9m0,0l.7,2m0,0l.6,1.8m0,0l.7,1.7m0,0l.6,1.4m0,0l.8,1m0,0l.7,.5m0,0h.4m0,0l.4,-.2m0,0l.2,-.4m0,0l.4,-.6m0,0l.4,-.8m0,0l.3,-.9m0,0l.7,-2.2m0,0l.7,-3m0,0l.6,-3.5m0,0l.7,-3.6m0,0l.8,-3.9m0,0l.6,-3.5m0,0l.7,-3.2m0,0l.4,-1.3m0,0l.2,-1.1m0,0l.4,-.9m0,0l.4,-.6m0,0l.4,-.2m0,0l.3,.1m0,0l.4,.5m0,0l.3,.7m0,0l.7,2.1m0,0l.5,3.2m0,0l.7,3.9m0,0l.6,4.2m0,0l.8,5.1m0,0l.6,4.5m0,0l.4,1.9m0,0l.4,1.6m0,0l.4,1.2m0,0l.4,.7m0,0l.3,.2m0,0l.4,-.1m0,0l.6,-1.9m0,0l.3,-1.5m0,0l.4,-2m0,0l.6,-5m0,0l.4,-2.9m0,0l.3,-3.2m0,0l.8,-6.5m0,0l.2,-3.1m0,0l.4,-3m0,0l.3,-2.7m0,0l.4,-2.3m0,0l.2,-1.9m0,0l.4,-1.4m0,0l.4,-.8m0,0l.3,-.2m0,0l.4,.4m0,0l.2,1.1m0,0l.7,3.7m0,0l.3,3.1m0,0l.4,3.4m0,0l.8,7.9m0,0l.3,4m0,0l.4,4m0,0l.4,3.5m0,0l.4,3m0,0l.3,2.1m0,0l.3,1.5m0,0l.7,.7m0,0l.4,-.8m0,0l.2,-1.6m0,0l.7,-5.5" class="g3_226"/>
<path d="M267.3,253.1H398.7M333,296.2V209.9" class="g4_226"/>
<path d="M272.8,209.9H393.2c3.1,0,5.5,2.5,5.5,5.5v75.4c0,3,-2.4,5.4,-5.5,5.4H272.8c-3.1,0,-5.5,-2.4,-5.5,-5.4V215.4c0,-3,2.4,-5.5,5.5,-5.5Z" class="g5_226"/>
<path d="M267.2,220.5l1.3,.1m0,0l1.3,.1m0,0l.7,.3m0,0l.7,.4m0,0l.7,.8m0,0l.7,.9m0,0l.7,1.3m0,0l.7,1.2m0,0l.8,1.3m0,0l.6,1.2m0,0l.7,1m0,0l.6,.8m0,0l.8,.7m0,0l.6,.5m0,0l.7,.2m0,0l.7,.1m0,0l1.4,.1m0,0h.6m0,0l.7,.1m0,0l.6,.3m0,0l.7,.3m0,0l.8,.6m0,0l.6,.7m0,0l1.5,1.7m0,0l1.3,2m0,0l1.4,1.8m0,0l.6,.8m0,0l.8,.8m0,0l.8,.6m0,0l.7,.4m0,0l1.3,.5m0,0l1.1,.1m0,0l1.5,.1m0,0h1.4m0,0l1.4,.1m0,0l1.3,.5m0,0l1.5,.7m0,0l1.4,1m0,0l2.5,2m0,0l1.5,1.2m0,0l1.5,1.2m0,0l2.6,1.7m0,0l1.4,.7m0,0l1.5,.4m0,0l2.5,.7m0,0l1.4,.3m0,0l1.4,.1m0,0l2.7,.1m0,0h2.9m0,0h2.6m0,0h2.7m0,0l2.9,.1m0,0l2.6,-.1m0,0h2.7m0,0h2.8m0,0h2.8m0,0l2.6,-.1m0,0l1.5,-.1m0,0l1.4,-.3m0,0l2.8,-.7m0,0l1.3,-.5m0,0l1.4,-.6m0,0l2.6,-1.8m0,0l1.4,-1m0,0l1.5,-1.3m0,0l2.6,-2.1m0,0l1.4,-.9m0,0l1.4,-.7m0,0l1.3,-.4m0,0l1.3,-.2m0,0h1.5m0,0l1.4,-.1m0,0h.7m0,0l.7,-.1m0,0l1.3,-.6m0,0l.7,-.4m0,0l.8,-.6m0,0l1.3,-1.5m0,0l.6,-.9m0,0l.8,-1m0,0l1.4,-1.9m0,0l.7,-1m0,0l.5,-.6m0,0l1.3,-1.3m0,0l.8,-.4m0,0l.6,-.3m0,0l1.6,-.1m0,0l.7,-.1m0,0h.6m0,0l.7,-.1m0,0l.6,-.2m0,0l.7,-.5m0,0l.8,-.5m0,0l.6,-1m0,0l.7,-1m0,0l1.3,-2.4m0,0l1.3,-2.2m0,0l.7,-1.2m0,0l.8,-.8m0,0l.7,-.4m0,0l.8,-.4m0,0l1.3,-.1m0,0l1.3,-.1" class="g6_226"/>
<path d="M78.3,327.6H83m55.9,0h9.6" class="g0_226"/>
<g clip-path="url(#c5_226)">
<path d="M270.8,373.4l2.6,-12.2l.7,-3.4l.7,-3.2l.6,-2.7l.7,-2.5l.8,-1.6l.4,-.7l.3,-.4l.7,-.1l.3,.3l.4,.4l.3,.5l.3,.8l.5,1l.3,1.2l.7,3l.3,1.6l.3,1.9l.7,4.2l.7,4.6l.6,5l.7,5.3l1.3,10.6l.8,5l.7,4.7l.7,4.5l.3,2l.3,1.9l.4,1.6l.3,1.5l.5,1.4l.3,1.1l.2,.9l.5,.7l.3,.4l.4,.4l.6,-.1l.4,-.3l.3,-.4l.8,-1.6l.4,-1.1l.3,-1.2l.7,-2.8l.7,-3.2l1.3,-6.1l1.2,-6.1l.7,-3.1l.8,-2.6l.7,-2.1l.7,-1.5l.8,-.9l.2,-.1h.3l.8,.5l.7,1.1l.7,1.9l.7,2.5l.8,2.9l.5,3.3l1.4,6.1l1.3,6l.7,3.1l.7,2.5l.3,1l.4,1l.5,.6l.3,.4l.7,.3l.3,-.1l.3,-.3l.7,-1.2l.3,-.8l.3,-1.1l.4,-1.2l.3,-1.5l.7,-3.7l.8,-4.1l.7,-4.7l.6,-4.7l.6,-5.1l1.3,-10.1l.7,-5.4l.7,-5l.8,-4.8l.4,-2l.3,-2l.7,-3.3l.3,-1.3l.3,-1.3l.7,-1.7l.5,-.6l.3,-.4l.7,-.1l.3,.3l.3,.4l.7,1.3l.7,1.9l.8,2.5l.5,2.7l1.3,6.1l.8,3.5l.7,3.4l.6,3.1l.7,2.7l.7,2.3l.8,1.6l.3,.7l.4,.4l.7,.4l.6,-.4l.7,-.9l.6,-1.4l.7,-2l.6,-2.6l.7,-3l1.4,-6.5l.7,-3.5l.7,-3.4l.7,-3l.8,-2.5l.7,-2.1l.6,-1.3l.4,-.4l.3,-.3h.4l.3,.1l.8,1l.5,1.6l.8,2.3l.5,3.1l.5,1.9l.3,2.2l.7,4.9l.9,5.2l.7,5.6l1.3,10.6l.6,5l.7,4.8l.8,4.5l.5,4.1l.5,1.7l.3,1.7l.2,1.5l.5,1.2l.3,1.1l.3,.9l.7,1.1l.3,.3l.4,.1l.6,-.3l.4,-.5l.3,-.7l.8,-1.8l.7,-2.4l.7,-2.8l1.3,-6.3l1.3,-6.5l.8,-3.2l.7,-2.9l.6,-2.3l.7,-1.9l.7,-1.1l.7,-.5l.6,.1l.8,.7l.7,1.5l.6,2.1l.7,2.5l.7,3.1l1.5,6.5l1.3,6.7l.7,3l.6,2.5l.7,2.2l.8,1.5l.2,.4l.5,.3l.3,.1l.4,-.1l.3,-.3l.4,-.6l.3,-.6l.3,-1l.8,-2.3l.5,-2.8l.8,-3.4l.5,-3.9l.8,-5l.7,-5.6L389,376.1l.8,-5.1l.6,-5l.7,-4.7l.6,-4l.4,-1.9l.3,-1.6l.3,-1.7l.4,-1.3l.3,-1.2l.3,-1l.4,-.8l.3,-.5l.3,-.4l.5,-.3h.2l.3,.1l.8,.8l.6,1.5l.8,2.3l.7,2.9l.8,3.4l.7,3.5l2.6,12.3" class="g7_226"/>
<path d="M270.7,379.9h132m-66,43.3V336.6" class="g8_226"/>
<path d="M270.8,379.6l.5,-.1l.8,-.3l1.3,-.5l.7,-.5l.7,-.5l1.3,-1.2l1.5,-1.3l1.4,-1.5l1.4,-1.2l.7,-.6l.6,-.5l.7,-.4l.7,-.4l.6,-.2l.7,-.1h1.3l.8,.3l.7,.2l.7,.4l.6,.6l1.5,1.1l1.4,1.3l1.3,1.5l1.5,1.4l.7,.5l.7,.6l.6,.4l.7,.2l1.2,.6l.7,.2l.8,.2H301l1.3,.1h2.2l.7,.1l.8,.2l.5,.2l.8,.3l.6,.3l1.3,.8l.7,.6l.7,.6l1.5,1.5l1.3,1.2l1.3,1.4l.7,.5l.7,.6l.8,.5l.7,.3l.6,.3l.6,.1h1.3l.7,-.1l.7,-.3l.8,-.4l.7,-.6l1.3,-1l1.5,-1.4l1.3,-1.5l1.4,-1.2l.8,-.5l.5,-.6l1.3,-.8l.8,-.4l.7,-.3l1.3,-.3l.7,-.1h2.2l1.3,-.1h1.3l.6,-.2l.7,-.2l1.4,-.6l.7,-.4l.7,-.4l.7,-.5l.8,-.7l1.3,-1.2l1.4,-1.5l1.3,-1.2l1.3,-1.1l.8,-.6l.7,-.4l.9,-.4l.7,-.1h1.3l.6,.1l.7,.3l.8,.4l.5,.4l1.5,1.1l1.3,1.4l1.3,1.3l1.5,1.4l.7,.5l.7,.5l.6,.6l.7,.4l1.3,.5l.8,.3l.7,.1l1.3,.2h1.4l1.4,.1h1.3l.7,.1l.7,.3l.8,.1l.7,.5l1.3,.8l.7,.5l.6,.6l1.5,1.2l1.4,1.5l1.3,1.3l.8,.6l.5,.5l.8,.4l.5,.4l.8,.4l.7,.3H389l.8,-.1l.6,-.2l.7,-.4l.6,-.4l.7,-.5l.7,-.6l1.3,-1.2l1.3,-1.4l1.4,-1.3l.8,-.7l.7,-.5l.8,-.6l.7,-.5l.6,-.3l.7,-.3l1.3,-.4" class="g9_226"/>
</g>
<path d="M276.2,336.6h121c3,0,5.5,2.4,5.5,5.5v75.6c0,3,-2.5,5.5,-5.5,5.5h-121c-3,0,-5.5,-2.5,-5.5,-5.5V342.1c0,-3.1,2.5,-5.5,5.5,-5.5Z" class="ga_226"/>
<path d="M137.2,449.9H142m30.7,0h4.8" class="g0_226"/>
<path d="M112.2,463.1h8.2" class="g1_226"/>
<path d="M140,471.2h4.8" class="g0_226"/>
<path d="M96.4,526.8h40.4M82.7,544.7h56.2m73.7,-8.3h40.5m69,8.3h11M71.3,580.3H82.2m3.5,0h64.6" class="g1_226"/>
<path clip-path="url(#c6_226)" d="M224.2,580.3H260" class="g1_226"/>
<path d="M236.4,582.4h9" class="g1_226"/>
<path d="M71.2,609.2H76" class="g0_226"/>
<path d="M88.1,601h8.2" class="g1_226"/>
<path d="M115.9,609.2h4.8" class="g0_226"/>
<path clip-path="url(#c7_226)" d="M132.9,601h8.2" class="g1_226"/>
<path d="M193.1,609.2h9.5M81.7,630.6h4.8" class="g0_226"/>
<path d="M177.7,622.4h39.6" class="g1_226"/>
<path d="M78.3,650.5h9.5" class="g0_226"/>
<path d="M174.4,642.3h39.7M112.5,663.7h39.6m80.1,0h39.6" class="g1_226"/>
<path d="M352.7,671.8h14.4" class="g0_226"/>
<path d="M107.1,685h75.2m-56.8,39.3h36.7m29.2,0h11" class="g1_226"/>
<path clip-path="url(#c8_226)" d="M259.9,716.1h75.2" class="g1_226"/>
<path d="M282.4,750.7h4.8M78.3,773.6H83" class="g0_226"/>
<path d="M138.5,765.4h47.2" class="g1_226"/>
<path d="M205.3,773.6h4.8" class="g0_226"/>
<path d="M295.1,765.4h47.3" class="g1_226"/>
<path d="M78.3,795H83m73.7,0h4.8" class="g0_226"/>
<path d="M187.6,786.8h40.5" class="g1_226"/>
<path d="M78.3,816.4H83" class="g0_226"/>
<path d="M99.8,808.2h13.8" class="g1_226"/>
<path d="M228.7,816.4h4.8m36.4,0h4.8" class="g0_226"/>
<path d="M188.5,829.6h46.2M94.1,904h44.3" class="g1_226"/>
<path clip-path="url(#c9_226)" d="M158.1,904h36.7" class="g1_226"/>
<path d="M239,904h12.6m19.7,0h15.8m19.7,0h15.8" class="g1_226"/>
<path clip-path="url(#ca_226)" d="M342.3,904H379" class="g1_226"/>
<path d="M94.1,938.1h12.5m19.7,0h15.8" class="g1_226"/>
<path clip-path="url(#cb_226)" d="M161.8,938.1h49.1" class="g1_226"/>
<path d="M280.9,938.1h12.6m19.6,0h36.8" class="g1_226"/>
<path clip-path="url(#cc_226)" d="M369.6,938.1h36.7" class="g1_226"/>
<path d="M197.6,970.2h36.7" class="g1_226"/>
<path clip-path="url(#cd_226)" d="M254,970.2h36.7" class="g1_226"/>
<path d="M77.4,1003.8h68.1m19.7,0h49.1" class="g1_226"/>
<path clip-path="url(#ce_226)" d="M233.9,1003.8h56.5" class="g1_226"/>
<path d="M71.2,1034.2H76m32.5,0h4.8m32.5,0h4.8" class="g0_226"/>
</svg>