<?xml version="1.0" encoding="UTF-8" standalone="no"?>
<!DOCTYPE svg PUBLIC "-//W3C//DTD SVG 1.1//EN"
"http://www.w3.org/Graphics/SVG/1.1/DTD/svg11.dtd">
<svg viewBox="0 0 811 1017" version="1.1" xmlns="http://www.w3.org/2000/svg" xmlns:xlink="http://www.w3.org/1999/xlink">
<defs>
<style type="text/css"><![CDATA[
.g0_278{
fill: #FFFFFF;
}
.g1_278{
fill: #494646;
}
.g2_278{
fill: #231F20;
}
]]></style>
</defs>
<path d="M144.7,161.1H655.3V84.8H144.7Z" class="g0_278"/>
<path d="M263.2,152.7H145l-.2,-.1l-.1,-.3V97.2l.1,-.2l.2,-.2H263.2l.3,.2l.1,.2v55.1l-.1,.3l-.3,.1M145.4,97.6v54.3H262.9V97.6H145.4Z" class="g1_278"/>
<path d="M654.9,155.9H491.3l-.2,-.1l-.1,-.3V100.6l.1,-.3l.2,-.1H654.9l.2,.1l.1,.3v54.9l-.1,.3l-.2,.1M491.7,101v54.1H654.5V101H491.7Z" class="g1_278"/>
<path d="M263.7,116.3l219.6,.9v-.8l-219.6,-.8Z" class="g2_278"/>
<path d="M481.8,119l8.3,-2.2l-8.3,-2.2V119Z" class="g2_278"/>
<path d="M490.4,135.2L270,134.4v.7l220.4,.9Z" class="g2_278"/>
<path d="M271.5,132.5l-8.3,2.2l8.3,2.3v-4.5Z" class="g2_278"/>
</svg>