<?xml version="1.0" encoding="UTF-8" standalone="no"?>
<!DOCTYPE svg PUBLIC "-//W3C//DTD SVG 1.1//EN"
"http://www.w3.org/Graphics/SVG/1.1/DTD/svg11.dtd">
<svg viewBox="0 0 907 1045" version="1.1" xmlns="http://www.w3.org/2000/svg" xmlns:xlink="http://www.w3.org/1999/xlink">
<defs>
<clipPath id="c0_623"><path d="M331.9,525.3V86H626.7V525.3Z"/></clipPath>
<clipPath id="c1_623"><path d="M331.9,963.5V524.6H626.7V963.5Z"/></clipPath>
<clipPath id="c2_623"><path d="M-2.6,1047.7V-2.6H910.2V1047.7Z"/></clipPath>
<style type="text/css"><![CDATA[
.g0_623{
fill: #FFFFFF;
}
.g1_623{
fill: none;
stroke: #000000;
stroke-width: 0.911;
stroke-linecap: butt;
stroke-linejoin: miter;
stroke-miterlimit: 4;
}
.g2_623{
fill: none;
stroke: #000000;
stroke-width: 0.16;
stroke-linecap: butt;
stroke-linejoin: miter;
stroke-miterlimit: 4;
}
.g3_623{
fill: none;
stroke: #000000;
stroke-width: 0.214;
stroke-linecap: butt;
stroke-linejoin: miter;
stroke-miterlimit: 4;
}
.g4_623{
fill: none;
stroke: #636363;
stroke-width: 1.527;
stroke-linecap: butt;
stroke-linejoin: miter;
stroke-miterlimit: 4;
}
.g5_623{
fill: none;
stroke: #FFFFFF;
stroke-width: 1.909;
stroke-linecap: butt;
stroke-linejoin: miter;
}
.g6_623{
fill: none;
stroke: #000000;
stroke-width: 0.381;
stroke-linecap: butt;
stroke-linejoin: miter;
}
]]></style>
</defs>
<image clip-path="url(#c0_623)" preserveAspectRatio="none" x="332" y="86" width="295" height="439" xlink:href="img/1.jpg"/>
<image clip-path="url(#c1_623)" preserveAspectRatio="none" x="332" y="525" width="295" height="439" xlink:href="img/2.jpg"/>
<path d="M369,93.1L338.8,942l244.9,8.7L613.9,101.8L369,93.1Z" class="g0_623"/>
<path d="M383.6,121.5l216.7,7.7M384.2,104.5l216.7,7.7" class="g1_623"/>
<path d="M449.8,313.7l-1.5,41.4l68.5,2.5l1.4,-41.5l-68.4,-2.4Z" class="g0_623"/>
<path d="M449.8,313.7l-1.5,41.4l68.5,2.5l1.4,-41.5l-68.4,-2.4Z" class="g2_623"/>
<path d="M449.6,321l68.2,2.4m-68.5,14.7l68.1,2.4" class="g3_623"/>
<path d="M308.3,129.3c.1,-.5,.8,-1.3,1.1,-1.7c.3,-.3,.6,-.6,.9,-1c1,-1.1,1.5,-2.6,2.4,-3.7c.4,-.6,1,-.9,1.4,-1.5c.3,-.4,.6,-.9,.9,-1.3c1,-1.1,2.3,-2,3.5,-2.8c1.7,-1.3,3.7,-2.9,5.8,-3.7c1.6,-.5,2.9,-1.4,4.5,-2c.8,-.3,1.4,-.6,2.1,-1c1,-.4,1.7,-.4,2.6,-.6c1.1,-.2,2,-.5,3.2,-.5c1.6,0,3,-.1,4.5,-.4c1,-.3,2.2,-.2,3.3,-.2c.6,0,1.1,0,1.7,0c.9,.1,1.3,.4,2.2,.6c.5,.1,1.2,-.2,1.8,-.1c.6,.2,1.1,.5,1.8,.6c.4,.1,.9,-.1,1.3,0c.9,.1,1.5,.5,2.4,.6c1.3,.1,2.4,.1,3.7,.4c.4,.2,.8,.4,1.3,.5c.3,-.1,.6,-.1,.8,-.1c.6,.2,.9,.8,1.6,.6c-2.2,-.7,-2.9,-3,-4.3,-4.3c-.9,-.9,-2,-1.9,-3.1,-2.5c1.2,.6,1.7,2.1,2.6,3c.6,.6,1.3,1.1,1.9,1.8c.6,.8,1.3,1.2,1.9,1.9c1.4,1.5,-2,1.6,-2.9,2.2c-.9,.6,-1.7,1.3,-2.6,2c-.6,.4,-1.4,1.5,-2.2,1.3m321.9,8.3c-.4,-1.6,-2.1,-2.6,-3.4,-3.5c-2.2,-1.4,-4.5,-3,-6.9,-3.9c-1.5,-.5,-3,-.7,-4.5,-1.1c-2.2,-.5,-4.4,-1.1,-6.6,-1c-2.9,0,-5.8,-.3,-8.6,-.6c-2.7,-.4,-5.3,0,-7.9,.2c-1,.2,-2.1,0,-3.1,.3c-.6,.2,-1,.7,-1.6,.9c-1.2,.3,-2.3,.4,-3.6,.8c-.6,.1,-1.2,.1,-1.9,.3c-.6,.2,-.8,.7,-1.6,.4c.1,-.5,.4,-.4,.7,-.7c.7,-.8,1.2,-1.5,2,-2.2c.5,-.4,1.3,-1.6,2,-1.8c-1,.9,-2.1,1.6,-3,2.4c-.4,.4,-1.8,1.4,-1.9,1.9c-.1,.8,.8,.9,1.3,1.2c1.1,.6,2.4,1.5,2.9,2.7M306.5,231.7c1.2,-1.7,3,-3.3,3.7,-5.2c.8,-2,1,-4,2.3,-5.8c3.3,-4.7,7.3,-9.4,11.7,-13.1c5.2,-4.4,11.4,-7.3,17.5,-9.9c1.6,-.7,3.5,-.6,5.3,-.8c1.1,-.1,3.9,0,4.7,-.7c-2,-.6,-3.8,-.1,-5.8,-1.3c-1.7,-.9,-2.6,-1.9,-4.5,-1.6c.9,1.6,3.8,1.7,5.4,2c1,.2,5.6,-.2,6.2,.9c.5,.9,-1,2.3,-1.5,3c-1,1.4,-3.3,3.1,-2.9,5M639,210.7c.7,-2.9,3,-5.3,3.7,-8.2c.4,-1.5,.7,-3.1,1.1,-4.6c.7,-2.3,.7,-4.2,.9,-6.4c.2,-1.5,.5,-2.8,.4,-4.3c-.2,-1.8,-1.1,-3.4,-1.8,-5c-.6,-1.5,-1,-2.5,-1.1,-4.1c-.1,-1.4,.2,-2.8,-.3,-4.2c-.6,-1.9,-2.8,-3.1,-4.2,-4.5c-1.7,-1.7,-3.2,-3.1,-5.1,-4.4c-1.7,-1.2,-2.7,-1.3,-4.6,-1.6c-1.9,-.2,-4.2,-.1,-6,-.5c.2,-.8,2.3,-.9,3,-1c1.9,-.3,3.4,-.6,5.1,-1.5c1.6,-.7,3.1,-1.4,4.8,-1.8c-.6,.8,-2,1,-2.9,1.3c-1.6,.6,-3.1,1.3,-4.7,2c-1.8,.8,-3.6,1,-5.3,2c.2,1,2.3,1.9,3,2.6c.8,.5,1.4,1.2,1.7,2.1c.3,.8,0,1.2,.5,1.7m21.5,174.3c-5.9,-1.6,-11.3,-4.7,-17.1,-6.4c-3.3,-1,-6.5,-2.1,-9.9,-2.6c1.2,-1,3.2,-1,4.7,-1.5c1.4,-.6,2.8,-1.4,4.3,-2c-3.8,.4,-7.9,1.8,-11.5,3.5c-1.3,.6,-2.2,1,-.8,2c2.1,1.5,5.4,2.2,7.2,4.1M315.8,309.8c4.9,-3.9,6.6,-10.6,10.6,-15.4c2.6,-3.2,5.4,-6.9,8.8,-9.3c1.8,-1.2,3.2,-2.9,4.9,-4.2c1.5,-1.1,3.2,-1.6,4.5,-2.9c1.2,-1.1,2,-1.9,3.4,-2.6c1.2,-.6,3,-1,3.4,-2.4c-1.8,0,-4.1,.8,-6,1.1c-1.4,.2,-8.5,.8,-8.8,2.5c1.4,.2,3.8,-1,5,-1.6c3.4,-1.5,7.1,-1.7,10.7,-2.3c-.4,.8,-.4,1.6,-.6,2.5c-.4,1.7,-2.1,4.5,-.7,6.3M670.5,226.6c1.5,1.3,2.7,.5,4.5,.7c1.3,.2,2.6,.9,3.9,1.2c2.6,.5,5.1,1.5,7.8,1.7c5.7,.4,11.3,.4,17,.4q.3,0,0,0m-13,125.8c2.7,.7,6.1,0,9,0c2.1,0,4.3,-.2,6.3,.1c1.9,.2,3.9,.5,5.8,.7c2.4,.2,4.8,.1,7.3,.4c1.1,.1,1.8,.2,2.8,.1c1.4,-.2,2.6,-.4,3.9,-.5c2.5,-.4,4.6,-.8,7,-1.3c3.6,-.8,8.7,-1.6,12.1,.1m-57,-212.4c2.4,-.2,4.9,.4,7.3,.4c1.5,0,2.5,.2,3.9,.4c3,.4,6,-.1,8.9,.4c3.7,.6,7.3,1.4,11.1,1.6c3.1,.2,5.8,1,8.8,.4c3.4,-.6,7,-.8,10.4,-.8c3.1,0,5.7,.4,8.7,.9c2.2,.3,4.4,.7,6.8,.7c2.7,0,5.4,1.2,8.1,1.2M126.2,248.3c3,-1,6.9,-.8,10.1,-1.1c3,-.3,6,.2,8.9,-.2c4.1,-.6,8.9,-.7,13.1,-.3c1.7,.1,2.8,.2,4.5,.1c1.2,-.1,2.4,-.1,3.6,-.1c3,0,5.8,.5,8.7,.4c2.9,-.1,5.7,-.1,8.5,0c.9,0,3.4,.1,3.6,.8m-62.9,77.6c3.5,0,6.8,-.4,10.3,-.4c1.9,0,3.8,0,5.7,0c2,.1,3.9,-.5,5.9,-.3c3,.3,6.1,.3,9.2,.3c2.8,.1,5.3,-.7,8.2,-.8c5,0,9.8,-.8,14.8,-.8c4.3,0,8.4,.4,12.6,.4M132.2,145.2c10.8,0,21.3,1.2,32,1.2m153.9,233c2.6,-4.5,7.7,-8.2,13.1,-8.8c2.4,-.3,5.2,.1,7.6,.6c.9,.2,2.2,.4,3.1,.6c1.4,.5,2.1,1.6,3.5,2c-2.4,-1.6,-5.4,-4.3,-5.5,-7.5c-.4,-.1,-1.2,-.2,-1.6,-.1c1.3,.9,1.9,2.1,3.4,3c1.2,.8,3,2.1,4.4,2.6c-1.4,1.4,-2.4,2.8,-3.9,4.1c-1.2,1.1,-2.7,2.1,-3.4,3.5M648.1,486.2c2.8,-4,2.4,-6.4,-.6,-10.3c-2.8,-3.6,-6.9,-5.7,-11.7,-5.3c-4.4,.4,-7.1,2.9,-10.7,5c-.5,0,-.9,0,-1.4,.1c-.8,.5,-1,1.5,-1.9,2c-1.4,.7,-3,.1,-4.2,1c.2,-2.3,3.2,-4.8,4.2,-6.9c-1.2,3.1,-7.8,5.1,-7.3,8.7c3.5,1,7.1,.3,10.5,1.4M295,508.7c1.3,-3,2.2,-4.9,4.5,-7.3c1.2,-1.3,2.8,-2.8,4.1,-3.9c1.6,-1.4,4,-2.1,6.1,-2.8c6.5,-2.3,14.1,-.7,20.8,-.3c-3.4,-1.3,-8.6,-2,-10.6,-5.3c1.3,-1.2,5,1.5,6.6,2.1c1.8,.6,3.3,-.2,3.4,2.4c.1,1.9,-2.8,5.8,-4.9,5.8m354.4,145c-11.7,-.7,-23.7,-.7,-35,-4.1c-1.9,-.6,-5.4,-.3,-7,-1.4c-1.4,-.8,-1.4,-.5,-.7,-2c1.2,-.4,2.4,-1,3.5,-1.7c2.3,-1.1,4.6,-1.5,7,-2c-2.6,.4,-5,.8,-7.4,1.8c-1.6,.7,-10.5,3.9,-10.4,6.1c2.3,1.8,6.6,2.4,9.4,3.3M260,629.4c3.3,.2,6.6,-.6,9.9,-.7c3,0,6.2,.5,9.2,0c3.1,-.6,5.7,-2,9,-2.3c2.5,-.3,5,.1,7.4,-.5c2.4,-.6,4.4,-1.7,6.7,-2.2c1.3,-.2,2.5,-.4,3.7,-.9c2.3,-.8,4.5,-1.8,7.1,-1.5c-4.5,-.7,-8.8,-2.9,-13.5,-2.6c1.9,.1,3.8,-.1,5.6,.2c1.9,.2,6.1,1.2,7.6,2.3c2.3,1.8,-.3,3.1,-2.2,5c-1.9,1.9,-4.6,3.6,-6.1,5.7M263.8,777.5c3.3,-3.5,7.8,-6.8,12.5,-8.2c3.4,-1,7.4,-.6,10.9,-.5c3.5,0,5.7,.8,8.8,2.2c1.7,.7,3.4,.8,5,1.5c-1.2,-1.1,-2.6,-1.5,-3.9,-2.8c-2.9,-2.8,-5.3,-4.7,-9.2,-5.7c2.1,.7,3.8,1,6,2.1c1.7,.8,10.2,4.3,10.5,5.9c.3,2.5,-2.5,2.2,-4.4,2.5c-1.5,.3,-2.7,.4,-4.1,1.3c-1.6,1.1,-2.4,3.2,-4,4.2m362.5,75.6c-4.1,-1.7,-7.1,1.7,-10,4.4c-4.7,4.3,-7.1,10.2,-11.1,15.1c-3,3.7,-5.2,8.3,-9.3,10.8c-2.2,1.4,-6.5,5.5,-8.9,5.3c-.6,-2,1.2,-9.3,2.9,-9.9c.9,3.4,-1.6,7.1,-2.8,10.1c4,-.5,8.2,-.2,12.3,-.2M128.8,410.6c5.2,0,9.4,-.9,14.3,-2.2c4.8,-1.2,10.8,-.3,15.7,-.3c11.6,0,23.3,-.6,35,-.6M650,506.9c4.7,0,9.3,.5,14,.6c3,.1,5.3,.8,8.1,1.3c6.2,.9,12.6,.6,18.9,.6c7.5,0,14.9,-.7,22.5,-.7c4.7,.1,9.3,.7,14,.7m-581.2,19c3.6,0,6.8,-1.4,10.5,-1.8c3,-.3,6.2,-.1,9.3,-.1c5.4,0,10.8,0,16.3,0c3.5,0,7.1,0,10.7,0c3.5,0,8.7,-.7,11.3,2c2.1,-2,6.7,-1.7,9.3,-1.1c.8,.2,1.5,.8,2.5,1c.9,.2,2.3,.4,3.2,.5c1.6,.2,3.3,.1,5,.1M697.2,654.1c2.1,2.9,8.7,1.7,11.9,2.6c3.3,1.1,6.2,1.2,9.5,1.9c3.3,.6,5.9,2.1,9.3,2.4c3.1,.2,4.6,1.8,7.5,2.4c8.5,1.9,19.8,-2.9,27.4,1.9m-654,-22.9c3.1,.2,5.4,-1.5,8.3,-2.2c1.9,-.5,4,-.3,5.9,-.3c1.5,0,2.9,0,4.3,-.1c1.8,-.2,3.5,-1.1,5.1,-1.5c.9,-.2,1.6,-.4,2.6,-.3c1.4,.2,2.4,1.4,3.9,1.4c.7,-.2,1.3,-.6,1.9,-1.1c1.1,-.2,1.9,0,3.1,-.2c2.2,-.3,3.3,-.4,5.4,-.2c8.1,.8,16.6,.2,24.8,.2c1.8,0,3.7,-.2,5.6,-.1c2.5,.2,4.5,1.3,7.1,1.3c3.4,.1,6.8,0,10.2,0q.4,0,-.1,0M128.8,796.2c1.8,0,4.2,.4,6,-.1c1.8,-.4,3.1,-1.5,4.9,-2c3.1,-.7,6.1,-.2,9.2,-.4c5.2,-.3,10.3,-.6,15.5,-.6c3.5,0,7.2,-.5,10.6,-.1c2.1,.3,4,.7,6.2,.7c1.9,0,5.4,-1,6.9,0m485.7,60.7c8.6,0,16.8,2.3,25.4,2.5c1.8,.1,3.2,.4,5,1c3,.9,3.2,.7,6,-.1c3.1,-.8,7.6,-.7,10.9,-.9c1.6,-.1,3.3,.3,4.9,.1c1.5,-.2,2,-1,3.4,-1.4c1.6,-.4,3.9,.1,5.6,.1c3,0,5.9,-.5,8.9,-.7c4.7,-.1,9.3,.7,13.9,.7c5,0,9.7,-1.3,14.7,-1.3" class="g4_623"/>
<g clip-path="url(#c2_623)">
<path d="M-4.5,13.7H-27.4m939.5,0H935M-4.5,1031.2H-27.4m939.5,0H935M13.7,-4.5V-27.4m0,1077v22.9m880,-1077V-27.4m0,1077v22.9" class="g5_623"/>
<path d="M-4.5,13.7H-27.4m939.5,0H935M-4.5,1031.2H-27.4m939.5,0H935M13.7,-4.5V-27.4m0,1077v22.9m880,-1077V-27.4m0,1077v22.9" class="g6_623"/>
</g>
</svg>