<?xml version="1.0" encoding="UTF-8" standalone="no"?>
<!DOCTYPE svg PUBLIC "-//W3C//DTD SVG 1.1//EN"
"http://www.w3.org/Graphics/SVG/1.1/DTD/svg11.dtd">
<svg viewBox="0 0 931 1096" version="1.1" xmlns="http://www.w3.org/2000/svg" xmlns:xlink="http://www.w3.org/1999/xlink">
<defs>
<style type="text/css"><![CDATA[
.g0_227{
fill: none;
stroke: #241F1F;
stroke-width: 0.481;
stroke-miterlimit: 10;
}
.g1_227{
fill: none;
stroke: #241F1F;
stroke-width: 0.687;
stroke-miterlimit: 10;
}
.g2_227{
fill: none;
stroke: #241F1F;
stroke-width: 0.763;
stroke-miterlimit: 10;
}
.g3_227{
fill: none;
stroke: #241F1F;
stroke-width: 0.412;
stroke-miterlimit: 10;
}
]]></style>
</defs>
<path d="M534.3,105.7h4.8" class="g0_227"/>
<path d="M534.4,137.9h30.1M554.2,140h8.3m70.4,-20h8.2m-51.3,17.9h53.4M632.9,140h8.2" class="g1_227"/>
<path d="M534.3,169.9h4.8m80.4,0h4.8m79,0h4.8M534.3,192.8h4.8" class="g0_227"/>
<path d="M579.8,184.6h62.9m95.9,0h63" class="g1_227"/>
<path d="M545.7,215.7h4.8m101.3,0h4.8" class="g0_227"/>
<path d="M667.2,207.5h47.3m-170,19.9h42.8" class="g1_227"/>
<path d="M534.3,255.5h4.8" class="g0_227"/>
<path d="M604.7,247.3h43.8" class="g1_227"/>
<path d="M735.5,255.5h4.7M534.3,275.3h4.8m83.1,0H627m-92.7,21.4h4.8" class="g0_227"/>
<path d="M607.8,288.5h40.4m56.1,0h40.4" class="g1_227"/>
<path d="M534.3,316.6h4.8m81.6,0h4.8m26.9,0h4.8m-39.6,19.8h4.8m52.7,0h4.7" class="g0_227"/>
<path d="M629.2,350.7h40.5m-82.3,17.9h84.3" class="g1_227"/>
<path d="M835.8,903.1V884.7m0,36.7V903.1m0,39.2V921.4m-275,21.2h68.7m0,0h68.8m0,0H767m0,0h69.2M560.8,866h68.7m0,0h68.8m0,0H767m0,0h69.2m-.4,18V866.4m-275,18h68.7m0,0h68.8m0,0H767m0,0h69.2M534.1,866h26.7m-26.4,18V866.4M560.8,884V866.4m-26.7,18h26.7m-26.4,18.7V884.7m26.4,18.4V884.7m-26.4,36.7V903.1m26.4,18.3V903.1m-26.4,39.2V921.4m26.4,20.9V921.4m-26.7,21.2h26.7M855,988V969.7m0,36.7V988m0,39.2v-20.8m-295.6,21.2h69.2m0,0H706m0,0h80.2m0,0h69.2M559.4,951h69.2m0,0H706m0,0h80.2m0,0h69.2m-.4,17.9V951.4M559.4,969.3h69.2m0,0H706m0,0h80.2m0,0h69.2M532.6,951h26.8M533,968.9V951.4m26.4,17.5V951.4m-26.8,17.9h26.8M533,988V969.7M559.4,988V969.7M533,1006.4V988m26.4,18.4V988M533,1027.2v-20.8m26.4,20.8v-20.8m-26.8,21.2h26.8" class="g2_227"/>
<path d="M283.4,124.7H293m44.4,0H347" class="g0_227"/>
<path d="M126.3,155.4h30.9m-11.1,2.1h9m42.6,-2.1H221m-11.1,2.1H219" class="g1_227"/>
<path d="M126.2,192.4H131m44.4,0h4.8m52.2,0h4.8m81.3,0h4.8" class="g0_227"/>
<path d="M394,174.6h39.7m-51.9,17.9h53.9" class="g1_227"/>
<path d="M144.7,216.8h5.5m50.5,0h4.8m50.5,0h4.8M133.3,256.5H138" class="g0_227"/>
<path d="M395.2,248.4h8.3m29.8,0h8.2" class="g1_227"/>
<path d="M133.3,276.4h19.1" class="g0_227"/>
<path d="M195.1,289.6h38.4m35.2,0h38.4M197,309.5h39.6m-56.5,38.8h36.7m29.2,0h36.7M295.9,340h73" class="g1_227"/>
<path d="M192.2,378.8h4.7m-6.7,19.8H195m169.1,0h4.8M144.7,418.5H151m140.1,19.8h4.8m75.1,0h4.8" class="g0_227"/>
<path d="M164.6,452.6H205m-52.6,17.9h81.2m-69,2.1H205m159.6,-20h46m-58.2,17.9h86.7M133.4,508.7h14.1m82.8,0h18.9m75,0h19M167.8,529.5h8.3m82.6,0H267" class="g1_227"/>
<path d="M133.3,559H138m75.7,0h4.8" class="g0_227"/>
<path d="M133.4,591.7h17.8m26.8,0h36.7m29.7,0h17.8m41,0h11M189.8,632.3h7.5" class="g1_227"/>
<path d="M242,632.1h4.4" class="g3_227"/>
<path d="M293.3,658.8h4.8" class="g0_227"/>
<path d="M143.5,672h8.2m43.6,0h8.3m73.1,0H285m79.2,0h8.3M154.9,708.7h40.5" class="g1_227"/>
<path d="M214.9,716.9h4.8" class="g0_227"/>
<path d="M193.6,738.2h40m56.2,-9.7h39.9m-52.1,18h80.7m-68.5,2h39.9" class="g1_227"/>
<path d="M133.3,775.4H138m58.9,0h4.8m51.2,0h4.8" class="g0_227"/>
<path d="M151.1,788.6h54.2" class="g1_227"/>
<path d="M137.6,853.3h9.6" class="g0_227"/>
<path d="M202.7,845.1h15.9" class="g1_227"/>
<path d="M238.2,853.3H243" class="g0_227"/>
<path d="M298.8,845.1h15.9" class="g1_227"/>
<path d="M339.6,853.3h4.8m20.1,0h4.8" class="g0_227"/>
<path d="M126.3,887.5h13.3m40.3,0h13.3" class="g1_227"/>
<path d="M212.8,887.4h4.8m45.5,0h9.6m65.5,0H343" class="g0_227"/>
<path d="M367.2,887.5h56.2M149.9,911.3h48.6m-60.8,17.9h62.9m87.9,-8.3h48.7m-96.7,26h9.6m50.4,0h9.6M133.4,1004h43.5m13.2,-8.3h79.1m19.7,8.3h11m39.8,0h43.6m-21.2,2.1h9" class="g1_227"/>
<path d="M307.2,1034.5h9.5" class="g0_227"/>
</svg>