<?xml version="1.0" encoding="UTF-8" standalone="no"?>
<!DOCTYPE svg PUBLIC "-//W3C//DTD SVG 1.1//EN"
"http://www.w3.org/Graphics/SVG/1.1/DTD/svg11.dtd">
<svg viewBox="0 0 931 1096" version="1.1" xmlns="http://www.w3.org/2000/svg" xmlns:xlink="http://www.w3.org/1999/xlink">
<defs>
<clipPath id="c0_298"><path d="M506.2,253.4V219.5H603v33.9Z"/></clipPath>
<clipPath id="c1_298"><path d="M501.6,314V279.1h80.6V314Z"/></clipPath>
<clipPath id="c2_298"><path d="M357.5,407.2V372.6H753.2v34.6Z"/></clipPath>
<clipPath id="c3_298"><path d="M481.5,489.7V455.1H629.2v34.6Z"/></clipPath>
<clipPath id="c4_298"><path d="M444.6,1042.7V869.8H643.9v172.9Z"/></clipPath>
<style type="text/css"><![CDATA[
.g0_298{
fill: none;
stroke: #241F1F;
stroke-width: 0.763;
stroke-miterlimit: 10;
}
.g1_298{
fill: none;
stroke: #241F1F;
stroke-width: 0.611;
stroke-miterlimit: 3;
}
.g2_298{
fill: #241F1F;
}
.g3_298{
fill: #6157A7;
}
.g4_298{
fill: none;
stroke: #6157A7;
stroke-width: 0.763;
stroke-miterlimit: 3;
}
.g5_298{
fill: #EE008C;
}
.g6_298{
fill: none;
stroke: #EE008C;
stroke-width: 0.763;
stroke-miterlimit: 3;
}
.g7_298{
fill: #00AEEF;
}
.g8_298{
fill: none;
stroke: #00AEEF;
stroke-width: 0.763;
stroke-miterlimit: 3;
}
.g9_298{
fill: none;
stroke: #00AEEF;
stroke-width: 1.145;
}
.ga_298{
fill: none;
stroke: #00AEEF;
stroke-width: 0.763;
}
.gb_298{
fill: none;
stroke: #EE008C;
stroke-width: 0.763;
}
]]></style>
</defs>
<path clip-path="url(#c0_298)" d="M562.5,236h40.9" class="g0_298"/>
<path clip-path="url(#c1_298)" d="M523.1,295.5h59.5" class="g0_298"/>
<path d="M411.5,388.7h53.4m21.9,0h34.1m21.8,0h34.1m21.9,0h34.1" class="g0_298"/>
<path clip-path="url(#c2_298)" d="M694.1,388.7h59.5" class="g0_298"/>
<path clip-path="url(#c3_298)" d="M481.9,471.2h53.4m21.9,0h12.2m21.9,0h38.3" class="g0_298"/>
<path d="M390.2,561.4h53.5m53.5,0h12.2m21.9,0h38.3M409.1,622.5h12.2m43.1,0h12.2m21.8,0h12.2m43.1,0h12.2m21.8,0h12.2m88.6,0h12.2m21.9,0h41.7M398.6,675.9h41.7m109,56.6H591m-70,90.1h59.6" class="g0_298"/>
<path clip-path="url(#c4_298)" d="M481.3,1058V874.6" class="g1_298"/>
<path fill-rule="evenodd" d="M481.3,874.6l-2.5,1.7l2.5,-6.6l2.4,6.6Z" class="g2_298"/>
<path d="M478.2,893h6.1" class="g1_298"/>
<path d="M488.5,956.1c0,-.4,.4,-.8,.8,-.8c.4,0,.8,.4,.8,.8c0,.4,-.4,.8,-.8,.8c-.4,0,-.8,-.4,-.8,-.8Z" class="g3_298"/>
<path d="M488.5,956.1c0,-.4,.4,-.8,.8,-.8c.4,0,.8,.4,.8,.8c0,.4,-.4,.8,-.8,.8c-.4,0,-.8,-.4,-.8,-.8Z" class="g4_298"/>
<path d="M496.4,935.3c0,-.4,.3,-.7,.8,-.7c.4,0,.7,.3,.7,.7c0,.4,-.3,.8,-.7,.8c-.5,0,-.8,-.4,-.8,-.8Z" class="g5_298"/>
<path d="M496.4,935.3c0,-.4,.3,-.7,.8,-.7c.4,0,.7,.3,.7,.7c0,.4,-.3,.8,-.7,.8c-.5,0,-.8,-.4,-.8,-.8Z" class="g6_298"/>
<path d="M504.3,924.5c0,-.4,.3,-.7,.8,-.7c.4,0,.7,.3,.7,.7c0,.5,-.3,.8,-.7,.8c-.5,0,-.8,-.3,-.8,-.8Z" class="g5_298"/>
<path d="M504.3,924.5c0,-.4,.3,-.7,.8,-.7c.4,0,.7,.3,.7,.7c0,.5,-.3,.8,-.7,.8c-.5,0,-.8,-.3,-.8,-.8Z" class="g6_298"/>
<path d="M512.2,918.4c0,-.4,.3,-.8,.7,-.8c.5,0,.8,.4,.8,.8c0,.4,-.3,.8,-.8,.8c-.4,0,-.7,-.4,-.7,-.8Z" class="g5_298"/>
<path d="M512.2,918.4c0,-.4,.3,-.8,.7,-.8c.5,0,.8,.4,.8,.8c0,.4,-.3,.8,-.8,.8c-.4,0,-.7,-.4,-.7,-.8Z" class="g6_298"/>
<path d="M520.1,913.8c0,-.4,.3,-.8,.7,-.8c.4,0,.8,.4,.8,.8c0,.4,-.4,.7,-.8,.7c-.4,0,-.7,-.3,-.7,-.7Z" class="g5_298"/>
<path d="M520.1,913.8c0,-.4,.3,-.8,.7,-.8c.4,0,.8,.4,.8,.8c0,.4,-.4,.7,-.8,.7c-.4,0,-.7,-.3,-.7,-.7Z" class="g6_298"/>
<path d="M527.3,910.7c0,-.4,.4,-.8,.8,-.8c.4,0,.8,.4,.8,.8c0,.4,-.4,.8,-.8,.8c-.4,0,-.8,-.4,-.8,-.8Z" class="g5_298"/>
<path d="M527.3,910.7c0,-.4,.4,-.8,.8,-.8c.4,0,.8,.4,.8,.8c0,.4,-.4,.8,-.8,.8c-.4,0,-.8,-.4,-.8,-.8Z" class="g6_298"/>
<path d="M535.2,908.4c0,-.4,.4,-.8,.8,-.8c.4,0,.8,.4,.8,.8c0,.4,-.4,.7,-.8,.7c-.4,0,-.8,-.3,-.8,-.7Z" class="g5_298"/>
<path d="M535.2,908.4c0,-.4,.4,-.8,.8,-.8c.4,0,.8,.4,.8,.8c0,.4,-.4,.7,-.8,.7c-.4,0,-.8,-.3,-.8,-.7Z" class="g6_298"/>
<path d="M543.1,906.9c0,-.5,.4,-.8,.8,-.8c.4,0,.8,.3,.8,.8c0,.4,-.4,.7,-.8,.7c-.4,0,-.8,-.3,-.8,-.7Z" class="g5_298"/>
<path d="M543.1,906.9c0,-.5,.4,-.8,.8,-.8c.4,0,.8,.3,.8,.8c0,.4,-.4,.7,-.8,.7c-.4,0,-.8,-.3,-.8,-.7Z" class="g6_298"/>
<path d="M551,905.3c0,-.4,.4,-.7,.8,-.7c.4,0,.7,.3,.7,.7c0,.4,-.3,.8,-.7,.8c-.4,0,-.8,-.4,-.8,-.8Z" class="g5_298"/>
<path d="M551,905.3c0,-.4,.4,-.7,.8,-.7c.4,0,.7,.3,.7,.7c0,.4,-.3,.8,-.7,.8c-.4,0,-.8,-.4,-.8,-.8Z" class="g6_298"/>
<path d="M558.9,903.8c0,-.5,.3,-.8,.8,-.8c.4,0,.7,.3,.7,.8c0,.4,-.3,.7,-.7,.7c-.5,0,-.8,-.3,-.8,-.7Z" class="g5_298"/>
<path d="M558.9,903.8c0,-.5,.3,-.8,.8,-.8c.4,0,.7,.3,.7,.8c0,.4,-.3,.7,-.7,.7c-.5,0,-.8,-.3,-.8,-.7Z" class="g6_298"/>
<path d="M566.2,903c0,-.4,.3,-.8,.7,-.8c.5,0,.8,.4,.8,.8c0,.4,-.3,.8,-.8,.8c-.4,0,-.7,-.4,-.7,-.8Z" class="g5_298"/>
<path d="M566.2,903c0,-.4,.3,-.8,.7,-.8c.5,0,.8,.4,.8,.8c0,.4,-.3,.8,-.8,.8c-.4,0,-.7,-.4,-.7,-.8Z" class="g6_298"/>
<path d="M574.1,902.2c0,-.4,.3,-.7,.7,-.7c.5,0,.8,.3,.8,.7c0,.5,-.3,.8,-.8,.8c-.4,0,-.7,-.3,-.7,-.8Z" class="g5_298"/>
<path d="M574.1,902.2c0,-.4,.3,-.7,.7,-.7c.5,0,.8,.3,.8,.7c0,.5,-.3,.8,-.8,.8c-.4,0,-.7,-.3,-.7,-.8Z" class="g6_298"/>
<path d="M582,901.5c0,-.5,.3,-.8,.7,-.8c.4,0,.8,.3,.8,.8c0,.4,-.4,.7,-.8,.7c-.4,0,-.7,-.3,-.7,-.7Z" class="g5_298"/>
<path d="M582,901.5c0,-.5,.3,-.8,.7,-.8c.4,0,.8,.3,.8,.8c0,.4,-.4,.7,-.8,.7c-.4,0,-.7,-.3,-.7,-.7Z" class="g6_298"/>
<path d="M589.8,900.7c0,-.4,.4,-.8,.8,-.8c.4,0,.8,.4,.8,.8c0,.4,-.4,.8,-.8,.8c-.4,0,-.8,-.4,-.8,-.8Z" class="g5_298"/>
<path d="M589.8,900.7c0,-.4,.4,-.8,.8,-.8c.4,0,.8,.4,.8,.8c0,.4,-.4,.8,-.8,.8c-.4,0,-.8,-.4,-.8,-.8Z" class="g6_298"/>
<path d="M597.7,900.7c0,-.4,.4,-.8,.8,-.8c.4,0,.8,.4,.8,.8c0,.4,-.4,.8,-.8,.8c-.4,0,-.8,-.4,-.8,-.8Z" class="g5_298"/>
<path d="M597.7,900.7c0,-.4,.4,-.8,.8,-.8c.4,0,.8,.4,.8,.8c0,.4,-.4,.8,-.8,.8c-.4,0,-.8,-.4,-.8,-.8Z" class="g6_298"/>
<path d="M605,899.9c0,-.4,.4,-.7,.8,-.7c.4,0,.7,.3,.7,.7c0,.4,-.3,.8,-.7,.8c-.4,0,-.8,-.4,-.8,-.8Z" class="g5_298"/>
<path d="M605,899.9c0,-.4,.4,-.7,.8,-.7c.4,0,.7,.3,.7,.7c0,.4,-.3,.8,-.7,.8c-.4,0,-.8,-.4,-.8,-.8Z" class="g6_298"/>
<path d="M612.9,899.9c0,-.4,.3,-.7,.8,-.7c.4,0,.7,.3,.7,.7c0,.4,-.3,.8,-.7,.8c-.5,0,-.8,-.4,-.8,-.8Z" class="g5_298"/>
<path d="M612.9,899.9c0,-.4,.3,-.7,.8,-.7c.4,0,.7,.3,.7,.7c0,.4,-.3,.8,-.7,.8c-.5,0,-.8,-.4,-.8,-.8Z" class="g6_298"/>
<path d="M620.8,899.2c0,-.5,.3,-.8,.8,-.8c.4,0,.7,.3,.7,.8c0,.4,-.3,.7,-.7,.7c-.5,0,-.8,-.3,-.8,-.7Z" class="g5_298"/>
<path d="M620.8,899.2c0,-.5,.3,-.8,.8,-.8c.4,0,.7,.3,.7,.8c0,.4,-.3,.7,-.7,.7c-.5,0,-.8,-.3,-.8,-.7Z" class="g6_298"/>
<path d="M628.7,899.2c0,-.5,.3,-.8,.7,-.8c.5,0,.8,.3,.8,.8c0,.4,-.3,.7,-.8,.7c-.4,0,-.7,-.3,-.7,-.7Z" class="g5_298"/>
<path d="M628.7,899.2c0,-.5,.3,-.8,.7,-.8c.5,0,.8,.3,.8,.8c0,.4,-.3,.7,-.8,.7c-.4,0,-.7,-.3,-.7,-.7Z" class="g6_298"/>
<path d="M636.6,898.4c0,-.4,.3,-.8,.7,-.8c.5,0,.8,.4,.8,.8c0,.4,-.3,.7,-.8,.7c-.4,0,-.7,-.3,-.7,-.7Z" class="g5_298"/>
<path d="M636.6,898.4c0,-.4,.3,-.8,.7,-.8c.5,0,.8,.4,.8,.8c0,.4,-.3,.7,-.8,.7c-.4,0,-.7,-.3,-.7,-.7Z" class="g6_298"/>
<path d="M496.4,999.2c0,-.4,.3,-.7,.8,-.7c.4,0,.7,.3,.7,.7c0,.4,-.3,.8,-.7,.8c-.5,0,-.8,-.4,-.8,-.8Z" class="g7_298"/>
<path d="M496.4,999.2c0,-.4,.3,-.7,.8,-.7c.4,0,.7,.3,.7,.7c0,.4,-.3,.8,-.7,.8c-.5,0,-.8,-.4,-.8,-.8Z" class="g8_298"/>
<path d="M504.3,1010c0,-.4,.3,-.8,.8,-.8c.4,0,.7,.4,.7,.8c0,.4,-.3,.8,-.7,.8c-.5,0,-.8,-.4,-.8,-.8Z" class="g7_298"/>
<path d="M504.3,1010c0,-.4,.3,-.8,.8,-.8c.4,0,.7,.4,.7,.8c0,.4,-.3,.8,-.7,.8c-.5,0,-.8,-.4,-.8,-.8Z" class="g8_298"/>
<path d="M512.2,1013.8c0,-.4,.3,-.7,.7,-.7c.5,0,.8,.3,.8,.7c0,.5,-.3,.8,-.8,.8c-.4,0,-.7,-.3,-.7,-.8Z" class="g7_298"/>
<path d="M512.2,1013.8c0,-.4,.3,-.7,.7,-.7c.5,0,.8,.3,.8,.7c0,.5,-.3,.8,-.8,.8c-.4,0,-.7,-.3,-.7,-.8Z" class="g8_298"/>
<path d="M520.1,1016.1c0,-.4,.3,-.7,.7,-.7c.4,0,.8,.3,.8,.7c0,.5,-.4,.8,-.8,.8c-.4,0,-.7,-.3,-.7,-.8Z" class="g7_298"/>
<path d="M520.1,1016.1c0,-.4,.3,-.7,.7,-.7c.4,0,.8,.3,.8,.7c0,.5,-.4,.8,-.8,.8c-.4,0,-.7,-.3,-.7,-.8Z" class="g8_298"/>
<path d="M527.3,1017.7c0,-.4,.4,-.8,.8,-.8c.4,0,.8,.4,.8,.8c0,.4,-.4,.8,-.8,.8c-.4,0,-.8,-.4,-.8,-.8Z" class="g7_298"/>
<path d="M527.3,1017.7c0,-.4,.4,-.8,.8,-.8c.4,0,.8,.4,.8,.8c0,.4,-.4,.8,-.8,.8c-.4,0,-.8,-.4,-.8,-.8Z" class="g8_298"/>
<path d="M535.2,1018.5c0,-.5,.4,-.8,.8,-.8c.4,0,.8,.3,.8,.8c0,.4,-.4,.7,-.8,.7c-.4,0,-.8,-.3,-.8,-.7Z" class="g7_298"/>
<path d="M535.2,1018.5c0,-.5,.4,-.8,.8,-.8c.4,0,.8,.3,.8,.8c0,.4,-.4,.7,-.8,.7c-.4,0,-.8,-.3,-.8,-.7Z" class="g8_298"/>
<path d="M543.1,1018.5c0,-.5,.4,-.8,.8,-.8c.4,0,.8,.3,.8,.8c0,.4,-.4,.7,-.8,.7c-.4,0,-.8,-.3,-.8,-.7Z" class="g7_298"/>
<path d="M543.1,1018.5c0,-.5,.4,-.8,.8,-.8c.4,0,.8,.3,.8,.8c0,.4,-.4,.7,-.8,.7c-.4,0,-.8,-.3,-.8,-.7Z" class="g8_298"/>
<path d="M551,1019.2c0,-.4,.4,-.7,.8,-.7c.4,0,.7,.3,.7,.7c0,.4,-.3,.8,-.7,.8c-.4,0,-.8,-.4,-.8,-.8Z" class="g7_298"/>
<path d="M551,1019.2c0,-.4,.4,-.7,.8,-.7c.4,0,.7,.3,.7,.7c0,.4,-.3,.8,-.7,.8c-.4,0,-.8,-.4,-.8,-.8Z" class="g8_298"/>
<path d="M558.9,1019.2c0,-.4,.3,-.7,.8,-.7c.4,0,.7,.3,.7,.7c0,.4,-.3,.8,-.7,.8c-.5,0,-.8,-.4,-.8,-.8Z" class="g7_298"/>
<path d="M558.9,1019.2c0,-.4,.3,-.7,.8,-.7c.4,0,.7,.3,.7,.7c0,.4,-.3,.8,-.7,.8c-.5,0,-.8,-.4,-.8,-.8Z" class="g8_298"/>
<path d="M566.2,1019.2c0,-.4,.3,-.7,.7,-.7c.5,0,.8,.3,.8,.7c0,.4,-.3,.8,-.8,.8c-.4,0,-.7,-.4,-.7,-.8Z" class="g7_298"/>
<path d="M566.2,1019.2c0,-.4,.3,-.7,.7,-.7c.5,0,.8,.3,.8,.7c0,.4,-.3,.8,-.8,.8c-.4,0,-.7,-.4,-.7,-.8Z" class="g8_298"/>
<path d="M574.1,1020c0,-.4,.3,-.8,.7,-.8c.5,0,.8,.4,.8,.8c0,.4,-.3,.8,-.8,.8c-.4,0,-.7,-.4,-.7,-.8Z" class="g7_298"/>
<path d="M574.1,1020c0,-.4,.3,-.8,.7,-.8c.5,0,.8,.4,.8,.8c0,.4,-.3,.8,-.8,.8c-.4,0,-.7,-.4,-.7,-.8Z" class="g8_298"/>
<path d="M582,1020c0,-.4,.3,-.8,.7,-.8c.4,0,.8,.4,.8,.8c0,.4,-.4,.8,-.8,.8c-.4,0,-.7,-.4,-.7,-.8Z" class="g7_298"/>
<path d="M582,1020c0,-.4,.3,-.8,.7,-.8c.4,0,.8,.4,.8,.8c0,.4,-.4,.8,-.8,.8c-.4,0,-.7,-.4,-.7,-.8Z" class="g8_298"/>
<path d="M589.8,1020c0,-.4,.4,-.8,.8,-.8c.4,0,.8,.4,.8,.8c0,.4,-.4,.8,-.8,.8c-.4,0,-.8,-.4,-.8,-.8Z" class="g7_298"/>
<path d="M589.8,1020c0,-.4,.4,-.8,.8,-.8c.4,0,.8,.4,.8,.8c0,.4,-.4,.8,-.8,.8c-.4,0,-.8,-.4,-.8,-.8Z" class="g8_298"/>
<path d="M597.7,1020c0,-.4,.4,-.8,.8,-.8c.4,0,.8,.4,.8,.8c0,.4,-.4,.8,-.8,.8c-.4,0,-.8,-.4,-.8,-.8Z" class="g7_298"/>
<path d="M597.7,1020c0,-.4,.4,-.8,.8,-.8c.4,0,.8,.4,.8,.8c0,.4,-.4,.8,-.8,.8c-.4,0,-.8,-.4,-.8,-.8Z" class="g8_298"/>
<path d="M605.6,1020c0,-.4,.4,-.8,.8,-.8c.4,0,.8,.4,.8,.8c0,.4,-.4,.8,-.8,.8c-.4,0,-.8,-.4,-.8,-.8Z" class="g7_298"/>
<path d="M605.6,1020c0,-.4,.4,-.8,.8,-.8c.4,0,.8,.4,.8,.8c0,.4,-.4,.8,-.8,.8c-.4,0,-.8,-.4,-.8,-.8Z" class="g8_298"/>
<path d="M613.5,1020c0,-.4,.3,-.8,.8,-.8c.4,0,.7,.4,.7,.8c0,.4,-.3,.8,-.7,.8c-.5,0,-.8,-.4,-.8,-.8Z" class="g7_298"/>
<path d="M613.5,1020c0,-.4,.3,-.8,.8,-.8c.4,0,.7,.4,.7,.8c0,.4,-.3,.8,-.7,.8c-.5,0,-.8,-.4,-.8,-.8Z" class="g8_298"/>
<path d="M621.4,1020c0,-.4,.3,-.8,.8,-.8c.4,0,.7,.4,.7,.8c0,.4,-.3,.8,-.7,.8c-.5,0,-.8,-.4,-.8,-.8Z" class="g7_298"/>
<path d="M621.4,1020c0,-.4,.3,-.8,.8,-.8c.4,0,.7,.4,.7,.8c0,.4,-.3,.8,-.7,.8c-.5,0,-.8,-.4,-.8,-.8Z" class="g8_298"/>
<path d="M628.9,1020c0,-.4,.3,-.8,.8,-.8c.4,0,.7,.4,.7,.8c0,.4,-.3,.8,-.7,.8c-.5,0,-.8,-.4,-.8,-.8Z" class="g7_298"/>
<path d="M628.9,1020c0,-.4,.3,-.8,.8,-.8c.4,0,.7,.4,.7,.8c0,.4,-.3,.8,-.7,.8c-.5,0,-.8,-.4,-.8,-.8Z" class="g8_298"/>
<path d="M636,1020c0,-.4,.4,-.8,.8,-.8c.4,0,.8,.4,.8,.8c0,.4,-.4,.8,-.8,.8c-.4,0,-.8,-.4,-.8,-.8Z" class="g7_298"/>
<path d="M636,1020c0,-.4,.4,-.8,.8,-.8c.4,0,.8,.4,.8,.8c0,.4,-.4,.8,-.8,.8c-.4,0,-.8,-.4,-.8,-.8Z" class="g8_298"/>
<path d="M444.6,1021.3H639" class="g1_298"/>
<path fill-rule="evenodd" d="M639,1021.3l-1.6,-2.4l6.5,2.4l-6.5,2.5Z" class="g2_298"/>
<path d="M304.6,229c0,0,-1.5,0,-1.5,1.5v14.1c0,0,0,1.5,1.5,1.5h14.1c0,0,1.6,0,1.6,-1.5V230.5c0,0,0,-1.5,-1.6,-1.5H304.6Z" class="g9_298"/>
<path d="M502.2,595.4l5.3,51.9m49.7,-51.9l5.3,51.9M691.2,595.4l6.8,51.9" class="ga_298"/>
<path d="M417.4,595.4l-4.6,51.9m59.6,-51.9l-4.6,51.9M594.6,595.4l-1.5,51.9" class="gb_298"/>
<path d="M56.5,97.6c0,0,-3,0,-3,3v9.2c0,0,0,3,3,3H77.9c0,0,3.1,0,3.1,-3v-9.2c0,0,0,-3,-3.1,-3Z" class="g5_298"/>
</svg>