<?xml version="1.0" encoding="UTF-8" standalone="no"?>
<!DOCTYPE svg PUBLIC "-//W3C//DTD SVG 1.1//EN"
"http://www.w3.org/Graphics/SVG/1.1/DTD/svg11.dtd">
<svg viewBox="0 0 907 1045" version="1.1" xmlns="http://www.w3.org/2000/svg" xmlns:xlink="http://www.w3.org/1999/xlink">
<defs>
<clipPath id="c0_287"><path d="M413.7,387.9v-88H576.5v88Z"/></clipPath>
<clipPath id="c1_287"><path d="M192.5,403.3V301H355.3V403.3Z"/></clipPath>
<clipPath id="c2_287"><path d="M552,928.3V830H714.8v98.3Z"/></clipPath>
<clipPath id="c3_287"><path d="M371.8,792.6c.3,0,.5,-.2,.5,-.5c0,-.4,-.2,-.6,-.5,-.6c-.4,0,-.6,.2,-.6,.6c0,.3,.2,.5,.6,.5Zm0,-3.5c.3,0,.5,-.2,.5,-.6c0,-.3,-.2,-.5,-.5,-.5c-.4,0,-.6,.2,-.6,.5c0,.4,.2,.6,.6,.6Zm0,-3.5c.3,0,.5,-.3,.5,-.6c0,-.3,-.2,-.6,-.5,-.6c-.4,0,-.6,.3,-.6,.6c0,.3,.2,.6,.6,.6Zm-76.5,7.5V690.8H458.1V793.1Z"/></clipPath>
<clipPath id="c4_287"><path d="M371.8,792.6c-.4,0,-.6,-.2,-.6,-.5c0,-.4,.2,-.6,.6,-.6c.3,0,.5,.2,.5,.6c0,.3,-.2,.5,-.5,.5Zm0,-3.5c-.4,0,-.6,-.2,-.6,-.6c0,-.3,.2,-.5,.6,-.5c.3,0,.5,.2,.5,.5c0,.4,-.2,.6,-.5,.6Z"/></clipPath>
<clipPath id="c5_287"><path d="M371.8,785.6c-.4,0,-.6,-.3,-.6,-.6c0,-.3,.2,-.6,.6,-.6c.3,0,.5,.3,.5,.6c0,.3,-.2,.6,-.5,.6Z"/></clipPath>
<clipPath id="c6_287"><path d="M371.8,855.9c.4,0,.6,-.2,.6,-.5c0,-.4,-.2,-.6,-.6,-.6c-.3,0,-.6,.2,-.6,.6c0,.3,.3,.5,.6,.5Zm0,-3.5c.4,0,.6,-.2,.6,-.6c0,-.3,-.2,-.5,-.6,-.5c-.3,0,-.6,.2,-.6,.5c0,.4,.3,.6,.6,.6Zm0,-3.5c.4,0,.6,-.2,.6,-.6c0,-.3,-.3,-.6,-.6,-.6c-.3,0,-.6,.3,-.6,.6c0,.4,.3,.6,.6,.6Zm0,-3.5c.3,0,.6,-.3,.6,-.6c0,-.3,-.3,-.6,-.6,-.6c-.3,0,-.6,.3,-.6,.6c0,.3,.3,.6,.6,.6Zm0,-3.5c.3,0,.6,-.3,.6,-.6c0,-.3,-.2,-.6,-.6,-.6c-.3,0,-.6,.3,-.6,.6c0,.3,.3,.6,.6,.6Zm0,-3.5c.3,0,.6,-.3,.6,-.6c0,-.3,-.3,-.6,-.6,-.6c-.3,0,-.6,.3,-.6,.6c0,.3,.3,.6,.6,.6Zm0,-3.6c.3,0,.6,-.2,.6,-.5c0,-.4,-.3,-.6,-.6,-.6c-.3,0,-.6,.2,-.6,.6c0,.3,.3,.5,.6,.5Zm0,-3.5c.3,0,.6,-.2,.6,-.6c0,-.3,-.3,-.5,-.6,-.5c-.3,0,-.6,.2,-.6,.5c0,.4,.3,.6,.6,.6Zm-76.5,101V830H458.1V932.3Z"/></clipPath>
<clipPath id="c7_287"><path d="M371.8,852.4c-.3,0,-.6,-.2,-.6,-.6c0,-.3,.3,-.5,.6,-.5c.4,0,.6,.2,.6,.5c0,.4,-.2,.6,-.6,.6Zm0,-3.5c-.3,0,-.6,-.2,-.6,-.6c0,-.3,.3,-.6,.6,-.6c.3,0,.6,.3,.6,.6c0,.4,-.2,.6,-.6,.6Zm0,-3.5c-.3,0,-.6,-.3,-.6,-.6c0,-.3,.3,-.6,.6,-.6c.3,0,.6,.3,.6,.6c0,.3,-.3,.6,-.6,.6Zm0,-3.5c-.3,0,-.6,-.3,-.6,-.6c0,-.3,.3,-.6,.6,-.6c.4,0,.6,.3,.6,.6c0,.3,-.3,.6,-.6,.6Zm0,-3.5c-.3,0,-.6,-.3,-.6,-.6c0,-.3,.3,-.6,.6,-.6c.3,0,.6,.3,.6,.6c0,.3,-.3,.6,-.6,.6Zm0,-3.6c-.3,0,-.6,-.2,-.6,-.5c0,-.4,.3,-.6,.6,-.6c.3,0,.6,.2,.6,.6c0,.3,-.3,.5,-.6,.5Zm0,-3.5c-.3,0,-.6,-.2,-.6,-.6c0,-.3,.3,-.5,.6,-.5c.3,0,.6,.2,.6,.5c0,.4,-.3,.6,-.6,.6Z"/></clipPath>
<clipPath id="c8_287"><path d="M371.8,855.9c-.3,0,-.6,-.2,-.6,-.5c0,-.4,.3,-.6,.6,-.6c.4,0,.6,.2,.6,.6c0,.3,-.2,.5,-.6,.5Z"/></clipPath>
<clipPath id="c9_287"><path d="M-2.6,1047.7V-2.6H910.2V1047.7Z"/></clipPath>
<style type="text/css"><![CDATA[
.g0_287{
fill: #FFFFFF;
}
.g1_287{
fill: none;
stroke: #000000;
stroke-width: 0.492;
stroke-linecap: butt;
stroke-linejoin: miter;
stroke-miterlimit: 4;
}
.g2_287{
}
.g3_287{
fill: none;
stroke: #000000;
stroke-width: 1.164;
stroke-linecap: butt;
stroke-linejoin: miter;
stroke-miterlimit: 4;
}
.g4_287{
fill: none;
stroke: #000000;
stroke-width: 1.527;
stroke-linecap: butt;
stroke-linejoin: miter;
stroke-miterlimit: 4;
}
.g5_287{
fill: none;
stroke: #636363;
stroke-width: 1.527;
stroke-linecap: butt;
stroke-linejoin: miter;
stroke-miterlimit: 4;
}
.g6_287{
fill: none;
stroke: #000000;
stroke-width: 0.763;
stroke-linecap: butt;
stroke-linejoin: miter;
stroke-miterlimit: 4;
}
.g7_287{
fill: none;
stroke: #FFFFFF;
stroke-width: 1.909;
stroke-linecap: butt;
stroke-linejoin: miter;
}
.g8_287{
fill: none;
stroke: #000000;
stroke-width: 0.381;
stroke-linecap: butt;
stroke-linejoin: miter;
}
]]></style>
</defs>
<image clip-path="url(#c0_287)" preserveAspectRatio="none" x="413" y="300" width="164" height="88" xlink:href="img/1.jpg"/>
<path d="M419.5,305.7V373H561.7V305.7H419.5Z" class="g0_287"/>
<path d="M419.5,305.7V373H561.7V305.7H419.5Z" class="g1_287"/>
<image clip-path="url(#c1_287)" preserveAspectRatio="none" x="192" y="301" width="164" height="103" xlink:href="img/2.jpg"/>
<path d="M198.3,306.8v81.6H340.6V306.8H198.3Z" class="g0_287"/>
<path d="M198.3,306.8v81.6H340.6V306.8H198.3Z" class="g1_287"/>
<image clip-path="url(#c2_287)" preserveAspectRatio="none" x="552" y="830" width="163" height="99" xlink:href="img/3.jpg"/>
<path d="M557.8,835.8v78H700.1v-78H557.8Z" class="g0_287"/>
<path d="M557.8,835.8v78H700v-78H557.8Z" class="g1_287"/>
<image clip-path="url(#c3_287)" preserveAspectRatio="none" x="295" y="690" width="164" height="103" xlink:href="img/4.jpg"/>
<image clip-path="url(#c4_287)" preserveAspectRatio="none" x="371" y="788" width="2" height="5" xlink:href="img/5.jpg"/>
<image clip-path="url(#c5_287)" preserveAspectRatio="none" x="371" y="784" width="2" height="2" xlink:href="img/6.jpg"/>
<path d="M301.1,696.6v81.6H443.4V696.6H301.1Z" class="g0_287"/>
<path d="M301.1,696.6v81.6H443.4V696.6H301.1Z" class="g1_287"/>
<path d="M371.2,851.8c0,-.3,.3,-.5,.6,-.5c.4,0,.6,.2,.6,.5c0,.4,-.2,.6,-.6,.6c-.3,0,-.6,-.2,-.6,-.6m0,-3.5c0,-.3,.3,-.6,.6,-.6c.3,0,.6,.3,.6,.6c0,.4,-.2,.6,-.6,.6c-.3,0,-.6,-.2,-.6,-.6m0,-3.5c0,-.3,.3,-.6,.6,-.6c.3,0,.6,.3,.6,.6c0,.3,-.3,.6,-.6,.6c-.3,0,-.6,-.3,-.6,-.6m0,-3.5c0,-.3,.3,-.6,.6,-.6c.3,0,.6,.3,.6,.6c0,.3,-.3,.6,-.6,.6c-.3,0,-.6,-.3,-.6,-.6m0,-3.5c0,-.3,.3,-.6,.6,-.6c.3,0,.6,.3,.6,.6c0,.3,-.3,.6,-.6,.6c-.3,0,-.6,-.3,-.6,-.6m0,-3.5c0,-.4,.3,-.6,.6,-.6c.3,0,.6,.2,.6,.6c0,.3,-.3,.5,-.6,.5c-.3,0,-.6,-.2,-.6,-.5m0,-3.6c0,-.3,.3,-.5,.6,-.5c.3,0,.6,.2,.6,.5c0,.4,-.3,.6,-.6,.6c-.3,0,-.6,-.2,-.6,-.6m0,-3.5c0,-.3,.3,-.6,.6,-.6c.3,0,.6,.3,.6,.6c0,.3,-.3,.6,-.6,.6c-.3,0,-.6,-.3,-.6,-.6m0,-3.5c0,-.3,.3,-.6,.6,-.6c.3,0,.6,.3,.6,.6c0,.3,-.3,.6,-.6,.6c-.3,0,-.6,-.3,-.6,-.6m0,-3.5c0,-.3,.3,-.6,.6,-.6c.3,0,.6,.3,.6,.6c0,.3,-.3,.6,-.6,.6c-.3,0,-.6,-.3,-.6,-.6m0,-3.5c0,-.3,.3,-.6,.6,-.6c.3,0,.6,.3,.6,.6c0,.3,-.3,.6,-.6,.6c-.3,0,-.6,-.3,-.6,-.6m0,-3.5c0,-.4,.3,-.6,.6,-.6c.3,0,.6,.2,.6,.6c0,.3,-.3,.5,-.6,.5c-.3,0,-.6,-.2,-.6,-.5m0,-3.6c0,-.3,.3,-.5,.6,-.5c.3,0,.6,.2,.6,.5c0,.4,-.3,.6,-.6,.6c-.3,0,-.6,-.2,-.6,-.6m0,-3.5c0,-.3,.3,-.6,.6,-.6c.3,0,.6,.3,.6,.6c0,.3,-.3,.6,-.6,.6c-.3,0,-.6,-.3,-.6,-.6m0,-3.5c0,-.3,.3,-.6,.6,-.6c.3,0,.6,.3,.6,.6c0,.3,-.3,.6,-.6,.6c-.3,0,-.6,-.3,-.6,-.6m0,-3.5c0,-.3,.3,-.6,.6,-.6c.3,0,.5,.3,.5,.6c0,.3,-.2,.6,-.5,.6c-.3,0,-.6,-.3,-.6,-.6m0,-3.5c0,-.4,.2,-.6,.6,-.6c.3,0,.5,.2,.5,.6c0,.3,-.2,.6,-.5,.6c-.3,0,-.6,-.3,-.6,-.6m0,-3.5c0,-.4,.2,-.6,.6,-.6c.3,0,.5,.2,.5,.6c0,.3,-.2,.5,-.5,.5c-.4,0,-.6,-.2,-.6,-.5m0,-3.6c0,-.3,.2,-.5,.6,-.5c.3,0,.5,.2,.5,.5c0,.4,-.2,.6,-.5,.6c-.4,0,-.6,-.2,-.6,-.6Z" class="g2_287"/>
<path d="M371.8,855.9c-.3,0,-.6,-.2,-.6,-.5c0,-.4,.3,-.6,.6,-.6c.4,0,.6,.2,.6,.6c0,.3,-.2,.5,-.6,.5m0,-70.3c-.4,0,-.6,-.3,-.6,-.6c0,-.3,.2,-.6,.6,-.6c.3,0,.5,.3,.5,.6c0,.3,-.2,.6,-.5,.6Z" class="g2_287"/>
<path d="M371.4,778.9l8,7.6l-15.1,.1l7.1,-7.7Z" class="g0_287"/>
<path d="M371.4,778.9l8,7.6l-15.1,.1l7.1,-7.7Z" class="g3_287"/>
<image clip-path="url(#c6_287)" preserveAspectRatio="none" x="295" y="830" width="164" height="103" xlink:href="img/7.jpg"/>
<image clip-path="url(#c7_287)" preserveAspectRatio="none" x="371" y="830" width="2" height="23" xlink:href="img/8.jpg"/>
<image clip-path="url(#c8_287)" preserveAspectRatio="none" x="371" y="854" width="2" height="2" xlink:href="img/9.jpg"/>
<path d="M301.1,835.8v81.6H443.4V835.8H301.1Z" class="g0_287"/>
<path d="M301.1,835.8v81.6H443.4V835.8H301.1Z" class="g1_287"/>
<path d="M444.2,849.7h106" class="g4_287"/>
<path d="M558.5,849.7l-10.7,-3.9c0,0,2.4,3.9,0,7.8l10.7,-3.9Z" class="g2_287"/>
<path d="M257.4,715.6c-1.5,.6,-2.8,1,-4.2,.8c1,-1.9,4.9,-3.5,6.7,-4.3c3.2,-1.4,5.2,-1.7,8.7,-1.6c4,0,7.8,2.2,11.7,1.7c-2.3,-.3,-1.2,-2.8,-2,-4.5c2.1,1.6,3.3,2.5,5.9,3.1c-.1,1.6,-3.2,4.6,-4.5,5.7M267.9,853.8c.4,-3.2,6.9,-4,9.5,-4.1c2.9,-.2,6,-.1,8.9,0c-2.4,-.1,-2.5,-3.7,-3.9,-5.4c-.5,3.1,3.2,2.3,4.8,4.2c-1.2,1.5,-2.5,4.2,-3.9,5.3M697.6,793.5c-6.6,.1,-12.7,2,-19.2,3.8c-11.7,3.2,-13.9,14.8,-15.1,25.3c-1.2,-1.3,-1.5,-4.6,-2.9,-5.7c-.7,2.7,0,7,1.4,9.4c1,-2.7,5.8,-6.7,8.3,-7.9M342.6,345.2c1.9,-1.2,3.8,-2.6,6.1,-2.9c1.7,-.2,3.4,-.2,5.1,-.3c2.5,-.2,4.6,.5,6.9,1.4c5.5,2.1,11.1,2.5,17,2.5c3.1,0,6.2,.4,9.3,.4c.8,0,3.9,.4,4.3,-.9c.6,-2.1,-4.9,-1.2,-5.8,-1.2c1.9,0,6.2,-.8,7.3,1.4c1.1,2.1,-2.9,3.9,-3.2,5.9m-43.1,5.4c4.4,-2.6,9.4,-2.1,14.1,-.6c.9,.3,1.7,.4,2.6,.5c1.7,.2,2.2,.8,3.7,1.6c1.8,.8,3.2,1.9,5,2.8c2.7,1.5,5.1,1.9,8.2,1.8c2.8,-.1,5.9,-.2,8.6,-.5c1.4,-.2,1.6,-.8,2.7,-1.3c.8,-.4,1.5,-.1,2.3,-.3c-.3,-.1,-.8,-.1,-.9,-.2c-1.2,-.7,-2.7,-1.4,-4,-1.9c1.6,-.4,4.2,-.2,5.5,.9c2.4,2.2,-.8,6,-3.3,6.5m-18.9,49.4c2.1,-1.4,3.1,-2.8,3.6,-5.5c.7,-2.9,.1,-6,.6,-8.9c.4,-2.7,.2,-4,-.8,-6.3c-1,-2.2,-1.3,-5.1,-3,-6.8c-2.4,-2.3,-6,-2.6,-8.9,-3.4c-2.2,-.6,-4.4,-.1,-6.7,0c.7,-.2,1.1,-.9,1.7,-1.4c1.3,-1,3.6,-2,5.2,-2.5c-1.3,.1,-2.1,.7,-3.3,1.1c-1.3,.6,-4.1,.4,-4.6,2c-.5,1.2,.6,1.6,1.5,2.4c1.5,1.4,2.8,3.5,4.7,4.4c-.1,.4,-.5,.7,-1,.9M425.7,265.9c-2.3,-1.6,-5.7,-3,-8.5,-3.1c-3.9,0,-7.3,1.5,-11,2.8c-4.9,1.7,-9.4,4.1,-13.5,7.3c-4.9,3.7,-8.7,7.5,-12.1,12.6c-3.6,5.5,-7.1,11.1,-8.7,17.5c-1.6,6.2,-2.8,12.7,-3.7,19.1c1,-.8,.2,-1.8,-.3,-2.7c-1,-1.8,-2,-3.5,-2.7,-5.5c-.3,-.7,-.3,-1.4,-.7,-1.8c-.5,2.7,-.7,7.4,2.4,8.5c2.3,.8,3.9,-.9,5.5,-2.3c1,-.9,3,-2.3,3.1,-3.9M557,401.6c-2.8,-.4,-7,0,-8.9,-2.5c-1,-1.3,-2.6,-3.4,-2.4,-5.1c.1,-1.2,.6,-2.1,.7,-3.3c0,-1.2,-.1,-2.3,0,-3.4c-.6,1.2,-2.8,2.6,-3.7,3.6c.5,-.6,.7,-1.6,1.2,-2.1c.3,-.4,1.1,-1.2,1.8,-1c.5,.2,.7,.7,1,1c1.2,1.2,2.7,2.4,4.5,2.5M253.5,276.8c2.8,-.6,5.6,-.4,8.2,.9c3,1.5,7.1,5.6,7.9,9c.7,3.1,0,7.1,-.7,10.2c-.2,.9,-.2,1.5,-.8,2.1c-.8,-1.2,-3.2,-2.7,-2.9,-4.2c-.3,1.5,2.1,3.6,3.4,4.1c1,.4,.8,.4,2.1,-.3c1.5,-.7,6.1,-2.4,6.5,-4.3" class="g5_287"/>
<path d="M198.9,335.1H340.1m79.7,.4H561m-259.4,389H442.7M301.1,864H442.3m115.9,1.7H699.4" class="g6_287"/>
<g clip-path="url(#c9_287)">
<path d="M-4.5,13.7H-27.4m939.5,0H935M-4.5,1031.2H-27.4m939.5,0H935M13.7,-4.5V-27.4m0,1077v22.9m880,-1077V-27.4m0,1077v22.9" class="g7_287"/>
<path d="M-4.5,13.7H-27.4m939.5,0H935M-4.5,1031.2H-27.4m939.5,0H935M13.7,-4.5V-27.4m0,1077v22.9m880,-1077V-27.4m0,1077v22.9" class="g8_287"/>
</g>
</svg>