<?xml version="1.0" encoding="UTF-8" standalone="no"?>
<!DOCTYPE svg PUBLIC "-//W3C//DTD SVG 1.1//EN"
"http://www.w3.org/Graphics/SVG/1.1/DTD/svg11.dtd">
<svg viewBox="0 0 931 1096" version="1.1" xmlns="http://www.w3.org/2000/svg" xmlns:xlink="http://www.w3.org/1999/xlink">
<defs>
<clipPath id="c0_43"><path d="M500.9,222V205.1H520V222Z"/></clipPath>
<clipPath id="c1_43"><path d="M545.1,220.9v-17h22.7v17Z"/></clipPath>
<clipPath id="c2_43"><path d="M639.3,257.6v-17H662v17Z"/></clipPath>
<clipPath id="c3_43"><path d="M342.2,275.9v-17H365v17Z"/></clipPath>
<clipPath id="c4_43"><path d="M410.1,295V278h71.1v17Z"/></clipPath>
<clipPath id="c5_43"><path d="M380.4,746.3V587H861.9V746.3Z"/></clipPath>
<clipPath id="c6_43"><path d="M180.6,142.6c-3.4,0,-6.1,-2.7,-6.1,-6.1v-8.4L159.7,133V110.8l14.8,4.9v-9c0,-3.3,2.7,-6.1,6.1,-6.1H221c3.3,0,6.1,2.8,6.1,6.1v9.1l15.1,-5V133l-15.1,-5v8.5c0,3.4,-2.8,6.1,-6.1,6.1Z"/></clipPath>
<clipPath id="c7_43"><path d="M181.7,140.4c-2.6,0,-4.6,-2,-4.6,-4.6V125.2l-17.4,5v-16l17.4,5V108c0,-2.5,2,-4.6,4.6,-4.6h38.2c2.5,0,4.6,2.1,4.6,4.6v11.3l17.7,-5.1v16l-17.7,-5.1v10.7c0,2.6,-2.1,4.6,-4.6,4.6Z"/></clipPath>
<clipPath id="c8_43"><path d="M108.5,441.8V308.4H294.2V441.8Z"/></clipPath>
<style type="text/css"><![CDATA[
.g0_43{
fill: none;
stroke: #241F1F;
stroke-width: 0.763;
stroke-miterlimit: 10;
}
.g1_43{
fill: #FFF;
}
.g2_43{
fill: none;
stroke: #6AC48C;
stroke-width: 0.916;
stroke-linejoin: round;
}
.g3_43{
fill: none;
stroke: #EE008C;
stroke-width: 0.763;
stroke-linejoin: round;
}
.g4_43{
fill: none;
stroke: #00AEEF;
stroke-width: 0.916;
stroke-linejoin: round;
}
.g5_43{
fill: #00AEEF;
}
.g6_43{
fill: none;
stroke: #00AEEF;
stroke-width: 0.763;
stroke-miterlimit: 3;
}
.g7_43{
fill: none;
stroke: #241F1F;
stroke-width: 0.534;
stroke-miterlimit: 3;
}
.g8_43{
fill: none;
stroke: #FFF;
stroke-width: 1.527;
stroke-miterlimit: 3;
}
.g9_43{
fill: none;
stroke: #241F1F;
stroke-width: 0.381;
stroke-miterlimit: 3;
}
.ga_43{
fill: none;
stroke: #EE008C;
stroke-width: 0.916;
stroke-linejoin: round;
}
.gb_43{
fill: #6AC48C;
}
.gc_43{
fill: none;
stroke: #6AC48C;
stroke-width: 0.763;
stroke-miterlimit: 3;
}
.gd_43{
fill: #EE008C;
}
.ge_43{
fill: none;
stroke: #EE008C;
stroke-width: 0.763;
stroke-miterlimit: 3;
}
.gf_43{
fill: none;
stroke: #241F1F;
stroke-width: 0.611;
stroke-miterlimit: 3;
}
.gg_43{
fill: none;
stroke: #241F1F;
stroke-width: 0.763;
stroke-miterlimit: 3;
stroke-dasharray: 10,4;
}
.gh_43{
fill: #241F1F;
}
.gi_43{
fill: none;
stroke: #241F1F;
stroke-width: 0.763;
stroke-miterlimit: 3;
stroke-dasharray: 10,6;
}
.gj_43{
fill: #72D0F6;
}
.gk_43{
fill: #75D1F7;
}
.gl_43{
fill: #77D2F7;
}
.gm_43{
fill: #7AD3F7;
}
.gn_43{
fill: #7DD3F7;
}
.go_43{
fill: #80D4F7;
}
.gp_43{
fill: #83D5F7;
}
.gq_43{
fill: #85D6F7;
}
.gr_43{
fill: #88D6F8;
}
.gs_43{
fill: #8BD7F8;
}
.gt_43{
fill: #8DD8F8;
}
.gu_43{
fill: #90D9F8;
}
.gv_43{
fill: #91D9F8;
}
.gw_43{
fill: #95DAF8;
}
.gx_43{
fill: #97DBF8;
}
.gy_43{
fill: #98DBF9;
}
.gz_43{
fill: #9BDCF9;
}
.g10_43{
fill: #9DDDF9;
}
.g11_43{
fill: #A0DDF9;
}
.g12_43{
fill: #A2DEF9;
}
.g13_43{
fill: #A4DFF9;
}
.g14_43{
fill: #A7E0F9;
}
.g15_43{
fill: #A9E0FA;
}
.g16_43{
fill: #ABE1FA;
}
.g17_43{
fill: #AEE2FA;
}
.g18_43{
fill: #B0E3FA;
}
.g19_43{
fill: #B2E3FA;
}
.g1a_43{
fill: #B4E4FA;
}
.g1b_43{
fill: #B7E5FA;
}
.g1c_43{
fill: #B9E6FB;
}
.g1d_43{
fill: #BBE6FB;
}
.g1e_43{
fill: #BDE7FB;
}
.g1f_43{
fill: #C0E8FB;
}
.g1g_43{
fill: #C2E9FB;
}
.g1h_43{
fill: #C4E9FB;
}
.g1i_43{
fill: #C6EAFB;
}
.g1j_43{
fill: #C8EBFC;
}
.g1k_43{
fill: #CAECFC;
}
.g1l_43{
fill: #CBECFC;
}
.g1m_43{
fill: #CFEDFC;
}
.g1n_43{
fill: #A3DFF9;
}
.g1o_43{
fill: #AFE2FA;
}
.g1p_43{
fill: #B1E3FA;
}
.g1q_43{
fill: #BEE8FB;
}
.g1r_43{
fill: #C1E8FB;
}
.g1s_43{
fill: #CDEDFC;
}
.g1t_43{
fill: #D0EEFC;
}
.g1u_43{
fill: #D3EFFC;
}
.g1v_43{
fill: #D5EFFC;
}
.g1w_43{
fill: #D7F0FC;
}
.g1x_43{
fill: #DAF1FD;
}
.g1y_43{
fill: #DCF2FD;
}
.g1z_43{
fill: #DFF3FD;
}
.g20_43{
fill: #E1F4FD;
}
.g21_43{
fill: #E3F5FD;
}
.g22_43{
fill: #E6F6FD;
}
.g23_43{
fill: #E8F6FE;
}
.g24_43{
fill: none;
stroke: #89898B;
stroke-width: 0.534;
stroke-miterlimit: 3;
}
]]></style>
</defs>
<path clip-path="url(#c0_43)" d="M512.6,205.5h7.8" class="g0_43"/>
<path clip-path="url(#c1_43)" d="M556.7,204.3h11.5" class="g0_43"/>
<path clip-path="url(#c2_43)" d="M650.9,241h11.5" class="g0_43"/>
<path clip-path="url(#c3_43)" d="M353.9,259.3h11.5" class="g0_43"/>
<path clip-path="url(#c4_43)" d="M470.1,278.4h11.5" class="g0_43"/>
<path d="M342.2,758.3H878.5V583.9H342.2V758.3Z" class="g1_43"/>
<path d="M695.5,620.8v59.7" class="g2_43"/>
<path d="M533.5,610V717.5M482,655.2l.4,62.3M442.6,686.2v31.3" class="g3_43"/>
<path clip-path="url(#c5_43)" d="M380.8,680.8c32.1,-35.1,39.4,5.4,61.8,5.4c27.5,0,85.6,-111.5,130.7,-74.1" class="g4_43"/>
<path d="M531.8,610c0,-1,.8,-1.7,1.7,-1.7c1,0,1.8,.7,1.8,1.7c0,.9,-.8,1.7,-1.8,1.7c-.9,0,-1.7,-.8,-1.7,-1.7Z" class="g5_43"/>
<path d="M531.8,610c0,-1,.8,-1.7,1.7,-1.7c1,0,1.8,.7,1.8,1.7c0,.9,-.8,1.7,-1.8,1.7c-.9,0,-1.7,-.8,-1.7,-1.7Z" class="g6_43"/>
<path d="M835.6,722.5c-.1,2.6,-2.8,3.2,-6.1,3.3H785.4c-3.4,.1,-6,-.2,-6.1,2.4c-.1,-2.6,-2.8,-2.3,-6.2,-2.4H727.9c-3.3,-.1,-6.4,-.7,-6.5,-3.3M688.3,679.1c-2.6,-.1,-3,-2.3,-3.1,-4.9V655.8c-.1,-2.7,.5,-4.8,-2.2,-4.9c2.7,-.1,2.1,-2.3,2.2,-4.9V626.7c.1,-2.7,.5,-5.1,3.1,-5.2M539.5,611.4c2.6,.1,3.2,2.6,3.3,5.7v40.3c.1,3.1,-.3,5.6,2.3,5.7c-2.6,.1,-2.2,2.5,-2.3,5.6v41.4c-.1,3.1,-.7,5.9,-3.3,6M446.2,687.6c1.3,.1,1.7,1.1,1.8,2.4v9.1c0,1.4,-.1,2.4,1.2,2.5c-1.3,0,-1.2,1.1,-1.2,2.4v9.5c-.1,1.3,-.5,2.5,-1.8,2.6m40.6,-60.8c2.6,.1,3,2.3,3.1,5.1v19.4c.1,2.8,-.5,5,2.2,5.1c-2.7,.1,-2.1,2.4,-2.2,5.2v20.2c-.1,2.9,-.5,5.4,-3.1,5.5" class="g7_43"/>
<path d="M720.6,717.6H836.7" class="g8_43"/>
<path d="M720.5,717.5H836.8" class="g9_43"/>
<path clip-path="url(#c5_43)" d="M720.5,679.9c26.3,-21.1,85.6,-98.2,116.2,-33.7" class="g4_43"/>
<path d="M720.7,717.4H836.4" class="ga_43"/>
<path d="M693.7,680.5c0,-.9,.8,-1.7,1.7,-1.7c1,0,1.7,.8,1.7,1.7c0,1,-.7,1.7,-1.7,1.7c-.9,0,-1.7,-.7,-1.7,-1.7Z" class="gb_43"/>
<path d="M693.7,680.5c0,-.9,.8,-1.7,1.7,-1.7c1,0,1.7,.8,1.7,1.7c0,1,-.7,1.7,-1.7,1.7c-.9,0,-1.7,-.7,-1.7,-1.7Z" class="gc_43"/>
<path d="M693.7,620.9c0,-.9,.8,-1.7,1.7,-1.7c1,0,1.7,.8,1.7,1.7c0,1,-.7,1.8,-1.7,1.8c-.9,0,-1.7,-.8,-1.7,-1.8Z" class="gb_43"/>
<path d="M693.7,620.9c0,-.9,.8,-1.7,1.7,-1.7c1,0,1.7,.8,1.7,1.7c0,1,-.7,1.8,-1.7,1.8c-.9,0,-1.7,-.8,-1.7,-1.8Z" class="gc_43"/>
<path d="M719.1,680.5c0,-.9,.8,-1.7,1.8,-1.7c.9,0,1.7,.8,1.7,1.7c0,1,-.8,1.7,-1.7,1.7c-1,0,-1.8,-.7,-1.8,-1.7Z" class="g5_43"/>
<path d="M719.1,680.5c0,-.9,.8,-1.7,1.8,-1.7c.9,0,1.7,.8,1.7,1.7c0,1,-.8,1.7,-1.7,1.7c-1,0,-1.8,-.7,-1.8,-1.7Z" class="g6_43"/>
<path d="M719.1,717.2c0,-.9,.8,-1.7,1.8,-1.7c.9,0,1.7,.8,1.7,1.7c0,.9,-.8,1.7,-1.7,1.7c-1,0,-1.8,-.8,-1.8,-1.7Z" class="gd_43"/>
<path d="M719.1,717.2c0,-.9,.8,-1.7,1.8,-1.7c.9,0,1.7,.8,1.7,1.7c0,.9,-.8,1.7,-1.7,1.7c-1,0,-1.8,-.8,-1.8,-1.7Z" class="ge_43"/>
<path d="M834.9,717.2c0,-.9,.8,-1.7,1.8,-1.7c.9,0,1.7,.8,1.7,1.7c0,.9,-.8,1.7,-1.7,1.7c-1,0,-1.8,-.8,-1.8,-1.7Z" class="gd_43"/>
<path d="M834.9,717.2c0,-.9,.8,-1.7,1.8,-1.7c.9,0,1.7,.8,1.7,1.7c0,.9,-.8,1.7,-1.7,1.7c-1,0,-1.8,-.8,-1.8,-1.7Z" class="ge_43"/>
<path d="M834.9,646.2c0,-1,.8,-1.8,1.8,-1.8c.9,0,1.7,.8,1.7,1.8c0,.9,-.8,1.7,-1.7,1.7c-1,0,-1.8,-.8,-1.8,-1.7Z" class="g5_43"/>
<path d="M834.9,646.2c0,-1,.8,-1.8,1.8,-1.8c.9,0,1.7,.8,1.7,1.8c0,.9,-.8,1.7,-1.7,1.7c-1,0,-1.8,-.8,-1.8,-1.7Z" class="g6_43"/>
<path d="M695.3,620.8V597.9m0,142.5V680.5" class="gf_43"/>
<path d="M720.9,680.5v36.9" class="gg_43"/>
<path d="M836.8,717.5H857m-211.8,0h75.7" class="gf_43"/>
<path fill-rule="evenodd" d="M857,717.5l-1.7,-2.4l6.6,2.4l-6.6,2.4Z" class="gh_43"/>
<path d="M836.5,646.2v70.4m-33,-95.8h-108" class="gg_43"/>
<path d="M720.9,680.5H695.3" class="gi_43"/>
<path d="M403.7,740.4V597.8" class="gf_43"/>
<path fill-rule="evenodd" d="M403.7,597.8l-2.5,1.6l2.5,-6.5l2.4,6.5Z" class="gh_43"/>
<path d="M380.8,717.5H573.3" class="gf_43"/>
<path fill-rule="evenodd" d="M573.3,717.5l-1.7,-2.4l6.6,2.4l-6.6,2.4Z" class="gh_43"/>
<path fill-rule="evenodd" d="M695.4,597.9l-2.5,1.6l2.5,-6.5l2.4,6.5Z" class="gh_43"/>
<g clip-path="url(#c6_43)">
<path d="M251.3,126.4l-71.5,41.3l.7,1.2L252,127.7Z" class="gj_43"/>
<path d="M250.5,125.1L179,166.4l.7,1.2l71.5,-41.3Z" class="gk_43"/>
<path d="M249.7,123.8L178.2,165l.8,1.3L250.5,125Z" class="gl_43"/>
<path d="M249,122.4l-71.5,41.3l.7,1.3l71.5,-41.3Z" class="gm_43"/>
<path d="M248.2,121.1l-71.5,41.3l.7,1.2l71.5,-41.2Z" class="gn_43"/>
<path d="M247.4,119.8L176,161.1l.7,1.2L248.2,121Z" class="go_43"/>
<path d="M246.7,118.5l-71.5,41.2l.7,1.3l71.5,-41.3Z" class="gp_43"/>
<path d="M245.9,117.1l-71.5,41.3l.7,1.3l71.5,-41.3Z" class="gq_43"/>
<path d="M245.1,115.8l-71.5,41.3l.8,1.2l71.5,-41.2Z" class="gr_43"/>
<path d="M244.4,114.5l-71.5,41.3l.7,1.2l71.5,-41.3Z" class="gs_43"/>
<path d="M243.6,113.2l-71.5,41.2l.8,1.3l71.4,-41.3Z" class="gt_43"/>
<path d="M242.8,111.8l-71.4,41.3l.7,1.3l71.5,-41.3Z" class="gu_43"/>
<path d="M242.1,110.5l-71.5,41.3l.7,1.2l71.5,-41.2Z" class="gv_43"/>
<path d="M241.3,109.2l-71.5,41.3l.7,1.2L242,110.4Z" class="gw_43"/>
<path d="M240.5,107.9l-71.4,41.2l.7,1.3l71.5,-41.3Z" class="gx_43"/>
<path d="M239.8,106.5l-71.5,41.3l.7,1.3l71.5,-41.3Z" class="gy_43"/>
<path d="M239,105.2l-71.5,41.3l.8,1.2l71.5,-41.2Z" class="gz_43"/>
<path d="M238.3,103.9l-71.5,41.3l.7,1.2L239,105.1Z" class="g10_43"/>
<path d="M237.5,102.6L166,143.8l.7,1.3l71.5,-41.3Z" class="g11_43"/>
<path d="M236.7,101.2l-71.5,41.3l.8,1.3l71.4,-41.3Z" class="g12_43"/>
<path d="M236,99.9l-71.5,41.3l.7,1.2l71.5,-41.2Z" class="g13_43"/>
<path d="M235.2,98.6l-71.5,41.3l.7,1.2L235.9,99.8Z" class="g14_43"/>
<path d="M234.4,97.3l-71.5,41.2l.8,1.3L235.2,98.5Z" class="g15_43"/>
<path d="M233.7,95.9l-71.5,41.3l.7,1.3L234.4,97.2Z" class="g16_43"/>
<path d="M232.9,94.6l-71.5,41.3l.7,1.2L233.6,95.9Z" class="g17_43"/>
<path d="M232.1,93.3l-71.5,41.3l.8,1.2L232.9,94.5Z" class="g18_43"/>
<path d="M231.4,92l-71.5,41.2l.7,1.3L232.1,93.2Z" class="g19_43"/>
<path d="M230.6,90.6l-71.5,41.3l.7,1.3L231.3,91.9Z" class="g1a_43"/>
<path d="M229.8,89.3l-71.4,41.3l.7,1.2L230.6,90.6Z" class="g1b_43"/>
<path d="M229.1,88l-71.5,41.2l.7,1.3L229.8,89.2Z" class="g1c_43"/>
<path d="M228.3,86.7l-71.5,41.2l.7,1.3L229,87.9Z" class="g1d_43"/>
<path d="M227.5,85.3L156,126.6l.8,1.3L228.3,86.6Z" class="g1e_43"/>
<path d="M226.8,84l-71.5,41.3l.7,1.2L227.5,85.3Z" class="g1f_43"/>
<path d="M226,82.7l-71.5,41.2l.8,1.3L226.7,83.9Z" class="g1g_43"/>
<path d="M225.3,81.4l-71.5,41.2l.7,1.3L226,82.6Z" class="g1h_43"/>
<path d="M224.5,80L153,121.3l.7,1.3L225.2,81.3Z" class="g1i_43"/>
<path d="M223.7,78.7L152.2,120l.7,1.2L224.4,80Z" class="g1j_43"/>
<path d="M222.9,77.4l-71.4,41.2l.7,1.3L223.7,78.6Z" class="g1k_43"/>
<path d="M222.2,76.1l-71.5,41.2l.7,1.3L222.9,77.3Z" class="g1l_43"/>
<path d="M221.4,74.7L149.9,116l.8,1.3L222.2,76Z" class="g1m_43"/>
</g>
<g clip-path="url(#c7_43)">
<path d="M242.2,121.9v0c0,22.8,-18.4,41.3,-41.2,41.3c-22.8,0,-41.3,-18.5,-41.3,-41.3c0,-22.7,18.5,-41.2,41.3,-41.2c22.8,0,41.2,18.5,41.2,41.2m1.6,0C243.8,98.3,224.6,79.1,201,79.1c-23.7,0,-42.9,19.2,-42.9,42.8c0,23.7,19.2,42.9,42.9,42.9c23.6,0,42.8,-19.2,42.8,-42.9Z" class="g1n_43"/>
<path d="M240.7,121.9v0c0,22,-17.8,39.8,-39.7,39.8c-21.9,0,-39.7,-17.8,-39.7,-39.8C161.3,100,179.1,82.2,201,82.2c21.9,0,39.7,17.8,39.7,39.7m1.5,0C242.2,99.2,223.7,80.7,201,80.7c-22.8,0,-41.3,18.5,-41.3,41.2c0,22.8,18.5,41.3,41.3,41.3c22.7,0,41.2,-18.5,41.2,-41.3Z" class="g14_43"/>
<path d="M239.1,121.9v0c0,21.1,-17.1,38.2,-38.1,38.2c-21.1,0,-38.2,-17.1,-38.2,-38.2c0,-21,17.1,-38.1,38.2,-38.1c21,0,38.1,17.1,38.1,38.1m1.6,0C240.7,100,222.9,82.2,201,82.2c-22,0,-39.7,17.8,-39.7,39.7c0,22,17.7,39.8,39.7,39.8c21.9,0,39.7,-17.8,39.7,-39.8Z" class="g15_43"/>
<path d="M237.6,121.9v0c0,20.2,-16.4,36.6,-36.6,36.6c-20.2,0,-36.6,-16.4,-36.6,-36.6c0,-20.2,16.4,-36.6,36.6,-36.6c20.2,0,36.6,16.4,36.6,36.6m1.5,0C239.1,100.9,222,83.8,201,83.8c-21.1,0,-38.2,17.1,-38.2,38.1c0,21.1,17.1,38.2,38.2,38.2c21,0,38.1,-17.1,38.1,-38.2Z" class="g16_43"/>
<path d="M236,121.9v0c0,19.4,-15.7,35.1,-35,35.1c-19.4,0,-35.1,-15.7,-35.1,-35.1c0,-19.3,15.7,-35,35.1,-35c19.3,0,35,15.7,35,35m1.6,0C237.6,101.7,221.2,85.3,201,85.3c-20.2,0,-36.6,16.4,-36.6,36.6c0,20.2,16.4,36.6,36.6,36.6c20.2,0,36.6,-16.4,36.6,-36.6Z" class="g1o_43"/>
<path d="M234.5,121.9v0c0,18.5,-15,33.5,-33.5,33.5c-18.5,0,-33.5,-15,-33.5,-33.5c0,-18.4,15,-33.4,33.5,-33.4c18.5,0,33.5,15,33.5,33.4m1.5,0c0,-19.3,-15.7,-35,-35,-35c-19.4,0,-35.1,15.7,-35.1,35c0,19.4,15.7,35.1,35.1,35.1c19.3,0,35,-15.7,35,-35.1Z" class="g1p_43"/>
<path d="M232.9,121.9v0c0,17.7,-14.3,32,-31.9,32c-17.7,0,-32,-14.3,-32,-32C169,104.3,183.3,90,201,90c17.6,0,31.9,14.3,31.9,31.9m1.6,0c0,-18.4,-15,-33.4,-33.5,-33.4c-18.5,0,-33.5,15,-33.5,33.4c0,18.5,15,33.5,33.5,33.5c18.5,0,33.5,-15,33.5,-33.5Z" class="g1a_43"/>
<path d="M231.4,121.9v0c0,16.8,-13.7,30.4,-30.4,30.4c-16.8,0,-30.4,-13.6,-30.4,-30.4c0,-16.7,13.6,-30.3,30.4,-30.3c16.7,0,30.4,13.6,30.4,30.3m1.5,0C232.9,104.3,218.6,90,201,90c-17.7,0,-32,14.3,-32,31.9c0,17.7,14.3,32,32,32c17.6,0,31.9,-14.3,31.9,-32Z" class="g1b_43"/>
<path d="M229.8,121.9v0c0,15.9,-12.9,28.8,-28.8,28.8c-15.9,0,-28.8,-12.9,-28.8,-28.8C172.2,106,185.1,93.1,201,93.1c15.9,0,28.8,12.9,28.8,28.8m1.5,0C231.3,105.2,217.7,91.6,201,91.6c-16.8,0,-30.4,13.6,-30.4,30.3c0,16.8,13.6,30.4,30.4,30.4c16.7,0,30.3,-13.6,30.3,-30.4Z" class="g1c_43"/>
<path d="M228.2,121.9v0c0,15.1,-12.2,27.3,-27.2,27.3c-15.1,0,-27.3,-12.2,-27.3,-27.3c0,-15,12.2,-27.2,27.3,-27.2c15,0,27.2,12.2,27.2,27.2m1.6,0C229.8,106,216.9,93.1,201,93.1c-15.9,0,-28.8,12.9,-28.8,28.8c0,15.9,12.9,28.8,28.8,28.8c15.9,0,28.8,-12.9,28.8,-28.8Z" class="g1d_43"/>
<path d="M226.7,121.9v0c0,14.2,-11.5,25.7,-25.7,25.7c-14.2,0,-25.7,-11.5,-25.7,-25.7c0,-14.1,11.5,-25.7,25.7,-25.7c14.2,0,25.7,11.6,25.7,25.7m1.5,0C228.2,106.9,216,94.7,201,94.7c-15.1,0,-27.3,12.2,-27.3,27.2c0,15.1,12.2,27.3,27.3,27.3c15,0,27.2,-12.2,27.2,-27.3Z" class="g1q_43"/>
<path d="M225.1,121.9v0c0,13.4,-10.8,24.2,-24.1,24.2c-13.3,0,-24.2,-10.8,-24.2,-24.2c0,-13.3,10.9,-24.1,24.2,-24.1c13.3,0,24.1,10.8,24.1,24.1m1.6,0C226.7,107.8,215.1,96.2,201,96.2c-14.2,0,-25.7,11.6,-25.7,25.7c0,14.2,11.5,25.7,25.7,25.7c14.1,0,25.7,-11.5,25.7,-25.7Z" class="g1r_43"/>
<path d="M223.6,121.9v0c0,12.5,-10.2,22.6,-22.6,22.6c-12.5,0,-22.6,-10.1,-22.6,-22.6c0,-12.4,10.1,-22.5,22.6,-22.5c12.4,0,22.6,10.1,22.6,22.5m1.5,0C225.1,108.6,214.3,97.8,201,97.8c-13.4,0,-24.2,10.8,-24.2,24.1c0,13.4,10.8,24.2,24.2,24.2c13.3,0,24.1,-10.8,24.1,-24.2Z" class="g1h_43"/>
<path d="M222,121.9v0c0,11.6,-9.4,21.1,-21,21.1c-11.6,0,-21,-9.5,-21,-21.1c0,-11.6,9.4,-21,21,-21c11.6,0,21,9.4,21,21m1.5,0C223.5,109.5,213.4,99.4,201,99.4c-12.5,0,-22.6,10.1,-22.6,22.5c0,12.5,10.1,22.6,22.6,22.6c12.4,0,22.5,-10.1,22.5,-22.6Z" class="g1i_43"/>
<path d="M220.4,121.9v0c0,10.8,-8.7,19.5,-19.4,19.5c-10.8,0,-19.5,-8.7,-19.5,-19.5c0,-10.7,8.7,-19.4,19.5,-19.4c10.7,0,19.4,8.7,19.4,19.4m1.6,0c0,-11.6,-9.4,-21,-21,-21c-11.6,0,-21.1,9.4,-21.1,21c0,11.6,9.5,21.1,21.1,21.1c11.6,0,21,-9.5,21,-21.1Z" class="g1j_43"/>
<path d="M218.9,121.9v0c0,9.9,-8,18,-17.9,18c-9.9,0,-17.9,-8.1,-17.9,-18c0,-9.9,8,-17.9,17.9,-17.9c9.9,0,17.9,8,17.9,17.9m1.5,0c0,-10.7,-8.7,-19.4,-19.4,-19.4c-10.8,0,-19.5,8.7,-19.5,19.4c0,10.8,8.7,19.5,19.5,19.5c10.7,0,19.4,-8.7,19.4,-19.5Z" class="g1l_43"/>
<path d="M217.3,121.9v0c0,9.1,-7.3,16.4,-16.3,16.4c-9,0,-16.4,-7.3,-16.4,-16.4c0,-9,7.4,-16.3,16.4,-16.3c9,0,16.3,7.3,16.3,16.3m1.6,0C218.9,112,210.8,104,201,104c-9.9,0,-17.9,8,-17.9,17.9c0,9.9,8,18,17.9,18c9.8,0,17.9,-8.1,17.9,-18Z" class="g1s_43"/>
<path d="M215.8,121.9v0c0,8.2,-6.6,14.8,-14.8,14.8c-8.2,0,-14.8,-6.6,-14.8,-14.8c0,-8.1,6.6,-14.8,14.8,-14.8c8.2,0,14.8,6.7,14.8,14.8m1.5,0c0,-9,-7.3,-16.3,-16.3,-16.3c-9.1,0,-16.4,7.3,-16.4,16.3c0,9.1,7.3,16.4,16.4,16.4c9,0,16.3,-7.3,16.3,-16.4Z" class="g1t_43"/>
<path d="M214.2,121.9v0c0,7.3,-5.9,13.3,-13.2,13.3c-7.3,0,-13.3,-6,-13.3,-13.3c0,-7.3,6,-13.2,13.3,-13.2c7.3,0,13.2,5.9,13.2,13.2m1.6,0c0,-8.1,-6.7,-14.8,-14.8,-14.8c-8.2,0,-14.8,6.7,-14.8,14.8c0,8.2,6.6,14.8,14.8,14.8c8.1,0,14.8,-6.6,14.8,-14.8Z" class="g1u_43"/>
<path d="M212.7,121.9v0c0,6.5,-5.3,11.7,-11.7,11.7c-6.5,0,-11.7,-5.2,-11.7,-11.7c0,-6.4,5.2,-11.6,11.7,-11.6c6.4,0,11.7,5.2,11.7,11.6m1.5,0c0,-7.3,-5.9,-13.2,-13.2,-13.2c-7.3,0,-13.3,5.9,-13.3,13.2c0,7.3,6,13.3,13.3,13.3c7.3,0,13.2,-6,13.2,-13.3Z" class="g1v_43"/>
<path d="M211.1,121.9v0c0,5.6,-4.5,10.2,-10.1,10.2c-5.6,0,-10.2,-4.6,-10.2,-10.2c0,-5.5,4.6,-10.1,10.2,-10.1c5.6,0,10.1,4.6,10.1,10.1m1.5,0c0,-6.4,-5.2,-11.6,-11.6,-11.6c-6.5,0,-11.7,5.2,-11.7,11.6c0,6.5,5.2,11.7,11.7,11.7c6.4,0,11.6,-5.2,11.6,-11.7Z" class="g1w_43"/>
<path d="M209.6,121.9v0c0,4.8,-3.9,8.6,-8.6,8.6c-4.8,0,-8.6,-3.8,-8.6,-8.6c0,-4.7,3.8,-8.5,8.6,-8.5c4.7,0,8.6,3.8,8.6,8.5m1.5,0c0,-5.5,-4.5,-10.1,-10.1,-10.1c-5.6,0,-10.2,4.6,-10.2,10.1c0,5.6,4.6,10.2,10.2,10.2c5.6,0,10.1,-4.6,10.1,-10.2Z" class="g1x_43"/>
<path d="M208,121.9v0c0,3.9,-3.2,7,-7,7c-3.9,0,-7,-3.1,-7,-7c0,-3.8,3.1,-7,7,-7c3.8,0,7,3.2,7,7m1.5,0c0,-4.7,-3.8,-8.5,-8.5,-8.5c-4.8,0,-8.6,3.8,-8.6,8.5c0,4.8,3.8,8.6,8.6,8.6c4.7,0,8.5,-3.8,8.5,-8.6Z" class="g1y_43"/>
<path d="M206.4,121.9v0c0,3,-2.4,5.5,-5.4,5.5c-3,0,-5.5,-2.5,-5.5,-5.5c0,-3,2.5,-5.4,5.5,-5.4c3,0,5.4,2.4,5.4,5.4m1.6,0c0,-3.8,-3.2,-7,-7,-7c-3.9,0,-7,3.2,-7,7c0,3.9,3.1,7,7,7c3.8,0,7,-3.1,7,-7Z" class="g1z_43"/>
<path d="M204.9,121.9v0c0,2.2,-1.8,3.9,-3.9,3.9c-2.2,0,-3.9,-1.7,-3.9,-3.9c0,-2.1,1.7,-3.8,3.9,-3.8c2.1,0,3.9,1.7,3.9,3.8m1.5,0c0,-3,-2.4,-5.4,-5.4,-5.4c-3,0,-5.5,2.4,-5.5,5.4c0,3,2.5,5.5,5.5,5.5c3,0,5.4,-2.5,5.4,-5.5Z" class="g20_43"/>
<path d="M203.3,121.9v0c0,1.3,-1,2.4,-2.3,2.4c-1.3,0,-2.4,-1.1,-2.4,-2.4c0,-1.3,1.1,-2.3,2.4,-2.3c1.3,0,2.3,1,2.3,2.3m1.6,0c0,-2.1,-1.8,-3.8,-3.9,-3.8c-2.2,0,-3.9,1.7,-3.9,3.8c0,2.2,1.7,3.9,3.9,3.9c2.1,0,3.9,-1.7,3.9,-3.9Z" class="g21_43"/>
<path d="M201.8,121.9v0c0,.5,-.4,.8,-.8,.8c-.4,0,-.8,-.3,-.8,-.8c0,-.4,.4,-.7,.8,-.7c.4,0,.8,.3,.8,.7m1.5,0c0,-1.3,-1.1,-2.3,-2.3,-2.3c-1.3,0,-2.4,1,-2.4,2.3c0,1.3,1.1,2.4,2.4,2.4c1.2,0,2.3,-1.1,2.3,-2.4Z" class="g22_43"/>
<path d="M201.7,121.9c0,-.4,-.3,-.7,-.7,-.7c-.5,0,-.8,.3,-.8,.7c0,.5,.3,.8,.8,.8c.4,0,.7,-.3,.7,-.8Z" class="g23_43"/>
</g>
<path d="M126.8,121.9h36.7" class="ga_43"/>
<path d="M168.4,121.9l-6.5,2.5l1.6,-2.5l-1.6,-2.5Z" class="gd_43"/>
<path d="M236.1,121.9h27.5" class="ga_43"/>
<path d="M268.5,121.9l-6.5,2.5l1.6,-2.5L262,119.4Z" class="gd_43"/>
<g clip-path="url(#c8_43)">
<path d="M118.8,356.5c0,-26.8,-22.9,-43.5,15.7,-45c18.8,-.8,34,21.7,34,48.5c0,26.7,-15.3,50,-34,48.5c-46.2,-3.9,-15.7,-25.2,-15.7,-52Z" class="g1m_43"/>
<path d="M118.8,356.5c0,-26.8,-22.9,-43.5,15.7,-45c18.8,-.8,34,21.7,34,48.5c0,26.7,-15.3,50,-34,48.5c-46.2,-3.9,-15.7,-25.2,-15.7,-52Z" class="g4_43"/>
</g>
<path d="M170,436.2h36.7" class="ga_43"/>
<path d="M211.6,436.2l-6.4,2.5l1.5,-2.5l-1.5,-2.4Z" class="gd_43"/>
<g clip-path="url(#c8_43)">
<path d="M227.7,348.9c10.1,-27.6,31.9,-44.9,48.7,-38.8c16.9,6.1,22.4,33.4,12.4,61c-10.1,27.5,-31.9,44.9,-48.7,38.8c-16.8,-6.2,-22.4,-33.5,-12.4,-61Z" class="g1m_43"/>
<path d="M227.7,348.9c10.1,-27.6,31.9,-44.9,48.7,-38.8c16.9,6.1,22.4,33.4,12.4,61c-10.1,27.5,-31.9,44.9,-48.7,38.8c-16.8,-6.2,-22.4,-33.5,-12.4,-61Z" class="g4_43"/>
</g>
<path d="M253.1,331.3c0,-.9,.8,-1.7,1.7,-1.7c1,0,1.7,.8,1.7,1.7c0,1,-.7,1.8,-1.7,1.8c-.9,0,-1.7,-.8,-1.7,-1.8Z" class="g5_43"/>
<path d="M253.1,331.3c0,-.9,.8,-1.7,1.7,-1.7c1,0,1.7,.8,1.7,1.7c0,1,-.7,1.8,-1.7,1.8c-.9,0,-1.7,-.8,-1.7,-1.8Z" class="g6_43"/>
<path d="M240.5,358.8c0,-.9,.8,-1.7,1.7,-1.7c1,0,1.7,.8,1.7,1.7c0,1,-.7,1.8,-1.7,1.8c-.9,0,-1.7,-.8,-1.7,-1.8Z" class="g5_43"/>
<path d="M240.5,358.8c0,-.9,.8,-1.7,1.7,-1.7c1,0,1.7,.8,1.7,1.7c0,1,-.7,1.8,-1.7,1.8c-.9,0,-1.7,-.8,-1.7,-1.8Z" class="g6_43"/>
<path d="M242.8,389.4c0,-1,.8,-1.7,1.7,-1.7c1,0,1.7,.7,1.7,1.7c0,.9,-.7,1.7,-1.7,1.7c-.9,0,-1.7,-.8,-1.7,-1.7Z" class="g5_43"/>
<path d="M242.8,389.4c0,-1,.8,-1.7,1.7,-1.7c1,0,1.7,.7,1.7,1.7c0,.9,-.7,1.7,-1.7,1.7c-.9,0,-1.7,-.8,-1.7,-1.7Z" class="g6_43"/>
<path d="M141,331.3c38.2,-22.1,73.7,-21.7,107.3,-3.4" class="ga_43"/>
<path d="M252.6,330.3l-6.8,-1l2.5,-1.4l-.1,-2.9Z" class="gd_43"/>
<path d="M149,358.8c22.6,-16.5,68.9,-16.2,86.9,-3.7" class="ga_43"/>
<path d="M239.9,357.9l-6.7,-1.7l2.7,-1.1l.1,-3Z" class="gd_43"/>
<path d="M131.1,386.6c38.2,22.1,73.5,24.4,107.1,6.1" class="ga_43"/>
<path d="M242.5,390.3l-4.5,5.3l.2,-2.9l-2.6,-1.4Z" class="gd_43"/>
<path d="M129.4,386.6c0,-1,.7,-1.8,1.7,-1.8c.9,0,1.7,.8,1.7,1.8c0,.9,-.8,1.7,-1.7,1.7c-1,0,-1.7,-.8,-1.7,-1.7Z" class="g5_43"/>
<path d="M129.4,386.6c0,-1,.7,-1.8,1.7,-1.8c.9,0,1.7,.8,1.7,1.8c0,.9,-.8,1.7,-1.7,1.7c-1,0,-1.7,-.8,-1.7,-1.7Z" class="g6_43"/>
<path d="M147.3,358.8c0,-.9,.8,-1.7,1.7,-1.7c1,0,1.7,.8,1.7,1.7c0,1,-.7,1.8,-1.7,1.8c-.9,0,-1.7,-.8,-1.7,-1.8Z" class="g5_43"/>
<path d="M147.3,358.8c0,-.9,.8,-1.7,1.7,-1.7c1,0,1.7,.8,1.7,1.7c0,1,-.7,1.8,-1.7,1.8c-.9,0,-1.7,-.8,-1.7,-1.8Z" class="g6_43"/>
<path d="M139.3,331.3c0,-.9,.8,-1.7,1.7,-1.7c1,0,1.7,.8,1.7,1.7c0,1,-.7,1.8,-1.7,1.8c-.9,0,-1.7,-.8,-1.7,-1.8Z" class="g5_43"/>
<path d="M139.3,331.3c0,-.9,.8,-1.7,1.7,-1.7c1,0,1.7,.8,1.7,1.7c0,1,-.7,1.8,-1.7,1.8c-.9,0,-1.7,-.8,-1.7,-1.8Z" class="g6_43"/>
<path d="M145.4,857.4c7.9,-19.5,25.8,-55,36.7,-55c24.2,0,53.8,110,77.9,110c7.5,0,12,-21.4,13.7,-36.7" class="ga_43"/>
<path d="M292.1,784.1V930.7M108.8,783.9V930.7m-.2,-146.6H292.1M108.8,930.7H292.1M108.8,912.4H292.1M108.8,894.1H292.1M108.8,857.4H292.1M108.8,839.1H292.1M108.8,820.7H292.1M108.8,802.4H292.1m-165,-18.3V930.7M200.4,784.1V930.7M163.7,784.1V930.7M182.1,784.1V930.8M273.7,784.1V930.7M255.4,784.1V930.7M237.1,784.1V930.7M218.7,784.1V930.7" class="g24_43"/>
<path d="M145.4,930.7V789.4" class="gf_43"/>
<path fill-rule="evenodd" d="M145.4,789.4L143,791l2.4,-6.5l2.5,6.5Z" class="gh_43"/>
<path d="M108.8,875.7H286.7" class="gf_43"/>
<path fill-rule="evenodd" d="M286.7,875.7l-1.6,-2.4l6.5,2.4l-6.5,2.5Z" class="gh_43"/>
<path d="M156.7,892h13.8V878.2H156.7V892Z" class="g1_43"/>
<path d="M133.8,864.5H143V850.7h-9.2v13.8Z" class="g1_43"/>
</svg>