<?xml version="1.0" encoding="UTF-8" standalone="no"?>
<!DOCTYPE svg PUBLIC "-//W3C//DTD SVG 1.1//EN"
"http://www.w3.org/Graphics/SVG/1.1/DTD/svg11.dtd">
<svg viewBox="0 0 935 1210" version="1.1" xmlns="http://www.w3.org/2000/svg" xmlns:xlink="http://www.w3.org/1999/xlink">
<defs>
<clipPath id="c0_798"><path d="M42.8,1168.2V41.8H892.2V1168.2Z"/></clipPath>
<style type="text/css"><![CDATA[
.g0_798{
fill: #D9D9D9;
}
.g1_798{
}
]]></style>
</defs>
<path d="M93.4,291.5H219.9v39.6H93.4V291.5Z" class="g0_798"/>
<path d="M93.4,331.1H219.9v39.6H93.4V331.1Z" class="g0_798"/>
<path d="M93.4,370.7H219.9v39.6H93.4V370.7Z" class="g0_798"/>
<path d="M219.9,370.7H857v1.1H219.9v-1.1Z" class="g1_798"/>
<path d="M219.9,410.3H857v1.1H219.9v-1.1Z" class="g1_798"/>
<path d="M219.9,370.7H221v40.7h-1.1V370.7Z" class="g1_798"/>
<path d="M855.9,370.7H857v40.7h-1.1V370.7Z" class="g1_798"/>
<path d="M93.4,370.7H221v1.1H93.4v-1.1Z" class="g1_798"/>
<path d="M93.4,410.3H221v1.1H93.4v-1.1Z" class="g1_798"/>
<path d="M93.4,370.7h1.1v40.7H93.4V370.7Z" class="g1_798"/>
<path d="M219.9,370.7H221v40.7h-1.1V370.7Z" class="g1_798"/>
<path d="M219.9,331.1H857v1.1H219.9v-1.1Z" class="g1_798"/>
<path d="M219.9,370.7H857v1.1H219.9v-1.1Z" class="g1_798"/>
<path d="M219.9,331.1H221v40.7h-1.1V331.1Z" class="g1_798"/>
<path d="M855.9,331.1H857v40.7h-1.1V331.1Z" class="g1_798"/>
<path d="M93.4,331.1H221v1.1H93.4v-1.1Z" class="g1_798"/>
<path d="M93.4,370.7H221v1.1H93.4v-1.1Z" class="g1_798"/>
<path d="M93.4,331.1h1.1v40.7H93.4V331.1Z" class="g1_798"/>
<path d="M219.9,331.1H221v40.7h-1.1V331.1Z" class="g1_798"/>
<path d="M219.9,291.5H857v1.1H219.9v-1.1Z" class="g1_798"/>
<path d="M219.9,331.1H857v1.1H219.9v-1.1Z" class="g1_798"/>
<path d="M219.9,291.5H221v40.7h-1.1V291.5Z" class="g1_798"/>
<path d="M855.9,291.5H857v40.7h-1.1V291.5Z" class="g1_798"/>
<path d="M93.4,291.5H221v1.1H93.4v-1.1Z" class="g1_798"/>
<path d="M93.4,331.1H221v1.1H93.4v-1.1Z" class="g1_798"/>
<path d="M93.4,291.5h1.1v40.7H93.4V291.5Z" class="g1_798"/>
<path d="M219.9,291.5H221v40.7h-1.1V291.5Z" class="g1_798"/>
<image clip-path="url(#c0_798)" preserveAspectRatio="none" x="200" y="585" width="536" height="201" xlink:href="img/1.jpg"/>
</svg>