<?xml version="1.0" encoding="UTF-8" standalone="no"?>
<!DOCTYPE svg PUBLIC "-//W3C//DTD SVG 1.1//EN"
"http://www.w3.org/Graphics/SVG/1.1/DTD/svg11.dtd">
<svg viewBox="0 0 907 1045" version="1.1" xmlns="http://www.w3.org/2000/svg" xmlns:xlink="http://www.w3.org/1999/xlink">
<defs>
<clipPath id="c0_264"><path d="M-2.6,1047.7V-2.6H910.2V1047.7Z"/></clipPath>
<style type="text/css"><![CDATA[
.g0_264{
fill: #393939;
}
.g1_264{
fill: none;
stroke: #404040;
stroke-width: 2.898;
stroke-linecap: butt;
stroke-linejoin: miter;
stroke-miterlimit: 4;
}
.g2_264{
fill: #FFFFFF;
}
.g3_264{
fill: none;
stroke: #AFAFAF;
stroke-width: 1.527;
stroke-linecap: butt;
stroke-linejoin: miter;
stroke-miterlimit: 4;
}
.g4_264{
fill: none;
stroke: #ADADAD;
stroke-width: 1.527;
stroke-linecap: butt;
stroke-linejoin: miter;
stroke-miterlimit: 4;
}
.g5_264{
}
.g6_264{
fill: none;
stroke: #000000;
stroke-width: 1.527;
stroke-linecap: butt;
stroke-linejoin: miter;
stroke-miterlimit: 4;
}
.g7_264{
fill: none;
stroke: #4D4D4D;
stroke-width: 1.527;
stroke-linecap: butt;
stroke-linejoin: miter;
stroke-miterlimit: 4;
}
.g8_264{
fill: none;
stroke: #FFFFFF;
stroke-width: 1.909;
stroke-linecap: butt;
stroke-linejoin: miter;
}
.g9_264{
fill: none;
stroke: #000000;
stroke-width: 0.381;
stroke-linecap: butt;
stroke-linejoin: miter;
}
]]></style>
</defs>
<path d="M112.4,342.3V831.1H805.6V342.3H112.4Z" class="g0_264"/>
<path d="M112.4,342.3V831.1H805.6V342.3H112.4Z" class="g1_264"/>
<path d="M112.3,342.6v15.7H807V342.6H112.3Z" class="g2_264"/>
<path d="M554,380.1c-4.8,-2.1,-9.5,-3.6,-13.4,.9c-2.4,2.7,-2.9,7,-4.4,10.3c.1,-1.5,-.6,-2.8,-1.7,-3.9c-.3,2.1,-.4,4.4,-.2,6.6c3.1,.2,4.6,-3.6,7.9,-3.4" class="g3_264"/>
<path d="M526.9,611.9c-9.9,.1,-20.8,-2.9,-30.5,-.7c2.8,-1.5,3.5,-4.8,4.4,-7.5c-2.2,-1,-8.9,6.7,-9.6,9.1c3.4,.4,6.8,0,10.1,.1m24.6,107c-6.6,1.8,-13,3.3,-19.7,4.4c-7.7,1.3,-14.7,4.1,-22.2,5.6c.6,-2.6,3.3,-4.1,4.7,-6.1c-3.6,.2,-7.1,5.1,-7.9,8.3c3.3,1.8,10.6,-.5,14.6,-.4" class="g4_264"/>
<path d="M132.5,186.8c5.1,0,9.2,-4,9.2,-9c0,-4.9,-4.1,-8.9,-9.2,-8.9c-5,0,-9.2,4,-9.2,8.9c0,5,4.2,9,9.2,9Z" class="g5_264"/>
<path d="M132.5,186.8c5.1,0,9.2,-4,9.2,-9c0,-4.9,-4.1,-8.9,-9.2,-8.9c-5,0,-9.2,4,-9.2,8.9c0,5,4.2,9,9.2,9Z" class="g6_264"/>
<path d="M579.6,223.8c-.1,-.9,-.2,-1.8,-.3,-2.7c2.1,-1.5,4.5,-1.7,7.2,-.6c6.3,.4,12.5,1.4,18.5,3.1c16.2,4.6,37.4,14.3,34.4,34.7c-.9,5.1,-3,9.5,-6.5,13.3c-6.3,8.5,-13.8,16,-20.3,24.3c-5.5,7.2,-10.3,15.4,-17,21.5c.2,-4.3,1.1,-9.4,-.8,-13.4c-.3,2.2,0,4.9,-.1,7.2c-.1,2.7,-.7,5.4,-.9,8.1c1.1,.9,2.4,1,3.9,.2c8.9,-.6,17.4,-.6,26.3,.2" class="g7_264"/>
<path d="M550.3,372.5c-.4,-.4,-.4,-.2,-.8,-.3c-.9,-.3,-1.7,-1.1,-2.6,-1.5c-.8,-.4,-1.6,-.7,-2.5,-.9c-1.5,-.3,-2.9,-.8,-4.5,-.9c-1.7,0,-3.6,0,-5.3,0c-1.9,.1,-3.7,.5,-5.5,.7c-1.3,.2,-2.8,.5,-4.1,.9c-1.7,.4,-3.4,.8,-5.1,1.3c-1.5,.5,-3,.9,-4.5,1.3c-1.7,.4,-3.2,.9,-4.8,1.5c-1.6,.7,-3.1,1.3,-4.7,1.7c-2,.6,-4,1.1,-5.8,1.9c-3.5,1.6,-6.7,3.7,-9.3,6.4c-.6,.6,-1.3,1.2,-1.9,1.7c-.6,.4,-1.3,.7,-1.8,1.2c-1.2,1.1,-2.5,2.2,-3.7,3.3c-.5,.4,-1,.9,-1.5,1.3c-.6,.5,-1,1.1,-1.5,1.7c-.4,.4,-1.2,1.6,-1.9,1.8c-.2,-.9,.3,-1.9,.7,-2.6c.2,-.5,.7,-1.2,.6,-1.7c-.4,1,-.8,2.5,-.6,3.5c.1,0,.1,.1,.2,.1c0,.3,-.2,.7,-.2,1c.9,.2,2.7,-1.4,3.3,-.5" class="g4_264"/>
<g clip-path="url(#c0_264)">
<path d="M-4.5,13.7H-27.4m939.5,0H935M-4.5,1031.2H-27.4m939.5,0H935M13.7,-4.5V-27.4m0,1077v22.9m880,-1077V-27.4m0,1077v22.9" class="g8_264"/>
<path d="M-4.5,13.7H-27.4m939.5,0H935M-4.5,1031.2H-27.4m939.5,0H935M13.7,-4.5V-27.4m0,1077v22.9m880,-1077V-27.4m0,1077v22.9" class="g9_264"/>
</g>
</svg>