<?xml version="1.0" encoding="UTF-8" standalone="no"?>
<!DOCTYPE svg PUBLIC "-//W3C//DTD SVG 1.1//EN"
"http://www.w3.org/Graphics/SVG/1.1/DTD/svg11.dtd">
<svg viewBox="0 0 931 1096" version="1.1" xmlns="http://www.w3.org/2000/svg" xmlns:xlink="http://www.w3.org/1999/xlink">
<defs>
<style type="text/css"><![CDATA[
.g0_212{
fill: none;
stroke: #00AEEF;
stroke-width: 1.145;
}
.g1_212{
fill: none;
stroke: #0079C2;
stroke-width: 0.763;
}
]]></style>
</defs>
<path d="M307.7,162.8c0,0,-1.6,0,-1.6,1.5v14.2c0,0,0,1.5,1.6,1.5h14.1c0,0,1.5,0,1.5,-1.5V164.3c0,0,0,-1.5,-1.5,-1.5H307.7Zm-1.6,194c0,0,-1.5,0,-1.5,1.6v14.1c0,0,0,1.5,1.5,1.5h14.2c0,0,1.5,0,1.5,-1.5V358.4c0,0,0,-1.6,-1.5,-1.6H306.1Z" class="g0_212"/>
<path d="M290.7,343.7c0,0,-3.1,0,-3.1,3V463.8c0,0,0,3.1,3.1,3.1H820.1c0,0,3,0,3,-3.1V346.7c0,0,0,-3,-3,-3H290.7Z" class="g1_212"/>
<path d="M307.7,829.1c0,0,-1.6,0,-1.6,1.6v14.1c0,0,0,1.5,1.6,1.5h14.1c0,0,1.5,0,1.5,-1.5V830.7c0,0,0,-1.6,-1.5,-1.6H307.7Z" class="g0_212"/>
<path d="M290.7,936.6c0,0,-3.1,0,-3.1,3.1v100.4c0,0,0,3,3.1,3H820.1c0,0,3,0,3,-3V939.7c0,0,0,-3.1,-3,-3.1H290.7Z" class="g1_212"/>
</svg>