<?xml version="1.0" encoding="UTF-8" standalone="no"?>
<!DOCTYPE svg PUBLIC "-//W3C//DTD SVG 1.1//EN"
"http://www.w3.org/Graphics/SVG/1.1/DTD/svg11.dtd">
<svg viewBox="0 0 931 1096" version="1.1" xmlns="http://www.w3.org/2000/svg" xmlns:xlink="http://www.w3.org/1999/xlink">
<defs>
<clipPath id="c0_147"><path d="M366.4,864.4V830.6H491.5v33.8Z"/></clipPath>
<style type="text/css"><![CDATA[
.g0_147{
fill: none;
stroke: #241F1F;
stroke-width: 0.763;
stroke-miterlimit: 10;
}
.g1_147{
fill: none;
stroke: #00AEEF;
stroke-width: 0.916;
stroke-linejoin: round;
}
.g2_147{
fill: #FFF;
}
.g3_147{
fill: none;
stroke: #00AEEF;
stroke-width: 0.763;
stroke-miterlimit: 3;
}
.g4_147{
fill: #00AEEF;
}
.g5_147{
fill: none;
stroke: #241F1F;
stroke-width: 0.611;
stroke-miterlimit: 3;
}
.g6_147{
fill: #241F1F;
}
.g7_147{
fill: none;
stroke: #6AC48C;
stroke-width: 1.069;
stroke-linejoin: round;
stroke-dasharray: 10,4;
}
.g8_147{
fill: #EE008C;
}
.g9_147{
fill: none;
stroke: #EE008C;
stroke-width: 0.763;
stroke-miterlimit: 3;
}
.ga_147{
fill: #B81D8E;
}
.gb_147{
fill: none;
stroke: #EE008C;
stroke-width: 0.381;
stroke-miterlimit: 3;
}
]]></style>
</defs>
<path clip-path="url(#c0_147)" d="M415.1,848.6h76.8" class="g0_147"/>
<path d="M722.9,836.4h17.4m-314.7,84h75.6" class="g0_147"/>
<path d="M108.7,540.1c4.6,-2.2,10.7,-4.2,17.6,-4.2c12.2,0,20.6,13,33.8,20.3c10.5,5.8,21.7,11.3,28.8,18.3c8.4,8.4,18,27.7,26.2,36.7m0,-82.5c31.1,0,28.4,27.5,55,27.5c15.2,0,23.4,-12.6,28.4,-32.5" class="g1_147"/>
<path d="M268.4,556.2c0,-.9,.8,-1.7,1.7,-1.7c1,0,1.8,.8,1.8,1.7c0,1,-.8,1.7,-1.8,1.7c-.9,0,-1.7,-.7,-1.7,-1.7Z" class="g2_147"/>
<path d="M268.4,556.2c0,-.9,.8,-1.7,1.7,-1.7c1,0,1.8,.8,1.8,1.7c0,1,-.8,1.7,-1.8,1.7c-.9,0,-1.7,-.7,-1.7,-1.7Z" class="g3_147"/>
<path d="M213.4,611.2c0,-.9,.8,-1.7,1.7,-1.7c1,0,1.8,.8,1.8,1.7c0,1,-.8,1.7,-1.8,1.7c-.9,0,-1.7,-.7,-1.7,-1.7Z" class="g4_147"/>
<path d="M213.4,611.2c0,-.9,.8,-1.7,1.7,-1.7c1,0,1.8,.8,1.8,1.7c0,1,-.8,1.7,-1.8,1.7c-.9,0,-1.7,-.7,-1.7,-1.7Z" class="g3_147"/>
<path d="M213.4,528.7c0,-.9,.8,-1.7,1.7,-1.7c1,0,1.8,.8,1.8,1.7c0,1,-.8,1.7,-1.8,1.7c-.9,0,-1.7,-.7,-1.7,-1.7Z" class="g2_147"/>
<path d="M213.4,528.7c0,-.9,.8,-1.7,1.7,-1.7c1,0,1.8,.8,1.8,1.7c0,1,-.8,1.7,-1.8,1.7c-.9,0,-1.7,-.7,-1.7,-1.7Z" class="g3_147"/>
<path d="M268.4,501.2c0,-.9,.8,-1.7,1.7,-1.7c1,0,1.8,.8,1.8,1.7c0,1,-.8,1.7,-1.8,1.7c-.9,0,-1.7,-.7,-1.7,-1.7Z" class="g4_147"/>
<path d="M268.4,501.2c0,-.9,.8,-1.7,1.7,-1.7c1,0,1.8,.8,1.8,1.7c0,1,-.8,1.7,-1.8,1.7c-.9,0,-1.7,-.7,-1.7,-1.7Z" class="g3_147"/>
<path d="M158.4,556.2c0,-.9,.8,-1.7,1.7,-1.7c1,0,1.8,.8,1.8,1.7c0,1,-.8,1.7,-1.8,1.7c-.9,0,-1.7,-.7,-1.7,-1.7Z" class="g2_147"/>
<path d="M158.4,556.2c0,-.9,.8,-1.7,1.7,-1.7c1,0,1.8,.8,1.8,1.7c0,1,-.8,1.7,-1.8,1.7c-.9,0,-1.7,-.7,-1.7,-1.7Z" class="g3_147"/>
<path d="M109.7,584H298.1" class="g5_147"/>
<path fill-rule="evenodd" d="M298.1,584l-1.6,-2.4L303,584l-6.5,2.5Z" class="g6_147"/>
<path d="M132.6,625V479.5" class="g5_147"/>
<path fill-rule="evenodd" d="M132.6,479.5l-2.4,1.7l2.4,-6.6l2.5,6.6Z" class="g6_147"/>
<path d="M215.1,581v6.1M187.6,581v6.1M160.1,581v6.1M242.6,581v6.1M270.1,581v6.1" class="g5_147"/>
<path d="M260.7,251.5V344M203,251.5h57.7" class="g7_147"/>
<path d="M113.6,335.7c7.5,-14.5,29.5,-27.5,46,-27.5c15.8,0,23.4,8.9,39.9,8.9c44.8,0,41.7,-77.2,101,-92.2" class="g1_147"/>
<path d="M259.2,251.5c0,-.8,.7,-1.5,1.5,-1.5c.9,0,1.6,.7,1.6,1.5c0,.9,-.7,1.6,-1.6,1.6c-.8,0,-1.5,-.7,-1.5,-1.6Z" class="g8_147"/>
<path d="M259.2,251.5c0,-.8,.7,-1.5,1.5,-1.5c.9,0,1.6,.7,1.6,1.5c0,.9,-.7,1.6,-1.6,1.6c-.8,0,-1.5,-.7,-1.5,-1.6Z" class="g9_147"/>
<path d="M253,262.8l-1.6,8.1l-1.5,-3.3l-3.6,-.1Z" class="ga_147"/>
<path d="M267.2,244.3l3.7,-7.4l.6,3.6l3.5,1Z" class="ga_147"/>
<path d="M110.9,344H303.5m-42.8,-3v6.1" class="g5_147"/>
<path fill-rule="evenodd" d="M303.5,344l-1.6,-2.4l6.5,2.4l-6.5,2.5Z" class="g6_147"/>
<path d="M174.1,381.1V206.7" class="g5_147"/>
<path fill-rule="evenodd" d="M174.1,206.7l-2.4,1.6l2.4,-6.5l2.5,6.5Z" class="g6_147"/>
<path d="M177.2,251.5h-6.1" class="g5_147"/>
<path d="M237,355.9h13.3" class="gb_147"/>
<path d="M253.6,355.9l-4.3,1.7l1,-1.7l-1,-1.6Z" class="g8_147"/>
<path d="M283.7,355.9H270.4" class="gb_147"/>
<path d="M267.1,355.9l4.4,-1.6l-1.1,1.6l1.1,1.7Z" class="g8_147"/>
<path d="M187.8,228.1v11.8" class="gb_147"/>
<path d="M187.8,243.2l-1.7,-4.3l1.7,1l1.7,-1Z" class="g8_147"/>
<path d="M187.8,277.5V264.2" class="gb_147"/>
<path d="M187.8,260.9l1.7,4.3l-1.7,-1l-1.7,1Z" class="g8_147"/>
</svg>