<?xml version="1.0" encoding="UTF-8" standalone="no"?>
<!DOCTYPE svg PUBLIC "-//W3C//DTD SVG 1.1//EN"
"http://www.w3.org/Graphics/SVG/1.1/DTD/svg11.dtd">
<svg viewBox="0 0 907 1045" version="1.1" xmlns="http://www.w3.org/2000/svg" xmlns:xlink="http://www.w3.org/1999/xlink">
<defs>
<clipPath id="c0_487"><path d="M706.2,558.9c-16,-10.7,-34.4,-11.3,-28.3,-41.8c3.2,-16.3,15.4,-22.8,29.3,-28.6h15.2c35.3,16.1,27.1,55.7,-4,70.4Z"/></clipPath>
<clipPath id="c1_487"><path d="M286.2,588.8C270.2,578.1,251.8,577.5,257.9,547c3.2,-16.3,15.4,-22.8,29.3,-28.6h15.2c35.3,16.1,27.1,55.7,-4.1,70.4Z"/></clipPath>
<clipPath id="c2_487"><path d="M418.2,564.2c-11.3,-7.6,-24.4,-8.1,-20.1,-29.7c2.3,-11.5,11,-16.2,20.8,-20.3h10.8c25.1,11.5,19.2,39.5,-2.9,50Z"/></clipPath>
<clipPath id="c3_487"><path d="M591.2,537.3c-11.3,-7.6,-24.4,-8.1,-20.1,-29.7c2.3,-11.6,11,-16.2,20.9,-20.3h10.7c25.1,11.4,19.3,39.5,-2.8,50Z"/></clipPath>
<clipPath id="c4_487"><path d="M273.4,478.1V437.3h27.4v40.8Z"/></clipPath>
<clipPath id="c5_487"><path d="M756.6,469.2V411.8H784v57.4Z"/></clipPath>
<clipPath id="c6_487"><path d="M708.3,479.2c-2.9,-.3,-7.7,-1.6,-8,-4.8c.1,-.4,.1,-.1,0,-.5c.4,-1.8,.7,-3.5,1.3,-5.2c0,-.3,-.1,-.1,-.2,-.4c.9,-1.8,.3,-3.8,2.1,-4.6c.1,-.6,.3,-1.2,0,-1.9c.3,-1,1.3,-1.4,2.5,-1.6h.4v.2h.2v-.2h.8v-.1h.4v.1h.1v-.1h.2v.1h1.8v.2h.7v.2h.4v.2h.6v-.2h.4v-.2h.5v-.2h.8v-.1h.4v.1h1.5v.2h2.1v.2h1.6v.2h.2v-.2h1.7v-.2h1.1v-.2h.2v.2h1.2v-.2h1v.2h.1v-.2h1c.3,0,9,.9,9,1h7.3c1.8,-.4,5.6,.3,6.7,-1h1.4c2.5,1.8,2.3,4.1,3.4,7.3c.9,2.5,3.5,6,1.5,8.9c-2.2,1.1,-6.6,1.1,-9.8,1.1c-.5,0,-.9,0,-1.3,0c-.3,.6,-.9,.7,-1.3,1.2h-.2c0,-.3,-.1,-.4,-.2,-.4c-.2,0,-.4,.1,-.6,.2c-.2,-.5,-.7,-.7,-.9,-1.2c-1.3,0,-2.1,0,-2.9,-.4h-8.8v.2h-.6v-.2h-.8v.2h-3.8v-.2h-2.7c-3.6,.7,-8.2,1.6,-12.3,2.3Zm52.8,2c-3.3,-2.7,-5.4,-13.4,-1.4,-16.5c.1,-3.5,-3.9,-4.6,-7.3,-4.6c-.3,-.3,-.8,-1,-.9,-1.4c.2,-.3,.4,-.6,.8,-.8h1.9v.2h.7v.2h.2v-.2h.2c3.8,1.1,5.7,3.2,7.5,6.2h.4v-.2h.4c3.4,.9,6.7,6.3,5.1,11.1c-.7,2.2,-3.9,4.9,-5.9,6ZM721,418.4c-.4,-.2,-.7,-.3,-1,-.3c.4,.1,.6,.2,1,.3Zm-15.2,39.2c-.5,-.5,-1.7,-.5,-2.1,-1c-.9,-1.1,0,-4.5,-.4,-5.4v-5.1h.2v-.4h-.2v-.2h.2v-1.9h.2v-1.2h.2v-1h.2v-3h.2v-8.5h-.2v-.2h-.2V429h-.2v-.6h.2v-.6h-.2v-.4h-.2v-.7h-.2v-1.2h-.2v-.4h.2v-1.5h.2v-.9h.2v-.6h.2v-.4h.2v-.4h.2v-.4h.2v-.2h.2v-.2h.2v-.2h.2v-.2h.1V420h.2v-.2h.2v-.2h.4v-.2h.2v-.2h.4V419h.4v-.2h.4v-.2h.7v-.2h1v-.2h3.3V418h.9v-.1h1.5v-.2h.2v.2h.2v-.2h1.7c0,.2,.5,.3,-.1,.5c.7,0,1.3,.3,1.7,.4h1.1c0,-.3,.1,-.5,.4,-.5c-.1,0,-.3,0,-.5,-.1c.9,-.2,2.3,-.3,3,-.7h.6v.2h.4v-.2h.2v.2h1.1v.2h.2v-.2h.4c0,-.3,.4,-.5,.9,-.5c1.7,0,5,1.1,5.6,1.4h.2v-.2h1v.2h1.1v-.2h.4v.2H736v.2h.3v-.2h.6v.2h.2v-.2h.4v.2H740v-.2h2.3v.2h.9v.2h1.6v.2h3.6v-.2h1.4v.8h.7v-.2h.6v.2h.2v.2h.2v.2h.2v-.2h.2c3.5,.9,1.5,4.5,1.3,7.3c.3,1.1,.5,2.8,.4,3.8c.1,.4,.1,-.1,.2,.6c-.3,.9,-.7,2.5,-.4,3.4c-.2,.5,-.2,1.6,-.4,2.1c.7,2.6,.4,7.6,.8,10.4c.3,2.1,.9,4.2,.2,6.1c-.5,1.2,-1.5,1.9,-2.1,2.9h-.4V456h-.2v.2h-.2v.2h-.4v-.2h-.4v.2h-.2v.2h-8.6v.2h-5.2v.2h-5.1v.2H731V457h-.2v.2h-.6V457h-1.7v.2h-1.2v.2h-.4v-.2h-.4v.2h-.1v-.2h-2V457h-6.3v-.2h-9.2v.2h-.8v.2h-.7v.2h-.2v-.2h-.8v.2H706v.2Z"/></clipPath>
<clipPath id="c7_487"><path d="M632.1,596.9c-11.4,-7.6,-24.4,-8,-20.1,-29.7c2.3,-11.5,10.9,-16.1,20.8,-20.3h10.8c25,11.5,19.2,39.6,-2.9,50Z"/></clipPath>
<clipPath id="c8_487"><path d="M719.3,135.4v-30H810v30Z"/></clipPath>
<clipPath id="c9_487"><path d="M90.8,233.8V105.4h102V233.8Z"/></clipPath>
<clipPath id="ca_487"><path d="M314.7,643.7c0,-.3,0,-.7,0,-1c0,-.5,0,-1,0,-1.5c-.1,-.6,-.3,-1.4,-.7,-2.2c0,-.1,-.1,-.2,-.1,-.3c.6,.1,1.2,.3,1.8,.7c1.3,.7,2.5,2,3.3,3c.2,.2,.3,.4,.4,.5c-.2,0,-.4,0,-.6,0c-.7,0,-1.5,.1,-1.9,.1c-.9,0,-1.6,.4,-2,.6c-.1,0,-.1,.1,-.2,.1ZM309.3,657v-1.5h-8.6v-3.3h15.7v-4H300.7v-3.3h8.4v-4.1h-8.4v-2.3h7.4c.8,0,1.9,-.1,2.8,-.1c0,0,.1,0,.1,0c.4,0,.8,0,.8,.1c.1,0,.2,.1,.4,.4c.2,.3,.5,.8,.6,1.2c.2,.5,.3,1,.3,1.2c.1,.4,.1,.9,.1,1.4c0,.7,0,1.4,-.1,2.1l-.1,1l1,-.2c.8,-.1,1.3,-.5,1.7,-.7c.4,-.2,.6,-.3,1.2,-.3c.6,-.1,1.3,-.2,1.9,-.2c.4,0,.8,.1,.9,.1l.1,.1h.3l.1,12.4Zm12.4,0V643.6l-.1,-.2c0,0,-.9,-1.6,-2.4,-3.1c-.8,-.8,-1.7,-1.6,-2.7,-2.3c-1.1,-.6,-2.4,-1,-3.7,-1v.3c-.1,-.1,-.2,-.1,-.2,-.2c-.6,-.2,-1.1,-.3,-1.7,-.3c-1.1,0,-2.2,.2,-2.8,.2h-7.4v-6.8h27.5V657Z"/></clipPath>
<clipPath id="cb_487"><path d="M314.7,643.7c.1,0,.1,-.1,.2,-.1c.4,-.2,1.1,-.6,2,-.6c.4,0,1.2,-.1,1.9,-.1c.2,0,.4,0,.6,0c-.1,-.1,-.2,-.3,-.4,-.5c-.8,-1,-2,-2.3,-3.3,-3c-.6,-.4,-1.2,-.6,-1.8,-.7c0,.1,.1,.2,.1,.3c.4,.8,.6,1.6,.7,2.2c0,.5,0,1,0,1.5c0,.3,0,.7,0,1Zm5.5,13.3l-.1,-12.4h-.3l-.1,-.1c-.1,0,-.5,-.1,-.9,-.1c-.6,0,-1.3,.1,-1.9,.2c-.6,0,-.8,.1,-1.2,.3c-.4,.2,-.9,.6,-1.7,.7l-1,.2l.1,-1c.1,-.7,.1,-1.4,.1,-2.1c0,-.5,0,-1,-.1,-1.4c0,-.2,-.1,-.7,-.3,-1.2c-.1,-.4,-.4,-.9,-.6,-1.2c-.2,-.3,-.3,-.4,-.4,-.4c0,-.1,-.4,-.1,-.8,-.1c0,0,-.1,0,-.1,0c-.9,0,-2,.1,-2.8,.1h-7.4V637h7.4c.6,0,1.7,-.2,2.8,-.2c.6,0,1.1,.1,1.7,.3c0,.1,.1,.1,.2,.2V637c1.3,0,2.6,.4,3.7,1c1,.7,1.9,1.5,2.7,2.3c1.5,1.5,2.4,3.1,2.4,3.1l.1,.2V657Z"/></clipPath>
<clipPath id="cc_487"><path d="M300.7,644.9v-4.1h8.4v4.1Z"/></clipPath>
<clipPath id="cd_487"><path d="M292.9,644.3c0,0,.3,0,.5,-.3c0,0,.3,-.3,.3,-.8v-.7c0,0,0,-.5,-.3,-.9c0,0,-.2,-.2,-.5,-.2c0,0,-.2,0,-.4,.3c0,0,-.3,.3,-.3,.8v.7c0,0,0,.5,.3,.9c0,0,.2,.2,.4,.2Zm10.9,0c0,0,.2,0,.4,-.3c0,0,.3,-.3,.3,-.8v-.7c0,0,0,-.5,-.3,-.9c0,0,-.2,-.2,-.4,-.2c0,0,-.3,0,-.5,.3c0,0,-.3,.3,-.3,.8v.7c0,0,0,.5,.3,.9c0,0,.2,.2,.5,.2Zm-15.4,.5c0,0,-.2,0,-.3,-.1c0,0,-.1,-.1,-.1,-.2c0,0,0,-.2,.1,-.2c0,0,.1,-.1,.3,-.1h.6v-2.6l-.5,.2c0,0,-.1,0,-.2,0c0,0,-.1,0,-.2,-.1c0,0,-.1,-.1,-.1,-.2c0,0,0,-.1,.1,-.2c0,0,0,-.1,.2,-.1l1.3,-.4v3.4h.7c0,0,.2,0,.3,.1c0,0,.1,0,.1,.2c0,0,0,.1,-.1,.2c0,0,-.1,.1,-.3,.1Zm4.5,.1c0,0,-.3,0,-.6,-.2c0,0,-.2,-.2,-.5,-.6c0,0,-.2,-.4,-.2,-.9v-.7c0,0,0,-.6,.4,-1.1c0,0,.3,-.6,.9,-.6c0,0,.4,0,.7,.2c0,0,.2,.1,.4,.6c0,0,.3,.4,.3,.9v.7c0,0,0,.6,-.4,1.1c0,0,-.3,.6,-1,.6Zm2.7,-.1c0,0,-.2,0,-.3,-.1c0,0,-.1,-.1,-.1,-.2c0,0,0,-.2,.1,-.2c0,0,.1,-.1,.3,-.1h.6v-2.6l-.5,.2c0,0,-.1,0,-.2,0c0,0,-.1,0,-.2,-.1c0,0,-.1,-.1,-.1,-.2c0,0,0,-.1,.1,-.2c0,0,0,-.1,.2,-.1l1.4,-.4v3.4h.6c0,0,.2,0,.3,.1c0,0,.1,0,.1,.2c0,0,0,.1,-.1,.2c0,0,-.1,.1,-.3,.1Zm3.6,0c0,0,-.2,0,-.3,-.1c0,0,-.1,-.1,-.1,-.2c0,0,0,-.2,.1,-.2c0,0,.1,-.1,.3,-.1h.7v-2.6l-.6,.2c0,0,-.1,0,-.2,0c0,0,-.1,0,-.2,-.1c0,0,-.1,-.1,-.1,-.2c0,0,0,-.1,.1,-.2c0,0,0,-.1,.2,-.1l1.4,-.4v3.4h.6c0,0,.2,0,.3,.1c0,0,.1,0,.1,.2c0,0,0,.1,-.1,.2c0,0,-.1,.1,-.3,.1Zm4.6,.1c0,0,-.4,0,-.7,-.2c0,0,-.2,-.2,-.4,-.6c0,0,-.3,-.4,-.3,-.9v-.7c0,0,0,-.6,.4,-1.1c0,0,.3,-.6,1,-.6c0,0,.3,0,.6,.2c0,0,.2,.1,.5,.6c0,0,.2,.4,.2,.9v.7c0,0,0,.6,-.4,1.1c0,0,-.3,.6,-.9,.6Zm2.6,-.1c0,0,-.2,0,-.3,-.1c0,0,-.1,-.1,-.1,-.2c0,0,0,-.2,.1,-.2c0,0,.1,-.1,.3,-.1h.7v-2.6l-.6,.2c0,0,-.1,0,-.2,0c0,0,-.1,0,-.2,-.1c0,0,-.1,-.1,-.1,-.2c0,0,0,-.1,.1,-.2c0,0,.1,-.1,.3,-.1l1.3,-.4v3.4h.6c0,0,.2,0,.3,.1c0,0,.1,0,.1,.2c0,0,0,.1,-.1,.2c0,0,-.1,.1,-.3,.1Z"/></clipPath>
<clipPath id="ce_487"><path d="M300.7,652.2v-4h15.7v4Z"/></clipPath>
<clipPath id="cf_487"><path d="M292.9,651.6c0,0,.3,0,.5,-.2c0,0,.3,-.4,.3,-.9v-.7c0,0,0,-.5,-.3,-.8c0,0,-.2,-.2,-.5,-.2c0,0,-.2,0,-.4,.2c0,0,-.3,.3,-.3,.8v.7c0,0,0,.5,.3,.9c0,0,.2,.2,.4,.2Zm14.5,0c0,0,.2,0,.4,-.2c0,0,.3,-.4,.3,-.9v-.7c0,0,0,-.5,-.3,-.8c0,0,-.1,-.2,-.4,-.2c0,0,-.3,0,-.5,.2c0,0,-.3,.3,-.3,.8v.7c0,0,0,.5,.3,.9c0,0,.2,.2,.5,.2Zm-19,.5c0,0,-.2,0,-.3,-.1c0,0,-.1,-.1,-.1,-.2c0,0,0,-.1,.1,-.2c0,0,.1,-.1,.3,-.1h.6v-2.6l-.5,.2c0,0,-.1,0,-.2,0c0,0,-.1,0,-.2,-.1c0,0,-.1,-.1,-.1,-.2c0,0,0,-.1,.1,-.2c0,0,0,-.1,.2,-.1l1.3,-.3v3.3h.7c0,0,.2,0,.3,.1c0,0,.1,.1,.1,.2c0,0,0,.1,-.1,.2c0,0,-.1,.1,-.3,.1Zm4.5,.1c0,0,-.3,0,-.6,-.2c0,0,-.2,-.1,-.5,-.6c0,0,-.2,-.4,-.2,-.9v-.7c0,0,0,-.6,.4,-1.1c0,0,.3,-.5,.9,-.5c0,0,.4,0,.7,.1c0,0,.2,.2,.4,.6c0,0,.3,.4,.3,.9v.7c0,0,0,.6,-.4,1.2c0,0,-.3,.5,-1,.5Zm6.3,-.1c0,0,-.2,0,-.3,-.1c0,0,-.1,-.1,-.1,-.2c0,0,0,-.1,.1,-.2c0,0,.1,-.1,.3,-.1h.7v-2.6l-.6,.2c0,0,-.1,0,-.2,0c0,0,-.1,0,-.2,-.1c0,0,-.1,-.1,-.1,-.2c0,0,0,-.1,.1,-.2c0,0,0,-.1,.2,-.1l1.4,-.3v3.3h.6c0,0,.2,0,.3,.1c0,0,.1,.1,.1,.2c0,0,0,.1,-.1,.2c0,0,-.1,.1,-.3,.1Zm3.6,0c0,0,-.2,0,-.3,-.1c0,0,-.1,-.1,-.1,-.2c0,0,0,-.1,.1,-.2c0,0,.1,-.1,.3,-.1h.7v-2.6l-.6,.2c0,0,-.1,0,-.2,0c0,0,-.1,0,-.2,-.1c0,0,-.1,-.1,-.1,-.2c0,0,0,-.1,.1,-.2c0,0,.1,-.1,.3,-.1l1.3,-.3v3.3h.6c0,0,.2,0,.3,.1c0,0,.1,.1,.1,.2c0,0,0,.1,-.1,.2c0,0,-.1,.1,-.3,.1Zm4.6,.1c0,0,-.4,0,-.7,-.2c0,0,-.2,-.1,-.4,-.6c0,0,-.3,-.4,-.3,-.9v-.7c0,0,0,-.6,.4,-1.1c0,0,.3,-.5,1,-.5c0,0,.3,0,.6,.1c0,0,.2,.2,.5,.6c0,0,.2,.4,.2,.9v.7c0,0,0,.6,-.3,1.2c0,0,-.4,.5,-1,.5Zm6.3,-.1c0,0,-.3,0,-.4,-.1c0,0,-.1,-.1,-.1,-.2c0,0,0,-.1,.1,-.2c0,0,.1,-.1,.4,-.1h.6v-2.6l-.6,.2c0,0,-.1,0,-.2,0c0,0,-.1,0,-.2,-.1c0,0,-.1,-.1,-.1,-.2c0,0,0,-.1,.1,-.2c0,0,.1,-.1,.3,-.1l1.3,-.3v3.3h.6c0,0,.2,0,.3,.1c0,0,.1,.1,.1,.2c0,0,0,.1,-.1,.2c0,0,-.1,.1,-.3,.1Z"/></clipPath>
<clipPath id="cg_487"><path d="M300.7,657v-1.5h8.6V657Z"/></clipPath>
<clipPath id="ch_487"><path d="M289.5,658.9c0,0,.3,0,.5,-.2c0,0,.3,-.3,.3,-.9v-.6c0,0,0,-.5,-.3,-.9c0,0,-.2,-.2,-.5,-.2c0,0,-.2,0,-.4,.2c0,0,-.3,.4,-.3,.9v.6c0,0,0,.5,.3,.9c0,0,.2,.2,.4,.2Zm18.1,0c0,0,.3,0,.4,-.2c0,0,.3,-.3,.3,-.9v-.6c0,0,0,-.5,-.3,-.9c0,0,-.1,-.2,-.4,-.2c0,0,-.3,0,-.5,.2c0,0,-.3,.4,-.3,.9v.6c0,0,0,.5,.3,.9c0,0,.2,.2,.5,.2Zm-18.1,.6c0,0,-.3,0,-.6,-.1c0,0,-.2,-.2,-.5,-.6c0,0,-.2,-.5,-.2,-1v-.6c0,0,0,-.6,.4,-1.2c0,0,.3,-.5,.9,-.5c0,0,.4,0,.7,.1c0,0,.2,.2,.4,.6c0,0,.3,.5,.3,1v.6c0,0,0,.6,-.4,1.2c0,0,-.3,.5,-1,.5Zm6.3,-.1c0,0,-.2,0,-.3,0c0,0,-.1,-.1,-.1,-.3c0,0,0,-.1,.1,-.2c0,0,.1,-.1,.3,-.1h.7v-2.5l-.6,.1c0,0,-.1,.1,-.2,.1c0,0,-.1,0,-.2,-.1c0,0,-.1,-.1,-.1,-.3c0,0,0,-.1,.1,-.2l.2,-.1l1.4,-.3v3.3h.6c0,0,.2,0,.3,.1c0,0,.1,.1,.1,.2c0,0,0,.2,-.1,.3c0,0,-.1,0,-.3,0Zm3.6,0c0,0,-.2,0,-.3,0c0,0,-.1,-.1,-.1,-.3c0,0,0,-.1,.1,-.2c0,0,.1,-.1,.3,-.1h.7v-2.5l-.6,.1c0,0,-.1,.1,-.2,.1c0,0,-.1,0,-.2,-.1c0,0,-.1,-.1,-.1,-.3c0,0,0,-.1,.1,-.2c0,0,.1,0,.3,-.1l1.3,-.3v3.3h.6c0,0,.2,0,.3,.1c0,0,.1,.1,.1,.2c0,0,0,.2,-.1,.3c0,0,-.1,0,-.3,0Zm8.2,.1c0,0,-.4,0,-.7,-.1c0,0,-.2,-.2,-.4,-.6c0,0,-.3,-.5,-.3,-1v-.6c0,0,0,-.6,.4,-1.2c0,0,.3,-.5,1,-.5c0,0,.3,0,.6,.1c0,0,.2,.2,.5,.6c0,0,.2,.5,.2,1v.6c0,0,0,.6,-.3,1.2c0,0,-.4,.5,-1,.5Z"/></clipPath>
<clipPath id="ci_487"><path d="M429.6,647.5c.1,-.4,.1,-.7,.1,-1.1c0,-.5,-.1,-1,-.1,-1.5c-.1,-.6,-.3,-1.3,-.6,-2.1c-.1,-.1,-.1,-.3,-.2,-.4c.6,.1,1.3,.4,1.8,.7c1.4,.8,2.6,2,3.4,3c.1,.2,.3,.4,.4,.6c-.2,0,-.4,0,-.6,0c-.8,0,-1.6,.1,-2,.1c-.9,0,-1.5,.3,-1.9,.6c-.1,0,-.2,.1,-.3,.1Zm-5.3,13.3v-1.6h-8.6V656h15.6v-4.1H415.7v-3.3h8.4v-4h-8.4v-2.3h7.4c.8,0,1.9,-.2,2.7,-.2c.5,0,.9,.1,1,.2c0,0,.2,.1,.3,.3c.3,.3,.5,.8,.7,1.3c.2,.5,.3,.9,.3,1.2c0,.4,0,.9,0,1.3c0,.8,0,1.5,-.1,2.1l-.1,1l1,-.1c.8,-.1,1.4,-.5,1.7,-.7c.4,-.2,.6,-.3,1.3,-.4c.5,0,1.3,-.1,1.9,-.1c.4,0,.7,0,.8,.1l.1,.1h.4l.1,12.4Zm12.4,0l-.1,-13.2v-.2l-.1,-.2c0,0,-.8,-1.6,-2.3,-3.2c-.8,-.8,-1.7,-1.6,-2.8,-2.2c-1.1,-.6,-2.3,-1,-3.7,-1v.2c0,0,-.1,-.1,-.2,-.1c-.5,-.3,-1.1,-.3,-1.7,-.3c-1,0,-2.2,.2,-2.7,.2h-7.4V634h27.5v26.8Z"/></clipPath>
<clipPath id="cj_487"><path d="M429.6,647.5c.1,0,.2,-.1,.3,-.1c.4,-.3,1,-.6,1.9,-.6c.4,0,1.2,-.1,2,-.1c.2,0,.4,0,.6,0c-.1,-.2,-.3,-.4,-.4,-.6c-.8,-1,-2,-2.2,-3.4,-3c-.5,-.3,-1.2,-.6,-1.8,-.7c.1,.1,.1,.3,.2,.4c.3,.8,.5,1.5,.6,2.1c0,.5,.1,1,.1,1.5c0,.4,0,.7,-.1,1.1Zm5.6,13.3l-.1,-12.4h-.4l-.1,-.1c-.1,-.1,-.4,-.1,-.8,-.1c-.6,0,-1.4,.1,-1.9,.1c-.7,.1,-.9,.2,-1.3,.4c-.3,.2,-.9,.6,-1.7,.7l-1,.1l.1,-1c.1,-.6,.1,-1.3,.1,-2.1c0,-.4,0,-.9,0,-1.3c0,-.3,-.1,-.7,-.3,-1.2c-.2,-.5,-.4,-1,-.7,-1.3c-.1,-.2,-.3,-.3,-.3,-.3c-.1,-.1,-.5,-.2,-1,-.2c-.8,0,-1.9,.2,-2.7,.2h-7.4v-1.5h7.4c.5,0,1.7,-.2,2.7,-.2c.6,0,1.2,0,1.7,.3c.1,0,.2,.1,.2,.1v-.2c1.4,0,2.6,.4,3.7,1c1.1,.6,2,1.4,2.8,2.2c1.5,1.6,2.3,3.2,2.3,3.2l.1,.2v.2l.1,13.2Z"/></clipPath>
<clipPath id="ck_487"><path d="M415.7,648.6v-4h8.4v4Z"/></clipPath>
<clipPath id="cl_487"><path d="M407.9,648c0,0,.3,0,.5,-.2c0,0,.2,-.4,.2,-.9v-.6c0,0,0,-.5,-.3,-.9c0,0,-.1,-.2,-.4,-.2c0,0,-.3,0,-.5,.2c0,0,-.2,.4,-.2,.9v.6c0,0,0,.5,.3,.9c0,0,.1,.2,.4,.2Zm10.8,0c0,0,.3,0,.5,-.2c0,0,.2,-.4,.2,-.9v-.6c0,0,0,-.5,-.2,-.9c0,0,-.2,-.2,-.5,-.2c0,0,-.3,0,-.4,.2c0,0,-.3,.4,-.3,.9v.6c0,0,0,.5,.3,.9c0,0,.1,.2,.4,.2Zm-15.3,.5c0,0,-.2,0,-.3,0c0,0,-.1,-.1,-.1,-.3c0,0,0,-.1,.1,-.2c0,0,.1,-.1,.3,-.1h.6v-2.5l-.6,.1c0,0,-.1,.1,-.2,.1c0,0,-.1,0,-.2,-.1c0,0,0,-.1,0,-.3c0,0,0,-.1,0,-.2c0,0,.1,0,.3,-.1l1.3,-.3v3.3h.6c0,0,.2,0,.3,.1c0,0,.1,.1,.1,.2c0,0,0,.2,-.1,.3c0,0,-.1,0,-.3,0Zm4.5,.1c0,0,-.4,0,-.6,-.1c0,0,-.3,-.2,-.5,-.6c0,0,-.2,-.5,-.2,-1v-.6c0,0,0,-.6,.3,-1.2c0,0,.3,-.5,1,-.5c0,0,.4,0,.6,.1c0,0,.3,.2,.5,.6c0,0,.2,.5,.2,1v.6c0,0,0,.6,-.3,1.2c0,0,-.4,.5,-1,.5Zm2.7,-.1c0,0,-.2,0,-.3,0c0,0,-.1,-.1,-.1,-.3c0,0,0,-.1,.1,-.2c0,0,.1,-.1,.3,-.1h.6v-2.5l-.5,.1c0,0,-.2,.1,-.2,.1c0,0,-.2,0,-.2,-.1c0,0,-.1,-.1,-.1,-.3c0,0,0,-.1,0,-.2c0,0,.1,0,.3,-.1l1.3,-.3v3.3h.6c0,0,.2,0,.3,.1c0,0,.1,.1,.1,.2c0,0,0,.2,-.1,.3c0,0,-.1,0,-.3,0Zm3.6,0c0,0,-.2,0,-.3,0c0,0,-.1,-.1,-.1,-.3c0,0,0,-.1,.1,-.2c0,0,.1,-.1,.3,-.1h.6v-2.5l-.5,.1c0,0,-.2,.1,-.2,.1c0,0,-.2,0,-.2,-.1c0,0,-.1,-.1,-.1,-.3c0,0,0,-.1,0,-.2c0,0,.1,0,.3,-.1l1.3,-.3v3.3h.6c0,0,.3,0,.3,.1c0,0,.1,.1,.1,.2c0,0,0,.2,-.1,.3H416Zm4.5,.1c0,0,-.4,0,-.6,-.1c0,0,-.3,-.2,-.5,-.6c0,0,-.2,-.5,-.2,-1v-.6c0,0,0,-.6,.3,-1.2c0,0,.4,-.5,1,-.5c0,0,.4,0,.6,.1c0,0,.3,.2,.5,.6c0,0,.2,.5,.2,1v.6c0,0,0,.6,-.3,1.2c0,0,-.3,.5,-1,.5Zm2.7,-.1c0,0,-.2,0,-.3,0c0,0,-.1,-.1,-.1,-.3c0,0,0,-.1,.1,-.2c0,0,.1,-.1,.3,-.1h.6v-2.5l-.5,.1c0,0,-.2,.1,-.2,.1c0,0,-.1,0,-.2,-.1c0,0,-.1,-.1,-.1,-.3c0,0,0,-.1,0,-.2c0,0,.1,0,.3,-.1l1.3,-.3v3.3h.6c0,0,.3,0,.4,.1c0,0,.1,.1,.1,.2c0,0,0,.2,-.1,.3c0,0,-.1,0,-.4,0Z"/></clipPath>
<clipPath id="cm_487"><path d="M415.7,656v-4.1h15.6V656Z"/></clipPath>
<clipPath id="cn_487"><path d="M407.9,655.4c0,0,.3,0,.5,-.3c0,0,.2,-.3,.2,-.8v-.7c0,0,0,-.5,-.3,-.9c0,0,-.1,-.2,-.4,-.2c0,0,-.3,0,-.5,.3c0,0,-.2,.3,-.2,.8v.7c0,0,0,.5,.3,.8c0,0,.1,.3,.4,.3Zm14.4,0c0,0,.3,0,.5,-.3c0,0,.2,-.3,.2,-.8v-.7c0,0,0,-.5,-.2,-.9c0,0,-.2,-.2,-.5,-.2c0,0,-.3,0,-.4,.3c0,0,-.3,.3,-.3,.8v.7c0,0,0,.5,.3,.8c0,0,.1,.3,.4,.3Zm-18.9,.5c0,0,-.2,0,-.3,-.1c0,0,-.1,-.1,-.1,-.2c0,0,0,-.2,.1,-.3c0,0,.1,0,.3,0h.6v-2.6l-.6,.2c0,0,-.1,0,-.2,0c0,0,-.1,0,-.2,-.1c0,0,0,-.1,0,-.2c0,0,0,-.2,0,-.2c0,0,.1,-.1,.3,-.1l1.3,-.4v3.4h.6c0,0,.2,0,.3,0c0,0,.1,.1,.1,.3c0,0,0,.1,-.1,.2c0,0,-.1,.1,-.3,.1Zm4.5,.1c0,0,-.4,0,-.6,-.2c0,0,-.3,-.2,-.5,-.6c0,0,-.2,-.4,-.2,-.9v-.7c0,0,0,-.6,.3,-1.1c0,0,.3,-.6,1,-.6c0,0,.4,0,.6,.2c0,0,.3,.1,.5,.6c0,0,.2,.4,.2,.9v.7c0,0,0,.6,-.3,1.1c0,0,-.4,.6,-1,.6Zm6.3,-.1c0,0,-.2,0,-.3,-.1c0,0,-.1,-.1,-.1,-.2c0,0,0,-.2,.1,-.3c0,0,.1,0,.3,0h.6v-2.6l-.5,.2c0,0,-.2,0,-.2,0c0,0,-.2,0,-.2,-.1c0,0,-.1,-.1,-.1,-.2c0,0,0,-.2,0,-.2c0,0,.1,-.1,.3,-.1l1.3,-.4v3.4h.6c0,0,.3,0,.3,0c0,0,.1,.1,.1,.3c0,0,0,.1,-.1,.2c0,0,0,.1,-.3,.1Zm3.6,0c0,0,-.2,0,-.3,-.1c0,0,-.1,-.1,-.1,-.2c0,0,0,-.2,.1,-.3c0,0,.1,0,.3,0h.6v-2.6l-.5,.2c0,0,-.2,0,-.2,0c0,0,-.1,0,-.2,-.1c0,0,-.1,-.1,-.1,-.2c0,0,0,-.2,0,-.2c0,0,.1,-.1,.3,-.1l1.3,-.4v3.4h.6c0,0,.3,0,.4,0c0,0,0,.1,0,.3c0,0,0,.1,0,.2c0,0,-.1,.1,-.4,.1Zm4.5,.1c0,0,-.3,0,-.6,-.2c0,0,-.3,-.2,-.5,-.6c0,0,-.2,-.4,-.2,-.9v-.7c0,0,0,-.6,.3,-1.1c0,0,.4,-.6,1,-.6c0,0,.4,0,.6,.2c0,0,.3,.1,.5,.6c0,0,.3,.4,.3,.9v.7c0,0,0,.6,-.4,1.1c0,0,-.3,.6,-1,.6Zm6.3,-.1c0,0,-.2,0,-.3,-.1c0,0,-.1,-.1,-.1,-.2c0,0,0,-.2,.1,-.3c0,0,.1,0,.3,0h.6v-2.6l-.5,.2c0,0,-.2,0,-.2,0c0,0,-.1,0,-.2,-.1c0,0,-.1,-.1,-.1,-.2c0,0,0,-.2,.1,-.2c0,0,0,-.1,.2,-.1l1.3,-.4v3.4h.7c0,0,.2,0,.3,0c0,0,.1,.1,.1,.3c0,0,0,.1,-.1,.2c0,0,-.1,.1,-.3,.1Z"/></clipPath>
<clipPath id="co_487"><path d="M415.7,660.8v-1.6h8.6v1.6Z"/></clipPath>
<clipPath id="cp_487"><path d="M404.5,662.7c0,0,.3,0,.5,-.2c0,0,.2,-.4,.2,-.9v-.7c0,0,0,-.5,-.3,-.8c0,0,-.1,-.2,-.4,-.2c0,0,-.3,0,-.5,.2c0,0,-.2,.3,-.2,.8v.7c0,0,0,.5,.3,.9c0,0,.1,.2,.4,.2Zm18,0c0,0,.3,0,.5,-.2c0,0,.3,-.4,.3,-.9v-.7c0,0,0,-.5,-.3,-.8c0,0,-.2,-.2,-.5,-.2c0,0,-.3,0,-.4,.2c0,0,-.3,.3,-.3,.8v.7c0,0,0,.5,.3,.9c0,0,.1,.2,.4,.2Zm-18,.6c0,0,-.4,0,-.6,-.2c0,0,-.3,-.1,-.5,-.6c0,0,-.2,-.4,-.2,-.9v-.7c0,0,0,-.6,.3,-1.1c0,0,.3,-.6,1,-.6c0,0,.4,0,.6,.2c0,0,.3,.2,.5,.6c0,0,.2,.4,.2,.9v.7c0,0,0,.6,-.3,1.1c0,0,-.4,.6,-1,.6Zm6.3,-.1c0,0,-.2,0,-.3,-.1c0,0,-.1,-.1,-.1,-.2c0,0,0,-.1,.1,-.2c0,0,.1,-.1,.3,-.1h.6V660l-.5,.2c0,0,-.2,0,-.2,0c0,0,-.2,0,-.2,-.1c0,0,-.1,-.1,-.1,-.2c0,0,0,-.1,0,-.2c0,0,.1,-.1,.3,-.1l1.3,-.4v3.4h.6c0,0,.3,0,.4,.1c0,0,0,.1,0,.2c0,0,0,.1,0,.2c0,0,-.1,.1,-.4,.1Zm3.6,0c0,0,-.2,0,-.3,-.1c0,0,-.1,-.1,-.1,-.2c0,0,0,-.1,.1,-.2c0,0,.1,-.1,.3,-.1h.6V660l-.5,.2c0,0,-.2,0,-.2,0c0,0,-.1,0,-.2,-.1c0,0,-.1,-.1,-.1,-.2c0,0,0,-.1,0,-.2c0,0,.1,-.1,.3,-.1l1.3,-.4v3.4h.6c0,0,.3,0,.4,.1c0,0,.1,.1,.1,.2c0,0,0,.1,-.1,.2c0,0,-.1,.1,-.4,.1Zm8.1,.1c0,0,-.3,0,-.6,-.2c0,0,-.3,-.1,-.5,-.6c0,0,-.2,-.4,-.2,-.9v-.7c0,0,0,-.6,.3,-1.1c0,0,.4,-.6,1,-.6c0,0,.4,0,.6,.2c0,0,.3,.2,.5,.6c0,0,.3,.4,.3,.9v.7c0,0,0,.6,-.4,1.1c0,0,-.3,.6,-1,.6Z"/></clipPath>
<clipPath id="cq_487"><path d="M760.6,636.5c0,-.4,0,-.7,0,-1.1c0,-.5,0,-1,0,-1.5c-.1,-.6,-.3,-1.4,-.6,-2.1c-.1,-.2,-.1,-.3,-.2,-.4c.6,.1,1.2,.4,1.8,.7c1.4,.8,2.5,2,3.3,3c.2,.2,.3,.4,.5,.6c-.2,-.1,-.4,-.1,-.6,-.1c-.8,0,-1.6,.1,-2,.2c-.9,0,-1.5,.3,-2,.5c0,.1,-.1,.1,-.2,.2Zm-5.3,13.2v-1.5h-8.6v-3.3h15.6v-4H746.7v-3.3h8.4v-4.1h-8.4v-2.2h7.4c.7,0,1.8,-.2,2.6,-.2h.1c0,0,.1,0,.1,0c.4,0,.8,.1,.9,.1c0,0,.2,.2,.3,.4c.3,.3,.5,.8,.7,1.2c.1,.5,.3,1,.3,1.2c0,.5,0,.9,0,1.4c0,.7,0,1.4,-.1,2.1l-.1,1l1,-.2c.8,-.1,1.4,-.4,1.7,-.7c.4,-.2,.6,-.3,1.2,-.3c.6,0,1.3,-.1,2,-.1c0,0,.1,0,.1,0c.3,0,.6,0,.7,.1h.1v.1l.4,-.1v12.4Zm12.4,0l-.1,-13.2v-.2l-.1,-.2c0,0,-.9,-1.5,-2.4,-3.1c-.7,-.8,-1.6,-1.6,-2.7,-2.2c-1.1,-.6,-2.3,-1.1,-3.7,-1.1v.3c-.1,0,-.1,-.1,-.2,-.1c-.5,-.3,-1.1,-.3,-1.7,-.4c-1,.1,-2.1,.2,-2.7,.2h-7.4V623h27.5v26.7Z"/></clipPath>
<clipPath id="cr_487"><path d="M760.6,636.5c.1,-.1,.2,-.1,.2,-.2c.5,-.2,1.1,-.5,2,-.5c.4,-.1,1.2,-.2,2,-.2c.2,0,.4,0,.6,.1c-.2,-.2,-.3,-.4,-.5,-.6c-.8,-1,-1.9,-2.2,-3.3,-3c-.6,-.3,-1.2,-.6,-1.8,-.7c.1,.1,.1,.2,.2,.4c.3,.7,.5,1.5,.6,2.1c0,.5,0,1,0,1.5c0,.4,0,.7,0,1.1Zm5.5,13.2V637.3l-.4,.1v-.1h-.1c-.1,-.1,-.4,-.1,-.7,-.1c0,0,-.1,0,-.1,0c-.7,0,-1.4,.1,-2,.1c-.6,0,-.8,.1,-1.2,.3c-.3,.3,-.9,.6,-1.7,.7l-1,.2l.1,-1c.1,-.7,.1,-1.4,.1,-2.1c0,-.5,0,-.9,0,-1.4c0,-.2,-.2,-.7,-.3,-1.2c-.2,-.4,-.4,-.9,-.7,-1.2c-.1,-.2,-.3,-.4,-.3,-.4c-.1,0,-.5,-.1,-.9,-.1c0,0,-.1,0,-.1,0h-.1c-.8,0,-1.9,.2,-2.6,.2h-7.4v-1.6h7.4c.6,0,1.7,-.1,2.7,-.2c.6,.1,1.2,.1,1.7,.4c.1,0,.1,.1,.2,.1v-.3c1.4,0,2.6,.5,3.7,1.1c1.1,.6,2,1.4,2.7,2.2c1.5,1.6,2.4,3.1,2.4,3.1l.1,.2v.2l.1,13.2Z"/></clipPath>
<clipPath id="cs_487"><path d="M746.7,637.6v-4.1h8.4v4.1Z"/></clipPath>
<clipPath id="ct_487"><path d="M738.9,637c0,0,.3,0,.4,-.2c0,0,.3,-.4,.3,-.9v-.7c0,0,0,-.5,-.3,-.8c0,0,-.1,-.2,-.4,-.2c0,0,-.3,0,-.5,.2c0,0,-.2,.3,-.2,.8v.7c0,0,0,.5,.2,.9c0,0,.2,.2,.5,.2Zm10.8,0c0,0,.3,0,.5,-.2c0,0,.2,-.4,.2,-.9v-.7c0,0,0,-.5,-.3,-.8c0,0,-.1,-.2,-.4,-.2c0,0,-.3,0,-.5,.2c0,0,-.2,.3,-.2,.8v.7c0,0,0,.5,.3,.9c0,0,.1,.2,.4,.2Zm-15.3,.5c0,0,-.3,0,-.4,-.1c0,0,-.1,-.1,-.1,-.2c0,0,0,-.1,.1,-.2c0,0,.1,-.1,.4,-.1h.6v-2.6l-.6,.2c0,0,-.1,0,-.2,0c0,0,-.1,0,-.2,-.1c0,0,-.1,-.1,-.1,-.2c0,0,0,-.1,.1,-.2c0,0,.1,-.1,.3,-.1l1.3,-.4v3.4h.6c0,0,.2,0,.3,.1c0,0,.1,.1,.1,.2c0,0,0,.1,-.1,.2c0,0,-.1,.1,-.3,.1Zm4.5,.1c0,0,-.4,0,-.6,-.2c0,0,-.3,-.1,-.5,-.6c0,0,-.3,-.4,-.3,-.9v-.7c0,0,0,-.6,.4,-1.1c0,0,.3,-.6,1,-.6c0,0,.3,0,.6,.2c0,0,.2,.2,.5,.6c0,0,.2,.4,.2,.9v.7c0,0,0,.6,-.3,1.1c0,0,-.4,.6,-1,.6Zm2.7,-.1c0,0,-.3,0,-.3,-.1c0,0,-.1,-.1,-.1,-.2c0,0,0,-.1,.1,-.2c0,0,0,-.1,.3,-.1h.6v-2.6l-.6,.2c0,0,-.1,0,-.2,0c0,0,-.1,0,-.2,-.1c0,0,0,-.1,0,-.2c0,0,0,-.1,0,-.2c0,0,.1,-.1,.3,-.1l1.3,-.4v3.4h.6c0,0,.2,0,.3,.1c0,0,.1,.1,.1,.2c0,0,0,.1,-.1,.2c0,0,-.1,.1,-.3,.1Zm3.6,0c0,0,-.3,0,-.3,-.1c0,0,-.1,-.1,-.1,-.2c0,0,0,-.1,.1,-.2c0,0,0,-.1,.3,-.1h.6v-2.6l-.6,.2c0,0,-.1,0,-.2,0c0,0,-.1,0,-.2,-.1c0,0,0,-.1,0,-.2c0,0,0,-.1,0,-.2c0,0,.1,-.1,.3,-.1l1.3,-.4v3.4h.6c0,0,.2,0,.3,.1c0,0,.1,.1,.1,.2c0,0,0,.1,-.1,.2c0,0,-.1,.1,-.3,.1Zm4.5,.1c0,0,-.4,0,-.6,-.2c0,0,-.3,-.1,-.5,-.6c0,0,-.2,-.4,-.2,-.9v-.7c0,0,0,-.6,.3,-1.1c0,0,.3,-.6,1,-.6c0,0,.4,0,.6,.2c0,0,.3,.2,.5,.6c0,0,.2,.4,.2,.9v.7c0,0,0,.6,-.3,1.1c0,0,-.4,.6,-1,.6Zm2.7,-.1c0,0,-.2,0,-.3,-.1c0,0,-.1,-.1,-.1,-.2c0,0,0,-.1,.1,-.2c0,0,.1,-.1,.3,-.1h.6v-2.6l-.5,.2c0,0,-.2,0,-.2,0c0,0,-.2,0,-.2,-.1c0,0,-.1,-.1,-.1,-.2c0,0,0,-.1,0,-.2c0,0,.1,-.1,.3,-.1l1.3,-.4v3.4h.6c0,0,.2,0,.3,.1c0,0,.1,.1,.1,.2c0,0,0,.1,-.1,.2c0,0,-.1,.1,-.3,.1Z"/></clipPath>
<clipPath id="cu_487"><path d="M746.7,644.9v-4h15.6v4Z"/></clipPath>
<clipPath id="cv_487"><path d="M738.9,644.3c0,0,.3,0,.4,-.2c0,0,.3,-.4,.3,-.9v-.6c0,0,0,-.5,-.3,-.9c0,0,-.1,-.2,-.4,-.2c0,0,-.3,0,-.5,.2c0,0,-.2,.4,-.2,.9v.6c0,0,0,.5,.2,.9c0,0,.2,.2,.5,.2Zm14.4,0c0,0,.3,0,.5,-.2c0,0,.2,-.4,.2,-.9v-.6c0,0,0,-.5,-.3,-.9c0,0,-.1,-.2,-.4,-.2c0,0,-.3,0,-.5,.2c0,0,-.2,.4,-.2,.9v.6c0,0,0,.5,.3,.9c0,0,.1,.2,.4,.2Zm-18.9,.5c0,0,-.3,0,-.4,-.1c0,0,-.1,0,-.1,-.2c0,0,0,-.1,.1,-.2c0,0,.1,-.1,.4,-.1h.6v-2.5l-.6,.1c0,0,-.1,0,-.2,0c0,0,-.1,0,-.2,0c0,0,-.1,-.1,-.1,-.3c0,0,0,-.1,.1,-.2c0,0,.1,0,.3,-.1l1.3,-.3v3.3h.6c0,0,.2,0,.3,.1c0,0,.1,.1,.1,.2c0,0,0,.2,-.1,.2c0,0,-.1,.1,-.3,.1Zm4.5,.1c0,0,-.4,0,-.6,-.1c0,0,-.3,-.2,-.5,-.6c0,0,-.3,-.5,-.3,-1v-.6c0,0,0,-.6,.4,-1.2c0,0,.3,-.5,1,-.5c0,0,.3,0,.6,.1c0,0,.2,.2,.5,.6c0,0,.2,.5,.2,1v.6c0,0,0,.6,-.3,1.2c0,0,-.4,.5,-1,.5Zm6.3,-.1c0,0,-.3,0,-.3,-.1c0,0,-.1,0,-.1,-.2c0,0,0,-.1,.1,-.2c0,0,0,-.1,.3,-.1h.6v-2.5l-.6,.1c0,0,-.1,0,-.2,0c0,0,-.1,0,-.2,0c0,0,0,-.1,0,-.3c0,0,0,-.1,0,-.2c0,0,.1,0,.3,-.1l1.3,-.3v3.3h.6c0,0,.2,0,.3,.1c0,0,.1,.1,.1,.2c0,0,0,.2,-.1,.2c0,0,-.1,.1,-.3,.1Zm3.6,0c0,0,-.2,0,-.3,-.1c0,0,-.1,0,-.1,-.2c0,0,0,-.1,.1,-.2c0,0,.1,-.1,.3,-.1h.6v-2.5l-.6,.1c0,0,-.1,0,-.2,0c0,0,-.1,0,-.2,0c0,0,0,-.1,0,-.3c0,0,0,-.1,0,-.2c0,0,.1,0,.3,-.1l1.3,-.3v3.3h.6c0,0,.2,0,.3,.1c0,0,.1,.1,.1,.2c0,0,0,.2,-.1,.2c0,0,-.1,.1,-.3,.1Zm4.5,.1c0,0,-.4,0,-.6,-.1c0,0,-.3,-.2,-.5,-.6c0,0,-.2,-.5,-.2,-1v-.6c0,0,0,-.6,.3,-1.2c0,0,.4,-.5,1,-.5c0,0,.4,0,.6,.1c0,0,.3,.2,.5,.6c0,0,.2,.5,.2,1v.6c0,0,0,.6,-.3,1.2c0,0,-.4,.5,-1,.5Zm6.3,-.1c0,0,-.2,0,-.3,-.1c0,0,-.1,0,-.1,-.2c0,0,0,-.1,.1,-.2c0,0,.1,-.1,.3,-.1h.6v-2.5l-.5,.1c0,0,-.2,0,-.2,0c0,0,-.2,0,-.2,0c0,0,-.1,-.1,-.1,-.3c0,0,0,-.1,0,-.2c0,0,.1,0,.3,-.1l1.3,-.3v3.3h.6c0,0,.3,0,.4,.1c0,0,0,.1,0,.2c0,0,0,.2,0,.2c0,0,-.1,.1,-.4,.1Z"/></clipPath>
<clipPath id="cw_487"><path d="M746.7,649.7v-1.5h8.6v1.5Z"/></clipPath>
<clipPath id="cx_487"><path d="M735.5,651.6c0,0,.3,0,.4,-.2c0,0,.3,-.3,.3,-.8v-.7c0,0,0,-.5,-.3,-.9c0,0,-.1,-.2,-.4,-.2c0,0,-.3,0,-.5,.2c0,0,-.2,.4,-.2,.9v.7c0,0,0,.5,.2,.8c0,0,.2,.2,.5,.2Zm18,0c0,0,.3,0,.5,-.2c0,0,.2,-.3,.2,-.8v-.7c0,0,0,-.5,-.2,-.9c0,0,-.2,-.2,-.5,-.2c0,0,-.3,0,-.5,.2c0,0,-.2,.4,-.2,.9v.7c0,0,0,.5,.3,.8c0,0,.1,.2,.4,.2Zm-18,.7c0,0,-.4,0,-.6,-.2c0,0,-.3,-.2,-.5,-.6c0,0,-.3,-.4,-.3,-.9v-.7c0,0,0,-.6,.4,-1.1c0,0,.3,-.6,1,-.6c0,0,.3,0,.6,.2c0,0,.3,.1,.5,.6c0,0,.2,.4,.2,.9v.7c0,0,0,.6,-.3,1.1c0,0,-.4,.6,-1,.6Zm6.3,-.1c0,0,-.2,0,-.3,-.1c0,0,-.1,-.1,-.1,-.2c0,0,0,-.2,.1,-.3c0,0,.1,0,.3,0h.6V649l-.6,.1c0,0,-.1,.1,-.2,.1c0,0,-.1,0,-.2,-.1c0,0,0,-.1,0,-.2c0,0,0,-.2,0,-.2c0,0,.1,-.1,.3,-.2l1.3,-.3v3.4h.6c0,0,.2,0,.3,0c0,0,.1,.1,.1,.3c0,0,0,.1,-.1,.2c0,0,-.1,.1,-.3,.1Zm3.6,0c0,0,-.2,0,-.3,-.1c0,0,-.1,-.1,-.1,-.2c0,0,0,-.2,.1,-.3c0,0,.1,0,.3,0h.6V649l-.6,.1c0,0,-.1,.1,-.1,.1c0,0,-.2,0,-.2,-.1c0,0,-.1,-.1,-.1,-.2c0,0,0,-.2,0,-.2c0,0,.1,-.1,.3,-.2l1.3,-.3v3.4h.6c0,0,.2,0,.3,0c0,0,.1,.1,.1,.3c0,0,0,.1,-.1,.2c0,0,-.1,.1,-.3,.1Zm8.1,.1c0,0,-.4,0,-.6,-.2c0,0,-.3,-.2,-.5,-.6c0,0,-.2,-.4,-.2,-.9v-.7c0,0,0,-.6,.3,-1.1c0,0,.4,-.6,1,-.6c0,0,.4,0,.6,.2c0,0,.3,.1,.5,.6c0,0,.2,.4,.2,.9v.7c0,0,0,.6,-.3,1.1c0,0,-.3,.6,-1,.6Z"/></clipPath>
<clipPath id="cy_487"><path d="M360.2,733.6c0,-.3,0,-.7,0,-1c0,-.5,0,-1,0,-1.5c-.1,-.6,-.3,-1.4,-.7,-2.2c0,-.1,-.1,-.2,-.2,-.3c.7,.1,1.3,.3,1.9,.7c1.3,.7,2.5,2,3.3,3c.2,.2,.3,.4,.4,.5c-.2,0,-.4,0,-.6,0c-.7,0,-1.5,.1,-1.9,.1c-.9,.1,-1.6,.3,-2,.6q-.1,.1,-.2,.1Zm-5.4,13.3v-1.5h-8.6v-3.3h15.7V738H346.2v-3.2h8.4v-4.1h-8.4v-2.3h7.4c.8,0,1.9,-.1,2.8,-.1c.5,0,.8,0,.9,.1c.1,0,.2,.1,.4,.4c.2,.3,.5,.8,.6,1.2c.2,.5,.3,1,.3,1.2c.1,.4,.1,.9,.1,1.4c0,.7,-.1,1.4,-.1,2.1l-.1,1l1,-.2c.8,-.1,1.3,-.5,1.7,-.7c.4,-.2,.6,-.3,1.2,-.3c.6,-.1,1.3,-.2,1.9,-.2c.4,0,.8,.1,.9,.2h.4l.1,12.4Zm12.4,0V733.5l-.1,-.2c0,0,-.9,-1.5,-2.4,-3.1c-.8,-.8,-1.7,-1.6,-2.7,-2.2c-1.1,-.7,-2.4,-1.1,-3.7,-1.1v.3c-.1,-.1,-.2,-.1,-.2,-.2c-.6,-.2,-1.1,-.3,-1.7,-.3c-1.1,0,-2.2,.2,-2.8,.2h-7.4v-6.8h27.5v26.8Z"/></clipPath>
<clipPath id="cz_487"><path d="M360.2,733.6q.1,0,.2,-.1c.4,-.3,1.1,-.5,2,-.6c.4,0,1.2,-.1,1.9,-.1c.2,0,.4,0,.6,0c-.1,-.1,-.2,-.3,-.4,-.5c-.8,-1,-2,-2.3,-3.3,-3c-.6,-.4,-1.2,-.6,-1.9,-.7c.1,.1,.2,.2,.2,.3c.4,.8,.6,1.6,.7,2.2c0,.5,0,1,0,1.5c0,.3,0,.7,0,1Zm5.5,13.3l-.1,-12.4h-.4c-.1,-.1,-.5,-.2,-.9,-.2c-.6,0,-1.3,.1,-1.9,.2c-.6,0,-.8,.1,-1.2,.3c-.4,.2,-.9,.6,-1.7,.7l-1,.2l.1,-1c0,-.7,.1,-1.4,.1,-2.1c0,-.5,0,-1,-.1,-1.4c0,-.2,-.1,-.7,-.3,-1.2c-.1,-.4,-.4,-.9,-.6,-1.2c-.2,-.3,-.3,-.4,-.4,-.4c-.1,-.1,-.4,-.1,-.9,-.1c-.9,0,-2,.1,-2.8,.1h-7.4v-1.5h7.4c.6,0,1.7,-.2,2.8,-.2c.6,0,1.1,.1,1.7,.3c0,.1,.1,.1,.2,.2v-.3c1.3,0,2.6,.4,3.7,1.1c1,.6,1.9,1.4,2.7,2.2c1.5,1.6,2.4,3.1,2.4,3.1l.1,.2v13.4Z"/></clipPath>
<clipPath id="c10_487"><path d="M346.2,734.8v-4.1h8.4v4.1Z"/></clipPath>
<clipPath id="c11_487"><path d="M338.4,734.2c0,0,.3,0,.5,-.3c0,0,.3,-.3,.3,-.8v-.7c0,0,0,-.5,-.3,-.9c0,0,-.2,-.2,-.5,-.2c0,0,-.2,0,-.4,.3c0,0,-.3,.3,-.3,.8v.7c0,0,0,.5,.3,.9c0,0,.2,.2,.4,.2Zm10.9,0c0,0,.2,0,.4,-.3c0,0,.3,-.3,.3,-.8v-.7c0,0,0,-.5,-.3,-.9c0,0,-.2,-.2,-.4,-.2c0,0,-.3,0,-.5,.3c0,0,-.3,.3,-.3,.8v.7c0,0,0,.5,.3,.9c0,0,.2,.2,.5,.2Zm-15.4,.5c0,0,-.2,0,-.3,-.1c0,0,-.1,-.1,-.1,-.2c0,0,0,-.2,.1,-.2c0,0,.1,-.1,.3,-.1h.6v-2.6l-.5,.2c0,0,-.1,0,-.2,0c0,0,-.1,0,-.2,-.1c0,0,-.1,-.1,-.1,-.2c0,0,0,-.1,.1,-.2c0,0,0,-.1,.2,-.1l1.3,-.4v3.4h.7c0,0,.2,0,.3,.1c0,0,.1,0,.1,.2c0,0,0,.1,-.1,.2c0,0,-.1,.1,-.3,.1Zm4.5,.1c0,0,-.3,0,-.6,-.2c0,0,-.2,-.2,-.5,-.6c0,0,-.2,-.4,-.2,-.9v-.7c0,0,0,-.6,.3,-1.1c0,0,.4,-.6,1,-.6c0,0,.4,0,.7,.2c0,0,.2,.1,.4,.6c0,0,.3,.4,.3,.9v.7c0,0,0,.6,-.4,1.1c0,0,-.3,.6,-1,.6Zm2.7,-.1c0,0,-.2,0,-.3,-.1c0,0,-.1,-.1,-.1,-.2c0,0,0,-.2,.1,-.2c0,0,.1,-.1,.3,-.1h.6v-2.6l-.5,.2c0,0,-.1,0,-.2,0c0,0,-.1,0,-.2,-.1c0,0,-.1,-.1,-.1,-.2c0,0,0,-.1,.1,-.2c0,0,0,-.1,.2,-.1l1.4,-.4v3.4h.6c0,0,.2,0,.3,.1c0,0,.1,0,.1,.2c0,0,0,.1,-.1,.2c0,0,-.1,.1,-.3,.1Zm3.6,0c0,0,-.2,0,-.3,-.1c0,0,-.1,-.1,-.1,-.2c0,0,0,-.2,.1,-.2c0,0,.1,-.1,.3,-.1h.6v-2.6l-.5,.2c0,0,-.1,0,-.2,0c0,0,-.1,0,-.2,-.1c0,0,-.1,-.1,-.1,-.2c0,0,0,-.1,.1,-.2c0,0,0,-.1,.2,-.1l1.4,-.4v3.4h.6c0,0,.2,0,.3,.1c0,0,.1,0,.1,.2c0,0,0,.1,-.1,.2c0,0,-.1,.1,-.3,.1Zm4.6,.1c0,0,-.4,0,-.7,-.2c0,0,-.2,-.2,-.4,-.6c0,0,-.3,-.4,-.3,-.9v-.7c0,0,0,-.6,.4,-1.1c0,0,.3,-.6,1,-.6c0,0,.3,0,.6,.2c0,0,.2,.1,.5,.6c0,0,.2,.4,.2,.9v.7c0,0,0,.6,-.4,1.1c0,0,-.3,.6,-.9,.6Zm2.6,-.1c0,0,-.2,0,-.3,-.1c0,0,-.1,-.1,-.1,-.2c0,0,0,-.2,.1,-.2c0,0,.1,-.1,.3,-.1h.7v-2.6l-.6,.2c0,0,-.1,0,-.2,0c0,0,-.1,0,-.2,-.1c0,0,-.1,-.1,-.1,-.2c0,0,0,-.1,.1,-.2c0,0,.1,-.1,.3,-.1l1.3,-.4v3.4h.6c0,0,.2,0,.3,.1c0,0,.1,0,.1,.2c0,0,0,.1,-.1,.2c0,0,-.1,.1,-.3,.1Z"/></clipPath>
<clipPath id="c12_487"><path d="M346.2,742.1V738h15.7v4.1Z"/></clipPath>
<clipPath id="c13_487"><path d="M338.4,741.5c0,0,.3,0,.5,-.2c0,0,.3,-.4,.3,-.9v-.7c0,0,0,-.5,-.3,-.8c0,0,-.2,-.2,-.5,-.2c0,0,-.2,0,-.4,.2c0,0,-.3,.3,-.3,.8v.7c0,0,0,.5,.3,.9c0,0,.2,.2,.4,.2Zm14.5,0c0,0,.2,0,.4,-.2c0,0,.3,-.4,.3,-.9v-.7c0,0,0,-.5,-.3,-.8c0,0,-.2,-.2,-.4,-.2c0,0,-.3,0,-.5,.2c0,0,-.3,.3,-.3,.8v.7c0,0,0,.5,.3,.9c0,0,.2,.2,.5,.2Zm-19,.5c0,0,-.2,0,-.3,-.1c0,0,-.1,-.1,-.1,-.2c0,0,0,-.1,.1,-.2c0,0,.1,-.1,.3,-.1h.6v-2.5l-.5,.1c0,0,-.1,0,-.2,0c0,0,-.1,0,-.2,-.1c0,0,-.1,-.1,-.1,-.2c0,0,0,-.1,.1,-.2l.2,-.1l1.3,-.3v3.3h.7c0,0,.2,0,.3,.1c0,0,.1,.1,.1,.2c0,0,0,.1,-.1,.2c0,0,-.1,.1,-.3,.1Zm4.5,.1c0,0,-.3,0,-.6,-.2c0,0,-.2,-.1,-.5,-.6c0,0,-.2,-.4,-.2,-.9v-.7c0,0,0,-.5,.3,-1.1c0,0,.4,-.5,1,-.5c0,0,.4,0,.7,.1c0,0,.2,.2,.4,.6c0,0,.3,.5,.3,.9v.7c0,0,0,.6,-.4,1.2c0,0,-.3,.5,-1,.5Zm6.3,-.1c0,0,-.2,0,-.3,-.1c0,0,-.1,-.1,-.1,-.2c0,0,0,-.1,.1,-.2c0,0,.1,-.1,.3,-.1h.6v-2.5l-.5,.1c0,0,-.1,0,-.2,0c0,0,-.1,0,-.2,-.1c0,0,-.1,-.1,-.1,-.2c0,0,0,-.1,.1,-.2l.2,-.1l1.4,-.3v3.3h.6c0,0,.2,0,.3,.1c0,0,.1,.1,.1,.2c0,0,0,.1,-.1,.2c0,0,-.1,.1,-.3,.1Zm3.6,0c0,0,-.2,0,-.3,-.1c0,0,-.1,-.1,-.1,-.2c0,0,0,-.1,.1,-.2c0,0,.1,-.1,.3,-.1h.7v-2.5l-.6,.1c0,0,-.1,0,-.2,0c0,0,-.1,0,-.2,-.1c0,0,-.1,-.1,-.1,-.2c0,0,0,-.1,.1,-.2c0,0,.1,0,.3,-.1l1.3,-.3v3.3h.6c0,0,.2,0,.3,.1c0,0,.1,.1,.1,.2c0,0,0,.1,-.1,.2c0,0,-.1,.1,-.3,.1Zm4.6,.1c0,0,-.4,0,-.7,-.2c0,0,-.2,-.1,-.4,-.6c0,0,-.3,-.4,-.3,-.9v-.7c0,0,0,-.5,.4,-1.1c0,0,.3,-.5,1,-.5c0,0,.3,0,.6,.1c0,0,.2,.2,.5,.6c0,0,.2,.5,.2,.9v.7c0,0,0,.6,-.3,1.2c0,0,-.4,.5,-1,.5Zm6.3,-.1c0,0,-.3,0,-.4,-.1c0,0,-.1,-.1,-.1,-.2c0,0,0,-.1,.1,-.2c0,0,.1,-.1,.4,-.1h.6v-2.5l-.6,.1c0,0,-.1,0,-.2,0c0,0,-.1,0,-.2,-.1c0,0,-.1,-.1,-.1,-.2c0,0,0,-.1,.1,-.2c0,0,.1,0,.3,-.1l1.3,-.3v3.3h.6c0,0,.2,0,.3,.1c0,0,.1,.1,.1,.2c0,0,0,.1,-.1,.2c0,0,-.1,.1,-.3,.1Z"/></clipPath>
<clipPath id="c14_487"><path d="M346.2,746.9v-1.5h8.6v1.5Z"/></clipPath>
<clipPath id="c15_487"><path d="M335,748.8c0,0,.3,0,.5,-.2c0,0,.3,-.3,.3,-.8v-.7c0,0,0,-.5,-.3,-.9c0,0,-.2,-.2,-.5,-.2c0,0,-.2,0,-.4,.2c0,0,-.3,.4,-.3,.9v.7c0,0,0,.5,.3,.8c0,0,.2,.2,.4,.2Zm18.1,0c0,0,.3,0,.4,-.2c0,0,.3,-.3,.3,-.8v-.7c0,0,0,-.5,-.3,-.9c0,0,-.1,-.2,-.4,-.2c0,0,-.3,0,-.5,.2c0,0,-.3,.4,-.3,.9v.7c0,0,0,.5,.3,.8c0,0,.2,.2,.5,.2Zm-18.1,.6c0,0,-.3,0,-.6,-.1c0,0,-.2,-.2,-.5,-.6c0,0,-.2,-.5,-.2,-.9v-.7c0,0,0,-.6,.4,-1.2c0,0,.3,-.5,.9,-.5c0,0,.4,0,.7,.2c0,0,.2,.1,.4,.5c0,0,.3,.5,.3,1v.7c0,0,0,.5,-.4,1.1c0,0,-.3,.5,-1,.5Zm6.3,-.1c0,0,-.2,0,-.3,0c0,0,-.1,-.1,-.1,-.3c0,0,0,-.1,.1,-.2c0,0,.1,-.1,.3,-.1h.7v-2.5l-.6,.1c0,0,-.1,.1,-.2,.1c0,0,-.1,0,-.2,-.1c0,0,-.1,-.1,-.1,-.3c0,0,0,-.1,.1,-.1c0,0,0,-.1,.2,-.2l1.4,-.3v3.3h.6c0,0,.2,0,.3,.1c0,0,.1,.1,.1,.2c0,0,0,.2,-.1,.3c0,0,-.1,0,-.3,0Zm3.6,0c0,0,-.2,0,-.3,0c0,0,-.1,-.1,-.1,-.3c0,0,0,-.1,.1,-.2c0,0,.1,-.1,.3,-.1h.7v-2.5l-.6,.1c0,0,-.1,.1,-.2,.1c0,0,-.1,0,-.2,-.1c0,0,-.1,-.1,-.1,-.3c0,0,0,-.1,.1,-.1c0,0,.1,-.1,.3,-.2l1.3,-.3v3.3h.6c0,0,.2,0,.3,.1c0,0,.1,.1,.1,.2c0,0,0,.2,-.1,.3c0,0,-.1,0,-.3,0Zm8.2,.1c0,0,-.4,0,-.7,-.1c0,0,-.2,-.2,-.4,-.6c0,0,-.3,-.5,-.3,-.9v-.7c0,0,0,-.6,.4,-1.2c0,0,.3,-.5,1,-.5c0,0,.3,0,.6,.2c0,0,.2,.1,.5,.5c0,0,.2,.5,.2,1v.7c0,0,0,.5,-.3,1.1c0,0,-.4,.5,-1,.5Z"/></clipPath>
<clipPath id="c16_487"><path d="M761.7,724.9c.1,-.3,.1,-.7,.1,-1c0,-.5,-.1,-1,-.1,-1.5c-.1,-.6,-.3,-1.4,-.6,-2.2c-.1,-.1,-.1,-.2,-.2,-.4c.6,.2,1.3,.4,1.8,.8c1.4,.7,2.6,1.9,3.4,3c.1,.2,.3,.4,.4,.5c-.2,0,-.4,0,-.6,0c-.8,0,-1.6,.1,-2,.1c-.9,0,-1.5,.3,-1.9,.6c-.1,0,-.2,.1,-.3,.1Zm-5.3,13.3v-1.5h-8.6v-3.3h15.6v-4.1H747.8v-3.2h8.4V722h-8.4v-2.3h7.4c.7,0,1.8,-.1,2.6,-.1h.1q.1,0,.1,0c.5,0,.8,0,.9,.1c0,0,.2,.1,.3,.3c.3,.4,.5,.8,.7,1.3c.2,.5,.3,1,.3,1.2c0,.4,0,.9,0,1.4c0,.7,0,1.4,-.1,2.1l-.1,1l1,-.2c.8,-.1,1.4,-.5,1.7,-.7c.4,-.2,.6,-.3,1.2,-.3c.6,-.1,1.4,-.2,2,-.2c0,0,.1,0,.1,0c.3,0,.6,.1,.7,.1l.1,.1h.4v12.4Zm12.4,0L768.7,725v-.2l-.1,-.2c0,0,-.9,-1.6,-2.4,-3.1c-.7,-.8,-1.6,-1.6,-2.7,-2.3c-1.1,-.6,-2.3,-1,-3.7,-1v.3c0,-.1,-.1,-.1,-.2,-.2c-.5,-.2,-1.1,-.3,-1.7,-.3c-1,0,-2.1,.2,-2.6,.2q-.1,0,-.1,0h-7.4v-6.8h27.5v26.8Z"/></clipPath>
<clipPath id="c17_487"><path d="M761.7,724.9v0c.1,0,.2,-.1,.3,-.1c.4,-.3,1,-.6,1.9,-.6c.4,0,1.2,-.1,2,-.1c.2,0,.4,0,.6,0c-.1,-.1,-.3,-.3,-.4,-.5c-.8,-1.1,-2,-2.3,-3.4,-3c-.5,-.4,-1.2,-.6,-1.8,-.8c.1,.2,.1,.3,.2,.4c.3,.8,.5,1.6,.6,2.2c0,.5,.1,1,.1,1.5c0,.3,0,.7,-.1,1Zm5.5,13.3V725.8h-.4l-.1,-.1c-.1,0,-.4,-.1,-.7,-.1c0,0,-.1,0,-.1,0c-.6,0,-1.4,.1,-2,.2c-.6,0,-.8,.1,-1.2,.3c-.3,.2,-.9,.6,-1.7,.7l-1,.2l.1,-1c.1,-.7,.1,-1.4,.1,-2.1c0,-.5,0,-1,0,-1.4c0,-.2,-.1,-.7,-.3,-1.2c-.2,-.5,-.4,-.9,-.7,-1.3c-.1,-.2,-.3,-.3,-.3,-.3c-.1,-.1,-.4,-.1,-.9,-.1h-.2c-.8,0,-1.9,.1,-2.6,.1h-7.4v-1.5h7.5c.5,0,1.6,-.2,2.6,-.2c.6,0,1.2,.1,1.7,.3c.1,.1,.2,.1,.2,.2v-.3c1.4,0,2.6,.4,3.7,1c1.1,.7,2,1.5,2.7,2.3c1.5,1.5,2.4,3.1,2.4,3.1l.1,.2v.2l.1,13.2Z"/></clipPath>
<clipPath id="c18_487"><path d="M747.8,726.1V722h8.4v4.1Z"/></clipPath>
<clipPath id="c19_487"><path d="M740,725.4c0,0,.3,0,.4,-.2c0,0,.3,-.3,.3,-.8v-.7c0,0,0,-.5,-.3,-.9c0,0,-.1,-.2,-.4,-.2c0,0,-.3,0,-.5,.2c0,0,-.2,.4,-.2,.9v.7c0,0,0,.5,.2,.8c0,0,.2,.2,.5,.2Zm10.8,0c0,0,.3,0,.5,-.2c0,0,.2,-.3,.2,-.8v-.7c0,0,0,-.5,-.3,-.9c0,0,-.1,-.2,-.4,-.2c0,0,-.3,0,-.5,.2c0,0,-.2,.4,-.2,.9v.7c0,0,0,.5,.3,.8c0,0,.1,.2,.4,.2Zm-15.3,.6c0,0,-.3,0,-.4,-.1c0,0,0,-.1,0,-.2c0,0,0,-.2,0,-.3c0,0,.1,0,.4,0h.6v-2.6l-.6,.1c0,0,-.1,.1,-.2,.1c0,0,-.1,0,-.2,-.1c0,0,-.1,-.1,-.1,-.2c0,0,0,-.2,.1,-.2c0,0,.1,-.1,.3,-.2l1.3,-.3v3.4h.6c0,0,.2,0,.3,0c0,0,.1,.1,.1,.3c0,0,0,.1,-.1,.2c0,0,-.1,.1,-.3,.1Zm4.5,.1c0,0,-.4,0,-.6,-.2c0,0,-.3,-.2,-.5,-.6c0,0,-.2,-.4,-.2,-.9v-.7c0,0,0,-.6,.3,-1.1c0,0,.3,-.6,1,-.6c0,0,.3,0,.6,.2c0,0,.3,.1,.5,.6c0,0,.2,.4,.2,.9v.7c0,0,0,.6,-.3,1.1c0,0,-.4,.6,-1,.6Zm2.7,-.1c0,0,-.2,0,-.3,-.1c0,0,-.1,-.1,-.1,-.2c0,0,0,-.2,.1,-.3c0,0,.1,0,.3,0h.6v-2.6l-.6,.1c0,0,-.1,.1,-.2,.1c0,0,-.1,0,-.2,-.1c0,0,0,-.1,0,-.2c0,0,0,-.2,0,-.2c0,0,.1,-.1,.3,-.2l1.3,-.3v3.4h.6c0,0,.2,0,.3,0c0,0,.1,.1,.1,.3c0,0,0,.1,-.1,.2c0,0,-.1,.1,-.3,.1Zm3.6,0c0,0,-.2,0,-.3,-.1c0,0,-.1,-.1,-.1,-.2c0,0,0,-.2,.1,-.3c0,0,.1,0,.3,0h.6v-2.6l-.6,.1c0,0,-.1,.1,-.1,.1c0,0,-.2,0,-.2,-.1c0,0,-.1,-.1,-.1,-.2c0,0,0,-.2,0,-.2c0,0,.1,-.1,.3,-.2l1.3,-.3v3.4h.6c0,0,.2,0,.3,0c0,0,.1,.1,.1,.3c0,0,0,.1,-.1,.2c0,0,-.1,.1,-.3,.1Zm4.5,.1c0,0,-.4,0,-.6,-.2c0,0,-.3,-.2,-.5,-.6c0,0,-.2,-.4,-.2,-.9v-.7c0,0,0,-.6,.3,-1.1c0,0,.4,-.6,1,-.6c0,0,.4,0,.6,.2c0,0,.3,.1,.5,.6c0,0,.2,.4,.2,.9v.7c0,0,0,.6,-.3,1.1c0,0,-.4,.6,-1,.6Zm2.7,-.1c0,0,-.2,0,-.3,-.1c0,0,-.1,-.1,-.1,-.2c0,0,0,-.2,.1,-.3c0,0,.1,0,.3,0h.6v-2.6l-.5,.1c0,0,-.2,.1,-.2,.1c0,0,-.2,0,-.2,-.1c0,0,-.1,-.1,-.1,-.2c0,0,0,-.2,0,-.2c0,0,.1,-.1,.3,-.2l1.3,-.3v3.4h.6c0,0,.3,0,.4,0c0,0,0,.1,0,.3c0,0,0,.1,0,.2c0,0,-.1,.1,-.4,.1Z"/></clipPath>
<clipPath id="c1a_487"><path d="M747.8,733.4v-4.1h15.6v4.1Z"/></clipPath>
<clipPath id="c1b_487"><path d="M740,732.8c0,0,.3,0,.4,-.2c0,0,.3,-.4,.3,-.9V731c0,0,0,-.5,-.3,-.8c0,0,-.1,-.2,-.4,-.2c0,0,-.3,0,-.5,.2c0,0,-.2,.3,-.2,.8v.7c0,0,0,.5,.2,.9c0,0,.2,.2,.5,.2Zm14.4,0c0,0,.3,0,.5,-.2c0,0,.2,-.4,.2,-.9V731c0,0,0,-.5,-.2,-.8c0,0,-.2,-.2,-.5,-.2c0,0,-.3,0,-.4,.2c0,0,-.3,.3,-.3,.8v.7c0,0,0,.5,.3,.9c0,0,.1,.2,.4,.2Zm-18.9,.5c0,0,-.3,0,-.4,-.1c0,0,0,-.1,0,-.2c0,0,0,-.1,0,-.2c0,0,.1,-.1,.4,-.1h.6v-2.6l-.6,.2c0,0,-.1,0,-.2,0c0,0,-.1,0,-.2,-.1c0,0,-.1,-.1,-.1,-.2c0,0,0,-.1,.1,-.2c0,0,.1,-.1,.3,-.1l1.3,-.4v3.4h.6c0,0,.2,0,.3,.1c0,0,.1,.1,.1,.2c0,0,0,.1,-.1,.2c0,0,-.1,.1,-.3,.1Zm4.5,.1c0,0,-.4,0,-.6,-.2c0,0,-.3,-.1,-.5,-.6c0,0,-.2,-.4,-.2,-.9V731c0,0,0,-.6,.3,-1.1c0,0,.3,-.6,1,-.6c0,0,.3,0,.6,.2c0,0,.3,.2,.5,.6c0,0,.2,.4,.2,.9v.7c0,0,0,.6,-.3,1.1c0,0,-.4,.6,-1,.6Zm6.3,-.1c0,0,-.2,0,-.3,-.1c0,0,-.1,-.1,-.1,-.2c0,0,0,-.1,.1,-.2c0,0,.1,-.1,.3,-.1h.6v-2.6l-.6,.2c0,0,-.1,0,-.1,0c0,0,-.2,0,-.2,-.1c0,0,-.1,-.1,-.1,-.2c0,0,0,-.1,0,-.2c0,0,.1,-.1,.3,-.1l1.3,-.4v3.4h.6c0,0,.2,0,.3,.1c0,0,.1,.1,.1,.2c0,0,0,.1,-.1,.2c0,0,-.1,.1,-.3,.1Zm3.6,0c0,0,-.2,0,-.3,-.1c0,0,-.1,-.1,-.1,-.2c0,0,0,-.1,.1,-.2c0,0,.1,-.1,.3,-.1h.6v-2.6l-.5,.2c0,0,-.2,0,-.2,0c0,0,-.2,0,-.2,-.1c0,0,-.1,-.1,-.1,-.2c0,0,0,-.1,0,-.2c0,0,.1,-.1,.3,-.1l1.3,-.4v3.4h.6c0,0,.3,0,.3,.1c0,0,.1,.1,.1,.2c0,0,0,.1,-.1,.2c0,0,0,.1,-.3,.1Zm4.5,.1c0,0,-.4,0,-.6,-.2c0,0,-.3,-.1,-.5,-.6c0,0,-.2,-.4,-.2,-.9V731c0,0,0,-.6,.3,-1.1c0,0,.4,-.6,1,-.6c0,0,.4,0,.6,.2c0,0,.3,.2,.5,.6c0,0,.2,.4,.2,.9v.7c0,0,0,.6,-.3,1.1c0,0,-.3,.6,-1,.6Zm6.3,-.1c0,0,-.2,0,-.3,-.1c0,0,-.1,-.1,-.1,-.2c0,0,0,-.1,.1,-.2c0,0,.1,-.1,.3,-.1h.6v-2.6l-.5,.2c0,0,-.2,0,-.2,0c0,0,-.1,0,-.2,-.1c0,0,-.1,-.1,-.1,-.2c0,0,0,-.1,.1,-.2c0,0,0,-.1,.2,-.1l1.3,-.4v3.4h.6c0,0,.3,0,.4,.1c0,0,.1,.1,.1,.2c0,0,0,.1,-.1,.2c0,0,-.1,.1,-.4,.1Z"/></clipPath>
<clipPath id="c1c_487"><path d="M747.8,738.2v-1.5h8.6v1.5Z"/></clipPath>
<clipPath id="c1d_487"><path d="M736.6,740.1c0,0,.3,0,.4,-.2c0,0,.3,-.4,.3,-.9v-.6c0,0,0,-.5,-.3,-.9c0,0,-.1,-.2,-.4,-.2c0,0,-.3,0,-.5,.2c0,0,-.2,.4,-.2,.9v.6c0,0,0,.5,.2,.9c0,0,.2,.2,.5,.2Zm18,0c0,0,.3,0,.5,-.2c0,0,.2,-.4,.2,-.9v-.6c0,0,0,-.5,-.2,-.9c0,0,-.2,-.2,-.5,-.2c0,0,-.3,0,-.4,.2c0,0,-.3,.4,-.3,.9v.6c0,0,0,.5,.3,.9c0,0,.1,.2,.4,.2Zm-18,.6c0,0,-.4,0,-.6,-.1c0,0,-.3,-.2,-.5,-.6c0,0,-.2,-.5,-.2,-1v-.6c0,0,0,-.6,.3,-1.2c0,0,.3,-.5,1,-.5c0,0,.3,0,.6,.1c0,0,.3,.2,.5,.6c0,0,.2,.5,.2,1v.6c0,0,0,.6,-.3,1.2c0,0,-.4,.5,-1,.5Zm6.3,-.1c0,0,-.2,0,-.3,0c0,0,-.1,-.1,-.1,-.3c0,0,0,-.1,.1,-.2c0,0,.1,-.1,.3,-.1h.6v-2.5l-.5,.1c0,0,-.2,.1,-.2,.1c0,0,-.2,0,-.2,-.1c0,0,-.1,-.1,-.1,-.3c0,0,0,-.1,0,-.2c0,0,.1,0,.3,-.1l1.3,-.3V740h.6c0,0,.2,0,.3,.1c0,0,.1,.1,.1,.2c0,0,0,.2,-.1,.3c0,0,-.1,0,-.3,0Zm3.6,0c0,0,-.2,0,-.3,0c0,0,-.1,-.1,-.1,-.3c0,0,0,-.1,.1,-.2c0,0,.1,-.1,.3,-.1h.6v-2.5l-.5,.1c0,0,-.2,.1,-.2,.1c0,0,-.2,0,-.2,-.1c0,0,-.1,-.1,-.1,-.3c0,0,0,-.1,0,-.2c0,0,.1,0,.3,-.1l1.3,-.3V740h.6c0,0,.3,0,.3,.1c0,0,.1,.1,.1,.2c0,0,0,.2,-.1,.3h-.3Zm8.1,.1c0,0,-.4,0,-.6,-.1c0,0,-.3,-.2,-.5,-.6c0,0,-.2,-.5,-.2,-1v-.6c0,0,0,-.6,.3,-1.2c0,0,.4,-.5,1,-.5c0,0,.4,0,.6,.1c0,0,.3,.2,.5,.6c0,0,.3,.5,.3,1v.6c0,0,0,.6,-.4,1.2c0,0,-.3,.5,-1,.5Z"/></clipPath>
<clipPath id="c1e_487"><path d="M598.7,634.8c.1,-.3,.1,-.7,.1,-1c0,-.5,0,-1,-.1,-1.5c0,-.6,-.3,-1.4,-.6,-2.2c-.1,-.1,-.1,-.2,-.2,-.4c.7,.2,1.3,.4,1.9,.8c1.3,.7,2.5,1.9,3.3,3c.1,.2,.3,.3,.4,.5c-.2,0,-.4,0,-.6,0c-.8,0,-1.6,.1,-2,.1c-.9,0,-1.5,.3,-1.9,.6c-.1,0,-.2,.1,-.3,.1Zm-5.3,13.3v-1.5h-8.6v-3.3h15.6v-4.1H584.8V636h8.4v-4.1h-8.4v-2.3h7.4c.7,0,1.8,-.1,2.6,-.1h.1q.1,-.1,.1,-.1c.5,0,.8,.1,.9,.2c0,0,.2,.1,.4,.3c.2,.4,.4,.8,.6,1.3c.2,.5,.3,1,.3,1.2c0,.4,0,.9,0,1.4c0,.7,0,1.4,-.1,2.1l-.1,1l1,-.2c.8,-.1,1.4,-.5,1.7,-.7c.4,-.2,.6,-.3,1.3,-.3c.5,-.1,1.3,-.2,1.9,-.2c0,0,.1,0,.1,0c.4,0,.6,.1,.7,.1l.1,.1h.4l.1,12.4Zm12.4,0l-.1,-13.2v-.2l-.1,-.2c0,0,-.8,-1.6,-2.3,-3.2c-.8,-.7,-1.7,-1.5,-2.8,-2.2c-1.1,-.6,-2.3,-1,-3.7,-1v.3c0,-.1,-.1,-.1,-.2,-.2c-.5,-.2,-1.1,-.3,-1.7,-.3c-1,0,-2.1,.2,-2.6,.2c0,0,-.1,0,-.1,0h-7.4v-6.8h27.5v26.8Z"/></clipPath>
<clipPath id="c1f_487"><path d="M598.7,634.8c.1,0,.2,-.1,.3,-.1c.4,-.3,1,-.6,1.9,-.6c.4,0,1.2,-.1,2,-.1c.2,0,.4,0,.6,0c-.1,-.2,-.3,-.3,-.4,-.5c-.8,-1.1,-2,-2.3,-3.3,-3c-.6,-.4,-1.2,-.6,-1.9,-.8c.1,.2,.1,.3,.2,.4c.3,.8,.6,1.6,.6,2.2c.1,.5,.1,1,.1,1.5c0,.3,0,.7,-.1,1Zm5.6,13.3l-.1,-12.4h-.4l-.1,-.1c-.1,0,-.3,-.1,-.7,-.1c0,0,-.1,0,-.1,0c-.6,0,-1.4,.1,-1.9,.2c-.7,0,-.9,.1,-1.3,.3c-.3,.2,-.9,.6,-1.7,.7l-1,.2l.1,-1c.1,-.7,.1,-1.4,.1,-2.1c0,-.5,0,-1,0,-1.4c0,-.2,-.1,-.7,-.3,-1.2c-.2,-.5,-.4,-.9,-.6,-1.3c-.2,-.2,-.4,-.3,-.4,-.3c-.1,-.1,-.4,-.2,-.9,-.2l-.1,.1h-.1c-.8,0,-1.9,.1,-2.6,.1h-7.4v-1.5h7.4c0,0,.1,0,.1,0c.5,0,1.6,-.2,2.6,-.2c.6,0,1.2,.1,1.7,.3c.1,.1,.2,.1,.2,.2v-.3c1.4,0,2.6,.4,3.7,1c1.1,.7,2,1.5,2.8,2.2c1.5,1.6,2.3,3.2,2.3,3.2l.1,.2v.2l.1,13.2Z"/></clipPath>
<clipPath id="c1g_487"><path d="M584.8,636v-4.1h8.4V636Z"/></clipPath>
<clipPath id="c1h_487"><path d="M577,635.3c0,0,.3,0,.5,-.2c0,0,.2,-.3,.2,-.8v-.7c0,0,0,-.5,-.3,-.9c0,0,-.1,-.2,-.4,-.2c0,0,-.3,0,-.5,.2c0,0,-.2,.4,-.2,.9v.7c0,0,0,.5,.3,.8c0,0,.1,.2,.4,.2Zm10.8,0c0,0,.3,0,.5,-.2c0,0,.2,-.3,.2,-.8v-.7c0,0,0,-.5,-.2,-.9c0,0,-.2,-.2,-.5,-.2c0,0,-.3,0,-.4,.2c0,0,-.3,.4,-.3,.9v.7c0,0,0,.5,.3,.8c0,0,.1,.2,.4,.2Zm-15.3,.6c0,0,-.2,0,-.3,-.1c0,0,-.1,-.1,-.1,-.2c0,0,0,-.2,.1,-.3c0,0,.1,0,.3,0h.6v-2.6l-.6,.1c0,0,-.1,.1,-.1,.1c0,0,-.2,0,-.2,-.1c0,0,-.1,-.1,-.1,-.2c0,0,0,-.2,0,-.2c0,0,.1,-.1,.3,-.2l1.3,-.3v3.4h.6c0,0,.2,0,.3,0c0,0,.1,.1,.1,.3c0,0,0,.1,-.1,.2c0,0,-.1,.1,-.3,.1Zm4.5,.1c0,0,-.4,0,-.6,-.2c0,0,-.3,-.2,-.5,-.6c0,0,-.2,-.4,-.2,-.9v-.7c0,0,0,-.6,.3,-1.1c0,0,.4,-.6,1,-.6c0,0,.4,0,.6,.2c0,0,.3,.1,.5,.6c0,0,.2,.4,.2,.9v.7c0,0,0,.6,-.3,1.1c0,0,-.4,.6,-1,.6Zm2.7,-.1c0,0,-.2,0,-.3,-.1c0,0,-.1,-.1,-.1,-.2c0,0,0,-.2,.1,-.3c0,0,.1,0,.3,0h.6v-2.6l-.5,.1c0,0,-.2,.1,-.2,.1c0,0,-.2,0,-.2,-.1c0,0,-.1,-.1,-.1,-.2c0,0,0,-.2,0,-.2c0,0,.1,-.1,.3,-.2l1.3,-.3v3.4h.6c0,0,.3,0,.4,0c0,0,0,.1,0,.3c0,0,0,.1,0,.2c0,0,-.1,.1,-.4,.1Zm3.6,0c0,0,-.2,0,-.3,-.1c0,0,-.1,-.1,-.1,-.2c0,0,0,-.2,.1,-.3c0,0,.1,0,.3,0h.6v-2.6l-.5,.1c0,0,-.2,.1,-.2,.1c0,0,-.1,0,-.2,-.1c0,0,-.1,-.1,-.1,-.2c0,0,0,-.2,0,-.2c0,0,.1,-.1,.3,-.2l1.3,-.3v3.4h.6c0,0,.3,0,.4,0c0,0,.1,.1,.1,.3c0,0,0,.1,-.1,.2c0,0,-.1,.1,-.4,.1Zm4.5,.1c0,0,-.3,0,-.6,-.2c0,0,-.3,-.2,-.5,-.6c0,0,-.2,-.4,-.2,-.9v-.7c0,0,0,-.6,.3,-1.1c0,0,.4,-.6,1,-.6c0,0,.4,0,.6,.2c0,0,.3,.1,.5,.6c0,0,.3,.4,.3,.9v.7c0,0,0,.6,-.4,1.1c0,0,-.3,.6,-1,.6Zm2.7,-.1c0,0,-.2,0,-.3,-.1c0,0,-.1,-.1,-.1,-.2c0,0,0,-.2,.1,-.3c0,0,.1,0,.3,0h.6v-2.6l-.5,.1c0,0,-.2,.1,-.2,.1c0,0,-.1,0,-.2,-.1c0,0,-.1,-.1,-.1,-.2c0,0,0,-.2,.1,-.2c0,0,0,-.1,.2,-.2l1.3,-.3v3.4h.7c0,0,.2,0,.3,0c0,0,.1,.1,.1,.3c0,0,0,.1,-.1,.2c0,0,-.1,.1,-.3,.1Z"/></clipPath>
<clipPath id="c1i_487"><path d="M584.8,643.3v-4.1h15.6v4.1Z"/></clipPath>
<clipPath id="c1j_487"><path d="M577,642.7c0,0,.3,0,.5,-.3c0,0,.2,-.3,.2,-.8v-.7c0,0,0,-.5,-.3,-.8c0,0,-.1,-.3,-.4,-.3c0,0,-.3,0,-.5,.3c0,0,-.2,.3,-.2,.8v.7c0,0,0,.5,.3,.9c0,0,.1,.2,.4,.2Zm14.4,0c0,0,.3,0,.5,-.3c0,0,.3,-.3,.3,-.8v-.7c0,0,0,-.5,-.3,-.8c0,0,-.2,-.3,-.5,-.3c0,0,-.3,0,-.4,.3c0,0,-.3,.3,-.3,.8v.7c0,0,0,.5,.3,.9c0,0,.1,.2,.4,.2Zm-18.9,.5c0,0,-.2,0,-.3,-.1c0,0,-.1,-.1,-.1,-.2c0,0,0,-.1,.1,-.2c0,0,.1,-.1,.3,-.1h.6V640l-.6,.2c0,0,-.1,0,-.1,0c0,0,-.2,0,-.2,-.1c0,0,-.1,-.1,-.1,-.2c0,0,0,-.1,0,-.2c0,0,.1,-.1,.3,-.1l1.3,-.4v3.4h.6c0,0,.2,0,.3,.1c0,0,.1,.1,.1,.2c0,0,0,.1,-.1,.2c0,0,-.1,.1,-.3,.1Zm4.5,.1c0,0,-.4,0,-.6,-.2c0,0,-.3,-.1,-.5,-.6c0,0,-.2,-.4,-.2,-.9v-.7c0,0,0,-.6,.3,-1.1c0,0,.4,-.6,1,-.6c0,0,.4,0,.6,.2c0,0,.3,.2,.5,.6c0,0,.2,.4,.2,.9v.7c0,0,0,.6,-.3,1.1c0,0,-.4,.6,-1,.6Zm6.3,-.1c0,0,-.2,0,-.3,-.1c0,0,-.1,-.1,-.1,-.2c0,0,0,-.1,.1,-.2c0,0,.1,-.1,.3,-.1h.6V640l-.5,.2c0,0,-.2,0,-.2,0c0,0,-.1,0,-.2,-.1c0,0,-.1,-.1,-.1,-.2c0,0,0,-.1,0,-.2c0,0,.1,-.1,.3,-.1l1.3,-.4v3.4h.6c0,0,.3,0,.4,.1c0,0,.1,.1,.1,.2c0,0,0,.1,-.1,.2c0,0,-.1,.1,-.4,.1Zm3.6,0c0,0,-.2,0,-.3,-.1c0,0,-.1,-.1,-.1,-.2c0,0,0,-.1,.1,-.2c0,0,.1,-.1,.3,-.1h.6V640l-.5,.2c0,0,-.2,0,-.2,0c0,0,-.1,0,-.2,-.1c0,0,-.1,-.1,-.1,-.2c0,0,0,-.1,.1,-.2c0,0,0,-.1,.2,-.1l1.3,-.4v3.4h.6c0,0,.3,0,.4,.1c0,0,.1,.1,.1,.2c0,0,0,.1,-.1,.2c0,0,-.1,.1,-.4,.1Zm4.5,.1c0,0,-.3,0,-.6,-.2c0,0,-.3,-.1,-.5,-.6c0,0,-.2,-.4,-.2,-.9v-.7c0,0,0,-.6,.3,-1.1c0,0,.4,-.6,1,-.6c0,0,.4,0,.6,.2c0,0,.3,.2,.5,.6c0,0,.3,.4,.3,.9v.7c0,0,0,.6,-.4,1.1c0,0,-.3,.6,-1,.6Zm6.3,-.1c0,0,-.2,0,-.3,-.1c0,0,-.1,-.1,-.1,-.2c0,0,0,-.1,.1,-.2c0,0,.1,-.1,.3,-.1h.6V640l-.5,.2c0,0,-.1,0,-.2,0c0,0,-.1,0,-.2,-.1c0,0,-.1,-.1,-.1,-.2c0,0,0,-.1,.1,-.2c0,0,0,-.1,.2,-.1l1.3,-.4v3.4h.7c0,0,.2,0,.3,.1c0,0,.1,.1,.1,.2c0,0,0,.1,-.1,.2c0,0,-.1,.1,-.3,.1Z"/></clipPath>
<clipPath id="c1k_487"><path d="M584.8,648.1v-1.5h8.6v1.5Z"/></clipPath>
<clipPath id="c1l_487"><path d="M573.6,650c0,0,.3,0,.5,-.2c0,0,.2,-.4,.2,-.9v-.6c0,0,0,-.5,-.2,-.9c0,0,-.2,-.2,-.5,-.2c0,0,-.3,0,-.5,.2c0,0,-.2,.4,-.2,.9v.6c0,0,0,.5,.3,.9c0,0,.1,.2,.4,.2Zm18,0c0,0,.3,0,.5,-.2c0,0,.3,-.4,.3,-.9v-.6c0,0,0,-.5,-.3,-.9c0,0,-.2,-.2,-.5,-.2c0,0,-.2,0,-.4,.2c0,0,-.3,.4,-.3,.9v.6c0,0,0,.5,.3,.9c0,0,.1,.2,.4,.2Zm-18,.6c0,0,-.4,0,-.6,-.1c0,0,-.3,-.2,-.5,-.6c0,0,-.2,-.5,-.2,-1v-.6c0,0,0,-.6,.3,-1.2c0,0,.4,-.5,1,-.5c0,0,.4,0,.6,.1c0,0,.3,.2,.5,.6c0,0,.2,.5,.2,1v.6c0,0,0,.6,-.3,1.2c0,0,-.4,.5,-1,.5Zm6.3,-.1c0,0,-.2,0,-.3,-.1c0,0,-.1,0,-.1,-.2c0,0,0,-.1,.1,-.2c0,0,.1,-.1,.3,-.1h.6v-2.5l-.5,.1c0,0,-.2,0,-.2,0c0,0,-.1,0,-.2,0c0,0,-.1,-.1,-.1,-.3c0,0,0,-.1,0,-.2c0,0,.1,0,.3,-.1l1.3,-.3v3.3h.6c0,0,.3,0,.4,.1c0,0,.1,.1,.1,.2c0,0,0,.2,-.1,.2c0,0,-.1,.1,-.4,.1Zm3.6,0c0,0,-.2,0,-.3,-.1c0,0,-.1,0,-.1,-.2c0,0,0,-.1,.1,-.2c0,0,.1,-.1,.3,-.1h.6v-2.5l-.5,.1c0,0,-.2,0,-.2,0c0,0,-.1,0,-.2,0c0,0,-.1,-.1,-.1,-.3c0,0,0,-.1,.1,-.2l.2,-.1l1.3,-.3v3.3h.6c0,0,.3,0,.4,.1c0,0,.1,.1,.1,.2c0,0,0,.2,-.1,.2c0,0,-.1,.1,-.4,.1Zm8.1,.1c0,0,-.3,0,-.6,-.1c0,0,-.2,-.2,-.5,-.6c0,0,-.2,-.5,-.2,-1v-.6c0,0,0,-.6,.3,-1.2c0,0,.4,-.5,1,-.5c0,0,.4,0,.6,.1c0,0,.3,.2,.5,.6c0,0,.3,.5,.3,1v.6c0,0,0,.6,-.4,1.2c0,0,-.3,.5,-1,.5Z"/></clipPath>
<clipPath id="c1m_487"><path d="M598.7,715.2c.1,-.3,.1,-.7,.1,-1c0,-.6,0,-1.1,-.1,-1.5c0,-.7,-.3,-1.4,-.6,-2.2c-.1,-.1,-.1,-.3,-.2,-.4c.7,.2,1.3,.4,1.9,.8c1.3,.7,2.5,1.9,3.3,2.9c.1,.2,.3,.4,.4,.6c-.2,0,-.4,0,-.6,0c-.8,0,-1.6,.1,-2,.1c-.9,0,-1.5,.3,-1.9,.6c-.1,0,-.2,.1,-.3,.1Zm-5.3,13.3V727h-8.6v-3.3h15.6v-4.1H584.8v-3.3h8.4v-4h-8.4V710h7.4c.8,0,1.9,-.2,2.7,-.2q.1,0,.1,0c.5,0,.8,.1,.9,.2c0,0,.2,.1,.4,.3c.2,.3,.4,.8,.6,1.3c.2,.5,.3,.9,.3,1.2c0,.4,0,.9,0,1.4c0,.7,0,1.4,-.1,2.1l-.1,.9l1,-.1c.8,-.1,1.4,-.5,1.7,-.7c.4,-.2,.6,-.3,1.3,-.4c.5,0,1.3,-.1,1.9,-.1c.4,0,.7,.1,.8,.1l.1,.1h.4l.1,12.4Zm12.4,0l-.1,-13.2v-.2l-.1,-.2c0,0,-.8,-1.6,-2.3,-3.2c-.8,-.8,-1.7,-1.6,-2.8,-2.2c-1.1,-.6,-2.3,-1,-3.7,-1v.3c0,-.1,-.1,-.1,-.2,-.2c-.5,-.3,-1.1,-.3,-1.7,-.3c-1,0,-2.1,.2,-2.6,.2h-7.5v-6.8h27.5v26.8Z"/></clipPath>
<clipPath id="c1n_487"><path d="M598.7,715.2v0c.1,0,.2,-.1,.3,-.1c.4,-.3,1,-.6,1.9,-.6c.4,0,1.2,-.1,2,-.1c.2,0,.4,0,.6,0c-.1,-.2,-.3,-.4,-.4,-.6c-.8,-1,-2,-2.2,-3.3,-2.9c-.6,-.4,-1.2,-.6,-1.9,-.8c.1,.1,.1,.3,.2,.4c.3,.8,.6,1.5,.6,2.2c.1,.4,.1,.9,.1,1.5c0,.3,0,.7,-.1,1Zm5.6,13.3l-.1,-12.4h-.4l-.1,-.1c-.1,0,-.4,-.1,-.8,-.1c-.6,0,-1.4,.1,-1.9,.1c-.7,.1,-.9,.2,-1.3,.4c-.3,.2,-.9,.6,-1.7,.7l-1,.1l.1,-.9c.1,-.7,.1,-1.4,.1,-2.1c0,-.5,0,-1,0,-1.4c0,-.3,-.1,-.7,-.3,-1.2c-.2,-.5,-.4,-1,-.6,-1.3c-.2,-.2,-.4,-.3,-.4,-.3c-.1,-.1,-.4,-.2,-.9,-.2h-.1c-.8,0,-1.9,.2,-2.7,.2h-7.4v-1.5h7.5c.5,0,1.6,-.2,2.6,-.2c.6,0,1.2,0,1.7,.3c.1,.1,.2,.1,.2,.2v-.3c1.4,0,2.6,.4,3.7,1c1.1,.6,2,1.4,2.8,2.2c1.5,1.6,2.3,3.2,2.3,3.2l.1,.2v.2l.1,13.2Z"/></clipPath>
<clipPath id="c1o_487"><path d="M584.8,716.3v-4h8.4v4Z"/></clipPath>
<clipPath id="c1p_487"><path d="M577,715.7c0,0,.3,0,.5,-.2c0,0,.2,-.3,.2,-.9V714c0,0,0,-.5,-.3,-.9c0,0,-.1,-.2,-.4,-.2c0,0,-.3,0,-.5,.2c0,0,-.2,.4,-.2,.9v.6c0,0,0,.6,.3,.9c0,0,.1,.2,.4,.2Zm10.8,0c0,0,.3,0,.5,-.2c0,0,.2,-.3,.2,-.9V714c0,0,0,-.5,-.2,-.9c0,0,-.2,-.2,-.5,-.2c0,0,-.3,0,-.4,.2c0,0,-.3,.4,-.3,.9v.6c0,0,0,.6,.3,.9c0,0,.1,.2,.4,.2Zm-15.3,.5c0,0,-.2,0,-.3,0c0,0,-.1,-.1,-.1,-.3c0,0,0,-.1,.1,-.2c0,0,.1,-.1,.3,-.1h.6v-2.5l-.6,.1c0,0,-.1,.1,-.1,.1c0,0,-.2,0,-.2,-.1c0,0,-.1,-.1,-.1,-.3c0,0,0,-.1,0,-.1c0,0,.1,-.1,.3,-.2l1.3,-.3v3.3h.6c0,0,.2,0,.3,.1c0,0,.1,.1,.1,.2c0,0,0,.2,-.1,.3c0,0,-.1,0,-.3,0Zm4.5,.1c0,0,-.4,0,-.6,-.1c0,0,-.3,-.2,-.5,-.6c0,0,-.2,-.5,-.2,-1V714c0,0,0,-.6,.3,-1.2c0,0,.4,-.5,1,-.5c0,0,.4,0,.6,.2c0,0,.3,.1,.5,.5c0,0,.2,.5,.2,1v.6c0,0,0,.6,-.3,1.2c0,0,-.4,.5,-1,.5Zm2.7,-.1c0,0,-.2,0,-.3,0c0,0,-.1,-.1,-.1,-.3c0,0,0,-.1,.1,-.2c0,0,.1,-.1,.3,-.1h.6v-2.5l-.5,.1c0,0,-.2,.1,-.2,.1c0,0,-.2,0,-.2,-.1c0,0,-.1,-.1,-.1,-.3c0,0,0,-.1,0,-.1c0,0,.1,-.1,.3,-.2l1.3,-.3v3.3h.6c0,0,.3,0,.4,.1c0,0,0,.1,0,.2c0,0,0,.2,0,.3c0,0,-.1,0,-.4,0Zm3.6,0c0,0,-.2,0,-.3,0c0,0,-.1,-.1,-.1,-.3c0,0,0,-.1,.1,-.2c0,0,.1,-.1,.3,-.1h.6v-2.5l-.5,.1c0,0,-.2,.1,-.2,.1c0,0,-.1,0,-.2,-.1c0,0,-.1,-.1,-.1,-.3c0,0,0,-.1,0,-.1c0,0,.1,-.1,.3,-.2l1.3,-.3v3.3h.6c0,0,.3,0,.4,.1c0,0,.1,.1,.1,.2c0,0,0,.2,-.1,.3c0,0,-.1,0,-.4,0Zm4.5,.1c0,0,-.3,0,-.6,-.1c0,0,-.3,-.2,-.5,-.6c0,0,-.2,-.5,-.2,-1V714c0,0,0,-.6,.3,-1.2c0,0,.4,-.5,1,-.5c0,0,.4,0,.6,.2c0,0,.3,.1,.5,.5c0,0,.3,.5,.3,1v.6c0,0,0,.6,-.4,1.2c0,0,-.3,.5,-1,.5Zm2.7,-.1c0,0,-.2,0,-.3,0c0,0,-.1,-.1,-.1,-.3c0,0,0,-.1,.1,-.2c0,0,.1,-.1,.3,-.1h.6v-2.5l-.5,.1c0,0,-.2,.1,-.2,.1c0,0,-.1,0,-.2,-.1c0,0,-.1,-.1,-.1,-.3c0,0,0,-.1,.1,-.1c0,0,0,-.1,.2,-.2l1.3,-.3v3.3h.7c0,0,.2,0,.3,.1c0,0,.1,.1,.1,.2c0,0,0,.2,-.1,.3c0,0,-.1,0,-.3,0Z"/></clipPath>
<clipPath id="c1q_487"><path d="M584.8,723.7v-4.1h15.6v4.1Z"/></clipPath>
<clipPath id="c1r_487"><path d="M577,723.1c0,0,.3,0,.5,-.3c0,0,.2,-.3,.2,-.8v-.7c0,0,0,-.5,-.3,-.9c0,0,-.1,-.2,-.4,-.2c0,0,-.3,0,-.5,.3c0,0,-.2,.3,-.2,.8v.7c0,0,0,.5,.3,.9c0,0,.1,.2,.4,.2Zm14.4,0c0,0,.3,0,.5,-.3c0,0,.3,-.3,.3,-.8v-.7c0,0,0,-.5,-.3,-.9c0,0,-.2,-.2,-.5,-.2c0,0,-.3,0,-.4,.3c0,0,-.3,.3,-.3,.8v.7c0,0,0,.5,.3,.9c0,0,.1,.2,.4,.2Zm-18.9,.5c0,0,-.2,0,-.3,-.1c0,0,-.1,-.1,-.1,-.2c0,0,0,-.2,.1,-.2c0,0,.1,-.1,.3,-.1h.6v-2.6l-.6,.2c0,0,-.1,0,-.1,0c0,0,-.2,0,-.2,-.1c0,0,-.1,-.1,-.1,-.2c0,0,0,-.1,0,-.2c0,0,.1,-.1,.3,-.1l1.3,-.4V723h.6c0,0,.2,0,.3,.1c0,0,.1,0,.1,.2c0,0,0,.1,-.1,.2c0,0,-.1,.1,-.3,.1Zm4.5,.1c0,0,-.4,0,-.6,-.2c0,0,-.3,-.2,-.5,-.6c0,0,-.2,-.4,-.2,-.9v-.7c0,0,0,-.6,.3,-1.1c0,0,.4,-.6,1,-.6c0,0,.4,0,.6,.2c0,0,.3,.1,.5,.6c0,0,.2,.4,.2,.9v.7c0,0,0,.6,-.3,1.1c0,0,-.4,.6,-1,.6Zm6.3,-.1c0,0,-.2,0,-.3,-.1c0,0,-.1,-.1,-.1,-.2c0,0,0,-.2,.1,-.2c0,0,.1,-.1,.3,-.1h.6v-2.6l-.5,.2c0,0,-.2,0,-.2,0c0,0,-.1,0,-.2,-.1c0,0,-.1,-.1,-.1,-.2c0,0,0,-.1,0,-.2c0,0,.1,-.1,.3,-.1l1.3,-.4V723h.6c0,0,.3,0,.4,.1c0,0,.1,0,.1,.2c0,0,0,.1,-.1,.2c0,0,-.1,.1,-.4,.1Zm3.6,0c0,0,-.2,0,-.3,-.1c0,0,-.1,-.1,-.1,-.2c0,0,0,-.2,.1,-.2c0,0,.1,-.1,.3,-.1h.6v-2.6l-.5,.2c0,0,-.2,0,-.2,0c0,0,-.1,0,-.2,-.1c0,0,-.1,-.1,-.1,-.2c0,0,0,-.1,.1,-.2c0,0,0,-.1,.2,-.1l1.3,-.4V723h.6c0,0,.3,0,.4,.1c0,0,.1,0,.1,.2c0,0,0,.1,-.1,.2c0,0,-.1,.1,-.4,.1Zm4.5,.1c0,0,-.3,0,-.6,-.2c0,0,-.3,-.2,-.5,-.6c0,0,-.2,-.4,-.2,-.9v-.7c0,0,0,-.6,.3,-1.1c0,0,.4,-.6,1,-.6c0,0,.4,0,.6,.2c0,0,.3,.1,.5,.6c0,0,.3,.4,.3,.9v.7c0,0,0,.6,-.4,1.1c0,0,-.3,.6,-1,.6Zm6.3,-.1c0,0,-.2,0,-.3,-.1c0,0,-.1,-.1,-.1,-.2c0,0,0,-.2,.1,-.2c0,0,.1,-.1,.3,-.1h.6v-2.6l-.5,.2c0,0,-.1,0,-.2,0c0,0,-.1,0,-.2,-.1c0,0,-.1,-.1,-.1,-.2c0,0,0,-.1,.1,-.2c0,0,0,-.1,.2,-.1l1.3,-.4V723h.7c0,0,.2,0,.3,.1c0,0,.1,0,.1,.2c0,0,0,.1,-.1,.2c0,0,-.1,.1,-.3,.1Z"/></clipPath>
<clipPath id="c1s_487"><path d="M584.8,728.5V727h8.6v1.5Z"/></clipPath>
<clipPath id="c1t_487"><path d="M573.6,730.4c0,0,.3,0,.5,-.2c0,0,.2,-.4,.2,-.9v-.7c0,0,0,-.5,-.2,-.8c0,0,-.2,-.2,-.5,-.2c0,0,-.3,0,-.5,.2c0,0,-.2,.3,-.2,.8v.7c0,0,0,.5,.3,.9c0,0,.1,.2,.4,.2Zm18,0c0,0,.3,0,.5,-.2c0,0,.3,-.4,.3,-.9v-.7c0,0,0,-.5,-.3,-.8c0,0,-.2,-.2,-.5,-.2c0,0,-.2,0,-.4,.2c0,0,-.3,.3,-.3,.8v.7c0,0,0,.5,.3,.9c0,0,.1,.2,.4,.2Zm-18,.6c0,0,-.4,0,-.6,-.2c0,0,-.3,-.1,-.5,-.6c0,0,-.2,-.4,-.2,-.9v-.7c0,0,0,-.5,.3,-1.1c0,0,.4,-.5,1,-.5c0,0,.4,0,.6,.1c0,0,.3,.2,.5,.6c0,0,.2,.5,.2,.9v.7c0,0,0,.6,-.3,1.2c0,0,-.4,.5,-1,.5Zm6.3,-.1c0,0,-.2,0,-.3,-.1c0,0,-.1,-.1,-.1,-.2c0,0,0,-.1,.1,-.2c0,0,.1,-.1,.3,-.1h.6v-2.5l-.5,.1c0,0,-.2,0,-.2,0c0,0,-.1,0,-.2,-.1c0,0,-.1,-.1,-.1,-.2c0,0,0,-.1,0,-.2c0,0,.1,-.1,.3,-.1l1.3,-.3v3.3h.6c0,0,.3,0,.4,.1c0,0,.1,.1,.1,.2c0,0,0,.1,-.1,.2c0,0,-.1,.1,-.4,.1Zm3.6,0c0,0,-.2,0,-.3,-.1c0,0,-.1,-.1,-.1,-.2c0,0,0,-.1,.1,-.2c0,0,.1,-.1,.3,-.1h.6v-2.5l-.5,.1c0,0,-.2,0,-.2,0c0,0,-.1,0,-.2,-.1c0,0,-.1,-.1,-.1,-.2c0,0,0,-.1,.1,-.2c0,0,0,-.1,.2,-.1l1.3,-.3v3.3h.6c0,0,.3,0,.4,.1c0,0,.1,.1,.1,.2c0,0,0,.1,-.1,.2c0,0,-.1,.1,-.4,.1Zm8.1,.1c0,0,-.3,0,-.6,-.2c0,0,-.2,-.1,-.5,-.6c0,0,-.2,-.4,-.2,-.9v-.7c0,0,0,-.5,.3,-1.1c0,0,.4,-.5,1,-.5c0,0,.4,0,.6,.1c0,0,.3,.2,.5,.6c0,0,.3,.5,.3,.9v.7c0,0,0,.6,-.4,1.2c0,0,-.3,.5,-1,.5Z"/></clipPath>
<clipPath id="c1u_487"><path d="M90.7,233.8V105.4H192.8V233.8Z"/></clipPath>
<clipPath id="c1v_487"><path d="M-2.6,1047.7V-2.6H910.2V1047.7Z"/></clipPath>
<style type="text/css"><![CDATA[
.g0_487{
fill: #D6D6D6;
}
.g1_487{
fill: none;
stroke: #505050;
stroke-width: 1.527;
stroke-linecap: butt;
stroke-linejoin: miter;
stroke-miterlimit: 4;
}
.g2_487{
fill: none;
stroke: #505050;
stroke-width: 3.055;
stroke-linecap: butt;
stroke-linejoin: miter;
stroke-miterlimit: 4;
}
.g3_487{
}
.g4_487{
fill: #FFFFFF;
}
.g5_487{
fill: none;
stroke: #000000;
stroke-width: 1.527;
stroke-linecap: butt;
stroke-linejoin: miter;
stroke-miterlimit: 4;
}
.g6_487{
fill: none;
stroke: #FFFFFF;
stroke-width: 1.909;
stroke-linecap: butt;
stroke-linejoin: miter;
}
.g7_487{
fill: none;
stroke: #000000;
stroke-width: 0.381;
stroke-linecap: butt;
stroke-linejoin: miter;
}
]]></style>
</defs>
<path d="M679.7,467.3c-1.7,-.8,-70.4,9.4,-72.4,10.6c-10.5,1.9,-20.9,3.8,-31.2,5.8c-4.5,.4,-8.1,1.4,-10.8,3.2c-3.4,1.8,-6.3,4.7,-8.6,6.9c-4,3.8,-2.9,5.9,-1.9,10.1c1,3.5,1.4,7.1,1.4,10.6c-.6,4.3,-4.5,7.6,-7.9,11.3c-5.1,5.7,-11.9,11.3,-14.6,17.5c-3.4,7.7,.5,13.9,7.8,20.5c8.3,7.8,20.2,14.1,27.3,22.3c7.9,9.1,12.2,21.1,28.3,27.3c10.7,2.8,22,4.3,33.9,4.7c14.1,.2,27.8,-.9,41.2,-3.2c9,-1.7,18.2,-2.7,27.6,-3.1c15.8,-.2,31.6,4.6,46.2,-1c7,-3.8,12.4,-8.2,16.3,-13.2c3.2,-3.6,6.6,-7.1,10.1,-10.6c3.5,-3.1,6.4,-6.4,8.7,-9.9c3.2,-6.2,-1,-10,-4.6,-15.8c-4,-6.1,-6.1,-12.5,-6.3,-19c.1,-5.6,.2,-11.1,.2,-16.7c-.5,-5.2,-1.8,-10.4,-3.7,-15.5c-3.2,-7.5,-8.9,-12.5,-17.4,-18.4c-7.6,-5.2,-14.1,-10.8,-21.9,-15.9c-2.6,-2.3,-5.9,-4.1,-10,-5.4c-2,-.4,-36.1,-2,-36.9,-2.7Z" class="g0_487"/>
<path d="M679.7,467.3c-1.7,-.8,-70.4,9.4,-72.4,10.6c-10.5,1.9,-20.9,3.8,-31.2,5.8c-4.5,.4,-8.1,1.4,-10.8,3.2c-3.4,1.8,-6.3,4.7,-8.6,6.9c-4,3.8,-2.9,5.9,-1.9,10.1c1,3.5,1.4,7.1,1.4,10.6c-.6,4.3,-4.5,7.6,-7.9,11.3c-5.1,5.7,-11.9,11.3,-14.6,17.5c-3.4,7.7,.5,13.9,7.8,20.5c8.3,7.8,20.2,14.1,27.3,22.3c7.9,9.1,12.2,21.1,28.3,27.3c10.7,2.8,22,4.3,33.9,4.7c14.1,.2,27.8,-.9,41.2,-3.2c9,-1.7,18.2,-2.7,27.6,-3.1c15.8,-.2,31.6,4.6,46.2,-1c7,-3.8,12.4,-8.2,16.3,-13.2c3.2,-3.6,6.6,-7.1,10.1,-10.6c3.5,-3.1,6.4,-6.4,8.7,-9.9c3.2,-6.2,-1,-10,-4.6,-15.8c-4,-6.1,-6.1,-12.5,-6.3,-19c.1,-5.6,.2,-11.1,.2,-16.7c-.5,-5.2,-1.8,-10.4,-3.7,-15.5c-3.2,-7.5,-8.9,-12.5,-17.4,-18.4c-7.6,-5.2,-14.1,-10.8,-21.9,-15.9c-2.6,-2.3,-5.9,-4.1,-10,-5.4c-2,-.4,-36.1,-2,-36.9,-2.7" class="g1_487"/>
<g clip-path="url(#c0_487)">
<image clip-path="url(#c0_487)" preserveAspectRatio="none" x="676" y="486" width="74" height="75" xlink:href="img/1.jpg"/>
</g>
<path d="M339.7,474.2c1.7,-.7,71.2,9.7,73.3,10.9c10.5,1.9,21.1,3.8,31.5,5.8c4.5,.4,8.2,1.5,10.9,3.3c3.5,1.8,6.4,4.8,8.7,7c4.1,3.9,3,6.1,1.9,10.4c-.9,3.6,-1.4,7.2,-1.4,10.8c.7,4.4,4.6,7.7,8,11.5c5.2,5.8,12,11.6,14.8,17.9c3.4,7.8,-.5,14.1,-7.8,20.9c-8.5,7.9,-20.6,14.4,-27.7,22.7c-8,9.3,-12.4,21.6,-28.6,27.8c-10.8,2.9,-22.3,4.5,-34.3,4.9c-14.2,.2,-28.1,-.9,-41.7,-3.3C338.2,623.1,329,622,319.4,621.7c-16,-.2,-31.9,4.7,-46.7,-1.1c-7.1,-3.9,-12.6,-8.3,-16.5,-13.4c-3.3,-3.6,-6.7,-7.3,-10.2,-10.8c-3.6,-3.2,-6.5,-6.6,-8.8,-10.1c-3.2,-6.3,1,-10.3,4.7,-16.2c4,-6.2,6.1,-12.7,6.3,-19.3c-.1,-5.7,-.2,-11.4,-.2,-17.1c.5,-5.3,1.8,-10.6,3.8,-15.8c3.2,-7.6,8.9,-12.8,17.6,-18.8c7.6,-5.3,14.2,-11,22.1,-16.2c2.6,-2.3,6,-4.1,10.1,-5.5c2.1,-.4,36.6,-2,37.3,-2.7Z" class="g0_487"/>
<path d="M339.7,474.2c1.7,-.7,71.2,9.7,73.3,10.9c10.5,1.9,21.1,3.8,31.5,5.8c4.5,.4,8.2,1.5,10.9,3.3c3.5,1.8,6.4,4.8,8.7,7c4.1,3.9,3,6.1,1.9,10.4c-.9,3.6,-1.4,7.2,-1.4,10.8c.7,4.4,4.6,7.7,8,11.5c5.2,5.8,12,11.6,14.8,17.9c3.4,7.8,-.5,14.1,-7.8,20.9c-8.5,7.9,-20.6,14.4,-27.7,22.7c-8,9.3,-12.4,21.6,-28.6,27.8c-10.8,2.9,-22.3,4.5,-34.3,4.9c-14.2,.2,-28.1,-.9,-41.7,-3.3C338.2,623.1,329,622,319.4,621.7c-16,-.2,-31.9,4.7,-46.7,-1.1c-7.1,-3.9,-12.6,-8.3,-16.5,-13.4c-3.3,-3.6,-6.7,-7.3,-10.2,-10.8c-3.6,-3.2,-6.5,-6.6,-8.8,-10.1c-3.2,-6.3,1,-10.3,4.7,-16.2c4,-6.2,6.1,-12.7,6.3,-19.3c-.1,-5.7,-.2,-11.4,-.2,-17.1c.5,-5.3,1.8,-10.6,3.8,-15.8c3.2,-7.6,8.9,-12.8,17.6,-18.8c7.6,-5.3,14.2,-11,22.1,-16.2c2.6,-2.3,6,-4.1,10.1,-5.5c2.1,-.4,36.6,-2,37.3,-2.7" class="g1_487"/>
<g clip-path="url(#c1_487)">
<image clip-path="url(#c1_487)" preserveAspectRatio="none" x="256" y="516" width="74" height="75" xlink:href="img/2.jpg"/>
</g>
<path d="M504.3,459.2V799" class="g2_487"/>
<g clip-path="url(#c2_487)">
<image clip-path="url(#c2_487)" preserveAspectRatio="none" x="397" y="513" width="52" height="53" xlink:href="img/3.jpg"/>
</g>
<g clip-path="url(#c3_487)">
<image clip-path="url(#c3_487)" preserveAspectRatio="none" x="570" y="486" width="52" height="53" xlink:href="img/4.jpg"/>
</g>
<g clip-path="url(#c4_487)">
<image clip-path="url(#c4_487)" preserveAspectRatio="none" x="273" y="437" width="29" height="41" xlink:href="img/5.jpg"/>
</g>
<g clip-path="url(#c5_487)">
<image clip-path="url(#c5_487)" preserveAspectRatio="none" x="757" y="412" width="27" height="57" xlink:href="img/6.jpg"/>
</g>
<g clip-path="url(#c6_487)">
<image clip-path="url(#c6_487)" preserveAspectRatio="none" x="700" y="416" width="70" height="67" xlink:href="img/7.jpg"/>
</g>
<path d="M321.3,644.5c0,-.3,-.1,-.6,-.3,-.8c-.3,-.4,-.7,-.6,-1.1,-.7c-.3,-.1,-.7,-.1,-1.1,-.1c-.7,0,-1.5,.1,-1.9,.1c-.9,0,-1.6,.4,-2,.6c-.4,.3,-.7,.4,-1.2,.5l.1,.8h.8c.1,-.7,.1,-1.5,.1,-2.2c0,-.5,0,-1,0,-1.5c-.1,-.6,-.3,-1.4,-.7,-2.2c-.1,-.3,-.3,-.7,-.6,-1c-.2,-.4,-.5,-.7,-.8,-.9c-.6,-.2,-1.1,-.3,-1.7,-.3c-1.1,0,-2.2,.2,-2.8,.2c-7.5,0,-15.1,0,-22.7,0h-.8v48.9h37.2v-.8l-.1,-41.3v-.2l-.1,-.2c0,0,-.9,-1.6,-2.4,-3.1c-.8,-.8,-1.7,-1.6,-2.7,-2.3c-1.1,-.6,-2.4,-1,-3.7,-1v1.5c1,0,2,.4,2.9,.9c1.3,.7,2.5,2,3.3,3c.4,.5,.7,.9,.9,1.3c.1,.1,.2,.3,.3,.3v.2l.7,-.4h-.8l.2,41.3h.8v-.8H285.4v.8h.8V637.8h-.8v.7c7.6,0,15.2,0,22.7,0c.8,0,1.9,-.1,2.8,-.1c.5,-.1,.9,0,.9,.1c.1,0,.2,.1,.4,.4c.2,.3,.5,.8,.6,1.2c.2,.5,.3,1,.3,1.2c.1,.4,.1,.9,.1,1.4c0,.7,0,1.4,-.1,2.1l-.1,1l1,-.2c.8,-.1,1.3,-.5,1.7,-.7c.4,-.2,.6,-.3,1.2,-.3c.6,-.1,1.3,-.2,1.9,-.2c.4,0,.8,.1,.9,.1l.1,.1l1.5,-.1Z" class="g3_487"/>
<image clip-path="url(#ca_487)" preserveAspectRatio="none" x="300" y="630" width="29" height="27" xlink:href="img/8.jpg"/>
<image clip-path="url(#cb_487)" preserveAspectRatio="none" x="300" y="636" width="22" height="21" xlink:href="img/9.jpg"/>
<image clip-path="url(#cc_487)" preserveAspectRatio="none" x="300" y="641" width="10" height="4" xlink:href="img/10.jpg"/>
<image clip-path="url(#cd_487)" preserveAspectRatio="none" x="300" y="641" width="10" height="4" xlink:href="img/11.jpg"/>
<image clip-path="url(#ce_487)" preserveAspectRatio="none" x="300" y="648" width="17" height="5" xlink:href="img/12.jpg"/>
<image clip-path="url(#cf_487)" preserveAspectRatio="none" x="300" y="648" width="17" height="5" xlink:href="img/13.jpg"/>
<image clip-path="url(#cg_487)" preserveAspectRatio="none" x="300" y="655" width="10" height="2" xlink:href="img/14.jpg"/>
<image clip-path="url(#ch_487)" preserveAspectRatio="none" x="300" y="655" width="10" height="2" xlink:href="img/15.jpg"/>
<path d="M312.6,637.9c.1,.2,.3,.3,.4,.5c.1,.4,.2,.8,.3,1.2c0,.2,.1,.3,.1,.5c0,.2,0,.4,0,.6c.1,.3,.1,.6,.2,1c0,.1,.1,.3,.1,.5c0,.1,0,.3,0,.4c.1,.4,-.1,.8,0,1.1c0,.2,.1,.2,.1,.4v.3c0,.3,.1,.5,.2,.8l.2,-.2l.3,-.2l.4,-.1l.4,-.1c.3,-.2,.6,-.2,.9,-.3c.5,-.1,1,-.1,1.5,-.2c.5,-.2,1.2,-.1,1.8,-.1c.3,0,.5,0,.7,0h.4l.3,-.1c-.2,-.3,-.4,-.7,-.6,-.9c-.2,-.4,-.6,-.7,-.9,-1.1c-.2,-.2,-.3,-.3,-.5,-.5c-.1,-.2,-.3,-.4,-.4,-.5c-.4,-.3,-.8,-.7,-1.2,-1c-.3,-.2,-.6,-.4,-.9,-.6c-.4,-.3,-1,-.6,-1.6,-.8c-.2,-.1,-.5,-.1,-.7,-.2l-.3,-.1c-.2,0,-.2,-.1,-.4,-.1c-.1,0,-.3,0,-.5,0c-.1,-.1,-.3,-.2,-.5,-.1h.1Z" class="g4_487"/>
<path d="M312.6,637.9c.1,.2,.3,.3,.4,.5c.1,.4,.2,.8,.3,1.2c0,.2,.1,.3,.1,.5c0,.2,0,.4,0,.6c.1,.3,.1,.6,.2,1c0,.1,.1,.3,.1,.5c0,.1,0,.3,0,.4c.1,.4,-.1,.8,0,1.1c0,.2,.1,.2,.1,.4v.3c0,.3,.1,.5,.2,.8l.2,-.2l.3,-.2l.4,-.1l.4,-.1c.3,-.2,.6,-.2,.9,-.3c.5,-.1,1,-.1,1.5,-.2c.5,-.2,1.2,-.1,1.8,-.1c.3,0,.5,0,.7,0h.4l.3,-.1c-.2,-.3,-.4,-.7,-.6,-.9c-.2,-.4,-.6,-.7,-.9,-1.1c-.2,-.2,-.3,-.3,-.5,-.5c-.1,-.2,-.3,-.4,-.4,-.5c-.4,-.3,-.8,-.7,-1.2,-1c-.3,-.2,-.6,-.4,-.9,-.6c-.4,-.3,-1,-.6,-1.6,-.8c-.2,-.1,-.5,-.1,-.7,-.2l-.3,-.1c-.2,0,-.2,-.1,-.4,-.1c-.1,0,-.3,0,-.5,0c-.1,-.1,-.3,-.2,-.5,-.1h.1" class="g5_487"/>
<path d="M436.3,648.3c-.1,-.3,-.2,-.6,-.4,-.9c-.2,-.3,-.6,-.5,-1,-.6c-.4,-.1,-.7,-.1,-1.1,-.1c-.8,0,-1.6,.1,-2,.1c-.9,0,-1.5,.3,-1.9,.6c-.5,.2,-.7,.4,-1.2,.5l.1,.7l.8,.1c0,-.7,.1,-1.5,.1,-2.3c0,-.5,-.1,-1,-.1,-1.5c-.1,-.6,-.3,-1.3,-.6,-2.1c-.2,-.4,-.4,-.7,-.6,-1.1c-.2,-.3,-.5,-.6,-.9,-.8c-.5,-.3,-1.1,-.3,-1.7,-.3c-1,0,-2.2,.2,-2.7,.2c-7.6,0,-15.2,0,-22.7,0h-.8v48.8h37.2v-.7l-.2,-41.3v-.2l-.1,-.2c0,0,-.8,-1.6,-2.3,-3.2c-.8,-.8,-1.7,-1.6,-2.8,-2.2c-1.1,-.6,-2.3,-1,-3.7,-1v1.5c1.1,0,2.1,.3,2.9,.8c1.4,.8,2.6,2,3.4,3c.4,.5,.7,1,.9,1.3c.1,.2,.2,.3,.2,.4l.1,.1l.7,-.3h-.8l.2,41.3h.7v-.8H400.4v.8h.7V641.5h-.7v.8c7.5,0,15.1,0,22.7,0c.8,0,1.9,-.2,2.7,-.2c.5,0,.9,.1,1,.2c0,0,.2,.1,.3,.3c.3,.3,.5,.8,.7,1.3c.2,.5,.3,.9,.3,1.2c0,.4,0,.9,0,1.3c0,.8,0,1.5,-.1,2.1l-.1,1l1,-.1c.8,-.1,1.4,-.5,1.7,-.7c.4,-.2,.6,-.3,1.3,-.4c.5,0,1.3,-.1,1.9,-.1c.4,0,.7,0,.8,.1l.1,.1l1.6,-.1Z" class="g3_487"/>
<image clip-path="url(#ci_487)" preserveAspectRatio="none" x="415" y="634" width="29" height="27" xlink:href="img/16.jpg"/>
<image clip-path="url(#cj_487)" preserveAspectRatio="none" x="415" y="640" width="22" height="21" xlink:href="img/17.jpg"/>
<image clip-path="url(#ck_487)" preserveAspectRatio="none" x="415" y="644" width="9" height="5" xlink:href="img/18.jpg"/>
<image clip-path="url(#cl_487)" preserveAspectRatio="none" x="415" y="644" width="9" height="5" xlink:href="img/19.jpg"/>
<image clip-path="url(#cm_487)" preserveAspectRatio="none" x="415" y="652" width="17" height="4" xlink:href="img/20.jpg"/>
<image clip-path="url(#cn_487)" preserveAspectRatio="none" x="415" y="652" width="17" height="4" xlink:href="img/21.jpg"/>
<image clip-path="url(#co_487)" preserveAspectRatio="none" x="415" y="659" width="9" height="2" xlink:href="img/22.jpg"/>
<image clip-path="url(#cp_487)" preserveAspectRatio="none" x="415" y="659" width="9" height="2" xlink:href="img/23.jpg"/>
<path d="M427.5,641.7c.1,.2,.3,.3,.4,.5c.2,.4,.3,.8,.3,1.2c.1,.1,.1,.3,.1,.5c0,.2,0,.3,.1,.5c.1,.4,.1,.7,.1,1c0,.2,.1,.3,.1,.5c0,.2,0,.3,.1,.5c0,.3,-.1,.7,0,1.1c0,.1,0,.2,.1,.3v.4c0,.3,.1,.5,.2,.7l.1,-.1l.4,-.2l.4,-.1l.3,-.2c.3,-.1,.6,-.2,.9,-.2c.5,-.2,1,-.1,1.5,-.3c.6,-.1,1.3,0,1.9,0c.2,0,.5,0,.7,0l.4,-.1l.2,-.1c-.1,-.3,-.3,-.6,-.5,-.9c-.3,-.4,-.7,-.7,-1,-1.1c-.1,-.2,-.3,-.3,-.4,-.5c-.1,-.1,-.3,-.3,-.5,-.4c-.4,-.3,-.7,-.8,-1.2,-1c-.3,-.2,-.6,-.4,-.8,-.6c-.5,-.4,-1.1,-.6,-1.6,-.8c-.3,-.1,-.5,-.1,-.8,-.2l-.3,-.1c-.1,0,-.2,-.1,-.3,-.1c-.2,-.1,-.4,0,-.5,-.1c-.2,0,-.3,-.2,-.5,-.1v.1Z" class="g4_487"/>
<path d="M427.5,641.7c.1,.2,.3,.3,.4,.5c.2,.4,.3,.8,.3,1.2c.1,.1,.1,.3,.1,.5c0,.2,0,.3,.1,.5c.1,.4,.1,.7,.1,1c0,.2,.1,.3,.1,.5c0,.2,0,.3,.1,.5c0,.3,-.1,.7,0,1.1c0,.1,0,.2,.1,.3v.4c0,.3,.1,.5,.2,.7l.1,-.1l.4,-.2l.4,-.1l.3,-.2c.3,-.1,.6,-.1,.9,-.2c.5,-.2,1,-.1,1.5,-.3c.6,-.1,1.3,0,1.9,0c.2,0,.5,0,.7,0l.4,-.1l.2,-.1c-.1,-.3,-.3,-.6,-.5,-.9c-.3,-.4,-.7,-.7,-1,-1.1c-.1,-.2,-.3,-.3,-.4,-.5c-.1,-.1,-.3,-.3,-.5,-.4c-.4,-.3,-.7,-.8,-1.2,-1c-.3,-.2,-.6,-.4,-.8,-.6c-.5,-.4,-1.1,-.6,-1.6,-.8c-.3,-.1,-.5,-.1,-.8,-.2l-.3,-.1c-.1,0,-.2,-.1,-.3,-.1c-.2,-.1,-.4,0,-.5,-.1c-.2,0,-.3,-.2,-.5,-.1v.1" class="g5_487"/>
<path d="M767.2,637.3c0,-.3,-.1,-.7,-.3,-.9c-.3,-.4,-.7,-.6,-1,-.7c-.4,0,-.8,-.1,-1.1,-.1c-.8,0,-1.6,.1,-2,.2c-.9,0,-1.5,.3,-2,.5c-.4,.3,-.6,.4,-1.1,.5l.1,.8l.7,.1c.1,-.8,.1,-1.5,.1,-2.3c0,-.5,0,-1,0,-1.5c-.1,-.6,-.3,-1.4,-.6,-2.1c-.2,-.4,-.4,-.8,-.6,-1.1c-.3,-.3,-.5,-.6,-.9,-.8c-.5,-.3,-1.1,-.3,-1.7,-.4c-1,.1,-2.2,.2,-2.7,.2c-7.6,0,-15.2,0,-22.8,0h-.7v48.9h37.2v-.8l-.2,-41.3v-.2l-.1,-.2c0,0,-.9,-1.5,-2.4,-3.1c-.7,-.8,-1.6,-1.6,-2.7,-2.2c-1.1,-.6,-2.3,-1.1,-3.7,-1.1v1.6c1.1,0,2,.3,2.9,.8c1.4,.8,2.5,2,3.3,3c.4,.5,.8,1,1,1.3c.1,.1,.2,.3,.2,.4l.1,.1l.6,-.4h-.7l.1,41.3h.8v-.7H731.3v.7h.8V630.5h-.8v.8c7.6,0,15.2,0,22.8,0c.7,0,1.8,-.2,2.7,-.2c.5,0,.9,.1,1,.1c0,0,.2,.2,.3,.4c.3,.3,.5,.8,.7,1.2c.1,.5,.3,1,.3,1.2c0,.5,0,.9,0,1.4c0,.7,0,1.4,-.1,2.1l-.1,1l1,-.2c.8,-.1,1.4,-.4,1.7,-.7c.4,-.2,.6,-.3,1.2,-.3c.6,0,1.3,-.1,2,-.1c.4,0,.7,0,.8,.1h.1v.1l1.5,-.1Z" class="g3_487"/>
<image clip-path="url(#cq_487)" preserveAspectRatio="none" x="746" y="623" width="29" height="27" xlink:href="img/24.jpg"/>
<image clip-path="url(#cr_487)" preserveAspectRatio="none" x="746" y="629" width="22" height="21" xlink:href="img/25.jpg"/>
<image clip-path="url(#cs_487)" preserveAspectRatio="none" x="746" y="633" width="9" height="5" xlink:href="img/26.jpg"/>
<image clip-path="url(#ct_487)" preserveAspectRatio="none" x="746" y="633" width="9" height="5" xlink:href="img/27.jpg"/>
<image clip-path="url(#cu_487)" preserveAspectRatio="none" x="746" y="641" width="17" height="4" xlink:href="img/28.jpg"/>
<image clip-path="url(#cv_487)" preserveAspectRatio="none" x="746" y="641" width="17" height="4" xlink:href="img/29.jpg"/>
<image clip-path="url(#cw_487)" preserveAspectRatio="none" x="746" y="648" width="9" height="2" xlink:href="img/30.jpg"/>
<image clip-path="url(#cx_487)" preserveAspectRatio="none" x="746" y="648" width="9" height="2" xlink:href="img/31.jpg"/>
<path d="M758.5,630.6c.1,.2,.3,.4,.4,.6c.2,.3,.3,.7,.3,1.1c.1,.2,.1,.4,.1,.5c0,.3,0,.4,.1,.6c.1,.3,0,.6,.1,1c0,.2,.1,.3,.1,.5c0,.1,0,.3,.1,.4c0,.4,-.1,.8,-.1,1.2c.1,.1,.1,.2,.1,.3v.4c0,.2,.2,.5,.2,.7l.2,-.1l.4,-.2l.4,-.2l.3,-.1c.3,-.2,.6,-.2,.9,-.3c.5,-.1,1,-.1,1.5,-.2c.6,-.2,1.3,-.1,1.9,-.1c.2,0,.4,0,.7,0h.4l.2,-.1c-.1,-.3,-.3,-.6,-.5,-.9c-.3,-.4,-.7,-.7,-1,-1.1c-.1,-.2,-.3,-.3,-.4,-.5c-.2,-.2,-.3,-.3,-.5,-.5c-.4,-.3,-.7,-.7,-1.2,-1c-.3,-.2,-.6,-.3,-.8,-.6c-.5,-.3,-1.1,-.6,-1.7,-.8c-.2,0,-.4,-.1,-.7,-.2h-.3c-.1,-.1,-.2,-.1,-.3,-.2c-.2,0,-.4,0,-.5,0c-.2,-.1,-.3,-.2,-.5,-.1v.1Z" class="g4_487"/>
<path d="M758.5,630.6c.1,.2,.3,.4,.4,.6c.2,.3,.3,.7,.3,1.1c.1,.2,.1,.4,.1,.5c0,.3,0,.4,.1,.6c.1,.3,0,.6,.1,1c0,.2,.1,.3,.1,.5c0,.1,0,.3,.1,.4c0,.4,-.1,.8,-.1,1.2c.1,.1,.1,.2,.1,.3v.4c0,.2,.2,.5,.2,.7l.2,-.1l.4,-.2l.4,-.2l.3,-.1c.3,-.2,.6,-.2,.9,-.3c.5,-.1,1,-.1,1.5,-.2c.6,-.2,1.3,-.1,1.9,-.1c.2,0,.4,0,.7,0h.4l.2,-.1c-.1,-.3,-.3,-.6,-.5,-.9c-.3,-.4,-.7,-.7,-1,-1.1c-.1,-.2,-.3,-.3,-.4,-.5c-.2,-.2,-.3,-.3,-.5,-.5c-.4,-.3,-.7,-.7,-1.2,-1c-.3,-.2,-.6,-.3,-.9,-.6c-.4,-.3,-1,-.6,-1.6,-.8c-.2,0,-.4,-.1,-.7,-.2h-.3c-.1,-.1,-.2,-.1,-.3,-.2c-.2,0,-.4,0,-.5,0c-.2,-.1,-.3,-.2,-.5,-.1v.1" class="g5_487"/>
<g clip-path="url(#c7_487)">
<image clip-path="url(#c7_487)" preserveAspectRatio="none" x="611" y="545" width="52" height="53" xlink:href="img/32.jpg"/>
</g>
<path d="M366.8,734.5c0,-.4,-.1,-.7,-.3,-.9c-.3,-.4,-.7,-.6,-1.1,-.7c-.3,-.1,-.7,-.1,-1.1,-.1c-.7,0,-1.5,.1,-1.9,.1c-.9,.1,-1.6,.3,-2,.6c-.4,.3,-.7,.4,-1.2,.5l.1,.8h.8c.1,-.7,.1,-1.4,.1,-2.2c0,-.5,0,-1,0,-1.5c-.1,-.6,-.3,-1.4,-.7,-2.2c-.1,-.3,-.3,-.7,-.6,-1c-.2,-.4,-.5,-.6,-.8,-.9c-.6,-.2,-1.1,-.3,-1.7,-.3c-1.1,0,-2.2,.2,-2.8,.2c-7.5,0,-15.1,0,-22.7,0h-.8v48.9h37.2V775l-.1,-41.3v-.2l-.1,-.2c0,0,-.9,-1.5,-2.4,-3.1c-.8,-.8,-1.7,-1.6,-2.7,-2.2c-1.1,-.7,-2.4,-1.1,-3.7,-1.1v1.5c1,0,2,.4,2.9,.9c1.3,.7,2.5,2,3.3,3c.4,.5,.7,.9,.9,1.3c.1,.1,.2,.3,.3,.3v.2l.7,-.4h-.8l.2,41.3h.8v-.8H330.9v.8h.8V727.7h-.8v.7c7.6,0,15.2,0,22.7,0c.8,0,1.9,-.1,2.8,-.1c.5,0,.8,0,.9,.1c.1,0,.2,.1,.4,.4c.2,.3,.5,.8,.6,1.2c.2,.5,.3,1,.3,1.2c.1,.4,.1,.9,.1,1.4c0,.7,-.1,1.4,-.1,2.1l-.1,1l1,-.2c.8,-.1,1.3,-.5,1.7,-.7c.4,-.2,.6,-.3,1.2,-.3c.6,-.1,1.3,-.2,1.9,-.2c.4,0,.8,.1,.9,.2h1.6Z" class="g3_487"/>
<image clip-path="url(#cy_487)" preserveAspectRatio="none" x="346" y="720" width="28" height="27" xlink:href="img/33.jpg"/>
<image clip-path="url(#cz_487)" preserveAspectRatio="none" x="346" y="726" width="21" height="21" xlink:href="img/34.jpg"/>
<image clip-path="url(#c10_487)" preserveAspectRatio="none" x="346" y="730" width="9" height="5" xlink:href="img/35.jpg"/>
<image clip-path="url(#c11_487)" preserveAspectRatio="none" x="346" y="730" width="9" height="5" xlink:href="img/36.jpg"/>
<image clip-path="url(#c12_487)" preserveAspectRatio="none" x="346" y="738" width="16" height="5" xlink:href="img/37.jpg"/>
<image clip-path="url(#c13_487)" preserveAspectRatio="none" x="346" y="738" width="16" height="5" xlink:href="img/38.jpg"/>
<image clip-path="url(#c14_487)" preserveAspectRatio="none" x="346" y="745" width="9" height="2" xlink:href="img/39.jpg"/>
<image clip-path="url(#c15_487)" preserveAspectRatio="none" x="346" y="745" width="9" height="2" xlink:href="img/40.jpg"/>
<path d="M358.1,727.8c.1,.2,.3,.3,.4,.5c.1,.4,.2,.8,.3,1.2c0,.2,.1,.3,.1,.5c0,.2,0,.4,0,.6c.1,.3,.1,.6,.2,1c0,.1,.1,.3,.1,.5c0,.1,0,.3,0,.4c.1,.4,-.1,.8,0,1.1c0,.2,.1,.2,.1,.4v.3c0,.3,.1,.5,.2,.8l.2,-.2l.3,-.2l.4,-.1l.4,-.1c.3,-.2,.6,-.2,.9,-.3c.5,-.1,1,-.1,1.5,-.2c.5,-.2,1.2,-.1,1.8,-.1c.3,0,.5,0,.7,0h.4l.3,-.1c-.2,-.3,-.4,-.6,-.6,-.9c-.2,-.4,-.6,-.7,-.9,-1.1c-.2,-.2,-.3,-.3,-.5,-.5c-.1,-.2,-.3,-.4,-.4,-.5c-.4,-.3,-.8,-.7,-1.2,-1c-.3,-.2,-.6,-.4,-.9,-.6c-.4,-.3,-1,-.6,-1.6,-.8c-.2,-.1,-.5,-.1,-.7,-.2l-.3,-.1c-.2,0,-.3,0,-.4,-.1c-.1,0,-.3,0,-.5,0c-.1,-.1,-.3,-.2,-.5,-.1l.1,.1Z" class="g4_487"/>
<path d="M358.1,727.8c.1,.2,.3,.3,.4,.5c.1,.4,.2,.8,.3,1.2c0,.2,.1,.3,.1,.5c0,.2,0,.4,0,.6c.1,.3,.1,.6,.2,1c0,.1,.1,.3,.1,.5c0,.1,0,.3,0,.4c.1,.4,-.1,.8,0,1.1c0,.2,.1,.2,.1,.4v.3c0,.3,.1,.5,.2,.8l.2,-.2l.3,-.2l.4,-.1l.4,-.1c.3,-.2,.6,-.2,.9,-.3c.5,-.1,1,-.1,1.5,-.2c.5,-.2,1.2,-.1,1.8,-.1c.3,0,.5,0,.7,0h.4l.3,-.1c-.2,-.3,-.4,-.6,-.6,-.9c-.2,-.4,-.6,-.7,-.9,-1.1c-.2,-.2,-.3,-.3,-.5,-.5c-.1,-.2,-.3,-.4,-.4,-.5c-.4,-.3,-.8,-.7,-1.2,-1c-.3,-.2,-.6,-.4,-.9,-.6c-.4,-.3,-1,-.6,-1.6,-.8c-.2,-.1,-.5,-.1,-.7,-.2l-.3,-.1c-.2,0,-.3,0,-.4,-.1c-.1,0,-.3,0,-.5,0c-.1,-.1,-.3,-.2,-.5,-.1l.1,.1" class="g5_487"/>
<path d="M768.3,725.7c0,-.3,-.1,-.6,-.3,-.8c-.3,-.4,-.7,-.6,-1,-.7c-.4,-.1,-.8,-.1,-1.1,-.1c-.8,0,-1.6,.1,-2,.1c-.9,0,-1.5,.3,-1.9,.6c-.5,.3,-.7,.4,-1.2,.5l.1,.8h.8c0,-.7,.1,-1.5,.1,-2.2c0,-.5,-.1,-1,-.1,-1.5c-.1,-.6,-.3,-1.4,-.6,-2.2c-.2,-.3,-.4,-.7,-.6,-1c-.3,-.4,-.5,-.7,-.9,-.9c-.5,-.2,-1.1,-.3,-1.7,-.3c-1,0,-2.2,.2,-2.7,.2c-7.6,0,-15.2,0,-22.8,0h-.7v48.9h37.2v-.8L768.7,725v-.2l-.1,-.2c0,0,-.9,-1.6,-2.4,-3.1c-.7,-.8,-1.6,-1.6,-2.7,-2.3c-1.1,-.6,-2.3,-1,-3.7,-1v1.5c1.1,0,2,.3,2.9,.9c1.4,.7,2.6,1.9,3.4,3c.3,.5,.7,.9,.9,1.2c.1,.2,.2,.3,.2,.4l.1,.1v.1l.6,-.4h-.7l.2,41.3h.7v-.8H732.4v.8h.8V719h-.8v.7c7.6,0,15.2,0,22.8,0c.7,0,1.8,-.2,2.7,-.1c.5,-.1,.9,0,1,.1c0,0,.2,.1,.3,.3c.3,.4,.5,.8,.7,1.3c.2,.5,.3,1,.3,1.2c0,.4,0,.9,0,1.4c0,.7,0,1.4,-.1,2.1l-.1,1l1,-.2c.8,-.1,1.4,-.5,1.7,-.7c.4,-.2,.6,-.3,1.2,-.3c.6,-.1,1.4,-.2,2,-.2c.4,0,.7,.1,.8,.1l.1,.1l1.5,-.1Z" class="g3_487"/>
<image clip-path="url(#c16_487)" preserveAspectRatio="none" x="747" y="711" width="29" height="28" xlink:href="img/41.jpg"/>
<image clip-path="url(#c17_487)" preserveAspectRatio="none" x="747" y="718" width="22" height="21" xlink:href="img/42.jpg"/>
<image clip-path="url(#c18_487)" preserveAspectRatio="none" x="747" y="722" width="10" height="4" xlink:href="img/43.jpg"/>
<image clip-path="url(#c19_487)" preserveAspectRatio="none" x="747" y="722" width="10" height="4" xlink:href="img/44.jpg"/>
<image clip-path="url(#c1a_487)" preserveAspectRatio="none" x="747" y="729" width="17" height="5" xlink:href="img/45.jpg"/>
<image clip-path="url(#c1b_487)" preserveAspectRatio="none" x="747" y="729" width="17" height="5" xlink:href="img/46.jpg"/>
<image clip-path="url(#c1c_487)" preserveAspectRatio="none" x="747" y="736" width="10" height="3" xlink:href="img/47.jpg"/>
<image clip-path="url(#c1d_487)" preserveAspectRatio="none" x="747" y="736" width="10" height="3" xlink:href="img/48.jpg"/>
<path d="M759.6,719.1c.1,.2,.3,.3,.4,.5c.2,.4,.3,.8,.3,1.2c.1,.2,.1,.3,.1,.5c0,.2,0,.4,.1,.6c.1,.3,0,.6,.1,1c0,.1,.1,.3,.1,.4c0,.2,0,.4,.1,.5c0,.4,-.1,.8,0,1.1q0,.2,0,.4v.3c0,.3,.2,.5,.2,.8l.2,-.2l.4,-.2l.4,-.1l.3,-.2c.3,-.1,.6,-.1,.9,-.2c.5,-.1,1,-.1,1.5,-.2c.6,-.2,1.3,-.1,1.9,-.1c.2,0,.5,0,.7,0l.4,-.1l.2,-.1c-.1,-.2,-.3,-.6,-.5,-.8c-.3,-.4,-.7,-.8,-1,-1.2c-.1,-.1,-.3,-.3,-.4,-.4c-.1,-.2,-.3,-.4,-.5,-.5c-.4,-.3,-.7,-.7,-1.2,-1c-.3,-.2,-.6,-.4,-.8,-.6c-.5,-.3,-1.1,-.6,-1.6,-.8c-.3,-.1,-.5,-.1,-.8,-.2l-.3,-.1c-.1,0,-.2,-.1,-.3,-.1c-.2,0,-.4,0,-.5,-.1c-.2,0,-.3,-.1,-.5,0Z" class="g4_487"/>
<path d="M759.6,719.1c.1,.2,.3,.3,.4,.5c.2,.4,.3,.8,.3,1.2c.1,.2,.1,.3,.1,.5c0,.2,0,.4,.1,.6c.1,.3,0,.6,.1,1c0,.1,.1,.3,.1,.4c0,.2,0,.4,.1,.5c0,.4,-.1,.8,0,1.1q0,.2,0,.4v.3c0,.3,.2,.5,.2,.8l.2,-.2l.4,-.2l.4,-.1l.3,-.2c.3,-.1,.6,-.1,.9,-.2c.5,-.1,1,-.1,1.5,-.2c.6,-.2,1.3,-.1,1.9,-.1c.2,0,.5,0,.7,0l.4,-.1l.2,-.1c-.1,-.2,-.3,-.6,-.5,-.8c-.3,-.4,-.7,-.8,-1,-1.2c-.1,-.1,-.3,-.3,-.4,-.4c-.1,-.2,-.3,-.4,-.5,-.5c-.4,-.3,-.7,-.7,-1.2,-1c-.3,-.2,-.6,-.4,-.8,-.6c-.5,-.3,-1.1,-.6,-1.6,-.8c-.3,-.1,-.5,-.1,-.8,-.2l-.3,-.1c-.1,0,-.2,-.1,-.3,-.1c-.2,0,-.4,0,-.5,-.1c-.2,0,-.3,-.1,-.5,0" class="g5_487"/>
<path d="M605.4,635.6c-.1,-.3,-.2,-.6,-.4,-.8c-.3,-.4,-.6,-.6,-1,-.7c-.4,-.1,-.7,-.1,-1.1,-.1c-.8,0,-1.6,.1,-2,.1c-.9,0,-1.5,.3,-1.9,.6c-.5,.3,-.7,.4,-1.2,.5l.1,.8h.8c0,-.7,.1,-1.5,.1,-2.2c0,-.5,0,-1,-.1,-1.5c0,-.6,-.3,-1.4,-.6,-2.2c-.2,-.4,-.4,-.7,-.6,-1c-.2,-.4,-.5,-.7,-.9,-.9c-.5,-.2,-1.1,-.3,-1.7,-.3c-1,0,-2.2,.2,-2.7,.2c-7.6,0,-15.2,0,-22.7,0h-.8v48.8h37.2v-.7l-.2,-41.3v-.2l-.1,-.2c0,0,-.8,-1.6,-2.3,-3.2c-.8,-.7,-1.7,-1.5,-2.8,-2.2c-1.1,-.6,-2.3,-1,-3.7,-1v1.5c1.1,0,2.1,.3,3,.9c1.3,.7,2.5,1.9,3.3,3c.4,.5,.7,.9,.9,1.2c.1,.2,.2,.3,.2,.4l.1,.1v.1l.7,-.4h-.8l.2,41.3h.7v-.8H569.5v.8h.7V628.9h-.7v.7c7.5,0,15.1,0,22.7,0c.8,0,1.9,-.2,2.7,-.1c.5,-.1,.9,0,1,.1c0,0,.2,.1,.4,.3c.2,.4,.4,.8,.6,1.3c.2,.5,.3,1,.3,1.2c0,.4,0,.9,0,1.4c0,.7,0,1.4,-.1,2.1l-.1,1l1,-.2c.8,-.1,1.4,-.5,1.7,-.7c.4,-.2,.6,-.3,1.3,-.3c.5,-.1,1.3,-.2,1.9,-.2c.4,0,.7,.1,.8,.1l.1,.1l1.6,-.1Z" class="g3_487"/>
<image clip-path="url(#c1e_487)" preserveAspectRatio="none" x="584" y="621" width="29" height="27" xlink:href="img/49.jpg"/>
<image clip-path="url(#c1f_487)" preserveAspectRatio="none" x="584" y="628" width="22" height="20" xlink:href="img/50.jpg"/>
<image clip-path="url(#c1g_487)" preserveAspectRatio="none" x="584" y="632" width="10" height="4" xlink:href="img/51.jpg"/>
<image clip-path="url(#c1h_487)" preserveAspectRatio="none" x="584" y="632" width="10" height="4" xlink:href="img/52.jpg"/>
<image clip-path="url(#c1i_487)" preserveAspectRatio="none" x="584" y="639" width="17" height="5" xlink:href="img/53.jpg"/>
<image clip-path="url(#c1j_487)" preserveAspectRatio="none" x="584" y="639" width="17" height="5" xlink:href="img/54.jpg"/>
<image clip-path="url(#c1k_487)" preserveAspectRatio="none" x="584" y="646" width="10" height="2" xlink:href="img/55.jpg"/>
<image clip-path="url(#c1l_487)" preserveAspectRatio="none" x="584" y="646" width="10" height="2" xlink:href="img/56.jpg"/>
<path d="M596.6,629c.1,.2,.3,.3,.4,.5c.2,.4,.3,.8,.3,1.2c.1,.2,.1,.3,.1,.5c.1,.2,0,.3,.1,.5c.1,.4,.1,.7,.1,1.1c0,.1,.1,.3,.1,.4c0,.2,.1,.3,.1,.5c0,.4,-.1,.8,0,1.1c0,.1,.1,.2,.1,.4v.3c0,.3,.1,.5,.2,.8l.1,-.2l.4,-.2l.4,-.1l.4,-.2c.2,-.1,.6,-.1,.9,-.2c.4,-.1,1,-.1,1.4,-.2c.6,-.2,1.3,-.1,1.9,-.1c.2,0,.5,0,.7,0l.4,-.1l.2,-.1c-.1,-.3,-.3,-.6,-.5,-.8c-.3,-.4,-.7,-.8,-1,-1.2c-.1,-.1,-.3,-.3,-.4,-.4c-.1,-.2,-.3,-.4,-.5,-.5c-.4,-.3,-.7,-.7,-1.1,-1c-.3,-.2,-.6,-.4,-.9,-.6c-.5,-.3,-1.1,-.6,-1.6,-.8c-.3,-.1,-.5,-.1,-.8,-.2l-.3,-.1c-.1,0,-.2,-.1,-.3,-.1c-.2,0,-.4,0,-.5,-.1c-.2,0,-.3,-.1,-.5,0Z" class="g4_487"/>
<path d="M596.6,629c.1,.2,.3,.3,.4,.5c.2,.4,.3,.8,.3,1.2c.1,.2,.1,.3,.1,.5c.1,.2,0,.3,.1,.5c.1,.4,.1,.7,.1,1.1c0,.1,.1,.3,.1,.4c0,.2,.1,.3,.1,.5c0,.4,-.1,.8,0,1.1c0,.1,.1,.2,.1,.4v.3c0,.3,.1,.5,.2,.8l.1,-.2l.4,-.2l.4,-.1l.4,-.2c.2,-.1,.6,-.1,.9,-.2c.4,-.1,1,-.1,1.4,-.2c.6,-.2,1.3,-.1,1.9,-.1c.2,0,.5,0,.7,0l.4,-.1l.2,-.1c-.1,-.3,-.3,-.6,-.5,-.8c-.3,-.4,-.7,-.8,-1,-1.2c-.1,-.1,-.3,-.3,-.4,-.4c-.1,-.2,-.3,-.4,-.5,-.5c-.4,-.3,-.7,-.7,-1.1,-1c-.3,-.2,-.6,-.4,-.9,-.6c-.5,-.3,-1.1,-.6,-1.6,-.8c-.3,-.1,-.5,-.1,-.8,-.2l-.3,-.1c-.1,0,-.2,-.1,-.3,-.1c-.2,0,-.3,0,-.5,-.1c-.2,0,-.3,-.1,-.5,0" class="g5_487"/>
<path d="M605.4,716c-.1,-.3,-.2,-.6,-.4,-.9c-.3,-.3,-.6,-.5,-1,-.6c-.4,-.1,-.7,-.1,-1.1,-.1c-.8,0,-1.6,.1,-2,.1c-.9,0,-1.5,.3,-1.9,.6c-.5,.2,-.7,.4,-1.2,.5l.1,.7l.8,.1c0,-.7,.1,-1.5,.1,-2.2c0,-.6,0,-1.1,-.1,-1.5c0,-.7,-.3,-1.4,-.6,-2.2c-.2,-.4,-.4,-.7,-.6,-1.1c-.2,-.3,-.5,-.6,-.9,-.8c-.5,-.3,-1.1,-.3,-1.7,-.3c-1,0,-2.2,.2,-2.7,.2c-7.6,0,-15.2,0,-22.7,0h-.8v48.8h37.2v-.7l-.2,-41.3v-.2l-.1,-.2c0,0,-.8,-1.6,-2.3,-3.2c-.8,-.8,-1.7,-1.6,-2.8,-2.2c-1.1,-.6,-2.3,-1,-3.7,-1V710c1.1,0,2.1,.3,3,.9c1.3,.7,2.5,1.9,3.3,2.9c.4,.5,.7,1,.9,1.3c.1,.2,.2,.3,.2,.4l.1,.1l.7,-.3h-.8l.2,41.3h.7v-.8H569.5v.8h.7V709.2h-.7v.8c7.5,0,15.1,0,22.7,0c.8,0,1.9,-.2,2.7,-.2c.5,0,.9,.1,1,.2c0,0,.2,.1,.4,.3c.2,.3,.4,.8,.6,1.3c.2,.5,.3,.9,.3,1.2c0,.4,0,.9,0,1.4c0,.7,0,1.4,-.1,2.1l-.1,.9l1,-.1c.8,-.1,1.4,-.5,1.7,-.7c.4,-.2,.6,-.3,1.3,-.4c.5,0,1.3,-.1,1.9,-.1c.4,0,.7,.1,.8,.1l.1,.1l1.6,-.1Z" class="g3_487"/>
<image clip-path="url(#c1m_487)" preserveAspectRatio="none" x="584" y="701" width="29" height="28" xlink:href="img/57.jpg"/>
<image clip-path="url(#c1n_487)" preserveAspectRatio="none" x="584" y="708" width="22" height="21" xlink:href="img/58.jpg"/>
<image clip-path="url(#c1o_487)" preserveAspectRatio="none" x="584" y="712" width="10" height="5" xlink:href="img/59.jpg"/>
<image clip-path="url(#c1p_487)" preserveAspectRatio="none" x="584" y="712" width="10" height="5" xlink:href="img/60.jpg"/>
<image clip-path="url(#c1q_487)" preserveAspectRatio="none" x="584" y="719" width="17" height="5" xlink:href="img/61.jpg"/>
<image clip-path="url(#c1r_487)" preserveAspectRatio="none" x="584" y="719" width="17" height="5" xlink:href="img/62.jpg"/>
<image clip-path="url(#c1s_487)" preserveAspectRatio="none" x="584" y="727" width="10" height="2" xlink:href="img/63.jpg"/>
<image clip-path="url(#c1t_487)" preserveAspectRatio="none" x="584" y="727" width="10" height="2" xlink:href="img/64.jpg"/>
<path d="M596.6,709.4c.1,.2,.3,.3,.4,.5c.2,.4,.3,.8,.3,1.2c.1,.1,.1,.3,.1,.5c.1,.2,0,.3,.1,.5c.1,.4,.1,.7,.1,1c0,.2,.1,.4,.1,.5c0,.2,.1,.3,.1,.5c0,.3,-.1,.7,0,1.1c0,.1,.1,.2,.1,.4v.3c0,.3,.1,.5,.2,.7l.1,-.1l.4,-.2l.4,-.1l.4,-.2c.2,-.1,.6,-.1,.9,-.2c.4,-.2,1,-.1,1.4,-.3c.6,-.1,1.3,0,1.9,0c.2,0,.5,0,.7,0l.4,-.1l.2,-.1c-.1,-.3,-.3,-.6,-.5,-.8c-.3,-.4,-.7,-.8,-1,-1.2c-.1,-.2,-.3,-.3,-.4,-.5c-.1,-.1,-.3,-.3,-.5,-.4c-.4,-.3,-.7,-.8,-1.1,-1c-.3,-.2,-.6,-.4,-.9,-.6c-.5,-.3,-1.1,-.6,-1.6,-.8c-.3,-.1,-.5,-.1,-.8,-.2l-.3,-.1c-.1,0,-.2,-.1,-.3,-.1c-.2,-.1,-.4,0,-.5,-.1c-.2,0,-.3,-.1,-.5,-.1v.1Z" class="g4_487"/>
<path d="M596.6,709.4c.1,.2,.3,.3,.4,.5c.2,.4,.3,.8,.3,1.2c.1,.1,.1,.3,.1,.5c.1,.2,0,.3,.1,.5c.1,.4,.1,.7,.1,1c0,.2,.1,.4,.1,.5c0,.2,.1,.3,.1,.5c0,.3,-.1,.7,0,1.1c0,.1,.1,.2,.1,.4v.3c0,.3,.1,.5,.2,.7l.1,-.1l.4,-.2l.4,-.1l.4,-.2c.2,-.1,.6,-.1,.9,-.2c.4,-.2,1,-.1,1.4,-.3c.6,-.1,1.3,0,1.9,0c.2,0,.5,0,.7,0l.4,-.1l.2,-.1c-.1,-.3,-.3,-.6,-.5,-.8c-.3,-.4,-.7,-.8,-1,-1.2c-.1,-.2,-.3,-.3,-.4,-.5c-.1,-.1,-.3,-.3,-.5,-.4c-.4,-.3,-.7,-.8,-1.1,-1c-.3,-.2,-.6,-.4,-.9,-.6c-.5,-.3,-1.1,-.6,-1.6,-.8c-.3,-.1,-.5,-.1,-.8,-.2l-.3,-.1c-.1,0,-.2,-.1,-.3,-.1c-.2,-.1,-.3,0,-.5,-.1c-.2,0,-.3,-.1,-.5,-.1v.1" class="g5_487"/>
<g clip-path="url(#c8_487)">
<image clip-path="url(#c8_487)" preserveAspectRatio="none" x="719" y="105" width="91" height="30" xlink:href="img/65.jpg"/>
</g>
<g clip-path="url(#c1u_487)">
<image clip-path="url(#c9_487)" preserveAspectRatio="none" x="91" y="105" width="102" height="129" xlink:href="img/66.jpg"/>
</g>
<g clip-path="url(#c1v_487)">
<path d="M-4.5,13.7H-27.4m939.5,0H935M-4.5,1031.2H-27.4m939.5,0H935M13.7,-4.5V-27.4m0,1077v22.9m880,-1077V-27.4m0,1077v22.9" class="g6_487"/>
<path d="M-4.5,13.7H-27.4m939.5,0H935M-4.5,1031.2H-27.4m939.5,0H935M13.7,-4.5V-27.4m0,1077v22.9m880,-1077V-27.4m0,1077v22.9" class="g7_487"/>
</g>
</svg>