<?xml version="1.0" encoding="UTF-8" standalone="no"?>
<!DOCTYPE svg PUBLIC "-//W3C//DTD SVG 1.1//EN"
"http://www.w3.org/Graphics/SVG/1.1/DTD/svg11.dtd">
<svg viewBox="0 0 770 1017" version="1.1" xmlns="http://www.w3.org/2000/svg" xmlns:xlink="http://www.w3.org/1999/xlink">
<defs>
<clipPath id="c0_209"><path d="M512.2,209.1l1.9,-9.7l-3.4,7.3l-.4,-8.1l-2,9.7l3.9,.8Zm18.1,-90.5l1.9,-9.7l-3.8,-.8l-1.9,9.7l3.4,-7.2l.4,8ZM173.9,285.8V102.4h440V285.8Z"/></clipPath>
<style type="text/css"><![CDATA[
.g0_209{
fill: none;
stroke: #000000;
stroke-width: 0.618;
stroke-linecap: butt;
stroke-linejoin: miter;
}
.g1_209{
fill: none;
stroke: #000000;
stroke-width: 0.491;
stroke-linecap: butt;
stroke-linejoin: miter;
}
.g2_209{
stroke: #000000;
stroke-width: 0.491;
stroke-linecap: butt;
stroke-linejoin: miter;
}
.g3_209{
fill: none;
stroke: #000000;
stroke-width: 0.982;
stroke-linecap: butt;
stroke-linejoin: miter;
stroke-dasharray: 1,3;
}
.g4_209{
fill: none;
stroke: #000000;
stroke-width: 0.491;
stroke-linecap: butt;
stroke-linejoin: miter;
stroke-dasharray: 3;
}
.g5_209{
}
]]></style>
</defs>
<path d="M74.2,69.2H713.5" class="g0_209"/>
<path d="M481,148.8l14.7,19.7M338.5,212.7l-14.7,9.8l-19.7,4.9v4.9M210.8,148.8l14.7,19.7" class="g1_209"/>
<path clip-path="url(#c0_209)" d="M530.1,109.5l-19.6,98.3" class="g1_209"/>
<path fill-rule="evenodd" d="M530.3,118.6l-.4,-8l-3.4,7.2l3.8,.8Z" class="g2_209"/>
<path fill-rule="evenodd" d="M510.3,198.6l.4,8.1l3.4,-7.3l-3.8,-.8Z" class="g2_209"/>
<path d="M495.7,168.5l49.2,34.4l29.4,24.5L594,222.5l14.7,-9.8V158.6L544.9,124.3" class="g3_209"/>
<path d="M225.2,168.5h.6M205.9,148.8l34.4,-19.6" class="g1_209"/>
<path d="M240.3,129.2l34.3,-4.9" class="g4_209"/>
<path d="M495.5,168.5h.5M476.1,148.8l34.4,-19.6" class="g1_209"/>
<path d="M510.5,129.2l34.4,-4.9" class="g4_209"/>
<path fill-rule="evenodd" d="M547.8,201.9c0,2.1,-1.7,3.9,-3.9,3.9c-2.2,0,-3.9,-1.8,-3.9,-3.9c0,-2.2,1.7,-4,3.9,-4c2.2,0,3.9,1.8,3.9,4Z" class="g2_209"/>
<path fill-rule="evenodd" d="M182.3,178.3c0,2.2,-1.8,3.9,-4,3.9c-2.1,0,-3.9,-1.7,-3.9,-3.9c0,-2.2,1.8,-3.9,3.9,-3.9c2.2,0,4,1.7,4,3.9Z" class="g5_209"/>
<path d="M182.3,178.3c0,2.2,-1.8,3.9,-4,3.9c-2.1,0,-3.9,-1.7,-3.9,-3.9c0,-2.2,1.8,-3.9,3.9,-3.9c2.2,0,4,1.7,4,3.9Z" class="g1_209"/>
<path fill-rule="evenodd" d="M213.7,147.8c0,2.2,-1.8,4,-3.9,4c-2.2,0,-4,-1.8,-4,-4c0,-2.1,1.8,-3.9,4,-3.9c2.1,0,3.9,1.8,3.9,3.9Z" class="g2_209"/>
<path fill-rule="evenodd" d="M243.2,128.2c0,2.2,-1.8,3.9,-3.9,3.9c-2.2,0,-4,-1.7,-4,-3.9c0,-2.2,1.8,-3.9,4,-3.9c2.1,0,3.9,1.7,3.9,3.9Z" class="g2_209"/>
<path fill-rule="evenodd" d="M228.5,167.5c0,2.2,-1.8,3.9,-4,3.9c-2.1,0,-3.9,-1.7,-3.9,-3.9c0,-2.2,1.8,-3.9,3.9,-3.9c2.2,0,4,1.7,4,3.9Z" class="g2_209"/>
<path fill-rule="evenodd" d="M203.9,212.7c0,2.2,-1.8,3.9,-3.9,3.9c-2.2,0,-4,-1.7,-4,-3.9c0,-2.2,1.8,-3.9,4,-3.9c2.1,0,3.9,1.7,3.9,3.9Z" class="g2_209"/>
<path fill-rule="evenodd" d="M341.5,159.6c0,2.2,-1.8,4,-4,4c-2.1,0,-3.9,-1.8,-3.9,-4c0,-2.1,1.8,-3.9,3.9,-3.9c2.2,0,4,1.8,4,3.9Z" class="g2_209"/>
<path fill-rule="evenodd" d="M342.5,212.7c0,2.2,-1.8,3.9,-4,3.9c-2.1,0,-3.9,-1.7,-3.9,-3.9c0,-2.2,1.8,-3.9,3.9,-3.9c2.2,0,4,1.7,4,3.9Z" class="g2_209"/>
<path fill-rule="evenodd" d="M327.7,222.5c0,2.2,-1.8,4,-3.9,4c-2.2,0,-4,-1.8,-4,-4c0,-2.1,1.8,-3.9,4,-3.9c2.1,0,3.9,1.8,3.9,3.9Z" class="g2_209"/>
<path fill-rule="evenodd" d="M308.1,227.4c0,2.2,-1.8,4,-4,4c-2.1,0,-3.9,-1.8,-3.9,-4c0,-2.1,1.8,-3.9,3.9,-3.9c2.2,0,4,1.8,4,3.9Z" class="g2_209"/>
<path fill-rule="evenodd" d="M277.6,123.3c0,2.1,-1.8,3.9,-3.9,3.9c-2.2,0,-4,-1.8,-4,-3.9c0,-2.2,1.8,-4,4,-4c2.1,0,3.9,1.8,3.9,4Z" class="g2_209"/>
<path fill-rule="evenodd" d="M277.6,201.9c0,2.1,-1.8,3.9,-3.9,3.9c-2.2,0,-4,-1.8,-4,-3.9c0,-2.2,1.8,-4,4,-4c2.1,0,3.9,1.8,3.9,4Z" class="g2_209"/>
<path fill-rule="evenodd" d="M452.5,178.3c0,2.2,-1.8,3.9,-3.9,3.9c-2.2,0,-4,-1.7,-4,-3.9c0,-2.2,1.8,-3.9,4,-3.9c2.1,0,3.9,1.7,3.9,3.9Z" class="g2_209"/>
<path fill-rule="evenodd" d="M483.9,147.8c0,2.2,-1.7,4,-3.9,4c-2.2,0,-3.9,-1.8,-3.9,-4c0,-2.1,1.7,-3.9,3.9,-3.9c2.2,0,3.9,1.8,3.9,3.9Z" class="g2_209"/>
<path fill-rule="evenodd" d="M513.4,128.2c0,2.2,-1.7,3.9,-3.9,3.9c-2.2,0,-3.9,-1.7,-3.9,-3.9c0,-2.2,1.7,-3.9,3.9,-3.9c2.2,0,3.9,1.7,3.9,3.9Z" class="g2_209"/>
<path fill-rule="evenodd" d="M498.7,167.5c0,2.2,-1.8,3.9,-4,3.9c-2.1,0,-3.9,-1.7,-3.9,-3.9c0,-2.2,1.8,-3.9,3.9,-3.9c2.2,0,4,1.7,4,3.9Z" class="g2_209"/>
<path fill-rule="evenodd" d="M474.1,212.7c0,2.2,-1.7,3.9,-3.9,3.9c-2.2,0,-3.9,-1.7,-3.9,-3.9c0,-2.2,1.7,-3.9,3.9,-3.9c2.2,0,3.9,1.7,3.9,3.9Z" class="g2_209"/>
<path fill-rule="evenodd" d="M611.7,159.6c0,2.2,-1.8,4,-4,4c-2.1,0,-3.9,-1.8,-3.9,-4c0,-2.1,1.8,-3.9,3.9,-3.9c2.2,0,4,1.8,4,3.9Z" class="g5_209"/>
<path d="M611.7,159.6c0,2.2,-1.8,4,-4,4c-2.1,0,-3.9,-1.8,-3.9,-4c0,-2.1,1.8,-3.9,3.9,-3.9c2.2,0,4,1.8,4,3.9Z" class="g1_209"/>
<path fill-rule="evenodd" d="M612.7,212.7c0,2.2,-1.8,3.9,-4,3.9c-2.1,0,-3.9,-1.7,-3.9,-3.9c0,-2.2,1.8,-3.9,3.9,-3.9c2.2,0,4,1.7,4,3.9Z" class="g5_209"/>
<path d="M612.7,212.7c0,2.2,-1.8,3.9,-4,3.9c-2.1,0,-3.9,-1.7,-3.9,-3.9c0,-2.2,1.8,-3.9,3.9,-3.9c2.2,0,4,1.7,4,3.9Z" class="g1_209"/>
<path fill-rule="evenodd" d="M597.9,222.5c0,2.2,-1.7,4,-3.9,4c-2.2,0,-3.9,-1.8,-3.9,-4c0,-2.1,1.7,-3.9,3.9,-3.9c2.2,0,3.9,1.8,3.9,3.9Z" class="g2_209"/>
<path fill-rule="evenodd" d="M578.3,227.4c0,2.2,-1.8,4,-4,4c-2.1,0,-3.9,-1.8,-3.9,-4c0,-2.1,1.8,-3.9,3.9,-3.9c2.2,0,4,1.8,4,3.9Z" class="g2_209"/>
<path fill-rule="evenodd" d="M547.8,123.3c0,2.1,-1.7,3.9,-3.9,3.9c-2.2,0,-3.9,-1.8,-3.9,-3.9c0,-2.2,1.7,-4,3.9,-4c2.2,0,3.9,1.8,3.9,4Z" class="g2_209"/>
<path d="M83.4,338.8h621" class="g0_209"/>
</svg>