<?xml version="1.0" encoding="UTF-8" standalone="no"?>
<!DOCTYPE svg PUBLIC "-//W3C//DTD SVG 1.1//EN"
"http://www.w3.org/Graphics/SVG/1.1/DTD/svg11.dtd">
<svg viewBox="0 0 931 1096" version="1.1" xmlns="http://www.w3.org/2000/svg" xmlns:xlink="http://www.w3.org/1999/xlink">
<defs>
<clipPath id="c0_106"><path d="M51.4,1038V857.7H256.1V1038Z"/></clipPath>
<style type="text/css"><![CDATA[
.g0_106{
fill: none;
stroke: #241F1F;
stroke-width: 0.763;
stroke-miterlimit: 10;
}
.g1_106{
fill: #FFF;
}
.g2_106{
fill: none;
stroke: #00AEEF;
stroke-width: 0.763;
}
]]></style>
</defs>
<path d="M687,161.4h18.3M550.4,219.5h18.4m72.1,0h12.2M498.4,465.4h12.2m-12.2,97.8h12.2m-12.2,73.3h12.2M371,712.7h12.2m124.4,0h12.2m163.7,0h12.2M371.4,763.1h12.2" class="g0_106"/>
<path d="M290.7,893.7c0,0,-3.1,0,-3.1,3.1v140.3c0,0,0,3,3.1,3H820.1c0,0,3,0,3,-3V896.8c0,0,0,-3.1,-3,-3.1Z" class="g1_106"/>
<path d="M464.9,949.5h25.3" class="g0_106"/>
<path d="M290.7,893.7c0,0,-3.1,0,-3.1,3.1v140.3c0,0,0,3,3.1,3H820.1c0,0,3,0,3,-3V896.8c0,0,0,-3.1,-3,-3.1H290.7Z" class="g2_106"/>
<image clip-path="url(#c0_106)" preserveAspectRatio="none" x="51" y="858" width="205" height="180" xlink:href="img/1.png"/>
</svg>