<?xml version="1.0" encoding="UTF-8" standalone="no"?>
<!DOCTYPE svg PUBLIC "-//W3C//DTD SVG 1.1//EN"
"http://www.w3.org/Graphics/SVG/1.1/DTD/svg11.dtd">
<svg viewBox="0 0 907 1045" version="1.1" xmlns="http://www.w3.org/2000/svg" xmlns:xlink="http://www.w3.org/1999/xlink">
<defs>
<clipPath id="c0_64"><path d="M234.3,627.8V316.3h469V627.8Z"/></clipPath>
<clipPath id="c1_64"><path d="M-2.6,1047.7V-2.6H910.2V1047.7Z"/></clipPath>
<style type="text/css"><![CDATA[
.g0_64{
fill: #FFFFFF;
}
.g1_64{
fill: none;
stroke: #000000;
stroke-width: 1.527;
stroke-linecap: butt;
stroke-linejoin: miter;
stroke-miterlimit: 4;
}
.g2_64{
fill: none;
stroke: #000000;
stroke-width: 1.145;
stroke-linecap: butt;
stroke-linejoin: miter;
stroke-miterlimit: 4;
}
.g3_64{
fill: none;
stroke: #000000;
stroke-width: 0.763;
stroke-linecap: butt;
stroke-linejoin: miter;
stroke-miterlimit: 4;
}
.g4_64{
fill: none;
stroke: #FFFFFF;
stroke-width: 1.909;
stroke-linecap: butt;
stroke-linejoin: miter;
}
.g5_64{
fill: none;
stroke: #000000;
stroke-width: 0.381;
stroke-linecap: butt;
stroke-linejoin: miter;
}
]]></style>
</defs>
<image clip-path="url(#c0_64)" preserveAspectRatio="none" x="234" y="316" width="469" height="312" xlink:href="img/1.jpg"/>
<path d="M131.4,244.5c-3.5,1.2,-6.7,3.5,-9.9,4.8c-3.4,1.4,-5.4,1,-8.8,4.3c-2.5,2.4,-3,4.4,-6.5,5.4c-1,5.9,-.4,10.4,2.7,15.3c1.8,3,8.4,11,12,11.2c-4.4,8,-9.8,15.6,-5.6,25.2c1.8,4,7.4,13.3,11.5,15.5c3.8,2.1,9.8,0,14,.7c.5,3.7,-.8,7.8,.4,11.3c1.8,5.7,7.6,12.1,11.4,16.4c8.7,9.6,30.8,26.4,42.7,15.4c4.7,11,16.2,20.8,27.7,25.1c7.7,2.9,23.5,4.9,31.3,2c4.9,-1.9,9.3,-9.6,14.3,-10.5c2.3,-.4,10.4,4.7,12.7,5.2c11.1,2.2,25,2.1,35.9,-.3c15.9,-3.3,23.8,-15.8,28.5,-29.9c3.6,7.4,23.3,1.4,28.5,-1.3c10.3,-5.3,20.9,-13.3,25,-24.6c2.9,-8.2,-5.7,-16.5,-3.5,-23c1.1,-3,4.4,-4.9,6.1,-7.5c9.3,-14.8,5.3,-29.2,-3.1,-42.9c-8.8,-14.6,-20.5,-24.2,-37.3,-29.1c-4.2,-1.3,-8.2,-2,-12.7,-1.8c-2.5,.1,-3.7,1.5,-6.2,1c12.7,-16.1,-31.8,-30.3,-39.7,-31.6c-19.9,-3.4,-43.2,.2,-61.8,7c-8.9,3.2,-17.5,8.1,-26,11.4c1.6,-17.4,-31.3,-11.9,-40,-9.3c-10.4,3.1,-23.4,9.4,-29.7,18.2c-6.9,3.6,-10.6,10.5,-14,16.2Z" class="g0_64"/>
<path d="M131.4,244.5c-3.5,1.2,-6.7,3.5,-9.9,4.8c-3.4,1.4,-5.4,1,-8.8,4.3c-2.5,2.4,-3,4.4,-6.5,5.4c-1,5.9,-.4,10.4,2.7,15.3c1.8,3,8.4,11,12,11.2c-4.4,8,-9.8,15.6,-5.6,25.2c1.8,4,7.4,13.3,11.5,15.5c3.8,2.1,9.8,0,14,.7c.5,3.7,-.8,7.8,.4,11.3c1.8,5.7,7.6,12.1,11.4,16.4c8.7,9.6,30.8,26.4,42.7,15.4c4.7,11,16.2,20.8,27.7,25.1c7.7,2.9,23.5,4.9,31.3,2c4.9,-1.9,9.3,-9.6,14.3,-10.5c2.3,-.4,10.4,4.7,12.7,5.2c11.1,2.2,25,2.1,35.9,-.3c15.9,-3.3,23.8,-15.8,28.5,-29.9c3.6,7.4,23.3,1.4,28.5,-1.3c10.3,-5.3,20.9,-13.3,25,-24.6c2.9,-8.2,-5.7,-16.5,-3.5,-23c1.1,-3,4.4,-4.9,6.1,-7.5c9.3,-14.8,5.3,-29.2,-3.1,-42.9c-8.8,-14.6,-20.5,-24.2,-37.3,-29.1c-4.2,-1.3,-8.2,-2,-12.7,-1.8c-2.5,.1,-3.7,1.5,-6.2,1c12.7,-16.1,-31.8,-30.3,-39.7,-31.6c-19.9,-3.4,-43.2,.2,-61.8,7c-8.9,3.2,-17.5,8.1,-26,11.4c1.6,-17.4,-31.3,-11.9,-40,-9.3c-10.4,3.1,-23.4,9.4,-29.7,18.2c-6.9,3.6,-10.6,10.5,-14,16.2" class="g1_64"/>
<path d="M337.2,387.7c0,-.3,-.1,-.6,-.2,-.9c-6.2,-2,-4.1,13.8,3.3,8.5c7.4,-5.3,-3.7,-10.9,-5.3,-6.5Z" class="g0_64"/>
<path d="M337.2,387.7c0,-.3,-.1,-.6,-.2,-.9c-6.2,-2,-4.1,13.8,3.3,8.5c7.4,-5.3,-3.7,-10.9,-5.3,-6.5" class="g2_64"/>
<path d="M349,398.6c-3.2,.7,-2.8,4,-2.3,6.4c1.5,.7,3,1.1,4.5,1.1c.6,-2.7,.8,-7,-3.5,-6.4Z" class="g0_64"/>
<path d="M349,398.6c-3.2,.7,-2.8,4,-2.3,6.4c1.5,.7,3,1.1,4.5,1.1c.6,-2.7,.8,-7,-3.5,-6.4" class="g3_64"/>
<path d="M623.5,319.5c-2.5,.8,-4.8,2.3,-7.1,3.1c-2.5,.9,-4,.7,-6.5,2.7c-1.8,1.6,-2.2,2.9,-4.7,3.5c-.8,3.8,-.3,6.7,1.9,9.9c1.4,1.9,6.2,7,8.8,7.2c-3.2,5.1,-7.2,9.9,-4.1,16.1c1.3,2.5,5.4,8.5,8.4,10c2.8,1.2,7.2,-.1,10.2,.4c.4,2.4,-.5,5,.3,7.3c1.3,3.6,5.6,7.7,8.4,10.5c6.3,6.1,22.4,16.9,31.2,9.8c3.4,7.1,11.8,13.4,20.2,16.1c5.6,1.9,17.1,3.2,22.9,1.3c3.5,-1.2,6.8,-6.1,10.4,-6.7c1.7,-.3,7.6,3,9.3,3.3c8.1,1.4,18.2,1.3,26.2,-.2c11.6,-2.1,17.4,-10.1,20.8,-19.2c2.6,4.8,17,.9,20.9,-.8c7.5,-3.4,15.2,-8.5,18.2,-15.8c2.1,-5.2,-4.2,-10.6,-2.5,-14.7c.7,-2,3.1,-3.1,4.4,-4.9c6.8,-9.4,3.9,-18.7,-2.2,-27.5c-6.5,-9.3,-15,-15.5,-27.3,-18.6c-3.1,-.8,-6,-1.3,-9.3,-1.2c-1.8,.1,-2.6,1,-4.5,.7c9.3,-10.4,-23.2,-19.5,-29,-20.3c-14.6,-2.2,-31.6,.1,-45.2,4.5c-6.5,2.1,-12.8,5.2,-18.9,7.3c1.1,-11.2,-22.9,-7.6,-29.3,-6c-7.6,2,-17.1,6.1,-21.6,11.7c-2.9,3.5,-4.2,7.9,-6.7,11.5Z" class="g0_64"/>
<path d="M623.5,319.5c-2.5,.8,-4.8,2.3,-7.1,3.1c-2.5,.9,-4,.7,-6.5,2.7c-1.8,1.6,-2.2,2.9,-4.7,3.5c-.8,3.8,-.3,6.7,1.9,9.9c1.4,1.9,6.2,7,8.8,7.2c-3.2,5.1,-7.2,9.9,-4.1,16.1c1.3,2.5,5.4,8.5,8.4,10c2.8,1.2,7.2,-.1,10.2,.4c.4,2.4,-.5,5,.3,7.3c1.3,3.6,5.6,7.7,8.4,10.5c6.3,6.1,22.4,16.9,31.2,9.8c3.4,7.1,11.8,13.4,20.2,16.1c5.6,1.9,17.1,3.2,22.9,1.3c3.5,-1.2,6.8,-6.1,10.4,-6.7c1.7,-.3,7.6,3,9.3,3.3c8.1,1.4,18.2,1.3,26.2,-.2c11.6,-2.1,17.4,-10.1,20.8,-19.2c2.6,4.8,17,.9,20.9,-.8c7.5,-3.4,15.2,-8.5,18.2,-15.8c2.1,-5.2,-4.2,-10.6,-2.5,-14.7c.7,-2,3.1,-3.1,4.4,-4.9c6.8,-9.4,3.9,-18.7,-2.2,-27.5c-6.5,-9.3,-15,-15.5,-27.3,-18.6c-3.1,-.8,-6,-1.3,-9.3,-1.2c-1.8,.1,-2.6,1,-4.5,.7c9.3,-10.4,-23.2,-19.5,-29,-20.3c-14.6,-2.2,-31.6,.1,-45.2,4.5c-6.5,2.1,-12.8,5.2,-18.9,7.3c1.1,-11.2,-22.9,-7.6,-29.3,-6c-7.6,2,-17.1,6.1,-21.6,11.7c-2.9,3.5,-4.2,7.9,-6.7,11.5" class="g1_64"/>
<path d="M636.9,400.1c0,-.3,-.1,-.6,-.2,-.9c-6.2,-2.1,-4.1,13.8,3.3,8.5c7.3,-5.3,-3.7,-10.9,-5.3,-6.5Z" class="g0_64"/>
<path d="M636.9,400.1c0,-.3,-.1,-.6,-.2,-.9c-6.2,-2.1,-4.1,13.8,3.3,8.5c7.3,-5.3,-3.7,-10.9,-5.3,-6.5" class="g2_64"/>
<path d="M630,412.5c-3.2,.7,-2.8,4,-2.3,6.4c1.6,.7,3,1.1,4.6,1.2c.5,-2.8,.7,-7,-3.5,-6.5Z" class="g0_64"/>
<path d="M630,412.5c-3.2,.7,-2.8,4,-2.3,6.4c1.6,.7,3,1.1,4.6,1.2c.5,-2.8,.7,-7,-3.5,-6.5" class="g3_64"/>
<g clip-path="url(#c1_64)">
<path d="M-4.5,13.7H-27.4m939.5,0H935M-4.5,1031.2H-27.4m939.5,0H935M13.7,-4.5V-27.4m0,1077v22.9m880,-1077V-27.4m0,1077v22.9" class="g4_64"/>
<path d="M-4.5,13.7H-27.4m939.5,0H935M-4.5,1031.2H-27.4m939.5,0H935M13.7,-4.5V-27.4m0,1077v22.9m880,-1077V-27.4m0,1077v22.9" class="g5_64"/>
</g>
</svg>