<svg viewBox="0 0 935 1210" version="1.1" xmlns="http://www.w3.org/2000/svg">
<defs>
<clipPath id="c0_636"><path d="M624.5 763.2V546H810.9V763.2Z"/></clipPath>
<style>
.g0_636{fill:none;stroke:#000;stroke-width:0.765;stroke-linecap:square;stroke-miterlimit:10;}
.g1_636{fill:#2F5496;}
.g2_636{fill:none;stroke:#000;stroke-width:0.76;stroke-linecap:square;stroke-miterlimit:10;}
.g3_636{fill:none;stroke:#000;stroke-width:0.764;stroke-linecap:square;stroke-miterlimit:10;}
.g4_636{fill:none;stroke:#000;stroke-width:0.763;stroke-linecap:square;stroke-miterlimit:10;}
.g5_636{fill:none;stroke:#000;stroke-width:1.527;stroke-linecap:square;stroke-miterlimit:10;}
</style>
</defs>
<path d="M258.8 137.7H345" class="g0_636"/>
<path d="M166.7 160.6h1.1V110h-1.1v50.6Z" class="g1_636"/>
<path d="M166.7 185.4h1.1V160.6h-1.1v24.8Z" class="g1_636"/>
<path d="M166.7 206.4h1.1v-21h-1.1v21Z" class="g1_636"/>
<path d="M231.6 234.1H261m62.8 0h85.6" class="g2_636"/>
<path d="M166.7 257.2h1.1V206.4h-1.1v50.8Z" class="g1_636"/>
<path d="M230.2 284.9h29.6m19.5 0h86.1" class="g0_636"/>
<path d="M166.7 307.8h1.1V257.2h-1.1v50.6Z" class="g1_636"/>
<path d="M223 335.5h20.6m19.5 0h77.1" class="g3_636"/>
<path d="M166.7 358.6h1.1V307.8h-1.1v50.8Z" class="g1_636"/>
<path d="M166.7 385.7h1.1V358.6h-1.1v27.1Z" class="g1_636"/>
<path d="M166.7 412.9h1.1V385.7h-1.1v27.2Z" class="g1_636"/>
<path d="M166.7 440.2h1.1V412.9h-1.1v27.3Z" class="g1_636"/>
<path d="M298.8 461.5l2.3-1.3" class="g4_636"/>
<path d="M301.1 460.6l3.4 8.6" class="g5_636"/>
<path d="M304.9 469.2l4.5-24.7m0 0H505.7M208.1 472.2H507.3" class="g4_636"/>
<path d="M166.7 498.1h1.1V440.2h-1.1v57.9Z" class="g1_636"/>
<path d="M166.7 519.2h1.1V498.1h-1.1v21.1Z" class="g1_636"/>
<path d="M166.7 540.3h1.1V519.2h-1.1v21.1Z" class="g1_636"/>
<path d="M166.7 561.4h1.1V540.3h-1.1v21.1Z" class="g1_636"/>
<path d="M268 589.1h79.1" class="g4_636"/>
<path d="M166.7 612.1h1.1V561.4h-1.1v50.7Z" class="g1_636"/>
<path d="M166.7 634.3h1.1V612.2h-1.1v22.1Z" class="g1_636"/>
<path d="M166.7 655.4h1.1V634.3h-1.1v21.1Z" class="g1_636"/>
<path d="M166.7 676.5h1.1V655.4h-1.1v21.1Z" class="g1_636"/>
<path d="M267.6 704.2h82.7" class="g2_636"/>
<path d="M166.7 727.1h1.1V676.5h-1.1v50.6Z" class="g1_636"/>
<path d="M166.7 749.3h1.1V727.1h-1.1v22.2Z" class="g1_636"/>
<path d="M166.7 770.4h1.1V749.3h-1.1v21.1Z" class="g1_636"/>
<path d="M166.7 791.5h1.1V770.4h-1.1v21.1Z" class="g1_636"/>
<path d="M166.7 812.5h1.1v-21h-1.1v21Z" class="g1_636"/>
<path d="M166.7 833.6h1.1V812.5h-1.1v21.1Z" class="g1_636"/>
<image clip-path="url(#c0_636)" preserveAspectRatio="none" x="625" y="546" width="186" height="217" href="img/1.jpg"/>
</svg>