<?xml version="1.0" encoding="UTF-8" standalone="no"?>
<!DOCTYPE svg PUBLIC "-//W3C//DTD SVG 1.1//EN"
"http://www.w3.org/Graphics/SVG/1.1/DTD/svg11.dtd">
<svg viewBox="0 0 931 1096" version="1.1" xmlns="http://www.w3.org/2000/svg" xmlns:xlink="http://www.w3.org/1999/xlink">
<defs>
<clipPath id="c0_253"><path d="M235,346.5h-.1c-9.7,-.1,-9.1,-5.2,-22.8,-6.6c-.6,0,-1.3,-.1,-2,-.2c-2.2,-.1,-3.9,-.2,-5.5,-.2c-8.1,0,-8.7,1.8,-16.4,2.1c-1.7,.3,-3.4,.4,-5.1,.4c-5.3,0,-10.3,-1.4,-12.5,-5.6c-1,-1.8,-1.4,-4,-1.3,-6.9c.3,-3.5,5.8,-9.9,14.2,-11.1c7.4,-1.3,12.5,-1.8,19.2,-1.8h.2c2.3,0,4.9,0,7.8,.2c12.4,.4,32.3,2.9,37.8,6.7c1.7,1.2,3.3,4.8,1.7,8.8c-2.7,6.7,-7.8,14.2,-15.2,14.2Z"/></clipPath>
<clipPath id="c1_253"><path d="M224.1,388.9c-23.3,0,-58.3,-8.5,-54.8,-19.9V330.7c.8,9,6.3,11.4,13.1,11.4c1.9,0,3.9,-.2,5.8,-.5c7.7,-.3,8.3,-2.1,16.4,-2.1c1.6,0,3.3,.1,5.5,.2c15.7,1.1,14.7,6.7,24.8,6.8q.1,0,.1,0c7.1,0,14.2,-8.6,15.6,-15.6v39.5c2.6,4,-4.7,14.6,-12.4,16.9c-3.5,1.1,-8.5,1.6,-14.1,1.6Zm26.5,-58v-4.8c.4,1.4,.4,3,0,4.8Z"/></clipPath>
<clipPath id="c2_253"><path d="M224.4,628.3l-29.6,-4.9V579.8l29.6,3.4v45.1Z"/></clipPath>
<clipPath id="c3_253"><path d="M224.4,628.3V583.2c21.3,-8.8,26.2,-22.6,26.2,-22.6v48.7c-1.6,3.7,-11.6,13.8,-26.2,19Z"/></clipPath>
<clipPath id="c4_253"><path d="M194.8,623.4c-1.6,-2.4,-3.3,-4.8,-6.2,-8.5v-.1c-3.5,-5.2,-5.1,-8.4,-4.5,-15V558.4c.3,4,2.2,8,4.5,11.8c2.2,3.6,4.8,6.9,6.2,9.6v43.6Z"/></clipPath>
<clipPath id="c5_253"><path d="M224.4,583.2c-1,-.1,-1.2,-.1,-1.2,-.1c-.2,0,-.4,-.1,-.8,-.1c-2.6,-.3,-12,-1.4,-14.5,-1.7c-2,-.2,-9.5,-.8,-11.4,-1.2c-1.2,-.2,.5,-.1,-1.9,-.4c-2,-3.7,-6.1,-8.2,-8.6,-13.5c-1.9,-4,-2.9,-8.5,-1.3,-13.2c.1,-.5,1.5,-.7,3.6,-.7c1.8,0,4.3,.1,7.1,.4c5,.4,17.7,2.1,24.1,2.9c8.2,1.2,10.2,1.6,17.1,2.7c8.1,1.3,13.9,2.3,13.9,2.3c0,0,-.9,2.6,-3.7,6.3c-3.6,4.8,-10.4,11.3,-22.4,16.3Z"/></clipPath>
<clipPath id="c6_253"><path d="M108.5,757.1V531.8h213V757.1Z"/></clipPath>
<clipPath id="c7_253"><path d="M190.4,900.7c-7.6,-.9,-14.6,-3.8,-19.9,-10h.1V856c4.3,1,8.3,1.4,12,1.4c10.3,0,18.7,-3.3,27.2,-6.6c8.6,-3.3,17.4,-6.6,28.6,-6.6h.1c1,0,2,0,3.1,.1v40.8c-3.4,3.2,-22.1,13.7,-40.6,15.6Z"/></clipPath>
<clipPath id="c8_253"><path d="M241.8,885.2h-.2V844.6l.2,-.1l6.6,-5.5l.1,.1l-.3,39.2V878l-6.4,7.2Z"/></clipPath>
<clipPath id="c9_253"><path d="M182.3,857.6c-3.6,0,-7.5,-.4,-11.8,-1.4c6.3,-7.2,15.6,-12.3,27.7,-14.9c8.5,-1.8,15.5,-4.6,27.9,-4.6c6,0,13.1,.7,22.3,2.4l-6.6,5.5c-1.4,-.1,-2.7,-.2,-4,-.2c-11.4,0,-20.2,3.3,-28.6,6.6c-8.5,3.3,-16.6,6.6,-26.9,6.6Z"/></clipPath>
<style type="text/css"><![CDATA[
.g0_253{
fill: none;
stroke: #00AEEF;
stroke-width: 1.145;
}
.g1_253{
fill: none;
stroke: #241F1F;
stroke-width: 0.611;
stroke-miterlimit: 3;
}
.g2_253{
fill: #241F1F;
}
.g3_253{
fill: none;
stroke: #00BFF3;
stroke-width: 0.611;
stroke-linejoin: round;
}
.g4_253{
fill: #FFDEB8;
}
.g5_253{
fill: none;
stroke: #F9951B;
stroke-width: 0.763;
stroke-linejoin: round;
}
.g6_253{
fill: none;
stroke: #241F1F;
stroke-width: 0.763;
stroke-miterlimit: 3;
stroke-dasharray: 10,4;
}
.g7_253{
fill: none;
stroke: #241F1F;
stroke-width: 0.381;
stroke-miterlimit: 3;
}
.g8_253{
fill: none;
stroke: #00C3F4;
stroke-width: 0.611;
stroke-miterlimit: 3;
stroke-dasharray: 10,4;
}
.g9_253{
fill: none;
stroke: #241F1F;
stroke-width: 0.381;
stroke-miterlimit: 3;
stroke-dasharray: 4,3;
}
.ga_253{
fill: none;
stroke: #0079C2;
stroke-width: 0.763;
}
.gb_253{
fill: none;
stroke: #F9951B;
stroke-width: 0.916;
stroke-linejoin: round;
}
.gc_253{
fill: none;
stroke: #F9951B;
stroke-width: 0.763;
stroke-miterlimit: 3;
}
.gd_253{
fill: none;
stroke: #241F1F;
stroke-width: 0.534;
stroke-miterlimit: 3;
stroke-dasharray: 9,4;
}
.ge_253{
fill: none;
stroke: #00C3F4;
stroke-width: 0.611;
stroke-miterlimit: 3;
stroke-dasharray: 9,4;
}
.gf_253{
fill: none;
stroke: #969698;
stroke-width: 0.534;
stroke-miterlimit: 3;
stroke-dasharray: 9,4;
}
]]></style>
</defs>
<path d="M362.7,359.9c0,0,-1.6,0,-1.6,1.5v14.2c0,0,0,1.5,1.6,1.5h14.1c0,0,1.5,0,1.5,-1.5V361.4c0,0,0,-1.5,-1.5,-1.5H362.7Zm0,178.7c0,0,-1.6,0,-1.6,1.6v14.1c0,0,0,1.5,1.6,1.5h14.1c0,0,1.5,0,1.5,-1.5V540.2c0,0,0,-1.6,-1.5,-1.6H362.7Zm0,264.4c0,0,-1.6,0,-1.6,1.5v14.1c0,0,0,1.5,1.6,1.5h14.1c0,0,1.5,0,1.5,-1.5V804.5c0,0,0,-1.5,-1.5,-1.5H362.7Zm0,195.5c0,0,-1.6,0,-1.6,1.5v14.2c0,0,0,1.5,1.6,1.5h14.1c0,0,1.5,0,1.5,-1.5V1000c0,0,0,-1.5,-1.5,-1.5H362.7Z" class="g0_253"/>
<image clip-path="url(#c0_253)" x="169" y="316" width="83" height="31" xlink:href="shade/1.png"/>
<image clip-path="url(#c1_253)" x="164" y="326" width="90" height="67" xlink:href="shade/2.png"/>
<path d="M160.6,394.2l150,15.7" class="g1_253"/>
<path fill-rule="evenodd" d="M310.6,409.9l-1.3,-2.6l6.2,3.1l-6.8,1.8Z" class="g2_253"/>
<path d="M250.6,370.3c2.6,4.1,-4.7,14.7,-12.4,17C220.1,392.8,165,383.2,169.3,369V330.7c1,11.4,9.7,12.2,18.9,10.9c9.1,-.3,8.3,-2.8,21.9,-1.9c15.7,1.1,14.7,6.7,24.8,6.8c8.9,.1,17.7,-13.4,15.7,-20.4v44.2Zm-2.1,-46.8c7.1,4.9,-3.8,23.1,-13.6,23c-10.1,-.1,-9.1,-5.7,-24.8,-6.8c-13.6,-.9,-12.8,1.6,-21.9,1.9c-9.2,1.3,-19.6,-.2,-18.9,-12.1c.3,-3.5,5.8,-9.9,14.2,-11.1c10.1,-1.8,15.7,-2.1,27.2,-1.6c12.4,.4,32.3,2.9,37.8,6.7Z" class="g3_253"/>
<path d="M169.6,415.6c3.9,-11.2,24,-12.7,46.2,-9.7c13.7,1.8,28.6,4.2,34.8,13.2c1.8,2.7,-6.8,18.8,-11.6,20.5c-13.2,4.9,-37.8,2.6,-48.1,-2.3c-5.2,-2.4,-24.7,-12,-21.3,-21.7Z" class="g4_253"/>
<path d="M169.6,415.6c3.9,-11.2,24,-12.7,46.2,-9.7c13.7,1.8,28.6,4.2,34.8,13.2c1.8,2.7,-6.8,18.8,-11.6,20.5c-13.2,4.9,-37.8,2.6,-48.1,-2.3c-5.2,-2.4,-24.7,-12,-21.3,-21.7Z" class="g5_253"/>
<path d="M160.6,394.2V297.4" class="g1_253"/>
<path fill-rule="evenodd" d="M160.6,297.4l-2.4,1.6l2.4,-6.5l2.5,6.5Z" class="g2_253"/>
<path d="M160.7,394.2l-40.5,32.5" class="g1_253"/>
<path fill-rule="evenodd" d="M120.2,426.7l2.8,.9l-6.6,2.2l3.5,-6Z" class="g2_253"/>
<path d="M238.2,387.3v52.6m12.4,-20.1V375m-81.3,43.1V371.7" class="g6_253"/>
<path d="M250.4,311.9l-13.9,16.5" class="g7_253"/>
<path d="M234.4,330.9l1.5,-4.4l.6,1.9l2,.3Z" class="g2_253"/>
<path d="M169.4,367.2c3,-10.1,20.4,-11.5,36.5,-10.5c14.2,.8,41.4,8.7,44.7,13.6" class="g8_253"/>
<path d="M258.3,369.1c-1.8,4.8,-6.1,9.8,-10.6,11.1" class="g7_253"/>
<path d="M238.5,376.9c2.6,3,6.3,4.1,9.2,3.3" class="g9_253"/>
<path d="M236.4,374.3l4.1,2.3l-2,.3l-.6,1.8Z" class="g2_253"/>
<path d="M422.1,510.1c0,0,-3.1,0,-3.1,3.1v68.3c0,0,0,3,3.1,3h375c0,0,3.1,0,3.1,-3V513.2c0,0,0,-3.1,-3.1,-3.1h-375Z" class="ga_253"/>
<image clip-path="url(#c2_253)" x="194" y="579" width="31" height="50" xlink:href="shade/3.png"/>
<image clip-path="url(#c3_253)" x="224" y="560" width="27" height="69" xlink:href="shade/4.png"/>
<image clip-path="url(#c4_253)" x="183" y="558" width="12" height="66" xlink:href="shade/5.png"/>
<image clip-path="url(#c5_253)" x="183" y="552" width="68" height="32" xlink:href="shade/6.png"/>
<path d="M194.3,683.7l29.9,3.4C245.5,678.2,250.5,666,250.5,666c0,0,-65.3,-10.4,-66.6,-6.9c-3.6,10.9,6.9,18,10.4,24.6Z" class="g4_253"/>
<path d="M194.3,683.7l29.9,3.4C245.5,678.2,250.5,666,250.5,666c0,0,-65.3,-10.4,-66.6,-6.9c-3.6,10.9,6.9,18,10.4,24.6Z" class="gb_253"/>
<path d="M250.5,560.9v48.4M224.2,583.5v44.4M194.6,579.7v43.6M183.9,556.2v46.1m10.7,-22.6l29.8,3.5c21.3,-8.8,26.1,-22.6,26.1,-22.6c0,0,-64.6,-11.1,-65.8,-7.6c-3.6,10.9,6.4,20.2,9.9,26.7Z" class="g3_253"/>
<path d="M243.7,551.6L231.6,565" class="g7_253"/>
<path d="M229.3,567.5l1.7,-4.3l.6,1.8l1.9,.4Z" class="g2_253"/>
<path d="M183.7,601.7c-.7,9.3,7.6,15.8,10.7,21.6l29.7,5c21.3,-8.8,26.3,-19,26.3,-19" class="g3_253"/>
<path d="M250.4,609.3c0,0,-64.8,-14.7,-66,-11.3c-.4,1.3,-.6,2.5,-.7,3.7" class="g8_253"/>
<path d="M257.5,620.7c-7.4,4.1,-15.7,5.3,-21,2.1" class="g7_253"/>
<path d="M229.8,615.8c.7,2.1,4,5.5,5.9,6.6" class="g9_253"/>
<path d="M228.8,612.6l2.9,3.6l-1.9,-.4l-1.3,1.5Z" class="g2_253"/>
<path d="M165,645.2V536.6" class="g1_253"/>
<path clip-path="url(#c6_253)" fill-rule="evenodd" d="M165,536.6l-2.4,1.7l2.4,-6.5l2.4,6.5Z" class="g2_253"/>
<path d="M250.5,609.3V666M183.9,600.5v58.6m40.3,28V628m-29.7,56l.1,-61.9" class="g6_253"/>
<path d="M165,645.1l149.6,15.7" class="g1_253"/>
<path fill-rule="evenodd" d="M314.6,660.8l-1.4,-2.6l6.2,3.2l-6.7,1.7Z" class="g2_253"/>
<path d="M165,645.1l-40.5,33" class="g1_253"/>
<path fill-rule="evenodd" d="M124.5,678.1l2.9,.9l-6.7,2.2l3.6,-6Z" class="g2_253"/>
<path d="M129.2,671.2l5.8,.6m15.1,-17.4l5.8,.6" class="g1_253"/>
<path d="M413.5,785.4c0,0,-3,0,-3,3.1v57.3c0,0,0,3,3,3H806.3c0,0,3.1,0,3.1,-3V788.5c0,0,0,-3.1,-3.1,-3.1H413.5Z" class="ga_253"/>
<image clip-path="url(#c7_253)" x="170" y="844" width="72" height="57" xlink:href="shade/7.png"/>
<image clip-path="url(#c8_253)" x="241" y="839" width="8" height="47" xlink:href="shade/8.png"/>
<path d="M122.1,950.7l2.8,.9l-6.6,2.2l3.5,-6Z" class="g2_253"/>
<path d="M162.6,918.5l-40.5,32.2" class="g1_253"/>
<path d="M315.3,934.3l-1.4,-2.7l6.3,3.2l-6.8,1.7Z" class="g2_253"/>
<path d="M162.6,918.5l152.7,15.8" class="g1_253"/>
<path d="M162.6,812.4l-2.5,1.7l2.5,-6.5l2.4,6.5Z" class="g2_253"/>
<path d="M162.6,918.5V812.4M208,925.2l3.7,-3.9M266,931.5l3.5,-4.1" class="g1_253"/>
<path d="M170.9,964.5l27,-28.2c13.2,-.6,36.1,-.2,50.3,16.8l-6.4,7.6c-8.9,5.3,-48.5,12.3,-70.9,3.8Z" class="g4_253"/>
<path d="M170.9,964.5l27,-28.2c13.2,-.6,36.1,-.2,50.3,16.8l-6.4,7.6c-8.9,5.3,-48.5,12.3,-70.9,3.8Z" class="gc_253"/>
<path d="M170.6,964V891.2m77.6,61.9V878.3m-6.6,82.2v-75" class="gd_253"/>
<path d="M225,967.3l4.2,2.1l-1.9,.4l-.5,1.9Z" class="g2_253"/>
<path d="M233.5,976.6l-6.2,-6.8" class="g7_253"/>
<path d="M248.2,878l-6.4,7.2c-4.7,4.8,-50.6,29.7,-71.3,5.7" class="g3_253"/>
<image clip-path="url(#c9_253)" x="170" y="836" width="79" height="24" xlink:href="shade/9.png"/>
<path d="M248.4,839.1l-6.6,5.5c-29.8,-2,-41.6,18.4,-71.3,11.6c6.3,-7.2,15.6,-12.3,27.7,-14.9c12.5,-2.6,21.9,-7.4,50.2,-2.2M170.6,891V856.2m71,-11.6v40.6m6.9,-46.1l-.3,39.2" class="g3_253"/>
<path d="M225.9,881.8l4,2.4l-1.9,.2l-.6,1.9Z" class="g2_253"/>
<path d="M233.9,889.5c-1.3,-.7,-4.8,-3.7,-5.9,-5.1" class="g9_253"/>
<path d="M258.7,869.7c-2.9,13.8,-14.6,25.3,-23.6,20.5" class="g7_253"/>
<path d="M214.7,843.2l1,-4.5l.8,1.8h2Z" class="g2_253"/>
<path d="M225.7,826.5l-9.2,14" class="g7_253"/>
<path fill-rule="evenodd" d="M232.8,939.9l1.4,-4.4l.6,1.8l2,.2Z" class="g2_253"/>
<path d="M257.2,908.3l-22.4,29" class="g7_253"/>
<path d="M170.5,890.9c9.2,1.7,27.3,-13.1,27.3,-19.5c13.2,-.6,32.7,-1.6,50.4,6.6m-50.4,-6.6V841.3" class="ge_253"/>
<path d="M197.8,901.3V871.4" class="gf_253"/>
<path d="M197.8,936.2l.1,-34.3" class="gd_253"/>
<path d="M413.5,980.4c0,0,-3,0,-3,3.1v57.2c0,0,0,3.1,3,3.1H806.3c0,0,3.1,0,3.1,-3.1V983.5c0,0,0,-3.1,-3.1,-3.1H413.5Z" class="ga_253"/>
</svg>