<?xml version="1.0" encoding="UTF-8" standalone="no"?>
<!DOCTYPE svg PUBLIC "-//W3C//DTD SVG 1.1//EN"
"http://www.w3.org/Graphics/SVG/1.1/DTD/svg11.dtd">
<svg viewBox="0 0 811 1017" version="1.1" xmlns="http://www.w3.org/2000/svg" xmlns:xlink="http://www.w3.org/1999/xlink">
<defs>
<style type="text/css"><![CDATA[
.g0_319{
fill: none;
stroke: #222326;
stroke-width: 1.145;
}
.g1_319{
fill: #211E1E;
}
.g2_319{
fill: #FED9A1;
}
.g3_319{
fill: none;
stroke: #222326;
stroke-width: 0.763;
}
.g4_319{
fill: #65C18B;
}
.g5_319{
fill: #FED74D;
}
.g6_319{
fill: #92C4E9;
}
.g7_319{
fill: #CEBCDA;
}
.g8_319{
fill: none;
stroke: #222326;
stroke-width: 1.527;
}
.g9_319{
fill: none;
stroke: #222326;
stroke-width: 0.763;
stroke-dasharray: 4,4;
}
.ga_319{
fill: #C6EAFA;
}
]]></style>
</defs>
<path d="M143.6,233.5H398.1" class="g0_319"/>
<path d="M400.8,232.3c-1.9,-.6,-3.2,-1.1,-4.7,-1.7v5.8c.6,-.3,2.8,-1.2,4.7,-1.7c2,-.6,3.8,-1.1,5,-1.2c-1.2,-.2,-3,-.6,-5,-1.2Z" class="g1_319"/>
<path d="M203.6,233.5c0,5.8,-4.7,10.5,-10.5,10.5c-5.8,0,-10.5,-4.7,-10.5,-10.5c0,-5.8,4.7,-10.5,10.5,-10.5c5.8,0,10.5,4.7,10.5,10.5Z" class="g2_319"/>
<path d="M203.6,233.5c0,5.8,-4.7,10.5,-10.5,10.5c-5.8,0,-10.5,-4.7,-10.5,-10.5c0,-5.8,4.7,-10.5,10.5,-10.5c5.8,0,10.5,4.7,10.5,10.5Z" class="g3_319"/>
<path d="M233.3,233.5c0,5.8,-4.7,10.5,-10.5,10.5c-5.8,0,-10.5,-4.7,-10.5,-10.5c0,-5.8,4.7,-10.5,10.5,-10.5c5.8,0,10.5,4.7,10.5,10.5Z" class="g4_319"/>
<path d="M233.3,233.5c0,5.8,-4.7,10.5,-10.5,10.5c-5.8,0,-10.5,-4.7,-10.5,-10.5c0,-5.8,4.7,-10.5,10.5,-10.5c5.8,0,10.5,4.7,10.5,10.5Z" class="g3_319"/>
<path d="M263,233.5c0,5.8,-4.7,10.5,-10.5,10.5C246.7,244,242,239.3,242,233.5c0,-5.8,4.7,-10.5,10.5,-10.5c5.8,0,10.5,4.7,10.5,10.5Z" class="g5_319"/>
<path d="M263,233.5c0,5.8,-4.7,10.5,-10.5,10.5C246.7,244,242,239.3,242,233.5c0,-5.8,4.7,-10.5,10.5,-10.5c5.8,0,10.5,4.7,10.5,10.5Z" class="g3_319"/>
<path d="M292.7,233.5c0,5.8,-4.7,10.5,-10.5,10.5c-5.8,0,-10.5,-4.7,-10.5,-10.5c0,-5.8,4.7,-10.5,10.5,-10.5c5.8,0,10.5,4.7,10.5,10.5Z" class="g6_319"/>
<path d="M292.7,233.5c0,5.8,-4.7,10.5,-10.5,10.5c-5.8,0,-10.5,-4.7,-10.5,-10.5c0,-5.8,4.7,-10.5,10.5,-10.5c5.8,0,10.5,4.7,10.5,10.5Z" class="g3_319"/>
<path d="M322.4,233.5c0,5.8,-4.7,10.5,-10.5,10.5c-5.8,0,-10.5,-4.7,-10.5,-10.5c0,-5.8,4.7,-10.5,10.5,-10.5c5.8,0,10.5,4.7,10.5,10.5Z" class="g7_319"/>
<path d="M322.4,233.5c0,5.8,-4.7,10.5,-10.5,10.5c-5.8,0,-10.5,-4.7,-10.5,-10.5c0,-5.8,4.7,-10.5,10.5,-10.5c5.8,0,10.5,4.7,10.5,10.5Z" class="g3_319"/>
<path d="M143.6,129H398.1" class="g0_319"/>
<path d="M400.8,127.8c-1.9,-.6,-3.2,-1.1,-4.7,-1.7v5.8c.6,-.3,2.8,-1.2,4.7,-1.7c2,-.7,3.8,-1.1,5,-1.2c-1.2,-.2,-3,-.6,-5,-1.2Z" class="g1_319"/>
<path d="M233.3,129c0,5.8,-4.7,10.4,-10.5,10.4c-5.8,0,-10.5,-4.6,-10.5,-10.4c0,-5.8,4.7,-10.5,10.5,-10.5c5.8,0,10.5,4.7,10.5,10.5Z" class="g4_319"/>
<path d="M233.3,129c0,5.8,-4.7,10.4,-10.5,10.4c-5.8,0,-10.5,-4.6,-10.5,-10.4c0,-5.8,4.7,-10.5,10.5,-10.5c5.8,0,10.5,4.7,10.5,10.5Z" class="g3_319"/>
<path d="M292.7,129c0,5.8,-4.7,10.4,-10.5,10.4c-5.8,0,-10.5,-4.6,-10.5,-10.4c0,-5.8,4.7,-10.5,10.5,-10.5c5.8,0,10.5,4.7,10.5,10.5Z" class="g6_319"/>
<path d="M292.7,129c0,5.8,-4.7,10.4,-10.5,10.4c-5.8,0,-10.5,-4.6,-10.5,-10.4c0,-5.8,4.7,-10.5,10.5,-10.5c5.8,0,10.5,4.7,10.5,10.5Z" class="g3_319"/>
<path d="M143.6,93.6H398.1" class="g0_319"/>
<path d="M400.8,92.4c-1.9,-.5,-3.2,-1.1,-4.7,-1.7v5.8c.6,-.3,2.8,-1.1,4.7,-1.7c2,-.6,3.8,-1,5,-1.2c-1.2,-.1,-3,-.6,-5,-1.2Z" class="g1_319"/>
<path d="M351.5,139.4V118.5M362.9,244V223m-1,-118.9v-21" class="g8_319"/>
<path d="M203.6,93.6c0,5.8,-4.7,10.5,-10.5,10.5c-5.8,0,-10.5,-4.7,-10.5,-10.5c0,-5.8,4.7,-10.5,10.5,-10.5c5.8,0,10.5,4.7,10.5,10.5Z" class="g2_319"/>
<path d="M203.6,93.6c0,5.8,-4.7,10.5,-10.5,10.5c-5.8,0,-10.5,-4.7,-10.5,-10.5c0,-5.8,4.7,-10.5,10.5,-10.5c5.8,0,10.5,4.7,10.5,10.5Z" class="g3_319"/>
<path d="M263,93.6c0,5.8,-4.7,10.5,-10.5,10.5C246.7,104.1,242,99.4,242,93.6c0,-5.8,4.7,-10.5,10.5,-10.5c5.8,0,10.5,4.7,10.5,10.5Z" class="g5_319"/>
<path d="M263,93.6c0,5.8,-4.7,10.5,-10.5,10.5C246.7,104.1,242,99.4,242,93.6c0,-5.8,4.7,-10.5,10.5,-10.5c5.8,0,10.5,4.7,10.5,10.5Z" class="g3_319"/>
<path d="M322.4,93.6c0,5.8,-4.7,10.5,-10.5,10.5c-5.8,0,-10.5,-4.7,-10.5,-10.5c0,-5.8,4.7,-10.5,10.5,-10.5c5.8,0,10.5,4.7,10.5,10.5Z" class="g7_319"/>
<path d="M322.4,93.6c0,5.8,-4.7,10.5,-10.5,10.5c-5.8,0,-10.5,-4.7,-10.5,-10.5c0,-5.8,4.7,-10.5,10.5,-10.5c5.8,0,10.5,4.7,10.5,10.5Z" class="g3_319"/>
<path d="M193.1,104.1v54" class="g9_319"/>
<path d="M193.9,159.9c.3,-1.2,.7,-2,1.1,-3.1h-3.9c.2,.4,.8,1.9,1.2,3.1c.4,1.4,.7,2.6,.8,3.4c.1,-.8,.4,-2,.8,-3.4Z" class="g1_319"/>
<path d="M222.8,139.4v18.7" class="g9_319"/>
<path d="M223.6,159.9c.3,-1.2,.7,-2,1.1,-3.1h-3.9c.2,.4,.8,1.9,1.2,3.1c.4,1.4,.7,2.6,.8,3.4c.1,-.8,.4,-2,.8,-3.4Z" class="g1_319"/>
<path d="M222.8,199.5v18.6" class="g9_319"/>
<path d="M223.6,219.9c.3,-1.3,.7,-2.1,1.1,-3.1h-3.9c.2,.3,.8,1.8,1.2,3.1c.4,1.3,.7,2.6,.8,3.3c.1,-.7,.4,-2,.8,-3.3Z" class="g1_319"/>
<path d="M193.1,199.5v18.6" class="g9_319"/>
<path d="M193.9,219.9c.3,-1.3,.7,-2.1,1.1,-3.1h-3.9c.2,.3,.8,1.8,1.2,3.1c.4,1.3,.7,2.6,.8,3.3c.1,-.7,.4,-2,.8,-3.3Z" class="g1_319"/>
<path d="M252.5,199.5v18.6" class="g9_319"/>
<path d="M253.3,219.9c.3,-1.3,.7,-2.1,1.1,-3.1h-3.8c.1,.3,.7,1.8,1.1,3.1c.4,1.3,.7,2.6,.8,3.3c.1,-.7,.4,-2,.8,-3.3Z" class="g1_319"/>
<path d="M282.2,199.5v18.6" class="g9_319"/>
<path d="M283,219.9c.3,-1.3,.7,-2.1,1.1,-3.1h-3.9c.2,.3,.8,1.8,1.2,3.1c.4,1.3,.7,2.6,.8,3.3c.1,-.7,.4,-2,.8,-3.3Z" class="g1_319"/>
<path d="M311.9,199.5v18.6" class="g9_319"/>
<path d="M312.7,219.9c.3,-1.3,.7,-2.1,1.1,-3.1H310c.1,.3,.7,1.8,1.1,3.1c.4,1.3,.7,2.6,.8,3.3c.1,-.7,.4,-2,.8,-3.3Z" class="g1_319"/>
<path d="M362.9,199.5v18.6" class="g9_319"/>
<path d="M363.6,219.9c.4,-1.3,.8,-2.1,1.2,-3.1h-3.9c.2,.3,.8,1.8,1.2,3.1c.4,1.3,.6,2.6,.7,3.3c.1,-.7,.4,-2,.8,-3.3Z" class="g1_319"/>
<path d="M282.2,139.4v18.7" class="g9_319"/>
<path d="M283,159.9c.3,-1.2,.7,-2,1.1,-3.1h-3.9c.2,.4,.8,1.9,1.2,3.1c.4,1.4,.7,2.6,.8,3.4c.1,-.8,.4,-2,.8,-3.4Z" class="g1_319"/>
<path d="M351.5,138.3v19.8" class="g9_319"/>
<path d="M352.3,159.9c.4,-1.2,.8,-2,1.2,-3.1h-3.9c.2,.4,.8,1.9,1.2,3.1c.4,1.4,.6,2.6,.7,3.4c.1,-.8,.4,-2,.8,-3.4Z" class="g1_319"/>
<path d="M252.5,104.1v54" class="g9_319"/>
<path d="M253.3,159.9c.3,-1.2,.7,-2,1.1,-3.1h-3.8c.1,.4,.7,1.9,1.1,3.1c.4,1.4,.7,2.6,.8,3.4c.1,-.8,.4,-2,.8,-3.4Z" class="g1_319"/>
<path d="M311.9,104.1v54" class="g9_319"/>
<path d="M312.7,159.9c.3,-1.2,.7,-2,1.1,-3.1H310c.1,.4,.7,1.9,1.1,3.1c.4,1.4,.7,2.6,.8,3.4c.1,-.8,.4,-2,.8,-3.4Z" class="g1_319"/>
<path d="M361.9,104.1v54" class="g9_319"/>
<path d="M362.7,159.9c.3,-1.2,.7,-2,1.1,-3.1h-3.9c.2,.4,.8,1.9,1.2,3.1c.4,1.4,.7,2.6,.8,3.4c.1,-.8,.4,-2,.8,-3.4Z" class="g1_319"/>
<path d="M159.1,193.4c0,3.4,2.7,6.1,6.1,6.1H373.1c3.4,0,6.2,-2.7,6.2,-6.1v-24c0,-3.4,-2.8,-6.1,-6.2,-6.1H165.2c-3.4,0,-6.1,2.7,-6.1,6.1v24Z" class="ga_319"/>
<path d="M159.1,193.4c0,3.4,2.7,6.1,6.1,6.1H373.1c3.4,0,6.2,-2.7,6.2,-6.1v-24c0,-3.4,-2.8,-6.1,-6.2,-6.1H165.2c-3.4,0,-6.1,2.7,-6.1,6.1v24Z" class="g3_319"/>
</svg>