<?xml version="1.0" encoding="UTF-8" standalone="no"?>
<!DOCTYPE svg PUBLIC "-//W3C//DTD SVG 1.1//EN"
"http://www.w3.org/Graphics/SVG/1.1/DTD/svg11.dtd">
<svg viewBox="0 0 811 1017" version="1.1" xmlns="http://www.w3.org/2000/svg" xmlns:xlink="http://www.w3.org/1999/xlink">
<defs>
<style type="text/css"><![CDATA[
.g0_520{
fill: #CCCCCC;
}
.g1_520{
fill: #476B85;
}
.g2_520{
fill: #F7F5E8;
}
]]></style>
</defs>
<path d="M536.8,277.6h-7.2c-15.8,32.6,-24.1,29.2,-57.7,29.2H411l69.8,-59.2c27.5,-21.6,65.6,-48.1,65.6,-87c0,-37.8,-28.1,-58.8,-64.2,-58.8c-33,0,-61.5,20.7,-61.5,55.7c0,12.4,5.7,33.1,12.3,33.1c1,0,2.1,-.8,2.1,-2.1c0,-2.1,-4.2,-12.4,-4.2,-24.8c0,-24.1,22.8,-40.6,45.4,-40.6c23.7,0,41,15.1,41,39.6c0,25.1,-16.9,44.4,-29.3,56.8L425.8,281L379,327.7v4.8c38.5,-.3,77,-1,115.5,-1.3c6.9,.3,13.4,1,20.3,1.3Zm67.1,58.6c34.7,0,63.6,-35.7,78.7,-63.6C698.4,244.5,709,207,709,174.7c0,-36.1,-17.1,-72.9,-58,-72.9c-34.4,0,-61.9,32.3,-77.3,59.8c-16.6,28.6,-27.8,63,-27.8,96.3c0,36.4,14.4,78.3,58,78.3ZM653.4,109.4c21.6,0,31,15.8,31,35.4c0,32.3,-10.4,71.8,-20.6,102.4c-9.4,26.8,-27.3,81.5,-61.9,81.5c-21.7,0,-31.4,-18.6,-31.4,-37.8c0,-30.3,10.8,-71.8,20.4,-101.1c8.9,-28.5,25.7,-80.4,62.5,-80.4Z" class="g0_520"/>
<path d="M252.4,235H706.1v-.3H252.4Z" class="g1_520"/>
<path d="M101.1,614H488.6V441.4H101.1Z" class="g2_520"/>
</svg>