<?xml version="1.0" encoding="UTF-8" standalone="no"?>
<!DOCTYPE svg PUBLIC "-//W3C//DTD SVG 1.1//EN"
"http://www.w3.org/Graphics/SVG/1.1/DTD/svg11.dtd">
<svg viewBox="0 0 811 1017" version="1.1" xmlns="http://www.w3.org/2000/svg" xmlns:xlink="http://www.w3.org/1999/xlink">
<defs>
<style type="text/css"><![CDATA[
.g0_166{
fill: #FFFFFF;
}
.g1_166{
fill: #C5E1B0;
}
.g2_166{
fill: #231F20;
}
]]></style>
</defs>
<path d="M90.8,827.3H686.2V502.8H90.8Z" class="g0_166"/>
<path d="M383.3,696.8h130V659.2h-130Z" class="g1_166"/>
<path d="M192.7,773.5H343.8V735.9H192.7Z" class="g1_166"/>
<path d="M383.3,759.1H512.9V721.6H383.3Z" class="g1_166"/>
<path d="M383.3,816H512.9V778.4H383.3Z" class="g1_166"/>
<path d="M551.5,696.8H656.1V659.2H551.5Z" class="g1_166"/>
<path d="M192.7,735.9v.4H343.4v36.9H193.1V735.9h-.4v.4v-.4h-.3v37.6l.1,.3l.2,.1H343.8l.3,-.1l.1,-.3V735.9l-.1,-.2l-.3,-.1H192.7l-.2,.1l-.1,.2h.3Z" class="g2_166"/>
<path d="M195,655.6v.4H341.1v36.8H195.4V655.6H195v.4v-.4h-.3v37.6l.1,.2l.2,.2H341.5l.3,-.2l.1,-.2V655.6l-.1,-.3l-.3,-.1H195l-.2,.1l-.1,.3h.3Z" class="g2_166"/>
<path d="M195,578.6v.4H341.1v36.8H195.4V578.6H195v.4v-.4h-.3v37.6l.1,.3l.2,.1H341.5l.3,-.1l.1,-.3V578.6l-.1,-.2l-.3,-.2H195l-.2,.2l-.1,.2h.3Z" class="g2_166"/>
<path d="M383.3,578.6v.4H512.5v36.8H383.7V578.6h-.4v.4v-.4h-.4v37.6l.1,.3l.3,.1H512.9l.3,-.1l.1,-.3V578.6l-.1,-.2l-.3,-.2H383.3l-.3,.2l-.1,.2h.4Z" class="g2_166"/>
<path d="M383.3,659.2v.4H512.5v36.8H383.7V659.2h-.4v.4v-.4h-.4v37.6l.1,.3l.3,.1H512.9l.3,-.1l.1,-.3V659.2l-.1,-.3l-.3,-.1H383.3l-.3,.1l-.1,.3h.4Z" class="g2_166"/>
<path d="M383.3,721.6v.3H512.5v36.9H383.7V721.6h-.4v.3v-.3h-.4v37.5l.1,.3l.3,.1H512.9l.3,-.1l.1,-.3V721.6l-.1,-.3l-.3,-.1H383.3l-.3,.1l-.1,.3h.4Z" class="g2_166"/>
<path d="M383.3,778.4v.4H512.5v36.8H383.7V778.4h-.4v.4v-.4h-.4V816l.1,.3l.3,.1H512.9l.3,-.1l.1,-.3V778.4l-.1,-.2l-.3,-.2H383.3l-.3,.2l-.1,.2h.4Z" class="g2_166"/>
<path d="M551.5,659.2v.4H655.7v36.8H551.9V659.2h-.4v.4v-.4h-.4v37.6l.1,.3l.3,.1H656.1l.3,-.1l.1,-.3V659.2l-.1,-.3l-.3,-.1H551.5l-.3,.1l-.1,.3h.4Z" class="g2_166"/>
<path d="M158.1,614.1c0,-.8,-.4,-1.6,-1,-2.1c-3.4,-2.8,-7.1,-4.6,-7.8,-5l-.2,-.2v-5.3c.7,-.5,1.1,-1.2,1.1,-2.1v-5.5c0,-2.7,-2.2,-4.9,-4.9,-4.9h-1.2c-2.7,0,-4.9,2.2,-4.9,4.9v5.5c0,.9,.4,1.6,1.1,2.1v5.3l-.2,.2c-.7,.4,-4.4,2.2,-7.8,5c-.6,.5,-1,1.3,-1,2.1v3.7H158v-3.7h.1Z" class="g2_166"/>
<path d="M126.7,587.7h-.3c-.5,-.1,-.9,-.1,-1.3,-.2c-1.4,-.4,-2.8,-1,-4.3,-2.1c-.2,-.1,-.5,-.3,-.9,-.3c-.4,0,-.7,.2,-.9,.3c-2.1,1.5,-3.9,2.2,-5.8,2.3c-.5,0,-1.3,.2,-1.3,1.4V591c0,1.3,0,2.6,0,3.8c0,.5,.1,1.1,.2,1.7c.3,1.3,.9,2.4,2,3.6c1.4,1.3,3.1,2.4,5.3,3.2c.2,.1,.3,.1,.5,.1c.2,0,.4,-.1,.5,-.1l.6,-.3c.4,-.2,.9,-.4,1.4,-.6c1.7,-.9,3,-2,4,-3.4c.9,-1.1,1.4,-2.3,1.4,-3.6c.1,-.9,.1,-1.7,.1,-2.6V589c0,-.7,-.5,-1.2,-1.2,-1.3Zm-.8,7.6c0,.9,-.3,1.8,-1,2.6c-.8,1.1,-1.9,2,-3.4,2.8c-.4,.2,-.8,.4,-1.2,.6c-.2,0,-.3,.1,-.4,.1v-7h-6.1c0,-1.1,0,-2.3,0,-3.4v-1.4c2,-.2,4,-1,6.1,-2.4v7.2H126c0,.3,-.1,.6,-.1,.9Z" class="g2_166"/>
<path d="M94.2,617.8h34.3v-3.7c0,-1.7,.7,-3.3,2,-4.3c1.1,-1,2.2,-1.7,3.3,-2.5H99.4V581.2h41V587c1.1,-.6,2.4,-.9,3.7,-.9h1.4v-4.9c0,-2.8,-2.3,-5.1,-5.1,-5.1H99.5c-2.9,0,-5.1,2.3,-5.1,5.1V607c0,.7,-.3,1.3,-.7,1.8L91.1,612c-.2,.3,-.3,.6,-.3,.9v1.5c0,1.9,1.5,3.4,3.4,3.4Zm20.2,-5.4h11v.4c0,.9,-.8,1.7,-1.7,1.7h-7.6c-.9,0,-1.7,-.7,-1.7,-1.7v-.4Z" class="g2_166"/>
<path d="M150.2,597.9l44.2,-.2v-.8l-44.2,.3Z" class="g2_166"/>
<path d="M344.5,755.6l1,-2.1l-.7,-.3l-1,2Z" class="g2_166"/>
<path d="M346.2,752.2l2,-4l-.7,-.3l-2,3.9Zm2.6,-5.3l2,-4l-.7,-.3l-2,4Zm2.6,-5.3l2,-4l-.7,-.3l-2,4Zm2.6,-5.3l2,-4l-.7,-.3l-1.9,4Zm2.7,-5.3l1.9,-4l-.7,-.3l-1.9,4Zm2.6,-5.3l2,-4l-.7,-.3l-2,4Zm2.6,-5.3l2,-4l-.7,-.3l-2,4Zm2.6,-5.3l2,-4l-.7,-.3l-2,4Zm2.6,-5.3l2,-4l-.7,-.3l-1.9,4Zm2.7,-5.3l1.9,-4l-.7,-.3l-1.9,4Zm2.6,-5.3l2,-4l-.7,-.3l-2,4Zm2.6,-5.3l2,-4l-.7,-.3l-2,4Z" class="g2_166"/>
<path d="M377.6,688.6l1,-2.1l-.6,-.3l-1.1,2.1Z" class="g2_166"/>
<path d="M379.6,688.7l1.7,-8.4l-5.7,6.4l4,2Z" class="g2_166"/>
<path d="M344.3,755.7l2.1,-.8l-.3,-.7L344,755Z" class="g2_166"/>
<path d="M347.7,754.3l3.9,-1.6l-.3,-.7l-3.9,1.6Zm5.2,-2.1l3.9,-1.6l-.3,-.7l-3.9,1.6Zm5.2,-2.2l3.9,-1.6l-.3,-.7l-3.9,1.6Zm5.2,-2.1l3.9,-1.6l-.3,-.7l-3.9,1.6Zm5.2,-2.2l3.9,-1.6l-.3,-.7l-3.9,1.6Z" class="g2_166"/>
<path d="M373.7,743.6l2.1,-.9l-.3,-.7l-2.1,.9Z" class="g2_166"/>
<path d="M375.1,745l6.8,-5.2l-8.5,1.1l1.7,4.1Z" class="g2_166"/>
<path d="M343.9,755.6l1.5,1.8l.6,-.5l-1.5,-1.8Z" class="g2_166"/>
<path d="M346.4,758.6l3.1,3.5l.6,-.5L347,758.1Zm4.2,4.7l3,3.5l.6,-.5l-3.1,-3.5Zm4.1,4.7l3.1,3.6l.6,-.5l-3.1,-3.6Zm4.1,4.8l3.1,3.5l.6,-.5l-3.1,-3.5Zm4.1,4.7l3.1,3.6l.6,-.5L363.5,777Zm4.2,4.7l3.1,3.6l.5,-.5l-3.1,-3.6Zm4.1,4.8l3.1,3.5l.6,-.5l-3.1,-3.5Z" class="g2_166"/>
<path d="M375.3,791.7l1.5,1.7l.6,-.5l-1.5,-1.7Z" class="g2_166"/>
<path d="M374.4,793.5l7.2,4.8l-3.8,-7.7l-3.4,2.9Z" class="g2_166"/>
<path d="M513.3,678.4h2.3v-.8h-2.3Z" class="g2_166"/>
<path d="M517.1,678.4h4.5v-.8h-4.5Zm6,0h4.5v-.8h-4.5Zm6,0h4.5v-.8h-4.5Zm6,0h4.5v-.8h-4.5Z" class="g2_166"/>
<path d="M541.1,678.4h2.3v-.8h-2.3Z" class="g2_166"/>
<path d="M541.9,680.2l8.3,-2.2l-8.3,-2.2v4.4Z" class="g2_166"/>
<path d="M340.7,597.8h42.1V597H340.7Z" class="g2_166"/>
<path d="M285.4,808.4c5.2,-1,9.8,-3.2,13.3,-7.6c3.5,-4.3,5.8,-10.6,6.4,-19.7h-.5c-.5,9,-2.8,15.2,-6.2,19.5c-3.4,4.2,-8,6.4,-13.1,7.3l.1,.5Z" class="g2_166"/>
<path d="M307.6,782l-2.7,-5.1l-3,4.9l5.7,.2Z" class="g2_166"/>
<path d="M570.8,546.6c13.5,20.8,33.6,42.8,33.6,89.2c0,5.6,-.3,11.7,-.9,18.1h.4c.7,-6.4,1,-12.4,1,-18.1c0,-46.5,-20.2,-68.7,-33.7,-89.4l-.4,.2Z" class="g2_166"/>
<path d="M600.9,652.8l2.4,5.2l3.3,-4.7l-5.7,-.5Z" class="g2_166"/>
<path d="M517.9,738.8c3.8,.2,6.8,1.4,8.9,3.5c2.2,2.1,3.5,5,4.1,8.7c1.8,10.9,11.9,16,18.2,18.1l.1,-.5c-6.2,-2,-16.1,-7,-17.8,-17.7c-.6,-3.7,-2,-6.8,-4.3,-9c-2.2,-2.1,-5.3,-3.4,-9.2,-3.5v.4Z" class="g2_166"/>
<path d="M518.9,741.5l-5.1,-2.7l4.9,-3l.2,5.7Z" class="g2_166"/>
<path d="M517.9,799.4c3.9,-.2,7,-1.4,9.2,-3.6c2.3,-2.2,3.7,-5.2,4.3,-9c1.7,-10.6,11.6,-15.7,17.8,-17.7l-.1,-.5c-6.3,2.1,-16.4,7.2,-18.2,18.1c-.6,3.7,-1.9,6.7,-4.1,8.8c-2.1,2,-5.1,3.2,-8.9,3.4v.5Z" class="g2_166"/>
<path d="M518.7,802l-4.9,-3.1l5.1,-2.7l-.2,5.8Z" class="g2_166"/>
<path d="M187.6,536.4c-8.6,10.3,-12.5,25.2,-12.5,46.7c0,2.6,0,5.4,.1,8.2h.5c-.1,-2.8,-.2,-5.6,-.2,-8.2c0,-21.4,4,-36.2,12.5,-46.4l-.4,-.3Z" class="g2_166"/>
<path d="M172.6,590.6l3.1,4.8l2.7,-5l-5.8,.2Z" class="g2_166"/>
<path d="M246.6,647.2h.8V616h-.8Z" class="g2_166"/>
<path d="M244.8,645.7L247,654l2.2,-8.3h-4.4Z" class="g2_166"/>
<path d="M288.7,654h.7V622.7h-.7Z" class="g2_166"/>
<path d="M286.8,624.2l2.3,-8.2l2.2,8.2h-4.5Z" class="g2_166"/>
<path d="M246.6,728.6h.8V692.3h-.8Z" class="g2_166"/>
<path d="M244.8,727.1l2.2,8.3l2.2,-8.3h-4.4Z" class="g2_166"/>
<path d="M288.7,735.4h.7V699.1h-.7Z" class="g2_166"/>
<path d="M286.8,700.6l2.3,-8.3l2.2,8.3h-4.5Z" class="g2_166"/>
</svg>