<?xml version="1.0" encoding="UTF-8" standalone="no"?>
<!DOCTYPE svg PUBLIC "-//W3C//DTD SVG 1.1//EN"
"http://www.w3.org/Graphics/SVG/1.1/DTD/svg11.dtd">
<svg viewBox="0 0 907 1045" version="1.1" xmlns="http://www.w3.org/2000/svg" xmlns:xlink="http://www.w3.org/1999/xlink">
<defs>
<clipPath id="c0_491"><path d="M-2.6,1047.7V-2.6H910.2V1047.7Z"/></clipPath>
<style type="text/css"><![CDATA[
.g0_491{
fill: #CFCFCF;
}
.g1_491{
fill: #393939;
}
.g2_491{
fill: none;
stroke: #404040;
stroke-width: 2.898;
stroke-linecap: butt;
stroke-linejoin: miter;
stroke-miterlimit: 4;
}
.g3_491{
fill: #FFFFFF;
}
.g4_491{
fill: none;
stroke: #636363;
stroke-width: 1.527;
stroke-linecap: butt;
stroke-linejoin: miter;
stroke-miterlimit: 4;
}
.g5_491{
fill: none;
stroke: #5D5D5D;
stroke-width: 1.527;
stroke-linecap: butt;
stroke-linejoin: miter;
stroke-miterlimit: 4;
}
.g6_491{
fill: none;
stroke: #FFFFFF;
stroke-width: 1.909;
stroke-linecap: butt;
stroke-linejoin: miter;
}
.g7_491{
fill: none;
stroke: #000000;
stroke-width: 0.381;
stroke-linecap: butt;
stroke-linejoin: miter;
}
]]></style>
</defs>
<path d="M156.4,538.1v45.5H355.5V538.1H156.4Z" class="g0_491"/>
<path d="M155.5,437.6V453h53.7V437.6H155.5Z" class="g0_491"/>
<path d="M183.7,518.8v15.8H728.8V518.8H183.7Z" class="g0_491"/>
<path d="M92.3,718.4V846.5H690.5V718.4H92.3Z" class="g1_491"/>
<path d="M92.3,718.4V846.5H690.5V718.4H92.3Z" class="g2_491"/>
<path d="M93.3,719.1v13.6H690V719.1H93.3Z" class="g3_491"/>
<path d="M134.4,770.2V898.3H732.5V770.2H134.4Z" class="g1_491"/>
<path d="M134.4,770.2V898.3H732.5V770.2H134.4Z" class="g2_491"/>
<path d="M135.4,770.9v13.7H732V770.9H135.4Z" class="g3_491"/>
<path d="M151.2,683.6c-2,-1,-3.8,-.9,-6,-.9c-2.5,-.2,-4.9,.2,-7.2,1.3c-2.2,1.7,-4.1,3.7,-5.7,5.9c-2.9,3.8,-4.4,7,-4.4,11.7c0,2.5,.6,5,.3,7.4c-1.5,-2,-4.2,-2.7,-5.7,-4.7c1,1.2,1.5,2.6,2.9,3.5c2.5,1.5,4.2,-.3,5.2,-1.5M396.1,939.8c9.9,2.4,24.7,-2.9,24.4,-14.8c-.1,-4.5,1.1,-9.5,.4,-13.7c-1.3,1.3,-4.6,4,-4.7,5.7c1.3,-.8,3.6,-2.1,3.6,-3.9c.9,.8,.7,2,1.4,2.9c.6,1,4.1,3.2,5.1,1.8M531.2,416.5c-6.3,-3.8,-13.5,-4.6,-20.8,-4.6c-11.8,0,-23.7,2.4,-35.2,4.7c-15.7,3.2,-31,7.9,-46.3,12.7c-11.4,3.6,-22.8,8.2,-34.6,10.4c-3.1,.6,-5.8,.9,-9,.9c-1.4,0,-2.9,-.1,-4.3,0c-.8,.1,-1.9,.6,-2.8,.4c2.4,-1.3,5.1,-2.5,7.6,-3.6c1.2,-.5,4.1,-1.9,5.5,-1.5c-2.1,1.3,-5,1.7,-7.3,2.9c-3.2,1.7,-6.5,3.5,-9.9,5c2,.6,4.2,.9,6.2,1.4c1,.3,2.5,1.4,3.4,1.3m88.1,121.1c-2.8,-.2,-5.6,1.4,-8.6,1.3c-2.5,-.1,-5,-.5,-7.5,-.8c-5.9,-.9,-12.5,-1.5,-18.1,-3.7c-7.5,-2.8,-14,-8,-21.3,-11.4c-4,-1.9,-8.2,-4,-11.9,-6.3c-.5,3.3,0,6.9,-1,10.3c-.1,-1,.8,-2.8,1.1,-3.6c.5,-2.2,0,-4.1,.2,-6.2c4,1.8,10,-1.6,14,-2.3c-.1,.3,-.2,.6,-.2,.9M346.7,647.4c-3.8,-.4,-6.8,3,-8.9,5.6c-4.3,5.4,-3.4,12.6,-3.3,19.1c.1,7.3,2,14.6,1.6,21.9c-.1,1.7,.5,5.6,-.4,7.1c-1.4,-1.7,-2.9,-3.3,-4.3,-4.9c-1.2,-1.3,-3.6,-3.3,-4,-5c2.4,.5,4.9,4.4,6.8,5.9c1.3,1,2.4,2.2,4,1.2c1.1,-.7,2,-2.6,3,-3.6M513.9,924.3c-2.2,1.4,-4,2.5,-6.4,3.4c-2,.8,-3.7,1.3,-5.9,1.3c-1.3,.1,-4.3,.5,-5.4,-.5c-1,-.9,-.9,-1.8,-1.2,-3.1c-.5,-2.4,-1.5,-3.9,-3.2,-5.8c-2,-2.2,-5.1,-4.1,-3.7,-7.4c-2.5,.6,-1.8,5.4,-2.2,7.2c-.6,-2.2,-2.8,-5.2,-.8,-7c2.1,-1.9,3.9,.5,6.2,-.6" class="g4_491"/>
<path d="M626.6,678.2c-9.2,-16.1,-37,-14.9,-40.7,5c-1.5,8.4,3,19,6.3,26.7c3.1,7,6,13.9,8.4,21.2c1.9,5.9,2.3,10.5,2.4,16.8c.1,4.4,2.3,9.9,1.1,14.2c-.4,1.4,-1.5,1.7,-2.1,3c-.7,1.5,-.6,3.5,-.9,5.1c-.6,2.7,-1,8.5,-3.2,10.2c-4.3,-3.3,-4.1,-9.5,-7.7,-13c0,1.9,.9,2.5,1.9,4c1.8,2.8,3.6,6.3,5.3,8.8c1.3,2,1.2,2.4,3.7,2.3c1.6,-1,3.2,-2.1,4.8,-3.4c3.9,-2.4,8.2,-4,12.8,-4.6" class="g5_491"/>
<g clip-path="url(#c0_491)">
<path d="M-4.5,13.7H-27.4m939.5,0H935M-4.5,1031.2H-27.4m939.5,0H935M13.7,-4.5V-27.4m0,1077v22.9m880,-1077V-27.4m0,1077v22.9" class="g6_491"/>
<path d="M-4.5,13.7H-27.4m939.5,0H935M-4.5,1031.2H-27.4m939.5,0H935M13.7,-4.5V-27.4m0,1077v22.9m880,-1077V-27.4m0,1077v22.9" class="g7_491"/>
</g>
</svg>