<?xml version="1.0" encoding="UTF-8" standalone="no"?>
<!DOCTYPE svg PUBLIC "-//W3C//DTD SVG 1.1//EN"
"http://www.w3.org/Graphics/SVG/1.1/DTD/svg11.dtd">
<svg viewBox="0 0 811 1017" version="1.1" xmlns="http://www.w3.org/2000/svg" xmlns:xlink="http://www.w3.org/1999/xlink">
<defs>
<style type="text/css"><![CDATA[
.g0_315{
fill: none;
stroke: #222326;
stroke-width: 1.144;
}
.g1_315{
fill: #211E1E;
}
.g2_315{
fill: #C6EAFA;
}
.g3_315{
fill: none;
stroke: #222326;
stroke-width: 0.759;
}
.g4_315{
fill: #FED9A1;
}
.g5_315{
fill: #65C18B;
}
.g6_315{
fill: #FED74D;
}
.g7_315{
fill: #92C4E9;
}
.g8_315{
fill: #CEBCDA;
}
.g9_315{
fill: #C8A352;
}
.ga_315{
fill: none;
stroke: #222326;
stroke-width: 0.759;
stroke-dasharray: 5,5;
}
.gb_315{
fill: none;
stroke: #222326;
stroke-width: 1.529;
}
]]></style>
</defs>
<path d="M143.3,905.4H463.6" class="g0_315"/>
<path d="M467,903.9c-2.4,-.7,-4,-1.4,-5.9,-2.1V909c.7,-.3,3.5,-1.4,5.9,-2.1c2.5,-.8,4.8,-1.3,6.3,-1.5c-1.5,-.2,-3.8,-.7,-6.3,-1.5Z" class="g1_315"/>
<path d="M170.2,788.2c0,4.3,3.5,7.7,7.7,7.7H423.1c4.3,0,7.7,-3.4,7.7,-7.7V758c0,-4.2,-3.4,-7.7,-7.7,-7.7H177.9c-4.2,0,-7.7,3.5,-7.7,7.7v30.2Z" class="g2_315"/>
<path d="M170.2,788.2c0,4.3,3.5,7.7,7.7,7.7H423.1c4.3,0,7.7,-3.4,7.7,-7.7V758c0,-4.2,-3.4,-7.7,-7.7,-7.7H177.9c-4.2,0,-7.7,3.5,-7.7,7.7v30.2Z" class="g3_315"/>
<path d="M162.8,855.5c0,4.3,3.5,7.7,7.7,7.7H432.2c4.3,0,7.7,-3.4,7.7,-7.7V825.3c0,-4.2,-3.4,-7.7,-7.7,-7.7H170.5c-4.2,0,-7.7,3.5,-7.7,7.7v30.2Z" class="g2_315"/>
<path d="M162.8,855.5c0,4.3,3.5,7.7,7.7,7.7H432.2c4.3,0,7.7,-3.4,7.7,-7.7V825.3c0,-4.2,-3.4,-7.7,-7.7,-7.7H170.5c-4.2,0,-7.7,3.5,-7.7,7.7v30.2Z" class="g3_315"/>
<path d="M218.8,774.5c0,7.3,-5.9,13.2,-13.2,13.2c-7.3,0,-13.2,-5.9,-13.2,-13.2c0,-7.3,5.9,-13.2,13.2,-13.2c7.3,0,13.2,5.9,13.2,13.2Z" class="g4_315"/>
<path d="M218.8,774.5c0,7.3,-5.9,13.2,-13.2,13.2c-7.3,0,-13.2,-5.9,-13.2,-13.2c0,-7.3,5.9,-13.2,13.2,-13.2c7.3,0,13.2,5.9,13.2,13.2Z" class="g3_315"/>
<path d="M256.1,774.5c0,7.3,-5.9,13.2,-13.1,13.2c-7.3,0,-13.2,-5.9,-13.2,-13.2c0,-7.3,5.9,-13.2,13.2,-13.2c7.2,0,13.1,5.9,13.1,13.2Z" class="g5_315"/>
<path d="M256.1,774.5c0,7.3,-5.9,13.2,-13.1,13.2c-7.3,0,-13.2,-5.9,-13.2,-13.2c0,-7.3,5.9,-13.2,13.2,-13.2c7.2,0,13.1,5.9,13.1,13.2Z" class="g3_315"/>
<path d="M293.5,774.5c0,7.3,-5.9,13.2,-13.2,13.2c-7.2,0,-13.2,-5.9,-13.2,-13.2c0,-7.3,6,-13.2,13.2,-13.2c7.3,0,13.2,5.9,13.2,13.2Z" class="g6_315"/>
<path d="M293.5,774.5c0,7.3,-5.9,13.2,-13.2,13.2c-7.2,0,-13.2,-5.9,-13.2,-13.2c0,-7.3,6,-13.2,13.2,-13.2c7.3,0,13.2,5.9,13.2,13.2Z" class="g3_315"/>
<path d="M330.9,774.5c0,7.3,-5.9,13.2,-13.2,13.2c-7.3,0,-13.2,-5.9,-13.2,-13.2c0,-7.3,5.9,-13.2,13.2,-13.2c7.3,0,13.2,5.9,13.2,13.2Z" class="g7_315"/>
<path d="M330.9,774.5c0,7.3,-5.9,13.2,-13.2,13.2c-7.3,0,-13.2,-5.9,-13.2,-13.2c0,-7.3,5.9,-13.2,13.2,-13.2c7.3,0,13.2,5.9,13.2,13.2Z" class="g3_315"/>
<path d="M368.3,774.5c0,7.3,-5.9,13.2,-13.2,13.2c-7.3,0,-13.2,-5.9,-13.2,-13.2c0,-7.3,5.9,-13.2,13.2,-13.2c7.3,0,13.2,5.9,13.2,13.2Z" class="g8_315"/>
<path d="M368.3,774.5c0,7.3,-5.9,13.2,-13.2,13.2c-7.3,0,-13.2,-5.9,-13.2,-13.2c0,-7.3,5.9,-13.2,13.2,-13.2c7.3,0,13.2,5.9,13.2,13.2Z" class="g3_315"/>
<path d="M405.7,774.5c0,7.3,-5.9,13.2,-13.2,13.2c-7.3,0,-13.2,-5.9,-13.2,-13.2c0,-7.3,5.9,-13.2,13.2,-13.2c7.3,0,13.2,5.9,13.2,13.2Z" class="g9_315"/>
<path d="M405.7,774.5c0,7.3,-5.9,13.2,-13.2,13.2c-7.3,0,-13.2,-5.9,-13.2,-13.2c0,-7.3,5.9,-13.2,13.2,-13.2c7.3,0,13.2,5.9,13.2,13.2Z" class="g3_315"/>
<path d="M205.6,795.9V811" class="ga_315"/>
<path d="M206.6,813.2c.4,-1.5,.9,-2.6,1.4,-3.9h-4.9c.3,.5,1,2.4,1.5,3.9c.5,1.7,.8,3.3,1,4.3c.1,-1,.4,-2.6,1,-4.3Z" class="g1_315"/>
<path d="M218.8,905.4c0,7.3,-5.9,13.2,-13.2,13.2c-7.3,0,-13.2,-5.9,-13.2,-13.2c0,-7.3,5.9,-13.2,13.2,-13.2c7.3,0,13.2,5.9,13.2,13.2Z" class="g4_315"/>
<path d="M218.8,905.4c0,7.3,-5.9,13.2,-13.2,13.2c-7.3,0,-13.2,-5.9,-13.2,-13.2c0,-7.3,5.9,-13.2,13.2,-13.2c7.3,0,13.2,5.9,13.2,13.2Z" class="g3_315"/>
<path d="M256.1,905.4c0,7.3,-5.9,13.2,-13.1,13.2c-7.3,0,-13.2,-5.9,-13.2,-13.2c0,-7.3,5.9,-13.2,13.2,-13.2c7.2,0,13.1,5.9,13.1,13.2Z" class="g5_315"/>
<path d="M256.1,905.4c0,7.3,-5.9,13.2,-13.1,13.2c-7.3,0,-13.2,-5.9,-13.2,-13.2c0,-7.3,5.9,-13.2,13.2,-13.2c7.2,0,13.1,5.9,13.1,13.2Z" class="g3_315"/>
<path d="M293.5,905.4c0,7.3,-5.9,13.2,-13.2,13.2c-7.2,0,-13.2,-5.9,-13.2,-13.2c0,-7.3,6,-13.2,13.2,-13.2c7.3,0,13.2,5.9,13.2,13.2Z" class="g6_315"/>
<path d="M293.5,905.4c0,7.3,-5.9,13.2,-13.2,13.2c-7.2,0,-13.2,-5.9,-13.2,-13.2c0,-7.3,6,-13.2,13.2,-13.2c7.3,0,13.2,5.9,13.2,13.2Z" class="g3_315"/>
<path d="M330.9,905.4c0,7.3,-5.9,13.2,-13.2,13.2c-7.3,0,-13.2,-5.9,-13.2,-13.2c0,-7.3,5.9,-13.2,13.2,-13.2c7.3,0,13.2,5.9,13.2,13.2Z" class="g7_315"/>
<path d="M330.9,905.4c0,7.3,-5.9,13.2,-13.2,13.2c-7.3,0,-13.2,-5.9,-13.2,-13.2c0,-7.3,5.9,-13.2,13.2,-13.2c7.3,0,13.2,5.9,13.2,13.2Z" class="g3_315"/>
<path d="M368.3,905.4c0,7.3,-5.9,13.2,-13.2,13.2c-7.3,0,-13.2,-5.9,-13.2,-13.2c0,-7.3,5.9,-13.2,13.2,-13.2c7.3,0,13.2,5.9,13.2,13.2Z" class="g8_315"/>
<path d="M368.3,905.4c0,7.3,-5.9,13.2,-13.2,13.2c-7.3,0,-13.2,-5.9,-13.2,-13.2c0,-7.3,5.9,-13.2,13.2,-13.2c7.3,0,13.2,5.9,13.2,13.2Z" class="g3_315"/>
<path d="M405.7,905.4c0,7.3,-5.9,13.2,-13.2,13.2c-7.3,0,-13.2,-5.9,-13.2,-13.2c0,-7.3,5.9,-13.2,13.2,-13.2c7.3,0,13.2,5.9,13.2,13.2Z" class="g9_315"/>
<path d="M405.7,905.4c0,7.3,-5.9,13.2,-13.2,13.2c-7.3,0,-13.2,-5.9,-13.2,-13.2c0,-7.3,5.9,-13.2,13.2,-13.2c7.3,0,13.2,5.9,13.2,13.2Z" class="g3_315"/>
<path d="M205.6,863.2v22.5" class="ga_315"/>
<path d="M206.6,887.9c.4,-1.6,.9,-2.6,1.4,-3.9h-4.9c.3,.5,1,2.3,1.5,3.9c.5,1.7,.8,3.3,1,4.3c.1,-1,.4,-2.6,1,-4.3Z" class="g1_315"/>
<path d="M243,863.2v22.5" class="ga_315"/>
<path d="M243.9,887.9c.5,-1.6,1,-2.6,1.5,-3.9h-4.9c.2,.5,1,2.3,1.5,3.9c.5,1.7,.8,3.3,.9,4.3c.2,-1,.5,-2.6,1,-4.3Z" class="g1_315"/>
<path d="M280.3,863.2v22.5" class="ga_315"/>
<path d="M281.3,887.9c.5,-1.6,.9,-2.6,1.5,-3.9h-4.9c.2,.5,1,2.3,1.4,3.9c.6,1.7,.9,3.3,1,4.3c.2,-1,.5,-2.6,1,-4.3Z" class="g1_315"/>
<path d="M317.7,863.2v22.5" class="ga_315"/>
<path d="M318.7,887.9c.5,-1.6,.9,-2.6,1.4,-3.9h-4.8c.2,.5,.9,2.3,1.4,3.9c.5,1.7,.9,3.3,1,4.3c.1,-1,.5,-2.6,1,-4.3Z" class="g1_315"/>
<path d="M355.1,863.2v22.5" class="ga_315"/>
<path d="M356.1,887.9c.5,-1.6,.9,-2.6,1.4,-3.9h-4.8c.2,.5,.9,2.3,1.4,3.9c.5,1.7,.9,3.3,1,4.3c.1,-1,.5,-2.6,1,-4.3Z" class="g1_315"/>
<path d="M392.5,863.2v22.5" class="ga_315"/>
<path d="M393.5,887.9c.5,-1.6,.9,-2.6,1.4,-3.9h-4.8c.2,.5,.9,2.3,1.4,3.9c.5,1.7,.9,3.3,1,4.3c.1,-1,.5,-2.6,1,-4.3Z" class="g1_315"/>
<path d="M410.3,780.4h3.1V768.6h-3.1M187,780.4h-3.2V768.6H187" class="g3_315"/>
<path d="M419.3,918.6V892.2" class="gb_315"/>
</svg>