<?xml version="1.0" encoding="UTF-8" standalone="no"?>
<!DOCTYPE svg PUBLIC "-//W3C//DTD SVG 1.1//EN"
"http://www.w3.org/Graphics/SVG/1.1/DTD/svg11.dtd">
<svg viewBox="0 0 931 1096" version="1.1" xmlns="http://www.w3.org/2000/svg" xmlns:xlink="http://www.w3.org/1999/xlink">
<defs>
<clipPath id="c0_321"><path d="M591.8,562.3V527.5h60.8v34.8Z"/></clipPath>
<clipPath id="c1_321"><path d="M494.9,645.8V611.2H679.8v34.6Z"/></clipPath>
<style type="text/css"><![CDATA[
.g0_321{
fill: #D0007A;
}
.g1_321{
fill: #FFF;
}
.g2_321{
fill: none;
stroke: #00AEEF;
stroke-width: 0.763;
}
.g3_321{
fill: none;
stroke: #241F1F;
stroke-width: 0.763;
stroke-miterlimit: 10;
}
.g4_321{
fill: none;
stroke: #241F1F;
stroke-width: 0.534;
stroke-miterlimit: 10;
}
]]></style>
</defs>
<path d="M343.8,97.6c0,0,-1.6,0,-1.6,1.5v9.2c0,0,0,1.5,1.6,1.5h9.1c0,0,1.6,0,1.6,-1.5V99.1c0,0,0,-1.5,-1.6,-1.5Z" class="g0_321"/>
<path d="M345.7,233.9c0,0,-3.1,0,-3.1,3.1V367.6c0,0,0,3.1,3.1,3.1H875.1c0,0,3,0,3,-3.1V237c0,0,0,-3.1,-3,-3.1Z" class="g1_321"/>
<path d="M345.7,233.9c0,0,-3.1,0,-3.1,3.1V367.6c0,0,0,3.1,3.1,3.1H875.1c0,0,3,0,3,-3.1V237c0,0,0,-3.1,-3,-3.1H345.7Z" class="g2_321"/>
<path clip-path="url(#c0_321)" d="M613.3,544.8H653" class="g3_321"/>
<path d="M495.3,627.3h57m21.9,0H641" class="g3_321"/>
<path clip-path="url(#c1_321)" d="M662.9,627.3h17.3" class="g3_321"/>
<path d="M525.2,679.3h17.3m21.9,0h12.2m68.6,0h17.3M458.4,781.6h17.3m21.9,0h17.3m21.9,0h17.3m21.9,0h17.3m21.8,0h17.3m21.9,0h17.3m21.9,0h17.3m21.8,0h17.3" class="g3_321"/>
<path d="M517.3,827.4h5.4m22.3,0h5.4m22.2,0h10.8m20.7,0h16.1m20.8,0h16.1m20.7,0h21.5M566.8,873.2h21.5m19.9,0h21.5M552.1,919h5.4m22.2,0h5.4m19.2,0h10.8m19.2,0h16.1m19.2,0h16.1" class="g4_321"/>
</svg>