<?xml version="1.0" encoding="UTF-8" standalone="no"?>
<!DOCTYPE svg PUBLIC "-//W3C//DTD SVG 1.1//EN"
"http://www.w3.org/Graphics/SVG/1.1/DTD/svg11.dtd">
<svg viewBox="0 0 931 1096" version="1.1" xmlns="http://www.w3.org/2000/svg" xmlns:xlink="http://www.w3.org/1999/xlink">
<defs>
<clipPath id="c0_293"><path d="M0,593V94.8H879.4V593Z"/></clipPath>
<clipPath id="c1_293"><path d="M107,658.7V625.1H880v33.6Z"/></clipPath>
<style type="text/css"><![CDATA[
.g0_293{
fill: #00AEEF;
}
.g1_293{
fill: none;
stroke: #008048;
stroke-width: 3.055;
stroke-miterlimit: 10;
}
.g2_293{
fill: none;
stroke: #241F1F;
stroke-width: 0.481;
stroke-miterlimit: 10;
}
.g3_293{
fill: none;
stroke: #241F1F;
stroke-width: 0.763;
stroke-miterlimit: 10;
}
.g4_293{
fill: none;
stroke: #00AEEF;
stroke-width: 1.145;
}
]]></style>
</defs>
<image clip-path="url(#c0_293)" preserveAspectRatio="none" x="0" y="95" width="879" height="498" xlink:href="img/1.png"/>
<path d="M328.8,121.9h20.6V109H328.8v12.9Z" class="g0_293"/>
<path d="M108.5,132.7H864.7" class="g1_293"/>
<path d="M625.7,392.7h4.8" class="g2_293"/>
<image clip-path="url(#c1_293)" preserveAspectRatio="none" x="107" y="625" width="773" height="34" xlink:href="img/2.png"/>
<path d="M444.4,801.2h19.8m21.9,0h26m21.9,0h25.9m21.9,0h26m21.8,0h26m21.9,0h25.9m21.9,0h25.2m21.9,0h25.9" class="g3_293"/>
<path d="M356.6,918.6c0,0,-1.6,0,-1.6,1.5v14.1c0,0,0,1.5,1.6,1.5h14.1c0,0,1.5,0,1.5,-1.5V920.1c0,0,0,-1.5,-1.5,-1.5H356.6Z" class="g4_293"/>
</svg>