<?xml version="1.0" encoding="UTF-8" standalone="no"?>
<!DOCTYPE svg PUBLIC "-//W3C//DTD SVG 1.1//EN"
"http://www.w3.org/Graphics/SVG/1.1/DTD/svg11.dtd">
<svg viewBox="0 0 660 990" version="1.1" xmlns="http://www.w3.org/2000/svg" xmlns:xlink="http://www.w3.org/1999/xlink">
<defs>
<clipPath id="c0_89"><path d="M86.9,214l-1.2,-2.3l-1.2,-2.4h491l-1.2,2.4l-1.2,2.3Z"/></clipPath>
<clipPath id="c1_89"><path d="M576.5,654.5l-2.3,-1.2l-2.4,-1.2V212.7l2.4,-1.1l2.3,-1.2V654.5Z"/></clipPath>
<clipPath id="c2_89"><path d="M84.5,655.6l1.2,-2.4l1.2,-2.4H573.1l1.2,2.4l1.2,2.4Z"/></clipPath>
<clipPath id="c3_89"><path d="M83.5,654.5V210.4l2.3,1.2l2.4,1.1V652.1l-2.4,1.2l-2.3,1.2Z"/></clipPath>
<clipPath id="c4_89"><path d="M85.6,915.9v-5.1H574.4v5.1Z"/></clipPath>
<clipPath id="c5_89"><path d="M252.1,323.7V310h13.7v13.7Z"/></clipPath>
<clipPath id="c6_89"><path d="M222.8,368.3V354.5h13.8v13.8Z"/></clipPath>
<clipPath id="c7_89"><path d="M269.6,454.9V441.2h13.7v13.7Z"/></clipPath>
<clipPath id="c8_89"><path d="M298.8,471.4V457.7h13.8v13.7Z"/></clipPath>
<clipPath id="c9_89"><path d="M97.5,533.9V520.1h13.8v13.8Z"/></clipPath>
<clipPath id="ca_89"><path d="M97.5,567.3V553.5h13.8v13.8Z"/></clipPath>
<clipPath id="cb_89"><path d="M97.5,600.7V587h13.8v13.7Z"/></clipPath>
<clipPath id="cc_89"><path d="M97.5,634.2V620.4h13.8v13.8Z"/></clipPath>
<style type="text/css"><![CDATA[
.g0_89{
fill: none;
stroke: #231F20;
stroke-width: 0.381;
stroke-linecap: round;
stroke-linejoin: miter;
}
.g1_89{
fill: #FFFFFF;
}
.g2_89{
fill: #231F20;
}
.g3_89{
fill: none;
stroke: #231F20;
stroke-width: 1.527;
stroke-linecap: butt;
stroke-linejoin: miter;
stroke-miterlimit: 4;
}
.g4_89{
fill: none;
stroke: #231F20;
stroke-width: 0.763;
stroke-linecap: round;
stroke-linejoin: miter;
}
]]></style>
</defs>
<path clip-path="url(#c0_89)" d="M85.6,211.7H574.4" class="g0_89"/>
<path clip-path="url(#c1_89)" d="M574.2,211.5V653.4" class="g0_89"/>
<path clip-path="url(#c2_89)" d="M574.4,653.2H85.6" class="g0_89"/>
<path clip-path="url(#c3_89)" d="M85.8,653.4V211.5" class="g0_89"/>
<path fill-rule="evenodd" d="M597.3,913H660v77H597.3V913Z" class="g1_89"/>
<path fill-rule="evenodd" d="M597.3,354.2H660v92.4H597.3V354.2Z" class="g2_89"/>
<path fill-rule="evenodd" d="M597.3,0H660V77H597.3V0Z" class="g1_89"/>
<path clip-path="url(#c4_89)" d="M85.6,913.4H574.4" class="g4_89"/>
<g clip-path="url(#c5_89)">
<path d="M258.9,311.5c3,0,5.4,2.4,5.4,5.4c0,2.9,-2.4,5.3,-5.4,5.3c-2.9,0,-5.3,-2.4,-5.3,-5.3c0,-3,2.4,-5.4,5.3,-5.4Z" class="g2_89"/>
<path d="M258.9,311.5c3,0,5.4,2.4,5.4,5.4c0,2.9,-2.4,5.3,-5.4,5.3c-2.9,0,-5.3,-2.4,-5.3,-5.3c0,-3,2.4,-5.4,5.3,-5.4Z" class="g3_89"/>
<path d="M256.9,314.8h.2c1.3,0,1.6,-.6,1.6,-1.1h1.1v6.6h-1.3v-4.6h-1.6v-.9Z" class="g1_89"/>
</g>
<g clip-path="url(#c6_89)">
<path d="M229.7,356.1c3,0,5.4,2.4,5.4,5.3c0,3,-2.4,5.4,-5.4,5.4c-2.9,0,-5.3,-2.4,-5.3,-5.4c0,-2.9,2.4,-5.3,5.3,-5.3Z" class="g2_89"/>
<path d="M229.7,356.1c3,0,5.4,2.4,5.4,5.3c0,3,-2.4,5.4,-5.4,5.4c-2.9,0,-5.3,-2.4,-5.3,-5.4c0,-2.9,2.4,-5.3,5.3,-5.3Z" class="g3_89"/>
<path d="M227.4,360c0,-2.1,1.6,-2.3,2.2,-2.3c1.3,0,2.3,.7,2.3,2.1c0,1.1,-.8,1.7,-1.4,2.1c-.9,.6,-1.3,.9,-1.5,1.3h2.9v1.1h-4.5c0,-.8,.1,-1.6,1.5,-2.6c1.2,-.9,1.7,-1.2,1.7,-2c0,-.4,-.3,-.9,-.9,-.9c-1,0,-1,.7,-1,1.2h-1.3Z" class="g1_89"/>
</g>
<g clip-path="url(#c7_89)">
<path d="M276.5,442.7c2.9,0,5.3,2.4,5.3,5.3c0,3,-2.4,5.4,-5.3,5.4c-3,0,-5.4,-2.4,-5.4,-5.4c0,-2.9,2.4,-5.3,5.4,-5.3Z" class="g2_89"/>
<path d="M276.5,442.7c2.9,0,5.3,2.4,5.3,5.3c0,3,-2.4,5.4,-5.3,5.4c-3,0,-5.4,-2.4,-5.4,-5.4c0,-2.9,2.4,-5.3,5.4,-5.3Z" class="g3_89"/>
<path d="M276,447.2h.2c.4,0,1.1,0,1.1,-.9c0,-.2,-.1,-.8,-.8,-.8c-.9,0,-.9,.8,-.9,1h-1.2c0,-1.2,.7,-2.1,2.2,-2.1c.9,0,2,.5,2,1.9c0,.6,-.4,1.1,-.8,1.2c.3,.1,1,.5,1,1.6c0,1.2,-.9,2.1,-2.2,2.1c-.7,0,-2.3,-.1,-2.3,-2.2h1.2c0,.4,.1,1.2,1,1.2c.5,0,1,-.4,1,-1.1c0,-.9,-.9,-1,-1.5,-1v-.9Z" class="g1_89"/>
</g>
<g clip-path="url(#c8_89)">
<path d="M305.7,459.2c2.9,0,5.3,2.4,5.3,5.3c0,3,-2.4,5.4,-5.3,5.4c-3,0,-5.4,-2.4,-5.4,-5.4c0,-2.9,2.4,-5.3,5.4,-5.3Z" class="g2_89"/>
<path d="M305.7,459.2c2.9,0,5.3,2.4,5.3,5.3c0,3,-2.4,5.4,-5.3,5.4c-3,0,-5.4,-2.4,-5.4,-5.4c0,-2.9,2.4,-5.3,5.4,-5.3Z" class="g3_89"/>
<path d="M305.4,464.9c0,-1.6,.1,-2.6,.1,-2.8h-.1l-1.6,2.8h1.6Zm2.1,1.1h-.8v1.4h-1.3V466h-2.6v-1.2l2.5,-4h1.4v4.1h.8V466Z" class="g1_89"/>
</g>
<g clip-path="url(#c9_89)">
<path d="M104.4,521.6c2.9,0,5.3,2.4,5.3,5.4c0,2.9,-2.4,5.3,-5.3,5.3c-3,0,-5.4,-2.4,-5.4,-5.3c0,-3,2.4,-5.4,5.4,-5.4Z" class="g2_89"/>
<path d="M104.4,521.6c2.9,0,5.3,2.4,5.3,5.4c0,2.9,-2.4,5.3,-5.3,5.3c-3,0,-5.4,-2.4,-5.4,-5.3c0,-3,2.4,-5.4,5.4,-5.4Z" class="g3_89"/>
<path d="M102.4,524.9h.2c1.2,0,1.6,-.6,1.6,-1.1h1.1v6.6h-1.4v-4.5h-1.5v-1Z" class="g1_89"/>
</g>
<g clip-path="url(#ca_89)">
<path d="M104.4,555.1c2.9,0,5.3,2.4,5.3,5.3c0,3,-2.4,5.4,-5.3,5.4c-3,0,-5.4,-2.4,-5.4,-5.4c0,-2.9,2.4,-5.3,5.4,-5.3Z" class="g2_89"/>
<path d="M104.4,555.1c2.9,0,5.3,2.4,5.3,5.3c0,3,-2.4,5.4,-5.3,5.4c-3,0,-5.4,-2.4,-5.4,-5.4c0,-2.9,2.4,-5.3,5.4,-5.3Z" class="g3_89"/>
<path d="M102.1,559c0,-2.1,1.6,-2.3,2.2,-2.3c1.3,0,2.3,.7,2.3,2.1c0,1.1,-.8,1.7,-1.4,2.1c-.9,.6,-1.4,.9,-1.5,1.3h2.9v1.1H102c.1,-.8,.1,-1.6,1.6,-2.6c1.2,-.9,1.7,-1.2,1.7,-2c0,-.4,-.3,-.9,-1,-.9c-.9,0,-.9,.7,-.9,1.2h-1.3Z" class="g1_89"/>
</g>
<g clip-path="url(#cb_89)">
<path d="M104.4,588.5c2.9,0,5.3,2.4,5.3,5.3c0,3,-2.4,5.4,-5.3,5.4c-3,0,-5.4,-2.4,-5.4,-5.4c0,-2.9,2.4,-5.3,5.4,-5.3Z" class="g2_89"/>
<path d="M104.4,588.5c2.9,0,5.3,2.4,5.3,5.3c0,3,-2.4,5.4,-5.3,5.4c-3,0,-5.4,-2.4,-5.4,-5.4c0,-2.9,2.4,-5.3,5.4,-5.3Z" class="g3_89"/>
<path d="M103.9,593h.2c.4,0,1.2,0,1.2,-.9c0,-.2,-.2,-.8,-.9,-.8c-.9,0,-.9,.8,-.9,1h-1.2c0,-1.2,.7,-2.1,2.2,-2.1c.9,0,2.1,.5,2.1,1.9c0,.6,-.5,1.1,-.8,1.2c.2,.1,1,.5,1,1.6c0,1.2,-1,2.1,-2.3,2.1c-.6,0,-2.3,-.1,-2.3,-2.2h1.3c0,.4,.1,1.2,.9,1.2c.6,0,1,-.4,1,-1.1c0,-.9,-.9,-1,-1.5,-1V593Z" class="g1_89"/>
</g>
<g clip-path="url(#cc_89)">
<path d="M104.4,621.9c2.9,0,5.3,2.4,5.3,5.4c0,2.9,-2.4,5.3,-5.3,5.3c-3,0,-5.4,-2.4,-5.4,-5.3c0,-3,2.4,-5.4,5.4,-5.4Z" class="g2_89"/>
<path d="M104.4,621.9c2.9,0,5.3,2.4,5.3,5.4c0,2.9,-2.4,5.3,-5.3,5.3c-3,0,-5.4,-2.4,-5.4,-5.3c0,-3,2.4,-5.4,5.4,-5.4Z" class="g3_89"/>
<path d="M104.1,627.7c0,-1.6,.1,-2.7,.1,-2.9l-1.7,2.9h1.6Zm2.1,1h-.7v1.5h-1.4v-1.5h-2.6v-1.1l2.5,-4.1h1.5v4.2h.7v1Z" class="g1_89"/>
</g>
</svg>