<?xml version="1.0" encoding="UTF-8" standalone="no"?>
<!DOCTYPE svg PUBLIC "-//W3C//DTD SVG 1.1//EN"
"http://www.w3.org/Graphics/SVG/1.1/DTD/svg11.dtd">
<svg viewBox="0 0 931 1096" version="1.1" xmlns="http://www.w3.org/2000/svg" xmlns:xlink="http://www.w3.org/1999/xlink">
<defs>
<clipPath id="c0_196"><path d="M53.5,1024.4V843.5H265.2v180.9Z"/></clipPath>
<style type="text/css"><![CDATA[
.g0_196{
fill: none;
stroke: #00AEEF;
stroke-width: 1.145;
}
.g1_196{
fill: none;
stroke: #00AEEF;
stroke-width: 0.763;
stroke-linejoin: round;
}
.g2_196{
fill: none;
stroke: #EE008C;
stroke-width: 0.763;
stroke-linejoin: round;
}
.g3_196{
fill: none;
stroke: #241F1F;
stroke-width: 0.611;
stroke-miterlimit: 3;
}
.g4_196{
fill: #241F1F;
}
.g5_196{
fill: none;
stroke: #241F1F;
stroke-width: 0.763;
stroke-linejoin: round;
}
.g6_196{
fill: none;
stroke: #241F1F;
stroke-width: 0.381;
stroke-miterlimit: 3;
}
.g7_196{
fill: #C2AB73;
}
.g8_196{
fill: #C4A975;
}
.g9_196{
fill: #BDAD77;
}
.ga_196{
fill: #C7AB78;
}
.gb_196{
fill: #CAAB79;
}
.gc_196{
fill: #C0AE7A;
}
.gd_196{
fill: #C3AD78;
}
.ge_196{
fill: #B9AC79;
}
.gf_196{
fill: #BCB180;
}
.gg_196{
fill: #C7A678;
}
.gh_196{
fill: #CBB07C;
}
.gi_196{
fill: #C8B17D;
}
.gj_196{
fill: #CAA67A;
}
.gk_196{
fill: #CEAE7E;
}
.gl_196{
fill: #CEA97D;
}
.gm_196{
fill: #D1AD7F;
}
.gn_196{
fill: #C3B381;
}
.go_196{
fill: #C1B584;
}
.gp_196{
fill: #BAB384;
}
.gq_196{
fill: #BCB88D;
}
.gr_196{
fill: #D1B382;
}
.gs_196{
fill: #CFB482;
}
.gt_196{
fill: #D0A880;
}
.gu_196{
fill: #C8B787;
}
.gv_196{
fill: #CAB684;
}
.gw_196{
fill: #B5B58E;
}
.gx_196{
fill: #D6B186;
}
.gy_196{
fill: #D8B188;
}
.gz_196{
fill: #D5AC86;
}
.g10_196{
fill: #CEA581;
}
.g11_196{
fill: #D6B78A;
}
.g12_196{
fill: #D8B78D;
}
.g13_196{
fill: #CFBA8B;
}
.g14_196{
fill: #D1B98B;
}
.g15_196{
fill: #D7AC8A;
}
.g16_196{
fill: #D5A88B;
}
.g17_196{
fill: #D0A487;
}
.g18_196{
fill: #C4BA8D;
}
.g19_196{
fill: #C2BC94;
}
.g1a_196{
fill: #BAB993;
}
.g1b_196{
fill: #BEBFA2;
}
.g1c_196{
fill: #DDB593;
}
.g1d_196{
fill: #DCB092;
}
.g1e_196{
fill: #E0B597;
}
.g1f_196{
fill: #CBBD92;
}
.g1g_196{
fill: #C9BE98;
}
.g1h_196{
fill: #B3B795;
}
.g1i_196{
fill: #B6BDA3;
}
.g1j_196{
fill: #D7BE97;
}
.g1k_196{
fill: #D9BD96;
}
.g1l_196{
fill: #DEBC99;
}
.g1m_196{
fill: #E2BB9B;
}
.g1n_196{
fill: #D7A892;
}
.g1o_196{
fill: #CDA08C;
}
.g1p_196{
fill: #E0B199;
}
.g1q_196{
fill: #DDAC98;
}
.g1r_196{
fill: #D0C19E;
}
.g1s_196{
fill: #D2C09B;
}
.g1t_196{
fill: #D0A194;
}
.g1u_196{
fill: #D5A496;
}
.g1v_196{
fill: #E6BAA3;
}
.g1w_196{
fill: #E2C2A5;
}
.g1x_196{
fill: #DFC2A4;
}
.g1y_196{
fill: #E8BBA9;
}
.g1z_196{
fill: #E5B6A3;
}
.g20_196{
fill: #E0AC9F;
}
.g21_196{
fill: #DAC4A6;
}
.g22_196{
fill: #D9C5A9;
}
.g23_196{
fill: #E6C0AA;
}
.g24_196{
fill: #E9C1AD;
}
.g25_196{
fill: #C5C2A4;
}
.g26_196{
fill: #C3C4AB;
}
.g27_196{
fill: #BCC1AB;
}
.g28_196{
fill: #C0C8BD;
}
.g29_196{
fill: #E7B6AA;
}
.g2a_196{
fill: #E4B1A6;
}
.g2b_196{
fill: #DCA79F;
}
.g2c_196{
fill: #D7A49C;
}
.g2d_196{
fill: #CBC7B0;
}
.g2e_196{
fill: #CDC4A8;
}
.g2f_196{
fill: #B5BFAC;
}
.g2g_196{
fill: #B0BBA7;
}
.g2h_196{
fill: #B8C5BD;
}
.g2i_196{
fill: #EAC7B7;
}
.g2j_196{
fill: #E7C8B5;
}
.g2k_196{
fill: #D2CAB6;
}
.g2l_196{
fill: #D4C8B0;
}
.g2m_196{
fill: #E0C9B6;
}
.g2n_196{
fill: #E3C9B5;
}
.g2o_196{
fill: #ADBDB0;
}
.g2p_196{
fill: #AEC2BF;
}
.g2q_196{
fill: #EDC1B6;
}
.g2r_196{
fill: #E6AFAB;
}
.g2s_196{
fill: #ECBBB3;
}
.g2t_196{
fill: #EFC0BA;
}
.g2u_196{
fill: #E3AAAB;
}
.g2v_196{
fill: #DFA7A6;
}
.g2w_196{
fill: #D49F9F;
}
.g2x_196{
fill: #EEC8BE;
}
.g2y_196{
fill: #F0C6BF;
}
.g2z_196{
fill: #EBB4B3;
}
.g30_196{
fill: #EEB9B7;
}
.g31_196{
fill: #DCCCBB;
}
.g32_196{
fill: #DACEC0;
}
.g33_196{
fill: #DAA1A8;
}
.g34_196{
fill: #D59EA6;
}
.g35_196{
fill: #EBD0C7;
}
.g36_196{
fill: #E9D1C7;
}
.g37_196{
fill: #C5CEC8;
}
.g38_196{
fill: #C8CBC0;
}
.g39_196{
fill: #BDCAC6;
}
.g3a_196{
fill: #BED0DA;
}
.g3b_196{
fill: #F0CEC8;
}
.g3c_196{
fill: #EFCEC8;
}
.g3d_196{
fill: #E4AAB1;
}
.g3e_196{
fill: #ECB2B9;
}
.g3f_196{
fill: #E9ADB8;
}
.g3g_196{
fill: #CDD1CD;
}
.g3h_196{
fill: #CFCFC5;
}
.g3i_196{
fill: #B5C7C7;
}
.g3j_196{
fill: #B5CDD9;
}
.g3k_196{
fill: #E4D2CA;
}
.g3l_196{
fill: #E2D3CD;
}
.g3m_196{
fill: #F3C5C5;
}
.g3n_196{
fill: #F2BEC2;
}
.g3o_196{
fill: #F4C3C9;
}
.g3p_196{
fill: #E1A5B4;
}
.g3q_196{
fill: #DCA1B0;
}
.g3r_196{
fill: #D4D4D2;
}
.g3s_196{
fill: #D6D2CC;
}
.g3t_196{
fill: #F5CBCF;
}
.g3u_196{
fill: #F4CBCC;
}
.g3v_196{
fill: #A6C0C4;
}
.g3w_196{
fill: #ABC4CA;
}
.g3x_196{
fill: #ACCADC;
}
.g3y_196{
fill: #F0B8C3;
}
.g3z_196{
fill: #F3BDC7;
}
.g40_196{
fill: #F1D4D6;
}
.g41_196{
fill: #EFD5D6;
}
.g42_196{
fill: #DDD6D7;
}
.g43_196{
fill: #DBD8DC;
}
.g44_196{
fill: #E9D8DB;
}
.g45_196{
fill: #EBD7D8;
}
.g46_196{
fill: #EAADBF;
}
.g47_196{
fill: #A2C2D0;
}
.g48_196{
fill: #F5D1D8;
}
.g49_196{
fill: #F4D3D6;
}
.g4a_196{
fill: #F1B7C9;
}
.g4b_196{
fill: #EEB1C7;
}
.g4c_196{
fill: #E7A8C1;
}
.g4d_196{
fill: #E2A3BB;
}
.g4e_196{
fill: #F9D4E1;
}
.g4f_196{
fill: #F9D0DD;
}
.g4g_196{
fill: #D89CB5;
}
.g4h_196{
fill: #F8D7E4;
}
.g4i_196{
fill: #F8DBE8;
}
.g4j_196{
fill: #F9CEDC;
}
.g4k_196{
fill: #F8CAD8;
}
.g4l_196{
fill: #F6D9E4;
}
.g4m_196{
fill: #F3DAE5;
}
.g4n_196{
fill: #7F93BB;
}
.g4o_196{
fill: #F9C8D9;
}
.g4p_196{
fill: #F5E0EB;
}
.g4q_196{
fill: #F7C3D4;
}
.g4r_196{
fill: #F4E1EB;
}
.g4s_196{
fill: #F2DEE7;
}
.g4t_196{
fill: #F7C0D5;
}
.g4u_196{
fill: #F0E0E9;
}
.g4v_196{
fill: #7B98BD;
}
.g4w_196{
fill: #F2E6F0;
}
.g4x_196{
fill: #F2E7F1;
}
.g4y_196{
fill: #F4BBD2;
}
.g4z_196{
fill: #EDE3EC;
}
.g50_196{
fill: #7A9DBF;
}
.g51_196{
fill: #F4B9D3;
}
.g52_196{
fill: #F3B6D1;
}
.g53_196{
fill: #ECE4ED;
}
.g54_196{
fill: #E8E0E7;
}
.g55_196{
fill: #E7E2EA;
}
.g56_196{
fill: #E9E7F2;
}
.g57_196{
fill: #EFB1CE;
}
.g58_196{
fill: #E7E6F2;
}
.g59_196{
fill: #7CA0BD;
}
.g5a_196{
fill: #E1E2ED;
}
.g5b_196{
fill: #ECADCB;
}
.g5c_196{
fill: #7C9BB8;
}
.g5d_196{
fill: #DEE1EE;
}
.g5e_196{
fill: #D8DDE8;
}
.g5f_196{
fill: #C6D3DC;
}
.g5g_196{
fill: #C5D6E4;
}
.g5h_196{
fill: #E8A9C9;
}
.g5i_196{
fill: #BCD2E3;
}
.g5j_196{
fill: #C0D7EE;
}
.g5k_196{
fill: #D5DCEA;
}
.g5l_196{
fill: #E4A6C8;
}
.g5m_196{
fill: #D1D9E5;
}
.g5n_196{
fill: #CEDBEB;
}
.g5o_196{
fill: #78ABD3;
}
.g5p_196{
fill: #E2A4C7;
}
.g5q_196{
fill: #CEDDF1;
}
.g5r_196{
fill: #DFA0C2;
}
.g5s_196{
fill: #DB9DC0;
}
.g5t_196{
fill: #C9DBF0;
}
.g5u_196{
fill: #7AA5C6;
}
.g5v_196{
fill: #78A2C5;
}
.g5w_196{
fill: #C4D9F0;
}
.g5x_196{
fill: #D79AC2;
}
.g5y_196{
fill: #B3CFE4;
}
.g5z_196{
fill: #B5D4EE;
}
.g60_196{
fill: #BBD5EE;
}
.g61_196{
fill: #D499C2;
}
.g62_196{
fill: #7E97B8;
}
.g63_196{
fill: #BD8FAF;
}
.g64_196{
fill: #D297BE;
}
.g65_196{
fill: #B2D2EE;
}
.g66_196{
fill: #87BAE0;
}
.g67_196{
fill: #7DADCE;
}
.g68_196{
fill: #9D8CAD;
}
.g69_196{
fill: #9F8CB1;
}
.g6a_196{
fill: #C491B2;
}
.g6b_196{
fill: #BF8FB7;
}
.g6c_196{
fill: #B1D2ED;
}
.g6d_196{
fill: #B78DAE;
}
.g6e_196{
fill: #B98EB5;
}
.g6f_196{
fill: #7FB2D5;
}
.g6g_196{
fill: #85B4D3;
}
.g6h_196{
fill: #7DB4DF;
}
.g6i_196{
fill: #CD96BE;
}
.g6j_196{
fill: #CA94BA;
}
.g6k_196{
fill: #ABCDE7;
}
.g6l_196{
fill: #A5C9E2;
}
.g6m_196{
fill: #C692BC;
}
.g6n_196{
fill: #C390C0;
}
.g6o_196{
fill: #C290C0;
}
.g6p_196{
fill: #A0C8E6;
}
.g6q_196{
fill: #878FB4;
}
.g6r_196{
fill: #8490B6;
}
.g6s_196{
fill: #9AC5E4;
}
.g6t_196{
fill: #BE8FBF;
}
.g6u_196{
fill: #BB8FBF;
}
.g6v_196{
fill: #96C4E7;
}
.g6w_196{
fill: #B38CB6;
}
.g6x_196{
fill: #B08CAF;
}
.g6y_196{
fill: #B88EBE;
}
.g6z_196{
fill: #8F8DB4;
}
.g70_196{
fill: #8D8DB3;
}
.g71_196{
fill: #B58DBF;
}
.g72_196{
fill: #92C2E6;
}
.g73_196{
fill: #8DBEE1;
}
.g74_196{
fill: #B28CBF;
}
.g75_196{
fill: #AE8CBF;
}
.g76_196{
fill: #77A7CF;
}
.g77_196{
fill: #AC8CBA;
}
.g78_196{
fill: #83BAE3;
}
.g79_196{
fill: #A98BB6;
}
.g7a_196{
fill: #80B7E2;
}
.g7b_196{
fill: #A68BBA;
}
.g7c_196{
fill: #A48BB9;
}
.g7d_196{
fill: #7C94BF;
}
.g7e_196{
fill: #A08BBD;
}
.g7f_196{
fill: #9D8BBD;
}
.g7g_196{
fill: #78B1DE;
}
.g7h_196{
fill: #9B8CC0;
}
.g7i_196{
fill: #998CC0;
}
.g7j_196{
fill: #988CBB;
}
.g7k_196{
fill: #968CB9;
}
.g7l_196{
fill: #75ADDB;
}
.g7m_196{
fill: #70AADB;
}
.g7n_196{
fill: #928DBF;
}
.g7o_196{
fill: #70A8DA;
}
.g7p_196{
fill: #8F8CBF;
}
.g7q_196{
fill: #8C8CC3;
}
.g7r_196{
fill: #8A8DC3;
}
.g7s_196{
fill: #71A6D6;
}
.g7t_196{
fill: #898DBF;
}
.g7u_196{
fill: #858EC0;
}
.g7v_196{
fill: #70A3D3;
}
.g7w_196{
fill: #828EC4;
}
.g7x_196{
fill: #71A0CF;
}
.g7y_196{
fill: #818FC5;
}
.g7z_196{
fill: #8190C2;
}
.g80_196{
fill: #719DCE;
}
.g81_196{
fill: #7D91C4;
}
.g82_196{
fill: #729BCB;
}
.g83_196{
fill: #7A92C9;
}
.g84_196{
fill: #7992C9;
}
.g85_196{
fill: #7299CB;
}
.g86_196{
fill: #7994C8;
}
.g87_196{
fill: #7597C8;
}
.g88_196{
fill: #7695CA;
}
.g89_196{
fill: none;
stroke: #BCD3E7;
stroke-width: 1.168;
stroke-miterlimit: 3;
}
.g8a_196{
fill: none;
stroke: #B4D0E5;
stroke-width: 1.168;
stroke-miterlimit: 3;
}
.g8b_196{
fill: none;
stroke: #C3D6E7;
stroke-width: 1.168;
stroke-miterlimit: 3;
}
.g8c_196{
fill: none;
stroke: #CAD7E6;
stroke-width: 1.168;
stroke-miterlimit: 3;
}
.g8d_196{
fill: none;
stroke: #CFD8E3;
stroke-width: 1.168;
stroke-miterlimit: 3;
}
.g8e_196{
fill: none;
stroke: #D5D8DF;
stroke-width: 1.168;
stroke-miterlimit: 3;
}
.g8f_196{
fill: none;
stroke: #D097AF;
stroke-width: 1.168;
stroke-miterlimit: 3;
}
.g8g_196{
fill: none;
stroke: #D9D7DA;
stroke-width: 1.168;
stroke-miterlimit: 3;
}
.g8h_196{
fill: none;
stroke: #DAA0AA;
stroke-width: 1.168;
stroke-miterlimit: 3;
}
.g8i_196{
fill: none;
stroke: #E2D3CB;
stroke-width: 1.168;
stroke-miterlimit: 3;
}
.g8j_196{
fill: none;
stroke: #DEA5A9;
stroke-width: 1.168;
stroke-miterlimit: 3;
}
.g8k_196{
fill: none;
stroke: #E5D0C3;
stroke-width: 1.168;
stroke-miterlimit: 3;
}
.g8l_196{
fill: none;
stroke: #E1AAA7;
stroke-width: 1.168;
stroke-miterlimit: 3;
}
.g8m_196{
fill: none;
stroke: #E7CBBB;
stroke-width: 1.168;
stroke-miterlimit: 3;
}
.g8n_196{
fill: none;
stroke: #E5B0A8;
stroke-width: 1.168;
stroke-miterlimit: 3;
}
.g8o_196{
fill: none;
stroke: #E8C7B5;
stroke-width: 1.168;
stroke-miterlimit: 3;
}
.g8p_196{
fill: none;
stroke: #E7B5AA;
stroke-width: 1.168;
stroke-miterlimit: 3;
}
.g8q_196{
fill: none;
stroke: #E9C3B0;
stroke-width: 1.168;
stroke-miterlimit: 3;
}
.g8r_196{
fill: none;
stroke: #E9BBAB;
stroke-width: 1.168;
stroke-miterlimit: 3;
}
.g8s_196{
fill: none;
stroke: #E9BFAD;
stroke-width: 1.168;
stroke-miterlimit: 3;
}
.g8t_196{
fill: none;
stroke: #EE008C;
stroke-width: 1.069;
stroke-linejoin: round;
}
.g8u_196{
fill: #EE008C;
}
.g8v_196{
fill: none;
stroke: #EE008C;
stroke-width: 0.763;
stroke-miterlimit: 3;
}
]]></style>
</defs>
<path d="M307.7,549.3c0,0,-1.6,0,-1.6,1.6V565c0,0,0,1.5,1.6,1.5h15.6c0,0,1.6,0,1.6,-1.5V550.9c0,0,0,-1.6,-1.6,-1.6H307.7Zm0,32.1c0,0,-1.6,0,-1.6,1.6v14.1c0,0,0,1.5,1.6,1.5h15.6c0,0,1.6,0,1.6,-1.5V583c0,0,0,-1.6,-1.6,-1.6H307.7Zm0,32.1c0,0,-1.6,0,-1.6,1.5v14.2c0,0,0,1.5,1.6,1.5h15.6c0,0,1.6,0,1.6,-1.5V615c0,0,0,-1.5,-1.6,-1.5H307.7Z" class="g0_196"/>
<path d="M110.9,935.4c0,-25.4,20.6,-46,46,-46c25.4,0,45.9,20.6,45.9,46c0,25.4,-20.5,46,-45.9,46c-25.4,0,-46,-20.6,-46,-46Z" class="g1_196"/>
<path d="M110.9,935.4c0,-17.8,20.6,-32.3,46,-32.3c25.4,0,45.9,14.5,45.9,32.3c0,17.9,-20.5,32.3,-45.9,32.3c-25.4,0,-46,-14.4,-46,-32.3Zm-18.6,0c0,-25.4,28.9,-46,64.6,-46c35.7,0,64.6,20.6,64.6,46c0,25.4,-28.9,46,-64.6,46c-35.7,0,-64.6,-20.6,-64.6,-46Z" class="g2_196"/>
<path d="M156.9,1017.3V855" class="g3_196"/>
<path fill-rule="evenodd" d="M156.9,855l-2.5,1.6l2.5,-6.5l2.4,6.5Z" class="g4_196"/>
<path d="M53.5,935.4H260.3" class="g3_196"/>
<path clip-path="url(#c0_196)" fill-rule="evenodd" d="M260.3,935.4L258.7,933l6.5,2.4l-6.5,2.5Z" class="g4_196"/>
<path d="M65,935.4c0,-35.7,41.1,-64.6,91.9,-64.6c50.8,0,91.9,28.9,91.9,64.6c0,35.7,-41.1,64.6,-91.9,64.6C106.1,1000,65,971.1,65,935.4Zm59.6,0c0,-12.7,14.4,-23,32.3,-23c17.8,0,32.3,10.3,32.3,23c0,12.7,-14.5,23,-32.3,23c-17.9,0,-32.3,-10.3,-32.3,-23Z" class="g5_196"/>
<path d="M193.7,1006.3L173.9,969" class="g6_196"/>
<path d="M172.4,966l3.5,3.1l-2,-.1l-.9,1.7Z" class="g4_196"/>
<path d="M194,867.2L189.2,892" class="g6_196"/>
<path d="M188.6,895.2l-.8,-4.6l1.4,1.4l1.8,-.7Z" class="g4_196"/>
<path d="M133.5,621.9h9.4l-3.5,-1.1Z" class="g7_196"/>
<path d="M128.9,619.6l4.6,2.3l5.9,-1.1Z" class="g8_196"/>
<path fill-rule="evenodd" d="M153.4,616.1l-10.5,5.8l3.5,-1.1Z" class="g9_196"/>
<path d="M135.9,616.1l-7,3.5l10.5,1.2Z" class="ga_196"/>
<path d="M125.4,614.9l3.5,4.7l7,-3.5Z" class="gb_196"/>
<path d="M149.9,614.9l-7,7l10.5,-5.8Z" class="gc_196"/>
<path d="M149.9,614.9l-10.5,5.9l3.5,1.1Z" class="gd_196"/>
<path fill-rule="evenodd" d="M156.9,614.9l-3.5,1.2l-7,4.7Z" class="ge_196"/>
<path d="M154.6,614.9l-1.2,1.2l3.5,-1.2Z" class="gf_196"/>
<path d="M119.5,612.6l9.4,7l-3.5,-4.7Z" class="gg_196"/>
<path d="M146.4,610.2l-10.5,5.9l3.5,4.7Z" class="gh_196"/>
<path d="M146.4,610.2l-7,10.6l10.5,-5.9Z" class="gi_196"/>
<path d="M116,607.9l3.5,4.7l5.9,2.3Z" class="gj_196"/>
<path d="M132.4,607.9l-7,7l10.5,1.2Z" class="gk_196"/>
<path d="M121.9,606.7l-5.9,1.2l9.4,7Z" class="gl_196"/>
<path d="M121.9,606.7l3.5,8.2l7,-7Z" class="gm_196"/>
<path d="M162.8,603.2l-8.2,11.7h2.3Z" class="gf_196"/>
<path d="M159.3,602.1l-9.4,12.8l3.5,1.2Z" class="gn_196"/>
<path d="M159.3,602.1l-5.9,14l9.4,-12.9Z" class="go_196"/>
<path d="M167.4,602.1l-4.6,1.1l-5.9,11.7Z" class="gp_196"/>
<path d="M163.9,602.1l-1.1,1.1l4.6,-1.1Z" class="gq_196"/>
<path d="M141.7,602.1l-9.3,5.8l3.5,8.2Z" class="gr_196"/>
<path d="M141.7,602.1l-5.8,14l10.5,-5.9Z" class="gs_196"/>
<path d="M112.5,599.7l3.5,8.2l5.9,-1.2Z" class="gt_196"/>
<path d="M155.8,597.4l-5.9,17.5l9.4,-12.8Z" class="gu_196"/>
<path d="M155.8,597.4l-9.4,12.8l3.5,4.7Z" class="gv_196"/>
<path d="M171,596.2h-1.2l-2.4,5.9Z" class="gw_196"/>
<path d="M128.9,596.2l-7,10.5l10.5,1.2Z" class="gx_196"/>
<path d="M118.4,595l3.5,11.7l7,-10.5Z" class="gy_196"/>
<path d="M118.4,595l-5.9,4.7l9.4,7Z" class="gz_196"/>
<path d="M105.5,593.9l10.5,14l-3.5,-8.2Z" class="g10_196"/>
<path d="M138.2,590.4l-5.8,17.5l9.3,-5.8Z" class="g11_196"/>
<path d="M138.2,590.4l-9.3,5.8l3.5,11.7Z" class="g12_196"/>
<path d="M152.2,589.2l-5.8,21l9.4,-12.8Z" class="g13_196"/>
<path d="M152.2,589.2l-10.5,12.9l4.7,8.1Z" class="g14_196"/>
<path d="M107.8,588l4.7,11.7l5.9,-4.7Z" class="g15_196"/>
<path d="M102,585.7l10.5,14L107.8,588Z" class="g16_196"/>
<path d="M102,585.7l3.5,8.2l7,5.8Z" class="g17_196"/>
<path d="M173.3,584.5l-9.4,17.6h3.5Z" class="gq_196"/>
<path d="M169.8,582.2l-10.5,19.9l3.5,1.1Z" class="g18_196"/>
<path d="M169.8,582.2l-7,21l10.5,-18.7Z" class="g19_196"/>
<path d="M176.8,582.2l-7,14H171Z" class="gw_196"/>
<path d="M176.8,582.2l-3.5,2.3l-5.9,17.6Z" class="g1a_196"/>
<path d="M176.8,582.2h-2.3l-1.2,2.3Z" class="g1b_196"/>
<path d="M125.4,581l-7,14l10.5,1.2Z" class="g1c_196"/>
<path d="M114.9,581l-7.1,7l10.6,7Z" class="g1d_196"/>
<path d="M114.9,581l3.5,14l7,-14Z" class="g1e_196"/>
<path d="M166.3,577.5l-10.5,19.9l3.5,4.7Z" class="g1f_196"/>
<path d="M166.3,577.5l-7,24.6l10.5,-19.9Z" class="g1g_196"/>
<path fill-rule="evenodd" d="M180.3,577.5l-3.5,4.7l-5.8,14Z" class="g1h_196"/>
<path fill-rule="evenodd" d="M180.3,577.5h-1.2l-2.3,4.7Z" class="g1i_196"/>
<path d="M148.7,577.5l-7,24.6l10.5,-12.9Z" class="g1j_196"/>
<path d="M148.7,577.5l-10.5,12.9l3.5,11.7Z" class="g1k_196"/>
<path d="M134.7,575.2l-5.8,21l9.3,-5.8Z" class="g1l_196"/>
<path d="M134.7,575.2l-9.3,5.8l3.5,15.2Z" class="g1m_196"/>
<path d="M98.5,574l3.5,11.7l5.8,2.3Z" class="g1n_196"/>
<path fill-rule="evenodd" d="M95,572.8l10.5,21.1L102,585.7Z" class="g1o_196"/>
<path d="M104.3,572.8l3.5,15.2l7,-7Z" class="g1p_196"/>
<path d="M104.3,572.8L98.5,574l9.3,14Z" class="g1q_196"/>
<path d="M162.8,569.3l-7,28.1l10.5,-19.9Z" class="g1r_196"/>
<path d="M162.8,569.3l-10.6,19.9l3.6,8.2Z" class="g1s_196"/>
<path fill-rule="evenodd" d="M91.5,564.7l3.5,8.1l7,12.9Z" class="g1t_196"/>
<path d="M91.5,564.7l10.5,21L98.5,574Z" class="g1u_196"/>
<path d="M120.7,563.5L114.8,581h10.6Z" class="g1v_196"/>
<path d="M145.2,562.3l-10.5,12.9l3.5,15.2Z" class="g1w_196"/>
<path d="M145.2,562.3l-7,28.1l10.5,-12.9Z" class="g1x_196"/>
<path d="M111.3,562.3l3.6,18.7l5.8,-17.5Z" class="g1y_196"/>
<path d="M111.3,562.3l-7,10.5l10.6,8.2Z" class="g1z_196"/>
<path d="M95,558.8L98.5,574l5.8,-1.2Z" class="g20_196"/>
<path d="M183.8,558.8l-9.3,23.4h2.3Z" class="g1b_196"/>
<path d="M159.3,557.6l-10.6,19.9l3.5,11.7Z" class="g21_196"/>
<path d="M159.3,557.6l-7.1,31.6l10.6,-19.9Z" class="g22_196"/>
<path d="M131.2,556.5L125.4,581l9.3,-5.8Z" class="g23_196"/>
<path d="M131.2,556.5l-10.5,7l4.7,17.5Z" class="g24_196"/>
<path d="M180.3,556.5l-10.5,25.7l3.5,2.3Z" class="g25_196"/>
<path d="M180.3,556.5l-7,28l10.5,-25.7Z" class="g26_196"/>
<path d="M187.3,556.5l-8.2,21h1.2Z" class="g1i_196"/>
<path d="M187.3,556.5l-3.5,2.3l-7,23.4Z" class="g27_196"/>
<path d="M187.3,556.5h-3.5v2.3Z" class="g28_196"/>
<path d="M100.8,555.3l3.5,17.5l7,-10.5Z" class="g29_196"/>
<path d="M100.8,555.3L95,558.8l9.3,14Z" class="g2a_196"/>
<path d="M88,553l10.5,21L95,558.8Z" class="g2b_196"/>
<path d="M88,553l3.5,11.7l7,9.3Z" class="g2c_196"/>
<path d="M175.6,551.8l-5.8,30.4l10.5,-25.7Z" class="g2d_196"/>
<path d="M175.6,551.8l-9.3,25.7l3.5,4.7Z" class="g2e_196"/>
<path d="M190.8,551.8l-3.5,4.7l-7,21Z" class="g2f_196"/>
<path fill-rule="evenodd" d="M190.8,551.8l-10.5,25.7l3.5,-8.2Z" class="g2g_196"/>
<path d="M190.8,551.8h-2.3l-1.2,4.7Z" class="g2h_196"/>
<path d="M141.7,543.6l-10.5,12.9l3.5,18.7Z" class="g2i_196"/>
<path d="M141.7,543.6l-7,31.6l10.5,-12.9Z" class="g2j_196"/>
<path d="M172.1,543.6l-5.8,33.9l9.3,-25.7Z" class="g2k_196"/>
<path d="M172.1,543.6l-9.3,25.7l3.5,8.2Z" class="g2l_196"/>
<path d="M154.6,543.6l-5.9,33.9l10.6,-19.9Z" class="g2m_196"/>
<path d="M154.6,543.6l-9.4,18.7l3.5,15.2Z" class="g2n_196"/>
<path fill-rule="evenodd" d="M194.3,542.5l-3.5,9.3l-7,17.5Z" class="g2o_196"/>
<path d="M194.3,542.5h-1.1l-2.4,9.3Z" class="g2p_196"/>
<path d="M117.2,541.3l-5.9,21l9.4,1.2Z" class="g2q_196"/>
<path d="M91.5,541.3L95,558.8l5.8,-3.5Z" class="g2r_196"/>
<path d="M107.8,541.3l-7,14l10.5,7Z" class="g2s_196"/>
<path d="M107.8,541.3l3.5,21l5.9,-21Z" class="g2t_196"/>
<path d="M84.5,538.9L95,558.8L91.5,541.3Z" class="g2u_196"/>
<path d="M84.5,538.9L88,553l7,5.8Z" class="g2v_196"/>
<path fill-rule="evenodd" d="M82.1,537.8l9.4,26.9L88,553Z" class="g2w_196"/>
<path d="M127.7,535.4l-7,28.1l10.5,-7Z" class="g2x_196"/>
<path d="M127.7,535.4l-10.5,5.9l3.5,22.2Z" class="g2y_196"/>
<path d="M97.3,533.1l-5.8,8.2l9.3,14Z" class="g2z_196"/>
<path d="M97.3,533.1l3.5,22.2l7,-14Z" class="g30_196"/>
<path d="M168.6,531.9l-9.3,25.7l3.5,11.7Z" class="g31_196"/>
<path d="M168.6,531.9l-5.8,37.4l9.3,-25.7Z" class="g32_196"/>
<path d="M78.6,526.1L88,553L84.5,538.9Z" class="g33_196"/>
<path fill-rule="evenodd" d="M78.6,526.1l3.5,11.7L88,553Z" class="g34_196"/>
<path d="M193.2,526.1l-9.4,30.4h3.5Z" class="g28_196"/>
<path d="M151.1,524.9l-9.4,18.7l3.5,18.7Z" class="g35_196"/>
<path d="M151.1,524.9l-5.9,37.4l9.4,-18.7Z" class="g36_196"/>
<path d="M189.6,523.8l-5.8,35l9.4,-32.7Z" class="g37_196"/>
<path d="M189.6,523.8l-9.3,32.7l3.5,2.3Z" class="g38_196"/>
<path d="M196.7,523.8l-3.5,2.3l-5.9,30.4Z" class="g39_196"/>
<path d="M196.7,523.8l-8.2,28h2.3Z" class="g2h_196"/>
<path d="M196.7,523.8h-2.4l-1.1,2.3Z" class="g3a_196"/>
<path d="M138.2,522.6l-10.5,12.8l3.5,21.1Z" class="g3b_196"/>
<path d="M138.2,522.6l-7,33.9l10.5,-12.9Z" class="g3c_196"/>
<path d="M81,520.2l3.5,18.7l7,2.4Z" class="g3d_196"/>
<path d="M86.8,519.1l4.7,22.2l5.8,-8.2Z" class="g3e_196"/>
<path d="M86.8,519.1L81,520.2l10.5,21.1Z" class="g3f_196"/>
<path d="M186.1,519.1l-5.8,37.4l9.3,-32.7Z" class="g3g_196"/>
<path d="M186.1,519.1l-10.5,32.7l4.7,4.7Z" class="g3h_196"/>
<path d="M201.3,519.1l-4.6,4.7l-5.9,28Z" class="g3i_196"/>
<path d="M201.3,519.1l-8.1,23.4h1.1Z" class="g2p_196"/>
<path d="M201.3,519.1H199l-2.3,4.7Z" class="g3j_196"/>
<path d="M165.1,516.7l-10.5,26.9l4.7,14Z" class="g3k_196"/>
<path d="M165.1,516.7l-5.8,40.9l9.3,-25.7Z" class="g3l_196"/>
<path d="M113.7,516.7l-5.9,24.6h9.4Z" class="g3m_196"/>
<path d="M104.3,515.6l-7,17.5l10.5,8.2Z" class="g3n_196"/>
<path d="M104.3,515.6l3.5,25.7l5.9,-24.6Z" class="g3o_196"/>
<path d="M73.9,510.9l10.6,28L81,520.2Z" class="g3p_196"/>
<path fill-rule="evenodd" d="M73.9,510.9l4.7,15.2l5.9,12.8Z" class="g3q_196"/>
<path d="M182.6,510.9l-7,40.9l10.5,-32.7Z" class="g3r_196"/>
<path d="M182.6,510.9l-10.5,32.7l3.5,8.2Z" class="g3s_196"/>
<path d="M124.2,510.9l-10.5,5.8l3.5,24.6Z" class="g3t_196"/>
<path d="M124.2,510.9l-7,30.4l10.5,-5.9Z" class="g3u_196"/>
<path fill-rule="evenodd" d="M204.8,509.7l-10.5,32.8l3.5,-11.7Z" class="g3v_196"/>
<path fill-rule="evenodd" d="M204.8,509.7l-3.5,9.4l-7,23.4Z" class="g3w_196"/>
<path d="M204.8,509.7h-2.3l-1.2,9.4Z" class="g3x_196"/>
<path d="M93.8,508.6l-7,10.5l10.5,14Z" class="g3y_196"/>
<path d="M93.8,508.6l3.5,24.5l7,-17.5Z" class="g3z_196"/>
<path d="M147.6,502.7l-9.4,19.9l3.5,21Z" class="g40_196"/>
<path d="M147.6,502.7l-5.9,40.9l9.4,-18.7Z" class="g41_196"/>
<path d="M179.1,499.2l-10.5,32.7l3.5,11.7Z" class="g42_196"/>
<path d="M179.1,499.2l-7,44.4l10.5,-32.7Z" class="g43_196"/>
<path d="M161.6,499.2l-7,44.4l10.5,-26.9Z" class="g44_196"/>
<path d="M161.6,499.2l-10.5,25.7l3.5,18.7Z" class="g45_196"/>
<path d="M77.4,499.2l3.6,21l5.8,-1.1Z" class="g46_196"/>
<path fill-rule="evenodd" d="M208.3,498l-3.5,11.7l-7,21.1Z" class="g47_196"/>
<path d="M133.5,498l-9.3,12.9l3.5,24.5Z" class="g48_196"/>
<path d="M133.5,498l-5.8,37.4l10.5,-12.8Z" class="g49_196"/>
<path d="M83.3,494.5l3.5,24.6l7,-10.5Z" class="g4a_196"/>
<path d="M83.3,494.5l-5.9,4.7l9.4,19.9Z" class="g4b_196"/>
<path d="M70.4,493.4L81,520.2l-3.6,-21Z" class="g4c_196"/>
<path d="M70.4,493.4l3.5,17.5l7.1,9.3Z" class="g4d_196"/>
<path d="M126.5,492.2h-4.6l2.3,18.7Z" class="g4e_196"/>
<path d="M118.4,492.2l-4.7,24.5l10.5,-5.8l-2.3,-18.7Z" class="g4f_196"/>
<path fill-rule="evenodd" d="M68.1,492.2l10.5,33.9L73.9,510.9Z" class="g4g_196"/>
<path d="M133.5,492.2h-7l-2.3,18.7L133.5,498Z" class="g4h_196"/>
<path d="M133.5,492.2V498l1.2,-5.8Z" class="g4i_196"/>
<path d="M111.3,492.2l2.4,24.5l4.7,-24.5Z" class="g4j_196"/>
<path d="M137.1,492.2h-2.4l-1.2,5.8Z" class="g4i_196"/>
<path d="M109,492.2l-4.7,23.4l9.4,1.1l-2.4,-24.5Z" class="g4k_196"/>
<path d="M141.7,492.2h-4.6l-3.6,5.8l4.7,24.6Z" class="g4l_196"/>
<path d="M146.4,491l-4.7,1.2l-3.5,30.4l9.4,-19.9Z" class="g4m_196"/>
<path d="M142.9,491v1.2l3.5,-1.2Z" class="g4n_196"/>
<path d="M100.8,491l3.5,24.6L109,492.2Z" class="g4o_196"/>
<path d="M148.7,491h-2.3l1.2,11.7Z" class="g4p_196"/>
<path d="M98.5,491l-4.7,17.6l10.5,7L100.8,491Z" class="g4q_196"/>
<path d="M152.2,491h-3.5l-1.1,11.7Z" class="g4r_196"/>
<path d="M155.8,491h-3.6l-4.6,11.7l3.5,22.2Z" class="g4s_196"/>
<path d="M91.5,491l2.3,17.6L98.5,491Z" class="g4t_196"/>
<path d="M160.4,489.9l-4.6,1.1l-4.7,33.9l10.5,-25.7Z" class="g4u_196"/>
<path d="M158.1,489.9V491l2.3,-1.1Z" class="g4v_196"/>
<path d="M162.8,489.9h-2.4l1.2,9.3Z" class="g4w_196"/>
<path d="M163.9,489.9h-1.1l-1.2,9.3Z" class="g4x_196"/>
<path d="M85.6,489.9l-2.3,4.6l10.5,14.1L91.5,491Z" class="g4y_196"/>
<path d="M168.6,488.7l-4.7,1.2l-2.3,9.3l3.5,17.5Z" class="g4z_196"/>
<path d="M166.3,488.7v1.2l2.3,-1.2Z" class="g50_196"/>
<path d="M83.3,488.7v5.8l2.3,-4.6Z" class="g51_196"/>
<path d="M81,488.7l2.3,5.8v-5.8Z" class="g52_196"/>
<path d="M174.5,488.7h-5.9l-3.5,28Z" class="g53_196"/>
<path d="M174.5,488.7l-9.4,28l3.5,15.2Z" class="g54_196"/>
<path d="M175.6,487.5l-1.1,1.2l-5.9,43.2l10.5,-32.7Z" class="g55_196"/>
<path d="M180.3,487.5h-4.7l3.5,11.7Z" class="g56_196"/>
<path d="M75.1,487.5l2.3,11.7l5.9,-4.7L81,488.7Z" class="g57_196"/>
<path d="M182.6,487.5h-2.3l-1.2,11.7Z" class="g58_196"/>
<path d="M175.6,487.5h1.2l-1.2,-1.1Z" class="g59_196"/>
<path d="M203.7,486.4l-9.4,37.4h2.4Z" class="g3a_196"/>
<path d="M186.1,486.4l-3.5,1.1l-3.5,11.7l3.5,11.7Z" class="g5a_196"/>
<path d="M72.8,486.4l4.6,12.8L75.1,487.5Z" class="g5b_196"/>
<path d="M166.3,486.4v2.3h9.3v-2.3Z" class="g50_196"/>
<path d="M165.1,489.9h1.2v-3.5Z" class="g5c_196"/>
<path d="M189.6,485.2l-3.5,1.2l-3.5,24.5Z" class="g5d_196"/>
<path d="M190.8,485.2h-1.2l-7,25.7l3.5,8.2Z" class="g5e_196"/>
<path d="M200.2,485.2l-10.6,38.6l3.6,2.3Z" class="g5f_196"/>
<path d="M200.2,485.2l-7,40.9l10.5,-39.7Z" class="g5g_196"/>
<path d="M69.3,484l1.1,9.4l7,5.8L72.8,486.4Z" class="g5h_196"/>
<path d="M207.2,484L199,519.1h2.3Z" class="g3j_196"/>
<path d="M207.2,484l-3.5,2.4l-7,37.4Z" class="g5i_196"/>
<path d="M207.2,484h-3.5v2.4Z" class="g5j_196"/>
<path d="M195.5,484l-4.7,1.2l-4.7,33.9Z" class="g5k_196"/>
<path d="M68.1,484l2.3,9.4L69.3,484Z" class="g5l_196"/>
<path d="M195.5,484l-9.4,35.1l3.5,4.7Z" class="g5m_196"/>
<path d="M199,482.8l-3.5,1.2l-5.9,39.8l10.6,-38.6Z" class="g5n_196"/>
<path d="M194.3,482.8V484h1.2l3.5,-1.2Z" class="g5o_196"/>
<path fill-rule="evenodd" d="M66.9,481.7l3.5,11.7L68.1,484Z" class="g5p_196"/>
<path d="M199,482.8l1.2,2.4v-3.5Z" class="g5q_196"/>
<path d="M65.8,481.7l8.1,29.2L70.4,493.4L66.9,481.7Z" class="g5r_196"/>
<path fill-rule="evenodd" d="M65.8,480.5l2.3,11.7l5.8,18.7L65.8,481.7Z" class="g5s_196"/>
<path d="M204.8,480.5l-4.6,1.2v3.5l3.5,1.2Z" class="g5t_196"/>
<path d="M186.1,480.5l-1.1,5.9h1.1l2.4,-1.2Z" class="g5u_196"/>
<path d="M186.1,480.5l-10.5,5.9v1.1h7l2.4,-1.1Z" class="g5v_196"/>
<path d="M203.7,486.4l1.1,-5.9Z" class="g5w_196"/>
<path fill-rule="evenodd" d="M64.6,479.3l3.5,12.9L65.8,480.5Z" class="g5x_196"/>
<path d="M210.7,479.3l-8.2,30.4h2.3Z" class="g3x_196"/>
<path d="M210.7,479.3l-3.5,4.7l-5.9,35.1Z" class="g5y_196"/>
<path d="M210.7,479.3h-2.4l-1.1,4.7Z" class="g5z_196"/>
<path d="M208.3,479.3l-3.5,1.2l-1.1,3.5h3.5Z" class="g5j_196"/>
<path d="M207.2,484l1.1,-4.7v-1.1Z" class="g60_196"/>
<path d="M64.6,479.3l.6,.6l-.6,-1.7Zm1.2,2.4v-1.2l-.6,-.6Z" class="g61_196"/>
<path d="M155.8,478.2L154.6,491h3.5Z" class="g62_196"/>
<path d="M155.8,478.2l2.3,11.7h7l1.2,-3.5Z" class="g4v_196"/>
<path d="M72.8,478.2l1.1,8.2h1.2Z" class="g63_196"/>
<path d="M65.8,477l-1.2,1.2l1.2,3.5h1.1Z" class="g64_196"/>
<path d="M211.9,477l-3.6,1.2v1.1h2.4Z" class="g5z_196"/>
<path d="M210.7,479.3l1.2,-2.3Z" class="g65_196"/>
<path d="M208.3,477v1.2l3.6,-1.2Z" class="g66_196"/>
<path d="M202.5,477l-2.3,4.7h2.3Z" class="g67_196"/>
<path d="M100.8,475.8l2.4,16.4h2.3Z" class="g68_196"/>
<path d="M100.8,475.8L97.3,491h3.5l2.4,1.2Z" class="g69_196"/>
<path d="M69.3,475.8l1.1,9.4h1.2Z" class="g6a_196"/>
<path d="M69.3,475.8l2.3,9.4l1.2,1.2h1.1l-1.1,-8.2Z" class="g6b_196"/>
<path d="M210.7,479.3l1.2,-2.3v-1.2Z" class="g6c_196"/>
<path fill-rule="evenodd" d="M76.3,475.8l2.3,11.7l1.2,1.2Z" class="g6d_196"/>
<path d="M76.3,475.8l-3.5,2.4l2.3,8.2v1.1h3.5Z" class="g6e_196"/>
<path d="M209.5,475.8l-7,1.2v4.7l2.3,-1.2l3.5,-1.2Z" class="g6f_196"/>
<path d="M208.3,478.2v1.1l1.2,-3.5Z" class="g6g_196"/>
<path d="M202.5,475.8V477l7,-1.2Z" class="g6h_196"/>
<path fill-rule="evenodd" d="M65.8,475.8V477l1.1,4.7l1.2,1.1Z" class="g6i_196"/>
<path fill-rule="evenodd" d="M66.9,475.8H65.8l2.3,7V484Z" class="g6j_196"/>
<path d="M213,474.7l-1.1,1.1l-1.2,3.5l-5.9,30.4Z" class="g6k_196"/>
<path d="M214.2,474.7H213l-8.2,35L208.3,498Z" class="g6l_196"/>
<path d="M68.1,474.7l-1.2,1.1l1.2,8.2h1.2l1.1,1.2l-1.1,-9.4Z" class="g6m_196"/>
<path d="M68.1,474.7l1.2,1.1l-1.2,-2.3Z" class="g6n_196"/>
<path d="M69.3,475.8l-1.2,-2.3Z" class="g6o_196"/>
<path fill-rule="evenodd" d="M214.2,473.5v1.2L208.3,498Z" class="g6p_196"/>
<path d="M132.4,472.3l-3.5,19.9h5.8Z" class="g6q_196"/>
<path d="M132.4,472.3l2.3,19.9h7Z" class="g6r_196"/>
<path d="M214.2,473.5l1.2,-1.2Z" class="g6s_196"/>
<path d="M71.6,472.3l-3.5,1.2l1.2,2.3l3.5,2.4Z" class="g6t_196"/>
<path d="M72.8,478.2l-1.2,-5.9Z" class="g6u_196"/>
<path d="M214.2,473.5l1.2,-1.2v-1.1Z" class="g6v_196"/>
<path d="M79.8,471.2l-3.5,4.6l3.5,12.9h2.3Z" class="g6w_196"/>
<path d="M79.8,471.2l2.3,17.5h1.2l1.2,1.2Z" class="g6x_196"/>
<path d="M75.1,470l-3.5,2.3l1.2,5.9l3.5,-2.4Z" class="g6y_196"/>
<path d="M118.4,470l-3.6,22.2h5.9Z" class="g6z_196"/>
<path d="M118.4,470l2.3,22.2h5.8Z" class="g70_196"/>
<path d="M76.3,475.8L75.1,470Z" class="g71_196"/>
<path d="M214.2,470l-1.2,4.7h1.2v-1.2l1.2,-2.3Z" class="g72_196"/>
<path fill-rule="evenodd" d="M214.2,468.8l-2.3,7l1.1,-1.1l1.2,-4.7Z" class="g73_196"/>
<path d="M79.8,468.8L75.1,470l1.2,5.8l3.5,-4.6Z" class="g74_196"/>
<path d="M213,468.8l-3.5,7l-1.2,1.2h3.6l2.3,-8.2Z" class="g66_196"/>
<path d="M79.8,468.8v2.4L81,467.7Z" class="g75_196"/>
<path d="M196.7,467.7l-10.6,12.8l2.4,4.7h1.1l4.7,-1.2Z" class="g76_196"/>
<path d="M196.7,467.7l-2.4,15.1h5.9l2.3,-5.8Z" class="g5o_196"/>
<path d="M84.5,466.5L81,467.7l-1.2,3.5l4.7,18.7h2.3Z" class="g77_196"/>
<path d="M211.9,466.5l-2.4,9.3l3.5,-7Z" class="g78_196"/>
<path d="M84.5,466.5l2.3,23.4h3.5Z" class="g79_196"/>
<path d="M210.7,466.5l-1.2,9.3l2.4,-9.3Z" class="g7a_196"/>
<path d="M89.1,465.3l-4.6,1.2l5.8,23.4l1.2,1.1h1.1Z" class="g7b_196"/>
<path d="M90.3,465.3H89.1L92.6,491h4.7Z" class="g7c_196"/>
<path d="M207.2,464.1l-4.7,11.7h7l1.2,-9.3Z" class="g6h_196"/>
<path d="M146.4,464.1L142.9,491h7Z" class="g4n_196"/>
<path d="M146.4,464.1l3.5,26.9h4.7l1.2,-12.8Z" class="g7d_196"/>
<path d="M93.8,464.1l-3.5,1.2l7,25.7Z" class="g7e_196"/>
<path d="M97.3,464.1H93.8L97.3,491l3.5,-15.2Z" class="g7f_196"/>
<path d="M204.8,463l-2.3,14l4.7,-12.9Z" class="g7g_196"/>
<path d="M99.7,463l-2.4,1.1l3.5,11.7Z" class="g7h_196"/>
<path d="M103.2,463H99.7l1.1,12.8Z" class="g7i_196"/>
<path d="M105.5,461.8l-2.3,1.2l-2.4,12.8l4.7,16.4H109Z" class="g7j_196"/>
<path d="M105.5,461.8l3.5,30.4h5.8Z" class="g7k_196"/>
<path d="M199,461.8l-2.3,5.9l5.8,9.3l2.3,-14Z" class="g7l_196"/>
<path d="M196.7,461.8v5.9l2.3,-5.9Z" class="g7m_196"/>
<path d="M111.3,461.8h-5.8l9.4,30.4Z" class="g7n_196"/>
<path d="M194.3,460.6l2.4,7.1v-5.9Z" class="g7o_196"/>
<path d="M116,460.6l-4.7,1.2l3.5,30.4L118.4,470Z" class="g7p_196"/>
<path d="M117.2,460.6H116l2.4,9.4Z" class="g7q_196"/>
<path d="M119.5,460.6h-2.3l1.2,9.4Z" class="g7r_196"/>
<path d="M188.5,460.6l-2.4,19.9l10.6,-12.8l-2.4,-7.1Z" class="g7s_196"/>
<path d="M124.2,459.5l-4.7,1.1l-1.1,9.4l8.1,22.2h1.2Z" class="g7t_196"/>
<path d="M127.7,459.5h-3.5l3.5,32.7h1.2l3.5,-19.9Z" class="g7u_196"/>
<path d="M180.3,459.5l5.8,21l2.4,-19.9Z" class="g7v_196"/>
<path d="M130,459.5h-2.3l4.7,12.8Z" class="g7w_196"/>
<path d="M179.1,459.5l-3.5,26.9l10.5,-5.9l-5.8,-21Z" class="g7x_196"/>
<path d="M133.5,459.5H130l2.4,12.8Z" class="g7y_196"/>
<path d="M138.2,458.3l-4.7,1.2l-1.1,12.8l9.3,19.9Z" class="g7z_196"/>
<path d="M171,458.3l4.6,28.1l3.5,-26.9Z" class="g80_196"/>
<path d="M142.9,458.3h-4.7l3.5,33.9h1.2l3.5,-28.1Z" class="g81_196"/>
<path d="M168.6,458.3l-2.3,28.1h9.3L171,458.3Z" class="g82_196"/>
<path d="M145.2,458.3h-2.3l3.5,5.8Z" class="g83_196"/>
<path d="M145.2,458.3l1.2,5.8v-5.8Z" class="g84_196"/>
<path d="M161.6,458.3l4.7,28.1l2.3,-28.1Z" class="g85_196"/>
<path d="M153.4,458.3h-7v5.8l9.4,14.1Z" class="g86_196"/>
<path d="M158.1,458.3l-2.3,19.9l10.5,8.2l-4.7,-28.1Z" class="g87_196"/>
<path d="M158.1,458.3h-4.7l2.4,19.9Z" class="g88_196"/>
<path d="M203.1,493.9l3.5,-1.1" class="g89_196"/>
<path d="M207.8,493.9l-1.2,-1.1" class="g8a_196"/>
<path d="M199.6,496.3l3.5,-2.4" class="g8b_196"/>
<path d="M194.9,502.1l4.7,-5.8" class="g8c_196"/>
<path d="M190.2,508l4.7,-5.9" class="g8d_196"/>
<path d="M183.2,516.2l5.9,-8.2" class="g8e_196"/>
<path d="M75.7,518.5V515" class="g8f_196"/>
<path d="M176.2,525.5l7,-9.3" class="g8g_196"/>
<path d="M83.9,538.4L79.2,529" class="g8h_196"/>
<path d="M159.9,543l8.1,-8.1" class="g8i_196"/>
<path d="M88.6,547.7l-4.7,-9.3" class="g8j_196"/>
<path d="M151.7,551.2l8.2,-8.2" class="g8k_196"/>
<path d="M94.4,554.7l-5.8,-7" class="g8l_196"/>
<path d="M144.7,557.1l7,-5.9" class="g8m_196"/>
<path d="M101.4,561.7l-5.8,-5.8" class="g8n_196"/>
<path d="M134.1,564.1l9.4,-5.9" class="g8o_196"/>
<path d="M109.6,565.2l-8.2,-3.5" class="g8p_196"/>
<path d="M126,566.4l8.1,-2.3" class="g8q_196"/>
<path d="M111.9,566.4l-2.3,-1.2" class="g8r_196"/>
<path d="M122.4,566.4H126" class="g8s_196"/>
<path d="M136.5,492.2V435.1" class="g3_196"/>
<path fill-rule="evenodd" d="M136.5,435.1l-2.4,1.6l2.4,-6.5l2.4,6.5Z" class="g4_196"/>
<path d="M208,555.2L173.3,533.1" class="g6_196"/>
<path d="M170.5,531.3l4.5,.9l-1.7,.9l-.1,1.9Z" class="g4_196"/>
<path d="M137.1,621.9L77.8,650.5" class="g3_196"/>
<path fill-rule="evenodd" d="M77.8,650.5l2.5,1.5l-6.9,.7l4.8,-5.1Z" class="g4_196"/>
<path d="M193.3,594.8L159.7,611M53.5,616.2l77.9,5.1m11.8,.8l101.9,6.6" class="g3_196"/>
<path fill-rule="evenodd" d="M245.1,628.7l-1.5,-2.5l6.3,2.9l-6.6,2Z" class="g4_196"/>
<path d="M208.8,495.1c-.6,-1.8,-2,-3.1,-2.9,-2.9c-20,6.3,-47.2,73.5,-87.1,74.1c-18.6,.3,-27.9,-13.7,-37.4,-29.8" class="g8t_196"/>
<path d="M159.3,611.5c28.2,1.6,48.8,6.5,48.8,12.2c0,7.1,-30.6,12.8,-68.4,12.8c-37.8,0,-68.4,-5.7,-68.4,-12.8c0,-5.6,19.7,-10.4,47.1,-12.1" class="g2_196"/>
<path d="M64.9,479.3c-.5,-9.2,32.5,-18.5,73.8,-20.7c41.3,-2.2,75.3,3.4,75.9,12.6c.5,9.2,-32.5,18.5,-73.8,20.7C99.5,494.1,65.5,488.5,64.9,479.3Zm90.7,-1.1l2.3,-19.9m-11.6,5.9v-5.9m19.8,28.1l2.4,-28.1m-22.2,5.9l-3.6,-5.9m-10.5,14.1l1.2,-12.9m42.1,26.9L179,459.5m-46.8,12.9l-4.6,-12.9M186,480.6l2.3,-19.9M118.2,470l1.2,-9.3m-1.2,9.3l-2.3,-9.3m80.6,7v-5.8m0,5.8l2.4,-5.8m-84.2,30.3l-9.3,-30.3m-4.7,14L103,463m99.4,14l2.3,-14m-104,12.9L97.2,464.2m58.4,14l-9.3,-14m-3.6,28l3.6,-28M202.4,477L207,464.2M97.2,491.1l-7,-25.7m119.2,10.5l1.1,-9.4M90.2,489.9L84.3,466.5m125.1,9.4l2.3,-9.4M186,480.6l10.5,-12.9m-2.3,16.4l2.3,-16.4M79.6,471.2l1.2,-3.5m-1.2,3.5v-2.3M211.7,477l2.3,-8.1m-1.1,5.8L214,470m-99.3,22.2L118.2,470m8.2,22.2L118.2,470m-42.1,5.9L75,470m9.3,19.9L79.6,471.2m-3.5,4.7l3.5,-4.7M214,473.5l1.2,-2.3m-142.6,7l-1.1,-5.8m57.2,19.8l3.5,-19.8m9.4,19.8l-9.4,-19.8m76,25.7L214,473.5M69.1,475.9L68,473.5m1.1,2.4L68,474.7m136.7,35.1l8.2,-35.1M68,484.1l-1.2,-8.2m141.4,2.3l1.2,-2.3m-1.2,3.5l1.2,-3.5M72.6,478.2l3.5,-2.3m3.5,12.8L76.1,475.9m134.4,3.5l1.2,-3.5M71.5,485.2l-2.4,-9.3m3.5,2.3l-3.5,-2.3m36.3,16.3l-4.7,-16.3m-3.5,15.2l3.5,-15.2m99.3,7l2.4,-5.9m0,4.7V477m8.1,2.4l1.2,-2.4M66.8,481.7L65.6,477m9.4,9.4l-2.4,-8.2m93.5,8.2l-10.5,-8.2m-1.2,12.9l1.2,-12.9m51.4,5.9l1.2,-5.9m-7,40.9l9.3,-39.7m-3.5,4.7l3.5,-4.7M68,492.2L64.4,479.4m139.1,7l1.2,-5.8m-29.2,5.8L186,480.6m-1.2,5.8l1.2,-5.8M68,492.2L65.6,480.6m8.2,30.3L65.6,481.7M200,485.2v-3.5m0,3.5l-1.1,-2.3M70.3,493.4L68,484.1m118,35l9.3,-35m8.2,2.3l3.5,-2.3m-10.5,39.7L207,484.1M70.3,493.4l-1.2,-9.3m134.4,2.3L200,485.2m-10.5,38.6L200,485.2m-17.5,25.7l7,-25.7m-14,1.2h-9.4m-1.1,3.5l1.1,-3.5M77.3,499.3L72.6,486.4M193,526.1l10.5,-39.7m-28,2.3v-2.3m3.5,12.9l3.5,-11.7M77.3,499.3L75,487.6m104,11.7l-3.5,-11.7M165,516.8l9.3,-28.1m-91.2,5.9l-2.3,-5.9m2.3,5.9v-5.9m78.4,10.6l2.3,-9.4m-2.3,9.4l-1.2,-9.4M93.7,508.6L91.3,491.1m56.1,11.7l4.7,-11.7m-47.9,24.5l-3.5,-24.5m46.7,11.7l-1.1,-11.7m-12.9,7l3.5,-5.9m-23.4,24.6l-2.3,-24.6m22.2,5.9v-5.9M78.5,526.1L68,492.2m56.1,18.7l-2.4,-18.7M73.8,510.9L70.3,493.4m10.5,26.9L70.3,493.4m16.4,25.7L83.1,494.6m10.6,14l-10.6,-14m123.9,7l1.2,-4.7m-70.1,25.7l-4.7,-24.5m-9.3,12.8l9.3,-12.8m71.3,11.7l3.5,-11.7m-10.5,32.7l10.5,-32.7m-121.5,21L77.3,499.3m3.5,21l-3.5,-21M150.9,525l10.6,-25.7m3.5,17.5l-3.5,-17.5m21,11.6L179,499.3M168.5,532L179,499.3m26.9,8.1l1.1,-5.8M150.9,525l-3.5,-22.2m-9.3,19.8l9.3,-19.8m57.3,7l1.2,-2.4M97.2,533.1L93.7,508.6m10.5,7l-10.5,-7m100.5,33.9l10.5,-32.7m-3.5,9.3l3.5,-9.3m-91.2,7l10.6,-5.9m3.5,24.6l-3.5,-24.6M172,543.7l10.5,-32.8m3.5,8.2l-3.5,-8.2M84.3,539L73.8,510.9m33.9,30.4l-3.5,-25.7m9.3,1.2l-9.3,-1.2M117,541.3l-3.5,-24.5m40.9,26.9L165,516.8m3.5,15.2L165,516.8m31.5,7l4.7,-4.7m-10.5,32.7l10.5,-32.7m-25.7,32.7L186,519.1m3.5,4.7L186,519.1m-88.8,14l-10.5,-14m4.6,22.2L86.7,519.1m4.6,22.2l-10.5,-21M84.3,539L80.8,520.3m46.8,15.2l10.5,-12.9m3.5,21.1l-3.5,-21.1m54.9,3.5l3.5,-2.3m-9.3,32.7l9.3,-32.7m-3.5,2.3l-3.5,-2.3m-9.3,32.7l9.3,-32.7m-47.9,19.9L150.9,525m3.5,18.7L150.9,525m32.8,33.9L193,526.1M82,537.8L78.5,526.1M87.8,553L78.5,526.1M82,537.8L78.5,527.3m115.7,15.2l3.5,-11.7M172,543.7L168.5,532m-9.4,25.7L168.5,532m-60.8,9.3L97.2,533.1m3.5,22.3L97.2,533.1m33.9,23.4l-3.5,-21M117,541.3l10.6,-5.8M91.3,564.7L82,537.8m12.8,21.1c-2.3,-5,-8,-16.6,-10.5,-19.9m3.5,14L84.3,539m32.7,2.3h-9.3m3.5,21.1l-3.5,-21.1m-7,14.1L91.3,541.3m3.5,17.6L91.3,541.3m29.2,22.2L117,541.3m66.7,28.1l10.5,-26.9m-3.5,9.3l3.5,-9.3m-49.1,19.9l9.3,-18.7m4.7,14l-4.7,-14m21.1,8.1L172,543.7m-9.4,25.7L172,543.7m-40.9,12.8l10.5,-12.8m3.5,18.7l-3.5,-18.7m38.6,33.9l10.5,-25.8m-3.5,4.7l3.5,-4.7m-10.5,4.7l-4.7,-4.7m-9.4,25.8l9.4,-25.8M98.3,574.1L87.8,553m3.5,11.7L87.8,553m23.4,9.4l-10.5,-7m3.5,17.5l-3.5,-17.5m83,3.5l3.5,-2.4m-10.6,25.7l10.6,-25.7m-3.5,2.4l-3.5,-2.4m-10.6,25.7l10.6,-25.7m-45.6,18.7l-3.5,-18.7m-10.6,7l10.6,-7m17.5,21.1l10.5,-19.9m3.5,11.7l-3.5,-11.7m14,26.9l10.6,-25.7m-79.5,14l-9.4,-14m3.5,15.2L94.8,558.9m25.7,4.6l-9.3,-1.1m3.5,18.7l-3.5,-18.7m23.4,12.8l10.5,-12.8m3.5,15.2l-3.5,-15.2m-19.9,18.7l-4.7,-17.6m-18.7,22.2l-10.5,-21m3.5,8.2l-3.5,-8.2m88.9,12.9l3.5,-8.2m-31.6,19.8l10.5,-19.8m3.5,8.2l-3.5,-8.2m-54.9,18.7l-3.5,-15.2m10.5,8.2l-10.5,-8.2m1.2,21l-10.6,-21m7,12.8L98.3,574.1m9.4,14l-9.4,-14m39.8,16.3l-3.5,-15.2m-9.4,5.9l9.4,-5.9m3.5,15.2l10.5,-12.8m3.5,11.6l-3.5,-11.6m22.2,18.7l9.4,-18.7m-3.6,4.6l3.6,-4.6m-24.6,19.8l10.5,-19.8m3.5,4.6l-3.5,-4.6m-47.9,17.5l-3.5,-14m10.5,0H114.7m14,15.2l-3.5,-15.2m42.1,21l9.3,-19.9m-3.5,2.4l3.5,-2.4m-17.5,19.9l10.5,-19.9m3.5,2.4l-3.5,-2.4m-7,21.1l10.5,-18.7m-60.7,15.2L101.8,585.7m3.6,8.2l-3.6,-8.2m10.6,14.1l-4.7,-11.7m10.5,7l-10.5,-7m47.9,9.3l-3.5,-8.2m-10.5,12.9l10.5,-12.9m-10.5,12.9l-3.5,-11.7m-9.4,5.9l9.4,-5.9m-22.2,17.5l-10.5,-14m23.3,2.4l-10.5,-1.2m3.5,11.7l-3.5,-11.7m14,12.8l-3.5,-11.6m38.6,5.8l3.5,-5.8m-11.7,5.8l-3.5,-4.7m-9.3,12.9l9.3,-12.9m-39.7,10.5l-3.5,-8.1m9.3,7l-9.3,-7m33.9,10.5l-4.7,-8.2m-9.4,5.8l9.4,-5.8M156.8,615l10.5,-12.9m-4.7,1.2l4.7,-1.2M149.8,615l9.3,-12.9m3.5,1.2l-3.5,-1.2m-5.8,14l9.3,-12.8m-30.4,4.6l-10.5,-1.1m3.5,8.2l-3.5,-8.2m14,9.3l-3.5,-8.2m-7,7.1l-9.3,-7.1m3.5,4.7l-3.5,-4.7m19.8,8.2l10.6,-5.8m3.5,4.7l-3.5,-4.7m-17.6,9.4l-9.3,-7.1m33.9,3.5l3.5,-1.1m-10.5,5.8L156.8,615m-17.6,5.8L149.8,615m3.5,1.1L149.8,615m-14.1,1.1L125.2,615m3.5,4.7L125.2,615m14,5.8l-3.5,-4.7m7,5.9l10.6,-5.9m-14.1,4.7l-10.5,-1.1m4.7,2.3l-4.7,-2.3m14,2.3l3.6,-1.2m-3.6,1.2l-3.5,-1.2m3.5,1.2h-9.3" class="g5_196"/>
<path d="M117.1,566.3c0,-1,.8,-1.7,1.7,-1.7c1,0,1.7,.7,1.7,1.7c0,.9,-.7,1.7,-1.7,1.7c-.9,0,-1.7,-.8,-1.7,-1.7Z" class="g8u_196"/>
<path d="M117.1,566.3c0,-1,.8,-1.7,1.7,-1.7c1,0,1.7,.7,1.7,1.7c0,.9,-.7,1.7,-1.7,1.7c-.9,0,-1.7,-.8,-1.7,-1.7Z" class="g8v_196"/>
</svg>