<?xml version="1.0" encoding="UTF-8" standalone="no"?>
<!DOCTYPE svg PUBLIC "-//W3C//DTD SVG 1.1//EN"
"http://www.w3.org/Graphics/SVG/1.1/DTD/svg11.dtd">
<svg viewBox="0 0 811 1017" version="1.1" xmlns="http://www.w3.org/2000/svg" xmlns:xlink="http://www.w3.org/1999/xlink">
<defs>
<style type="text/css"><![CDATA[
.g0_58{
fill: #000;
}
.g1_58{
fill: #70A6CC;
}
.g2_58{
fill: #FED74D;
}
.g3_58{
fill: none;
stroke: #211E1E;
stroke-width: 0.759;
stroke-miterlimit: 10;
}
.g4_58{
fill: none;
stroke: #222326;
stroke-width: 0.759;
}
.g5_58{
fill: #F6977A;
}
.g6_58{
fill: #FED9A1;
}
.g7_58{
fill: #C6EAFA;
}
.g8_58{
fill: none;
stroke: #040504;
stroke-width: 0.759;
stroke-miterlimit: 20;
}
]]></style>
</defs>
<path d="M101.1,881.7v-.3Z" class="g0_58"/>
<path d="M101.1,881.7H321.3v-.3H101.1Z" class="g0_58"/>
<path d="M156.1,793.4H724.4V772.1H156.1Z" class="g1_58"/>
<path d="M351.1,433.8c0,2.3,2.5,4.2,5.7,4.2h95c3.2,0,5.7,-1.9,5.7,-4.2V395.6c0,-2.3,-2.5,-4.2,-5.7,-4.2h-95c-3.2,0,-5.7,1.9,-5.7,4.2v38.2Z" class="g2_58"/>
<path d="M351.1,433.8c0,2.3,2.5,4.2,5.7,4.2h95c3.2,0,5.7,-1.9,5.7,-4.2V395.6c0,-2.3,-2.5,-4.2,-5.7,-4.2h-95c-3.2,0,-5.7,1.9,-5.7,4.2v38.2Z" class="g3_58"/>
<path d="M351.1,433.8c0,2.3,2.5,4.2,5.7,4.2h95c3.2,0,5.7,-1.9,5.7,-4.2V395.6c0,-2.3,-2.5,-4.2,-5.7,-4.2h-95c-3.2,0,-5.7,1.9,-5.7,4.2v38.2Z" class="g4_58"/>
<path d="M351.1,435.7c0,1.3,2.5,2.3,5.7,2.3h95c3.2,0,5.7,-1,5.7,-2.3V413.6c0,-1.3,-2.5,-2.3,-5.7,-2.3h-95c-3.2,0,-5.7,1,-5.7,2.3v22.1Z" class="g2_58"/>
<path d="M351.1,435.7c0,1.3,2.5,2.3,5.7,2.3h95c3.2,0,5.7,-1,5.7,-2.3V413.6c0,-1.3,-2.5,-2.3,-5.7,-2.3h-95c-3.2,0,-5.7,1,-5.7,2.3v22.1Z" class="g3_58"/>
<path d="M351.1,435.7c0,1.3,2.5,2.3,5.7,2.3h95c3.2,0,5.7,-1,5.7,-2.3V413.6c0,-1.3,-2.5,-2.3,-5.7,-2.3h-95c-3.2,0,-5.7,1,-5.7,2.3v22.1Z" class="g4_58"/>
<path d="M511.6,581.7c0,2.2,2.8,4,6.1,4H624.5c3.3,0,6.1,-1.8,6.1,-4V481.8c0,-2.2,-2.8,-4,-6.1,-4H517.7c-3.3,0,-6.1,1.8,-6.1,4v99.9Z" class="g5_58"/>
<path d="M511.6,581.5c0,2.2,2.8,4,6.1,4H624.5c3.3,0,6.1,-1.8,6.1,-4V481.7c0,-2.2,-2.8,-4,-6.1,-4H517.7c-3.3,0,-6.1,1.8,-6.1,4v99.8Z" class="g4_58"/>
<path d="M511.6,582.4c0,1.6,2.8,2.9,6.1,2.9H624.5c3.3,0,6.1,-1.3,6.1,-2.9v-72c0,-1.6,-2.8,-2.9,-6.1,-2.9H517.7c-3.3,0,-6.1,1.3,-6.1,2.9v72Z" class="g5_58"/>
<path d="M511.6,582.2c0,1.6,2.8,2.9,6.1,2.9H624.5c3.3,0,6.1,-1.3,6.1,-2.9V510.4c0,-1.6,-2.8,-2.9,-6.1,-2.9H517.7c-3.3,0,-6.1,1.3,-6.1,2.9v71.8Z" class="g4_58"/>
<path d="M349.7,558.2c0,3.4,3.5,6.1,7.9,6.1h89.9c4.4,0,8,-2.7,8,-6.1V501.6c0,-3.4,-3.6,-6.2,-8,-6.2H357.6c-4.4,0,-7.9,2.8,-7.9,6.2v56.6Z" class="g6_58"/>
<path d="M350,558.2c0,3.4,3.6,6.1,8,6.1h89.9c4.4,0,8,-2.7,8,-6.1V501.6c0,-3.4,-3.6,-6.2,-8,-6.2H358c-4.4,0,-8,2.8,-8,6.2v56.6Z" class="g4_58"/>
<path d="M349.7,560c0,2.4,3.5,4.3,7.9,4.3h89.9c4.4,0,8,-1.9,8,-4.3V519.9c0,-2.3,-3.6,-4.3,-8,-4.3H357.6c-4.4,0,-7.9,2,-7.9,4.3V560Z" class="g6_58"/>
<path d="M350,560c0,2.4,3.6,4.3,8,4.3h89.9c4.4,0,8,-1.9,8,-4.3V519.9c0,-2.3,-3.6,-4.3,-8,-4.3H358c-4.4,0,-8,2,-8,4.3V560Z" class="g4_58"/>
<path d="M157.2,487.2c0,2.9,2.7,5.3,6.1,5.3H270c3.4,0,6.2,-2.4,6.2,-5.3V355.6c0,-3,-2.8,-5.3,-6.2,-5.3H163.3c-3.4,0,-6.1,2.3,-6.1,5.3V487.2Z" class="g7_58"/>
<path d="M157.2,486.9c0,2.9,2.7,5.3,6.1,5.3H270c3.4,0,6.2,-2.4,6.2,-5.3V355.5c0,-2.9,-2.8,-5.3,-6.2,-5.3H163.3c-3.4,0,-6.1,2.4,-6.1,5.3V486.9Z" class="g4_58"/>
<path d="M157.2,488.9c0,2.5,2.7,4.5,6.1,4.5H270c3.4,0,6.2,-2,6.2,-4.5V376.8c0,-2.5,-2.8,-4.6,-6.2,-4.6H163.3c-3.4,0,-6.1,2.1,-6.1,4.6V488.9Z" class="g7_58"/>
<path d="M157.2,488.6c0,2.5,2.7,4.5,6.1,4.5H270c3.4,0,6.2,-2,6.2,-4.5V376.7c0,-2.5,-2.8,-4.5,-6.2,-4.5H163.3c-3.4,0,-6.1,2,-6.1,4.5V488.6Z" class="g4_58"/>
<path d="M339.8,424.3v-6.4m11.2,6.4l-8,-3.2l8,-3.2m0,3.2H339.8m-55.3,-3.2v6.4m-8.1,-3.2l8.1,.1" class="g8_58"/>
<path d="M284.1,421.1H351" class="g3_58"/>
<path d="M406.2,449.6h-6.4m6.4,-11.2l-3.2,8l-3.2,-8m3.2,0v11.2M399.8,484h6.4m-6.4,11.2l3.2,-8l3.2,8m-3.2,0V484" class="g8_58"/>
<path d="M403.1,495.2l-.2,-46.1" class="g3_58"/>
<path d="M467.6,537.7v6.4m-11.3,-6.5l8,3.3l-8,3.2m0,-3.2h11.3m35.5,3.2v-6.5m8,3.3h-8" class="g8_58"/>
<path d="M467.6,540.9h36.7" class="g3_58"/>
</svg>