<?xml version="1.0" encoding="UTF-8" standalone="no"?>
<!DOCTYPE svg PUBLIC "-//W3C//DTD SVG 1.1//EN"
"http://www.w3.org/Graphics/SVG/1.1/DTD/svg11.dtd">
<svg viewBox="0 0 931 1096" version="1.1" xmlns="http://www.w3.org/2000/svg" xmlns:xlink="http://www.w3.org/1999/xlink">
<defs>
<clipPath id="c0_78"><path d="M306.3,191.7V177.3h19.9v14.4Z"/></clipPath>
<clipPath id="c1_78"><path d="M595.9,304.6v-17h21.4v17Z"/></clipPath>
<clipPath id="c2_78"><path d="M505.3,422.2V405.3h21.3v16.9Z"/></clipPath>
<clipPath id="c3_78"><path d="M757,419.3V405h19.9v14.3Z"/></clipPath>
<clipPath id="c4_78"><path d="M355.6,731V716.6h19.8V731Z"/></clipPath>
<style type="text/css"><![CDATA[
.g0_78{
fill: none;
stroke: #241F1F;
stroke-width: 0.763;
stroke-miterlimit: 10;
}
.g1_78{
fill: none;
stroke: #241F1F;
stroke-width: 0.458;
stroke-miterlimit: 10;
}
.g2_78{
fill: none;
stroke: #00AEEF;
stroke-width: 0.916;
stroke-linejoin: round;
}
.g3_78{
fill: none;
stroke: #241F1F;
stroke-width: 0.611;
stroke-miterlimit: 3;
}
.g4_78{
fill: #241F1F;
}
.g5_78{
fill: #00AEEF;
}
]]></style>
</defs>
<path d="M561.6,127.6h17.3m38.2,0h11.2" class="g0_78"/>
<path clip-path="url(#c0_78)" d="M321.7,177.6h4.7" class="g1_78"/>
<path clip-path="url(#c1_78)" d="M607.6,288h10" class="g0_78"/>
<path d="M556.4,320.1h10" class="g0_78"/>
<path d="M560.8,356.3h4.7" class="g1_78"/>
<path clip-path="url(#c2_78)" d="M517,405.7h10" class="g0_78"/>
<path clip-path="url(#c3_78)" d="M772.4,405.2h4.7" class="g1_78"/>
<path d="M463.5,433.2h10" class="g0_78"/>
<path d="M665.8,432.7h4.7" class="g1_78"/>
<path d="M463.5,466.8h10" class="g0_78"/>
<path d="M665.8,466.3h4.7" class="g1_78"/>
<path d="M463.5,500.4h10" class="g0_78"/>
<path d="M665.8,499.9h4.7" class="g1_78"/>
<path d="M463.5,534h10" class="g0_78"/>
<path d="M665.8,533.5h4.7" class="g1_78"/>
<path clip-path="url(#c4_78)" d="M371,716.9h4.7" class="g1_78"/>
<path d="M521.3,767.3H526" class="g1_78"/>
<path d="M477.9,998.1c97.2,-6.5,115.9,-57.4,137.5,-127.2" class="g2_78"/>
<path d="M477.9,1000.4H628" class="g3_78"/>
<path fill-rule="evenodd" d="M628,1000.4L626.3,998l6.6,2.4l-6.6,2.5Z" class="g4_78"/>
<path d="M556.9,1019.4V868.6" class="g3_78"/>
<path fill-rule="evenodd" d="M556.9,868.6l-2.4,1.6l2.4,-6.5l2.5,6.5Z" class="g4_78"/>
<path d="M553.9,974.4H560m49.2,23v6.1m-26,-6.1v6.1m-77.1,-6.1v6.1m25.2,-6.1v6.1M553.9,896.4H560m-6.1,25.9H560m-6.1,26H560" class="g3_78"/>
<path d="M54.2,234.8c-.4,0,-.7,.5,-.7,.9c.1,.4,.4,.7,.9,.7c.4,0,.7,-.4,.7,-.8c0,-.5,-.4,-.8,-.9,-.8Z" class="g5_78"/>
<path d="M57.6,234.5c-.4,.1,-.7,.5,-.7,.9c.1,.4,.4,.8,.9,.7c.4,0,.7,-.4,.7,-.8c0,-.5,-.4,-.8,-.9,-.8Z" class="g5_78"/>
<path d="M61,234.2c-.4,.1,-.7,.5,-.7,.9c.1,.4,.4,.8,.9,.7c.4,0,.7,-.4,.7,-.8c0,-.5,-.4,-.8,-.9,-.8Z" class="g5_78"/>
<path d="M64.4,233.9c-.4,0,-.7,.4,-.7,.8c0,.5,.4,.8,.9,.7c.4,0,.7,-.4,.7,-.8c-.1,-.5,-.5,-.8,-.9,-.7Z" class="g5_78"/>
<path d="M67.8,233.5c-.5,0,-.8,.4,-.7,.8c0,.5,.4,.8,.9,.7c.4,0,.7,-.4,.7,-.8c-.1,-.5,-.5,-.8,-.9,-.7Z" class="g5_78"/>
<path d="M71.1,233c-.4,.1,-.7,.5,-.6,.9c0,.4,.4,.7,.9,.7c.4,-.1,.7,-.5,.6,-.9c0,-.5,-.4,-.7,-.9,-.7Z" class="g5_78"/>
<path d="M74.5,232.5c-.5,.1,-.7,.5,-.7,.9c.1,.4,.5,.7,.9,.7c.5,-.1,.8,-.5,.7,-.9c-.1,-.5,-.5,-.8,-.9,-.7Z" class="g5_78"/>
<path d="M77.8,232c-.4,0,-.7,.5,-.6,.9c.1,.4,.5,.7,.9,.6c.4,-.1,.7,-.4,.7,-.9c-.1,-.4,-.5,-.7,-1,-.6Z" class="g5_78"/>
<path d="M81.2,231.3c-.5,.1,-.7,.6,-.6,1c0,.4,.4,.7,.9,.6c.4,-.1,.7,-.4,.6,-.9c-.1,-.5,-.5,-.7,-.9,-.7Z" class="g5_78"/>
<path d="M84.5,230.6c-.5,.1,-.7,.6,-.6,1c.1,.4,.5,.7,.9,.6c.4,-.1,.7,-.5,.6,-.9c-.1,-.5,-.5,-.7,-.9,-.7Z" class="g5_78"/>
<path d="M87.8,229.9c-.4,.1,-.7,.5,-.6,1c.1,.4,.5,.6,1,.5c.4,0,.7,-.4,.6,-.9c-.2,-.4,-.6,-.7,-1,-.6Z" class="g5_78"/>
<path d="M91.1,229.1c-.4,.1,-.7,.6,-.6,1c.1,.4,.5,.7,1,.5c.4,-.1,.7,-.5,.6,-.9c-.2,-.5,-.6,-.7,-1,-.6Z" class="g5_78"/>
<path d="M94.4,228.2c-.5,.2,-.7,.6,-.6,1c.1,.4,.6,.7,1,.6c.4,-.1,.7,-.5,.6,-1c-.2,-.4,-.6,-.7,-1,-.6Z" class="g5_78"/>
<path d="M97.6,227.3c-.4,.1,-.6,.6,-.5,1c.1,.4,.5,.6,1,.5c.4,-.1,.6,-.5,.5,-1c-.1,-.4,-.6,-.6,-1,-.5Z" class="g5_78"/>
<path d="M100.8,226.3c-.4,.1,-.6,.6,-.5,1c.2,.4,.6,.6,1,.5c.4,-.1,.7,-.6,.5,-1c-.1,-.4,-.6,-.7,-1,-.5Z" class="g5_78"/>
<path d="M104.1,225.2c-.5,.1,-.7,.6,-.5,1c.1,.4,.5,.6,1,.5c.4,-.1,.6,-.6,.5,-1c-.2,-.4,-.6,-.6,-1,-.5Z" class="g5_78"/>
<path d="M107.2,224c-.4,.2,-.6,.7,-.4,1c.1,.4,.6,.7,1,.5c.4,-.2,.6,-.6,.4,-1c-.1,-.5,-.6,-.6,-1,-.5Z" class="g5_78"/>
<path d="M110.4,222.8c-.5,.1,-.6,.6,-.5,1c.2,.4,.6,.6,1.1,.4c.4,-.1,.6,-.6,.4,-1c-.2,-.4,-.6,-.6,-1,-.4Z" class="g5_78"/>
<path d="M113.4,221.4c-.4,.2,-.5,.7,-.4,1.1c.2,.3,.7,.5,1.1,.4c.4,-.2,.6,-.7,.4,-1.1c-.2,-.4,-.7,-.6,-1.1,-.4Z" class="g5_78"/>
<path d="M116.5,220c-.4,.2,-.5,.7,-.4,1.1c.2,.3,.7,.5,1.1,.3c.4,-.1,.6,-.6,.4,-1c-.2,-.4,-.7,-.6,-1.1,-.4Z" class="g5_78"/>
<path d="M119.5,218.5c-.4,.2,-.5,.7,-.3,1.1c.2,.3,.7,.5,1.1,.3c.3,-.2,.5,-.7,.3,-1.1c-.2,-.4,-.7,-.5,-1.1,-.3Z" class="g5_78"/>
<path d="M122.5,216.9c-.4,.2,-.5,.7,-.3,1.1c.2,.3,.7,.5,1.1,.2c.3,-.2,.5,-.6,.2,-1c-.2,-.4,-.7,-.5,-1,-.3Z" class="g5_78"/>
<path d="M125.4,215.2c-.4,.2,-.5,.7,-.3,1c.2,.4,.7,.5,1.1,.3c.4,-.2,.5,-.7,.3,-1.1c-.3,-.4,-.8,-.5,-1.1,-.2Z" class="g5_78"/>
<path d="M128.2,213.4c-.3,.2,-.4,.7,-.2,1.1c.2,.3,.7,.4,1.1,.2c.4,-.2,.5,-.7,.2,-1.1c-.2,-.4,-.7,-.5,-1.1,-.2Z" class="g5_78"/>
<path d="M131,211.5c-.4,.2,-.4,.7,-.2,1.1c.3,.3,.8,.4,1.1,.2c.4,-.3,.5,-.8,.2,-1.1c-.2,-.4,-.7,-.5,-1.1,-.2Z" class="g5_78"/>
<path d="M133.7,209.5c-.3,.2,-.4,.7,-.1,1.1c.2,.3,.7,.4,1.1,.1c.3,-.2,.4,-.7,.1,-1.1c-.2,-.3,-.7,-.4,-1.1,-.1Z" class="g5_78"/>
<path d="M136.4,207.4c-.4,.3,-.4,.8,-.1,1.1c.2,.3,.7,.4,1.1,.1c.3,-.3,.4,-.7,.1,-1.1c-.3,-.3,-.8,-.4,-1.1,-.1Z" class="g5_78"/>
<path d="M138.9,205.2c-.3,.3,-.3,.8,0,1.1c.2,.3,.7,.4,1.1,.1c.3,-.3,.4,-.8,0,-1.1c-.3,-.4,-.8,-.4,-1.1,-.1Z" class="g5_78"/>
<path d="M141.4,203c-.3,.3,-.3,.8,0,1.1c.3,.3,.8,.3,1.1,0c.3,-.3,.4,-.8,.1,-1.1c-.3,-.3,-.8,-.3,-1.2,0Z" class="g5_78"/>
<path d="M143.9,200.6c-.4,.3,-.3,.8,0,1.1c.3,.3,.8,.3,1.1,0c.3,-.3,.3,-.8,0,-1.1c-.3,-.3,-.8,-.3,-1.1,0Z" class="g5_78"/>
<path d="M146.2,198.2c-.3,.3,-.2,.8,.1,1.1c.2,.3,.8,.3,1.1,0c.3,-.3,.3,-.8,-.1,-1.1c-.3,-.4,-.8,-.3,-1.1,0Z" class="g5_78"/>
<path d="M148.5,195.7c-.3,.3,-.3,.8,0,1.1c.4,.3,.9,.3,1.2,-.1c.2,-.3,.2,-.8,-.1,-1.1c-.4,-.3,-.9,-.2,-1.1,.1Z" class="g5_78"/>
<path d="M150.6,193.1c-.3,.4,-.2,.9,.1,1.1c.4,.3,.9,.2,1.1,-.1c.3,-.3,.3,-.8,-.1,-1.1c-.3,-.3,-.8,-.2,-1.1,.1Z" class="g5_78"/>
<path d="M152.7,190.5c-.3,.3,-.2,.8,.2,1.1c.3,.2,.8,.2,1.1,-.2c.2,-.3,.2,-.8,-.2,-1.1c-.3,-.3,-.8,-.2,-1.1,.2Z" class="g5_78"/>
<path d="M154.7,187.7c-.2,.4,-.1,.9,.2,1.1c.3,.3,.8,.2,1.1,-.1c.3,-.4,.2,-.9,-.2,-1.1c-.3,-.3,-.8,-.2,-1.1,.1Z" class="g5_78"/>
<path d="M156.7,185c-.3,.4,-.1,.9,.2,1.1c.3,.2,.8,.2,1.1,-.2c.2,-.4,.2,-.9,-.2,-1.1c-.4,-.3,-.9,-.2,-1.1,.2Z" class="g5_78"/>
<path d="M158.5,182.2c-.2,.4,-.1,.8,.3,1.1c.3,.2,.8,.1,1,-.3c.3,-.4,.2,-.8,-.2,-1.1c-.4,-.2,-.9,-.1,-1.1,.3Z" class="g5_78"/>
<path d="M160.3,179.3c-.2,.4,-.1,.9,.3,1.1c.3,.2,.8,.1,1.1,-.3c.2,-.4,.1,-.8,-.3,-1.1c-.4,-.2,-.9,-.1,-1.1,.3Z" class="g5_78"/>
<path d="M162,176.4c-.2,.4,0,.9,.3,1.1c.4,.2,.9,.1,1.1,-.3c.2,-.4,.1,-.9,-.3,-1.1c-.4,-.2,-.9,-.1,-1.1,.3Z" class="g5_78"/>
<path d="M163.7,173.4c-.2,.4,-.1,.9,.3,1.1c.4,.2,.8,.1,1.1,-.3c.2,-.4,.1,-.9,-.3,-1.1c-.4,-.2,-.9,0,-1.1,.3Z" class="g5_78"/>
<path d="M165.3,170.4c-.2,.5,-.1,.9,.3,1.1c.4,.2,.9,.1,1.1,-.3c.2,-.4,.1,-.9,-.4,-1.1c-.4,-.2,-.8,0,-1,.3Z" class="g5_78"/>
<path d="M166.8,167.4c-.2,.4,0,.9,.4,1.1c.3,.2,.8,0,1,-.4c.2,-.4,.1,-.9,-.3,-1.1c-.5,-.2,-.9,0,-1.1,.4Z" class="g5_78"/>
<path d="M168.3,164.4c-.2,.4,0,.8,.4,1c.3,.2,.8,0,1,-.4c.2,-.4,0,-.8,-.4,-1c-.4,-.2,-.9,0,-1,.4Z" class="g5_78"/>
<path d="M169.7,161.3c-.2,.4,0,.9,.4,1c.4,.2,.8,0,1,-.4c.2,-.4,.1,-.8,-.4,-1c-.4,-.2,-.9,0,-1,.4Z" class="g5_78"/>
<path d="M171.1,158.2c-.2,.4,0,.8,.4,1c.4,.2,.8,0,1,-.4c.2,-.4,.1,-.8,-.4,-1c-.4,-.2,-.9,0,-1,.4Z" class="g5_78"/>
<path d="M172.4,155c-.2,.5,0,.9,.4,1.1c.4,.1,.9,0,1,-.4c.2,-.4,.1,-.9,-.4,-1.1c-.4,-.2,-.8,0,-1,.4Z" class="g5_78"/>
<path d="M173.7,151.9c-.2,.4,.1,.9,.4,1c.4,.2,.9,0,1.1,-.4c.1,-.4,0,-.9,-.5,-1c-.4,-.2,-.9,0,-1,.4Z" class="g5_78"/>
<path d="M174.9,148.7c-.1,.5,.1,.9,.5,1.1c.4,.1,.8,-.1,1,-.5c.1,-.4,0,-.8,-.4,-1c-.5,-.2,-.9,0,-1.1,.4Z" class="g5_78"/>
<path d="M176.1,145.6c-.1,.4,.1,.8,.5,1c.4,.1,.9,-.1,1,-.5c.2,-.4,0,-.8,-.5,-1c-.4,-.2,-.8,.1,-1,.5Z" class="g5_78"/>
<path d="M177.3,142.4c-.1,.4,.1,.8,.5,1c.4,.1,.9,-.1,1,-.5c.1,-.4,0,-.8,-.5,-1c-.4,-.2,-.8,.1,-1,.5Z" class="g5_78"/>
<path d="M178.5,139.2c-.2,.4,.1,.8,.5,1c.4,.1,.8,-.1,1,-.5c.1,-.4,0,-.9,-.5,-1c-.4,-.2,-.9,.1,-1,.5Z" class="g5_78"/>
<path d="M179.6,136c-.1,.4,.1,.8,.5,1c.4,.1,.9,-.1,1,-.5c.1,-.4,0,-.9,-.5,-1c-.4,-.2,-.9,.1,-1,.5Z" class="g5_78"/>
<path d="M180.7,132.7c-.1,.5,.1,.9,.5,1c.4,.2,.9,0,1,-.4c.2,-.5,0,-.9,-.5,-1.1c-.4,-.1,-.8,.1,-1,.5Z" class="g5_78"/>
<path d="M181.8,129.5c-.1,.5,.1,.9,.5,1c.4,.1,.9,-.1,1,-.5c.1,-.4,-.1,-.9,-.5,-1c-.4,-.1,-.9,.1,-1,.5Z" class="g5_78"/>
<path d="M182.9,126.3c-.2,.4,.1,.8,.5,1c.4,.1,.8,-.1,1,-.5c.1,-.5,-.1,-.9,-.5,-1c-.5,-.2,-.9,.1,-1,.5Z" class="g5_78"/>
<path d="M183.9,123c-.1,.5,.2,.9,.5,1c.4,.1,.9,-.1,1,-.5c.2,-.4,0,-.8,-.5,-1c-.4,-.1,-.8,.1,-1,.5Z" class="g5_78"/>
<path d="M185,119.8c-.2,.4,.1,.8,.5,1c.4,.1,.9,-.1,1,-.5c.1,-.4,-.1,-.9,-.5,-1c-.4,-.2,-.9,.1,-1,.5Z" class="g5_78"/>
<path d="M186,116.5c-.1,.5,.2,.9,.5,1c.4,.2,.9,-.1,1,-.5c.2,-.4,0,-.8,-.5,-1c-.4,-.1,-.8,.1,-1,.5Z" class="g5_78"/>
<path d="M187,113.3c-.1,.4,.2,.9,.6,1c.3,.1,.8,-.1,.9,-.6c.2,-.4,0,-.8,-.5,-1c-.4,-.1,-.8,.2,-1,.6Z" class="g5_78"/>
<path d="M188.1,110c-.2,.5,.1,.9,.5,1c.4,.1,.8,-.1,1,-.5c.1,-.4,-.1,-.9,-.6,-1c-.4,-.1,-.8,.1,-.9,.5Z" class="g5_78"/>
<path d="M53.5,238.6H201.7" class="g3_78"/>
<path fill-rule="evenodd" d="M201.7,238.6l-1.6,-2.4l6.5,2.4l-6.5,2.5Z" class="g4_78"/>
<path d="M130.7,257.6V106.8" class="g3_78"/>
<path fill-rule="evenodd" d="M130.7,106.8l-2.5,1.6l2.5,-6.5l2.4,6.5Z" class="g4_78"/>
<path d="M182.9,235.6v6.1M157,235.6v6.1M79.8,235.6v6.1M127.6,134.6h6.1m-6.1,26h6.1m-6.1,25.9h6.1M105,235.6v6.1m22.6,-29h6.1" class="g3_78"/>
</svg>