<?xml version="1.0" encoding="UTF-8" standalone="no"?>
<!DOCTYPE svg PUBLIC "-//W3C//DTD SVG 1.1//EN"
"http://www.w3.org/Graphics/SVG/1.1/DTD/svg11.dtd">
<svg viewBox="0 0 907 1045" version="1.1" xmlns="http://www.w3.org/2000/svg" xmlns:xlink="http://www.w3.org/1999/xlink">
<defs>
<clipPath id="c0_422"><path d="M91.3,193.6V105.4H246v88.2Z"/></clipPath>
<clipPath id="c1_422"><path d="M99.2,711.7V252.8H793.1V711.7Z"/></clipPath>
<clipPath id="c2_422"><path d="M-2.6,1047.7V-2.6H910.2V1047.7Z"/></clipPath>
<style type="text/css"><![CDATA[
.g0_422{
fill: #FFFFFF;
}
.g1_422{
fill: none;
stroke: #5E5E5E;
stroke-width: 1.306;
stroke-linecap: butt;
stroke-linejoin: miter;
}
.g2_422{
fill: #5E5E5E;
}
.g3_422{
fill: none;
stroke: #5E5E5E;
stroke-width: 1.307;
stroke-linecap: butt;
stroke-linejoin: miter;
}
.g4_422{
fill: none;
stroke: #000000;
stroke-width: 1.527;
stroke-linecap: butt;
stroke-linejoin: miter;
stroke-miterlimit: 4;
}
.g5_422{
fill: none;
stroke: #FFFFFF;
stroke-width: 1.909;
stroke-linecap: butt;
stroke-linejoin: miter;
}
.g6_422{
fill: none;
stroke: #000000;
stroke-width: 0.381;
stroke-linecap: butt;
stroke-linejoin: miter;
}
]]></style>
</defs>
<image clip-path="url(#c0_422)" preserveAspectRatio="none" x="91" y="71" width="155" height="155" xlink:href="img/1.jpg"/>
<path d="M124,252.8h26.2v26.1H124Z" class="g0_422"/>
<path d="M124.7,253.4h26.1v26.2H124.7Z" class="g1_422"/>
<path d="M150.2,252.8h26.1v26.1H150.2Z" class="g0_422"/>
<path d="M150.8,253.4H177v26.2H150.8Z" class="g1_422"/>
<path d="M176.3,252.8h26.1v26.1H176.3Z" class="g0_422"/>
<path d="M177,253.4h26.1v26.2H177Z" class="g1_422"/>
<path clip-path="url(#c1_422)" d="M202.4,252.8h26.2v26.1H202.4Z" class="g0_422"/>
<path d="M203.1,253.4h26.1v26.2H203.1Z" class="g1_422"/>
<path clip-path="url(#c1_422)" d="M228.6,252.8h26.1v26.1H228.6Z" class="g0_422"/>
<path d="M229.2,253.4h26.2v26.2H229.2Z" class="g1_422"/>
<path clip-path="url(#c1_422)" d="M254.7,252.8h26.2v26.1H254.7Z" class="g0_422"/>
<path d="M255.4,253.4h26.1v26.2H255.4Z" class="g1_422"/>
<path clip-path="url(#c1_422)" d="M280.9,252.8H307v26.1H280.9Z" class="g0_422"/>
<path d="M281.5,253.4h26.1v26.2H281.5Z" class="g1_422"/>
<path d="M307,252.8h26.1v26.1H307Z" class="g0_422"/>
<path d="M307.6,253.4h26.2v26.2H307.6Z" class="g1_422"/>
<path d="M333.1,252.8h26.2v26.1H333.1Z" class="g0_422"/>
<path d="M333.8,253.4h26.1v26.2H333.8Z" class="g1_422"/>
<g clip-path="url(#c1_422)">
<path d="M359.3,252.8h27.4v27.4H359.3Z" class="g2_422"/>
<path d="M385.4,252.8h27.5v27.4H385.4Z" class="g2_422"/>
<path d="M411.5,252.8H439v27.4H411.5Z" class="g2_422"/>
<path d="M437.7,252.8h27.4v27.4H437.7Z" class="g2_422"/>
<path d="M463.8,252.8h27.5v27.4H463.8Z" class="g2_422"/>
<path d="M490,252.8h27.4v27.4H490Z" class="g2_422"/>
<path d="M516.1,252.8h27.4v27.4H516.1Z" class="g2_422"/>
<path d="M542.2,252.8h26.2v26.1H542.2Z" class="g0_422"/>
</g>
<path d="M542.9,253.4H569v26.2H542.9Z" class="g1_422"/>
<g clip-path="url(#c1_422)">
<path d="M568.4,252.8h27.4v27.4H568.4Z" class="g2_422"/>
<path d="M594.5,252.8H622v27.4H594.5Z" class="g2_422"/>
<path d="M620.6,252.8h27.5v27.4H620.6Z" class="g2_422"/>
<path d="M646.8,252.8h27.4v27.4H646.8Z" class="g2_422"/>
<path d="M672.9,252.8h27.5v27.4H672.9Z" class="g2_422"/>
<path d="M699.1,252.8h27.4v27.4H699.1Z" class="g2_422"/>
<path d="M725.2,252.8h27.4v27.4H725.2Z" class="g2_422"/>
<path d="M751.3,252.8h27.5v27.4H751.3Z" class="g2_422"/>
</g>
<path d="M124,278.9h26.2v26.2H124Z" class="g0_422"/>
<path d="M124.7,279.6h26.1v26.1H124.7Z" class="g1_422"/>
<path d="M150.2,278.9h27.4v27.5H150.2Z" class="g2_422"/>
<path d="M176.3,278.9h27.4v27.5H176.3Z" class="g2_422"/>
<path d="M202.4,278.9h27.5v27.5H202.4Z" class="g2_422"/>
<path d="M228.6,278.9H256v27.5H228.6Z" class="g2_422"/>
<path d="M254.7,278.9h27.5v27.5H254.7Z" class="g2_422"/>
<path d="M280.9,278.9h27.4v27.5H280.9Z" class="g2_422"/>
<path d="M307,278.9h27.4v27.5H307Z" class="g2_422"/>
<path d="M333.1,278.9h27.5v27.5H333.1Z" class="g2_422"/>
<path d="M359.3,278.9h27.4v27.5H359.3Z" class="g2_422"/>
<path d="M385.4,278.9h27.5v27.5H385.4Z" class="g2_422"/>
<path d="M411.5,278.9H439v27.5H411.5Z" class="g2_422"/>
<path d="M437.7,278.9h27.4v27.5H437.7Z" class="g2_422"/>
<path d="M463.8,278.9h27.5v27.5H463.8Z" class="g2_422"/>
<path d="M490,278.9h27.4v27.5H490Z" class="g2_422"/>
<path d="M516.1,278.9h26.1v26.2H516.1Z" class="g0_422"/>
<path d="M516.8,279.6h26.1v26.1H516.8Z" class="g1_422"/>
<path d="M542.2,278.9h26.2v26.2H542.2Z" class="g0_422"/>
<path d="M542.9,279.6H569v26.1H542.9Z" class="g1_422"/>
<path d="M568.4,278.9h26.1v26.2H568.4Z" class="g0_422"/>
<path d="M569,279.6h26.2v26.1H569Z" class="g1_422"/>
<path d="M594.5,278.9h26.2v26.2H594.5Z" class="g0_422"/>
<path d="M595.2,279.6h26.1v26.1H595.2Z" class="g1_422"/>
<path d="M620.7,278.9h26.1V305H620.7Z" class="g0_422"/>
<path d="M621.3,279.6h26.2v26.1H621.3Z" class="g1_422"/>
<path d="M646.8,278.9h26.1V305H646.8Z" class="g0_422"/>
<path d="M647.5,279.6h26.1v26.1H647.5Z" class="g1_422"/>
<path d="M672.9,278.9h26.2V305H672.9Z" class="g0_422"/>
<path d="M673.6,279.5h26.1v26.2H673.6Z" class="g1_422"/>
<path d="M699.1,278.9h26.1V305H699.1Z" class="g0_422"/>
<path d="M699.7,279.5h26.2v26.2H699.7Z" class="g1_422"/>
<path d="M725.2,278.9h26.2V305H725.2Z" class="g0_422"/>
<path d="M725.9,279.5H752v26.2H725.9Z" class="g1_422"/>
<path d="M751.4,278.9h27.4v27.4H751.4Z" class="g2_422"/>
<path d="M124,305h26.2v26.1H124Z" class="g0_422"/>
<path d="M124.7,305.7h26.1v26.1H124.7Z" class="g1_422"/>
<path d="M150.2,305h27.4v27.4H150.2Z" class="g2_422"/>
<path d="M176.3,305h26.2v26.1H176.3Z" class="g0_422"/>
<path d="M177,305.7h26.1v26.1H177Z" class="g1_422"/>
<path d="M202.5,305h26.1v26.1H202.5Z" class="g0_422"/>
<path d="M203.1,305.7h26.2v26.1H203.1Z" class="g1_422"/>
<path d="M228.6,305h26.1v26.1H228.6Z" class="g0_422"/>
<path d="M229.2,305.7h26.2v26.1H229.2Z" class="g1_422"/>
<path d="M254.7,305h26.2v26.1H254.7Z" class="g0_422"/>
<path d="M255.4,305.7h26.1v26.1H255.4Z" class="g1_422"/>
<path d="M280.9,305H307v26.1H280.9Z" class="g0_422"/>
<path d="M281.5,305.7h26.2v26.1H281.5Z" class="g1_422"/>
<path d="M307,305h26.2v26.1H307Z" class="g0_422"/>
<path d="M307.7,305.7h26.1v26.1H307.7Z" class="g1_422"/>
<path d="M333.2,305h26.1v26.1H333.2Z" class="g0_422"/>
<path d="M333.8,305.7h26.1v26.1H333.8Z" class="g1_422"/>
<path d="M359.3,305h26.1v26.1H359.3Z" class="g0_422"/>
<path d="M359.9,305.7h26.2v26.1H359.9Z" class="g1_422"/>
<path d="M385.4,305h26.2v26.1H385.4Z" class="g0_422"/>
<path d="M386.1,305.7h26.1v26.1H386.1Z" class="g1_422"/>
<path d="M411.6,305H439v27.4H411.6Z" class="g2_422"/>
<path d="M437.7,305h27.5v27.4H437.7Z" class="g2_422"/>
<path d="M463.9,305h27.4v27.4H463.9Z" class="g2_422"/>
<path d="M490,305h27.4v27.4H490Z" class="g2_422"/>
<path d="M516.1,305h27.5v27.4H516.1Z" class="g2_422"/>
<path d="M542.3,305h26.1v26.1H542.3Z" class="g0_422"/>
<path d="M542.9,305.7h26.2v26.1H542.9Z" class="g1_422"/>
<path d="M568.4,305h27.5v27.4H568.4Z" class="g2_422"/>
<path d="M594.6,305h26.1v26.1H594.6Z" class="g0_422"/>
<path d="M595.2,305.7h26.1v26.1H595.2Z" class="g1_422"/>
<path d="M620.7,305h27.4v27.4H620.7Z" class="g2_422"/>
<path d="M646.8,305h27.5v27.4H646.8Z" class="g2_422"/>
<path d="M673,305h27.4v27.4H673Z" class="g2_422"/>
<path d="M699.1,305h27.5v27.4H699.1Z" class="g2_422"/>
<path d="M725.3,305h27.4v27.4H725.3Z" class="g2_422"/>
<path d="M751.4,305h27.4v27.4H751.4Z" class="g2_422"/>
<path d="M124,331.1h26.2v26.2H124Z" class="g0_422"/>
<path d="M124.7,331.8h26.1v26.1H124.7Z" class="g1_422"/>
<path d="M150.2,331.1h27.4v27.5H150.2Z" class="g2_422"/>
<path d="M176.3,331.1h26.2v26.2H176.3Z" class="g0_422"/>
<path d="M177,331.8h26.1v26.1H177Z" class="g1_422"/>
<path d="M202.5,331.1h27.4v27.5H202.5Z" class="g2_422"/>
<path d="M228.6,331.1h27.5v27.5H228.6Z" class="g2_422"/>
<path d="M254.7,331.1h27.5v27.5H254.7Z" class="g2_422"/>
<path d="M280.9,331.1h27.4v27.5H280.9Z" class="g2_422"/>
<path d="M307,331.1h27.5v27.5H307Z" class="g2_422"/>
<path d="M333.2,331.1h27.4v27.5H333.2Z" class="g2_422"/>
<path d="M359.3,331.1h27.5v27.5H359.3Z" class="g2_422"/>
<path d="M385.4,331.1h27.5v27.5H385.4Z" class="g2_422"/>
<path d="M411.6,331.1H439v27.5H411.6Z" class="g2_422"/>
<path d="M437.7,331.1h27.5v27.5H437.7Z" class="g2_422"/>
<path d="M463.9,331.1h27.4v27.5H463.9Z" class="g2_422"/>
<path d="M490,331.1h27.5v27.5H490Z" class="g2_422"/>
<path d="M516.1,331.1h26.2v26.2H516.1Z" class="g0_422"/>
<path d="M516.8,331.8h26.1v26.1H516.8Z" class="g3_422"/>
<path d="M542.3,331.1h26.1v26.2H542.3Z" class="g0_422"/>
<path d="M542.9,331.8h26.2v26.1H542.9Z" class="g3_422"/>
<path d="M568.4,331.1h26.2v26.2H568.4Z" class="g0_422"/>
<path d="M569.1,331.8h26.1v26.1H569.1Z" class="g3_422"/>
<path d="M594.6,331.1h26.1v26.1H594.6Z" class="g0_422"/>
<path d="M595.2,331.8h26.2v26.1H595.2Z" class="g3_422"/>
<path d="M620.7,331.1h26.2v26.2H620.7Z" class="g0_422"/>
<path d="M621.4,331.8h26.1v26.1H621.4Z" class="g3_422"/>
<path d="M646.9,331.1H673v26.2H646.9Z" class="g0_422"/>
<path d="M647.5,331.8h26.2v26.1H647.5Z" class="g3_422"/>
<path d="M673,331.1h26.1v26.2H673Z" class="g0_422"/>
<path d="M673.7,331.8h26.1v26.1H673.7Z" class="g3_422"/>
<path d="M699.1,331.1h26.2v26.2H699.1Z" class="g0_422"/>
<path d="M699.8,331.8h26.1v26.1H699.8Z" class="g3_422"/>
<path d="M725.3,331.1h27.4v27.5H725.3Z" class="g2_422"/>
<path d="M751.4,331.1h27.5v27.5H751.4Z" class="g2_422"/>
<path d="M124,357.3h26.2v26.1H124Z" class="g0_422"/>
<path d="M124.7,357.9h26.1V384H124.7Z" class="g3_422"/>
<path d="M150.2,357.2h27.4v27.5H150.2Z" class="g2_422"/>
<path d="M176.3,357.2h26.2v26.2H176.3Z" class="g0_422"/>
<path d="M177,357.9h26.1V384H177Z" class="g3_422"/>
<path d="M202.5,357.2h27.4v27.5H202.5Z" class="g2_422"/>
<path d="M228.6,357.2h27.5v27.5H228.6Z" class="g2_422"/>
<path d="M254.8,357.2h27.4v27.5H254.8Z" class="g2_422"/>
<path d="M280.9,357.2H307v26.2H280.9Z" class="g0_422"/>
<path d="M281.5,357.9h26.2V384H281.5Z" class="g3_422"/>
<path d="M307,357.2h27.5v27.5H307Z" class="g2_422"/>
<path d="M333.2,357.2h27.4v27.5H333.2Z" class="g2_422"/>
<path d="M359.3,357.2h27.5v27.5H359.3Z" class="g2_422"/>
<path d="M385.5,357.2h27.4v27.5H385.5Z" class="g2_422"/>
<path d="M411.6,357.2h26.1v26.2H411.6Z" class="g0_422"/>
<path d="M412.3,357.9h26.1V384H412.3Z" class="g3_422"/>
<path d="M437.7,357.2h27.5v27.5H437.7Z" class="g2_422"/>
<path d="M463.9,357.2h27.4v27.5H463.9Z" class="g2_422"/>
<path d="M490,357.2h27.5v27.5H490Z" class="g2_422"/>
<path d="M516.2,357.2h27.4v27.5H516.2Z" class="g2_422"/>
<path d="M542.3,357.2h26.1v26.2H542.3Z" class="g0_422"/>
<path d="M543,357.9h26.1V384H543Z" class="g3_422"/>
<path d="M568.4,357.2h27.5v27.5H568.4Z" class="g2_422"/>
<path d="M594.6,357.2h26.1v26.2H594.6Z" class="g0_422"/>
<path d="M595.2,357.9h26.2V384H595.2Z" class="g3_422"/>
<path d="M620.7,357.2h27.5v27.5H620.7Z" class="g2_422"/>
<path d="M646.9,357.2h27.4v27.5H646.9Z" class="g2_422"/>
<path d="M673,357.2h27.5v27.5H673Z" class="g2_422"/>
<path d="M699.2,357.2h26.1v26.2H699.2Z" class="g0_422"/>
<path d="M699.8,357.9H726V384H699.8Z" class="g3_422"/>
<path d="M725.3,357.2h27.5v27.5H725.3Z" class="g2_422"/>
<path d="M751.5,357.2h27.4v27.5H751.5Z" class="g2_422"/>
<path d="M124.1,383.3h26.1v26.2H124.1Z" class="g0_422"/>
<path d="M124.7,384h26.1v26.2H124.7Z" class="g3_422"/>
<path d="M150.2,383.3h27.4v27.5H150.2Z" class="g2_422"/>
<path d="M176.3,383.3h26.2v26.2H176.3Z" class="g0_422"/>
<path d="M177,384h26.1v26.2H177Z" class="g3_422"/>
<path d="M202.5,383.3h27.4v27.5H202.5Z" class="g2_422"/>
<path d="M228.6,383.3h27.5v27.5H228.6Z" class="g2_422"/>
<path d="M254.8,383.3h26.1v26.2H254.8Z" class="g0_422"/>
<path d="M255.4,384h26.2v26.2H255.4Z" class="g3_422"/>
<path d="M280.9,383.3H307v26.2H280.9Z" class="g0_422"/>
<path d="M281.6,384h26.1v26.2H281.6Z" class="g3_422"/>
<path d="M307,383.4h26.2v26.1H307Z" class="g0_422"/>
<path d="M307.7,384h26.1v26.2H307.7Z" class="g3_422"/>
<path d="M333.2,383.3h26.1v26.2H333.2Z" class="g0_422"/>
<path d="M333.8,384H360v26.2H333.8Z" class="g3_422"/>
<path d="M359.3,383.3h26.2v26.2H359.3Z" class="g0_422"/>
<path d="M360,384h26.1v26.2H360Z" class="g3_422"/>
<path d="M385.5,383.3h26.1v26.2H385.5Z" class="g0_422"/>
<path d="M386.1,384h26.2v26.2H386.1Z" class="g3_422"/>
<path d="M411.6,383.3h26.2v26.2H411.6Z" class="g0_422"/>
<path d="M412.3,384h26.1v26.2H412.3Z" class="g3_422"/>
<path d="M437.8,383.3h26.1v26.2H437.8Z" class="g0_422"/>
<path d="M438.4,384h26.2v26.2H438.4Z" class="g3_422"/>
<path d="M463.9,383.4H490v26.1H463.9Z" class="g0_422"/>
<path d="M464.5,384h26.2v26.2H464.5Z" class="g3_422"/>
<path d="M490,383.3h26.2v26.2H490Z" class="g0_422"/>
<path d="M490.7,384h26.1v26.2H490.7Z" class="g3_422"/>
<path d="M516.2,383.3h26.1v26.2H516.2Z" class="g0_422"/>
<path d="M516.8,384H543v26.2H516.8Z" class="g3_422"/>
<path d="M542.3,383.4h26.2v26.1H542.3Z" class="g0_422"/>
<path d="M543,384h26.1v26.1H543Z" class="g3_422"/>
<path d="M568.5,383.4h27.4v27.4H568.5Z" class="g2_422"/>
<path d="M594.6,383.4h26.2v26.1H594.6Z" class="g0_422"/>
<path d="M595.3,384h26.1v26.1H595.3Z" class="g3_422"/>
<path d="M620.8,383.4h27.4v27.4H620.8Z" class="g2_422"/>
<path d="M646.9,383.4h27.4v27.4H646.9Z" class="g2_422"/>
<path d="M673,383.4h27.5v27.4H673Z" class="g2_422"/>
<path d="M699.2,383.4h26.1v26.1H699.2Z" class="g0_422"/>
<path d="M699.8,384H726v26.1H699.8Z" class="g3_422"/>
<path d="M725.3,383.4h27.5v27.4H725.3Z" class="g2_422"/>
<path d="M751.5,383.4h27.4v27.4H751.5Z" class="g2_422"/>
<path d="M124.1,409.5h26.1v26.1H124.1Z" class="g0_422"/>
<path d="M124.7,410.1h26.2v26.2H124.7Z" class="g3_422"/>
<path d="M150.2,409.5h27.5v27.4H150.2Z" class="g2_422"/>
<path d="M176.3,409.5h26.2v26.1H176.3Z" class="g0_422"/>
<path d="M177,410.1h26.1v26.2H177Z" class="g3_422"/>
<path d="M202.5,409.5h27.4v27.4H202.5Z" class="g2_422"/>
<path d="M228.6,409.5h27.5v27.4H228.6Z" class="g2_422"/>
<path d="M254.8,409.5h27.4v27.4H254.8Z" class="g2_422"/>
<path d="M280.9,409.5h26.2v26.1H280.9Z" class="g0_422"/>
<path d="M281.6,410.1h26.1v26.2H281.6Z" class="g3_422"/>
<path d="M307.1,409.5h27.4v27.4H307.1Z" class="g2_422"/>
<path d="M333.2,409.5h27.4v27.4H333.2Z" class="g2_422"/>
<path d="M359.3,409.5h27.5v27.4H359.3Z" class="g2_422"/>
<path d="M385.5,409.5h27.4v27.4H385.5Z" class="g2_422"/>
<path d="M411.6,409.5h26.2v26.1H411.6Z" class="g0_422"/>
<path d="M412.3,410.1h26.1v26.2H412.3Z" class="g3_422"/>
<path d="M437.8,409.5h27.4v27.4H437.8Z" class="g2_422"/>
<path d="M463.9,409.5h27.5v27.4H463.9Z" class="g2_422"/>
<path d="M490.1,409.5h27.4v27.4H490.1Z" class="g2_422"/>
<path d="M516.2,409.5h27.4v27.4H516.2Z" class="g2_422"/>
<path d="M542.3,409.5h26.2v26.1H542.3Z" class="g0_422"/>
<path d="M543,410.1h26.1v26.2H543Z" class="g3_422"/>
<path d="M568.5,409.5h27.4v27.4H568.5Z" class="g2_422"/>
<path d="M594.6,409.5h26.2v26.1H594.6Z" class="g0_422"/>
<path d="M595.3,410.1h26.1v26.2H595.3Z" class="g3_422"/>
<path d="M620.8,409.5h27.4v27.4H620.8Z" class="g2_422"/>
<path d="M646.9,409.5h27.5v27.4H646.9Z" class="g2_422"/>
<path d="M673.1,409.5h27.4v27.4H673.1Z" class="g2_422"/>
<path d="M699.2,409.5h26.1v26.1H699.2Z" class="g0_422"/>
<path d="M699.8,410.1H726v26.2H699.8Z" class="g3_422"/>
<path d="M725.3,409.5h27.5v27.4H725.3Z" class="g2_422"/>
<path d="M751.5,409.5h27.4v27.4H751.5Z" class="g2_422"/>
<path d="M124.1,435.6h26.1v26.2H124.1Z" class="g0_422"/>
<path d="M124.7,436.3h26.2v26.1H124.7Z" class="g3_422"/>
<path d="M150.2,435.6h27.4v27.5H150.2Z" class="g2_422"/>
<path d="M176.3,435.6h26.2v26.2H176.3Z" class="g0_422"/>
<path d="M177,436.3h26.1v26.1H177Z" class="g3_422"/>
<path d="M202.5,435.6h27.4v27.5H202.5Z" class="g2_422"/>
<path d="M228.6,435.6h26.2v26.2H228.6Z" class="g0_422"/>
<path d="M229.3,436.3h26.1v26.1H229.3Z" class="g3_422"/>
<path d="M254.8,435.6h27.4v27.5H254.8Z" class="g2_422"/>
<path d="M280.9,435.6h26.2v26.2H280.9Z" class="g0_422"/>
<path d="M281.6,436.3h26.1v26.1H281.6Z" class="g3_422"/>
<path d="M307.1,435.6h27.4v27.5H307.1Z" class="g2_422"/>
<path d="M333.2,435.6h26.1v26.2H333.2Z" class="g0_422"/>
<path d="M333.9,436.3H360v26.1H333.9Z" class="g3_422"/>
<path d="M359.3,435.6h26.2v26.2H359.3Z" class="g0_422"/>
<path d="M360,436.3h26.1v26.1H360Z" class="g3_422"/>
<path d="M385.5,435.6h26.1v26.1H385.5Z" class="g0_422"/>
<path d="M386.1,436.3h26.2v26.1H386.1Z" class="g3_422"/>
<path d="M411.6,435.6h26.2v26.1H411.6Z" class="g0_422"/>
<path d="M412.3,436.3h26.1v26.1H412.3Z" class="g3_422"/>
<path d="M437.8,435.6h27.4v27.5H437.8Z" class="g2_422"/>
<path d="M463.9,435.6h27.5v27.5H463.9Z" class="g2_422"/>
<path d="M490.1,435.6h27.4v27.5H490.1Z" class="g2_422"/>
<path d="M516.2,435.6h27.5v27.5H516.2Z" class="g2_422"/>
<path d="M542.4,435.6h26.1v26.1H542.4Z" class="g0_422"/>
<path d="M543,436.2h26.2v26.2H543Z" class="g3_422"/>
<path d="M568.5,435.6H596v27.5H568.5Z" class="g2_422"/>
<path d="M594.6,435.6h26.2v26.1H594.6Z" class="g0_422"/>
<path d="M595.3,436.2h26.1v26.2H595.3Z" class="g3_422"/>
<path d="M620.8,435.6h27.5V463H620.8Z" class="g2_422"/>
<path d="M646.9,435.6h27.5V463H646.9Z" class="g2_422"/>
<path d="M673.1,435.6h27.4V463H673.1Z" class="g2_422"/>
<path d="M699.2,435.6h26.2v26.1H699.2Z" class="g0_422"/>
<path d="M699.9,436.2H726v26.2H699.9Z" class="g3_422"/>
<path d="M725.4,435.6h27.4V463H725.4Z" class="g2_422"/>
<path d="M751.5,435.6H779V463H751.5Z" class="g2_422"/>
<path d="M124.1,461.7h26.1v26.2H124.1Z" class="g0_422"/>
<path d="M124.7,462.4h26.2v26.1H124.7Z" class="g3_422"/>
<path d="M150.2,461.7h27.5v27.5H150.2Z" class="g2_422"/>
<path d="M176.4,461.7h26.1v26.2H176.4Z" class="g0_422"/>
<path d="M177,462.4h26.2v26.1H177Z" class="g3_422"/>
<path d="M202.5,461.7H230v27.5H202.5Z" class="g2_422"/>
<path d="M228.6,461.7h26.2v26.2H228.6Z" class="g0_422"/>
<path d="M229.3,462.4h26.1v26.1H229.3Z" class="g3_422"/>
<path d="M254.8,461.7h27.4v27.5H254.8Z" class="g2_422"/>
<path d="M280.9,461.7h26.2v26.2H280.9Z" class="g0_422"/>
<path d="M281.6,462.4h26.1v26.1H281.6Z" class="g3_422"/>
<path d="M307.1,461.7h27.4v27.5H307.1Z" class="g2_422"/>
<path d="M333.2,461.7h27.5v27.5H333.2Z" class="g2_422"/>
<path d="M359.4,461.7h27.4v27.5H359.4Z" class="g2_422"/>
<path d="M385.5,461.7H413v27.5H385.5Z" class="g2_422"/>
<path d="M411.6,461.7h27.5v27.5H411.6Z" class="g2_422"/>
<path d="M437.8,461.7h27.4v27.5H437.8Z" class="g2_422"/>
<path d="M463.9,461.7h27.5v27.5H463.9Z" class="g2_422"/>
<path d="M490.1,461.7h27.4v27.5H490.1Z" class="g2_422"/>
<path d="M516.2,461.7h27.5v27.5H516.2Z" class="g2_422"/>
<path d="M542.4,461.7h27.4v27.5H542.4Z" class="g2_422"/>
<path d="M568.5,461.7H596v27.5H568.5Z" class="g2_422"/>
<path d="M594.7,461.7h26.1v26.2H594.7Z" class="g0_422"/>
<path d="M595.3,462.4h26.2v26.1H595.3Z" class="g3_422"/>
<path d="M620.8,461.7h27.5v27.5H620.8Z" class="g2_422"/>
<path d="M647,461.7h27.4v27.5H647Z" class="g2_422"/>
<path d="M673.1,461.7h27.5v27.5H673.1Z" class="g2_422"/>
<path d="M699.2,461.7h26.2v26.2H699.2Z" class="g0_422"/>
<path d="M699.9,462.4H726v26.1H699.9Z" class="g3_422"/>
<path d="M725.4,461.7h27.4v27.5H725.4Z" class="g2_422"/>
<path d="M751.5,461.7H779v27.5H751.5Z" class="g2_422"/>
<path d="M124.1,487.9h26.1V514H124.1Z" class="g0_422"/>
<path d="M124.7,488.5h26.2v26.2H124.7Z" class="g3_422"/>
<path d="M150.2,487.9h26.2V514H150.2Z" class="g0_422"/>
<path d="M150.9,488.5H177v26.2H150.9Z" class="g3_422"/>
<path d="M176.4,487.9h26.1V514H176.4Z" class="g0_422"/>
<path d="M177,488.5h26.2v26.2H177Z" class="g3_422"/>
<path d="M202.5,487.9h26.1V514H202.5Z" class="g0_422"/>
<path d="M203.2,488.5h26.1v26.2H203.2Z" class="g3_422"/>
<path d="M228.6,487.9h26.2V514H228.6Z" class="g0_422"/>
<path d="M229.3,488.5h26.1v26.1H229.3Z" class="g3_422"/>
<path d="M254.8,487.9h26.1V514H254.8Z" class="g0_422"/>
<path d="M255.4,488.5h26.2v26.1H255.4Z" class="g3_422"/>
<path d="M280.9,487.8h26.2V514H280.9Z" class="g0_422"/>
<path d="M281.6,488.5h26.1v26.2H281.6Z" class="g3_422"/>
<path d="M307.1,487.8h26.1V514H307.1Z" class="g0_422"/>
<path d="M307.7,488.5h26.2v26.1H307.7Z" class="g3_422"/>
<path d="M333.2,487.8h26.2V514H333.2Z" class="g0_422"/>
<path d="M333.9,488.5H360v26.1H333.9Z" class="g3_422"/>
<path d="M359.4,487.8h26.1V514H359.4Z" class="g0_422"/>
<path d="M360,488.5h26.2v26.1H360Z" class="g3_422"/>
<path d="M385.5,487.8h26.2V514H385.5Z" class="g0_422"/>
<path d="M386.2,488.5h26.1v26.1H386.2Z" class="g3_422"/>
<path d="M411.7,487.8h26.1V514H411.7Z" class="g0_422"/>
<path d="M412.3,488.5h26.2v26.1H412.3Z" class="g3_422"/>
<path d="M437.8,487.8H464V514H437.8Z" class="g0_422"/>
<path d="M438.5,488.5h26.1v26.1H438.5Z" class="g3_422"/>
<path d="M464,487.8h26.1V514H464Z" class="g0_422"/>
<path d="M464.6,488.5h26.2v26.1H464.6Z" class="g3_422"/>
<path d="M490.1,487.8h26.2V514H490.1Z" class="g0_422"/>
<path d="M490.8,488.5h26.1v26.1H490.8Z" class="g3_422"/>
<path d="M516.3,487.8h26.1V514H516.3Z" class="g0_422"/>
<path d="M516.9,488.5h26.2v26.1H516.9Z" class="g3_422"/>
<path d="M542.4,487.8h26.2V514H542.4Z" class="g0_422"/>
<path d="M543.1,488.5h26.1v26.1H543.1Z" class="g3_422"/>
<path d="M568.6,487.8h26.1V514H568.6Z" class="g0_422"/>
<path d="M569.2,488.5h26.2v26.1H569.2Z" class="g3_422"/>
<path d="M594.7,487.8h26.2V514H594.7Z" class="g0_422"/>
<path d="M595.4,488.5h26.1v26.1H595.4Z" class="g3_422"/>
<path d="M620.9,487.8H647V514H620.9Z" class="g0_422"/>
<path d="M621.5,488.5h26.2v26.1H621.5Z" class="g3_422"/>
<path d="M647,487.8h27.5v27.5H647Z" class="g2_422"/>
<path d="M673.2,487.8h27.4v27.5H673.2Z" class="g2_422"/>
<path d="M699.3,487.8h26.2V514H699.3Z" class="g0_422"/>
<path d="M700,488.5h26.1v26.1H700Z" class="g3_422"/>
<path d="M725.5,487.8h27.4v27.5H725.5Z" class="g2_422"/>
<path d="M751.6,487.8h27.5v27.5H751.6Z" class="g2_422"/>
<path d="M124.1,514h27.4v27.4H124.1Z" class="g2_422"/>
<path d="M150.2,514h27.5v27.4H150.2Z" class="g2_422"/>
<path d="M176.4,514h26.1v26.1H176.4Z" class="g0_422"/>
<path d="M177,514.6h26.2v26.1H177Z" class="g3_422"/>
<path d="M202.5,513.9H230v27.5H202.5Z" class="g2_422"/>
<path d="M228.7,513.9h26.1v26.2H228.7Z" class="g0_422"/>
<path d="M229.3,514.6h26.2v26.1H229.3Z" class="g3_422"/>
<path d="M254.8,513.9h27.5v27.5H254.8Z" class="g2_422"/>
<path d="M281,513.9h26.1v26.2H281Z" class="g0_422"/>
<path d="M281.6,514.6h26.2v26.1H281.6Z" class="g3_422"/>
<path d="M307.1,513.9h27.5v27.5H307.1Z" class="g2_422"/>
<path d="M333.3,513.9h27.4v27.5H333.3Z" class="g2_422"/>
<path d="M359.4,513.9h27.5v27.5H359.4Z" class="g2_422"/>
<path d="M385.6,513.9H413v27.5H385.6Z" class="g2_422"/>
<path d="M411.7,513.9h27.5v27.5H411.7Z" class="g2_422"/>
<path d="M437.9,513.9h27.4v27.5H437.9Z" class="g2_422"/>
<path d="M464,513.9h27.5v27.5H464Z" class="g2_422"/>
<path d="M490.1,513.9h27.5v27.5H490.1Z" class="g2_422"/>
<path d="M516.3,513.9h27.4v27.5H516.3Z" class="g2_422"/>
<path d="M542.4,513.9h27.5v27.5H542.4Z" class="g2_422"/>
<path d="M568.6,513.9H596v27.5H568.6Z" class="g2_422"/>
<path d="M594.7,513.9h27.5v27.5H594.7Z" class="g2_422"/>
<path d="M620.9,513.9h27.4v27.5H620.9Z" class="g2_422"/>
<path d="M647,513.9h27.5v27.5H647Z" class="g2_422"/>
<path d="M673.2,513.9h27.4v27.5H673.2Z" class="g2_422"/>
<path d="M699.3,513.9h26.2v26.2H699.3Z" class="g0_422"/>
<path d="M700,514.6h26.1v26.2H700Z" class="g3_422"/>
<path d="M725.5,514h27.4v27.4H725.5Z" class="g2_422"/>
<path d="M751.6,514h27.5v27.4H751.6Z" class="g2_422"/>
<path d="M124.1,540.1h27.4v27.5H124.1Z" class="g2_422"/>
<path d="M150.2,540.1h26.2v26.2H150.2Z" class="g0_422"/>
<path d="M150.9,540.7H177v26.2H150.9Z" class="g3_422"/>
<path d="M176.4,540.1h26.1v26.2H176.4Z" class="g0_422"/>
<path d="M177,540.7h26.2v26.2H177Z" class="g3_422"/>
<path d="M202.5,540.1h26.2v26.1H202.5Z" class="g0_422"/>
<path d="M203.2,540.8h26.1v26.1H203.2Z" class="g3_422"/>
<path d="M228.7,540.1h26.1v26.1H228.7Z" class="g0_422"/>
<path d="M229.3,540.8h26.2v26.1H229.3Z" class="g3_422"/>
<path d="M254.8,540.1h27.5v27.4H254.8Z" class="g2_422"/>
<path d="M281,540.1h26.1v26.1H281Z" class="g0_422"/>
<path d="M281.6,540.8h26.2v26.1H281.6Z" class="g3_422"/>
<path d="M307.1,540.1h27.5v27.4H307.1Z" class="g2_422"/>
<path d="M333.3,540.1h27.4v27.4H333.3Z" class="g2_422"/>
<path d="M359.4,540.1h27.5v27.4H359.4Z" class="g2_422"/>
<path d="M385.6,540.1H413v27.4H385.6Z" class="g2_422"/>
<path d="M411.7,540.1h27.5v27.4H411.7Z" class="g2_422"/>
<path d="M437.8,540.1h27.5v27.4H437.8Z" class="g2_422"/>
<path d="M464,540.1h27.5v27.4H464Z" class="g2_422"/>
<path d="M490.1,540.1h27.5v27.4H490.1Z" class="g2_422"/>
<path d="M516.3,540.1h27.4v27.4H516.3Z" class="g2_422"/>
<path d="M542.4,540.1h27.5v27.4H542.4Z" class="g2_422"/>
<path d="M568.6,540.1H596v27.4H568.6Z" class="g2_422"/>
<path d="M594.7,540.1h27.5v27.4H594.7Z" class="g2_422"/>
<path d="M620.9,540.1H647v26.1H620.9Z" class="g0_422"/>
<path d="M621.5,540.8h26.2v26.1H621.5Z" class="g3_422"/>
<path d="M647,540.1h26.2v26.2H647Z" class="g0_422"/>
<path d="M647.7,540.7h26.1v26.2H647.7Z" class="g3_422"/>
<path d="M673.2,540.1h26.1v26.2H673.2Z" class="g0_422"/>
<path d="M673.8,540.7H700v26.2H673.8Z" class="g3_422"/>
<path d="M699.3,540.1h26.2v26.1H699.3Z" class="g0_422"/>
<path d="M700,540.7h26.1v26.2H700Z" class="g3_422"/>
<path d="M725.5,540.1h26.1v26.1H725.5Z" class="g0_422"/>
<path d="M726.1,540.7h26.2v26.2H726.1Z" class="g3_422"/>
<path d="M751.6,540.1h26.2v26.1H751.6Z" class="g0_422"/>
<path d="M752.3,540.7h26.1v26.2H752.3Z" class="g3_422"/>
<path d="M124.1,566.2h27.4v27.5H124.1Z" class="g2_422"/>
<path d="M150.2,566.2h27.5v27.5H150.2Z" class="g2_422"/>
<path d="M176.4,566.2h26.1v26.2H176.4Z" class="g0_422"/>
<path d="M177,566.9h26.2V593H177Z" class="g3_422"/>
<path d="M202.5,566.2H230v27.5H202.5Z" class="g2_422"/>
<path d="M228.7,566.2h26.1v26.2H228.7Z" class="g0_422"/>
<path d="M229.3,566.9h26.2V593H229.3Z" class="g3_422"/>
<path d="M254.8,566.2h27.5v27.5H254.8Z" class="g2_422"/>
<path d="M281,566.2h26.1v26.2H281Z" class="g0_422"/>
<path d="M281.6,566.9h26.2V593H281.6Z" class="g3_422"/>
<path d="M307.1,566.2h27.5v27.5H307.1Z" class="g2_422"/>
<path d="M333.3,566.2h27.4v27.5H333.3Z" class="g2_422"/>
<path d="M359.4,566.2h27.5v27.5H359.4Z" class="g2_422"/>
<path d="M385.6,566.2H413v27.5H385.6Z" class="g2_422"/>
<path d="M411.7,566.2h27.5v27.5H411.7Z" class="g2_422"/>
<path d="M437.9,566.2h27.4v27.5H437.9Z" class="g2_422"/>
<path d="M464,566.2h27.5v27.5H464Z" class="g2_422"/>
<path d="M490.2,566.2h27.4v27.5H490.2Z" class="g2_422"/>
<path d="M516.3,566.2h27.5v27.5H516.3Z" class="g2_422"/>
<path d="M542.5,566.2h27.4v27.5H542.5Z" class="g2_422"/>
<path d="M568.6,566.2h27.5v27.5H568.6Z" class="g2_422"/>
<path d="M594.8,566.2h27.4v27.5H594.8Z" class="g2_422"/>
<path d="M620.9,566.2h27.5v27.5H620.9Z" class="g2_422"/>
<path d="M647.1,566.2h27.4v27.5H647.1Z" class="g2_422"/>
<path d="M673.2,566.2h27.5v27.5H673.2Z" class="g2_422"/>
<path d="M699.4,566.2h27.4v27.5H699.4Z" class="g2_422"/>
<path d="M725.5,566.2H753v27.5H725.5Z" class="g2_422"/>
<path d="M751.7,566.2h27.4v27.5H751.7Z" class="g2_422"/>
<path d="M124.1,592.4h27.4v27.4H124.1Z" class="g2_422"/>
<path d="M150.2,592.4h27.5v27.4H150.2Z" class="g2_422"/>
<path d="M176.4,592.4h26.1v26.1H176.4Z" class="g0_422"/>
<path d="M177,593h26.2v26.2H177Z" class="g3_422"/>
<path d="M202.5,592.4H230v27.4H202.5Z" class="g2_422"/>
<path d="M228.7,592.4h26.1v26.1H228.7Z" class="g0_422"/>
<path d="M229.3,593h26.2v26.2H229.3Z" class="g3_422"/>
<path d="M254.8,592.4h27.5v27.4H254.8Z" class="g2_422"/>
<path d="M281,592.4h26.1v26.1H281Z" class="g0_422"/>
<path d="M281.6,593h26.2v26.2H281.6Z" class="g3_422"/>
<path d="M307.1,592.4h27.5v27.4H307.1Z" class="g2_422"/>
<path d="M333.3,592.4h27.4v27.4H333.3Z" class="g2_422"/>
<path d="M359.4,592.4h27.5v27.4H359.4Z" class="g2_422"/>
<path d="M385.6,592.4H413v27.4H385.6Z" class="g2_422"/>
<path d="M411.7,592.4h27.5v27.4H411.7Z" class="g2_422"/>
<path d="M437.9,592.4h27.4v27.4H437.9Z" class="g2_422"/>
<path d="M464,592.4h27.5v27.4H464Z" class="g2_422"/>
<path d="M490.2,592.4h27.4v27.4H490.2Z" class="g2_422"/>
<path d="M516.3,592.4h27.5v27.4H516.3Z" class="g2_422"/>
<path d="M542.5,592.4h27.4v27.4H542.5Z" class="g2_422"/>
<path d="M568.6,592.4h27.5v27.4H568.6Z" class="g2_422"/>
<path d="M594.8,592.4h27.4v27.4H594.8Z" class="g2_422"/>
<path d="M620.9,592.4h27.5v27.4H620.9Z" class="g2_422"/>
<path d="M647.1,592.4h27.4v27.4H647.1Z" class="g2_422"/>
<path d="M673.2,592.4h27.5v27.4H673.2Z" class="g2_422"/>
<path d="M699.3,592.4h27.5v27.4H699.3Z" class="g2_422"/>
<path d="M725.5,592.4H753v27.4H725.5Z" class="g2_422"/>
<path d="M751.6,592.4h27.5v27.4H751.6Z" class="g2_422"/>
<path d="M124.1,618.5h27.4V646H124.1Z" class="g2_422"/>
<path d="M150.2,618.5h27.5V646H150.2Z" class="g2_422"/>
<path d="M176.4,618.5h26.1v26.2H176.4Z" class="g0_422"/>
<path d="M177,619.2h26.2v26.1H177Z" class="g3_422"/>
<path d="M202.5,618.5H230V646H202.5Z" class="g2_422"/>
<path d="M228.7,618.5h26.1v26.2H228.7Z" class="g0_422"/>
<path d="M229.3,619.2h26.2v26.1H229.3Z" class="g3_422"/>
<path d="M254.8,618.5h27.5V646H254.8Z" class="g2_422"/>
<path d="M281,618.5h26.1v26.2H281Z" class="g0_422"/>
<path d="M281.6,619.2h26.2v26.1H281.6Z" class="g3_422"/>
<path d="M307.1,618.5h26.2v26.2H307.1Z" class="g0_422"/>
<path d="M307.8,619.2h26.1v26.1H307.8Z" class="g3_422"/>
<path d="M333.3,618.5h26.1v26.2H333.3Z" class="g0_422"/>
<path d="M333.9,619.2h26.2v26.1H333.9Z" class="g3_422"/>
<path d="M359.4,618.5h26.2v26.2H359.4Z" class="g0_422"/>
<path d="M360.1,619.2h26.1v26.1H360.1Z" class="g3_422"/>
<path d="M385.6,618.5h26.1v26.2H385.6Z" class="g0_422"/>
<path d="M386.2,619.2h26.2v26.1H386.2Z" class="g3_422"/>
<path d="M411.7,618.5h26.2v26.2H411.7Z" class="g0_422"/>
<path d="M412.4,619.2h26.1v26.1H412.4Z" class="g3_422"/>
<path d="M437.9,618.5H464v26.1H437.9Z" class="g0_422"/>
<path d="M438.5,619.2h26.2v26.1H438.5Z" class="g3_422"/>
<path d="M464,618.5h26.2v26.1H464Z" class="g0_422"/>
<path d="M464.7,619.2h26.1v26.1H464.7Z" class="g3_422"/>
<path d="M490.2,618.5h26.1v26.2H490.2Z" class="g0_422"/>
<path d="M490.8,619.2H517v26.1H490.8Z" class="g3_422"/>
<path d="M516.3,618.5h27.5V646H516.3Z" class="g2_422"/>
<path d="M542.5,618.5h27.4V646H542.5Z" class="g2_422"/>
<path d="M568.6,618.5h27.5V646H568.6Z" class="g2_422"/>
<path d="M594.8,618.5h27.4V646H594.8Z" class="g2_422"/>
<path d="M620.9,618.5h27.5V646H620.9Z" class="g2_422"/>
<path d="M647.1,618.5h27.4V646H647.1Z" class="g2_422"/>
<path d="M673.2,618.5h27.5V646H673.2Z" class="g2_422"/>
<path d="M699.4,618.5h27.4V646H699.4Z" class="g2_422"/>
<path d="M725.5,618.5H753V646H725.5Z" class="g2_422"/>
<path d="M751.7,618.5h27.4V646H751.7Z" class="g2_422"/>
<path d="M124.1,644.7h27.5v27.4H124.1Z" class="g2_422"/>
<path d="M150.2,644.7h27.5v27.4H150.2Z" class="g2_422"/>
<path d="M176.4,644.7h26.1v26.1H176.4Z" class="g0_422"/>
<path d="M177,645.3h26.2v26.1H177Z" class="g3_422"/>
<path d="M202.5,644.6H230v27.5H202.5Z" class="g2_422"/>
<path d="M228.7,644.6h26.1v26.2H228.7Z" class="g0_422"/>
<path d="M229.3,645.3h26.2v26.1H229.3Z" class="g3_422"/>
<path d="M254.8,644.6h27.5v27.5H254.8Z" class="g2_422"/>
<path d="M281,644.6h26.1v26.2H281Z" class="g0_422"/>
<path d="M281.6,645.3h26.2v26.1H281.6Z" class="g3_422"/>
<path d="M307.2,644.6h27.4v27.5H307.2Z" class="g2_422"/>
<path d="M333.3,644.6h27.5v27.5H333.3Z" class="g2_422"/>
<path d="M359.5,644.6h27.4v27.5H359.5Z" class="g2_422"/>
<path d="M385.6,644.6h27.5v27.5H385.6Z" class="g2_422"/>
<path d="M411.8,644.6h27.4v27.5H411.8Z" class="g2_422"/>
<path d="M437.9,644.6h27.5v27.5H437.9Z" class="g2_422"/>
<path d="M464.1,644.6h27.4v27.5H464.1Z" class="g2_422"/>
<path d="M490.2,644.6h27.5v27.5H490.2Z" class="g2_422"/>
<path d="M516.4,644.6h27.4v27.5H516.4Z" class="g2_422"/>
<path d="M542.5,644.6H570v27.5H542.5Z" class="g2_422"/>
<path d="M568.7,644.6h27.4v27.5H568.7Z" class="g2_422"/>
<path d="M594.8,644.6h27.5v27.5H594.8Z" class="g2_422"/>
<path d="M621,644.6h27.4v27.5H621Z" class="g2_422"/>
<path d="M647.1,644.6h27.5v27.5H647.1Z" class="g2_422"/>
<path d="M673.3,644.6h27.4v27.5H673.3Z" class="g2_422"/>
<path d="M699.4,644.6h27.5v27.5H699.4Z" class="g2_422"/>
<path d="M725.6,644.6H753v27.5H725.6Z" class="g2_422"/>
<path d="M751.7,644.6h27.5v27.5H751.7Z" class="g2_422"/>
<path d="M124.1,670.8h27.5v27.4H124.1Z" class="g2_422"/>
<path d="M150.3,670.8h27.4v27.4H150.3Z" class="g2_422"/>
<path d="M176.4,670.8h27.5v27.4H176.4Z" class="g2_422"/>
<path d="M202.6,670.8H230v27.4H202.6Z" class="g2_422"/>
<path d="M228.7,670.8h26.2v26.1H228.7Z" class="g0_422"/>
<path d="M229.4,671.4h26.1v26.2H229.4Z" class="g3_422"/>
<path d="M254.9,670.8h27.4v27.4H254.9Z" class="g2_422"/>
<path d="M281,670.8h26.2v26.1H281Z" class="g0_422"/>
<path d="M281.7,671.4h26.1v26.2H281.7Z" class="g3_422"/>
<path d="M307.2,670.8h26.1v26.1H307.2Z" class="g0_422"/>
<path d="M307.8,671.4H334v26.2H307.8Z" class="g3_422"/>
<path d="M333.3,670.8h26.2v26.1H333.3Z" class="g0_422"/>
<path d="M334,671.4h26.1v26.2H334Z" class="g3_422"/>
<path d="M359.5,670.8h26.1v26.1H359.5Z" class="g0_422"/>
<path d="M360.1,671.4h26.2v26.2H360.1Z" class="g3_422"/>
<path d="M385.6,670.8h26.2v26.1H385.6Z" class="g0_422"/>
<path d="M386.3,671.4h26.1v26.2H386.3Z" class="g3_422"/>
<path d="M411.8,670.8h26.1v26.1H411.8Z" class="g0_422"/>
<path d="M412.4,671.4h26.2v26.2H412.4Z" class="g3_422"/>
<path d="M437.9,670.8h26.2v26.1H437.9Z" class="g0_422"/>
<path d="M438.6,671.4h26.1v26.2H438.6Z" class="g3_422"/>
<path d="M464.1,670.8h27.4v27.4H464.1Z" class="g2_422"/>
<path d="M490.2,670.8h27.5v27.4H490.2Z" class="g2_422"/>
<path d="M516.4,670.8h27.4v27.4H516.4Z" class="g2_422"/>
<path d="M542.5,670.8H570v27.4H542.5Z" class="g2_422"/>
<path d="M568.7,670.8h27.4v27.4H568.7Z" class="g2_422"/>
<path d="M594.8,670.8h27.5v27.4H594.8Z" class="g2_422"/>
<path d="M621,670.8h27.4v27.4H621Z" class="g2_422"/>
<path d="M647.1,670.8h27.5v27.4H647.1Z" class="g2_422"/>
<path d="M673.3,670.8h27.4v27.4H673.3Z" class="g2_422"/>
<path d="M699.4,670.8h27.5v27.4H699.4Z" class="g2_422"/>
<path d="M725.6,670.8H753v27.4H725.6Z" class="g2_422"/>
<path d="M751.7,670.8h27.5v27.4H751.7Z" class="g2_422"/>
<path d="M125.5,252.5V697.3H778.8V252.5H125.5Z" class="g4_422"/>
<g clip-path="url(#c2_422)">
<path d="M-4.5,13.7H-27.4m939.5,0H935M-4.5,1031.2H-27.4m939.5,0H935M13.7,-4.5V-27.4m0,1077v22.9m880,-1077V-27.4m0,1077v22.9" class="g5_422"/>
<path d="M-4.5,13.7H-27.4m939.5,0H935M-4.5,1031.2H-27.4m939.5,0H935M13.7,-4.5V-27.4m0,1077v22.9m880,-1077V-27.4m0,1077v22.9" class="g6_422"/>
</g>
</svg>