<?xml version="1.0" encoding="UTF-8" standalone="no"?>
<!DOCTYPE svg PUBLIC "-//W3C//DTD SVG 1.1//EN"
"http://www.w3.org/Graphics/SVG/1.1/DTD/svg11.dtd">
<svg viewBox="0 0 931 1096" version="1.1" xmlns="http://www.w3.org/2000/svg" xmlns:xlink="http://www.w3.org/1999/xlink">
<defs>
<style type="text/css"><![CDATA[
.g0_67{
fill: #FFF;
}
.g1_67{
fill: none;
stroke: #241F1F;
stroke-width: 0.534;
stroke-miterlimit: 10;
}
.g2_67{
fill: none;
stroke: #00AEEF;
stroke-width: 0.763;
}
.g3_67{
fill: none;
stroke: #241F1F;
stroke-width: 0.763;
stroke-miterlimit: 10;
}
]]></style>
</defs>
<path d="M345.7,97.9c0,0,-3.1,0,-3.1,3.1V607.5c0,0,0,3,3.1,3H875.1c0,0,3,0,3,-3V101c0,0,0,-3.1,-3,-3.1Z" class="g0_67"/>
<path d="M501.3,512.1h5.4m178.8,0h5.3m-59,70.2h5.4" class="g1_67"/>
<path d="M345.7,97.9c0,0,-3.1,0,-3.1,3.1V607.5c0,0,0,3,3.1,3H875.1c0,0,3,0,3,-3V101c0,0,0,-3.1,-3,-3.1H345.7Z" class="g2_67"/>
<path d="M568.9,984.8h18.4m21.9,0h18.3" class="g3_67"/>
<path d="M568.8,1026h5.4m56.8,0h5.4" class="g1_67"/>
</svg>