<?xml version="1.0" encoding="UTF-8" standalone="no"?>
<!DOCTYPE svg PUBLIC "-//W3C//DTD SVG 1.1//EN"
"http://www.w3.org/Graphics/SVG/1.1/DTD/svg11.dtd">
<svg viewBox="0 0 931 1096" version="1.1" xmlns="http://www.w3.org/2000/svg" xmlns:xlink="http://www.w3.org/1999/xlink">
<defs>
<clipPath id="c0_216"><path d="M654.6,403.4c-3.1,0,-5.6,-2.4,-5.6,-5.5V322.2c0,-3,2.5,-5.5,5.6,-5.5H775.7c3.1,0,5.5,2.5,5.5,5.5v75.7c0,3.1,-2.4,5.5,-5.5,5.5Z"/></clipPath>
<clipPath id="c1_216"><path d="M78,566.2V533.3H337.3v32.9Z"/></clipPath>
<clipPath id="c2_216"><path d="M53.5,604.8v-33H423.7v33Z"/></clipPath>
<style type="text/css"><![CDATA[
.g0_216{
fill: none;
stroke: #241F1F;
stroke-width: 0.536;
stroke-linecap: round;
stroke-linejoin: round;
}
.g1_216{
fill: none;
stroke: #241F1F;
stroke-width: 0.765;
stroke-miterlimit: 3;
}
.g2_216{
fill: none;
stroke: #241F1F;
stroke-width: 0.765;
stroke-linecap: round;
stroke-miterlimit: 10;
}
.g3_216{
fill: none;
stroke: #241F1F;
stroke-width: 0.994;
stroke-linecap: round;
stroke-linejoin: round;
}
.g4_216{
fill: none;
stroke: #241F1F;
stroke-width: 0.534;
stroke-linecap: round;
stroke-linejoin: round;
}
.g5_216{
fill: none;
stroke: #241F1F;
stroke-width: 0.763;
stroke-linecap: round;
stroke-linejoin: round;
}
.g6_216{
fill: none;
stroke: #241F1F;
stroke-width: 0.763;
stroke-miterlimit: 3;
}
.g7_216{
fill: none;
stroke: #241F1F;
stroke-width: 0.916;
stroke-linecap: round;
stroke-linejoin: round;
}
.g8_216{
fill: none;
stroke: #111213;
stroke-width: 0.991;
stroke-linecap: square;
stroke-miterlimit: 10;
}
.g9_216{
fill: none;
stroke: #241F1F;
stroke-width: 0.762;
stroke-miterlimit: 3;
}
.ga_216{
fill: none;
stroke: #241F1F;
stroke-width: 0.533;
stroke-linecap: round;
stroke-linejoin: round;
}
.gb_216{
fill: none;
stroke: #241F1F;
stroke-width: 0.991;
stroke-linecap: round;
stroke-linejoin: round;
}
.gc_216{
fill: none;
stroke: #241F1F;
stroke-width: 0.76;
stroke-miterlimit: 3;
}
.gd_216{
fill: none;
stroke: #241F1F;
stroke-width: 0.531;
stroke-linecap: round;
stroke-linejoin: round;
}
.ge_216{
fill: none;
stroke: #241F1F;
stroke-width: 0.988;
stroke-linecap: round;
stroke-linejoin: round;
}
.gf_216{
fill: #FFF;
}
.gg_216{
fill: #241F1F;
}
.gh_216{
fill: none;
stroke: #241F1F;
stroke-width: 0.305;
stroke-linecap: round;
stroke-linejoin: round;
}
.gi_216{
fill: none;
stroke: #241F1F;
stroke-width: 0.343;
stroke-linecap: round;
stroke-linejoin: round;
}
.gj_216{
fill: none;
stroke: #241F1F;
stroke-width: 0.381;
stroke-linecap: round;
stroke-linejoin: round;
}
.gk_216{
fill: none;
stroke: #241F1F;
stroke-width: 0.687;
stroke-miterlimit: 10;
}
.gl_216{
fill: none;
stroke: #241F1F;
stroke-width: 0.429;
stroke-linecap: round;
stroke-linejoin: round;
}
.gm_216{
fill: none;
stroke: #241F1F;
stroke-width: 0.534;
stroke-linecap: round;
stroke-linejoin: round;
}
.gn_216{
fill: none;
stroke: #241F1F;
stroke-width: 0.533;
stroke-linecap: round;
stroke-linejoin: round;
stroke-dasharray: 7,4;
}
.go_216{
fill: none;
stroke: #241F1F;
stroke-width: 0.99;
stroke-linecap: round;
stroke-linejoin: round;
}
.gp_216{
fill: none;
stroke: #241F1F;
stroke-width: 0.38;
stroke-linecap: round;
stroke-linejoin: round;
}
.gq_216{
fill: none;
stroke: #241F1F;
stroke-width: 0.993;
stroke-linecap: round;
stroke-linejoin: round;
}
.gr_216{
fill: none;
stroke: #241F1F;
stroke-width: 0.895;
stroke-linecap: round;
stroke-linejoin: round;
}
.gs_216{
fill: none;
stroke: #241F1F;
stroke-width: 0.481;
stroke-linecap: round;
stroke-linejoin: round;
}
]]></style>
</defs>
<path d="M504.8,273.9V187.1" class="g0_216"/>
<path d="M483.9,187.1H605.1c3.1,0,5.5,2.4,5.5,5.5v75.8c0,3,-2.4,5.5,-5.5,5.5H483.9c-3.1,0,-5.5,-2.5,-5.5,-5.5V192.6c0,-3.1,2.4,-5.5,5.5,-5.5Z" class="g1_216"/>
<path d="M479.6,265.2l-.6,4.7l-.1,.8m.7,-5.5l.3,-1m0,0l.4,-.7m0,0l.7,-.5m0,0l.6,.7m0,0l.7,1.8m0,0l.4,1.9m0,0l.2,3.4l.1,1.9l.1,1m22.1,-12.6l-.3,5.9v6.9m.3,-12.8l.4,-4m0,0l.7,-5.3m0,0l.2,-2.5m0,0l.4,-2.3m0,0l.7,-3.5m0,0l.6,-3m0,0l.7,-2.5m0,0l.6,-2.4m0,0l.7,-1.8m0,0l.6,-1.6m0,0l.7,-1.2m0,0l.8,-1m0,0l.6,-.5m0,0l.7,-.4m0,0l.7,-.1m0,0l.6,.1m0,0l.7,.5m0,0l.6,.5m0,0l.7,.9m0,0l.6,1.2m0,0l.7,1.4m0,0l.6,1.4m0,0l.7,2m0,0l.6,1.9m0,0l.7,2.2m0,0l.8,2.5m0,0l.5,2.5m0,0l.7,2.8m0,0l.8,3.1m0,0l.6,3.3m0,0l.7,3.5m0,0l.6,4.1m0,0l.7,4.9l.3,2.9l.1,1.8l.1,1.4m4.5,-7.2l-.4,4.1l-.2,1.9v1.2m.6,-7.2l.4,-2.9m0,0l.6,-4.8m0,0l.7,-3.7m0,0l.6,-3.8m0,0l.7,-3.5m0,0l.6,-3.6m0,0l.7,-3m0,0l.6,-3.2m0,0l.7,-2.9m0,0l.7,-2.8m0,0l.6,-2.6m0,0l.7,-2.5m0,0l.6,-2.4m0,0l.8,-2.2m0,0l.5,-1.9m0,0l.8,-1.8m0,0l.7,-1.8m0,0l.6,-1.3m0,0l.7,-1.4m0,0l.6,-.9m0,0l.7,-.9m0,0l.7,-.7m0,0l.6,-.4m0,0l.7,-.3m0,0l.6,-.1m0,0l.8,.1m0,0l.5,.3m0,0l.7,.5m0,0l.8,.6m0,0l.6,.8m0,0l.7,1m0,0l.6,.9m0,0l.7,1.3m0,0l.7,1.2m0,0l.6,1.4m0,0l.7,1.4m0,0l.6,1.5m0,0l.7,1.3m0,0l.6,1.5m0,0l.7,1.3m0,0l.8,1.3m0,0l.5,1.2m0,0l.8,1m0,0l.6,.8m0,0l.7,.6m0,0l.7,.3m0,0h.6m0,0l.7,-.1m0,0l.6,-.6m0,0l.7,-.6m0,0l.6,-1.1m0,0l.8,-1.3m0,0l.5,-1.4m0,0l.8,-1.6m0,0l.6,-1.6m0,0l.7,-1.8m0,0l.7,-2m0,0l.6,-1.8m0,0l.7,-1.9m0,0l.7,-2m0,0l.6,-1.8m0,0l.7,-1.9m0,0l.6,-1.7m0,0l.7,-1.6m0,0l.6,-1.6m0,0l.7,-1.3m0,0l.6,-1.3m0,0l.7,-1.1m0,0l.8,-1.1m0,0l.5,-.8m0,0l.8,-.8m0,0l.7,-.4m0,0l.6,-.5m0,0l.7,-.2m0,0h.6m0,0l.7,.1m0,0l.6,.2m0,0l.7,.4m0,0l.7,.4m0,0l.6,.7m0,0l.7,.7m0,0l.7,.9m0,0l.6,.9m0,0l.8,1.1m0,0l.6,1m0,0l.7,1.1m0,0l.6,1.2m0,0l.7,1m0,0l.6,1m0,0l.7,1.2m0,0l.6,.9m0,0l.7,.8m0,0l.7,.7m0,0l.6,.5m0,0l.7,.5m0,0l.6,.2m0,0h.8m0,0l.5,-.1m0,0l.8,-.3m0,0l.7,-.6m0,0l.6,-.7m0,0l.7,-.9m0,0l.6,-1.1m0,0l.7,-1.1m0,0l.6,-1.3m0,0l.7,-1.3m0,0l.8,-1.6m0,0l.5,-1.4m0,0l.7,-1.6m0,0l.8,-1.4m0,0l.6,-1.5m0,0l.7,-1.5m0,0l.6,-1.5m0,0l.7,-1.4m0,0l.6,-1.2m0,0l.7,-1.3m0,0l.7,-1m0,0l.6,-1m0,0l.1,-.2" class="g2_216"/>
<path clip-path="url(#c0_216)" d="M715.3,403.4H718l.6,-.1l.7,-.2l.6,-.5l.6,-.6l1.4,-1.8l1.3,-2.2l2.9,-4.8l2.8,-4.3l2.6,-3.4l3,-3.1l2.7,-2.3l2.9,-2l2.5,-1.5l2.9,-1.4l2.6,-1.1l2.8,-1.1l2.7,-.8l2.9,-.8l2.7,-.7l2.8,-.6l2.8,-.6l2.5,-.4l3,-.5l2.6,-.4l2.8,-.3l2.7,-.3l2.8,-.4M649,352.9l2.9,-.3l2.5,-.3l2.9,-.4l2.8,-.4l2.8,-.4l2.6,-.5l2.7,-.5l2.9,-.6l2.7,-.7l2.9,-.8l2.5,-.8l2.9,-1.1l2.9,-1.2l2.7,-1.4l2.5,-1.5l3,-2l2.5,-2.2l3,-3.1l2.6,-3.3l2.8,-4.3l2.7,-4.7l1.4,-2.3l1.5,-1.9l.6,-.6l.7,-.5l.6,-.2l.7,-.2h2.8" class="g3_216"/>
<path d="M654.6,316.7H775.7c3.1,0,5.5,2.5,5.5,5.5v75.7c0,3.1,-2.4,5.5,-5.5,5.5H654.6c-3.1,0,-5.6,-2.4,-5.6,-5.5V322.2c0,-3,2.5,-5.5,5.6,-5.5Z" class="g1_216"/>
<path d="M649,360.1H781.2m-66.1,43.3V316.7M649,361.4v-2.7m22.1,2.7v-2.7m22,2.7v-2.7m22,2.7v-2.7m22.1,2.7v-2.7m22,2.7v-2.7m22,2.7v-2.7" class="g4_216"/>
<path d="M621.8,527.7h.1m-.7,-.5l.6,.5m-2,-2l1.4,1.5m-2.8,-2.5l1.4,1M618,524.6l.4,.1m-.7,-.1h.3m-.6,0h.3m-.6,.2l.3,-.2m-1,.6l.7,-.4m-1.3,1l.6,-.6m-1.4,1.4l.8,-.8m-1.5,1.5l.7,-.7m-1.1,1l.4,-.3m-.7,.5l.3,-.2m-.7,.4l.4,-.2m-.8,.2h.4m-.7,-.1l.3,.1m-.6,-.3l.3,.2m-.6,-.4l.3,.2m-.6,-.6l.3,.4m-1,-1.5l.7,1.1m-1.3,-2.6l.6,1.5m-2,-6.1l1.4,4.6m-2.8,-10.7l1.4,6.1m-2.1,-9.6l.7,3.5m-1.4,-7.2l.7,3.7m-1.4,-7.4l.7,3.7m-1.4,-7.4l.7,3.7m-2,-10.9l1.3,7.2M602,485.4l1.4,6.6m-2.8,-12.8l1.4,6.2M599.1,474l1.5,5.2m-2.8,-9.3l1.3,4.1m-2.7,-7.5l1.4,3.4M595,463.7l1.4,2.8m-2.8,-4.9l1.4,2.1m-4,-4.9l2.6,2.8m-4,-3.7l1.4,.9m-2.8,-1.6l1.4,.7m-2.7,-1.1l1.3,.4m-2.6,-.7l1.3,.3m-4.2,-.7l2.9,.4m-5.5,-.6l2.6,.2m-5.6,-.2h3m-5.7,0h2.7m-5.4,0h2.7m-5.6,0h2.9m-5.6,0h2.7m-3.9,0h1.2m-2.5,0h1.3m-2,0h.7m-1.5,0h.8m-1.1,0h.3m-.7,-.2l.4,.2m-.5,.8l.1,-1m-.2,1h.1m-.2,-13.6l.1,13.6M561,528l.1,-84.9m-.2,84.9h.1m-.3,0h.2m-.3,0h.1m-.2,0h.1m-.2,0h.1m-.2,-76.3l.1,76.3m-.2,-71.5l.1,-4.8m-.2,4.7l.1,.1m-.1,-.6v.5m-.1,-.5h.1m-.5,0h.4m-.7,0h.3m-1,0h.7m-1.4,0h.7m-2,0h1.3m-2.6,0h1.3m-4.2,0h2.9m-5.6,0h2.7m-5.5,0h2.8m-5.4,0h2.6m-5.5,0h2.9m-5.5,.2l2.6,-.2m-5.5,.6l2.9,-.4m-5.4,1.1l2.5,-.7m-5.3,2.2l2.8,-1.5m-5.6,4.4l2.8,-2.9m-5.7,8.1l2.9,-5.2m-4.1,8.3l1.2,-3.1m-2.5,7l1.3,-3.9M521,479l1.4,-5.2m-2.9,11.4L521,479m-2.2,9.5l.7,-3.3m-1.4,6.8l.7,-3.5m-1.4,7.1l.7,-3.6m-1.3,7.2l.6,-3.6M516,503l.8,-3.8m-1.4,7.5L516,503m-1.4,7.4l.8,-3.7m-1.5,7.2l.7,-3.5m-2,9.4l1.3,-5.9m-2.7,10.5l1.4,-4.6m-2,6.1l.6,-1.5m-1.3,2.7l.7,-1.2m-1,1.6l.3,-.4m-.6,.6l.3,-.2m-.6,.4l.3,-.2m-.7,.3l.4,-.1m-.7,.1h.3m-.7,-.2l.4,.2m-.7,-.4l.3,.2m-.7,-.4l.4,.2m-1.1,-.9l.7,.7m-1.4,-1.5l.7,.8m-1.4,-1.5l.7,.7m-1.4,-1.1l.7,.4m-1.1,-.6l.4,.2m-.7,-.2h.3m-.7,0h.4m-.7,.1l.3,-.1m-1.7,1.3l1.4,-1.2m-2.8,2.6l1.4,-1.4m-1.8,1.6l.4,-.2m-.7,.4l.3,-.2m-.6,.4l.3,-.2m60.2,.3h1m-1,-72.1h1" class="g5_216"/>
<path d="M560.4,528V441.4" class="g4_216"/>
<path d="M499.9,441.4H620.8c3.1,0,5.5,2.5,5.5,5.5v75.6c0,3,-2.4,5.5,-5.5,5.5H499.9c-3,0,-5.5,-2.5,-5.5,-5.5V446.9c0,-3,2.5,-5.5,5.5,-5.5Z" class="g6_216"/>
<path d="M802,524.4l1.5,1.1m-1.8,-1.1h.3m-.6,.1l.3,-.1m-.7,.3l.4,-.2m-.7,.4l.3,-.2m-1,.9l.7,-.7m-1.3,1.4l.6,-.7m-1,1.1l.4,-.4m-.7,.6l.3,-.2m-.7,.4l.4,-.2m-.7,.3l.3,-.1m-.7,.1h.4m-.7,-.1l.3,.1m-.7,-.4l.4,.3m-.7,-.6l.3,.3M795.3,525l1.3,1.5M794,523.9l1.3,1.1m-1.7,-1.1h.4m-.8,.1l.4,-.1m-.7,.3l.3,-.2m-.7,.5l.4,-.3m-1.1,1.1l.7,-.8m-1.5,1.7l.8,-.9m-1.4,1.5l.6,-.6m-1.2,1l.6,-.4m-1,.4h.4m-.7,-.1l.3,.1m-.6,-.2l.3,.1m-.6,-.4l.3,.3m-1.7,-2l1.4,1.7m-2.8,-3.2l1.4,1.5m-1.7,-1.7l.3,.2m-.7,-.3l.4,.1m-.7,0l.3,-.1m-.7,.3l.4,-.2m-1.1,.8l.7,-.6m-1.4,1.5l.7,-.9m-1.4,1.9l.7,-1m-1.3,1.7l.6,-.7m-1,1l.4,-.3m-.7,.5l.3,-.2m-.7,.2h.4m-.7,-.1l.3,.1m-1.7,-1.4l1.4,1.3m-2.9,-3.5l1.5,2.2m-2.1,-3l.6,.8M776,522.4l.7,.4m-1.1,-.4h.4m-.7,0h.3m-.6,.2l.3,-.2m-.7,.5l.4,-.3m-1.8,2.3l1.4,-2m-2.8,3.8l1.4,-1.8m-1.7,2.1l.3,-.3m-.6,.5l.3,-.2m-.6,.2h.3m-.7,-.1l.4,.1m-1.1,-.5l.7,.4m-1.3,-1.3l.6,.9m-2,-3.4l1.4,2.5m-2.8,-4.4l1.4,1.9M766,521.2l.4,.2m-.7,-.3l.3,.1m-.6,0l.3,-.1m-.6,.2l.3,-.1m-1,.7l.7,-.6m-1.3,1.5l.6,-.9m-2,3.4l1.4,-2.5m-2.9,4.3l1.5,-1.8m-1.8,1.9l.3,-.1m-.6,.1h.3m-.7,-.1l.4,.1m-.7,-.3l.3,.2m-1,-1l.7,.8m-1.3,-2l.6,1.2m-2.1,-4.3l1.5,3.1m-3,-5.2l1.5,2.1M755,519.5l.3,.2m-.7,-.3l.4,.1m-.7,0l.3,-.1m-.6,.3l.3,-.2m-1,.9l.7,-.7m-1.4,1.8l.7,-1.1m-2,3.9l1.3,-2.8m-2.7,5.1l1.4,-2.3m-1.8,2.7l.4,-.4m-.7,.6l.3,-.2m-.7,.2h.4m-.7,-.1l.3,.1m-1,-.7l.7,.6M747,525.3l.8,1.2m-2.1,-4.4l1.3,3.2m-2.7,-6.4l1.4,3.2m-2,-4.4l.6,1.2m-1.2,-1.8l.6,.6m-1,-.8l.4,.2m-.7,-.3l.3,.1m-.6,0l.3,-.1m-.6,.3l.3,-.2m-1.8,2.4l1.5,-2.2m-2.9,5.8l1.4,-3.6m-2.8,6.6l1.4,-3m-2.8,4.3l1.4,-1.3m-1.8,1.3h.4m-.7,-.2l.3,.2m-.6,-.5l.3,.3m-.6,-.8l.3,.5m-1,-1.7l.7,1.2m-1.3,-2.9l.6,1.7m-2,-6l1.4,4.3M730.7,515l1.4,4M730,513.7l.7,1.3m-1.4,-2.1l.7,.8m-1,-1l.3,.2m-.7,-.2h.4m-.7,.1l.3,-.1m-.7,.4l.4,-.3m-1.8,2.9l1.4,-2.6m-2.8,6.8l1.4,-4.2m-2.7,8l1.3,-3.8m-2.6,6.6l1.3,-2.8m-1.7,3.2l.4,-.4m-.7,.6l.3,-.2m-.7,.3l.4,-.1m-.8,0l.4,.1m-1.1,-.9l.7,.8m-1.4,-2.4l.7,1.6m-2,-5.6l1.3,4M717,515.8l1.3,4.9m-2.7,-10.5l1.4,5.6m-2.9,-9.4l1.5,3.8m-1.8,-4.3l.3,.5m-.6,-.8l.3,.3m-.6,-.4l.3,.1m-.7,-.1h.4m-.7,.1l.3,-.1m-.6,.4l.3,-.3m-.6,.7l.3,-.4m-.6,.9l.3,-.5m-1.7,4.3l1.4,-3.8m-2.8,9.1l1.4,-5.3m-2.8,10.8l1.4,-5.5m-2.8,9.7l1.4,-4.2m-1.8,4.9l.4,-.7m-.7,1.2l.3,-.5m-.5,.7l.2,-.2m-.4,.3l.2,-.1m-.4,.2l.2,-.1m-.3,.1h.1m-.3,0h.2m-.4,-.1l.2,.1M704,527l.2,.1m-.4,-.2l.2,.1m-.5,-.6l.3,.5m-.7,-1.2l.4,.7m-1.6,-4.6l1.2,3.9M700.6,516l1.3,5.8m-2,-9.6l.7,3.8m-1.4,-7.8l.7,4m-1.4,-7.9l.7,3.9m-1.5,-7.6l.8,3.7m-2.2,-9.5l1.4,5.8m-2.7,-9l1.3,3.2m-1.5,-3.4l.2,.2m-.4,-.4l.2,.2m-.4,-.3l.2,.1m-.4,-.1h.2m-.3,0h.1m-.3,.1l.2,-.1m-.4,.2l.2,-.1m-.3,.3l.1,-.2m-.8,1.4l.7,-1.2m-1.5,3.1l.8,-1.9m-1.4,4.5l.6,-2.6m-1.3,5.5l.7,-2.9m-1.4,6.4l.7,-3.5m-1.3,7.1l.6,-3.6m-1.3,7.2l.7,-3.6m-1.4,7.2l.7,-3.6m-1.3,6.9l.6,-3.3m-1.3,6.3l.7,-3m-2.1,7.8l1.4,-4.8m-2.8,6.5l1.4,-1.7m-2.8,-.2l1.4,1.9m-2.8,-7.4l1.4,5.5m-2.1,-9.5l.7,4m-1.4,-8.6l.7,4.6M679.1,506l.7,5.2m-1.4,-10.9l.7,5.7m-1.4,-10.9l.7,5.2m-1.3,-10.4l.6,5.2m-1.2,-10.5l.6,5.3m-1.2,-10.4l.6,5.1m-1.4,-10.7l.8,5.6M674.4,469l.7,4.9m-1.4,-9.3l.7,4.4m-1.2,-6.9l.5,2.5" class="g7_216"/>
<path d="M678.6,440.8H799.5c3.1,0,5.5,2.4,5.5,5.5v75.5c0,3.1,-2.4,5.5,-5.5,5.5H678.6c-3,0,-5.5,-2.4,-5.5,-5.5V446.3c0,-3.1,2.5,-5.5,5.5,-5.5Z" class="g6_216"/>
<path d="M733.9,527.3V527" class="g8_216"/>
<path d="M515.2,570H636c3,0,5.5,2.5,5.5,5.5V651c0,3,-2.5,5.5,-5.5,5.5H515.2c-3,0,-5.5,-2.5,-5.5,-5.5V575.5c0,-3,2.5,-5.5,5.5,-5.5Z" class="g9_216"/>
<path d="M509.7,627.6H641.1M509.7,598.8h1.9m63.9,27.3v3.1" class="ga_216"/>
<path d="M510,627.5h3.4l.8,-.4l.6,-.6l.8,-1l.6,-1.5l.8,-1.8l.6,-2.1l1.4,-4l1.4,-4.3l.6,-1.9l.8,-1.9l.6,-2l.6,-1.5l.8,-1.7l.6,-1.4l1.4,-2.5l1.4,-2.3l1.4,-1.9l1.4,-1.6l1.4,-1.3l1.4,-1.2l1.4,-1l2.6,-1.3l2.8,-1l2.8,-.6l2.8,-.3l2.6,-.4h2.8l2.8,-.2h2.8l2.6,.2h2.8l2.8,.2l2.6,.2h2.6l2.8,.1l2.8,.2l2.8,.2l2.6,.2l2.8,.2h2.8l2.8,.2l2.8,.2l2.8,.2l2.6,.2l2.8,.2h2.8l2.6,.2l2.7,.2l2.8,.2h2.8l2.8,.2l2.6,.1h2.8l2.6,.2l3,.2h2.6l2.8,.2h2.6l3,.2l2.6,.2" class="gb_216"/>
<path d="M473.7,811.1H594.2c3,0,5.4,2.5,5.4,5.5v75.3c0,3,-2.4,5.5,-5.4,5.5H473.7c-3,0,-5.5,-2.5,-5.5,-5.5V816.6c0,-3,2.5,-5.5,5.5,-5.5Z" class="gc_216"/>
<path d="M468.2,854.2H599.6M468.3,817.4l1.4,.1m-1.4,72.7l1.4,.1" class="gd_216"/>
<path d="M468.5,853.9c8.9,-30.3,11.8,-36.4,20.6,-36.4c7.5,0,4.7,0,11.7,0c14.1,0,17,18.4,28.6,18.4c8.9,0,13.4,-18.4,20.8,-18.4c10.9,0,16.9,55,31.5,55c8,0,14.8,-12.3,17.8,-18.6" class="ge_216"/>
<path d="M551.8,855.7v-2.9m-41.9,2.9v-2.9m83.7,2.9v-2.9" class="gd_216"/>
<path d="M484.3,942H605.4c3.1,0,5.5,2.5,5.5,5.5v75.7c0,3.1,-2.4,5.5,-5.5,5.5H484.3c-3,0,-5.5,-2.4,-5.5,-5.5V947.5c0,-3,2.5,-5.5,5.5,-5.5Z" class="g1_216"/>
<path d="M588.7,1028.7v-2m-36.6,2v-2m-36.9,2v-2m-36.4,-56h1.9m-1.9,28.9h1.9" class="g4_216"/>
<path d="M478.8,1024.9c5.1,-36.7,12,-82.7,30.1,-82.7c11.2,0,18.4,11.5,34.4,11.5c11.8,0,23,-11.6,33.1,-11.6c18.3,0,26.9,49.1,32.3,85.7" class="g3_216"/>
<path d="M668.7,942H789.8c3.1,0,5.5,2.4,5.5,5.5v75.7c0,3,-2.4,5.5,-5.5,5.5H668.7c-3,0,-5.5,-2.5,-5.5,-5.5V947.5c0,-3.1,2.5,-5.5,5.5,-5.5Z" class="g1_216"/>
<path d="M663.5,985.2c1.4,-24.9,2.3,-36.5,4.7,-36.5h2.7c3.6,0,5,18.5,7.3,18.5c2.6,0,3.6,-18.5,5.6,-18.5c2.6,0,4.1,55,8.1,55c3.4,0,5.1,-37.1,8.4,-37.1c4,0,5.5,54.9,8.2,54.9c2,0,2.9,-18.5,5.5,-18.5c2.4,0,3.7,18.5,7.4,18.5H724c2.4,0,3.8,-11.3,5.2,-36.2c1.5,-25,2.8,-36.3,5.3,-36.3h2.6c3.6,0,5,18.6,7.4,18.6c2.6,0,3.5,-18.6,5.5,-18.6c2.7,0,4.1,54.9,8.2,54.9c3.2,0,5,-37,8.4,-37c4,0,5.4,55,8.1,55c2,0,3,-18.6,5.6,-18.6c2.3,0,3.7,18.6,7.3,18.6h2.6c2.5,0,3.6,-11.7,5,-36.7" class="g3_216"/>
<path d="M782,986.9v-3.4m-105.9,3.4v-3.4m-12.6,1.7H795.2m-68,-36.4h3.7m-3.7,72.8h3.7m-1.6,7.1V942" class="g4_216"/>
<path d="M214.4,183v-3.1m-82.3,1.6H263.5m-131.8,0h.4m16.5,17.2V112.4" class="ga_216"/>
<path d="M137.6,112.2H258.5c3,0,5.4,2.5,5.4,5.5v75.5c0,3.1,-2.4,5.5,-5.4,5.5H137.6c-3,0,-5.5,-2.4,-5.5,-5.5V117.7c0,-3,2.5,-5.5,5.5,-5.5Z" class="g9_216"/>
<path d="M148.9,181.4h1l1.4,.4l2.8,.8l2.8,1.1l2.6,1.2l2.8,1.2l2.8,1.3l2.8,1.4l2.6,.9l2.8,1.4l2.7,.7l2.8,1l2.7,.6l2.7,.4l2.8,.4h2.6l2.6,-.2l2.8,-.6l2.8,-.8l2.8,-.9l2.6,-1.4l2.8,-1.7l2.8,-2.2l2.8,-2.3l2.8,-2.9l2.8,-2.9l2.6,-3.4l2.8,-3.7l2.8,-4.4l2.6,-4.5l2.8,-5l2.8,-5.2l2.8,-6.2l2.8,-6.2l2.6,-6.7l2.8,-7.4l2.6,-6.9l2.2,-6.4" class="gb_216"/>
<path d="M147.5,181.4c0,-.7,.6,-1.4,1.4,-1.4c.7,0,1.3,.7,1.3,1.4c0,.8,-.6,1.4,-1.3,1.4c-.8,0,-1.4,-.6,-1.4,-1.4Z" class="gf_216"/>
<path d="M147.5,181.4c0,-.7,.6,-1.4,1.4,-1.4c.7,0,1.3,.7,1.3,1.4c0,.8,-.6,1.4,-1.3,1.4c-.8,0,-1.4,-.6,-1.4,-1.4Z" class="ga_216"/>
<path d="M186.9,188l-1.3,-.3c0,0,1.7,1.8,2.1,3c-.4,-1.2,.2,-3.6,.2,-3.6l-1,.9Z" class="gg_216"/>
<path d="M186.9,188l-1.3,-.3c0,0,1.7,1.8,2.1,3c-.4,-1.2,.2,-3.6,.2,-3.6l-1,.9Zm0,0l-4.5,-15.1" class="gh_216"/>
<path d="M166.8,160.6H177" class="gi_216"/>
<path d="M192,160.4h9.5" class="gj_216"/>
<path d="M187.5,194.1c0,-.7,.6,-1.3,1.3,-1.3c.8,0,1.4,.6,1.4,1.3c0,.8,-.6,1.4,-1.4,1.4c-.7,0,-1.3,-.6,-1.3,-1.4Z" class="gg_216"/>
<path d="M187.5,194.1c0,-.7,.6,-1.3,1.3,-1.3c.8,0,1.4,.6,1.4,1.3c0,.8,-.6,1.4,-1.4,1.4c-.7,0,-1.3,-.6,-1.3,-1.4Z" class="gj_216"/>
<path d="M301.3,221.9h7.4" class="gk_216"/>
<path clip-path="url(#c1_216)" d="M136.6,549.5h201" class="gk_216"/>
<path clip-path="url(#c2_216)" d="M109.2,588.2H424" class="gk_216"/>
<path d="M70.4,907.6H202.3m-65.9,9.6V830.7" class="g4_216"/>
<path d="M199.5,904.8l2.8,.2m-5.5,-.4l2.7,.2m-5.5,-.4l2.8,.2m-5.4,-.4l2.6,.2m-5.5,-.4l2.9,.2m-5.5,-.5l2.6,.3m-5.3,-.6l2.7,.3m-5.5,-.7l2.8,.4m-5.6,-.9l2.8,.5m-5.6,-1l2.8,.5m-5.5,-1.2l2.7,.7m-5.5,-1.4l2.8,.7m-5.5,-1.7l2.7,1m-5.5,-2.2l2.8,1.2m-5.4,-2.7l2.6,1.5m-5.4,-3.5l2.8,2m-5.5,-4.5l2.7,2.5M152.7,889l3,3.4m-4.3,-4.9l1.3,1.5m-2.6,-2.9l1.3,1.4m-2,-2l.7,.6m-1.4,-1l.7,.4m-1,-.5l.3,.1M148,885h.4m-.7,0h.3m-.7,.1l.4,-.1m-1.8,1.4l1.4,-1.3m-2.8,4l1.4,-2.7m-4.1,9.6l2.7,-6.9m-4,9.7l1.3,-2.8m-2.6,4.9l1.3,-2.1m-2,2.9l.7,-.8m-1.4,1.4l.7,-.6m-1.1,.8l.4,-.2m-.8,.3l.4,-.1m-.7,.2l.3,-.1m-.7,.1h.4m-.7,0h.3m-.7,-.1l.4,.1m-.7,-.2l.3,.1m-.7,-.3l.4,.2m-1.1,-.8l.7,.6m-1.4,-1.4l.7,.8m-2,-2.9l1.3,2.1m-2.6,-5.4l1.3,3.3m-2,-5.6l.7,2.3m-1.4,-5.1l.7,2.8m-1.4,-6.3l.7,3.5m-1.4,-7.6l.7,4.1m-1.4,-8.8l.7,4.7m-1.4,-10.2l.7,5.5m-1.3,-11.8l.6,6.3m-1.3,-13.2l.7,6.9M125,855.6l.4,3.8m-.8,-7.5l.4,3.7m-.7,-7.4l.3,3.7m-.6,-7.1l.3,3.4m-1.1,-9l.8,5.6M122.5,836l.7,3.2m-.8,-3.5l.1,.3m-.3,-.5l.2,.2m-.4,-.1l.2,-.1m-.3,.2l.1,-.1m-.4,1l.3,-.9m-.7,2.3l.4,-1.4m-1,5.6l.6,-4.2m-1.3,9.6l.7,-5.4m-1.4,12.2l.7,-6.8m-1.4,13.5l.7,-6.7m-1.5,12.9l.8,-6.2M117,872.8l.7,-5.5m-1.3,9.6l.6,-4.1m-1.3,7.7l.7,-3.6m-1.3,6.7l.6,-3.1m-1.2,5.8l.6,-2.7m-2.1,7.7l1.5,-5m-3,8.6l1.5,-3.6m-2.7,6l1.2,-2.4m-2.5,4.2l1.3,-1.8m-4,4.5l2.7,-2.7m-5.6,4.5l2.9,-1.8m-5.8,3l2.9,-1.2m-5.4,2l2.5,-.8m-5.3,1.4l2.8,-.6m-5.6,1l2.8,-.4m-5.6,.7l2.8,-.3m-5.5,.6l2.7,-.3m-5.4,.5l2.7,-.2m-5.5,.3l2.8,-.1m-5.6,.3l2.8,-.2m-5.6,.2h2.8m-5.3,.1l2.5,-.1m-5.4,.2l2.9,-.1" class="g7_216"/>
<path d="M134.3,869h4.1m63.9,38.9v-.4" class="gl_216"/>
<path d="M75.9,830.7H196.8c3.1,0,5.5,2.4,5.5,5.5v75.5c0,3.1,-2.4,5.5,-5.5,5.5H75.9c-3,0,-5.5,-2.4,-5.5,-5.5V836.2c0,-3.1,2.5,-5.5,5.5,-5.5Z" class="g6_216"/>
<path d="M103.4,909.6v-4.1m22,4.1v-4.1m-43.9,4.1v-4.1m32.9,4.1v-4.1m-21.9,4.1v-4.1m76.9,4.1v-4.1m-22,4.1v-4.1m11,4.1v-4.1m22,4.1v-4.1m11,4.1v-4.1" class="g4_216"/>
<path d="M258.7,831.4H379.6c3,0,5.5,2.5,5.5,5.5v75.6c0,3.1,-2.5,5.5,-5.5,5.5H258.7c-3.1,0,-5.5,-2.4,-5.5,-5.5V836.9c0,-3,2.4,-5.5,5.5,-5.5Z" class="g6_216"/>
<path d="M297.2,912.3v-4.1m44,4.1v-4.1" class="g4_216"/>
<path d="M384.8,870.6l.4,.3m-.7,-1.4l.3,1.1m-.7,-2.9l.4,1.8m-.8,-4.3l.4,2.5M383,857.9l.7,7.3m-1.4,-17.9l.7,10.6m-1.3,-25.6l.6,15M363.2,842l.7,-10.4m-3.4,36.7L363.2,842m-5.6,42l2.9,-15.7m-5.6,24.9l2.7,-9.2m-5.5,15.4l2.8,-6.2m-5.5,10.2l2.7,-4m-5.5,7.1l2.8,-3.1m-5.3,5.1l2.5,-2m-5.4,3.6l2.9,-1.6m-5.6,2.7l2.7,-1.1m-5.6,2.1l2.9,-1m-5.6,1.6l2.7,-.6m-5.5,1.1l2.8,-.5m-5.6,.9l2.8,-.4m-5.5,.7l2.7,-.3m-5.3,.5l2.6,-.2m-5.5,.4l2.9,-.2m-5.7,.3l2.8,-.1m-5.4,.2l2.6,-.1m-5.4,.1h2.8m-5.5,.1l2.7,-.1m-5.5,.1h2.8m-5.4,0h2.6m-5.6,0h3m-5.5,0h2.5m-5.5,0h3m-5.5,-.1l2.5,.1m-5.2,-.1h2.7m-5.6,0h2.9m-5.7,-.1l2.8,.1m-5.4,-.1h2.6m-5.4,0h2.8m-5.6,-.1l2.8,.1m-5.6,-.1h2.8m-5.5,-.1l2.7,.1m-5.3,-.1h2.6m-5.4,-.1l2.8,.1m-5.7,-.1h2.9m-5.7,-.1l2.8,.1m-5.3,-.1h2.5m-5.2,-.1l2.7,.1" class="g7_216"/>
<path d="M253.2,910.3h132" class="gm_216"/>
<path d="M123.4,391.8V299" class="ga_216"/>
<path d="M133,391.8V355.3" class="gn_216"/>
<path d="M56.3,350.2H190.6M133,347.4V353m19.2,-4.9v4.1m9.6,-4.1v4.1m9.6,-4.1v4.1m9.6,-4.1v4.1m-67.2,-4.1v4.1m-9.5,-4.1v4.1m-9.6,-4.1v4.1m-9.6,-4.1v4.1m-9.6,-4.1v4.1m-9.6,-4.1v4.1" class="ga_216"/>
<path d="M125.2,391.5c0,0,-1.2,-30.8,3.7,-31.7c3.1,-.1,1.5,20,2.2,31.7M135,299.6c1.1,23,7.6,50.6,18,50.6c6.9,0,7.6,-9.6,14.4,-9.6c6.2,0,8,6.4,21.6,8" class="go_216"/>
<path d="M56.3,350.2H190.6" class="gp_216"/>
<path fill-rule="evenodd" d="M190.6,350.2l-1.4,-2.1l5.6,2.1l-5.6,2.1Z" class="gg_216"/>
<path d="M123.4,391.8V299" class="gp_216"/>
<path fill-rule="evenodd" d="M123.4,299l-2.1,1.4l2.1,-5.6l2.1,5.6Z" class="gg_216"/>
<path d="M56.3,348.6c10.6,-.6,14,-3.2,19.2,-3.2c5.2,0,38.7,22.8,43.1,46.4" class="go_216"/>
<path d="M133,299.6v36.9" class="gn_216"/>
<path d="M249.3,304.8H368.7c3.5,0,6.3,2.8,6.3,6.3v74c0,3.5,-2.8,6.3,-6.3,6.3H249.3c-3.4,0,-6.2,-2.8,-6.2,-6.3v-74c0,-3.5,2.8,-6.3,6.2,-6.3Z" class="g6_216"/>
<path d="M243.1,333.7H375" class="g4_216"/>
<path d="M375,378.3c-6.4,-31.7,-16.1,-71.2,-60,-71.2c-25.8,0,-64.6,7.6,-72.1,7.6" class="gq_216"/>
<path d="M76.4,425.1H196c3.5,0,6.3,2.9,6.3,6.3v74.2c0,3.5,-2.8,6.3,-6.3,6.3H76.4c-3.5,0,-6.3,-2.8,-6.3,-6.3V431.4c0,-3.4,2.8,-6.3,6.3,-6.3Z" class="g1_216"/>
<path d="M70.1,447.3c18.8,1.4,23.4,9.7,26.9,64.2m60,0c0,-45.6,-1.4,-53,-6.8,-53c-8.5,0,-14.2,13.8,-17.6,53m26.8,-86.4c.7,20.3,5.2,20.5,22.4,21h20.3" class="gr_216"/>
<path d="M70.1,446.4H202.2m-88.4,65.2V425.2" class="gs_216"/>
<path d="M248.7,426.1H367.5c3.5,0,6.3,2.8,6.3,6.3v73.7c0,3.4,-2.8,6.2,-6.3,6.2H248.7c-3.5,0,-6.3,-2.8,-6.3,-6.2V432.4c0,-3.5,2.8,-6.3,6.3,-6.3Z" class="gc_216"/>
<path d="M373.6,481.9c-32.3,-6,-47.1,-11.8,-65.3,-11.5c-34,.6,-45.5,41.2,-53.6,41.7c-8.8,.6,-10.3,-51.9,-12.2,-79.9" class="ge_216"/>
</svg>