<?xml version="1.0" encoding="UTF-8" standalone="no"?>
<!DOCTYPE svg PUBLIC "-//W3C//DTD SVG 1.1//EN"
"http://www.w3.org/Graphics/SVG/1.1/DTD/svg11.dtd">
<svg viewBox="0 0 907 1045" version="1.1" xmlns="http://www.w3.org/2000/svg" xmlns:xlink="http://www.w3.org/1999/xlink">
<defs>
<clipPath id="c0_183"><path d="M0,517.2V429l91.1,88.2ZM0,429v0Z"/></clipPath>
<clipPath id="c1_183"><path d="M337.9,635.5v-2.7H269.7V571H404.6v64.5Z"/></clipPath>
<clipPath id="c2_183"><path d="M202.9,697.3V639.2h5.6v43.9H323.8V638.4H258.3v-5.6h11.4v2.7h68.2v61.8Z"/></clipPath>
<clipPath id="c3_183"><path d="M269.7,635.5v-2.7h68.2v2.7Z"/></clipPath>
<clipPath id="c4_183"><path d="M208.5,683.1V639.2h.2v43.7H323.5V638.6H258.3v-.2h65.5v44.7Z"/></clipPath>
<clipPath id="c5_183"><path d="M699.6,322.2v-1.1H654.2V261.9h29.6v-4.2H802.4v64.5Z"/></clipPath>
<clipPath id="c6_183"><path d="M558.8,385.6V325.4h42.4v-4.3h53v1.1h45.4v63.4Z"/></clipPath>
<clipPath id="c7_183"><path d="M654.2,322.2v-1.1h45.4v1.1Z"/></clipPath>
<clipPath id="c8_183"><path d="M460.4,325.4V260.8h88.5v1.1h52.3v59.2H558.8v4.3Z"/></clipPath>
<clipPath id="c9_183"><path d="M558.8,325.4v-4.3h42.4v4.3Z"/></clipPath>
<clipPath id="ca_183"><path d="M601.2,261.9v-1.1H548.9V197.4H683.8v60.3H654.2v4.2Z"/></clipPath>
<clipPath id="cb_183"><path d="M654.2,261.9v-4.2h29.6v4.2Z"/></clipPath>
<clipPath id="cc_183"><path d="M548.9,261.9v-1.1h52.3v1.1Z"/></clipPath>
<clipPath id="cd_183"><path d="M668.1,774.8v-1.2H622.8V714.5h29.5v-4.3H770.9v64.6Z"/></clipPath>
<clipPath id="ce_183"><path d="M527.3,838.1V777.9h42.4v-4.3h53.1v1.2h45.3v63.3Z"/></clipPath>
<clipPath id="cf_183"><path d="M622.8,774.8v-1.2h45.3v1.2Z"/></clipPath>
<clipPath id="cg_183"><path d="M428.9,777.9V713.4h88.5v1.1h52.3v59.1H527.3v4.3Z"/></clipPath>
<clipPath id="ch_183"><path d="M527.3,777.9v-4.3h42.4v4.3Z"/></clipPath>
<clipPath id="ci_183"><path d="M569.7,714.5v-1.1H517.4V649.9H652.3v60.3H622.8v4.3Z"/></clipPath>
<clipPath id="cj_183"><path d="M622.8,714.5v-4.3h29.5v4.3Z"/></clipPath>
<clipPath id="ck_183"><path d="M517.4,714.5v-1.1h52.3v1.1Z"/></clipPath>
<clipPath id="cl_183"><path d="M123.4,639.2V574.7H258.3v58.1H202.9v6.4Z"/></clipPath>
<clipPath id="cm_183"><path d="M202.9,639.2v-6.4h55.4v5.6H208.5v.8Z"/></clipPath>
<clipPath id="cn_183"><path d="M209,639.2v-.4h49.3v.4Z"/></clipPath>
<clipPath id="co_183"><path d="M208.5,639.2v-.8h49.8v.2H208.7v.6Z"/></clipPath>
<clipPath id="cp_183"><path d="M208.7,639.2v-.6h49.6v.2H209v.4Z"/></clipPath>
<clipPath id="cq_183"><path d="M185.3,569.8V505.2H320.2v64.6Z"/></clipPath>
<clipPath id="cr_183"><path d="M-2.6,1047.7V-2.6H910.2V1047.7Z"/></clipPath>
<style type="text/css"><![CDATA[
.g0_183{
fill: #D2D2D2;
}
.g1_183{
fill: #D3D3D3;
}
.g2_183{
fill: #FFFFFF;
}
.g3_183{
fill: none;
stroke: #000000;
stroke-width: 0.492;
stroke-linecap: butt;
stroke-linejoin: miter;
stroke-miterlimit: 4;
}
.g4_183{
}
.g5_183{
fill: none;
stroke: #000000;
stroke-width: 0.656;
stroke-linecap: butt;
stroke-linejoin: miter;
stroke-miterlimit: 4;
}
.g6_183{
fill: none;
stroke: #636363;
stroke-width: 1.527;
stroke-linecap: butt;
stroke-linejoin: bevel;
stroke-miterlimit: 12;
}
.g7_183{
fill: none;
stroke: #FFFFFF;
stroke-width: 1.909;
stroke-linecap: butt;
stroke-linejoin: miter;
}
.g8_183{
fill: none;
stroke: #000000;
stroke-width: 0.381;
stroke-linecap: butt;
stroke-linejoin: miter;
}
]]></style>
</defs>
<path d="M507.3,364.8c5.5,13.2,15.2,26.9,25.7,36.5c14.1,12.7,32.8,20.1,49.6,28.3c27.2,13.4,57.8,17.8,87.9,14.6c8.8,-.9,16.3,-3.7,24.3,-7.6c6.5,-3.1,13.2,-5.5,19.8,-8.5c10.9,-5,21.3,-13.9,30.5,-21.5c13.3,-11.1,29.7,-19,38.5,-34.6c4.6,-8,9.8,-15.3,16.1,-22.1c4.2,-4.6,8.9,-8.1,11.1,-14c5.2,-13.8,7.8,-29.3,4.4,-43.7c-2.5,-10.3,-2.8,-20.4,-7.3,-30.2c-3.6,-7.6,-9,-13.6,-15.5,-18.8c-10.3,-8.3,-23.5,-13.6,-34.3,-21c-12.5,-8.7,-24,-17.3,-36.9,-25.1C690,178.3,659.9,158.3,625.9,144.8c-13.4,-5.3,-28.1,-7.6,-42.5,-7.8c-8.8,-.1,-18.4,-1,-27.2,-.1c-8.3,.9,-17.7,5.7,-25.4,9c-11.4,4.8,-22.4,9.8,-33.6,15.1c-9.5,4.6,-16.9,10.6,-25.3,17c-8.7,6.7,-20.7,14.8,-24.4,25.8c-4.5,13.7,-7,25.9,-7,40.4c0,18.9,.3,37.6,2.9,56.4c2.1,14.7,2.5,30.6,6.7,44.8c.7,2.4,1.4,5.1,2.2,6.9c1.6,4,2.9,3.9,6.8,5.3c9.1,3.4,18.1,5,27.2,8.6c5.5,2.2,9.2,5,15.1,5.8c1.5,.2,5.4,.4,5.9,1.8v-9Z" class="g0_183"/>
<g clip-path="url(#c0_183)">
<image clip-path="url(#c0_183)" preserveAspectRatio="none" x="-1" y="58" width="137" height="459" xlink:href="img/1.jpg"/>
</g>
<path d="M273.3,733.6c13.5,0,27.3,1.7,40.2,-3.2c5,-2,9.4,-2.7,14.6,-3.9c3.4,-.8,7.3,-2.1,10.5,-3.5c5.1,-2.1,10.3,-2,15.2,-4.7c11.8,-6.5,24.6,-11.8,32.4,-23.5c8.6,-13.1,12.1,-26.8,16.7,-41.7c.9,-2.9,1.7,-6,2.3,-8.9c.5,-2.3,.6,-4.8,1.3,-7.1c.8,-3.1,2.5,-5.3,3.6,-8.1c1.6,-4.2,1.3,-8.7,1.4,-13.1c.2,-7.6,2,-15,2.2,-22.5c.6,-16.4,2.1,-35.4,-3.1,-51c-8.8,-26.2,-28.4,-50.3,-49.7,-66.9C343.5,461.9,325.7,449.1,304,443.9c-4.4,-1,-8.8,-2.7,-13.3,-3.5c-3.9,-.6,-7.8,-.5,-11.8,-.3c-2.2,.1,-4.5,.1,-6.7,.1c-13.6,-.5,-26.8,-3.6,-40.4,-1.7c-18.4,2.5,-34.9,7.6,-51.9,14.7c-13.4,5.6,-25.7,16.7,-35.2,28.2C131.8,497,122,514.5,110.1,530.7C99.3,545.6,92.8,566,91.3,584.3c-1.5,18,.4,35.3,1.2,53.2c.5,10.2,5.5,21.7,10.3,30.7c6,11.2,13.9,22.2,21.2,32.7c5.9,8.4,13.7,16.5,21.8,23c3.9,3,7.8,4.2,12.1,6.1c5.1,2.4,9.6,6,15.3,7.3c2.9,.7,5.9,.6,9,.5c2.8,-.2,5.6,-.3,8.5,.3c5.5,1,11.1,2.2,16.5,3.5c6.8,1.6,13.8,1,20.7,1c6.2,0,13.2,.9,18.9,-1.3c2.9,-1.1,5.2,-2.8,7.9,-3.8c2.5,-.8,7.1,.1,9.8,.1l8.8,-4Z" class="g1_183"/>
<image clip-path="url(#c1_183)" preserveAspectRatio="none" x="269" y="571" width="136" height="65" xlink:href="img/2.jpg"/>
<path d="M275.5,576.8V621H390.3V576.8H275.5Z" class="g2_183"/>
<path d="M275.5,576.8V621H390.3V576.8H275.5Z" class="g3_183"/>
<image clip-path="url(#c2_183)" preserveAspectRatio="none" x="203" y="632" width="135" height="66" xlink:href="img/3.jpg"/>
<image clip-path="url(#c3_183)" preserveAspectRatio="none" x="269" y="632" width="69" height="4" xlink:href="img/4.jpg"/>
<image clip-path="url(#c4_183)" preserveAspectRatio="none" x="208" y="638" width="116" height="45" xlink:href="img/5.jpg"/>
<path d="M208.7,638.6v44.3H323.5V638.6H208.7Z" class="g2_183"/>
<path d="M208.7,638.6h-.2v44.5H323.8V638.4H208.5v.2h.2v.2H323.5v-.2h-.2v44.3h.2v-.3H208.7v.3h.3V638.6h-.3v.2v-.2Z" class="g4_183"/>
<path d="M208.7,655.1H324.6M275.5,593.3H391.4" class="g5_183"/>
<image clip-path="url(#c5_183)" preserveAspectRatio="none" x="654" y="257" width="149" height="66" xlink:href="img/6.jpg"/>
<path d="M660,263.5v44.2H787.6V263.5H660Z" class="g2_183"/>
<path d="M660,263.5v44.2H787.6V263.5H660Z" class="g3_183"/>
<image clip-path="url(#c6_183)" preserveAspectRatio="none" x="558" y="321" width="142" height="65" xlink:href="img/7.jpg"/>
<image clip-path="url(#c7_183)" preserveAspectRatio="none" x="654" y="321" width="46" height="2" xlink:href="img/8.jpg"/>
<path d="M564.6,326.8v44.3h120V326.8h-120Z" class="g2_183"/>
<path d="M564.6,326.8v44.3h120V326.8h-120Z" class="g3_183"/>
<image clip-path="url(#c8_183)" preserveAspectRatio="none" x="460" y="260" width="142" height="66" xlink:href="img/9.jpg"/>
<image clip-path="url(#c9_183)" preserveAspectRatio="none" x="558" y="321" width="44" height="5" xlink:href="img/10.jpg"/>
<path d="M466.2,266.6v44.3H586.3V266.6H466.2Z" class="g2_183"/>
<path d="M466.2,266.6v44.3H586.3V266.6H466.2Z" class="g3_183"/>
<image clip-path="url(#ca_183)" preserveAspectRatio="none" x="548" y="197" width="136" height="65" xlink:href="img/11.jpg"/>
<image clip-path="url(#cb_183)" preserveAspectRatio="none" x="654" y="257" width="30" height="5" xlink:href="img/12.jpg"/>
<image clip-path="url(#cc_183)" preserveAspectRatio="none" x="548" y="260" width="54" height="2" xlink:href="img/13.jpg"/>
<path d="M554.7,203.2v44.2H669.5V203.2H554.7Z" class="g2_183"/>
<path d="M554.7,203.2v44.2H669.5V203.2H554.7Z" class="g3_183"/>
<path d="M716,815.9c-5.4,12.8,-14.8,26.1,-25,35.3c-13.6,12.3,-31.7,19.5,-48,27.5c-26.2,12.9,-55.9,17.2,-85,14.1c-8.5,-.9,-15.8,-3.7,-23.5,-7.4c-6.3,-3,-12.8,-5.4,-19.2,-8.2c-10.5,-4.8,-20.6,-13.4,-29.5,-20.8C472.9,845.7,457.1,838,448.5,822.9C444,815.1,439,808.1,432.9,801.4c-4,-4.3,-8.6,-7.7,-10.7,-13.4c-5.1,-13.4,-7.6,-28.4,-4.2,-42.4c2.3,-10,2.6,-19.7,7,-29.2c3.4,-7.3,8.8,-13.1,15,-18.2c9.9,-8,22.7,-13.1,33.2,-20.3c12.1,-8.4,23.2,-16.8,35.7,-24.3c30.2,-18.2,59.3,-37.5,92.2,-50.6c13,-5.1,27.3,-7.3,41.2,-7.6c8.5,-.1,17.8,-.9,26.3,0c8,.8,17.2,5.5,24.6,8.6c11,4.7,21.7,9.5,32.5,14.7c9.2,4.4,16.4,10.3,24.5,16.4c8.5,6.5,20.1,14.3,23.6,25c4.3,13.2,6.8,25.1,6.8,39.1c0,18.3,-.3,36.4,-2.9,54.6c-2,14.2,-2.4,29.6,-6.4,43.4c-.7,2.3,-1.4,4.9,-2.1,6.6c-1.6,3.9,-2.9,3.8,-6.6,5.1c-8.8,3.3,-17.5,4.9,-26.3,8.4c-5.4,2.1,-9,4.8,-14.6,5.6c-1.5,.2,-5.3,.4,-5.7,1.7v-8.7Z" class="g0_183"/>
<image clip-path="url(#cd_183)" preserveAspectRatio="none" x="622" y="710" width="149" height="65" xlink:href="img/14.jpg"/>
<path d="M628.6,716v44.3H756.1V716H628.6Z" class="g2_183"/>
<path d="M628.6,716v44.3H756.1V716H628.6Z" class="g3_183"/>
<image clip-path="url(#ce_183)" preserveAspectRatio="none" x="527" y="773" width="141" height="66" xlink:href="img/15.jpg"/>
<image clip-path="url(#cf_183)" preserveAspectRatio="none" x="622" y="773" width="46" height="2" xlink:href="img/16.jpg"/>
<path d="M533.1,779.4v44.3H653.2V779.4H533.1Z" class="g2_183"/>
<path d="M533.1,779.4v44.3h120V779.4h-120Z" class="g3_183"/>
<image clip-path="url(#cg_183)" preserveAspectRatio="none" x="429" y="713" width="141" height="65" xlink:href="img/17.jpg"/>
<image clip-path="url(#ch_183)" preserveAspectRatio="none" x="527" y="773" width="43" height="5" xlink:href="img/18.jpg"/>
<path d="M434.7,719.2v44.3H554.8V719.2H434.7Z" class="g2_183"/>
<path d="M434.7,719.2v44.3H554.8V719.2H434.7Z" class="g3_183"/>
<image clip-path="url(#ci_183)" preserveAspectRatio="none" x="517" y="650" width="136" height="65" xlink:href="img/19.jpg"/>
<image clip-path="url(#cj_183)" preserveAspectRatio="none" x="622" y="710" width="31" height="5" xlink:href="img/20.jpg"/>
<image clip-path="url(#ck_183)" preserveAspectRatio="none" x="517" y="713" width="53" height="2" xlink:href="img/21.jpg"/>
<path d="M523.2,655.7V700H638V655.7H523.2Z" class="g2_183"/>
<path d="M523.2,655.7V700H638V655.7H523.2Z" class="g3_183"/>
<path d="M523.2,672.3H639.1" class="g5_183"/>
<image clip-path="url(#cl_183)" preserveAspectRatio="none" x="123" y="574" width="136" height="66" xlink:href="img/22.jpg"/>
<image clip-path="url(#cm_183)" preserveAspectRatio="none" x="203" y="633" width="56" height="7" xlink:href="img/23.jpg"/>
<image clip-path="url(#cn_183)" preserveAspectRatio="none" x="208" y="638" width="51" height="2" xlink:href="img/24.jpg"/>
<image clip-path="url(#co_183)" preserveAspectRatio="none" x="208" y="638" width="51" height="2" xlink:href="img/25.jpg"/>
<image clip-path="url(#cp_183)" preserveAspectRatio="none" x="208" y="638" width="51" height="2" xlink:href="img/26.jpg"/>
<path d="M129.2,580.4v44.3H244V580.4H129.2Z" class="g2_183"/>
<path d="M129.2,580.4v44.3H244V580.4H129.2Z" class="g3_183"/>
<image clip-path="url(#cq_183)" preserveAspectRatio="none" x="185" y="505" width="136" height="65" xlink:href="img/27.jpg"/>
<path d="M191.1,511v44.3H305.9V511H191.1Z" class="g2_183"/>
<path d="M191.1,511v44.3H305.9V511H191.1Z" class="g3_183"/>
<path d="M191,527.5H307M129.1,597h116M434.7,735.7H555m-21.9,60.2H653.4M628.5,732.6H755.9M554.6,219.7h116M466.2,283.2H586.5m-22,60.2H684.9M660,280H787.3" class="g5_183"/>
<path d="M437.4,490.7c.3,-1.4,-1.4,-3,-2.1,-3.8c-1.7,-2,-3.4,-3.5,-5.8,-4.6c-4.4,-1.9,-8.4,-2.3,-12.6,-.2c-2.4,1.2,-4.9,2.6,-7.2,4c-2.1,1.2,-3.5,3.2,-5.3,4.7c-.8,-.6,.1,-2.1,.3,-3c.5,-2,.2,-4.2,.6,-6.1c2.4,2.9,-2.5,8.7,-1,11.7c2.4,-1.3,5,-2.4,7.8,-2.7m182.2,55.9c-3.3,-1.6,-6.5,3.3,-8,5.4c-2.8,4.1,-4.6,8.7,-4.9,13.7c-.3,4.2,-.2,8.7,1.2,12.7c1,2.5,2.7,4.7,4.8,6.4c1,.9,2.3,1.5,3,2.8c-1.4,1.7,-3.6,.6,-5.3,0c-2.9,-1.2,-4.7,-3.5,-7.5,-4.8c1.1,.9,2.5,1.9,3.7,2.6c1.4,.8,3,1.3,4.4,2.1c.5,.3,1.4,1.3,1.9,1.4c1.7,.3,1.7,-2.2,2.1,-3.3c.9,-2.5,2.5,-4.6,3.3,-7.2M569.8,471.6c-2.7,-2.7,-3.6,-5.8,-3,-9.5c.5,-3,1,-6.5,1.7,-9.4c.7,-2.8,2.9,-3.9,4.1,-6.1c-1.9,-.4,-8.2,-.1,-7.5,2.8c1.3,.4,3.3,-.7,4.4,-1.3c1,-.6,2.5,-2.6,3.5,-2.7c-.2,3.2,1.7,7.2,4.5,8.8M391.9,852.1c3.2,2.6,7.9,1.6,11.6,.7c3.8,-.8,7.5,-2.1,11.1,-3.3c2.9,-1,6.1,-1.8,8.5,-3.8c4.7,-3.7,9.1,-7.7,12.5,-12.5c-1,-.2,-2,.3,-2.9,.5c-1.8,.3,-3.7,0,-5.5,.5c1,.1,2.1,-.2,3.2,-.3c1.2,-.1,4.1,-.8,5.2,-.2c1.1,.5,.2,1.8,0,2.9c-.1,1.4,-.1,2.7,1.1,3.4" class="g6_183"/>
<g clip-path="url(#cr_183)">
<path d="M-4.5,13.7H-27.4m939.5,0H935M-4.5,1031.2H-27.4m939.5,0H935M13.7,-4.5V-27.4m0,1077v22.9m880,-1077V-27.4m0,1077v22.9" class="g7_183"/>
<path d="M-4.5,13.7H-27.4m939.5,0H935M-4.5,1031.2H-27.4m939.5,0H935M13.7,-4.5V-27.4m0,1077v22.9m880,-1077V-27.4m0,1077v22.9" class="g8_183"/>
</g>
</svg>