<?xml version="1.0" encoding="UTF-8" standalone="no"?>
<!DOCTYPE svg PUBLIC "-//W3C//DTD SVG 1.1//EN"
"http://www.w3.org/Graphics/SVG/1.1/DTD/svg11.dtd">
<svg viewBox="0 0 660 990" version="1.1" xmlns="http://www.w3.org/2000/svg" xmlns:xlink="http://www.w3.org/1999/xlink">
<defs>
<clipPath id="c0_69"><path d="M86.9,79.5L85.7,77.2L84.5,74.8H576.2l-1.1,2.4l-1.2,2.3Z"/></clipPath>
<clipPath id="c1_69"><path d="M577.3,208.3L575,207.1l-2.4,-1.2V78.3L575,77.1l2.3,-1.2V208.3Z"/></clipPath>
<clipPath id="c2_69"><path d="M84.5,209.4L85.7,207l1.2,-2.4h487l1.2,2.4l1.1,2.4Z"/></clipPath>
<clipPath id="c3_69"><path d="M83.5,208.3V75.9l2.3,1.2l2.4,1.2V205.9l-2.4,1.2l-2.3,1.2Z"/></clipPath>
<clipPath id="c4_69"><path d="M85.6,915.9v-5.1H574.4v5.1Z"/></clipPath>
<style type="text/css"><![CDATA[
.g0_69{
fill: none;
stroke: #231F20;
stroke-width: 0.381;
stroke-linecap: round;
stroke-linejoin: miter;
}
.g1_69{
fill: #FFFFFF;
}
.g2_69{
fill: #231F20;
}
.g3_69{
fill: none;
stroke: #231F20;
stroke-width: 0.763;
stroke-linecap: round;
stroke-linejoin: miter;
}
]]></style>
</defs>
<path clip-path="url(#c0_69)" d="M85.6,77.2H575.1" class="g0_69"/>
<path clip-path="url(#c1_69)" d="M575,77V207.2" class="g0_69"/>
<path clip-path="url(#c2_69)" d="M575.1,207H85.6" class="g0_69"/>
<path clip-path="url(#c3_69)" d="M85.8,207.2V77" class="g0_69"/>
<path fill-rule="evenodd" d="M597.3,913H660v77H597.3V913Z" class="g1_69"/>
<path fill-rule="evenodd" d="M597.3,354.2H660v92.4H597.3V354.2Z" class="g2_69"/>
<path fill-rule="evenodd" d="M597.3,0H660V77H597.3V0Z" class="g1_69"/>
<path clip-path="url(#c4_69)" d="M85.6,913.4H574.4" class="g3_69"/>
<image preserveAspectRatio="none" x="110" y="85" width="441" height="113" xlink:href="img/1.jpg"/>
</svg>