<?xml version="1.0" encoding="UTF-8" standalone="no"?>
<!DOCTYPE svg PUBLIC "-//W3C//DTD SVG 1.1//EN"
"http://www.w3.org/Graphics/SVG/1.1/DTD/svg11.dtd">
<svg viewBox="0 0 907 1045" version="1.1" xmlns="http://www.w3.org/2000/svg" xmlns:xlink="http://www.w3.org/1999/xlink">
<defs>
<clipPath id="c0_478"><path d="M613.9,685.2c-16,-10.7,-34.4,-11.3,-28.3,-41.8c3.2,-16.3,15.4,-22.8,29.3,-28.6h15.2c35.3,16.1,27.1,55.7,-4,70.4Z"/></clipPath>
<clipPath id="c1_478"><path d="M240.6,728.1c-16,-10.7,-34.3,-11.3,-28.3,-41.8c3.2,-16.3,15.5,-22.8,29.3,-28.6h15.2c35.3,16.1,27.1,55.7,-4,70.4Z"/></clipPath>
<clipPath id="c2_478"><path d="M337,702c-11.3,-7.6,-24.4,-8,-20.1,-29.7c2.3,-11.5,11,-16.1,20.8,-20.2h10.8c25.1,11.4,19.2,39.5,-2.9,49.9Z"/></clipPath>
<clipPath id="c3_478"><path d="M505,696.8c-11.3,-7.6,-24.4,-8,-20.1,-29.7c2.3,-11.5,11,-16.1,20.8,-20.2h10.8c25.1,11.4,19.3,39.5,-2.9,49.9Z"/></clipPath>
<clipPath id="c4_478"><path d="M192.2,616V575.2h27.4V616Z"/></clipPath>
<clipPath id="c5_478"><path d="M675.4,582.8V525.4h27.4v57.4Z"/></clipPath>
<clipPath id="c6_478"><path d="M627.1,592.8c-2.9,-.3,-7.7,-1.6,-8,-4.8c.1,-.4,.1,-.1,0,-.5c.4,-1.8,.7,-3.5,1.3,-5.2c0,-.3,-.1,-.1,-.2,-.4c.9,-1.8,.3,-3.8,2.1,-4.6c.1,-.6,.3,-1.2,0,-1.9c.3,-1,1.3,-1.5,2.5,-1.6h.4v.2h.2v-.2h.8v-.1h.3v.1h.2v-.1h.2v.1h1.7v.2h.8v.2h.4v.2h.6v-.2h.4V574h.5v-.2h.8v-.1h.4v.1H634v.2h2.1v.2h1.6v.2h.2v-.2h1.7V574h1.1v-.2h.2v.2h1.2v-.2h.9v.2h.2v-.2h1c.4,0,9,.9,9,1h7.3c1.8,-.4,5.6,.3,6.7,-1h1.3c2.5,1.8,2.4,4.1,3.5,7.3c.8,2.5,3.5,6,1.5,8.9c-2.2,1,-6.6,1.1,-9.9,1.1c-.4,0,-.8,0,-1.2,0c-.4,.6,-.9,.7,-1.3,1.2h-.2c0,-.3,-.1,-.4,-.3,-.4c-.1,0,-.3,.1,-.5,.2c-.2,-.5,-.7,-.7,-1,-1.2c-1.2,0,-2.1,0,-2.8,-.4h-8.9v.2h-.5v-.2h-.8v.2h-3.8v-.2h-2.7c-3.6,.7,-8.2,1.6,-12.3,2.3Zm52.8,2c-3.3,-2.7,-5.4,-13.4,-1.4,-16.5c.1,-3.5,-3.9,-4.6,-7.3,-4.6c-.3,-.3,-.8,-1,-.9,-1.4c.2,-.3,.4,-.6,.7,-.8h2v.2h.7v.2h.2v-.2h.2c3.7,1.1,5.7,3.2,7.5,6.2h.4v-.2h.4c3.4,.9,6.7,6.3,5.1,11.1c-.7,2.2,-3.9,4.9,-5.9,6ZM639.8,532c-.4,-.2,-.7,-.3,-1,-.3c.4,.1,.6,.2,1,.3Zm-15.2,39.2c-.5,-.5,-1.7,-.5,-2.1,-1c-.9,-1.1,0,-4.5,-.4,-5.4c0,0,0,-5.1,0,-5.1h.2v-.4h-.2v-.2h.2v-1.9h.2V556h.2v-1h.2v-3h.2v-8.5h-.2v-.2h-.2v-.7h-.2V542h.2v-.6h-.2V541h-.2v-.7h-.2v-1.2h-.2v-.4h.2v-1.5h.2v-1h.2v-.5h.2v-.4h.2v-.4h.2v-.4h.2v-.2h.2v-.2h.2v-.2h.1v-.1h.2v-.2h.2v-.2h.2v-.2h.4V533h.2v-.2h.4v-.2h.4v-.2h.4v-.2h.7V532h1v-.2h3.2v-.2h1v-.1h1.5v-.2h.2v.2h.2v-.2h1.7c-.1,.2,.4,.3,-.1,.5c.7,0,1.3,.3,1.7,.4h1.1c0,-.3,.1,-.5,.4,-.5c-.1,0,-.3,0,-.6,-.1c1,-.2,2.4,-.3,3.1,-.7h.6v.2h.4v-.2h.2v.2h1.1v.2h.2v-.2h.4c0,-.3,.4,-.5,.9,-.5c1.7,0,5,1.1,5.6,1.4h.2v-.2h1v.2H653v-.2h.4v.2h1.3v.2h.4V532h.6v.2h.2V532h.4v.2h2.5V532h2.3v.2h.9v.2h1.6v.2h3.6v-.2h1.3v.8h.8V533h.6v.2h.2v.2h.2v.2h.2v-.2h.2c3.5,.9,1.5,4.5,1.3,7.3c.3,1.1,.5,2.8,.4,3.8c0,.4,.1,-.1,.2,.6c-.3,.9,-.7,2.5,-.4,3.4c-.2,.5,-.2,1.6,-.4,2.1c.7,2.6,.3,7.6,.8,10.4c.3,2.1,.8,4.2,.2,6.1c-.5,1.2,-1.5,1.9,-2.1,2.9h-.4v-.4h-.2v.2h-.2v.2h-.4v-.2h-.4v.2h-.2v.2h-8.6v.2h-5.2v.2h-5.2v.2h-.2v-.2h-.1v.2H649v-.2h-1.7v.2h-1.2v.2h-.4v-.2h-.4v.2h-.2v-.2h-1.9v-.2h-6.3v-.2h-9.2v.2h-.8v.2h-.7v.2H626v-.2h-.8v.2h-.4v.2Z"/></clipPath>
<clipPath id="c7_478"><path d="M-2.6,1047.7V-2.6H910.2V1047.7Z"/></clipPath>
<style type="text/css"><![CDATA[
.g0_478{
fill: #D6D6D6;
}
.g1_478{
fill: none;
stroke: #505050;
stroke-width: 1.527;
stroke-linecap: butt;
stroke-linejoin: miter;
stroke-miterlimit: 4;
}
.g2_478{
fill: none;
stroke: #505050;
stroke-width: 3.055;
stroke-linecap: butt;
stroke-linejoin: miter;
stroke-miterlimit: 4;
}
.g3_478{
fill: none;
stroke: #636363;
stroke-width: 1.527;
stroke-linecap: butt;
stroke-linejoin: miter;
stroke-miterlimit: 4;
}
.g4_478{
fill: none;
stroke: #FFFFFF;
stroke-width: 1.909;
stroke-linecap: butt;
stroke-linejoin: miter;
}
.g5_478{
fill: none;
stroke: #000000;
stroke-width: 0.381;
stroke-linecap: butt;
stroke-linejoin: miter;
}
]]></style>
</defs>
<path d="M598.5,605.1c-1.7,-.7,-70.4,9.5,-72.4,10.7c-10.5,1.8,-20.9,3.8,-31.2,5.7c-4.5,.4,-8.1,1.5,-10.8,3.2c-3.4,1.8,-6.3,4.7,-8.6,6.9c-4,3.8,-2.9,5.9,-1.9,10.2c.9,3.5,1.4,7,1.4,10.6c-.7,4.2,-4.5,7.5,-7.9,11.3c-5.1,5.6,-11.9,11.3,-14.6,17.4c-3.4,7.8,.5,13.9,7.7,20.6c8.4,7.7,20.3,14.1,27.4,22.2c7.9,9.1,12.2,21.2,28.3,27.3c10.7,2.8,22,4.4,33.9,4.7c14.1,.3,27.8,-.8,41.2,-3.1c9,-1.8,18.2,-2.8,27.6,-3.1c15.8,-.2,31.6,4.6,46.2,-1.1c7,-3.8,12.4,-8.2,16.3,-13.1c3.2,-3.6,6.6,-7.1,10.1,-10.6c3.5,-3.2,6.4,-6.5,8.7,-9.9c3.1,-6.2,-1,-10.1,-4.6,-15.9c-4,-6.1,-6.1,-12.4,-6.3,-18.9c.1,-5.6,.2,-11.2,.2,-16.8c-.5,-5.2,-1.8,-10.3,-3.8,-15.4c-3.1,-7.5,-8.8,-12.6,-17.4,-18.5c-7.5,-5.2,-14,-10.8,-21.8,-15.9c-2.6,-2.2,-5.9,-4,-10,-5.4c-2,-.3,-36.1,-1.9,-36.9,-2.6Z" class="g0_478"/>
<path d="M598.5,605.1c-1.7,-.7,-70.4,9.5,-72.4,10.7c-10.5,1.8,-20.9,3.8,-31.2,5.7c-4.5,.4,-8.1,1.5,-10.8,3.2c-3.4,1.8,-6.3,4.7,-8.6,6.9c-4,3.8,-2.9,5.9,-1.9,10.2c.9,3.5,1.4,7,1.4,10.6c-.7,4.2,-4.5,7.5,-7.9,11.3c-5.1,5.6,-11.9,11.3,-14.6,17.4c-3.4,7.8,.5,13.9,7.7,20.6c8.4,7.7,20.3,14.1,27.4,22.2c7.9,9.1,12.2,21.2,28.3,27.3c10.7,2.8,22,4.4,33.9,4.7c14.1,.3,27.8,-.8,41.2,-3.1c9,-1.8,18.2,-2.8,27.6,-3.1c15.8,-.2,31.6,4.6,46.2,-1.1c7,-3.8,12.4,-8.2,16.3,-13.1c3.2,-3.6,6.6,-7.1,10.1,-10.6c3.5,-3.2,6.4,-6.5,8.7,-9.9c3.1,-6.2,-1,-10.1,-4.6,-15.9c-4,-6.1,-6.1,-12.4,-6.3,-18.9c.1,-5.6,.2,-11.2,.2,-16.8c-.5,-5.2,-1.8,-10.3,-3.8,-15.4c-3.1,-7.5,-8.8,-12.6,-17.4,-18.5c-7.5,-5.2,-14,-10.8,-21.8,-15.9c-2.6,-2.2,-5.9,-4,-10,-5.4c-2,-.3,-36.1,-1.9,-36.9,-2.6" class="g1_478"/>
<image clip-path="url(#c0_478)" preserveAspectRatio="none" x="584" y="613" width="73" height="74" xlink:href="img/1.jpg"/>
<path d="M273.6,612c1.6,-.7,64,9.7,65.9,11c9.4,1.8,18.9,3.8,28.3,5.8c4.1,.4,7.3,1.5,9.8,3.3c3.1,1.8,5.7,4.8,7.8,7c3.7,3.9,2.6,6,1.7,10.4c-.8,3.5,-1.3,7.1,-1.3,10.7c.7,4.4,4.2,7.7,7.3,11.6c4.5,5.8,10.7,11.5,13.2,17.8c3.1,7.9,-.5,14.2,-7,21c-7.6,7.9,-18.5,14.3,-24.9,22.7c-7.1,9.3,-11.1,21.6,-25.7,27.8c-9.7,2.9,-20,4.5,-30.8,4.8c-12.8,.2,-25.3,-.8,-37.5,-3.2c-8.1,-1.8,-16.4,-2.8,-25,-3.1c-14.4,-.2,-28.7,4.6,-42,-1.2c-6.3,-3.8,-11.3,-8.3,-14.9,-13.3c-2.9,-3.7,-5.9,-7.3,-9.1,-10.9c-3.2,-3.2,-5.8,-6.5,-7.9,-10c-2.9,-6.4,.9,-10.3,4.2,-16.2c3.6,-6.3,5.5,-12.7,5.7,-19.4c-.1,-5.7,-.2,-11.4,-.2,-17c.5,-5.4,1.6,-10.6,3.4,-15.8c2.9,-7.7,8,-12.8,15.8,-18.8c6.9,-5.4,12.8,-11,19.9,-16.3c2.4,-2.3,5.4,-4.1,9,-5.5c1.9,-.3,32.9,-2,33.6,-2.7Z" class="g0_478"/>
<path d="M273.6,612c1.6,-.7,64,9.7,65.9,11c9.4,1.8,18.9,3.8,28.3,5.8c4.1,.4,7.3,1.5,9.8,3.3c3.1,1.8,5.7,4.8,7.8,7c3.7,3.9,2.6,6,1.7,10.4c-.8,3.5,-1.3,7.1,-1.3,10.7c.7,4.4,4.2,7.7,7.3,11.6c4.5,5.8,10.7,11.5,13.2,17.8c3.1,7.9,-.5,14.2,-7,21c-7.6,7.9,-18.5,14.3,-24.9,22.7c-7.1,9.3,-11.1,21.6,-25.7,27.8c-9.7,2.9,-20,4.5,-30.8,4.8c-12.8,.2,-25.3,-.8,-37.5,-3.2c-8.1,-1.8,-16.4,-2.8,-25,-3.1c-14.4,-.2,-28.7,4.6,-42,-1.2c-6.3,-3.8,-11.3,-8.3,-14.9,-13.3c-2.9,-3.7,-5.9,-7.3,-9.1,-10.9c-3.2,-3.2,-5.8,-6.5,-7.9,-10c-2.9,-6.4,.9,-10.3,4.2,-16.2c3.6,-6.3,5.5,-12.7,5.7,-19.4c-.1,-5.7,-.2,-11.4,-.2,-17c.5,-5.4,1.6,-10.6,3.4,-15.8c2.9,-7.7,8,-12.8,15.8,-18.8c6.9,-5.4,12.8,-11,19.9,-16.3c2.4,-2.3,5.4,-4.1,9,-5.5c1.9,-.3,32.9,-2,33.6,-2.7" class="g1_478"/>
<image clip-path="url(#c1_478)" preserveAspectRatio="none" x="210" y="656" width="74" height="74" xlink:href="img/2.jpg"/>
<path d="M423.1,597V781.4" class="g2_478"/>
<image clip-path="url(#c2_478)" preserveAspectRatio="none" x="315" y="651" width="53" height="52" xlink:href="img/3.jpg"/>
<image clip-path="url(#c3_478)" preserveAspectRatio="none" x="483" y="645" width="53" height="53" xlink:href="img/4.jpg"/>
<image clip-path="url(#c4_478)" preserveAspectRatio="none" x="192" y="575" width="29" height="41" xlink:href="img/5.jpg"/>
<image clip-path="url(#c5_478)" preserveAspectRatio="none" x="675" y="525" width="28" height="58" xlink:href="img/6.jpg"/>
<image clip-path="url(#c6_478)" preserveAspectRatio="none" x="618" y="529" width="70" height="67" xlink:href="img/7.jpg"/>
<path d="M354.1,565.9c-6.3,0,-10.1,-.8,-14.6,4c-5.9,6.2,-6.9,12.3,-3.4,20.1c2.6,5.8,3.9,11.7,6.1,17.4c.7,1.9,2.3,8.3,1,9.5c-1.8,-2.4,-3.8,-2.6,-5.8,-4.6c-1.8,-1.8,-2.2,-4.4,-3,-6.2c.7,2.3,2.4,2.7,3.8,4.2c1.4,1.4,2.7,5.1,3.9,6c3.7,2.5,11.9,-4.2,15.2,-6M672.5,772.4c-.6,2.2,-3.2,4,-4.6,5.8c-1.4,1.8,-2.6,3.6,-4.2,5.2c-2.1,2.1,-4.4,3.5,-6.8,5.2c-4.7,3.3,-10.3,5.3,-16,6.5c-4.4,.9,-8.9,1.5,-13.3,1.7c-2.9,.2,-5.7,.8,-8.5,1.3c-3.8,.7,-7.8,.1,-11.6,.5c-8,.9,-15.8,1.7,-23.9,1.4c-2.8,-.1,-5.9,-1.1,-8.6,-1.9c-3.2,-.8,-6.2,-1.7,-9.5,-2.3c-5.1,-1,-9.9,-2.6,-14.1,-5.8c-.9,-.7,-1.7,-1.4,-2.7,-2.1c-1.2,-.8,-2.3,-1.5,-3.3,-2.5c-1.9,-2,-3.2,-4.6,-4.8,-6.8c-1.1,-1.4,-2.2,-2.9,-2.7,-4.6c-.4,-1.1,-.3,-2.1,-.5,-3.2c-1.3,.1,-2.7,4,-3.3,5c-1.3,2.2,-3.1,4.7,-3.6,7.3c.4,-1.9,1.2,-4.3,1.9,-6.2c.6,-1.4,1.5,-2.7,2,-4.2c.3,-.9,.4,-2.4,1,-3.1c.2,2,1.2,4.1,2.8,5.3c2,1.4,7.2,2,9.1,.4" class="g3_478"/>
<g clip-path="url(#c7_478)">
<path d="M-4.5,13.7H-27.4m939.5,0H935M-4.5,1031.2H-27.4m939.5,0H935M13.7,-4.5V-27.4m0,1077v22.9m880,-1077V-27.4m0,1077v22.9" class="g4_478"/>
<path d="M-4.5,13.7H-27.4m939.5,0H935M-4.5,1031.2H-27.4m939.5,0H935M13.7,-4.5V-27.4m0,1077v22.9m880,-1077V-27.4m0,1077v22.9" class="g5_478"/>
</g>
</svg>