<?xml version="1.0" encoding="UTF-8" standalone="no"?>
<!DOCTYPE svg PUBLIC "-//W3C//DTD SVG 1.1//EN"
"http://www.w3.org/Graphics/SVG/1.1/DTD/svg11.dtd">
<svg viewBox="0 0 931 1096" version="1.1" xmlns="http://www.w3.org/2000/svg" xmlns:xlink="http://www.w3.org/1999/xlink">
<defs>
<clipPath id="c0_111"><path d="M599.7,266.5V160.6H801.3V266.5Z"/></clipPath>
<clipPath id="c1_111"><path d="M174.1,1018.2V887h266v131.2Z"/></clipPath>
<style type="text/css"><![CDATA[
.g0_111{
fill: #CFEDFC;
}
.g1_111{
fill: none;
stroke: #241F1F;
stroke-width: 0.765;
stroke-linejoin: round;
}
.g2_111{
fill: none;
stroke: #241F1F;
stroke-width: 0.536;
stroke-miterlimit: 3;
}
.g3_111{
fill: #241F1F;
}
.g4_111{
fill: #E8F6FE;
}
.g5_111{
fill: none;
stroke: #241F1F;
stroke-width: 0.763;
stroke-miterlimit: 10;
}
.g6_111{
fill: none;
stroke: #89898B;
stroke-width: 0.534;
}
.g7_111{
fill: none;
stroke: #241F1F;
stroke-width: 0.381;
}
.g8_111{
fill: none;
stroke: #241F1F;
stroke-width: 0.611;
}
.g9_111{
fill: none;
stroke: #241F1F;
stroke-width: 0.763;
}
.ga_111{
fill: none;
stroke: #241F1F;
stroke-width: 0.611;
stroke-miterlimit: 3;
}
.gb_111{
fill: none;
stroke: #241F1F;
stroke-width: 0.534;
}
.gc_111{
fill: none;
stroke: #EE008C;
stroke-width: 0.916;
}
.gd_111{
fill: none;
stroke: #00AEEF;
stroke-width: 0.763;
stroke-miterlimit: 10;
}
.ge_111{
fill: none;
stroke: #241F1F;
stroke-width: 0.687;
stroke-miterlimit: 10;
}
.gf_111{
fill: none;
stroke: #89898B;
stroke-width: 0.528;
stroke-miterlimit: 3;
}
.gg_111{
fill: none;
stroke: #241F1F;
stroke-width: 0.605;
stroke-miterlimit: 3;
}
.gh_111{
fill: none;
stroke: #FFF;
stroke-width: 1.512;
}
.gi_111{
fill: none;
stroke: #00AEEF;
stroke-width: 0.907;
stroke-miterlimit: 3;
}
.gj_111{
fill: #00AEEF;
}
]]></style>
</defs>
<g clip-path="url(#c0_111)">
<path d="M600.1,231c1.9,-37,45.6,-63.4,89.1,-68.3c45.5,-5.7,71.1,3.2,91.5,18.4c10,7.3,23.7,22.2,19.5,41.3c-1.9,8.6,-8.6,19,-23.7,17.1C761.3,237.6,760.3,231,744.2,225.3c-17.9,-6.2,-29.5,-.4,-43.1,5.7c-21.4,9.9,-35,32.2,-69.7,35.1C617.7,267,599.1,249.4,600.1,231Z" class="g0_111"/>
<path d="M600.1,231c1.9,-37,45.6,-63.4,89.1,-68.3c45.5,-5.7,71.1,3.2,91.5,18.4c10,7.3,23.7,22.2,19.5,41.3c-1.9,8.6,-8.6,19,-23.7,17.1C761.3,237.6,760.3,231,744.2,225.3c-17.9,-6.2,-29.5,-.4,-43.1,5.7c-21.4,9.9,-35,32.2,-69.7,35.1C617.7,267,599.1,249.4,600.1,231Z" class="g1_111"/>
</g>
<path d="M628.1,189.5v27.2" class="g2_111"/>
<path d="M628.1,185.8l1.9,4.9l-1.9,-1.2l-1.8,1.2Z" class="g3_111"/>
<path d="M628.2,233.9l-.1,28.3" class="g2_111"/>
<path d="M628.1,265.8L626.3,261l1.8,1.2L630,261Z" class="g3_111"/>
<path d="M653.4,175.6v31.5" class="g2_111"/>
<path d="M653.4,171.9l1.8,4.8l-1.8,-1.1l-1.8,1.1Z" class="g3_111"/>
<path d="M653.4,224.3v32.1" class="g2_111"/>
<path d="M653.4,260.1l-1.8,-4.8l1.8,1.1l1.8,-1.1Z" class="g3_111"/>
<path d="M677.9,168.3l-.1,27.9" class="g2_111"/>
<path d="M677.9,164.6l1.8,4.8l-1.8,-1.1l-1.9,1.1Z" class="g3_111"/>
<path d="M677.9,213.4l-.1,29" class="g2_111"/>
<path d="M677.8,246.1L676,241.3l1.8,1.1l1.9,-1.1Z" class="g3_111"/>
<path d="M703.5,165.3V187" class="g2_111"/>
<path d="M703.5,161.6l1.8,4.8l-1.8,-1.1l-1.9,1.1Z" class="g3_111"/>
<path d="M703.5,204.2v22.1" class="g2_111"/>
<path d="M703.5,230l-1.9,-4.8l1.9,1.1l1.8,-1.1Z" class="g3_111"/>
<path d="M729.6,165.4v17.2" class="g2_111"/>
<path d="M729.6,161.7l1.9,4.8l-1.9,-1.1l-1.8,1.1Z" class="g3_111"/>
<path d="M729.6,199.9V219" class="g2_111"/>
<path d="M729.6,222.6l-1.9,-4.8l1.9,1.2l1.8,-1.2Z" class="g3_111"/>
<path d="M753.3,170.6v17.2" class="g2_111"/>
<path d="M753.3,166.9l1.9,4.8l-1.9,-1.1l-1.8,1.1Z" class="g3_111"/>
<path d="M753.3,206.4v19.1" class="g2_111"/>
<path d="M753.3,229.2l-1.8,-4.8l1.8,1.1l1.8,-1.1Z" class="g3_111"/>
<path d="M777,182.4v17.3" class="g2_111"/>
<path d="M777,178.8l1.9,4.8L777,182.4l-1.8,1.2Z" class="g3_111"/>
<path d="M777,218.3v17.6" class="g2_111"/>
<path d="M777,239.6l-1.8,-4.9l1.8,1.2l1.8,-1.2Z" class="g3_111"/>
<path d="M587.4,335.9h55v26h-55Zm55,0h55v26h-55Zm55,0h6.2v26h-6.2Zm6.2,0h55v26h-55Zm55,0h55v26h-55Z" class="g4_111"/>
<path d="M642.4,361.5V336.3m55,25.2V336.3m61.2,25.2V336.3M587.4,381.7V362.3m55,19.4V362.3m55,19.4V362.3m6.2,19.4V362.3m55,19.4V362.3m55,19.4V362.3M587.4,401.6V381.7m55,19.9V381.7m55,19.9V381.7m6.2,19.9V381.7m55,19.9V381.7m55,19.9V381.7M587.4,421.5V401.6m55,19.9V401.6m55,19.9V401.6m6.2,19.9V401.6m55,19.9V401.6m55,19.9V401.6M587.4,441.3V421.5m55,19.8V421.5m55,19.8V421.5m6.2,19.8V421.5m55,19.8V421.5m55,19.8V421.5M587.4,462.3v-21m55,21v-21m55,21v-21m6.2,21v-21m55,21v-21M587.1,361.9h55.3m0,0h55m6.2,0h55m0,0h55.3M587.1,462.7h55.3m0,0h55m6.2,-101.2V336.3m-116.5,-.4h55.3m0,0h55m0,0h6.2m0,0h55m0,0h55.3m-116.5,26h6.2m-116.2,-.4V336.3m226.2,25.2V336.3m0,126v-21M697.4,462.7h6.2m0,0h55m0,0h55.3" class="g5_111"/>
<path d="M587.4,571.9h55v26h-55Zm55,0h55v26h-55Zm55,0h6.2v26h-6.2Zm6.2,0h55v26h-55Zm55,0h55v26h-55Z" class="g4_111"/>
<path d="M642.4,597.5V572.3m55,25.2V572.3m61.2,25.2V572.3M642.4,617.8V598.3m55,19.5V598.3m6.2,19.5V598.3m55,19.5V598.3m55,19.5V598.3M642.4,637.6V617.8m55,19.8V617.8m6.2,19.8V617.8m55,19.8V617.8m55,19.8V617.8M642.4,657.5V637.6m55,19.9V637.6m6.2,19.9V637.6m55,19.9V637.6m55,19.9V637.6M642.4,677.4V657.5m55,19.9V657.5m6.2,19.9V657.5m55,19.9V657.5m55,19.9V657.5M642.4,698.4v-21m55,21v-21m6.2,21v-21m55,21v-21M642.4,597.9h55m6.2,0h55m0,0h55.3m-110.3,-.4V572.3M587.4,617.8V598.3m0,39.3V617.8m0,39.7V637.6m0,39.8V657.5m-.3,-85.6h55.3m0,0h55m0,0h6.2m0,0h55m0,0h55.3m-226.8,26h55.3m55,0h6.2m-116.2,-.4V572.3m226.2,25.2V572.3M587.4,698.4v-21m226.2,21v-21M587.1,698.7h55.3m0,0h55m0,0h6.2m0,0h55m0,0h55.3" class="g5_111"/>
<path d="M548.8,848.8V952.7m14,-103.9V952.7M576.5,848.8V952.7M590.3,848.8V952.7M604,848.8V952.7M617.8,848.8V952.7M630.7,848.8V952.7M644.5,848.8V952.7M658.2,848.8V952.7M672,848.8V952.7M685.7,848.8V952.7m13,-103.9V952.7M712.5,848.8V952.7m0,-103.9V952.7M726.2,848.8V952.7M740,848.8V952.7M753.7,848.8V952.7M767.5,848.8V952.7m13,-103.9V952.7M794.2,848.8V952.7M808,848.8V952.7M821.5,848.8V952.7M835.3,848.8V952.7M849,848.8V952.7M862.6,848.8V952.7M536.1,933.1H862.6M536.1,916.3H862.6M536.1,899.5H862.6M536.1,882.7H862.6M536.1,865.9H862.6M536.1,849.1H862.6" class="g6_111"/>
<path d="M513.2,953H874.1" class="g7_111"/>
<path d="M533.8,933.1h4.6m-4.6,-16.8h4.6m-4.6,-16.8h4.6m-4.6,-16.8h4.6m-4.6,-16.8h4.6" class="g8_111"/>
<path d="M536.1,849.1H862.6" class="g6_111"/>
<path d="M533.8,849.1h4.6" class="g8_111"/>
<path d="M548.8,950.7v4.5m14,-4.5v4.5m13.7,-4.5v4.5" class="g7_111"/>
<path d="M590.3,950v6" class="g9_111"/>
<path d="M604,950.7v4.5m13.8,-4.5v4.5m12.9,-4.5v4.5" class="g7_111"/>
<path d="M644.5,950v6" class="g9_111"/>
<path d="M658.2,950.7v4.5M672,950.7v4.5m13.7,-4.5v4.5" class="g7_111"/>
<path d="M698.7,950v6" class="g9_111"/>
<path d="M712.5,950.7v4.5m0,-4.5v4.5m13.7,-4.5v4.5M740,950.7v4.5" class="g7_111"/>
<path d="M753.7,950v6" class="g9_111"/>
<path d="M767.5,950.7v4.5m13,-4.5v4.5m13.7,-4.5v4.5" class="g7_111"/>
<path d="M808,950v6m0,-6v6" class="g9_111"/>
<path d="M821.5,950.7v4.5m13.8,-4.5v4.5M849,950.7v4.5" class="g7_111"/>
<path d="M862.8,950v6" class="g9_111"/>
<path fill-rule="evenodd" d="M873.6,952.9L872,950.6l6.5,2.3l-6.5,2.4Z" class="g3_111"/>
<path d="M536,970.9V946.2m0,-3.2V826.9" class="ga_111"/>
<path d="M532.3,945l8.1,-4.2m-8.1,7.1l8.1,-4.1" class="gb_111"/>
<path d="M535.7,894.3c9.2,.4,13.8,1.5,18.7,3c4.3,1.4,22,.1,22,.1c0,0,8.6,1.8,13.5,3.7c5,2,17.1,10.4,23.7,10.4c7.7,0,14.9,-10.7,18.7,-13c3.9,-2.3,10,-5,12.6,-6.5c2.7,-1.6,8.4,-3.8,12.6,-7.3c4.2,-3.4,10.7,-6.5,13,-8c2.3,-1.5,12.6,-5.3,18.7,-7.6c6.2,-2.3,18,-4.6,23,-6.2c4.9,-1.5,10.7,-2.2,14.1,-4.9c3.4,-2.7,10.3,-3.8,13,-4.6c2.6,-.8,21.7,-3.1,28.6,1.5c6.9,4.6,7.7,7.7,11.1,9.2c3.4,1.5,27.5,-.4,29,0c3,.8,5.8,2.3,13,8.8c7.3,6.5,11.5,1.9,13.8,4.9c2.3,3.1,8.4,6.5,12.9,9.2c4.6,2.7,13.4,3.8,14.9,3.8" class="gc_111"/>
<path fill-rule="evenodd" d="M536,831.5l-2.4,1.6l2.4,-6.5l2.3,6.5Z" class="g3_111"/>
<path d="M129.9,643.7H484.3M129.9,811.8H484.3" class="gd_111"/>
<path d="M379.7,461.8h40.4M371.8,616.7h15.8M371.8,783.3h23.8M384,786.9h9.5" class="ge_111"/>
<path d="M198.3,998.8V962.5c0,0,18.9,18.1,36.3,18.1c32.7,0,39.5,-72.6,72.5,-72.6c29.6,0,44.2,36.3,72.7,36.3c22.7,0,36.3,-18.1,36.3,-18.1v72.6Z" class="g0_111"/>
<path d="M198.3,998.8V889.9m236,108.9V889.9M361.7,998.8V889.9M343.5,998.8V889.9M325.4,998.8V889.9M307.2,998.8V889.9M289.1,998.8V889.9M270.9,998.8V889.9M252.8,998.8V889.9M234.6,998.8V889.9M216.5,998.8V889.9m-18.2,0h236M198.3,908h236m-236,18.2h236m-236,18.1h236m-236,18.2h236m-236,18.1h236" class="gf_111"/>
<path d="M174.1,998.8H429.8" class="gg_111"/>
<path fill-rule="evenodd" d="M429.8,998.8l-1.6,-2.4l6.5,2.4l-6.5,2.4Z" class="g3_111"/>
<path d="M379.8,998.8V889.9M398,998.8V889.9m18.1,108.9V889.9" class="gf_111"/>
<path clip-path="url(#c1_111)" d="M198.3,1023V894.4" class="gg_111"/>
<path fill-rule="evenodd" d="M198.3,894.4l-2.4,1.6l2.4,-6.4l2.5,6.4Z" class="g3_111"/>
<path d="M439.3,889.6V1000" class="gh_111"/>
<path d="M198.3,962.5c8.2,8.2,23.9,18.1,36.3,18.1c17.7,0,30.6,-26.8,36.3,-36.3C278.1,932.4,287.3,908,307.2,908c11.1,0,26.4,8.1,36.3,18.2c10.8,11,27.3,18.1,36.3,18.1c16.6,0,27.9,-9.7,36.3,-18.1" class="gi_111"/>
<path d="M108.9,108.6h15.6V98.8H108.9v9.8Z" class="gj_111"/>
<path d="M108.9,475.3h15.6v-9.8H108.9v9.8Z" class="gj_111"/>
</svg>