<?xml version="1.0" encoding="UTF-8" standalone="no"?>
<!DOCTYPE svg PUBLIC "-//W3C//DTD SVG 1.1//EN"
"http://www.w3.org/Graphics/SVG/1.1/DTD/svg11.dtd">
<svg viewBox="0 0 811 1017" version="1.1" xmlns="http://www.w3.org/2000/svg" xmlns:xlink="http://www.w3.org/1999/xlink">
<defs>
<style type="text/css"><![CDATA[
.g0_94{
fill: #224867;
}
.g1_94{
fill: #000;
}
]]></style>
</defs>
<path d="M156.1,758.3H724.4V736.4H156.1v21.9Z" class="g0_94"/>
<path d="M570.7,813.2v3.2l-.3,-.1l-6.2,-2.9l-.4,-.2l.4,-.2l6.2,-2.9l.3,-.1v.3l-.1,.1l-6.3,3l-.1,-.4h.1l6.3,3l-.2,.3v-3.1Z" class="g1_94"/>
<path d="M570.4,813.2h.3v-2.9h-.3v2.9Z" class="g1_94"/>
<path d="M570.7,813.4h28V813h-28v.4Z" class="g1_94"/>
<path d="M598.3,813.2h.4V786.3h-.4v26.9Z" class="g1_94"/>
<path d="M516.3,874.3v3.2l-.3,-.1l-6.2,-2.9l-.5,-.2l.5,-.2l6.2,-2.9l.3,-.1v.3l-.1,.1l-6.3,3l-.1,-.4h.1l6.3,3l-.2,.3l-.1,-.1v-3Z" class="g1_94"/>
<path d="M515.9,874.3h.4v-2.9h-.4v2.9Z" class="g1_94"/>
<path d="M516.3,874.5h27.9v-.4H516.3v.4Z" class="g1_94"/>
<path d="M543.9,874.3h.3V847.5h-.3v26.8Z" class="g1_94"/>
<image preserveAspectRatio="none" x="203" y="990" width="405" height="28" xlink:href="img/1.jpg"/>
</svg>