<?xml version="1.0" encoding="UTF-8" standalone="no"?>
<!DOCTYPE svg PUBLIC "-//W3C//DTD SVG 1.1//EN"
"http://www.w3.org/Graphics/SVG/1.1/DTD/svg11.dtd">
<svg viewBox="0 0 907 1045" version="1.1" xmlns="http://www.w3.org/2000/svg" xmlns:xlink="http://www.w3.org/1999/xlink">
<defs>
<clipPath id="c0_544"><path d="M-2.6,1047.7V-2.6H910.2V1047.7Z"/></clipPath>
<style type="text/css"><![CDATA[
.g0_544{
fill: #B8B8B8;
}
.g1_544{
fill: none;
stroke: #000000;
stroke-width: 1.675;
stroke-linecap: butt;
stroke-linejoin: miter;
stroke-miterlimit: 4;
}
.g2_544{
fill: none;
stroke: #636363;
stroke-width: 1.527;
stroke-linecap: butt;
stroke-linejoin: miter;
stroke-miterlimit: 4;
}
.g3_544{
fill: none;
stroke: #636363;
stroke-width: 1.501;
stroke-linecap: butt;
stroke-linejoin: miter;
stroke-miterlimit: 4;
}
.g4_544{
fill: none;
stroke: #FFFFFF;
stroke-width: 1.909;
stroke-linecap: butt;
stroke-linejoin: miter;
}
.g5_544{
fill: none;
stroke: #000000;
stroke-width: 0.381;
stroke-linecap: butt;
stroke-linejoin: miter;
}
]]></style>
</defs>
<path d="M102.2,188.6c5.4,0,9.8,-4.4,9.8,-9.8c0,-5.4,-4.4,-9.8,-9.8,-9.8c-5.4,0,-9.8,4.4,-9.8,9.8c0,5.4,4.4,9.8,9.8,9.8Z" class="g0_544"/>
<path d="M102.2,188.6c5.4,0,9.8,-4.4,9.8,-9.8c0,-5.4,-4.4,-9.8,-9.8,-9.8c-5.4,0,-9.8,4.4,-9.8,9.8c0,5.4,4.4,9.8,9.8,9.8Z" class="g1_544"/>
<path d="M479.7,384.3c5.4,5.2,7.9,12.5,9.5,19.6c.7,3,.4,5.9,1.1,8.9c.3,1.5,.4,2.6,.5,4.2c-1,-1.9,-3,-4.5,-4.7,-5.6c.6,1.3,1.8,4.2,3.6,4.1c1.3,-.1,2.9,-2.4,3.7,-3.1c1.3,-1.2,3.7,-2.2,4.3,-3.8m75.6,-5.4c-9.3,-4.3,-13.2,8.9,-11,15.9c1.9,6.2,5.4,11.6,6.2,18.2c.5,5.4,.2,12.3,-3.8,16.2c-3.1,3.1,-7.5,4.8,-11.8,5.3c-4.5,.5,-8.8,-.9,-13.3,-1c-5.5,-.1,-11,-1.4,-16.4,-2.1c1.4,-.6,2.8,-1.2,4.1,-2.1c1.3,-.9,2.8,-2.6,4.2,-2.8c-2.1,3.4,-7.4,4.6,-10.3,7.3c-1.3,1.1,-3,1.9,-1.3,3.1c2.8,1.9,9.3,.9,12.6,.9m83.6,14.2c-13.6,3.9,-28.6,4.2,-42.7,4.3c-6.1,0,-12.1,-.6,-18.2,-.6c-6.7,.1,-13.1,-.9,-19.7,-1.5c-4.8,-.3,-9.5,0,-14.3,-1.1c-3.8,-.9,-7.5,-2.1,-11.4,-2.5c-5.5,-.7,-12.4,-.7,-17.4,-3.4c.1,-1.7,4,-3.6,5.1,-4.6c-2.1,.2,-4.6,1.9,-6.3,2.9c-1.3,.8,-5.1,3.1,-5.6,4.9c-.4,1.7,.2,1.7,1.8,2.3c3,1,7,2.1,10.3,2m121.6,65c-5.9,-8.6,-17.7,-13,-27.4,-15.6c-5.3,-1.3,-10.8,-2,-16.1,-3.3c-6,-1.6,-12.2,-2.4,-18.4,-3.4c-7.1,-1.2,-14.1,-3.3,-20.9,-5.3c-2.8,-.8,-5.5,-1.2,-8.3,-2c-1.4,-.3,-2.6,-.9,-4.1,-1.1c-1,-.1,-1.7,.2,-2.7,-.3c3.3,-2.3,8.8,-3.5,12.8,-3.9c-2.5,.7,-5,1.4,-7.4,2.5c-4.3,1.8,-6.8,3.4,-9.6,6.9c2.8,1.3,19.8,1.7,18.8,4.4m-78.5,65.9c-7.2,-.3,-14.4,-2.3,-21.6,-2.5c-7.7,-.2,-15.1,-1,-22.9,-1c-2.3,0,-4.7,0,-7,0c-4.1,0,-7.4,-1.1,-11.4,-1.5c-2.6,-.3,-5.6,.5,-7.9,-.7c.6,-2.5,6.9,-2.9,8.5,-4.7c-3.3,2.8,-8.2,3.7,-11.2,6.8c1.9,.1,11.1,1.9,10.5,3.6m75.7,53.1c-1.7,-.8,-3.3,-1.3,-5,-2c-3.4,-1.2,-6.5,-3.3,-9.9,-4.6c-7.1,-2.8,-12.6,-7,-18.8,-11.2c-4.2,-2.8,-8.1,-6.2,-12.8,-8.1c-2.8,-1.2,-5.7,-1.9,-8.5,-3c-2.4,-1.1,-4.6,-2.7,-7.1,-3.5c-4.1,-1.2,-8.5,-.8,-12.5,-2.1c-3,-1,-5.1,-2.2,-8.3,-2.6c-2,-.2,-4,-.6,-6,-.9c-1.4,-.2,-2.9,.2,-4.2,-.2c-2.1,-.6,-4.1,-1.5,-6.3,-1.6c2.7,-2.8,7.6,-3.6,10.9,-5.6c-1.7,.8,-3.6,1.3,-5.4,2c-2.5,.8,-5,2.9,-7.6,3.3c.1,.5,.6,.9,.9,1.3c.5,.2,1,.4,1.5,.6c1.1,.9,1.6,2,2.2,3.2c1,1.8,1.8,4.3,3.8,5.3" class="g2_544"/>
<path d="M467.3,718.4c-2.1,-.5,-3.2,-2.4,-4.6,-3.8c-3.1,-3.1,-6.4,-5.9,-8.1,-10.1c-1.1,-2.6,-1.2,-5.2,-1.5,-7.9c-.4,-3.7,-2.1,-7.1,-4,-10.2c-2.3,-3.9,-5.7,-8.1,-9.5,-10.6c-2.7,-1.9,-5.3,-2.3,-8.3,-3.3c2.3,-1.1,5.8,-1.3,8.3,-1.9c-2.4,.6,-4.9,.8,-7.3,1.3c-3.3,.7,-6.8,.6,-10.1,1.4c.5,1.1,2.5,1,3.6,1.6c2.3,1.3,5.2,4.7,4.7,7.5" class="g3_544"/>
<path d="M271.1,380.4c7.4,4.5,14.7,10.9,15.5,20.1c.5,4.7,.9,11.6,-.2,16.2c-2.1,-.7,-2.8,-3,-4.7,-3.7c2.3,1.7,5.2,3.2,5.1,6.4c2.2,-2.2,8.3,-5,8.8,-7.6" class="g2_544"/>
<g clip-path="url(#c0_544)">
<path d="M-4.5,13.7H-27.4m939.5,0H935M-4.5,1031.2H-27.4m939.5,0H935M13.7,-4.5V-27.4m0,1077v22.9m880,-1077V-27.4m0,1077v22.9" class="g4_544"/>
<path d="M-4.5,13.7H-27.4m939.5,0H935M-4.5,1031.2H-27.4m939.5,0H935M13.7,-4.5V-27.4m0,1077v22.9m880,-1077V-27.4m0,1077v22.9" class="g5_544"/>
</g>
</svg>