<?xml version="1.0" encoding="UTF-8" standalone="no"?>
<!DOCTYPE svg PUBLIC "-//W3C//DTD SVG 1.1//EN"
"http://www.w3.org/Graphics/SVG/1.1/DTD/svg11.dtd">
<svg viewBox="0 0 660 990" version="1.1" xmlns="http://www.w3.org/2000/svg" xmlns:xlink="http://www.w3.org/1999/xlink">
<defs>
<clipPath id="c0_159"><path d="M86.9,179.1l-1.2,-2.4l-1.2,-2.3H576.2l-1.1,2.3l-1.2,2.4Z"/></clipPath>
<clipPath id="c1_159"><path d="M577.3,552.4L575,551.3l-2.4,-1.2V177.8l2.4,-1.2l2.3,-1.2v377Z"/></clipPath>
<clipPath id="c2_159"><path d="M84.5,553.5l1.2,-2.3l1.2,-2.4h487l1.2,2.4l1.1,2.3Z"/></clipPath>
<clipPath id="c3_159"><path d="M83.5,552.4v-377l2.3,1.2l2.4,1.2V550.1l-2.4,1.2l-2.3,1.1Z"/></clipPath>
<clipPath id="c4_159"><path d="M85.6,915.9v-5.1H574.4v5.1Z"/></clipPath>
<style type="text/css"><![CDATA[
.g0_159{
fill: none;
stroke: #231F20;
stroke-width: 0.381;
stroke-linecap: round;
stroke-linejoin: miter;
}
.g1_159{
fill: #FFFFFF;
}
.g2_159{
fill: #231F20;
}
.g3_159{
fill: none;
stroke: #231F20;
stroke-width: 0.763;
stroke-linecap: round;
stroke-linejoin: miter;
}
]]></style>
</defs>
<path clip-path="url(#c0_159)" d="M85.6,176.7H575.1" class="g0_159"/>
<path clip-path="url(#c1_159)" d="M575,176.5V551.4" class="g0_159"/>
<path clip-path="url(#c2_159)" d="M575.1,551.2H85.6" class="g0_159"/>
<path clip-path="url(#c3_159)" d="M85.8,551.4V176.5" class="g0_159"/>
<path fill-rule="evenodd" d="M597.3,913H660v77H597.3V913Z" class="g1_159"/>
<path fill-rule="evenodd" d="M597.3,539H660v92.4H597.3V539Z" class="g2_159"/>
<path fill-rule="evenodd" d="M597.3,0H660V77H597.3V0Z" class="g1_159"/>
<path clip-path="url(#c4_159)" d="M85.6,913.4H574.4" class="g3_159"/>
<image preserveAspectRatio="none" x="94" y="185" width="473" height="357" xlink:href="img/1.jpg"/>
</svg>