<?xml version="1.0" encoding="UTF-8" standalone="no"?>
<!DOCTYPE svg PUBLIC "-//W3C//DTD SVG 1.1//EN"
"http://www.w3.org/Graphics/SVG/1.1/DTD/svg11.dtd">
<svg viewBox="0 0 770 1017" version="1.1" xmlns="http://www.w3.org/2000/svg" xmlns:xlink="http://www.w3.org/1999/xlink">
<defs>
<clipPath id="c0_466"><path d="M479.8,176.1l5.5,-16.7L478.4,157l-5.6,16.8L481,161l-1.2,15.1ZM408.1,338.4v-236h286v236Z"/></clipPath>
<clipPath id="c1_466"><path d="M462.8,244.7l-3.3,-14.8l9.8,11.5l-7.9,-15.9l-6.5,3.4l7.9,15.8Zm-54.7,93.7v-236h286v236Z"/></clipPath>
<clipPath id="c2_466"><path d="M511.1,308.3L497.4,302l15.1,-1l-17.4,-3.2l-1.3,7.2l17.3,3.3Zm-103,30.1v-236h286v236Z"/></clipPath>
<clipPath id="c3_466"><path d="M652.7,261.6l7.3,-1l-2.5,-17.5L656,258.2l-5.8,-14.1l2.5,17.5ZM408.1,338.4v-236h286v236Z"/></clipPath>
<clipPath id="c4_466"><path d="M641.6,167.4l3.3,-6.6l-15.8,-7.9l11.5,9.9l-14.8,-3.3l15.8,7.9Zm-233.5,171v-236h286v236Z"/></clipPath>
<clipPath id="c5_466"><path d="M546.1,132.8l16,-7.6L559,118.6l-16,7.5l14.9,-2.9l-11.8,9.6Zm-138,205.6v-236h286v236Z"/></clipPath>
<clipPath id="c6_466"><path d="M593.7,323.3l12.9,-12.1l-13.2,7.4l8.3,-12.8l-13,12.1l5,5.4ZM408.1,338.4v-236h286v236Z"/></clipPath>
<style type="text/css"><![CDATA[
.g0_466{
fill: none;
stroke: #000000;
stroke-width: 0.618;
stroke-linecap: butt;
stroke-linejoin: miter;
}
.g1_466{
fill: none;
stroke: #FFFFFF;
stroke-width: 1.339;
stroke-linecap: butt;
stroke-linejoin: miter;
}
.g2_466{
fill: none;
stroke: #000000;
stroke-width: 0.919;
stroke-linecap: butt;
stroke-linejoin: miter;
}
.g3_466{
stroke: #000000;
stroke-width: 0.919;
stroke-linecap: butt;
stroke-linejoin: miter;
}
]]></style>
</defs>
<path d="M56,69.2H695.2" class="g0_466"/>
<path d="M77.7,229H64.3v26.8H77.7V229Zm268.1,0H332.4v26.8h13.4V229ZM225.2,322.9H198.4v13.4h26.8V322.9Z" class="g1_466"/>
<path d="M380.7,338.4v-236" class="g0_466"/>
<path clip-path="url(#c0_466)" d="M458.6,228.1l23,-69" class="g2_466"/>
<path d="M479.8,176.1L481,161l-8.2,12.8" class="g2_466"/>
<path clip-path="url(#c1_466)" d="M495.4,301.6L458.6,228.1" class="g2_466"/>
<path d="M469.3,241.4l-9.8,-11.5l3.3,14.8" class="g2_466"/>
<path clip-path="url(#c2_466)" d="M591.9,320L495.4,301.6" class="g2_466"/>
<path d="M512.5,301l-15.1,1l13.7,6.3" class="g2_466"/>
<path clip-path="url(#c3_466)" d="M642.5,163.7l13.8,96.5" class="g2_466"/>
<path d="M650.2,244.1l5.8,14.1l1.5,-15.1" class="g2_466"/>
<path clip-path="url(#c4_466)" d="M559.7,122.3l82.8,41.4" class="g2_466"/>
<path d="M625.8,159.5l14.8,3.3l-11.5,-9.9" class="g2_466"/>
<path clip-path="url(#c5_466)" d="M481.6,159.1l78.1,-36.8" class="g2_466"/>
<path d="M546.1,132.8l11.8,-9.6L543,126.1" class="g2_466"/>
<path clip-path="url(#c6_466)" d="M656.3,260.2L591.9,320" class="g2_466"/>
<path d="M601.7,305.8l-8.3,12.8l13.2,-7.4" class="g2_466"/>
<path fill-rule="evenodd" d="M564.3,122.3c0,2.6,-2,4.6,-4.6,4.6c-2.5,0,-4.6,-2,-4.6,-4.6c0,-2.5,2.1,-4.6,4.6,-4.6c2.6,0,4.6,2.1,4.6,4.6Z" class="g3_466"/>
<path fill-rule="evenodd" d="M660.9,260.2c0,2.6,-2.1,4.6,-4.6,4.6c-2.6,0,-4.6,-2,-4.6,-4.6c0,-2.5,2,-4.6,4.6,-4.6c2.5,0,4.6,2.1,4.6,4.6Z" class="g3_466"/>
<path fill-rule="evenodd" d="M596.5,320c0,2.5,-2,4.6,-4.6,4.6c-2.5,0,-4.6,-2.1,-4.6,-4.6c0,-2.6,2.1,-4.6,4.6,-4.6c2.6,0,4.6,2,4.6,4.6Z" class="g3_466"/>
<path fill-rule="evenodd" d="M647.1,163.7c0,2.5,-2.1,4.6,-4.6,4.6c-2.6,0,-4.6,-2.1,-4.6,-4.6c0,-2.5,2,-4.6,4.6,-4.6c2.5,0,4.6,2.1,4.6,4.6Z" class="g3_466"/>
<path fill-rule="evenodd" d="M500,301.6c0,2.5,-2.1,4.6,-4.6,4.6c-2.5,0,-4.6,-2.1,-4.6,-4.6c0,-2.5,2.1,-4.6,4.6,-4.6c2.5,0,4.6,2.1,4.6,4.6Z" class="g3_466"/>
<path fill-rule="evenodd" d="M463.2,228c0,2.6,-2.1,4.6,-4.6,4.6c-2.5,0,-4.6,-2,-4.6,-4.6c0,-2.5,2.1,-4.6,4.6,-4.6c2.5,0,4.6,2.1,4.6,4.6Z" class="g3_466"/>
<path fill-rule="evenodd" d="M486.2,159.1c0,2.5,-2.1,4.6,-4.6,4.6c-2.5,0,-4.6,-2.1,-4.6,-4.6c0,-2.5,2.1,-4.6,4.6,-4.6c2.5,0,4.6,2.1,4.6,4.6Z" class="g3_466"/>
<path d="M65.1,364.7h621" class="g0_466"/>
</svg>