<?xml version="1.0" encoding="UTF-8" standalone="no"?>
<!DOCTYPE svg PUBLIC "-//W3C//DTD SVG 1.1//EN"
"http://www.w3.org/Graphics/SVG/1.1/DTD/svg11.dtd">
<svg viewBox="0 0 907 1045" version="1.1" xmlns="http://www.w3.org/2000/svg" xmlns:xlink="http://www.w3.org/1999/xlink">
<defs>
<clipPath id="c0_20"><path d="M333.7,580.8L297.7,570l13.7,-45.8l36,10.7l-13.7,45.9Z"/></clipPath>
<clipPath id="c1_20"><path d="M116.8,566.7L112,532.9l27.1,-3.8l4.8,33.7l-27.1,3.9Z"/></clipPath>
<style type="text/css"><![CDATA[
.g0_20{
}
.g1_20{
fill: none;
stroke: #000000;
stroke-width: 0.531;
stroke-linecap: butt;
stroke-linejoin: miter;
stroke-miterlimit: 4;
}
.g2_20{
fill: none;
stroke: #000000;
stroke-width: 0.486;
stroke-linecap: butt;
stroke-linejoin: miter;
stroke-miterlimit: 4;
}
.g3_20{
fill: none;
stroke: #000000;
stroke-width: 0.594;
stroke-linecap: butt;
stroke-linejoin: miter;
stroke-miterlimit: 4;
}
.g4_20{
fill: none;
stroke: #636363;
stroke-width: 0.599;
stroke-linecap: butt;
stroke-linejoin: miter;
stroke-miterlimit: 4;
}
.g5_20{
fill: none;
stroke: #000000;
stroke-width: 0.586;
stroke-linecap: butt;
stroke-linejoin: miter;
stroke-miterlimit: 4;
}
.g6_20{
fill: none;
stroke: #000000;
stroke-width: 0.57;
stroke-linecap: butt;
stroke-linejoin: miter;
stroke-miterlimit: 4;
}
.g7_20{
fill: none;
stroke: #0D0D0D;
stroke-width: 0.599;
stroke-linecap: butt;
stroke-linejoin: miter;
stroke-miterlimit: 4;
}
.g8_20{
fill: #0D0D0D;
}
.g9_20{
fill: none;
stroke: #FFFFFF;
stroke-width: 1.909;
stroke-linecap: butt;
stroke-linejoin: miter;
}
.ga_20{
fill: none;
stroke: #000000;
stroke-width: 0.381;
stroke-linecap: butt;
stroke-linejoin: miter;
}
]]></style>
</defs>
<path d="M112,414.4c1.8,-.2,3,-1.7,2.8,-3.5c-.2,-1.7,-1.7,-2.9,-3.4,-2.7c-1.7,.2,-3,1.7,-2.8,3.4c.2,1.7,1.7,3,3.4,2.8Z" class="g0_20"/>
<path d="M112,414.4c1.8,-.2,3,-1.7,2.8,-3.5c-.2,-1.7,-1.7,-2.9,-3.4,-2.7c-1.7,.2,-3,1.7,-2.8,3.4c.2,1.7,1.7,3,3.4,2.8Z" class="g1_20"/>
<path d="M113.4,427.3c1.7,-.2,3,-1.8,2.8,-3.5c-.2,-1.7,-1.7,-2.9,-3.4,-2.7c-1.8,.1,-3,1.7,-2.8,3.4c.2,1.7,1.7,2.9,3.4,2.8Z" class="g0_20"/>
<path d="M113.4,427.3c1.7,-.2,3,-1.8,2.8,-3.5c-.2,-1.7,-1.7,-2.9,-3.4,-2.7c-1.8,.1,-3,1.7,-2.8,3.4c.2,1.7,1.7,2.9,3.4,2.8Z" class="g1_20"/>
<path d="M114.8,440.1c1.7,-.1,2.9,-1.7,2.7,-3.4c-.1,-1.7,-1.7,-2.9,-3.4,-2.8c-1.7,.2,-2.9,1.8,-2.8,3.5c.2,1.7,1.8,2.9,3.5,2.7Z" class="g0_20"/>
<path d="M114.8,440.1c1.7,-.1,2.9,-1.7,2.7,-3.4c-.1,-1.7,-1.7,-2.9,-3.4,-2.8c-1.7,.2,-2.9,1.8,-2.8,3.5c.2,1.7,1.8,2.9,3.5,2.7Z" class="g1_20"/>
<path d="M116.1,453c1.7,-.2,3,-1.7,2.8,-3.4c-.2,-1.7,-1.7,-3,-3.4,-2.8c-1.7,.2,-3,1.7,-2.8,3.5c.2,1.7,1.7,2.9,3.4,2.7Z" class="g0_20"/>
<path d="M116.1,453c1.7,-.2,3,-1.7,2.8,-3.4c-.2,-1.7,-1.7,-3,-3.4,-2.8c-1.7,.2,-3,1.7,-2.8,3.5c.2,1.7,1.7,2.9,3.4,2.7Z" class="g1_20"/>
<path d="M285.9,407.8c1.6,.3,3.1,-.8,3.4,-2.3c.2,-1.6,-.8,-3.1,-2.4,-3.4c-1.6,-.3,-3.1,.8,-3.3,2.4c-.3,1.5,.8,3,2.3,3.3Z" class="g0_20"/>
<path d="M285.9,407.8c1.6,.3,3.1,-.8,3.4,-2.3c.2,-1.6,-.8,-3.1,-2.4,-3.4c-1.6,-.3,-3.1,.8,-3.3,2.4c-.3,1.5,.8,3,2.3,3.3Z" class="g2_20"/>
<path d="M283.9,419.6c1.5,.3,3,-.8,3.3,-2.3c.3,-1.6,-.8,-3.1,-2.3,-3.4c-1.6,-.3,-3.1,.8,-3.4,2.4c-.3,1.5,.8,3,2.4,3.3Z" class="g0_20"/>
<path d="M283.9,419.6c1.5,.3,3,-.8,3.3,-2.3c.3,-1.6,-.8,-3.1,-2.3,-3.4c-1.6,-.3,-3.1,.8,-3.4,2.4c-.3,1.5,.8,3,2.4,3.3Z" class="g2_20"/>
<path d="M281.8,431.4c1.6,.3,3.1,-.8,3.3,-2.3c.3,-1.6,-.7,-3.1,-2.3,-3.4c-1.6,-.3,-3.1,.8,-3.3,2.4c-.3,1.5,.7,3,2.3,3.3Z" class="g0_20"/>
<path d="M281.8,431.4c1.6,.3,3.1,-.8,3.3,-2.3c.3,-1.6,-.7,-3.1,-2.3,-3.4c-1.6,-.3,-3.1,.8,-3.3,2.4c-.3,1.5,.7,3,2.3,3.3Z" class="g2_20"/>
<path d="M279.8,443.2c1.5,.3,3,-.8,3.3,-2.4c.3,-1.5,-.8,-3,-2.4,-3.3c-1.5,-.3,-3,.8,-3.3,2.4c-.3,1.5,.8,3,2.4,3.3Z" class="g0_20"/>
<path d="M279.8,443.2c1.5,.3,3,-.8,3.3,-2.4c.3,-1.5,-.8,-3,-2.4,-3.3c-1.5,-.3,-3,.8,-3.3,2.4c-.3,1.5,.8,3,2.4,3.3Z" class="g2_20"/>
<image clip-path="url(#c0_20)" preserveAspectRatio="none" x="298" y="524" width="50" height="57" xlink:href="img/1.png"/>
<image clip-path="url(#c1_20)" preserveAspectRatio="none" x="112" y="529" width="32" height="38" xlink:href="img/2.png"/>
<path d="M97.3,580.8c2,.2,3.6,-1.3,3.7,-3.2c.1,-1.9,-1.3,-3.6,-3.3,-3.7c-1.9,-.1,-3.5,1.4,-3.6,3.3c-.1,1.9,1.3,3.5,3.2,3.6Z" class="g0_20"/>
<path d="M97.4,580.8c1.9,.2,3.5,-1.3,3.6,-3.2c.1,-1.9,-1.3,-3.6,-3.3,-3.7c-1.9,-.1,-3.5,1.4,-3.6,3.3c-.1,1.9,1.3,3.5,3.3,3.6Z" class="g3_20"/>
<path d="M96.5,595.3c1.9,.1,3.6,-1.4,3.7,-3.3c.1,-1.9,-1.4,-3.6,-3.3,-3.7c-1.9,-.1,-3.5,1.4,-3.6,3.3c-.2,1.9,1.3,3.6,3.2,3.7Z" class="g0_20"/>
<path d="M96.5,595.3c2,.1,3.6,-1.4,3.7,-3.3c.1,-1.9,-1.4,-3.6,-3.3,-3.7c-1.9,-.1,-3.5,1.4,-3.6,3.3c-.1,1.9,1.3,3.6,3.2,3.7Z" class="g3_20"/>
<path d="M105.9,540.7c-.6,.3,-.8,.6,-.8,1.2c0,.2,-.1,.6,0,.8c.2,.4,.6,.5,1,.7c.9,.4,2.2,.9,3.2,.7c.1,-.4,-.1,-.6,-.3,-.9c.5,.4,1.2,.7,1.8,.8c-.2,.1,-.4,.1,-.6,.2c-.3,.2,-.5,.5,-.8,.6M349.2,542c.3,.6,.4,1.2,.6,1.8c.2,.8,-.1,1.4,-.9,1.7c-1.2,.5,-3.1,0,-4.3,0c-.2,-.1,-2.1,-.3,-2.3,0c.8,-.1,1.8,-.5,2.2,-1.2c-.3,.1,-.6,.2,-.8,.4c-.3,.1,-1.5,.8,-1.4,1.2c.1,.4,.7,.3,.9,.3c.8,.1,1.6,.2,2.3,.7" class="g4_20"/>
<path d="M297.2,594.2c1.8,-.2,3.2,-1.9,3,-3.8c-.2,-1.8,-1.9,-3.2,-3.8,-3c-1.8,.2,-3.2,1.9,-3,3.8c.2,1.9,1.9,3.2,3.8,3Z" class="g0_20"/>
<path d="M297.2,594.2c1.9,-.2,3.2,-1.9,3,-3.8c-.2,-1.8,-1.9,-3.2,-3.8,-3c-1.8,.2,-3.2,1.9,-3,3.8c.2,1.9,1.9,3.2,3.8,3Z" class="g5_20"/>
<path d="M298.6,608.4c1.9,-.2,3.3,-1.9,3.1,-3.7c-.2,-1.9,-1.9,-3.3,-3.8,-3.1c-1.9,.2,-3.2,1.9,-3,3.8c.2,1.9,1.9,3.2,3.7,3Z" class="g0_20"/>
<path d="M298.6,608.4c1.9,-.2,3.3,-1.9,3.1,-3.7c-.2,-1.9,-1.9,-3.3,-3.8,-3.1c-1.9,.2,-3.2,1.9,-3,3.8c.2,1.9,1.9,3.2,3.7,3Z" class="g5_20"/>
<path d="M193.6,485.2c1.9,0,3.4,-1.5,3.4,-3.4c0,-1.8,-1.5,-3.3,-3.4,-3.3c-1.8,0,-3.3,1.5,-3.3,3.3c0,1.9,1.5,3.4,3.3,3.4Z" class="g0_20"/>
<path d="M193.6,485.2c1.9,0,3.4,-1.5,3.4,-3.4c0,-1.8,-1.5,-3.3,-3.4,-3.3c-1.8,0,-3.3,1.5,-3.3,3.3c0,1.9,1.5,3.4,3.3,3.4Z" class="g6_20"/>
<path d="M193.6,499c1.9,0,3.4,-1.5,3.4,-3.4c0,-1.8,-1.5,-3.3,-3.4,-3.3c-1.8,0,-3.3,1.5,-3.3,3.3c0,1.9,1.5,3.4,3.3,3.4Z" class="g0_20"/>
<path d="M193.6,499c1.9,0,3.4,-1.5,3.4,-3.3c0,-1.9,-1.5,-3.4,-3.4,-3.4c-1.8,0,-3.3,1.5,-3.3,3.4c0,1.8,1.5,3.3,3.3,3.3Z" class="g6_20"/>
<path d="M193.6,512.8c1.9,0,3.4,-1.5,3.4,-3.3c0,-1.9,-1.5,-3.4,-3.4,-3.4c-1.8,0,-3.3,1.5,-3.3,3.4c0,1.8,1.5,3.3,3.3,3.3Z" class="g0_20"/>
<path d="M193.6,512.8c1.9,0,3.4,-1.5,3.4,-3.3c0,-1.9,-1.5,-3.4,-3.4,-3.4c-1.8,0,-3.3,1.5,-3.3,3.4c0,1.8,1.5,3.3,3.3,3.3Z" class="g6_20"/>
<path d="M193.6,526.6c1.9,0,3.4,-1.5,3.4,-3.3c0,-1.8,-1.5,-3.3,-3.4,-3.3c-1.8,0,-3.3,1.5,-3.3,3.3c0,1.8,1.5,3.3,3.3,3.3Z" class="g0_20"/>
<path d="M193.6,526.6c1.9,0,3.4,-1.5,3.4,-3.3c0,-1.8,-1.5,-3.3,-3.4,-3.3c-1.8,0,-3.3,1.5,-3.3,3.3c0,1.8,1.5,3.3,3.3,3.3Z" class="g6_20"/>
<path d="M196.5,382.4c-2.6,0,-5.2,.6,-7.7,1.2c-1.4,.3,-2.8,.7,-4.2,1.3c-.5,.2,-.6,.4,-1.2,.2c.3,-.6,1.1,-.6,1.4,-1.4c-.8,.1,-1.6,1.1,-1.8,1.9c1.1,.1,2.3,.4,3.4,.3m74.4,-4.7c2.2,.6,4.6,.8,6.8,1.4c1.5,.4,4,1.2,5.4,.7c.1,-.8,-1,-1.6,-1.5,-2.1c.2,.4,.5,.8,.9,1.1c.1,.1,1.5,.9,1.6,1.1c.1,1.1,-2.6,1.8,-2.7,2.9m-39.4,41.5c0,1.2,.1,2.3,-.2,3.5c-.3,1.5,-.4,2.8,-.5,4.2c-.7,-.6,-1,-1.6,-1.8,-2.2c0,1.3,1.4,2,1.5,3.2c1.3,-.8,1.6,-2.4,2.7,-3.3" class="g4_20"/>
<path d="M116.6,461c0,0,-11.6,32.1,44.6,25.6" class="g7_20"/>
<path d="M164.5,486.2l-4.4,-1.1l1.1,1.5l-.7,1.6l4,-2Z" class="g8_20"/>
<path d="M163.4,501.4c0,0,-42.4,-4.3,-47.3,23" class="g7_20"/>
<path d="M115.6,527.6l2.2,-3.8l-1.7,.6l-1.3,-1.2l.8,4.4Z" class="g8_20"/>
<path d="M317.1,463.3c0,0,6.4,33.1,-39.5,26" class="g7_20"/>
<path d="M274.4,488.8l3.9,2.2l-.7,-1.7l1.2,-1.4l-4.4,.9Z" class="g8_20"/>
<path d="M274,503.3c0,0,42.4,-4.3,47.3,23" class="g7_20"/>
<path d="M321.8,529.5l-2.2,-3.8l1.7,.6l1.3,-1.2l-.8,4.4Z" class="g8_20"/>
<path d="M265.1,614c.7,.4,1.3,-.4,1.8,-.9c.9,-.7,1.7,-1.6,2.6,-2.4c1,-.9,1.9,-2.2,2.4,-3.4c.3,-.7,.6,-1.3,.9,-2c.4,-.8,.9,-1.6,1.3,-2.5c.5,-1.1,.7,-2.3,1.3,-3.4c.5,-1,1.1,-2,1.6,-2.9c.5,-.7,1.1,-1.3,1.8,-1.8c.4,-.4,.8,-.3,1.4,-.5c-.1,-.2,-.6,-.3,-.8,-.3c-.7,-.1,-1.2,0,-1.8,.3l1,-.4c.6,-.2,1.2,-.3,1.8,-.5c.3,-.2,.5,-.2,.8,-.2c.3,.5,-.5,1.2,-.7,1.5c-.2,.5,-.7,1.2,-.6,1.8m-76.2,30.1c.2,-4,-2.6,-6.5,-5.4,-8.9c-.6,-.5,-1.1,-1.1,-1.7,-1.7c-.7,-.7,-1.8,-1.2,-2.7,-1.8c-.9,-.5,-1.9,-1,-2.8,-1.5c-.9,-.5,-1.7,-1.1,-2.5,-1.6c-.7,-.5,-1.6,-.8,-2.3,-1.2c-.8,-.5,-1.5,-.9,-2.3,-1.3c-1.4,-.7,-2.7,-1.4,-4.1,-2.1c-.6,-.3,-1.5,-.7,-2.2,-.7c-.4,0,-1.1,.2,-1.4,-.1c.2,-.4,.5,-.7,.9,-.9c.2,-.2,1.4,-1,1.4,-1.3c-.5,.1,-1.1,.9,-1.4,1.2c-.1,.1,-1.1,1,-1,1.2c.2,.1,.3,.2,.5,.3c.5,.3,.6,.5,.8,1c.3,.6,.5,1.1,.5,1.7M229.1,579c0,-.7,-.1,-1.4,-.1,-2.2c.1,-1.9,.6,-3.7,.5,-5.6c-.1,-1.5,-.7,-2.9,-.7,-4.4c0,-.8,0,-1.7,0,-2.6c-.8,1.1,-2,1.6,-2.7,2.7c.4,-.4,.8,-.7,1.2,-1.1c.3,-.3,.7,-.6,1,-.9c.2,-.1,.3,-.3,.4,-.4c.4,-.2,.8,.2,1.1,.4c1,.5,2.2,.7,3.3,.9" class="g4_20"/>
<path d="M5.4,0H-17.4M922,0h23M5.4,1017.5H-17.4m939.4,0h23M23.7,-18.2V-41.1m0,1076.9v23m880,-1077V-41.1m0,1076.9v23" class="g9_20"/>
<path d="M5.4,0H-17.4M922,0h23M5.4,1017.5H-17.4m939.4,0h23M23.7,-18.2V-41.1m0,1076.9v23m880,-1077V-41.1m0,1076.9v23" class="ga_20"/>
</svg>