<?xml version="1.0" encoding="UTF-8" standalone="no"?>
<!DOCTYPE svg PUBLIC "-//W3C//DTD SVG 1.1//EN"
"http://www.w3.org/Graphics/SVG/1.1/DTD/svg11.dtd">
<svg viewBox="0 0 770 1017" version="1.1" xmlns="http://www.w3.org/2000/svg" xmlns:xlink="http://www.w3.org/1999/xlink">
<defs>
<style type="text/css"><![CDATA[
.g0_594{
fill: none;
stroke: #000000;
stroke-width: 0.618;
stroke-linecap: butt;
stroke-linejoin: miter;
}
.g1_594{
stroke: #000000;
stroke-width: 1.698;
stroke-linecap: butt;
stroke-linejoin: miter;
}
.g2_594{
fill: #7F7F7F;
stroke: #000000;
stroke-width: 1.698;
stroke-linecap: butt;
stroke-linejoin: miter;
}
.g3_594{
fill: none;
stroke: #000000;
stroke-width: 1.698;
stroke-linecap: butt;
stroke-linejoin: miter;
}
]]></style>
</defs>
<path d="M56,69.2H695.2" class="g0_594"/>
<path d="M154.1,125.5c0,1.4,-1.2,2.5,-2.6,2.5c-1.4,0,-2.5,-1.1,-2.5,-2.5c0,-1.4,1.1,-2.6,2.5,-2.6c1.4,0,2.6,1.2,2.6,2.6" class="g1_594"/>
<path d="M101.4,110.2c0,1.4,-1.2,2.5,-2.6,2.5c-1.4,0,-2.5,-1.1,-2.5,-2.5c0,-1.4,1.1,-2.6,2.5,-2.6c1.4,0,2.6,1.2,2.6,2.6" class="g1_594"/>
<path d="M75.1,139.9c0,1.4,-1.2,2.6,-2.6,2.6c-1.4,0,-2.5,-1.2,-2.5,-2.6c0,-1.4,1.1,-2.5,2.5,-2.5c1.4,0,2.6,1.1,2.6,2.5" class="g1_594"/>
<path d="M189.7,112.7c0,1.4,-1.1,2.6,-2.5,2.6c-1.4,0,-2.6,-1.2,-2.6,-2.6c0,-1.4,1.2,-2.5,2.6,-2.5c1.4,0,2.5,1.1,2.5,2.5" class="g1_594"/>
<path d="M239,104.2c0,1.4,-1.1,2.6,-2.5,2.6c-1.5,0,-2.6,-1.2,-2.6,-2.6c0,-1.4,1.1,-2.5,2.6,-2.5c1.4,0,2.5,1.1,2.5,2.5" class="g1_594"/>
<path d="M273,122.9c0,1.4,-1.2,2.6,-2.6,2.6c-1.4,0,-2.5,-1.2,-2.5,-2.6c0,-1.4,1.1,-2.5,2.5,-2.5c1.4,0,2.6,1.1,2.6,2.5" class="g1_594"/>
<path d="M249.2,154.3c0,1.5,-1.1,2.6,-2.5,2.6c-1.5,0,-2.6,-1.1,-2.6,-2.6c0,-1.4,1.1,-2.5,2.6,-2.5c1.4,0,2.5,1.1,2.5,2.5" class="g1_594"/>
<path d="M230.5,191.7c0,1.4,-1.1,2.5,-2.5,2.5c-1.4,0,-2.6,-1.1,-2.6,-2.5c0,-1.4,1.2,-2.6,2.6,-2.6c1.4,0,2.5,1.2,2.5,2.6" class="g1_594"/>
<path d="M188,190.9c0,1.4,-1.1,2.5,-2.5,2.5c-1.4,0,-2.6,-1.1,-2.6,-2.5c0,-1.4,1.2,-2.6,2.6,-2.6c1.4,0,2.5,1.2,2.5,2.6" class="g1_594"/>
<path d="M117.5,191.7c0,1.4,-1.1,2.5,-2.5,2.5c-1.4,0,-2.6,-1.1,-2.6,-2.5c0,-1.4,1.2,-2.6,2.6,-2.6c1.4,0,2.5,1.2,2.5,2.6" class="g1_594"/>
<path d="M87,220.6c0,1.4,-1.2,2.5,-2.6,2.5c-1.4,0,-2.5,-1.1,-2.5,-2.5c0,-1.4,1.1,-2.6,2.5,-2.6c1.4,0,2.6,1.2,2.6,2.6" class="g1_594"/>
<path d="M66.6,252.9c0,1.4,-1.2,2.5,-2.6,2.5c-1.4,0,-2.5,-1.1,-2.5,-2.5c0,-1.4,1.1,-2.6,2.5,-2.6c1.4,0,2.6,1.2,2.6,2.6" class="g1_594"/>
<path d="M80.1,285.2c0,1.4,-1.1,2.5,-2.5,2.5c-1.4,0,-2.6,-1.1,-2.6,-2.5c0,-1.5,1.2,-2.6,2.6,-2.6c1.4,0,2.5,1.1,2.5,2.6" class="g1_594"/>
<path d="M76.8,325.9c0,1.5,-1.2,2.6,-2.6,2.6c-1.4,0,-2.5,-1.1,-2.5,-2.6c0,-1.4,1.1,-2.5,2.5,-2.5c1.4,0,2.6,1.1,2.6,2.5" class="g1_594"/>
<path d="M115,319.1c0,1.4,-1.2,2.6,-2.6,2.6c-1.4,0,-2.5,-1.2,-2.5,-2.6c0,-1.4,1.1,-2.5,2.5,-2.5c1.4,0,2.6,1.1,2.6,2.5" class="g1_594"/>
<path d="M154.9,321.7c0,1.4,-1.1,2.5,-2.5,2.5c-1.5,0,-2.6,-1.1,-2.6,-2.5c0,-1.4,1.1,-2.6,2.6,-2.6c1.4,0,2.5,1.2,2.5,2.6" class="g1_594"/>
<path d="M190.6,331.9c0,1.4,-1.1,2.5,-2.5,2.5c-1.5,0,-2.6,-1.1,-2.6,-2.5c0,-1.4,1.1,-2.6,2.6,-2.6c1.4,0,2.5,1.2,2.5,2.6" class="g1_594"/>
<path d="M232.2,342.9c0,1.4,-1.1,2.6,-2.5,2.6c-1.4,0,-2.6,-1.2,-2.6,-2.6c0,-1.4,1.2,-2.5,2.6,-2.5c1.4,0,2.5,1.1,2.5,2.5" class="g1_594"/>
<path d="M290.8,327.6c0,1.4,-1.1,2.6,-2.5,2.6c-1.4,0,-2.6,-1.2,-2.6,-2.6c0,-1.4,1.2,-2.5,2.6,-2.5c1.4,0,2.5,1.1,2.5,2.5" class="g1_594"/>
<path d="M261.1,297.9c0,1.4,-1.1,2.5,-2.6,2.5c-1.4,0,-2.5,-1.1,-2.5,-2.5c0,-1.4,1.1,-2.6,2.5,-2.6c1.5,0,2.6,1.2,2.6,2.6" class="g1_594"/>
<path d="M235.6,249.5c0,1.4,-1.1,2.5,-2.5,2.5c-1.4,0,-2.6,-1.1,-2.6,-2.5c0,-1.4,1.2,-2.6,2.6,-2.6c1.4,0,2.5,1.2,2.5,2.6" class="g1_594"/>
<path d="M186.3,263.1c0,1.4,-1.1,2.5,-2.5,2.5c-1.4,0,-2.6,-1.1,-2.6,-2.5c0,-1.4,1.2,-2.6,2.6,-2.6c1.4,0,2.5,1.2,2.5,2.6" class="g1_594"/>
<path d="M136.2,241c0,1.4,-1.1,2.5,-2.5,2.5c-1.4,0,-2.6,-1.1,-2.6,-2.5c0,-1.4,1.2,-2.6,2.6,-2.6c1.4,0,2.5,1.2,2.5,2.6" class="g1_594"/>
<path d="M301,170.5c0,1.4,-1.1,2.5,-2.5,2.5c-1.4,0,-2.6,-1.1,-2.6,-2.5c0,-1.4,1.2,-2.6,2.6,-2.6c1.4,0,2.5,1.2,2.5,2.6" class="g1_594"/>
<path d="M267.9,221.4c0,1.5,-1.2,2.6,-2.6,2.6c-1.4,0,-2.5,-1.1,-2.5,-2.6c0,-1.4,1.1,-2.5,2.5,-2.5c1.4,0,2.6,1.1,2.6,2.5" class="g1_594"/>
<path d="M126.9,155.2c0,1.4,-1.2,2.5,-2.6,2.5c-1.4,0,-2.5,-1.1,-2.5,-2.5c0,-1.4,1.1,-2.6,2.5,-2.6c1.4,0,2.6,1.2,2.6,2.6" class="g1_594"/>
<path d="M380.7,345.9V102.4" class="g0_594"/>
<path d="M499.9,125.5c0,1.4,-1.2,2.5,-2.6,2.5c-1.4,0,-2.5,-1.1,-2.5,-2.5c0,-1.4,1.1,-2.6,2.5,-2.6c1.4,0,2.6,1.2,2.6,2.6" class="g1_594"/>
<path d="M447.2,110.2c0,1.4,-1.1,2.5,-2.5,2.5c-1.4,0,-2.6,-1.1,-2.6,-2.5c0,-1.4,1.2,-2.6,2.6,-2.6c1.4,0,2.5,1.2,2.5,2.6" class="g1_594"/>
<path d="M420.9,139.9c0,1.4,-1.1,2.6,-2.6,2.6c-1.4,0,-2.5,-1.2,-2.5,-2.6c0,-1.4,1.1,-2.5,2.5,-2.5c1.5,0,2.6,1.1,2.6,2.5" class="g1_594"/>
<path d="M535.6,112.7c0,1.4,-1.2,2.6,-2.6,2.6c-1.4,0,-2.5,-1.2,-2.5,-2.6c0,-1.4,1.1,-2.5,2.5,-2.5c1.4,0,2.6,1.1,2.6,2.5" class="g1_594"/>
<path d="M584.9,104.2c0,1.4,-1.2,2.6,-2.6,2.6c-1.4,0,-2.5,-1.2,-2.5,-2.6c0,-1.4,1.1,-2.5,2.5,-2.5c1.4,0,2.6,1.1,2.6,2.5" class="g1_594"/>
<path d="M618.8,122.9c0,1.4,-1.1,2.6,-2.5,2.6c-1.4,0,-2.6,-1.2,-2.6,-2.6c0,-1.4,1.2,-2.5,2.6,-2.5c1.4,0,2.5,1.1,2.5,2.5" class="g1_594"/>
<path d="M432.8,220.6c0,1.4,-1.2,2.5,-2.6,2.5c-1.4,0,-2.5,-1.1,-2.5,-2.5c0,-1.4,1.1,-2.6,2.5,-2.6c1.4,0,2.6,1.2,2.6,2.6" class="g1_594"/>
<path d="M412.4,252.9c0,1.4,-1.2,2.5,-2.6,2.5c-1.4,0,-2.5,-1.1,-2.5,-2.5c0,-1.4,1.1,-2.6,2.5,-2.6c1.4,0,2.6,1.2,2.6,2.6" class="g1_594"/>
<path d="M426,285.2c0,1.4,-1.1,2.5,-2.5,2.5c-1.5,0,-2.6,-1.1,-2.6,-2.5c0,-1.5,1.1,-2.6,2.6,-2.6c1.4,0,2.5,1.1,2.5,2.6" class="g1_594"/>
<path d="M422.6,325.9c0,1.5,-1.1,2.6,-2.5,2.6c-1.4,0,-2.6,-1.1,-2.6,-2.6c0,-1.4,1.2,-2.5,2.6,-2.5c1.4,0,2.5,1.1,2.5,2.5" class="g1_594"/>
<path d="M460.8,319.1c0,1.4,-1.1,2.6,-2.5,2.6c-1.4,0,-2.6,-1.2,-2.6,-2.6c0,-1.4,1.2,-2.5,2.6,-2.5c1.4,0,2.5,1.1,2.5,2.5" class="g1_594"/>
<path d="M500.8,321.7c0,1.4,-1.2,2.5,-2.6,2.5c-1.4,0,-2.5,-1.1,-2.5,-2.5c0,-1.4,1.1,-2.6,2.5,-2.6c1.4,0,2.6,1.2,2.6,2.6" class="g1_594"/>
<path d="M536.4,331.9c0,1.4,-1.1,2.5,-2.5,2.5c-1.4,0,-2.6,-1.1,-2.6,-2.5c0,-1.4,1.2,-2.6,2.6,-2.6c1.4,0,2.5,1.2,2.5,2.6" class="g1_594"/>
<path d="M578.1,342.9c0,1.4,-1.2,2.6,-2.6,2.6c-1.4,0,-2.5,-1.2,-2.5,-2.6c0,-1.4,1.1,-2.5,2.5,-2.5c1.4,0,2.6,1.1,2.6,2.5" class="g1_594"/>
<path d="M636.7,327.6c0,1.4,-1.2,2.6,-2.6,2.6c-1.4,0,-2.5,-1.2,-2.5,-2.6c0,-1.4,1.1,-2.5,2.5,-2.5c1.4,0,2.6,1.1,2.6,2.5" class="g1_594"/>
<path d="M607,297.9c0,1.4,-1.2,2.5,-2.6,2.5c-1.4,0,-2.5,-1.1,-2.5,-2.5c0,-1.4,1.1,-2.6,2.5,-2.6c1.4,0,2.6,1.2,2.6,2.6" class="g1_594"/>
<path d="M646.9,170.5c0,1.4,-1.2,2.5,-2.6,2.5c-1.4,0,-2.5,-1.1,-2.5,-2.5c0,-1.4,1.1,-2.6,2.5,-2.6c1.4,0,2.6,1.2,2.6,2.6" class="g1_594"/>
<path d="M472.7,155.2c0,1.4,-1.1,2.5,-2.5,2.5c-1.4,0,-2.6,-1.1,-2.6,-2.5c0,-1.4,1.2,-2.6,2.6,-2.6c1.4,0,2.5,1.2,2.5,2.6" class="g2_594"/>
<path d="M595,154.3c0,1.5,-1.1,2.6,-2.5,2.6c-1.4,0,-2.6,-1.1,-2.6,-2.6c0,-1.4,1.2,-2.5,2.6,-2.5c1.4,0,2.5,1.1,2.5,2.5" class="g2_594"/>
<path d="M463.4,191.7c0,1.4,-1.2,2.5,-2.6,2.5c-1.4,0,-2.5,-1.1,-2.5,-2.5c0,-1.4,1.1,-2.6,2.5,-2.6c1.4,0,2.6,1.2,2.6,2.6" class="g2_594"/>
<path d="M533.9,190.9c0,1.4,-1.1,2.5,-2.6,2.5c-1.4,0,-2.5,-1.1,-2.5,-2.5c0,-1.4,1.1,-2.6,2.5,-2.6c1.5,0,2.6,1.2,2.6,2.6" class="g2_594"/>
<path d="M576.4,191.7c0,1.4,-1.2,2.5,-2.6,2.5c-1.4,0,-2.5,-1.1,-2.5,-2.5c0,-1.4,1.1,-2.6,2.5,-2.6c1.4,0,2.6,1.2,2.6,2.6" class="g2_594"/>
<path d="M482.1,241c0,1.4,-1.2,2.5,-2.6,2.5c-1.4,0,-2.5,-1.1,-2.5,-2.5c0,-1.4,1.1,-2.6,2.5,-2.6c1.4,0,2.6,1.2,2.6,2.6" class="g2_594"/>
<path d="M613.7,221.4c0,1.5,-1.1,2.6,-2.5,2.6c-1.4,0,-2.6,-1.1,-2.6,-2.6c0,-1.4,1.2,-2.5,2.6,-2.5c1.4,0,2.5,1.1,2.5,2.5" class="g2_594"/>
<path d="M581.5,249.5c0,1.4,-1.2,2.5,-2.6,2.5c-1.4,0,-2.5,-1.1,-2.5,-2.5c0,-1.4,1.1,-2.6,2.5,-2.6c1.4,0,2.6,1.2,2.6,2.6" class="g2_594"/>
<path d="M532.2,263.1c0,1.4,-1.1,2.5,-2.6,2.5c-1.4,0,-2.5,-1.1,-2.5,-2.5c0,-1.4,1.1,-2.6,2.5,-2.6c1.5,0,2.6,1.2,2.6,2.6" class="g2_594"/>
<path d="M447.2,280.1H627.3V140.7H447.2V280.1Z" class="g3_594"/>
<path d="M65.1,372.2h621" class="g0_594"/>
</svg>