<?xml version="1.0" encoding="UTF-8" standalone="no"?>
<!DOCTYPE svg PUBLIC "-//W3C//DTD SVG 1.1//EN"
"http://www.w3.org/Graphics/SVG/1.1/DTD/svg11.dtd">
<svg viewBox="0 0 907 1045" version="1.1" xmlns="http://www.w3.org/2000/svg" xmlns:xlink="http://www.w3.org/1999/xlink">
<defs>
<clipPath id="c0_235"><path d="M277.2,849.5V779.8h45.9v69.7Z"/></clipPath>
<clipPath id="c1_235"><path d="M146.6,694.3V537.5h98.3V694.3Z"/></clipPath>
<clipPath id="c2_235"><path d="M539.4,670.8V503.7h68V670.8Z"/></clipPath>
<clipPath id="c3_235"><path d="M577.2,394.7l-2.6,-31.5L565.3,249.8L783.4,232l11.8,144.9l-218,17.8Z"/></clipPath>
<clipPath id="c4_235"><path d="M358.6,606.2L342,545.7L330,502.3l34.1,-9.4l26.1,-7.2l28.6,103.9l-60.2,16.6Z"/></clipPath>
<clipPath id="c5_235"><path d="M502.9,912.2V764.1h82.6V912.2Z"/></clipPath>
<clipPath id="c6_235"><path d="M229.8,887.7c-1.2,-.5,-2.8,-1.1,-4,-1.8c1.1,.4,2.8,1.1,4.7,1.8Zm-4,-1.8v0c-.8,-.4,-1.4,-.6,-1.5,-.7h.5c.3,.2,.6,.5,1,.7Zm25.9,-63.3v-.8h.4v.4h.4v.4Zm-3.4,-1.3v-.4h.4v.4ZM244,891.9c-4.1,-1,-9.4,-2.7,-13.5,-4.2h1c-2.3,-1.5,-5,-2.5,-7.6,-3.8c-.8,-1.5,.4,-.6,-1.7,-1.2c-.3,-1.3,-.8,-1.5,-1.7,-2.1h-.4v.4h-.4c-.4,-1.4,-5.8,-7.2,-8.4,-7.6c.1,-.3,0,-.4,-.2,-.4c0,0,-.1,0,-.2,0c-.2,-2.5,-.8,-4.1,-1.7,-5.9c-.8,-.4,-.7,-.1,-1.3,-.4c-.4,-1.8,-.7,-2.6,-1.2,-4.2c.1,-1.4,.3,-.3,.4,-1.3c-1.6,-1.9,.1,-5.5,-.9,-7.5c0,-.4,.1,-.4,.2,-.4h.1c.1,0,.2,-.1,.2,-.5c-.1,.1,-.2,.1,-.3,.1c-.5,0,-.5,-.4,-.2,-1.3c.8,-.8,1,-2.1,1.7,-2.9q-.1,0,-.2,0c-1.1,0,-1.1,-1,-.2,-3c.3,.1,.6,.1,.8,.1c.9,0,.2,-.6,.9,-.9h.4v.4h.8c.4,-.2,.8,-.7,1.3,-.9c-.8,-.8,-.9,-2.5,-1.7,-3.3c.7,-1.3,1.6,-2.4,2.5,-3.4c.5,-.1,.7,-.2,.8,-.2c0,0,.1,0,.1,0c0,0,.1,0,.1,0c.2,0,.4,0,.7,-.2c-.3,-.9,-.3,-.6,-.4,-1.3c1,-.7,.8,.2,1.3,-1.6c3.1,-.3,.5,-.1,2.5,-.4c0,-.4,0,-.5,-.1,-.5c0,0,-.1,0,-.1,0h-.1q-.1,0,-.1,-.4c2,-.9,3.7,-2.7,4.6,-4.6h2.1v.4h1.3v-.4h-.4v-.4H226v-.5h-.4v-.4h.8v.4h.5v-.8h.8V826h.8v.4h-.4v.4h1.7v.4h1.7v.9h1.2c0,-.5,.1,-.7,.4,-.7c.2,0,.5,.1,.9,.2c-.2,-.9,0,-.6,-.4,-1.2c1.1,-.6,2.3,-1.6,3.4,-2.1h.8v.4h-.4v.4h1.2v.5h.9v-.5h.4v-.4h1.3v.4h.8c1.9,-1.6,6.4,-1.5,9.3,-2.1c-.4,-.3,-.6,-.5,-.9,-.8h.9v.4h.4v.4h.4v.4h1.3V823h.4v.4h.4V823h.4v-.8h.4v.8h.5v-.8h.4v.8h.4v-.4H258v-.4h-.4v-.4h-.5v-.5h-.4v.9h-.4v-.9H255v.5h-.4v-.5h-3.3v-.4h-.5v.4h-.4v-.4H250v.4h-.9v-.4h-.4v-.4h3.4c0,-.2,.1,-.3,.3,-.4h2.8c7,1.2,23.9,8,25.1,8.4c1.3,2.4,3.9,3.7,5.9,5.5h.8v-.5h.9c-.4,.9,-.3,1.3,.1,1.3c.1,0,.2,0,.3,0c0,.4,-.3,.6,-.4,.8c4.6,4.1,8.8,10.5,9.2,18.5c-.8,12.4,-4.9,18.4,-11.8,25.2c-2.5,2.5,-5.8,4.7,-9.2,6.3c-2.5,1.2,-4.1,1.9,-6.8,3c-4,1.6,-10.6,1.5,-15.1,3.3Z"/></clipPath>
<clipPath id="c7_235"><path d="M146.3,694.3V537.5h98.6V694.3Z"/></clipPath>
<clipPath id="c8_235"><path d="M561,421.9V225.7H822.8V421.9Z"/></clipPath>
<clipPath id="c9_235"><path d="M577.2,394.7L568.5,288.6l-3.2,-38.8L783.4,232l11.8,144.9l-218,17.8Z"/></clipPath>
<clipPath id="ca_235"><path d="M331.9,625.8V554.7c5.8,-1.8,11.9,-3.6,18,-5.3c28.8,-8.2,60.5,-15.7,88.7,-19v95.4Zm0,-72.7V487.6H438.6v41.3c-33.8,3.9,-72.4,13.8,-105.2,23.7c-.5,.2,-1,.3,-1.5,.5Z"/></clipPath>
<clipPath id="cb_235"><path d="M331.9,554.7v-1.6c.5,-.2,1,-.3,1.5,-.5c32.8,-9.9,71.4,-19.8,105.2,-23.7v1.5c-28.2,3.3,-59.9,10.8,-88.7,19c-6.1,1.7,-12.2,3.5,-18,5.3Z"/></clipPath>
<clipPath id="cc_235"><path d="M358.6,606.2L330,502.3l30.5,-8.4l29.7,-8.2l28.6,103.9l-60.2,16.6Z"/></clipPath>
<clipPath id="cd_235"><path d="M-2.6,1047.7V-2.6H910.2V1047.7Z"/></clipPath>
<style type="text/css"><![CDATA[
.g0_235{
fill: none;
stroke: #000000;
stroke-width: 0.918;
stroke-linecap: butt;
stroke-linejoin: miter;
}
.g1_235{
}
.g2_235{
fill: none;
stroke: #000000;
stroke-width: 1.527;
stroke-linecap: butt;
stroke-linejoin: miter;
stroke-miterlimit: 4;
}
.g3_235{
fill: #3D3D3D;
}
.g4_235{
fill: none;
stroke: #3D3D3D;
stroke-width: 1.527;
stroke-linecap: butt;
stroke-linejoin: miter;
stroke-miterlimit: 4;
}
.g5_235{
fill: #FFFFFF;
}
.g6_235{
fill: none;
stroke: #FFFFFF;
stroke-width: 1.909;
stroke-linecap: butt;
stroke-linejoin: miter;
}
.g7_235{
fill: none;
stroke: #000000;
stroke-width: 0.381;
stroke-linecap: butt;
stroke-linejoin: miter;
}
]]></style>
</defs>
<g clip-path="url(#c0_235)">
<image clip-path="url(#c0_235)" preserveAspectRatio="none" x="277" y="780" width="46" height="70" xlink:href="img/1.jpg"/>
</g>
<path d="M199.2,711.2h78.3m-78.7,18.3h71.8M168.9,747.8h50" class="g0_235"/>
<g clip-path="url(#c7_235)">
<image clip-path="url(#c1_235)" preserveAspectRatio="none" x="147" y="538" width="98" height="156" xlink:href="img/2.jpg"/>
</g>
<g clip-path="url(#c2_235)">
<image clip-path="url(#c2_235)" preserveAspectRatio="none" x="539" y="504" width="68" height="167" xlink:href="img/3.jpg"/>
</g>
<path d="M108,715.8c5.1,0,9.2,-3.9,9.2,-8.9c0,-4.9,-4.1,-8.9,-9.2,-8.9c-5,0,-9.1,4,-9.1,8.9c0,5,4.1,8.9,9.1,8.9Z" class="g1_235"/>
<path d="M108,715.8c5.1,0,9.2,-3.9,9.2,-8.9c0,-4.9,-4.1,-8.9,-9.2,-8.9c-5,0,-9.1,4,-9.1,8.9c0,5,4.1,8.9,9.1,8.9Z" class="g2_235"/>
<path d="M706.8,672.6h71.8M753.5,691h45.3M278.6,935.8h143M318.1,954.2h45.1" class="g0_235"/>
<path d="M259.6,579.5c0,0,2,-.8,5.7,-2.2c12.9,-4.8,46.2,-17,84.6,-27.9c38.5,-11,82.2,-20.7,115.6,-20.7c18.5,0,33.8,3,43.4,10.1l.9,-1.2c-10.1,-7.5,-25.7,-10.4,-44.3,-10.4c-38.5,0,-90.1,12.7,-132.1,25.4c-42,12.8,-74.4,25.5,-74.4,25.5l.6,1.4Z" class="g3_235"/>
<path d="M516.1,543.2l-6.3,-9.5l-.4,4.5l-4.2,1.7l10.9,3.3Z" class="g3_235"/>
<path d="M604.1,627.3c0,0,75.8,86.1,5.9,156.1" class="g4_235"/>
<path d="M604.1,789.3l10.3,-4.8c0,0,-4.4,-1.1,-5.5,-5.6l-4.8,10.4Z" class="g3_235"/>
<path d="M493,894.5c0,0,-140.3,46,-192.2,-8.8" class="g4_235"/>
<path d="M295.1,879.6l4.5,10.5l1.2,-4.4l4.5,-1l-10.2,-5.1Z" class="g3_235"/>
<path d="M654.9,677.4c5,0,9.2,-4,9.2,-8.9c0,-4.9,-4.2,-8.9,-9.2,-8.9c-5.1,0,-9.2,4,-9.2,8.9c0,4.9,4.1,8.9,9.2,8.9Z" class="g1_235"/>
<path d="M654.9,677.4c5,0,9.2,-4,9.2,-8.9c0,-4.9,-4.2,-8.9,-9.2,-8.9c-5.1,0,-9.2,4,-9.2,8.9c0,4.9,4.1,8.9,9.2,8.9Z" class="g2_235"/>
<path d="M225.8,938.6c5.1,0,9.2,-4,9.2,-8.9c0,-4.9,-4.1,-8.9,-9.2,-8.9c-5,0,-9.2,4,-9.2,8.9c0,4.9,4.2,8.9,9.2,8.9Z" class="g1_235"/>
<path d="M225.8,938.6c5.1,0,9.2,-4,9.2,-8.9c0,-4.9,-4.1,-8.9,-9.2,-8.9c-5,0,-9.2,4,-9.2,8.9c0,4.9,4.2,8.9,9.2,8.9Z" class="g2_235"/>
<image clip-path="url(#c8_235)" preserveAspectRatio="none" x="561" y="225" width="262" height="197" xlink:href="img/4.jpg"/>
<path d="M559.8,243.4l13,158.3L802.4,382.9L789.5,224.6L559.8,243.4Z" class="g5_235"/>
<g clip-path="url(#c9_235)">
<image clip-path="url(#c3_235)" preserveAspectRatio="none" x="565" y="232" width="230" height="163" xlink:href="img/5.png"/>
</g>
<image clip-path="url(#ca_235)" preserveAspectRatio="none" x="331" y="487" width="108" height="139" xlink:href="img/6.jpg"/>
<image clip-path="url(#cb_235)" preserveAspectRatio="none" x="331" y="529" width="108" height="26" xlink:href="img/7.jpg"/>
<g clip-path="url(#cc_235)">
<image clip-path="url(#c4_235)" preserveAspectRatio="none" x="330" y="485" width="91" height="122" xlink:href="img/8.png"/>
</g>
<g clip-path="url(#c5_235)">
<image clip-path="url(#c5_235)" preserveAspectRatio="none" x="503" y="764" width="83" height="148" xlink:href="img/9.jpg"/>
</g>
<g clip-path="url(#c6_235)">
<image clip-path="url(#c6_235)" preserveAspectRatio="none" x="204" y="820" width="93" height="72" xlink:href="img/10.jpg"/>
</g>
<g clip-path="url(#cd_235)">
<path d="M-4.5,13.7H-27.4m939.5,0H935M-4.5,1031.2H-27.4m939.5,0H935M13.7,-4.5V-27.4m0,1077v22.9m880,-1077V-27.4m0,1077v22.9" class="g6_235"/>
<path d="M-4.5,13.7H-27.4m939.5,0H935M-4.5,1031.2H-27.4m939.5,0H935M13.7,-4.5V-27.4m0,1077v22.9m880,-1077V-27.4m0,1077v22.9" class="g7_235"/>
</g>
</svg>