<?xml version="1.0" encoding="UTF-8" standalone="no"?>
<!DOCTYPE svg PUBLIC "-//W3C//DTD SVG 1.1//EN"
"http://www.w3.org/Graphics/SVG/1.1/DTD/svg11.dtd">
<svg viewBox="0 0 811 1017" version="1.1" xmlns="http://www.w3.org/2000/svg" xmlns:xlink="http://www.w3.org/1999/xlink">
<defs>
<clipPath id="c0_265"><path d="M301.3,193.5V178.2H496.8v15.3Z"/></clipPath>
<clipPath id="c1_265"><path d="M301.3,801.5V786.3H496.8v15.2Z"/></clipPath>
<clipPath id="c2_265"><path d="M515.1,210.1V194.9H710.7v15.2Z"/></clipPath>
<clipPath id="c3_265"><path d="M515.1,338.4V323.1H710.7v15.3Z"/></clipPath>
<clipPath id="c4_265"><path d="M515.1,324.9v-.4H710.7v.4Z"/></clipPath>
<clipPath id="c5_265"><path d="M515.1,701.2V685.9H710.7v15.3Z"/></clipPath>
<clipPath id="c6_265"><path d="M515.1,782.4V767.1H710.7v15.3Z"/></clipPath>
<clipPath id="c7_265"><path d="M515.1,847.8V832.5H710.7v15.3Z"/></clipPath>
<clipPath id="c8_265"><path d="M515.1,834.3v-.5H710.7v.5Z"/></clipPath>
<style type="text/css"><![CDATA[
.g0_265{
fill: #224867;
}
]]></style>
</defs>
<path clip-path="url(#c0_265)" d="M301.2,179.9h.1v-.4h-.1v.4Z" class="g0_265"/>
<path d="M301.3,179.9H496.8v-.4H301.3v.4Z" class="g0_265"/>
<path clip-path="url(#c1_265)" d="M301.2,788h.1v-.4h-.1v.4Z" class="g0_265"/>
<path d="M301.3,788H496.8v-.4H301.3v.4Z" class="g0_265"/>
<path clip-path="url(#c2_265)" d="M515.1,196.6v0v-.4v.4Z" class="g0_265"/>
<path d="M515.1,196.6H710.7v-.4H515.1v.4Z" class="g0_265"/>
<path clip-path="url(#c3_265)" d="M515.1,324.8v0v-.3v.3Z" class="g0_265"/>
<path clip-path="url(#c4_265)" d="M515.1,324.8H710.7v-.3H515.1v.3Z" class="g0_265"/>
<path clip-path="url(#c5_265)" d="M515.1,687.6v0v-.4v.4Z" class="g0_265"/>
<path d="M515.1,687.6H710.7v-.4H515.1v.4Z" class="g0_265"/>
<path clip-path="url(#c6_265)" d="M515.1,768.9v0v-.4v.4Z" class="g0_265"/>
<path d="M515.1,768.9H710.7v-.4H515.1v.4Z" class="g0_265"/>
<path clip-path="url(#c7_265)" d="M515.1,834.2v0v-.4v.4Z" class="g0_265"/>
<path clip-path="url(#c8_265)" d="M515.1,834.2H710.7v-.4H515.1v.4Z" class="g0_265"/>
<image preserveAspectRatio="none" x="203" y="990" width="405" height="28" xlink:href="img/1.jpg"/>
</svg>