<?xml version="1.0" encoding="UTF-8" standalone="no"?>
<!DOCTYPE svg PUBLIC "-//W3C//DTD SVG 1.1//EN"
"http://www.w3.org/Graphics/SVG/1.1/DTD/svg11.dtd">
<svg viewBox="0 0 931 1096" version="1.1" xmlns="http://www.w3.org/2000/svg" xmlns:xlink="http://www.w3.org/1999/xlink">
<defs>
<clipPath id="c0_261"><path d="M466,252.4V217.7H754.7v34.7Z"/></clipPath>
<clipPath id="c1_261"><path d="M515.8,351.8V319.1H704.9v32.7Z"/></clipPath>
<clipPath id="c2_261"><path d="M119,940.3v-165H329.4v165Z"/></clipPath>
<style type="text/css"><![CDATA[
.g0_261{
fill: #D0007A;
}
.g1_261{
fill: none;
stroke: #241F1F;
stroke-width: 0.763;
stroke-miterlimit: 10;
}
.g2_261{
fill: none;
stroke: #EE008C;
stroke-width: 0.916;
stroke-linejoin: round;
}
.g3_261{
fill: none;
stroke: #00AEEF;
stroke-width: 0.763;
stroke-linejoin: round;
}
.g4_261{
fill: #00AEEF;
}
.g5_261{
fill: none;
stroke: #00AEEF;
stroke-width: 0.763;
stroke-miterlimit: 3;
}
.g6_261{
fill: #FFF;
}
.g7_261{
fill: none;
stroke: #241F1F;
stroke-width: 0.611;
stroke-miterlimit: 3;
}
.g8_261{
fill: #241F1F;
}
]]></style>
</defs>
<path d="M343.8,99.5c0,0,-1.6,0,-1.6,1.5v9.2c0,0,0,1.5,1.6,1.5h9.1c0,0,1.6,0,1.6,-1.5V101c0,0,0,-1.5,-1.6,-1.5Z" class="g0_261"/>
<path d="M626.5,235.1h23.2" class="g1_261"/>
<path clip-path="url(#c0_261)" d="M671.6,235.1h83.5" class="g1_261"/>
<path d="M639.7,335.9h23.1" class="g1_261"/>
<path clip-path="url(#c1_261)" d="M684.7,335.9h20.6" class="g1_261"/>
<path d="M458.1,682.3c204.3,0,224.2,-210.8,330,-210.8" class="g2_261"/>
<path d="M458.1,682.3h55" class="g3_261"/>
<path d="M456.6,682.3c0,-.8,.7,-1.5,1.5,-1.5c.8,0,1.5,.7,1.5,1.5c0,.9,-.7,1.5,-1.5,1.5c-.8,0,-1.5,-.6,-1.5,-1.5Z" class="g4_261"/>
<path d="M456.6,682.3c0,-.8,.7,-1.5,1.5,-1.5c.8,0,1.5,.7,1.5,1.5c0,.9,-.7,1.5,-1.5,1.5c-.8,0,-1.5,-.6,-1.5,-1.5Z" class="g5_261"/>
<path d="M511.6,682.3c0,-.8,.7,-1.5,1.5,-1.5c.8,0,1.5,.7,1.5,1.5c0,.9,-.7,1.5,-1.5,1.5c-.8,0,-1.5,-.6,-1.5,-1.5Z" class="g6_261"/>
<path d="M511.6,682.3c0,-.8,.7,-1.5,1.5,-1.5c.8,0,1.5,.7,1.5,1.5c0,.9,-.7,1.5,-1.5,1.5c-.8,0,-1.5,-.6,-1.5,-1.5Z" class="g5_261"/>
<path d="M513.1,673.2h27.5" class="g3_261"/>
<path d="M511.6,673.2c0,-.9,.7,-1.6,1.5,-1.6c.8,0,1.5,.7,1.5,1.6c0,.8,-.7,1.5,-1.5,1.5c-.8,0,-1.5,-.7,-1.5,-1.5Z" class="g4_261"/>
<path d="M511.6,673.2c0,-.9,.7,-1.6,1.5,-1.6c.8,0,1.5,.7,1.5,1.6c0,.8,-.7,1.5,-1.5,1.5c-.8,0,-1.5,-.7,-1.5,-1.5Z" class="g5_261"/>
<path d="M539.1,673.2c0,-.9,.7,-1.6,1.5,-1.6c.8,0,1.5,.7,1.5,1.6c0,.8,-.7,1.5,-1.5,1.5c-.8,0,-1.5,-.7,-1.5,-1.5Z" class="g6_261"/>
<path d="M539.1,673.2c0,-.9,.7,-1.6,1.5,-1.6c.8,0,1.5,.7,1.5,1.6c0,.8,-.7,1.5,-1.5,1.5c-.8,0,-1.5,-.7,-1.5,-1.5Z" class="g5_261"/>
<path d="M540.6,664H565" class="g3_261"/>
<path d="M539.1,664c0,-.9,.7,-1.5,1.5,-1.5c.8,0,1.5,.6,1.5,1.5c0,.8,-.7,1.5,-1.5,1.5c-.8,0,-1.5,-.7,-1.5,-1.5Z" class="g4_261"/>
<path d="M539.1,664c0,-.9,.7,-1.5,1.5,-1.5c.8,0,1.5,.6,1.5,1.5c0,.8,-.7,1.5,-1.5,1.5c-.8,0,-1.5,-.7,-1.5,-1.5Z" class="g5_261"/>
<path d="M563.5,664c0,-.9,.7,-1.5,1.5,-1.5c.9,0,1.6,.6,1.6,1.5c0,.8,-.7,1.5,-1.6,1.5c-.8,0,-1.5,-.7,-1.5,-1.5Z" class="g6_261"/>
<path d="M563.5,664c0,-.9,.7,-1.5,1.5,-1.5c.9,0,1.6,.6,1.6,1.5c0,.8,-.7,1.5,-1.6,1.5c-.8,0,-1.5,-.7,-1.5,-1.5Z" class="g5_261"/>
<path d="M565,654.8h13.8" class="g3_261"/>
<path d="M563.5,654.8c0,-.8,.7,-1.5,1.5,-1.5c.9,0,1.6,.7,1.6,1.5c0,.9,-.7,1.5,-1.6,1.5c-.8,0,-1.5,-.6,-1.5,-1.5Z" class="g4_261"/>
<path d="M563.5,654.8c0,-.8,.7,-1.5,1.5,-1.5c.9,0,1.6,.7,1.6,1.5c0,.9,-.7,1.5,-1.6,1.5c-.8,0,-1.5,-.6,-1.5,-1.5Z" class="g5_261"/>
<path d="M577.3,654.8c0,-.8,.7,-1.5,1.5,-1.5c.8,0,1.5,.7,1.5,1.5c0,.9,-.7,1.5,-1.5,1.5c-.8,0,-1.5,-.6,-1.5,-1.5Z" class="g6_261"/>
<path d="M577.3,654.8c0,-.8,.7,-1.5,1.5,-1.5c.8,0,1.5,.7,1.5,1.5c0,.9,-.7,1.5,-1.5,1.5c-.8,0,-1.5,-.6,-1.5,-1.5Z" class="g5_261"/>
<path d="M578.8,645.7h14.5" class="g3_261"/>
<path d="M577.3,645.7c0,-.9,.7,-1.6,1.5,-1.6c.8,0,1.5,.7,1.5,1.6c0,.8,-.7,1.5,-1.5,1.5c-.8,0,-1.5,-.7,-1.5,-1.5Z" class="g4_261"/>
<path d="M577.3,645.7c0,-.9,.7,-1.6,1.5,-1.6c.8,0,1.5,.7,1.5,1.6c0,.8,-.7,1.5,-1.5,1.5c-.8,0,-1.5,-.7,-1.5,-1.5Z" class="g5_261"/>
<path d="M591.8,645.7c0,-.9,.7,-1.6,1.5,-1.6c.9,0,1.5,.7,1.5,1.6c0,.8,-.6,1.5,-1.5,1.5c-.8,0,-1.5,-.7,-1.5,-1.5Z" class="g6_261"/>
<path d="M591.8,645.7c0,-.9,.7,-1.6,1.5,-1.6c.9,0,1.5,.7,1.5,1.6c0,.8,-.6,1.5,-1.5,1.5c-.8,0,-1.5,-.7,-1.5,-1.5Z" class="g5_261"/>
<path d="M593.3,636.5h12.2" class="g3_261"/>
<path d="M591.8,636.5c0,-.9,.7,-1.5,1.5,-1.5c.9,0,1.5,.6,1.5,1.5c0,.8,-.6,1.5,-1.5,1.5c-.8,0,-1.5,-.7,-1.5,-1.5Z" class="g4_261"/>
<path d="M591.8,636.5c0,-.9,.7,-1.5,1.5,-1.5c.9,0,1.5,.6,1.5,1.5c0,.8,-.6,1.5,-1.5,1.5c-.8,0,-1.5,-.7,-1.5,-1.5Z" class="g5_261"/>
<path d="M604,636.5c0,-.9,.7,-1.5,1.5,-1.5c.9,0,1.6,.6,1.6,1.5c0,.8,-.7,1.5,-1.6,1.5c-.8,0,-1.5,-.7,-1.5,-1.5Z" class="g6_261"/>
<path d="M604,636.5c0,-.9,.7,-1.5,1.5,-1.5c.9,0,1.6,.6,1.6,1.5c0,.8,-.7,1.5,-1.6,1.5c-.8,0,-1.5,-.7,-1.5,-1.5Z" class="g5_261"/>
<path d="M605.5,627.3h13" class="g3_261"/>
<path d="M604,627.3c0,-.8,.7,-1.5,1.5,-1.5c.9,0,1.6,.7,1.6,1.5c0,.9,-.7,1.5,-1.6,1.5c-.8,0,-1.5,-.6,-1.5,-1.5Z" class="g4_261"/>
<path d="M604,627.3c0,-.8,.7,-1.5,1.5,-1.5c.9,0,1.6,.7,1.6,1.5c0,.9,-.7,1.5,-1.6,1.5c-.8,0,-1.5,-.6,-1.5,-1.5Z" class="g5_261"/>
<path d="M617,627.3c0,-.8,.7,-1.5,1.5,-1.5c.9,0,1.5,.7,1.5,1.5c0,.9,-.6,1.5,-1.5,1.5c-.8,0,-1.5,-.6,-1.5,-1.5Z" class="g6_261"/>
<path d="M617,627.3c0,-.8,.7,-1.5,1.5,-1.5c.9,0,1.5,.7,1.5,1.5c0,.9,-.6,1.5,-1.5,1.5c-.8,0,-1.5,-.6,-1.5,-1.5Z" class="g5_261"/>
<path d="M618.5,618.2h7.7" class="g3_261"/>
<path d="M617,618.2c0,-.9,.7,-1.6,1.5,-1.6c.9,0,1.5,.7,1.5,1.6c0,.8,-.6,1.5,-1.5,1.5c-.8,0,-1.5,-.7,-1.5,-1.5Z" class="g4_261"/>
<path d="M617,618.2c0,-.9,.7,-1.6,1.5,-1.6c.9,0,1.5,.7,1.5,1.6c0,.8,-.6,1.5,-1.5,1.5c-.8,0,-1.5,-.7,-1.5,-1.5Z" class="g5_261"/>
<path d="M624.6,618.2c0,-.9,.7,-1.6,1.6,-1.6c.8,0,1.5,.7,1.5,1.6c0,.8,-.7,1.5,-1.5,1.5c-.9,0,-1.6,-.7,-1.6,-1.5Z" class="g6_261"/>
<path d="M624.6,618.2c0,-.9,.7,-1.6,1.6,-1.6c.8,0,1.5,.7,1.5,1.6c0,.8,-.7,1.5,-1.5,1.5c-.9,0,-1.6,-.7,-1.6,-1.5Z" class="g5_261"/>
<path d="M626.5,609h8.4" class="g3_261"/>
<path d="M625,609c0,-.9,.7,-1.5,1.5,-1.5c.9,0,1.6,.6,1.6,1.5c0,.8,-.7,1.5,-1.6,1.5c-.8,0,-1.5,-.7,-1.5,-1.5Z" class="g4_261"/>
<path d="M625,609c0,-.9,.7,-1.5,1.5,-1.5c.9,0,1.6,.6,1.6,1.5c0,.8,-.7,1.5,-1.6,1.5c-.8,0,-1.5,-.7,-1.5,-1.5Z" class="g5_261"/>
<path d="M633.4,609c0,-.9,.7,-1.5,1.5,-1.5c.9,0,1.6,.6,1.6,1.5c0,.8,-.7,1.5,-1.6,1.5c-.8,0,-1.5,-.7,-1.5,-1.5Z" class="g6_261"/>
<path d="M633.4,609c0,-.9,.7,-1.5,1.5,-1.5c.9,0,1.6,.6,1.6,1.5c0,.8,-.7,1.5,-1.6,1.5c-.8,0,-1.5,-.7,-1.5,-1.5Z" class="g5_261"/>
<path d="M635.3,599.8h8.4" class="g3_261"/>
<path d="M633.8,599.8c0,-.8,.7,-1.5,1.5,-1.5c.9,0,1.6,.7,1.6,1.5c0,.9,-.7,1.5,-1.6,1.5c-.8,0,-1.5,-.6,-1.5,-1.5Z" class="g4_261"/>
<path d="M633.8,599.8c0,-.8,.7,-1.5,1.5,-1.5c.9,0,1.6,.7,1.6,1.5c0,.9,-.7,1.5,-1.6,1.5c-.8,0,-1.5,-.6,-1.5,-1.5Z" class="g5_261"/>
<path d="M642.2,599.8c0,-.8,.7,-1.5,1.5,-1.5c.9,0,1.6,.7,1.6,1.5c0,.9,-.7,1.5,-1.6,1.5c-.8,0,-1.5,-.6,-1.5,-1.5Z" class="g6_261"/>
<path d="M642.2,599.8c0,-.8,.7,-1.5,1.5,-1.5c.9,0,1.6,.7,1.6,1.5c0,.9,-.7,1.5,-1.6,1.5c-.8,0,-1.5,-.6,-1.5,-1.5Z" class="g5_261"/>
<path d="M643.7,590.7h7.7" class="g3_261"/>
<path d="M642.2,590.7c0,-.9,.7,-1.6,1.5,-1.6c.9,0,1.6,.7,1.6,1.6c0,.8,-.7,1.5,-1.6,1.5c-.8,0,-1.5,-.7,-1.5,-1.5Z" class="g4_261"/>
<path d="M642.2,590.7c0,-.9,.7,-1.6,1.5,-1.6c.9,0,1.6,.7,1.6,1.6c0,.8,-.7,1.5,-1.6,1.5c-.8,0,-1.5,-.7,-1.5,-1.5Z" class="g5_261"/>
<path d="M649.8,590.7c0,-.9,.7,-1.6,1.6,-1.6c.8,0,1.5,.7,1.5,1.6c0,.8,-.7,1.5,-1.5,1.5c-.9,0,-1.6,-.7,-1.6,-1.5Z" class="g6_261"/>
<path d="M649.8,590.7c0,-.9,.7,-1.6,1.6,-1.6c.8,0,1.5,.7,1.5,1.6c0,.8,-.7,1.5,-1.5,1.5c-.9,0,-1.6,-.7,-1.6,-1.5Z" class="g5_261"/>
<path d="M651.4,581.5H659" class="g3_261"/>
<path d="M649.8,581.5c0,-.9,.7,-1.5,1.6,-1.5c.8,0,1.5,.6,1.5,1.5c0,.8,-.7,1.5,-1.5,1.5c-.9,0,-1.6,-.7,-1.6,-1.5Z" class="g4_261"/>
<path d="M649.8,581.5c0,-.9,.7,-1.5,1.6,-1.5c.8,0,1.5,.6,1.5,1.5c0,.8,-.7,1.5,-1.5,1.5c-.9,0,-1.6,-.7,-1.6,-1.5Z" class="g5_261"/>
<path d="M657.5,581.5c0,-.9,.7,-1.5,1.5,-1.5c.8,0,1.5,.6,1.5,1.5c0,.8,-.7,1.5,-1.5,1.5c-.8,0,-1.5,-.7,-1.5,-1.5Z" class="g6_261"/>
<path d="M657.5,581.5c0,-.9,.7,-1.5,1.5,-1.5c.8,0,1.5,.6,1.5,1.5c0,.8,-.7,1.5,-1.5,1.5c-.8,0,-1.5,-.7,-1.5,-1.5Z" class="g5_261"/>
<path d="M659,572.3h7.6" class="g3_261"/>
<path d="M657.5,572.3c0,-.8,.7,-1.5,1.5,-1.5c.8,0,1.5,.7,1.5,1.5c0,.9,-.7,1.5,-1.5,1.5c-.8,0,-1.5,-.6,-1.5,-1.5Z" class="g4_261"/>
<path d="M657.5,572.3c0,-.8,.7,-1.5,1.5,-1.5c.8,0,1.5,.7,1.5,1.5c0,.9,-.7,1.5,-1.5,1.5c-.8,0,-1.5,-.6,-1.5,-1.5Z" class="g5_261"/>
<path d="M665.1,572.3c0,-.8,.7,-1.5,1.5,-1.5c.9,0,1.6,.7,1.6,1.5c0,.9,-.7,1.5,-1.6,1.5c-.8,0,-1.5,-.6,-1.5,-1.5Z" class="g6_261"/>
<path d="M665.1,572.3c0,-.8,.7,-1.5,1.5,-1.5c.9,0,1.6,.7,1.6,1.5c0,.9,-.7,1.5,-1.6,1.5c-.8,0,-1.5,-.6,-1.5,-1.5Z" class="g5_261"/>
<path d="M666.5,563.2h7.4" class="g3_261"/>
<path d="M664.9,563.2c0,-.9,.7,-1.6,1.6,-1.6c.8,0,1.5,.7,1.5,1.6c0,.8,-.7,1.5,-1.5,1.5c-.9,0,-1.6,-.7,-1.6,-1.5Z" class="g4_261"/>
<path d="M664.9,563.2c0,-.9,.7,-1.6,1.6,-1.6c.8,0,1.5,.7,1.5,1.6c0,.8,-.7,1.5,-1.5,1.5c-.9,0,-1.6,-.7,-1.6,-1.5Z" class="g5_261"/>
<path d="M672.4,563.2c0,-.9,.7,-1.6,1.5,-1.6c.8,0,1.5,.7,1.5,1.6c0,.8,-.7,1.5,-1.5,1.5c-.8,0,-1.5,-.7,-1.5,-1.5Z" class="g6_261"/>
<path d="M672.4,563.2c0,-.9,.7,-1.6,1.5,-1.6c.8,0,1.5,.7,1.5,1.6c0,.8,-.7,1.5,-1.5,1.5c-.8,0,-1.5,-.7,-1.5,-1.5Z" class="g5_261"/>
<path d="M674.3,554h7.2" class="g3_261"/>
<path d="M672.8,554c0,-.9,.6,-1.5,1.5,-1.5c.8,0,1.5,.6,1.5,1.5c0,.8,-.7,1.5,-1.5,1.5c-.9,0,-1.5,-.7,-1.5,-1.5Z" class="g4_261"/>
<path d="M672.8,554c0,-.9,.6,-1.5,1.5,-1.5c.8,0,1.5,.6,1.5,1.5c0,.8,-.7,1.5,-1.5,1.5c-.9,0,-1.5,-.7,-1.5,-1.5Z" class="g5_261"/>
<path d="M680,554c0,-.9,.7,-1.5,1.5,-1.5c.9,0,1.6,.6,1.6,1.5c0,.8,-.7,1.5,-1.6,1.5c-.8,0,-1.5,-.7,-1.5,-1.5Z" class="g6_261"/>
<path d="M680,554c0,-.9,.7,-1.5,1.5,-1.5c.9,0,1.6,.6,1.6,1.5c0,.8,-.7,1.5,-1.6,1.5c-.8,0,-1.5,-.7,-1.5,-1.5Z" class="g5_261"/>
<path d="M681.9,544.8h6.9" class="g3_261"/>
<path d="M680.4,544.8c0,-.8,.7,-1.5,1.5,-1.5c.9,0,1.6,.7,1.6,1.5c0,.9,-.7,1.5,-1.6,1.5c-.8,0,-1.5,-.6,-1.5,-1.5Z" class="g4_261"/>
<path d="M680.4,544.8c0,-.8,.7,-1.5,1.5,-1.5c.9,0,1.6,.7,1.6,1.5c0,.9,-.7,1.5,-1.6,1.5c-.8,0,-1.5,-.6,-1.5,-1.5Z" class="g5_261"/>
<path d="M687.3,544.8c0,-.8,.7,-1.5,1.5,-1.5c.8,0,1.5,.7,1.5,1.5c0,.9,-.7,1.5,-1.5,1.5c-.8,0,-1.5,-.6,-1.5,-1.5Z" class="g6_261"/>
<path d="M687.3,544.8c0,-.8,.7,-1.5,1.5,-1.5c.8,0,1.5,.7,1.5,1.5c0,.9,-.7,1.5,-1.5,1.5c-.8,0,-1.5,-.6,-1.5,-1.5Z" class="g5_261"/>
<path d="M688.8,535.7h7.6" class="g3_261"/>
<path d="M687.3,535.7c0,-.9,.7,-1.6,1.5,-1.6c.8,0,1.5,.7,1.5,1.6c0,.8,-.7,1.5,-1.5,1.5c-.8,0,-1.5,-.7,-1.5,-1.5Z" class="g4_261"/>
<path d="M687.3,535.7c0,-.9,.7,-1.6,1.5,-1.6c.8,0,1.5,.7,1.5,1.6c0,.8,-.7,1.5,-1.5,1.5c-.8,0,-1.5,-.7,-1.5,-1.5Z" class="g5_261"/>
<path d="M694.9,535.7c0,-.9,.7,-1.6,1.5,-1.6c.9,0,1.6,.7,1.6,1.6c0,.8,-.7,1.5,-1.6,1.5c-.8,0,-1.5,-.7,-1.5,-1.5Z" class="g6_261"/>
<path d="M694.9,535.7c0,-.9,.7,-1.6,1.5,-1.6c.9,0,1.6,.7,1.6,1.6c0,.8,-.7,1.5,-1.6,1.5c-.8,0,-1.5,-.7,-1.5,-1.5Z" class="g5_261"/>
<path d="M696.4,526.5h8.4" class="g3_261"/>
<path d="M694.9,526.5c0,-.9,.7,-1.5,1.5,-1.5c.9,0,1.6,.6,1.6,1.5c0,.8,-.7,1.5,-1.6,1.5c-.8,0,-1.5,-.7,-1.5,-1.5Z" class="g4_261"/>
<path d="M694.9,526.5c0,-.9,.7,-1.5,1.5,-1.5c.9,0,1.6,.6,1.6,1.5c0,.8,-.7,1.5,-1.6,1.5c-.8,0,-1.5,-.7,-1.5,-1.5Z" class="g5_261"/>
<path d="M703.3,526.5c0,-.9,.7,-1.5,1.5,-1.5c.9,0,1.6,.6,1.6,1.5c0,.8,-.7,1.5,-1.6,1.5c-.8,0,-1.5,-.7,-1.5,-1.5Z" class="g6_261"/>
<path d="M703.3,526.5c0,-.9,.7,-1.5,1.5,-1.5c.9,0,1.6,.6,1.6,1.5c0,.8,-.7,1.5,-1.6,1.5c-.8,0,-1.5,-.7,-1.5,-1.5Z" class="g5_261"/>
<path d="M704.8,517.3h6.9" class="g3_261"/>
<path d="M703.3,517.3c0,-.8,.7,-1.5,1.5,-1.5c.9,0,1.6,.7,1.6,1.5c0,.9,-.7,1.5,-1.6,1.5c-.8,0,-1.5,-.6,-1.5,-1.5Z" class="g4_261"/>
<path d="M703.3,517.3c0,-.8,.7,-1.5,1.5,-1.5c.9,0,1.6,.7,1.6,1.5c0,.9,-.7,1.5,-1.6,1.5c-.8,0,-1.5,-.6,-1.5,-1.5Z" class="g5_261"/>
<path d="M710.2,517.3c0,-.8,.7,-1.5,1.5,-1.5c.9,0,1.5,.7,1.5,1.5c0,.9,-.6,1.5,-1.5,1.5c-.8,0,-1.5,-.6,-1.5,-1.5Z" class="g6_261"/>
<path d="M710.2,517.3c0,-.8,.7,-1.5,1.5,-1.5c.9,0,1.5,.7,1.5,1.5c0,.9,-.6,1.5,-1.5,1.5c-.8,0,-1.5,-.6,-1.5,-1.5Z" class="g5_261"/>
<path d="M711.7,508.2h9.2" class="g3_261"/>
<path d="M710.2,508.2c0,-.9,.7,-1.6,1.5,-1.6c.9,0,1.5,.7,1.5,1.6c0,.8,-.6,1.5,-1.5,1.5c-.8,0,-1.5,-.7,-1.5,-1.5Z" class="g4_261"/>
<path d="M710.2,508.2c0,-.9,.7,-1.6,1.5,-1.6c.9,0,1.5,.7,1.5,1.6c0,.8,-.6,1.5,-1.5,1.5c-.8,0,-1.5,-.7,-1.5,-1.5Z" class="g5_261"/>
<path d="M719.4,508.2c0,-.9,.6,-1.6,1.5,-1.6c.8,0,1.5,.7,1.5,1.6c0,.8,-.7,1.5,-1.5,1.5c-.9,0,-1.5,-.7,-1.5,-1.5Z" class="g6_261"/>
<path d="M719.4,508.2c0,-.9,.6,-1.6,1.5,-1.6c.8,0,1.5,.7,1.5,1.6c0,.8,-.7,1.5,-1.5,1.5c-.9,0,-1.5,-.7,-1.5,-1.5Z" class="g5_261"/>
<path d="M720.9,499h10.7" class="g3_261"/>
<path d="M719.4,499c0,-.9,.6,-1.5,1.5,-1.5c.8,0,1.5,.6,1.5,1.5c0,.8,-.7,1.5,-1.5,1.5c-.9,0,-1.5,-.7,-1.5,-1.5Z" class="g4_261"/>
<path d="M719.4,499c0,-.9,.6,-1.5,1.5,-1.5c.8,0,1.5,.6,1.5,1.5c0,.8,-.7,1.5,-1.5,1.5c-.9,0,-1.5,-.7,-1.5,-1.5Z" class="g5_261"/>
<path d="M730,499c0,-.9,.7,-1.5,1.6,-1.5c.8,0,1.5,.6,1.5,1.5c0,.8,-.7,1.5,-1.5,1.5c-.9,0,-1.6,-.7,-1.6,-1.5Z" class="g6_261"/>
<path d="M730,499c0,-.9,.7,-1.5,1.6,-1.5c.8,0,1.5,.6,1.5,1.5c0,.8,-.7,1.5,-1.5,1.5c-.9,0,-1.6,-.7,-1.6,-1.5Z" class="g5_261"/>
<path d="M732,489.8h12.2" class="g3_261"/>
<path d="M730.4,489.8c0,-.8,.7,-1.5,1.6,-1.5c.8,0,1.5,.7,1.5,1.5c0,.9,-.7,1.5,-1.5,1.5c-.9,0,-1.6,-.6,-1.6,-1.5Z" class="g4_261"/>
<path d="M730.4,489.8c0,-.8,.7,-1.5,1.6,-1.5c.8,0,1.5,.7,1.5,1.5c0,.9,-.7,1.5,-1.5,1.5c-.9,0,-1.6,-.6,-1.6,-1.5Z" class="g5_261"/>
<path d="M742.7,489.8c0,-.8,.6,-1.5,1.5,-1.5c.8,0,1.5,.7,1.5,1.5c0,.9,-.7,1.5,-1.5,1.5c-.9,0,-1.5,-.6,-1.5,-1.5Z" class="g6_261"/>
<path d="M742.7,489.8c0,-.8,.6,-1.5,1.5,-1.5c.8,0,1.5,.7,1.5,1.5c0,.9,-.7,1.5,-1.5,1.5c-.9,0,-1.5,-.6,-1.5,-1.5Z" class="g5_261"/>
<path d="M744.6,480.7h16" class="g3_261"/>
<path d="M743,480.7c0,-.9,.7,-1.6,1.6,-1.6c.8,0,1.5,.7,1.5,1.6c0,.8,-.7,1.5,-1.5,1.5c-.9,0,-1.6,-.7,-1.6,-1.5Z" class="g4_261"/>
<path d="M743,480.7c0,-.9,.7,-1.6,1.6,-1.6c.8,0,1.5,.7,1.5,1.6c0,.8,-.7,1.5,-1.5,1.5c-.9,0,-1.6,-.7,-1.6,-1.5Z" class="g5_261"/>
<path d="M759.1,480.7c0,-.9,.7,-1.6,1.5,-1.6c.8,0,1.5,.7,1.5,1.6c0,.8,-.7,1.5,-1.5,1.5c-.8,0,-1.5,-.7,-1.5,-1.5Z" class="g6_261"/>
<path d="M759.1,480.7c0,-.9,.7,-1.6,1.5,-1.6c.8,0,1.5,.7,1.5,1.6c0,.8,-.7,1.5,-1.5,1.5c-.8,0,-1.5,-.7,-1.5,-1.5Z" class="g5_261"/>
<path d="M760.6,471.5h27.5" class="g3_261"/>
<path d="M759.1,471.5c0,-.9,.7,-1.5,1.5,-1.5c.8,0,1.5,.6,1.5,1.5c0,.8,-.7,1.5,-1.5,1.5c-.8,0,-1.5,-.7,-1.5,-1.5Z" class="g4_261"/>
<path d="M759.1,471.5c0,-.9,.7,-1.5,1.5,-1.5c.8,0,1.5,.6,1.5,1.5c0,.8,-.7,1.5,-1.5,1.5c-.8,0,-1.5,-.7,-1.5,-1.5Z" class="g5_261"/>
<path d="M786.6,471.5c0,-.9,.7,-1.5,1.5,-1.5c.8,0,1.5,.6,1.5,1.5c0,.8,-.7,1.5,-1.5,1.5c-.8,0,-1.5,-.7,-1.5,-1.5Z" class="g6_261"/>
<path d="M786.6,471.5c0,-.9,.7,-1.5,1.5,-1.5c.8,0,1.5,.6,1.5,1.5c0,.8,-.7,1.5,-1.5,1.5c-.8,0,-1.5,-.7,-1.5,-1.5Z" class="g5_261"/>
<path d="M430.7,709.8H785.1" class="g7_261"/>
<path fill-rule="evenodd" d="M785.1,709.8l-1.6,-2.4l6.5,2.4l-6.5,2.5Z" class="g8_261"/>
<path d="M458.1,737.3V470" class="g7_261"/>
<path fill-rule="evenodd" d="M458.1,470l-2.4,1.6l2.4,-6.5l2.4,6.5Z" class="g8_261"/>
<image clip-path="url(#c2_261)" preserveAspectRatio="none" x="119" y="775" width="211" height="165" xlink:href="img/1.jpg"/>
</svg>