<?xml version="1.0" encoding="UTF-8" standalone="no"?>
<!DOCTYPE svg PUBLIC "-//W3C//DTD SVG 1.1//EN"
"http://www.w3.org/Graphics/SVG/1.1/DTD/svg11.dtd">
<svg viewBox="0 0 770 1017" version="1.1" xmlns="http://www.w3.org/2000/svg" xmlns:xlink="http://www.w3.org/1999/xlink">
<defs>
<style type="text/css"><![CDATA[
.g0_560{
fill: none;
stroke: #000000;
stroke-width: 0.618;
stroke-linecap: butt;
stroke-linejoin: miter;
}
.g1_560{
stroke: #000000;
stroke-width: 1.793;
stroke-linecap: butt;
stroke-linejoin: miter;
}
.g2_560{
fill: none;
stroke: #000000;
stroke-width: 1.793;
stroke-linecap: butt;
stroke-linejoin: miter;
}
.g3_560{
stroke: #000000;
stroke-width: 0.753;
stroke-linecap: butt;
stroke-linejoin: miter;
}
.g4_560{
fill: none;
stroke: #000000;
stroke-width: 3.011;
stroke-linecap: butt;
stroke-linejoin: miter;
}
]]></style>
</defs>
<path d="M56,69.2H695.2" class="g0_560"/>
<path d="M107.8,124.5c0,1.5,-1.2,2.7,-2.7,2.7c-1.5,0,-2.7,-1.2,-2.7,-2.7c0,-1.5,1.2,-2.7,2.7,-2.7c1.5,0,2.7,1.2,2.7,2.7" class="g1_560"/>
<path d="M209.1,194.5c0,1.5,-1.2,2.7,-2.7,2.7c-1.5,0,-2.7,-1.2,-2.7,-2.7c0,-1.5,1.2,-2.7,2.7,-2.7c1.5,0,2.7,1.2,2.7,2.7" class="g1_560"/>
<path d="M146.3,237.5c0,1.5,-1.2,2.7,-2.7,2.7c-1.4,0,-2.6,-1.2,-2.6,-2.7c0,-1.5,1.2,-2.7,2.6,-2.7c1.5,0,2.7,1.2,2.7,2.7" class="g1_560"/>
<path d="M85.3,193.6c0,1.5,-1.2,2.7,-2.7,2.7c-1.4,0,-2.7,-1.2,-2.7,-2.7c0,-1.5,1.3,-2.7,2.7,-2.7c1.5,0,2.7,1.2,2.7,2.7" class="g1_560"/>
<path d="M184,125.4c0,1.5,-1.2,2.7,-2.7,2.7c-1.5,0,-2.7,-1.2,-2.7,-2.7c0,-1.5,1.2,-2.7,2.7,-2.7c1.5,0,2.7,1.2,2.7,2.7" class="g1_560"/>
<path d="M124.8,155c0,1.5,-1.2,2.7,-2.7,2.7c-1.5,0,-2.7,-1.2,-2.7,-2.7c0,-1.5,1.2,-2.7,2.7,-2.7c1.5,0,2.7,1.2,2.7,2.7" class="g1_560"/>
<path d="M166.1,155.9c0,1.5,-1.2,2.7,-2.7,2.7c-1.5,0,-2.7,-1.2,-2.7,-2.7c0,-1.5,1.2,-2.7,2.7,-2.7c1.5,0,2.7,1.2,2.7,2.7" class="g1_560"/>
<path d="M146.3,195.4c0,1.4,-1.2,2.7,-2.7,2.7c-1.4,0,-2.6,-1.3,-2.6,-2.7c0,-1.5,1.2,-2.7,2.6,-2.7c1.5,0,2.7,1.2,2.7,2.7" class="g1_560"/>
<path d="M124.8,293.1c0,1.5,-1.2,2.7,-2.7,2.7c-1.5,0,-2.7,-1.2,-2.7,-2.7c0,-1.5,1.2,-2.7,2.7,-2.7c1.5,0,2.7,1.2,2.7,2.7" class="g1_560"/>
<path d="M167,293.1c0,1.5,-1.2,2.7,-2.7,2.7c-1.5,0,-2.7,-1.2,-2.7,-2.7c0,-1.5,1.2,-2.7,2.7,-2.7c1.5,0,2.7,1.2,2.7,2.7" class="g1_560"/>
<path d="M278.2,225c0,1.5,-1.2,2.7,-2.7,2.7c-1.5,0,-2.7,-1.2,-2.7,-2.7c0,-1.5,1.2,-2.7,2.7,-2.7c1.5,0,2.7,1.2,2.7,2.7" class="g1_560"/>
<path d="M340,269.8c0,1.5,-1.2,2.7,-2.6,2.7c-1.5,0,-2.7,-1.2,-2.7,-2.7c0,-1.5,1.2,-2.7,2.7,-2.7c1.4,0,2.6,1.2,2.6,2.7" class="g1_560"/>
<path d="M315.8,337.1c0,1.5,-1.2,2.7,-2.7,2.7c-1.5,0,-2.7,-1.2,-2.7,-2.7c0,-1.5,1.2,-2.7,2.7,-2.7c1.5,0,2.7,1.2,2.7,2.7" class="g1_560"/>
<path d="M237.8,337.1c0,1.5,-1.2,2.7,-2.7,2.7c-1.5,0,-2.7,-1.2,-2.7,-2.7c0,-1.5,1.2,-2.7,2.7,-2.7c1.5,0,2.7,1.2,2.7,2.7" class="g1_560"/>
<path d="M216.3,269.8c0,1.5,-1.2,2.7,-2.7,2.7c-1.5,0,-2.7,-1.2,-2.7,-2.7c0,-1.5,1.2,-2.7,2.7,-2.7c1.5,0,2.7,1.2,2.7,2.7" class="g1_560"/>
<path d="M277.3,255.5c0,1.5,-1.2,2.7,-2.7,2.7c-1.5,0,-2.7,-1.2,-2.7,-2.7c0,-1.5,1.2,-2.7,2.7,-2.7c1.5,0,2.7,1.2,2.7,2.7" class="g1_560"/>
<path d="M243.2,277.9c0,1.5,-1.2,2.7,-2.7,2.7c-1.5,0,-2.7,-1.2,-2.7,-2.7c0,-1.5,1.2,-2.7,2.7,-2.7c1.5,0,2.7,1.2,2.7,2.7" class="g1_560"/>
<path d="M254.8,314.7c0,1.5,-1.2,2.7,-2.6,2.7c-1.5,0,-2.7,-1.2,-2.7,-2.7c0,-1.5,1.2,-2.7,2.7,-2.7c1.4,0,2.6,1.2,2.6,2.7" class="g1_560"/>
<path d="M299.7,314.7c0,1.5,-1.2,2.7,-2.7,2.7c-1.5,0,-2.7,-1.2,-2.7,-2.7c0,-1.5,1.2,-2.7,2.7,-2.7c1.5,0,2.7,1.2,2.7,2.7" class="g1_560"/>
<path d="M312.2,277.9c0,1.5,-1.2,2.7,-2.6,2.7c-1.5,0,-2.7,-1.2,-2.7,-2.7c0,-1.5,1.2,-2.7,2.7,-2.7c1.4,0,2.6,1.2,2.6,2.7" class="g1_560"/>
<path d="M104.2,126.3L82.6,193.6l61,43.9l62.8,-43.9L181.3,125.4H105.1M123,155.9l-.9,137.2h42.2V155.9m17.9,-28.7L122.1,155l21.5,40.4M106,126.3l57.4,29.6l-18.9,38.6m-.9,2.7v39.4m91.5,99.6L213.6,268.9l61,-43.9l62.8,43.9l-25.2,68.2H236m6.3,-61h67.3l-57.4,38.6l23.3,-60.1l22.4,60.1L240.5,277m46.6,-26v0M275.5,226.8v26.9m-61,17l25.1,6.3m13.5,38.6l-18,20.6m63.7,-21.5l14.3,22.4m-2.6,-59.2l26.9,-9M122.1,293.1L81.7,194.5m80.8,98.6l44.8,-98.6" class="g2_560"/>
<path d="M380.7,358.3V102.4" class="g0_560"/>
<path fill-rule="evenodd" d="M626.3,159.3c0,4.1,-3.4,7.5,-7.5,7.5c-4.2,0,-7.5,-3.4,-7.5,-7.5c0,-4.2,3.3,-7.6,7.5,-7.6c4.1,0,7.5,3.4,7.5,7.6Z" class="g3_560"/>
<path fill-rule="evenodd" d="M558.6,129.2c0,4.1,-3.4,7.5,-7.5,7.5c-4.2,0,-7.6,-3.4,-7.6,-7.5c0,-4.2,3.4,-7.5,7.6,-7.5c4.1,0,7.5,3.3,7.5,7.5Z" class="g3_560"/>
<path fill-rule="evenodd" d="M656.4,212c0,4.1,-3.3,7.5,-7.5,7.5c-4.1,0,-7.5,-3.4,-7.5,-7.5c0,-4.2,3.4,-7.6,7.5,-7.6c4.2,0,7.5,3.4,7.5,7.6Z" class="g3_560"/>
<path fill-rule="evenodd" d="M460.7,279.7c0,4.2,-3.3,7.5,-7.5,7.5c-4.1,0,-7.5,-3.3,-7.5,-7.5c0,-4.2,3.4,-7.5,7.5,-7.5c4.2,0,7.5,3.3,7.5,7.5Z" class="g3_560"/>
<path fill-rule="evenodd" d="M648.9,279.7c0,4.2,-3.4,7.5,-7.5,7.5c-4.2,0,-7.6,-3.3,-7.6,-7.5c0,-4.2,3.4,-7.5,7.6,-7.5c4.1,0,7.5,3.3,7.5,7.5Z" class="g3_560"/>
<path fill-rule="evenodd" d="M453.2,212c0,4.1,-3.4,7.5,-7.5,7.5c-4.2,0,-7.5,-3.4,-7.5,-7.5c0,-4.2,3.3,-7.6,7.5,-7.6c4.1,0,7.5,3.4,7.5,7.6Z" class="g3_560"/>
<path fill-rule="evenodd" d="M490.8,151.8c0,4.1,-3.3,7.5,-7.5,7.5c-4.1,0,-7.5,-3.4,-7.5,-7.5c0,-4.2,3.4,-7.6,7.5,-7.6c4.2,0,7.5,3.4,7.5,7.6Z" class="g3_560"/>
<path fill-rule="evenodd" d="M513.4,332.4c0,4.1,-3.3,7.5,-7.5,7.5c-4.1,0,-7.5,-3.4,-7.5,-7.5c0,-4.2,3.4,-7.5,7.5,-7.5c4.2,0,7.5,3.3,7.5,7.5Z" class="g3_560"/>
<path fill-rule="evenodd" d="M596.2,332.4c0,4.1,-3.4,7.5,-7.5,7.5c-4.2,0,-7.5,-3.4,-7.5,-7.5c0,-4.2,3.3,-7.5,7.5,-7.5c4.1,0,7.5,3.3,7.5,7.5Z" class="g3_560"/>
<path fill-rule="evenodd" d="M558.6,234.5c0,4.2,-3.4,7.6,-7.5,7.6c-4.2,0,-7.6,-3.4,-7.6,-7.6c0,-4.1,3.4,-7.5,7.6,-7.5c4.1,0,7.5,3.4,7.5,7.5Z" class="g3_560"/>
<path d="M505.9,332.4h82.8l52.7,-52.7L648.9,212L618.8,159.3L551.1,129.2l-67.8,22.6L445.7,212l7.5,67.7l52.7,52.7M453.2,279.7l97.9,-45.2l90.3,45.2M483.3,151.8L588.7,332.4m-82.8,0L618.8,159.3M445.7,212H648.9M551.1,129.2V234.5" class="g4_560"/>
<path d="M65.1,384.6h621" class="g0_560"/>
</svg>