<?xml version="1.0" encoding="UTF-8" standalone="no"?>
<!DOCTYPE svg PUBLIC "-//W3C//DTD SVG 1.1//EN"
"http://www.w3.org/Graphics/SVG/1.1/DTD/svg11.dtd">
<svg viewBox="0 0 907 1045" version="1.1" xmlns="http://www.w3.org/2000/svg" xmlns:xlink="http://www.w3.org/1999/xlink">
<defs>
<clipPath id="c0_275"><path d="M-2.6,1047.7V-2.6H910.2V1047.7Z"/></clipPath>
<style type="text/css"><![CDATA[
.g0_275{
fill: #C7C7C7;
}
.g1_275{
fill: none;
stroke: #000000;
stroke-width: 1.258;
stroke-linecap: butt;
stroke-linejoin: miter;
stroke-miterlimit: 4;
}
.g2_275{
fill: none;
stroke: #000000;
stroke-width: 0.889;
stroke-linecap: butt;
stroke-linejoin: miter;
stroke-miterlimit: 4;
}
.g3_275{
fill: #FFFFFF;
}
.g4_275{
fill: none;
stroke: #C7C7C7;
stroke-width: 1.258;
stroke-linecap: butt;
stroke-linejoin: miter;
stroke-miterlimit: 4;
}
.g5_275{
fill: none;
stroke: #636363;
stroke-width: 1.527;
stroke-linecap: butt;
stroke-linejoin: miter;
stroke-miterlimit: 4;
}
.g6_275{
fill: none;
stroke: #C7C7C7;
stroke-width: 4.583;
stroke-linecap: butt;
stroke-linejoin: miter;
stroke-miterlimit: 4;
}
.g7_275{
fill: none;
stroke: #FFFFFF;
stroke-width: 1.909;
stroke-linecap: butt;
stroke-linejoin: miter;
}
.g8_275{
fill: none;
stroke: #000000;
stroke-width: 0.381;
stroke-linecap: butt;
stroke-linejoin: miter;
}
]]></style>
</defs>
<path d="M205.9,513.6v97.9h97.9V513.6H205.9Z" class="g0_275"/>
<path d="M205.9,513.6v97.9h97.9V513.6H205.9Z" class="g1_275"/>
<path d="M302.9,584.6l20.8,-20.8L303.2,543.3Z" class="g0_275"/>
<path d="M302.9,584.6l20.8,-20.8L303.2,543.3" class="g2_275"/>
<path d="M348.5,543.1V513.6h59.9v97.9H348.5V584.8Z" class="g0_275"/>
<path d="M348.5,543.1V513.6h59.9v97.9H348.5V584.8" class="g1_275"/>
<path d="M348.1,584.4l20.8,-20.8L348.4,543Z" class="g3_275"/>
<path d="M348.1,584.4l20.8,-20.8L348.4,543" class="g2_275"/>
<path d="M407.8,541.4c11.2,0,20.3,9.1,20.3,20.3c0,11.3,-9.1,20.4,-20.3,20.4Z" class="g0_275"/>
<path d="M407.8,541.4c11.2,0,20.3,9.1,20.3,20.3c0,11.3,-9.1,20.4,-20.3,20.4" class="g1_275"/>
<path d="M458,583.1v28.4h97.9V513.6H458v28.7Z" class="g0_275"/>
<path d="M458,583.1v28.4h97.9V513.6H458v28.7" class="g1_275"/>
<path d="M457.6,583.1c11.3,0,20.4,-9.1,20.4,-20.4c0,-11.2,-9.1,-20.3,-20.4,-20.3Z" class="g3_275"/>
<path d="M457.6,583.1c11.3,0,20.4,-9.1,20.4,-20.4c0,-11.2,-9.1,-20.3,-20.4,-20.3" class="g1_275"/>
<path d="M408.3,541.8v39.4" class="g4_275"/>
<path d="M250.7,222.6v97.9h97.9V222.6H250.7Z" class="g0_275"/>
<path d="M250.7,222.6v97.9h97.9V222.6H250.7Z" class="g1_275"/>
<path d="M347.7,293.6l20.8,-20.8L348,252.3Z" class="g0_275"/>
<path d="M347.7,293.6l20.8,-20.8L348,252.3" class="g2_275"/>
<path d="M394.6,292.1v28.4h97.9V222.6H394.6v28.7Z" class="g0_275"/>
<path d="M394.6,292.1v28.4h97.9V222.6H394.6v28.7" class="g1_275"/>
<path d="M394.2,292.1c11.3,0,20.4,-9.2,20.4,-20.4c0,-11.2,-9.1,-20.3,-20.4,-20.3Z" class="g3_275"/>
<path d="M394.2,292.1c11.3,0,20.4,-9.2,20.4,-20.4c0,-11.2,-9.1,-20.3,-20.4,-20.3" class="g1_275"/>
<path d="M393.4,377.1c-1.5,0,-2.9,.3,-4.3,0c-2.1,-.4,-3.9,-1.2,-5.8,-2.2c-3,-1.5,-6.3,-3.4,-8.1,-6.4c-2.1,-3.4,-3.8,-6.8,-4.5,-10.8c-.2,-1.6,-.3,-3.3,-.2,-4.9c.1,-1.6,0,-3.3,.1,-4.9c.1,-1.8,1,-3.3,1.4,-5c.4,-1.9,.3,-3.9,.5,-5.8c.1,-1.3,.2,-2.6,.5,-3.9c.3,-1.4,.4,-2.9,.9,-4.3c.6,-1.4,.8,-2.6,1,-4c.3,-1.2,1,-2,1.7,-3.1c.5,-.9,.5,-2.1,.9,-3.1c-.8,.6,-1.6,1.1,-2.4,1.6c-.7,.5,-1.6,1.8,-2.5,1.8c1.3,-1.6,3.6,-2.7,4.2,-4.7c.7,3.1,4.3,3.9,6.5,5.5c.5,.4,.7,1.1,1.5,1.2M278.5,927.9c-.1,-3.9,1.4,-8,2.5,-11.7c.4,-1.7,.8,-3.6,1.4,-5.2c.2,-.6,.7,-1.2,.8,-1.7c-1.5,-.5,-2.5,3.9,-3.6,4.3c.2,-1.9,2.6,-4,3.9,-5.4c.5,3.8,4.3,5.3,6.6,7.8m86.6,24c.2,-3.6,1,-7.3,1.6,-10.9c.2,-1.7,.3,-3.5,.8,-5.1c.1,-.4,.3,-.7,.4,-1.1c.2,-.6,0,-1.3,.2,-2c.2,-.6,.4,-1.6,.8,-2c-1.9,1.3,-3.7,3.5,-5,5.4c-.5,.7,-.7,1.3,-1.3,1.7c.8,0,3,-3.5,3.6,-4.3c1.1,-1.2,1.8,-1.9,3.3,-2.5c.3,1,.6,1.9,1.3,2.8c1.5,1.2,3.1,2.4,4.8,3.3c-.5,-.3,2.3,1.9,2.6,1.9m85.4,4.7c-1.8,-3.6,-1.4,-7.6,-3.6,-11c-1,-1.6,-1.7,-3.3,-2.3,-5.1c-.4,-1.1,-.8,-2.1,-.9,-3.2c-.1,-.7,-.5,-1.8,-.4,-2.4c-.2,1.7,-.9,3.2,-1.8,4.6c-.6,.8,-.9,2.8,-1.9,3.3c.4,-1.2,1.3,-2.4,1.9,-3.4c.7,-1.1,.9,-2.4,1.6,-3.4c1.1,.7,2.2,1.5,3.4,2.1c2.3,1.1,4.9,1.8,7.1,3" class="g5_275"/>
<path d="M412.9,867.6V896h97.9V798.1H412.9v28.7Z" class="g0_275"/>
<path d="M412.9,867.6V896h97.9V798.1H412.9v28.7" class="g1_275"/>
<path d="M412.6,867.6c11.2,0,20.3,-9.1,20.3,-20.3c0,-11.3,-9.1,-20.4,-20.3,-20.4Z" class="g3_275"/>
<path d="M412.6,867.6c11.2,0,20.3,-9.1,20.3,-20.3c0,-11.3,-9.1,-20.4,-20.3,-20.4" class="g1_275"/>
<path d="M355.4,827.7V798.1h59.9V896H355.4V869.3Z" class="g0_275"/>
<path d="M355.4,827.7V798.1h59.9V896H355.4V869.3" class="g1_275"/>
<path d="M355,868.9l20.8,-20.8L355.3,827.6Z" class="g3_275"/>
<path d="M355,868.9l20.8,-20.8L355.3,827.6" class="g2_275"/>
<path d="M415.2,825.9c11.3,0,20.4,9.1,20.4,20.3c0,11.3,-9.1,20.4,-20.4,20.4Z" class="g0_275"/>
<path d="M415.2,825.9c11.3,0,20.4,9.1,20.4,20.3c0,11.3,-9.1,20.4,-20.4,20.4" class="g1_275"/>
<path d="M415.2,826.3v39.4" class="g4_275"/>
<path d="M258.6,798.1V896h97.9V798.1H258.6Z" class="g0_275"/>
<path d="M258.6,798.1V896h97.9V798.1H258.6Z" class="g1_275"/>
<path d="M355.6,869.2l20.8,-20.8L355.9,827.8Z" class="g0_275"/>
<path d="M355.6,869.2l20.8,-20.8L355.9,827.8" class="g2_275"/>
<path d="M430.1,668.8c-.7,-2.5,-2.2,-4.6,-2.9,-7.2c-2,-6.6,-2.1,-12.9,-2.1,-19.7c0,-4,.4,-7.6,.9,-11.6c.7,-6.6,.8,-13.4,2.8,-19.7c1.2,-3.6,3.2,-6.9,4.8,-10.4c.7,-1.7,1.5,-3.4,2.3,-5.1c1,-2.1,1.7,-4.5,2.9,-6.5c2.6,-4.4,6.4,-7.5,9.9,-11.1c-1,-.2,-1.9,.3,-2.8,.8c-2.5,1.1,-4.7,2.6,-6.9,4.2c1.5,-1.3,3.1,-2.3,4.7,-3.5c.7,-.5,2.1,-2.2,3.2,-1.4c1.1,.7,.2,3.8,.1,4.8c-.2,1.9,-.1,3.6,.3,5.4M320.1,655.4c-1.8,-1,-1.5,-5.4,-1.6,-7c-.6,-5.1,-1.1,-10.1,-1.6,-15.1c-.8,-9.3,.2,-18.2,2.4,-27.2c.4,-1.6,1.1,-3.1,1.5,-4.7c.3,-1.8,.5,-3.4,1.3,-5.1c1.3,-2.9,3.6,-5.3,5.4,-7.9c1.7,-2.5,3.8,-4.6,5.4,-7c1.6,-2.3,4.2,-3.4,6.2,-5.4c-2.8,-.4,-6.8,1.1,-8.8,3.1c.5,1.4,1.5,.1,2.3,-.5c1.9,-1.4,4.3,-2.6,6.6,-3.2c1.9,-.5,1.4,.2,1.5,1.7c0,1.2,0,4,.8,5" class="g5_275"/>
<path d="M407.7,542.1v39M302.9,546.9v33.5M414.3,826.6v38.1M355.2,831.1v35.1M348,256.3v33.5" class="g6_275"/>
<g clip-path="url(#c0_275)">
<path d="M-4.5,13.7H-27.4m939.5,0H935M-4.5,1031.2H-27.4m939.5,0H935M13.7,-4.5V-27.4m0,1077v22.9m880,-1077V-27.4m0,1077v22.9" class="g7_275"/>
<path d="M-4.5,13.7H-27.4m939.5,0H935M-4.5,1031.2H-27.4m939.5,0H935M13.7,-4.5V-27.4m0,1077v22.9m880,-1077V-27.4m0,1077v22.9" class="g8_275"/>
</g>
</svg>