<?xml version="1.0" encoding="UTF-8" standalone="no"?>
<!DOCTYPE svg PUBLIC "-//W3C//DTD SVG 1.1//EN"
"http://www.w3.org/Graphics/SVG/1.1/DTD/svg11.dtd">
<svg viewBox="0 0 931 1096" version="1.1" xmlns="http://www.w3.org/2000/svg" xmlns:xlink="http://www.w3.org/1999/xlink">
<defs>
<clipPath id="c0_259"><path d="M152,253.4V113.8H286.2V253.4Z"/></clipPath>
<clipPath id="c1_259"><path d="M344.9,253.4V118.1H479V253.4Z"/></clipPath>
<clipPath id="c2_259"><path d="M152,445.5V429.8H262.7v15.7Z"/></clipPath>
<style type="text/css"><![CDATA[
.g0_259{
fill: none;
stroke: #00AEEF;
stroke-width: 0.763;
stroke-miterlimit: 10;
}
.g1_259{
fill: none;
stroke: #241F1F;
stroke-width: 0.481;
stroke-miterlimit: 10;
}
.g2_259{
fill: #CFEDFC;
}
.g3_259{
fill: #D6DBDF;
}
.g4_259{
fill: none;
stroke: #00AEEF;
stroke-width: 1.069;
stroke-linejoin: round;
}
.g5_259{
fill: none;
stroke: #241F1F;
stroke-width: 0.611;
stroke-miterlimit: 3;
}
.g6_259{
fill: #241F1F;
}
.g7_259{
fill: none;
stroke: #241F1F;
stroke-width: 0.381;
stroke-miterlimit: 3;
}
.g8_259{
fill: none;
stroke: #241F1F;
stroke-width: 0.763;
}
.g9_259{
fill: none;
stroke: #00AEEF;
stroke-width: 0.916;
stroke-linejoin: round;
}
.ga_259{
fill: none;
stroke: #241F1F;
stroke-width: 0.381;
stroke-linejoin: round;
}
.gb_259{
fill: none;
stroke: #00AEEF;
stroke-width: 0.916;
stroke-linecap: square;
stroke-miterlimit: 10;
}
.gc_259{
fill: none;
stroke: #241F1F;
stroke-width: 0.687;
stroke-miterlimit: 10;
}
]]></style>
</defs>
<path d="M521,364.2H878.5M521,954.6H878.5M521,1043.3H878.5" class="g0_259"/>
<path d="M682.3,120.1H687" class="g1_259"/>
<path d="M768,727.1c0,-33.4,-29.9,-57.4,-59.5,-57.4c-29.6,0,-59.6,24,-59.6,57.4c0,4.4,.5,8.6,1.5,12.5H766.5c1,-3.9,1.5,-8.1,1.5,-12.5Z" class="g2_259"/>
<path d="M614.5,658.3v81.3h35.9c-1,-3.9,-1.5,-8.1,-1.5,-12.5c0,-33.4,30,-57.4,59.6,-57.4c29.6,0,59.5,24,59.5,57.4c0,4.4,-.5,8.6,-1.5,12.5h35.9V658.3Z" class="g3_259"/>
<path d="M708.5,669.7c29.6,0,59.5,24,59.5,57.4c0,26.8,-19.6,45.9,-40.3,45.9c-16.2,0,-19.3,-11.4,-19.3,-11.4c0,0,-3,11.4,-19.2,11.4c-20.7,0,-40.3,-19.1,-40.3,-45.9c0,-33.4,30,-57.4,59.6,-57.4Z" class="g4_259"/>
<path d="M708.4,736V673.2" class="g5_259"/>
<path d="M708.4,669.7l2,4.9l-2,-1.2l-1.9,1.2Z" class="g6_259"/>
<path d="M708.4,739.4l-1.9,-4.8l1.9,1.1l2,-1.1Z" class="g6_259"/>
<path d="M708.4,758.1V743.3" class="g5_259"/>
<path d="M708.4,739.8l2,4.9l-2,-1.2l-1.9,1.2Z" class="g6_259"/>
<path d="M708.4,761.6l-1.9,-4.9l1.9,1.2l2,-1.2Z" class="g6_259"/>
<path d="M707.2,714.6h2.5V700.3h-2.5v14.3Z" class="g2_259"/>
<path d="M710,761.6c0,.8,-.7,1.5,-1.6,1.5c-.8,0,-1.5,-.7,-1.5,-1.5c0,-.9,.7,-1.6,1.5,-1.6c.9,0,1.6,.7,1.6,1.6Z" class="g6_259"/>
<path d="M751.6,772.8L714.9,763" class="g7_259"/>
<path d="M711.7,762.1l4.6,-.5l-1.4,1.4l.6,1.9Z" class="g6_259"/>
<path d="M614.5,739.6H802.4V658.3H614.5v81.3Z" class="g8_259"/>
<path d="M126.8,269.9H484.3M126.8,364.6H484.3M126.8,459.3H484.3m-357.5,136H484.3M126.8,850.4H484.3m-357.5,194H484.3" class="g0_259"/>
<path d="M216.7,127.6c28.9,0,48.4,24.5,48.4,46.5c0,21.4,-16,37.8,-32.7,37.8c-9.9,0,-11.3,-3.3,-15.7,-3.3Z" class="g2_259"/>
<path d="M216.7,127.6c28.9,0,48.4,24.5,48.4,46.5c0,21.4,-16,37.8,-32.7,37.8c-9.9,0,-11.3,-3.3,-15.7,-3.3c-4.4,0,-5.8,3.3,-15.7,3.3c-16.8,0,-32.8,-16.4,-32.8,-37.8c0,-22,19.5,-46.5,48.5,-46.5Z" class="g9_259"/>
<path d="M152,198.7H281.3" class="g5_259"/>
<path clip-path="url(#c0_259)" fill-rule="evenodd" d="M281.3,198.7l-1.7,-2.5l6.6,2.5l-6.6,2.4Z" class="g6_259"/>
<path d="M216.7,223.8v-110" class="g5_259"/>
<path d="M408.1,168.1l3.3,-5.3l1.1,-2.3l.6,-1.8l.4,-1.5l.4,-2.4l-.1,-2l-.9,-3.8L411,146l-2.4,-2.4l-2.8,-1.7l-3.1,-1.1l-3.5,-.7h-3.6l-3.8,.6l-3.3,1l-3.6,1.6l-3.4,2.2l-3,2.6l-2.5,2.7l-2.6,3.6l-1.9,3.4l-1.6,4.3l-1.1,3.9l-.6,4.5v4.4l.4,4.6l1,4.2l1.5,4.5l2.2,4.5l2.3,3.6l3,3.7l3.5,3.5l3.9,3l4.1,2.5l4.9,2.3l4.6,1.5l5.1,1l4.7,.5l5.3,-.1l4.9,-.7l5.1,-1.2l4.9,-1.8l4.8,-2.4l4.4,-2.9l4.2,-3.5l3.7,-3.9l3.1,-3.9l3,-4.9l2.1,-4.7l1.8,-5.2l1.1,-5.2l.6,-5.8" class="ga_259"/>
<path d="M458.4,167.9c-1.4,23.8,-19.3,46.7,-50.5,46.2c-21.1,-.3,-43.6,-22.3,-39.4,-46.2c4.4,-24.5,28,-33,39.4,-24.7c10.5,7.6,5.1,18.1,0,24.7Z" class="g2_259"/>
<path d="M458.4,167.9c-1.4,23.8,-19.3,46.7,-50.5,46.2c-21.1,-.3,-43.6,-22.3,-39.4,-46.2c4.4,-24.5,28,-33,39.4,-24.7c10.5,7.6,5.1,18.1,0,24.7" class="gb_259"/>
<path d="M344.9,167.9H474.1" class="g5_259"/>
<path clip-path="url(#c1_259)" fill-rule="evenodd" d="M474.1,167.9l-1.6,-2.4l6.5,2.4l-6.5,2.5Z" class="g6_259"/>
<path d="M407.9,228.7V118.2" class="g5_259"/>
<path clip-path="url(#c2_259)" d="M187.6,430.1h75.5" class="gc_259"/>
</svg>