<?xml version="1.0" encoding="UTF-8" standalone="no"?>
<!DOCTYPE svg PUBLIC "-//W3C//DTD SVG 1.1//EN"
"http://www.w3.org/Graphics/SVG/1.1/DTD/svg11.dtd">
<svg viewBox="0 0 907 1045" version="1.1" xmlns="http://www.w3.org/2000/svg" xmlns:xlink="http://www.w3.org/1999/xlink">
<defs>
<clipPath id="c0_309"><path d="M91,182.5V94.1H192.1v88.4Z"/></clipPath>
<clipPath id="c1_309"><path d="M136.4,897.1V232.7H779.9V897.1Z"/></clipPath>
<clipPath id="c2_309"><path d="M-2.6,1047.7V-2.6H910.2V1047.7Z"/></clipPath>
<style type="text/css"><![CDATA[
.g0_309{
fill: none;
stroke: #000000;
stroke-width: 0.763;
stroke-linecap: butt;
stroke-linejoin: miter;
stroke-miterlimit: 4;
}
.g1_309{
fill: #5E5E5E;
}
.g2_309{
fill: #FFFFFF;
}
.g3_309{
fill: none;
stroke: #5E5E5E;
stroke-width: 1.165;
stroke-linecap: butt;
stroke-linejoin: miter;
}
.g4_309{
fill: none;
stroke: #FFFFFF;
stroke-width: 1.909;
stroke-linecap: butt;
stroke-linejoin: miter;
}
.g5_309{
fill: none;
stroke: #000000;
stroke-width: 0.381;
stroke-linecap: butt;
stroke-linejoin: miter;
}
]]></style>
</defs>
<path d="M161.1,232.8V629.5H744.9V232.8H161.1Z" class="g0_309"/>
<image clip-path="url(#c0_309)" preserveAspectRatio="none" x="67" y="65" width="155" height="155" xlink:href="img/1.jpg"/>
<g clip-path="url(#c1_309)">
<path d="M160.9,232.7h24.5v24.5H160.9Z" class="g1_309"/>
<path d="M184.2,232.7h24.5v24.5H184.2Z" class="g1_309"/>
<path d="M207.5,232.7H232v24.5H207.5Z" class="g1_309"/>
<path d="M230.9,232.7h24.4v24.5H230.9Z" class="g1_309"/>
<path d="M254.2,232.7h24.4v24.5H254.2Z" class="g1_309"/>
<path d="M277.5,232.7H302v24.5H277.5Z" class="g1_309"/>
<path d="M300.8,232.7h24.5v24.5H300.8Z" class="g1_309"/>
<path d="M324.1,232.7h24.5v24.5H324.1Z" class="g1_309"/>
<path d="M347.4,232.7h24.5v24.5H347.4Z" class="g1_309"/>
<path d="M370.7,232.7h24.5v24.5H370.7Z" class="g1_309"/>
<path d="M394,232.7h24.5v24.5H394Z" class="g1_309"/>
<path d="M417.4,232.7h24.4v24.5H417.4Z" class="g1_309"/>
<path d="M440.7,232.7H464V256H440.7Z" class="g2_309"/>
</g>
<path d="M441.3,233.3h23.3v23.3H441.3Z" class="g3_309"/>
<path clip-path="url(#c1_309)" d="M464,232.7h23.3V256H464Z" class="g2_309"/>
<path d="M464.6,233.3h23.3v23.3H464.6Z" class="g3_309"/>
<path clip-path="url(#c1_309)" d="M487.3,232.7h23.3V256H487.3Z" class="g2_309"/>
<path d="M487.9,233.3h23.3v23.3H487.9Z" class="g3_309"/>
<path clip-path="url(#c1_309)" d="M510.6,232.7h23.3V256H510.6Z" class="g2_309"/>
<path d="M511.2,233.3h23.3v23.3H511.2Z" class="g3_309"/>
<path clip-path="url(#c1_309)" d="M533.9,232.7h23.3V256H533.9Z" class="g2_309"/>
<path d="M534.5,233.3h23.3v23.3H534.5Z" class="g3_309"/>
<g clip-path="url(#c1_309)">
<path d="M557.2,232.7h24.5v24.5H557.2Z" class="g1_309"/>
<path d="M580.5,232.7H605v24.5H580.5Z" class="g1_309"/>
<path d="M603.9,232.7h24.4v24.5H603.9Z" class="g1_309"/>
<path d="M627.2,232.7h24.5v24.5H627.2Z" class="g1_309"/>
<path d="M650.5,232.7H675v24.5H650.5Z" class="g1_309"/>
<path d="M673.8,232.7h24.5v24.5H673.8Z" class="g1_309"/>
<path d="M697.1,232.7h24.5v24.5H697.1Z" class="g1_309"/>
<path d="M720.4,232.7h24.5v24.5H720.4Z" class="g1_309"/>
</g>
<path d="M160.9,256h24.5v24.5H160.9Z" class="g1_309"/>
<path d="M184.2,256h24.5v24.5H184.2Z" class="g1_309"/>
<path d="M207.5,256H232v24.5H207.5Z" class="g1_309"/>
<path d="M230.9,256h24.4v24.5H230.9Z" class="g1_309"/>
<path d="M254.2,256h24.5v24.5H254.2Z" class="g1_309"/>
<path d="M277.5,256H302v24.5H277.5Z" class="g1_309"/>
<path d="M300.8,256h24.5v24.5H300.8Z" class="g1_309"/>
<path d="M324.1,256h24.5v24.5H324.1Z" class="g1_309"/>
<path d="M347.4,256h24.5v24.5H347.4Z" class="g1_309"/>
<path d="M370.7,256h24.5v24.5H370.7Z" class="g1_309"/>
<path d="M394,256h23.4v23.3H394Z" class="g2_309"/>
<path d="M394.6,256.6h23.3v23.3H394.6Z" class="g3_309"/>
<path d="M417.4,256h24.5v24.4H417.4Z" class="g1_309"/>
<path d="M440.7,256h24.5v24.4H440.7Z" class="g1_309"/>
<path d="M464,256h24.5v24.4H464Z" class="g1_309"/>
<path d="M487.3,256h24.5v24.4H487.3Z" class="g1_309"/>
<path d="M510.6,256h23.3v23.3H510.6Z" class="g2_309"/>
<path d="M511.2,256.6h23.3v23.3H511.2Z" class="g3_309"/>
<path d="M533.9,256h24.5v24.4H533.9Z" class="g1_309"/>
<path d="M557.3,256h24.4v24.4H557.3Z" class="g1_309"/>
<path d="M580.6,256H605v24.4H580.6Z" class="g1_309"/>
<path d="M603.9,256h24.5v24.4H603.9Z" class="g1_309"/>
<path d="M627.2,256h24.5v24.4H627.2Z" class="g1_309"/>
<path d="M650.5,256H675v24.4H650.5Z" class="g1_309"/>
<path d="M673.8,256h24.5v24.4H673.8Z" class="g1_309"/>
<path d="M697.1,256h24.5v24.4H697.1Z" class="g1_309"/>
<path d="M720.4,256h24.5v24.4H720.4Z" class="g1_309"/>
<path d="M160.9,279.3h24.5v24.5H160.9Z" class="g1_309"/>
<path d="M184.2,279.3h24.5v24.5H184.2Z" class="g1_309"/>
<path d="M207.6,279.3H232v24.5H207.6Z" class="g1_309"/>
<path d="M230.9,279.3h24.4v24.5H230.9Z" class="g1_309"/>
<path d="M254.2,279.3h23.3v23.3H254.2Z" class="g2_309"/>
<path d="M254.8,279.9h23.3v23.3H254.8Z" class="g3_309"/>
<path d="M277.5,279.3H302v24.5H277.5Z" class="g1_309"/>
<path d="M300.8,279.3h23.3v23.3H300.8Z" class="g2_309"/>
<path d="M301.4,279.9h23.3v23.3H301.4Z" class="g3_309"/>
<path d="M324.1,279.3h23.3v23.3H324.1Z" class="g2_309"/>
<path d="M324.7,279.9H348v23.3H324.7Z" class="g3_309"/>
<path d="M347.4,279.3h23.3v23.3H347.4Z" class="g2_309"/>
<path d="M348,279.9h23.3v23.3H348Z" class="g3_309"/>
<path d="M370.7,279.3h23.4v23.3H370.7Z" class="g2_309"/>
<path d="M371.3,279.9h23.3v23.3H371.3Z" class="g3_309"/>
<path d="M394.1,279.3h23.3v23.3H394.1Z" class="g2_309"/>
<path d="M394.6,279.9H418v23.3H394.6Z" class="g3_309"/>
<path d="M417.4,279.3h23.3v23.3H417.4Z" class="g2_309"/>
<path d="M418,279.9h23.3v23.3H418Z" class="g3_309"/>
<path d="M440.7,279.3H464v23.3H440.7Z" class="g2_309"/>
<path d="M441.3,279.9h23.3v23.3H441.3Z" class="g3_309"/>
<path d="M464,279.3h23.3v23.3H464Z" class="g2_309"/>
<path d="M464.6,279.9h23.3v23.3H464.6Z" class="g3_309"/>
<path d="M487.3,279.3h24.5v24.5H487.3Z" class="g1_309"/>
<path d="M510.6,279.3h23.3v23.3H510.6Z" class="g2_309"/>
<path d="M511.2,279.9h23.3v23.3H511.2Z" class="g3_309"/>
<path d="M533.9,279.3h24.5v24.5H533.9Z" class="g1_309"/>
<path d="M557.3,279.3h24.4v24.5H557.3Z" class="g1_309"/>
<path d="M580.6,279.3H605v24.5H580.6Z" class="g1_309"/>
<path d="M603.9,279.3h24.5v24.5H603.9Z" class="g1_309"/>
<path d="M627.2,279.3h24.5v24.5H627.2Z" class="g1_309"/>
<path d="M650.5,279.3H675v24.5H650.5Z" class="g1_309"/>
<path d="M673.8,279.3h24.5v24.5H673.8Z" class="g1_309"/>
<path d="M697.1,279.3h24.5v24.5H697.1Z" class="g1_309"/>
<path d="M720.5,279.3h24.4v24.5H720.5Z" class="g1_309"/>
<path d="M160.9,302.6h24.5v24.5H160.9Z" class="g1_309"/>
<path d="M184.2,302.6h24.5v24.5H184.2Z" class="g1_309"/>
<path d="M207.6,302.6H232v24.5H207.6Z" class="g1_309"/>
<path d="M230.9,302.6h24.4v24.5H230.9Z" class="g1_309"/>
<path d="M254.2,302.6h23.3v23.3H254.2Z" class="g2_309"/>
<path d="M254.8,303.2h23.3v23.3H254.8Z" class="g3_309"/>
<path d="M277.5,302.6H302v24.5H277.5Z" class="g1_309"/>
<path d="M300.8,302.6h24.5v24.5H300.8Z" class="g1_309"/>
<path d="M324.1,302.6h24.5v24.5H324.1Z" class="g1_309"/>
<path d="M347.4,302.6h24.5v24.5H347.4Z" class="g1_309"/>
<path d="M370.7,302.6h24.5v24.5H370.7Z" class="g1_309"/>
<path d="M394.1,302.6h23.3v23.3H394.1Z" class="g2_309"/>
<path d="M394.6,303.2H418v23.3H394.6Z" class="g3_309"/>
<path d="M417.4,302.6h24.5v24.5H417.4Z" class="g1_309"/>
<path d="M440.7,302.6h24.5v24.5H440.7Z" class="g1_309"/>
<path d="M464,302.6h24.5v24.5H464Z" class="g1_309"/>
<path d="M487.3,302.6h24.5v24.5H487.3Z" class="g1_309"/>
<path d="M510.6,302.6h23.3v23.3H510.6Z" class="g2_309"/>
<path d="M511.2,303.2h23.3v23.3H511.2Z" class="g3_309"/>
<path d="M533.9,302.6h24.5v24.5H533.9Z" class="g1_309"/>
<path d="M557.3,302.6h24.4v24.5H557.3Z" class="g1_309"/>
<path d="M580.6,302.6H605v24.5H580.6Z" class="g1_309"/>
<path d="M603.9,302.6h24.5v24.5H603.9Z" class="g1_309"/>
<path d="M627.2,302.6h24.5v24.5H627.2Z" class="g1_309"/>
<path d="M650.5,302.6H675v24.5H650.5Z" class="g1_309"/>
<path d="M673.8,302.6h24.5v24.5H673.8Z" class="g1_309"/>
<path d="M697.1,302.6h24.5v24.5H697.1Z" class="g1_309"/>
<path d="M720.5,302.6h24.4v24.5H720.5Z" class="g1_309"/>
<path d="M160.9,325.9h24.5v24.5H160.9Z" class="g1_309"/>
<path d="M184.2,325.9h24.5v24.5H184.2Z" class="g1_309"/>
<path d="M207.6,325.9H232v24.5H207.6Z" class="g1_309"/>
<path d="M230.9,325.9h23.3v23.3H230.9Z" class="g2_309"/>
<path d="M231.5,326.5h23.3v23.3H231.5Z" class="g3_309"/>
<path d="M254.2,325.9h23.3v23.3H254.2Z" class="g2_309"/>
<path d="M254.8,326.5h23.3v23.3H254.8Z" class="g3_309"/>
<path d="M277.5,325.9h23.3v23.3H277.5Z" class="g2_309"/>
<path d="M278.1,326.5h23.3v23.3H278.1Z" class="g3_309"/>
<path d="M300.8,325.9h23.3v23.3H300.8Z" class="g2_309"/>
<path d="M301.4,326.5h23.3v23.3H301.4Z" class="g3_309"/>
<path d="M324.1,325.9h23.3v23.3H324.1Z" class="g2_309"/>
<path d="M324.7,326.5H348v23.3H324.7Z" class="g3_309"/>
<path d="M347.4,325.9h23.4v23.3H347.4Z" class="g2_309"/>
<path d="M348,326.5h23.3v23.3H348Z" class="g3_309"/>
<path d="M370.8,325.9h23.3v23.3H370.8Z" class="g2_309"/>
<path d="M371.3,326.5h23.4v23.3H371.3Z" class="g3_309"/>
<path d="M394.1,325.9h23.3v23.3H394.1Z" class="g2_309"/>
<path d="M394.7,326.5H418v23.3H394.7Z" class="g3_309"/>
<path d="M417.4,325.9h23.3v23.3H417.4Z" class="g2_309"/>
<path d="M418,326.5h23.3v23.3H418Z" class="g3_309"/>
<path d="M440.7,325.9H464v23.3H440.7Z" class="g2_309"/>
<path d="M441.3,326.5h23.3v23.3H441.3Z" class="g3_309"/>
<path d="M464,325.9h23.3v23.3H464Z" class="g2_309"/>
<path d="M464.6,326.5h23.3v23.3H464.6Z" class="g3_309"/>
<path d="M487.3,325.9h23.3v23.3H487.3Z" class="g2_309"/>
<path d="M487.9,326.5h23.3v23.3H487.9Z" class="g3_309"/>
<path d="M510.6,325.9H534v23.3H510.6Z" class="g2_309"/>
<path d="M511.2,326.5h23.3v23.3H511.2Z" class="g3_309"/>
<path d="M534,325.9h23.3v23.3H534Z" class="g2_309"/>
<path d="M534.5,326.5h23.3v23.3H534.5Z" class="g3_309"/>
<path d="M557.3,325.9h23.3v23.3H557.3Z" class="g2_309"/>
<path d="M557.8,326.5h23.4v23.3H557.8Z" class="g3_309"/>
<path d="M580.6,325.9h23.3v23.3H580.6Z" class="g2_309"/>
<path d="M581.2,326.5h23.3v23.3H581.2Z" class="g3_309"/>
<path d="M603.9,325.9h23.3v23.3H603.9Z" class="g2_309"/>
<path d="M604.5,326.5h23.3v23.3H604.5Z" class="g3_309"/>
<path d="M627.2,325.9h23.3v23.3H627.2Z" class="g2_309"/>
<path d="M627.8,326.5h23.3v23.3H627.8Z" class="g3_309"/>
<path d="M650.5,325.9h23.3v23.3H650.5Z" class="g2_309"/>
<path d="M651.1,326.5h23.3v23.3H651.1Z" class="g3_309"/>
<path d="M673.8,325.9h24.5v24.5H673.8Z" class="g1_309"/>
<path d="M697.2,325.9h24.4v24.5H697.2Z" class="g1_309"/>
<path d="M720.5,325.9h24.4v24.5H720.5Z" class="g1_309"/>
<path d="M160.9,349.2h24.5v24.5H160.9Z" class="g1_309"/>
<path d="M184.2,349.2h24.5v24.5H184.2Z" class="g1_309"/>
<path d="M207.6,349.2H232v24.5H207.6Z" class="g1_309"/>
<path d="M230.9,349.2h24.5v24.5H230.9Z" class="g1_309"/>
<path d="M254.2,349.2h23.3v23.3H254.2Z" class="g2_309"/>
<path d="M254.8,349.8h23.3v23.3H254.8Z" class="g3_309"/>
<path d="M277.5,349.2H302v24.5H277.5Z" class="g1_309"/>
<path d="M300.8,349.2h23.3v23.3H300.8Z" class="g2_309"/>
<path d="M301.4,349.8h23.3v23.3H301.4Z" class="g3_309"/>
<path d="M324.1,349.2h24.5v24.5H324.1Z" class="g1_309"/>
<path d="M347.4,349.2h24.5v24.5H347.4Z" class="g1_309"/>
<path d="M370.8,349.2h24.4v24.5H370.8Z" class="g1_309"/>
<path d="M394.1,349.2h23.3v23.3H394.1Z" class="g2_309"/>
<path d="M394.7,349.8H418v23.3H394.7Z" class="g3_309"/>
<path d="M417.4,349.2h24.5v24.5H417.4Z" class="g1_309"/>
<path d="M440.7,349.2H464v23.3H440.7Z" class="g2_309"/>
<path d="M441.3,349.8h23.3v23.3H441.3Z" class="g3_309"/>
<path d="M464,349.2h24.5v24.5H464Z" class="g1_309"/>
<path d="M487.3,349.2h24.5v24.5H487.3Z" class="g1_309"/>
<path d="M510.6,349.2H534v23.3H510.6Z" class="g2_309"/>
<path d="M511.2,349.8h23.3v23.3H511.2Z" class="g3_309"/>
<path d="M534,349.2h24.4v24.5H534Z" class="g1_309"/>
<path d="M557.3,349.2h24.4v24.5H557.3Z" class="g1_309"/>
<path d="M580.6,349.2h24.5v24.5H580.6Z" class="g1_309"/>
<path d="M603.9,349.2h24.5v24.5H603.9Z" class="g1_309"/>
<path d="M627.2,349.2h24.5v24.5H627.2Z" class="g1_309"/>
<path d="M650.5,349.2H675v24.5H650.5Z" class="g1_309"/>
<path d="M673.8,349.2h24.5v24.5H673.8Z" class="g1_309"/>
<path d="M697.2,349.2h24.4v24.5H697.2Z" class="g1_309"/>
<path d="M720.5,349.2h24.4v24.5H720.5Z" class="g1_309"/>
<path d="M160.9,372.5h24.5V397H160.9Z" class="g1_309"/>
<path d="M184.2,372.5h24.5V397H184.2Z" class="g1_309"/>
<path d="M207.6,372.5H232V397H207.6Z" class="g1_309"/>
<path d="M230.9,372.5h24.5V397H230.9Z" class="g1_309"/>
<path d="M254.2,372.5h23.3v23.3H254.2Z" class="g2_309"/>
<path d="M254.8,373.1h23.3v23.3H254.8Z" class="g3_309"/>
<path d="M277.5,372.5H302V397H277.5Z" class="g1_309"/>
<path d="M300.8,372.5h23.3v23.3H300.8Z" class="g2_309"/>
<path d="M301.4,373.1h23.3v23.3H301.4Z" class="g3_309"/>
<path d="M324.1,372.5h24.5V397H324.1Z" class="g1_309"/>
<path d="M347.4,372.5h24.5V397H347.4Z" class="g1_309"/>
<path d="M370.8,372.5h24.4V397H370.8Z" class="g1_309"/>
<path d="M394.1,372.5h23.3v23.3H394.1Z" class="g2_309"/>
<path d="M394.7,373.1H418v23.3H394.7Z" class="g3_309"/>
<path d="M417.4,372.5h24.5V397H417.4Z" class="g1_309"/>
<path d="M440.7,372.5H464v23.3H440.7Z" class="g2_309"/>
<path d="M441.3,373.1h23.3v23.3H441.3Z" class="g3_309"/>
<path d="M464,372.5h24.5V397H464Z" class="g1_309"/>
<path d="M487.3,372.5h24.5V397H487.3Z" class="g1_309"/>
<path d="M510.6,372.5H534v23.3H510.6Z" class="g2_309"/>
<path d="M511.2,373.1h23.3v23.3H511.2Z" class="g3_309"/>
<path d="M534,372.5h24.4V397H534Z" class="g1_309"/>
<path d="M557.3,372.5h24.4V397H557.3Z" class="g1_309"/>
<path d="M580.6,372.5h24.5V397H580.6Z" class="g1_309"/>
<path d="M603.9,372.5h24.5V397H603.9Z" class="g1_309"/>
<path d="M627.2,372.5h24.5V397H627.2Z" class="g1_309"/>
<path d="M650.5,372.5H675V397H650.5Z" class="g1_309"/>
<path d="M673.8,372.5h24.5V397H673.8Z" class="g1_309"/>
<path d="M697.2,372.5h23.3v23.3H697.2Z" class="g2_309"/>
<path d="M697.7,373.1H721v23.3H697.7Z" class="g3_309"/>
<path d="M720.5,372.5h24.4V397H720.5Z" class="g1_309"/>
<path d="M160.9,395.8h24.5v24.5H160.9Z" class="g1_309"/>
<path d="M184.2,395.8h24.5v24.5H184.2Z" class="g1_309"/>
<path d="M207.6,395.8H232v24.5H207.6Z" class="g1_309"/>
<path d="M230.9,395.8h24.5v24.5H230.9Z" class="g1_309"/>
<path d="M254.2,395.8h23.3v23.3H254.2Z" class="g2_309"/>
<path d="M254.8,396.4h23.3v23.3H254.8Z" class="g3_309"/>
<path d="M277.5,395.8H302v24.5H277.5Z" class="g1_309"/>
<path d="M300.8,395.8h23.3v23.3H300.8Z" class="g2_309"/>
<path d="M301.4,396.4h23.3v23.3H301.4Z" class="g3_309"/>
<path d="M324.1,395.8h24.5v24.5H324.1Z" class="g1_309"/>
<path d="M347.4,395.8h24.5v24.5H347.4Z" class="g1_309"/>
<path d="M370.8,395.8h24.4v24.5H370.8Z" class="g1_309"/>
<path d="M394.1,395.8h23.3v23.3H394.1Z" class="g2_309"/>
<path d="M394.7,396.4H418v23.3H394.7Z" class="g3_309"/>
<path d="M417.4,395.8h24.5v24.5H417.4Z" class="g1_309"/>
<path d="M440.7,395.8H464v23.3H440.7Z" class="g2_309"/>
<path d="M441.3,396.4h23.3v23.3H441.3Z" class="g3_309"/>
<path d="M464,395.8h24.5v24.5H464Z" class="g1_309"/>
<path d="M487.3,395.8h24.5v24.5H487.3Z" class="g1_309"/>
<path d="M510.6,395.8H534v23.3H510.6Z" class="g2_309"/>
<path d="M511.2,396.4h23.3v23.3H511.2Z" class="g3_309"/>
<path d="M534,395.8h23.3v23.3H534Z" class="g2_309"/>
<path d="M534.5,396.4h23.4v23.3H534.5Z" class="g3_309"/>
<path d="M557.3,395.8h23.3v23.3H557.3Z" class="g2_309"/>
<path d="M557.9,396.4h23.3v23.3H557.9Z" class="g3_309"/>
<path d="M580.6,395.8h23.3v23.3H580.6Z" class="g2_309"/>
<path d="M581.2,396.4h23.3v23.3H581.2Z" class="g3_309"/>
<path d="M603.9,395.8h23.3v23.3H603.9Z" class="g2_309"/>
<path d="M604.5,396.4h23.3v23.3H604.5Z" class="g3_309"/>
<path d="M627.2,395.8h23.3v23.3H627.2Z" class="g2_309"/>
<path d="M627.8,396.4h23.3v23.3H627.8Z" class="g3_309"/>
<path d="M650.5,395.8h23.3v23.3H650.5Z" class="g2_309"/>
<path d="M651.1,396.4h23.3v23.3H651.1Z" class="g3_309"/>
<path d="M673.8,395.8h23.4v23.3H673.8Z" class="g2_309"/>
<path d="M674.4,396.4h23.3v23.3H674.4Z" class="g3_309"/>
<path d="M697.2,395.8h23.3v23.3H697.2Z" class="g2_309"/>
<path d="M697.7,396.4H721v23.3H697.7Z" class="g3_309"/>
<path d="M720.5,395.8h24.4v24.5H720.5Z" class="g1_309"/>
<path d="M160.9,419.1h24.5v24.5H160.9Z" class="g1_309"/>
<path d="M184.2,419.1h24.5v24.5H184.2Z" class="g1_309"/>
<path d="M207.6,419.1H232v24.5H207.6Z" class="g1_309"/>
<path d="M230.9,419.1h24.5v24.5H230.9Z" class="g1_309"/>
<path d="M254.2,419.1h23.3v23.4H254.2Z" class="g2_309"/>
<path d="M254.8,419.7h23.3v23.4H254.8Z" class="g3_309"/>
<path d="M277.5,419.1H302v24.5H277.5Z" class="g1_309"/>
<path d="M300.8,419.1h23.3v23.4H300.8Z" class="g2_309"/>
<path d="M301.4,419.7h23.3v23.4H301.4Z" class="g3_309"/>
<path d="M324.1,419.1h24.5v24.5H324.1Z" class="g1_309"/>
<path d="M347.4,419.1h24.5v24.5H347.4Z" class="g1_309"/>
<path d="M370.8,419.1h24.4v24.5H370.8Z" class="g1_309"/>
<path d="M394.1,419.1h23.3v23.4H394.1Z" class="g2_309"/>
<path d="M394.7,419.7H418v23.4H394.7Z" class="g3_309"/>
<path d="M417.4,419.1h24.5v24.5H417.4Z" class="g1_309"/>
<path d="M440.7,419.1H464v23.4H440.7Z" class="g2_309"/>
<path d="M441.3,419.7h23.3v23.4H441.3Z" class="g3_309"/>
<path d="M464,419.1h24.5v24.5H464Z" class="g1_309"/>
<path d="M487.3,419.1h24.5v24.5H487.3Z" class="g1_309"/>
<path d="M510.6,419.1H534v23.4H510.6Z" class="g2_309"/>
<path d="M511.2,419.7h23.3v23.4H511.2Z" class="g3_309"/>
<path d="M534,419.1h24.4v24.5H534Z" class="g1_309"/>
<path d="M557.3,419.1h24.4v24.5H557.3Z" class="g1_309"/>
<path d="M580.6,419.1h24.5v24.5H580.6Z" class="g1_309"/>
<path d="M603.9,419.1h24.5v24.5H603.9Z" class="g1_309"/>
<path d="M627.2,419.1h24.5v24.5H627.2Z" class="g1_309"/>
<path d="M650.5,419.1H675v24.5H650.5Z" class="g1_309"/>
<path d="M673.8,419.1h24.5v24.5H673.8Z" class="g1_309"/>
<path d="M697.2,419.1h23.3v23.4H697.2Z" class="g2_309"/>
<path d="M697.7,419.7H721v23.4H697.7Z" class="g3_309"/>
<path d="M720.5,419.1h24.4v24.5H720.5Z" class="g1_309"/>
<path d="M160.9,442.5h24.5v24.4H160.9Z" class="g1_309"/>
<path d="M184.2,442.5h24.5v24.4H184.2Z" class="g1_309"/>
<path d="M207.6,442.5h23.3v23.3H207.6Z" class="g2_309"/>
<path d="M208.1,443.1h23.4v23.3H208.1Z" class="g3_309"/>
<path d="M230.9,442.5h23.3v23.3H230.9Z" class="g2_309"/>
<path d="M231.5,443h23.3v23.4H231.5Z" class="g3_309"/>
<path d="M254.2,442.5h23.3v23.3H254.2Z" class="g2_309"/>
<path d="M254.8,443h23.3v23.4H254.8Z" class="g3_309"/>
<path d="M277.5,442.5h23.3v23.3H277.5Z" class="g2_309"/>
<path d="M278.1,443h23.3v23.4H278.1Z" class="g3_309"/>
<path d="M300.8,442.5h23.3v23.3H300.8Z" class="g2_309"/>
<path d="M301.4,443h23.3v23.4H301.4Z" class="g3_309"/>
<path d="M324.1,442.5h23.3v23.3H324.1Z" class="g2_309"/>
<path d="M324.7,443H348v23.4H324.7Z" class="g3_309"/>
<path d="M347.4,442.5h24.5v24.4H347.4Z" class="g1_309"/>
<path d="M370.8,442.5h24.4v24.4H370.8Z" class="g1_309"/>
<path d="M394.1,442.5h23.3v23.3H394.1Z" class="g2_309"/>
<path d="M394.6,443H418v23.4H394.6Z" class="g3_309"/>
<path d="M417.4,442.5h24.5v24.4H417.4Z" class="g1_309"/>
<path d="M440.7,442.5H464v23.3H440.7Z" class="g2_309"/>
<path d="M441.3,443h23.3v23.4H441.3Z" class="g3_309"/>
<path d="M464,442.5h24.5v24.4H464Z" class="g1_309"/>
<path d="M487.3,442.5h24.5v24.4H487.3Z" class="g1_309"/>
<path d="M510.6,442.5h23.3v23.3H510.6Z" class="g2_309"/>
<path d="M511.2,443h23.3v23.4H511.2Z" class="g3_309"/>
<path d="M533.9,442.5h24.5v24.4H533.9Z" class="g1_309"/>
<path d="M557.3,442.5h24.4v24.4H557.3Z" class="g1_309"/>
<path d="M580.6,442.5h24.5v24.4H580.6Z" class="g1_309"/>
<path d="M603.9,442.5h24.5v24.4H603.9Z" class="g1_309"/>
<path d="M627.2,442.5h24.5v24.4H627.2Z" class="g1_309"/>
<path d="M650.5,442.5H675v24.4H650.5Z" class="g1_309"/>
<path d="M673.8,442.5h24.5v24.4H673.8Z" class="g1_309"/>
<path d="M697.1,442.5h23.4v23.3H697.1Z" class="g2_309"/>
<path d="M697.7,443H721v23.4H697.7Z" class="g3_309"/>
<path d="M720.5,442.5h24.4v24.4H720.5Z" class="g1_309"/>
<path d="M160.9,465.8h24.5v24.5H160.9Z" class="g1_309"/>
<path d="M184.2,465.8h24.5v24.5H184.2Z" class="g1_309"/>
<path d="M207.6,465.8H232v24.5H207.6Z" class="g1_309"/>
<path d="M230.9,465.8h24.4v24.5H230.9Z" class="g1_309"/>
<path d="M254.2,465.8h23.3v23.3H254.2Z" class="g2_309"/>
<path d="M254.8,466.4h23.3v23.3H254.8Z" class="g3_309"/>
<path d="M277.5,465.8H302v24.5H277.5Z" class="g1_309"/>
<path d="M300.8,465.8h23.3v23.3H300.8Z" class="g2_309"/>
<path d="M301.4,466.4h23.3v23.3H301.4Z" class="g3_309"/>
<path d="M324.1,465.8h24.5v24.5H324.1Z" class="g1_309"/>
<path d="M347.4,465.8h24.5v24.5H347.4Z" class="g1_309"/>
<path d="M370.8,465.8h24.4v24.5H370.8Z" class="g1_309"/>
<path d="M394.1,465.8h23.3v23.3H394.1Z" class="g2_309"/>
<path d="M394.6,466.4H418v23.3H394.6Z" class="g3_309"/>
<path d="M417.4,465.8h24.5v24.5H417.4Z" class="g1_309"/>
<path d="M440.7,465.8h24.5v24.5H440.7Z" class="g1_309"/>
<path d="M464,465.8h24.5v24.5H464Z" class="g1_309"/>
<path d="M487.3,465.8h24.5v24.5H487.3Z" class="g1_309"/>
<path d="M510.6,465.8h23.3v23.3H510.6Z" class="g2_309"/>
<path d="M511.2,466.4h23.3v23.3H511.2Z" class="g3_309"/>
<path d="M533.9,465.8h24.5v24.5H533.9Z" class="g1_309"/>
<path d="M557.3,465.8h23.3v23.3H557.3Z" class="g2_309"/>
<path d="M557.8,466.4h23.4v23.3H557.8Z" class="g3_309"/>
<path d="M580.6,465.8h24.5v24.5H580.6Z" class="g1_309"/>
<path d="M603.9,465.8h24.5v24.5H603.9Z" class="g1_309"/>
<path d="M627.2,465.8h23.3v23.3H627.2Z" class="g2_309"/>
<path d="M627.8,466.4h23.3v23.3H627.8Z" class="g3_309"/>
<path d="M650.5,465.8H675v24.5H650.5Z" class="g1_309"/>
<path d="M673.8,465.8h24.5v24.5H673.8Z" class="g1_309"/>
<path d="M697.2,465.8h23.3v23.3H697.2Z" class="g2_309"/>
<path d="M697.7,466.4H721v23.3H697.7Z" class="g3_309"/>
<path d="M720.5,465.8h24.4v24.5H720.5Z" class="g1_309"/>
<path d="M160.9,489.1h24.5v24.5H160.9Z" class="g1_309"/>
<path d="M184.2,489.1h24.5v24.5H184.2Z" class="g1_309"/>
<path d="M207.6,489.1H232v24.5H207.6Z" class="g1_309"/>
<path d="M230.9,489.1h23.3v23.3H230.9Z" class="g2_309"/>
<path d="M231.5,489.7h23.3V513H231.5Z" class="g3_309"/>
<path d="M254.2,489.1h23.3v23.3H254.2Z" class="g2_309"/>
<path d="M254.8,489.7h23.3V513H254.8Z" class="g3_309"/>
<path d="M277.5,489.1h23.3v23.3H277.5Z" class="g2_309"/>
<path d="M278.1,489.7h23.3V513H278.1Z" class="g3_309"/>
<path d="M300.8,489.1h23.3v23.3H300.8Z" class="g2_309"/>
<path d="M301.4,489.7h23.3V513H301.4Z" class="g3_309"/>
<path d="M324.1,489.1h23.3v23.3H324.1Z" class="g2_309"/>
<path d="M324.7,489.7H348V513H324.7Z" class="g3_309"/>
<path d="M347.4,489.1h23.4v23.3H347.4Z" class="g2_309"/>
<path d="M348,489.7h23.3V513H348Z" class="g3_309"/>
<path d="M370.8,489.1h24.4v24.5H370.8Z" class="g1_309"/>
<path d="M394.1,489.1h24.5v24.5H394.1Z" class="g1_309"/>
<path d="M417.4,489.1h24.5v24.5H417.4Z" class="g1_309"/>
<path d="M440.7,489.1h24.5v24.5H440.7Z" class="g1_309"/>
<path d="M464,489.1h24.5v24.5H464Z" class="g1_309"/>
<path d="M487.3,489.1h24.5v24.5H487.3Z" class="g1_309"/>
<path d="M510.6,489.1H534v23.3H510.6Z" class="g2_309"/>
<path d="M511.2,489.7h23.3V513H511.2Z" class="g3_309"/>
<path d="M534,489.1h24.4v24.5H534Z" class="g1_309"/>
<path d="M557.3,489.1h23.3v23.3H557.3Z" class="g2_309"/>
<path d="M557.9,489.7h23.3V513H557.9Z" class="g3_309"/>
<path d="M580.6,489.1h24.5v24.5H580.6Z" class="g1_309"/>
<path d="M603.9,489.1h24.5v24.5H603.9Z" class="g1_309"/>
<path d="M627.2,489.1h23.3v23.3H627.2Z" class="g2_309"/>
<path d="M627.8,489.7h23.3V513H627.8Z" class="g3_309"/>
<path d="M650.5,489.1H675v24.5H650.5Z" class="g1_309"/>
<path d="M673.8,489.1h23.4v23.3H673.8Z" class="g2_309"/>
<path d="M674.4,489.7h23.3V513H674.4Z" class="g3_309"/>
<path d="M697.1,489.1h23.4v23.3H697.1Z" class="g2_309"/>
<path d="M697.7,489.7H721V513H697.7Z" class="g3_309"/>
<path d="M720.5,489.1h23.3v23.3H720.5Z" class="g2_309"/>
<path d="M721,489.7h23.3V513H721Z" class="g3_309"/>
<path d="M160.9,512.4h24.5v24.5H160.9Z" class="g1_309"/>
<path d="M184.2,512.4h24.5v24.5H184.2Z" class="g1_309"/>
<path d="M207.6,512.4H232v24.5H207.6Z" class="g1_309"/>
<path d="M230.9,512.4h24.4v24.5H230.9Z" class="g1_309"/>
<path d="M254.2,512.4h23.3v23.3H254.2Z" class="g2_309"/>
<path d="M254.8,513h23.3v23.3H254.8Z" class="g3_309"/>
<path d="M277.5,512.4H302v24.5H277.5Z" class="g1_309"/>
<path d="M300.8,512.4h23.3v23.3H300.8Z" class="g2_309"/>
<path d="M301.4,513h23.3v23.3H301.4Z" class="g3_309"/>
<path d="M324.1,512.4h24.5v24.5H324.1Z" class="g1_309"/>
<path d="M347.4,512.4h24.5v24.5H347.4Z" class="g1_309"/>
<path d="M370.8,512.4h24.4v24.5H370.8Z" class="g1_309"/>
<path d="M394.1,512.4h24.4v24.5H394.1Z" class="g1_309"/>
<path d="M417.4,512.4h24.5v24.5H417.4Z" class="g1_309"/>
<path d="M440.7,512.4h24.5v24.5H440.7Z" class="g1_309"/>
<path d="M464,512.4h24.5v24.5H464Z" class="g1_309"/>
<path d="M487.3,512.4h23.3v23.3H487.3Z" class="g2_309"/>
<path d="M487.9,513h23.3v23.3H487.9Z" class="g3_309"/>
<path d="M510.6,512.4h23.3v23.3H510.6Z" class="g2_309"/>
<path d="M511.2,513h23.3v23.3H511.2Z" class="g3_309"/>
<path d="M533.9,512.4h23.4v23.3H533.9Z" class="g2_309"/>
<path d="M534.5,513h23.3v23.3H534.5Z" class="g3_309"/>
<path d="M557.3,512.4h23.3v23.3H557.3Z" class="g2_309"/>
<path d="M557.8,513h23.4v23.3H557.8Z" class="g3_309"/>
<path d="M580.6,512.4h23.3v23.3H580.6Z" class="g2_309"/>
<path d="M581.2,513h23.3v23.3H581.2Z" class="g3_309"/>
<path d="M603.9,512.4h23.3v23.3H603.9Z" class="g2_309"/>
<path d="M604.5,513h23.3v23.3H604.5Z" class="g3_309"/>
<path d="M627.2,512.4h23.3v23.3H627.2Z" class="g2_309"/>
<path d="M627.8,513h23.3v23.3H627.8Z" class="g3_309"/>
<path d="M650.5,512.4h23.3v23.3H650.5Z" class="g2_309"/>
<path d="M651.1,513h23.3v23.3H651.1Z" class="g3_309"/>
<path d="M673.8,512.4h24.5v24.5H673.8Z" class="g1_309"/>
<path d="M697.1,512.4h23.4v23.3H697.1Z" class="g2_309"/>
<path d="M697.7,513H721v23.3H697.7Z" class="g3_309"/>
<path d="M720.5,512.4h24.4v24.5H720.5Z" class="g1_309"/>
<path d="M160.9,535.7h23.3V559H160.9Z" class="g2_309"/>
<path d="M161.5,536.3h23.3v23.3H161.5Z" class="g3_309"/>
<path d="M184.2,535.7h23.4V559H184.2Z" class="g2_309"/>
<path d="M184.8,536.3h23.3v23.3H184.8Z" class="g3_309"/>
<path d="M207.6,535.7h23.3V559H207.6Z" class="g2_309"/>
<path d="M208.1,536.3h23.4v23.3H208.1Z" class="g3_309"/>
<path d="M230.9,535.7h23.3V559H230.9Z" class="g2_309"/>
<path d="M231.5,536.3h23.3v23.3H231.5Z" class="g3_309"/>
<path d="M254.2,535.7h23.3V559H254.2Z" class="g2_309"/>
<path d="M254.8,536.3h23.3v23.3H254.8Z" class="g3_309"/>
<path d="M277.5,535.7h23.3V559H277.5Z" class="g2_309"/>
<path d="M278.1,536.3h23.3v23.3H278.1Z" class="g3_309"/>
<path d="M300.8,535.7h24.5v24.5H300.8Z" class="g1_309"/>
<path d="M324.1,535.7h24.5v24.5H324.1Z" class="g1_309"/>
<path d="M347.4,535.7h23.4V559H347.4Z" class="g2_309"/>
<path d="M348,536.3h23.3v23.3H348Z" class="g3_309"/>
<path d="M370.8,535.7h24.4v24.5H370.8Z" class="g1_309"/>
<path d="M394.1,535.7h24.5v24.5H394.1Z" class="g1_309"/>
<path d="M417.4,535.7h24.5v24.5H417.4Z" class="g1_309"/>
<path d="M440.7,535.7h24.5v24.5H440.7Z" class="g1_309"/>
<path d="M464,535.7h24.5v24.5H464Z" class="g1_309"/>
<path d="M487.3,535.7h24.5v24.5H487.3Z" class="g1_309"/>
<path d="M510.6,535.7H534V559H510.6Z" class="g2_309"/>
<path d="M511.2,536.3h23.3v23.3H511.2Z" class="g3_309"/>
<path d="M534,535.7h24.4v24.5H534Z" class="g1_309"/>
<path d="M557.3,535.7h23.3V559H557.3Z" class="g2_309"/>
<path d="M557.9,536.3h23.3v23.3H557.9Z" class="g3_309"/>
<path d="M580.6,535.7h24.5v24.5H580.6Z" class="g1_309"/>
<path d="M603.9,535.7h24.5v24.5H603.9Z" class="g1_309"/>
<path d="M627.2,535.7h23.3V559H627.2Z" class="g2_309"/>
<path d="M627.8,536.3h23.3v23.3H627.8Z" class="g3_309"/>
<path d="M650.5,535.7H675v24.5H650.5Z" class="g1_309"/>
<path d="M673.8,535.7h24.5v24.5H673.8Z" class="g1_309"/>
<path d="M697.2,535.7h24.4v24.5H697.2Z" class="g1_309"/>
<path d="M720.5,535.7h24.4v24.5H720.5Z" class="g1_309"/>
<path d="M160.9,559h24.5v24.5H160.9Z" class="g1_309"/>
<path d="M184.2,559h24.5v24.5H184.2Z" class="g1_309"/>
<path d="M207.6,559H232v24.5H207.6Z" class="g1_309"/>
<path d="M230.9,559h24.5v24.5H230.9Z" class="g1_309"/>
<path d="M254.2,559h23.3v23.3H254.2Z" class="g2_309"/>
<path d="M254.8,559.6h23.3v23.3H254.8Z" class="g3_309"/>
<path d="M277.5,559H302v24.5H277.5Z" class="g1_309"/>
<path d="M300.8,559h24.5v24.5H300.8Z" class="g1_309"/>
<path d="M324.1,559h24.5v24.5H324.1Z" class="g1_309"/>
<path d="M347.4,559h23.4v23.3H347.4Z" class="g2_309"/>
<path d="M348,559.6h23.3v23.3H348Z" class="g3_309"/>
<path d="M370.8,559h24.4v24.5H370.8Z" class="g1_309"/>
<path d="M394.1,559h24.5v24.5H394.1Z" class="g1_309"/>
<path d="M417.4,559h24.5v24.5H417.4Z" class="g1_309"/>
<path d="M440.7,559h24.5v24.5H440.7Z" class="g1_309"/>
<path d="M464,559h24.5v24.5H464Z" class="g1_309"/>
<path d="M487.3,559h24.5v24.5H487.3Z" class="g1_309"/>
<path d="M510.6,559H534v23.3H510.6Z" class="g2_309"/>
<path d="M511.2,559.6h23.3v23.3H511.2Z" class="g3_309"/>
<path d="M534,559h24.4v24.5H534Z" class="g1_309"/>
<path d="M557.3,559h23.3v23.3H557.3Z" class="g2_309"/>
<path d="M557.9,559.6h23.3v23.3H557.9Z" class="g3_309"/>
<path d="M580.6,559h24.5v24.5H580.6Z" class="g1_309"/>
<path d="M603.9,559h24.5v24.5H603.9Z" class="g1_309"/>
<path d="M627.2,559h23.3v23.3H627.2Z" class="g2_309"/>
<path d="M627.8,559.6h23.3v23.3H627.8Z" class="g3_309"/>
<path d="M650.5,559H675v24.5H650.5Z" class="g1_309"/>
<path d="M673.8,559h24.5v24.5H673.8Z" class="g1_309"/>
<path d="M697.2,559h24.4v24.5H697.2Z" class="g1_309"/>
<path d="M720.5,559h24.4v24.5H720.5Z" class="g1_309"/>
<path d="M160.9,582.3h24.5v24.5H160.9Z" class="g1_309"/>
<path d="M184.2,582.3h23.4v23.4H184.2Z" class="g2_309"/>
<path d="M184.8,582.9h23.3v23.3H184.8Z" class="g3_309"/>
<path d="M207.6,582.3h23.3v23.4H207.6Z" class="g2_309"/>
<path d="M208.1,582.9h23.4v23.3H208.1Z" class="g3_309"/>
<path d="M230.9,582.3h23.3v23.4H230.9Z" class="g2_309"/>
<path d="M231.5,582.9h23.3v23.3H231.5Z" class="g3_309"/>
<path d="M254.2,582.3h23.3v23.4H254.2Z" class="g2_309"/>
<path d="M254.8,582.9h23.3v23.3H254.8Z" class="g3_309"/>
<path d="M277.5,582.3h23.3v23.4H277.5Z" class="g2_309"/>
<path d="M278.1,582.9h23.3v23.3H278.1Z" class="g3_309"/>
<path d="M300.8,582.3h23.3v23.4H300.8Z" class="g2_309"/>
<path d="M301.4,582.9h23.3v23.3H301.4Z" class="g3_309"/>
<path d="M324.1,582.3h23.3v23.4H324.1Z" class="g2_309"/>
<path d="M324.7,582.9H348v23.3H324.7Z" class="g3_309"/>
<path d="M347.4,582.3h23.4v23.4H347.4Z" class="g2_309"/>
<path d="M348,582.9h23.3v23.3H348Z" class="g3_309"/>
<path d="M370.8,582.3h23.3v23.4H370.8Z" class="g2_309"/>
<path d="M371.3,582.9h23.4v23.3H371.3Z" class="g3_309"/>
<path d="M394.1,582.3h23.3v23.4H394.1Z" class="g2_309"/>
<path d="M394.7,582.9H418v23.3H394.7Z" class="g3_309"/>
<path d="M417.4,582.3h23.3v23.4H417.4Z" class="g2_309"/>
<path d="M418,582.9h23.3v23.3H418Z" class="g3_309"/>
<path d="M440.7,582.3h24.5v24.5H440.7Z" class="g1_309"/>
<path d="M464,582.3h24.5v24.5H464Z" class="g1_309"/>
<path d="M487.3,582.3h24.5v24.5H487.3Z" class="g1_309"/>
<path d="M510.6,582.3H534v23.4H510.6Z" class="g2_309"/>
<path d="M511.2,582.9h23.3v23.3H511.2Z" class="g3_309"/>
<path d="M534,582.3h24.4v24.5H534Z" class="g1_309"/>
<path d="M557.3,582.3h23.3v23.4H557.3Z" class="g2_309"/>
<path d="M557.9,582.9h23.3v23.3H557.9Z" class="g3_309"/>
<path d="M580.6,582.3h24.5v24.5H580.6Z" class="g1_309"/>
<path d="M603.9,582.3h24.5v24.5H603.9Z" class="g1_309"/>
<path d="M627.2,582.3h23.3v23.4H627.2Z" class="g2_309"/>
<path d="M627.8,582.9h23.3v23.3H627.8Z" class="g3_309"/>
<path d="M650.5,582.3H675v24.5H650.5Z" class="g1_309"/>
<path d="M673.8,582.3h24.5v24.5H673.8Z" class="g1_309"/>
<path d="M697.2,582.3h24.4v24.5H697.2Z" class="g1_309"/>
<path d="M720.5,582.3h24.4v24.5H720.5Z" class="g1_309"/>
<path d="M160.9,605.7h24.5v24.4H160.9Z" class="g1_309"/>
<path d="M184.2,605.7h24.5v24.4H184.2Z" class="g1_309"/>
<path d="M207.6,605.7H232v24.4H207.6Z" class="g1_309"/>
<path d="M230.9,605.7h24.5v24.4H230.9Z" class="g1_309"/>
<path d="M254.2,605.7h24.5v24.4H254.2Z" class="g1_309"/>
<path d="M277.5,605.7H302v24.4H277.5Z" class="g1_309"/>
<path d="M300.8,605.7h24.5v24.4H300.8Z" class="g1_309"/>
<path d="M324.1,605.7h24.5v24.4H324.1Z" class="g1_309"/>
<path d="M347.4,605.7h23.4V629H347.4Z" class="g2_309"/>
<path d="M348,606.2h23.3v23.4H348Z" class="g3_309"/>
<path d="M370.8,605.7h24.4v24.4H370.8Z" class="g1_309"/>
<path d="M394.1,605.7h24.5v24.4H394.1Z" class="g1_309"/>
<path d="M417.4,605.7h24.5v24.4H417.4Z" class="g1_309"/>
<path d="M440.7,605.7h24.5v24.4H440.7Z" class="g1_309"/>
<path d="M464,605.7h24.5v24.4H464Z" class="g1_309"/>
<path d="M487.3,605.7h24.5v24.4H487.3Z" class="g1_309"/>
<path d="M510.6,605.7H534V629H510.6Z" class="g2_309"/>
<path d="M511.2,606.2h23.3v23.4H511.2Z" class="g3_309"/>
<path d="M534,605.7h24.4v24.4H534Z" class="g1_309"/>
<path d="M557.3,605.7h23.3V629H557.3Z" class="g2_309"/>
<path d="M557.9,606.2h23.3v23.4H557.9Z" class="g3_309"/>
<path d="M580.6,605.7h24.5v24.4H580.6Z" class="g1_309"/>
<path d="M603.9,605.7h24.5v24.4H603.9Z" class="g1_309"/>
<path d="M627.2,605.7h24.5v24.4H627.2Z" class="g1_309"/>
<path d="M650.5,605.7H675v24.4H650.5Z" class="g1_309"/>
<path d="M673.8,605.7h24.5v24.4H673.8Z" class="g1_309"/>
<path d="M697.2,605.7h24.4v24.4H697.2Z" class="g1_309"/>
<path d="M720.5,605.7h24.4v24.4H720.5Z" class="g1_309"/>
<g clip-path="url(#c2_309)">
<path d="M-4.5,13.7H-27.4m939.5,0H935M-4.5,1031.2H-27.4m939.5,0H935M13.7,-4.5V-27.4m0,1077v22.9m880,-1077V-27.4m0,1077v22.9" class="g4_309"/>
<path d="M-4.5,13.7H-27.4m939.5,0H935M-4.5,1031.2H-27.4m939.5,0H935M13.7,-4.5V-27.4m0,1077v22.9m880,-1077V-27.4m0,1077v22.9" class="g5_309"/>
</g>
</svg>