<?xml version="1.0" encoding="UTF-8" standalone="no"?>
<!DOCTYPE svg PUBLIC "-//W3C//DTD SVG 1.1//EN"
"http://www.w3.org/Graphics/SVG/1.1/DTD/svg11.dtd">
<svg viewBox="0 0 931 1096" version="1.1" xmlns="http://www.w3.org/2000/svg" xmlns:xlink="http://www.w3.org/1999/xlink">
<defs>
<clipPath id="c0_366"><path d="M482,831.4v-16h94.3v16Z"/></clipPath>
<clipPath id="c1_366"><path d="M52,601.6V568H825v33.6Z"/></clipPath>
<clipPath id="c2_366"><path d="M491.2,221.3V191.4H619.5v29.9Z"/></clipPath>
<style type="text/css"><![CDATA[
.g0_366{
fill: none;
stroke: #00AEEF;
stroke-width: 0.763;
stroke-miterlimit: 10;
}
.g1_366{
fill: none;
stroke: #241F1F;
stroke-width: 0.687;
stroke-miterlimit: 10;
}
.g2_366{
fill: #00AEEF;
}
.g3_366{
fill: none;
stroke: #241F1F;
stroke-width: 0.763;
stroke-miterlimit: 10;
}
.g4_366{
fill: none;
stroke: #00AEEF;
stroke-width: 1.145;
}
]]></style>
</defs>
<path d="M456.8,702.9H823.5M456.8,849.5H823.5" class="g0_366"/>
<path clip-path="url(#c0_366)" d="M536.3,815.8h40.4" class="g1_366"/>
<path d="M435.8,739.2h15.7v-9.9H435.8v9.9Z" class="g2_366"/>
<image clip-path="url(#c1_366)" preserveAspectRatio="none" x="52" y="568" width="773" height="34" xlink:href="img/1.png"/>
<path clip-path="url(#c2_366)" d="M491.6,203.9h16.8m21.9,0h16.8m21.9,0h50.9" class="g3_366"/>
<path d="M351.2,405.5H368m21.8,0h16.8m21.9,0h50.9m46.2,0h22.8m14.4,0h15.1m21.9,0h13.8m37.1,0h20.7m14.4,0h13.8m21.9,0h13.1" class="g3_366"/>
<path d="M304.6,197.4c0,0,-1.5,0,-1.5,1.6v14.1c0,0,0,1.5,1.5,1.5h14.1c0,0,1.6,0,1.6,-1.5V199c0,0,0,-1.6,-1.6,-1.6H304.6Zm0,198c0,0,-1.5,0,-1.5,1.6v14.1c0,0,0,1.5,1.5,1.5h14.1c0,0,1.6,0,1.6,-1.5V397c0,0,0,-1.6,-1.6,-1.6H304.6Z" class="g4_366"/>
</svg>