<?xml version="1.0" encoding="UTF-8" standalone="no"?>
<!DOCTYPE svg PUBLIC "-//W3C//DTD SVG 1.1//EN"
"http://www.w3.org/Graphics/SVG/1.1/DTD/svg11.dtd">
<svg viewBox="0 0 811 1017" version="1.1" xmlns="http://www.w3.org/2000/svg" xmlns:xlink="http://www.w3.org/1999/xlink">
<defs>
<clipPath id="c0_355"><path d="M476.8,372.7V314.3h272v58.4Z"/></clipPath>
<style type="text/css"><![CDATA[
.g0_355{
fill: #70A6CC;
}
.g1_355{
}
]]></style>
</defs>
<path d="M156.1,102.4H724.4V80.6H156.1Z" class="g0_355"/>
<path d="M526.4,304.5v3.2l-.2,-.1l-6.4,-2.9l-.3,-.2l.3,-.2l6.4,-2.9l.2,-.1v.3l-.1,.2l-6.3,2.9l-.2,-.4h.2l6.3,3l-.1,.3l-.1,-.2v-2.9Z" class="g1_355"/>
<path d="M526.1,304.5h.3v-2.9h-.3Z" class="g1_355"/>
<path d="M526.4,304.7h18.7v-.4H526.4Z" class="g1_355"/>
<path d="M544.8,304.5h.3V266.7h-.3Z" class="g1_355"/>
<path clip-path="url(#c0_355)" d="M508.2,372.8h.4V314.3h-.4Z" class="g1_355"/>
</svg>