<?xml version="1.0" encoding="UTF-8" standalone="no"?>
<!DOCTYPE svg PUBLIC "-//W3C//DTD SVG 1.1//EN"
"http://www.w3.org/Graphics/SVG/1.1/DTD/svg11.dtd">
<svg viewBox="0 0 931 1096" version="1.1" xmlns="http://www.w3.org/2000/svg" xmlns:xlink="http://www.w3.org/1999/xlink">
<defs>
<clipPath id="c0_338"><path d="M176.8,333.9V301.1H333.5v32.8Z"/></clipPath>
<clipPath id="c1_338"><path d="M52,701.5V667.9H825v33.6Z"/></clipPath>
<style type="text/css"><![CDATA[
.g0_338{
fill: none;
stroke: #241F1F;
stroke-width: 0.763;
stroke-miterlimit: 10;
}
.g1_338{
fill: none;
stroke: #00AEEF;
stroke-width: 0.763;
}
.g2_338{
fill: none;
stroke: #00AEEF;
stroke-width: 1.145;
}
.g3_338{
fill: none;
stroke: #241F1F;
stroke-width: 0.687;
stroke-miterlimit: 10;
}
.g4_338{
fill: #00AEEF;
}
]]></style>
</defs>
<path d="M383.9,925.8h40.9" class="g0_338"/>
<path d="M343.4,893.7c0,0,-3.1,0,-3.1,3V954c0,0,0,3.1,3.1,3.1H767.3c0,0,3.1,0,3.1,-3.1V896.7c0,0,0,-3,-3.1,-3H343.4Z" class="g1_338"/>
<path d="M304.6,917c0,0,-1.5,0,-1.5,1.6v14.1c0,0,0,1.5,1.5,1.5h14.1c0,0,1.6,0,1.6,-1.5V918.6c0,0,0,-1.6,-1.6,-1.6H304.6Z" class="g2_338"/>
<path clip-path="url(#c0_338)" d="M242.1,317.3h91.8" class="g3_338"/>
<path d="M159.3,496.1h28.1m19.7,0H280m19.7,0h96.5" class="g3_338"/>
<path d="M53.9,406.6H69.5v-9.9H53.9v9.9Z" class="g4_338"/>
<path d="M621.7,341.7h24.6" class="g3_338"/>
<path d="M449.6,107.7h15.6V97.9H449.6v9.8Z" class="g4_338"/>
<image clip-path="url(#c1_338)" preserveAspectRatio="none" x="52" y="668" width="773" height="34" xlink:href="img/1.png"/>
</svg>