<?xml version="1.0" encoding="UTF-8" standalone="no"?>
<!DOCTYPE svg PUBLIC "-//W3C//DTD SVG 1.1//EN"
"http://www.w3.org/Graphics/SVG/1.1/DTD/svg11.dtd">
<svg viewBox="0 0 907 1045" version="1.1" xmlns="http://www.w3.org/2000/svg" xmlns:xlink="http://www.w3.org/1999/xlink">
<defs>
<clipPath id="c0_230"><path d="M172,197.1l-.2,-3.1h.1l-.7,-13.3l-.2,.1v-.1l-7.2,.4V181h.1v-.1h.1v-.1h.2v-.2h.1v-.1h.2v-.1h.1v-.1h.1v-.1h.2V180h.1v-.1h.1H165h.2v-.1h.1l-.1,-.1h.1v-.1h.2v-.2h.2v-.2h.3l-.1,-.1h.1V179h.2l-.1,-.1h.2v-.2h.1v-.1h.2v-.2h.2v-.1l.1,-.1h.1v-.1h.1V178h.1v-.1h.2v-.2h.1v-.1h.2v-.2h.1v-.1h.1v-.1h.2V177h.2v-.1h.1v-.1h.1v-.1h.1v-.1h.2l-.1,-.1h.2v-.1h.1v-.1h.1v-.1h.1V176h.2v-.1h.1v-.1h.1v-.1h.1v-.1h.2l-.1,-.1h.1v-.1h.1v-.1h.1v-.1h.2v-.1h.1l.1,-.1v-.1h.1v-.1h.1v-.1h.1v-.1h.1v-.1h.1v-.1h.1v-.1h.1v-.1h.2v-.1h.1V174h.1v-.1h.1v-.1h.1l.1,-.1h.1v-.2h.1l.1,-.1v-.1h.1v-.1h.2l-.1,-.1h.2V173h.1l-.1,-.1h.1v-.1h.2v-.1h.1v-.1h.1v-.1h.2v-.1h.1v-.2h.2h-.1h.1v-.1h.1v-.2h.2v-.1h.1v-.1h.1v-.1h.1v-.1h.2v-.2h.1v-.1h.2v-.1h.1v-.2h.2v-.1h.1v-.1h.1v-.1h.1v-.1h.1v-.1h.1v-.1h.2v-.2h.1V170h.1l.1,-.1h.2v-.2h.1l.1,-.1v-.1h.1v-.1h.1v-.1h.2v-.2h.1V169h.1l.1,-.1h.1v-.1h.1l-.1,-.1h.2l.1,-.1h-.1h.2v-.1h.1v-.2h.2v-.2l.2,-.1v-.1h.1v-.1h.1v-.1h.2v-.1h.1v-.1h.1v-.1h.2v-.1h.1v-.2h.2V167h.1v-.1h.1v-.2h.1v-.2h-.1l-.1,-.1v-.1h-.1v-.1h-.1V166H179v-.2h-.1v-.1h-.1v-.1h-.1v-.2l-.1,-.1v-.2l-.1,.1v-.3h-.1v-.1h-.1v-.2h-.1v-.2l-.1,-.3v-.3H178v-.3h-.1V163h-.1l-.1,-1.7h.1v-.8h.1v-.6h.1v-.2h.1v-.3h.1V159h.1v-.2h.1v-.3h.1v-.1h.1v-.2h.1V158h.1v-.2h.1v-.1h.1v-.2h.1v-.1h.1v-.1h.1v-.2h.1V157h.1v-.1h.1v-.1h.1v-.1h.1v-.2h.2v-.1h.1v-.1h.1v-.1h.1v-.1h.2v-.2h.1v-.1h.2v-.1h.1v-.1h.2v-.1h.2v-.1h.1v-.1h.2v-.1h.1v-.1h.1l.3,-.1h.1v-.1h.2v-.1h.2v-.1h.3v-.1h.6v-.1h.5v-.1l1.3,-.1h.5c.6,.1,2.6,.7,2.8,.8l.1,.1c.3,0,0,.1,.3,.1c.1,.1,0,.1,.2,.1c.1,.2,.1,.1,.3,.2c.1,.2,.2,.2,.3,.3c.2,.3,.7,.4,.8,.8c.2,0,.3,.1,.3,.3c.2,.1,.1,.1,.2,.3l.2,.1q0,.1,0,.1c0,0,.1,0,.1,.1l.1,.1c.1,.2,1.3,2.8,1.1,2.8l.1,1.8h-.1l.1,.5h-.1v.3h-.1v.5h-.1v.5h-.1v.1h-.1v.4h-.1v.1H192v.3h-.1v.2h-.1h.1h-.1v.2h-.1v.2h-.1v.2h-.1v.1h-.1v.1h.1v.1h.1v.1h.2v.1v-.1v.1h.1v.1h.2v.1h.1v.1h.1v.1h.1v.1h.3v.2h.1v.1h.2v.1h.1v.1l.1,-.1v.1h.1v.2h.2v.1h.1v.1h.2v.1h.1v.1l.1,-.1v.1h.1l.1,.1v.1h.2v.1l.1,.1h.1v.1h.1v.1h.2v.1h.1v.1h.2v.1h.1v.1h.2v.1h.1v.1h.2v.1h.1v.1h.1v.1h.1v.1h.1v.1h.1v.1h.2v.1h.2v.1h.1v.1h.1v.1h.2v.1h.1v.1h.2v.2h.3v.2h.2v.1h.1v.1h.2v.1h.1v.1h.2v.1h.1v.1h.2v.1h.1v.1h.1v.1h.1l.1,.2l.1,-.1v.1h.1v.1h.1v.1h.1v.1h.1v.1l.1,-.1v.1h.1v.1h.2v.1h.1v.1h.1v.1l.1,-.1v.1h.1v.1h.1v.1h.1v.1h.1v.1h.2v.1h.1v.1h.1v.1h.1v.1l.2,-.1v.1l.1,.1h.1v.1h.1v.1h.1v.1l.2,-.1v.2h.1v.1h.2v.2h.3v.2h.3v.2h.2v.1h.1v.1h.2v.1h.1v.1h.1v.1h.2v.1h.1v.1h.1v.1h.1v.1h.2v.1h.1v.1h.1v.1h.2v.1h.1v.1h.2v.1h.1v.1h.1l.1,.1h.1v.1h.1v.1h.1v.1h.2v.1h.1v.1h.2v.1h.1v.1h.2v.1h.1v.1h.2v.2h.2v.1h.1v.1h.2v.1h.1v.1h.1v.1h.1v.1h.1v.1l.1,-.1v.1h.2v.1h.1v.1h.1v.1h.1v.1l.1,-.1v.1h.1v.1h.1l-.1,.1l-.5,.1v-.1h-.3v.1h-.6v-.1h-.2v.1l-5.2,.3V179h-.2v.1h-.4l.9,16.4l-6.7,.4L172,197.1Zm13.8,-42.8v0Z"/></clipPath>
<clipPath id="c1_230"><path d="M508.5,955L480.4,824.4h162V606.7L748.2,584l65.6,305.4L508.5,955Z"/></clipPath>
<clipPath id="c2_230"><path d="M137.9,464.7V103.9H491.4V464.7Z"/></clipPath>
<clipPath id="c3_230"><path d="M490.6,619V103.9H642.4V606.7L585.2,619Z"/></clipPath>
<clipPath id="c4_230"><path d="M137.9,824.4V463.9H491.4V639.2l-48.5,10.4l37.5,174.8Z"/></clipPath>
<clipPath id="c5_230"><path d="M490.6,639.3v-21h98l-98,21Z"/></clipPath>
<clipPath id="c6_230"><path d="M480.4,824.4L442.9,649.6L642.4,606.7V824.4Z"/></clipPath>
<clipPath id="c7_230"><path d="M172,197.1l-.2,-3.1h.1l-.7,-13.3l-.2,.1v-.1l-7.2,.4V181h.1v-.1h.1v-.1h.2v-.2h.1v-.1h.2v-.1h.1v-.1h.1v-.1h.2V180h.1v-.1h.1H165h.2v-.1h.1l-.1,-.1h.1v-.1h.2v-.2h.2v-.2h.3l-.1,-.1h.1V179h.2l-.1,-.1h.2v-.2h.1v-.1h.2v-.2h.2v-.1l.1,-.1h.1v-.1h.1V178h.1v-.1h.2v-.2h.1v-.1h.2v-.2h.1v-.1h.1v-.1h.2V177h.2v-.1h.1v-.1h.1v-.1h.1v-.1h.2l-.1,-.1h.2v-.1h.1v-.1h.1v-.1h.1V176h.2v-.1h.1v-.1h.1v-.1h.1v-.1h.2l-.1,-.1h.1v-.1h.1v-.1h.1v-.1h.2v-.1h.1l.1,-.1v-.1h.1v-.1h.1v-.1h.1v-.1h.1v-.1h.1v-.1h.1v-.1h.1v-.1h.2v-.1h.1V174h.1v-.1h.1v-.1h.1l.1,-.1h.1v-.2h.1l.1,-.1v-.1h.1v-.1h.2l-.1,-.1h.2V173h.1l-.1,-.1h.1v-.1h.2v-.1h.1v-.1h.1v-.1h.2v-.1h.1v-.2h.2h-.1h.1v-.1h.1v-.2h.2v-.1h.1v-.1h.1v-.1h.1v-.1h.2v-.2h.1v-.1h.2v-.1h.1v-.2h.2v-.1h.1v-.1h.1v-.1h.1v-.1h.1v-.1h.1v-.1h.2v-.2h.1V170h.1l.1,-.1h.2v-.2h.1l.1,-.1v-.1h.1v-.1h.1v-.1h.2v-.2h.1V169h.1l.1,-.1h.1v-.1h.1l-.1,-.1h.2l.1,-.1h-.1h.2v-.1h.1v-.2h.2v-.2l.2,-.1v-.1h.1v-.1h.1v-.1h.2v-.1h.1v-.1h.1v-.1h.2v-.1h.1v-.2h.2V167h.1v-.1h.1v-.2h.1v-.2h-.1l-.1,-.1v-.1h-.1v-.1h-.1V166H179v-.2h-.1v-.1h-.1v-.1h-.1v-.2l-.1,-.1v-.2l-.1,.1v-.3h-.1v-.1h-.1v-.2h-.1v-.2l-.1,-.3v-.3H178v-.3h-.1V163h-.1l-.1,-1.7h.1v-.8h.1v-.6h.1v-.2h.1v-.3h.1V159h.1v-.2h.1v-.3h.1v-.1h.1v-.2h.1V158h.1v-.2h.1v-.1h.1v-.2h.1v-.1h.1v-.1h.1v-.2h.1V157h.1v-.1h.1v-.1h.1v-.1h.1v-.2h.2v-.1h.1v-.1h.1v-.1h.1v-.1h.2v-.2h.1v-.1h.2v-.1h.1v-.1h.2v-.1h.2v-.1h.1v-.1h.2v-.1h.1v-.1h.1l.3,-.1h.1v-.1h.2v-.1h.2v-.1h.3v-.1h.6v-.1h.5v-.1l1.3,-.1h.5c.6,.1,2.6,.7,2.8,.8l.1,.1c.3,0,0,.1,.3,.1c.1,.1,0,.1,.2,.1c.1,.2,.1,.1,.3,.2c.1,.2,.2,.2,.3,.3c.2,.3,.7,.4,.8,.8c.2,0,.3,.1,.3,.3c.2,.1,.1,.1,.2,.3l.2,.1q0,.1,0,.1c0,0,.1,0,.1,.1l.1,.1c.1,.2,1.3,2.8,1.1,2.8l.1,1.8h-.1l.1,.5h-.1v.3h-.1v.5h-.1v.5h-.1v.1h-.1v.4h-.1v.1H192v.3h-.1v.2h-.1h.1h-.1v.2h-.1v.2h-.1v.2h-.1v.1h-.1v.1h.1v.1h.1v.1h.2v.1v-.1v.1h.1v.1h.2v.1h.1v.1h.1v.1h.1v.1h.3v.2h.1v.1h.2v.1h.1v.1l.1,-.1v.1h.1v.2h.2v.1h.1v.1h.2v.1h.1v.1l.1,-.1v.1h.1l.1,.1v.1h.2v.1l.1,.1h.1v.1h.1v.1h.2v.1h.1v.1h.2v.1h.1v.1h.2v.1h.1v.1h.2v.1h.1v.1h.1v.1h.1v.1h.1v.1h.1v.1h.2v.1h.2v.1h.1v.1h.1v.1h.2v.1h.1v.1h.2v.2h.3v.2h.2v.1h.1v.1h.2v.1h.1v.1h.2v.1h.1v.1h.2v.1h.1v.1h.1v.1h.1l.1,.2l.1,-.1v.1h.1v.1h.1v.1h.1v.1h.1v.1l.1,-.1v.1h.1v.1h.2v.1h.1v.1h.1v.1l.1,-.1v.1h.1v.1h.1v.1h.1v.1h.1v.1h.2v.1h.1v.1h.1v.1h.1v.1l.2,-.1v.1l.1,.1h.1v.1h.1v.1h.1v.1l.2,-.1v.2h.1v.1h.2v.2h.3v.2h.3v.2h.2v.1h.1v.1h.2v.1h.1v.1h.1v.1h.2v.1h.1v.1h.1v.1h.1v.1h.2v.1h.1v.1h.1v.1h.2v.1h.1v.1h.2v.1h.1v.1h.1l.1,.1h.1v.1h.1v.1h.1v.1h.2v.1h.1v.1h.2v.1h.1v.1h.2v.1h.1v.1h.2v.2h.2v.1h.1v.1h.2v.1h.1v.1h.1v.1h.1v.1h.1v.1l.1,-.1v.1h.2v.1h.1v.1h.1v.1h.1v.1l.1,-.1v.1h.1v.1h.1l-.1,.1l-.5,.1v-.1h-.3v.1h-.6v-.1h-.2v.1l-5.2,.3V179h-.2v.1h-.4l.9,16.4l-23,1.2l-7,.4Zm13.8,-42.8v0Z"/></clipPath>
<clipPath id="c8_230"><path d="M-2.6,1047.7V-2.6H910.2V1047.7Z"/></clipPath>
<style type="text/css"><![CDATA[
.g0_230{
fill: #F9F9F9;
}
.g1_230{
fill: none;
stroke: #D3D3D3;
stroke-width: 1.743;
stroke-linecap: butt;
stroke-linejoin: miter;
stroke-miterlimit: 4;
}
.g2_230{
fill: none;
stroke: #636363;
stroke-width: 1.497;
stroke-linecap: butt;
stroke-linejoin: miter;
stroke-miterlimit: 4;
}
.g3_230{
fill: none;
stroke: #FFFFFF;
stroke-width: 1.909;
stroke-linecap: butt;
stroke-linejoin: miter;
}
.g4_230{
fill: none;
stroke: #000000;
stroke-width: 0.381;
stroke-linecap: butt;
stroke-linejoin: miter;
}
]]></style>
</defs>
<image clip-path="url(#c1_230)" preserveAspectRatio="none" x="443" y="584" width="371" height="371" xlink:href="img/1.png"/>
<image clip-path="url(#c2_230)" preserveAspectRatio="none" x="138" y="103" width="353" height="362" xlink:href="img/2.jpg"/>
<image clip-path="url(#c3_230)" preserveAspectRatio="none" x="491" y="103" width="152" height="516" xlink:href="img/3.jpg"/>
<image clip-path="url(#c4_230)" preserveAspectRatio="none" x="138" y="464" width="353" height="361" xlink:href="img/4.jpg"/>
<image clip-path="url(#c5_230)" preserveAspectRatio="none" x="491" y="618" width="101" height="52" xlink:href="img/5.jpg"/>
<image clip-path="url(#c6_230)" preserveAspectRatio="none" x="442" y="606" width="246" height="252" xlink:href="img/6.png"/>
<path d="M140.4,119.4l19.2,691.4L629,797.8L609.8,106.3L140.4,119.4Z" class="g0_230"/>
<path d="M140.4,119.4l19.2,691.4L629,797.8L609.8,106.3L140.4,119.4Z" class="g1_230"/>
<g clip-path="url(#c7_230)">
<image clip-path="url(#c0_230)" preserveAspectRatio="none" x="162" y="153" width="48" height="44" xlink:href="img/7.png"/>
</g>
<path d="M260.2,719.9c-3.7,1.4,-7.8,2.5,-10.6,5.4c.3,2.3,7,2.9,8.8,3c2.7,0,3,-1.2,2.4,-3.9c-.4,-1.9,-1.4,-3.6,-2.3,-5.3c-.6,-1.1,-2,-3,-1.5,-4.3c.4,.6,.5,2,.2,2.7c-.7,1.3,-1.5,1,-2.8,.7c-3,-.5,-4,-1.8,-3.2,-4.6c-.2,2.3,-2.4,7.3,-5.1,4.4c-2.5,-2.5,-2.2,-9.4,.8,-11.6c4.1,-2.9,1.2,7.5,.6,8.8c-.7,1.6,-1.7,3.4,-3.6,3.8c-2.3,.6,-4.2,-.7,-5,-2.7c-.8,-2.2,-.7,-7.9,2.5,-8.3c3.5,-.4,.9,6,0,7.1c-1.3,1.7,-6.1,7.2,-9,5.4c-1.1,-.8,-1.8,-2.9,-1.8,-4.2c.4,1.8,-1.3,3.4,-2.5,4.5c-1.6,1.5,-3.9,2.4,-6.1,1.8c-1.6,-.3,-1.8,-1.5,-3,-2.2c-.6,-.4,-1.2,-.1,-1.9,-.2c2,3.6,10,.1,9.1,-3.8c-.9,-3.8,-7.8,.6,-9.1,-1.8c.3,-.6,.9,-.7,1.5,-1.1c1.2,-.6,2.5,-1.4,3.7,-2c.7,-.4,2.8,-2,2.6,-3.1c-.5,-2.1,-5.2,-.1,-6.1,.3c-1.4,.5,-2.7,.9,-3.5,2.2c-.2,.4,-.3,.4,-.6,.5c.2,.4,.4,.7,.6,1.2m56.6,5.1c-.3,.4,-.8,.5,-1.3,.4c-.3,-1.1,.7,-2.4,1.3,-3.3c.9,-1.4,2,-2.8,2.4,-4.4c.3,-1.4,-.1,-2.7,.1,-4.1c.2,-2.9,2.5,-3,4.6,-4.1c-.5,0,-1,0,-1.4,.1m62.3,9.9c.1,1.6,-2.6,1.5,-3.7,1.6c-1.4,0,-2.4,-.7,-3.7,-.8c0,.3,-.1,.5,-.3,.7c-.9,-.4,-1.4,-2.2,-2.6,-2c-1.2,.1,-1,1.5,-1.8,2c-2.4,1.6,-4.8,-2.5,-1.5,-2.6c.8,2.4,-1.1,3,-2.9,3.2c-1.1,.1,-5.7,.8,-6.4,-.6c1.1,.1,1.9,1.2,3.1,.8c.6,-1.3,-.9,-4.3,-2.5,-3.9c-.1,1.5,-1,3,-2.5,3.7c-1.1,.5,-4.3,.6,-4.9,-.7c.5,-.9,2.1,.1,2.7,-.8c.6,-.7,-.1,-1.6,-.5,-2.1c-1.5,-1.3,-1.9,0,-2.2,1.5c-.6,2.5,-1.5,5,-1.7,7.6c-.1,-2.2,.3,-4.2,.7,-6.3c.3,-.9,.4,-1.6,-.4,-2.3c-.7,1.4,-2.2,1.4,-3.6,1.2c-.2,-.5,-.3,-1,-.8,-1.3c-.5,.3,-.5,.8,-.8,1.2c-.4,.5,-1.1,.7,-1.5,1.2c0,-.7,.2,-1.6,-.2,-2.2c-.8,0,-1.8,-.1,-2.4,.3c-.4,.4,-.6,1.2,-1,1.7c-.3,-1.1,.3,-2.4,-1,-3c-.6,-.3,-1.4,-.2,-2,0c-.2,1.1,.4,2.9,-.8,3.5c-1.6,.8,-3.1,-.9,-2.7,-2.4c.3,-1,1.6,-1.7,2.2,-.6c.6,1.1,-1.3,3.1,-2.2,3.5c-.5,.2,-3.2,.7,-3.7,0c-.6,-1,1.3,-3,.4,-4.2c-1.9,-2.7,-7.2,1.8,-6.1,4.3c.5,-1.5,.7,-3,.8,-4.5c0,-1.5,-.4,-3.1,.1,-4.5m-69.4,4.5c1.3,1.4,2.6,2.6,3,4.6c.2,1.1,-.1,2.2,.3,3.3c.6,1.4,2.4,3.1,.8,4.4m50.7,-19.7c.7,-2,6.2,-1.9,7.9,-1.3c.3,.3,.7,.5,1,.7c.8,.4,1.9,0,2.8,.1c1.5,.1,2.9,-.3,4.4,-.3" class="g2_230"/>
<g clip-path="url(#c8_230)">
<path d="M-4.5,13.7H-27.4m939.5,0H935M-4.5,1031.2H-27.4m939.5,0H935M13.7,-4.5V-27.4m0,1077v22.9m880,-1077V-27.4m0,1077v22.9" class="g3_230"/>
<path d="M-4.5,13.7H-27.4m939.5,0H935M-4.5,1031.2H-27.4m939.5,0H935M13.7,-4.5V-27.4m0,1077v22.9m880,-1077V-27.4m0,1077v22.9" class="g4_230"/>
</g>
</svg>