<?xml version="1.0" encoding="UTF-8" standalone="no"?>
<!DOCTYPE svg PUBLIC "-//W3C//DTD SVG 1.1//EN"
"http://www.w3.org/Graphics/SVG/1.1/DTD/svg11.dtd">
<svg viewBox="0 0 770 1017" version="1.1" xmlns="http://www.w3.org/2000/svg" xmlns:xlink="http://www.w3.org/1999/xlink">
<defs>
<style type="text/css"><![CDATA[
.g0_391{
fill: none;
stroke: #000000;
stroke-width: 0.618;
stroke-linecap: butt;
stroke-linejoin: miter;
}
.g1_391{
fill: none;
stroke: #FFFFFF;
stroke-width: 0.418;
stroke-linecap: butt;
stroke-linejoin: miter;
}
.g2_391{
fill: none;
stroke: #000000;
stroke-width: 1.671;
stroke-linecap: butt;
stroke-linejoin: miter;
}
.g3_391{
fill: none;
stroke: #000000;
stroke-width: 1.634;
stroke-linecap: butt;
stroke-linejoin: miter;
}
]]></style>
</defs>
<path d="M74.2,69.2H713.5" class="g0_391"/>
<path d="M348.6,151.4h16.7v16.7H348.6V151.4ZM81.1,155.5H97.9v16.8H81.1V155.5Z" class="g1_391"/>
<path d="M160.5,205.7l75.2,-75.2m62.7,50.1l-41.8,29.3m0,-87.8l41.8,37.6M244.1,134.6v66.9M152.2,134.6v66.9M164.7,214h66.9M164.7,122.1h66.9M165.5,214c0,7.4,-6,13.4,-13.3,13.4c-7.4,0,-13.4,-6,-13.4,-13.4c0,-7.3,6,-13.3,13.4,-13.3c7.3,0,13.3,6,13.3,13.3Zm92,0c0,7.4,-6,13.4,-13.4,13.4c-7.4,0,-13.4,-6,-13.4,-13.4c0,-7.3,6,-13.3,13.4,-13.3c7.4,0,13.4,6,13.4,13.3Zm62.7,-41.8c0,7.4,-6,13.4,-13.4,13.4c-7.4,0,-13.4,-6,-13.4,-13.4c0,-7.3,6,-13.3,13.4,-13.3c7.4,0,13.4,6,13.4,13.3ZM257.5,122.1c0,7.4,-6,13.4,-13.4,13.4c-7.4,0,-13.4,-6,-13.4,-13.4c0,-7.4,6,-13.4,13.4,-13.4c7.4,0,13.4,6,13.4,13.4Zm-92,0c0,7.4,-6,13.4,-13.3,13.4c-7.4,0,-13.4,-6,-13.4,-13.4c0,-7.4,6,-13.4,13.4,-13.4c7.3,0,13.3,6,13.3,13.4Z" class="g2_391"/>
<path d="M398.9,228.6V102.4" class="g0_391"/>
<path d="M428.1,128.7h36.8V104.2H428.1v24.5ZM428.1,153.3h36.8V128.7H428.1v24.6ZM428.1,177.8h36.8V153.3H428.1v24.5ZM428.1,202.3h36.8V177.8H428.1v24.5ZM428.1,226.8h36.8V202.3H428.1v24.5ZM501.7,124.7h28.6V108.3H501.7v16.4ZM554.8,124.7h28.6V108.3H554.8v16.4ZM501.7,149.2h28.6V132.8H501.7v16.4ZM554.8,149.2h28.6V132.8H554.8v16.4ZM607.9,149.2h28.6V132.8H607.9v16.4ZM661,149.2h28.6V132.8H661v16.4ZM501.7,173.7h28.6V157.3H501.7v16.4ZM554.8,173.7h28.6V157.3H554.8v16.4ZM501.7,198.2h28.6V181.9H501.7v16.3ZM554.8,198.2h28.6V181.9H554.8v16.3ZM607.9,198.2h28.6V181.9H607.9v16.3ZM501.7,222.7h28.6V206.4H501.7v16.3ZM554.8,222.7h28.6V206.4H554.8v16.3ZM607.9,222.7h28.6V206.4H607.9v16.3ZM583.4,116.5h12.2v8.2m-8.1,0h16.3m-12.2,4h8.1M464.9,116.5h36.8m28.6,0h24.5M530.3,141h24.5m-24.5,24.5h24.5M530.3,190h24.5m-24.5,24.5h24.5M583.4,190h24.5m-24.5,24.5h24.5M583.4,141h24.5m28.6,0H661m-196.1,0h36.8m-36.8,24.5h36.8M464.9,190h36.8m-36.8,24.5h36.8M689.6,141h12.3v8.2m-8.2,0H710m-12.2,4.1H706M636.5,190h12.3v8.2m-12.3,16.3h12.3v8.2m-8.2,-24.5h16.3m-12.2,4.1h8.1m-12.2,20.4h16.3m-12.2,4.1h8.1M583.4,165.5h12.2v8.2m-8.1,0h16.3m-12.2,4.1h8.1" class="g3_391"/>
<path d="M83.4,254.9h621" class="g0_391"/>
</svg>