<?xml version="1.0" encoding="UTF-8" standalone="no"?>
<!DOCTYPE svg PUBLIC "-//W3C//DTD SVG 1.1//EN"
"http://www.w3.org/Graphics/SVG/1.1/DTD/svg11.dtd">
<svg viewBox="0 0 931 1096" version="1.1" xmlns="http://www.w3.org/2000/svg" xmlns:xlink="http://www.w3.org/1999/xlink">
<defs>
<clipPath id="c0_14"><path d="M295.1,635.9V438H815.6V635.9Z"/></clipPath>
<clipPath id="c1_14"><path d="M52,130.1V96.5H825v33.6Z"/></clipPath>
<style type="text/css"><![CDATA[
.g0_14{
fill: #CFEDFC;
}
.g1_14{
fill: none;
stroke: #241F1F;
stroke-width: 0.611;
stroke-miterlimit: 3;
}
.g2_14{
fill: #241F1F;
}
.g3_14{
fill: none;
stroke: #EE008C;
stroke-width: 0.916;
stroke-linejoin: round;
}
.g4_14{
fill: none;
stroke: #00AEEF;
stroke-width: 0.916;
stroke-linejoin: round;
}
.g5_14{
fill: none;
stroke: #241F1F;
stroke-width: 0.763;
stroke-linejoin: round;
}
.g6_14{
fill: none;
stroke: #241F1F;
stroke-width: 0.381;
stroke-miterlimit: 3;
}
.g7_14{
fill: none;
stroke: #241F1F;
stroke-width: 0.534;
stroke-miterlimit: 3;
}
.g8_14{
fill: none;
stroke: #00AEEF;
stroke-width: 0.534;
stroke-miterlimit: 3;
stroke-dasharray: 8,4;
}
.g9_14{
fill: none;
stroke: #00AEEF;
stroke-width: 0.534;
stroke-miterlimit: 3;
stroke-dasharray: 9,4;
}
.ga_14{
fill: none;
stroke: #00AEEF;
stroke-width: 0.534;
stroke-miterlimit: 3;
stroke-dasharray: 10,4;
}
.gb_14{
fill: none;
stroke: #00AEEF;
stroke-width: 0.763;
}
.gc_14{
fill: #FFF;
}
.gd_14{
fill: none;
stroke: #00AEEF;
stroke-width: 1.145;
}
]]></style>
</defs>
<path d="M387.6,588.6h16.5V454.7H387.6V588.6Z" class="g0_14"/>
<path clip-path="url(#c0_14)" d="M294.6,552.9H536.5" class="g1_14"/>
<path fill-rule="evenodd" d="M536.5,552.9l-1.7,-2.4l6.6,2.4l-6.6,2.4Z" class="g2_14"/>
<path d="M316,611V447.5" class="g1_14"/>
<path fill-rule="evenodd" d="M316,447.5l-2.5,1.6l2.5,-6.5l2.4,6.5Z" class="g2_14"/>
<path clip-path="url(#c0_14)" d="M327.1,530.8c27.5,-82.5,77.5,-108.1,209,-33" class="g3_14"/>
<path d="M327.1,574.8c35.3,30.3,118.7,30.3,209,-110" class="g4_14"/>
<path d="M336.5,549.8v6.1M503,549.8v6.1" class="g1_14"/>
<path d="M503,480.3v29.5M336.5,507.1v74.4" class="g5_14"/>
<path d="M437,583.4C425.6,567.2,403.7,566.1,397.7,555.8" class="g6_14"/>
<path d="M396,552.9l3.7,3l-2,-.1l-.9,1.7Z" class="g2_14"/>
<path d="M406.4,454.7c2.6,.1,3.2,2.8,3.3,6v50.9c.1,3.2,-.2,5.9,2.4,6c-2.6,.1,-2.3,2.7,-2.4,6v58.6c-.1,3.3,-.7,6.3,-3.3,6.4M385,454.7c-2.6,.1,-3.2,2.5,-3.3,5.4v37.2c-.1,2.9,.2,5.2,-2.4,5.3c2.6,.1,2.3,2.4,2.4,5.3v38.2c.1,2.9,.7,5.5,3.3,5.6m19.1,39.9c0,1.4,-1.3,1.1,-2.8,1.1h-2.2c-1.6,.1,-2.8,0,-2.9,1.4c0,-1.4,-1.3,-1.3,-2.8,-1.4h-2.8c-1.5,0,-2.9,.3,-3,-1.1m-3.2,-36.8c-1.2,0,-1.7,1,-1.7,2.3V569c-.1,1.3,0,2.3,-1.2,2.4c1.2,0,1.1,1.1,1.2,2.4v12.3c0,1.3,.5,2.4,1.8,2.5" class="g7_14"/>
<path d="M395.9,454.8V588.7" class="g8_14"/>
<path d="M612.7,587h18.4V485.1H612.7V587Z" class="g0_14"/>
<path d="M631.1,590.2h18.3v-121H631.1v121Z" class="g0_14"/>
<path d="M649.4,590.4h18.3V457.5H649.4V590.4Z" class="g0_14"/>
<path d="M667.7,585.8h18.4V453.5H667.7V585.8Z" class="g0_14"/>
<path d="M686.1,580.1h18.3V453.6H686.1V580.1Z" class="g0_14"/>
<path d="M704.4,569.8h18.3V456.5H704.4V569.8Z" class="g0_14"/>
<path d="M722.7,555h18.4V462.1H722.7V555Z" class="g0_14"/>
<path d="M741.1,539.4h18.3v-71H741.1v71Z" class="g0_14"/>
<path d="M759.4,523.3h18.3V475.1H759.4v48.2Z" class="g0_14"/>
<path d="M569.2,552.9H810.7" class="g1_14"/>
<path fill-rule="evenodd" d="M810.7,552.9l-1.6,-2.4l6.5,2.4l-6.5,2.4Z" class="g2_14"/>
<path d="M590.6,611V447.5" class="g1_14"/>
<path fill-rule="evenodd" d="M590.6,447.5l-2.5,1.6l2.5,-6.5l2.4,6.5Z" class="g2_14"/>
<path d="M777.7,549.8v6.1" class="g1_14"/>
<path d="M623.7,485.5V587" class="g9_14"/>
<path d="M679.7,453.6V585.8M659.5,457.5V590.4M638.4,469.2v121" class="ga_14"/>
<path d="M713.6,456.5V569.8M694.3,453.6V580.1" class="g9_14"/>
<path d="M751.2,468.4v71m15.5,-64.3v48.2m-33,-61.2V555" class="ga_14"/>
<path clip-path="url(#c0_14)" d="M601.7,530.8c27.5,-82.5,77.5,-108.1,209,-33" class="g3_14"/>
<path d="M601.7,574.8c35.3,30.3,118.8,30.3,209,-110" class="g4_14"/>
<path d="M387.6,454.7h16.5V588.6H387.6Zm225.1,30.4h18.4V587H612.7Zm18.4,-15.9h18.3v121H631.1Zm18.3,-11.7h18.3V590.4H649.4Zm18.3,-4h18.4V585.8H667.7Zm18.4,.1h18.3V580.1H686.1Zm18.3,2.9h18.3V569.8H704.4Zm18.3,5.6h18.4V555H722.7Zm18.4,6.3h18.3v71H741.1Zm18.3,6.7h18.3v48.2H759.4Z" class="g5_14"/>
<path d="M420.8,734.1c0,0,-3,0,-3,3.1V799c0,0,0,3.1,3,3.1H689.9c0,0,3.1,0,3.1,-3.1V737.2c0,0,0,-3.1,-3.1,-3.1H420.8Z" class="gb_14"/>
<path d="M290.7,877.7c0,0,-3.1,0,-3.1,3.1V983.9c0,0,0,3,3.1,3H820.1c0,0,3,0,3,-3V880.8c0,0,0,-3.1,-3,-3.1Z" class="gc_14"/>
<path d="M303.8,887.8c0,0,-1.5,0,-1.5,1.5v14.2c0,0,0,1.5,1.5,1.5H318c0,0,1.5,0,1.5,-1.5V889.3c0,0,0,-1.5,-1.5,-1.5H303.8Z" class="gd_14"/>
<path d="M290.7,877.7c0,0,-3.1,0,-3.1,3.1V983.9c0,0,0,3,3.1,3H820.1c0,0,3,0,3,-3V880.8c0,0,0,-3.1,-3,-3.1H290.7Z" class="gb_14"/>
<path d="M93.3,229.8V294c35.6,19.9,92.9,-2.3,137.9,-61.1l-.4,-23.7C173.2,177.9,113.6,175.6,93.3,229.8Z" class="g0_14"/>
<path d="M84.2,251.2c22.9,-68.7,64.5,-90.1,174.1,-27.5" class="g3_14"/>
<path d="M84.2,287.9c29.4,25.2,98.9,25.2,174.1,-91.7" class="g4_14"/>
<path d="M53.5,269.6H258.2" class="g1_14"/>
<path fill-rule="evenodd" d="M258.2,269.6l-1.6,-2.4l6.5,2.4l-6.5,2.5Z" class="g2_14"/>
<path d="M74.9,324.6v-165" class="g1_14"/>
<path fill-rule="evenodd" d="M74.9,159.6l-2.5,1.6l2.5,-6.5l2.4,6.5Z" class="g2_14"/>
<path d="M230.8,209.2v60.4M93.3,229.8V294" class="g5_14"/>
<path d="M304.6,756.6c0,0,-1.5,0,-1.5,1.5v14.2c0,0,0,1.5,1.5,1.5h14.1c0,0,1.6,0,1.6,-1.5V758.1c0,0,0,-1.5,-1.6,-1.5H304.6Z" class="gd_14"/>
<image clip-path="url(#c1_14)" preserveAspectRatio="none" x="52" y="97" width="773" height="33" xlink:href="img/1.png"/>
</svg>