<?xml version="1.0" encoding="UTF-8" standalone="no"?>
<!DOCTYPE svg PUBLIC "-//W3C//DTD SVG 1.1//EN"
"http://www.w3.org/Graphics/SVG/1.1/DTD/svg11.dtd">
<svg viewBox="0 0 811 1017" version="1.1" xmlns="http://www.w3.org/2000/svg" xmlns:xlink="http://www.w3.org/1999/xlink">
<defs>
<style type="text/css"><![CDATA[
.g0_507{
fill: #70A6CC;
}
.g1_507{
}
]]></style>
</defs>
<path d="M156.1,101.4H724.4v-22H156.1Z" class="g0_507"/>
<path d="M543.9,208.8V212l-.3,-.1L537.4,209l-.4,-.2l.4,-.2l6.2,-2.9l.3,-.1v.3l-.1,.2l-6.3,2.9l-.1,-.4h.1l6.3,3l-.2,.3l-.1,-.2v-2.9Z" class="g1_507"/>
<path d="M543.5,208.8h.4v-2.9h-.4Z" class="g1_507"/>
<path d="M543.9,209h18.7v-.4H543.9Z" class="g1_507"/>
<path d="M562.2,208.8h.4V170.1h-.4Z" class="g1_507"/>
<path d="M551.4,236.8V240l-.3,-.1L544.9,237l-.4,-.2l.4,-.2l6.2,-2.9l.3,-.1v.2l-.1,.2l-6.2,3l-.2,-.4h.2l6.2,2.9l-.2,.4l-.1,-.2v-2.9Z" class="g1_507"/>
<path d="M551,236.8h.4v-3H551Z" class="g1_507"/>
<path d="M570.6,263.2h.4V236.6h-.4Z" class="g1_507"/>
<path d="M551.4,237h19.4v-.4H551.4Z" class="g1_507"/>
<path d="M541.1,264.3v3.2l-.3,-.1l-6.3,-2.9l-.4,-.2l.4,-.2l6.3,-2.9l.3,-.1v.2l-.1,.2l-6.3,3l-.2,-.4h.2L541,267l-.2,.4l-.1,-.2v-2.9Z" class="g1_507"/>
<path d="M540.7,264.3h.4v-3h-.4Z" class="g1_507"/>
<path d="M560.4,313.9h.3V264.1h-.3Z" class="g1_507"/>
<path d="M541.1,264.5h19.4v-.4H541.1Z" class="g1_507"/>
</svg>