<?xml version="1.0" encoding="UTF-8" standalone="no"?>
<!DOCTYPE svg PUBLIC "-//W3C//DTD SVG 1.1//EN"
"http://www.w3.org/Graphics/SVG/1.1/DTD/svg11.dtd">
<svg viewBox="0 0 935 1210" version="1.1" xmlns="http://www.w3.org/2000/svg" xmlns:xlink="http://www.w3.org/1999/xlink">
<defs>
<clipPath id="c0_185"><path d="M42.8,1168.2V41.8H892.2V1168.2Z"/></clipPath>
<style type="text/css"><![CDATA[
.g0_185{
fill: #D9D9D9;
}
.g1_185{
}
]]></style>
</defs>
<path d="M93.4,358.6H492.8v39.6H93.4V358.6Z" class="g0_185"/>
<path d="M492.8,358.6H855.9v39.6H492.8V358.6Z" class="g0_185"/>
<path d="M492.8,596.2H857v1.1H492.8v-1.1Z" class="g1_185"/>
<path d="M492.8,635.8H857v1.1H492.8v-1.1Z" class="g1_185"/>
<path d="M492.8,596.2h1.1v40.7h-1.1V596.2Z" class="g1_185"/>
<path d="M855.9,596.2H857v40.7h-1.1V596.2Z" class="g1_185"/>
<path d="M93.4,596.2H493.9v1.1H93.4v-1.1Z" class="g1_185"/>
<path d="M93.4,635.8H493.9v1.1H93.4v-1.1Z" class="g1_185"/>
<path d="M93.4,596.2h1.1v40.7H93.4V596.2Z" class="g1_185"/>
<path d="M492.8,596.2h1.1v40.7h-1.1V596.2Z" class="g1_185"/>
<path d="M492.8,556.6H857v1.1H492.8v-1.1Z" class="g1_185"/>
<path d="M492.8,596.2H857v1.1H492.8v-1.1Z" class="g1_185"/>
<path d="M492.8,556.6h1.1v40.7h-1.1V556.6Z" class="g1_185"/>
<path d="M855.9,556.6H857v40.7h-1.1V556.6Z" class="g1_185"/>
<path d="M93.4,556.6H493.9v1.1H93.4v-1.1Z" class="g1_185"/>
<path d="M93.4,596.2H493.9v1.1H93.4v-1.1Z" class="g1_185"/>
<path d="M93.4,556.6h1.1v40.7H93.4V556.6Z" class="g1_185"/>
<path d="M492.8,556.6h1.1v40.7h-1.1V556.6Z" class="g1_185"/>
<path d="M492.8,517H857v1.1H492.8V517Z" class="g1_185"/>
<path d="M492.8,556.6H857v1.1H492.8v-1.1Z" class="g1_185"/>
<path d="M492.8,517h1.1v40.7h-1.1V517Z" class="g1_185"/>
<path d="M855.9,517H857v40.7h-1.1V517Z" class="g1_185"/>
<path d="M93.4,517H493.9v1.1H93.4V517Z" class="g1_185"/>
<path d="M93.4,556.6H493.9v1.1H93.4v-1.1Z" class="g1_185"/>
<path d="M93.4,517h1.1v40.7H93.4V517Z" class="g1_185"/>
<path d="M492.8,517h1.1v40.7h-1.1V517Z" class="g1_185"/>
<path d="M93.4,477.4H493.9v1.1H93.4v-1.1Z" class="g1_185"/>
<path d="M93.4,517H493.9v1.1H93.4V517Z" class="g1_185"/>
<path d="M93.4,477.4h1.1v40.7H93.4V477.4Z" class="g1_185"/>
<path d="M93.4,437.8H493.9v1.1H93.4v-1.1Z" class="g1_185"/>
<path d="M93.4,477.4H493.9v1.1H93.4v-1.1Z" class="g1_185"/>
<path d="M93.4,437.8h1.1v40.7H93.4V437.8Z" class="g1_185"/>
<path d="M492.8,398.2H857v1.1H492.8v-1.1Z" class="g1_185"/>
<path d="M492.8,517H857v1.1H492.8V517Z" class="g1_185"/>
<path d="M492.8,398.2h1.1V518.1h-1.1V398.2Z" class="g1_185"/>
<path d="M855.9,398.2H857V518.1h-1.1V398.2Z" class="g1_185"/>
<path d="M93.4,398.2H493.9v1.1H93.4v-1.1Z" class="g1_185"/>
<path d="M93.4,437.8H493.9v1.1H93.4v-1.1Z" class="g1_185"/>
<path d="M93.4,398.2h1.1v40.7H93.4V398.2Z" class="g1_185"/>
<path d="M492.8,358.6H857v1.1H492.8v-1.1Z" class="g1_185"/>
<path d="M492.8,398.2H857v1.1H492.8v-1.1Z" class="g1_185"/>
<path d="M492.8,358.6h1.1v40.7h-1.1V358.6Z" class="g1_185"/>
<path d="M855.9,358.6H857v40.7h-1.1V358.6Z" class="g1_185"/>
<path d="M93.4,358.6H493.9v1.1H93.4v-1.1Z" class="g1_185"/>
<path d="M93.4,398.2H493.9v1.1H93.4v-1.1Z" class="g1_185"/>
<path d="M93.4,358.6h1.1v40.7H93.4V358.6Z" class="g1_185"/>
<path d="M492.8,358.6h1.1v40.7h-1.1V358.6Z" class="g1_185"/>
<path d="M93.4,712.8H492.8v39.6H93.4V712.8Z" class="g0_185"/>
<path d="M492.8,712.8H855.9v39.6H492.8V712.8Z" class="g0_185"/>
<path d="M492.8,910.8H857v1.1H492.8v-1.1Z" class="g1_185"/>
<path d="M492.8,950.4H857v1.1H492.8v-1.1Z" class="g1_185"/>
<path d="M492.8,910.8h1.1v40.7h-1.1V910.8Z" class="g1_185"/>
<path d="M855.9,910.8H857v40.7h-1.1V910.8Z" class="g1_185"/>
<path d="M93.4,910.8H493.9v1.1H93.4v-1.1Z" class="g1_185"/>
<path d="M93.4,950.4H493.9v1.1H93.4v-1.1Z" class="g1_185"/>
<path d="M93.4,910.8h1.1v40.7H93.4V910.8Z" class="g1_185"/>
<path d="M492.8,910.8h1.1v40.7h-1.1V910.8Z" class="g1_185"/>
<path d="M492.8,871.2H857v1.1H492.8v-1.1Z" class="g1_185"/>
<path d="M492.8,910.8H857v1.1H492.8v-1.1Z" class="g1_185"/>
<path d="M492.8,871.2h1.1v40.7h-1.1V871.2Z" class="g1_185"/>
<path d="M855.9,871.2H857v40.7h-1.1V871.2Z" class="g1_185"/>
<path d="M93.4,871.2H493.9v1.1H93.4v-1.1Z" class="g1_185"/>
<path d="M93.4,910.8H493.9v1.1H93.4v-1.1Z" class="g1_185"/>
<path d="M93.4,871.2h1.1v40.7H93.4V871.2Z" class="g1_185"/>
<path d="M492.8,871.2h1.1v40.7h-1.1V871.2Z" class="g1_185"/>
<path d="M93.4,831.6H493.9v1.1H93.4v-1.1Z" class="g1_185"/>
<path d="M93.4,871.2H493.9v1.1H93.4v-1.1Z" class="g1_185"/>
<path d="M93.4,831.6h1.1v40.7H93.4V831.6Z" class="g1_185"/>
<path d="M492.8,831.6h1.1v40.7h-1.1V831.6Z" class="g1_185"/>
<path d="M93.4,792H493.9v1.1H93.4V792Z" class="g1_185"/>
<path d="M93.4,831.6H493.9v1.1H93.4v-1.1Z" class="g1_185"/>
<path d="M93.4,792h1.1v40.7H93.4V792Z" class="g1_185"/>
<path d="M492.8,752.4H857v1.1H492.8v-1.1Z" class="g1_185"/>
<path d="M492.8,831.6H857v1.1H492.8v-1.1Z" class="g1_185"/>
<path d="M492.8,752.4h1.1v80.3h-1.1V752.4Z" class="g1_185"/>
<path d="M855.9,752.4H857v80.3h-1.1V752.4Z" class="g1_185"/>
<path d="M93.4,752.4H493.9v1.1H93.4v-1.1Z" class="g1_185"/>
<path d="M93.4,792H493.9v1.1H93.4V792Z" class="g1_185"/>
<path d="M93.4,752.4h1.1v40.7H93.4V752.4Z" class="g1_185"/>
<path d="M492.8,712.8H857v1.1H492.8v-1.1Z" class="g1_185"/>
<path d="M492.8,752.4H857v1.1H492.8v-1.1Z" class="g1_185"/>
<path d="M492.8,712.8h1.1v40.7h-1.1V712.8Z" class="g1_185"/>
<path d="M855.9,712.8H857v40.7h-1.1V712.8Z" class="g1_185"/>
<path d="M93.4,712.8H493.9v1.1H93.4v-1.1Z" class="g1_185"/>
<path d="M93.4,752.4H493.9v1.1H93.4v-1.1Z" class="g1_185"/>
<path d="M93.4,712.8h1.1v40.7H93.4V712.8Z" class="g1_185"/>
<path d="M492.8,712.8h1.1v40.7h-1.1V712.8Z" class="g1_185"/>
<path d="M93.4,1028.5H492.8v39.6H93.4v-39.6Z" class="g0_185"/>
<path d="M492.8,1028.5H855.9v39.6H492.8v-39.6Z" class="g0_185"/>
<path d="M492.8,1147.3H857v1.1H492.8v-1.1Z" class="g1_185"/>
<g clip-path="url(#c0_185)">
<path d="M492.8,1147.3h1.1v53.9h-1.1v-53.9Z" class="g1_185"/>
<path d="M855.9,1147.3H857v53.9h-1.1v-53.9Z" class="g1_185"/>
</g>
<path d="M93.4,1147.3H493.9v1.1H93.4v-1.1Z" class="g1_185"/>
<g clip-path="url(#c0_185)">
<path d="M93.4,1147.3h1.1v53.9H93.4v-53.9Z" class="g1_185"/>
<path d="M492.8,1147.3h1.1v53.9h-1.1v-53.9Z" class="g1_185"/>
</g>
<path d="M93.4,1107.7H493.9v1.1H93.4v-1.1Z" class="g1_185"/>
<path d="M93.4,1147.3H493.9v1.1H93.4v-1.1Z" class="g1_185"/>
<path d="M93.4,1107.7h1.1v40.7H93.4v-40.7Z" class="g1_185"/>
<path d="M492.8,1068.1H857v1.1H492.8v-1.1Z" class="g1_185"/>
<path d="M492.8,1147.3H857v1.1H492.8v-1.1Z" class="g1_185"/>
<path d="M492.8,1068.1h1.1v80.3h-1.1v-80.3Z" class="g1_185"/>
<path d="M855.9,1068.1H857v80.3h-1.1v-80.3Z" class="g1_185"/>
<path d="M93.4,1068.1H493.9v1.1H93.4v-1.1Z" class="g1_185"/>
<path d="M93.4,1107.7H493.9v1.1H93.4v-1.1Z" class="g1_185"/>
<path d="M93.4,1068.1h1.1v40.7H93.4v-40.7Z" class="g1_185"/>
<path d="M492.8,1028.5H857v1.1H492.8v-1.1Z" class="g1_185"/>
<path d="M492.8,1068.1H857v1.1H492.8v-1.1Z" class="g1_185"/>
<path d="M492.8,1028.5h1.1v40.7h-1.1v-40.7Z" class="g1_185"/>
<path d="M855.9,1028.5H857v40.7h-1.1v-40.7Z" class="g1_185"/>
<path d="M93.4,1028.5H493.9v1.1H93.4v-1.1Z" class="g1_185"/>
<path d="M93.4,1068.1H493.9v1.1H93.4v-1.1Z" class="g1_185"/>
<path d="M93.4,1028.5h1.1v40.7H93.4v-40.7Z" class="g1_185"/>
<path d="M492.8,1028.5h1.1v40.7h-1.1v-40.7Z" class="g1_185"/>
</svg>