<?xml version="1.0" encoding="UTF-8" standalone="no"?>
<!DOCTYPE svg PUBLIC "-//W3C//DTD SVG 1.1//EN"
"http://www.w3.org/Graphics/SVG/1.1/DTD/svg11.dtd">
<svg viewBox="0 0 811 1017" version="1.1" xmlns="http://www.w3.org/2000/svg" xmlns:xlink="http://www.w3.org/1999/xlink">
<defs>
<style type="text/css"><![CDATA[
.g0_174{
fill: #224867;
}
.g1_174{
fill: #000;
}
]]></style>
</defs>
<path d="M156.1,400.9H724.4v-22H156.1v22Z" class="g0_174"/>
<path d="M156.1,794.9H724.4V773.7H156.1v21.2Z" class="g0_174"/>
<path d="M607,496.8V500l-.3,-.1l-6.3,-3l-.4,-.1l.4,-.2l6.3,-2.9l.3,-.2v.4l-.2,.1l-6.2,2.9l-.2,-.3h.2l6.2,2.9l-.1,.4l-.1,-.2v-2.9Z" class="g1_174"/>
<path d="M606.6,496.8h.4v-2.9h-.4v2.9Z" class="g1_174"/>
<path d="M607,497h20.5v-.4H607v.4Z" class="g1_174"/>
<path d="M627.1,521.7h.4V496.8h-.4v24.9Z" class="g1_174"/>
<path d="M579.1,875.6v3.2l-.3,-.2l-6.3,-2.9l-.4,-.1l.4,-.2l6.3,-3l.3,-.1v.3l-.2,.2l-6.3,2.9l-.1,-.3h.1l6.3,2.9l-.1,.3l-.1,-.1v-2.9Z" class="g1_174"/>
<path d="M578.7,875.6h.4v-3h-.4v3Z" class="g1_174"/>
<path d="M579.1,875.7h48.4v-.3H579.1v.3Z" class="g1_174"/>
<path d="M627.1,900.4h.4V875.6h-.4v24.8Z" class="g1_174"/>
<image preserveAspectRatio="none" x="203" y="990" width="405" height="28" xlink:href="img/1.jpg"/>
</svg>