<?xml version="1.0" encoding="UTF-8" standalone="no"?>
<!DOCTYPE svg PUBLIC "-//W3C//DTD SVG 1.1//EN"
"http://www.w3.org/Graphics/SVG/1.1/DTD/svg11.dtd">
<svg viewBox="0 0 907 1045" version="1.1" xmlns="http://www.w3.org/2000/svg" xmlns:xlink="http://www.w3.org/1999/xlink">
<defs>
<clipPath id="c0_25"><path d="M122.1,962.5V778.9H327.3V962.5Z"/></clipPath>
<clipPath id="c1_25"><path d="M307.6,431.3c.1,-.2,.2,-.3,.2,-.6q.2,-.2,.3,-.5c.4,-.3,.4,-.6,.8,-.8c.2,-.2,0,-.2,.4,-.3l-.1,-.4h-.1c.1,.1,0,.2,-.1,.2c0,0,-.1,0,-.1,0c-.1,.2,-.3,.3,-.4,.5l-.3,.1c-.1,-.2,-.1,-.4,-.1,-.5c.1,-.1,.1,-.2,.4,-.2c.1,-.2,-.1,-.2,.3,-.3l.3,-.5v-.3H309c0,.1,0,.2,-.1,.2c-.1,0,-.1,-.1,-.2,-.1c-.1,.3,.1,.2,-.3,.3l-.1,.3q-.1,0,-.2,0c-.1,0,-.1,.1,-.1,.2h-.3l-.1,-.6h.1v-.2h.1v-.1h.2l.1,.2h.1c.1,-.2,0,-.3,.4,-.3c.2,-.1,0,-.2,.3,-.3l.1,-.2c0,-.2,0,-.4,0,-.6h-.2c-.5,.3,-.9,.6,-1.6,.9l.1,.2l-.6,.1c0,-.2,0,-.3,0,-.5c.1,-.2,.3,-.3,.7,-.4c.1,-.3,.3,-.6,.7,-.7c.1,-.2,.2,-.4,.2,-.6l-.1,-.1H308c-.3,.4,-.9,.8,-1.4,1c-.2,.2,0,.2,-.4,.3l-.1,.3c-.5,.1,0,.1,-.5,.2c0,.2,0,.1,-.1,.3c-.5,.1,0,.1,-.5,.2q0,.1,-.1,.2l-.4,.1c.1,-.3,.3,-.5,.5,-.6c.1,-.5,.1,-.8,.1,-1.5l-.2,.1c-.2,.2,-.3,.4,.1,.5c-.1,.3,-.4,.7,-.7,.9c-.2,1,-.1,2.3,0,3.6l-.1,.2h-.3q0,-.1,-.1,-.1c0,0,-.1,0,-.2,0c-.3,-2.8,.5,-3.7,.9,-5.7c.3,-.1,.2,-.2,.4,-.4c.2,-.6,-.1,-1.3,-.2,-2.2h.2c.5,.5,.1,-.1,.4,2c.4,0,.2,.1,.4,.1c0,0,.1,0,.3,0c-.1,.2,-.1,.1,-.1,.3l1.5,-.2c-.1,-.6,-.1,-.7,0,-.9c-.5,-.2,-1.4,-.1,-1.9,-.2l2.5,-.3c0,.1,.1,.1,.1,.1q.1,0,.2,0l.2,.1c0,.8,0,.2,0,.9c.3,.1,.7,.4,.7,1c-.2,.1,0,.1,-.3,.1l-.2,.5c0,-.1,.1,-.1,.2,-.1c.2,0,.2,.1,.4,.2c.3,.5,.5,1.8,.2,2.1c.2,.3,-.1,-.1,.2,.7c-.2,.2,-.1,0,-.2,.4c-.4,.3,-1.1,1.1,-1.3,1.6l-.6,.1Zm3,-.8c-.7,-1.5,-1.5,-4.4,-1,-5.9l.4,-.1c-.1,.3,-.2,1.6,0,2c0,0,.1,0,.1,0c.2,0,.4,0,.6,-.1c.2,0,.4,0,.6,0c.1,0,.3,0,.3,.1h.1c0,-.3,0,-.1,-.2,-.5l-.1,-.1c-.5,.1,-.6,.1,-.7,.1c-.1,0,-.2,0,-.5,-.1c-.3,-.4,-.1,-.8,0,-1.1c.2,-.2,.1,-.2,.2,-.3c-.5,0,-.3,-1.3,-.3,-1.7h.2l.1,.9h.2v.1h.1c-.1,-.5,.1,-.7,.6,-.7c.3,0,.7,.1,1.2,.3c-.1,-.4,0,-.6,.2,-.8l-2,.1q-.1,-.1,-.2,-.2l.4,-.1c0,.1,.2,.1,.4,.1c.3,0,.6,0,1,0c.3,-.1,.7,-.1,.9,-.1c-.1,.3,-.2,.6,-.2,1.1l.3,-.1l-.1,-.5h.2l-.1,-.3h.3c-.3,.9,-.2,1.3,.3,1.3c.1,0,.2,0,.4,-.1c-.2,1.8,.3,4,-.1,5.4c-.2,.2,-.2,.1,-.2,.5l-.1,.1h-.3l-.1,-.7l.1,-.1v-.2h.1v-.4h-.2c.1,.3,0,.5,-.3,.5c-.1,0,-.3,-.1,-.5,-.1c.1,.1,.2,.2,.4,.3c.1,.3,.2,.3,.2,.8l-.6,.1l-.1,-.4h-.1l-.1,-.5h-.1v-.3h.2v-.1l-.8,.1l.2,.9h-.7c-.2,-.4,-.3,-1.2,-.2,-1.8c1,-.1,.5,0,1.1,-.2c.1,-.2,.2,-.2,.1,-.6l-.5,-.3c-.3,.2,-.6,.3,-.7,.3c-.2,0,-.3,-.1,-.3,-.3h-.3l.1,.2h-.2l.1,.5h.1v-.2h.1v-.1l.8,-.1v.1h.3v.1h.1l.1,.3h-.6v-.1l-.6,.1c0,.2,0,.3,0,.5c-.4,.1,0,.1,-.3,.2c.1,.9,.8,1.2,.9,2.1l-.7,.1Zm-3.2,-7l-.1,-.4h.2l-.1,-.6h.1v-.2h.4v.1h-.1l.1,.7h-.2l.1,.4h-.4Zm-1,-.6l-.2,-1.6h.4v.1h.1v.2l-.1,.1l.2,1.1l-.4,.1Zm7.6,-1c0,-.1,0,-.2,-.1,-.2c0,0,-.1,0,-.2,.1c.1,-.3,.1,-.5,-.1,-.8c-.2,-.1,0,-.1,-.4,-.1q-.1,-.1,-.3,-.2c-.1,-.4,-.1,-.1,-.2,-.5l-.1,-.1h-.1v.1l-.5,.1v-.1h-.2v-.1h-.1V420h-.2v-.2l.7,-.1v.2h.1v-.2h.6v-.2h.4c-.2,.1,.1,.3,-.3,.3c.1,.2,.1,.4,.3,.6l1,-.1v-.2h.4V420l.4,-.1c.1,.1,.2,.2,.3,.5c-.2,.2,-.3,.3,-.6,.5c.1,.1,0,.1,.2,.3c-.3,.2,-.1,.1,-.2,.5l-.1,.1l-.7,.1ZM300.1,432l-.1,-.1h-.1v-.3h-.2v-.1h-.1v-.1h-.1v.1l-.7,.1v-.1h-.1v-.1h-.2v-.1h-.1l-.1,-.4h-.1v.1l-.2,.1l-.1,-.2l-.6,.1v-.1h-.2l.1,.1l-.4,.1l-.1,-.3l-.1,.1v.1h-.2c-.4,-.9,-1,-1.4,-1.4,-2.3c-.2,-.1,-.1,-.1,-.3,-.1c-.1,-.3,-.2,-.4,-.3,-.8c-.2,0,-.1,0,-.3,0c0,-.2,0,-.4,-.1,-.6h.3v.1h.3c-.2,-.2,-.4,-.3,-.5,-.6c-.3,-.1,-.4,-.3,-.6,-.6c-.3,-.1,-.4,-.3,-.7,-.4c0,-.2,-.1,-.4,-.1,-.5l.3,-.1c0,.1,0,.2,.1,.2c0,0,.1,0,.2,-.1c.1,.2,.2,.2,.3,.5l.1,.1c.1,0,.2,0,.2,0q.1,0,.1,.1h.1c0,-.1,0,-.2,.2,-.2c0,0,.1,0,.2,0q0,-.1,0,-.1q.1,0,.1,0q.1,0,0,-.4c.2,-.1,.1,-.2,.3,-.3c-.1,-.3,-.2,-.4,-.3,-.8c-.2,0,-.3,-.1,-.5,-.2v-.2h-.3l.1,.3c-.2,.2,-.3,.3,-.6,.4l-.1,.3l-.5,.1c-.1,-.2,-.1,-.4,-.1,-.5c.3,-.2,.3,-.5,.7,-.7c.1,-.1,.1,-.2,.2,-.4c.5,0,.1,-.1,.6,-.2c-.2,-.4,-.2,-.7,.1,-.7l-.6,-4.9h.1l-.1,-.4h.2l-.1,-.5h.1v-.3h.1v-.3h.1v-.1h.1v-.3h.1v-.1l.1,-.1v-.1h.2l-.1,-.1h.2l-.1,-.2h.2v-.1h.1v-.2h.2v-.1h.2l-.1,-.2h.3v-.1h.1V414h.2v-.2h.4v-.1l.3,-.1l-.1,-.1h.4v-.2h.5v-.2l2.1,-.2c.7,.3,1.7,.4,2.7,.4c.4,0,.9,0,1.3,0c.1,.2,.3,.3,.6,.4c.3,.5,.5,1.3,.6,1.8c.1,.9,.4,1.9,.4,2.8c-.1,.3,-.3,.6,0,1.1c.2,0,.1,0,.2,.1c.2,.3,.3,.4,.4,.7c.2,.1,.4,.4,.5,.6h-.1c-.1,0,-.2,.2,0,.4l-.1,.2c-.8,.1,0,.1,-.8,.2c-.1,.2,-.2,.3,-.2,.6c-.5,.3,-.7,.7,-.5,1.7c-.2,.1,-.2,.2,-.4,.3c.2,1.3,.2,.9,.1,1.5c-.2,.1,-.1,.1,-.3,.3c0,0,-.1,0,-.1,0q-.1,0,-.1,.1l-.6,.1v-.1l-.6,.1V426l-.4,.1v-.2l-.9,.2c-.1,.1,0,.3,-.4,.3c-.1,.4,-.7,.6,-.6,1.2c.3,.2,.2,.2,.5,.5l.2,.1c.5,.7,1.6,2.2,1.2,3.1c0,0,-.1,0,-.2,0c-.1,0,-.2,.1,-.1,.2l-.3,.1v-.2h-.1l-.1,-.7h-.2l.2,.9h.1v.1l-.5,.1v.1l-.6,.1Zm18.2,-3.3c0,-.1,0,-.2,-.1,-.2c-.1,0,-.2,0,-.3,.1c.1,-.1,.1,-.4,.2,-.5c-.6,0,.1,-2.9,.2,-3.4c.2,0,.2,-.1,.4,-.3l-.2,-.5c-.2,0,-.1,0,-.3,-.1c0,-.2,-.1,-.2,-.1,-.2l-.1,-.3c-.2,-.1,-.1,.1,-.3,-.3c-.2,0,-.2,-.1,-.3,-.2h-.2v.1l-.4,.1v.1h-.3l.1,.2h-.4v.1l-1.2,.2c-.1,-.1,-.1,-.2,-.3,-.2c-.2,-.4,-.3,-.7,-.4,-1.3l.1,-.1l.4,-.1l.1,.8h.1v.1h.2v.1l.6,-.1c.3,-.2,.6,-.2,.9,-.3c-.1,-.2,-.1,-.1,-.1,-.3c.1,-.2,.3,-.3,.6,-.5c.1,-.3,.1,-.2,.4,-.4c.2,-.2,0,-.2,.4,-.3c.1,-.2,.1,-.3,.2,-.4l.4,-.1v.3c-.2,.2,-.1,0,-.2,.4c-.3,.2,-.3,.4,-.7,.6l-.1,.1c0,.2,.1,.4,.2,.5c.2,.2,.1,0,.3,.4c.2,.2,.2,0,.3,.4l.3,.1q0,.2,.1,.2l.1,.2c.2,.2,.1,0,.3,.4l.2,.1l.1,.3h.1v-.3c.3,-.2,.5,-.5,.5,-.9c.3,-.1,.4,-.3,.5,-.7c.2,-.1,.3,-.4,.4,-.7c.2,-.2,.3,-.4,.4,-.7c-.4,-.2,-.9,-.6,-1.2,-1c-.2,-.2,-.1,0,-.3,-.4l-.2,-.1c-.3,-.4,-1.2,-1.5,-.8,-1.7c-.1,-.1,-.1,-.2,-.3,-.3c0,-.2,0,-.4,-.1,-.6h-.1v.1h-.1v.2H318v-.3c-.3,-.1,-.2,.1,-.3,-.6c0,0,.1,0,.2,0c.4,0,.7,-.1,.6,-.5q-.1,.1,-.2,.1c0,0,-.1,-.1,-.1,-.2l-.3,.1v.1h-.3v.2h-.1v.1l-.4,.1c-.3,-.4,-1.1,-.2,-1.6,-.3c.1,-.4,.1,-.8,-.1,-1.1c-.2,.1,-.3,.1,-.4,.1c-.3,0,-.4,-.1,-.6,-.2c0,-.2,0,-.4,.1,-.5c.2,-.3,.2,-.1,.2,-.5c.3,-.1,.6,-.4,.1,-.5c.1,-.2,0,-.1,0,-.4h-.1v.1h-.1v.2h-.1v.1l-.5,.1v.1l-.5,.1v-.1h-.4v-.1h-.6c-.2,.4,-.5,.5,-.9,.7l-.1,.1c.1,.7,.3,1.2,.5,1.8c.1,-.1,.3,-.1,.5,-.1c.6,0,1.3,.3,1.6,.4q.1,.1,.2,.2l-.6,.1v-.1h-.6v-.1l-.7,.1v.1h-.1l.1,.4h.1v.3h.2v.3h.1v-.1l.8,-.1v-.1l.6,-.1c-.1,.2,-.1,0,-.1,.4c-.2,.1,-.2,.3,-.3,.4l-.5,.1v-.1H313v-.1h-.3V418h-.1c0,.4,0,.1,-.1,.5q-.1,.1,-.2,.2c0,.5,-.1,0,-.1,.5c-.2,.1,-.1,.2,-.2,.3h-.3c.2,-.5,.2,-1.3,.5,-1.7c-.5,-.7,-.8,-1.8,-1,-2.7c-.4,0,-.3,-.1,-.7,-.1l-.5,-.4c-.2,-.4,0,-1.1,.1,-1.4c.2,-.2,.3,-.4,.6,-.5c-.2,-.3,.2,0,-.2,-.6c.2,-.3,.1,-.1,.2,-.5c.2,0,.2,-.1,.2,-.2l.4,-.1l.1,.7h-.1v.1h.1v.1h.3V412h.6l.1,.1l.3,-.1v-.1h.4v.1l.4,-.1v.2l.4,-.1v.2l.4,-.1v.1h.2l-.1,-.6h-.3v.1l-.5,.1c-.1,-.1,-.3,-.2,-.6,-.2c-.1,0,-.2,0,-.3,0c-.1,0,-.2,0,-.3,0c-.1,0,-.3,0,-.4,0l-.3,-.2c0,-.2,0,-.4,0,-.5l.4,-.1v.1l.9,-.1v-.1l.5,-.1v-.1l.5,-.1q0,.2,.1,.2c.1,0,.2,0,.3,-.1l.1,.1c.2,.3,.2,.5,.4,.8h.1v-.3l.4,-.1v.2l.4,-.1c-.1,-.1,-.2,-.2,-.4,-.2c-.1,0,-.3,0,-.4,.1q-.1,-.4,0,-.6c.4,-.1,.8,-.1,1,-.4l1.6,-.2c.3,.2,.7,.2,1.1,.3c.2,.2,0,.2,.4,.2c.4,.6,1.2,.7,1.5,1.4q.2,.1,.4,.2c.2,.3,.2,.4,.4,.7q.1,.1,.2,.1c.5,1.6,1.7,3.2,2.5,4.6c.2,.1,0,.1,.4,.1q.2,.2,.6,.3c.1,.3,.5,.5,.8,.7c.3,.4,.1,1.2,0,1.6l-.3,.2c-.5,.1,0,.1,-.5,.2c0,.3,0,0,0,.4c-.1,.2,-.2,.2,-.3,.3c-2,.3,-1.2,.1,-1.9,.4l-.2,.3v.3h.2l-.1,-.2h.2v-.1l.2,-.1c-.1,.2,-.1,.4,-.2,.6c.1,0,.2,0,.2,0c.3,0,.3,.2,.1,.5c-.8,.6,-1.1,1.8,-1.9,2.3c-.1,.8,-.4,1.2,-.5,1.9c-.2,.1,-.1,.1,-.3,.2c0,.4,-.1,.2,0,.6h-.5l-.2,-.1c-.2,-.8,.4,-1.5,.5,-2.2c.2,-.2,.2,0,.2,-.4c.2,-.2,.2,0,.2,-.4c.1,-.2,.2,0,.2,-.4c.3,-.2,0,-.1,.4,-.2c.1,-.2,.3,-.4,.3,-.6l-.4,.1l.1,.1h-.3v.2h-.2l-.1,-.3l-.1,.1c-.1,.2,-.3,.5,-.6,.7c-.1,.8,-.4,1.4,-.6,2.2c-.2,.1,-.1,0,-.2,.1c-.2,.7,-.5,1.2,-.6,1.9l-.4,.1Z"/></clipPath>
<clipPath id="c2_25"><path d="M195.8,635.6V396.1H393.5V635.6Z"/></clipPath>
<clipPath id="c3_25"><path d="M-36.1,1058.8V-41.1H926.4V1058.8Z"/></clipPath>
<style type="text/css"><![CDATA[
.g0_25{
fill: none;
stroke: #636363;
stroke-width: 0.647;
stroke-linecap: butt;
stroke-linejoin: miter;
stroke-miterlimit: 4;
}
.g1_25{
fill: none;
stroke: #636363;
stroke-width: 0.755;
stroke-linecap: butt;
stroke-linejoin: miter;
stroke-miterlimit: 4;
}
.g2_25{
fill: none;
stroke: #636363;
stroke-width: 0.744;
stroke-linecap: butt;
stroke-linejoin: miter;
stroke-miterlimit: 4;
}
.g3_25{
fill: none;
stroke: #636363;
stroke-width: 0.152;
stroke-linecap: butt;
stroke-linejoin: miter;
stroke-miterlimit: 4;
}
.g4_25{
fill: #FFFFFF;
}
.g5_25{
fill: none;
stroke: #5F5F5F;
stroke-width: 1.145;
stroke-linecap: butt;
stroke-linejoin: miter;
stroke-miterlimit: 4;
}
.g6_25{
fill: none;
stroke: #000000;
stroke-width: 0.152;
stroke-linecap: butt;
stroke-linejoin: bevel;
stroke-miterlimit: 4;
}
.g7_25{
fill: #E8E8E8;
}
.g8_25{
fill: none;
stroke: #FFFFFF;
stroke-width: 1.909;
stroke-linecap: butt;
stroke-linejoin: miter;
}
.g9_25{
fill: none;
stroke: #000000;
stroke-width: 0.381;
stroke-linecap: butt;
stroke-linejoin: miter;
}
]]></style>
</defs>
<g clip-path="url(#c0_25)">
<image clip-path="url(#c0_25)" preserveAspectRatio="none" x="120" y="777" width="209" height="187" xlink:href="img/1.jpg"/>
</g>
<path d="M340.6,890.9c.1,.3,.3,.4,.5,.4c.7,-1,1.5,-2.4,1.5,-3.6c0,-2.5,-2.3,-5.3,-4,-6.8c-1.4,-1.3,-3.2,-2,-4.9,-2.7c-.8,-.4,-1.5,-.8,-2.5,-1c-.8,-.2,-1.5,-.5,-2.3,-.7c.5,-.3,1.1,-.5,1.7,-.8c.5,-.2,1.2,-.9,1.7,-.5c-.3,.2,-.4,0,-.8,.2c-.4,.2,-.9,.4,-1.3,.7c-1,.4,-2,.6,-2.9,1.1c1.3,.9,2.5,2,3.4,3.2" class="g0_25"/>
<path d="M134.4,859.8c2,-.7,3.8,-1.7,5.7,-2.7c.6,-.3,1.2,-.4,1.9,-.8c.4,-.2,.9,-.5,1.4,-.6c-.2,-.4,-2,0,-2.4,0c-.5,0,-1.1,0,-1.5,.2c.7,.2,1.6,-.1,2.4,-.1c.7,0,1.5,-.2,2.2,-.1c-.4,1,-1.3,1.7,-1.2,2.9" class="g1_25"/>
<path d="M290.7,809.2c-2,-.4,-4,-1,-6,-1.7c-.6,-.2,-1.3,-.2,-2,-.4c-.5,-.2,-1,-.4,-1.5,-.4c.1,-.5,2,-.4,2.4,-.4c.5,-.1,1,-.2,1.5,0c-.7,.3,-1.6,.1,-2.4,.3c-.7,.1,-1.5,0,-2.2,.2c.6,.9,1.6,1.4,1.7,2.6" class="g2_25"/>
<path d="M216.6,806.9c.9,1.9,2.1,3.6,3.3,5.2c.4,.6,.6,1.3,1.1,1.8c.3,.5,.7,.9,.8,1.4c.4,-.3,-.3,-2,-.3,-2.4c-.1,-.5,-.1,-1.1,-.4,-1.5c-.2,.8,.3,1.7,.4,2.4c0,.7,.4,1.4,.3,2.2c-1,-.3,-1.8,-1.1,-2.9,-.8" class="g3_25"/>
<path d="M398,834.1c-.3,-1.3,-.5,-2.2,-1.2,-3.3c-1.2,-1.9,-2.8,-3.1,-4.5,-4.7c-1.7,-1.7,-3,-2.8,-5.4,-3.6c-2.3,-.7,-4.7,-1.7,-7.1,-1.9c-2.7,-.3,-5.1,-1,-7.8,-1c-2.6,0,-5.2,0,-7.8,0c-.8,0,-1.6,0,-2.4,0c-1.3,0,-2.4,.5,-3.7,.8c-1.4,.4,-2.9,.8,-4.3,1.2c-2.7,.9,-5.7,1.3,-8.2,2.8c-2.3,1.3,-4.7,2.6,-6.9,4c-1.8,1.2,-4.1,2,-5.6,3.4c-.8,.8,-1.5,1.4,-2.5,2.1c-.3,-.6,2.1,-3.8,2.5,-4.5c.4,-.7,.8,-3,1.7,-3c.1,-.1,.1,-.3,.1,-.5c.2,1.7,-1.5,3.4,-2.6,4.4c-.9,.9,-2.4,1.7,-2.6,3c.8,0,1.2,.4,2,.7c.9,.5,5.8,1.3,5.9,2.3Z" class="g4_25"/>
<path d="M398,834.1c-.3,-1.3,-.5,-2.2,-1.2,-3.3c-1.2,-1.9,-2.8,-3.1,-4.4,-4.7c-1.8,-1.7,-3.1,-2.8,-5.5,-3.6c-2.3,-.7,-4.7,-1.7,-7.1,-1.9c-2.7,-.3,-5.1,-1,-7.8,-1c-2.6,0,-5.2,0,-7.8,0c-.8,0,-1.6,0,-2.4,0c-1.3,0,-2.4,.5,-3.7,.8c-1.4,.4,-2.9,.8,-4.3,1.2c-2.7,.9,-5.7,1.4,-8.2,2.8c-2.3,1.3,-4.7,2.7,-6.9,4.1c-1.8,1.1,-4.1,1.9,-5.6,3.3c-.8,.9,-1.5,1.4,-2.5,2.1c-.3,-.6,2.1,-3.8,2.5,-4.5c.4,-.7,.8,-3,1.7,-3c.1,-.1,.1,-.3,.1,-.5c.2,1.7,-1.5,3.4,-2.6,4.4c-.8,.9,-2.4,1.7,-2.6,3c.8,0,1.2,.4,2,.7c.9,.5,5.8,1.3,5.9,2.3" class="g5_25"/>
<image clip-path="url(#c2_25)" preserveAspectRatio="none" x="195" y="396" width="199" height="240" xlink:href="img/2.jpg"/>
<path d="M208.4,421.9c0,0,-5,.6,-4.3,5.6l25.3,190c0,0,.7,5,5.7,4.3L375.2,604.2c0,0,5,-.6,4.3,-5.6l-25.4,-190c0,0,-.6,-4.9,-5.6,-4.3L208.4,421.9Z" class="g4_25"/>
<path d="M208.4,421.9c0,0,-5,.7,-4.3,5.6l25.3,190c0,0,.7,5,5.7,4.3L375.2,604.2c0,0,5,-.6,4.3,-5.6l-25.4,-190c0,0,-.6,-4.9,-5.6,-4.3L208.4,421.9Z" class="g6_25"/>
<path d="M207.8,421.4c0,0,-5,.6,-4.4,5.6l25.4,190c0,0,.7,4.9,5.6,4.3L374.6,603.7c0,0,4.9,-.7,4.3,-5.6l-25.4,-190c0,0,-.7,-5,-5.6,-4.4L207.8,421.4Z" class="g4_25"/>
<path d="M207.8,421.4c0,0,-5,.6,-4.4,5.6l25.4,190c0,0,.7,4.9,5.6,4.3L374.6,603.7c0,0,4.9,-.7,4.3,-5.6l-25.4,-190c0,0,-.7,-5,-5.6,-4.3L207.8,421.4Z" class="g6_25"/>
<path d="M207.1,420.6c0,0,-5,.6,-4.3,5.6l25.3,190c0,0,.7,4.9,5.7,4.3L373.9,602.9c0,0,5,-.7,4.3,-5.6l-25.3,-190c0,0,-.7,-5,-5.7,-4.3L207.1,420.6Z" class="g4_25"/>
<path d="M207.1,420.6c0,0,-5,.6,-4.3,5.6l25.3,190c0,0,.7,4.9,5.7,4.3L373.9,602.9c0,0,5,-.6,4.3,-5.6l-25.3,-190c0,0,-.7,-4.9,-5.7,-4.3L207.1,420.6Z" class="g6_25"/>
<path d="M206.5,420.1c0,0,-5,.6,-4.3,5.6l25.3,189.9c0,0,.7,5,5.7,4.4L373.3,602.3c0,0,5,-.6,4.3,-5.5l-25.4,-190c0,0,-.6,-5,-5.6,-4.4L206.5,420.1Z" class="g4_25"/>
<path d="M206.5,420.1c0,0,-5,.6,-4.3,5.6l25.3,189.9c0,0,.7,5,5.7,4.4L373.3,602.4c0,0,5,-.7,4.3,-5.6l-25.4,-190c0,0,-.6,-5,-5.6,-4.4L206.5,420.1Z" class="g6_25"/>
<path d="M206,419.5c0,0,-5,.6,-4.4,5.5L227,615c0,0,.7,5,5.6,4.4L372.8,601.7c0,0,4.9,-.6,4.3,-5.6L351.7,406.2c0,0,-.7,-5,-5.6,-4.4L206,419.5Z" class="g7_25"/>
<path d="M206,419.5c0,0,-5,.6,-4.4,5.6L227,615c0,0,.7,5,5.6,4.4L372.8,601.7c0,0,4.9,-.6,4.3,-5.6L351.7,406.2c0,0,-.7,-5,-5.6,-4.4L206,419.5Z" class="g6_25"/>
<g clip-path="url(#c1_25)">
<image clip-path="url(#c1_25)" preserveAspectRatio="none" x="291" y="409" width="37" height="24" xlink:href="img/3.png"/>
</g>
<g clip-path="url(#c3_25)">
<path d="M-13.1,0h-23M903.4,0h23M-13.1,1017.5h-23m939.5,0h23M5.1,-18.2V-41.1m0,1076.9v23m880,-1077V-41.1m0,1076.9v23" class="g8_25"/>
<path d="M-13.1,0h-23M903.4,0h23M-13.1,1017.5h-23m939.5,0h23M5.1,-18.2V-41.1m0,1076.9v23m880,-1077V-41.1m0,1076.9v23" class="g9_25"/>
</g>
</svg>