<?xml version="1.0" encoding="UTF-8" standalone="no"?>
<!DOCTYPE svg PUBLIC "-//W3C//DTD SVG 1.1//EN"
"http://www.w3.org/Graphics/SVG/1.1/DTD/svg11.dtd">
<svg viewBox="0 0 770 1017" version="1.1" xmlns="http://www.w3.org/2000/svg" xmlns:xlink="http://www.w3.org/1999/xlink">
<defs>
<style type="text/css"><![CDATA[
.g0_251{
fill: none;
stroke: #000000;
stroke-width: 0.618;
stroke-linecap: butt;
stroke-linejoin: miter;
}
]]></style>
</defs>
<path d="M74.2,69.2H713.5M155.6,102.7H376.3M155.6,119.8V103m68.9,16.8V103m75.9,16.8V103m75.9,16.8V103M155.6,136.5V119.8m68.9,16.7V119.8m75.9,16.7V119.8m75.9,16.7V119.8M155.6,153.3V136.5m68.9,16.8V136.5m75.9,16.8V136.5m75.9,16.8V136.5m-220.7,17H376.3M155.6,170.6V153.9m68.9,16.7V153.9m75.9,16.7V153.9m75.9,16.7V153.9M155.6,187.3V170.6m68.9,16.7V170.6m75.9,16.7V170.6m75.9,16.7V170.6M155.6,204.1V187.3m68.9,16.8V187.3m75.9,16.8V187.3m75.9,16.8V187.3M155.6,204.4H376.3m-220.7,17V204.7m68.9,16.7V204.7m75.9,16.7V204.7m75.9,16.7V204.7M155.6,238.2V221.4m68.9,16.8V221.4m75.9,16.8V221.4m75.9,16.8V221.4M155.6,254.9V238.2m68.9,16.7V238.2m75.9,16.7V238.2m75.9,16.7V238.2m-220.7,17H376.3M412.5,102.7H640.2M412.5,119.8V103m75.9,16.8V103m75.9,16.8V103m75.9,16.8V103M412.5,136.5V119.8m75.9,16.7V119.8m75.9,16.7V119.8m75.9,16.7V119.8M412.5,153.3V136.5m75.9,16.8V136.5m75.9,16.8V136.5m75.9,16.8V136.5m-227.7,17H640.2M412.5,170.6V153.9m75.9,16.7V153.9m75.9,16.7V153.9m75.9,16.7V153.9M412.5,187.3V170.6m75.9,16.7V170.6m75.9,16.7V170.6m75.9,16.7V170.6M412.5,204.1V187.3m75.9,16.8V187.3m75.9,16.8V187.3m75.9,16.8V187.3M412.5,204.4H640.2m-227.7,17V204.7m75.9,16.7V204.7m75.9,16.7V204.7m75.9,16.7V204.7M412.5,238.2V221.4m75.9,16.8V221.4m75.9,16.8V221.4m75.9,16.8V221.4M412.5,254.9V238.2m75.9,16.7V238.2m75.9,16.7V238.2m75.9,16.7V238.2m-227.7,17H640.2m-556.8,48h621" class="g0_251"/>
</svg>