<?xml version="1.0" encoding="UTF-8" standalone="no"?>
<!DOCTYPE svg PUBLIC "-//W3C//DTD SVG 1.1//EN"
"http://www.w3.org/Graphics/SVG/1.1/DTD/svg11.dtd">
<svg viewBox="0 0 931 1096" version="1.1" xmlns="http://www.w3.org/2000/svg" xmlns:xlink="http://www.w3.org/1999/xlink">
<defs>
<clipPath id="c0_104"><path d="M82.5,322.1c-5.1,0,-9.2,-4.1,-9.2,-9.1V221.1c0,-5,4.1,-9,9.2,-9H232.2c5,0,9.1,4,9.1,9V313c0,5,-4.1,9.1,-9.1,9.1Z"/></clipPath>
<clipPath id="c1_104"><path d="M82.3,831.4c-5.1,0,-9.2,-4.1,-9.2,-9v-92c0,-5,4.1,-9,9.2,-9H232c5.1,0,9.2,4,9.2,9v92c0,4.9,-4.1,9,-9.2,9Z"/></clipPath>
<style type="text/css"><![CDATA[
.g0_104{
fill: none;
stroke: #241F1F;
stroke-width: 0.763;
stroke-miterlimit: 10;
}
.g1_104{
fill: #D0007A;
}
.g2_104{
fill: none;
stroke: #00AEEF;
stroke-width: 1.145;
}
.g3_104{
fill: none;
stroke: #241F1F;
stroke-width: 0.534;
stroke-miterlimit: 10;
}
.g4_104{
fill: none;
stroke: #00AEEF;
stroke-width: 0.763;
stroke-miterlimit: 3;
}
.g5_104{
fill: none;
stroke: #EE008C;
stroke-width: 0.916;
stroke-miterlimit: 3;
}
.g6_104{
fill: none;
stroke: #241F1F;
stroke-width: 0.534;
stroke-miterlimit: 3;
}
.g7_104{
fill: none;
stroke: #241F1F;
stroke-width: 0.916;
stroke-miterlimit: 3;
}
.g8_104{
fill: none;
stroke: #72D0F6;
stroke-width: 0.534;
stroke-miterlimit: 3;
}
.g9_104{
fill: none;
stroke: #241F1F;
stroke-width: 0.381;
stroke-miterlimit: 3;
}
.ga_104{
fill: #241F1F;
}
]]></style>
</defs>
<path d="M482.2,168.9H537m-97.8,19.4H539.3m65,-19.4h30.4m-73.5,19.4h75.7" class="g0_104"/>
<path d="M288.8,292.6c0,0,-1.6,0,-1.6,1.5v9.1c0,0,0,1.6,1.6,1.6h9.1c0,0,1.6,0,1.6,-1.6v-9.1c0,0,0,-1.5,-1.6,-1.5Z" class="g1_104"/>
<path d="M307.7,694.2c0,0,-1.6,0,-1.6,1.5v14.1c0,0,0,1.5,1.6,1.5h15.6c0,0,1.6,0,1.6,-1.5V695.7c0,0,0,-1.5,-1.6,-1.5H307.7Zm0,32c0,0,-1.6,0,-1.6,1.6v14.1c0,0,0,1.5,1.6,1.5h15.6c0,0,1.6,0,1.6,-1.5V727.8c0,0,0,-1.6,-1.6,-1.6H307.7Z" class="g2_104"/>
<path d="M444.5,767.2h5.4m11.6,36.7h5.3m121.8,0H594m79.4,0h5.4M530.9,868h5.3m41.6,0h5.3" class="g3_104"/>
<g clip-path="url(#c0_104)">
<path d="M216.8,321v.7m-3.7,-14.2l3.7,13.5m-7,-26.4l3.3,12.9m-7,-24.5l3.7,11.6m-5.4,-17.2l1.7,5.6m-3.7,-10.6l2,5m-5.3,-13.5l3.3,8.5m-5,-12.2l1.7,3.7m-3.7,-7l2,3.3M192.1,252l3.3,4.9m-5,-6.9l1.7,2m-3.7,-3.7l2,1.7m-5.3,-3.3l3.3,1.6m-5,-2.3l1.7,.7m-3.7,-.7h2m-5.3,.4l3.3,-.4m-7,2l3.7,-1.6m-7,3.6l3.3,-2m-7,4.6l3.7,-2.6m-7.4,5.3l3.7,-2.7m-7,5.7l3.3,-3m-6.6,5.3l3.3,-2.3m-7,4.9l3.7,-2.6m-7.4,4.9l3.7,-2.3m-7,4l3.3,-1.7m-7,3l3.7,-1.3m-7,2.6l3.3,-1.3m-7,2l3.7,-.7m-7,1l3.3,-.3m-7,.6l3.7,-.3m-7,0l3.3,.3m-7,-.6l3.7,.3m-7,-.7l3.3,.4m-7,-.7l3.7,.3m-7.1,-1l3.4,.7m-7,-1.3l3.6,.6m-7,-1.3l3.4,.7m-7,-1l3.6,.3m-7.3,-1l3.7,.7m-7,-1l3.3,.3m-7,-.6l3.7,.3m-7,-.3H90m-7,-.4l3.7,.4m-7,-.4H83m-7,0h3.7m-7,0H76" class="g4_104"/>
<path d="M234.1,312.4l1,9.3m-2.7,-21.2l1.7,11.9m-3.3,-23.1l1.6,11.2m-3.6,-21.8l2,10.6m-3.7,-20.5l1.7,9.9m-3.4,-18.5l1.7,8.6m-3.3,-16.5l1.6,7.9M221.8,245l2,7.3m-3.7,-13.9l1.7,6.6m-3.4,-11.2l1.7,4.6m-3.3,-8.2l1.6,3.6m-3.6,-7.3l2,3.7m-3.7,-6l1.7,2.3m-3.4,-3.9l1.7,1.6m-3.3,-2.6l1.6,1m-5.3,-1h3.7m-5.4,1l1.7,-1m-3.7,2.6l2,-1.6m-5.3,5.3l3.3,-3.7m-7,8.9l3.7,-5.2m-7,10.9l3.3,-5.7m-7,11.9l3.7,-6.2m-7,12.2l3.3,-6m-7,11.6l3.7,-5.6m-7,10.2l3.3,-4.6m-7,9.6l3.7,-5m-7,8.3l3.3,-3.3m-7,5.9l3.7,-2.6m-7.4,4.9l3.7,-2.3m-7,3.3l3.3,-1m-6.6,1.7l3.3,-.7m-7,.7h3.7m-7.4,-.7l3.7,.7m-7,-1.3l3.3,.6m-7,-1.6l3.7,1m-7,-2.4l3.3,1.4m-7,-2.7l3.7,1.3m-7,-2.3l3.3,1m-7,-2.3l3.7,1.3m-7,-2.3l3.3,1m-7,-2l3.7,1m-7,-1.6l3.3,.6m-7,-1.3l3.7,.7m-7.1,-1l3.4,.3m-7,-.6l3.6,.3m-7,-.3h3.4m-7,0h3.6m-7.3,0h3.7m-7,0H97m-7,.3l3.7,-.3m-7,.6l3.3,-.3m-7,.6l3.7,-.3m-7,.3H83m-7,.4l3.7,-.4m-7,.7l3.3,-.3" class="g5_104"/>
<path d="M173.8,321.8v-110m-101,54.9H241.3" class="g6_104"/>
<path d="M221.8,318l.6,3.7m-2.3,-16.5l1.7,12.8m-5,-33.7l3.3,20.9m-5.3,-31.1l2,10.2m-3.7,-19.4l1.7,9.2m-3.4,-17.5l1.7,8.3m-3.3,-15.2l1.6,6.9m-5.3,-18.5l3.7,11.6m-5.4,-16.2l1.7,4.6m-3.7,-8.3l2,3.7m-5.3,-8.3l3.3,4.6m-5,-5.9l1.7,1.3m-3.7,-1.6l2,.3m-5.3,.3l3.3,-.6m-7,3.3l3.7,-2.7m-7,6.6l3.3,-3.9m-7,8.9l3.7,-5m-7,10.3l3.3,-5.3m-7,11.5l3.7,-6.2m-7,11.9l3.3,-5.7m-7,11l3.7,-5.3m-7.4,9.9l3.7,-4.6m-7,8.5l3.3,-3.9m-6.6,7.2l3.3,-3.3m-7,5.6l3.7,-2.3m-7.4,4l3.7,-1.7m-7,2.7l3.3,-1m-7,1.6l3.7,-.6m-7,.3l3.3,.3m-7,-.6l3.7,.3m-7,-1.3l3.3,1m-7,-2l3.7,1m-7,-2l3.3,1m-7,-2.3l3.7,1.3m-7,-2.3l3.3,1m-7,-2.3l3.7,1.3m-7.1,-2.3l3.4,1m-7,-1.7l3.6,.7m-7,-1.3l3.4,.6m-7,-1.3l3.6,.7m-7.3,-1l3.7,.3m-7,-.6l3.3,.3m-7,-.3h3.7m-7,0H90m-7,0h3.7m-7,.3l3.3,-.3m-7,.3h3.7m-7,.3l3.3,-.3m163.4,6.6l1.7,-19.2m-2.3,27.8l.6,-8.6m-1.6,16.8l1,-8.2m-2,17.1l1,-8.9m-2,16.9l1,-8m-1.7,15.6l.7,-7.6M234.1,320l1,-6.9m-1.3,8.6l.3,-1.7m-31.7,-5.3l2,7m-5.3,-19.2l3.3,12.2m-7,-24.4l3.7,12.2m-7,-22.8l3.3,10.6m-5,-15.5l1.7,4.9m-3.7,-9.6l2,4.7m-5.3,-12.3l3.3,7.6m-5,-10.9l1.7,3.3m-3.7,-6.2l2,2.9M178.1,252l3.3,4.3M176.1,250l2,2m-3.7,-3.3l1.7,1.3m-5,-2.7l3.3,1.4M169.1,247l2,.3m-3.7,-.3h1.7m-5.4,.7l3.7,-.7m-7,2.3l3.3,-1.6m-6.6,3.6l3.3,-2m-7,4.6l3.7,-2.6m-7.4,5.3l3.7,-2.7m-7,5l3.3,-2.3m-7,5l3.7,-2.7m-7,5l3.3,-2.3m-7,4.2l3.7,-1.9m-7,3.6l3.3,-1.7m-7,3l3.7,-1.3m-7,2.3l3.3,-1m-7,1.7l3.7,-.7m-7,1l3.3,-.3m-7,.3h3.7m-7.1,-.3l3.4,.3m-7,-.3h3.6m-7,-.7l3.4,.7m-7,-1l3.6,.3m-7.3,-1l3.7,.7m-7,-1.3l3.3,.6m-7,-1l3.7,.4m-7,-1l3.3,.6m-7,-1l3.7,.4m-7,-.7l3.3,.3m-7,-.6l3.7,.3m-7,-.3H76" class="g7_104"/>
<path d="M82.5,212.1H232.2c5,0,9.1,4,9.1,9V313c0,5,-4.1,9.1,-9.1,9.1H82.5c-5.1,0,-9.2,-4.1,-9.2,-9.1V221.1c0,-5,4.1,-9,9.2,-9Z" class="g8_104"/>
</g>
<path d="M82.5,212.1H232.2c5,0,9.1,4,9.1,9V313c0,5,-4.1,9.1,-9.1,9.1H82.5c-5.1,0,-9.2,-4.1,-9.2,-9.1V221.1c0,-5,4.1,-9,9.2,-9Z" class="g8_104"/>
<path d="M168.4,222.7l13.7,6.1" class="g9_104"/>
<path d="M185.2,230.1l-4.7,-.2l1.6,-1.1l-.2,-1.9Z" class="ga_104"/>
<g clip-path="url(#c1_104)">
<path d="M157,831.3v-110" class="g6_104"/>
<path d="M230.5,722.1v-1m-3.7,17.5l3.7,-16.5m-7,30.4l3.3,-13.9m-7,26.8l3.7,-12.9m-7,22.1l3.3,-9.2m-7,18.2l3.7,-9m-7,16.2l3.3,-7.2m-7,13.5l3.7,-6.3m-7.3,11.6l3.6,-5.3m-7,9.6l3.4,-4.3m-7,7.9l3.6,-3.6m-7,6.6l3.4,-3m-7.1,6l3.7,-3m-7,4.9l3.3,-1.9m-7,3.9l3.7,-2m-7,3.4l3.3,-1.4m-7,2.7l3.7,-1.3m-7,2.3l3.3,-1m-7,1.6l3.7,-.6m-7.3,1.3l3.6,-.7m-7,1l3.4,-.3m-6.7,.3h3.3m-7,0h3.7m-7.3,-.3l3.6,.3m-7,-1l3.4,.7m-7,-1.7l3.6,1m-7,-2.6l3.4,1.6m-7.1,-3.6l3.7,2m-7,-4.3l3.3,2.3m-7,-5.9l3.7,3.6m-7,-7.9l3.3,4.3m-7,-10.6l3.7,6.3m-7,-13.3l3.3,7m-7,-16.9l3.7,9.9m-7,-22.4l3.3,12.5m-7,-29l3.7,16.5m-7,-35.4l3.3,18.9m-5.6,-36.4l2.3,17.5" class="g5_104"/>
</g>
<path d="M82.3,721.4H232c5.1,0,9.2,4,9.2,9v92c0,4.9,-4.1,9,-9.2,9H82.3c-5.1,0,-9.2,-4.1,-9.2,-9v-92c0,-5,4.1,-9,9.2,-9Z" class="g8_104"/>
</svg>