<?xml version="1.0" encoding="UTF-8" standalone="no"?>
<!DOCTYPE svg PUBLIC "-//W3C//DTD SVG 1.1//EN"
"http://www.w3.org/Graphics/SVG/1.1/DTD/svg11.dtd">
<svg viewBox="0 0 907 1045" version="1.1" xmlns="http://www.w3.org/2000/svg" xmlns:xlink="http://www.w3.org/1999/xlink">
<defs>
<clipPath id="c0_217"><path d="M107.1,342.3V151.7H271.9V342.3Z"/></clipPath>
<clipPath id="c1_217"><path d="M106.9,342.3V151.7h165V342.3Z"/></clipPath>
<clipPath id="c2_217"><path d="M375.3,506.8v-.3h4.1v.3Zm-271.6,0V471.3h4.4v19.6H364v-31h-4.6v-4.5h20v49.5h-4.1V493.5H130.7v13.3Z"/></clipPath>
<clipPath id="c3_217"><path d="M108.1,490.9V471.3h.8v18.9H363.3V460.6h-3.9v-.7H364v31Z"/></clipPath>
<clipPath id="c4_217"><path d="M375.3,506.5v-1.6h4.1v1.6Z"/></clipPath>
<clipPath id="c5_217"><path d="M108.5,584.5V544.7h22.2v5l-15.3,-.9l-.7,-.1l-.1,.8l-2,31.4v.8h.7l29.2,1.9h.8v-.7l.9,-14.6h16.4v16.2Z"/></clipPath>
<clipPath id="c6_217"><path d="M143.3,583.6h-.8l-29.2,-1.9h-.7v-.8l2,-31.4l.1,-.8l.7,.1l15.3,.9v.8l-15.3,-1l-2,31.4l29.1,1.9l1,-14.5h.7l-.9,14.6v.7Z"/></clipPath>
<clipPath id="c7_217"><path d="M160.6,568.3V544.7H130.7V506.8h100v61.5Z"/></clipPath>
<clipPath id="c8_217"><path d="M130.7,506.8V493.5H375.3v11.4H230.7v1.9Z"/></clipPath>
<clipPath id="c9_217"><path d="M144.2,568.3l1.1,-16.9l.1,-.7l-.8,-.1l-13.9,-.9v-5h29.9v23.6Z"/></clipPath>
<clipPath id="ca_217"><path d="M130.7,568.3v-17l13,.8l-1,16.2Z"/></clipPath>
<clipPath id="cb_217"><path d="M143.5,568.3l1.1,-16.9l-13.9,-.9v-.8l13.9,.9l.8,.1l-.1,.7l-1.1,16.9Z"/></clipPath>
<clipPath id="cc_217"><path d="M142.7,568.3l1,-16.2l-13,-.8v-.8l13.9,.9l-1.1,16.9Z"/></clipPath>
<clipPath id="cd_217"><path d="M232.2,568.3V506.8H375.3v61.5Z"/></clipPath>
<clipPath id="ce_217"><path d="M232.2,506.8v-.3H375.3v.3Z"/></clipPath>
<clipPath id="cf_217"><path d="M230.7,568.3V506.8h1.5v61.5Z"/></clipPath>
<clipPath id="cg_217"><path d="M230.7,506.8v-1.9H375.3v1.6H232.2v.3Z"/></clipPath>
<clipPath id="ch_217"><path d="M141.4,635.8V624.7H104.9V584.5h3.6v14.4h52.1V584.5h70.1v51.3Zm90.8,0V584.5h82.4v51.3Z"/></clipPath>
<clipPath id="ci_217"><path d="M108.5,598.9V584.5h52.1v14.4Z"/></clipPath>
<clipPath id="cj_217"><path d="M230.7,635.8V584.5h1.5v51.3Z"/></clipPath>
<clipPath id="ck_217"><path d="M80,471.3v-74H359.4v58.1H103.7v15.9Z"/></clipPath>
<clipPath id="cl_217"><path d="M103.7,471.3V455.4H359.4v4.5H108.1v11.4Z"/></clipPath>
<clipPath id="cm_217"><path d="M109.6,471.3v-9.9H359.4v9.9H347.1v-3.8H115.6v3.8Z"/></clipPath>
<clipPath id="cn_217"><path d="M108.1,471.3V459.9H359.4v.7H108.9v10.7Z"/></clipPath>
<clipPath id="co_217"><path d="M108.9,471.3V460.6H359.4v.8H109.6v9.9Z"/></clipPath>
<clipPath id="cp_217"><path d="M115.6,471.3v-3.8H347.1v3.8Z"/></clipPath>
<clipPath id="cq_217"><path d="M231,475.8c0,0,.8,0,1.4,-.3c0,0,.6,-.3,1.3,-.9v-1.2c0,0,-.4,-.2,-.8,-.2c0,0,-.5,-.1,-1,-.1c0,0,-1.2,0,-1.9,.6c0,0,-.5,.4,-.5,.9c0,0,0,.5,.4,.9c0,0,.4,.3,1.1,.3Zm38.6,-2.3c0,0,-.2,0,-.3,-.1c0,0,-.1,0,-.1,-.2c0,0,0,-.1,.1,-.2c0,0,.1,0,.3,0h6.1c0,0,.2,0,.3,0c0,0,.1,.1,.1,.2c0,0,0,.2,-.1,.2c0,0,-.1,.1,-.3,.1Zm8.1,0c0,0,-.2,0,-.3,-.1c0,0,-.1,0,-.1,-.2c0,0,0,-.1,.1,-.2c0,0,.1,0,.3,0h6.1c0,0,.2,0,.3,0c0,0,.1,.1,.1,.2c0,0,0,.2,-.1,.2c0,0,-.1,.1,-.3,.1Zm-8.1,-2c0,0,-.2,0,-.3,-.1c0,0,-.1,-.1,-.1,-.2c0,0,0,-.1,.1,-.2c0,0,.1,-.1,.3,-.1h6.1c0,0,.2,0,.3,.1c0,0,.1,.1,.1,.2c0,0,0,.1,-.1,.2c0,0,-.1,.1,-.3,.1Zm8.1,0c0,0,-.2,0,-.3,-.1c0,0,-.1,-.1,-.1,-.2c0,0,0,-.1,.1,-.2c0,0,.1,-.1,.3,-.1h6.1c0,0,.2,0,.3,.1c0,0,.1,.1,.1,.2c0,0,0,.1,-.1,.2c0,0,-.1,.1,-.3,.1Zm-102.7,4c0,0,1,0,1.8,-.7c0,0,.7,-.7,.7,-1.7c0,0,0,-1,-.7,-1.7c0,0,-.8,-.7,-1.8,-.7c0,0,-1,0,-1.7,.7c0,0,-.7,.7,-.7,1.7c0,0,0,1,.7,1.7c0,0,.7,.7,1.7,.7Zm19,-2.7c0,0,-.2,-.9,-.9,-1.5c0,0,-.7,-.6,-1.7,-.6c0,0,-1,0,-1.7,.6c0,0,-.7,.6,-.9,1.5Zm64.9,0c0,0,-.2,-.9,-.9,-1.5c0,0,-.7,-.6,-1.7,-.6c0,0,-1,0,-1.7,.6c0,0,-.7,.6,-.9,1.5ZM116,476.2c0,0,-.2,0,-.3,-.1c0,0,-.1,-.1,-.1,-.2c0,0,0,-.1,.1,-.2c0,0,.1,-.1,.3,-.1h2.2v-4.7h-1.6c0,0,-.2,0,-.3,-.1c0,0,-.1,0,-.1,-.2c0,0,0,-.1,.1,-.2c0,0,.1,0,.3,0h2.2v5.2H121c0,0,.2,0,.3,.1c0,0,.1,.1,.1,.2c0,0,0,.1,-.1,.2c0,0,-.1,.1,-.3,.1Zm34.4,.2c0,0,-.9,0,-1.3,-.5c0,0,-.5,-.6,-.5,-1.3v-3.7h-.8c0,0,-.2,0,-.3,-.1c0,0,-.1,0,-.1,-.2c0,0,0,-.1,.1,-.2c0,0,.1,0,.3,0h1.3v4.2c0,0,0,.5,.4,.9c0,0,.3,.3,.8,.3c0,0,1.4,0,2.6,-1.2v-3.7h-1.1c0,0,-.2,0,-.3,-.1v-.2c0,0,0,-.1,0,-.2c0,0,.1,0,.3,0h1.6v5.2h.5c0,0,.2,0,.3,.1c0,0,.1,.1,.1,.2c0,0,0,.1,-.1,.2c0,0,-.1,.1,-.3,.1h-1v-.9c0,0,-1.2,1.1,-2.5,1.1Zm14.3,-.2c0,0,-.2,0,-.3,-.1c0,0,-.1,-.1,-.1,-.2c0,0,0,-.1,.1,-.2c0,0,.1,-.1,.3,-.1h2.2v-4.7h-1.6c0,0,-.2,0,-.3,-.1c0,0,-.1,0,-.1,-.2c0,0,0,-.1,.1,-.2c0,0,.1,0,.3,0h2.2v5.2h2.2c0,0,.2,0,.3,.1c0,0,.1,.1,.1,.2c0,0,0,.1,-.1,.2c0,0,-.1,.1,-.3,.1Zm18.1,.2c0,0,-.8,0,-1.2,-.5c0,0,-.6,-.6,-.6,-1.3v-3.7h-.7c0,0,-.3,0,-.3,-.1c0,0,-.1,0,-.1,-.2c0,0,0,-.1,.1,-.2h1.6v4.2c0,0,0,.5,.3,.9c0,0,.4,.3,.9,.3c0,0,1.4,0,2.5,-1.2v-3.7h-1c0,0,-.2,0,-.3,-.1c0,0,-.1,0,-.1,-.2c0,0,0,-.1,.1,-.2c0,0,.1,0,.3,0h1.6v5.2h.5c0,0,.2,0,.3,.1c0,0,0,.1,0,.2c0,0,0,.1,0,.2c0,0,-.1,.1,-.3,.1h-1.1v-.9c0,0,-1.1,1.1,-2.5,1.1Zm121.7,0c0,0,-.8,0,-1.2,-.5c0,0,-.6,-.6,-.6,-1.3v-3.7h-.8c0,0,-.2,0,-.3,-.1v-.2c0,0,0,-.1,0,-.2c0,0,.1,0,.3,0h1.4v4.2c0,0,0,.5,.3,.9c0,0,.4,.3,.9,.3c0,0,1.4,0,2.5,-1.2v-3.7h-1c0,0,-.2,0,-.3,-.1c0,0,-.1,0,-.1,-.2c0,0,0,-.1,.1,-.2c0,0,.1,0,.3,0h1.6v5.2h.5c0,0,.2,0,.2,.1c0,0,.1,.1,.1,.2c0,0,0,.1,-.1,.2c0,0,0,.1,-.2,.1H307v-.9c0,0,-1.1,1.1,-2.5,1.1ZM156,476.2c0,0,-.2,0,-.2,-.1c0,0,-.1,-.1,-.1,-.2c0,0,0,-.1,.1,-.2c0,0,0,-.1,.2,-.1h.7v-4.7h-.5c0,0,-.2,0,-.3,-.1c0,0,-.1,0,-.1,-.2c0,0,0,-.1,.1,-.2c0,0,.1,0,.3,0h1v.8c0,0,.6,-.6,1.1,-.8c0,0,.5,-.2,1.1,-.2c0,0,.6,0,1.1,.2c0,0,.4,.2,.7,.7c0,0,.3,.5,.3,1v3.5h.5c0,0,.2,0,.3,.1c0,0,.1,.1,.1,.2c0,0,0,.1,-.1,.2c0,0,-.1,.1,-.3,.1h-1.5c0,0,-.2,0,-.3,-.1c0,0,-.1,-.1,-.1,-.2c0,0,0,-.1,.1,-.2c0,0,.1,-.1,.3,-.1h.5v-3.5c0,0,0,-.6,-.5,-1c0,0,-.4,-.4,-1.1,-.4c0,0,-.6,0,-1,.2c0,0,-.4,.3,-1.2,1.2v3.5h.7c0,0,.2,0,.2,.1c0,0,.1,.1,.1,.2c0,0,0,.1,-.1,.2c0,0,0,.1,-.2,.1Zm20.1,2.6c0,0,-.2,0,-.3,-.1c0,0,-.1,-.1,-.1,-.2c0,0,0,-.2,.1,-.2c0,0,.1,-.1,.3,-.1h1.4v-3.4c0,0,-1,1.2,-2.5,1.2c0,0,-1.2,0,-2.1,-.8c0,0,-.9,-.9,-.9,-2.1c0,0,0,-1.2,.9,-2.1c0,0,.9,-.8,2.1,-.8c0,0,1.5,0,2.5,1.2v-1h1.3c0,0,.2,0,.3,0c0,0,.1,.1,.1,.2c0,0,0,.2,-.1,.2c0,0,-.1,.1,-.3,.1H178v7.3h.8c0,0,.2,0,.3,.1c0,0,.1,0,.1,.2c0,0,0,.1,-.1,.2c0,0,-.1,.1,-.3,.1Zm15.5,-2.4c0,0,-1.4,0,-2.4,-1c0,0,-1,-.9,-1,-2.3c0,0,0,-1.2,.9,-2.1c0,0,1,-.8,2.3,-.8c0,0,1.4,0,2.3,.9c0,0,.9,.9,.9,2.3h-5.8c0,0,.2,1.1,.9,1.8c0,0,.8,.6,1.9,.6c0,0,.7,0,1.3,-.2c0,0,.7,-.2,1.2,-.5c0,0,.1,-.1,.2,-.1c0,0,.1,0,.2,0c0,0,.1,.1,.1,.2c0,0,0,.2,-.1,.3c0,0,-.4,.3,-1.2,.6c0,0,-.8,.3,-1.7,.3Zm13.1,-.2c0,0,-.2,0,-.3,-.1c0,0,-.1,-.1,-.1,-.2c0,0,0,-.1,.1,-.2c0,0,.1,-.1,.3,-.1h.6v-4.7h-.4c0,0,-.2,0,-.3,-.1c0,0,-.1,0,-.1,-.2c0,0,0,-.1,.1,-.2c0,0,.1,0,.3,0h1v.8c0,0,.6,-.6,1.1,-.8c0,0,.5,-.2,1,-.2c0,0,.7,0,1.2,.2c0,0,.4,.2,.7,.7c0,0,.3,.5,.3,1v3.5h.5c0,0,.2,0,.3,.1c0,0,.1,.1,.1,.2c0,0,0,.1,-.1,.2c0,0,-.1,.1,-.3,.1h-1.5c0,0,-.2,0,-.3,-.1c0,0,-.1,-.1,-.1,-.2c0,0,0,-.1,.1,-.2c0,0,.1,-.1,.3,-.1h.4v-3.5c0,0,0,-.6,-.4,-1c0,0,-.4,-.4,-1.2,-.4c0,0,-.5,0,-.9,.2c0,0,-.4,.3,-1.2,1.2v3.5h.6c0,0,.2,0,.3,.1c0,0,.1,.1,.1,.2c0,0,0,.1,-.1,.2c0,0,-.1,.1,-.3,.1Zm11.2,.2c0,0,-1.4,0,-2.2,-.7c0,0,0,.2,-.1,.3c0,0,0,.1,-.1,.1c0,0,0,.1,-.1,.1c0,0,-.1,0,-.2,-.1c0,0,-.1,-.1,-.1,-.3v-1.2c0,0,0,-.2,.1,-.3c0,0,.1,0,.2,0c0,0,.1,0,.2,0c0,0,.1,.1,.1,.3c0,0,0,.3,.1,.5c0,0,.3,.3,.8,.5c0,0,.5,.2,1.2,.2c0,0,1.1,0,1.7,-.4c0,0,.5,-.4,.5,-.9c0,0,0,-.5,-.5,-.8c0,0,-.6,-.3,-1.6,-.4c0,0,-1.1,-.1,-1.5,-.3c0,0,-.5,-.2,-.8,-.5c0,0,-.2,-.4,-.2,-.8c0,0,0,-.7,.7,-1.1c0,0,.7,-.4,1.7,-.4c0,0,1.2,0,1.9,.5c0,0,0,-.2,.1,-.3c0,0,.1,0,.2,0c0,0,.1,0,.2,0c0,0,.1,.1,.1,.3v1c0,0,0,.2,-.1,.3c0,0,-.1,.1,-.2,.1c0,0,-.1,0,-.2,-.1c0,0,-.1,-.1,-.1,-.2c0,0,0,-.4,-.4,-.7c0,0,-.6,-.4,-1.5,-.4c0,0,-.9,0,-1.4,.4c0,0,-.4,.3,-.4,.6c0,0,0,.5,.4,.7c0,0,.4,.2,1.3,.3c0,0,1.1,.1,1.6,.3c0,0,.6,.2,1,.7c0,0,.3,.4,.3,.9c0,0,0,.7,-.7,1.2c0,0,-.7,.6,-2,.6Zm15.2,0c0,0,-1.1,0,-1.6,-.5c0,0,-.6,-.5,-.6,-1.3c0,0,0,-.8,.8,-1.4c0,0,.7,-.6,2.2,-.6c0,0,.3,0,.8,0c0,0,.5,.1,1,.2v-.9c0,0,0,-.5,-.4,-.8c0,0,-.5,-.4,-1.3,-.4c0,0,-.7,0,-1.9,.4c0,0,-.2,.1,-.3,.1c0,0,-.1,0,-.1,-.1c0,0,-.1,-.1,-.1,-.2c0,0,0,-.1,.1,-.2c0,0,0,-.1,.7,-.3c0,0,1.1,-.2,1.6,-.2c0,0,1.1,0,1.7,.5c0,0,.6,.5,.6,1.2v3.7h.7c0,0,.2,0,.3,.1c0,0,.1,.1,.1,.2c0,0,0,.1,-.1,.2c0,0,-.1,.1,-.3,.1h-1.3v-.8c0,0,-1.2,1,-2.6,1Zm6.1,-.2c0,0,-.2,0,-.3,-.1c0,0,-.1,-.1,-.1,-.2c0,0,0,-.1,.1,-.2c0,0,.1,-.1,.3,-.1h.6v-4.7h-.5c0,0,-.2,0,-.3,-.1c0,0,-.1,0,-.1,-.2c0,0,0,-.1,.1,-.2c0,0,.1,0,.3,0h1.1v.8c0,0,.5,-.6,1,-.8c0,0,.5,-.2,1.1,-.2c0,0,.6,0,1.2,.2c0,0,.3,.2,.7,.7c0,0,.3,.5,.3,1v3.5h.4c0,0,.2,0,.3,.1c0,0,.1,.1,.1,.2c0,0,0,.1,-.1,.2c0,0,-.1,.1,-.3,.1h-1.5c0,0,-.2,0,-.3,-.1c0,0,-.1,-.1,-.1,-.2c0,0,0,-.1,.1,-.2c0,0,.1,-.1,.3,-.1h.5v-3.5c0,0,0,-.6,-.4,-1c0,0,-.5,-.4,-1.2,-.4c0,0,-.6,0,-1,.2c0,0,-.4,.3,-1.1,1.2v3.5h.6c0,0,.2,0,.3,.1c0,0,.1,.1,.1,.2c0,0,0,.1,-.1,.2c0,0,-.1,.1,-.3,.1Zm11.2,.2c0,0,-1.3,0,-2.2,-.9c0,0,-.9,-.9,-.9,-2.2c0,0,0,-1.3,.9,-2.2c0,0,.9,-.9,2.3,-.9c0,0,1.3,0,2.2,.7v-.2c0,0,0,-.2,0,-.3c0,0,.1,0,.2,0c0,0,.2,0,.2,0c0,0,.1,.1,.1,.3V472c0,0,0,.2,-.1,.3c0,0,0,.1,-.2,.1c0,0,-.1,0,-.2,-.1c0,0,0,-.1,0,-.2c0,0,-.1,-.5,-.7,-1c0,0,-.6,-.4,-1.6,-.4c0,0,-1.2,0,-1.9,.8c0,0,-.6,.8,-.6,1.8c0,0,0,1.1,.7,1.8c0,0,.7,.7,1.9,.7c0,0,.6,0,1.3,-.2c0,0,.7,-.3,1.2,-.8c0,0,.2,-.1,.3,-.1c0,0,.1,0,.2,0c0,0,0,.1,0,.2c0,0,0,.3,-.6,.8c0,0,-1.1,.7,-2.5,.7Zm8.1,0c0,0,-1.4,0,-2.4,-1c0,0,-1,-.9,-1,-2.3c0,0,0,-1.2,.9,-2.1c0,0,1,-.8,2.3,-.8c0,0,1.4,0,2.3,.9c0,0,.9,.9,.9,2.3h-5.8c0,0,.2,1.1,.9,1.8c0,0,.8,.6,1.9,.6c0,0,.7,0,1.3,-.2c0,0,.7,-.2,1.2,-.5c0,0,.1,-.1,.2,-.1c0,0,.1,0,.2,0c0,0,.1,.1,.1,.2c0,0,0,.2,-.1,.3c0,0,-.4,.3,-1.2,.6c0,0,-.8,.3,-1.7,.3Zm37.5,-.2c0,0,-.2,0,-.3,-.1c0,0,-.1,-.1,-.1,-.2c0,0,0,-.1,.1,-.2c0,0,.1,-.1,.3,-.1h.6v-4.7h-.5c0,0,-.2,0,-.3,-.1c0,0,-.1,0,-.1,-.2c0,0,0,-.1,.1,-.2c0,0,.1,0,.3,0h1v.8c0,0,.6,-.6,1.1,-.8c0,0,.5,-.2,1.1,-.2c0,0,.6,0,1.2,.2c0,0,.3,.2,.6,.7c0,0,.3,.5,.3,1v3.5h.5c0,0,.2,0,.3,.1c0,0,.1,.1,.1,.2c0,0,0,.1,-.1,.2c0,0,-.1,.1,-.3,.1h-1.5c0,0,-.2,0,-.3,-.1c0,0,-.1,-.1,-.1,-.2c0,0,0,-.1,.1,-.2c0,0,.1,-.1,.3,-.1h.5v-3.5c0,0,0,-.6,-.5,-1c0,0,-.4,-.4,-1.1,-.4c0,0,-.6,0,-1,.2c0,0,-.4,.3,-1.2,1.2v3.5h.7c0,0,.2,0,.3,.1c0,0,0,.1,0,.2c0,0,0,.1,0,.2c0,0,-.1,.1,-.3,.1Zm-96.6,0c0,0,-.2,0,-.3,-.1c0,0,-.1,-.1,-.1,-.2c0,0,0,-.1,.1,-.2c0,0,.1,-.1,.3,-.1h1.9v-6.7h-1.9c0,0,-.2,0,-.3,-.1c0,0,-.1,-.1,-.1,-.2c0,0,0,-.1,.1,-.2c0,0,.1,-.1,.3,-.1h4.4c0,0,.2,0,.3,.1c0,0,.1,.1,.1,.2c0,0,0,.1,-.1,.2c0,0,-.1,.1,-.3,.1h-1.9v6.7h1.9c0,0,.2,0,.3,.1c0,0,.1,.1,.1,.2c0,0,0,.1,-.1,.2c0,0,-.1,.1,-.3,.1Zm27,.2c0,0,-1,0,-1.6,-.5c0,0,-.6,-.4,-.6,-1.2v-3.8h-1c0,0,-.2,0,-.3,-.1c0,0,-.1,0,-.1,-.2c0,0,0,-.1,.1,-.2c0,0,.1,0,.3,0h1v-1.7c0,0,0,-.2,.1,-.3c0,0,.1,-.1,.2,-.1c0,0,.1,0,.2,.1c0,0,.1,.1,.1,.3v1.7h3c0,0,.2,0,.3,0c0,0,.1,.1,.1,.2c0,0,0,.2,-.1,.2c0,0,-.1,.1,-.3,.1h-3v3.8c0,0,0,.5,.4,.8c0,0,.4,.3,1.1,.3c0,0,.6,0,1.3,-.1c0,0,.6,-.2,1,-.4c0,0,.1,-.1,.2,-.1c0,0,.1,0,.2,.1c0,0,.1,0,.1,.2c0,0,0,.1,-.1,.2c0,0,-.2,.2,-1,.4c0,0,-.9,.3,-1.6,.3Zm-100.1,-.2c0,0,-.2,0,-.3,-.1c0,0,-.1,-.1,-.1,-.2c0,0,0,-.1,.1,-.2c0,0,.1,-.1,.3,-.1h1.4v-4.7h-1.3c0,0,-.2,0,-.2,-.1c0,0,-.1,0,-.1,-.2c0,0,0,-.1,.1,-.2h1.5v-.9c0,0,0,-.7,.5,-1.2c0,0,.6,-.6,1.6,-.6c0,0,.8,0,1.7,.2c0,0,.3,0,.4,.1c0,0,.1,.1,.1,.2c0,0,0,.1,-.1,.2c0,0,-.1,.1,-.2,.1c0,0,-.1,0,-.2,0c0,0,-1,-.2,-1.7,-.2c0,0,-.8,0,-1.2,.4c0,0,-.4,.3,-.4,.8v.9h2.7c0,0,.2,0,.3,0c0,0,.1,.1,.1,.2c0,0,0,.2,-.1,.2c0,0,-.1,.1,-.3,.1h-2.7v4.7h2.5c0,0,.2,0,.3,.1c0,0,.1,.1,.1,.2c0,0,0,.1,-.1,.2c0,0,-.1,.1,-.3,.1Zm20.4,1.7l-.1,-.1c0,0,-.3,-.2,-.8,-1.3c0,0,-.6,-1.1,-.8,-2c0,0,-.2,-.8,-.2,-1.7c0,0,0,-.7,.2,-1.6c0,0,.2,-.9,.7,-2c0,0,.6,-1.1,.9,-1.4c0,0,.1,-.1,.2,-.1c0,0,.1,0,.2,.1c0,0,0,.1,0,.2c0,0,0,.1,0,.2c0,0,-.7,1.3,-1.1,2.4c0,0,-.3,1.1,-.3,2.2c0,0,0,1.1,.3,2.2c0,0,.4,1.1,1.1,2.5c0,0,0,.1,0,.1c0,0,0,.2,0,.2c0,0,-.1,.1,-.3,.1Zm166,-1.7c0,0,-.2,0,-.3,-.1c0,0,-.1,-.1,-.1,-.2c0,0,0,-.1,.1,-.2c0,0,.1,-.1,.3,-.1h2.2v-7.3h-1.6c0,0,-.2,0,-.3,-.1c0,0,-.1,0,-.1,-.2c0,0,0,-.1,.1,-.2c0,0,.1,-.1,.3,-.1h2.2v7.9h2.2c0,0,.2,0,.3,.1c0,0,.1,.1,.1,.2c0,0,0,.1,-.1,.2c0,0,-.1,.1,-.3,.1Zm8.1,0c0,0,-.2,0,-.3,-.1c0,0,-.1,-.1,-.1,-.2c0,0,0,-.1,.1,-.2c0,0,.1,-.1,.3,-.1H321v-7.3h-1.6c0,0,-.2,0,-.3,-.1c0,0,-.1,0,-.1,-.2c0,0,0,-.1,.1,-.2c0,0,.1,-.1,.3,-.1h2.2v7.9h2.2c0,0,.2,0,.3,.1c0,0,.1,.1,.1,.2c0,0,0,.1,-.1,.2c0,0,-.1,.1,-.3,.1Zm8.8,1.7c0,0,-.1,0,-.2,-.1c0,0,-.1,0,-.1,-.2l.1,-.1c0,0,.7,-1.4,1,-2.5c0,0,.3,-1.1,.3,-2.2c0,0,0,-1.1,-.3,-2.2c0,0,-.3,-1.1,-1,-2.4c0,0,-.1,-.1,-.1,-.2c0,0,0,-.1,.1,-.2c0,0,.1,-.1,.2,-.1c0,0,.1,0,.2,.1c0,0,.2,.2,.8,1.4c0,0,.6,1.1,.8,1.9c0,0,.2,.9,.2,1.7c0,0,0,.8,-.2,1.7c0,0,-.2,.8,-.8,2c0,0,-.6,1.1,-.8,1.3c0,0,-.1,.1,-.2,.1Zm16.4,0c0,0,-.5,0,-.9,-.3c0,0,-.5,-.5,-.5,-1.2V474c0,0,0,-.3,-.2,-.6c0,0,-.2,-.2,-.6,-.3c0,0,-.1,0,-.2,-.1c0,0,-.1,0,-.1,-.2c0,0,0,-.1,.1,-.2c0,0,.1,0,.2,-.1c0,0,.4,0,.6,-.2c0,0,.2,-.3,.2,-.7v-2.4c0,0,0,-.6,.4,-1c0,0,.4,-.5,1,-.5c0,0,.2,0,.2,.1c0,0,.1,.1,.1,.2c0,0,0,.2,-.1,.2c0,0,0,.1,-.2,.1c0,0,-.4,.1,-.6,.3c0,0,-.2,.3,-.2,.6v2.4c0,0,0,.5,-.1,.7l-.5,.5c0,0,.3,.3,.4,.5c0,0,.2,.3,.2,.7v2.4c0,0,0,.4,.2,.7c0,0,.2,.2,.6,.2c0,0,.2,.1,.2,.1c0,0,.1,.1,.1,.2c0,0,0,.2,-.1,.2c0,0,0,.1,-.2,.1Zm-226.1,-9v-1.4h.9v1.4Zm48.7,0v-1.4h.8v1.4Z"/></clipPath>
<clipPath id="cr_217"><path d="M90,678.6V624.7h14.9v11.1h36.5v42.8Z"/></clipPath>
<clipPath id="cs_217"><path d="M104.9,635.8V624.7h36.5v11.1Z"/></clipPath>
<clipPath id="ct_217"><path d="M-2.6,1047.7V-2.6H910.2V1047.7Z"/></clipPath>
<style type="text/css"><![CDATA[
.g0_217{
fill: #FFFFFF;
}
.g1_217{
}
.g2_217{
fill: none;
stroke: #000000;
stroke-width: 1.527;
stroke-linecap: butt;
stroke-linejoin: miter;
stroke-miterlimit: 4;
}
.g3_217{
fill: none;
stroke: #3D3D3D;
stroke-width: 1.527;
stroke-linecap: butt;
stroke-linejoin: miter;
stroke-miterlimit: 4;
}
.g4_217{
fill: none;
stroke: #FFFFFF;
stroke-width: 1.909;
stroke-linecap: butt;
stroke-linejoin: miter;
}
.g5_217{
fill: none;
stroke: #000000;
stroke-width: 0.381;
stroke-linecap: butt;
stroke-linejoin: miter;
}
]]></style>
</defs>
<g clip-path="url(#c1_217)">
<image clip-path="url(#c0_217)" preserveAspectRatio="none" x="107" y="152" width="165" height="190" xlink:href="img/1.jpg"/>
</g>
<image clip-path="url(#c2_217)" preserveAspectRatio="none" x="103" y="455" width="277" height="52" xlink:href="img/2.jpg"/>
<image clip-path="url(#c3_217)" preserveAspectRatio="none" x="108" y="459" width="256" height="32" xlink:href="img/3.jpg"/>
<image clip-path="url(#c4_217)" preserveAspectRatio="none" x="375" y="505" width="5" height="2" xlink:href="img/4.jpg"/>
<path d="M108.9,460.6v29.6H363.3V460.6H108.9Z" class="g0_217"/>
<path d="M108.9,460.6h-.8v30.3H364v-31H108.1v.7h.8v.8H363.3v-.8h-.8v29.6h.8v-.8H108.9v.8h.7V460.6h-.7v.8v-.8Z" class="g1_217"/>
<image clip-path="url(#c5_217)" preserveAspectRatio="none" x="108" y="544" width="53" height="41" xlink:href="img/5.jpg"/>
<image clip-path="url(#c6_217)" preserveAspectRatio="none" x="112" y="548" width="32" height="36" xlink:href="img/6.jpg"/>
<path d="M115.4,549.5l-2,31.4l29.1,1.9l2.1,-31.4l-29.2,-1.9Z" class="g0_217"/>
<path d="M115.4,549.5h-.8l-2,31.4v.8h.7l29.2,1.9h.8v-.7l2,-31.5l.1,-.7l-.8,-.1l-29.2,-1.8l-.7,-.1l-.1,.8h.8l-.1,.8l29.2,1.8l.1,-.7l-.8,-.1l-2,31.5h.7l.1,-.8l-29.2,-1.8v.7l.7,.1l2.1,-31.4l-.8,-.1l-.1,.8l.1,-.8Z" class="g1_217"/>
<path d="M231.5,505.7h-.8V953.3H456V504.9H230.7v.8h.8v.8H455.2v-.8h-.7V952.6h.7v-.8H231.5v.8h.7V505.7h-.7v.8v-.8Z" class="g1_217"/>
<path d="M460.8,505.7V952.6H684.6V505.7H460.8Z" class="g2_217"/>
<image clip-path="url(#c7_217)" preserveAspectRatio="none" x="130" y="506" width="101" height="63" xlink:href="img/7.jpg"/>
<image clip-path="url(#c8_217)" preserveAspectRatio="none" x="130" y="493" width="246" height="14" xlink:href="img/8.jpg"/>
<image clip-path="url(#c9_217)" preserveAspectRatio="none" x="130" y="544" width="31" height="25" xlink:href="img/9.jpg"/>
<image clip-path="url(#ca_217)" preserveAspectRatio="none" x="130" y="551" width="14" height="18" xlink:href="img/10.jpg"/>
<image clip-path="url(#cb_217)" preserveAspectRatio="none" x="130" y="549" width="16" height="20" xlink:href="img/11.jpg"/>
<image clip-path="url(#cc_217)" preserveAspectRatio="none" x="130" y="550" width="15" height="19" xlink:href="img/12.jpg"/>
<image clip-path="url(#cd_217)" preserveAspectRatio="none" x="232" y="506" width="144" height="63" xlink:href="img/13.jpg"/>
<image clip-path="url(#ce_217)" preserveAspectRatio="none" x="232" y="506" width="144" height="1" xlink:href="img/14.jpg"/>
<image clip-path="url(#cf_217)" preserveAspectRatio="none" x="230" y="506" width="3" height="63" xlink:href="img/15.jpg"/>
<image clip-path="url(#cg_217)" preserveAspectRatio="none" x="230" y="505" width="146" height="2" xlink:href="img/16.jpg"/>
<path d="M135.9,498.7v53.5H358.6V498.7H135.9Z" class="g0_217"/>
<path d="M135.9,498.7v53.5H358.6V498.7H135.9Z" class="g2_217"/>
<image clip-path="url(#ch_217)" preserveAspectRatio="none" x="104" y="584" width="211" height="52" xlink:href="img/17.jpg"/>
<image clip-path="url(#ci_217)" preserveAspectRatio="none" x="108" y="584" width="53" height="15" xlink:href="img/18.jpg"/>
<image clip-path="url(#cj_217)" preserveAspectRatio="none" x="230" y="584" width="2" height="52" xlink:href="img/19.jpg"/>
<path d="M110,589.7v30.2H298.3V589.7H110Z" class="g0_217"/>
<path d="M110,589.7v30.2H298.3V589.7H110Z" class="g2_217"/>
<image clip-path="url(#ck_217)" preserveAspectRatio="none" x="80" y="397" width="280" height="75" xlink:href="img/20.jpg"/>
<image clip-path="url(#cl_217)" preserveAspectRatio="none" x="103" y="455" width="257" height="17" xlink:href="img/21.jpg"/>
<image clip-path="url(#cm_217)" preserveAspectRatio="none" x="109" y="461" width="251" height="11" xlink:href="img/22.jpg"/>
<image clip-path="url(#cn_217)" preserveAspectRatio="none" x="108" y="460" width="252" height="12" xlink:href="img/23.jpg"/>
<image clip-path="url(#co_217)" preserveAspectRatio="none" x="109" y="460" width="251" height="12" xlink:href="img/24.jpg"/>
<image clip-path="url(#cp_217)" preserveAspectRatio="none" x="115" y="467" width="232" height="5" xlink:href="img/25.jpg"/>
<image clip-path="url(#cq_217)" preserveAspectRatio="none" x="115" y="467" width="232" height="5" xlink:href="img/26.jpg"/>
<path d="M85.2,402.5v52.4H343V402.5H85.2Z" class="g0_217"/>
<path d="M85.2,402.5v52.4H343V402.5H85.2Z" class="g2_217"/>
<image clip-path="url(#cr_217)" preserveAspectRatio="none" x="90" y="624" width="52" height="55" xlink:href="img/27.jpg"/>
<image clip-path="url(#cs_217)" preserveAspectRatio="none" x="104" y="624" width="38" height="12" xlink:href="img/28.jpg"/>
<path d="M95.3,630.7l.8,31.5l29.3,-.8l-.9,-31.5l-29.2,.8Z" class="g0_217"/>
<path d="M95.3,630.7l.8,31.5l29.3,-.8l-.9,-31.5l-29.2,.8Z" class="g2_217"/>
<path d="M486,203.8V310.7H816V203.8H486Z" class="g1_217"/>
<path d="M486,203.8V310.7H816V203.8H486Z" class="g2_217"/>
<path d="M495,213.1V303H815.5V213.1H495Z" class="g1_217"/>
<path d="M691.2,505.7V952.6H816.6V505.7H691.2Z" class="g2_217"/>
<path d="M514.5,128.7c1,-1.8,2.3,-3.1,3.7,-4.6c.9,-1,1.4,-1.9,2.7,-2.5c2.1,-.9,3.3,-2.3,5,-3.7c1.9,-1.6,4,-2.7,5.8,-4.4c1.4,-1.3,2.3,-2.9,3.7,-4.2c3.3,-3.2,8.1,-5.3,12.2,-7c2.8,-1.1,5.3,-2.7,8.1,-3.8c3.1,-1.2,6.1,-2.5,9.3,-3.4c3.2,-.9,6.4,-1.8,9.6,-2.5c4,-.7,7.7,-1.6,11.7,-2c3,-.3,6,-1,9,-1.3c3.1,-.3,6.3,-.3,9.4,-.6c3,-.2,5.7,-.8,8.7,-.8c3.7,.1,7.4,.1,11,0c3.4,0,6.7,.9,10,.9c3.8,.1,7.7,.1,11.5,.4c3.2,.1,6.2,.7,9.4,1c4.5,.3,9.2,.4,13.6,1.4c4.2,.9,8.5,.7,12.7,1.4c3.4,.6,6.9,.8,10.3,1.5c3.6,.8,7.2,1,10.8,1.8c2.2,.5,4.1,1.1,6.2,1.7c2.8,1,5.6,1.4,8.4,2.2c13.3,3.7,26.9,6.5,40.1,10.6c3.2,.9,6.1,2.6,9.3,3.7c2.4,.8,4.9,1.4,7.4,2c.9,.2,1.4,.7,2.2,1c1,.4,1.9,.5,2.9,.8c1.1,.5,2.1,1.4,3.2,1.9c2,.8,4,1.6,5.9,2.5c2.5,1.3,4.9,3.3,7.2,5c1.7,1.2,3.1,2.5,4.5,4c3.2,3.8,6,8.7,7,13.6c.4,2.2,.8,4.8,.7,7c0,1.2,-.5,2.2,-.8,3.3c-.3,1.7,-.3,3.6,-1,5.1c-1.2,2.3,-2.5,4.7,-4.3,6.4c-1.1,1,-1.6,2.2,-2.5,3.4c-.8,1.3,-1.9,2.4,-3,3.6c-1.7,2,-3.6,3.8,-5.4,5.8c-2.3,2.5,-5,4.1,-7.7,6c-2.7,2,-5.3,4.3,-7.9,6.5c-1.8,1.5,-4.1,3.3,-6.3,4.2c1.6,-2.8,4.3,-5,6,-7.7c-1.1,1.6,-2.3,3.4,-3.6,4.8c-1,1.1,-3.1,1.6,-3.8,2.7c-1.3,2.1,3.5,1.5,4.4,1.5c2.9,.1,5.7,.9,8.5,1.2" class="g3_217"/>
<g clip-path="url(#ct_217)">
<path d="M-4.5,13.7H-27.4m939.5,0H935M-4.5,1031.2H-27.4m939.5,0H935M13.7,-4.5V-27.4m0,1077v22.9m880,-1077V-27.4m0,1077v22.9" class="g4_217"/>
<path d="M-4.5,13.7H-27.4m939.5,0H935M-4.5,1031.2H-27.4m939.5,0H935M13.7,-4.5V-27.4m0,1077v22.9m880,-1077V-27.4m0,1077v22.9" class="g5_217"/>
</g>
</svg>