<?xml version="1.0" encoding="UTF-8" standalone="no"?>
<!DOCTYPE svg PUBLIC "-//W3C//DTD SVG 1.1//EN"
"http://www.w3.org/Graphics/SVG/1.1/DTD/svg11.dtd">
<svg viewBox="0 0 662 1017" version="1.1" xmlns="http://www.w3.org/2000/svg" xmlns:xlink="http://www.w3.org/1999/xlink">
<defs>
<style type="text/css"><![CDATA[
.g0_45{
fill: #FFF;
}
.g1_45{
fill: none;
stroke: #231F20;
stroke-width: 1.527;
}
.g2_45{
fill: #231F20;
}
.g3_45{
fill: #000;
}
.g4_45{
fill: #FFF;
stroke: #FFF;
stroke-width: 1.527;
stroke-miterlimit: 10;
}
]]></style>
</defs>
<path d="M594.7 370.4c0 15.4 -12.5 27.9 -27.9 27.9c-15.5 0 -28 -12.5 -28 -27.9c0 -15.4 12.5 -27.9 28 -27.9c15.4 0 27.9 12.5 27.9 27.9Z" class="g0_45"/>
<path d="M594.7 370.4c0 15.4 -12.5 27.9 -27.9 27.9c-15.5 0 -28 -12.5 -28 -27.9c0 -15.4 12.5 -27.9 28 -27.9c15.4 0 27.9 12.5 27.9 27.9Z" class="g1_45"/>
<path d="M578.9 350l2.5 4.1L569.9 360l-1.5 -2.5L578.9 350Z" class="g2_45"/>
<path d="M552.1 354.2l2.4 -4.2l10.6 7.5l-1.5 2.5l-11.5 -5.8Z" class="g2_45"/>
<path d="M554.1 363.6l5.3 -3.8l4.6 2.1l-1.7 2.8l-2.7 -1.6l-4.2 2.4l-1.3 -1.9Z" class="g2_45"/>
<path d="M578.8 363.6l-5.3 -3.8l-4.5 2.1l1.7 2.8l2.7 -1.6l4.1 2.4l1.3 -1.9Z" class="g2_45"/>
<path d="M552.2 387c-.2 -.2 0 -.9 .5 -1.6c0 0 5.7 -7.9 14.2 -7.9c8.5 0 14 7.4 14 7.4c.5 .7 .6 1.5 .4 1.8c-.3 .3 -1 .1 -1.6 -.6c0 0 -3 -3.5 -12.8 -3.5c-9.8 0 -13.3 3.7 -13.3 3.7c-.6 .6 -1.2 1 -1.4 .7Z" class="g2_45"/>
<path d="M562 379v7.2c0 0 .9 4.2 4.8 4.2c3.9 0 4.8 -4.3 4.8 -4.3V379H562Z" class="g0_45"/>
<path d="M562 379v7.2c0 0 .9 4.2 4.8 4.2c3.9 0 4.8 -4.3 4.8 -4.3V379H562Zm4.8 -.7v8.6" class="g1_45"/>
<path d="M56.8 320v-1.5H606.4V320Z" class="g3_45"/>
<path d="M56.8 676.8v-1.5H606.4v1.5Z" class="g3_45"/>
<path d="M56.8 911.8v-1.5H276.6v1.5Z" class="g3_45"/>
<path d="M454.3 1016H660.7v-15.9H454.3Z" class="g4_45"/>
</svg>