<?xml version="1.0" encoding="UTF-8" standalone="no"?>
<!DOCTYPE svg PUBLIC "-//W3C//DTD SVG 1.1//EN"
"http://www.w3.org/Graphics/SVG/1.1/DTD/svg11.dtd">
<svg viewBox="0 0 907 1045" version="1.1" xmlns="http://www.w3.org/2000/svg" xmlns:xlink="http://www.w3.org/1999/xlink">
<defs>
<clipPath id="c0_162"><path d="M94.3,179.8V111h173v68.8Z"/></clipPath>
<clipPath id="c1_162"><path d="M-2.6,1047.7V-2.6H910.2V1047.7Z"/></clipPath>
<style type="text/css"><![CDATA[
.g0_162{
fill: none;
stroke: #000000;
stroke-width: 1.527;
stroke-linecap: butt;
stroke-linejoin: miter;
stroke-miterlimit: 4;
}
.g1_162{
fill: #FFFFFF;
}
.g2_162{
}
.g3_162{
fill: #B6B6B6;
}
.g4_162{
fill: #343434;
}
.g5_162{
fill: #7C7C7C;
}
.g6_162{
fill: #909090;
}
.g7_162{
fill: #737373;
}
.g8_162{
fill: #C7C7C7;
}
.g9_162{
fill: #ACACAC;
}
.ga_162{
fill: #A8A8A8;
}
.gb_162{
fill: #E6E6E6;
}
.gc_162{
fill: #D2D2D2;
}
.gd_162{
fill: #CFCFCF;
}
.ge_162{
fill: #ECECEC;
}
.gf_162{
fill: #DDDDDD;
}
.gg_162{
fill: #DBDBDB;
}
.gh_162{
fill: #D5D5D5;
}
.gi_162{
fill: #3C3C3C;
}
.gj_162{
fill: none;
stroke: #FFFFFF;
stroke-width: 1.909;
stroke-linecap: butt;
stroke-linejoin: miter;
}
.gk_162{
fill: none;
stroke: #000000;
stroke-width: 0.381;
stroke-linecap: butt;
stroke-linejoin: miter;
}
]]></style>
</defs>
<path d="M108.9,127.6v825H790.6v-825H108.9Z" class="g0_162"/>
<path d="M90.8,105.4v59.8H281V105.4H90.8Z" class="g1_162"/>
<path d="M94.3,111v68.8h173V111H94.3Z" class="g1_162"/>
<path d="M147.1,164.7l-1.1,-.2l.3,.8l9.3,1.2l-6.5,-5.6l-.8,.5l-.5,.5l-.2,.7l-.3,.5l-.2,1.1v.5Z" class="g2_162"/>
<path d="M134.1,151v0l1.1,1.4l.9,1.3l.3,.8l.4,1l.3,.8v.9l.1,.9l-.3,.9l-.5,.7l-.8,.9l-1,.5l-1.4,.5l12.8,2.9l-.4,-1.3l-.1,-1l.2,-1l.3,-.7l.3,-.5l.4,-.4l.3,-.3l2.1,1.6l-4.4,-4.5l-3.4,-3.8L140,151l-.8,-1.3l-.2,.3l-.2,.4l-.3,.4l-.7,.3l-.8,.2h-1.4l-1.5,-.3Z" class="g3_162"/>
<path d="M146,164.5l1.1,.2v-.5l.2,-1.1l.3,-.5l.2,-.7l.5,-.5l.8,-.5L147,159.3l-.3,.3l-.4,.4l-.3,.5l-.3,.7l-.2,1l.1,1l.4,1.3Z" class="g4_162"/>
<path d="M106.5,139.5v0l2.2,1.4l2.5,1.4l4.6,3.1l4.6,3.4l4.3,3.3l3.7,3.1l2.9,2.5l2.5,2.2l-.3,.6l.8,-.9l.7,-.7l.4,-1v-1l-.1,-.9l-.2,-1l-.2,-.9l-.6,-.9l-1,-1.7l-.9,-1.3L131.2,149l1.1,.4l1.3,.3l1.4,.3h1.2l2.1,-.3h.9l-1.7,-.5l-1.7,-.8l-3.9,-1.8l-3.9,-2l-4.1,-2.5l-3.7,-2.5l-3.6,-2.3l-5.1,-3.7l-1.5,.5l-1,.7l-.9,.7l-.7,.7l-.5,.9l-.3,.8v.8l-.1,.8Z" class="g5_162"/>
<path d="M133.1,161.7v0l.1,-.1l-.1,.1Z" class="g5_162"/>
<path d="M133.5,160.5v0l-.4,1.2l.1,-.1l1.4,-.5l1,-.5l.8,-.9l.5,-.7l.3,-.9l-.1,-.9v-.9l-.3,-.8l-.4,-1l-.3,-.8l-.9,-1.3L134.1,151l1.5,.3H137l.8,-.2l.7,-.3l.3,-.4l.2,-.4l.2,-.3h-.9l-2.1,.3H135l-1.4,-.3l-1.3,-.3l-1.1,-.4l1.2,1.2l.9,1.3l1,1.7l.6,.9l.2,.9l.2,1l.1,.9v1l-.4,1l-.7,.8l-.8,.8Z" class="g6_162"/>
<path d="M96.2,130v0l-.4,.9l-.1,.6v1.4L96,134l.5,.8l.6,.8l.6,.4l.7,.5l1.4,.2l-.1,-1l.1,-1l.2,-.8l.2,-.8l.3,-.7l.4,-.6l1,-1l.9,-.8l1,-.4l.8,-.4l.7,-.2l-1,-.9l-.7,-.5l-.9,-.4l-.8,-.4h-1.1l-1.1,.1l-1.3,.4l-.7,.5l-.6,.6l-.6,.7l-.3,.9Z" class="g7_162"/>
<path d="M101.9,137.4v0l2.2,1l-.1,-.9l.1,-.8l.2,-.8l.6,-.9l.7,-.8l1,-.7l1.4,-.7l1.7,-.4l1.8,1.2l.5,-.2l-.4,-.5l-1.2,-1.3l-.9,-.7l-1.1,-.8l-1.4,-.6l-1.4,-.5h-.3l.5,1l-.8,.2l-.7,.3l-.6,.3l-.5,.5l-.5,.5l-.3,.4l-.5,1.2l-.1,1.1l-.2,1.2l.1,.9l.2,.8Z" class="g8_162"/>
<path d="M104.1,138.4v0l2.4,1.1l.1,-.8v-.8l.3,-.8l.5,-.9l.7,-.7l.9,-.7l1,-.7l1.5,-.5l-1.8,-1.2l-1.7,.4l-1.4,.7l-1,.7l-.7,.8l-.6,.9l-.2,.8l-.1,.8l.1,.9Z" class="g9_162"/>
<path d="M99.8,136.7v0l2.1,.7l-.2,-.8l-.1,-.9l.2,-1.2l.1,-1.1l.5,-1.2l.3,-.4l.5,-.5l.5,-.5l.6,-.3l.7,-.3l.8,-.2l-.5,-1l-.7,.2l-.8,.4l-1,.4l-.9,.8l-1,1l-.4,.6l-.3,.7l-.2,.8l-.2,.8l-.1,1l.1,1Z" class="ga_162"/>
<path d="M131.8,161.4l.2,-.1l-.2,.1Z" class="gb_162"/>
<path d="M132,161.3v0l.4,.5l.7,-.1l-1.1,-.4Z" class="gc_162"/>
<path d="M106.8,141.4v0l1.9,1l1.9,1.2l4,2.7l4,3l3.6,3l3.3,3l2.9,2.5l3.6,3.5l.8,-.3l.7,-.5l.3,-.6l-2.5,-2.2l-2.9,-2.5l-3.7,-3.1l-4.3,-3.3l-4.6,-3.4l-4.6,-3.1l-2.5,-1.4l-2.2,-1.4l.1,1l.2,.9Z" class="g6_162"/>
<path d="M132,161.3l1.1,.4l.4,-1.2l-.7,.5l-.8,.3Z" class="g6_162"/>
<path d="M96.2,128.6v0l-.9,2.5l-.8,2.7l.2,.9l.5,.8l.6,.6l.6,.6l.7,.6l.9,.5l1,.2l1.1,.3l-.3,-1.6l-1.4,-.2l-.7,-.5l-.6,-.4l-.6,-.8L96,134l-.3,-1.1v-1.4l.1,-.6l.4,-.9l.3,-.9l.6,-.7l.6,-.6l.7,-.5l-1.3,.6l-.9,.7Z" class="gd_162"/>
<path d="M107.8,143.7v0l-.4,-.6l-.4,-.9l-.2,-.8l-2.2,-1.1l-.3,-.6l-.2,-.6v-.7l-2.2,-1l.2,.9l-1.1,.1l-.9,-.1v.8l.8,.7l.6,.8l1,.8l1.1,.8l1.4,.7l1.3,.6l.8,.1l.7,.1Z" class="ge_162"/>
<path d="M104.6,140.3v0l2.2,1.1l-.2,-.9l-.1,-1l-2.4,-1.1v.7l.2,.6l.3,.6Z" class="gf_162"/>
<path d="M101.9,137.4v0l-2.1,-.7l.3,1.6l.9,.1l1.1,-.1l-.2,-.9Z" class="gg_162"/>
<path clip-path="url(#c0_162)" d="M94.5,133.8v0l.8,-2.7l.9,-2.5l-.5,.6l-.5,.6l-.4,.5l-.3,.7l-.1,.8l-.1,.7v.7l.2,.6Z" class="gh_162"/>
<path d="M130.2,161v0l-5.7,-4.5l-6,-4.6l-6,-4.5l-3,-1.9l-3.2,-2l-.2,.5l1.6,.8l1.6,1.2l3.1,2.1l6,4.4l5.9,4.5l2.8,2.2l2.8,2.3v-.1l.3,-.4Z" class="gi_162"/>
<path d="M137.9,146.5v0l-6.5,-3.1l-6.5,-3.3l-3.2,-1.6l-3.1,-1.7l-3.2,-1.9l-3,-2l-.4,.5l3.1,2l3.1,1.8l3.1,1.8l3.3,1.7l6.6,3.2l6.4,3.1l.3,-.5Z" class="gi_162"/>
<path d="M107.9,145.1v0l-.9,-1l-.5,-1.1l-.3,-1.2l-.2,-1.3l.1,-1.4l.4,-1.3l.5,-1.4l.5,-.6l.4,-.4l1.2,-.9l1.1,-.6l1.2,-.5l1.4,-.5l-.3,-.5l-1.3,.5l-1.3,.5l-1.2,.8l-1.1,.9l-.6,.6l-.5,.5l-.5,1.4l-.5,1.5l-.1,1.6l.2,1.3l.3,1.3l.8,1.2l.4,.5l.5,.5l.3,-.4Z" class="gi_162"/>
<path d="M103.8,141.8v0l-.4,-.9l-.4,-1l-.1,-.9l-.2,-1v-1.1l.2,-1l.2,-.9l.3,-1l.5,-.9l.6,-.8l.7,-.6l.8,-.5l.9,-.6l.9,-.2l.9,-.2h1v-.6l-1,.1l-1.1,.1l-1,.4l-.9,.4l-.8,.5l-.8,.9l-.7,.7l-.5,.9l-.4,1l-.2,1.2l-.1,1.1V138l.1,1l.3,1l.2,1l.6,1.1l.4,-.3Z" class="gi_162"/>
<path d="M101.6,139.5v0l-.4,-1.6l-.1,-1.4l.1,-1.5l.2,-1.4l.3,-1l.4,-.8l.6,-.7l.6,-.6l.7,-.5l.7,-.5l1.7,-.9l-.3,-.5l-1.7,.9l-.8,.5l-.7,.6l-.6,.6l-.6,.8l-.5,.9l-.3,.8l-.2,1.6l-.2,1.6l.1,1.7l.4,1.5l.6,-.1Z" class="gi_162"/>
<path d="M109.4,130.7v0l-1.9,-1.5l-1.7,-1.7l-.4,.4l1.8,1.7l1.9,1.5l.3,-.4Z" class="gi_162"/>
<path d="M105.1,141.7v0l-2.4,-1.4l-2.6,-1.2l-.1,.5l2.4,1.2l2.4,1.4l.3,-.5Z" class="gi_162"/>
<path d="M99.3,138.1v0L98,137.3l-1.2,-.9l-.6,-.6l-.5,-.5l-.3,-.8l-.2,-.7L95,132.6l.1,-1.1l.3,-1.2l.5,-.9l.8,-.9l1,-.7l.9,-.6l1.1,-.4l1.2,-.3H102l1.2,.3l1.1,.3l.2,-.5l-1.2,-.4l-1.2,-.2h-1.3l-1.3,.2l-1.2,.5l-1.1,.6l-.9,.8l-.8,1l-.4,.7l-.3,.7l-.3,.7l.1,.7l-.1,1.4l.4,1.5l.3,.7l.4,.6l1,1l1.1,.8l1.4,.7l.2,-.5Z" class="gi_162"/>
<path d="M135.7,150.6v0l-3.4,-1.8l-3.4,-1.7l-3.3,-1.9l-3.3,-1.9l-6.4,-4.2l-6.3,-4.3l-.3,.6l6.4,4.2l6.4,4.2l3.2,1.9l3.3,1.9l3.4,1.8l3.4,1.7l.3,-.5Z" class="gi_162"/>
<image x="133" y="149" width="6" height="13" xlink:href="shade/1.png"/>
<path d="M140.3,149.8v0l-1.1,.3l-1.3,.2l-2.4,.3v.6l2.5,-.3l1.3,-.2l1.3,-.3l-.3,-.6Z" class="gi_162"/>
<path d="M157.5,167.1v0l-6,-1.4l-6.2,-1l-6.1,-1.1l-6.1,-.9l-.1,.5l6.1,.9l6.2,1l6.1,1.2l6,1.4l.1,-.6Z" class="gi_162"/>
<path d="M157.6,166.4v0l-4.7,-4.3l-4.4,-4.7l-4.3,-4.7l-4.3,-4.9l-.4,.2l4.2,5.1l4.3,4.7l4.6,4.7l4.7,4.3l.3,-.4Z" class="gi_162"/>
<path d="M149.1,165.1v0l-.3,-.7l-.2,-.9l-.1,-.7l.1,-1l.4,-.7l.4,-.7l.4,-.7l.6,-.5l-.3,-.5l-.7,.6l-.5,.8l-.6,.7l-.2,1l-.2,.8l.1,1.1l.2,.8l.4,.9l.5,-.3Z" class="gi_162"/>
<g clip-path="url(#c1_162)">
<path d="M-4.5,13.7H-27.4m939.5,0H935M-4.5,1031.2H-27.4m939.5,0H935M13.7,-4.5V-27.4m0,1077v22.9m880,-1077V-27.4m0,1077v22.9" class="gj_162"/>
<path d="M-4.5,13.7H-27.4m939.5,0H935M-4.5,1031.2H-27.4m939.5,0H935M13.7,-4.5V-27.4m0,1077v22.9m880,-1077V-27.4m0,1077v22.9" class="gk_162"/>
</g>
</svg>