<?xml version="1.0" encoding="UTF-8" standalone="no"?>
<!DOCTYPE svg PUBLIC "-//W3C//DTD SVG 1.1//EN"
"http://www.w3.org/Graphics/SVG/1.1/DTD/svg11.dtd">
<svg viewBox="0 0 931 1096" version="1.1" xmlns="http://www.w3.org/2000/svg" xmlns:xlink="http://www.w3.org/1999/xlink">
<defs>
<clipPath id="c0_232"><path d="M474.4,279.6V248.4H611.7v31.2Z"/></clipPath>
<clipPath id="c1_232"><path d="M474.4,584.5V550.9H723.8v33.6Z"/></clipPath>
<clipPath id="c2_232"><path d="M476.8,748.7V719.9H603.6v28.8Z"/></clipPath>
<clipPath id="c3_232"><path d="M476.8,805.2V775.3H590.4v29.9Z"/></clipPath>
<clipPath id="c4_232"><path d="M90.5,270V234.2H191V270Z"/></clipPath>
<clipPath id="c5_232"><path d="M195.4,356V327.1H311.8V356Z"/></clipPath>
<clipPath id="c6_232"><path d="M247,728.6V700.5H375.7v28.1Z"/></clipPath>
<style type="text/css"><![CDATA[
.g0_232{
fill: none;
stroke: #241F1F;
stroke-width: 0.38;
stroke-linecap: round;
stroke-linejoin: round;
}
.g1_232{
fill: #241F1F;
}
.g2_232{
fill: none;
stroke: #241F1F;
stroke-width: 0.533;
stroke-linecap: round;
stroke-linejoin: round;
}
.g3_232{
fill: none;
stroke: #241F1F;
stroke-width: 0.838;
stroke-linecap: round;
stroke-linejoin: round;
}
.g4_232{
fill: none;
stroke: #241F1F;
stroke-width: 0.687;
stroke-miterlimit: 10;
}
.g5_232{
fill: none;
stroke: #241F1F;
stroke-width: 0.536;
stroke-linecap: round;
stroke-linejoin: round;
}
.g6_232{
fill: none;
stroke: #241F1F;
stroke-width: 0.997;
stroke-linecap: round;
stroke-linejoin: round;
}
.g7_232{
fill: none;
stroke: #241F1F;
stroke-width: 0.481;
stroke-miterlimit: 10;
}
.g8_232{
fill: none;
stroke: #241F1F;
stroke-width: 0.534;
stroke-linecap: round;
stroke-linejoin: round;
}
.g9_232{
fill: none;
stroke: #241F1F;
stroke-width: 0.381;
stroke-linecap: round;
stroke-linejoin: round;
}
.ga_232{
fill: none;
stroke: #241F1F;
stroke-width: 0.84;
stroke-linecap: round;
stroke-linejoin: round;
}
.gb_232{
fill: none;
stroke: #241F1F;
stroke-width: 0.762;
stroke-miterlimit: 3;
}
.gc_232{
fill: none;
stroke: #241F1F;
stroke-width: 0.99;
stroke-linecap: square;
stroke-miterlimit: 10;
}
.gd_232{
fill: none;
stroke: #241F1F;
stroke-width: 0.38;
}
.ge_232{
fill: none;
stroke: #111213;
stroke-width: 0.762;
stroke-linecap: square;
stroke-miterlimit: 10;
}
.gf_232{
fill: none;
stroke: #241F1F;
stroke-width: 0.412;
stroke-miterlimit: 10;
}
.gg_232{
fill: none;
stroke: #241F1F;
stroke-width: 0.305;
stroke-linecap: round;
stroke-linejoin: round;
}
.gh_232{
fill: none;
stroke: #241F1F;
stroke-width: 0.763;
stroke-miterlimit: 3;
}
.gi_232{
fill: none;
stroke: #241F1F;
stroke-width: 0.916;
stroke-miterlimit: 3;
}
.gj_232{
fill: none;
stroke: #241F1F;
stroke-width: 0.534;
stroke-miterlimit: 10;
}
]]></style>
</defs>
<path d="M481.1,218.6H660.4" class="g0_232"/>
<path fill-rule="evenodd" d="M660.4,218.6L659,216.5l5.6,2.1l-5.6,2.1Z" class="g1_232"/>
<path d="M499.9,235.7V109.4" class="g0_232"/>
<path fill-rule="evenodd" d="M499.9,109.4l-2.1,1.4l2.1,-5.6l2.1,5.6Z" class="g1_232"/>
<path d="M648.1,216.5v4.2m-49.4,-4.2v4.2m-49.4,-4.2v4.2M497.8,119.9H502m-4.2,32.9H502m-4.2,32.9H502m-20.9,32.9H660.4M499.9,235.7V109.4" class="g2_232"/>
<path d="M494.4,201.5l5.3,.7l5.1,1l5.1,.9l5.1,1.2l5,1.7l5.4,1.9l5.1,2.6l5,3.3l5.1,4.8l2.8,3.3m-49,-35.7l5.3,-1.4l5.1,-1.4l5.1,-1.4l5.1,-1.7l5,-1.7l5.4,-1.6l5.1,-1.7l5,-1.7l5.1,-1.6l5.1,-1.7l5.3,-1.4l5.1,-1.4l5.1,-1.2l5.1,-1.2l5,-1.2l5.4,-1l5,-.9l5.1,-.7l5.1,-.7l5.1,-.5l5.3,-.7l5.1,-.5l5.1,-.2l5.1,-.5l5,-.3l5.4,-.2l5.1,-.2l5,-.3h5.1l5.1,-.2M494.4,171.1l5.3,-1.5l5.1,-1.4l5.1,-1.4l5.1,-1.2l5,-.9l5.4,-1l5.1,-.9l5,-.8l5.1,-.7l5.1,-.4l5.3,-.5l5.1,-.5l5.1,-.5l5.1,-.2l5,-.3l5.4,-.2l5,-.2l5.1,-.3l5.1,-.2H597l5.3,-.2h10.2l5.1,-.3h25.6l5.1,-.2M494.4,130.7l5.3,6.1l5.1,4.3l5.1,3.4l5.1,2.3l5,1.9l5.4,1.4l5.1,1.5l5,.9l5.1,.8l5.1,.7l5.3,.4l5.1,.5l5.1,.5l5.1,.2l5,.3l5.4,.2l5,.2h5.1l5.1,.3H597l5.3,.2h10.2l5.1,.3h30.7" class="g3_232"/>
<path d="M500.7,219.8l-2.2,-2.1m14.4,2.1l-2,-2.1m14.5,2.1l-2.1,-2.1m14.5,2.1l-2,-2.1m14.5,2.1l-2.1,-2.1m14.5,2.1l-2,-2.1m14.4,2.1l-2.2,-2.1m14.4,2.1l-2,-2.1m14.5,2.1l-2,-2.1m14.4,2.1l-2,-2.1m14.5,2.1l-2.1,-2.1m14.5,2.1l-2,-2.1m14.5,2.1l-2.3,-2.1M501,215.5l-2.8,-1.9m15.2,1.9l-2.8,-1.9m15.3,1.9l-2.8,-1.9m15,1.9l-2.6,-1.9m15,1.9l-2.8,-1.9m15.3,1.9l-2.8,-1.9m15.2,1.9l-2.8,-1.9m15.2,1.9l-2.7,-1.9m15.2,1.9l-2.8,-1.9m15,1.9l-2.6,-1.9m15,1.9l-2.8,-1.9m15.3,1.9l-2.8,-1.9m15.2,1.9L647,213.6M501.5,211.5l-3.8,-1.9m16.2,1.9l-3.8,-1.9m16.3,1.9l-4.1,-1.9m16.5,1.9l-4,-1.9m16.5,1.9l-4.1,-1.9m16.3,1.9l-3.8,-1.9m16.2,1.9l-3.8,-1.9m16.3,1.9l-3.9,-1.9m16.3,1.9l-4.1,-1.9m16.5,1.9l-4,-1.9m16.5,1.9l-4.1,-1.9m16.3,1.9l-3.8,-1.9m16.2,1.9l-3.8,-1.9M496.4,205.3l6.4,2.2m6.1,-2.2l6.3,2.2m6.1,-2.2l6.1,2.2m6.4,-2.2l6.1,2.2m6.3,-2.2l6.1,2.2m6.1,-2.2l6.3,2.2m6.1,-2.2l6.4,2.2m6.1,-2.2l6.3,2.2m6.1,-2.2l6.1,2.2m6.4,-2.2l6.1,2.2m6.3,-2.2l6.1,2.2m6.1,-2.2l6.3,2.2m6.1,-2.2l6.4,2.2M496.4,201.7l6.4,1m6.1,-1l6.3,1m6.1,-1l6.1,1m6.4,-1l6.1,1m6.3,-1l6.1,1m6.1,-1l6.3,1m6.1,-1l6.4,1m6.1,-1l6.3,1m6.1,-1l6.1,1m6.4,-1l6.1,1m6.3,-1l6.1,1m6.1,-1l6.3,1m6.1,-1l6.4,1M496.4,198.2h6.4m6.1,0h6.3m6.1,0h6.1m6.4,0h6.1m6.3,0h6.1m6.1,0h6.3m6.1,0h6.4m6.1,0h6.3m6.1,0h6.1m6.4,0h6.1m6.3,0h6.1m6.1,0h6.3m6.1,0h6.4M496.4,194.4l6.4,-.7m6.1,.7l6.3,-.7m6.1,.7l6.1,-.7m6.4,.7l6.1,-.7m6.3,.7l6.1,-.7m6.1,.7l6.3,-.7m6.1,.7l6.4,-.7m6.1,.7l6.3,-.7m6.1,.7l6.1,-.7m6.4,.7l6.1,-.7m6.3,.7l6.1,-.7m6.1,.7l6.3,-.7m6.1,.7l6.4,-.7M496.4,190.6l6.4,-1.2m6.1,1.2l6.3,-1.2m6.1,1.2l6.1,-1.2m6.4,1.2l6.1,-1.2m6.3,1.2l6.1,-1.2m6.1,1.2l6.3,-1.2m6.1,1.2l6.4,-1.2m6.1,1.2l6.3,-1.2m6.1,1.2l6.1,-1.2m6.4,1.2l6.1,-1.2m6.3,1.2l6.1,-1.2m6.1,1.2l6.3,-1.2m6.1,1.2l6.4,-1.2M496.4,186.8l6.4,-1.7m6.1,1.7l6.3,-1.7m6.1,1.7l6.1,-1.7m6.4,1.7l6.1,-1.7m6.3,1.7l6.1,-1.7m6.1,1.7l6.3,-1.7m6.1,1.7l6.4,-1.7m6.1,1.7l6.3,-1.7m6.1,1.7l6.1,-1.7m6.4,1.7l6.1,-1.7m6.3,1.7l6.1,-1.7m6.1,1.7l6.3,-1.7m6.1,1.7l6.4,-1.7M496.4,182.7l6.4,-1.9m6.1,1.9l6.3,-1.9m6.1,1.9l6.1,-1.9m6.4,1.9l6.1,-1.9m6.3,1.9l6.1,-1.9m6.1,1.9l6.3,-1.9m6.1,1.9l6.4,-1.9m6.1,1.9l6.3,-1.9m6.1,1.9l6.1,-1.9m6.4,1.9l6.1,-1.9m6.3,1.9l6.1,-1.9m6.1,1.9l6.3,-1.9m6.1,1.9l6.4,-1.9M496.4,178.7l6.4,-1.9m6.1,1.9l6.3,-1.9m6.1,1.9l6.1,-1.9m6.4,1.9l6.1,-1.9m6.3,1.9l6.1,-1.9m6.1,1.9l6.3,-1.9m6.1,1.9l6.4,-1.9m6.1,1.9l6.3,-1.9m6.1,1.9l6.1,-1.9m6.4,1.9l6.1,-1.9m6.3,1.9l6.1,-1.9m6.1,1.9l6.3,-1.9m6.1,1.9l6.4,-1.9M496.4,174.6l6.4,-1.9m6.1,1.9l6.3,-1.9m6.1,1.9l6.1,-1.9m6.4,1.9l6.1,-1.9m6.3,1.9l6.1,-1.9m6.1,1.9l6.3,-1.9m6.1,1.9l6.4,-1.9m6.1,1.9l6.3,-1.9m6.1,1.9l6.1,-1.9m6.4,1.9l6.1,-1.9m6.3,1.9l6.1,-1.9m6.1,1.9l6.3,-1.9m6.1,1.9l6.4,-1.9M496.4,170.4l6.4,-1.7m6.1,1.7l6.3,-1.7m6.1,1.7l6.1,-1.7m6.4,1.7l6.1,-1.7m6.3,1.7l6.1,-1.7m6.1,1.7l6.3,-1.7m6.1,1.7l6.4,-1.7m6.1,1.7l6.3,-1.7m6.1,1.7l6.1,-1.7m6.4,1.7l6.1,-1.7m6.3,1.7l6.1,-1.7m6.1,1.7l6.3,-1.7m6.1,1.7l6.4,-1.7M496.4,166.1l6.4,-1.2m6.1,1.2l6.3,-1.2m6.1,1.2l6.1,-1.2m6.4,1.2l6.1,-1.2m6.3,1.2l6.1,-1.2m6.1,1.2l6.3,-1.2m6.1,1.2l6.4,-1.2m6.1,1.2l6.3,-1.2m6.1,1.2l6.1,-1.2m6.4,1.2l6.1,-1.2m6.3,1.2l6.1,-1.2m6.1,1.2l6.3,-1.2m6.1,1.2l6.4,-1.2M496.4,161.8l6.4,-.9m6.1,.9l6.3,-.9m6.1,.9l6.1,-.9m6.4,.9l6.1,-.9m6.3,.9l6.1,-.9m6.1,.9l6.3,-.9m6.1,.9l6.4,-.9m6.1,.9l6.3,-.9m6.1,.9l6.1,-.9m6.4,.9l6.1,-.9m6.3,.9l6.1,-.9m6.1,.9l6.3,-.9m6.1,.9l6.4,-.9M496.4,157.3h6.4m6.1,0h6.3m6.1,0h6.1m6.4,0h6.1m6.3,0h6.1m6.1,0h6.3m6.1,0h6.4m6.1,0h6.3m6.1,0h6.1m6.4,0h6.1m6.3,0h6.1m6.1,0h6.3m6.1,0h6.4M496.4,152.8l6.4,.7m6.1,-.7l6.3,.7m6.1,-.7l6.1,.7m6.4,-.7l6.1,.7m6.3,-.7l6.1,.7m6.1,-.7l6.3,.7m6.1,-.7l6.4,.7m6.1,-.7l6.3,.7m6.1,-.7l6.1,.7m6.4,-.7l6.1,.7m6.3,-.7l6.1,.7m6.1,-.7l6.3,.7m6.1,-.7l6.4,.7M496.4,148l6.4,1.9m6.1,-1.9l6.3,1.9m6.1,-1.9l6.1,1.9m6.4,-1.9l6.1,1.9m6.3,-1.9l6.1,1.9m6.1,-1.9l6.3,1.9m6.1,-1.9l6.4,1.9m6.1,-1.9l6.3,1.9m6.1,-1.9l6.1,1.9m6.4,-1.9l6.1,1.9m6.3,-1.9l6.1,1.9m6.1,-1.9l6.3,1.9m6.1,-1.9l6.4,1.9m-150.1,-4L497.7,144m16.2,1.9L510.1,144m16.3,1.9L522.3,144m16.5,1.9l-4,-1.9m16.5,1.9L547.2,144m16.3,1.9L559.7,144m16.2,1.9L572.1,144m16.3,1.9L584.5,144m16.3,1.9L596.7,144m16.5,1.9l-4,-1.9m16.5,1.9L621.6,144m16.3,1.9L634.1,144m16.2,1.9L646.5,144M501,141.8l-2.8,-1.9m15.2,1.9l-2.8,-1.9m15.3,1.9l-2.8,-1.9m15,1.9l-2.6,-1.9m15,1.9l-2.8,-1.9m15.3,1.9l-2.8,-1.9m15.2,1.9l-2.8,-1.9m15.2,1.9l-2.7,-1.9m15.2,1.9l-2.8,-1.9m15,1.9l-2.6,-1.9m15,1.9l-2.8,-1.9m15.3,1.9l-2.8,-1.9m15.2,1.9L647,139.9M500.7,137.8l-2.2,-2.1m14.4,2.1l-2,-2.1m14.5,2.1l-2.1,-2.1m14.5,2.1l-2,-2.1m14.5,2.1l-2.1,-2.1m14.5,2.1l-2,-2.1m14.4,2.1l-2.2,-2.1m14.4,2.1l-2,-2.1m14.5,2.1l-2,-2.1m14.4,2.1l-2,-2.1m14.5,2.1l-2.1,-2.1m14.5,2.1l-2,-2.1m14.5,2.1l-2.3,-2.1m-146.8,-2l-1.8,-2.1m14.2,2.1l-1.8,-2.1m14,2.1l-1.5,-2.1m14,2.1L536,131.6m14,2.1l-1.5,-2.1m14,2.1l-1.8,-2.1m14.2,2.1l-1.8,-2.1m14.2,2.1l-1.7,-2.1m13.9,2.1L598,131.6m14,2.1l-1.5,-2.1m13.9,2.1l-1.5,-2.1m14,2.1l-1.8,-2.1m14.2,2.1l-1.8,-2.1M500.2,129.7L499,127.6m13.7,2.1l-1.3,-2.1m13.7,2.1l-1.3,-2.1m13.8,2.1L536,127.6m13.8,2.1l-1.3,-2.1m13.7,2.1l-1.3,-2.1m13.7,2.1l-1.2,-2.1m13.7,2.1l-1.3,-2.1m13.7,2.1l-1.2,-2.1m13.7,2.1l-1.5,-2.1m13.7,2.1l-1.3,-2.1m13.7,2.1l-1.3,-2.1m13.8,2.1l-1.3,-2.1M500.2,125.4L499,123.5m13.4,1.9l-1,-1.9m13.5,1.9l-1.1,-1.9m13.5,1.9l-1,-1.9m13.5,1.9l-1.1,-1.9m13.5,1.9l-1,-1.9m13.4,1.9l-1.2,-1.9m13.4,1.9l-1,-1.9m13.5,1.9l-1,-1.9m13.4,1.9l-1,-1.9m13.5,1.9l-1,-1.9m13.4,1.9l-1,-1.9m13.5,1.9l-1.3,-1.9M500,121.4l-.8,-2.2m13.2,2.2l-.7,-2.2m13.2,2.2l-1.1,-2.2m13.5,2.2l-1,-2.2m13.5,2.2l-1.1,-2.2m13.2,2.2l-.7,-2.2m13.2,2.2l-.8,-2.2m13.2,2.2l-.7,-2.2m13.2,2.2l-1,-2.2m13.4,2.2l-1,-2.2m13.5,2.2l-1,-2.2m13.2,2.2l-.8,-2.2m13.2,2.2l-.8,-2.2" class="g2_232"/>
<path d="M494.4,194.8l3.2,-.3l2,-.3l3,-.4l3.1,-.4l3.1,-.5l3.2,-.4l2.9,-.7l3.1,-.4l3.2,-.7l3.1,-.6l3.2,-.7l2.9,-.6l3.1,-.9l3.2,-.7l3.1,-.9l2.9,-.8l3.2,-.9l3.1,-.9l3.2,-1.1l2.9,-.9l3.1,-.9l3.2,-1.1l2.9,-1.1l2.9,-.8l3.1,-1.1l3.4,-1.1l2.9,-.9l2.9,-.9l3.2,-1.1l3.1,-.9l3.2,-.9l3.1,-1.1l3.2,-.8l2.9,-.7l3.1,-.9l3.1,-.6l3,-.9l3.1,-.7l3.2,-.4l3.1,-.7l3.1,-.6l3,-.5l3.1,-.4l2.9,-.5l3.4,-.4l2.9,-.4l3.2,-.5l2.9,-.2l3.3,-.2l2.9,-.5" class="g3_232"/>
<path clip-path="url(#c0_232)" d="M518.2,265.4H612" class="g4_232"/>
<path d="M700.9,345.9v1.9m44.2,-1.9v1.9m-88.4,-29h1.9m-1.9,-29h1.9" class="g5_232"/>
<path d="M662.2,260.9H783.7c3,0,5.5,2.4,5.5,5.5v75.9c0,3.1,-2.5,5.5,-5.5,5.5H662.2c-3,0,-5.5,-2.4,-5.5,-5.5V266.4c0,-3.1,2.5,-5.5,5.5,-5.5Zm-5.6,72.3l2.6,.4l2.8,.4l2.8,.5l2.9,.6l2.6,.8l2.8,.8l2.8,.9l2.8,1.2l2.8,1.2l2.6,1.3l2.8,1.8l2.9,2.1l2.6,2.5M656.6,326l2.6,-.4l2.8,-.4l2.8,-.4l2.9,-.4l2.6,-.5l2.8,-.4l2.8,-.6l2.8,-.6l2.8,-.6l2.6,-.6l2.8,-.7l2.9,-.6l2.8,-.8l2.6,-.8l2.8,-.7l2.8,-.8l2.8,-1l2.6,-.8l2.9,-.7l2.8,-1l2.6,-1l2.6,-.8l2.8,-.9l3,-1l2.6,-.8l2.7,-.8L731,307l2.8,-.8l2.8,-.8l2.8,-.9l2.8,-.8l2.6,-.6l2.8,-.8l2.9,-.6l2.6,-.7l2.8,-.6l2.8,-.4l2.8,-.6l2.8,-.6l2.6,-.4l2.9,-.3l2.6,-.4l3,-.4l2.6,-.4l2.8,-.4l2.6,-.2l3,-.2l2.7,-.4" class="g6_232"/>
<path d="M515.3,291.2h9.5m19.5,0h6.3" class="g7_232"/>
<path d="M524.3,521.2l-3.4,-2m18.4,2l-3.4,-2m18.1,2l-3.3,-2m18.3,2l-3.3,-2m18.1,2l-3.4,-2m18.4,2l-3.3,-2m18.3,2l-3.3,-2m18,2l-3.3,-2m18.3,2l-3.3,-2m18.1,2l-3.3,-2m18.3,2l-3.3,-2M525.3,517l-5.4,-1.9M540,517l-5.1,-1.9M555,517l-5.1,-1.9m19.9,1.9l-5.1,-1.9m20.1,1.9l-5.1,-1.9m20.1,1.9l-5.4,-1.9m20.1,1.9l-5.1,-1.9m20.1,1.9l-5.1,-1.9m19.9,1.9l-5.1,-1.9m20.1,1.9l-5.1,-1.9m20.1,1.9L669,515.1M518.9,511.3l7.4,1.3m7.4,-1.3l7.6,1.3m7.4,-1.3l7.3,1.3m7.7,-1.3l7.3,1.3m7.4,-1.3l7.6,1.3m7.4,-1.3l7.4,1.3m7.4,-1.3l7.6,1.3m7.4,-1.3l7.3,1.3m7.7,-1.3l7.3,1.3m7.4,-1.3l7.7,1.3m7.3,-1.3l7.4,1.3M518.9,508h7.4m7.4,0h7.6m7.4,0H556m7.7,0H571m7.4,0H586m7.4,0h7.4m7.4,0h7.6m7.4,0h7.3m7.7,0h7.3m7.4,0h7.7m7.3,0h7.4M518.9,504.4l7.4,-1.1m7.4,1.1l7.6,-1.1m7.4,1.1l7.3,-1.1m7.7,1.1l7.3,-1.1m7.4,1.1l7.6,-1.1m7.4,1.1l7.4,-1.1m7.4,1.1l7.6,-1.1m7.4,1.1l7.3,-1.1m7.7,1.1l7.3,-1.1m7.4,1.1l7.7,-1.1m7.3,1.1l7.4,-1.1M519.2,500.8l6.8,-2.2m8.2,2.2l6.6,-2.2m8.4,2.2l6.6,-2.2m8.1,2.2l6.6,-2.2m8.4,2.2l6.6,-2.2m8.2,2.2l6.8,-2.2m8.2,2.2l6.6,-2.2m8.4,2.2l6.6,-2.2m8.1,2.2l6.6,-2.2m8.4,2.2l6.6,-2.2m8.2,2.2l6.8,-2.2m-154.8,-2l4.8,-2.2m10.2,2.2l4.8,-2.2m9.9,2.2l4.9,-2.2m10.1,2.2l4.9,-2.2m10.1,2.2l4.6,-2.2m10.2,2.2l4.8,-2.2m10.2,2.2l4.6,-2.2m10.1,2.2l4.9,-2.2m10.2,2.2l4.8,-2.2m9.9,2.2l4.8,-2.2m10.2,2.2l4.8,-2.2M520.7,492.5l3.8,-2.2m10.9,2.2l4.1,-2.2m10.9,2.2l3.9,-2.2m11.1,2.2l3.9,-2.2m10.9,2.2l4.1,-2.2m10.9,2.2l3.8,-2.2m10.9,2.2l4.1,-2.2m11,2.2l3.8,-2.2m11.2,2.2l3.8,-2.2m10.9,2.2l4.1,-2.2m10.9,2.2l3.8,-2.2M520.9,488.4l3.4,-2.2m11.4,2.2l3.6,-2.2m11.4,2.2l3.3,-2.2m11.7,2.2l3.3,-2.2m11.4,2.2l3.6,-2.2m11.5,2.2l3.3,-2.2m11.4,2.2l3.6,-2.2m11.4,2.2l3.3,-2.2m11.7,2.2l3.3,-2.2m11.5,2.2l3.5,-2.2m11.5,2.2l3.3,-2.2m-152.4,-2l3.4,-1.9m11.6,1.9l3.1,-1.9m11.9,1.9l3.1,-1.9m11.7,1.9l3.1,-1.9m11.9,1.9l3.1,-1.9m11.7,1.9l3.3,-1.9m11.7,1.9l3,-1.9m12,1.9l3,-1.9m11.7,1.9l3.1,-1.9m11.9,1.9l3.1,-1.9m11.7,1.9l3.3,-1.9M521.2,480.1l2.8,-1.9m11.9,1.9l3.1,-1.9m11.9,1.9l3.1,-1.9m11.7,1.9l3.1,-1.9m11.9,1.9l3.1,-1.9m11.9,1.9l2.8,-1.9m12,1.9l3,-1.9m12,1.9l3,-1.9m11.7,1.9l3.1,-1.9m11.9,1.9l3.1,-1.9m11.9,1.9l2.8,-1.9M521.2,476l2.8,-1.9m11.9,1.9l3.1,-1.9m11.9,1.9l2.9,-1.9M566,476l2.8,-1.9m11.9,1.9l3.1,-1.9m11.9,1.9l2.8,-1.9m12,1.9l3,-1.9m12,1.9l2.8,-1.9m12.2,1.9l2.8,-1.9m11.9,1.9l3.1,-1.9m11.9,1.9l2.8,-1.9M521.2,471.9l2.8,-2m11.9,2l3.1,-2m11.9,2l3.1,-2m11.7,2l3.1,-2m11.9,2l3.1,-2m11.9,2l2.8,-2m12,2l3,-2m12,2l3,-2m11.7,2l3.1,-2m11.9,2l3.1,-2m11.9,2l2.8,-2M520.9,467.7l3.4,-1.9m11.6,1.9l3.1,-1.9m11.9,1.9l3.1,-1.9m11.7,1.9l3.1,-1.9m11.9,1.9l3.1,-1.9m11.7,1.9l3.3,-1.9m11.7,1.9l3,-1.9m12,1.9l3,-1.9m11.7,1.9l3.1,-1.9m11.9,1.9l3.1,-1.9m11.7,1.9l3.3,-1.9M520.9,463.6l3.4,-2m11.4,2l3.6,-2m11.4,2l3.3,-2m11.7,2l3.3,-2m11.4,2l3.6,-2m11.5,2l3.3,-2m11.4,2l3.6,-2m11.4,2l3.3,-2m11.7,2l3.3,-2m11.5,2l3.5,-2m11.5,2l3.3,-2M520.7,459.4l3.8,-1.9m10.9,1.9l4.1,-1.9m10.9,1.9l3.9,-1.9m11.1,1.9l3.9,-1.9m10.9,1.9l4.1,-1.9m10.9,1.9l3.8,-1.9m10.9,1.9l4.1,-1.9m11,1.9l3.8,-1.9m11.2,1.9l3.8,-1.9m10.9,1.9l4.1,-1.9m10.9,1.9l3.8,-1.9M520.2,455.3l4.8,-1.9m10.2,1.9l4.8,-1.9m9.9,1.9l4.9,-1.9m10.1,1.9l4.9,-1.9m10.1,1.9l4.6,-1.9m10.2,1.9l4.8,-1.9m10.2,1.9l4.6,-1.9m10.1,1.9l4.9,-1.9m10.2,1.9l4.8,-1.9m9.9,1.9l4.8,-1.9m10.2,1.9l4.8,-1.9M519.2,451.5l6.8,-2.2m8.2,2.2l6.6,-2.2m8.4,2.2l6.6,-2.2m8.1,2.2l6.6,-2.2m8.4,2.2l6.6,-2.2m8.2,2.2l6.8,-2.2m8.2,2.2l6.6,-2.2m8.4,2.2l6.6,-2.2m8.1,2.2l6.6,-2.2m8.4,2.2l6.6,-2.2m8.2,2.2l6.8,-2.2M518.9,446.8l7.4,-1.1m7.4,1.1l7.6,-1.1m7.4,1.1l7.3,-1.1m7.7,1.1l7.3,-1.1m7.4,1.1l7.6,-1.1m7.4,1.1l7.4,-1.1m7.4,1.1l7.6,-1.1m7.4,1.1l7.3,-1.1m7.7,1.1l7.3,-1.1m7.4,1.1l7.7,-1.1m7.3,1.1l7.4,-1.1M518.9,442.1h7.4m7.4,0h7.6m7.4,0H556m7.7,0H571m7.4,0H586m7.4,0h7.4m7.4,0h7.6m7.4,0h7.3m7.7,0h7.3m7.4,0h7.7m7.3,0h7.4m-156.4,-5l7.4,1.7m7.4,-1.7l7.6,1.7m7.4,-1.7l7.3,1.7m7.7,-1.7l7.3,1.7m7.4,-1.7l7.6,1.7m7.4,-1.7l7.4,1.7m7.4,-1.7l7.6,1.7m7.4,-1.7l7.3,1.7m7.7,-1.7l7.3,1.7m7.4,-1.7l7.7,1.7m7.3,-1.7l7.4,1.7m-150,-3.9l-5.4,-2.2m20.1,2.2l-5.1,-2.2m20.1,2.2l-5.1,-2.2m19.9,2.2l-5.1,-2.2m20.1,2.2l-5.1,-2.2m20.1,2.2l-5.4,-2.2m20.1,2.2l-5.1,-2.2m20.1,2.2l-5.1,-2.2m19.9,2.2l-5.1,-2.2m20.1,2.2l-5.1,-2.2m20.1,2.2L669,432.7M524.3,430.8l-3.4,-2.2m18.4,2.2l-3.4,-2.2m18.1,2.2l-3.3,-2.2m18.3,2.2l-3.3,-2.2m18.1,2.2l-3.4,-2.2m18.4,2.2l-3.3,-2.2m18.3,2.2l-3.3,-2.2m18,2.2l-3.3,-2.2m18.3,2.2l-3.3,-2.2m18.1,2.2L655,428.6m18.3,2.2L670,428.6M523.8,426.7l-2.3,-2.3m17.2,2.3l-2.2,-2.3m17,2.3l-2.3,-2.3m17.3,2.3l-2.3,-2.3m17,2.3L581,424.4m17.2,2.3L596,424.4m17.2,2.3L611,424.4m17,2.3l-2.3,-2.3m17.3,2.3l-2.3,-2.3m17.1,2.3l-2.3,-2.3m17.3,2.3l-2.3,-2.3m-147,-1.9l-1.8,-1.9m16.8,1.9l-1.8,-1.9m16.5,1.9l-1.7,-1.9m16.7,1.9l-1.7,-1.9m16.5,1.9l-1.8,-1.9m16.8,1.9l-1.8,-1.9m16.8,1.9l-1.8,-1.9m16.5,1.9L626,420.6m16.8,1.9L641,420.6m16.5,1.9l-1.8,-1.9m16.8,1.9l-1.8,-1.9M523.2,418.4L522,416.5m16.2,1.9l-1.5,-1.9m16.3,1.9l-1.3,-1.9m16.3,1.9l-1.3,-1.9m16.3,1.9l-1.5,-1.9m16.2,1.9l-1.2,-1.9m16.2,1.9l-1.5,-1.9m16.3,1.9l-1.3,-1.9m16.3,1.9l-1.3,-1.9m16.3,1.9L656,416.5m16.3,1.9L671,416.5M523.2,414.3l-1.2,-2m16,2l-1,-2m16,2l-1.3,-2m16.3,2l-1.3,-2m16,2l-1,-2m16,2l-1.2,-2m16,2l-1,-2m16,2l-1.3,-2m16.3,2l-1.3,-2m16.1,2l-1.1,-2m16.1,2l-1.3,-2M523,410.1l-.8,-1.9m15.8,1.9l-1,-1.9m16,1.9l-1,-1.9m15.7,1.9l-1,-1.9m16,1.9l-1,-1.9m15.8,1.9l-.8,-1.9m15.8,1.9l-1,-1.9m16,1.9l-1,-1.9m15.7,1.9l-1,-1.9m16.1,1.9l-1.1,-1.9m15.8,1.9l-.8,-1.9" class="g8_232"/>
<path d="M504.1,524.6H683.8" class="g9_232"/>
<path fill-rule="evenodd" d="M683.8,524.6l-1.4,-2.1l5.6,2.1l-5.6,2.1Z" class="g1_232"/>
<path d="M522.9,541.8V398.7" class="g9_232"/>
<path fill-rule="evenodd" d="M522.9,398.7l-2.1,1.4l2.1,-5.6l2.1,5.6Z" class="g1_232"/>
<path d="M671.4,522.5v4.2m-29.7,-4.2v4.2M612,522.5v4.2M520.8,409.2H525m-4.2,49.5H525m-4.2,32.9H525m-20.9,33H683.8M522.9,541.8V398.7m59.4,123.8v4.2m-29.7,-4.2v4.2M520.8,475.2H525m-4.2,32.9H525m-4.2,-82.4H525m-4.2,16.5H525" class="g8_232"/>
<path d="M517.4,442.1H671.5M517.4,420.3l5.3,5.2l5.1,3.9l5.1,3l5.1,2l5.1,1.6l5.3,1.4l5.1,.8l5.1,.9l5.1,.5l5.1,.6l5.3,.5l5.1,.3h5.1l5.1,.3l5,.2h10.5l5,.3h20.6l5.1,.3h35.9M521.2,406.3l1.5,2.7l5.1,9.1l5.1,6.1l5.1,4.1l5.1,3.3l5.3,2.2l5.1,2l5.1,1.3l5.1,.9l5.1,.8l5.3,.8l5.1,.6l5.1,.2l5.1,.3l5,.3l5.4,.3l5.1,.2H615l5.1,.3h20.6l5.1,.3h25.7m-154.1,59l5.3,-1.4l5.1,-1.7l5.1,-2.2l5.1,-2.2l5.1,-2.7l5.3,-2.8l5.1,-3.3l5.1,-3.3l5.1,-3.6l5.1,-3.6l5.3,-3.5l5.1,-3.6l5.1,-3.3l5.1,-3.1l5,-2.7l5.4,-2.5l5.1,-2.2l5,-1.9l5.1,-1.7l5.1,-1.4l5.4,-1.1l5,-1.1l5.1,-.8l5.1,-.6l5.1,-.5l5.3,-.6l5.1,-.2l5.1,-.3l5.1,-.3h5.1m-154.1,51l5.3,-2.5l5.1,-2.7l5.1,-3.3L538,482l5.1,-3.5l5.3,-3.6l5.1,-3.6l5.1,-3.6l5.1,-3.3l5.1,-3l5.3,-3.1l5.1,-2.4l5.1,-2.2l5.1,-2l5,-1.6l5.4,-1.7l5.1,-1.1l5,-.8l5.1,-.8l5.1,-.9l5.4,-.5l5,-.3l5.1,-.5l5.1,-.3l5.1,-.3h5.3l5.1,-.3h5.1l5.1,-.2h5.1M517.4,478.5l5.3,-3.6l5.1,-3.6l5.1,-3.6l5.1,-3.3l5.1,-3l5.3,-3.1l5.1,-2.4l5.1,-2.2l5.1,-2l5.1,-1.6l5.3,-1.4l5.1,-1.4l5.1,-.8l5.1,-.8l5,-.9l5.4,-.5l5.1,-.3l5,-.5l5.1,-.3l5.1,-.3h5.4l5,-.3h5.1l5.1,-.2h20.6l5.1,-.3h5.1M517.4,511.3l5.3,.8l5.1,1.1l5.1,1.4l5.1,1.9l5.1,2.2l5.3,3.3l5.1,4.7l1.5,1.9M517.4,508H671.5M517.4,461.4l5.3,-2.8l5.1,-2.7l5.1,-2.2l5.1,-2l5.1,-1.6l5.3,-1.4l5.1,-1.4l5.1,-.8l5.1,-.8l5.1,-.9l5.3,-.5l5.1,-.3l5.1,-.5l5.1,-.3l5,-.3h5.4l5.1,-.3h5l5.1,-.2h20.6l5.1,-.3h30.8" class="ga_232"/>
<path clip-path="url(#c1_232)" d="M518.2,567.9H724.1" class="g4_232"/>
<path d="M645.9,683.9h4.8" class="g7_232"/>
<path d="M662.8,675.7h7.5" class="g4_232"/>
<path d="M652.8,705.3h4.8" class="g7_232"/>
<path d="M503.2,734.4h11m43.3,0h10.9" class="g4_232"/>
<path clip-path="url(#c2_232)" d="M588.1,734.4H604" class="g4_232"/>
<path clip-path="url(#c3_232)" d="M503.2,790.9h87.6" class="g4_232"/>
<path d="M648.7,852.2H774.1m-62.7,41.1V811.1" class="g2_232"/>
<path d="M653.9,811.1H768.8c2.9,0,5.3,2.3,5.3,5.2v71.8c0,2.9,-2.4,5.2,-5.3,5.2H653.9c-2.9,0,-5.2,-2.3,-5.2,-5.2V816.3c0,-2.9,2.3,-5.2,5.2,-5.2Z" class="gb_232"/>
<path d="M648.6,851.4l2.5,-.1m0,0h2.6m0,0l2.7,-.1m0,0H659m0,0l2.6,-.1m0,0h2.5m0,0l2.8,-.1m0,0l2.6,-.1m0,0l2.7,-.1m0,0h2.4m0,0l2.7,-.1m0,0l2.6,-.1m0,0l2.8,-.2m0,0l2.3,-.1m0,0l2.9,-.2m0,0l2.5,-.2m0,0l2.7,-.1m0,0l2.5,-.2m0,0l2.6,-.2m0,0l2.6,-.2m0,0l2.7,-.2m0,0l2.5,-.4m0,0l2.6,-.2m0,0l.7,-.1m0,0l.7,-.1m0,0h.2m0,0l.4,-.1m0,0h.4m1,-.1l.6,-.1m0,0l1.2,-.2m0,0l2.7,-.4m0,0l2.6,-.4m0,0l2.7,-.5m0,0l2.5,-.6m0,0l2.7,-.5m0,0l2.6,-.7m0,0l2.6,-.7m0,0l2.5,-.8m0,0l2.8,-.9m0,0l2.4,-.8m0,0l2.8,-1.1m0,0l2.5,-1.1m0,0l2.7,-1.4m0,0l2.6,-1.4m0,0l2.6,-1.5m0,0l2.8,-1.8m0,0l2.3,-1.8m0,0l2.9,-2.3m0,0l2.5,-2.2m0,0l2.6,-2.6m0,0l2.5,-2.7m0,0l2.8,-3.5m0,0l2.3,-3.2M648.6,853.3l2.5,.1m0,0l2.6,.1m0,0l2.7,.1m0,0l2.6,.2m0,0l2.6,.2m0,0l2.5,.4m0,0l2.8,.3m0,0l2.6,.3m0,0l2.7,.6m0,0l2.4,.5m0,0l2.7,.8m0,0l2.6,.9m0,0l2.8,1.3m0,0l2.3,1.6m0,0l2.9,2.5m0,0l2.5,3.2m0,0l2.7,5m0,0l2.5,7.1m0,0l2.6,13m0,0l.2,1.8m25.3,0l.6,-4.6m0,0L727,874.2m0,0l2.6,-8.1m0,0l2.6,-5.7m0,0l2.5,-4.2m0,0l2.8,-3.5m0,0l2.4,-2.6m0,0l2.8,-2.4m0,0l2.5,-2.3m0,0l2.7,-2.2m0,0l2.6,-2m0,0l2.6,-2.2m0,0l2.8,-2.3m0,0l2.3,-2.2m0,0l2.9,-2.5m0,0l2.5,-2.6m0,0l2.6,-2.9m0,0l2.5,-2.9m0,0l2.8,-3.7m0,0l2.5,-3.5M648.6,855.1l2.5,.2m0,0l2.6,.4m0,0l2.7,.4m0,0l2.6,.3m0,0l2.6,.6m0,0l2.5,.6m0,0l2.8,.7m0,0l2.6,.8m0,0l2.7,1.1m0,0l2.4,1.2m0,0l2.7,1.7m0,0l2.6,2.1m0,0l2.8,2.8m0,0l2.3,3.2m0,0l2.9,5.1m0,0l2.5,6.5m0,0l2.7,10.2m0,0v.3m35.5,0l1,-5.8m0,0l2.6,-10.7m0,0l2.5,-7.5m0,0l2.8,-6.1m0,0l2.4,-4.4m0,0l2.8,-3.9m0,0l2.5,-3.2m0,0l2.7,-3.1m0,0l2.6,-2.8m0,0l2.6,-2.7m0,0l2.8,-2.7m0,0l2.3,-2.5m0,0l2.9,-3m0,0l2.5,-2.8m0,0l2.6,-3.1m0,0l2.5,-3.2m0,0l2.8,-3.9m0,0l2.5,-3.7M648.6,856.9l2.5,.4m0,0l2.6,.5m0,0l2.7,.7m0,0l2.6,.6m0,0l2.6,.8m0,0l2.5,.8m0,0l2.8,1.2m0,0l2.6,1.3m0,0l2.7,1.8m0,0l2.4,1.8m0,0l2.7,2.5m0,0l2.6,3.2m0,0l2.8,4.3m0,0l2.3,4.8m0,0l2.9,7.8m0,0l1,3.9m43.3,0l2.5,-11m0,0l2.8,-8.4m0,0l2.4,-6.3m0,0l2.8,-5.3m0,0l2.5,-4.4m0,0l2.7,-4m0,0l2.6,-3.4m0,0l2.6,-3.3m0,0l2.8,-3.2m0,0l2.3,-2.8m0,0l2.9,-3.4m0,0l2.5,-3.1m0,0l2.6,-3.3m0,0l2.5,-3.5m0,0l2.8,-4m0,0l2.5,-4M648.6,849.6l2.5,-.2m0,0l2.6,-.2m0,0l2.7,-.4m0,0l2.6,-.2m0,0l2.6,-.4m0,0l2.5,-.3m0,0l2.8,-.6m0,0l2.6,-.5m0,0l2.7,-.7m0,0l2.4,-.7m0,0l2.7,-1m0,0l2.6,-1.2m0,0l2.8,-1.6m0,0l2.3,-1.7m0,0l2.9,-2.9m0,0l2.5,-3.5m0,0l2.7,-5.3m0,0l2.5,-7.5m0,0l1.8,-9.6m28.5,0l1.1,5.3m0,0l2.6,6.8m0,0l2.6,4.3m0,0l2.5,2.6m0,0l2.8,1.6m0,0l2.4,.9m0,0l2.8,.3m0,0h2.5m0,0l2.7,-.4m0,0l2.6,-.8m0,0l2.6,-.9m0,0l2.8,-1.3m0,0l2.3,-1.4m0,0l2.9,-1.9m0,0l2.5,-2m0,0l2.6,-2.4m0,0l2.5,-2.6m0,0l2.8,-3.3m0,0l1.8,-2.3M648.6,847.8l2.5,-.4m0,0l2.6,-.4m0,0l2.7,-.5m0,0l2.6,-.6m0,0l2.6,-.6m0,0l2.5,-.7m0,0l2.8,-.8m0,0l2.6,-1.1m0,0l2.7,-1.3m0,0l2.4,-1.3m0,0l2.7,-2m0,0l2.6,-2.3m0,0l2.8,-3m0,0l2.3,-3.4m0,0l2.9,-5.5m0,0l2.5,-6.9m0,0l1.6,-5.9m40.2,0l2.5,5.9m0,0l2.8,4.2m0,0l2.4,2.6m0,0l2.8,1.9m0,0l2.5,.9m0,0l2.7,.5m0,0h2.6m0,0l2.6,-.5m0,0l2.8,-.7m0,0l2.3,-1.1m0,0l2.9,-1.5m0,0l2.5,-1.8m0,0l2.6,-2.1m0,0l2.5,-2.4m0,0l2.8,-3m0,0l1,-1.3" class="gc_232"/>
<path d="M736.5,901.3l-2.9,-5.4" class="gd_232"/>
<path d="M732.7,894.3l2.2,1.8l-1.2,-.1l-.7,1.1Z" class="g1_232"/>
<path d="M688.4,910.1l4.1,-13.8" class="gd_232"/>
<path d="M693.1,894.5l-1.8,2.2l1.2,-.3l.8,.9Z" class="g1_232"/>
<path d="M692.5,917.4l5.2,-21.3" class="gd_232"/>
<path d="M698.2,894.3l-1.7,2.2l1.2,-.3l.8,.9Z" class="g1_232"/>
<path d="M734.4,909.7L729.8,896" class="gd_232"/>
<path d="M729.1,894.3l1.9,2.1l-1.2,-.2l-.8,.9Z" class="g1_232"/>
<path d="M728.9,917.4l-5.2,-21.3" class="gd_232"/>
<path d="M723.2,894.3l1.7,2.2l-1.1,-.3l-.9,.9Z" class="g1_232"/>
<path d="M741.9,803.2l-2.9,5.3" class="gd_232"/>
<path d="M738.1,810.1l2.2,-1.8l-1.2,.1l-.7,-1.1Z" class="g1_232"/>
<path d="M737.7,794.7L733,808.4" class="gd_232"/>
<path d="M732.4,810.1l1.9,-2.1l-1.2,.2l-.8,-.9Z" class="g1_232"/>
<path d="M732.2,787L727,808.3" class="gd_232"/>
<path d="M726.5,810.1l1.7,-2.2l-1.2,.3l-.8,-.9Z" class="g1_232"/>
<path d="M683.5,803.2l2.8,5.3" class="gd_232"/>
<path d="M687.2,810.1l-2.1,-1.8l1.2,.1l.6,-1.1Z" class="g1_232"/>
<path d="M686.4,794.7l4.6,13.7" class="gd_232"/>
<path d="M691.7,810.1l-2,-2.1l1.3,.2l.7,-.9Z" class="g1_232"/>
<path d="M691.8,787l5.2,21.3" class="gd_232"/>
<path d="M697.5,810.1l-1.7,-2.2l1.2,.3l.9,-.9Z" class="g1_232"/>
<path d="M685.8,901.6l2.3,-5.6" class="gd_232"/>
<path d="M688.9,894.3l-2,2l1.2,-.2l.7,1Z" class="g1_232"/>
<path d="M648.6,845.9l2.5,-.5m0,0l2.6,-.6m0,0l2.7,-.7m0,0l2.6,-.8m0,0l2.6,-.8m0,0l2.5,-1.1m0,0l2.8,-1.3m0,0l2.6,-1.5m0,0l2.7,-1.9m0,0l2.4,-2m0,0l2.7,-2.7m0,0l2.6,-3.4m0,0l2.8,-4.5m0,0L685,819m0,0l2.7,-7.9m49.9,0l2.3,4.1m0,0l2.8,3.1m0,0l2.5,2.1m0,0l2.7,1.4m0,0l2.6,.6m0,0l2.6,.1m0,0l2.8,-.3m0,0l2.3,-.6m0,0l2.9,-1.2m0,0l2.5,-1.5m0,0l2.6,-1.9m0,0l2.5,-2.2m0,0l2.8,-2.8" class="ge_232"/>
<path d="M648.6,845.9l2.5,-.5m0,0l2.6,-.6m0,0l2.7,-.7m0,0l2.6,-.8m0,0l2.6,-.8m0,0l2.5,-1.1m0,0l2.8,-1.3m0,0l2.6,-1.5m0,0l2.7,-1.9m0,0l2.4,-2m0,0l2.7,-2.7m0,0l2.6,-3.4m0,0l2.8,-4.5m0,0L685,819m0,0l2.7,-7.9m49.9,0l2.3,4.1m0,0l2.8,3.1m0,0l2.5,2.1m0,0l2.7,1.4m0,0l2.6,.6m0,0l2.6,.1m0,0l2.8,-.3m0,0l2.3,-.6m0,0l2.9,-1.2m0,0l2.5,-1.5m0,0l2.6,-1.9m0,0l2.5,-2.2m0,0l2.8,-2.8" class="gc_232"/>
<path d="M564.8,968.1h17M170,202.9h8.5" class="g4_232"/>
<path d="M364.8,193.1h7.7" class="gf_232"/>
<path d="M340,211.2h70.1" class="g4_232"/>
<path d="M365.1,213.1h7.8" class="gf_232"/>
<path clip-path="url(#c4_232)" d="M131.9,234.5h13.7m29.8,0h13.9m-69.6,18h71.7" class="g4_232"/>
<path d="M132.3,254.6H146m29.8,0h13.1" class="g4_232"/>
<path clip-path="url(#c5_232)" d="M237,341.5h75.1" class="g4_232"/>
<path d="M131.2,509.9h6.3m6.1,0H150m6.1,0h6.1m6.3,0h6.1m6.4,0h6.1m6.1,0h6.3m6.1,0H212m6.1,0h6.3m6.1,0h6.1m6.4,0h6.1m6.3,0h6.1m6.2,0H274m6.1,0h6.3m-155.2,-6l6.3,-.7m6.1,.7l6.4,-.7m6.1,.7l6.1,-.7m6.3,.7l6.1,-.7m6.4,.7l6.1,-.7m6.1,.7l6.3,-.7m6.1,.7l6.4,-.7m6.1,.7l6.3,-.7m6.1,.7l6.1,-.7m6.4,.7l6.1,-.7m6.3,.7l6.1,-.7m6.2,.7l6.3,-.7m6.1,.7l6.3,-.7M131.2,497.8l6.3,-1.2m6.1,1.2l6.4,-1.2m6.1,1.2l6.1,-1.2m6.3,1.2l6.1,-1.2m6.4,1.2l6.1,-1.2m6.1,1.2l6.3,-1.2m6.1,1.2l6.4,-1.2m6.1,1.2l6.3,-1.2m6.1,1.2l6.1,-1.2m6.4,1.2l6.1,-1.2m6.3,1.2l6.1,-1.2m6.2,1.2l6.3,-1.2m6.1,1.2l6.3,-1.2M131.2,491.8l6.3,-1.7m6.1,1.7l6.4,-1.7m6.1,1.7l6.1,-1.7m6.3,1.7l6.1,-1.7m6.4,1.7l6.1,-1.7m6.1,1.7l6.3,-1.7m6.1,1.7l6.4,-1.7m6.1,1.7l6.3,-1.7m6.1,1.7l6.1,-1.7m6.4,1.7l6.1,-1.7m6.3,1.7l6.1,-1.7m6.2,1.7l6.3,-1.7m6.1,1.7l6.3,-1.7M131.2,485.5l6.3,-1.9m6.1,1.9l6.4,-1.9m6.1,1.9l6.1,-1.9m6.3,1.9l6.1,-1.9m6.4,1.9l6.1,-1.9m6.1,1.9l6.3,-1.9m6.1,1.9l6.4,-1.9m6.1,1.9l6.3,-1.9m6.1,1.9l6.1,-1.9m6.4,1.9l6.1,-1.9m6.3,1.9l6.1,-1.9m6.2,1.9l6.3,-1.9m6.1,1.9l6.3,-1.9M131.2,479.2l6.3,-2.2m6.1,2.2L150,477m6.1,2.2l6.1,-2.2m6.3,2.2l6.1,-2.2m6.4,2.2l6.1,-2.2m6.1,2.2l6.3,-2.2m6.1,2.2L212,477m6.1,2.2l6.3,-2.2m6.1,2.2l6.1,-2.2m6.4,2.2l6.1,-2.2m6.3,2.2l6.1,-2.2m6.2,2.2L274,477m6.1,2.2l6.3,-2.2M131.2,472.7l6.3,-2m6.1,2l6.4,-2m6.1,2l6.1,-2m6.3,2l6.1,-2m6.4,2l6.1,-2m6.1,2l6.3,-2m6.1,2l6.4,-2m6.1,2l6.3,-2m6.1,2l6.1,-2m6.4,2l6.1,-2m6.3,2l6.1,-2m6.2,2l6.3,-2m6.1,2l6.3,-2M131.2,466.1l6.3,-1.6m6.1,1.6l6.4,-1.6m6.1,1.6l6.1,-1.6m6.3,1.6l6.1,-1.6m6.4,1.6l6.1,-1.6m6.1,1.6l6.3,-1.6m6.1,1.6l6.4,-1.6m6.1,1.6l6.3,-1.6m6.1,1.6l6.1,-1.6m6.4,1.6l6.1,-1.6m6.3,1.6l6.1,-1.6m6.2,1.6l6.3,-1.6m6.1,1.6l6.3,-1.6M131.2,459.6l6.3,-1.2m6.1,1.2l6.4,-1.2m6.1,1.2l6.1,-1.2m6.3,1.2l6.1,-1.2m6.4,1.2l6.1,-1.2m6.1,1.2l6.3,-1.2m6.1,1.2l6.4,-1.2m6.1,1.2l6.3,-1.2m6.1,1.2l6.1,-1.2m6.4,1.2l6.1,-1.2m6.3,1.2l6.1,-1.2m6.2,1.2l6.3,-1.2m6.1,1.2l6.3,-1.2M131.2,452.8l6.3,-.7m6.1,.7l6.4,-.7m6.1,.7l6.1,-.7m6.3,.7l6.1,-.7m6.4,.7l6.1,-.7m6.1,.7l6.3,-.7m6.1,.7l6.4,-.7m6.1,.7l6.3,-.7m6.1,.7l6.1,-.7m6.4,.7l6.1,-.7m6.3,.7l6.1,-.7m6.2,.7l6.3,-.7m6.1,.7l6.3,-.7M131.2,446.3h6.3m6.1,0H150m6.1,0h6.1m6.3,0h6.1m6.4,0h6.1m6.1,0h6.3m6.1,0H212m6.1,0h6.3m6.1,0h6.1m6.4,0h6.1m6.3,0h6.1m6.2,0H274m6.1,0h6.3m-155.2,-7l6.3,1m6.1,-1l6.4,1m6.1,-1l6.1,1m6.3,-1l6.1,1m6.4,-1l6.1,1m6.1,-1l6.3,1m6.1,-1l6.4,1m6.1,-1l6.3,1m6.1,-1l6.1,1m6.4,-1l6.1,1m6.3,-1l6.1,1m6.2,-1l6.3,1m6.1,-1l6.3,1M131.2,432.5l6.3,2m6.1,-2l6.4,2m6.1,-2l6.1,2m6.3,-2l6.1,2m6.4,-2l6.1,2m6.1,-2l6.3,2m6.1,-2l6.4,2m6.1,-2l6.3,2m6.1,-2l6.1,2m6.4,-2l6.1,2m6.3,-2l6.1,2m6.2,-2l6.3,2m6.1,-2l6.3,2m-155.2,-9l6.3,3.1m6.1,-3.1l6.4,3.1m6.1,-3.1l6.1,3.1m6.3,-3.1l6.1,3.1m6.4,-3.1l6.1,3.1m6.1,-3.1l6.3,3.1m6.1,-3.1l6.4,3.1m6.1,-3.1l6.3,3.1m6.1,-3.1l6.1,3.1m6.4,-3.1l6.1,3.1m6.3,-3.1l6.1,3.1m6.2,-3.1l6.3,3.1m6.1,-3.1l6.3,3.1M136.5,422.4l-4.3,-3.2m16.8,3.2l-4.3,-3.2m16.7,3.2l-4.5,-3.2m17,3.2l-4.6,-3.2m17,3.2l-4.5,-3.2m16.7,3.2l-4.3,-3.2m16.8,3.2l-4.3,-3.2m16.7,3.2l-4.3,-3.2m16.8,3.2l-4.6,-3.2m17,3.2l-4.5,-3.2m17,3.2l-4.6,-3.2m16.8,3.2l-4.3,-3.2m16.7,3.2l-4.3,-3.2M136,415.8l-3.3,-3.1m15.8,3.1l-3.3,-3.1m15.7,3.1l-3.3,-3.1m15.8,3.1l-3.3,-3.1m15.5,3.1l-3.3,-3.1m15.7,3.1l-3.3,-3.1m15.8,3.1l-3.3,-3.1m15.7,3.1l-3.3,-3.1m15.8,3.1l-3.3,-3.1m15.5,3.1l-3.3,-3.1m15.7,3.1l-3.3,-3.1m15.8,3.1l-3.3,-3.1m15.7,3.1l-3.3,-3.1" class="g8_232"/>
<path d="M134.8,420.6l5,3.4l5.1,2.9l5.1,2.4l5.1,1.9l5.3,2l5.1,1.4l5,1.2l5.1,1.2l5.1,1l5.3,.9l5.1,.8l5.1,.7l5,.5l5.1,.7l5.3,.5l5.1,.2l5.1,.5l5.1,.3l5,.4l5.4,.3l5,.2l5.1,.3h5.1l5.1,.2l5.3,.3H268l5,.2h5.1l5.1,.2M134.8,496.9l5,-1l5.1,-1.2l5.1,-1.2l5.1,-1.2l5.3,-1.5l5.1,-1.4l5,-1.4l5.1,-1.5l5.1,-1.4l5.3,-1.7l5.1,-1.5l5.1,-1.7l5,-1.7l5.1,-1.7l5.3,-1.4l5.1,-1.7l5.1,-1.7l5.1,-1.4l5,-1.7l5.4,-1.5l5,-1.4l5.1,-1.5l5.1,-1.2l5.1,-1.2l5.3,-1.2l5.1,-1.2l5,-1.2l5.1,-1l5.1,-.9M134.8,484.3l5,-1.7l5.1,-1.7l5.1,-1.4l5.1,-1.7l5.3,-1.7l5.1,-1.7l5,-1.4l5.1,-1.7l5.1,-1.4l5.3,-1.7l5.1,-1.5l5.1,-1.4l5,-1.3l5.1,-1.4l5.3,-1.2l5.1,-1.2l5.1,-1l5.1,-1.2l5,-1l5.4,-.7l5,-.9l5.1,-.8l5.1,-.7l5.1,-.7l5.3,-.7L268,452l5,-.5l5.1,-.5l5.1,-.5m-148.4,21l5,-1.4l5.1,-1.7l5.1,-1.5l5.1,-1.4l5.3,-1.2l5.1,-1.5l5,-1.2l5.1,-1.2l5.1,-1.2l5.3,-.9l5.1,-1l5.1,-1l5,-.7l5.1,-1l5.3,-.7l5.1,-.7l5.1,-.5l5.1,-.7l5,-.5l5.4,-.5l5,-.5l5.1,-.2l5.1,-.5l5.1,-.2l5.3,-.5l5.1,-.3l5,-.2l5.1,-.2l5.1,-.3M134.8,458.7l5,-.9l5.1,-1l5.1,-1l5.1,-.7l5.3,-.7l5.1,-.7l5,-.7l5.1,-.5l5.1,-.8l5.3,-.4l5.1,-.5l5.1,-.5l5,-.2l5.1,-.5l5.3,-.3l5.1,-.2l5.1,-.5l5.1,-.2h5l5.4,-.3l5,-.2l5.1,-.3h5.1l5.1,-.2l5.3,-.2H273l5.1,-.3h5.1M134.8,433.4l5,1.5l5.1,1.2l5.1,1.2l5.1,.9l5.3,1l5.1,.7l5,.5l5.1,.7l5.1,.5l5.3,.5l5.1,.5l5.1,.2l5,.5l5.1,.2l5.3,.3l5.1,.2l5.1,.3l5.1,.2h5l5.4,.3l5,.2h10.2l5.1,.2h5.3l5.1,.3h15.2" class="ga_232"/>
<path d="M127.4,497.6l-14,2.8" class="gg_232"/>
<path d="M127.5,497.7l-.4,1.1c0,0,1.7,-1.4,2.8,-1.6c-1.1,.2,-3.2,-.4,-3.2,-.4l.8,.9Z" class="g1_232"/>
<path d="M127.5,497.7l-.4,1.1c0,0,1.7,-1.4,2.8,-1.6c-1.1,.2,-3.2,-.4,-3.2,-.4l.8,.9Zm-.1,-13.1l-14,1.7" class="gg_232"/>
<path d="M127.4,484.6l-.4,1.2c0,0,1.8,-1.3,2.9,-1.5c-1.1,.2,-3.1,-.7,-3.1,-.7l.6,1Z" class="g1_232"/>
<path d="M127.4,484.6l-.4,1.2c0,0,1.8,-1.3,2.9,-1.5c-1.1,.2,-3.1,-.7,-3.1,-.7l.6,1Zm0,-14.4l-14,-1.1" class="gg_232"/>
<path d="M127.4,470.2l-.6,1c0,0,2,-.9,3.1,-.8c-1.1,-.1,-2.9,-1.3,-2.9,-1.3l.4,1.1Z" class="g1_232"/>
<path d="M127.4,470.2l-.6,1c0,0,2,-.9,3.1,-.8c-1.1,-.1,-2.9,-1.3,-2.9,-1.3l.4,1.1Zm0,-11.7l-14,-1" class="gg_232"/>
<path d="M127.4,458.5l-.6,1.1c0,0,2,-1,3.1,-.9c-1.1,-.1,-2.9,-1.3,-2.9,-1.3l.4,1.1Z" class="g1_232"/>
<path d="M127.4,458.5l-.6,1.1c0,0,2,-1,3.1,-.9c-1.1,-.1,-2.9,-1.3,-2.9,-1.3l.4,1.1Zm0,-25.8l-14,-1" class="gg_232"/>
<path d="M127.4,432.8l-.6,1c0,0,2,-.9,3.1,-.8c-1.1,-.1,-2.9,-1.3,-2.9,-1.3l.4,1.1Z" class="g1_232"/>
<path d="M127.4,432.8l-.6,1c0,0,2,-.9,3.1,-.8c-1.1,-.1,-2.9,-1.3,-2.9,-1.3l.4,1.1Zm0,-12.4l-14,-1.1" class="gg_232"/>
<path d="M127.4,420.4l-.6,1c0,0,2,-.9,3.1,-.8c-1.1,-.1,-2.9,-1.3,-2.9,-1.3l.4,1.1Z" class="g1_232"/>
<path d="M127.4,420.4l-.6,1c0,0,2,-.9,3.1,-.8c-1.1,-.1,-2.9,-1.3,-2.9,-1.3l.4,1.1Z" class="gg_232"/>
<path d="M115.8,510.1H295.4" class="g9_232"/>
<path fill-rule="evenodd" d="M295.4,510.1L294,508l5.6,2.1l-5.6,2.1Z" class="g1_232"/>
<path d="M134.6,527.2V400.7" class="g9_232"/>
<path fill-rule="evenodd" d="M134.6,400.7l-2.1,1.4l2.1,-5.6l2.1,5.6Z" class="g1_232"/>
<path d="M283,507.7v4.8m-49.5,-4.8v4.8m-49.4,-4.8v4.8M132.2,414.4H137m-4.8,31.8H137m-4.8,32H137m-21.2,31.9H295.4M134.6,527.2V400.7" class="g8_232"/>
<path d="M93.4,659.8h19.4m19.7,0h24.6m47.5,0h17.8" class="g4_232"/>
<path clip-path="url(#c6_232)" d="M273.5,711.7H376.1" class="g4_232"/>
<path d="M101.2,777.9H216" class="g4_232"/>
<path d="M103.7,808.5H238.2c3.3,0,6.1,2.7,6.1,6.1v84c0,3.4,-2.8,6.1,-6.1,6.1H103.7c-3.4,0,-6.1,-2.7,-6.1,-6.1v-84c0,-3.4,2.7,-6.1,6.1,-6.1Z" class="gh_232"/>
<path d="M231.9,902.4v2.3" class="g8_232"/>
<path d="M111.1,894c0,.9,-.7,1.6,-1.6,1.6c-.8,0,-1.5,-.7,-1.5,-1.6c0,-.8,.7,-1.5,1.5,-1.5c.9,0,1.6,.7,1.6,1.5Z" class="g1_232"/>
<path d="M123.1,882.8c0,.9,-.7,1.6,-1.5,1.6c-.9,0,-1.6,-.7,-1.6,-1.6c0,-.8,.7,-1.5,1.6,-1.5c.8,0,1.5,.7,1.5,1.5Z" class="g1_232"/>
<path d="M135,869.6c0,.9,-.7,1.6,-1.5,1.6c-.8,0,-1.5,-.7,-1.5,-1.6c0,-.8,.7,-1.5,1.5,-1.5c.8,0,1.5,.7,1.5,1.5Z" class="g1_232"/>
<path d="M147.3,852.5c0,.8,-.7,1.5,-1.6,1.5c-.8,0,-1.5,-.7,-1.5,-1.5c0,-.9,.7,-1.6,1.5,-1.6c.9,0,1.6,.7,1.6,1.6Z" class="g1_232"/>
<path d="M159.1,839.8c0,.9,-.7,1.6,-1.5,1.6c-.9,0,-1.6,-.7,-1.6,-1.6c0,-.8,.7,-1.5,1.6,-1.5c.8,0,1.5,.7,1.5,1.5Z" class="g1_232"/>
<path d="M171.3,830.3c0,.8,-.7,1.5,-1.5,1.5c-.9,0,-1.5,-.7,-1.5,-1.5c0,-.8,.6,-1.5,1.5,-1.5c.8,0,1.5,.7,1.5,1.5Z" class="g1_232"/>
<path d="M183.1,823.7c0,.8,-.7,1.5,-1.5,1.5c-.8,0,-1.5,-.7,-1.5,-1.5c0,-.9,.7,-1.6,1.5,-1.6c.8,0,1.5,.7,1.5,1.6Z" class="g1_232"/>
<path d="M195.4,819.5c0,.9,-.7,1.5,-1.6,1.5c-.8,0,-1.5,-.6,-1.5,-1.5c0,-.8,.7,-1.5,1.5,-1.5c.9,0,1.6,.7,1.6,1.5Z" class="g1_232"/>
<path d="M207.6,816.2c0,.9,-.7,1.5,-1.5,1.5c-.9,0,-1.6,-.6,-1.6,-1.5c0,-.8,.7,-1.5,1.6,-1.5c.8,0,1.5,.7,1.5,1.5Z" class="g1_232"/>
<path d="M219.1,813.7c0,.8,-.7,1.5,-1.6,1.5c-.8,0,-1.5,-.7,-1.5,-1.5c0,-.9,.7,-1.5,1.5,-1.5c.9,0,1.6,.6,1.6,1.5Z" class="g1_232"/>
<path d="M231.3,814.1c0,.8,-.7,1.5,-1.6,1.5c-.8,0,-1.5,-.7,-1.5,-1.5c0,-.9,.7,-1.6,1.5,-1.6c.9,0,1.6,.7,1.6,1.6Z" class="g1_232"/>
<path d="M97.3,892.1c66,-7.4,84.3,-32.4,104.6,-83.8M97.3,892.1c10.3,-.8,25.6,-4.3,49.6,-37.6c23,-31.8,33.6,-39.6,97.2,-38.8" class="gi_232"/>
<path d="M109.5,808.1v96.3" class="gj_232"/>
<path d="M144,961.2h14.1m61.4,0h14.1" class="g4_232"/>
</svg>