<?xml version="1.0" encoding="UTF-8" standalone="no"?>
<!DOCTYPE svg PUBLIC "-//W3C//DTD SVG 1.1//EN"
"http://www.w3.org/Graphics/SVG/1.1/DTD/svg11.dtd">
<svg viewBox="0 0 931 1096" version="1.1" xmlns="http://www.w3.org/2000/svg" xmlns:xlink="http://www.w3.org/1999/xlink">
<defs>
<clipPath id="c0_442"><path d="M78.7,705.2v-16h98.6v16Z"/></clipPath>
<clipPath id="c1_442"><path d="M539.3,693.1V536.4H741V693.1Z"/></clipPath>
<style type="text/css"><![CDATA[
.g0_442{
fill: none;
stroke: #00AEEF;
stroke-width: 0.763;
stroke-miterlimit: 10;
}
.g1_442{
fill: none;
stroke: #241F1F;
stroke-width: 0.687;
stroke-miterlimit: 10;
}
.g2_442{
fill: #E8F6FE;
}
.g3_442{
fill: none;
stroke: #241F1F;
stroke-width: 0.763;
stroke-miterlimit: 10;
}
.g4_442{
fill: none;
stroke: #89898B;
stroke-width: 0.534;
stroke-miterlimit: 3;
}
.g5_442{
fill: #FFF;
}
.g6_442{
fill: none;
stroke: #EE008C;
stroke-width: 0.916;
stroke-linejoin: round;
}
.g7_442{
fill: #241F1F;
}
.g8_442{
fill: none;
stroke: #241F1F;
stroke-width: 0.611;
stroke-miterlimit: 3;
}
.g9_442{
fill: none;
stroke: #FFF;
stroke-width: 1.526;
}
]]></style>
</defs>
<path d="M53.5,511H420.2M53.5,657.6H420.2" class="g0_442"/>
<path clip-path="url(#c0_442)" d="M167.4,689.6h10.3" class="g1_442"/>
<path d="M107.8,886h52.4v27.5H107.8Zm52.4,0h73.4v27.5H160.2Zm73.4,0h4.6v27.5h-4.6Zm4.6,0h54.3v27.5H238.2Zm54.3,0h73.4v27.5H292.5Z" class="g2_442"/>
<path d="M160.2,913.2V886.4m0,45.9V913.9m73.4,18.4V913.9m4.6,18.4V913.9m54.3,18.4V913.9M160.2,950.6V932.3m73.4,18.3V932.3m4.6,18.3V932.3m54.3,18.3V932.3M160.2,968.9V950.6m73.4,18.3V950.6m4.6,18.3V950.6m54.3,18.3V950.6M160.2,987.3V968.9m73.4,18.4V968.9m4.6,18.4V968.9m54.3,18.4V968.9m-132.3,36.7V987.3m73.4,18.3V987.3m4.6,18.3V987.3m54.3,18.3V987.3m-132.3,39.3v-21m73.4,21v-21m4.6,21v-21m54.3,21v-21m0,-92.4V886.4m-58.9,26.8V886.4m4.6,26.8V886.4M107.8,932.3V913.9m258.1,18.4V913.9M107.8,950.6V932.3m258.1,18.3V932.3M107.8,968.9V950.6m258.1,18.3V950.6M107.8,987.3V968.9m258.1,18.4V968.9m-258.1,36.7V987.3m258.1,18.3V987.3M107.4,886h52.8m-52.4,27.2V886.4m52.4,-.4h73.4m0,0h4.6m0,0h54.3m0,0h73.7m-.3,27.2V886.4M107.4,913.5h52.8m0,0h73.4m0,0h4.6m0,0h54.3m0,0h73.7M107.8,1026.6v-21m258.1,21v-21M107.4,1027h52.8m0,0h73.4m0,0h4.6m0,0h54.3m0,0h73.7" class="g3_442"/>
<path d="M495,187.7h55v27.5H495Zm0,27.5h55v27.5H495Z" class="g2_442"/>
<path d="M550,214.8V188.1m33.6,26.7V188.1m33.6,26.7V188.1m33.6,26.7V188.1m33.7,26.7V188.1m33.6,26.7V188.1m33.6,26.7V188.1M495,242.3V215.6m55,26.7V215.6m33.6,26.7V215.6m33.6,26.7V215.6m33.6,26.7V215.6m33.7,26.7V215.6m33.6,26.7V215.6m33.6,26.7V215.6m33.6,26.7V215.6M494.6,242.7H550m0,0h33.6m0,0h33.6m0,0h33.6m0,0h33.7m0,0h33.6m0,0h33.6m0,0h34m-291.1,-55H550m-55,27.1V188.1m55,-.4h33.6m0,0h33.6m0,0h33.6m0,0h33.7m0,0h33.6m0,0h33.6m0,0h34m-.4,27.1V188.1M494.6,215.2H550m0,0h33.6m0,0h33.6m0,0h33.6m0,0h33.7m0,0h33.6m0,0h33.6m0,0h34" class="g3_442"/>
<path d="M685.7,690.6V544" class="g4_442"/>
<path fill-rule="evenodd" d="M678.6,651.9h13.8V638.2H678.6v13.7Z" class="g5_442"/>
<path d="M575.8,599c14.1,-14.9,26.7,-30.9,45,-30.9c33.6,0,64.5,82.4,101.2,111.5" class="g6_442"/>
<path d="M575.8,544H740.7M594.1,690.6V544m18.3,146.6V544m18.3,146.6V544m18.4,146.6V544m18.3,146.6V544M704,690.6V544m18.3,146.6V544m18.4,146.6V544M575.8,617.3H740.7M575.8,599H740.7M575.8,580.7H740.7M575.8,562.4H740.7M575.8,654H740.7M575.8,672.3H740.7M575.8,690.6H740.7" class="g4_442"/>
<path d="M545.6,569h27.9V555.2H545.6V569Z" class="g5_442"/>
<path d="M539.3,678.9h34.2V665.2H539.3v13.7Z" class="g5_442"/>
<path d="M642,651.9h13.7V638.2H642v13.7Z" class="g5_442"/>
<path d="M715.2,651.9H729V638.2H715.2v13.7Z" class="g5_442"/>
<path d="M547.1,605.6h26.4V591.9H547.1v13.7Z" class="g5_442"/>
<path d="M605.3,651.9h13.8V638.2H605.3v13.7Z" class="g5_442"/>
<path fill-rule="evenodd" d="M575.8,549l-2.5,1.6l2.5,-6.5l2.4,6.5Z" class="g7_442"/>
<path d="M575.8,690.6V549" class="g8_442"/>
<path fill-rule="evenodd" d="M736.1,635.6l-1.6,-2.4l6.5,2.4l-6.5,2.5Z" class="g7_442"/>
<path d="M575.8,635.6H736.1" class="g8_442"/>
<path clip-path="url(#c1_442)" d="M575.7,693.3H740.5" class="g9_442"/>
<path d="M601.5,902.5c8.8,0,16.7,-.5,24.1,-10.4c20.7,-27.5,32.9,-88.4,49.1,-88.4c16.6,0,30.6,72.6,36.8,98.8" class="g6_442"/>
<path d="M601.5,795.5H729.8v107H601.5Zm0,15.3H729.8M601.5,826.1H729.8M601.5,841.4H729.8M601.5,856.7H729.8M601.5,871.9H729.8M601.5,887.2H729.8m-110,-91.7v107m18.3,-107v107m18.4,-107v107m18.3,-107v107m18.3,-107v107m18.4,-107v107" class="g4_442"/>
<path d="M601.5,902.5V800.3" class="g8_442"/>
<path d="M601.5,800.3l-2.5,1.6l2.5,-6.5l2.4,6.5Z" class="g7_442"/>
<path d="M601.5,902.5H725" class="g8_442"/>
<path d="M725,902.5L723.4,900l6.5,2.5l-6.5,2.4Z" class="g7_442"/>
</svg>