<?xml version="1.0" encoding="UTF-8" standalone="no"?>
<!DOCTYPE svg PUBLIC "-//W3C//DTD SVG 1.1//EN"
"http://www.w3.org/Graphics/SVG/1.1/DTD/svg11.dtd">
<svg viewBox="0 0 931 1096" version="1.1" xmlns="http://www.w3.org/2000/svg" xmlns:xlink="http://www.w3.org/1999/xlink">
<defs>
<clipPath id="c0_383"><path d="M564.5,736.4v-32h91.7v32Z"/></clipPath>
<clipPath id="c1_383"><path d="M558.4,822V789.9H662.3V822Z"/></clipPath>
<style type="text/css"><![CDATA[
.g0_383{
fill: none;
stroke: #241F1F;
stroke-width: 0.534;
stroke-miterlimit: 10;
}
.g1_383{
fill: #FFF;
}
.g2_383{
fill: none;
stroke: #00AEEF;
stroke-width: 1.145;
}
.g3_383{
fill: none;
stroke: #00AEEF;
stroke-width: 0.763;
}
.g4_383{
fill: none;
stroke: #241F1F;
stroke-width: 0.763;
stroke-miterlimit: 10;
}
.g5_383{
fill: none;
stroke: #EE008C;
stroke-width: 1.069;
stroke-linejoin: round;
}
.g6_383{
fill: none;
stroke: #8EC967;
stroke-width: 1.069;
stroke-linejoin: round;
}
.g7_383{
fill: none;
stroke: #A753A1;
stroke-width: 1.069;
stroke-linejoin: round;
}
.g8_383{
fill: none;
stroke: #00AEEF;
stroke-width: 1.069;
stroke-linejoin: round;
}
.g9_383{
fill: none;
stroke: #F9951B;
stroke-width: 1.069;
stroke-linejoin: round;
}
.ga_383{
fill: none;
stroke: #241F1F;
stroke-width: 0.611;
stroke-miterlimit: 3;
}
.gb_383{
fill: #241F1F;
}
.gc_383{
fill: none;
stroke: #241F1F;
stroke-width: 1.069;
stroke-linejoin: round;
}
.gd_383{
fill: none;
stroke: #241F1F;
stroke-width: 0.432;
stroke-miterlimit: 3;
}
]]></style>
</defs>
<path d="M650.3,123.1h5.4M447.1,141.4h5.4m229.7,18.4h5.4" class="g0_383"/>
<path d="M345.7,356.2c0,0,-3.1,0,-3.1,3.1v93.9c0,0,0,3.1,3.1,3.1H875.1c0,0,3,0,3,-3.1V359.3c0,0,0,-3.1,-3,-3.1Z" class="g1_383"/>
<path d="M358.8,365.6c0,0,-1.5,0,-1.5,1.5v14.1c0,0,0,1.5,1.5,1.5H373c0,0,1.5,0,1.5,-1.5V367.1c0,0,0,-1.5,-1.5,-1.5H358.8Z" class="g2_383"/>
<path d="M345.7,356.2c0,0,-3.1,0,-3.1,3.1v93.9c0,0,0,3.1,3.1,3.1H875.1c0,0,3,0,3,-3.1V359.3c0,0,0,-3.1,-3,-3.1H345.7Z" class="g3_383"/>
<path d="M342.5,511.1h5.4" class="g0_383"/>
<path clip-path="url(#c0_383)" d="M564.9,720.6h20.5m59,0h12.2" class="g4_383"/>
<path clip-path="url(#c1_383)" d="M558.8,806.1h20.5m71.2,0h12.2" class="g4_383"/>
<path d="M506.1,1015.4h20.5m14.4,0h41.7m32.4,0h65.5" class="g4_383"/>
<path d="M119.9,456.4c15.3,-69.9,35.3,-76.2,50.5,-76.2c23,0,34.8,-6,47.6,-62.7" class="g5_383"/>
<path d="M119.9,479.4c15.3,-70,35.3,-76.3,50.5,-76.3c23,0,34.8,-6,47.6,-62.7" class="g6_383"/>
<path d="M122.9,489.8C137.7,431.5,156.1,426,170.4,426c23,0,34.8,-6,47.6,-62.7" class="g7_383"/>
<path d="M119.9,433.5c15.3,-70,35.3,-76.2,50.5,-76.2c23,0,34.8,-6,47.6,-62.8" class="g8_383"/>
<path d="M120,410.6c15.2,-70,35.2,-76.2,50.4,-76.2c20.6,0,32.2,-6.4,43.6,-48.2" class="g9_383"/>
<path d="M108.5,380.2H229.2" class="ga_383"/>
<path fill-rule="evenodd" d="M229.2,380.2l-1.7,-2.4l6.6,2.4l-6.6,2.4Z" class="gb_383"/>
<path d="M170.4,490.2V279.4" class="ga_383"/>
<path fill-rule="evenodd" d="M170.4,279.4l-2.5,1.6l2.5,-6.5l2.4,6.5Z" class="gb_383"/>
<path d="M120,387.7c15.2,-70,35.2,-76.2,50.4,-76.2c17.9,0,29,-3.7,39.1,-32.1m47.6,5.3H246.4" class="gc_383"/>
<path d="M257.1,316H246.4" class="g9_383"/>
<path d="M257.1,346.6H246.4" class="g8_383"/>
<path d="M257.1,377.1H246.4" class="g5_383"/>
<path d="M257.1,407.7H246.4" class="g6_383"/>
<path d="M257.1,438.3H246.4" class="g7_383"/>
<path d="M285.5,376.3h10.4m-10.4,61.6h10.4M285.5,406.8h10.4M285.5,346.2h10.4m-10.4,-31h10.4m-10.4,-31h10.4" class="gd_383"/>
</svg>