<?xml version="1.0" encoding="UTF-8" standalone="no"?>
<!DOCTYPE svg PUBLIC "-//W3C//DTD SVG 1.1//EN"
"http://www.w3.org/Graphics/SVG/1.1/DTD/svg11.dtd">
<svg viewBox="0 0 811 1017" version="1.1" xmlns="http://www.w3.org/2000/svg" xmlns:xlink="http://www.w3.org/1999/xlink">
<defs>
<clipPath id="c0_371"><path d="M144.7,839.6V466.8H723.4V839.6Z"/></clipPath>
<style type="text/css"><![CDATA[
.g0_371{
fill: #FFFFFF;
}
.g1_371{
fill: #231F20;
}
.g2_371{
fill: #5A5758;
}
.g3_371{
fill: #EFEFEF;
}
.g4_371{
fill: #DFDFDF;
}
.g5_371{
fill: #EC2224;
}
.g6_371{
fill: #23ACDC;
}
.g7_371{
fill: #C9C9C8;
}
.g8_371{
fill: #ED3454;
}
.g9_371{
fill: #961E47;
}
]]></style>
</defs>
<path d="M144.7,839.6H723.4V466.8H144.7Z" class="g0_371"/>
<path d="M335.7,496.8v-2.7c0,-1.6,-1.3,-2.9,-3,-2.9H285.9c-1.6,0,-3,1.3,-3,2.9v2.7h52.8Z" class="g1_371"/>
<path d="M294.9,496.8h-12v-2.7c0,-1.6,1.4,-2.9,3,-2.9h12.2l-3.2,5.6Z" class="g2_371"/>
<path d="M283.7,533.9h51.2V497.6H283.7Z" class="g0_371"/>
<path d="M334,498.4v34.7H284.6V498.4H334m1.7,-1.6H282.9v37.9h52.8Z" class="g3_371"/>
<path d="M333.2,499.2v33H285.4v-33h47.8m.4,-.4H285v33.8h48.6Z" class="g4_371"/>
<path d="M287.9,494c0,.4,-.3,.8,-.8,.8c-.5,0,-.9,-.4,-.9,-.8c0,-.5,.4,-.9,.9,-.9c.5,0,.8,.4,.8,.9Z" class="g5_371"/>
<path d="M290.5,494c0,.4,-.4,.8,-.9,.8c-.4,0,-.8,-.4,-.8,-.8c0,-.5,.4,-.9,.8,-.9c.5,0,.9,.4,.9,.9Z" class="g6_371"/>
<path d="M293,494c0,.4,-.4,.8,-.8,.8c-.5,0,-.9,-.4,-.9,-.8c0,-.5,.4,-.9,.9,-.9c.4,0,.8,.4,.8,.9Z" class="g0_371"/>
<path d="M327.1,495.5H300.5c-.8,0,-1.5,-.7,-1.5,-1.5c0,-.8,.7,-1.5,1.5,-1.5h26.6c.8,0,1.5,.6,1.5,1.5c-.1,.8,-.7,1.5,-1.5,1.5Z" class="g0_371"/>
<path d="M301.5,493.3l.2,.8c.1,.1,.1,.3,.1,.5h.1c0,-.2,0,-.4,.1,-.5l.2,-.8h.3l.2,.8c.1,.2,.1,.3,.1,.5h.1c0,-.2,0,-.3,.1,-.5l.2,-.8h.3l-.5,1.5h-.3l-.2,-.7c-.1,-.1,-.1,-.3,-.1,-.5c-.1,.2,-.1,.4,-.2,.5l-.2,.7h-.3l-.4,-1.5h.2Z" class="g1_371"/>
<path d="M303.9,493.3l.2,.8c0,.1,.1,.3,.1,.5c.1,-.2,.1,-.4,.2,-.5l.2,-.8h.2l.3,.8c0,.2,.1,.3,.1,.5c0,-.2,.1,-.3,.1,-.5l.2,-.8h.3l-.5,1.5h-.2l-.2,-.7c-.1,-.2,-.1,-.3,-.2,-.5c0,.2,-.1,.3,-.1,.5l-.3,.7h-.2l-.5,-1.5h.3Z" class="g1_371"/>
<path d="M306.3,493.3l.2,.8c0,.1,.1,.3,.1,.5c0,-.2,.1,-.4,.1,-.5l.3,-.8h.2l.2,.8c.1,.2,.1,.3,.2,.5c0,-.2,.1,-.3,.1,-.5l.2,-.8h.3l-.5,1.5h-.2l-.3,-.7c0,-.1,-.1,-.3,-.1,-.5c0,.2,-.1,.4,-.1,.5l-.3,.7h-.2l-.5,-1.5h.3Z" class="g1_371"/>
<path d="M308.3,494.7l.2,-.2l.2,.2l-.2,.2l-.2,-.2Z" class="g1_371"/>
<path d="M330.5,494.2h2.3v-.4h-2.3Z" class="g0_371"/>
<path d="M331.5,493.1l.3,-.3l1.3,1.2l-1.3,1.2l-.3,-.3l1,-.9l-1,-.9Z" class="g0_371"/>
<path d="M327.2,493.5l-.8,1l-.8,-1h1.6Z" class="g7_371"/>
<path d="M311.5,525.6h2.9v-7.7h-2.9Z" class="g8_371"/>
<path d="M316.2,525.6h2.9V521h-2.9Z" class="g6_371"/>
<path d="M306.8,525.6h2.8v-12h-2.8Z" class="g6_371"/>
<path d="M302.1,525.6h2.8V505.8h-2.8Z" class="g8_371"/>
<path d="M297.3,525.6h2.9V509.8h-2.9Z" class="g6_371"/>
<path d="M292.6,525.7h2.9v-9.5h-2.9Z" class="g8_371"/>
<path d="M324.8,511.6l-6.9,-1.2l1.2,6.8l2,-1.9l4.3,4.3l1.8,-1.9l-4.3,-4.3l1.9,-1.8Z" class="g6_371"/>
<path clip-path="url(#c0_371)" d="M175.1,516.9C169.7,515,168,516,168,512.5c0,-.2,0,-.5,0,-.8h.3c3.6,.2,7.2,.5,8,-.1c1.2,-.8,-3.1,-2.2,-3.1,-13.6c0,-5.7,-3.8,-9.8,-9.6,-9.8h-.2q-.1,0,-.1,0H163c-5.7,0,-9.5,4.1,-9.5,9.8c0,11.4,-4.4,12.8,-3.1,13.6c.8,.6,4.3,.3,8,.1h.2c.1,.3,.1,.6,.1,.8c0,3.5,-1.7,2.5,-7.1,4.4c-5.4,2,-7,4,-7,5.3c0,1.4,0,8.9,0,8.9H182c0,0,0,-7.5,0,-8.9c0,-1.3,-1.6,-3.3,-6.9,-5.3Z" class="g1_371"/>
<path d="M642,503.1h27.5v-5.2c0,-1.7,.9,-3.2,2.2,-4.2v-.4c0,-.7,0,-1.3,.2,-1.9H642c-3.3,0,-5.9,2.6,-5.9,5.9c0,3.2,2.6,5.8,5.9,5.8Zm10.9,-7.3c.8,0,1.5,.6,1.5,1.5c0,.8,-.7,1.4,-1.5,1.4c-.8,0,-1.5,-.6,-1.5,-1.4c0,-.9,.7,-1.5,1.5,-1.5Zm-4.6,0c.8,0,1.5,.6,1.5,1.5c0,.8,-.7,1.4,-1.5,1.4c-.8,0,-1.5,-.6,-1.5,-1.4c0,-.9,.7,-1.5,1.5,-1.5Zm-6,-1.4c1.6,0,2.9,1.3,2.9,2.9c0,1.5,-1.3,2.8,-2.9,2.8c-1.6,0,-2.9,-1.3,-2.9,-2.8c0,-1.6,1.3,-2.9,2.9,-2.9Z" class="g1_371"/>
<path d="M653.6,530.1c0,-.7,.1,-1.3,.3,-1.9h-14c-1.1,0,-1.9,.8,-1.9,1.9c0,1.1,.8,1.9,1.9,1.9h14c-.2,-.6,-.3,-1.2,-.3,-1.9Z" class="g1_371"/>
<path d="M683.7,530.1c0,-1.1,-.9,-1.9,-1.9,-1.9H667.6c.2,.6,.3,1.2,.3,1.9c0,.7,-.1,1.3,-.3,1.9h14.2c1,0,1.9,-.8,1.9,-1.9Z" class="g1_371"/>
<path d="M674.6,510.7h15.2c1.1,0,1.9,-.8,1.9,-1.9V497.9c0,-1.1,-.8,-2,-1.9,-2h-.1v-2.6c0,-4.1,-3.4,-7.5,-7.5,-7.5c-4.1,0,-7.5,3.4,-7.5,7.5v2.6h-.1c-1.1,0,-2,.9,-2,2v10.9c0,1.1,.9,1.9,2,1.9Zm8.7,-6.9c-.1,.1,-.2,.2,-.2,.4c0,.8,0,1.6,0,2.4c.1,.3,-.1,.7,-.4,.8c-.7,.4,-1.4,-.1,-1.4,-.8c0,-.8,0,-1.6,0,-2.4c0,-.1,0,-.2,-.2,-.3c-.7,-.6,-.9,-1.5,-.6,-2.3c.4,-.8,1.2,-1.2,2,-1.1c.9,.2,1.6,.9,1.6,1.8c0,.6,-.3,1.2,-.8,1.5ZM678,493.3c0,-2.3,1.9,-4.2,4.2,-4.2c2.4,0,4.2,1.9,4.2,4.2v2.6H678v-2.6Z" class="g1_371"/>
<path d="M642,518.7h16.8v7.4c-1.5,.7,-2.5,2.2,-2.5,4c0,2.4,2,4.4,4.5,4.4c2.4,0,4.4,-1.9,4.4,-4.4c0,-1.8,-1,-3.3,-2.5,-4v-7.4h18c2.9,0,5.3,-2.1,5.8,-4.9H674.6c-2.8,0,-5.1,-2.2,-5.1,-5v-1.9H642c-3.3,0,-5.9,2.7,-5.9,5.9c0,3.3,2.6,5.9,5.9,5.9Zm10.9,-7.4c.8,0,1.5,.7,1.5,1.5c0,.8,-.7,1.5,-1.5,1.5c-.8,0,-1.5,-.7,-1.5,-1.5c0,-.8,.7,-1.5,1.5,-1.5Zm-4.6,0c.8,0,1.5,.7,1.5,1.5c0,.8,-.7,1.5,-1.5,1.5c-.8,0,-1.5,-.7,-1.5,-1.5c0,-.8,.7,-1.5,1.5,-1.5Zm-6,-1.4c1.6,0,2.9,1.3,2.9,2.9c0,1.6,-1.3,2.9,-2.9,2.9c-1.6,0,-2.9,-1.3,-2.9,-2.9c0,-1.6,1.3,-2.9,2.9,-2.9Z" class="g1_371"/>
<path d="M711.5,537.4c-.3,-.1,-.6,-.1,-.7,0c-2.9,2.2,-7.7,3.4,-13.2,3.4c-5.4,0,-10.3,-1.2,-13.2,-3.4c-.3,-.1,-.6,-.1,-.7,0c-.3,.2,-.4,.4,-.4,.6v2.1c0,3.6,6.3,6.5,14.3,6.5c8,0,14.3,-2.9,14.3,-6.5V538c0,-.3,-.1,-.6,-.4,-.6Z" class="g1_371"/>
<path d="M711.5,522.9c-.3,-.1,-.6,-.1,-.7,0c-2.9,2.2,-7.7,3.5,-13.2,3.5c-5.4,0,-10.3,-1.3,-13.2,-3.5c-.3,-.1,-.6,-.1,-.7,0c-.3,.2,-.4,.5,-.4,.6v2.1c0,3.6,6.3,6.5,14.3,6.5c8,0,14.3,-2.9,14.3,-6.5v-2.1c0,-.1,-.1,-.4,-.4,-.6Z" class="g1_371"/>
<path d="M697.6,525.1c8,0,14.3,-2.9,14.3,-6.5c0,-3.6,-6.3,-6.4,-14.3,-6.4c-8,0,-14.3,2.8,-14.3,6.4c0,3.6,6.3,6.5,14.3,6.5Z" class="g1_371"/>
<path d="M711.5,530.1c-.3,-.1,-.6,-.1,-.7,0c-2.9,2.1,-7.7,3.4,-13.2,3.4c-5.4,0,-10.3,-1.3,-13.2,-3.4c-.3,-.1,-.6,-.1,-.7,0c-.3,.1,-.4,.4,-.4,.6v2.1c0,3.6,6.3,6.5,14.3,6.5c8,0,14.3,-2.9,14.3,-6.5v-2.1c0,-.2,-.1,-.5,-.4,-.6Z" class="g1_371"/>
<path d="M469,501.6h27.5v-5.3c0,-1.7,.9,-3.2,2.2,-4.1v-.5c0,-.6,0,-1.3,.2,-1.9H469c-3.3,0,-5.9,2.6,-5.9,5.9c0,3.2,2.6,5.9,5.9,5.9Zm10.9,-7.4c.8,0,1.5,.7,1.5,1.5c0,.8,-.7,1.5,-1.5,1.5c-.8,0,-1.5,-.7,-1.5,-1.5c0,-.8,.7,-1.5,1.5,-1.5Zm-4.6,0c.9,0,1.5,.7,1.5,1.5c0,.8,-.6,1.5,-1.5,1.5c-.8,0,-1.5,-.7,-1.5,-1.5c0,-.8,.7,-1.5,1.5,-1.5Zm-6,-1.4c1.6,0,2.9,1.3,2.9,2.9c0,1.6,-1.3,2.8,-2.9,2.8c-1.6,0,-2.9,-1.2,-2.9,-2.8c0,-1.6,1.3,-2.9,2.9,-2.9Z" class="g9_371"/>
<path d="M480.6,528.5c0,-.6,.1,-1.3,.3,-1.9h-14c-1.1,0,-1.9,.9,-1.9,1.9c0,1.1,.8,1.9,1.9,1.9h14c-.2,-.6,-.3,-1.2,-.3,-1.9Z" class="g9_371"/>
<path d="M510.7,528.5c0,-1,-.9,-1.9,-1.9,-1.9H494.6c.2,.6,.3,1.3,.3,1.9c0,.7,-.1,1.3,-.3,1.9h14.2c1,0,1.9,-.8,1.9,-1.9Z" class="g9_371"/>
<path d="M501.6,509.2h15.2c1.1,0,1.9,-.9,1.9,-2V496.3c0,-1.1,-.8,-2,-1.9,-2h-.1v-2.6c0,-4.1,-3.4,-7.4,-7.5,-7.4c-4.1,0,-7.5,3.3,-7.5,7.4v2.6h-.1c-1.1,0,-2,.9,-2,2v10.9c0,1.1,.9,2,2,2Zm8.7,-7c-.1,.2,-.2,.3,-.2,.4c0,.8,0,1.6,0,2.4c.1,.4,-.1,.7,-.4,.8c-.7,.4,-1.4,-.1,-1.4,-.8c0,-.8,0,-1.6,0,-2.4c0,-.1,0,-.2,-.2,-.3c-.7,-.6,-.9,-1.5,-.6,-2.3c.4,-.8,1.2,-1.2,2,-1.1c.9,.2,1.6,1,1.6,1.9c0,.6,-.3,1.1,-.8,1.4ZM505,491.7c0,-2.3,1.9,-4.2,4.2,-4.2c2.4,0,4.2,1.9,4.2,4.2v2.6H505v-2.6Z" class="g9_371"/>
<path d="M469,517.1h16.8v7.4c-1.5,.7,-2.5,2.2,-2.5,4c0,2.5,2,4.5,4.5,4.5c2.4,0,4.4,-2,4.4,-4.5c0,-1.8,-1,-3.3,-2.5,-4v-7.4h18c2.9,0,5.3,-2.1,5.8,-4.9H501.6c-2.8,0,-5.1,-2.2,-5.1,-5v-1.9H469c-3.3,0,-5.9,2.7,-5.9,5.9c0,3.3,2.6,5.9,5.9,5.9Zm10.9,-7.4c.8,0,1.5,.7,1.5,1.5c0,.9,-.7,1.5,-1.5,1.5c-.8,0,-1.5,-.6,-1.5,-1.5c0,-.8,.7,-1.5,1.5,-1.5Zm-4.6,0c.9,0,1.5,.7,1.5,1.5c0,.9,-.6,1.5,-1.5,1.5c-.8,0,-1.5,-.6,-1.5,-1.5c0,-.8,.7,-1.5,1.5,-1.5Zm-6,-1.3c1.6,0,2.9,1.2,2.9,2.8c0,1.6,-1.3,2.9,-2.9,2.9c-1.6,0,-2.9,-1.3,-2.9,-2.9c0,-1.6,1.3,-2.8,2.9,-2.8Z" class="g9_371"/>
<path d="M538.5,535.8c-.3,-.1,-.6,-.1,-.7,0c-2.9,2.2,-7.7,3.5,-13.2,3.5c-5.4,0,-10.3,-1.3,-13.2,-3.5c-.3,-.1,-.6,-.1,-.7,0c-.3,.2,-.4,.5,-.4,.6v2.2c0,3.5,6.3,6.4,14.3,6.4c8,0,14.3,-2.9,14.3,-6.4v-2.2c0,-.3,-.1,-.6,-.4,-.6Z" class="g9_371"/>
<path d="M538.5,521.3c-.3,-.1,-.6,-.1,-.7,0c-2.9,2.2,-7.7,3.5,-13.2,3.5c-5.4,0,-10.3,-1.3,-13.2,-3.5c-.3,-.1,-.6,-.1,-.7,0c-.3,.2,-.4,.5,-.4,.6v2.2c0,3.6,6.3,6.4,14.3,6.4c8,0,14.3,-2.8,14.3,-6.4v-2.2c0,-.1,-.1,-.4,-.4,-.6Z" class="g9_371"/>
<path d="M524.6,523.5c8,0,14.3,-2.9,14.3,-6.5c0,-3.5,-6.3,-6.4,-14.3,-6.4c-8,0,-14.3,2.9,-14.3,6.4c0,3.6,6.3,6.5,14.3,6.5Z" class="g9_371"/>
<path d="M538.5,528.5c-.3,-.1,-.6,-.1,-.7,0c-2.9,2.2,-7.7,3.5,-13.2,3.5c-5.4,0,-10.3,-1.3,-13.2,-3.5c-.3,-.1,-.6,-.1,-.7,0c-.3,.2,-.4,.4,-.4,.6v2.1c0,3.6,6.3,6.5,14.3,6.5c8,0,14.3,-2.9,14.3,-6.5v-2.1c0,-.2,-.1,-.4,-.4,-.6Z" class="g9_371"/>
<path d="M164.2,547.6l-.3,90.6h.8l.2,-90.6Z" class="g1_371"/>
<path d="M314.1,546.5l-.7,284.2h.8l.7,-284.2Z" class="g1_371"/>
<path d="M671.8,550.5l-.7,284.2h.8l.7,-284.2Z" class="g1_371"/>
<path clip-path="url(#c0_371)" d="M510.1,555.5l-.7,284.1h.8l.7,-284.1Z" class="g1_371"/>
<path d="M164.2,588H306.9v-.8H164.2Z" class="g1_371"/>
<path d="M305.4,589.8l8.3,-2.2l-8.3,-2.2v4.4Z" class="g1_371"/>
<path d="M313.6,636.6H502.9v-.7l-189.3,-.1Z" class="g1_371"/>
<path d="M501.4,638.5l8.2,-2.2L501.4,634v4.5Z" class="g1_371"/>
<path d="M509.8,672.2l154.3,.1v-.8H509.8Z" class="g1_371"/>
<path d="M662.6,674.1l8.3,-2.2l-8.3,-2.2v4.4Z" class="g1_371"/>
<path d="M671.9,715.1H516.3v.8H671.9Z" class="g1_371"/>
<path d="M517.8,713.3l-8.2,2.2l8.2,2.2v-4.4Z" class="g1_371"/>
<path d="M509.4,760.8l-188.2,-.1v.8l188.2,.1Z" class="g1_371"/>
<path d="M322.7,758.9l-8.3,2.2l8.3,2.2v-4.4Z" class="g1_371"/>
</svg>