<?xml version="1.0" encoding="UTF-8" standalone="no"?>
<!DOCTYPE svg PUBLIC "-//W3C//DTD SVG 1.1//EN"
"http://www.w3.org/Graphics/SVG/1.1/DTD/svg11.dtd">
<svg viewBox="0 0 931 1096" version="1.1" xmlns="http://www.w3.org/2000/svg" xmlns:xlink="http://www.w3.org/1999/xlink">
<defs>
<clipPath id="c0_37"><path d="M106.4,349.6V91.5H320.3V349.6Z"/></clipPath>
<style type="text/css"><![CDATA[
.g0_37{
fill: none;
stroke: #00AEEF;
stroke-width: 1.145;
}
.g1_37{
fill: none;
stroke: #0079C2;
stroke-width: 0.763;
}
]]></style>
</defs>
<path d="M361.1,111.1c0,0,-1.5,0,-1.5,1.6v14.1c0,0,0,1.5,1.5,1.5h14.2c0,0,1.5,0,1.5,-1.5V112.7c0,0,0,-1.6,-1.5,-1.6H361.1Z" class="g0_37"/>
<path d="M345.7,97.9c0,0,-3.1,0,-3.1,3.1v82.7c0,0,0,3,3.1,3H875.1c0,0,3,0,3,-3V101c0,0,0,-3.1,-3,-3.1H345.7Z" class="g1_37"/>
<image clip-path="url(#c0_37)" preserveAspectRatio="none" x="106" y="92" width="214" height="258" xlink:href="img/1.png"/>
<path d="M364.2,524.5c0,0,-1.5,0,-1.5,1.6v14.1c0,0,0,1.5,1.5,1.5h14.1c0,0,1.6,0,1.6,-1.5V526.1c0,0,0,-1.6,-1.6,-1.6H364.2Zm0,327.8c0,0,-1.5,0,-1.5,1.5v14.1c0,0,0,1.5,1.5,1.5h14.1c0,0,1.6,0,1.6,-1.5V853.8c0,0,0,-1.5,-1.6,-1.5H364.2Zm0,107.7c0,0,-1.5,0,-1.5,1.5v14.1c0,0,0,1.5,1.5,1.5h14.1c0,0,1.6,0,1.6,-1.5V961.5c0,0,0,-1.5,-1.6,-1.5H364.2Z" class="g0_37"/>
</svg>