<?xml version="1.0" encoding="UTF-8" standalone="no"?>
<!DOCTYPE svg PUBLIC "-//W3C//DTD SVG 1.1//EN"
"http://www.w3.org/Graphics/SVG/1.1/DTD/svg11.dtd">
<svg viewBox="0 0 811 1017" version="1.1" xmlns="http://www.w3.org/2000/svg" xmlns:xlink="http://www.w3.org/1999/xlink">
<defs>
<style type="text/css"><![CDATA[
.g0_452{
fill: #70A6CC;
}
.g1_452{
fill: #FFFFFF;
}
.g2_452{
fill: #231F20;
}
.g3_452{
fill: #C4E0B0;
}
.g4_452{
fill: #EE2223;
}
]]></style>
</defs>
<path d="M142.4,654.5H710.7V633.2H142.4Z" class="g0_452"/>
<path d="M90.8,418.6H699.9V84.8H90.8Z" class="g1_452"/>
<path d="M555.5,126.2v.3H696.1v50.9H555.9V126.2h-.4v.3v-.3h-.4v51.6l.1,.3l.3,.1h141l.3,-.1l.1,-.3V126.2l-.1,-.3l-.3,-.1h-141l-.3,.1l-.1,.3h.4Z" class="g2_452"/>
<path d="M164,128.1v.4H302.4v50.9h-138V128.1H164v.4v-.4h-.4v51.7l.1,.3l.3,.1H302.8l.3,-.1l.1,-.3V128.1l-.1,-.2l-.3,-.2H164l-.3,.2l-.1,.2h.4Z" class="g2_452"/>
<path d="M364,178.8H490.6V127.1H364Z" class="g3_452"/>
<path d="M364,127.1v.4H490.2v50.9H364.3V127.1H364v.4v-.4h-.4v51.7l.1,.3l.3,.1H490.6l.3,-.1l.1,-.3V127.1l-.1,-.2l-.3,-.2H364l-.3,.2l-.1,.2h.4Z" class="g2_452"/>
<path d="M302.8,146.7l54.4,-.3v-.8l-54.4,.3Z" class="g2_452"/>
<path d="M355.7,148.2L364,146l-8.3,-2.2v4.4Z" class="g2_452"/>
<path d="M490.6,148.7l58.1,-.3v-.8l-58.1,.3Z" class="g2_452"/>
<path d="M547.2,150.2l8.3,-2.2l-8.3,-2.2v4.4Z" class="g2_452"/>
<path d="M322.6,176.4l29.3,-27.8l-1.9,-2l-29.2,27.9Z" class="g4_452"/>
<path d="M351.5,176L323.7,146.7l-2,1.9l27.9,29.3Z" class="g4_452"/>
<path d="M363.2,160.7l-52.6,.1v.7h52.6Z" class="g2_452"/>
<path d="M312.1,158.9l-8.2,2.3l8.2,2.2v-4.5Z" class="g2_452"/>
<path d="M558.5,280.8v.4H699.1V332H558.9V280.8h-.4v.4v-.4h-.4v51.6l.1,.3l.3,.1h141l.3,-.1l.1,-.3V280.8l-.1,-.3l-.3,-.1h-141l-.3,.1l-.1,.3h.4Z" class="g2_452"/>
<path d="M169.2,279v.4H307.7v50.9H169.6V279h-.4v.4V279h-.3v51.7l.1,.3l.2,.1H308.1l.2,-.1l.1,-.3V279l-.1,-.3l-.2,-.1H169.2l-.2,.1l-.1,.3h.3Z" class="g2_452"/>
<path d="M369.2,332.1H495.9V280.5H369.2Z" class="g3_452"/>
<path d="M369.2,280.5v.3H495.5v51H369.6V280.5h-.4v.3v-.3h-.4v51.6l.2,.3l.2,.1H495.9l.2,-.1l.2,-.3V280.5l-.2,-.3l-.2,-.1H369.2l-.2,.1l-.2,.3h.4Z" class="g2_452"/>
<path d="M308.1,297.6l54.4,-.3v-.8l-54.4,.3Z" class="g2_452"/>
<path d="M361,299.1l8.2,-2.2l-8.3,-2.2l.1,4.4Z" class="g2_452"/>
<path d="M368.5,311.6l-53.5,.1l.1,.7h53.4Z" class="g2_452"/>
<path d="M316.6,309.8l-8.3,2.3l8.3,2.2v-4.5Z" class="g2_452"/>
<path d="M496,298.1l55.5,-.3V297l-55.5,.3Z" class="g2_452"/>
<path d="M550,299.7l8.2,-2.3l-8.3,-2.2l.1,4.5Z" class="g2_452"/>
<path d="M557.5,312.1l-54.4,.1v.8l54.4,-.1Z" class="g2_452"/>
<path d="M504.6,310.3l-8.3,2.3l8.3,2.2v-4.5Z" class="g2_452"/>
<path d="M555.7,161l-58.1,.3v.8l58.1,-.3Z" class="g2_452"/>
<path d="M499.1,159.5l-8.3,2.3l8.3,2.1v-4.4Z" class="g2_452"/>
<path d="M353.7,214.4c-5.5,-8.2,-12.9,-16.7,-13.8,-28.1l-.5,.1c1,11.5,8.4,20.1,13.9,28.2l.4,-.2Z" class="g2_452"/>
<path d="M342.6,187.1l-3,-4.9l-2.7,5l5.7,-.1Z" class="g2_452"/>
<path d="M427.7,221.5c8.1,-.3,16.1,-4.4,23.9,-8.4c7.8,-4.1,15.4,-8.1,22.5,-8.6v-.4c-7.3,.4,-14.9,4.5,-22.7,8.6c-7.8,4,-15.7,8,-23.7,8.3v.5Z" class="g2_452"/>
<path d="M473.2,207.2l5,-2.7l-4.9,-3l-.1,5.7Z" class="g2_452"/>
<path d="M415.6,385.7c-11,-5.6,-16.2,-7.7,-23.7,-17.6l-.4,.3c7.6,9.9,12.9,12.2,23.9,17.7l.2,-.4Z" class="g2_452"/>
<path d="M394.5,367.2l-5.2,-2.3l.6,5.7l4.6,-3.4Z" class="g2_452"/>
<path d="M430.9,389.1c11.8,-10.5,20.4,-23.7,44.2,-27.4l-.1,-.4c-23.9,3.6,-32.7,17.1,-44.4,27.5l.3,.3Z" class="g2_452"/>
<path d="M474.6,364.5l4.5,-3.5l-5.3,-2.2l.8,5.7Z" class="g2_452"/>
<path d="M385.2,91.8c4.9,.4,9.7,.6,14.2,.6c24.1,0,43,-4.8,57.2,-4.8c7.2,0,13.1,1.2,17.9,4.8l.3,-.4c-5,-3.6,-11,-4.8,-18.2,-4.8c-14.3,0,-33.2,4.7,-57.2,4.7c-4.5,0,-9.3,-.1,-14.2,-.6v.5Z" class="g2_452"/>
<path d="M385.8,94.4l-4.7,-3.2l5.2,-2.5l-.5,5.7Z" class="g2_452"/>
</svg>