<?xml version="1.0" encoding="UTF-8" standalone="no"?>
<!DOCTYPE svg PUBLIC "-//W3C//DTD SVG 1.1//EN"
"http://www.w3.org/Graphics/SVG/1.1/DTD/svg11.dtd">
<svg viewBox="0 0 907 1045" version="1.1" xmlns="http://www.w3.org/2000/svg" xmlns:xlink="http://www.w3.org/1999/xlink">
<defs>
<clipPath id="c0_53"><path d="M676.8,601.1C666,593.9,653.6,593.5,657.6,572.9c2.2,-11,10.5,-15.3,19.8,-19.3h10.3c23.8,10.9,18.3,37.6,-2.8,47.5Z"/></clipPath>
<clipPath id="c1_53"><path d="M666.8,604C656,596.8,643.6,596.4,647.7,575.8c2.1,-10.9,10.4,-15.3,19.7,-19.3h10.3C701.5,567.4,696,594.1,675,604Z"/></clipPath>
<clipPath id="c2_53"><path d="M656.6,607.8c-10.8,-7.2,-23.2,-7.6,-19.1,-28.2c2.1,-10.9,10.4,-15.3,19.8,-19.3h10.2c23.8,10.9,18.3,37.6,-2.7,47.5Z"/></clipPath>
<clipPath id="c3_53"><path d="M647.4,610.2C636.6,603,624.2,602.6,628.3,582c2.2,-10.9,10.4,-15.3,19.8,-19.3h10.2c23.8,10.9,18.3,37.6,-2.7,47.5Z"/></clipPath>
<clipPath id="c4_53"><path d="M597.6,575.7c-10.8,-7.2,-23.2,-7.6,-19.1,-28.2c2.2,-11,10.4,-15.3,19.8,-19.3h10.2c23.8,10.9,18.3,37.6,-2.7,47.5Z"/></clipPath>
<clipPath id="c5_53"><path d="M587.6,578.7C576.8,571.4,564.4,571,568.5,550.4c2.2,-10.9,10.4,-15.3,19.8,-19.2h10.2c23.8,10.8,18.3,37.5,-2.7,47.5Z"/></clipPath>
<clipPath id="c6_53"><path d="M577.4,582.5c-10.8,-7.3,-23.2,-7.7,-19.1,-28.3c2.2,-10.9,10.4,-15.3,19.8,-19.2h10.2c23.8,10.8,18.3,37.5,-2.7,47.5Z"/></clipPath>
<clipPath id="c7_53"><path d="M568.2,584.9C557.4,577.6,545,577.2,549.1,556.6c2.2,-10.9,10.4,-15.3,19.8,-19.2h10.2c23.8,10.8,18.3,37.5,-2.7,47.5Z"/></clipPath>
<clipPath id="c8_53"><path d="M252.5,523.9V502.7H411.7l.1,1.6l19.6,-.5v20.1h-14V508.2H258v15.7Z"/></clipPath>
<clipPath id="c9_53"><path d="M411.8,504.3l-.1,-1.6h19.7v1.1l-19.6,.5Z"/></clipPath>
<clipPath id="ca_53"><path d="M444.2,497.7v0ZM414,499.2c0,0,.4,-.1,.6,-.3c0,0,.3,-.1,.3,-.4c0,0,0,-.1,-.1,-.2c0,0,0,-.2,0,-.3v-.1c0,0,-.1,-.4,-.4,-.4c0,0,-.3,.1,-1,.7c0,0,0,.1,-.1,.3c0,0,-.1,.2,-.1,.3c0,0,0,.2,.2,.3c0,0,.3,.1,.6,.1Zm49.4,-2v0Zm26,.1c0,0,.4,0,.6,-.2c0,0,.3,-.1,.3,-.5l-.1,-.2c0,0,0,-.1,0,-.2V496c0,0,-.1,-.3,-.4,-.3c0,0,-.3,0,-1,.7c0,0,0,.1,-.1,.3c0,0,-.1,.2,-.1,.3c0,0,0,.1,.2,.2c0,0,.3,.1,.6,.1Zm58,-2.1v0Zm-72.9,-.1v0Zm46.1,1.4c0,0,.1,0,.1,0c0,0,.3,0,.6,-.2c0,0,.3,-.1,.2,-.4c0,0,0,-.1,0,-.2c0,0,0,-.2,0,-.3v-.1c0,0,-.2,-.4,-.4,-.4H521c0,0,-.2,0,-1,.7c0,0,0,.1,0,.3c0,0,-.1,.2,-.1,.3c0,0,0,.2,.2,.2c0,0,.3,.1,.5,.1ZM429.3,497c0,0,.3,-.2,.6,-.3c0,0,.4,-.2,.6,-.4c0,0,.2,-.4,.5,-.7c0,0,.2,-.4,.2,-.8v-.2c0,0,-.2,-.3,-.8,-.3c0,0,-.1,0,-.4,0c0,0,-.3,0,-.5,0h-.2c0,0,-.5,.3,-.5,.9c0,0,0,.3,.2,.9c0,0,.3,.6,.3,.9Zm42.1,.5h.1c0,0,.1,0,.4,-.1c0,0,.2,-.1,.4,-.1c0,0,.8,-1.1,.8,-2.3v-.1c0,0,-.3,-.9,-1,-.9c0,0,-1.2,0,-1.1,2.6c0,0,0,.2,0,.7c0,0,.2,.2,.4,.2Zm107.4,-2.4c-.1,0,-.6,0,-.8,-.5c0,0,-.1,-.3,-.1,-.5c0,0,0,-.2,.2,-.3c0,0,.1,-.2,.4,-.2c0,0,.2,0,.4,.1c0,0,0,.1,.2,.2c0,0,.2,.1,.3,.2c0,0,-.1,.7,-.6,1Zm-74.6,1.3c0,0,.2,0,1,-.4c0,0,.7,-.8,.7,-1.4c0,0,0,-.1,0,-.3c0,0,-.4,-.7,-.9,-.7c0,0,-.1,0,-.3,0c0,0,-1.2,.5,-1.5,1.4c0,0,-.1,.1,-.1,.3c0,0,0,.5,.4,.7c0,0,.3,.4,.7,.4Zm-58,2.7c0,0,-.2,0,-.3,0l-.4,-.5l-.3,-4.6c0,0,.1,-.5,.7,-.5c0,0,.3,0,.6,.3c0,0,.3,.8,.3,2.1c0,0,0,.2,0,.6c0,0,0,.4,0,.6c0,0,0,.8,.1,1.4h.1c0,0,-.4,.6,-.8,.6Zm-21.4,.4c-.1,0,-.8,0,-1.7,-.3c0,0,-.1,-.1,-.4,-.3c0,0,-.2,-.2,-.2,-.4c0,0,0,-.1,.1,-.2c0,0,.2,-.2,.6,-.2c0,0,.2,0,.7,.1c0,0,.4,.2,.7,.2c0,0,.4,-.1,.6,-.6c0,0,-.5,-.4,-1.6,-1.3c0,0,-.8,-.7,-.9,-1.4c0,0,.3,-1.4,2.4,-1.6c0,0,.8,.1,1,.4c0,0,.1,.5,.1,.5c0,.1,0,.4,-.3,.6c0,0,-.1,.1,-.3,.1c0,0,-.1,0,-.1,0c0,0,-.1,0,-.4,-.1c0,0,-.2,0,-.3,0q-.1,0,-.1,0c0,0,-.3,0,-.3,.7c0,0,.7,.4,1.3,.9c0,0,.8,.6,1,1.2h.1c0,0,-.2,1,-.7,1.3c0,0,-.5,.4,-1.3,.4Zm31.6,-.6c0,0,-.1,0,-.2,-.1l-.5,-.4l-.3,-4.6c0,0,.2,-.5,.7,-.5c.1,0,.4,0,.6,.3c0,0,.3,.7,.3,2.1c0,0,.1,.2,.1,.6c0,0,0,.4,0,.5c0,0,0,.9,.1,1.4c0,0,-.4,.7,-.8,.7ZM436.5,500c-.1,0,-.5,0,-1,-.1c0,0,-.4,-.1,-.8,-.3c0,0,-1.3,-.6,-1.3,-2.5c0,0,0,-.5,0,-1.2c0,0,.2,-.5,1,-1.5c0,0,.8,-1.2,1.9,-1.2c.1,0,.6,0,1,.2c0,0,.6,.3,.8,.9v.2c0,0,0,.8,-.5,1.3c0,0,-.3,.3,-1.3,.6c0,0,-1,.4,-1.3,.7c0,0,-.1,.2,-.1,.3c0,0,.1,1,.7,1.3h.5c0,0,.2,0,.2,0q.1,0,.1,0c0,0,.2,0,.5,-.2c0,0,.4,-.2,.7,-.3c0,0,.3,.1,.6,.4c0,0,0,.1,0,.2c0,0,0,.3,-.3,.6c0,0,-.4,.2,-.7,.4c0,0,-.3,.2,-.7,.2Zm-22.8,.6c-.1,0,-.5,0,-.9,-.3c0,0,-.5,-.1,-.8,-.5c0,0,-.4,-.5,-.4,-1.1c0,0,0,-.9,.6,-1.6c0,0,1,-.9,1.9,-1h.1c0,0,.2,0,.4,.2c0,0,.3,.1,.5,.1c0,0,.1,0,.2,0c0,0,.1,-.3,.1,-.6c0,0,0,-.6,-.2,-1.1c0,0,-.2,-.6,-.7,-.6c0,0,-.2,0,-.7,.3c0,0,-.4,.2,-.6,.2c0,0,-.3,0,-.5,-.5c0,0,0,-.5,.5,-.9c0,0,.2,-.1,.8,-.4c0,0,1.7,0,2.1,.9c0,0,.8,1.6,.9,3.8h-.1c0,0,.1,1.1,-.1,2.1c0,0,-.2,.5,-.8,.5c-.1,0,-.3,0,-.5,-.1c0,0,-1.2,.6,-1.8,.6Zm15.9,3.3c0,0,-1.1,-.1,-1.1,-1.4c0,0,0,-.1,0,-.6c0,0,0,-.4,0,-.6c0,0,0,-.6,-.1,-.8c0,0,-.1,-1.4,-.6,-2.8c0,0,0,-.4,0,-.5c0,0,0,-.6,-.3,-1.6c0,0,-.3,-1.1,-.4,-1.7c0,0,0,-.4,.1,-.7c0,0,0,-.2,.2,-.3c0,0,.1,-.1,.3,-.1c0,0,.1,0,.5,.2c0,0,.4,.2,.6,.2c0,0,.2,0,.4,-.1c0,0,.4,-.1,.8,-.1c.2,0,1.5,0,2.3,1c0,0,.3,.4,.3,.9c0,0,0,.6,-.7,1.9c0,0,-.5,.5,-1,.9c0,0,-.6,.5,-1.2,.6v-.1c0,0,-.3,.2,-.3,.5c0,0,0,.1,.1,.3c0,0,.1,.3,.1,.4c0,0,0,.1,0,.1l.3,3.6c0,0,0,.3,-.3,.8ZM500,497.8c-.1,0,-.2,0,-.3,0l-.5,-.5l-.3,-4.6c0,0,.2,-.5,.7,-.5c.1,0,.4,0,.6,.3c0,0,.3,.7,.4,2.1c0,0,0,.2,0,.6c0,0,0,.4,0,.6c0,0,0,.8,.1,1.4c0,0,-.4,.6,-.7,.6ZM478.4,499c-.1,0,-.4,0,-.9,-.1c0,0,-.5,-.2,-.9,-.3c0,0,-1.2,-.7,-1.3,-2.5c0,0,0,-.6,.1,-1.3c0,0,.1,-.4,.9,-1.4c0,0,.9,-1.2,1.9,-1.2c.1,0,.6,0,1,.2c0,0,.7,.3,.8,.9v.1c0,0,.1,.9,-.4,1.3c0,0,-.4,.3,-1.4,.7c0,0,-1,.3,-1.3,.6c0,0,0,.3,0,.4c0,0,0,1,.7,1.3l.4,-.1c0,0,.2,.1,.3,.1c0,0,.2,-.1,.6,-.3c0,0,.3,-.2,.6,-.2c0,0,.3,0,.6,.4c0,0,.1,.1,.1,.2c0,0,0,.3,-.4,.6c0,0,-.3,.2,-.6,.4c0,0,-.4,.2,-.8,.2Zm26,-1c-.1,0,-.6,0,-1,-.3c0,0,-.2,-.1,-.9,-.5c0,0,-.5,-.3,-.7,-.7c0,0,-.1,-.8,-.2,-1.3c0,0,0,-.7,.2,-1.1c0,0,.6,-.6,1.2,-1.2c0,0,.8,-.7,1.4,-.7c0,0,.3,-.1,.5,-.1c.1,0,.9,0,1.6,.8c0,0,.8,.8,.8,1.7c0,0,.1,.3,0,.6v-.1c0,0,-.3,1.2,-1.6,2.5c0,0,-.6,.4,-1.3,.4Zm-63.6,1.6c-.1,0,-1,0,-1.5,-.7c0,0,-.4,-.6,-.4,-1.4c0,0,0,-.8,.4,-1.9c0,0,0,-.1,.7,-1.7c0,0,.1,-.3,.7,-1c0,0,.4,-.6,.4,-1.1c0,0,.2,-.1,.4,-.1c0,0,.5,0,.9,.4c0,0,.4,.4,.6,.9c0,0,0,.7,-.3,1.4c0,0,-.3,.7,-.6,.8c-.1,0,-.2,0,-.5,-.2c0,0,-.2,-.3,-.3,-.3c0,0,-.2,0,-.4,.4c0,0,-.4,.9,-.4,2.9c0,0,.2,.4,.7,.4c0,0,.1,0,.3,-.1c0,0,.3,-.1,1,-.6c0,0,.6,-.5,.9,-.5c.1,0,.4,0,.8,.5c0,.1,0,.5,-.3,.7c0,0,-.2,.2,-.7,.4c0,0,-.5,.3,-.7,.5c0,0,-1.5,.3,-1.7,.3Zm55,-2c0,0,-.1,0,-.3,-.1c0,0,-.7,-.7,-1.2,-1.9c0,0,-.4,-1,-.8,-2.1c0,0,0,-.1,-.2,-.4c0,0,-.1,-.3,-.1,-.5c0,0,0,-.1,.1,-.3c0,0,.2,-.2,.4,-.2h.1c0,0,.3,0,.5,.3c0,0,.3,.3,.4,.6c0,0,0,.2,.4,1.2c0,0,.3,.7,.6,1.1h.1c0,0,0,-.2,.5,-2c0,0,.3,-1.4,.7,-1.7c0,0,.2,-.1,.3,-.1c.1,0,.2,0,.2,0c0,0,.2,.1,.4,.6c0,0,-.3,1.3,-.6,2.6c0,0,-.4,1.7,-.8,2.5c0,0,-.5,.4,-.7,.4Zm13.5,.2c0,0,-.2,0,-.3,-.2c0,0,-.7,-1,-1.1,-2.6c0,0,-.2,-.8,-.6,-3v-.1c0,0,0,-.4,.3,-.5c0,0,.2,0,.3,-.1c0,0,.3,.1,.5,.4c0,0,.2,.3,.4,.7v.4c0,0,0,.1,0,.2c0,0,0,.3,.2,.4c0,0,.9,-.6,1,-.7c0,0,.6,-.4,1.1,-.5c0,0,.2,0,.3,-.1c.2,0,1.2,.1,1.5,.7v.1c0,0,0,.7,-.4,.9c0,0,-.6,-.3,-1,-.3c0,0,-.3,0,-.5,.1c0,0,-.9,.4,-1,1.6c0,0,0,1.1,0,2.2c0,0,-.1,0,-.3,.2c0,0,-.3,.2,-.4,.2Zm-49.4,1.3c-.1,0,-.9,0,-1.4,-.7c0,0,-.4,-.6,-.4,-1.4c0,0,0,-.8,.3,-1.9l.7,-1.7c0,0,.1,-.2,.7,-1c0,0,.5,-.6,.5,-1.1c0,0,.1,-.1,.3,-.1h.1c0,0,.4,0,.9,.5c0,0,.4,.3,.6,.8c0,0,-.1,.8,-.3,1.4c0,0,-.3,.8,-.7,.8c0,0,-.1,0,-.4,-.2c0,0,-.2,-.2,-.4,-.2c0,0,-.1,0,-.3,.3c0,0,-.4,.9,-.5,2.9c0,0,.3,.4,.7,.4q.1,0,.1,0c0,0,.1,0,.3,-.1c0,0,.3,0,1,-.6c0,0,.6,-.5,.9,-.5c0,0,.4,0,.8,.5c0,.2,0,.5,-.3,.7c0,0,-.2,.2,-.7,.5c0,0,-.5,.2,-.7,.4c0,0,-1.6,.3,-1.7,.3h-.1Zm-13.7,-7.9v0Zm102.6,5.7c-.1,0,-.3,0,-.6,-.2c0,0,-.2,-.3,-.3,-.8c0,0,0,-.2,.1,-.7c0,0,.1,-.5,.1,-.7c0,0,0,-.2,-.1,-.4V494c0,0,0,-.4,-.2,-1.3c0,0,-.2,-.9,-.2,-1.3c0,0,.2,-.3,.5,-.3c.1,0,.5,.1,.7,.5c0,0,.1,0,.2,.4c0,0,.1,.3,.3,.5c0,0,.6,-.9,1.4,-.9h.1c0,0,1,.2,1.5,1.2c0,0,.1,.2,.6,1.9c0,0,0,.2,0,.3c0,0,0,.2,0,.5c0,0,.1,.3,.1,.5c0,0,0,.6,-.5,.8c0,0,-.9,-.2,-1,-1.4c0,0,0,-.2,0,-.4c0,0,0,-.3,0,-.4c0,0,0,-1.2,-.8,-1.5c0,0,-.4,.6,-.8,1.6c0,0,-.1,.2,-.5,1.9c0,0,-.3,.3,-.6,.3Zm15.9,-.7c0,0,-1,-.2,-1.1,-1.6c0,0,0,-.2,.1,-.8c0,0,0,-.5,0,-.8c0,0,0,-.3,-.1,-.7c0,0,-.2,-.5,-.2,-.7c0,0,0,-.4,.4,-.6c0,0,.1,0,.2,0c0,0,.5,0,.8,.5c0,0,0,.1,0,.1c0,0,0,.1,.1,.2c0,0,0,.1,.1,.1c0,0,.2,-.2,.5,-.5c0,0,.4,-.3,.6,-.3c.1,0,.2,0,.4,.1c0,0,.5,.2,1.3,1.1c0,0,.6,-.7,1.3,-.7c0,0,.1,0,.1,0c0,0,.2,0,.4,0c0,0,1.4,1.1,1.5,3.5v.2c0,0,-.3,.5,-.7,.5l-.1,-.1c0,0,-.6,-.2,-.7,-1.3c0,0,-.1,-1.1,-.5,-1.3l-.4,.6c0,0,-.1,.6,-.3,1.2c0,0,-.2,.8,-.6,1.2c-.1,0,-.5,0,-.8,-.4c0,0,-.3,-.3,-.3,-.8c0,0,0,-.3,.1,-.5c0,0,-.1,-.2,-.1,-.5c0,0,0,-.1,0,-.3c0,0,0,-.1,0,-.2c0,0,0,-.5,-.3,-.7c0,0,-.5,.4,-.8,1.7c0,0,-.3,1.3,-.9,1.8ZM456.5,491v-.1v.1Zm32.6,7.7c-.1,0,-.5,0,-.9,-.2c0,0,-.5,-.1,-.8,-.6c0,0,-.4,-.5,-.4,-1c0,0,0,-1,.6,-1.6c0,0,1,-1,1.9,-1h.1c0,0,.2,0,.4,.1c0,0,.3,.2,.5,.2c0,0,.1,0,.2,0c0,0,.1,-.4,.1,-.6c0,0,0,-.7,-.2,-1.1c0,0,-.2,-.6,-.7,-.6c0,0,-.2,0,-.7,.2c0,0,-.4,.3,-.6,.3c0,0,-.3,0,-.5,-.6c0,0,0,-.5,.5,-.8c0,0,.2,-.2,.8,-.5c0,0,1.7,.1,2.1,.9c0,0,.8,1.7,.9,3.9h-.1c0,0,.1,1.1,-.1,2.1c0,0,-.2,.4,-.8,.4c-.1,0,-.3,0,-.5,-.1c0,0,-1.2,.6,-1.8,.6Zm55.2,-2.2h-.1c0,0,-.4,0,-.8,-.4c0,0,-.4,-.3,-.7,-.7c0,0,-.5,-1.1,-.5,-2.8c0,0,0,-.8,0,-1.7c0,0,.2,-.2,.5,-.2c.1,0,.3,0,.5,.1l.3,.5l.2,2.9c0,0,0,.1,.1,.4c0,0,.1,.3,.3,.3l.1,-.1c0,0,.6,-.9,1.1,-2.9c0,0,.2,-.4,.6,-.4c0,0,.2,0,.3,.1c0,0,.5,.4,.6,1.8c0,0,.1,1.4,.6,1.8c0,.1,-.1,.6,-.4,.7c-.1,0,-.4,0,-1.1,-.8c0,0,-.2,.1,-.7,.7c0,0,-.4,.5,-.7,.7c0,0,-.1,0,-.2,0Zm17.4,-.2c0,0,-.1,0,-.3,-.1l-.4,-.4l-.3,-4.6c0,0,.1,-.5,.7,-.5c0,0,.4,0,.6,.3c0,0,.3,.7,.3,2.1c0,0,0,.2,0,.6c0,0,0,.4,0,.6c0,0,.1,.8,.2,1.4c0,0,-.4,.6,-.8,.6Zm-23.9,.8c-.1,0,-.2,0,-.3,-.2c0,0,-.8,-1,-1.2,-2.6c0,0,-.2,-.8,-.5,-3v-.1c0,0,0,-.4,.2,-.5c0,0,.2,0,.3,0c.1,0,.4,0,.6,.3c0,0,.2,.4,.4,.7c0,0,0,.1,0,.2v.2c0,0,0,.1,0,.2c0,0,0,.3,.2,.4c0,0,.8,-.6,1,-.7c0,0,.6,-.4,1.1,-.5c0,0,.2,0,.3,-.1c.2,0,1.1,.1,1.4,.7h.1v.1c0,0,0,.7,-.5,.9c0,0,-.5,-.3,-.9,-.3q-.1,0,-.1,0c0,0,-.3,0,-.4,.1c0,0,-.9,.4,-1,1.6c0,0,0,1.1,-.1,2.2l-.3,.2c0,0,-.2,.2,-.3,.2Zm-92,-5.2c0,0,-.3,-.1,-.6,-.2c0,0,-.4,-.1,-.4,-.4c0,0,-.1,-.1,-.1,-.2c0,0,0,-.5,.5,-.7c0,0,.3,.1,.6,.2c0,0,.4,.2,.4,.6c0,0,0,.2,-.4,.7Zm74.6,6.1c-.1,0,-.6,0,-.9,-.3c0,0,-.5,-.1,-.9,-.5c0,0,-.3,-.5,-.3,-1.1c0,0,0,-.9,.6,-1.6c0,0,1,-.9,1.9,-1h.1c0,0,.1,0,.4,.2c0,0,.3,.1,.5,.1h.2c0,0,.1,-.3,.1,-.6c0,0,0,-.6,-.2,-1.1c0,0,-.2,-.6,-.7,-.6c0,0,-.2,0,-.7,.2c0,0,-.4,.3,-.6,.3c0,0,-.3,0,-.5,-.5c0,0,0,-.5,.4,-.9c0,0,.2,-.1,.9,-.4c0,0,1.7,0,2.1,.9c0,0,.8,1.6,.9,3.8h-.1c0,0,.1,1.1,-.1,2.1c0,0,-.2,.5,-.8,.5c-.1,0,-.3,0,-.5,-.1c0,0,-1.2,.6,-1.8,.6ZM456,491.6c0,0,-.3,-.1,-.6,-.1c0,0,-.3,-.1,-.4,-.4c0,0,0,-.2,0,-.2c0,0,0,-.5,.4,-.7c0,0,.4,.1,.7,.2c0,0,.3,.2,.4,.5c0,.1,-.1,.3,-.5,.7Zm44,-1.7v0Zm75.1,6.7c-.1,0,-.5,0,-1,-.1c0,0,-.4,-.1,-.9,-.3c0,0,-1.2,-.6,-1.2,-2.5c0,0,0,-.5,0,-1.2c0,0,.2,-.4,1,-1.5c0,0,.8,-1.2,1.8,-1.2c0,0,.1,0,.1,0c.1,0,.6,0,1,.2c0,0,.6,.3,.8,.9v.2c0,0,0,.8,-.5,1.3c0,0,-.3,.3,-1.3,.6c0,0,-1,.4,-1.3,.7c0,0,-.1,.2,-.1,.4c0,0,.1,.9,.7,1.2h.5c0,0,.1,0,.2,0q.1,0,.1,0c0,0,.2,0,.5,-.2c0,0,.4,-.2,.6,-.2c.1,0,.4,0,.7,.3c0,0,0,.1,0,.2c0,0,0,.4,-.3,.6c0,0,-.4,.2,-.7,.4c0,0,-.3,.2,-.7,.2Zm-75.6,-6.1c0,0,-.3,0,-.6,-.1c0,0,-.3,-.1,-.4,-.4c0,0,0,-.2,0,-.2c0,0,0,-.5,.5,-.7c0,0,.3,.1,.6,.2c0,0,.4,.2,.4,.6c0,0,-.1,.2,-.5,.6Zm62.2,-2.1v0Zm-76.1,10.1c0,0,-.2,0,-.4,-.1c0,0,-.4,-.5,-.4,-1.3c0,0,0,-.2,0,-.5c0,0,0,-.4,0,-.5c0,0,0,-1.4,-.7,-1.9c0,0,-.6,.3,-.9,1.2c0,0,-.2,.6,-.2,2.1v.1c0,0,0,.1,-.5,.7c0,0,-.6,0,-.9,-.6c0,0,-.1,-2.3,-.2,-4.6c0,0,-.2,-2.8,-.6,-4.5c0,0,.2,-.3,.5,-.3c.1,0,.3,0,.6,.2c0,0,.3,.3,.3,.6c0,0,.2,1,.4,2c0,0,.2,1.1,.2,2.1c0,0,0,-.1,.6,-.3c0,0,.5,-.1,.7,-.1c.1,0,.6,0,.9,.3c0,0,.4,.3,.8,.9c0,0,.6,1.2,.6,2.6c0,0,0,.9,-.2,1.5v.1c0,0,-.1,.3,-.6,.3ZM561.3,489c0,0,-.3,0,-.6,-.1c0,0,-.3,-.1,-.4,-.4c0,0,-.1,-.2,-.1,-.2c0,0,0,-.5,.5,-.7c0,0,.3,.1,.7,.2c0,0,.3,.2,.3,.6c0,0,0,.2,-.4,.6Zm-89.7,9.9c-.1,0,-1.7,0,-2.2,-1c0,0,-.2,-1.4,-.4,-4.8c0,0,-.1,-3.3,-.4,-4.9v-.1c0,0,0,-.6,.5,-.6c.1,0,.7,0,.9,.5c0,0,.3,.8,.4,1.5c0,0,0,.3,-.2,.6c0,0,.2,.5,.2,1.3v.4c0,0,0,.8,.2,1.3c0,0,.2,0,.6,-.3c0,0,.4,-.2,.6,-.3h.1c.2,0,1.7,.1,2.3,1.3l.1,.1c0,0,.2,.5,.2,1.2v.1c0,0,0,-.1,0,-.1c0,.1,.1,1.3,-.6,2.4c0,0,-.5,.6,-.8,.8c0,0,-.4,.4,-.8,.6c0,0,-.3,0,-.7,0Zm-20.2,.6c0,0,-.3,0,-.4,-.1l-.3,-.2c0,0,-.1,-.4,-.7,-2.8c0,0,-.2,-.2,-.4,-.2c0,0,-.2,0,-.6,.2c0,0,-.4,.1,-.6,.1c-.1,0,-.8,0,-.8,-.6c0,0,.2,-.4,1,-.6c0,0,.8,-.3,1.1,-.5v-.3c0,0,0,-.5,-.1,-1.6c0,0,-.1,-1.2,-.1,-1.7c0,0,-.1,-1.9,.3,-3.1c0,0,.5,-1.4,1.9,-2.2c0,0,1.1,0,2,1.3c0,0,.3,.7,.3,1.2c0,0,0,.3,0,.5c0,0,-.2,.2,-.4,.4c0,0,-.2,.2,-.4,.2c0,0,-.1,0,-.2,-.1c0,0,-.4,-.2,-.5,-1.2c0,0,0,-.8,-.5,-.8h-.3c0,0,-.9,1.6,-.8,3.9c0,0,0,.3,0,.9c0,0,-.1,.2,-.1,.6c0,0,0,.6,.4,1.3h.1c0,0,.3,0,.9,-.3c0,0,.6,-.3,.8,-.4c0,0,.5,.1,.7,.6c0,0,.1,.6,-.5,.8h-.1c0,0,-.9,0,-1.8,.8c0,0,.1,.5,.4,1.7c0,0,.3,1.1,.4,1.8c0,0,-.2,.4,-.7,.4Zm76.9,-1.3c0,0,-.2,0,-.4,-.2c0,0,-1.5,-.7,-1.6,-3.2v-.1c0,0,0,-.1,0,-.3c0,0,0,-.1,0,-.3c0,0,0,-.2,0,-.4c0,0,0,-.4,-.2,-.7c0,0,-.1,0,-.5,0c0,0,-.3,.1,-.5,.1c-.1,0,-.4,0,-.6,-.2c0,0,-.3,-.1,-.3,-.4c0,0,.1,0,.2,-.5h.1c0,0,.2,0,.7,-.2c0,0,.4,-.2,.6,-.2c.1,0,.2,0,.3,.1c0,0,.3,-.5,.3,-1.5v-.7c0,0,0,-.6,0,-1c0,0,.1,-.1,.1,-1.3c0,0,.1,-.9,.4,-1.3c0,0,.1,0,.2,0h.1c0,0,.6,0,.8,.7c0,0,-.3,.8,-.3,2.3c0,0,-.1,2.1,-.1,2.4c0,0,.2,.1,.6,.1q.1,0,.1,0c0,0,.1,0,.5,0c0,0,.4,-.1,.6,-.1c0,0,.4,0,.7,.2c0,0,.2,.1,.2,.3c0,0,0,.2,-.1,.4c0,0,-.2,.3,-.2,.3c0,0,-.3,.1,-.8,.1h-.6c0,0,-.7,0,-1,.3c0,0,0,.1,0,.5c0,0,0,.2,0,.7c0,0,0,.5,0,.7c0,0,0,1.6,.9,2.2c0,0,1.2,-.2,2,-1.3c.1,0,.7,0,.8,.4c0,0,-.1,.6,-.7,1.1c0,0,-.5,.6,-1.1,.8c0,0,-.1,-.1,-.3,-.1c0,0,-.2,0,-.5,.2c0,0,-.3,.1,-.4,.1Zm29.1,-.7c-.1,0,-.3,0,-.5,-.2c0,0,-1.5,-.7,-1.5,-3.2V494c0,0,-.1,-.1,0,-.3c0,0,0,-.1,0,-.3c0,0,0,-.3,0,-.4c0,0,0,-.4,-.2,-.7c0,0,-.1,0,-.5,0c0,0,-.3,.1,-.5,.1c-.1,0,-.4,0,-.6,-.2c0,0,-.3,-.1,-.3,-.4c0,0,0,-.1,.2,-.5c0,0,.3,0,.7,-.2c0,0,.5,-.2,.7,-.2c0,0,.2,0,.3,.1c0,0,.3,-.5,.3,-1.5l-.1,-.7c0,0,0,-.6,.1,-1c0,0,0,-.1,.1,-1.4c0,0,0,-.8,.4,-1.2c0,0,.1,0,.2,0c.1,0,.7,0,.8,.7c0,0,-.2,.8,-.3,2.3c0,0,0,2.1,-.1,2.4c0,0,.3,.1,.7,.1h.1c0,0,.1,0,.5,0c0,0,.4,-.1,.6,-.1c0,0,.4,0,.7,.2c0,0,.2,.1,.1,.3c0,0,0,.2,-.1,.4c0,0,-.1,.3,-.1,.3c0,0,-.3,.1,-.8,.1h-.6c0,0,-.7,0,-1.1,.2c0,0,.1,.2,.1,.6c0,0,0,.2,0,.7c0,0,0,.4,0,.7c0,0,0,1.6,.9,2.1c0,0,1.2,-.1,1.9,-1.2c.2,0,.8,0,.9,.4c0,0,-.2,.6,-.7,1.1c0,0,-.5,.6,-1.1,.8c0,0,-.1,-.1,-.3,-.1c0,0,-.2,0,-.5,.1c0,0,-.3,.2,-.4,.2Z"/></clipPath>
<clipPath id="cb_53"><path d="M258,523.9V508.2H417.4v15.7h-.2V508.5H258.3v15.4Z"/></clipPath>
<clipPath id="cc_53"><path d="M252.5,568.1V544.8H258v23.3Zm179.6,20.4V568.1H417.6V544.8h13.8V523.9h.7v64.6Z"/></clipPath>
<clipPath id="cd_53"><path d="M252.5,544.8V523.9H258v20.9Zm165.1,0V529.5h-.2v-5.6h14v20.9Z"/></clipPath>
<clipPath id="ce_53"><path d="M258.5,529.5v-5.6H416.9v5.6Z"/></clipPath>
<clipPath id="cf_53"><path d="M258,529.5v-5.6h.3v5.6Zm159.2,0v-5.6h.2v5.6Z"/></clipPath>
<clipPath id="cg_53"><path d="M258.3,529.5v-5.6h.2v5.6Zm158.6,0v-5.6h.3v5.6Z"/></clipPath>
<clipPath id="ch_53"><path d="M258,568.1V544.8h.3v23.3Zm159.4,0V544.8h.2v23.3Z"/></clipPath>
<clipPath id="ci_53"><path d="M258,544.8V530.1h.3v14.7Zm159.4,0V529.5h.2v15.3Z"/></clipPath>
<clipPath id="cj_53"><path d="M258.5,529.6v-.1H416.9v.1Z"/></clipPath>
<clipPath id="ck_53"><path d="M258,530.1v-.6h.3v.6Zm159.4,0v-.4h-.2v-.2h.2v.6Z"/></clipPath>
<clipPath id="cl_53"><path d="M258.3,529.7v-.2h.2v.1H416.9v-.1h.3v.2Z"/></clipPath>
<clipPath id="cm_53"><path d="M252.4,681.1v-113h.1v20.4H432.1v92.6Z"/></clipPath>
<clipPath id="cn_53"><path d="M252.5,588.5V568.1H258v6.4H417.6v-6.4h14.5v20.4Z"/></clipPath>
<clipPath id="co_53"><path d="M258.5,574v-5.9H417.1V574Z"/></clipPath>
<clipPath id="cp_53"><path d="M258,574.5v-6.4h.3v6.2H417.4v-6.2h.2v6.4Z"/></clipPath>
<clipPath id="cq_53"><path d="M258.3,574.3v-6.2h.2V574H417.1v-5.9h.3v6.2Z"/></clipPath>
<clipPath id="cr_53"><path d="M-2.6,1047.7V-2.6H910.2V1047.7Z"/></clipPath>
<style type="text/css"><![CDATA[
.g0_53{
fill: #D2D2D2;
}
.g1_53{
}
.g2_53{
fill: none;
stroke: #000000;
stroke-width: 1.527;
stroke-linecap: butt;
stroke-linejoin: miter;
stroke-miterlimit: 4;
}
.g3_53{
fill: #FFFFFF;
}
.g4_53{
fill: none;
stroke: #000000;
stroke-width: 0.492;
stroke-linecap: butt;
stroke-linejoin: miter;
stroke-miterlimit: 4;
}
.g5_53{
fill: #D6D6D6;
}
.g6_53{
fill: none;
stroke: #505050;
stroke-width: 1.03;
stroke-linecap: butt;
stroke-linejoin: miter;
stroke-miterlimit: 4;
}
.g7_53{
fill: none;
stroke: #3D3D3D;
stroke-width: 1.527;
stroke-linecap: butt;
stroke-linejoin: miter;
stroke-miterlimit: 4;
}
.g8_53{
fill: none;
stroke: #636363;
stroke-width: 1.527;
stroke-linecap: butt;
stroke-linejoin: miter;
stroke-miterlimit: 4;
}
.g9_53{
fill: none;
stroke: #FFFFFF;
stroke-width: 1.909;
stroke-linecap: butt;
stroke-linejoin: miter;
}
.ga_53{
fill: none;
stroke: #000000;
stroke-width: 0.381;
stroke-linecap: butt;
stroke-linejoin: miter;
}
]]></style>
</defs>
<path d="M235,828.2v19H445.3v-19H235Z" class="g0_53"/>
<path d="M168.6,299.1c4.9,0,8.9,-4,8.9,-8.9c0,-4.9,-4,-8.9,-8.9,-8.9c-5,0,-8.9,4,-8.9,8.9c0,4.9,3.9,8.9,8.9,8.9Z" class="g1_53"/>
<path d="M168.6,299.1c4.9,0,8.9,-4,8.9,-8.9c0,-4.9,-4,-8.9,-8.9,-8.9c-5,0,-8.9,4,-8.9,8.9c0,4.9,3.9,8.9,8.9,8.9Z" class="g2_53"/>
<path d="M168.6,723.9c4.9,0,8.9,-4,8.9,-8.9c0,-5,-4,-9,-8.9,-9c-5,0,-8.9,4,-8.9,9c0,4.9,3.9,8.9,8.9,8.9Z" class="g1_53"/>
<path d="M168.6,723.9c4.9,0,8.9,-4,8.9,-8.9c0,-5,-4,-9,-8.9,-9c-5,0,-8.9,4,-8.9,9c0,4.9,3.9,8.9,8.9,8.9Z" class="g2_53"/>
<image clip-path="url(#c8_53)" preserveAspectRatio="none" x="252" y="502" width="180" height="43" xlink:href="img/1.jpg"/>
<image clip-path="url(#c9_53)" preserveAspectRatio="none" x="411" y="502" width="21" height="3" xlink:href="img/2.jpg"/>
<image clip-path="url(#ca_53)" preserveAspectRatio="none" x="411" y="502" width="21" height="3" xlink:href="img/3.jpg"/>
<image clip-path="url(#cb_53)" preserveAspectRatio="none" x="258" y="508" width="160" height="16" xlink:href="img/4.jpg"/>
<path d="M258.3,508.5v21.3H417.2V508.5H258.3Z" class="g3_53"/>
<path d="M258.3,508.5H258v21.6H417.4V508.2H258v.3h.3v.2H417.2v-.2h-.3v21.3h.3v-.2H258.3v.2h.2V508.5h-.2v.2v-.2Z" class="g1_53"/>
<image clip-path="url(#cc_53)" preserveAspectRatio="none" x="252" y="524" width="181" height="65" xlink:href="img/5.jpg"/>
<image clip-path="url(#cd_53)" preserveAspectRatio="none" x="252" y="524" width="180" height="21" xlink:href="img/6.jpg"/>
<image clip-path="url(#ce_53)" preserveAspectRatio="none" x="258" y="524" width="159" height="6" xlink:href="img/7.jpg"/>
<image clip-path="url(#cf_53)" preserveAspectRatio="none" x="258" y="524" width="160" height="7" xlink:href="img/8.jpg"/>
<image clip-path="url(#cg_53)" preserveAspectRatio="none" x="258" y="524" width="159" height="6" xlink:href="img/9.jpg"/>
<image clip-path="url(#ch_53)" preserveAspectRatio="none" x="258" y="544" width="160" height="25" xlink:href="img/10.jpg"/>
<image clip-path="url(#ci_53)" preserveAspectRatio="none" x="258" y="529" width="160" height="16" xlink:href="img/11.jpg"/>
<image clip-path="url(#cj_53)" preserveAspectRatio="none" x="258" y="529" width="159" height="1" xlink:href="img/12.jpg"/>
<image clip-path="url(#ck_53)" preserveAspectRatio="none" x="258" y="529" width="160" height="2" xlink:href="img/13.jpg"/>
<image clip-path="url(#cl_53)" preserveAspectRatio="none" x="258" y="529" width="159" height="1" xlink:href="img/14.jpg"/>
<path d="M258.3,529.7v44.6H417.4V529.7H258.3Z" class="g3_53"/>
<path d="M258.3,529.7H258v44.8H417.6v-45H258v.2h.3v.3H417.4v-.3h-.3v44.6h.3V574H258.3v.3h.2V529.7h-.2v.3v-.3Z" class="g1_53"/>
<image clip-path="url(#cm_53)" preserveAspectRatio="none" x="252" y="568" width="180" height="113" xlink:href="img/15.jpg"/>
<image clip-path="url(#cn_53)" preserveAspectRatio="none" x="252" y="568" width="180" height="21" xlink:href="img/16.jpg"/>
<image clip-path="url(#co_53)" preserveAspectRatio="none" x="258" y="568" width="159" height="6" xlink:href="img/17.jpg"/>
<image clip-path="url(#cp_53)" preserveAspectRatio="none" x="258" y="568" width="160" height="7" xlink:href="img/18.jpg"/>
<image clip-path="url(#cq_53)" preserveAspectRatio="none" x="258" y="568" width="160" height="7" xlink:href="img/19.jpg"/>
<path d="M258.3,573.9V666H417.4V573.9H258.3Z" class="g3_53"/>
<path d="M258.3,573.9V666H417.4V573.9H258.3Z" class="g4_53"/>
<path d="M605.5,502c1.4,-.7,57.4,10,59.1,11.3c8.5,2,16.9,4,25.4,6c3.6,.4,6.5,1.6,8.8,3.4c2.7,1.9,5.1,5,6.9,7.3c3.3,4,2.4,6.2,1.6,10.7c-.8,3.6,-1.2,7.4,-1.2,11.1c.6,4.5,3.8,7.9,6.5,11.9c4.1,6,9.7,11.9,11.9,18.4c2.8,8.1,-.5,14.6,-6.3,21.6c-6.8,8.2,-16.6,14.8,-22.3,23.5c-6.4,9.5,-10,22.2,-23.1,28.7c-8.7,2.9,-17.9,4.6,-27.6,4.9c-11.4,.3,-22.6,-.8,-33.6,-3.3c-7.3,-1.8,-14.7,-2.9,-22.4,-3.2c-12.9,-.2,-25.8,4.8,-37.6,-1.2c-5.7,-4,-10.2,-8.6,-13.4,-13.8c-2.6,-3.8,-5.3,-7.5,-8.2,-11.2c-2.8,-3.3,-5.2,-6.7,-7,-10.4c-2.6,-6.5,.7,-10.6,3.7,-16.6c3.2,-6.5,5,-13.2,5.1,-20c-.1,-5.9,-.1,-11.8,-.2,-17.6c.5,-5.5,1.5,-11,3.1,-16.3c2.6,-7.9,7.2,-13.2,14.2,-19.4c6.1,-5.5,11.4,-11.4,17.8,-16.8c2.1,-2.3,4.8,-4.2,8.1,-5.7c1.7,-.3,29.5,-2,30.1,-2.8Z" class="g5_53"/>
<path d="M605.5,502c1.4,-.7,57.4,10,59.1,11.3c8.5,2,16.9,4,25.4,6c3.6,.4,6.5,1.6,8.8,3.4c2.7,1.9,5.1,5,6.9,7.3c3.3,4,2.4,6.2,1.6,10.7c-.8,3.6,-1.2,7.4,-1.2,11.1c.6,4.5,3.8,7.9,6.5,11.9c4.1,6,9.7,11.9,11.9,18.4c2.8,8.1,-.5,14.6,-6.3,21.6c-6.8,8.2,-16.6,14.8,-22.3,23.5c-6.4,9.5,-10,22.2,-23.1,28.7c-8.7,2.9,-17.9,4.6,-27.6,4.9c-11.4,.3,-22.6,-.8,-33.6,-3.3c-7.3,-1.8,-14.7,-2.9,-22.4,-3.2c-12.9,-.2,-25.8,4.8,-37.6,-1.2c-5.7,-4,-10.2,-8.6,-13.4,-13.8c-2.6,-3.8,-5.3,-7.5,-8.2,-11.2c-2.8,-3.3,-5.2,-6.7,-7,-10.4c-2.6,-6.5,.7,-10.6,3.7,-16.6c3.2,-6.5,5,-13.2,5.1,-20c-.1,-5.9,-.1,-11.8,-.2,-17.6c.5,-5.5,1.5,-11,3.1,-16.3c2.6,-7.9,7.2,-13.2,14.2,-19.4c6.1,-5.5,11.4,-11.4,17.8,-16.8c2.1,-2.3,4.8,-4.2,8.1,-5.7c1.7,-.3,29.5,-2,30.1,-2.8" class="g6_53"/>
<g clip-path="url(#c0_53)">
<image clip-path="url(#c0_53)" preserveAspectRatio="none" x="656" y="552" width="50" height="50" xlink:href="img/20.jpg"/>
</g>
<g clip-path="url(#c1_53)">
<image clip-path="url(#c1_53)" preserveAspectRatio="none" x="646" y="555" width="50" height="50" xlink:href="img/21.jpg"/>
</g>
<g clip-path="url(#c2_53)">
<image clip-path="url(#c2_53)" preserveAspectRatio="none" x="636" y="559" width="50" height="50" xlink:href="img/22.jpg"/>
</g>
<g clip-path="url(#c3_53)">
<image clip-path="url(#c3_53)" preserveAspectRatio="none" x="627" y="561" width="50" height="51" xlink:href="img/23.jpg"/>
</g>
<g clip-path="url(#c4_53)">
<image clip-path="url(#c4_53)" preserveAspectRatio="none" x="577" y="527" width="50" height="50" xlink:href="img/24.jpg"/>
</g>
<g clip-path="url(#c5_53)">
<image clip-path="url(#c5_53)" preserveAspectRatio="none" x="567" y="530" width="50" height="50" xlink:href="img/25.jpg"/>
</g>
<g clip-path="url(#c6_53)">
<image clip-path="url(#c6_53)" preserveAspectRatio="none" x="557" y="534" width="50" height="50" xlink:href="img/26.jpg"/>
</g>
<g clip-path="url(#c7_53)">
<image clip-path="url(#c7_53)" preserveAspectRatio="none" x="548" y="536" width="50" height="50" xlink:href="img/27.jpg"/>
</g>
<path d="M387.5,539.1c-.3,1.6,-.6,2.9,-1.8,3.9c1.1,-2,2.3,-2.7,4.3,-3.8c5.6,-3.2,11.6,-5.9,17.4,-8.4c11.8,-5.2,24.4,-8.9,36.4,-13.4c17.9,-6.7,36.3,-11.6,55.6,-11.6c8.6,0,17.3,-.4,25.7,1.6c6.4,1.4,13.8,2.9,19.6,5.6c4.2,2,9.9,4.9,13,8c1.3,1.4,1.8,2.8,2.8,4.6c1.2,2.2,3.2,3.9,4.3,6.2c-.5,-1.8,-9,-7.3,-11,-7.6c3.4,3.1,8.5,3.8,11.9,6.7c3.2,-5.6,1.7,-13.5,3.5,-19.6M175.4,612.2c13.3,6.2,25.3,2.8,38.6,-1.7c6.7,-2.2,11.6,-4.4,17.4,-8.4c4.4,-3.1,13.9,-4.9,16.2,-10.2c-3.1,-.5,-8.4,-1.1,-11,.9c2.3,-.1,4.6,0,6.8,-.1c2.4,0,6,-1.3,8,-.8c-.3,3.4,-5,6.5,-4.5,9.7m-57.1,16.2c11.8,.1,22.6,2.9,33.4,7.1c5.3,2.1,10.9,3.7,16.3,5.5c3.4,1.2,6.4,3.5,9.9,4.3c-1.8,-1.6,-4.8,-3.5,-6.1,-5.3c-1,-1.4,-1.3,-4,-3.1,-3.6c1.5,2.2,11,7,10.5,9.7c-1.4,6.2,-14.3,.3,-16.3,4" class="g7_53"/>
<path d="M413.5,559.8c11.2,4.6,23.5,6.1,34.7,10.3c22.5,8.5,45.3,16.1,67.8,24.6c10.5,4,21.5,7.9,32.4,10.3c8.2,1.8,16.3,.6,24.6,1.5c6.4,.7,12.6,1.4,19,2.3c3.4,.5,11.1,1.2,13.9,-1.3c-2.7,-1.6,-6.3,-3.3,-7.4,-6.5c2.1,3.7,7.6,3.2,10.6,6.5c-2.9,2.9,-7.1,4.9,-9.7,8c2.7,-.6,6.4,-2.5,7.4,-5.5M528.3,827.5c-4.3,1.1,-7.4,4,-11.5,5.5c-4.9,1.7,-10.8,2.8,-15.9,4c-4.2,1,-8.6,.9,-12.8,1.7c-3.2,.6,-7.5,2.2,-10.6,1.2c2.7,-2.4,2.2,-6,4.8,-8.7c-.5,2.5,-6,7.9,-8.6,8c1.5,4.4,8.9,4.9,11.6,8.1c-2.7,.9,-6.6,-.4,-7,-3.5m64.6,9c4.6,-.3,7.8,-2,12.1,-2.6c4.1,-.5,7.3,-.3,11.3,-1.4c4.1,-1.2,7.9,-1.6,12,-2.2c3.9,-.6,7.3,-3,11.4,-2.6c-6.8,.1,-12.1,.7,-18.7,2.5c-3.1,.9,-17.9,2.4,-19.2,5.9c13.1,-3.2,25.8,-9.8,39.8,-9.7c-7.7,2.4,-16,3.6,-23.9,5.1M427.4,172.7c7.9,-.4,16.4,-.7,24.1,-.9c5.7,-.1,11.5,-.2,17.3,-.2c5.9,0,11.5,-.1,17.1,-.2c6.3,-.2,15,-.2,20.9,.2c-17.2,-.1,-33.4,.8,-50.5,.8c-9.4,0,-19,.7,-27.9,.5c14.9,0,30.3,-.5,45.2,-.7c11.2,-.2,22.8,0,33.7,-.4c-2.6,-.6,-11.2,-.1,-14.8,0c-10,.2,-20,.5,-30.1,.7c-14,.3,-28.3,.7,-42.4,.7m88.8,579.3c-6.6,4.6,-15.3,9.5,-23.3,9.8c1.1,-2.1,2.5,-4.4,2,-6.9c1.5,5.4,-5.1,4.2,-5.9,8.1c3.7,-.3,6.9,3.2,9.6,4.7c-3.1,-.4,-6.2,-2.9,-7.5,-5.7M219,536.4c-1.2,8.3,21.3,14.1,26.3,14.7c-.7,-2.9,-4.3,-2.9,-4.9,-5.5c-.1,2.6,2.7,3.2,4.9,3.5c.4,.7,1.1,2.5,1.3,3.2c-1.5,.9,-3.1,1.7,-4.7,2.3c.7,-1.6,2.6,-2.2,3.6,-3.2" class="g8_53"/>
<g clip-path="url(#cr_53)">
<path d="M-4.5,13.7H-27.4m939.5,0H935M-4.5,1031.2H-27.4m939.5,0H935M13.7,-4.5V-27.4m0,1077v22.9m880,-1077V-27.4m0,1077v22.9" class="g9_53"/>
<path d="M-4.5,13.7H-27.4m939.5,0H935M-4.5,1031.2H-27.4m939.5,0H935M13.7,-4.5V-27.4m0,1077v22.9m880,-1077V-27.4m0,1077v22.9" class="ga_53"/>
</g>
</svg>