<?xml version="1.0" encoding="UTF-8" standalone="no"?>
<!DOCTYPE svg PUBLIC "-//W3C//DTD SVG 1.1//EN"
"http://www.w3.org/Graphics/SVG/1.1/DTD/svg11.dtd">
<svg viewBox="0 0 811 1017" version="1.1" xmlns="http://www.w3.org/2000/svg" xmlns:xlink="http://www.w3.org/1999/xlink">
<defs>
<clipPath id="c0_505"><path d="M101.1,507.4V82.5H724.4V507.4Z"/></clipPath>
<style type="text/css"><![CDATA[
.g0_505{
fill: #70A6CC;
}
.g1_505{
fill: #FFFFFF;
}
.g2_505{
fill: #231F20;
}
.g3_505{
fill: #5A5758;
}
.g4_505{
fill: #EFEFEF;
}
.g5_505{
fill: #DFDFDF;
}
.g6_505{
fill: #EC2224;
}
.g7_505{
fill: #23ACDC;
}
.g8_505{
fill: #C9C9C8;
}
.g9_505{
fill: #ED3454;
}
.ga_505{
}
]]></style>
</defs>
<path d="M156.1,711.1H724.4V689.2H156.1Z" class="g0_505"/>
<path clip-path="url(#c0_505)" d="M103.4,388.2h621V84.8h-621Z" class="g1_505"/>
<path d="M240.5,223.9H387.6V191.6H240.5Z" class="g1_505"/>
<path d="M240.5,191.6v.4H387.2v31.5H240.9V191.6h-.4v.4v-.4h-.3v32.3l.1,.2l.2,.1H387.6l.3,-.1l.1,-.2V191.6l-.1,-.3l-.3,-.1H240.5l-.2,.1l-.1,.3h.3Z" class="g2_505"/>
<path d="M463.9,191.4v.4H649.4v31.5H464.3V191.4h-.4v.4v-.4h-.3v32.3l.1,.2l.2,.1H649.8l.3,-.1l.1,-.2V191.4l-.1,-.3l-.3,-.1H463.9l-.2,.1l-.1,.3h.3Z" class="g2_505"/>
<path d="M391.2,296v.4H547.7v31.5H391.6V296h-.4v.4V296h-.4v32.3l.1,.3l.3,.1H548l.3,-.1l.1,-.3V296l-.1,-.2l-.3,-.2H391.2l-.3,.2l-.1,.2h.4Z" class="g2_505"/>
<path d="M570.8,296.5v.3H679.5v31.6H571.2V296.5h-.4v.3v-.3h-.3v32.3l.1,.2l.2,.2H679.9l.3,-.2l.1,-.2V296.5l-.1,-.3l-.3,-.1H570.8l-.2,.1l-.1,.3h.3Z" class="g2_505"/>
<path d="M387.6,208.1l68,-.1v-.8l-68,.1Z" class="g2_505"/>
<path d="M454.1,209.8l8.3,-2.2l-8.3,-2.2v4.4Z" class="g2_505"/>
<path d="M543.1,223.4l-1.4,1.8l.5,.4l1.5,-1.7Z" class="g2_505"/>
<path d="M540.7,226.3l-3,3.5l.5,.5l3,-3.5Zm-4,4.7l-3,3.5l.5,.5l3,-3.5Zm-4,4.7l-3.1,3.5l.6,.5l3,-3.5Zm-4.1,4.7l-3,3.5l.6,.5l3,-3.5Zm-4,4.7l-3,3.5l.6,.5l3,-3.5Zm-4,4.7l-3,3.5l.6,.5l3,-3.5Zm-4,4.7l-3,3.5l.6,.5l3,-3.5Zm-4,4.7l-3,3.5l.6,.5l3,-3.5Zm-4,4.7l-3,3.5l.6,.5l3,-3.5Zm-4,4.7l-3,3.5l.6,.5l3,-3.5Zm-4,4.7l-3,3.5l.6,.5l3,-3.5Zm-4,4.7l-3,3.5l.6,.5l3,-3.5Zm-4,4.7l-3,3.5l.6,.5l3,-3.5Z" class="g2_505"/>
<path d="M488.6,287.4l-1.5,1.7l.6,.5l1.5,-1.7Z" class="g2_505"/>
<path d="M486.7,286.8l-3.7,7.7l7.1,-4.9l-3.4,-2.8Z" class="g2_505"/>
<path d="M567.1,223.9l1.2,1.9l.7,-.5l-1.3,-1.9Z" class="g2_505"/>
<path d="M569.2,227l2.6,3.8l.6,-.4l-2.6,-3.8Zm3.4,5.1l2.6,3.8l.6,-.4l-2.6,-3.8Zm3.4,5l2.6,3.8l.6,-.4l-2.6,-3.8Zm3.4,5.1L582,246l.6,-.4l-2.5,-3.8Zm3.4,5.1l2.6,3.8l.6,-.5l-2.5,-3.8Zm3.4,5l2.6,3.8l.6,-.4l-2.5,-3.8Zm3.5,5.1l2.5,3.8l.6,-.5l-2.5,-3.8Zm3.4,5l2.5,3.8l.7,-.4L593.7,262Zm3.4,5.1l2.5,3.8l.7,-.5l-2.6,-3.7Zm3.4,5l2.5,3.8l.7,-.4l-2.6,-3.8Zm3.4,5.1l2.5,3.8l.7,-.4l-2.6,-3.8Zm3.4,5.1l2.6,3.7l.6,-.4l-2.6,-3.8Z" class="g2_505"/>
<path d="M610.1,287.7l1.3,1.9l.6,-.4l-1.3,-1.9Z" class="g2_505"/>
<path d="M609,289.4l6.5,5.6l-2.8,-8.1l-3.7,2.5Z" class="g2_505"/>
<path d="M191.5,209.1l40.2,.3v-.8l-40.2,-.3Z" class="g2_505"/>
<path d="M230.2,211.2l8.3,-2.1l-8.3,-2.3v4.4Z" class="g2_505"/>
<path d="M188,189.2v-2.9c0,-1.8,-1.4,-3.2,-3.2,-3.2H133.2c-1.8,0,-3.3,1.4,-3.3,3.2v2.9H188Z" class="g2_505"/>
<path d="M143,189.2H129.9v-2.9c0,-1.8,1.5,-3.2,3.3,-3.2h13.4l-3.6,6.1Z" class="g3_505"/>
<path d="M130.8,230.1h56.3v-40H130.8Z" class="g1_505"/>
<path d="M186.2,191v38.2H131.7V191h54.5m1.8,-1.8H129.9V231H188Z" class="g4_505"/>
<path d="M185.3,192v36.3H132.6V192h52.7m.5,-.5H132.2v37.3h53.6Z" class="g5_505"/>
<path d="M135.4,186.1c0,.6,-.4,1,-.9,1c-.5,0,-.9,-.4,-.9,-1c0,-.5,.4,-.9,.9,-.9c.5,0,.9,.4,.9,.9Z" class="g6_505"/>
<path d="M138.2,186.1c0,.6,-.4,1,-.9,1c-.5,0,-1,-.4,-1,-1c0,-.5,.5,-.9,1,-.9c.5,0,.9,.4,.9,.9Z" class="g7_505"/>
<path d="M141,186.1c0,.6,-.4,1,-.9,1c-.6,0,-1,-.4,-1,-1c0,-.5,.4,-.9,1,-.9c.5,0,.9,.4,.9,.9Z" class="g1_505"/>
<path d="M178.5,187.8H149.3c-.9,0,-1.6,-.7,-1.6,-1.7c0,-.8,.7,-1.6,1.6,-1.6h29.2c.9,0,1.7,.7,1.7,1.6c-.1,.9,-.8,1.7,-1.7,1.7Z" class="g1_505"/>
<path d="M150.4,185.4l.2,.9c.1,.1,.1,.3,.1,.5h.1c0,-.2,0,-.4,.1,-.5l.3,-.9h.2l.3,.9c0,.2,.1,.4,.1,.5c.1,-.1,.1,-.3,.2,-.5l.2,-.9h.3l-.5,1.7h-.3l-.3,-.8c0,-.2,-.1,-.4,-.1,-.6c0,.2,-.1,.4,-.1,.6l-.3,.8h-.3l-.5,-1.7h.3Z" class="g2_505"/>
<path d="M153,185.4l.2,.9c.1,.1,.1,.3,.1,.5h.1c0,-.2,0,-.4,.1,-.5l.3,-.9h.2l.3,.9c0,.2,.1,.4,.1,.5c.1,-.1,.1,-.3,.2,-.5l.2,-.9h.3l-.5,1.7h-.3l-.3,-.8c0,-.2,-.1,-.4,-.1,-.6c0,.2,-.1,.4,-.1,.6l-.3,.8h-.3l-.5,-1.7h.3Z" class="g2_505"/>
<path d="M155.6,185.4l.2,.9c.1,.1,.1,.3,.2,.5c0,-.2,.1,-.4,.1,-.5l.3,-.9h.2l.3,.9c.1,.2,.1,.4,.1,.5h.1c0,-.1,0,-.3,.1,-.5l.2,-.9h.3l-.5,1.7h-.3l-.2,-.8c-.1,-.2,-.1,-.4,-.2,-.6c0,.2,-.1,.4,-.1,.6l-.3,.8h-.3l-.5,-1.7h.3Z" class="g2_505"/>
<path d="M157.8,186.9l.3,-.2l.2,.2c0,.1,-.1,.2,-.3,.2l-.2,-.2Z" class="g2_505"/>
<path d="M182.3,186.4h2.6V186h-2.6Z" class="g1_505"/>
<path d="M185.1,186.2l-1.3,1.3l-.4,-.3l1.1,-1l-1.1,-1.1l.4,-.3l1.3,1.4Z" class="g1_505"/>
<path d="M177,185.6h1.7l-.9,1.1l-.8,-1.1Z" class="g8_505"/>
<path d="M161.4,221h3.1v-8.5h-3.1Z" class="g9_505"/>
<path d="M166.6,221h3.1v-5h-3.1Z" class="g7_505"/>
<path d="M156.2,221h3.1V207.7h-3.1Z" class="g7_505"/>
<path d="M151,221h3.1V199.2H151Z" class="g9_505"/>
<path d="M145.8,221h3.1V203.6h-3.1Z" class="g7_505"/>
<path d="M140.6,221.1h3.1V210.6h-3.1Z" class="g9_505"/>
<path d="M168.5,204.2l1.3,7.6l2.1,-2.2l4.8,4.8l2,-2.1l-4.8,-4.7l2.1,-2.1l-7.5,-1.3Z" class="g7_505"/>
<path d="M271.6,131.6c0,5,1.8,8.4,4.6,11.1c4.1,4.1,10.1,6.8,15.2,11.8c5,5,9,12.2,9,25.3h.5c0,-17.6,-7.3,-24.9,-14.5,-30c-3.6,-2.6,-7.2,-4.8,-9.9,-7.4c-2.7,-2.7,-4.4,-5.9,-4.4,-10.8h-.5Z" class="g2_505"/>
<path d="M297.7,178.9l2.8,5l2.9,-4.9l-5.7,-.1Z" class="g2_505"/>
<path d="M551.5,129.6c-6.2,9.7,-8.6,19.9,-8.6,32.1c0,6.1,.6,12.6,1.6,19.8l.5,-.1c-1.1,-7.2,-1.7,-13.7,-1.7,-19.7c0,-12.1,2.5,-22.3,8.6,-31.9l-.4,-.2Z" class="g2_505"/>
<path d="M541.8,181l3.6,4.5l2.1,-5.3l-5.7,.8Z" class="g2_505"/>
<path d="M255,325.7c10.8,-5.7,34.8,-24,67.5,-41c32.7,-17,74.1,-32.6,119.6,-32.6c15.2,0,30.8,1.8,46.7,5.8l.1,-.5c-15.9,-4,-31.6,-5.7,-46.8,-5.7c-45.6,0,-87.1,15.6,-119.8,32.6c-32.8,17,-56.8,35.4,-67.5,41l.2,.4Z" class="g2_505"/>
<path d="M487.4,260.3l5.5,-1.6l-4.2,-4l-1.3,5.6Z" class="g2_505"/>
<path d="M464.6,806.2v3.2l-.3,-.1L458,806.4l-.4,-.2l.4,-.2l6.3,-2.9l.3,-.1v.3l-.1,.2l-6.3,2.9L458,806h.2l6.3,3l-.2,.3l-.1,-.2v-2.9Z" class="ga_505"/>
<path d="M464.2,806.2h.4v-2.9h-.4Z" class="ga_505"/>
<path d="M464.6,806.4h18.7V806H464.6Z" class="ga_505"/>
<path d="M482.9,806.2h.4V782.1h-.4Z" class="ga_505"/>
<path d="M489.5,837.3v3.2l-.3,-.1L483,837.5l-.4,-.2l.4,-.2l6.2,-2.9l.3,-.1v.3l-.1,.1l-6.2,3l-.2,-.4h.2l6.2,2.9l-.2,.4l-.1,-.2v-2.9Z" class="ga_505"/>
<path d="M489.1,837.3h.4v-2.9h-.4Z" class="ga_505"/>
<path d="M508.8,863.6h.3V837.1h-.3Z" class="ga_505"/>
<path d="M489.5,837.5h19.4v-.4H489.5Z" class="ga_505"/>
</svg>