<?xml version="1.0" encoding="UTF-8" standalone="no"?>
<!DOCTYPE svg PUBLIC "-//W3C//DTD SVG 1.1//EN"
"http://www.w3.org/Graphics/SVG/1.1/DTD/svg11.dtd">
<svg viewBox="0 0 931 1096" version="1.1" xmlns="http://www.w3.org/2000/svg" xmlns:xlink="http://www.w3.org/1999/xlink">
<defs>
<clipPath id="c0_265"><path d="M178.2,428.8L113.5,370.7c10.1,8.1,35.3,13.9,64.7,13.9c28.2,0,52.5,-5.3,63.3,-13l-63.3,57.2ZM113.5,370.7c-.7,-.5,-1.2,-1,-1.8,-1.6l1.8,1.6Z"/></clipPath>
<clipPath id="c1_265"><path d="M108.5,466.4v-164h192v164Z"/></clipPath>
<clipPath id="c2_265"><path d="M107,579.3V545.7H880v33.6Z"/></clipPath>
<style type="text/css"><![CDATA[
.g0_265{
fill: none;
stroke: #241F1F;
stroke-width: 0.458;
stroke-miterlimit: 10;
}
.g1_265{
fill: none;
stroke: #241F1F;
stroke-width: 0.763;
stroke-miterlimit: 10;
}
.g2_265{
fill: none;
stroke: #241F1F;
stroke-width: 0.534;
stroke-miterlimit: 10;
}
.g3_265{
fill: #42B6DD;
}
.g4_265{
fill: #43B6DD;
}
.g5_265{
fill: #45B6DD;
}
.g6_265{
fill: #47B7DE;
}
.g7_265{
fill: #49B8DE;
}
.g8_265{
fill: #4BB8DE;
}
.g9_265{
fill: #4CB8DE;
}
.ga_265{
fill: #4EB8DE;
}
.gb_265{
fill: #50B9DF;
}
.gc_265{
fill: #52B9DF;
}
.gd_265{
fill: #53BADF;
}
.ge_265{
fill: #54BADF;
}
.gf_265{
fill: #56BBE0;
}
.gg_265{
fill: #57BBE0;
}
.gh_265{
fill: #59BBE0;
}
.gi_265{
fill: #5CBCE1;
}
.gj_265{
fill: #5DBDE1;
}
.gk_265{
fill: #5EBDE1;
}
.gl_265{
fill: #60BDE1;
}
.gm_265{
fill: #61BDE1;
}
.gn_265{
fill: #63BEE2;
}
.go_265{
fill: #64BEE2;
}
.gp_265{
fill: #65BFE2;
}
.gq_265{
fill: #66BFE3;
}
.gr_265{
fill: #67C0E3;
}
.gs_265{
fill: #68C0E3;
}
.gt_265{
fill: #6AC0E3;
}
.gu_265{
fill: #6BC1E4;
}
.gv_265{
fill: #6DC2E4;
}
.gw_265{
fill: #6EC2E4;
}
.gx_265{
fill: #6FC2E4;
}
.gy_265{
fill: #70C3E4;
}
.gz_265{
fill: #72C4E5;
}
.g10_265{
fill: #73C4E5;
}
.g11_265{
fill: #75C4E5;
}
.g12_265{
fill: #76C5E5;
}
.g13_265{
fill: #78C6E6;
}
.g14_265{
fill: #79C6E6;
}
.g15_265{
fill: #7AC6E6;
}
.g16_265{
fill: #7CC7E7;
}
.g17_265{
fill: #7DC7E7;
}
.g18_265{
fill: #7FC8E7;
}
.g19_265{
fill: #80C9E8;
}
.g1a_265{
fill: #81C9E8;
}
.g1b_265{
fill: #82C9E8;
}
.g1c_265{
fill: #84CAE9;
}
.g1d_265{
fill: #85CBE9;
}
.g1e_265{
fill: #86CBE9;
}
.g1f_265{
fill: #87CBE9;
}
.g1g_265{
fill: #89CCEA;
}
.g1h_265{
fill: #8ACDEA;
}
.g1i_265{
fill: #8BCDEA;
}
.g1j_265{
fill: #8DCDEA;
}
.g1k_265{
fill: #8ECEEA;
}
.g1l_265{
fill: #90CFEB;
}
.g1m_265{
fill: #91CFEB;
}
.g1n_265{
fill: #92D0EB;
}
.g1o_265{
fill: #93D0EB;
}
.g1p_265{
fill: #95D1EC;
}
.g1q_265{
fill: #96D1EC;
}
.g1r_265{
fill: #97D2EC;
}
.g1s_265{
fill: #98D2EC;
}
.g1t_265{
fill: #99D2EC;
}
.g1u_265{
fill: #9BD3ED;
}
.g1v_265{
fill: #9CD4ED;
}
.g1w_265{
fill: #9DD4ED;
}
.g1x_265{
fill: #9ED5ED;
}
.g1y_265{
fill: #A0D6EE;
}
.g1z_265{
fill: #A1D6EE;
}
.g20_265{
fill: #A2D6EE;
}
.g21_265{
fill: #A3D7EE;
}
.g22_265{
fill: #A4D7EE;
}
.g23_265{
fill: #A6D8EF;
}
.g24_265{
fill: #A7D9EF;
}
.g25_265{
fill: #A8D9EF;
}
.g26_265{
fill: #A9D9EF;
}
.g27_265{
fill: #ABDAF0;
}
.g28_265{
fill: #FFD9AC;
}
.g29_265{
fill: #619F9E;
}
.g2a_265{
fill: #63A09E;
}
.g2b_265{
fill: #64A09E;
}
.g2c_265{
fill: #65A09E;
}
.g2d_265{
fill: #66A19E;
}
.g2e_265{
fill: #67A19F;
}
.g2f_265{
fill: #69A19F;
}
.g2g_265{
fill: #6AA29F;
}
.g2h_265{
fill: #6BA29F;
}
.g2i_265{
fill: #6CA29F;
}
.g2j_265{
fill: #6DA39F;
}
.g2k_265{
fill: #6EA39F;
}
.g2l_265{
fill: #6FA39F;
}
.g2m_265{
fill: #70A39F;
}
.g2n_265{
fill: #72A4A0;
}
.g2o_265{
fill: #73A4A0;
}
.g2p_265{
fill: #74A4A0;
}
.g2q_265{
fill: #75A4A0;
}
.g2r_265{
fill: #76A5A0;
}
.g2s_265{
fill: #77A5A0;
}
.g2t_265{
fill: #78A5A0;
}
.g2u_265{
fill: #79A6A0;
}
.g2v_265{
fill: #7AA6A0;
}
.g2w_265{
fill: #7CA7A1;
}
.g2x_265{
fill: #7DA7A1;
}
.g2y_265{
fill: #7EA7A1;
}
.g2z_265{
fill: #81A8A1;
}
.g30_265{
fill: #82A9A1;
}
.g31_265{
fill: #83A9A1;
}
.g32_265{
fill: #84A9A1;
}
.g33_265{
fill: #85AAA2;
}
.g34_265{
fill: #86AAA2;
}
.g35_265{
fill: #00BFF3;
}
.g36_265{
fill: #F9951B;
}
.g37_265{
fill: #B0DCF1;
}
.g38_265{
fill: #969698;
}
.g39_265{
fill: #241F1F;
}
.g3a_265{
fill: #00AEEF;
}
.g3b_265{
fill: none;
stroke: #00AEEF;
stroke-width: 0.763;
stroke-miterlimit: 10;
}
.g3c_265{
fill: none;
stroke: #241F1F;
stroke-width: 0.687;
stroke-miterlimit: 10;
}
]]></style>
</defs>
<path d="M522.1,97.8h23.5M527,117.7h22.7m16.5,0h25.2" class="g0_265"/>
<path d="M572.9,173h44.8m61.7,0h44.8m22.8,0h50.7M464.6,223.4h48.5" class="g1_265"/>
<path d="M447.9,337.7h21.6m-16.8,19.8h22.8m16.5,0h26.2" class="g0_265"/>
<path d="M684.4,485.6h5.4m35.9,0H731m47.9,0h10.7" class="g2_265"/>
<g clip-path="url(#c0_265)">
<path d="M98.2,358.6l80.1,70.2l77.9,-70.2Z" class="g3_265"/>
<path d="M98.4,358.6L178,428.1l77.2,-69.5H98.6Z" class="g4_265"/>
<path d="M98.7,358.6l79,68.9l76.5,-68.9H98.9Z" class="g5_265"/>
<path d="M98.9,358.6l78.5,68.2l75.8,-68.2H99.3Z" class="g6_265"/>
<path d="M99.1,358.6l78,67.6l75,-67.6H99.6Z" class="g7_265"/>
<path d="M99.4,358.6l77.4,66.9l74.3,-66.9H100Z" class="g8_265"/>
<path d="M99.6,358.6l76.9,66.2l73.6,-66.2H100.3Z" class="g9_265"/>
<path d="M99.8,358.6l76.4,65.6l72.9,-65.6H100.7Z" class="ga_265"/>
<path d="M100.1,358.6L176,423.5l72.1,-64.9h-147Z" class="gb_265"/>
<path d="M100.3,358.6l75.3,64.3l71.5,-64.3H101.4Z" class="gc_265"/>
<path d="M100.5,358.6l74.9,63.6l70.7,-63.6H101.8Z" class="gd_265"/>
<path d="M100.8,358.6l74.3,62.9l70,-62.9h-143Z" class="ge_265"/>
<path d="M101,358.6l73.8,62.3l69.3,-62.3H102.5Z" class="gf_265"/>
<path d="M101.2,358.6l73.3,61.6l68.6,-61.6H102.8Z" class="gg_265"/>
<path d="M101.5,358.6l72.7,61l67.9,-61H103.2Z" class="gg_265"/>
<path d="M101.7,358.6l72.2,60.3l67.2,-60.3H103.5Z" class="gh_265"/>
<path d="M101.9,358.6l71.7,59.6l66.5,-59.6H103.9Z" class="gi_265"/>
<path d="M102.2,358.6l71.1,59l65.8,-59H104.3Z" class="gj_265"/>
<path d="M102.4,358.6L173,416.9l65.1,-58.3H104.6Z" class="gk_265"/>
<path d="M102.6,358.6l70.1,57.7l64.4,-57.7H105Z" class="gl_265"/>
<path d="M102.9,358.6l69.5,57l63.6,-57H105.3Z" class="gm_265"/>
<path d="M103.1,358.6l69,56.3L235,358.6H105.7Z" class="gn_265"/>
<path d="M103.3,358.6l68.5,55.7L234,358.6H106Z" class="go_265"/>
<path d="M103.6,358.6l67.9,55l61.5,-55H106.4Z" class="gp_265"/>
<path d="M103.8,358.6l67.4,54.3L232,358.6H106.7Z" class="gq_265"/>
<path d="M104,358.6l66.9,53.7L231,358.6H107.1Z" class="gr_265"/>
<path d="M104.3,358.6l66.3,53l59.4,-53H107.5Z" class="gs_265"/>
<path d="M104.5,358.6L170.3,411L229,358.6H107.8Z" class="gt_265"/>
<path d="M104.7,358.6L170,410.3l58,-51.7H108.2Z" class="gu_265"/>
<path d="M105,358.6l64.7,51l57.3,-51H108.5Z" class="gv_265"/>
<path d="M105.2,358.6L169.4,409L226,358.6H108.9Z" class="gw_265"/>
<path d="M105.4,358.6l63.7,49.7L225,358.6H109.2Z" class="gx_265"/>
<path d="M105.7,358.6l63.1,49.1L224,358.6H109.6Z" class="gy_265"/>
<path d="M105.9,358.6L168.5,407L223,358.6H110Z" class="gz_265"/>
<path d="M106.1,358.6l62.1,47.7L222,358.6H110.3Z" class="g10_265"/>
<path d="M106.4,358.6l61.5,47.1l53,-47.1H110.7Z" class="g11_265"/>
<path d="M106.6,358.6l61,46.4L220,358.6H111Z" class="g12_265"/>
<path d="M106.8,358.6l60.5,45.8l51.6,-45.8H111.4Z" class="g13_265"/>
<path d="M107.1,358.6L167,403.7l50.9,-45.1H111.7Z" class="g14_265"/>
<path d="M107.3,358.6L166.7,403l50.2,-44.4H112.1Z" class="g15_265"/>
<path d="M107.5,358.6l58.9,43.8l49.5,-43.8H112.5Z" class="g16_265"/>
<path d="M107.8,358.6l58.3,43.1l48.8,-43.1H112.8Z" class="g17_265"/>
<path d="M108,358.6l57.8,42.5l48.1,-42.5H113.2Z" class="g18_265"/>
<path d="M108.3,358.6l57.2,41.8l47.4,-41.8H113.5Z" class="g19_265"/>
<path d="M108.5,358.6l56.7,41.1l46.7,-41.1h-98Z" class="g1a_265"/>
<path d="M108.7,358.6l56.2,40.5l46,-40.5H114.2Z" class="g1b_265"/>
<path d="M109,358.6l55.6,39.8l45.3,-39.8H114.6Z" class="g1c_265"/>
<path d="M109.2,358.6l55.1,39.1l44.6,-39.1h-94Z" class="g1d_265"/>
<path d="M109.4,358.6L164,397.1l43.9,-38.5H115.3Z" class="g1e_265"/>
<path d="M109.7,358.6l54,37.8l43.2,-37.8H115.7Z" class="g1f_265"/>
<path d="M109.9,358.6l53.5,37.2l42.5,-37.2H116Z" class="g1g_265"/>
<path d="M110.1,358.6l53.1,36.5l41.7,-36.5H116.4Z" class="g1h_265"/>
<path d="M110.4,358.6l52.4,35.8l41.1,-35.8H116.7Z" class="g1i_265"/>
<path d="M110.6,358.6l52,35.2l40.2,-35.2H117.1Z" class="g1j_265"/>
<path d="M110.8,358.6l51.5,34.5l39.5,-34.5H117.4Z" class="g1k_265"/>
<path d="M111.1,358.6L162,392.5l38.8,-33.9h-83Z" class="g1l_265"/>
<path d="M111.3,358.6l50.4,33.2l38.1,-33.2H118.2Z" class="g1m_265"/>
<path d="M111.5,358.6l49.9,32.5l37.4,-32.5H118.5Z" class="g1n_265"/>
<path d="M111.8,358.6l49.3,31.9l36.7,-31.9H118.9Z" class="g1o_265"/>
<path d="M112,358.6l48.8,31.2l36,-31.2H119.2Z" class="g1p_265"/>
<path d="M112.2,358.6l48.3,30.6l35.3,-30.6H119.6Z" class="g1q_265"/>
<path d="M112.5,358.6l47.7,29.9l34.6,-29.9H119.9Z" class="g1r_265"/>
<path d="M112.7,358.6l47.2,29.2l33.9,-29.2H120.3Z" class="g1s_265"/>
<path d="M112.9,358.6l46.7,28.6l33.2,-28.6H120.6Z" class="g1t_265"/>
<path d="M113.2,358.6l46.1,27.9l32.5,-27.9H121Z" class="g1u_265"/>
<path d="M113.4,358.6L159,385.9l31.8,-27.3H121.4Z" class="g1v_265"/>
<path d="M113.6,358.6l45.1,26.6l31.1,-26.6H121.7Z" class="g1w_265"/>
<path d="M113.9,358.6l44.5,25.9l30.4,-25.9H122.1Z" class="g1x_265"/>
<path d="M114.1,358.6l44,25.3l29.6,-25.3H122.4Z" class="g1y_265"/>
<path d="M114.3,358.6l43.5,24.6l28.9,-24.6H122.8Z" class="g1z_265"/>
<path d="M114.6,358.6l42.9,23.9l28.2,-23.9H123.1Z" class="g20_265"/>
<path d="M114.8,358.6l42.4,23.3l27.5,-23.3H123.5Z" class="g21_265"/>
<path d="M115,358.6l41.9,22.6l26.8,-22.6H123.8Z" class="g22_265"/>
<path d="M115.3,358.6l41.3,22l26.1,-22H124.2Z" class="g23_265"/>
<path d="M115.5,358.6l40.8,21.3l25.4,-21.3H124.6Z" class="g24_265"/>
<path d="M115.7,358.6L156,379.2l24.7,-20.6H124.9Z" class="g25_265"/>
<path d="M116,358.6l39.7,20l24,-20H125.3Z" class="g26_265"/>
<path d="M116.2,358.6l39.2,19.3l23.3,-19.3H125.6Z" class="g27_265"/>
</g>
<path d="M178.2,450.3c-38.3,0,-69.3,-9.8,-69.3,-21.8C108.9,419,128.2,411,155,408l3,2.6l16.8,15.1l3.5,3.1l23,-20.8c26.8,3,46,11,46,20.5c0,12,-30.9,21.8,-69.1,21.8Z" class="g28_265"/>
<path d="M178.3,428.8l-3.5,-3.1L158,410.6l20,17.5l22.5,-20.2c.3,0,.5,0,.8,.1l-23,20.8Z" class="g29_265"/>
<path d="M178,428.1L158,410.6L155,408c.1,-.1,.2,-.1,.3,-.1l22.4,19.6l21.9,-19.7c.3,0,.6,0,.9,.1L178,428.1Z" class="g2a_265"/>
<path d="M177.7,427.5L155.3,407.9c.1,0,.2,0,.3,0l21.8,18.9l21.3,-19.1c.3,0,.6,0,.9,.1l-21.9,19.7Z" class="g2b_265"/>
<path d="M177.4,426.8L155.6,407.9c.2,0,.3,0,.4,0l21.1,18.3l20.6,-18.6c.4,0,.7,.1,1,.1l-21.3,19.1Z" class="g2c_265"/>
<path d="M177.1,426.2L156,407.9c.1,-.1,.2,-.1,.4,-.1l20.4,17.7l20,-18c.3,0,.6,.1,.9,.1l-20.6,18.6Z" class="g2d_265"/>
<path d="M176.8,425.5L156.4,407.8c.1,0,.2,0,.3,0l19.8,17l19.4,-17.4c.3,.1,.6,.1,.9,.1l-20,18Z" class="g2e_265"/>
<path d="M176.5,424.8l-19.8,-17c.2,0,.3,0,.4,-.1l19.1,16.5l18.7,-16.8c.4,0,.7,0,1,0l-19.4,17.4Z" class="g2f_265"/>
<path d="M176.2,424.2L157.1,407.7c.1,0,.2,0,.4,0L176,423.5l18,-16.2c.3,0,.6,0,.9,.1l-18.7,16.8Z" class="g2g_265"/>
<path d="M176,423.5L157.5,407.7c.1,0,.2,0,.4,0l17.7,15.2L193,407.2c.4,0,.7,.1,1,.1l-18,16.2Z" class="g2h_265"/>
<path d="M175.6,422.9L157.9,407.7c.1,0,.2,-.1,.3,-.1l17.2,14.6l16.7,-15c.3,0,.6,0,.9,0l-17.4,15.7Z" class="g2i_265"/>
<path d="M175.4,422.2L158.2,407.6c.2,0,.3,0,.4,0l16.5,13.9l16,-14.4c.3,0,.7,0,1,.1l-16.7,15Z" class="g2j_265"/>
<path d="M175.1,421.5L158.6,407.6c.1,0,.3,0,.4,0l15.8,13.3L190.2,407c.3,.1,.6,.1,.9,.1l-16,14.4Z" class="g2k_265"/>
<path d="M174.8,420.9L159,407.6c.1,-.1,.3,-.1,.4,-.1l15.1,12.7L189.2,407c.3,0,.6,0,1,0l-15.4,13.9Z" class="g2l_265"/>
<path d="M174.5,420.2L159.4,407.5c.1,0,.3,0,.4,0l14.4,12.1l14,-12.6c.3,0,.7,0,1,0l-14.7,13.2Z" class="g2m_265"/>
<path d="M174.2,419.6L159.8,407.5c.1,0,.3,0,.4,0l13.7,11.4l13.3,-12c.4,0,.7,0,1,.1l-14,12.6Z" class="g2n_265"/>
<path d="M173.9,418.9L160.2,407.5c.1,-.1,.2,-.1,.4,-.1l13,10.8l12.7,-11.3c.3,0,.6,0,.9,0l-13.3,12Z" class="g2o_265"/>
<path d="M173.6,418.2l-13,-10.8c.1,0,.3,0,.4,0l12.3,10.2l12,-10.8c.3,0,.6,0,1,.1l-12.7,11.3Z" class="g2p_265"/>
<path d="M173.3,417.6L161,407.4c.1,0,.3,0,.4,0l11.6,9.5l11.2,-10.1c.4,0,.7,0,1.1,0l-12,10.8Z" class="g2q_265"/>
<path d="M173,416.9l-11.6,-9.5c.1,0,.3,-.1,.4,-.1l10.9,9l10.6,-9.5c.3,0,.6,0,.9,0L173,416.9Z" class="g2r_265"/>
<path d="M172.7,416.3l-10.9,-9c.2,0,.3,0,.5,0l10.1,8.3l9.8,-8.8c.4,0,.7,0,1.1,0l-10.6,9.5Z" class="g2s_265"/>
<path d="M172.4,415.6l-10.1,-8.3c.1,0,.2,0,.4,0l9.4,7.6l9.1,-8.2c.4,0,.7,.1,1,.1l-9.8,8.8Z" class="g2t_265"/>
<path d="M172.1,414.9l-9.4,-7.6c.1,0,.3,-.1,.4,-.1l8.7,7.1l8.4,-7.6c.4,0,.7,0,1,0l-9.1,8.2Z" class="g2u_265"/>
<path d="M171.8,414.3l-8.7,-7.1c.2,0,.3,0,.5,0l7.9,6.4l7.7,-6.9c.3,0,.7,0,1,0l-8.4,7.6Z" class="g2v_265"/>
<path d="M171.5,413.6l-7.9,-6.4c.1,0,.3,0,.4,0l7.2,5.7l7,-6.2c.3,0,.7,0,1,0l-7.7,6.9Z" class="g2w_265"/>
<path d="M171.2,412.9L164,407.2c.2,0,.3,0,.5,-.1l6.4,5.2l6.2,-5.6c.4,0,.7,0,1.1,0l-7,6.2Z" class="g2x_265"/>
<path d="M170.9,412.3l-6.4,-5.2c.1,0,.3,0,.5,0l5.6,4.5l5.5,-4.9c.3,0,.7,0,1,0l-6.2,5.6Z" class="g2y_265"/>
<path d="M170.6,411.6L165,407.1c.1,0,.3,0,.4,0l4.9,3.9l4.7,-4.3c.4,0,.7,0,1.1,0l-5.5,4.9Z" class="g2y_265"/>
<path d="M170.3,411l-4.9,-3.9c.2,0,.3,0,.5,0l4.1,3.2l4,-3.5c.3,0,.7,-.1,1,-.1l-4.7,4.3Z" class="g2z_265"/>
<path d="M170,410.3l-4.1,-3.2c.2,-.1,.3,-.1,.5,-.1l3.3,2.6l3.2,-2.8c.4,0,.7,0,1.1,0l-4,3.5Z" class="g30_265"/>
<path d="M169.7,409.6L166.4,407c.1,0,.3,0,.5,0l2.5,2l2.4,-2.2c.4,0,.8,0,1.1,0l-3.2,2.8Z" class="g31_265"/>
<path d="M169.4,409l-2.5,-2c.1,0,.3,0,.5,0l1.7,1.3l1.7,-1.5c.3,0,.7,0,1,0l-2.4,2.2Z" class="g32_265"/>
<path d="M169.1,408.3L167.4,407c.2,0,.3,0,.5,0l.9,.7l.9,-.8c.3,0,.7,-.1,1.1,-.1l-1.7,1.5Z" class="g33_265"/>
<path d="M168.8,407.7l-.9,-.7c.2,0,.3,-.1,.5,-.1l.1,.1l.1,-.1c.4,0,.7,0,1.1,0l-.9,.8Z" class="g33_265"/>
<path d="M168.5,407l-.1,-.1q.1,0,.2,0l-.1,.1Z" class="g34_265"/>
<path d="M111.7,369.1l-.2,.3c4.5,4.5,13.3,8.4,25,11.1c11.6,2.8,26,4.4,41.7,4.4c28.3,0,52.6,-5.3,63.4,-13l-.1,-.3l-.2,-.2l-63.1,57L112,368.9l-.5,.5l.2,-.3l-.2,.3l66.7,59.8l63.5,-57.4l-.4,-.4c-10.6,7.5,-34.9,12.9,-63.1,12.9c-15.6,0,-30,-1.6,-41.6,-4.4C125,377.2,116.3,373.3,112,368.9l-.3,.2l-.2,.3Z" class="g35_265"/>
<path clip-path="url(#c1_265)" d="M201,408.4c13.4,1.5,25,4.2,33.1,7.8c4.1,1.8,7.3,3.7,9.5,5.8c2.2,2.1,3.3,4.3,3.3,6.5c0,2.8,-1.8,5.5,-5.3,8.1c-5.1,3.8,-13.8,7.2,-24.9,9.5c-11,2.3,-24.2,3.7,-38.5,3.7c-19.1,0,-36.4,-2.4,-48.8,-6.3c-6.3,-2,-11.3,-4.3,-14.7,-6.9c-3.5,-2.6,-5.3,-5.3,-5.3,-8.1c0,-2.2,1.1,-4.4,3.3,-6.5c6.5,-6.2,22.2,-11.3,42.3,-13.6l-.1,-.9c-13.4,1.5,-25,4.3,-33.2,7.9c-4.1,1.8,-7.4,3.8,-9.7,6c-2.2,2.2,-3.5,4.6,-3.5,7.1c0,3.2,2.1,6.2,5.6,8.8c5.4,4,14.2,7.3,25.3,9.7c11,2.4,24.4,3.7,38.8,3.7c19.1,0,36.4,-2.4,49,-6.4c6.3,-1.9,11.4,-4.3,15,-7c3.5,-2.6,5.6,-5.6,5.6,-8.8c0,-2.5,-1.3,-5,-3.6,-7.1c-6.9,-6.6,-22.8,-11.7,-43.1,-13.9Z" class="g36_265"/>
<path d="M108.9,362.8c0,-12,31,-21.8,69.3,-21.8c38.2,0,69.2,9.8,69.2,21.8c0,12,-31,21.8,-69.2,21.8c-38.3,0,-69.3,-9.8,-69.3,-21.8Z" class="g37_265"/>
<path d="M108.9,362.8h.3c0,-2.9,1.9,-5.6,5.4,-8.2c10.3,-7.8,34.9,-13.3,63.6,-13.3c19,0,36.3,2.5,48.8,6.4c6.2,2,11.3,4.3,14.7,6.9c3.5,2.6,5.4,5.3,5.4,8.2c0,2.9,-1.9,5.7,-5.4,8.2c-10.3,7.8,-34.9,13.3,-63.5,13.3c-19.1,0,-36.4,-2.4,-48.9,-6.4C123.1,376,118,373.6,114.6,371c-3.5,-2.5,-5.4,-5.3,-5.4,-8.2h-.6c0,3.2,2.1,6.1,5.6,8.7c10.6,7.9,35.2,13.4,64,13.4c19.1,0,36.4,-2.5,49,-6.4c6.3,-2,11.4,-4.3,14.9,-7c3.5,-2.6,5.6,-5.5,5.6,-8.7c0,-3.1,-2.1,-6.1,-5.6,-8.7c-10.6,-7.9,-35.2,-13.4,-63.9,-13.4c-19.2,0,-36.5,2.5,-49.1,6.4c-6.3,2,-11.4,4.3,-14.9,7c-3.5,2.6,-5.6,5.6,-5.6,8.7Z" class="g35_265"/>
<path d="M111.5,369.4L178,429h.5L246,368l-.5,-.5l-67.3,60.9L111.9,368.9Z" class="g35_265"/>
<path d="M178.6,419.5h-.7v9.3h.7Zm0,-12.5h-.7v9.3h.7Zm0,-12.6h-.7v9.4h.7Zm0,-12.5h-.7v9.3h.7Zm0,-12.5h-.7v9.3h.7Zm0,-6.6h-.7v3.4h.7Z" class="g38_265"/>
<path d="M177.8,362.8h.7V307.3h-.7v55.5Z" class="g39_265"/>
<path clip-path="url(#c1_265)" fill-rule="evenodd" d="M178.2,307.3l-2.5,1.7l2.5,-6.6l2.4,6.6Z" class="g39_265"/>
<path d="M178.2,429.1L289.3,444l.1,-.6L178.3,428.5Z" class="g39_265"/>
<path fill-rule="evenodd" d="M289.4,443.7L288.1,441l6.1,3.4l-6.8,1.5Z" class="g39_265"/>
<path d="M178.1,428.6L131.3,463l.4,.5l46.7,-34.4Z" class="g39_265"/>
<path fill-rule="evenodd" d="M131.5,463.3l2.8,1l-6.7,1.9l3.8,-5.9Z" class="g39_265"/>
<path d="M200.3,396.6h26v-.4h-26v.4Z" class="g39_265"/>
<path d="M197,396.4l4.4,-1.6l-1.1,1.6l1.1,1.7Z" class="g39_265"/>
<path d="M234.5,334l-20.2,16.4l.3,.3l20.2,-16.4Z" class="g39_265"/>
<path d="M211.9,352.6l2.3,-4l.3,1.9l1.8,.7Z" class="g39_265"/>
<path d="M176.6,362.7c0,-.9,.7,-1.5,1.6,-1.5c.8,0,1.5,.6,1.5,1.5c0,.8,-.7,1.5,-1.5,1.5c-.9,0,-1.6,-.7,-1.6,-1.5Z" class="g3a_265"/>
<path d="M176.6,362.7h.4c0,-.6,.5,-1.2,1.2,-1.2c.6,0,1.1,.6,1.1,1.2c0,.6,-.5,1.1,-1.1,1.1c-.7,0,-1.2,-.5,-1.2,-1.1h-.8c0,1,.9,1.9,2,1.9c1,0,1.9,-.9,1.9,-1.9c0,-1.1,-.9,-1.9,-1.9,-1.9c-1.1,0,-2,.8,-2,1.9Z" class="g3a_265"/>
<image clip-path="url(#c2_265)" preserveAspectRatio="none" x="107" y="546" width="773" height="33" xlink:href="img/1.png"/>
<path d="M108.5,688H466M108.5,791.9H466M108.5,866.8H466M108.5,941.7H466M108.5,1044H466" class="g3b_265"/>
<path d="M171.7,659.6h9m204,74.9h9M183.1,762.8h9m17,0h9.1" class="g3c_265"/>
<path d="M521,666.7H878.5M521,909.6H878.5" class="g3b_265"/>
<path d="M630.9,949.9h45.3" class="g3c_265"/>
</svg>