<?xml version="1.0" encoding="UTF-8" standalone="no"?>
<!DOCTYPE svg PUBLIC "-//W3C//DTD SVG 1.1//EN"
"http://www.w3.org/Graphics/SVG/1.1/DTD/svg11.dtd">
<svg viewBox="0 0 931 1096" version="1.1" xmlns="http://www.w3.org/2000/svg" xmlns:xlink="http://www.w3.org/1999/xlink">
<defs>
<clipPath id="c0_359"><path d="M367.4,978.1c-3.3,0,-6.1,-2.7,-6.1,-6.1V874.2c0,-3.4,2.8,-6.1,6.1,-6.1H523.3c3.3,0,6.1,2.7,6.1,6.1V972c0,3.4,-2.8,6.1,-6.1,6.1Z"/></clipPath>
<clipPath id="c1_359"><path d="M642.3,978.1c-3.4,0,-6.1,-2.7,-6.1,-6.1V874.2c0,-3.4,2.7,-6.1,6.1,-6.1H798.1c3.4,0,6.1,2.7,6.1,6.1V972c0,3.4,-2.7,6.1,-6.1,6.1Z"/></clipPath>
<clipPath id="c2_359"><path d="M108.5,424.7V279.4h220V424.7Z"/></clipPath>
<clipPath id="c3_359"><path d="M128.9,600.1c-3.4,0,-6.1,-2.8,-6.1,-6.1V496.2c0,-3.4,2.7,-6.1,6.1,-6.1H284.8c3.3,0,6.1,2.7,6.1,6.1V594c0,3.3,-2.8,6.1,-6.1,6.1Z"/></clipPath>
<style type="text/css"><![CDATA[
.g0_359{
fill: none;
stroke: #241F1F;
stroke-width: 0.534;
stroke-miterlimit: 3;
}
.g1_359{
fill: none;
stroke: #EE008C;
stroke-width: 0.916;
stroke-miterlimit: 3;
}
.g2_359{
fill: none;
stroke: #00AEEF;
stroke-width: 0.534;
stroke-miterlimit: 3;
}
.g3_359{
fill: none;
stroke: #241F1F;
stroke-width: 0.458;
stroke-miterlimit: 3;
}
.g4_359{
fill: none;
stroke: #241F1F;
stroke-width: 0.381;
stroke-miterlimit: 3;
}
.g5_359{
fill: #241F1F;
}
.g6_359{
fill: none;
stroke: #241F1F;
stroke-width: 0.763;
stroke-miterlimit: 3;
stroke-dasharray: 10,4;
}
.g7_359{
fill: none;
stroke: #00AEEF;
stroke-width: 0.916;
stroke-miterlimit: 3;
}
.g8_359{
fill: none;
stroke: #F9951B;
stroke-width: 0.916;
stroke-miterlimit: 3;
}
.g9_359{
fill: none;
stroke: #6AC48C;
stroke-width: 0.916;
stroke-miterlimit: 3;
}
]]></style>
</defs>
<g clip-path="url(#c0_359)">
<path d="M452.8,867.8H456m-3.2,110.7H456M529.3,925v-3.2M491.9,925v-3.2M417.5,925v-3.2M380.1,925v-3.2m74.3,56.7V867.8m-93,55.6H529.3" class="g0_359"/>
<path d="M488.1,920.1l1,.2h1.1l1.1,.2h1l1.1,.1l1,.1l1.1,.1l1.1,.1l1,.1h1.1l1.1,.1l1,.1h1.1l1,.1l1.1,.1h1.1l1,.1h1.1l1,.1h2.2l1,.1h1.1l1,.1h1.1l1.1,.1h2.1l1,.1H521l1,.1h3.2l1.1,.1h3.1M436.9,895.5l.3,.1l.5,.1l.6,.2l1,.5l1.1,.6l1,.7l1.1,.9l1.1,.9l1,1l1.1,1l1,1l1.1,1l1.1,1.1l1,.9l1.1,1l1,.9l1.1,.9l1.1,.8l1,.8l1.1,.7l1,.7l1.1,.7l1.1,.6l1,.5l1.1,.6l1,.5l1.1,.4l1.1,.5l1,.4l1.1,.4l1,.3l1.1,.4l1.1,.3l1,.3l1.1,.3l1,.2l1.1,.3l1.1,.2l1,.2l1.1,.2l1,.2l1.1,.2l1.1,.2l1,.1l1.1,.2l1,.1l1.1,.2l1.1,.1l1,.1l1.1,.1m-75.3,-7.9l1.1,-.7l1,-.7l1.1,-.7l1.1,-.8l1,-.8l1.1,-.8l1,-.9l1.1,-1l1.1,-.9l1,-1l1.1,-1l1,-1.1l1.1,-1l1.1,-1l1,-.9l1.1,-.9l1,-.8l1.1,-.6L433,896l.5,-.2l.5,-.2h.3l.2,-.1h.4l.2,-.1h1.3l.3,.1h.2m-76,26.2l1,-.1H363l1,-.1h1.1l1.1,-.1h1l1.1,-.1l1,-.1h1.1l1.1,-.1h1l1.1,-.1l1,-.1l1.1,-.1h1.1l1,-.1l1.1,-.1l1,-.1l1.1,-.1l1.1,-.1l1,-.1l1.1,-.1l1,-.2l1.1,-.1l1.1,-.1l1,-.2l1.1,-.1l1,-.2l1.1,-.2l1.1,-.1l1,-.2l1.1,-.2l1,-.2l1.1,-.2l1.1,-.3l1,-.2l1.1,-.3l1,-.3l1.1,-.3l1.1,-.3l1,-.4l1.1,-.4l1.1,-.4l1,-.4l1.1,-.5l1,-.4l1.1,-.6l1.1,-.5l1,-.6" class="g1_359"/>
</g>
<path d="M367.4,868.1H523.3c3.3,0,6.1,2.7,6.1,6.1V972c0,3.4,-2.8,6.1,-6.1,6.1H367.4c-3.3,0,-6.1,-2.7,-6.1,-6.1V874.2c0,-3.4,2.8,-6.1,6.1,-6.1Z" class="g2_359"/>
<path d="M386.9,947.9h58" class="g3_359"/>
<path d="M425.7,933.4c3.5,-3.5,4.2,-7,4.2,-11.9c0,-4.9,-1.5,-8.3,-5,-11.8" class="g4_359"/>
<path d="M422.5,907.4l4.3,1.9l-1.9,.4l-.5,1.9Z" class="g5_359"/>
<g clip-path="url(#c1_359)">
<path d="M727.8,867.8H731m-3.2,110.7H731M804.2,925v-3.2M766.8,925v-3.2M692.5,925v-3.2M655.1,925v-3.2m74.3,56.7V867.8m-93.1,55.6H804.2" class="g0_359"/>
<path d="M793.3,921.8h1l1.1,.1h1l1.1,.1h1l1.1,.1h2.1l1,.1h1.1M745.7,868.3l.2,5.2l.5,8.1l.6,5.9l.5,4.5l.5,3.5l.6,2.9l.5,2.3l1,3.7l1.1,2.7l1,2.1l1.1,1.6l1,1.4l1.1,1.1l1,.9l1.1,.8l1,.7l1.1,.6l1,.5l1.1,.4l1.1,.4l1,.4l1.1,.3l1,.3l1.1,.3l1,.2l1.1,.3l1,.2l1.1,.2l1,.1l1.1,.2l1,.1l1.1,.2l1,.1l1.1,.1l1,.1l1.1,.2h1l1.1,.1l1,.1l1.1,.1l1.1,.1l1,.1H787l1,.1l1.1,.1h1l1.1,.1h1l1.1,.1M745.6,867.5l.1,.8m-5.5,111.1l-.1,-1.9M710.9,932.8h2.4l1.1,.1l1,.1l1.1,.1l1,.1l1.1,.1l1,.2l1.1,.2l1,.3l1.1,.3l1,.3l1.1,.4l1,.4l1.1,.5l1,.6l1.1,.7l1,.8l1.1,1l1,1.2l1.1,1.4l1,1.8l1.1,2.3l1.1,3.1l.5,2l.5,2.3l.5,2.8l.6,3.5l.5,4.4l.5,5.8l.3,3.6l.2,4.3m-58.4,-3l.6,-7l.5,-5.3l.5,-4l.5,-3.3l1.1,-4.8l1,-3.4l1.1,-2.6l1.1,-1.9l1,-1.6l1,-1.2l1.1,-1.1l1.1,-.9l1,-.7l1.1,-.6l1,-.5l1.1,-.5l1,-.4l1.1,-.3l1,-.3l1.1,-.3l1,-.2l1.1,-.2l1,-.1l1.1,-.2l1,-.1l1.1,-.1h1l.6,-.1h2.3m-29.4,46.6l.2,-4.9m-5.6,-107l-.1,2.6m-39.5,51.2l1,-.1h1.1l1,-.1l1.1,-.1l1,-.1l1.1,-.1l1.1,-.1l1,-.2l1.1,-.1l1,-.1l1.1,-.2l1,-.1l1.1,-.2l1,-.2l1.1,-.2l1,-.2l1.1,-.2l1,-.3l1.1,-.3l1,-.3l1.1,-.3l1,-.4l1.1,-.5l1,-.5l1.1,-.5l1,-.7l1.1,-.7l1,-.9l1.1,-1l1.1,-1.3l1,-1.5l1.1,-1.9l1,-2.5l1.1,-3.3l.5,-2.1l.5,-2.5l.5,-3.1l.6,-3.8l.5,-4.9l.5,-6.5l.3,-4.1l.3,-5" class="g1_359"/>
<path d="M743.1,863.4v118m-64.6,-118v118" class="g6_359"/>
</g>
<path d="M642.3,868.1H798.1c3.4,0,6.1,2.7,6.1,6.1V972c0,3.4,-2.7,6.1,-6.1,6.1H642.3c-3.4,0,-6.1,-2.7,-6.1,-6.1V874.2c0,-3.4,2.7,-6.1,6.1,-6.1Z" class="g2_359"/>
<path d="M769.2,840.7h58" class="g3_359"/>
<path d="M767.8,861.8c0,9.2,-6.8,19.5,-14.5,23.3" class="g4_359"/>
<path d="M750.4,886.6l3.1,-3.4l-.2,1.9l1.7,1Z" class="g5_359"/>
<path d="M129.9,294.5H285.7c3.4,0,6.2,2.7,6.2,6.1v97.8c0,3.4,-2.8,6.1,-6.2,6.1H129.9c-3.4,0,-6.1,-2.7,-6.1,-6.1V300.6c0,-3.4,2.7,-6.1,6.1,-6.1Z" class="g2_359"/>
<path d="M271.6,405.8l-1,-5.6m-21.5,-60v0h.7l.2,.1h.3l.3,.1l.5,.2l.5,.2l1.1,.6l1,.9l1.1,1.3l1,1.4l1.1,1.9L258,349l1,2.5l1.1,2.8l1,3.2l1.1,3.5l1,3.8l1.1,4.2l1,4.5l1.1,4.8l1,5.1l1.1,5.4l1.1,5.6l1,5.8M222.2,358.1h1.2l.2,-.1h.6l.5,-.1l.5,-.2l1.1,-.4l1,-.4l1.1,-.6l1,-.6l1.1,-.8l1,-.8l1.1,-1l1.1,-.9l1,-1l1.1,-1.1l1,-1l1.1,-1.1l1,-1.1l1.1,-1.1l1.1,-1l1,-1l1.1,-.9l1,-.8l1.1,-.7l1,-.5l.6,-.2l.5,-.2l.3,-.1l.2,-.1h.5l.2,-.1h.5m-55.4,1.9h.6l.3,.1h.5l.6,.1l1,.3l1.1,.4l1,.5l1.1,.5l1,.7l1.1,.7l1,.8l1.1,.8l1.1,.9l1,.8l1.1,1l1,.9l1.1,.9l1,.9l1.1,.9l1,.8l1.1,.7l1.1,.8l1,.6l1.1,.6l1,.4l1.1,.4l.5,.2l.5,.1l.6,.1h.2l.3,.1h1.2m-54.8,1.8h.3l.5,-.1l.5,-.2l.6,-.3l1,-.5l1.1,-.7l1,-.8l1.1,-.9l1,-.9l1.1,-1.1l1.1,-1l1,-1.1l1.1,-1.1l1,-1.1l1.1,-1l1,-1l1.1,-1l1.1,-.9l1,-.8l1.1,-.8l1,-.7l1.1,-.5l1,-.5l1.1,-.4l.5,-.1l.5,-.1l.6,-.1h.2l.3,-.1h1.2M145,300l1,5.8l1.1,5.6l1.1,5.4l1,5.1l1.1,4.8l1,4.6l1.1,4.1l1,3.9l1.1,3.5l1,3.1l1.1,2.9l1.1,2.4l1,2.2l1.1,1.8l1,1.5l1.1,1.2l1,.9l.6,.4l.5,.3l.5,.2l.3,.1l.2,.1h.3l.3,.1h1.6l.2,-.1M144,294.4l1,5.6" class="g7_359"/>
<path d="M288.6,341.9l1,2.7l1.1,2.8l1,2.7M258.1,303.7h1.7l.3,.1h.5l.5,.1l1.1,.1l1,.3l1.1,.3l1,.4l1.1,.6l1,.6l1.1,.7l1.1,.8l1,.9l1.1,1.1l1,1.1l1.1,1.3l1,1.4l1.1,1.6l1,1.6l1.1,1.8l1,1.9l1.1,2.1l1.1,2.1l1,2.2l1.1,2.3l1,2.5l1.1,2.4l1,2.6l1.1,2.6l1.1,2.7M235.4,306.4h2l.5,-.1h1l1.1,-.1l1.1,-.1l1,-.1l1.1,-.1l1,-.2l1.1,-.1l1,-.2l1.1,-.2l1,-.2l1.1,-.2l1.1,-.2l1,-.2l1.1,-.2l1,-.1l1.1,-.2l1,-.1h.6l.5,-.1h1.2m-50.4,0h2.2l.5,.1h1.1l1,.1l1.1,.1l1.1,.1l1,.1l1.1,.1l1,.1l1.1,.2l1,.1l1.1,.2l1,.1l1.1,.2l1.1,.2l1,.1l1.1,.2l1,.1l1.1,.1l1,.1l1.1,.1l1,.1l1.1,.1h1.1l.5,.1h1.2m-55.6,0h1.6l.5,-.1H183l1.1,-.1l1,-.1l1.1,-.1l1,-.1l1.1,-.1l1,-.1l1.1,-.2l1,-.1l1.1,-.2l1.1,-.2l1,-.1l1.1,-.2l1,-.1l1.1,-.2l1,-.1l1.1,-.1l1,-.1L202,304l1,-.1l1.1,-.1h1.1l.5,-.1h2m-50.5,0h1.5l.5,.1h.6l1,.1l1.1,.2l1,.1l1.1,.2l1,.2l1.1,.2l1.1,.2l1,.2l1.1,.2l1,.2l1.1,.1l1,.2l1.1,.1l1,.1l1.1,.1l1.1,.1h1l.5,.1h1.6m-55.9,43.7l1,-2.7l1.1,-2.8l1,-2.7l1.1,-2.7l1.1,-2.6l1,-2.6l1.1,-2.4l1,-2.5l1.1,-2.3l1,-2.2l1.1,-2.1l1,-2.1l1.1,-1.9l1.1,-1.8l1,-1.6l1.1,-1.6l1,-1.4l1.1,-1.3l1,-1.1l1.1,-1.1l1,-.9l1.1,-.8l1.1,-.7l1,-.6l1.1,-.6l1,-.4l1.1,-.3l1,-.3l.6,-.1h.5l.5,-.1h.5l.3,-.1h1.4" class="g1_359"/>
<path clip-path="url(#c2_359)" d="M-162,299.4h1.5m-1.5,101h1.5M-1.7,351.8v-3.2m-53.5,3.2v-3.2m-53.5,3.2v-3.2m-53.4,1.6H5.7m118,-46.8h1.7M123.7,396h1.7M284.2,351.6v-3.2m-53.5,3.2v-3.2m-53.4,3.2v-3.2M123.8,350H291.7" class="g0_359"/>
<path clip-path="url(#c3_359)" d="M160.8,600l.1,-1.1m91.8,1.1l-.1,-1.1" class="g8_359"/>
<path d="M128.9,490.1H284.8c3.3,0,6.1,2.7,6.1,6.1V594c0,3.3,-2.8,6.1,-6.1,6.1H128.9c-3.4,0,-6.1,-2.8,-6.1,-6.1V496.2c0,-3.4,2.7,-6.1,6.1,-6.1Z" class="g2_359"/>
<path d="M124.8,598.4l-.7,-21m-1.1,-32l1.1,32M236.5,490.3v0h.3l.1,.1h.1l.3,.2l.3,.2l.2,.2l.5,.7l.6,.8l1,2.4l1.1,3.2l1,4.3l1.1,5.1l1,6.2l1.1,7.2l1,8.2l1.1,9.2l1.1,10.2l1,11.2l1.1,12.1l1,13.1l1.1,14m-45.2,-7.2l.1,-.1l.3,-.1l.3,-.2l.2,-.2l.5,-.5l.6,-.7l1,-1.7l1.1,-2.3l1,-2.9l1.1,-3.3l1.1,-3.8l1,-4.2l1.1,-4.6l1,-4.9l1.1,-5.1l1,-5.4l1.1,-5.5l1,-5.5l1.1,-5.6l1,-5.5l1.1,-5.3l1,-5.2l1.1,-5l1,-4.6l1.1,-4.3l1.1,-3.9l1,-3.3l1.1,-2.8l1,-2.3l.5,-.8l.6,-.8l.2,-.2l.3,-.3l.2,-.2h.2l.1,-.1l.1,-.1h.2l.1,-.1h.4m-55.6,4.9L182,498l1,3.3l1.1,3.9l1.1,4.3l1,4.6l1.1,5l1,5.2l1.1,5.3l1,5.5l1.1,5.6l1,5.5l1.1,5.5l1,5.4l1.1,5.1l1,4.9l1.1,4.6l1.1,4.2l1,3.8l1,3.3l1.1,2.9l1.1,2.3l.5,.9l.5,.8l.5,.7l.6,.5l.2,.2l.3,.2l.3,.1l.1,.1h.1l.2,.1h.7l.2,-.1h.1m-46.5,7.2l1.1,-14l1,-13.1l1.1,-12.1l1,-11.2l1.1,-10.2l1,-9.2l1.1,-8.2l1.1,-7.2l1,-6.2l1.1,-5.1l1,-4.3l1.1,-3.2l.5,-1.3l.5,-1.1l.5,-.8l.3,-.4l.3,-.3l.2,-.2l.3,-.2l.1,-.1l.2,-.1h.2v-.1h.7l.1,.1h.2l.1,.1l.2,.1l.3,.2l.5,.5l.6,.8l.5,.8l1,2.3m108.5,82.2l1.1,-32m-1.8,53.2l.7,-21.2" class="g9_359"/>
<path d="M287.3,537.2l1.1,2.7l1,2.7l1.1,2.8M256.9,498.9h1.2l.3,.1h1l.5,.1l1.1,.2l1,.2l1.1,.4l1.1,.4l1,.5l1.1,.6l1,.7l1.1,.8l1,1l1.1,1l1,1.2l1.1,1.3l1,1.4l1.1,1.5l1,1.7l1.1,1.8l1,1.9l1.1,2l1.1,2.1l1,2.2l1.1,2.4l1,2.4l1.1,2.5l1,2.5l1.1,2.7l1,2.7m-53,-35.6h3l.5,-.1l1.1,-.1h1l1.1,-.2l1,-.1l1.1,-.1l1,-.2l1.1,-.2l1,-.2l1.1,-.2l1.1,-.2l1,-.2l1.1,-.1l1,-.2l1.1,-.2l1,-.1l1.1,-.1l.5,-.1h1.1l.2,-.1h.4m-50.3,0h1.7l.5,.1h1.6l1.1,.1l1,.1l1.1,.1l1.1,.1l1,.1l1.1,.2l1,.1l1.1,.2l1,.1l1.1,.2l1,.1l1.1,.2l1,.1l1.1,.2l1,.1l1.1,.2l1,.1l1.1,.1l1.1,.1h1l.5,.1h2.3m-55.4,0h2l1.1,-.1h1l1.1,-.1l1.1,-.1l1,-.1l1.1,-.2l1,-.1l1.1,-.2l1,-.1l1.1,-.2l1,-.1l1.1,-.2l1,-.1l1.1,-.2l1,-.1l1.1,-.2l1.1,-.1l1,-.1l1,-.1l1.1,-.1l1.1,-.1h1.5l.6,-.1h1.4m-50.4,0h.8l.2,.1h1.1l.5,.1l1.1,.1l1,.1l1.1,.2l1,.2l1.1,.1l1,.2l1.1,.2l1,.2l1.1,.2l1.1,.2l1,.2l1.1,.1l1,.1l1.1,.2h1l1.1,.1l.5,.1h2.7M123,545.4l1.1,-2.8l1,-2.7l1.1,-2.7l1,-2.7l1.1,-2.7l1,-2.5l1.1,-2.5l1,-2.4l1.1,-2.4l1,-2.2l1.1,-2.1l1.1,-2l1,-1.9l1.1,-1.8l1,-1.7l1.1,-1.5l1,-1.4l1.1,-1.3l1,-1.2l1.1,-1l1,-1l1.1,-.8l1,-.7l1.1,-.6l1,-.5l1.1,-.4l1.1,-.4l1,-.2l.5,-.1l.6,-.1l.5,-.1h1l.3,-.1h.8" class="g1_359"/>
<path d="M122.9,499h1.5m-1.6,92.5h1.6M283.2,547.1v-3.2m-53.4,3.2v-3.2m-53.5,3.2v-3.2m-53.5,1.6H290.7" class="g0_359"/>
<path d="M143.2,685.5H299c3.4,0,6.1,2.8,6.1,6.2v97.7c0,3.4,-2.7,6.1,-6.1,6.1H143.2c-3.4,0,-6.1,-2.7,-6.1,-6.1V691.7c0,-3.4,2.7,-6.2,6.1,-6.2Z" class="g2_359"/>
<path d="M292,784.8l.5,.2l.5,.3l1.1,.8l.5,.4l.5,.3l.3,.1l.3,.2h.2l.1,.1h.6v-.1h.2l.2,-.1l.2,-.2l.3,-.2l.2,-.3l.3,-.5l.3,-.5l.5,-1.3l.5,-1.7l1.1,-4.9l1,-6.9l1.1,-8.7l1,-10l1.1,-10.9m-21,46.3v0h.6l.2,-.1h.2l.3,-.1l.2,-.1l.6,-.2l1,-.5l1.1,-.7l.5,-.3l.5,-.2l.5,-.3h.3l.3,-.1h.1l.1,-.1h1.1l.1,.1h.2l.2,.1l.3,.1m-20.5,2.3h.3l.2,-.2l.6,-.3l.5,-.3l1,-.8l.6,-.3l.5,-.3l.2,-.1l.3,-.1l.3,-.1h.1l.1,-.1h1.1l.2,.1l.3,.1l.5,.1l1.1,.6l1,.6l1.1,.6l.5,.2l.3,.1l.2,.1l.3,.1h.3l.1,.1h.4M254.8,694.7v0h.2l.1,.1h.1l.3,.2l.3,.3l.2,.3l.3,.4l.5,1.1l.5,1.5l.6,2l.5,2.5l1,6.3l1.1,8.3l1,9.8l1.1,10.7l1,10.9l1.1,10.3l1,9.1l1.1,7.3l.5,3l.5,2.4l.6,2l.5,1.5l.5,1.1l.3,.5l.2,.3l.3,.2l.1,.1l.2,.1l.1,.1h.2v.1h.6l.1,-.1M247.4,697l.2,.1l.3,.1h.3l.1,.1h1.3l.1,-.1h.3l.5,-.2l.5,-.3l1.1,-.7l.5,-.4l.5,-.4l.3,-.2l.3,-.1l.2,-.1l.2,-.1h.7M235,697.3h.6l.2,-.1h.3l.2,-.1l1.1,-.5l1,-.6l1.1,-.6l.5,-.3l.5,-.2l.3,-.1h.3l.1,-.1h1.4l.3,.1h.3l.5,.2l1,.5l1.1,.7l1,.5l.6,.3m-22.1,7.5l.6,-2.7l.5,-2.2l.5,-1.8l.5,-1.3l.3,-.5l.2,-.4l.3,-.3l.3,-.3l.1,-.1l.1,-.1h.2v-.1h1l.2,.1l.5,.2l.5,.4l1,.7l.6,.4l.5,.3l.3,.2l.2,.1l.3,.1h.2l.2,.1h.6m-27.5,87.2v0h.2l.2,.1h.1l.3,.1l.2,.1l.6,.2l1,.7l1.1,.8l.5,.3l.2,.1l.3,.2h.3l.1,.1h.5l.1,-.1h.2l.1,-.1l.3,-.2l.2,-.2l.3,-.3l.3,-.5l.2,-.5l.6,-1.3l.5,-1.7l.5,-2.2l1,-5.9l1.1,-7.8l1.1,-9.5l1,-10.5l1.1,-10.9l1,-10.6l1,-9.4l1.1,-7.8l.5,-3.2m-26,82.6h.3l.1,.1h1.1l.1,-.1h.3l.2,-.1l.3,-.1l1.1,-.4l1,-.7l1.1,-.6l.5,-.2l.5,-.3h.3l.2,-.1l.3,-.1h.8m-19.9,2.7h.3l.2,-.1h.2l.3,-.2l.5,-.3l1.1,-.7l.5,-.4l.5,-.3l.5,-.3l.3,-.1l.3,-.1l.2,-.1h.2l.1,-.1h1l.3,.1l.3,.1l.5,.1l.5,.3l1.1,.6l1,.6l.5,.3l.6,.2l.2,.1l.3,.1l.2,.1M171.1,694.7v0h.4l.2,.1h.1l.3,.2l.2,.3l.3,.3l.2,.4l.6,1.1l.5,1.5l.5,2l1.1,5.4l1,7.3l1.1,9.1l1,10.4l1.1,10.9l1,10.7l1.1,9.7l1,8.3l.5,3.4l.6,3l.5,2.4l.5,2l.5,1.5l.3,.6l.3,.5l.2,.5l.3,.3l.3,.2l.1,.1l.1,.1l.1,.1h.2l.1,.1h.2M159.7,694.8l.5,.2l.6,.3l1,.5l1.1,.7l.5,.2l.5,.3l.3,.1l.3,.1h.2l.1,.1h1.3l.2,-.1h.2l.6,-.2l.5,-.3l.5,-.4l1.1,-.7l.5,-.4l.3,-.2l.2,-.1l.3,-.1l.1,-.1h.5m-19.7,2.6v0h.7l.3,-.1h.2l.3,-.1l.5,-.2l1.1,-.6l1,-.6l.5,-.3l.6,-.3l.5,-.2l.3,-.1h.2l.2,-.1h1.4l.3,.1h.2m-22,46.1l1,-10.8L139.8,720l1,-8.7l1.1,-6.8l.5,-2.7l.5,-2.2l.5,-1.8l.3,-.7l.3,-.6l.5,-.9l.3,-.3l.2,-.3l.2,-.1l.1,-.1h.1l.1,-.1h1l.1,.1l.5,.2l1.1,.8l1,.7l.5,.3l.3,.2l.3,.1l.2,.1h.3l.1,.1h.5" class="g1_359"/>
<path d="M219.6,694.4h3.2m-3.2,92.5h3.2M288,742.5v-3.2m-133.7,3.2v-3.2M221.2,796V685.3m-84,55.6H305.1" class="g0_359"/>
</svg>