<?xml version="1.0" encoding="UTF-8" standalone="no"?>
<!DOCTYPE svg PUBLIC "-//W3C//DTD SVG 1.1//EN"
"http://www.w3.org/Graphics/SVG/1.1/DTD/svg11.dtd">
<svg viewBox="0 0 907 1045" version="1.1" xmlns="http://www.w3.org/2000/svg" xmlns:xlink="http://www.w3.org/1999/xlink">
<defs>
<clipPath id="c0_26"><path d="M435.3,565.9c-9.5,-6.3,-20.3,-6.7,-16.7,-24.7c1.9,-9.6,9.1,-13.4,17.3,-16.8h8.9c20.9,9.5,16,32.8,-2.4,41.5Z"/></clipPath>
<clipPath id="c1_26"><path d="M469.1,509.4c-7.4,-5,-16,-5.2,-13.1,-19.4c1.5,-7.6,7.1,-10.6,13.6,-13.3h7.1c16.4,7.5,12.6,25.9,-1.9,32.7Z"/></clipPath>
<clipPath id="c2_26"><path d="M405.3,627.2C394.5,620,382.1,619.6,386.2,599c2.2,-11,10.4,-15.4,19.8,-19.3h10.2c23.8,10.9,18.3,37.6,-2.7,47.5Z"/></clipPath>
<clipPath id="c3_26"><path d="M491.2,561.9c-9.4,-6.3,-20.3,-6.7,-16.7,-24.7c1.9,-9.6,9.1,-13.4,17.3,-16.9h9c20.8,9.6,16,32.9,-2.4,41.6Z"/></clipPath>
<clipPath id="c4_26"><path d="M478.3,627.2C467.5,620,455.1,619.6,459.2,599c2.1,-11,10.4,-15.4,19.7,-19.3h10.3c23.8,10.9,18.3,37.6,-2.7,47.5Z"/></clipPath>
<clipPath id="c5_26"><path d="M350.8,533.4c-7.4,-5,-15.9,-5.2,-13.1,-19.4c1.5,-7.6,7.2,-10.6,13.6,-13.3h7.1c16.4,7.5,12.6,25.9,-1.9,32.7Z"/></clipPath>
<clipPath id="c6_26"><path d="M270.6,589.6c-9.4,-6.3,-20.3,-6.6,-16.7,-24.7c1.9,-9.5,9.1,-13.4,17.3,-16.8h9c20.8,9.5,16,32.9,-2.4,41.5Z"/></clipPath>
<clipPath id="c7_26"><path d="M315.7,551.8c-2.1,-1.4,-4.6,-1.5,-3.8,-5.7c.4,-2.2,2.1,-3.1,4,-3.8h2c4.8,2.1,3.7,7.5,-.5,9.5Z"/></clipPath>
<clipPath id="c8_26"><path d="M323.5,538.8c-1.7,-1.1,-3.7,-1.2,-3,-4.4c.3,-1.8,1.6,-2.5,3.1,-3.1h1.6c3.8,1.7,2.9,5.9,-.4,7.5Z"/></clipPath>
<clipPath id="c9_26"><path d="M308.8,565.9c-2.5,-1.6,-5.3,-1.7,-4.4,-6.5c.5,-2.5,2.4,-3.5,4.6,-4.4h2.3c5.5,2.5,4.3,8.6,-.6,10.9Z"/></clipPath>
<clipPath id="ca_26"><path d="M330.4,551.8c-2.1,-1.4,-4.6,-1.5,-3.8,-5.7c.4,-2.2,2.1,-3.1,4,-3.8h2c4.8,2.1,3.7,7.5,-.5,9.5Z"/></clipPath>
<clipPath id="cb_26"><path d="M325.6,565.9c-2.5,-1.6,-5.3,-1.7,-4.4,-6.5c.5,-2.5,2.4,-3.5,4.6,-4.4h2.3c5.5,2.5,4.2,8.6,-.6,10.9Z"/></clipPath>
<style type="text/css"><![CDATA[
.g0_26{
fill: none;
stroke: #000000;
stroke-width: 0.666;
stroke-linecap: butt;
stroke-linejoin: miter;
stroke-miterlimit: 4;
}
.g1_26{
fill: none;
stroke: #000000;
stroke-width: 0.666;
stroke-linecap: butt;
stroke-linejoin: miter;
stroke-miterlimit: 4;
stroke-dasharray: 2,2;
}
.g2_26{
fill: none;
stroke: #000000;
stroke-width: 0.666;
stroke-linecap: butt;
stroke-linejoin: miter;
stroke-miterlimit: 4;
stroke-dasharray: 3,2;
}
.g3_26{
fill: none;
stroke: #454545;
stroke-width: 0.502;
stroke-linecap: butt;
stroke-linejoin: miter;
stroke-miterlimit: 4;
}
.g4_26{
fill: none;
stroke: #474747;
stroke-width: 0.247;
stroke-linecap: butt;
stroke-linejoin: miter;
stroke-miterlimit: 4;
}
.g5_26{
fill: none;
stroke: #474747;
stroke-width: 0.421;
stroke-linecap: butt;
stroke-linejoin: miter;
stroke-miterlimit: 4;
}
.g6_26{
fill: none;
stroke: #454545;
stroke-width: 0.205;
stroke-linecap: butt;
stroke-linejoin: miter;
stroke-miterlimit: 4;
}
.g7_26{
fill: none;
stroke: #454545;
stroke-width: 0.675;
stroke-linecap: butt;
stroke-linejoin: miter;
stroke-miterlimit: 4;
}
.g8_26{
fill: none;
stroke: #FFFFFF;
stroke-width: 1.909;
stroke-linecap: butt;
stroke-linejoin: miter;
}
.g9_26{
fill: none;
stroke: #000000;
stroke-width: 0.381;
stroke-linecap: butt;
stroke-linejoin: miter;
}
]]></style>
</defs>
<g clip-path="url(#c0_26)">
<image clip-path="url(#c0_26)" preserveAspectRatio="none" x="417" y="523" width="44" height="44" xlink:href="img/1.jpg"/>
</g>
<g clip-path="url(#c1_26)">
<image clip-path="url(#c1_26)" preserveAspectRatio="none" x="455" y="476" width="34" height="34" xlink:href="img/2.jpg"/>
</g>
<g clip-path="url(#c2_26)">
<image clip-path="url(#c2_26)" preserveAspectRatio="none" x="385" y="578" width="50" height="51" xlink:href="img/3.jpg"/>
</g>
<g clip-path="url(#c3_26)">
<image clip-path="url(#c3_26)" preserveAspectRatio="none" x="473" y="519" width="44" height="44" xlink:href="img/4.jpg"/>
</g>
<g clip-path="url(#c4_26)">
<image clip-path="url(#c4_26)" preserveAspectRatio="none" x="458" y="578" width="50" height="51" xlink:href="img/5.jpg"/>
</g>
<path d="M462.8,508.1l-11.4,18m26.2,-17.7l9.9,13.8m-56.3,42L422,582.1m28.8,-18.8L467,583.5" class="g0_26"/>
<g clip-path="url(#c5_26)">
<image clip-path="url(#c5_26)" preserveAspectRatio="none" x="337" y="500" width="34" height="34" xlink:href="img/6.jpg"/>
</g>
<g clip-path="url(#c6_26)">
<image clip-path="url(#c6_26)" preserveAspectRatio="none" x="253" y="547" width="43" height="44" xlink:href="img/7.jpg"/>
</g>
<path d="M369.6,509.1l66.2,-10.3" class="g1_26"/>
<path d="M432.8,496.7l3,2.1l-2.2,2.8" class="g0_26"/>
<path d="M371.5,514.3l64.4,5.3" class="g1_26"/>
<path d="M433.5,516.9l2.4,2.7l-2.8,2.2" class="g0_26"/>
<path d="M371.5,519.7L412.4,535" class="g2_26"/>
<path d="M410.8,531.7l1.6,3.3l-3.4,1.4" class="g0_26"/>
<path d="M369.7,525.7l42.7,32.7" class="g1_26"/>
<path d="M411.8,554.8l.6,3.6l-3.6,.4" class="g0_26"/>
<path d="M362.2,533.1l29.7,45.4" class="g1_26"/>
<path d="M392.5,574.9l-.6,3.6l-3.5,-.9" class="g0_26"/>
<g clip-path="url(#c7_26)">
<image clip-path="url(#c7_26)" preserveAspectRatio="none" x="312" y="542" width="10" height="10" xlink:href="img/8.jpg"/>
</g>
<g clip-path="url(#c8_26)">
<image clip-path="url(#c8_26)" preserveAspectRatio="none" x="320" y="531" width="8" height="8" xlink:href="img/9.jpg"/>
</g>
<g clip-path="url(#c9_26)">
<image clip-path="url(#c9_26)" preserveAspectRatio="none" x="304" y="555" width="12" height="11" xlink:href="img/10.jpg"/>
</g>
<g clip-path="url(#ca_26)">
<image clip-path="url(#ca_26)" preserveAspectRatio="none" x="326" y="542" width="10" height="10" xlink:href="img/11.jpg"/>
</g>
<g clip-path="url(#cb_26)">
<image clip-path="url(#cb_26)" preserveAspectRatio="none" x="321" y="555" width="11" height="11" xlink:href="img/12.jpg"/>
</g>
<path d="M321.8,538.7l-2.1,3.9m6,-3.9l2.3,4.2m-13.4,8.6l-1.7,4m6.6,-4.1l3.3,4.3" class="g0_26"/>
<path d="M285.7,550.1c.8,-.4,.3,-2.1,.7,-2.8c.2,-.5,.5,-.9,.7,-1.4c.3,-.6,.1,-.8,.7,-1.6c.3,-.4,.5,-.8,.7,-1.2c.3,-.6,.9,-.9,1.3,-1.5c.5,-1,1.5,-1.9,2.4,-2.6c2,-1.8,4,-3.5,6,-5.3c2.1,-1.8,4.3,-3.2,6.3,-5c1.2,-1,2.3,-1.7,3.5,-2.5c.5,-.3,.9,-.4,1.4,-.7c.8,-.5,1.6,-1.4,2.5,-1.7c1.4,-.5,2.1,-1,3.3,-1.8c.6,-.4,1.2,-.6,1.9,-.8c.9,-.4,1.1,-.4,2,-1c1.2,-.8,2.4,-1.2,3.6,-1.7c1.3,-.5,2.7,-1.3,4,-1.7c1.7,-.4,5,-.8,6.7,-.7c.8,.1,1.6,-1,2.7,-.7c-1.2,-.8,-2.6,-1.1,-3.7,-2.4c.8,1,2.7,2.9,3.9,2.2c-.3,1.7,-1,2.8,-2.1,3.9c1.1,-.8,1.2,-2.3,2,-3.4" class="g3_26"/>
<path d="M503.1,468.6c.2,.9,.4,1.8,.5,2.8c.2,1.3,.7,2.6,.9,3.9c.2,.9,0,1.8,.1,2.7c.1,1.2,.5,2.5,.5,3.7c-.1,2.1,-.1,4,-.2,6.1c-.2,2.4,-.6,4.3,-.5,6.7c.3,3.8,-.4,7.7,-.9,11.4c0,.5,.1,1.1,.1,1.6c0,-.3,-.6,1.1,-.5,.9l-.4,1.1c-.1,.4,0,.9,-.1,1.2c-.1,.3,-1.4,2.3,-.4,2.2c.4,-.1,1.1,-1.3,1.3,-1.7c.7,-1.2,1.3,-1.6,2.6,-2.2c.3,-.1,1.3,-.4,1.3,-.9c.2,-1.6,-1.2,.5,-1.3,.6c-.7,1,-1.9,2,-2.7,2.8c-.3,.3,-.8,1.4,-1.6,1.1c-.9,-.3,-1.6,-2.4,-2.1,-3.2c-.5,-.9,-1.5,-1.7,-1.9,-2.8" class="g4_26"/>
<path d="M226.1,533.3c.4,.7,.8,1.2,1.3,1.9c.6,.8,1,1.8,1.7,2.7c.4,.6,1,1,1.4,1.6c.7,.7,1.2,1.6,1.8,2.3c1.2,1.2,2.3,2.3,3.5,3.4c1.4,1.2,2.7,2.1,3.9,3.5c2,2.3,4.4,4.2,6.7,6c.3,.2,.5,.7,.8,.9c-.1,-.1,.9,.3,.8,.3l.8,.4c.2,.2,.5,.5,.7,.6c.2,.1,1.9,.6,1.3,1c-.2,.2,-1.2,-.1,-1.5,-.2c-1,-.3,-1.5,-.2,-2.4,.1c-.3,.1,-.9,.5,-1.2,.2c-.9,-.8,.9,-.4,1,-.3c.9,.1,2,.1,2.8,.1c.3,0,1.1,.4,1.4,-.2c.3,-.6,-.6,-2.2,-.8,-2.9c-.2,-.9,-.2,-1.8,-.6,-2.6" class="g5_26"/>
<path d="M338.2,596c.1,-.5,.1,-1,.1,-1.5c0,-.8,.4,-1.4,.4,-2.2c0,-.4,-.3,-1,-.3,-1.5c0,-.6,.2,-1.3,0,-2c-.3,-1.2,-.5,-2.3,-.9,-3.4c-.4,-1.4,-1.1,-2.6,-1.2,-3.9c-.3,-2.1,-1.4,-4.4,-2.3,-6.5c-.1,-.3,0,-.6,-.1,-.9c0,.1,-.7,-.7,-.6,-.6l-.5,-.7c-.1,-.2,-.1,-.5,-.2,-.7c-.1,-.1,-1.6,-1.4,-.7,-1.2c.4,.1,1.2,.8,1.4,1.1c.9,.8,1.5,1,2.7,1.5c.4,.2,1.3,.4,1.4,.7c.3,.9,-1.2,-.5,-1.3,-.5c-.8,-.7,-2,-1.4,-2.9,-1.9c-.3,-.2,-.9,-.9,-1.6,-.8c-.8,0,-1.2,1.1,-1.5,1.5c-.4,.5,-1.3,.8,-1.5,1.4" class="g4_26"/>
<path d="M498,468.2c.5,.3,0,1.2,-.1,1.5c-.3,.6,-.5,1.3,-.7,2c-.1,.3,-.1,.5,-.1,.8c0,.3,-.3,.5,-.4,.8c-.3,.6,-.7,1.1,-1,1.7c-.1,.3,-.2,.6,-.4,.9c-.2,.3,-.3,.6,-.4,.9c-.1,.2,-.3,.4,-.5,.6c-.2,.2,-.2,.5,-.5,.8c-.4,.4,-.7,.8,-1.1,1.1c-.5,.5,-1,.8,-1.3,1.2c-.6,.8,-1.5,1.5,-2.3,2.1l-.3,.3l-.3,.1l-.3,.1l-.3,.3c0,0,-.8,.2,-.5,.3c.2,.1,.6,-.1,.7,-.1c.5,-.1,.8,-.1,1.3,.1c.1,0,.5,.1,.6,0c.3,-.3,-.5,-.1,-.6,-.1c-.4,.1,-.9,.1,-1.4,.1c-.1,-.1,-.4,.1,-.7,-.1c-.2,-.2,-.1,-.8,-.1,-1c0,-.3,-.2,-.6,-.1,-.9" class="g6_26"/>
<path d="M274.4,486.1c.2,-.5,1.2,-.1,1.6,-.1c.7,.1,1.4,.2,2.1,.3c.3,0,.6,0,.9,-.1c.3,0,.6,.2,.9,.3c.7,.2,1.2,.5,1.9,.6c.4,.1,.7,.2,1,.3c.4,.2,.7,.1,1.1,.2c.2,.1,.4,.3,.6,.4c.3,.1,.6,.2,.9,.3c.5,.3,.9,.6,1.4,.9c.5,.4,.9,.9,1.5,1.1c.9,.5,1.7,1.2,2.5,1.9l.4,.2l.1,.3l.3,.3l.2,.2c.1,.1,.4,.8,.5,.4c0,-.1,-.2,-.5,-.3,-.6c-.2,-.5,-.2,-.7,-.2,-1.3c0,-.1,.1,-.5,0,-.6c-.4,-.2,0,.6,0,.6c.1,.4,.2,.9,.3,1.3c0,.2,.2,.5,.1,.7c-.2,.3,-.8,.3,-1,.3c-.3,.1,-.6,.3,-.9,.3" class="g7_26"/>
<path d="M375.8,484.5c.4,.3,-.1,1.2,-.2,1.5c-.2,.7,-.5,1.3,-.6,2c-.1,.3,-.1,.5,-.2,.8c0,.3,-.2,.6,-.4,.8c-.3,.6,-.6,1.1,-.9,1.7c-.2,.3,-.3,.6,-.5,.9c-.2,.3,-.2,.7,-.4,1c-.1,.2,-.3,.3,-.4,.5c-.2,.3,-.3,.6,-.5,.8c-.4,.4,-.7,.8,-1.2,1.2c-.4,.4,-.9,.7,-1.3,1.2c-.6,.8,-1.5,1.4,-2.3,2l-.2,.3l-.4,.1l-.3,.2l-.2,.2c-.1,0,-.9,.2,-.5,.3c.1,.1,.5,0,.7,-.1c.4,-.1,.7,0,1.2,.1c.1,0,.5,.1,.6,0c.3,-.2,-.5,-.1,-.6,-.1c-.4,.1,-.9,.1,-1.3,.1c-.2,0,-.5,.1,-.7,-.1c-.3,-.2,-.1,-.7,-.1,-1c0,-.3,-.2,-.6,-.2,-.9" class="g6_26"/>
<path d="M5.4,0H-17.4M922,0h23M5.4,1017.5H-17.4m939.4,0h23M23.7,-18.2V-41.1m0,1076.9v23m880,-1077V-41.1m0,1076.9v23" class="g8_26"/>
<path d="M5.4,0H-17.4M922,0h23M5.4,1017.5H-17.4m939.4,0h23M23.7,-18.2V-41.1m0,1076.9v23m880,-1077V-41.1m0,1076.9v23" class="g9_26"/>
</svg>