<?xml version="1.0" encoding="UTF-8" standalone="no"?>
<!DOCTYPE svg PUBLIC "-//W3C//DTD SVG 1.1//EN"
"http://www.w3.org/Graphics/SVG/1.1/DTD/svg11.dtd">
<svg viewBox="0 0 811 1017" version="1.1" xmlns="http://www.w3.org/2000/svg" xmlns:xlink="http://www.w3.org/1999/xlink">
<defs>
<style type="text/css"><![CDATA[
.g0_353{
fill: #FFFFFF;
}
.g1_353{
fill: none;
stroke: #231F20;
stroke-width: 0.763;
stroke-linecap: butt;
stroke-linejoin: round;
}
.g2_353{
fill: none;
stroke: #231F20;
stroke-width: 0.763;
stroke-linecap: butt;
stroke-linejoin: miter;
stroke-miterlimit: 4;
}
.g3_353{
fill: #231F20;
}
.g4_353{
fill: none;
stroke: #231F20;
stroke-width: 0.763;
stroke-linecap: butt;
stroke-linejoin: miter;
stroke-miterlimit: 4;
stroke-dasharray: 6,3;
}
.g5_353{
fill: none;
stroke: #231F20;
stroke-width: 0.458;
stroke-linecap: butt;
stroke-linejoin: miter;
stroke-miterlimit: 4;
}
]]></style>
</defs>
<path d="M157.2,875.1H722.9V497.5H157.2Z" class="g0_353"/>
<path d="M289.9,598.6H414.2v36.6H289.9Zm300.6,-.2H702.1V635H590.5ZM184.9,717.7H362.2v36.5H184.9Zm192.6,0H540v36.6H377.5ZM590,716.1H701.6v36.6H590Z" class="g1_353"/>
<path d="M285.6,717.7l49,-76.5" class="g2_353"/>
<path d="M335.6,643.7l2.6,-8.2l-6.3,5.8l3.7,2.4Z" class="g3_353"/>
<path d="M442.4,717.7l-68.5,-77" class="g2_353"/>
<path d="M376.6,640.3l-7.2,-4.7l3.8,7.7l3.4,-3Z" class="g3_353"/>
<path d="M414.2,616.8h3" class="g2_353"/>
<path d="M420.2,616.8l159,-.1" class="g4_353"/>
<path d="M580.7,616.7h3" class="g2_353"/>
<path d="M582.2,618.9l8.3,-2.2l-8.3,-2.2v4.4Z" class="g3_353"/>
<path d="M645.9,716.1l.3,-74.4" class="g2_353"/>
<path d="M648.4,643.3L646.2,635l-2.2,8.2l4.4,.1Z" class="g3_353"/>
<path d="M223.1,561c-3.7,25.5,7.8,52.9,58.3,54.3" class="g5_353"/>
<path d="M280.4,618l5.1,-2.7l-4.9,-3l-.2,5.7Z" class="g3_353"/>
<path d="M611.9,544c0,19.8,22.4,21.3,24.6,46.2" class="g5_353"/>
<path d="M633.6,589.5l3.1,4.8l2.6,-5.1l-5.7,.3Z" class="g3_353"/>
<path d="M250.6,815.3c0,-26.2,23.9,-24.2,26.2,-50.4" class="g5_353"/>
<path d="M279.5,765.8l-2.6,-5.1l-3.1,4.8l5.7,.3Z" class="g3_353"/>
<path d="M447,813.1c0,-25.2,16,-30.7,18,-50.7" class="g5_353"/>
<path d="M467.7,763.4l-2.5,-5.1L462,763l5.7,.4Z" class="g3_353"/>
<path d="M671.7,814.1c0,-27,-16.2,-30,-18,-51.1" class="g5_353"/>
<path d="M656.6,763.7l-3.1,-4.8l-2.6,5.1l5.7,-.3Z" class="g3_353"/>
</svg>