<?xml version="1.0" encoding="UTF-8" standalone="no"?>
<!DOCTYPE svg PUBLIC "-//W3C//DTD SVG 1.1//EN"
"http://www.w3.org/Graphics/SVG/1.1/DTD/svg11.dtd">
<svg viewBox="0 0 811 1017" version="1.1" xmlns="http://www.w3.org/2000/svg" xmlns:xlink="http://www.w3.org/1999/xlink">
<defs>
<style type="text/css"><![CDATA[
.g0_318{
fill: none;
stroke: #222326;
stroke-width: 1.145;
}
.g1_318{
fill: #211E1E;
}
.g2_318{
fill: #C6EAFA;
}
.g3_318{
fill: none;
stroke: #222326;
stroke-width: 0.763;
}
.g4_318{
fill: #FED9A1;
}
.g5_318{
fill: none;
stroke: #222326;
stroke-width: 0.763;
stroke-dasharray: 4,4;
}
.g6_318{
fill: #FFF;
}
.g7_318{
fill: none;
stroke: #EE2026;
stroke-width: 0.763;
}
.g8_318{
fill: none;
stroke: #EE2026;
stroke-width: 0.763;
stroke-dasharray: 4,4;
}
.g9_318{
fill: none;
stroke: #222326;
stroke-width: 1.527;
}
]]></style>
</defs>
<path d="M157.4,223.9H411.8" class="g0_318"/>
<path d="M414.5,222.7c-1.9,-.6,-3.1,-1.1,-4.6,-1.7v5.8c.5,-.3,2.7,-1.2,4.6,-1.7c2,-.7,3.9,-1.1,5.1,-1.2c-1.2,-.2,-3.1,-.6,-5.1,-1.2Z" class="g1_318"/>
<path d="M172.9,184.3c0,3.4,2.7,6.1,6.1,6.1H386.9c3.4,0,6.1,-2.7,6.1,-6.1v-24c0,-3.3,-2.7,-6.1,-6.1,-6.1H179c-3.4,0,-6.1,2.8,-6.1,6.1v24Z" class="g2_318"/>
<path d="M172.9,184.3c0,3.4,2.7,6.1,6.1,6.1H386.9c3.4,0,6.1,-2.7,6.1,-6.1v-24c0,-3.3,-2.7,-6.1,-6.1,-6.1H179c-3.4,0,-6.1,2.8,-6.1,6.1v24Z" class="g3_318"/>
<path d="M217.3,223.9c0,5.8,-4.7,10.4,-10.5,10.4c-5.8,0,-10.5,-4.6,-10.5,-10.4c0,-5.8,4.7,-10.5,10.5,-10.5c5.8,0,10.5,4.7,10.5,10.5Z" class="g4_318"/>
<path d="M217.3,223.9c0,5.8,-4.7,10.4,-10.5,10.4c-5.8,0,-10.5,-4.6,-10.5,-10.4c0,-5.8,4.7,-10.5,10.5,-10.5c5.8,0,10.5,4.7,10.5,10.5Z" class="g3_318"/>
<path d="M247,223.9c0,5.8,-4.7,10.4,-10.5,10.4c-5.8,0,-10.5,-4.6,-10.5,-10.4c0,-5.8,4.7,-10.5,10.5,-10.5c5.8,0,10.5,4.7,10.5,10.5Z" class="g4_318"/>
<path d="M247,223.9c0,5.8,-4.7,10.4,-10.5,10.4c-5.8,0,-10.5,-4.6,-10.5,-10.4c0,-5.8,4.7,-10.5,10.5,-10.5c5.8,0,10.5,4.7,10.5,10.5Z" class="g3_318"/>
<path d="M276.7,223.9c0,5.8,-4.7,10.4,-10.5,10.4c-5.8,0,-10.5,-4.6,-10.5,-10.4c0,-5.8,4.7,-10.5,10.5,-10.5c5.8,0,10.5,4.7,10.5,10.5Z" class="g4_318"/>
<path d="M276.7,223.9c0,5.8,-4.7,10.4,-10.5,10.4c-5.8,0,-10.5,-4.6,-10.5,-10.4c0,-5.8,4.7,-10.5,10.5,-10.5c5.8,0,10.5,4.7,10.5,10.5Z" class="g3_318"/>
<path d="M306.4,223.9c0,5.8,-4.7,10.4,-10.5,10.4c-5.8,0,-10.5,-4.6,-10.5,-10.4c0,-5.8,4.7,-10.5,10.5,-10.5c5.8,0,10.5,4.7,10.5,10.5Z" class="g4_318"/>
<path d="M306.4,223.9c0,5.8,-4.7,10.4,-10.5,10.4c-5.8,0,-10.5,-4.6,-10.5,-10.4c0,-5.8,4.7,-10.5,10.5,-10.5c5.8,0,10.5,4.7,10.5,10.5Z" class="g3_318"/>
<path d="M336.1,223.9c0,5.8,-4.7,10.4,-10.5,10.4c-5.8,0,-10.4,-4.6,-10.4,-10.4c0,-5.8,4.6,-10.5,10.4,-10.5c5.8,0,10.5,4.7,10.5,10.5Z" class="g4_318"/>
<path d="M336.1,223.9c0,5.8,-4.7,10.4,-10.5,10.4c-5.8,0,-10.4,-4.6,-10.4,-10.4c0,-5.8,4.6,-10.5,10.4,-10.5c5.8,0,10.5,4.7,10.5,10.5Z" class="g3_318"/>
<path d="M365.8,223.9c0,5.8,-4.7,10.4,-10.5,10.4c-5.8,0,-10.4,-4.6,-10.4,-10.4c0,-5.8,4.6,-10.5,10.4,-10.5c5.8,0,10.5,4.7,10.5,10.5Z" class="g4_318"/>
<path d="M365.8,223.9c0,5.8,-4.7,10.4,-10.5,10.4c-5.8,0,-10.4,-4.6,-10.4,-10.4c0,-5.8,4.6,-10.5,10.4,-10.5c5.8,0,10.5,4.7,10.5,10.5Z" class="g3_318"/>
<path d="M206.8,190.4v17.8" class="g5_318"/>
<path d="M207.6,210c.4,-1.3,.7,-2.1,1.2,-3.1h-3.9c.2,.4,.8,1.8,1.1,3.1c.4,1.4,.7,2.6,.8,3.4c.1,-.8,.4,-2,.8,-3.4Z" class="g1_318"/>
<path d="M236.5,190.4v17.8" class="g5_318"/>
<path d="M237.3,210c.4,-1.3,.7,-2.1,1.1,-3.1h-3.8c.2,.4,.8,1.8,1.1,3.1c.4,1.4,.7,2.6,.8,3.4c.1,-.8,.4,-2,.8,-3.4Z" class="g1_318"/>
<path d="M266.2,190.4v17.8" class="g5_318"/>
<path d="M267,210c.4,-1.3,.7,-2.1,1.2,-3.1h-3.9c.2,.4,.8,1.8,1.1,3.1c.4,1.4,.7,2.6,.8,3.4c.1,-.8,.4,-2,.8,-3.4Z" class="g1_318"/>
<path d="M295.9,190.4v17.8" class="g5_318"/>
<path d="M296.7,210c.4,-1.3,.7,-2.1,1.2,-3.1H294c.2,.4,.8,1.8,1.1,3.1c.4,1.4,.7,2.6,.8,3.4c.1,-.8,.4,-2,.8,-3.4Z" class="g1_318"/>
<path d="M325.6,190.4v17.8" class="g5_318"/>
<path d="M326.4,210c.4,-1.3,.7,-2.1,1.2,-3.1h-3.9c.2,.4,.8,1.8,1.1,3.1c.4,1.4,.7,2.6,.8,3.4c.1,-.8,.4,-2,.8,-3.4Z" class="g1_318"/>
<path d="M355.3,190.4v17.8" class="g5_318"/>
<path d="M356.1,210c.4,-1.3,.8,-2.1,1.2,-3.1h-3.9c.2,.4,.8,1.8,1.1,3.1c.4,1.4,.7,2.6,.8,3.4c.1,-.8,.4,-2,.8,-3.4Z" class="g1_318"/>
<path d="M198.6,180.3c0,2.7,-2.2,4.8,-4.9,4.8c-2.6,0,-4.8,-2.1,-4.8,-4.8c0,-2.7,2.2,-4.8,4.8,-4.8c2.7,0,4.9,2.1,4.9,4.8Z" class="g6_318"/>
<path d="M189.7,180.3h4l-.3,-4m5.2,4c0,2.7,-2.2,4.8,-4.9,4.8c-2.6,0,-4.8,-2.1,-4.8,-4.8c0,-2.7,2.2,-4.8,4.8,-4.8c2.7,0,4.9,2.1,4.9,4.8Z" class="g7_318"/>
<path d="M227.9,180.3c0,2.7,-2.2,4.8,-4.8,4.8c-2.7,0,-4.9,-2.1,-4.9,-4.8c0,-2.7,2.2,-4.8,4.9,-4.8c2.6,0,4.8,2.1,4.8,4.8Z" class="g6_318"/>
<path d="M219,180.3h4.1l-.4,-4m5.2,4c0,2.7,-2.2,4.8,-4.8,4.8c-2.7,0,-4.9,-2.1,-4.9,-4.8c0,-2.7,2.2,-4.8,4.9,-4.8c2.6,0,4.8,2.1,4.8,4.8Z" class="g7_318"/>
<path d="M257.2,180.3c0,2.7,-2.1,4.8,-4.8,4.8c-2.7,0,-4.8,-2.1,-4.8,-4.8c0,-2.7,2.1,-4.8,4.8,-4.8c2.7,0,4.8,2.1,4.8,4.8Z" class="g6_318"/>
<path d="M248.4,180.3h4l-.4,-4m5.2,4c0,2.7,-2.1,4.8,-4.8,4.8c-2.7,0,-4.8,-2.1,-4.8,-4.8c0,-2.7,2.1,-4.8,4.8,-4.8c2.7,0,4.8,2.1,4.8,4.8Z" class="g7_318"/>
<path d="M286.6,180.3c0,2.7,-2.2,4.8,-4.9,4.8c-2.6,0,-4.8,-2.1,-4.8,-4.8c0,-2.7,2.2,-4.8,4.8,-4.8c2.7,0,4.9,2.1,4.9,4.8Z" class="g6_318"/>
<path d="M277.7,180.3h4l-.3,-4m5.2,4c0,2.7,-2.2,4.8,-4.9,4.8c-2.6,0,-4.8,-2.1,-4.8,-4.8c0,-2.7,2.2,-4.8,4.8,-4.8c2.7,0,4.9,2.1,4.9,4.8Z" class="g7_318"/>
<path d="M315.9,180.3c0,2.7,-2.2,4.8,-4.8,4.8c-2.7,0,-4.9,-2.1,-4.9,-4.8c0,-2.7,2.2,-4.8,4.9,-4.8c2.6,0,4.8,2.1,4.8,4.8Z" class="g6_318"/>
<path d="M307,180.3h4.1l-.4,-4m5.2,4c0,2.7,-2.2,4.8,-4.8,4.8c-2.7,0,-4.9,-2.1,-4.9,-4.8c0,-2.7,2.2,-4.8,4.9,-4.8c2.6,0,4.8,2.1,4.8,4.8Z" class="g7_318"/>
<path d="M345.2,180.3c0,2.7,-2.1,4.8,-4.8,4.8c-2.7,0,-4.8,-2.1,-4.8,-4.8c0,-2.7,2.1,-4.8,4.8,-4.8c2.7,0,4.8,2.1,4.8,4.8Z" class="g6_318"/>
<path d="M336.4,180.3h4l-.4,-4m5.2,4c0,2.7,-2.1,4.8,-4.8,4.8c-2.7,0,-4.8,-2.1,-4.8,-4.8c0,-2.7,2.1,-4.8,4.8,-4.8c2.7,0,4.8,2.1,4.8,4.8Z" class="g7_318"/>
<path d="M305.2,162.8c0,2.7,-2.2,4.8,-4.9,4.8c-2.6,0,-4.8,-2.1,-4.8,-4.8c0,-2.7,2.2,-4.8,4.8,-4.8c2.7,0,4.9,2.1,4.9,4.8Z" class="g6_318"/>
<path d="M296.3,162.8h4l-.3,-4m5.2,4c0,2.7,-2.2,4.8,-4.9,4.8c-2.6,0,-4.8,-2.1,-4.8,-4.8c0,-2.7,2.2,-4.8,4.8,-4.8c2.7,0,4.9,2.1,4.9,4.8Z" class="g7_318"/>
<path d="M354.3,187.3H326.5V173.2h27.8v14.1Zm-29.4,0H297.2V173.2h27.7v14.1Zm-29.3,0H267.9V173.2h27.7v14.1Zm-29.3,0H238.5V173.2h27.8v14.1Zm-29.4,0H209.2V173.2h27.7v14.1Zm-29.3,0H179.9V173.2h27.7v14.1Z" class="g8_318"/>
<path d="M376.6,234.3V213.4" class="g9_318"/>
</svg>