<?xml version="1.0" encoding="UTF-8" standalone="no"?>
<!DOCTYPE svg PUBLIC "-//W3C//DTD SVG 1.1//EN"
"http://www.w3.org/Graphics/SVG/1.1/DTD/svg11.dtd">
<svg viewBox="0 0 931 1096" version="1.1" xmlns="http://www.w3.org/2000/svg" xmlns:xlink="http://www.w3.org/1999/xlink">
<defs>
<clipPath id="c0_276"><path d="M468.1,276.4V242.7H544v33.7Z"/></clipPath>
<style type="text/css"><![CDATA[
.g0_276{
fill: none;
stroke: #00AEEF;
stroke-width: 1.145;
}
.g1_276{
fill: none;
stroke: #241F1F;
stroke-width: 0.763;
stroke-miterlimit: 10;
}
.g2_276{
fill: none;
stroke: #241F1F;
stroke-width: 1.069;
stroke-linejoin: round;
}
.g3_276{
fill: #241F1F;
}
.g4_276{
fill: none;
stroke: #241F1F;
stroke-width: 0.611;
stroke-miterlimit: 3;
}
.g5_276{
fill: none;
stroke: #241F1F;
stroke-width: 0.381;
stroke-miterlimit: 3;
}
.g6_276{
fill: #FFDEB8;
}
.g7_276{
fill: none;
stroke: #F9951B;
stroke-width: 0.916;
stroke-linejoin: round;
}
.g8_276{
fill: #F9951B;
}
.g9_276{
fill: none;
stroke: #F9951B;
stroke-width: 0.763;
stroke-miterlimit: 3;
}
.ga_276{
fill: #CFEDFC;
}
.gb_276{
fill: none;
stroke: #00AEEF;
stroke-width: 0.763;
stroke-linejoin: round;
}
.gc_276{
fill: #00AEEF;
}
.gd_276{
fill: none;
stroke: #00AEEF;
stroke-width: 0.763;
stroke-miterlimit: 3;
}
.ge_276{
fill: none;
stroke: #F9951B;
stroke-width: 1.527;
}
.gf_276{
fill: none;
stroke: #F9951B;
stroke-width: 0.713;
stroke-miterlimit: 3;
}
.gg_276{
fill: none;
stroke: #FFC500;
stroke-width: 0.713;
stroke-miterlimit: 3;
}
.gh_276{
fill: #C1E8FB;
}
.gi_276{
fill: none;
stroke: #00AEEF;
stroke-width: 0.916;
stroke-miterlimit: 3;
}
.gj_276{
fill: none;
stroke: #241F1F;
stroke-width: 0.458;
stroke-miterlimit: 3;
}
.gk_276{
fill: none;
stroke: #241F1F;
stroke-width: 0.763;
stroke-linejoin: round;
}
]]></style>
</defs>
<path d="M307.7,251.7c0,0,-1.6,0,-1.6,1.6v14.1c0,0,0,1.5,1.6,1.5h14.1c0,0,1.5,0,1.5,-1.5V253.3c0,0,0,-1.6,-1.5,-1.6H307.7Z" class="g0_276"/>
<path clip-path="url(#c0_276)" d="M527,260.7h17.4" class="g1_276"/>
<path d="M307.7,357.1c0,0,-1.6,0,-1.6,1.6v14.1c0,0,0,1.5,1.6,1.5h14.1c0,0,1.5,0,1.5,-1.5V358.7c0,0,0,-1.6,-1.5,-1.6H307.7Z" class="g0_276"/>
<path d="M491.1,366.1h17.5" class="g1_276"/>
<path d="M534.4,672.2h36.7" class="g2_276"/>
<path d="M576,672.2l-6.5,2.5l1.6,-2.5l-1.6,-2.5Z" class="g3_276"/>
<path d="M602.9,739.4h201" class="g4_276"/>
<path fill-rule="evenodd" d="M803.9,739.4L802.3,737l6.5,2.4l-6.5,2.5Z" class="g3_276"/>
<path d="M633.7,770V596.7" class="g4_276"/>
<path fill-rule="evenodd" d="M633.7,596.7l-2.4,1.7l2.4,-6.5l2.4,6.5Z" class="g3_276"/>
<path d="M687.9,637.5l3.8,8.4" class="g5_276"/>
<path d="M693.2,648.9l-3.4,-3.2l1.9,.2l1.1,-1.6Z" class="g3_276"/>
<path d="M708.6,688.4l.1,4.6l-1.2,-1.5l-1.9,.4Z" class="g3_276"/>
<path d="M704.7,698.6l2.8,-7.1" class="g5_276"/>
<path d="M708.8,688.4l-.1,4.7l-1.2,-1.6l-1.9,.3Z" class="g3_276"/>
<path d="M301.9,739.4H503" class="g4_276"/>
<path fill-rule="evenodd" d="M503,739.4L501.3,737l6.5,2.4l-6.5,2.5Z" class="g3_276"/>
<path d="M332.7,770V596.7" class="g4_276"/>
<path fill-rule="evenodd" d="M332.7,596.7l-2.4,1.7l2.4,-6.5l2.5,6.5Z" class="g3_276"/>
<path d="M376.3,672.5h70.3V631.6H376.3v40.9Z" class="g6_276"/>
<path d="M376.3,672.5h70.3V631.6H376.3v40.9Z" class="g7_276"/>
<path d="M446.2,695.2l-10,-19.7" class="g5_276"/>
<path d="M434.7,672.5l3.4,3.1l-1.9,-.1l-1,1.7Z" class="g3_276"/>
<path d="M391.6,619.9l-13.4,25.9" class="g5_276"/>
<path d="M376.7,648.8l.5,-4.6l1,1.6l1.9,-.1Z" class="g3_276"/>
<path d="M374.4,672.7c0,-1,.8,-1.7,1.8,-1.7c.9,0,1.7,.7,1.7,1.7c0,.9,-.8,1.7,-1.7,1.7c-1,0,-1.8,-.8,-1.8,-1.7Z" class="g8_276"/>
<path d="M374.4,672.7c0,-1,.8,-1.7,1.8,-1.7c.9,0,1.7,.7,1.7,1.7c0,.9,-.8,1.7,-1.7,1.7c-1,0,-1.8,-.8,-1.8,-1.7Z" class="g9_276"/>
<path d="M677.4,672c8.4,1.7,50.3,20.3,66.3,37.3c9.5,-12.9,23.5,-25.4,39.5,-33c-16,-15.5,-40.8,-31.8,-70.9,-37.9c-20.7,7.5,-30.9,27.4,-34.9,33.6Z" class="ga_276"/>
<path d="M677.4,672c8.4,1.7,50.3,20.3,66.3,37.3c9.5,-12.9,23.5,-25.4,39.5,-33c-16,-15.5,-40.8,-31.8,-70.9,-37.9c-20.7,7.5,-30.9,27.4,-34.9,33.6Z" class="gb_276"/>
<path d="M675.6,671.8c0,-1,.7,-1.8,1.7,-1.8c.9,0,1.7,.8,1.7,1.8c0,.9,-.8,1.7,-1.7,1.7c-1,0,-1.7,-.8,-1.7,-1.7Z" class="gc_276"/>
<path d="M675.6,671.8c0,-1,.7,-1.8,1.7,-1.8c.9,0,1.7,.8,1.7,1.8c0,.9,-.8,1.7,-1.7,1.7c-1,0,-1.7,-.8,-1.7,-1.7Z" class="gd_276"/>
<path d="M616.9,968.2h19.8m29.9,0h19.8" class="g1_276"/>
<path d="M151.9,242.5v39" class="g2_276"/>
<path d="M151.9,286.5L149.4,280l2.5,1.5l2.4,-1.5Z" class="g3_276"/>
<path d="M127.9,198.5h51.3V147.1H127.9v51.4Z" class="g6_276"/>
<path d="M127.9,198.5h51.3V147.1H127.9v51.4Z" class="ge_276"/>
<path d="M179.2,166.4l-2.4,6l2.4,-1.4l2.5,1.4Z" class="g8_276"/>
<path d="M179.2,173.5l-2.4,6.1l2.4,-1.4l2.5,1.4Z" class="g8_276"/>
<path d="M157.3,198.4l-6.1,-2.5l1.4,2.5l-1.4,2.5Z" class="g8_276"/>
<path d="M140.4,147.2l6.1,2.5l-1.4,-2.5l1.4,-2.5Z" class="g8_276"/>
<path d="M149,147.2l6.1,2.5l-1.4,-2.5l1.4,-2.5Z" class="g8_276"/>
<path d="M157.5,147.2l6.1,2.5l-1.4,-2.5l1.4,-2.5Z" class="g8_276"/>
<path d="M127.9,165.9l2.5,-6.1l-2.5,1.4l-2.4,-1.4Z" class="g8_276"/>
<path d="M127.9,173l2.5,-6.1l-2.5,1.4l-2.4,-1.4Z" class="g8_276"/>
<path d="M127.9,180.1l2.5,-6l-2.5,1.3l-2.4,-1.3Z" class="g8_276"/>
<path d="M127.9,187.3l2.5,-6.1l-2.5,1.4l-2.4,-1.4Z" class="g8_276"/>
<path d="M177.4,147.2c0,-.9,.8,-1.7,1.8,-1.7c.9,0,1.7,.8,1.7,1.7c0,1,-.8,1.8,-1.7,1.8c-1,0,-1.8,-.8,-1.8,-1.8Z" class="g8_276"/>
<path d="M177.4,147.2c0,-.9,.8,-1.7,1.8,-1.7c.9,0,1.7,.8,1.7,1.7c0,1,-.8,1.8,-1.7,1.8c-1,0,-1.8,-.8,-1.8,-1.8Z" class="gf_276"/>
<path d="M126.1,147.2c0,-.9,.8,-1.7,1.7,-1.7c1,0,1.7,.8,1.7,1.7c0,1,-.7,1.8,-1.7,1.8c-.9,0,-1.7,-.8,-1.7,-1.8Z" class="g8_276"/>
<path d="M126.1,147.2c0,-.9,.8,-1.7,1.7,-1.7c1,0,1.7,.8,1.7,1.7c0,1,-.7,1.8,-1.7,1.8c-.9,0,-1.7,-.8,-1.7,-1.8Z" class="gg_276"/>
<path d="M177.4,198.6c0,-1,.8,-1.7,1.8,-1.7c.9,0,1.7,.7,1.7,1.7c0,.9,-.8,1.7,-1.7,1.7c-1,0,-1.8,-.8,-1.8,-1.7Z" class="g8_276"/>
<path d="M177.4,198.6c0,-1,.8,-1.7,1.8,-1.7c.9,0,1.7,.7,1.7,1.7c0,.9,-.8,1.7,-1.7,1.7c-1,0,-1.8,-.8,-1.8,-1.7Z" class="gg_276"/>
<path d="M98,198.5H226.3" class="g4_276"/>
<path fill-rule="evenodd" d="M226.3,198.5L224.7,196l6.5,2.5l-6.5,2.4Z" class="g3_276"/>
<path d="M127.9,224.1V108.6" class="g4_276"/>
<path fill-rule="evenodd" d="M127.9,108.6l-2.4,1.7l2.4,-6.5l2.5,6.5Z" class="g3_276"/>
<path d="M124.8,147.2h6.1m48.3,54.3v-6.1" class="g4_276"/>
<path d="M100.5,432.7C99.8,387.9,126.6,354.4,151.9,330c25.3,24.4,52.1,57.9,51.3,102.7Z" class="gh_276"/>
<path d="M151.9,458.3V308.6" class="g4_276"/>
<path fill-rule="evenodd" d="M151.9,308.6l-2.5,1.6l2.5,-6.5l2.4,6.5Z" class="g3_276"/>
<path d="M100.5,435.7v-6.1m48.3,-48.3h6.1m48.3,54.4v-6.1" class="g4_276"/>
<path d="M100.6,432.7c-.8,-44.8,26,-78.3,51.3,-102.7" class="gi_276"/>
<path d="M203.2,432.7C204,387.9,177.2,354.4,151.9,330" class="gb_276"/>
<path d="M229.9,356h10.2M87.6,356H97.8" class="gj_276"/>
<path d="M150.2,330c0,-.9,.7,-1.7,1.7,-1.7c.9,0,1.7,.8,1.7,1.7c0,.9,-.8,1.7,-1.7,1.7c-1,0,-1.7,-.8,-1.7,-1.7Z" class="gc_276"/>
<path d="M150.2,330c0,-.9,.7,-1.7,1.7,-1.7c.9,0,1.7,.8,1.7,1.7c0,.9,-.8,1.7,-1.7,1.7c-1,0,-1.7,-.8,-1.7,-1.7Z" class="gd_276"/>
<path d="M201.5,432.7c0,-1,.7,-1.7,1.7,-1.7c1,0,1.7,.7,1.7,1.7c0,.9,-.7,1.7,-1.7,1.7c-1,0,-1.7,-.8,-1.7,-1.7Z" class="gc_276"/>
<path d="M201.5,432.7c0,-1,.7,-1.7,1.7,-1.7c1,0,1.7,.7,1.7,1.7c0,.9,-.7,1.7,-1.7,1.7c-1,0,-1.7,-.8,-1.7,-1.7Z" class="gd_276"/>
<path d="M98.8,432.7c0,-1,.8,-1.7,1.7,-1.7c1,0,1.8,.7,1.8,1.7c0,.9,-.8,1.7,-1.8,1.7c-.9,0,-1.7,-.8,-1.7,-1.7Z" class="gc_276"/>
<path d="M98.8,432.7c0,-1,.8,-1.7,1.7,-1.7c1,0,1.8,.7,1.8,1.7c0,.9,-.8,1.7,-1.8,1.7c-.9,0,-1.7,-.8,-1.7,-1.7Z" class="gd_276"/>
<path d="M118.7,432.5l-6.1,-2.4l1.4,2.4l-1.4,2.5Z" class="gc_276"/>
<path d="M180,432.5l-6,-2.4l1.3,2.4L174,435Z" class="gc_276"/>
<path d="M125.8,432.5l-6,-2.4l1.3,2.4l-1.3,2.5Z" class="gc_276"/>
<path d="M113.4,379.8l4.8,-4.5l-2.8,.2l-1.7,-2.3Z" class="gc_276"/>
<path d="M110.3,386.2l4.8,-4.4l-2.9,.2l-1.6,-2.3Z" class="gc_276"/>
<path d="M107.4,392.7l4.8,-4.4l-2.8,.2l-1.7,-2.3Z" class="gc_276"/>
<path d="M192,383.1l.3,6.5l1.7,-2.3l2.8,.2Z" class="gc_276"/>
<path d="M188.9,376.9l.4,6.5l1.6,-2.3l2.9,.2Z" class="gc_276"/>
<path d="M133,432.5l-6.1,-2.4l1.4,2.4l-1.4,2.5Z" class="gc_276"/>
<path d="M140.1,432.5L134,430.1l1.4,2.4L134,435Z" class="gc_276"/>
<path d="M53.5,432.7H250.3" class="g4_276"/>
<path fill-rule="evenodd" d="M250.3,432.7l-1.7,-2.5l6.5,2.5l-6.5,2.4Z" class="g3_276"/>
<path d="M101.5,445.5c0,0,-.9,-7.8,-1,-12.8" class="gk_276"/>
<path d="M148.8,330h6.1" class="g4_276"/>
<path d="M202.3,445.5c0,0,.8,-7.8,.9,-12.8M151.9,330L139.8,318m12.1,12l12,-12" class="gk_276"/>
</svg>