<?xml version="1.0" encoding="UTF-8" standalone="no"?>
<!DOCTYPE svg PUBLIC "-//W3C//DTD SVG 1.1//EN"
"http://www.w3.org/Graphics/SVG/1.1/DTD/svg11.dtd">
<svg viewBox="0 0 931 1096" version="1.1" xmlns="http://www.w3.org/2000/svg" xmlns:xlink="http://www.w3.org/1999/xlink">
<defs>
<clipPath id="c0_92"><path d="M205.4,694.2c-4.5,0,-8.2,-3.7,-8.2,-8.2V587c0,-4.6,3.7,-8.3,8.2,-8.3h99c4.6,0,8.3,3.7,8.3,8.3v99c0,4.5,-3.7,8.2,-8.3,8.2Z"/></clipPath>
<clipPath id="c1_92"><path d="M205.9,942.9c-4.6,0,-8.3,-3.7,-8.3,-8.3v-99c0,-4.5,3.7,-8.2,8.3,-8.2h99c4.5,0,8.2,3.7,8.2,8.2v99c0,4.6,-3.7,8.3,-8.2,8.3Z"/></clipPath>
<style type="text/css"><![CDATA[
.g0_92{
fill: none;
stroke: #00AEEF;
stroke-width: 0.763;
stroke-miterlimit: 10;
}
.g1_92{
fill: none;
stroke: #241F1F;
stroke-width: 0.687;
stroke-miterlimit: 10;
}
.g2_92{
fill: none;
stroke: #241F1F;
stroke-width: 0.481;
stroke-miterlimit: 10;
}
.g3_92{
fill: none;
stroke: #00AEEF;
stroke-width: 0.84;
stroke-linecap: round;
stroke-miterlimit: 3;
}
.g4_92{
fill: none;
stroke: #00AEEF;
stroke-width: 0.534;
stroke-miterlimit: 3;
}
.g5_92{
fill: none;
stroke: #241F1F;
stroke-width: 0.534;
stroke-miterlimit: 3;
}
.g6_92{
fill: #241F1F;
}
.g7_92{
fill: none;
stroke: #241F1F;
stroke-width: 0.763;
stroke-miterlimit: 3;
}
.g8_92{
fill: #00AEEF;
}
]]></style>
</defs>
<path d="M447.7,551.4H823.5" class="g0_92"/>
<path d="M752.3,111.9h28.1" class="g1_92"/>
<path d="M521.1,368.5h4.8" class="g2_92"/>
<path d="M73.7,216.7H431.2M73.7,1043.6H431.2" class="g0_92"/>
<path d="M253.6,137.1h40.5" class="g1_92"/>
<path d="M218.9,347.8h4.7" class="g2_92"/>
<path clip-path="url(#c0_92)" d="M217.2,630.7l-1,.5m-4,-.5h5m-11.8,-1.1l1.9,1.1m-1.9,1v-2.1m1.9,1.1l-1.9,1m-6.3,-1h8.2m101.4,10.4l1.8,1.1m-1.8,.8v-1.9m1.8,1.1l-1.8,.8m-6.3,-1.1l8.1,.3m-14.1,-.8l1,.8m-1,.5v-1.3m1,.8l-1,.5m-4,-.8l5,.3M284,641.7l.8,.5m-.8,.3v-.8m.8,.5l-.8,.3m-1.8,-.6l2.6,.3m-12.5,-.3l.2,.3m-.2,0v-.3m.2,.3h-.2m-.8,-.3l1,.3m-12,-.3v.3m-11.6,-.3l.3,.3m-11.3,-.3l.3,.3m-.3,0v-.3m.3,.3h-.3m-.8,-.3l1.1,.3m-11.3,-.5l.5,.5m-.5,.3v-.8m.5,.5l-.5,.3m-2.1,-.6l2.6,.3m-11.2,-.8l1,.8m-1,.5v-1.3m1,.8l-1,.5m-4,-.8l5,.3m-11.8,-1.1l1.9,1.1m-1.9,.8v-1.9m1.9,1.1l-1.9,.8m-6.3,-1.1l8.2,.3m101.4,10.5l1.8,1.3m-1.8,.8v-2.1m1.8,1.3l-1.8,.8m-6.3,-1.9l8.1,1.1m-14.1,-.8l1,.8m-1.3,.3l.3,-1.1m1,.8l-1.3,.3m-3.7,-1.4l5,1.1m-13.1,-.5l.5,.5m-.8,0l.3,-.5m.5,.5H284m-1.8,-1.1l2.6,1.1m-12.5,-.3l.2,.3m-.2,0v-.3m.2,.3h-.2m-.8,-1.1l1,1.1m-11.8,-.3l-.2,.3m0,-.3h.2m-.2,.3v-.3m0,-.8V654m-11.3,-.3v.3m-.3,-.3h.3m0,.3l-.3,-.3m0,-.8l.3,1.1m-11.3,-.3l.3,.3m-.5,0l.2,-.3m.3,.3h-.5m-.6,-1.1l1.1,1.1m-11.3,-.5l.5,.5m-.7,0l.2,-.5m.5,.5h-.7m-1.9,-1.1l2.6,1.1m-11.2,-.8l1,.8m-1.3,.3l.3,-1.1m1,.8l-1.3,.3m-3.7,-1.4l5,1.1m-11.5,-1.3l1.6,1.3m-1.9,.8l.3,-2.1m1.6,1.3l-1.9,.8m-6.3,-1.9l8.2,1.1m101.6,10.7l1.6,1.6m-2.1,.3l.5,-1.9m1.6,1.6l-2.1,.3m-6,-2.9l8.1,2.6M296.6,665l.8,1.3m-1.3,0l.5,-1.3m.8,1.3h-1.3m-3.7,-2.6l5,2.6m-12.8,-1l.2,1m-1,-.3l.8,-.7m.2,1l-1,-.3m-1.6,-2.3l2.6,2.6m-12.3,-.8v.8m-.5,-.5l.5,-.3m0,.8l-.5,-.5m-.5,-2.1l1,2.6M261,665.8l-.5,.5m-.3,-.5h.8m-.5,.5l-.3,-.5m.3,-2.1v2.6m-11,-.5l-.3,.5m-.5,-.5h.8m-.3,.5l-.5,-.5m.2,-2.1l.3,2.6m-11,-.8v.8m-.5,-.5l.5,-.3m0,.8l-.5,-.5m-.6,-2.1l1.1,2.6m-11,-1l.2,1m-.7,-.3l.5,-.7m.2,1l-.7,-.3m-1.9,-2.3l2.6,2.6m-11,-1.3l.8,1.3m-1.6,0l.8,-1.3m.8,1.3h-1.6m-3.4,-2.6l5,2.6M206,664.7l1.3,1.6m-2.1,.3l.8,-1.9m1.3,1.6l-2.1,.3m-6.1,-2.9l8.2,2.6m101.9,10.5l1.3,2.1m-2.3,0l1,-2.1m1.3,2.1h-2.3m-5.8,-5l8.1,5m-13.6,-1.6l.5,1.6m-1.8,-.5l1.3,-1.1m.5,1.6l-1.8,-.5m-3.2,-4.5l5,5m-12.6,-1.3v1.3m-1.3,-.8l1.3,-.5m0,1.3l-1.3,-.8m-1.3,-4.2l2.6,5m-12,-1.3l-.3,1.3m-.8,-1.1l1.1,-.2m-.3,1.3l-.8,-1.1m-.2,-3.9l1,5m-11.2,-1.1l-.8,1.1m-.6,-1.1h1.4m-.8,1.1l-.6,-1.1m.6,-3.9v5m-10.8,-1.1l-.5,1.1m-.8,-1.1h1.3m-.5,1.1l-.8,-1.1m.5,-3.9l.3,5m-10.7,-1.3l-.3,1.3m-1.1,-1.1l1.4,-.2m-.3,1.3l-1.1,-1.1m0,-3.9l1.1,5m-10.8,-1.3v1.3m-1.3,-.8l1.3,-.5m0,1.3l-1.3,-.8m-1.3,-4.2l2.6,5m-10.7,-1.6l.5,1.6m-1.8,-.5l1.3,-1.1m.5,1.6l-1.8,-.5m-3.2,-4.5l5,5m-11,-2.1l1.1,2.1m-2.4,0l1.3,-2.1m1.1,2.1h-2.4m-5.8,-5l8.2,5m102.4,10.2l.8,2.9m-2.9,-.8l2.1,-2.1m.8,2.9l-2.9,-.8m-5.2,-7.3l8.1,8.1m-13.1,-2.4V692m-2.1,-1.3l2.1,-1.1m0,2.4l-2.1,-1.3m-2.9,-6.8l5,8.1m-12.3,-2.1l-.3,2.1m-1.5,-1.6l1.8,-.5m-.3,2.1l-1.5,-1.6m-1.1,-6.5l2.6,8.1m-11.5,-1.8l-.8,1.8m-1.3,-1.6l2.1,-.2m-.8,1.8l-1.3,-1.6m.3,-6.5l1,8.1m-11,-1.8l-1,1.8m-.8,-1.8h1.8m-1,1.8l-.8,-1.8m.8,-6.3V692m-10.2,-1.8l-1.1,1.8m-1.1,-1.8h2.2m-1.1,1.8l-1.1,-1.8m.8,-6.3l.3,8.1M239,690.2l-.8,1.8m-1.3,-1.6l2.1,-.2m-.8,1.8l-1.3,-1.6m.2,-6.5l1.1,8.1M228,689.9l-.6,2.1m-1.5,-1.6l2.1,-.5m-.6,2.1l-1.5,-1.6m-1.1,-6.5l2.6,8.1m-10.2,-2.4V692m-2.1,-1.3l2.1,-1.1m0,2.4l-2.1,-1.3m-2.9,-6.8l5,8.1m-10.7,-2.9l.8,2.9m-2.7,-.8l1.9,-2.1m.8,2.9l-2.7,-.8m-5.5,-7.3l8.2,8.1M309.7,586.1l.8,2.6m-2.9,-.8l2.1,-1.8m.8,2.6l-2.9,-.8m-5.2,-7.3l8.1,8.1m-13.1,-2.3v2.3m-2.1,-1l2.1,-1.3m0,2.3l-2.1,-1m-2.9,-7.1l5,8.1m-12.3,-2.1l-.3,2.1m-1.5,-1.3l1.8,-.8m-.3,2.1l-1.5,-1.3m-1.1,-6.8l2.6,8.1m-11.5,-1.8l-.8,1.8m-1.3,-1.5l2.1,-.3m-.8,1.8l-1.3,-1.5m.3,-6.6l1,8.1m-11,-1.5l-1,1.5m-.8,-1.5h1.8m-1,1.5l-.8,-1.5m.8,-6.6v8.1m-10.2,-1.5l-1.1,1.5m-1.1,-1.5h2.2m-1.1,1.5l-1.1,-1.5m.8,-6.6l.3,8.1M239,586.9l-.8,1.8m-1.3,-1.5l2.1,-.3m-.8,1.8l-1.3,-1.5m.2,-6.6l1.1,8.1M228,586.6l-.6,2.1m-1.5,-1.3l2.1,-.8m-.6,2.1l-1.5,-1.3m-1.1,-6.8l2.6,8.1m-10.2,-2.3v2.3m-2.1,-1l2.1,-1.3m0,2.3l-2.1,-1m-2.9,-7.1l5,8.1m-10.7,-2.6l.8,2.6m-2.7,-.8l1.9,-1.8m.8,2.6l-2.7,-.8m-5.5,-7.3l8.2,8.1m101.9,7.9l1.3,2.1m-2.3,0l1,-2.1m1.3,2.1h-2.3m-5.8,-5l8.1,5m-13.6,-1.6l.5,1.6m-1.8,-.5l1.3,-1.1m.5,1.6l-1.8,-.5m-3.2,-4.5l5,5m-12.6,-1.3v1.3m-1.3,-.8l1.3,-.5m0,1.3l-1.3,-.8m-1.3,-4.2l2.6,5m-12,-1.3l-.3,1.3m-.8,-1l1.1,-.3m-.3,1.3l-.8,-1m-.2,-4l1,5m-11.2,-1l-.8,1m-.6,-1h1.4m-.8,1l-.6,-1m.6,-4v5m-10.8,-1l-.5,1m-.8,-1h1.3m-.5,1l-.8,-1m.5,-4l.3,5m-10.7,-1.3l-.3,1.3m-1.1,-1l1.4,-.3m-.3,1.3l-1.1,-1m0,-4l1.1,5m-10.8,-1.3v1.3m-1.3,-.8l1.3,-.5m0,1.3l-1.3,-.8m-1.3,-4.2l2.6,5m-10.7,-1.6l.5,1.6m-1.8,-.5l1.3,-1.1m.5,1.6l-1.8,-.5m-3.2,-4.5l5,5m-11,-2.1l1.1,2.1m-2.4,0l1.3,-2.1m1.1,2.1h-2.4m-5.8,-5l8.2,5m101.6,8.7l1.6,1.5m-2.1,.5l.5,-2m1.6,1.5l-2.1,.5m-6,-3.1l8.1,2.6m-13.9,-1l.8,1m-1.3,0l.5,-1m.8,1h-1.3m-3.7,-2.6l5,2.6m-12.8,-.8l.2,.8m-1,-.2l.8,-.6m.2,.8l-1,-.2m-1.6,-2.4l2.6,2.6m-12.3,-.5v.5m-.5,-.5h.5m0,.5l-.5,-.5m-.5,-2.1l1,2.6M261,608.4l-.5,.5m-.3,-.5h.8m-.5,.5l-.3,-.5m.3,-2.1v2.6m-11,-.5l-.3,.5m-.5,-.5h.8m-.3,.5l-.5,-.5m.2,-2.1l.3,2.6m-11,-.5v.5m-.5,-.5h.5m0,.5l-.5,-.5m-.6,-2.1l1.1,2.6m-11,-.8l.2,.8m-.7,-.2l.5,-.6m.2,.8l-.7,-.2m-1.9,-2.4l2.6,2.6m-11,-1l.8,1m-1.6,0l.8,-1m.8,1h-1.6m-3.4,-2.6l5,2.6M206,607.4l1.3,1.5m-2.1,.5l.8,-2m1.3,1.5l-2.1,.5m-6.1,-3.1l8.2,2.6m101.4,9.5l1.8,1.3m-1.8,.7v-2m1.8,1.3l-1.8,.7m-6.3,-1.8l8.1,1.1m-14.1,-.8l1,.8m-1.3,.2l.3,-1m1,.8l-1.3,.2m-3.7,-1.3l5,1.1m-13.1,-.6l.5,.6m-.8,0l.3,-.6m.5,.6H284m-1.8,-1.1l2.6,1.1m-12.5,-.3l.2,.3m0,0l-.2,-.3m-.8,-.8l1,1.1m-11.8,-.3l-.2,.3m0,-.3h.2m-.2,.3v-.3m0,-.8v1.1m-11.3,-.3v.3m-.3,-.3h.3m0,.3l-.3,-.3m0,-.8l.3,1.1m-11.3,-.3l.3,.3m-.5,-.3h.2m.3,.3l-.5,-.3m-.6,-.8l1.1,1.1m-11.3,-.6l.5,.6m-.7,0l.2,-.6m.5,.6h-.7m-1.9,-1.1l2.6,1.1m-11.2,-.8l1,.8m-1.3,.2l.3,-1m1,.8l-1.3,.2m-3.7,-1.3l5,1.1m-11.5,-1.3l1.6,1.3m-1.9,.7l.3,-2m1.6,1.3l-1.9,.7m-6.3,-1.8l8.2,1.1m101.4,9.9l1.8,1.1m-1.8,1v-2.1m1.8,1.1l-1.8,1m-6.3,-1h8.1m-14.1,-.8l1,.8m-1,.5v-1.3m1,.8l-1,.5m-4,-.5h5M284,630.4l.8,.3m-.8,.2v-.5m.8,.3l-.8,.2m-1.8,-.2h2.6m-12.5,-.3l.2,.3m-.2,0v-.3m.2,.3h-.2m-.8,0h1m-23.6,0h.3m-11.3,-.3l.3,.3m-.3,0v-.3m.3,.3h-.3m-.8,0h1.1m-11.3,-.3l.5,.3m-.5,.2v-.5m.5,.3l-.5,.2m-2.1,-.2h2.6m-11.2,-.8l1,.8m-1,.5v-1.3" class="g3_92"/>
<path d="M205.4,578.7h99c4.6,0,8.3,3.7,8.3,8.3v99c0,4.5,-3.7,8.2,-8.3,8.2h-99c-4.5,0,-8.2,-3.7,-8.2,-8.2V587c0,-4.6,3.7,-8.3,8.2,-8.3Z" class="g4_92"/>
<path d="M254.8,694.2V578.7m-57.7,57.8H312.6" class="g5_92"/>
<path d="M219.3,601.7c0,-.7,.6,-1.3,1.3,-1.3c.8,0,1.4,.6,1.4,1.3c0,.7,-.6,1.3,-1.4,1.3c-.7,0,-1.3,-.6,-1.3,-1.3Z" class="g6_92"/>
<path d="M219.3,601.7c0,-.7,.6,-1.3,1.3,-1.3c.8,0,1.4,.6,1.4,1.3c0,.7,-.6,1.3,-1.4,1.3c-.7,0,-1.3,-.6,-1.3,-1.3Z" class="g7_92"/>
<path d="M287,664.9c0,-.7,.6,-1.3,1.4,-1.3c.7,0,1.3,.6,1.3,1.3c0,.8,-.6,1.4,-1.3,1.4c-.8,0,-1.4,-.6,-1.4,-1.4Z" class="g6_92"/>
<path d="M287,664.9c0,-.7,.6,-1.3,1.4,-1.3c.7,0,1.3,.6,1.3,1.3c0,.8,-.6,1.4,-1.3,1.4c-.8,0,-1.4,-.6,-1.4,-1.4Z" class="g7_92"/>
<path clip-path="url(#c1_92)" d="M203.3,879.8l-1.1,-.5m1.1,-.5v1m-1.1,-.5l1.1,-.5m3.9,.5h-5m105.1,10.8l1,.5m-1,.5v-1m1,.5l-1,.5m-3.9,-.5h4.9m-12.5,-.5l.7,.5m-.7,.5v-1m.7,.5l-.7,.5m-3.2,-.5h3.9m-12.3,-.3l.5,.3m-.5,.2v-.5m.5,.3l-.5,.2m-2.3,-.2h2.8m-12,-.3l.3,.3m-.3,.2v-.5m.3,.3l-.3,.2m-1.3,-.2H273m-12.1,0h.3m0,0h-.3m-.3,0h.6m-11.3,0h-.5m-11.6,.2l-.2,-.2m.2,-.3v.5m-.2,-.2l.2,-.3m1.4,.3h-1.6m-11.3,.2l-.5,-.2m.5,-.3v.5m-.5,-.2l.5,-.3m2.4,.3h-2.9m-11,.5l-.8,-.5m.8,-.5v1m-.8,-.5l.8,-.5m3.1,.5H214m-10.7,.5l-1.1,-.5m1.1,-.5v1m-1.1,-.5l1.1,-.5m3.9,.5h-5M307,900.8l1.3,.5m-1,.8l-.3,-1.3m1.3,.5l-1,.8m-3.9,.3l4.9,-1.1m-12.8,-.2l1,.2m-.7,.8l-.3,-1m1,.2l-.7,.8m-3.2,.3l3.9,-1.1M284,901.1l.7,.2m-.5,.6l-.2,-.8m.7,.2l-.5,.6m-2.3,.5l2.8,-1.1m-12.3,0h.6m-.3,.6l-.3,-.6m.6,0l-.3,.6m-1.3,.5l1.6,-1.1m-12.1,0h.3m0,.3l-.3,-.3m.3,0v.3m-.6,.8l.6,-1.1m-11.8,.3v-.3m.2,0l-.2,.3m0,-.3h.2m.3,1.1l-.5,-1.1m-11.6,.6l-.2,-.6m.5,0l-.3,.6m-.2,-.6h.5m1.1,1.1l-1.6,-1.1m-11.3,.6l-.5,-.6m.8,-.2l-.3,.8m-.5,-.6l.8,-.2m2.1,1.3l-2.9,-1.1m-11,.8l-.8,-.8m1,-.2l-.2,1m-.8,-.8l1,-.2m2.9,1.3L214,901.3m-11,.8l-.8,-.8m1.1,-.5l-.3,1.3m-.8,-.8l1.1,-.5m3.9,1.6l-5,-1.1m104.6,10.2h1.5m-.7,1.4l-.8,-1.4m1.5,0l-.7,1.4m-4.2,1.8l4.9,-3.2m-13.1,.3l1.3,-.3m-.5,1.1l-.8,-.8m1.3,-.3l-.5,1.1m-3.4,2.1l3.9,-3.2m-12.8,.3l1,-.3m-.2,1.1l-.8,-.8m1,-.3l-.2,1.1m-2.6,2.1l2.8,-3.2m-12.5,.6l.8,-.6m0,.8l-.8,-.2m.8,-.6v.8m-1.6,2.4l1.6,-3.2m-12.4,.6l.6,-.6m.2,.8l-.8,-.2m.6,-.6l.2,.8m-.8,2.4l.6,-3.2m-12.1,.8l.3,-.8m.5,.6l-.8,.2m.3,-.8l.5,.6m0,2.6l-.5,-3.2m-11.8,.8v-.8m.8,.6l-.8,.2m0,-.8l.8,.6m.8,2.6l-1.6,-3.2m-11.5,1.1l-.3,-1.1m1,.3l-.7,.8m-.3,-1.1l1,.3m1.9,2.9l-2.9,-3.2m-11.3,1.1l-.5,-1.1m1.3,.3l-.8,.8m-.5,-1.1l1.3,.3m2.6,2.9L214,911.5m-11.3,1.4l-.5,-1.4m1.3,0l-.8,1.4m-.5,-1.4h1.3m3.7,3.2l-5,-3.2M306.5,922l1.8,-.8m-.2,2.1L306.5,922m1.8,-.8l-.2,2.1m-4.7,4l4.9,-6.1M295,922l1.5,-.8m0,1.9L295,922m1.5,-.8v1.9m-3.9,4.2l3.9,-6.1m-13.1,1.1l1.3,-1.1m.3,1.6l-1.6,-.5m1.3,-1.1l.3,1.6m-3.1,4.5l2.8,-6.1m-12.8,1.1l1.1,-1.1m.2,1.6l-1.3,-.5m1.1,-1.1l.2,1.6m-1.8,4.5l1.6,-6.1m-12.6,1.4l.8,-1.4m.5,1.4h-1.3m.8,-1.4l.5,1.4m-1.1,4.7l.6,-6.1m-12.6,1.4l.8,-1.4m.8,1.4h-1.6m.8,-1.4l.8,1.4m-.3,4.7l-.5,-6.1m-12.3,1.6l.5,-1.6m1,1.1l-1.5,.5m.5,-1.6l1,1.1m.6,5l-1.6,-6.1m-12.1,1.6l.3,-1.6m1.3,1.1l-1.6,.5m.3,-1.6l1.3,1.1m1.6,5l-2.9,-6.1M214,923.1v-1.9m1.6,.8l-1.6,1.1m0,-1.9l1.6,.8m2.3,5.3L214,921.2m-11.5,2.1l-.3,-2.1m1.8,.8l-1.5,1.3m-.3,-2.1l1.8,.8m3.2,5.3l-5,-6.1M306,932l2.3,-1.6m.3,2.9L306,932m2.3,-1.6l.3,2.9m-5.2,7.3l4.9,-10.2m-13.9,1.9l2.1,-1.9m.6,2.9l-2.7,-1m2.1,-1.9l.6,2.9m-4.5,7.3l3.9,-10.2m-13.6,1.9l1.8,-1.9m.6,2.6l-2.4,-.7m1.8,-1.9l.6,2.6m-3.4,7.6l2.8,-10.2m-13.3,2.1l1.6,-2.1m.7,2.6l-2.3,-.5m1.6,-2.1l.7,2.6m-2.3,7.6L273,930.4m-13.1,2.1l1.3,-2.1m1,2.4l-2.3,-.3m1.3,-2.1l1,2.4m-1.6,7.8l.6,-10.2m-12.9,2.4l1.1,-2.4m1.3,2.1l-2.4,.3m1.1,-2.4l1.3,2.1m-.8,8.1l-.5,-10.2M236.5,933l1.1,-2.6m1.6,2.1l-2.7,.5m1.1,-2.6l1.6,2.1m0,8.1l-1.6,-10.2M225,933l.8,-2.6m1.8,1.9L225,933m.8,-2.6l1.8,1.9m1.1,8.3l-2.9,-10.2m-12.3,2.9l.5,-2.9m2.1,1.9l-2.6,1m.5,-2.9l2.1,1.9m1.8,8.3L214,930.4m-12.1,2.9l.3,-2.9m2.4,1.6l-2.7,1.3m.3,-2.9l2.4,1.6m2.6,8.6l-5,-10.2M306,830.8l2.3,-1.5m.3,2.8L306,830.8m2.3,-1.5l.3,2.8m-5.2,7.4l4.9,-10.2m-13.9,1.8l2.1,-1.8m.6,2.8l-2.7,-1m2.1,-1.8l.6,2.8m-4.5,7.4l3.9,-10.2m-13.6,1.8l1.8,-1.8m.6,2.6l-2.4,-.8m1.8,-1.8l.6,2.6m-3.4,7.6l2.8,-10.2m-13.3,2.1l1.6,-2.1m.7,2.3l-2.3,-.2m1.6,-2.1l.7,2.3m-2.3,7.9L273,829.3m-13.1,2.1l1.3,-2.1m1,2.3l-2.3,-.2m1.3,-2.1l1,2.3m-1.6,7.9l.6,-10.2m-12.9,2.3l1.1,-2.3m1.3,2.1l-2.4,.2m1.1,-2.3l1.3,2.1m-.8,8.1l-.5,-10.2m-12.9,2.3l1.1,-2.3m1.6,2.1l-2.7,.2m1.1,-2.3l1.6,2.1m0,8.1l-1.6,-10.2M225,831.9l.8,-2.6m1.8,1.8l-2.6,.8m.8,-2.6l1.8,1.8m1.1,8.4l-2.9,-10.2m-12.3,2.8l.5,-2.8m2.1,1.8l-2.6,1m.5,-2.8l2.1,1.8m1.8,8.4L214,829.3m-12.1,2.8l.3,-2.8m2.4,1.5l-2.7,1.3m.3,-2.8l2.4,1.5m2.6,8.7l-5,-10.2m104.3,13.8l1.8,-.5m-.2,1.9l-1.6,-1.4m1.8,-.5l-.2,1.9m-4.7,4.1l4.9,-6m-13.3,.8l1.5,-.8m0,1.9L295,843.4m1.5,-.8v1.9m-3.9,4.1l3.9,-6m-13.1,1.1l1.3,-1.1m.3,1.6l-1.6,-.5m1.3,-1.1l.3,1.6m-3.1,4.4l2.8,-6m-12.8,1.1l1.1,-1.1m.2,1.6l-1.3,-.5m1.1,-1.1l.2,1.6m-1.8,4.4l1.6,-6m-12.6,1.3l.8,-1.3m.5,1.3h-1.3m.8,-1.3l.5,1.3m-1.1,4.7l.6,-6m-12.6,1.3l.8,-1.3m.8,1.3h-1.6m.8,-1.3l.8,1.3m-.3,4.7l-.5,-6m-12.3,1.6l.5,-1.6m1,1.1l-1.5,.5m.5,-1.6l1,1.1m.6,4.9l-1.6,-6m-12.1,1.6l.3,-1.6m1.3,1.1l-1.6,.5m.3,-1.6l1.3,1.1m1.6,4.9l-2.9,-6M214,844.5v-1.9m1.6,.8l-1.6,1.1m0,-1.9l1.6,.8m2.3,5.2l-3.9,-6m-11.5,1.9l-.3,-1.9m1.8,.5l-1.5,1.4m-.3,-1.9l1.8,.5m3.2,5.5l-5,-6m104.6,12.9l1.5,-.3m-.7,1.3l-.8,-1m1.5,-.3l-.7,1.3m-4.2,1.9l4.9,-3.2m-13.1,.3l1.3,-.3m-.5,1.3l-.8,-1m1.3,-.3l-.5,1.3m-3.4,1.9l3.9,-3.2m-12.8,.5l1,-.5m-.2,1.1l-.8,-.6m1,-.5l-.2,1.1m-2.6,2.1l2.8,-3.2m-12.5,.5l.8,-.5m0,1.1l-.8,-.6m.8,-.5v1.1m-1.6,2.1l1.6,-3.2m-12.4,.8l.6,-.8m.2,.8h-.8m.6,-.8l.2,.8m-.8,2.4l.6,-3.2m-12.1,.8l.3,-.8m.5,.8h-.8m.3,-.8l.5,.8m0,2.4l-.5,-3.2m-11.8,1.1v-1.1m.8,.5l-.8,.6m0,-1.1l.8,.5m.8,2.7l-1.6,-3.2m-11.5,1.1l-.3,-1.1m1,.5l-.7,.6m-.3,-1.1l1,.5m1.9,2.7l-2.9,-3.2m-11.3,1.3l-.5,-1.3m1.3,.3l-.8,1m-.5,-1.3l1.3,.3m2.6,2.9L214,855.2m-11.3,1.3l-.5,-1.3m1.3,.3l-.8,1m-.5,-1.3l1.3,.3m3.7,2.9l-5,-3.2M307,867.3l1.3,.2m-1,.8l-.3,-1m1.3,.2l-1,.8m-3.9,.3l4.9,-1.1m-12.8,-.2l1,.2m-.7,.8l-.3,-1m1,.2l-.7,.8m-3.2,.3l3.9,-1.1m-12.5,0h.7m-.5,.6l-.2,-.6m.7,0l-.5,.6m-2.3,.5l2.8,-1.1m-12.3,0h.6m-.3,.6l-.3,-.6m.6,0l-.3,.6m-1.3,.5l1.6,-1.1m-12.1,.3l.3,-.3m0,.3h-.3m.3,-.3v.3m-.6,.8l.6,-1.1m-11.8,.3v-.3m.2,.3h-.2m0,-.3l.2,.3m.3,.8l-.5,-1.1m-11.6,.6l-.2,-.6m.5,0l-.3,.6m-.2,-.6h.5m1.1,1.1l-1.6,-1.1m-11.3,.6l-.5,-.6m.8,0l-.3,.6m-.5,-.6h.8m2.1,1.1l-2.9,-1.1m-11,.8l-.8,-.8m1,-.2l-.2,1m-.8,-.8l1,-.2m2.9,1.3L214,867.5m-11,.8l-.8,-.8m1.1,-.2l-.3,1m-.8,-.8l1.1,-.2m3.9,1.3l-5,-1.1m105.1,11.3l1,.5m-1,.5v-1m1,.5l-1,.5m-3.9,-.5h4.9m-12.5,-.5l.7,.5m-.7,.5v-1m.7,.5l-.7,.5m-3.2,-.5h3.9m-12.3,-.2l.5,.2m-.5,.3v-.5m.5,.2l-.5,.3m-2.3,-.3h2.8m-12,-.2l.3,.2m-.3,.3v-.5m.3,.2l-.3,.3m-1.3,-.3H273m-12.1,0h.3m0,0h-.3m-.3,0h.6m-11.3,0h-.5m-11.6,.3l-.2,-.3m.2,-.2v.5m-.2,-.3l.2,-.2m1.4,.2h-1.6m-11.3,.3l-.5,-.3m.5,-.2v.5m-.5,-.3l.5,-.2m2.4,.2h-2.9m-11,.5l-.8,-.5m.8,-.5v1m-.8,-.5l.8,-.5m3.1,.5H214" class="g3_92"/>
<path d="M205.9,827.4h99c4.5,0,8.2,3.7,8.2,8.2v99c0,4.6,-3.7,8.3,-8.2,8.3h-99c-4.6,0,-8.3,-3.7,-8.3,-8.3v-99c0,-4.5,3.7,-8.2,8.3,-8.2Z" class="g4_92"/>
<path d="M255.3,942.9V827.4m-57.8,57.7H313" class="g5_92"/>
<path d="M232.5,841.1c0,-.8,.5,-1.4,1.3,-1.4c.7,0,1.3,.6,1.3,1.4c0,.7,-.6,1.3,-1.3,1.3c-.8,0,-1.3,-.6,-1.3,-1.3Z" class="g6_92"/>
<path d="M232.5,841.1c0,-.8,.5,-1.4,1.3,-1.4c.7,0,1.3,.6,1.3,1.4c0,.7,-.6,1.3,-1.3,1.3c-.8,0,-1.3,-.6,-1.3,-1.3Z" class="g7_92"/>
<path d="M232.1,917.4c0,-.7,.6,-1.3,1.3,-1.3c.8,0,1.4,.6,1.4,1.3c0,.7,-.6,1.3,-1.4,1.3c-.7,0,-1.3,-.6,-1.3,-1.3Z" class="g6_92"/>
<path d="M232.1,917.4c0,-.7,.6,-1.3,1.3,-1.3c.8,0,1.4,.6,1.4,1.3c0,.7,-.6,1.3,-1.4,1.3c-.7,0,-1.3,-.6,-1.3,-1.3Z" class="g7_92"/>
<path d="M53.5,150.7H69.1v-9.8H53.5v9.8Z" class="g8_92"/>
<path d="M53.5,242.4H69.1v-9.8H53.5v9.8Z" class="g8_92"/>
<path d="M53.5,986.8H69.1V977H53.5v9.8Z" class="g8_92"/>
</svg>