<?xml version="1.0" encoding="UTF-8" standalone="no"?>
<!DOCTYPE svg PUBLIC "-//W3C//DTD SVG 1.1//EN"
"http://www.w3.org/Graphics/SVG/1.1/DTD/svg11.dtd">
<svg viewBox="0 0 770 1010" version="1.1" xmlns="http://www.w3.org/2000/svg" xmlns:xlink="http://www.w3.org/1999/xlink">
<defs>
<clipPath id="c0_229"><path d="M91.7,277.7V261.2h45.8v16.5Z"/></clipPath>
<clipPath id="c1_229"><path d="M239.9,277.7V261.2h45.9v16.5Z"/></clipPath>
<clipPath id="c2_229"><path d="M292.2,277.7V261.2h45.9v16.5Z"/></clipPath>
<clipPath id="c3_229"><path d="M332.6,277.7V261.2h45.8v16.5Z"/></clipPath>
<clipPath id="c4_229"><path d="M384.8,277.7V261.2h45.9v16.5Z"/></clipPath>
<clipPath id="c5_229"><path d="M310.6,486.7v-9h40.3v9Z"/></clipPath>
<clipPath id="c6_229"><path d="M350.9,486.7v-9h52.3v9Z"/></clipPath>
<clipPath id="c7_229"><path d="M403.2,486.7v-9h36.7v9Z"/></clipPath>
<style type="text/css"><![CDATA[
.g0_229{
fill: #E5E5E5;
}
.g1_229{
fill: none;
stroke: #E5E5E5;
stroke-width: 9.166;
stroke-linecap: round;
stroke-linejoin: miter;
}
.g2_229{
fill: none;
stroke: #7F7F7F;
stroke-width: 0.381;
stroke-linecap: round;
stroke-linejoin: miter;
}
.g3_229{
fill: none;
stroke: #000000;
stroke-width: 0.412;
stroke-linecap: round;
stroke-linejoin: miter;
}
]]></style>
</defs>
<path fill-rule="evenodd" d="M119.2,261.2H249.1v16.5H119.2V261.2Z" class="g0_229"/>
<path d="M253.7,261.2v16.5" class="g1_229"/>
<path clip-path="url(#c0_229)" d="M114.6,277.7V261.2" class="g1_229"/>
<path fill-rule="evenodd" d="M267.4,261.2h34v16.5h-34V261.2Z" class="g0_229"/>
<path d="M306,261.2v16.5" class="g1_229"/>
<path clip-path="url(#c1_229)" d="M262.9,277.7V261.2" class="g1_229"/>
<path fill-rule="evenodd" d="M319.7,261.2h22v16.5h-22V261.2Z" class="g0_229"/>
<path d="M346.3,261.2v16.5" class="g1_229"/>
<path clip-path="url(#c2_229)" d="M315.2,277.7V261.2" class="g1_229"/>
<path fill-rule="evenodd" d="M360.1,261.2H394v16.5H360.1V261.2Z" class="g0_229"/>
<path d="M398.6,261.2v16.5" class="g1_229"/>
<path clip-path="url(#c3_229)" d="M355.5,277.7V261.2" class="g1_229"/>
<path fill-rule="evenodd" d="M412.3,261.2h18.5v16.5H412.3V261.2Z" class="g0_229"/>
<path d="M435.4,261.2v16.5" class="g1_229"/>
<path clip-path="url(#c4_229)" d="M407.8,277.7V261.2" class="g1_229"/>
<path d="M258.3,482.2H110m200.6,0H258.3" class="g2_229"/>
<path clip-path="url(#c5_229)" d="M350.9,482.2H310.6" class="g2_229"/>
<path clip-path="url(#c6_229)" d="M403.2,482.2H350.9" class="g2_229"/>
<path clip-path="url(#c7_229)" d="M439.9,482.2H403.2" class="g2_229"/>
<path d="M110,925.8h55m0,0H660" class="g3_229"/>
</svg>