<?xml version="1.0" encoding="UTF-8" standalone="no"?>
<!DOCTYPE svg PUBLIC "-//W3C//DTD SVG 1.1//EN"
"http://www.w3.org/Graphics/SVG/1.1/DTD/svg11.dtd">
<svg viewBox="0 0 931 1096" version="1.1" xmlns="http://www.w3.org/2000/svg" xmlns:xlink="http://www.w3.org/1999/xlink">
<defs>
<clipPath id="c0_126"><path d="M573.5,517.5V480.7h113v36.8Z"/></clipPath>
<clipPath id="c1_126"><path d="M287.2,1027.9v-17.2h143v17.2Z"/></clipPath>
<style type="text/css"><![CDATA[
.g0_126{
fill: #F6FBF5;
}
.g1_126{
fill: none;
stroke: #241F1F;
stroke-width: 0.381;
stroke-miterlimit: 3;
}
.g2_126{
fill: none;
stroke: #241F1F;
stroke-width: 0.763;
stroke-miterlimit: 10;
}
.g3_126{
fill: none;
stroke: #00AEEF;
stroke-width: 1.145;
}
.g4_126{
fill: none;
stroke: #0079C2;
stroke-width: 0.763;
}
]]></style>
</defs>
<path d="M52.8,385H95.5V202.1H52.8V385Z" class="g0_126"/>
<path d="M52.8,202H395V172.6H52.8V202Z" class="g0_126"/>
<path d="M52.8,172.6H395V385H52.8Zm0,0L95.5,202m-42.7,0H395M95.5,172.6V385M52.8,228H395M138.3,172.6V385M181.1,172.6V385M223.9,172.6V385M266.6,172.6V385M52.8,254H395M52.8,280H395M309.4,172.6V385M352.2,172.6V385M52.8,305.9H395m-342.2,26H395m-342.2,26H395" class="g1_126"/>
<path d="M466.1,385.6h42.8V202.7H466.1V385.6Z" class="g0_126"/>
<path d="M466.1,202.7H821.8V173.2H466.1v29.5Z" class="g0_126"/>
<path d="M466.1,173.2h356V385.6h-356Zm0,0l42.8,29.5m-42.8,0H821.8M508.9,173.2V385.6m-43.1,-157h356M553.2,173.2V385.6M597.5,173.2V385.6M641.8,173.2V385.6M686.1,173.2V385.6M465.8,254.6h356m-356,26h356M730.4,173.2V385.6M774.8,173.2V385.6m-309,-79.1h356m-356,26h356m-355.7,26H821.8" class="g1_126"/>
<path d="M386.4,498.7h82.4" class="g2_126"/>
<path clip-path="url(#c0_126)" d="M634.7,498.7h52.2" class="g2_126"/>
<path d="M306.1,710.5c0,0,-1.5,0,-1.5,1.5v14.2c0,0,0,1.5,1.5,1.5h14.2c0,0,1.5,0,1.5,-1.5V712c0,0,0,-1.5,-1.5,-1.5H306.1Z" class="g3_126"/>
<path d="M485.3,851.3H613.8" class="g2_126"/>
<path d="M290.7,696.6c0,0,-3.1,0,-3.1,3V880c0,0,0,3.1,3.1,3.1H820.1c0,0,3,0,3,-3.1V699.6c0,0,0,-3,-3,-3H290.7Z" class="g4_126"/>
<path clip-path="url(#c1_126)" d="M298.9,1011.1H430.6" class="g2_126"/>
</svg>