<?xml version="1.0" encoding="UTF-8" standalone="no"?>
<!DOCTYPE svg PUBLIC "-//W3C//DTD SVG 1.1//EN"
"http://www.w3.org/Graphics/SVG/1.1/DTD/svg11.dtd">
<svg viewBox="0 0 931 1096" version="1.1" xmlns="http://www.w3.org/2000/svg" xmlns:xlink="http://www.w3.org/1999/xlink">
<defs>
<style type="text/css"><![CDATA[
.g0_17{
fill: none;
stroke: #241F1F;
stroke-width: 0.611;
stroke-miterlimit: 10;
}
.g1_17{
fill: none;
stroke: #241F1F;
stroke-width: 0.611;
stroke-miterlimit: 3;
}
.g2_17{
fill: none;
stroke: #241F1F;
stroke-width: 0.534;
stroke-miterlimit: 3;
}
.g3_17{
fill: none;
stroke: #00AEEF;
stroke-width: 0.916;
stroke-miterlimit: 3;
}
.g4_17{
fill: none;
stroke: #241F1F;
stroke-width: 0.381;
stroke-miterlimit: 3;
}
.g5_17{
fill: #241F1F;
}
.g6_17{
fill: none;
stroke: #241F1F;
stroke-width: 0.534;
}
.g7_17{
fill: none;
stroke: #969698;
stroke-width: 0.763;
stroke-miterlimit: 3;
}
.g8_17{
fill: #C1E8FB;
}
.g9_17{
fill: none;
stroke: #241F1F;
stroke-width: 0.916;
stroke-miterlimit: 3;
}
]]></style>
</defs>
<path d="M443.6,116.6h4.2m41.7,0h4.2m41.7,0h4.2m75.3,0h4.2" class="g0_17"/>
<path d="M459.8,624.8V360.1m0,264.5H789.3" class="g1_17"/>
<path d="M456.7,543.6h6.1M456.7,381.7h6.1m-6.1,80.9h6.1" class="g2_17"/>
<path d="M459.8,624.6c26.9,-5.5,66.4,-11.8,85.7,-21c21.5,-10.2,47.3,-58.3,55.6,-81.3c10.2,-28.2,35.5,-132.6,47.3,-132.6c16.2,0,29.6,166.4,45.1,202.1c11.2,25.7,26.3,32,52.8,32" class="g3_17"/>
<path d="M598.9,657V646.7" class="g4_17"/>
<path d="M598.9,643.4l1.7,4.4l-1.7,-1.1l-1.7,1Z" class="g5_17"/>
<path d="M622.7,597.7v17.9" class="g4_17"/>
<path d="M622.7,619l-1.6,-4.4l1.6,1l1.7,-1Z" class="g5_17"/>
<path d="M740.8,597.7v17.9" class="g4_17"/>
<path d="M740.8,619l-1.7,-4.4l1.7,1l1.7,-1Z" class="g5_17"/>
<path d="M459.8,655.9V631.8" class="g4_17"/>
<path d="M459.8,628.5l1.6,4.4l-1.6,-1.1l-1.7,1.1Z" class="g5_17"/>
<path d="M699.1,657V646.7" class="g4_17"/>
<path d="M699.1,643.4l1.6,4.4l-1.6,-1.1l-1.7,1Z" class="g5_17"/>
<path d="M598.9,621.5v6.1m23.8,-6.1v6.1m76.4,-6.1v6.1" class="g6_17"/>
<path fill-rule="evenodd" d="M789.1,624.6l-1.6,-2.5l6.5,2.5l-6.5,2.4Z" class="g5_17"/>
<path fill-rule="evenodd" d="M459.8,360.6l-2.5,1.6l2.5,-6.5l2.4,6.5Z" class="g5_17"/>
<path d="M320.8,939.6H122V764.4" class="g1_17"/>
<path d="M205.9,939.6V805.9m0,133.7V805.9m67.2,133.7V827.1" class="g7_17"/>
<path d="M205.9,806c0,0,16,-28.7,32.7,-28.7c15.5,0,28.1,32.7,28.1,32.7l6.3,17.3Z" class="g8_17"/>
<path d="M122,939.4c8.4,-2.1,21.2,-14.4,34.4,-39c17.6,-32.7,43.4,-83.8,49.1,-94.5C216,786.2,230.9,777,238.9,777c7.5,0,18,4,34.2,50.3c16.2,46.2,24.6,112.3,24.6,112.3" class="g3_17"/>
<path d="M207.6,806.1c0,.9,-.8,1.7,-1.7,1.7c-1,0,-1.8,-.8,-1.8,-1.7c0,-1,.8,-1.8,1.8,-1.8c.9,0,1.7,.8,1.7,1.8Z" class="g5_17"/>
<path d="M274.9,827.5c0,1,-.8,1.7,-1.7,1.7c-1,0,-1.7,-.7,-1.7,-1.7c0,-.9,.7,-1.7,1.7,-1.7c.9,0,1.7,.8,1.7,1.7Z" class="g5_17"/>
<path d="M205.8,806.1L273,827.3" class="g9_17"/>
<path fill-rule="evenodd" d="M320.6,939.6L319,937.2l6.5,2.4l-6.5,2.5Z" class="g5_17"/>
<path fill-rule="evenodd" d="M122,764.6l-2.4,1.6l2.4,-6.5l2.5,6.5Z" class="g5_17"/>
</svg>