<?xml version="1.0" encoding="UTF-8" standalone="no"?>
<!DOCTYPE svg PUBLIC "-//W3C//DTD SVG 1.1//EN"
"http://www.w3.org/Graphics/SVG/1.1/DTD/svg11.dtd">
<svg viewBox="0 0 811 1017" version="1.1" xmlns="http://www.w3.org/2000/svg" xmlns:xlink="http://www.w3.org/1999/xlink">
<defs>
<clipPath id="c0_289"><path d="M335.9,718.6c-1.2,0,-2.2,-3.2,-2.2,-7.2c0,-4,1,-7.2,2.2,-7.2h68.5v14.4Z"/></clipPath>
<style type="text/css"><![CDATA[
.g0_289{
fill: #F4F3B0;
}
.g1_289{
fill: none;
stroke: #222326;
stroke-width: 0.763;
}
.g2_289{
fill: #92C4E9;
}
.g3_289{
fill: none;
stroke: #222326;
stroke-width: 0.763;
stroke-dasharray: 4,4;
}
.g4_289{
fill: #E4F2E8;
}
.g5_289{
fill: none;
stroke: #78797A;
stroke-width: 0.763;
}
.g6_289{
fill: #78797A;
}
.g7_289{
fill: #211E1E;
}
.g8_289{
fill: #FED9A1;
}
.g9_289{
fill: #FFF;
}
]]></style>
</defs>
<path d="M143.7,775.6h72.1V633.9H143.7Z" class="g0_289"/>
<path d="M215.8,775.6H143.7V633.9h72.1Z" class="g1_289"/>
<path d="M306.8,775.6H491.3V633.9H306.8Z" class="g2_289"/>
<path d="M491.3,775.6H306.8V633.9H491.3V775.6Z" class="g3_289"/>
<path d="M198.7,732h87.4V677.6H198.7Z" class="g4_289"/>
<path d="M286.1,732H198.7V677.6h87.4Z" class="g1_289"/>
<path d="M322.2,732h89.2V677.6H322.2Z" class="g4_289"/>
<path d="M411.4,732H322.2V677.6h89.2Z" class="g1_289"/>
<path d="M191.6,704.8h33.8" class="g5_289"/>
<path d="M227.2,704c-1.3,-.4,-2.1,-.7,-3.1,-1.1v3.8c.4,-.2,1.8,-.7,3.1,-1.1c1.4,-.4,2.6,-.7,3.4,-.8c-.8,-.1,-2,-.4,-3.4,-.8Z" class="g6_289"/>
<path d="M286.1,704.8h29.7" class="g1_289"/>
<path d="M317.6,704c-1.2,-.4,-2,-.7,-3.1,-1.1v3.8c.4,-.2,1.9,-.7,3.1,-1.1c1.4,-.4,2.6,-.7,3.4,-.8c-.8,-.1,-2,-.4,-3.4,-.8Z" class="g7_289"/>
<path d="M411.4,704.8h29.1" class="g1_289"/>
<path d="M442.3,704c-1.2,-.4,-2,-.7,-3.1,-1.1v3.8c.4,-.2,1.9,-.7,3.1,-1.1c1.4,-.4,2.6,-.7,3.4,-.8c-.8,-.1,-2,-.4,-3.4,-.8Z" class="g7_289"/>
<path d="M338.2,693.5h57.2" class="g5_289"/>
<path d="M397.2,692.7c-1.3,-.4,-2.1,-.7,-3.1,-1.1v3.8c.3,-.2,1.8,-.8,3.1,-1.1c1.3,-.4,2.6,-.7,3.4,-.8c-.8,-.1,-2.1,-.4,-3.4,-.8Z" class="g6_289"/>
<path d="M252.5,728.5h20.4V681.2H252.5Z" class="g8_289"/>
<path d="M272.9,728.5H252.5V681.2h20.4Z" class="g1_289"/>
<path d="M249.1,727.2l-15.2,-7.7V688.4l15.2,-7.2v46Z" class="g8_289"/>
<path d="M249.1,727.2l-15.2,-7.7V688.4l15.2,-7.2v46Z" class="g1_289"/>
<image clip-path="url(#c0_289)" preserveAspectRatio="none" x="334" y="704" width="70" height="15" xlink:href="img/1.jpg"/>
<path d="M335.9,704.2c-1.2,0,-2.2,3.2,-2.2,7.2c0,4,1,7.2,2.2,7.2h68.5V704.2H335.9Z" class="g1_289"/>
<path d="M406.6,709.9c0,3.2,-1,5.7,-2.2,5.7c-1.2,0,-2.2,-2.5,-2.2,-5.7c0,-3.1,1,-5.7,2.2,-5.7c1.2,0,2.2,2.6,2.2,5.7Z" class="g9_289"/>
<path d="M406.6,709.9c0,3.2,-1,5.7,-2.2,5.7c-1.2,0,-2.2,-2.5,-2.2,-5.7c0,-3.1,1,-5.7,2.2,-5.7c1.2,0,2.2,2.6,2.2,5.7Z" class="g1_289"/>
</svg>