<?xml version="1.0" encoding="UTF-8" standalone="no"?>
<!DOCTYPE svg PUBLIC "-//W3C//DTD SVG 1.1//EN"
"http://www.w3.org/Graphics/SVG/1.1/DTD/svg11.dtd">
<svg viewBox="0 0 907 1045" version="1.1" xmlns="http://www.w3.org/2000/svg" xmlns:xlink="http://www.w3.org/1999/xlink">
<defs>
<clipPath id="c0_586"><path d="M604.1,629.5V367.3H781.8V629.5Z"/></clipPath>
<clipPath id="c1_586"><path d="M-2.6,1047.7V-2.6H910.2V1047.7Z"/></clipPath>
<style type="text/css"><![CDATA[
.g0_586{
fill: #393939;
}
.g1_586{
fill: none;
stroke: #404040;
stroke-width: 2.898;
stroke-linecap: butt;
stroke-linejoin: miter;
stroke-miterlimit: 4;
}
.g2_586{
fill: #FFFFFF;
}
.g3_586{
fill: none;
stroke: #636363;
stroke-width: 1.527;
stroke-linecap: butt;
stroke-linejoin: miter;
stroke-miterlimit: 4;
}
.g4_586{
}
.g5_586{
fill: none;
stroke: #000000;
stroke-width: 1.459;
stroke-linecap: butt;
stroke-linejoin: miter;
stroke-miterlimit: 4;
}
.g6_586{
fill: none;
stroke: #FFFFFF;
stroke-width: 1.909;
stroke-linecap: butt;
stroke-linejoin: miter;
}
.g7_586{
fill: none;
stroke: #000000;
stroke-width: 0.381;
stroke-linecap: butt;
stroke-linejoin: miter;
}
]]></style>
</defs>
<path d="M198.5,213.1v80.4H623.9V213.1H198.5Z" class="g0_586"/>
<path d="M198.5,213.1v80.4H623.9V213.1H198.5Z" class="g1_586"/>
<path d="M201.2,235v48.6H618.1V235H201.2Z" class="g0_586"/>
<path d="M200.4,213.8v10.9H623.1V213.8H200.4Z" class="g2_586"/>
<path d="M678.5,244.9c4.4,.8,6,-7.5,5.8,-10.4c-.1,-2.5,-1.6,-5.2,-3.4,-6.9c-2.1,-2.1,-5.7,-2.4,-8.5,-3.1c-2.7,-.7,-5.3,-.6,-8,-.6c-2.1,0,-4.7,0,-6.8,.5c-1.4,.3,-2.6,.9,-4.1,1.1c-1.4,.1,-2.9,-.1,-4.3,0c1.4,-1.3,2.4,-3,3.5,-4.6c.8,-1.1,1.9,-2,2.7,-3.2c-1.3,1.5,-2.2,2.7,-3.7,4.1c-.8,.7,-4.1,3.2,-4.3,4.4c-.4,3,5.9,3,7.7,3.8" class="g3_586"/>
<image clip-path="url(#c0_586)" preserveAspectRatio="none" x="604" y="367" width="178" height="263" xlink:href="img/1.jpg"/>
<path d="M122.9,846.1c4.7,0,8.5,-3.8,8.5,-8.5c0,-4.7,-3.8,-8.5,-8.5,-8.5c-4.7,0,-8.5,3.8,-8.5,8.5c0,4.7,3.8,8.5,8.5,8.5Z" class="g4_586"/>
<path d="M122.9,846.1c4.7,0,8.5,-3.8,8.5,-8.5c0,-4.7,-3.8,-8.5,-8.5,-8.5c-4.7,0,-8.5,3.8,-8.5,8.5c0,4.7,3.8,8.5,8.5,8.5Z" class="g5_586"/>
<path d="M122.9,795.7c4.7,0,8.5,-3.8,8.5,-8.5c0,-4.7,-3.8,-8.5,-8.5,-8.5c-4.7,0,-8.5,3.8,-8.5,8.5c0,4.7,3.8,8.5,8.5,8.5Z" class="g4_586"/>
<path d="M122.9,795.7c4.7,0,8.5,-3.8,8.5,-8.5c0,-4.7,-3.8,-8.5,-8.5,-8.5c-4.7,0,-8.5,3.8,-8.5,8.5c0,4.7,3.8,8.5,8.5,8.5Z" class="g5_586"/>
<path d="M122.9,729.1c4.7,0,8.5,-3.8,8.5,-8.5c0,-4.7,-3.8,-8.5,-8.5,-8.5c-4.7,0,-8.5,3.8,-8.5,8.5c0,4.7,3.8,8.5,8.5,8.5Z" class="g4_586"/>
<path d="M122.9,729.1c4.7,0,8.5,-3.8,8.5,-8.5c0,-4.7,-3.8,-8.5,-8.5,-8.5c-4.7,0,-8.5,3.8,-8.5,8.5c0,4.7,3.8,8.5,8.5,8.5Z" class="g5_586"/>
<path d="M122.9,678.8c4.7,0,8.5,-3.8,8.5,-8.5c0,-4.7,-3.8,-8.5,-8.5,-8.5c-4.7,0,-8.5,3.8,-8.5,8.5c0,4.7,3.8,8.5,8.5,8.5Z" class="g4_586"/>
<path d="M122.9,678.8c4.7,0,8.5,-3.8,8.5,-8.5c0,-4.7,-3.8,-8.5,-8.5,-8.5c-4.7,0,-8.5,3.8,-8.5,8.5c0,4.7,3.8,8.5,8.5,8.5Z" class="g5_586"/>
<path d="M122.9,597.4c4.7,0,8.5,-3.8,8.5,-8.5c0,-4.7,-3.8,-8.6,-8.5,-8.6c-4.7,0,-8.5,3.9,-8.5,8.6c0,4.7,3.8,8.5,8.5,8.5Z" class="g4_586"/>
<path d="M122.9,597.4c4.7,0,8.5,-3.8,8.5,-8.5c0,-4.7,-3.8,-8.6,-8.5,-8.6c-4.7,0,-8.5,3.9,-8.5,8.6c0,4.7,3.8,8.5,8.5,8.5Z" class="g5_586"/>
<path d="M516.5,345.8c1.8,-1.5,4.5,-1.5,6.6,-1.8c3.7,-.5,7.4,-.8,11.1,-.5c6,.5,12.2,2.8,17,6.5c1.9,1.4,3.4,3.1,5.1,4.6c2.4,2.1,4.9,4.2,6.6,6.9c1.1,1.8,1.8,3.7,3.1,5.4c.4,.6,.8,.9,.9,1.7c-.6,-.7,-1.7,-1.1,-2.6,-1.4c-1.9,-.8,-4,-1.6,-6,-2.2c.9,.6,2.2,1,3.2,1.4c1,.5,2,.9,3.1,1.1c.7,.2,2.1,.3,2.6,.8c-.2,-1,.4,-1.7,.9,-2.5c.8,-1.3,1.6,-2.6,2.2,-3.9c.3,-.5,2.7,-4.5,2.6,-5.7M715,675.6c.6,-.5,1.5,-.8,2.1,-1.3c1.2,-.9,1.9,-2.4,2.7,-3.6c2.4,-3.4,2.1,-7.1,2.1,-11c0,-2.6,.5,-5,.3,-7.5c-.1,-2.4,0,-4.8,0,-7.1c0,-2.9,.7,-5.6,.6,-8.4c-.1,-2.1,-.4,-4.2,-.6,-6.3c-.3,-2.5,-1.3,-5.7,-.6,-8.2c.8,.6,0,2.7,-.5,3.4c-.9,1.6,-2.6,3.7,-4.3,4.5c1.1,-.7,1.8,-1.5,2.6,-2.6c1.2,-1.7,1.5,-3.5,2.4,-5.3c.8,1.6,.5,2.9,2.3,3.9c1,.6,2.4,.9,3.6,1c.6,0,1.6,-.3,2,.2" class="g3_586"/>
<g clip-path="url(#c1_586)">
<path d="M-4.5,13.7H-27.4m939.5,0H935M-4.5,1031.2H-27.4m939.5,0H935M13.7,-4.5V-27.4m0,1077v22.9m880,-1077V-27.4m0,1077v22.9" class="g6_586"/>
<path d="M-4.5,13.7H-27.4m939.5,0H935M-4.5,1031.2H-27.4m939.5,0H935M13.7,-4.5V-27.4m0,1077v22.9m880,-1077V-27.4m0,1077v22.9" class="g7_586"/>
</g>
</svg>