<?xml version="1.0" encoding="UTF-8" standalone="no"?>
<!DOCTYPE svg PUBLIC "-//W3C//DTD SVG 1.1//EN"
"http://www.w3.org/Graphics/SVG/1.1/DTD/svg11.dtd">
<svg viewBox="0 0 935 1210" version="1.1" xmlns="http://www.w3.org/2000/svg" xmlns:xlink="http://www.w3.org/1999/xlink">
<defs>
<style type="text/css"><![CDATA[
.g0_607{
fill: #D9D9D9;
}
.g1_607{
}
]]></style>
</defs>
<path d="M93.4,370.7H519.2v39.6H93.4V370.7Z" class="g0_607"/>
<path d="M519.2,370.7H855.9v39.6H519.2V370.7Z" class="g0_607"/>
<path d="M519.2,568.7H857v1.1H519.2v-1.1Z" class="g1_607"/>
<path d="M519.2,608.3H857v1.1H519.2v-1.1Z" class="g1_607"/>
<path d="M519.2,568.7h1.1v40.7h-1.1V568.7Z" class="g1_607"/>
<path d="M855.9,568.7H857v40.7h-1.1V568.7Z" class="g1_607"/>
<path d="M93.4,568.7H520.3v1.1H93.4v-1.1Z" class="g1_607"/>
<path d="M93.4,608.3H520.3v1.1H93.4v-1.1Z" class="g1_607"/>
<path d="M93.4,568.7h1.1v40.7H93.4V568.7Z" class="g1_607"/>
<path d="M519.2,568.7h1.1v40.7h-1.1V568.7Z" class="g1_607"/>
<path d="M519.2,529.1H857v1.1H519.2v-1.1Z" class="g1_607"/>
<path d="M519.2,568.7H857v1.1H519.2v-1.1Z" class="g1_607"/>
<path d="M519.2,529.1h1.1v40.7h-1.1V529.1Z" class="g1_607"/>
<path d="M855.9,529.1H857v40.7h-1.1V529.1Z" class="g1_607"/>
<path d="M93.4,529.1H520.3v1.1H93.4v-1.1Z" class="g1_607"/>
<path d="M93.4,568.7H520.3v1.1H93.4v-1.1Z" class="g1_607"/>
<path d="M93.4,529.1h1.1v40.7H93.4V529.1Z" class="g1_607"/>
<path d="M519.2,529.1h1.1v40.7h-1.1V529.1Z" class="g1_607"/>
<path d="M519.2,489.5H857v1.1H519.2v-1.1Z" class="g1_607"/>
<path d="M519.2,529.1H857v1.1H519.2v-1.1Z" class="g1_607"/>
<path d="M519.2,489.5h1.1v40.7h-1.1V489.5Z" class="g1_607"/>
<path d="M855.9,489.5H857v40.7h-1.1V489.5Z" class="g1_607"/>
<path d="M93.4,489.5H520.3v1.1H93.4v-1.1Z" class="g1_607"/>
<path d="M93.4,529.1H520.3v1.1H93.4v-1.1Z" class="g1_607"/>
<path d="M93.4,489.5h1.1v40.7H93.4V489.5Z" class="g1_607"/>
<path d="M519.2,489.5h1.1v40.7h-1.1V489.5Z" class="g1_607"/>
<path d="M519.2,449.9H857V451H519.2v-1.1Z" class="g1_607"/>
<path d="M519.2,489.5H857v1.1H519.2v-1.1Z" class="g1_607"/>
<path d="M519.2,449.9h1.1v40.7h-1.1V449.9Z" class="g1_607"/>
<path d="M855.9,449.9H857v40.7h-1.1V449.9Z" class="g1_607"/>
<path d="M93.4,449.9H520.3V451H93.4v-1.1Z" class="g1_607"/>
<path d="M93.4,489.5H520.3v1.1H93.4v-1.1Z" class="g1_607"/>
<path d="M93.4,449.9h1.1v40.7H93.4V449.9Z" class="g1_607"/>
<path d="M519.2,449.9h1.1v40.7h-1.1V449.9Z" class="g1_607"/>
<path d="M519.2,410.3H857v1.1H519.2v-1.1Z" class="g1_607"/>
<path d="M519.2,449.9H857V451H519.2v-1.1Z" class="g1_607"/>
<path d="M519.2,410.3h1.1V451h-1.1V410.3Z" class="g1_607"/>
<path d="M855.9,410.3H857V451h-1.1V410.3Z" class="g1_607"/>
<path d="M93.4,410.3H520.3v1.1H93.4v-1.1Z" class="g1_607"/>
<path d="M93.4,449.9H520.3V451H93.4v-1.1Z" class="g1_607"/>
<path d="M93.4,410.3h1.1V451H93.4V410.3Z" class="g1_607"/>
<path d="M519.2,410.3h1.1V451h-1.1V410.3Z" class="g1_607"/>
<path d="M519.2,370.7H857v1.1H519.2v-1.1Z" class="g1_607"/>
<path d="M519.2,410.3H857v1.1H519.2v-1.1Z" class="g1_607"/>
<path d="M519.2,370.7h1.1v40.7h-1.1V370.7Z" class="g1_607"/>
<path d="M855.9,370.7H857v40.7h-1.1V370.7Z" class="g1_607"/>
<path d="M93.4,370.7H520.3v1.1H93.4v-1.1Z" class="g1_607"/>
<path d="M93.4,410.3H520.3v1.1H93.4v-1.1Z" class="g1_607"/>
<path d="M93.4,370.7h1.1v40.7H93.4V370.7Z" class="g1_607"/>
<path d="M519.2,370.7h1.1v40.7h-1.1V370.7Z" class="g1_607"/>
</svg>