<?xml version="1.0" encoding="UTF-8" standalone="no"?>
<!DOCTYPE svg PUBLIC "-//W3C//DTD SVG 1.1//EN"
"http://www.w3.org/Graphics/SVG/1.1/DTD/svg11.dtd">
<svg viewBox="0 0 811 1017" version="1.1" xmlns="http://www.w3.org/2000/svg" xmlns:xlink="http://www.w3.org/1999/xlink">
<defs>
<clipPath id="c0"><path d="M619.5,1017.5V0H811.3V1017.5Z"/></clipPath>
<clipPath id="c1"><path d="M40,969.4V920.5h64.4v48.9Z"/></clipPath>
<clipPath id="c2"><path d="M534,962.3V873.6H742.7v88.7Z"/></clipPath>
<clipPath id="c3"><path d="M537.1,959.7V898.8H738v60.9Z"/></clipPath>
<style type="text/css"><![CDATA[
.g0{
fill: #FFF;
}
.g1{
fill: none;
stroke: #FAF0E0;
stroke-width: 9.776;
stroke-linecap: round;
stroke-miterlimit: 3;
}
.g2{
fill: #ED8E21;
}
]]></style>
</defs>
<g clip-path="url(#c0)">
<image clip-path="url(#c0)" preserveAspectRatio="none" x="618" y="-1" width="195" height="1020" xlink:href="img/1.jpg"/>
</g>
<path d="M534,965.6H742.7V868.5H534v97.1Z" class="g0"/>
<path clip-path="url(#c2)" d="M534,962.3H742.7V873.6H534v88.7Z" class="g0"/>
<image clip-path="url(#c3)" preserveAspectRatio="none" x="537" y="899" width="201" height="61" xlink:href="img/2.jpg"/>
<g clip-path="url(#c1)">
<image clip-path="url(#c1)" preserveAspectRatio="none" x="40" y="921" width="66" height="50" xlink:href="img/3.png"/>
</g>
<image x="491" y="43" width="252" height="657" xlink:href="shade/1.png"/>
<path d="M544.7,691.1c.2,-3.6,3.8,-7.7,6.4,-10c4.8,-4.3,10.6,-7.2,17.5,-9.2c5.4,-1.5,12,-3.1,17.5,-2.9c2.4,.1,13,.5,14.9,1.8c2.1,1.5,-3.8,3.6,-5,4.5c-4.6,3.1,-10.3,5.5,-14.9,8.8c-8.7,6.1,-20.3,13.4,-25.4,22.3c-2.4,4.3,-4.9,8.8,-6.7,13.3c-.8,2,-.5,7.5,.3,9.4c1.5,2.8,7.8,.2,9.7,-1.5c10,-8.4,14.6,-11.7,26.9,-17c5.1,-2.3,13,-5.5,26.5,-5c4.1,.2,8.9,1,12.7,2.6c8.4,3.1,-4.6,9.3,-7.6,10.8c-4.5,2.2,-24.1,14,-28.8,17.6c-7.1,5.2,-25.2,17.6,-20.4,23.4c3.7,4.7,26.5,-6.8,29.2,-7.8c7.9,-2.9,15.9,-4,25,-3.7c7.5,.2,14,.3,21.1,2.4c2,.6,18.2,3.6,13.8,6.2c-2.7,1.8,-21.1,6.8,-25.5,8.2c-11.3,3.4,-16.5,5.9,-22.7,11.1c-11,9,-16.4,16.6,-17.8,30.4" class="g1"/>
<path d="M553.8,721.3c-.5,-.7,-.8,-.8,-1.5,-.3l-.5,.4c-.3,.2,-.5,.4,-.8,.6c-.8,.7,-1.4,1.1,-1.7,1.3l-5.2,4.5l-.7,.6c-.9,.8,-1.2,1.2,-1,1.4c.1,.1,.2,.1,.7,-.2l1.7,-1.3l.2,-.1l10.4,13.4l-.2,.2l-.4,.4l-.6,.4c-.4,.3,-.5,.7,-.4,.9c.2,.1,.4,.1,.7,-.2l.3,-.3c.4,-.2,.5,-.3,.5,-.3l3.3,-2.7c0,-.2,.1,-.3,.3,-.4c1.3,-1,1.5,-1.3,1.4,-1.4c-.2,-.2,-.4,-.2,-1,.2l-.1,.1c-.3,.2,-.5,.4,-1,.6l-4.8,-6.6l.3,-.2l.6,-.5l.1,-.1c.9,-.7,1.1,-.5,2.3,.8l.8,1c.3,.2,.5,.3,.7,.2c.3,-.1,.2,-.3,-.2,-.9l-.3,-.2l-.2,-.5l-3.4,-5.2l-.3,-.5h-.1c-.2,-.3,-.4,-.4,-.5,-.3c-.1,.1,-.2,.3,-.2,.5c.1,.3,.2,.6,.5,.9c.1,.3,.2,.7,.5,1.1c.2,.6,.3,1,.3,1.3c.1,.5,-.2,.9,-.8,1.5l-.3,.2l-.2,.2l-4.8,-6.4c.5,-.5,.6,-.6,1.4,-1.2c.6,-.4,.9,-.7,1.1,-.7c.2,-.2,.4,-.3,.7,-.3c.7,-.1,1.2,0,1.8,.4c1.1,.5,1.2,.7,2.8,2.7c.4,.4,.8,.6,1,.3c.3,-.1,.3,-.2,-.2,-1l-.3,-.6l-2.4,-3.3l-.3,-.4Z" class="g2"/>
<path d="M567,724c-.6,-1.1,-1.8,-1.5,-2.9,-.9c-.8,.5,-1.2,1.5,-1.3,2.5v.2c0,0,-.2,0,-.2,-.2l-.1,-.2l-.2,-.5l-.1,-.5v-.1c-.1,-.2,-.3,-.2,-.5,-.1c-.2,.1,-.4,.2,-.7,.5l-1.3,.8l-1.8,1.2c-.8,.6,-1,.8,-.9,1c.1,.3,.5,.3,1.1,-.2l.1,-.1l.3,-.1c.5,-.3,.8,-.2,1.2,.4l1,1.7l.8,1.6l1,1.5l1,1.7l.1,.1c.5,.8,.5,1,-.3,1.7c-.3,.2,-.4,.5,-.3,.6c0,.2,.2,.3,.3,.2c.1,-.2,.2,-.3,.4,-.4c0,0,.3,-.1,.5,-.3l.9,-.6l2.6,-1.7l.4,-.3q.3,-.3,.4,-.4c.2,-.1,.2,-.2,.2,-.2c-.1,-.2,-.3,-.2,-.7,0l-.2,.1l-.1,.1c-.5,.3,-.8,.3,-1.1,-.2l-.2,-.5l-1.7,-2.7l-.2,-.3c-.2,-.4,-.3,-.7,-.4,-.8c-.4,-.8,-.5,-1.9,-.4,-2.8c.2,-.9,.4,-1.6,.7,-1.8q.1,0,.3,0c-.4,.6,-.3,1.5,0,2.3c.6,.9,1.2,1.1,1.9,.7c.9,-.5,1.1,-1.9,.4,-3Z" class="g2"/>
<path d="M578.7,720.7c-.9,-2.4,-3.3,-3.4,-6.2,-2.3c-1.7,.6,-2.6,1.5,-3,3.1c-.6,1.7,-.5,3.6,.2,5.5c.6,1.6,1.5,2.6,3.1,2.9c1,.4,2.2,.3,3.3,-.1c1.3,-.5,2.6,-1.7,3.3,-3.1c.4,-.7,.5,-1.4,.5,-1.6c-.1,-.1,-.2,-.2,-.3,-.1c-.1,0,-.2,.1,-.2,.4c-.1,.2,-.4,.6,-.5,.9c-.2,.3,-.3,.4,-.4,.6c-.3,.4,-.9,.8,-1.6,1.1c-1.6,.6,-3.3,-.2,-3.8,-1.6c-.2,-.4,-.2,-.9,-.1,-1.1c.1,-.2,.5,-.4,1.2,-.7l1.3,-.7c1,-.6,1.7,-.9,1.8,-.9c1.6,-.8,1.7,-.9,1.6,-1.5c-.1,-.4,-.1,-.6,-.2,-.8Zm-3.1,.7c.2,.6,.4,1,.1,1.3c-.2,.2,-.3,.4,-1,.8c-.5,.3,-.8,.5,-.8,.5c-.6,.2,-.8,.3,-.8,.3c-.1,.1,-.2,.3,-.3,.3c-.1,0,-.3,0,-.4,-.2v-.2c-.3,-.9,-.4,-2.4,-.2,-3.5c.2,-.9,.6,-1.4,1.2,-1.7c.8,-.3,1.6,.6,2.2,2.4Z" class="g2"/>
<path d="M590.7,718.5c-.4,-2.5,-2.6,-3.8,-5.6,-3.4c-1.9,.3,-3,1.1,-3.6,2.5c-.9,1.7,-1.1,3.5,-.8,5.4c.3,1.9,1.1,2.9,2.5,3.5c.9,.6,2.1,.7,3.2,.5c1.5,-.3,3,-1.2,3.9,-2.3c.5,-.8,.8,-1.4,.7,-1.7c0,-.1,-.1,-.2,-.2,-.1c-.1,0,-.2,.1,-.3,.3c-.1,.3,-.4,.6,-.7,.9c-.1,.2,-.3,.3,-.4,.5c-.5,.3,-1,.6,-1.8,.7c-1.7,.3,-3.2,-.6,-3.5,-2.2c0,-.4,0,-.9,.1,-1.1c.2,-.1,.7,-.3,1.3,-.5L587,721c1.2,-.3,1.7,-.5,1.8,-.5c1.8,-.5,2,-.5,1.9,-1.2c0,-.4,0,-.6,0,-.8Zm-3.1,.1c.1,.7,0,1,-.2,1.3c-.2,.3,-.4,.4,-1.1,.6c-.7,.2,-1,.3,-1,.3c-.5,.2,-.8,.3,-.8,.3c-.1,0,-.3,.2,-.3,.2q-.2,0,-.3,-.3v-.2c-.1,-.9,0,-2.4,.4,-3.4c.3,-.9,.9,-1.3,1.4,-1.4c.9,-.2,1.6,.7,1.9,2.6Z" class="g2"/>
<path d="M608.6,717.5c.1,-2.7,-1.7,-4.4,-4.8,-4.6c-1.9,-.1,-3.1,.5,-4.1,1.8c-1.1,1.4,-1.7,3.2,-1.7,5.1c-.1,1.8,.4,3,1.6,4c.9,.6,2.1,1,3.2,1c1.4,.1,3.1,-.5,4.3,-1.5c.5,-.6,1,-1.1,1,-1.3c0,-.1,-.1,-.3,-.2,-.4c-.1,0,-.3,.1,-.5,.5c-.1,.1,-.3,.3,-.6,.6c-.4,.1,-.5,.4,-.6,.4c-.5,.3,-1.2,.4,-2,.4c-1.7,-.1,-2.9,-1.3,-2.9,-3c.1,-.3,.2,-.7,.3,-1c.2,-.1,.7,-.2,1.4,-.3l1.6,-.1c1.1,-.1,1.7,-.1,1.8,-.1c1.9,0,2,-.1,2.1,-.9c.1,-.2,.1,-.4,.1,-.6Zm-3,-.6c0,.7,-.2,1,-.5,1.2c-.2,.2,-.4,.2,-1.1,.3c-.6,.2,-1.1,.3,-1.1,.3c-.5,0,-.8,0,-.8,0c-.2,.1,-.3,.1,-.4,.1c-.1,0,-.2,-.1,-.2,-.2v-.3c0,-.8,.5,-2.4,1.2,-3.3c.4,-.7,1,-1.2,1.6,-1.1c.9,0,1.4,1.1,1.3,3Z" class="g2"/>
<path d="M637.4,724.8c.5,-1.5,.4,-3.1,-.4,-4.2c-.5,-1.1,-1.7,-2.1,-3.1,-2.8c-.5,-.2,-.8,-.3,-.9,-.4c-2.9,-.9,-6.2,1.2,-7.4,4.7c-.9,2.9,.6,5.7,3.5,6.7c2.2,.7,3.5,.8,5,0c1.5,-.8,2.7,-2.3,3.3,-4Zm-3.3,-1.1c-1,3.1,-2.9,5,-4.4,4.4c-1.3,-.4,-1.7,-1.7,-.8,-4.1c1.1,-3.4,3.2,-5.9,4.6,-5.4c1.1,.3,1.3,2.6,.6,5.1Z" class="g2"/>
<path d="M649.2,731.6c.8,-1.3,1.1,-3,.7,-4.3c-.3,-1.1,-1.2,-2.3,-2.5,-3.3c-.4,-.3,-.7,-.5,-.8,-.6c-2.5,-1.6,-6.3,-.4,-8.2,2.8c-1.6,2.7,-.8,5.7,1.8,7.4c2.1,1.2,3.3,1.5,4.9,1.1c1.6,-.4,3.3,-1.5,4.1,-3.1Zm-3,-1.7c-1.7,2.7,-3.9,4,-5.3,3.1c-1.2,-.7,-1.1,-2,.2,-4.1c1.9,-3.1,4.5,-5,5.8,-4.2c1,.5,.7,2.8,-.7,5.2Z" class="g2"/>
<path d="M660.1,744.6c.1,-.2,-.1,-.5,-.7,-.8c-.7,-.5,-.7,-.7,-.8,-1.5c-.3,-1.5,-.4,-3.7,-.4,-5.2c.1,-1.2,.2,-2.1,.5,-2.4c.2,-.3,.3,-.3,1.2,-.5l1.6,-.5c.7,-.2,1.6,.1,2.7,.8c.3,.2,.6,.2,.7,.1c.1,-.2,-.1,-.4,-.7,-.9c-.3,-.1,-.6,-.3,-.9,-.5l-1,-.6l-1.2,-.6l-1.1,-.6c-.2,-.1,-.6,-.2,-.7,0c-.1,.1,.1,.3,.6,.7l.3,.1c.1,.1,.3,.2,.4,.3c.4,.2,.5,.3,.4,.4c0,.2,-.1,.2,-.2,.3l-.5,.1l-.6,.1l-3.3,.8l-1.4,.4l-.4,.1c-.2,0,-.3,0,-.4,0c-.2,-.1,-.2,-.2,0,-.4v-.1l.3,-.4l.5,-.7l3.8,-5.3c.1,-.1,.3,-.5,.5,-.9c.7,-1,.8,-1.3,.9,-1.7c.1,-.3,.1,-.5,-.3,-.7c-.5,-.4,-1,-.6,-1.6,-.9l-1.7,-.9c-.9,-.4,-1.3,-.4,-1.6,-.3c0,.2,.1,.4,.5,.6c.1,0,.3,.2,.5,.4c.2,0,.4,.1,.5,.2c.4,.2,.4,.4,.2,.9l-.2,.4l-4.1,6.4l-.9,1.3l-1.6,2.4l-.6,.9l-.1,.2c-.7,1,-1.1,1,-2.1,.6c-.6,-.3,-1,-.5,-1.1,-.1c-.1,.1,0,.2,.2,.3l.1,.1c.3,.1,.5,.2,.7,.3l4.5,2.6c.2,.1,.3,.2,.6,.2c.5,.3,.7,.4,1,.2c0,-.1,-.2,-.3,-.5,-.5l-.6,-.5c-.7,-.4,-.8,-.5,-.5,-1l.1,-.1c0,-.1,.1,-.2,.2,-.4c.3,-.2,.4,-.6,.6,-.9c.5,-1,.8,-1.1,1.2,-1.2c.7,-.2,.9,-.3,1,-.2c.2,.1,.2,.4,.2,.9c0,.1,0,.7,.1,1.8v1.2c0,.3,.1,.8,.4,1.5c0,.1,0,.2,0,.2c-.2,.1,-.5,0,-.8,-.1c-.5,-.4,-.8,-.5,-1,-.2c-.1,.2,0,.3,.5,.7l.3,.1l4.5,2.6l.6,.3c.5,.2,.6,.3,.7,.1Z" class="g2"/>
<path d="M617.1,709.3c.1,-.8,.3,-1.2,.5,-1.3c.2,-.2,.6,-.2,1.2,-.1c1,.1,1.7,.4,2,1c.3,.5,.4,1.5,.2,3c-.2,1.4,-.6,2.4,-1.1,2.8c-.5,.4,-1.3,.6,-2.5,.4l-1.1,-.2l.8,-5.6Zm.2,6.6c1.3,.2,2.1,.6,2.5,1.2c.3,.6,.3,1.9,.1,4c-.3,1.6,-.6,2.7,-1.1,3.2c-.5,.5,-1.3,.7,-2.4,.5c-.6,-.1,-1,-.2,-1.1,-.5c-.2,-.2,-.2,-.7,-.1,-1.3l1,-7.2l1.1,.1Zm-1.3,9.6c2.5,.4,4.4,.2,5.8,-.5c1.4,-.7,2.2,-1.9,2.5,-3.7c.2,-1.3,-.2,-2.5,-1,-3.4c-.8,-1,-2.1,-1.7,-3.8,-2.1c1.7,0,3,-.3,4,-.9c1,-.6,1.6,-1.4,1.7,-2.5c.2,-1.4,-.2,-2.6,-1.2,-3.5c-1,-.8,-2.6,-1.4,-4.7,-1.7l-7.7,-1.1l-.1,.7l.4,.1c.3,0,.5,.1,.6,.2c.2,.1,.3,.2,.4,.3c.1,.3,.2,.7,.1,1.3l-1.9,13.8c-.1,.6,-.3,1,-.5,1.2c-.2,.2,-.6,.2,-1.1,.1h-.4l-.1,.8l7,.9Z" class="g2"/>
</svg>