<?xml version="1.0" encoding="UTF-8" standalone="no"?>
<!DOCTYPE svg PUBLIC "-//W3C//DTD SVG 1.1//EN"
"http://www.w3.org/Graphics/SVG/1.1/DTD/svg11.dtd">
<svg viewBox="0 0 811 1017" version="1.1" xmlns="http://www.w3.org/2000/svg" xmlns:xlink="http://www.w3.org/1999/xlink">
<defs>
<style type="text/css"><![CDATA[
.g0_326{
fill: #FFFFFF;
}
.g1_326{
fill: #231F20;
}
.g2_326{
fill: #5A5758;
}
.g3_326{
fill: #EFEFEF;
}
.g4_326{
fill: #DFDFDF;
}
.g5_326{
fill: #EC2224;
}
.g6_326{
fill: #23ACDC;
}
.g7_326{
fill: #C9C9C8;
}
.g8_326{
fill: #ED3454;
}
.g9_326{
fill: #961E47;
}
]]></style>
</defs>
<path d="M143.5,493.6H708.7V84.8H143.5Z" class="g0_326"/>
<path d="M201.5,121.1v-2.9c0,-1.8,-1.5,-3.3,-3.3,-3.3H146.8c-1.8,0,-3.3,1.5,-3.3,3.3v2.9h58Z" class="g1_326"/>
<path d="M156.6,121.1H143.5v-2.9c0,-1.8,1.5,-3.3,3.3,-3.3h13.4l-3.6,6.2Z" class="g2_326"/>
<path d="M144.4,161.9h56.2V122H144.4Z" class="g0_326"/>
<path d="M199.7,122.9V161H145.3V122.9h54.4m1.8,-1.8h-58v41.7h58Z" class="g3_326"/>
<path d="M198.8,123.8v36.3H146.2V123.8h52.6m.4,-.5H145.8v37.2h53.4Z" class="g4_326"/>
<path d="M149,118c0,.5,-.4,.9,-.9,.9c-.5,0,-.9,-.4,-.9,-.9c0,-.5,.4,-.9,.9,-.9c.5,0,.9,.4,.9,.9Z" class="g5_326"/>
<path d="M151.8,118c0,.5,-.4,.9,-.9,.9c-.5,0,-1,-.4,-1,-.9c0,-.5,.5,-.9,1,-.9c.5,0,.9,.4,.9,.9Z" class="g6_326"/>
<path d="M154.6,118c0,.5,-.4,.9,-1,.9c-.5,0,-.9,-.4,-.9,-.9c0,-.5,.4,-.9,.9,-.9c.6,0,1,.4,1,.9Z" class="g0_326"/>
<path d="M192,119.6H162.9c-.9,0,-1.7,-.7,-1.7,-1.6c0,-.9,.7,-1.6,1.7,-1.6H192c.9,0,1.7,.7,1.7,1.6c-.1,.9,-.8,1.6,-1.7,1.6Z" class="g0_326"/>
<path d="M164,117.3l.2,.8c0,.2,.1,.4,.1,.5c.1,-.1,.1,-.3,.2,-.5l.2,-.8h.3l.2,.8c.1,.2,.2,.4,.2,.6c0,-.2,.1,-.4,.1,-.6l.3,-.8h.3l-.6,1.7h-.2l-.3,-.8c0,-.2,-.1,-.4,-.1,-.6c-.1,.2,-.1,.4,-.2,.6l-.2,.8h-.3l-.5,-1.7h.3Z" class="g1_326"/>
<path d="M166.6,117.3l.2,.8c0,.2,.1,.4,.1,.5c.1,-.1,.1,-.3,.2,-.5l.2,-.8h.3l.2,.8c.1,.2,.2,.4,.2,.6c0,-.2,.1,-.4,.1,-.6l.3,-.8h.3l-.6,1.7h-.2l-.3,-.9c0,-.2,-.1,-.3,-.1,-.5c-.1,.2,-.1,.3,-.2,.5l-.3,.8h-.2l-.5,-1.7h.3v.1Z" class="g1_326"/>
<path d="M169.2,117.3l.2,.8c0,.2,.1,.4,.1,.5c.1,-.1,.1,-.3,.2,-.5l.2,-.8h.3l.3,.8c0,.2,.1,.4,.1,.6c.1,-.2,.1,-.4,.1,-.6l.3,-.8h.3l-.6,1.7h-.2l-.3,-.8c0,-.2,-.1,-.4,-.1,-.6c-.1,.2,-.1,.4,-.2,.6l-.2,.8h-.3l-.5,-1.7h.3Z" class="g1_326"/>
<path d="M171.4,118.8l.2,-.3l.2,.3c0,.1,-.1,.2,-.2,.2l-.2,-.2Z" class="g1_326"/>
<path d="M195.8,118.3h2.6v-.5h-2.6Z" class="g0_326"/>
<path d="M196.9,117l.4,-.3l1.3,1.3l-1.3,1.4l-.4,-.3L198,118l-1.1,-1Z" class="g0_326"/>
<path d="M192.2,117.5l-.9,1.1l-.8,-1.1h1.7Z" class="g7_326"/>
<path d="M174.9,152.8H178v-8.5h-3.1Z" class="g8_326"/>
<path d="M180.1,152.8h3.1v-5h-3.1Z" class="g6_326"/>
<path d="M169.7,152.8h3.1V139.5h-3.1Z" class="g6_326"/>
<path d="M164.5,152.8h3.2V131h-3.2Z" class="g8_326"/>
<path d="M159.3,152.8h3.2V135.4h-3.2Z" class="g6_326"/>
<path d="M154.2,152.8h3.1V142.4h-3.1Z" class="g8_326"/>
<path d="M189.5,137.4L182,136.1l1.3,7.5l2.1,-2.2l4.8,4.8l2,-2.1l-4.7,-4.7l2,-2Z" class="g6_326"/>
<path d="M383.4,123.7h30.3v-5.8c0,-1.8,.9,-3.5,2.3,-4.5v-.5c0,-.7,.1,-1.4,.2,-2.1H383.4c-3.6,0,-6.5,2.9,-6.5,6.4c0,3.6,2.9,6.5,6.5,6.5Zm12,-8.1c.9,0,1.6,.7,1.6,1.6c0,.9,-.7,1.7,-1.6,1.7c-.9,0,-1.7,-.8,-1.7,-1.7c0,-.8,.8,-1.6,1.7,-1.6Zm-5,0c.9,0,1.6,.7,1.6,1.6c0,.9,-.7,1.7,-1.6,1.7c-.9,0,-1.7,-.8,-1.7,-1.7c0,-.8,.8,-1.6,1.7,-1.6Zm-6.7,-1.5c1.7,0,3.2,1.4,3.2,3.1c0,1.8,-1.5,3.2,-3.2,3.2c-1.7,0,-3.2,-1.4,-3.2,-3.2c0,-1.7,1.5,-3.1,3.2,-3.1Z" class="g1_326"/>
<path d="M396.2,153.3c0,-.7,.1,-1.4,.3,-2.1H381.1c-1.2,0,-2.1,1,-2.1,2.1c0,1.2,.9,2.2,2.1,2.2h15.4c-.2,-.7,-.3,-1.4,-.3,-2.2Z" class="g1_326"/>
<path d="M429.2,153.3c0,-1.1,-.9,-2.1,-2.1,-2.1H411.6c.2,.7,.3,1.4,.3,2.1c0,.8,-.1,1.5,-.3,2.2h15.5c1.2,0,2.1,-1,2.1,-2.2Z" class="g1_326"/>
<path d="M419.2,132.1h16.7c1.2,0,2.2,-1,2.2,-2.2v-12c0,-1.2,-1,-2.1,-2.2,-2.1h-.1v-2.9c0,-4.5,-3.7,-8.2,-8.2,-8.2c-4.5,0,-8.2,3.7,-8.2,8.2v2.9h-.2c-1.2,0,-2.2,.9,-2.2,2.1v12c0,1.2,1,2.2,2.2,2.2Zm9.6,-7.6c-.1,.1,-.2,.2,-.2,.4c0,.9,0,1.8,0,2.6c0,.4,-.1,.8,-.5,.9c-.7,.4,-1.5,-.1,-1.5,-.9c0,-.8,0,-1.7,0,-2.6c0,-.2,0,-.3,-.2,-.4c-.8,-.6,-1.1,-1.6,-.7,-2.5c.4,-.8,1.4,-1.3,2.3,-1.2c.9,.2,1.6,1,1.6,2c.1,.7,-.2,1.3,-.8,1.7ZM423,112.9c0,-2.5,2.1,-4.6,4.6,-4.6c2.6,0,4.7,2.1,4.7,4.6v2.9H423v-2.9Z" class="g1_326"/>
<path d="M383.4,140.8h18.5v8.1c-1.6,.8,-2.8,2.5,-2.8,4.4c0,2.7,2.2,4.9,4.9,4.9c2.7,0,4.9,-2.1,4.9,-4.9c0,-1.9,-1.1,-3.6,-2.7,-4.4v-8.1h19.7c3.2,0,5.8,-2.3,6.4,-5.3H419.2c-3.1,0,-5.5,-2.5,-5.5,-5.6v-2H383.4c-3.6,0,-6.5,2.9,-6.5,6.4c0,3.6,2.9,6.5,6.5,6.5Zm12,-8.1c.9,0,1.6,.7,1.6,1.6c0,1,-.7,1.7,-1.6,1.7c-.9,0,-1.7,-.7,-1.7,-1.7c0,-.9,.8,-1.6,1.7,-1.6Zm-5,0c.9,0,1.6,.7,1.6,1.6c0,1,-.7,1.7,-1.6,1.7c-.9,0,-1.7,-.7,-1.7,-1.7c0,-.9,.8,-1.6,1.7,-1.6Zm-6.7,-1.5c1.7,0,3.2,1.4,3.2,3.1c0,1.8,-1.5,3.2,-3.2,3.2c-1.7,0,-3.2,-1.4,-3.2,-3.2c0,-1.7,1.5,-3.1,3.2,-3.1Z" class="g1_326"/>
<path d="M459.8,161.4c-.3,-.2,-.6,-.2,-.8,0c-3.1,2.4,-8.5,3.8,-14.5,3.8c-6,0,-11.3,-1.4,-14.5,-3.8c-.3,-.2,-.6,-.2,-.8,0c-.3,.1,-.4,.5,-.4,.6v2.4c0,3.9,6.9,7.1,15.7,7.1c8.8,0,15.8,-3.2,15.8,-7.1V162c0,-.3,-.2,-.6,-.5,-.6Z" class="g1_326"/>
<path d="M459.8,145.5c-.3,-.2,-.6,-.2,-.8,0c-3.1,2.3,-8.5,3.7,-14.5,3.7c-6,0,-11.3,-1.4,-14.5,-3.7c-.3,-.2,-.6,-.2,-.8,0c-.3,.1,-.4,.4,-.4,.6v2.4c0,3.9,6.9,7.1,15.7,7.1c8.8,0,15.8,-3.2,15.8,-7.1v-2.4c0,-.2,-.2,-.5,-.5,-.6Z" class="g1_326"/>
<path d="M444.5,147.8c8.8,0,15.8,-3.1,15.8,-7.1c0,-3.9,-7,-7.1,-15.8,-7.1c-8.8,0,-15.7,3.2,-15.7,7.1c0,4,6.9,7.1,15.7,7.1Z" class="g1_326"/>
<path d="M459.8,153.3c-.3,-.1,-.6,-.1,-.8,0c-3.1,2.4,-8.5,3.8,-14.5,3.8c-6,0,-11.3,-1.4,-14.5,-3.8c-.3,-.1,-.6,-.1,-.8,0c-.3,.2,-.4,.5,-.4,.7v2.3c0,4,6.9,7.1,15.7,7.1c8.8,0,15.8,-3.1,15.8,-7.1V154c0,-.2,-.2,-.5,-.5,-.7Z" class="g1_326"/>
<path d="M631.8,122H662v-5.8c0,-1.9,1,-3.5,2.4,-4.5v-.5c0,-.8,.1,-1.5,.2,-2.2H631.8c-3.6,0,-6.5,2.9,-6.5,6.5c0,3.6,2.9,6.5,6.5,6.5Zm12,-8.1c.9,0,1.6,.7,1.6,1.6c0,.9,-.7,1.6,-1.6,1.6c-.9,0,-1.7,-.7,-1.7,-1.6c0,-.9,.8,-1.6,1.7,-1.6Zm-5.1,0c.9,0,1.7,.7,1.7,1.6c0,.9,-.8,1.6,-1.7,1.6c-.9,0,-1.6,-.7,-1.6,-1.6c0,-.9,.7,-1.6,1.6,-1.6Zm-6.6,-1.6c1.7,0,3.1,1.5,3.1,3.2c0,1.8,-1.4,3.2,-3.1,3.2c-1.8,0,-3.2,-1.4,-3.2,-3.2c0,-1.7,1.4,-3.2,3.2,-3.2Z" class="g9_326"/>
<path d="M644.6,151.6c0,-.7,.1,-1.4,.3,-2.1H629.4c-1.1,0,-2.1,.9,-2.1,2.1c0,1.2,1,2.1,2.1,2.1h15.5c-.2,-.7,-.3,-1.4,-.3,-2.1Z" class="g9_326"/>
<path d="M677.6,151.6c0,-1.2,-.9,-2.1,-2.1,-2.1H660c.1,.7,.3,1.4,.3,2.1c0,.7,-.2,1.5,-.3,2.1h15.5c1.2,0,2.1,-.9,2.1,-2.1Z" class="g9_326"/>
<path d="M667.6,130.3h16.7c1.2,0,2.1,-.9,2.1,-2.1v-12c0,-1.2,-.9,-2.2,-2.1,-2.2h-.1v-2.8c0,-4.6,-3.7,-8.2,-8.2,-8.2c-4.5,0,-8.2,3.6,-8.2,8.2V114h-.2c-1.2,0,-2.2,1,-2.2,2.2v12c0,1.2,1,2.1,2.2,2.1Zm9.6,-7.6c-.2,.2,-.2,.3,-.2,.5c0,.8,0,1.7,0,2.6c0,.4,-.2,.7,-.5,.9c-.8,.4,-1.5,-.2,-1.5,-.9c0,-.9,0,-1.7,0,-2.6c0,-.2,-.1,-.3,-.2,-.4c-.8,-.6,-1.1,-1.6,-.7,-2.5c.4,-.9,1.3,-1.4,2.2,-1.2c1,.2,1.7,1,1.7,2c.1,.7,-.2,1.2,-.8,1.6Zm-5.8,-11.5c0,-2.6,2,-4.6,4.6,-4.6c2.6,0,4.6,2,4.6,4.6V114h-9.2v-2.8Z" class="g9_326"/>
<path d="M631.8,139.1h18.5v8.1c-1.6,.8,-2.8,2.5,-2.8,4.4c0,2.7,2.2,4.9,4.9,4.9c2.7,0,4.9,-2.2,4.9,-4.9c0,-1.9,-1.1,-3.6,-2.8,-4.4v-8.1h19.8c3.2,0,5.8,-2.3,6.3,-5.4h-13c-3.1,0,-5.6,-2.5,-5.6,-5.5v-2.1H631.8c-3.6,0,-6.5,2.9,-6.5,6.5c0,3.6,2.9,6.5,6.5,6.5Zm12,-8.1c.9,0,1.6,.7,1.6,1.6c0,.9,-.7,1.6,-1.6,1.6c-.9,0,-1.7,-.7,-1.7,-1.6c0,-.9,.8,-1.6,1.7,-1.6Zm-5.1,0c.9,0,1.7,.7,1.7,1.6c0,.9,-.8,1.6,-1.7,1.6c-.9,0,-1.6,-.7,-1.6,-1.6c0,-.9,.7,-1.6,1.6,-1.6Zm-6.6,-1.5c1.7,0,3.1,1.4,3.1,3.1c0,1.8,-1.4,3.2,-3.1,3.2c-1.8,0,-3.2,-1.4,-3.2,-3.2c0,-1.7,1.4,-3.1,3.2,-3.1Z" class="g9_326"/>
<path d="M708.2,159.7c-.3,-.2,-.6,-.2,-.8,0c-3.1,2.3,-8.5,3.7,-14.5,3.7c-6,0,-11.3,-1.4,-14.5,-3.7c-.3,-.2,-.6,-.2,-.8,0c-.3,.1,-.5,.4,-.5,.6v2.3c0,4,7,7.1,15.8,7.1c8.8,0,15.8,-3.1,15.8,-7.1v-2.3c0,-.3,-.2,-.6,-.5,-.6Z" class="g9_326"/>
<path d="M708.2,143.7c-.3,-.1,-.6,-.1,-.8,0c-3.1,2.4,-8.5,3.8,-14.5,3.8c-6,0,-11.3,-1.4,-14.5,-3.8c-.3,-.1,-.6,-.1,-.8,0c-.3,.2,-.5,.5,-.5,.7v2.3c0,4,7,7.1,15.8,7.1c8.8,0,15.8,-3.1,15.8,-7.1v-2.3c0,-.2,-.2,-.5,-.5,-.7Z" class="g9_326"/>
<path d="M692.9,146.1c8.8,0,15.8,-3.2,15.8,-7.1c0,-3.9,-7,-7.1,-15.8,-7.1c-8.8,0,-15.8,3.2,-15.8,7.1c0,3.9,7,7.1,15.8,7.1Z" class="g9_326"/>
<path d="M708.2,151.6c-.3,-.1,-.6,-.1,-.8,0c-3.1,2.4,-8.5,3.8,-14.5,3.8c-6,0,-11.3,-1.4,-14.5,-3.8c-.3,-.1,-.6,-.1,-.8,0c-.3,.2,-.5,.5,-.5,.6v2.4c0,3.9,7,7.1,15.8,7.1c8.8,0,15.8,-3.2,15.8,-7.1v-2.4c0,-.1,-.2,-.4,-.5,-.6Z" class="g9_326"/>
<path d="M177.8,175.8l-.7,312.3h.7l.8,-312.3Z" class="g1_326"/>
<path d="M416.2,175.8l-.7,312.3l.7,.1L417,175.8Z" class="g1_326"/>
<path d="M677,181.2l-.7,312.4h.7l.8,-312.4Z" class="g1_326"/>
<path d="M177.7,252.4h231v-.8h-231Z" class="g1_326"/>
<path d="M407.2,254.2l8.3,-2.2l-8.3,-2.2v4.4Z" class="g1_326"/>
<path d="M184.6,317.1h231v-.8h-231Z" class="g1_326"/>
<path d="M186.2,314.5l-8.3,2.2l8.3,2.2v-4.4Z" class="g1_326"/>
<path d="M676.7,453.8L184.9,451.7l-.1,.7l491.9,2.2Z" class="g1_326"/>
<path d="M186.4,449.9l-8.3,2.1l8.3,2.3v-4.4Z" class="g1_326"/>
<path d="M178.1,391.3l492.3,2.1v-.7L178.1,390.5Z" class="g1_326"/>
<path d="M668.9,395.2l8.2,-2.1l-8.2,-2.3v4.4Z" class="g1_326"/>
</svg>