<?xml version="1.0" encoding="UTF-8" standalone="no"?>
<!DOCTYPE svg PUBLIC "-//W3C//DTD SVG 1.1//EN"
"http://www.w3.org/Graphics/SVG/1.1/DTD/svg11.dtd">
<svg viewBox="0 0 907 1045" version="1.1" xmlns="http://www.w3.org/2000/svg" xmlns:xlink="http://www.w3.org/1999/xlink">
<defs>
<clipPath id="c0_363"><path d="M548,940.8V777.9H729.8V940.8Z"/></clipPath>
<clipPath id="c1_363"><path d="M249.6,393.2V367.8h12.1V348H249.6V324.5H134.3V348h-2.4v19.8h2.4v25.4ZM128.8,408V318.9H263.7V408Z"/></clipPath>
<clipPath id="c2_363"><path d="M134.3,393.2V367.8h.3V393H249.4V367.8h.2v25.4Zm0,-45.2V324.5H249.6V348h-.2V324.7H134.6V348Z"/></clipPath>
<clipPath id="c3_363"><path d="M131.9,367.8V348h2.4v19.8Zm117.7,0V348h12.1v19.8Z"/></clipPath>
<clipPath id="c4_363"><path d="M134.8,367.8V348h41.4v1.4h31.2V348h41.7v19.8H174.6v-5.9H140.2v5.9Z"/></clipPath>
<clipPath id="c5_363"><path d="M134.3,367.8V348h.3v19.8Zm115.1,0V348h.2v19.8Z"/></clipPath>
<clipPath id="c6_363"><path d="M134.6,367.8V348h.2v19.8Zm114.5,0V348h.3v19.8Z"/></clipPath>
<clipPath id="c7_363"><path d="M140.2,367.8v-5.9h34.4v5.9Z"/></clipPath>
<clipPath id="c8_363"><path d="M146.3,368.6c0,0,.3,0,.6,-.3c0,0,.4,-.2,.6,-.6c0,0,.2,-.4,.3,-1.2c0,0,-.3,.2,-.9,.2c0,0,-.7,.1,-.9,.2c0,0,-.3,.1,-.4,.3c0,0,-.1,.2,-.1,.5c0,0,0,.4,.2,.6c0,0,.2,.3,.6,.3Zm16.2,-2.5v-.2c0,0,0,-.7,-.3,-1c0,0,-.3,-.3,-.7,-.3c0,0,-.5,0,-.8,.3c0,0,-.4,.4,-.6,1.2Zm.8,3l1.9,-2.6L164.1,364h.8l.4,.9c0,0,.2,.5,.3,1l1.2,-1.9h.9l-1.8,2.6l1.1,2.5h-.8l-.4,-1c0,0,-.2,-.4,-.3,-.8l-1.3,1.8Zm-17.2,.1c0,0,-.6,0,-1,-.4c0,0,-.3,-.4,-.3,-1c0,0,0,-.5,.2,-.9c0,0,.2,-.4,.6,-.6c0,0,.4,-.2,1.1,-.2c0,0,.6,0,.8,-.1c0,0,.3,0,.4,-.1c0,0,.1,-.4,.1,-.6c0,0,0,-.3,-.2,-.5c0,0,-.2,-.2,-.7,-.2c0,0,-.9,0,-1.2,.9h-.7c0,0,.4,-1.6,1.9,-1.6c0,0,.8,0,1.2,.4c0,0,.5,.4,.5,.9c0,0,0,.4,-.2,1l-.2,1.3c0,0,-.2,.6,-.2,.9c0,0,0,.3,.1,.7h-.7c0,0,-.1,-.2,-.1,-.6c0,0,-.4,.4,-.7,.6c0,0,-.4,.1,-.7,.1Zm4.9,0c0,0,-.9,0,-1.3,-.4c0,0,-.5,-.5,-.5,-1.3v-.1l.7,-.1c0,0,0,.6,.3,1c0,0,.3,.3,.8,.3c0,0,.4,0,.7,-.3c0,0,.2,-.2,.2,-.5c0,0,0,-.3,-.1,-.5c0,0,-.2,-.2,-.7,-.4c0,0,-.7,-.4,-.9,-.6c0,0,-.2,-.1,-.3,-.4c0,0,-.1,-.2,-.1,-.5c0,0,0,-.7,.4,-1.1c0,0,.4,-.4,1.1,-.4c0,0,.8,0,1.2,.4c0,0,.4,.4,.5,1.2l-.7,.1c0,0,-.1,-.5,-.3,-.8c0,0,-.3,-.2,-.7,-.2c0,0,-.4,0,-.6,.2c0,0,-.2,.1,-.2,.4c0,0,0,.2,.1,.4c0,0,.1,.1,.7,.4c0,0,.8,.5,1,.7c0,0,.4,.4,.4,1c0,0,0,.6,-.5,1.1c0,0,-.4,.4,-1.2,.4Zm9.9,0c0,0,-.5,0,-.8,-.2c0,0,-.4,-.3,-.6,-.8c0,0,-.3,-.4,-.3,-1.1c0,0,0,-.9,.4,-1.7c0,0,.3,-.8,.8,-1.2c0,0,.5,-.3,1.1,-.3c0,0,.7,0,1.2,.5c0,0,.4,.6,.4,1.6c0,0,0,.4,0,.8H160c0,0,0,.1,0,.2c0,0,0,.8,.2,1.1c0,0,.3,.4,.7,.4c0,0,.4,0,.7,-.3c0,0,.4,-.3,.6,-.8l.7,.1c0,0,-.2,.7,-.8,1.3c0,0,-.6,.4,-1.2,.4Zm7.8,0c0,0,-.4,0,-.6,-.2c0,0,-.3,-.2,-.3,-.6c0,0,0,-.1,.1,-.8l.6,-2.9h-.6l.1,-.7h.6l.2,-1.3l.8,-.6l-.3,1.9h.7l-.1,.7h-.7l-.5,2.8c0,0,-.1,.6,-.1,.6c0,0,0,.2,.1,.3c0,0,.1,.1,.2,.1c0,0,.3,0,.4,-.1l-.1,.7c0,0,-.2,.1,-.5,.1Zm-28.5,-.1l1.2,-7.1h.7l-.5,2.8c0,0,.4,-.5,.8,-.7c0,0,.3,-.2,.7,-.2c0,0,.5,0,.8,.3c0,0,.3,.3,.3,.9c0,0,0,.3,-.1,1l-.6,3h-.7l.6,-3.1c0,0,.1,-.7,.1,-.8c0,0,0,-.3,-.2,-.4c0,0,-.1,-.2,-.4,-.2c0,0,-.4,0,-.7,.2c0,0,-.3,.3,-.6,.7c0,0,-.2,.4,-.3,1.4l-.4,2.2Zm13.2,0l1.2,-7.1h.7l1,2.7c0,0,.4,1.2,.7,2c0,0,.2,.5,.4,1.4c0,0,.1,-1,.2,-1.9l.7,-4.2h.8l-1.2,7.1h-.8L155.7,365c0,0,-.4,-1.1,-.6,-1.9c0,0,-.1,.7,-.3,1.7l-.7,4.3Zm17.6,2.1c0,0,-.7,-1.7,-.7,-3.4c0,0,0,-1.2,.3,-2.2c0,0,.3,-1,.8,-2c0,0,.3,-.6,1,-1.7h.6c0,0,-.5,.7,-1,1.8c0,0,-.5,1.1,-.7,2.1c0,0,-.3,1.1,-.3,2.1c0,0,0,1.6,.5,3.3Zm.9,0c0,0,.5,-.6,1,-1.8c0,0,.5,-1.1,.8,-2.1c0,0,.2,-1,.2,-2.1c0,0,0,-1.6,-.5,-3.3h.6c0,0,.6,1.7,.6,3.4c0,0,0,1.2,-.3,2.2c0,0,-.2,1.1,-.8,2.1c0,0,-.3,.6,-1,1.6Z"/></clipPath>
<clipPath id="c9_363"><path d="M176.2,349.4V348h31.2v1.4Z"/></clipPath>
<clipPath id="ca_363"><path d="M192,348.3c0,0,.3,0,.5,-.2c0,0,.2,-.1,.4,-.4c0,0,.1,-.3,.3,-.9v-.2c0,0,-.1,.1,-.3,.1c0,0,-.9,.1,-1.2,.4c0,0,-.3,.2,-.3,.5c0,0,0,.3,.2,.5c0,0,.1,.2,.4,.2Zm8.5,-.1c0,0,.5,0,.9,-.5c0,0,.5,-.8,.5,-1.9c0,0,0,-.5,-.3,-.8c0,0,-.3,-.4,-.7,-.4c0,0,-.3,0,-.6,.3c0,0,-.3,.2,-.5,.8c0,0,-.2,.6,-.2,1.2c0,0,0,.6,.2,1c0,0,.3,.3,.7,.3ZM185.2,346v-.2c0,0,0,-.6,-.2,-.9c0,0,-.3,-.3,-.6,-.3c0,0,-.4,0,-.7,.3c0,0,-.4,.4,-.5,1.1Zm-1.2,3.4c0,0,-.9,0,-1.5,-.7c0,0,-.6,-.7,-.6,-1.9c0,0,0,-1.3,.7,-2.3c0,0,.7,-1,1.9,-1c0,0,.8,0,1.3,.6c0,0,.5,.6,.5,1.8c0,0,0,.6,0,1h-3.2v.2c0,0,0,.5,.3,.9c0,0,.2,.3,.6,.3c0,0,.6,0,1,-.8l1.1,.2c0,0,-.3,.9,-.9,1.3c0,0,-.5,.4,-1.2,.4Zm2.6,-.1l1,-5.7h1.2l-.2,1.1c0,0,.6,-1.2,1.4,-1.2c0,0,.3,0,.6,.2l-.5,1.2c0,0,-.2,-.1,-.4,-.1c0,0,-.2,0,-.5,.2c0,0,-.4,.3,-.6,.8c0,0,-.2,.5,-.4,1.7l-.3,1.8Zm5,.1c0,0,-.6,0,-1,-.5c0,0,-.4,-.4,-.4,-1.1c0,0,0,-.9,.5,-1.4c0,0,.4,-.4,1.5,-.5c0,0,.9,-.1,1.2,-.2c0,0,.1,-.4,.1,-.6c0,0,0,-.2,-.2,-.4c0,0,-.2,-.1,-.5,-.1c0,0,-.7,0,-.9,.6l-1.2,-.1c0,0,.3,-.8,.8,-1.2c0,0,.6,-.4,1.4,-.4c0,0,.9,0,1.3,.4c0,0,.5,.4,.5,1.1c0,0,0,.3,0,.6c0,0,-.1,.2,-.4,1.5c0,0,-.2,1,-.2,1.4c0,0,0,.3,.1,.8H193c0,0,-.1,-.3,-.1,-.7c0,0,-.3,.4,-.6,.6c0,0,-.4,.2,-.7,.2Zm8.9,0c0,0,-1,0,-1.6,-.7c0,0,-.6,-.6,-.6,-1.8c0,0,0,-1.4,.6,-2.3c0,0,.7,-1.1,2,-1.1c0,0,1,0,1.6,.7c0,0,.6,.6,.6,1.8c0,0,0,1.4,-.7,2.4c0,0,-.7,1,-1.9,1Zm3,-.1l.9,-5.7h1.2l-.2,1.1c0,0,.7,-1.2,1.5,-1.2c0,0,.2,0,.5,.2l-.4,1.2c0,0,-.2,-.1,-.4,-.1c0,0,-.3,0,-.5,.2c0,0,-.4,.3,-.6,.8c0,0,-.3,.5,-.5,1.7l-.3,1.8Zm-23.1,.1c0,0,-.6,0,-.9,-.3c0,0,-.3,-.3,-.3,-.9c0,0,0,-.2,.1,-1.2l.4,-2.2h-.6l.2,-1.2h.6l.2,-.9l1.4,-1l-.3,1.9h.7l-.2,1.2H181l-.4,2.3c0,0,-.2,.7,-.2,.8c0,0,0,.1,.1,.2c0,0,.1,.1,.4,.1h.4l-.2,1.1c0,0,-.3,.1,-.7,.1Zm16.4,0c0,0,-.6,0,-1,-.3c0,0,-.3,-.3,-.3,-.9c0,0,0,-.2,.2,-1.2l.4,-2.2h-.6l.2,-1.2h.6l.1,-.9l1.5,-1l-.4,1.9h.8l-.2,1.2h-.8l-.4,2.3c0,0,-.1,.7,-.1,.8c0,0,0,.1,.1,.2c0,0,.1,.1,.3,.1c0,0,.1,0,.4,0l-.2,1.1c0,0,-.3,.1,-.6,.1Zm-20.5,-.1l1.3,-7.8h1.3l-1.3,7.8Z"/></clipPath>
<clipPath id="cb_363"><path d="M187.2,708.4c.3,0,.6,-.2,.6,-.5c0,-.4,-.3,-.6,-.6,-.6c-.4,0,-.6,.2,-.6,.6c0,.3,.2,.5,.6,.5Zm0,-3.5c.3,0,.6,-.3,.6,-.6c0,-.3,-.3,-.6,-.6,-.6c-.4,0,-.6,.3,-.6,.6c0,.3,.2,.6,.6,.6Zm58.3,-9.5V669.9h12.1V650.1H245.5V626.6H130.3v23.5h-2.5v19.8h2.5v25.5ZM124.7,710.1V621H259.6v89.1Z"/></clipPath>
<clipPath id="cc_363"><path d="M130.3,695.4V669.9h.2v25.2H245.3V669.9h.2v25.5Zm0,-45.3V626.6H245.5v23.5h-.2V626.8H130.5v23.3Z"/></clipPath>
<clipPath id="cd_363"><path d="M187.2,708.4c-.4,0,-.6,-.2,-.6,-.5c0,-.4,.2,-.6,.6,-.6c.3,0,.6,.2,.6,.6c0,.3,-.3,.5,-.6,.5Z"/></clipPath>
<clipPath id="ce_363"><path d="M187.2,704.9c-.4,0,-.6,-.3,-.6,-.6c0,-.3,.2,-.6,.6,-.6c.3,0,.6,.3,.6,.6c0,.3,-.3,.6,-.6,.6Z"/></clipPath>
<clipPath id="cf_363"><path d="M127.8,669.9V650.1h2.5v19.8Zm117.7,0V650.1h12.1v19.8Z"/></clipPath>
<clipPath id="cg_363"><path d="M130.7,669.9V650.1h41.4v1.4h31.3v-1.4H245v19.8H170.5V664H136.1v5.9Z"/></clipPath>
<clipPath id="ch_363"><path d="M130.3,669.9V650.1h.2v19.8Zm115,0V650.1h.2v19.8Z"/></clipPath>
<clipPath id="ci_363"><path d="M130.5,669.9V650.1h.2v19.8Zm114.5,0V650.1h.3v19.8Z"/></clipPath>
<clipPath id="cj_363"><path d="M136.1,669.9V664h34.4v5.9Z"/></clipPath>
<clipPath id="ck_363"><path d="M142.2,670.7c0,0,.3,0,.7,-.2c0,0,.3,-.2,.5,-.6c0,0,.2,-.4,.3,-1.2c0,0,-.2,.1,-.9,.1c0,0,-.6,.1,-.9,.2c0,0,-.2,.1,-.4,.3c0,0,-.1,.3,-.1,.5c0,0,0,.4,.2,.7c0,0,.2,.2,.6,.2Zm16.2,-2.5v-.1c0,0,0,-.7,-.3,-1.1c0,0,-.3,-.3,-.7,-.3c0,0,-.4,0,-.8,.4c0,0,-.4,.4,-.6,1.1Zm.8,3l1.9,-2.6L160,666.1h.8l.4,.9c0,0,.2,.5,.3,1l1.2,-1.9h.9l-1.7,2.6l1,2.5h-.8l-.4,-1c0,0,-.1,-.3,-.3,-.8l-1.3,1.8Zm-17.2,.2c0,0,-.6,0,-1,-.4c0,0,-.3,-.4,-.3,-1.1c0,0,0,-.5,.2,-.9c0,0,.2,-.3,.6,-.5c0,0,.4,-.2,1.1,-.3c0,0,.6,0,.9,0c0,0,.2,-.1,.4,-.2c0,0,.1,-.3,.1,-.6c0,0,0,-.3,-.3,-.5c0,0,-.2,-.2,-.7,-.2c0,0,-.9,0,-1.2,1l-.7,-.1c0,0,.5,-1.6,2,-1.6c0,0,.7,0,1.1,.4c0,0,.5,.4,.5,1c0,0,0,.4,-.1,.9l-.3,1.3c0,0,-.1,.6,-.1,1c0,0,0,.2,0,.6h-.7c0,0,0,-.2,-.1,-.6c0,0,-.4,.4,-.7,.6c0,0,-.4,.2,-.7,.2Zm4.9,0c0,0,-.8,0,-1.3,-.5c0,0,-.5,-.5,-.5,-1.3v-.1l.8,-.1c0,0,0,.7,.2,1c0,0,.3,.3,.8,.3c0,0,.4,0,.7,-.2c0,0,.3,-.3,.3,-.6c0,0,0,-.2,-.2,-.4c0,0,-.2,-.2,-.7,-.5c0,0,-.6,-.4,-.8,-.5c0,0,-.2,-.2,-.4,-.5c0,0,-.1,-.2,-.1,-.5c0,0,0,-.7,.4,-1.1c0,0,.5,-.4,1.1,-.4c0,0,.8,0,1.2,.4c0,0,.5,.5,.5,1.2l-.7,.1c0,0,0,-.5,-.3,-.8c0,0,-.3,-.2,-.7,-.2c0,0,-.4,0,-.6,.2c0,0,-.2,.2,-.2,.4c0,0,0,.2,.1,.4c0,0,.2,.2,.7,.4c0,0,.8,.5,1,.7c0,0,.4,.4,.4,1c0,0,0,.6,-.5,1.1c0,0,-.4,.5,-1.2,.5Zm9.9,0c0,0,-.4,0,-.8,-.3c0,0,-.4,-.2,-.6,-.7c0,0,-.2,-.5,-.2,-1.2c0,0,0,-.9,.3,-1.7c0,0,.3,-.8,.8,-1.1c0,0,.5,-.4,1.1,-.4c0,0,.7,0,1.2,.6c0,0,.5,.5,.5,1.5c0,0,0,.4,-.1,.8h-3.1c0,0,0,.2,0,.3c0,0,0,.7,.3,1.1c0,0,.2,.3,.6,.3c0,0,.4,0,.7,-.3c0,0,.4,-.2,.6,-.8l.7,.1c0,0,-.2,.7,-.8,1.3c0,0,-.5,.5,-1.2,.5Zm7.8,-.1c0,0,-.4,0,-.6,-.2c0,0,-.2,-.2,-.2,-.5c0,0,0,-.2,.1,-.8l.5,-3h-.6l.1,-.7h.6l.2,-1.2l.8,-.6l-.3,1.8h.7l-.1,.7h-.7l-.5,2.8c0,0,-.1,.6,-.1,.7c0,0,0,.1,.1,.2c0,0,.1,.1,.2,.1c0,0,.3,0,.5,-.1l-.2,.8c0,0,-.2,0,-.5,0Zm-28.5,-.1l1.2,-7h.7l-.5,2.7c0,0,.5,-.5,.8,-.7c0,0,.4,-.2,.7,-.2c0,0,.5,0,.8,.3c0,0,.3,.4,.3,.9c0,0,0,.3,-.1,1l-.5,3h-.8l.6,-3.1c0,0,.1,-.6,.1,-.8c0,0,0,-.3,-.1,-.4c0,0,-.2,-.2,-.5,-.2c0,0,-.3,0,-.7,.3c0,0,-.3,.2,-.5,.6c0,0,-.3,.4,-.4,1.4l-.4,2.2Zm13.2,0l1.2,-7h.7l1,2.6c0,0,.5,1.2,.7,2c0,0,.2,.5,.4,1.4c0,0,.1,-.9,.2,-1.9l.7,-4.1h.8l-1.2,7H153l-1.4,-4c0,0,-.4,-1.1,-.6,-1.9c0,0,-.1,.6,-.2,1.6l-.8,4.3Zm17.6,2.1c0,0,-.6,-1.6,-.6,-3.4c0,0,0,-1.2,.2,-2.2c0,0,.3,-1,.8,-2c0,0,.3,-.6,1.1,-1.7h.5c0,0,-.5,.7,-1,1.8c0,0,-.5,1.1,-.7,2.1c0,0,-.2,1.1,-.2,2.1c0,0,0,1.6,.4,3.3Zm.9,0c0,0,.5,-.6,1,-1.7c0,0,.5,-1.1,.8,-2.2c0,0,.2,-1,.2,-2c0,0,0,-1.6,-.5,-3.4h.6c0,0,.6,1.7,.6,3.4c0,0,0,1.3,-.3,2.3c0,0,-.2,1,-.8,2c0,0,-.3,.6,-1,1.6Z"/></clipPath>
<clipPath id="cl_363"><path d="M172.1,651.5v-1.4h31.3v1.4Z"/></clipPath>
<clipPath id="cm_363"><path d="M187.9,650.4c0,0,.3,0,.5,-.2c0,0,.3,-.1,.4,-.4c0,0,.1,-.2,.3,-.8v-.2c0,0,-.1,0,-.3,0c0,0,-.9,.2,-1.2,.4c0,0,-.3,.2,-.3,.5c0,0,0,.3,.2,.5c0,0,.2,.2,.4,.2Zm8.5,-.1c0,0,.5,0,.9,-.5c0,0,.5,-.7,.5,-1.8c0,0,0,-.6,-.3,-.9c0,0,-.2,-.3,-.6,-.3c0,0,-.4,0,-.7,.2c0,0,-.3,.2,-.5,.8c0,0,-.2,.6,-.2,1.2c0,0,0,.6,.3,1c0,0,.2,.3,.6,.3Zm-15.3,-2.2V648c0,0,0,-.7,-.2,-1c0,0,-.3,-.3,-.6,-.3c0,0,-.4,0,-.7,.4c0,0,-.3,.3,-.4,1Zm-1.2,3.4c0,0,-.9,0,-1.5,-.7c0,0,-.6,-.7,-.6,-1.9c0,0,0,-1.3,.7,-2.3c0,0,.7,-1,1.9,-1c0,0,.8,0,1.3,.6c0,0,.6,.7,.6,1.9c0,0,0,.5,-.1,.9H179v.2c0,0,0,.6,.3,.9c0,0,.3,.3,.6,.3c0,0,.7,0,1,-.8l1.1,.3c0,0,-.3,.8,-.8,1.2c0,0,-.6,.4,-1.3,.4Zm2.7,-.1l.9,-5.7h1.2l-.2,1.1c0,0,.7,-1.2,1.4,-1.2c0,0,.3,0,.6,.2L186,647c0,0,-.1,0,-.3,0c0,0,-.3,0,-.6,.2c0,0,-.4,.3,-.6,.7c0,0,-.2,.5,-.4,1.7l-.3,1.8Zm4.9,.1c0,0,-.6,0,-1,-.4c0,0,-.4,-.5,-.4,-1.2c0,0,0,-.9,.5,-1.3c0,0,.4,-.5,1.5,-.6c0,0,.9,-.1,1.2,-.2c0,0,.1,-.3,.1,-.5c0,0,0,-.3,-.2,-.4c0,0,-.2,-.2,-.5,-.2c0,0,-.7,0,-.8,.7l-1.2,-.2c0,0,.2,-.8,.7,-1.2c0,0,.6,-.4,1.4,-.4c0,0,.9,0,1.4,.4c0,0,.4,.5,.4,1.2c0,0,0,.2,0,.5c0,0,-.1,.3,-.3,1.5c0,0,-.3,1,-.3,1.4c0,0,0,.4,.2,.8h-1.3c0,0,-.1,-.3,-.1,-.7c0,0,-.2,.4,-.6,.6c0,0,-.4,.2,-.7,.2Zm8.9,0c0,0,-1,0,-1.6,-.6c0,0,-.6,-.7,-.6,-1.9c0,0,0,-1.3,.7,-2.3c0,0,.7,-1.1,2,-1.1c0,0,1,0,1.5,.7c0,0,.6,.7,.6,1.9c0,0,0,1.4,-.7,2.3c0,0,-.7,1,-1.9,1Zm3,-.1l1,-5.7h1.1l-.1,1.1c0,0,.6,-1.2,1.4,-1.2c0,0,.2,0,.6,.2l-.5,1.2c0,0,-.2,0,-.4,0c0,0,-.3,0,-.5,.2c0,0,-.4,.3,-.6,.7c0,0,-.2,.5,-.4,1.7l-.3,1.8Zm-23.1,.1c0,0,-.6,0,-.9,-.3c0,0,-.3,-.3,-.3,-.9c0,0,0,-.2,.1,-1.2l.4,-2.2H175l.2,-1.2h.6l.2,-.9l1.4,-1l-.3,1.9h.7l-.2,1.2h-.7l-.4,2.3c0,0,-.1,.7,-.1,.8c0,0,0,.2,.1,.3c0,0,.1,0,.3,0c0,0,.1,0,.4,0l-.2,1.1c0,0,-.3,.1,-.7,.1Zm16.4,0c0,0,-.6,0,-.9,-.3c0,0,-.4,-.3,-.4,-.9c0,0,0,-.2,.2,-1.2l.4,-2.2h-.6l.2,-1.2h.6l.1,-.9l1.5,-1l-.4,1.9h.8l-.2,1.2h-.8l-.4,2.3c0,0,-.1,.7,-.1,.8c0,0,0,.2,.1,.3c0,0,.1,0,.4,0h.4l-.2,1.1c0,0,-.4,.1,-.7,.1Zm-20.5,-.1l1.3,-7.8h1.3l-1.3,7.8Z"/></clipPath>
<clipPath id="cn_363"><path d="M245.5,835.1V807.4h11.1V787.6H245.5V774.9h-58c-.1,-.2,-.2,-.3,-.4,-.3c-.2,0,-.4,.1,-.5,.3H130.3v12.7h-2.4v19.8h2.4v27.7ZM187.1,772.2c.3,0,.6,-.2,.6,-.5c0,-.4,-.3,-.6,-.6,-.6c-.3,0,-.6,.2,-.6,.6c0,.3,.3,.5,.6,.5Zm-62.4,77.4V769.3H259.6v80.3Z"/></clipPath>
<clipPath id="co_363"><path d="M186.6,774.9c.1,-.2,.3,-.3,.5,-.3c.2,0,.3,.1,.4,.3Zm.5,-2.7c-.3,0,-.6,-.2,-.6,-.5c0,-.4,.3,-.6,.6,-.6c.3,0,.6,.2,.6,.6c0,.3,-.3,.5,-.6,.5Z"/></clipPath>
<clipPath id="cp_363"><path d="M130.3,787.6V774.9h56.3c-.1,0,-.1,.1,-.1,.2h-56v12.5Zm115,0V775.1H187.6c0,-.1,0,-.2,-.1,-.2h58v12.7Z"/></clipPath>
<clipPath id="cq_363"><path d="M186.5,775.1c0,-.1,0,-.2,.1,-.2h.9c.1,0,.1,.1,.1,.2Z"/></clipPath>
<clipPath id="cr_363"><path d="M130.3,835.1V807.4h.2v27.5H245.3V807.4h.2v27.7Z"/></clipPath>
<clipPath id="cs_363"><path d="M127.9,807.4V787.6h2.4v19.8Zm117.6,0V787.6h11.1v19.8Z"/></clipPath>
<clipPath id="ct_363"><path d="M130.7,807.4V787.6H151V789h76.3v-1.4H245v19.8H169.5v-5.8H135.4v5.8Z"/></clipPath>
<clipPath id="cu_363"><path d="M130.3,807.4V787.6h.2v19.8Zm115,0V787.6h.2v19.8Z"/></clipPath>
<clipPath id="cv_363"><path d="M130.5,807.4V787.6h.2v19.8Zm114.5,0V787.6h.3v19.8Z"/></clipPath>
<clipPath id="cw_363"><path d="M135.4,807.4v-5.8h34.1v5.8Z"/></clipPath>
<clipPath id="cx_363"><path d="M141.2,808.2c0,0,.4,0,.7,-.2c0,0,.3,-.2,.5,-.5c0,0,.2,-.3,.2,-1v-.3c0,0,-.4,.2,-1.2,.4c0,0,-.5,0,-.6,.1c0,0,-.2,.1,-.3,.3c0,0,-.1,.2,-.1,.4c0,0,0,.4,.2,.6c0,0,.2,.2,.6,.2Zm16,-2.4c0,0,-.1,-.7,-.3,-1c0,0,-.4,-.5,-.9,-.5c0,0,-.5,0,-.8,.4c0,0,-.3,.4,-.4,1.1Zm1.1,3l1.6,-2.7l-1.4,-2.4h.8l.7,1.2c0,0,.2,.3,.3,.5c0,0,.2,-.3,.3,-.5l.7,-1.2h.9l-1.5,2.4l1.6,2.7h-.9l-.9,-1.6l-.2,-.4l-1.1,2Zm-17.2,.1c0,0,-.7,0,-1.1,-.4c0,0,-.4,-.4,-.4,-1c0,0,0,-.5,.2,-.8c0,0,.2,-.4,.5,-.6c0,0,.3,-.2,1,-.2c0,0,.8,-.2,1.3,-.4v-.2c0,0,0,-.5,-.2,-.7c0,0,-.3,-.3,-.8,-.3c0,0,-.5,0,-.8,.2c0,0,-.2,.2,-.4,.8l-.7,-.2c0,0,.2,-.8,.6,-1.2c0,0,.5,-.3,1.4,-.3c0,0,.6,0,1,.2c0,0,.4,.3,.5,.6c0,0,.1,.4,.1,1.1v1.2c0,0,0,1.2,0,1.5c0,0,.1,.3,.2,.6h-.7c0,0,-.2,-.3,-.2,-.6c0,0,-.3,.3,-.7,.5c0,0,-.4,.2,-.8,.2Zm4.8,0c0,0,-1.6,0,-1.8,-1.6l.7,-.2c0,0,.1,.6,.4,.8c0,0,.2,.3,.7,.3c0,0,.5,0,.7,-.2c0,0,.3,-.3,.3,-.6c0,0,0,-.3,-.3,-.5c0,0,-.1,-.1,-.7,-.3c0,0,-.8,-.2,-1.1,-.4c0,0,-.3,-.2,-.4,-.5c0,0,-.2,-.3,-.2,-.7c0,0,0,-.6,.4,-1c0,0,.5,-.4,1.2,-.4c0,0,.5,0,.8,.1c0,0,.4,.2,.6,.5c0,0,.2,.3,.2,.8l-.7,.1c0,0,-.1,-.8,-.9,-.8c0,0,-.4,0,-.7,.2c0,0,-.2,.1,-.2,.4c0,0,0,.3,.2,.5c0,0,.2,.1,.8,.3c0,0,.9,.3,1.1,.4c0,0,.3,.2,.4,.5c0,0,.2,.3,.2,.7c0,0,0,.7,-.5,1.2c0,0,-.4,.4,-1.2,.4Zm10.1,0c0,0,-.9,0,-1.4,-.7c0,0,-.6,-.6,-.6,-1.9c0,0,0,-1.3,.6,-2c0,0,.6,-.7,1.4,-.7c0,0,.8,0,1.4,.6c0,0,.5,.7,.5,2v.3h-3.1c0,0,0,.8,.4,1.3c0,0,.3,.4,.8,.4c0,0,.8,0,1.2,-1.1l.7,.2c0,0,-.2,.8,-.7,1.2c0,0,-.4,.4,-1.2,.4Zm8,0c0,0,-.4,0,-.6,-.2c0,0,-.2,-.1,-.3,-.4c0,0,-.1,-.2,-.1,-1v-2.9h-.5v-.7h.5v-1.3l.7,-.5v1.8h.7v.7h-.7v3c0,0,0,.4,.1,.5c0,0,.1,.2,.3,.2c0,0,.2,0,.3,-.1l.1,.8c0,0,-.3,.1,-.5,.1Zm-28.6,-.1v-7.1h.7v2.6c0,0,.2,-.4,.5,-.6c0,0,.3,-.1,.7,-.1c0,0,.7,0,1.1,.4c0,0,.4,.4,.4,1.6v3.2h-.7v-3.2c0,0,0,-.7,-.3,-1c0,0,-.2,-.3,-.6,-.3c0,0,-.5,0,-.8,.4c0,0,-.3,.4,-.3,1.3v2.8Zm13.1,0v-7.1h.8l3.1,5.6v-5.6h.7v7.1h-.8l-3.1,-5.6v5.6Zm18,2.1c0,0,-.6,-.8,-1,-2.1c0,0,-.4,-1.2,-.4,-2.6c0,0,0,-2.3,1.4,-4.6h.5c0,0,-.6,1.1,-.8,1.8c0,0,-.2,.6,-.3,1.3c0,0,-.1,.8,-.1,1.5c0,0,0,2.4,1.2,4.7Zm1.1,0c0,0,1.2,-2.3,1.2,-4.7c0,0,0,-.7,-.2,-1.5c0,0,-.1,-.7,-.3,-1.3c0,0,-.2,-.7,-.7,-1.8h.5c0,0,1.4,2.3,1.4,4.6c0,0,0,1.4,-.4,2.6c0,0,-.4,1.2,-1,2.1Z"/></clipPath>
<clipPath id="cy_363"><path d="M151,789v-1.4h76.3V789Z"/></clipPath>
<clipPath id="cz_363"><path d="M212.6,787.9c0,0,.2,0,.5,-.2c0,0,.2,-.1,.3,-.4c0,0,.1,-.2,.1,-.9v-.3c0,0,-.2,.1,-.7,.3c0,0,-.6,.1,-.8,.3c0,0,-.1,.2,-.1,.5c0,0,0,.3,.2,.5c0,0,.2,.2,.5,.2Zm8.4,-.1c0,0,.5,0,.8,-.5c0,0,.3,-.4,.3,-1.3c0,0,0,-.8,-.3,-1.3c0,0,-.3,-.4,-.8,-.4c0,0,-.5,0,-.8,.4c0,0,-.3,.5,-.3,1.3c0,0,0,.9,.3,1.3c0,0,.3,.5,.8,.5Zm-52.9,-2.3c0,0,0,-.6,-.3,-1c0,0,-.2,-.3,-.6,-.3c0,0,-.4,0,-.7,.4c0,0,-.2,.3,-.2,.9Zm15.9,0c0,0,0,-.6,-.3,-1c0,0,-.3,-.3,-.6,-.3c0,0,-.4,0,-.7,.4c0,0,-.3,.3,-.3,.9Zm21.3,0c0,0,0,-.6,-.3,-1c0,0,-.3,-.3,-.6,-.3c0,0,-.4,0,-.7,.4c0,0,-.3,.3,-.2,.9Zm-47.9,3.3v-5.6h1.2v5.6Zm35.7,.2c0,0,-.4,0,-.8,-.3c0,0,-.3,-.2,-.5,-.6c0,0,-.2,-.5,-.2,-1.3v-3.6h1.2v2.6c0,0,0,1.1,.1,1.4c0,0,0,.3,.2,.5c0,0,.2,.1,.5,.1c0,0,.3,0,.6,-.2c0,0,.2,-.2,.3,-.5c0,0,.1,-.4,.1,-1.5v-2.4h1.2v5.6h-1.1V788c0,0,-.3,.5,-.7,.7c0,0,-.4,.3,-.9,.3Zm-33.2,-.2v-5.6H161v.8c0,0,.3,-.5,.7,-.7c0,0,.4,-.2,.9,-.2c0,0,.5,0,.9,.2c0,0,.3,.3,.5,.8c0,0,.1,.4,.1,1.2v3.5h-1.2V786c0,0,0,-.9,-.1,-1.2c0,0,0,-.3,-.2,-.4c0,0,-.2,-.2,-.5,-.2c0,0,-.3,0,-.5,.2c0,0,-.3,.2,-.4,.6c0,0,-.1,.3,-.1,1.3v2.5Zm7.3,.2c0,0,-1,0,-1.5,-.7c0,0,-.7,-.8,-.7,-2.2c0,0,0,-1.5,.7,-2.3c0,0,.5,-.7,1.4,-.7c0,0,1,0,1.6,.7c0,0,.6,.8,.6,2.5v.2h-3c0,0,0,.6,.3,1c0,0,.2,.4,.7,.4c0,0,.5,0,.7,-.8l1.3,.2c0,0,-.3,.9,-.8,1.3c0,0,-.5,.4,-1.3,.4Zm3.1,-.2v-5.6h1.1v.8c0,0,.3,-.6,.5,-.7c0,0,.3,-.2,.6,-.2c0,0,.4,0,.8,.3l-.4,1.3c0,0,-.3,-.3,-.6,-.3c0,0,-.2,0,-.4,.2c0,0,-.2,.2,-.3,.7c0,0,-.1,.5,-.1,1.8v1.7Zm12.8,.2c0,0,-1,0,-1.6,-.7c0,0,-.6,-.8,-.6,-2.2c0,0,0,-1.5,.6,-2.3c0,0,.6,-.7,1.5,-.7c0,0,1,0,1.5,.7c0,0,.7,.8,.7,2.5v.2h-3.1c0,0,0,.6,.3,1c0,0,.3,.4,.7,.4c0,0,.6,0,.8,-.8l1.2,.2c0,0,-.2,.9,-.7,1.3c0,0,-.6,.4,-1.3,.4Zm3.1,-.2v-5.6h1.1v.8c0,0,.3,-.5,.7,-.7c0,0,.4,-.2,.8,-.2c0,0,.6,0,.9,.2c0,0,.4,.3,.6,.8c0,0,.1,.4,.1,1.2v3.5h-1.2V786c0,0,0,-.9,-.1,-1.2c0,0,-.1,-.3,-.3,-.4c0,0,-.1,-.2,-.4,-.2c0,0,-.3,0,-.5,.2c0,0,-.3,.2,-.4,.6c0,0,-.1,.3,-.1,1.3v2.5Zm18.2,.2c0,0,-1,0,-1.6,-.7c0,0,-.6,-.8,-.6,-2.2c0,0,0,-1.5,.6,-2.3c0,0,.6,-.7,1.5,-.7c0,0,1,0,1.6,.7c0,0,.6,.8,.6,2.5v.2h-3.1c0,0,0,.6,.3,1c0,0,.3,.4,.7,.4c0,0,.6,0,.8,-.8l1.2,.2c0,0,-.2,.9,-.7,1.3c0,0,-.5,.4,-1.3,.4Zm3,-.2v-5.6h1.2v.8c0,0,.3,-.6,.5,-.7c0,0,.2,-.2,.5,-.2c0,0,.5,0,.8,.3l-.3,1.3c0,0,-.3,-.3,-.6,-.3c0,0,-.3,0,-.5,.2c0,0,-.2,.2,-.2,.7c0,0,-.1,.5,-.1,1.8v1.7Zm4.8,.2c0,0,-.7,0,-1.1,-.5c0,0,-.5,-.4,-.5,-1.2c0,0,0,-.5,.2,-.8c0,0,.2,-.4,.5,-.6c0,0,.3,-.2,1,-.4c0,0,.9,-.2,1.2,-.3c0,0,0,-.5,0,-.7c0,0,-.1,-.1,-.3,-.2c0,0,-.2,-.1,-.5,-.1c0,0,-.3,0,-.5,.2c0,0,-.2,.1,-.3,.5l-1.1,-.2c0,0,.2,-.9,.6,-1.3c0,0,.5,-.3,1.4,-.3c0,0,.8,0,1.2,.2c0,0,.4,.2,.5,.6c0,0,.2,.4,.2,1.3V787c0,0,0,.7,.1,1.1c0,0,0,.3,.2,.7h-1.2l-.2,-.6c0,0,-.3,.4,-.7,.6c0,0,-.3,.2,-.7,.2Zm8.8,0c0,0,-1,0,-1.7,-.8c0,0,-.7,-.8,-.7,-2.3c0,0,0,-.8,.3,-1.5c0,0,.4,-.6,.9,-1c0,0,.5,-.3,1.2,-.3c0,0,1.1,0,1.8,.8c0,0,.6,.9,.6,2.1c0,0,0,.9,-.3,1.6c0,0,-.4,.7,-.9,1c0,0,-.6,.4,-1.2,.4Zm3.3,-.2v-5.6h1.1v.8c0,0,.3,-.6,.6,-.7c0,0,.2,-.2,.5,-.2c0,0,.4,0,.8,.3l-.4,1.3c0,0,-.3,-.3,-.6,-.3c0,0,-.2,0,-.4,.2c0,0,-.2,.2,-.3,.7c0,0,-.1,.5,-.1,1.8v1.7Zm-71.1,-1.3c0,0,.7,0,.9,-.1c0,0,.3,-.1,.5,-.3c0,0,.2,-.3,.3,-.8c0,0,.1,-.5,.1,-1.3c0,0,0,-.9,-.1,-1.4c0,0,-.1,-.5,-.4,-.8c0,0,-.2,-.3,-.6,-.4c0,0,-.3,0,-1,0h-.6v5.1Zm47.6,1.5c0,0,-.4,0,-.7,-.2c0,0,-.3,-.3,-.4,-.7c0,0,-.1,-.3,-.1,-1.2v-2.5h-.5v-1.2h.5v-1.1l1.2,-.9v2h.9v1.2h-.9v2.3c0,0,0,.7,.1,.8c0,0,.1,.2,.3,.2c0,0,.2,0,.5,-.1l.1,1.2c0,0,-.4,.2,-1,.2Zm16.4,0c0,0,-.5,0,-.8,-.2c0,0,-.2,-.3,-.3,-.7c0,0,-.1,-.3,-.1,-1.2v-2.5h-.6v-1.2h.6v-1.1l1.2,-.9v2h.8v1.2h-.8v2.3c0,0,0,.7,0,.8c0,0,.1,.2,.4,.2c0,0,.1,0,.4,-.1l.1,1.2c0,0,-.4,.2,-.9,.2ZM151,788.8v-7.7h2.3c0,0,.9,0,1.4,.2c0,0,.4,.2,.8,.6c0,0,.4,.5,.6,1.3c0,0,.2,.7,.2,1.8c0,0,0,1,-.2,1.8c0,0,-.2,.7,-.6,1.2c0,0,-.3,.4,-.8,.6c0,0,-.5,.2,-1.3,.2Zm6.4,-6.4v-1.3h1.2v1.3Zm16.4,6.4v-7.7h1.9l1.2,5.3l1.1,-5.3h2v7.7h-1.2v-6.1l-1.3,6.1h-1.3L175,782.7v6.1Zm23.3,0v-7.7h1.2v7.7Z"/></clipPath>
<clipPath id="c10_363"><path d="M548,940.8V777.9H729.9V940.8Z"/></clipPath>
<clipPath id="c11_363"><path d="M-2.6,1047.7V-2.6H910.2V1047.7Z"/></clipPath>
<style type="text/css"><![CDATA[
.g0_363{
fill: #FFFFFF;
}
.g1_363{
}
.g2_363{
fill: none;
stroke: #000000;
stroke-width: 0.656;
stroke-linecap: butt;
stroke-linejoin: miter;
stroke-miterlimit: 4;
}
.g3_363{
fill: none;
stroke: #636363;
stroke-width: 1.527;
stroke-linecap: butt;
stroke-linejoin: miter;
stroke-miterlimit: 4;
}
.g4_363{
fill: none;
stroke: #000000;
stroke-width: 1.164;
stroke-linecap: butt;
stroke-linejoin: miter;
stroke-miterlimit: 4;
}
.g5_363{
fill: none;
stroke: #000000;
stroke-width: 1.145;
stroke-linecap: butt;
stroke-linejoin: miter;
stroke-miterlimit: 4;
}
.g6_363{
fill: none;
stroke: #FFFFFF;
stroke-width: 1.909;
stroke-linecap: butt;
stroke-linejoin: miter;
}
.g7_363{
fill: none;
stroke: #000000;
stroke-width: 0.381;
stroke-linecap: butt;
stroke-linejoin: miter;
}
]]></style>
</defs>
<image clip-path="url(#c1_363)" preserveAspectRatio="none" x="128" y="319" width="136" height="89" xlink:href="img/1.jpg"/>
<image clip-path="url(#c2_363)" preserveAspectRatio="none" x="134" y="324" width="116" height="70" xlink:href="img/2.jpg"/>
<path d="M134.6,324.7V393H249.4V324.7H134.6Z" class="g0_363"/>
<path d="M134.6,324.7h-.3v68.5H249.6V324.5H134.3v.2h.3v.3H249.4v-.3h-.3V393h.3v-.2H134.6v.2h.2V324.7h-.2v.3v-.3Z" class="g1_363"/>
<image clip-path="url(#c3_363)" preserveAspectRatio="none" x="132" y="348" width="130" height="20" xlink:href="img/3.jpg"/>
<image clip-path="url(#c4_363)" preserveAspectRatio="none" x="134" y="348" width="116" height="20" xlink:href="img/4.jpg"/>
<image clip-path="url(#c5_363)" preserveAspectRatio="none" x="134" y="348" width="116" height="20" xlink:href="img/5.jpg"/>
<image clip-path="url(#c6_363)" preserveAspectRatio="none" x="134" y="348" width="116" height="20" xlink:href="img/6.jpg"/>
<image clip-path="url(#c7_363)" preserveAspectRatio="none" x="140" y="362" width="35" height="6" xlink:href="img/7.jpg"/>
<image clip-path="url(#c8_363)" preserveAspectRatio="none" x="140" y="362" width="35" height="6" xlink:href="img/8.jpg"/>
<image clip-path="url(#c9_363)" preserveAspectRatio="none" x="176" y="348" width="32" height="2" xlink:href="img/9.jpg"/>
<image clip-path="url(#ca_363)" preserveAspectRatio="none" x="176" y="348" width="32" height="2" xlink:href="img/10.jpg"/>
<path d="M134.5,353.5h116" class="g2_363"/>
<path d="M324.4,321.9c-.6,3.4,-4,6.4,-5.9,9c-3.2,4.3,-6.5,8.9,-10.6,12.4c-5.8,4.9,-12,11.2,-19.1,14.3c-2,.8,-3.9,1.3,-5.9,2c-2.6,.8,-5.2,1.9,-7.8,2.6c-1,.3,-1.9,0,-2.8,.2c-1.3,.2,-2.1,1,-3.5,1.1c-.6,0,-1.4,-.2,-1.9,-.1c-.7,.2,-1.3,1,-1.9,.6c-.1,-1.8,4,-2.4,4.6,-4.1c-1.2,1,-2.5,1.8,-3.7,2.8c-.9,.8,-2.7,1.7,-2,2.8c-.1,-.2,1.7,.7,1.6,.6c.7,.4,1.2,.3,1.9,.6c.9,.3,1.2,.8,2.2,.9c.9,.1,1.7,-.2,2.5,.1c-.1,.8,.7,1.6,1.4,1.6m55,37.7c0,-.9,.2,-1.8,-.1,-2.7c-.7,-1.6,-2.6,-2.6,-3.8,-3.7c-3.2,-2.8,-6.7,-5.6,-10.7,-7.2C307.5,390.8,300.8,389,294,388c-1.5,-.2,-2.8,-1,-4.3,-1.2c-1.8,-.3,-3.5,-.7,-5.2,-1c-1.9,-.3,-3.8,-.2,-5.7,-.4c-1.8,-.2,-3.6,.1,-5.5,0c-1.3,-.1,-2.5,-.8,-3.8,-.8c.2,-2.4,4.9,-1.9,6.3,-3.4c-1.8,-.1,-4.5,.8,-6.1,1.5c-.5,.3,-3.9,2.2,-4,3c0,.2,.2,.7,.4,.9c.6,.1,1.1,.3,1.6,.6c1.1,.5,2.2,1.1,3.3,1.7c2.3,1.2,4.6,2.3,7,3.3m-3.5,374.4c-2,-10.8,-8.4,-21.3,-21.3,-20.1c-5.3,.6,-14.2,5.5,-15.5,11.4c-.4,-2.1,.9,-5.4,-1,-7c-1.6,3.2,-1.2,8.4,-.7,11.7c2.6,-1.9,5.4,-3.1,8.4,-4.2" class="g3_363"/>
<image clip-path="url(#cb_363)" preserveAspectRatio="none" x="124" y="621" width="136" height="90" xlink:href="img/11.jpg"/>
<image clip-path="url(#cc_363)" preserveAspectRatio="none" x="130" y="626" width="116" height="70" xlink:href="img/12.jpg"/>
<image clip-path="url(#cd_363)" preserveAspectRatio="none" x="186" y="707" width="2" height="2" xlink:href="img/13.jpg"/>
<image clip-path="url(#ce_363)" preserveAspectRatio="none" x="186" y="703" width="2" height="2" xlink:href="img/14.jpg"/>
<path d="M130.5,626.8v68.3H245.3V626.8H130.5Z" class="g0_363"/>
<path d="M130.5,626.8h-.2v68.6H245.5V626.6H130.3v.2h.2v.3H245.3v-.3H245v68.3h.3v-.2H130.5v.2h.2V626.8h-.2v.3v-.3Z" class="g1_363"/>
<image clip-path="url(#cf_363)" preserveAspectRatio="none" x="127" y="650" width="131" height="20" xlink:href="img/15.jpg"/>
<image clip-path="url(#cg_363)" preserveAspectRatio="none" x="130" y="650" width="116" height="20" xlink:href="img/16.jpg"/>
<image clip-path="url(#ch_363)" preserveAspectRatio="none" x="130" y="650" width="116" height="20" xlink:href="img/17.jpg"/>
<image clip-path="url(#ci_363)" preserveAspectRatio="none" x="130" y="650" width="116" height="20" xlink:href="img/18.jpg"/>
<image clip-path="url(#cj_363)" preserveAspectRatio="none" x="136" y="664" width="35" height="6" xlink:href="img/19.jpg"/>
<image clip-path="url(#ck_363)" preserveAspectRatio="none" x="136" y="664" width="35" height="6" xlink:href="img/20.jpg"/>
<image clip-path="url(#cl_363)" preserveAspectRatio="none" x="172" y="650" width="32" height="2" xlink:href="img/21.jpg"/>
<image clip-path="url(#cm_363)" preserveAspectRatio="none" x="172" y="650" width="32" height="2" xlink:href="img/22.jpg"/>
<path d="M130.5,655.6H246.4" class="g2_363"/>
<path d="M186.4,810.6c0,-.3,.3,-.5,.6,-.5c.4,0,.6,.2,.6,.5c0,.4,-.2,.6,-.6,.6c-.3,0,-.6,-.2,-.6,-.6m0,-3.5c0,-.3,.3,-.6,.6,-.6c.4,0,.6,.3,.6,.6c0,.3,-.2,.6,-.6,.6c-.3,0,-.6,-.3,-.6,-.6m.1,-3.5c0,-.4,.2,-.6,.5,-.6c.4,0,.6,.2,.6,.6c0,.3,-.2,.5,-.6,.5c-.3,0,-.5,-.2,-.5,-.5m0,-3.6c0,-.3,.2,-.6,.5,-.6c.4,0,.6,.3,.6,.6c0,.3,-.2,.6,-.6,.6c-.3,0,-.5,-.3,-.5,-.6m0,-3.5c0,-.4,.2,-.6,.6,-.6c.3,0,.5,.2,.5,.6c0,.3,-.2,.5,-.5,.5c-.4,0,-.6,-.2,-.6,-.5m0,-3.6c0,-.3,.2,-.6,.6,-.6c.3,0,.5,.3,.5,.6c0,.3,-.2,.6,-.5,.6c-.4,0,-.6,-.3,-.6,-.6m0,-3.5c0,-.3,.2,-.6,.6,-.6c.3,0,.5,.3,.5,.6c0,.3,-.2,.6,-.5,.6c-.4,0,-.6,-.3,-.6,-.6m0,-3.6c0,-.3,.2,-.5,.6,-.5c.3,0,.5,.2,.5,.5c0,.4,-.2,.6,-.5,.6c-.4,0,-.6,-.2,-.6,-.6m0,-3.5c0,-.3,.2,-.6,.6,-.6c.3,0,.5,.3,.5,.6c0,.3,-.2,.6,-.5,.6c-.4,0,-.6,-.3,-.6,-.6m0,-3.6c0,-.3,.2,-.5,.6,-.5c.3,0,.6,.2,.6,.5c0,.4,-.3,.6,-.6,.6c-.4,0,-.6,-.2,-.6,-.6m0,-3.5c0,-.3,.2,-.6,.6,-.6c.3,0,.6,.3,.6,.6c0,.3,-.3,.6,-.6,.6c-.4,0,-.6,-.3,-.6,-.6m0,-3.5c0,-.4,.3,-.6,.6,-.6c.3,0,.6,.2,.6,.6c0,.3,-.3,.5,-.6,.5c-.3,0,-.6,-.2,-.6,-.5m0,-3.6c0,-.3,.3,-.6,.6,-.6c.3,0,.6,.3,.6,.6c0,.3,-.3,.6,-.6,.6c-.3,0,-.6,-.3,-.6,-.6m0,-3.5c0,-.4,.3,-.6,.6,-.6c.3,0,.6,.2,.6,.6c0,.3,-.3,.5,-.6,.5c-.3,0,-.6,-.2,-.6,-.5m0,-3.6c0,-.3,.3,-.6,.6,-.6c.3,0,.6,.3,.6,.6c0,.3,-.3,.6,-.6,.6c-.3,0,-.6,-.3,-.6,-.6m0,-3.5c0,-.4,.3,-.6,.6,-.6c.3,0,.6,.2,.6,.6c0,.3,-.3,.6,-.6,.6c-.3,0,-.6,-.3,-.6,-.6m0,-3.6c0,-.3,.3,-.5,.6,-.5c.3,0,.6,.2,.6,.5c0,.3,-.3,.6,-.6,.6c-.3,0,-.6,-.3,-.6,-.6m0,-3.5c0,-.3,.3,-.6,.6,-.6c.3,0,.6,.3,.6,.6c0,.3,-.3,.6,-.6,.6c-.3,0,-.6,-.3,-.6,-.6m0,-3.6c0,-.3,.3,-.5,.6,-.5c.3,0,.6,.2,.6,.5c0,.4,-.3,.6,-.6,.6c-.3,0,-.6,-.2,-.6,-.6m0,-3.5c0,-.3,.3,-.6,.6,-.6c.3,0,.6,.3,.6,.6c0,.3,-.3,.6,-.6,.6c-.3,0,-.6,-.3,-.6,-.6m0,-3.5c0,-.4,.3,-.6,.6,-.6c.4,0,.6,.2,.6,.6c0,.3,-.2,.5,-.6,.5c-.3,0,-.6,-.2,-.6,-.5m0,-3.6c0,-.3,.3,-.6,.6,-.6c.4,0,.6,.3,.6,.6c0,.3,-.2,.6,-.6,.6c-.3,0,-.6,-.3,-.6,-.6m.1,-3.5c0,-.4,.2,-.6,.5,-.6c.4,0,.6,.2,.6,.6c0,.3,-.2,.5,-.6,.5c-.3,0,-.5,-.2,-.5,-.5m0,-3.6c0,-.3,.2,-.6,.5,-.6c.4,0,.6,.3,.6,.6c0,.3,-.2,.6,-.6,.6c-.3,0,-.5,-.3,-.5,-.6m0,-3.5c0,-.4,.2,-.6,.5,-.6c.4,0,.6,.2,.6,.6c0,.3,-.2,.6,-.6,.6c-.3,0,-.5,-.3,-.5,-.6m0,-3.6c0,-.3,.2,-.6,.5,-.6c.4,.1,.6,.3,.6,.6c0,.3,-.2,.6,-.6,.6c-.3,0,-.5,-.3,-.5,-.6m0,-3.5c0,-.3,.2,-.6,.5,-.6c.4,0,.6,.3,.6,.6c0,.3,-.2,.6,-.6,.6c-.3,0,-.5,-.3,-.5,-.6m0,-3.6c0,-.3,.2,-.5,.6,-.5c.3,0,.5,.2,.5,.5c0,.4,-.2,.6,-.5,.6c-.4,0,-.6,-.2,-.6,-.6m0,-3.5c0,-.3,.2,-.6,.6,-.6c.3,0,.5,.3,.5,.6c0,.3,-.2,.6,-.5,.6c-.4,0,-.6,-.3,-.6,-.6m0,-3.5c0,-.4,.2,-.6,.6,-.6c.3,0,.6,.2,.6,.6c0,.3,-.3,.5,-.6,.5c-.4,0,-.6,-.2,-.6,-.5Z" class="g1_363"/>
<path d="M187,814.8c-.3,0,-.6,-.3,-.6,-.6c0,-.3,.3,-.6,.6,-.6c.3,0,.6,.3,.6,.6c0,.3,-.3,.6,-.6,.6m.2,-109.9c-.4,0,-.6,-.3,-.6,-.6c0,-.3,.2,-.6,.6,-.6c.3,0,.6,.3,.6,.6c0,.3,-.3,.6,-.6,.6Z" class="g1_363"/>
<path d="M186.8,698.2l8,7.6H179.7l7.1,-7.6Z" class="g0_363"/>
<path d="M186.8,698.2l8,7.6H179.7l7.1,-7.6Z" class="g4_363"/>
<image clip-path="url(#cn_363)" preserveAspectRatio="none" x="124" y="769" width="136" height="81" xlink:href="img/23.jpg"/>
<image clip-path="url(#co_363)" preserveAspectRatio="none" x="186" y="771" width="2" height="4" xlink:href="img/24.jpg"/>
<image clip-path="url(#cp_363)" preserveAspectRatio="none" x="130" y="774" width="116" height="14" xlink:href="img/25.jpg"/>
<image clip-path="url(#cq_363)" preserveAspectRatio="none" x="186" y="774" width="2" height="2" xlink:href="img/26.jpg"/>
<image clip-path="url(#cr_363)" preserveAspectRatio="none" x="130" y="807" width="116" height="28" xlink:href="img/27.jpg"/>
<path d="M130.5,775.1v59.8H245.3V775.1H130.5Z" class="g0_363"/>
<path d="M130.5,775.1h-.2v60H245.5V774.9H130.3v.2h.2v.2H245.3v-.2H245v59.8h.3v-.3H130.5v.3h.2V775.1h-.2v.2v-.2Z" class="g1_363"/>
<image clip-path="url(#cs_363)" preserveAspectRatio="none" x="127" y="787" width="130" height="21" xlink:href="img/28.jpg"/>
<image clip-path="url(#ct_363)" preserveAspectRatio="none" x="130" y="787" width="116" height="21" xlink:href="img/29.jpg"/>
<image clip-path="url(#cu_363)" preserveAspectRatio="none" x="130" y="787" width="116" height="21" xlink:href="img/30.jpg"/>
<image clip-path="url(#cv_363)" preserveAspectRatio="none" x="130" y="787" width="116" height="21" xlink:href="img/31.jpg"/>
<image clip-path="url(#cw_363)" preserveAspectRatio="none" x="135" y="801" width="35" height="7" xlink:href="img/32.jpg"/>
<image clip-path="url(#cx_363)" preserveAspectRatio="none" x="135" y="801" width="35" height="7" xlink:href="img/33.jpg"/>
<image clip-path="url(#cy_363)" preserveAspectRatio="none" x="151" y="787" width="77" height="2" xlink:href="img/34.jpg"/>
<image clip-path="url(#cz_363)" preserveAspectRatio="none" x="151" y="787" width="77" height="2" xlink:href="img/35.jpg"/>
<path d="M130.5,793.2H245.4" class="g2_363"/>
<path d="M669.7,745.2c-.1,-.3,-.1,-.7,-.2,-1c-6.2,-2,-4.1,13.8,3.3,8.5c7.3,-5.2,-3.7,-10.8,-5.3,-6.4Z" class="g0_363"/>
<path d="M669.7,745.2c-.1,-.3,-.1,-.7,-.2,-1c-6.2,-2,-4.1,13.8,3.3,8.5c7.3,-5.2,-3.7,-10.8,-5.3,-6.4" class="g5_363"/>
<path d="M669.5,760c-3.2,.7,-2.7,4,-2.2,6.4c1.5,.7,3,1.1,4.5,1.1c.6,-2.7,.7,-7,-3.5,-6.4Z" class="g0_363"/>
<path d="M669.5,760c-3.2,.7,-2.7,4,-2.2,6.4c1.5,.7,3,1.1,4.5,1.1c.6,-2.7,.7,-7,-3.5,-6.4" class="g5_363"/>
<path d="M552.6,591.6c-3.2,1.2,-6.1,3.3,-8.9,4.5c-3.1,1.3,-4.9,1,-8,4c-2.3,2.3,-2.7,4.2,-5.9,5.1c-.9,5.5,-.4,9.7,2.4,14.3c1.7,2.8,7.6,10.3,10.9,10.5c-4,7.5,-8.9,14.5,-5,23.5c1.5,3.7,6.6,12.5,10.3,14.5c3.5,1.9,8.9,0,12.6,.7c.6,3.4,-.6,7.2,.4,10.5c1.6,5.3,6.9,11.3,10.4,15.3c7.8,9,27.8,24.7,38.6,14.4c4.2,10.3,14.6,19.4,24.9,23.5c7,2.7,21.3,4.6,28.4,1.8c4.4,-1.8,8.4,-8.9,12.9,-9.8c2.1,-.3,9.4,4.4,11.5,4.9c10,2,22.5,1.9,32.4,-.3c14.4,-3.1,21.6,-14.8,25.8,-27.9c3.2,6.9,21,1.3,25.8,-1.3c9.2,-4.9,18.9,-12.4,22.5,-22.9c2.7,-7.7,-5.1,-15.5,-3.1,-21.5c1,-2.9,3.9,-4.6,5.5,-7.1c8.4,-13.7,4.8,-27.2,-2.8,-40c-8,-13.6,-18.5,-22.6,-33.7,-27.2c-3.9,-1.2,-7.4,-1.9,-11.5,-1.7c-2.3,.1,-3.3,1.4,-5.6,.9c11.5,-15,-28.7,-28.3,-35.9,-29.5c-18,-3.2,-39,.2,-55.9,6.5c-8,3.1,-15.8,7.6,-23.4,10.7c1.4,-16.3,-28.4,-11.1,-36.2,-8.7c-9.4,2.9,-21.2,8.8,-26.8,17c-3.5,5.1,-5.2,11.5,-8.2,16.8Z" class="g0_363"/>
<path d="M552.6,591.6c-3.2,1.2,-6.1,3.3,-8.9,4.5c-3.1,1.3,-4.9,1,-8,4c-2.3,2.3,-2.7,4.2,-5.9,5.1c-.9,5.5,-.4,9.7,2.4,14.3c1.7,2.8,7.6,10.3,10.9,10.5c-4,7.5,-8.9,14.5,-5,23.5c1.5,3.7,6.6,12.5,10.3,14.5c3.5,1.9,8.9,0,12.6,.7c.6,3.4,-.6,7.2,.4,10.5c1.6,5.3,6.9,11.3,10.4,15.3c7.8,9,27.8,24.7,38.6,14.4c4.2,10.3,14.6,19.4,24.9,23.5c7,2.7,21.3,4.6,28.4,1.8c4.4,-1.8,8.4,-8.9,12.9,-9.8c2.1,-.3,9.4,4.4,11.5,4.9c10,2,22.5,1.9,32.4,-.3c14.4,-3.1,21.6,-14.8,25.8,-27.9c3.2,6.9,21,1.3,25.8,-1.3c9.2,-4.9,18.9,-12.4,22.5,-22.9c2.7,-7.7,-5.1,-15.5,-3.1,-21.5c1,-2.9,3.9,-4.6,5.5,-7.1c8.4,-13.7,4.8,-27.2,-2.8,-40c-8,-13.6,-18.5,-22.6,-33.7,-27.2c-3.9,-1.2,-7.4,-1.9,-11.5,-1.7c-2.3,.1,-3.3,1.4,-5.6,.9c11.5,-15,-28.7,-28.3,-35.9,-29.5c-18,-3.2,-39,.2,-55.9,6.5c-8,3.1,-15.8,7.6,-23.4,10.7c1.4,-16.3,-28.4,-11.1,-36.2,-8.7c-9.4,2.9,-21.2,8.8,-26.8,17c-3.5,5.1,-5.2,11.5,-8.2,16.8" class="g5_363"/>
<g clip-path="url(#c10_363)">
<image clip-path="url(#c0_363)" preserveAspectRatio="none" x="548" y="778" width="182" height="163" xlink:href="img/36.jpg"/>
</g>
<g clip-path="url(#c11_363)">
<path d="M-4.5,13.7H-27.4m939.5,0H935M-4.5,1031.2H-27.4m939.5,0H935M13.7,-4.5V-27.4m0,1077v22.9m880,-1077V-27.4m0,1077v22.9" class="g6_363"/>
<path d="M-4.5,13.7H-27.4m939.5,0H935M-4.5,1031.2H-27.4m939.5,0H935M13.7,-4.5V-27.4m0,1077v22.9m880,-1077V-27.4m0,1077v22.9" class="g7_363"/>
</g>
</svg>