<?xml version="1.0" encoding="UTF-8" standalone="no"?>
<!DOCTYPE svg PUBLIC "-//W3C//DTD SVG 1.1//EN"
"http://www.w3.org/Graphics/SVG/1.1/DTD/svg11.dtd">
<svg viewBox="0 0 935 1210" version="1.1" xmlns="http://www.w3.org/2000/svg" xmlns:xlink="http://www.w3.org/1999/xlink">
<defs>
<clipPath id="c0_593"><path d="M42.8,1168.2V41.8H892.2V1168.2Z"/></clipPath>
<style type="text/css"><![CDATA[
.g0_593{
fill: #D9D9D9;
}
.g1_593{
}
]]></style>
</defs>
<path d="M93.4,796.4H855.9V836H93.4V796.4Z" class="g0_593"/>
<path d="M93.4,836H855.9v39.6H93.4V836Z" class="g0_593"/>
<path d="M93.4,875.6H855.9v39.6H93.4V875.6Z" class="g0_593"/>
<path d="M93.4,915.2H855.9v39.6H93.4V915.2Z" class="g0_593"/>
<path d="M93.4,954.8H855.9v39.6H93.4V954.8Z" class="g0_593"/>
<path d="M93.4,954.8H857v1.1H93.4v-1.1Z" class="g1_593"/>
<path d="M93.4,994.4H857v1.1H93.4v-1.1Z" class="g1_593"/>
<path d="M93.4,954.8h1.1v40.7H93.4V954.8Z" class="g1_593"/>
<path d="M855.9,954.8H857v40.7h-1.1V954.8Z" class="g1_593"/>
<path d="M93.4,915.2H857v1.1H93.4v-1.1Z" class="g1_593"/>
<path d="M93.4,954.8H857v1.1H93.4v-1.1Z" class="g1_593"/>
<path d="M93.4,915.2h1.1v40.7H93.4V915.2Z" class="g1_593"/>
<path d="M855.9,915.2H857v40.7h-1.1V915.2Z" class="g1_593"/>
<path d="M93.4,875.6H857v1.1H93.4v-1.1Z" class="g1_593"/>
<path d="M93.4,915.2H857v1.1H93.4v-1.1Z" class="g1_593"/>
<path d="M93.4,875.6h1.1v40.7H93.4V875.6Z" class="g1_593"/>
<path d="M855.9,875.6H857v40.7h-1.1V875.6Z" class="g1_593"/>
<path d="M93.4,836H857v1.1H93.4V836Z" class="g1_593"/>
<path d="M93.4,875.6H857v1.1H93.4v-1.1Z" class="g1_593"/>
<path d="M93.4,836h1.1v40.7H93.4V836Z" class="g1_593"/>
<path d="M855.9,836H857v40.7h-1.1V836Z" class="g1_593"/>
<path d="M93.4,796.4H857v1.1H93.4v-1.1Z" class="g1_593"/>
<path d="M93.4,836H857v1.1H93.4V836Z" class="g1_593"/>
<path d="M93.4,796.4h1.1v40.7H93.4V796.4Z" class="g1_593"/>
<path d="M855.9,796.4H857v40.7h-1.1V796.4Z" class="g1_593"/>
<g clip-path="url(#c0_593)">
<image preserveAspectRatio="none" x="43" y="42" width="849" height="501" xlink:href="img/1.jpg"/>
<image preserveAspectRatio="none" x="263" y="619" width="235" height="100" xlink:href="img/2.jpg"/>
</g>
</svg>