<?xml version="1.0" encoding="UTF-8" standalone="no"?>
<!DOCTYPE svg PUBLIC "-//W3C//DTD SVG 1.1//EN"
"http://www.w3.org/Graphics/SVG/1.1/DTD/svg11.dtd">
<svg viewBox="0 0 660 990" version="1.1" xmlns="http://www.w3.org/2000/svg" xmlns:xlink="http://www.w3.org/1999/xlink">
<defs>
<clipPath id="c0_113"><path d="M85.6,176.7V172h45.6v4.7Z"/></clipPath>
<clipPath id="c1_113"><path d="M130.9,176.7V172h45.7v4.7Z"/></clipPath>
<clipPath id="c2_113"><path d="M176.3,176.7V172h45.6v4.7Z"/></clipPath>
<clipPath id="c3_113"><path d="M85.6,915.9v-5.1H574.4v5.1Z"/></clipPath>
<style type="text/css"><![CDATA[
.g0_113{
fill: #231F20;
}
.g1_113{
fill: none;
stroke: #231F20;
stroke-width: 0.381;
stroke-linecap: round;
stroke-linejoin: miter;
}
.g2_113{
fill: #FFFFFF;
}
.g3_113{
fill: none;
stroke: #231F20;
stroke-width: 0.763;
stroke-linecap: round;
stroke-linejoin: miter;
}
]]></style>
</defs>
<path fill-rule="evenodd" d="M85.6,77H131V99H85.6V77Z" class="g0_113"/>
<path fill-rule="evenodd" d="M131,77h45.5V99H131V77Z" class="g0_113"/>
<path fill-rule="evenodd" d="M176.5,77h45.4V99H176.5V77Z" class="g0_113"/>
<path clip-path="url(#c0_113)" d="M131.2,174.4H85.6" class="g1_113"/>
<path clip-path="url(#c1_113)" d="M176.6,174.4H130.9" class="g1_113"/>
<path clip-path="url(#c2_113)" d="M221.9,174.4H176.3" class="g1_113"/>
<path fill-rule="evenodd" d="M597.3,913H660v77H597.3V913Z" class="g2_113"/>
<path fill-rule="evenodd" d="M597.3,446.6H660V539H597.3V446.6Z" class="g0_113"/>
<path fill-rule="evenodd" d="M597.3,0H660V77H597.3V0Z" class="g2_113"/>
<path clip-path="url(#c3_113)" d="M85.6,913.4H574.4" class="g3_113"/>
</svg>