<?xml version="1.0" encoding="UTF-8" standalone="no"?>
<!DOCTYPE svg PUBLIC "-//W3C//DTD SVG 1.1//EN"
"http://www.w3.org/Graphics/SVG/1.1/DTD/svg11.dtd">
<svg viewBox="0 0 931 1096" version="1.1" xmlns="http://www.w3.org/2000/svg" xmlns:xlink="http://www.w3.org/1999/xlink">
<defs>
<clipPath id="c0_254"><path d="M453.2,116.6V99.1h49.7v17.5Z"/></clipPath>
<clipPath id="c1_254"><path d="M537.6,316.4V299.2H627v17.2Z"/></clipPath>
<clipPath id="c2_254"><path d="M383.2,558.2V525H727.5v33.2Z"/></clipPath>
<clipPath id="c3_254"><path d="M178.4,205.1V189.5h61.1v15.6Z"/></clipPath>
<clipPath id="c4_254"><path d="M53.5,798.6v-155H241.7v155Z"/></clipPath>
<style type="text/css"><![CDATA[
.g0_254{
fill: none;
stroke: #241F1F;
stroke-width: 0.458;
stroke-miterlimit: 10;
}
.g1_254{
fill: none;
stroke: #241F1F;
stroke-width: 0.763;
stroke-miterlimit: 10;
}
.g2_254{
fill: #D0007A;
}
.g3_254{
fill: none;
stroke: #00AEEF;
stroke-width: 1.145;
}
.g4_254{
fill: none;
stroke: #0079C2;
stroke-width: 0.763;
}
.g5_254{
fill: none;
stroke: #EE008C;
stroke-width: 0.763;
stroke-linejoin: round;
}
.g6_254{
fill: none;
stroke: #00AEEF;
stroke-width: 0.763;
stroke-linejoin: round;
}
.g7_254{
fill: none;
stroke: #241F1F;
stroke-width: 0.611;
stroke-miterlimit: 3;
}
.g8_254{
fill: #241F1F;
}
.g9_254{
fill: none;
stroke: #241F1F;
stroke-width: 0.412;
stroke-miterlimit: 10;
}
.ga_254{
fill: #E8F6FE;
}
.gb_254{
fill: none;
stroke: #00AEEF;
stroke-width: 0.916;
stroke-linejoin: round;
}
.gc_254{
fill: #FFF;
}
.gd_254{
fill: none;
stroke: #00AEEF;
stroke-width: 0.763;
stroke-miterlimit: 3;
}
.ge_254{
fill: none;
stroke: #969698;
stroke-width: 0.763;
stroke-miterlimit: 3;
}
]]></style>
</defs>
<path clip-path="url(#c0_254)" d="M497.6,99.3h5.5" class="g0_254"/>
<path d="M493.5,163.5h5.6" class="g0_254"/>
<path d="M532.4,163.9h9.1M420.1,209.3h20.3m33.1,-8.7h9.9m14.3,8.7h12.2m59,0h34.9m-12.2,3.5h9.9m-122,50h27.3m-12.2,2.7h9.9m24.2,-2.7h33.4m-11.4,3.5h9.1" class="g1_254"/>
<path d="M609.4,254.4H615" class="g0_254"/>
<path d="M626.5,263.6H683m-23,3.5h9.9" class="g1_254"/>
<path d="M553.2,299.5h5.6" class="g0_254"/>
<path clip-path="url(#c1_254)" d="M621.7,299.5h5.5" class="g0_254"/>
<path d="M409.9,349.9h19.7" class="g1_254"/>
<path d="M453.4,340.7H459" class="g0_254"/>
<path d="M487.6,349.9h19.7" class="g1_254"/>
<path d="M530.4,340.7h5.5m58.5,0H600" class="g0_254"/>
<path d="M619.7,349.9h19.7m20.2,-8.7h9.9" class="g1_254"/>
<path d="M501.3,389.6h5.6" class="g0_254"/>
<path d="M519.1,398.8h56.5m-23,3.5h10" class="g1_254"/>
<path d="M288.8,434.3c0,0,-1.6,0,-1.6,1.5V445c0,0,0,1.5,1.6,1.5h9.1c0,0,1.6,0,1.6,-1.5v-9.2c0,0,0,-1.5,-1.6,-1.5Z" class="g2_254"/>
<path d="M463.9,542.4H572.3" class="g1_254"/>
<path clip-path="url(#c2_254)" d="M620.4,542.4H727.9" class="g1_254"/>
<path d="M463,588.2H571m48.1,0h12.2" class="g1_254"/>
<path d="M307.7,785.5c0,0,-1.6,0,-1.6,1.5v14.2c0,0,0,1.5,1.6,1.5h14.1c0,0,1.5,0,1.5,-1.5V787c0,0,0,-1.5,-1.5,-1.5H307.7Zm0,197.1c0,0,-1.6,0,-1.6,1.5v14.1c0,0,0,1.6,1.6,1.6h14.1c0,0,1.5,0,1.5,-1.6V984.1c0,0,0,-1.5,-1.5,-1.5H307.7Z" class="g3_254"/>
<path d="M591.4,991.5h12.2" class="g1_254"/>
<path d="M456.6,776.4c0,0,-3.1,0,-3.1,3.1v36.2c0,0,0,3.1,3.1,3.1H656c0,0,3,0,3,-3.1V779.5c0,0,0,-3.1,-3,-3.1H456.6ZM452,956.9c0,0,-3,0,-3,3v62.8c0,0,0,3.1,3,3.1H659.9c0,0,3.1,0,3.1,-3.1V959.9c0,0,0,-3,-3.1,-3H452Z" class="g4_254"/>
<path d="M238.7,243.4C144,379.2,75.3,312.8,75.6,393.9" class="g5_254"/>
<path d="M233.4,243.4C179.9,336.4,72,361.8,72,340.8l-.2,-10.3" class="g6_254"/>
<path d="M53.5,362.6H250.6" class="g7_254"/>
<path fill-rule="evenodd" d="M250.6,362.6l-1.7,-2.4l6.6,2.4l-6.6,2.4Z" class="g8_254"/>
<path d="M71.8,394.7V243.4" class="g7_254"/>
<path fill-rule="evenodd" d="M71.8,243.4l-2.4,1.7l2.4,-6.6l2.5,6.6Z" class="g8_254"/>
<path d="M68.8,330.5h6.1m65.7,29v6.2" class="g7_254"/>
<path clip-path="url(#c3_254)" d="M236,189.9h3.7" class="g9_254"/>
<path d="M53.9,845.6h87.6v27.5H53.9Zm87.6,0h97.2v27.5H141.5Z" class="ga_254"/>
<path d="M53.5,1022.7h88m0,0h97.6M53.5,845.6h88M53.9,872.8V846m87.6,-.4h97.6m-97.6,27.2V846m97.2,26.8V846M53.5,873.1h88m0,0h97.6M53.9,891.5v-18m87.6,18v-18m97.2,18v-18M53.9,909.8V891.5m87.6,18.3V891.5m97.2,18.3V891.5M53.9,928.1V909.8m87.6,18.3V909.8m97.2,18.3V909.8M53.9,946.5V928.1m87.6,18.4V928.1m97.2,18.4V928.1M53.9,964.8V946.5m87.6,18.3V946.5m97.2,18.3V946.5M53.9,983.1V964.8m87.6,18.3V964.8m97.2,18.3V964.8M53.9,1001.5V983.1m87.6,18.4V983.1m97.2,18.4V983.1M53.9,1022.3v-20.8m87.6,20.8v-20.8m97.2,20.8v-20.8" class="g1_254"/>
<path d="M112.1,657.8c8,58.3,18,70.1,125.9,76.2" class="gb_254"/>
<path d="M125.1,705.7c0,-.9,.8,-1.7,1.7,-1.7c1,0,1.7,.8,1.7,1.7c0,1,-.7,1.8,-1.7,1.8c-.9,0,-1.7,-.8,-1.7,-1.8Z" class="gc_254"/>
<path d="M125.1,705.7c0,-.9,.8,-1.7,1.7,-1.7c1,0,1.7,.8,1.7,1.7c0,1,-.7,1.8,-1.7,1.8c-.9,0,-1.7,-.8,-1.7,-1.8Z" class="gd_254"/>
<path d="M53.5,768H236.8" class="g7_254"/>
<path clip-path="url(#c4_254)" fill-rule="evenodd" d="M236.8,768l-1.6,-2.4l6.5,2.4l-6.5,2.5Z" class="g8_254"/>
<path d="M126.8,798.6V655" class="g7_254"/>
<path fill-rule="evenodd" d="M126.8,655l-2.4,1.6l2.4,-6.5l2.5,6.5Z" class="g8_254"/>
<path d="M103.9,798.6V653.4M53.5,745.1h58.6m128.6,0H132.9" class="ge_254"/>
<path d="M123.8,699.3h6.1m-6.1,22.9h6.1m-6.1,22.9h6.1" class="g7_254"/>
<path d="M125.5,705.7c0,-.7,.6,-1.3,1.3,-1.3c.8,0,1.4,.6,1.4,1.3c0,.8,-.6,1.4,-1.4,1.4c-.7,0,-1.3,-.6,-1.3,-1.4Z" class="gc_254"/>
</svg>