<?xml version="1.0" encoding="UTF-8" standalone="no"?>
<!DOCTYPE svg PUBLIC "-//W3C//DTD SVG 1.1//EN"
"http://www.w3.org/Graphics/SVG/1.1/DTD/svg11.dtd">
<svg viewBox="0 0 907 1045" version="1.1" xmlns="http://www.w3.org/2000/svg" xmlns:xlink="http://www.w3.org/1999/xlink">
<defs>
<clipPath id="c0_320"><path d="M-2.6,1047.7V-2.6H910.2V1047.7Z"/></clipPath>
<style type="text/css"><![CDATA[
.g0_320{
}
.g1_320{
fill: none;
stroke: #000000;
stroke-width: 1.527;
stroke-linecap: butt;
stroke-linejoin: miter;
stroke-miterlimit: 4;
}
.g2_320{
fill: #D9D9D9;
}
.g3_320{
fill: none;
stroke: #636363;
stroke-width: 1.527;
stroke-linecap: butt;
stroke-linejoin: miter;
stroke-miterlimit: 4;
}
.g4_320{
fill: none;
stroke: #FFFFFF;
stroke-width: 1.909;
stroke-linecap: butt;
stroke-linejoin: miter;
}
.g5_320{
fill: none;
stroke: #000000;
stroke-width: 0.381;
stroke-linecap: butt;
stroke-linejoin: miter;
}
]]></style>
</defs>
<path d="M122.4,277.7c4.9,0,8.9,-3.9,8.9,-8.9c0,-4.9,-4,-8.9,-8.9,-8.9c-4.9,0,-8.9,4,-8.9,8.9c0,5,4,8.9,8.9,8.9Z" class="g0_320"/>
<path d="M122.4,277.7c4.9,0,8.9,-3.9,8.9,-8.9c0,-4.9,-4,-8.9,-8.9,-8.9c-4.9,0,-8.9,4,-8.9,8.9c0,5,4,8.9,8.9,8.9Z" class="g1_320"/>
<path d="M322.6,773.6v15.7H459V773.6H322.6Z" class="g2_320"/>
<path d="M324.7,740.2v13.3h65.1V740.2H324.7Z" class="g2_320"/>
<path d="M545.8,446.7v15.5h95.8V446.7H545.8Z" class="g2_320"/>
<path d="M547.9,413.3v17.2H668.1V413.3H547.9Z" class="g2_320"/>
<path d="M205.8,446.7v17.7H357.4V446.7H205.8Z" class="g2_320"/>
<path d="M207.9,413.3v17.6H369.7V413.3H207.9Z" class="g2_320"/>
<path d="M395,428.9c-1.5,-.2,-1.9,-2.2,-2.7,-3.1c-.7,-.7,-1.7,-1.6,-2.5,-2.2c-.4,-.3,-.9,.1,-1.1,-.5c-.3,-.8,1.3,-1.6,1.7,-2c.9,-.7,1.6,-1.4,2.4,-2.2c.7,-.7,1.5,-1,2.2,-1.7c-.7,-.5,-1.4,.8,-1.8,1.2c-.6,.5,-1.6,1.4,-2,2c-.4,.7,-.5,1.4,-1,2c5.4,.9,11.1,-.9,16.7,-1c4.1,0,8.1,.4,12.2,.4c3.4,0,6.5,.1,9.8,.4c3.6,.4,7,1,10.6,1c8,-.1,16.1,.3,24,-.3c3.5,-.3,7,.1,10.5,-.1c3.4,-.2,6.6,-.3,9.9,-.3c5.3,0,10.5,-.1,15.8,0c2.2,0,4.4,.3,6.7,.3c2.6,0,5.7,.5,8.2,-.3M382.2,454.8c2.9,.2,5.9,-.3,8.8,-.3c4.2,-.2,8.7,-.5,12.9,-1.1c4.6,-.6,9.1,-1.4,13.7,-2.1c3.6,-.5,7.3,-.4,11,-.7c12.9,-1.2,25.3,.5,38.1,1.5c7.4,.6,14.6,.5,22,0c3.2,-.2,6.3,.3,9.5,.3c1.7,0,3.4,-.2,5.1,0c1.4,.2,2.8,.8,4.2,.9c5.7,.7,11.5,.5,17.2,1.1c1.5,.2,2.9,.6,4.4,.4c.8,-.1,1.5,-.4,2.3,-.4c-1.7,-1.5,-4.2,-1.8,-5.2,-4c.5,1.5,4,1.4,4.5,3.4c.6,2.1,-3.5,3.4,-3.4,5.4M509.4,417c3.1,2.4,7.7,4.5,11.7,4.4c-1.3,1,-3.5,1.5,-4.9,2.2c-.9,.4,-5.8,1.6,-4.7,3.4M386,449.6c-1.7,1.1,-11,4.9,-10.1,6.6c.4,.7,1.7,.8,2.3,1c1.9,.5,3.8,1.6,5.8,2m66.8,-41.8c3.3,3.5,5.6,9.3,9.3,12m-15.2,15.5c2.3,2.2,4.4,3.6,6.9,5.3c3,2.1,4.5,4.8,7.2,6.7" class="g3_320"/>
<path d="M123.4,864.5c4.9,0,8.9,-4,8.9,-9c0,-4.9,-4,-8.9,-8.9,-8.9c-4.9,0,-8.9,4,-8.9,8.9c0,5,4,9,8.9,9Z" class="g0_320"/>
<path d="M123.4,864.5c4.9,0,8.9,-4,8.9,-9c0,-4.9,-4,-8.9,-8.9,-8.9c-4.9,0,-8.9,4,-8.9,8.9c0,5,4,9,8.9,9Z" class="g1_320"/>
<path d="M623.9,868.7c12.8,5.6,24.9,2,37,-3.2c8.4,-3.6,18.4,-6.4,25.5,-12.1c-3.1,-.5,-6.9,-.9,-10.1,-1.1c1.3,-1.3,7,-1.1,8.7,.1c.5,-.8,.9,-.8,.6,-1.8c-1.1,2,-1.3,3.9,-1.6,6.2c-.2,2.2,-.9,4.9,-.8,7" class="g3_320"/>
<g clip-path="url(#c0_320)">
<path d="M-4.5,13.7H-27.4m939.5,0H935M-4.5,1031.2H-27.4m939.5,0H935M13.7,-4.5V-27.4m0,1077v22.9m880,-1077V-27.4m0,1077v22.9" class="g4_320"/>
<path d="M-4.5,13.7H-27.4m939.5,0H935M-4.5,1031.2H-27.4m939.5,0H935M13.7,-4.5V-27.4m0,1077v22.9m880,-1077V-27.4m0,1077v22.9" class="g5_320"/>
</g>
</svg>