<?xml version="1.0" encoding="UTF-8" standalone="no"?>
<!DOCTYPE svg PUBLIC "-//W3C//DTD SVG 1.1//EN"
"http://www.w3.org/Graphics/SVG/1.1/DTD/svg11.dtd">
<svg viewBox="0 0 909 1286" version="1.1" xmlns="http://www.w3.org/2000/svg" xmlns:xlink="http://www.w3.org/1999/xlink">
<defs>
<clipPath id="c0_495"><path d="M0,1286.2V-.1H910.6V1286.2Z"/></clipPath>
<style type="text/css"><![CDATA[
.g0_495{
fill: #FFFFFF;
}
.g1_495{
fill: none;
stroke: #0000FF;
stroke-width: 0.733;
stroke-linecap: butt;
stroke-linejoin: bevel;
stroke-miterlimit: 3;
}
]]></style>
</defs>
<g clip-path="url(#c0_495)">
<path fill-rule="evenodd" d="M0,0H909.5V1286.2H0V0Z" class="g0_495"/>
<path d="M65.1,92.4h85m-85,28.9H191.2m-126.1,29h71.8M72.4,179.4h50.7m-50.7,29h86.2m-93.5,29H191M65.1,266.5H259m-193.9,29H197.8m-132.7,29H277.8M65.1,353.6h84.1m-84.1,29H219.8m-154.7,29H176.7M72.4,440.7H211.1M72.4,469.6H234.8M72.4,498.7H205.9M65.1,527.8H167.4m7.7,0h17.2M65.1,556.7h94m-94,29.1H251.7M65.1,614.9H235m7.9,0H260M65.1,643.8h77m-77,29H213.6M65.1,701.9H213.2m-148.1,29h84.3m-84.3,29H275.9M65.1,789H229.7M65.1,818H233M65.1,847H204.4m7.9,0h17.2M65.1,876.1H218.5m-153.4,29H185.3m-120.2,29H176M65.1,963.2H205.6M65.1,992.1h151m-151,29.1H407.9M65.1,1050.3H191.6" class="g1_495"/>
</g>
</svg>