<?xml version="1.0" encoding="UTF-8" standalone="no"?>
<!DOCTYPE svg PUBLIC "-//W3C//DTD SVG 1.1//EN"
"http://www.w3.org/Graphics/SVG/1.1/DTD/svg11.dtd">
<svg viewBox="0 0 931 1096" version="1.1" xmlns="http://www.w3.org/2000/svg" xmlns:xlink="http://www.w3.org/1999/xlink">
<defs>
<clipPath id="c0_281"><path d="M615,1030.6v-142H766.2v142Z"/></clipPath>
<clipPath id="c1_281"><path d="M106.4,133.6V93.9H879.5v39.7Z"/></clipPath>
<clipPath id="c2_281"><path d="M183.7,852.2V836.3h78.7v15.9Z"/></clipPath>
<clipPath id="c3_281"><path d="M384.9,929.5V912.7h52v16.8Z"/></clipPath>
<clipPath id="c4_281"><path d="M399.5,946.3V929.5h52v16.8Z"/></clipPath>
<style type="text/css"><![CDATA[
.g0_281{
fill: none;
stroke: #00AEEF;
stroke-width: 0.763;
stroke-miterlimit: 10;
}
.g1_281{
fill: #BAE0C2;
}
.g2_281{
fill: #E7C09C;
}
.g3_281{
fill: none;
stroke: #BAE0C2;
stroke-width: 1.527;
stroke-miterlimit: 3;
}
.g4_281{
fill: none;
stroke: #241F1F;
stroke-width: 0.534;
stroke-miterlimit: 3;
}
.g5_281{
fill: #241F1F;
}
.g6_281{
fill: none;
stroke: #241F1F;
stroke-width: 0.611;
stroke-miterlimit: 3;
}
.g7_281{
fill: #FFF;
}
.g8_281{
fill: none;
stroke: #DBA979;
stroke-width: 0.611;
stroke-miterlimit: 3;
}
.g9_281{
fill: #F7D1A2;
}
.ga_281{
fill: none;
stroke: #CA884B;
stroke-width: 0.381;
stroke-miterlimit: 3;
}
.gb_281{
fill: #CA884B;
}
.gc_281{
fill: #CFEDFC;
}
.gd_281{
fill: none;
stroke: #00AEEF;
stroke-width: 0.381;
stroke-miterlimit: 3;
}
.ge_281{
fill: #00AEEF;
}
.gf_281{
fill: none;
stroke: #241F1F;
stroke-width: 0.381;
stroke-miterlimit: 3;
}
.gg_281{
fill: none;
stroke: #241F1F;
stroke-width: 0.305;
stroke-miterlimit: 3;
}
.gh_281{
fill: none;
stroke: #FFF;
stroke-width: 0.381;
stroke-linecap: round;
stroke-miterlimit: 3;
}
.gi_281{
fill: none;
stroke: #FFF;
stroke-width: 0.381;
stroke-miterlimit: 3;
}
.gj_281{
fill: none;
stroke: #00AEEF;
stroke-width: 0.381;
stroke-linecap: round;
stroke-linejoin: round;
stroke-dasharray: 2,2;
}
.gk_281{
fill: none;
stroke: #241F1F;
stroke-width: 0.481;
stroke-miterlimit: 10;
}
.gl_281{
fill: none;
stroke: #241F1F;
stroke-width: 0.687;
stroke-miterlimit: 10;
}
]]></style>
</defs>
<path d="M502.7,561.2H878.5" class="g0_281"/>
<path clip-path="url(#c0_281)" d="M633.6,961.9L615,943.3c0,0,30.4,-54.7,75.6,-54.7c53.5,0,75.6,54.7,75.6,54.7l-18.7,18.6L690.6,905Z" class="g1_281"/>
<path d="M690.6,1018.9l56.9,-57l-5.2,-5.1L690.6,905l-57,56.9Z" class="g2_281"/>
<path d="M654.3,961.9l36.3,36.3l36.2,-36.3c-36.2,-36.2,-37.1,-36.2,-72.5,0Z" class="g1_281"/>
<path d="M654.3,961.9l36.3,36.3l36.2,-36.3c-36.2,-36.2,-37.1,-36.2,-72.5,0Z" class="g3_281"/>
<path d="M701.6,1025.1L753.8,973m-.9,-5.4l6.2,6.2m-62.8,50.4l6.2,6.2" class="g4_281"/>
<path d="M699.5,1027.2l1.7,-3.8l.4,1.7l1.7,.4Z" class="g5_281"/>
<path d="M755.9,970.9l-1.7,3.8l-.4,-1.7l-1.7,-.4Z" class="g5_281"/>
<path d="M681.1,965.4c0,-5.2,4.2,-9.5,9.5,-9.5c5.2,0,9.4,4.3,9.4,9.5c0,5.3,-4.2,9.5,-9.4,9.5c-5.3,0,-9.5,-4.2,-9.5,-9.5Z" class="g2_281"/>
<path d="M687.1,1015.5v-4.4H694v4.4l-3.4,3.4l-3.5,-3.4Z" class="g6_281"/>
<path d="M687.1,1015.5v-4.4H694v4.4l-3.4,3.4Z" class="g7_281"/>
<path d="M687.1,1015.5v-4.4H694v4.4l-3.4,3.4l-3.5,-3.4Z" class="g8_281"/>
<path d="M638.8,956.8l5.2,5.1l-5.2,5.2l-5.2,-5.2l5.2,-5.1Z" class="g6_281"/>
<path d="M638.8,956.8l5.2,5.1l-5.2,5.2l-5.2,-5.2Z" class="g7_281"/>
<path d="M638.8,956.8l5.2,5.1l-5.2,5.2l-5.2,-5.2l5.2,-5.1Z" class="g8_281"/>
<path d="M685.4,910.2l5.2,5.2l5.2,-5.2L690.6,905l-5.2,5.2Z" class="g6_281"/>
<path d="M685.4,910.2l5.2,5.2l5.2,-5.2L690.6,905Z" class="g7_281"/>
<path d="M685.4,910.2l5.2,5.2l5.2,-5.2L690.6,905l-5.2,5.2Z" class="g8_281"/>
<path d="M742.3,956.8l5.2,5.1l-5.2,5.2l-5.2,-5.2l5.2,-5.1Z" class="g6_281"/>
<path d="M742.3,956.8l5.2,5.1l-5.2,5.2l-5.2,-5.2Z" class="g7_281"/>
<path d="M742.3,956.8l5.2,5.1l-5.2,5.2l-5.2,-5.2l5.2,-5.1Z" class="g8_281"/>
<path d="M687.1,964.6H694v1.7h-6.9Zm0,0H694v1.7h-6.9Z" class="g6_281"/>
<path d="M687.1,966.3H694v-2.1h-6.9v2.1Z" class="g7_281"/>
<path d="M687.1,966.3H694v-2.1h-6.9v2.1Z" class="g8_281"/>
<path d="M722.2,1003.9H744V990.4H722.2v13.5Z" class="g7_281"/>
<path d="M713.4,988.4c.4,.3,.2,1,.2,1.4c0,.2,-.4,.2,-.4,.2c-.2,.1,-.2,.2,-.2,.3c-.3,.1,-.5,.2,-.8,.2c-.3,.1,-.8,.2,-.7,0c0,-.3,.2,-.5,.1,-.8c-.7,-1.1,1.6,-1.5,1.8,-1.3Z" class="g9_281"/>
<path d="M713.4,988.4c.4,.3,.2,1,.2,1.4c0,.2,-.4,.2,-.4,.2c-.2,.1,-.2,.2,-.2,.3c-.3,.1,-.5,.2,-.8,.2c-.3,.1,-.8,.2,-.7,0c0,-.3,.2,-.5,.1,-.8c-.7,-1.1,1.6,-1.5,1.8,-1.3Z" class="ga_281"/>
<path d="M711.8,989.8c.1,.2,-.2,.5,-.2,.6c0,.1,-.1,.1,-.1,0c0,0,.1,-.2,.1,-.3c.1,-.1,.1,-.3,0,-.4c-.1,-.1,0,-.2,0,-.3c0,-.1,.1,-.2,.2,-.2c.1,0,.1,.1,.2,.1l-.1,.1c0,0,-.2,.3,-.1,.4Z" class="gb_281"/>
<path d="M712.8,995.8c-1.3,.3,-2.2,.2,-2.7,0c-.9,1.2,-.7,2.3,-.3,3c-.5,1.4,-.2,1.1,-.1,2.3c-.7,.4,-.3,.3,-.7,1c-.2,.5,1.3,.7,1.4,.6c.6,-.4,1.5,-2.7,1.8,-4.2c.3,.6,.9,.8,2.1,1c-.4,-.2,-.6,.3,-.8,.9c0,.2,0,.3,.1,.4c.2,.3,.7,.5,1.2,.4c0,0,1.5,-1.6,.7,-2.5c0,0,-2.1,-2.5,-2.7,-2.9Z" class="gc_281"/>
<path d="M712.8,995.8c-1.3,.3,-2.2,.2,-2.7,0c-.9,1.2,-.7,2.3,-.3,3c-.5,1.4,-.2,1.1,-.1,2.3c-.7,.4,-.3,.3,-.7,1c-.2,.5,1.3,.7,1.4,.6c.6,-.4,1.5,-2.7,1.8,-4.2c.3,.6,.9,.8,2.1,1c-.4,-.2,-.6,.3,-.8,.9c0,.2,0,.3,.1,.4c.2,.3,.7,.5,1.2,.4c0,0,1.5,-1.6,.7,-2.5c0,0,-2.1,-2.5,-2.7,-2.9Z" class="gd_281"/>
<path d="M710.3,994.6c-.2,-1,-.7,-2,-.5,-2.7c0,0,-.8,1.3,-.8,2.1c0,.2,1.3,.6,1.3,.6Z" class="g9_281"/>
<path d="M710.3,994.6c-.2,-1,-.7,-2,-.5,-2.7c0,0,-.8,1.3,-.8,2.1c0,.2,1.3,.6,1.3,.6Z" class="ga_281"/>
<path d="M709.9,991.6c-.1,.1,-.5,.8,-.7,1c.2,.2,.4,.3,.6,.3c0,-.2,.2,-1.1,.1,-1.3Z" class="gc_281"/>
<path d="M709.9,991.6c-.1,.1,-.5,.8,-.7,1c.2,.2,.4,.3,.6,.3c0,-.2,.2,-1.1,.1,-1.3Z" class="gd_281"/>
<path d="M712.9,993c0,.4,0,1.2,.1,2c-.1,.3,-.2,.6,-.2,.8c-.9,.5,-2.6,.1,-2.8,.1c-.1,-.1,0,-.3,.1,-.5c0,-.6,-.9,-2.8,0,-4c.4,-.5,.9,-.6,1.4,-.9c.8,.2,1.3,-.1,1.5,-.2c.7,.9,1.2,.1,1.6,2.4c-.4,.4,-.9,.4,-1.7,.3Z" class="gc_281"/>
<path d="M713.1,993.3c-.2,.3,-.5,0,-1,1c0,.1,.3,-.1,.5,-.1c.6,0,-.3,.3,-1.2,.5c-.2,.2,.7,-.1,.8,.2c0,.3,-.2,.1,-.7,.5c-.1,.1,.7,-.5,.8,-.2c.2,.2,-.4,.4,-.2,.6c.2,.2,.6,.1,.7,-.1c.3,-1.4,.5,-1.3,.7,-2.4c0,-.1,-.5,-.1,-.4,0Z" class="ge_281"/>
<path d="M715.5,996.7c-1.5,-.5,-1.6,-.7,-2.4,-1.5c-.2,-.6,-.2,-1.5,-.2,-2.2c.5,.1,1.1,.2,1.5,-.2c0,.9,-.3,1.4,-.3,1.9c.8,.3,.9,.8,1.6,1.4c.1,.1,.2,.1,.4,.1c.1,-.1,.5,.1,.6,.2c.1,.1,-.1,.1,.1,.2c.2,0,.2,.1,.3,.2c.1,0,0,.1,0,.2c0,.1,.1,.1,0,.2c-.1,.1,-.2,.2,-.3,.2c-.2,.1,-.2,0,-.4,0c-.1,0,-.3,-.1,-.4,-.3l-.1,-.2c-.2,-.1,-.2,-.2,-.4,-.2Z" class="g9_281"/>
<path d="M714.4,992.8c0,1,-.3,1.3,-.3,1.9c.8,.3,.9,.8,1.6,1.4c.1,.1,.2,.1,.4,.1c.1,-.1,.5,.1,.6,.2c.1,.1,0,.1,.1,.2c.2,0,.2,.1,.3,.2c.1,0,0,.1,0,.2c0,.1,.1,.1,0,.2c-.1,.1,-.2,.2,-.3,.2c-.2,.1,-.2,0,-.3,0c-.2,0,-.4,-.1,-.5,-.3l-.1,-.2c-.2,-.1,-.2,-.2,-.4,-.2c-1.5,-.5,-1.6,-.7,-2.4,-1.5c-.2,-.6,-.2,-1.5,-.2,-2.2" class="ga_281"/>
<path d="M708.7,1004.9c.2,.5,1,.6,1.4,1c0,.2,-.1,.4,-.2,.4c-1.1,.2,-1.8,-.7,-2.8,-.9c-.6,.1,.2,-1,.5,-1c0,.1,.4,.7,1.1,.5Z" class="g5_281"/>
<path d="M708.7,1004.9c.2,.5,1,.6,1.4,1c0,.2,-.1,.4,-.2,.4c-1.1,.2,-1.8,-.7,-2.8,-.9c-.6,.1,.2,-1,.5,-1c0,.1,.4,.7,1.1,.5Z" class="gf_281"/>
<path d="M712.8,991.4c-.4,.4,-.2,.5,0,1.6" class="gd_281"/>
<path d="M712.3,998.1c.6,.8,.9,1.1,1.9,1c.4,-.1,-.5,-.9,-1,-1.1c-.4,-.1,-1,0,-.9,.1Z" class="ge_281"/>
<path d="M712.4,996.2c-.5,.7,-1,2.1,-.6,1.9c.1,-.1,.1,.3,.1,.5c0,.7,-1.4,2.4,-.7,1.8c0,-.1,.1,-.2,.3,-.2c.5,-.2,-.6,.8,-.8,1.3c-.1,.4,-.5,1,-.2,1c1.3,-.7,2.3,-7.1,1.9,-6.3Z" class="ge_281"/>
<path d="M713.6,1000.6c-.1,-.2,.2,-1.1,.7,-1c.1,0,.1,.2,.2,.2c.3,0,.1,-.6,.3,-.5c.2,0,.2,.3,.1,.5c0,.2,-.3,.1,-.3,.3c0,.2,.3,.1,.4,.3c.1,.2,0,.3,-.2,.6c0,.2,-.9,.1,-1.2,-.4Z" class="ge_281"/>
<path d="M713.6,1000.8c-.3,.5,-.5,1.8,-1,2.6m2.2,-2.2c-.3,.4,-1.5,2.4,-1.4,2.7" class="gf_281"/>
<path d="M713.4,1003.9c.1,.2,.2,.4,.5,.5c.2,.1,.4,.6,.4,.6c0,.1,0,.2,-.1,.2c-.1,.1,-.2,0,-.3,0c-.6,-.1,-.9,-.2,-.9,-.3c-.1,-.2,-.2,-.3,-.4,-.3c-.1,.1,-.5,-.1,-.5,-.3c-.1,-.3,.2,-.7,.5,-.9c0,.2,.1,.5,.8,.5Z" class="g5_281"/>
<path d="M713.4,1003.9c.1,.2,.2,.4,.5,.5c.2,.1,.4,.6,.4,.6c0,.1,0,.2,-.1,.2c-.1,.1,-.2,0,-.3,0c-.6,-.1,-.9,-.2,-.9,-.3c-.1,-.2,-.2,-.3,-.4,-.3c-.1,.1,-.5,-.1,-.5,-.3c-.1,-.3,.2,-.7,.5,-.9c0,.2,.1,.5,.8,.5Z" class="gf_281"/>
<path d="M713.4,1003.9c0,0,0,.2,-.1,.3c0,.2,.3,.4,.5,.3c.2,-.1,-.3,-.1,-.4,-.6Z" class="g7_281"/>
<path d="M713.4,1003.9c0,0,0,.2,-.1,.3c0,.2,.3,.4,.5,.3c.2,-.1,-.3,-.1,-.4,-.6Z" class="gg_281"/>
<path d="M713.5,1004.5c-.1,.2,-.2,.3,-.4,.3m.2,-.5c-.1,.1,-.3,.2,-.4,.3" class="gh_281"/>
<path d="M710.2,1002.7c-.1,.2,-1.5,1.9,-1.5,2.2" class="gf_281"/>
<path d="M710.2,1002.7c-.6,.8,-1.4,1,-2.1,2c-.1,0,-.1,.1,-.1,0c1,-1.4,.2,-1.5,1,-2.4c.2,.3,.8,.3,1.2,.4Z" class="g5_281"/>
<path d="M709,1002.3c-.4,.4,-.7,1.4,-1.4,2.1" class="gf_281"/>
<path d="M708.8,1004.9c0,0,-.2,0,-.3,.1c-.3,.2,.5,.8,.7,.5c.1,-.3,-.2,-.1,-.4,-.6Z" class="g7_281"/>
<path d="M708.8,1004.9c0,0,-.2,0,-.3,.1c-.3,.2,.5,.8,.7,.5c.1,-.3,-.2,-.1,-.4,-.6Z" class="gg_281"/>
<path d="M708.8,1005.6c-.1,0,-.3,.2,-.3,.2m0,-.6c-.2,.1,-.4,.3,-.6,.4" class="gh_281"/>
<path d="M711.2,989.4c-.6,-.9,-.2,-1.7,.5,-2.1c.5,-.2,.7,-.3,1.2,0c.4,.2,.4,.7,.8,.9c.2,.1,.4,0,.6,.1c.5,.3,-.9,.2,-1.4,.4c-.7,.2,-1.3,1.3,-1.7,.7Z" class="g5_281"/>
<path d="M712.4,987.6c0,-.2,-.4,-.2,-.6,-.1c-.3,.2,-.6,1,-.2,.9c.3,-.1,.4,-.4,.6,-.6c.1,-.1,.2,-.1,.2,-.2Z" class="g7_281"/>
<path d="M713.4,987.9c-.2,.2,-.3,.3,-.4,.6" class="gi_281"/>
<path d="M711,996.5c0,.8,-.2,1.2,-.4,1.9v1.2c-.2,1,-.2,2,-.8,2.9" class="gj_281"/>
<path d="M710.2,993.1c-.2,.4,-.2,.6,-.3,.9c0,.2,.1,.3,.2,.5c0,.3,-.1,.7,.2,.8c-.1,0,-.1,.1,-.1,.1c0,.2,0,.3,-.1,.4c.1,0,.1,.1,.2,.1c.1,0,.2,-.1,.2,-.2c0,-.1,-.1,-.1,-.1,-.1c.1,-.2,.1,-.4,.2,-.6c-.1,0,-.2,0,-.3,0c0,-.2,-.2,-.3,-.2,-.6c.1,-.5,.3,-.7,.2,-1.3Z" class="ge_281"/>
<path d="M714.8,1001.2c-.5,.9,-1.2,1.4,-1.8,2.6h-.2c.7,-1.6,.2,-2,.8,-3c.3,.4,.7,.6,1.2,.4Z" class="g5_281"/>
<path d="M713,995c-.1,.3,-.2,.6,-.2,.8c-.9,.5,-2.6,.1,-2.8,.1c-.1,-.1,0,-.3,.1,-.5c0,-.6,-.9,-2.8,0,-4c.4,-.5,.9,-.6,1.4,-.9c.8,.2,1.3,-.1,1.5,-.2c.7,.9,1.2,.1,1.6,2.4c-.4,.3,-.8,.5,-1.8,.3" class="gd_281"/>
<image clip-path="url(#c1_281)" preserveAspectRatio="none" x="106" y="94" width="773" height="40" xlink:href="img/1.png"/>
<path d="M285.6,641.6h4.8" class="gk_281"/>
<path clip-path="url(#c2_281)" d="M220.3,836.6h42.4" class="gl_281"/>
<path d="M220.4,921.2h4.8m186,0H416" class="gk_281"/>
<path clip-path="url(#c3_281)" d="M428.2,913h9" class="gl_281"/>
<path d="M425.9,938h4.8" class="gk_281"/>
<path clip-path="url(#c4_281)" d="M442.8,929.8h9.1" class="gl_281"/>
</svg>