<?xml version="1.0" encoding="UTF-8" standalone="no"?>
<!DOCTYPE svg PUBLIC "-//W3C//DTD SVG 1.1//EN"
"http://www.w3.org/Graphics/SVG/1.1/DTD/svg11.dtd">
<svg viewBox="0 0 931 1096" version="1.1" xmlns="http://www.w3.org/2000/svg" xmlns:xlink="http://www.w3.org/1999/xlink">
<defs>
<clipPath id="c0_234"><path d="M51.8,1044.7V794H931.9v250.7Z"/></clipPath>
<clipPath id="c1_234"><path d="M69.3,1032.1V840.8h209v191.3Z"/></clipPath>
<clipPath id="c2_234"><path d="M67.5,1032.1V840.8H278.3v191.3Z"/></clipPath>
<style type="text/css"><![CDATA[
.g0_234{
fill: none;
stroke: #241F1F;
stroke-width: 0.481;
stroke-miterlimit: 10;
}
.g1_234{
fill: #241F1F;
}
.g2_234{
fill: none;
stroke: #EE008C;
stroke-width: 0.916;
stroke-miterlimit: 3;
}
.g3_234{
fill: none;
stroke: #00AEEF;
stroke-width: 0.916;
stroke-miterlimit: 3;
}
.g4_234{
fill: none;
stroke: #241F1F;
stroke-width: 0.549;
stroke-miterlimit: 3;
}
.g5_234{
fill: none;
stroke: #241F1F;
stroke-width: 0.763;
stroke-miterlimit: 3;
}
.g6_234{
fill: #00AEEF;
}
.g7_234{
fill: none;
stroke: #00AEEF;
stroke-width: 0.763;
stroke-miterlimit: 3;
}
.g8_234{
fill: #EE008C;
}
.g9_234{
fill: none;
stroke: #EE008C;
stroke-width: 0.763;
stroke-miterlimit: 3;
}
.ga_234{
fill: none;
stroke: #241F1F;
stroke-width: 0.611;
stroke-miterlimit: 3;
}
.gb_234{
fill: none;
stroke: #008048;
stroke-width: 3.055;
stroke-miterlimit: 10;
}
.gc_234{
fill: none;
stroke: #241F1F;
stroke-width: 0.687;
stroke-miterlimit: 10;
}
.gd_234{
fill: none;
stroke: #EE008C;
stroke-width: 1.058;
stroke-linejoin: round;
}
.ge_234{
fill: none;
stroke: #00AEEF;
stroke-width: 1.058;
stroke-linejoin: round;
}
.gf_234{
fill: none;
stroke: #00AEEF;
stroke-width: 0.756;
stroke-miterlimit: 3;
}
.gg_234{
fill: none;
stroke: #EE008C;
stroke-width: 0.756;
stroke-miterlimit: 3;
}
.gh_234{
fill: none;
stroke: #241F1F;
stroke-width: 0.605;
stroke-miterlimit: 3;
}
.gi_234{
fill: none;
stroke: #241F1F;
stroke-width: 0.756;
stroke-miterlimit: 3;
stroke-dasharray: 5,4;
}
.gj_234{
fill: none;
stroke: #241F1F;
stroke-width: 0.756;
stroke-linejoin: round;
}
.gk_234{
fill: none;
stroke: #241F1F;
stroke-width: 0.377;
stroke-miterlimit: 3;
}
.gl_234{
fill: none;
stroke: #241F1F;
stroke-width: 0.528;
stroke-miterlimit: 3;
}
.gm_234{
fill: none;
stroke: #241F1F;
stroke-width: 0.756;
stroke-miterlimit: 3;
}
]]></style>
</defs>
<path d="M739.5,123.8h4.8" class="g0_234"/>
<path fill-rule="evenodd" d="M341,350.6l-1.6,-2.4l6.5,2.4l-6.5,2.5Z" class="g1_234"/>
<path fill-rule="evenodd" d="M177.8,269.7l-2.4,1.7l2.4,-6.6l2.4,6.6Z" class="g1_234"/>
<path d="M301.6,265.5V421.9" class="g2_234"/>
<path d="M177.8,350.6c0,-33.9,27.5,-61.4,61.4,-61.4c34,0,61.5,27.5,61.5,61.4c0,34,-27.5,61.5,-61.5,61.5c-33.9,0,-61.4,-27.5,-61.4,-61.5Z" class="g3_234"/>
<path d="M194.6,336.6l4.2,7m-7.1,-5.3l4.2,7.1m89.7,-60.7l4.3,7m-7.2,-5.2l4.3,7" class="g4_234"/>
<path d="M176.1,350.6c0,-.9,.8,-1.7,1.7,-1.7c1,0,1.7,.8,1.7,1.7c0,1,-.7,1.8,-1.7,1.8c-.9,0,-1.7,-.8,-1.7,-1.8Z" class="g1_234"/>
<path d="M176.1,350.6c0,-.9,.8,-1.7,1.7,-1.7c1,0,1.7,.8,1.7,1.7c0,1,-.7,1.8,-1.7,1.8c-.9,0,-1.7,-.8,-1.7,-1.8Z" class="g5_234"/>
<path d="M208.6,332.2c0,-.9,.8,-1.7,1.7,-1.7c1,0,1.7,.8,1.7,1.7c0,1,-.7,1.7,-1.7,1.7c-.9,0,-1.7,-.7,-1.7,-1.7Z" class="g1_234"/>
<path d="M208.6,332.2c0,-.9,.8,-1.7,1.7,-1.7c1,0,1.7,.8,1.7,1.7c0,1,-.7,1.7,-1.7,1.7c-.9,0,-1.7,-.7,-1.7,-1.7Z" class="g5_234"/>
<path d="M269,298.1c0,-1,.8,-1.8,1.7,-1.8c1,0,1.8,.8,1.8,1.8c0,.9,-.8,1.7,-1.8,1.7c-.9,0,-1.7,-.8,-1.7,-1.7Z" class="g6_234"/>
<path d="M269,298.1c0,-1,.8,-1.8,1.7,-1.8c1,0,1.8,.8,1.8,1.8c0,.9,-.8,1.7,-1.8,1.7c-.9,0,-1.7,-.8,-1.7,-1.7Z" class="g7_234"/>
<path d="M299.8,280.6c0,-.9,.8,-1.7,1.8,-1.7c.9,0,1.7,.8,1.7,1.7c0,1,-.8,1.7,-1.7,1.7c-1,0,-1.8,-.7,-1.8,-1.7Z" class="g8_234"/>
<path d="M299.8,280.6c0,-.9,.8,-1.7,1.8,-1.7c.9,0,1.7,.8,1.7,1.7c0,1,-.8,1.7,-1.7,1.7c-1,0,-1.8,-.7,-1.8,-1.7Z" class="g9_234"/>
<path d="M239.2,347.9v5.5m62.3,-72.9L177.8,350.6m-22.6,0H341M177.8,423.1V269.7" class="ga_234"/>
<image clip-path="url(#c0_234)" preserveAspectRatio="none" x="52" y="794" width="883" height="251" xlink:href="img/1.png"/>
<path d="M67.2,830.1H823.5" class="gb_234"/>
<path d="M480.1,970.3h37.5m214.9,0H770" class="gc_234"/>
<path d="M183.3,902.6c0,-10.8,8.7,-19.5,19.5,-19.5c10.8,0,19.6,8.7,19.6,19.5c0,10.8,-8.8,19.5,-19.6,19.5c-10.8,0,-19.5,-8.7,-19.5,-19.5Z" class="gd_234"/>
<path d="M89.2,939.8c0,-40.9,33.1,-74,74,-74c40.9,0,74.1,33.1,74.1,74c0,40.9,-33.2,74.1,-74.1,74.1c-40.9,0,-74,-33.2,-74,-74.1Z" class="ge_234"/>
<path d="M235.6,939.9c0,-.9,.7,-1.7,1.7,-1.7c.9,0,1.7,.8,1.7,1.7c0,1,-.8,1.7,-1.7,1.7c-1,0,-1.7,-.7,-1.7,-1.7Z" class="g6_234"/>
<path d="M235.6,939.9c0,-.9,.7,-1.7,1.7,-1.7c.9,0,1.7,.8,1.7,1.7c0,1,-.8,1.7,-1.7,1.7c-1,0,-1.7,-.7,-1.7,-1.7Z" class="gf_234"/>
<path d="M216.5,914.5c0,-.9,.8,-1.7,1.7,-1.7c.9,0,1.7,.8,1.7,1.7c0,1,-.8,1.8,-1.7,1.8c-.9,0,-1.7,-.8,-1.7,-1.8Z" class="g8_234"/>
<path d="M216.5,914.5c0,-.9,.8,-1.7,1.7,-1.7c.9,0,1.7,.8,1.7,1.7c0,1,-.8,1.8,-1.7,1.8c-.9,0,-1.7,-.8,-1.7,-1.8Z" class="gg_234"/>
<path clip-path="url(#c1_234)" d="M163.2,1035.8V847" class="gh_234"/>
<path fill-rule="evenodd" d="M163.2,847l-2.4,1.6l2.4,-6.4l2.4,6.4Z" class="g1_234"/>
<path clip-path="url(#c1_234)" d="M69.3,939.8H273.5" class="gh_234"/>
<path clip-path="url(#c2_234)" fill-rule="evenodd" d="M273.5,939.8l-1.6,-2.4l6.4,2.4l-6.4,2.4Z" class="g1_234"/>
<path d="M222.4,902.6H202.8" class="gi_234"/>
<path d="M216.8,889l-53.6,50.8m39.6,-37.2l15.4,11.9" class="gj_234"/>
<path d="M178,930.8c2.3,2.3,3.7,5.5,3.7,9.1" class="gk_234"/>
<path d="M175.6,928.5l4.2,1.9l-1.8,.4l-.5,1.9Z" class="g1_234"/>
<path d="M94.5,934.3h24.8" class="gl_234"/>
<path d="M90.8,934.3l4.8,-1.8l-1.1,1.8l1.1,1.8Z" class="g1_234"/>
<path d="M131.4,934.3h28.2" class="gl_234"/>
<path d="M163.2,934.3l-4.8,1.8l1.2,-1.8l-1.2,-1.8Z" class="g1_234"/>
<path d="M201.1,902.6c0,-1,.8,-1.7,1.7,-1.7c1,0,1.7,.7,1.7,1.7c0,.9,-.7,1.7,-1.7,1.7c-.9,0,-1.7,-.8,-1.7,-1.7Z" class="g1_234"/>
<path d="M201.1,902.6c0,-1,.8,-1.7,1.7,-1.7c1,0,1.7,.7,1.7,1.7c0,.9,-.7,1.7,-1.7,1.7c-.9,0,-1.7,-.8,-1.7,-1.7Z" class="gm_234"/>
</svg>