<?xml version="1.0" encoding="UTF-8" standalone="no"?>
<!DOCTYPE svg PUBLIC "-//W3C//DTD SVG 1.1//EN"
"http://www.w3.org/Graphics/SVG/1.1/DTD/svg11.dtd">
<svg viewBox="0 0 907 1045" version="1.1" xmlns="http://www.w3.org/2000/svg" xmlns:xlink="http://www.w3.org/1999/xlink">
<defs>
<clipPath id="c0_551"><path d="M83.6,781.6V710.8h90.8v70.8Z"/></clipPath>
<clipPath id="c1_551"><path d="M-2.6,1047.7V-2.6H910.2V1047.7Z"/></clipPath>
<style type="text/css"><![CDATA[
.g0_551{
fill: #B8B8B8;
}
.g1_551{
fill: none;
stroke: #000000;
stroke-width: 1.675;
stroke-linecap: butt;
stroke-linejoin: miter;
stroke-miterlimit: 4;
}
.g2_551{
fill: none;
stroke: #636363;
stroke-width: 1.527;
stroke-linecap: butt;
stroke-linejoin: miter;
stroke-miterlimit: 4;
}
.g3_551{
fill: none;
stroke: #000000;
stroke-width: 1.527;
stroke-linecap: butt;
stroke-linejoin: miter;
stroke-miterlimit: 4;
}
.g4_551{
fill: #FFFFFF;
}
.g5_551{
fill: none;
stroke: #FFFFFF;
stroke-width: 1.527;
stroke-linecap: butt;
stroke-linejoin: miter;
stroke-miterlimit: 4;
}
.g6_551{
fill: none;
stroke: #FFFFFF;
stroke-width: 1.909;
stroke-linecap: butt;
stroke-linejoin: miter;
}
.g7_551{
fill: none;
stroke: #000000;
stroke-width: 0.381;
stroke-linecap: butt;
stroke-linejoin: miter;
}
]]></style>
</defs>
<path d="M102.2,125.8c5.4,0,9.8,-4.4,9.8,-9.8c0,-5.4,-4.4,-9.7,-9.8,-9.7c-5.4,0,-9.8,4.3,-9.8,9.7c0,5.4,4.4,9.8,9.8,9.8Z" class="g0_551"/>
<path d="M102.2,125.8c5.4,0,9.8,-4.4,9.8,-9.8c0,-5.4,-4.4,-9.7,-9.8,-9.7c-5.4,0,-9.8,4.3,-9.8,9.7c0,5.4,4.4,9.8,9.8,9.8Z" class="g1_551"/>
<path d="M412.5,292.2c-4.8,0,-9.1,-.7,-13.4,1.9c-5.3,3.2,-11.5,13,-11.4,19.4c.1,2.7,1.2,6.2,1.9,8.9c1,3.6,2.9,7.4,4.2,10.9c.9,2.3,2,4.7,3.6,6.7c1,1.2,3,4,4.8,4.1c-1.6,-.7,-3.8,-1.2,-5.7,-1.7C394.7,342,392,340,390.3,340c.9,-.1,2.2,1.3,2.9,1.6c1,.5,6,2.3,7,2c.6,-.2,2.1,-2,2.5,-2.6c1.3,-1.5,3.2,-4.3,2.9,-6.4m149,32.4c-2.7,-.9,-3.5,-.3,-6.2,.6c-5.3,1.7,-10.7,3,-16,4.7c-5.9,1.9,-11.7,3.9,-17.6,5.7c-2,.6,-4.2,1,-6.2,1.5c-.3,0,-4.8,1.4,-4.8,1.4c-3.1,-1.4,2.3,-4.2,2.8,-5.5c-1.5,.5,-2.4,1.9,-3.5,2.9c-1,.8,-4.8,2.8,-5,4.1c-.7,4.2,9.8,2.6,12.4,2.6m99.1,55c-1.1,-.2,-2.2,-.1,-3.3,.3c-3.3,.6,-6,.7,-9.4,.8c-3.3,.1,-6.5,1.1,-9.9,1.2c-3.4,.2,-6.9,0,-10.2,0c-6.3,0,-12.9,.8,-19,-.8c-6.2,-1.7,-12.5,-1.9,-18.7,-3.8c-3.4,-1,-6.8,-1.2,-10.2,-2.2c-4,-1.1,-8,-1.7,-12,-2.6c-5.4,-1.3,-11.8,-2.2,-16.9,-4.6c.7,-2.5,2.4,-2.9,4.4,-3.9c.4,-.2,.9,-.9,1.4,-1.2c.7,-.4,1.4,-.1,2,-.7c-1.3,1.3,-2.8,2.1,-4.4,3.1c-1.4,.7,-2.7,1.6,-4,2.5c-1.5,.6,-3.4,0,-4.6,1.1c1.2,1.7,3.5,2.8,5,4.2c1.2,1.2,1.9,2.8,3.1,4" class="g2_551"/>
<path d="M95.6,737.1V952.6H816V737.1H95.6Z" class="g3_551"/>
<path d="M64.5,721.4v60.8h326V721.4H64.5Z" class="g4_551"/>
<path d="M64.5,721.4v60.8h326V721.4H64.5Z" class="g5_551"/>
<image clip-path="url(#c0_551)" preserveAspectRatio="none" x="84" y="711" width="90" height="71" xlink:href="img/1.jpg"/>
<path d="M277.5,615.6c-6.2,.3,-12.4,3.5,-18.6,1.5c-5.3,-1.8,-8.2,-3.7,-6.4,-9.5c.6,-2.2,1.4,-4.2,1.2,-6.6c-.1,-1.9,-1,-3.6,-.7,-5.6c.3,-2.8,3,-6.1,2.7,-8.7c-3.6,2.3,-6.4,5.7,-9.9,8.1c.9,-1.3,3.2,-2.3,4.5,-3c1.1,-.7,2.7,-1.8,4,-1.7c5,.5,7.5,6.5,13.1,6M665.5,853.9c4.1,6.8,4.6,14.8,1,22c-4.6,9.3,-13.8,12.8,-23.4,15c-5.4,1.2,-10.3,2.3,-15.7,1.1c-4.5,-1,-8.6,-.4,-13.1,-2.1c-4.3,-1.7,-9.5,-4.4,-13,-7.5c-1.9,-1.7,-3.1,-4.4,-5.3,-5.6c-1.8,2.4,-.6,8.1,-.6,11c0,-1.6,0,-2.9,-.3,-4.5c-.4,-1.5,-2,-3.3,-.9,-4.9c1.8,-2.6,4,.2,5.9,.8c2.1,.8,5.6,.9,7.7,0c.1,-.6,.1,-1.3,0,-2m32,-67.7c-3.3,-3.2,-8.1,-4,-12.4,-4.8c-2.8,-.5,-5.2,-1.9,-7.9,-2.5c-2.5,-.5,-5,-.9,-7.5,-1.4c-5.8,-1.2,-12.1,-1.8,-18,-2c-3.9,-.2,-8.2,-.4,-12.1,.1c-9.1,1,-17.3,4.2,-25.7,7.2c-2.9,1,-5.7,1.9,-8.5,2.9c-1.7,.6,-6.6,1.7,-7.2,3.5c0,-.2,.1,-.4,.1,-.7c-.6,.3,-1.3,.1,-1.8,.5c1,-1.5,6.6,-5.3,6.3,-6.9c-1.5,.4,-3.1,2.6,-4.1,3.7c-.8,1.1,-3.9,3.7,-3,5.4c1.5,2.6,7.6,-2,8,.4m86.1,12.9c-12,2,-23.8,3.9,-35.6,6.3c-5.8,1.2,-11.6,2.4,-17.3,3.7c-5,1.1,-9.7,2.3,-14.7,3.1c-6.3,.9,-12.6,2.2,-18.9,3.2c-2.3,.3,-4.5,.8,-6.8,1.1c-2,.2,-4.2,1.2,-6.1,1.2c1.8,-2.7,4.8,-4,7.5,-5.5c-1.5,1.3,-3,2.4,-4.6,3.5c-1.4,1,-5.2,3.6,-4.6,5.5c1.4,0,2.6,.3,4,.5c4.3,.4,8.7,-.7,13,-.5" class="g2_551"/>
<g clip-path="url(#c1_551)">
<path d="M-4.5,13.7H-27.4m939.5,0H935M-4.5,1031.2H-27.4m939.5,0H935M13.7,-4.5V-27.4m0,1077v22.9m880,-1077V-27.4m0,1077v22.9" class="g6_551"/>
<path d="M-4.5,13.7H-27.4m939.5,0H935M-4.5,1031.2H-27.4m939.5,0H935M13.7,-4.5V-27.4m0,1077v22.9m880,-1077V-27.4m0,1077v22.9" class="g7_551"/>
</g>
</svg>