<?xml version="1.0" encoding="UTF-8" standalone="no"?>
<!DOCTYPE svg PUBLIC "-//W3C//DTD SVG 1.1//EN"
"http://www.w3.org/Graphics/SVG/1.1/DTD/svg11.dtd">
<svg viewBox="0 0 811 1017" version="1.1" xmlns="http://www.w3.org/2000/svg" xmlns:xlink="http://www.w3.org/1999/xlink">
<defs>
<style type="text/css"><![CDATA[
.g0_45{
fill: #70A6CC;
}
.g1_45{
fill: #000;
}
]]></style>
</defs>
<path d="M142.4,384.1H710.7V362.8H142.4Z" class="g0_45"/>
<path d="M347.1,487.3v3.2l-.2,-.1l-6.4,-2.9l-.3,-.2l.3,-.2l6.4,-2.9l.2,-.1v.5l-6.4,2.9l-.2,-.4h.2l6.4,3l-.2,.3l-.1,-.2v-2.9Z" class="g1_45"/>
<path d="M346.8,487.3h.3v-2.9h-.3Z" class="g1_45"/>
<path d="M347,487.5h.1v-.4H347Z" class="g1_45"/>
<path d="M347.1,487.5h33.2v-.4H347.1Z" class="g1_45"/>
<path d="M362.5,550.7h.3V522.9h-.3Z" class="g1_45"/>
<path d="M317,536.3v3.2l-.3,-.1l-6.3,-3l-.4,-.1l.4,-.2l6.3,-3l.3,-.1v.3l-.1,.2l-6.3,2.9l-.2,-.3h.2l6.3,2.9l-.2,.4l-.1,-.2v-2.9Z" class="g1_45"/>
<path d="M316.6,536.3h.4v-3h-.4Z" class="g1_45"/>
<path d="M316.8,536.4h.2v-.3h-.2Z" class="g1_45"/>
<path d="M317,536.4h45.8v-.3H317Z" class="g1_45"/>
<path d="M347.1,594.6h.4V566.8h-.4Z" class="g1_45"/>
<path d="M328,566.8V570l-.3,-.1L321.5,567l-.4,-.2l.4,-.2l6.2,-2.9l.3,-.1v.2l-.1,.2l-6.2,3l-.2,-.4h.2l6.2,2.9l-.2,.4l-.1,-.2v-2.9Z" class="g1_45"/>
<path d="M327.6,566.8h.4v-3h-.4Z" class="g1_45"/>
<path d="M327.9,567h.2v-.4h-.2Z" class="g1_45"/>
<path d="M328.1,567h19.4v-.4H328.1Z" class="g1_45"/>
</svg>