<?xml version="1.0" encoding="UTF-8" standalone="no"?>
<!DOCTYPE svg PUBLIC "-//W3C//DTD SVG 1.1//EN"
"http://www.w3.org/Graphics/SVG/1.1/DTD/svg11.dtd">
<svg viewBox="0 0 907 1045" version="1.1" xmlns="http://www.w3.org/2000/svg" xmlns:xlink="http://www.w3.org/1999/xlink">
<defs>
<clipPath id="c0_588"><path d="M639.7,518.6V286.8h166V518.6Z"/></clipPath>
<clipPath id="c1_588"><path d="M-2.6,1047.7V-2.6H910.2V1047.7Z"/></clipPath>
<style type="text/css"><![CDATA[
.g0_588{
fill: #FFFFFF;
}
.g1_588{
fill: none;
stroke: #000000;
stroke-width: 1.527;
stroke-linecap: butt;
stroke-linejoin: miter;
stroke-miterlimit: 4;
}
.g2_588{
fill: none;
stroke: #636363;
stroke-width: 1.527;
stroke-linecap: butt;
stroke-linejoin: miter;
stroke-miterlimit: 4;
}
.g3_588{
fill: none;
stroke: #FFFFFF;
stroke-width: 1.909;
stroke-linecap: butt;
stroke-linejoin: miter;
}
.g4_588{
fill: none;
stroke: #000000;
stroke-width: 0.381;
stroke-linecap: butt;
stroke-linejoin: miter;
}
]]></style>
</defs>
<image clip-path="url(#c0_588)" preserveAspectRatio="none" x="640" y="287" width="166" height="232" xlink:href="img/1.jpg"/>
<path d="M637.2,268.8c-2.7,.8,-2.2,3.9,-1.8,6.1c4.2,2.1,8.2,1.9,10.1,-2.7c-1.8,-1.4,-6.8,-6.4,-8.3,-2.3Z" class="g0_588"/>
<path d="M637.2,268.8c-2.7,.8,-2.2,3.9,-1.8,6.1c4.2,2.1,8.2,1.9,10.1,-2.7c-1.8,-1.4,-6.8,-6.4,-8.3,-2.3" class="g1_588"/>
<path d="M649.9,283.6c-3.9,-1.3,-3.2,3.3,-2.8,5.8c2.6,-.6,5.1,5,6.5,-.2c1,-3.3,-2.6,-6.2,-5.7,-5.6Z" class="g0_588"/>
<path d="M649.9,283.6c-3.9,-1.3,-3.2,3.3,-2.8,5.8c2.6,-.6,5.1,5,6.5,-.2c1,-3.3,-2.6,-6.2,-5.7,-5.6" class="g1_588"/>
<path d="M438.3,200.2c-7.2,-1,-11.2,7.5,-11.6,10.4c-.5,3.6,2.4,6.2,6.4,8.8c2.6,1.7,5.3,1.8,8.2,3.1c-2.7,3.6,-4.3,6.1,-1.8,10.5c3.2,5.5,14.7,15.1,23.4,18c3.1,1,7.8,.2,9.8,2c1.7,1.5,1.1,3.8,2.9,5.5c5,4.8,15.4,7.8,24.1,8.4c6.2,.4,22.9,.5,26.7,-4.4c2.1,.9,3.7,2.7,5.7,3.9c8.7,5.3,17.9,5.9,30.2,6.9c10.7,.9,17.9,-.5,26.7,-4.5c3.1,-1.5,8.4,-3.2,9.8,-5.5c11,6.4,30.3,3.7,42.8,.6c12,-3,22.8,-7.6,21.7,-16.2c1.5,3,14.7,-2.3,16.6,-3c6.4,-2.5,9.8,-4.7,13.6,-8.6c3.3,-3.2,6.6,-5.8,6.3,-9.8c.4,-1.7,-.3,-3.3,-2.1,-4.7c-1.5,-1.3,-7.8,-2.9,-8,-4.7c4.4,-1.7,7.9,-3,10.6,-5.8c4.9,-5.1,3.5,-12.5,0,-17.9C694,183.7,676.1,180.1,660.6,180.6c4.2,-1.1,8.8,-3,8.1,-6.2c-.5,-2,-6.7,-5.4,-8.9,-6.6c-4.9,-2.8,-6.4,-2.4,-13.9,-3.1c-19.4,-1.7,-35.6,-2.5,-54.3,.9c-8.2,1.6,-24.9,4.4,-25.8,11.2c1.7,-3.9,-4.9,-7.5,-9.7,-9.1c-11.7,-3.8,-24.1,-3.5,-36.9,-2.6c-9,.8,-37.5,4.6,-31.4,13.8c-8.1,-5.9,-26.9,-.4,-34.6,3.5c-2.3,1.2,-24.4,17.4,-14.9,18.5Z" class="g0_588"/>
<path d="M438.3,200.2c-7.2,-1,-11.2,7.5,-11.6,10.4c-.5,3.6,2.4,6.2,6.4,8.8c2.6,1.7,5.3,1.8,8.2,3.1c-2.7,3.6,-4.3,6.1,-1.8,10.5c3.2,5.5,14.7,15.1,23.4,18c3.1,1,7.8,.2,9.8,2c1.7,1.5,1.1,3.8,2.9,5.5c5,4.8,15.4,7.8,24.1,8.4c6.2,.4,22.9,.5,26.7,-4.4c2.1,.9,3.7,2.7,5.7,3.9c8.7,5.3,17.9,5.9,30.2,6.9c10.7,.9,17.9,-.5,26.7,-4.5c3.1,-1.5,8.4,-3.2,9.8,-5.5c11,6.4,30.3,3.7,42.8,.6c12,-3,22.8,-7.6,21.7,-16.2c1.5,3,14.7,-2.3,16.6,-3c6.4,-2.5,9.8,-4.7,13.6,-8.6c3.3,-3.2,6.6,-5.8,6.3,-9.8c.4,-1.7,-.3,-3.3,-2.1,-4.7c-1.5,-1.3,-7.8,-2.9,-8,-4.7c4.4,-1.7,7.9,-3,10.6,-5.8c4.9,-5.1,3.5,-12.5,0,-17.9C694,183.7,676.1,180.1,660.6,180.6c4.2,-1.1,8.8,-3,8.1,-6.2c-.5,-2,-6.7,-5.4,-8.9,-6.6c-4.9,-2.8,-6.4,-2.4,-13.9,-3.1c-19.4,-1.7,-35.6,-2.5,-54.3,.9c-8.2,1.6,-24.9,4.4,-25.8,11.2c1.7,-3.9,-4.9,-7.5,-9.7,-9.1c-11.7,-3.8,-24.1,-3.5,-36.9,-2.6c-9,.8,-37.5,4.6,-31.4,13.8c-8.1,-5.9,-26.9,-.4,-34.6,3.5c-2.3,1.2,-24.4,17.4,-14.9,18.5" class="g1_588"/>
<path d="M683.3,543.9c-1.9,-.5,-4.5,-2.9,-5.7,-4.2c-1.6,-1.6,-2.3,-3.7,-2.8,-5.8c-.5,-1.6,-.5,-3.1,-.6,-4.8c-.1,-1.8,-.4,-3.5,.1,-5.3c.9,-3.1,2.8,-5.9,4.5,-8.6c-.9,1.3,-2.6,1.4,-3.8,2.4c-.6,.5,-.8,.9,-1.5,1.3c-.4,.2,-1.1,.4,-1.2,.9c.5,0,1,-.5,1.5,-.8c1.1,-.6,2.3,-1,3.5,-1.4c1,-.4,2.3,-.5,2.8,-1.5c.2,.7,0,1.2,.5,1.8c.4,.6,.6,.4,1.2,.7c1,.5,1.9,1.2,2.3,2.4" class="g2_588"/>
<g clip-path="url(#c1_588)">
<path d="M-4.5,13.7H-27.4m939.5,0H935M-4.5,1031.2H-27.4m939.5,0H935M13.7,-4.5V-27.4m0,1077v22.9m880,-1077V-27.4m0,1077v22.9" class="g3_588"/>
<path d="M-4.5,13.7H-27.4m939.5,0H935M-4.5,1031.2H-27.4m939.5,0H935M13.7,-4.5V-27.4m0,1077v22.9m880,-1077V-27.4m0,1077v22.9" class="g4_588"/>
</g>
</svg>