<?xml version="1.0" encoding="UTF-8" standalone="no"?>
<!DOCTYPE svg PUBLIC "-//W3C//DTD SVG 1.1//EN"
"http://www.w3.org/Graphics/SVG/1.1/DTD/svg11.dtd">
<svg viewBox="0 0 811 1017" version="1.1" xmlns="http://www.w3.org/2000/svg" xmlns:xlink="http://www.w3.org/1999/xlink">
<defs>
<clipPath id="c0_257"><path d="M101.1,362.4V82.5H670.9V362.4Z"/></clipPath>
<clipPath id="c1_257"><path d="M157.2,355.6V82.5H661.7V355.6Z"/></clipPath>
<style type="text/css"><![CDATA[
.g0_257{
fill: #70A6CC;
}
.g1_257{
fill: #FFFFFF;
}
.g2_257{
fill: #211E1E;
}
.g3_257{
fill: none;
stroke: #211E1E;
stroke-width: 0.763;
stroke-linecap: butt;
stroke-linejoin: miter;
stroke-miterlimit: 4;
}
.g4_257{
}
]]></style>
</defs>
<path d="M156.1,447H724.4V425.1H156.1Z" class="g0_257"/>
<path d="M156.1,772.8H724.4V751H156.1Z" class="g0_257"/>
<path clip-path="url(#c0_257)" d="M157.2,355.6H661.7V82.5H157.2Z" class="g1_257"/>
<path d="M557,106.5h38.9V99c0,-2.4,1.1,-4.5,3,-5.8v-.6c0,-1,.1,-1.9,.2,-2.8H557c-4.6,0,-8.3,3.8,-8.3,8.4c0,4.6,3.7,8.3,8.3,8.3ZM572.4,96.1c1.1,0,2.1,.9,2.1,2.1c0,1.1,-1,2,-2.1,2c-1.2,0,-2.1,-.9,-2.1,-2c0,-1.2,.9,-2.1,2.1,-2.1Zm-6.5,0c1.2,0,2.1,.9,2.1,2.1c0,1.1,-.9,2,-2.1,2c-1.1,0,-2.1,-.9,-2.1,-2c0,-1.2,1,-2.1,2.1,-2.1Zm-8.5,-2c2.2,0,4,1.8,4,4.1c0,2.2,-1.8,4,-4,4c-2.3,0,-4.1,-1.8,-4.1,-4c0,-2.3,1.8,-4.1,4.1,-4.1Z" class="g2_257"/>
<path d="M573.4,144.5c0,-.9,.2,-1.8,.4,-2.7H554c-1.5,0,-2.7,1.2,-2.7,2.7c0,1.5,1.2,2.7,2.7,2.7h19.8c-.2,-.8,-.4,-1.7,-.4,-2.7Z" class="g2_257"/>
<path d="M615.9,144.5c0,-1.5,-1.3,-2.7,-2.8,-2.7H593.2c.2,.9,.4,1.8,.4,2.7c0,1,-.2,1.9,-.4,2.7h19.9c1.5,0,2.8,-1.2,2.8,-2.7Z" class="g2_257"/>
<path clip-path="url(#c1_257)" d="M603,117.2h21.4c1.6,0,2.8,-1.2,2.8,-2.8V99.1c0,-1.6,-1.2,-2.8,-2.8,-2.8h-.1V92.6C624.3,86.8,619.6,82,613.8,82c-5.8,0,-10.6,4.8,-10.6,10.6v3.7H603c-1.6,0,-2.8,1.2,-2.8,2.8v15.3c0,1.5,1.2,2.8,2.8,2.8Zm12.3,-9.8c-.2,.2,-.2,.3,-.2,.6c0,1.1,0,2.2,0,3.4c0,.4,-.2,.9,-.7,1.1c-.9,.5,-1.9,-.2,-1.9,-1.1c0,-1.1,0,-2.3,0,-3.4c0,-.2,-.1,-.4,-.3,-.5c-1,-.8,-1.3,-2.1,-.8,-3.2c.5,-1.1,1.7,-1.7,2.8,-1.5c1.3,.2,2.2,1.3,2.2,2.5c0,.9,-.3,1.6,-1.1,2.1ZM607.8,92.6c0,-3.3,2.7,-6,6,-6c3.3,0,5.9,2.7,5.9,6v3.7H607.9V92.6h-.1Z" class="g2_257"/>
<path d="M557,128.4h23.8v10.5c-2.1,1,-3.6,3.1,-3.6,5.6c0,3.5,2.8,6.3,6.3,6.3c3.5,0,6.3,-2.8,6.3,-6.3c0,-2.5,-1.5,-4.6,-3.6,-5.6V128.4h25.4c4.1,0,7.5,-2.9,8.2,-6.9H603c-4,0,-7.1,-3.2,-7.1,-7.1v-2.6H557c-4.6,0,-8.3,3.7,-8.3,8.3c0,4.6,3.7,8.3,8.3,8.3ZM572.4,118c1.1,0,2.1,1,2.1,2.1c0,1.2,-1,2.1,-2.1,2.1c-1.2,0,-2.1,-.9,-2.1,-2.1c0,-1.1,.9,-2.1,2.1,-2.1Zm-6.5,0c1.2,0,2.1,1,2.1,2.1c0,1.2,-.9,2.1,-2.1,2.1c-1.1,0,-2.1,-.9,-2.1,-2.1c0,-1.1,1,-2.1,2.1,-2.1Zm-8.5,-1.9c2.2,0,4,1.8,4,4c0,2.3,-1.8,4.1,-4,4.1c-2.3,0,-4.1,-1.8,-4.1,-4.1c0,-2.2,1.8,-4,4.1,-4Z" class="g2_257"/>
<path d="M254,136.6c0,-1.2,-.5,-2.2,-1.4,-2.9c-4.7,-3.9,-9.8,-6.4,-10.8,-6.9c-.1,-.1,-.2,-.2,-.2,-.3v-7.4c.9,-.6,1.5,-1.6,1.5,-2.8v-7.6c0,-3.8,-3,-6.9,-6.8,-6.9h-1.7c-3.8,0,-6.8,3.1,-6.8,6.9v7.6c0,1.2,.6,2.2,1.5,2.8v7.4c0,.1,-.1,.2,-.2,.3c-1,.5,-6.1,3,-10.8,6.9c-.9,.7,-1.4,1.8,-1.4,2.9v5.2h37v-5.2h.1Z" class="g2_257"/>
<path d="M210.5,100H210c-.5,-.1,-1.1,-.2,-1.7,-.3c-2,-.4,-3.8,-1.3,-6,-2.8c-.3,-.2,-.7,-.5,-1.2,-.5c-.6,0,-.9,.3,-1.3,.5c-2.8,2,-5.3,2.9,-8,3.1c-.7,0,-1.8,.3,-1.8,2v2.6c0,1.8,0,3.5,0,5.3c0,.7,.1,1.5,.3,2.3c.4,1.8,1.3,3.4,2.8,4.9c1.9,2,4.3,3.4,7.3,4.6c.2,0,.4,.1,.6,.1c.3,0,.6,-.1,.8,-.2l.8,-.4c.6,-.2,1.3,-.5,1.9,-.8c2.4,-1.3,4.2,-2.8,5.6,-4.6c1.2,-1.6,1.9,-3.4,2,-5.1c0,-1.2,0,-2.4,0,-3.6v-5.2c0,-1,-.6,-1.7,-1.6,-1.9Zm-1.1,10.6c0,1.2,-.5,2.4,-1.4,3.6c-1.1,1.5,-2.6,2.8,-4.6,3.8c-.6,.3,-1.2,.6,-1.8,.8c-.2,.1,-.3,.2,-.5,.3v-9.8h-8.4c-.1,-1.6,0,-3.1,0,-4.7v-2c2.8,-.3,5.5,-1.3,8.4,-3.3v10.1h8.4c0,.4,0,.8,-.1,1.2Z" class="g2_257"/>
<path d="M165.5,141.8h47.4v-5.2c0,-2.4,1.1,-4.5,2.8,-6c1.6,-1.3,3.2,-2.4,4.6,-3.4H172.8V91.1c0,0,0,-.1,0,-.1h56.7v8.1c1.5,-.8,3.3,-1.3,5.1,-1.3h1.7q.1,0,.2,0V91.1c0,-3.9,-3.2,-7.1,-7,-7.1H172.8c-3.9,0,-7.1,3.2,-7.1,7.1v35.7c0,.9,-.3,1.8,-.9,2.5l-3.6,4.5c-.3,.3,-.4,.7,-.4,1.2v2c0,2.6,2.1,4.8,4.7,4.8Zm28,-7.5h15.2v.5c0,1.3,-1.1,2.4,-2.4,2.4H195.9c-1.4,0,-2.5,-1.1,-2.5,-2.4v-.5h.1Z" class="g2_257"/>
<path d="M266.7,112.9l253.8,.3" class="g3_257"/>
<path d="M519,115.4l8.3,-2.2L519,111v4.4Z" class="g2_257"/>
<path d="M526.7,129.5L273,129.1" class="g3_257"/>
<path d="M274.5,126.9l-8.3,2.2l8.3,2.3v-4.5Z" class="g2_257"/>
<path d="M553.5,276.1h38.8v-7.4c0,-2.4,1.2,-4.6,3.1,-5.8v-.7c0,-.9,.1,-1.8,.2,-2.7H553.5c-4.6,0,-8.4,3.7,-8.4,8.3c0,4.6,3.8,8.3,8.4,8.3Zm15.4,-10.4c1.1,0,2.1,.9,2.1,2.1c0,1.2,-1,2.1,-2.1,2.1c-1.2,0,-2.1,-.9,-2.1,-2.1c-.1,-1.1,.9,-2.1,2.1,-2.1Zm-6.5,0c1.2,0,2.1,.9,2.1,2.1c0,1.2,-.9,2.1,-2.1,2.1c-1.1,0,-2.1,-.9,-2.1,-2.1c0,-1.1,1,-2.1,2.1,-2.1Zm-8.5,-2c2.2,0,4,1.9,4,4.1c0,2.2,-1.8,4.1,-4,4.1c-2.3,0,-4.1,-1.9,-4.1,-4.1c0,-2.2,1.8,-4.1,4.1,-4.1Z" class="g2_257"/>
<path d="M569.9,314.2c0,-1,.1,-1.9,.4,-2.7H550.5c-1.5,0,-2.7,1.2,-2.7,2.7c0,1.5,1.2,2.7,2.7,2.7h19.8c-.3,-.9,-.4,-1.8,-.4,-2.7Z" class="g2_257"/>
<path d="M612.3,314.2c0,-1.5,-1.2,-2.7,-2.7,-2.7H589.7c.2,.8,.4,1.7,.4,2.7c0,.9,-.2,1.8,-.4,2.7h19.9c1.5,0,2.7,-1.2,2.7,-2.7Z" class="g2_257"/>
<path d="M599.5,286.8h21.4c1.5,0,2.8,-1.2,2.8,-2.7V268.7c0,-1.5,-1.3,-2.8,-2.8,-2.8h-.1v-3.7c0,-5.8,-4.7,-10.5,-10.5,-10.5c-5.9,0,-10.6,4.7,-10.6,10.5v3.7h-.2c-1.6,0,-2.8,1.3,-2.8,2.8v15.4c0,1.5,1.2,2.7,2.8,2.7Zm12.3,-9.7c-.2,.1,-.2,.3,-.2,.5c0,1.2,0,2.3,0,3.4c0,.5,-.3,.9,-.7,1.2c-1,.5,-1.9,-.2,-1.9,-1.2c0,-1.1,0,-2.2,0,-3.4c0,-.2,-.1,-.3,-.3,-.5c-1,-.7,-1.4,-2,-.9,-3.2c.5,-1.1,1.8,-1.7,2.9,-1.5c1.3,.3,2.2,1.3,2.2,2.6c0,.8,-.3,1.5,-1.1,2.1Zm-7.5,-14.9c0,-3.2,2.7,-5.9,6,-5.9c3.3,0,5.9,2.6,5.9,5.9v3.7H604.3v-3.7Z" class="g2_257"/>
<path d="M553.5,298.1h23.8v10.4c-2.2,1,-3.6,3.2,-3.6,5.7c0,3.4,2.8,6.2,6.3,6.2c3.4,0,6.3,-2.8,6.3,-6.2c0,-2.5,-1.5,-4.7,-3.6,-5.7V298.1h25.4c4.1,0,7.5,-3,8.1,-6.9H599.5c-4,0,-7.2,-3.2,-7.2,-7.1v-2.7H553.5c-4.6,0,-8.4,3.8,-8.4,8.4c0,4.6,3.8,8.3,8.4,8.3Zm15.4,-10.4c1.1,0,2.1,.9,2.1,2.1c0,1.1,-1,2.1,-2.1,2.1c-1.2,0,-2.1,-1,-2.1,-2.1c-.1,-1.2,.9,-2.1,2.1,-2.1Zm-6.5,0c1.2,0,2.1,.9,2.1,2.1c0,1.1,-.9,2.1,-2.1,2.1c-1.1,0,-2.1,-1,-2.1,-2.1c0,-1.2,1,-2.1,2.1,-2.1Zm-8.5,-2c2.2,0,4,1.8,4,4.1c0,2.2,-1.8,4,-4,4c-2.3,0,-4.1,-1.8,-4.1,-4c0,-2.3,1.8,-4.1,4.1,-4.1Z" class="g2_257"/>
<path d="M250.4,306.2c0,-1.1,-.5,-2.2,-1.3,-2.8c-4.7,-3.9,-9.8,-6.5,-10.8,-7c-.1,0,-.2,-.2,-.2,-.3v-7.3c.9,-.6,1.5,-1.7,1.5,-2.9v-7.6c0,-3.8,-3.1,-6.9,-6.9,-6.9h-1.6c-3.8,0,-6.9,3.1,-6.9,6.9v7.6c0,1.2,.6,2.2,1.6,2.9v7.3c0,.1,-.1,.3,-.2,.3c-1.1,.5,-6.1,3.1,-10.9,7c-.8,.7,-1.3,1.7,-1.3,2.8v5.2h37v-5.2Z" class="g2_257"/>
<path d="M207,269.7l-.5,-.1c-.6,-.1,-1.1,-.1,-1.7,-.3c-2,-.4,-3.9,-1.3,-6,-2.8c-.3,-.2,-.7,-.5,-1.2,-.5c-.6,0,-.9,.3,-1.3,.5c-2.8,2,-5.3,3,-8,3.2c-.7,0,-1.8,.3,-1.8,1.9v2.6c0,1.8,0,3.6,0,5.3c0,.8,.1,1.5,.2,2.3c.4,1.8,1.4,3.4,2.9,5c1.9,1.9,4.2,3.4,7.3,4.5c.2,.1,.4,.1,.6,.1c.3,0,.6,-.1,.8,-.2l.8,-.3c.6,-.3,1.3,-.6,1.9,-.9c2.4,-1.2,4.2,-2.8,5.6,-4.6c1.2,-1.6,1.9,-3.3,1.9,-5.1c.1,-1.2,.1,-2.4,.1,-3.5v-5.3c0,-1,-.6,-1.7,-1.6,-1.8Zm-1.1,10.5c0,1.3,-.5,2.4,-1.4,3.6c-1.1,1.5,-2.7,2.8,-4.7,3.9c-.6,.3,-1.1,.5,-1.7,.8c-.2,0,-.4,.1,-.6,.2V279h-8.4c0,-1.6,0,-3.2,0,-4.8v-1.9c2.8,-.3,5.6,-1.4,8.4,-3.4V279H206c0,.4,-.1,.8,-.1,1.2Z" class="g2_257"/>
<path d="M162,311.4h47.4v-5.2c0,-2.3,1.1,-4.5,2.8,-5.9c1.6,-1.3,3.1,-2.4,4.6,-3.4H169.2V260.7h56.7q.1,0,.1,0v8.1c1.5,-.9,3.3,-1.4,5.1,-1.4h1.7c0,0,.1,.1,.2,.1v-6.8c0,-3.9,-3.2,-7,-7.1,-7H169.3c-3.9,0,-7.1,3.1,-7.1,7v35.7c0,.9,-.3,1.8,-.9,2.5l-3.6,4.5c-.3,.3,-.5,.8,-.5,1.2v2c0,2.7,2.2,4.8,4.8,4.8Zm27.9,-7.5h15.3v.5c0,1.4,-1.1,2.5,-2.4,2.5H192.4c-1.4,0,-2.5,-1.1,-2.5,-2.5v-.5Z" class="g2_257"/>
<path d="M263.2,282.5l253.8,.3" class="g3_257"/>
<path d="M515.5,285.1l8.3,-2.3l-8.3,-2.2v4.5Z" class="g2_257"/>
<path d="M523.2,299.1l-253.8,-.3" class="g3_257"/>
<path d="M271,296.6l-8.3,2.2L271,301v-4.4Z" class="g2_257"/>
<path d="M397.8,510.7v3.2l-.2,-.1l-6.3,-2.9l-.3,-.2l.3,-.2l6.3,-2.9l.2,-.1v.2l-.1,.2l-6.2,3l-.2,-.4h.2l6.2,2.9l-.1,.4l-.1,-.2v-2.9Z" class="g4_257"/>
<path d="M397.5,510.7h.3v-3h-.3Z" class="g4_257"/>
<path d="M417.1,549.6h.3V510.5h-.3Z" class="g4_257"/>
<path d="M397.8,510.9h19.5v-.4H397.8Z" class="g4_257"/>
<path d="M383,586.9v3.3l-.3,-.1l-6.3,-3l-.4,-.2l.4,-.1l6.3,-3l.3,-.1v.3l-.1,.2l-6.3,2.9l-.2,-.3h.2l6.3,2.9l-.2,.4l-.1,-.2v-3Z" class="g4_257"/>
<path d="M382.6,586.9h.4V584h-.4Z" class="g4_257"/>
<path d="M402.2,613.2h.4V586.8h-.4Z" class="g4_257"/>
<path d="M383,587.1h19.4v-.3H383Z" class="g4_257"/>
<path d="M439.4,895.5v3.2l-.3,-.1l-6.3,-2.9l-.4,-.2l.4,-.2l6.3,-2.9l.3,-.1v.3l-.1,.1l-6.4,3l-.1,-.4h.1l6.4,2.9l-.2,.4l-.1,-.2v-2.9Z" class="g4_257"/>
<path d="M439,895.5h.4v-2.9H439Z" class="g4_257"/>
<path d="M439.4,895.7h73.7v-.4H439.4Z" class="g4_257"/>
<path d="M512.7,895.5h.4V841.9h-.4Z" class="g4_257"/>
</svg>