<?xml version="1.0" encoding="UTF-8" standalone="no"?>
<!DOCTYPE svg PUBLIC "-//W3C//DTD SVG 1.1//EN"
"http://www.w3.org/Graphics/SVG/1.1/DTD/svg11.dtd">
<svg viewBox="0 0 931 1096" version="1.1" xmlns="http://www.w3.org/2000/svg" xmlns:xlink="http://www.w3.org/1999/xlink">
<defs>
<clipPath id="c0_244"><path d="M53.5,364.2v-156H214.8v156Z"/></clipPath>
<clipPath id="c1_244"><path d="M152.5,531.3V515.2h83.3v16.1Z"/></clipPath>
<clipPath id="c2_244"><path d="M198.6,614.2V598.5h93.9v15.7Z"/></clipPath>
<clipPath id="c3_244"><path d="M100.9,635.3V616.9h85.4v18.4Z"/></clipPath>
<clipPath id="c4_244"><path d="M352.2,819.1V803.3h19.1v15.8Z"/></clipPath>
<style type="text/css"><![CDATA[
.g0_244{
fill: none;
stroke: #241F1F;
stroke-width: 0.763;
stroke-miterlimit: 10;
}
.g1_244{
fill: none;
stroke: #241F1F;
stroke-width: 0.534;
stroke-linecap: round;
stroke-linejoin: round;
}
.g2_244{
fill: #241F1F;
}
.g3_244{
fill: none;
stroke: #241F1F;
stroke-width: 0.381;
stroke-linecap: round;
stroke-linejoin: round;
}
.g4_244{
fill: none;
stroke: #241F1F;
stroke-width: 0.993;
stroke-linecap: round;
stroke-linejoin: round;
}
.g5_244{
fill: #D6D5D6;
}
.g6_244{
fill: none;
stroke: #241F1F;
stroke-width: 0.534;
stroke-linecap: round;
stroke-linejoin: round;
stroke-dasharray: 7,4;
}
.g7_244{
fill: none;
stroke: #241F1F;
stroke-width: 0.305;
stroke-linecap: round;
stroke-linejoin: round;
}
.g8_244{
fill: none;
stroke: #241F1F;
stroke-width: 0.687;
stroke-miterlimit: 10;
}
.g9_244{
fill: none;
stroke: #241F1F;
stroke-width: 0.481;
stroke-miterlimit: 10;
}
.ga_244{
fill: none;
stroke: #241F1F;
stroke-width: 0.446;
stroke-linecap: round;
stroke-linejoin: round;
}
.gb_244{
fill: none;
stroke: #241F1F;
stroke-width: 1.158;
stroke-miterlimit: 3;
}
.gc_244{
fill: none;
stroke: #241F1F;
stroke-width: 0.954;
stroke-miterlimit: 3;
}
.gd_244{
fill: none;
stroke: #241F1F;
stroke-width: 0.623;
stroke-linecap: round;
stroke-linejoin: round;
stroke-dasharray: 7,4;
}
.ge_244{
fill: none;
stroke: #241F1F;
stroke-width: 0.623;
stroke-linecap: round;
stroke-linejoin: round;
}
.gf_244{
fill: none;
stroke: #241F1F;
stroke-width: 0.916;
stroke-linecap: round;
stroke-linejoin: round;
}
.gg_244{
fill: none;
stroke: #241F1F;
stroke-width: 0.916;
stroke-linejoin: round;
}
.gh_244{
fill: none;
stroke: #241F1F;
stroke-width: 0.916;
stroke-linecap: round;
stroke-linejoin: round;
}
.gi_244{
fill: none;
stroke: #241F1F;
stroke-width: 0.381;
}
]]></style>
</defs>
<path d="M53.5,115.5H422.4" class="g0_244"/>
<path clip-path="url(#c0_244)" d="M53.8,291.1H200.4m-73.3,73.3V217.8" class="g1_244"/>
<path d="M200.4,291.1L199,289l5.6,2.1l-5.6,2.1Z" class="g2_244"/>
<path d="M53.8,291.1H200.4" class="g3_244"/>
<path d="M127.1,217.8l-2.1,1.4l2.1,-5.6l2.1,5.6Z" class="g2_244"/>
<g clip-path="url(#c0_244)">
<path d="M127.1,364.4V217.8" class="g3_244"/>
<path d="M182.1,364.4V217.8" class="g4_244"/>
</g>
<path d="M249.2,351.7v-110l109.6,12.2v110Z" class="g5_244"/>
<path d="M249.2,351.7v-110l109.6,12.2v110L249.2,351.7Z" class="g1_244"/>
<path d="M241.4,354.4l2.4,.7l-5.6,2l2.9,-5.3Z" class="g2_244"/>
<path d="M304,301.3l-62.6,53.1" class="g3_244"/>
<path d="M332.9,250.8v-42" class="g1_244"/>
<path d="M386.5,283.7l-1.1,-2.2l5.3,2.6l-5.8,1.5Z" class="g2_244"/>
<path d="M358.7,280.6l27.8,3.1" class="g3_244"/>
<path d="M332.9,208.8l-2.1,1.5l2.1,-5.7l2.1,5.7Z" class="g2_244"/>
<path d="M332.9,250.8v-42" class="g3_244"/>
<path d="M302.1,301.3c0,-1.1,.9,-1.9,1.9,-1.9c1.1,0,2,.8,2,1.9c0,1,-.9,1.9,-2,1.9c-1,0,-1.9,-.9,-1.9,-1.9Z" class="g2_244"/>
<path d="M302.1,301.3c0,-1.1,.9,-1.9,1.9,-1.9c1.1,0,2,.8,2,1.9c0,1,-.9,1.9,-2,1.9c-1,0,-1.9,-.9,-1.9,-1.9Z" class="g3_244"/>
<path d="M332.9,333.7V250.8m-66.3,20.7l92.1,9.1" class="g6_244"/>
<path d="M358.7,280.6l27.8,3.1" class="g1_244"/>
<path d="M358.8,256.8L304,301.3" class="g6_244"/>
<path d="M304,301.3l-62.6,53.1M376,242.9l-17.2,13.9" class="g1_244"/>
<path d="M217.4,505.4V401.3L318.1,383.1V487.3Z" class="g5_244"/>
<path d="M217.4,505.4V401.3L318.1,383.1V487.3L217.4,505.4Z" class="g1_244"/>
<path d="M234.9,468.6l-22.6,17.6" class="g3_244"/>
<path fill-rule="evenodd" d="M212.3,486.2l2.4,.7l-5.7,1.9l3.1,-5.2Z" class="g2_244"/>
<path d="M254.4,394.7v-9.6" class="g1_244"/>
<path d="M296.6,457.4l28.4,3" class="g3_244"/>
<path fill-rule="evenodd" d="M325,460.4l-1.2,-2.3l5.4,2.7l-5.8,1.5Z" class="g2_244"/>
<path d="M254.4,394.7v-9.6" class="g3_244"/>
<path fill-rule="evenodd" d="M254.4,385.1l-2.1,1.4l2.1,-5.6l2.1,5.6Z" class="g2_244"/>
<path d="M217.4,471.7L318.1,453.6" class="g4_244"/>
<path d="M254.4,498.9V394.7" class="g6_244"/>
<path d="M254.4,508.5v-9.6" class="g1_244"/>
<path d="M229.8,450.4l66.8,7" class="g6_244"/>
<path d="M296.6,457.4l28.4,3" class="g1_244"/>
<path d="M267.8,442l-32.9,26.6" class="g6_244"/>
<path d="M234.9,468.6l-22.6,17.6" class="g1_244"/>
<path d="M329.1,397.8l-23.3,3.5" class="g7_244"/>
<path d="M305.8,401.3l.7,1c0,0,-2.3,-.8,-3.5,-.7c1.2,-.1,3.2,-1.6,3.2,-1.6l-.4,1.3Z" class="g2_244"/>
<path d="M305.8,401.3l.7,1c0,0,-2.3,-.8,-3.5,-.7c1.2,-.1,3.2,-1.6,3.2,-1.6l-.4,1.3ZM329.1,444l-8.6,7.8" class="g7_244"/>
<path d="M320.5,451.8l1.3,.5c0,0,-2.4,.5,-3.3,1.3c.9,-.8,1.7,-3.1,1.7,-3.1l.3,1.3Z" class="g2_244"/>
<path d="M320.5,451.8l1.3,.5c0,0,-2.4,.5,-3.3,1.3c.9,-.8,1.7,-3.1,1.7,-3.1l.3,1.3Z" class="g7_244"/>
<path d="M233.5,468.6c0,-.7,.6,-1.3,1.4,-1.3c.8,0,1.4,.6,1.4,1.3c0,.8,-.6,1.4,-1.4,1.4c-.8,0,-1.4,-.6,-1.4,-1.4Z" class="g2_244"/>
<path d="M233.5,468.6c0,-.7,.6,-1.3,1.4,-1.3c.8,0,1.4,.6,1.4,1.3c0,.8,-.6,1.4,-1.4,1.4c-.8,0,-1.4,-.6,-1.4,-1.4Z" class="g7_244"/>
<path d="M295.3,457.4c0,-.8,.6,-1.4,1.3,-1.4c.8,0,1.4,.6,1.4,1.4c0,.7,-.6,1.3,-1.4,1.3c-.7,0,-1.3,-.6,-1.3,-1.3Z" class="g2_244"/>
<path d="M295.3,457.4c0,-.8,.6,-1.4,1.3,-1.4c.8,0,1.4,.6,1.4,1.4c0,.7,-.6,1.3,-1.4,1.3c-.7,0,-1.3,-.6,-1.3,-1.3Z" class="g7_244"/>
<path clip-path="url(#c1_244)" d="M222.4,515.6h13.8" class="g8_244"/>
<path clip-path="url(#c2_244)" d="M283.8,598.9h9.1" class="g8_244"/>
<path d="M101.2,625.4H106m7.9,0h4.8" class="g9_244"/>
<path d="M131.2,617.2h15.9" class="g8_244"/>
<path d="M153.9,625.4h4.8" class="g9_244"/>
<path clip-path="url(#c3_244)" d="M170.8,617.2h15.9" class="g8_244"/>
<path clip-path="url(#c4_244)" d="M362.7,803.6h9" class="g8_244"/>
<path d="M241.1,976.9l77.8,16.6" class="ga_244"/>
<path fill-rule="evenodd" d="M318.9,993.5l-1,-2.5l5.3,3.4l-6.2,.9Z" class="g2_244"/>
<path d="M241.1,976.9V903.3" class="ga_244"/>
<path fill-rule="evenodd" d="M241.1,903.3l-2.2,1.4l2.2,-5.8l2.2,5.8Z" class="g2_244"/>
<path d="M241.1,976.9l-39.3,24.7" class="ga_244"/>
<path fill-rule="evenodd" d="M201.8,1001.6l2.4,1l-6.1,1.3l3.8,-5Z" class="g2_244"/>
<path d="M199.9,996.2L318.3,985.8M203,894.9l98,139.6" class="gb_244"/>
<path d="M233.1,939.3c0,-.6,.5,-1.2,1.2,-1.2c.6,0,1.1,.6,1.1,1.2c0,.6,-.5,1.2,-1.1,1.2c-.7,0,-1.2,-.6,-1.2,-1.2Z" class="g2_244"/>
<path d="M233.1,939.3c0,-.6,.5,-1.2,1.2,-1.2c.6,0,1.1,.6,1.1,1.2c0,.6,-.5,1.2,-1.1,1.2c-.7,0,-1.2,-.6,-1.2,-1.2Z" class="gc_244"/>
<path d="M211.6,995.6V907.1" class="gd_244"/>
<path d="M210.5,907.1c0,-.6,.5,-1.1,1.1,-1.1c.7,0,1.2,.5,1.2,1.1c0,.7,-.5,1.2,-1.2,1.2c-.6,0,-1.1,-.5,-1.1,-1.2Z" class="g2_244"/>
<path d="M210.5,907.1c0,-.6,.5,-1.1,1.1,-1.1c.7,0,1.2,.5,1.2,1.1c0,.7,-.5,1.2,-1.2,1.2c-.6,0,-1.1,-.5,-1.1,-1.2Z" class="gc_244"/>
<path d="M291.8,1022.8c0,-.6,.5,-1.2,1.2,-1.2c.6,0,1.1,.6,1.1,1.2c0,.6,-.5,1.2,-1.1,1.2c-.7,0,-1.2,-.6,-1.2,-1.2Z" class="g2_244"/>
<path d="M291.8,1022.8c0,-.6,.5,-1.2,1.2,-1.2c.6,0,1.1,.6,1.1,1.2c0,.6,-.5,1.2,-1.1,1.2c-.7,0,-1.2,-.6,-1.2,-1.2Z" class="gc_244"/>
<path d="M268.8,989.7c0,-.7,.5,-1.2,1.1,-1.2c.7,0,1.2,.5,1.2,1.2c0,.6,-.5,1.1,-1.2,1.1c-.6,0,-1.1,-.5,-1.1,-1.1Z" class="g2_244"/>
<path d="M268.8,989.7c0,-.7,.5,-1.2,1.1,-1.2c.7,0,1.2,.5,1.2,1.2c0,.6,-.5,1.1,-1.2,1.1c-.6,0,-1.1,-.5,-1.1,-1.1Z" class="gc_244"/>
<path d="M241.1,976.9V903.3" class="ga_244"/>
<path fill-rule="evenodd" d="M241.1,903.3l-2.2,1.4l2.2,-5.8l2.2,5.8Z" class="g2_244"/>
<path d="M241.1,976.9V903.3m0,73.6l77.8,16.6M241.1,976.9l-39.3,24.7" class="ge_244"/>
<path d="M292.8,1022.9V988.1" class="gd_244"/>
<path d="M497.9,116.5h7" class="g8_244"/>
<path d="M504.9,255.2l59.5,-.1" class="gf_244"/>
<path d="M569.4,255.1l-6.5,2.5l1.5,-2.5l-1.5,-2.4Z" class="g2_244"/>
<path d="M504.9,255l35,-32.1" class="gf_244"/>
<path d="M539.9,222.9l-2.8,-.8l6.5,-2.5Z" class="g2_244"/>
<path d="M543.6,219.6l-3.1,6.2l-.6,-2.9Z" class="g2_244"/>
<path d="M568.5,255.2L546.1,223.7" class="gf_244"/>
<path d="M543.4,219.6l5.6,4.1h-2.9l-1.3,2.7Z" class="g2_244"/>
<path d="M731.9,229l-6.5,25.2" class="gf_244"/>
<path d="M724.2,259l-.9,-6.9l2.1,2.1l2.7,-.9Z" class="g2_244"/>
<path d="M668,228.8h59.5" class="gf_244"/>
<path d="M732.4,228.8l-6.5,2.5l1.6,-2.5L726,226.3Z" class="g2_244"/>
<path d="M667.9,228.9l52.6,27.9" class="gf_244"/>
<path d="M724.4,259l-6.9,-.9l2.5,-1.5l-.2,-2.9Z" class="g2_244"/>
<path d="M512.2,286.5l-6.5,25.2" class="gg_244"/>
<path d="M504.5,316.5l-.9,-6.9l2.1,2.1l2.7,-.9Z" class="g2_244"/>
<path d="M508.5,317.2l28.1,3.9" class="gf_244"/>
<path d="M504.7,316.5l6.8,-1.4l-2,2.2l1.2,2.7Z" class="g2_244"/>
<path d="M536.6,321L514.2,289.6" class="gf_244"/>
<path d="M511.5,285.4l5.6,4.1l-2.9,.1l-1.3,2.6Z" class="g2_244"/>
<path d="M661.2,296.4h59.6" class="gf_244"/>
<path d="M725.7,296.4l-6.5,2.5l1.6,-2.5L719.2,294Z" class="g2_244"/>
<path d="M661.3,296.3l85.6,35" class="gf_244"/>
<path d="M750,332.4l-7,-.2l2.4,-1.7l-.5,-2.9Z" class="g2_244"/>
<path d="M725.1,296.9l22.4,31.4" class="gf_244"/>
<path d="M750.2,332.5l-5.6,-4.1l2.9,-.1l1.3,-2.6Z" class="g2_244"/>
<path d="M566.8,368.7l-6.5,25.2" class="gf_244"/>
<path d="M559.1,398.7l-.9,-6.9l2.1,2.1l2.8,-1Z" class="g2_244"/>
<path d="M503.5,368.2H563" class="gf_244"/>
<path d="M568,368.2l-6.5,2.4l1.5,-2.4l-1.5,-2.5Z" class="g2_244"/>
<path d="M529,403.9l26.1,-5.2" class="gf_244"/>
<path d="M559,398l-5.9,3.6l1,-2.7l-2,-2.1Z" class="g2_244"/>
<path d="M529,403.9L506.6,372.5" class="gf_244"/>
<path d="M503.5,367.9l5.6,4.2h-2.9l-1.2,2.6Z" class="g2_244"/>
<path d="M715.1,386.2l6.5,-25.1" class="gf_244"/>
<path d="M722.8,356.3l.9,6.9l-2.1,-2.1l-2.7,.9Z" class="g2_244"/>
<path d="M650.5,386.5h59.6" class="gf_244"/>
<path d="M715,386.2l-6.5,2.8l1.6,-2.5L708.5,384l6.5,1.9Z" class="g2_244"/>
<path d="M650.5,386.5l92.8,4.6" class="gg_244"/>
<path d="M748.2,391l-6.6,2.5l1.7,-2.4l-1.5,-2.6l6.4,2.2Z" class="g2_244"/>
<path d="M722.9,356.8l22.5,30.1" class="gf_244"/>
<path d="M748.1,391l-5.6,-4.1h2.9l1.3,-2.6Z" class="g2_244"/>
<path d="M497.9,437.9h4.8m30.4,0h4.8m45.6,0h4.8m31.1,0h4.8" class="g9_244"/>
<path d="M530.1,553.7l58.3,-18.8m-96.4,.4l57.5,-19.2" class="gg_244"/>
<path d="M530.1,570.3V490.6M606,553.8H473.1" class="g1_244"/>
<path d="M605.1,553.8l-1.2,-1.9l5,1.9l-5,1.9Z" class="g2_244"/>
<path d="M530.1,490.6l-1.9,1.2l1.9,-5l1.9,5Z" class="g2_244"/>
<path d="M491.2,535.2c0,-.8,.7,-1.5,1.6,-1.5c.8,0,1.5,.7,1.5,1.5c0,.9,-.7,1.6,-1.5,1.6c-.9,0,-1.6,-.7,-1.6,-1.6Z" class="g2_244"/>
<path d="M551.2,515c0,-.8,.7,-1.5,1.6,-1.5c.8,0,1.5,.7,1.5,1.5c0,.9,-.7,1.6,-1.5,1.6c-.9,0,-1.6,-.7,-1.6,-1.6Z" class="g2_244"/>
<path d="M587.2,535.2l-1.8,-1.5l5.4,.4l-4.3,3.3Z" class="g2_244"/>
<path d="M548.5,516.3l-1.8,-1.5l5.4,.4l-4.3,3.3Z" class="g2_244"/>
<path d="M676.7,548.5L665.2,503.2m45.5,57.4L699.5,514.4" class="gg_244"/>
<path d="M676.8,574.3V490m57.6,58.6H656.5" class="g1_244"/>
<path d="M733.5,548.6l-1.3,-1.9l5,1.9l-5,1.9Z" class="g2_244"/>
<path d="M676.8,490l-1.9,1.2l1.9,-5l1.9,5Z" class="g2_244"/>
<path d="M709.2,560.4c0,-.8,.7,-1.5,1.5,-1.5c.9,0,1.6,.7,1.6,1.5c0,.9,-.7,1.6,-1.6,1.6c-.8,0,-1.5,-.7,-1.5,-1.6Z" class="g2_244"/>
<path d="M698.2,511.8c-.8,0,-1.5,-.7,-1.5,-1.5c0,-.9,.7,-1.6,1.5,-1.6c.9,0,1.6,.7,1.6,1.6c0,.8,-.7,1.5,-1.6,1.5Z" class="g2_244"/>
<path d="M665.7,504.8l-1.5,1.7l.4,-5.4l3.2,4.3Z" class="g2_244"/>
<path d="M699.5,514.6l-1.5,1.7l.4,-5.3l3.3,4.3Z" class="g2_244"/>
<path d="M533.1,702.2c0,-.8,.6,-1.4,1.3,-1.4c.8,0,1.4,.6,1.4,1.4c0,.7,-.6,1.4,-1.4,1.4c-.7,0,-1.3,-.7,-1.3,-1.4Z" class="g2_244"/>
<path d="M533.1,702.2c0,-.8,.6,-1.4,1.3,-1.4c.8,0,1.4,.6,1.4,1.4c0,.7,-.6,1.4,-1.4,1.4c-.7,0,-1.3,-.7,-1.3,-1.4Z" class="g3_244"/>
<path d="M554.6,652.9l-18.1,44.2m-24,-34.6l-18.1,44.2" class="g4_244"/>
<path d="M512.5,662.5l77.2,8.1" class="g3_244"/>
<path fill-rule="evenodd" d="M589.7,670.6l-1.2,-2.2l5.4,2.6l-5.8,1.5Z" class="g2_244"/>
<path d="M512.5,662.5V622.8" class="g3_244"/>
<path fill-rule="evenodd" d="M512.5,622.8l-2.1,1.4l2.1,-5.6l2.1,5.6Z" class="g2_244"/>
<path d="M512.5,662.5l-46.1,41.3" class="g3_244"/>
<path fill-rule="evenodd" d="M466.4,703.8l2.4,.6l-5.6,2.2l2.8,-5.3Z" class="g2_244"/>
<path d="M512.5,662.5l77.2,8.1m-77.2,-8.1V622.8m0,39.7l-46.1,41.3" class="g1_244"/>
<path d="M553.2,652.9c0,-.8,.6,-1.4,1.4,-1.4c.7,0,1.4,.6,1.4,1.4c0,.7,-.7,1.4,-1.4,1.4c-.8,0,-1.4,-.7,-1.4,-1.4Z" class="g2_244"/>
<path d="M553.2,652.9c0,-.8,.6,-1.4,1.4,-1.4c.7,0,1.4,.6,1.4,1.4c0,.7,-.7,1.4,-1.4,1.4c-.8,0,-1.4,-.7,-1.4,-1.4Z" class="g3_244"/>
<path d="M536.5,697.1h2.1c0,0,-2.9,2.2,-3.6,3.9c.7,-1.7,.1,-5.6,.1,-5.6l1.4,1.7Z" class="g2_244"/>
<path d="M536.5,697.1h2.1c0,0,-2.9,2.2,-3.6,3.9c.7,-1.7,.1,-5.6,.1,-5.6l1.4,1.7Z" class="g7_244"/>
<path d="M494.4,706.7h2.1c0,0,-3,2.2,-3.6,3.9c.6,-1.7,.1,-5.6,.1,-5.6l1.4,1.7Z" class="g2_244"/>
<path d="M494.4,706.7h2.1c0,0,-3,2.2,-3.6,3.9c.6,-1.7,.1,-5.6,.1,-5.6l1.4,1.7Z" class="g7_244"/>
<path fill-rule="evenodd" d="M777.9,714.8L776.7,713l4.8,1.8l-4.8,1.8Z" class="g2_244"/>
<path fill-rule="evenodd" d="M684.2,620.8l-1.8,1.2l1.8,-4.8L686,622Z" class="g2_244"/>
<path d="M652.2,714.8H777.9m-93.7,16v-110" class="g1_244"/>
<path d="M781,714.8l-4.1,1.6l1,-1.6l-1,-1.7Z" class="g2_244"/>
<path d="M762.8,683.3l-5.7,.2l1.8,-1.5l-.5,-2.3Z" class="g2_244"/>
<path d="M668.5,651.9L758.9,682" class="g4_244"/>
<path d="M762.8,683.3l-4.2,3.9l.4,-2.4l-1.9,-1.4Z" class="g2_244"/>
<path d="M684.2,714.7L759,684.8" class="g4_244"/>
<path d="M668.5,651.9l3.3,4.7l-2.3,-.8l-1.7,1.8Z" class="g2_244"/>
<path d="M684.2,714.7L669.5,655.8" class="g4_244"/>
<path d="M507.6,805.9l89.8,35.6m-89.5,16.7V774.4" class="g1_244"/>
<path d="M597.4,841.5l-.5,-2.2l4,3.6l-5.3,-.1Z" class="g2_244"/>
<path d="M507.6,805.9L460,842.6" class="g1_244"/>
<path d="M507.9,774.4l-1.7,1.2l1.8,-5l1.8,5Z" class="g2_244"/>
<path d="M508.1,806.2h-.2" class="g1_244"/>
<path d="M508,806.1l-24,6.5m-2.4,1l98.5,39m-72,-46.4l69.6,45" class="gh_244"/>
<path d="M484.3,812.6l1.8,1.4l-5.4,-.4l4.3,-3.2Z" class="g2_244"/>
<path d="M460.2,842.6l2.1,.8l-5.2,1.4l3,-4.5Z" class="g2_244"/>
<path d="M577.7,852.2l-.5,-2.2l4,3.6l-5.3,-.1Z" class="g2_244"/>
<path d="M578.1,851.5l-.1,-2.3l3.3,4.3L576,852.4Z" class="g2_244"/>
<path d="M545.4,827.8c4.9,-.2,8.8,-3.7,9.7,-8.5" class="gi_244"/>
<path d="M543.4,827.8l2.7,-1.2l-.6,1.2l.6,1.1Z" class="g2_244"/>
<path d="M645.7,898.5h15.9M488.9,939.4H519m-17.9,2.8H517m20.3,-2.1h30.1m-17.9,2.1h15.9" class="g8_244"/>
<path d="M628.8,939.2h4.8m27,0h4.8m27.7,0h4.8" class="g9_244"/>
<path d="M518.2,970.8h7m-13.6,25.9h9m-31.1,26h22.7" class="g8_244"/>
</svg>