<svg viewBox="0 0 935 1210" version="1.1" xmlns="http://www.w3.org/2000/svg">
<defs>
<style>
.g0_489{fill:#2D5191;}
.g1_489{fill:none;stroke:#000;stroke-width:0.764;stroke-linecap:square;stroke-miterlimit:10;}
.g2_489{fill:#365F91;}
.g3_489{fill:none;stroke:#000;stroke-width:0.756;stroke-linecap:square;stroke-miterlimit:10;}
.g4_489{fill:none;stroke:#000;stroke-width:0.763;stroke-linecap:square;stroke-miterlimit:10;}
.g5_489{fill:none;stroke:#000;stroke-width:0.765;stroke-linecap:square;stroke-miterlimit:10;}
.g6_489{fill:none;stroke:#000;stroke-width:0.762;stroke-linecap:square;stroke-miterlimit:10;}
.g7_489{fill:none;stroke:#000;stroke-width:0.381;stroke-linecap:square;stroke-miterlimit:10;}
.g8_489{fill:none;stroke:#000;stroke-width:0.379;stroke-linecap:square;stroke-miterlimit:10;}
.g9_489{fill:none;stroke:#000;stroke-width:0.758;stroke-linecap:square;stroke-miterlimit:10;}
</style>
</defs>
<path fill-rule="evenodd" d="M162.8 196H827.2V173.3H162.8V196Z" class="g0_489"/>
<path d="M247.9 220.4H349.3" class="g1_489"/>
<path d="M166.7 246h1.1V196h-1.1v50Z" class="g2_489"/>
<path d="M166.7 267.1h1.1V246h-1.1v21.1Z" class="g2_489"/>
<path d="M166.7 288.2h1.1V267.1h-1.1v21.1Z" class="g2_489"/>
<path d="M166.7 309.3h1.1V288.2h-1.1v21.1Z" class="g2_489"/>
<path d="M166.7 330.4h1.1V309.3h-1.1v21.1Z" class="g2_489"/>
<path d="M166.7 355.1h1.1V330.4h-1.1v24.7Z" class="g2_489"/>
<path d="M166.7 376.2h1.1V355.1h-1.1v21.1Z" class="g2_489"/>
<path d="M166.7 397.3h1.1V376.2h-1.1v21.1Z" class="g2_489"/>
<path d="M179.1 421.6H280.5" class="g1_489"/>
<path d="M166.7 447.3h1.1v-50h-1.1v50Z" class="g2_489"/>
<path d="M189.4 475.3H309.1" class="g3_489"/>
<path d="M166.7 501.6h1.1V447.3h-1.1v54.3Z" class="g2_489"/>
<path d="M194 526H416.5" class="g4_489"/>
<path d="M166.7 551.6h1.1v-50h-1.1v50Z" class="g2_489"/>
<path d="M166.7 576.4h1.1V551.6h-1.1v24.8Z" class="g2_489"/>
<path fill-rule="evenodd" d="M162.8 641.3H827.2V618.6H162.8v22.7Z" class="g0_489"/>
<path d="M303.4 669.3h85.8" class="g5_489"/>
<path d="M166.7 697h1.1V641.3h-1.1V697Z" class="g2_489"/>
<path d="M166.7 718.1h1.1V697h-1.1v21.1Z" class="g2_489"/>
<path d="M166.7 739.2h1.1V718.1h-1.1v21.1Z" class="g2_489"/>
<path d="M179.1 767.2h85.5" class="g6_489"/>
<path d="M166.7 794.9h1.1V739.2h-1.1v55.7Z" class="g2_489"/>
<path d="M208.7 819.4h60.7m-47.5 50.3h60.7" class="g7_489"/>
<path d="M194 845.7h90.1" class="g4_489"/>
<path d="M166.7 896.3h1.1V794.9h-1.1V896.3Z" class="g2_489"/>
<path d="M166.7 917.4h1.1V896.3h-1.1v21.1Z" class="g2_489"/>
<path d="M166.7 938.5h1.1V917.4h-1.1v21.1Z" class="g2_489"/>
<path d="M166.7 959.6h1.1V938.5h-1.1v21.1Z" class="g2_489"/>
<path d="M166.7 986.7h1.1V959.6h-1.1v27.1Z" class="g2_489"/>
<path d="M217.1 1010.5h60.3m-47.3 52.4h60.4" class="g8_489"/>
<path d="M193.9 1036h175" class="g9_489"/>
<path d="M166.7 1091h1.1V986.7h-1.1V1091Z" class="g2_489"/>
</svg>