<?xml version="1.0" encoding="UTF-8" standalone="no"?>
<!DOCTYPE svg PUBLIC "-//W3C//DTD SVG 1.1//EN"
"http://www.w3.org/Graphics/SVG/1.1/DTD/svg11.dtd">
<svg viewBox="0 0 907 1045" version="1.1" xmlns="http://www.w3.org/2000/svg" xmlns:xlink="http://www.w3.org/1999/xlink">
<defs>
<clipPath id="c0_427"><path d="M674.1,951.1V755.7h134V951.1Z"/></clipPath>
<clipPath id="c1_427"><path d="M-2.6,1047.7V-2.6H910.2V1047.7Z"/></clipPath>
<style type="text/css"><![CDATA[
.g0_427{
fill: none;
stroke: #000000;
stroke-width: 1.145;
stroke-linecap: butt;
stroke-linejoin: miter;
stroke-miterlimit: 4;
}
.g1_427{
fill: none;
stroke: #000000;
stroke-width: 0.763;
stroke-linecap: butt;
stroke-linejoin: miter;
stroke-miterlimit: 4;
}
.g2_427{
}
.g3_427{
fill: none;
stroke: #000000;
stroke-width: 1.527;
stroke-linecap: butt;
stroke-linejoin: miter;
stroke-miterlimit: 4;
}
.g4_427{
fill: none;
stroke: #636363;
stroke-width: 1.527;
stroke-linecap: butt;
stroke-linejoin: miter;
stroke-miterlimit: 4;
}
.g5_427{
fill: none;
stroke: #FFFFFF;
stroke-width: 1.909;
stroke-linecap: butt;
stroke-linejoin: miter;
}
.g6_427{
fill: none;
stroke: #000000;
stroke-width: 0.381;
stroke-linecap: butt;
stroke-linejoin: miter;
}
]]></style>
</defs>
<image clip-path="url(#c0_427)" preserveAspectRatio="none" x="674" y="756" width="134" height="195" xlink:href="img/1.jpg"/>
<path d="M692.3,747.8c-5,-.9,-7.4,4.9,-2.9,7.4c3,1.6,9.6,-.7,7.8,-5c-1.7,-.9,-5.5,-.8,-6,-2.4" class="g0_427"/>
<path d="M709.1,757.8c-5,-.7,-3.9,7.3,1.2,5.7c5.6,-1.9,-.4,-8.5,-2.3,-4.6" class="g1_427"/>
<path d="M102.5,124.7c4.9,0,8.9,-4,8.9,-9c0,-4.9,-4,-8.9,-8.9,-8.9c-5,0,-9,4,-9,8.9c0,5,4,9,9,9Z" class="g2_427"/>
<path d="M102.5,124.7c4.9,0,8.9,-4,8.9,-9c0,-4.9,-4,-8.9,-8.9,-8.9c-5,0,-9,4,-9,8.9c0,5,4,9,9,9ZM464.8,664.1c-2,-3.5,-9.6,-3.7,-13.6,-2.9c-16.7,3.3,-25.6,12.9,-31.2,25.4c-2,4.6,-3.8,9.6,-2.9,14.5c.5,2.5,1.9,3.2,.2,5.1c-.7,.8,-1.8,1.3,-2.8,1.7c-1.8,.3,-3.6,.6,-5.4,1c-4.3,2.2,-8.2,4.8,-11.6,7.8c-5.6,5.3,-6.8,10.6,-5.2,17.4c1.5,6.7,8.7,9.3,11.4,14.8c1.1,2.2,2.3,.7,1.8,3.1c-.3,2.2,-3.4,4.5,-4.1,6.7c-5.5,16.9,5.6,28.1,24.3,35.9c9,3.8,18.1,5.9,28.3,5.7c6.9,-.1,14.1,-3.4,20.7,-3c3.8,13.3,28.2,18.1,42.3,18.6c16.9,.5,35.6,-6.6,50.7,-11.9c5.2,7.8,20.3,7.3,29.4,5.5c8.2,-1.5,18.2,-4.2,25.1,-8.2c9.5,-5.4,11.2,-11.2,13.2,-19.7c18.2,-1.4,32,-12.1,39.1,-25.3c7.7,-14.2,3.4,-43.3,-21.4,-44.8c7,-8.9,-2,-22.6,-10.5,-28.4c-19.8,-13.7,-54,-17,-76.2,-5c3.3,-4,-8.6,-9.1,-10.1,-9.8c-14.2,-7.2,-30.8,-9,-47.2,-9.5c-7.4,-.2,-13.4,.7,-20.1,2.8c-3.4,1,-12.8,2.8,-12.9,6.7" class="g3_427"/>
<path d="M703,278.1c-.1,-1.7,-2.1,-3.2,-3.2,-4.1c-1.5,-1.3,-3.5,-2.5,-5.4,-3.2c-1.4,-.5,-2.1,-.6,-3.3,-1.5c-1.4,-.9,-2.8,-1.1,-4.3,-1.6c-2.8,-.8,-5.4,-1.7,-8.5,-1.6c-1,0,-2,0,-3,-.1c-.8,-.2,-1.6,-.4,-2.4,-.6c-1.1,-.1,-2.4,.2,-3.5,-.3c1.2,-1.3,3.4,-1.8,4.8,-2.7c-1.1,.1,-2.6,.8,-3.6,1.2c-2,.6,-5.1,1.5,-6.5,3.1c1.2,1.2,3.2,1.7,4.7,2.3c1.1,.4,2.3,1.4,3.6,1.2m32.7,45c-1.5,1.6,-3,2.2,-4.9,3.1c-2.3,1.1,-4.6,2.4,-6.9,3.5c-5.9,2.8,-12.2,4.6,-18.4,6.7c-5,1.6,-10.3,1.8,-15.5,1.1c1,-1.1,3.4,-1.8,4,-3.3c-2.2,.6,-7.4,3.2,-7.2,6.1c.1,2.6,4.8,.8,5.9,2.1m53.6,17.3c.1,-.6,0,-1.1,-.4,-1.5c-.8,1.6,-2.7,2.9,-4,4c-4.1,3.5,-8.3,7.1,-12.7,10.3c-4.3,3.1,-8.7,6,-13,9c-3.8,2.7,-8.1,4.3,-12.1,6.5c-5.8,3.2,-11.8,5.6,-17.6,8.5c-3.8,1.9,-8,3,-11.8,4.9c3.6,.5,4.6,-3.4,4.6,-6.1c.8,3.4,-7.5,4.6,-8.3,7.5c-.3,1,-.3,.6,.4,1.3c1.1,.5,2.2,.8,3.3,.9c1.7,.4,3.5,.6,5.2,.8m141,-54.1c1.5,1.6,3.3,3,4.8,4.7c3,3.5,5.4,7.9,7.9,11.8c2.5,3.9,3.2,8.5,5.6,12.5c1.3,2.3,2.9,3.8,3.5,6.5c.4,2.1,.4,4.3,1,6.5c.8,2.5,2,4.8,2.5,7.5c.4,2.2,.2,4.6,.4,6.8c.2,2.2,.4,4.8,-.3,6.9c-.7,1.9,-1.4,3.3,-1.4,5.3c.1,2.4,-.5,4.6,-1.3,6.8c-.7,1.8,-1.2,3.6,-1.7,5.4c-.5,1.9,-1.5,3.2,-2.3,4.9c-1.6,3.3,-2.8,6.6,-4.2,10c-.5,1.3,-1.4,2.2,-2.1,3.4c-.7,1.1,-1.2,2.3,-1.9,3.3c-1.6,2.1,-3.6,3.5,-4.8,5.7c-.8,1.2,-1.9,2,-2.8,3.1c-.9,1,-1.6,1.8,-2.9,2.4c-2.2,1,-4.6,1.7,-6.7,3c-1.5,.9,-2.8,1,-4.6,1.3c-1.9,.4,-3.6,1.3,-5.4,2c-5.3,1.8,-11,3.4,-16.6,4.2c-2.2,.3,-4.5,-.1,-6.7,-.3c-.9,-.1,-2,-.1,-2.8,.2c-.6,.3,-.6,1.2,-1.3,.6c.3,-1,1.1,-1.8,1.3,-2.8c.2,-.7,-.3,-2.2,.7,-2.1c-.2,1.2,-2,2.8,-2.6,4c-.7,1.5,-1.4,2.6,-2.5,3.9c.8,.8,4.1,.6,5.2,.7c.2,.2,.2,.4,0,.7M275.7,616.8c5.7,-2.7,12.6,-4.4,17,-9.5c4,-4.8,8.8,-9,12.2,-14.2c1.4,-2,1.8,-4.1,2.9,-6.2c1.1,-2.2,1.2,-4.5,2.2,-6.8c.6,-1.2,1.6,-2.1,2.1,-3.3c.6,-1.4,.8,-3.2,.8,-4.7c0,-2.5,.1,-4.5,.8,-6.8c.4,-1.7,1.1,-3.4,1.6,-5.1c.5,-1.5,.2,-2.8,.4,-4.2c.1,-1.9,.5,-3.7,.7,-5.5c.3,-2.6,1.7,-4.7,1.3,-7.3c-.2,-1.5,-.4,-2.7,-.4,-4.2c0,-1.5,.5,-2.8,.5,-4.1c.1,-1.5,-.7,-1.2,-2,-.3c-1.3,1,-3.1,2.1,-4.3,3.3c-.9,.9,-1.1,2,-1.9,2.9c-1,1,-1.6,.7,-2.1,2c-.1,.6,.2,1.1,-.1,1.7c.3,-1.1,2.5,-2.5,3.3,-3.3c1.2,-1.3,3.8,-3.7,3.9,-5.6c1.8,2.6,5.8,2.7,8.5,3.6c2.7,.8,6.3,3.8,9.2,3.6M619.1,520c-1.7,0,-.8,-4.2,-2.4,-3.7c-2.3,-3.3,-3.9,-8.5,-5.4,-12.1c-3.3,-8,-4.6,-17.2,-6.8,-25.5c-2.4,-8.7,-6.2,-17,-8.1,-25.8c-4.3,-1,-8.9,10.1,-8,13.5c1.8,-2.9,2.4,-6.5,3.9,-9.6c1.1,-2.1,2.3,-3.5,2.3,-5.9c2.2,-.4,2.6,.8,4.3,2.1c2.5,1.9,4,3.1,7.2,3.9" class="g4_427"/>
<g clip-path="url(#c1_427)">
<path d="M-4.5,13.7H-27.4m939.5,0H935M-4.5,1031.2H-27.4m939.5,0H935M13.7,-4.5V-27.4m0,1077v22.9m880,-1077V-27.4m0,1077v22.9" class="g5_427"/>
<path d="M-4.5,13.7H-27.4m939.5,0H935M-4.5,1031.2H-27.4m939.5,0H935M13.7,-4.5V-27.4m0,1077v22.9m880,-1077V-27.4m0,1077v22.9" class="g6_427"/>
</g>
</svg>