<?xml version="1.0" encoding="UTF-8" standalone="no"?>
<!DOCTYPE svg PUBLIC "-//W3C//DTD SVG 1.1//EN"
"http://www.w3.org/Graphics/SVG/1.1/DTD/svg11.dtd">
<svg viewBox="0 0 931 1096" version="1.1" xmlns="http://www.w3.org/2000/svg" xmlns:xlink="http://www.w3.org/1999/xlink">
<defs>
<clipPath id="c0_87"><path d="M654.4,225.3V194.1h93.8v31.2Z"/></clipPath>
<clipPath id="c1_87"><path d="M653,311.4V282.7h96.6v28.7Z"/></clipPath>
<clipPath id="c2_87"><path d="M107,429.5V395.9H880v33.6Z"/></clipPath>
<style type="text/css"><![CDATA[
.g0_87{
fill: #E8F6FE;
}
.g1_87{
fill: none;
stroke: #241F1F;
stroke-width: 0.763;
stroke-miterlimit: 10;
}
.g2_87{
fill: none;
stroke: #241F1F;
stroke-width: 0.687;
stroke-miterlimit: 10;
}
.g3_87{
fill: #CFEDFC;
}
.g4_87{
fill: none;
stroke: #00AEEF;
stroke-width: 0.916;
stroke-linejoin: round;
}
.g5_87{
fill: #00AEEF;
}
.g6_87{
fill: none;
stroke: #00AEEF;
stroke-width: 0.763;
stroke-miterlimit: 3;
}
.g7_87{
fill: #241F1F;
}
.g8_87{
fill: none;
stroke: #EE008C;
stroke-width: 0.534;
stroke-miterlimit: 3;
}
.g9_87{
fill: #EE008C;
}
.ga_87{
fill: none;
stroke: #EE008C;
stroke-width: 0.916;
stroke-linejoin: round;
}
]]></style>
</defs>
<path d="M154.3,206.6h59.6v27.5H154.3Zm59.6,0H304v27.5H213.9Zm90.1,0h4.6v27.5H304Zm4.6,0h59.6v27.5H308.6Zm59.6,0h90.1v27.5H368.2Z" class="g0_87"/>
<path d="M213.9,233.8V207M304,233.8V207m4.6,26.8V207m59.6,26.8V207M213.9,347.2v-21m90.1,21v-21m4.6,21v-21m59.6,21v-21m0,-73.3V234.5m0,36.7V252.9m0,36.6V271.2M304,252.9V234.5m4.6,18.4V234.5M304,271.2V252.9m4.6,18.3V252.9M304,289.5V271.2m4.6,18.3V271.2M213.9,252.9V234.5m0,36.7V252.9m0,36.6V271.2m0,36.7V289.5M304,307.9V289.5m4.6,18.4V289.5m59.6,18.4V289.5M213.9,326.2V307.9M304,326.2V307.9m4.6,18.3V307.9m59.6,18.3V307.9m-213.9,-55V234.5m0,36.7V252.9m0,36.6V271.2m0,36.7V289.5m304,18.4V289.5m-304,36.7V307.9m304,18.3V307.9m0,-55V234.5m0,36.7V252.9m0,36.6V271.2m-304,76v-21m304,21v-21M153.9,347.6h60m0,0H304m0,0h4.6m0,0h59.6m0,0h90.5M153.9,206.6h60m-59.6,27.2V207m59.6,-.4H304m0,0h4.6m0,0h59.6m0,0h90.5m-.4,27.2V207M153.9,234.1h60m0,0H304m0,0h4.6m0,0h59.6m0,0h90.5" class="g1_87"/>
<path clip-path="url(#c0_87)" d="M698.5,211h50" class="g2_87"/>
<path clip-path="url(#c1_87)" d="M697.1,297.1h52.8" class="g2_87"/>
<path d="M362.1,640h62.6v44.4H362.1Zm62.6,0H581.3v44.4H424.7Z" class="g0_87"/>
<path d="M424.7,852.4v-21M362.1,703.1V684.7m219.2,18.4V684.7M362.1,721.4V703.1m219.2,18.3V703.1M362.1,739.7V721.4m219.2,18.3V721.4M362.1,758.1V739.7m219.2,18.4V739.7M362.1,776.4V758.1m219.2,18.3V758.1M362.1,794.7V776.4m219.2,18.3V776.4M362.1,813.1V794.7m219.2,18.4V794.7M362.1,831.4V813.1m219.2,18.3V813.1M424.7,684V640.4m0,62.7V684.7m0,36.7V703.1m0,36.6V721.4m0,36.7V739.7m0,36.7V758.1m0,36.6V776.4m0,36.7V794.7m0,36.7V813.1m-62.6,39.3v-21m219.2,21v-21M361.7,852.8h63m0,0h157M361.7,640h63m0,0h157m-220,44.4h63m0,0h157M362.1,684V640.4M581.3,684V640.4" class="g1_87"/>
<path d="M612.7,640h62.6v44.4H612.7Zm62.6,0H858.6v44.4H675.3Z" class="g0_87"/>
<path d="M675.3,703.1V684.7m0,36.7V703.1m0,36.6V721.4m0,36.7V739.7m0,36.7V758.1m0,36.6V776.4m0,36.7V794.7m0,36.7V813.1m0,39.3v-21m0,-147.4V640.4m0,-.4H859M675.3,684.4H859m-.4,-.4V640.4M612.7,703.1V684.7m245.9,18.4V684.7M612.7,721.4V703.1m245.9,18.3V703.1M612.7,739.7V721.4m245.9,18.3V721.4M612.7,758.1V739.7m245.9,18.4V739.7M612.7,776.4V758.1m245.9,18.3V758.1M612.7,794.7V776.4m245.9,18.3V776.4M612.7,813.1V794.7m245.9,18.4V794.7M612.7,831.4V813.1m245.9,18.3V813.1M612.7,852.4v-21m245.9,21v-21M612.3,852.8h63m0,0H859M612.3,640h63m-63,44.4h63M612.7,684V640.4" class="g1_87"/>
<path d="M252.6,879.9c0,-30.3,15.3,-55,34.3,-55c19,0,34.4,24.7,34.4,55c0,30.4,-15.4,55,-34.4,55c-19,0,-34.3,-24.6,-34.3,-55Z" class="g3_87"/>
<path d="M252.6,879.9c0,-30.3,15.3,-55,34.3,-55c19,0,34.4,24.7,34.4,55c0,30.4,-15.4,55,-34.4,55c-19,0,-34.3,-24.6,-34.3,-55Z" class="g4_87"/>
<path d="M110.5,879.9c0,-30.3,15.4,-55,34.3,-55c19,0,34.4,24.7,34.4,55c0,30.4,-15.4,55,-34.4,55c-18.9,0,-34.3,-24.6,-34.3,-55Z" class="g3_87"/>
<path d="M110.5,879.9c0,-30.3,15.4,-55,34.3,-55c19,0,34.4,24.7,34.4,55c0,30.4,-15.4,55,-34.4,55c-18.9,0,-34.3,-24.6,-34.3,-55Z" class="g4_87"/>
<path d="M280.2,846.8c0,-1,.8,-1.7,1.8,-1.7c.9,0,1.7,.7,1.7,1.7c0,.9,-.8,1.7,-1.7,1.7c-1,0,-1.8,-.8,-1.8,-1.7Z" class="g5_87"/>
<path d="M280.2,846.8c0,-1,.8,-1.7,1.8,-1.7c.9,0,1.7,.7,1.7,1.7c0,.9,-.8,1.7,-1.7,1.7c-1,0,-1.8,-.8,-1.8,-1.7Z" class="g6_87"/>
<path d="M280.2,881.2c0,-1,.8,-1.8,1.8,-1.8c.9,0,1.7,.8,1.7,1.8c0,.9,-.8,1.7,-1.7,1.7c-1,0,-1.8,-.8,-1.8,-1.7Z" class="g5_87"/>
<path d="M280.2,881.2c0,-1,.8,-1.8,1.8,-1.8c.9,0,1.7,.8,1.7,1.8c0,.9,-.8,1.7,-1.7,1.7c-1,0,-1.8,-.8,-1.8,-1.7Z" class="g6_87"/>
<path d="M280.2,915.5c0,-.9,.8,-1.7,1.8,-1.7c.9,0,1.7,.8,1.7,1.7c0,1,-.8,1.8,-1.7,1.8c-1,0,-1.8,-.8,-1.8,-1.8Z" class="g5_87"/>
<path d="M280.2,915.5c0,-.9,.8,-1.7,1.8,-1.7c.9,0,1.7,.8,1.7,1.7c0,1,-.8,1.8,-1.7,1.8c-1,0,-1.8,-.8,-1.8,-1.8Z" class="g6_87"/>
<path d="M147.7,846.8c0,-1,.8,-1.7,1.7,-1.7c1,0,1.7,.7,1.7,1.7c0,.9,-.7,1.7,-1.7,1.7c-.9,0,-1.7,-.8,-1.7,-1.7Z" class="g5_87"/>
<path d="M147.7,846.8c0,-1,.8,-1.7,1.7,-1.7c1,0,1.7,.7,1.7,1.7c0,.9,-.7,1.7,-1.7,1.7c-.9,0,-1.7,-.8,-1.7,-1.7Z" class="g6_87"/>
<path d="M147.7,869.7c0,-.9,.8,-1.7,1.7,-1.7c1,0,1.7,.8,1.7,1.7c0,.9,-.7,1.7,-1.7,1.7c-.9,0,-1.7,-.8,-1.7,-1.7Z" class="g5_87"/>
<path d="M147.7,869.7c0,-.9,.8,-1.7,1.7,-1.7c1,0,1.7,.8,1.7,1.7c0,.9,-.7,1.7,-1.7,1.7c-.9,0,-1.7,-.8,-1.7,-1.7Z" class="g6_87"/>
<path d="M147.7,892.6c0,-.9,.8,-1.7,1.7,-1.7c1,0,1.7,.8,1.7,1.7c0,1,-.7,1.7,-1.7,1.7c-.9,0,-1.7,-.7,-1.7,-1.7Z" class="g5_87"/>
<path d="M147.7,892.6c0,-.9,.8,-1.7,1.7,-1.7c1,0,1.7,.8,1.7,1.7c0,1,-.7,1.7,-1.7,1.7c-.9,0,-1.7,-.7,-1.7,-1.7Z" class="g6_87"/>
<path d="M147.7,915.5c0,-.9,.8,-1.7,1.7,-1.7c1,0,1.7,.8,1.7,1.7c0,1,-.7,1.8,-1.7,1.8c-.9,0,-1.7,-.8,-1.7,-1.8Z" class="g5_87"/>
<path d="M147.7,915.5c0,-.9,.8,-1.7,1.7,-1.7c1,0,1.7,.8,1.7,1.7c0,1,-.7,1.8,-1.7,1.8c-.9,0,-1.7,-.8,-1.7,-1.8Z" class="g6_87"/>
<path d="M143.4,945.9h2.5l-.5,-3.4Zm2.8,-5.2l1.3,7.8c.1,.6,.4,.7,.8,.7v.2h-3v-.2c.7,0,1,-.2,.9,-.9l-.2,-1.9h-2.9l-1.1,2.1c-.2,.4,.2,.7,.8,.7v.2h-2.4v-.2c.3,0,.5,0,.8,-.5l4.8,-8Z" class="g7_87"/>
<path d="M281.9,944.7l1.5,-.1c.8,0,1.7,-.8,1.6,-2c0,-1.1,-.7,-1.3,-.9,-1.3c-.2,-.1,-.4,-.1,-.9,-.1c-.2,.1,-.3,.2,-.4,.5Zm-.9,3.5c-.1,.4,.1,.8,.8,.8c.9,0,1.7,-.3,2.2,-.9c.7,-1.1,.5,-2.5,-.5,-2.9c-.3,-.2,-1.1,-.1,-1.7,-.1Zm2.8,-7.4c2.7,0,3.1,2.4,1.8,3.4c-.5,.4,-.9,.4,-1.6,.6c.7,.3,1.4,.7,1.6,1.3c.8,1.6,-1,3.3,-3.3,3.3h-3.6v-.2c.4,0,.7,0,1,-.9l1.8,-6.5c.2,-.7,-.4,-.8,-.8,-.8v-.2Z" class="g7_87"/>
<path d="M157.8,846.8H270.7" class="g8_87"/>
<path d="M274.4,846.8l-4.9,1.8l1.2,-1.8L269.5,845Z" class="g9_87"/>
<path d="M157.8,846.8H270.7" class="ga_87"/>
<path d="M275.6,846.8l-6.5,2.5l1.6,-2.5l-1.6,-2.5Z" class="g9_87"/>
<path d="M187.6,945.5h55" class="ga_87"/>
<path d="M247.6,945.5l-6.5,2.5l1.5,-2.5l-1.5,-2.4Z" class="g9_87"/>
<path d="M157.8,869.7L270.7,875" class="g8_87"/>
<path d="M274.4,875.2l-5,1.6l1.3,-1.8l-1.1,-1.8Z" class="g9_87"/>
<path d="M157.8,892.6l112.9,-5.3" class="g8_87"/>
<path d="M274.4,887.1l-4.8,2.1l1.1,-1.9l-1.3,-1.8Z" class="g9_87"/>
<path d="M157.8,915.5H270.7" class="g8_87"/>
<path d="M274.4,915.5l-4.9,1.9l1.2,-1.9l-1.2,-1.8Z" class="g9_87"/>
<path d="M157.8,869.7L270.7,875" class="ga_87"/>
<path d="M275.6,875.3l-6.6,2.1l1.7,-2.4l-1.4,-2.5Z" class="g9_87"/>
<path d="M157.8,892.6l112.9,-5.3" class="ga_87"/>
<path d="M275.6,887l-6.3,2.8l1.4,-2.5L269,884.9Z" class="g9_87"/>
<path d="M157.8,915.5H270.7" class="ga_87"/>
<path d="M275.6,915.5l-6.5,2.5l1.6,-2.5l-1.6,-2.4Z" class="g9_87"/>
<path d="M252.6,738.1c0,-30.4,15.3,-55,34.3,-55c19,0,34.4,24.6,34.4,55c0,30.4,-15.4,55,-34.4,55c-19,0,-34.3,-24.6,-34.3,-55Z" class="g3_87"/>
<path d="M252.6,738.1c0,-30.4,15.3,-55,34.3,-55c19,0,34.4,24.6,34.4,55c0,30.4,-15.4,55,-34.4,55c-19,0,-34.3,-24.6,-34.3,-55Z" class="g4_87"/>
<path d="M110.5,738.1c0,-30.4,15.4,-55,34.3,-55c19,0,34.4,24.6,34.4,55c0,30.4,-15.4,55,-34.4,55c-18.9,0,-34.3,-24.6,-34.3,-55Z" class="g3_87"/>
<path d="M110.5,738.1c0,-30.4,15.4,-55,34.3,-55c19,0,34.4,24.6,34.4,55c0,30.4,-15.4,55,-34.4,55c-18.9,0,-34.3,-24.6,-34.3,-55Z" class="g4_87"/>
<path d="M280.2,704.9c0,-.9,.8,-1.7,1.8,-1.7c.9,0,1.7,.8,1.7,1.7c0,1,-.8,1.8,-1.7,1.8c-1,0,-1.8,-.8,-1.8,-1.8Z" class="g5_87"/>
<path d="M280.2,704.9c0,-.9,.8,-1.7,1.8,-1.7c.9,0,1.7,.8,1.7,1.7c0,1,-.8,1.8,-1.7,1.8c-1,0,-1.8,-.8,-1.8,-1.8Z" class="g6_87"/>
<path d="M280.2,727.8c0,-.9,.8,-1.7,1.8,-1.7c.9,0,1.7,.8,1.7,1.7c0,1,-.8,1.8,-1.7,1.8c-1,0,-1.8,-.8,-1.8,-1.8Z" class="g5_87"/>
<path d="M280.2,727.8c0,-.9,.8,-1.7,1.8,-1.7c.9,0,1.7,.8,1.7,1.7c0,1,-.8,1.8,-1.7,1.8c-1,0,-1.8,-.8,-1.8,-1.8Z" class="g6_87"/>
<path d="M280.2,750.8c0,-1,.8,-1.7,1.8,-1.7c.9,0,1.7,.7,1.7,1.7c0,.9,-.8,1.7,-1.7,1.7c-1,0,-1.8,-.8,-1.8,-1.7Z" class="g5_87"/>
<path d="M280.2,750.8c0,-1,.8,-1.7,1.8,-1.7c.9,0,1.7,.7,1.7,1.7c0,.9,-.8,1.7,-1.7,1.7c-1,0,-1.8,-.8,-1.8,-1.7Z" class="g6_87"/>
<path d="M280.2,773.7c0,-1,.8,-1.7,1.8,-1.7c.9,0,1.7,.7,1.7,1.7c0,.9,-.8,1.7,-1.7,1.7c-1,0,-1.8,-.8,-1.8,-1.7Z" class="g5_87"/>
<path d="M280.2,773.7c0,-1,.8,-1.7,1.8,-1.7c.9,0,1.7,.7,1.7,1.7c0,.9,-.8,1.7,-1.7,1.7c-1,0,-1.8,-.8,-1.8,-1.7Z" class="g6_87"/>
<path d="M146.9,704.9c0,-.9,.8,-1.7,1.8,-1.7c.9,0,1.7,.8,1.7,1.7c0,1,-.8,1.8,-1.7,1.8c-1,0,-1.8,-.8,-1.8,-1.8Z" class="g5_87"/>
<path d="M146.9,704.9c0,-.9,.8,-1.7,1.8,-1.7c.9,0,1.7,.8,1.7,1.7c0,1,-.8,1.8,-1.7,1.8c-1,0,-1.8,-.8,-1.8,-1.8Z" class="g6_87"/>
<path d="M146.9,727.8c0,-.9,.8,-1.7,1.8,-1.7c.9,0,1.7,.8,1.7,1.7c0,1,-.8,1.8,-1.7,1.8c-1,0,-1.8,-.8,-1.8,-1.8Z" class="g5_87"/>
<path d="M146.9,727.8c0,-.9,.8,-1.7,1.8,-1.7c.9,0,1.7,.8,1.7,1.7c0,1,-.8,1.8,-1.7,1.8c-1,0,-1.8,-.8,-1.8,-1.8Z" class="g6_87"/>
<path d="M146.9,750.8c0,-1,.8,-1.7,1.8,-1.7c.9,0,1.7,.7,1.7,1.7c0,.9,-.8,1.7,-1.7,1.7c-1,0,-1.8,-.8,-1.8,-1.7Z" class="g5_87"/>
<path d="M146.9,750.8c0,-1,.8,-1.7,1.8,-1.7c.9,0,1.7,.7,1.7,1.7c0,.9,-.8,1.7,-1.7,1.7c-1,0,-1.8,-.8,-1.8,-1.7Z" class="g6_87"/>
<path d="M146.9,773.7c0,-1,.8,-1.7,1.8,-1.7c.9,0,1.7,.7,1.7,1.7c0,.9,-.8,1.7,-1.7,1.7c-1,0,-1.8,-.8,-1.8,-1.7Z" class="g5_87"/>
<path d="M146.9,773.7c0,-1,.8,-1.7,1.8,-1.7c.9,0,1.7,.7,1.7,1.7c0,.9,-.8,1.7,-1.7,1.7c-1,0,-1.8,-.8,-1.8,-1.7Z" class="g6_87"/>
<path d="M143.4,804.1h2.5l-.5,-3.5Zm2.8,-5.3l1.3,7.9c.1,.5,.4,.6,.8,.6v.2h-3v-.2c.7,0,1,-.2,.9,-.9l-.2,-1.9h-2.9l-1.1,2.2c-.2,.4,.2,.6,.8,.6v.2h-2.4v-.2c.3,0,.5,.1,.8,-.4l4.8,-8.1Z" class="g7_87"/>
<path d="M281.9,802.8l1.5,-.1c.8,0,1.7,-.7,1.6,-1.9c0,-1.2,-.7,-1.3,-.9,-1.4c-.2,0,-.4,0,-.9,0c-.2,0,-.3,.1,-.4,.4Zm-.9,3.6c-.1,.4,.1,.7,.8,.7c.9,0,1.7,-.2,2.2,-.9c.7,-1.1,.5,-2.4,-.5,-2.9c-.3,-.1,-1.1,0,-1.7,-.1Zm2.8,-7.4c2.7,0,3.1,2.4,1.8,3.3c-.5,.4,-.9,.5,-1.6,.7c.7,.2,1.4,.6,1.6,1.2c.8,1.7,-1,3.3,-3.3,3.3h-3.6v-.2c.4,0,.7,0,1,-.8l1.8,-6.6c.2,-.6,-.4,-.7,-.8,-.7V799Z" class="g7_87"/>
<path d="M157.8,704.9H270.7" class="g8_87"/>
<path d="M274.4,704.9l-4.9,1.9l1.2,-1.9l-1.2,-1.8Z" class="g9_87"/>
<path d="M157.8,704.9H270.7" class="ga_87"/>
<path d="M275.6,704.9l-6.5,2.5l1.6,-2.5l-1.6,-2.4Z" class="g9_87"/>
<path d="M187.6,803.7h55" class="ga_87"/>
<path d="M247.6,803.7l-6.5,2.4l1.5,-2.4l-1.5,-2.5Z" class="g9_87"/>
<path d="M157.8,727.8H270.7" class="g8_87"/>
<path d="M274.4,727.8l-4.9,1.9l1.2,-1.9L269.5,726Z" class="g9_87"/>
<path d="M157.8,750.8H270.7" class="g8_87"/>
<path d="M274.4,750.8l-4.9,1.8l1.2,-1.8l-1.2,-1.9Z" class="g9_87"/>
<path d="M157.8,773.7H270.7" class="g8_87"/>
<path d="M274.4,773.7l-4.9,1.8l1.2,-1.8l-1.2,-1.9Z" class="g9_87"/>
<path d="M157.8,727.8H270.7" class="ga_87"/>
<path d="M275.6,727.8l-6.5,2.5l1.6,-2.5l-1.6,-2.4Z" class="g9_87"/>
<path d="M157.8,750.8H270.7" class="ga_87"/>
<path d="M275.6,750.8l-6.5,2.4l1.6,-2.4l-1.6,-2.5Z" class="g9_87"/>
<path d="M157.8,773.7H270.7" class="ga_87"/>
<path d="M275.6,773.7l-6.5,2.5l1.6,-2.5l-1.6,-2.5Z" class="g9_87"/>
<image clip-path="url(#c2_87)" preserveAspectRatio="none" x="107" y="396" width="773" height="34" xlink:href="img/1.png"/>
</svg>