<?xml version="1.0" encoding="UTF-8" standalone="no"?>
<!DOCTYPE svg PUBLIC "-//W3C//DTD SVG 1.1//EN"
"http://www.w3.org/Graphics/SVG/1.1/DTD/svg11.dtd">
<svg viewBox="0 0 907 1045" version="1.1" xmlns="http://www.w3.org/2000/svg" xmlns:xlink="http://www.w3.org/1999/xlink">
<defs>
<clipPath id="c0_120"><path d="M97.5,793.4V442.5H215.2V793.4Z"/></clipPath>
<clipPath id="c1_120"><path d="M270.7,960.4V631.8H476V960.4Z"/></clipPath>
<clipPath id="c2_120"><path d="M-2.6,1047.7V-2.6H910.2V1047.7Z"/></clipPath>
<style type="text/css"><![CDATA[
.g0_120{
fill: #FFFFFF;
}
.g1_120{
fill: none;
stroke: #000000;
stroke-width: 1.527;
stroke-linecap: butt;
stroke-linejoin: miter;
stroke-miterlimit: 4;
}
.g2_120{
fill: none;
stroke: #3D3D3D;
stroke-width: 1.527;
stroke-linecap: butt;
stroke-linejoin: miter;
stroke-miterlimit: 4;
}
.g3_120{
fill: none;
stroke: #000000;
stroke-width: 0.52;
stroke-linecap: butt;
stroke-linejoin: miter;
stroke-miterlimit: 4;
}
.g4_120{
fill: none;
stroke: #000000;
stroke-width: 0.694;
stroke-linecap: butt;
stroke-linejoin: miter;
stroke-miterlimit: 4;
}
.g5_120{
fill: none;
stroke: #636363;
stroke-width: 1.527;
stroke-linecap: butt;
stroke-linejoin: miter;
stroke-miterlimit: 4;
}
.g6_120{
fill: none;
stroke: #FFFFFF;
stroke-width: 1.909;
stroke-linecap: butt;
stroke-linejoin: miter;
}
.g7_120{
fill: none;
stroke: #000000;
stroke-width: 0.381;
stroke-linecap: butt;
stroke-linejoin: miter;
}
]]></style>
</defs>
<g clip-path="url(#c0_120)">
<image clip-path="url(#c0_120)" preserveAspectRatio="none" x="98" y="442" width="117" height="351" xlink:href="img/1.jpg"/>
</g>
<path d="M538.1,146.4v59.8H772.5V146.4H538.1Z" class="g0_120"/>
<path d="M160.8,131.3V323.4H709.4V131.3H160.8Z" class="g1_120"/>
<path d="M168,111v59.8H371.8V111H168Z" class="g0_120"/>
<path d="M231,395.3c-3.4,.9,-6.6,2.5,-9.8,3.4c-3.4,1,-5.4,.8,-8.7,3c-2.6,1.8,-3.1,3.2,-6.5,3.9c-1.1,4.3,-.5,7.5,2.6,11c1.8,2.1,8.4,7.9,12,8c-4.4,5.7,-9.8,11.1,-5.6,18c1.8,2.8,7.4,9.5,11.5,11.1c3.8,1.4,9.8,0,13.9,.5c.6,2.6,-.7,5.5,.4,8c1.8,4.1,7.6,8.7,11.4,11.7c8.7,6.9,30.7,18.9,42.6,11c4.7,7.9,16.1,14.9,27.6,18c7.6,2.1,23.4,3.5,31.2,1.3c4.9,-1.3,9.3,-6.8,14.3,-7.4c2.3,-.3,10.3,3.4,12.7,3.7c11,1.5,24.8,1.5,35.7,-.2c15.8,-2.4,23.8,-11.3,28.4,-21.4c3.6,5.3,23.3,1,28.5,-.9c10.2,-3.8,20.8,-9.5,24.9,-17.6c2.9,-5.8,-5.7,-11.8,-3.5,-16.4c1.1,-2.2,4.4,-3.5,6.1,-5.4C510,428.1,506,417.8,497.6,408c-8.8,-10.4,-20.4,-17.3,-37.1,-20.8c-4.3,-.9,-8.3,-1.4,-12.8,-1.3c-2.5,.1,-3.6,1.1,-6.1,.8C454.2,375.1,409.9,365,402,364.1c-19.9,-2.4,-43.1,.1,-61.7,5c-8.8,2.3,-17.4,5.7,-25.9,8.1c1.6,-12.4,-31.2,-8.5,-39.9,-6.6c-10.3,2.2,-23.3,6.7,-29.5,13c-3.9,3.9,-5.7,8.7,-9.1,12.8Z" class="g0_120"/>
<path d="M231,395.3c-3.4,.9,-6.6,2.5,-9.8,3.4c-3.4,1,-5.4,.8,-8.7,3c-2.6,1.8,-3.1,3.2,-6.5,3.9c-1.1,4.3,-.5,7.5,2.6,11c1.8,2.1,8.4,7.9,12,8c-4.4,5.7,-9.8,11.1,-5.6,18c1.8,2.8,7.4,9.5,11.5,11.1c3.8,1.4,9.8,0,13.9,.5c.6,2.6,-.7,5.5,.4,8c1.8,4.1,7.6,8.7,11.4,11.7c8.7,6.9,30.7,18.9,42.6,11c4.7,7.9,16.1,14.9,27.6,18c7.6,2.1,23.4,3.5,31.2,1.3c4.9,-1.3,9.3,-6.8,14.3,-7.4c2.3,-.3,10.3,3.4,12.7,3.7c11,1.5,24.8,1.5,35.7,-.2c15.8,-2.4,23.8,-11.3,28.4,-21.4c3.6,5.3,23.3,1,28.5,-.9c10.2,-3.8,20.8,-9.5,24.9,-17.6c2.9,-5.8,-5.7,-11.8,-3.5,-16.4c1.1,-2.2,4.4,-3.5,6.1,-5.4C510,428.1,506,417.8,497.6,408c-8.8,-10.4,-20.4,-17.3,-37.1,-20.8c-4.3,-.9,-8.3,-1.4,-12.8,-1.3c-2.5,.1,-3.6,1.1,-6.1,.8C454.2,375.1,409.9,365,402,364.1c-19.9,-2.4,-43.1,.1,-61.7,5c-8.8,2.3,-17.4,5.7,-25.9,8.1c1.6,-12.4,-31.2,-8.5,-39.9,-6.6c-10.3,2.2,-23.3,6.7,-29.5,13c-3.9,3.9,-5.7,8.7,-9.1,12.8" class="g1_120"/>
<path d="M194.9,423.1c-4.6,-.7,-9.2,5.8,-3.7,7c4.3,.9,5.1,-4.8,4.5,-7.8c-2.3,-.9,-4.1,.5,-5.7,1.8m-10.8,11.2c1.4,-1.1,6.3,-3.2,7.5,-1.2c1.7,3.1,-7.8,7.3,-6.6,1.3c1.6,-.3,3.3,-.4,5,-.1" class="g2_120"/>
<image clip-path="url(#c1_120)" preserveAspectRatio="none" x="270" y="631" width="206" height="330" xlink:href="img/2.jpg"/>
<path d="M276.5,637.7V946.1H461V637.7H276.5Z" class="g0_120"/>
<path d="M276.5,637.7V946.1H461V637.7H276.5Z" class="g3_120"/>
<path d="M276.8,661.4H459.3M277.6,743.2H460" class="g4_120"/>
<path d="M523.5,687.4c-3.9,-1,-8.4,-2.3,-12.3,-.6c-1.8,.8,-3.8,1.1,-5.6,1.9c-1.8,.7,-3.6,1.2,-5.4,2.1c-1.3,.7,-2.5,1.9,-3.8,2.8c-2.3,1.6,-5.1,2.7,-7.6,3.8c-1.3,.6,-2.7,1,-4.1,1.5c-.9,.3,-1.7,1,-2.7,1.2c-2.5,.7,-5.3,1.4,-7.9,1.7c-.7,.1,-1.4,-.2,-2,-.1c-.8,.2,-1.4,.6,-2.2,.7c-.9,.2,-1.8,-.1,-2.7,0c-.9,0,-1.8,.3,-2.7,.3c-4.3,.2,-8.5,.3,-12.8,.3c-2.2,0,-4.3,0,-6.5,0c-3.2,0,-6.4,-.5,-9.6,-.6c-1.9,-.1,-3.9,.1,-5.8,0c-1.3,0,-2.4,-.6,-3.6,-.7c-1,0,-1.9,.1,-2.9,.1c-4.2,-.2,-8.3,-.3,-12.5,-.3c-2.9,0,-6,-.4,-8.9,0c-1.5,.2,-3,.3,-4.5,.3c-1.7,0,-2.8,.5,-4.4,.8c-3.5,.7,-7,1.1,-10.5,1.7c-3.1,.5,-5.9,1.6,-9.1,2.1c-1.5,.2,-2.9,.5,-4.4,.8c-1.2,.1,-2.3,.2,-3.5,.7c-1.4,.5,-5.1,.8,-5.6,2.9c-.3,-1.9,-2,.5,-2.8,.3c.6,-1.5,1.5,-2,2.6,-2.7c.8,-.4,3.7,.5,4.3,-.2c-1.8,.9,-5.6,-.4,-7.2,1.1c0,.2,.4,1.3,.4,1.5c-.2,.2,0,-7.4,-.2,-7.1c-.4,.3,-1.8,7.6,-2.1,8c1.4,0,3.2,1.1,4.4,1.8c1,.5,1.7,1.2,2.7,1.6c.6,.4,2.2,.7,2.5,1.4m-25,79.9c12.8,7.4,19.9,8.3,19.9,22.7c.1,3,.7,6.9,-.1,9.9c-1,4,-4.2,7.4,-5.3,11.6c-1,3.9,-1.9,9.5,.6,13.2c2.8,4.1,6.2,3.7,6.1,9c-.1,4.5,-3.2,7.7,-4.5,12.1c-2.5,7.8,-.8,16.8,3,23.5c3.4,6.2,5.4,20.4,-6,19.1M478.7,760c0,0,-13.4,2.7,-16,3.4c-7.2,2.1,-14.3,3.4,-21.6,5c-17.2,3.9,-34.6,5.2,-52.1,6.6c-12.8,.9,-24.7,3.7,-37.8,3.7c-6.4,0,-19.3,2.3,-23.6,-2.2c3.3,.3,4.4,-2,6.5,-4.1c-3,1.1,-5.5,5,-9,5.3c0,3,3.6,2.9,3.9,5.8c.5,.3,1.1,.5,1.7,.3c-2.2,-2.5,-5.2,-1.4,-7,-5.1M467.5,900.6c-4,-5.5,-12.8,-9.8,-18.7,-12.9C438.5,882.4,428.3,878.6,417.3,875C408,871.9,399,867.6,389.9,864.1c-4,-1.6,-11.3,-4.1,-13.7,-6.6" class="g5_120"/>
<g clip-path="url(#c2_120)">
<path d="M-4.5,13.7H-27.4m939.5,0H935M-4.5,1031.2H-27.4m939.5,0H935M13.7,-4.5V-27.4m0,1077v22.9m880,-1077V-27.4m0,1077v22.9" class="g6_120"/>
<path d="M-4.5,13.7H-27.4m939.5,0H935M-4.5,1031.2H-27.4m939.5,0H935M13.7,-4.5V-27.4m0,1077v22.9m880,-1077V-27.4m0,1077v22.9" class="g7_120"/>
</g>
</svg>