<?xml version="1.0" encoding="UTF-8" standalone="no"?>
<!DOCTYPE svg PUBLIC "-//W3C//DTD SVG 1.1//EN"
"http://www.w3.org/Graphics/SVG/1.1/DTD/svg11.dtd">
<svg viewBox="0 0 931 1096" version="1.1" xmlns="http://www.w3.org/2000/svg" xmlns:xlink="http://www.w3.org/1999/xlink">
<defs>
<clipPath id="c0_28"><path d="M563.3,521.8c-.4,-3.3,-.7,-7.4,-.7,-11.7c0,-6.9,.7,-13.1,1.6,-16.8c-.2,1.1,-.5,2.3,-.7,3.7c.3,3.4,.4,7.9,.4,13.1c0,5,-.3,8.8,-.6,11.7Zm-10.4,12.6c-4.1,-4.1,-7.7,-7.9,-9.4,-9.5c-9.5,-9.5,-5.2,-5.6,-14.7,-14.5c-.1,-.1,-.2,-.2,-.2,-.2c0,0,-.1,-.1,-.1,-.1c0,0,0,-.1,0,-.1c.1,0,.2,-.2,.2,-.2c0,0,.1,0,.1,-.1c0,0,.1,-.1,.2,-.2c0,0,.1,-.1,.1,-.1c2.9,-3,-.6,.5,4.4,-4.4c3.8,-3.8,12.5,-12.2,18.9,-18.6c-.8,5.1,-1.4,12.1,-1.4,21.7c0,4,.1,7.6,.3,10.9c.3,6.5,.9,11.5,1.6,15.4Zm56.9,56.1c-1.4,0,-3,-1.5,-4.8,-3.4C593.3,575.4,579.6,561.4,567.9,549.7c-.3,-.4,-.7,-.8,-1.2,-1.3c-.1,-.1,-.2,-.2,-.3,-.2h.1c2.3,0,4.3,-4.8,5.7,-12.4c.1,-.2,.1,-.4,.2,-.6c1.1,-6.6,1.8,-15.2,1.8,-24.7c0,-10.1,-.8,-19.3,-2.1,-26.1c-.1,-.2,-.1,-.4,-.1,-.6c-1.4,-6.6,-3.3,-10.8,-5.4,-10.9h-.5c.1,-.1,.2,-.2,.3,-.3c.8,-.8,1.6,-1.5,2.4,-2.3c11.9,-11.7,23.9,-23.5,35.8,-35.3c2,-1.9,2.8,-3.4,4.7,-5.3c0,6.7,-2.3,13.3,-2.3,20.1c-.1,9.4,-1.6,19.2,-1.7,28.6c-.1,29.1,1,54.8,.9,84c-.1,8.7,3.7,19.4,3.7,28.1Z"/></clipPath>
<clipPath id="c1_28"><path d="M609.6,591.4c-.8,0,-1.6,-.4,-2.4,-1.3c-.6,-.7,-1.3,-1.6,-1.9,-2.9c-4.2,-8.6,-7.2,-29.7,-8.2,-56.8c-.2,-6.4,-.3,-13.2,-.3,-20.3c0,-35.4,4,-65.4,9.2,-76.3c.6,-1.3,1.2,-2.3,1.8,-3c.9,-1,1.6,-1.4,2.4,-1.4c1.8,0,3.4,2.3,4.3,4.2c5.2,10.8,8.9,40.9,8.9,76.5c0,6.8,-.2,13.4,-.4,19.6c-1.2,26.7,-4.7,48.3,-8.9,57.2c-1,2,-2.6,4.5,-4.5,4.5Z"/></clipPath>
<clipPath id="c2_28"><path d="M558.7,548.3c0,0,-3.5,-1.5,-5.8,-13.9c3.4,3.5,7.1,7.2,10,10.2c.1,.3,.3,.5,.4,.7c.4,1,.9,1.7,1.5,2.3c.3,.3,.6,.5,.9,.7Zm-6.3,-61.9c2.3,-13.5,6.4,-13.5,6.4,-13.5h6.7c-.3,.1,-.5,.3,-.7,.6c-.6,.5,-1,1.2,-1.5,2.2c-2.1,2.1,-4.3,4.3,-6.6,6.5c-1.2,1.2,-2.7,2.7,-4.3,4.2Z"/></clipPath>
<clipPath id="c3_28"><path d="M558.6,524.5l.4,-.4c-1.7,-1.2,-3.4,-2.4,-5.1,-3.5l-.3,.5c1.7,1.1,3.4,2.2,5,3.4Zm-5.1,-25.7c1.7,-1.1,3.4,-2.2,5.1,-3.4l-.3,-.4c-1.7,1.1,-3.4,2.3,-5.1,3.4l.3,.4Zm9.4,45.8c-2.9,-3,-6.6,-6.7,-10,-10.2c-.7,-3.9,-1.3,-8.9,-1.6,-15.4c-.2,-3.3,-.3,-6.9,-.3,-10.9c0,-9.6,.6,-16.6,1.4,-21.7c1.6,-1.5,3.1,-3,4.3,-4.2c2.3,-2.2,4.5,-4.4,6.6,-6.5c-1.2,2.4,-2.2,6.2,-3,10.8c-1.1,6.4,-1.8,14.5,-1.8,23.3h-5.7v.6h5.7v.1c0,10.4,.9,19.9,2.3,26.7c.6,3,1.3,5.5,2.1,7.4Z"/></clipPath>
<clipPath id="c4_28"><path d="M553.5,498.8l-.3,-.4c1.7,-1.1,3.4,-2.3,5.1,-3.4l.3,.4c-1.7,1.2,-3.4,2.3,-5.1,3.4Z"/></clipPath>
<clipPath id="c5_28"><path d="M558.6,524.5c-1.6,-1.2,-3.3,-2.3,-5,-3.4l.3,-.5c1.7,1.1,3.4,2.3,5.1,3.5l-.4,.4Z"/></clipPath>
<clipPath id="c6_28"><path d="M565.7,548.3c-.3,-.2,-.6,-.4,-.9,-.7c-.6,-.6,-1.1,-1.3,-1.5,-2.3c-.1,-.2,-.3,-.4,-.4,-.7c.2,.2,.4,.4,.6,.6c.6,1.2,1.2,2,1.8,2.5c.5,.4,.8,.6,1,.6Z"/></clipPath>
<clipPath id="c7_28"><path d="M563.5,545.2c-.2,-.2,-.4,-.4,-.6,-.6c-.8,-1.9,-1.5,-4.4,-2.1,-7.4c-1.4,-6.8,-2.3,-16.3,-2.3,-26.7v-.1h.3v.1c0,15.6,1.9,29,4.7,34.7Z"/></clipPath>
<clipPath id="c8_28"><path d="M563.3,475.7c.5,-1,.9,-1.7,1.5,-2.2c.2,-.3,.4,-.5,.7,-.6h.6v.1c-.8,.2,-1.5,.9,-2.2,2.1c-.2,.2,-.4,.4,-.6,.6Z"/></clipPath>
<clipPath id="c9_28"><path d="M558.5,509.8c0,-8.8,.7,-16.9,1.8,-23.3c.8,-4.6,1.8,-8.4,3,-10.8c.2,-.2,.4,-.4,.6,-.6c-2.9,5.1,-5.1,18.7,-5.1,34.7ZM566.1,473q0,-.1,0,-.1h.4c-.1,0,-.3,0,-.4,.1Z"/></clipPath>
<clipPath id="ca_28"><path d="M552.8,510.4v-.6h5.7c0,.2,0,.4,0,.6Z"/></clipPath>
<clipPath id="cb_28"><path d="M558.5,510.4c0,-.2,0,-.4,0,-.6h.3c0,.2,0,.4,0,.6Z"/></clipPath>
<clipPath id="cc_28"><path d="M566.5,547.9c-.1,0,-.3,0,-.4,-.1c-.6,-.6,-1.2,-1.2,-2,-2c-1.3,-2.2,-2.4,-6.2,-3.3,-11.4C559.7,527.9,559,519.6,559,510.5v-.1h3v-.6h-3c.1,-10.1,.9,-19.2,2.3,-25.8c.7,-3.4,1.5,-6.2,2.4,-8c.4,-.8,.8,-1.5,1.2,-1.9c.2,-.2,.3,-.3,.5,-.5c.4,-.3,.7,-.4,1.1,-.4c.4,0,.9,.2,1.4,.6c1.4,1.5,2.8,5.1,3.8,10.2c-1.2,1.1,-2.5,2.3,-3.8,3.4l.3,.4c1.2,-1,2.5,-2.1,3.6,-3.2c.2,.7,.3,1.3,.4,2c1.1,6.3,1.7,14.4,1.8,23.2h-3.6c0,-11.3,-1.8,-20.3,-3.9,-20.3h-.1c-.2,0,-.4,.1,-.6,.2l-.3,-.3c-1.5,1.3,-3.1,2.5,-4.8,3.8l.4,.4c1.5,-1.2,3,-2.4,4.5,-3.6c-.5,.6,-.9,1.8,-1.4,3.3c-.9,3.7,-1.6,9.9,-1.6,16.8c0,6.9,.7,12.9,1.6,16.7h.1c.1,.7,.3,1.3,.5,1.8c-1.1,-.9,-2.2,-1.8,-3.4,-2.7l-.3,.4c1.4,1.1,2.8,2.3,4.2,3.4c.4,.6,.7,.9,1,1h.2c2.2,0,3.9,-9.1,3.9,-20.3H574v.1c0,9.4,-.7,17.9,-1.9,24.5c-1.2,-1.1,-2.4,-2.2,-3.6,-3.3l-.3,.4c1.3,1.2,2.5,2.3,3.8,3.5c-.1,.5,-.2,1,-.3,1.5c-.7,3.4,-1.5,6.1,-2.4,8c-.5,.9,-1,1.6,-1.4,2.1c-.5,.5,-1,.7,-1.4,.7Z"/></clipPath>
<clipPath id="cd_28"><path d="M561.1,493.6l-.4,-.4c1.7,-1.3,3.3,-2.5,4.8,-3.8l.3,.3c0,.1,-.1,.2,-.2,.3c-1.5,1.2,-3,2.4,-4.5,3.6Zm7.1,-5.8l-.3,-.4c1.3,-1.1,2.6,-2.3,3.8,-3.4c.1,.2,.1,.4,.1,.6c-1.1,1.1,-2.4,2.2,-3.6,3.2Z"/></clipPath>
<clipPath id="ce_28"><path d="M572,535.6c-1.3,-1.2,-2.5,-2.3,-3.8,-3.5l.3,-.4c1.2,1.1,2.4,2.2,3.6,3.3c0,.2,-.1,.4,-.1,.6Z"/></clipPath>
<clipPath id="cf_28"><path d="M565.3,529.7c-1.4,-1.1,-2.8,-2.3,-4.2,-3.4l.3,-.4c1.2,.9,2.3,1.8,3.4,2.7c.2,.4,.4,.8,.5,1.1Z"/></clipPath>
<clipPath id="cg_28"><path d="M566.4,548.2c-.1,-.2,-.2,-.3,-.3,-.4c.1,.1,.3,.1,.4,.1c.4,0,.9,-.2,1.4,-.7c.4,-.5,.9,-1.2,1.4,-2.1c.9,-1.9,1.7,-4.6,2.4,-8c.1,-.5,.2,-1,.3,-1.5c.1,.1,.2,.1,.2,.2c-1.4,7.6,-3.4,12.4,-5.7,12.4Zm-2.3,-2.4c-.1,-.1,-.2,-.2,-.3,-.3c-2.1,-4.1,-4.6,-13.6,-4.8,-35.1v.1c0,9.1,.7,17.4,1.8,23.9c.9,5.2,2,9.2,3.3,11.4Z"/></clipPath>
<clipPath id="ch_28"><path d="M565.3,547.7c-.6,-.5,-1.2,-1.3,-1.8,-2.5c.1,.1,.2,.2,.3,.3c.6,1.1,1.1,1.8,1.5,2.2Z"/></clipPath>
<clipPath id="ci_28"><path d="M563.8,545.5c-.1,-.1,-.2,-.2,-.3,-.3c-2.8,-5.7,-4.7,-19.1,-4.7,-34.7v-.1h.2c.2,21.5,2.7,31,4.8,35.1Z"/></clipPath>
<clipPath id="cj_28"><path d="M572.4,535.2c-.1,-.1,-.2,-.2,-.3,-.2c1.2,-6.6,1.9,-15.1,1.9,-24.5v-.1h.2v-.6H574c-.1,-8.8,-.7,-16.9,-1.8,-23.2c-.1,-.7,-.2,-1.3,-.4,-2c.1,-.1,.2,-.1,.3,-.2c1.3,6.8,2.1,16,2.1,26.1c0,9.5,-.7,18.1,-1.8,24.7ZM559,509.8c0,-.6,0,-1.2,0,-1.7c0,-16.9,2.7,-29.6,5.6,-33.7c.1,-.1,.2,-.2,.3,-.3c-.4,.4,-.8,1.1,-1.2,1.9c-.9,1.8,-1.7,4.6,-2.4,8c-1.4,6.6,-2.2,15.7,-2.3,25.8ZM571.7,484c-1,-5.1,-2.4,-8.7,-3.8,-10.2c-.5,-.4,-1,-.6,-1.4,-.6c-.4,0,-.7,.1,-1.1,.4c.2,-.2,.4,-.3,.5,-.5c.2,-.1,.5,-.2,.7,-.2c2.1,.1,4,4.3,5.4,10.9c-.1,.1,-.2,.1,-.3,.2Z"/></clipPath>
<clipPath id="ck_28"><path d="M563.9,475.1c.7,-1.2,1.4,-1.9,2.2,-2.1c-.1,0,-.1,.1,-.2,.1c-.4,.3,-.9,.7,-1.3,1.3c-.2,.2,-.5,.4,-.7,.7Z"/></clipPath>
<clipPath id="cl_28"><path d="M558.8,509.8c0,-16,2.2,-29.6,5.1,-34.7c.2,-.3,.5,-.5,.7,-.7c-2.9,4.1,-5.6,16.8,-5.6,33.7c0,.5,0,1.1,0,1.7Zm7.1,-36.7c.1,0,.1,-.1,.2,-.1c.1,-.1,.3,-.1,.4,-.1h.1c-.2,0,-.5,.1,-.7,.2Z"/></clipPath>
<clipPath id="cm_28"><path d="M571.8,484.6c0,-.2,0,-.4,-.1,-.6c.1,-.1,.2,-.1,.3,-.2c0,.2,0,.4,.1,.6c-.1,.1,-.2,.1,-.3,.2Z"/></clipPath>
<clipPath id="cn_28"><path d="M572.2,535.8c0,-.1,-.1,-.1,-.2,-.2c0,-.2,.1,-.4,.1,-.6c.1,0,.2,.1,.3,.2c-.1,.2,-.1,.4,-.2,.6Z"/></clipPath>
<clipPath id="co_28"><path d="M559,510.4c0,-.2,0,-.4,0,-.6h3v.6Zm11.4,0v-.6H574c0,.2,0,.4,0,.6Z"/></clipPath>
<clipPath id="cp_28"><path d="M574,510.4c0,-.2,0,-.4,0,-.6h.2v.6Z"/></clipPath>
<clipPath id="cq_28"><path d="M559,510.4c0,-.2,0,-.4,0,-.6c0,.2,0,.4,0,.6Z"/></clipPath>
<clipPath id="cr_28"><path d="M558.8,510.4c0,-.2,0,-.4,0,-.6h.2c0,.2,0,.4,0,.6Z"/></clipPath>
<clipPath id="cs_28"><path d="M305.7,628V399.5H802.1V628Z"/></clipPath>
<clipPath id="ct_28"><path d="M566.4,530.7q-.1,0,-.1,0c-.3,-.1,-.6,-.4,-1,-1c.2,.2,.4,.3,.6,.5l.3,-.5c-.5,-.3,-.9,-.7,-1.4,-1.1c-.2,-.5,-.4,-1.1,-.5,-1.8q-.1,0,-.1,0c-.3,-1.4,-.6,-3,-.9,-5c.3,-2.9,.6,-6.7,.6,-11.7c0,-5.2,-.1,-9.7,-.4,-13.1c.2,-1.4,.5,-2.6,.7,-3.7c.5,-1.5,.9,-2.7,1.4,-3.3c.1,-.1,.2,-.1,.3,-.2l-.1,-.1c.2,-.1,.4,-.2,.6,-.2h.1c2.1,0,3.9,9,3.9,20.3H565v.6h5.4c0,11.2,-1.7,20.3,-3.9,20.3Z"/></clipPath>
<clipPath id="cu_28"><path d="M565.6,490c.1,-.1,.2,-.2,.2,-.3l.1,.1c-.1,.1,-.2,.1,-.3,.2Z"/></clipPath>
<clipPath id="cv_28"><path d="M565.9,530.2c-.2,-.2,-.4,-.3,-.6,-.5c-.1,-.3,-.3,-.7,-.5,-1.1c.5,.4,.9,.8,1.4,1.1l-.3,.5Z"/></clipPath>
<clipPath id="cw_28"><path d="M565,510.4v-.6h5.4v.6Z"/></clipPath>
<clipPath id="cx_28"><path d="M677.9,974.6c-1.2,0,-2.4,-2.3,-3.5,-4.6c4.5,-10.1,7.4,-36.6,7.4,-78c0,-41.5,-2.9,-68,-7.4,-78.1c1.1,-2.3,2.3,-4.6,3.5,-4.6c5.4,0,10.2,32.1,10.2,82.7c0,50.5,-4.8,82.6,-10.2,82.6Z"/></clipPath>
<clipPath id="cy_28"><path d="M669.5,989.8c0,0,-14.6,-8.1,-14.6,-104.3c0,-91.2,14.7,-91.2,14.7,-91.2h8c-6.9,0,-14.7,37.2,-14.7,91.2c0,91.7,11.8,104.3,13.8,104.3Z"/></clipPath>
<clipPath id="cz_28"><path d="M444.7,947.6c-1.5,0,-2.7,-1.6,-3.6,-3.3c-.3,-.6,-.6,-1.2,-.8,-1.7c-3.2,-7.6,-5.5,-23.2,-6,-41.8c-.1,-2.7,-.2,-5.5,-.2,-8.3c0,-22.3,2.6,-41.4,6.2,-50.1c.2,-.6,.5,-1.2,.8,-1.8c.9,-1.7,2.1,-3.3,3.6,-3.3c.3,0,.7,.1,1,.3c1.2,.6,2.4,2.2,3.4,4.8c3.6,8.7,6.1,27.8,6.1,50.1c0,2.8,0,5.6,-.1,8.3c-.6,18.6,-2.9,34.2,-6,41.8c-1,2.5,-2.2,4.1,-3.4,4.8c-.3,.2,-.7,.2,-1,.2Z"/></clipPath>
<clipPath id="c10_28"><path d="M446.7,946.7c.2,-.3,.4,-.6,.6,-.8c.2,-.3,.3,-.6,.5,-.8c.3,-.5,.6,-.8,.9,-1.2c-.6,1.3,-1.3,2.3,-2,2.8Zm-37.3,29.2c-1.7,-6.8,-3.4,-16.6,-4.7,-30.8c-.5,-5.1,-.9,-10.7,-1.2,-17c.9,16,2.4,29.9,4.3,40.4c.5,2.7,1,5.2,1.6,7.4Zm18.2,-79.8c0,-1.3,0,-2.6,0,-4v.2c0,1.3,0,2.6,0,3.8Zm-25.1,-3.5c-.1,-2.1,-.1,-4.3,-.1,-6.6c0,-2.4,.1,-4.8,.1,-7.1c.3,-21.6,1.8,-40.2,4,-54.4c.1,-1,.3,-1.9,.4,-2.8c-2.7,17.8,-4.4,42.9,-4.4,70.7v.2Zm14.8,82.2c-5.7,0,-10.3,-36.9,-10.3,-82.5c0,-36.4,2.9,-67.3,7,-78.2c4.4,10.2,7.3,36.6,7.3,77.9c0,41.4,-2.9,67.9,-7.4,78c1.2,2.3,2.3,4.6,3.5,4.6c.4,0,.7,-.1,1,-.3c-.3,.3,-.7,.5,-1.1,.5ZM392,1002.4c-.2,0,-.5,-.1,-.8,-.1c-4.1,-1,-8.4,-8.5,-11.3,-21c-4.8,-20,-8,-52.8,-8.1,-89.1c0,-18.5,1,-36,2.4,-51.3c3,-34,9.9,-57,16.9,-58.5c.3,-.1,.5,-.1,.7,-.1c6.6,0,12.5,2,17.8,5.5c8.1,5.2,15.6,13.5,22.1,23.7c4.9,7.7,9.5,16.3,14.1,25.3c-.2,0,-.3,0,-.4,.1c-.2,0,-.4,.1,-.6,.2c-1.9,1.2,-3.6,5.4,-5,11.8c-1.1,5.3,-2,12,-2.7,19.8c-.1,1.6,-.2,3.3,-.4,5.1c-.5,5.9,-1,12.2,-1,18.7c0,18.2,1.5,34.2,3.8,44.3c.3,1.2,.6,2.3,.9,3.3c.4,1.4,.9,2.7,1.4,3.7c1.1,2.3,2.3,3.5,3.5,3.5c0,0,.1,0,.1,0c.5,0,.9,-.2,1.3,-.6c-.7,1.1,-1.4,2.3,-2.2,3.6c-2.8,4.7,-6,10.7,-9.1,16c-1.2,2,-2.3,4,-3.5,5.8c-3,4.8,-6.2,9.2,-9.5,12.8c-.3,.4,-.7,.7,-1,1.1c-.1,.1,-.2,.2,-.3,.3c-.1,.1,-.2,.2,-.3,.3c2,-3.7,3.8,-10.2,5.3,-18.8c.1,-.3,.1,-.6,.2,-.9c3.1,-18,5,-44.7,5,-74.5c0,-29.9,-1.9,-56.8,-5.1,-74.7c0,-.3,-.1,-.6,-.2,-1c-1.6,-9.1,-3.6,-15.9,-5.7,-19.3c-.8,-1.3,-1.6,-2.2,-2.4,-2.5c-.4,-.2,-.7,-.2,-1,-.2c-.3,0,-.5,0,-.8,.1h-7c0,0,-1.2,0,-2.9,2.1c-.1,.2,-.2,.3,-.3,.4c-4.4,5.9,-11.5,25.2,-11.5,88.7c0,69.8,7.7,93.2,11.9,100.8c.1,.2,.2,.3,.3,.5c1.4,2.5,2.4,3,2.4,3h7.3c-.2,0,-.3,-.1,-.6,-.2c-.3,-.2,-.8,-.7,-1.4,-1.4c.9,1,1.7,1.5,2.6,1.5c.1,0,.2,0,.3,0l-.1,.1c-1.2,1.2,-2.4,2.3,-3.5,3.3c-1.1,.8,-2,1.6,-3,2.2c-6.8,4.7,-11.3,6.1,-18.5,6.6Z"/></clipPath>
<clipPath id="c11_28"><path d="M416.7,989.8c-.8,0,-1.8,-.6,-2.7,-1.9c-.9,-1.2,-1.8,-3,-2.6,-5.4l14.3,-14.3c-1,5.7,-2.2,10.5,-3.5,14.1c-.9,2.4,-1.8,4.3,-2.7,5.6q-.1,.1,-.2,.2c-.4,.4,-.7,.8,-1.1,1.2c-.5,.3,-1,.5,-1.4,.5h-.1ZM411.2,982c-1.2,-3.5,-2.4,-8,-3.4,-13.5c-1.9,-10.5,-3.4,-24.4,-4.3,-40.4c-.6,-10.1,-.9,-21.9,-1,-35.5v-.2c0,-27.8,1.7,-52.9,4.4,-70.7c1.4,-7.9,2.9,-14.3,4.5,-18.8l6.5,6.5c-.2,-.1,-.3,-.1,-.5,-.1c-.8,0,-1.6,1,-2.3,2.4c-.1,.1,-.2,.2,-.2,.4c-.4,.6,-.7,1.2,-1,1.8q.1,.1,.1,.2c-4.1,10.9,-7,41.8,-7,78.2c0,45.6,4.6,82.5,10.3,82.5c.4,0,.8,-.2,1.1,-.5c4.9,-3.6,9,-33.1,9.2,-78.2c0,-1.2,0,-2.5,0,-3.8V892c0,-43.5,-3.5,-73.4,-7.9,-80.9l6.2,6.2c.7,4,1.3,8.3,1.9,13.1c2.1,16.8,3.3,38.4,3.3,62c0,27,-1.6,51.4,-4.3,69c-.3,2,-.6,4,-.9,5.8L411.2,982ZM425.7,816.4L411.6,802.3c1.3,-3.5,2.6,-5.8,3.9,-6.9c.4,-.2,.8,-.3,1.2,-.3h.1c.8,0,1.8,.6,2.7,1.8c2.3,3.1,4.4,9.9,6.2,19.5Z"/></clipPath>
<clipPath id="c12_28"><path d="M416.9,990.2c-.9,0,-1.7,-.5,-2.6,-1.5c-.8,-1.2,-1.8,-3.1,-2.9,-6.2c.8,2.4,1.7,4.2,2.6,5.4c.9,1.3,1.9,1.9,2.7,1.9h.1c.4,0,.9,-.2,1.4,-.5c-.4,.3,-.7,.6,-1,.9c-.1,0,-.2,0,-.3,0ZM411.2,982c-.6,-1.7,-1.2,-3.7,-1.8,-6.1c-.6,-2.2,-1.1,-4.7,-1.6,-7.4c1,5.5,2.2,10,3.4,13.5Zm8.1,6.1q.1,-.1,.2,-.2c.9,-1.3,1.8,-3.2,2.7,-5.6c1.3,-3.6,2.5,-8.4,3.5,-14.1l.4,-.4c-1.5,8.6,-3.3,15.1,-5.3,18.8c-.5,.5,-1,1,-1.5,1.5Zm6.6,-20.9c.3,-1.8,.6,-3.8,.9,-5.8c2.7,-17.6,4.3,-42,4.3,-69c0,-23.6,-1.2,-45.2,-3.3,-62c-.6,-4.8,-1.2,-9.1,-1.9,-13.1l.3,.4c3.2,17.9,5.1,44.8,5.1,74.7c0,29.8,-1.9,56.5,-5,74.5l-.4,.3ZM426,816.7l-.3,-.3c-1.8,-9.6,-3.9,-16.4,-6.2,-19.5c-.9,-1.2,-1.9,-1.8,-2.7,-1.8h-.1c-.4,0,-.8,.1,-1.2,.3c.6,-.4,1.1,-.6,1.6,-.6h-1c.3,-.1,.5,-.1,.8,-.1c.3,0,.6,0,1,.2c.8,.8,1.6,1.6,2.4,2.5c2.1,3.4,4.1,10.2,5.7,19.3Z"/></clipPath>
<clipPath id="c13_28"><path d="M411.4,982.5c-.1,-.2,-.2,-.4,-.2,-.5l14.7,-14.8c-.1,.3,-.1,.7,-.2,1l-14.3,14.3ZM425.9,817.3l-6.2,-6.2c-.6,-1,-1.2,-1.5,-1.8,-1.7l-6.5,-6.5c.1,-.2,.1,-.4,.2,-.6l14.1,14.1c0,.3,.1,.6,.2,.9Z"/></clipPath>
<clipPath id="c14_28"><path d="M411.4,982.5c-.1,-.1,-.2,-.3,-.2,-.5c0,.1,.1,.3,.2,.5Zm14.3,-14.3c.1,-.3,.1,-.7,.2,-1l.4,-.3c-.1,.3,-.1,.6,-.2,.9l-.4,.4Zm.5,-150.5l-.3,-.4c-.1,-.3,-.2,-.6,-.2,-.9l.3,.3c.1,.4,.2,.7,.2,1Zm-5.9,-20.3c-.8,-.9,-1.6,-1.7,-2.4,-2.5c.8,.3,1.6,1.2,2.4,2.5Z"/></clipPath>
<clipPath id="c15_28"><path d="M409,990.3c0,0,-1,-.5,-2.4,-3l4.4,-4.4c.8,2.3,1.7,4.1,2.6,5.3c.7,.9,1.4,1.6,2.1,1.9c.3,.1,.4,.2,.6,.2Z"/></clipPath>
<clipPath id="c16_28"><path d="M415.7,990.1c-.7,-.3,-1.4,-1,-2.1,-1.9c-.9,-1.2,-1.8,-3,-2.6,-5.3l.3,-.3c1,2.7,2,4.8,3,6.1c.6,.7,1.1,1.2,1.4,1.4Z"/></clipPath>
<clipPath id="c17_28"><path d="M414.3,988.7c-1,-1.3,-2,-3.4,-3,-6.1l.1,-.1c1.1,3.1,2.1,5,2.9,6.2Z"/></clipPath>
<clipPath id="c18_28"><path d="M404.7,945.1c-1.5,-15.2,-2.3,-33.3,-2.3,-52.7c0,-4.6,0,-9.1,.1,-13.5c0,2.3,-.1,4.7,-.1,7.1c0,2.3,0,4.5,.1,6.6c0,12.6,.3,24.5,1,35.5c.3,6.3,.7,11.9,1.2,17Zm1.8,-120.6c0,-.2,0,-.3,0,-.4c0,.1,0,.2,0,.4Zm0,-.4c.1,-.2,.1,-.5,.1,-.7c.5,-2.8,.9,-5.5,1.4,-7.9c-.4,1.9,-.7,4,-1.1,6.2c-.1,.8,-.2,1.6,-.4,2.4Zm-.2,162.7c-4.2,-7.6,-11.9,-31,-11.9,-100.8c0,-63.5,7.1,-82.8,11.5,-88.7l4.9,5c-2.2,6.2,-4.1,15.9,-5.6,28c-2.1,16.9,-3.4,38.5,-3.4,62.1c0,27,1.7,51.4,4.3,69.1c1.3,8.8,2.9,15.9,4.7,20.9l-4.5,4.4Z"/></clipPath>
<clipPath id="c19_28"><path d="M403.5,928.1c-.7,-11,-1,-22.9,-1,-35.5c.1,13.6,.4,25.4,1,35.5Zm3.4,-106.4c.4,-2.2,.7,-4.3,1.1,-6.2c1,-5.2,2.1,-9.5,3.2,-12.8l.2,.2c-1.6,4.5,-3.1,10.9,-4.5,18.8Z"/></clipPath>
<clipPath id="c1a_28"><path d="M410.8,982.4c-1.8,-5,-3.4,-12.1,-4.7,-20.9c-2.6,-17.7,-4.3,-42.1,-4.3,-69.1c0,-23.6,1.3,-45.2,3.4,-62.1c1.5,-12.1,3.4,-21.8,5.6,-28l.4,.3C410,806,409,810.3,408,815.5c-.5,2.4,-.9,5.1,-1.4,7.9c0,.4,-.1,.7,-.1,1.1c-2.2,14.2,-3.7,32.8,-4,54.4c-.1,4.4,-.1,8.9,-.1,13.5c0,19.4,.8,37.5,2.3,52.7c1.3,14.2,3,24,4.7,30.8c.5,2.3,1.1,4.3,1.7,6.1l-.3,.4Z"/></clipPath>
<clipPath id="c1b_28"><path d="M411.1,982c-.6,-1.8,-1.2,-3.8,-1.7,-6.1c.6,2.4,1.2,4.4,1.8,6.1h-.1ZM408,815.5c1,-5.2,2,-9.5,3.2,-12.9v.1c-1.1,3.3,-2.2,7.6,-3.2,12.8Z"/></clipPath>
<clipPath id="c1c_28"><path d="M411,801.7l-4.8,-4.8c1.7,-2.1,2.9,-2.1,2.9,-2.1h6.5c-.7,.3,-1.4,1,-2,1.8c-.9,1.2,-1.8,2.9,-2.6,5.1Z"/></clipPath>
<clipPath id="c1d_28"><path d="M411.6,802.3l-.2,-.2c.9,-2.2,1.7,-4,2.6,-5.2c.5,-.7,1,-1.2,1.5,-1.5c-1.3,1.1,-2.6,3.4,-3.9,6.9Z"/></clipPath>
<clipPath id="c1e_28"><path d="M411.4,802.1l-.4,-.4c.8,-2.2,1.7,-3.9,2.6,-5.1c.6,-.8,1.3,-1.5,2,-1.8h.5c-1.7,.6,-3.3,3.1,-4.7,7.3Z"/></clipPath>
<clipPath id="c1f_28"><path d="M411.4,802.1c1.4,-4.2,3,-6.7,4.7,-7.3h1c-.5,0,-1,.2,-1.6,.6c-.5,.3,-1,.8,-1.5,1.5c-.9,1.2,-1.7,3,-2.6,5.2Z"/></clipPath>
<clipPath id="c1g_28"><path d="M406.6,987.3c-.1,-.2,-.2,-.3,-.3,-.5l4.5,-4.4v.1c.1,.1,.1,.3,.2,.4l-4.4,4.4Z"/></clipPath>
<clipPath id="c1h_28"><path d="M411,982.9c-.1,-.1,-.1,-.3,-.2,-.4q0,-.1,0,-.1l.3,-.4c.1,.2,.1,.4,.2,.6l-.3,.3Z"/></clipPath>
<clipPath id="c1i_28"><path d="M411.3,982.6c-.1,-.2,-.1,-.4,-.2,-.6h.1c0,.2,.1,.4,.2,.5l-.1,.1Z"/></clipPath>
<clipPath id="c1j_28"><path d="M410.8,802.3l-4.9,-5c.1,-.1,.2,-.2,.3,-.4l4.8,4.8c0,.2,-.1,.4,-.2,.6Z"/></clipPath>
<clipPath id="c1k_28"><path d="M411.4,802.9l-.2,-.2c0,0,.1,-.1,.1,-.1c0,-.2,.1,-.3,.1,-.5l.2,.2c-.1,.2,-.1,.4,-.2,.6Z"/></clipPath>
<clipPath id="c1l_28"><path d="M411.2,802.6l-.4,-.3c.1,-.2,.2,-.4,.2,-.6l.4,.4c-.1,.2,-.2,.3,-.2,.5Z"/></clipPath>
<clipPath id="c1m_28"><path d="M411.2,802.7v-.1c0,-.2,.1,-.3,.2,-.5c0,.2,-.1,.3,-.1,.5c0,0,-.1,.1,-.1,.1Z"/></clipPath>
<clipPath id="c1n_28"><path d="M417.4,974.6c-1.2,0,-2.3,-2.3,-3.5,-4.6c4.5,-10.1,7.4,-36.6,7.4,-78c0,-41.3,-2.9,-67.7,-7.3,-77.9c.3,-.8,.6,-1.5,.9,-2c0,-.2,.1,-.3,.2,-.4c.7,-1.2,1.4,-1.9,2.2,-1.9c5.7,0,10.3,36.8,10.3,82.3c0,1.4,0,2.7,0,4c-.2,40.7,-4.2,73.7,-9.2,78.2c-.3,.2,-.6,.3,-1,.3Z"/></clipPath>
<clipPath id="c1o_28"><path d="M418.4,974.3c5,-4.5,9,-37.5,9.2,-78.2c-.2,45.1,-4.3,74.6,-9.2,78.2ZM414,814.1q0,-.1,-.1,-.2c.3,-.6,.6,-1.2,1,-1.8c-.3,.5,-.6,1.2,-.9,2Zm13.6,78c0,-45.5,-4.6,-82.3,-10.3,-82.3c-.8,0,-1.5,.7,-2.2,1.9c.7,-1.4,1.5,-2.4,2.3,-2.4c.2,0,.3,0,.5,.1l1.8,1.7c4.4,7.5,7.9,37.4,7.9,80.9v.1Z"/></clipPath>
<clipPath id="c1p_28"><path d="M419.7,811.1l-1.8,-1.7c.6,.2,1.2,.7,1.8,1.7Z"/></clipPath>
<style type="text/css"><![CDATA[
.g0_28{
fill: none;
stroke: #241F1F;
stroke-width: 0.763;
stroke-miterlimit: 10;
}
.g1_28{
fill: #F2AAC8;
}
.g2_28{
fill: #A2BBC8;
}
.g3_28{
fill: #A1DEF9;
}
.g4_28{
fill: none;
stroke: #00AEEF;
stroke-width: 0.763;
stroke-linejoin: round;
}
.g5_28{
fill: #00AEEF;
}
.g6_28{
fill: none;
stroke: #00AEEF;
stroke-width: 0.763;
stroke-miterlimit: 3;
}
.g7_28{
fill: none;
stroke: #EE008C;
stroke-width: 0.916;
stroke-linejoin: round;
}
.g8_28{
fill: none;
stroke: #969698;
stroke-width: 0.916;
stroke-linejoin: round;
}
.g9_28{
fill: #241F1F;
}
.ga_28{
fill: none;
stroke: #241F1F;
stroke-width: 0.381;
stroke-miterlimit: 3;
}
.gb_28{
fill: none;
stroke: #00C3F4;
stroke-width: 0.534;
stroke-linejoin: round;
}
.gc_28{
fill: #00C3F4;
}
.gd_28{
fill: #FDC4DA;
}
.ge_28{
fill: #FFF;
}
.gf_28{
fill: none;
stroke: #241F1F;
stroke-width: 0.763;
stroke-linejoin: round;
}
.gg_28{
fill: none;
stroke: #241F1F;
stroke-width: 0.534;
stroke-miterlimit: 3;
}
.gh_28{
fill: none;
stroke: #241F1F;
stroke-width: 0.763;
stroke-miterlimit: 3;
}
.gi_28{
fill: none;
stroke: #241F1F;
stroke-width: 0.611;
stroke-miterlimit: 3;
}
.gj_28{
fill: #EE008C;
}
.gk_28{
fill: none;
stroke: #EE008C;
stroke-width: 0.534;
stroke-linejoin: round;
}
.gl_28{
fill: #969698;
}
.gm_28{
fill: #E28EB2;
}
.gn_28{
fill: none;
stroke: #F9951B;
stroke-width: 0.916;
stroke-linejoin: round;
}
.go_28{
fill: #B0CBD9;
}
.gp_28{
fill: none;
stroke: #00AEEF;
stroke-width: 0.549;
stroke-linejoin: round;
}
.gq_28{
fill: none;
stroke: #969698;
stroke-width: 0.611;
stroke-miterlimit: 3;
stroke-dasharray: 13,4;
}
.gr_28{
fill: none;
stroke: #241F1F;
stroke-width: 0.534;
stroke-miterlimit: 3;
stroke-dasharray: 10,4;
}
.gs_28{
fill: none;
stroke: #EE008C;
stroke-width: 0.534;
}
.gt_28{
fill: none;
stroke: #DA0080;
stroke-width: 0.534;
}
]]></style>
</defs>
<path d="M496.4,360.9h18.2m21.9,0h18.2m36.3,0h22.4" class="g0_28"/>
<image clip-path="url(#c0_28)" x="528" y="429" width="82" height="162" xlink:href="shade/1.png"/>
<image clip-path="url(#c1_28)" x="596" y="429" width="28" height="165" xlink:href="shade/2.png"/>
<image clip-path="url(#c2_28)" x="552" y="472" width="14" height="77" xlink:href="shade/3.png"/>
<image clip-path="url(#c3_28)" preserveAspectRatio="none" x="551" y="476" width="13" height="69" xlink:href="img/1.jpg"/>
<image clip-path="url(#c4_28)" preserveAspectRatio="none" x="553" y="494" width="6" height="5" xlink:href="img/2.jpg"/>
<image clip-path="url(#c5_28)" preserveAspectRatio="none" x="553" y="520" width="6" height="5" xlink:href="img/3.jpg"/>
<image clip-path="url(#c6_28)" x="562" y="544" width="5" height="5" xlink:href="shade/4.png"/>
<g clip-path="url(#c7_28)">
<image preserveAspectRatio="none" x="558" y="510" width="6" height="36" xlink:href="img/4.jpg"/>
<image preserveAspectRatio="none" x="558" y="510" width="6" height="36" xlink:href="img/5.jpg"/>
</g>
<image clip-path="url(#c8_28)" x="563" y="472" width="4" height="4" xlink:href="shade/5.png"/>
<g clip-path="url(#c9_28)">
<image preserveAspectRatio="none" x="558" y="472" width="9" height="38" xlink:href="img/6.jpg"/>
<image preserveAspectRatio="none" x="558" y="472" width="9" height="38" xlink:href="img/7.jpg"/>
</g>
<image clip-path="url(#ca_28)" preserveAspectRatio="none" x="552" y="509" width="7" height="2" xlink:href="img/8.jpg"/>
<image clip-path="url(#cb_28)" preserveAspectRatio="none" x="558" y="509" width="1" height="2" xlink:href="img/9.jpg"/>
<path d="M566.1,547.8c-.3,-.1,-.6,-.3,-1,-.6c-.3,-.3,-.6,-.8,-1,-1.4c.8,.8,1.4,1.4,2,2m-1.2,-73.7c.1,-.1,.2,-.2,.2,-.3c.1,0,.2,-.1,.3,-.2c-.2,.2,-.3,.3,-.5,.5Z" class="g1_28"/>
<image clip-path="url(#cc_28)" preserveAspectRatio="none" x="559" y="473" width="15" height="75" xlink:href="img/10.jpg"/>
<g clip-path="url(#cd_28)">
<image preserveAspectRatio="none" x="560" y="483" width="12" height="11" xlink:href="img/11.jpg"/>
<image preserveAspectRatio="none" x="560" y="483" width="12" height="11" xlink:href="img/12.jpg"/>
</g>
<image clip-path="url(#ce_28)" preserveAspectRatio="none" x="567" y="531" width="6" height="5" xlink:href="img/13.jpg"/>
<image clip-path="url(#cf_28)" preserveAspectRatio="none" x="560" y="525" width="6" height="5" xlink:href="img/14.jpg"/>
<path d="M566.4,548.2c-.3,-.1,-.7,-.2,-1.1,-.5c-.4,-.4,-.9,-1.1,-1.5,-2.2c.1,.1,.2,.2,.3,.3c.4,.6,.7,1.1,1,1.4c.4,.3,.7,.5,1,.6c.1,.1,.2,.2,.3,.4Z" class="g1_28"/>
<image clip-path="url(#cg_28)" preserveAspectRatio="none" x="558" y="510" width="14" height="39" xlink:href="img/15.jpg"/>
<image clip-path="url(#ch_28)" preserveAspectRatio="none" x="563" y="545" width="3" height="3" xlink:href="img/16.jpg"/>
<g clip-path="url(#ci_28)">
<image preserveAspectRatio="none" x="558" y="510" width="6" height="36" xlink:href="img/17.jpg"/>
<image preserveAspectRatio="none" x="558" y="510" width="6" height="36" xlink:href="img/18.jpg"/>
</g>
<path d="M564.6,474.4c.4,-.6,.9,-1,1.3,-1.3c-.1,.2,-.3,.3,-.5,.5c-.1,.1,-.2,.2,-.3,.2c0,.1,-.1,.2,-.2,.3c-.1,.1,-.2,.2,-.3,.3Z" class="g1_28"/>
<image clip-path="url(#cj_28)" preserveAspectRatio="none" x="558" y="472" width="17" height="63" xlink:href="img/19.jpg"/>
<image clip-path="url(#ck_28)" preserveAspectRatio="none" x="563" y="472" width="4" height="4" xlink:href="img/20.jpg"/>
<g clip-path="url(#cl_28)">
<image preserveAspectRatio="none" x="558" y="472" width="9" height="38" xlink:href="img/21.jpg"/>
<image preserveAspectRatio="none" x="558" y="472" width="9" height="38" xlink:href="img/22.jpg"/>
</g>
<image clip-path="url(#cm_28)" preserveAspectRatio="none" x="571" y="483" width="2" height="2" xlink:href="img/23.jpg"/>
<image clip-path="url(#cn_28)" preserveAspectRatio="none" x="571" y="534" width="2" height="2" xlink:href="img/24.jpg"/>
<image clip-path="url(#co_28)" preserveAspectRatio="none" x="559" y="509" width="15" height="2" xlink:href="img/25.jpg"/>
<image clip-path="url(#cp_28)" preserveAspectRatio="none" x="573" y="509" width="2" height="2" xlink:href="img/26.jpg"/>
<image clip-path="url(#cq_28)" preserveAspectRatio="none" x="558" y="509" width="2" height="2" xlink:href="img/27.jpg"/>
<image clip-path="url(#cr_28)" preserveAspectRatio="none" x="558" y="509" width="1" height="2" xlink:href="img/28.jpg"/>
<path fill-rule="evenodd" d="M529,510.1c.4,0,.8,0,1.2,0c.4,-.1,.9,-.1,1.4,-.1h-.1c-.9,0,-1.7,.1,-2.5,.1Z" class="g2_28"/>
<path fill-rule="evenodd" d="M529,510.1c.8,0,1.6,-.1,2.5,-.1Z" class="g2_28"/>
<path fill-rule="evenodd" d="M530.2,510.1c.5,-.1,1.3,-.1,1.9,-.1c-.2,0,-.4,0,-.5,0c-.5,0,-1,0,-1.4,.1Z" class="g2_28"/>
<path fill-rule="evenodd" d="M346.8,510.2l79.5,-79.5c-22.1,42.1,-44.5,79.5,-79.5,79.5Z" class="g3_28"/>
<path d="M346.9,510.2l79.3,-79.4m-79.3,79.4c35,0,57.1,-37.5,79,-79.5" class="g4_28"/>
<path d="M424.6,430.7c0,-.9,.7,-1.7,1.7,-1.7c.9,0,1.7,.8,1.7,1.7c0,1,-.8,1.7,-1.7,1.7c-1,0,-1.7,-.7,-1.7,-1.7Z" class="g5_28"/>
<path d="M424.6,430.7c0,-.9,.7,-1.7,1.7,-1.7c.9,0,1.7,.8,1.7,1.7c0,1,-.8,1.7,-1.7,1.7c-1,0,-1.7,-.7,-1.7,-1.7Z" class="g6_28"/>
<path d="M387.5,469.5v20.7" class="g7_28"/>
<path d="M307,491.1c11.5,11.8,24.4,19.1,39.8,19.1m-39.7,39.7l39.7,-39.7m79.4,-79.4l19.9,-19.9M426,430.7c3.4,-6.5,6.8,-13.2,10.2,-19.8" class="g8_28"/>
<path d="M345.1,510.2c0,-1,.8,-1.8,1.7,-1.8c1,0,1.8,.8,1.8,1.8c0,.9,-.8,1.7,-1.8,1.7c-.9,0,-1.7,-.8,-1.7,-1.7Z" class="g5_28"/>
<path d="M345.1,510.2c0,-1,.8,-1.8,1.7,-1.8c1,0,1.8,.8,1.8,1.8c0,.9,-.8,1.7,-1.8,1.7c-.9,0,-1.7,-.8,-1.7,-1.7Z" class="g6_28"/>
<path d="M406.8,494.5c.3,.5,.5,1.2,.5,1.8c0,1.5,-.6,2.9,-2.2,2.9c-1.2,0,-1.9,-1.1,-1.9,-2.3c0,-2.1,1.9,-3.7,4.3,-3.7c.8,0,1.6,.2,2.3,.5c.2,-.1,.3,-.3,.5,-.5l.2,.3c-.1,.1,-.2,.3,-.3,.4c1,.6,2.1,1.6,2.1,2.9c0,.9,-.6,1.4,-1.4,1.6c.5,.6,.7,1,.7,1.7c0,.8,-.3,1.3,-.3,1.7c0,.3,.2,.6,.6,.6c.7,0,1.1,-.9,1.3,-1.4l.3,.1c-.3,.7,-.7,1.6,-1.6,1.6c-1,0,-1.6,-.8,-1.6,-1.7c0,-.7,.4,-1.4,.4,-2c0,-.2,0,-.4,-.1,-.6c-.3,0,-.8,-.1,-.8,-.4c0,-.2,.1,-.3,.2,-.3c.3,0,.5,.2,.8,.4c.4,-.5,.6,-1,.6,-1.6c0,-1,-.5,-1.7,-1.4,-2.3c-.9,1.3,-.5,3.5,-1.2,5.8c-.5,1.5,-1.5,2.7,-3.1,2.7c-1.5,0,-2.1,-1.1,-2.1,-1.6c0,-.3,.2,-.6,.6,-.6c.3,0,.8,.5,.8,.8c0,.5,-.5,.3,-.5,.5c0,.3,.4,.6,1,.6c1.1,0,1.7,-.9,2.1,-2.3c.5,-2.5,1,-5.1,2,-6.1c-.7,-.3,-1.4,-.4,-2.1,-.4c-2.1,0,-4,1.3,-4,3.3c0,.9,.6,1.9,1.5,1.9c1.3,0,1.9,-1.4,1.9,-2.5c0,-.7,-.2,-1.3,-.4,-1.8Z" class="g9_28"/>
<path d="M399.9,497.2l-21,-5.6" class="ga_28"/>
<path d="M375.7,490.8l4.7,-.5l-1.5,1.3l.6,1.9Z" class="g9_28"/>
<path fill-rule="evenodd" d="M529,510.1c.4,0,.8,0,1.2,0c.4,-.1,.9,-.1,1.4,-.1h-.1c-.9,0,-1.7,.1,-2.5,.1Z" class="g2_28"/>
<path fill-rule="evenodd" d="M529,510.1c.8,0,1.6,-.1,2.5,-.1Z" class="g2_28"/>
<path fill-rule="evenodd" d="M530.2,510.1c.5,-.1,1.3,-.1,1.9,-.1c-.2,0,-.4,0,-.5,0c-.5,0,-1,0,-1.4,.1Z" class="g2_28"/>
<path d="M597,510.1c0,-44.8,6.3,-80.7,13.5,-80.7c7.2,0,13.1,35.9,13.1,80.7c0,44.8,-6.5,81.3,-13.7,81.3c-7.7,0,-12.9,-35.3,-12.9,-81.3Z" class="gb_28"/>
<path d="M528.5,510.2c2,-.5,3.9,-1.1,5.9,-1.8l-.2,-.5c-1.9,.7,-3.9,1.3,-5.8,1.8l.1,.5m8.8,-2.8c1.8,-.8,3.7,-1.6,5.6,-2.5l-.3,-.5c-1.8,.9,-3.7,1.7,-5.5,2.5l.2,.5m8.3,-3.9c1.8,-1,3.6,-2,5.3,-3l-.2,-.5c-1.8,1.1,-3.6,2.1,-5.3,3l.2,.5m7.9,-4.7c1.7,-1.1,3.4,-2.2,5.1,-3.4l-.3,-.4c-1.7,1.1,-3.4,2.3,-5.1,3.4l.3,.4m7.6,-5.2c1.6,-1.2,3.2,-2.5,4.8,-3.8l-.4,-.4c-1.5,1.3,-3.1,2.5,-4.8,3.8l.4,.4m7.1,-5.8c1.6,-1.3,3.1,-2.7,4.6,-4.1l-.4,-.4c-1.5,1.4,-3,2.8,-4.5,4.1l.3,.4m6.8,-6.2c1.5,-1.4,2.9,-2.8,4.3,-4.3l-.3,-.4c-1.4,1.5,-2.9,2.9,-4.4,4.3l.4,.4m6.4,-6.5c1.4,-1.6,2.8,-3.1,4.1,-4.6l-.4,-.4c-1.3,1.6,-2.7,3.1,-4,4.6l.3,.4m6.1,-7c1.3,-1.6,2.6,-3.2,3.8,-4.8l-.4,-.3c-1.2,1.6,-2.5,3.2,-3.8,4.8l.4,.3m5.6,-7.2c1.2,-1.7,2.4,-3.4,3.5,-5.1l-.5,-.3c-1.1,1.7,-2.2,3.4,-3.4,5l.4,.4m5.1,-7.7c1.1,-1.8,2.1,-3.6,3,-5.4l-.5,-.2c-.9,1.7,-1.9,3.5,-3,5.3l.5,.3m4.3,-8.1c.9,-2.1,1.6,-4,2.1,-5.8l-.5,-.2c-.5,1.8,-1.2,3.7,-2.1,5.7l.5,.3Z" class="gc_28"/>
<path d="M528.5,509.9l77.8,-76.5" class="gb_28"/>
<path d="M528.7,509.8c2,.5,3.9,1.1,5.9,1.8l.2,-.5c-2,-.7,-4,-1.3,-5.9,-1.8l-.2,.5m8.7,2.8c1.9,.8,3.8,1.6,5.6,2.5l.2,-.5c-1.8,-.9,-3.7,-1.7,-5.6,-2.5l-.2,.5m8.3,3.8c1.8,1,3.6,2,5.3,3.1l.3,-.5c-1.8,-1.1,-3.5,-2.1,-5.3,-3l-.3,.4m7.9,4.7c1.7,1.1,3.4,2.2,5,3.4l.4,-.4c-1.7,-1.2,-3.4,-2.4,-5.1,-3.5l-.3,.5m7.5,5.2c1.6,1.3,3.2,2.6,4.8,3.9l.3,-.5c-1.6,-1.3,-3.2,-2.5,-4.8,-3.8l-.3,.4m7.1,5.8c1.5,1.4,3,2.8,4.5,4.2l.4,-.4c-1.5,-1.4,-3,-2.8,-4.6,-4.2l-.3,.4m6.7,6.3c1.4,1.4,2.9,2.9,4.2,4.4l.4,-.4c-1.4,-1.5,-2.8,-2.9,-4.2,-4.4l-.4,.4m6.3,6.6c1.4,1.6,2.7,3.1,4,4.7l.4,-.4c-1.3,-1.5,-2.6,-3.1,-4,-4.6l-.4,.3m5.9,7c1.2,1.7,2.5,3.3,3.6,5l.4,-.4c-1.1,-1.6,-2.3,-3.2,-3.6,-4.9l-.4,.3m5.3,7.5c1.2,1.7,2.3,3.4,3.3,5.1l.5,-.3c-1,-1.7,-2.1,-3.4,-3.3,-5.1l-.5,.3m4.8,7.8c1,1.8,1.9,3.6,2.7,5.4l.5,-.2c-.8,-1.8,-1.7,-3.6,-2.7,-5.5l-.5,.3m3.9,8.2c.8,2.1,1.3,4,1.7,5.8l.6,-.1c-.4,-1.8,-1,-3.8,-1.8,-5.9l-.5,.2Z" class="gc_28"/>
<path d="M528.5,509.9l77.4,78.2" class="gb_28"/>
<path d="M686.5,511.4c0,-30.4,24.6,-55,55,-55c30.4,0,55,24.6,55,55c0,30.4,-24.6,55,-55,55c-30.4,0,-55,-24.6,-55,-55Z" class="gd_28"/>
<path d="M686.5,511.4c0,-30.4,24.6,-55,55,-55c30.4,0,55,24.6,55,55c0,30.4,-24.6,55,-55,55c-30.4,0,-55,-24.6,-55,-55Z" class="g7_28"/>
<path d="M704.5,511.4c0,-20.5,16.6,-37.1,37,-37.1c20.5,0,37.1,16.6,37.1,37.1c0,20.5,-16.6,37.1,-37.1,37.1c-20.4,0,-37,-16.6,-37,-37.1Z" class="ge_28"/>
<path d="M704.5,511.4c0,-20.5,16.6,-37.1,37,-37.1c20.5,0,37.1,16.6,37.1,37.1c0,20.5,-16.6,37.1,-37.1,37.1c-20.4,0,-37,-16.6,-37,-37.1Z" class="g7_28"/>
<path d="M733.2,475.3l8.3,36.1M691.7,488.2l49.8,23.2" class="gf_28"/>
<path d="M746.4,509.9c1.2,-.3,1.8,-1.8,1.6,-3.2l-3,-13c-.3,-1.4,-.5,-2.6,.8,-2.9c-1.3,.3,-1.6,-.8,-2,-2.2l-2.6,-11.3c-.4,-1.3,-1.6,-2.2,-2.8,-2M690.1,494c-.8,1.9,.8,3,3,4.1l16.7,7.8c2.2,1.1,4,1.7,3.2,3.7c1,-1.9,2.7,-.9,4.9,.1l14.8,6.9c2.3,1,4.5,1.6,5.4,-.3" class="gg_28"/>
<path d="M777.8,454.1l-16.4,16.8" class="ga_28"/>
<path d="M759.1,473.3l1.8,-4.3l.5,1.9l1.9,.4Z" class="g9_28"/>
<path d="M739.8,511.4c0,-.9,.8,-1.7,1.7,-1.7c1,0,1.7,.8,1.7,1.7c0,1,-.7,1.7,-1.7,1.7c-.9,0,-1.7,-.7,-1.7,-1.7Z" class="g9_28"/>
<path d="M739.8,511.4c0,-.9,.8,-1.7,1.7,-1.7c1,0,1.7,.8,1.7,1.7c0,1,-.7,1.7,-1.7,1.7c-.9,0,-1.7,-.7,-1.7,-1.7Z" class="gh_28"/>
<path clip-path="url(#cs_28)" d="M305.7,510.1H456.9" class="gi_28"/>
<path fill-rule="evenodd" d="M456.9,510.1l-1.6,-2.4l6.5,2.4l-6.5,2.5Z" class="g9_28"/>
<path d="M346.9,546.8V409.3" class="gi_28"/>
<path fill-rule="evenodd" d="M346.9,409.3l-2.4,1.6l2.4,-6.5l2.5,6.5Z" class="g9_28"/>
<path d="M558.8,510.5h.2c0,-10.4,.9,-19.7,2.3,-26.5c.7,-3.4,1.5,-6.2,2.4,-8c.5,-1,1,-1.7,1.4,-2.2c.5,-.4,1,-.6,1.4,-.6c.4,0,.9,.2,1.4,.6c1.7,1.7,3.2,6.3,4.3,12.8c1.1,6.5,1.8,14.8,1.8,23.9c0,10.4,-.9,19.8,-2.3,26.6c-.7,3.4,-1.5,6.1,-2.4,8c-.5,.9,-1,1.6,-1.4,2.1c-.5,.5,-1,.7,-1.4,.7c-.4,0,-.9,-.2,-1.4,-.7c-1.6,-1.6,-3.2,-6.3,-4.3,-12.8C559.7,527.9,559,519.6,559,510.5h-.5c0,10.4,.9,19.9,2.3,26.7c.7,3.4,1.5,6.2,2.5,8.1c.4,1,.9,1.7,1.5,2.3c.5,.5,1.1,.8,1.7,.8c.6,0,1.2,-.3,1.8,-.8c1.8,-1.9,3.3,-6.6,4.4,-13.1c1.1,-6.5,1.8,-14.9,1.8,-24c0,-10.4,-.9,-19.8,-2.3,-26.6c-.7,-3.5,-1.5,-6.2,-2.4,-8.2c-.5,-.9,-1,-1.7,-1.5,-2.2c-.6,-.6,-1.2,-.9,-1.8,-.9c-.6,0,-1.2,.3,-1.7,.9c-1.9,1.8,-3.4,6.5,-4.5,13c-1.1,6.6,-1.8,14.9,-1.8,24h.3Z" class="gj_28"/>
<path d="M559,508.1c0,-20.9,4.1,-35.2,7.7,-35.2h-7.9c0,0,-7.8,0,-7.8,35.2c0,37,7.7,40.1,7.7,40.1h7.6" class="gk_28"/>
<path d="M528.3,598.5V408.8" class="gi_28"/>
<path fill-rule="evenodd" d="M528.3,408.8l-2.5,1.6l2.5,-6.5l2.4,6.5Z" class="g9_28"/>
<path d="M491.3,510.1h37.1m71.5,0h49.5" class="gi_28"/>
<path fill-rule="evenodd" d="M649.4,510.1l-1.6,-2.5l6.5,2.5l-6.5,2.4Z" class="g9_28"/>
<path d="M528.4,510.4h9.1v-.6h-9.1Zm12.2,0h9.1v-.6h-9.1Zm12.2,0H562v-.6h-9.2Zm12.2,0h9.2v-.6H565Zm12.2,0h9.2v-.6h-9.2Zm12.3,0h7.3v-.6h-7.3Z" class="gl_28"/>
<g clip-path="url(#ct_28)">
<image preserveAspectRatio="none" x="563" y="489" width="8" height="42" xlink:href="img/29.jpg"/>
<image preserveAspectRatio="none" x="563" y="489" width="8" height="42" xlink:href="img/30.jpg"/>
</g>
<image clip-path="url(#cu_28)" preserveAspectRatio="none" x="565" y="489" width="1" height="1" xlink:href="img/31.png"/>
<image clip-path="url(#cv_28)" preserveAspectRatio="none" x="564" y="528" width="3" height="3" xlink:href="img/32.jpg"/>
<image clip-path="url(#cw_28)" preserveAspectRatio="none" x="565" y="509" width="6" height="2" xlink:href="img/33.jpg"/>
<path d="M482.5,519.1c-.7,6.5,-2.4,11.1,-4.3,11.1c-2.5,0,-4.5,-8.3,-4.5,-18.4c0,-10.1,2,-18.3,4.5,-18.3c1.7,0,3.2,3.7,4,9.1" class="ga_28"/>
<path d="M482.8,515.8l1.2,4.5l-1.5,-1.2l-1.8,.9Z" class="g9_28"/>
<path d="M562.3,510.2c0,-11.4,1.9,-20.6,4.2,-20.6c2.4,0,3.5,9.2,3.5,20.6c0,11.4,-1.1,20.6,-3.5,20.6c-2.3,0,-4.2,-9.2,-4.2,-20.6Zm1,-12.9c1.5,9.2,.9,18.8,-.2,24.4" class="gk_28"/>
<image clip-path="url(#cx_28)" x="674" y="809" width="15" height="166" xlink:href="shade/6.png"/>
<path fill-rule="evenodd" d="M667.5,891.8c0,-45.6,4.6,-82.5,10.3,-82.5c5.7,0,10.3,36.9,10.3,82.5c0,45.6,-4.6,82.5,-10.3,82.5c-5.7,0,-10.3,-36.9,-10.3,-82.5m-4.6,.1c0,-54,6.5,-97.8,14.5,-97.8c7.9,0,14.4,43.8,14.4,97.8c0,54,-6.5,97.8,-14.4,97.8c-8,0,-14.5,-43.8,-14.5,-97.8Z" class="gm_28"/>
<image clip-path="url(#cy_28)" x="654" y="794" width="24" height="196" xlink:href="shade/7.png"/>
<path d="M677.6,794.3h-8c0,0,-14.7,0,-14.7,91.2c0,96.2,14.6,104.3,14.6,104.3h7.2c-2,0,-13.8,-12.6,-13.8,-104.3c0,-54,7.8,-91.2,14.7,-91.2Z" class="gk_28"/>
<image clip-path="url(#cz_28)" x="434" y="837" width="22" height="112" xlink:href="shade/8.png"/>
<image clip-path="url(#c10_28)" x="371" y="782" width="78" height="221" xlink:href="shade/9.png"/>
<path d="M333.9,892.3h38.5" class="gn_28"/>
<path fill-rule="evenodd" d="M394.4,782.4c-1.1,0,-2.7,-.1,-3.8,0c.3,-.1,.6,-.1,.9,-.1c1,0,2,0,2.9,.1Z" class="go_28"/>
<path d="M392,1002.3c-11.5,0,-19.6,-49.2,-19.6,-110c0,-60.7,8.1,-110,19.6,-110" class="gp_28"/>
<path d="M418.2,989.3c.4,-.4,.7,-.8,1.1,-1.2c-.4,.5,-.7,.9,-1.1,1.2Z" class="g1_28"/>
<image clip-path="url(#c11_28)" preserveAspectRatio="none" x="402" y="794" width="30" height="196" xlink:href="img/34.jpg"/>
<path d="M417.2,990.2c.3,-.3,.6,-.6,1,-.9c.4,-.3,.7,-.7,1.1,-1.2c.5,-.5,1,-1,1.5,-1.5c-.1,.1,-.1,.2,-.2,.3c-1,1.2,-2,2.2,-3.1,3.2c-.1,.1,-.2,.1,-.3,.1Z" class="g1_28"/>
<image clip-path="url(#c12_28)" preserveAspectRatio="none" x="407" y="794" width="25" height="197" xlink:href="img/35.jpg"/>
<image clip-path="url(#c13_28)" preserveAspectRatio="none" x="411" y="802" width="15" height="181" xlink:href="img/36.jpg"/>
<path d="M417.5,990.1c1.1,-1,2.1,-2,3.1,-3.2c-1,1.8,-2,2.9,-3.1,3.2Z" class="g1_28"/>
<image clip-path="url(#c14_28)" preserveAspectRatio="none" x="411" y="795" width="16" height="188" xlink:href="img/37.jpg"/>
<path d="M402.1,892.4h.3c0,-26.9,1.6,-51.3,4.2,-69c1.4,-8.8,3,-15.9,4.7,-20.8c.9,-2.5,1.8,-4.4,2.7,-5.7c.9,-1.2,1.9,-1.8,2.7,-1.8c.9,0,1.9,.6,2.8,1.8c3.3,4.5,6.2,16.6,8.3,33.5c2.1,16.8,3.3,38.4,3.3,62c0,27,-1.6,51.4,-4.3,69c-1.3,8.8,-2.9,16,-4.6,20.9c-.9,2.4,-1.8,4.3,-2.7,5.6c-.9,1.3,-1.9,1.9,-2.8,1.9c-.8,0,-1.8,-.6,-2.7,-1.9c-3.3,-4.4,-6.2,-16.6,-8.3,-33.4c-2.1,-16.9,-3.3,-38.5,-3.3,-62.1h-.6c0,27,1.7,51.4,4.3,69.1c1.3,8.8,2.9,16,4.7,21c.9,2.4,1.8,4.4,2.8,5.7c.9,1.3,2,2.1,3.1,2.1c1.2,0,2.2,-.8,3.2,-2.1c3.4,-4.6,6.3,-16.8,8.4,-33.7c2.1,-16.8,3.4,-38.5,3.4,-62.1c0,-26.9,-1.7,-51.4,-4.3,-69.1c-1.3,-8.8,-2.9,-15.9,-4.7,-20.9c-.9,-2.5,-1.8,-4.4,-2.8,-5.8c-1,-1.3,-2,-2.1,-3.2,-2.1c-1.1,0,-2.2,.8,-3.1,2.1c-3.4,4.7,-6.3,16.8,-8.4,33.7c-2.1,16.9,-3.4,38.5,-3.4,62.1h.3Z" class="gj_28"/>
<g clip-path="url(#c15_28)">
<image preserveAspectRatio="none" x="406" y="982" width="11" height="9" xlink:href="img/38.jpg"/>
<image preserveAspectRatio="none" x="406" y="982" width="11" height="9" xlink:href="img/39.jpg"/>
</g>
<g clip-path="url(#c16_28)">
<image preserveAspectRatio="none" x="411" y="982" width="5" height="9" xlink:href="img/40.jpg"/>
<image preserveAspectRatio="none" x="411" y="982" width="5" height="9" xlink:href="img/41.jpg"/>
</g>
<image clip-path="url(#c17_28)" preserveAspectRatio="none" x="411" y="982" width="4" height="7" xlink:href="img/42.jpg"/>
<image clip-path="url(#c18_28)" preserveAspectRatio="none" x="394" y="797" width="17" height="191" xlink:href="img/43.jpg"/>
<image clip-path="url(#c19_28)" preserveAspectRatio="none" x="402" y="802" width="10" height="126" xlink:href="img/44.jpg"/>
<image clip-path="url(#c1a_28)" preserveAspectRatio="none" x="401" y="802" width="11" height="180" xlink:href="img/45.jpg"/>
<image clip-path="url(#c1b_28)" preserveAspectRatio="none" x="408" y="802" width="4" height="181" xlink:href="img/46.jpg"/>
<g clip-path="url(#c1c_28)">
<image preserveAspectRatio="none" x="406" y="794" width="10" height="8" xlink:href="img/47.jpg"/>
<image preserveAspectRatio="none" x="406" y="794" width="10" height="8" xlink:href="img/48.jpg"/>
</g>
<g clip-path="url(#c1d_28)">
<image preserveAspectRatio="none" x="411" y="795" width="5" height="8" xlink:href="img/49.jpg"/>
<image preserveAspectRatio="none" x="411" y="795" width="5" height="8" xlink:href="img/50.jpg"/>
</g>
<g clip-path="url(#c1e_28)">
<image preserveAspectRatio="none" x="411" y="794" width="6" height="9" xlink:href="img/51.jpg"/>
<image preserveAspectRatio="none" x="411" y="794" width="6" height="9" xlink:href="img/52.jpg"/>
</g>
<g clip-path="url(#c1f_28)">
<image preserveAspectRatio="none" x="411" y="794" width="7" height="9" xlink:href="img/53.jpg"/>
<image preserveAspectRatio="none" x="411" y="794" width="7" height="9" xlink:href="img/54.jpg"/>
</g>
<image clip-path="url(#c1g_28)" preserveAspectRatio="none" x="406" y="982" width="6" height="6" xlink:href="img/55.jpg"/>
<image clip-path="url(#c1h_28)" preserveAspectRatio="none" x="410" y="981" width="2" height="2" xlink:href="img/56.jpg"/>
<image clip-path="url(#c1i_28)" preserveAspectRatio="none" x="411" y="981" width="1" height="2" xlink:href="img/57.jpg"/>
<g clip-path="url(#c1j_28)">
<image preserveAspectRatio="none" x="405" y="796" width="7" height="7" xlink:href="img/58.jpg"/>
<image preserveAspectRatio="none" x="405" y="796" width="7" height="7" xlink:href="img/59.jpg"/>
</g>
<image clip-path="url(#c1k_28)" preserveAspectRatio="none" x="411" y="801" width="1" height="2" xlink:href="img/60.jpg"/>
<image clip-path="url(#c1l_28)" preserveAspectRatio="none" x="410" y="801" width="2" height="2" xlink:href="img/61.jpg"/>
<image clip-path="url(#c1m_28)" preserveAspectRatio="none" x="411" y="801" width="1" height="2" xlink:href="img/62.jpg"/>
<path d="M436.1,892.3h76.6" class="gn_28"/>
<path d="M388.1,782.3h6.1m22.7,216.9v6.2" class="gi_28"/>
<path d="M593.1,891.8h61.3" class="gn_28"/>
<path d="M662.6,891.9c0,-53.9,6.5,-97.6,14.6,-97.6c8.1,0,14.7,43.7,14.7,97.6c0,53.9,-6.6,97.6,-14.7,97.6c-8.1,0,-14.6,-43.7,-14.6,-97.6Z" class="gk_28"/>
<path d="M667.5,891.8H771.9" class="gn_28"/>
<path d="M388.1,892.3h6.1m52,106.9v6.2m-112.3,-3.1H512.7" class="gi_28"/>
<path fill-rule="evenodd" d="M512.7,1002.3l-1.6,-2.4l6.5,2.4l-6.5,2.4Z" class="g9_28"/>
<path d="M391.2,782.3V758.1" class="gi_28"/>
<path d="M391.2,1002.7V782.3" class="gq_28"/>
<path d="M391.2,1039v-36.7" class="gi_28"/>
<path fill-rule="evenodd" d="M391.2,759.4l-2.5,1.6l2.5,-6.5l2.4,6.5Z" class="g9_28"/>
<path d="M453.1,978.9l-12.3,-8.1" class="ga_28"/>
<path d="M438,969l4.6,1l-1.8,.8v2Z" class="g9_28"/>
<path d="M370.8,983.9l26.1,5.6" class="ga_28"/>
<path d="M400.1,990.2l-4.6,.8l1.4,-1.5l-.7,-1.8Z" class="g9_28"/>
<path d="M588.5,989.6c-1.3,0,-1,1.1,-1,2.5v.5c-.1,1.4,0,2.6,-1.3,2.6c1.3,0,1.2,1.2,1.3,2.6v.9c0,1.4,-.3,2.7,1,2.8m33.9,-106v90.4" class="gg_28"/>
<path d="M622.4,891.8l1.9,4.9l-1.9,-1.2l-1.8,1.2Z" class="g9_28"/>
<path d="M622.4,989.6l-1.8,-4.9l1.8,1.2l1.9,-1.2Z" class="g9_28"/>
<path d="M718.7,895.5v75.1" class="gg_28"/>
<path d="M718.7,891.8l1.8,4.9l-1.8,-1.2l-1.9,1.2Z" class="g9_28"/>
<path d="M718.7,974.3l-1.9,-4.8l1.9,1.1l1.8,-1.1Z" class="g9_28"/>
<path d="M718.7,978.2v19.1" class="gg_28"/>
<path d="M718.7,974.6l1.8,4.8l-1.8,-1.2l-1.9,1.2Z" class="g9_28"/>
<path d="M718.7,1001l-1.9,-4.8l1.9,1.1l1.8,-1.1Z" class="g9_28"/>
<path d="M593.1,1001.8H771.9" class="gi_28"/>
<path fill-rule="evenodd" d="M771.9,1001.8l-1.6,-2.5l6.5,2.5l-6.5,2.4Z" class="g9_28"/>
<path d="M604.1,955.1h36.7V938.3H604.1v16.8Z" class="ge_28"/>
<path d="M700.3,941.5H737V924.7H700.3v16.8Z" class="ge_28"/>
<path d="M714.1,994h9.2V981.8h-9.2V994Z" class="ge_28"/>
<path d="M676.1,998.7v6.1" class="gi_28"/>
<path d="M675.7,989.7H593.1M771.9,974.5H676.1" class="gr_28"/>
<path d="M392,1002.3c-11.5,0,-19.6,-49.2,-19.6,-110c0,-60.7,8.1,-110,19.6,-110" class="gp_28"/>
<path d="M435.9,892.3h.3c0,-15.2,1,-28.9,2.7,-38.8c.9,-5,1.9,-9,3.1,-11.8c.5,-1.3,1.1,-2.4,1.7,-3.1c.6,-.7,1.2,-1,1.7,-1c.6,0,1.1,.3,1.7,1c2.1,2.4,4.1,9.3,5.4,18.8c1.4,9.4,2.2,21.6,2.2,34.9c0,15.2,-1.1,28.9,-2.8,38.8c-.9,5,-1.9,9,-3,11.8c-.6,1.4,-1.2,2.4,-1.8,3.1c-.6,.7,-1.1,1,-1.7,1c-.5,0,-1.1,-.3,-1.7,-1c-2.1,-2.4,-4,-9.3,-5.4,-18.7c-1.3,-9.5,-2.1,-21.7,-2.1,-35h-.6c0,15.2,1.1,29,2.8,38.9c.9,5,1.9,9.1,3.1,11.9c.5,1.4,1.1,2.5,1.8,3.3c.6,.7,1.4,1.2,2.1,1.2c.8,0,1.5,-.5,2.2,-1.2c2.2,-2.7,4.1,-9.6,5.5,-19.1c1.3,-9.5,2.1,-21.7,2.1,-35c0,-15.2,-1,-29,-2.7,-38.9c-.9,-5,-1.9,-9.1,-3.1,-11.9c-.6,-1.4,-1.2,-2.5,-1.8,-3.3c-.7,-.7,-1.4,-1.2,-2.2,-1.2c-.7,0,-1.5,.5,-2.1,1.2c-2.3,2.7,-4.1,9.5,-5.5,19.1c-1.4,9.5,-2.2,21.7,-2.2,35h.3M391.2,782.6c12,0,22,6.5,30.8,16.7c8.9,10.2,16.7,24.1,24.3,38.6l.5,-.2C439.2,823.1,431.4,809.2,422.5,799c-9,-10.3,-19.1,-17,-31.3,-17v.6m-.2,-.1l54.9,54.9l.4,-.4L391.4,782.1l-.4,.4m.2,220.1c12.2,0,22.4,-6.7,31.4,-17c8.9,-10.3,16.7,-24.2,24.3,-38.7l-.5,-.3C438.9,961.2,431,975,422.1,985.2c-8.9,10.3,-18.9,16.8,-30.9,16.8v.6m.2,-.1l54.9,-54.9l-.4,-.4L391,1002.1l.4,.4Z" class="g5_28"/>
<image clip-path="url(#c1n_28)" preserveAspectRatio="none" x="413" y="809" width="15" height="166" xlink:href="img/63.jpg"/>
<image clip-path="url(#c1o_28)" preserveAspectRatio="none" x="413" y="809" width="15" height="165" xlink:href="img/64.jpg"/>
<image clip-path="url(#c1p_28)" preserveAspectRatio="none" x="417" y="809" width="3" height="3" xlink:href="img/65.jpg"/>
<path d="M417.1,794.8h-8c0,0,-14.7,0,-14.7,91.2c0,96.3,14.6,104.3,14.6,104.3h7.3c-2.1,0,-13.9,-12.6,-13.9,-104.3c0,-54,7.8,-91.2,14.7,-91.2Z" class="gk_28"/>
<path d="M557.2,901.8c-.7,6.4,-2.3,11,-4.2,11c-2.5,0,-4.6,-8.2,-4.6,-18.3c0,-10.2,2.1,-18.4,4.6,-18.4c1.7,0,3.2,3.7,4,9.2" class="ga_28"/>
<path d="M557.6,898.5l1.2,4.5l-1.6,-1.2l-1.7,.8Z" class="g9_28"/>
<path d="M687.7,891.9c0,-45.6,-4.4,-82.5,-9.9,-82.5c-5.5,0,-10.1,36.9,-10.1,82.5c0,45.5,4.6,82.5,10.1,82.5c5.5,0,9.9,-37,9.9,-82.5Z" class="gs_28"/>
<path d="M674.4,814.6c4.3,6.2,6.6,26.5,7.3,77c.4,24.1,-2,67.8,-7.1,77.7" class="gt_28"/>
<path d="M427.2,891.9c0,-45.6,-4.4,-82.5,-9.9,-82.5c-5.5,0,-10.1,36.9,-10.1,82.5c0,45.5,4.6,82.5,10.1,82.5c5.5,0,9.9,-37,9.9,-82.5Z" class="gs_28"/>
<path d="M413.8,814.6c4.4,6.2,6.7,26.5,7.4,77c.3,24.1,-2.1,67.8,-7.1,77.7" class="gt_28"/>
<path d="M56.5,198.4c0,0,-3,0,-3,3.1v9.1c0,0,0,3.1,3,3.1H77.9c0,0,3.1,0,3.1,-3.1v-9.1c0,0,0,-3.1,-3.1,-3.1Z" class="gj_28"/>
</svg>