<?xml version="1.0" encoding="UTF-8" standalone="no"?>
<!DOCTYPE svg PUBLIC "-//W3C//DTD SVG 1.1//EN"
"http://www.w3.org/Graphics/SVG/1.1/DTD/svg11.dtd">
<svg viewBox="0 0 931 1096" version="1.1" xmlns="http://www.w3.org/2000/svg" xmlns:xlink="http://www.w3.org/1999/xlink">
<defs>
<style type="text/css"><![CDATA[
.g0_419{
fill: #FFF;
}
.g1_419{
fill: none;
stroke: #00AEEF;
stroke-width: 0.763;
}
.g2_419{
fill: #E8F6FE;
}
.g3_419{
fill: #B2E3FA;
}
.g4_419{
fill: none;
stroke: #00AEEF;
stroke-width: 1.069;
stroke-linejoin: round;
}
.g5_419{
fill: none;
stroke: #241F1F;
stroke-width: 0.611;
stroke-miterlimit: 3;
}
.g6_419{
fill: #241F1F;
}
.g7_419{
fill: none;
stroke: #241F1F;
stroke-width: 0.763;
stroke-linejoin: round;
}
.g8_419{
fill: none;
stroke: #969698;
stroke-width: 0.763;
stroke-miterlimit: 3;
}
]]></style>
</defs>
<path d="M345.7,97.9c0,0,-3.1,0,-3.1,3.1v48.1c0,0,0,3.1,3.1,3.1H875.1c0,0,3,0,3,-3.1V101c0,0,0,-3.1,-3,-3.1Z" class="g0_419"/>
<path d="M345.7,97.9c0,0,-3.1,0,-3.1,3.1v48.1c0,0,0,3.1,3.1,3.1H875.1c0,0,3,0,3,-3.1V101c0,0,0,-3.1,-3,-3.1H345.7Z" class="g1_419"/>
<path d="M345.7,470.7c0,0,-3.1,0,-3.1,3.1V668.6c0,0,0,3,3.1,3H875.1c0,0,3,0,3,-3V473.8c0,0,0,-3.1,-3,-3.1Z" class="g0_419"/>
<path d="M345.7,470.7c0,0,-3.1,0,-3.1,3.1V668.6c0,0,0,3,3.1,3H875.1c0,0,3,0,3,-3V473.8c0,0,0,-3.1,-3,-3.1H345.7Z" class="g1_419"/>
<path d="M222.2,170l-.1,52.6h55.3V131c-5.9,.3,-28,10.3,-39.4,22.2c-3.8,3.9,-8.9,11.3,-15.8,16.8Z" class="g2_419"/>
<path d="M141.4,179.7c5,-8.6,12.1,-21.5,24.1,-21.5c10.8,0,28.4,18.2,39.6,18.2c6.6,0,12.3,-2.7,17.1,-6.4l-.1,52.6H141.4Z" class="g3_419"/>
<path d="M141.4,179.7c5,-8.6,12.1,-21.5,24.1,-21.5c10.8,0,28.4,18.2,39.6,18.2c16.4,0,26.6,-16.7,32.9,-23.2c11.4,-11.9,33.5,-21.9,39.4,-22.2" class="g4_419"/>
<path d="M128,243.9V107.1" class="g5_419"/>
<path fill-rule="evenodd" d="M128,107.1l-2.4,1.6l2.4,-6.5l2.5,6.5Z" class="g6_419"/>
<path d="M108.5,222.9H301.7" class="g5_419"/>
<path fill-rule="evenodd" d="M301.7,222.9L300,220.4l6.6,2.5l-6.6,2.4Z" class="g6_419"/>
<path d="M141.4,222.6V179.7m80.7,43.1V170m55.3,52.6V131" class="g7_419"/>
<path d="M142.6,790.6H127.3m15.3,-67.2H127.3" class="g8_419"/>
<path d="M292.8,762.4v28.2H142.6V763.1c9.9,-9.9,20.1,-45.2,43.7,-36.8c27.6,11.6,41.2,63.4,64,63.1c20.3,-.3,20.4,-27,42.5,-27Z" class="g2_419"/>
<path d="M142.6,809.7H292.8V790.6H142.6v19.1Z" class="g3_419"/>
<path d="M142.6,763.1c9.9,-9.9,19.9,-46.1,43.6,-37.7c27.5,11.6,41.4,65,64.2,64.7c20.3,-.3,20.3,-27.7,42.4,-27.7" class="g4_419"/>
<path d="M127.3,829.3V701.6" class="g5_419"/>
<path fill-rule="evenodd" d="M127.3,701.6l-2.5,1.6l2.5,-6.5l2.4,6.5Z" class="g6_419"/>
<path d="M108.5,809.7H310.3" class="g5_419"/>
<path fill-rule="evenodd" d="M310.3,809.7l-1.6,-2.4l6.5,2.4l-6.5,2.5Z" class="g6_419"/>
<path d="M142.6,723.4H292.8v67.2H142.6Zm0,67.2H292.8v19.1H142.6Z" class="g7_419"/>
</svg>