<?xml version="1.0" encoding="UTF-8" standalone="no"?>
<!DOCTYPE svg PUBLIC "-//W3C//DTD SVG 1.1//EN"
"http://www.w3.org/Graphics/SVG/1.1/DTD/svg11.dtd">
<svg viewBox="0 0 931 1096" version="1.1" xmlns="http://www.w3.org/2000/svg" xmlns:xlink="http://www.w3.org/1999/xlink">
<defs>
<style type="text/css"><![CDATA[
.g0_105{
fill: none;
stroke: #241F1F;
stroke-width: 0.763;
stroke-miterlimit: 10;
}
.g1_105{
fill: #D0007A;
}
.g2_105{
fill: #CFEDFC;
}
.g3_105{
fill: none;
stroke: #00AEEF;
stroke-width: 0.916;
stroke-linejoin: round;
}
.g4_105{
fill: #00AEEF;
}
.g5_105{
fill: none;
stroke: #00AEEF;
stroke-width: 0.763;
stroke-miterlimit: 3;
}
.g6_105{
fill: none;
stroke: #EE008C;
stroke-width: 0.916;
stroke-linejoin: round;
}
.g7_105{
fill: none;
stroke: #241F1F;
stroke-width: 0.611;
stroke-miterlimit: 3;
}
.g8_105{
fill: #241F1F;
}
.g9_105{
fill: none;
stroke: #241F1F;
stroke-width: 0.763;
stroke-miterlimit: 3;
stroke-dasharray: 9,4;
}
.ga_105{
fill: none;
stroke: #241F1F;
stroke-width: 0.763;
stroke-miterlimit: 3;
stroke-dasharray: 9,3;
}
.gb_105{
fill: none;
stroke: #241F1F;
stroke-width: 0.763;
stroke-linejoin: round;
}
]]></style>
</defs>
<path d="M532.3,538.1h49.8m21.9,0h27.5" class="g0_105"/>
<path d="M343.8,595.1c0,0,-1.6,0,-1.6,1.5v9.1c0,0,0,1.6,1.6,1.6h9.1c0,0,1.6,0,1.6,-1.6v-9.1c0,0,0,-1.5,-1.6,-1.5Z" class="g1_105"/>
<path d="M664.2,805.8c10.5,-6.5,29.3,-16.3,55.1,-4.6c22.7,10.3,43.7,36.5,55,55.1v64.2H664.2Z" class="g2_105"/>
<path d="M633.1,834.1c18.8,-23.1,39.6,-38.4,62.6,-38.4c41.3,.1,75.9,49.8,103.3,104.6" class="g3_105"/>
<path d="M717.5,801.2c0,-.9,.8,-1.7,1.7,-1.7c1,0,1.7,.8,1.7,1.7c0,1,-.7,1.7,-1.7,1.7c-.9,0,-1.7,-.7,-1.7,-1.7Z" class="g4_105"/>
<path d="M717.5,801.2c0,-.9,.8,-1.7,1.7,-1.7c1,0,1.7,.8,1.7,1.7c0,1,-.7,1.7,-1.7,1.7c-.9,0,-1.7,-.7,-1.7,-1.7Z" class="g5_105"/>
<path d="M389.8,868.5c0,0,28.3,-44.3,55,-56.6c19.5,-8.9,35.9,-9.9,55,.8V920.5h-110Z" class="g2_105"/>
<path d="M169.6,805.8c10.5,-6.5,29.3,-16.3,55.2,-4.6c22.6,10.3,43.6,36.5,54.9,55.1v64.2H169.6Z" class="g2_105"/>
<path d="M279.7,856.3c13,11.6,34.4,22.3,55,24.4c21.8,2.2,36.1,-1.2,55.1,-12.2v52H279.7Z" class="g2_105"/>
<path d="M169.6,805.8c17.6,-5,40,-8,55.1,-4.6c30.9,7.1,37.1,20.8,55,55.1c12.6,24,32.3,24.1,55,24.4c23.5,.4,24.3,6.7,55.1,-12.2c16.6,-10.2,36.1,-32.7,55,-56.6c14,-17.6,35.9,-18.7,55,.8" class="g6_105"/>
<path d="M138.6,834.1c18.7,-23.1,39.6,-38.4,62.6,-38.4c41.2,.1,75.9,49.8,103.3,104.6M249.4,828.1c27.6,31.1,59,53.2,94.5,53.2c31.6,0,60,-18.2,85.9,-43.5m104.6,5.4c-18.7,-23,-39.6,-38.3,-62.7,-38.3c-38.7,.1,-73,44,-99.8,94.9" class="g3_105"/>
<path d="M108.5,920.5H542.7" class="g7_105"/>
<path fill-rule="evenodd" d="M542.7,920.5L541,918l6.5,2.5l-6.5,2.4Z" class="g8_105"/>
<path d="M129.9,941.9V769.1" class="g7_105"/>
<path fill-rule="evenodd" d="M129.9,769.1l-2.5,1.6l2.5,-6.5l2.4,6.5Z" class="g8_105"/>
<path d="M222.9,801.2c0,-.9,.8,-1.7,1.8,-1.7c.9,0,1.7,.8,1.7,1.7c0,1,-.8,1.7,-1.7,1.7c-1,0,-1.8,-.7,-1.8,-1.7Z" class="g4_105"/>
<path d="M222.9,801.2c0,-.9,.8,-1.7,1.8,-1.7c.9,0,1.7,.8,1.7,1.7c0,1,-.8,1.7,-1.7,1.7c-1,0,-1.8,-.7,-1.8,-1.7Z" class="g5_105"/>
<path d="M333,880.7c0,-.9,.8,-1.7,1.7,-1.7c1,0,1.8,.8,1.8,1.7c0,1,-.8,1.7,-1.8,1.7c-.9,0,-1.7,-.7,-1.7,-1.7Z" class="g4_105"/>
<path d="M333,880.7c0,-.9,.8,-1.7,1.7,-1.7c1,0,1.8,.8,1.8,1.7c0,1,-.8,1.7,-1.8,1.7c-.9,0,-1.7,-.7,-1.7,-1.7Z" class="g5_105"/>
<path d="M443.1,811.9c0,-.9,.8,-1.7,1.7,-1.7c1,0,1.7,.8,1.7,1.7c0,1,-.7,1.7,-1.7,1.7c-.9,0,-1.7,-.7,-1.7,-1.7Z" class="g4_105"/>
<path d="M443.1,811.9c0,-.9,.8,-1.7,1.7,-1.7c1,0,1.7,.8,1.7,1.7c0,1,-.7,1.7,-1.7,1.7c-.9,0,-1.7,-.7,-1.7,-1.7Z" class="g5_105"/>
<path d="M278,856.3c0,-1,.8,-1.8,1.7,-1.8c1,0,1.7,.8,1.7,1.8c0,.9,-.7,1.7,-1.7,1.7c-.9,0,-1.7,-.8,-1.7,-1.7Z" class="g4_105"/>
<path d="M278,856.3c0,-1,.8,-1.8,1.7,-1.8c1,0,1.7,.8,1.7,1.8c0,.9,-.7,1.7,-1.7,1.7c-.9,0,-1.7,-.8,-1.7,-1.7Z" class="g5_105"/>
<path d="M388.1,868.5c0,-1,.7,-1.7,1.7,-1.7c.9,0,1.7,.7,1.7,1.7c0,.9,-.8,1.7,-1.7,1.7c-1,0,-1.7,-.8,-1.7,-1.7Z" class="g4_105"/>
<path d="M388.1,868.5c0,-1,.7,-1.7,1.7,-1.7c.9,0,1.7,.7,1.7,1.7c0,.9,-.8,1.7,-1.7,1.7c-1,0,-1.7,-.8,-1.7,-1.7Z" class="g5_105"/>
<path d="M498.1,812.7c0,-1,.8,-1.7,1.7,-1.7c1,0,1.8,.7,1.8,1.7c0,.9,-.8,1.7,-1.8,1.7c-.9,0,-1.7,-.8,-1.7,-1.7Z" class="g4_105"/>
<path d="M498.1,812.7c0,-1,.8,-1.7,1.7,-1.7c1,0,1.8,.7,1.8,1.7c0,.9,-.8,1.7,-1.8,1.7c-.9,0,-1.7,-.8,-1.7,-1.7Z" class="g5_105"/>
<path d="M167.9,805.8c0,-1,.8,-1.7,1.7,-1.7c1,0,1.8,.7,1.8,1.7c0,1,-.8,1.7,-1.8,1.7c-.9,0,-1.7,-.7,-1.7,-1.7Z" class="g4_105"/>
<path d="M167.9,805.8c0,-1,.8,-1.7,1.7,-1.7c1,0,1.8,.7,1.8,1.7c0,1,-.8,1.7,-1.8,1.7c-.9,0,-1.7,-.7,-1.7,-1.7Z" class="g5_105"/>
<path d="M618.3,920.5H820.1" class="g7_105"/>
<path fill-rule="evenodd" d="M820.1,920.5L818.5,918l6.5,2.5l-6.5,2.4Z" class="g8_105"/>
<path d="M719.2,941.9V769.1" class="g7_105"/>
<path fill-rule="evenodd" d="M719.2,769.1l-2.4,1.6l2.4,-6.5l2.5,6.5Z" class="g8_105"/>
<path d="M662.5,805.8c0,-1,.7,-1.7,1.7,-1.7c.9,0,1.7,.7,1.7,1.7c0,1,-.8,1.7,-1.7,1.7c-1,0,-1.7,-.7,-1.7,-1.7Z" class="g4_105"/>
<path d="M662.5,805.8c0,-1,.7,-1.7,1.7,-1.7c.9,0,1.7,.7,1.7,1.7c0,1,-.8,1.7,-1.7,1.7c-1,0,-1.7,-.7,-1.7,-1.7Z" class="g5_105"/>
<path d="M772.5,856.3c0,-1,.8,-1.8,1.8,-1.8c.9,0,1.7,.8,1.7,1.8c0,.9,-.8,1.7,-1.7,1.7c-1,0,-1.8,-.8,-1.8,-1.7Z" class="g4_105"/>
<path d="M772.5,856.3c0,-1,.8,-1.8,1.8,-1.8c.9,0,1.7,.8,1.7,1.8c0,.9,-.8,1.7,-1.7,1.7c-1,0,-1.8,-.8,-1.8,-1.7Z" class="g5_105"/>
<path d="M664.2,920.5V805.8" class="g9_105"/>
<path d="M774.3,920.5V856.3" class="ga_105"/>
<path d="M499.8,812.7V920.5m-110,-52v52M279.7,856.3v64.2M169.6,805.8V920.5" class="gb_105"/>
<path d="M224.3,917.3v6.1m110,-6.1v6.1m110.2,-6.1v6.1" class="g7_105"/>
<path d="M230.4,369.2h11V223.4h-11V369.2Z" class="g2_105"/>
<path d="M219.4,369.2h11V247.1h-11V369.2Z" class="g2_105"/>
<path d="M208.4,369.2h11V264.9h-11V369.2Z" class="g2_105"/>
<path d="M197.4,369.2h11V278.6h-11v90.6Z" class="g2_105"/>
<path d="M186.4,369.2h11V289h-11v80.2Z" class="g2_105"/>
<path d="M175.4,369.2h11V296.8h-11v72.4Z" class="g2_105"/>
<path d="M164.4,369.2h11V302.5h-11v66.7Z" class="g2_105"/>
<path d="M153.4,369.2h11V306.4h-11v62.8Z" class="g2_105"/>
<path d="M142.4,369.2h11V308.7h-11v60.5Z" class="g2_105"/>
<path d="M131.4,369.2h11V309.6h-11v59.6Z" class="g2_105"/>
<path d="M113.1,307.7c5.5,2.3,10.3,1.9,18.3,1.9c20.6,0,87.3,-.2,119,-132.9" class="g3_105"/>
<path d="M108.5,369.2h165" class="g7_105"/>
<path fill-rule="evenodd" d="M273.5,369.2l-1.6,-2.4l6.5,2.4l-6.5,2.4Z" class="g8_105"/>
<path d="M131.4,387.5V176.7" class="g7_105"/>
<path fill-rule="evenodd" d="M131.4,176.7l-2.4,1.6l2.4,-6.5l2.4,6.5Z" class="g8_105"/>
<path d="M241.4,366.1v6.2" class="g7_105"/>
<path d="M230.4,223.4h11V369.2h-11Zm-11,23.7h11V369.2h-11Zm-11,17.8h11V369.2h-11Zm-11,13.7h11v90.6h-11Zm-11,10.4h11v80.2h-11Zm-11,7.8h11v72.4h-11Zm-11,5.7h11v66.7h-11Zm-11,3.9h11v62.8h-11Zm-11,2.3h11v60.5h-11Zm-11,.9h11v59.6h-11Z" class="gb_105"/>
</svg>