<?xml version="1.0" encoding="UTF-8" standalone="no"?>
<!DOCTYPE svg PUBLIC "-//W3C//DTD SVG 1.1//EN"
"http://www.w3.org/Graphics/SVG/1.1/DTD/svg11.dtd">
<svg viewBox="0 0 909 1286" version="1.1" xmlns="http://www.w3.org/2000/svg" xmlns:xlink="http://www.w3.org/1999/xlink">
<defs>
<clipPath id="c0_483"><path d="M0,1286.2V-.1H910.6V1286.2Z"/></clipPath>
<style type="text/css"><![CDATA[
.g0_483{
fill: #FFFFFF;
}
.g1_483{
fill: none;
stroke: #0000FF;
stroke-width: 0.733;
stroke-linecap: butt;
stroke-linejoin: bevel;
stroke-miterlimit: 3;
}
]]></style>
</defs>
<g clip-path="url(#c0_483)">
<path fill-rule="evenodd" d="M0,0H909.5V1286.2H0V0Z" class="g0_483"/>
<path d="M72.4,92.4H202.7M72.4,121.3H302.5m-230.1,29H238.6M72.4,179.4h44m-44,29h46.5m-46.5,29h41M65.1,266.5h67.6m-67.6,29H182.7m-117.6,29H199.2M65.1,353.6H236.5m7.6,0h17.3m-196.3,29H286.3m-221.2,29H236.5M65.1,440.7H209.7m-144.6,58H259.4M65.1,527.8H231.3M65.1,556.7h73.6M65.1,585.8H235.6M65.1,614.9h165m-165,28.9H173.9m-108.8,29H191.9M65.1,701.9h169m-169,29h226m-226,29H229.3M65.1,789h121m-121,29h167m-167,29H171.4m7.9,0h17.2m7.7,0H220M65.1,876.1H226.7m-161.6,29H203.8M65.1,963.2H236.7M65.1,992.1H191M65.1,1021.2H283M65.1,1050.3H246.4M65.1,1079.2H240.3M65.1,1108.3H225.5M65.1,1137.4h169m-169,28.9h215" class="g1_483"/>
</g>
</svg>