<?xml version="1.0" encoding="UTF-8" standalone="no"?>
<!DOCTYPE svg PUBLIC "-//W3C//DTD SVG 1.1//EN"
"http://www.w3.org/Graphics/SVG/1.1/DTD/svg11.dtd">
<svg viewBox="0 0 931 1096" version="1.1" xmlns="http://www.w3.org/2000/svg" xmlns:xlink="http://www.w3.org/1999/xlink">
<defs>
<clipPath id="c0_420"><path d="M76.1,333.1V278.4H223.5v54.7Z"/></clipPath>
<clipPath id="c1_420"><path d="M52,482.1V448.5H825v33.6Z"/></clipPath>
<style type="text/css"><![CDATA[
.g0_420{
fill: #E8F6FE;
}
.g1_420{
fill: none;
stroke: #00AEEF;
stroke-width: 1.069;
stroke-miterlimit: 3;
}
.g2_420{
fill: none;
stroke: #241F1F;
stroke-width: 0.611;
stroke-miterlimit: 3;
}
.g3_420{
fill: #241F1F;
}
.g4_420{
fill: #B2E3FA;
}
.g5_420{
fill: none;
stroke: #EE008C;
stroke-width: 0.913;
stroke-miterlimit: 3;
}
.g6_420{
fill: none;
stroke: #89898B;
stroke-width: 0.533;
stroke-miterlimit: 3;
}
.g7_420{
fill: #FFF;
}
.g8_420{
fill: none;
stroke: #241F1F;
stroke-width: 0.609;
stroke-miterlimit: 3;
}
.g9_420{
fill: none;
stroke: #241F1F;
stroke-width: 0.763;
stroke-miterlimit: 10;
}
]]></style>
</defs>
<path d="M76.4,186.1c55,0,107.7,66.1,146.7,92.7H76.4Z" class="g0_420"/>
<path d="M76.4,186.1c55,0,107.7,66.1,146.7,92.7" class="g1_420"/>
<path d="M76.4,332.7H223.1V186.1H76.4V332.7Zm0,23V161.6" class="g2_420"/>
<path fill-rule="evenodd" d="M76.4,161.6L74,163.3l2.4,-6.6l2.4,6.6Z" class="g3_420"/>
<path d="M53.5,332.7h194" class="g2_420"/>
<path fill-rule="evenodd" d="M247.5,332.7l-1.6,-2.4l6.5,2.4l-6.5,2.5Z" class="g3_420"/>
<path d="M223.1,329.7v6.1M71.8,186.1H81" class="g2_420"/>
<g clip-path="url(#c0_420)">
<path d="M76.4,332.7H223.1V278.8H76.4v53.9Z" class="g4_420"/>
<path d="M76.4,332.7H223.1V278.8H76.4v53.9Z" class="g2_420"/>
</g>
<image clip-path="url(#c1_420)" preserveAspectRatio="none" x="52" y="449" width="773" height="33" xlink:href="img/1.png"/>
<path d="M165.2,922.4c4,20.5,12.3,41.3,18.3,54.8c4.9,11.4,22.9,22.4,28.4,22.4c10.8,0,17,-22.4,26.4,-22.4c17.2,0,19.7,36.6,36.5,36.6c8.2,0,12.9,-21.2,18.3,-36.6c13.5,-38.3,29.9,-52.5,36.7,-55.1c11.6,-4.6,18.2,-17,18.1,-18" class="g5_420"/>
<path d="M146.9,904.1h201V1032h-201Zm164.5,0V1032M293.1,904.1V1032M183.5,904.1V1032M274.8,904.1V1032M256.6,904.1V1032M238.3,904.1V1032M220,904.1V1032M201.7,904.1V1032M146.9,995.5h201m-201,-36.6h201m-201,-18.2h201m-201,-18.3h201M329.7,904.1V1032M146.9,1013.8h201" class="g6_420"/>
<path d="M178,993.3h6V979.6h-6v13.7Z" class="g7_420"/>
<path d="M153.8,964.6h9.1V950.9h-9.1v13.7Z" class="g7_420"/>
<path d="M165.2,1032V908.7" class="g8_420"/>
<path fill-rule="evenodd" d="M165.2,908.7l-2.5,1.6l2.5,-6.5l2.4,6.5Z" class="g3_420"/>
<path d="M146.9,977.2H343.4" class="g8_420"/>
<path fill-rule="evenodd" d="M343.4,977.2l-1.7,-2.4l6.5,2.4l-6.5,2.4Z" class="g3_420"/>
<path d="M529.8,636c16.2,34.8,24.6,54.8,36.6,54.8c10.5,0,22.3,-24.6,36.3,-54.8c0,0,23.8,-54.8,36.8,-54.8c12.9,0,19.9,29.6,36.5,36.5c7.9,3.3,12.7,6.9,18.3,18.3c6.8,13.9,10.4,36.6,18.3,36.6c7.9,0,9.9,-15,18.3,-18.3c6.5,-2.6,16.5,-22.9,18.2,-36.6" class="g5_420"/>
<path d="M730.9,562.9V709.1M712.6,562.9V709.1M566.4,562.9V709.1M548.1,562.9V709.1M584.6,562.9V709.1M694.3,562.9V709.1M676,562.9V709.1M657.8,562.9V709.1M639.5,562.9V709.1M621.2,562.9V709.1M529.8,672.6H767.4M529.8,654.3H767.4M529.8,617.7H767.4M529.8,599.5H767.4M529.8,581.2H767.4M749.1,562.9V709.1M529.8,690.8H767.4" class="g6_420"/>
<path d="M633.6,651.6h13.7V637.9H633.6v13.7Z" class="g7_420"/>
<path d="M591.5,605.2h9.1V591.5h-9.1v13.7Z" class="g7_420"/>
<path d="M529.8,709.1H767.4V562.9H529.8V709.1Z" class="g6_420"/>
<path d="M602.9,709.1V567.5" class="g8_420"/>
<path fill-rule="evenodd" d="M602.9,567.5l-2.4,1.6l2.4,-6.5l2.5,6.5Z" class="g3_420"/>
<path d="M529.8,636H762.9" class="g8_420"/>
<path fill-rule="evenodd" d="M762.9,636l-1.7,-2.4l6.5,2.4l-6.5,2.4Z" class="g3_420"/>
<path d="M499.2,784.6h48.9v27.5H499.2Zm0,27.5h48.9v27.5H499.2Z" class="g0_420"/>
<path d="M498.8,784.6h49.3m-48.9,27.1V785m-.4,27.1h49.3m-48.9,27.1V812.5m-.4,27.1h49.3m0,-55h39.7m-39.7,27.1V785m39.7,-.4h39.8m-39.8,27.1V785m39.8,-.4h39.7m-39.7,27.1V785m39.7,-.4H707m-39.7,27.1V785m39.7,-.4h39.7M707,811.7V785m39.7,-.4h40.1m-40.1,27.1V785m39.7,26.7V785M548.1,839.2V812.5m39.7,26.7V812.5m39.8,26.7V812.5m39.7,26.7V812.5M707,839.2V812.5m39.7,26.7V812.5m39.7,26.7V812.5M548.1,839.6h39.7m0,0h39.8m0,0h39.7m0,0H707m0,0h39.7m0,0h40.1M548.1,812.1h39.7m0,0h39.8m0,0h39.7m0,0H707m0,0h39.7m0,0h40.1" class="g9_420"/>
<path d="M499.2,976.4h48.9v27.5H499.2Zm0,27.5h48.9v27.5H499.2Z" class="g0_420"/>
<path d="M498.8,976.4h49.3m-48.9,27.1V976.7m-.4,27.2h49.3M499.2,1031v-26.8m-.4,27.2h49.3m0,-55h39.7m-39.7,27.1V976.7m39.7,-.3h39.8m-39.8,27.1V976.7m39.8,-.3h39.7m-39.7,27.1V976.7m39.7,-.3h38.9m-38.9,27.1V976.7m38.9,-.3h39m-39,27.1V976.7m39,-.3h38.9m-38.9,27.1V976.7m38.9,-.3h39.4m-39.4,27.1V976.7m39,26.8V976.7m-275,54.3v-26.8m39.7,26.8v-26.8m39.8,26.8v-26.8m39.7,26.8v-26.8m38.9,26.8v-26.8m39,26.8v-26.8m38.9,26.8v-26.8m39,26.8v-26.8m-275,27.2h39.7m0,0h39.8m0,0h39.7m0,0h38.9m0,0h39m0,0h38.9m0,0h39.4M548.1,1003.9h39.7m0,0h39.8m0,0h39.7m0,0h38.9m0,0h39m0,0h38.9m0,0h39.4" class="g9_420"/>
</svg>