<?xml version="1.0" encoding="UTF-8" standalone="no"?>
<!DOCTYPE svg PUBLIC "-//W3C//DTD SVG 1.1//EN"
"http://www.w3.org/Graphics/SVG/1.1/DTD/svg11.dtd">
<svg viewBox="0 0 931 1096" version="1.1" xmlns="http://www.w3.org/2000/svg" xmlns:xlink="http://www.w3.org/1999/xlink">
<defs>
<clipPath id="c0_205"><path d="M451.1,454.8V421.6H714.6v33.2Z"/></clipPath>
<clipPath id="c1_205"><path d="M443.2,645.1V611.9H777.5v33.2Z"/></clipPath>
<clipPath id="c2_205"><path d="M371.4,779.5V716.8H849.3v62.7Z"/></clipPath>
<style type="text/css"><![CDATA[
.g0_205{
fill: none;
stroke: #241F1F;
stroke-width: 0.763;
stroke-miterlimit: 10;
}
.g1_205{
fill: none;
stroke: #0079C2;
stroke-width: 0.763;
}
]]></style>
</defs>
<path d="M558.6,226.6h19.8M532.8,438.9h78.7" class="g0_205"/>
<path clip-path="url(#c0_205)" d="M661.2,438.9H715" class="g0_205"/>
<path d="M526.1,629.3H634.2" class="g0_205"/>
<path clip-path="url(#c1_205)" d="M686.8,629.3h91.1" class="g0_205"/>
<path d="M562.6,738.6h59.5" class="g0_205"/>
<path clip-path="url(#c2_205)" d="M452,763.8H849.7" class="g0_205"/>
<path d="M517.7,813.6h59.5M452.4,835h307M519.1,893.9h59.5" class="g0_205"/>
<path d="M346.6,170.3c0,0,-3.1,0,-3.1,3.1v83.9c0,0,0,3,3.1,3H876c0,0,3,0,3,-3V173.4c0,0,0,-3.1,-3,-3.1H346.6Z" class="g1_205"/>
</svg>