<?xml version="1.0" encoding="UTF-8" standalone="no"?>
<!DOCTYPE svg PUBLIC "-//W3C//DTD SVG 1.1//EN"
"http://www.w3.org/Graphics/SVG/1.1/DTD/svg11.dtd">
<svg viewBox="0 0 907 1045" version="1.1" xmlns="http://www.w3.org/2000/svg" xmlns:xlink="http://www.w3.org/1999/xlink">
<defs>
<clipPath id="c0_497"><path d="M623.1,336.2c-16,-10.7,-34.4,-11.3,-28.4,-41.8c3.3,-16.3,15.5,-22.8,29.4,-28.6h15.2c35.3,16.1,27.1,55.7,-4.1,70.4Z"/></clipPath>
<clipPath id="c1_497"><path d="M214.1,353.4c-16,-10.7,-34.3,-11.3,-28.3,-41.8c3.3,-16.3,15.5,-22.8,29.4,-28.6h15.1c35.3,16.1,27.1,55.7,-4,70.4Z"/></clipPath>
<clipPath id="c2_497"><path d="M346.2,328.8c-11.4,-7.6,-24.4,-8.1,-20.1,-29.7c2.2,-11.6,10.9,-16.2,20.8,-20.3h10.7c25.1,11.4,19.3,39.5,-2.8,50Z"/></clipPath>
<clipPath id="c3_497"><path d="M527,322.2c-11.4,-7.6,-24.4,-8,-20.1,-29.7c2.3,-11.5,10.9,-16.2,20.8,-20.3h10.8c25,11.5,19.2,39.5,-2.9,50Z"/></clipPath>
<clipPath id="c4_497"><path d="M147.7,294.4V237.1H175v57.3Z"/></clipPath>
<clipPath id="c5_497"><path d="M99.4,304.5c-2.9,-.3,-7.7,-1.7,-8.1,-4.8c.1,-.5,.1,-.1,0,-.6c.5,-1.7,.8,-3.5,1.4,-5.1c0,-.3,-.1,-.1,-.2,-.4c.8,-1.9,.3,-3.8,2.1,-4.6c0,-.7,.2,-1.2,0,-1.9c.3,-1.1,1.3,-1.5,2.5,-1.6h.4v.2h.2v-.2h.7v-.2h.4v.2H99v-.2h.2v.2h1.7v.2h.8v.2h.4v.2h.5v-.2h.4v-.2h.6v-.2h.8v-.2h.4v.2h1.5v.2h2.1v.2h1.5v.2h.2v-.2h1.8v-.2H113v-.2h.2v.2h1.1v-.2h1v.2h.2v-.2h1c.4,0,9,.9,9,1h7.3c1.8,-.4,5.6,.3,6.7,-1h1.3c2.5,1.7,2.4,4.1,3.5,7.3c.8,2.5,3.5,5.9,1.5,8.8c-2.2,1.1,-6.6,1.2,-9.9,1.2c-.4,0,-.8,0,-1.2,0c-.4,.6,-.9,.6,-1.4,1.1h-.2c.1,-.2,0,-.3,-.2,-.3c-.1,0,-.3,0,-.5,.1c-.2,-.5,-.8,-.6,-1,-1.1c-1.2,0,-2.1,0,-2.9,-.4h-8.8v.2h-.6v-.2h-.7v.2h-3.9v-.2h-2.6c-3.7,.6,-8.2,1.6,-12.3,2.3Zm52.7,1.9c-3.3,-2.7,-5.3,-13.4,-1.3,-16.5c.1,-3.5,-4,-4.5,-7.3,-4.6c-.3,-.3,-.8,-.9,-1,-1.3c.2,-.3,.5,-.6,.8,-.8h1.9v.2h.8v.2h.2v-.2h.2c3.7,1.1,5.7,3.2,7.5,6.2h.3v-.2h.4c3.5,.9,6.7,6.3,5.2,11.1c-.7,2.2,-4,4.9,-5.9,5.9ZM112,243.7c-.4,-.2,-.7,-.3,-.9,-.3c.4,.1,.6,.2,.9,.3ZM96.9,282.8c-.5,-.4,-1.7,-.4,-2.1,-.9c-.9,-1.1,-.1,-4.5,-.4,-5.4c0,0,0,-5.2,0,-5.2h.2v-.4h-.2v-.1h.2v-2h.2v-1.1H95v-1h.2v-3h.2v-8.5h-.2V255H95v-.7h-.2v-.6H95v-.6h-.2v-.4h-.2V252h-.2v-1.2h-.2v-.4h.2v-1.5h.2v-1h.2v-.6H95V247h.2v-.4h.2v-.4h.1V246h.2v-.2h.2v-.2h.2v-.2h.2v-.2h.2V245h.2v-.1h.4v-.2h.2v-.2h.4v-.2H98v-.2h.4v-.2h.8v-.2h.9v-.2h3.3v-.2h1v-.2h1.5v-.2h.2v.2h.2v-.2H108c-.1,.3,.4,.4,-.2,.6q.1,0,.1,0c.7,0,1.2,.3,1.6,.4h1.2c0,-.3,.1,-.5,.4,-.5c-.1,0,-.3,-.1,-.6,-.1c1,-.2,2.3,-.3,3.1,-.7h.6v.1h.3v-.1h.2v.1h1.2v.2h.2v-.2h.4c0,-.3,.3,-.4,.9,-.4c1.6,0,5,1.1,5.6,1.4h.2v-.2h.9v.2h1.2v-.2h.4v.2H127v.2h.4v-.2h.6v.2h.2v-.2h.3v.2H131v-.2h2.3v.2h1v.2h1.5v.2h3.7v-.2h1.3v.8h.8v-.2h.6v.2h.2v.1h.1v.2h.2V245h.2c3.5,.9,1.5,4.6,1.4,7.3c.3,1.2,.4,2.9,.4,3.9c0,.4,.1,-.1,.1,.5c-.3,1,-.7,2.5,-.3,3.5c-.2,.5,-.3,1.6,-.4,2.1c.6,2.6,.3,7.6,.7,10.4c.4,2.1,.9,4.2,.2,6.1c-.4,1.2,-1.5,1.8,-2.1,2.9h-.4v-.4h-.1v.2h-.2v.2h-.4v-.2h-.4v.2h-.2v.2h-8.6v.2h-5.2v.2h-5.2v.2H122v-.2h-.2v.2h-.5v-.2h-1.8v.2h-1.1v.1H118v-.1h-.4v.1h-.2v-.1h-1.9v-.2h-6.3v-.2H100v.2h-.8v.2h-.8v.1h-.2v-.1h-.7v.1h-.4v.2Z"/></clipPath>
<clipPath id="c6_497"><path d="M622.1,650c-16,-10.7,-34.3,-11.4,-28.3,-41.9c3.2,-16.2,15.5,-22.7,29.3,-28.5h15.2c35.3,16.1,27.1,55.6,-4,70.4Z"/></clipPath>
<clipPath id="c7_497"><path d="M213.2,667.2c-16,-10.7,-34.4,-11.3,-28.3,-41.9c3.2,-16.2,15.4,-22.7,29.3,-28.5h15.2c35.3,16.1,27.1,55.7,-4,70.4Z"/></clipPath>
<clipPath id="c8_497"><path d="M345.2,642.5c-11.3,-7.6,-24.4,-8,-20.1,-29.7c2.3,-11.5,11,-16.1,20.8,-20.2h10.8c25.1,11.4,19.3,39.5,-2.9,49.9Z"/></clipPath>
<clipPath id="c9_497"><path d="M526,636c-11.3,-7.6,-24.4,-8.1,-20.1,-29.7c2.3,-11.6,11,-16.2,20.9,-20.3h10.7c25.1,11.4,19.3,39.5,-2.8,50Z"/></clipPath>
<clipPath id="ca_497"><path d="M146.7,608.2V550.9h27.4v57.3Z"/></clipPath>
<clipPath id="cb_497"><path d="M98.4,618.3c-2.9,-.4,-7.6,-1.7,-8,-4.8c.1,-.5,.1,-.1,0,-.6c.4,-1.8,.8,-3.5,1.3,-5.2c.1,-.3,-.1,-.1,-.2,-.4c.9,-1.8,.3,-3.8,2.2,-4.6c0,-.6,.2,-1.2,0,-1.9c.2,-1,1.2,-1.4,2.4,-1.5h.4v.2h.2v-.2h.8v-.2h.4v.2h.2v-.2h.2v.2H100v.2h.8v.2h.3v.2h.6v-.2h.4v-.2h.6v-.2h.7v-.2h.4v.2h1.6v.2h2.1v.2H109v.2h.2v-.2h1.7v-.2h1.2v-.2h.2v.2h1.1v-.2h1v.2h.2v-.2h.9c.5,0,9,.9,9,.9h7.3c1.8,-.3,5.6,.3,6.7,-.9h1.4c2.5,1.7,2.3,4,3.4,7.3c.9,2.4,3.6,5.9,1.6,8.8c-2.3,1.1,-6.7,1.1,-9.9,1.1c-.5,0,-.9,0,-1.3,0c-.3,.7,-.9,.7,-1.3,1.2h-.2c0,-.2,0,-.3,-.2,-.3c-.1,0,-.3,0,-.6,.1c-.2,-.5,-.7,-.7,-.9,-1.1c-1.2,-.1,-2.1,-.1,-2.9,-.4h-8.8v.2h-.6V616h-.8v.2h-3.8V616h-2.7c-3.6,.6,-8.1,1.6,-12.3,2.3Zm52.8,1.9c-3.3,-2.7,-5.4,-13.4,-1.3,-16.5c.1,-3.5,-4,-4.6,-7.3,-4.6c-.3,-.3,-.8,-.9,-1,-1.4c.2,-.3,.5,-.5,.8,-.7h1.9v.2h.8v.2h.2v-.2h.1c3.8,1.1,5.8,3.1,7.5,6.1h.4v-.2h.4c3.5,.9,6.7,6.3,5.2,11.1c-.7,2.3,-4,5,-6,6ZM111.1,557.5v0c-.4,-.2,-.7,-.3,-.9,-.3c.4,.1,.5,.2,.9,.3ZM96,596.6c-.5,-.5,-1.7,-.4,-2.2,-1c-.8,-1.1,0,-4.4,-.3,-5.3c0,0,0,-5.2,0,-5.2h.2v-.4h-.2v-.2h.2v-1.9h.1v-1.2H94v-.9h.2v-3.1h.2V569h-.2v-.2H94V568h-.2v-.6H94v-.5h-.2v-.4h-.1v-.8h-.2v-1.1h-.2v-.4h.2v-1.6h.2v-.9h.1v-.6H94v-.4h.2v-.4h.2V560h.2v-.2h.2v-.2H95v-.2h.2v-.2h.2V559h.2v-.2h.2v-.2h.3v-.2h.2v-.2h.4V558h.4v-.2h.4v-.1h.8v-.2h.9v-.2h3.3v-.2h.9v-.2H105v-.2h.2v.2h.2v-.2h1.7c-.1,.3,.4,.3,-.2,.6h.1c.7,0,1.2,.3,1.6,.4h1.2c-.1,-.4,.1,-.5,.3,-.5q.1,0,.1,0c-.2,-.1,-.4,-.1,-.6,-.1c1,-.3,2.3,-.3,3,-.8h.6v.2h.4v-.2h.2v.2h1.1v.2h.2v-.2h.4c0,-.3,.4,-.4,1,-.4c1.6,0,5,1,5.5,1.4h.2v-.2h1v.2h1.1v-.2h.4v.2h1.4v.2h.4v-.2h.5v.2h.2v-.2h.4v.2h2.5v-.2h2.3v.2h1v.1h1.5v.2h3.6v-.2h1.4v.8h.8v-.2h.5v.2h.2v.2h.2v.2h.2v-.2h.2c3.5,.9,1.5,4.6,1.3,7.3c.3,1.2,.5,2.8,.4,3.8c.1,.5,.1,-.1,.2,.6c-.3,.9,-.7,2.5,-.4,3.5c-.1,.5,-.2,1.6,-.4,2.1c.7,2.6,.4,7.5,.8,10.3c.3,2.2,.9,4.3,.2,6.2c-.4,1.2,-1.5,1.8,-2.1,2.8h-.4v-.3h-.2v.2h-.2v.1h-.4v-.1h-.3v.1h-.2v.2h-8.7v.2h-5.1v.2h-5.2v.2h-.2V596h-.2v.2h-.6V596h-1.7v.2h-1.2v.2h-.3v-.2h-.4v.2h-.2v-.2h-1.9V596h-6.4v-.2H99v.2h-.7v.2h-.8v.2h-.2v-.2h-.8v.2h-.4v.2Z"/></clipPath>
<clipPath id="cc_497"><path d="M573.5,570.3c-11.4,-7.6,-24.4,-8,-20.1,-29.6c2.3,-11.6,11,-16.2,20.8,-20.3H585c25,11.4,19.2,39.5,-2.9,49.9Z"/></clipPath>
<clipPath id="cd_497"><path d="M277.5,609.4c-11.4,-7.6,-24.4,-8,-20.1,-29.7c2.3,-11.5,11,-16.1,20.8,-20.3H289c25,11.5,19.2,39.6,-2.9,50Z"/></clipPath>
<clipPath id="ce_497"><path d="M706,224v0ZM687.1,219.1c.1,-.5,1,-1.2,1.6,-1.3c0,0,0,-.1,0,-.2h.2c0,.2,-.4,.7,-.5,.8c-.1,-.1,-.2,-.1,-.3,-.1c-.2,0,-.2,.1,-.2,.3c-.1,.1,-.3,.2,-.5,.3q0,.1,0,.2Zm2.6,-1v-.3h-.2v-.5h-.3v-.2h.5v.5h.5v.2h.3v.3Zm4.1,-4.9V213h.3v.2Zm-3.3,48.1v-.7h-1.3v-.3h-1.3V260h-1v-.2h-.8v-.3h-.5v-.2h-.3V259h-.2v-.2h-.3v-.3h-.2v-.3h-.3V258H684v-3.4h.3v-.2h.3v-.3h.5v-.2h.2v-.5h.3v-.6h.2v-5.1h.3V236.9h.3v-.5h.5v-.3h.2v-.2h.6v-.6h-.6v-.2h-.2v-.3h-.5v-.2h-.3v-.3h-.3v-.2h-.5v-.6h-.5v-.2h-.2V233h-.3v-.2H684v-.5h-.2v-.6h-.3v-8.2h.3V223h.2v-.3h.3v-.5h.3V222h.2v-.6h.3v-.2h.2v-.3h.3v-.5h.2v-.2h.3v-.3h.3v-.3h.2v-.2h.3v.5h.2v.3h.8c0,-.1,.3,-1.2,.1,-1.2c0,0,0,.1,-.1,.1c0,-.2,0,-.4,.3,-.4c.1,0,.3,.1,.5,.2c-.1,-.4,.1,-.6,.4,-.6c.2,0,.5,.1,.9,.3c0,-.1,0,-.2,0,-.2h.5v.2h.2c.4,-.9,.4,-1.3,-.1,-1.3c0,0,-.1,0,-.1,0c0,-.2,0,-.3,-.2,-.3c-.1,0,-.2,0,-.3,.1c-.2,-.4,.4,-1,.5,-1.1c0,0,0,-.1,0,-.2h.2v.2h.3v-.2h.5v-.3h.8v.5H692v.6h2.6v-.3h.5V216h-.2v-.2h-.3v-.3h-1.5V215h-.3v-.2h.3c0,0,0,-.6,0,-.6c.4,0,.2,-.3,.5,-.5c.1,.1,.2,.1,.3,.1c.2,0,.3,-.1,.2,-.3c.4,-.3,.8,-.3,1.5,-.3c.1,0,.2,0,.3,0c0,-.1,0,-.2,0,-.2h-1.8v-.3h2.1c0,.5,.5,.5,.7,.8c.1,-.1,.2,-.1,.2,-.1c.1,0,.2,.1,.1,.3h.3c-.4,.9,-.3,1.3,.2,1.3c.1,0,.2,0,.3,0c0,.2,0,.4,0,.5h.5v-.2h.2V215h.3c.1,.4,.4,.3,.5,.5c0,.2,0,.3,.1,.3q.1,0,.2,0c-.2,.5,-.2,.8,.1,.8c0,0,.1,0,.1,0c.1,.3,.3,.5,.6,.7c-.2,.4,-.1,.7,.2,.7c.2,0,.3,-.1,.5,-.2c0,.2,0,.3,.1,.3q.1,0,.2,0c-.1,.2,0,.3,.2,.3c0,0,.2,0,.3,0c-.1,.1,0,.2,.1,.2c0,0,.1,0,.2,0c0,0,.4,.5,.5,.5c-.1,.2,-.1,.3,.1,.3c0,0,.1,0,.1,0c-.1,.3,-.1,.5,.1,.5q.1,0,.2,0c0,.3,-.4,.7,-.5,.8q0,.1,0,.2h.5v-.2h.5c-.1,.2,0,.3,.2,.3c.1,0,.2,0,.3,-.1c.3,.4,.1,.7,.3,1.1c.1,.1,.7,.3,.8,.5c-.1,.2,-.1,.3,.1,.3l.1,-.1c0,.2,0,.4,0,.5q.1,0,.2,0c.3,0,.3,.3,.1,.8c0,0,.4,.3,.5,.3c.1,.3,.4,.9,.2,1.3h.3c0,0,0,1.5,0,1.5h.3v2.3H707v1.1h-.3v.5h-.2v.5h-.3v.2H706v.6h-.3v.5h-.2v.2h-.3v.3h-.3v.2h-.2v.3h-.3v.3h-.2v.2h-.3v.3h-.5v.2h-.3v.3h-.5v.2h-.2v.3h-.6v.3h.6v.2h.2v.3h.5v.2h.3v.3h.2v.5h.3v15.7h.3v.5h.2v.3h.3v.2h.2v.3h.3v.2h.3v.3h.2v3.3h-.2v.3h-.3v.3h-.3v.2h-.2v.3h-.3v.2h-.5v.3h-1v.2h-1.1v.3h-1.2v.3h-1.3v.7Z"/></clipPath>
<clipPath id="cf_497"><path d="M696.8,521.5v0ZM678,516.6c.1,-.5,.9,-1.2,1.5,-1.3q0,-.1,0,-.2h.3c-.1,.1,-.4,.7,-.5,.7c-.2,0,-.3,0,-.4,0c-.2,0,-.2,.1,-.2,.3c-.1,.1,-.3,.2,-.5,.3c0,0,0,.1,0,.2Zm2.5,-1v-.3h-.2v-.5H680v-.2h.5v.5h.6v.2h.2v.3Zm4.2,-4.9v-.3h.2v.3Zm-3.4,48V558H680v-.2h-1.3v-.3h-1v-.2h-.8V557h-.5v-.2h-.2v-.3h-.3v-.3h-.3V556h-.2v-.3h-.3v-.2h-.2v-3.4h.2v-.2h.3v-.3h.5v-.2h.3v-.6h.2v-.5h.3v-5.1h.2V534.4h.3v-.5h.5v-.3h.3v-.3h.5v-.5H678v-.2h-.3v-.3h-.5v-.2h-.3v-.3h-.2v-.3h-.5V531h-.6v-.2h-.2v-.3h-.3v-.2h-.2v-.6h-.3v-.5h-.2V529h-.1v-7.5h.1V521h.2v-.5h.3v-.3h.2v-.5h.3v-.3h.2v-.5h.3v-.2h.3v-.3h.2v-.5h.3v-.3h.2v-.2h.3v-.3h.3v-.2h.2v.5h.3v.2h.7c0,0,.4,-1.1,.2,-1.1c-.1,0,-.1,.1,-.2,.1c0,-.3,.1,-.4,.3,-.4c.1,0,.3,.1,.5,.2c0,-.4,.1,-.6,.4,-.6c.2,0,.5,.1,.9,.3c0,-.1,0,-.2,0,-.3h.5v.3h.3c.4,-.9,.3,-1.3,-.1,-1.3q-.1,0,-.2,0c.1,-.2,0,-.3,-.1,-.3c-.1,0,-.3,0,-.4,.1c-.2,-.4,.4,-1,.5,-1.1q0,-.1,0,-.2h.3v.2h.2v-.2h.6V513h.7v.5h-.2v.5h2.6v-.2h.5v-.3h-.3v-.2h-.2V513h-1.6v-.5h-.3v-.3h.3c0,0,0,-.5,0,-.5c.4,0,.3,-.4,.5,-.5c.2,.1,.3,.1,.4,.1c.1,0,.2,-.1,.1,-.3c.5,-.3,.9,-.3,1.5,-.3c.1,0,.2,0,.3,0c0,-.1,0,-.2,0,-.3h-1.8v-.2H687c.1,.4,.5,.5,.8,.8c0,-.1,.1,-.1,.1,-.1c.2,0,.2,.1,.1,.3h.3c-.4,.9,-.3,1.3,.2,1.3c.1,0,.2,0,.3,0c0,.2,0,.3,0,.5h.5v-.2h.3v-.3h.2c.1,.4,.4,.3,.6,.5c-.1,.2,-.1,.3,.1,.3h.1c-.2,.5,-.2,.8,.1,.8q.1,0,.2,-.1c.1,.4,.3,.6,.5,.8c-.1,.4,0,.6,.3,.6c.1,0,.3,0,.5,-.1c-.1,.2,-.1,.3,.1,.3c0,0,.1,0,.1,0c0,.2,0,.3,.2,.3c.1,0,.2,0,.3,-.1c0,.2,0,.3,.1,.3q.1,0,.2,0c0,0,.5,.5,.5,.5c-.1,.2,0,.3,.1,.3c0,0,.1,0,.2,0c-.2,.3,-.1,.5,.1,.5c0,0,.1,0,.1,0c.1,.2,-.4,.6,-.5,.8c0,0,0,.1,0,.2h.5v-.2h.5c0,.2,0,.3,.2,.3c.1,0,.2,0,.4,-.1c.2,.4,0,.6,.2,1c.1,.2,.7,.4,.8,.6c-.1,.2,0,.2,.1,.2c0,0,.1,0,.1,0c0,.2,0,.4,0,.5q.1,0,.2,0c.3,0,.3,.3,.1,.8c0,0,.5,.3,.5,.3c.1,.3,.4,.9,.3,1.2h.2c0,0,0,1.6,0,1.6h.3v2.3h-.3v1h-.2v.5h-.3v.6h-.2v.2h-.3v.5h-.3v.6h-.2v.2H696v.3h-.2v.2h-.3v.3h-.2v.2H695v.3h-.3v.3h-.5v.2H694v.3h-.5v.2h-.3v.3h-.5v.2h.5v.3h.3v.3h.5v.2h.2v.3h.3v.5h.2v15.7h.3v.5h.3v.3h.2v.2h.3v.3h.2v.2h.3v.3h.2v3.3h-.2v.3H696v.2h-.2v.3h-.3v.3h-.2v.2h-.6v.3h-1v.2h-1v.3h-1.3v.2h-1.3v.7Z"/></clipPath>
<clipPath id="cg_497"><path d="M-2.6,1047.7V-2.6H910.2V1047.7Z"/></clipPath>
<style type="text/css"><![CDATA[
.g0_497{
fill: #D6D6D6;
}
.g1_497{
fill: none;
stroke: #505050;
stroke-width: 1.527;
stroke-linecap: butt;
stroke-linejoin: miter;
stroke-miterlimit: 4;
}
.g2_497{
fill: none;
stroke: #505050;
stroke-width: 3.055;
stroke-linecap: butt;
stroke-linejoin: miter;
stroke-miterlimit: 4;
}
.g3_497{
fill: none;
stroke: #232323;
stroke-width: 1.527;
stroke-linecap: butt;
stroke-linejoin: miter;
stroke-miterlimit: 4;
}
.g4_497{
}
.g5_497{
fill: none;
stroke: #000000;
stroke-width: 1.527;
stroke-linecap: butt;
stroke-linejoin: miter;
stroke-miterlimit: 4;
}
.g6_497{
fill: none;
stroke: #121212;
stroke-width: 1.527;
stroke-linecap: round;
stroke-linejoin: round;
stroke-miterlimit: 4;
stroke-dasharray: 0,5;
}
.g7_497{
fill: none;
stroke: #121212;
stroke-width: 1.527;
stroke-linecap: round;
stroke-linejoin: round;
stroke-miterlimit: 4;
stroke-dasharray: 0,4;
}
.g8_497{
fill: none;
stroke: #121212;
stroke-width: 1.527;
stroke-linecap: round;
stroke-linejoin: round;
stroke-miterlimit: 4;
stroke-dasharray: 0,6;
}
.g9_497{
fill: none;
stroke: #121212;
stroke-width: 1.527;
stroke-linecap: round;
stroke-linejoin: round;
stroke-miterlimit: 4;
}
.ga_497{
fill: none;
stroke: #121212;
stroke-width: 3.055;
stroke-linecap: butt;
stroke-linejoin: miter;
stroke-miterlimit: 4;
}
.gb_497{
fill: #E6E6E6;
}
.gc_497{
fill: none;
stroke: #000000;
stroke-width: 0.571;
stroke-linecap: butt;
stroke-linejoin: miter;
stroke-miterlimit: 4;
}
.gd_497{
fill: none;
stroke: #FFFFFF;
stroke-width: 1.909;
stroke-linecap: butt;
stroke-linejoin: miter;
}
.ge_497{
fill: none;
stroke: #000000;
stroke-width: 0.381;
stroke-linecap: butt;
stroke-linejoin: miter;
}
]]></style>
</defs>
<path d="M607.7,231.8c-1.7,-.7,-70.4,9.5,-72.5,10.7c-10.4,1.9,-20.8,3.8,-31.2,5.8c-4.4,.4,-8,1.4,-10.8,3.2c-3.4,1.8,-6.2,4.7,-8.6,6.9c-4,3.8,-2.8,5.9,-1.8,10.1c.9,3.5,1.4,7,1.4,10.6c-.7,4.3,-4.6,7.5,-8,11.3c-5,5.7,-11.8,11.3,-14.5,17.5c-3.4,7.7,.5,13.9,7.7,20.5c8.3,7.8,20.3,14.1,27.4,22.3c7.8,9.1,12.2,21.1,28.3,27.2c10.6,2.9,21.9,4.4,33.8,4.8c14.1,.2,27.9,-.9,41.3,-3.2c8.9,-1.7,18.1,-2.7,27.5,-3.1c15.8,-.2,31.6,4.6,46.2,-1.1c7,-3.7,12.5,-8.1,16.4,-13.1c3.2,-3.6,6.5,-7.1,10,-10.6c3.5,-3.1,6.4,-6.4,8.7,-9.9c3.2,-6.2,-1,-10,-4.6,-15.8c-4,-6.1,-6.1,-12.5,-6.3,-19c.2,-5.6,.2,-11.1,.3,-16.7c-.6,-5.2,-1.8,-10.4,-3.8,-15.5c-3.2,-7.5,-8.8,-12.5,-17.4,-18.4c-7.6,-5.2,-14.1,-10.8,-21.8,-15.9c-2.7,-2.3,-6,-4.1,-10,-5.4c-2.1,-.4,-36.2,-2,-36.9,-2.7Z" class="g0_497"/>
<path d="M607.7,231.8c-1.7,-.7,-70.4,9.5,-72.5,10.7c-10.4,1.9,-20.8,3.8,-31.2,5.8c-4.4,.4,-8,1.4,-10.8,3.2c-3.4,1.8,-6.2,4.7,-8.6,6.9c-4,3.8,-2.8,5.9,-1.8,10.1c.9,3.5,1.4,7,1.4,10.6c-.7,4.3,-4.6,7.5,-8,11.3c-5,5.7,-11.8,11.3,-14.5,17.5c-3.4,7.7,.5,13.9,7.7,20.5c8.3,7.8,20.3,14.1,27.4,22.3c7.8,9.1,12.2,21.1,28.3,27.2c10.6,2.9,21.9,4.4,33.8,4.8c14.1,.2,27.9,-.9,41.3,-3.2c8.9,-1.7,18.1,-2.7,27.5,-3.1c15.8,-.2,31.6,4.6,46.2,-1.1c7,-3.7,12.5,-8.1,16.4,-13.1c3.2,-3.6,6.5,-7.1,10,-10.6c3.5,-3.1,6.4,-6.4,8.7,-9.9c3.2,-6.2,-1,-10,-4.6,-15.8c-4,-6.1,-6.1,-12.5,-6.3,-19c.2,-5.6,.2,-11.1,.3,-16.7c-.6,-5.2,-1.8,-10.4,-3.8,-15.5c-3.2,-7.5,-8.8,-12.5,-17.4,-18.4c-7.6,-5.2,-14.1,-10.8,-21.8,-15.9c-2.7,-2.3,-6,-4.1,-10,-5.4c-2.1,-.4,-36.2,-2,-36.9,-2.7" class="g1_497"/>
<image clip-path="url(#c0_497)" preserveAspectRatio="none" x="593" y="264" width="74" height="74" xlink:href="img/1.jpg"/>
<path d="M267.6,238.8c1.8,-.7,71.2,9.7,73.3,10.9c10.6,1.9,21.1,3.8,31.6,5.8c4.5,.4,8.1,1.5,10.9,3.3c3.5,1.8,6.3,4.8,8.7,7c4.1,3.9,2.9,6.1,1.9,10.4c-1,3.6,-1.4,7.2,-1.5,10.8c.7,4.4,4.7,7.7,8.1,11.5c5.1,5.8,12,11.6,14.7,17.9c3.5,7.8,-.5,14.1,-7.8,20.9c-8.4,7.9,-20.5,14.4,-27.7,22.7c-7.9,9.3,-12.3,21.6,-28.6,27.8c-10.8,2.9,-22.2,4.5,-34.3,4.9c-14.2,.2,-28.1,-.9,-41.7,-3.3c-9,-1.7,-18.3,-2.8,-27.9,-3.1c-15.9,-.2,-31.9,4.7,-46.6,-1.1c-7.1,-3.9,-12.6,-8.3,-16.6,-13.4c-3.2,-3.7,-6.6,-7.3,-10.2,-10.8c-3.5,-3.2,-6.4,-6.6,-8.8,-10.1c-3.2,-6.3,1,-10.3,4.7,-16.2c4,-6.2,6.1,-12.7,6.3,-19.3c-.1,-5.7,-.2,-11.4,-.2,-17.1c.6,-5.3,1.8,-10.6,3.8,-15.8c3.2,-7.6,9,-12.8,17.6,-18.8c7.7,-5.3,14.3,-11,22.1,-16.2c2.7,-2.3,6,-4.1,10.1,-5.6c2.1,-.3,36.6,-1.9,37.3,-2.6Z" class="g0_497"/>
<path d="M267.6,238.8c1.8,-.7,71.2,9.7,73.3,10.9c10.6,1.9,21.1,3.8,31.6,5.8c4.5,.4,8.1,1.5,10.9,3.3c3.5,1.8,6.3,4.8,8.7,7c4.1,3.9,2.9,6.1,1.9,10.4c-1,3.6,-1.4,7.2,-1.5,10.8c.7,4.4,4.7,7.7,8.1,11.5c5.1,5.8,12,11.6,14.7,17.9c3.5,7.8,-.5,14.1,-7.8,20.9c-8.4,7.9,-20.5,14.4,-27.7,22.7c-7.9,9.3,-12.3,21.6,-28.6,27.8c-10.8,2.9,-22.2,4.5,-34.3,4.9c-14.2,.2,-28.1,-.9,-41.7,-3.3c-9,-1.7,-18.3,-2.8,-27.9,-3.1c-15.9,-.2,-31.9,4.7,-46.6,-1.1c-7.1,-3.9,-12.6,-8.3,-16.6,-13.4c-3.2,-3.7,-6.6,-7.3,-10.2,-10.8c-3.5,-3.2,-6.4,-6.6,-8.8,-10.1c-3.2,-6.3,1,-10.3,4.7,-16.2c4,-6.2,6.1,-12.7,6.3,-19.3c-.1,-5.7,-.2,-11.4,-.2,-17.1c.6,-5.3,1.8,-10.6,3.8,-15.8c3.2,-7.6,9,-12.8,17.6,-18.8c7.7,-5.3,14.3,-11,22.1,-16.2c2.7,-2.3,6,-4.1,10.1,-5.6c2.1,-.3,36.6,-1.9,37.3,-2.6" class="g1_497"/>
<image clip-path="url(#c1_497)" preserveAspectRatio="none" x="184" y="281" width="74" height="74" xlink:href="img/2.jpg"/>
<path d="M439.9,225.3v173" class="g2_497"/>
<image clip-path="url(#c2_497)" preserveAspectRatio="none" x="325" y="277" width="52" height="53" xlink:href="img/3.jpg"/>
<image clip-path="url(#c3_497)" preserveAspectRatio="none" x="505" y="271" width="53" height="53" xlink:href="img/4.jpg"/>
<path d="M249.9,306.6c5.3,-2.9,10.9,-6,16.5,-8.7c7.6,-3.7,16,-4.5,24.5,-4.7c6.6,-.1,12.6,-1,19.3,-.2c3,.3,6.1,.2,9.2,.2c3,0,6,1.3,8.5,1c-2.7,-1,-5.9,-3.3,-8.2,-5c3.2,1.3,5.9,4.4,9.1,5c-2.5,2.5,-6.1,3,-7.4,6.8c2.3,-1.4,3.5,-4,5.9,-4.8" class="g3_497"/>
<image clip-path="url(#c4_497)" preserveAspectRatio="none" x="148" y="237" width="27" height="57" xlink:href="img/5.jpg"/>
<image clip-path="url(#c5_497)" preserveAspectRatio="none" x="91" y="241" width="70" height="67" xlink:href="img/6.jpg"/>
<path d="M101.2,177.7c4.9,0,8.9,-4,8.9,-8.9c0,-4.9,-4,-8.9,-8.9,-8.9c-4.9,0,-8.9,4,-8.9,8.9c0,4.9,4,8.9,8.9,8.9Z" class="g4_497"/>
<path d="M101.2,177.7c4.9,0,8.9,-4,8.9,-8.9c0,-4.9,-4,-8.9,-8.9,-8.9c-4.9,0,-8.9,4,-8.9,8.9c0,4.9,4,8.9,8.9,8.9Z" class="g5_497"/>
<path d="M376.6,285.2c1,-1.9,2.6,-3.7,4,-5.4m4.7,-5.3c2.8,-2.7,6.1,-5.2,9.1,-7.8m5.3,-4.2c1.9,-1.1,3.9,-2.1,5.9,-2.9" class="g6_497"/>
<path d="M411.5,257.9c.6,-.2,1.3,-.4,1.9,-.6" class="g7_497"/>
<path d="M420.5,256c-1,.1,-1.8,.2,-2.6,.3" class="g8_497"/>
<path d="M424.8,255.7c2.2,0,4.4,.2,6.4,.5m7,1c2.5,.3,5,.6,7.3,1.1m6.6,2c10.5,3.6,20.4,8.1,29.5,14.8" class="g6_497"/>
<path d="M486,278.7c.4,.4,.8,.8,1.2,1.2m4.1,3.3c.5,.3,1,.6,1.5,1" class="g7_497"/>
<path d="M497.5,289.4c.6,.7,1.2,1.4,1.8,2m-3.2,.9c-1,-.1,-1.9,-.3,-2.7,-.5" class="g8_497"/>
<path d="M494.8,291.8c2.1,.2,4.4,.2,5.9,.8" class="g6_497"/>
<path d="M503.9,288.8c-.2,.9,-.5,1.7,-.9,2.6" class="g8_497"/>
<path d="M504.1,284.5c0,-.7,0,-1.4,.1,-2.1" class="g6_497"/>
<path d="M503.4,284.1c-.8,1.8,-1.7,3.6,-2.1,5.6" class="g7_497"/>
<path d="M375.6,289.5v0M382,278.1v0m14.2,-13v0M407.7,259v0m7.6,-2.3v0m5.2,-.7v0m12.8,.5v0m14.6,2.5v0m35.4,17.4v0m5.2,4.7v0m5.6,4.2v0m7.5,7.4v0M491,290.5v0m11.1,3.5v0m1.8,-5.2v0m.7,-8.5v0m-3.5,11.3v0" class="g9_497"/>
<path d="M533.2,276.6c-2.1,-2.1,6.6,-7.5,8.4,-8.5c7.6,-4.3,17.7,-10.9,27.2,-11.8c8.5,-.7,16.7,3.4,24.3,5.9c3,1,4.9,3,7.2,4.7c1.7,1.2,4.1,2,4.8,4.1c-3.1,-1.3,-8.5,-1.8,-11.5,.1c2.6,.1,7.9,4,10.7,2.8c2.9,-1.3,4,-10,3.7,-12.6c.4,3.1,-1.1,6.8,-1.9,9.8" class="ga_497"/>
<path d="M101.2,488c4.9,0,8.9,-4,8.9,-8.9c0,-4.9,-4,-8.9,-8.9,-8.9c-4.9,0,-8.9,4,-8.9,8.9c0,4.9,4,8.9,8.9,8.9Z" class="g4_497"/>
<path d="M101.2,488c4.9,0,8.9,-4,8.9,-8.9c0,-4.9,-4,-8.9,-8.9,-8.9c-4.9,0,-8.9,4,-8.9,8.9c0,4.9,4,8.9,8.9,8.9Z" class="g5_497"/>
<path d="M606.7,545.6c-1.7,-.7,-70.4,9.5,-72.4,10.7c-10.5,1.9,-20.9,3.8,-31.2,5.7c-4.5,.4,-8.1,1.5,-10.8,3.2c-3.4,1.8,-6.3,4.7,-8.6,6.9c-4,3.8,-2.9,5.9,-1.9,10.2c1,3.5,1.4,7,1.5,10.6c-.7,4.2,-4.6,7.5,-8,11.3c-5.1,5.6,-11.9,11.3,-14.6,17.4c-3.4,7.8,.6,13.9,7.8,20.6c8.3,7.7,20.3,14.1,27.3,22.2c7.9,9.1,12.2,21.2,28.3,27.3c10.7,2.8,22,4.4,33.9,4.7c14.1,.3,27.8,-.8,41.3,-3.1c8.9,-1.8,18.1,-2.8,27.5,-3.1c15.8,-.2,31.6,4.6,46.2,-1.1c7,-3.8,12.4,-8.2,16.3,-13.1c3.3,-3.6,6.6,-7.1,10.1,-10.6c3.5,-3.2,6.4,-6.5,8.7,-9.9c3.2,-6.2,-1,-10.1,-4.6,-15.9c-4,-6.1,-6.1,-12.4,-6.3,-18.9c.1,-5.6,.2,-11.2,.2,-16.8c-.5,-5.2,-1.8,-10.3,-3.7,-15.4C690.5,581,684.8,575.9,676.3,570c-7.6,-5.2,-14.1,-10.8,-21.9,-15.9c-2.6,-2.2,-5.9,-4,-9.9,-5.4c-2.1,-.3,-36.2,-1.9,-37,-2.6Z" class="g0_497"/>
<path d="M606.7,545.6c-1.7,-.7,-70.4,9.5,-72.4,10.7c-10.5,1.9,-20.9,3.8,-31.2,5.7c-4.5,.4,-8.1,1.5,-10.8,3.2c-3.4,1.8,-6.3,4.7,-8.6,6.9c-4,3.8,-2.9,5.9,-1.9,10.2c1,3.5,1.4,7,1.5,10.6c-.7,4.2,-4.6,7.5,-8,11.3c-5.1,5.6,-11.9,11.3,-14.6,17.4c-3.4,7.8,.6,13.9,7.8,20.6c8.3,7.7,20.3,14.1,27.3,22.2c7.9,9.1,12.2,21.2,28.3,27.3c10.7,2.8,22,4.4,33.9,4.7c14.1,.3,27.8,-.8,41.3,-3.1c8.9,-1.8,18.1,-2.8,27.5,-3.1c15.8,-.2,31.6,4.6,46.2,-1.1c7,-3.8,12.4,-8.2,16.3,-13.1c3.3,-3.6,6.6,-7.1,10.1,-10.6c3.5,-3.2,6.4,-6.5,8.7,-9.9c3.2,-6.2,-1,-10.1,-4.6,-15.9c-4,-6.1,-6.1,-12.4,-6.3,-18.9c.1,-5.6,.2,-11.2,.2,-16.8c-.5,-5.2,-1.8,-10.3,-3.7,-15.4C690.5,581,684.8,575.9,676.3,570c-7.6,-5.2,-14.1,-10.8,-21.9,-15.9c-2.6,-2.2,-5.9,-4,-9.9,-5.4c-2.1,-.3,-36.2,-1.9,-37,-2.6" class="g1_497"/>
<image clip-path="url(#c6_497)" preserveAspectRatio="none" x="592" y="578" width="74" height="74" xlink:href="img/7.jpg"/>
<path d="M266.7,552.5c1.7,-.7,71.2,9.7,73.3,11c10.5,1.8,21.1,3.8,31.5,5.8c4.5,.4,8.2,1.5,11,3.3c3.4,1.8,6.3,4.8,8.6,7c4.1,3.9,3,6,1.9,10.4c-.9,3.5,-1.4,7.1,-1.4,10.7c.7,4.4,4.6,7.7,8,11.6c5.2,5.8,12,11.5,14.8,17.8c3.4,7.9,-.5,14.2,-7.8,21c-8.5,7.9,-20.6,14.3,-27.7,22.7c-7.9,9.3,-12.4,21.6,-28.6,27.8c-10.8,2.9,-22.3,4.5,-34.3,4.8c-14.2,.2,-28.1,-.8,-41.7,-3.2c-9.1,-1.8,-18.3,-2.8,-27.9,-3.1c-16,-.2,-31.9,4.6,-46.7,-1.2c-7.1,-3.8,-12.6,-8.3,-16.5,-13.3c-3.3,-3.7,-6.7,-7.3,-10.2,-10.9c-3.5,-3.2,-6.5,-6.5,-8.8,-10c-3.2,-6.4,1,-10.3,4.7,-16.2c4,-6.3,6.1,-12.7,6.3,-19.4c-.1,-5.7,-.2,-11.4,-.2,-17c.5,-5.4,1.8,-10.6,3.8,-15.8c3.2,-7.7,8.9,-12.8,17.6,-18.8c7.7,-5.4,14.2,-11,22.1,-16.3c2.6,-2.3,6,-4.1,10.1,-5.5c2.1,-.3,36.6,-2,37.3,-2.7Z" class="g0_497"/>
<path d="M266.7,552.5c1.7,-.7,71.2,9.7,73.3,11c10.5,1.8,21.1,3.8,31.5,5.8c4.5,.4,8.2,1.5,11,3.3c3.4,1.8,6.3,4.8,8.6,7c4.1,3.9,3,6,1.9,10.4c-.9,3.5,-1.4,7.1,-1.4,10.7c.7,4.4,4.6,7.7,8,11.6c5.2,5.8,12,11.5,14.8,17.8c3.4,7.9,-.5,14.2,-7.8,21c-8.5,7.9,-20.6,14.3,-27.7,22.7c-7.9,9.3,-12.4,21.6,-28.6,27.8c-10.8,2.9,-22.3,4.5,-34.3,4.8c-14.2,.2,-28.1,-.8,-41.7,-3.2c-9.1,-1.8,-18.3,-2.8,-27.9,-3.1c-16,-.2,-31.9,4.6,-46.7,-1.2c-7.1,-3.8,-12.6,-8.3,-16.5,-13.3c-3.3,-3.7,-6.7,-7.3,-10.2,-10.9c-3.5,-3.2,-6.5,-6.5,-8.8,-10c-3.2,-6.4,1,-10.3,4.7,-16.2c4,-6.3,6.1,-12.7,6.3,-19.4c-.1,-5.7,-.2,-11.4,-.2,-17c.5,-5.4,1.8,-10.6,3.8,-15.8c3.2,-7.7,8.9,-12.8,17.6,-18.8c7.7,-5.4,14.2,-11,22.1,-16.3c2.6,-2.3,6,-4.1,10.1,-5.5c2.1,-.3,36.6,-2,37.3,-2.7" class="g1_497"/>
<image clip-path="url(#c7_497)" preserveAspectRatio="none" x="183" y="595" width="74" height="74" xlink:href="img/8.jpg"/>
<path d="M438.9,539.1v173" class="g2_497"/>
<image clip-path="url(#c8_497)" preserveAspectRatio="none" x="324" y="591" width="52" height="53" xlink:href="img/9.jpg"/>
<image clip-path="url(#c9_497)" preserveAspectRatio="none" x="505" y="585" width="52" height="52" xlink:href="img/10.jpg"/>
<path d="M326.1,618.8c-5.4,-2.8,-10.9,-6,-16.5,-8.7c-7.7,-3.7,-16.1,-4.5,-24.5,-4.7c-6.6,-.1,-12.6,-.9,-19.3,-.2c-3,.4,-6.2,.2,-9.2,.2c-3,0,-6,1.4,-8.6,1.1c2.8,-1.1,6,-3.4,8.2,-5.1c-3.1,1.3,-5.8,4.4,-9.1,5c2.6,2.5,6.2,3,7.4,6.8c-2.2,-1.3,-3.4,-3.9,-5.8,-4.8" class="g3_497"/>
<image clip-path="url(#ca_497)" preserveAspectRatio="none" x="147" y="551" width="27" height="57" xlink:href="img/11.jpg"/>
<image clip-path="url(#cb_497)" preserveAspectRatio="none" x="90" y="555" width="70" height="67" xlink:href="img/12.jpg"/>
<path d="M502.7,599c-1,-2,-2.6,-3.8,-4,-5.4M494,588.3c-2.8,-2.7,-6.1,-5.3,-9.1,-7.8m-5.3,-4.2c-1.9,-1.2,-3.9,-2.2,-5.9,-2.9" class="g6_497"/>
<path d="M467.8,571.7c-.6,-.2,-1.3,-.5,-1.9,-.7" class="g7_497"/>
<path d="M458.8,569.7c1,.2,1.8,.3,2.6,.3" class="g8_497"/>
<path d="M454.5,569.4c-2.2,.1,-4.4,.2,-6.4,.5m-7,1.1c-2.5,.3,-5,.6,-7.3,1.1m-6.6,2c-10.5,3.6,-20.4,8,-29.5,14.7" class="g6_497"/>
<path d="M393.3,592.5c-.4,.4,-.8,.8,-1.2,1.2m-4.1,3.2c-.5,.3,-1,.7,-1.5,1" class="g7_497"/>
<path d="M381.7,603.1c-.5,.8,-1.1,1.5,-1.7,2.1m3.2,.9c1,-.2,1.9,-.3,2.7,-.6" class="g8_497"/>
<path d="M384.5,605.5c-2.1,.3,-4.4,.3,-5.9,.9" class="g6_497"/>
<path d="M375.4,602.6c.2,.9,.5,1.7,.9,2.6" class="g8_497"/>
<path d="M375.2,598.3c0,-.7,0,-1.4,-.1,-2.1" class="g6_497"/>
<path d="M375.9,597.8c.8,1.9,1.7,3.6,2.1,5.6" class="g7_497"/>
<path d="M503.6,603.3v0m-6.3,-11.4v0m-14.2,-13v0m-11.5,-6.2v0M464,570.5v0m-5.2,-.8v0m-12.8,.6v0m-14.6,2.4v0M396,590.2v0m-5.2,4.6v0m-5.6,4.2v0m-7.5,7.5v0m10.6,-2.3v0m-11.1,3.5v0m-1.8,-5.1v0m-.7,-8.5v0m3.5,11.3v0" class="g9_497"/>
<path d="M609,590.3c2.1,-2.1,-6.7,-7.4,-8.5,-8.4c-7.6,-4.3,-17.7,-11,-27.2,-11.8c-8.4,-.7,-16.7,3.3,-24.2,5.8c-3.1,1,-5,3.1,-7.3,4.8c-1.7,1.2,-4.1,1.9,-4.7,4c3,-1.3,8.4,-1.7,11.4,.1c-2.6,.1,-7.9,4.1,-10.6,2.9c-2.9,-1.3,-4.1,-10,-3.8,-12.6c-.4,3.1,1.1,6.7,1.9,9.7" class="ga_497"/>
<image clip-path="url(#cc_497)" preserveAspectRatio="none" x="552" y="519" width="52" height="53" xlink:href="img/13.jpg"/>
<image clip-path="url(#cd_497)" preserveAspectRatio="none" x="256" y="558" width="52" height="53" xlink:href="img/14.jpg"/>
<path d="M427.9,573.8c13.2,0,23.8,-10.6,23.8,-23.8c0,-13.1,-10.6,-23.8,-23.8,-23.8c-13.1,0,-23.8,10.7,-23.8,23.8c0,13.2,10.7,23.8,23.8,23.8Z" class="gb_497"/>
<path d="M428.2,572.3v3.1m1.4,-3.2l.2,3.1m1.3,-3.2l.4,3m.9,-3.3l.7,3m.7,-3.3l.9,2.9m.5,-3.3l1,2.9m.4,-3.5l1.1,2.9m.2,-3.4l1.4,2.7m-.2,-3.4l1.6,2.6m-.3,-3.4l1.6,2.6m-.5,-3.4l1.9,2.4m-.8,-3.4l2,2.3m-.9,-3.2l2.2,2.1m-1.2,-3.2l2.3,2m-1.4,-3.1l2.4,1.9m-1.6,-3l2.6,1.6m-1.8,-2.9l2.6,1.5m-1.9,-2.8l2.7,1.4m-2.1,-2.6l2.8,1.1M449,557.3l2.9,1m-2.5,-2.4l2.9,.9m-2.6,-2.3l3,.7M450,553.1l3,.4m-2.9,-1.8l3.1,.2m-3,-1.7l3,.1m-3,-1.5l3,-.2M450,547.4l3.1,-.4m-3.3,-1.1l3,-.5m-3.3,-.9l3,-.7m-3.4,-.6l2.9,-1m-3.4,-.4l2.9,-1.1m-3.5,-.2l2.8,-1.3m-3.4,0l2.7,-1.5m-3.4,.3l2.5,-1.7m-3.4,.5l2.5,-1.8m-3.3,.7l2.3,-2m-3.3,.9l2.2,-2.1m-3.3,1.1l2.2,-2.2m-3.2,1.3l1.9,-2.4m-3.1,1.5l1.8,-2.5m-3,1.7l1.7,-2.6m-2.9,1.9l1.4,-2.7m-2.7,2.1l1.2,-2.8m-2.6,2.2l1.1,-2.8m-2.4,2.4l.8,-3m-2.2,2.6l.7,-3m-2.1,2.7l.5,-3m-1.9,2.8l.2,-3m-1.7,3l.1,-3.1m-1.5,3.1l-.1,-3.1m-1.4,3.1l-.2,-3m-1.1,3.2l-.6,-3m-.9,3.3l-.7,-3m-.7,3.4l-.8,-3m-.5,3.4l-1.1,-2.8m-.3,3.4l-1.2,-2.8m-.1,3.4l-1.4,-2.7m.2,3.4l-1.6,-2.6m.4,3.4l-1.8,-2.5m.6,3.4L412,530.3m.9,3.3l-2.1,-2.2m1,3.2l-2.2,-2.1m1.3,3.2l-2.4,-2m1.5,3.1L407.5,535m1.7,3l-2.6,-1.7m1.8,2.9l-2.6,-1.5m2,2.8L405,539.2m2.2,2.6l-2.8,-1.1m2.3,2.5l-2.9,-1m2.5,2.3l-3,-.7m2.7,2.1l-3,-.5m2.8,2l-3,-.4m2.9,1.8l-3.1,-.2m3,1.6l-3,.1m3.1,1.4l-3.1,.2m3.2,1.2l-3,.4m3.3,1l-3,.7m3.3,.7l-2.9,.9m3.4,.5l-2.9,1m3.4,.4l-2.9,1.1m3.5,.1l-2.8,1.4m3.4,-.1l-2.6,1.5m3.4,-.2l-2.6,1.6m3.4,-.5l-2.4,1.9m3.4,-.8l-2.3,2m3.3,-.9l-2.2,2.1m3.2,-1.2l-2,2.3m3.1,-1.3l-1.9,2.4m3,-1.6l-1.6,2.6m2.9,-1.8l-1.5,2.6M418,570l-1.4,2.7m2.6,-2.2l-1.1,2.9m2.5,-2.3l-1,2.9m2.4,-2.5l-.9,2.9m2.3,-2.6l-.7,3m2.1,-2.7l-.4,3m1.8,-2.9l-.2,3.1m1.7,-3l-.1,3.1" class="gc_497"/>
<image clip-path="url(#ce_497)" preserveAspectRatio="none" x="682" y="212" width="30" height="51" xlink:href="img/15.jpg"/>
<image clip-path="url(#cf_497)" preserveAspectRatio="none" x="673" y="510" width="30" height="50" xlink:href="img/16.jpg"/>
<g clip-path="url(#cg_497)">
<path d="M-4.5,13.7H-27.4m939.5,0H935M-4.5,1031.2H-27.4m939.5,0H935M13.7,-4.5V-27.4m0,1077v22.9m880,-1077V-27.4m0,1077v22.9" class="gd_497"/>
<path d="M-4.5,13.7H-27.4m939.5,0H935M-4.5,1031.2H-27.4m939.5,0H935M13.7,-4.5V-27.4m0,1077v22.9m880,-1077V-27.4m0,1077v22.9" class="ge_497"/>
</g>
</svg>