<?xml version="1.0" encoding="UTF-8" standalone="no"?>
<!DOCTYPE svg PUBLIC "-//W3C//DTD SVG 1.1//EN"
"http://www.w3.org/Graphics/SVG/1.1/DTD/svg11.dtd">
<svg viewBox="0 0 770 1017" version="1.1" xmlns="http://www.w3.org/2000/svg" xmlns:xlink="http://www.w3.org/1999/xlink">
<defs>
<style type="text/css"><![CDATA[
.g0_312{
fill: none;
stroke: #000000;
stroke-width: 0.618;
stroke-linecap: butt;
stroke-linejoin: miter;
}
.g1_312{
fill: none;
stroke: #000000;
stroke-width: 1.481;
stroke-linecap: butt;
stroke-linejoin: miter;
}
.g2_312{
fill: none;
stroke: #000000;
stroke-width: 0.369;
stroke-linecap: butt;
stroke-linejoin: miter;
}
.g3_312{
fill: none;
stroke: #000000;
stroke-width: 6.091;
stroke-linecap: butt;
stroke-linejoin: miter;
}
]]></style>
</defs>
<path d="M56,69.2H695.2" class="g0_312"/>
<path d="M286.7,104.5L246,111.9l-33.3,44.4l29.6,44.5h74L338.6,160L327.5,126.7Z" class="g1_312"/>
<path d="M246,111.9l-3.7,88.9m44.4,-96.3l-44.4,96.3m85.2,-74.1l-85.2,74.1m85.2,-74.1l-11.2,74.1" class="g2_312"/>
<path d="M486.7,104.5L446,111.9l-33.4,44.4l29.7,44.5h74L538.5,160L527.4,126.7Z" class="g1_312"/>
<path d="M446,111.9l-3.7,88.9m0,0l85.1,-74.1m0,0L446,111.9m-3.7,88.9L538.5,160" class="g2_312"/>
<path d="M65.1,255.8h621" class="g0_312"/>
<path d="M208.3,478.5v-9.2" class="g3_312"/>
</svg>