<?xml version="1.0" encoding="UTF-8" standalone="no"?>
<!DOCTYPE svg PUBLIC "-//W3C//DTD SVG 1.1//EN"
"http://www.w3.org/Graphics/SVG/1.1/DTD/svg11.dtd">
<svg viewBox="0 0 931 1096" version="1.1" xmlns="http://www.w3.org/2000/svg" xmlns:xlink="http://www.w3.org/1999/xlink">
<defs>
<clipPath id="c0_169"><path d="M108.5,233.3V97.6H318.2V233.3Z"/></clipPath>
<clipPath id="c1_169"><path d="M107,472.3V438.7H880v33.6Z"/></clipPath>
<clipPath id="c2_169"><path d="M158,918.8V763.9H435.2V918.8Z"/></clipPath>
<clipPath id="c3_169"><path d="M560.6,644.6V490.8H840.8V644.6Z"/></clipPath>
<style type="text/css"><![CDATA[
.g0_169{
fill: #FFF;
}
.g1_169{
fill: none;
stroke: #00AEEF;
stroke-width: 1.145;
}
.g2_169{
fill: none;
stroke: #00AEEF;
stroke-width: 0.763;
}
.g3_169{
fill: none;
stroke: #00AEEF;
stroke-width: 0.916;
stroke-linejoin: round;
}
.g4_169{
fill: #241F1F;
}
.g5_169{
fill: none;
stroke: #F9951B;
stroke-width: 0.763;
stroke-miterlimit: 50;
}
.g6_169{
fill: none;
stroke: #6AC48C;
stroke-width: 0.916;
stroke-linejoin: round;
}
.g7_169{
fill: none;
stroke: #241F1F;
stroke-width: 0.611;
stroke-miterlimit: 3;
}
.g8_169{
fill: none;
stroke: #EE008C;
stroke-width: 0.916;
stroke-linejoin: round;
}
.g9_169{
fill: none;
stroke: #89898B;
stroke-width: 0.534;
stroke-miterlimit: 3;
}
.ga_169{
fill: none;
stroke: #FFF;
stroke-width: 1.527;
}
.gb_169{
fill: none;
stroke: #00AEEF;
stroke-width: 0.763;
stroke-miterlimit: 10;
}
.gc_169{
fill: none;
stroke: #EE008C;
stroke-width: 0.916;
stroke-miterlimit: 3;
}
]]></style>
</defs>
<path d="M345.7,154.2c0,0,-3.1,0,-3.1,3.1V329.1c0,0,0,3.1,3.1,3.1H875.1c0,0,3,0,3,-3.1V157.3c0,0,0,-3.1,-3,-3.1Z" class="g0_169"/>
<path d="M361.9,165.1c0,0,-1.5,0,-1.5,1.5v14.2c0,0,0,1.5,1.5,1.5H376c0,0,1.6,0,1.6,-1.5V166.6c0,0,0,-1.5,-1.6,-1.5H361.9Z" class="g1_169"/>
<path d="M345.7,154.2c0,0,-3.1,0,-3.1,3.1V329.1c0,0,0,3.1,3.1,3.1H875.1c0,0,3,0,3,-3.1V157.3c0,0,0,-3.1,-3,-3.1H345.7Z" class="g2_169"/>
<path d="M110.8,200.1c82,13.1,143.8,-21.1,199.9,-93.5" class="g3_169"/>
<path clip-path="url(#c0_169)" fill-rule="evenodd" d="M313.4,213.2l-1.7,-2.4l6.6,2.4l-6.6,2.5Z" class="g4_169"/>
<path fill-rule="evenodd" d="M166.2,106.6l-2.4,1.6l2.4,-6.5l2.5,6.5Z" class="g4_169"/>
<path d="M278.6,143.5v69.7" class="g5_169"/>
<path d="M278.2,143.4H166.5" class="g6_169"/>
<path d="M166.2,233V106.6M108.5,213.2H313.4" class="g7_169"/>
<image clip-path="url(#c1_169)" preserveAspectRatio="none" x="107" y="439" width="773" height="33" xlink:href="img/1.png"/>
<path d="M302.6,768.4c-2.6,30.7,-4,51.2,-15.6,72.8c-4.5,8.5,-12.3,24,-28.2,23.6C236,864.1,213.6,803.9,158.3,806.1M306.9,768.4c0,54.7,15.5,65.6,23,73.1c8.2,8.2,9.4,66.1,9.4,73.4m3.9,0c0,0,8.2,-59.8,26.2,-60.5c0,0,10.8,-1,15.5,5.4c6.5,8.9,33.4,17.1,48.4,17.6" class="g8_169"/>
<path d="M176.6,914.9V768.2M195,914.9V768.2m18.3,146.7V768.2m18.3,146.7V768.2M250,914.9V768.2m18.3,146.7V768.2M305,914.9V768.2m18.3,146.7V768.2m18.3,146.7V768.2M360,914.9V768.2m18.3,146.7V768.2m18.3,146.7V768.2M415,914.9V768.2m18.3,146.7h-275m275,-18.3h-275m275,-18.4h-275m275,-18.3h-275m275,-36.7h-275m275,-18.3h-275m275,-18.3h-275m275,-18.4h-275" class="g9_169"/>
<path d="M298.4,857.4h13.8V843.7H298.4v13.7Z" class="g0_169"/>
<path d="M158.3,914.9h275V768.2h-275V914.9Z" class="g9_169"/>
<path d="M286.6,914.9V772.8" class="g7_169"/>
<path fill-rule="evenodd" d="M286.6,772.8l-2.4,1.7l2.4,-6.5l2.5,6.5Z" class="g4_169"/>
<path d="M158.3,841.8H428.7" class="g7_169"/>
<path fill-rule="evenodd" d="M428.7,841.8l-1.6,-2.5l6.5,2.5l-6.5,2.4Z" class="g4_169"/>
<path d="M275.6,830.5h9.2V816.8h-9.2v13.7Z" class="g0_169"/>
<path clip-path="url(#c2_169)" d="M440.7,768.8V914.7m-282.6,8.4H433.9" class="ga_169"/>
<path d="M521,1035.3H878.5" class="gb_169"/>
<path d="M579.2,640.2V493.5m18.3,146.7V493.5m18.3,146.7V493.5m18.4,146.7V493.5m18.3,146.7V493.5m18.3,146.7V493.5m36.7,146.7V493.5m18.3,147V493.9m18.4,146.3V493.5m18.3,146.7V493.5m18.3,146.7V493.5m18.4,146.7V493.5m18.3,146.7V493.5m18.3,146.7h-275m275,-18.4h-275m275,-18.3h-275m275,-18.3h-275m275,-36.7h-275m275,-18.3h-275m275,-18.4h-275m275,-18.3h-275" class="g9_169"/>
<path d="M701.8,582.7h13.8V569H701.8v13.7Z" class="g0_169"/>
<path d="M560.8,640.2h275V493.5h-275V640.2Z" class="g9_169"/>
<path d="M689.2,640.2V498.1" class="g7_169"/>
<path fill-rule="evenodd" d="M689.2,498.1l-2.5,1.6l2.5,-6.5l2.4,6.5Z" class="g4_169"/>
<path d="M560.8,567H831.2" class="g7_169"/>
<path fill-rule="evenodd" d="M831.2,567l-1.6,-2.4l6.5,2.4l-6.5,2.5Z" class="g4_169"/>
<path d="M678.2,555.8h9.1V542h-9.1v13.8Z" class="g0_169"/>
<path clip-path="url(#c3_169)" d="M843.3,494.1V640m-282.7,8.4H836.4" class="ga_169"/>
<path d="M691.1,640.2c0,0,6,-82.2,21.5,-82.2c13.7,0,11.6,82.1,11.6,82.1m-37.4,.1c-.4,-36.2,-2.6,-77.9,-15.5,-77.9c-20.7,0,-20.3,26.7,-37.1,28.8c-6.8,.9,-6,-5.1,-18.5,-5.6c-10.3,-.3,-11.1,3.5,-18.5,3.5c-7.3,0,-13.7,-3.4,-36.6,-3.1M727.4,493.5c0,15.1,10.6,53.3,24.3,53.3c13.8,0,13.4,-21.1,29.3,-21.1c7.7,0,7.3,8.6,18.9,8.6c11.7,0,10.4,-6.4,17.7,-6.4c7.3,0,8.1,3.9,18.1,3.9" class="gc_169"/>
</svg>