<?xml version="1.0" encoding="UTF-8" standalone="no"?>
<!DOCTYPE svg PUBLIC "-//W3C//DTD SVG 1.1//EN"
"http://www.w3.org/Graphics/SVG/1.1/DTD/svg11.dtd">
<svg viewBox="0 0 811 1017" version="1.1" xmlns="http://www.w3.org/2000/svg" xmlns:xlink="http://www.w3.org/1999/xlink">
<defs>
<clipPath id="c0_300"><path d="M142.4,680.4V536.3H647.3V680.4Z"/></clipPath>
<style type="text/css"><![CDATA[
.g0_300{
fill: #70A6CC;
}
.g1_300{
fill: #FFFFFF;
}
.g2_300{
fill: #494646;
}
.g3_300{
fill: #CEE9C3;
}
.g4_300{
}
.g5_300{
fill: #231F20;
}
]]></style>
</defs>
<path d="M142.4,102.4H710.7V80.6H142.4Z" class="g0_300"/>
<path d="M142.4,680.4H647.3V536.3H142.4Z" class="g1_300"/>
<g clip-path="url(#c0_300)">
<path d="M278.1,571.4h-135l-.3,-.2l-.1,-.2V536.7l.1,-.3l.3,-.1h135l.3,.1l.1,.3V571l-.1,.2l-.3,.2M143.5,537.1v33.5H277.7V537.1H143.5Z" class="g2_300"/>
<path d="M277.7,680.4h-135l-.2,-.1l-.2,-.3V645.7l.2,-.2l.2,-.1h135l.3,.1l.1,.2V680l-.1,.3l-.3,.1M143.1,646.1v33.5H277.3V646.1H143.1Z" class="g2_300"/>
</g>
<path d="M316.4,623.3H452.2V589.8H316.4Z" class="g3_300"/>
<path d="M452.5,624H316l-.3,-.1l-.1,-.3V589.4l.1,-.3l.3,-.1H452.5l.3,.1l.1,.3v34.2l-.1,.3l-.3,.1M316.4,589.8v33.5H452.2V589.8H316.4Z" class="g2_300"/>
<path d="M575.4,603.7h32.5v-6.1c0,-2,.9,-3.8,2.5,-4.9v-.5c0,-.8,.1,-1.6,.2,-2.3H575.4c-3.8,0,-6.9,3.1,-6.9,6.9c0,3.9,3.1,6.9,6.9,6.9Zm12.9,-8.6c1,0,1.7,.7,1.7,1.7c0,1,-.7,1.8,-1.7,1.8c-1,0,-1.8,-.8,-1.8,-1.8c0,-.9,.8,-1.7,1.8,-1.7Zm-5.4,0c1,0,1.8,.7,1.8,1.7c0,1,-.8,1.8,-1.8,1.8c-1,0,-1.7,-.8,-1.7,-1.8c0,-.9,.7,-1.7,1.7,-1.7Zm-7.1,-1.7c1.9,0,3.4,1.5,3.4,3.4c0,1.9,-1.5,3.4,-3.4,3.4c-1.9,0,-3.4,-1.5,-3.4,-3.4c0,-1.9,1.5,-3.4,3.4,-3.4Z" class="g4_300"/>
<path d="M589.1,635.5c0,-.8,.2,-1.6,.4,-2.3H573c-1.3,0,-2.3,1,-2.3,2.3c0,1.2,1,2.2,2.3,2.2h16.5c-.2,-.7,-.4,-1.5,-.4,-2.2Z" class="g4_300"/>
<path d="M624.5,635.5c0,-1.3,-1,-2.3,-2.2,-2.3H605.6c.2,.7,.3,1.5,.3,2.3c0,.7,-.1,1.5,-.3,2.2h16.7c1.2,0,2.2,-1,2.2,-2.2Z" class="g4_300"/>
<path d="M613.8,612.7h17.8c1.3,0,2.4,-1,2.4,-2.3V597.6c0,-1.3,-1.1,-2.4,-2.4,-2.4v-3c0,-4.9,-4,-8.8,-8.8,-8.8c-4.9,0,-8.8,3.9,-8.8,8.8v3h-.2c-1.3,0,-2.3,1.1,-2.3,2.4v12.8c0,1.2,1,2.3,2.3,2.3Zm10.3,-8.2c-.2,.2,-.2,.3,-.2,.5c0,.9,0,1.9,0,2.8c0,.4,-.2,.8,-.6,1c-.8,.4,-1.6,-.2,-1.6,-1c0,-.9,0,-1.8,0,-2.8c0,-.2,0,-.3,-.2,-.4c-.9,-.7,-1.1,-1.7,-.7,-2.7c.4,-.9,1.4,-1.4,2.3,-1.2c1.1,.2,1.8,1,1.9,2.1c0,.7,-.3,1.3,-.9,1.7Zm-6.3,-12.3c0,-2.7,2.3,-5,5,-5c2.7,0,5,2.2,5,5v3h-9.9v-3h-.1Z" class="g4_300"/>
<path d="M575.4,622h19.9v8.7c-1.8,.9,-3,2.7,-3,4.8c0,2.8,2.3,5.2,5.3,5.2c2.8,0,5.2,-2.3,5.2,-5.2c0,-2.1,-1.2,-3.9,-3,-4.8V622h21.1c3.5,0,6.3,-2.4,6.9,-5.7h-14c-3.3,0,-5.9,-2.7,-5.9,-5.9v-2.2H575.4c-3.8,0,-6.9,3.1,-6.9,6.9c0,3.8,3.1,6.9,6.9,6.9Zm12.9,-8.6c1,0,1.7,.8,1.7,1.7c0,1,-.7,1.8,-1.7,1.8c-1,0,-1.8,-.8,-1.8,-1.8c0,-.9,.8,-1.7,1.8,-1.7Zm-5.4,0c1,0,1.8,.8,1.8,1.7c0,1,-.8,1.8,-1.8,1.8c-1,0,-1.7,-.8,-1.7,-1.8c0,-.9,.7,-1.7,1.7,-1.7Zm-7.1,-1.7c1.9,0,3.4,1.6,3.4,3.4c0,1.9,-1.5,3.4,-3.4,3.4c-1.9,0,-3.4,-1.5,-3.4,-3.4c0,-1.8,1.5,-3.4,3.4,-3.4Z" class="g4_300"/>
<path d="M267.5,571.3l41.6,15.6l.3,-.7L267.8,570.6Z" class="g5_300"/>
<path d="M307.1,588.1l8.5,.9l-7,-5l-1.5,4.1Z" class="g5_300"/>
<path d="M263.9,646.1L309.5,627l-.3,-.7l-45.5,19.1Z" class="g5_300"/>
<path d="M308.8,629.3l6.8,-5.2l-8.5,1.1l1.7,4.1Z" class="g5_300"/>
<path d="M452.5,607.8h3.1V607h-3.1Z" class="g5_300"/>
<path d="M458.6,607.8h5.9V607h-5.9Zm8.9,0h5.9V607h-5.9Zm8.9,0h5.9V607h-5.9Zm8.9,0h5.9V607h-5.9Zm8.9,0h5.9V607h-5.9Zm8.9,0H509V607h-5.9Zm8.9,0h6V607h-6Zm8.9,0h6V607h-6Zm8.9,0h6V607h-6Zm8.9,0h6V607h-6Zm9,0h5.9V607h-5.9Z" class="g5_300"/>
<path d="M556.6,607.8h3V607h-3Z" class="g5_300"/>
<path d="M558.1,609.6l8.3,-2.2l-8.3,-2.2v4.4Z" class="g5_300"/>
</svg>