<?xml version="1.0" encoding="UTF-8" standalone="no"?>
<!DOCTYPE svg PUBLIC "-//W3C//DTD SVG 1.1//EN"
"http://www.w3.org/Graphics/SVG/1.1/DTD/svg11.dtd">
<svg viewBox="0 0 931 1096" version="1.1" xmlns="http://www.w3.org/2000/svg" xmlns:xlink="http://www.w3.org/1999/xlink">
<defs>
<clipPath id="c0_64"><path d="M591.9,389.3V357.4H720.6v31.9Z"/></clipPath>
<clipPath id="c1_64"><path d="M510.9,623.1V591h88.9v32.1Z"/></clipPath>
<style type="text/css"><![CDATA[
.g0_64{
fill: none;
stroke: #00AEEF;
stroke-width: 0.763;
}
.g1_64{
fill: none;
stroke: #241F1F;
stroke-width: 0.763;
stroke-miterlimit: 10;
}
.g2_64{
fill: #D0007A;
}
.g3_64{
fill: none;
stroke: #00AEEF;
stroke-width: 0.916;
stroke-linejoin: round;
}
.g4_64{
fill: none;
stroke: #241F1F;
stroke-width: 0.611;
stroke-miterlimit: 3;
}
.g5_64{
fill: #241F1F;
}
.g6_64{
fill: none;
stroke: #241F1F;
stroke-width: 0.381;
stroke-miterlimit: 3;
}
.g7_64{
fill: none;
stroke: #241F1F;
stroke-width: 0.763;
stroke-miterlimit: 3;
stroke-dasharray: 10,5;
}
.g8_64{
fill: none;
stroke: #00AEEF;
stroke-width: 1.069;
stroke-linejoin: round;
}
]]></style>
</defs>
<path d="M362.1,148.1c0,0,-3.1,0,-3.1,3.1v35.9c0,0,0,3,3.1,3H752.4c0,0,3.1,0,3.1,-3V151.2c0,0,0,-3.1,-3.1,-3.1H362.1Z" class="g0_64"/>
<path d="M576.4,315.4h27.5" class="g1_64"/>
<path clip-path="url(#c0_64)" d="M642.9,373.4H721" class="g1_64"/>
<path d="M507.3,468.2h12.2m93.8,0H628m122.4,0h22.4" class="g1_64"/>
<path clip-path="url(#c1_64)" d="M563.1,607.2h37.1" class="g1_64"/>
<path d="M288.8,807.7c0,0,-1.6,0,-1.6,1.5v9.2c0,0,0,1.5,1.6,1.5h9.1c0,0,1.6,0,1.6,-1.5v-9.2c0,0,0,-1.5,-1.6,-1.5Z" class="g2_64"/>
<path d="M288.8,960.5c0,0,-1.6,0,-1.6,1.5v9.2c0,0,0,1.5,1.6,1.5h9.1c0,0,1.6,0,1.6,-1.5V962c0,0,0,-1.5,-1.6,-1.5Z" class="g2_64"/>
<path d="M77.4,730.1c1,-22.5,2.1,-69.5,23.5,-82.5c21.4,-13,22.5,-59.9,23.5,-82.5m63,165c1,-22.5,2.1,-69.5,23.5,-82.5c21.4,-13,22.5,-59.9,23.5,-82.5m-102,165c1,-22.5,2.1,-69.5,23.5,-82.5c21.4,-13,22.5,-59.9,23.5,-82.5" class="g3_64"/>
<path d="M53.5,647.6H258.3" class="g4_64"/>
<path fill-rule="evenodd" d="M258.3,647.6l-1.7,-2.5l6.6,2.5l-6.6,2.4Z" class="g5_64"/>
<path d="M156,730.1v-165" class="g4_64"/>
<path fill-rule="evenodd" d="M156,565.1l-2.4,1.7l2.4,-6.6l2.4,6.6Z" class="g5_64"/>
<path d="M183.4,644.6v6.1" class="g4_64"/>
<path d="M179.3,665h8.9m44,-.2h13.4M126.4,665h8.8" class="g6_64"/>
<path d="M152.9,627h6.2M73.4,644.6v6.1m27.5,-6.1v6.1m27.5,-6.1v6.1m110,-6.1v6.1m-27.5,-6.1v6.1" class="g4_64"/>
<path d="M69,664.9H82.4" class="g6_64"/>
<path d="M238.4,565.1V640m0,90.1V681.2m-55,-116.1V640m0,90.1V681.2m-55,-116.1V640m0,90.1V681.2M73.4,565.1V640m0,90.1V681.2" class="g7_64"/>
<path d="M53.8,898.1C98,896.9,122.5,889.5,137.7,821m126.4,77.1C219.9,896.9,195.4,889.5,180.2,821" class="g8_64"/>
<path d="M102.7,886.3H107M117.7,897v4.2m-12.8,13.9v-93" class="g4_64"/>
<path fill-rule="evenodd" d="M104.9,822.1l-1.7,1.1l1.7,-4.5l1.7,4.5Z" class="g5_64"/>
<path d="M53.5,899.1H153" class="g4_64"/>
<path fill-rule="evenodd" d="M153,899.1l-1.1,-1.7l4.5,1.7l-4.5,1.7Z" class="g5_64"/>
<path d="M210.9,886.3h4.3M225.9,897v4.2M213,915.1v-93" class="g4_64"/>
<path fill-rule="evenodd" d="M213,822.1l-1.7,1.1l1.7,-4.5l1.7,4.5Z" class="g5_64"/>
<path d="M164.9,899.1h99.5" class="g4_64"/>
<path fill-rule="evenodd" d="M264.4,899.1l-1.2,-1.7l4.6,1.7l-4.6,1.7Z" class="g5_64"/>
</svg>