<?xml version="1.0" encoding="UTF-8" standalone="no"?>
<!DOCTYPE svg PUBLIC "-//W3C//DTD SVG 1.1//EN"
"http://www.w3.org/Graphics/SVG/1.1/DTD/svg11.dtd">
<svg viewBox="0 0 907 1045" version="1.1" xmlns="http://www.w3.org/2000/svg" xmlns:xlink="http://www.w3.org/1999/xlink">
<defs>
<clipPath id="c0_122"><path d="M106.5,493.2V197.1h77.6V493.2Z"/></clipPath>
<clipPath id="c1_122"><path d="M689.6,518.4V326.6H799.9V518.4Z"/></clipPath>
<clipPath id="c2_122"><path d="M92.6,587.3V518.6h173v68.7Z"/></clipPath>
<clipPath id="c3_122"><path d="M-2.6,1047.7V-2.6H910.2V1047.7Z"/></clipPath>
<style type="text/css"><![CDATA[
.g0_122{
fill: #FFFFFF;
}
.g1_122{
fill: none;
stroke: #000000;
stroke-width: 1.527;
stroke-linecap: butt;
stroke-linejoin: miter;
stroke-miterlimit: 4;
}
.g2_122{
fill: none;
stroke: #000000;
stroke-width: 1.031;
stroke-linecap: butt;
stroke-linejoin: miter;
stroke-miterlimit: 4;
}
.g3_122{
fill: none;
stroke: #000000;
stroke-width: 1.374;
stroke-linecap: butt;
stroke-linejoin: miter;
stroke-miterlimit: 4;
}
.g4_122{
}
.g5_122{
fill: #B5B5B5;
}
.g6_122{
fill: #333333;
}
.g7_122{
fill: #7B7B7B;
}
.g8_122{
fill: #8F8F8F;
}
.g9_122{
fill: #727272;
}
.ga_122{
fill: #C7C7C7;
}
.gb_122{
fill: #ABABAB;
}
.gc_122{
fill: #A7A7A7;
}
.gd_122{
fill: #E4E4E4;
}
.ge_122{
fill: #D2D2D2;
}
.gf_122{
fill: #CECECE;
}
.gg_122{
fill: #ECECEC;
}
.gh_122{
fill: #DCDCDC;
}
.gi_122{
fill: #DADADA;
}
.gj_122{
fill: #D5D5D5;
}
.gk_122{
fill: #3C3C3C;
}
.gl_122{
fill: none;
stroke: #000000;
stroke-width: 1.145;
stroke-linecap: butt;
stroke-linejoin: miter;
stroke-miterlimit: 4;
}
.gm_122{
fill: none;
stroke: #000000;
stroke-width: 0.763;
stroke-linecap: butt;
stroke-linejoin: miter;
stroke-miterlimit: 4;
}
.gn_122{
fill: none;
stroke: #FFFFFF;
stroke-width: 1.909;
stroke-linecap: butt;
stroke-linejoin: miter;
}
.go_122{
fill: none;
stroke: #000000;
stroke-width: 0.381;
stroke-linecap: butt;
stroke-linejoin: miter;
}
]]></style>
</defs>
<image clip-path="url(#c0_122)" preserveAspectRatio="none" x="106" y="197" width="78" height="296" xlink:href="img/1.jpg"/>
<path d="M208.1,167.1c.4,.4,.7,.8,1.1,1.2c-1,-2.8,-8.4,2.3,-9.9,4c-5.1,5.7,-4.4,11.5,5,14.8c-4.8,5.5,-3.5,13.5,-1.6,19.6c1.1,3.5,3.5,5.3,7.6,7.7c3.6,2.1,6.1,2.1,10.1,2.9c.3,8.6,16.5,14.1,28.5,13.1c5.3,-.4,7.1,-2.3,11.8,-3.5c4.9,-1.4,1.3,-.5,5.3,.3c1.6,.3,3.3,1,5,1.3c5.6,1.2,10.6,1,16.5,1.3c7.3,.4,13.4,-1.5,18.7,-4.6c2.2,-1.3,1.1,-2.1,4.5,-2c2.1,.2,4.6,2,6.6,2.4c7.4,1.7,18.6,-1,25.8,-2.3c3.5,-.6,7.7,-1.3,9.4,-3.8c1,-1.5,-.1,-2.9,.7,-4.5c4.1,1.4,5.6,.6,9.8,.2c4.5,-.4,8.8,-.2,13.1,-1.3c9,-2.3,20.5,-7.6,20.8,-14.4c.4,-1.4,.1,-2.7,-.9,-3.9c-1.1,-.2,-2.1,-.7,-2.8,-1.3c-.8,-2.1,1.2,-2.2,2.1,-3.7c4.9,-7.4,6.6,-14,1.8,-21.8c-3.2,-5.1,-9.7,-10.6,-17.3,-13.1c-3.7,-1.2,-2.4,.9,-4.7,-2.6c-1.9,-2.8,-3.6,-4.5,-6.7,-6.8c-3.8,-2.7,-7.8,-5.7,-12.4,-7.9c-4.8,-2.3,-9.6,-2.5,-15.3,-3.3c-3.6,-.6,-7,-1.7,-10.7,-.8c-2.9,.7,-4.6,3.5,-8.2,3.1c-1.8,-3.1,-6.4,-4,-10.7,-5.3c-7.1,-2.1,-15.4,-3.4,-23.3,-2c-6.6,1.2,-13.1,3.1,-17.9,6.4c-3,2.1,-6.1,7.6,-9.6,8.8c-10.9,-6.2,-26,-1,-35.3,3.4c-4.6,2.1,-10.3,4.5,-12,8.4c-.7,1.6,-2.8,7.3,-.2,7.7Z" class="g0_122"/>
<path d="M208.1,167.1c.4,.4,.7,.8,1.1,1.2c-1,-2.8,-8.4,2.3,-9.9,4c-5.1,5.7,-4.4,11.5,5,14.8c-4.8,5.5,-3.5,13.5,-1.6,19.6c1.1,3.5,3.5,5.3,7.6,7.7c3.6,2.1,6.1,2.1,10.1,2.9c.3,8.6,16.5,14.1,28.5,13.1c5.3,-.4,7.1,-2.3,11.8,-3.5c4.9,-1.4,1.3,-.5,5.3,.3c1.6,.3,3.3,1,5,1.3c5.6,1.2,10.6,1,16.5,1.3c7.3,.4,13.4,-1.5,18.7,-4.6c2.2,-1.3,1.1,-2.1,4.5,-2c2.1,.2,4.6,2,6.6,2.4c7.4,1.7,18.6,-1,25.8,-2.3c3.5,-.6,7.7,-1.3,9.4,-3.8c1,-1.5,-.1,-2.9,.7,-4.5c4.1,1.4,5.6,.6,9.8,.2c4.5,-.4,8.8,-.2,13.1,-1.3c9,-2.3,20.5,-7.6,20.8,-14.4c.4,-1.4,.1,-2.7,-.9,-3.9c-1.1,-.2,-2.1,-.7,-2.8,-1.3c-.8,-2.1,1.2,-2.2,2.1,-3.7c4.9,-7.4,6.6,-14,1.8,-21.8c-3.2,-5.1,-9.7,-10.6,-17.3,-13.1c-3.7,-1.2,-2.4,.9,-4.7,-2.6c-1.9,-2.8,-3.6,-4.5,-6.7,-6.8c-3.8,-2.7,-7.8,-5.7,-12.4,-7.9c-4.8,-2.3,-9.6,-2.5,-15.3,-3.3c-3.6,-.6,-7,-1.7,-10.7,-.8c-2.9,.7,-4.6,3.5,-8.2,3.1c-1.8,-3.1,-6.4,-4,-10.7,-5.3c-7.1,-2.1,-15.4,-3.4,-23.3,-2c-6.6,1.2,-13.1,3.1,-17.9,6.4c-3,2.1,-6.1,7.6,-9.6,8.8c-10.9,-6.2,-26,-1,-35.3,3.4c-4.6,2.1,-10.3,4.5,-12,8.4c-.7,1.6,-2.8,7.3,-.2,7.7" class="g1_122"/>
<image clip-path="url(#c1_122)" preserveAspectRatio="none" x="690" y="327" width="110" height="191" xlink:href="img/2.jpg"/>
<path d="M171.4,202.5c-1.8,.2,-2.6,1.3,-2,3.1c4.3,2.3,6.7,2.8,7.4,-2.9c-2.1,-.4,-4.3,-.2,-6.5,-.2" class="g2_122"/>
<path d="M183.2,192.9c-.6,.1,-1.1,.1,-1.6,.1c-.8,2,-1,4.4,1.1,5.4c2.1,1,2.9,-.7,5.1,-.5c1.2,-3.9,-1.5,-5.3,-4.6,-6" class="g3_122"/>
<path d="M524.8,227.2c-4.2,-.8,-7.2,-3.1,-11.5,-3.8c-9.6,-1.6,-18.3,.1,-26.5,3.8c-9.8,4.5,-17.9,13.8,-6.4,20.9c-29.9,0,-51.1,36.2,-17.9,46.6c-5,5.6,-7.9,6.4,-8,14.3c-.1,9.4,5.2,20.6,16.7,25.3c2,.8,4,-.2,5.9,1.4c1.7,1.5,-.3,2.5,.5,3.9c1.7,3.3,2.7,7.1,5.1,10.2c5.5,6.9,16.8,12.7,27.1,13.6c5,.5,10.6,0,15.2,-1.9c3.5,-1.3,5.8,-4.2,9.7,-4.8c2.1,4.8,9.7,4.7,14.9,5.7c12.4,2.4,25.7,8,38.6,8.1c6.1,0,15.2,-1,19.3,-4.7c2.1,-2,2.7,-10.3,6.7,-10.7c1.5,-.1,6.9,3.7,8.5,4c8.1,2,21.3,.7,29.4,-1c9,-2,26.5,-6,20.2,-15.7c4.2,-.7,8.8,.3,13.2,-.1c3.4,-.3,6.6,-1,9.6,-2.3c3.3,-.8,10.1,-1.7,13.1,-3.2c6.2,-3.1,11.8,-14.4,11.9,-20c.2,-9.5,-5.4,-9.1,-12.4,-14.2c2.8,-4.9,7.1,-6.8,7.9,-13c1.4,-11.8,-8.3,-21.9,-18.8,-29.4C683.1,250.4,666.2,237,648.6,244.1c6.1,-7.7,-12.3,-13.8,-19.6,-18.5c-8.9,-5.8,-16.2,-8.1,-27.1,-9.3c-10.4,-1.2,-10.5,-.9,-24,1.8c3.8,-.7,-23,1.5,-23.9,1c-.9,-.5,-27.3,9,-28.1,8.7Z" class="g0_122"/>
<path d="M524.8,227.2c-4.2,-.8,-7.2,-3.1,-11.5,-3.8c-9.6,-1.6,-18.3,.1,-26.5,3.8c-9.8,4.5,-17.9,13.8,-6.4,20.9c-29.9,0,-51.1,36.2,-17.9,46.6c-5,5.6,-7.9,6.4,-8,14.3c-.1,9.4,5.2,20.6,16.7,25.3c2,.8,4,-.2,5.9,1.4c1.7,1.5,-.3,2.5,.5,3.9c1.7,3.3,2.7,7.1,5.1,10.2c5.5,6.9,16.8,12.7,27.1,13.6c5,.5,10.6,0,15.2,-1.9c3.5,-1.3,5.8,-4.2,9.7,-4.8c2.1,4.8,9.7,4.7,14.9,5.7c12.4,2.4,25.7,8,38.6,8.1c6.1,0,15.2,-1,19.3,-4.7c2.1,-2,2.7,-10.3,6.7,-10.7c1.5,-.1,6.9,3.7,8.5,4c8.1,2,21.3,.7,29.4,-1c9,-2,26.5,-6,20.2,-15.7c4.2,-.7,8.8,.3,13.2,-.1c3.4,-.3,6.6,-1,9.6,-2.3c3.3,-.8,10.1,-1.7,13.1,-3.2c6.2,-3.1,11.8,-14.4,11.9,-20c.2,-9.5,-5.4,-9.1,-12.4,-14.2c2.8,-4.9,7.1,-6.8,7.9,-13c1.4,-11.8,-8.3,-21.9,-18.8,-29.4C683.1,250.4,666.2,237,648.6,244.1c6.1,-7.7,-12.3,-13.8,-19.6,-18.5c-8.9,-5.8,-16.2,-8.1,-27.1,-9.3c-10.4,-1.2,-10.5,-.9,-24,1.8c3.8,-.7,-23,1.5,-23.9,1c-.9,-.5,-27.3,9,-28.1,8.7m-406.6,432H714.1M119.3,707.9H714.1M119.2,764.8H714M119.2,812.9H714M119.3,870.3H714.1M117.8,918.5H712.6" class="g1_122"/>
<path d="M92.6,518.6v68.7h173V518.6H92.6Z" class="g0_122"/>
<path d="M145.4,572.2l-1.1,-.2l.4,.8l9.2,1.2l-6.5,-5.5l-.7,.5l-.5,.4l-.3,.7l-.3,.5l-.1,1.1l-.1,.5Z" class="g4_122"/>
<path d="M132.4,558.5v0l1.1,1.4l.9,1.3l.4,.8l.4,1l.2,.9l.1,.9l.1,.9l-.4,.8l-.4,.7l-.8,.9l-1.1,.5l-1.3,.5l12.7,2.9l-.3,-1.3l-.1,-1l.2,-1l.3,-.7l.3,-.5l.3,-.4l.4,-.3l2,1.7L143,563.9l-3.3,-3.7l-1.3,-1.7l-.8,-1.3l-.2,.3l-.2,.4l-.4,.4l-.6,.3l-.9,.2l-1.3,.1l-1.6,-.4Z" class="g5_122"/>
<path d="M144.3,572l1.1,.2l.1,-.5l.1,-1.1l.3,-.5l.3,-.7l.5,-.4l.7,-.5l-2,-1.7l-.4,.3l-.3,.4l-.3,.5l-.3,.7l-.2,1l.1,1l.3,1.3Z" class="g6_122"/>
<path d="M104.8,547v0l2.3,1.4l2.4,1.4l4.7,3.1l4.6,3.4l4.3,3.4l3.7,3l2.9,2.5l2.5,2.3l-.3,.5l.8,-.8l.7,-.8l.3,-1l.1,-1l-.1,-.9l-.3,-1l-.2,-.8l-.5,-1L131.6,559l-.9,-1.3l-1.2,-1.2l1.2,.4l1.2,.3l1.4,.3h1.2l2.2,-.3h.9l-1.8,-.5l-1.7,-.8l-3.8,-1.8l-4,-2l-4,-2.5l-3.8,-2.4L115,544.9l-5.2,-3.8l-1.5,.5l-1,.8l-.8,.6l-.7,.7l-.6,.9l-.2,.8l-.1,.8l-.1,.8Z" class="g7_122"/>
<path d="M131.4,569.2v0l.2,-.1l-.2,.1Z" class="g7_122"/>
<path d="M131.9,568v0l-.5,1.2l.2,-.1l1.3,-.5l1.1,-.5l.8,-.9l.4,-.7l.4,-.8l-.1,-.9l-.1,-.9l-.2,-.9l-.4,-1l-.4,-.8l-.9,-1.3l-1.1,-1.4l1.6,.4l1.3,-.1l.9,-.2l.6,-.3l.4,-.4l.2,-.4l.2,-.3h-.9l-2.2,.3h-1.2l-1.4,-.3l-1.2,-.3l-1.2,-.4l1.2,1.2l.9,1.3l1.1,1.7l.5,1l.2,.8l.3,1l.1,.9l-.1,1l-.3,1l-.7,.8l-.8,.8Z" class="g8_122"/>
<path d="M94.5,537.5v0l-.4,.9L94,539l.1,.8v.6l.3,1.1l.5,.8l.6,.8l.6,.5l.7,.4l1.4,.2l-.1,-1v-.9l.2,-.9l.3,-.8l.3,-.7l.4,-.5l.9,-1.1l1,-.8l.9,-.4l.8,-.4l.7,-.1l-1,-1l-.7,-.4l-.8,-.4l-.9,-.4l-1,-.1l-1.2,.2l-1.2,.3l-.8,.5l-.6,.6l-.5,.7l-.4,.9Z" class="g9_122"/>
<path d="M100.3,544.9v0l2.2,1l-.1,-.9l.1,-.8l.2,-.8l.5,-.9l.7,-.8l1,-.7l1.5,-.7l1.6,-.4l1.8,1.2l.6,-.1l-.4,-.5l-1.3,-1.4l-.9,-.7l-1.1,-.8l-1.3,-.6l-1.5,-.5l-.3,.1l.6,.9l-.9,.2l-.6,.3l-.7,.4l-.5,.4l-.4,.6l-.4,.4l-.4,1.1l-.2,1.2l-.1,1.1l.1,.9l.2,.8Z" class="ga_122"/>
<path d="M102.5,545.9v0l2.3,1.1l.1,-.8l.1,-.8l.2,-.8l.6,-.9l.7,-.7l.8,-.6l1,-.8l1.5,-.5L108,539.9l-1.6,.4l-1.5,.7l-1,.7l-.7,.8l-.5,.9l-.2,.8l-.1,.8l.1,.9Z" class="gb_122"/>
<path d="M98.2,544.2v0l2.1,.7l-.2,-.8l-.1,-.9l.1,-1.1l.2,-1.2l.4,-1.1l.4,-.4l.4,-.6l.5,-.4l.7,-.4l.6,-.3l.9,-.2l-.6,-.9l-.7,.1l-.8,.4l-.9,.4l-1,.8l-.9,1.1l-.5,.5l-.2,.7l-.3,.8l-.2,.9v.9l.1,1Z" class="gc_122"/>
<path d="M130.2,568.9h.1h-.1Z" class="gd_122"/>
<path d="M130.3,568.9v0l.4,.5l.7,-.2l-1.1,-.3Z" class="ge_122"/>
<path d="M105.2,548.9v0l1.9,1l1.9,1.2l3.9,2.7l4.1,3l3.6,3l3.3,3l2.8,2.5l3.6,3.6l.8,-.4l.8,-.5l.3,-.5l-2.5,-2.3l-2.9,-2.5l-3.7,-3l-4.3,-3.4l-4.6,-3.4l-4.7,-3.1l-2.4,-1.4L104.8,547l.1,1l.3,.9Z" class="g8_122"/>
<path d="M130.3,568.9l1.1,.3l.5,-1.2l-.8,.5l-.8,.4Z" class="g8_122"/>
<path d="M94.6,536.1v0l-1,2.6l-.8,2.6l.2,.9l.5,.8l.6,.6l.6,.6l.8,.6l.9,.5l.9,.2l1.1,.4l-.2,-1.7L96.8,544l-.7,-.4l-.6,-.5l-.6,-.8l-.5,-.8l-.3,-1.1v-.6L94,539l.1,-.6l.4,-.9l.4,-.9l.5,-.7l.6,-.6l.8,-.5l-1.3,.6l-.9,.7Z" class="gf_122"/>
<path d="M106.2,551.2v0l-.5,-.6l-.3,-.8l-.2,-.9l-2.3,-1.1l-.2,-.6l-.2,-.5v-.8l-2.2,-1l.2,.9l-1.2,.1h-.9l.1,.7l.8,.7l.6,.8l1,.8l1,.8l1.4,.7l1.4,.6l.7,.1l.8,.1Z" class="gg_122"/>
<path d="M102.9,547.8v0l2.3,1.1l-.3,-.9l-.1,-1l-2.3,-1.1v.8l.1,.5l.3,.6Z" class="gh_122"/>
<path d="M100.3,544.9v0l-2.1,-.7l.2,1.7h.9l1.2,-.1l-.2,-.9Z" class="gi_122"/>
<path clip-path="url(#c2_122)" d="M92.8,541.3v0l.8,-2.6l1,-2.6l-.6,.6l-.4,.6l-.5,.6l-.2,.6l-.1,.8l-.2,.7l.1,.7l.1,.6Z" class="gj_122"/>
<path d="M128.6,568.5v0L122.8,564l-5.9,-4.6l-6,-4.4l-3.1,-2l-3.1,-2l-.2,.5l1.5,.9l1.7,1.1l3,2.1l6.1,4.4l5.9,4.5l2.8,2.2l2.8,2.4l-.1,-.2l.4,-.4Z" class="gk_122"/>
<path d="M136.3,554v0l-6.6,-3.1l-6.5,-3.3L120,546l-3.1,-1.6l-3.2,-2l-3,-2l-.3,.6l3,1.9l3.2,1.9l3.1,1.8l3.2,1.6l6.7,3.2l6.4,3.1l.3,-.5Z" class="gk_122"/>
<path d="M106.3,552.6v0l-.9,-1l-.6,-1.1l-.3,-1.1l-.2,-1.4l.1,-1.4l.4,-1.3l.6,-1.4l.4,-.5l.5,-.5l1.1,-.9l1.2,-.6l1.2,-.4l1.4,-.5l-.3,-.6l-1.4,.5l-1.2,.5l-1.3,.8l-1.1,.9l-.6,.6l-.4,.6l-.6,1.3l-.5,1.5v1.6l.2,1.3l.3,1.3l.8,1.2l.4,.5l.4,.5l.4,-.4Z" class="gk_122"/>
<path d="M102.2,549.4v0l-.4,-1l-.4,-1l-.1,-.9l-.3,-1v-1.1l.2,-.9l.2,-1l.4,-1l.5,-.9l.5,-.8l.8,-.6l.7,-.5l.9,-.6l1,-.2l.8,-.2h1.1v-.6l-1,.1l-1.2,.2l-.9,.3l-1,.4l-.7,.5l-.9,.9l-.6,.8l-.6,.9l-.3,1l-.3,1.1v2.2l.1,1l.2,1l.3,1l.6,1.1l.4,-.2Z" class="gk_122"/>
<path d="M99.9,547v0l-.4,-1.6v-2.9l.2,-1.4l.4,-1l.4,-.7l.5,-.8l.6,-.6l.8,-.5l.6,-.5l1.7,-.9l-.3,-.5l-1.7,.9l-.7,.5l-.8,.6l-.6,.6l-.5,.8l-.5,.9l-.4,.9l-.2,1.5l-.2,1.6l.2,1.7l.4,1.6l.5,-.2Z" class="gk_122"/>
<path d="M107.8,538.3v0l-1.9,-1.6L104.1,535l-.3,.4l1.8,1.7l1.8,1.6l.4,-.4Z" class="gk_122"/>
<path d="M103.4,549.2v0L101,547.8l-2.5,-1.2l-.2,.5l2.4,1.3l2.4,1.3l.3,-.5Z" class="gk_122"/>
<path d="M97.6,545.6v0l-1.2,-.7l-1.3,-1l-.6,-.6l-.4,-.5l-.4,-.8l-.1,-.7l-.2,-1.2V539l.3,-1.1l.5,-.9l.8,-1l1,-.7l.9,-.6l1.1,-.4l1.3,-.3h1l1.3,.3l1.1,.3l.2,-.5l-1.2,-.4l-1.2,-.2l-1.3,.1l-1.3,.1l-1.3,.5l-1,.6l-1,.8l-.8,1l-.4,.7l-.2,.7l-.3,.7v.7l-.1,1.4l.4,1.5l.3,.7l.5,.6l1,1l1.1,.8l1.4,.7l.1,-.5Z" class="gk_122"/>
<path d="M134.1,558.1v0l-3.4,-1.8l-3.4,-1.7l-3.4,-1.9l-3.3,-1.9l-6.4,-4.2l-6.3,-4.2l-.3,.5l6.4,4.2l6.5,4.2l3.1,1.9l3.3,1.9l3.5,1.8l3.4,1.7l.3,-.5Z" class="gk_122"/>
<path d="M138.7,557.4v0l-1.2,.2l-1.3,.2l-2.4,.3v.7l2.6,-.4l1.3,-.2l1.2,-.3l-.2,-.5Z" class="gk_122"/>
<path d="M155.8,574.6v0l-6,-1.4l-6.2,-1l-6,-1.1l-6.2,-.8v.4l6,.9l6.2,1.1l6.1,1.2l6,1.3l.1,-.6Z" class="gk_122"/>
<path d="M156,573.9v0l-4.7,-4.3l-4.5,-4.7l-4.3,-4.7l-4.2,-4.9l-.4,.3l4.1,5l4.3,4.8L151,570l4.6,4.3l.4,-.4Z" class="gk_122"/>
<path d="M147.5,572.6v0l-.4,-.7l-.2,-.9v-1.6l.4,-.8l.4,-.7l.5,-.7l.6,-.5l-.3,-.5l-.7,.6l-.6,.8l-.5,.8l-.2,.9l-.3,.8l.2,1.1l.2,.9l.3,.8l.6,-.3Z" class="gk_122"/>
<path d="M728.1,321.1c.1,-.2,4.6,-.4,5.2,.7c.8,1.4,.7,2.6,.2,4.2c-.6,2.1,-1.4,2.8,-3.1,3.1c-.6,.1,-1.9,.3,-2.4,0c-.4,-.3,-1,-.5,-1.3,-.7c-.3,-.2,-.7,-1.8,-.5,-1c.2,-2.6,.7,-5,2.1,-6.4Z" class="g0_122"/>
<path d="M728.1,321.1c.1,-.2,4.6,-.4,5.2,.7c.8,1.4,.7,2.6,.2,4.2c-.6,2.1,-1.4,2.8,-3.1,3.1c-.6,.1,-1.9,.3,-2.4,0c-.4,-.3,-1,-.5,-1.3,-.7c-.3,-.2,-.7,-1.8,-.5,-1c.2,-2.6,.7,-5,2.1,-6.4" class="gl_122"/>
<path d="M742.2,329.7c1.7,.4,2.1,3.6,.9,4.6c-.9,.7,-2.7,.4,-3.7,0c-.1,0,-.6,-.8,-.6,-.9c0,-.4,-.2,-1.3,0,-1.6c.3,-.9,.9,-1.6,1.7,-1.9c.3,-.1,.6,-.1,.8,-.2c.2,0,.3,-.1,.4,-.1c.1,0,.2,.1,.3,.1c0,0,.1,0,.2,.1Z" class="g0_122"/>
<path d="M742.2,329.7c1.7,.4,2.1,3.6,.9,4.6c-.9,.7,-2.7,.4,-3.7,0c-.1,0,-.6,-.8,-.6,-.9c0,-.4,-.2,-1.3,0,-1.6c.3,-.9,.9,-1.6,1.7,-1.9c.3,-.1,.6,-.1,.8,-.2c.2,0,.3,-.1,.4,-.1c.1,0,.2,.1,.3,.1c0,0,.1,0,.2,.1" class="gm_122"/>
<g clip-path="url(#c3_122)">
<path d="M-4.5,13.7H-27.4m939.5,0H935M-4.5,1031.2H-27.4m939.5,0H935M13.7,-4.5V-27.4m0,1077v22.9m880,-1077V-27.4m0,1077v22.9" class="gn_122"/>
<path d="M-4.5,13.7H-27.4m939.5,0H935M-4.5,1031.2H-27.4m939.5,0H935M13.7,-4.5V-27.4m0,1077v22.9m880,-1077V-27.4m0,1077v22.9" class="go_122"/>
</g>
</svg>