<?xml version="1.0" encoding="UTF-8" standalone="no"?>
<!DOCTYPE svg PUBLIC "-//W3C//DTD SVG 1.1//EN"
"http://www.w3.org/Graphics/SVG/1.1/DTD/svg11.dtd">
<svg viewBox="0 0 907 1045" version="1.1" xmlns="http://www.w3.org/2000/svg" xmlns:xlink="http://www.w3.org/1999/xlink">
<defs>
<clipPath id="c0_129"><path d="M236,668.3V575.2h69.5l-4.3,5.9l.9,.6l4.8,-6.5h64v93.1Z"/></clipPath>
<clipPath id="c1_129"><path d="M302.1,581.7l-.9,-.6l4.3,-5.9h1.4l-4.8,6.5Z"/></clipPath>
<clipPath id="c2_129"><path d="M340.9,528.7l1.5,-2l2.8,2Zm-41.6,0V435.6H434.2v93.1H382.6L379.9,525l-1,.7l2.2,3H348.7l-1,-8.9l-.1,-.6l-.6,.1l-11,1.5l-1.4,.1l1.2,.9l5.7,4.2l-2.1,2.7Z"/></clipPath>
<clipPath id="c3_129"><path d="M339.4,528.7l2.1,-2.7l.9,.7l-1.5,2Z"/></clipPath>
<clipPath id="c4_129"><path d="M347.2,528.7l-9.6,-7l9,-1.2l1,8.2Z"/></clipPath>
<clipPath id="c5_129"><path d="M345.2,528.7l-2.8,-2l.4,-.5l3.4,2.5Zm2.9,0l-1,-8.8l-11,1.4l5.7,4.2l-.3,.5l-5.7,-4.2l-1.2,-.9l1.4,-.1l11,-1.5l.6,-.1l.1,.6l1,8.9Z"/></clipPath>
<clipPath id="c6_129"><path d="M342.4,526.7l-.9,-.7l.3,-.5l1,.7l-.4,.5Z"/></clipPath>
<clipPath id="c7_129"><path d="M346.2,528.7l-3.4,-2.5l-1,-.7l-5.7,-4.2l11,-1.4l1,8.8h-.5l-1,-8.2l-9,1.2l9.6,7Z"/></clipPath>
<clipPath id="c8_129"><path d="M381.1,528.7l-2.2,-3l1,-.7l2.7,3.7Z"/></clipPath>
<clipPath id="c9_129"><path d="M386.2,673.5V575.2h28.9l5.3,7.3l1,-.7l-4.8,-6.6H521.1v98.3H465l-6,-8.2l-.9,.7l5.4,7.5H428.2l5.5,-7.5l-.9,-.7l-6,8.2Z"/></clipPath>
<clipPath id="ca_129"><path d="M420.4,582.5l-5.3,-7.3h1.5l4.8,6.6l-1,.7Z"/></clipPath>
<clipPath id="cb_129"><path d="M426.8,673.5l6,-8.2l.9,.7l-5.5,7.5Z"/></clipPath>
<clipPath id="cc_129"><path d="M463.5,673.5L458.1,666l.9,-.7l6,8.2Z"/></clipPath>
<clipPath id="cd_129"><path d="M517.7,851.6c-.2,-.1,-.3,-.3,-.4,-.4c0,0,.1,-.1,.2,-.2c0,.2,.1,.4,.2,.6Zm-5.4,.6c.5,-.3,.9,-.6,1.4,-.9c.6,-.4,1.2,-.7,1.8,-.9c-.1,.1,-.2,.3,-.2,.4c-.4,.4,-.9,.7,-1.3,.9c-.5,.2,-1.1,.4,-1.7,.5Zm-50.5,8.7V715.7h32.6l5.2,7.1l.9,-.7l-4.6,-6.4H596.7v41.7c-1,.5,-2,1,-3.2,1.4c-2.2,.7,-4.4,.8,-6.6,.9c-2.3,0,-4.6,0,-7,.5c-2.7,.5,-5,1.5,-7.2,2.2c-2.3,.8,-4.4,1.4,-6.8,1.4c-.5,0,-1.1,-.1,-1.6,-.1c.7,-.7,1.6,-1.3,2.5,-2c1.3,-1.1,2.7,-2.4,3.5,-4.1l-1.3,-.8c-1.1,1.4,-2.4,1.9,-3.8,2.4c-1.4,.6,-2.9,1.1,-4.1,2.6c-.6,.8,-.9,1.7,-.9,2.5c0,.8,.3,1.6,.7,2.2c.7,.9,1.7,1.6,2.7,2.4c.4,.3,.8,.6,1.2,.9c.5,.5,1.1,.9,1.7,1.3l.9,-1.3c-.5,-.4,-1,-.8,-1.6,-1.2c-.5,-.5,-.9,-1.2,-1.3,-1.9c-.3,-.5,-.6,-1,-.9,-1.6c.8,.1,1.6,.2,2.3,.2c2.6,0,5,-.7,7.3,-1.4c2.2,-.8,4.5,-1.7,7,-2.2c2.2,-.5,4.4,-.5,6.7,-.5c2.3,-.1,4.6,-.2,7,-1c1.1,-.3,2,-.7,2.8,-1.1V860.9H518c0,-.1,0,-.3,0,-.5c0,-.3,0,-.5,0,-.7c0,-1,0,-1.9,0,-2.7c0,-.7,0,-1.3,.2,-1.8c0,-.1,.1,-.3,.3,-.5c.1,-.3,.4,-.6,.5,-1v-.3c.3,.2,.5,.4,.8,.6c.6,.4,1.1,.8,1.6,1.2v.5l-.1,.3l.1,.3c.2,.4,.6,.8,1,.9c.4,.5,.7,.9,1.3,1.3l.9,-1.3c-.4,-.3,-.7,-.6,-1.1,-1.1l-.2,-.3h-.4c.1,-.1,.1,-.2,.1,-.3c0,-.4,-.1,-.7,-.3,-1l-.1,-.1v-.1c-.8,-.9,-1.8,-1.4,-2.5,-2c-.4,-.3,-.7,-.6,-.8,-.9c-.2,-.3,-.3,-.6,-.3,-1c0,-.2,0,-.4,0,-.6l.3,-1.3l-.6,.2l-.1,-.3l-.4,-.1c-.2,0,-.4,0,-.6,0c-1.5,0,-3.1,.8,-4.7,1.7c-1.5,.9,-2.9,2,-3.7,2.9l-1.6,1.7l2.3,-.4c1.4,-.3,3.1,-.4,4.7,-1.1c.5,-.3,1,-.6,1.5,-.9c.3,.3,.7,.7,1,1c.1,.1,.2,.2,.3,.3c0,.1,-.1,.2,-.2,.3c-.1,.2,-.3,.5,-.5,.9c-.2,.8,-.3,1.6,-.3,2.3c0,.9,.1,1.8,.1,2.7c0,.2,0,.4,0,.6c0,.2,0,.4,-.1,.6Z"/></clipPath>
<clipPath id="ce_129"><path d="M517.7,851.6c-.1,-.2,-.2,-.4,-.2,-.6c-.1,.1,-.2,.2,-.2,.2c.1,.1,.2,.3,.4,.4Zm-5.4,.6c.6,-.1,1.2,-.3,1.7,-.5c.4,-.2,.9,-.5,1.3,-.9c0,-.1,.1,-.3,.2,-.4c-.6,.2,-1.2,.5,-1.8,.9c-.5,.3,-.9,.6,-1.4,.9Zm4.1,8.7c.1,-.2,.1,-.4,.1,-.6c0,-.2,0,-.4,0,-.6c0,-.9,-.1,-1.8,-.1,-2.7c0,-.7,.1,-1.5,.3,-2.3c.2,-.4,.4,-.7,.5,-.9c.1,-.1,.2,-.2,.2,-.3c-.1,-.1,-.2,-.2,-.3,-.3c-.3,-.3,-.7,-.7,-1,-1c-.5,.3,-1,.6,-1.5,.9c-1.6,.7,-3.3,.8,-4.7,1.1l-2.3,.4l1.6,-1.7c.8,-.9,2.2,-2,3.7,-2.9c1.6,-.9,3.2,-1.7,4.7,-1.7c.2,0,.4,0,.6,0l.4,.1l.1,.3l.6,-.2l-.3,1.3c0,.2,0,.4,0,.6c0,.4,.1,.7,.3,1c.1,.3,.4,.6,.8,.9c.7,.6,1.7,1.1,2.5,2v.1l.1,.1c.2,.3,.3,.6,.3,1c0,.1,0,.2,-.1,.3q.1,0,.1,0h.3l.2,.3c.4,.5,.7,.8,1.1,1.1l-.9,1.3c-.6,-.4,-.9,-.8,-1.3,-1.3c-.4,-.1,-.8,-.5,-1,-.9l-.1,-.3l.1,-.3v-.5c-.5,-.4,-1,-.8,-1.6,-1.2c-.3,-.2,-.5,-.4,-.8,-.6v.3c-.1,.4,-.4,.7,-.5,1c-.2,.2,-.3,.4,-.3,.5c-.2,.5,-.2,1.1,-.2,1.8c0,.8,0,1.7,0,2.7c0,.2,0,.4,0,.7c0,.2,0,.4,0,.5Z"/></clipPath>
<clipPath id="cf_129"><path d="M562.5,763.3c-.1,-.1,-.2,-.3,-.3,-.4c.1,0,.1,-.1,.2,-.2c.7,-1,1.7,-1.4,3,-1.9c-1,.8,-2.1,1.6,-2.9,2.5Z"/></clipPath>
<clipPath id="cg_129"><path d="M562.5,763.3c.8,-.9,1.9,-1.7,2.9,-2.5c-1.3,.5,-2.3,.9,-3,1.9c-.1,.1,-.1,.2,-.2,.2c.1,.1,.2,.3,.3,.4Zm4,7.8c-.6,-.4,-1.2,-.8,-1.7,-1.3c-.4,-.3,-.8,-.6,-1.2,-.9c-1,-.8,-2,-1.5,-2.7,-2.4c-.4,-.6,-.7,-1.4,-.7,-2.2c0,-.8,.3,-1.7,.9,-2.5c1.2,-1.5,2.7,-2,4.1,-2.6c1.4,-.5,2.7,-1,3.8,-2.4l1.3,.8c-.8,1.7,-2.2,3,-3.5,4.1c-.9,.7,-1.8,1.3,-2.5,2c.5,0,1.1,.1,1.6,.1c2.4,0,4.5,-.6,6.8,-1.4c2.2,-.7,4.5,-1.7,7.2,-2.2c2.4,-.5,4.7,-.5,7,-.5c2.2,-.1,4.4,-.2,6.6,-.9c1.2,-.4,2.2,-.9,3.2,-1.4v1.7c-.8,.4,-1.7,.8,-2.8,1.1c-2.4,.8,-4.7,.9,-7,1c-2.3,0,-4.5,0,-6.7,.5c-2.5,.5,-4.8,1.4,-7,2.2c-2.3,.7,-4.7,1.4,-7.3,1.4c-.7,0,-1.5,-.1,-2.3,-.2c.3,.6,.6,1.1,.9,1.6c.4,.7,.8,1.4,1.3,1.9c.6,.4,1.1,.8,1.6,1.2l-.9,1.3Z"/></clipPath>
<clipPath id="ch_129"><path d="M499.6,722.8l-5.2,-7.1h1.5l4.6,6.4l-.9,.7Z"/></clipPath>
<clipPath id="ci_129"><path d="M321.8,861.4V715.1h74.5l-5,7l.9,.7l5.6,-7.7h59V861.4Z"/></clipPath>
<clipPath id="cj_129"><path d="M392.2,722.8l-.9,-.7l5,-7h1.5l-5.6,7.7Z"/></clipPath>
<clipPath id="ck_129"><path d="M-2.6,1047.7V-2.6H910.2V1047.7Z"/></clipPath>
<style type="text/css"><![CDATA[
.g0_129{
fill: #E0E0E0;
}
.g1_129{
fill: none;
stroke: #000000;
stroke-width: 1.368;
stroke-linecap: butt;
stroke-linejoin: miter;
stroke-miterlimit: 4;
}
.g2_129{
}
.g3_129{
fill: #FFFFFF;
}
.g4_129{
fill: none;
stroke: #000000;
stroke-width: 0.492;
stroke-linecap: butt;
stroke-linejoin: miter;
stroke-miterlimit: 4;
}
.g5_129{
fill: none;
stroke: #000000;
stroke-width: 0.656;
stroke-linecap: butt;
stroke-linejoin: miter;
stroke-miterlimit: 4;
}
.g6_129{
fill: none;
stroke: #000000;
stroke-width: 0.939;
stroke-linecap: butt;
stroke-linejoin: miter;
stroke-miterlimit: 4;
}
.g7_129{
fill: none;
stroke: #000000;
stroke-width: 1.527;
stroke-linecap: butt;
stroke-linejoin: miter;
stroke-miterlimit: 4;
}
.g8_129{
fill: #636363;
}
.g9_129{
fill: none;
stroke: #636363;
stroke-width: 1.527;
stroke-linecap: butt;
stroke-linejoin: miter;
stroke-miterlimit: 4;
}
.ga_129{
fill: none;
stroke: #FFFFFF;
stroke-width: 1.909;
stroke-linecap: butt;
stroke-linejoin: miter;
}
.gb_129{
fill: none;
stroke: #000000;
stroke-width: 0.381;
stroke-linecap: butt;
stroke-linejoin: miter;
}
]]></style>
</defs>
<path d="M162.5,205.9v91.4H471.7V205.9H162.5Z" class="g0_129"/>
<path d="M162.5,205.9v91.4H471.7V205.9H162.5Z" class="g1_129"/>
<path d="M302.1,581.7L343.7,525l-1,-.7l-41.5,56.8l.9,.6Z" class="g2_129"/>
<path d="M347.1,519.9l-11,1.4l12.2,8.9l-1.2,-10.3Z" class="g3_129"/>
<path d="M347.1,519.9l-.1,-.6l-11,1.5l-1.4,.1l1.2,.9l12.2,8.9l1,.8l-.1,-1.3l-1.2,-10.4l-.1,-.6l-.6,.1l.1,.6h-.6l1.2,10.4l.6,-.1l.4,-.4l-12.2,-8.9l-.4,.4l.1,.6l11,-1.5l-.1,-.5h-.6h.6Z" class="g2_129"/>
<image clip-path="url(#c0_129)" preserveAspectRatio="none" x="236" y="575" width="135" height="94" xlink:href="img/1.jpg"/>
<image clip-path="url(#c1_129)" preserveAspectRatio="none" x="301" y="575" width="6" height="7" xlink:href="img/2.jpg"/>
<path d="M241.8,581v72.5H356.6V581H241.8Z" class="g3_129"/>
<path d="M241.8,581v72.5H356.6V581H241.8Z" class="g4_129"/>
<path d="M241.8,597.5H357.7" class="g5_129"/>
<image clip-path="url(#c2_129)" preserveAspectRatio="none" x="299" y="435" width="136" height="94" xlink:href="img/3.jpg"/>
<image clip-path="url(#c3_129)" preserveAspectRatio="none" x="339" y="525" width="4" height="4" xlink:href="img/4.jpg"/>
<image clip-path="url(#c4_129)" preserveAspectRatio="none" x="337" y="520" width="11" height="9" xlink:href="img/5.jpg"/>
<image clip-path="url(#c5_129)" preserveAspectRatio="none" x="334" y="519" width="15" height="10" xlink:href="img/6.jpg"/>
<image clip-path="url(#c6_129)" preserveAspectRatio="none" x="341" y="525" width="2" height="2" xlink:href="img/7.jpg"/>
<image clip-path="url(#c7_129)" preserveAspectRatio="none" x="336" y="520" width="12" height="9" xlink:href="img/8.jpg"/>
<image clip-path="url(#c8_129)" preserveAspectRatio="none" x="378" y="525" width="5" height="4" xlink:href="img/9.jpg"/>
<path d="M305.1,441.4v72.5H419.9V441.4H305.1Z" class="g3_129"/>
<path d="M305.1,441.4v72.5H419.9V441.4H305.1Z" class="g4_129"/>
<path d="M305,457.9H421" class="g5_129"/>
<path d="M420.4,582.5L378.9,525.7l1,-.7l41.5,56.8l-1,.7Z" class="g2_129"/>
<path d="M375.5,520.6l10.9,1.5L374.3,531l1.2,-10.4Z" class="g3_129"/>
<path d="M375.5,520.6l10.9,1.5L374.3,531l1.2,-10.4Z" class="g6_129"/>
<image clip-path="url(#c9_129)" preserveAspectRatio="none" x="386" y="575" width="135" height="99" xlink:href="img/10.jpg"/>
<image clip-path="url(#ca_129)" preserveAspectRatio="none" x="415" y="575" width="7" height="8" xlink:href="img/11.jpg"/>
<image clip-path="url(#cb_129)" preserveAspectRatio="none" x="426" y="665" width="8" height="9" xlink:href="img/12.jpg"/>
<image clip-path="url(#cc_129)" preserveAspectRatio="none" x="458" y="665" width="7" height="9" xlink:href="img/13.jpg"/>
<path d="M392,581v77.5H506.8V581H392Z" class="g3_129"/>
<path d="M392,581v77.5H506.8V581H392Z" class="g4_129"/>
<path d="M391.9,597.5h116" class="g5_129"/>
<path d="M509.6,593.3c69,-9.1,119.2,-37.3,119.2,-70.7c0,-40.8,-74.7,-73.8,-166.9,-73.8c-12,0,-21.4,.3,-32.7,1.4m11.8,3.1l-11.8,-3.1l11,-5.2" class="g7_129"/>
<path d="M515.9,878.4c.6,-1,1,-2.1,1.2,-3.2l.1,-.1l-.1,-.1c0,-.2,0,-.6,0,-1.2c-.1,-1.7,-.2,-4.6,-.3,-5.3v-.2c-.1,-.4,-.5,-.6,-.9,-.5c-.3,.1,-.6,.4,-.6,.7v.1c0,.1,.1,.8,.1,1.6c0,.3,0,.7,.1,1c0,.1,0,.2,0,.3v.3l.1,.2l.2,.2c.1,.1,.3,.1,.5,.1c.2,0,.4,-.1,.6,-.2c.1,-.2,.1,-.3,.1,-.3v-.1c.1,-.5,.2,-1.2,.2,-1.9c0,-.5,-.1,-1,-.1,-1.4l-.8,.1h.8c0,-.3,.1,-.8,.1,-1.3c0,-.2,-.1,-.5,-.1,-.8c-.1,-.2,-.3,-.5,-.5,-.7l-.5,.6l.7,-.1c0,-.4,-.1,-.7,-.1,-.9l-.1,-.1l-.4,.2l.4,-.2l-.4,.2l.4,-.2l-.5,.2h.6l-.1,-.2l-.5,.2h.6h-.4l.4,.1v-.1h-.4l.4,.1c0,-.1,0,-.2,.1,-.5c.3,-1.5,1.1,-2.8,1.2,-4.6c0,-.3,0,-.5,0,-.7c0,-1,0,-1.9,0,-2.7c0,-.7,0,-1.3,.2,-1.8c0,-.1,.1,-.3,.3,-.5c.1,-.3,.4,-.6,.5,-1v-.3c0,-.3,-.1,-.5,-.2,-.6c-.2,-.2,-.4,-.4,-.6,-.7c-.3,-.3,-.7,-.7,-1,-1c-.2,-.1,-.3,-.2,-.4,-.3v-.1l-.4,.3h.4c0,-.2,0,-.3,0,-.3l-.4,.3h.4v-.1l-.5,.1h.5v-.1l-.5,.1h.5h-.1l.1,.1V851h-.1l.1,.1V851v.1V851v.1c0,0,.1,-.1,.3,-.2c.2,-.1,.5,-.3,.9,-.4c.2,-.1,.3,-.2,.5,-.4c.2,-.2,.4,-.5,.4,-.9c0,-.1,-.1,-.2,-.1,-.4l-.2,-.4l-.4,-.1c-.2,0,-.4,0,-.6,0c-1.5,0,-3.1,.8,-4.7,1.7c-1.5,.9,-2.9,2,-3.7,2.9l-1.6,1.7l2.3,-.4c1.4,-.3,3.1,-.4,4.7,-1.1c.9,-.4,1.5,-1,2.2,-1.5c.6,-.5,1.2,-.9,1.8,-1.2l-.3,-.7l-.8,-.1c0,.3,0,.5,0,.8c-.1,.7,.1,1.3,.5,1.8c.4,.8,1.1,1.3,1.8,1.8c.6,.4,1.2,.9,1.6,1.3l.6,-.5l-.7,.4l.1,.3v.2l-.1,.3l.1,.3c.3,.5,.8,.9,1.4,1l.1,-.8l-.6,.5c.4,.5,.7,1,1.4,1.5l.9,-1.3c-.4,-.3,-.7,-.6,-1.1,-1.1l-.2,-.3H523c-.1,-.1,-.1,0,-.2,-.2l-.7,.4l.7,.2c.1,-.2,.2,-.5,.2,-.7c0,-.4,-.1,-.7,-.3,-1l-.1,-.1v-.1c-.8,-.9,-1.8,-1.4,-2.5,-2c-.4,-.3,-.7,-.6,-.8,-.9c-.2,-.3,-.3,-.6,-.3,-1c0,-.2,0,-.4,0,-.6l.3,-1.3L518,849c-.9,.4,-1.6,.9,-2.2,1.4c-.6,.5,-1.2,1,-1.8,1.3c-1.3,.6,-2.8,.7,-4.4,.9l.2,.8l.5,.5c.6,-.7,2,-1.8,3.4,-2.6c1.4,-.9,3,-1.5,3.9,-1.5h.4l.1,-.7l-.7,.2l.2,-.1h-.3l.1,.1l.2,-.1h-.3h.4l-.3,-.2l-.1,.2h.4l-.3,-.2l.1,.1l-.1,-.1l.1,.1l-.1,-.1c0,0,-.1,.1,-.3,.2c-.3,.1,-.6,.2,-1,.5c-.1,.1,-.3,.2,-.5,.4c-.2,.2,-.3,.5,-.3,.9h.8h-.8c0,.2,.1,.3,.1,.4c.2,.3,.4,.5,.6,.7c.3,.4,.8,.8,1.1,1.1c.2,.2,.3,.3,.4,.4v.1l.4,-.3h-.4c0,.2,0,.3,0,.3l.4,-.3h-.4h.6l-.6,-.1v.1h.6l-.6,-.1c0,.2,-.1,.3,-.3,.5c-.1,.2,-.3,.5,-.5,.9c-.2,.8,-.3,1.6,-.3,2.3c0,.9,.1,1.8,.1,2.7c0,.2,0,.4,0,.6c-.1,1.4,-.8,2.6,-1.2,4.3c0,.2,-.1,.3,-.1,.4c0,.1,-.1,.2,-.1,.4l.1,.4l.1,.1c0,0,0,.2,0,.4l.1,.3l.2,.2v.1c0,0,0,.1,0,.3c0,.3,0,.8,-.1,1.3v.1l.1,.1c0,.2,0,.7,0,1.1c0,.6,0,1.3,-.1,1.6l.8,.1l-.8,-.1l.7,.1l-.6,-.2l-.1,.1l.7,.1l-.6,-.2l.7,.3l-.6,-.5l-.1,.2l.7,.3l-.6,-.5l.6,.5v-.8q-.3,.1,-.6,.3l.6,.5v-.8v.8l.4,-.6q-.2,-.1,-.4,-.2v.8l.4,-.6l-.4,.6l.7,-.3c-.1,-.1,-.1,-.2,-.3,-.3l-.4,.6l.7,-.3l-.6,.2l.6,-.1v-.1l-.6,.2l.6,-.1h-.2h.2h-.2h.2c0,0,0,-.3,0,-.6c-.1,-.4,-.1,-1,-.1,-1.5c0,-.2,0,-.4,0,-.5l-.1,-.2v-.1h-.6h.6h-.6h.6h-.7v.8q.4,-.4,.7,-.8h-.7v.8v-.8l-.7,.3l.7,-.3l-.8,.3h.1l.7,-.3l-.8,.3l.8,-.3l-.8,.1c0,.4,.1,1.9,.2,3.3c0,.7,0,1.4,0,2c.1,.6,.1,1,.1,1.3l.8,-.1l-.8,-.2c-.1,1,-.5,1.9,-1,2.7l1.3,.8Z" class="g8_129"/>
<path d="M617,660.4c-3.3,3.3,-8.7,3,-13.1,2.5c-2.8,-.4,-5.5,-1.5,-8.4,-1.9c-2.8,-.3,-5,-.7,-7.5,-2.1c-4.8,-2.5,-9.5,-4.9,-14.3,-7.3c-5,-2.6,-10.6,-3.8,-15.3,-6.8c-3.5,-2.2,-6.6,-4.9,-10.1,-7c-2.4,-1.4,-4.8,-2.5,-7.1,-4c-2.2,-1.5,-4.4,-3,-6.9,-3.9c-2.1,-.8,-4.3,-1.1,-6.3,-2.2c.2,1.8,.7,7.3,.6,9.2c.9,-1.1,.9,-6.6,.5,-8c-.4,-1.3,-1.2,-1.3,-.4,-2.4c1.2,-1.7,9.4,-3.4,11.3,-4.3M248.1,763.6C258.7,752.9,274,744.9,289.4,745c5.3,0,9.9,.4,14.9,1.1c4.1,.6,9.5,3,13.3,2.6c-2.8,-2.8,-8.8,-4.9,-9.4,-9.3c3.9,2.2,8.6,4.6,11,8.9c-3.7,3.1,-6,6.3,-8.1,10.2c.5,-3.3,2,-5.3,4.5,-7.4M245,543.2c15.1,.2,21.7,10.9,22.6,24.8c-1.4,-2.5,-3.7,-1.6,-6,-2.8c5,1,7.2,6.7,10.4,-.2c-1,1.6,-2.4,2.9,-3.3,4.5" class="g9_129"/>
<path d="M641.9,774.8c.7,-1.6,1.1,-3,1.1,-4.4c0,-2.9,-1.6,-5.3,-3.9,-7.2c-3.5,-2.7,-8.7,-4.4,-13.7,-5.5c-5.1,-1,-9.9,-1.4,-12.6,-1.5c-2.5,-.1,-5.3,-.3,-7.9,-.3c-1.3,0,-2.6,0,-3.8,.2c-1.6,.2,-2.9,.7,-4,1.2c-1.2,.5,-2.3,1,-3.6,1.5c-2.2,.7,-4.4,.8,-6.6,.9c-2.3,0,-4.6,0,-7,.5c-2.7,.5,-5,1.5,-7.2,2.2c-2.3,.8,-4.4,1.4,-6.8,1.4c-.9,0,-2,-.1,-3,-.4l-.2,.8l.6,.5c.8,-1,2.1,-1.9,3.5,-3c1.3,-1.1,2.7,-2.4,3.5,-4.1l-1.3,-.8c-1.1,1.4,-2.4,1.9,-3.8,2.4c-1.4,.6,-2.9,1.1,-4.1,2.6c-.6,.8,-.9,1.7,-.9,2.5c0,.8,.3,1.6,.7,2.2c.7,.9,1.7,1.6,2.7,2.4c1,.7,2,1.4,2.8,2.1l.5,-.6l.4,-.7c-1.3,-.6,-2.1,-1.7,-2.8,-3c-.7,-1.3,-1.4,-2.7,-2.5,-4l-1.1,1c.9,1,1.5,2.4,2.3,3.8c.8,1.3,1.7,2.7,3.3,3.6l.9,-1.3c-1.2,-1,-2.7,-1.9,-3.8,-2.9c-.6,-.4,-1.1,-.9,-1.4,-1.3c-.4,-.5,-.5,-.9,-.5,-1.3c0,-.4,.2,-.9,.7,-1.6c.8,-1.1,1.9,-1.5,3.4,-2c1.4,-.6,3,-1.2,4.4,-2.9l-.6,-.5l-.7,-.3c-.6,1.3,-1.8,2.4,-3.1,3.5c-1.3,1.1,-2.7,2,-3.7,3.2l-.8,1l1.2,.2c1.2,.3,2.3,.4,3.4,.4c2.6,0,5,-.7,7.3,-1.4c2.2,-.8,4.5,-1.7,7,-2.2c2.2,-.5,4.4,-.5,6.7,-.5c2.3,-.1,4.6,-.2,7,-1c1.5,-.5,2.7,-1,3.8,-1.5c1.1,-.5,2.2,-.9,3.6,-1.1c1.2,-.1,2.3,-.2,3.6,-.2c2.6,0,5.3,.2,7.8,.3c3.5,.1,10.9,.8,17.2,2.8c3.2,1,6.2,2.3,8.2,3.9c2.1,1.7,3.3,3.6,3.4,6c0,1.1,-.3,2.3,-.9,3.7l1.3,.7Z" class="g8_129"/>
<path d="M392.2,722.8L433.7,666l-.9,-.7l-41.5,56.8l.9,.7Z" class="g2_129"/>
<path d="M437.2,660.9l-11,1.5l12.2,8.9l-1.2,-10.4Z" class="g3_129"/>
<path d="M437.2,660.9l-11,1.5l12.2,8.9l-1.2,-10.4Z" class="g6_129"/>
<path d="M499.6,722.8L458.1,666l.9,-.7l41.5,56.8l-.9,.7Z" class="g2_129"/>
<path d="M454.6,660.9l11,1.5l-12.2,8.9l1.2,-10.4Z" class="g3_129"/>
<path d="M454.6,660.9l11,1.5l-12.2,8.9l1.2,-10.4Z" class="g6_129"/>
<image clip-path="url(#cd_129)" preserveAspectRatio="none" x="461" y="715" width="136" height="146" xlink:href="img/14.jpg"/>
<image clip-path="url(#ce_129)" preserveAspectRatio="none" x="507" y="848" width="18" height="13" xlink:href="img/15.jpg"/>
<image clip-path="url(#cf_129)" preserveAspectRatio="none" x="562" y="760" width="4" height="4" xlink:href="img/16.jpg"/>
<image clip-path="url(#cg_129)" preserveAspectRatio="none" x="560" y="756" width="37" height="15" xlink:href="img/17.jpg"/>
<image clip-path="url(#ch_129)" preserveAspectRatio="none" x="494" y="715" width="7" height="8" xlink:href="img/18.jpg"/>
<path d="M467.6,721.5v125H582.4v-125H467.6Z" class="g3_129"/>
<path d="M467.6,721.5v125H582.4v-125H467.6Z" class="g4_129"/>
<path d="M467.6,738.1H583.5m-116,40.5H583.4" class="g5_129"/>
<image clip-path="url(#ci_129)" preserveAspectRatio="none" x="321" y="715" width="136" height="147" xlink:href="img/19.jpg"/>
<image clip-path="url(#cj_129)" preserveAspectRatio="none" x="391" y="715" width="7" height="8" xlink:href="img/20.jpg"/>
<path d="M327.7,720.9V846.5H442.5V720.9H327.7Z" class="g3_129"/>
<path d="M327.7,720.9V846.5H442.5V720.9H327.7Z" class="g4_129"/>
<path d="M327.6,737.5h116M325,758.2H440.9" class="g5_129"/>
<g clip-path="url(#ck_129)">
<path d="M-4.5,13.7H-27.4m939.5,0H935M-4.5,1031.2H-27.4m939.5,0H935M13.7,-4.5V-27.4m0,1077v22.9m880,-1077V-27.4m0,1077v22.9" class="ga_129"/>
<path d="M-4.5,13.7H-27.4m939.5,0H935M-4.5,1031.2H-27.4m939.5,0H935M13.7,-4.5V-27.4m0,1077v22.9m880,-1077V-27.4m0,1077v22.9" class="gb_129"/>
</g>
</svg>