<?xml version="1.0" encoding="UTF-8" standalone="no"?>
<!DOCTYPE svg PUBLIC "-//W3C//DTD SVG 1.1//EN"
"http://www.w3.org/Graphics/SVG/1.1/DTD/svg11.dtd">
<svg viewBox="0 0 770 1010" version="1.1" xmlns="http://www.w3.org/2000/svg" xmlns:xlink="http://www.w3.org/1999/xlink">
<defs>
<clipPath id="c0_205"><path d="M128.3,316.7V93.6H641.6V316.7Z"/></clipPath>
<clipPath id="c1_205"><path d="M114.3,87.2l-9,-9H664.7l-9,9Z"/></clipPath>
<clipPath id="c2_205"><path d="M664.7,334.7l-9,-9V87.2l9,-9V334.7Z"/></clipPath>
<clipPath id="c3_205"><path d="M105.3,334.7l9,-9H655.7l9,9Z"/></clipPath>
<clipPath id="c4_205"><path d="M105.3,334.7V78.2l9,9V325.7l-9,9Z"/></clipPath>
<clipPath id="c5_205"><path d="M131.4,615V388.9H638.6V615Z"/></clipPath>
<clipPath id="c6_205"><path d="M114.3,382.5l-9,-9.1H664.7l-9,9.1Z"/></clipPath>
<clipPath id="c7_205"><path d="M664.7,633.1l-9,-9.1V382.5l9,-9.1V633.1Z"/></clipPath>
<clipPath id="c8_205"><path d="M105.3,633.1l9,-9.1H655.7l9,9.1Z"/></clipPath>
<clipPath id="c9_205"><path d="M105.3,633.1V373.4l9,9.1V624l-9,9.1Z"/></clipPath>
<style type="text/css"><![CDATA[
.g0_205{
fill: none;
stroke: #000000;
stroke-width: 0.381;
stroke-linecap: round;
stroke-linejoin: miter;
}
.g1_205{
fill: none;
stroke: #000000;
stroke-width: 0.412;
stroke-linecap: round;
stroke-linejoin: miter;
}
]]></style>
</defs>
<g clip-path="url(#c0_205)">
<image preserveAspectRatio="none" x="128" y="94" width="514" height="223" xlink:href="img/1.jpg"/>
</g>
<path clip-path="url(#c1_205)" d="M109.6,82.7H660.4" class="g0_205"/>
<path clip-path="url(#c2_205)" d="M660.2,82.5V330.4" class="g0_205"/>
<path clip-path="url(#c3_205)" d="M660.4,330.2H109.6" class="g0_205"/>
<path clip-path="url(#c4_205)" d="M109.8,330.4V82.5" class="g0_205"/>
<g clip-path="url(#c5_205)">
<image preserveAspectRatio="none" x="131" y="389" width="508" height="226" xlink:href="img/2.jpg"/>
</g>
<path clip-path="url(#c6_205)" d="M109.6,378H660.4" class="g0_205"/>
<path clip-path="url(#c7_205)" d="M660.2,377.8v251" class="g0_205"/>
<path clip-path="url(#c8_205)" d="M660.4,628.6H109.6" class="g0_205"/>
<path clip-path="url(#c9_205)" d="M109.8,628.8v-251" class="g0_205"/>
<path d="M110,925.8h55m0,0H660" class="g1_205"/>
</svg>