<?xml version="1.0" encoding="UTF-8" standalone="no"?>
<!DOCTYPE svg PUBLIC "-//W3C//DTD SVG 1.1//EN"
"http://www.w3.org/Graphics/SVG/1.1/DTD/svg11.dtd">
<svg viewBox="0 0 931 1096" version="1.1" xmlns="http://www.w3.org/2000/svg" xmlns:xlink="http://www.w3.org/1999/xlink">
<defs>
<clipPath id="c0_267"><path d="M656.9,855.9V816.7h81v39.2Z"/></clipPath>
<clipPath id="c1_267"><path d="M243.8,574.1V548.6H373.7v25.5Z"/></clipPath>
<style type="text/css"><![CDATA[
.g0_267{
fill: #E8F6FE;
}
.g1_267{
fill: none;
stroke: #241F1F;
stroke-width: 0.763;
stroke-miterlimit: 10;
}
.g2_267{
fill: none;
stroke: #241F1F;
stroke-width: 0.687;
stroke-miterlimit: 10;
}
]]></style>
</defs>
<path d="M578.7,310.1h58v27.5h-58Zm58,0h58.1v27.5H636.7Zm58.1,0h4.6v27.5h-4.6Zm4.6,0h58v27.5h-58Zm58,0h58.1v27.5H757.4Z" class="g0_267"/>
<path d="M636.7,337.6h58.1M636.7,310.1h58.1m120.7,46.2V338m0,36.6V356.3m0,36.7V374.6M699.4,310.1h58m0,0h58.4m-.3,27.1V310.5M699.4,337.6h58m0,0h58.4m-58.4,-.4V310.5m0,45.8V338m0,36.6V356.3m0,36.7V374.6m-62.6,-37h4.6m-4.6,-27.5h4.6m-4.6,27.1V310.5m4.6,26.7V310.5m-4.6,45.8V338m4.6,18.3V338m-4.6,36.6V356.3m4.6,18.3V356.3M694.8,393V374.6m4.6,18.4V374.6M578.3,310.1h58.4m-58,27.1V310.5m58,26.7V310.5m-58.4,27.1h58.4m-58,18.7V338m58,18.3V338m-58,36.6V356.3m58,18.3V356.3m-58,36.7V374.6m58,18.4V374.6m-58,36.7V393m58,18.3V393m58.1,18.3V393m4.6,18.3V393m58,18.3V393m58.1,18.3V393M578.7,429.6V411.3m58,18.3V411.3m58.1,18.3V411.3m4.6,18.3V411.3m58,18.3V411.3m58.1,18.3V411.3M578.7,448V429.6m58,18.4V429.6M694.8,448V429.6m4.6,18.4V429.6m58,18.4V429.6M815.5,448V429.6M578.7,468.8V448m58,20.8V448m58.1,20.8V448m4.6,20.8V448m58,20.8V448m58.1,20.8V448M578.3,469.2h58.4m0,0h58.1m0,0h4.6m0,0h58m0,0h58.4" class="g1_267"/>
<path d="M682.7,839h19.4m22.4,0h11.7" class="g2_267"/>
<path clip-path="url(#c0_267)" d="M724.5,817h13.8" class="g2_267"/>
<path d="M264,278.3h18.6" class="g2_267"/>
<path clip-path="url(#c1_267)" d="M311,559.8h63.1" class="g2_267"/>
<path d="M161.6,725.1H214v44.3H161.6Zm52.4,0h93.3v44.3H214Zm93.3,0h4.6v44.3h-4.6Zm4.6,0h54.4v44.3H311.9Zm54.4,0h91.6v44.3H366.3Z" class="g0_267"/>
<path d="M214,769.4h93.3M214,725.1h93.3m150.6,63V769.7m0,36.7V788.1m0,36.6V806.4m-146,-81.3h54.4m0,0h92m-.4,43.9V725.4m-146,44h54.4m0,0h92m-92,-.4V725.4m0,62.7V769.7m0,36.7V788.1m0,36.6V806.4m-59,-37h4.6m-4.6,-44.3h4.6M307.3,769V725.4m4.6,43.6V725.4m-4.6,62.7V769.7m4.6,18.4V769.7m-4.6,36.7V788.1m4.6,18.3V788.1m-4.6,36.6V806.4m4.6,18.3V806.4M161.2,725.1H214M161.6,769V725.4M214,769V725.4m-52.8,44H214m-52.4,18.7V769.7M214,788.1V769.7m-52.4,36.7V788.1M214,806.4V788.1m-52.4,36.6V806.4M214,824.7V806.4m-52.4,36.7V824.7M214,843.1V824.7m93.3,18.4V824.7m4.6,18.4V824.7m54.4,18.4V824.7m91.6,18.4V824.7M161.6,861.4V843.1M214,861.4V843.1m93.3,18.3V843.1m4.6,18.3V843.1m54.4,18.3V843.1m91.6,18.3V843.1M161.6,882.3V861.4M214,882.3V861.4m93.3,20.9V861.4m4.6,20.9V861.4m54.4,20.9V861.4m91.6,20.9V861.4M161.2,882.6H214m0,0h93.3m0,0h4.6m0,0h54.4m0,0h92" class="g1_267"/>
</svg>