<?xml version="1.0" encoding="UTF-8" standalone="no"?>
<!DOCTYPE svg PUBLIC "-//W3C//DTD SVG 1.1//EN"
"http://www.w3.org/Graphics/SVG/1.1/DTD/svg11.dtd">
<svg viewBox="0 0 931 1096" version="1.1" xmlns="http://www.w3.org/2000/svg" xmlns:xlink="http://www.w3.org/1999/xlink">
<defs>
<clipPath id="c0_137"><path d="M389.8,960.5c1,-6.7,1.8,-11.5,2.5,-15.9c1.3,-8.3,2.5,-14.9,5.5,-28.7c2.2,-10.8,4.8,-22,7.4,-32.7c6.4,-25.9,13.2,-48.6,19.7,-65.8c2.5,-6.7,4.9,-12.5,7.3,-17.3c2.6,-5.4,5.3,-10,7.9,-13.4c1.6,-2.2,3.2,-3.9,4.7,-5.2c.7,-.6,2.2,-1.9,3.3,-1.9c.2,0,.3,0,.5,.1c3.3,1.5,6,4.1,8.3,6.8c2.8,3.2,5.4,7.3,8,12c2.1,3.9,4.4,8.8,6.6,14.4c6.4,15.9,13.1,37.6,18.4,59.6c2,8,3.6,15.9,5,23c2.1,11.3,2.7,14.3,3.4,19c.4,2.6,.8,5.6,1.6,10.6c-3.8,2.8,-7.4,5.3,-15.1,9.3c-8.5,4.5,-12.9,6.3,-21.8,10c-6.4,2.8,-14.7,5.4,-23.1,7.6c-10.7,2.9,-21.4,5.2,-28.5,6.5c-8.9,1.5,-16.4,2,-21.6,2Z"/></clipPath>
<clipPath id="c1_137"><path d="M360.6,977V754.3H565.9V977Z"/></clipPath>
<clipPath id="c2_137"><path d="M688.9,956.6c1,-6.7,1.8,-11.6,2.5,-16c1.3,-8.2,2.6,-14.8,5.5,-28.7c2.3,-10.7,4.8,-21.9,7.5,-32.6c6.4,-25.9,13.2,-48.7,19.6,-65.9c2.5,-6.6,5,-12.4,7.3,-17.3c2.7,-5.4,5.3,-9.9,7.9,-13.4c1.6,-2.1,3.2,-3.9,4.8,-5.1c.7,-.6,2.2,-1.9,3.3,-1.9c.1,0,.3,0,.4,0c3.3,1.6,6,4.2,8.4,6.9c2.7,3.2,5.4,7.2,7.9,11.9c2.2,4,4.4,8.9,6.7,14.5c6.3,15.9,13.1,37.6,18.4,59.5c1.9,8,3.6,15.9,4.9,23c2.2,11.3,2.7,14.4,3.5,19.1c.3,2.5,.8,5.5,1.5,10.5c-3.8,2.9,-7.3,5.4,-15,9.4c-8.6,4.4,-13,6.2,-21.9,10c-6.4,2.7,-14.7,5.3,-23.1,7.6c-10.6,2.8,-21.4,5.1,-28.5,6.4c-8.9,1.6,-16.4,2.1,-21.6,2.1Z"/></clipPath>
<clipPath id="c3_137"><path d="M657.6,977V750.3H863V977Z"/></clipPath>
<clipPath id="c4_137"><path d="M138.6,225.7c-1.5,0,-2.9,0,-4.3,-.1c1.2,-3.2,4.6,-15.3,6.2,-18.2c9.5,-14,10.2,-16.5,12.8,-20c1.8,-2.3,4.4,-5,11.1,-11.7c24.8,-10,46.7,-18.1,70,-19.6c2.5,-.1,4.9,-.2,7.4,-.2c4,0,8.1,.2,12.2,.6c27.4,2.9,44.7,4.8,68.7,16.9c-5,4,-9.3,7.2,-13.4,11.1c-3,2.9,-6,6,-9.1,10c-6.5,8.4,-10.8,14.1,-13.6,23.6c-20.7,-3.5,-35.5,-5.5,-49.7,-5.5c-10.6,0,-20.8,1.1,-32.7,3.6c-.9,.1,-1.8,.3,-2.7,.4c-24.1,3.3,-46.7,9.1,-62.9,9.1Z"/></clipPath>
<style type="text/css"><![CDATA[
.g0_137{
fill: #D0007A;
}
.g1_137{
fill: #ACA6CA;
}
.g2_137{
fill: none;
stroke: #00BFF3;
stroke-width: 0.611;
stroke-linejoin: round;
}
.g3_137{
fill: #C1E8FB;
}
.g4_137{
fill: none;
stroke: #00AEEF;
stroke-width: 0.763;
stroke-linejoin: round;
}
.g5_137{
fill: none;
stroke: #00AEEF;
stroke-width: 0.763;
stroke-linejoin: round;
stroke-dasharray: 8,4;
}
.g6_137{
fill: none;
stroke: #241F1F;
stroke-width: 0.381;
stroke-miterlimit: 3;
}
.g7_137{
fill: #241F1F;
}
.g8_137{
fill: #00AEEF;
}
.g9_137{
fill: none;
stroke: #00AEEF;
stroke-width: 0.763;
stroke-miterlimit: 3;
}
.ga_137{
fill: none;
stroke: #EE008C;
stroke-width: 0.916;
stroke-linejoin: round;
}
.gb_137{
fill: #EE008C;
}
.gc_137{
fill: none;
stroke: #EE008C;
stroke-width: 0.763;
stroke-miterlimit: 3;
}
.gd_137{
fill: none;
stroke: #969698;
stroke-width: 0.611;
stroke-miterlimit: 3;
stroke-dasharray: 10,4;
}
.ge_137{
fill: none;
stroke: #241F1F;
stroke-width: 0.611;
stroke-miterlimit: 3;
}
.gf_137{
fill: none;
stroke: #00BFF3;
stroke-width: 0.611;
stroke-miterlimit: 3;
}
.gg_137{
fill: none;
stroke: #241F1F;
stroke-width: 0.763;
stroke-miterlimit: 3;
stroke-dasharray: 8,4;
}
.gh_137{
fill: none;
stroke: #241F1F;
stroke-width: 0.763;
stroke-miterlimit: 3;
stroke-dasharray: 9,4;
}
.gi_137{
fill: none;
stroke: #241F1F;
stroke-width: 0.763;
stroke-miterlimit: 3;
}
]]></style>
</defs>
<path d="M343.8,97.9c0,0,-1.6,0,-1.6,1.6v9.1c0,0,0,1.6,1.6,1.6h9.1c0,0,1.6,0,1.6,-1.6V99.5c0,0,0,-1.6,-1.6,-1.6Z" class="g0_137"/>
<image clip-path="url(#c0_137)" x="389" y="779" width="111" height="182" xlink:href="shade/1.png"/>
<path d="M467.7,874c-.7,1.4,-1.4,2.8,-2.1,4.2c.8,-1.3,1.5,-2.7,2.1,-4.2Z" class="g1_137"/>
<path d="M448.1,779.5c-21.2,8.4,-47.3,110,-58.3,181c20,0,75,-10,110.3,-35.6C492,870.8,471.3,789.4,448.1,779.5Z" class="g2_137"/>
<path d="M483.1,847.5v0c-21.5,32,-33.3,66.1,-39.7,103.5Z" class="g3_137"/>
<path d="M483.1,847.5v0c-21.5,32,-33.3,66.1,-39.7,103.5" class="g4_137"/>
<path d="M443.4,951l39.7,-28V847.5Z" class="g3_137"/>
<path d="M443.4,951l39.7,-28V847.5" class="g5_137"/>
<path d="M474.6,786.4l-6.1,13.9" class="g6_137"/>
<path d="M467.2,803.4l.2,-4.7l1.1,1.6l1.9,-.3Z" class="g7_137"/>
<path d="M502.9,843.9l-25.8,15.4" class="g6_137"/>
<path d="M474.3,861l2.9,-3.6l-.1,1.9l1.8,.9Z" class="g7_137"/>
<path d="M503.6,872.7l-28.2,14.7" class="g6_137"/>
<path d="M472.4,888.9l3.2,-3.5l-.2,2l1.7,1Z" class="g7_137"/>
<path d="M489.3,945.2l-27.7,-1.9" class="g6_137"/>
<path d="M458.3,943.1l4.4,-1.3l-1.1,1.5l.9,1.8Z" class="g7_137"/>
<path d="M453,942.6c0,-.9,.7,-1.7,1.7,-1.7c.9,0,1.7,.8,1.7,1.7c0,1,-.8,1.8,-1.7,1.8c-1,0,-1.7,-.8,-1.7,-1.8Z" class="g8_137"/>
<path d="M453,942.6c0,-.9,.7,-1.7,1.7,-1.7c.9,0,1.7,.8,1.7,1.7c0,1,-.8,1.8,-1.7,1.8c-1,0,-1.7,-.8,-1.7,-1.8Z" class="g9_137"/>
<path d="M487.1,815.5L429.8,973" class="ga_137"/>
<path d="M453,904.4c0,-.9,.7,-1.7,1.7,-1.7c.9,0,1.7,.8,1.7,1.7c0,1,-.8,1.8,-1.7,1.8c-1,0,-1.7,-.8,-1.7,-1.8Z" class="gb_137"/>
<path d="M453,904.4c0,-.9,.7,-1.7,1.7,-1.7c.9,0,1.7,.8,1.7,1.7c0,1,-.8,1.8,-1.7,1.8c-1,0,-1.7,-.8,-1.7,-1.8Z" class="gc_137"/>
<path d="M448.1,919.6l-58.3,40.9m58.3,-181V919.6" class="gd_137"/>
<path d="M499.8,924.9l57.8,6" class="ge_137"/>
<path fill-rule="evenodd" d="M557.6,930.9l-1.4,-2.6l6.3,3.1l-6.8,1.8Z" class="g7_137"/>
<path d="M448.1,779.5V759.2" class="ge_137"/>
<path fill-rule="evenodd" d="M448.1,759.2l-2.4,1.6l2.4,-6.5l2.5,6.5Z" class="g7_137"/>
<path d="M389.8,960.5L374,971.8" class="ge_137"/>
<path fill-rule="evenodd" d="M374,971.8l2.8,1l-6.7,1.9l3.8,-5.8Z" class="g7_137"/>
<path clip-path="url(#c1_137)" d="M447.9,919.4l52,5.5m230.9,-5.3l-58.4,40.9" class="gd_137"/>
<image clip-path="url(#c2_137)" x="688" y="775" width="112" height="182" xlink:href="shade/2.png"/>
<path d="M747.3,775.5c-21.3,8.4,-47.4,110,-58.4,181.1c20,0,75,-9.9,110.3,-35.6C792.3,874.9,768,784.4,747.3,775.5Z" class="g2_137"/>
<path d="M718.4,832.8v0c21.5,32.1,38.8,73.2,45.3,107.5Z" class="g3_137"/>
<path d="M718.4,832.8v0c21.5,32.1,38.8,73.2,45.3,107.5" class="g4_137"/>
<path d="M763.7,940.3l-45.3,-4.4V832.8Z" class="g3_137"/>
<path d="M763.7,940.3l-45.3,-4.4V832.8" class="g5_137"/>
<path d="M766.4,799.4l.1,-4.6l1.2,1.6l1.9,-.4Z" class="g7_137"/>
<path d="M773.7,782.5l-6,13.9" class="g6_137"/>
<path d="M766.4,799.4l.1,-4.6l1.2,1.6l1.9,-.4Z" class="g7_137"/>
<path d="M692.8,838.4l34.4,13" class="g6_137"/>
<path d="M730.3,852.5h-4.7l1.6,-1.1l-.4,-2Z" class="g7_137"/>
<path d="M691.3,866.6l36.6,9.2" class="g6_137"/>
<path d="M731.2,876.6l-4.7,.6l1.4,-1.4l-.6,-1.9Z" class="g7_137"/>
<path d="M752.1,939.3c0,-.9,.8,-1.7,1.7,-1.7c1,0,1.7,.8,1.7,1.7c0,1,-.7,1.7,-1.7,1.7c-.9,0,-1.7,-.7,-1.7,-1.7Z" class="g8_137"/>
<path d="M752.1,939.3c0,-.9,.8,-1.7,1.7,-1.7c1,0,1.7,.8,1.7,1.7c0,1,-.7,1.7,-1.7,1.7c-.9,0,-1.7,-.7,-1.7,-1.7Z" class="g9_137"/>
<path d="M801.2,894l-40.7,5.2" class="g6_137"/>
<path d="M757.2,899.6l4.1,-2.2l-.8,1.8l1.2,1.5Z" class="g7_137"/>
<path d="M721.4,811.6l50.9,139.9" class="ga_137"/>
<path d="M753.8,957.6V946.1" class="g6_137"/>
<path d="M753.8,942.8l1.7,4.3l-1.7,-1l-1.6,1Z" class="g7_137"/>
<path d="M752.1,900.5c0,-1,.8,-1.7,1.7,-1.7c1,0,1.7,.7,1.7,1.7c0,.9,-.7,1.7,-1.7,1.7c-.9,0,-1.7,-.8,-1.7,-1.7Z" class="gb_137"/>
<path d="M752.1,900.5c0,-1,.8,-1.7,1.7,-1.7c1,0,1.7,.7,1.7,1.7c0,.9,-.7,1.7,-1.7,1.7c-.9,0,-1.7,-.8,-1.7,-1.7Z" class="gc_137"/>
<path clip-path="url(#c3_137)" d="M464.4,915.5l52,5.4m230.9,-5.3l-58.4,41" class="gd_137"/>
<path d="M799,921l57.7,6.1" class="ge_137"/>
<path fill-rule="evenodd" d="M856.7,927.1l-1.4,-2.6l6.2,3.1l-6.7,1.8Z" class="g7_137"/>
<path d="M747.3,777.2v-22" class="ge_137"/>
<path clip-path="url(#c3_137)" fill-rule="evenodd" d="M747.3,755.2l-2.5,1.6l2.5,-6.5l2.4,6.5Z" class="g7_137"/>
<path d="M747.3,777.2V915.6" class="gd_137"/>
<path d="M688.9,956.6l-15.7,11.3" class="ge_137"/>
<path fill-rule="evenodd" d="M673.2,967.9l2.7,1l-6.7,1.8l3.8,-5.8Z" class="g7_137"/>
<path d="M747,915.6l52,5.4" class="gd_137"/>
<image clip-path="url(#c4_137)" x="134" y="155" width="189" height="72" xlink:href="shade/3.png"/>
<path d="M322.2,173.6c-8.5,6.8,-15.1,11.6,-22.5,21.1c-6.5,8.4,-10.8,14.1,-13.6,23.6c-36.2,-6.1,-54.6,-7.7,-82.4,-1.9c-27.3,3.6,-53,10.6,-69.9,9.4c1.2,-3.2,4.6,-15.2,6.2,-18.2c15.8,-23.2,7.1,-14.9,23.9,-31.7c31.6,-12.7,58.5,-22.4,89.6,-19.2c27.4,2.9,44.7,4.8,68.7,16.9Z" class="gf_137"/>
<path d="M203.7,216.4c0,0,9.7,-21.8,19.2,-33.4c10,-12.1,30.6,-26.3,30.6,-26.3M140,207.6c0,0,49.3,-22.1,82.9,-24.6c35.3,-2.6,61.4,3.9,76.8,11.7" class="g4_137"/>
<path d="M186.3,228l71.8,-87.6M167,188L278.9,178" class="ga_137"/>
<path d="M221.2,183c0,-.9,.8,-1.7,1.7,-1.7c1,0,1.7,.8,1.7,1.7c0,1,-.7,1.7,-1.7,1.7c-.9,0,-1.7,-.7,-1.7,-1.7Z" class="gb_137"/>
<path d="M221.2,183c0,-.9,.8,-1.7,1.7,-1.7c1,0,1.7,.8,1.7,1.7c0,1,-.7,1.7,-1.7,1.7c-.9,0,-1.7,-.7,-1.7,-1.7Z" class="gc_137"/>
<path d="M171.4,173V130.2" class="ge_137"/>
<path fill-rule="evenodd" d="M171.4,130.2l-2.4,1.6l2.4,-6.5l2.4,6.5Z" class="g7_137"/>
<path d="M160.2,223.8l-35.3,30.1" class="ge_137"/>
<path fill-rule="evenodd" d="M124.9,253.9l2.8,.8l-6.5,2.4l3.3,-6.1Z" class="g7_137"/>
<path d="M191.2,218.5l114,24.3" class="ge_137"/>
<path fill-rule="evenodd" d="M305.2,242.8L304.1,240l5.9,3.8l-6.9,1Z" class="g7_137"/>
<path d="M253,231.6l-30.1,28.7m-84.5,-18l84.5,18" class="gg_137"/>
<path d="M222.9,260.3V183" class="gh_137"/>
<path d="M171.4,214.2l19.8,4.3m-19.8,-4.3l-11.2,9.6m11.2,-9.6V173" class="gd_137"/>
<path d="M221.2,260.3c0,-.9,.8,-1.7,1.7,-1.7c1,0,1.7,.8,1.7,1.7c0,1,-.7,1.8,-1.7,1.8c-.9,0,-1.7,-.8,-1.7,-1.8Z" class="g7_137"/>
<path d="M221.2,260.3c0,-.9,.8,-1.7,1.7,-1.7c1,0,1.7,.8,1.7,1.7c0,1,-.7,1.8,-1.7,1.8c-.9,0,-1.7,-.8,-1.7,-1.8Z" class="gi_137"/>
</svg>