<?xml version="1.0" encoding="UTF-8" standalone="no"?>
<!DOCTYPE svg PUBLIC "-//W3C//DTD SVG 1.1//EN"
"http://www.w3.org/Graphics/SVG/1.1/DTD/svg11.dtd">
<svg viewBox="0 0 811 1017" version="1.1" xmlns="http://www.w3.org/2000/svg" xmlns:xlink="http://www.w3.org/1999/xlink">
<defs>
<style type="text/css"><![CDATA[
.g0_169{
fill: #000;
}
]]></style>
</defs>
<path d="M622.1,346.8V350l-.2,-.2l-6.3,-2.9l-.4,-.1l.4,-.2l6.3,-2.9l.2,-.2v.3l-.1,.2l-6.3,2.9l-.1,-.3h.1l6.3,2.9l-.1,.3l-.1,-.1v-2.9Z" class="g0_169"/>
<path d="M621.8,346.8h.3v-3h-.3v3Z" class="g0_169"/>
<path d="M622.1,347h28v-.4h-28v.4Z" class="g0_169"/>
<path d="M649.7,346.8h.4V309.1h-.4v37.7Z" class="g0_169"/>
<path d="M622.1,392.6v3.2l-.2,-.1l-6.3,-3l-.4,-.1l.4,-.2l6.3,-2.9l.2,-.1v.3l-.1,.1l-6.3,2.9l-.1,-.3h.1l6.3,3l-.1,.3l-.1,-.2v-2.9Z" class="g0_169"/>
<path d="M621.8,392.6h.3v-2.9h-.3v2.9Z" class="g0_169"/>
<path d="M622.1,392.8h28v-.4h-28v.4Z" class="g0_169"/>
<path d="M649.7,392.6h.4V371.4h-.4v21.2Z" class="g0_169"/>
<path d="M622.1,392.6v3.2l-.2,-.1l-6.3,-3l-.4,-.1l.4,-.2l6.3,-2.9l.2,-.1v.3l-.1,.1l-6.3,2.9l-.1,-.3h.1l6.3,3l-.1,.3l-.1,-.2v-2.9Z" class="g0_169"/>
<path d="M621.8,392.6h.3v-2.9h-.3v2.9Z" class="g0_169"/>
<path d="M622.1,392.8h28v-.4h-28v.4Z" class="g0_169"/>
<path d="M649.7,410.9h.4V392.6h-.4v18.3Z" class="g0_169"/>
<path d="M619,453.7v3.2l-.2,-.1l-6.3,-3l-.4,-.1l.4,-.2l6.3,-2.9l.2,-.2v.4l-.1,.1l-6.3,2.9l-.1,-.3h.1l6.3,3l-.1,.3l-.1,-.2v-2.9Z" class="g0_169"/>
<path d="M618.7,453.7h.3v-2.9h-.3v2.9Z" class="g0_169"/>
<path d="M619.1,453.9H647v-.4H619.1v.4Z" class="g0_169"/>
<path d="M646.6,478.4h.4V453.7h-.4v24.7Z" class="g0_169"/>
<path d="M667,499.6v3.2l-.3,-.1l-6.3,-3l-.3,-.2l.3,-.1l6.3,-2.9l.3,-.1v.3l-.2,.1l-6.3,2.9l-.1,-.3h.1l6.3,2.9l-.1,.4l-.1,-.2v-2.9Z" class="g0_169"/>
<path d="M666.6,499.6h.4v-2.9h-.4v2.9Z" class="g0_169"/>
<path d="M667,499.8h19.8v-.4H667v.4Z" class="g0_169"/>
<path d="M686.4,546.7h.4V499.6h-.4v47.1Z" class="g0_169"/>
<image preserveAspectRatio="none" x="203" y="990" width="405" height="28" xlink:href="img/1.jpg"/>
</svg>