<?xml version="1.0" encoding="UTF-8" standalone="no"?>
<!DOCTYPE svg PUBLIC "-//W3C//DTD SVG 1.1//EN"
"http://www.w3.org/Graphics/SVG/1.1/DTD/svg11.dtd">
<svg viewBox="0 0 907 1045" version="1.1" xmlns="http://www.w3.org/2000/svg" xmlns:xlink="http://www.w3.org/1999/xlink">
<defs>
<clipPath id="c0_589"><path d="M137.5,732.8V647h74.4v85.8Z"/></clipPath>
<clipPath id="c1_589"><path d="M733.6,933L588.7,904.3l1.8,-9L622,736.3l48.5,9.7l96.4,19.1L733.6,933ZM622,736.3v0Z"/></clipPath>
<clipPath id="c2_589"><path d="M683.2,309V102.3h34.1L683.2,309Zm0,42.2v-26l75,12.3L796,108l-35.1,-5.7h44V351.2Z"/></clipPath>
<clipPath id="c3_589"><path d="M683.2,325.2l-.4,-.1l-2.2,-.3L683.2,309v16.2ZM717.3,102.3l1.1,-7l42.5,7Z"/></clipPath>
<clipPath id="c4_589"><path d="M761.6,220.5l5.8,-35.2l-49.9,-8.2l-5.8,35.2l49.9,8.2Zm-3.4,117l-.5,-.1L683.2,325.2V309L717.3,102.3h43.6L796,108L758.2,337.5Z"/></clipPath>
<clipPath id="c5_589"><path d="M761.6,220.5l-49.9,-8.2l5.8,-35.2l49.9,8.2l-5.8,35.2Z"/></clipPath>
<clipPath id="c6_589"><path d="M584.7,947.2V732.3H781.2V947.2Z"/></clipPath>
<clipPath id="c7_589"><path d="M733.6,933L588.7,904.3l1.8,-9L622,736.3l62,12.3l83,16.5L733.6,933ZM622,736.3v0Z"/></clipPath>
<clipPath id="c8_589"><path d="M-2.6,1047.7V-2.6H910.2V1047.7Z"/></clipPath>
<style type="text/css"><![CDATA[
.g0_589{
fill: #B8B8B8;
}
.g1_589{
fill: none;
stroke: #000000;
stroke-width: 1.675;
stroke-linecap: butt;
stroke-linejoin: miter;
stroke-miterlimit: 4;
}
.g2_589{
fill: none;
stroke: #000000;
stroke-width: 1.527;
stroke-linecap: butt;
stroke-linejoin: miter;
stroke-miterlimit: 4;
}
.g3_589{
fill: #FFFFFF;
}
.g4_589{
fill: none;
stroke: #FFFFFF;
stroke-width: 1.527;
stroke-linecap: butt;
stroke-linejoin: miter;
stroke-miterlimit: 4;
}
.g5_589{
fill: none;
stroke: #FFFFFF;
stroke-width: 1.909;
stroke-linecap: butt;
stroke-linejoin: miter;
}
.g6_589{
fill: none;
stroke: #000000;
stroke-width: 0.381;
stroke-linecap: butt;
stroke-linejoin: miter;
}
]]></style>
</defs>
<image clip-path="url(#c2_589)" preserveAspectRatio="none" x="683" y="102" width="122" height="250" xlink:href="img/1.jpg"/>
<image clip-path="url(#c3_589)" preserveAspectRatio="none" x="680" y="95" width="81" height="237" xlink:href="img/2.png"/>
<image clip-path="url(#c4_589)" preserveAspectRatio="none" x="680" y="95" width="116" height="243" xlink:href="img/3.png"/>
<image clip-path="url(#c5_589)" preserveAspectRatio="none" x="711" y="177" width="57" height="44" xlink:href="img/4.jpg"/>
<path d="M127.9,363.7c5.4,0,9.7,-4.4,9.7,-9.8c0,-5.4,-4.3,-9.7,-9.7,-9.7c-5.4,0,-9.8,4.3,-9.8,9.7c0,5.4,4.4,9.8,9.8,9.8Z" class="g0_589"/>
<path d="M127.9,363.7c5.4,0,9.7,-4.4,9.7,-9.8c0,-5.4,-4.3,-9.7,-9.7,-9.7c-5.4,0,-9.8,4.3,-9.8,9.7c0,5.4,4.4,9.8,9.8,9.8Z" class="g1_589"/>
<path d="M127.9,443.3c5.4,0,9.7,-4.4,9.7,-9.8c0,-5.4,-4.3,-9.8,-9.7,-9.8c-5.4,0,-9.8,4.4,-9.8,9.8c0,5.4,4.4,9.8,9.8,9.8Z" class="g0_589"/>
<path d="M127.9,443.3c5.4,0,9.7,-4.4,9.7,-9.8c0,-5.4,-4.3,-9.8,-9.7,-9.8c-5.4,0,-9.8,4.4,-9.8,9.8c0,5.4,4.4,9.8,9.8,9.8Z" class="g1_589"/>
<path d="M127.9,546.9c5.4,0,9.7,-4.4,9.7,-9.8c0,-5.4,-4.3,-9.7,-9.7,-9.7c-5.4,0,-9.8,4.3,-9.8,9.7c0,5.4,4.4,9.8,9.8,9.8Z" class="g0_589"/>
<path d="M127.9,546.9c5.4,0,9.7,-4.4,9.7,-9.8c0,-5.4,-4.3,-9.7,-9.7,-9.7c-5.4,0,-9.8,4.3,-9.8,9.7c0,5.4,4.4,9.8,9.8,9.8Z" class="g1_589"/>
<path d="M127.3,678.2V949.4h664V678.2h-664Z" class="g2_589"/>
<path d="M92.2,665.4v60.8H350.4V665.4H92.2Z" class="g3_589"/>
<path d="M92.2,665.4v60.8H350.4V665.4H92.2Z" class="g4_589"/>
<g clip-path="url(#c0_589)">
<image clip-path="url(#c0_589)" preserveAspectRatio="none" x="137" y="647" width="75" height="86" xlink:href="img/5.jpg"/>
</g>
<image clip-path="url(#c6_589)" preserveAspectRatio="none" x="584" y="732" width="198" height="216" xlink:href="img/6.jpg"/>
<g clip-path="url(#c7_589)">
<image clip-path="url(#c1_589)" preserveAspectRatio="none" x="589" y="736" width="178" height="197" xlink:href="img/7.png"/>
</g>
<g clip-path="url(#c8_589)">
<path d="M-4.5,13.7H-27.4m939.5,0H935M-4.5,1031.2H-27.4m939.5,0H935M13.7,-4.5V-27.4m0,1077v22.9m880,-1077V-27.4m0,1077v22.9" class="g5_589"/>
<path d="M-4.5,13.7H-27.4m939.5,0H935M-4.5,1031.2H-27.4m939.5,0H935M13.7,-4.5V-27.4m0,1077v22.9m880,-1077V-27.4m0,1077v22.9" class="g6_589"/>
</g>
</svg>