<?xml version="1.0" encoding="UTF-8" standalone="no"?>
<!DOCTYPE svg PUBLIC "-//W3C//DTD SVG 1.1//EN"
"http://www.w3.org/Graphics/SVG/1.1/DTD/svg11.dtd">
<svg viewBox="0 0 811 1017" version="1.1" xmlns="http://www.w3.org/2000/svg" xmlns:xlink="http://www.w3.org/1999/xlink">
<defs>
<style type="text/css"><![CDATA[
.g0_189{
fill: #70A6CC;
}
.g1_189{
}
]]></style>
</defs>
<path d="M156.1,537.6H724.4V516.4H156.1Z" class="g0_189"/>
<path d="M510.1,88.2v3.2l-.2,-.1l-6.3,-2.9l-.4,-.2l.4,-.2l6.3,-2.9l.2,-.1v.2l-.1,.2l-6.2,3l-.2,-.4h.2l6.2,2.9l-.1,.4l-.1,-.2V88.2Z" class="g1_189"/>
<path d="M509.8,88.2h.3v-3h-.3Z" class="g1_189"/>
<path d="M529.4,113.4h.3V88h-.3Z" class="g1_189"/>
<path d="M510.1,88.4h19.5V88H510.1Z" class="g1_189"/>
<path d="M510.1,164.5v3.2h-.2l-6.3,-3l-.4,-.2l.4,-.1l6.3,-3l.2,-.1v.3l-.1,.2l-6.2,2.9l-.2,-.3h.2l6.2,2.9l-.1,.4l-.1,-.2v-3Z" class="g1_189"/>
<path d="M509.8,164.5h.3v-2.9h-.3Z" class="g1_189"/>
<path d="M529.4,189.8h.3V164.4h-.3Z" class="g1_189"/>
<path d="M510.1,164.7h19.5v-.3H510.1Z" class="g1_189"/>
<path d="M451.7,240.9v3.2l-.2,-.1l-6.4,-2.9l-.3,-.2l.3,-.2l6.4,-2.9l.2,-.1v.3l-.1,.2l-6.3,2.9l-.2,-.4h.2l6.3,3l-.1,.3l-.1,-.2v-2.9Z" class="g1_189"/>
<path d="M451.4,240.9h.3V238h-.3Z" class="g1_189"/>
<path d="M471,279.9h.3V240.7H471Z" class="g1_189"/>
<path d="M451.7,241.1h19.5v-.4H451.7Z" class="g1_189"/>
<path d="M341.9,332v3.1l-.3,-.1l-6.2,-2.8L335,332l.4,-.2l6.2,-2.9l.3,-.1v.3l-.1,.2l-6.2,2.9l-.2,-.4h.2l6.2,2.9l-.2,.3l-.1,-.1V332Z" class="g1_189"/>
<path d="M341.5,332h.4v-2.9h-.4Z" class="g1_189"/>
<path d="M341.9,332.2h18.7v-.4H341.9Z" class="g1_189"/>
<path d="M360.3,332h.3V291.8h-.3Z" class="g1_189"/>
<path d="M482.9,709.2v3.2l-.3,-.1l-6.3,-2.9l-.4,-.2l.4,-.2l6.3,-2.9l.3,-.1v.3l-.1,.2l-6.3,2.9l-.2,-.4h.2l6.3,3l-.2,.3l-.1,-.1v-3Z" class="g1_189"/>
<path d="M482.5,709.2h.4v-2.9h-.4Z" class="g1_189"/>
<path d="M482.9,709.4h18.7V709H482.9Z" class="g1_189"/>
<path d="M501.2,709.2h.4V685.1h-.4Z" class="g1_189"/>
</svg>