<?xml version="1.0" encoding="UTF-8" standalone="no"?>
<!DOCTYPE svg PUBLIC "-//W3C//DTD SVG 1.1//EN"
"http://www.w3.org/Graphics/SVG/1.1/DTD/svg11.dtd">
<svg viewBox="0 0 931 1096" version="1.1" xmlns="http://www.w3.org/2000/svg" xmlns:xlink="http://www.w3.org/1999/xlink">
<defs>
<clipPath id="c0_144"><path d="M446.2,754.2V722.5h53v31.7Z"/></clipPath>
<clipPath id="c1_144"><path d="M572.5,757V714.2h88.1V757Z"/></clipPath>
<clipPath id="c2_144"><path d="M388.2,793.8V776.9h70.3v16.9Z"/></clipPath>
<clipPath id="c3_144"><path d="M488.2,794.9v-18H629.7v18Z"/></clipPath>
<clipPath id="c4_144"><path d="M53.5,975.3V834H251V975.3Z"/></clipPath>
<style type="text/css"><![CDATA[
.g0_144{
fill: #D0007A;
}
.g1_144{
fill: #FFF;
}
.g2_144{
fill: none;
stroke: #00AEEF;
stroke-width: 1.145;
}
.g3_144{
fill: none;
stroke: #00AEEF;
stroke-width: 0.763;
}
.g4_144{
fill: none;
stroke: #241F1F;
stroke-width: 0.763;
stroke-miterlimit: 10;
}
.g5_144{
fill: none;
stroke: #EE008C;
stroke-width: 0.916;
stroke-linejoin: round;
}
.g6_144{
fill: none;
stroke: #6AC48C;
stroke-width: 0.916;
stroke-linejoin: round;
}
.g7_144{
fill: none;
stroke: #F9951B;
stroke-width: 0.763;
stroke-miterlimit: 3;
}
.g8_144{
fill: none;
stroke: #00AEEF;
stroke-width: 0.916;
stroke-linejoin: round;
}
.g9_144{
fill: #241F1F;
}
.ga_144{
fill: none;
stroke: #241F1F;
stroke-width: 0.381;
stroke-miterlimit: 3;
}
.gb_144{
fill: none;
stroke: #241F1F;
stroke-width: 0.611;
stroke-miterlimit: 3;
}
]]></style>
</defs>
<path d="M288.8,228.7c0,0,-1.6,0,-1.6,1.5v9.2c0,0,0,1.5,1.6,1.5h9.1c0,0,1.6,0,1.6,-1.5v-9.2c0,0,0,-1.5,-1.6,-1.5Z" class="g0_144"/>
<path d="M290.7,305.5c0,0,-3.1,0,-3.1,3v152c0,0,0,3.1,3.1,3.1H820.1c0,0,3,0,3,-3.1v-152c0,0,0,-3,-3,-3Z" class="g1_144"/>
<path d="M306.9,316.4c0,0,-1.5,0,-1.5,1.5V332c0,0,0,1.5,1.5,1.5H321c0,0,1.6,0,1.6,-1.5V317.9c0,0,0,-1.5,-1.6,-1.5H306.9Z" class="g2_144"/>
<path d="M290.7,305.5c0,0,-3.1,0,-3.1,3v152c0,0,0,3.1,3.1,3.1H820.1c0,0,3,0,3,-3.1v-152c0,0,0,-3,-3,-3H290.7Z" class="g3_144"/>
<path d="M587.5,624H605M320.7,738.6h17.4" class="g4_144"/>
<path clip-path="url(#c0_144)" d="M481.7,738.6h17.9" class="g4_144"/>
<path d="M584.2,729.9h14.4m42.9,8.7h17.2" class="g4_144"/>
<path clip-path="url(#c1_144)" d="M641.5,714.6H661" class="g4_144"/>
<path d="M775.9,738.6h31m-17.4,2h15.1" class="g4_144"/>
<path clip-path="url(#c2_144)" d="M443.8,777.2h15.1" class="g4_144"/>
<path clip-path="url(#c3_144)" d="M614.9,777.2h15.2" class="g4_144"/>
<path d="M290.7,884.5c0,0,-3.1,0,-3.1,3v152.1c0,0,0,3,3.1,3H820.1c0,0,3,0,3,-3V887.5c0,0,0,-3,-3,-3Z" class="g1_144"/>
<path d="M306.9,895.4c0,0,-1.5,0,-1.5,1.5V911c0,0,0,1.6,1.5,1.6H321c0,0,1.6,0,1.6,-1.6V896.9c0,0,0,-1.5,-1.6,-1.5H306.9Z" class="g2_144"/>
<path d="M290.7,884.5c0,0,-3.1,0,-3.1,3v152.1c0,0,0,3,3.1,3H820.1c0,0,3,0,3,-3V887.5c0,0,0,-3,-3,-3H290.7Z" class="g3_144"/>
<path d="M147.2,532V403.7" class="g5_144"/>
<path d="M246.3,439.1H53.5" class="g6_144"/>
<path d="M137.9,439.2v92.7m18.9,-92.7v92.6" class="g7_144"/>
<path d="M142.1,403.7C138.9,455.3,106.9,512.6,53.7,538" class="g8_144"/>
<path fill-rule="evenodd" d="M87.9,396.2l-2.5,1.6l2.5,-6.5l2.4,6.5Z" class="g9_144"/>
<path fill-rule="evenodd" d="M246.3,532l-1.7,-2.4l6.6,2.4l-6.6,2.4Z" class="g9_144"/>
<path d="M125.7,548.4l9,-13.1" class="ga_144"/>
<path d="M136.6,532.6l-1.2,4.5l-.7,-1.8l-2,-.1Z" class="g9_144"/>
<path d="M169,548.2l-9.7,-12.7" class="ga_144"/>
<path d="M157.3,532.8l3.9,2.5l-1.9,.2l-.7,1.8Z" class="g9_144"/>
<path d="M87.9,552.8V396.2M53.6,532H246.3" class="gb_144"/>
<path d="M152.6,403.6c3,39.7,8.6,107.5,93.7,110.8" class="g8_144"/>
<path d="M246.1,945.2H54.3" class="g6_144"/>
<path d="M148.2,945.3V905.6m12.4,39.7v-40" class="g7_144"/>
<path d="M154.4,975.3v-70" class="g5_144"/>
<path d="M245.8,855.7C194.6,872,159.9,905.4,157.2,975.2M54.4,913.3c62.5,-34.1,79,-60.5,97.3,61.9" class="g8_144"/>
<path fill-rule="evenodd" d="M82.1,843l-2.5,1.7l2.5,-6.6l2.4,6.6Z" class="g9_144"/>
<path fill-rule="evenodd" d="M246.1,905.3l-1.6,-2.4l6.5,2.4l-6.5,2.5Z" class="g9_144"/>
<path d="M171,876.3l-9.1,25" class="ga_144"/>
<path d="M160.8,904.4l-.1,-4.7l1.2,1.6l2,-.4Z" class="g9_144"/>
<path d="M136.7,876.6l9.3,24.8" class="ga_144"/>
<path d="M147.1,904.6L144,901l2,.4l1.2,-1.5Z" class="g9_144"/>
<path clip-path="url(#c4_144)" d="M82.1,974.6V843M53.5,905.3H246.1" class="gb_144"/>
</svg>