<?xml version="1.0" encoding="UTF-8" standalone="no"?>
<!DOCTYPE svg PUBLIC "-//W3C//DTD SVG 1.1//EN"
"http://www.w3.org/Graphics/SVG/1.1/DTD/svg11.dtd">
<svg viewBox="0 0 907 1045" version="1.1" xmlns="http://www.w3.org/2000/svg" xmlns:xlink="http://www.w3.org/1999/xlink">
<defs>
<clipPath id="c0_222"><path d="M269.1,645.8c.4,-1.2,-1.8,-1.7,.8,-2.5c-1.3,-4.5,-3.4,-7.4,-4.9,-12.1h-.8c-1.5,2,-1.8,5.1,-.8,8.9c2.5,.2,1.3,1.2,2.4,2.4h-8.1c.3,-1.3,-.3,-1.8,-.8,-2.4c2.6,-.5,.6,-.6,2.4,-.8c-.8,-15.7,0,-.6,-.8,-16.3c-7.3,-1.7,-.6,.2,-4.1,-2.4q.1,0,.1,0c2.5,0,5,-1.3,6.5,-1.6h4.8c2.3,1.8,4.4,4.4,4.9,8.1h.8v-1.6h.8v-.8h.9v-.9h.8V623h1.6c2.1,1.1,3.8,3.4,5.7,4.9c.7,1.7,.6,2.5,-.4,2.5c-.1,0,-.3,0,-.4,-.1c.5,.7,1,1,.8,2.5h1.6c0,-12.1,.2,-6.3,-.8,-13.8c-1.9,-1,-1.2,-1.5,-2.4,-3.3c.9,.5,1.7,.7,2.2,.7c.8,0,1.2,-.5,1,-1.5h2.4v.8h.9v1.7h.8v.8h-.8v6.5h.8v-.9h1.6V623h4.1c2.6,2.9,3.4,7.3,4,12.2h.8c.9,-.7,1.6,-1.7,2.5,-2.4c-1.1,-3.7,-2.1,-5.5,-4.1,-8.1c1.5,-.2,3.4,-1.5,4.1,-1.7h.8v1.7h.8v2.4h1.6v-1.6h.9v-.8h.8v-3.3h.8c-.2,.9,.1,1.3,.7,1.3c.4,0,1,-.2,1.7,-.5c-.2,.6,-.1,.9,.3,.9c.2,0,.3,0,.5,-.1c-1.9,2.3,-4,4.9,-4.8,8.2c1.5,1,.6,1.6,1.6,3.2c4.7,.4,.8,.2,3.2,.8c-.2,2.5,-.5,1,-1.6,2.5h-4.1v-.9h-.8V636h.8v-1.6h-1.6V636h-.8v1.7H300v2.4h-.8v-.8h-1.7v-1.6h-1.6v.8h-2.4v.8h-.8v-1.6h-2.5v.8h-2.4v-.8H287v-.9h-.8v2.5h1.6v1.6h.8v.8h-.8v.8h-4.9c-1.1,-.9,-1.9,-1.7,-2.4,-3.2c.2,0,.4,0,.6,0c3.7,0,.2,-.7,2.6,-1.6c0,-1.1,0,-2.2,0,-3.3h-1.6c-1.6,2.4,-2,4.1,-5.8,4.1c-.3,0,-.5,0,-.7,0c.1,.7,.3,.8,.4,.8q.1,0,.2,0c.1,0,.2,.2,.2,1.6c-1.9,1.5,-3.6,3.6,-5.7,4.9Zm4.1,-58.5c-.7,-.5,-1.5,-1.4,-2.5,-1.6c-.8,-5.1,.4,-5,2.5,-6.5h2.4c2.1,1.5,3.3,1.4,2.4,6.5c-1,.2,-1.8,1.1,-2.4,1.6Zm-24.9,68.3c-.4,0,-.8,-.1,-1.2,-.1h-1.6c-9.2,-1.6,-25,-4.7,-25.2,-15.4c4.1,-4.1,13,-3.1,17.1,-7.3c3.2,-3.4,4.8,-11.7,6.5,-16.3C239.7,605.1,232,597.1,230.1,584.1c.2,0,.3,.1,.5,.1c.4,0,.5,-.3,.3,-.9c.9,.4,1.7,.6,2.2,.6c.9,0,1.2,-.5,1,-1.5H239c4.8,1.7,11.7,1.4,15.4,4.1h3.3c1.4,-3.5,3.1,-6,4.9,-8.9h3.2c-.5,5,-3.2,6.8,-4.8,10.5c6.5,2.2,16.7,3.7,17,12.2c-17.1,7.8,-30.4,16.8,-34.1,38.2c5.3,2.5,8.5,6.4,12.2,10.5c-.1,4.5,-3.5,6.6,-7.8,6.6Zm24.9,-82.1v-.8h-.9v-.8h-.8v-2.5h.8v-1.6h4.9v1.6h.8v2.5h-.8v.8h-.8v.8Z"/></clipPath>
<clipPath id="c1_222"><path d="M-2.6,1047.7V-2.6H910.2V1047.7Z"/></clipPath>
<style type="text/css"><![CDATA[
.g0_222{
fill: none;
stroke: #000000;
stroke-width: 1.527;
stroke-linecap: round;
stroke-linejoin: round;
stroke-miterlimit: 4;
stroke-dasharray: 0,1;
}
.g1_222{
fill: none;
stroke: #000000;
stroke-width: 1.527;
stroke-linecap: round;
stroke-linejoin: round;
stroke-miterlimit: 4;
stroke-dasharray: 0,5;
}
.g2_222{
fill: none;
stroke: #000000;
stroke-width: 1.527;
stroke-linecap: round;
stroke-linejoin: round;
stroke-miterlimit: 4;
}
.g3_222{
fill: none;
stroke: #FFFFFF;
stroke-width: 1.909;
stroke-linecap: butt;
stroke-linejoin: miter;
}
.g4_222{
fill: none;
stroke: #000000;
stroke-width: 0.381;
stroke-linecap: butt;
stroke-linejoin: miter;
}
]]></style>
</defs>
<path d="M214.1,604.2c0,-.1,0,-.2,0,-.2" class="g0_222"/>
<path d="M214.1,608.8c0,0,0,292.8,0,292.8" class="g1_222"/>
<path d="M214.3,904.1q-.1,0,-.2,0" class="g0_222"/>
<path d="M218.9,904.1c0,0,488.2,0,488.2,0" class="g1_222"/>
<path d="M709.7,903.9c0,.1,-.1,.1,-.1,.2" class="g0_222"/>
<path d="M709.7,899.3c0,0,0,-292.8,0,-292.8" class="g1_222"/>
<path d="M709.4,603.9q.1,0,.2,.1" class="g0_222"/>
<path d="M704.8,603.9c0,0,-488.2,0,-488.2,0" class="g1_222"/>
<path d="M214.1,604.2v0m0,299.7v0m.2,.2v0m495.1,0v0m.3,-.2v0m0,-299.7v0m-.3,-.3v0m-495.1,0v0" class="g2_222"/>
<image clip-path="url(#c0_222)" preserveAspectRatio="none" x="215" y="565" width="96" height="94" xlink:href="img/1.jpg"/>
<g clip-path="url(#c1_222)">
<path d="M-4.5,13.7H-27.4m939.5,0H935M-4.5,1031.2H-27.4m939.5,0H935M13.7,-4.5V-27.4m0,1077v22.9m880,-1077V-27.4m0,1077v22.9" class="g3_222"/>
<path d="M-4.5,13.7H-27.4m939.5,0H935M-4.5,1031.2H-27.4m939.5,0H935M13.7,-4.5V-27.4m0,1077v22.9m880,-1077V-27.4m0,1077v22.9" class="g4_222"/>
</g>
</svg>