<?xml version="1.0" encoding="UTF-8" standalone="no"?>
<!DOCTYPE svg PUBLIC "-//W3C//DTD SVG 1.1//EN"
"http://www.w3.org/Graphics/SVG/1.1/DTD/svg11.dtd">
<svg viewBox="0 0 660 990" version="1.1" xmlns="http://www.w3.org/2000/svg" xmlns:xlink="http://www.w3.org/1999/xlink">
<defs>
<clipPath id="c0_107"><path d="M86.9,94.8L85.7,92.5L84.5,90.1h491l-1.2,2.4l-1.2,2.3Z"/></clipPath>
<clipPath id="c1_107"><path d="M576.5,499.4l-2.3,-1.2L571.8,497V93.6l2.4,-1.2l2.3,-1.2V499.4Z"/></clipPath>
<clipPath id="c2_107"><path d="M84.5,500.5l1.2,-2.4l1.2,-2.4H573.1l1.2,2.4l1.2,2.4Z"/></clipPath>
<clipPath id="c3_107"><path d="M83.5,499.4V91.2l2.3,1.2l2.4,1.2V497l-2.4,1.2l-2.3,1.2Z"/></clipPath>
<clipPath id="c4_107"><path d="M85.6,915.9v-5.1H574.4v5.1Z"/></clipPath>
<clipPath id="c5_107"><path d="M240.4,190.5V176.8h13.7v13.7Z"/></clipPath>
<clipPath id="c6_107"><path d="M275.4,305.2V291.5h13.8v13.7Z"/></clipPath>
<clipPath id="c7_107"><path d="M240.4,321.7V308h13.7v13.7Z"/></clipPath>
<clipPath id="c8_107"><path d="M97.5,412.2V398.4h13.8v13.8Z"/></clipPath>
<clipPath id="c9_107"><path d="M97.5,445.6V431.9h13.8v13.7Z"/></clipPath>
<clipPath id="ca_107"><path d="M97.5,479.1V465.3h13.8v13.8Z"/></clipPath>
<style type="text/css"><![CDATA[
.g0_107{
fill: none;
stroke: #231F20;
stroke-width: 0.381;
stroke-linecap: round;
stroke-linejoin: miter;
}
.g1_107{
fill: #FFFFFF;
}
.g2_107{
fill: #231F20;
}
.g3_107{
fill: none;
stroke: #231F20;
stroke-width: 1.527;
stroke-linecap: butt;
stroke-linejoin: miter;
stroke-miterlimit: 4;
}
.g4_107{
fill: none;
stroke: #231F20;
stroke-width: 0.763;
stroke-linecap: round;
stroke-linejoin: miter;
}
]]></style>
</defs>
<path clip-path="url(#c0_107)" d="M85.6,92.5H574.4" class="g0_107"/>
<path clip-path="url(#c1_107)" d="M574.2,92.3v406" class="g0_107"/>
<path clip-path="url(#c2_107)" d="M574.4,498.1H85.6" class="g0_107"/>
<path clip-path="url(#c3_107)" d="M85.8,498.3V92.3" class="g0_107"/>
<path fill-rule="evenodd" d="M597.3,913H660v77H597.3V913Z" class="g1_107"/>
<path fill-rule="evenodd" d="M597.3,446.6H660V539H597.3V446.6Z" class="g2_107"/>
<path fill-rule="evenodd" d="M597.3,0H660V77H597.3V0Z" class="g1_107"/>
<path clip-path="url(#c4_107)" d="M85.6,913.4H574.4" class="g4_107"/>
<g clip-path="url(#c5_107)">
<path d="M247.2,178.3c3,0,5.4,2.4,5.4,5.4c0,2.9,-2.4,5.3,-5.4,5.3c-2.9,0,-5.3,-2.4,-5.3,-5.3c0,-3,2.4,-5.4,5.3,-5.4Z" class="g2_107"/>
<path d="M247.2,178.3c3,0,5.4,2.4,5.4,5.4c0,2.9,-2.4,5.3,-5.4,5.3c-2.9,0,-5.3,-2.4,-5.3,-5.3c0,-3,2.4,-5.4,5.3,-5.4Z" class="g3_107"/>
<path d="M245.2,181.6h.2c1.3,0,1.6,-.6,1.6,-1.1h1.1v6.6h-1.3v-4.6h-1.6v-.9Z" class="g1_107"/>
</g>
<g clip-path="url(#c6_107)">
<path d="M282.3,293c3,0,5.4,2.4,5.4,5.3c0,3,-2.4,5.4,-5.4,5.4c-2.9,0,-5.3,-2.4,-5.3,-5.4c0,-2.9,2.4,-5.3,5.3,-5.3Z" class="g2_107"/>
<path d="M282.3,293c3,0,5.4,2.4,5.4,5.3c0,3,-2.4,5.4,-5.4,5.4c-2.9,0,-5.3,-2.4,-5.3,-5.4c0,-2.9,2.4,-5.3,5.3,-5.3Z" class="g3_107"/>
<path d="M280,296.9c0,-2.1,1.6,-2.3,2.2,-2.3c1.3,0,2.3,.7,2.3,2.1c0,1.1,-.8,1.7,-1.4,2.1c-.9,.7,-1.3,1,-1.5,1.3h2.9v1.1h-4.6c.1,-.7,.1,-1.6,1.6,-2.6c1.2,-.9,1.7,-1.2,1.7,-2c0,-.4,-.3,-.9,-1,-.9c-.9,0,-.9,.7,-.9,1.2H280Z" class="g1_107"/>
</g>
<g clip-path="url(#c7_107)">
<path d="M247.2,309.5c3,0,5.4,2.4,5.4,5.3c0,3,-2.4,5.4,-5.4,5.4c-2.9,0,-5.3,-2.4,-5.3,-5.4c0,-2.9,2.4,-5.3,5.3,-5.3Z" class="g2_107"/>
<path d="M247.2,309.5c3,0,5.4,2.4,5.4,5.3c0,3,-2.4,5.4,-5.4,5.4c-2.9,0,-5.3,-2.4,-5.3,-5.4c0,-2.9,2.4,-5.3,5.3,-5.3Z" class="g3_107"/>
<path d="M246.8,314h.2c.4,0,1.1,0,1.1,-.9c0,-.2,-.1,-.9,-.8,-.9c-.9,0,-.9,.9,-.9,1.1h-1.2c0,-1.2,.7,-2.1,2.2,-2.1c.8,0,2,.4,2,1.8c0,.7,-.4,1.1,-.8,1.3c.3,.1,1,.4,1,1.6c0,1.2,-.9,2.1,-2.2,2.1c-.7,0,-2.4,-.1,-2.4,-2.2h1.3c0,.4,.1,1.2,1,1.2c.5,0,1,-.4,1,-1.1c0,-.9,-.9,-1,-1.5,-1V314Z" class="g1_107"/>
</g>
<g clip-path="url(#c8_107)">
<path d="M104.4,400c2.9,0,5.3,2.4,5.3,5.3c0,3,-2.4,5.4,-5.3,5.4c-3,0,-5.4,-2.4,-5.4,-5.4c0,-2.9,2.4,-5.3,5.4,-5.3Z" class="g2_107"/>
<path d="M104.4,400c2.9,0,5.3,2.4,5.3,5.3c0,3,-2.4,5.4,-5.3,5.4c-3,0,-5.4,-2.4,-5.4,-5.4c0,-2.9,2.4,-5.3,5.4,-5.3Z" class="g3_107"/>
<path d="M102.4,403.3h.2c1.2,0,1.6,-.7,1.6,-1.2h1.1v6.7h-1.4v-4.6h-1.5v-.9Z" class="g1_107"/>
</g>
<g clip-path="url(#c9_107)">
<path d="M104.4,433.4c2.9,0,5.3,2.4,5.3,5.4c0,2.9,-2.4,5.3,-5.3,5.3c-3,0,-5.4,-2.4,-5.4,-5.3c0,-3,2.4,-5.4,5.4,-5.4Z" class="g2_107"/>
<path d="M104.4,433.4c2.9,0,5.3,2.4,5.3,5.4c0,2.9,-2.4,5.3,-5.3,5.3c-3,0,-5.4,-2.4,-5.4,-5.3c0,-3,2.4,-5.4,5.4,-5.4Z" class="g3_107"/>
<path d="M102.1,437.4c0,-2.2,1.6,-2.4,2.2,-2.4c1.3,0,2.3,.8,2.3,2.1c0,1.1,-.8,1.7,-1.4,2.2c-.9,.6,-1.4,.9,-1.5,1.2h2.9v1.2H102c.1,-.8,.1,-1.6,1.6,-2.7c1.2,-.9,1.7,-1.2,1.7,-1.9c0,-.5,-.3,-1,-1,-1c-.9,0,-.9,.8,-.9,1.3h-1.3Z" class="g1_107"/>
</g>
<g clip-path="url(#ca_107)">
<path d="M104.4,466.8c2.9,0,5.3,2.4,5.3,5.4c0,2.9,-2.4,5.3,-5.3,5.3c-3,0,-5.4,-2.4,-5.4,-5.3c0,-3,2.4,-5.4,5.4,-5.4Z" class="g2_107"/>
<path d="M104.4,466.8c2.9,0,5.3,2.4,5.3,5.4c0,2.9,-2.4,5.3,-5.3,5.3c-3,0,-5.4,-2.4,-5.4,-5.3c0,-3,2.4,-5.4,5.4,-5.4Z" class="g3_107"/>
<path d="M103.9,471.4h.2c.4,0,1.2,-.1,1.2,-.9c0,-.3,-.2,-.9,-.9,-.9c-.9,0,-.9,.9,-.9,1.1h-1.2c0,-1.3,.7,-2.1,2.2,-2.1c.9,0,2.1,.4,2.1,1.8c0,.7,-.5,1.1,-.8,1.3c.2,.1,1,.4,1,1.5c0,1.3,-1,2.2,-2.3,2.2c-.6,0,-2.3,-.2,-2.3,-2.2h1.3c0,.3,.1,1.1,.9,1.1c.6,0,1,-.3,1,-1.1c0,-.9,-.9,-.9,-1.5,-.9v-.9Z" class="g1_107"/>
</g>
</svg>