<?xml version="1.0" encoding="UTF-8" standalone="no"?>
<!DOCTYPE svg PUBLIC "-//W3C//DTD SVG 1.1//EN"
"http://www.w3.org/Graphics/SVG/1.1/DTD/svg11.dtd">
<svg viewBox="0 0 662 1017" version="1.1" xmlns="http://www.w3.org/2000/svg" xmlns:xlink="http://www.w3.org/1999/xlink">
<defs>
<style type="text/css"><![CDATA[
.g0_305{
fill: none;
stroke: #000;
stroke-width: 0.733;
stroke-linecap: round;
stroke-miterlimit: 10;
}
.g1_305{
fill: #000;
}
.g2_305{
fill: #FFF;
stroke: #FFF;
stroke-width: 1.527;
stroke-miterlimit: 10;
}
]]></style>
</defs>
<path d="M188.6 365.5v-220m330.1 220H188.6m0 0v13.7m55 -13.7v13.7m55 -13.7v13.7m55.1 -13.7v13.7m55 -13.7v13.7m55 -13.7v13.7m55 -13.7v13.7M188.6 365.5H174.9M188.6 292H174.9m13.7 -73.2H174.9m13.7 -73.3H174.9m13.7 73.3l55 -16.5m-55 31.2l55 117.3m-55 -119.7l55 27.9m0 -56.7l32.1 -7.1M243.6 350.8l32.1 2.2M243.6 259l32.1 4.2m0 -68l22.9 -10.1M275.7 353l22.9 -.3M275.7 263.2l22.9 .7m0 -78.8l32.1 11.4M298.6 352.7l32.1 .3M298.6 263.9l32.1 1.3m0 -68.7l23 -25M330.7 353h23m-23 -87.8l23 .7m0 -94.4l32 8.8M353.7 353l32 .4m-32 -87.5l32 -.3m0 -85.3l23 -4.4m-23 177.5l23 .5m-23 -88.3l23 -.4m0 -89.3l32 -.7m-32 178.7l32 .2m-32 -88.9l32 .2m0 -90.2l23 1.3m-23 177.6l23 1.3m-23 -90l23 -.4m0 -88.5h32m-32 178.9l32 1.3M463.7 265l32 .4" class="g0_305"/>
<path d="M56.8 844.4v-1.5H276.6v1.5Z" class="g1_305"/>
<path d="M454.3 1016H660.7v-15.9H454.3Z" class="g2_305"/>
</svg>