<?xml version="1.0" encoding="UTF-8" standalone="no"?>
<!DOCTYPE svg PUBLIC "-//W3C//DTD SVG 1.1//EN"
"http://www.w3.org/Graphics/SVG/1.1/DTD/svg11.dtd">
<svg viewBox="0 0 662 1017" version="1.1" xmlns="http://www.w3.org/2000/svg" xmlns:xlink="http://www.w3.org/1999/xlink">
<defs>
<style type="text/css"><![CDATA[
.g0_128{
fill: none;
stroke: #000;
stroke-width: 0.733;
stroke-linecap: round;
stroke-miterlimit: 10;
}
.g1_128{
fill: #000;
}
.g2_128{
fill: #FFF;
stroke: #FFF;
stroke-width: 1.527;
stroke-miterlimit: 10;
}
]]></style>
</defs>
<path d="M92.4 129h33" class="g0_128"/>
<path d="M114.4 126.2l11 2.8l-11 2.7Z" class="g1_128"/>
<path d="M114.4 126.2l11 2.8l-11 2.7Zm11 30.3h66v-55h-66Zm66 -27.5h33" class="g0_128"/>
<path d="M213.4 126.2l11 2.8l-11 2.7Z" class="g1_128"/>
<path d="M213.4 126.2l11 2.8l-11 2.7Zm11 30.3h82.5v-55H224.4ZM306.9 129h33" class="g0_128"/>
<path d="M328.9 126.2l11 2.8l-11 2.7Z" class="g1_128"/>
<path d="M328.9 126.2l11 2.8l-11 2.7Zm11 30.3h132v-55h-132ZM471.9 129h33" class="g0_128"/>
<path d="M493.9 126.2l11 2.8l-11 2.7Z" class="g1_128"/>
<path d="M493.9 126.2l11 2.8l-11 2.7Zm11 30.3h66v-55h-66ZM92.4 195h33m0 0h33" class="g0_128"/>
<path d="M147.4 192.2l11 2.8l-11 2.7Z" class="g1_128"/>
<path d="M147.4 192.2l11 2.8l-11 2.7Zm11 30.3h66v-55h-66Zm66 -27.5h33" class="g0_128"/>
<path d="M246.4 192.2l11 2.8l-11 2.7Z" class="g1_128"/>
<path d="M246.4 192.2l11 2.8l-11 2.7Zm11 30.3h82.5v-55H257.4ZM339.9 195h33" class="g0_128"/>
<path d="M361.9 192.2l11 2.8l-11 2.7Z" class="g1_128"/>
<path d="M361.9 192.2l11 2.8l-11 2.7Zm11 30.3h132v-55h-132ZM504.9 195h33" class="g0_128"/>
<path d="M526.9 192.2l11 2.8l-11 2.7Z" class="g1_128"/>
<path d="M526.9 192.2l11 2.8l-11 2.7Zm11 30.3h66v-55h-66Z" class="g0_128"/>
<path d="M454.3 1016H660.7v-15.9H454.3Z" class="g2_128"/>
</svg>