<?xml version="1.0" encoding="UTF-8" standalone="no"?>
<!DOCTYPE svg PUBLIC "-//W3C//DTD SVG 1.1//EN"
"http://www.w3.org/Graphics/SVG/1.1/DTD/svg11.dtd">
<svg viewBox="0 0 811 1017" version="1.1" xmlns="http://www.w3.org/2000/svg" xmlns:xlink="http://www.w3.org/1999/xlink">
<defs>
<style type="text/css"><![CDATA[
.g0_71{
fill: #000;
}
]]></style>
</defs>
<path d="M642.2,488.9v3.2l-.3,-.2L635.7,489l-.5,-.1l.5,-.2l6.2,-3l.3,-.1v.3l-.1,.2l-6.3,2.9l-.1,-.3h.1l6.3,2.9l-.2,.3l-.1,-.1v-2.9Z" class="g0_71"/>
<path d="M641.8,488.9h.4v-3h-.4v3Z" class="g0_71"/>
<path d="M642.2,489h21.5v-.3H642.2v.3Z" class="g0_71"/>
<path d="M663.3,488.9h.4V447.7h-.4v41.2Z" class="g0_71"/>
<path d="M478.9,563.8V567l-.3,-.2l-6.3,-2.9l-.4,-.1l.4,-.2l6.3,-2.9l.3,-.2v.4l-.2,.1l-6.3,2.9l-.1,-.3h.1l6.3,2.9l-.1,.3l-.1,-.1v-2.9Z" class="g0_71"/>
<path d="M478.5,563.8h.4v-2.9h-.4v2.9Z" class="g0_71"/>
<path d="M478.9,564h79.9v-.4H478.9v.4Z" class="g0_71"/>
<path d="M558.4,598.7h.4V563.8h-.4v34.9Z" class="g0_71"/>
<path d="M478.9,639.7v3.2l-.3,-.1l-6.3,-3l-.4,-.1l.4,-.2l6.3,-2.9l.3,-.2v.4l-.2,.1l-6.3,2.9l-.1,-.3h.1l6.3,2.9l-.1,.4l-.1,-.2v-2.9Z" class="g0_71"/>
<path d="M478.5,639.7h.4v-2.9h-.4v2.9Z" class="g0_71"/>
<path d="M478.9,639.9h79.9v-.4H478.9v.4Z" class="g0_71"/>
<path d="M558.4,639.7h.4v-41h-.4v41Z" class="g0_71"/>
<path d="M478.9,717v3.2l-.3,-.1l-6.3,-2.9L472,717l.3,-.2l6.3,-2.9l.3,-.1v.3l-.2,.2l-6.3,2.9l-.1,-.4h.1l6.3,3l-.1,.3l-.1,-.1v-3Z" class="g0_71"/>
<path d="M478.5,717h.4v-2.9h-.4V717Z" class="g0_71"/>
<path d="M478.9,717.2h79.9v-.4H478.9v.4Z" class="g0_71"/>
<path d="M558.4,717h.4V598.7h-.4V717Z" class="g0_71"/>
<path d="M478.9,793v3.2l-.3,-.2l-6.3,-2.9l-.4,-.1l.4,-.2l6.3,-3l.3,-.1v.3l-.2,.2l-6.3,2.9l-.1,-.3h.1l6.3,2.9l-.1,.3l-.1,-.1V793Z" class="g0_71"/>
<path d="M478.5,793h.4v-3h-.4v3Z" class="g0_71"/>
<path d="M478.9,793.1h79.9v-.3H478.9v.3Z" class="g0_71"/>
<path d="M558.4,793h.4V598.7h-.4V793Z" class="g0_71"/>
<image preserveAspectRatio="none" x="203" y="990" width="405" height="28" xlink:href="img/1.jpg"/>
</svg>