<?xml version="1.0" encoding="UTF-8" standalone="no"?>
<!DOCTYPE svg PUBLIC "-//W3C//DTD SVG 1.1//EN"
"http://www.w3.org/Graphics/SVG/1.1/DTD/svg11.dtd">
<svg viewBox="0 0 811 1017" version="1.1" xmlns="http://www.w3.org/2000/svg" xmlns:xlink="http://www.w3.org/1999/xlink">
<defs>
<style type="text/css"><![CDATA[
.g0_392{
fill: #FFFFFF;
}
.g1_392{
fill: none;
stroke: #231F20;
stroke-width: 0.763;
stroke-linecap: butt;
stroke-linejoin: round;
}
.g2_392{
fill: none;
stroke: #231F20;
stroke-width: 0.458;
stroke-linecap: butt;
stroke-linejoin: miter;
stroke-miterlimit: 4;
}
.g3_392{
fill: #231F20;
}
.g4_392{
fill: #5A5758;
}
.g5_392{
fill: #EFEFEF;
}
.g6_392{
fill: #DFDFDF;
}
.g7_392{
fill: #EC2224;
}
.g8_392{
fill: #23ACDC;
}
.g9_392{
fill: #C9C9C8;
}
.ga_392{
fill: #ED3454;
}
.gb_392{
fill: #961E47;
}
]]></style>
</defs>
<path d="M89.7,269.3H690.9V84.8H89.7Z" class="g0_392"/>
<path d="M90,102.2H200.5V161H90Zm128.5,-.4H418.4v58.9H218.5Zm216.8,.1H653v58.6H435.3Z" class="g1_392"/>
<path d="M317.1,248.5C257.7,211.8,148.7,225.4,142.2,192" class="g2_392"/>
<path d="M145.3,192.5L142,187.9l-2.4,5.1l5.7,-.5Z" class="g3_392"/>
<path d="M346.8,248c3.8,-23.5,-15.7,-36,-17,-57.7" class="g2_392"/>
<path d="M332.7,191.1l-3,-4.9l-2.7,5l5.7,-.1Z" class="g3_392"/>
<path d="M377.8,246.8c31.4,-31.5,161.1,-19.1,167.6,-60.9" class="g2_392"/>
<path d="M548.1,187l-2.4,-5.2l-3.3,4.7l5.7,.5Z" class="g3_392"/>
<path d="M143.5,830.3H705.2V529.9H143.5Z" class="g0_392"/>
<path d="M200.6,682.3v-2.8c0,-1.7,-1.4,-3.2,-3.1,-3.2H147.4c-1.7,0,-3.1,1.5,-3.1,3.2v2.8h56.3Z" class="g3_392"/>
<path d="M157,682.3H144.3v-2.8c0,-1.7,1.4,-3.2,3.1,-3.2h13.1l-3.5,6Z" class="g4_392"/>
<path d="M145.1,721.9h54.7V683.2H145.1Z" class="g0_392"/>
<path d="M198.9,684.1v37H146v-37h52.9m1.7,-1.8H144.3v40.5h56.3Z" class="g5_392"/>
<path d="M198,685v35.2H146.9V685H198m.4,-.5H146.5v36.1h51.9Z" class="g6_392"/>
<path d="M149.6,679.3c0,.5,-.4,.9,-.9,.9c-.5,0,-.9,-.4,-.9,-.9c0,-.5,.4,-.9,.9,-.9c.5,0,.9,.4,.9,.9Z" class="g7_392"/>
<path d="M152.3,679.3c0,.5,-.4,.9,-.9,.9c-.5,0,-.9,-.4,-.9,-.9c0,-.5,.4,-.9,.9,-.9c.5,0,.9,.4,.9,.9Z" class="g8_392"/>
<path d="M155,679.3c0,.5,-.4,.9,-.9,.9c-.5,0,-.9,-.4,-.9,-.9c0,-.5,.4,-.9,.9,-.9c.5,0,.9,.4,.9,.9Z" class="g0_392"/>
<path d="M191.4,680.9H163.1c-.9,0,-1.6,-.7,-1.6,-1.6c0,-.8,.7,-1.6,1.6,-1.6h28.3c.9,0,1.6,.7,1.6,1.6c0,.9,-.7,1.6,-1.6,1.6Z" class="g0_392"/>
<path d="M164.2,678.6l.2,.8c0,.2,.1,.4,.1,.6c0,-.2,.1,-.4,.2,-.5l.2,-.9h.3l.2,.9c.1,.1,.1,.3,.1,.5h.1c0,-.2,0,-.4,.1,-.5l.2,-.9h.3l-.5,1.7h-.3l-.2,-.8c-.1,-.2,-.1,-.4,-.2,-.6c0,.2,-.1,.4,-.1,.6l-.3,.8h-.2l-.5,-1.7h.3Z" class="g3_392"/>
<path d="M166.7,678.6l.2,.8c0,.2,.1,.4,.1,.6c.1,-.2,.1,-.4,.2,-.5l.2,-.9h.3l.2,.9c.1,.1,.1,.3,.2,.5c0,-.2,.1,-.4,.1,-.5l.2,-.9h.3l-.5,1.7h-.3l-.2,-.8c-.1,-.2,-.1,-.4,-.1,-.6c-.1,.2,-.1,.4,-.2,.6l-.2,.7h-.3l-.5,-1.6h.3Z" class="g3_392"/>
<path d="M169.2,678.6l.2,.8c.1,.2,.1,.4,.1,.6h.1c0,-.2,.1,-.4,.1,-.5l.3,-.9h.2l.3,.9c0,.1,.1,.3,.1,.5c.1,-.2,.1,-.4,.1,-.5l.3,-.9h.3l-.6,1.7h-.2l-.3,-.8c0,-.2,-.1,-.4,-.1,-.6c0,.2,-.1,.4,-.1,.6l-.3,.8h-.3l-.5,-1.7h.3Z" class="g3_392"/>
<path d="M171.4,680.1l.2,-.2l.2,.2c0,.1,-.1,.2,-.2,.2l-.2,-.2Z" class="g3_392"/>
<path d="M195.1,679.6h2.5v-.4h-2.5Z" class="g0_392"/>
<path d="M196.5,680.7l-.3,-.3l1,-1l-1,-1l.3,-.3l1.3,1.3l-1.3,1.3Z" class="g0_392"/>
<path d="M191.6,678.8l-.8,1.1l-.9,-1.1h1.7Z" class="g9_392"/>
<path d="M174.8,713.2h3v-8.3h-3Z" class="ga_392"/>
<path d="M179.9,713.2h3v-4.9h-3Z" class="g8_392"/>
<path d="M169.8,713.1h3V700.3h-3Z" class="g8_392"/>
<path d="M164.7,713.2h3.1V692h-3.1Z" class="ga_392"/>
<path d="M159.7,713.2h3V696.3h-3Z" class="g8_392"/>
<path d="M154.6,713.2h3.1V703.1h-3.1Z" class="ga_392"/>
<path d="M185,702.1l4.6,4.6l2,-2L187,700.1l2,-2l-7.3,-1.2l1.2,7.3l2.1,-2.1Z" class="g8_392"/>
<path d="M542.4,694.3h29.4v-5.6c0,-1.8,.9,-3.4,2.3,-4.4v-.5c0,-.7,.1,-1.4,.2,-2.1H542.4c-3.5,0,-6.3,2.8,-6.3,6.3c0,3.5,2.8,6.3,6.3,6.3Zm11.7,-7.9c.8,0,1.6,.7,1.6,1.6c0,.9,-.8,1.6,-1.6,1.6c-.9,0,-1.6,-.7,-1.6,-1.6c0,-.8,.7,-1.6,1.6,-1.6Zm-4.9,0c.9,0,1.6,.7,1.6,1.6c0,.9,-.7,1.6,-1.6,1.6c-.9,0,-1.6,-.7,-1.6,-1.6c0,-.8,.7,-1.6,1.6,-1.6ZM542.7,685c1.7,0,3.1,1.3,3.1,3c0,1.7,-1.4,3.1,-3.1,3.1c-1.7,0,-3,-1.4,-3,-3.1c0,-1.7,1.3,-3,3,-3Z" class="gb_392"/>
<path d="M554.9,723.1c0,-.7,.1,-1.4,.2,-2H540.2c-1.2,0,-2.1,.9,-2.1,2c0,1.1,.9,2.1,2.1,2.1h14.9c-.1,-.7,-.2,-1.4,-.2,-2.1Z" class="gb_392"/>
<path d="M587,723.1c0,-1.1,-.9,-2,-2.1,-2H569.8c.2,.6,.3,1.3,.3,2c0,.7,-.1,1.4,-.3,2.1h15.1c1.2,0,2.1,-1,2.1,-2.1Z" class="gb_392"/>
<path d="M577.2,702.4h16.2c1.2,0,2.2,-.9,2.2,-2.1V688.7c0,-1.2,-1,-2.1,-2.2,-2.1v-2.8c0,-4.4,-3.6,-8,-8,-8c-4.4,0,-8,3.6,-8,8v2.8h-.2c-1.1,0,-2.1,.9,-2.1,2.1v11.6c0,1.2,1,2.1,2.1,2.1Zm9.4,-7.4c-.2,.2,-.2,.3,-.2,.5c0,.8,0,1.7,0,2.5c0,.4,-.2,.7,-.5,.9c-.7,.4,-1.5,-.2,-1.5,-.9c0,-.8,0,-1.7,0,-2.5c0,-.2,0,-.3,-.2,-.4c-.8,-.6,-1,-1.6,-.6,-2.4c.3,-.9,1.3,-1.3,2.1,-1.2c1,.2,1.7,1,1.7,2c0,.6,-.3,1.1,-.8,1.5Zm-5.7,-11.2c0,-2.5,2,-4.5,4.5,-4.5c2.5,0,4.5,2,4.5,4.5v2.8h-9v-2.8Z" class="gb_392"/>
<path d="M542.4,710.9h18v7.9c-1.6,.8,-2.7,2.4,-2.7,4.3c0,2.6,2.2,4.8,4.8,4.8c2.6,0,4.7,-2.2,4.7,-4.8c0,-1.9,-1.1,-3.5,-2.7,-4.3v-7.9h19.2c3.1,0,5.7,-2.2,6.2,-5.2H577.2c-2.9,0,-5.4,-2.4,-5.4,-5.4v-1.9H542.4c-3.5,0,-6.3,2.8,-6.3,6.2c0,3.5,2.8,6.3,6.3,6.3Zm11.7,-7.8c.8,0,1.6,.7,1.6,1.5c0,.9,-.8,1.6,-1.6,1.6c-.9,0,-1.6,-.7,-1.6,-1.6c0,-.8,.7,-1.5,1.6,-1.5Zm-4.9,0c.9,0,1.6,.7,1.6,1.5c0,.9,-.7,1.6,-1.6,1.6c-.9,0,-1.6,-.7,-1.6,-1.6c0,-.8,.7,-1.5,1.6,-1.5Zm-6.5,-1.5c1.7,0,3.1,1.4,3.1,3c0,1.7,-1.4,3.1,-3.1,3.1c-1.7,0,-3,-1.4,-3,-3.1c0,-1.6,1.3,-3,3,-3Z" class="gb_392"/>
<path d="M388.5,696.4c0,-3.8,-5.5,-6,-11,-6.3c-.5,-3.6,-3.6,-9.8,-6.7,-9.8c-1.2,0,-2.5,.3,-3.9,.6c-1.6,.3,-3.4,.7,-5.1,.7c-1.7,0,-3.5,-.4,-5.1,-.7c-1.4,-.3,-2.7,-.6,-3.8,-.6c-3.2,0,-6.3,6.2,-6.8,9.8c-5.5,.3,-11,2.5,-11,6.3c0,2.6,3.1,6,9.5,8.2c-2,1.3,-2.2,3.6,-2.2,5.2c0,1.2,.7,3.4,1.8,5.1l-2.7,-.6c-.5,-.1,-1,.1,-1.3,.5c-.3,.4,-.3,.9,0,1.3l7.2,12.2c.3,.3,.6,.5,1.1,.5h26.6c.5,0,.9,-.2,1.1,-.5l7.3,-12.2c.2,-.4,.2,-.9,-.1,-1.3c-.3,-.4,-.8,-.6,-1.2,-.5l-2.7,.6c1.1,-1.7,1.7,-3.9,1.7,-5.1c0,-1.6,-.2,-3.9,-2.1,-5.2c6.4,-2.2,9.4,-5.5,9.4,-8.2Zm-12.8,18.9c-.4,0,-.9,.2,-1.1,.6l-9.4,2.1c-.4,0,-.7,.3,-.9,.7l-2.5,5.8l-2.5,-5.8c-.2,-.4,-.5,-.7,-.9,-.7L349,715.9c-.2,-.4,-.6,-.6,-1.1,-.6c-1.2,0,-3.1,-3.7,-3.1,-5.5c0,-2.4,.7,-3,1.5,-3.4c.4,-.2,.7,-.6,.7,-1.1c.7,.2,1.5,.4,2.4,.6c-.6,.6,-.9,1.4,-.9,2.3v1.2c0,2.7,2.1,4.9,4.8,4.9h1.2c3.4,0,6.1,-2.7,6.1,-6.1v-1c.1,0,.4,-.2,1.1,-.2h.2c.7,0,1,.2,1.1,.2v1c0,3.4,2.7,6.1,6.1,6.1h1.2c2.7,0,4.9,-2.2,4.9,-4.9v-1.2c0,-.9,-.4,-1.7,-.9,-2.3c.8,-.2,1.6,-.4,2.3,-.6c0,.5,.3,.9,.7,1.1c.8,.4,1.5,1,1.5,3.4c0,1.8,-1.9,5.5,-3.1,5.5Z" class="g3_392"/>
<path d="M205.2,784.8c0,-7.5,2.8,-13.1,7.2,-17.8c6.5,-7.1,16.5,-12.3,25.3,-19c8.7,-6.7,16.4,-15.1,18.2,-28.5h-.5c-2.4,17.6,-14.9,26.4,-27,34.5c-6,4,-11.9,7.9,-16.4,12.7c-4.4,4.7,-7.3,10.4,-7.3,18.1h.5Z" class="g3_392"/>
<path d="M258.4,720.6L256,715.4l-3.3,4.6l5.7,.6Z" class="g3_392"/>
<path d="M359.4,590.9c0,6.2,4.1,11,10.1,15c9.2,6.1,22.9,10.8,35,16.2c12.1,5.5,22.4,11.8,24.7,21.1l.4,-.1C428,636.7,422.9,631.8,416,627.5c-10.3,-6.3,-24.4,-10.9,-35.8,-16.3c-5.8,-2.7,-10.9,-5.5,-14.5,-8.8c-3.7,-3.3,-5.8,-7,-5.8,-11.5h-.5Z" class="g3_392"/>
<path d="M426.4,642.8l3.5,4.5l2.1,-5.4l-5.6,.9Z" class="g3_392"/>
<path d="M583.7,607.9c0,5.9,-3.4,10.4,-8.5,14.1c-7.7,5.6,-19.5,9.6,-29.8,14.7C535.1,641.8,526.2,648,524.3,658l.4,.1c1.3,-6.5,5.6,-11.4,11.4,-15.4c8.6,-6.1,20.6,-10.2,30.5,-15.1c4.9,-2.4,9.3,-5,12.4,-8.2c3.2,-3.2,5.1,-6.9,5.1,-11.5h-.4Z" class="g3_392"/>
<path d="M521.9,657l2.2,5.2l3.4,-4.6l-5.6,-.6Z" class="g3_392"/>
<path d="M442.4,711.7l14.5,-14l-1.6,-1.6l-14.5,14Z" class="g7_392"/>
<path d="M440.9,697.7l14,14.5l1.7,-1.6l-14,-14.5Z" class="g7_392"/>
<path d="M203,704.2H524.9v-.8H203Z" class="g3_392"/>
<path d="M523.4,706l8.3,-2.2l-8.3,-2.2V706Z" class="g3_392"/>
</svg>