<?xml version="1.0" encoding="UTF-8" standalone="no"?>
<!DOCTYPE svg PUBLIC "-//W3C//DTD SVG 1.1//EN"
"http://www.w3.org/Graphics/SVG/1.1/DTD/svg11.dtd">
<svg viewBox="0 0 907 1045" version="1.1" xmlns="http://www.w3.org/2000/svg" xmlns:xlink="http://www.w3.org/1999/xlink">
<defs>
<clipPath id="c0_559"><path d="M-2.6,1047.7V-2.6H910.2V1047.7Z"/></clipPath>
<style type="text/css"><![CDATA[
.g0_559{
fill: #D9D9D9;
}
.g1_559{
fill: #B8B8B8;
}
.g2_559{
fill: none;
stroke: #000000;
stroke-width: 1.675;
stroke-linecap: butt;
stroke-linejoin: miter;
stroke-miterlimit: 4;
}
.g3_559{
fill: none;
stroke: #636363;
stroke-width: 1.527;
stroke-linecap: butt;
stroke-linejoin: miter;
stroke-miterlimit: 4;
}
.g4_559{
fill: none;
stroke: #FFFFFF;
stroke-width: 1.909;
stroke-linecap: butt;
stroke-linejoin: miter;
}
.g5_559{
fill: none;
stroke: #000000;
stroke-width: 0.381;
stroke-linecap: butt;
stroke-linejoin: miter;
}
]]></style>
</defs>
<path d="M187.9,491.3v34H580.4v-34H187.9Z" class="g0_559"/>
<path d="M102.2,166.4c5.4,0,9.8,-4.4,9.8,-9.8c0,-5.4,-4.4,-9.8,-9.8,-9.8c-5.4,0,-9.8,4.4,-9.8,9.8c0,5.4,4.4,9.8,9.8,9.8Z" class="g1_559"/>
<path d="M102.2,166.4c5.4,0,9.8,-4.4,9.8,-9.8c0,-5.4,-4.4,-9.8,-9.8,-9.8c-5.4,0,-9.8,4.4,-9.8,9.8c0,5.4,4.4,9.8,9.8,9.8Z" class="g2_559"/>
<path d="M650.5,509.1c.3,-3.5,-4,-5.5,-6.5,-6.8c-2.8,-1.4,-5.5,-2.9,-8.8,-3.1c-5.2,-.4,-11,.6,-16.1,2c-4.6,1.2,-9.2,1.9,-13.5,4.1c-2.8,1.5,-6.3,2.3,-8.8,4c2.1,-3.2,3.9,-6.6,7.1,-8.8c-.8,.6,-1.3,1.7,-2,2.4c-1.6,1.7,-2.8,3.7,-4.4,5.5c1.3,0,2.5,.4,3.8,.6c1.9,.3,4,.1,6,.1m34.7,77c.5,-2.8,-2.5,-5.5,-4.3,-7.4c-1,-1,-1.9,-2.1,-2.8,-3.2c-1.6,-1.8,-3.2,-3.2,-5.1,-4.6C627.9,569.3,626,568,624,566.7c-1.9,-1.2,-3.5,-2.8,-5.4,-4.1c-3.5,-2.6,-8,-4,-11.8,-5.9c-3.5,-1.8,-7.4,-3.6,-11.2,-4.3c-.8,-.1,-1.5,-.2,-2.2,-.5c-1.4,-.4,-2.8,-.6,-4.3,-.9c-1.5,-.4,-2.8,-.6,-4.3,-.7c-1.5,-.2,-3,-.1,-4.5,.1c-1.2,.1,-2.2,.7,-3.5,.7c-1.1,0,-2.2,-.1,-3.3,0c.1,-.6,2,-1.6,2.5,-2c.9,-.9,1.9,-1.9,2.9,-2.8c.4,-.3,1,-.9,1.6,-.7c.2,1.5,-2.4,1.9,-3.4,2.3c-2.1,.7,-4.1,.7,-5.9,2.2c-.4,.3,-1.5,1.2,-1.4,1.8c2.1,.1,4,2.3,5.6,3.7" class="g3_559"/>
<g clip-path="url(#c0_559)">
<path d="M-4.5,13.7H-27.4m939.5,0H935M-4.5,1031.2H-27.4m939.5,0H935M13.7,-4.5V-27.4m0,1077v22.9m880,-1077V-27.4m0,1077v22.9" class="g4_559"/>
<path d="M-4.5,13.7H-27.4m939.5,0H935M-4.5,1031.2H-27.4m939.5,0H935M13.7,-4.5V-27.4m0,1077v22.9m880,-1077V-27.4m0,1077v22.9" class="g5_559"/>
</g>
</svg>