<?xml version="1.0" encoding="UTF-8" standalone="no"?>
<!DOCTYPE svg PUBLIC "-//W3C//DTD SVG 1.1//EN"
"http://www.w3.org/Graphics/SVG/1.1/DTD/svg11.dtd">
<svg viewBox="0 0 811 1017" version="1.1" xmlns="http://www.w3.org/2000/svg" xmlns:xlink="http://www.w3.org/1999/xlink">
<defs>
<clipPath id="c0_98"><path d="M564.7,536V386.2H734.9V536Z"/></clipPath>
<clipPath id="c1_98"><path d="M604,928L491.6,902.1l43,-186.2l112.4,26L604,928Z"/></clipPath>
<clipPath id="c2_98"><path d="M110,885.9V788.3H422.8v97.6Z"/></clipPath>
<style type="text/css"><![CDATA[
.g0_98{
fill: none;
stroke: #636466;
stroke-width: 0.763;
stroke-linecap: round;
stroke-linejoin: round;
stroke-dasharray: 0,3;
}
.g1_98{
fill: #636466;
}
]]></style>
</defs>
<path d="M218.2,447.9h37.4" class="g0_98"/>
<path d="M208.7,447.9l9.6,3.6l-2.4,-3.6l2.4,-3.5Z" class="g1_98"/>
<path d="M257.5,474.7h37.4" class="g0_98"/>
<path d="M248,474.7l9.7,3.5l-2.4,-3.5l2.4,-3.5Z" class="g1_98"/>
<path d="M346,501.4h76" class="g0_98"/>
<path d="M336.5,501.4l9.7,3.5l-2.4,-3.5l2.4,-3.5Z" class="g1_98"/>
<path d="M256,528.1h29.5" class="g0_98"/>
<path d="M246.4,528.1l9.7,3.6l-2.5,-3.6l2.5,-3.5Z" class="g1_98"/>
<path d="M171.2,162.1h58.2" class="g0_98"/>
<path d="M161.6,162.1l9.7,3.5l-2.4,-3.5l2.4,-3.5Z" class="g1_98"/>
<image clip-path="url(#c0_98)" preserveAspectRatio="none" x="565" y="386" width="172" height="150" xlink:href="img/1.jpg"/>
<image clip-path="url(#c1_98)" preserveAspectRatio="none" x="492" y="716" width="155" height="212" xlink:href="img/2.png"/>
<image clip-path="url(#c2_98)" preserveAspectRatio="none" x="108" y="788" width="315" height="98" xlink:href="img/3.jpg"/>
</svg>