<?xml version="1.0" encoding="UTF-8" standalone="no"?>
<!DOCTYPE svg PUBLIC "-//W3C//DTD SVG 1.1//EN"
"http://www.w3.org/Graphics/SVG/1.1/DTD/svg11.dtd">
<svg viewBox="0 0 907 1045" version="1.1" xmlns="http://www.w3.org/2000/svg" xmlns:xlink="http://www.w3.org/1999/xlink">
<defs>
<clipPath id="c0_371"><path d="M-2.6,1047.7V-2.6H910.2V1047.7Z"/></clipPath>
<style type="text/css"><![CDATA[
.g0_371{
fill: #D9D9D9;
}
.g1_371{
fill: none;
stroke: #636363;
stroke-width: 1.527;
stroke-linecap: butt;
stroke-linejoin: miter;
stroke-miterlimit: 4;
}
.g2_371{
fill: none;
stroke: #FFFFFF;
stroke-width: 1.909;
stroke-linecap: butt;
stroke-linejoin: miter;
}
.g3_371{
fill: none;
stroke: #000000;
stroke-width: 0.381;
stroke-linecap: butt;
stroke-linejoin: miter;
}
]]></style>
</defs>
<path d="M89.4,440v19.6h220V440H89.4Z" class="g0_371"/>
<path d="M118.8,724.8V921.2h661V724.8h-661Z" class="g0_371"/>
<path d="M152.3,270.8v18.9H386.1V270.8H152.3Z" class="g0_371"/>
<path d="M521.4,261.2c-1.5,-5.4,-6.6,-8.2,-11.3,-10.5c-5.5,-2.7,-11.2,-5.2,-17.3,-6.2c-5.5,-.8,-11.4,-1.2,-17,-.5c-5.5,.6,-10.7,2.7,-16.1,3.8c-4.8,1,-9.4,2.1,-14,3.7c-3.8,1.3,-7.5,2.9,-11,4.9c-3,1.7,-5.8,3.7,-8.8,5.3c-1.3,.7,-2.5,1.3,-3.6,2.1c-.6,.4,-1.8,1,-1.8,1.7c-.9,0,-1.4,1,-2.3,1.2c.6,-1.3,.9,-2.3,1.7,-3.6c.8,-1.1,1.5,-2.6,2.3,-3.5c0,.6,-1.1,1.4,-1.4,1.9c-.6,.9,-1.2,1.9,-1.7,2.9c-.3,.8,-.4,1.6,-.8,2.3c-.3,.5,-1,.8,-.9,1.4c1.4,.3,3.2,-.3,4.7,-.3c2.2,0,6,-.1,7.6,1.8M538.2,438c-3.1,-2.1,-7.4,-3,-10.8,-4.6c-5.2,-2.3,-10.5,-4.5,-16,-6c-8.6,-2.4,-17.5,-2.1,-26.3,-2.1c-15.8,-.1,-31.7,1.6,-47.5,2c-10.6,.2,-21.3,.9,-31.8,2.1c-3.4,.4,-7.3,1.4,-10.5,2.5c-3.2,1.1,-6.5,2.9,-10.2,2.1c.5,-4.8,9.1,-7.3,11.2,-11.6c-5.2,1,-14.5,10.4,-14.1,15.5c5.8,1.1,11.7,1.2,17.5,3.2m67.8,90.2c6.6,.3,15.4,1.1,19,7.6c3.3,6.1,4.6,20.1,1.5,26.6c-7,15,-23.9,11.7,-35.7,18.9c3.5,-.1,9.2,-1.3,12,1.2c-3.1,2.6,-10.4,3.7,-14.3,3.9c-.7,2.1,.8,1.3,1.7,2.5c1.7,2.1,3.2,2.9,4.1,5.9c3.1,10.4,-3.4,21.4,-8.1,30.3c-6.6,12.7,-13.6,25.5,-24.2,35.4c-4.5,4.3,-9.8,9.7,-15.9,11.9c-8.5,3.2,-18.4,.9,-27.2,2.7c-.1,.3,-.2,.6,-.3,.8M476,669.8c-15,-3.2,-23.3,8.4,-25.3,22.3c-.7,4.6,-2.6,10.3,-2.7,15c-.1,2.2,-.2,3.6,1.5,5.1c-4.2,-1.4,-8.8,-6.7,-10.7,-10.6c4,2.4,5.6,7.6,9,10.7c6.4,5.8,8.3,0,9.9,-6.1" class="g1_371"/>
<g clip-path="url(#c0_371)">
<path d="M-4.5,13.7H-27.4m939.5,0H935M-4.5,1031.2H-27.4m939.5,0H935M13.7,-4.5V-27.4m0,1077v22.9m880,-1077V-27.4m0,1077v22.9" class="g2_371"/>
<path d="M-4.5,13.7H-27.4m939.5,0H935M-4.5,1031.2H-27.4m939.5,0H935M13.7,-4.5V-27.4m0,1077v22.9m880,-1077V-27.4m0,1077v22.9" class="g3_371"/>
</g>
</svg>