<?xml version="1.0" encoding="UTF-8" standalone="no"?>
<!DOCTYPE svg PUBLIC "-//W3C//DTD SVG 1.1//EN"
"http://www.w3.org/Graphics/SVG/1.1/DTD/svg11.dtd">
<svg viewBox="0 0 907 1045" version="1.1" xmlns="http://www.w3.org/2000/svg" xmlns:xlink="http://www.w3.org/1999/xlink">
<defs>
<clipPath id="c0_178"><path d="M422.3,535.9c-10.2,-6.9,-22,-7.2,-18.1,-26.8c2,-10.4,9.9,-14.6,18.7,-18.3h9.8c22.6,10.3,17.3,35.7,-2.6,45.1Z"/></clipPath>
<clipPath id="c1_178"><path d="M422.3,422.7c-10.2,-6.9,-22,-7.3,-18.1,-26.8c2,-10.4,9.9,-14.6,18.7,-18.3h9.8c22.6,10.3,17.3,35.7,-2.6,45.1Z"/></clipPath>
<clipPath id="c2_178"><path d="M456.5,685c-9,-6,-19.2,-6.3,-15.8,-23.4c1.8,-9.1,8.6,-12.7,16.3,-15.9h8.5c19.7,9,15.1,31.1,-2.3,39.3Z"/></clipPath>
<clipPath id="c3_178"><path d="M497.6,642.7c-8.9,-5.9,-19.2,-6.3,-15.8,-23.3c1.8,-9.1,8.7,-12.7,16.4,-16h8.5c19.7,9,15.1,31.1,-2.3,39.3Z"/></clipPath>
<clipPath id="c4_178"><path d="M393.3,689c-8.9,-6,-19.2,-6.4,-15.8,-23.4c1.8,-9.1,8.6,-12.7,16.4,-16h8.4c19.8,9,15.2,31.1,-2.2,39.4Z"/></clipPath>
<clipPath id="c5_178"><path d="M345.5,642.7c-8.9,-5.9,-19.2,-6.3,-15.8,-23.3c1.8,-9.1,8.6,-12.7,16.4,-16h8.5c19.7,9,15.1,31.1,-2.3,39.3Z"/></clipPath>
<clipPath id="c6_178"><path d="M525.9,719.7c-8.9,-6,-19.2,-6.3,-15.8,-23.4c1.8,-9,8.6,-12.7,16.4,-15.9h8.4c19.7,9,15.2,31.1,-2.2,39.3Z"/></clipPath>
<clipPath id="c7_178"><path d="M449.7,752.4c-9,-6,-19.2,-6.3,-15.8,-23.4c1.8,-9.1,8.6,-12.7,16.3,-15.9h8.5c19.7,9,15.2,31.1,-2.2,39.3Z"/></clipPath>
<clipPath id="c8_178"><path d="M318.2,712.5c-8.9,-5.9,-19.2,-6.3,-15.8,-23.3c1.8,-9.1,8.6,-12.7,16.4,-16h8.5c19.7,9,15.1,31.1,-2.3,39.3Z"/></clipPath>
<clipPath id="c9_178"><path d="M377.8,752.4c-9,-6,-19.2,-6.3,-15.9,-23.4c1.8,-9.1,8.7,-12.7,16.4,-15.9h8.5c19.7,9,15.1,31.1,-2.3,39.3Z"/></clipPath>
<clipPath id="ca_178"><path d="M-2.6,1047.7V-2.6H910.2V1047.7Z"/></clipPath>
<style type="text/css"><![CDATA[
.g0_178{
fill: none;
stroke: #636363;
stroke-width: 1.033;
stroke-linecap: butt;
stroke-linejoin: bevel;
stroke-miterlimit: 12;
}
.g1_178{
fill: none;
stroke: #636363;
stroke-width: 1.527;
stroke-linecap: butt;
stroke-linejoin: bevel;
stroke-miterlimit: 12;
}
.g2_178{
fill: none;
stroke: #FFFFFF;
stroke-width: 1.909;
stroke-linecap: butt;
stroke-linejoin: miter;
}
.g3_178{
fill: none;
stroke: #000000;
stroke-width: 0.381;
stroke-linecap: butt;
stroke-linejoin: miter;
}
]]></style>
</defs>
<image clip-path="url(#c0_178)" preserveAspectRatio="none" x="403" y="490" width="47" height="47" xlink:href="img/1.jpg"/>
<image clip-path="url(#c1_178)" preserveAspectRatio="none" x="403" y="376" width="47" height="48" xlink:href="img/2.jpg"/>
<path d="M363.6,599.3c-1.8,-12.3,-1.1,-25.4,5.2,-36.5c3.6,-6.2,9.9,-10.3,15.3,-14.9c-1.6,-1.4,-4.8,-1.3,-6.8,-1.7c3,-.8,5.7,-.8,8.5,-2.1c2.8,2.6,2.8,8.7,3.6,12.2m17.2,88.8c-.5,-17.3,-3.6,-34.4,-3.8,-51.6c-.1,-11.2,3.6,-21.9,4.5,-32.9c-1.4,1.3,-2.8,2.6,-3.9,4.1c1.1,-.6,2.6,-3.3,3.3,-3.5c2.4,-.4,5,4.4,6.7,5.9m41.1,70.1c-8.4,-23.9,-16.1,-46.8,-18,-72.2c-1.6,1.9,-2,4.6,-2.7,6.9c-.5,-1.4,-.4,-4.6,.4,-5.9c2.9,1.3,5.6,3.6,8.1,5.4M489.6,600c.1,-3.1,-.7,-5.9,-2.5,-8.4C483.6,584.1,479,576.4,473.9,570c-3.8,-4.9,-8.3,-9.8,-13,-13.8c.5,2.4,1,5.1,2.2,7.2c-.6,-2.5,-1.5,-5.7,-3.6,-7.3c2.5,1.5,5.7,2,8.6,1.7" class="g0_178"/>
<image clip-path="url(#c2_178)" preserveAspectRatio="none" x="440" y="645" width="41" height="41" xlink:href="img/3.jpg"/>
<image clip-path="url(#c3_178)" preserveAspectRatio="none" x="481" y="602" width="41" height="42" xlink:href="img/4.jpg"/>
<image clip-path="url(#c4_178)" preserveAspectRatio="none" x="376" y="648" width="42" height="42" xlink:href="img/5.jpg"/>
<image clip-path="url(#c5_178)" preserveAspectRatio="none" x="329" y="602" width="41" height="42" xlink:href="img/6.jpg"/>
<image clip-path="url(#c6_178)" preserveAspectRatio="none" x="509" y="679" width="41" height="42" xlink:href="img/7.jpg"/>
<image clip-path="url(#c7_178)" preserveAspectRatio="none" x="433" y="712" width="41" height="42" xlink:href="img/8.jpg"/>
<image clip-path="url(#c8_178)" preserveAspectRatio="none" x="301" y="672" width="42" height="42" xlink:href="img/9.jpg"/>
<image clip-path="url(#c9_178)" preserveAspectRatio="none" x="361" y="712" width="41" height="42" xlink:href="img/10.jpg"/>
<path d="M310.7,662.2c-7.5,-7.6,-8.2,-18.2,-8.3,-28.6c-.1,-18.1,6.7,-32.4,16.4,-47.3c5.3,-8.1,11.5,-16.3,19.8,-21.5c2.1,-1.4,8.3,-3.1,8.7,-6.4c-.8,-.8,-1.7,-1.5,-2.7,-2c2.6,.5,5.8,.3,7,3.2c1.2,2.8,-.7,8.7,-.8,11.8m21.5,135.9c-.3,-8.9,-2.4,-17.5,-2.5,-26.4c-.1,-18.6,7.4,-34.2,13.6,-51.3c2.6,-6.9,4.6,-14,6,-21.2c1.4,-7.1,3.3,-14.8,4.1,-22c.9,-1.8,.8,-3.2,-.3,-4.3c-1.1,-.6,-3.8,.7,-4.4,1.7c2.4,.2,4.3,-2.3,5.4,-4.1c1.2,2.8,1.2,6.5,2.3,9.5M445.2,715c-5,-7.3,-9.7,-14.8,-12.6,-23.2c-6.2,-17.5,-5.5,-37,-7.3,-55.3c-1,-10.3,-2.3,-20.4,-2.4,-30.7c0,-4.6,.1,-9.3,.2,-13.9c.5,-1.8,.4,-3.4,-.4,-4.8c-2.3,2.8,-4.2,5.8,-5.7,9.1c1.3,-1.5,3.4,-7.6,4.9,-7.8c2.7,3.2,5.5,5.6,9,8m86.6,85.9C498.2,666.9,483.6,643.5,475.9,620.4C472.4,610,468.3,600.5,463.5,590.8c-1.3,-2.5,-2.4,-4.9,-2.9,-7.7c.4,2.9,.7,5.7,1,8.6c-2.7,-.1,-2.8,-9.5,-2.8,-11.6c2.1,2.6,5.6,4,8.6,5.5" class="g0_178"/>
<path d="M370.4,490.7c3.8,1.5,8.9,1.1,12.5,3.2c2.8,1.5,7.2,4.8,6.7,8.3c-3.2,-2.3,1.1,-4.6,1,-7.2c.2,1.1,-1.3,6.2,-2,6.6c-1.7,1.1,-6.6,0,-9.4,-.1M523.6,390.3c-1.2,-1.1,-2.6,-1.4,-3.9,-2.5c-.9,-1.2,-2.1,-2.2,-3.4,-3c-1.9,-1,-4.3,-1.7,-6.4,-2c-3,-.4,-6,-.1,-8.9,.1c-1.7,.1,-3.4,.3,-5.1,.4c-2,.2,-4,.8,-6,1.2c-1.9,.5,-3.9,.9,-5.8,1.5c-2.1,.6,-4,1.5,-6.1,1.9c-2.8,.6,-5.2,1.6,-7.7,2.7c0,-.5,.3,-1.1,.4,-1.6c.1,-1,.1,-1.7,.6,-2.6c.6,-1,1.3,-2.3,2.1,-3c-.6,.7,-1.3,1.6,-1.8,2.5c-.6,.9,-1.3,2,-1.8,3c-.3,.4,-.7,1.3,-.6,1.8c.1,.9,.6,.4,1.3,.5c.4,.1,.9,.4,1.3,.5c1.8,.6,3.7,.8,5.6,.9m66.3,110.7c.6,-2.7,-2.8,-4.5,-4.5,-5.7c-8.1,-5.7,-18.4,-8.3,-28.1,-6.5c-5.9,1.2,-11.1,3.3,-16.1,6.7c-3.1,2,-5.5,4.7,-8.5,6.7c1.4,-2,2.9,-3.9,3.9,-6.2c.3,-.8,.6,-3.3,1.4,-3.8c-.8,1,-1.2,2.4,-1.8,3.5c-1.5,2.5,-3.9,4.8,-4.8,7.6c1.7,1.8,6.3,.5,8.4,0M424.7,441.5c0,8.3,.2,16.3,1.6,24.3c.5,3.4,.7,6.6,.7,10.1c0,3.1,-.8,5.8,-.7,8.9c-1.7,-2.1,-2.8,-6,-4.5,-7.3c.9,1.5,4.1,7.1,5.8,6.7c.3,-2.2,2.5,-4.1,4.1,-5.7c-1.9,1.9,-3,4.5,-4.7,6.6M287.6,500.6c13.2,0,27.2,-.9,40.2,1.1c4.2,.7,8.5,2.8,12.5,3.8c4.2,1,7.5,1.2,11.8,1.3c-13.5,-3.1,-27.3,-5.9,-41.1,-7.5c-9,-1.1,-20,-2.7,-29.1,-1c1.3,2.4,14.3,1.6,17.4,1.9c8.7,1,17.5,2.4,26.1,2.9c4,.2,7.1,2,10.5,2.5c4.5,.7,9.6,0,14.1,0" class="g1_178"/>
<g clip-path="url(#ca_178)">
<path d="M-4.5,13.7H-27.4m939.5,0H935M-4.5,1031.2H-27.4m939.5,0H935M13.7,-4.5V-27.4m0,1077v22.9m880,-1077V-27.4m0,1077v22.9" class="g2_178"/>
<path d="M-4.5,13.7H-27.4m939.5,0H935M-4.5,1031.2H-27.4m939.5,0H935M13.7,-4.5V-27.4m0,1077v22.9m880,-1077V-27.4m0,1077v22.9" class="g3_178"/>
</g>
</svg>