<?xml version="1.0" encoding="UTF-8" standalone="no"?>
<!DOCTYPE svg PUBLIC "-//W3C//DTD SVG 1.1//EN"
"http://www.w3.org/Graphics/SVG/1.1/DTD/svg11.dtd">
<svg viewBox="0 0 907 1045" version="1.1" xmlns="http://www.w3.org/2000/svg" xmlns:xlink="http://www.w3.org/1999/xlink">
<defs>
<clipPath id="c0_507"><path d="M596.2,903.4V733.7H816.7V903.4Z"/></clipPath>
<clipPath id="c1_507"><path d="M101.9,237.2V162.1H177v75.1Z"/></clipPath>
<clipPath id="c2_507"><path d="M-2.6,1047.7V-2.6H910.2V1047.7Z"/></clipPath>
<style type="text/css"><![CDATA[
.g0_507{
fill: none;
stroke: #636363;
stroke-width: 1.527;
stroke-linecap: butt;
stroke-linejoin: miter;
stroke-miterlimit: 4;
}
.g1_507{
}
.g2_507{
fill: none;
stroke: #000000;
stroke-width: 1.197;
stroke-linecap: butt;
stroke-linejoin: miter;
stroke-miterlimit: 4;
}
.g3_507{
fill: #393939;
}
.g4_507{
fill: none;
stroke: #404040;
stroke-width: 2.898;
stroke-linecap: butt;
stroke-linejoin: miter;
stroke-miterlimit: 4;
}
.g5_507{
fill: #FFFFFF;
}
.g6_507{
fill: none;
stroke: #FFFFFF;
stroke-width: 1.909;
stroke-linecap: butt;
stroke-linejoin: miter;
}
.g7_507{
fill: none;
stroke: #000000;
stroke-width: 0.381;
stroke-linecap: butt;
stroke-linejoin: miter;
}
]]></style>
</defs>
<image clip-path="url(#c1_507)" preserveAspectRatio="none" x="102" y="162" width="75" height="76" xlink:href="img/1.jpg"/>
<path d="M566.2,405.3c-2.2,-1.1,-4.3,-2.5,-6.7,-3c-4,-.9,-8.4,-1,-12.5,-.9c-13.1,.4,-27.3,3.3,-38.3,10.7c-3.5,2.4,-6.6,5.1,-9.7,7.8c-2.7,2.3,-5.1,4.3,-7.1,7.2c-1.1,1.8,-2.5,3.4,-3.7,5.2c-.5,.8,-2,2.3,-2,3.2c0,-.6,-.3,-.4,-.7,-.9c-1.5,-1.7,-1.6,-3.8,-1.9,-5.9c-.5,1,-.6,5.2,0,6.2c.9,1.4,2.2,1.1,3.5,.8c2.8,-.5,5.5,-1.4,8.3,-1.9m92.1,53.7c-1.4,-.7,-2.8,-1.3,-4.2,-2c-2.7,-1.4,-5.7,-1.7,-8.6,-2.4c-1.3,-.4,-2.7,-.6,-4.1,-.7c-1.7,-.2,-3.3,-.7,-4.8,-1.6c-3.3,-1.3,-6.5,-1.1,-10,-1.7c-3.2,-.6,-6.6,-.6,-9.8,-1.4c-2,-.5,-3.9,-1.1,-5.9,-1.4c-2.1,-.4,-4.3,-.1,-6.4,-.7c-1.2,-.3,-2.2,-.9,-3.6,-1.1c1.4,-1.4,4.5,-.3,5.9,-1.7c-1.6,.8,-3.1,1.5,-4.5,2.5c-1.1,.7,-3,1.5,-3.2,2.9c3.7,1.2,7.7,1.4,11.4,2.8M405.3,541c2.4,-2.5,3.4,-5.2,3.2,-8.8c-.3,-2.7,-.9,-5.3,-2.1,-7.8c-1.2,-2.6,-3.1,-4.6,-4.5,-7.1c-1.6,-3.2,-1.8,-5.7,-4.9,-7.8c-.7,-.5,-1.6,-.9,-2.3,-1.5c-.4,.5,-.3,1,-.5,1.7c-.4,2,-1,4,-2.2,5.7c1.5,.1,3.1,-7.2,2.1,-8.6c1.7,1.7,6.3,-.2,8.4,-.2" class="g0_507"/>
<g clip-path="url(#c0_507)">
<image clip-path="url(#c0_507)" preserveAspectRatio="none" x="596" y="734" width="221" height="169" xlink:href="img/2.jpg"/>
</g>
<path d="M533.4,704.7c-1.3,2.5,-.4,5.9,.5,8.4c1.3,3.7,2.2,7.4,4.7,10.5c2.3,2.9,4.7,5.6,7.2,8.3c.8,.8,1.6,1.7,2.6,2.3c.9,.5,1.8,.9,2.6,1.5c.7,.5,1.2,1,2,1.4c1.6,.9,3.3,1.7,5,2.4c1.7,.7,3.5,1.1,5.1,1.8c3.3,1.6,6.5,2.9,10.1,3.9c3.6,.9,7.3,1.4,10.9,2.1c1.2,.2,3.9,.6,4.8,-.3c-2.4,-.7,-5.5,-2.2,-6.8,-4.4c-.7,-1.2,-1.4,-2.4,-2.5,-3.2c1.7,1,2.1,3.1,3.2,4.6c.7,1.1,1.6,1.5,2.7,2c.9,.3,2.1,.4,2.8,.9c-.2,1.7,-4.3,2.5,-5.5,3c-1.8,.7,-4.1,1.4,-5,3.2" class="g0_507"/>
<path d="M132,818.4c3.8,0,7,-3.1,7,-6.9c0,-3.9,-3.2,-7,-7,-7c-3.9,0,-7,3.1,-7,7c0,3.8,3.1,6.9,7,6.9Z" class="g1_507"/>
<path d="M132,818.4c3.8,0,7,-3.1,7,-6.9c0,-3.9,-3.2,-7,-7,-7c-3.9,0,-7,3.1,-7,7c0,3.8,3.1,6.9,7,6.9Z" class="g2_507"/>
<path d="M131,859.4c3.9,0,7,-3.1,7,-6.9c0,-3.9,-3.1,-7,-7,-7c-3.8,0,-7,3.1,-7,7c0,3.8,3.2,6.9,7,6.9Z" class="g1_507"/>
<path d="M131,859.4c3.9,0,7,-3.1,7,-6.9c0,-3.9,-3.1,-7,-7,-7c-3.8,0,-7,3.1,-7,7c0,3.8,3.2,6.9,7,6.9Z" class="g2_507"/>
<path d="M131,916.8c3.9,0,7,-3.1,7,-6.9c0,-3.9,-3.1,-7,-7,-7c-3.8,0,-7,3.1,-7,7c0,3.8,3.2,6.9,7,6.9Z" class="g1_507"/>
<path d="M131,916.8c3.9,0,7,-3.1,7,-6.9c0,-3.9,-3.1,-7,-7,-7c-3.8,0,-7,3.1,-7,7c0,3.8,3.2,6.9,7,6.9Z" class="g2_507"/>
<path d="M110.8,631.9v64.9H709V631.9H110.8Z" class="g3_507"/>
<path d="M110.8,631.9v64.9H709V631.9H110.8Z" class="g4_507"/>
<path d="M111.8,632.5v13.7H708.5V632.5H111.8Z" class="g5_507"/>
<g clip-path="url(#c2_507)">
<path d="M-4.5,13.7H-27.4m939.5,0H935M-4.5,1031.2H-27.4m939.5,0H935M13.7,-4.5V-27.4m0,1077v22.9m880,-1077V-27.4m0,1077v22.9" class="g6_507"/>
<path d="M-4.5,13.7H-27.4m939.5,0H935M-4.5,1031.2H-27.4m939.5,0H935M13.7,-4.5V-27.4m0,1077v22.9m880,-1077V-27.4m0,1077v22.9" class="g7_507"/>
</g>
</svg>