<?xml version="1.0" encoding="UTF-8" standalone="no"?>
<!DOCTYPE svg PUBLIC "-//W3C//DTD SVG 1.1//EN"
"http://www.w3.org/Graphics/SVG/1.1/DTD/svg11.dtd">
<svg viewBox="0 0 770 1017" version="1.1" xmlns="http://www.w3.org/2000/svg" xmlns:xlink="http://www.w3.org/1999/xlink">
<defs>
<clipPath id="c0_99"><path d="M440.1,189v-9.2l-1.8,7.3l-1.8,-7.3V189ZM283.9,279.2V102.4h220V279.2Z"/></clipPath>
<clipPath id="c1_99"><path d="M440.1,243.3v-9.2l-1.8,7.2l-1.8,-7.2v9.2ZM283.9,279.2V102.4h220V279.2Z"/></clipPath>
<clipPath id="c2_99"><path d="M349.7,189v-9.2l-1.8,7.3l-1.8,-7.3V189Zm-65.8,90.2V102.4h220V279.2Z"/></clipPath>
<clipPath id="c3_99"><path d="M349.7,243.3v-9.2l-1.8,7.2l-1.8,-7.2v9.2Zm-65.8,35.9V102.4h220V279.2Z"/></clipPath>
<clipPath id="c4_99"><path d="M327.1,189v-9.2l-1.8,7.3l-1.9,-7.3V189Zm-43.2,90.2V102.4h220V279.2Z"/></clipPath>
<clipPath id="c5_99"><path d="M476.2,189v-9.2l-1.8,7.3l-1.8,-7.3V189ZM283.9,279.2V102.4h220V279.2Z"/></clipPath>
<clipPath id="c6_99"><path d="M479,132v-9.1l-1.9,7.2l-1.8,-7.2V132ZM283.9,279.2V102.4h220V279.2Z"/></clipPath>
<style type="text/css"><![CDATA[
.g0_99{
fill: none;
stroke: #000000;
stroke-width: 0.618;
stroke-linecap: butt;
stroke-linejoin: miter;
}
.g1_99{
fill: none;
stroke: #000000;
stroke-width: 0.452;
stroke-linecap: butt;
stroke-linejoin: miter;
}
.g2_99{
stroke: #000000;
stroke-width: 0.452;
stroke-linecap: butt;
stroke-linejoin: miter;
}
.g3_99{
fill: none;
stroke: #000000;
stroke-width: 0.904;
stroke-linecap: butt;
stroke-linejoin: miter;
}
]]></style>
</defs>
<path d="M74.2,69.2H713.5" class="g0_99"/>
<path d="M433.7,224.3h13.6V188.1H433.7v36.2Zm13.6,-18.1H433.7" class="g1_99"/>
<path clip-path="url(#c0_99)" d="M438.3,170v18.1" class="g1_99"/>
<path d="M436.5,179.8l1.8,7.3l1.8,-7.3m-6.4,98.7h13.6V242.3H433.7v36.2Zm13.6,-18.1H433.7" class="g1_99"/>
<path clip-path="url(#c1_99)" d="M438.3,224.3v18" class="g1_99"/>
<path d="M436.5,234.1l1.8,7.2l1.8,-7.2m-96.8,-9.8h13.6V188.1H343.3v36.2Zm13.6,-18.1H343.3" class="g1_99"/>
<path clip-path="url(#c2_99)" d="M347.9,170v18.1" class="g1_99"/>
<path d="M346.1,179.8l1.8,7.3l1.8,-7.3m-6.4,98.7h13.6V242.3H343.3v36.2Zm13.6,-18.1H343.3" class="g1_99"/>
<path clip-path="url(#c3_99)" d="M347.9,224.3v18" class="g1_99"/>
<path d="M346.1,234.1l1.8,7.2l1.8,-7.2m-29,-9.8h13.6V188.1H320.7v36.2Zm13.6,-18.1H320.7" class="g1_99"/>
<path clip-path="url(#c4_99)" d="M325.3,170v18.1" class="g1_99"/>
<path d="M323.4,179.8l1.9,7.3l1.8,-7.3m142.8,44.5h13.6V188.1H469.9v36.2Zm13.6,-18.1H469.9" class="g1_99"/>
<path clip-path="url(#c5_99)" d="M474.4,170v18.1" class="g1_99"/>
<path d="M472.6,179.8l1.8,7.3l1.8,-7.3" class="g1_99"/>
<path fill-rule="evenodd" d="M393.1,144.7c-1,0,-1.8,-.8,-1.8,-1.8c0,-1,.8,-1.8,1.8,-1.8c1,0,1.8,.8,1.8,1.8c0,1,-.8,1.8,-1.8,1.8Z" class="g2_99"/>
<path fill-rule="evenodd" d="M379.5,144.7c-1,0,-1.8,-.8,-1.8,-1.8c0,-1,.8,-1.8,1.8,-1.8c1,0,1.8,.8,1.8,1.8c0,1,-.8,1.8,-1.8,1.8Z" class="g2_99"/>
<path fill-rule="evenodd" d="M406.6,144.7c-1,0,-1.8,-.8,-1.8,-1.8c0,-1,.8,-1.8,1.8,-1.8c1,0,1.8,.8,1.8,1.8c0,1,-.8,1.8,-1.8,1.8Z" class="g2_99"/>
<path d="M483.5,151.9V170M465.4,151.9V170M447.3,151.9V170M429.2,151.9V170m-144.6,0h217V151.9h-217V170Zm17.1,-18.1v17.2M318,153.7v17.2M336.1,151v17.2M356,151v17.2" class="g1_99"/>
<path clip-path="url(#c6_99)" d="M477.1,104v27.1" class="g3_99"/>
<path d="M475.3,122.9l1.8,7.2l1.9,-7.2" class="g1_99"/>
<path d="M83.4,332.2h621" class="g0_99"/>
</svg>