<?xml version="1.0" encoding="UTF-8" standalone="no"?>
<!DOCTYPE svg PUBLIC "-//W3C//DTD SVG 1.1//EN"
"http://www.w3.org/Graphics/SVG/1.1/DTD/svg11.dtd">
<svg viewBox="0 0 811 1017" version="1.1" xmlns="http://www.w3.org/2000/svg" xmlns:xlink="http://www.w3.org/1999/xlink">
<defs>
<clipPath id="c0_280"><path d="M185.9,483.1V242.6H703.2V483.1Z"/></clipPath>
<style type="text/css"><![CDATA[
.g0_280{
fill: #FFFFFF;
}
.g1_280{
fill: #231F20;
}
.g2_280{
fill: none;
stroke: #231F20;
stroke-width: 0.763;
stroke-linecap: butt;
stroke-linejoin: miter;
stroke-miterlimit: 4;
}
.g3_280{
fill: none;
stroke: #231F20;
stroke-width: 0.458;
stroke-linecap: butt;
stroke-linejoin: miter;
stroke-miterlimit: 4;
}
]]></style>
</defs>
<path d="M185.9,483.1H703.3V242.6H185.9Z" class="g0_280"/>
<path d="M308.6,329.3c-5.7,-2.1,-7.6,-1.1,-7.6,-4.8c0,-.2,0,-.6,0,-.9h.3c4,.3,7.8,.6,8.6,0c1.4,-1,-3.3,-2.4,-3.3,-14.6c0,-6.2,-4.1,-10.6,-10.2,-10.6c-.1,0,-.2,0,-.2,0q-.1,0,-.1,0c0,0,-.1,0,-.1,0q-.1,0,-.1,0h-.1c0,0,-.1,0,-.1,0c-6.2,0,-10.3,4.4,-10.3,10.6c0,12.2,-4.6,13.6,-3.3,14.6c.9,.6,4.7,.3,8.6,0h.3c0,.3,0,.7,0,.9c0,3.7,-1.8,2.7,-7.6,4.8c-5.8,2.1,-7.5,4.2,-7.5,5.6c0,1.5,0,9.6,0,9.6h40.2c0,0,0,-8.1,0,-9.6c0,-1.4,-1.7,-3.5,-7.5,-5.6Z" class="g1_280"/>
<path d="M474.2,322h25.4v-4.9c0,-1.6,.8,-3,2,-3.8v-.4c0,-.6,.1,-1.2,.2,-1.8H474.2c-3,0,-5.5,2.4,-5.5,5.4c0,3.1,2.5,5.5,5.5,5.5Zm10,-6.8c.8,0,1.4,.6,1.4,1.3c0,.8,-.6,1.4,-1.4,1.4c-.7,0,-1.3,-.6,-1.3,-1.4c0,-.7,.6,-1.3,1.3,-1.3Zm-4.2,0c.8,0,1.4,.6,1.4,1.3c0,.8,-.6,1.4,-1.4,1.4c-.7,0,-1.3,-.6,-1.3,-1.4c0,-.7,.6,-1.3,1.3,-1.3Zm-5.6,-1.3c1.5,0,2.7,1.2,2.7,2.6c0,1.5,-1.2,2.7,-2.7,2.7c-1.4,0,-2.6,-1.2,-2.6,-2.7c0,-1.4,1.2,-2.6,2.6,-2.6Z" class="g1_280"/>
<path d="M484.9,346.9c0,-.6,.1,-1.2,.3,-1.8h-13c-1,0,-1.7,.8,-1.7,1.8c0,.9,.7,1.7,1.7,1.7h13c-.2,-.5,-.3,-1.1,-.3,-1.7Z" class="g1_280"/>
<path d="M512.7,346.9c0,-1,-.8,-1.8,-1.8,-1.8h-13c.1,.6,.2,1.2,.2,1.8c0,.6,-.1,1.2,-.2,1.7h13c1,0,1.8,-.8,1.8,-1.7Z" class="g1_280"/>
<path d="M504.3,329h14c1,0,1.8,-.8,1.8,-1.8V317.1c0,-1,-.8,-1.8,-1.8,-1.8h-.1v-2.4c0,-3.8,-3.1,-6.9,-6.9,-6.9c-3.8,0,-6.9,3.1,-6.9,6.9v2.4h-.1c-1,0,-1.9,.8,-1.9,1.8v10.1c0,1,.9,1.8,1.9,1.8Zm8.1,-6.4c-.2,.1,-.2,.2,-.2,.4c0,.7,0,1.4,0,2.2c0,.3,-.2,.6,-.4,.7c-.7,.4,-1.3,-.1,-1.3,-.7c0,-.7,0,-1.5,0,-2.2c0,-.2,-.1,-.3,-.2,-.4c-.7,-.5,-.9,-1.3,-.6,-2c.4,-.8,1.2,-1.2,1.9,-1c.8,.1,1.4,.8,1.4,1.6c.1,.6,-.2,1.1,-.6,1.4Zm-5,-9.7c0,-2.1,1.8,-3.9,3.9,-3.9c2.2,0,3.9,1.7,3.9,3.9v2.4h-7.7v-2.4h-.1Z" class="g1_280"/>
<path d="M474.2,336.3h15.5v6.9c-1.3,.6,-2.3,2,-2.3,3.7c0,2.2,1.8,4.1,4.1,4.1c2.3,0,4.1,-1.9,4.1,-4.1c0,-1.7,-.9,-3.1,-2.3,-3.7v-6.9h16.6c2.7,0,4.9,-1.9,5.3,-4.5H504.3c-2.6,0,-4.7,-2.1,-4.7,-4.6v-1.7H474.2c-3,0,-5.5,2.4,-5.5,5.4c0,3,2.5,5.4,5.5,5.4Zm10,-6.8c.8,0,1.4,.6,1.4,1.4c0,.8,-.6,1.4,-1.4,1.4c-.7,0,-1.3,-.6,-1.3,-1.4c0,-.8,.6,-1.4,1.3,-1.4Zm-4.2,0c.8,0,1.4,.6,1.4,1.4c0,.8,-.6,1.4,-1.4,1.4c-.7,0,-1.3,-.6,-1.3,-1.4c0,-.8,.6,-1.4,1.3,-1.4Zm-5.6,-1.3c1.5,0,2.7,1.2,2.7,2.7c0,1.5,-1.2,2.7,-2.7,2.7c-1.4,0,-2.6,-1.2,-2.6,-2.7c0,-1.5,1.2,-2.7,2.6,-2.7Z" class="g1_280"/>
<path d="M296.6,361.8l.5,110M493.4,363.3l.5,113m-197,-84l189.3,1.2" class="g2_280"/>
<path d="M484.7,395.8l8.3,-2.2l-8.3,-2.3v4.5Z" class="g1_280"/>
<path d="M493.1,434.6l-188.7,-.1" class="g2_280"/>
<path d="M305.9,432.2l-8.3,2.3l8.3,2.2v-4.5Z" class="g1_280"/>
<path d="M679.9,340.3c-.4,-.2,-.9,-.2,-1.1,0c-4.1,3,-11,4.9,-18.8,4.9c-7.8,0,-14.8,-1.9,-18.9,-4.9c-.4,-.2,-.8,-.2,-1,0c-.4,.2,-.6,.6,-.6,.8v3.1c0,5.1,9,9.2,20.5,9.2c11.5,0,20.5,-4.1,20.5,-9.2v-3.1c0,-.4,-.2,-.8,-.6,-.8Z" class="g1_280"/>
<path d="M679.9,319.6c-.4,-.2,-.9,-.2,-1.1,0c-4.1,3,-11,4.9,-18.8,4.9c-7.8,0,-14.8,-1.9,-18.9,-4.9c-.4,-.2,-.8,-.2,-1,0c-.4,.2,-.6,.6,-.6,.8v3.1c0,5.1,9,9.2,20.5,9.2c11.5,0,20.5,-4.1,20.5,-9.2v-3.1c0,-.2,-.2,-.6,-.6,-.8Z" class="g1_280"/>
<path d="M660,322.6c11.5,0,20.5,-4.1,20.5,-9.2c0,-5.1,-9,-9.2,-20.5,-9.2c-11.5,0,-20.5,4.1,-20.5,9.2c0,5.1,9,9.2,20.5,9.2Z" class="g1_280"/>
<path d="M679.9,329.8c-.4,-.2,-.9,-.2,-1.1,0c-4.1,3.1,-11,4.9,-18.8,4.9c-7.8,0,-14.8,-1.8,-18.9,-4.9c-.4,-.2,-.8,-.2,-1,0c-.4,.2,-.6,.6,-.6,.8v3.1c0,5.1,9,9.2,20.5,9.2c11.5,0,20.5,-4.1,20.5,-9.2v-3.1c0,-.2,-.2,-.6,-.6,-.8Z" class="g1_280"/>
<path d="M661.6,363.9l.4,112M493.8,415.2l160.7,.2" class="g2_280"/>
<path d="M653,417.6l8.2,-2.2L653,413.2v4.4Z" class="g1_280"/>
<path d="M336.8,259.5c-5.6,35.5,22.3,50.9,21.9,93.7" class="g3_280"/>
<path d="M355.8,352.3l2.8,5l2.9,-4.9l-5.7,-.1Z" class="g1_280"/>
<path d="M604.4,279.6c5.5,32.6,-24,41.8,-24.9,80.6" class="g3_280"/>
<path d="M576.7,359.3l2.8,5l2.9,-4.9l-5.7,-.1Z" class="g1_280"/>
<path clip-path="url(#c0_280)" d="M251,462.2c45.7,20.3,132.3,35.3,135.9,-13.9" class="g3_280"/>
<path d="M389.7,449.2l-2.7,-5l-3,4.8l5.7,.2Z" class="g1_280"/>
<path d="M90.8,920.1H500.7V647.3H90.8Z" class="g0_280"/>
<path d="M147.4,729.6c-5.5,-1.9,-7.3,-.9,-7.3,-4.5c0,-.2,0,-.5,.1,-.8h.2c3.8,.2,7.4,.5,8.2,-.1c1.3,-.9,-3.2,-2.3,-3.2,-13.9c0,-5.8,-3.8,-10,-9.7,-10c0,0,-.1,0,-.1,0q-.1,0,-.1,0h-.2q-.1,0,-.1,0c0,0,-.1,0,-.1,0c-5.9,0,-9.8,4.2,-9.8,10c0,11.6,-4.4,13,-3.1,13.9c.8,.6,4.4,.3,8.1,.1h.3c0,.3,0,.6,0,.8c0,3.6,-1.7,2.6,-7.2,4.5c-5.5,2,-7.1,4,-7.1,5.4c0,1.4,0,9.1,0,9.1h38.2c0,0,0,-7.7,0,-9.1c0,-1.4,-1.6,-3.4,-7.1,-5.4Z" class="g1_280"/>
<path d="M304.6,727.5h24.2v-4.6c0,-1.5,.7,-2.8,1.9,-3.6v-.4c0,-.6,0,-1.2,.1,-1.7H304.6c-2.8,0,-5.1,2.3,-5.1,5.2c0,2.8,2.3,5.1,5.1,5.1Zm9.6,-6.4c.7,0,1.3,.5,1.3,1.3c0,.7,-.6,1.3,-1.3,1.3c-.7,0,-1.3,-.6,-1.3,-1.3c0,-.8,.6,-1.3,1.3,-1.3Zm-4,0c.7,0,1.3,.5,1.3,1.3c0,.7,-.6,1.3,-1.3,1.3c-.7,0,-1.3,-.6,-1.3,-1.3c0,-.8,.6,-1.3,1.3,-1.3Zm-5.3,-1.3c1.4,0,2.5,1.2,2.5,2.6c0,1.3,-1.1,2.5,-2.5,2.5c-1.4,0,-2.5,-1.2,-2.5,-2.5c0,-1.4,1.1,-2.6,2.5,-2.6Z" class="g1_280"/>
<path d="M314.9,751.2c0,-.6,0,-1.2,.2,-1.7H302.8c-.9,0,-1.7,.7,-1.7,1.7c0,.9,.8,1.7,1.7,1.7h12.3c-.2,-.6,-.2,-1.2,-.2,-1.7Z" class="g1_280"/>
<path d="M341.2,751.2c0,-1,-.7,-1.7,-1.6,-1.7H327.1c.2,.5,.3,1.1,.3,1.7c0,.5,-.1,1.1,-.3,1.7h12.5c.9,0,1.6,-.8,1.6,-1.7Z" class="g1_280"/>
<path d="M333.2,734.2h13.4c.9,0,1.7,-.8,1.7,-1.7v-9.6c0,-.9,-.8,-1.7,-1.7,-1.7h-.1v-2.3c0,-3.6,-2.9,-6.6,-6.6,-6.6c-3.6,0,-6.5,3,-6.5,6.6v2.3h-.2c-.9,0,-1.7,.8,-1.7,1.7v9.6c0,.9,.8,1.7,1.7,1.7Zm7.7,-6.1c-.1,.1,-.2,.2,-.2,.4c0,.7,0,1.4,0,2.1c.1,.3,-.1,.5,-.3,.7c-.7,.3,-1.3,-.1,-1.3,-.7c0,-.7,0,-1.4,0,-2.1c0,-.2,0,-.3,-.1,-.4c-.7,-.4,-.9,-1.2,-.6,-1.9c.4,-.7,1.1,-1.1,1.8,-1c.8,.2,1.4,.8,1.4,1.6c0,.5,-.2,1,-.7,1.3Zm-4.6,-9.2c0,-2,1.6,-3.7,3.7,-3.7c2,0,3.6,1.7,3.6,3.7v2.3h-7.3v-2.3Z" class="g1_280"/>
<path d="M304.6,741.2h14.8v6.5c-1.3,.6,-2.2,1.9,-2.2,3.5c0,2.1,1.8,3.9,3.9,3.9c2.2,0,3.9,-1.8,3.9,-3.9c0,-1.6,-.9,-2.9,-2.2,-3.5v-6.5h15.8c2.5,0,4.6,-1.9,5.1,-4.3H333.2c-2.4,0,-4.4,-2,-4.4,-4.4v-1.7H304.6c-2.8,0,-5.1,2.4,-5.1,5.2c0,2.9,2.3,5.2,5.1,5.2Zm9.6,-6.5c.7,0,1.3,.6,1.3,1.3c0,.7,-.6,1.3,-1.3,1.3c-.7,0,-1.3,-.6,-1.3,-1.3c0,-.7,.6,-1.3,1.3,-1.3Zm-4,0c.7,0,1.3,.6,1.3,1.3c0,.7,-.6,1.3,-1.3,1.3c-.7,0,-1.3,-.6,-1.3,-1.3c0,-.7,.6,-1.3,1.3,-1.3Zm-5.3,-1.2c1.4,0,2.5,1.1,2.5,2.5c0,1.4,-1.1,2.5,-2.5,2.5c-1.4,0,-2.5,-1.1,-2.5,-2.5c0,-1.4,1.1,-2.5,2.5,-2.5Z" class="g1_280"/>
<path d="M136,765.3l.4,91M323,766.8l.4,90.9" class="g2_280"/>
<path d="M500.1,744.9c-.4,-.2,-.8,-.2,-1,0c-3.9,2.9,-10.5,4.7,-17.9,4.7c-7.4,0,-14,-1.8,-17.9,-4.7c-.4,-.2,-.8,-.2,-1,0c-.4,.2,-.6,.6,-.6,.8v2.9c0,4.9,8.6,8.7,19.5,8.7c10.9,0,19.4,-3.8,19.4,-8.7v-2.9c0,-.4,-.2,-.8,-.5,-.8Z" class="g1_280"/>
<path d="M500.1,725.2c-.4,-.2,-.8,-.2,-1,0c-3.9,2.9,-10.5,4.7,-17.9,4.7c-7.4,0,-14,-1.8,-17.9,-4.7c-.4,-.2,-.8,-.2,-1,0c-.4,.2,-.6,.6,-.6,.8v2.9c0,4.9,8.6,8.8,19.5,8.8c10.9,0,19.4,-3.9,19.4,-8.8V726c0,-.2,-.2,-.6,-.5,-.8Z" class="g1_280"/>
<path d="M481.2,728.1c10.9,0,19.4,-3.8,19.4,-8.7c0,-4.9,-8.5,-8.8,-19.4,-8.8c-10.9,0,-19.5,3.9,-19.5,8.8c0,4.9,8.6,8.7,19.5,8.7Z" class="g1_280"/>
<path d="M500.1,735c-.4,-.2,-.8,-.2,-1,0c-3.9,2.9,-10.5,4.6,-17.9,4.6c-7.4,0,-14,-1.7,-17.9,-4.6c-.4,-.2,-.8,-.2,-1,0c-.4,.2,-.6,.5,-.6,.7v3c0,4.8,8.6,8.7,19.5,8.7c10.9,0,19.4,-3.9,19.4,-8.7v-3c0,-.2,-.2,-.5,-.5,-.7Z" class="g1_280"/>
<path d="M482.7,767.3l.4,95.7m-347,-74.6l179.7,1.2" class="g2_280"/>
<path d="M314.3,791.8l8.3,-2.1l-8.3,-2.3v4.4Z" class="g1_280"/>
<path d="M332,810.6l142.8,1.2" class="g2_280"/>
<path d="M333.5,812.9l-8.3,-2.3l8.3,-2.2v4.5Z" class="g1_280"/>
<path d="M473.3,814l8.3,-2.1l-8.3,-2.3V814Z" class="g1_280"/>
<path d="M323.4,828L143.7,826.8" class="g2_280"/>
<path d="M145.2,824.6l-8.3,2.1l8.3,2.3v-4.4Z" class="g1_280"/>
<path d="M174,678.9c.4,33.9,32.4,18.5,34.4,72.1" class="g3_280"/>
<path d="M205.4,750.3l3.1,4.8l2.6,-5.1l-5.7,.3Z" class="g1_280"/>
<path d="M168.3,887.2c6.7,-32.7,37.5,-5.9,41.2,-47.7" class="g3_280"/>
<path d="M212.2,840.6l-2.4,-5.2l-3.3,4.7l5.7,.5Z" class="g1_280"/>
<path d="M410.1,886C424.6,850.9,398,855.1,395.5,823.8" class="g3_280"/>
<path d="M398.5,824.4l-3.2,-4.7l-2.5,5.1l5.7,-.4Z" class="g1_280"/>
</svg>