<?xml version="1.0" encoding="UTF-8" standalone="no"?>
<!DOCTYPE svg PUBLIC "-//W3C//DTD SVG 1.1//EN"
"http://www.w3.org/Graphics/SVG/1.1/DTD/svg11.dtd">
<svg viewBox="0 0 931 1096" version="1.1" xmlns="http://www.w3.org/2000/svg" xmlns:xlink="http://www.w3.org/1999/xlink">
<defs>
<clipPath id="c0_44"><path d="M653.3,447V413.8H760.1V447Z"/></clipPath>
<clipPath id="c1_44"><path d="M317,662.4V628.7H793.7v33.7Z"/></clipPath>
<clipPath id="c2_44"><path d="M115.2,663.4V633.6h96.6v29.8Z"/></clipPath>
<style type="text/css"><![CDATA[
.g0_44{
fill: none;
stroke: #241F1F;
stroke-width: 0.763;
stroke-miterlimit: 10;
}
.g1_44{
fill: #D0007A;
}
.g2_44{
fill: none;
stroke: #00AEEF;
stroke-width: 0.916;
stroke-linejoin: round;
}
.g3_44{
fill: none;
stroke: #241F1F;
stroke-width: 0.611;
stroke-miterlimit: 3;
}
.g4_44{
fill: #241F1F;
}
.g5_44{
fill: none;
stroke: #241F1F;
stroke-width: 0.534;
stroke-miterlimit: 3;
}
.g6_44{
fill: #00AEEF;
}
.g7_44{
fill: none;
stroke: #00AEEF;
stroke-width: 0.763;
stroke-miterlimit: 3;
}
.g8_44{
fill: none;
stroke: #241F1F;
stroke-width: 0.687;
stroke-miterlimit: 10;
}
]]></style>
</defs>
<path clip-path="url(#c0_44)" d="M655.9,431.2H760.4" class="g0_44"/>
<path d="M319.7,646.7H424.2" class="g0_44"/>
<path clip-path="url(#c1_44)" d="M446.1,646.7h348" class="g0_44"/>
<path d="M446.1,692.6H773.7M446.1,738.5H553.9" class="g0_44"/>
<path d="M288.8,793.8c0,0,-1.6,0,-1.6,1.6v9.1c0,0,0,1.6,1.6,1.6h9.1c0,0,1.6,0,1.6,-1.6v-9.1c0,0,0,-1.6,-1.6,-1.6Z" class="g1_44"/>
<path d="M123.1,245.5L192.8,104.1" class="g2_44"/>
<path d="M136,245.5V103.7" class="g3_44"/>
<path fill-rule="evenodd" d="M136,103.7l-2.5,1.6L136,98.8l2.4,6.5Z" class="g4_44"/>
<path d="M53.5,190.5H227.7" class="g3_44"/>
<path fill-rule="evenodd" d="M227.7,190.5L226,188l6.5,2.5l-6.5,2.4Z" class="g4_44"/>
<path d="M150.1,204.9H157" class="g5_44"/>
<path d="M134.5,402.7h6.1M165,427.2v6.1" class="g3_44"/>
<path d="M78.7,306.5c14.6,51.8,31.4,123.9,58.8,123.7c27.6,-.1,44.4,-71.9,58.8,-123.7" class="g2_44"/>
<path d="M149.7,423.5c0,-.9,.8,-1.7,1.7,-1.7c1,0,1.7,.8,1.7,1.7c0,1,-.7,1.7,-1.7,1.7c-.9,0,-1.7,-.7,-1.7,-1.7Z" class="g6_44"/>
<path d="M149.7,423.5c0,-.9,.8,-1.7,1.7,-1.7c1,0,1.7,.8,1.7,1.7c0,1,-.7,1.7,-1.7,1.7c-.9,0,-1.7,-.7,-1.7,-1.7Z" class="g7_44"/>
<path d="M190.8,320.2c0,-.9,.8,-1.7,1.7,-1.7c1,0,1.7,.8,1.7,1.7c0,1,-.7,1.8,-1.7,1.8c-.9,0,-1.7,-.8,-1.7,-1.8Z" class="g6_44"/>
<path d="M190.8,320.2c0,-.9,.8,-1.7,1.7,-1.7c1,0,1.7,.8,1.7,1.7c0,1,-.7,1.8,-1.7,1.8c-.9,0,-1.7,-.8,-1.7,-1.8Z" class="g7_44"/>
<path d="M163.3,402.7c0,-.9,.8,-1.7,1.7,-1.7c1,0,1.7,.8,1.7,1.7c0,1,-.7,1.8,-1.7,1.8c-.9,0,-1.7,-.8,-1.7,-1.8Z" class="g6_44"/>
<path d="M163.3,402.7c0,-.9,.8,-1.7,1.7,-1.7c1,0,1.7,.8,1.7,1.7c0,1,-.7,1.8,-1.7,1.8c-.9,0,-1.7,-.8,-1.7,-1.8Z" class="g7_44"/>
<path d="M121.9,423.5c0,-.9,.8,-1.7,1.7,-1.7c1,0,1.7,.8,1.7,1.7c0,1,-.7,1.7,-1.7,1.7c-.9,0,-1.7,-.7,-1.7,-1.7Z" class="g6_44"/>
<path d="M121.9,423.5c0,-.9,.8,-1.7,1.7,-1.7c1,0,1.7,.8,1.7,1.7c0,1,-.7,1.7,-1.7,1.7c-.9,0,-1.7,-.7,-1.7,-1.7Z" class="g7_44"/>
<path d="M108.3,402.7c0,-.9,.8,-1.7,1.7,-1.7c1,0,1.7,.8,1.7,1.7c0,1,-.7,1.8,-1.7,1.8c-.9,0,-1.7,-.8,-1.7,-1.8Z" class="g6_44"/>
<path d="M108.3,402.7c0,-.9,.8,-1.7,1.7,-1.7c1,0,1.7,.8,1.7,1.7c0,1,-.7,1.8,-1.7,1.8c-.9,0,-1.7,-.8,-1.7,-1.8Z" class="g7_44"/>
<path d="M135.8,430.2c0,-.9,.8,-1.7,1.7,-1.7c1,0,1.7,.8,1.7,1.7c0,1,-.7,1.8,-1.7,1.8c-.9,0,-1.7,-.8,-1.7,-1.8Z" class="g6_44"/>
<path d="M135.8,430.2c0,-.9,.8,-1.7,1.7,-1.7c1,0,1.7,.8,1.7,1.7c0,1,-.7,1.8,-1.7,1.8c-.9,0,-1.7,-.8,-1.7,-1.8Z" class="g7_44"/>
<path d="M80.8,320.2c0,-.9,.8,-1.7,1.7,-1.7c1,0,1.7,.8,1.7,1.7c0,1,-.7,1.8,-1.7,1.8c-.9,0,-1.7,-.8,-1.7,-1.8Z" class="g6_44"/>
<path d="M80.8,320.2c0,-.9,.8,-1.7,1.7,-1.7c1,0,1.7,.8,1.7,1.7c0,1,-.7,1.8,-1.7,1.8c-.9,0,-1.7,-.8,-1.7,-1.8Z" class="g7_44"/>
<path d="M55,430.2H229.2" class="g3_44"/>
<path fill-rule="evenodd" d="M229.2,430.2l-1.7,-2.4l6.6,2.4l-6.6,2.5Z" class="g4_44"/>
<path d="M137.5,453.2V306.5" class="g3_44"/>
<path fill-rule="evenodd" d="M137.5,306.5l-2.4,1.6l2.4,-6.5l2.5,6.5Z" class="g4_44"/>
<path clip-path="url(#c2_44)" d="M117.5,649.2h94.6" class="g8_44"/>
</svg>