<?xml version="1.0" encoding="UTF-8" standalone="no"?>
<!DOCTYPE svg PUBLIC "-//W3C//DTD SVG 1.1//EN"
"http://www.w3.org/Graphics/SVG/1.1/DTD/svg11.dtd">
<svg viewBox="0 0 770 1017" version="1.1" xmlns="http://www.w3.org/2000/svg" xmlns:xlink="http://www.w3.org/1999/xlink">
<defs>
<style type="text/css"><![CDATA[
.g0_59{
fill: none;
stroke: #000000;
stroke-width: 0.618;
stroke-linecap: butt;
stroke-linejoin: miter;
}
.g1_59{
fill: none;
stroke: #000000;
stroke-width: 0.25;
stroke-linecap: butt;
stroke-linejoin: miter;
}
.g2_59{
stroke: #000000;
stroke-width: 0.25;
stroke-linecap: butt;
stroke-linejoin: miter;
}
.g3_59{
}
]]></style>
</defs>
<path d="M74.2,69.2H713.5" class="g0_59"/>
<path d="M433.8,146.8L446.4,187M433.8,146.8V187m0,-40.2L421.2,187M393.6,146.8L406.2,187M393.6,146.8V187m0,-40.2L381,187M353.4,146.8L366,187M353.4,149.3V187m0,-40.2L340.8,187m52.8,-80.4l40.2,40.2M393.6,106.6v40.2m0,-40.2l-40.2,40.2" class="g1_59"/>
<path fill-rule="evenodd" d="M355.1,146.8c0,.9,-.8,1.7,-1.7,1.7c-1,0,-1.7,-.8,-1.7,-1.7c0,-.9,.7,-1.7,1.7,-1.7c.9,0,1.7,.8,1.7,1.7Z" class="g2_59"/>
<path fill-rule="evenodd" d="M435.5,146.8c0,.9,-.8,1.7,-1.7,1.7c-1,0,-1.7,-.8,-1.7,-1.7c0,-.9,.7,-1.7,1.7,-1.7c.9,0,1.7,.8,1.7,1.7Z" class="g2_59"/>
<path fill-rule="evenodd" d="M395.3,146.8c0,.9,-.8,1.7,-1.7,1.7c-.9,0,-1.7,-.8,-1.7,-1.7c0,-.9,.8,-1.7,1.7,-1.7c.9,0,1.7,.8,1.7,1.7Z" class="g2_59"/>
<path fill-rule="evenodd" d="M395.3,104.9c0,.9,-.8,1.7,-1.7,1.7c-.9,0,-1.7,-.8,-1.7,-1.7c0,-1,.8,-1.7,1.7,-1.7c.9,0,1.7,.7,1.7,1.7Z" class="g3_59"/>
<path d="M395.3,104.9c0,.9,-.8,1.7,-1.7,1.7c-.9,0,-1.7,-.8,-1.7,-1.7c0,-1,.8,-1.7,1.7,-1.7c.9,0,1.7,.7,1.7,1.7Z" class="g1_59"/>
<path fill-rule="evenodd" d="M448.1,187c0,.9,-.8,1.7,-1.8,1.7c-.9,0,-1.7,-.8,-1.7,-1.7c0,-.9,.8,-1.7,1.7,-1.7c1,0,1.8,.8,1.8,1.7Z" class="g3_59"/>
<path d="M448.1,187c0,.9,-.8,1.7,-1.8,1.7c-.9,0,-1.7,-.8,-1.7,-1.7c0,-.9,.8,-1.7,1.7,-1.7c1,0,1.8,.8,1.8,1.7Z" class="g1_59"/>
<path fill-rule="evenodd" d="M422.9,187c0,.9,-.7,1.7,-1.7,1.7c-.9,0,-1.7,-.8,-1.7,-1.7c0,-.9,.8,-1.7,1.7,-1.7c1,0,1.7,.8,1.7,1.7Z" class="g3_59"/>
<path d="M422.9,187c0,.9,-.7,1.7,-1.7,1.7c-.9,0,-1.7,-.8,-1.7,-1.7c0,-.9,.8,-1.7,1.7,-1.7c1,0,1.7,.8,1.7,1.7Z" class="g1_59"/>
<path fill-rule="evenodd" d="M435.5,187c0,.9,-.8,1.7,-1.7,1.7c-1,0,-1.7,-.8,-1.7,-1.7c0,-.9,.7,-1.7,1.7,-1.7c.9,0,1.7,.8,1.7,1.7Z" class="g3_59"/>
<path d="M435.5,187c0,.9,-.8,1.7,-1.7,1.7c-1,0,-1.7,-.8,-1.7,-1.7c0,-.9,.7,-1.7,1.7,-1.7c.9,0,1.7,.8,1.7,1.7Z" class="g1_59"/>
<path fill-rule="evenodd" d="M407.9,187c0,.9,-.8,1.7,-1.7,1.7c-1,0,-1.8,-.8,-1.8,-1.7c0,-.9,.8,-1.7,1.8,-1.7c.9,0,1.7,.8,1.7,1.7Z" class="g3_59"/>
<path d="M407.9,187c0,.9,-.8,1.7,-1.7,1.7c-1,0,-1.8,-.8,-1.8,-1.7c0,-.9,.8,-1.7,1.8,-1.7c.9,0,1.7,.8,1.7,1.7Z" class="g1_59"/>
<path fill-rule="evenodd" d="M382.7,187c0,.9,-.7,1.7,-1.7,1.7c-.9,0,-1.7,-.8,-1.7,-1.7c0,-.9,.8,-1.7,1.7,-1.7c1,0,1.7,.8,1.7,1.7Z" class="g3_59"/>
<path d="M382.7,187c0,.9,-.7,1.7,-1.7,1.7c-.9,0,-1.7,-.8,-1.7,-1.7c0,-.9,.8,-1.7,1.7,-1.7c1,0,1.7,.8,1.7,1.7Z" class="g1_59"/>
<path fill-rule="evenodd" d="M395.3,187c0,.9,-.8,1.7,-1.7,1.7c-.9,0,-1.7,-.8,-1.7,-1.7c0,-.9,.8,-1.7,1.7,-1.7c.9,0,1.7,.8,1.7,1.7Z" class="g3_59"/>
<path d="M395.3,187c0,.9,-.8,1.7,-1.7,1.7c-.9,0,-1.7,-.8,-1.7,-1.7c0,-.9,.8,-1.7,1.7,-1.7c.9,0,1.7,.8,1.7,1.7Z" class="g1_59"/>
<path fill-rule="evenodd" d="M367.7,187c0,.9,-.8,1.7,-1.7,1.7c-1,0,-1.8,-.8,-1.8,-1.7c0,-.9,.8,-1.7,1.8,-1.7c.9,0,1.7,.8,1.7,1.7Z" class="g3_59"/>
<path d="M367.7,187c0,.9,-.8,1.7,-1.7,1.7c-1,0,-1.8,-.8,-1.8,-1.7c0,-.9,.8,-1.7,1.8,-1.7c.9,0,1.7,.8,1.7,1.7Z" class="g1_59"/>
<path fill-rule="evenodd" d="M342.5,187c0,.9,-.7,1.7,-1.7,1.7c-.9,0,-1.7,-.8,-1.7,-1.7c0,-.9,.8,-1.7,1.7,-1.7c1,0,1.7,.8,1.7,1.7Z" class="g3_59"/>
<path d="M342.5,187c0,.9,-.7,1.7,-1.7,1.7c-.9,0,-1.7,-.8,-1.7,-1.7c0,-.9,.8,-1.7,1.7,-1.7c1,0,1.7,.8,1.7,1.7Z" class="g1_59"/>
<path fill-rule="evenodd" d="M355.1,187c0,.9,-.8,1.7,-1.7,1.7c-1,0,-1.7,-.8,-1.7,-1.7c0,-.9,.7,-1.7,1.7,-1.7c.9,0,1.7,.8,1.7,1.7Z" class="g3_59"/>
<path d="M355.1,187c0,.9,-.8,1.7,-1.7,1.7c-1,0,-1.7,-.8,-1.7,-1.7c0,-.9,.7,-1.7,1.7,-1.7c.9,0,1.7,.8,1.7,1.7Z" class="g1_59"/>
<path d="M83.4,241.9h621" class="g0_59"/>
</svg>