<?xml version="1.0" encoding="UTF-8" standalone="no"?>
<!DOCTYPE svg PUBLIC "-//W3C//DTD SVG 1.1//EN"
"http://www.w3.org/Graphics/SVG/1.1/DTD/svg11.dtd">
<svg viewBox="0 0 907 1045" version="1.1" xmlns="http://www.w3.org/2000/svg" xmlns:xlink="http://www.w3.org/1999/xlink">
<defs>
<clipPath id="c0_89"><path d="M170,619.3C159.2,612,146.7,611.6,150.8,590.9c2.2,-11,10.5,-15.4,19.9,-19.4H181c23.9,11,18.3,37.8,-2.8,47.8Z"/></clipPath>
<clipPath id="c1_89"><path d="M170.5,607.4c-.8,-.2,-1.8,-.4,-2.5,-.8c-.4,-.4,-.5,-.7,-.9,-1.1c-.1,-1.2,-.1,-1.6,-.8,-2.1c0,-.2,.4,-.6,.4,-.6c-.5,-1.5,-.5,-3.6,-1.3,-4.7c.1,-.8,.2,0,.2,-.8c-1.2,-2.9,-1.4,-7.6,-1.7,-10.4c.4,-.8,.9,-1.2,1.7,-1.7c.4,-.2,5.1,-1.7,6.7,-1.7c.3,0,.5,.1,.5,.2h1.3v.2h1.1v-.2h1c2,.5,3.1,.6,4.5,1.5c.3,.7,.3,1.1,-.1,1.1q-.1,0,-.1,0c0,0,.4,.4,.4,.4c0,2.2,0,4.9,-.6,6.6c.1,.4,.1,-.1,.2,.6c-.6,3.8,-.5,8.9,-1.5,12.5c-.1,0,-.1,-.1,-.1,-.1c-.2,0,-.2,.1,-.1,.3c-1.5,.1,-3.2,.5,-4.7,.8Z"/></clipPath>
<clipPath id="c2_89"><path d="M368.6,598c-8.4,-5.6,-18.1,-6,-14.9,-22c1.7,-8.5,8.1,-12,15.4,-15h8c18.5,8.5,14.2,29.2,-2.1,37Z"/></clipPath>
<clipPath id="c3_89"><path d="M363.7,701.3c-8.4,-5.7,-18.1,-6,-14.9,-22c1.7,-8.6,8.1,-12,15.4,-15h8c18.6,8.4,14.3,29.2,-2.1,37Z"/></clipPath>
<clipPath id="c4_89"><path d="M405.8,650.5c-8.4,-5.6,-18.1,-5.9,-14.9,-22c1.7,-8.5,8.1,-11.9,15.4,-15h8c18.5,8.5,14.2,29.3,-2.1,37Z"/></clipPath>
<clipPath id="c5_89"><path d="M335.5,648.2c-8.4,-5.6,-18.1,-5.9,-14.9,-21.9c1.7,-8.6,8.1,-12,15.4,-15h8c18.6,8.4,14.2,29.2,-2.1,36.9Z"/></clipPath>
<clipPath id="c6_89"><path d="M-2.6,1047.7V-2.6H910.2V1047.7Z"/></clipPath>
<style type="text/css"><![CDATA[
.g0_89{
fill: #E0E0E0;
}
.g1_89{
fill: none;
stroke: #000000;
stroke-width: 1.527;
stroke-linecap: butt;
stroke-linejoin: miter;
stroke-miterlimit: 4;
}
.g2_89{
fill: #D6D6D6;
}
.g3_89{
fill: none;
stroke: #505050;
stroke-width: 0.802;
stroke-linecap: butt;
stroke-linejoin: miter;
stroke-miterlimit: 4;
}
.g4_89{
fill: #F9F9F9;
}
.g5_89{
fill: none;
stroke: #000000;
stroke-width: 0.152;
stroke-linecap: butt;
stroke-linejoin: miter;
stroke-miterlimit: 4;
}
.g6_89{
fill: none;
stroke: #3D3D3D;
stroke-width: 1.294;
stroke-linecap: round;
stroke-linejoin: round;
stroke-miterlimit: 4;
stroke-dasharray: 0,4;
}
.g7_89{
fill: none;
stroke: #3D3D3D;
stroke-width: 1.294;
stroke-linecap: round;
stroke-linejoin: round;
stroke-miterlimit: 4;
}
.g8_89{
fill: #3D3D3D;
}
.g9_89{
fill: none;
stroke: #0B0B0B;
stroke-width: 0.841;
stroke-linecap: butt;
stroke-linejoin: miter;
stroke-miterlimit: 4;
}
.ga_89{
fill: none;
stroke: #3D3D3D;
stroke-width: 1.527;
stroke-linecap: butt;
stroke-linejoin: miter;
stroke-miterlimit: 4;
}
.gb_89{
fill: none;
stroke: #FFFFFF;
stroke-width: 1.909;
stroke-linecap: butt;
stroke-linejoin: miter;
}
.gc_89{
fill: none;
stroke: #000000;
stroke-width: 0.381;
stroke-linecap: butt;
stroke-linejoin: miter;
}
]]></style>
</defs>
<path d="M91.5,282v98.1h389V282H91.5Z" class="g0_89"/>
<path d="M91.5,282v98.1h389V282H91.5Z" class="g1_89"/>
<image clip-path="url(#c0_89)" preserveAspectRatio="none" x="149" y="570" width="50" height="51" xlink:href="img/1.jpg"/>
<image clip-path="url(#c1_89)" preserveAspectRatio="none" x="163" y="581" width="20" height="28" xlink:href="img/2.jpg"/>
<path d="M354.6,542.8c.9,-.9,40.3,12.2,41.5,13.7c6,2.4,12,4.9,17.9,7.4c2.6,.5,4.6,1.9,6.2,4.1c2,2.3,3.6,6.1,4.9,8.9c2.3,4.9,1.7,7.6,1.1,13.1c-.5,4.5,-.8,9,-.8,13.6c.4,5.5,2.6,9.7,4.6,14.6c2.9,7.2,6.8,14.5,8.3,22.4c2,10,-.3,17.9,-4.4,26.5c-4.8,9.9,-11.7,18.1,-15.7,28.6c-4.5,11.7,-7,27.3,-16.2,35.1c-6.2,3.6,-12.7,5.7,-19.5,6.1c-8.1,.3,-15.9,-1.1,-23.6,-4.1c-5.2,-2.2,-10.4,-3.5,-15.8,-3.9c-9.1,-.3,-18.2,5.8,-26.5,-1.4c-4,-4.9,-7.2,-10.5,-9.4,-16.9c-1.9,-4.6,-3.8,-9.2,-5.8,-13.7c-2,-4,-3.6,-8.3,-5,-12.7c-1.8,-8,.6,-13,2.7,-20.4c2.3,-7.9,3.5,-16,3.6,-24.4c-.1,-7.2,-.1,-14.4,-.2,-21.5c.4,-6.7,1.1,-13.4,2.2,-20c1.8,-9.6,5.1,-16.1,10,-23.7c4.3,-6.7,8.1,-13.9,12.5,-20.5c1.5,-2.8,3.4,-5.2,5.7,-6.9c1.2,-.5,20.8,-2.5,21.2,-3.4Z" class="g2_89"/>
<path d="M354.6,542.8c.9,-.9,40.3,12.2,41.5,13.7c6,2.4,12,4.9,17.9,7.4c2.6,.5,4.6,1.9,6.2,4.1c2,2.3,3.6,6.1,4.9,8.9c2.3,4.9,1.7,7.6,1.1,13.1c-.5,4.5,-.8,9,-.8,13.6c.4,5.5,2.6,9.7,4.6,14.6c2.9,7.2,6.8,14.5,8.3,22.4c2,10,-.3,17.9,-4.4,26.5c-4.8,9.9,-11.7,18.1,-15.7,28.6c-4.5,11.7,-7,27.3,-16.2,35.1c-6.2,3.6,-12.7,5.7,-19.5,6.1c-8.1,.3,-15.9,-1.1,-23.6,-4.1c-5.2,-2.2,-10.4,-3.5,-15.8,-3.9c-9.1,-.3,-18.2,5.8,-26.5,-1.4c-4,-4.9,-7.2,-10.5,-9.4,-16.9c-1.9,-4.6,-3.8,-9.2,-5.8,-13.7c-2,-4,-3.6,-8.3,-5,-12.7c-1.8,-8,.6,-13,2.7,-20.4c2.3,-7.9,3.5,-16,3.6,-24.4c-.1,-7.2,-.1,-14.4,-.2,-21.5c.4,-6.7,1.1,-13.4,2.2,-20c1.8,-9.6,5.1,-16.1,10,-23.7c4.3,-6.7,8.1,-13.9,12.5,-20.5c1.5,-2.8,3.4,-5.2,5.7,-6.9c1.2,-.5,20.8,-2.5,21.2,-3.4" class="g3_89"/>
<image clip-path="url(#c2_89)" preserveAspectRatio="none" x="353" y="560" width="38" height="39" xlink:href="img/3.jpg"/>
<image clip-path="url(#c3_89)" preserveAspectRatio="none" x="348" y="663" width="39" height="39" xlink:href="img/4.jpg"/>
<image clip-path="url(#c4_89)" preserveAspectRatio="none" x="390" y="612" width="39" height="40" xlink:href="img/5.jpg"/>
<image clip-path="url(#c5_89)" preserveAspectRatio="none" x="320" y="610" width="38" height="39" xlink:href="img/6.jpg"/>
<path d="M435.2,713.2l-53.4,.3v10.9l53.4,-.3V713.2Z" class="g4_89"/>
<path d="M435.2,713.2l-53.4,.3v10.9l53.4,-.3V713.2Z" class="g5_89"/>
<path d="M206.3,589.7l132.8,-6.9" class="g6_89"/>
<path d="M202.4,589.9v0M341,582.7v0" class="g7_89"/>
<path d="M348,582.3l-9.2,-2.8l2.2,3.2l-1.9,3.4l8.9,-3.8Z" class="g8_89"/>
<path d="M206.6,598.7L308.3,624" class="g6_89"/>
<path d="M202.8,597.7v0m107.4,26.8v0" class="g7_89"/>
<path d="M317.1,626.2l-8,-5.4l1.1,3.7l-2.7,2.7l9.6,-1Z" class="g8_89"/>
<path d="M206.7,594.2L382.4,616" class="g6_89"/>
<path d="M202.8,593.7v0m181.5,22.5v0" class="g7_89"/>
<path d="M391.3,617.1l-8.6,-4.4l1.6,3.5l-2.4,3.1l9.4,-2.2Z" class="g8_89"/>
<path d="M205.5,603.1l131.2,66.5" class="g6_89"/>
<path d="M202,601.3v0m136.4,69.2v0" class="g7_89"/>
<path d="M344.7,673.7l-6.6,-7.1l.3,3.9l-3.3,2l9.6,1.2Z" class="g8_89"/>
<path d="M170.2,577.7l-2.6,-3.2m4.8,2.3v-4.1m2.3,4.5l2.5,-3.1m-1.1,5.2l5.1,-1.1m-17.3,-.1l4.7,1.2" class="g9_89"/>
<path d="M192,504.4c19.4,0,38.7,-1,58.1,-.9c25.2,0,51,-1.8,76.1,.7c21.3,2.1,42.6,1.4,64,2.3c-4.4,.2,-10.1,-3.7,-14.4,-5c-3.3,-1,-5.4,-3.1,-8.2,-4.3c2.1,3.1,8.7,6.1,12.1,7.5c5.1,2.1,8.3,3.5,12.6,6.9c-6.8,6.3,-15.4,4.6,-21.6,11.5c.5,-.5,-1.5,1.5,-1,1M119.3,545.8c0,5,.7,9.9,3.2,14.3c1.2,2.2,3.3,4.6,5.2,6.3c1.8,1.4,3.6,2,5.6,3c2.9,1.5,6,2.9,9.1,3.7c1.4,.4,2.7,.9,4,1.4c.7,.3,1.7,.5,2.2,1.1c-.4,-.6,-1.3,-.9,-1.9,-1.4c-.5,-.6,-1,-1.2,-1.5,-1.9c.9,1,2.3,1.6,3.2,2.6c.3,.3,1.4,1.4,1.3,1.8c-.1,.6,-3.1,.9,-3.6,1c-1.7,.3,-3.5,1.3,-5.3,1.1m309.9,6.7c3.9,3.1,7.1,6.5,10,10.7c2.1,3.2,3.8,6,4.8,9.7c1.1,4,2.2,8.6,1.7,12.7c-.4,3.3,-2,6.8,-3.1,10c-.8,2.7,-1.8,5.5,-3.1,8c-2.1,3.8,-4.7,7.2,-6.8,10.9c2.8,.4,5.8,.2,8.6,.4c-1.5,1.3,-5.2,1.6,-6.1,3.8c3.9,.4,5,5.3,5.2,8.5c.5,6.3,-1.6,11.9,-3,17.9c-.6,2.4,-1,4.8,-1.8,7.1c-1.7,5.1,-4.9,9,-8.2,13.2c-2,2.4,-3.8,4.9,-6.6,6.3c-2.9,1.4,-5.9,1.6,-9.1,1.7M237.5,702.6c1.9,-2.5,3.7,-5.1,5.7,-7.6c2.8,-3.4,4.7,-7.1,7.6,-10.5c3.2,-3.8,5.2,-8.1,7,-12.4c1.7,-3.8,3.4,-7.4,5.3,-11.1c1,-2,1.7,-3.9,2.3,-5.9c.2,-.6,.6,-1.1,.7,-1.7c.1,-.5,-.1,-1.1,0,-1.6c.2,-.6,.8,-1.1,1,-1.7c.2,-.6,.4,-1.2,.8,-1.8c.6,-.7,1.9,-2.7,1.5,-3.5c-1.3,.4,-2.6,1.3,-3.7,2c-1.2,.8,-3.8,1.7,-4.4,2.8c.1,-.6,.6,-1.1,1.1,-1.5c.9,-.7,2,-1.3,2.9,-1.9c.6,-.5,2.1,-2.3,3.1,-2.2c.6,.6,.5,1.3,1.2,1.9c.4,.3,.9,.6,1.3,.9c.4,.4,.7,.7,.9,1.1c1.4,1.5,2.5,3.1,4.2,4.4c-.1,-.1,-.1,-.2,-.1,-.3" class="ga_89"/>
<g clip-path="url(#c6_89)">
<path d="M-4.5,13.7H-27.4m939.5,0H935M-4.5,1031.2H-27.4m939.5,0H935M13.7,-4.5V-27.4m0,1077v22.9m880,-1077V-27.4m0,1077v22.9" class="gb_89"/>
<path d="M-4.5,13.7H-27.4m939.5,0H935M-4.5,1031.2H-27.4m939.5,0H935M13.7,-4.5V-27.4m0,1077v22.9m880,-1077V-27.4m0,1077v22.9" class="gc_89"/>
</g>
</svg>