<?xml version="1.0" encoding="UTF-8" standalone="no"?>
<!DOCTYPE svg PUBLIC "-//W3C//DTD SVG 1.1//EN"
"http://www.w3.org/Graphics/SVG/1.1/DTD/svg11.dtd">
<svg viewBox="0 0 931 1096" version="1.1" xmlns="http://www.w3.org/2000/svg" xmlns:xlink="http://www.w3.org/1999/xlink">
<defs>
<clipPath id="c0_39"><path d="M422.4,232.3V217.4h10.3v14.9Z"/></clipPath>
<clipPath id="c1_39"><path d="M800.3,231c-.1,-6.7,-35.1,-12.2,-78.1,-12.2c-.2,0,-.5,0,-.7,0c-42.6,0,-77,5.3,-77.1,12V217.3c0,-6.7,34.4,-12.1,77.1,-12.1h.7c43,.1,78,5.6,78.1,12.3V231Z"/></clipPath>
<clipPath id="c2_39"><path d="M809.4,217.6v-.1v.1Zm-86.3,28.3c-.2,0,-.4,0,-.6,0c-48.1,-.1,-87.2,-6.5,-87.2,-14.7V217.3c0,8.1,39.1,14.8,87.2,14.9c.2,0,.4,0,.6,0c47.7,0,86.3,-6.5,86.3,-14.6v13.7c.1,8.1,-38.5,14.6,-86.3,14.6Z"/></clipPath>
<clipPath id="c3_39"><path d="M723.1,229.6c42.7,0,77.2,-5.4,77.1,-12.1c0,-6.7,-35,-12.2,-78,-12.3c-.2,0,-.4,0,-.5,0c-42.8,0,-77.3,5.4,-77.3,12.1c.1,6.7,35,12.2,78.1,12.3Zm0,2.6c-.2,0,-.4,0,-.6,0c-48.1,-.1,-87.2,-6.8,-87.2,-14.9c-.1,-8.1,38.4,-14.7,86.2,-14.7h.7c48.1,.1,87.1,6.8,87.2,14.9c.1,8.1,-38.5,14.7,-86.3,14.7Z"/></clipPath>
<clipPath id="c4_39"><path d="M346.6,277.6V158.4H874.1V277.6Z"/></clipPath>
<clipPath id="c5_39"><path d="M519.3,475.1V432.7H712.1v42.4Z"/></clipPath>
<clipPath id="c6_39"><path d="M107,837.5V803.9H880v33.6Z"/></clipPath>
<style type="text/css"><![CDATA[
.g0_39{
fill: #CFEDFC;
}
.g1_39{
fill: none;
stroke: #241F1F;
stroke-width: 0.611;
stroke-miterlimit: 3;
}
.g2_39{
fill: #241F1F;
}
.g3_39{
fill: #FFD5AB;
}
.g4_39{
fill: none;
stroke: #F9951B;
stroke-width: 0.916;
stroke-linejoin: round;
}
.g5_39{
fill: none;
stroke: #00AEEF;
stroke-width: 0.916;
stroke-linejoin: round;
}
.g6_39{
fill: none;
stroke: #241F1F;
stroke-width: 0.916;
stroke-linejoin: round;
}
.g7_39{
fill: none;
stroke: #241F1F;
stroke-width: 0.381;
stroke-miterlimit: 3;
}
.g8_39{
fill: none;
stroke: #F9951B;
stroke-width: 0.763;
stroke-miterlimit: 3;
stroke-dasharray: 10,4;
}
.g9_39{
fill: none;
stroke: #F9951B;
stroke-width: 0.916;
stroke-miterlimit: 3;
}
.ga_39{
fill: none;
stroke: #969698;
stroke-width: 0.763;
stroke-miterlimit: 3;
stroke-dasharray: 10,4;
}
.gb_39{
fill: none;
stroke: #241F1F;
stroke-width: 0.534;
stroke-miterlimit: 3;
}
.gc_39{
fill: #FFF;
}
.gd_39{
fill: none;
stroke: #241F1F;
stroke-width: 0.763;
stroke-miterlimit: 10;
}
.ge_39{
fill: #D0007A;
}
.gf_39{
fill: none;
stroke: #00AEEF;
stroke-width: 0.915;
stroke-linejoin: round;
}
.gg_39{
fill: none;
stroke: #241F1F;
stroke-width: 0.609;
stroke-miterlimit: 3;
}
]]></style>
</defs>
<path d="M383.4,231.8c8.7,-9,19.3,-16.1,31.9,-16.1c12.5,0,23.1,7.3,31.7,16.1Z" class="g0_39"/>
<path d="M346.6,231.8H502.4" class="g1_39"/>
<path fill-rule="evenodd" d="M502.4,231.8l-1.6,-2.5l6.5,2.5l-6.5,2.4Z" class="g2_39"/>
<path d="M383.2,268.4V167.6" class="g1_39"/>
<path fill-rule="evenodd" d="M383.2,167.6l-2.4,1.6l2.4,-6.5l2.5,6.5Z" class="g2_39"/>
<g clip-path="url(#c0_39)">
<path d="M423,231.8h9.2V218.1H423v13.7Z" class="g3_39"/>
<path d="M423,231.8h9.2V218.1H423v13.7Z" class="g4_39"/>
</g>
<path d="M383.4,231.9c8.7,-9,19.3,-16.2,31.9,-16.2c12.5,0,23.1,7,31.7,15.8" class="g5_39"/>
<path d="M447,231.5c10.9,11,18.7,24.9,23.3,31.3m-109.9,0c4.5,-6.3,12.2,-20,22.9,-30.9" class="g6_39"/>
<path d="M419.7,202.4l-7.2,9.5" class="g7_39"/>
<path d="M410.5,214.5l1.3,-4.4l.7,1.8l1.9,.2Z" class="g2_39"/>
<image clip-path="url(#c1_39)" x="644" y="205" width="157" height="27" xlink:href="shade/1.png"/>
<image clip-path="url(#c2_39)" x="635" y="217" width="175" height="29" xlink:href="shade/2.png"/>
<image clip-path="url(#c3_39)" x="635" y="202" width="175" height="31" xlink:href="shade/3.png"/>
<path d="M809.4,217.5v13.8c.1,8.1,-38.8,14.7,-86.9,14.6c-48.1,-.1,-87.2,-6.5,-87.2,-14.7V217.3m9.1,0c.1,6.7,35,12.2,78.1,12.3c43,0,77.8,-5.4,77.7,-12.1c0,-6.7,-35,-12.2,-78,-12.3c-43,0,-77.8,5.4,-77.8,12.1Zm-9.1,0c-.1,-8.2,38.8,-14.7,86.9,-14.7c48.1,.1,87.1,6.8,87.2,14.9c.1,8.2,-38.8,14.7,-86.9,14.7c-48.1,-.1,-87.2,-6.8,-87.2,-14.9Z" class="g4_39"/>
<path d="M656.4,224.6c-7.6,1.8,-12,4.1,-12,6.4c.1,6.8,35,12.3,78.1,12.3c43,.1,77.8,-5.3,77.7,-12.1c0,-2.3,-4.1,-4.4,-11.2,-6.3M635.3,231c-.1,-8.1,38.8,-14.7,86.9,-14.6c48.1,0,87.1,6.7,87.2,14.9" class="g8_39"/>
<path d="M789,224.9C775.3,221.4,750.5,219,722.2,219c-27.8,-.1,-52.1,2.2,-65.9,5.6" class="g9_39"/>
<path d="M721,231.8h84.1m-81.1,0H641.6" class="ga_39"/>
<path d="M598.3,266.1h39.1m3.5,-11.4v22.9" class="gb_39"/>
<path d="M594.6,266.1l4.9,-1.8l-1.2,1.8l1.2,1.9Z" class="g2_39"/>
<path d="M641.1,266.1l-4.8,1.9l1.1,-1.9l-1.1,-1.8Z" class="g2_39"/>
<path d="M645.1,266.1H719m3.5,-11.4v22.9" class="gb_39"/>
<path d="M641.4,266.1l4.8,-1.8l-1.1,1.8l1.1,1.9Z" class="g2_39"/>
<path d="M722.7,266.1l-4.8,1.9l1.1,-1.9l-1.1,-1.8Z" class="g2_39"/>
<path d="M806.8,231.8h62.4" class="g1_39"/>
<path fill-rule="evenodd" d="M869.2,231.8l-1.6,-2.5l6.5,2.5l-6.5,2.4Z" class="g2_39"/>
<path d="M594.2,277.6v-110" class="g1_39"/>
<path fill-rule="evenodd" d="M594.2,167.6l-2.4,1.6l2.4,-6.5l2.5,6.5Z" class="g2_39"/>
<path d="M611,274.4h13.7V256H611v18.4Z" class="gc_39"/>
<path d="M658.4,228.7v6.1" class="g1_39"/>
<path clip-path="url(#c4_39)" d="M722.6,158.4v76.4" class="g1_39"/>
<path d="M786.8,228.7v6.1m64.1,-6.1v6.1" class="g1_39"/>
<path d="M663.7,274.4h36.7V256H663.7v18.4Z" class="gc_39"/>
<path d="M557.6,231.8h79.5" class="g1_39"/>
<path d="M786.8,231.8c8.7,-9,19.4,-16.1,32,-16.1c12.5,0,23.5,7.3,32.1,16.1m-256.6,0c8.7,-9,19.4,-16.1,32,-16.1c12.5,0,23.5,7.3,32.1,16.1" class="g6_39"/>
<path d="M715.3,176.3c-6.5,-.5,-11,-2.1,-11.1,-4c0,-2.5,8.1,-4.7,18.3,-4.9c10.1,-.2,18.3,1.6,18.4,4.2c0,1.7,-3.6,3.2,-9.1,4.1" class="g7_39"/>
<path d="M728.6,176.1l4.5,1.3l-1.2,-1.6l.9,-1.7Z" class="g2_39"/>
<path d="M574.5,454.6H592" class="gd_39"/>
<path clip-path="url(#c5_39)" d="M697.7,454.6h14.8" class="gd_39"/>
<path d="M343.8,511.5c0,0,-1.6,0,-1.6,1.5v9.2c0,0,0,1.5,1.6,1.5h9.1c0,0,1.6,0,1.6,-1.5V513c0,0,0,-1.5,-1.6,-1.5Z" class="ge_39"/>
<image clip-path="url(#c6_39)" preserveAspectRatio="none" x="107" y="804" width="773" height="34" xlink:href="img/1.png"/>
<path d="M176,1020.1c14,-13.9,36.5,-32.9,75.2,-32.9c41.5,0,101.8,32.9,144.4,32.9Z" class="g0_39"/>
<path fill-rule="evenodd" d="M424.8,1020.1l-1.6,-2.4l6.5,2.4l-6.5,2.5Z" class="g2_39"/>
<path fill-rule="evenodd" d="M176,947l-2.4,1.6l2.4,-6.5l2.5,6.5Z" class="g2_39"/>
<path d="M176,1020.1c14,-13.9,36.5,-32.9,75.2,-32.9c41.5,0,101.8,32.9,144.4,32.9" class="gf_39"/>
<path d="M157.8,1020.1h267M176,1038.4V947m219.6,76.2v-6.1" class="gg_39"/>
<path d="M606.9,1019.9c52.1,0,79.3,-87.9,110.3,-87.9c22.2,0,35.3,56.8,46.2,87.9Z" class="g0_39"/>
<path fill-rule="evenodd" d="M793,1019.9l-1.6,-2.4l6.5,2.4l-6.5,2.5Z" class="g2_39"/>
<path fill-rule="evenodd" d="M606.9,926.4l-2.4,1.6l2.4,-6.5l2.5,6.5Z" class="g2_39"/>
<path d="M606.9,1019.9c52.1,0,79.3,-87.9,110.3,-87.9c22.2,0,35.3,56.8,46.2,87.9" class="g5_39"/>
<path d="M588.6,1019.9H793m-186.1,18.4V926.4M763.4,1023v-6.1" class="g1_39"/>
</svg>