<?xml version="1.0" encoding="UTF-8" standalone="no"?>
<!DOCTYPE svg PUBLIC "-//W3C//DTD SVG 1.1//EN"
"http://www.w3.org/Graphics/SVG/1.1/DTD/svg11.dtd">
<svg viewBox="0 0 935 1210" version="1.1" xmlns="http://www.w3.org/2000/svg" xmlns:xlink="http://www.w3.org/1999/xlink">
<defs>
<style type="text/css"><![CDATA[
.g0_452{
fill: #D9D9D9;
}
.g1_452{
}
]]></style>
</defs>
<path d="M93.4,198H855.9v39.6H93.4V198Z" class="g0_452"/>
<path d="M93.4,237.6H855.9v39.6H93.4V237.6Z" class="g0_452"/>
<path d="M93.4,277.2H855.9v39.6H93.4V277.2Z" class="g0_452"/>
<path d="M93.4,277.2H857v1.1H93.4v-1.1Z" class="g1_452"/>
<path d="M93.4,316.8H857v1.1H93.4v-1.1Z" class="g1_452"/>
<path d="M93.4,277.2h1.1v40.7H93.4V277.2Z" class="g1_452"/>
<path d="M855.9,277.2H857v40.7h-1.1V277.2Z" class="g1_452"/>
<path d="M93.4,237.6H857v1.1H93.4v-1.1Z" class="g1_452"/>
<path d="M93.4,277.2H857v1.1H93.4v-1.1Z" class="g1_452"/>
<path d="M93.4,237.6h1.1v40.7H93.4V237.6Z" class="g1_452"/>
<path d="M855.9,237.6H857v40.7h-1.1V237.6Z" class="g1_452"/>
<path d="M93.4,198H857v1.1H93.4V198Z" class="g1_452"/>
<path d="M93.4,237.6H857v1.1H93.4v-1.1Z" class="g1_452"/>
<path d="M93.4,198h1.1v40.7H93.4V198Z" class="g1_452"/>
<path d="M855.9,198H857v40.7h-1.1V198Z" class="g1_452"/>
</svg>