<?xml version="1.0" encoding="UTF-8" standalone="no"?>
<!DOCTYPE svg PUBLIC "-//W3C//DTD SVG 1.1//EN"
"http://www.w3.org/Graphics/SVG/1.1/DTD/svg11.dtd">
<svg viewBox="0 0 931 1096" version="1.1" xmlns="http://www.w3.org/2000/svg" xmlns:xlink="http://www.w3.org/1999/xlink">
<defs>
<clipPath id="c0_172"><path d="M53.5,800.3V651.8H272.3V800.3Z"/></clipPath>
<style type="text/css"><![CDATA[
.g0_172{
fill: #FFF;
}
.g1_172{
fill: none;
stroke: #00AEEF;
stroke-width: 0.763;
}
.g2_172{
fill: none;
stroke: #00AEEF;
stroke-width: 1.145;
}
.g3_172{
fill: none;
stroke: #00AEEF;
stroke-width: 0.916;
stroke-miterlimit: 3;
}
.g4_172{
fill: none;
stroke: #EE008C;
stroke-width: 0.916;
stroke-miterlimit: 3;
}
.g5_172{
fill: none;
stroke: #241F1F;
stroke-width: 0.611;
stroke-miterlimit: 3;
}
.g6_172{
fill: #241F1F;
}
.g7_172{
fill: none;
stroke: #969698;
stroke-width: 0.763;
stroke-miterlimit: 3;
}
.g8_172{
fill: none;
stroke: #241F1F;
stroke-width: 0.534;
stroke-miterlimit: 3;
}
.g9_172{
fill: none;
stroke: #EE008C;
stroke-width: 0.534;
stroke-miterlimit: 3;
}
.ga_172{
fill: none;
stroke: #210000;
stroke-width: 0.611;
stroke-miterlimit: 3;
}
.gb_172{
fill: none;
stroke: #241F1F;
stroke-width: 0.763;
stroke-miterlimit: 3;
}
.gc_172{
fill: #EE008C;
}
]]></style>
</defs>
<path d="M290.7,520.6c0,0,-3.1,0,-3.1,3v74.7c0,0,0,3.1,3.1,3.1H820.1c0,0,3,0,3,-3.1V523.6c0,0,0,-3,-3,-3Z" class="g0_172"/>
<path d="M290.7,520.6c0,0,-3.1,0,-3.1,3v74.7c0,0,0,3.1,3.1,3.1H820.1c0,0,3,0,3,-3.1V523.6c0,0,0,-3,-3,-3H290.7Z" class="g1_172"/>
<path d="M307.7,849.1c0,0,-1.6,0,-1.6,1.5v14.2c0,0,0,1.5,1.6,1.5h14.1c0,0,1.5,0,1.5,-1.5V850.6c0,0,0,-1.5,-1.5,-1.5H307.7Zm0,171.1c0,0,-1.6,0,-1.6,1.5v14.2c0,0,0,1.5,1.6,1.5h14.1c0,0,1.5,0,1.5,-1.5v-14.2c0,0,0,-1.5,-1.5,-1.5H307.7Z" class="g2_172"/>
<path d="M62.6,733.2c54,33.4,95.6,-38.8,105.1,-71.4" class="g3_172"/>
<path d="M84.6,757.8L201,673.7" class="g4_172"/>
<path d="M73.3,792.4V661" class="g5_172"/>
<path fill-rule="evenodd" d="M73.3,661l-2.4,1.6l2.4,-6.5l2.5,6.5Z" class="g6_172"/>
<path d="M53.5,771H267.4" class="g5_172"/>
<path clip-path="url(#c0_172)" fill-rule="evenodd" d="M267.4,771l-1.7,-2.5l6.6,2.5l-6.6,2.4Z" class="g6_172"/>
<path d="M121.9,731.3V771m41.2,-94.7V771" class="g7_172"/>
<path d="M164.6,702.7c2.6,.1,3.1,2.4,3.2,5.3v22.4c.1,3,-.5,5.3,2.1,5.4c-2.6,.1,-2,2.4,-2.1,5.4v23.4c-.1,2.9,-.5,5.5,-3.2,5.6m-3.1,-93.5c-2.6,.1,-2.9,2.4,-3.1,5.3v41.6c-.1,2.9,.5,5.2,-2.1,5.3c2.6,.1,2,2.5,2.1,5.4v30.3c.2,2.9,.6,5.5,3.2,5.6" class="g8_172"/>
<path d="M89.2,304.8c13.2,9.9,21.9,25.8,21.9,43.5" class="g9_172"/>
<path d="M200.6,242.7l25.5,50" class="g4_172"/>
<path d="M162.1,203.4c43.9,33,72.9,86,72.9,144.9m-8.9,-55.6l8.9,55.6M162,203.7l38.6,39m34.3,-24.9L55,348.3M235,289.8L55,348.3m0,0H235V103.6L55,348.3Z" class="ga_172"/>
<path d="M208.2,237.8l26.8,52" class="g3_172"/>
<path d="M199.1,242.7c0,-.8,.7,-1.5,1.5,-1.5c.9,0,1.5,.7,1.5,1.5c0,.9,-.6,1.5,-1.5,1.5c-.8,0,-1.5,-.6,-1.5,-1.5Z" class="g6_172"/>
<path d="M199.1,242.7c0,-.8,.7,-1.5,1.5,-1.5c.9,0,1.5,.7,1.5,1.5c0,.9,-.6,1.5,-1.5,1.5c-.8,0,-1.5,-.6,-1.5,-1.5Z" class="gb_172"/>
<path d="M206.7,237.8c0,-.9,.7,-1.5,1.5,-1.5c.9,0,1.6,.6,1.6,1.5c0,.8,-.7,1.5,-1.6,1.5c-.8,0,-1.5,-.7,-1.5,-1.5Z" class="g6_172"/>
<path d="M206.7,237.8c0,-.9,.7,-1.5,1.5,-1.5c.9,0,1.6,.6,1.6,1.5c0,.8,-.7,1.5,-1.6,1.5c-.8,0,-1.5,-.7,-1.5,-1.5Z" class="gb_172"/>
<path d="M224.6,292.7c0,-.8,.7,-1.5,1.5,-1.5c.9,0,1.5,.7,1.5,1.5c0,.8,-.6,1.5,-1.5,1.5c-.8,0,-1.5,-.7,-1.5,-1.5Z" class="g6_172"/>
<path d="M224.6,292.7c0,-.8,.7,-1.5,1.5,-1.5c.9,0,1.5,.7,1.5,1.5c0,.8,-.6,1.5,-1.5,1.5c-.8,0,-1.5,-.7,-1.5,-1.5Z" class="gb_172"/>
<path d="M233.4,289.8c0,-.8,.7,-1.5,1.6,-1.5c.8,0,1.5,.7,1.5,1.5c0,.8,-.7,1.5,-1.5,1.5c-.9,0,-1.6,-.7,-1.6,-1.5Z" class="g6_172"/>
<path d="M233.4,289.8c0,-.8,.7,-1.5,1.6,-1.5c.8,0,1.5,.7,1.5,1.5c0,.8,-.7,1.5,-1.5,1.5c-.9,0,-1.6,-.7,-1.6,-1.5Z" class="gb_172"/>
<path d="M233.4,217.8c0,-.8,.7,-1.5,1.5,-1.5c.9,0,1.6,.7,1.6,1.5c0,.9,-.7,1.5,-1.6,1.5c-.8,0,-1.5,-.6,-1.5,-1.5Z" class="g6_172"/>
<path d="M233.4,217.8c0,-.8,.7,-1.5,1.5,-1.5c.9,0,1.6,.7,1.6,1.5c0,.9,-.7,1.5,-1.6,1.5c-.8,0,-1.5,-.6,-1.5,-1.5Z" class="gb_172"/>
<path d="M88.1,303.8l4.4,1.6l-1.8,.5l-.3,2Z" class="gc_172"/>
</svg>