<?xml version="1.0" encoding="UTF-8" standalone="no"?>
<!DOCTYPE svg PUBLIC "-//W3C//DTD SVG 1.1//EN"
"http://www.w3.org/Graphics/SVG/1.1/DTD/svg11.dtd">
<svg viewBox="0 0 907 1045" version="1.1" xmlns="http://www.w3.org/2000/svg" xmlns:xlink="http://www.w3.org/1999/xlink">
<defs>
<clipPath id="c0_581"><path d="M-2.6,1047.7V-2.6H910.2V1047.7Z"/></clipPath>
<style type="text/css"><![CDATA[
.g0_581{
fill: none;
stroke: #636363;
stroke-width: 1.527;
stroke-linecap: butt;
stroke-linejoin: miter;
stroke-miterlimit: 4;
}
.g1_581{
fill: none;
stroke: #FFFFFF;
stroke-width: 1.909;
stroke-linecap: butt;
stroke-linejoin: miter;
}
.g2_581{
fill: none;
stroke: #000000;
stroke-width: 0.381;
stroke-linecap: butt;
stroke-linejoin: miter;
}
]]></style>
</defs>
<path d="M553.2,288c-13.7,-2.8,-26.6,-9.4,-40.4,-12.3c-6.2,-1.3,-14.2,-2.5,-20.7,-2.3c3.2,-2.5,8.5,-1.1,11.4,-4c-2.8,-.4,-7.3,2.3,-9.9,3c-3.2,.9,-8,1,-10.9,2.8c.7,1.5,1.5,1.6,3.1,2.1c2.1,.3,4.2,.7,6.3,.9c.9,.6,1.1,1.5,2.1,2.1m68.7,29.5c-10.3,-5.4,-22.7,-6,-33.7,-9.7c-5.4,-1.8,-10.6,-4.6,-16.2,-5.6c-5.3,-.9,-10.5,-2,-16,-2.7c-9.1,-1.2,-18,-3.1,-27.3,-3.1c-5.4,.1,-10.6,-.6,-15.9,-.8c-.6,-3.4,4.9,-7,6.2,-10c-2.8,2.6,-13.9,9.8,-13.1,13c3.1,1.8,8.9,1.7,12.5,1.9M711.8,537.9c-1.2,-4,-10.8,-3.2,-11.4,-8.1c3.8,-2.8,9.2,-3.3,13.6,-5.1c4.1,-1.6,8.9,-3.1,12.9,-5.2c-6.3,3,-16.5,3.3,-20.7,9.3c3.3,1,8,.5,11.4,.8c3.3,.3,6.6,.7,10,1c10.5,.9,18.9,6.4,28.5,10.9c6.9,3.2,9.7,6.7,13.8,13c3.1,4.9,7.9,7.9,11.8,12c7.9,8.5,10.7,23.5,11,34.8c.4,14.2,-4.4,27.8,-4.1,42c.1,7.2,-1.2,13.4,-2.5,20.4c-1.1,6.4,-1.9,10.2,-5.3,15.7c-5.4,8.5,-9.8,17.5,-17.6,24.1c-6.3,5.3,-17.9,10.8,-26.4,10m-31.5,-5.4c8.1,-2,14.3,-6.3,18.5,-13.6c1.3,-2.9,2.8,-5.7,4.6,-8.4c2,-2.4,4,-4.9,5.8,-7.5c2.3,-4.3,2.6,-9.8,2.7,-14.5c.1,-6.5,-1.1,-14.8,-7.1,-18.5c-3.8,-2.4,-8.5,-3.4,-12.9,-3.8c-3,-.3,-6.2,.4,-9.1,-.3c2,-1.1,3.8,-2.3,5.7,-3.5c2.4,-1.4,5.2,-1.4,7.5,-2.9c-2,.5,-3.6,1.4,-5.5,2.3c-4.1,1.9,-11.1,3.1,-14.2,6.6c3.4,2.4,7.4,5.1,9.7,8.7M402.6,804c-1.2,-.9,-2.5,-1.5,-3.9,-1.8c-2.3,-1.2,-3.9,-2.3,-6,-4.1c-4.3,-3.5,-8.7,-5.9,-13.8,-8.1c-3.6,-1.5,-7.9,-3.2,-10.8,-6c-.4,2.7,6.2,7.9,1.8,9.6c-1.4,-1.6,-1.1,-4.3,-1.7,-6.2c-1,-3.1,-2.2,-6.1,-3.6,-9c1.7,.7,14,7.8,13.9,2.1m163,-588c-14.1,-3.2,-25.1,4.1,-32.5,16.1c-2,3.3,-2.4,6.7,-3.6,10.1c-1.1,2.9,-2.7,5.7,-3,8.9c-1,-1.8,-1.9,-4.3,-2.1,-6.3c-.3,2.8,1,4.8,1.2,7.4c2.7,.3,11.8,-6.3,12.2,-5.8m-53.1,160c-13.2,-13.2,-33,-14.7,-50.9,-13.5c1.7,-3.1,10,-6.3,13.4,-6c-3.6,.3,-14.7,5.3,-15.5,9.2c1.8,1.4,3.8,1.7,5.9,2.6c2.4,1.1,5,3.4,7.8,3.5m26.1,86.8c-5.4,-4.6,-15.7,-4.2,-22.5,-4.9c-10.2,-.9,-21.3,-2.2,-31.5,-.8c-8.8,1.2,-18,3.7,-26.6,5.7c-6,1.5,-10.6,4.3,-16,6.9c-1,-2.6,1.4,-4.6,2.7,-6.5c-4,2.7,-6.9,7.7,-8.7,12c4.5,1,10.1,.2,14.7,.2m83.7,104.7C425.5,572.7,404.1,571.3,384.1,571.6c-7.6,.1,-17.4,2.3,-23.8,6.5c2.2,-1.2,2.9,-3.3,4.8,-4.8c1.2,-1,3,-1.5,4.1,-2.3c-3.9,2.6,-7,5,-9.7,8.4c5.1,1.1,10.8,-.8,16,-.8m47.8,120.7c-4.7,-5.7,-3,-14.4,-9.5,-19.5c-5.8,-4.6,-12.7,-6.6,-19.9,-7c-8.1,-.4,-15.3,-2.4,-22.3,2.9c2.7,-2.9,5.5,-6.7,7.2,-10.4c-3.2,2.6,-5.2,7.8,-6.4,11.5c2.5,-.1,4.6,1.4,7.1,1.4c.1,.5,.3,1.1,.4,1.7c1.5,-.1,1.3,.8,1.9,1.3M403,868.4c1,-8.2,-7.2,-14.5,-13.6,-17.2c-2.9,-1.2,-5.3,-2.5,-8.7,-3c-3,-.4,-6.3,.4,-9.4,-.1c.1,-2.7,5.3,-4.9,6.4,-7.9c-3,1.1,-5.9,4.8,-6.6,7.9c-.6,.1,-1.1,.3,-1.7,.4c.7,1.4,2.1,2.5,2.9,3.9c1.3,2.3,1.4,4.2,3.2,6" class="g0_581"/>
<g clip-path="url(#c0_581)">
<path d="M-4.5,13.7H-27.4m939.5,0H935M-4.5,1031.2H-27.4m939.5,0H935M13.7,-4.5V-27.4m0,1077v22.9m880,-1077V-27.4m0,1077v22.9" class="g1_581"/>
<path d="M-4.5,13.7H-27.4m939.5,0H935M-4.5,1031.2H-27.4m939.5,0H935M13.7,-4.5V-27.4m0,1077v22.9m880,-1077V-27.4m0,1077v22.9" class="g2_581"/>
</g>
</svg>