<?xml version="1.0" encoding="UTF-8" standalone="no"?>
<!DOCTYPE svg PUBLIC "-//W3C//DTD SVG 1.1//EN"
"http://www.w3.org/Graphics/SVG/1.1/DTD/svg11.dtd">
<svg viewBox="0 0 811 1017" version="1.1" xmlns="http://www.w3.org/2000/svg" xmlns:xlink="http://www.w3.org/1999/xlink">
<defs>
<style type="text/css"><![CDATA[
.g0_264{
fill: #70A6CC;
}
.g1_264{
}
]]></style>
</defs>
<path d="M142.4,101.4H710.7v-22H142.4Z" class="g0_264"/>
<path d="M533,166.6v3.1l-.2,-.1l-6.3,-2.9l-.3,-.1l.3,-.2l6.3,-3l.2,-.1v.3l-.1,.2l-6.2,2.9l-.2,-.3h.2l6.2,2.8l-.1,.4l-.1,-.2v-2.8Z" class="g1_264"/>
<path d="M532.7,166.6h.3v-3h-.3Z" class="g1_264"/>
<path d="M552.3,192.9h.4V166.4h-.4Z" class="g1_264"/>
<path d="M533,166.7h19.5v-.3H533Z" class="g1_264"/>
<path d="M460,303.6v3.1l-.3,-.1l-6.3,-2.8l-.4,-.2l.4,-.2l6.3,-2.9l.3,-.1v.3l-.1,.2l-6.3,2.9l-.2,-.4h.2l6.3,2.9l-.2,.3l-.1,-.2v-2.8Z" class="g1_264"/>
<path d="M459.6,303.6h.4v-2.9h-.4Z" class="g1_264"/>
<path d="M460,303.8h18.7v-.4H460Z" class="g1_264"/>
<path d="M478.3,303.6h.4v-70h-.4Z" class="g1_264"/>
</svg>