<?xml version="1.0" encoding="UTF-8" standalone="no"?>
<!DOCTYPE svg PUBLIC "-//W3C//DTD SVG 1.1//EN"
"http://www.w3.org/Graphics/SVG/1.1/DTD/svg11.dtd">
<svg viewBox="0 0 907 1045" version="1.1" xmlns="http://www.w3.org/2000/svg" xmlns:xlink="http://www.w3.org/1999/xlink">
<defs>
<clipPath id="c0_499"><path d="M487.8,276.6c.2,0,.3,-.1,.4,-.2c.3,-.2,.3,-.5,.1,-.8c-.2,-.1,-.3,-.2,-.5,-.2c-.1,0,-.3,.1,-.4,.2c-.2,.2,-.2,.5,0,.8c.1,.1,.3,.2,.4,.2Zm-126.4,.8v-91H509.5v91Z"/></clipPath>
<clipPath id="c1_499"><path d="M487.8,276.6c-.1,0,-.3,-.1,-.4,-.2c-.2,-.3,-.2,-.6,0,-.8c.1,-.1,.3,-.2,.4,-.2c.2,0,.3,.1,.5,.2c.2,.3,.2,.6,-.1,.8c-.1,.1,-.2,.2,-.4,.2Z"/></clipPath>
<clipPath id="c2_499"><path d="M251.5,401.1V327.7H387.9v73.4Z"/></clipPath>
<clipPath id="c3_499"><path d="M544.3,341.1c.2,0,.3,0,.4,-.1c.3,-.2,.3,-.6,.1,-.8c-.1,-.2,-.3,-.2,-.5,-.2c-.1,0,-.2,0,-.4,.1c-.2,.2,-.2,.6,0,.8c.1,.2,.3,.2,.4,.2Zm-2.2,-2.5c.1,0,.2,-.1,.4,-.2c.2,-.2,.2,-.6,0,-.8c-.1,-.1,-.3,-.2,-.4,-.2c-.2,0,-.3,0,-.4,.1c-.3,.2,-.3,.6,-.1,.9c.1,.1,.3,.2,.5,.2ZM539.8,336c.2,0,.3,-.1,.4,-.2c.2,-.2,.3,-.5,0,-.8c-.1,-.1,-.2,-.2,-.4,-.2c-.1,0,-.3,.1,-.4,.2c-.2,.2,-.2,.5,0,.8c.1,.1,.3,.2,.4,.2Zm-2.3,-2.6c.2,0,.3,-.1,.4,-.2c.3,-.2,.3,-.5,.1,-.8c-.1,-.1,-.3,-.2,-.5,-.2c-.1,0,-.2,.1,-.3,.2c-.3,.2,-.3,.5,-.1,.8c.1,.1,.3,.2,.4,.2Zm-2.2,-2.6c.1,0,.3,0,.4,-.1c.2,-.2,.2,-.6,0,-.9c-.1,-.1,-.3,-.2,-.4,-.2c-.1,0,-.3,.1,-.4,.2c-.2,.2,-.3,.6,0,.8c.1,.1,.2,.2,.4,.2Zm-66.1,70.1v-73h63.3c0,.1,.1,.1,.1,.1c.1,.2,.3,.2,.4,.2c.2,0,.3,0,.4,-.1q.1,-.1,.1,-.2h72.1v73Z"/></clipPath>
<clipPath id="c4_499"><path d="M542.1,338.6c-.2,0,-.4,-.1,-.5,-.2c-.2,-.3,-.2,-.7,.1,-.9c.1,-.1,.2,-.1,.4,-.1c.1,0,.3,.1,.4,.2c.2,.2,.2,.6,0,.8c-.2,.1,-.3,.2,-.4,.2ZM539.8,336c-.1,0,-.3,-.1,-.4,-.2c-.2,-.3,-.2,-.6,0,-.8c.1,-.1,.3,-.2,.4,-.2c.2,0,.3,.1,.4,.2c.3,.3,.2,.6,0,.8c-.1,.1,-.2,.2,-.4,.2Zm-2.3,-2.6c-.1,0,-.3,-.1,-.4,-.2c-.2,-.3,-.2,-.6,.1,-.8c.1,-.1,.2,-.2,.3,-.2c.2,0,.4,.1,.5,.2c.2,.3,.2,.6,-.1,.8c-.1,.1,-.2,.2,-.4,.2Zm-2.2,-2.6c-.2,0,-.3,-.1,-.4,-.2c-.3,-.2,-.2,-.6,0,-.8c.1,-.1,.3,-.2,.4,-.2c.1,0,.3,.1,.4,.2c.2,.3,.2,.7,0,.9c-.1,.1,-.3,.1,-.4,.1ZM533,328.2c-.1,0,-.3,0,-.4,-.2c0,0,-.1,0,-.1,-.1h1q0,.1,-.1,.2c-.1,.1,-.2,.1,-.4,.1Z"/></clipPath>
<clipPath id="c5_499"><path d="M544.3,341.1c-.1,0,-.3,0,-.4,-.2c-.2,-.2,-.2,-.6,0,-.8c.2,-.1,.3,-.1,.4,-.1c.2,0,.4,0,.5,.2c.2,.2,.2,.6,-.1,.8c-.1,.1,-.2,.1,-.4,.1Z"/></clipPath>
<clipPath id="c6_499"><path d="M-2.6,1047.7V-2.6H910.2V1047.7Z"/></clipPath>
<style type="text/css"><![CDATA[
.g0_499{
}
.g1_499{
fill: #FFFFFF;
}
.g2_499{
fill: none;
stroke: #000000;
stroke-width: 0.492;
stroke-linecap: butt;
stroke-linejoin: miter;
stroke-miterlimit: 4;
}
.g3_499{
fill: none;
stroke: #000000;
stroke-width: 0.902;
stroke-linecap: butt;
stroke-linejoin: miter;
stroke-miterlimit: 4;
}
.g4_499{
fill: none;
stroke: #000000;
stroke-width: 0.656;
stroke-linecap: butt;
stroke-linejoin: miter;
stroke-miterlimit: 4;
}
.g5_499{
fill: none;
stroke: #000000;
stroke-width: 0.926;
stroke-linecap: butt;
stroke-linejoin: miter;
stroke-miterlimit: 4;
}
.g6_499{
fill: none;
stroke: #000000;
stroke-width: 1.527;
stroke-linecap: butt;
stroke-linejoin: miter;
stroke-miterlimit: 4;
}
.g7_499{
fill: none;
stroke: #3D3D3D;
stroke-width: 1.527;
stroke-linecap: round;
stroke-linejoin: round;
stroke-miterlimit: 4;
stroke-dasharray: 0,5;
}
.g8_499{
fill: none;
stroke: #3D3D3D;
stroke-width: 1.527;
stroke-linecap: round;
stroke-linejoin: round;
stroke-miterlimit: 4;
}
.g9_499{
fill: none;
stroke: #636363;
stroke-width: 1.527;
stroke-linecap: butt;
stroke-linejoin: miter;
stroke-miterlimit: 4;
}
.ga_499{
fill: none;
stroke: #FFFFFF;
stroke-width: 1.909;
stroke-linecap: butt;
stroke-linejoin: miter;
}
.gb_499{
fill: none;
stroke: #000000;
stroke-width: 0.381;
stroke-linecap: butt;
stroke-linejoin: miter;
}
]]></style>
</defs>
<path d="M542.5,337.6c-.2,-.3,-.6,-.3,-.8,-.1c-.3,.2,-.3,.6,-.1,.9c.2,.2,.6,.2,.9,0c.2,-.2,.2,-.6,0,-.8M540.2,335c-.2,-.2,-.5,-.3,-.8,0c-.2,.2,-.2,.5,0,.8c.2,.2,.6,.2,.8,0c.2,-.2,.3,-.5,0,-.8M538,332.4c-.2,-.2,-.6,-.2,-.8,0c-.3,.2,-.3,.5,-.1,.8c.2,.2,.6,.3,.8,0c.3,-.2,.3,-.5,.1,-.8m-2.3,-2.6c-.2,-.2,-.6,-.2,-.8,0c-.2,.2,-.3,.6,0,.8c.2,.3,.5,.3,.8,.1c.2,-.2,.2,-.6,0,-.9m-2.2,-2.5c-.2,-.3,-.6,-.3,-.9,-.1c-.2,.2,-.2,.6,0,.8c.2,.3,.6,.3,.8,.1c.3,-.2,.3,-.6,.1,-.8m-2.3,-2.6c-.2,-.3,-.6,-.3,-.8,-.1c-.3,.2,-.3,.6,-.1,.9c.2,.2,.6,.2,.9,0c.2,-.2,.2,-.6,0,-.8m-2.3,-2.6c-.2,-.3,-.5,-.3,-.8,-.1c-.2,.2,-.2,.6,0,.9c.2,.2,.6,.2,.8,0c.2,-.2,.3,-.6,0,-.8m-2.2,-2.6c-.2,-.2,-.6,-.2,-.8,0c-.3,.2,-.3,.5,-.1,.8c.2,.2,.6,.2,.8,0c.3,-.2,.3,-.5,.1,-.8m-2.3,-2.6c-.2,-.2,-.6,-.2,-.8,0c-.2,.2,-.3,.5,0,.8c.2,.2,.5,.3,.8,.1c.2,-.3,.2,-.6,0,-.9m-2.2,-2.5c-.2,-.3,-.6,-.3,-.9,-.1c-.2,.2,-.2,.6,0,.8c.2,.3,.6,.3,.8,.1c.3,-.2,.3,-.6,.1,-.8m-2.3,-2.6c-.2,-.3,-.6,-.3,-.8,-.1c-.3,.2,-.3,.6,-.1,.8c.2,.3,.6,.3,.9,.1c.2,-.2,.2,-.6,0,-.8m-2.3,-2.6c-.2,-.3,-.5,-.3,-.8,-.1c-.2,.2,-.2,.6,0,.9c.2,.2,.6,.2,.8,0c.2,-.2,.3,-.6,0,-.8m-2.2,-2.6c-.2,-.2,-.6,-.3,-.8,-.1c-.3,.3,-.3,.6,-.1,.9c.2,.2,.6,.2,.8,0c.3,-.2,.3,-.6,.1,-.8M513.1,304c-.2,-.2,-.6,-.2,-.8,0c-.2,.2,-.3,.5,0,.8c.2,.2,.5,.2,.8,0c.2,-.2,.2,-.5,0,-.8m-2.2,-2.6c-.2,-.2,-.6,-.2,-.9,0c-.2,.2,-.2,.6,0,.8c.2,.2,.6,.3,.8,.1c.3,-.3,.3,-.6,.1,-.9m-2.3,-2.5c-.2,-.3,-.6,-.3,-.8,-.1c-.3,.2,-.3,.6,-.1,.8c.2,.3,.6,.3,.9,.1c.2,-.2,.2,-.6,0,-.8m-2.3,-2.6c-.2,-.3,-.5,-.3,-.8,-.1c-.2,.2,-.2,.6,0,.8c.2,.3,.6,.3,.8,.1c.2,-.2,.3,-.6,0,-.8m-2.2,-2.6c-.2,-.3,-.6,-.3,-.8,-.1c-.3,.2,-.3,.6,-.1,.9c.2,.2,.6,.2,.8,0c.3,-.2,.3,-.6,.1,-.8m-2.3,-2.6c-.2,-.2,-.6,-.3,-.8,-.1c-.2,.3,-.3,.6,0,.9c.2,.2,.5,.2,.8,0c.2,-.2,.2,-.5,0,-.8m-2.2,-2.6c-.2,-.2,-.6,-.2,-.9,0c-.2,.2,-.2,.6,0,.8c.2,.2,.6,.3,.8,0c.3,-.2,.3,-.5,.1,-.8m-2.3,-2.6c-.2,-.2,-.6,-.2,-.8,0c-.3,.2,-.3,.6,-.1,.8c.2,.3,.6,.3,.9,.1c.2,-.2,.2,-.6,0,-.9M495,283.4c-.2,-.3,-.5,-.3,-.8,-.1c-.2,.2,-.2,.6,0,.8c.2,.3,.5,.3,.8,.1c.2,-.2,.3,-.6,0,-.8m-2.2,-2.6c-.2,-.3,-.6,-.3,-.8,-.1c-.3,.2,-.3,.6,-.1,.8c.2,.3,.6,.3,.8,.1c.3,-.2,.3,-.6,.1,-.8m-2.3,-2.6c-.2,-.2,-.6,-.3,-.8,-.1c-.2,.3,-.3,.6,-.1,.9c.3,.2,.6,.2,.9,0c.2,-.2,.2,-.6,0,-.8Z" class="g0_499"/>
<path d="M544.7,341c.3,-.2,.3,-.6,.1,-.8c-.2,-.3,-.6,-.3,-.9,-.1c-.2,.2,-.2,.6,0,.8c.2,.3,.6,.3,.8,.1M488.2,276.4c.3,-.2,.3,-.5,.1,-.8c-.2,-.2,-.6,-.3,-.9,0c-.2,.2,-.2,.5,0,.8c.2,.2,.6,.2,.8,0Z" class="g0_499"/>
<image clip-path="url(#c0_499)" preserveAspectRatio="none" x="361" y="186" width="149" height="92" xlink:href="img/1.jpg"/>
<image clip-path="url(#c1_499)" preserveAspectRatio="none" x="487" y="275" width="2" height="2" xlink:href="img/2.jpg"/>
<path d="M367.2,192.2V263H494.5V192.2H367.2Z" class="g1_499"/>
<path d="M367.2,192.2V263H494.5V192.2H367.2Z" class="g2_499"/>
<path d="M382.8,267.1l-11,.9l11.7,9.6l-.7,-10.5Z" class="g1_499"/>
<path d="M382.8,267.1l-11,.9l11.7,9.6l-.7,-10.5Z" class="g3_499"/>
<image clip-path="url(#c2_499)" preserveAspectRatio="none" x="251" y="327" width="137" height="74" xlink:href="img/3.jpg"/>
<path d="M257.3,333.5v52.6H373.6V333.5H257.3Z" class="g1_499"/>
<path d="M257.3,333.5v52.6H373.6V333.5H257.3Z" class="g2_499"/>
<path d="M257.3,350.1H373.2" class="g4_499"/>
<image clip-path="url(#c3_499)" preserveAspectRatio="none" x="469" y="328" width="137" height="73" xlink:href="img/4.jpg"/>
<image clip-path="url(#c4_499)" preserveAspectRatio="none" x="532" y="328" width="11" height="11" xlink:href="img/5.jpg"/>
<image clip-path="url(#c5_499)" preserveAspectRatio="none" x="543" y="340" width="2" height="1" xlink:href="img/6.jpg"/>
<path d="M475,333.7v52.4H591.3V333.7H475Z" class="g1_499"/>
<path d="M475,333.7v52.4H591.3V333.7H475Z" class="g2_499"/>
<path d="M475,350.2H590.9" class="g4_499"/>
<path d="M481.5,268.8l-1.7,10.9l12,-9.1l-10.3,-1.8Z" class="g1_499"/>
<path d="M481.5,268.8l-1.7,10.9l12,-9.1l-10.3,-1.8Z" class="g5_499"/>
<path d="M474.6,341.9H383.3" class="g6_499"/>
<path d="M375,341.9L385.7,338v7.8L375,341.9Z" class="g0_499"/>
<path d="M323.3,329l51.5,-54.2" class="g7_499"/>
<path d="M320.2,332.3v0m56.2,-59.1v0" class="g8_499"/>
<path d="M635.1,396.4c2.4,-2.5,1.9,-6.9,1.4,-9.9c-1.1,-7,-5.3,-14.2,-10.8,-18.6c-3.5,-2.8,-8.1,-5.8,-12.4,-6.7c-2,-.4,-5,0,-6.7,-.9c2.6,-1.4,4.7,-4,6.7,-6c-1,.3,-3.2,2.5,-3.7,3c-1.4,1.1,-4,2.6,-5,4c-2.3,3.1,5.7,3.9,7.6,3.9M198.5,416.6c-1.3,-1.1,-1.8,-3.7,-2.2,-5.2c-1.3,-3.9,-1.2,-8.3,-1.1,-12.5c.3,-12.4,8.6,-20.5,18.3,-27.1c5.8,-4,12.4,-7.2,19.3,-9c1.8,-.4,3.9,-.9,5.7,-1.2c.8,-.1,1.7,.1,2.4,-.4c-2.5,-1,-5.4,-2,-8.1,-2.4c-1.7,-.2,-7.2,1,-8.4,-.4c.3,-1.8,4.1,-.9,5.3,-.9c2.8,-.2,5.9,-.4,8.2,1.7c1.4,1.3,1.1,3.5,.5,5.1c-.7,2.1,-2,3.5,-2.4,5.8c-.2,1.1,-.5,2,-.9,3m244.6,33.8c.8,4.7,-2.5,8.8,-5.1,12.6c-4.8,6.7,-12.3,9.9,-19.9,12.7c-11.2,4.1,-24.8,4.8,-36.1,.4c-5,-1.9,-9.8,-4.3,-14.5,-6.7c-3.6,-1.9,-6.1,-3.5,-8.3,-6.8c-1.8,-2.8,-3.2,-4.6,-3.6,-7.9c-.3,-1.6,-.7,-3.2,-1.1,-4.7c-1.2,1,-1,4.7,-1.1,6.2c-.4,3.8,-.1,7.8,-.1,11.6c0,-5.4,.1,-10.8,-.1,-16.1c4,3.6,8.6,3.4,13.7,3.3M535.8,163.1c-4.4,-3.3,-11.6,-5,-16.9,-3c-3.3,1.2,-6.4,3.6,-9.2,5.7c-1.7,1.4,-3.4,2.8,-4.8,4.6c-2.1,2.9,-2.3,6.6,-4.2,9.6c-.4,.7,-3,2.9,-2.8,3.7c0,-1.9,0,-3.7,0,-5.6c0,2.6,-.1,4.8,.7,7.2c2.5,-2.4,6.8,-3.2,10.2,-3.7" class="g9_499"/>
<path d="M367,220.3H494.1" class="g4_499"/>
<g clip-path="url(#c6_499)">
<path d="M-4.5,13.7H-27.4m939.5,0H935M-4.5,1031.2H-27.4m939.5,0H935M13.7,-4.5V-27.4m0,1077v22.9m880,-1077V-27.4m0,1077v22.9" class="ga_499"/>
<path d="M-4.5,13.7H-27.4m939.5,0H935M-4.5,1031.2H-27.4m939.5,0H935M13.7,-4.5V-27.4m0,1077v22.9m880,-1077V-27.4m0,1077v22.9" class="gb_499"/>
</g>
</svg>