<?xml version="1.0" encoding="UTF-8" standalone="no"?>
<!DOCTYPE svg PUBLIC "-//W3C//DTD SVG 1.1//EN"
"http://www.w3.org/Graphics/SVG/1.1/DTD/svg11.dtd">
<svg viewBox="0 0 931 1096" version="1.1" xmlns="http://www.w3.org/2000/svg" xmlns:xlink="http://www.w3.org/1999/xlink">
<defs>
<clipPath id="c0_360"><path d="M287.2,239.2V222.3H408.4v16.9Z"/></clipPath>
<clipPath id="c1_360"><path d="M581.1,358.4v-17H702.2v17Z"/></clipPath>
<clipPath id="c2_360"><path d="M473.8,430.1V395.6H637v34.5Z"/></clipPath>
<clipPath id="c3_360"><path d="M625.8,654.8v-17h59.1v17Z"/></clipPath>
<clipPath id="c4_360"><path d="M458.9,966.3V929.8H651.8v36.5Z"/></clipPath>
<style type="text/css"><![CDATA[
.g0_360{
fill: none;
stroke: #241F1F;
stroke-width: 0.763;
stroke-miterlimit: 10;
}
.g1_360{
fill: none;
stroke: #00AEEF;
stroke-width: 0.534;
stroke-miterlimit: 3;
}
.g2_360{
fill: none;
stroke: #EE008C;
stroke-width: 0.916;
stroke-miterlimit: 3;
}
.g3_360{
fill: none;
stroke: #241F1F;
stroke-width: 0.534;
stroke-miterlimit: 3;
}
.g4_360{
fill: none;
stroke: #241F1F;
stroke-width: 0.763;
stroke-miterlimit: 3;
stroke-dasharray: 8,4;
}
.g5_360{
fill: #EE008C;
}
]]></style>
</defs>
<path d="M517.2,148.9H601" class="g0_360"/>
<path clip-path="url(#c0_360)" d="M370.1,222.7h38.7" class="g0_360"/>
<path d="M458.2,298.6H543m55.6,0H655" class="g0_360"/>
<path clip-path="url(#c1_360)" d="M664,341.8h38.6" class="g0_360"/>
<path clip-path="url(#c2_360)" d="M538.7,411.6h98.6" class="g0_360"/>
<path clip-path="url(#c3_360)" d="M645.9,638.2h39.4" class="g0_360"/>
<path d="M669.6,725.5H797.1c2.8,0,5,2.7,5,6.1v97.8c0,3.4,-2.2,6.1,-5,6.1H669.6c-2.8,0,-5,-2.7,-5,-6.1V731.6c0,-3.4,2.2,-6.1,5,-6.1Zm-152.3,0H644.8c2.7,0,5,2.7,5,6.1v97.8c0,3.4,-2.3,6.1,-5,6.1H517.3c-2.8,0,-5,-2.7,-5,-6.1V731.6c0,-3.4,2.2,-6.1,5,-6.1Zm-152.4,0H492.4c2.8,0,5,2.7,5,6.1v97.8c0,3.4,-2.2,6.1,-5,6.1H364.9c-2.7,0,-5,-2.7,-5,-6.1V731.6c0,-3.4,2.3,-6.1,5,-6.1Zm-152.3,0H340.1c2.8,0,5,2.7,5,6.1v97.8c0,3.4,-2.2,6.1,-5,6.1H212.6c-2.8,0,-5,-2.7,-5,-6.1V731.6c0,-3.4,2.2,-6.1,5,-6.1Zm-152.3,0H187.8c2.7,0,5,2.7,5,6.1v97.8c0,3.4,-2.3,6.1,-5,6.1H60.3c-2.8,0,-5,-2.7,-5,-6.1V731.6c0,-3.4,2.2,-6.1,5,-6.1Z" class="g1_360"/>
<path d="M182,778.5l.8,.1h1.8l.9,.1h.9l.8,.1H189l.9,.1h.8l.9,.1h1.1M140.8,731.6l.4,6.7l.5,5.1l.4,4.1l.4,3.4l.9,5l.9,3.7l.9,2.8l.9,2.2l.8,1.7l.9,1.4l.9,1.2l.9,1l.8,.9l.9,.8l.9,.6l.9,.6l.8,.5l.9,.4l.9,.5l.9,.3l.8,.3l.9,.3l.9,.3l.9,.3l.9,.2l.8,.2l.9,.2l.9,.2l.9,.2l.8,.1l.9,.2l.9,.1l.8,.1l.9,.1l.9,.2l.9,.1l.9,.1h.8l.9,.1l.9,.1l.9,.1l.8,.1h.9l.9,.1l.9,.1h.8l.9,.1h.9l.9,.1M140.5,725.6l.3,6m-5.9,103.9l-.2,-3.9M116.4,794.1l.1,.1h1.1l.4,.1l.9,.1l.9,.2l.8,.2l.9,.3l.9,.4l.9,.4l.9,.5l.8,.6l.9,.7l.9,.9l.9,1.1l.8,1.3l.9,1.6l.9,1.9l.9,2.5l.8,3.4l.9,4.5l.5,2.9l.4,3.6l.4,4.5l.5,5.7M97.4,829.5l.5,-5.2l.4,-4.1l.4,-3.4l.9,-5.1l.9,-3.6l.9,-2.8l.8,-2.1l.9,-1.7l.9,-1.4l.9,-1.1l.9,-1l.8,-.8l.9,-.6l.9,-.6l.9,-.4l.8,-.4l.9,-.3l.9,-.3l.9,-.2h.4l.4,-.1l.5,-.1h1.4l.1,-.1h.8M97,835.5l.4,-6M91.5,725.6l-.2,3.3m-36,49.3l.5,-.1l.9,-.1l.9,-.1h.8l.9,-.1l.9,-.1l.9,-.1l.8,-.1l.9,-.1l.9,-.1l.9,-.2l.9,-.1l.8,-.1l.9,-.2l.9,-.1l.9,-.2l.8,-.2l.9,-.2l.9,-.2l.9,-.3l.8,-.3l.9,-.3l.9,-.3l.9,-.3l.8,-.4l.9,-.4l.9,-.5l.9,-.6l.8,-.6l.9,-.7l.9,-.9l.9,-.9l.8,-1.1l.9,-1.4l.9,-1.6l.9,-2l.9,-2.6l.8,-3.3l.5,-2.1l.4,-2.4l.4,-3l.5,-3.5l.4,-4.4l.5,-5.6l.4,-7.4" class="g2_360"/>
<path d="M162.1,781.8v-3.2m-60.8,3.2v-3.2m-30.6,3.2v-3.2m60.8,56.7V725.5M55.4,780.2H192.8" class="g3_360"/>
<path d="M329.1,778.7l.8,.1h.9l.9,.1l.8,.1h1.8l.8,.1h.9l.9,.1h.8l.9,.1h1.7l.9,.1h1.7l.9,.1h1.4M287.9,727.2l.4,6.4l.4,5l.5,4.2l.8,6.5l.9,4.7l.9,3.6l.8,2.9l.9,2.3l.9,1.8l.8,1.6l.9,1.4l.9,1.1l.8,1l.9,.8l.9,.8l.8,.7l.9,.6l.9,.5l.9,.5l.8,.4l.9,.4l.8,.3l.9,.4l.9,.3l.8,.2l.9,.3l.9,.2l.9,.2l.8,.2l.9,.2l.9,.2l.8,.2l.9,.1l.9,.1l.8,.2l.9,.1l.8,.1l.9,.1l.9,.1l.9,.1l.8,.1l.9,.1l.9,.1l.8,.1l.9,.1h.9l.8,.1l.9,.1h.9M287.8,725.5l.1,1.7M274.4,813l.9,1.7l.9,2.2l.8,2.9l.9,3.7l.9,5.1l.4,3.2l.4,3.7m-21.2,-1.2l.4,-3.6l.9,-5.7l.9,-4.1l.8,-3.1l.9,-2.4l.9,-1.8l.8,-1.5l.9,-1.1l.9,-.9l.4,-.3l.4,-.3l.5,-.2l.4,-.2l.2,-.1h.5l.1,-.1h1.4l.2,.1h.2l.4,.2l.5,.2l.8,.5l.9,.8l.9,1l.8,1.3m-16.1,22.5l.1,-1.2m-9.1,-97.2l.4,-5.5l.5,-6.1m-42.5,53.3h.8l.9,-.1l.9,-.1h.8l.9,-.1l.9,-.1l.9,-.1l.8,-.1h.9l.8,-.1l.9,-.1l.9,-.1l.8,-.1l.9,-.1l.9,-.2l.8,-.1l.9,-.1l.9,-.2l.9,-.1l.8,-.2l.9,-.2l.9,-.2l.8,-.2l.9,-.2l.8,-.3l.9,-.2l.9,-.3l.8,-.3l.9,-.4l.9,-.4l.8,-.4l.9,-.4l.9,-.6l.9,-.5l.8,-.7l.9,-.7l.9,-.8l.8,-1l.9,-1l.9,-1.3l.8,-1.5l.9,-1.8l.8,-2.1l.9,-2.7l.9,-3.3l.9,-4.3l.8,-5.8l.5,-3.7l.4,-4.4" class="g2_360"/>
<path d="M314.8,782.6v-3.3M254,782.6v-3.3m-30.6,3.3v-3.3m60.8,56.2V725.3M207.6,781H345.1" class="g3_360"/>
<path d="M475.2,778.6h.9l.9,.1l.8,.1h.9l.9,.1h.8l.9,.1h.9l.8,.1h.9l.9,.1h.8l.9,.1h1.7l.9,.1h1.7l.9,.1h1.7l.9,.1H496l.9,.1h.6M432.9,731.9l.8,6.6l.9,5.3l.8,4.4l.9,3.7l.9,3l.8,2.6l.9,2.3l.9,1.9l.8,1.7l.9,1.4l.9,1.3l.8,1.1l.9,1.1l.9,.9l.8,.8l.9,.7l.9,.6l.8,.6l.9,.6l.9,.5l.8,.4l.9,.4l.9,.4l.8,.4l.9,.3l.9,.3l.8,.3l.9,.2l.9,.2l.8,.3l.9,.2l.8,.2l.9,.1l.9,.2l.8,.2l.9,.1l.9,.2l.8,.1l.9,.1l.9,.1l.8,.2h.9l.9,.2h.8l.9,.1l.8,.1l.9,.1l.9,.1l.8,.1M432.1,725.5l.8,6.4m-22.6,-6.6l.1,1.3m-7.8,35.7l.8,-1.8l.9,-2.2l.9,-2.4l.8,-3l.9,-3.4l.9,-4.1l.8,-5l.9,-6.1l.9,-7.7M360.2,779h1.7l.9,-.1l.8,-.1h.9l.9,-.1l.8,-.1h.9l.9,-.1l.8,-.1l.9,-.1h.9l.8,-.1l.9,-.1l.9,-.1l.8,-.1l.9,-.1l.9,-.1l.8,-.2l.9,-.1l.9,-.1l.8,-.2l.9,-.1l.9,-.2l.8,-.2l.9,-.2l.8,-.2l.9,-.2l.9,-.2l.8,-.3l.9,-.2l.9,-.3l.8,-.3l.9,-.4l.9,-.3l.8,-.4l.9,-.5l.9,-.5l.8,-.5l.9,-.5l.8,-.7l.9,-.7l.9,-.8l.8,-.8l.9,-1l.9,-1.1l.8,-1.2l.9,-1.4l.9,-1.6" class="g2_360"/>
<path d="M467.1,782.4v-3.2m-60.9,3.2v-3.2m-30.6,3.2v-3.2m60.8,56.3v-110M360,780.8H497.5" class="g3_360"/>
<path d="M615.8,777.5l.8,.1l.9,.1l.9,.1l.8,.1l.9,.1l.9,.1l.8,.1l.9,.1l.8,.1h.9l.9,.1l.8,.1h.9l.9,.1h.8l.9,.1h.8l.9,.1l.9,.1h1.7l.9,.1h.8l.9,.1h1.7l.9,.1h1.7l.9,.1h1.7l.8,.1h2.6l.9,.1h2M574.1,752.9h.2l.5,.2l.4,.2l.9,.5l.8,.6l.9,.7l.9,.9l.8,.9l.9,1l.8,1l.9,1l.9,1l.8,1l.9,1l.9,1l.8,.9l.9,.8l.8,.9l.9,.8l.9,.7l.8,.7l.9,.6l.9,.7l.8,.5l.9,.6l.9,.5l.8,.4l.9,.5l.9,.4l.8,.4l.9,.3l.8,.4l.9,.3l.9,.3l.8,.3l.9,.2l.9,.3l.8,.2l.9,.2l.8,.2l.9,.2l.9,.2l.8,.2l.9,.1l.8,.2l.9,.1l.9,.1l.8,.2l.9,.1l.9,.1m-61.3,-7.9l.9,-.7l.8,-.7l.9,-.7l.8,-.8l.9,-.8l.9,-.8l.8,-.9l.9,-1l.9,-.9l.8,-1l.9,-1l.9,-1.1l.8,-1l.9,-1l.8,-.9l.9,-.9l.9,-.8l.8,-.7l.9,-.5l.4,-.2l.5,-.2h.2l.2,-.1h.2l.1,-.1h1.2l.2,.1h.2m-61.9,26.2l.9,-.1h.8l.9,-.1h.9l.8,-.1h.9l.9,-.1l.8,-.1h.9l.8,-.1l.9,-.1h.9l.8,-.1l.9,-.1l.9,-.1h.8l.9,-.1l.8,-.1l.9,-.1l.9,-.1l.8,-.1l.9,-.2l.9,-.1l.8,-.1l.9,-.1l.8,-.2l.9,-.1l.9,-.2l.8,-.2l.9,-.1l.9,-.2l.8,-.2l.9,-.2l.9,-.3l.8,-.2l.9,-.3l.8,-.2l.9,-.3l.9,-.3l.8,-.4l.9,-.3l.9,-.4l.8,-.4l.9,-.4l.8,-.5l.9,-.5l.9,-.5l.8,-.5l.9,-.6" class="g2_360"/>
<path d="M619.1,782.4v-3.2m-60.8,3.2v-3.2m-30.7,3.2v-3.2m60.8,56.3V725.6m-76.1,55.2H649.7" class="g3_360"/>
<path d="M767.8,777.8l.8,.1h.9l.9,.1l.8,.1l.9,.1l.9,.1h.8l.9,.1l.9,.1h.8l.9,.1h.9l.8,.1l.9,.1h.9l.8,.1h.9l.8,.1h1.8l.8,.1h.9l.9,.1h1.7l.9,.1H792l.9,.1h1.7l.9,.1h2.6l.8,.1h2.6l.7,.1M726.7,766.8h.8l.5,.1l.8,.1l.9,.2l.9,.2l.8,.2l.9,.2l.9,.3l.8,.4l.9,.3l.8,.3l.9,.4l.9,.3l.8,.4l.9,.4l.9,.3l.8,.4l.9,.3l.9,.4l.8,.3l.9,.3l.9,.3l.8,.3l.9,.3l.9,.3l.8,.3l.9,.3l.9,.2l.8,.2l.9,.3l.9,.2l.8,.2l.9,.2l.9,.2l.8,.1l.9,.2l.9,.2l.8,.1l.9,.2l.8,.1l.9,.2l.9,.1l.8,.1l.9,.1l.9,.1l.8,.2l.9,.1l.9,.1m-60.6,-5.1l.9,-.3l.8,-.3l.9,-.4l.9,-.3l.8,-.4l.9,-.3l.9,-.4l.8,-.3l.9,-.4l.9,-.3l.8,-.4l.9,-.3l.9,-.4l.8,-.2l.9,-.3l.9,-.3l.8,-.2l.9,-.2h.4l.4,-.1h.5l.4,-.1h.8l.1,-.1h1.1l.2,.1m-62,12.4l1,-.1h.8l.9,-.1h.9l.8,-.1h.9l.9,-.1h.8l.9,-.1h.9l.8,-.1h.9l.9,-.1l.8,-.1h.9l.9,-.1l.8,-.1l.9,-.1h.9l.8,-.1l.9,-.1l.8,-.1l.9,-.1l.9,-.1l.8,-.1l.9,-.1l.9,-.1l.8,-.2l.9,-.1l.9,-.1l.8,-.2l.9,-.1l.9,-.2l.8,-.1l.9,-.2l.9,-.2l.8,-.2l.9,-.2l.8,-.2l.9,-.2l.9,-.2l.8,-.2l.9,-.3l.9,-.2l.8,-.3l.9,-.3l.9,-.3l.8,-.3l.9,-.3" class="g2_360"/>
<path d="M771.7,782.4v-3.2m-60.8,3.2v-3.2m-30.6,3.2v-3.2m60.8,56.3V725.6m-76.5,55.2H802.1" class="g3_360"/>
<path d="M137.8,725.5v54.8M94.1,725.4v54.8M254.2,725.4v55.8m-116.4,-1V835M94.1,780.2V835M254.2,779.2V835m167.4,.4V780.9m0,-55.4v55.3" class="g4_360"/>
<path clip-path="url(#c4_360)" d="M514.2,947.8h138" class="g0_360"/>
<path d="M647.2,988h54.2" class="g0_360"/>
<path d="M56.5,657.3c0,0,-3,0,-3,3.1v9.2c0,0,0,3,3,3H77.9c0,0,3.1,0,3.1,-3v-9.2c0,0,0,-3.1,-3.1,-3.1Z" class="g5_360"/>
</svg>