<?xml version="1.0" encoding="UTF-8" standalone="no"?>
<!DOCTYPE svg PUBLIC "-//W3C//DTD SVG 1.1//EN"
"http://www.w3.org/Graphics/SVG/1.1/DTD/svg11.dtd">
<svg viewBox="0 0 909 1286" version="1.1" xmlns="http://www.w3.org/2000/svg" xmlns:xlink="http://www.w3.org/1999/xlink">
<defs>
<clipPath id="c0_168"><path d="M0,1286.2V-.1H910.6V1286.2Z"/></clipPath>
<style type="text/css"><![CDATA[
.g0_168{
fill: #FFFFFF;
}
.g1_168{
fill: none;
stroke: #0000FF;
stroke-width: 0.916;
stroke-linecap: butt;
stroke-linejoin: bevel;
stroke-miterlimit: 3;
}
.g2_168{
fill: none;
stroke: #ECE9D8;
stroke-width: 1.099;
stroke-linecap: butt;
stroke-linejoin: bevel;
stroke-miterlimit: 3;
}
.g3_168{
fill: none;
stroke: #76746C;
stroke-width: 1.099;
stroke-linecap: butt;
stroke-linejoin: bevel;
stroke-miterlimit: 3;
}
]]></style>
</defs>
<g clip-path="url(#c0_168)">
<path fill-rule="evenodd" d="M0,0H909.5V1286.2H0V0Z" class="g0_168"/>
<path d="M317.5,179.1H417.8" class="g1_168"/>
<path d="M56.5,203.1H853" class="g2_168"/>
<path d="M56.5,249.1H853" class="g3_168"/>
<path d="M57.1,202.5v47.2" class="g2_168"/>
<path d="M852.4,203.6v46.1M62.7,209.9H846.8" class="g3_168"/>
<path d="M62.7,242.3H846.8" class="g2_168"/>
<path d="M63.3,209.3v33.6" class="g3_168"/>
<path d="M846.2,210.4v32.5M56.5,1090.5H853" class="g2_168"/>
<path d="M56.5,1136.6H853" class="g3_168"/>
<path d="M57.1,1090v47.2" class="g2_168"/>
<path d="M852.4,1091.1v46.1M62.7,1097.3H846.8" class="g3_168"/>
<path d="M62.7,1129.8H846.8" class="g2_168"/>
<path d="M63.3,1096.8v33.6" class="g3_168"/>
<path d="M846.2,1097.9v32.5" class="g2_168"/>
</g>
</svg>