<?xml version="1.0" encoding="UTF-8" standalone="no"?>
<!DOCTYPE svg PUBLIC "-//W3C//DTD SVG 1.1//EN"
"http://www.w3.org/Graphics/SVG/1.1/DTD/svg11.dtd">
<svg viewBox="0 0 907 1045" version="1.1" xmlns="http://www.w3.org/2000/svg" xmlns:xlink="http://www.w3.org/1999/xlink">
<defs>
<clipPath id="c0_137"><path d="M102.2,628V571.9H243.3V628Z"/></clipPath>
<style type="text/css"><![CDATA[
.g0_137{
fill: none;
stroke: #231F20;
stroke-width: 1.527;
stroke-linecap: butt;
stroke-linejoin: miter;
stroke-miterlimit: 4;
}
.g1_137{
fill: #FFFFFF;
}
.g2_137{
}
.g3_137{
fill: #B5B5B5;
}
.g4_137{
fill: #333333;
}
.g5_137{
fill: #7B7B7B;
}
.g6_137{
fill: #8F8F8F;
}
.g7_137{
fill: #727272;
}
.g8_137{
fill: #C7C7C7;
}
.g9_137{
fill: #ABABAB;
}
.ga_137{
fill: #A7A7A7;
}
.gb_137{
fill: #E4E4E4;
}
.gc_137{
fill: #D2D2D2;
}
.gd_137{
fill: #CECECE;
}
.ge_137{
fill: #ECECEC;
}
.gf_137{
fill: #DCDCDC;
}
.gg_137{
fill: #DADADA;
}
.gh_137{
fill: #D5D5D5;
}
.gi_137{
fill: #3C3C3C;
}
.gj_137{
fill: none;
stroke: #FFFFFF;
stroke-width: 1.909;
stroke-linecap: butt;
stroke-linejoin: miter;
}
.gk_137{
fill: none;
stroke: #000000;
stroke-width: 0.381;
stroke-linecap: butt;
stroke-linejoin: miter;
}
]]></style>
</defs>
<path d="M92.2,590.4V952.5H816.7V590.4H92.2Z" class="g0_137"/>
<path d="M102.2,571.9V628H243.3V571.9H102.2Z" class="g1_137"/>
<path d="M145.3,615.6l-.9,-.1l.3,.7l7.5,.9l-5.3,-4.5l-.6,.4l-.4,.4l-.2,.5l-.3,.5l-.1,.9v.3Z" class="g2_137"/>
<path d="M134.7,604.5v0l.9,1.1l.7,1.1l.3,.7l.3,.7l.2,.8l.1,.7v.7l-.3,.7l-.3,.6l-.7,.7l-.8,.4l-1.1,.5l10.4,2.3l-.3,-1.1l-.1,-.8l.2,-.8l.2,-.6l.3,-.4l.2,-.3l.3,-.2l1.7,1.3l-3.6,-3.7l-2.7,-3.1l-1.1,-1.3l-.6,-1.1l-.2,.3l-.2,.3l-.2,.3l-.6,.3l-.7,.1l-1.1,.1l-1.2,-.3Z" class="g3_137"/>
<path d="M144.4,615.5l.9,.1v-.3l.1,-.9l.3,-.5l.2,-.5l.4,-.4l.6,-.4l-1.7,-1.3l-.3,.2l-.2,.3l-.3,.4l-.2,.6l-.2,.8l.1,.8l.3,1.1Z" class="g4_137"/>
<path d="M112.2,595.1v0l1.8,1.1l2,1.2l3.8,2.5l3.8,2.8l3.4,2.7l3.1,2.5l2.3,2l2.1,1.9l-.3,.4l.7,-.7l.6,-.6l.2,-.8l.1,-.8l-.1,-.7l-.2,-.8l-.2,-.7l-.4,-.8l-.9,-1.4l-.7,-1.1l-1,-1l.9,.4l1.1,.2l1.1,.3h1l1.8,-.2l.7,-.1l-1.5,-.4l-1.3,-.6l-3.2,-1.5l-3.2,-1.7l-3.3,-2l-3.1,-2l-2.9,-1.8l-4.1,-3.1l-1.3,.4l-.8,.6l-.7,.6l-.6,.5l-.4,.7l-.2,.7l-.1,.7v.6Z" class="g5_137"/>
<path d="M133.9,613.2v0h.1h-.1Z" class="g5_137"/>
<path d="M134.2,612.2v0l-.3,1h.1l1.1,-.5l.8,-.4l.7,-.7l.3,-.6l.3,-.7v-.7l-.1,-.7l-.2,-.8l-.3,-.7l-.3,-.7l-.7,-1.1l-.9,-1.1l1.2,.3l1.1,-.1l.7,-.1l.6,-.3l.2,-.3l.2,-.3l.2,-.3l-.7,.1l-1.8,.2h-1l-1.1,-.3l-1.1,-.2l-.9,-.4l1,1l.7,1.1l.9,1.4l.4,.8l.2,.7l.2,.8l.1,.7l-.1,.8l-.2,.8l-.6,.6l-.7,.7Z" class="g6_137"/>
<path d="M103.8,587.4v0l-.3,.7l-.1,.5v1.1l.2,.9l.4,.7l.6,.6l.4,.4l.6,.3l1.1,.3l-.1,-.9l.1,-.8l.2,-.6l.2,-.7l.2,-.6l.4,-.4l.7,-.9l.8,-.7l.8,-.3l.6,-.3l.6,-.1l-.8,-.8l-.6,-.4l-.7,-.3l-.7,-.3h-.8l-1,.1l-1,.2l-.6,.4l-.5,.5l-.4,.7l-.3,.7Z" class="g7_137"/>
<path d="M108.5,593.4v0l1.7,.8v-1.4l.2,-.6l.5,-.8l.5,-.6l.8,-.6l1.2,-.6l1.4,-.3l1.5,1l.4,-.1l-.3,-.4l-1,-1.1l-.8,-.6l-.9,-.7l-1.1,-.4l-1.2,-.5l-.2,.1l.4,.8l-.6,.1l-.6,.3l-.5,.3l-.4,.3l-.4,.5l-.3,.3l-.3,1l-.2,.9l-.1,.9l.1,.7l.2,.7Z" class="g8_137"/>
<path d="M110.2,594.2v0l2,.9v-.6l.1,-.7l.2,-.7l.4,-.7l.6,-.5l.7,-.6l.8,-.6l1.3,-.4l-1.5,-1l-1.4,.3l-1.2,.6l-.8,.6l-.5,.6l-.5,.8l-.2,.6v1.4Z" class="g9_137"/>
<path d="M106.7,592.9v0l1.8,.5l-.2,-.7l-.1,-.7l.1,-.9l.2,-.9l.3,-1l.3,-.3l.4,-.5l.4,-.3l.5,-.3l.6,-.3l.6,-.1l-.4,-.8l-.6,.1l-.6,.3l-.8,.3l-.8,.7l-.7,.9l-.4,.4l-.2,.6l-.2,.7l-.2,.6l-.1,.8l.1,.9Z" class="ga_137"/>
<path d="M132.8,613l.1,-.1l-.1,.1Z" class="gb_137"/>
<path d="M132.9,612.9v0l.4,.4l.6,-.1l-1,-.3Z" class="gc_137"/>
<path d="M112.4,596.7v0l1.6,.8l1.6,1l3.2,2.2l3.3,2.4l2.9,2.5l2.7,2.4l2.3,2l2.9,2.9l.7,-.3l.6,-.4l.3,-.4l-2.1,-1.9l-2.3,-2L127,605.4l-3.4,-2.7l-3.8,-2.8L116,597.4l-2,-1.2l-1.8,-1.1l.1,.8l.1,.8Z" class="g6_137"/>
<path d="M132.9,612.9l1,.3l.3,-1l-.6,.4l-.7,.3Z" class="g6_137"/>
<path d="M103.8,586.2v0l-.8,2.1l-.6,2.2l.2,.7l.4,.6l.5,.5l.5,.5l.6,.5l.7,.4l.7,.2l1,.3l-.3,-1.3l-1.1,-.3l-.6,-.3l-.4,-.4l-.6,-.6l-.4,-.7l-.2,-.9v-1.1l.1,-.5l.3,-.7l.3,-.7l.4,-.7l.5,-.5l.6,-.4l-1.1,.6l-.7,.5Z" class="gd_137"/>
<path d="M113.3,598.6v0l-.4,-.6l-.3,-.6l-.2,-.7l-1.8,-1l-.2,-.4l-.1,-.5l-.1,-.6l-1.7,-.8l.1,.7l-.9,.1H107v.6l.6,.6l.6,.6l.7,.7l.9,.6l1.1,.6l1.1,.5l.7,.1l.6,.1Z" class="ge_137"/>
<path d="M110.6,595.7v0l1.8,1l-.1,-.8l-.1,-.8l-2,-.9l.1,.6l.1,.5l.2,.4Z" class="gf_137"/>
<path d="M108.5,593.4v0l-1.8,-.5l.3,1.3h.7l.9,-.1l-.1,-.7Z" class="gg_137"/>
<path clip-path="url(#c0_137)" d="M102.4,590.5v0l.6,-2.2l.8,-2.1l-.4,.5l-.4,.5l-.4,.5l-.2,.5l-.1,.7l-.1,.5l.1,.6l.1,.5Z" class="gh_137"/>
<path d="M131.5,612.7v0L126.9,609L122,605.2l-4.9,-3.6L114.6,600L112,598.4l-.1,.4l1.3,.7l1.3,.9l2.5,1.7l4.9,3.6l4.8,3.7l2.3,1.8l2.3,1.9V613l.2,-.3Z" class="gi_137"/>
<path d="M137.8,600.8v0l-5.3,-2.5l-5.3,-2.7l-2.6,-1.3L122,592.9l-2.6,-1.5L117,589.7l-.3,.5l2.5,1.6l2.5,1.5l2.6,1.4l2.6,1.4l5.4,2.6l5.3,2.5l.2,-.4Z" class="gi_137"/>
<path d="M113.3,599.7v0l-.7,-.8l-.4,-.9l-.3,-1l-.1,-1.1v-1.1l.4,-1.1l.4,-1.1l.4,-.5l.4,-.3l.9,-.7l.9,-.5l1,-.4l1.1,-.4l-.2,-.5l-1.1,.4l-1,.4l-1,.7l-.9,.7l-.5,.5l-.4,.5l-.4,1.1l-.4,1.2l-.1,1.3l.2,1l.2,1.1l.7,1l.3,.4l.4,.4l.2,-.3Z" class="gi_137"/>
<path d="M110,597v0l-.3,-.8l-.4,-.8v-.7l-.2,-.8V593l.1,-.8l.2,-.8l.3,-.8l.4,-.7l.4,-.6l.6,-.6l.7,-.4l.7,-.4l.8,-.2l.7,-.2h.8V587l-.8,.1l-.9,.1l-.8,.4l-.8,.3l-.6,.4l-.7,.7l-.5,.6l-.5,.7l-.2,.9l-.3,.9v1.8l.1,.8l.2,.8l.2,.9l.5,.8l.3,-.2Z" class="gi_137"/>
<path d="M108.2,595.1v0l-.4,-1.3v-2.4l.2,-1.1l.3,-.8l.3,-.6l.5,-.6l.5,-.5l.6,-.5l.5,-.3l1.4,-.8l-.3,-.4l-1.3,.7l-.7,.4l-.6,.6l-.4,.5l-.5,.6l-.4,.7l-.3,.7l-.2,1.3l-.1,1.3l.1,1.3l.3,1.3l.5,-.1Z" class="gi_137"/>
<path d="M114.6,588v0l-1.5,-1.3l-1.5,-1.3l-.3,.3l1.5,1.4l1.5,1.2l.3,-.3Z" class="gi_137"/>
<path d="M111,596.9v0l-1.9,-1.1l-2.1,-1l-.1,.4l1.9,1l2,1.1l.2,-.4Z" class="gi_137"/>
<path d="M106.3,594v0l-1,-.6l-1,-.8l-.5,-.5l-.4,-.4l-.3,-.7l-.1,-.6l-.1,-.9v-.9l.2,-.9l.4,-.8l.7,-.8l.8,-.6l.7,-.4l.9,-.3l1,-.3h.9l1,.3l.9,.2l.2,-.4l-1,-.4l-1,-.1h-1.1l-1,.2l-1,.4l-.9,.4l-.7,.7l-.7,.8l-.3,.6l-.2,.6l-.3,.5l.1,.6l-.1,1.2l.3,1.2l.3,.5l.3,.5l.9,.8l.8,.7l1.2,.6l.1,-.4Z" class="gi_137"/>
<path d="M136,604.1v0l-2.8,-1.4l-2.7,-1.4l-2.7,-1.6l-2.7,-1.5l-5.3,-3.4l-5.1,-3.5l-.2,.5l5.2,3.4l5.2,3.4l2.6,1.6l2.7,1.5l2.8,1.5l2.8,1.4l.2,-.5Z" class="gi_137"/>
<path d="M139.8,603.6v0l-1,.2l-1,.1l-2,.3v.5l2.1,-.3l1.1,-.1l1,-.3l-.2,-.4Z" class="gi_137"/>
<path d="M153.8,617.6v0l-4.9,-1.1l-5.1,-.9l-4.9,-.8l-5.1,-.7v.3l4.9,.8l5.1,.8l5,1l4.9,1.1l.1,-.5Z" class="gi_137"/>
<path d="M153.9,617.1v0l-3.8,-3.6l-3.7,-3.8l-3.5,-3.8l-3.5,-4l-.3,.2l3.4,4.1l3.5,3.9l3.8,3.8l3.8,3.5l.3,-.3Z" class="gi_137"/>
<path d="M146.9,616v0l-.2,-.6l-.2,-.7l-.1,-.6l.1,-.8l.3,-.6l.4,-.5l.3,-.6l.5,-.4l-.2,-.4l-.6,.5l-.5,.6l-.4,.6l-.2,.8l-.2,.7l.1,.8l.2,.7l.3,.7l.4,-.2Z" class="gi_137"/>
<path d="M-3.8,13.7H-26.7m939.5,0h22.9M-3.8,1031.2H-26.7m939.5,0h22.9M14.4,-4.6V-27.5m0,1077v22.9m880,-1077V-27.5m0,1077v22.9" class="gj_137"/>
<path d="M-3.8,13.7H-26.7m939.5,0h22.9M-3.8,1031.2H-26.7m939.5,0h22.9M14.4,-4.6V-27.5m0,1077v22.9m880,-1077V-27.5m0,1077v22.9" class="gk_137"/>
</svg>