<?xml version="1.0" encoding="UTF-8" standalone="no"?>
<!DOCTYPE svg PUBLIC "-//W3C//DTD SVG 1.1//EN"
"http://www.w3.org/Graphics/SVG/1.1/DTD/svg11.dtd">
<svg viewBox="0 0 907 1045" version="1.1" xmlns="http://www.w3.org/2000/svg" xmlns:xlink="http://www.w3.org/1999/xlink">
<defs>
<clipPath id="c0_651"><path d="M758.1,404.6V343.4h11.1V323.6H758.1V307.8H642.8v15.8h-2.3v19.8h2.3v61.2ZM637.3,419.2v-117H772.2v117H740.3l1.8,-1l1.3,-.7l-1.4,-.4l-10.7,-2.9l-.6,-.2l-.1,.6l-1.2,4.6H671.9l-1.1,-4.6l-.2,-.6l-.5,.2l-10.7,2.9l-1.4,.4l1.2,.7l1.9,1Z"/></clipPath>
<clipPath id="c1_651"><path d="M663.5,419.2l-2.4,-1.3l8.7,-2.4l.9,3.7Z"/></clipPath>
<clipPath id="c2_651"><path d="M661.1,419.2l-1.9,-1l-1.2,-.7l1.4,-.4l10.7,-2.9l.5,-.2l.2,.6l1.1,4.6h-.6l-1.1,-4.5l-10.7,3l2.8,1.5Z"/></clipPath>
<clipPath id="c3_651"><path d="M662.3,419.2l-2.8,-1.5l10.7,-3l1.1,4.5h-.6l-.9,-3.7l-8.7,2.4l2.4,1.3Z"/></clipPath>
<clipPath id="c4_651"><path d="M730.6,419.2l1,-3.7l8.7,2.4l-2.5,1.3Z"/></clipPath>
<clipPath id="c5_651"><path d="M729.4,419.2l1.2,-4.6l.1,-.6l.6,.2l10.7,2.9l1.4,.4l-1.3,.7l-1.8,1h-1.2l2.7,-1.5l-10.7,-3l-1.1,4.5Z"/></clipPath>
<clipPath id="c6_651"><path d="M730,419.2l1.1,-4.5l10.7,3l-2.7,1.5h-1.3l2.5,-1.3l-8.7,-2.4l-1,3.7Z"/></clipPath>
<clipPath id="c7_651"><path d="M642.8,404.6V343.4h.3v61H757.9v-61h.2v61.2Zm0,-81V307.8H758.1v15.8h-.2V308H643.1v15.6Z"/></clipPath>
<clipPath id="c8_651"><path d="M640.5,343.4V323.6h2.3v19.8Zm117.6,0V323.6h11.1v19.8Z"/></clipPath>
<clipPath id="c9_651"><path d="M643.3,343.4V323.6H757.6v19.8Z"/></clipPath>
<clipPath id="ca_651"><path d="M642.8,343.4V323.6h.3v19.8Zm115.1,0V323.6h.2v19.8Z"/></clipPath>
<clipPath id="cb_651"><path d="M643.1,343.4V323.6h.2v19.8Zm114.5,0V323.6h.3v19.8Z"/></clipPath>
<clipPath id="cc_651"><path d="M708.4,579.8V468.3h51.4L774,494.4l1,-.5L761.2,468.3h77.9V579.8Z"/></clipPath>
<clipPath id="cd_651"><path d="M774,494.4L759.8,468.3h1.4L775,493.9l-1,.5Z"/></clipPath>
<clipPath id="ce_651"><path d="M573.4,580.9V468.3h66.8l-13.8,25.6l1,.5l14.1,-26.1h62.6V579.8h4.3v1.1Z"/></clipPath>
<clipPath id="cf_651"><path d="M627.4,494.4l-1,-.5l13.8,-25.6h1.3l-14.1,26.1Z"/></clipPath>
<clipPath id="cg_651"><path d="M704.1,579.8V468.3h4.3V579.8Z"/></clipPath>
<clipPath id="ch_651"><path d="M227.2,578.9c.4,0,.8,-.4,.8,-.8c0,-.4,-.4,-.8,-.8,-.8c-.4,0,-.8,.4,-.8,.8c0,.4,.4,.8,.8,.8Zm4.4,-1.5c.1,0,.2,0,.2,-.1c.4,-.1,.7,-.5,.5,-.9c-.1,-.4,-.4,-.6,-.7,-.6c-.1,0,-.2,.1,-.3,.1c-.4,.1,-.6,.5,-.4,.9c.1,.4,.4,.6,.7,.6Zm4.4,-1.5c.1,0,.2,0,.2,-.1c.4,-.1,.6,-.5,.5,-.9c-.1,-.4,-.4,-.5,-.7,-.5c-.1,0,-.2,0,-.3,0c-.4,.1,-.6,.6,-.4,1c.1,.3,.4,.5,.7,.5Zm4.4,-1.5q.1,0,.2,0c.4,-.2,.6,-.6,.5,-1c-.1,-.3,-.4,-.5,-.7,-.5c-.1,0,-.2,0,-.3,0c-.4,.1,-.6,.6,-.4,1c.1,.3,.4,.5,.7,.5Zm4.4,-1.5q.1,0,.2,0c.4,-.2,.6,-.6,.5,-1c-.1,-.3,-.4,-.5,-.7,-.5c-.1,0,-.2,0,-.3,0c-.4,.1,-.6,.6,-.4,1c.1,.3,.4,.5,.7,.5Zm4.4,-1.5q.1,0,.2,0c.4,-.2,.6,-.6,.5,-1c-.1,-.3,-.4,-.5,-.7,-.5c-.1,0,-.2,0,-.3,0c-.4,.2,-.6,.6,-.5,1c.2,.3,.5,.5,.8,.5Zm4.4,-1.5c0,0,.1,0,.2,0c.4,-.1,.6,-.6,.5,-1c-.1,-.3,-.4,-.5,-.7,-.5c-.1,0,-.2,0,-.3,0c-.4,.2,-.6,.6,-.5,1c.2,.3,.4,.5,.8,.5Zm4.4,-1.5c0,0,.1,0,.2,0c.4,-.1,.6,-.6,.5,-1c-.1,-.3,-.4,-.5,-.7,-.5c-.1,0,-.2,0,-.3,.1c-.4,.1,-.6,.5,-.5,.9c.2,.3,.4,.5,.8,.5Zm4.4,-1.4c0,0,.1,-.1,.2,-.1c.4,-.1,.6,-.5,.5,-.9c-.1,-.4,-.4,-.6,-.7,-.6c-.1,0,-.2,0,-.3,.1c-.4,.1,-.6,.5,-.5,.9c.1,.4,.4,.6,.8,.6Zm4.4,-1.5c0,0,.1,0,.2,-.1c.4,-.1,.6,-.5,.5,-.9c-.1,-.3,-.4,-.6,-.7,-.6c-.1,0,-.2,.1,-.3,.1c-.4,.1,-.6,.6,-.5,.9c.1,.4,.4,.6,.8,.6Zm4.4,-1.5c0,0,.1,0,.2,-.1c.4,-.1,.6,-.5,.5,-.9c-.1,-.3,-.4,-.5,-.7,-.5c-.1,0,-.2,0,-.3,0c-.4,.1,-.6,.6,-.5,1c.1,.3,.4,.5,.8,.5Zm4.3,-1.5c.1,0,.2,0,.3,0c.4,-.2,.6,-.6,.5,-1c-.1,-.3,-.4,-.5,-.7,-.5c-.1,0,-.2,0,-.3,0c-.4,.1,-.6,.6,-.5,1c.1,.3,.4,.5,.7,.5ZM280,561c0,0,.1,0,.2,0c.4,-.2,.6,-.6,.5,-1c-.1,-.3,-.4,-.5,-.8,-.5c0,0,-.1,0,-.2,0c-.4,.2,-.6,.6,-.5,1c.1,.3,.4,.5,.8,.5Zm4.3,-1.5c.1,0,.2,0,.3,0c.4,-.1,.6,-.6,.5,-1c-.1,-.3,-.4,-.5,-.8,-.5c0,0,-.1,0,-.2,0c-.4,.2,-.6,.6,-.5,1c.1,.3,.4,.5,.7,.5ZM153.9,639.3V475.4h60.3l-.5,40.6h1.2l.5,-40.6h73.5v81.1q-.1,0,-.2,0c0,0,-.1,0,-.2,0c-.4,.2,-.6,.6,-.5,1c.1,.3,.4,.5,.7,.5q.1,0,.2,0v81.3Z"/></clipPath>
<clipPath id="ci_651"><path d="M214.9,516h-1.2l.5,-40.6h1.2l-.5,40.6Z"/></clipPath>
<clipPath id="cj_651"><path d="M222.7,377.1c.4,0,.8,-.3,.8,-.7c0,-.4,-.4,-.8,-.8,-.8c-.4,0,-.7,.4,-.7,.8c0,.4,.3,.7,.7,.7Zm4.5,-.2q.1,0,.1,-.1c.4,0,.7,-.3,.7,-.8c0,-.4,-.4,-.7,-.8,-.7c-.4,.1,-.7,.4,-.7,.8c0,.4,.3,.8,.7,.8Zm4.6,-.4c.4,0,.8,-.3,.7,-.8c0,-.4,-.3,-.7,-.7,-.7q-.1,0,-.1,0c-.4,0,-.7,.4,-.7,.8c0,.4,.4,.7,.8,.7Zm4.5,-.2c.4,-.1,.8,-.4,.7,-.9c0,-.4,-.3,-.7,-.7,-.7c0,0,-.1,0,-.1,0c-.4,.1,-.7,.4,-.7,.8c0,.4,.4,.8,.8,.8Zm4.5,-.3c.5,-.1,.8,-.4,.8,-.9c-.1,-.4,-.4,-.7,-.8,-.7h-.1c-.4,.1,-.7,.4,-.7,.8c.1,.5,.4,.8,.8,.8Zm4.5,-.3h.1c.4,-.1,.7,-.4,.7,-.9c-.1,-.4,-.4,-.7,-.8,-.7c-.5,.1,-.8,.4,-.8,.9c.1,.3,.4,.7,.8,.7Zm4.5,-.3c0,0,.1,0,.1,0c.4,-.1,.7,-.4,.7,-.8c0,-.5,-.4,-.8,-.8,-.8c-.4,.1,-.8,.4,-.7,.8c0,.5,.3,.8,.7,.8Zm4.5,-.3q.1,0,.1,0c.4,-.1,.7,-.4,.7,-.8c0,-.4,-.4,-.8,-.8,-.8c-.4,.1,-.8,.4,-.7,.8c0,.5,.3,.8,.7,.8Zm4.6,-.3c.4,-.1,.8,-.4,.7,-.8c0,-.4,-.3,-.8,-.7,-.8q-.1,0,-.1,0c-.4,.1,-.7,.4,-.7,.9c0,.4,.4,.7,.8,.7Zm4.5,-.3c.4,-.1,.8,-.4,.7,-.8c0,-.4,-.3,-.8,-.7,-.8c0,0,-.1,0,-.1,0c-.4,.1,-.7,.4,-.7,.9c0,.4,.4,.7,.8,.7Zm4.5,-.3c.5,0,.8,-.4,.8,-.8c-.1,-.4,-.4,-.7,-.8,-.7c0,0,-.1,0,-.1,0c-.4,0,-.7,.3,-.7,.8c.1,.4,.4,.7,.8,.7Zm4.5,-.3h.1c.4,0,.7,-.4,.7,-.8c-.1,-.4,-.4,-.7,-.8,-.7c-.5,0,-.8,.4,-.8,.8c.1,.4,.4,.7,.8,.7Zm4.5,-.3c0,0,.1,0,.1,0c.4,-.1,.7,-.4,.7,-.8c0,-.4,-.4,-.7,-.8,-.7c-.4,0,-.8,.3,-.7,.8c0,.4,.3,.7,.7,.7Zm4.5,-.3q.1,0,.1,0c.4,0,.7,-.4,.7,-.8c0,-.4,-.4,-.7,-.8,-.7c-.4,0,-.8,.4,-.7,.8c0,.4,.3,.7,.7,.7Zm4.5,-.3q.1,0,.1,0c.4,0,.7,-.4,.7,-.8c0,-.4,-.3,-.7,-.7,-.7q-.1,0,-.1,0c-.4,0,-.7,.4,-.7,.8c0,.4,.4,.7,.7,.7ZM154.1,434.2V294.8H289V434.2H215.9v-.4l6.9,.1h1.3l-.8,-1l-7,-7.7l-.4,-.5l-.5,.4l-8.1,7.6l-1,1h1.4l7.1,.1v.4Z"/></clipPath>
<clipPath id="ck_651"><path d="M214.8,434.2v-.4h1.1v.4Z"/></clipPath>
<clipPath id="cl_651"><path d="M221.5,432.7l-12.3,-.1l6.6,-6.2l5.7,6.3Z"/></clipPath>
<clipPath id="cm_651"><path d="M224.1,433.9h-1.3l-6.9,-.1v-.6l6.9,.1l-7,-7.7l-8.1,7.5l7.1,.1v.6l-7.1,-.1h-1.4l1,-1l8.1,-7.6l.5,-.4l.4,.5l7,7.7l.8,1Z"/></clipPath>
<clipPath id="cn_651"><path d="M215.9,433.8h-1.1v-.6h1.1v.6Z"/></clipPath>
<clipPath id="co_651"><path d="M221.5,432.7l-5.7,-6.3l-6.6,6.2l12.3,.1Zm1.3,.6l-6.9,-.1h-1.1l-7.1,-.1l8.1,-7.5l7,7.7Z"/></clipPath>
<clipPath id="cp_651"><path d="M349.2,368.9c.4,-.1,.8,-.4,.7,-.9c0,-.4,-.3,-.7,-.7,-.7c0,0,-.1,0,-.1,0c-.4,.1,-.7,.4,-.7,.8c0,.4,.4,.8,.8,.8Zm4.5,-.3c.4,0,.8,-.4,.8,-.8c0,-.4,-.4,-.8,-.8,-.8c-.4,0,-.8,.4,-.8,.8c0,.4,.4,.8,.8,.8Zm-6,37.6V357.8H609.5v48.4Z"/></clipPath>
<clipPath id="cq_651"><path d="M349.2,368.9c-.4,0,-.8,-.4,-.8,-.8c0,-.4,.3,-.7,.7,-.8c0,0,.1,0,.1,0c.4,0,.7,.3,.7,.7c.1,.5,-.3,.8,-.7,.9Z"/></clipPath>
<clipPath id="cr_651"><path d="M353.7,368.6c-.4,0,-.8,-.4,-.8,-.8c0,-.4,.4,-.8,.8,-.8c.4,0,.8,.4,.8,.8c0,.4,-.4,.8,-.8,.8Z"/></clipPath>
<clipPath id="cs_651"><path d="M310.7,550.6c.1,0,.2,0,.3,0c.4,-.2,.6,-.6,.4,-1c-.1,-.3,-.4,-.5,-.7,-.5c-.1,0,-.2,0,-.2,0c-.4,.2,-.7,.6,-.5,1c.1,.3,.4,.5,.7,.5Zm4.4,-1.5c.4,0,.8,-.3,.8,-.7c0,-.5,-.4,-.8,-.8,-.8c-.4,0,-.8,.3,-.8,.8c0,.4,.4,.7,.8,.7Zm-6,37.6V538.3H558.5v48.4Z"/></clipPath>
<clipPath id="ct_651"><path d="M310.7,550.6c-.3,0,-.6,-.2,-.7,-.5c-.2,-.4,.1,-.8,.5,-1c0,0,.1,0,.2,0c.3,0,.6,.2,.7,.5c.2,.4,0,.8,-.4,1c-.1,0,-.2,0,-.3,0Z"/></clipPath>
<clipPath id="cu_651"><path d="M315.1,549.1c-.4,0,-.8,-.3,-.8,-.7c0,-.5,.4,-.8,.8,-.8c.4,0,.8,.3,.8,.8c0,.4,-.4,.7,-.8,.7Z"/></clipPath>
<clipPath id="cv_651"><path d="M-2.6,1047.7V-2.6H910.2V1047.7Z"/></clipPath>
<style type="text/css"><![CDATA[
.g0_651{
fill: none;
stroke: #000000;
stroke-width: 0.763;
stroke-linecap: butt;
stroke-linejoin: miter;
stroke-miterlimit: 4;
}
.g1_651{
fill: #FFFFFF;
}
.g2_651{
}
.g3_651{
fill: none;
stroke: #000000;
stroke-width: 0.656;
stroke-linecap: butt;
stroke-linejoin: miter;
stroke-miterlimit: 4;
}
.g4_651{
fill: none;
stroke: #000000;
stroke-width: 0.492;
stroke-linecap: butt;
stroke-linejoin: miter;
stroke-miterlimit: 4;
}
.g5_651{
fill: none;
stroke: #454545;
stroke-width: 1.527;
stroke-linecap: butt;
stroke-linejoin: miter;
stroke-miterlimit: 4;
}
.g6_651{
fill: #454545;
}
.g7_651{
fill: none;
stroke: #454545;
stroke-width: 1.506;
stroke-linecap: butt;
stroke-linejoin: miter;
stroke-miterlimit: 4;
}
.g8_651{
fill: none;
stroke: #FFFFFF;
stroke-width: 1.909;
stroke-linecap: butt;
stroke-linejoin: miter;
}
.g9_651{
fill: none;
stroke: #000000;
stroke-width: 0.381;
stroke-linecap: butt;
stroke-linejoin: miter;
}
]]></style>
</defs>
<path d="M82.9,795.9V953h346V795.9H82.9Z" class="g0_651"/>
<path d="M90.8,786.7v18H216.9v-18H90.8Z" class="g1_651"/>
<path d="M464.7,794.6V953H805.8V794.6H464.7Z" class="g0_651"/>
<path d="M469.4,784.7v19.4H691.5V784.7H469.4Z" class="g1_651"/>
<path d="M627.4,494.4l40.1,-74.1l-1.1,-.6l-40,74.2l1,.5Z" class="g2_651"/>
<path d="M670.2,414.7l-10.7,3l13.3,7.2l-2.6,-10.2Z" class="g1_651"/>
<path d="M670.2,414.7l-.1,-.5l-10.7,2.9l-1.4,.4l1.2,.7l13.3,7.2l1.2,.6l-.3,-1.3l-2.6,-10.1l-.2,-.6l-.5,.2l.1,.5l-.6,.2l2.6,10.1l.6,-.1l.3,-.5l-13.3,-7.2l-.3,.5l.2,.6l10.7,-3l-.2,-.6l-.6,.2l.6,-.2Z" class="g2_651"/>
<path d="M774,494.4L733.9,420.3l1,-.6L775,493.9l-1,.5Z" class="g2_651"/>
<path d="M731.1,414.7l10.7,3l-13.2,7.2l2.5,-10.2Z" class="g1_651"/>
<path d="M731.1,414.7l.2,-.5l10.7,2.9l1.4,.4l-1.3,.7l-13.3,7.2l-1.1,.6l.3,-1.3l2.6,-10.1l.1,-.6l.6,.2l-.2,.5l.6,.2L729.1,425l-.5,-.1l-.3,-.5l13.2,-7.2l.3,.5l-.1,.6l-10.7,-3l.1,-.6l.6,.2l-.6,-.2Z" class="g2_651"/>
<image clip-path="url(#c0_651)" preserveAspectRatio="none" x="637" y="302" width="136" height="118" xlink:href="img/1.jpg"/>
<image clip-path="url(#c1_651)" preserveAspectRatio="none" x="661" y="415" width="10" height="5" xlink:href="img/2.jpg"/>
<image clip-path="url(#c2_651)" preserveAspectRatio="none" x="657" y="414" width="15" height="6" xlink:href="img/3.jpg"/>
<image clip-path="url(#c3_651)" preserveAspectRatio="none" x="659" y="414" width="13" height="6" xlink:href="img/4.jpg"/>
<image clip-path="url(#c4_651)" preserveAspectRatio="none" x="730" y="415" width="11" height="5" xlink:href="img/5.jpg"/>
<image clip-path="url(#c5_651)" preserveAspectRatio="none" x="729" y="414" width="15" height="6" xlink:href="img/6.jpg"/>
<image clip-path="url(#c6_651)" preserveAspectRatio="none" x="730" y="414" width="12" height="6" xlink:href="img/7.jpg"/>
<image clip-path="url(#c7_651)" preserveAspectRatio="none" x="642" y="307" width="117" height="98" xlink:href="img/8.jpg"/>
<path d="M643.1,308v96.4H757.9V308H643.1Z" class="g1_651"/>
<path d="M643.1,308h-.3v96.6H758.1V307.8H642.8v.2h.3v.3H757.9V308h-.3v96.4h.3v-.2H643.1v.2h.2V308h-.2v.3V308Z" class="g2_651"/>
<image clip-path="url(#c8_651)" preserveAspectRatio="none" x="640" y="323" width="130" height="21" xlink:href="img/9.jpg"/>
<image clip-path="url(#c9_651)" preserveAspectRatio="none" x="643" y="323" width="115" height="21" xlink:href="img/10.jpg"/>
<image clip-path="url(#ca_651)" preserveAspectRatio="none" x="643" y="323" width="116" height="21" xlink:href="img/11.jpg"/>
<image clip-path="url(#cb_651)" preserveAspectRatio="none" x="643" y="323" width="115" height="21" xlink:href="img/12.jpg"/>
<path d="M643.1,329.1H758" class="g3_651"/>
<image clip-path="url(#cc_651)" preserveAspectRatio="none" x="708" y="468" width="131" height="112" xlink:href="img/13.jpg"/>
<image clip-path="url(#cd_651)" preserveAspectRatio="none" x="760" y="468" width="15" height="27" xlink:href="img/14.jpg"/>
<path d="M710,474.1v91.1H824.8V474.1H710Z" class="g1_651"/>
<path d="M710,474.1v91.1H824.8V474.1H710Z" class="g4_651"/>
<path d="M709.9,495.2h115" class="g3_651"/>
<image clip-path="url(#ce_651)" preserveAspectRatio="none" x="573" y="468" width="136" height="113" xlink:href="img/15.jpg"/>
<image clip-path="url(#cf_651)" preserveAspectRatio="none" x="626" y="468" width="16" height="27" xlink:href="img/16.jpg"/>
<image clip-path="url(#cg_651)" preserveAspectRatio="none" x="704" y="468" width="5" height="112" xlink:href="img/17.jpg"/>
<path d="M579.2,474.1v91.8H694V474.1H579.2Z" class="g1_651"/>
<path d="M579.2,474.1v91.8H694V474.1H579.2Z" class="g4_651"/>
<path d="M579.2,495.2h115" class="g3_651"/>
<path d="M214.9,516L216,431.7h-1.2L213.7,516h1.2Z" class="g2_651"/>
<path d="M215.8,425.6l-8.1,7.5l15.1,.2l-7,-7.7Z" class="g1_651"/>
<path d="M215.8,425.6l-.4,-.5l-8.1,7.6l-1,1h1.4l15.1,.2h1.3l-.8,-1l-7,-7.7l-.4,-.5l-.5,.4l.4,.5l-.4,.3l7,7.8l.4,-.4v-.6l-15.1,-.1v.5l.4,.5l8.1,-7.6l-.4,-.4l-.4,.3l.4,-.3Z" class="g2_651"/>
<image clip-path="url(#ch_651)" preserveAspectRatio="none" x="154" y="475" width="135" height="165" xlink:href="img/18.jpg"/>
<image clip-path="url(#ci_651)" preserveAspectRatio="none" x="213" y="475" width="3" height="41" xlink:href="img/19.jpg"/>
<path d="M159.7,481.1V624.4H274.5V481.1H159.7Z" class="g1_651"/>
<path d="M159.7,481.1V624.4H274.5V481.1H159.7Z" class="g4_651"/>
<path d="M159.7,502.3h115" class="g3_651"/>
<image clip-path="url(#cj_651)" preserveAspectRatio="none" x="154" y="294" width="135" height="141" xlink:href="img/20.jpg"/>
<image clip-path="url(#ck_651)" preserveAspectRatio="none" x="215" y="433" width="1" height="2" xlink:href="img/21.jpg"/>
<image clip-path="url(#cl_651)" preserveAspectRatio="none" x="209" y="426" width="13" height="7" xlink:href="img/22.jpg"/>
<image clip-path="url(#cm_651)" preserveAspectRatio="none" x="206" y="424" width="18" height="10" xlink:href="img/23.jpg"/>
<image clip-path="url(#cn_651)" preserveAspectRatio="none" x="215" y="433" width="1" height="1" xlink:href="img/24.jpg"/>
<image clip-path="url(#co_651)" preserveAspectRatio="none" x="207" y="425" width="16" height="9" xlink:href="img/25.jpg"/>
<path d="M159.9,300.6V419.2H274.7V300.6H159.9Z" class="g1_651"/>
<path d="M159.9,300.6V419.2H274.7V300.6H159.9Z" class="g4_651"/>
<path d="M159.9,318.7H274.8m-115.2,18h115" class="g3_651"/>
<path d="M271.1,326.5H634.5" class="g5_651"/>
<path d="M642.8,326.5l-10.7,-3.9l2.4,3.9l-2.4,3.9l10.7,-3.9Z" class="g6_651"/>
<path d="M227.3,376.9c.4,-.1,.7,-.4,.7,-.9c0,-.4,-.4,-.7,-.8,-.7c-.4,.1,-.7,.4,-.7,.8c0,.5,.4,.8,.8,.8m4.5,-.3c.4,-.1,.8,-.4,.7,-.9c0,-.4,-.4,-.7,-.8,-.7c-.4,.1,-.7,.4,-.7,.8c0,.5,.4,.8,.8,.8m4.5,-.3c.4,-.1,.8,-.4,.7,-.9c0,-.4,-.4,-.7,-.8,-.7c-.4,.1,-.7,.4,-.7,.9c0,.4,.4,.7,.8,.7m4.5,-.3c.5,-.1,.8,-.4,.8,-.8c-.1,-.5,-.4,-.8,-.9,-.8c-.4,.1,-.7,.4,-.7,.9c.1,.4,.4,.7,.8,.7m4.6,-.3c.4,-.1,.7,-.4,.7,-.8c-.1,-.5,-.4,-.8,-.8,-.7c-.5,0,-.8,.3,-.8,.8c.1,.4,.4,.7,.9,.7m4.5,-.3c.4,-.1,.7,-.4,.7,-.8c0,-.5,-.4,-.8,-.8,-.8c-.4,.1,-.8,.4,-.7,.9c0,.4,.3,.7,.8,.7m4.5,-.3c.4,-.1,.7,-.4,.7,-.8c0,-.5,-.4,-.8,-.8,-.8c-.4,.1,-.8,.4,-.7,.9c0,.4,.4,.7,.8,.7m4.5,-.3c.4,0,.8,-.4,.7,-.8c0,-.5,-.4,-.8,-.8,-.7c-.4,0,-.7,.3,-.7,.8c0,.4,.4,.7,.8,.7m4.5,-.3c.4,0,.8,-.4,.7,-.8c0,-.5,-.4,-.8,-.8,-.7c-.4,0,-.7,.4,-.7,.8c0,.4,.4,.7,.8,.7m4.5,-.3c.5,0,.8,-.4,.8,-.8c-.1,-.4,-.4,-.8,-.9,-.7c-.4,0,-.7,.4,-.7,.8c.1,.4,.4,.7,.8,.7m4.6,-.3c.4,0,.7,-.4,.7,-.8c-.1,-.4,-.4,-.8,-.8,-.7c-.5,0,-.8,.4,-.8,.8c.1,.4,.4,.7,.9,.7m4.5,-.3c.4,0,.7,-.4,.7,-.8c0,-.4,-.4,-.8,-.8,-.7c-.4,0,-.8,.4,-.7,.8c0,.4,.4,.7,.8,.7m4.5,-.3c.4,0,.7,-.4,.7,-.8c0,-.4,-.4,-.8,-.8,-.7c-.4,0,-.8,.4,-.7,.8c0,.4,.4,.7,.8,.7M286,373c.4,0,.7,-.4,.7,-.8c0,-.4,-.4,-.7,-.8,-.7c-.4,0,-.7,.4,-.7,.8c0,.4,.4,.7,.8,.7m4.5,-.3c.4,0,.8,-.4,.7,-.8c0,-.4,-.4,-.7,-.8,-.7c-.4,0,-.7,.4,-.7,.8c0,.4,.4,.7,.8,.7m4.5,-.3c.5,0,.8,-.4,.7,-.8c0,-.4,-.3,-.7,-.8,-.7c-.4,0,-.7,.4,-.7,.8c0,.4,.4,.7,.8,.7m4.6,-.3c.4,0,.7,-.4,.7,-.8c-.1,-.4,-.4,-.7,-.9,-.7c-.4,0,-.7,.4,-.7,.8c.1,.4,.4,.7,.9,.7m4.5,-.3c.4,0,.7,-.4,.7,-.8c0,-.4,-.4,-.7,-.8,-.7c-.5,0,-.8,.4,-.7,.8c0,.4,.4,.7,.8,.7m4.5,-.3c.4,0,.7,-.4,.7,-.8c0,-.4,-.4,-.7,-.8,-.7c-.4,0,-.8,.4,-.7,.8c0,.4,.4,.8,.8,.7m4.5,-.3c.4,0,.7,-.4,.7,-.8c0,-.4,-.4,-.7,-.8,-.7c-.4,0,-.7,.4,-.7,.8c0,.4,.4,.8,.8,.7m4.5,-.3c.4,0,.8,-.4,.7,-.8c0,-.4,-.4,-.7,-.8,-.7c-.4,0,-.7,.4,-.7,.8c0,.4,.4,.8,.8,.7m4.5,-.3c.5,0,.8,-.4,.7,-.8c0,-.4,-.4,-.7,-.8,-.7c-.4,0,-.7,.4,-.7,.8c0,.4,.4,.8,.8,.7m4.5,-.3c.5,0,.8,-.4,.8,-.8c-.1,-.4,-.4,-.7,-.9,-.7c-.4,0,-.7,.4,-.7,.8c.1,.4,.4,.8,.8,.7m4.6,-.3c.4,0,.7,-.4,.7,-.8c0,-.4,-.4,-.7,-.8,-.7c-.5,0,-.8,.4,-.7,.8c0,.5,.3,.8,.8,.7m4.5,-.3c.4,0,.7,-.3,.7,-.8c0,-.4,-.4,-.7,-.8,-.7c-.4,0,-.8,.4,-.7,.8c0,.5,.4,.8,.8,.7m4.5,-.2c.4,-.1,.7,-.4,.7,-.9c0,-.4,-.4,-.7,-.8,-.7c-.4,.1,-.7,.4,-.7,.8c0,.5,.4,.8,.8,.8m4.5,-.4c.4,0,.8,-.3,.7,-.8c0,-.4,-.4,-.7,-.8,-.7c-.4,0,-.7,.4,-.7,.8c0,.5,.4,.8,.8,.7m4.5,-.2c.4,-.1,.8,-.4,.7,-.9c0,-.4,-.4,-.7,-.8,-.7c-.4,.1,-.7,.4,-.7,.8c0,.5,.4,.8,.8,.8Z" class="g6_651"/>
<path d="M222.7,377.1c.4,0,.8,-.3,.8,-.7c0,-.4,-.4,-.8,-.8,-.8c-.4,0,-.7,.4,-.7,.8c0,.4,.3,.7,.7,.7m131,-8.5c.4,0,.8,-.4,.8,-.8c0,-.4,-.4,-.8,-.8,-.8c-.4,0,-.8,.4,-.8,.8c0,.4,.4,.8,.8,.8Z" class="g6_651"/>
<image clip-path="url(#cp_651)" preserveAspectRatio="none" x="347" y="357" width="263" height="50" xlink:href="img/26.jpg"/>
<image clip-path="url(#cq_651)" preserveAspectRatio="none" x="348" y="367" width="2" height="2" xlink:href="img/27.jpg"/>
<image clip-path="url(#cr_651)" preserveAspectRatio="none" x="352" y="367" width="3" height="2" xlink:href="img/28.jpg"/>
<path d="M353,362.8v27.5H593.9V362.8H353Z" class="g1_651"/>
<path d="M353,362.8v27.5H593.9V362.8H353Z" class="g3_651"/>
<path d="M212.7,238.7c4.2,.8,7.9,2.9,11.6,4.9c2.4,1.3,3,3.2,4.7,5.3c2.1,2.5,4,4.8,5,8c.7,2.6,.1,5.4,.6,8.1c.8,4.2,1,7.7,.2,11.9c-.2,1.1,-1,3.6,-.4,4.5c.9,-1.3,1.6,-2.7,2.7,-4c1.5,-1.8,3.2,-3.1,4.5,-5.1c-.7,1.6,-1.2,3.1,-2.2,4.4c-1.3,1.7,-2.2,3.8,-3.6,5.4c-1.3,-.3,-2,-1.6,-3,-2.3c-1.8,-1.5,-4.3,-2.8,-6.4,-3.9" class="g7_651"/>
<path d="M676.4,230c4.7,3.3,9.1,5.7,11.1,11.5c.9,2.7,1.6,5.6,2.3,8.4c.9,3.5,.6,6.5,.4,10c-.1,2.6,.4,4.9,.6,7.4c.2,2.4,-.1,4.7,-.4,7c-.3,2.3,-.7,3.7,-1.5,5.8c-1.1,-.6,-1.6,-2.5,-2.1,-3.6c-.9,-2.2,-2.1,-4.5,-3.5,-6.3c-.2,1,.4,2.3,.8,3.2c1.1,2.5,2.6,5.9,4.5,7.8c1.7,-4,7.6,-3.3,11.1,-3.8M379.2,249c-5.5,-1,-11.1,-1.4,-16.5,-2.3c.2,-.4,.1,-.9,.3,-1.3c.4,-.8,1.5,-1.5,2.4,-1.7c-.9,.7,-2,1.3,-3,2c-.6,.3,-2.7,1,-3,1.8c-.9,2.1,4,2.9,5,3.2M541,246.3c1.5,-.7,3.1,-.2,4.7,0c1.7,.2,3.5,.3,5.3,.2c3,0,5.9,-.5,8.9,-.6c2.8,0,6,1.2,8.5,0c0,-.6,-.7,-1.1,-1.2,-1.5c-1.6,-1.2,-3.5,-1.9,-5,-3.2c2.3,1.3,5,2.8,6.7,5c-.4,.4,-.9,.9,-1.4,1.2c-.7,.6,-1.4,1.1,-2.1,1.6c.1,0,-2.1,1.3,-2.3,1.5M442,448c-.6,-2.5,-1.7,-4.9,-2,-7.5c-.2,-1.5,-.2,-2.9,-.1,-4.3c-.1,-1.8,-.7,-3.4,-.8,-5.1c-.4,-5.5,2.2,-9.3,4,-14.2c1.4,-3.7,4.1,-7.3,6.7,-10.4c.7,-.9,1.3,-2,2.2,-2.8c.7,-.7,2.2,-1,2.1,-2.3c-.7,-.7,-2,.4,-2.5,.7c-2.3,1.4,-4.6,2.5,-6.9,3.6c-1.2,.7,-2.3,1.3,-3.5,1.8c-1.4,.6,-2.9,1,-4.4,1.3c-.8,.5,-1.1,1.2,-1.4,2.1c1.8,1.4,4.6,-1,5.9,-2.1c1.7,-1.4,3.5,-2.6,5.4,-3.8c1.1,-.6,2.8,-2.1,4.2,-1.6c1.8,.6,1.2,2.8,1.2,4.3c0,1.7,-.1,3.4,-.1,5c.1,1.9,1.2,3.4,1.2,5.2" class="g5_651"/>
<path d="M158.5,520.2H273.4" class="g3_651"/>
<path d="M231.8,577.3c.4,-.1,.6,-.5,.5,-.9c-.1,-.4,-.6,-.6,-1,-.5c-.4,.1,-.6,.6,-.4,1c.1,.4,.5,.6,.9,.4m4.4,-1.4c.4,-.2,.6,-.6,.5,-1c-.1,-.4,-.6,-.6,-1,-.5c-.4,.1,-.6,.6,-.4,1c.1,.4,.5,.6,.9,.5m4.4,-1.5c.4,-.2,.6,-.6,.5,-1c-.1,-.4,-.6,-.6,-1,-.5c-.4,.1,-.6,.6,-.4,1c.1,.4,.5,.6,.9,.5m4.4,-1.5c.4,-.2,.6,-.6,.5,-1c-.1,-.4,-.6,-.6,-1,-.5c-.4,.2,-.6,.6,-.4,1c.1,.4,.5,.6,.9,.5m4.4,-1.5c.4,-.1,.6,-.6,.5,-1c-.1,-.4,-.6,-.6,-1,-.5c-.4,.2,-.6,.6,-.5,1c.2,.4,.6,.6,1,.5m4.4,-1.5c.4,-.1,.6,-.6,.5,-1c-.2,-.4,-.6,-.6,-1,-.4c-.4,.1,-.6,.5,-.5,.9c.2,.4,.6,.6,1,.5m4.4,-1.5c.4,-.1,.6,-.6,.5,-1c-.2,-.3,-.6,-.6,-1,-.4c-.4,.1,-.6,.5,-.5,.9c.2,.4,.6,.6,1,.5m4.4,-1.5c.4,-.1,.6,-.5,.5,-.9c-.2,-.4,-.6,-.7,-1,-.5c-.4,.1,-.6,.5,-.5,.9c.2,.4,.6,.7,1,.5m4.4,-1.5c.4,-.1,.6,-.5,.5,-.9c-.2,-.4,-.6,-.6,-1,-.5c-.4,.1,-.6,.6,-.5,1c.2,.4,.6,.6,1,.4m4.4,-1.4c.4,-.2,.6,-.6,.5,-1c-.2,-.4,-.6,-.6,-1,-.5c-.4,.1,-.6,.6,-.5,1c.2,.4,.6,.6,1,.5m4.4,-1.5c.4,-.2,.6,-.6,.5,-1c-.2,-.4,-.6,-.6,-1,-.5c-.4,.2,-.6,.6,-.5,1c.1,.4,.6,.6,1,.5m4.4,-1.5c.4,-.2,.6,-.6,.5,-1c-.2,-.4,-.6,-.6,-1,-.5c-.4,.2,-.6,.6,-.5,1c.1,.4,.6,.6,1,.5m4.4,-1.5c.4,-.1,.6,-.6,.5,-1c-.2,-.4,-.6,-.6,-1,-.5c-.4,.2,-.6,.6,-.5,1c.1,.4,.6,.6,1,.5M289,558c.4,-.1,.6,-.6,.5,-1c-.2,-.4,-.6,-.6,-1,-.4c-.4,.1,-.6,.5,-.5,.9c.1,.4,.6,.6,1,.5m4.4,-1.5c.4,-.1,.6,-.5,.5,-.9c-.2,-.4,-.6,-.7,-1,-.5c-.4,.1,-.6,.5,-.5,.9c.1,.4,.6,.7,1,.5m4.4,-1.5c.4,-.1,.6,-.5,.4,-.9c-.1,-.4,-.5,-.6,-.9,-.5c-.4,.1,-.6,.6,-.5,1c.1,.4,.6,.6,1,.4m4.4,-1.5c.4,-.1,.6,-.5,.4,-.9c-.1,-.4,-.5,-.6,-.9,-.5c-.4,.1,-.6,.6,-.5,1c.1,.4,.6,.6,1,.4m4.4,-1.4c.4,-.2,.6,-.6,.4,-1c-.1,-.4,-.5,-.6,-.9,-.5c-.4,.2,-.6,.6,-.5,1c.1,.4,.6,.6,1,.5m4.4,-1.5c.4,-.2,.6,-.6,.4,-1c-.1,-.4,-.5,-.6,-.9,-.5c-.4,.2,-.7,.6,-.5,1c.1,.4,.6,.6,1,.5Z" class="g6_651"/>
<path d="M227.2,578.9c.4,0,.7,-.4,.7,-.8c0,-.4,-.3,-.8,-.7,-.8c-.4,0,-.8,.4,-.8,.8c0,.4,.4,.8,.8,.8m87.9,-29.8c.4,0,.8,-.3,.8,-.7c0,-.5,-.4,-.8,-.8,-.8c-.4,0,-.8,.3,-.8,.8c0,.4,.4,.7,.8,.7Z" class="g6_651"/>
<image clip-path="url(#cs_651)" preserveAspectRatio="none" x="309" y="538" width="250" height="49" xlink:href="img/29.jpg"/>
<image clip-path="url(#ct_651)" preserveAspectRatio="none" x="310" y="549" width="2" height="2" xlink:href="img/30.jpg"/>
<image clip-path="url(#cu_651)" preserveAspectRatio="none" x="314" y="547" width="2" height="2" xlink:href="img/31.jpg"/>
<path d="M314.4,543.4v27.7h229V543.4h-229Z" class="g1_651"/>
<path d="M314.4,543.4v27.7h229V543.4h-229Z" class="g3_651"/>
<path d="M467.5,620.3c-2.3,0,-4.9,.3,-7.1,-.4c-2.8,-1.1,-4.3,-3.1,-5.7,-5.5c-1.3,-2.3,-2.7,-4.7,-3.5,-7.2c-.7,-2.5,-2,-4.6,-2.1,-7.2c0,-3.2,.3,-6.4,.1,-9.5c-.2,-2,-.5,-3.9,-.4,-6c-1.5,2.2,-3.1,4.4,-5,6.3c-.4,-1.8,2.1,-4.3,3.1,-5.6c.7,0,1,.7,1.5,1.1c1,1,2.1,1.7,3.3,2.5c.5,.4,1.4,1.4,2,1.6c.9,.4,2.2,.1,3.1,.1m94.7,53.6c3.9,0,7.8,0,11.7,0c2.1,0,4.3,.1,6.3,-.1c-1.6,.6,-3.2,1.1,-4.9,1.1c-1.5,0,-2.8,-.4,-4.2,-.4c-1,0,-2.2,-.2,-3.1,.2c-1,.4,-1.9,.3,-2.9,.3" class="g5_651"/>
<g clip-path="url(#cv_651)">
<path d="M-4.5,13.7H-27.4m939.5,0H935M-4.5,1031.2H-27.4m939.5,0H935M13.7,-4.5V-27.4m0,1077v22.9m880,-1077V-27.4m0,1077v22.9" class="g8_651"/>
<path d="M-4.5,13.7H-27.4m939.5,0H935M-4.5,1031.2H-27.4m939.5,0H935M13.7,-4.5V-27.4m0,1077v22.9m880,-1077V-27.4m0,1077v22.9" class="g9_651"/>
</g>
</svg>