<?xml version="1.0" encoding="UTF-8" standalone="no"?>
<!DOCTYPE svg PUBLIC "-//W3C//DTD SVG 1.1//EN"
"http://www.w3.org/Graphics/SVG/1.1/DTD/svg11.dtd">
<svg viewBox="0 0 909 1286" version="1.1" xmlns="http://www.w3.org/2000/svg" xmlns:xlink="http://www.w3.org/1999/xlink">
<defs>
<clipPath id="c0_487"><path d="M0,1286.2V-.1H910.6V1286.2Z"/></clipPath>
<style type="text/css"><![CDATA[
.g0_487{
fill: #FFFFFF;
}
.g1_487{
fill: none;
stroke: #0000FF;
stroke-width: 0.733;
stroke-linecap: butt;
stroke-linejoin: bevel;
stroke-miterlimit: 3;
}
]]></style>
</defs>
<g clip-path="url(#c0_487)">
<path fill-rule="evenodd" d="M0,0H909.5V1286.2H0V0Z" class="g0_487"/>
<path d="M65.1,92.4H241.4M65.1,121.3H227.5m-162.4,29H273.5M65.1,179.4h99.3m-99.3,29h84.6m-84.6,29H254.5M65.1,266.5H217.8m-152.7,29H323M65.1,353.6h48.6m-48.6,29H227.3m7.9,0h17.2m-187.3,29H180.2M72.4,440.7H243.8M72.4,469.6H211.1m-146,29.1H209.2M65.1,527.8H211.8M65.1,556.7H196.9M65.1,585.8H205.6M65.1,614.9H275.7M65.1,643.8H261.3m-196.2,29H251.5M65.1,701.9H215.4m-150.3,29H165.5m-100.4,29H245.8m7.7,0h17.2M65.1,789H167.8M65.1,818H176.3M65.1,847H191M65.1,876.1H263.2m-198.1,29H183m7.8,0h17.1m-142.8,29H172.6M65.1,963.2h97.7M65.1,992.1h99.3m7.9,0h17.1M65.1,1021.2H212.7M65.1,1141.4H195m-129.9,29H267.7" class="g1_487"/>
</g>
</svg>