<?xml version="1.0" encoding="UTF-8" standalone="no"?>
<!DOCTYPE svg PUBLIC "-//W3C//DTD SVG 1.1//EN"
"http://www.w3.org/Graphics/SVG/1.1/DTD/svg11.dtd">
<svg viewBox="0 0 931 1096" version="1.1" xmlns="http://www.w3.org/2000/svg" xmlns:xlink="http://www.w3.org/1999/xlink">
<defs>
<clipPath id="c0_84"><path d="M404.1,420.6v-18H706.6v18Z"/></clipPath>
<clipPath id="c1_84"><path d="M343.5,484.8V466.7H767.2v18.1Z"/></clipPath>
<clipPath id="c2_84"><path d="M430.6,608.5v-18H680.1v18Z"/></clipPath>
<clipPath id="c3_84"><path d="M53.5,739.3V576.8H219.2V739.3Z"/></clipPath>
<style type="text/css"><![CDATA[
.g0_84{
fill: none;
stroke: #00AEEF;
stroke-width: 1.145;
}
.g1_84{
fill: none;
stroke: #241F1F;
stroke-width: 0.763;
stroke-miterlimit: 10;
}
.g2_84{
fill: #D0007A;
}
.g3_84{
fill: none;
stroke: #0079C2;
stroke-width: 0.763;
}
.g4_84{
fill: none;
stroke: #EE008C;
stroke-width: 0.916;
stroke-linejoin: round;
}
.g5_84{
fill: #EE008C;
}
.g6_84{
fill: none;
stroke: #EE008C;
stroke-width: 0.763;
stroke-miterlimit: 3;
}
.g7_84{
fill: none;
stroke: #241F1F;
stroke-width: 0.611;
stroke-miterlimit: 3;
}
.g8_84{
fill: #241F1F;
}
]]></style>
</defs>
<path d="M307.7,144.5c0,0,-1.6,0,-1.6,1.5v14.1c0,0,0,1.6,1.6,1.6h14.1c0,0,1.5,0,1.5,-1.6V146c0,0,0,-1.5,-1.5,-1.5H307.7Z" class="g0_84"/>
<path d="M480.2,144.7H652.9M503.1,203.9H522m47.6,0h19m47.6,0h18.1m-161.8,-24H671.7" class="g1_84"/>
<path d="M307.7,315.6c0,0,-1.6,0,-1.6,1.5v14.2c0,0,0,1.5,1.6,1.5h14.1c0,0,1.5,0,1.5,-1.5V317.1c0,0,0,-1.5,-1.5,-1.5H307.7Z" class="g0_84"/>
<path clip-path="url(#c0_84)" d="M597.3,402.9H707" class="g1_84"/>
<path clip-path="url(#c1_84)" d="M594.9,467.1H767.6" class="g1_84"/>
<path clip-path="url(#c2_84)" d="M501.8,590.9H637.3m33.2,0h10" class="g1_84"/>
<path d="M591.9,668.8h10m57.9,0h10.1" class="g1_84"/>
<path d="M307.7,763.2c0,0,-1.6,0,-1.6,1.6v14.1c0,0,0,1.5,1.6,1.5h14.1c0,0,1.5,0,1.5,-1.5V764.8c0,0,0,-1.6,-1.5,-1.6H307.7Zm0,64.2c0,0,-1.6,0,-1.6,1.5v14.2c0,0,0,1.5,1.6,1.5h14.1c0,0,1.5,0,1.5,-1.5V828.9c0,0,0,-1.5,-1.5,-1.5H307.7Z" class="g0_84"/>
<path d="M288.8,972.7c0,0,-1.6,0,-1.6,1.6v9.1c0,0,0,1.5,1.6,1.5h9.1c0,0,1.6,0,1.6,-1.5v-9.1c0,0,0,-1.6,-1.6,-1.6Z" class="g2_84"/>
<path d="M377.8,129.7c0,0,-3.1,0,-3.1,3v99.5c0,0,0,3.1,3.1,3.1H729.3c0,0,3.1,0,3.1,-3.1V132.7c0,0,0,-3,-3.1,-3H377.8ZM463,296.6c0,0,-3,0,-3,3v53.6c0,0,0,3.1,3,3.1H649.6c0,0,3,0,3,-3.1V299.6c0,0,0,-3,-3,-3H463Z" class="g3_84"/>
<path d="M92,710.5c3.9,3,14.3,3.7,25.5,3.6c42.3,1.8,95.9,-21.4,93.7,-50.6C213.1,639,179.8,620.2,141.7,614m-3,-.5c-6.7,-.9,-13.6,-1.5,-20.4,-1.6c-19.5,.3,-48.1,4.8,-48.2,18.7c0,7,9.9,12.8,20.5,15" class="g4_84"/>
<path d="M90.1,710.5c0,-.9,.8,-1.6,1.6,-1.6c.9,0,1.7,.7,1.7,1.6c0,.9,-.8,1.6,-1.7,1.6c-.8,0,-1.6,-.7,-1.6,-1.6Z" class="g5_84"/>
<path d="M90.1,710.5c0,-.9,.8,-1.6,1.6,-1.6c.9,0,1.7,.7,1.7,1.6c0,.9,-.8,1.6,-1.7,1.6c-.8,0,-1.6,-.7,-1.6,-1.6Z" class="g6_84"/>
<path d="M89,645.8c0,-.9,.7,-1.6,1.6,-1.6c.9,0,1.6,.7,1.6,1.6c0,.8,-.7,1.6,-1.6,1.6c-.9,0,-1.6,-.8,-1.6,-1.6Z" class="g5_84"/>
<path d="M89,645.8c0,-.9,.7,-1.6,1.6,-1.6c.9,0,1.6,.7,1.6,1.6c0,.8,-.7,1.6,-1.6,1.6c-.9,0,-1.6,-.8,-1.6,-1.6Z" class="g6_84"/>
<path d="M140.3,687.7l74.5,34.5" class="g7_84"/>
<path clip-path="url(#c3_84)" fill-rule="evenodd" d="M214.8,722.2l-.4,-2.9l4.9,5l-7,-.6Z" class="g8_84"/>
<path d="M140.3,687.7V588.4" class="g7_84"/>
<path fill-rule="evenodd" d="M140.3,588.4l-2.5,1.6l2.5,-6.5l2.4,6.5Z" class="g8_84"/>
<path d="M140.3,687.7L65.8,722.2" class="g7_84"/>
<path fill-rule="evenodd" d="M65.8,722.2l2.5,1.5l-7,.6l4.9,-5Z" class="g8_84"/>
</svg>