<?xml version="1.0" encoding="UTF-8" standalone="no"?>
<!DOCTYPE svg PUBLIC "-//W3C//DTD SVG 1.1//EN"
"http://www.w3.org/Graphics/SVG/1.1/DTD/svg11.dtd">
<svg viewBox="0 0 811 1017" version="1.1" xmlns="http://www.w3.org/2000/svg" xmlns:xlink="http://www.w3.org/1999/xlink">
<defs>
<style type="text/css"><![CDATA[
.g0_124{
fill: #ECECD0;
}
.g1_124{
fill: #224867;
}
]]></style>
</defs>
<path d="M770.7,99.5l-3.9,.6l-3.8,.6l-3.9,.8l-3.8,.8C692.2,116.2,635.4,162,611.3,222.2l-1.4,3.9l-1.4,3.9l-1.2,3.9c-7.3,25.2,-7,53.2,7.8,75.7l1.8,2.7l1.9,2.5c13.7,16.9,33.5,23.5,54.7,20.9l4.2,-.6l2.1,-.5l2.1,-.4l2,-.6C726.6,322,759.6,270.7,748.1,227.1l-.6,-2.3l-.8,-2.3l-.9,-2.2c-7.5,-17.5,-23.1,-26.1,-41.8,-26h-1.6l-1.7,.1c-18,1,-31.2,11.2,-41.4,25.5l-.6,.8l-.6,.9l-1.2,1.9l-.5,1l-.6,1l-.4,1l-.4,.9l-.3,1l-.3,.9c-.5,2.2,-.2,4.9,2.4,5.5h1.4c2.2,-.7,4.8,-4.4,6.2,-6.1l.9,-1.1l.8,-1.2l2,-2.5c9,-11.2,19.7,-18.9,34.7,-14.7l1.4,.5l1.3,.6l1.3,.6l1.1,.8c11.8,7.9,12.5,25.9,11.1,38.4l-.5,3.4l-.5,3.4c-3.9,22.5,-15.4,51,-34.8,64.5l-2.8,1.9l-1.5,.8l-1.5,.8l-1.5,.7l-1.6,.6c-11.9,4.6,-26.4,3.3,-35.1,-7.1l-1,-1.2l-1,-1.4C626.9,301.3,630.1,278.9,632.7,262l.8,-4.1l.8,-4.1l1,-4.2l1,-4.1c7.9,-30.1,22.3,-61.9,42.6,-85.6l2.6,-3l2.6,-2.9C703.8,133,727,120.9,754,111.6l3.6,-1.2l3.6,-1.2l7.4,-2.4l3.8,-1.2Z" class="g0_124"/>
<path d="M220.3,283.9H724.4v-.4H220.3v.4Z" class="g1_124"/>
<path d="M119.4,594.1H490.7v-113H119.4v113Z" class="g0_124"/>
<image preserveAspectRatio="none" x="203" y="990" width="405" height="28" xlink:href="img/1.jpg"/>
</svg>