<?xml version="1.0" encoding="UTF-8" standalone="no"?>
<!DOCTYPE svg PUBLIC "-//W3C//DTD SVG 1.1//EN"
"http://www.w3.org/Graphics/SVG/1.1/DTD/svg11.dtd">
<svg viewBox="0 0 811 1017" version="1.1" xmlns="http://www.w3.org/2000/svg" xmlns:xlink="http://www.w3.org/1999/xlink">
<defs>
<style type="text/css"><![CDATA[
.g0_102{
fill: #224867;
}
.g1_102{
fill: #000;
}
]]></style>
</defs>
<path d="M156.1,300.8H724.4V279.6H156.1v21.2Z" class="g0_102"/>
<path d="M573.3,340.5v3.3l-.2,-.2l-6.3,-2.9l-.4,-.2l.4,-.1l6.3,-3l.2,-.1v.3l-.1,.1l-6.3,3l-.1,-.3h.1l6.3,2.9l-.1,.3l-.1,-.1v-3Z" class="g1_102"/>
<path d="M573,340.5h.3v-2.9H573v2.9Z" class="g1_102"/>
<path d="M573.3,340.7h42v-.3h-42v.3Z" class="g1_102"/>
<path d="M614.9,368.3h.4V340.5h-.4v27.8Z" class="g1_102"/>
<path d="M515.3,386.4v3.2l-.3,-.2l-6.2,-2.9l-.5,-.1l.5,-.2l6.2,-2.9l.3,-.2v.3l-.1,.2l-6.3,2.9l-.1,-.3h.1l6.3,2.9l-.2,.3l-.1,-.1v-2.9Z" class="g1_102"/>
<path d="M514.9,386.4h.4v-3h-.4v3Z" class="g1_102"/>
<path d="M515.3,386.6h41.9v-.4H515.3v.4Z" class="g1_102"/>
<path d="M556.9,421.3h.3V386.4h-.3v34.9Z" class="g1_102"/>
<path d="M458.7,462.8V466l-.3,-.1l-6.3,-3l-.4,-.1l.4,-.2l6.3,-2.9l.3,-.2v.3l-.1,.2l-6.3,2.9l-.2,-.3h.2l6.3,2.9l-.2,.4l-.1,-.2v-2.9Z" class="g1_102"/>
<path d="M458.3,462.8h.4v-3h-.4v3Z" class="g1_102"/>
<path d="M458.7,463h64.2v-.4H458.7v.4Z" class="g1_102"/>
<path d="M522.5,490.6h.4V462.8h-.4v27.8Z" class="g1_102"/>
<image preserveAspectRatio="none" x="203" y="990" width="405" height="28" xlink:href="img/1.jpg"/>
</svg>