<?xml version="1.0" encoding="UTF-8" standalone="no"?>
<!DOCTYPE svg PUBLIC "-//W3C//DTD SVG 1.1//EN"
"http://www.w3.org/Graphics/SVG/1.1/DTD/svg11.dtd">
<svg viewBox="0 0 931 1096" version="1.1" xmlns="http://www.w3.org/2000/svg" xmlns:xlink="http://www.w3.org/1999/xlink">
<defs>
<clipPath id="c0_236"><path d="M658.2,231.3v-17h60.1v17Z"/></clipPath>
<clipPath id="c1_236"><path d="M641.1,249.6V232.7h47.4v16.9Z"/></clipPath>
<clipPath id="c2_236"><path d="M718.2,249.6V232.7h60.1v16.9Z"/></clipPath>
<clipPath id="c3_236"><path d="M470.5,362.7v-17h60.1v17Z"/></clipPath>
<clipPath id="c4_236"><path d="M548.5,363.8V343.5H734.1v20.3Z"/></clipPath>
<clipPath id="c5_236"><path d="M401.9,642.6V562.1h307v80.5Z"/></clipPath>
<clipPath id="c6_236"><path d="M415.6,885.1V849.3H695.2v35.8Z"/></clipPath>
<clipPath id="c7_236"><path d="M620,978.4v-42H778.7v42Z"/></clipPath>
<clipPath id="c8_236"><path d="M437.5,1043.6v-39.4H674.7v39.4Z"/></clipPath>
<style type="text/css"><![CDATA[
.g0_236{
fill: none;
stroke: #241F1F;
stroke-width: 0.763;
stroke-miterlimit: 10;
}
.g1_236{
fill: none;
stroke: #241F1F;
stroke-width: 0.534;
stroke-miterlimit: 10;
}
.g2_236{
fill: #241F1F;
}
.g3_236{
fill: none;
stroke: #F9951B;
stroke-width: 0.916;
stroke-linejoin: round;
}
.g4_236{
fill: #EE008C;
}
.g5_236{
fill: none;
stroke: #EE008C;
stroke-width: 0.763;
stroke-miterlimit: 3;
}
.g6_236{
fill: none;
stroke: #EE008C;
stroke-width: 0.916;
stroke-linejoin: round;
}
.g7_236{
fill: none;
stroke: #241F1F;
stroke-width: 0.611;
stroke-miterlimit: 3;
}
.g8_236{
fill: #00AEEF;
}
.g9_236{
fill: none;
stroke: #00AEEF;
stroke-width: 0.763;
stroke-miterlimit: 3;
}
]]></style>
</defs>
<path clip-path="url(#c0_236)" d="M708.6,214.7h10.1" class="g0_236"/>
<path clip-path="url(#c1_236)" d="M678.9,233h10" class="g0_236"/>
<path clip-path="url(#c2_236)" d="M768.7,233h10" class="g0_236"/>
<path d="M429.4,307.4h20.5m21.8,0h39.2m21.8,0h52.1m21.9,0h12.2m40.4,0h12.2" class="g0_236"/>
<path clip-path="url(#c3_236)" d="M521,346.1h10" class="g0_236"/>
<path d="M662,346.1h10" class="g0_236"/>
<path clip-path="url(#c4_236)" d="M724.5,346.1h10" class="g0_236"/>
<path d="M446.8,399.6h10m187.3,0h10M402.2,605.4h27.4M453.8,584h16.4m14.4,0h19.7m-52.8,21.4h65.6m-42.6,21.4h19.7M541.3,584h12.2m43.9,0h14.9M539,605.4h86.2" class="g0_236"/>
<path clip-path="url(#c5_236)" d="M647,605.4h62.2" class="g0_236"/>
<path clip-path="url(#c6_236)" d="M416,866.6h20.4m21.9,0h43.3m21.9,0h84.3m21.9,0h65.8" class="g0_236"/>
<path d="M378.7,958.3h14.8m43.5,0h14.7m49.7,0h14.8m35.5,-19.4h10m-23.6,19.4H564m155.7,0h14.7" class="g0_236"/>
<path clip-path="url(#c7_236)" d="M766.9,958.3h12.2" class="g0_236"/>
<path d="M437.9,1024h20.5m21.9,0h89.9m35.6,-19.4h10M592.1,1024h39.8" class="g0_236"/>
<path d="M623.8,1034.6h5.3" class="g1_236"/>
<path clip-path="url(#c8_236)" d="M665.1,1015.3h10" class="g0_236"/>
<path fill-rule="evenodd" d="M252.3,541.5l-1.7,-2.4l6.5,2.4l-6.5,2.4Z" class="g2_236"/>
<path fill-rule="evenodd" d="M81,438l-2.5,1.6L81,433.1l2.4,6.5Z" class="g2_236"/>
<path d="M142.1,605.6l89.1,-150m1.1,176.1l-91,-155.2m-41.8,131h32.1M99.5,477.3h32.1" class="g3_236"/>
<path d="M113.6,477.5c0,-1,.7,-1.7,1.7,-1.7c.9,0,1.7,.7,1.7,1.7c0,.9,-.8,1.7,-1.7,1.7c-1,0,-1.7,-.8,-1.7,-1.7Z" class="g4_236"/>
<path d="M113.6,477.5c0,-1,.7,-1.7,1.7,-1.7c.9,0,1.7,.7,1.7,1.7c0,.9,-.8,1.7,-1.7,1.7c-1,0,-1.7,-.8,-1.7,-1.7Z" class="g5_236"/>
<path d="M113.6,607.4c0,-1,.7,-1.8,1.7,-1.8c.9,0,1.7,.8,1.7,1.8c0,.9,-.8,1.7,-1.7,1.7c-1,0,-1.7,-.8,-1.7,-1.7Z" class="g4_236"/>
<path d="M113.6,607.4c0,-1,.7,-1.8,1.7,-1.8c.9,0,1.7,.8,1.7,1.8c0,.9,-.8,1.7,-1.7,1.7c-1,0,-1.7,-.8,-1.7,-1.7Z" class="g5_236"/>
<path d="M213.8,479.3c-24,47.8,-65,125.1,-96.6,128.1C82.8,610.4,81,541.5,81,541.5c0,0,1.8,-67.1,36.2,-64c31.6,2.9,72.6,80.2,96.6,127.9" class="g6_236"/>
<path d="M53.5,541.5H252.3M81,651.7V438" class="g7_236"/>
<path d="M150.1,500.2l8.1,5.2l-3.8,.1l-.9,3.7Z" class="g8_236"/>
<path d="M177.7,541.4c0,-.9,.7,-1.7,1.7,-1.7c.9,0,1.7,.8,1.7,1.7c0,1,-.8,1.8,-1.7,1.8c-1,0,-1.7,-.8,-1.7,-1.8Z" class="g8_236"/>
<path d="M177.7,541.4c0,-.9,.7,-1.7,1.7,-1.7c.9,0,1.7,.8,1.7,1.7c0,1,-.8,1.8,-1.7,1.8c-1,0,-1.7,-.8,-1.7,-1.8Z" class="g9_236"/>
<path d="M203.2,498.8l-1.4,9.6L200.1,505l-3.7,.7Z" class="g8_236"/>
<path d="M195.5,570.3l7.1,6.5l-3.8,-.5l-1.6,3.5Z" class="g8_236"/>
<path d="M90.2,588l-5.8,-7.7l3.6,1.2l2.2,-3.2Z" class="g8_236"/>
<path d="M162.6,568.1l-2.9,9.2l-1.1,-3.7l-3.9,.1Z" class="g8_236"/>
<path d="M85,514.8l-1.3,-9.5l2.6,2.7l3.4,-1.7Z" class="g8_236"/>
</svg>