<?xml version="1.0" encoding="UTF-8" standalone="no"?>
<!DOCTYPE svg PUBLIC "-//W3C//DTD SVG 1.1//EN"
"http://www.w3.org/Graphics/SVG/1.1/DTD/svg11.dtd">
<svg viewBox="0 0 931 1096" version="1.1" xmlns="http://www.w3.org/2000/svg" xmlns:xlink="http://www.w3.org/1999/xlink">
<defs>
<clipPath id="c0_427"><path d="M451.7,542V524.8h100V542Z"/></clipPath>
<clipPath id="c1_427"><path d="M556.7,586.6V569.1H662.5v17.5Z"/></clipPath>
<style type="text/css"><![CDATA[
.g0_427{
fill: none;
stroke: #241F1F;
stroke-width: 0.763;
stroke-miterlimit: 10;
}
.g1_427{
fill: none;
stroke: #00AEEF;
stroke-width: 1.145;
}
.g2_427{
fill: none;
stroke: #EE008C;
stroke-width: 0.916;
stroke-linejoin: round;
}
.g3_427{
fill: none;
stroke: #00AEEF;
stroke-width: 0.916;
stroke-linejoin: round;
}
.g4_427{
fill: none;
stroke: #241F1F;
stroke-width: 0.611;
stroke-miterlimit: 3;
}
.g5_427{
fill: #241F1F;
}
]]></style>
</defs>
<path d="M574.2,245.1H678.9M545.6,391.8h23.5m148.3,99.8h42.2" class="g0_427"/>
<path clip-path="url(#c0_427)" d="M509.9,525.2h42.2" class="g0_427"/>
<path clip-path="url(#c1_427)" d="M618.1,569.5h44.8" class="g0_427"/>
<path d="M359.6,237.6c0,0,-1.5,0,-1.5,1.6v14.1c0,0,0,1.5,1.5,1.5h14.1c0,0,1.6,0,1.6,-1.5V239.2c0,0,0,-1.6,-1.6,-1.6H359.6Zm0,145.2c0,0,-1.5,0,-1.5,1.5v14.1c0,0,0,1.6,1.5,1.6h14.1c0,0,1.6,0,1.6,-1.6V384.3c0,0,0,-1.5,-1.6,-1.5H359.6Z" class="g1_427"/>
<path d="M130.5,658.4c57.3,0,58.6,-41.2,82.3,-41.2c16.7,0,21.9,21.2,34.4,21.2c11,0,17.1,-16.2,25.9,-16.2c2,0,4,.2,5.9,1.1" class="g2_427"/>
<path d="M130.5,658.4c28.7,0,44,-59,58.9,-59c18.2,0,30.3,116.9,42.7,116.9c14,0,16.8,-116.9,29.5,-116.9c5.7,0,11.3,39.8,17.4,92.4" class="g3_427"/>
<path d="M130.4,722.4V585" class="g4_427"/>
<path fill-rule="evenodd" d="M130.4,585l-2.4,1.6l2.4,-6.5l2.5,6.5Z" class="g5_427"/>
<path d="M108.5,658.3H279.6" class="g4_427"/>
<path fill-rule="evenodd" d="M279.6,658.3l-1.7,-2.5l6.5,2.5l-6.5,2.4Z" class="g5_427"/>
<path d="M189.1,655.1V662M127.4,599.6h6.1" class="g4_427"/>
<path d="M112.1,940.9c.3,.8,.8,2.8,2.1,2.8c2.3,0,1.2,-7.2,3.2,-7.1c2.7,.1,2.5,8.5,4.8,8.5c2.3,0,1.9,-9.3,4.2,-9.3c2.1,0,2.1,10.2,5,10.2c2.5,0,1.7,-10.8,4.6,-10.8c2.6,0,3.4,12,5.9,12c2.5,0,3.5,-13.3,6.5,-13.3c3,0,3.2,15.2,6.7,15.2c2.8,0,4.7,-18.7,8.2,-18.7c4,0,5.3,26,10.6,26c5.8,0,6.6,-52.1,24.9,-52.1c18.2,0,19.1,-52.1,24.9,-52.1c5.3,0,6.6,26,10.6,26c3.5,0,5.4,-18.6,8.2,-18.6c3.4,0,3.7,15.1,6.7,15.1c3,0,4,-13.3,6.5,-13.3c2.4,0,3.2,12,5.9,12c2.8,0,2.1,-10.8,4.6,-10.8c2.8,0,2.8,10.2,4.9,10.2c2.3,0,1.9,-9.3,4.2,-9.3c2.3,0,2.1,8.4,4.8,8.5c2.1,.1,1,-7.1,3.2,-7.1c1.4,0,1.9,2,2.2,2.8" class="g2_427"/>
<path d="M198.8,965.4V838.6" class="g4_427"/>
<path fill-rule="evenodd" d="M198.8,838.6l-2.5,1.7l2.5,-6.6l2.4,6.6Z" class="g5_427"/>
<path d="M108.5,904.3H289.1" class="g4_427"/>
<path fill-rule="evenodd" d="M289.1,904.3l-1.7,-2.4l6.6,2.4l-6.6,2.5Z" class="g5_427"/>
<path d="M195.7,867.7h6.1m15.3,33.6v6.1" class="g4_427"/>
</svg>