<?xml version="1.0" encoding="UTF-8" standalone="no"?>
<!DOCTYPE svg PUBLIC "-//W3C//DTD SVG 1.1//EN"
"http://www.w3.org/Graphics/SVG/1.1/DTD/svg11.dtd">
<svg viewBox="0 0 770 1017" version="1.1" xmlns="http://www.w3.org/2000/svg" xmlns:xlink="http://www.w3.org/1999/xlink">
<defs>
<style type="text/css"><![CDATA[
.g0_86{
fill: none;
stroke: #000000;
stroke-width: 0.618;
stroke-linecap: butt;
stroke-linejoin: miter;
}
]]></style>
</defs>
<path d="M56,69.2H695.2M285,224.3H594.1M285,242.9V224.6m156.8,18.3V224.6m152.3,18.3V224.6M285,261.1V242.9m156.8,18.2V242.9m152.3,18.2V242.9M285,261.4H594.1M285,280V261.7M441.8,280V261.7M594.1,280V261.7M285,298.3V280m156.8,18.3V280m152.3,18.3V280M285,316.5V298.3m156.8,18.2V298.3m152.3,18.2V298.3M285,334.8V316.5m156.8,18.3V316.5m152.3,18.3V316.5M285,353.1V334.8m156.8,18.3V334.8m152.3,18.3V334.8M285,371.3V353.1m156.8,18.2V353.1m152.3,18.2V353.1M285,389.6V371.3m156.8,18.3V371.3m152.3,18.3V371.3M285,389.9H594.1" class="g0_86"/>
</svg>