<?xml version="1.0" encoding="UTF-8" standalone="no"?>
<!DOCTYPE svg PUBLIC "-//W3C//DTD SVG 1.1//EN"
"http://www.w3.org/Graphics/SVG/1.1/DTD/svg11.dtd">
<svg viewBox="0 0 931 1096" version="1.1" xmlns="http://www.w3.org/2000/svg" xmlns:xlink="http://www.w3.org/1999/xlink">
<defs>
<clipPath id="c0_231"><path d="M711.8,349.9c-3.4,0,-6.2,-2.7,-6.2,-6.1V236.9c0,-3.4,2.8,-6.1,6.2,-6.1H818.7c3.4,0,6.1,2.7,6.1,6.1V343.8c0,3.4,-2.7,6.1,-6.1,6.1Z"/></clipPath>
<clipPath id="c1_231"><path d="M115.9,217c-3.3,0,-6.1,-2.7,-6.1,-6.1v-107c0,-3.3,2.8,-6.1,6.1,-6.1h107c3.3,0,6.1,2.8,6.1,6.1v107c0,3.4,-2.8,6.1,-6.1,6.1Z"/></clipPath>
<clipPath id="c2_231"><path d="M314.5,217c-3.3,0,-6.1,-2.7,-6.1,-6.1v-107c0,-3.3,2.8,-6.1,6.1,-6.1h107c3.4,0,6.1,2.8,6.1,6.1v107c0,3.4,-2.7,6.1,-6.1,6.1Z"/></clipPath>
<clipPath id="c3_231"><path d="M115.9,349.9c-3.3,0,-6.1,-2.7,-6.1,-6.1V236.9c0,-3.4,2.8,-6.1,6.1,-6.1h107c3.3,0,6.1,2.7,6.1,6.1V343.8c0,3.4,-2.8,6.1,-6.1,6.1Z"/></clipPath>
<clipPath id="c4_231"><path d="M513.2,217c-3.4,0,-6.2,-2.7,-6.2,-6.1v-107c0,-3.3,2.8,-6.1,6.2,-6.1H620.1c3.4,0,6.1,2.8,6.1,6.1v107c0,3.4,-2.7,6.1,-6.1,6.1Z"/></clipPath>
<clipPath id="c5_231"><path d="M711.8,217c-3.4,0,-6.2,-2.7,-6.2,-6.1v-107c0,-3.3,2.8,-6.1,6.2,-6.1H818.7c3.4,0,6.1,2.8,6.1,6.1v107c0,3.4,-2.7,6.1,-6.1,6.1Z"/></clipPath>
<clipPath id="c6_231"><path d="M513.2,349.9c-3.4,0,-6.2,-2.7,-6.2,-6.1V236.9c0,-3.4,2.8,-6.1,6.2,-6.1H620.1c3.4,0,6.1,2.7,6.1,6.1V343.8c0,3.4,-2.7,6.1,-6.1,6.1Z"/></clipPath>
<clipPath id="c7_231"><path d="M314.5,349.9c-3.3,0,-6.1,-2.7,-6.1,-6.1V236.9c0,-3.4,2.8,-6.1,6.1,-6.1h107c3.4,0,6.1,2.7,6.1,6.1V343.8c0,3.4,-2.7,6.1,-6.1,6.1Z"/></clipPath>
<clipPath id="c8_231"><path d="M107,661.8V628.2H880v33.6Z"/></clipPath>
<clipPath id="c9_231"><path d="M537,689.3V673.5h44.3v15.8Z"/></clipPath>
<clipPath id="ca_231"><path d="M537,981.1V965.3h66.8v15.8Z"/></clipPath>
<clipPath id="cb_231"><path d="M621,981.3v-16h66.7v16Z"/></clipPath>
<style type="text/css"><![CDATA[
.g0_231{
fill: none;
stroke: #EE008C;
stroke-width: 0.916;
stroke-miterlimit: 3;
}
.g1_231{
fill: none;
stroke: #241F1F;
stroke-width: 0.534;
stroke-miterlimit: 3;
}
.g2_231{
fill: none;
stroke: #241F1F;
stroke-width: 0.763;
stroke-miterlimit: 3;
stroke-dasharray: 9,4;
}
.g3_231{
fill: none;
stroke: #00AEEF;
stroke-width: 0.534;
stroke-miterlimit: 3;
}
.g4_231{
fill: none;
stroke: #00AEEF;
stroke-width: 0.763;
stroke-miterlimit: 10;
}
.g5_231{
fill: none;
stroke: #241F1F;
stroke-width: 0.687;
stroke-miterlimit: 10;
}
.g6_231{
fill: none;
stroke: #241F1F;
stroke-width: 0.481;
stroke-miterlimit: 10;
}
]]></style>
</defs>
<g clip-path="url(#c0_231)">
<path d="M803,230.8l1.1,9l1.5,10.2l1.1,8.4l1.2,7.3l.9,6.7l.6,6.1l.3,6l.2,5.8l-.2,5.9l-.3,6l-.6,6.2l-.9,6.7l-1.2,7.2l-1.1,8.4L804.1,341l-1.1,8.9M789.4,230.8v1.5l-1.9,19.4l-1.4,11.7l-1.5,7.7l-1.3,5.6l-1.2,3.9l-.9,3.2l-.6,2.4l-.3,2.2l-.2,2.1l.2,1.8l.3,2.3l.6,2.4l.9,3.1l1.2,4l1.3,5.6l1.5,7.6l1.4,11.7l1.9,19.4v1.5" class="g0_231"/>
<path d="M765.2,349.9V230.8m-1.3,89.3h2.7m-2.7,-59.6h2.7m-61,29.8H824.8m-89.4,1.4V289m59.6,2.7V289" class="g1_231"/>
<path d="M794.9,351.3V229.7" class="g2_231"/>
</g>
<path d="M711.8,230.8H818.7c3.4,0,6.1,2.7,6.1,6.1V343.8c0,3.4,-2.7,6.1,-6.1,6.1H711.8c-3.4,0,-6.2,-2.7,-6.2,-6.1V236.9c0,-3.4,2.8,-6.1,6.2,-6.1Z" class="g3_231"/>
<g clip-path="url(#c1_231)">
<path d="M169.4,217V97.8m-1.3,89.4h2.6m-2.6,-59.6h2.6m-60.9,29.8H229m-89.4,1.4v-2.7m59.6,2.7v-2.7" class="g1_231"/>
<path d="M131.6,97.9l-1.1,9L129,117.1l-1.1,8.4l-1.1,7.2l-1,6.8l-.5,6.1l-.4,6l-.2,5.8l.2,5.9l.4,6l.5,6.1l1,6.7l1.1,7.3l1.1,8.4l1.5,10.3l1.1,8.9M145.2,97.9v1.5l1.9,19.4l1.5,11.7l1.5,7.7l1.3,5.5l1.1,4l.9,3.1l.6,2.5l.4,2.2l.1,2l-.1,1.9l-.4,2.2l-.6,2.5l-.9,3.1l-1.1,4l-1.3,5.5l-1.5,7.7l-1.5,11.7l-1.9,19.4V217" class="g0_231"/>
<path d="M139.7,218.4V96.8" class="g2_231"/>
</g>
<path d="M115.9,97.8h107c3.3,0,6.1,2.8,6.1,6.1v107c0,3.4,-2.8,6.1,-6.1,6.1h-107c-3.3,0,-6.1,-2.7,-6.1,-6.1v-107c0,-3.3,2.8,-6.1,6.1,-6.1Z" class="g3_231"/>
<g clip-path="url(#c2_231)">
<path d="M368,217V97.8m-1.3,89.4h2.7m-2.7,-59.6h2.7m-61,29.8H427.6m-89.4,1.4v-2.7m59.6,2.7v-2.7" class="g1_231"/>
<path d="M356.3,97.9l.6,18.5l1.9,19l1.8,9.1l1.5,5.4l1.5,3.2l1.3,2l1.1,1.1l.8,.8l.7,.4h.4l.2,.1h-.6l-.7,.4l-.8,.8l-1.1,1.1l-1.3,2l-1.5,3.2l-1.5,5.4l-1.8,9.1l-1.9,19l-.6,18.5m-8,-119.1l-.9,9.9l-1.7,11l-1.7,7.4l-1.5,5.8l-1.3,5l-.9,4.5l-.9,4.1l-.6,3.9l-.4,4.1l-.1,3.8l.1,3.9l.4,4.1l.6,3.9l.9,4.1l.9,4.5l1.3,5l1.5,5.8l1.7,7.4l1.7,11l.9,9.9" class="g0_231"/>
<path d="M353.2,218.4V96.8" class="g2_231"/>
</g>
<path d="M314.5,97.8h107c3.4,0,6.1,2.8,6.1,6.1v107c0,3.4,-2.7,6.1,-6.1,6.1h-107c-3.3,0,-6.1,-2.7,-6.1,-6.1v-107c0,-3.3,2.8,-6.1,6.1,-6.1Z" class="g3_231"/>
<g clip-path="url(#c3_231)">
<path d="M169.4,349.9V230.8m-1.3,89.3h2.6m-2.6,-59.6h2.6m-60.9,29.8H229m-89.4,1.4V289m59.6,2.7V289" class="g1_231"/>
<path d="M154.5,290.1v2.1l.4,1.9l.7,1.8l.8,1.7l1.1,1.7l1.3,1.5l1.5,1.3l1.7,1.1l1.6,.7l1.9,.8l1.9,.3h3.9l1.8,-.3l1.9,-.8l1.7,-.7l1.7,-1.1l1.4,-1.3l1.4,-1.5l1.1,-1.7l.7,-1.7l.8,-1.8l.3,-1.9v-3.9l-.3,-1.9l-.8,-1.9l-.7,-1.6l-1.1,-1.7l-1.4,-1.5l-1.4,-1.3l-1.7,-1.1l-1.7,-.8l-1.9,-.7l-1.8,-.4h-3.9l-1.9,.4l-1.9,.7l-1.6,.8l-1.7,1.1l-1.5,1.3l-1.3,1.5l-1.1,1.7l-.8,1.6l-.7,1.9l-.4,1.9v1.8Z" class="g0_231"/>
</g>
<path d="M115.9,230.8h107c3.3,0,6.1,2.7,6.1,6.1V343.8c0,3.4,-2.8,6.1,-6.1,6.1h-107c-3.3,0,-6.1,-2.7,-6.1,-6.1V236.9c0,-3.4,2.8,-6.1,6.1,-6.1Z" class="g3_231"/>
<g clip-path="url(#c4_231)">
<path d="M566.6,217V97.8m-1.3,89.4H568m-2.7,-59.6H568m-61,29.8H626.2m-89.4,1.4v-2.7m59.6,2.7v-2.7" class="g1_231"/>
<path d="M556.4,97.9l-1.1,17.5l-1.8,10.3l-1.7,5.9l-1.7,4.3l-1.5,3.6l-1.3,3.1l-1.1,3.2l-.8,2.8l-.5,3l-.6,3v5.7l.6,3l.5,3l.8,2.8l1.1,3.2l1.3,3.1l1.5,3.6l1.7,4.3l1.7,5.9l1.8,10.3l1.1,17.5M560.7,97.9l.4,17.9l1.9,28.3l1.8,9.2l1.9,4.2l1.5,2.1l1.5,.9l1.3,.2l1.1,-.2l.7,-.3l.8,-1l.4,-.7v-2.1l-.4,-.7l-.8,-1l-.7,-.3l-1.1,-.2l-1.3,.2l-1.5,.9l-1.5,2.1l-1.9,4.2l-1.8,9.2l-1.9,28.3l-.4,17.9" class="g0_231"/>
<path d="M559.3,218.4V96.8" class="g2_231"/>
</g>
<path d="M513.2,97.8H620.1c3.4,0,6.1,2.8,6.1,6.1v107c0,3.4,-2.7,6.1,-6.1,6.1H513.2c-3.4,0,-6.2,-2.7,-6.2,-6.1v-107c0,-3.3,2.8,-6.1,6.2,-6.1Z" class="g3_231"/>
<g clip-path="url(#c5_231)">
<path d="M765.2,217V97.8m-1.3,89.4h2.7m-2.7,-59.6h2.7m-61,29.8H824.8m-89.4,1.4v-2.7m59.6,2.7v-2.7" class="g1_231"/>
<path d="M762.9,97.9l.3,29.1l1,22.5l1.8,11.2l1.9,3.4l1.7,1.1l1.7,.2l1.5,-.4l1.2,-.7l1.2,-1.2l.7,-1.3l.8,-1.3L777,159v-3.1l-.3,-1.5l-.8,-1.3l-.7,-1.3L774,150.7l-1.2,-.8l-1.5,-.4l-1.7,.2l-1.7,1.1l-1.9,3.4l-1.8,11.2l-1,22.5l-.3,29.1M761.2,97.9l-.9,22.2L758.4,132l-1.9,4.5l-1.6,3l-1.7,2.2l-1.5,2.2l-1.3,2.3l-1.1,2l-.8,2.3l-.7,2.4l-.4,2.2v4.7l.4,2.2l.7,2.4l.8,2.3l1.1,2l1.3,2.3l1.5,2.2l1.7,2.2l1.6,3l1.9,4.5l1.9,11.9l.9,22.2" class="g0_231"/>
<path d="M762,218.4V96.8" class="g2_231"/>
</g>
<path d="M711.8,97.8H818.7c3.4,0,6.1,2.8,6.1,6.1v107c0,3.4,-2.7,6.1,-6.1,6.1H711.8c-3.4,0,-6.2,-2.7,-6.2,-6.1v-107c0,-3.3,2.8,-6.1,6.2,-6.1Z" class="g3_231"/>
<g clip-path="url(#c6_231)">
<path d="M566.6,349.9V230.8m-1.3,89.3H568m-2.7,-59.6H568m-61,29.8H626.2m-89.4,1.4V289m59.6,2.7V289" class="g1_231"/>
<path d="M578.3,230.8l-.6,18.5l-1.8,19l-1.9,9.1l-1.5,5.4L571,286l-1.3,2l-1.1,1.2l-.7,.7l-.8,.4h-.3l-.2,.2h.5l.8,.3l.7,.8l1.1,1.1l1.3,2.1l1.5,3.1l1.5,5.4l1.9,9.2l1.8,19l.6,18.4m8,-119.1l1,9.9l1.6,11l1.7,7.4l1.5,5.8l1.3,5.1l.9,4.4l1,4.1l.5,3.9l.4,4.1l.2,3.8l-.2,3.9l-.4,4.1l-.5,3.9l-1,4.1l-.9,4.5l-1.3,5l-1.5,5.8l-1.7,7.4l-1.6,11l-1,9.9" class="g0_231"/>
<path d="M581.4,351.3V229.7" class="g2_231"/>
</g>
<path d="M513.2,230.8H620.1c3.4,0,6.1,2.7,6.1,6.1V343.8c0,3.4,-2.7,6.1,-6.1,6.1H513.2c-3.4,0,-6.2,-2.7,-6.2,-6.1V236.9c0,-3.4,2.8,-6.1,6.2,-6.1Z" class="g3_231"/>
<g clip-path="url(#c7_231)">
<path d="M368,349.9V230.8m-1.3,89.3h2.7m-2.7,-59.6h2.7m-61,29.8H427.6m-89.4,1.4V289m59.6,2.7V289" class="g1_231"/>
<path d="M378.2,230.8l1.1,17.5l1.9,10.3l1.7,5.9l1.6,4.3l1.5,3.6l1.3,3.1l1.2,3.2l.7,2.8l.6,3l.5,3v5.8l-.5,2.9l-.6,3l-.7,2.8l-1.2,3.2l-1.3,3.2l-1.5,3.5l-1.6,4.3l-1.7,5.9l-1.9,10.3l-1.1,17.5M373.9,230.8l-.4,17.9L371.7,277l-1.9,9.2l-1.9,4.3l-1.4,2l-1.5,.9l-1.3,.2l-1.1,-.2l-.8,-.3l-.7,-1l-.4,-.7v-2.1l.4,-.7l.7,-.9l.8,-.4l1.1,-.2l1.3,.2l1.5,.9l1.4,2.1l1.9,4.3l1.9,9.1l1.8,28.3l.4,17.9" class="g0_231"/>
<path d="M375.4,351.3V229.7" class="g2_231"/>
</g>
<path d="M314.5,230.8h107c3.4,0,6.1,2.7,6.1,6.1V343.8c0,3.4,-2.7,6.1,-6.1,6.1h-107c-3.3,0,-6.1,-2.7,-6.1,-6.1V236.9c0,-3.4,2.8,-6.1,6.1,-6.1Z" class="g3_231"/>
<image clip-path="url(#c8_231)" preserveAspectRatio="none" x="107" y="628" width="773" height="34" xlink:href="img/1.png"/>
<path d="M511.8,733.6H878.5M511.8,1043.8H878.5" class="g4_231"/>
<path clip-path="url(#c9_231)" d="M573.7,673.9h8" class="g5_231"/>
<path d="M582.9,851.7h4.8m73.8,0h4.7M563.4,876.1h4.8" class="g6_231"/>
<path clip-path="url(#ca_231)" d="M573.7,965.7h30.4" class="g5_231"/>
<path clip-path="url(#cb_231)" d="M657.6,965.7h30.5" class="g5_231"/>
<path d="M108.5,831.7H475.2" class="g4_231"/>
<path d="M241.4,965h4.8" class="g6_231"/>
</svg>