<?xml version="1.0" encoding="UTF-8" standalone="no"?>
<!DOCTYPE svg PUBLIC "-//W3C//DTD SVG 1.1//EN"
"http://www.w3.org/Graphics/SVG/1.1/DTD/svg11.dtd">
<svg viewBox="0 0 660 990" version="1.1" xmlns="http://www.w3.org/2000/svg" xmlns:xlink="http://www.w3.org/1999/xlink">
<defs>
<clipPath id="c0_289"><path d="M86.9,147.9l-1.2,-2.4l-1.2,-2.3h491l-1.2,2.3l-1.2,2.4Z"/></clipPath>
<clipPath id="c1_289"><path d="M576.5,856.5l-2.3,-1.2l-2.4,-1.1V146.6l2.4,-1.2l2.3,-1.1V856.5Z"/></clipPath>
<clipPath id="c2_289"><path d="M84.5,857.6l1.2,-2.4l1.2,-2.3H573.1l1.2,2.3l1.2,2.4Z"/></clipPath>
<clipPath id="c3_289"><path d="M83.5,856.5V144.3l2.3,1.1l2.4,1.2V854.2l-2.4,1.1l-2.3,1.2Z"/></clipPath>
<clipPath id="c4_289"><path d="M85.6,915.9v-5.1H574.4v5.1Z"/></clipPath>
<clipPath id="c5_289"><path d="M240.4,285.7V271.9h13.7v13.8Z"/></clipPath>
<clipPath id="c6_289"><path d="M263.7,372.3V358.5h13.8v13.8Z"/></clipPath>
<clipPath id="c7_289"><path d="M228.7,458.9V445.2h13.7v13.7Z"/></clipPath>
<clipPath id="c8_289"><path d="M211.1,489.4V475.7h13.8v13.7Z"/></clipPath>
<clipPath id="c9_289"><path d="M439.1,520V506.2h13.7V520Z"/></clipPath>
<clipPath id="ca_289"><path d="M222.8,564.5V550.8h13.8v13.7Z"/></clipPath>
<clipPath id="cb_289"><path d="M97.5,669V655.3h13.8V669Z"/></clipPath>
<clipPath id="cc_289"><path d="M97.5,702.5V688.7h13.8v13.8Z"/></clipPath>
<clipPath id="cd_289"><path d="M97.5,735.9V722.2h13.8v13.7Z"/></clipPath>
<clipPath id="ce_289"><path d="M97.5,769.3V755.6h13.8v13.7Z"/></clipPath>
<clipPath id="cf_289"><path d="M97.5,802.8V789h13.8v13.8Z"/></clipPath>
<clipPath id="cg_289"><path d="M97.5,836.2V822.4h13.8v13.8Z"/></clipPath>
<style type="text/css"><![CDATA[
.g0_289{
fill: none;
stroke: #231F20;
stroke-width: 0.381;
stroke-linecap: round;
stroke-linejoin: miter;
}
.g1_289{
fill: #FFFFFF;
}
.g2_289{
fill: #231F20;
}
.g3_289{
fill: none;
stroke: #231F20;
stroke-width: 1.527;
stroke-linecap: butt;
stroke-linejoin: miter;
stroke-miterlimit: 4;
}
.g4_289{
fill: none;
stroke: #231F20;
stroke-width: 0.763;
stroke-linecap: round;
stroke-linejoin: miter;
}
]]></style>
</defs>
<path clip-path="url(#c0_289)" d="M85.6,145.5H574.4" class="g0_289"/>
<path clip-path="url(#c1_289)" d="M574.2,145.3V855.4" class="g0_289"/>
<path clip-path="url(#c2_289)" d="M574.4,855.2H85.6" class="g0_289"/>
<path clip-path="url(#c3_289)" d="M85.8,855.4V145.3" class="g0_289"/>
<path fill-rule="evenodd" d="M597.3,913H660v77H597.3V913Z" class="g1_289"/>
<path fill-rule="evenodd" d="M597.3,816.2H660v92.4H597.3V816.2Z" class="g2_289"/>
<path fill-rule="evenodd" d="M597.3,0H660V77H597.3V0Z" class="g1_289"/>
<path clip-path="url(#c4_289)" d="M85.6,913.4H574.4" class="g4_289"/>
<g clip-path="url(#c5_289)">
<path d="M247.2,273.5c3,0,5.4,2.3,5.4,5.3c0,3,-2.4,5.3,-5.4,5.3c-2.9,0,-5.3,-2.3,-5.3,-5.3c0,-3,2.4,-5.3,5.3,-5.3Z" class="g2_289"/>
<path d="M247.2,273.5c3,0,5.4,2.3,5.4,5.3c0,3,-2.4,5.3,-5.4,5.3c-2.9,0,-5.3,-2.3,-5.3,-5.3c0,-3,2.4,-5.3,5.3,-5.3Z" class="g3_289"/>
<path d="M245.2,276.8h.2c1.3,0,1.6,-.7,1.6,-1.2h1.1v6.7h-1.3v-4.6h-1.6v-.9Z" class="g1_289"/>
</g>
<g clip-path="url(#c6_289)">
<path d="M270.6,360.1c3,0,5.4,2.4,5.4,5.3c0,3,-2.4,5.4,-5.4,5.4c-2.9,0,-5.3,-2.4,-5.3,-5.4c0,-2.9,2.4,-5.3,5.3,-5.3Z" class="g2_289"/>
<path d="M270.6,360.1c3,0,5.4,2.4,5.4,5.3c0,3,-2.4,5.4,-5.4,5.4c-2.9,0,-5.3,-2.4,-5.3,-5.4c0,-2.9,2.4,-5.3,5.3,-5.3Z" class="g3_289"/>
<path d="M268.3,364c0,-2.1,1.6,-2.3,2.2,-2.3c1.3,0,2.3,.7,2.3,2.1c0,1.1,-.7,1.7,-1.4,2.1c-.9,.7,-1.3,1,-1.5,1.3h2.9v1.1h-4.5c0,-.8,.1,-1.6,1.5,-2.6c1.2,-.9,1.7,-1.2,1.7,-2c0,-.4,-.3,-.9,-.9,-.9c-1,0,-1,.7,-1,1.2h-1.3Z" class="g1_289"/>
</g>
<g clip-path="url(#c7_289)">
<path d="M235.6,446.7c2.9,0,5.3,2.4,5.3,5.3c0,3,-2.4,5.4,-5.3,5.4c-3,0,-5.4,-2.4,-5.4,-5.4c0,-2.9,2.4,-5.3,5.4,-5.3Z" class="g2_289"/>
<path d="M235.6,446.7c2.9,0,5.3,2.4,5.3,5.3c0,3,-2.4,5.4,-5.3,5.4c-3,0,-5.4,-2.4,-5.4,-5.4c0,-2.9,2.4,-5.3,5.4,-5.3Z" class="g3_289"/>
<path d="M235.1,451.2h.2c.4,0,1.1,0,1.1,-.9c0,-.2,-.1,-.8,-.8,-.8c-.9,0,-.9,.8,-.9,1h-1.2c0,-1.2,.7,-2.1,2.2,-2.1c.9,0,2,.5,2,1.9c0,.6,-.4,1.1,-.8,1.2v.1c.3,0,1,.4,1,1.5c0,1.2,-.9,2.1,-2.2,2.1c-.7,0,-2.3,-.1,-2.3,-2.2h1.2c0,.4,.1,1.2,1,1.2c.5,0,1,-.4,1,-1.1c0,-.9,-.9,-1,-1.5,-1v-.9Z" class="g1_289"/>
</g>
<g clip-path="url(#c8_289)">
<path d="M218,477.2c3,0,5.4,2.4,5.4,5.4c0,2.9,-2.4,5.3,-5.4,5.3c-2.9,0,-5.3,-2.4,-5.3,-5.3c0,-3,2.4,-5.4,5.3,-5.4Z" class="g2_289"/>
<path d="M218,477.2c3,0,5.4,2.4,5.4,5.4c0,2.9,-2.4,5.3,-5.4,5.3c-2.9,0,-5.3,-2.4,-5.3,-5.3c0,-3,2.4,-5.4,5.3,-5.4Z" class="g3_289"/>
<path d="M217.8,483c0,-1.6,0,-2.7,0,-2.9l-1.7,2.9h1.7Zm2,1h-.7v1.5h-1.3V484h-2.6v-1.1l2.4,-4.1h1.5V483h.7v1Z" class="g1_289"/>
</g>
<g clip-path="url(#c9_289)">
<path d="M445.9,507.8c3,0,5.4,2.3,5.4,5.3c0,3,-2.4,5.3,-5.4,5.3c-2.9,0,-5.3,-2.3,-5.3,-5.3c0,-3,2.4,-5.3,5.3,-5.3Z" class="g2_289"/>
<path d="M445.9,507.8c3,0,5.4,2.3,5.4,5.3c0,3,-2.4,5.3,-5.4,5.3c-2.9,0,-5.3,-2.3,-5.3,-5.3c0,-3,2.4,-5.3,5.3,-5.3Z" class="g3_289"/>
<path d="M445.1,512.3c.2,-.1,.5,-.3,1.2,-.3c.9,0,2,.6,2,2.1c0,.9,-.5,2.4,-2.4,2.4c-1,0,-2.1,-.6,-2.2,-1.9H445c.1,.5,.4,.9,1,.9c.6,0,1,-.6,1,-1.3c0,-.6,-.3,-1.2,-1,-1.2c-.2,0,-.6,0,-.9,.5l-1.2,-.1l.5,-3.6H448v1.1h-2.7l-.2,1.4Z" class="g1_289"/>
</g>
<g clip-path="url(#ca_289)">
<path d="M229.7,552.3c3,0,5.4,2.4,5.4,5.3c0,3,-2.4,5.4,-5.4,5.4c-2.9,0,-5.3,-2.4,-5.3,-5.4c0,-2.9,2.4,-5.3,5.3,-5.3Z" class="g2_289"/>
<path d="M229.7,552.3c3,0,5.4,2.4,5.4,5.3c0,3,-2.4,5.4,-5.4,5.4c-2.9,0,-5.3,-2.4,-5.3,-5.4c0,-2.9,2.4,-5.3,5.3,-5.3Z" class="g3_289"/>
<path d="M229.7,557.4c-.4,0,-1,.3,-1,1.2c0,.7,.5,1.2,1.1,1.2c.5,0,.9,-.4,.9,-1.3c0,-.8,-.5,-1.1,-1,-1.1Zm.9,-1.7c-.1,-.4,-.3,-.6,-.8,-.6c-.8,0,-1,.9,-1.1,1.8c.2,-.2,.5,-.5,1.3,-.5c1.4,0,2,1,2,2c0,1.5,-.9,2.4,-2.2,2.4c-2,0,-2.4,-1.6,-2.4,-3.3c0,-1.3,.2,-3.5,2.5,-3.5c.3,0,1,.1,1.4,.4c.3,.4,.5,.6,.6,1.3h-1.3Z" class="g1_289"/>
</g>
<g clip-path="url(#cb_289)">
<path d="M104.4,656.8c2.9,0,5.3,2.4,5.3,5.4c0,2.9,-2.4,5.3,-5.3,5.3c-3,0,-5.4,-2.4,-5.4,-5.3c0,-3,2.4,-5.4,5.4,-5.4Z" class="g2_289"/>
<path d="M104.4,656.8c2.9,0,5.3,2.4,5.3,5.4c0,2.9,-2.4,5.3,-5.3,5.3c-3,0,-5.4,-2.4,-5.4,-5.3c0,-3,2.4,-5.4,5.4,-5.4Z" class="g3_289"/>
<path d="M102.4,660.1h.2c1.2,0,1.6,-.6,1.6,-1.1h1.1v6.6h-1.4V661h-1.5v-.9Z" class="g1_289"/>
</g>
<g clip-path="url(#cc_289)">
<path d="M104.4,690.3c2.9,0,5.3,2.3,5.3,5.3c0,3,-2.4,5.3,-5.3,5.3c-3,0,-5.4,-2.3,-5.4,-5.3c0,-3,2.4,-5.3,5.4,-5.3Z" class="g2_289"/>
<path d="M104.4,690.3c2.9,0,5.3,2.3,5.3,5.3c0,3,-2.4,5.3,-5.3,5.3c-3,0,-5.4,-2.3,-5.4,-5.3c0,-3,2.4,-5.3,5.4,-5.3Z" class="g3_289"/>
<path d="M102.1,694.2c0,-2.2,1.6,-2.3,2.2,-2.3c1.3,0,2.3,.7,2.3,2.1c0,1.1,-.8,1.7,-1.4,2.1c-.9,.6,-1.4,.9,-1.5,1.2h2.9v1.2H102c.1,-.8,.1,-1.6,1.6,-2.6c1.2,-.9,1.7,-1.2,1.7,-2c0,-.4,-.3,-.9,-1,-.9c-.9,0,-.9,.7,-.9,1.2h-1.3Z" class="g1_289"/>
</g>
<g clip-path="url(#cd_289)">
<path d="M104.4,723.7c2.9,0,5.3,2.4,5.3,5.3c0,3,-2.4,5.4,-5.3,5.4c-3,0,-5.4,-2.4,-5.4,-5.4c0,-2.9,2.4,-5.3,5.4,-5.3Z" class="g2_289"/>
<path d="M104.4,723.7c2.9,0,5.3,2.4,5.3,5.3c0,3,-2.4,5.4,-5.3,5.4c-3,0,-5.4,-2.4,-5.4,-5.4c0,-2.9,2.4,-5.3,5.4,-5.3Z" class="g3_289"/>
<path d="M103.9,728.2h.2c.4,0,1.2,0,1.2,-.9c0,-.2,-.2,-.9,-.9,-.9c-.9,0,-.9,.9,-.9,1.1h-1.2c0,-1.2,.7,-2.1,2.2,-2.1c.9,0,2.1,.4,2.1,1.8c0,.7,-.5,1.1,-.8,1.3c.2,.1,1,.4,1,1.6c0,1.2,-1,2.1,-2.3,2.1c-.6,0,-2.3,-.1,-2.3,-2.2h1.3c0,.4,.1,1.2,.9,1.2c.6,0,1,-.4,1,-1.1c0,-.9,-.9,-1,-1.5,-1v-.9Z" class="g1_289"/>
</g>
<g clip-path="url(#ce_289)">
<path d="M104.4,757.1c2.9,0,5.3,2.4,5.3,5.4c0,2.9,-2.4,5.3,-5.3,5.3c-3,0,-5.4,-2.4,-5.4,-5.3c0,-3,2.4,-5.4,5.4,-5.4Z" class="g2_289"/>
<path d="M104.4,757.1c2.9,0,5.3,2.4,5.3,5.4c0,2.9,-2.4,5.3,-5.3,5.3c-3,0,-5.4,-2.4,-5.4,-5.3c0,-3,2.4,-5.4,5.4,-5.4Z" class="g3_289"/>
<path d="M104.1,762.9c0,-1.6,.1,-2.7,.1,-2.9l-1.7,2.9h1.6Zm2.1,1h-.7v1.5h-1.4v-1.5h-2.6v-1.1l2.5,-4.1h1.5v4.2h.7v1Z" class="g1_289"/>
</g>
<g clip-path="url(#cf_289)">
<path d="M104.4,790.5c2.9,0,5.3,2.4,5.3,5.4c0,2.9,-2.4,5.3,-5.3,5.3c-3,0,-5.4,-2.4,-5.4,-5.3c0,-3,2.4,-5.4,5.4,-5.4Z" class="g2_289"/>
<path d="M104.4,790.5c2.9,0,5.3,2.4,5.3,5.4c0,2.9,-2.4,5.3,-5.3,5.3c-3,0,-5.4,-2.4,-5.4,-5.3c0,-3,2.4,-5.4,5.4,-5.4Z" class="g3_289"/>
<path d="M103.6,795.1c.2,-.1,.5,-.3,1.2,-.3c.8,0,2,.6,2,2.1c0,.9,-.5,2.4,-2.4,2.4c-1.1,0,-2.1,-.6,-2.2,-2h1.3c.1,.6,.4,1,.9,1c.7,0,1,-.6,1,-1.3c0,-.6,-.3,-1.2,-.9,-1.2c-.2,0,-.7,0,-.9,.5l-1.2,-.1l.5,-3.6h3.6v1.1h-2.7l-.2,1.4Z" class="g1_289"/>
</g>
<g clip-path="url(#cg_289)">
<path d="M104.4,824c2.9,0,5.3,2.4,5.3,5.3c0,3,-2.4,5.4,-5.3,5.4c-3,0,-5.4,-2.4,-5.4,-5.4c0,-2.9,2.4,-5.3,5.4,-5.3Z" class="g2_289"/>
<path d="M104.4,824c2.9,0,5.3,2.4,5.3,5.3c0,3,-2.4,5.4,-5.3,5.4c-3,0,-5.4,-2.4,-5.4,-5.4c0,-2.9,2.4,-5.3,5.4,-5.3Z" class="g3_289"/>
<path d="M104.4,829.1c-.5,0,-1,.3,-1,1.1c0,.8,.4,1.3,1.1,1.3c.4,0,.9,-.4,.9,-1.3c0,-.8,-.6,-1.1,-1,-1.1Zm.9,-1.7c-.1,-.4,-.3,-.7,-.8,-.7c-.9,0,-1,1,-1.1,1.9c.2,-.3,.5,-.6,1.3,-.6c1.3,0,2,1.1,2,2.1c0,1.4,-.9,2.4,-2.2,2.4c-2,0,-2.4,-1.7,-2.4,-3.3c0,-1.3,.2,-3.5,2.5,-3.5c.3,0,1,.1,1.4,.4c.3,.4,.4,.6,.6,1.3h-1.3Z" class="g1_289"/>
</g>
</svg>