<?xml version="1.0" encoding="UTF-8" standalone="no"?>
<!DOCTYPE svg PUBLIC "-//W3C//DTD SVG 1.1//EN"
"http://www.w3.org/Graphics/SVG/1.1/DTD/svg11.dtd">
<svg viewBox="0 0 931 1096" version="1.1" xmlns="http://www.w3.org/2000/svg" xmlns:xlink="http://www.w3.org/1999/xlink">
<defs>
<clipPath id="c0_22"><path d="M468.1,174.8V130.3H642.6v44.5Z"/></clipPath>
<clipPath id="c1_22"><path d="M154.7,475.4c-6.9,-5.9,-20.5,-17,-20.5,-23c0,-3.2,-.3,-8.2,0,-10.4c3.3,3.6,12.4,11.8,20.5,18.1v15.3Z"/></clipPath>
<clipPath id="c2_22"><path d="M137.4,445.4c-2.6,-2.8,-3.3,-4.6,-3.3,-5.4c-.2,-12.5,21.9,-13.6,41,-21.6c9.3,-3.9,17.4,-9.3,22.9,-18.1c.6,-1.6,3.1,-9.4,4.2,-13.9c.2,3.5,.3,25.8,.3,31.1c0,18,-12,22.6,-25.8,23.6c0,0,-.4,0,-.9,0c-.2,0,-.5,0,-.7,0c-3.7,.2,-7.6,.2,-11.4,.2c-.6,0,-1.3,0,-1.9,0c-10.2,0,-19.7,.2,-24.4,4.1Z"/></clipPath>
<clipPath id="c3_22"><path d="M197.5,400.3c-9.7,-16.7,-31.9,-23.9,-36.9,-24.6c-2,-.3,-3.9,-.4,-5.7,-.4c-3.2,0,-5.8,.4,-7.1,1.1l-.2,-65.3c23.1,3.4,55.9,48.6,54.9,69.5c-.3,7.8,-2.4,14.3,-5,19.7Z"/></clipPath>
<clipPath id="c4_22"><path d="M53.5,475.9V282.4H258.2V475.9Z"/></clipPath>
<clipPath id="c5_22"><path d="M53.5,709.7V570.4H241.7V709.7Z"/></clipPath>
<style type="text/css"><![CDATA[
.g0_22{
fill: none;
stroke: #241F1F;
stroke-width: 0.763;
stroke-miterlimit: 10;
}
.g1_22{
fill: none;
stroke: #241F1F;
stroke-width: 0.534;
stroke-miterlimit: 10;
}
.g2_22{
fill: none;
stroke: #00AEEF;
stroke-width: 0.763;
stroke-linejoin: round;
}
.g3_22{
fill: none;
stroke: #EE008C;
stroke-width: 0.916;
stroke-linejoin: round;
}
.g4_22{
fill: none;
stroke: #241F1F;
stroke-width: 0.534;
stroke-miterlimit: 3;
}
.g5_22{
fill: #EE008C;
}
.g6_22{
fill: none;
stroke: #EE008C;
stroke-width: 0.763;
stroke-miterlimit: 3;
}
.g7_22{
fill: none;
stroke: #241F1F;
stroke-width: 0.611;
stroke-miterlimit: 3;
}
.g8_22{
fill: none;
stroke: #241F1F;
stroke-width: 0.611;
stroke-miterlimit: 3;
stroke-dasharray: 10,4;
}
.g9_22{
fill: #241F1F;
}
]]></style>
</defs>
<path clip-path="url(#c0_22)" d="M468.5,154.7h18.1m53.5,0h19m47.6,0h18.9m-96.1,-24H643" class="g0_22"/>
<path d="M531,267.7h18.9m47.6,0h19m-96.1,-24H631.6m-3.3,488.5H648m47.6,0h19.7m-97.6,-24h115M610.3,778.4h84.6M680,842.2h34.5" class="g0_22"/>
<path d="M517,892.5h5.3" class="g1_22"/>
<image clip-path="url(#c1_22)" x="133" y="441" width="22" height="35" xlink:href="shade/1.png"/>
<image clip-path="url(#c2_22)" x="133" y="386" width="70" height="60" xlink:href="shade/2.png"/>
<image clip-path="url(#c3_22)" x="147" y="311" width="57" height="90" xlink:href="shade/3.png"/>
<path d="M134.1,452.4V438.5m54.7,.3V410.4m-34.2,49.7v15.3m-6.8,-47.2V442m0,12.9v14.5m54.7,-89.7v37.7m-6.8,-14V435M182,415.2v25.3m-6.9,-22v22.6m-6.8,-19.9v20.3m-7.1,-18.1v17.8m-6.6,-15.3v15.4m41.1,-84.1v40M188.8,346v43.9M182,336.5v48.2m-6.9,-55.3v51.5m-6.8,-58.3V378m-6.8,-60.8v58.6m-6.9,-62.6v62m-6.8,-63.8v65m-6.9,72.1v14.2m0,-32.5v12.9" class="g2_22"/>
<path d="M202.5,417.5c0,37.3,-52.2,16.6,-64.9,27.7m62.1,-41.4c1.1,2.2,2,4.6,2.5,7.2" class="g3_22"/>
<path d="M208.5,382.6c1.1,.1,1.6,1.1,1.6,2.4v11.9c0,1.3,0,2.3,1.1,2.4c-1.1,0,-1.1,1.1,-1.1,2.4v13c0,1.3,-.5,2.5,-1.7,2.6" class="g4_22"/>
<path d="M200.8,417.5c0,-1,.8,-1.7,1.7,-1.7c1,0,1.7,.7,1.7,1.7c0,.9,-.7,1.7,-1.7,1.7c-.9,0,-1.7,-.8,-1.7,-1.7Z" class="g5_22"/>
<path d="M200.8,417.5c0,-1,.8,-1.7,1.7,-1.7c1,0,1.7,.7,1.7,1.7c0,.9,-.7,1.7,-1.7,1.7c-.9,0,-1.7,-.8,-1.7,-1.7Z" class="g6_22"/>
<path d="M133.8,363.8l14.1,2" class="g7_22"/>
<path d="M150.8,366.2l48,6.7" class="g8_22"/>
<path d="M133.8,363.8L64.4,453.3" class="g7_22"/>
<path fill-rule="evenodd" d="M64.4,453.3l3,.2l-6,3.6l2.1,-6.6Z" class="g9_22"/>
<path d="M133.8,363.8V292.7" class="g7_22"/>
<path fill-rule="evenodd" d="M133.8,292.7l-2.5,1.6l2.5,-6.5l2.4,6.5Z" class="g9_22"/>
<path d="M201.6,373.3l51.8,7.3" class="g7_22"/>
<path clip-path="url(#c4_22)" fill-rule="evenodd" d="M253.4,380.6l-1.3,-2.7l6.1,3.4l-6.8,1.5Z" class="g9_22"/>
<path d="M134.2,452.4c0,6,13.6,17.3,20.5,23.1m-7.1,-98.8c1.3,-1.2,7.5,-1.8,12.3,-1.1c5.7,.8,27.9,7.9,37.5,24.6M147.6,311.1c23.1,3.4,54.9,47.5,54.9,69.5c0,51.2,-68.6,37.8,-68.4,59.4c0,2,5.7,8.6,20.5,20.1m45.6,222.1c0,-14.7,-5.8,-28,-15.2,-37.9M90.2,682.2c0,-30.3,24.6,-55,54.9,-55c30.4,0,55.1,24.7,55.1,55" class="g3_22"/>
<path d="M181.6,640.8l6.3,2.9l-2.9,.6l-.7,2.9Z" class="g5_22"/>
<path d="M145.2,709.7V581.4" class="g7_22"/>
<path fill-rule="evenodd" d="M145.2,581.4l-2.5,1.6l2.5,-6.5l2.4,6.5Z" class="g9_22"/>
<path d="M53.5,682.2H236.8" class="g7_22"/>
<path clip-path="url(#c5_22)" fill-rule="evenodd" d="M236.8,682.2l-1.6,-2.4l6.5,2.4l-6.5,2.5Z" class="g9_22"/>
<path d="M90.2,679.2v6.1m110,-6.1v6.1" class="g7_22"/>
<path d="M74.4,958l43.8,-9.3" class="g3_22"/>
<path d="M109.8,950.5l-5.8,3.8l.9,-2.7l-2,-2.1Z" class="g5_22"/>
<path d="M118.2,948.7l21.5,-4.5c0,-7,5,-16.2,14,-22.4" class="g3_22"/>
<path d="M155.3,920.9l-3.9,5.7l-.2,-2.9l-2.6,-1.1Z" class="g5_22"/>
<path d="M168.6,885.8c-28.9,1.8,-50.9,13.4,-50.9,29.1L98.2,900.3" class="g3_22"/>
<path d="M82.1,888.5l6.7,1.9l-2.7,1.1l-.3,2.9Z" class="g5_22"/>
<path d="M153.8,921.8c5.9,-4.1,13.5,-6.9,22.6,-6.9c12.2,0,14.7,11,14.7,11l21.8,-12.7M98.2,900.3L75.3,883.4" class="g3_22"/>
<path d="M216.5,911.2l-4.4,5.4l.1,-3l-2.6,-1.3Z" class="g5_22"/>
<path d="M213,913.2l22.1,-13c-12,-4.8,-40.1,-14.6,-58.7,-14.6c-2.7,0,-5.3,.1,-7.8,.2" class="g3_22"/>
<path d="M165.4,886.1l6.3,-2.9l-1.3,2.5l1.7,2.4Z" class="g5_22"/>
<path d="M53.5,974.6h194" class="g7_22"/>
<path fill-rule="evenodd" d="M247.5,974.6l-1.6,-2.5l6.5,2.5l-6.5,2.4Z" class="g9_22"/>
<path d="M90.2,999V866.1" class="g7_22"/>
<path fill-rule="evenodd" d="M90.2,866.1l-2.5,1.6l2.5,-6.5l2.4,6.5Z" class="g9_22"/>
</svg>