<?xml version="1.0" encoding="UTF-8" standalone="no"?>
<!DOCTYPE svg PUBLIC "-//W3C//DTD SVG 1.1//EN"
"http://www.w3.org/Graphics/SVG/1.1/DTD/svg11.dtd">
<svg viewBox="0 0 907 1045" version="1.1" xmlns="http://www.w3.org/2000/svg" xmlns:xlink="http://www.w3.org/1999/xlink">
<defs>
<clipPath id="c0_474"><path d="M543.8,567.8V514.4H705.4v53.4Z"/></clipPath>
<clipPath id="c1_474"><path d="M-2.6,1047.7V-2.6H910.2V1047.7Z"/></clipPath>
<style type="text/css"><![CDATA[
.g0_474{
}
.g1_474{
fill: none;
stroke: #000000;
stroke-width: 1.527;
stroke-linecap: butt;
stroke-linejoin: miter;
stroke-miterlimit: 4;
}
.g2_474{
fill: none;
stroke: #636363;
stroke-width: 1.527;
stroke-linecap: butt;
stroke-linejoin: miter;
stroke-miterlimit: 4;
}
.g3_474{
fill: none;
stroke: #FFFFFF;
stroke-width: 1.909;
stroke-linecap: butt;
stroke-linejoin: miter;
}
.g4_474{
fill: none;
stroke: #000000;
stroke-width: 0.381;
stroke-linecap: butt;
stroke-linejoin: miter;
}
]]></style>
</defs>
<image clip-path="url(#c0_474)" preserveAspectRatio="none" x="544" y="514" width="161" height="54" xlink:href="img/1.jpg"/>
<path d="M130.3,511.5c4.9,0,8.9,-4,8.9,-8.9c0,-5,-4,-9,-8.9,-9c-5,0,-9,4,-9,9c0,4.9,4,8.9,9,8.9Z" class="g0_474"/>
<path d="M130.3,511.5c4.9,0,8.9,-4,8.9,-8.9c0,-5,-4,-9,-8.9,-9c-5,0,-9,4,-9,9c0,4.9,4,8.9,9,8.9Z" class="g1_474"/>
<path d="M132,623.6c4.9,0,8.9,-4,8.9,-8.9c0,-4.9,-4,-8.9,-8.9,-8.9c-4.9,0,-8.9,4,-8.9,8.9c0,4.9,4,8.9,8.9,8.9Z" class="g0_474"/>
<path d="M132,623.6c4.9,0,8.9,-4,8.9,-8.9c0,-4.9,-4,-8.9,-8.9,-8.9c-4.9,0,-8.9,4,-8.9,8.9c0,4.9,4,8.9,8.9,8.9Z" class="g1_474"/>
<path d="M132,723.6c4.9,0,8.9,-4,8.9,-8.9c0,-4.9,-4,-8.9,-8.9,-8.9c-4.9,0,-8.9,4,-8.9,8.9c0,4.9,4,8.9,8.9,8.9Z" class="g0_474"/>
<path d="M132,723.6c4.9,0,8.9,-4,8.9,-8.9c0,-4.9,-4,-8.9,-8.9,-8.9c-4.9,0,-8.9,4,-8.9,8.9c0,4.9,4,8.9,8.9,8.9Z" class="g1_474"/>
<path d="M699.2,629.1c3.1,-1.8,7,-2.5,9.5,-5.1c2.2,-2.2,3.5,-5.7,4.7,-8.5c1.8,-4,.9,-8,-.1,-12c-.6,-2.2,-1.1,-4.7,-2.2,-6.7c-1.1,-2.3,-3.4,-4.2,-5.2,-6c-.9,-1,-1.8,-1.6,-2.9,-2.5c-1.1,-.8,-1.8,-2.1,-3,-2.9c-.6,-.4,-1.3,-.4,-1.8,-.9c-.5,2.4,-.4,5.2,-.5,7.7c0,-1.4,.5,-2.6,.3,-4c-.1,-1.1,-.4,-2,-.3,-3c1.8,-.4,4.2,-.3,5.7,.7" class="g2_474"/>
<g clip-path="url(#c1_474)">
<path d="M-4.5,13.7H-27.4m939.5,0H935M-4.5,1031.2H-27.4m939.5,0H935M13.7,-4.5V-27.4m0,1077v22.9m880,-1077V-27.4m0,1077v22.9" class="g3_474"/>
<path d="M-4.5,13.7H-27.4m939.5,0H935M-4.5,1031.2H-27.4m939.5,0H935M13.7,-4.5V-27.4m0,1077v22.9m880,-1077V-27.4m0,1077v22.9" class="g4_474"/>
</g>
</svg>