<?xml version="1.0" encoding="UTF-8" standalone="no"?>
<!DOCTYPE svg PUBLIC "-//W3C//DTD SVG 1.1//EN"
"http://www.w3.org/Graphics/SVG/1.1/DTD/svg11.dtd">
<svg viewBox="0 0 907 1045" version="1.1" xmlns="http://www.w3.org/2000/svg" xmlns:xlink="http://www.w3.org/1999/xlink">
<defs>
<clipPath id="c0_277"><path d="M92.5,549.3V492.9h72.2v56.4Z"/></clipPath>
<clipPath id="c1_277"><path d="M-2.6,1047.7V-2.6H910.2V1047.7Z"/></clipPath>
<style type="text/css"><![CDATA[
.g0_277{
fill: none;
stroke: #000000;
stroke-width: 1.527;
stroke-linecap: butt;
stroke-linejoin: miter;
stroke-miterlimit: 4;
}
.g1_277{
fill: none;
stroke: #636363;
stroke-width: 1.527;
stroke-linecap: butt;
stroke-linejoin: miter;
stroke-miterlimit: 4;
}
.g2_277{
fill: #FFFFFF;
}
.g3_277{
fill: none;
stroke: #FFFFFF;
stroke-width: 1.527;
stroke-linecap: butt;
stroke-linejoin: miter;
stroke-miterlimit: 4;
}
.g4_277{
fill: none;
stroke: #FFFFFF;
stroke-width: 1.909;
stroke-linecap: butt;
stroke-linejoin: miter;
}
.g5_277{
fill: none;
stroke: #000000;
stroke-width: 0.381;
stroke-linecap: butt;
stroke-linejoin: miter;
}
]]></style>
</defs>
<path d="M111.8,512.4V952.6H816V512.4H111.8Z" class="g0_277"/>
<path d="M578.3,191.4c-1.3,1.8,-2,3.9,-3.4,5.6c-1.5,1.7,-3.3,3.2,-5.4,4.1c-2.2,.9,-4.6,1.3,-6.9,1.7c-1.1,.2,-2.3,.7,-3.4,.5c.2,-.6,1.2,-.9,1.7,-1.3c1,-.8,1.8,-2.7,2.8,-3.2c-1,1.5,-5.1,3.5,-4.5,5.7c1.2,.2,2.4,.3,3.6,.3m23.7,-6.9c-.3,.1,-.5,.1,-.8,.1c-.9,1.5,-.3,4.9,-.5,6.6c-1,8,-5,15.1,-7.5,22.6c-.9,2.7,-1.4,5.9,-2.9,8.3c-.4,.7,-1.2,2.4,-2.2,2.3c-.1,.1,-.1,.3,-.1,.4c-.8,-.8,-.3,-4.6,-.2,-5.9c0,.5,-.6,1.3,-.8,1.8c-.4,1.3,-.6,3.1,-.3,4.4c.9,.1,2.9,-.8,3.6,-1c1.9,-.5,3.9,-1.4,5.8,-1.5" class="g1_277"/>
<path d="M80.6,496.6v60.8H364.7V496.6H80.6Z" class="g2_277"/>
<path d="M80.6,496.6v60.8H364.7V496.6H80.6Z" class="g3_277"/>
<image clip-path="url(#c0_277)" preserveAspectRatio="none" x="92" y="493" width="73" height="56" xlink:href="img/1.jpg"/>
<path d="M468,540.8c-.4,-1.8,-2.2,-1.9,-3.7,-2c-9.9,-.9,-22.3,4.3,-28.7,11.7c-5.6,6.5,-7.5,14.8,-8.3,23c-.6,5.7,-.3,12.2,-5.1,16.4c-2.4,-1.8,-2,-6.4,-4.4,-8.3c1,3.9,2.5,7.7,4,11.4c3.1,-.4,5.4,-2.2,8.1,-3.6m95.8,52.7c-1.7,-.1,-3.4,.3,-5,1.2c-3.6,1.3,-7.3,2.7,-11,4.1c-4.6,1.7,-9.2,5.6,-14,6.3c1.6,.1,2.5,-5.7,4,-6.9c-2.9,2.7,-6.1,5.1,-8.6,8c.9,.5,2.6,.1,3.6,.2c2.6,.2,5.2,1.1,7.6,1.8m-43.5,65.1c.1,-1.5,.3,-1.9,-.5,-2.9c-2,-2.7,-7.8,-3.6,-10.6,-4c-9.5,-1.4,-23,-.2,-29.7,7.7c-2.4,2.9,-2.7,5,-2.4,8.6c.2,2.8,1.4,6.8,-1,9.2c-2.1,2.1,-6.9,1.7,-9.6,1.6c-2.6,-.1,-5.8,-.4,-8.1,-1.7c.6,-2.1,3.9,-2.3,5.2,-3.9c-2.2,.1,-8,1.8,-8.7,4.1c-1,2.7,4.4,3.3,5.4,5.6m128.7,76.2c-.1,-3.7,-1.6,-5.6,-4.4,-8.4c-4,-3.9,-7.6,-4.2,-13,-4.7c-5.7,-.5,-11.3,-.8,-17,-.4c-8.9,.6,-18,2.5,-26.7,4.3c-4.8,1,-9.4,2.8,-13.9,4.5c.7,-.5,1.1,-1.4,1.7,-2.1c2.2,-2.6,5.4,-4.1,8,-6.2c-4.2,-.8,-10.5,3.5,-13.2,6.3c1.9,3.5,8.4,1.8,10.6,4.7c-.4,.5,-.8,1,-1.3,1.6" class="g1_277"/>
<g clip-path="url(#c1_277)">
<path d="M-4.5,13.7H-27.4m939.5,0H935M-4.5,1031.2H-27.4m939.5,0H935M13.7,-4.5V-27.4m0,1077v22.9m880,-1077V-27.4m0,1077v22.9" class="g4_277"/>
<path d="M-4.5,13.7H-27.4m939.5,0H935M-4.5,1031.2H-27.4m939.5,0H935M13.7,-4.5V-27.4m0,1077v22.9m880,-1077V-27.4m0,1077v22.9" class="g5_277"/>
</g>
</svg>