<?xml version="1.0" encoding="UTF-8" standalone="no"?>
<!DOCTYPE svg PUBLIC "-//W3C//DTD SVG 1.1//EN"
"http://www.w3.org/Graphics/SVG/1.1/DTD/svg11.dtd">
<svg viewBox="0 0 770 1017" version="1.1" xmlns="http://www.w3.org/2000/svg" xmlns:xlink="http://www.w3.org/1999/xlink">
<defs>
<style type="text/css"><![CDATA[
.g0_340{
fill: none;
stroke: #000000;
stroke-width: 0.618;
stroke-linecap: butt;
stroke-linejoin: miter;
}
.g1_340{
stroke: #000000;
stroke-width: 0.895;
stroke-linecap: butt;
stroke-linejoin: miter;
}
.g2_340{
fill: none;
stroke: #000000;
stroke-width: 0.895;
stroke-linecap: butt;
stroke-linejoin: miter;
}
]]></style>
</defs>
<path d="M56,69.2H695.2" class="g0_340"/>
<path d="M274.2,159.8c0,2.4,-2,4.4,-4.5,4.4c-2.5,0,-4.5,-2,-4.5,-4.4c0,-2.5,2,-4.5,4.5,-4.5c2.5,0,4.5,2,4.5,4.5" class="g1_340"/>
<path d="M350.3,106c0,2.5,-2,4.5,-4.5,4.5c-2.4,0,-4.4,-2,-4.4,-4.5c0,-2.5,2,-4.5,4.4,-4.5c2.5,0,4.5,2,4.5,4.5" class="g1_340"/>
<path d="M422,159.8c0,2.4,-2,4.4,-4.5,4.4c-2.5,0,-4.5,-2,-4.5,-4.4c0,-2.5,2,-4.5,4.5,-4.5c2.5,0,4.5,2,4.5,4.5" class="g1_340"/>
<path d="M310,231.4c0,2.5,-2,4.5,-4.5,4.5c-2.4,0,-4.5,-2,-4.5,-4.5c0,-2.5,2.1,-4.5,4.5,-4.5c2.5,0,4.5,2,4.5,4.5" class="g1_340"/>
<path d="M390.6,231.4c0,2.5,-2,4.5,-4.5,4.5c-2.4,0,-4.4,-2,-4.4,-4.5c0,-2.5,2,-4.5,4.4,-4.5c2.5,0,4.5,2,4.5,4.5" class="g1_340"/>
<path d="M484.7,231.4c0,2.5,-2,4.5,-4.5,4.5c-2.5,0,-4.5,-2,-4.5,-4.5c0,-2.5,2,-4.5,4.5,-4.5c2.5,0,4.5,2,4.5,4.5" class="g1_340"/>
<path d="M484.7,123.9c0,2.5,-2,4.5,-4.5,4.5c-2.5,0,-4.5,-2,-4.5,-4.5c0,-2.5,2,-4.5,4.5,-4.5c2.5,0,4.5,2,4.5,4.5" class="g1_340"/>
<path d="M269.7,159.7l35.8,71.7H480.2V123.9L345.8,106l71.7,53.7l-31.4,71.7L269.7,159.7L345.8,106L305.5,231.4l112,-71.7H269.7M345.8,106l40.3,125.4" class="g2_340"/>
<path d="M65.1,289.8h621" class="g0_340"/>
</svg>