<?xml version="1.0" encoding="UTF-8" standalone="no"?>
<!DOCTYPE svg PUBLIC "-//W3C//DTD SVG 1.1//EN"
"http://www.w3.org/Graphics/SVG/1.1/DTD/svg11.dtd">
<svg viewBox="0 0 931 1096" version="1.1" xmlns="http://www.w3.org/2000/svg" xmlns:xlink="http://www.w3.org/1999/xlink">
<defs>
<clipPath id="c0_226"><path d="M457,127.7V99.1H570.2v28.6Z"/></clipPath>
<clipPath id="c1_226"><path d="M380,240.4V184.3H721.6v56.1Z"/></clipPath>
<clipPath id="c2_226"><path d="M81.9,426.4c-5.1,0,-9.2,-4.1,-9.2,-9.2V325.5c0,-5,4.1,-9.1,9.2,-9.1H231.6c5.1,0,9.2,4.1,9.2,9.1v91.7c0,5.1,-4.1,9.2,-9.2,9.2Z"/></clipPath>
<clipPath id="c3_226"><path d="M53.5,736.1V608.2h97.8V736.1Z"/></clipPath>
<clipPath id="c4_226"><path d="M53.5,1000.8V830.9h202v169.9Z"/></clipPath>
<style type="text/css"><![CDATA[
.g0_226{
fill: none;
stroke: #241F1F;
stroke-width: 0.763;
stroke-miterlimit: 10;
}
.g1_226{
fill: none;
stroke: #EE008C;
stroke-width: 0.916;
stroke-miterlimit: 3;
}
.g2_226{
fill: none;
stroke: #00AEEF;
stroke-width: 0.916;
stroke-miterlimit: 3;
}
.g3_226{
fill: none;
stroke: #00AEEF;
stroke-width: 0.534;
stroke-miterlimit: 3;
}
.g4_226{
fill: none;
stroke: #241F1F;
stroke-width: 0.534;
stroke-miterlimit: 3;
}
.g5_226{
fill: none;
stroke: #241F1F;
stroke-width: 0.611;
stroke-miterlimit: 3;
}
.g6_226{
fill: #241F1F;
}
.g7_226{
fill: #9EA6AC;
}
.g8_226{
fill: #A1AAAF;
}
.g9_226{
fill: #A6AEB3;
}
.ga_226{
fill: #ABB2B7;
}
.gb_226{
fill: #AEB6BA;
}
.gc_226{
fill: #B3BABE;
}
.gd_226{
fill: #B8BEC2;
}
.ge_226{
fill: #BCC2C6;
}
.gf_226{
fill: #C1C6CA;
}
.gg_226{
fill: #C5CACE;
}
.gh_226{
fill: #CACFD2;
}
.gi_226{
fill: #CED2D5;
}
.gj_226{
fill: #D3D7D9;
}
.gk_226{
fill: #D8DBDD;
}
.gl_226{
fill: none;
stroke: #9EA6AC;
stroke-width: 0.381;
stroke-miterlimit: 3;
}
.gm_226{
fill: none;
stroke: #9EA6AC;
stroke-width: 0.534;
stroke-miterlimit: 3;
}
.gn_226{
fill: none;
stroke: #ECEDEE;
stroke-width: 0.534;
stroke-miterlimit: 3;
}
.go_226{
fill: none;
stroke: #9EA6AC;
stroke-width: 0.611;
stroke-miterlimit: 3;
}
.gp_226{
fill: none;
stroke: #9EA6AC;
stroke-width: 0.763;
stroke-miterlimit: 3;
}
.gq_226{
fill: none;
stroke: #EE008C;
stroke-width: 0.916;
stroke-linejoin: round;
}
.gr_226{
fill: none;
stroke: #6AC48C;
stroke-width: 0.916;
stroke-linejoin: round;
}
.gs_226{
fill: none;
stroke: #00AEEF;
stroke-width: 0.916;
stroke-linejoin: round;
}
]]></style>
</defs>
<path clip-path="url(#c0_226)" d="M505.7,111.9h64.8" class="g0_226"/>
<path d="M508.7,200.5h18.9m99.7,0h19.8" class="g0_226"/>
<path clip-path="url(#c1_226)" d="M433.8,221.9H722" class="g0_226"/>
<path d="M436.4,278.4H678.9M436.4,334.9h183m-183,56.5H545.2M420.8,814.6H439m21.9,0h16.4m87.1,0h16.4M421.2,868.1h19.4m21.9,0h16.4m110,0h16.4" class="g0_226"/>
<g clip-path="url(#c2_226)">
<path d="M72.1,358.3H240.7M72.1,384.1H240.7" class="g1_226"/>
<path d="M237.4,392.5l3.3,5.9m-7.1,-9.6l3.8,3.7m-7.1,-5.9l3.3,2.2m-6.9,-3.4l3.6,1.2m-7,-2l3.4,.8m-7.2,-1.3l3.8,.5m-7.1,-.2l3.3,-.3m-6.9,.5l3.6,-.2m-6.9,1l3.3,-.8m-6.9,2.2l3.6,-1.4m-7.2,3.9l3.6,-2.5m-7.2,5.9l3.6,-3.4m-7.2,10.3l3.6,-6.9M193.4,405l1.5,-5.4m-3.3,13.8l1.8,-8.4m-3.3,21.4l1.5,-13m-12.3,-91l.8,-6.1m-1.5,12.2l.7,-6.1m-1.8,11.1l1.1,-5m-2.9,12.4l1.8,-7.4m-3.5,12l1.7,-4.6m-5.3,10l3.6,-5.4m-7.2,8.6l3.6,-3.2m-7.2,5.2l3.6,-2m-6.9,3.2l3.3,-1.2m-6.9,1.7l3.6,-.5m-7.2,1l3.6,-.5m-7.2,.3l3.6,.2m-6.9,-.5l3.3,.3m-6.6,-1.3l3.3,1m-6.9,-2.4l3.6,1.4m-7.2,-4.1l3.6,2.7M132,349l3.3,3.7m-6.9,-11.1L132,349m-7.2,-22.9l3.6,15.5M124.1,318l.7,8.1m-1,-9.8l.3,1.7M113.3,422.5l.5,3.9m-1.3,-10.8l.8,6.9m-2.6,-16.2l1.8,9.3M109,400.1l1.7,6.2M107.2,396l1.8,4.1m-5.2,-8.8l3.4,4.7m-6.9,-7.9l3.5,3.2m-7.1,-5.2l3.6,2m-7.2,-3l3.6,1m-7.2,-1.7l3.6,.7m-6.9,-1l3.3,.3m-6.9,0l3.6,-.3m-7.2,.8l3.6,-.5m-7.2,1.5l3.6,-1m-6.9,2.7l3.3,-1.7" class="g2_226"/>
</g>
<path d="M81.9,316.4H231.6c5.1,0,9.2,4.1,9.2,9.1v91.7c0,5.1,-4.1,9.2,-9.2,9.2H81.9c-5.1,0,-9.2,-4.1,-9.2,-9.2V325.5c0,-5,4.1,-9.1,9.2,-9.1Z" class="g3_226"/>
<path d="M133.8,408h3.3m-3.3,-73.3h3.3m82.5,38.1v-3.2m-21,3.2v-3.2m-21,3.2v-3.2m-84,3.2v-3.2m63,3.2v-3.2m-22.8,20.1h3.3M114.6,372.8v-3.2M133.8,353h3.3m-1.7,73.6V316.2m-62.8,55H240.8" class="g4_226"/>
<path clip-path="url(#c3_226)" d="M138.5,608.1V727.3" class="g5_226"/>
<path fill-rule="evenodd" d="M138.5,727.3l2.4,-1.6l-2.4,6.5L136,725.7Z" class="g6_226"/>
<path d="M141.5,669.3h-6.1m6.1,27.8h-6.1" class="g5_226"/>
<path d="M94.3,677.6c-.1,.9,-1,1.5,-2,1.3L78.1,677.2c-1,-.2,-1.7,-1,-1.6,-1.8c.1,-.8,1,-1.4,2,-1.3l14.1,1.8c1,.1,1.8,.9,1.7,1.7Z" class="g7_226"/>
<path d="M94.3,641c-.1,.8,-1,1.4,-2,1.3L78.1,640.5c-1,-.1,-1.7,-.9,-1.6,-1.8c.1,-.8,1,-1.4,2,-1.3l14.1,1.8c1,.1,1.8,.9,1.7,1.8Z" class="g7_226"/>
<path d="M94.3,647.1c-.1,.8,-1,1.4,-2,1.3L78.1,646.6c-1,-.1,-1.7,-.9,-1.6,-1.8c.1,-.8,1,-1.4,2,-1.2l14.1,1.7c1,.2,1.8,.9,1.7,1.8Z" class="g7_226"/>
<path d="M94.3,653.2c-.1,.8,-1,1.4,-2,1.3L78.1,652.7c-1,-.1,-1.7,-.9,-1.6,-1.7c.1,-.9,1,-1.5,2,-1.3l14.1,1.7c1,.2,1.8,1,1.7,1.8Z" class="g7_226"/>
<path d="M94.3,659.3c-.1,.8,-1,1.4,-2,1.3L78.1,658.8c-1,-.1,-1.7,-.9,-1.6,-1.7c.1,-.9,1,-1.4,2,-1.3l14.1,1.8c1,.1,1.8,.9,1.7,1.7Z" class="g7_226"/>
<path d="M94.3,665.4c-.1,.8,-1,1.4,-2,1.3L78.1,664.9c-1,-.1,-1.7,-.9,-1.6,-1.7c.1,-.9,1,-1.4,2,-1.3l14.1,1.8c1,.1,1.8,.9,1.7,1.7Z" class="g7_226"/>
<path d="M94.3,671.5c-.1,.9,-1,1.4,-2,1.3L78.1,671c-1,-.1,-1.7,-.9,-1.6,-1.7c.1,-.9,1,-1.4,2,-1.3l14.1,1.8c1,.1,1.8,.9,1.7,1.7Z" class="g7_226"/>
<path d="M94.3,634.9c-.1,.8,-1,1.4,-2,1.3L78.1,634.4c-1,-.2,-1.7,-.9,-1.6,-1.8c.1,-.8,1,-1.4,2,-1.3l14.1,1.8c1,.1,1.8,.9,1.7,1.8Z" class="g7_226"/>
<path fill-rule="evenodd" d="M92.7,636.3l-14,4c-1,.3,-2,-.1,-2.2,-1c-.2,-.8,.4,-1.7,1.4,-2l14,-4c1,-.3,2,.2,2.2,1c.2,.8,-.4,1.7,-1.4,2Z" class="g7_226"/>
<path fill-rule="evenodd" d="M92.6,636.3l-13.8,3.9c-1,.3,-1.9,-.1,-2.2,-.9c-.2,-.8,.4,-1.7,1.4,-1.9l13.8,-4c.9,-.3,1.9,.2,2.1,.9c.3,.8,-.3,1.7,-1.3,2Z" class="g8_226"/>
<path fill-rule="evenodd" d="M92.5,636.3l-13.6,3.8c-.9,.3,-1.9,-.1,-2.1,-.8c-.2,-.8,.4,-1.6,1.3,-1.9l13.6,-3.9c.9,-.3,1.9,.1,2.1,.9c.2,.7,-.4,1.6,-1.3,1.9Z" class="g9_226"/>
<path fill-rule="evenodd" d="M92.3,636.2L79,640.1c-.9,.2,-1.8,-.2,-2,-.9c-.2,-.7,.3,-1.5,1.2,-1.8l13.4,-3.8c.9,-.3,1.8,.1,2,.8c.2,.8,-.3,1.6,-1.3,1.8Z" class="ga_226"/>
<path fill-rule="evenodd" d="M92.2,636.2L79.1,640c-.9,.2,-1.8,-.1,-2,-.8c-.2,-.7,.4,-1.5,1.3,-1.8l13.1,-3.7c.9,-.3,1.7,.1,1.9,.8c.2,.7,-.3,1.5,-1.2,1.7Z" class="gb_226"/>
<path fill-rule="evenodd" d="M92.1,636.2l-12.9,3.7c-.9,.3,-1.7,-.1,-1.9,-.8c-.2,-.6,.3,-1.4,1.2,-1.7l12.9,-3.7c.8,-.2,1.7,.2,1.9,.8c.2,.7,-.4,1.5,-1.2,1.7Z" class="gc_226"/>
<path fill-rule="evenodd" d="M92,636.2l-12.7,3.6c-.9,.3,-1.7,-.1,-1.9,-.7c-.2,-.7,.4,-1.4,1.2,-1.6l12.7,-3.7c.8,-.2,1.6,.1,1.8,.8c.2,.6,-.3,1.4,-1.1,1.6Z" class="gd_226"/>
<path fill-rule="evenodd" d="M91.9,636.2l-12.6,3.6c-.7,.2,-1.5,-.1,-1.7,-.7c-.2,-.7,.3,-1.4,1.1,-1.6l12.5,-3.6c.8,-.2,1.6,.1,1.8,.7c.1,.7,-.4,1.4,-1.1,1.6Z" class="ge_226"/>
<path fill-rule="evenodd" d="M91.7,636.2l-12.3,3.5c-.7,.2,-1.5,-.1,-1.6,-.7c-.2,-.6,.3,-1.3,1,-1.5L91.1,634c.8,-.2,1.5,.1,1.7,.7c.2,.6,-.3,1.3,-1.1,1.5Z" class="gf_226"/>
<path fill-rule="evenodd" d="M91.6,636.2l-12.1,3.4c-.7,.2,-1.4,-.1,-1.6,-.6c-.2,-.6,.3,-1.2,1,-1.5L91,634.1c.7,-.2,1.5,.1,1.6,.6c.2,.6,-.3,1.3,-1,1.5Z" class="gg_226"/>
<path fill-rule="evenodd" d="M91.5,636.2l-11.9,3.4c-.7,.2,-1.4,-.1,-1.5,-.7c-.2,-.5,.2,-1.1,.9,-1.3l11.9,-3.5c.7,-.1,1.4,.1,1.6,.7c.1,.5,-.3,1.2,-1,1.4Z" class="gh_226"/>
<path fill-rule="evenodd" d="M91.4,636.1l-11.7,3.4c-.7,.2,-1.3,-.1,-1.5,-.6c-.1,-.5,.3,-1.1,.9,-1.3l11.7,-3.4c.7,-.2,1.3,.1,1.5,.6c.1,.6,-.3,1.1,-.9,1.3Z" class="gi_226"/>
<path fill-rule="evenodd" d="M91.3,636.1l-11.5,3.3c-.6,.2,-1.3,-.1,-1.4,-.6c-.2,-.5,.2,-1,.9,-1.2l11.4,-3.3c.7,-.2,1.3,.1,1.4,.6c.2,.5,-.2,1,-.8,1.2Z" class="gj_226"/>
<path fill-rule="evenodd" d="M91.1,636.1l-11.2,3.3c-.6,.1,-1.2,-.1,-1.4,-.6c-.1,-.5,.3,-1,.9,-1.2l11.2,-3.2c.6,-.2,1.2,.1,1.4,.5c.1,.5,-.3,1,-.9,1.2Z" class="gk_226"/>
<path fill-rule="evenodd" d="M92.7,642.4l-14,4c-1,.3,-2,-.1,-2.2,-.9c-.2,-.9,.4,-1.8,1.4,-2l14,-4c1,-.3,2,.1,2.2,.9c.2,.8,-.4,1.7,-1.4,2Z" class="g7_226"/>
<path fill-rule="evenodd" d="M92.6,642.4l-13.8,3.9c-1,.3,-1.9,-.1,-2.2,-.9c-.2,-.8,.4,-1.6,1.4,-1.9l13.8,-4c.9,-.2,1.9,.2,2.1,.9c.3,.8,-.3,1.7,-1.3,2Z" class="g8_226"/>
<path fill-rule="evenodd" d="M92.5,642.4l-13.6,3.8c-.9,.3,-1.9,-.1,-2.1,-.8c-.2,-.8,.4,-1.6,1.3,-1.9l13.6,-3.9c.9,-.3,1.9,.1,2.1,.9c.2,.8,-.4,1.6,-1.3,1.9Z" class="g9_226"/>
<path fill-rule="evenodd" d="M92.3,642.4L79,646.2c-.9,.2,-1.8,-.1,-2,-.9c-.2,-.7,.3,-1.5,1.2,-1.8l13.4,-3.8c.9,-.3,1.8,.1,2,.9c.2,.7,-.3,1.5,-1.3,1.8Z" class="ga_226"/>
<path fill-rule="evenodd" d="M92.2,642.3l-13.1,3.8c-.9,.3,-1.8,-.1,-2,-.8c-.2,-.7,.4,-1.5,1.3,-1.8l13.1,-3.7c.9,-.3,1.7,.1,1.9,.8c.2,.7,-.3,1.5,-1.2,1.7Z" class="gb_226"/>
<path fill-rule="evenodd" d="M92.1,642.3L79.2,646c-.9,.3,-1.7,-.1,-1.9,-.8c-.2,-.6,.3,-1.4,1.2,-1.6l12.9,-3.8c.8,-.2,1.7,.2,1.9,.8c.2,.7,-.4,1.5,-1.2,1.7Z" class="gc_226"/>
<path fill-rule="evenodd" d="M92,642.3L79.3,646c-.9,.2,-1.7,-.1,-1.9,-.8c-.2,-.6,.4,-1.4,1.2,-1.6l12.7,-3.7c.8,-.2,1.6,.1,1.8,.8c.2,.7,-.3,1.4,-1.1,1.6Z" class="gd_226"/>
<path fill-rule="evenodd" d="M91.9,642.3l-12.6,3.6c-.7,.2,-1.5,-.1,-1.7,-.7c-.2,-.7,.3,-1.4,1.1,-1.6L91.2,640c.8,-.2,1.6,.1,1.8,.7c.1,.7,-.4,1.4,-1.1,1.6Z" class="ge_226"/>
<path fill-rule="evenodd" d="M91.7,642.3l-12.3,3.5c-.7,.2,-1.5,-.1,-1.6,-.7c-.2,-.6,.3,-1.2,1,-1.5l12.3,-3.5c.8,-.2,1.5,.1,1.7,.7c.2,.6,-.3,1.3,-1.1,1.5Z" class="gf_226"/>
<path fill-rule="evenodd" d="M91.6,642.3l-12.1,3.4c-.7,.3,-1.4,0,-1.6,-.6c-.2,-.6,.3,-1.2,1,-1.4L91,640.2c.7,-.2,1.5,.1,1.6,.7c.2,.5,-.3,1.2,-1,1.4Z" class="gg_226"/>
<path fill-rule="evenodd" d="M91.5,642.3l-11.9,3.4c-.7,.2,-1.4,-.1,-1.5,-.7c-.2,-.5,.2,-1.1,.9,-1.3l11.9,-3.4c.7,-.2,1.4,.1,1.6,.6c.1,.6,-.3,1.2,-1,1.4Z" class="gh_226"/>
<path fill-rule="evenodd" d="M91.4,642.2l-11.7,3.4c-.7,.2,-1.3,-.1,-1.5,-.6c-.1,-.5,.3,-1.1,.9,-1.3l11.7,-3.4c.7,-.1,1.3,.1,1.5,.6c.1,.6,-.3,1.1,-.9,1.3Z" class="gi_226"/>
<path fill-rule="evenodd" d="M91.3,642.2l-11.5,3.3c-.6,.2,-1.3,0,-1.4,-.5c-.2,-.5,.2,-1.1,.9,-1.3l11.4,-3.3c.7,-.2,1.3,.1,1.4,.6c.2,.5,-.2,1,-.8,1.2Z" class="gj_226"/>
<path fill-rule="evenodd" d="M91.1,642.2l-11.2,3.3c-.6,.1,-1.2,-.1,-1.4,-.6c-.1,-.5,.3,-1,.9,-1.2l11.2,-3.2c.6,-.2,1.2,.1,1.4,.6c.1,.4,-.3,.9,-.9,1.1Z" class="gk_226"/>
<path fill-rule="evenodd" d="M92.7,648.5l-14,4c-1,.3,-2,-.1,-2.2,-.9c-.2,-.8,.4,-1.7,1.4,-2l14,-4c1,-.3,2,.1,2.2,.9c.2,.8,-.4,1.7,-1.4,2Z" class="g7_226"/>
<path fill-rule="evenodd" d="M92.6,648.5l-13.8,3.9c-1,.3,-1.9,-.1,-2.2,-.9c-.2,-.8,.4,-1.6,1.4,-1.9l13.8,-4c.9,-.2,1.9,.2,2.1,1c.3,.7,-.3,1.6,-1.3,1.9Z" class="g8_226"/>
<path fill-rule="evenodd" d="M92.5,648.5l-13.6,3.9c-.9,.2,-1.9,-.2,-2.1,-.9c-.2,-.8,.4,-1.6,1.3,-1.9l13.6,-3.9c.9,-.2,1.9,.2,2.1,.9c.2,.8,-.4,1.6,-1.3,1.9Z" class="g9_226"/>
<path fill-rule="evenodd" d="M92.3,648.5L79,652.3c-.9,.2,-1.8,-.1,-2,-.9c-.2,-.7,.3,-1.5,1.2,-1.8l13.4,-3.8c.9,-.3,1.8,.1,2,.9c.2,.7,-.3,1.5,-1.3,1.8Z" class="ga_226"/>
<path fill-rule="evenodd" d="M92.2,648.4l-13.1,3.8c-.9,.3,-1.8,-.1,-2,-.8c-.2,-.7,.4,-1.5,1.3,-1.7l13.1,-3.8c.9,-.3,1.7,.1,1.9,.8c.2,.7,-.3,1.5,-1.2,1.7Z" class="gb_226"/>
<path fill-rule="evenodd" d="M92.1,648.4l-12.9,3.7c-.9,.3,-1.7,-.1,-1.9,-.7c-.2,-.7,.3,-1.5,1.2,-1.7L91.4,646c.8,-.3,1.7,.1,1.9,.8c.2,.6,-.4,1.4,-1.2,1.6Z" class="gc_226"/>
<path fill-rule="evenodd" d="M92,648.4l-12.7,3.7c-.9,.2,-1.7,-.1,-1.9,-.8c-.2,-.6,.4,-1.4,1.2,-1.6l12.7,-3.6c.8,-.3,1.6,.1,1.8,.7c.2,.7,-.3,1.4,-1.1,1.6Z" class="gd_226"/>
<path fill-rule="evenodd" d="M91.9,648.4L79.3,652c-.7,.2,-1.5,-.1,-1.7,-.7c-.2,-.7,.3,-1.4,1.1,-1.6l12.5,-3.6c.8,-.2,1.6,.1,1.8,.8c.1,.6,-.4,1.3,-1.1,1.5Z" class="ge_226"/>
<path fill-rule="evenodd" d="M91.7,648.4l-12.3,3.5c-.7,.2,-1.5,-.1,-1.6,-.7c-.2,-.6,.3,-1.2,1,-1.5l12.3,-3.5c.8,-.2,1.5,.1,1.7,.7c.2,.6,-.3,1.3,-1.1,1.5Z" class="gf_226"/>
<path fill-rule="evenodd" d="M91.6,648.4l-12.1,3.5c-.7,.2,-1.4,-.1,-1.6,-.7c-.2,-.6,.3,-1.2,1,-1.4L91,646.3c.7,-.2,1.5,.1,1.6,.7c.2,.5,-.3,1.2,-1,1.4Z" class="gg_226"/>
<path fill-rule="evenodd" d="M91.5,648.4l-11.9,3.4c-.7,.2,-1.4,-.1,-1.5,-.6c-.2,-.6,.2,-1.2,.9,-1.4l11.9,-3.4c.7,-.2,1.4,.1,1.6,.6c.1,.6,-.3,1.2,-1,1.4Z" class="gh_226"/>
<path fill-rule="evenodd" d="M91.4,648.4l-11.7,3.3c-.7,.2,-1.3,-.1,-1.5,-.6c-.1,-.5,.3,-1.1,.9,-1.3l11.7,-3.4c.7,-.1,1.3,.1,1.5,.7c.1,.5,-.3,1.1,-.9,1.3Z" class="gi_226"/>
<path fill-rule="evenodd" d="M91.3,648.3l-11.5,3.3c-.6,.2,-1.3,0,-1.4,-.5c-.2,-.5,.2,-1.1,.9,-1.3l11.4,-3.3c.7,-.1,1.3,.1,1.4,.6c.2,.5,-.2,1.1,-.8,1.2Z" class="gj_226"/>
<path fill-rule="evenodd" d="M91.1,648.3l-11.2,3.3c-.6,.1,-1.2,-.1,-1.4,-.6c-.1,-.4,.3,-1,.9,-1.1l11.2,-3.3c.6,-.2,1.2,.1,1.4,.6c.1,.4,-.3,1,-.9,1.1Z" class="gk_226"/>
<path fill-rule="evenodd" d="M92.7,654.6l-14,4c-1,.3,-2,-.1,-2.2,-.9c-.2,-.8,.4,-1.7,1.4,-2l14,-4c1,-.3,2,.1,2.2,.9c.2,.8,-.4,1.7,-1.4,2Z" class="g7_226"/>
<path fill-rule="evenodd" d="M92.6,654.6l-13.8,3.9c-1,.3,-1.9,-.1,-2.2,-.9c-.2,-.7,.4,-1.6,1.4,-1.9l13.8,-3.9c.9,-.3,1.9,.1,2.1,.9c.3,.8,-.3,1.6,-1.3,1.9Z" class="g8_226"/>
<path fill-rule="evenodd" d="M92.5,654.6l-13.6,3.9c-.9,.2,-1.9,-.2,-2.1,-.9c-.2,-.8,.4,-1.6,1.3,-1.9l13.6,-3.9c.9,-.2,1.9,.2,2.1,.9c.2,.8,-.4,1.6,-1.3,1.9Z" class="g9_226"/>
<path fill-rule="evenodd" d="M92.3,654.6L79,658.4c-.9,.3,-1.8,-.1,-2,-.8c-.2,-.8,.3,-1.6,1.2,-1.9l13.4,-3.8c.9,-.2,1.8,.1,2,.9c.2,.7,-.3,1.5,-1.3,1.8Z" class="ga_226"/>
<path fill-rule="evenodd" d="M92.2,654.6l-13.1,3.7c-.9,.3,-1.8,-.1,-2,-.8c-.2,-.7,.4,-1.5,1.3,-1.7L91.5,652c.9,-.3,1.7,.1,1.9,.8c.2,.7,-.3,1.5,-1.2,1.8Z" class="gb_226"/>
<path fill-rule="evenodd" d="M92.1,654.5l-12.9,3.8c-.9,.2,-1.7,-.1,-1.9,-.8c-.2,-.7,.3,-1.5,1.2,-1.7l12.9,-3.7c.8,-.3,1.7,.1,1.9,.8c.2,.7,-.4,1.4,-1.2,1.6Z" class="gc_226"/>
<path fill-rule="evenodd" d="M92,654.5l-12.7,3.7c-.9,.2,-1.7,-.1,-1.9,-.8c-.2,-.6,.4,-1.4,1.2,-1.6l12.7,-3.6c.8,-.3,1.6,.1,1.8,.7c.2,.7,-.3,1.4,-1.1,1.6Z" class="gd_226"/>
<path fill-rule="evenodd" d="M91.9,654.5l-12.6,3.6c-.7,.2,-1.5,-.1,-1.7,-.7c-.2,-.7,.3,-1.3,1.1,-1.6l12.5,-3.6c.8,-.2,1.6,.1,1.8,.8c.1,.6,-.4,1.3,-1.1,1.5Z" class="ge_226"/>
<path fill-rule="evenodd" d="M91.7,654.5L79.4,658c-.7,.3,-1.5,-.1,-1.6,-.7c-.2,-.6,.3,-1.2,1,-1.4l12.3,-3.6c.8,-.2,1.5,.1,1.7,.7c.2,.6,-.3,1.3,-1.1,1.5Z" class="gf_226"/>
<path fill-rule="evenodd" d="M91.6,654.5L79.5,658c-.7,.2,-1.4,-.1,-1.6,-.7c-.2,-.6,.3,-1.2,1,-1.4L91,652.4c.7,-.2,1.5,.1,1.6,.7c.2,.5,-.3,1.2,-1,1.4Z" class="gg_226"/>
<path fill-rule="evenodd" d="M91.5,654.5l-11.9,3.4c-.7,.2,-1.4,-.1,-1.5,-.6c-.2,-.6,.2,-1.2,.9,-1.4l11.9,-3.4c.7,-.2,1.4,.1,1.6,.6c.1,.6,-.3,1.2,-1,1.4Z" class="gh_226"/>
<path fill-rule="evenodd" d="M91.4,654.5l-11.7,3.3c-.7,.2,-1.3,-.1,-1.5,-.6c-.1,-.5,.3,-1.1,.9,-1.3l11.7,-3.3c.7,-.2,1.3,.1,1.5,.6c.1,.5,-.3,1.1,-.9,1.3Z" class="gi_226"/>
<path fill-rule="evenodd" d="M91.3,654.5l-11.5,3.3c-.6,.1,-1.3,-.1,-1.4,-.6c-.2,-.5,.2,-1.1,.9,-1.2l11.4,-3.3c.7,-.2,1.3,0,1.4,.5c.2,.5,-.2,1.1,-.8,1.3Z" class="gj_226"/>
<path fill-rule="evenodd" d="M91.1,654.4l-11.2,3.3c-.6,.2,-1.2,-.1,-1.4,-.6c-.1,-.4,.3,-1,.9,-1.1l11.2,-3.3c.6,-.1,1.2,.1,1.4,.6c.1,.5,-.3,1,-.9,1.1Z" class="gk_226"/>
<path fill-rule="evenodd" d="M92.7,660.7l-14,4c-1,.3,-2,-.1,-2.2,-.9c-.2,-.8,.4,-1.7,1.4,-2l14,-4c1,-.3,2,.1,2.2,.9c.2,.8,-.4,1.7,-1.4,2Z" class="g7_226"/>
<path fill-rule="evenodd" d="M92.6,660.7l-13.8,4c-1,.2,-1.9,-.2,-2.2,-1c-.2,-.7,.4,-1.6,1.4,-1.9l13.8,-3.9c.9,-.3,1.9,.1,2.1,.9c.3,.8,-.3,1.6,-1.3,1.9Z" class="g8_226"/>
<path fill-rule="evenodd" d="M92.5,660.7l-13.6,3.9c-.9,.3,-1.9,-.1,-2.1,-.9c-.2,-.8,.4,-1.6,1.3,-1.9L91.7,658c.9,-.3,1.9,.1,2.1,.8c.2,.8,-.4,1.6,-1.3,1.9Z" class="g9_226"/>
<path fill-rule="evenodd" d="M92.3,660.7L79,664.5c-.9,.3,-1.8,-.1,-2,-.8c-.2,-.8,.3,-1.6,1.2,-1.9L91.6,658c.9,-.2,1.8,.2,2,.9c.2,.7,-.3,1.5,-1.3,1.8Z" class="ga_226"/>
<path fill-rule="evenodd" d="M92.2,660.7l-13.1,3.7c-.9,.3,-1.8,-.1,-2,-.8c-.2,-.7,.4,-1.5,1.3,-1.7l13.1,-3.8c.9,-.2,1.7,.1,1.9,.8c.2,.7,-.3,1.5,-1.2,1.8Z" class="gb_226"/>
<path fill-rule="evenodd" d="M92.1,660.7l-12.9,3.7c-.9,.2,-1.7,-.1,-1.9,-.8c-.2,-.7,.3,-1.5,1.2,-1.7l12.9,-3.7c.8,-.3,1.7,.1,1.9,.8c.2,.7,-.4,1.4,-1.2,1.7Z" class="gc_226"/>
<path fill-rule="evenodd" d="M92,660.6l-12.7,3.7c-.9,.2,-1.7,-.1,-1.9,-.8c-.2,-.6,.4,-1.3,1.2,-1.6l12.7,-3.6c.8,-.3,1.6,.1,1.8,.7c.2,.7,-.3,1.4,-1.1,1.6Z" class="gd_226"/>
<path fill-rule="evenodd" d="M91.9,660.6l-12.6,3.6c-.7,.2,-1.5,-.1,-1.7,-.7c-.2,-.6,.3,-1.3,1.1,-1.6l12.5,-3.6c.8,-.2,1.6,.2,1.8,.8c.1,.6,-.4,1.3,-1.1,1.5Z" class="ge_226"/>
<path fill-rule="evenodd" d="M91.7,660.6l-12.3,3.6c-.7,.2,-1.5,-.1,-1.6,-.7c-.2,-.6,.3,-1.3,1,-1.5l12.3,-3.6c.8,-.2,1.5,.1,1.7,.7c.2,.6,-.3,1.3,-1.1,1.5Z" class="gf_226"/>
<path fill-rule="evenodd" d="M91.6,660.6l-12.1,3.5c-.7,.2,-1.4,-.1,-1.6,-.7c-.2,-.6,.3,-1.2,1,-1.4L91,658.5c.7,-.2,1.5,.1,1.6,.7c.2,.6,-.3,1.2,-1,1.4Z" class="gg_226"/>
<path fill-rule="evenodd" d="M91.5,660.6L79.6,664c-.7,.2,-1.4,-.1,-1.5,-.6c-.2,-.6,.2,-1.2,.9,-1.4l11.9,-3.4c.7,-.2,1.4,.1,1.6,.6c.1,.6,-.3,1.2,-1,1.4Z" class="gh_226"/>
<path fill-rule="evenodd" d="M91.4,660.6l-11.7,3.3c-.7,.2,-1.3,0,-1.5,-.6c-.1,-.5,.3,-1.1,.9,-1.3l11.7,-3.3c.7,-.2,1.3,.1,1.5,.6c.1,.5,-.3,1.1,-.9,1.3Z" class="gi_226"/>
<path fill-rule="evenodd" d="M91.3,660.6l-11.5,3.3c-.6,.1,-1.3,-.1,-1.4,-.6c-.2,-.5,.2,-1.1,.9,-1.2l11.4,-3.3c.7,-.2,1.3,0,1.4,.5c.2,.5,-.2,1.1,-.8,1.3Z" class="gj_226"/>
<path fill-rule="evenodd" d="M91.1,660.5l-11.2,3.3c-.6,.2,-1.2,-.1,-1.4,-.5c-.1,-.5,.3,-1.1,.9,-1.2l11.2,-3.3c.6,-.1,1.2,.1,1.4,.6c.1,.5,-.3,1,-.9,1.1Z" class="gk_226"/>
<path fill-rule="evenodd" d="M92.7,666.8l-14,4c-1,.3,-2,-.1,-2.2,-.9c-.2,-.8,.4,-1.7,1.4,-2l14,-4c1,-.3,2,.1,2.2,.9c.2,.9,-.4,1.7,-1.4,2Z" class="g7_226"/>
<path fill-rule="evenodd" d="M92.6,666.8l-13.8,4c-1,.2,-1.9,-.2,-2.2,-.9c-.2,-.8,.4,-1.7,1.4,-2L91.8,664c.9,-.3,1.9,.1,2.1,.9c.3,.8,-.3,1.6,-1.3,1.9Z" class="g8_226"/>
<path fill-rule="evenodd" d="M92.5,666.8l-13.6,3.9c-.9,.3,-1.9,-.1,-2.1,-.9c-.2,-.7,.4,-1.6,1.3,-1.9l13.6,-3.8c.9,-.3,1.9,.1,2.1,.8c.2,.8,-.4,1.6,-1.3,1.9Z" class="g9_226"/>
<path fill-rule="evenodd" d="M92.3,666.8L79,670.6c-.9,.3,-1.8,-.1,-2,-.8c-.2,-.8,.3,-1.6,1.2,-1.8l13.4,-3.9c.9,-.2,1.8,.2,2,.9c.2,.7,-.3,1.5,-1.3,1.8Z" class="ga_226"/>
<path fill-rule="evenodd" d="M92.2,666.8l-13.1,3.8c-.9,.2,-1.8,-.2,-2,-.9c-.2,-.7,.4,-1.5,1.3,-1.7l13.1,-3.8c.9,-.2,1.7,.1,1.9,.8c.2,.7,-.3,1.5,-1.2,1.8Z" class="gb_226"/>
<path fill-rule="evenodd" d="M92.1,666.8l-12.9,3.7c-.9,.2,-1.7,-.1,-1.9,-.8c-.2,-.7,.3,-1.5,1.2,-1.7l12.9,-3.7c.8,-.3,1.7,.1,1.9,.8c.2,.7,-.4,1.4,-1.2,1.7Z" class="gc_226"/>
<path fill-rule="evenodd" d="M92,666.8l-12.7,3.6c-.9,.2,-1.7,-.1,-1.9,-.8c-.2,-.6,.4,-1.3,1.2,-1.6l12.7,-3.6c.8,-.3,1.6,.1,1.8,.7c.2,.7,-.3,1.4,-1.1,1.7Z" class="gd_226"/>
<path fill-rule="evenodd" d="M91.9,666.7l-12.6,3.6c-.7,.3,-1.5,-.1,-1.7,-.7c-.2,-.6,.3,-1.3,1.1,-1.5l12.5,-3.6c.8,-.3,1.6,.1,1.8,.7c.1,.6,-.4,1.3,-1.1,1.5Z" class="ge_226"/>
<path fill-rule="evenodd" d="M91.7,666.7l-12.3,3.6c-.7,.2,-1.5,-.1,-1.6,-.7c-.2,-.6,.3,-1.3,1,-1.5l12.3,-3.6c.8,-.2,1.5,.1,1.7,.7c.2,.7,-.3,1.3,-1.1,1.5Z" class="gf_226"/>
<path fill-rule="evenodd" d="M91.6,666.7l-12.1,3.5c-.7,.2,-1.4,-.1,-1.6,-.7c-.2,-.5,.3,-1.2,1,-1.4L91,664.6c.7,-.2,1.5,.1,1.6,.7c.2,.6,-.3,1.2,-1,1.4Z" class="gg_226"/>
<path fill-rule="evenodd" d="M91.5,666.7l-11.9,3.4c-.7,.2,-1.4,-.1,-1.5,-.6c-.2,-.6,.2,-1.2,.9,-1.4l11.9,-3.4c.7,-.2,1.4,.1,1.6,.6c.1,.6,-.3,1.2,-1,1.4Z" class="gh_226"/>
<path fill-rule="evenodd" d="M91.4,666.7l-11.7,3.4c-.7,.2,-1.3,-.1,-1.5,-.7c-.1,-.5,.3,-1.1,.9,-1.3l11.7,-3.3c.7,-.2,1.3,.1,1.5,.6c.1,.5,-.3,1.1,-.9,1.3Z" class="gi_226"/>
<path fill-rule="evenodd" d="M91.3,666.7L79.8,670c-.6,.2,-1.3,-.1,-1.4,-.6c-.2,-.5,.2,-1.1,.9,-1.2l11.4,-3.3c.7,-.2,1.3,0,1.4,.5c.2,.5,-.2,1.1,-.8,1.3Z" class="gj_226"/>
<path fill-rule="evenodd" d="M91.1,666.7l-11.2,3.2c-.6,.2,-1.2,-.1,-1.4,-.5c-.1,-.5,.3,-1,.9,-1.2l11.2,-3.3c.6,-.1,1.2,.1,1.4,.6c.1,.5,-.3,1,-.9,1.2Z" class="gk_226"/>
<path fill-rule="evenodd" d="M92.7,672.9l-14,4c-1,.3,-2,-.1,-2.2,-.9c-.2,-.8,.4,-1.7,1.4,-2l14,-4c1,-.3,2,.1,2.2,1c.2,.8,-.4,1.6,-1.4,1.9Z" class="g7_226"/>
<path fill-rule="evenodd" d="M92.6,672.9l-13.8,4c-1,.3,-1.9,-.2,-2.2,-.9c-.2,-.8,.4,-1.7,1.4,-2l13.8,-3.9c.9,-.3,1.9,.1,2.1,.9c.3,.8,-.3,1.6,-1.3,1.9Z" class="g8_226"/>
<path fill-rule="evenodd" d="M92.5,672.9l-13.6,3.9c-.9,.3,-1.9,-.1,-2.1,-.9c-.2,-.7,.4,-1.6,1.3,-1.8l13.6,-3.9c.9,-.3,1.9,.1,2.1,.8c.2,.8,-.4,1.6,-1.3,1.9Z" class="g9_226"/>
<path fill-rule="evenodd" d="M92.3,672.9L79,676.7c-.9,.3,-1.8,-.1,-2,-.8c-.2,-.7,.3,-1.6,1.2,-1.8l13.4,-3.8c.9,-.3,1.8,.1,2,.8c.2,.7,-.3,1.5,-1.3,1.8Z" class="ga_226"/>
<path fill-rule="evenodd" d="M92.2,672.9l-13.1,3.8c-.9,.2,-1.8,-.2,-2,-.9c-.2,-.7,.4,-1.4,1.3,-1.7l13.1,-3.8c.9,-.2,1.7,.2,1.9,.9c.2,.7,-.3,1.4,-1.2,1.7Z" class="gb_226"/>
<path fill-rule="evenodd" d="M92.1,672.9l-12.9,3.7c-.9,.2,-1.7,-.1,-1.9,-.8c-.2,-.7,.3,-1.4,1.2,-1.7l12.9,-3.7c.8,-.2,1.7,.1,1.9,.8c.2,.7,-.4,1.4,-1.2,1.7Z" class="gc_226"/>
<path fill-rule="evenodd" d="M92,672.9l-12.7,3.6c-.9,.3,-1.7,-.1,-1.9,-.7c-.2,-.7,.4,-1.4,1.2,-1.7l12.7,-3.6c.8,-.2,1.6,.1,1.8,.8c.2,.6,-.3,1.3,-1.1,1.6Z" class="gd_226"/>
<path fill-rule="evenodd" d="M91.9,672.8l-12.6,3.7c-.7,.2,-1.5,-.2,-1.7,-.8c-.2,-.6,.3,-1.3,1.1,-1.5l12.5,-3.6c.8,-.3,1.6,.1,1.8,.7c.1,.6,-.4,1.3,-1.1,1.5Z" class="ge_226"/>
<path fill-rule="evenodd" d="M91.7,672.8l-12.3,3.6c-.7,.2,-1.5,-.1,-1.6,-.7c-.2,-.6,.3,-1.3,1,-1.5l12.3,-3.6c.8,-.2,1.5,.2,1.7,.8c.2,.6,-.3,1.2,-1.1,1.4Z" class="gf_226"/>
<path fill-rule="evenodd" d="M91.6,672.8l-12.1,3.5c-.7,.2,-1.4,-.1,-1.6,-.7c-.2,-.5,.3,-1.2,1,-1.4L91,670.7c.7,-.2,1.5,.1,1.6,.7c.2,.6,-.3,1.2,-1,1.4Z" class="gg_226"/>
<path fill-rule="evenodd" d="M91.5,672.8l-11.9,3.4c-.7,.2,-1.4,-.1,-1.5,-.6c-.2,-.6,.2,-1.2,.9,-1.4l11.9,-3.4c.7,-.2,1.4,.1,1.6,.7c.1,.5,-.3,1.1,-1,1.3Z" class="gh_226"/>
<path fill-rule="evenodd" d="M91.4,672.8l-11.7,3.4c-.7,.2,-1.3,-.1,-1.5,-.6c-.1,-.6,.3,-1.1,.9,-1.3l11.7,-3.4c.7,-.2,1.3,.1,1.5,.6c.1,.5,-.3,1.1,-.9,1.3Z" class="gi_226"/>
<path fill-rule="evenodd" d="M91.3,672.8l-11.5,3.3c-.6,.2,-1.3,-.1,-1.4,-.6c-.2,-.5,.2,-1,.9,-1.2L90.7,671c.7,-.2,1.3,.1,1.4,.5c.2,.6,-.2,1.1,-.8,1.3Z" class="gj_226"/>
<path fill-rule="evenodd" d="M91.1,672.8L79.9,676c-.6,.2,-1.2,-.1,-1.4,-.5c-.1,-.5,.3,-1,.9,-1.2l11.2,-3.2c.6,-.2,1.2,0,1.4,.5c.1,.5,-.3,1,-.9,1.2Z" class="gk_226"/>
<path fill-rule="evenodd" d="M78.8,634.3c-1,.2,-2,-.2,-2.2,-1c-.3,-.8,.4,-1.7,1.4,-2l3.9,-1c.7,-.2,1,-.4,1,-1.1V623H86v8.1c0,.8,-.4,1.3,-1,1.5Z" class="g7_226"/>
<path fill-rule="evenodd" d="M78.8,634.2c-.9,.3,-1.9,-.1,-2.1,-.9c-.2,-.8,.4,-1.6,1.3,-1.9l4,-1.1c.7,-.1,1,-.4,1,-1.1V623h2.9v8.1c0,.8,-.4,1.3,-.9,1.4Z" class="g8_226"/>
<path fill-rule="evenodd" d="M78.8,634.1c-.9,.3,-1.8,-.1,-2,-.9c-.2,-.7,.4,-1.5,1.3,-1.8l4,-1c.6,-.2,.9,-.4,.9,-1.1V623h2.8v8.1c0,.7,-.3,1.2,-.9,1.4Z" class="g9_226"/>
<path fill-rule="evenodd" d="M78.9,634c-.9,.3,-1.8,-.1,-2,-.8c-.2,-.7,.4,-1.4,1.2,-1.7l4.1,-1.1c.6,-.1,.9,-.4,.9,-1V623h2.6v8.1c0,.7,-.3,1.1,-.8,1.3Z" class="ga_226"/>
<path fill-rule="evenodd" d="M78.9,634c-.9,.2,-1.7,-.2,-1.9,-.8c-.2,-.7,.4,-1.4,1.2,-1.6l4.1,-1.1c.6,-.2,.8,-.4,.8,-1V623h2.5v8.1c0,.7,-.3,1.1,-.8,1.2Z" class="gb_226"/>
<path fill-rule="evenodd" d="M78.9,633.9c-.8,.2,-1.6,-.1,-1.7,-.8c-.2,-.6,.3,-1.3,1,-1.5l4.2,-1.1c.6,-.1,.8,-.4,.8,-.9V623h2.3v8.1c0,.6,-.2,1,-.7,1.1Z" class="gc_226"/>
<path fill-rule="evenodd" d="M78.9,633.8c-.7,.2,-1.5,-.1,-1.6,-.7c-.2,-.6,.3,-1.2,1,-1.4l4.2,-1.2c.5,-.1,.8,-.3,.8,-.8V623h2.2v8.1c0,.6,-.3,1,-.7,1.1Z" class="gd_226"/>
<path fill-rule="evenodd" d="M78.9,633.7c-.7,.2,-1.3,-.1,-1.5,-.6c-.2,-.6,.3,-1.2,1,-1.4l4.2,-1.1c.5,-.2,.7,-.3,.7,-.8V623h2.1v8.1c0,.5,-.3,.9,-.7,1Z" class="ge_226"/>
<path fill-rule="evenodd" d="M78.9,633.6c-.6,.2,-1.2,0,-1.4,-.6c-.1,-.5,.3,-1,.9,-1.2l4.3,-1.2c.5,-.1,.7,-.3,.7,-.7V623h1.9v8.1c0,.5,-.2,.8,-.6,.9Z" class="gf_226"/>
<path fill-rule="evenodd" d="M78.9,633.6c-.5,.1,-1.1,-.1,-1.3,-.6c-.1,-.5,.3,-1,.9,-1.1l4.3,-1.3c.5,-.1,.6,-.2,.6,-.6v-7h1.8v8.1c0,.5,-.2,.8,-.6,.8Z" class="gg_226"/>
<path fill-rule="evenodd" d="M79,633.5c-.6,.1,-1.1,-.1,-1.2,-.5c-.2,-.5,.2,-.9,.7,-1.1l4.4,-1.2c.4,-.1,.6,-.3,.6,-.7v-7h1.6v8.1c0,.4,-.2,.7,-.5,.8Z" class="gh_226"/>
<path fill-rule="evenodd" d="M79,633.4c-.5,.1,-1,-.1,-1.1,-.5c-.1,-.3,.2,-.8,.7,-.9L83,630.7c.4,-.1,.6,-.2,.6,-.6V623H85v8.1c0,.4,-.1,.6,-.4,.7Z" class="gi_226"/>
<path fill-rule="evenodd" d="M79,633.3c-.4,.1,-.9,0,-1,-.4c-.1,-.3,.2,-.7,.6,-.9l4.6,-1.3c.3,0,.4,-.2,.4,-.5V623h1.3v8.1c0,.3,-.1,.6,-.4,.6Z" class="gj_226"/>
<path fill-rule="evenodd" d="M79,633.2c-.4,.2,-.8,0,-.9,-.3c-.1,-.3,.2,-.7,.6,-.8l4.6,-1.3c.3,-.1,.4,-.2,.4,-.5V623h1.2v8.1c0,.3,-.2,.5,-.4,.5Z" class="gk_226"/>
<path fill-rule="evenodd" d="M92,675.8c1,-.3,2,.1,2.3,.9c.2,.8,-.4,1.7,-1.5,2l-3.8,1c-.8,.2,-1.1,.5,-1.1,1.2V687h-3v-8.1c0,-.8,.3,-1.3,.9,-1.5Z" class="g7_226"/>
<path fill-rule="evenodd" d="M92,675.8c1,-.2,1.9,.2,2.1,.9c.3,.8,-.3,1.7,-1.3,2l-4,1c-.7,.1,-.9,.4,-.9,1.1V687h-3v-8.1c0,-.8,.4,-1.2,1,-1.4Z" class="g8_226"/>
<path fill-rule="evenodd" d="M92,675.9c.9,-.2,1.8,.2,2,.9c.2,.7,-.3,1.5,-1.3,1.8l-4,1c-.6,.2,-.9,.5,-.9,1.1V687H85v-8.1c0,-.7,.3,-1.2,.9,-1.3Z" class="g9_226"/>
<path fill-rule="evenodd" d="M92,676c.8,-.2,1.7,.1,1.9,.8c.2,.7,-.3,1.5,-1.2,1.7l-4.1,1.1c-.6,.2,-.9,.4,-.9,1V687H85.1v-8.1c0,-.7,.3,-1.1,.8,-1.3Z" class="ga_226"/>
<path fill-rule="evenodd" d="M91.9,676.1c.9,-.3,1.7,.1,1.9,.8c.2,.6,-.4,1.3,-1.2,1.6l-4.1,1.1c-.6,.1,-.8,.4,-.8,.9V687H85.2v-8.1c0,-.6,.3,-1,.8,-1.2Z" class="gb_226"/>
<path fill-rule="evenodd" d="M91.9,676.2c.8,-.3,1.6,.1,1.8,.7c.1,.6,-.4,1.3,-1.1,1.5l-4.2,1.1c-.6,.2,-.8,.4,-.8,.9V687H85.3v-8.1c0,-.6,.2,-1,.7,-1.1Z" class="gc_226"/>
<path fill-rule="evenodd" d="M91.9,676.2c.7,-.2,1.5,.1,1.6,.7c.2,.6,-.3,1.2,-1,1.4l-4.2,1.2c-.5,.1,-.7,.3,-.7,.8V687H85.4v-8.1c0,-.5,.2,-.9,.6,-1Z" class="gd_226"/>
<path fill-rule="evenodd" d="M91.9,676.3c.7,-.2,1.4,.1,1.5,.7c.2,.5,-.3,1.1,-.9,1.3l-4.3,1.2c-.5,.1,-.7,.3,-.7,.8V687H85.4v-8.1c0,-.5,.3,-.9,.7,-.9Z" class="ge_226"/>
<path fill-rule="evenodd" d="M91.9,676.4c.6,-.2,1.2,.1,1.4,.6c.1,.5,-.3,1,-.9,1.2l-4.3,1.2c-.5,.1,-.7,.3,-.7,.8V687H85.5v-8.1c0,-.5,.2,-.8,.6,-.9Z" class="gf_226"/>
<path fill-rule="evenodd" d="M91.9,676.5c.5,-.2,1.1,0,1.3,.5c.1,.5,-.3,1,-.9,1.2L88,679.4c-.5,.1,-.6,.3,-.6,.7V687H85.6v-8c0,-.5,.2,-.8,.6,-.9Z" class="gg_226"/>
<path fill-rule="evenodd" d="M91.8,676.5c.6,-.1,1.1,.1,1.2,.5c.2,.5,-.2,1,-.7,1.1l-4.4,1.3c-.4,.1,-.6,.2,-.6,.6v7H85.7v-8c0,-.5,.2,-.8,.5,-.8Z" class="gh_226"/>
<path fill-rule="evenodd" d="M91.8,676.6c.5,-.1,1,.1,1.1,.5c.1,.4,-.2,.8,-.7,1l-4.4,1.2c-.4,.1,-.5,.3,-.5,.6V687H85.8v-8c0,-.4,.1,-.7,.4,-.8Z" class="gi_226"/>
<path fill-rule="evenodd" d="M91.8,676.7c.5,-.1,.9,.1,1,.4c.1,.4,-.2,.8,-.6,.9l-4.5,1.3c-.4,.1,-.5,.2,-.5,.5V687H85.9v-8c0,-.4,.1,-.6,.4,-.7Z" class="gj_226"/>
<path fill-rule="evenodd" d="M91.8,676.8c.4,-.1,.8,0,.9,.4c.1,.3,-.2,.6,-.6,.7l-4.6,1.4c-.2,0,-.4,.1,-.4,.4V687H85.9v-8c0,-.4,.2,-.6,.4,-.6Z" class="gk_226"/>
<path d="M74.5,705.2H97.4V686.8H74.5v18.4Z" class="gk_226"/>
<path d="M74.5,705.2H97.4V686.8H74.5v18.4Z" class="gl_226"/>
<path d="M97.4,705.2H74.5V686.8" class="gm_226"/>
<path d="M74.5,686.8H97.4v18.4" class="gn_226"/>
<path d="M115,621.2l-1.8,1.8m1.8,-3.6l-3.7,3.6m2.8,-4.5l-4.6,4.5m2.7,-4.5l-4.5,4.5m2.7,-4.5l-4.6,4.5m2.8,-4.5L104,623m2.7,-4.5l-4.5,4.5m2.7,-4.5l-4.6,4.5m2.8,-4.5L98.5,623m2.7,-4.5L96.7,623m2.7,-4.5L94.8,623m2.8,-4.5L93,623m2.7,-4.5L91.2,623m2.7,-4.5L89.3,623m2.8,-4.5L87.5,623m2.7,-4.5L85.7,623m2.7,-4.5L83.8,623m2.8,-4.5L82,623m2.7,-4.5L80.2,623m2.7,-4.5L78.3,623m2.8,-4.5L76.5,623m2.7,-4.5L74.7,623m2.7,-4.5L72.8,623m2.8,-4.5L71,623m2.7,-4.5L69.2,623m2.7,-4.5L67.3,623m2.8,-4.5L65.5,623m2.7,-4.5L63.7,623m2.7,-4.5L61.8,623m2.8,-4.5L60,623m2.7,-4.5L58.2,623m2.7,-4.5L56.3,623m2.8,-4.5L54.5,623m2.7,-4.5l-3.3,3.3m1.5,-3.3L53.9,620" class="go_226"/>
<path d="M53.9,623H115v-4.5H53.9V623Z" class="gp_226"/>
<path d="M81,854.1c28,0,47.6,128.4,75.6,128.4c28,0,47.7,-128.4,75.6,-128.4" class="gq_226"/>
<path d="M81,982.5c28,0,49,-128.4,77,-128.4c28,0,46.2,128.4,74.2,128.4" class="gr_226"/>
<path d="M81,918.3c11.9,32.2,23.7,64.2,37.8,64.2c28,0,47.6,-128.4,75.6,-128.4c13.9,0,25.9,32.2,37.8,64.2" class="gs_226"/>
<path d="M77.9,950.4H84m-6.1,32.1H84M232.2,915.2v6.1m-75.6,-6.1v6.1M77.9,854.1H84m-6.1,32.1H84M53.5,918.3H250.6" class="g5_226"/>
<path clip-path="url(#c4_226)" fill-rule="evenodd" d="M250.6,918.3l-1.7,-2.5l6.6,2.5l-6.6,2.4Z" class="g6_226"/>
<path d="M81,1000.8v-165" class="g5_226"/>
<path clip-path="url(#c4_226)" fill-rule="evenodd" d="M81,835.8l-2.5,1.6L81,830.9l2.4,6.5Z" class="g6_226"/>
</svg>