<?xml version="1.0" encoding="UTF-8" standalone="no"?>
<!DOCTYPE svg PUBLIC "-//W3C//DTD SVG 1.1//EN"
"http://www.w3.org/Graphics/SVG/1.1/DTD/svg11.dtd">
<svg viewBox="0 0 931 1096" version="1.1" xmlns="http://www.w3.org/2000/svg" xmlns:xlink="http://www.w3.org/1999/xlink">
<defs>
<style type="text/css"><![CDATA[
.g0_66{
fill: none;
stroke: #241F1F;
stroke-width: 0.534;
stroke-miterlimit: 10;
}
.g1_66{
fill: none;
stroke: #241F1F;
stroke-width: 0.763;
stroke-miterlimit: 10;
}
.g2_66{
fill: none;
stroke: #00AEEF;
stroke-width: 0.534;
stroke-miterlimit: 3;
}
.g3_66{
fill: #CFEDFC;
}
.g4_66{
fill: none;
stroke: #00AEEF;
stroke-width: 0.916;
stroke-miterlimit: 3;
}
.g5_66{
fill: none;
stroke: #241F1F;
stroke-width: 0.534;
stroke-miterlimit: 3;
}
]]></style>
</defs>
<path d="M426.5,190h5.4m218.4,0h5.3M486.9,336.7h5.4m2.7,41.2h5.4m36.4,0h5.4m-55.3,41.3h5.4m39,0h5.4m72.1,0h5.4m36.4,0H656m61.9,0h5.4" class="g0_66"/>
<path d="M532.5,688.2h73.4" class="g1_66"/>
<path d="M508.2,737h5.4M545,811.8h5.4M471.6,879h5.3m123.9,0h5.4M471.6,924.9h5.3m23.3,0h5.4m94.9,0h5.4M471.6,970.7h5.3m8.6,0h5.3m90,0h5.3" class="g0_66"/>
<path d="M73.7,331.7H223.4c5.1,0,9.2,4.2,9.2,9.2v91.7c0,5,-4.1,9.1,-9.2,9.1H73.7c-5,0,-9.1,-4.1,-9.1,-9.1V340.9c0,-5,4.1,-9.2,9.1,-9.2Z" class="g2_66"/>
<path fill-rule="evenodd" d="M64.6,413.9c27.8,0,52.9,-54.6,83.7,-54.6c30.9,0,53.6,54.6,84.3,54.6Z" class="g3_66"/>
<path d="M64.6,413.9c27.8,0,52.9,-54.6,83.7,-54.6c30.9,0,53.6,54.6,84.3,54.6" class="g4_66"/>
<path d="M64.6,413.9h168M64.6,359.1h1.7" class="g5_66"/>
</svg>