<?xml version="1.0" encoding="UTF-8" standalone="no"?>
<!DOCTYPE svg PUBLIC "-//W3C//DTD SVG 1.1//EN"
"http://www.w3.org/Graphics/SVG/1.1/DTD/svg11.dtd">
<svg viewBox="0 0 931 1096" version="1.1" xmlns="http://www.w3.org/2000/svg" xmlns:xlink="http://www.w3.org/1999/xlink">
<defs>
<clipPath id="c0_120"><path d="M493,510.9v-17h20.4v17Z"/></clipPath>
<style type="text/css"><![CDATA[
.g0_120{
fill: none;
stroke: #241F1F;
stroke-width: 0.763;
stroke-miterlimit: 10;
}
.g1_120{
fill: none;
stroke: #00AEEF;
stroke-width: 1.145;
}
.g2_120{
fill: #B486B2;
}
.g3_120{
fill: #CE95C3;
}
.g4_120{
fill: #C894C2;
}
.g5_120{
fill: #CC95C3;
}
.g6_120{
fill: #BB8CBA;
}
.g7_120{
fill: #C291C0;
}
.g8_120{
fill: #C292C0;
}
.g9_120{
fill: #B889B6;
}
.ga_120{
fill: #7A9DBD;
}
.gb_120{
fill: #7BA2C5;
}
.gc_120{
fill: #7AA0C1;
}
.gd_120{
fill: #7BA2C7;
}
.ge_120{
fill: #7CA3C6;
}
.gf_120{
fill: #7CA0C2;
}
.gg_120{
fill: #7AA6D3;
}
.gh_120{
fill: #7BA5D1;
}
.gi_120{
fill: #7AA3CB;
}
.gj_120{
fill: #7AA8D6;
}
.gk_120{
fill: #7BA8D7;
}
.gl_120{
fill: #7AA7D4;
}
.gm_120{
fill: #7BA6D1;
}
.gn_120{
fill: #7DB1E0;
}
.go_120{
fill: #79A3CC;
}
.gp_120{
fill: #7A9EBE;
}
.gq_120{
fill: #7FB5E2;
}
.gr_120{
fill: #7FB5E3;
}
.gs_120{
fill: #799EBF;
}
.gt_120{
fill: #7BA3C6;
}
.gu_120{
fill: #7EB2E1;
}
.gv_120{
fill: #88C4EB;
}
.gw_120{
fill: #7CAEDE;
}
.gx_120{
fill: #7AA4CD;
}
.gy_120{
fill: #79AADB;
}
.gz_120{
fill: #7BADDD;
}
.g10_120{
fill: #84BDE7;
}
.g11_120{
fill: #79AADA;
}
.g12_120{
fill: #7BA4CD;
}
.g13_120{
fill: #7CB1E0;
}
.g14_120{
fill: #88C5EC;
}
.g15_120{
fill: #8AC6EC;
}
.g16_120{
fill: #86C1EA;
}
.g17_120{
fill: #C6D465;
}
.g18_120{
fill: #CAD962;
}
.g19_120{
fill: #C8D662;
}
.g1a_120{
fill: #C9D762;
}
.g1b_120{
fill: #DDE55D;
}
.g1c_120{
fill: #84BEE8;
}
.g1d_120{
fill: #C4D267;
}
.g1e_120{
fill: #B9C76D;
}
.g1f_120{
fill: #D8E35D;
}
.g1g_120{
fill: #BECC6A;
}
.g1h_120{
fill: #82B8E4;
}
.g1i_120{
fill: #B1BD6E;
}
.g1j_120{
fill: #C0CF68;
}
.g1k_120{
fill: #D4E15C;
}
.g1l_120{
fill: #A6B06D;
}
.g1m_120{
fill: #AEB86D;
}
.g1n_120{
fill: #B6C36E;
}
.g1o_120{
fill: #81B7E4;
}
.g1p_120{
fill: #7BA6D2;
}
.g1q_120{
fill: #9FDDF9;
}
.g1r_120{
fill: #DEE55D;
}
.g1s_120{
fill: #DCE45D;
}
.g1t_120{
fill: #FAEE5A;
}
.g1u_120{
fill: #92D5F5;
}
.g1v_120{
fill: #C3D168;
}
.g1w_120{
fill: #D6E25C;
}
.g1x_120{
fill: #FFF563;
}
.g1y_120{
fill: #FFF562;
}
.g1z_120{
fill: #E9DE67;
}
.g20_120{
fill: #7BA4CA;
}
.g21_120{
fill: #CFDF5C;
}
.g22_120{
fill: #FDF361;
}
.g23_120{
fill: #7AA6D2;
}
.g24_120{
fill: #A8B26D;
}
.g25_120{
fill: #C7D662;
}
.g26_120{
fill: #85BFE8;
}
.g27_120{
fill: #9ADCF9;
}
.g28_120{
fill: #8BC8EE;
}
.g29_120{
fill: #CCDB61;
}
.g2a_120{
fill: #EEEB5E;
}
.g2b_120{
fill: #FBF160;
}
.g2c_120{
fill: #7BA3CB;
}
.g2d_120{
fill: #86C0E9;
}
.g2e_120{
fill: #D2E15C;
}
.g2f_120{
fill: #E2E75E;
}
.g2g_120{
fill: #97DBF8;
}
.g2h_120{
fill: #FEF461;
}
.g2i_120{
fill: #E2E75F;
}
.g2j_120{
fill: #B7C46D;
}
.g2k_120{
fill: #8CC9EE;
}
.g2l_120{
fill: #F9EF5F;
}
.g2m_120{
fill: #84BCE6;
}
.g2n_120{
fill: #FDF360;
}
.g2o_120{
fill: #91D2F4;
}
.g2p_120{
fill: #7AA9D8;
}
.g2q_120{
fill: #8FCEF1;
}
.g2r_120{
fill: #DFE55D;
}
.g2s_120{
fill: #80BAA2;
}
.g2t_120{
fill: #F5EE5E;
}
.g2u_120{
fill: #EBEA5F;
}
.g2v_120{
fill: #7BA8D6;
}
.g2w_120{
fill: #BDCB6B;
}
.g2x_120{
fill: #CEDD5D;
}
.g2y_120{
fill: #FBF05F;
}
.g2z_120{
fill: #7AA4CC;
}
.g30_120{
fill: #9CDCF9;
}
.g31_120{
fill: #B1BC6E;
}
.g32_120{
fill: #83BBE6;
}
.g33_120{
fill: #7AAADA;
}
.g34_120{
fill: #CDDC60;
}
.g35_120{
fill: #EDEB5F;
}
.g36_120{
fill: #EFEB5E;
}
.g37_120{
fill: #C0CE67;
}
.g38_120{
fill: #7AA6D1;
}
.g39_120{
fill: #7AA9D9;
}
.g3a_120{
fill: #EAE95E;
}
.g3b_120{
fill: #A6DFF9;
}
.g3c_120{
fill: #7BA5D0;
}
.g3d_120{
fill: #FFF668;
}
.g3e_120{
fill: #99CEAE;
}
.g3f_120{
fill: #F7EE5F;
}
.g3g_120{
fill: #79ACDC;
}
.g3h_120{
fill: #C5D365;
}
.g3i_120{
fill: #7EB4E2;
}
.g3j_120{
fill: #ABE1FA;
}
.g3k_120{
fill: #8ECBEF;
}
.g3l_120{
fill: #91D4F5;
}
.g3m_120{
fill: #FDF35F;
}
.g3n_120{
fill: #A7E0F9;
}
.g3o_120{
fill: #FCF25F;
}
.g3p_120{
fill: #87C1E9;
}
.g3q_120{
fill: #A0DDF9;
}
.g3r_120{
fill: #8DCAEF;
}
.g3s_120{
fill: #FFF564;
}
.g3t_120{
fill: #FEF562;
}
.g3u_120{
fill: #CBDA61;
}
.g3v_120{
fill: #ECEA5F;
}
.g3w_120{
fill: #B0BC6E;
}
.g3x_120{
fill: #B6C26E;
}
.g3y_120{
fill: #92D6F6;
}
.g3z_120{
fill: #E3E75F;
}
.g40_120{
fill: #AEE2FA;
}
.g41_120{
fill: #FCF15F;
}
.g42_120{
fill: #B5C16E;
}
.g43_120{
fill: #7FB6E3;
}
.g44_120{
fill: #F8EF5F;
}
.g45_120{
fill: #DAE45C;
}
.g46_120{
fill: #8FCDF0;
}
.g47_120{
fill: #FCF260;
}
.g48_120{
fill: #F0EC5E;
}
.g49_120{
fill: #E7E85E;
}
.g4a_120{
fill: #FEF462;
}
.g4b_120{
fill: #FDF260;
}
.g4c_120{
fill: #FAEF5F;
}
.g4d_120{
fill: #E0E65E;
}
.g4e_120{
fill: #F4ED5E;
}
.g4f_120{
fill: #88C3EB;
}
.g4g_120{
fill: #8ECCF0;
}
.g4h_120{
fill: #F1EC5F;
}
.g4i_120{
fill: #DBE45C;
}
.g4j_120{
fill: #FBF060;
}
.g4k_120{
fill: #9BDCF9;
}
.g4l_120{
fill: #EAEA5E;
}
.g4m_120{
fill: #E8E95F;
}
.g4n_120{
fill: #E9E95E;
}
.g4o_120{
fill: #AFE2FA;
}
.g4p_120{
fill: #83BCE6;
}
.g4q_120{
fill: #87C2EA;
}
.g4r_120{
fill: #93D7F6;
}
.g4s_120{
fill: #A9E0FA;
}
.g4t_120{
fill: #7FB3E1;
}
.g4u_120{
fill: #83BAE5;
}
.g4v_120{
fill: #8FCFF2;
}
.g4w_120{
fill: #A3DFF9;
}
.g4x_120{
fill: #8BC8ED;
}
.g4y_120{
fill: #90CEF1;
}
.g4z_120{
fill: #AAE1FA;
}
.g50_120{
fill: #8AC7ED;
}
.g51_120{
fill: #95D9F7;
}
.g52_120{
fill: #A2DEF9;
}
.g53_120{
fill: #82B9E4;
}
.g54_120{
fill: #95D8F7;
}
.g55_120{
fill: #A1DEF9;
}
.g56_120{
fill: #90D1F3;
}
.g57_120{
fill: #9DDDF9;
}
.g58_120{
fill: #A8E0F9;
}
.g59_120{
fill: #93D6F6;
}
.g5a_120{
fill: #85C0E9;
}
.g5b_120{
fill: #98DBF9;
}
.g5c_120{
fill: #8FD2F4;
}
.g5d_120{
fill: #96DAF8;
}
.g5e_120{
fill: #96D7F6;
}
.g5f_120{
fill: #91D5F5;
}
.g5g_120{
fill: #87C3EB;
}
.g5h_120{
fill: #90D3F4;
}
.g5i_120{
fill: #86C2EA;
}
.g5j_120{
fill: none;
stroke: #241F1F;
stroke-width: 0.611;
stroke-linecap: round;
stroke-linejoin: round;
}
.g5k_120{
fill: none;
stroke: #241F1F;
stroke-width: 0.534;
stroke-linecap: round;
stroke-linejoin: round;
}
.g5l_120{
fill: none;
stroke: #241F1F;
stroke-width: 0.611;
stroke-miterlimit: 3;
}
.g5m_120{
fill: #241F1F;
}
.g5n_120{
fill: none;
stroke: #001521;
stroke-width: 0.611;
stroke-miterlimit: 3;
}
.g5o_120{
fill: none;
stroke: #241F1F;
stroke-width: 0.381;
stroke-miterlimit: 3;
}
]]></style>
</defs>
<path clip-path="url(#c0_120)" d="M504.7,494.3h9.1" class="g0_120"/>
<path d="M307.7,694.2c0,0,-1.6,0,-1.6,1.5v14.1c0,0,0,1.5,1.6,1.5h14.1c0,0,1.5,0,1.5,-1.5V695.7c0,0,0,-1.5,-1.5,-1.5H307.7Z" class="g1_120"/>
<path d="M168.8,540.4l-1.2,1.2l1.5,-.1l2.2,-1.1Z" class="g2_120"/>
<path d="M154.8,539.1l-4.6,3.3l4.3,.1Z" class="g3_120"/>
<path d="M146.7,538.8l-4,3.3l1.8,.2l2.8,.1Z" class="g4_120"/>
<path d="M146.7,538.8l.6,3.6h2.9l4.6,-3.3Z" class="g3_120"/>
<path d="M162.6,538.3l-7.8,.8l-.3,3.4h.7l2,-.1Z" class="g5_120"/>
<path d="M162.6,538.3l-5.4,4.1l4.4,-.3Z" class="g5_120"/>
<path d="M139.2,537.7l1.5,4.2l2,.2l4,-3.3Z" class="g4_120"/>
<path d="M139.2,537.7l-3.1,3.8l4.6,.4Z" class="g6_120"/>
<path d="M169.4,536.6l-6.1,5.3h2.3l1.6,-.3Z" class="g7_120"/>
<path d="M169.4,536.6l-6.8,1.7l-1,3.8l1.5,-.1Z" class="g7_120"/>
<path d="M169.4,536.6h-5.3l-1.5,1.7Z" class="g3_120"/>
<path d="M133.1,535.6l2.8,5.9h.2l3.1,-3.8Z" class="g6_120"/>
<path d="M133.1,535.6l-.8,3.8l3.3,2.1h.3Z" class="g2_120"/>
<path d="M174.6,534.2l-5.2,2.4l-2.2,5h.4Z" class="g2_120"/>
<path d="M174.6,534.2l-5.8,6.2h2.5Z" class="g2_120"/>
<path d="M174.6,534.2h-3.7l-1.5,2.4Z" class="g3_120"/>
<path d="M128.8,532.9l3.5,6.5l.8,-3.8Z" class="g2_120"/>
<path d="M154.9,531.8l-8.2,7l8.1,.3Z" class="g3_120"/>
<path d="M146.4,531.7l-7.2,6l7.5,1.1Z" class="g3_120"/>
<path d="M146.4,531.7l.3,7.1l8.2,-7Z" class="g3_120"/>
<path d="M177.6,531.3l-3,2.9l-3.3,6.2Z" class="g2_120"/>
<path d="M177.6,531.3h-1.8l-1.2,2.9Z" class="g8_120"/>
<path d="M163.1,531.1l-8.3,8l7.8,-.8Z" class="g3_120"/>
<path d="M163.1,531.1l-8.2,.7l-.1,7.3Z" class="g3_120"/>
<path d="M138.6,530.4l-5.5,5.2l6.1,2.1Z" class="g3_120"/>
<path d="M138.6,530.4l.6,7.3l7.2,-6Z" class="g3_120"/>
<path d="M170.3,529.3l-6.2,7.3h5.3Z" class="g3_120"/>
<path d="M170.3,529.3l-7.2,1.8l-.5,7.2Z" class="g3_120"/>
<path d="M132.1,528.3l1,7.3l5.5,-5.2Z" class="g3_120"/>
<path d="M132.1,528.3l-3.3,4.6l4.3,2.7Z" class="g3_120"/>
<path d="M175.7,526.8l-4.8,7.4h3.7Z" class="g3_120"/>
<path d="M175.7,526.8l-5.4,2.5l-.9,7.3Z" class="g3_120"/>
<path d="M127.6,525.4l-.8,4.5l2,3Z" class="g9_120"/>
<path d="M127.6,525.4l1.2,7.5l3.3,-4.6Z" class="g3_120"/>
<path d="M178.9,523.7l-3.1,7.6h1.8Z" class="g8_120"/>
<path d="M178.9,523.7l-3.2,3.1l-1.1,7.4Z" class="g8_120"/>
<path d="M154.8,523.7l-8.4,8l8.5,.1Z" class="g3_120"/>
<path d="M146.7,523.4l-.3,8.3l8.4,-8Z" class="g3_120"/>
<path d="M146.7,523.4l-8.1,7l7.8,1.3Z" class="g3_120"/>
<path d="M126.1,523.2l-.2,1.4l.9,5.3l.8,-4.5Z" class="g9_120"/>
<path d="M162.6,522.9l-7.7,8.9l8.2,-.7Z" class="g3_120"/>
<path d="M162.6,522.9l-7.8,.8l.1,8.1Z" class="g3_120"/>
<path d="M139.2,522.2l-.6,8.2l8.1,-7Z" class="g3_120"/>
<path d="M139.2,522.2l-7.1,6.1l6.5,2.1Z" class="g3_120"/>
<path d="M169.4,521.2l-6.8,1.7l.5,8.2Z" class="g3_120"/>
<path d="M169.4,521.2l-6.3,9.9l7.2,-1.8Z" class="g3_120"/>
<path d="M133.1,520.2l-1,8.1l7.1,-6.1Z" class="g3_120"/>
<path d="M133.1,520.2l-5.5,5.2l4.5,2.9Z" class="g3_120"/>
<path d="M174.6,518.8l-4.3,10.5l5.4,-2.5Z" class="g3_120"/>
<path d="M174.6,518.8l-5.2,2.4l.9,8.1Z" class="g3_120"/>
<path d="M128.8,517.5l-2.3,3.3l-.4,2.4l1.5,2.2Z" class="g3_120"/>
<path d="M128.8,517.5l-1.2,7.9l5.5,-5.2Z" class="g3_120"/>
<path d="M177.6,515.9l-1.9,10.9l3.2,-3.1Z" class="g3_120"/>
<path d="M177.6,515.9l-3,2.9l1.1,8Z" class="g3_120"/>
<path d="M127.6,515.7l-.9,3.3l-.2,1.8l2.3,-3.3Z" class="g3_120"/>
<path d="M154.4,515.2l-7.7,8.2l8.1,.3Z" class="g3_120"/>
<path d="M147.5,515l-8.3,7.2l7.5,1.2Z" class="g3_120"/>
<path d="M147.5,515l-.8,8.4l7.7,-8.2Z" class="g3_120"/>
<path d="M161,514.5l-6.2,9.2l7.8,-.8Z" class="g3_120"/>
<path d="M161,514.5l-6.6,.7l.4,8.5Z" class="g3_120"/>
<path d="M141.2,514.1l-2,8.1l8.3,-7.2Z" class="g3_120"/>
<path d="M141.2,514.1l-8.1,6.1l6.1,2Z" class="g3_120"/>
<path d="M166.9,513.1l-4.3,9.8l6.8,-1.7Z" class="g3_120"/>
<path d="M166.9,513.1l-5.9,1.4l1.6,8.4Z" class="g3_120"/>
<path d="M177.6,515.9l1.3,7.8l-.7,-11Z" class="g3_120"/>
<path d="M178.9,523.7l.6,-3.3l-1.3,-7.7Z" class="g3_120"/>
<path d="M135.9,512.3l-2.8,7.9l8.1,-6.1Z" class="g3_120"/>
<path d="M135.9,512.3l-7.1,5.2l4.3,2.7Z" class="g3_120"/>
<path d="M171.3,511l-4.4,2.1l2.5,8.1Z" class="g3_120"/>
<path d="M171.3,511l-1.9,10.2l5.2,-2.4Z" class="g3_120"/>
<path d="M132.3,510l-3.5,7.5l7.1,-5.2Z" class="g3_120"/>
<path d="M132.3,510l-4.2,3.4l-.5,2.3l1.2,1.8Z" class="g3_120"/>
<path d="M173.9,508.6l-2.6,2.4l3.3,7.8Z" class="g3_120"/>
<path d="M173.9,508.6l.7,10.2l3,-2.9Z" class="g3_120"/>
<path d="M130.6,507.4l-1.8,3.4l-.7,2.6l4.2,-3.4Z" class="g3_120"/>
<path d="M130.6,507.4l-1.4,1.7l-.4,1.7Z" class="g3_120"/>
<path d="M129.8,507.4l-.5,1.3l-.1,.4l1.4,-1.7Z" class="g3_120"/>
<path d="M153.9,507.4l-6.4,7.6l6.9,.2Z" class="g3_120"/>
<path d="M148.9,507.2l-7.7,6.9l6.3,.9Z" class="g3_120"/>
<path d="M148.9,507.2l-1.4,7.8l6.4,-7.6Z" class="g3_120"/>
<path d="M158.7,506.9l-4.3,8.3l6.6,-.7Z" class="g3_120"/>
<path d="M158.7,506.9l-4.8,.5l.5,7.8Z" class="g3_120"/>
<path d="M144.2,506.4l-8.3,5.9l5.3,1.8Z" class="g3_120"/>
<path d="M144.2,506.4l-3,7.7l7.7,-6.9Z" class="g3_120"/>
<path d="M174.3,505.9l-.4,2.7l3.7,7.3Z" class="g3_120"/>
<path d="M174.3,505.9l3.3,10l.6,-3.2Z" class="g3_120"/>
<path d="M163,505.8l-2,8.7l5.9,-1.4Z" class="g3_120"/>
<path d="M163,505.8l-4.3,1.1l2.3,7.6Z" class="g3_120"/>
<path d="M140.5,505.3l-4.6,7l8.3,-5.9Z" class="g3_120"/>
<path d="M140.5,505.3l-8.2,4.7l3.6,2.3Z" class="g3_120"/>
<path d="M130,506.5l-.2,.9h.8l.5,-2.7Z" class="g3_120"/>
<path d="M166.2,504.3l-3.2,1.5l3.9,7.3Z" class="g3_120"/>
<path d="M166.2,504.3l.7,8.8l4.4,-2.1Z" class="g3_120"/>
<path d="M137.8,503.6l-5.5,6.4l8.2,-4.7Z" class="g3_120"/>
<path d="M137.8,503.6l-7.2,3.8l1.7,2.6Z" class="g3_120"/>
<path d="M168,502.5l-1.8,1.8l5.1,6.7Z" class="g3_120"/>
<path d="M168,502.5l3.3,8.5l2.6,-2.4Z" class="g3_120"/>
<path d="M136.6,501.7l-6,5.7l7.2,-3.8Z" class="g3_120"/>
<path d="M136.6,501.7l-5.5,3l-.5,2.7Z" class="g3_120"/>
<path d="M136.6,501.7h-2l-3.5,3Z" class="g3_120"/>
<path d="M153.2,500.9l-4.3,6.3l5,.2Z" class="g3_120"/>
<path d="M150.6,500.8l-1.7,6.4l4.3,-6.3Z" class="g3_120"/>
<path d="M150.6,500.8l-6.4,5.6l4.7,.8Z" class="g3_120"/>
<path d="M155.8,500.6l-1.9,6.8l4.8,-.5Z" class="g3_120"/>
<path d="M155.8,500.6l-2.6,.3l.7,6.5Z" class="g3_120"/>
<path d="M168.4,500.6l5.5,8l.4,-2.7Z" class="g3_120"/>
<path d="M168.4,500.6l-.4,1.9l5.9,6.1Z" class="g3_120"/>
<path d="M148.2,500.4l-4,6l6.4,-5.6Z" class="g3_120"/>
<path d="M148.2,500.4l-7.7,4.9l3.7,1.1Z" class="g3_120"/>
<path d="M158,500l.7,6.9l4.3,-1.1Z" class="g3_120"/>
<path d="M158,500l-2.2,.6l2.9,6.3Z" class="g3_120"/>
<path d="M146.2,499.8l-5.7,5.5l7.7,-4.9Z" class="g3_120"/>
<path d="M146.2,499.8l-8.4,3.8l2.7,1.7Z" class="g3_120"/>
<path d="M136.9,499.8l-3.2,2.4l-2.6,2.5Z" class="g3_120"/>
<path d="M136.9,499.8l-2.3,1.9h2Z" class="g3_120"/>
<path d="M136.9,499.8h-.3l-2.9,2.4Z" class="g3_120"/>
<path d="M159.7,499.3l3.3,6.5l3.2,-1.5Z" class="g3_120"/>
<path d="M159.7,499.3L158,500l5,5.8Z" class="g3_120"/>
<path d="M144.8,498.8l-8.2,2.9l1.2,1.9Z" class="g3_120"/>
<path d="M144.8,498.8l-7,4.8l8.4,-3.8Z" class="g3_120"/>
<path d="M167.2,498.7l1.2,1.9l5.9,5.3Z" class="g3_120"/>
<path d="M167.2,498.7l7.1,7.2l-1.6,-2.7Z" class="g3_120"/>
<path d="M160.7,498.3l5.5,6l1.8,-1.8Z" class="g3_120"/>
<path d="M160.7,498.3l-1,1l6.5,5Z" class="g3_120"/>
<path d="M138.8,497.9l-2.2,1.9h.3Z" class="g3_120"/>
<path d="M144.2,497.8l-7.6,3.9l8.2,-2.9Z" class="g3_120"/>
<path d="M144.2,497.8l-7.3,2l-.3,1.9Z" class="g3_120"/>
<path d="M144.2,497.8h-2.5l-4.8,2Z" class="g3_120"/>
<path d="M160.8,497.3l7.2,5.2l.4,-1.9Z" class="g3_120"/>
<path d="M160.8,497.3l-.1,1l7.3,4.2Z" class="g3_120"/>
<path d="M144.3,496.8l-5.5,1.1l-1.9,1.9Z" class="g3_120"/>
<path d="M141.7,497.8h2.5l.1,-1Z" class="g3_120"/>
<path d="M152.5,496.4l-7.7,2.4l1.4,1Z" class="g3_120"/>
<path d="M152.5,496.4l-1.9,4.4l2.6,.1Z" class="g3_120"/>
<path d="M152.5,496.4l-8.3,1.4l.6,1Z" class="g3_120"/>
<path d="M152.5,496.4l.7,4.5l2.6,-.3Z" class="g3_120"/>
<path d="M152.5,496.4l8.2,1.9l.1,-1Z" class="g3_120"/>
<path d="M152.5,496.4l3.3,4.2L158,500Z" class="g3_120"/>
<path d="M152.5,496.4l-6.3,3.4l2,.6Z" class="g3_120"/>
<path d="M144.3,496.8l-.1,1l8.3,-1.4Z" class="g3_120"/>
<path d="M152.5,496.4l7.2,2.9l1,-1Z" class="g3_120"/>
<path d="M152.5,496.4L158,500l1.7,-.7Z" class="g3_120"/>
<path d="M152.5,496.4l-4.3,4l2.4,.4Z" class="g3_120"/>
<path d="M152.5,496.4l8.3,.9l-.6,-1Z" class="g3_120"/>
<path d="M160.2,496.3l.6,1l7.6,3.3Z" class="g3_120"/>
<path d="M160.2,496.3l8.2,4.3l-1.2,-1.9Z" class="g3_120"/>
<path d="M145.3,495.9l-3.3,.6l-3.2,1.4Z" class="g3_120"/>
<path d="M144.3,496.8l8.2,-.4l-7.2,-.5Z" class="g3_120"/>
<path d="M145.3,495.9l-6.5,2l5.5,-1.1Z" class="g3_120"/>
<path d="M152.5,496.4l7.7,-.1l-1.4,-.9Z" class="g3_120"/>
<path d="M158.8,495.4l1.4,.9l7,2.4Z" class="g3_120"/>
<path d="M158.8,495.4l8.4,3.3L164.5,497Z" class="g3_120"/>
<path d="M142,496.5l3.3,-.6l1.7,-.8Z" class="g3_120"/>
<path d="M145.3,495.9l7.2,.5L147,495.1Z" class="g3_120"/>
<path d="M156.8,494.8l-4.3,1.6l6.3,-1Z" class="g3_120"/>
<path d="M149.2,494.5l-2.2,.6l5.5,1.3Z" class="g3_120"/>
<path d="M154.3,494.3l-1.8,2.1l4.3,-1.6Z" class="g3_120"/>
<path d="M151.8,494.3l-2.6,.2l3.3,1.9Z" class="g3_120"/>
<path d="M151.8,494.3l.7,2.1l1.8,-2.1Z" class="g3_120"/>
<path d="M150,602.3l-.1,.1l5.8,-.1Z" class="ga_120"/>
<path d="M157.1,602l-1.4,.3l5.8,-.3Z" class="ga_120"/>
<path d="M163.9,601.2l-2.4,.8l5.4,-.8Z" class="ga_120"/>
<path d="M149.2,600.5l-5,1.6l5.7,.3Z" class="ga_120"/>
<path d="M156.7,600.5l-6.7,1.8h5.7Z" class="ga_120"/>
<path d="M156.7,600.5h-7.5l.7,1.9Z" class="ga_120"/>
<path d="M170.1,600.2l-3.2,1l5.1,-1Z" class="ga_120"/>
<path d="M141.8,600l-3.1,1.4l5.5,.7Z" class="ga_120"/>
<path d="M141.8,600l2.4,2.1l5,-1.6Z" class="ga_120"/>
<path d="M164.1,599.9l-7,2.1h4.4Z" class="ga_120"/>
<path d="M164.1,599.9l-7.4,.6l-1,1.8Z" class="ga_120"/>
<path d="M134.6,599.2l-1.1,1.2l5.2,1Z" class="ga_120"/>
<path d="M134.6,599.2l4.1,2.2l3.1,-1.4Z" class="ga_120"/>
<path d="M171.2,599l-7.3,2.2h3Z" class="ga_120"/>
<path d="M171.2,599l-7.1,.9l-2.6,2.1Z" class="ga_120"/>
<path d="M166.1,599l-2,.9l7.1,-.9Z" class="ga_120"/>
<path d="M127.9,597.9l5.6,2.5l1.1,-1.2Z" class="ga_120"/>
<path d="M127.9,597.9l.9,1.1l4.7,1.4Z" class="ga_120"/>
<path d="M177.8,597.7l-7.7,2.5H172Z" class="ga_120"/>
<path d="M177.8,597.7l-6.6,1.3l-4.3,2.2Z" class="ga_120"/>
<path d="M174,597.7l-2.8,1.3l6.6,-1.3Z" class="ga_120"/>
<path d="M148.6,596.6l-6.8,3.4l7.4,.5Z" class="ga_120"/>
<path d="M157.5,596.6h-8.9l.6,3.9Z" class="ga_120"/>
<path d="M157.5,596.6l-8.2,3.9h7.4Z" class="ga_120"/>
<path d="M121.8,596.2l2.8,1.3l4.2,1.5Z" class="ga_120"/>
<path d="M121.8,596.2l7,2.8l-.9,-1.1Z" class="ga_120"/>
<path d="M139.6,596.2l2.2,3.8l6.8,-3.4Z" class="ga_120"/>
<path d="M139.6,596.2l-5,3l7.2,.8Z" class="ga_120"/>
<path d="M166.4,596l-9.7,4.5l7.4,-.6Z" class="ga_120"/>
<path d="M166.4,596l-8.9,.6l-.8,3.9Z" class="ga_120"/>
<path d="M158.6,596l-1.1,.6l8.9,-.6Z" class="ga_120"/>
<path d="M183.9,595.9L172,600.2l4.7,-1.4Z" class="ga_120"/>
<path d="M183.9,595.9l-6.1,1.8l-5.8,2.5Z" class="ga_120"/>
<path d="M183.9,595.9h-2.7l-3.4,1.8Z" class="ga_120"/>
<path d="M131,595.1l3.6,4.1l5,-3Z" class="ga_120"/>
<path d="M131,595.1l-3.1,2.8l6.7,1.3Z" class="ga_120"/>
<path d="M175,594.9l-8.9,4.1h5.1Z" class="ga_120"/>
<path d="M175,594.9l-8.6,1.1l-2.3,3.9Z" class="ga_120"/>
<path d="M168.4,594.9l-2,1.1l8.6,-1.1Z" class="ga_120"/>
<path d="M116.5,594.1l8.1,3.4l-2.8,-1.3Z" class="ga_120"/>
<path d="M189.1,593.8l-5.2,2.1l-7.2,2.9Z" class="ga_120"/>
<path d="M189.1,593.8l-12.4,5l4,-1.5Z" class="ga_120"/>
<path d="M189.1,593.8h-1.6l-3.6,2.1Z" class="ga_120"/>
<path d="M122.9,593.5l5,4.4l3.1,-2.8Z" class="ga_120"/>
<path d="M122.9,593.5l-1.1,2.7l6.1,1.7Z" class="ga_120"/>
<path d="M183,593.3l-9,4.4h3.8Z" class="ga_120"/>
<path d="M183,593.3l-8,1.6l-3.8,4.1Z" class="ga_120"/>
<path d="M115.6,591.5l.9,2.6l5.3,2.1Z" class="ga_120"/>
<path d="M115.6,591.5l6.2,4.7l1.1,-2.7Z" class="ga_120"/>
<path d="M190.3,591.1l-7.3,2.2l-5.2,4.4Z" class="ga_120"/>
<path d="M190.3,591.1l-9.1,4.8h2.7Z" class="ga_120"/>
<path d="M190.3,591.1h-4.2l-3.1,2.2Z" class="ga_120"/>
<path d="M147.9,591l-8.3,5.2l9,.4Z" class="ga_120"/>
<path d="M158.3,591l-9.7,5.6h8.9Z" class="ga_120"/>
<path d="M158.3,591H147.9l.7,5.6Z" class="ga_120"/>
<path d="M137.7,590.4l-6.7,4.7l8.6,1.1Z" class="ga_120"/>
<path d="M137.7,590.4l1.9,5.8l8.3,-5.2Z" class="ga_120"/>
<path d="M168.5,590.2l-9.9,5.8h7.8Z" class="ga_120"/>
<path d="M168.5,590.2l-10.2,.8l-.8,5.6Z" class="ga_120"/>
<path d="M127.9,589.2l-5,4.3l8.1,1.6Z" class="ga_120"/>
<path d="M127.9,589.2l3.1,5.9l6.7,-4.7Z" class="ga_120"/>
<path d="M109.1,589l2.9,2.8l4.5,2.3Z" class="ga_120"/>
<path d="M109.1,589l7.4,5.1l-.9,-2.6Z" class="ga_120"/>
<path d="M178.3,588.9l-9.9,6H175Z" class="ga_120"/>
<path d="M178.3,588.9l-9.8,1.3l-2.1,5.8Z" class="ga_120"/>
<path d="M170.3,588.9l-1.8,1.3l9.8,-1.3Z" class="gb_120"/>
<path d="M196.6,588.7l-9.1,5.1h1.6Z" class="ga_120"/>
<path d="M196.6,588.7l-6.3,2.4l-6.4,4.8Z" class="ga_120"/>
<path d="M196.6,588.7h-2.9l-3.4,2.4Z" class="ga_120"/>
<path d="M118.7,587.4l4.2,6.1l5,-4.3Z" class="ga_120"/>
<path d="M118.7,587.4l-3.1,4.1l7.3,2Z" class="ga_120"/>
<path d="M187.4,587.1L175,594.9l8,-1.6Z" class="ga_120"/>
<path d="M187.4,587.1l-9.1,1.8l-3.3,6Z" class="ga_120"/>
<path d="M187.4,587.1h-6.7l-2.4,1.8Z" class="gc_120"/>
<path d="M103.7,586.2l8.3,5.6L109.1,589Z" class="ga_120"/>
<path d="M201.8,585.8l-5.2,2.9l-7.5,5.1Z" class="ga_120"/>
<path d="M201.8,585.8l-12.7,8l4.4,-2.4Z" class="ga_120"/>
<path d="M201.8,585.8h-1.7l-3.5,2.9Z" class="ga_120"/>
<path d="M110.2,585l-1.1,4l6.5,2.5Z" class="ga_120"/>
<path d="M110.2,585l5.4,6.5l3.1,-4.1Z" class="ga_120"/>
<path d="M195.7,584.7l-9.6,6.4h4.2Z" class="ga_120"/>
<path d="M195.7,584.7l-8.3,2.4l-4.4,6.2Z" class="ga_120"/>
<path d="M195.7,584.7h-5.4l-2.9,2.4Z" class="ga_120"/>
<path d="M147.5,583.5l-9.8,6.9l10.2,.6Z" class="gd_120"/>
<path d="M158.8,583.5L147.9,591h10.4Z" class="gd_120"/>
<path d="M158.8,583.5H147.5l.4,7.5Z" class="gd_120"/>
<path d="M136.3,582.9l-8.4,6.3l9.8,1.2Z" class="ge_120"/>
<path d="M136.3,582.9l1.4,7.5l9.8,-6.9Z" class="gd_120"/>
<path d="M170.1,582.8L158.3,591l10.2,-.8Z" class="gd_120"/>
<path d="M170.1,582.8l-11.3,.7l-.5,7.5Z" class="gd_120"/>
<path d="M102.9,582.2l.8,4l5.4,2.8Z" class="ga_120"/>
<path d="M102.9,582.2l6.2,6.8l1.1,-4Z" class="ga_120"/>
<path d="M202.9,581.8l-7.2,2.9l-5.4,6.4Z" class="ga_120"/>
<path d="M202.9,581.8l-9.2,6.9h2.9Z" class="ga_120"/>
<path d="M202.9,581.8h-4l-3.2,2.9Z" class="ga_120"/>
<path d="M125.4,581.6l-6.7,5.8l9.2,1.8Z" class="gf_120"/>
<path d="M125.4,581.6l2.5,7.6l8.4,-6.3Z" class="ge_120"/>
<path d="M180.8,581.3l-10.5,7.6h8Z" class="gb_120"/>
<path d="M180.8,581.3l-10.7,1.5l-1.6,7.4Z" class="gb_120"/>
<path d="M171.8,581.3l-1.7,1.5l10.7,-1.5Z" class="gg_120"/>
<path d="M115.2,579.6l3.5,7.8l6.7,-5.8Z" class="gf_120"/>
<path d="M115.2,579.6l-5,5.4l8.5,2.4Z" class="ga_120"/>
<path d="M190.9,579.3l-10.2,7.8h6.7Z" class="gc_120"/>
<path d="M190.9,579.3l-10.1,2l-2.5,7.6Z" class="gc_120"/>
<path d="M190.9,579.3h-7.7l-2.4,2Z" class="gh_120"/>
<path d="M96.8,579l6.9,7.2l-.8,-4Z" class="ga_120"/>
<path d="M96.8,579l2.8,4l4.1,3.2Z" class="ga_120"/>
<path d="M208.9,578.5l-8.8,7.3h1.7Z" class="ga_120"/>
<path d="M208.9,578.5l-6,3.3l-6.3,6.9Z" class="ga_120"/>
<path d="M208.9,578.5h-2.8l-3.2,3.3Z" class="ga_120"/>
<path d="M105.9,577l-3,5.2l7.3,2.8Z" class="ga_120"/>
<path d="M105.9,577l4.3,8l5,-5.4Z" class="ga_120"/>
<path d="M200.1,576.7l-9.2,2.6l-3.5,7.8Z" class="ga_120"/>
<path d="M200.1,576.7l-9.8,8h5.4Z" class="ga_120"/>
<path d="M200.1,576.7h-6.4l-2.8,2.6Z" class="gi_120"/>
<path d="M91.9,575.4l7.7,7.6l-2.8,-4Z" class="ga_120"/>
<path d="M213.5,574.9l-4.6,3.6l-7.1,7.3Z" class="ga_120"/>
<path d="M213.5,574.9l-11.7,10.9l4.1,-3.2Z" class="ga_120"/>
<path d="M147.2,574.6l-10.9,8.3l11.2,.6Z" class="gj_120"/>
<path d="M159.3,574.6l-11.8,8.9h11.3Z" class="gk_120"/>
<path d="M159.3,574.6H147.2l.3,8.9Z" class="gk_120"/>
<path d="M135.2,573.9l1.1,9l10.9,-8.3Z" class="gj_120"/>
<path d="M135.2,573.9l-9.8,7.7l10.9,1.3Z" class="gl_120"/>
<path d="M97.9,573.9L96.8,579l6.1,3.2Z" class="ga_120"/>
<path d="M97.9,573.9l5,8.3l3,-5.2Z" class="ga_120"/>
<path d="M171.3,573.8l-12,.8l-.5,8.9Z" class="gj_120"/>
<path d="M171.3,573.8l-12.5,9.7l11.3,-.7Z" class="gj_120"/>
<path d="M208.1,573.5l-8,3.2l-4.4,8Z" class="ga_120"/>
<path d="M208.1,573.5l-9.2,8.3h4Z" class="ga_120"/>
<path d="M123.5,572.5l-8.3,7.1l10.2,2Z" class="gm_120"/>
<path d="M123.5,572.5l1.9,9.1l9.8,-7.7Z" class="gl_120"/>
<path d="M182.8,572.3l-11,9h9Z" class="gg_120"/>
<path d="M182.8,572.3l-11.5,1.5l-1.2,9Z" class="gg_120"/>
<path d="M182.8,572.3h-9.9l-1.6,1.5Z" class="gn_120"/>
<path d="M112.7,570.4l2.5,9.2l8.3,-7.1Z" class="gm_120"/>
<path d="M112.7,570.4l-6.8,6.6l9.3,2.6Z" class="go_120"/>
<path d="M91.1,570.3l.8,5.1l4.9,3.6Z" class="ga_120"/>
<path d="M91.1,570.3l5.7,8.7l1.1,-5.1Z" class="ga_120"/>
<path d="M193.5,570.1l-10.3,9.2h7.7Z" class="gh_120"/>
<path d="M193.5,570.1l-10.7,2.2l-2,9Z" class="gh_120"/>
<path d="M214.7,569.9l-8.6,8.6h2.8Z" class="ga_120"/>
<path d="M214.7,569.9l-6.6,3.6l-5.2,8.3Z" class="ga_120"/>
<path d="M214.7,569.9h-3.8l-2.8,3.6Z" class="gp_120"/>
<path d="M102.8,567.7l-4.9,6.2l8,3.1Z" class="gd_120"/>
<path d="M102.8,567.7l3.1,9.3l6.8,-6.6Z" class="go_120"/>
<path d="M203.3,567.2l-9.6,9.5h6.4Z" class="gi_120"/>
<path d="M203.3,567.2l-9.8,2.9l-2.6,9.2Z" class="gi_120"/>
<path d="M85.9,566.4l2.8,5.1l3.2,3.9Z" class="ga_120"/>
<path d="M85.9,566.4l6,9l-.8,-5.1Z" class="ga_120"/>
<path d="M219.7,565.8l-10.8,12.7l4.6,-3.6Z" class="ga_120"/>
<path d="M219.7,565.8l-5,4.1l-5.8,8.6Z" class="ga_120"/>
<path d="M146.9,564.4l-11.7,9.5l12,.7Z" class="gq_120"/>
<path d="M159.6,564.4l-12.4,10.2h12.1Z" class="gr_120"/>
<path d="M159.6,564.4H146.9l.3,10.2Z" class="gr_120"/>
<path d="M94.2,564.3l-3.1,6l6.8,3.6Z" class="gs_120"/>
<path d="M94.2,564.3l3.7,9.6l4.9,-6.2Z" class="gd_120"/>
<path d="M211.8,563.8l-11.7,12.9l8,-3.2Z" class="gt_120"/>
<path d="M211.8,563.8l-8.5,3.4l-3.2,9.5Z" class="gt_120"/>
<path d="M211.8,563.8h-5.9l-2.6,3.4Z" class="gg_120"/>
<path d="M134.5,563.6l-11,8.9l11.7,1.4Z" class="gu_120"/>
<path d="M134.5,563.6l.7,10.3l11.7,-9.5Z" class="gq_120"/>
<path d="M172,563.6l-12.4,.8l-.3,10.2Z" class="gq_120"/>
<path d="M172,563.6l-12.7,11l12,-.8Z" class="gq_120"/>
<path d="M160.4,563.6l-.8,.8l12.4,-.8Z" class="gv_120"/>
<path d="M122.4,562.2l1.1,10.3l11,-8.9Z" class="gu_120"/>
<path d="M122.4,562.2l-9.7,8.2l10.8,2.1Z" class="gw_120"/>
<path d="M82.2,562.2l6.5,9.3l-2.8,-5.1Z" class="ga_120"/>
<path d="M183.9,561.9l-11,10.4h9.9Z" class="gn_120"/>
<path d="M183.9,561.9L172,563.6l-.7,10.2Z" class="gn_120"/>
<path d="M223.1,561.6l-3.4,4.2l-6.2,9.1Z" class="ga_120"/>
<path d="M223.1,561.6l-9.6,13.3l3.1,-3.8Z" class="ga_120"/>
<path d="M87,560.5l-1.1,5.9l5.2,3.9Z" class="ga_120"/>
<path d="M87,560.5l4.1,9.8l3.1,-6Z" class="gs_120"/>
<path d="M218.8,560l-7,3.8l-3.7,9.7Z" class="gp_120"/>
<path d="M218.8,560l-7.9,9.9h3.8Z" class="gp_120"/>
<path d="M218.8,560h-4.5l-2.5,3.8Z" class="gx_120"/>
<path d="M111.2,560l1.5,10.4l9.7,-8.2Z" class="gw_120"/>
<path d="M111.2,560l-8.4,7.7l9.9,2.7Z" class="gy_120"/>
<path d="M195.1,559.7l-12.3,12.6l10.7,-2.2Z" class="gz_120"/>
<path d="M195.1,559.7l-11.2,2.2l-1.1,10.4Z" class="gz_120"/>
<path d="M195.1,559.7h-9.2l-2,2.2Z" class="g10_120"/>
<path d="M100.9,557.1l1.9,10.6l8.4,-7.7Z" class="gy_120"/>
<path d="M100.9,557.1l-6.7,7.2l8.6,3.4Z" class="gl_120"/>
<path d="M205.2,556.7l-10.1,3l-1.6,10.4Z" class="g11_120"/>
<path d="M205.2,556.7l-11.7,13.4l9.8,-2.9Z" class="g11_120"/>
<path d="M81.4,556.3l4.5,10.1L87,560.5Z" class="ga_120"/>
<path d="M81.4,556.3l.8,5.9l3.7,4.2Z" class="ga_120"/>
<path d="M224.2,555.8l-9.5,14.1l5,-4.1Z" class="ga_120"/>
<path d="M224.2,555.8l-5.4,4.2l-4.1,9.9Z" class="ga_120"/>
<path d="M91.9,553.7l2.3,10.6l6.7,-7.2Z" class="gl_120"/>
<path d="M91.9,553.7L87,560.5l7.2,3.8Z" class="g12_120"/>
<path d="M214,553.2l-8.1,10.6h5.9Z" class="gg_120"/>
<path d="M214,553.2l-8.8,3.5l-1.9,10.5Z" class="gg_120"/>
<path d="M214,553.2h-6.5l-2.3,3.5Z" class="g13_120"/>
<path d="M146.9,553.1l-12.4,10.5l12.4,.8Z" class="g14_120"/>
<path d="M159.7,553L147,564.4h12.6Z" class="g15_120"/>
<path d="M159.7,553l-12.8,.1v11.3Z" class="g15_120"/>
<path d="M134.3,552.4l.2,11.2l12.4,-10.5Z" class="g14_120"/>
<path d="M134.3,552.4l-11.9,9.8l12.1,1.4Z" class="g16_120"/>
<path d="M172.2,552.2l-12.5,.8l-.1,11.4Z" class="gv_120"/>
<path d="M165.3,552.2l-.1,.4l7,-.4Z" class="g17_120"/>
<path d="M172.2,552.2l-11.8,11.4H172Z" class="gv_120"/>
<path d="M153.6,553h1.5v-1.2Z" class="g18_120"/>
<path d="M77.4,551.8l4.8,10.4l-.8,-5.9Z" class="ga_120"/>
<path d="M143.1,552.8l1.6,.1v-1.3Z" class="g19_120"/>
<path d="M144.7,552.9l2.2,.2l6.7,-.1l1.5,-1.2l-10.4,-.2Z" class="g18_120"/>
<path d="M163.6,552.7l1.6,-.1l.2,-1.3Z" class="g1a_120"/>
<path d="M165.4,551.3l-10.3,.5V553h4.6l3.9,-.3Z" class="g1a_120"/>
<path d="M155.7,551.3l-.6,.5l10.3,-.5Z" class="g1b_120"/>
<path d="M227.9,551.2l-3.7,4.6l-4.5,10Z" class="ga_120"/>
<path d="M227.9,551.2l-8.2,14.6l3.4,-4.2Z" class="ga_120"/>
<path d="M227.9,551.2h-1.8l-1.9,4.6Z" class="ga_120"/>
<path d="M122.1,550.8L111.2,560l11.2,2.2Z" class="g1c_120"/>
<path d="M122.1,550.8l.3,11.4l11.9,-9.8Z" class="g16_120"/>
<path d="M134.5,550.6l.3,1.8l8.3,.4l1.6,-1.2Z" class="g19_120"/>
<path d="M134.5,550.6l-1.7,1.6l1.5,.2h.5Z" class="g1d_120"/>
<path d="M184.3,550.6l-12.1,1.6l-.2,11.4Z" class="g16_120"/>
<path d="M183.5,550.6v.1l.8,-.1Z" class="g1e_120"/>
<path d="M184.3,550.6l-12.3,13l11.9,-1.7Z" class="g16_120"/>
<path d="M175.2,549.9l-9.8,1.4l-.1,.9h6.9l.5,-.1Z" class="g17_120"/>
<path d="M175.2,549.9l-2.5,2.2l2.2,-.3Z" class="g17_120"/>
<path d="M166.7,549.9l-1.3,1.4l9.8,-1.4Z" class="g1f_120"/>
<path d="M84.4,549.7L87,560.5l4.9,-6.8Z" class="g12_120"/>
<path d="M84.4,549.7l-3,6.6l5.6,4.2Z" class="gd_120"/>
<path d="M221.3,549.2l-7,10.8h4.5Z" class="gx_120"/>
<path d="M221.3,549.2l-7.3,4l-2.2,10.6Z" class="gx_120"/>
<path d="M221.3,549.2h-5.1l-2.2,4Z" class="g11_120"/>
<path d="M125.2,548.9l.3,2.4l7.3,.9l1.7,-1.6Z" class="g1d_120"/>
<path d="M125.2,548.9L123,551l2.5,.3Z" class="g1g_120"/>
<path d="M110.7,548.6l.5,11.4l10.9,-9.2Z" class="g1c_120"/>
<path d="M110.7,548.6l-9.8,8.5l10.3,2.9Z" class="g1h_120"/>
<path d="M195.7,548.3l-9.8,11.4h9.2Z" class="g10_120"/>
<path d="M195.7,548.3l-11.4,2.3l-.4,11.3Z" class="g10_120"/>
<path d="M193.4,548.3l-.4,.5l2.7,-.5Z" class="g1i_120"/>
<path d="M184.1,547.8l-3.2,3.3l2.6,-.4Z" class="g1j_120"/>
<path d="M184.1,547.8l-8.9,2.1l-.3,1.9l6,-.7Z" class="g1j_120"/>
<path d="M184.1,547.8H177l-1.8,2.1Z" class="g1k_120"/>
<path d="M199.5,547.1l.1,-.1Z" class="g1l_120"/>
<path d="M199.3,547.2l.2,-.1l.1,-.1Z" class="g1l_120"/>
<path d="M110.7,548.6l.5,.1l-.5,-1.8Z" class="g1m_120"/>
<path d="M116.7,546.5l-2.2,2.8l3.2,.7Z" class="g1n_120"/>
<path d="M116.7,546.5l1,3.5l4.4,.8l.9,.2l2.2,-2.1Z" class="g1g_120"/>
<path d="M100.2,545.7l-8.3,8l9,3.4Z" class="gn_120"/>
<path d="M100.2,545.7l.7,11.4l9.8,-8.5Z" class="g1h_120"/>
<path d="M78.6,545.3l-1.2,6.5l4,4.5Z" class="ga_120"/>
<path d="M78.6,545.3l2.8,11l3,-6.6Z" class="gd_120"/>
<path d="M205.9,545.3l-10.2,3l-.6,11.4Z" class="g1o_120"/>
<path d="M205.9,545.3l-10.8,14.4l10.1,-3Z" class="g1o_120"/>
<path d="M191.8,545l-4.2,4.9l3.1,-.6Z" class="g1e_120"/>
<path d="M191.8,545l-7.7,2.8l-.6,2.8h.8l3.3,-.7Z" class="g1e_120"/>
<path d="M226.9,544.8L218.8,560l5.4,-4.2Z" class="gb_120"/>
<path d="M226.9,544.8l-5.6,4.4L218.8,560Z" class="gb_120"/>
<path d="M226.9,544.8h-3.7l-1.9,4.4Z" class="g1p_120"/>
<path d="M201.3,544.5l-1.6,2.6l2,-.6Z" class="g1q_120"/>
<path d="M110.9,543.9l-.2,3l.5,1.8l3.3,.6l2.2,-2.8Z" class="g1n_120"/>
<path d="M202,543.3l-2.4,3.7l-.1,.1h.2Z" class="g1l_120"/>
<path d="M202,543.3l-2.3,3.8Z" class="g1l_120"/>
<path d="M155.2,542.5l-10.5,9.1l10.4,.2Z" class="g1r_120"/>
<path d="M144.5,542.3l-10,8.3l10.2,1Z" class="g1s_120"/>
<path d="M144.5,542.3l.2,9.3l10.5,-9.1Z" class="g1r_120"/>
<path d="M91.2,542.2l.7,11.5l8.3,-8Z" class="gn_120"/>
<path d="M91.2,542.2l-6.8,7.5l7.5,4Z" class="gy_120"/>
<path d="M165.6,541.9l-9.9,9.4h9.7Z" class="g1b_120"/>
<path d="M165.6,541.9l-10.4,.6l-.1,9.3Z" class="g1b_120"/>
<path d="M163.3,541.9l-.2,.1l2.5,-.1Z" class="g1t_120"/>
<path d="M214.8,541.7l-8.9,3.6l-.7,11.4Z" class="g13_120"/>
<path d="M213.8,541.7l-.1,.5l1.1,-.5Z" class="g1u_120"/>
<path d="M214.8,541.7l-7.3,11.5H214Z" class="g13_120"/>
<path d="M198.1,541.7l-4.7,6.6h2.3l.4,-.1Z" class="g1i_120"/>
<path d="M198.1,541.7l-6.3,3.3l-1.1,4.3l2.3,-.5Z" class="g1i_120"/>
<path d="M198.1,541.7h-4.4l-1.9,3.3Z" class="g1v_120"/>
<path d="M134.2,541.3l-9,7.6l9.3,1.7Z" class="g1w_120"/>
<path d="M134.2,541.3l.3,9.3l10,-8.3Z" class="g1s_120"/>
<path d="M74.6,540.6l2.8,11.2l1.2,-6.5Z" class="ga_120"/>
<path d="M74.6,540.6l.8,6.5l2,4.7Z" class="ga_120"/>
<path d="M170.2,541.3l1,-.2l-.3,-.5Z" class="g1x_120"/>
<path d="M175.7,540.5l-9,9.4h8.5Z" class="g1f_120"/>
<path d="M175.7,540.5l-10.1,1.4l-.2,9.4Z" class="g1f_120"/>
<path d="M173.3,540.5l-.1,.3l2.5,-.3Z" class="g1y_120"/>
<path d="M169.1,541.5l.9,-.2l1.3,-.9Z" class="g1z_120"/>
<path d="M170,541.3h.2l1.1,-.9Z" class="g1z_120"/>
<path d="M213.9,540.2l-.1,1.5h1l.7,-.3Z" class="g1u_120"/>
<path d="M212.7,542.6l1,-.4l.2,-2Z" class="g1u_120"/>
<path d="M230.8,540.1l-4.7,11.1h1.8Z" class="ga_120"/>
<path d="M230.8,540.1l-3.9,4.7l-2.7,11Z" class="ga_120"/>
<path d="M230.8,540.1h-2.5l-1.4,4.7Z" class="g20_120"/>
<path d="M124.6,539.5l.6,9.4l9,-7.6Z" class="g1w_120"/>
<path d="M124.6,539.5l-7.9,7l8.5,2.4Z" class="g21_120"/>
<path d="M132.3,539.4l2.4,2l.9,.1Z" class="g1z_120"/>
<path d="M184.8,538.3l-7.8,9.5h7.1Z" class="g1k_120"/>
<path d="M184.8,538.3l-9.1,2.2l-.5,9.4Z" class="g1k_120"/>
<path d="M182.8,538.3v.5l2,-.5Z" class="g22_120"/>
<path d="M83.6,538.2l.8,11.5l6.8,-7.5Z" class="gy_120"/>
<path d="M83.6,538.2l-5,7.1l5.8,4.4Z" class="g23_120"/>
<path d="M202.6,538.1l-4.5,3.6l-2,6.5l.8,-.2Z" class="g24_120"/>
<path d="M202.6,538.1l-5.7,9.9l2.4,-.8l.3,-.2Z" class="g24_120"/>
<path d="M222.3,537.7l-7.5,4l-.8,11.5Z" class="g11_120"/>
<path d="M222.3,537.7l-6.1,11.5h5.1Z" class="g11_120"/>
<path d="M116.1,537.1l-5.1,5.2l-.1,1.6l5.8,2.6Z" class="g25_120"/>
<path d="M116.1,537.1l.6,9.4l7.9,-7Z" class="g21_120"/>
<path d="M221.6,537.7l-.1,.4l.8,-.4Z" class="g26_120"/>
<path d="M207.1,536.6l-4.1,9.5l2.9,-.8l1.8,-.7Z" class="g27_120"/>
<path d="M207.1,536.6l.6,8l5,-2l1.2,-2.4Z" class="g27_120"/>
<path d="M111.2,536.6l-11,9.1l10.5,2.9Z" class="g28_120"/>
<path d="M221.6,537.7h.7l-.1,-1.3Z" class="g26_120"/>
<path d="M174.9,536.1l-1,1.8l-2.6,2.5l-.4,.2l.3,.5l2,-.3Z" class="g1x_120"/>
<path d="M182.8,536l-1.6,3.2l1.6,-.4Z" class="g22_120"/>
<path d="M182.8,536v2.3h2l1.9,-.7Z" class="g22_120"/>
<path d="M72.5,535.8l2.9,11.3l-.8,-6.5Z" class="ga_120"/>
<path d="M204.6,535.7l-2.6,7.6l-.7,1.2l.4,2l1.3,-.4l4.1,-9.5Z" class="g1q_120"/>
<path d="M192.7,535.6l-8.6,12.2l7.7,-2.8Z" class="g29_120"/>
<path d="M192.7,535.6l-7.9,2.7l-.7,9.5Z" class="g29_120"/>
<path d="M189.9,535.6l-.5,1.1l3.3,-1.1Z" class="g2a_120"/>
<path d="M232.6,535.1l-1.8,5l-2.9,11.1Z" class="ga_120"/>
<path d="M232.6,535.1l-4.7,16.1l1.7,-4.7Z" class="ga_120"/>
<path d="M111.3,535l-.1,1.6l-.2,5.7l5.1,-5.2Z" class="g25_120"/>
<path d="M125.6,534.9l2.2,5.2l6,1.1Z" class="g1x_120"/>
<path d="M125.6,534.9l-.8,.2l-.2,4.4l3.2,.6Z" class="g1y_120"/>
<path d="M175.8,534.5l-.9,1.6l-1.6,4.4h2.4l1.4,-.3Z" class="g1y_120"/>
<path d="M124.8,535.1l.8,-.2l-.7,-.6Z" class="g2b_120"/>
<path d="M205,534.1L199.6,547l2.4,-3.7Z" class="g1l_120"/>
<path d="M205,534.1l-2.4,4l-3,8.9Z" class="g1l_120"/>
<path d="M129.1,534l-3.5,.9l8.2,6.3l.4,.1l.5,.1l-2.4,-2l-1.7,-2.7Z" class="g1x_120"/>
<path d="M176.1,533.9l-.3,.6l1.3,5.7l4.1,-1l1.6,-3.2Z" class="g1y_120"/>
<path d="M77.7,533.8l.9,11.5l5,-7.1Z" class="g23_120"/>
<path d="M77.7,533.8l-3.1,6.8l4,4.7Z" class="g2c_120"/>
<path d="M100.9,533.7l-9.7,8.5l9,3.5Z" class="g2d_120"/>
<path d="M100.9,533.7l-.7,12l11,-9.1Z" class="g28_120"/>
<path d="M227.9,533.2l-5.6,4.5l-1,11.5Z" class="g1p_120"/>
<path d="M227.9,533.2l-4.7,11.6h3.7Z" class="g1p_120"/>
<path d="M128.8,532.9l1.8,3.8l1.7,2.7Z" class="g1z_120"/>
<path d="M124.9,534.3l.7,.6l-.6,-2.3Z" class="g2b_120"/>
<path d="M199,532.2l-6.3,3.4l-.9,9.4Z" class="g1v_120"/>
<path d="M198,532.2l.2,.4l.8,-.4Z" class="g2e_120"/>
<path d="M199,532.2l-5.3,9.5h4.4Z" class="g1v_120"/>
<path d="M197.2,533.1l.4,-.2l.2,-.9Z" class="g2f_120"/>
<path d="M197.6,532.9l.6,-.3l-.4,-.6Z" class="g2f_120"/>
<path d="M205.4,531.4l-.4,2.7l-.4,1.6l2.5,.9Z" class="g2g_120"/>
<path d="M177.6,531.3l-6.3,9.1l2.6,-2.5Z" class="g1z_120"/>
<path d="M91.9,530.3l-8.3,7.9l7.6,4Z" class="g1o_120"/>
<path d="M91.9,530.3l-.7,11.9l9.7,-8.5Z" class="g2d_120"/>
<path d="M126.8,529.9l3.8,6.8l-1.8,-3.8Z" class="g1z_120"/>
<path d="M126.8,529.9h-1.7l-.1,2.7l.6,2.3l3.5,-.9Z" class="g2h_120"/>
<path d="M125.2,529.5l-9.1,7.6l8.5,2.4Z" class="g2i_120"/>
<path d="M73.6,529l1,11.6l3.1,-6.8Z" class="g2c_120"/>
<path d="M73.6,529l-1.1,6.8l2.1,4.8Z" class="gc_120"/>
<path d="M197.8,532l.2,.2h1l-.3,-3.4Z" class="g2e_120"/>
<path d="M192.7,528.7l.3,6.7l4.2,-2.3l.6,-1.1Z" class="g2a_120"/>
<path d="M192.7,528.7l-2.8,6.9h2.8l.3,-.2Z" class="g2a_120"/>
<path d="M203.5,528.4l-5.4,13.3l4.5,-3.6Z" class="g2j_120"/>
<path d="M203.5,528.4l-4.5,3.8l-.9,9.5Z" class="g2j_120"/>
<path d="M231.7,528.4l-3.8,4.8l-1,11.6Z" class="g20_120"/>
<path d="M231.7,528.4l-3.4,11.7h2.5Z" class="g20_120"/>
<path d="M218,528.4l-4.1,11.8l1.6,1.2l3.3,-1.9Z" class="g2k_120"/>
<path d="M218,528.4l.8,11.1l2.7,-1.4l.7,-1.7l-.5,-5.3Z" class="g2k_120"/>
<path d="M116.7,527l-.6,10.1l9.1,-7.6Z" class="g2i_120"/>
<path d="M116.7,527l-4.9,4.4l-.5,3.6l4.8,2.1Z" class="g1f_120"/>
<path d="M125.5,526.9l-.3,2.6l-.1,.4h1.7l-.4,-2.3Z" class="g2h_120"/>
<path d="M84.4,526.3l-6.7,7.5l5.9,4.4Z" class="gw_120"/>
<path d="M84.4,526.3l-.8,11.9l8.3,-7.9Z" class="g1o_120"/>
<path d="M186.1,525.9L182.8,536l3.9,1.6l1.7,-.5Z" class="g2l_120"/>
<path d="M186.1,525.9l2.3,11.2l1,-.4l3.3,-8Z" class="g2l_120"/>
<path d="M112.6,525.2l-.8,6.2l4.9,-4.4Z" class="g1f_120"/>
<path d="M221.3,525.8h-2.7l-.6,2.6l3.7,2.7Z" class="g2m_120"/>
<path d="M178.7,524.9l-.5,3.2l-.6,3.2l-1.5,2.6l6.7,2.1Z" class="g2n_120"/>
<path d="M125.5,526.9l.9,.7l-.5,-3Z" class="g2h_120"/>
<path d="M210.8,524.5l3.1,15.7L218,528.4Z" class="g2o_120"/>
<path d="M210.8,524.5l-3.7,12.1l6.8,3.6Z" class="g2o_120"/>
<path d="M206.1,524.4l-2.6,4l-.9,9.7Z" class="g1m_120"/>
<path d="M206.1,524.4l-3.5,13.7l2.4,-4Z" class="g1m_120"/>
<path d="M112.7,524.1l-11.8,9.6l10.3,2.9Z" class="g1u_120"/>
<path d="M71.5,524.1l1,11.7L73.6,529Z" class="gc_120"/>
<path d="M178.9,523.8l-.2,1.1l4.1,11.1l3.3,-10.1Z" class="g2n_120"/>
<path d="M233.6,523.5l-1.9,4.9l-.9,11.7Z" class="gs_120"/>
<path d="M233.6,523.5l-2.8,16.6l1.8,-5Z" class="gs_120"/>
<path d="M206.3,522.9l-.7,7.1l-.2,1.4l1.7,5.2l3.7,-12.1Z" class="g2g_120"/>
<path d="M78.6,521.9l-5,7.1l4.1,4.8Z" class="g2p_120"/>
<path d="M78.6,521.9l-.9,11.9l6.7,-7.5Z" class="gw_120"/>
<path d="M102.8,521.4l-10.9,8.9l9,3.4Z" class="g2q_120"/>
<path d="M102.8,521.4l-1.9,12.3l11.8,-9.6Z" class="g1u_120"/>
<path d="M226.9,521.4l-4.6,16.3l5.6,-4.5Z" class="gz_120"/>
<path d="M226.9,521.4l-5.6,4.4l1,11.9Z" class="gz_120"/>
<path d="M198.1,522.3h-2.2l1.9,9.7l.9,-3.2Z" class="g2r_120"/>
<path d="M179.5,520.4l-1.9,10.9l.6,-3.2Z" class="g1z_120"/>
<path d="M179.5,520.4l-.6,3.3l-1.3,7.6Z" class="g2s_120"/>
<path d="M206.6,520.3L205,534.1l.6,-4.1Z" class="g1l_120"/>
<path d="M206.6,520.3l-.5,4.1l-1.1,9.7Z" class="g1l_120"/>
<path d="M220,519.1l-1.4,6.7h2.7Z" class="g2m_120"/>
<path d="M126.7,519l-10,8l8.5,2.5Z" class="g2t_120"/>
<path d="M195.2,518.6l.7,3.7h2.2l-.6,-2.1Z" class="g2r_120"/>
<path d="M195.2,518.6l-2.5,10.1l5.1,3.3Z" class="g2r_120"/>
<path d="M202.6,518.5l-4.5,3.8l.9,9.9Z" class="g1a_120"/>
<path d="M202.6,518.5L199,532.2l4.5,-3.8Z" class="g1a_120"/>
<path d="M94.2,518.1l-2.3,12.2l10.9,-8.9Z" class="g2q_120"/>
<path d="M94.2,518.1l-9.8,8.2l7.5,4Z" class="g15_120"/>
<path d="M74.6,517.3l-1,11.7l5,-7.1Z" class="g2p_120"/>
<path d="M74.6,517.3l-3.1,6.8l2.1,4.9Z" class="g12_120"/>
<path d="M118.9,516.7L116.7,527l10,-8Z" class="g2t_120"/>
<path d="M118.9,516.7l-5.5,4.4l-.7,3l-.1,1.1l4.1,1.8Z" class="g2u_120"/>
<path d="M230.8,516.6l-2.9,16.6l3.8,-4.8Z" class="g2v_120"/>
<path d="M230.8,516.6l-3.9,4.8l1,11.8Z" class="g2v_120"/>
<path d="M188.2,515.6l-2.1,10.3l6.6,2.8Z" class="g2u_120"/>
<path d="M188.2,515.6l4.5,13.1l2.5,-10.1Z" class="g2u_120"/>
<path d="M114.5,514.9l-1.1,6.2l5.5,-4.4Z" class="g2u_120"/>
<path d="M205,514.6l-1.5,13.8l2.6,-4Z" class="g2w_120"/>
<path d="M205,514.6l-2.4,3.9l.9,9.9Z" class="g2w_120"/>
<path d="M87,514.2l-2.6,12.1l9.8,-8.2Z" class="g15_120"/>
<path d="M87,514.2l-8.4,7.7l5.8,4.4Z" class="g2m_120"/>
<path d="M218.8,513.8h-3.1l3.5,1.8Z" class="g1o_120"/>
<path d="M179.8,513.1l-.7,4.9l.4,2.4l-.6,3.4l7.2,2.1Z" class="g2t_120"/>
<path d="M179.8,513.1l6.3,12.8l2.1,-10.3Z" class="g2t_120"/>
<path d="M195.7,513.1l-.5,5.5l2.3,1.6Z" class="g2x_120"/>
<path d="M205.9,513.1l.7,7.2l-.3,2.6l4.5,1.6Z" class="g2q_120"/>
<path d="M178.2,512.9l.9,5.1l.7,-4.9Z" class="g2y_120"/>
<path d="M72.5,512.4l-1,11.7l3.1,-6.8Z" class="g12_120"/>
<path d="M71.4,519.1l.1,5l1,-11.7Z" class="gb_120"/>
<path d="M213,512.3l-2.2,12.2l7.2,3.9Z" class="g15_120"/>
<path d="M213,512.3l5,16.1l2,-9.3l-.8,-3.5Z" class="g15_120"/>
<path d="M195.4,512.3h-3.3l3.1,6.3l.5,-5.5Z" class="g1f_120"/>
<path d="M232.6,511.8l-.9,16.6l1.9,-4.9Z" class="g2z_120"/>
<path d="M232.6,511.8l-1.8,4.8l.9,11.8Z" class="g2z_120"/>
<path d="M115.2,511.7l-12.4,9.7l9.9,2.7Z" class="g30_120"/>
<path d="M206.1,524.4l.5,-4.1l-1,-9.7Z" class="g31_120"/>
<path d="M205,514.6l1.1,9.8l-.5,-13.8Z" class="g31_120"/>
<path d="M81.4,510l-6.8,7.3l4,4.6Z" class="gu_120"/>
<path d="M81.4,510l-2.8,11.9L87,514.2Z" class="g2m_120"/>
<path d="M224.2,509.5l-2.9,16.3l5.6,-4.4Z" class="g32_120"/>
<path d="M224.2,509.5l-5.4,4.3l2.5,12Z" class="g32_120"/>
<path d="M205.2,509.3l.4,1.3l.3,2.5l4.9,11.4L213,512.3Z" class="g2q_120"/>
<path d="M105.9,509.1l-3.1,12.3l12.4,-9.7Z" class="g30_120"/>
<path d="M105.9,509.1l-11.7,9l8.6,3.3Z" class="g2g_120"/>
<path d="M199.6,508.8l-1.5,13.5l4.5,-3.8Z" class="g1f_120"/>
<path d="M199.6,508.8l-4.2,3.5l2.7,10Z" class="g1f_120"/>
<path d="M129.3,508.7l-10.4,8l7.8,2.3Z" class="g2n_120"/>
<path d="M71.4,519.1l1.1,-6.7l-.1,-4.9Z" class="gb_120"/>
<path d="M232.6,511.8l1,11.7l-1.2,-16.7Z" class="gb_120"/>
<path d="M233.6,523.5l-.2,-5l-1,-11.7Z" class="gb_120"/>
<path d="M122.2,506.6l-7,5.2l-.7,3.1l4.4,1.8Z" class="g2l_120"/>
<path d="M122.2,506.6l-3.3,10.1l10.4,-8Z" class="g2n_120"/>
<path d="M174.5,506.3l3.7,6.4v.2l1.6,.2Z" class="g2u_120"/>
<path d="M97.9,506L87,514.2l7.2,3.9Z" class="g2o_120"/>
<path d="M97.9,506l-3.7,12.1l11.7,-9Z" class="g2g_120"/>
<path d="M188.9,505.5l3.2,6.8h3.3l-2.1,-4.8Z" class="g1f_120"/>
<path d="M188.9,505.5l-.7,10.1l7,3Z" class="g1f_120"/>
<path d="M77.4,505.5l-2.8,11.8L81.4,510Z" class="gu_120"/>
<path d="M77.4,505.5l-4.9,6.9l2.1,4.9Z" class="g33_120"/>
<path d="M202,505.1l-2.4,3.7l3,9.7Z" class="g34_120"/>
<path d="M202,505.1l.6,13.4l2.4,-3.9Z" class="g34_120"/>
<path d="M227.9,505l-1,16.4l3.9,-4.8Z" class="gn_120"/>
<path d="M227.9,505l-3.7,4.5l2.7,11.9Z" class="gn_120"/>
<path d="M130.7,504.7l-.7,1.8l1.1,-1.8Z" class="g35_120"/>
<path d="M117.2,504.5l-2,7.2v.1l7,-5.2Z" class="g2l_120"/>
<path d="M130.7,504.7h.4l.6,-.5l-.6,-.6Z" class="g35_120"/>
<path d="M180.4,503.1l-.6,10l8.4,2.5Z" class="g2i_120"/>
<path d="M180.4,503.1l7.8,12.5l.7,-10.1Z" class="g2i_120"/>
<path d="M91.1,502.4L81.4,510l5.6,4.2Z" class="g2k_120"/>
<path d="M91.1,502.4L87,514.2L97.9,506Z" class="g2o_120"/>
<path d="M133.7,502.2h-2.1l-.5,1.4l.6,.6Z" class="g35_120"/>
<path d="M191.1,502.7h-2.4l.2,2.8l4.4,2Z" class="g25_120"/>
<path d="M131.8,501.8l-.2,.4h2.1l1,-.9Z" class="g35_120"/>
<path d="M170.7,501.7l.9,.6l-.9,-1Z" class="g2u_120"/>
<path d="M170.7,501.3l.9,1l1.1,.9l1.6,2.7l.2,.4l5.3,6.8l.6,-10Z" class="g2u_120"/>
<path d="M214.5,502l1,2.4l-.8,-2.4Z" class="g1o_120"/>
<path d="M170.7,501.7v-.4l-.5,-.1Z" class="g36_120"/>
<path d="M202.5,501.2l-.5,3.9l3,9.5Z" class="g37_120"/>
<path d="M202.5,501.2l2.5,13.4l.6,-4Z" class="g37_120"/>
<path d="M75.4,500.9l-3,6.6l.1,4.9Z" class="g38_120"/>
<path d="M75.4,500.9l-2.9,11.5l4.9,-6.9Z" class="g33_120"/>
<path d="M214.5,502h.2l-.9,-1.6Z" class="g1o_120"/>
<path d="M213.8,500.4l-.8,11.9l2.7,1.5h3.1l-3.3,-9.4Z" class="g1o_120"/>
<path d="M229.6,500.3l-1.7,4.7l2.9,11.6Z" class="g39_120"/>
<path d="M229.6,500.3l1.2,16.3l1.8,-4.8Z" class="g39_120"/>
<path d="M194.9,499.6l-3.8,3.1l4.3,9.6Z" class="g3a_120"/>
<path d="M194.9,499.6l.5,12.7l4.2,-3.5Z" class="g3a_120"/>
<path d="M118.7,499.4l-12.8,9.7l9.3,2.6Z" class="g3b_120"/>
<path d="M132.8,498.9l-10.6,7.7l7.1,2.1Z" class="g1y_120"/>
<path d="M85.9,498.5L81.4,510l9.7,-7.6Z" class="g2k_120"/>
<path d="M85.9,498.5l-8.5,7l4,4.5Z" class="g26_120"/>
<path d="M188.3,498.4l.4,4.3h2.4Z" class="g25_120"/>
<path d="M219.7,497.9l-.9,15.9l5.4,-4.3Z" class="g28_120"/>
<path d="M219.7,497.9l-5,4.1l4.1,11.8Z" class="g28_120"/>
<path d="M136,497.9l1.4,1.2l1.4,-1.2Z" class="g1f_120"/>
<path d="M126.7,497.2l-9.1,6l-.4,1.3l5,2.1Z" class="g22_120"/>
<path d="M126.7,497.2l-4.5,9.4l10.6,-7.7Z" class="g1y_120"/>
<path d="M110.2,497.1L97.9,506l8,3.1Z" class="g1q_120"/>
<path d="M110.2,497.1l-4.3,12l12.8,-9.7Z" class="g3b_120"/>
<path d="M204.7,496.9l8.3,15.4l.8,-11.9Z" class="g2d_120"/>
<path d="M204.7,496.9l-.5,9.5l1,2.9l7.8,3Z" class="g2d_120"/>
<path d="M139.4,496.5v1.1l2.6,-1.1Z" class="g1b_120"/>
<path d="M134,496.3l-1.2,2.6l-1,2.9l2.9,-.5l2.7,-2.2Z" class="g1f_120"/>
<path d="M197.1,496.2l-2.2,3.4l4.7,9.2Z" class="g1s_120"/>
<path d="M197.1,496.2l2.5,12.6l2.4,-3.7Z" class="g1s_120"/>
<path d="M75.3,496.1l-2.9,11.4l3,-6.6Z" class="g38_120"/>
<path d="M199.9,495.5l1.2,2l1.4,3.7l1.7,5.2l.5,-9.5Z" class="g28_120"/>
<path d="M229.5,495.5l.1,4.8l3,11.5Z" class="g3c_120"/>
<path d="M229.5,495.5l3.1,16.3l-.2,-5Z" class="g3c_120"/>
<path d="M121.7,495l-1.8,1.1l-1.2,3.3l-.4,1.3Z" class="g2y_120"/>
<path d="M121.7,495l-3.4,5.7l-.7,2.5l9.1,-6Z" class="g22_120"/>
<path d="M156.8,494.8l2,.6l5.7,1.6Z" class="g3d_120"/>
<path d="M156.8,494.8l7.7,2.2l-3.8,-1.2Z" class="g3e_120"/>
<path d="M149.8,494.3v.2l2,-.2Z" class="g1r_120"/>
<path d="M102.9,494.3l-11.8,8.1l6.8,3.6Z" class="g27_120"/>
<path d="M102.9,494.3l-5,11.7l12.3,-8.9Z" class="g1q_120"/>
<path d="M82.2,494.3l-6.8,6.6l2,4.6Z" class="gr_120"/>
<path d="M82.2,494.3l-4.8,11.2l8.5,-7Z" class="g26_120"/>
<path d="M120.5,494.3l-.6,1.8l1.8,-1.1Z" class="g2y_120"/>
<path d="M179.8,493.7l9.1,11.8l-.6,-7.1l-1.7,-2.7Z" class="g21_120"/>
<path d="M179.8,493.7l.6,9.4l8.5,2.4Z" class="g21_120"/>
<path d="M223.1,493.7l-3.4,4.2l4.5,11.6Z" class="g1c_120"/>
<path d="M223.1,493.7l1.1,15.8l3.7,-4.5Z" class="g1c_120"/>
<path d="M185.3,493.8h-5.4l6.7,1.9Z" class="g1g_120"/>
<path d="M197.5,492.7l-.4,3.5l4.9,8.9Z" class="g21_120"/>
<path d="M197.5,492.7l4.5,12.4l.5,-3.9Z" class="g21_120"/>
<path d="M170.4,492l.3,9.3l9.7,1.8Z" class="g1w_120"/>
<path d="M170.4,492l10,11.1l-.6,-9.4Z" class="g1w_120"/>
<path d="M139.6,491.4l-3.5,.5l-2.1,4.4l2,1.6h2.8l.6,-.3Z" class="g1f_120"/>
<path d="M139.6,491.4l-.2,5.1H142l2.7,-.8Z" class="g1b_120"/>
<path d="M188.5,491.1l-3.2,2.7l5.8,8.9Z" class="g3f_120"/>
<path d="M188.5,491.1l2.6,11.6l3.8,-3.1Z" class="g3f_120"/>
<path d="M96.8,491l-10.9,7.5l5.2,3.9Z" class="g1u_120"/>
<path d="M96.8,491l-5.7,11.4l11.8,-8.1Z" class="g27_120"/>
<path d="M160.3,491l10.4,10.3l-.3,-9.3Z" class="g1s_120"/>
<path d="M160.3,491l.1,4.7l.3,.1l3.8,1.2l2.7,1.7l3,2.5l.5,.1Z" class="g1s_120"/>
<path d="M149.8,490.8l4.1,3.5h.4l2.5,.5l3.6,.9l-.1,-4.7Z" class="g1r_120"/>
<path d="M149.8,490.8l-10.2,.6l5.1,4.3l2.3,-.6l2.2,-.6h.6Z" class="g1b_120"/>
<path d="M149.8,490.8v3.5h4.1Z" class="g1r_120"/>
<path d="M137,489.9l-10.3,7.3l6.1,1.7Z" class="g1x_120"/>
<path d="M80.3,489.9l-4.9,11l6.8,-6.6Z" class="gr_120"/>
<path d="M80.3,489.9l-5,6.2l.1,4.8Z" class="g3g_120"/>
<path d="M137.3,489.5l-.3,.4l-.9,2l3.5,-.5Z" class="g17_120"/>
<path d="M196.2,489.3l1.3,3.4l5,8.5Z" class="g3h_120"/>
<path d="M196.2,489.3l6.3,11.9l-1.4,-3.7Z" class="g3h_120"/>
<path d="M224.7,489.3l3.2,15.7l1.7,-4.7Z" class="g3i_120"/>
<path d="M224.7,489.3l-1.6,4.4l4.8,11.3Z" class="g3i_120"/>
<path d="M132.2,488.6l-5.5,8.6L137,489.9Z" class="g1x_120"/>
<path d="M132.2,488.6L121.7,495l5,2.2Z" class="g1y_120"/>
<path d="M208.9,490.6h-1.5l6.4,9.8v-.1Z" class="gn_120"/>
<path d="M190.4,488.2l4.5,11.4l2.2,-3.4Z" class="g2u_120"/>
<path d="M190.4,488.2l-1.9,2.9l6.4,8.5Z" class="g2u_120"/>
<path d="M122.9,487.7l-12.7,9.4l8.5,2.3Z" class="g3j_120"/>
<path d="M91.9,487.4l-6,11.1L96.8,491Z" class="g1u_120"/>
<path d="M91.9,487.4l-9.7,6.9l3.7,4.2Z" class="g3k_120"/>
<path d="M213.5,486.9l1.2,15.1l5,-4.1Z" class="g3l_120"/>
<path d="M213.5,486.9l-4.6,3.7l5.8,11.4Z" class="g3l_120"/>
<path d="M128.3,486.8l-6.6,8.2l10.5,-6.4Z" class="g1y_120"/>
<path d="M128.3,486.8l-6.3,3.4l-1.5,4.1l1.2,.7Z" class="g3m_120"/>
<path d="M178.4,485.9l1.4,7.8l.1,.1h5.4Z" class="g1g_120"/>
<path d="M178.4,485.9h-6.8l8.2,7.8Z" class="g1d_120"/>
<path d="M115.6,485.6l-5.4,11.5l12.7,-9.4Z" class="g3j_120"/>
<path d="M115.6,485.6l-12.7,8.7l7.3,2.8Z" class="g3n_120"/>
<path d="M204,485.5l3.4,5.1h1.5l-3,-4.4Z" class="gn_120"/>
<path d="M204,485.5l.7,11.4l9.1,3.5Z" class="gn_120"/>
<path d="M80.2,485.4l-4.9,10.7l5,-6.2Z" class="g3g_120"/>
<path d="M80.2,485.4l-3.1,6l-1.8,4.7Z" class="gl_120"/>
<path d="M80.2,485.4h-.3l-2.8,6Z" class="gl_120"/>
<path d="M190.7,485.3l6.4,10.9l.4,-3.5Z" class="g2r_120"/>
<path d="M190.7,485.3l-.3,2.9l6.7,8Z" class="g2r_120"/>
<path d="M125.3,484.9l-1.4,.6l-.6,1.3Z" class="g2y_120"/>
<path d="M125.3,484.9l-2,1.9l-.4,.9l-.9,2.5l6.3,-3.4Z" class="g3m_120"/>
<path d="M140.1,484.8l-2.8,4.7l2.3,1.9Z" class="g17_120"/>
<path d="M224.6,484.8l5,15.5l-.1,-4.8Z" class="gy_120"/>
<path d="M224.6,484.8l.1,4.5l4.9,11Z" class="gy_120"/>
<path d="M123.9,485.5l1.4,-.6l-.8,-.8Z" class="g2y_120"/>
<path d="M180.8,483.8l-2.4,2.1l6.9,7.9Z" class="g3o_120"/>
<path d="M180.8,483.8l4.5,10l3.2,-2.7Z" class="g3o_120"/>
<path d="M169.4,483.7l2.2,2.2h6.8l-.9,-.6Z" class="g1d_120"/>
<path d="M169.4,483.7l1,8.3l9.4,1.7Z" class="g1d_120"/>
<path d="M140.9,483.6l-.8,1.2l-.5,6.6l10.2,-.6Z" class="g1a_120"/>
<path d="M88.7,483.6l-8.4,6.3l1.9,4.4Z" class="g3p_120"/>
<path d="M88.7,483.6l-6.5,10.7l9.7,-6.9Z" class="g3k_120"/>
<path d="M109.1,483.2L96.8,491l6.1,3.3Z" class="g3q_120"/>
<path d="M109.1,483.2l-6.2,11.1l12.7,-8.7Z" class="g3n_120"/>
<path d="M216.6,483.1l3.1,14.8l3.4,-4.2Z" class="g3r_120"/>
<path d="M216.6,483.1l-3.1,3.8l6.2,11Z" class="g3r_120"/>
<path d="M159.8,482.8l.5,8.2l10.1,1Z" class="g19_120"/>
<path d="M159.8,482.8l10.6,9.2l-1,-8.3Z" class="g19_120"/>
<path d="M150,482.6l-8.8,.6l-.3,.4l8.9,7.2Z" class="g1a_120"/>
<path d="M150,482.6l10.3,8.4l-.5,-8.2Z" class="g18_120"/>
<path d="M150,482.6l-.2,8.2l10.5,.2Z" class="g18_120"/>
<path d="M193.8,482.6l.1,4.2l2.3,2.5l3.7,6.2l4.8,1.4Z" class="g1h_120"/>
<path d="M193.8,482.6l10.9,14.3L204,485.5Z" class="g1h_120"/>
<path d="M203.5,482.5l.5,3l1.9,.7Z" class="gl_120"/>
<path d="M189.6,482.4l7.9,10.3l-1.3,-3.4Z" class="g1k_120"/>
<path d="M189.6,482.4l1.1,2.9l6.8,7.4Z" class="g1k_120"/>
<path d="M141.8,482.2l-9.6,6.4l4.8,1.3Z" class="g3s_120"/>
<path d="M189.1,481.7l4.1,4.3l.7,.8l-.1,-4.2Z" class="g1c_120"/>
<path d="M182.3,481.6l-1.5,2.2l7.7,7.3Z" class="g3f_120"/>
<path d="M182.3,481.6l6.2,9.5l1.9,-2.9Z" class="g3f_120"/>
<path d="M138.6,481.2l-6.4,7.4l9.6,-6.4Z" class="g3s_120"/>
<path d="M138.6,481.2l-10.3,5.6l3.9,1.8Z" class="g1y_120"/>
<path d="M81.8,481l-1.9,4.4h.3Z" class="gl_120"/>
<path d="M222.7,480.4l1.9,4.4l4.9,10.7Z" class="g23_120"/>
<path d="M222.7,480.4l6.8,15.1l-2,-4.6Z" class="g23_120"/>
<path d="M103.7,480.3L96.8,491l12.3,-7.8Z" class="g3q_120"/>
<path d="M103.7,480.3l-11.8,7.1l4.9,3.6Z" class="g27_120"/>
<path d="M135.8,480l-10.5,4.9l3,1.9Z" class="g3t_120"/>
<path d="M135.8,480l-7.5,6.8l10.3,-5.6Z" class="g1y_120"/>
<path d="M187.2,479.6l2.4,2.8l6.6,6.9Z" class="g3u_120"/>
<path d="M187.2,479.6l9,9.7l-3,-3.3Z" class="g3u_120"/>
<path d="M87,479.6l-6.7,10.3l8.4,-6.3Z" class="g3p_120"/>
<path d="M87,479.6l-6.8,5.8l.1,4.5Z" class="g1o_120"/>
<path d="M182.6,479.2l-.3,2.4l8.1,6.6Z" class="g3v_120"/>
<path d="M182.6,479.2l7.8,9l.3,-2.9Z" class="g3v_120"/>
<path d="M170.3,479.4h-2l1.1,4.3l8.1,1.6Z" class="g3w_120"/>
<path d="M201.8,480h-2.6l4.8,5.5l-.5,-3Z" class="gy_120"/>
<path d="M218.1,479.1l-1.5,4l6.5,10.6Z" class="g2d_120"/>
<path d="M218.1,479.1l5,14.6l1.6,-4.4Z" class="g2d_120"/>
<path d="M144.7,478.8l-2.9,3.4l-.6,1l8.8,-.6Z" class="g3x_120"/>
<path d="M133.7,478.7l-8.1,3.1l-1.1,2.3l.8,.8Z" class="g2n_120"/>
<path d="M133.7,478.7l-8.4,6.2L135.8,480Z" class="g3t_120"/>
<path d="M168.3,479.4h2l-2.4,-1.3Z" class="g3w_120"/>
<path d="M172,477.9l-1.7,1.5l8.1,6.5Z" class="g2h_120"/>
<path d="M172,477.9l6.4,8l2.4,-2.1Z" class="g2h_120"/>
<path d="M99.6,477.2l-10.9,6.4l3.2,3.8Z" class="g3y_120"/>
<path d="M99.6,477.2l-7.7,10.2l11.8,-7.1Z" class="g27_120"/>
<path d="M132.3,477.2l-5.4,1.7l-1,2.2Z" class="g2y_120"/>
<path d="M132.3,477.2l-6.4,3.9l-.3,.7l8.1,-3.1Z" class="g2n_120"/>
<path d="M181.7,476.9l9,8.4l-1.1,-2.9Z" class="g3z_120"/>
<path d="M181.7,476.9l.9,2.3l8.1,6.1Z" class="g3z_120"/>
<path d="M127.9,476.8l-12.3,8.8l7.3,2.1Z" class="g40_120"/>
<path d="M205.9,476.8l-4.1,3.2l7.1,10.6Z" class="g27_120"/>
<path d="M205.9,476.8l3,13.8l4.6,-3.7Z" class="g27_120"/>
<path d="M173,476.4l-1,1.5l8.8,5.9Z" class="g41_120"/>
<path d="M173,476.4l7.8,7.4l1.5,-2.2Z" class="g41_120"/>
<path d="M159.1,476.1l10.3,7.6l-1.5,-5.6l-2.3,-1.4Z" class="g42_120"/>
<path d="M159.1,476.1l.7,6.7l9.6,.9Z" class="g42_120"/>
<path d="M150.3,475.9l9.5,6.9l-.7,-6.7Z" class="g1n_120"/>
<path d="M150.3,475.9l-3.5,.3l-2.1,2.6l5.3,3.8Z" class="g3x_120"/>
<path d="M150.3,475.9l-.3,6.7l9.8,.2Z" class="g1n_120"/>
<path d="M147,475.9l-8.4,5.3l3.2,1Z" class="g1x_120"/>
<path d="M131.8,475.6l-3.8,1.1l-.1,.1l-.4,1Z" class="g2t_120"/>
<path d="M131.8,475.6l-4.3,2.2l-.6,1.1l5.4,-1.7Z" class="g2y_120"/>
<path d="M128.6,475.6l-.6,1.1l3.8,-1.1Z" class="g2t_120"/>
<path d="M86.9,475.6L81.8,481l-1.6,4.4Z" class="gw_120"/>
<path d="M86.9,475.6l-6.7,9.8L87,479.6Z" class="g1o_120"/>
<path d="M86.9,475.6H85.6L81.8,481Z" class="gw_120"/>
<path d="M145.3,475.5l-6.7,5.7l8.4,-5.3Z" class="g1x_120"/>
<path d="M145.3,475.5l-9.5,4.5l2.8,1.2Z" class="g1y_120"/>
<path d="M121.8,475.1l-12.7,8.1l6.5,2.4Z" class="g3j_120"/>
<path d="M121.8,475.1l-6.2,10.5l12.3,-8.8Z" class="g40_120"/>
<path d="M218,475.1l.1,4l6.6,10.2Z" class="g43_120"/>
<path d="M218,475.1l6.7,14.2l-.1,-4.5Z" class="g43_120"/>
<path d="M144,474.8l-8.2,5.2l9.5,-4.5Z" class="g1y_120"/>
<path d="M144,474.8l-10.3,3.9l2.1,1.3Z" class="g1y_120"/>
<path d="M173.2,474.8l-.2,1.6l9.3,5.2Z" class="g44_120"/>
<path d="M173.2,474.8l9.1,6.8l.3,-2.4Z" class="g44_120"/>
<path d="M147,475.9l-.2,.3l3.5,-.3l-1.9,-1.1Z" class="g1l_120"/>
<path d="M179.7,474.8l9.9,7.6l-2.4,-2.8Z" class="g45_120"/>
<path d="M179.7,474.8l2,2.1l7.9,5.5Z" class="g45_120"/>
<path d="M142.9,474.2l-10.6,3l1.4,1.5Z" class="g2h_120"/>
<path d="M142.9,474.2l-9.2,4.5L144,474.8Z" class="g1y_120"/>
<path d="M129.1,474.7l-.4,.8L132,474Z" class="g3v_120"/>
<path d="M132,474l-3.3,1.5l-.1,.1h3.2Z" class="g2t_120"/>
<path d="M129.5,474l-.4,.7L132,474Z" class="g3v_120"/>
<path d="M96.7,473.9L87,479.6l1.7,4Z" class="g46_120"/>
<path d="M96.7,473.9l-8,9.7l10.9,-6.4Z" class="g3y_120"/>
<path d="M161.6,474.5h-2.9l.4,1.6l6.5,.6Z" class="g1l_120"/>
<path d="M162.4,473.8l-.8,.7l8.7,4.9Z" class="g2h_120"/>
<path d="M162.4,473.8l7.9,5.6l1.7,-1.5Z" class="g2h_120"/>
<path d="M158.7,474.5h2.9l-3,-1Z" class="g1l_120"/>
<path d="M208.5,473.4l5,13.5l3.1,-3.8Z" class="g1u_120"/>
<path d="M208.5,473.4l-2.6,3.4l7.6,10.1Z" class="g1u_120"/>
<path d="M142.2,473.4l-10.4,2.2l.5,1.6Z" class="g47_120"/>
<path d="M142.2,473.4l-9.9,3.8l10.6,-3Z" class="g2h_120"/>
<path d="M172.6,473.3l.6,1.5l9.4,4.4Z" class="g48_120"/>
<path d="M172.6,473.3l10,5.9l-.9,-2.3Z" class="g48_120"/>
<path d="M150.5,473.1l-2.1,1.7l1.9,1.1Z" class="g1l_120"/>
<path d="M116.5,473.1l-7.4,10.1l12.7,-8.1Z" class="g3j_120"/>
<path d="M116.5,473.1l-12.8,7.2l5.4,2.9Z" class="g3b_120"/>
<path d="M163,473l-.6,.8l9.6,4.1Z" class="g3m_120"/>
<path d="M163,473l9,4.9l1,-1.5Z" class="g3m_120"/>
<path d="M176.7,472.8l10.5,6.8l-3.9,-2.5Z" class="g2e_120"/>
<path d="M176.7,472.8l3,2l7.5,4.8Z" class="g2e_120"/>
<path d="M141.9,472.6L132,474l-.2,1.6Z" class="g2y_120"/>
<path d="M141.9,472.6l-10.1,3l10.4,-2.2Z" class="g47_120"/>
<path d="M129.7,473.7l-.2,.3H132l1,-1.5Z" class="g3v_120"/>
<path d="M130,473.1l-.3,.6l3.3,-1.2Z" class="g49_120"/>
<path d="M130.4,472.5l-.4,.6l3,-.6Z" class="g49_120"/>
<path d="M192.3,472.2l1.5,10.4l10.2,2.9Z" class="gy_120"/>
<path d="M192.3,472.2l6.9,7.8h2.6L196,473.3Z" class="gy_120"/>
<path d="M163,472.2v.8l10,3.4Z" class="g41_120"/>
<path d="M163,472.2l10,4.2l.2,-1.6Z" class="g41_120"/>
<path d="M151.9,471.9l-1.4,1.2l-.2,2.8l8.8,.2Z" class="g1l_120"/>
<path d="M142,471.8l-9,.7l-1,1.5Z" class="g44_120"/>
<path d="M142,471.8L132,474l9.9,-1.4Z" class="g2y_120"/>
<path d="M137.5,471.8l-4.5,.7l9,-.7Z" class="g44_120"/>
<path d="M171.2,471.7l10.5,5.2l-2,-2.1Z" class="g3a_120"/>
<path d="M171.2,471.7l1.4,1.6l9.1,3.6Z" class="g3a_120"/>
<path d="M88.3,471.5l-2.7,4.1h1.3Z" class="gw_120"/>
<path d="M152.5,471.4l-8.5,3.4l1.3,.7Z" class="g2h_120"/>
<path d="M152.5,471.4l-7.2,4.1l1.7,.4Z" class="g4a_120"/>
<path d="M152.5,471.4l-9.6,2.8l1.1,.6Z" class="g2h_120"/>
<path d="M152.5,471.4l9.1,3.1l.8,-.7Z" class="g22_120"/>
<path d="M152.5,471.4l-.6,.5l7.2,4.2l-.5,-2.6Z" class="g1l_120"/>
<path d="M152.5,471.4l-10.3,2l.7,.8Z" class="g22_120"/>
<path d="M152.5,471.4l-10.6,1.2l.3,.8Z" class="g2n_120"/>
<path d="M142,471.8l-.1,.8l10.6,-1.2Z" class="g4b_120"/>
<path d="M152.5,471.4l9.9,2.4l.6,-.8Z" class="g3m_120"/>
<path d="M152.5,471.4L163,473v-.8Z" class="g4b_120"/>
<path d="M152.5,471.4l10.5,.8l-.2,-.9Z" class="g47_120"/>
<path d="M162.8,471.3l10.4,3.5l-.6,-1.5Z" class="g4c_120"/>
<path d="M162.8,471.3l.2,.9l10.2,2.6Z" class="g4c_120"/>
<path d="M216.3,471.1l1.7,4l6.6,9.7Z" class="gz_120"/>
<path d="M216.3,471.1l8.3,13.7l-1.9,-4.4Z" class="gz_120"/>
<path d="M130.4,472.5H133l1.7,-1.4Z" class="g49_120"/>
<path d="M130.8,471.8l-.4,.7l4.3,-1.4Z" class="g4d_120"/>
<path d="M133,471.1l-2.1,.6l-.1,.1l3.9,-.7Z" class="g4d_120"/>
<path d="M142.5,471l-7.8,.1l-1.7,1.4Z" class="g4e_120"/>
<path d="M137.5,471.8H142l.5,-.8Z" class="g44_120"/>
<path d="M142,471.8l10.5,-.4l-10,-.4Z" class="g3o_120"/>
<path d="M112,470.7l-8.3,9.6l12.8,-7.2Z" class="g3b_120"/>
<path d="M112,470.7l-12.4,6.5l4.1,3.1Z" class="g3q_120"/>
<path d="M162,470.6l.8,.7l9.8,2Z" class="g3f_120"/>
<path d="M152.5,471.4l10.3,-.1l-.8,-.7Z" class="g41_120"/>
<path d="M162,470.6l10.6,2.7l-1.4,-1.6Z" class="g3f_120"/>
<path d="M95.2,470.4L87,479.6l9.7,-5.7Z" class="g46_120"/>
<path d="M95.2,470.4l-8.3,5.2l.1,4Z" class="g4f_120"/>
<path d="M169.2,470.4l2,1.3l8.5,3.1Z" class="g2i_120"/>
<path d="M169.2,470.4l10.5,4.4l-3,-2Z" class="g2i_120"/>
<path d="M133.6,470.3l-.1,.4l1,-.4Z" class="gq_120"/>
<path d="M134.7,471.1l7.8,-.1l.9,-.8Z" class="g4e_120"/>
<path d="M142.5,471l10,.4l-9.1,-1.2Z" class="g2b_120"/>
<path d="M181.4,470.1l.6,6.2l1.3,.8l3.9,2.5l1.9,2.1l4.7,.9Z" class="gw_120"/>
<path d="M181.4,470.1l12.4,12.5l-1.5,-10.4Z" class="gw_120"/>
<path d="M209.8,470l6.8,13.1l1.5,-4Z" class="g4g_120"/>
<path d="M209.8,470l-1.3,3.4l8.1,9.7Z" class="g4g_120"/>
<path d="M160.9,470l10.3,1.7l-2,-1.3Z" class="g4h_120"/>
<path d="M160.9,470l1.1,.6l9.2,1.1Z" class="g4h_120"/>
<path d="M152.5,471.4l9.5,-.8l-1.1,-.6Z" class="g2b_120"/>
<path d="M133,471.1h1.7l2.4,-1.3Z" class="g4d_120"/>
<path d="M134.7,471.1l8.7,-.9l-6.3,-.4Z" class="g36_120"/>
<path d="M137.1,469.8l-2.6,.5l-3.6,1.4Z" class="g4i_120"/>
<path d="M136.5,469.8l-2,.5l2.6,-.5Z" class="g4i_120"/>
<path d="M144.6,469.6l-1.2,.6l9.1,1.2Z" class="g4j_120"/>
<path d="M137.1,469.8l6.3,.4l1.2,-.6Z" class="g36_120"/>
<path d="M160.9,470l8.3,.4l-9.6,-1.1Z" class="g2a_120"/>
<path d="M159.6,469.3l-7.1,2.1l8.4,-1.4Z" class="g2y_120"/>
<path d="M159.6,469.3l9.6,1.1l-2.8,-1.2Z" class="g2a_120"/>
<path d="M166.4,469.2l10.3,3.6l-4,-1.7Z" class="g1b_120"/>
<path d="M166.4,469.2l2.8,1.2l7.5,2.4Z" class="g1b_120"/>
<path d="M146.2,469l-1.6,.6l7.9,1.8Z" class="g2y_120"/>
<path d="M157.9,468.9l-5.4,2.5l7.1,-2.1Z" class="g2y_120"/>
<path d="M159.6,469.3l6.8,-.1l-8.5,-.3Z" class="g2u_120"/>
<path d="M133.7,468.8l-.1,1.5h.9l.9,-.2Z" class="gq_120"/>
<path d="M133.7,468.8l-1.3,.2l-1.5,2.7l2.6,-1Z" class="gn_120"/>
<path d="M193.5,470.4h-1.8l.6,1.8l3.7,1.1Z" class="go_120"/>
<path d="M144.6,469.6l1.6,-.6l-6.1,-.3Z" class="g3v_120"/>
<path d="M137.1,469.8l7.5,-.2l-4.5,-.9Z" class="g3v_120"/>
<path d="M136.5,469.8h.6l3,-1.1Z" class="g4i_120"/>
<path d="M135.4,468.7l-1.7,.1l1.7,1.3l4.7,-1.4Z" class="gq_120"/>
<path d="M169.8,468.7l.1,1.5l2.4,.8Z" class="gu_120"/>
<path d="M169.8,468.7l2.5,2.3l.4,.1l4,1.7l5.3,3.5l-.6,-6.2Z" class="gu_120"/>
<path d="M147.9,468.7l-1.7,.3l6.3,2.4Z" class="g2y_120"/>
<path d="M156.1,468.5l-3.6,2.9l5.4,-2.5Z" class="g2y_120"/>
<path d="M191.2,468.4l.5,2h1.8Z" class="go_120"/>
<path d="M149.9,468.4l-2,.3l4.6,2.7Z" class="g4c_120"/>
<path d="M154.1,468.3l-1.6,3.1l3.6,-2.9Z" class="g4c_120"/>
<path d="M163.2,468.3l3.2,.9l3.5,1l-.1,-1.5Z" class="gq_120"/>
<path d="M135.4,468.7h4.7l1.9,-.5Z" class="gq_120"/>
<path d="M157.9,468.9l8.5,.3l-3.3,-1Z" class="g2u_120"/>
<path d="M156.1,468.5l1.8,.4l5.2,-.7Z" class="g3a_120"/>
<path d="M151.9,468.2l.6,3.2l1.6,-3.1Z" class="g4c_120"/>
<path d="M151.9,468.2l-2,.2l2.6,3Z" class="g4c_120"/>
<path d="M132.4,469l1.3,-.2l-.8,-.7Z" class="gg_120"/>
<path d="M108.5,468.1l-11.8,5.8l2.9,3.3Z" class="g4k_120"/>
<path d="M108.5,468.1l-8.9,9.1L112,470.7Z" class="g3q_120"/>
<path d="M146.2,469l1.7,-.3l-4.3,-.8Z" class="g4l_120"/>
<path d="M140.1,468.7l6.1,.3l-2.6,-1.1Z" class="g4l_120"/>
<path d="M133.8,467.9l-.1,.9l8.3,-.6l1.6,-.3Z" class="gj_120"/>
<path d="M196.8,467.8l-3.3,2.6l8.3,9.6Z" class="g1q_120"/>
<path d="M196.8,467.8l5,12.2l4.1,-3.2Z" class="g1q_120"/>
<path d="M154.1,468.3l2,.2l3.4,-.9Z" class="g4m_120"/>
<path d="M156.1,468.5l7,-.3l-3.6,-.6Z" class="g3a_120"/>
<path d="M147.9,468.7l2,-.3l-2.4,-1.1Z" class="g4n_120"/>
<path d="M143.6,467.9l4.3,.8l-.4,-1.4Z" class="g4n_120"/>
<path d="M145.7,467.3v.3l1.8,-.3Z" class="gk_120"/>
<path d="M151.9,468.2l2.2,.1l1.4,-1.1Z" class="g4m_120"/>
<path d="M154.1,468.3l5.4,-.7l-4,-.4Z" class="g4m_120"/>
<path d="M149.9,468.4l2,-.2l-.4,-1.1Z" class="g4m_120"/>
<path d="M151.9,468.2l3.6,-1l-4,-.1Z" class="g4m_120"/>
<path d="M147.5,467.3l2.4,1.1l1.6,-1.3Z" class="g4m_120"/>
<path d="M145.7,467.1v.2h1.8l4,-.2Z" class="gk_120"/>
<path d="M133.5,467l-11.7,8.1l6.1,1.7Z" class="g4o_120"/>
<path d="M95.1,466.8l-6.8,4.7l-1.4,4.1Z" class="g4p_120"/>
<path d="M95.1,466.8l-8.2,8.8l8.3,-5.2Z" class="g4f_120"/>
<path d="M95.1,466.8H93l-4.7,4.7Z" class="g4p_120"/>
<path d="M209.8,466.4V470l8.3,9.1Z" class="g4q_120"/>
<path d="M209.8,466.4l8.3,12.7l-.1,-4Z" class="g4q_120"/>
<path d="M133.5,467l-.6,1.1l.8,.7l.3,-2.5Z" class="gg_120"/>
<path d="M128.8,465.7l-7,9.4L133.5,467Z" class="g4o_120"/>
<path d="M128.8,465.7l-12.3,7.4l5.3,2Z" class="g3j_120"/>
<path d="M106.1,465.3l-10.9,5.1l1.5,3.5Z" class="g4r_120"/>
<path d="M106.1,465.3l-9.4,8.6l11.8,-5.8Z" class="g4k_120"/>
<path d="M199.1,465l-2.3,2.8l9.1,9Z" class="g27_120"/>
<path d="M199.1,465l6.8,11.8l2.6,-3.4Z" class="g27_120"/>
<path d="M124.6,464.1L112,470.7l4.5,2.4Z" class="g4s_120"/>
<path d="M124.6,464.1l-8.1,9l12.3,-7.4Z" class="g3j_120"/>
<path d="M96.4,463.4l-5,4.3l-3.1,3.8Z" class="g4t_120"/>
<path d="M96.4,463.4L93,466.8h2.1Z" class="g4p_120"/>
<path d="M96.4,463.4h-.6l-4.4,4.3Z" class="g4t_120"/>
<path d="M208.2,462.9l1.6,3.5l8.2,8.7Z" class="g4u_120"/>
<path d="M208.2,462.9l9.8,12.2l-1.7,-4Z" class="g4u_120"/>
<path d="M104.8,462.4l-9.6,8l10.9,-5.1Z" class="g4r_120"/>
<path d="M104.8,462.4l-9.7,4.4l.1,3.6Z" class="g4v_120"/>
<path d="M121.1,462.4l-12.6,5.7l3.5,2.6Z" class="g4w_120"/>
<path d="M121.1,462.4l-9.1,8.3l12.6,-6.6Z" class="g4s_120"/>
<path d="M200.2,462.1l-1.1,2.9l9.4,8.4Z" class="g3y_120"/>
<path d="M200.2,462.1l8.3,11.3l1.3,-3.4Z" class="g3y_120"/>
<path d="M184.1,462.1h-3.4l11.6,10.1l-1.1,-3.8Z" class="gm_120"/>
<path d="M137.4,461.7l-3.4,4.6l-.2,1.6h9.8l1.6,-.2Z" class="gj_120"/>
<path d="M180.7,462.1h3.4l-.3,-.3l-4.3,-.8Z" class="gm_120"/>
<path d="M179.5,461l1.9,9.1l10.9,2.1Z" class="gm_120"/>
<path d="M118.5,460.3l-10,7.8l12.6,-5.7Z" class="g4w_120"/>
<path d="M118.5,460.3l-12.4,5l2.4,2.8Z" class="g1q_120"/>
<path d="M186.7,460.1l6.8,10.3l3.3,-2.6Z" class="g4w_120"/>
<path d="M186.7,460.1l-2.6,2l9.4,8.3Z" class="g4w_120"/>
<path d="M99.1,460l-3.3,3.4h.6Z" class="g4t_120"/>
<path d="M168.7,459.7l1.1,9l11.6,1.4Z" class="gl_120"/>
<path d="M168.7,459.7l12.7,10.4L179.5,461Z" class="gl_120"/>
<path d="M205.4,459.6l2.8,3.3l8.1,8.2Z" class="gu_120"/>
<path d="M205.4,459.6l10.9,11.5L213,467.2Z" class="gu_120"/>
<path d="M104.8,459.5l-8.4,3.9l-1.3,3.4Z" class="g4x_120"/>
<path d="M104.8,459.5l-9.7,7.3l9.7,-4.4Z" class="g4v_120"/>
<path d="M104.8,459.5h-3l-5.4,3.9Z" class="g4x_120"/>
<path d="M200.1,459.1l9.7,10.9v-3.6Z" class="g4y_120"/>
<path d="M200.1,459.1l.1,3l9.6,7.9Z" class="g4y_120"/>
<path d="M146.1,459.1l-.4,8h5.8l4,.1l1.5,.1Z" class="gk_120"/>
<path d="M146.1,459.1l-7.3,.4l-1.4,2.2l7.8,6l.5,-.1Z" class="gj_120"/>
<path d="M157.5,459.1l12.3,9.6l-1.1,-9Z" class="gj_120"/>
<path d="M157.5,459.1l.3,8.3l1.7,.2l3.6,.6l.1,.1l6.6,.4Z" class="gj_120"/>
<path d="M157.5,459.1H146.1l10.9,8.2l.8,.1Z" class="gk_120"/>
<path d="M139.6,458.6l-10.8,7.1l4.7,1.3Z" class="g40_120"/>
<path d="M178.7,458.4l.8,2.6l4.3,.8Z" class="gf_120"/>
<path d="M116.7,458.1l-10.6,7.2l12.4,-5Z" class="g1q_120"/>
<path d="M116.7,458.1l-11.9,4.3l1.3,2.9Z" class="g4k_120"/>
<path d="M188.4,457.9l8.4,9.9l2.3,-2.8Z" class="g1q_120"/>
<path d="M188.4,457.9l-1.7,2.2l10.1,7.7Z" class="g1q_120"/>
<path d="M136.4,457.7l-7.6,8l10.8,-7.1Z" class="g40_120"/>
<path d="M136.4,457.7l-11.8,6.4l4.2,1.6Z" class="g3j_120"/>
<path d="M133.5,456.6l-12.4,5.8l3.5,1.7Z" class="g4z_120"/>
<path d="M133.5,456.6l-8.9,7.5l11.8,-6.4Z" class="g3j_120"/>
<path d="M105.9,456.6L99.1,460l-2.7,3.4Z" class="g2d_120"/>
<path d="M105.9,456.6l-4.1,2.9h3Z" class="g4x_120"/>
<path d="M105.9,456.6h-1.8l-5,3.4Z" class="g2d_120"/>
<path d="M198.9,456.2l10.9,10.2l-1.6,-3.5Z" class="g50_120"/>
<path d="M198.9,456.2l1.2,2.9l9.7,7.3Z" class="g50_120"/>
<path d="M141.9,456.1l-2.3,2.5l-.8,.9l7.3,-.4Z" class="gd_120"/>
<path d="M115.7,455.9l-10.9,6.5l11.9,-4.3Z" class="g4k_120"/>
<path d="M115.7,455.9l-10.9,3.6v2.9Z" class="g51_120"/>
<path d="M189.3,455.7l9.8,9.3l1.1,-2.9Z" class="g27_120"/>
<path d="M189.3,455.7l-.9,2.2l10.7,7.1Z" class="g27_120"/>
<path d="M131.1,455.4l-12.6,4.9l2.6,2.1Z" class="g3n_120"/>
<path d="M131.1,455.4l-10,7l12.4,-5.8Z" class="g4z_120"/>
<path d="M129.4,454l-10.9,6.3l12.6,-4.9Z" class="g3n_120"/>
<path d="M129.4,454l-12.7,4.1l1.8,2.2Z" class="g52_120"/>
<path d="M175.8,453.8l8.3,8.3l2.6,-2Z" class="g3n_120"/>
<path d="M175.8,453.8l-1.8,1.4l10.1,6.9Z" class="g3n_120"/>
<path d="M174,455.2h-2.6l8.1,5.8l-.8,-2.6Z" class="ge_120"/>
<path d="M108.1,453.7l-4.9,3.2L99.1,460Z" class="g53_120"/>
<path d="M108.1,453.7l-4,2.9h1.8Z" class="g2d_120"/>
<path d="M108.1,453.7h-.5l-4.4,3.2Z" class="g53_120"/>
<path d="M115.6,453.6l-10.8,5.9l10.9,-3.6Z" class="g51_120"/>
<path d="M115.6,453.6l-9.7,3l-1.1,2.9Z" class="g2o_120"/>
<path d="M115.6,453.6h-3.7l-6,3Z" class="g2o_120"/>
<path d="M196.4,453.5l2.5,2.7l9.3,6.7Z" class="g26_120"/>
<path d="M196.4,453.5l11.8,9.4l-2.8,-3.3Z" class="g26_120"/>
<path d="M189.3,453.4l10.9,8.7l-.1,-3Z" class="g54_120"/>
<path d="M189.3,453.4v2.3l10.9,6.4Z" class="g54_120"/>
<path d="M128.1,452.5l-11.4,5.6L129.4,454Z" class="g52_120"/>
<path d="M128.1,452.5l-12.4,3.4l1,2.2Z" class="g1q_120"/>
<path d="M177,452.4l-1.2,1.4l10.9,6.3Z" class="g55_120"/>
<path d="M177,452.4l9.7,7.7l1.7,-2.2Z" class="g55_120"/>
<path d="M167.2,452.2l1.5,7.5l10.8,1.3Z" class="ge_120"/>
<path d="M167.2,452.2l4.2,3H174l-5.8,-2.8Z" class="ge_120"/>
<path d="M167.2,452.2l1,.2l-1.1,-.6Z" class="ga_120"/>
<path d="M145.9,451.7l-9.5,6l3.2,.9Z" class="g3j_120"/>
<path d="M146.6,451.6l-.5,7.5h11.4Z" class="gd_120"/>
<path d="M146.6,451.6l-.7,.1l-4,4.4l4.2,3Z" class="gd_120"/>
<path d="M157,451.6l.5,7.5l11.2,.6Z" class="gd_120"/>
<path d="M157,451.6H146.6l10.9,7.5Z" class="gd_120"/>
<path d="M157,451.6l11.7,8.1l-1.5,-7.5Z" class="gd_120"/>
<path d="M145.9,451.7l.7,-.1l-.3,-.2Z" class="ga_120"/>
<path d="M116.5,451.4l-8.4,2.3l-2.2,2.9Z" class="g4g_120"/>
<path d="M116.5,451.4l-4.6,2.2h3.7Z" class="g2o_120"/>
<path d="M116.5,451.4h-3.1l-5.3,2.3Z" class="g4g_120"/>
<path d="M144.3,451.3l-10.8,5.3l2.9,1.1Z" class="g4z_120"/>
<path d="M144.3,451.3l-7.9,6.4l9.5,-6Z" class="g3j_120"/>
<path d="M111.5,451.2l-3.9,2.5h.5Z" class="g53_120"/>
<path d="M188.3,451.2l1,2.2l10.8,5.7Z" class="g56_120"/>
<path d="M188.3,451.2l11.8,7.9l-1.2,-2.9Z" class="g56_120"/>
<path d="M146.3,451.4l.3,.2l.1,-.6Z" class="ga_120"/>
<path d="M127.5,451l-11.8,4.9l12.4,-3.4Z" class="g1q_120"/>
<path d="M127.5,451l-11.9,2.6l.1,2.3Z" class="g4k_120"/>
<path d="M193,450.8l12.4,8.8l-4.2,-3.1Z" class="g1h_120"/>
<path d="M193,450.8l3.4,2.7l9,6.1Z" class="g1h_120"/>
<path d="M177.5,450.8l10.9,7.1l.9,-2.2Z" class="g57_120"/>
<path d="M177.5,450.8l-.5,1.6l11.4,5.5Z" class="g57_120"/>
<path d="M142.9,450.7l-11.8,4.7l2.4,1.2Z" class="g58_120"/>
<path d="M142.9,450.7l-9.4,5.9l10.8,-5.3Z" class="g4z_120"/>
<path d="M141.7,450.1l-10.6,5.3l11.8,-4.7Z" class="g58_120"/>
<path d="M141.7,450.1L129.4,454l1.7,1.4Z" class="g3n_120"/>
<path d="M127.4,449.4l-11.8,4.2L127.5,451Z" class="g4k_120"/>
<path d="M127.4,449.4l-10.9,2l-.9,2.2Z" class="g2g_120"/>
<path d="M127.4,449.4h-4.5l-6.4,2Z" class="g2g_120"/>
<path d="M140.8,449.3L129.4,454l12.3,-3.9Z" class="g3n_120"/>
<path d="M140.8,449.3l-12.7,3.2l1.3,1.5Z" class="g4w_120"/>
<path d="M177.5,449.2v1.6l11.8,4.9Z" class="g4k_120"/>
<path d="M177.5,449.2l11.8,6.5v-2.3Z" class="g4k_120"/>
<path d="M164.2,449.2l9.8,6l1.8,-1.4Z" class="g3b_120"/>
<path d="M164.2,449.2l-.8,.8l10.6,5.2Z" class="g3b_120"/>
<path d="M163.4,450h-.1l3.9,2.2l-.1,-.4Z" class="ga_120"/>
<path d="M118.2,449.2l-4.8,2.2h3.1Z" class="g4g_120"/>
<path d="M118.2,449.2l-6.7,2l-3.4,2.5Z" class="g50_120"/>
<path d="M118.2,449.2H116l-4.5,2Z" class="g50_120"/>
<path d="M186.4,449l1.9,2.2l10.6,5Z" class="g3k_120"/>
<path d="M186.4,449l12.5,7.2l-2.5,-2.7Z" class="g3k_120"/>
<path d="M140.1,448.6l-12,3.9l12.7,-3.2Z" class="g4w_120"/>
<path d="M140.1,448.6L127.5,451l.6,1.5Z" class="g55_120"/>
<path d="M164.9,448.5l10.9,5.3l1.2,-1.4Z" class="g4w_120"/>
<path d="M164.9,448.5l-.7,.7l11.6,4.6Z" class="g4w_120"/>
<path d="M128,448l-9.8,1.2l-1.7,2.2Z" class="g59_120"/>
<path d="M122.9,449.4h4.5L128,448Z" class="g2g_120"/>
<path d="M123.3,448l-5.1,1.2L128,448Z" class="g59_120"/>
<path d="M150.7,447.9l-4,3.1l-.1,.6H157Z" class="ga_120"/>
<path d="M139.8,447.9L127.5,451l12.6,-2.4Z" class="g55_120"/>
<path d="M139.8,447.9l-12.4,1.5l.1,1.6Z" class="g1q_120"/>
<path d="M156.6,447.8l.4,3.8l10.2,.6L163.3,450Z" class="ga_120"/>
<path d="M176.9,447.8l12.4,5.6l-1,-2.2Z" class="g2g_120"/>
<path d="M176.9,447.8l.6,1.4l11.8,4.2Z" class="g2g_120"/>
<path d="M165.2,447.8l-.3,.7l12.1,3.9Z" class="g55_120"/>
<path d="M165.2,447.8l11.8,4.6l.5,-1.6Z" class="g55_120"/>
<path d="M120.8,447.2l-5,1.6l-4.3,2.4Z" class="g5a_120"/>
<path d="M120.8,447.2l-4.8,2h2.2Z" class="g50_120"/>
<path d="M120.8,447.2h-1.2l-3.8,1.6Z" class="g5a_120"/>
<path d="M139.8,447L128,448l-.6,1.4Z" class="g30_120"/>
<path d="M139.8,447l-12.4,2.4l12.4,-1.5Z" class="g1q_120"/>
<path d="M165.2,447v.8l12.3,3Z" class="g1q_120"/>
<path d="M165.2,447l12.3,3.8v-1.6Z" class="g1q_120"/>
<path d="M183.8,447l2.6,2l10,4.5Z" class="g15_120"/>
<path d="M183.8,447l12.6,6.5L193,450.8Z" class="g15_120"/>
<path d="M152.5,446.5l12.4,2l.3,-.7Z" class="g55_120"/>
<path d="M152.5,446.5l-8.2,4.8l1.6,.4Z" class="g3b_120"/>
<path d="M139.8,447v.9l12.7,-1.4Z" class="g55_120"/>
<path d="M152.5,446.5l-11.7,2.8l.9,.8Z" class="g52_120"/>
<path d="M152.5,446.5l11.7,2.7l.7,-.7Z" class="g52_120"/>
<path d="M152.5,446.5l10.9,3.5l.8,-.8Z" class="g52_120"/>
<path d="M152.5,446.5l-1.8,1.4l6.3,3.7l-.4,-3.8Z" class="ga_120"/>
<path d="M152.5,446.5l-9.6,4.2l1.4,.6Z" class="g3b_120"/>
<path d="M152.5,446.5l-12.4,2.1l.7,.7Z" class="g52_120"/>
<path d="M152.5,446.5l-10.8,3.6l1.2,.6Z" class="g4w_120"/>
<path d="M165.2,447.8V447l-12.7,-.5Z" class="g3q_120"/>
<path d="M152.5,446.5l-12.7,1.4l.3,.7Z" class="g55_120"/>
<path d="M129.1,446.5l-8.3,.7l-2.6,2Z" class="g2o_120"/>
<path d="M123.3,448H128l1.1,-1.5Z" class="g59_120"/>
<path d="M124.4,446.5l-3.6,.7l8.3,-.7Z" class="g2o_120"/>
<path d="M175.6,446.3l12.7,4.9L186.4,449Z" class="g3y_120"/>
<path d="M175.6,446.3l1.3,1.5l11.4,3.4Z" class="g3y_120"/>
<path d="M140,446.3L128,448l11.8,-1Z" class="g30_120"/>
<path d="M139.8,447l12.7,-.5L140,446.3Z" class="g3q_120"/>
<path d="M140,446.3l-10.9,.2L128,448Z" class="g4k_120"/>
<path d="M164.8,446.2l.4,.8l12.3,2.2Z" class="g30_120"/>
<path d="M152.5,446.5l12.7,.5l-.4,-.8Z" class="g3q_120"/>
<path d="M164.8,446.2l12.7,3l-.6,-1.4Z" class="g30_120"/>
<path d="M129.1,446.5l10.9,-.2l.7,-.7Z" class="g4k_120"/>
<path d="M140,446.3l12.5,.2l-11.8,-.9Z" class="g1q_120"/>
<path d="M152.5,446.5l12.3,-.3l-.7,-.7Z" class="g1q_120"/>
<path d="M164.1,445.5l12.8,2.3l-1.3,-1.5Z" class="g4k_120"/>
<path d="M164.1,445.5l.7,.7l12.1,1.6Z" class="g4k_120"/>
<path d="M124.2,445.4l-4.6,1.8h1.2Z" class="g5a_120"/>
<path d="M180.3,445.1l12.7,5.7l-4.5,-2.3Z" class="g2d_120"/>
<path d="M180.3,445.1l3.5,1.9l9.2,3.8Z" class="g2d_120"/>
<path d="M129.1,446.5l11.6,-.9l-9.7,-.5Z" class="g5b_120"/>
<path d="M124.4,446.5h4.7l1.9,-1.4Z" class="g2o_120"/>
<path d="M131,445.1l-6.8,.3l-3.4,1.8Z" class="g2q_120"/>
<path d="M125.7,445.1l-1.5,.3l6.8,-.3Z" class="g2q_120"/>
<path d="M173.8,444.9l1.8,1.4l10.8,2.7Z" class="g5c_120"/>
<path d="M173.8,444.9l12.6,4.1l-2.6,-2Z" class="g5c_120"/>
<path d="M141.6,444.8l-.9,.8l11.8,.9Z" class="g1q_120"/>
<path d="M131,445.1l9.7,.5l.9,-.8Z" class="g5b_120"/>
<path d="M163.2,444.8l12.4,1.5l-1.8,-1.4Z" class="g5b_120"/>
<path d="M163.2,444.8l-10.7,1.7l11.6,-1Z" class="g1q_120"/>
<path d="M163.2,444.8l.9,.7l11.5,.8Z" class="g5b_120"/>
<path d="M142.7,444.2l-1.1,.6l10.9,1.7Z" class="g57_120"/>
<path d="M162,444.1l-9.5,2.4l10.7,-1.7Z" class="g57_120"/>
<path d="M163.2,444.8l10.6,.1L162,444.1Z" class="g5d_120"/>
<path d="M141.6,444.8l1.1,-.6l-9.5,-.4Z" class="g5d_120"/>
<path d="M131,445.1l10.6,-.3l-8.4,-1Z" class="g5d_120"/>
<path d="M125.7,445.1H131l2.2,-1.3Z" class="g2q_120"/>
<path d="M128.2,443.7l-4,1.7l9,-1.6Z" class="g3r_120"/>
<path d="M171.4,443.7l2.4,1.2l10,2.1Z" class="g4y_120"/>
<path d="M171.4,443.7l12.4,3.3l-3.5,-1.9Z" class="g4y_120"/>
<path d="M162,444.1l11.8,.8l-2.4,-1.2Z" class="g5d_120"/>
<path d="M144.2,443.7l-1.5,.5l9.8,2.3Z" class="g30_120"/>
<path d="M160.7,443.6l-8.2,2.9l9.5,-2.4Z" class="g30_120"/>
<path d="M162,444.1l9.4,-.4l-10.7,-.1Z" class="g5e_120"/>
<path d="M145.7,443.2l-1.5,.5l8.3,2.8Z" class="g30_120"/>
<path d="M159,443.1l-6.5,3.4l8.2,-2.9Z" class="g30_120"/>
<path d="M147.5,442.8l-1.8,.4l6.8,3.3Z" class="g30_120"/>
<path d="M157.3,442.8l-4.8,3.7l6.5,-3.4Z" class="g30_120"/>
<path d="M133.2,443.8l9.5,.4L136,442.7Z" class="g54_120"/>
<path d="M128.2,443.7l5,.1l2.8,-1.1Z" class="g3r_120"/>
<path d="M142.7,444.2l1.5,-.5l-8.2,-1Z" class="g54_120"/>
<path d="M168.6,442.6l2.8,1.1l8.9,1.4Z" class="g3r_120"/>
<path d="M159,443.1l1.7,.5l7.9,-1Z" class="g1u_120"/>
<path d="M168.6,442.6l11.7,2.5l-4.1,-1.5Z" class="g3r_120"/>
<path d="M160.7,443.6l10.7,.1l-2.8,-1.1Z" class="g5e_120"/>
<path d="M149.4,442.6l-1.9,.2l5,3.7Z" class="g30_120"/>
<path d="M155.3,442.6l-2.8,3.9l4.8,-3.7Z" class="g30_120"/>
<path d="M151.3,442.5l-1.9,.1l3.1,3.9Z" class="g30_120"/>
<path d="M153.3,442.5l-.8,4l2.8,-3.9Z" class="g30_120"/>
<path d="M153.3,442.5h-2l1.2,4Z" class="g30_120"/>
<path d="M128.2,443.7l7.8,-1l-3.1,-.3Z" class="g28_120"/>
<path d="M139.1,441.8l5.1,1.9l1.5,-.5Z" class="g3y_120"/>
<path d="M139.1,441.8l-3.1,.9l8.2,1Z" class="g3y_120"/>
<path d="M132.9,442.4l3.1,.3l3.1,-.9Z" class="g28_120"/>
<path d="M165.4,441.7l10.8,1.9l-4.7,-1.3Z" class="g28_120"/>
<path d="M157.3,442.8l1.7,.3l6.4,-1.4Z" class="g5f_120"/>
<path d="M165.4,441.7l3.2,.9l7.6,1Z" class="g28_120"/>
<path d="M159,443.1l9.6,-.5l-3.2,-.9Z" class="g1u_120"/>
<path d="M132.9,442.4l6.2,-.6l-1.1,-.4Z" class="g15_120"/>
<path d="M138,441.4l1.1,.4l3.5,-.7Z" class="g15_120"/>
<path d="M142.6,441.1l-3.5,.7l6.6,1.4Z" class="g5f_120"/>
<path d="M142.6,441.1l3.1,2.1l1.8,-.4Z" class="g5f_120"/>
<path d="M139.8,441.1l-1.8,.3l4.6,-.3Z" class="g5g_120"/>
<path d="M171.5,442.3l-5.2,-1l-4.4,-.3Z" class="g14_120"/>
<path d="M165.4,441.7l6.1,.6L161.9,441Z" class="g14_120"/>
<path d="M161.9,441l-4.6,1.8l8.1,-1.1Z" class="g5f_120"/>
<path d="M161.9,441l-6.6,1.6l2,.2Z" class="g5h_120"/>
<path d="M139.8,441.1h2.8l.9,-.5Z" class="g5g_120"/>
<path d="M146.4,440.6l1.1,2.2l1.9,-.2Z" class="g3l_120"/>
<path d="M146.4,440.6l-3.8,.5l4.9,1.7Z" class="g3l_120"/>
<path d="M143.5,440.6l-.9,.5l3.8,-.5Z" class="g5g_120"/>
<path d="M158.1,440.5l-4.8,2l2,.1Z" class="g5h_120"/>
<path d="M161.9,441l4.4,.3l-8.2,-.8Z" class="g5g_120"/>
<path d="M158.1,440.5l-2.8,2.1l6.6,-1.6Z" class="g5h_120"/>
<path d="M158.1,440.5l8.2,.8l-5.5,-.8Z" class="g5g_120"/>
<path d="M150.3,440.4l-.9,2.2l1.9,-.1Z" class="g5h_120"/>
<path d="M150.3,440.4l-3.9,.2l3,2Z" class="g5h_120"/>
<path d="M154.2,440.4h-3.9l1,2.1Z" class="g2o_120"/>
<path d="M154.2,440.4l-2.8,2.1h1.9Z" class="g2o_120"/>
<path d="M158.1,440.5h2.7l-6.6,-.1Z" class="g16_120"/>
<path d="M154.2,440.4l-.9,2.1l4.8,-2Z" class="g5h_120"/>
<path d="M146.4,440.6l3.9,-.2l-1.1,-.1Z" class="g5i_120"/>
<path d="M143.7,440.6h2.7l2.8,-.3Z" class="g5i_120"/>
<path d="M154.2,440.4l6.6,.1l-5.8,-.2Z" class="g16_120"/>
<path d="M150.3,440.4h3.9l.8,-.1Z" class="g16_120"/>
<path d="M149.2,440.3l1.1,.1l4.7,-.1Z" class="g16_120"/>
<path d="M152.5,621.8V603.2" class="g5j_120"/>
<path d="M149.9,602.4l5.8,-.1m-5.8,.1l-5.7,-.3m11.5,.2l5.8,-.3m-17.3,.1l-5.5,-.7m22.8,.6l5.4,-.8m-17,1.2l-.7,-1.9h7.5m-1,1.8l1,-1.8m-18,.9l-5.2,-1m33.4,.8l5.1,-1m-27.8,1.9L141.8,600m7.4,.5l-7.4,-.5m14.9,.5l7.4,-.6m-2.6,2.1l2.6,-2.1m-25.4,1.5l-4.1,-2.2m7.2,.8l-7.2,-.8m32.3,2l4.3,-2.2m-7.1,.9l7.1,-.9m-37.7,1.4L128.8,599m43.2,1.2l4.7,-1.4m-42.1,.4l-6.7,-1.3m5.6,2.5l-5.6,-2.5m5.6,2.5l-5.6,-2.5m44.1,2.3l5.8,-2.5m-6.6,1.3l6.6,-1.3m-49,1.3l-4.2,-1.5m52.1,1.3l4,-1.5m-31.5,3.2l-.6,-3.9h8.9m-.8,3.9l.8,-3.9m-29.6,1.3l-6.1,-1.7m7,2.8l-7,-2.8m26.8,.4l-9,-.4m2.2,3.8l-2.2,-3.8m17.9,.4l8.9,-.6m-2.3,3.9l2.3,-3.9m11.4,1.7l6.1,-1.8m-7.2,2.9l7.2,-2.9m-49.3,3.3L131,595.1m8.6,1.1L131,595.1m35.4,.9l8.6,-1.1m-3.8,4.1l3.8,-4.1m-53.2,1.3l-5.3,-2.1m8.1,3.4l-8.1,-3.4m67.4,1.8l5.2,-2.1m-8.4,3.5l8.4,-3.5M131,595.1l-8.1,-1.6m5,4.4l-5,-4.4m5,4.4l-5,-4.4m54.9,4.2l5.2,-4.4m-8,1.6l8,-1.6m-66.5,.8L112,591.8m10.9,1.7l-7.3,-2m6.2,4.7l-6.2,-4.7m73.5,2.3l4.4,-2.4M183,593.3l7.3,-2.2m-6.4,4.8l6.4,-4.8m-41.7,5.5l-.7,-5.6h10.4m-.8,5.6l.8,-5.6m-18.7,5.2l-1.9,-5.8m10.2,.6l-10.2,-.6m28.7,5.6l2.1,-5.8m-10.2,.8l10.2,-.8M131,595.1l-3.1,-5.9m9.8,1.2l-9.8,-1.2m-11.4,4.9L109.1,589m6.5,2.5L109.1,589m59.4,1.2l9.8,-1.3m-3.3,6l3.3,-6m10.8,4.9l7.5,-5.1m-6.3,2.4l6.3,-2.4m-68.7,.5l-9.2,-1.8m4.2,6.1l-4.2,-6.1m4.2,6.1l-4.2,-6.1m64.3,5.9l4.4,-6.2m-9.1,1.8l9.1,-1.8M112,591.8l-8.3,-5.6m5.4,2.8l-5.4,-2.8m89.8,5.2l8.3,-5.6m-5.2,2.9l5.2,-2.9m-8.3,5.6l8.3,-5.6m-83.1,1.6L110.2,585m5.4,6.5L110.2,585m77.2,2.1l8.3,-2.4m-5.4,6.4l5.4,-6.4M147.9,591l-.4,-7.5m10.8,7.5l.5,-7.5m-11.3,0h11.3m-55.1,2.7L99.6,583m38.1,7.4l-1.4,-7.5m11.2,.6l-11.2,-.6m32.2,7.3l1.6,-7.4m-11.3,.7l11.3,-.7m31.7,3l4.1,-3.2M110.2,585l-7.3,-2.8m6.2,6.8l-6.2,-6.8m93.7,6.5l6.3,-6.9m-7.2,2.9l7.2,-2.9m-75,7.4l-2.5,-7.6m10.9,1.3l-10.9,-1.3m52.9,7.3l2.5,-7.6m-10.7,1.5l10.7,-1.5m-55.4,.3l-10.2,-2m3.5,7.8l-3.5,-7.8m3.5,7.8l-3.5,-7.8m72.2,7.5l3.5,-7.8m-10.1,2l10.1,-2m-88,2.9L96.8,579m6.9,7.2L96.8,579m105,6.8l7.1,-7.3m-6,3.3l6,-3.3m-7.1,7.3l7.1,-7.3m-93.7,1.1L105.9,577m4.3,8l-4.3,-8m85,2.3l9.2,-2.6m-4.4,8l4.4,-8M99.6,583l-7.7,-7.6m4.9,3.6l-4.9,-3.6m114,7.2l7.6,-7.7m-4.6,3.6l4.6,-3.6m-66,8.6l-.3,-8.9h12.1m-.5,8.9l.5,-8.9m-12.1,0l-12,-.7m1.1,9l-1.1,-9m-32.3,8.3l-5,-8.3m8,3.1l-8,-3.1m72.2,8.9l1.2,-9m-12,.8l12,-.8m31.6,8l5.2,-8.3m-8,3.2l8,-3.2m-72.9,.4l-11.7,-1.4m1.9,9.1l-1.9,-9.1m57.3,8.8l2,-9m-11.5,1.5l11.5,-1.5m-90.9,3.1l-3.2,-3.9m124.8,3.4l3.1,-3.8m-93.1,1.4l-10.8,-2.1m2.5,9.2l-2.5,-9.2m2.5,9.2l-2.5,-9.2m-14.8,3.5l-6.8,-3.6m5.7,8.7l-5.7,-8.7m91.7,2l10.7,-2.2m-2.6,9.2l2.6,-9.2m15.4,8.4l5.8,-8.6m-6.6,3.6l6.6,-3.6m-5.8,8.6l5.8,-8.6m-102,.5l-9.9,-2.7m3.1,9.3l-3.1,-9.3m97.3,9l3.2,-9.5m-9.8,2.9l9.8,-2.9M91.1,570.3l-5.2,-3.9m6,9l-6,-9m128.8,3.5l5,-4.1m-6.2,9.1l6.2,-9.1m-72.5,8.8l-.3,-10.2h12.7m-.3,10.2l.3,-10.2m-56.8,3.3l-8.6,-3.4m3.7,9.6l-3.7,-9.6m109.1,2.9l8.5,-3.4m-3.7,9.7l3.7,-9.7m-76.6,10.1l-.7,-10.3m12.4,.8l-12.4,-.8m36.8,10.2l.7,-10.2m-12.4,.8l12.4,-.8m-37.5,0l-12.1,-1.4m1.1,10.3l-1.1,-10.3m-33.7,9.3l-6.5,-9.3m3.7,4.2l-3.7,-4.2m89.8,1.4l11.9,-1.7m-1.1,10.4l1.1,-10.4m32.7,9.2l6.5,-9.5m-3.4,4.2l3.4,-4.2m-132,8.7L87,560.5m7.2,3.8L87,560.5m127.7,9.4l4.1,-9.9m-7,3.8l7,-3.8m-4.1,9.9l4.1,-9.9m-96.4,2.2L111.2,560m1.5,10.4L111.2,560m1.5,10.4L111.2,560m72.7,1.9l11.2,-2.2m-1.6,10.4l1.6,-10.4m-92.3,8l-1.9,-10.6m10.3,2.9l-10.3,-2.9m94.2,2.6l10.1,-3m-1.9,10.5l1.9,-10.5M85.9,566.4L81.4,556.3m5.6,4.2l-5.6,-4.2m138.3,9.5l4.5,-10m-5.4,4.2l5.4,-4.2m-130,8.5L91.9,553.7m9,3.4l-9,-3.4m113.3,3l8.8,-3.5m-2.2,10.6L214,553.2m-67.1,11.2V553.1m12.7,11.3l.1,-11.4m-12.8,.1l12.8,-.1m-12.8,.1l-12.6,-.7m.2,11.2l-.2,-11.2M172,563.6l.2,-11.4m-12.5,.8l12.5,-.8m-17.1,.8v-1.2m-73.7,4.5l-4,-4.5m4.8,10.4L77.4,551.8m67.3,1.1v-1.3m10.4,.2l-10.4,-.2m10.4,.2l10.3,-.5m-.2,1.3l.2,-1.3m58.8,4.5l3.7,-4.6m-4.8,10.4l4.8,-10.4m-93.6,1.2l-12.2,-1.6m.3,11.4l-.3,-11.4m22.6,.8l-10.2,-1m.3,1.8l-.3,-1.8m49.4,11.3l.4,-11.3m-12.1,1.6l12.1,-1.6m-18.9,.7l9.8,-1.4m-.3,1.9l.3,-1.9M87,560.5L84.4,549.7m7.5,4l-7.5,-4M218.8,560l2.5,-10.8m-7.3,4l7.3,-4M218.8,560l2.5,-10.8m-95.8,2.1l-.3,-2.4m9.3,1.7l-9.3,-1.7m.3,2.4l-.3,-2.4m-14,11.1l-.5,-11.4m11.4,2.2l-11.4,-2.2m.5,11.4l-.5,-11.4m84.4,11.1l.6,-11.4m-11.4,2.3l11.4,-2.3m-12.2,2.4l.6,-2.9m-8.9,2.1l8.9,-2.1m-106.7,4l-2,-4.7m123.9,.1l.3,-.2m-.1,.1l.1,-.1m-88.4,1.7l-.5,-1.8m117.2,4.3l1.7,-4.7M117.7,550l-1,-3.5m8.5,2.4l-8.5,-2.4m-6,2.1l-10.5,-2.9m.7,11.4l-.7,-11.4m-15.8,4l-5.8,-4.4m2.8,11l-2.8,-11m126.6,11.4l.7,-11.4m-10.2,3l10.2,-3m-21.8,2.5l7.7,-2.8m-1.1,4.3l1.1,-4.3m32.4,10.8l2.7,-11m-5.6,4.4l5.6,-4.4m-110.2,1.7l-5.8,-2.6m88.7,3.1l2.4,-3.7m-2.3,3.8l2.3,-3.8m-46.9,8.5l.1,-9.3m-10.5,9.1l-.2,-9.3m10.7,.2l-10.7,-.2M91.9,553.7l-.7,-11.5m9,3.5l-9,-3.5m64,.3l10.4,-.6m-.2,9.4l.2,-9.4m40.3,3.4l8.9,-3.6m-.8,11.5l.8,-11.5m-18.7,6.5l2,-6.5m-6.3,3.3l6.3,-3.3m-2,6.5l2,-6.5m-53.6,.6l-10.3,-1m.3,9.3l-.3,-9.3M77.4,551.8L74.6,540.6m4,4.7l-4,-4.7m100.6,9.3l.5,-9.4m-10.1,1.4l10.1,-1.4m-6.6,1l2.2,-1.1m-1.1,.9l1.1,-.9m-1.1,.9l1.1,-.9m41.4,2.2l1.2,-2.4m1.6,1.2l-1.6,-1.2m14,11l2.9,-11.1m-3.9,4.7l3.9,-4.7m-105.6,8.8l-.6,-9.4m9.6,1.8l-9.6,-1.8m.6,9.4l-.6,-9.4m11,2l-3.3,-2.1m2.4,2l-2.4,-2m22.2,3.1l.3,-3.4l-8.1,-.3m.6,3.6l-.6,-3.6m29,1.7l9.1,-2.2m-.7,9.5l.7,-9.5m-30,.8l7.8,-.8m-1,3.8l1,-3.8m-71.4,3.9l-7.6,-4m.8,11.5l-.8,-11.5m114.5,3.5l4.5,-3.6m-3,8.9l3,-8.9m-31.3,2.3l2.6,-2.5m40.9,3.8l7.5,-4m-1,11.5l1,-11.5m-1,11.5l1,-11.5m-75.6,1.1l-7.5,-1.1m1.5,4.2l-1.5,-4.2m-22.5,8.8l-.6,-9.4m8.5,2.4l-8.5,-2.4m16.2,2.3l-1.7,-2.7m72.4,9.4l4.1,-9.5m6.8,3.6l-6.8,-3.6m-39.9,5l2.2,-5m-6.8,1.7l6.8,-1.7m-58.7,12l.5,-12m110.3,1.5l.7,-1.7m-49,4.4l1.7,-4.7m11.8,1.5L182.8,536m-1.6,3.2l1.6,-3.2M74.6,540.6l-2.1,-4.8m2.9,11.3L72.5,535.8m134.6,.8l-2.5,-.9m-65.4,2l-6.1,-2.1m2.8,5.9l-2.8,-5.9m58.7,9.4l.9,-9.4m-7.9,2.7l7.9,-2.7m36.9,10.9l3,-11.4m-1.8,5l1.8,-5m-116.5,2L111.3,535m16.5,5.1l-2.2,-5.2m-.8,.2l.8,-.2m43.8,1.7l5.2,-2.4m-3.3,6.2l3.3,-6.2m-3.3,6.2l3.3,-6.2m27.4,9.1l3,-9.2m-2.4,4l2.4,-4m-79.4,.8l3.5,-.9m53.7,2l-6.7,-2.1M78.6,545.3l-.9,-11.5m5.9,4.4l-5.9,-4.4m22.5,11.9l.7,-12m10.3,2.9l-10.3,-2.9m121.4,4l5.6,-4.5m-1,11.6l1,-11.6m-94.8,2.4l-4.3,-2.7m3.5,6.5l-3.5,-6.5m-3.2,2l-.6,-2.3m73.1,9.1l.9,-9.5m-6.3,3.4l6.3,-3.4m-.9,9.5l.9,-9.5m-1.8,.9l.6,-1.1m.4,.6l-.4,-.6m-43,7.1l.1,-7.3m-8.2,7l-.3,-7.1m8.5,.1l-8.5,-.1m28.2,2.5l3,-2.9m-3.7,6.6l3.7,-6.6m-22.7,.5l8.2,-.7m-.5,7.2l.5,-7.2m-16.7,.6l-7.8,-1.3m.6,7.3l-.6,-7.3m-37.7,3.3l-9,-3.4m-.7,11.9l.7,-11.9M205,534.1l.6,-4.1m-75,6.7l-3.8,-6.8m2,3l-2,-3m-2.2,9.6l.6,-10m37.9,1.6l7.2,-1.8m-.9,7.3l.9,-7.3M74.6,540.6L73.6,529m4.1,4.8L73.6,529m124.2,3l.9,-3.2m-.9,3.2l-5.1,-3.3m-3.3,8l3.3,-8m6.3,3.5l4.5,-3.8m-.9,9.7l.9,-9.7m24.4,4.8l3.8,-4.8m-.9,11.7l.9,-11.7m-17.8,11.8L218,528.4m3.7,2.7L218,528.4m-84.9,7.2l-1,-7.3m6.5,2.1l-6.5,-2.1m45.5,3l.6,-3.2m-62.1,9l.6,-10.1m8.5,2.5L116.7,527m57.9,7.2l1.1,-7.4m-5.4,2.5l5.4,-2.5m-1.1,7.4l1.1,-7.4m-83.8,3.5l-7.5,-4m-.8,11.9l.8,-11.9m108.3,2.4l-6.6,-2.8M182.8,536l3.3,-10.1m36.2,11.8l-1,-11.9m-89.2,2.5l-4.5,-2.9m1.2,7.5l-1.2,-7.5M116.7,527l-4.1,-1.8m14.2,4.7l-.9,-5.3m92.1,3.8l-7.2,-3.9m-3.7,12.1l3.7,-12.1m-7.3,3.9l2.6,-4m-1.1,9.7l1.1,-9.7m-94.9,12.2l1.5,-12.5M73.6,529l-2.1,-4.9m1,11.7l-1,-11.7m114.6,1.8l-7.2,-2.1m-3.2,3l3.2,-3.1m-1.3,7.6l1.3,-7.6m-24,8.1l-.1,-8.1m76.9,4.7l1.9,-4.9m-1,11.6l1,-11.6m-87.2,8.2l.3,-8.3m8.1,.3l-8.1,-.3m-19.1,2l-1.5,-2.2m37,7.9l-.5,-8.2m-7.8,.8l7.8,-.8m48.2,1.6l-4.5,-1.6m-7.3,9.3l-.9,-9.9m-59.5,8.1l.6,-8.2m7.5,1.2l-7.5,-1.2m-54.8,4.1l-5.8,-4.4m-.9,11.9l.9,-11.9m22.3,11.8l1.9,-12.3m9.9,2.7l-9.9,-2.7m125.1,11.8l-1,-11.8m-5.6,4.4l5.6,-4.4m-64.3,1.5l6.8,-1.7m.9,8.1l-.9,-8.1m9.5,2.5l.6,-3.3m-1.3,7.7l1.3,-7.7m26.6,4l.5,-4.1m-1,9.7l1,-9.7m-67.4,1.9l-6.1,-2m-1,8.1l1,-8.1m84.9,8.2l2,-9.3m-148.5,5l-.1,-5m53.8,10.4L126.7,519m49,7.8l-1.1,-8m-5.2,2.4l5.2,-2.4m1.1,8l-1.1,-8m22.9,1.4l-2.3,-1.6m-2.5,10.1l2.5,-10.1m8.3,9.8l-.9,-9.9m-4.5,3.8l4.5,-3.8m31,5l-.2,-5m-130.6,2.9l-8.6,-3.3m-2.3,12.2l2.3,-12.2m38.9,2.1l-4.3,-2.7m-1.2,7.9l1.2,-7.9M73.6,529l1,-11.7m4,4.6l-4,-4.6m52.1,1.7l-7.8,-2.3M116.7,527l2.2,-10.3m108,4.7l3.9,-4.8m.9,11.8l-.9,-11.8m-56.2,2.2l3,-2.9m1.3,7.8l-1.3,-7.8m-48.8,1.6l-1.2,-1.8m58.5,10.2l2.1,-10.3m7,3l-7,-3m-33.4,8.1l-.4,-8.5m-7.7,8.2l.8,-8.4m6.9,.2l-6.9,-.2m-28.6,1.7l-4.4,-1.8m88.1,3.6l2.4,-3.9m1.1,9.8L205,514.6m-50.6,.6l6.6,-.7m1.6,8.4L161,514.5M84.4,526.3L87,514.2m7.2,3.9L87,514.2m60.5,.8l-6.3,-.9m-2,8.1l2,-8.1m80.1,11.7l-2.5,-12m-30.6,1.8l-8.4,-2.5m-.7,4.9l.7,-4.9M161,514.5l5.9,-1.4m2.5,8.1l-2.5,-8.1m28.3,5.5l.5,-5.5m-15.9,0l-1.6,-.2m-.6,3l.6,-3.2m1.3,7.7l-1.3,-7.7M74.6,517.3l-2.1,-4.9m-1,11.7l1,-11.7m146.7,3.2L213,512.3m-2.2,12.2L213,512.3m-14.9,10l-2.7,-10m-62.3,7.9l2.8,-7.9m5.3,1.8l-5.3,-1.8m97.7,11.2l-1,-11.7m-1.8,4.8l1.8,-4.8M112.7,524.1l2.5,-12.4m51.7,1.4l4.4,-2.1m3.3,7.8L171.3,511m3.3,7.8L171.3,511m33.7,3.6l.6,-4m1,9.7l-1,-9.7M87,514.2L81.4,510m-2.8,11.9L81.4,510m54.5,2.3L132.3,510m-3.5,7.5l3.5,-7.5m86.5,3.8l5.4,-4.3m2.7,11.9l-2.7,-11.9M213,512.3l-7.8,-3m-90,2.4l-9.3,-2.6m-3.1,12.3l3.1,-12.3m96.7,9.4l-3,-9.7m-4.2,3.5l4.2,-3.5M126.7,519l2.6,-10.3m42,2.3l2.6,-2.4m3.7,7.3l-3.7,-7.3M72.5,512.4l-.1,-4.9m-1,11.6l1,-11.6m59.9,2.5l-1.7,-2.6m-1.8,3.4l1.8,-3.4m23.8,7.8l-.5,-7.8m-6.4,7.6l1.4,-7.8m5,.2l-5,-.2m12.1,7.3l-2.3,-7.6m-4.8,.5l4.8,-.5m73.9,4.9l-.2,-5m1,11.7l-1,-11.7m-113.5,9.9l3.3,-10.1m7.1,2.1l-7.1,-2.1m19,7.5l3,-7.7m4.7,.8l-4.7,-.8m-38.3,2.7l-8,-3.1m-3.7,12.1L97.9,506m76,2.6l.4,-2.7m3.9,6.8l-3.9,-6.8m-7.4,7.2L163,505.8m-4.3,1.1l4.3,-1.1m25.2,9.8l.7,-10.1m4.4,2l-4.4,-2M74.6,517.3l2.8,-11.8m4,4.5l-4,-4.5m58.5,6.8l4.6,-7m3.7,1.1l-3.7,-1.1m64.5,9.3l-3,-9.5m-2.4,3.7l2.4,-3.7m22.2,4.4l3.7,-4.5m2.9,11.6L227.9,505M130,506.5l1.1,-1.8m-.5,2.7l.5,-2.7m-8.9,1.9l-5,-2.1m45.8,1.3l3.2,-1.5m5.1,6.7l-5.1,-6.7m5.1,6.7l-5.1,-6.7m-25.7,1l-2.7,-1.7m-5.5,6.4l5.5,-6.4m36.5,2.3l-1.6,-2.7m7.1,9.9l.6,-10m8.5,2.4l-8.5,-2.4m15,9.2l-4.3,-9.6m-24.9,1.6l1.8,-1.8m5.9,6.1L168,502.5M87,514.2l4.1,-11.8m6.8,3.6l-6.8,-3.6m40,2.3l2.6,-2.5m85.1,11.6L214.7,502m-84.1,5.4l6,-5.7m1.2,1.9l-1.2,-1.9m-4.8,.1l2.9,-.5m36,.4v-.4m9.7,1.8l-9.7,-1.8l-.5,-.1m35.4,9.4l-3.1,-9.4m-.5,3.9l.5,-3.9M77.4,505.5l-2,-4.6m-2.9,11.5l2.9,-11.5m78.5,6.5l-.7,-6.5m0,0l-2.6,-.1m-1.7,6.4l1.7,-6.4m8.1,6.1l-2.9,-6.3m-2.6,.3l2.6,-.3m18.5,5.3l-5.9,-5.3m-.4,1.9l.4,-1.9m-17.8,.2l-2.4,-.4m-4,6l4,-6m65.6,0v0Zm-.8,11.9l.8,-11.9m0,0v-.1m14.1,4.7l1.7,-4.7m3,11.5l-3,-11.5M163,505.8L158,500m-2.2,.6L158,500m-17.5,5.3l5.7,-5.5m2,.6l-2,-.6m-15.1,4.9l5.8,-4.9m-.3,1.9l.3,-1.9m62.7,9l-4.7,-9.2m-3.8,3.1l3.8,-3.1m-79.7,12.1l3.5,-12.3m47.5,4.9l-6.5,-5M158,500l1.7,-.7m6.5,5l-6.5,-5m-30.4,9.4l3.5,-9.8m13.4,.9l-1.4,-1m-7,4.8l7,-4.8m23.6,1.8l-1.2,-1.9m5.5,4.5l-5.5,-4.5m-76.1,3.7l-5.2,-3.9M81.4,510l4.5,-11.5m103,7l-.6,-7.1m-28.6,.9l1,-1m7.3,4.2l-7.3,-4.2m63.5,11.2l-4.5,-11.6m-5,4.1l5,-4.1m-86,4.3l5.1,-4.3m-1.9,1.9l1.9,-1.9m6,.9l-.6,-1m-7.6,3.9l7.6,-3.9m58.3,3.4l-1.4,-3.7m-40.4,.8l.1,-1m7.6,3.3l-7.6,-3.3m-38.6,9.3l4.5,-9.4m6.1,1.7l-6.1,-1.7m-8,2.2l-8.5,-2.3m-4.3,12l4.3,-12m57,1.6L164.5,497m39.7,9.4l.5,-9.5m9.1,3.5l-9.1,-3.5m-67.8,2.9l7.4,-3m-.1,1l.1,-1m-5.5,1.1l3.2,-1.4m18.8,.8l-8.3,-.9m.7,4.5l-.7,-4.5m-8.2,.4l8.2,-.4m3.3,4.2l-3.3,-4.2m7.2,2.9l-7.2,-2.9M158,500l-5.5,-3.6m7.2,2.9l-7.2,-2.9m-1.9,4.4l1.9,-4.4m8.2,1.9l-8.2,-1.9m-4.3,4l4.3,-4m-8.3,1.4l8.3,-1.4m-7.7,2.4l7.7,-2.4m-6.3,3.4l6.3,-3.4m8.3,.9l-.6,-1m-7.7,.1l7.7,-.1m7,2.4l-7,-2.4m41.8,8.8l-4.9,-8.9m-2.2,3.4l2.2,-3.4M72.4,507.5l2.9,-11.4m.1,4.8l-.1,-4.8m63.5,1.8l6.5,-2m-1,.9l1,-.9m7.2,.5l-7.2,-.5m19.2,1.1l-3.8,-1.2m44,1.1l-4.8,-1.4m29.7,4.8l-.1,-4.8m2.9,11.3l-2.9,-11.3m-69.3,.8l-1.4,-.9m5.7,1.6l-5.7,-1.6m-6.3,1l6.3,-1m-13.5,.5l1.7,-.8m5.5,1.3L147,495.1m-5,1.4l5,-1.4m-28.7,5.6l3.4,-5.7m5,2.2l-5,-2.2m37.1,.4l-2,-.6m3.9,1l-3.9,-1m-4.3,1.6l4.3,-1.6m-4.3,1.6l-3.3,-1.9m-2.2,.6l2.2,-.6m3.3,1.9l1.8,-2.1m2.5,.5l-2.5,-.5m-1.8,2.1l-.7,-2.1m2.5,0h-2.5m-2.6,.2l2.6,-.2M97.9,506l5,-11.7m7.3,2.8l-7.3,-2.8M77.4,505.5l4.8,-11.2m3.7,4.2l-3.7,-4.2m39.5,.7l-1.2,-.7m70.6,8.4l-5.8,-8.9m1.3,1.9l-6.8,-2m.6,9.4l-.6,-9.4M227.9,505l-4.8,-11.3m-3.4,4.2l3.4,-4.2m-26,2.5l.4,-3.5m5,8.5l-5,-8.5m-17.7,1L170.4,492m.3,9.3l-.3,-9.3m-95.1,4.1l1.8,-4.7m59,.5l3.5,-.5m-.2,6.2l.2,-6.2m55.3,8.2l-6.4,-8.5m-3.2,2.7l3.2,-2.7M91.1,502.4L96.8,491m6.1,3.3L96.8,491m73.6,1l-10.1,-1m.1,4.7l-.1,-4.7m69.2,4.5l-2,-4.6m-77.7,3.6v-3.7m10.5,.2l-10.5,-.2m-10.2,.6l10.2,-.6M214.7,502l-5.8,-11.4m-76.1,8.3l4.2,-9m-61.6,11l4.9,-11m1.9,4.4l-1.9,-4.4m120.8,7.6l-4.9,-8.2m1.3,3.4l-1.3,-3.4m26.9,4.4l1.6,-4.4m4.9,11l-4.9,-11m-98,7.9l5.5,-8.6m4.8,1.3l-4.8,-1.3m64.9,7.6l-6.7,-8m-1.9,2.9l1.9,-2.9m-71.7,11.2l4.2,-11.7M96.8,491l-4.9,-3.6m-6,11.1l6,-11.1m117,3.2l4.6,-3.7m6.2,11l-6.2,-11M121.7,495l6.6,-8.2m3.9,1.8l-3.9,-1.8m67.9,2.5l-3,-3.3m-13.4,7.7l-1.4,-7.8m6.9,7.9l-6.9,-7.9m-55.5,1.8l-7.3,-2.1m-5.4,11.5l5.4,-11.5m90.3,.6l-1.9,-.7m.7,11.4L204,485.5M80.3,489.9l-.1,-4.5m-4.9,10.7l4.9,-10.7m110.2,2.8l.3,-2.9m6.8,7.4l-6.8,-7.4m-67.4,1.5l2,-1.9m3,1.9l-3,-1.9m14.3,6.5l.5,-6.6m84.6,4.5l-.1,-4.5m4.9,10.7l-4.9,-10.7m-99.3,.1l-.8,-.8m53.9,1.8l2.4,-2.1m7.7,7.3l-7.7,-7.3M170.4,492l-1,-8.3m8.1,1.6l-8.1,-1.6m-77.5,3.7l-3.2,-3.8m-6.5,10.7l6.5,-10.7m14.2,10.7l6.2,-11.1m6.5,2.4l-6.5,-2.4m104.4,3.7l3.1,-3.8m6.5,10.6l-6.5,-10.6M160.3,491l-.5,-8.2m9.6,.9l-9.6,-.9m-18.6,.4l8.8,-.6m9.8,.2l-9.8,-.2m-.2,8.2l.2,-8.2m43.9,4.2l-.1,-4.2m10.2,2.9l-10.2,-2.9m10.2,2.9l-.5,-3m-12.8,2.8l-1.1,-2.9m6.6,6.9l-6.6,-6.9M137,489.9l4.8,-7.7m52,.4l-4.7,-.9m1.3,6.5l-8.1,-6.6m-1.5,2.2l1.5,-2.2m-50.1,7l6.4,-7.4m3.2,1l-3.2,-1m-58.4,4.2L81.8,481m-4.7,10.4L81.8,481m145.7,9.9l-4.8,-10.5m1.9,4.4l-1.9,-4.4m-113.6,2.8l-5.4,-2.9M96.8,491l6.9,-10.7m24.6,6.5l7.5,-6.8m2.8,1.2L135.8,480m73.1,10.6L201.8,480m-12.2,2.4l-2.4,-2.8m6,6.4l-6,-6.4M80.3,489.9L87,479.6m1.7,4l-1.7,-4m91.4,6.3l-8.1,-6.5m12,2.2l.3,-2.4m8.1,6.1l-8.1,-6.1m42.1,10.1l-6.6,-10.2m-1.5,4l1.5,-4m-82.3,.9l-2.1,-1.3m-8.4,6.2l8.4,-6.2m35.7,5l-1.5,-5.6m2.4,1.3l1.7,-1.5m8.8,5.9L172,477.9m-80.1,9.5l7.7,-10.2m4.1,3.1l-4.1,-3.1m26.3,3.9l6.4,-3.9m1.4,1.5l-1.4,-1.5m54.9,2.4l-3.9,-2.5m6.3,5.3l-7.9,-5.5m.9,2.3l-.9,-2.3m-58.8,10.8l5,-10.9m73.9,3.2l4.1,-3.2m7.6,10.1l-7.6,-10.1M172,477.9l1,-1.5m9.3,5.2L173,476.4m-13.2,6.4l-.7,-6.7m6.5,.6l-6.5,-.6l-8.8,-.2m-3.5,.3l3.5,-.3m-.3,6.7l.3,-6.7m-8.5,6.3l5.2,-6.3m-14.7,1.3l-.5,-1.6m-4.3,2.2l4.3,-2.2m-44.8,4l-.1,-4m-6.7,9.8l6.7,-9.8m60.1,.3l-1.7,-.4m-6.7,5.7l6.7,-5.7m-29.7,10.1l6.2,-10.5m6.1,1.7l-6.1,-1.7m96.3,4l-.1,-4m6.6,9.7L218,475.1m-72.7,.4l-1.3,-.7m-8.2,5.2l8.2,-5.2m29,1.6l.2,-1.6m9.4,4.4l-9.4,-4.4m14,4.8l-7.5,-4.8m2,2.1l-2,-2.1m-9.4,4.6l-8.7,-4.9m-17.6,.3l-1.1,-.6m-9.2,4.5l9.2,-4.5m-14.2,1.3L132,474m-.2,1.6L132,474m-43.3,9.6l8,-9.7m2.9,3.3l-2.9,-3.3m64.9,.6l.8,-.7m9.6,4.1l-9.6,-4.1m-3.3,2.3l-.5,-2.6m58,9.6l-8.1,-9.7m-2.6,3.4l2.6,-3.4m-65.6,.8l-.7,-.8m-9.9,3.8l9.9,-3.8m31,1.4l-.6,-1.5m9.1,3.6l-9.1,-3.6m-22.3,2.6l.2,-2.8m-41.4,10.1l7.4,-10.1m5.3,2l-5.3,-2m56.5,3.3L163,473m-.6,.8l.6,-.8m20.3,4.1l-6.6,-4.3m3,2l-3,-2m-34.5,.6l-.3,-.8m-10.1,3l10.1,-3M132,474l1,-1.5m-3.3,1.2l3.3,-1.2m60.8,10.1l-1.5,-10.4m3.7,1.1l-3.7,-1.1M163,473v-.8m10.2,2.6L163,472.2m-21.1,.4l.1,-.8M132,474l10,-2.2m37.7,3l-8.5,-3.1m1.4,1.6l-1.4,-1.6m-84.3,3.9l1.4,-4.1M81.8,481l6.5,-9.5M163,473l-10.5,-1.6m9.1,3.1l-9.1,-3.1m-10.5,.4l10.5,-.4m-5.5,4.5l5.5,-4.5m-7.2,4.1l7.2,-4.1m-10.6,1.2l10.6,-1.2m-10.3,2l10.3,-2m10.5,.8l-10.5,-.8m-8.5,3.4l8.5,-3.4m9.9,2.4l-9.9,-2.4m-9.6,2.8l9.6,-2.8m20.1,1.9l-9.8,-2m-10.3,.1l10.3,-.1m.2,.9l-.2,-.9m13.9,1.5l-4,-1.7m50,9.3l-6.4,-9.3m1.7,4l-1.7,-4m-85.9,1.4l4.3,-1.4m-1.7,1.4l1.7,-1.4m17.8,.3l-10,-.4m-9.5,1.5l9.5,-1.5m-.5,.8l.5,-.8m-26,2.1L112,470.7m-8.3,9.6l8.3,-9.6m50.8,.6l-.8,-.7m-9.5,.8l9.5,-.8m9.2,1.1L162,470.6m39.8,9.4l-8.3,-9.6M87,479.6l8.2,-9.2m1.5,3.5l-1.5,-3.5m81.5,2.4l-7.5,-2.4m2,1.3l-2,-1.3m-38.3,1.3l3.6,-1.4m18,1.1l-9.1,-1.2m-.9,.8l.9,-.8m-8.7,.9l8.7,-.9m38.6,6.1l-.6,-6.2m10.9,2.1l-10.9,-2.1m36.7,9L209.8,470m-1.3,3.4l1.3,-3.4m-40.6,.4l-8.3,-.4m1.1,.6l-1.1,-.6m-8.4,1.4l8.4,-1.4m-30,1.7l6.2,-1.9m-2.4,1.3l2.4,-1.3l7.5,-.2m-1.2,.6l1.2,-.6m7.9,1.8l-7.9,-1.8m7.9,1.8l7.1,-2.1m1.3,.7l-1.3,-.7l6.8,-.1m2.8,1.2l-2.8,-1.2m6.3,1.9l-6.3,-1.9m-21.8,.4l1.6,-.6m6.3,2.4L146.2,469m6.3,2.4l5.4,-2.5m1.7,.4l-1.7,-.4m-25.5,.1l1.3,-.2m-.2,1.9l.2,-1.9m12.5,.2l-6.1,-.3m-5.6,1.6l5.6,-1.6m-3,1.1l3,-1.1m29.8,1.5l-.1,-1.5m11.6,1.4l-11.6,-1.4m-23.6,.3l1.7,-.3m4.6,2.7l-4.6,-2.7m10,.2l-1.8,-.4m-3.6,2.9l3.6,-2.9m36.2,3.7l-1.1,-3.8m-43.3,.3l2,-.3m2.6,3l-2.6,-3m6.2,.1l-2,-.2m-1.6,3.1l1.6,-3.1m15.7,.4l-6.6,-.4m-29.5,.5l8.3,-.6m24.4,1l-3.3,-1m-5.2,.7l5.2,-.7m-13.2,.2l2,-.2m.6,3.2l-.6,-3.2m2.2,.1l-2.2,-.1m-52.3,9l8.9,-9.1m3.5,2.6l-3.5,-2.6m39.4,.6l-4.3,-.8m-3.5,.8l3.5,-.8m62.3,8.9l-9.1,-9m-3.3,2.6l3.3,-2.6M88.3,471.5l3.1,-3.8m64.7,.8l3.4,-.9m3.6,.6l-3.6,-.6m-9.6,.8l-2.4,-1.1m-3.9,.6l3.9,-.6m68.8,3.8L213,467.2m-58.9,1.1l1.4,-1.1m4,.4l-4,-.4m-8,.1l4,-.2m4,.1l-4,-.1m.4,1.1l-.4,-1.1m-23.6,9.7l5.6,-9.8m-38.3,3.4l-.1,-3.6m-8.2,8.8l8.2,-8.8M209.8,470v-3.6m8.2,8.7l-8.2,-8.7m-76.1,2.4l.3,-2.5m-12.2,8.8l7,-9.4m4.7,1.3l-4.7,-1.3m-32.1,8.2l9.4,-8.6m2.4,2.8l-2.4,-2.8m90.7,2.5l2.3,-2.8m9.4,8.4L199.1,465m-70.3,.7l-4.2,-1.6m-8.1,9l8.1,-9m-29.5,2.7l1.3,-3.4m-8.1,8.1l8.1,-8.1m119.9,7.7l-8.1,-8.2m1.6,3.5l-1.6,-3.5m-113,7.5l9.6,-8m1.3,2.9l-1.3,-2.9m7.2,8.3l9.1,-8.3m3.5,1.7l-3.5,-1.7m72.4,8l-9.4,-8.3m25.7,7.9l-9.6,-7.9m-1.1,2.9l1.1,-2.9m-18.8,8L179.5,461m4.3,.8l-4.3,-.8m-58.4,1.4l-2.6,-2.1m-10,7.8l10,-7.8m78.3,7.5l-10.1,-7.7m-2.6,2l2.6,-2m-95.3,7.6L99.1,460m-2.7,3.4L99.1,460m80.4,1l-10.8,-1.3m1.1,9l-1.1,-9m39.5,3.2l-2.8,-3.3m7.6,7.6l-7.6,-7.6m-100.6,2.8v-2.9m-9.7,7.3l9.7,-7.3m95.4,2.6l-.1,-3m9.7,7.3l-9.7,-7.3m-54.4,8.5l.4,-8.5m-7.3,.4l7.3,-.4m11.7,8.3l-.3,-8.3m11.2,.6l-11.2,-.6m-11.4,0h11.4m-24,7.9l6.1,-8.4m39.9,2.4l-.8,-2.6m-60.2,1.9l-1.8,-2.2m-10.6,7.2l10.6,-7.2m82.4,6.9l-10.7,-7.1m-1.7,2.2l1.7,-2.2m-59.6,7.8l7.6,-8m3.2,.9l-3.2,-.9M99.1,460l4.1,-3.1m33.2,.8l-2.9,-1.1m-8.9,7.5l8.9,-7.5m-28.7,2.9l1.1,-2.9m-9.5,6.8l9.5,-6.8m99.5,3l-4.2,-3.1m-1.1,2.6l-1.2,-2.9m9.3,6.7l-9.3,-6.7m-82.2,1.9l-1,-2.2m-10.9,6.5l10.9,-6.5m72.7,2l.9,-2.2m10.9,6.4l-10.9,-6.4m-55.8,.9l-2.4,-1.2m-10,7l10,-7m53,6.7L174,455.2m-42.9,.2L129.4,454m-10.9,6.3L129.4,454m57.3,6.1l-10.9,-6.3m-1.8,1.4l1.8,-1.4m-69.9,2.8l2.2,-2.9m-9,6.3l9,-6.3m-3.3,5.8l10.8,-5.9m.1,2.3l-.1,-2.3m83.3,2.6l-2.5,-2.7m9,6.1l-9,-6.1m3.7,5.6l-10.8,-5.7m0,2.3v-2.3m-59.9,.6l-1.3,-1.5m-11.4,5.6l11.4,-5.6m60.3,5.4L177,452.4m-1.2,1.4l1.2,-1.4m-8.3,7.3l-1.5,-7.5m1,.2l-1,-.2m0,0l-.1,-.4m-27.5,6.8l6.3,-6.9m.2,7.4l.5,-7.5m-.7,.1l.7,-.1H157m10.2,.6L157,451.6m.5,7.5l-.5,-7.5m-51.1,5l10.6,-5.2m-.9,2.2l.9,-2.2m19.9,6.3l7.9,-6.4m1.6,.4l-1.6,-.4m-41.1,5.6l8.3,-5.7m-3.4,2.5l3.4,-2.5m77.8,2.2l-1,-2.2m10.6,5l-10.6,-5m-41.7,.4l.1,-.6m-18.6,1.5l-.6,-1.5m-11.8,4.9L127.5,451m68.9,2.5L193,450.8m8.2,5.7L193,450.8m-16,1.6l.5,-1.6m11.8,4.9l-11.8,-4.9m-44,5.8l9.4,-5.9m1.4,.6l-1.4,-.6m-11.8,4.7l10.6,-5.3m1.2,.6l-1.2,-.6m32.3,5.1L163.4,450m-47.8,3.6l11.8,-4.2m.1,1.6l-.1,-1.6m14.3,.7l-.9,-.8M129.4,454l11.4,-4.7m48.5,4.1l-11.8,-4.2m0,1.6v-1.6m-1.7,4.6l-11.6,-4.6m-.8,.8l.8,-.8m-47.7,2.2l1.7,-2.2m-10.1,4.5l10.1,-4.5m70.1,2L186.4,449m10,4.5l-10,-4.5m-74.9,2.2l4.3,-2.4m25,.5l-.7,-.7m-12,3.9l12,-3.9m36.9,3.8l-12.1,-3.9m-.7,.7l.7,-.7m28.1,2.3l-4.5,-2.3m-61.1,.9L128,448m-11.5,3.4L128,448m12.1,.6l-.3,-.7M127.5,451l12.3,-3.1m17.2,3.7l-.4,-3.8m20.9,1.4l-.6,-1.4m11.4,3.4l-11.4,-3.4m.6,3l-12.3,-3m-.3,.7l.3,-.7m-47,1.4l2.6,-2m-9.3,4l9.3,-4m6.6,2.2L139.8,447m0,.9V447m25.4,.8V447m12.3,2.2L165.2,447m27.8,3.8L183.8,447m2.6,2l-2.6,-2m-20.4,3l-10.9,-3.5m-8.2,4.8l8.2,-4.8m-6.6,5.2l6.6,-5.2m-10.8,3.6l10.8,-3.6m-11.7,2.8l11.7,-2.8m-12.7,1.4l12.7,-1.4m12.4,2l-12.4,-2m11.7,2.7l-11.7,-2.7m-12.7,.5l12.7,-.5m12.7,.5l-12.7,-.5m-12.4,2.1l12.4,-2.1m-9.6,4.2l9.6,-4.2m12.7,1.3l-12.7,-1.3M128,448l1.1,-1.5m-10.9,2.7l10.9,-2.7m47.8,1.3l-1.3,-1.5m10.8,2.7l-10.8,-2.7m-23.1,.2L140,446.3m-.2,.7l.2,-.7M128,448l12,-1.7m36.9,1.5l-12.1,-1.6m-12.3,.3l12.3,-.3m.4,.8l-.4,-.8m-35.7,.3l11.6,-.9m-.7,.7l.7,-.7m11.8,.9l-11.8,-.9m11.8,.9l11.6,-1m11.5,.8l-11.5,-.8m.7,.7l-.7,-.7m-48.3,3.3l8.4,-3.4m-3.4,1.8l3.4,-1.8m64.3,3.1l-8.2,-3.4m3.5,1.9l-3.5,-1.9m-59.5,2.1L131,445.1m-1.9,1.4l1.9,-1.4m44.6,1.2l-1.8,-1.4m10,2.1l-10,-2.1m-42.8,.2l10.6,-.3m-.9,.8l.9,-.8m10.9,1.7l-10.9,-1.7m32.2,.1l-10.6,-.1m.9,.7l-.9,-.7m-10.7,1.7l10.7,-1.7m-21.6,0l1.1,-.6m9.8,2.3l-9.8,-2.3m20.5,.6l-1.2,-.7m-9.5,2.4l9.5,-2.4m-31,1l2.2,-1.3m9.5,.4l-9.5,-.4m-9,1.6l9,-1.6m-9,1.6l4,-1.7m52.1,1.4l-8.9,-1.4m-9.4,.4l9.4,-.4m2.4,1.2l-2.4,-1.2m-28.7,.5l1.5,-.5m8.3,2.8l-8.3,-2.8m8.3,2.8l8.2,-2.9m1.3,.5l-1.3,-.5m19.6,1.5l-4.1,-1.5m-32,.1l1.5,-.5m6.8,3.3l-6.8,-3.3m15,.4l-1.7,-.5m-6.5,3.4l6.5,-3.4m-13.3,.1l1.8,-.4m5,3.7l-5,-3.7m11.5,.3l-1.7,-.3m-4.8,3.7l4.8,-3.7m-29.1,.9l7.8,-1m8.2,1l-8.2,-1m-2.8,1.1l2.8,-1.1m40.2,.9l-7.6,-1m-7.9,1l7.9,-1m2.8,1.1l-2.8,-1.1m-21.1,.2l1.9,-.2m3.1,3.9l-3.1,-3.9m3.1,3.9l2.8,-3.9m2,.2l-2,-.2m-5.9,0l1.9,-.1m1.2,4l-1.2,-4m1.2,4l.8,-4m2,.1l-2,-.1m-2,0h2m-25.1,1.2l4.7,-1.3m43.3,1.2l-4.7,-1.3m-25.8,.9l-6.6,-1.4m-3.1,.9l3.1,-.9m-6.2,.6l6.2,-.6m29.5,.8l-3.2,-.9m-6.4,1.4l6.4,-1.4m6.1,.6l-6.1,-.6m-32.5,.7l5.1,-1m33.5,.9l-5.2,-1m-28.3,.1l4.6,-.3m4.9,1.7l-4.9,-1.7m-3.5,.7l3.5,-.7m14.7,1.7l4.6,-1.8m3.5,.7l-3.5,-.7m4.4,.3l-4.4,-.3m-23.9,.4l5.5,-.8m-.9,.5l3.8,-.5m3,2l-3,-2m-2.9,0h2.9m15.5,.4l-3.8,-.5m-2.8,2.1l2.8,-2.1h2.7m5.5,.8l-5.5,-.8m-14.4,.1l3.9,-.2m1,2.1l-1,-2.1h3.9m3.9,.1l-3.9,-.1m-.9,2.1l.9,-2.1m-10.7,.2l5.7,-.3m1.1,.1l-1.1,-.1m11.6,.2l-5.8,-.2m-.8,.1l.8,-.1m-5.8,0H155" class="g5k_120"/>
<path d="M152.6,497.1V422" class="g5l_120"/>
<path fill-rule="evenodd" d="M152.6,422l-2.4,1.6l2.4,-6.5l2.5,6.5Z" class="g5m_120"/>
<path d="M220.3,476.9l15.9,-10.5m-60.4,60.5l69.8,16.3" class="g5l_120"/>
<path fill-rule="evenodd" d="M245.6,543.2l-1.1,-2.8l5.8,3.9l-6.9,.9Z" class="g5m_120"/>
<path d="M138.7,530.4L69,576" class="g5n_120"/>
<path fill-rule="evenodd" d="M69,576l2.7,1.2l-6.8,1.5l4.2,-5.6Z" class="g5m_120"/>
<path d="M59.6,499.6l14.1,3.3" class="g5l_120"/>
<path d="M197.1,423l-11.5,25.9" class="g5o_120"/>
<path d="M184.2,451.9l.3,-4.7l1.1,1.7l1.9,-.3Z" class="g5m_120"/>
<path d="M202,447l-15.2,29" class="g5o_120"/>
<path d="M185.2,478.9l.6,-4.6l1,1.7l1.9,-.2Z" class="g5m_120"/>
<path d="M206.2,604.1L168.3,534.6" class="g5o_120"/>
<path d="M166.7,531.7l3.6,3l-2,-.1l-.9,1.7Z" class="g5m_120"/>
</svg>