<?xml version="1.0" encoding="UTF-8" standalone="no"?>
<!DOCTYPE svg PUBLIC "-//W3C//DTD SVG 1.1//EN"
"http://www.w3.org/Graphics/SVG/1.1/DTD/svg11.dtd">
<svg viewBox="0 0 907 1045" version="1.1" xmlns="http://www.w3.org/2000/svg" xmlns:xlink="http://www.w3.org/1999/xlink">
<defs>
<clipPath id="c0_411"><path d="M-2.6,1047.7V-2.6H910.2V1047.7Z"/></clipPath>
<style type="text/css"><![CDATA[
.g0_411{
fill: #D9D9D9;
}
.g1_411{
fill: none;
stroke: #5A5A5A;
stroke-width: 1.527;
stroke-linecap: butt;
stroke-linejoin: miter;
stroke-miterlimit: 4;
}
.g2_411{
fill: none;
stroke: #FFFFFF;
stroke-width: 1.909;
stroke-linecap: butt;
stroke-linejoin: miter;
}
.g3_411{
fill: none;
stroke: #000000;
stroke-width: 0.381;
stroke-linecap: butt;
stroke-linejoin: miter;
}
]]></style>
</defs>
<path d="M119.1,452.6V665.3H554.2V452.6H119.1Z" class="g0_411"/>
<path d="M520,396.5c1.9,-6.4,-22.4,-5.7,-25.8,-5.4c-7.5,.6,-15.1,2.9,-22.3,4.9c-7.7,2.1,-15.6,4.8,-22.9,8c-8.6,3.8,-16.3,8.9,-23.2,15.3c-4.4,4,-8.8,7.2,-11.3,12.8c.4,-3.5,-1.2,-7,-1.4,-10.4c-2.3,2,-2,9.6,.6,11.2c1.8,1.1,3,-.1,5,-.6c1.8,-.4,3.8,-.4,5.7,-.7m160,48.7c-6.4,3.3,-11.5,8.9,-16.9,13.4c-4.5,3.8,-8.5,8.6,-14.3,10.3c-5.1,1.5,-10.7,2,-15.9,3.2c-3.4,.8,-8.7,3.2,-12.1,2.7c2.5,-3.3,4.8,-7.1,8.1,-9.5c-2,1.3,-3.7,2.8,-5.4,4.7c-1.3,1.5,-5.6,5.5,-5.5,7.7c.2,1.9,.6,1.5,2.1,2c1.8,.6,5.1,-.7,7.1,-.7c1.3,-.1,2.6,0,4,0m40,43.3c-5.3,-3,-13.4,.7,-18.6,3.1c-2.3,1.1,-5.1,2.1,-7.2,3.6c-1.5,1,-2.3,2.6,-3.8,3.6c-3.8,2.6,-9.2,2.3,-13.3,4.4c-1.3,.6,-2.6,1.3,-3.8,1.9c-1.1,-3.1,3.7,-6.1,5,-8.7c-1.5,1,-3.5,1.8,-4.9,3.1c-1.7,1.7,-2.2,4.3,-3.4,6.2c3.4,.7,7.2,-.5,10.6,-.5m40.1,85.1c-1.4,-2.4,-1.7,-4.6,-2,-7.3c-.7,-5.7,-2.6,-11.1,-5.8,-15.9c-1.4,-2.1,-4.6,-4.5,-4.9,-7c-2,-.1,-3.4,9.2,-1.9,10.3c1.3,-3.7,-3,-10.8,.8,-13.6c1,-.8,3.8,-.2,5.1,-.4c1.4,-.1,3.2,-1.3,4.3,.2M354.4,725.8c-.9,.3,-2,.6,-2.5,1.1c3.6,-1.1,7.1,-6.2,9.4,-8.8c4.9,-5.7,8.8,-14.3,10.3,-21.6c1,-4.8,.5,-10.5,.9,-15.4c.3,-2.8,.2,-5.9,-.1,-8.7c-2.9,2.6,-4.3,7.7,-8.6,8.5c.2,-1.3,1.7,-2.4,2.5,-3.4c1.3,-1.2,2.5,-2.4,3.5,-3.8c.7,-.9,1.3,-1.8,1.7,-2.9c1.4,-.7,1.3,-.1,2.5,1.3c2.9,3,5.6,3.2,9.6,2.9" class="g1_411"/>
<g clip-path="url(#c0_411)">
<path d="M-4.5,13.7H-27.4m939.5,0H935M-4.5,1031.2H-27.4m939.5,0H935M13.7,-4.5V-27.4m0,1077v22.9m880,-1077V-27.4m0,1077v22.9" class="g2_411"/>
<path d="M-4.5,13.7H-27.4m939.5,0H935M-4.5,1031.2H-27.4m939.5,0H935M13.7,-4.5V-27.4m0,1077v22.9m880,-1077V-27.4m0,1077v22.9" class="g3_411"/>
</g>
</svg>