<?xml version="1.0" encoding="UTF-8" standalone="no"?>
<!DOCTYPE svg PUBLIC "-//W3C//DTD SVG 1.1//EN"
"http://www.w3.org/Graphics/SVG/1.1/DTD/svg11.dtd">
<svg viewBox="0 0 660 990" version="1.1" xmlns="http://www.w3.org/2000/svg" xmlns:xlink="http://www.w3.org/1999/xlink">
<defs>
<clipPath id="c0_314"><path d="M86.9,123.5l-1.2,-2.3l-1.2,-2.4H576.2l-1.1,2.4l-1.2,2.3Z"/></clipPath>
<clipPath id="c1_314"><path d="M577.3,847.5L575,846.3l-2.4,-1.2V122.3l2.4,-1.2l2.3,-1.2V847.5Z"/></clipPath>
<clipPath id="c2_314"><path d="M84.5,848.6l1.2,-2.4l1.2,-2.4h487l1.2,2.4l1.1,2.4Z"/></clipPath>
<clipPath id="c3_314"><path d="M83.5,847.5V119.9l2.3,1.2l2.4,1.2V845.1l-2.4,1.2l-2.3,1.2Z"/></clipPath>
<clipPath id="c4_314"><path d="M85.6,915.9v-5.1H574.4v5.1Z"/></clipPath>
<style type="text/css"><![CDATA[
.g0_314{
fill: none;
stroke: #231F20;
stroke-width: 0.381;
stroke-linecap: round;
stroke-linejoin: miter;
}
.g1_314{
fill: none;
stroke: #231F20;
stroke-width: 0.763;
stroke-linecap: round;
stroke-linejoin: miter;
}
]]></style>
</defs>
<path clip-path="url(#c0_314)" d="M85.6,121.2H575.1" class="g0_314"/>
<path clip-path="url(#c1_314)" d="M575,121V846.4" class="g0_314"/>
<path clip-path="url(#c2_314)" d="M575.1,846.2H85.6" class="g0_314"/>
<path clip-path="url(#c3_314)" d="M85.8,846.4V121" class="g0_314"/>
<path clip-path="url(#c4_314)" d="M85.6,913.4H574.4" class="g1_314"/>
<image preserveAspectRatio="none" x="158" y="129" width="345" height="708" xlink:href="img/1.jpg"/>
</svg>