<?xml version="1.0" encoding="UTF-8" standalone="no"?>
<!DOCTYPE svg PUBLIC "-//W3C//DTD SVG 1.1//EN"
"http://www.w3.org/Graphics/SVG/1.1/DTD/svg11.dtd">
<svg viewBox="0 0 907 1045" version="1.1" xmlns="http://www.w3.org/2000/svg" xmlns:xlink="http://www.w3.org/1999/xlink">
<defs>
<clipPath id="c0_513"><path d="M700.4,184.3V123.8h56.3v60.5Z"/></clipPath>
<clipPath id="c1_513"><path d="M757.8,165.9V105.4h56.3v60.5Z"/></clipPath>
<clipPath id="c2_513"><path d="M-2.6,1047.7V-2.6H910.2V1047.7Z"/></clipPath>
<style type="text/css"><![CDATA[
.g0_513{
fill: none;
stroke: #636363;
stroke-width: 1.527;
stroke-linecap: butt;
stroke-linejoin: miter;
stroke-miterlimit: 4;
}
.g1_513{
fill: none;
stroke: #FFFFFF;
stroke-width: 1.909;
stroke-linecap: butt;
stroke-linejoin: miter;
}
.g2_513{
fill: none;
stroke: #000000;
stroke-width: 0.381;
stroke-linecap: butt;
stroke-linejoin: miter;
}
]]></style>
</defs>
<image clip-path="url(#c0_513)" preserveAspectRatio="none" x="700" y="124" width="57" height="60" xlink:href="img/1.jpg"/>
<image clip-path="url(#c1_513)" preserveAspectRatio="none" x="758" y="105" width="56" height="61" xlink:href="img/2.jpg"/>
<path d="M546.1,669.4c5,-1.2,10.7,-1,15.5,-3.4c3.8,-1.8,7.6,-5.9,7,-10.4c-.4,-3.1,-2.4,-8.1,-4.2,-10.5c-3.3,-4.3,-7.2,-4.7,-12.2,-4.7c-2.4,0,-5.6,.2,-7.9,-.6c-1.3,-.4,-1.7,-.8,-3,-.9c.8,-1.3,2.6,-1.7,3.9,-2.3c1.3,-.5,2.9,-1.7,4.2,-1.9c-.6,1,-2.4,1.1,-3.4,1.5c-1.8,.8,-3.7,1.5,-5.5,2.2c-1.2,.4,-4,.7,-4.8,1.9c2.4,.6,4.8,1.1,6.4,3.1M321.3,701.6c0,-1.8,1,-3,1.3,-4.6c.4,-2,-.2,-4.1,.1,-6.1c.8,-4.6,4.6,-8.8,6.7,-12.8c1.2,-2.3,2.5,-4.9,3.1,-7.4c.4,-1.5,.6,-2.7,1.2,-4.1c.8,-1.9,2.7,-5.3,2.1,-7.5c-1.3,-.3,-4.8,1,-6,1.5c-1.6,.7,-4.3,1.8,-5.5,3c3.7,-.7,8.4,-2.3,11.2,-5c.8,.8,1.4,2.4,2.4,3.3c1.6,1.5,2.8,1.6,2.6,4M279,395.8c2.6,1.4,4.8,3.4,6.8,5.6c2.7,2.9,5.7,6.1,8.1,9.2c1.9,2.6,3,7.1,4.2,10.1c.8,2,1.2,4.1,1.7,6.2c1,4.7,.2,9.9,.4,14.7c-1.6,-1.5,-3.5,-2.9,-5,-4.7c-1.3,-1.7,-2.3,-4.5,-4.4,-5.4c.9,1.6,2.4,3.6,3.7,5.1c1.3,1.6,4.4,4.1,4.7,6.3c2.4,-3,4.6,-5.9,7.9,-8.2m256.7,38.4c1.4,5.8,-.7,12.4,-3.1,17.7c-5.1,11.6,-16.1,17.2,-27.2,21.7c-9.2,3.7,-18.9,7.5,-28.4,9.9c-5.1,1.3,-11.7,4.1,-17,3.3c0,-1,.6,-1.1,1.4,-2c3,-3.3,8.5,-5.8,9.7,-10.3c-1.9,1.2,-4,4.4,-5.7,6.2c-2.3,2.5,-7.4,5.3,-8.3,8.6c-.5,1.7,-.6,2,1.4,2.7c1.5,.1,3,.2,4.5,.2c3.1,.2,6.1,.5,9.1,1" class="g0_513"/>
<g clip-path="url(#c2_513)">
<path d="M-4.5,13.7H-27.4m939.5,0H935M-4.5,1031.2H-27.4m939.5,0H935M13.7,-4.5V-27.4m0,1077v22.9m880,-1077V-27.4m0,1077v22.9" class="g1_513"/>
<path d="M-4.5,13.7H-27.4m939.5,0H935M-4.5,1031.2H-27.4m939.5,0H935M13.7,-4.5V-27.4m0,1077v22.9m880,-1077V-27.4m0,1077v22.9" class="g2_513"/>
</g>
</svg>