<?xml version="1.0" encoding="UTF-8" standalone="no"?>
<!DOCTYPE svg PUBLIC "-//W3C//DTD SVG 1.1//EN"
"http://www.w3.org/Graphics/SVG/1.1/DTD/svg11.dtd">
<svg viewBox="0 0 931 1096" version="1.1" xmlns="http://www.w3.org/2000/svg" xmlns:xlink="http://www.w3.org/1999/xlink">
<defs>
<clipPath id="c0_48"><path d="M493.2,873.6V838.9H617.5v34.7Z"/></clipPath>
<clipPath id="c1_48"><path d="M53.5,356.4V210.3H266.6V356.4Z"/></clipPath>
<style type="text/css"><![CDATA[
.g0_48{
fill: #FFF;
}
.g1_48{
fill: none;
stroke: #241F1F;
stroke-width: 0.763;
stroke-miterlimit: 10;
}
.g2_48{
fill: none;
stroke: #00AEEF;
stroke-width: 0.763;
}
.g3_48{
fill: #CFEDFC;
}
.g4_48{
fill: none;
stroke: #00AEEF;
stroke-width: 0.916;
stroke-linejoin: round;
}
.g5_48{
fill: #00AEEF;
}
.g6_48{
fill: none;
stroke: #00AEEF;
stroke-width: 0.763;
stroke-miterlimit: 3;
}
.g7_48{
fill: none;
stroke: #EE008C;
stroke-width: 0.916;
stroke-linejoin: round;
}
.g8_48{
fill: none;
stroke: #241F1F;
stroke-width: 0.611;
stroke-miterlimit: 3;
}
.g9_48{
fill: #241F1F;
}
.ga_48{
fill: none;
stroke: #241F1F;
stroke-width: 0.534;
stroke-miterlimit: 3;
}
.gb_48{
fill: none;
stroke: #969698;
stroke-width: 0.763;
stroke-linejoin: round;
}
.gc_48{
fill: #ABC6D3;
}
.gd_48{
fill: #D6D5D6;
}
.ge_48{
fill: none;
stroke: #EE008C;
stroke-width: 0.763;
stroke-miterlimit: 3;
stroke-dasharray: 10,4;
}
.gf_48{
fill: none;
stroke: #241F1F;
stroke-width: 0.763;
stroke-linejoin: round;
}
]]></style>
</defs>
<path d="M290.7,181.7c0,0,-3.1,0,-3.1,3.1v123c0,0,0,3,3.1,3H820.1c0,0,3,0,3,-3v-123c0,0,0,-3.1,-3,-3.1Z" class="g0_48"/>
<path d="M546,248.3h41.8" class="g1_48"/>
<path d="M290.7,181.7c0,0,-3.1,0,-3.1,3.1v123c0,0,0,3,3.1,3H820.1c0,0,3,0,3,-3v-123c0,0,0,-3.1,-3,-3.1H290.7Z" class="g2_48"/>
<path d="M493.6,856.2h23.8" class="g1_48"/>
<path clip-path="url(#c0_48)" d="M539.3,856.2h78.6" class="g1_48"/>
<path d="M461.8,928h44.1m79.7,0h44M461.9,975.4H506m-42.9,48.9h78.6" class="g1_48"/>
<path d="M71.8,791.4V727.6c11,21.2,21.8,31.9,31.9,31.9c20.1,0,44.4,-40.6,63.8,-125.5V791.4Z" class="g3_48"/>
<path d="M71.8,727.6c11,21.2,21.8,31.9,31.9,31.9c20.1,0,44.3,-42.7,63.8,-127.6" class="g4_48"/>
<path d="M165.8,631.9c0,-.9,.8,-1.7,1.7,-1.7c1,0,1.7,.8,1.7,1.7c0,1,-.7,1.7,-1.7,1.7c-.9,0,-1.7,-.7,-1.7,-1.7Z" class="g5_48"/>
<path d="M165.8,631.9c0,-.9,.8,-1.7,1.7,-1.7c1,0,1.7,.8,1.7,1.7c0,1,-.7,1.7,-1.7,1.7c-.9,0,-1.7,-.7,-1.7,-1.7Z" class="g6_48"/>
<path d="M70.1,727.6c0,-.9,.7,-1.7,1.7,-1.7c.9,0,1.7,.8,1.7,1.7c0,1,-.8,1.7,-1.7,1.7c-1,0,-1.7,-.7,-1.7,-1.7Z" class="g5_48"/>
<path d="M70.1,727.6c0,-.9,.7,-1.7,1.7,-1.7c.9,0,1.7,.8,1.7,1.7c0,1,-.8,1.7,-1.7,1.7c-1,0,-1.7,-.7,-1.7,-1.7Z" class="g6_48"/>
<path d="M71.8,727.6H232.6" class="g7_48"/>
<path d="M53.5,791.4H233.6m-161.8,-3v6.1" class="g8_48"/>
<path fill-rule="evenodd" d="M233.6,791.4L232,788.9l6.5,2.5l-6.5,2.4Z" class="g9_48"/>
<path d="M103.7,812V624.3" class="g8_48"/>
<path fill-rule="evenodd" d="M103.7,624.3l-2.4,1.6l2.4,-6.5l2.5,6.5Z" class="g9_48"/>
<path d="M167.5,788.3v6.1m-31.9,-5.7V794" class="g8_48"/>
<path d="M192.8,730.8v57.1" class="ga_48"/>
<path d="M192.8,727.6l1.6,4.2l-1.6,-1l-1.6,1Z" class="g9_48"/>
<path d="M192.8,791.1l-1.6,-4.2l1.6,1l1.6,-1Z" class="g9_48"/>
<path d="M167.5,631.9V791.4" class="g8_48"/>
<path d="M135.6,727.6v63.8M71.8,727.6v63.8" class="gb_48"/>
<path d="M80.7,255.6c19.6,-44.2,41.8,-35.8,59.8,9.5H80.7Z" class="g3_48"/>
<path d="M140.5,265.1c13,32.9,46.2,38.4,70.4,20.5c0,0,-.1,51.9,0,51.9H80.7V265.1Z" class="gc_48"/>
<path d="M210.9,265.1H140.5c13,32.9,46.2,38.4,70.4,20.5Z" class="gd_48"/>
<path clip-path="url(#c1_48)" d="M42.8,337.5H251.1" class="g8_48"/>
<path fill-rule="evenodd" d="M251.1,337.5L249.5,335l6.5,2.5l-6.5,2.4Z" class="g9_48"/>
<path d="M68.5,354.1V219.5" class="g8_48"/>
<path fill-rule="evenodd" d="M68.5,219.5L66,221.1l2.5,-6.5l2.4,6.5Z" class="g9_48"/>
<path d="M80.7,255.6c19.6,-44.2,41.8,-35.8,59.8,9.5c13,32.9,46.2,38.4,70.4,20.5" class="g4_48"/>
<path d="M80.7,265.1H210.9" class="g7_48"/>
<path d="M140.5,265.1v72.4" class="ge_48"/>
<path d="M210.9,337.5V265.1M80.7,255.6v81.9" class="gf_48"/>
<path d="M222.6,293.3V269.1m-4.1,-3.6h8.3" class="ga_48"/>
<path d="M222.6,265.4l1.9,4.9l-1.9,-1.2l-1.8,1.2Z" class="g9_48"/>
<path d="M222.6,312.5v21.8" class="ga_48"/>
<path d="M222.6,338l-1.8,-4.9l1.8,1.2l1.9,-1.2Z" class="g9_48"/>
</svg>