<?xml version="1.0" encoding="UTF-8" standalone="no"?>
<!DOCTYPE svg PUBLIC "-//W3C//DTD SVG 1.1//EN"
"http://www.w3.org/Graphics/SVG/1.1/DTD/svg11.dtd">
<svg viewBox="0 0 931 1096" version="1.1" xmlns="http://www.w3.org/2000/svg" xmlns:xlink="http://www.w3.org/1999/xlink">
<defs>
<clipPath id="c0_37"><path d="M586.8,731.4V699.5h47.1v31.9Z"/></clipPath>
<style type="text/css"><![CDATA[
.g0_37{
fill: #D0007A;
}
.g1_37{
fill: #EE008C;
}
.g2_37{
fill: none;
stroke: #EE008C;
stroke-width: 0.763;
stroke-miterlimit: 3;
}
.g3_37{
fill: #00AEEF;
}
.g4_37{
fill: none;
stroke: #00AEEF;
stroke-width: 0.763;
stroke-miterlimit: 3;
}
.g5_37{
fill: none;
stroke: #241F1F;
stroke-width: 0.611;
stroke-miterlimit: 3;
}
.g6_37{
fill: none;
stroke: #241F1F;
stroke-width: 0.534;
stroke-miterlimit: 10;
}
.g7_37{
fill: none;
stroke: #241F1F;
stroke-width: 0.763;
stroke-miterlimit: 10;
}
.g8_37{
fill: #241F1F;
}
.g9_37{
fill: none;
stroke: #EE008C;
stroke-width: 0.381;
stroke-miterlimit: 3;
}
]]></style>
</defs>
<path d="M343.8,184.4c0,0,-1.6,0,-1.6,1.5v9.2c0,0,0,1.5,1.6,1.5h9.1c0,0,1.6,0,1.6,-1.5v-9.2c0,0,0,-1.5,-1.6,-1.5Z" class="g0_37"/>
<path d="M616.5,419.6c0,-.9,.8,-1.7,1.7,-1.7c1,0,1.7,.8,1.7,1.7c0,1,-.7,1.8,-1.7,1.8c-.9,0,-1.7,-.8,-1.7,-1.8Z" class="g1_37"/>
<path d="M616.5,419.6c0,-.9,.8,-1.7,1.7,-1.7c1,0,1.7,.8,1.7,1.7c0,1,-.7,1.8,-1.7,1.8c-.9,0,-1.7,-.8,-1.7,-1.8Z" class="g2_37"/>
<path d="M689.8,419.6c0,-.9,.8,-1.7,1.8,-1.7c.9,0,1.7,.8,1.7,1.7c0,1,-.8,1.8,-1.7,1.8c-1,0,-1.8,-.8,-1.8,-1.8Z" class="g1_37"/>
<path d="M689.8,419.6c0,-.9,.8,-1.7,1.8,-1.7c.9,0,1.7,.8,1.7,1.7c0,1,-.8,1.8,-1.7,1.8c-1,0,-1.8,-.8,-1.8,-1.8Z" class="g2_37"/>
<path d="M744.8,419.6c0,-.9,.8,-1.7,1.8,-1.7c.9,0,1.7,.8,1.7,1.7c0,1,-.8,1.8,-1.7,1.8c-1,0,-1.8,-.8,-1.8,-1.8Z" class="g1_37"/>
<path d="M744.8,419.6c0,-.9,.8,-1.7,1.8,-1.7c.9,0,1.7,.8,1.7,1.7c0,1,-.8,1.8,-1.7,1.8c-1,0,-1.8,-.8,-1.8,-1.8Z" class="g2_37"/>
<path d="M781.5,419.6c0,-.9,.8,-1.7,1.7,-1.7c1,0,1.7,.8,1.7,1.7c0,1,-.7,1.8,-1.7,1.8c-.9,0,-1.7,-.8,-1.7,-1.8Z" class="g1_37"/>
<path d="M781.5,419.6c0,-.9,.8,-1.7,1.7,-1.7c1,0,1.7,.8,1.7,1.7c0,1,-.7,1.8,-1.7,1.8c-.9,0,-1.7,-.8,-1.7,-1.8Z" class="g2_37"/>
<path d="M450.1,419.6c0,-.9,.8,-1.7,1.8,-1.7c.9,0,1.7,.8,1.7,1.7c0,1,-.8,1.8,-1.7,1.8c-1,0,-1.8,-.8,-1.8,-1.8Z" class="g1_37"/>
<path d="M450.1,419.6c0,-.9,.8,-1.7,1.8,-1.7c.9,0,1.7,.8,1.7,1.7c0,1,-.8,1.8,-1.7,1.8c-1,0,-1.8,-.8,-1.8,-1.8Z" class="g2_37"/>
<path d="M616.5,442.6c0,-1,.8,-1.7,1.7,-1.7c1,0,1.7,.7,1.7,1.7c0,.9,-.7,1.7,-1.7,1.7c-.9,0,-1.7,-.8,-1.7,-1.7Z" class="g3_37"/>
<path d="M616.5,442.6c0,-1,.8,-1.7,1.7,-1.7c1,0,1.7,.7,1.7,1.7c0,.9,-.7,1.7,-1.7,1.7c-.9,0,-1.7,-.8,-1.7,-1.7Z" class="g4_37"/>
<path d="M689.8,442.6c0,-1,.8,-1.7,1.8,-1.7c.9,0,1.7,.7,1.7,1.7c0,.9,-.8,1.7,-1.7,1.7c-1,0,-1.8,-.8,-1.8,-1.7Z" class="g3_37"/>
<path d="M689.8,442.6c0,-1,.8,-1.7,1.8,-1.7c.9,0,1.7,.7,1.7,1.7c0,.9,-.8,1.7,-1.7,1.7c-1,0,-1.8,-.8,-1.8,-1.7Z" class="g4_37"/>
<path d="M744.8,442.6c0,-1,.8,-1.7,1.8,-1.7c.9,0,1.7,.7,1.7,1.7c0,.9,-.8,1.7,-1.7,1.7c-1,0,-1.8,-.8,-1.8,-1.7Z" class="g3_37"/>
<path d="M744.8,442.6c0,-1,.8,-1.7,1.8,-1.7c.9,0,1.7,.7,1.7,1.7c0,.9,-.8,1.7,-1.7,1.7c-1,0,-1.8,-.8,-1.8,-1.7Z" class="g4_37"/>
<path d="M781.5,442.6c0,-1,.8,-1.7,1.7,-1.7c1,0,1.7,.7,1.7,1.7c0,.9,-.7,1.7,-1.7,1.7c-.9,0,-1.7,-.8,-1.7,-1.7Z" class="g3_37"/>
<path d="M781.5,442.6c0,-1,.8,-1.7,1.7,-1.7c1,0,1.7,.7,1.7,1.7c0,.9,-.7,1.7,-1.7,1.7c-.9,0,-1.7,-.8,-1.7,-1.7Z" class="g4_37"/>
<path d="M829.2,419.6H451.9m166.3,23h211" class="g5_37"/>
<path d="M578.9,619.2h5.4m9.5,0h5.4m9.5,0h5.4m9.5,0H629" class="g6_37"/>
<path clip-path="url(#c0_37)" d="M622.1,715.6h12.2" class="g7_37"/>
<path d="M604.1,885.2h12.2" class="g7_37"/>
<path d="M123.8,850.8h6.1m-21.4,55H305.6" class="g5_37"/>
<path fill-rule="evenodd" d="M305.6,905.8l-1.7,-2.5l6.6,2.5l-6.6,2.4Z" class="g8_37"/>
<path d="M126.8,925.6V837" class="g5_37"/>
<path fill-rule="evenodd" d="M126.8,837l-2.4,1.6l2.4,-6.5l2.5,6.5Z" class="g8_37"/>
<path d="M236.7,902.7v6.2M223,902.7v6.2m-13.8,-6.2v6.2m-13.7,-6.2v6.2m-13.8,-6.2v6.2M168,902.7v6.2m-13.8,-6.2v6.2m-13.7,-6.2v6.2" class="g5_37"/>
<path d="M139,850.8c0,-.8,.7,-1.5,1.5,-1.5c.8,0,1.5,.7,1.5,1.5c0,.8,-.7,1.5,-1.5,1.5c-.8,0,-1.5,-.7,-1.5,-1.5Z" class="g1_37"/>
<path d="M139,850.8c0,-.8,.7,-1.5,1.5,-1.5c.8,0,1.5,.7,1.5,1.5c0,.8,-.7,1.5,-1.5,1.5c-.8,0,-1.5,-.7,-1.5,-1.5Z" class="g2_37"/>
<path d="M152.7,878.3c0,-.8,.7,-1.5,1.5,-1.5c.9,0,1.6,.7,1.6,1.5c0,.8,-.7,1.5,-1.6,1.5c-.8,0,-1.5,-.7,-1.5,-1.5Z" class="g1_37"/>
<path d="M152.7,878.3c0,-.8,.7,-1.5,1.5,-1.5c.9,0,1.6,.7,1.6,1.5c0,.8,-.7,1.5,-1.6,1.5c-.8,0,-1.5,-.7,-1.5,-1.5Z" class="g2_37"/>
<path d="M166.5,887.5c0,-.9,.7,-1.6,1.5,-1.6c.8,0,1.5,.7,1.5,1.6c0,.8,-.7,1.5,-1.5,1.5c-.8,0,-1.5,-.7,-1.5,-1.5Z" class="g1_37"/>
<path d="M166.5,887.5c0,-.9,.7,-1.6,1.5,-1.6c.8,0,1.5,.7,1.5,1.6c0,.8,-.7,1.5,-1.5,1.5c-.8,0,-1.5,-.7,-1.5,-1.5Z" class="g2_37"/>
<path d="M180.2,892.1c0,-.9,.7,-1.6,1.5,-1.6c.9,0,1.6,.7,1.6,1.6c0,.8,-.7,1.5,-1.6,1.5c-.8,0,-1.5,-.7,-1.5,-1.5Z" class="g1_37"/>
<path d="M180.2,892.1c0,-.9,.7,-1.6,1.5,-1.6c.9,0,1.6,.7,1.6,1.6c0,.8,-.7,1.5,-1.6,1.5c-.8,0,-1.5,-.7,-1.5,-1.5Z" class="g2_37"/>
<path d="M194,894.8c0,-.8,.7,-1.5,1.5,-1.5c.8,0,1.5,.7,1.5,1.5c0,.8,-.7,1.5,-1.5,1.5c-.8,0,-1.5,-.7,-1.5,-1.5Z" class="g1_37"/>
<path d="M194,894.8c0,-.8,.7,-1.5,1.5,-1.5c.8,0,1.5,.7,1.5,1.5c0,.8,-.7,1.5,-1.5,1.5c-.8,0,-1.5,-.7,-1.5,-1.5Z" class="g2_37"/>
<path d="M207.7,896.6c0,-.8,.7,-1.5,1.5,-1.5c.9,0,1.6,.7,1.6,1.5c0,.9,-.7,1.6,-1.6,1.6c-.8,0,-1.5,-.7,-1.5,-1.6Z" class="g1_37"/>
<path d="M207.7,896.6c0,-.8,.7,-1.5,1.5,-1.5c.9,0,1.6,.7,1.6,1.5c0,.9,-.7,1.6,-1.6,1.6c-.8,0,-1.5,-.7,-1.5,-1.6Z" class="g2_37"/>
<path d="M221.5,898c0,-.9,.7,-1.6,1.5,-1.6c.8,0,1.5,.7,1.5,1.6c0,.8,-.7,1.5,-1.5,1.5c-.8,0,-1.5,-.7,-1.5,-1.5Z" class="g1_37"/>
<path d="M221.5,898c0,-.9,.7,-1.6,1.5,-1.6c.8,0,1.5,.7,1.5,1.6c0,.8,-.7,1.5,-1.5,1.5c-.8,0,-1.5,-.7,-1.5,-1.5Z" class="g2_37"/>
<path d="M235.2,898.9c0,-.8,.7,-1.5,1.5,-1.5c.9,0,1.6,.7,1.6,1.5c0,.9,-.7,1.6,-1.6,1.6c-.8,0,-1.5,-.7,-1.5,-1.6Z" class="g1_37"/>
<path d="M235.2,898.9c0,-.8,.7,-1.5,1.5,-1.5c.9,0,1.6,.7,1.6,1.5c0,.9,-.7,1.6,-1.6,1.6c-.8,0,-1.5,-.7,-1.5,-1.6Z" class="g2_37"/>
<path d="M249,899.7c0,-.8,.7,-1.5,1.5,-1.5c.8,0,1.5,.7,1.5,1.5c0,.8,-.7,1.5,-1.5,1.5c-.8,0,-1.5,-.7,-1.5,-1.5Z" class="g1_37"/>
<path d="M249,899.7c0,-.8,.7,-1.5,1.5,-1.5c.8,0,1.5,.7,1.5,1.5c0,.8,-.7,1.5,-1.5,1.5c-.8,0,-1.5,-.7,-1.5,-1.5Z" class="g2_37"/>
<path d="M262.7,900.3c0,-.8,.7,-1.5,1.5,-1.5c.9,0,1.6,.7,1.6,1.5c0,.9,-.7,1.5,-1.6,1.5c-.8,0,-1.5,-.6,-1.5,-1.5Z" class="g1_37"/>
<path d="M262.7,900.3c0,-.8,.7,-1.5,1.5,-1.5c.9,0,1.6,.7,1.6,1.5c0,.9,-.7,1.5,-1.6,1.5c-.8,0,-1.5,-.6,-1.5,-1.5Z" class="g2_37"/>
<path d="M276.5,900.8c0,-.8,.7,-1.5,1.5,-1.5c.8,0,1.5,.7,1.5,1.5c0,.8,-.7,1.5,-1.5,1.5c-.8,0,-1.5,-.7,-1.5,-1.5Z" class="g1_37"/>
<path d="M276.5,900.8c0,-.8,.7,-1.5,1.5,-1.5c.8,0,1.5,.7,1.5,1.5c0,.8,-.7,1.5,-1.5,1.5c-.8,0,-1.5,-.7,-1.5,-1.5Z" class="g2_37"/>
<path d="M290.2,901.2c0,-.8,.7,-1.5,1.5,-1.5c.9,0,1.6,.7,1.6,1.5c0,.9,-.7,1.5,-1.6,1.5c-.8,0,-1.5,-.6,-1.5,-1.5Z" class="g1_37"/>
<path d="M290.2,901.2c0,-.8,.7,-1.5,1.5,-1.5c.9,0,1.6,.7,1.6,1.5c0,.9,-.7,1.5,-1.6,1.5c-.8,0,-1.5,-.6,-1.5,-1.5Z" class="g2_37"/>
<path d="M132.5,772.5v6.1m-.4,-6.1v6.1m-.4,-6.1v6.1m-.4,-6.1v6.1m-.4,-6.1v6.1m-.3,-6.1v6.1m-.4,-6.1v6.1m-.4,-6.1v6.1m-.4,-6.1v6.1m-.4,-6.1v6.1m-.3,-6.1v6.1m-.4,-6.1v6.1m-.4,-6.1v6.1m-.4,-6.1v6.1m-.4,-6.1v6.1m5.8,-6.1v6.1m.2,-6.1v6.1m.2,-6.1v6.1m.3,-6.1v6.1m.3,-6.1v6.1m.3,-6.1v6.1m.8,-6.1v6.1m.4,-6.1v6.1m.5,-6.1v6.1m.5,-6.1v6.1m.7,-6.1v6.1m.6,-6.1v6.1m.8,-6.1v6.1m.9,-6.1v6.1m1.1,-6.1v6.1m1.2,-6.1v6.1m1.5,-6.1v6.1m4.2,-6.1v6.1m-2.3,-6.1v6.1m5.2,-6.1v6.1m3.9,-6.1v6.1m5.5,-6.1v6.1m8.3,-6.1v6.1m13.7,-6.1v6.1m27.5,-6.1v6.1m82.5,-6.1v6.1m-165,-6.1v6.1" class="g9_37"/>
<path d="M108.5,775.5H305.6" class="g5_37"/>
</svg>