<?xml version="1.0" encoding="UTF-8" standalone="no"?>
<!DOCTYPE svg PUBLIC "-//W3C//DTD SVG 1.1//EN"
"http://www.w3.org/Graphics/SVG/1.1/DTD/svg11.dtd">
<svg viewBox="0 0 931 1096" version="1.1" xmlns="http://www.w3.org/2000/svg" xmlns:xlink="http://www.w3.org/1999/xlink">
<defs>
<clipPath id="c0_150"><path d="M692.2,333.2V307.8h39.4v25.4Z"/></clipPath>
<clipPath id="c1_150"><path d="M430.5,769.8V727.5H680.3v42.3Z"/></clipPath>
<style type="text/css"><![CDATA[
.g0_150{
fill: none;
stroke: #241F1F;
stroke-width: 0.611;
stroke-miterlimit: 10;
}
.g1_150{
fill: none;
stroke: #241F1F;
stroke-width: 0.763;
stroke-miterlimit: 10;
}
.g2_150{
fill: none;
stroke: #241F1F;
stroke-width: 0.534;
stroke-miterlimit: 10;
}
.g3_150{
fill: none;
stroke: #241F1F;
stroke-width: 0.687;
stroke-miterlimit: 10;
}
.g4_150{
fill: #FFF;
}
.g5_150{
fill: none;
stroke: #00AEEF;
stroke-width: 0.763;
}
.g6_150{
fill: none;
stroke: #00AEEF;
stroke-width: 1.145;
}
.g7_150{
fill: #CFEDFC;
}
.g8_150{
fill: none;
stroke: #00AEEF;
stroke-width: 0.916;
stroke-linejoin: round;
}
.g9_150{
fill: none;
stroke: #241F1F;
stroke-width: 0.611;
stroke-miterlimit: 3;
}
.ga_150{
fill: #241F1F;
}
.gb_150{
fill: none;
stroke: #241F1F;
stroke-width: 0.505;
stroke-miterlimit: 3;
}
.gc_150{
fill: #EE008C;
}
.gd_150{
fill: none;
stroke: #EE008C;
stroke-width: 0.763;
stroke-miterlimit: 3;
}
.ge_150{
fill: none;
stroke: #241F1F;
stroke-width: 0.381;
stroke-miterlimit: 3;
}
.gf_150{
fill: none;
stroke: #241F1F;
stroke-width: 0.687;
stroke-miterlimit: 3;
}
.gg_150{
fill: #00AEEF;
}
.gh_150{
fill: #D5D4D5;
}
.gi_150{
fill: #ABC6D3;
}
.gj_150{
fill: #0092C9;
}
]]></style>
</defs>
<path d="M397.5,132.7h6.8" class="g0_150"/>
<path d="M426.2,138.2h13.9m-13.9,84H441" class="g1_150"/>
<path d="M397.5,267.2h6.8" class="g0_150"/>
<path d="M426.2,272.6h13.9" class="g1_150"/>
<path d="M471.6,272.5H477m85.5,0h5.3M426.1,318.3h5.4m151.8,0h5.3m36.4,0h5.4" class="g2_150"/>
<path clip-path="url(#c0_150)" d="M718.6,319h13.3" class="g3_150"/>
<path d="M387.8,365.7h6.9m49.2,0h5.4" class="g2_150"/>
<path d="M526.8,433.7h6.7m7.7,0h6.7" class="g0_150"/>
<path d="M407.6,468.9c0,0,-3.1,0,-3.1,3.1V575.1c0,0,0,3.1,3.1,3.1H703.2c0,0,3,0,3,-3.1V472c0,0,0,-3.1,-3,-3.1Z" class="g4_150"/>
<path d="M451.8,493.7h6.7" class="g0_150"/>
<path d="M480.5,499.2h13.8" class="g1_150"/>
<path d="M451.8,542.6h6.7" class="g0_150"/>
<path d="M480.5,548.1h13.8" class="g1_150"/>
<path d="M515.1,547.9h5.4" class="g2_150"/>
<path d="M407.6,468.9c0,0,-3.1,0,-3.1,3.1V575.1c0,0,0,3.1,3.1,3.1H703.2c0,0,3,0,3,-3.1V472c0,0,0,-3.1,-3,-3.1H407.6Z" class="g5_150"/>
<path d="M304.6,492.3c0,0,-1.5,0,-1.5,1.5V508c0,0,0,1.5,1.5,1.5h14.1c0,0,1.6,0,1.6,-1.5V493.8c0,0,0,-1.5,-1.6,-1.5H304.6Z" class="g6_150"/>
<path d="M573.1,749.3h18.2m21.9,0h18.2" class="g1_150"/>
<path clip-path="url(#c1_150)" d="M668.4,749.3h12.3" class="g1_150"/>
<path d="M381.3,808H388" class="g0_150"/>
<path d="M410,813.4h13.9m153.6,0h12.2" class="g1_150"/>
<path d="M580.6,824H586" class="g2_150"/>
<path d="M556.8,871.5h17.5m21.9,0h17.4m37.1,0h12.2" class="g1_150"/>
<path d="M381.3,922.6H388" class="g0_150"/>
<path d="M410,928h13.9" class="g1_150"/>
<path d="M444.6,927.9H450" class="g2_150"/>
<path d="M610.6,928h12.2" class="g1_150"/>
<path d="M613.7,938.6h5.4m24.5,-10.7H649" class="g2_150"/>
<path d="M428.2,984.6h17.4m21.9,0h17.4m37.1,0h12.2" class="g1_150"/>
<path d="M388.1,1031.8H395m8.7,0h5.4" class="g2_150"/>
<path d="M185.7,302.4c-14.1,-14.1,-48.2,-55,-86.4,-55v55Z" class="g7_150"/>
<path d="M225,339.1C207.6,326.4,193.6,310.3,185.7,302.4c-14.1,-14.1,-48.1,-55,-86.4,-55c-12.9,0,-25.5,4.7,-36.9,11.5" class="g8_150"/>
<path d="M53.5,302.4H255.2" class="g9_150"/>
<path fill-rule="evenodd" d="M255.2,302.4L253.5,300l6.5,2.4l-6.5,2.5Z" class="ga_150"/>
<path d="M99.3,339.1V219.9" class="g9_150"/>
<path fill-rule="evenodd" d="M99.3,219.9l-2.4,1.7L99.3,215l2.5,6.6Z" class="ga_150"/>
<path d="M210,263.8h7.2m-42.2,0h7.2" class="gb_150"/>
<path d="M128.5,280.9c0,-1,.8,-1.8,1.8,-1.8c.9,0,1.7,.8,1.7,1.8c0,.9,-.8,1.7,-1.7,1.7c-1,0,-1.8,-.8,-1.8,-1.7Z" class="gc_150"/>
<path d="M128.5,280.9c0,-1,.8,-1.8,1.8,-1.8c.9,0,1.7,.8,1.7,1.8c0,.9,-.8,1.7,-1.7,1.7c-1,0,-1.8,-.8,-1.8,-1.7Z" class="gd_150"/>
<path d="M165,269.6l-27.5,9.1" class="ge_150"/>
<path d="M134.4,279.8l3.6,-3l-.5,1.9L139,280Z" class="ga_150"/>
<path d="M176.4,312h7.3" class="gb_150"/>
<path fill-rule="evenodd" d="M99.6,785.1l82.5,-82.5c-21.3,43.9,-49,82.5,-82.5,82.5Z" class="g7_150"/>
<path d="M53.8,760.3c13.8,15.2,29.1,24.8,45.8,24.8c38.7,0,69.6,-51.5,92,-103.1" class="g8_150"/>
<path d="M53.8,785.1h165" class="g9_150"/>
<path fill-rule="evenodd" d="M218.8,785.1l-1.7,-2.4l6.6,2.4l-6.6,2.5Z" class="ga_150"/>
<path d="M99.6,812.6V684.3" class="g9_150"/>
<path fill-rule="evenodd" d="M99.6,684.3l-2.4,1.6l2.4,-6.5l2.5,6.5Z" class="ga_150"/>
<path d="M194.9,745.4h5.8m-20.2,0h5.8" class="gb_150"/>
<path d="M81.3,803.5L202.7,682" class="g8_150"/>
<path d="M172.2,746.6l-24.3,4" class="ge_150"/>
<path d="M144.7,751.1l4,-2.3l-.8,1.8l1.3,1.4Z" class="ga_150"/>
<path d="M97.9,785.1c0,-.9,.8,-1.7,1.7,-1.7c1,0,1.7,.8,1.7,1.7c0,1,-.7,1.8,-1.7,1.8c-.9,0,-1.7,-.8,-1.7,-1.8Z" class="ga_150"/>
<path d="M97.9,785.1c0,-.9,.8,-1.7,1.7,-1.7c1,0,1.7,.8,1.7,1.7c0,1,-.7,1.8,-1.7,1.8c-.9,0,-1.7,-.8,-1.7,-1.8Z" class="gf_150"/>
<path d="M180.4,702.6c0,-.9,.8,-1.7,1.7,-1.7c1,0,1.7,.8,1.7,1.7c0,1,-.7,1.8,-1.7,1.8c-.9,0,-1.7,-.8,-1.7,-1.8Z" class="ga_150"/>
<path d="M180.4,702.6c0,-.9,.8,-1.7,1.7,-1.7c1,0,1.7,.8,1.7,1.7c0,1,-.7,1.8,-1.7,1.8c-.9,0,-1.7,-.8,-1.7,-1.8Z" class="gf_150"/>
<path d="M139.3,752.2c0,-.9,.7,-1.6,1.5,-1.6c.9,0,1.6,.7,1.6,1.6c0,.8,-.7,1.5,-1.6,1.5c-.8,0,-1.5,-.7,-1.5,-1.5Z" class="gc_150"/>
<path d="M139.3,752.2c0,-.9,.7,-1.6,1.5,-1.6c.9,0,1.6,.7,1.6,1.6c0,.8,-.7,1.5,-1.6,1.5c-.8,0,-1.5,-.7,-1.5,-1.5Z" class="gd_150"/>
<path d="M160.9,771c-4.8,-.6,-9.3,-2.7,-13.5,-6.5" class="ge_150"/>
<path d="M144.9,762.3l4.3,1.7l-1.8,.5l-.4,1.9Z" class="ga_150"/>
<path d="M137.6,718.7c4.5,1.7,8.5,4.7,11.7,9.4" class="ge_150"/>
<path d="M151.3,730.8l-3.9,-2.6l1.9,-.1l.8,-1.8Z" class="ga_150"/>
<path d="M151.3,539.2h12.2v-55H151.3v55Z" class="g7_150"/>
<path d="M151.3,484.2v.5H163v54.1H151.7V484.2h-.4v.5v-.5h-.5v55.5h13.1V483.8H150.8v.4Z" class="gg_150"/>
<path d="M176.4,541.3c-5.5,0,-11.1,-.6,-16.5,-1.6h4V483.8h-5.2c11.6,-5.9,22.6,-11,34.7,-11c9.9,0,20.6,3.5,32.7,13v36.6c-12.4,12.6,-30.7,18.9,-49.7,18.9m-25.6,-3.8c-12.4,-3.8,-24,-10.4,-33.1,-19.7V499.5c12.3,-1.9,23,-6.7,33.1,-11.7v49.7Z" class="gh_150"/>
<path d="M163,538.8h-7.4c-1.3,-.3,-2.6,-.7,-3.9,-1.1V487.3c1.8,-.9,3.5,-1.7,5.2,-2.6H163v54.1Z" class="gi_150"/>
<path d="M163.9,539.7h-4c-.8,-.2,-1.5,-.3,-2.3,-.5h5.9v-55h-5.7c.3,-.1,.6,-.3,.9,-.4h5.2v55.9m-12.6,-2.1c-.2,-.1,-.3,-.1,-.5,-.1V487.8c.2,-.1,.3,-.2,.5,-.3v50.1Z" class="gj_150"/>
<path d="M163.5,539.2h-5.9c-.7,-.1,-1.3,-.3,-2,-.4H163V484.7h-6.1c.3,-.2,.6,-.3,.9,-.5h5.7v55m-11.8,-1.5c-.1,0,-.3,-.1,-.4,-.1V487.5c.1,0,.3,-.1,.4,-.2v50.4Z" class="gj_150"/>
<path d="M151.3,484.2v.5H163v54.1H151.7V484.2h-.4v.5v-.5h-.5v55.5h13.1V483.8H150.8v.4Z" class="gg_150"/>
<path d="M153.7,569.2h6v-.5h-6v.5Z" class="ga_150"/>
<path d="M53.5,559.4H259.7v-.6H53.5v.6Z" class="ga_150"/>
<path fill-rule="evenodd" d="M259.7,559.1l-1.6,-2.5l6.5,2.5l-6.5,2.4Z" class="ga_150"/>
<path d="M76.1,582h.6V444.5h-.6V582Z" class="ga_150"/>
<path fill-rule="evenodd" d="M76.4,444.5L74,446.1l2.4,-6.5l2.4,6.5Z" class="ga_150"/>
<path d="M226.4,556h-.6v6.1h.6Zm-68.7,0h-.6v6.1h.6ZM118,556h-.7v6.1h.7Z" class="ga_150"/>
<path d="M117.7,499.5h-.4V518l.1,.1c15.4,15.6,37.6,23.5,59,23.5c19,0,37.5,-6.2,50,-18.9l.1,-.1v-37l-.1,-.1c-12.3,-9.5,-23,-13.1,-33,-13.1c-12.6,0,-24.1,5.6,-36.2,11.7c-12,6.1,-24.7,12.7,-39.6,15l-.3,.1v.3h.4v.4c15.1,-2.3,27.8,-9,39.9,-15.1c12,-6.1,23.4,-11.6,35.8,-11.6c9.8,0,20.4,3.5,32.5,12.9l.2,-.3h-.4v36.6h.4l-.2,-.2c-12.4,12.5,-30.6,18.7,-49.5,18.7c-21.2,0,-43.2,-7.9,-58.5,-23.3l-.2,.2h.3V499.5h-.3v.4Z" class="ga_150"/>
<path d="M155.6,511.7c0,-.9,.8,-1.7,1.8,-1.7c.9,0,1.7,.8,1.7,1.7c0,1,-.8,1.8,-1.7,1.8c-1,0,-1.8,-.8,-1.8,-1.8Z" class="gg_150"/>
<path d="M155.6,511.7h.4c0,-.7,.6,-1.3,1.4,-1.3c.7,0,1.3,.6,1.3,1.3c0,.8,-.6,1.4,-1.3,1.4c-.8,0,-1.4,-.6,-1.4,-1.4h-.7c0,1.2,.9,2.1,2.1,2.1c1.1,0,2.1,-.9,2.1,-2.1c0,-1.1,-1,-2.1,-2.1,-2.1c-1.2,0,-2.1,1,-2.1,2.1Z" class="gg_150"/>
<path d="M164.4,461.5l-6.1,42.2h.4l6.1,-42.2Z" class="ga_150"/>
<path d="M158.1,507L157,502.5l1.5,1.2l1.8,-.8Z" class="ga_150"/>
<path d="M126.9,486.1l4.7,5.5l.3,-.2l-4.7,-5.6Z" class="ga_150"/>
<path d="M134,494l-4.1,-2.2l1.9,-.3l.6,-1.9Z" class="ga_150"/>
<path d="M127.9,540.3l5.5,-5.1l-.2,-.3l-5.6,5.2Z" class="ga_150"/>
<path d="M135.7,532.8l-2,4.2l-.4,-2l-1.9,-.5Z" class="ga_150"/>
<path d="M173.3,449.9h5.8v-.5h-5.8v.5Z" class="ga_150"/>
<path d="M233.2,444.4h6v-.5h-6Zm-36.3,0h6v-.5h-6Zm-38.1,0h6v-.5h-6Z" class="ga_150"/>
</svg>