<?xml version="1.0" encoding="UTF-8" standalone="no"?>
<!DOCTYPE svg PUBLIC "-//W3C//DTD SVG 1.1//EN"
"http://www.w3.org/Graphics/SVG/1.1/DTD/svg11.dtd">
<svg viewBox="0 0 907 1045" version="1.1" xmlns="http://www.w3.org/2000/svg" xmlns:xlink="http://www.w3.org/1999/xlink">
<defs>
<clipPath id="c0_378"><path d="M560.2,519.4V413.8H695.1V519.4Z"/></clipPath>
<clipPath id="c1_378"><path d="M173.2,574.2V427.6H308.1V574.2Z"/></clipPath>
<clipPath id="c2_378"><path d="M298.9,383.7V237H433.8V383.7Z"/></clipPath>
<clipPath id="c3_378"><path d="M454.1,396.2V263.1H589V396.2Z"/></clipPath>
<clipPath id="c4_378"><path d="M596.5,331.8V229.2H731.4V331.8Z"/></clipPath>
<clipPath id="c5_378"><path d="M363.6,554.1V439.7H498.5V554.1Z"/></clipPath>
<clipPath id="c6_378"><path d="M156.5,395.5V262.1H291.4V395.5Z"/></clipPath>
<clipPath id="c7_378"><path d="M641.2,608.9v-80H750.3v80Z"/></clipPath>
<clipPath id="c8_378"><path d="M634.5,864.5v-8.2h1.1V782.4H769.5v82.1Z"/></clipPath>
<clipPath id="c9_378"><path d="M150.6,929.3V765.4H285.5V929.3Z"/></clipPath>
<clipPath id="ca_378"><path d="M500.7,856.3V762.5H635.6v19.9h-1.1v73.9Z"/></clipPath>
<clipPath id="cb_378"><path d="M634.5,856.3V782.4h1.1v73.9Z"/></clipPath>
<clipPath id="cc_378"><path d="M356.2,872V789.8H491.1V872Z"/></clipPath>
<clipPath id="cd_378"><path d="M-2.6,1047.7V-2.6H910.2V1047.7Z"/></clipPath>
<style type="text/css"><![CDATA[
.g0_378{
fill: none;
stroke: #000000;
stroke-width: 1.527;
stroke-linecap: butt;
stroke-linejoin: miter;
stroke-miterlimit: 4;
}
.g1_378{
fill: #FFFFFF;
}
.g2_378{
fill: none;
stroke: #000000;
stroke-width: 0.492;
stroke-linecap: butt;
stroke-linejoin: miter;
stroke-miterlimit: 4;
}
.g3_378{
fill: none;
stroke: #000000;
stroke-width: 0.656;
stroke-linecap: butt;
stroke-linejoin: miter;
stroke-miterlimit: 4;
}
.g4_378{
fill: none;
stroke: #FFFFFF;
stroke-width: 1.527;
stroke-linecap: butt;
stroke-linejoin: miter;
stroke-miterlimit: 4;
}
.g5_378{
fill: none;
stroke: #5A5A5A;
stroke-width: 1.527;
stroke-linecap: butt;
stroke-linejoin: miter;
stroke-miterlimit: 4;
}
.g6_378{
fill: none;
stroke: #FFFFFF;
stroke-width: 1.909;
stroke-linecap: butt;
stroke-linejoin: miter;
}
.g7_378{
fill: none;
stroke: #000000;
stroke-width: 0.381;
stroke-linecap: butt;
stroke-linejoin: miter;
}
]]></style>
</defs>
<path d="M96,129.4V673H792.8V129.4H96Z" class="g0_378"/>
<image clip-path="url(#c0_378)" preserveAspectRatio="none" x="560" y="413" width="135" height="107" xlink:href="img/1.jpg"/>
<path d="M566,419.6v85.6H680.8V419.6H566Z" class="g1_378"/>
<path d="M566,419.6v85.6H680.8V419.6H566Z" class="g2_378"/>
<path d="M565.9,436.1h116" class="g3_378"/>
<image clip-path="url(#c1_378)" preserveAspectRatio="none" x="173" y="427" width="135" height="148" xlink:href="img/2.jpg"/>
<path d="M179,433.4V559.3H293.8V433.4H179Z" class="g1_378"/>
<path d="M179,433.4V559.3H293.8V433.4H179Z" class="g2_378"/>
<path d="M179,449.9H294.9" class="g3_378"/>
<image clip-path="url(#c2_378)" preserveAspectRatio="none" x="299" y="237" width="135" height="147" xlink:href="img/3.jpg"/>
<path d="M304.7,242.8V368.7H419.5V242.8H304.7Z" class="g1_378"/>
<path d="M304.7,242.8V368.7H419.5V242.8H304.7Z" class="g2_378"/>
<path d="M304.7,259.4H420.6" class="g3_378"/>
<image clip-path="url(#c3_378)" preserveAspectRatio="none" x="454" y="263" width="135" height="134" xlink:href="img/4.jpg"/>
<path d="M459.9,268.9V381.4H574.7V268.9H459.9Z" class="g1_378"/>
<path d="M459.9,268.9V381.4H574.7V268.9H459.9Z" class="g2_378"/>
<path d="M459.8,285.4h116" class="g3_378"/>
<image clip-path="url(#c4_378)" preserveAspectRatio="none" x="596" y="229" width="136" height="103" xlink:href="img/5.jpg"/>
<path d="M602.3,235v82.6H717.1V235H602.3Z" class="g1_378"/>
<path d="M602.3,235v82.6H717.1V235H602.3Z" class="g2_378"/>
<path d="M602.3,251.5H718.2" class="g3_378"/>
<image clip-path="url(#c5_378)" preserveAspectRatio="none" x="363" y="439" width="136" height="116" xlink:href="img/6.jpg"/>
<path d="M369.4,445.5v93.8H484.2V445.5H369.4Z" class="g1_378"/>
<path d="M369.4,445.5v93.8H484.2V445.5H369.4Z" class="g2_378"/>
<path d="M369.3,462.1h116" class="g3_378"/>
<image clip-path="url(#c6_378)" preserveAspectRatio="none" x="156" y="262" width="136" height="134" xlink:href="img/7.jpg"/>
<path d="M162.3,267.8V380.5H277.1V267.8H162.3Z" class="g1_378"/>
<path d="M162.3,267.8V380.5H277.1V267.8H162.3Z" class="g2_378"/>
<path d="M162.3,284.4H278.2" class="g3_378"/>
<path d="M90.7,109.8v57.4H294.3V109.8H90.7Z" class="g1_378"/>
<path d="M90.7,109.8v57.4H294.3V109.8H90.7Z" class="g4_378"/>
<image clip-path="url(#c7_378)" preserveAspectRatio="none" x="641" y="529" width="110" height="80" xlink:href="img/8.jpg"/>
<path d="M96.8,716.7V952.6H793.6V716.7H96.8Z" class="g0_378"/>
<image clip-path="url(#c8_378)" preserveAspectRatio="none" x="634" y="782" width="136" height="83" xlink:href="img/9.jpg"/>
<path d="M640.3,788.2v61.9H755.1V788.2H640.3Z" class="g1_378"/>
<path d="M640.3,788.2v61.9H755.1V788.2H640.3Z" class="g2_378"/>
<path d="M640.3,804.7H756.2" class="g3_378"/>
<path d="M91.5,697.1v57.4H295.2V697.1H91.5Z" class="g1_378"/>
<path d="M91.5,697.1v57.4H295.2V697.1H91.5Z" class="g4_378"/>
<image clip-path="url(#c9_378)" preserveAspectRatio="none" x="150" y="765" width="136" height="165" xlink:href="img/10.jpg"/>
<path d="M156.4,771.2V914.6H271.2V771.2H156.4Z" class="g1_378"/>
<path d="M156.4,771.2V914.6H271.2V771.2H156.4Z" class="g2_378"/>
<path d="M156.4,787.7H272.3" class="g3_378"/>
<image clip-path="url(#ca_378)" preserveAspectRatio="none" x="500" y="762" width="136" height="95" xlink:href="img/11.jpg"/>
<image clip-path="url(#cb_378)" preserveAspectRatio="none" x="634" y="782" width="2" height="75" xlink:href="img/12.jpg"/>
<path d="M506.5,768.3v73.4H621.3V768.3H506.5Z" class="g1_378"/>
<path d="M506.5,768.3v73.4H621.3V768.3H506.5Z" class="g2_378"/>
<path d="M506.5,784.8H622.4" class="g3_378"/>
<image clip-path="url(#cc_378)" preserveAspectRatio="none" x="356" y="789" width="135" height="83" xlink:href="img/13.jpg"/>
<path d="M362,795.6v61.6H476.8V795.6H362Z" class="g1_378"/>
<path d="M362,795.6v61.6H476.8V795.6H362Z" class="g2_378"/>
<path d="M361.9,812.1h116" class="g3_378"/>
<path d="M317.3,773V905.5" class="g5_378"/>
<g clip-path="url(#cd_378)">
<path d="M-4.5,13.7H-27.4m939.5,0H935M-4.5,1031.2H-27.4m939.5,0H935M13.7,-4.5V-27.4m0,1077v22.9m880,-1077V-27.4m0,1077v22.9" class="g6_378"/>
<path d="M-4.5,13.7H-27.4m939.5,0H935M-4.5,1031.2H-27.4m939.5,0H935M13.7,-4.5V-27.4m0,1077v22.9m880,-1077V-27.4m0,1077v22.9" class="g7_378"/>
</g>
</svg>