<?xml version="1.0" encoding="UTF-8" standalone="no"?>
<!DOCTYPE svg PUBLIC "-//W3C//DTD SVG 1.1//EN"
"http://www.w3.org/Graphics/SVG/1.1/DTD/svg11.dtd">
<svg viewBox="0 0 811 1017" version="1.1" xmlns="http://www.w3.org/2000/svg" xmlns:xlink="http://www.w3.org/1999/xlink">
<defs>
<style type="text/css"><![CDATA[
.g0_82{
fill: #70A6CC;
}
.g1_82{
}
]]></style>
</defs>
<path d="M142.4,100.7H710.7V79.4H142.4Z" class="g0_82"/>
<path d="M142.4,865.2H710.7V844H142.4Z" class="g0_82"/>
<path d="M520.5,193.2v3.2h-.3l-6.3,-3l-.4,-.2l.4,-.2l6.3,-2.9l.3,-.1v.3l-.1,.2l-6.3,2.9l-.2,-.4h.2l6.3,3l-.2,.4l-.1,-.2v-3Z" class="g1_82"/>
<path d="M520.1,193.2h.4v-2.9h-.4Z" class="g1_82"/>
<path d="M539.7,219.6h.4V193h-.4Z" class="g1_82"/>
<path d="M520.5,193.4h19.4V193H520.5Z" class="g1_82"/>
<path d="M513.6,425.5v3.2l-.3,-.1L507,425.7l-.4,-.2l.4,-.2l6.3,-2.9l.3,-.1v.3l-.1,.2l-6.3,2.9l-.2,-.4h.2l6.3,3l-.2,.3l-.1,-.1v-3Z" class="g1_82"/>
<path d="M513.2,425.5h.4v-2.9h-.4Z" class="g1_82"/>
<path d="M532.9,451.8h.3V425.3h-.3Z" class="g1_82"/>
<path d="M513.6,425.7H533v-.4H513.6Z" class="g1_82"/>
</svg>