<?xml version="1.0" encoding="UTF-8" standalone="no"?>
<!DOCTYPE svg PUBLIC "-//W3C//DTD SVG 1.1//EN"
"http://www.w3.org/Graphics/SVG/1.1/DTD/svg11.dtd">
<svg viewBox="0 0 931 1096" version="1.1" xmlns="http://www.w3.org/2000/svg" xmlns:xlink="http://www.w3.org/1999/xlink">
<defs>
<clipPath id="c0_31"><path d="M106,132.4V95.7H880.6v36.7Z"/></clipPath>
<clipPath id="c1_31"><path d="M626.6,290V260.2h96.6V290Z"/></clipPath>
<clipPath id="c2_31"><path d="M393.2,349.7V321H505.1v28.7Z"/></clipPath>
<clipPath id="c3_31"><path d="M575.8,349.7V317.1h84.9v32.6Z"/></clipPath>
<clipPath id="c4_31"><path d="M721.7,342.5V326.8H877.3v15.7Z"/></clipPath>
<clipPath id="c5_31"><path d="M552.1,468V452h46.6v16Z"/></clipPath>
<clipPath id="c6_31"><path d="M721.7,468V452h54.9v16Z"/></clipPath>
<style type="text/css"><![CDATA[
.g0_31{
fill: none;
stroke: #241F1F;
stroke-width: 0.687;
stroke-miterlimit: 10;
}
.g1_31{
fill: none;
stroke: #EE008C;
stroke-width: 1.069;
stroke-linejoin: round;
}
.g2_31{
fill: none;
stroke: #241F1F;
stroke-width: 0.611;
stroke-miterlimit: 3;
}
.g3_31{
fill: #241F1F;
}
.g4_31{
fill: none;
stroke: #241F1F;
stroke-width: 0.381;
stroke-miterlimit: 3;
}
.g5_31{
fill: #FFF;
}
.g6_31{
fill: none;
stroke: #FFF;
stroke-width: 1.527;
}
.g7_31{
fill: none;
stroke: #00AEEF;
stroke-width: 0.763;
stroke-miterlimit: 10;
}
.g8_31{
fill: none;
stroke: #241F1F;
stroke-width: 0.533;
stroke-linecap: round;
stroke-linejoin: round;
}
.g9_31{
fill: none;
stroke: #241F1F;
stroke-width: 0.991;
stroke-linecap: round;
stroke-linejoin: round;
}
.ga_31{
fill: none;
stroke: #241F1F;
stroke-width: 0.533;
stroke-linecap: round;
stroke-linejoin: round;
stroke-dasharray: 7,4;
}
.gb_31{
fill: none;
stroke: #241F1F;
stroke-width: 0.991;
stroke-linecap: square;
stroke-miterlimit: 10;
}
]]></style>
</defs>
<image clip-path="url(#c0_31)" preserveAspectRatio="none" x="106" y="96" width="774" height="37" xlink:href="img/1.png"/>
<path clip-path="url(#c1_31)" d="M628.9,275.8h94.6" class="g0_31"/>
<path clip-path="url(#c2_31)" d="M437.3,335.4h68.1" class="g0_31"/>
<path clip-path="url(#c3_31)" d="M640.8,317.5H649m-30.3,17.9H661" class="g0_31"/>
<path clip-path="url(#c4_31)" d="M774.7,327.1h34.8m29.8,0h38.4" class="g0_31"/>
<path clip-path="url(#c5_31)" d="M588.7,452.4H599" class="g0_31"/>
<path clip-path="url(#c6_31)" d="M766.7,452.4H777" class="g0_31"/>
<path d="M128,193c1.6,15.2,15.4,73.3,36.7,73.3c21.4,0,28.1,-60.7,36.6,-73.3c5,-7.4,14.3,-18.4,36.8,-18.4" class="g1_31"/>
<path d="M109.7,229.6H251.4" class="g2_31"/>
<path fill-rule="evenodd" d="M251.4,229.6l-1.7,-2.4l6.6,2.4l-6.6,2.5Z" class="g3_31"/>
<path d="M183,284.6V161.3" class="g2_31"/>
<path fill-rule="evenodd" d="M183,161.3l-2.4,1.6l2.4,-6.5l2.4,6.5Z" class="g3_31"/>
<path d="M128,284.6V156.3m-18.3,110H256.3M109.7,174.6H256.3M109.7,193H256.3M109.7,211.3H256.3M238,284.6V156.3M219.7,284.6V156.3M201.3,284.6V156.3M164.7,284.6V156.3M146.3,284.6V156.3M109.7,248H256.3M109.7,156.3H256.3V284.6H109.7Z" class="g4_31"/>
<path d="M171.6,218.5h9.2V204.8h-9.2v13.7Z" class="g5_31"/>
<path d="M194.7,245.7h13.7V231.9H194.7v13.8Z" class="g5_31"/>
<path d="M260.7,156.7V285" class="g6_31"/>
<path d="M108.9,682.9h770" class="g7_31"/>
<path d="M524.4,1036.2H878.6V701.1H524.4v335.1Z" class="g5_31"/>
<path d="M529.5,757.3H621" class="g8_31"/>
<path fill-rule="evenodd" d="M621,757.3l-1.4,-2.1l5.6,2.1l-5.6,2.1Z" class="g3_31"/>
<path d="M575.3,803V711.5" class="g8_31"/>
<path fill-rule="evenodd" d="M575.3,711.5l-2.1,1.5l2.1,-5.6l2,5.6Z" class="g3_31"/>
<path d="M589,759.6V755M577.5,743.6H573" class="g8_31"/>
<path d="M554.5,803c4.6,-33.8,9.7,-45.7,20.8,-45.7c11,0,16.1,-11.9,20.7,-45.7" class="g9_31"/>
<path fill-rule="evenodd" d="M691.2,711.5L689,713l2.2,-5.6l2,5.6Z" class="g3_31"/>
<path d="M656.7,803c4.6,-33.8,9.7,-45.7,20.7,-45.7c11.1,0,16.2,-11.9,20.7,-45.7" class="g9_31"/>
<path d="M645.4,757.3h91.5" class="g8_31"/>
<path fill-rule="evenodd" d="M736.9,757.3l-1.4,-2.1l5.6,2.1l-5.6,2.1Z" class="g3_31"/>
<path d="M691.2,803V711.5m-13.8,48.1V755m16,-11.4h-4.5" class="g8_31"/>
<path fill-rule="evenodd" d="M788.7,711.5l-2.1,1.5l2.1,-5.6l2.1,5.6Z" class="g3_31"/>
<path d="M761.3,766.5h91.5" class="g8_31"/>
<path fill-rule="evenodd" d="M852.8,766.5l-1.4,-2.1l5.6,2.1l-5.6,2Z" class="g3_31"/>
<path d="M788.7,803V711.5" class="g8_31"/>
<path d="M791.7,802.8c3.5,-44.8,9.7,-77.5,24.5,-77.5c6.4,0,10.7,-4,14.2,-13.8" class="g9_31"/>
<path d="M817.7,725.3c0,.8,-.7,1.5,-1.5,1.5c-.9,0,-1.5,-.7,-1.5,-1.5c0,-.9,.6,-1.5,1.5,-1.5c.8,0,1.5,.6,1.5,1.5Z" class="g3_31"/>
<path fill-rule="evenodd" d="M575.3,821.3l-2.1,1.4l2.1,-5.6l2,5.6Z" class="g3_31"/>
<path d="M529.5,867.1H621" class="g8_31"/>
<path fill-rule="evenodd" d="M621,867.1L619.6,865l5.6,2.1l-5.6,2.1Z" class="g3_31"/>
<path d="M575.3,912.8V821.3m1.9,15.3h-3.9" class="g8_31"/>
<path d="M551.6,912.8c4.4,-31.3,12.6,-76.2,23.7,-76.2m23.6,76.2c-4.3,-31.3,-12.6,-76.2,-23.6,-76.2" class="g9_31"/>
<path d="M645.7,867.1h91.5" class="g8_31"/>
<path fill-rule="evenodd" d="M737.2,867.1L735.7,865l5.6,2.1l-5.6,2.1Z" class="g3_31"/>
<path d="M691.4,912.8V821.3" class="g8_31"/>
<path fill-rule="evenodd" d="M691.4,821.3l-2.1,1.4l2.1,-5.6l2.1,5.6Z" class="g3_31"/>
<path d="M705.1,869.4v-4.6" class="g8_31"/>
<path d="M691.4,867.1c0,-12.1,29.2,-19.7,45.8,-25.1" class="g9_31"/>
<path fill-rule="evenodd" d="M807.6,821.3l-2.1,1.4l2.1,-5.6l2,5.6Z" class="g3_31"/>
<path d="M761.8,867.1h91.5" class="g8_31"/>
<path fill-rule="evenodd" d="M853.3,867.1L851.9,865l5.6,2.1l-5.6,2.1Z" class="g3_31"/>
<path d="M807.6,912.8V821.3m13.7,48.1v-4.6" class="g8_31"/>
<path d="M807.6,867.1c0,-18.3,19,-35.5,38.1,-45.8" class="g9_31"/>
<path fill-rule="evenodd" d="M575.3,932.7l-2.1,1.4l2.1,-5.6l2,5.6Z" class="g3_31"/>
<path d="M529.5,978.4H621m-45.7,45.8V932.7m13.7,48v-4.6m-11.5,16H573" class="g8_31"/>
<path d="M529.5,979.9c41.7,0,58.5,18.3,69.6,44.3" class="g9_31"/>
<path fill-rule="evenodd" d="M621,978.4l-1.4,-2.1l5.6,2.1l-5.6,2.1Z" class="g3_31"/>
<path fill-rule="evenodd" d="M691.2,932.7l-2.2,1.4l2.2,-5.6l2,5.6Z" class="g3_31"/>
<path d="M645.4,978.4h91.5" class="g8_31"/>
<path d="M645.4,964.7h91.5" class="ga_31"/>
<path fill-rule="evenodd" d="M736.9,978.4l-1.4,-2.1l5.6,2.1l-5.6,2.1Z" class="g3_31"/>
<path d="M691.2,1024.2V932.7m13.7,48v-4.6" class="g8_31"/>
<path d="M645.5,968.8c36.3,3,38.5,9.3,42.6,55.4m9,-91.5c3.2,18.2,9.8,26.4,39.9,27.8" class="gb_31"/>
</svg>