<?xml version="1.0" encoding="UTF-8" standalone="no"?>
<!DOCTYPE svg PUBLIC "-//W3C//DTD SVG 1.1//EN"
"http://www.w3.org/Graphics/SVG/1.1/DTD/svg11.dtd">
<svg viewBox="0 0 660 990" version="1.1" xmlns="http://www.w3.org/2000/svg" xmlns:xlink="http://www.w3.org/1999/xlink">
<defs>
<clipPath id="c0_150"><path d="M86.9,175.8l-1.2,-2.4l-1.2,-2.3H576.2l-1.1,2.3l-1.2,2.4Z"/></clipPath>
<clipPath id="c1_150"><path d="M577.3,380.4L575,379.3l-2.4,-1.2V174.5l2.4,-1.2l2.3,-1.1V380.4Z"/></clipPath>
<clipPath id="c2_150"><path d="M84.5,381.5l1.2,-2.3l1.2,-2.4h487l1.2,2.4l1.1,2.3Z"/></clipPath>
<clipPath id="c3_150"><path d="M83.5,380.4V172.2l2.3,1.1l2.4,1.2V378.1l-2.4,1.2l-2.3,1.1Z"/></clipPath>
<clipPath id="c4_150"><path d="M86.9,541.9l-1.2,-2.4l-1.2,-2.3H576.2l-1.1,2.3l-1.2,2.4Z"/></clipPath>
<clipPath id="c5_150"><path d="M577.3,738.1L575,736.9l-2.4,-1.2V540.6l2.4,-1.2l2.3,-1.1V738.1Z"/></clipPath>
<clipPath id="c6_150"><path d="M84.5,739.2l1.2,-2.4l1.2,-2.3h487l1.2,2.3l1.1,2.4Z"/></clipPath>
<clipPath id="c7_150"><path d="M83.5,738.1V538.3l2.3,1.1l2.4,1.2V735.7l-2.4,1.2l-2.3,1.2Z"/></clipPath>
<clipPath id="c8_150"><path d="M85.6,915.9v-5.1H574.4v5.1Z"/></clipPath>
<style type="text/css"><![CDATA[
.g0_150{
fill: none;
stroke: #231F20;
stroke-width: 0.381;
stroke-linecap: round;
stroke-linejoin: miter;
}
.g1_150{
fill: none;
stroke: #231F20;
stroke-width: 0.763;
stroke-linecap: round;
stroke-linejoin: miter;
}
]]></style>
</defs>
<path clip-path="url(#c0_150)" d="M85.6,173.4H575.1" class="g0_150"/>
<path clip-path="url(#c1_150)" d="M575,173.3V379.4" class="g0_150"/>
<path clip-path="url(#c2_150)" d="M575.1,379.2H85.6" class="g0_150"/>
<path clip-path="url(#c3_150)" d="M85.8,379.4V173.3" class="g0_150"/>
<path clip-path="url(#c4_150)" d="M85.6,539.5H575.1" class="g0_150"/>
<path clip-path="url(#c5_150)" d="M575,539.3V737" class="g0_150"/>
<path clip-path="url(#c6_150)" d="M575.1,736.8H85.6" class="g0_150"/>
<path clip-path="url(#c7_150)" d="M85.8,737V539.3" class="g0_150"/>
<path clip-path="url(#c8_150)" d="M85.6,913.4H574.4" class="g1_150"/>
<image preserveAspectRatio="none" x="193" y="181" width="275" height="189" xlink:href="img/1.jpg"/>
<image preserveAspectRatio="none" x="240" y="547" width="181" height="181" xlink:href="img/2.jpg"/>
</svg>