<?xml version="1.0" encoding="UTF-8" standalone="no"?>
<!DOCTYPE svg PUBLIC "-//W3C//DTD SVG 1.1//EN"
"http://www.w3.org/Graphics/SVG/1.1/DTD/svg11.dtd">
<svg viewBox="0 0 811 1017" version="1.1" xmlns="http://www.w3.org/2000/svg" xmlns:xlink="http://www.w3.org/1999/xlink">
<defs>
<style type="text/css"><![CDATA[
.g0_208{
fill: #224867;
}
.g1_208{
fill: #000;
}
]]></style>
</defs>
<path d="M101.1,151.3H314.2V103.9H101.1v47.4Z" class="g0_208"/>
<path d="M314.2,151.3H724.4V103.9H314.2v47.4Z" class="g0_208"/>
<path d="M314,854.2h.4V103.5H314V854.2Z" class="g1_208"/>
<path d="M101.1,104.3H724.4v-.8H101.1v.8Z" class="g1_208"/>
<path d="M101.1,151.4H724.4v-.3H101.1v.3Z" class="g1_208"/>
<path d="M101.1,391.5H724.4v-.8H101.1v.8Z" class="g1_208"/>
<path d="M101.1,477.1H724.4v-.8H101.1v.8Z" class="g1_208"/>
<path d="M101.1,562.7H724.4v-.8H101.1v.8Z" class="g1_208"/>
<path d="M101.1,683.3H724.4v-.8H101.1v.8Z" class="g1_208"/>
<path d="M101.1,768.9H724.4v-.8H101.1v.8Z" class="g1_208"/>
<path d="M101.1,854.2H724.4v-.3H101.1v.3Z" class="g1_208"/>
<image preserveAspectRatio="none" x="203" y="990" width="405" height="28" xlink:href="img/1.jpg"/>
</svg>