<?xml version="1.0" encoding="UTF-8" standalone="no"?>
<!DOCTYPE svg PUBLIC "-//W3C//DTD SVG 1.1//EN"
"http://www.w3.org/Graphics/SVG/1.1/DTD/svg11.dtd">
<svg viewBox="0 0 931 1096" version="1.1" xmlns="http://www.w3.org/2000/svg" xmlns:xlink="http://www.w3.org/1999/xlink">
<defs>
<clipPath id="c0_274"><path d="M51.8,766.4V95.5H931.9V766.4Z"/></clipPath>
<clipPath id="c1_274"><path d="M458.4,374.5V345.8h73.3v28.7Z"/></clipPath>
<clipPath id="c2_274"><path d="M559.2,374.6V346.2h93.2v28.4Z"/></clipPath>
<clipPath id="c3_274"><path d="M475.9,488.5V449.6H634.8v38.9Z"/></clipPath>
<clipPath id="c4_274"><path d="M499.7,601.7V560.2H611v41.5Z"/></clipPath>
<clipPath id="c5_274"><path d="M235.6,173.4c-1.2,0,-2.3,-.6,-2.6,-1.7c-.5,-1.5,.6,-3.4,2.5,-4.2c.6,-.3,1.1,-.4,1.7,-.4c1.2,0,2.2,.6,2.6,1.7c.5,1.5,-.6,3.4,-2.5,4.2c-.6,.2,-1.2,.4,-1.7,.4Z"/></clipPath>
<clipPath id="c6_274"><path d="M52,843V809.4H825V843Z"/></clipPath>
<style type="text/css"><![CDATA[
.g0_274{
fill: none;
stroke: #241F1F;
stroke-width: 0.481;
stroke-miterlimit: 10;
}
.g1_274{
fill: none;
stroke: #241F1F;
stroke-width: 0.687;
stroke-miterlimit: 10;
}
.g2_274{
fill: #DFBA8D;
}
.g3_274{
fill: none;
stroke: #B68B61;
stroke-width: 0.381;
stroke-linecap: round;
stroke-linejoin: round;
stroke-dasharray: 6,3,4,3,5,2;
}
.g4_274{
fill: #D4AE81;
}
.g5_274{
fill: #C0936A;
}
.g6_274{
fill: #9E735A;
}
.g7_274{
fill: none;
stroke: #B68B61;
stroke-width: 0.534;
stroke-linejoin: round;
}
.g8_274{
fill: none;
stroke: #D0AA88;
stroke-width: 0.534;
stroke-linejoin: round;
}
.g9_274{
fill: none;
stroke: #B68B61;
stroke-width: 0.381;
stroke-linecap: round;
stroke-linejoin: round;
stroke-dasharray: 6,3,4,3,5,2;
}
.ga_274{
fill: #9E7055;
}
.gb_274{
fill: #D6CACF;
}
.gc_274{
fill: #D5C7CB;
}
.gd_274{
fill: #D2C4C8;
}
.ge_274{
fill: #D1C1C4;
}
.gf_274{
fill: #CFBEC0;
}
.gg_274{
fill: #CCBBBD;
}
.gh_274{
fill: #CBB9B9;
}
.gi_274{
fill: #C9B6B5;
}
.gj_274{
fill: #C8B3B2;
}
.gk_274{
fill: #C6B1AF;
}
.gl_274{
fill: #C5AFAC;
}
.gm_274{
fill: #C4ACA8;
}
.gn_274{
fill: #D8CED3;
}
.go_274{
fill: #DBD1D6;
}
.gp_274{
fill: #DCD4DA;
}
.gq_274{
fill: #DFD7DE;
}
.gr_274{
fill: #E2DAE1;
}
.gs_274{
fill: #E3DEE5;
}
.gt_274{
fill: #E6E1E9;
}
.gu_274{
fill: #E9E5EC;
}
.gv_274{
fill: #ECE9F0;
}
.gw_274{
fill: #EFECF3;
}
.gx_274{
fill: #F3F0F6;
}
.gy_274{
fill: #F6F5F9;
}
.gz_274{
fill: #FAF9FC;
}
.g10_274{
fill: #FFF;
}
.g11_274{
fill: #807E95;
}
.g12_274{
fill: #828097;
}
.g13_274{
fill: #868499;
}
.g14_274{
fill: #89869B;
}
.g15_274{
fill: #8C899D;
}
.g16_274{
fill: #8F8B9F;
}
.g17_274{
fill: #928EA1;
}
.g18_274{
fill: #9491A3;
}
.g19_274{
fill: #9894A5;
}
.g1a_274{
fill: #9B97A8;
}
.g1b_274{
fill: #9C99AA;
}
.g1c_274{
fill: #9F9BAC;
}
.g1d_274{
fill: #A19DAE;
}
.g1e_274{
fill: #A39FB0;
}
.g1f_274{
fill: #A5A2B2;
}
.g1g_274{
fill: #A7A4B5;
}
.g1h_274{
fill: #A9A6B7;
}
.g1i_274{
fill: #ABA8B9;
}
.g1j_274{
fill: #ADABBB;
}
.g1k_274{
fill: #5D637E;
}
.g1l_274{
fill: #60647F;
}
.g1m_274{
fill: #626681;
}
.g1n_274{
fill: #656883;
}
.g1o_274{
fill: #676A85;
}
.g1p_274{
fill: #696D87;
}
.g1q_274{
fill: #6C6E89;
}
.g1r_274{
fill: #6E708B;
}
.g1s_274{
fill: #71728D;
}
.g1t_274{
fill: #727490;
}
.g1u_274{
fill: #757692;
}
.g1v_274{
fill: #777995;
}
.g1w_274{
fill: #7A7B97;
}
.g1x_274{
fill: #7E7E9A;
}
.g1y_274{
fill: #82829C;
}
.g1z_274{
fill: #86859F;
}
.g20_274{
fill: #8A89A1;
}
.g21_274{
fill: #8E8CA3;
}
.g22_274{
fill: #9290A6;
}
.g23_274{
fill: #8D8EB4;
}
.g24_274{
fill: #8B8CB2;
}
.g25_274{
fill: #8B8BB0;
}
.g26_274{
fill: #8A89AD;
}
.g27_274{
fill: #8988AB;
}
.g28_274{
fill: #8886A8;
}
.g29_274{
fill: #8885A6;
}
.g2a_274{
fill: #8784A4;
}
.g2b_274{
fill: #8682A1;
}
.g2c_274{
fill: #85819F;
}
.g2d_274{
fill: #84809D;
}
.g2e_274{
fill: #837E9B;
}
.g2f_274{
fill: #8D90B7;
}
.g2g_274{
fill: #8E91B9;
}
.g2h_274{
fill: #8F93BC;
}
.g2i_274{
fill: #9094BE;
}
.g2j_274{
fill: #9196C1;
}
.g2k_274{
fill: #9298C3;
}
.g2l_274{
fill: #9399C5;
}
.g2m_274{
fill: #949CC8;
}
.g2n_274{
fill: #959DCB;
}
.g2o_274{
fill: #979FCD;
}
.g2p_274{
fill: #98A1CF;
}
.g2q_274{
fill: #9AA4D2;
}
.g2r_274{
fill: none;
stroke: #008048;
stroke-width: 3.055;
stroke-miterlimit: 10;
}
.g2s_274{
fill: none;
stroke: #00AEEF;
stroke-width: 1.145;
}
.g2t_274{
fill: none;
stroke: #241F1F;
stroke-width: 0.763;
stroke-miterlimit: 10;
}
]]></style>
</defs>
<image clip-path="url(#c0_274)" preserveAspectRatio="none" x="52" y="96" width="883" height="670" xlink:href="img/1.png"/>
<path d="M589.6,248.8h4.8M347.8,265.6h4.8M541,308.3h4.8m42.3,0h4.8" class="g0_274"/>
<path clip-path="url(#c1_274)" d="M489.1,360.4H532" class="g1_274"/>
<path clip-path="url(#c2_274)" d="M627.6,360.4h25.1" class="g1_274"/>
<path clip-path="url(#c3_274)" d="M476.2,471.9H494m38.7,0h42.1M532.7,450h42.1m52.1,14.4h8.3" class="g1_274"/>
<path clip-path="url(#c4_274)" d="M546.4,582.7h64.9M546.4,560.8h64.9" class="g1_274"/>
<path d="M395.5,647.5h4.8m-4.8,68.8h4.8m141.6,0h4.8" class="g0_274"/>
<path d="M67.5,229.8L214.4,143.4L262.3,182L115.4,268.4Z" class="g2_274"/>
<path d="M158.5,176.8c6.5,.6,11.1,-4.6,16,-8.6c1.5,-.9,3.3,-.9,5.2,-1.5c.9,-.3,1.2,-1.6,2.1,-1.9c1,-.3,1.9,.3,2.8,0c4.6,-1.8,9.2,-4,13.8,-6.4c1.5,-.9,2.1,-3.4,4,-4c.9,0,1.5,-.6,2.9,-.4c-.2,-.5,-.2,-.2,0,0c1.3,-1.1,3.2,-.8,4.7,-1.7c0,-.3,0,-1,.2,-.8c.4,-.5,1.4,-.2,2.3,-.2c1.2,-.3,2.1,-1.2,3.7,-1c.6,.1,1.2,-.2,1.8,-.8c.3,-.3,.6,0,.9,.4c0,-.4,0,-1,.1,-1.3m37.8,29.2c-.1,.2,-2.3,1.1,-2.4,1c-.1,.3,-4.3,2.7,-4.5,2.9c-4.2,2.7,-6.9,3.6,-11,5.5c-7.4,3.2,-17,8,-23,13.1c-8.3,6.9,-11.2,6.2,-20,12.2c-4.6,2.7,-9.6,2.7,-14.7,4.1c-2.3,.9,-6.4,2.8,-7.3,5.5c-1.4,3.2,-1.4,6.9,-3.7,8.8c-5.5,5,-12.9,5.5,-20.2,7.8c-1.4,.4,-2.8,1.4,-4.6,2.3c-1,.4,-1.9,-.5,-2.8,.4c-1.4,1,-2.3,2.8,-3.7,3.3c-6.9,3.2,-11.9,8.2,-18.4,11c-3.6,1.8,-7.3,4.1,-11,5c-.8,.2,-1.6,.3,-2.3,.6M149,233.2c1.4,.4,2.8,-.9,4.2,-1.9H155c.9,-.4,1.9,-.9,2.3,-1.4c2.3,-.9,5.1,-.4,6.4,-2.7c-1.8,.5,-3.6,0,-5.9,0c-2.8,.9,-3.7,3.7,-6.5,3.7c.5,1.8,-1.8,.9,-2.3,2.3Zm96.3,-64.1c0,-.1,-.1,.1,-.2,.1c.1,.1,-.1,.2,-.1,.3c-.1,.1,-.2,.3,-.3,.4c-.5,.7,-1.1,1.2,-1.9,1.2c-1.4,0,-.9,1.8,-2.3,2.3c-1.8,.5,-4.1,0,-4.6,.9c-4.6,5.1,-9.2,10.6,-15.2,13.8c-.9,.5,0,1.4,-.9,1.8c-5.5,2.4,-9.6,6.5,-14.7,9.7c-3.2,2.3,-6.9,3.2,-10.6,6c-1.8,1.4,-5,1.8,-5.5,5c-5.9,0,-12.4,.5,-17.9,3.3c-5.5,3.2,-11.5,5,-17.5,8.2c-9.2,5.6,-16.1,12.4,-24.8,18.9c-4.6,3.7,-9.6,7.3,-14.7,10.5c-3.2,1.9,-6,2.8,-9.7,3.3c-1.1,.1,-2.1,.9,-3.2,1.5M241.7,165.9c-.5,.1,-.6,.8,-.6,1.2c-.1,.3,-.4,.2,-.6,.3c-1.4,1.4,-3.7,.5,-5.4,1.8c-.1,-.4,-.1,1,-1.4,1.2c-1,-.2,-1.5,.2,-2.6,-.2q.7,.4,.3,.2c-2.8,3.9,-7.9,5.3,-11.6,9c-.9,.9,-.4,1.8,-1.3,2.7c-1.9,2.3,-4.6,2.8,-7.4,4.6c-2.8,1.9,-6.9,2.3,-10.1,4.2c-1.9,.9,-4.2,2.3,-6,3.6c-.9,1,-2.8,1,-3.7,1.4c-3.6,1.9,-6.9,4.6,-10.5,6c-6.5,2.3,-19.3,3.2,-25.3,7.8c-1.4,1.4,-3.7,2.8,-5.1,4.2c-5.5,4.1,-11.5,6.4,-17.9,10.1c-.9,.9,-1.9,2.3,-2.8,2.3c-4.1,1.4,-.9,4.6,-4.6,6.4c-3.6,2.3,-6.9,4.6,-10.1,6.4c-6.4,4.2,-12.9,6.9,-19.3,9.7c-.8,.3,-1.4,1,-2.3,1.3m142.1,-89c-.2,-.1,-.3,.2,-.4,.3c-.1,0,-.2,.3,-.4,.3c-.2,.4,-.7,.6,-1.1,.7c-1.8,.4,-3.2,4.1,-4.6,1.8c-2.3,1.8,-5,2.3,-7.3,4.1c-3.2,3.3,-7.8,3.3,-12,5.1c-.9,.5,-1.4,2.3,-2.3,2.8c-4.6,.9,-7.8,4.1,-11,6.9c-.5,.4,-1.9,0,-2.8,0c-5,2.2,-9.6,6.8,-15.1,7.3c-3.7,5.5,-11.1,6,-17,8.3c-2.4,.9,-3.3,3.2,-5.6,4.1c-5.9,2.8,-11.9,6,-17.9,9.2c-2.3,1.4,-5.1,3.2,-7.8,4.6c-3.7,1.9,-6.4,4.1,-10.1,6.5c-.9,.9,-2.3,1.3,-2.3,3.2c-2.2,-.4,-12,9.3,-12,9.2c-6,1.3,-11,4.1,-15.6,7.8c-.7,.5,-1.7,.7,-2.4,1.4c-.3,.1,-.5,0,-.7,.2M233,158.8c-.2,.1,-.4,.1,-.3,.4c-.3,.1,-.6,.2,-.6,.4c-.2,.3,-.5,.4,-.7,.7c0,.2,-.1,.4,-.3,.7c-.2,.3,-.5,.6,-.8,.6c-.4,0,-1.7,0,-2.6,.5c-1.4,.7,-2.5,2.1,-2.6,2c-4,2.5,-8.1,3.4,-11.8,5.3c-.9,0,-1.9,1.4,-2.8,1.8c-4.1,2.3,-8.7,3.7,-13.3,5.5c-2.8,.9,-5,2.2,-6.8,4.5c-2.7,3.7,-6.5,1.5,-10.7,2.4c-3.2,1,-5,3.2,-7.3,5.1c-1,.5,-1.9,.5,-2.8,.9c-6,6,-14.7,7.8,-22.1,12c-.9,.9,-2.3,1.8,-3.2,2.7c-1.4,.5,-3.7,0,-4.6,.9c-2.7,2.3,-6,3.7,-9.2,6c-1.8,1.4,-2.7,3.2,-5,4.2c-2.3,.4,-4.6,.9,-6.9,1.8c-4.2,1.4,-6.9,4.1,-10.1,6.9c-2.8,1.8,-5.6,4.1,-8.3,6c-4.6,3.2,-9.2,6.4,-14.3,9.1c-.9,.6,-2,.6,-2.9,1.4c0,.1,-.3,.3,-.5,.4m146,-85.9c-1.1,.6,-2.2,.9,-3.3,1.4c-.3,.1,-.7,.5,-.7,.7c0,1.8,-2.6,2.4,-3.5,2.9c-3.2,2.3,-6.5,4.1,-10.6,5.5c-1.4,0,-1.4,1.8,-2.8,2.7c-5.5,2.8,-11,5.1,-17,6.5c-3.2,.9,-5.7,1.1,-8.9,1.6c-.9,.4,-1.9,.9,-2.3,1.8c-1.9,1.4,-1.6,3.9,-3.9,4.4c-3.2,1.4,-6,2.3,-8.8,3.7h-1.8c-4.6,2.7,-7.8,6.4,-12.4,8.2c-3.2,1,-6.9,1.4,-9.7,3.3c-6.4,4.1,-12.4,7.3,-18.4,11.5c-5.5,3.2,-10.1,6.4,-15.6,9.2c-4.6,2.2,-9.6,4.6,-13.3,8.2c-.5,.5,-1.4,1.4,-1.9,1.9c-1.8,.9,-4.1,0,-5.9,.9c-3.3,.9,-5.6,3.2,-8.8,3.7c-.3,0,-.8,.8,-1.1,1.1c-.6,.7,-1.5,.9,-2.3,1.4M182.6,181.1c.3,0,.5,.1,.8,.1c.7,.2,1.4,.2,2.2,.1c1.5,-.4,3.4,-1.1,3.9,-2.8c.1,-.1,.2,-.2,.3,-.3m-7.2,2.7c.9,-.9,1.8,-2.1,2.8,-2.4c1.5,-.7,3,-.3,4.5,-.3" class="g3_274"/>
<path d="M115.9,269.6L262.7,239l.1,-55.8Z" class="g4_274"/>
<path d="M262.3,182l.5,1.2L115.9,269.6l-.5,-1.2Z" class="g5_274"/>
<path d="M115.9,269.6l-47.5,-38l-.9,-1.8l47.9,38.6Z" class="g5_274"/>
<path d="M223.7,161.4c4.2,0,7.6,-1.8,7.6,-4.1c0,-.1,0,-.2,-.1,-.3l-3.9,-3.2c-1.1,-.3,-2.3,-.5,-3.6,-.5c-4.2,0,-7.6,1.8,-7.6,4c0,2.3,3.4,4.1,7.6,4.1Z" class="g6_274"/>
<path d="M67.5,229.8L214.4,143.4L262.3,182l.5,1.2L115.9,269.6l-47.5,-38l-.9,-1.8Z" class="g7_274"/>
<path d="M67.5,229.8l47.9,38.6L262.3,182" class="g8_274"/>
<path d="M155.2,244.7c-3.6,.4,-7.1,1.2,-10.5,2.9c-4.9,3,-8.8,7,-13.7,9.8c-3.4,1.7,-7.2,4,-8.4,4c-3.9,0,-6.1,3.4,-9.8,4.8m139.8,-79c-4.6,2.1,-9.5,2.7,-13.8,5.5c-1.5,1.2,-2.4,3.4,-3.9,4c-3.1,1.2,-6.5,1.8,-8.6,4c-3.7,3,-6.5,6.4,-11.1,7.3c-4.6,1,-9.2,1.3,-12.8,4.3c-1.9,1.6,-2.8,4.3,-4.9,5.5c-4.3,2.5,-9.5,3.4,-14.1,5.3c-.6,.3,-.6,.9,-1,1.5c-.3,-.3,-.6,.6,-.9,.3c.3,1.2,-.6,2.1,-1.5,3.1c-2.2,2.4,-5.8,3,-8.3,5.8c-.4,.4,-.5,.9,-.6,1.4" class="g9_274"/>
<path d="M70.6,231.6c2.4,-1.5,4,-4.3,6.4,-5.2c5.5,-1.8,10.7,-4.3,16,-6.4c2.7,-1.2,5.8,-2.2,7.6,-4c4.6,-4.3,9.5,-7.4,14.7,-10.7c1.9,-1.3,4,-1.6,6.2,-2.5c4.2,-1.8,8.5,-3.7,12.2,-6.7c2.2,-1.6,3.4,-3.4,5.5,-4.9c2.2,-1.3,3.7,-2.5,5.5,-4c1.3,-.9,3.1,-.6,4.3,-1.5c3.1,-2.5,6.8,-4,10.5,-4.9c2.7,-.7,5.2,-1,7.9,-1.3c3.1,-.6,5.9,-2.1,8.6,-3.7c1.8,-1.2,3.4,-3,5.2,-4.6c2.5,-1.5,4.6,-2.7,7.4,-3.3c2.4,-.3,4.9,-.3,7.3,-.9c4.6,-1.9,8,-5.2,12,-7.4c3,-1.5,6.1,-2.7,9.5,-3.7c2.4,-.6,4.3,-2.4,6.4,-3.6m26.4,20.5c-1.9,1.4,-3.7,2.9,-5.5,4.4v.6c.7,.2,1.5,.2,2.1,0c2,-.7,3.7,-1.8,5.5,-2.7m-4.4,-3.8c-3.7,3.7,-8.3,6,-11.8,10.1c-1.6,1.7,-3.2,3,-5,4.6c-.2,.3,-.7,.7,-.5,.7c1.4,.5,3,.3,4.4,.3c.9,-.3,1.8,-1,2.8,-1.4c1.8,-.7,2.9,-2.8,4.6,-4.2c.4,-.2,.9,-.4,1.3,-.6c.3,-.3,.7,-.7,.7,-.7c3.2,-1.2,6.7,-2.3,9.7,-3.7M89.9,247.6c4.3,-1.3,7.6,-4.3,11.3,-7.1c1.6,-1.2,3.7,-1.5,5.5,-2.4c5.3,-1.9,9.5,-5.2,14.4,-8c2.8,-1.5,3.4,-4.9,5.3,-7.4c1.8,-2.1,3.9,-3.3,6.1,-4.2c1.5,-.7,3.7,-1,5.2,-1.3c3.4,-1.5,6.7,-2.7,9.8,-4.9c2.8,-2.1,4.3,-4.9,7,-6.4c4,-2.2,8.3,-2.2,12.3,-3.7c1.9,-.6,3.4,-1.8,4.9,-2.7c2.5,-1,5.2,-1.6,8,-1.6h-.3c.9,0,1.8,-.3,2.4,-.6c1.9,-.6,2.2,-3.4,4.3,-4.3c.6,-.3,1.6,-.3,2.2,-.3c1.8,-.6,3.3,-1.5,5.2,-2.1c1.8,-1.3,3.7,-2.5,5.5,-3.7c1.5,-.9,2.7,-2.2,4.6,-2.5c2.4,-.3,4.6,-.9,6.7,-1.8c1.3,-.9,2.5,-1.2,3.4,-2.2c4.6,-4.9,9.5,-9.2,15.3,-12.2c.3,0,1.3,.3,1.8,-.4c.1,-.2,.4,-.8,1.6,-1.2c.3,.1,4.9,-3.2,6.4,-3.5M96.6,254.3c3.1,.3,6.5,0,8.6,-2.4c1.8,-1.6,3.4,-3.1,4.6,-5.3c.9,-1.2,2.5,-2.4,3.7,-2.4c6.1,-.6,11.9,-3.7,15.3,-9.2c.9,-1.8,3.7,-2.5,5.2,-4c4,-3,7.1,-6.7,11.4,-9.5c3.3,-2.1,7,-2.4,10.1,-4.6c5.8,-4,11.9,-7.6,19,-7.3c1.5,0,3,-1,4.6,-1.9c6.4,-3.7,11.9,-7.9,19.6,-9.8c3,-.6,6.1,-1.8,8.3,-4c4.9,-4,10.4,-6.1,15.3,-10.1c.3,-.3,.3,-.9,.6,-1.2c.9,-.6,1.8,-1.2,2.8,-1.8c3.3,-2.5,4.9,-5.9,8.2,-8.3c3.4,-2.2,6.8,-2.5,10.1,-4.3m-79.9,54c-.2,.2,-.6,-.1,-.8,0c-.5,.4,-1,.5,-1.5,.6c-.5,.3,-.9,.3,-1.4,.5c-1.5,.3,-2.9,.8,-4.2,1.4c-2.7,1,-5.2,2.4,-7.1,4.8c-.3,.4,-.1,1.1,-.4,1.6c-.9,1.7,-2.8,2.6,-4,4.1c-1.2,1.2,-2.6,1.9,-3.8,3c-.3,.3,0,.4,-.1,.6c.9,0,1.8,.2,2.6,-.1c1.8,-.8,3.7,-2,5.6,-2.8c1.1,-.4,2.3,-.4,3.5,-.7c2.9,-.7,5.3,-2.5,7.9,-3.8c1.7,-.6,3.6,-1.2,5.3,-2c.5,-.3,.8,-.6,1,-1.1c.4,-1.2,-.1,-2.6,.4,-3.9c.3,-1,.6,-2,.8,-3.1c-.8,0,-1.5,-.1,-2.3,.1c-.4,0,-.7,.5,-1.2,.5c-.1,0,-.2,.2,-.3,.3Z" class="g3_274"/>
<path d="M211.2,149.4c0,-.7,1.1,-1.4,2.4,-1.4c1.4,0,2.4,.7,2.4,1.4c0,.8,-1,1.5,-2.4,1.5c-1.3,0,-2.4,-.7,-2.4,-1.5Z" class="ga_274"/>
<path d="M238,172.6l-11.7,-9.2l7.2,-2.4l10.4,9Z" class="ga_274"/>
<path d="M255,184.7L240.9,173.6l4.5,-1.8l13.1,11.1Z" class="ga_274"/>
<path d="M208.6,149.7c-1.1,-2.2,1,-4.6,3.3,-3.9c.7,.2,1.3,.7,1.6,1.4c-.4,-.8,-1.3,-1.4,-2.4,-1.3c1.1,-.1,2,.5,2.4,1.3c1.2,2.5,-1.3,4.6,-3.4,3.9c-.9,-.4,-1.4,-1.1,-1.5,-1.4Z" class="gb_274"/>
<path d="M213.5,147.2c.1,.1,.1,.2,.2,.3v.2c.1,.1,.1,.2,.1,.3v.2c0,.1,0,.2,0,.3v.2c0,.2,0,.3,-.1,.5v.2c-.1,.2,-.2,.4,-.4,.6l-.1,.2q-.2,.2,-.3,.3l-.1,.1c-.1,.1,-.2,.2,-.3,.2l-.1,.1c-.1,0,-.1,.1,-.2,.1h-.1q-.1,.1,-.2,.1h-.1c0,0,-.1,0,-.1,.1h-.1c0,0,-.1,0,-.1,0h-.1c0,0,-.1,0,-.1,0h-.1c0,0,-.1,0,-.1,0H211c-.1,0,-.2,0,-.3,0q-.1,0,-.2,0c-.1,0,-.1,-.1,-.2,-.1h-.1c0,0,-.1,0,-.1,0L210,151q-.1,0,-.2,-.1h-.1c-.1,-.1,-.2,-.1,-.2,-.2l-.2,-.1c-.1,-.1,-.2,-.2,-.3,-.3l-.1,-.1q-.2,-.2,-.3,-.5l-.1,-.2c0,-.1,-.1,-.2,-.1,-.3l-.1,-.2c0,0,0,-.1,0,-.2v-.6q0,-.3,.1,-.5l.1,-.2c0,-.2,.1,-.4,.3,-.6l.1,-.2q.2,-.2,.3,-.3l.2,-.1c0,-.1,.1,-.2,.2,-.2l.1,-.1c.1,0,.2,-.1,.2,-.1h.1c.1,0,.1,-.1,.2,-.1h.1c0,0,.1,0,.1,-.1h.1q.1,0,.1,0h.1q.1,0,.1,0h.1q.1,0,.1,0h.1c.1,0,.2,0,.3,0h.3c0,0,.1,.1,.1,.1h.1c0,0,.1,0,.1,.1h.1c.1,0,.2,0,.2,.1l.2,.1c0,0,.1,0,.2,.1l.1,.1c.1,.1,.2,.2,.3,.3l.1,.1c.1,.1,.2,.3,.3,.5c-.4,-.8,-1.3,-1.4,-2.4,-1.3c-1.1,-.3,-3,1.3,-2.3,2.8c.9,1.6,3.2,1,3.7,-.6c.3,-1.2,-.6,-2.1,-1.4,-2.2c1.1,-.1,2,.5,2.4,1.3Z" class="gb_274"/>
<path d="M213.5,147.2c.1,.1,.1,.2,.2,.3v.2c.1,.1,.1,.2,.1,.3v.2c0,.1,0,.2,0,.3v.2c0,.2,0,.3,-.1,.5v.2c-.1,.2,-.2,.4,-.4,.6l-.1,.2q-.2,.2,-.3,.3l-.1,.1c-.1,.1,-.2,.2,-.3,.2l-.1,.1c-.1,0,-.1,.1,-.2,.1h-.1q-.1,.1,-.2,.1h-.1c0,0,-.1,0,-.1,.1h-.1c0,0,-.1,0,-.1,0h-.1c0,0,-.1,0,-.1,0h-.1c0,0,-.1,0,-.1,0H211c-.1,0,-.2,0,-.3,0q-.1,0,-.2,0c-.1,0,-.1,-.1,-.2,-.1h-.1c0,0,-.1,0,-.1,0L210,151q-.1,0,-.2,-.1h-.1c-.1,-.1,-.2,-.1,-.2,-.2l-.2,-.1c-.1,-.1,-.2,-.2,-.3,-.3l-.1,-.1q-.2,-.2,-.3,-.5l-.1,-.2c0,-.1,-.1,-.2,-.1,-.3l-.1,-.2c0,0,0,-.1,0,-.2v-.6q0,-.3,.1,-.5l.1,-.2c0,-.2,.1,-.4,.3,-.6l.1,-.2q.2,-.2,.3,-.3l.2,-.1c0,-.1,.1,-.2,.2,-.2l.1,-.1c.1,0,.2,-.1,.2,-.1h.1c.1,0,.1,-.1,.2,-.1h.1c0,0,.1,0,.1,-.1h.1q.1,0,.1,0h.1q.1,0,.1,0h.1q.1,0,.1,0h.1c.1,0,.2,0,.3,0h.3c0,0,.1,.1,.1,.1h.1c0,0,.1,0,.1,.1h.1c.1,0,.2,0,.2,.1l.2,.1c0,0,.1,0,.2,.1l.1,.1c.1,.1,.2,.2,.3,.3l.1,.1c.1,.1,.2,.3,.3,.5c-.3,-.8,-1.2,-1.3,-2.2,-1.3c-2.1,-.4,-3.2,1.8,-2.4,3c1,1.5,3.4,.7,3.7,-.9c.2,-.8,-.2,-1.8,-1.3,-2.1c1,0,1.9,.5,2.2,1.3Z" class="gc_274"/>
<path d="M213.5,147.2c.1,.1,.1,.2,.2,.3v.2c.1,.1,.1,.2,.1,.3v.2c0,.1,0,.2,0,.3v.2c0,.2,0,.3,-.1,.5v.2c-.1,.2,-.2,.4,-.4,.6l-.1,.2q-.2,.2,-.3,.3l-.1,.1c-.1,.1,-.2,.2,-.3,.2l-.1,.1c-.1,0,-.1,.1,-.2,.1h-.1q-.1,.1,-.2,.1h-.1c0,0,-.1,0,-.1,.1h-.1c0,0,-.1,0,-.1,0h-.1c0,0,-.1,0,-.1,0h-.1c0,0,-.1,0,-.1,0H211c-.1,0,-.2,0,-.3,0q-.1,0,-.2,0c-.1,0,-.1,-.1,-.2,-.1h-.1c0,0,-.1,0,-.1,0L210,151q-.1,0,-.2,-.1h-.1c-.1,-.1,-.2,-.1,-.2,-.2l-.2,-.1c-.1,-.1,-.2,-.2,-.3,-.3l-.1,-.1q-.2,-.2,-.3,-.5l-.1,-.2c0,-.1,-.1,-.2,-.1,-.3l-.1,-.2c0,0,0,-.1,0,-.2v-.6q0,-.3,.1,-.5l.1,-.2c0,-.2,.1,-.4,.3,-.6l.1,-.2q.2,-.2,.3,-.3l.2,-.1c0,-.1,.1,-.2,.2,-.2l.1,-.1c.1,0,.2,-.1,.2,-.1h.1c.1,0,.1,-.1,.2,-.1h.1c0,0,.1,0,.1,-.1h.1q.1,0,.1,0h.1q.1,0,.1,0h.1q.1,0,.1,0h.1c.1,0,.2,0,.3,0h.3c0,0,.1,.1,.1,.1h.1c0,0,.1,0,.1,.1h.1c.1,0,.2,0,.2,.1l.2,.1c0,0,.1,0,.2,.1l.1,.1c.1,.1,.2,.2,.3,.3l.1,.1c.1,.1,.2,.3,.3,.5c-.3,-.7,-1.1,-1.2,-2,-1.3c-2,-.5,-3.6,1.6,-2.7,3c1,1.7,3.5,.9,3.9,-.8c.2,-1.1,-.4,-1.9,-1.2,-2.2c.9,.1,1.7,.6,2,1.3Z" class="gd_274"/>
<path d="M213.5,147.2c.1,.1,.1,.2,.2,.3v.2c.1,.1,.1,.2,.1,.3v.2c0,.1,0,.2,0,.3v.2c0,.2,0,.3,-.1,.5v.2c-.1,.2,-.2,.4,-.4,.6l-.1,.2q-.2,.2,-.3,.3l-.1,.1c-.1,.1,-.2,.2,-.3,.2l-.1,.1c-.1,0,-.1,.1,-.2,.1h-.1q-.1,.1,-.2,.1h-.1c0,0,-.1,0,-.1,.1h-.1c0,0,-.1,0,-.1,0h-.1c0,0,-.1,0,-.1,0h-.1c0,0,-.1,0,-.1,0H211c-.1,0,-.2,0,-.3,0q-.1,0,-.2,0c-.1,0,-.1,-.1,-.2,-.1h-.1c0,0,-.1,0,-.1,0L210,151q-.1,0,-.2,-.1h-.1c-.1,-.1,-.2,-.1,-.2,-.2l-.2,-.1c-.1,-.1,-.2,-.2,-.3,-.3l-.1,-.1q-.2,-.2,-.3,-.5l-.1,-.2c0,-.1,-.1,-.2,-.1,-.3l-.1,-.2c0,0,0,-.1,0,-.2v-.6q0,-.3,.1,-.5l.1,-.2c0,-.2,.1,-.4,.3,-.6l.1,-.2q.2,-.2,.3,-.3l.2,-.1c0,-.1,.1,-.2,.2,-.2l.1,-.1c.1,0,.2,-.1,.2,-.1h.1c.1,0,.1,-.1,.2,-.1h.1c0,0,.1,0,.1,-.1h.1q.1,0,.1,0h.1q.1,0,.1,0h.1q.1,0,.1,0h.1c.1,0,.2,0,.3,0h.3c0,0,.1,.1,.1,.1h.1c0,0,.1,0,.1,.1h.1c.1,0,.2,0,.2,.1l.2,.1c0,0,.1,0,.2,.1l.1,.1c.1,.1,.2,.2,.3,.3l.1,.1c.1,.1,.2,.3,.3,.5c-.3,-.7,-1,-1.2,-1.8,-1.3c0,0,-.1,0,-.1,0c-1.9,-.7,-3.6,1.4,-2.9,2.9c.8,1.8,3.4,1.2,4,-.5c.4,-1.1,-.2,-2,-1,-2.4c.8,.1,1.5,.6,1.8,1.3Z" class="ge_274"/>
<path d="M213.5,147.2c.1,.1,.1,.2,.2,.3v.2c.1,.1,.1,.2,.1,.3v.2c0,.1,0,.2,0,.3v.2c0,.2,0,.3,-.1,.5v.2c-.1,.2,-.2,.4,-.4,.6l-.1,.2q-.2,.2,-.3,.3l-.1,.1c-.1,.1,-.2,.2,-.3,.2l-.1,.1c-.1,0,-.1,.1,-.2,.1h-.1q-.1,.1,-.2,.1h-.1c0,0,-.1,0,-.1,.1h-.1c0,0,-.1,0,-.1,0h-.1c0,0,-.1,0,-.1,0h-.1c0,0,-.1,0,-.1,0H211c-.1,0,-.2,0,-.3,0q-.1,0,-.2,0c-.1,0,-.1,-.1,-.2,-.1h-.1c0,0,-.1,0,-.1,0L210,151q-.1,0,-.2,-.1h-.1c-.1,-.1,-.2,-.1,-.2,-.2l-.2,-.1c-.1,-.1,-.2,-.2,-.3,-.3l-.1,-.1q-.2,-.2,-.3,-.5l-.1,-.2c0,-.1,-.1,-.2,-.1,-.3l-.1,-.2c0,0,0,-.1,0,-.2v-.6q0,-.3,.1,-.5l.1,-.2c0,-.2,.1,-.4,.3,-.6l.1,-.2q.2,-.2,.3,-.3l.2,-.1c0,-.1,.1,-.2,.2,-.2l.1,-.1c.1,0,.2,-.1,.2,-.1h.1c.1,0,.1,-.1,.2,-.1h.1c0,0,.1,0,.1,-.1h.1q.1,0,.1,0h.1q.1,0,.1,0h.1q.1,0,.1,0h.1c.1,0,.2,0,.3,0h.3c0,0,.1,.1,.1,.1h.1c0,0,.1,0,.1,.1h.1c.1,0,.2,0,.2,.1l.2,.1c0,0,.1,0,.2,.1l.1,.1c.1,.1,.2,.2,.3,.3l.1,.1c.1,.1,.2,.3,.3,.5c-.3,-.6,-.9,-1.1,-1.6,-1.2c-.1,0,-.1,-.1,-.1,-.1c-1.8,-.8,-3.9,1.1,-3.2,2.9c.8,1.8,3.4,1.4,4.1,-.3c.5,-1,.1,-2.1,-.8,-2.5c.7,.1,1.3,.6,1.6,1.2Z" class="gf_274"/>
<path d="M213.5,147.2c.1,.1,.1,.2,.2,.3v.2c.1,.1,.1,.2,.1,.3v.2c0,.1,0,.2,0,.3v.2c0,.2,0,.3,-.1,.5v.2c-.1,.2,-.2,.4,-.4,.6l-.1,.2q-.2,.2,-.3,.3l-.1,.1c-.1,.1,-.2,.2,-.3,.2l-.1,.1c-.1,0,-.1,.1,-.2,.1h-.1q-.1,.1,-.2,.1h-.1c0,0,-.1,0,-.1,.1h-.1c0,0,-.1,0,-.1,0h-.1c0,0,-.1,0,-.1,0h-.1c0,0,-.1,0,-.1,0H211c-.1,0,-.2,0,-.3,0q-.1,0,-.2,0c-.1,0,-.1,-.1,-.2,-.1h-.1c0,0,-.1,0,-.1,0L210,151q-.1,0,-.2,-.1h-.1c-.1,-.1,-.2,-.1,-.2,-.2l-.2,-.1c-.1,-.1,-.2,-.2,-.3,-.3l-.1,-.1q-.2,-.2,-.3,-.5l-.1,-.2c0,-.1,-.1,-.2,-.1,-.3l-.1,-.2c0,0,0,-.1,0,-.2v-.6q0,-.3,.1,-.5l.1,-.2c0,-.2,.1,-.4,.3,-.6l.1,-.2q.2,-.2,.3,-.3l.2,-.1c0,-.1,.1,-.2,.2,-.2l.1,-.1c.1,0,.2,-.1,.2,-.1h.1c.1,0,.1,-.1,.2,-.1h.1c0,0,.1,0,.1,-.1h.1q.1,0,.1,0h.1q.1,0,.1,0h.1q.1,0,.1,0h.1c.1,0,.2,0,.3,0h.3c0,0,.1,.1,.1,.1h.1c0,0,.1,0,.1,.1h.1c.1,0,.2,0,.2,.1l.2,.1c0,0,.1,0,.2,.1l.1,.1c.1,.1,.2,.2,.3,.3l.1,.1c.1,.1,.2,.3,.3,.5c-.3,-.6,-.8,-1,-1.5,-1.2h-.1c-1.8,-.9,-4,.9,-3.4,2.8c.7,1.8,3.4,1.7,4.3,-.1c.5,-1,.2,-2.2,-.8,-2.7c.7,.2,1.2,.6,1.5,1.2Z" class="gg_274"/>
<path d="M213.5,147.2c.1,.1,.1,.2,.2,.3v.2c.1,.1,.1,.2,.1,.3v.2c0,.1,0,.2,0,.3v.2c0,.2,0,.3,-.1,.5v.2c-.1,.2,-.2,.4,-.4,.6l-.1,.2q-.2,.2,-.3,.3l-.1,.1c-.1,.1,-.2,.2,-.3,.2l-.1,.1c-.1,0,-.1,.1,-.2,.1h-.1q-.1,.1,-.2,.1h-.1c0,0,-.1,0,-.1,.1h-.1c0,0,-.1,0,-.1,0h-.1c0,0,-.1,0,-.1,0h-.1c0,0,-.1,0,-.1,0H211c-.1,0,-.2,0,-.3,0q-.1,0,-.2,0c-.1,0,-.1,-.1,-.2,-.1h-.1c0,0,-.1,0,-.1,0L210,151q-.1,0,-.2,-.1h-.1c-.1,-.1,-.2,-.1,-.2,-.2l-.2,-.1c-.1,-.1,-.2,-.2,-.3,-.3l-.1,-.1q-.2,-.2,-.3,-.5l-.1,-.2c0,-.1,-.1,-.2,-.1,-.3l-.1,-.2c0,0,0,-.1,0,-.2v-.6q0,-.3,.1,-.5l.1,-.2c0,-.2,.1,-.4,.3,-.6l.1,-.2q.2,-.2,.3,-.3l.2,-.1c0,-.1,.1,-.2,.2,-.2l.1,-.1c.1,0,.2,-.1,.2,-.1h.1c.1,0,.1,-.1,.2,-.1h.1c0,0,.1,0,.1,-.1h.1q.1,0,.1,0h.1q.1,0,.1,0h.1q.1,0,.1,0h.1c.1,0,.2,0,.3,0h.3c0,0,.1,.1,.1,.1h.1c0,0,.1,0,.1,.1h.1c.1,0,.2,0,.2,.1l.2,.1c0,0,.1,0,.2,.1l.1,.1c.1,.1,.2,.2,.3,.3l.1,.1c.1,.1,.2,.3,.3,.5c-.2,-.5,-.7,-.9,-1.3,-1.1q-.1,-.1,-.1,-.1c-2,-1.1,-4.1,.9,-3.6,2.7c.5,1.9,3.2,2,4.3,.2c.6,-1,.3,-2.3,-.6,-2.8c.6,.2,1.1,.6,1.3,1.1Z" class="gh_274"/>
<path d="M213.5,147.2c.1,.1,.1,.2,.2,.3v.2c.1,.1,.1,.2,.1,.3v.2c0,.1,0,.2,0,.3v.2c0,.2,0,.3,-.1,.5v.2c-.1,.2,-.2,.4,-.4,.6l-.1,.2q-.2,.2,-.3,.3l-.1,.1c-.1,.1,-.2,.2,-.3,.2l-.1,.1c-.1,0,-.1,.1,-.2,.1h-.1q-.1,.1,-.2,.1h-.1c0,0,-.1,0,-.1,.1h-.1c0,0,-.1,0,-.1,0h-.1c0,0,-.1,0,-.1,0h-.1c0,0,-.1,0,-.1,0H211c-.1,0,-.2,0,-.3,0q-.1,0,-.2,0c-.1,0,-.1,-.1,-.2,-.1h-.1c0,0,-.1,0,-.1,0L210,151q-.1,0,-.2,-.1h-.1c-.1,-.1,-.2,-.1,-.2,-.2l-.2,-.1c-.1,-.1,-.2,-.2,-.3,-.3l-.1,-.1q-.2,-.2,-.3,-.5l-.1,-.2c0,-.1,-.1,-.2,-.1,-.3l-.1,-.2c0,0,0,-.1,0,-.2v-.6q0,-.3,.1,-.5l.1,-.2c0,-.2,.1,-.4,.3,-.6l.1,-.2q.2,-.2,.3,-.3l.2,-.1c0,-.1,.1,-.2,.2,-.2l.1,-.1c.1,0,.2,-.1,.2,-.1h.1c.1,0,.1,-.1,.2,-.1h.1c0,0,.1,0,.1,-.1h.1q.1,0,.1,0h.1q.1,0,.1,0h.1q.1,0,.1,0h.1c.1,0,.2,0,.3,0h.3c0,0,.1,.1,.1,.1h.1c0,0,.1,0,.1,.1h.1c.1,0,.2,0,.2,.1l.2,.1c0,0,.1,0,.2,.1l.1,.1c.1,.1,.2,.2,.3,.3l.1,.1c.1,.1,.2,.3,.3,.5c-.2,-.5,-.6,-.9,-1.2,-1.1c-1.8,-1.2,-4.3,.5,-3.9,2.6c.4,1.9,3.2,2.2,4.4,.4c.6,-.9,.6,-2.2,-.5,-3c.6,.2,1,.6,1.2,1.1Z" class="gi_274"/>
<path d="M210.8,145.7c.1,0,.2,0,.2,0h.1c.1,0,.2,0,.3,0h.3c0,0,.1,.1,.1,.1h.1c0,0,.1,0,.1,.1h.1c.1,0,.2,0,.2,.1l.2,.1c0,0,.1,0,.2,.1l.1,.1c.1,.1,.2,.2,.3,.3l.1,.1c.2,.2,.2,.3,.3,.5c-.2,-.4,-.5,-.8,-1,-1c-.5,-.4,-1.1,-.6,-1.8,-.5h.1Z" class="gj_274"/>
<path d="M213.5,147.2c.1,.1,.1,.2,.2,.3v.2c.1,.1,.1,.2,.1,.3v.2c0,.1,0,.2,0,.3v.2c0,.2,0,.3,-.1,.5v.2c-.1,.2,-.2,.4,-.4,.6l-.1,.2q-.2,.2,-.3,.3l-.1,.1c-.1,.1,-.2,.2,-.3,.2l-.1,.1c-.1,0,-.1,.1,-.2,.1h-.1q-.1,.1,-.2,.1h-.1c0,0,-.1,0,-.1,.1h-.1c0,0,-.1,0,-.1,0h-.1c0,0,-.1,0,-.1,0h-.1c0,0,-.1,0,-.1,0H211c-.1,0,-.2,0,-.3,0q-.1,0,-.2,0c-.1,0,-.1,-.1,-.2,-.1h-.1c0,0,-.1,0,-.1,0L210,151q-.1,0,-.2,-.1h-.1c-.1,-.1,-.2,-.1,-.2,-.2l-.2,-.1c-.1,-.1,-.2,-.2,-.3,-.3l-.1,-.1q-.2,-.2,-.3,-.5l-.1,-.2c0,-.1,-.1,-.2,-.1,-.3l-.1,-.2c0,0,0,-.1,0,-.2v-.6q0,-.3,.1,-.5l.1,-.2q.1,-.3,.2,-.6l-.1,.2c-1,2.1,.8,3.8,2.8,3.2c1.9,-.6,2.5,-3,1.1,-4.1c.5,.2,.8,.6,1,1Z" class="gj_274"/>
<path d="M211.4,145.7c0,0,.1,0,.2,0h.1c0,0,.1,.1,.1,.1h.1c0,0,.1,0,.1,.1h.1c.1,0,.2,0,.2,.1l.2,.1c0,0,.1,0,.2,.1l.1,.1c.1,.1,.2,.2,.3,.3l.1,.1c.2,.2,.2,.3,.3,.5c-.1,-.4,-.5,-.7,-.8,-.9c0,0,-.1,-.1,-.1,-.1c-.2,-.1,-.6,-.4,-1.2,-.5Z" class="gk_274"/>
<path d="M213.5,147.2c.1,.1,.1,.2,.2,.3v.2c.1,.1,.1,.2,.1,.3v.2c0,.1,0,.2,0,.3v.2c0,.2,0,.3,-.1,.5v.2c-.1,.2,-.2,.4,-.4,.6l-.1,.2q-.2,.2,-.3,.3l-.1,.1c-.1,.1,-.2,.2,-.3,.2l-.1,.1c-.1,0,-.1,.1,-.2,.1h-.1q-.1,.1,-.2,.1h-.1c0,0,-.1,0,-.1,.1h-.1c0,0,-.1,0,-.1,0h-.1c0,0,-.1,0,-.1,0h-.1c0,0,-.1,0,-.1,0H211c-.1,0,-.2,0,-.3,0q-.1,0,-.2,0c-.1,0,-.1,-.1,-.2,-.1h-.1c0,0,-.1,0,-.1,0L210,151q-.1,0,-.2,-.1h-.1c-.1,-.1,-.2,-.1,-.2,-.2l-.2,-.1c-.1,-.1,-.2,-.2,-.3,-.3l-.1,-.1q-.2,-.2,-.3,-.5l-.1,-.2c0,-.1,-.1,-.2,-.1,-.3l-.1,-.2c0,0,0,-.1,0,-.2v-.6q0,-.3,.1,-.5q0,-.1,0,-.2q0,.1,0,.1c-.6,2.3,1.7,3.6,3.5,2.6c1.6,-.8,2,-2.8,.8,-3.9c.3,.2,.7,.5,.8,.9Z" class="gk_274"/>
<path d="M212,145.9c.1,0,.2,0,.3,.1l.2,.1c0,0,.1,0,.2,.1l.1,.1c.1,.1,.2,.2,.3,.3l.1,.1c.2,.2,.2,.3,.3,.5c-.1,-.3,-.3,-.6,-.6,-.8c-.2,-.1,-.4,-.4,-1,-.6c0,0,.1,0,.1,.1Z" class="gl_274"/>
<path d="M213.5,147.2c.1,.1,.1,.2,.2,.3v.2c.1,.1,.1,.2,.1,.3v.2c0,.1,0,.2,0,.3v.2c0,.2,0,.3,-.1,.5v.2c-.1,.2,-.2,.4,-.4,.6l-.1,.2q-.2,.2,-.3,.3l-.1,.1c-.1,.1,-.2,.2,-.3,.2l-.1,.1c-.1,0,-.1,.1,-.2,.1h-.1q-.1,.1,-.2,.1h-.1c0,0,-.1,0,-.1,.1h-.1c0,0,-.1,0,-.1,0h-.1c0,0,-.1,0,-.1,0h-.1c0,0,-.1,0,-.1,0H211c-.1,0,-.2,0,-.3,0q-.1,0,-.2,0c-.1,0,-.1,-.1,-.2,-.1h-.1c0,0,-.1,0,-.1,0L210,151q-.1,0,-.2,-.1h-.1c-.1,-.1,-.2,-.1,-.2,-.2l-.2,-.1c-.1,-.1,-.2,-.2,-.3,-.3l-.1,-.1q-.2,-.2,-.3,-.5l-.1,-.2c0,-.1,-.1,-.2,-.1,-.3l-.1,-.2c0,0,0,-.1,0,-.2v-.7v.1c-.2,2.5,2.7,3,4.2,1.8c1,-.9,1.4,-2.5,.4,-3.6c.3,.2,.5,.5,.6,.8Z" class="gl_274"/>
<path d="M212.7,146.2q.2,.2,.4,.4l.1,.1q.2,.3,.3,.5c-.1,-.2,-.2,-.4,-.4,-.6H213c-.1,-.2,-.2,-.3,-.5,-.5l.2,.1Z" class="gm_274"/>
<path d="M213.5,147.2c.1,.1,.1,.2,.2,.3v.2c.1,.1,.1,.2,.1,.3v.2c0,.1,0,.2,0,.3v.2c0,.2,0,.3,-.1,.5v.2c-.1,.2,-.2,.4,-.4,.6l-.1,.2q-.2,.2,-.3,.3l-.1,.1c-.1,.1,-.2,.2,-.3,.2l-.1,.1c-.1,0,-.1,.1,-.2,.1h-.1q-.1,.1,-.2,.1h-.1c0,0,-.1,0,-.1,.1h-.1c0,0,-.1,0,-.1,0h-.1c0,0,-.1,0,-.1,0h-.1c0,0,-.1,0,-.1,0H211c-.1,0,-.2,0,-.3,0q-.1,0,-.2,0c-.1,0,-.1,-.1,-.2,-.1h-.1c0,0,-.1,0,-.1,0L210,151q-.1,0,-.2,-.1h-.1c-.1,-.1,-.2,-.1,-.2,-.2l-.2,-.1c-.1,-.1,-.2,-.2,-.3,-.3l-.1,-.1q-.2,-.2,-.3,-.5l-.1,-.2c0,-.1,-.1,-.2,-.1,-.3l-.1,-.2c0,0,0,-.1,0,-.2c.5,2.5,3.7,2.5,4.9,.6c.4,-.7,.6,-1.8,-.1,-2.8c.2,.2,.3,.4,.4,.6Z" class="gm_274"/>
<path d="M211.9,146.3c1.1,1,.4,3,-1.2,3.2c-1.5,.2,-2.6,-1.4,-1.5,-2.8c.5,-.7,1.8,-1.1,2.7,-.4Z" class="gn_274"/>
<path d="M212,146.5c1,1.3,-.3,3,-1.7,2.9c-1.5,-.1,-2,-1.8,-.9,-2.9c.9,-.8,2,-.6,2.6,0Z" class="go_274"/>
<path d="M212,146.7c.8,1.4,-.7,2.9,-2.1,2.5c-1.4,-.4,-1.4,-2.2,-.1,-2.9c.9,-.5,1.9,-.2,2.2,.4Z" class="gp_274"/>
<path d="M212,146.8c.7,1.2,-.7,2.7,-2.1,2.3c-1.3,-.4,-1.3,-2.1,-.1,-2.8c.8,-.4,1.8,-.2,2.2,.5Z" class="gq_274"/>
<path d="M212,147c.4,1.2,-1,2.5,-2.3,1.9c-1,-.5,-1,-2.2,.4,-2.6c.9,-.4,1.6,.1,1.9,.7Z" class="gr_274"/>
<path d="M211.9,147c.4,1.3,-1.1,2.4,-2.2,1.7c-1.1,-.6,-.7,-2.2,.6,-2.4c.7,-.2,1.3,.2,1.6,.7Z" class="gs_274"/>
<path d="M211.8,147.1c0,.1,.2,1,-.6,1.5c-.5,.3,-1.2,.3,-1.5,0c-.9,-.6,-.5,-2.1,.7,-2.3c.7,-.1,1.2,.4,1.4,.8Z" class="gt_274"/>
<path d="M211.7,147.3c.1,1.3,-1.2,1.7,-2,1.2c-.7,-.5,-.5,-1.8,.7,-2.1c.5,-.1,1.2,.2,1.3,.9Z" class="gu_274"/>
<path d="M211.5,147.6c.1,.3,-.1,.8,-.5,.9c0,0,-.7,.3,-1.3,-.2c-.7,-.6,-.2,-1.7,.8,-1.8c0,0,1,-.1,1,1.1Z" class="gv_274"/>
<path d="M211.4,147.8c-.1,1,-1.2,.8,-1.6,.4c-.7,-.7,0,-1.6,.8,-1.6c.9,.1,.8,1.2,.8,1.2Z" class="gw_274"/>
<path d="M211.3,148.1c-.1,.3,-.5,.4,-.6,.4c-.2,0,-.6,-.1,-.9,-.6c-.4,-.7,.4,-1.2,.9,-1.1c.5,.1,.7,1,.6,1.3Z" class="gx_274"/>
<path d="M211.3,148.1c-.1,.1,-.2,.2,-.3,.2c-.1,.1,-.2,.2,-.3,.2q-.3,-.1,-.5,-.2c-.1,-.1,-.2,-.2,-.2,-.3c0,0,-.2,-.5,0,-.8c.1,-.2,.4,-.3,.6,-.2c.2,.1,.4,.3,.4,.3q.1,.1,.2,.2v.1c.1,.1,.1,.3,.1,.5Z" class="gy_274"/>
<path d="M211.2,148.1c-.1,.2,-.5,.3,-.5,.3c0,0,-.3,0,-.4,-.1c-.1,-.1,-.2,-.2,-.2,-.3c0,-.1,0,-.2,0,-.3q0,-.2,.2,-.3c0,-.1,.2,-.1,.3,-.1c0,-.1,.1,0,.2,0c0,.1,.1,.1,.1,.1q.2,0,.3,.2c.1,.2,.1,.4,0,.5Z" class="gz_274"/>
<path d="M211.2,148.1c-.1,.2,-.5,.3,-.5,.3c0,0,-.3,-.1,-.3,-.1c-.1,-.1,-.2,-.2,-.2,-.3c-.1,-.1,0,-.3,.1,-.5c0,0,.2,-.1,.2,-.1c.1,-.1,.2,0,.3,0c.1,0,.2,.1,.2,.1c.1,.1,.2,.3,.2,.3c0,.1,0,.2,0,.3Z" class="g10_274"/>
<path d="M211.2,148.1c-.1,0,-.1,.1,-.2,.1c0,0,-.3,.1,-.3,.1c0,0,-.3,-.1,-.3,-.1c-.1,0,-.2,-.1,-.2,-.2c0,-.1,0,-.2,0,-.2c.1,-.1,.1,-.2,.2,-.3c0,0,.1,0,.1,0c.1,-.1,.2,-.1,.3,-.1l.2,.2c.1,0,.1,.2,.2,.2c0,.1,0,.2,0,.3Z" class="g10_274"/>
<path d="M211.1,148.1H211c-.1,.1,-.2,.2,-.3,.2c-.1,0,-.2,-.1,-.3,-.1q-.1,-.1,-.1,-.2c-.1,-.1,-.1,-.2,0,-.2c0,-.1,.1,-.2,.2,-.2c0,0,.3,-.1,.3,-.1l.2,.1c.1,.1,.1,.2,.2,.2c0,.1,-.1,.2,-.1,.3Z" class="g10_274"/>
<path d="M211.1,148.1c-.1,0,-.4,.2,-.4,.2c-.1,0,-.2,-.1,-.3,-.2q-.1,0,-.1,-.1c0,0,0,-.2,0,-.2c0,-.1,.1,-.2,.2,-.2c0,0,.3,-.1,.3,-.1c0,0,.2,.2,.2,.2c.1,0,.1,.1,.1,.1c.1,.1,0,.2,0,.3Z" class="g10_274"/>
<path d="M211,148c0,0,0,.1,0,.1c0,.1,-.2,.2,-.3,.2c-.1,0,-.2,-.2,-.3,-.2c0,0,0,-.1,-.1,-.1c0,0,0,-.2,.1,-.2q0,-.1,.1,-.1c0,-.1,.2,-.1,.3,-.1c.1,0,.2,.1,.2,.2c0,0,.1,0,.1,0c0,.1,-.1,.2,-.1,.2Z" class="g10_274"/>
<path d="M211,147.8c0,.1,0,.2,0,.3c-.1,0,-.2,.1,-.3,.1c0,0,-.3,-.1,-.3,-.2c0,0,0,-.1,0,-.2c0,0,0,-.1,.1,-.1c0,0,.2,-.1,.3,-.1l.2,.2Z" class="g10_274"/>
<path d="M211,148.1c-.1,0,-.2,.1,-.3,.1c-.1,0,-.2,-.1,-.3,-.2c0,0,0,-.2,0,-.2c.1,-.1,.3,-.2,.4,-.2c0,0,.2,.1,.2,.2c0,.1,0,.2,0,.3Z" class="g10_274"/>
<path d="M210.9,148.1c0,0,-.1,.1,-.2,.1c-.1,0,-.2,-.1,-.2,-.2c-.1,0,-.1,-.1,0,-.2c0,-.1,.2,-.2,.3,-.1c0,0,.1,.1,.2,.1c0,.1,0,.2,-.1,.3Z" class="g10_274"/>
<path d="M210.9,148.1c-.1,0,-.1,.1,-.2,.1c-.1,0,-.1,-.1,-.2,-.2c0,0,0,-.1,0,-.2c.1,-.1,.2,-.1,.2,-.1c.1,0,.2,.1,.2,.1c.1,.1,0,.2,0,.3Z" class="g10_274"/>
<path d="M210.8,148.1h-.1c0,0,-.1,0,-.1,0c-.1,-.1,-.1,-.2,0,-.3c0,0,.1,-.1,.1,-.1c.1,0,.2,.1,.2,.1c0,.1,0,.2,-.1,.3Z" class="g10_274"/>
<path d="M210.8,148.1c0,0,-.1,0,-.1,0c0,0,-.1,0,-.1,0c0,-.1,0,-.2,0,-.3c0,0,.1,-.1,.1,-.1c.1,0,.1,.1,.1,.1c.1,.1,0,.2,0,.3Z" class="g10_274"/>
<path d="M210.8,148.1c0,0,-.1,0,-.1,0c-.1,-.1,-.1,-.2,0,-.3q.1,0,.1,0c0,.1,0,.2,0,.3Z" class="g10_274"/>
<path d="M210.7,148.1c0,-.1,0,-.2,0,-.3q.1,0,.1,0c0,.1,0,.2,-.1,.3Z" class="g10_274"/>
<path d="M253.2,184.5L240.1,174c-.2,-.2,-.3,-.3,-.3,-.5l13.1,10.6c.1,.1,.2,.3,.3,.4Z" class="g11_274"/>
<path d="M252.9,184.1L239.8,173.5c-.1,0,-.1,-.1,-.1,-.1L252.8,184c0,0,.1,.1,.1,.1Z" class="g12_274"/>
<path d="M252.8,184L239.7,173.4c0,0,0,-.1,0,-.1l13.1,10.6v.1Z" class="g13_274"/>
<path d="M252.8,183.9L239.7,173.3q0,-.1,0,-.1l13.1,10.6v.1Z" class="g14_274"/>
<path d="M252.8,183.8L239.7,173.2c0,0,-.1,-.1,-.1,-.1l13.2,10.6v.1Z" class="g15_274"/>
<path d="M252.8,183.7L239.6,173.1V173l13.2,10.6c0,0,0,.1,0,.1Z" class="g16_274"/>
<path d="M252.8,183.6L239.6,173l13.2,10.5c0,0,0,.1,0,.1Z" class="g17_274"/>
<path d="M252.8,183.5L239.6,173q0,-.1,0,-.1l13.2,10.5q0,.1,0,.1Z" class="g18_274"/>
<path d="M252.8,183.4L239.6,172.9c0,0,0,-.1,.1,-.1l13.1,10.6Z" class="g19_274"/>
<path d="M252.8,183.4L239.7,172.8v-.1l13.1,10.6v.1Z" class="g1a_274"/>
<path d="M252.8,183.3L239.7,172.7l13.1,10.5c0,0,0,.1,0,.1Z" class="g1b_274"/>
<path d="M252.8,183.2L239.7,172.7q0,-.1,0,-.1l13.1,10.5q0,.1,0,.1Z" class="g1c_274"/>
<path d="M252.8,183.1L239.7,172.6q0,-.1,0,-.1l13.1,10.6Z" class="g1d_274"/>
<path d="M252.8,183.1L239.7,172.5c0,0,.1,-.1,.1,-.1L252.9,183l-.1,.1Z" class="g1e_274"/>
<path d="M252.9,183L239.8,172.4c0,0,0,-.1,0,-.1l13.1,10.6v.1Z" class="g1f_274"/>
<path d="M252.9,182.9L239.8,172.3c0,0,0,-.1,.1,-.1L253,182.8c0,0,-.1,0,-.1,.1Z" class="g1g_274"/>
<path d="M253,182.8L239.9,172.2c0,0,0,-.1,0,-.1L253,182.7v.1Z" class="g1h_274"/>
<path d="M253,182.6L239.9,172.1q.1,-.1,.1,-.2l13.2,10.6q-.1,.1,-.2,.1Z" class="g1i_274"/>
<path d="M253.2,182.5L240,171.9c.2,-.2,.4,-.4,.6,-.5l13.2,10.5c-.3,.2,-.5,.4,-.6,.6Z" class="g1j_274"/>
<path d="M253.8,181.9L240.6,171.4c.1,-.1,.2,-.1,.3,-.2L254,181.8c-.1,0,-.2,.1,-.2,.1Z" class="g1i_274"/>
<path d="M254,181.8L240.9,171.2c0,0,.1,0,.1,0l13.1,10.5c0,0,-.1,.1,-.1,.1Z" class="g1h_274"/>
<path d="M254.1,181.7L241,171.2q0,-.1,0,-.1q.1,0,.2,0l13.1,10.6c0,0,-.1,0,-.1,0q-.1,0,-.1,0Z" class="g1g_274"/>
<path d="M254.3,181.7L241.2,171.1c0,0,.1,0,.1,-.1l13.1,10.6c0,0,-.1,0,-.1,.1Z" class="g1f_274"/>
<path d="M254.4,181.6L241.3,171q.1,0,.1,0l13.2,10.6q-.1,0,-.2,0Z" class="g1e_274"/>
<path d="M254.6,181.6L241.4,171q.1,0,.2,0l13.1,10.5c0,.1,-.1,.1,-.1,.1Z" class="g1d_274"/>
<path d="M254.7,181.5L241.6,171h.1l13.1,10.5c0,0,-.1,0,-.1,0Z" class="g1c_274"/>
<path d="M254.8,181.5L241.7,171c0,0,.1,0,.1,0l13.1,10.5c0,0,-.1,0,-.1,0Z" class="g1b_274"/>
<path d="M254.9,181.5L241.8,171c0,-.1,.1,-.1,.1,-.1L255,181.5h-.1Z" class="g1a_274"/>
<path d="M255,181.5L241.9,170.9q.1,0,.1,0l13.1,10.6H255Z" class="g19_274"/>
<path d="M255.1,181.5L242,170.9q.1,0,.1,.1l13.2,10.5q-.1,0,-.2,0Z" class="g18_274"/>
<path d="M255.3,181.5L242.1,171q.1,0,.1,0l13.2,10.5q-.1,0,-.1,0Z" class="g17_274"/>
<path d="M255.4,181.5L242.2,171q.1,0,.2,0l13.1,10.6q-.1,-.1,-.1,-.1Z" class="g16_274"/>
<path d="M255.5,181.6L242.4,171h.1l13.1,10.6c0,0,-.1,0,-.1,0Z" class="g15_274"/>
<path d="M255.6,181.6L242.5,171l.1,.1l13.1,10.5c0,0,-.1,0,-.1,0Z" class="g14_274"/>
<path d="M255.7,181.6L242.6,171.1c0,0,.1,0,.1,0l13.1,10.6l-.1,-.1Z" class="g13_274"/>
<path d="M255.8,181.7L242.7,171.1c.1,0,.1,.1,.2,.1L256,181.8q-.1,-.1,-.2,-.1Z" class="g12_274"/>
<path d="M256,181.8L242.9,171.2v.1l13.2,10.5q-.1,0,-.1,0Z" class="g11_274"/>
<path d="M256.5,182.4c.2,.8,-.4,1.8,-1.4,2.2c-1,.5,-2,.2,-2.3,-.6c-.2,-.8,.4,-1.9,1.4,-2.3c1,-.4,2,-.1,2.3,.7Z" class="g1a_274"/>
<path d="M239.9,168.6c.5,1.7,-.6,3.7,-2.6,4.6c-2,.8,-4.1,.2,-4.6,-1.4c-.5,-1.6,.6,-3.7,2.6,-4.5c2,-.9,4.1,-.3,4.6,1.3Z" class="g1a_274"/>
<path d="M233.4,172.9l-7.7,-6.3c-.3,-.3,-.5,-.6,-.7,-.9l7.8,6.3c.1,.3,.3,.6,.6,.9Z" class="g11_274"/>
<path d="M232.8,172L225,165.7c0,-.1,0,-.2,-.1,-.2c0,0,0,-.1,0,-.1l7.8,6.4q0,.1,.1,.2Z" class="g12_274"/>
<path d="M232.7,171.8l-7.8,-6.4c0,0,0,-.1,0,-.2l7.7,6.3c0,.1,0,.2,.1,.3Z" class="g13_274"/>
<path d="M232.6,171.5l-7.7,-6.3c0,0,-.1,-.1,-.1,-.2l7.8,6.4c0,0,0,.1,0,.1Z" class="g14_274"/>
<path d="M232.6,171.4l-7.8,-6.3c0,-.1,0,-.2,0,-.2l7.8,6.3c0,0,0,.1,0,.2Z" class="g15_274"/>
<path d="M232.6,171.2l-7.8,-6.3q0,-.1,0,-.2l7.7,6.3q0,.1,.1,.2Z" class="g16_274"/>
<path d="M232.5,171l-7.7,-6.3c0,0,0,-.1,0,-.1l7.7,6.3c0,0,0,.1,0,.1Z" class="g17_274"/>
<path d="M232.5,170.9l-7.7,-6.3q0,-.1,0,-.2l7.7,6.3q0,.1,0,.2Z" class="g18_274"/>
<path d="M232.5,170.7l-7.7,-6.3c0,0,0,-.1,0,-.1l7.8,6.3c0,0,0,.1,-.1,.1Z" class="g19_274"/>
<path d="M232.6,170.6l-7.8,-6.3q0,-.1,.1,-.2l7.7,6.3q0,.1,0,.2Z" class="g1a_274"/>
<path d="M232.6,170.4l-7.7,-6.3c0,0,0,-.1,0,-.1l7.7,6.3c0,0,0,.1,0,.1Z" class="g1b_274"/>
<path d="M232.6,170.3L224.9,164q0,-.1,0,-.2l7.8,6.3c0,.1,-.1,.1,-.1,.2Z" class="g1c_274"/>
<path d="M232.7,170.1l-7.8,-6.3c0,0,.1,-.1,.1,-.1l7.7,6.3c0,0,0,.1,0,.1Z" class="g1d_274"/>
<path d="M232.7,170L225,163.7c0,-.1,0,-.2,0,-.2l7.8,6.3c0,0,-.1,.1,-.1,.2Z" class="g1e_274"/>
<path d="M232.8,169.8L225,163.5c.1,-.1,.1,-.2,.1,-.2l7.7,6.3q0,.1,0,.2Z" class="g1f_274"/>
<path d="M232.8,169.6l-7.7,-6.3c0,-.1,.1,-.1,.1,-.2l7.8,6.3q-.1,.1,-.2,.2Z" class="g1g_274"/>
<path d="M233,169.4l-7.8,-6.3c.1,-.1,.1,-.2,.2,-.3l7.7,6.4c-.1,0,-.1,.1,-.1,.2Z" class="g1h_274"/>
<path d="M233.1,169.2l-7.7,-6.4c0,-.1,.1,-.2,.2,-.3l7.7,6.3c-.1,.1,-.1,.2,-.2,.4Z" class="g1i_274"/>
<path d="M233.3,168.8l-7.7,-6.3c.3,-.4,.7,-.8,1.2,-1.1l7.7,6.3c-.4,.3,-.9,.7,-1.2,1.1Z" class="g1j_274"/>
<path d="M234.5,167.7l-7.7,-6.3c.1,-.1,.3,-.2,.4,-.3l7.7,6.3c-.1,.1,-.2,.2,-.4,.3Z" class="g1i_274"/>
<path d="M234.9,167.4l-7.7,-6.3c.1,0,.2,-.1,.3,-.1l7.8,6.3c-.1,0,-.2,.1,-.4,.1Z" class="g1h_274"/>
<path d="M235.3,167.3L227.5,161q.1,0,.1,0c.1,-.1,.2,-.1,.3,-.2l7.7,6.4c-.1,0,-.2,0,-.3,.1Z" class="g1g_274"/>
<path d="M235.6,167.2l-7.7,-6.4c0,0,.1,0,.2,0l7.8,6.3c-.1,0,-.2,0,-.3,.1Z" class="g1f_274"/>
<path d="M235.9,167.1l-7.8,-6.3c.1,-.1,.2,-.1,.3,-.1l7.7,6.3q-.1,0,-.2,.1Z" class="g1e_274"/>
<path d="M236.1,167l-7.7,-6.3c.1,0,.2,-.1,.2,-.1l7.8,6.3c-.1,.1,-.2,.1,-.3,.1Z" class="g1d_274"/>
<path d="M236.4,166.9l-7.8,-6.3c.1,0,.2,0,.3,0l7.7,6.3q-.1,0,-.2,0Z" class="g1c_274"/>
<path d="M236.6,166.9l-7.7,-6.3q.1,0,.2,0l7.8,6.3c-.1,0,-.2,0,-.3,0Z" class="g1b_274"/>
<path d="M236.9,166.9l-7.8,-6.3c.1,0,.2,0,.2,0l7.8,6.3c-.1,0,-.2,0,-.2,0Z" class="g1a_274"/>
<path d="M237.1,166.9l-7.8,-6.3c.1,0,.2,0,.3,0l7.7,6.3q-.1,0,-.2,0Z" class="g19_274"/>
<path d="M237.3,166.9l-7.7,-6.3c0,0,.1,0,.2,0l7.7,6.3q-.1,0,-.2,0Z" class="g18_274"/>
<path d="M237.5,166.9l-7.7,-6.3q.1,0,.2,0l7.8,6.3c-.1,0,-.2,0,-.3,0Z" class="g17_274"/>
<path d="M237.8,166.9L230,160.6c.1,0,.2,0,.2,0L238,167c-.1,-.1,-.2,-.1,-.2,-.1Z" class="g16_274"/>
<path d="M238,167l-7.8,-6.4c.1,.1,.2,.1,.3,.1l7.7,6.3q-.1,0,-.2,0Z" class="g15_274"/>
<path d="M238.2,167l-7.7,-6.3c0,0,.1,.1,.2,.1l7.7,6.3c0,0,-.1,-.1,-.2,-.1Z" class="g14_274"/>
<path d="M238.4,167.1l-7.7,-6.3c.1,0,.2,.1,.3,.1l7.7,6.3c-.1,0,-.2,-.1,-.3,-.1Z" class="g13_274"/>
<path d="M238.7,167.2L231,160.9c0,.1,.2,.1,.2,.2l7.8,6.3c-.1,-.1,-.2,-.1,-.3,-.2Z" class="g12_274"/>
<path d="M239,167.4l-7.8,-6.3c.1,0,.2,.1,.2,.1l7.8,6.3c-.1,0,-.2,-.1,-.2,-.1Z" class="g11_274"/>
<g clip-path="url(#c5_274)">
<path d="M231.4,161.2l7.8,6.3c.2,.2,.5,.5,.6,.9l-7.7,-6.3c-.2,-.4,-.4,-.7,-.7,-.9Z" class="g1k_274"/>
<path d="M232.1,162.1l7.7,6.3q.1,.1,.1,.2v.1l-7.7,-6.4q-.1,-.1,-.1,-.2Z" class="g1l_274"/>
<path d="M232.2,162.3l7.7,6.4c0,0,.1,.1,.1,.1l-7.8,-6.3c0,0,0,-.1,0,-.2Z" class="g1m_274"/>
<path d="M232.2,162.5l7.8,6.3c0,.1,0,.2,0,.2l-7.7,-6.3c0,0,0,-.1,-.1,-.2Z" class="g1n_274"/>
<path d="M232.3,162.7L240,169q0,.1,0,.2l-7.7,-6.3q0,-.1,0,-.2Z" class="g1o_274"/>
<path d="M232.3,162.9l7.7,6.3c0,0,0,.1,0,.2L232.3,163c0,0,0,-.1,0,-.1Z" class="g1p_274"/>
<path d="M232.3,163l7.7,6.4c0,0,0,.1,0,.1l-7.7,-6.3c0,0,0,-.1,0,-.2Z" class="g1q_274"/>
<path d="M232.3,163.2l7.7,6.3q0,.1,0,.2l-7.7,-6.4c0,0,0,-.1,0,-.1Z" class="g1r_274"/>
<path d="M232.3,163.3l7.7,6.4c0,0,0,.1,0,.1l-7.7,-6.3c0,0,0,-.1,0,-.2Z" class="g1s_274"/>
<path d="M232.3,163.5l7.7,6.3q0,.1,0,.2l-7.7,-6.3c0,-.1,0,-.2,0,-.2Z" class="g1t_274"/>
<path d="M232.3,163.7L240,170c0,0,0,.1,0,.1l-7.8,-6.3c0,-.1,.1,-.1,.1,-.1Z" class="g1u_274"/>
<path d="M232.2,163.8l7.8,6.3c0,.1,-.1,.1,-.1,.2L232.2,164q0,-.1,0,-.2Z" class="g1v_274"/>
<path d="M232.2,164l7.7,6.3c0,0,0,.1,0,.1l-7.8,-6.3c0,0,.1,-.1,.1,-.1Z" class="g1w_274"/>
<path d="M232.1,164.1l7.8,6.3q-.1,.1,-.1,.2l-7.7,-6.3q0,-.1,0,-.2Z" class="g1x_274"/>
<path d="M232.1,164.3l7.7,6.3q0,.1,-.1,.2L232,164.5q0,-.1,.1,-.2Z" class="g1y_274"/>
<path d="M232,164.5l7.7,6.3q0,.1,-.1,.2l-7.7,-6.3c0,-.1,.1,-.1,.1,-.2Z" class="g1z_274"/>
<path d="M231.9,164.7l7.7,6.3c0,.1,-.1,.2,-.1,.2l-7.8,-6.3c.1,0,.1,-.1,.2,-.2Z" class="g20_274"/>
<path d="M231.7,164.9l7.8,6.3c-.1,.2,-.2,.3,-.2,.4l-7.8,-6.3c.1,-.1,.2,-.3,.2,-.4Z" class="g21_274"/>
<path d="M231.5,165.3l7.8,6.3c-.4,.4,-.8,.8,-1.3,1.1l-7.7,-6.3c.5,-.3,.9,-.7,1.2,-1.1Z" class="g22_274"/>
<path d="M230.3,166.4l7.7,6.3c-.1,.1,-.2,.2,-.4,.3l-7.7,-6.4c.1,0,.3,-.1,.4,-.2Z" class="g21_274"/>
<path d="M229.9,166.6l7.7,6.4c-.1,0,-.2,.1,-.3,.1l-7.8,-6.3c.2,0,.3,-.1,.4,-.2Z" class="g20_274"/>
<path d="M229.5,166.8l7.8,6.3c-.1,.1,-.2,.1,-.3,.1l-7.7,-6.3c0,0,.1,0,.2,-.1Z" class="g1z_274"/>
<path d="M229.3,166.9l7.7,6.3c-.1,.1,-.2,.1,-.3,.1L229,167c.1,0,.2,0,.3,-.1Z" class="g1y_274"/>
<path d="M229,167l7.7,6.3c-.1,.1,-.2,.1,-.2,.1l-7.8,-6.3c.1,0,.2,-.1,.3,-.1Z" class="g1x_274"/>
<path d="M228.7,167.1l7.8,6.3c-.1,0,-.2,0,-.3,.1l-7.7,-6.4q.1,0,.2,0Z" class="g1w_274"/>
<path d="M228.5,167.1l7.7,6.4c-.1,0,-.2,0,-.2,0l-7.8,-6.3c.1,0,.2,0,.3,-.1Z" class="g1v_274"/>
<path d="M228.2,167.2l7.8,6.3c-.1,0,-.2,0,-.3,0L228,167.2c.1,0,.2,0,.2,0Z" class="g1u_274"/>
<path d="M228,167.2l7.7,6.3c0,0,-.1,0,-.2,0l-7.7,-6.3q.1,0,.2,0Z" class="g1t_274"/>
<path d="M227.8,167.2l7.7,6.3q-.1,0,-.2,0l-7.8,-6.3c.1,0,.2,0,.3,0Z" class="g1s_274"/>
<path d="M227.5,167.2l7.8,6.3c-.1,0,-.2,0,-.2,0l-7.8,-6.3c.1,0,.2,0,.2,0Z" class="g1r_274"/>
<path d="M227.3,167.2l7.8,6.3c-.1,0,-.2,0,-.3,0l-7.7,-6.3q.1,0,.2,0Z" class="g1q_274"/>
<path d="M227.1,167.2l7.7,6.3c0,0,-.1,0,-.2,-.1l-7.7,-6.3c.1,0,.1,.1,.2,.1Z" class="g1p_274"/>
<path d="M226.9,167.1l7.7,6.3q-.1,0,-.2,0l-7.8,-6.3c.1,0,.2,0,.3,0Z" class="g1o_274"/>
<path d="M226.6,167.1l7.8,6.3c-.1,0,-.2,-.1,-.3,-.1L226.4,167c.1,0,.2,0,.2,.1Z" class="g1n_274"/>
<path d="M226.4,167l7.7,6.3c0,0,-.1,-.1,-.2,-.1l-7.7,-6.3c0,0,.1,.1,.2,.1Z" class="g1m_274"/>
<path d="M226.2,166.9l7.7,6.3c-.1,-.1,-.2,-.1,-.3,-.2l-7.7,-6.3c.1,.1,.2,.1,.3,.2Z" class="g1l_274"/>
<path d="M225.9,166.7l7.7,6.3c0,0,-.1,-.1,-.2,-.1l-7.7,-6.3c0,0,.1,.1,.2,.1Z" class="g1k_274"/>
</g>
<path d="M212.6,159.1c-3.1,-6.2,2.8,-13.2,9.5,-11.1c2,.6,3.6,2,4.7,4c-1.3,-2.4,-4,-3.9,-7.1,-3.7c3.1,-.2,5.8,1.3,7.1,3.7c3.2,7.1,-3.7,13.3,-9.8,11c-2.7,-1,-4,-3,-4.4,-3.9Z" class="g23_274"/>
<path d="M226.8,152c.1,.2,.2,.6,.3,.8l.2,.6c.1,.2,.1,.5,.2,.8l.1,.6c0,.2,0,.5,0,.8v.6c-.1,.8,-.1,.9,-.3,1.6l-.2,.6c-.2,.5,-.5,1,-.9,1.7l-.3,.4c-.5,.6,-.6,.6,-.9,1l-.4,.3c-.3,.2,-.6,.4,-.7,.5l-.4,.2c-.2,.1,-.4,.2,-.6,.3l-.3,.1c-.2,.1,-.3,.1,-.4,.2l-.4,.1c-.1,0,-.2,.1,-.3,.1h-.3c-.1,0,-.2,.1,-.3,.1h-.3c-.1,0,-.2,.1,-.3,.1h-.2c-.1,0,-.2,0,-.3,0h-.3c0,0,-.1,0,-.2,0H219c-.1,0,-.2,-.1,-.2,-.1h-.3c-.1,0,-.2,0,-.3,-.1h-.3c-.1,0,-.2,-.1,-.3,-.1l-.3,-.1c-.1,0,-.3,-.1,-.4,-.1l-.3,-.2c-.2,0,-.4,-.1,-.5,-.2l-.4,-.2c-.2,-.1,-.4,-.2,-.6,-.4l-.4,-.3c-.3,-.2,-.6,-.5,-.8,-.7l-.4,-.5c-.4,-.5,-.5,-.7,-.9,-1.4l-.3,-.5c0,-.3,-.2,-.6,-.2,-.8l-.2,-.6c0,-.2,-.1,-.5,-.1,-.7v-1.6c.1,-.8,.1,-.9,.3,-1.6l.2,-.6c.2,-.5,.4,-1,.9,-1.7l.3,-.4q.5,-.6,.9,-1l.4,-.3c.2,-.2,.5,-.4,.7,-.5l.4,-.2c.2,-.1,.4,-.2,.5,-.3l.4,-.1c.1,-.1,.3,-.1,.4,-.2l.3,-.1c.1,0,.3,0,.4,-.1h.3c0,0,.2,-.1,.3,-.1h.2c.1,0,.2,0,.3,-.1h.3c.1,0,.2,0,.2,0h.3c.1,0,.2,0,.3,0h.2c.1,.1,.2,.1,.3,.1h.3c0,0,.2,.1,.2,.1h.3c.1,0,.2,.1,.3,.1l.4,.1c.1,0,.2,.1,.3,.1l.4,.2c.1,0,.3,.1,.4,.2l.5,.2c.1,.1,.4,.3,.5,.4l.5,.3c.2,.2,.5,.5,.8,.7l.4,.5c.4,.5,.5,.7,.9,1.4c-1.2,-2.4,-3.9,-3.9,-7,-3.7q-.1,0,-.1,0c-2.7,-1,-8.7,3.2,-6.4,7.8c2.3,4.4,8.9,2.9,10.3,-1.3c1.3,-3.8,-1.8,-6.4,-3.8,-6.5c3.1,-.2,5.8,1.3,7,3.7Z" class="g23_274"/>
<path d="M226.8,152c.1,.2,.2,.6,.3,.8l.2,.6c.1,.2,.1,.5,.2,.8l.1,.6c0,.2,0,.5,0,.8v.6c-.1,.8,-.1,.9,-.3,1.6l-.2,.6c-.2,.5,-.5,1,-.9,1.7l-.3,.4c-.5,.6,-.6,.6,-.9,1l-.4,.3c-.3,.2,-.6,.4,-.7,.5l-.4,.2c-.2,.1,-.4,.2,-.6,.3l-.3,.1c-.2,.1,-.3,.1,-.4,.2l-.4,.1c-.1,0,-.2,.1,-.3,.1h-.3c-.1,0,-.2,.1,-.3,.1h-.3c-.1,0,-.2,.1,-.3,.1h-.2c-.1,0,-.2,0,-.3,0h-.3c0,0,-.1,0,-.2,0H219c-.1,0,-.2,-.1,-.2,-.1h-.3c-.1,0,-.2,0,-.3,-.1h-.3c-.1,0,-.2,-.1,-.3,-.1l-.3,-.1c-.1,0,-.3,-.1,-.4,-.1l-.3,-.2c-.2,0,-.4,-.1,-.5,-.2l-.4,-.2c-.2,-.1,-.4,-.2,-.6,-.4l-.4,-.3c-.3,-.2,-.6,-.5,-.8,-.7l-.4,-.5c-.4,-.5,-.5,-.7,-.9,-1.4l-.3,-.5c0,-.3,-.2,-.6,-.2,-.8l-.2,-.6c0,-.2,-.1,-.5,-.1,-.7v-1.6c.1,-.8,.1,-.9,.3,-1.6l.2,-.6c.2,-.5,.4,-1,.9,-1.7l.3,-.4q.5,-.6,.9,-1l.4,-.3c.2,-.2,.5,-.4,.7,-.5l.4,-.2c.2,-.1,.4,-.2,.5,-.3l.4,-.1c.1,-.1,.3,-.1,.4,-.2l.3,-.1c.1,0,.3,0,.4,-.1h.3c0,0,.2,-.1,.3,-.1h.2c.1,0,.2,0,.3,-.1h.3c.1,0,.2,0,.2,0h.3c.1,0,.2,0,.3,0h.2c.1,.1,.2,.1,.3,.1h.3c0,0,.2,.1,.2,.1h.3c.1,0,.2,.1,.3,.1l.4,.1c.1,0,.2,.1,.3,.1l.4,.2c.1,0,.3,.1,.4,.2l.5,.2c.1,.1,.4,.3,.5,.4l.5,.3c.2,.2,.5,.5,.8,.7l.4,.5c.4,.5,.5,.7,.9,1.4c-1.2,-2.2,-3.6,-3.7,-6.5,-3.7c-5.2,-1.3,-9.2,4.4,-7,8.2c2.7,4.6,9.3,2.7,10.7,-1.8c.9,-3.3,-1.2,-5.9,-3.7,-6.4c2.9,0,5.3,1.5,6.5,3.7Z" class="g24_274"/>
<path d="M226.8,152c.1,.2,.2,.6,.3,.8l.2,.6c.1,.2,.1,.5,.2,.8l.1,.6c0,.2,0,.5,0,.8v.6c-.1,.8,-.1,.9,-.3,1.6l-.2,.6c-.2,.5,-.5,1,-.9,1.7l-.3,.4c-.5,.6,-.6,.6,-.9,1l-.4,.3c-.3,.2,-.6,.4,-.7,.5l-.4,.2c-.2,.1,-.4,.2,-.6,.3l-.3,.1c-.2,.1,-.3,.1,-.4,.2l-.4,.1c-.1,0,-.2,.1,-.3,.1h-.3c-.1,0,-.2,.1,-.3,.1h-.3c-.1,0,-.2,.1,-.3,.1h-.2c-.1,0,-.2,0,-.3,0h-.3c0,0,-.1,0,-.2,0H219c-.1,0,-.2,-.1,-.2,-.1h-.3c-.1,0,-.2,0,-.3,-.1h-.3c-.1,0,-.2,-.1,-.3,-.1l-.3,-.1c-.1,0,-.3,-.1,-.4,-.1l-.3,-.2c-.2,0,-.4,-.1,-.5,-.2l-.4,-.2c-.2,-.1,-.4,-.2,-.6,-.4l-.4,-.3c-.3,-.2,-.6,-.5,-.8,-.7l-.4,-.5c-.4,-.5,-.5,-.7,-.9,-1.4l-.3,-.5c0,-.3,-.2,-.6,-.2,-.8l-.2,-.6c0,-.2,-.1,-.5,-.1,-.7v-1.6c.1,-.8,.1,-.9,.3,-1.6l.2,-.6c.2,-.5,.4,-1,.9,-1.7l.3,-.4q.5,-.6,.9,-1l.4,-.3c.2,-.2,.5,-.4,.7,-.5l.4,-.2c.2,-.1,.4,-.2,.5,-.3l.4,-.1c.1,-.1,.3,-.1,.4,-.2l.3,-.1c.1,0,.3,0,.4,-.1h.3c0,0,.2,-.1,.3,-.1h.2c.1,0,.2,0,.3,-.1h.3c.1,0,.2,0,.2,0h.3c.1,0,.2,0,.3,0h.2c.1,.1,.2,.1,.3,.1h.3c0,0,.2,.1,.2,.1h.3c.1,0,.2,.1,.3,.1l.4,.1c.1,0,.2,.1,.3,.1l.4,.2c.1,0,.3,.1,.4,.2l.5,.2c.1,.1,.4,.3,.5,.4l.5,.3c.2,.2,.5,.5,.8,.7l.4,.5c.4,.5,.5,.7,.9,1.4c-1.1,-2.1,-3.3,-3.5,-5.9,-3.7c0,0,-.1,0,-.1,0c-5.6,-1.6,-10,4.6,-7.5,8.6c2.8,4.6,9.8,2.4,11,-2.3c.7,-2.8,-.8,-5.5,-3.4,-6.3c2.6,.2,4.8,1.6,5.9,3.7Z" class="g25_274"/>
<path d="M226.8,152c.1,.2,.2,.6,.3,.8l.2,.6c.1,.2,.1,.5,.2,.8l.1,.6c0,.2,0,.5,0,.8v.6c-.1,.8,-.1,.9,-.3,1.6l-.2,.6c-.2,.5,-.5,1,-.9,1.7l-.3,.4c-.5,.6,-.6,.6,-.9,1l-.4,.3c-.3,.2,-.6,.4,-.7,.5l-.4,.2c-.2,.1,-.4,.2,-.6,.3l-.3,.1c-.2,.1,-.3,.1,-.4,.2l-.4,.1c-.1,0,-.2,.1,-.3,.1h-.3c-.1,0,-.2,.1,-.3,.1h-.3c-.1,0,-.2,.1,-.3,.1h-.2c-.1,0,-.2,0,-.3,0h-.3c0,0,-.1,0,-.2,0H219c-.1,0,-.2,-.1,-.2,-.1h-.3c-.1,0,-.2,0,-.3,-.1h-.3c-.1,0,-.2,-.1,-.3,-.1l-.3,-.1c-.1,0,-.3,-.1,-.4,-.1l-.3,-.2c-.2,0,-.4,-.1,-.5,-.2l-.4,-.2c-.2,-.1,-.4,-.2,-.6,-.4l-.4,-.3c-.3,-.2,-.6,-.5,-.8,-.7l-.4,-.5c-.4,-.5,-.5,-.7,-.9,-1.4l-.3,-.5c0,-.3,-.2,-.6,-.2,-.8l-.2,-.6c0,-.2,-.1,-.5,-.1,-.7v-1.6c.1,-.8,.1,-.9,.3,-1.6l.2,-.6c.2,-.5,.4,-1,.9,-1.7l.3,-.4q.5,-.6,.9,-1l.4,-.3c.2,-.2,.5,-.4,.7,-.5l.4,-.2c.2,-.1,.4,-.2,.5,-.3l.4,-.1c.1,-.1,.3,-.1,.4,-.2l.3,-.1c.1,0,.3,0,.4,-.1h.3c0,0,.2,-.1,.3,-.1h.2c.1,0,.2,0,.3,-.1h.3c.1,0,.2,0,.2,0h.3c.1,0,.2,0,.3,0h.2c.1,.1,.2,.1,.3,.1h.3c0,0,.2,.1,.2,.1h.3c.1,0,.2,.1,.3,.1l.4,.1c.1,0,.2,.1,.3,.1l.4,.2c.1,0,.3,.1,.4,.2l.5,.2c.1,.1,.4,.3,.5,.4l.5,.3c.2,.2,.5,.5,.8,.7l.4,.5c.4,.5,.5,.7,.9,1.4c-1,-1.9,-3,-3.3,-5.3,-3.6v-.1c-4.9,-2,-10.6,3,-8.8,7.8c2,5.4,9.5,4.3,11.5,-.6c1.3,-2.8,0,-6,-2.7,-7.1c2.3,.3,4.3,1.7,5.3,3.6Z" class="g26_274"/>
<path d="M226.8,152c.1,.2,.2,.6,.3,.8l.2,.6c.1,.2,.1,.5,.2,.8l.1,.6c0,.2,0,.5,0,.8v.6c-.1,.8,-.1,.9,-.3,1.6l-.2,.6c-.2,.5,-.5,1,-.9,1.7l-.3,.4c-.5,.6,-.6,.6,-.9,1l-.4,.3c-.3,.2,-.6,.4,-.7,.5l-.4,.2c-.2,.1,-.4,.2,-.6,.3l-.3,.1c-.2,.1,-.3,.1,-.4,.2l-.4,.1c-.1,0,-.2,.1,-.3,.1h-.3c-.1,0,-.2,.1,-.3,.1h-.3c-.1,0,-.2,.1,-.3,.1h-.2c-.1,0,-.2,0,-.3,0h-.3c0,0,-.1,0,-.2,0H219c-.1,0,-.2,-.1,-.2,-.1h-.3c-.1,0,-.2,0,-.3,-.1h-.3c-.1,0,-.2,-.1,-.3,-.1l-.3,-.1c-.1,0,-.3,-.1,-.4,-.1l-.3,-.2c-.2,0,-.4,-.1,-.5,-.2l-.4,-.2c-.2,-.1,-.4,-.2,-.6,-.4l-.4,-.3c-.3,-.2,-.6,-.5,-.8,-.7l-.4,-.5c-.4,-.5,-.5,-.7,-.9,-1.4l-.3,-.5c0,-.3,-.2,-.6,-.2,-.8l-.2,-.6c0,-.2,-.1,-.5,-.1,-.7v-1.6c.1,-.8,.1,-.9,.3,-1.6l.2,-.6c.2,-.5,.4,-1,.9,-1.7l.3,-.4q.5,-.6,.9,-1l.4,-.3c.2,-.2,.5,-.4,.7,-.5l.4,-.2c.2,-.1,.4,-.2,.5,-.3l.4,-.1c.1,-.1,.3,-.1,.4,-.2l.3,-.1c.1,0,.3,0,.4,-.1h.3c0,0,.2,-.1,.3,-.1h.2c.1,0,.2,0,.3,-.1h.3c.1,0,.2,0,.2,0h.3c.1,0,.2,0,.3,0h.2c.1,.1,.2,.1,.3,.1h.3c0,0,.2,.1,.2,.1h.3c.1,0,.2,.1,.3,.1l.4,.1c.1,0,.2,.1,.3,.1l.4,.2c.1,0,.3,.1,.4,.2l.5,.2c.1,.1,.4,.3,.5,.4l.5,.3c.2,.2,.5,.5,.8,.7l.4,.5c.4,.5,.5,.7,.9,1.4c-.9,-1.8,-2.7,-3.1,-4.8,-3.6c-.1,0,-.2,0,-.2,-.1c-5.3,-2.2,-11.2,3.1,-9.1,8.2c2.2,5.4,9.5,4.2,11.7,-.6c1.4,-3,.3,-6.1,-2.4,-7.5c2.1,.5,3.9,1.8,4.8,3.6Z" class="g27_274"/>
<path d="M226.8,152c.1,.2,.2,.6,.3,.8l.2,.6c.1,.2,.1,.5,.2,.8l.1,.6c0,.2,0,.5,0,.8v.6c-.1,.8,-.1,.9,-.3,1.6l-.2,.6c-.2,.5,-.5,1,-.9,1.7l-.3,.4c-.5,.6,-.6,.6,-.9,1l-.4,.3c-.3,.2,-.6,.4,-.7,.5l-.4,.2c-.2,.1,-.4,.2,-.6,.3l-.3,.1c-.2,.1,-.3,.1,-.4,.2l-.4,.1c-.1,0,-.2,.1,-.3,.1h-.3c-.1,0,-.2,.1,-.3,.1h-.3c-.1,0,-.2,.1,-.3,.1h-.2c-.1,0,-.2,0,-.3,0h-.3c0,0,-.1,0,-.2,0H219c-.1,0,-.2,-.1,-.2,-.1h-.3c-.1,0,-.2,0,-.3,-.1h-.3c-.1,0,-.2,-.1,-.3,-.1l-.3,-.1c-.1,0,-.3,-.1,-.4,-.1l-.3,-.2c-.2,0,-.4,-.1,-.5,-.2l-.4,-.2c-.2,-.1,-.4,-.2,-.6,-.4l-.4,-.3c-.3,-.2,-.6,-.5,-.8,-.7l-.4,-.5c-.4,-.5,-.5,-.7,-.9,-1.4l-.3,-.5c0,-.3,-.2,-.6,-.2,-.8l-.2,-.6c0,-.2,-.1,-.5,-.1,-.7v-1.6c.1,-.8,.1,-.9,.3,-1.6l.2,-.6c.2,-.5,.4,-1,.9,-1.7l.3,-.4q.5,-.6,.9,-1l.4,-.3c.2,-.2,.5,-.4,.7,-.5l.4,-.2c.2,-.1,.4,-.2,.5,-.3l.4,-.1c.1,-.1,.3,-.1,.4,-.2l.3,-.1c.1,0,.3,0,.4,-.1h.3c0,0,.2,-.1,.3,-.1h.2c.1,0,.2,0,.3,-.1h.3c.1,0,.2,0,.2,0h.3c.1,0,.2,0,.3,0h.2c.1,.1,.2,.1,.3,.1h.3c0,0,.2,.1,.2,.1h.3c.1,0,.2,.1,.3,.1l.4,.1c.1,0,.2,.1,.3,.1l.4,.2c.1,0,.3,.1,.4,.2l.5,.2c.1,.1,.4,.3,.5,.4l.5,.3c.2,.2,.5,.5,.8,.7l.4,.5c.4,.5,.5,.7,.9,1.4c-.9,-1.7,-2.4,-2.9,-4.4,-3.4c0,-.1,-.1,-.1,-.2,-.2c-5.1,-2.7,-11.6,2.7,-9.8,8c1.8,5.2,9.5,5.1,12.2,-.1c1.5,-2.9,.5,-6.2,-2.2,-7.7c2,.5,3.5,1.7,4.4,3.4Z" class="g28_274"/>
<path d="M226.8,152c.1,.2,.2,.6,.3,.8l.2,.6c.1,.2,.1,.5,.2,.8l.1,.6c0,.2,0,.5,0,.8v.6c-.1,.8,-.1,.9,-.3,1.6l-.2,.6c-.2,.5,-.5,1,-.9,1.7l-.3,.4c-.5,.6,-.6,.6,-.9,1l-.4,.3c-.3,.2,-.6,.4,-.7,.5l-.4,.2c-.2,.1,-.4,.2,-.6,.3l-.3,.1c-.2,.1,-.3,.1,-.4,.2l-.4,.1c-.1,0,-.2,.1,-.3,.1h-.3c-.1,0,-.2,.1,-.3,.1h-.3c-.1,0,-.2,.1,-.3,.1h-.2c-.1,0,-.2,0,-.3,0h-.3c0,0,-.1,0,-.2,0H219c-.1,0,-.2,-.1,-.2,-.1h-.3c-.1,0,-.2,0,-.3,-.1h-.3c-.1,0,-.2,-.1,-.3,-.1l-.3,-.1c-.1,0,-.3,-.1,-.4,-.1l-.3,-.2c-.2,0,-.4,-.1,-.5,-.2l-.4,-.2c-.2,-.1,-.4,-.2,-.6,-.4l-.4,-.3c-.3,-.2,-.6,-.5,-.8,-.7l-.4,-.5c-.4,-.5,-.5,-.7,-.9,-1.4l-.3,-.5c0,-.3,-.2,-.6,-.2,-.8l-.2,-.6c0,-.2,-.1,-.5,-.1,-.7v-1.6c.1,-.8,.1,-.9,.3,-1.6l.2,-.6c.2,-.5,.4,-1,.9,-1.7l.3,-.4q.5,-.6,.9,-1l.4,-.3c.2,-.2,.5,-.4,.7,-.5l.4,-.2c.2,-.1,.4,-.2,.5,-.3l.4,-.1c.1,-.1,.3,-.1,.4,-.2l.3,-.1c.1,0,.3,0,.4,-.1h.3c0,0,.2,-.1,.3,-.1h.2c.1,0,.2,0,.3,-.1h.3c.1,0,.2,0,.2,0h.3c.1,0,.2,0,.3,0h.2c.1,.1,.2,.1,.3,.1h.3c0,0,.2,.1,.2,.1h.3c.1,0,.2,.1,.3,.1l.4,.1c.1,0,.2,.1,.3,.1l.4,.2c.1,0,.3,.1,.4,.2l.5,.2c.1,.1,.4,.3,.5,.4l.5,.3c.2,.2,.5,.5,.8,.7l.4,.5c.4,.5,.5,.7,.9,1.4c-.8,-1.5,-2.2,-2.7,-3.9,-3.3c-.1,0,-.2,-.1,-.2,-.2c-5,-2.9,-11.8,1.9,-10.5,7.5c1.1,5.2,8.5,6.7,12.2,1.2c1.7,-2.6,1.7,-6.3,-1.5,-8.5c1.7,.6,3.1,1.8,3.9,3.3Z" class="g29_274"/>
<path d="M226.8,152c0,0,.2,.6,.3,.8l.2,.6c.1,.2,.1,.5,.2,.8l.1,.6c0,.2,0,.5,0,.8v.6c-.1,.8,-.1,.9,-.3,1.6l-.2,.6c-.2,.5,-.5,1,-.9,1.7l-.3,.4c-.5,.6,-.6,.6,-.9,1l-.4,.3c-.3,.2,-.6,.4,-.7,.5l-.4,.2c-.2,.1,-.4,.2,-.6,.3l-.3,.1c-.2,.1,-.3,.1,-.4,.2l-.4,.1c-.1,0,-.2,.1,-.3,.1h-.3c-.1,0,-.2,.1,-.3,.1h-.3c-.1,0,-.2,.1,-.3,.1h-.2c-.1,0,-.2,0,-.3,0h-.3c0,0,-.1,0,-.2,0H219c-.1,0,-.2,-.1,-.2,-.1h-.3c-.1,0,-.2,0,-.3,-.1h-.3c-.1,0,-.2,-.1,-.3,-.1l-.3,-.1c-.1,0,-.3,-.1,-.4,-.1l-.3,-.2c-.2,0,-.4,-.1,-.5,-.2l-.4,-.2c-.2,-.1,-.4,-.2,-.6,-.4l-.4,-.3c-.3,-.2,-.6,-.5,-.8,-.7l-.4,-.5c-.4,-.5,-.5,-.7,-.9,-1.4l-.3,-.5c0,-.3,-.2,-.6,-.2,-.8l-.2,-.6c0,-.2,-.1,-.5,-.1,-.7v-1.6c.1,-.8,.1,-.9,.3,-1.6l.2,-.6c.2,-.5,.4,-1,.9,-1.7l.3,-.4q.5,-.6,.9,-1l.4,-.3c.2,-.2,.5,-.4,.7,-.5l.4,-.2c.2,-.1,.4,-.2,.5,-.3l.4,-.1c.1,-.1,.3,-.1,.4,-.2l.3,-.1c.1,0,.3,0,.4,-.1h.3c0,0,.2,-.1,.3,-.1h.2c.1,0,.2,0,.3,-.1h.3c.1,0,.2,0,.2,0h.3c.1,0,.2,0,.3,0h.2c.1,.1,.2,.1,.3,.1h.3c0,0,.2,.1,.2,.1h.3c.1,0,.2,.1,.3,.1l.4,.1c.1,0,.2,.1,.3,.1l.4,.2c.1,0,.3,.1,.4,.2l.5,.2c.1,.1,.4,.3,.5,.4l.5,.3c.2,.2,.5,.5,.8,.7l.4,.5c.4,.5,.5,.7,.9,1.4c-.7,-1.4,-1.9,-2.5,-3.4,-3.1c-.1,-.1,-.2,-.2,-.3,-.2C218.2,145.4,211,150.2,212,156c1.1,5.5,8.8,7.2,12.7,1.3c1.9,-2.8,1.3,-6.7,-1.3,-8.4c1.5,.6,2.7,1.7,3.4,3.1Z" class="g2a_274"/>
<path d="M219.5,147.6c.2,0,.4,0,.6,0h.2c.1,.1,.2,.1,.3,.1h.3c0,0,.2,.1,.2,.1h.3c.1,0,.2,.1,.3,.1l.4,.1c.1,0,.2,.1,.3,.1l.4,.2c.1,0,.3,.1,.4,.2l.5,.2c.1,.1,.4,.3,.5,.4l.5,.3c.2,.2,.5,.5,.8,.7l.4,.5c.4,.5,.5,.7,.9,1.4c-.7,-1.2,-1.7,-2.2,-2.9,-2.9c-.1,-.1,-.2,-.1,-.3,-.2c-1.2,-.9,-2.7,-1.3,-4.3,-1.3h.2Z" class="g2b_274"/>
<path d="M226.8,152c.1,.2,.2,.6,.3,.8l.2,.6c.1,.2,.1,.5,.2,.8l.1,.6c0,.2,0,.5,0,.8v.6c-.1,.8,-.1,.9,-.3,1.6l-.2,.6c-.2,.5,-.5,1,-.9,1.7l-.3,.4c-.5,.6,-.6,.6,-.9,1l-.4,.3c-.3,.2,-.6,.4,-.7,.5l-.4,.2c-.2,.1,-.4,.2,-.6,.3l-.3,.1c-.2,.1,-.3,.1,-.4,.2l-.4,.1c-.1,0,-.2,.1,-.3,.1h-.3c-.1,0,-.2,.1,-.3,.1h-.3c-.1,0,-.2,.1,-.3,.1h-.2c-.1,0,-.2,0,-.3,0h-.3c0,0,-.1,0,-.2,0H219c-.1,0,-.2,-.1,-.2,-.1h-.3c-.1,0,-.2,0,-.3,-.1h-.3c-.1,0,-.2,-.1,-.3,-.1l-.3,-.1c-.1,0,-.3,-.1,-.4,-.1l-.3,-.2c-.2,0,-.4,-.1,-.5,-.2l-.4,-.2c-.2,-.1,-.4,-.2,-.6,-.4l-.4,-.3c-.3,-.2,-.6,-.5,-.8,-.7l-.4,-.5c-.4,-.5,-.5,-.7,-.9,-1.4l-.3,-.5c0,-.3,-.2,-.6,-.2,-.8l-.2,-.6c0,-.2,-.1,-.5,-.1,-.7v-1.6c.1,-.8,.1,-.9,.3,-1.6l.2,-.6c.3,-.7,.3,-.8,.6,-1.3l-.1,.2c-3.2,5.8,2.2,11,7.6,9.4c5.5,-1.6,7.6,-8.5,3.5,-11.9c1.2,.7,2.2,1.7,2.9,2.9Z" class="g2b_274"/>
<path d="M221.1,147.8c.2,0,.4,0,.6,.1l.4,.1c.1,0,.2,.1,.3,.1l.4,.2c.1,0,.3,.1,.4,.2l.5,.2c.1,.1,.4,.3,.5,.4l.5,.3c.2,.2,.5,.5,.8,.7l.4,.5c.4,.5,.5,.7,.9,1.4c-.6,-1.1,-1.4,-2,-2.5,-2.6c0,-.1,-.1,-.2,-.2,-.3c-.3,-.2,-1.2,-1,-3.1,-1.4q.1,.1,.1,.1Z" class="g2c_274"/>
<path d="M226.8,152c.1,.2,.2,.6,.3,.8l.2,.6c.1,.2,.1,.5,.2,.8l.1,.6c0,.2,0,.5,0,.8v.6c-.1,.8,-.1,.9,-.3,1.6l-.2,.6c-.2,.5,-.5,1,-.9,1.7l-.3,.4c-.5,.6,-.6,.6,-.9,1l-.4,.3c-.3,.2,-.6,.4,-.7,.5l-.4,.2c-.2,.1,-.4,.2,-.6,.3l-.3,.1c-.2,.1,-.3,.1,-.4,.2l-.4,.1c-.1,0,-.2,.1,-.3,.1h-.3c-.1,0,-.2,.1,-.3,.1h-.3c-.1,0,-.2,.1,-.3,.1h-.2c-.1,0,-.2,0,-.3,0h-.3c0,0,-.1,0,-.2,0H219c-.1,0,-.2,-.1,-.2,-.1h-.3c-.1,0,-.2,0,-.3,-.1h-.3c-.1,0,-.2,-.1,-.3,-.1l-.3,-.1c-.1,0,-.3,-.1,-.4,-.1l-.3,-.2c-.2,0,-.4,-.1,-.5,-.2l-.4,-.2c-.2,-.1,-.4,-.2,-.6,-.4l-.4,-.3c-.3,-.2,-.6,-.5,-.8,-.7l-.4,-.5c-.4,-.5,-.5,-.7,-.9,-1.4l-.3,-.5c0,-.3,-.2,-.6,-.2,-.8l-.2,-.6c0,-.2,-.1,-.5,-.1,-.7v-1.6c.1,-.8,.1,-.9,.2,-1.4v.1c-1.5,7,6,9.8,10.5,6.8c4.3,-2.8,5.1,-7.9,1.8,-11c1.1,.6,1.9,1.5,2.5,2.6Z" class="g2c_274"/>
<path d="M223.2,148.5c.3,.1,.5,.2,1,.6l.5,.3c.2,.2,.5,.5,.8,.7l.4,.5c.4,.5,.5,.7,.9,1.4c-.5,-.9,-1.1,-1.6,-1.9,-2.2c-.1,-.1,-.2,-.2,-.3,-.3c-.4,-.4,-.8,-.8,-1.7,-1.2c.1,.1,.3,.1,.3,.2Z" class="g2d_274"/>
<path d="M226.8,152c.1,.2,.2,.6,.3,.8l.2,.6c.1,.2,.1,.5,.2,.8l.1,.6c0,.2,0,.5,0,.8v.6c-.1,.8,-.1,.9,-.3,1.6l-.2,.6c-.2,.5,-.5,1,-.9,1.7l-.3,.4c-.5,.6,-.6,.6,-.9,1l-.4,.3c-.3,.2,-.6,.4,-.7,.5l-.4,.2c-.2,.1,-.4,.2,-.6,.3l-.3,.1c-.2,.1,-.3,.1,-.4,.2l-.4,.1c-.1,0,-.2,.1,-.3,.1h-.3c-.1,0,-.2,.1,-.3,.1h-.3c-.1,0,-.2,.1,-.3,.1h-.2c-.1,0,-.2,0,-.3,0h-.3c0,0,-.1,0,-.2,0H219c-.1,0,-.2,-.1,-.2,-.1h-.3c-.1,0,-.2,0,-.3,-.1h-.3c-.1,0,-.2,-.1,-.3,-.1l-.3,-.1c-.1,0,-.3,-.1,-.4,-.1l-.3,-.2c-.2,0,-.4,-.1,-.5,-.2l-.4,-.2c-.2,-.1,-.4,-.2,-.6,-.4l-.4,-.3c-.3,-.2,-.6,-.5,-.8,-.7l-.4,-.5c-.4,-.5,-.5,-.7,-.9,-1.4l-.3,-.5c0,-.3,-.2,-.6,-.2,-.8l-.2,-.6c0,-.2,-.1,-.5,-.1,-.7v-.9c0,-.2,0,-.3,0,-.5q0,.1,0,.1c-.1,7.1,8,8.8,12.7,4.2c2.1,-2,3.4,-6.5,.4,-9.6c.8,.6,1.4,1.3,1.9,2.2Z" class="g2d_274"/>
<path d="M225.5,150.1c.6,.7,.8,1,1.3,1.9c-.4,-.6,-.8,-1.2,-1.3,-1.7c0,-.1,-.1,-.2,-.2,-.3q-.3,-.3,-.7,-.6l.4,.3c.2,.1,.3,.3,.5,.4Z" class="g2e_274"/>
<path d="M226.8,152c.1,.2,.2,.6,.3,.8l.2,.6c.1,.2,.1,.5,.2,.8l.1,.6c0,.2,0,.5,0,.8v.6c-.1,.8,-.1,.9,-.3,1.6l-.2,.6c-.2,.5,-.5,1,-.9,1.7l-.3,.4c-.5,.6,-.6,.6,-.9,1l-.4,.3c-.3,.2,-.6,.4,-.7,.5l-.4,.2c-.2,.1,-.4,.2,-.6,.3l-.3,.1c-.2,.1,-.3,.1,-.4,.2l-.4,.1c-.1,0,-.2,.1,-.3,.1h-.3c-.1,0,-.2,.1,-.3,.1h-.3c-.1,0,-.2,.1,-.3,.1h-.2c-.1,0,-.2,0,-.3,0h-.3c0,0,-.1,0,-.2,0H219c-.1,0,-.2,-.1,-.2,-.1h-.3c-.1,0,-.2,0,-.3,-.1h-.3c-.1,0,-.2,-.1,-.3,-.1l-.3,-.1c-.1,0,-.3,-.1,-.4,-.1l-.3,-.2c-.2,0,-.4,-.1,-.5,-.2l-.4,-.2c-.2,-.1,-.4,-.2,-.6,-.4l-.4,-.3c-.3,-.2,-.6,-.5,-.8,-.7l-.4,-.5c-.4,-.5,-.5,-.7,-.9,-1.4l-.3,-.5c0,-.3,-.2,-.6,-.2,-.8c-.1,-.1,-.1,-.3,-.2,-.5c.1,.1,.1,.2,.1,.3c2.1,6.6,10.9,6,14,.6c.7,-1.3,2.1,-4.5,-.5,-7.9c.5,.5,.9,1.1,1.3,1.7Z" class="g2e_274"/>
<path d="M221.9,149.4c3.7,2.9,1.1,8.3,-3.2,9c-4,.7,-7.4,-3.5,-4.7,-7.4c.9,-1.4,4.5,-4.3,7.9,-1.6Z" class="g2f_274"/>
<path d="M223.1,151.4c1.5,4.4,-3.8,8.1,-7.4,6.3c-3.8,-1.9,-3.1,-7.2,1,-8.8c4.7,-1.7,6.4,2.4,6.4,2.5Z" class="g2g_274"/>
<path d="M222,150.1c3.1,4.4,-1.5,8.1,-4.9,7.7c-3.9,-.5,-5,-5.5,-1.7,-7.9c1.4,-1.1,2.8,-1.3,3.6,-1.2c1.7,0,3,1.4,3,1.4Z" class="g2h_274"/>
<path d="M222.5,151.6c1,2.7,-1.3,4.4,-2.1,5.1c-.5,.4,-2.7,1.3,-4.7,.3c-2.9,-1.5,-2.9,-6.7,1.9,-8c2.3,-.6,4.3,.8,4.9,2.6Z" class="g2i_274"/>
<path d="M222.3,151.9c.1,.8,.3,2.8,-1.9,4.4c-2.6,1.7,-4.8,.3,-4.8,.3c-3.1,-2.4,-1.8,-6.6,2.3,-7.5c2.2,-.5,4.2,1.4,4.4,2.8Z" class="g2j_274"/>
<path d="M222,153.4c-.6,3.1,-5.2,4.8,-7.3,1.8c-1.8,-2.5,1.1,-6.4,4.4,-5.9c1.4,.2,3.3,1.8,2.9,4.1Z" class="g2k_274"/>
<path d="M221.6,153.4c-.1,.3,-.9,1.7,-1.1,1.9c-.3,.3,-1.7,.9,-1.7,.9c-2.7,.5,-3.7,-.9,-4,-1.4c0,-.1,-1.1,-1.8,.6,-3.9c.2,-.3,1.7,-1.6,3.5,-1.3c1.7,.2,3.1,1.7,2.7,3.8Z" class="g2l_274"/>
<path d="M221.1,153.5c-.2,.6,-1.2,2.1,-2.3,2.3c-.7,.1,-2.6,.5,-3.7,-1.2c-.1,-.2,-1,-1.7,.5,-3.5c0,-.1,1.3,-1.5,3.2,-1.3c.7,.2,1.3,.5,1.4,.7l1,1.3c0,.1,0,1.5,-.1,1.7Z" class="g2m_274"/>
<path d="M220.6,153.5c-.1,.5,-1.5,1.8,-1.8,1.8c-.9,.2,-2.5,.5,-3.2,-.9c-.3,-.5,-.5,-1,-.5,-1.7c.1,-.1,.6,-1.3,.8,-1.5c0,0,1,-.9,1.7,-1c.3,-.1,1,-.1,1.7,.1c.8,.3,1.4,1.6,1.4,1.6c0,.1,0,1.5,-.1,1.6Z" class="g2n_274"/>
<path d="M220.2,152.5c0,.3,0,.8,-.2,1.1c0,0,-1.1,1,-1.1,1c-.2,.1,-1.5,.4,-1.5,.4c-.1,0,-1.1,-.6,-1.2,-.6c-.2,-.2,-.7,-1.3,-.7,-1.5c0,0,.3,-.9,.7,-1.5c.1,-.3,1.5,-.8,1.5,-.8l.8,-.1l.7,.3c.1,.1,.2,.2,.3,.3c.2,.3,.5,.5,.7,.8c.1,.2,0,.4,0,.6Z" class="g2o_274"/>
<path d="M219.3,153.6c-.1,.1,-.2,.2,-.4,.3c-.1,.1,-1.3,.4,-1.4,.3c-.1,0,-1,-.5,-1.1,-.6c-.1,-.1,-.2,-.3,-.3,-.5c0,-.1,.6,-1.5,.6,-1.6c.2,-.1,.5,-.2,.7,-.3l.9,-.1l.8,.4c.2,.1,.4,.3,.4,.4c0,0,-.2,1.6,-.2,1.7Z" class="g2p_274"/>
<path d="M217.7,153.5c-.1,0,-.2,0,-.2,-.1c0,0,.4,-1.6,.4,-1.6c.1,0,.3,0,.3,0l-.3,1.7c-.1,0,-.2,0,-.2,0Z" class="g2q_274"/>
<path d="M67.2,132.4H823.5" class="g2r_274"/>
<path d="M307.7,929.1c0,0,-1.6,0,-1.6,1.6v14.1c0,0,0,1.5,1.6,1.5h14.1c0,0,1.5,0,1.5,-1.5V930.7c0,0,0,-1.6,-1.5,-1.6H307.7Zm0,90.2c0,0,-1.6,0,-1.6,1.5v14.1c0,0,0,1.6,1.6,1.6h14.1c0,0,1.5,0,1.5,-1.6v-14.1c0,0,0,-1.5,-1.5,-1.5H307.7Z" class="g2s_274"/>
<path d="M608.1,1028.3h19.8" class="g2t_274"/>
<image clip-path="url(#c6_274)" preserveAspectRatio="none" x="52" y="809" width="773" height="34" xlink:href="img/2.png"/>
</svg>