<?xml version="1.0" encoding="UTF-8" standalone="no"?>
<!DOCTYPE svg PUBLIC "-//W3C//DTD SVG 1.1//EN"
"http://www.w3.org/Graphics/SVG/1.1/DTD/svg11.dtd">
<svg viewBox="0 0 907 1045" version="1.1" xmlns="http://www.w3.org/2000/svg" xmlns:xlink="http://www.w3.org/1999/xlink">
<defs>
<clipPath id="c0_370"><path d="M400.1,450.7V411h12.1V391.2H400.1V367.7H284.8v23.5h-2.4V411h2.4v39.7ZM279.3,464.8V362.2H414.2V464.8Z"/></clipPath>
<clipPath id="c1_370"><path d="M284.8,450.7V411h.3v39.5H399.9V411h.2v39.7Zm0,-59.5V367.7H400.1v23.5h-.2V368H285.1v23.2Z"/></clipPath>
<clipPath id="c2_370"><path d="M282.4,411V391.2h2.4V411Zm117.7,0V391.2h12.1V411Z"/></clipPath>
<clipPath id="c3_370"><path d="M285.3,411V391.2h41.4v1.4h31.2v-1.4h41.7V411H325.1v-7.4H290.7V411Z"/></clipPath>
<clipPath id="c4_370"><path d="M284.8,411V391.2h.3V411Zm115.1,0V391.2h.2V411Z"/></clipPath>
<clipPath id="c5_370"><path d="M285.1,411V391.2h.2V411Zm114.5,0V391.2h.3V411Z"/></clipPath>
<clipPath id="c6_370"><path d="M290.7,411v-7.4h34.4V411Z"/></clipPath>
<clipPath id="c7_370"><path d="M296.8,410.3c0,0,.3,0,.6,-.2c0,0,.4,-.3,.6,-.7c0,0,.2,-.4,.3,-1.2c0,0,-.3,.2,-.9,.2c0,0,-.7,.1,-.9,.2c0,0,-.3,.1,-.4,.3c0,0,-.1,.2,-.1,.5c0,0,0,.4,.2,.6c0,0,.2,.3,.6,.3ZM313,407.8v-.2c0,0,0,-.6,-.3,-1c0,0,-.3,-.3,-.7,-.3c0,0,-.5,0,-.8,.4c0,0,-.4,.3,-.6,1.1Zm.8,3l1.8,-2.6l-1,-2.5h.8l.3,.9c0,0,.2,.5,.4,1l1.2,-1.9h.9l-1.8,2.6l1.1,2.5h-.8l-.4,-1c0,0,-.2,-.4,-.3,-.8l-1.3,1.8Zm-17.2,.1c0,0,-.6,0,-1,-.4c0,0,-.3,-.3,-.3,-1c0,0,0,-.5,.2,-.9c0,0,.2,-.4,.6,-.6c0,0,.4,-.2,1.1,-.2c0,0,.6,0,.8,-.1c0,0,.3,0,.4,-.1c0,0,.1,-.3,.1,-.6c0,0,0,-.3,-.2,-.5c0,0,-.3,-.2,-.7,-.2c0,0,-.9,0,-1.2,.9h-.7c0,0,.4,-1.6,1.9,-1.6c0,0,.8,0,1.2,.4c0,0,.4,.4,.4,1c0,0,0,.4,-.1,.9l-.2,1.3c0,0,-.2,.6,-.2,1c0,0,0,.2,.1,.6h-.7c0,0,-.1,-.2,-.1,-.6c0,0,-.4,.4,-.7,.6c0,0,-.4,.1,-.7,.1Zm4.8,0c0,0,-.8,0,-1.2,-.4c0,0,-.5,-.5,-.5,-1.3v-.1l.7,-.1c0,0,0,.7,.3,1c0,0,.3,.3,.8,.3c0,0,.4,0,.7,-.2c0,0,.2,-.3,.2,-.6c0,0,0,-.3,-.1,-.5c0,0,-.2,-.2,-.7,-.4c0,0,-.7,-.4,-.9,-.5c0,0,-.2,-.2,-.3,-.5c0,0,-.1,-.2,-.1,-.5c0,0,0,-.7,.4,-1.1c0,0,.4,-.4,1.1,-.4c0,0,.8,0,1.2,.4c0,0,.4,.4,.5,1.2l-.7,.1c0,0,-.1,-.5,-.3,-.8c0,0,-.3,-.2,-.7,-.2c0,0,-.4,0,-.6,.2c0,0,-.2,.2,-.2,.4c0,0,0,.2,.1,.4c0,0,.1,.2,.7,.4c0,0,.8,.5,1,.7c0,0,.4,.4,.4,1c0,0,0,.6,-.5,1.1c0,0,-.5,.4,-1.3,.4Zm10,0c0,0,-.5,0,-.8,-.2c0,0,-.4,-.2,-.6,-.7c0,0,-.3,-.5,-.3,-1.2c0,0,0,-.9,.4,-1.7c0,0,.3,-.8,.8,-1.1c0,0,.5,-.4,1.1,-.4c0,0,.7,0,1.2,.5c0,0,.4,.6,.4,1.6c0,0,0,.4,0,.8h-3.1c0,0,0,.1,0,.3c0,0,0,.7,.2,1.1c0,0,.3,.3,.7,.3c0,0,.4,0,.7,-.3c0,0,.4,-.3,.6,-.8l.7,.1c0,0,-.2,.7,-.8,1.3c0,0,-.6,.4,-1.2,.4Zm7.8,0c0,0,-.4,0,-.6,-.2c0,0,-.3,-.2,-.3,-.6c0,0,0,-.1,.1,-.7l.5,-3h-.5l.1,-.7h.6l.2,-1.2l.8,-.6l-.3,1.8h.7l-.1,.7h-.7l-.5,2.8c0,0,-.1,.6,-.1,.7c0,0,0,.1,.1,.2c0,0,.1,.1,.2,.1c0,0,.2,0,.4,-.1l-.1,.7c0,0,-.2,.1,-.5,.1Zm-28.5,-.1l1.2,-7h.7l-.5,2.7c0,0,.4,-.5,.8,-.7c0,0,.3,-.2,.7,-.2c0,0,.5,0,.8,.3c0,0,.3,.3,.3,.9c0,0,0,.3,-.1,1l-.6,3h-.7l.6,-3.1c0,0,.1,-.6,.1,-.8c0,0,0,-.3,-.2,-.4c0,0,-.1,-.2,-.4,-.2c0,0,-.4,0,-.7,.2c0,0,-.3,.3,-.6,.7c0,0,-.2,.4,-.4,1.4l-.3,2.2Zm13.2,0l1.2,-7h.7l1,2.6c0,0,.4,1.2,.7,2c0,0,.2,.5,.4,1.4c0,0,.1,-1,.2,-1.9l.7,-4.1h.8l-1.2,7h-.8l-1.4,-4.1c0,0,-.4,-1,-.6,-1.9c0,0,-.1,.7,-.3,1.7l-.7,4.3Zm17.6,2.1c0,0,-.7,-1.7,-.7,-3.4c0,0,0,-1.2,.3,-2.2c0,0,.2,-1,.8,-2c0,0,.3,-.6,1,-1.7h.6c0,0,-.5,.7,-1,1.8c0,0,-.5,1.1,-.7,2.1c0,0,-.3,1.1,-.3,2.1c0,0,0,1.6,.5,3.3Zm.9,0c0,0,.5,-.6,1,-1.7c0,0,.5,-1.2,.7,-2.2c0,0,.3,-1,.3,-2.1c0,0,0,-1.6,-.5,-3.3h.5c0,0,.7,1.7,.7,3.4c0,0,0,1.2,-.3,2.3c0,0,-.2,1,-.8,2c0,0,-.3,.6,-1,1.6Z"/></clipPath>
<clipPath id="c8_370"><path d="M326.7,392.6v-1.4h31.2v1.4Z"/></clipPath>
<clipPath id="c9_370"><path d="M342.5,391.5c0,0,.2,0,.5,-.2c0,0,.2,-.1,.4,-.4c0,0,.1,-.2,.2,-.8l.1,-.2c0,0,-.1,0,-.3,0c0,0,-.9,.2,-1.2,.4c0,0,-.3,.2,-.3,.6c0,0,0,.2,.2,.4c0,0,.1,.2,.4,.2Zm8.5,0c0,0,.5,0,.9,-.6c0,0,.5,-.7,.5,-1.8c0,0,0,-.6,-.3,-.9c0,0,-.3,-.3,-.7,-.3c0,0,-.3,0,-.6,.2c0,0,-.3,.2,-.5,.8c0,0,-.2,.6,-.2,1.2c0,0,0,.7,.2,1c0,0,.3,.4,.7,.4Zm-15.3,-2.3v-.1c0,0,0,-.7,-.2,-1c0,0,-.3,-.3,-.7,-.3c0,0,-.3,0,-.6,.4c0,0,-.4,.3,-.5,1Zm-1.2,3.4c0,0,-.9,0,-1.5,-.7c0,0,-.6,-.7,-.6,-1.9c0,0,0,-1.3,.7,-2.3c0,0,.7,-1,1.9,-1c0,0,.8,0,1.3,.7c0,0,.5,.6,.5,1.8c0,0,0,.5,-.1,1h-3.1v.1c0,0,0,.6,.3,.9c0,0,.2,.3,.6,.3c0,0,.6,0,1,-.7l1.1,.2c0,0,-.3,.8,-.9,1.2c0,0,-.5,.4,-1.2,.4Zm2.6,-.1l1,-5.6h1.2l-.2,1.1c0,0,.6,-1.3,1.4,-1.3c0,0,.3,0,.6,.2l-.5,1.3c0,0,-.2,-.1,-.4,-.1c0,0,-.3,0,-.5,.2c0,0,-.4,.3,-.6,.8c0,0,-.2,.5,-.4,1.6l-.3,1.8Zm5,.1c0,0,-.6,0,-1,-.4c0,0,-.4,-.5,-.4,-1.2c0,0,0,-.9,.5,-1.3c0,0,.4,-.5,1.5,-.6c0,0,.9,-.1,1.2,-.2c0,0,.1,-.3,.1,-.5c0,0,0,-.3,-.2,-.4c0,0,-.2,-.2,-.5,-.2c0,0,-.7,0,-.9,.7l-1.2,-.2c0,0,.2,-.7,.8,-1.1c0,0,.6,-.5,1.4,-.5c0,0,.9,0,1.3,.5c0,0,.5,.4,.5,1.1c0,0,0,.2,-.1,.5c0,0,0,.3,-.3,1.5c0,0,-.2,1,-.2,1.4c0,0,0,.4,.1,.8h-1.2c0,0,-.1,-.3,-.1,-.6c0,0,-.3,.3,-.6,.5c0,0,-.4,.2,-.7,.2Zm8.9,0c0,0,-1,0,-1.6,-.6c0,0,-.6,-.7,-.6,-1.8c0,0,0,-1.4,.6,-2.4c0,0,.7,-1.1,2,-1.1c0,0,1,0,1.6,.7c0,0,.6,.7,.6,1.9c0,0,0,1.4,-.7,2.4c0,0,-.8,.9,-1.9,.9Zm3,-.1l.9,-5.6h1.2l-.2,1.1c0,0,.7,-1.3,1.4,-1.3c0,0,.3,0,.6,.2l-.4,1.3c0,0,-.2,-.1,-.4,-.1c0,0,-.3,0,-.6,.2c0,0,-.3,.3,-.5,.8c0,0,-.3,.5,-.5,1.6l-.3,1.8Zm-23.1,.1c0,0,-.6,0,-.9,-.3c0,0,-.4,-.3,-.4,-.8c0,0,0,-.3,.2,-1.2l.4,-2.3h-.6l.2,-1.1h.6l.1,-.9l1.5,-1.1l-.4,2h.8l-.2,1.1h-.7l-.5,2.4c0,0,-.1,.6,-.1,.7c0,0,0,.2,.1,.3c0,0,.1,.1,.4,.1l.4,-.1l-.2,1.2c0,0,-.4,0,-.7,0Zm16.4,0c0,0,-.7,0,-1,-.3c0,0,-.3,-.3,-.3,-.8c0,0,0,-.3,.2,-1.2l.4,-2.3H346l.1,-1.1h.7l.1,-.9l1.4,-1.1l-.3,2h.8l-.2,1.1h-.8l-.4,2.4c0,0,-.1,.6,-.1,.7c0,0,0,.2,.1,.3c0,0,.1,.1,.3,.1c0,0,.1,0,.4,-.1l-.2,1.2c0,0,-.3,0,-.6,0Zm-20.6,-.1l1.4,-7.8h1.3l-1.3,7.8Z"/></clipPath>
<clipPath id="ca_370"><path d="M-2.6,1047.7V-2.6H910.2V1047.7Z"/></clipPath>
<style type="text/css"><![CDATA[
.g0_370{
fill: #FFFFFF;
}
.g1_370{
}
.g2_370{
fill: none;
stroke: #000000;
stroke-width: 0.656;
stroke-linecap: butt;
stroke-linejoin: miter;
stroke-miterlimit: 4;
}
.g3_370{
fill: none;
stroke: #636363;
stroke-width: 1.527;
stroke-linecap: butt;
stroke-linejoin: miter;
stroke-miterlimit: 4;
}
.g4_370{
fill: none;
stroke: #FFFFFF;
stroke-width: 1.909;
stroke-linecap: butt;
stroke-linejoin: miter;
}
.g5_370{
fill: none;
stroke: #000000;
stroke-width: 0.381;
stroke-linecap: butt;
stroke-linejoin: miter;
}
]]></style>
</defs>
<image clip-path="url(#c0_370)" preserveAspectRatio="none" x="279" y="362" width="136" height="103" xlink:href="img/1.jpg"/>
<image clip-path="url(#c1_370)" preserveAspectRatio="none" x="284" y="367" width="117" height="84" xlink:href="img/2.jpg"/>
<path d="M285.1,368v82.5H399.9V368H285.1Z" class="g0_370"/>
<path d="M285.1,368h-.3v82.7H400.1v-83H284.8v.3h.3v.2H399.9V368h-.3v82.5h.3v-.3H285.1v.3h.2V368h-.2v.2V368Z" class="g1_370"/>
<image clip-path="url(#c2_370)" preserveAspectRatio="none" x="282" y="391" width="131" height="20" xlink:href="img/3.jpg"/>
<image clip-path="url(#c3_370)" preserveAspectRatio="none" x="285" y="391" width="115" height="20" xlink:href="img/4.jpg"/>
<image clip-path="url(#c4_370)" preserveAspectRatio="none" x="285" y="391" width="115" height="20" xlink:href="img/5.jpg"/>
<image clip-path="url(#c5_370)" preserveAspectRatio="none" x="285" y="391" width="115" height="20" xlink:href="img/6.jpg"/>
<image clip-path="url(#c6_370)" preserveAspectRatio="none" x="290" y="403" width="35" height="8" xlink:href="img/7.jpg"/>
<image clip-path="url(#c7_370)" preserveAspectRatio="none" x="290" y="403" width="35" height="8" xlink:href="img/8.jpg"/>
<image clip-path="url(#c8_370)" preserveAspectRatio="none" x="326" y="391" width="32" height="2" xlink:href="img/9.jpg"/>
<image clip-path="url(#c9_370)" preserveAspectRatio="none" x="326" y="391" width="32" height="2" xlink:href="img/10.jpg"/>
<path d="M285,396.7H401" class="g2_370"/>
<path d="M473.8,368.2c-2.6,-5.1,-7.4,-5.9,-12.6,-6.2c-5.3,-.3,-10.6,-.9,-15.7,.5c-4.8,1.3,-9.2,3.7,-13.9,5.4c-1.9,.7,-3.7,1.5,-5.6,2.3c-1.2,.5,-2.9,1,-3.8,1.9c.5,-.5,.9,-1.1,1,-1.8c.2,-.5,1.5,-3.1,1.4,-3.6c-.2,-1.4,-1.1,0,-1.8,.9c-.8,1,-2.9,4.7,-1.7,6c.5,.6,2.5,.5,3.1,.5c2.1,.2,4.1,0,6.2,-.2m40.5,65.3c-6.7,0,-13.1,1.7,-19.8,2.1c-4.6,.2,-9.1,.3,-13.7,.3c-4.5,0,-8.9,.5,-13.4,.7c-2,.1,-3.9,.4,-5.9,.3c-1,0,-2,-.4,-3,-.3c3.2,0,6.1,-1.2,8.9,-2.4c-3.3,.3,-7,-.6,-10,1.3c2.6,2,5.2,3.1,8.3,4.3c.9,.3,4.5,1.1,5,1.9M132.6,678H760" class="g3_370"/>
<g clip-path="url(#ca_370)">
<path d="M-4.5,13.7H-27.4m939.5,0H935M-4.5,1031.2H-27.4m939.5,0H935M13.7,-4.5V-27.4m0,1077v22.9m880,-1077V-27.4m0,1077v22.9" class="g4_370"/>
<path d="M-4.5,13.7H-27.4m939.5,0H935M-4.5,1031.2H-27.4m939.5,0H935M13.7,-4.5V-27.4m0,1077v22.9m880,-1077V-27.4m0,1077v22.9" class="g5_370"/>
</g>
</svg>