<?xml version="1.0" encoding="UTF-8" standalone="no"?>
<!DOCTYPE svg PUBLIC "-//W3C//DTD SVG 1.1//EN"
"http://www.w3.org/Graphics/SVG/1.1/DTD/svg11.dtd">
<svg viewBox="0 0 811 1017" version="1.1" xmlns="http://www.w3.org/2000/svg" xmlns:xlink="http://www.w3.org/1999/xlink">
<defs>
<style type="text/css"><![CDATA[
.g0_204{
fill: #70A6CC;
}
.g1_204{
}
]]></style>
</defs>
<path d="M142.4,181.7H710.7V160.4H142.4Z" class="g0_204"/>
<path d="M533.3,689.3v3.2H533l-6.3,-3l-.4,-.2l.4,-.1l6.3,-3l.3,-.1v.3l-.1,.2l-6.3,2.9l-.2,-.3h.2l6.3,2.9l-.2,.4l-.1,-.2v-3Z" class="g1_204"/>
<path d="M532.9,689.3h.4v-2.9h-.4Z" class="g1_204"/>
<path d="M533.3,689.5H552v-.3H533.3Z" class="g1_204"/>
<path d="M551.6,689.3h.4V665.2h-.4Z" class="g1_204"/>
<path d="M522.8,705.1v3.2l-.3,-.1l-6.3,-2.9l-.4,-.2l.4,-.2l6.3,-2.9l.3,-.1v.3l-.1,.2l-6.3,2.9l-.2,-.4h.2l6.3,3l-.2,.3l-.1,-.2v-2.9Z" class="g1_204"/>
<path d="M522.4,705.1h.4v-2.9h-.4Z" class="g1_204"/>
<path d="M542,731.4h.4V704.9H542Z" class="g1_204"/>
<path d="M522.8,705.3h19.4v-.4H522.8Z" class="g1_204"/>
</svg>