<?xml version="1.0" encoding="UTF-8" standalone="no"?>
<!DOCTYPE svg PUBLIC "-//W3C//DTD SVG 1.1//EN"
"http://www.w3.org/Graphics/SVG/1.1/DTD/svg11.dtd">
<svg viewBox="0 0 931 1096" version="1.1" xmlns="http://www.w3.org/2000/svg" xmlns:xlink="http://www.w3.org/1999/xlink">
<defs>
<clipPath id="c0_96"><path d="M624.8,229.6V201.5H719v28.1Z"/></clipPath>
<clipPath id="c1_96"><path d="M513.7,392.4V364.1H597v28.3Z"/></clipPath>
<clipPath id="c2_96"><path d="M287.2,485.2v-17h101v17Z"/></clipPath>
<clipPath id="c3_96"><path d="M462.8,539.4V504H647.9v35.4Z"/></clipPath>
<clipPath id="c4_96"><path d="M128.7,282.9V254.2h82.7v28.7Z"/></clipPath>
<style type="text/css"><![CDATA[
.g0_96{
fill: #FFF;
}
.g1_96{
fill: none;
stroke: #241F1F;
stroke-width: 0.763;
stroke-miterlimit: 10;
}
.g2_96{
fill: none;
stroke: #00AEEF;
stroke-width: 0.763;
}
.g3_96{
fill: none;
stroke: #241F1F;
stroke-width: 0.534;
stroke-miterlimit: 10;
}
.g4_96{
fill: none;
stroke: #00AEEF;
stroke-width: 0.687;
stroke-miterlimit: 10;
}
.g5_96{
fill: #EE008C;
}
.g6_96{
fill: none;
stroke: #FFF;
stroke-width: 1.145;
}
.g7_96{
fill: none;
stroke: #FFF;
stroke-width: 1.283;
}
.g8_96{
fill: none;
stroke: #00AEEF;
stroke-width: 0.916;
stroke-linejoin: round;
}
.g9_96{
fill: none;
stroke: #241F1F;
stroke-width: 0.534;
stroke-miterlimit: 3;
}
.ga_96{
fill: none;
stroke: #EE008C;
stroke-width: 0.916;
stroke-linejoin: round;
}
.gb_96{
fill: none;
stroke: #241F1F;
stroke-width: 0.611;
stroke-miterlimit: 3;
}
.gc_96{
fill: #241F1F;
}
.gd_96{
fill: none;
stroke: #241F1F;
stroke-width: 0.458;
stroke-miterlimit: 3;
}
.ge_96{
fill: none;
stroke: #EE008C;
stroke-width: 0.763;
stroke-miterlimit: 3;
}
.gf_96{
fill: #00AEEF;
}
.gg_96{
fill: none;
stroke: #00AEEF;
stroke-width: 0.763;
stroke-miterlimit: 3;
}
.gh_96{
fill: none;
stroke: #241F1F;
stroke-width: 0.381;
stroke-miterlimit: 3;
}
]]></style>
</defs>
<path d="M352.6,187.4c0,0,-3.1,0,-3.1,3v48.2c0,0,0,3,3.1,3H758.2c0,0,3,0,3,-3V190.4c0,0,0,-3,-3,-3Z" class="g0_96"/>
<path clip-path="url(#c0_96)" d="M637.8,213.9h16.3m50.5,0h14.8" class="g1_96"/>
<path d="M352.6,187.4c0,0,-3.1,0,-3.1,3v48.2c0,0,0,3,3.1,3H758.2c0,0,3,0,3,-3V190.4c0,0,0,-3,-3,-3H352.6Z" class="g2_96"/>
<path d="M497.6,307.6h6.2m120.6,0h5.4m-80.7,68.8h6.1" class="g3_96"/>
<path clip-path="url(#c1_96)" d="M582.7,376.5h14.7" class="g1_96"/>
<path d="M414.9,413.1h5.3M406.8,439h5.4m76.5,0h5.4" class="g3_96"/>
<path clip-path="url(#c2_96)" d="M298.9,468.6h37.3m42.3,0h10" class="g1_96"/>
<path d="M526.9,520h5.4" class="g3_96"/>
<path clip-path="url(#c3_96)" d="M613.2,520.1h35.1" class="g1_96"/>
<path d="M636,522.9h10m-55.9,97.3h16.2m51.3,0h14.8" class="g1_96"/>
<path d="M398.4,595.8c0,0,-3.1,0,-3.1,3V679c0,0,0,3.1,3.1,3.1H712.3c0,0,3.1,0,3.1,-3.1V598.8c0,0,0,-3,-3.1,-3H398.4ZM357.1,832.6c0,0,-3,0,-3,3v48.1c0,0,0,3.1,3,3.1H753.6c0,0,3,0,3,-3.1V835.6c0,0,0,-3,-3,-3H357.1Zm41.3,114.6c0,0,-3.1,0,-3.1,3v69.5c0,0,0,3.1,3.1,3.1H712.3c0,0,3.1,0,3.1,-3.1V950.2c0,0,0,-3,-3.1,-3H398.4Z" class="g2_96"/>
<path clip-path="url(#c4_96)" d="M182.1,268.6h29.7" class="g4_96"/>
<path d="M102.5,275.2h13.8V260.6H102.5v14.6Z" class="g5_96"/>
<path d="M109.4,273.7c3.2,0,5.8,-2.6,5.8,-5.8c0,-3.2,-2.6,-5.8,-5.8,-5.8c-3.2,0,-5.8,2.6,-5.8,5.8c0,3.2,2.6,5.8,5.8,5.8Z" class="g5_96"/>
<path d="M109.4,273.7c3.2,0,5.8,-2.6,5.8,-5.8c0,-3.2,-2.6,-5.8,-5.8,-5.8c-3.2,0,-5.8,2.6,-5.8,5.8c0,3.2,2.6,5.8,5.8,5.8Z" class="g6_96"/>
<path d="M113.6,263.7l-8.3,8.3" class="g7_96"/>
<path d="M53.9,461.2L237.3,387.8v73.4H53.9Z" class="g8_96"/>
<path d="M228.1,461.2V452h9.2" class="g9_96"/>
<path d="M99.3,696.3c0,-34.4,64.2,-66.5,64.2,-100.8" class="ga_96"/>
<path d="M131.4,711.5V571" class="gb_96"/>
<path fill-rule="evenodd" d="M131.4,571l-2.4,1.6l2.4,-6.5l2.4,6.5Z" class="gc_96"/>
<path d="M53.5,645.8H209.3" class="gb_96"/>
<path fill-rule="evenodd" d="M209.3,645.8l-1.6,-2.4l6.5,2.4l-6.5,2.5Z" class="gc_96"/>
<path d="M99.3,642.8v6.1m64.2,-6.1v6.1m-35.2,47.4h6.2M128.3,595.4h6.2" class="gb_96"/>
<path d="M122.8,595.5H117m37.6,100.8h-5.8" class="gd_96"/>
<path d="M161.8,595.4c0,-.9,.7,-1.7,1.7,-1.7c.9,0,1.7,.8,1.7,1.7c0,1,-.8,1.7,-1.7,1.7c-1,0,-1.7,-.7,-1.7,-1.7Z" class="g5_96"/>
<path d="M161.8,595.4c0,-.9,.7,-1.7,1.7,-1.7c.9,0,1.7,.8,1.7,1.7c0,1,-.8,1.7,-1.7,1.7c-1,0,-1.7,-.7,-1.7,-1.7Z" class="ge_96"/>
<path d="M97.6,696.3c0,-1,.8,-1.8,1.7,-1.8c1,0,1.7,.8,1.7,1.8c0,.9,-.7,1.7,-1.7,1.7c-.9,0,-1.7,-.8,-1.7,-1.7Z" class="g5_96"/>
<path d="M97.6,696.3c0,-1,.8,-1.8,1.7,-1.8c1,0,1.7,.8,1.7,1.8c0,.9,-.7,1.7,-1.7,1.7c-.9,0,-1.7,-.8,-1.7,-1.7Z" class="ge_96"/>
<path d="M88.6,854c0,-1,.8,-1.8,1.7,-1.8c1,0,1.7,.8,1.7,1.8c0,.9,-.7,1.7,-1.7,1.7c-.9,0,-1.7,-.8,-1.7,-1.7Z" class="gf_96"/>
<path d="M88.6,854c0,-1,.8,-1.8,1.7,-1.8c1,0,1.7,.8,1.7,1.8c0,.9,-.7,1.7,-1.7,1.7c-.9,0,-1.7,-.8,-1.7,-1.7Z" class="gg_96"/>
<path d="M90.3,854c36.7,0,64.6,64.1,100.8,64.1" class="g8_96"/>
<path d="M53.5,886.1H236.8" class="gb_96"/>
<path fill-rule="evenodd" d="M236.8,886.1l-1.6,-2.4l6.5,2.4l-6.5,2.5Z" class="gc_96"/>
<path d="M90.2,950.4V805" class="gb_96"/>
<path fill-rule="evenodd" d="M90.2,805l-2.5,1.6l2.5,-6.5l2.4,6.5Z" class="gc_96"/>
<path d="M140.7,883v6.1m-53.5,29h6.2M87.2,854h6.2m97.7,29v6.1" class="gb_96"/>
<path d="M143.5,899.9h-5.8" class="gh_96"/>
<path d="M189.4,918.1c0,-.9,.8,-1.7,1.7,-1.7c1,0,1.8,.8,1.8,1.7c0,1,-.8,1.7,-1.8,1.7c-.9,0,-1.7,-.7,-1.7,-1.7Z" class="gf_96"/>
<path d="M189.4,918.1c0,-.9,.8,-1.7,1.7,-1.7c1,0,1.8,.8,1.8,1.7c0,1,-.8,1.7,-1.8,1.7c-.9,0,-1.7,-.7,-1.7,-1.7Z" class="gg_96"/>
</svg>