<?xml version="1.0" encoding="UTF-8" standalone="no"?>
<!DOCTYPE svg PUBLIC "-//W3C//DTD SVG 1.1//EN"
"http://www.w3.org/Graphics/SVG/1.1/DTD/svg11.dtd">
<svg viewBox="0 0 931 1096" version="1.1" xmlns="http://www.w3.org/2000/svg" xmlns:xlink="http://www.w3.org/1999/xlink">
<defs>
<clipPath id="c0_193"><path d="M107,782.5V748.9H880v33.6Z"/></clipPath>
<clipPath id="c1_193"><path d="M0,688.6V91.1H880.3V688.6Z"/></clipPath>
<style type="text/css"><![CDATA[
.g0_193{
fill: none;
stroke: #EE008C;
stroke-width: 0.763;
stroke-linejoin: round;
}
.g1_193{
fill: none;
stroke: #00AEEF;
stroke-width: 0.763;
stroke-linejoin: round;
}
.g2_193{
fill: none;
stroke: #241F1F;
stroke-width: 0.381;
stroke-miterlimit: 3;
}
.g3_193{
fill: #241F1F;
}
.g4_193{
fill: #00AEEF;
}
.g5_193{
fill: none;
stroke: #00AEEF;
stroke-width: 0.763;
stroke-miterlimit: 3;
}
.g6_193{
fill: none;
stroke: #241F1F;
stroke-width: 0.611;
stroke-miterlimit: 3;
}
.g7_193{
fill: #FFF;
}
.g8_193{
fill: none;
stroke: #241F1F;
stroke-width: 0.481;
stroke-miterlimit: 10;
}
.g9_193{
fill: none;
stroke: #241F1F;
stroke-width: 0.687;
stroke-miterlimit: 10;
}
.ga_193{
fill: #EE008C;
}
]]></style>
</defs>
<path d="M159,799.2c-17.6,67.4,3.3,118.2,90.9,131.7" class="g0_193"/>
<path d="M119.5,872.4c11.6,-2.7,17.2,-8.5,24.5,-12c24.8,-11.9,58.1,-20.6,70,-4.2c9.3,12.8,.1,31.3,-3.5,53.9c-2.3,13.7,-11.5,29,6.9,42.8" class="g1_193"/>
<path d="M233.3,799.2c-12.6,32,-9.3,50.6,16.6,57.9M196.8,799.2c-16.3,53.4,3,88.2,53.1,95.1M177.3,799.2c-15,51.6,3,105.3,72.6,113.5M213.6,799.2c-11,31.4,-15.9,65,36.3,76.4" class="g0_193"/>
<path d="M147.1,894.5L144,865.9" class="g2_193"/>
<path d="M143.5,862.7l2.3,4l-1.8,-.8l-1.5,1.3Z" class="g3_193"/>
<path d="M212.1,856.2c0,-1,.8,-1.8,1.7,-1.8c1,0,1.8,.8,1.8,1.8c0,.9,-.8,1.7,-1.8,1.7c-.9,0,-1.7,-.8,-1.7,-1.7Z" class="g4_193"/>
<path d="M212.1,856.2c0,-1,.8,-1.8,1.7,-1.8c1,0,1.8,.8,1.8,1.8c0,.9,-.8,1.7,-1.8,1.7c-.9,0,-1.7,-.8,-1.7,-1.7Z" class="g5_193"/>
<path d="M125.3,959.8V800.9" class="g6_193"/>
<path fill-rule="evenodd" d="M125.3,802.4l-2.5,1.6l2.5,-6.5l2.4,6.5Z" class="g3_193"/>
<path d="M108.5,943H314.7" class="g6_193"/>
<path fill-rule="evenodd" d="M314.7,943l-1.6,-2.5l6.5,2.5l-6.5,2.4Z" class="g3_193"/>
<path d="M121.6,913.2H129V894.3h-7.4v18.9Z" class="g7_193"/>
<image clip-path="url(#c0_193)" preserveAspectRatio="none" x="107" y="749" width="773" height="34" xlink:href="img/1.png"/>
<image clip-path="url(#c1_193)" preserveAspectRatio="none" x="0" y="91" width="880" height="598" xlink:href="img/2.png"/>
<path d="M464.2,181.1H469m260.7,0h4.8" class="g8_193"/>
<path d="M645.2,459.2H663m52.3,0h56" class="g9_193"/>
<path d="M111.5,1014.9c0,0,-3,0,-3,3.1v9.1c0,0,0,3.1,3,3.1h21.4c0,0,3.1,0,3.1,-3.1V1018c0,0,0,-3.1,-3.1,-3.1Z" class="ga_193"/>
</svg>