<?xml version="1.0" encoding="UTF-8" standalone="no"?>
<!DOCTYPE svg PUBLIC "-//W3C//DTD SVG 1.1//EN"
"http://www.w3.org/Graphics/SVG/1.1/DTD/svg11.dtd">
<svg viewBox="0 0 931 1096" version="1.1" xmlns="http://www.w3.org/2000/svg" xmlns:xlink="http://www.w3.org/1999/xlink">
<defs>
<clipPath id="c0_27"><path d="M472.5,164.8V121.7H746.7v43.1Z"/></clipPath>
<clipPath id="c1_27"><path d="M708.7,377.6c-.9,-.8,-1.8,-1.6,-2.7,-2.4c-9.1,-8.3,-17.5,-17.3,-24.1,-26.7c-9.3,-13,-15.2,-26.8,-15.2,-40.3c0,-3.5,.4,-7,1.2,-10.5c2,-9.5,6.5,-18.8,12.7,-27.9c6.7,-9.7,15.4,-19,24.9,-27.5c1.1,-1.1,2.3,-2.1,3.5,-3.1c-.1,.2,-.2,.4,-.2,.6c-4.5,12.4,-7.6,38.6,-7.6,69c0,29.7,3,55.5,7.3,68.2c.1,.2,.1,.4,.2,.6Zm65.9,41c-1.7,-.6,-3.3,-1.2,-5,-2c-14.7,-6.1,-33.8,-17.3,-51.5,-31.2h5.4c7.4,0,13.4,-34.3,13.4,-76.6c0,-42.3,-6,-76.6,-13.4,-76.6h-5.9c17.8,-13.9,37.1,-25,51.9,-31.2c1.8,-.7,3.4,-1.4,5.1,-2v.6c0,2.1,0,11,0,24.4v55.5c0,39,0,84,0,112.1v27Z"/></clipPath>
<clipPath id="c2_27"><path d="M723.5,385.4c-7.3,0,-13.3,-34.3,-13.3,-76.6c0,-42.3,6,-76.6,13.3,-76.6c7.4,0,13.4,34.3,13.4,76.6c0,42.3,-6,76.6,-13.4,76.6Z"/></clipPath>
<clipPath id="c3_27"><path d="M714.6,385.4c-2,0,-4,-2.6,-5.7,-7.4c2.9,2.6,5.8,5,8.8,7.4ZM709.1,238.8c1.7,-4.3,3.5,-6.6,5.5,-6.6h2.6c-2.8,2.1,-5.4,4.3,-8.1,6.6Z"/></clipPath>
<clipPath id="c4_27"><path d="M718.6,385.4c-3.4,-2.7,-6.8,-5.5,-10.1,-8.4c-4.3,-12.7,-7.3,-38.5,-7.3,-68.2c0,-30.4,3.1,-56.6,7.6,-69c3,-2.6,6.1,-5.1,9.2,-7.6h5.5c-7.3,0,-13.3,34.3,-13.3,76.6c0,42.3,6,76.6,13.3,76.6Z"/></clipPath>
<clipPath id="c5_27"><path d="M717.7,385.4c-3,-2.4,-5.9,-4.8,-8.8,-7.4c-.1,-.1,-.1,-.3,-.2,-.4c3.1,2.6,6.2,5.3,9.4,7.8ZM709,239.2c0,-.1,.1,-.3,.1,-.4c2.7,-2.3,5.3,-4.5,8.1,-6.6h.4c-3,2.3,-5.8,4.6,-8.6,7Z"/></clipPath>
<clipPath id="c6_27"><path d="M718.1,385.4c-3.2,-2.5,-6.3,-5.2,-9.4,-7.8c-.1,-.2,-.1,-.4,-.2,-.6c3.3,2.9,6.7,5.7,10.1,8.4ZM708.8,239.8c0,-.2,.1,-.4,.2,-.6c2.8,-2.4,5.6,-4.7,8.6,-7h.4c-3.1,2.5,-6.2,5,-9.2,7.6Z"/></clipPath>
<clipPath id="c7_27"><path d="M342.2,608V591h49.4v17Z"/></clipPath>
<clipPath id="c8_27"><path d="M638.1,765.7V733.6H771.4v32.1Z"/></clipPath>
<clipPath id="c9_27"><path d="M688.5,896.7c1,-.1,1.9,-.2,2.9,-.3c-1,.1,-1.9,.2,-2.9,.3Zm-9.9,81.1c-2.2,0,-4.3,-.5,-6.3,-1.4c-3.9,-1.9,-7.3,-5.6,-10.3,-11c-7.8,-14,-12.8,-39,-16.6,-71.9c2.7,5.3,16.3,9.3,32.7,9.3c18.3,0,33.1,-5,33.1,-11.3V886c0,4.7,-8.2,8.6,-19.8,10.4c11.6,-1.8,19.8,-5.8,19.8,-10.4c0,-6.2,-14.8,-11.3,-33.1,-11.3c-18.4,0,-33.2,5.1,-33.2,11.3c0,6.2,14.8,11.3,33.1,11.3c-18.3,0,-33.1,-5.1,-33.1,-11.3v3.2c-.7,-6.5,-1.4,-13.3,-2.1,-20.4c-.6,-6.9,-1.2,-14.1,-1.8,-21.6c-.4,-5.2,-.9,-10.6,-1.3,-16.1h77.1c-.5,5.5,-.4,11.1,-.9,16.4c-.5,7.5,-1.6,14.5,-2.2,21.5c-4.1,45.2,-9.1,79.5,-18.7,96.7c-1.3,2.4,-2.7,4.4,-4.2,6.1c-3.5,4,-7.5,6,-12.2,6Z"/></clipPath>
<clipPath id="ca_27"><path d="M678.1,897.3c-18.4,0,-33.2,-5,-33.2,-11.3c0,-6.2,14.8,-11.3,33.2,-11.3c18.3,0,33.1,5.1,33.1,11.3c0,6.3,-14.8,11.3,-33.1,11.3Z"/></clipPath>
<clipPath id="cb_27"><path d="M678.1,902.8c-16.4,0,-30,-4,-32.7,-9.3c-.2,-1.4,-.4,-2.9,-.5,-4.3V886c0,6.3,14.8,11.3,33.2,11.3c18.2,0,33.1,-5,33.1,-11.3v5.5c0,6.3,-14.8,11.3,-33.1,11.3Z"/></clipPath>
<style type="text/css"><![CDATA[
.g0_27{
fill: none;
stroke: #241F1F;
stroke-width: 0.763;
stroke-miterlimit: 10;
}
.g1_27{
fill: #B9DFF1;
}
.g2_27{
fill: #00C3F4;
}
.g3_27{
fill: #B2E3FA;
}
.g4_27{
fill: #00AEEF;
}
.g5_27{
fill: none;
stroke: #241F1F;
stroke-width: 0.381;
stroke-miterlimit: 3;
}
.g6_27{
fill: #241F1F;
}
.g7_27{
fill: none;
stroke: #241F1F;
stroke-width: 0.611;
stroke-miterlimit: 3;
}
.g8_27{
fill: none;
stroke: #241F1F;
stroke-width: 0.534;
stroke-miterlimit: 3;
}
.g9_27{
fill: none;
stroke: #EE008C;
stroke-width: 0.534;
stroke-linejoin: round;
}
.ga_27{
fill: none;
stroke: #969698;
stroke-width: 0.611;
stroke-miterlimit: 3;
stroke-dasharray: 10,4;
}
.gb_27{
fill: none;
stroke: #969698;
stroke-width: 0.611;
stroke-miterlimit: 3;
}
.gc_27{
fill: #FECDE0;
}
.gd_27{
fill: #DDC4DF;
}
.ge_27{
fill: #83AADA;
}
.gf_27{
fill: #F69BC2;
}
.gg_27{
fill: #B78CC0;
}
.gh_27{
fill: #0072BC;
}
.gi_27{
fill: #240007;
}
.gj_27{
fill: #180011;
}
.gk_27{
fill: #D894C1;
}
.gl_27{
fill: #8A82BE;
}
.gm_27{
fill: #805674;
}
.gn_27{
fill: none;
stroke: #241F1F;
stroke-width: 0.534;
stroke-miterlimit: 10;
}
.go_27{
fill: none;
stroke: #00C3F4;
stroke-width: 0.534;
stroke-linejoin: round;
}
.gp_27{
fill: none;
stroke: #241F1F;
stroke-width: 0.916;
stroke-linejoin: round;
}
.gq_27{
fill: none;
stroke: #969698;
stroke-width: 0.534;
stroke-miterlimit: 3;
stroke-dasharray: 11,4;
}
.gr_27{
fill: none;
stroke: #241F1F;
stroke-width: 0.534;
stroke-miterlimit: 3;
stroke-dasharray: 10,4;
}
.gs_27{
fill: #B7B8DD;
}
.gt_27{
fill: #0090D6;
}
]]></style>
</defs>
<path d="M677.8,144.3h17.4" class="g0_27"/>
<path clip-path="url(#c0_27)" d="M732.3,144.3h14.8" class="g0_27"/>
<image clip-path="url(#c1_27)" x="666" y="199" width="109" height="220" xlink:href="shade/1.png"/>
<path d="M775.5,198.8c10.6,-1,19.3,47.3,19.4,108.1c.2,60.7,-8.2,110.9,-18.7,111.9c-10.6,1.1,-19.3,-47.3,-19.5,-108.1C756.6,250,765,199.9,775.5,198.8Z" class="g1_27"/>
<path d="M756.9,308.9h.3c0,-30.4,2.1,-57.8,5.5,-77.7c1.8,-9.9,3.8,-18,6.1,-23.5c1.1,-2.8,2.3,-4.9,3.6,-6.3c1.2,-1.5,2.4,-2.2,3.6,-2.2c1.2,0,2.4,.7,3.6,2.2c4.3,5,8.2,18.6,10.9,37.6c2.7,19,4.3,43.3,4.3,69.9c0,30.3,-2.1,57.8,-5.6,77.7c-1.7,9.9,-3.7,17.9,-6,23.5c-1.2,2.7,-2.4,4.9,-3.6,6.3c-1.2,1.4,-2.4,2.1,-3.6,2.1c-1.2,0,-2.4,-.7,-3.6,-2.1c-4.3,-5,-8.2,-18.7,-10.9,-37.6c-2.7,-19,-4.3,-43.4,-4.3,-69.9h-.6c0,30.3,2.2,57.8,5.6,77.7c1.8,10,3.8,18.1,6.1,23.7c1.2,2.8,2.4,4.9,3.6,6.4c1.3,1.5,2.7,2.4,4.1,2.4c1.4,0,2.8,-.9,4.1,-2.4c4.4,-5.2,8.2,-18.8,10.9,-37.9c2.7,-19,4.4,-43.3,4.4,-69.9c0,-30.4,-2.2,-57.9,-5.6,-77.8c-1.8,-10,-3.8,-18,-6.1,-23.6c-1.2,-2.8,-2.4,-5,-3.6,-6.5c-1.3,-1.5,-2.7,-2.3,-4.1,-2.3c-1.4,0,-2.8,.8,-4.1,2.3c-4.4,5.3,-8.2,18.9,-10.9,37.9c-2.7,19,-4.4,43.4,-4.4,70h.3m17.8,109.5c-18.1,-6.7,-45,-22.5,-67.4,-42.5C684.9,355.9,667,331.6,667,308.2c0,-23.5,17.9,-47.4,40.3,-67.1c22.4,-19.7,49.3,-35.2,67.4,-41.8l-.2,-.5c-18.1,6.6,-45.1,22.1,-67.6,41.9c-22.4,19.7,-40.4,43.7,-40.4,67.5c0,23.7,18,48,40.4,68.1c22.5,20.1,49.4,35.9,67.6,42.6l.2,-.5Z" class="g2_27"/>
<image clip-path="url(#c2_27)" preserveAspectRatio="none" x="710" y="232" width="28" height="154" xlink:href="img/1.jpg"/>
<image clip-path="url(#c3_27)" x="708" y="232" width="10" height="154" xlink:href="shade/2.png"/>
<image clip-path="url(#c4_27)" preserveAspectRatio="none" x="700" y="232" width="24" height="154" xlink:href="img/2.jpg"/>
<image clip-path="url(#c5_27)" preserveAspectRatio="none" x="708" y="232" width="11" height="154" xlink:href="img/3.jpg"/>
<image clip-path="url(#c6_27)" preserveAspectRatio="none" x="708" y="232" width="11" height="154" xlink:href="img/4.jpg"/>
<path d="M411.6,308.2c0,-47.3,73.8,-96.8,110,-110.1V308.2h-110Z" class="g3_27"/>
<path d="M412,308.2c0,-23.4,18.4,-47.5,41.3,-67.4c22.9,-19.9,50.4,-35.6,68.4,-42.2l-.1,-.5h-.5V308.2h.9V198.1c0,-.1,0,-.3,-.2,-.3c-.1,-.1,-.2,-.1,-.4,-.1c-18.2,6.7,-45.7,22.4,-68.7,42.4c-23,20,-41.6,44.2,-41.6,68.1h.9Z" class="g4_27"/>
<path d="M464.3,206.5l9.9,10" class="g5_27"/>
<path d="M476.5,218.8l-4.2,-1.9l1.9,-.4l.5,-1.9Z" class="g6_27"/>
<path d="M411.6,335.7V189" class="g7_27"/>
<path fill-rule="evenodd" d="M411.6,189l-2.5,1.6l2.5,-6.5l2.4,6.5Z" class="g6_27"/>
<path d="M382.5,308.5H578.1v-.6H382.5v.6Z" class="g6_27"/>
<path fill-rule="evenodd" d="M578.1,308.2l-1.6,-2.5l6.5,2.5l-6.5,2.4Z" class="g6_27"/>
<path d="M521.6,305.1v6.1" class="g7_27"/>
<path d="M466.9,307c2.1,0,2.4,-2,2.5,-4.5l-.1,-29.1c.1,-2.5,-.1,-4.5,2,-4.5c-2.1,-.1,-1.9,-2.1,-2,-4.5l.1,-27.2c-.1,-2.4,-.5,-4.7,-2.6,-4.7" class="g8_27"/>
<path d="M723.5,385.4h-8.9c-7.4,0,-13.4,-34.3,-13.4,-76.6c0,-42.3,6,-76.6,13.4,-76.6h8.9c-7.3,0,-13.3,34.3,-13.3,76.6c0,42.3,6,76.6,13.3,76.6Z" class="g9_27"/>
<path d="M666.8,427.3V189" class="g7_27"/>
<path fill-rule="evenodd" d="M666.8,189l-2.5,1.6l2.5,-6.5l2.4,6.5Z" class="g6_27"/>
<path d="M776.7,308.2h56.6m-195.6,0h29.1" class="g7_27"/>
<path fill-rule="evenodd" d="M833.3,308.2l-1.6,-2.5l6.5,2.5l-6.5,2.4Z" class="g6_27"/>
<path d="M714.6,388.5c0,.8,.6,1,2,1.1h.5c1.4,0,2,-.1,2,1.2c.1,-1.3,.6,-1.2,2,-1.2h.5c1.4,-.1,2,-.3,2,-1.1" class="g8_27"/>
<path d="M616.1,317.3c-.7,6.5,-2.3,11,-4.2,11c-2.5,0,-4.6,-8.2,-4.6,-18.3c0,-10.2,2.1,-18.4,4.6,-18.4c1.7,0,3.2,3.7,4,9.2" class="g5_27"/>
<path d="M616.5,314l1.2,4.5l-1.6,-1.2l-1.7,.8Z" class="g6_27"/>
<path d="M710.2,308.8c0,-42.3,6,-76.6,13.3,-76.6c7.4,0,13.4,34.3,13.4,76.6c0,42.3,-6,76.6,-13.4,76.6c-7.3,0,-13.3,-34.3,-13.3,-76.6Z" class="g9_27"/>
<path d="M666.8,308.2H776.7" class="ga_27"/>
<path d="M719,304.7v6.2" class="gb_27"/>
<path d="M776.8,305.1v6.1" class="g7_27"/>
<path d="M460.5,233.6v-1.4h1.8c-.6,.5,-1.2,.9,-1.8,1.4Z" class="gc_27"/>
<path d="M464.9,307.7h-4.4V234.8c1.1,-.9,2.2,-1.7,3.2,-2.6h1.2v75.5Z" class="gd_27"/>
<path d="M460.5,234.2v-.6c.6,-.5,1.2,-.9,1.8,-1.4h.7c-.8,.7,-1.7,1.3,-2.5,2Z" class="ge_27"/>
<path d="M460.5,234.8v-.6c.8,-.7,1.7,-1.3,2.5,-2h.7c-1,.9,-2.1,1.7,-3.2,2.6Z" class="ge_27"/>
<path d="M465.9,308.6H460v-.1h5.9Zm-5.9,0h-.4v-.1h.4Zm-.4,-74.3v-3h3.8c-.2,.2,-.4,.3,-.6,.5H460V234c-.1,.1,-.3,.2,-.4,.3Z" class="gf_27"/>
<path d="M465.9,307.9h-.5V231.8h-1.1c.2,-.2,.4,-.3,.6,-.5h1v76.6m-5.9,0h-.4V235.5c.1,-.1,.3,-.2,.4,-.4v72.8Z" class="gg_27"/>
<path d="M459.6,234.9v-.6c.1,-.1,.3,-.2,.4,-.3v.6c-.1,.1,-.3,.2,-.4,.3m4,-3.1h-.8c.2,-.2,.4,-.3,.6,-.5h.8c-.2,.2,-.4,.3,-.6,.5Z" class="gh_27"/>
<path d="M459.6,235.5v-.6c.1,-.1,.3,-.2,.4,-.3v.5c-.1,.2,-.3,.3,-.4,.4m4.7,-3.7h-.7c.2,-.2,.4,-.4,.6,-.5h.7c-.2,.2,-.4,.3,-.6,.5Z" class="gh_27"/>
<path d="M465.9,308.5H460v-.3h.5H460v.3h-.4v-.3h6.3Z" class="gi_27"/>
<path d="M465.9,308.2h-.5v-.3h.5Zm-5.9,0h-.4v-.3h.4Z" class="gj_27"/>
<path d="M460,234v-2.2h2.8c-.2,.1,-.4,.3,-.5,.4h-1.8v1.4c-.1,.1,-.3,.2,-.5,.4Z" class="gf_27"/>
<path d="M465.4,307.9H460V235.1c.2,-.1,.4,-.2,.5,-.3v72.9h4.4V232.2h-1.2c.2,-.1,.4,-.3,.6,-.4h1.1v76.1Z" class="gk_27"/>
<path d="M460,234.6V234c.2,-.2,.4,-.3,.5,-.4v.6c-.1,.1,-.3,.2,-.5,.4m3,-2.4h-.7c.1,-.1,.3,-.3,.5,-.4h.8c-.2,.1,-.4,.3,-.6,.4Z" class="gl_27"/>
<path d="M460,235.1v-.5c.2,-.2,.4,-.3,.5,-.4v.6c-.1,.1,-.3,.2,-.5,.3m3.7,-2.9H463c.2,-.1,.4,-.3,.6,-.4h.7c-.2,.1,-.4,.3,-.6,.4Z" class="gl_27"/>
<path d="M460,308.2h5.4v-.3H460v.3Z" class="gm_27"/>
<path clip-path="url(#c7_27)" d="M382.9,591.4H392" class="g0_27"/>
<path d="M635.3,618.9h9" class="g0_27"/>
<path d="M677.1,749.7H684" class="gn_27"/>
<path clip-path="url(#c8_27)" d="M741.8,749.8h30" class="g0_27"/>
<image clip-path="url(#c9_27)" x="639" y="831" width="78" height="147" xlink:href="shade/3.png"/>
<path d="M466,830.8v147c24.9,0,28.4,-59.4,37.2,-147H466Z" class="g3_27"/>
<path d="M442.6,1014.9c2.5,-11.7,5.5,-20.9,9.3,-27.1c3.9,-6.3,8.4,-9.5,14.1,-9.5c3.4,0,6.5,-1.1,9.2,-3.2c4.7,-3.7,8.3,-10.3,11.3,-19.5c9,-27.7,12.3,-78.8,18.9,-142.7l-.9,-.1c-5.1,48.7,-8.2,89.9,-13.3,119c-2.6,14.5,-5.7,26,-9.7,33.7c-2.1,3.9,-4.3,6.9,-6.9,8.9c-2.5,2,-5.4,3,-8.6,3c-6.1,0,-11,3.5,-14.8,9.9c-4,6.4,-7,15.6,-9.5,27.4l.9,.2Z" class="g4_27"/>
<path d="M446.6,901.6h15.2" class="g5_27"/>
<path d="M465.1,901.6l-4.3,1.7l1,-1.7l-1,-1.6Z" class="g6_27"/>
<image clip-path="url(#ca_27)" preserveAspectRatio="none" x="644" y="874" width="68" height="23" xlink:href="img/5.jpg"/>
<path d="M645.4,893.5c-.4,-.7,-.5,-1.3,-.5,-2v-2.3c.1,1.4,.3,2.9,.5,4.3Z" class="gc_27"/>
<image clip-path="url(#cb_27)" preserveAspectRatio="none" x="644" y="885" width="68" height="18" xlink:href="img/6.jpg"/>
<path d="M677.9,842.1c-21.3,0,-38.5,-5.1,-38.4,-11.4c.1,-6.3,17.4,-11.4,38.6,-11.4c21.3,0,38.9,5.2,38.4,11.5c-.5,6.4,-17.4,11.4,-38.6,11.3Z" class="g1_27"/>
<path d="M677.9,842.1c-21.3,0,-38.5,-5.1,-38.4,-11.4c.1,-6.3,17.4,-11.4,38.6,-11.4c21.3,0,38.9,5.2,38.4,11.5c-.5,6.4,-17.4,11.4,-38.6,11.3Zm0,0c-21.3,0,-38.5,-5.1,-38.4,-11.4c.1,-6.3,17.4,-11.4,38.6,-11.4c21.3,0,38.9,5.2,38.4,11.5c-.5,6.4,-17.4,11.4,-38.6,11.3Zm-38.4,-11c6.5,87,14.1,146.7,38.9,146.7c24.8,0,31.7,-59.7,38.1,-146.7" class="go_27"/>
<path d="M643,884.6c-.8,0,-1,.6,-1,2v.5c-.1,1.4,0,1.9,-1.3,2c1.3,0,1.2,.6,1.3,2v.5c0,1.4,.2,2,1,2" class="g8_27"/>
<path d="M470.2,1000.7l4.5,-1.2l-1.2,1.6l.8,1.7Z" class="g6_27"/>
<path d="M397.2,977.8H534.7" class="g7_27"/>
<path fill-rule="evenodd" d="M534.7,977.8l-1.6,-2.4l6.5,2.4l-6.5,2.5Z" class="g6_27"/>
<path d="M401.9,831.2H530.2" class="gp_27"/>
<path d="M678,831V794.5" class="g7_27"/>
<path fill-rule="evenodd" d="M678,794.5l-2.4,1.6l2.4,-6.5l2.5,6.5Z" class="g6_27"/>
<path d="M678,1014.5V977.7m-64.2,.1H742.2" class="g7_27"/>
<path fill-rule="evenodd" d="M742.2,977.8l-1.7,-2.4l6.6,2.4l-6.6,2.5Z" class="g6_27"/>
<path d="M473.5,1001.1c6.5,.7,11,2.3,11,4.2c0,2.5,-8.2,4.6,-18.3,4.6c-10.2,0,-18.4,-2.1,-18.4,-4.6c0,-1.7,3.7,-3.2,9.2,-4" class="g5_27"/>
<path d="M644.9,886c0,-6.3,14.8,-11.4,33.1,-11.4c18.3,0,33.2,5.1,33.2,11.4" class="g9_27"/>
<path fill-rule="evenodd" d="M466,794.5l-2.5,1.6l2.5,-6.5l2.4,6.5Z" class="g6_27"/>
<path d="M711.2,886v5.5c0,6.3,-14.8,11.3,-33.1,11.3c-18.4,0,-33.2,-5,-33.2,-11.3V886m66.3,0c0,6.2,-14.9,11.3,-33.2,11.3c-18.3,0,-33.1,-5.1,-33.1,-11.3" class="g9_27"/>
<path d="M678,977.7V831" class="gq_27"/>
<path d="M676.3,831c0,-1,.8,-1.7,1.8,-1.7c.9,0,1.7,.7,1.7,1.7c0,1,-.8,1.7,-1.7,1.7c-1,0,-1.8,-.7,-1.8,-1.7Z" class="g6_27"/>
<path d="M676.3,831c0,-1,.8,-1.7,1.8,-1.7c.9,0,1.7,.7,1.7,1.7c0,1,-.8,1.7,-1.7,1.7c-1,0,-1.8,-.7,-1.8,-1.7Z" class="g8_27"/>
<path d="M678.1,886h33.1" class="gr_27"/>
<path d="M676.3,886c0,-.9,.8,-1.7,1.8,-1.7c.9,0,1.7,.8,1.7,1.7c0,1,-.8,1.7,-1.7,1.7c-1,0,-1.8,-.7,-1.8,-1.7Z" class="g6_27"/>
<path d="M676.3,886c0,-.9,.8,-1.7,1.8,-1.7c.9,0,1.7,.8,1.7,1.7c0,1,-.8,1.7,-1.7,1.7c-1,0,-1.8,-.7,-1.8,-1.7Z" class="g8_27"/>
<path d="M719.9,861.2L700,881.1" class="g5_27"/>
<path d="M697.7,883.5l1.9,-4.3l.4,1.9l1.9,.4Z" class="g6_27"/>
<path d="M465.7,1014.5h.6v-220h-.6v220Z" class="g6_27"/>
<path d="M496.7,891.1H466.5v-4.4h30.4v2.6c-.1,.6,-.2,1.2,-.2,1.8Z" class="gs_27"/>
<path d="M496.9,891.1h-.2c0,-.6,.1,-1.2,.2,-1.8v1.8Z" class="gt_27"/>
<path d="M497.8,892.1h-.3c.1,-.9,.2,-1.8,.3,-2.7v2.7Z" class="gf_27"/>
<path d="M496.6,892.1H466.3v-.5h30.3c0,.1,0,.3,0,.5m.6,-5.9H466.3v-.4h30.9c0,.1,0,.3,0,.4Z" class="gg_27"/>
<path d="M497.5,892.1H497c0,-.2,.1,-.4,.1,-.5h.2v-2.3c.2,-1.1,.3,-2.3,.4,-3.5h.1v3.6c-.1,.9,-.2,1.8,-.3,2.7Z" class="gh_27"/>
<path d="M497,892.1h-.4c0,-.2,0,-.4,0,-.5h.5c0,.1,-.1,.3,-.1,.5m.3,-2.8v-3.1h-.1c0,-.1,0,-.3,0,-.4h.5c-.1,1.2,-.2,2.4,-.4,3.5Z" class="gh_27"/>
<path d="M465.7,892.1h-.2v-6.3h.2Z" class="gf_27"/>
<path d="M466,892.1h-.3v-6.3h.3v5.8Z" class="gi_27"/>
<path d="M466.3,892.1H466v-.5h.3Zm0,-5.9H466v-.4h.3Z" class="gj_27"/>
<path d="M496.6,891.6H466.3v-5.4h30.9c-.1,1.1,-.2,2.1,-.3,3.1v-2.6H466.5v4.4h30.2c0,.2,-.1,.3,-.1,.5Z" class="gg_27"/>
<path d="M497.3,891.6h-.2c.1,-.8,.1,-1.5,.2,-2.3v2.3Z" class="gh_27"/>
<path d="M497.1,891.6h-.5c0,-.2,.1,-.3,.1,-.5h.2v-1.8c.1,-1,.2,-2,.3,-3.1h.1v3.1c-.1,.8,-.1,1.5,-.2,2.3Z" class="gh_27"/>
<path d="M466,891.6v0v-5.4v5.4Z" class="gi_27"/>
<path d="M466,891.6h.3v-5.4H466v5.4Z" class="gj_27"/>
<path d="M485.1,880.7l.8,-4.6l.9,1.7h1.9Z" class="g6_27"/>
<path d="M486.6,878.2c.7,-1.3,5.8,-9.7,20.2,-8.8" class="g5_27"/>
<path d="M497.7,885c-.1,-2.1,-3.1,-1.6,-6.8,-1.6h-1.3c-3.7,-.1,-6.7,0,-6.8,-2.1c-.1,2.1,-3.1,2,-6.8,2.1h-2.6c-3.7,0,-7.1,-.4,-7.2,1.7" class="g8_27"/>
</svg>