<?xml version="1.0" encoding="UTF-8" standalone="no"?>
<!DOCTYPE svg PUBLIC "-//W3C//DTD SVG 1.1//EN"
"http://www.w3.org/Graphics/SVG/1.1/DTD/svg11.dtd">
<svg viewBox="0 0 931 1096" version="1.1" xmlns="http://www.w3.org/2000/svg" xmlns:xlink="http://www.w3.org/1999/xlink">
<defs>
<clipPath id="c0_167"><path d="M373.9,589.3V552.9h98.6v36.4Z"/></clipPath>
<clipPath id="c1_167"><path d="M647.1,927.5V893.9H814.3v33.6Z"/></clipPath>
<clipPath id="c2_167"><path d="M142.5,235.2V203.9H450.3v31.3Z"/></clipPath>
<clipPath id="c3_167"><path d="M579.1,127.4V97.3H623v30.1Z"/></clipPath>
<clipPath id="c4_167"><path d="M107,314.4V280.7H880v33.7Z"/></clipPath>
<style type="text/css"><![CDATA[
.g0_167{
fill: #FFF;
}
.g1_167{
fill: none;
stroke: #241F1F;
stroke-width: 0.763;
stroke-miterlimit: 10;
}
.g2_167{
fill: none;
stroke: #00AEEF;
stroke-width: 0.763;
}
.g3_167{
fill: none;
stroke: #00AEEF;
stroke-width: 0.763;
stroke-miterlimit: 10;
}
.g4_167{
fill: none;
stroke: #241F1F;
stroke-width: 0.687;
stroke-miterlimit: 10;
}
]]></style>
</defs>
<path d="M345.7,373.9c0,0,-3.1,0,-3.1,3.1V599.2c0,0,0,3.1,3.1,3.1H875.1c0,0,3,0,3,-3.1V377c0,0,0,-3.1,-3,-3.1Z" class="g0_167"/>
<path clip-path="url(#c0_167)" d="M400.6,570.2h32.5m21.9,0h17.9" class="g1_167"/>
<path d="M345.7,373.9c0,0,-3.1,0,-3.1,3.1V599.2c0,0,0,3.1,3.1,3.1H875.1c0,0,3,0,3,-3.1V377c0,0,0,-3.1,-3,-3.1H345.7Z" class="g2_167"/>
<path clip-path="url(#c1_167)" d="M741.3,906.3h73.4" class="g1_167"/>
<path d="M108.5,147H484.3" class="g3_167"/>
<path d="M177.9,116.9h11m48.9,0h14.8m74.6,0H342" class="g4_167"/>
<path clip-path="url(#c2_167)" d="M392.2,219.5h58.5" class="g4_167"/>
<path clip-path="url(#c3_167)" d="M598.4,111.7h24.9" class="g4_167"/>
<image clip-path="url(#c4_167)" preserveAspectRatio="none" x="107" y="281" width="773" height="33" xlink:href="img/1.png"/>
</svg>