<?xml version="1.0" encoding="UTF-8" standalone="no"?>
<!DOCTYPE svg PUBLIC "-//W3C//DTD SVG 1.1//EN"
"http://www.w3.org/Graphics/SVG/1.1/DTD/svg11.dtd">
<svg viewBox="0 0 931 1096" version="1.1" xmlns="http://www.w3.org/2000/svg" xmlns:xlink="http://www.w3.org/1999/xlink">
<defs>
<clipPath id="c0_376"><path d="M51.8,1044.7V91.3H931.9v953.4Z"/></clipPath>
<clipPath id="c1_376"><path d="M356.3,314.1V247.5H754.5v66.6Z"/></clipPath>
<clipPath id="c2_376"><path d="M508.9,434.7V404.3h92.9v30.4Z"/></clipPath>
<clipPath id="c3_376"><path d="M463.1,729.6V699.1H647.6v30.5Z"/></clipPath>
<clipPath id="c4_376"><path d="M408.9,848.8V818.3H701.8v30.5Z"/></clipPath>
<clipPath id="c5_376"><path d="M67.7,299.2V143.4H276.5V299.2Z"/></clipPath>
<style type="text/css"><![CDATA[
.g0_376{
fill: none;
stroke: #008048;
stroke-width: 3.055;
stroke-miterlimit: 10;
}
.g1_376{
fill: none;
stroke: #241F1F;
stroke-width: 0.763;
stroke-miterlimit: 10;
}
.g2_376{
fill: none;
stroke: #00AEEF;
stroke-width: 1.222;
}
.g3_376{
fill: #241F1F;
}
.g4_376{
fill: none;
stroke: #241F1F;
stroke-width: 0.381;
}
.g5_376{
fill: #009CE0;
}
.g6_376{
fill: none;
stroke: #241F1F;
stroke-width: 0.687;
stroke-miterlimit: 10;
}
.g7_376{
fill: none;
stroke: #241F1F;
stroke-width: 0.495;
stroke-miterlimit: 10;
}
]]></style>
</defs>
<image clip-path="url(#c0_376)" preserveAspectRatio="none" x="52" y="91" width="883" height="954" xlink:href="img/1.png"/>
<path d="M67.2,132.7H823.5" class="g0_376"/>
<path d="M287.2,971.5h59.6" class="g1_376"/>
<path d="M407.3,264.3c24.1,3.4,38.8,15.5,45.5,17.2c3.5,.8,5.6,-14.7,10.3,-13.5c5.8,1.5,-4,36.4,.6,38.4c4.6,2,12.3,-31.2,18.6,-30.4c6.4,.9,-3.4,37.5,2.6,37.5c7.8,0,9.7,-37.2,16.3,-36.6c6.6,.6,2.9,36.9,7.7,36.6c4.9,-.2,4,-41.2,8.4,-41.5c5.7,-.3,3.4,34.4,8.8,33.8c5.5,-.6,.6,-20.2,4,-22.3c32.7,-20,72.8,-31.8,126,-2.6c.8,.4,6.6,-13.7,9.8,-10.9c4.2,3.9,-5.7,34.5,1.1,35.8c4.3,.9,12.8,-30.1,18.3,-29.2c6.6,1.2,-2,34.4,4.6,35.2c6.9,.9,7.7,-35.2,14,-34.9c6.3,.3,3.2,33.2,7.2,33.2c4,0,3.7,-36.4,8.6,-37.5c4.8,-1.1,4.8,29.5,9.4,29.5c4.6,0,3.7,-20.6,3.7,-20.6L750,274.9" class="g2_376"/>
<path d="M555.4,258.6c.2,-.1,.5,-.2,.7,-.3c.5,-.2,2.1,-.8,1.4,-2.6c-.7,-1.8,-2.4,-1.1,-3,-.9c-.3,.1,-.5,.2,-.3,.6Zm-3.8,-3.2l3.2,-1.2c1.7,-.7,3.4,-.6,4,1c.4,.9,0,1.6,-.1,1.9c-.3,.7,-1,1.2,-2.3,1.7c-.3,.1,-.5,.2,-.8,.2l.8,2.3c.4,.9,.6,.9,1.6,.6l.1,.3l-3.4,1.2l-.1,-.2c1,-.5,.9,-.7,.5,-1.6l-2,-5.3c-.3,-.8,-.5,-.9,-1.4,-.7Z" class="g3_376"/>
<path d="M563.5,256.7c-1.7,1.2,-1.6,1.9,-1.5,2.3v.1c.1,.5,.6,.8,1.1,.7c.3,-.1,.6,-.4,.7,-.5c.3,-.3,.3,-.4,.2,-.8Zm2.7,2.3c-.3,.7,-.7,.9,-.9,.9c-.2,.1,-.7,.2,-1.1,-.7c-.3,.6,-.8,1.3,-1.5,1.5c-.7,.2,-1.5,-.1,-1.7,-.9c-.4,-1.3,.6,-2,2.4,-3.4l-.2,-.8c-.3,-.9,-.9,-.8,-1.3,-.7c-.4,.1,-.8,.5,-.7,.9c0,.1,.2,.3,.2,.4c.1,.3,-.1,.6,-.4,.7c-.4,.1,-.6,-.2,-.7,-.4c-.1,-.5,.2,-1.5,1.6,-1.9c1.9,-.6,2.2,.7,2.5,1.4l.7,2.4c.1,.4,.2,.8,.6,.6c.2,0,.3,-.2,.4,-.3Z" class="g3_376"/>
<path d="M568.2,253.1l-1.3,.3l-.4,-1.5c0,-.1,0,-.2,-.1,-.1c-.3,.8,-.4,1.1,-.8,1.7c-.2,.3,-.4,.5,-.4,.6q0,.1,0,.1l.7,-.2l.9,3.8c.3,1.3,.9,1.5,1.6,1.4c.6,-.2,1.1,-.7,1.2,-1.4h-.2c-.1,.1,-.2,.5,-.6,.6c-.7,.1,-.8,-.6,-.9,-1l-.9,-3.6l1.3,-.3Z" class="g3_376"/>
<path d="M575.9,257.5l-2.7,.5v-.2c.6,-.2,.8,-.3,.6,-1.2l-.4,-2.6c-.2,-.8,-.6,-1.3,-1.3,-1.1c-.3,0,-.8,.3,-1.2,1l.6,3.1c.1,1,.4,1,1,.9l.1,.2l-2.8,.6v-.2c.6,-.3,.8,-.4,.6,-1.3l-1.1,-6c-.1,-.4,-.2,-.7,-.7,-.6c-.1,0,-.2,.1,-.3,.1v-.2c.6,-.3,1.1,-.6,1.7,-.9h.1l.7,3.9c.4,-.7,.9,-1.3,1.7,-1.4c1.5,-.3,1.8,1.2,1.9,1.7l.5,2.6c.2,.9,.3,.9,1,.9Z" class="g3_376"/>
<path d="M583.8,254.1c-.2,-1.7,-1,-3,-2.2,-2.9c-.8,.1,-1.4,.8,-1.3,2.2c.1,.9,.6,3.3,2.1,3.1c.7,0,1.5,-.6,1.4,-2.4m1.1,-.5c.1,1.3,-.6,3.1,-2.6,3.3c-1.7,.2,-3,-1.1,-3.1,-2.8c-.2,-1.6,.8,-3.1,2.5,-3.3c1.7,-.1,3,.9,3.2,2.8Z" class="g3_376"/>
<path clip-path="url(#c1_376)" d="M589.2,250.9l-1.6,.1l.2,4.1c0,.8,.1,1.1,1.3,1.1v.2l-3.4,.1v-.2c.8,0,1.1,-.2,1,-1.2l-.1,-4.1l-1.1,.1v-.4l1,-.1c0,-.7,-.1,-3,2.3,-3.1c.7,0,1.3,.3,1.3,.8c0,.3,-.3,.5,-.6,.5c-.5,0,-.6,-.9,-1.2,-.9c-.7,0,-.8,.7,-.7,1.2v1.5l1.6,-.1Z" class="g3_376"/>
<path d="M602.1,250.9v.1c-.3,.1,-.4,.3,-.6,.7l-2,4.4c-.2,.5,-.3,.6,-.4,.6q-.1,0,-.3,-.5l-1,-3.1l-1.6,3c-.2,.4,-.3,.5,-.4,.5c0,0,-.1,-.1,-.3,-.6L594,251.5c-.2,-.7,-.3,-.8,-.6,-.9v-.2l2.3,.1v.2c-.3,.1,-.6,.1,-.6,.5c0,.4,.6,2.1,1.1,3.8l1.4,-2.6c-.5,-1.4,-.6,-1.5,-1.1,-1.6v-.2l2.6,.1v.2c-.4,.1,-.7,.1,-.8,.4c0,.3,.1,.4,.3,1l.9,2.8l1.3,-2.8c.1,-.4,.2,-.7,.2,-.9c.1,-.3,-.2,-.3,-.5,-.4v-.2Z" class="g3_376"/>
<path d="M604.6,248.1c.4,.1,.6,.4,.6,.8c0,.3,-.3,.6,-.7,.6c-.5,-.1,-.6,-.5,-.6,-.8c0,-.2,.3,-.6,.7,-.6m-2.3,8.5c.8,.1,1,0,1.1,-1l.3,-3c.1,-.8,-.2,-.8,-.3,-.8c-.2,0,-.4,0,-.6,0v-.2c.7,-.2,1.4,-.3,2.1,-.5h.1l-.5,4.6c-.1,.9,-.1,1.1,.8,1.2v.2l-3,-.3Z" class="g3_376"/>
<path d="M607.2,252.9c.1,-.8,-.1,-.8,-.3,-.9c-.2,0,-.3,0,-.4,0v-.2c.6,-.1,1.3,-.2,1.9,-.3h.1l-.2,1c.7,-.5,1.3,-.8,2,-.7c.6,.1,1.5,.5,1.3,2.1l-.5,3c0,.6,.1,.8,.7,.9v.2l-2.7,-.4v-.2c.5,.1,.8,.1,1,-.9l.4,-2.7c.1,-.8,-.1,-1.3,-.8,-1.4c-.4,-.1,-.8,.1,-1.4,.6l-.5,3.6c-.1,.4,.1,.6,.7,.8v.1l-2.7,-.3V257c.6,0,.8,-.1,.9,-.9Z" class="g3_376"/>
<path d="M615.6,256.5c.8,.1,1.1,-.8,1.1,-1.1c.1,-.3,.2,-2.1,-.9,-2.3c-.4,-.1,-1,.1,-1.1,1c-.2,1,-.1,2.2,.9,2.4m-1,4.2c1.5,.3,2.5,-.1,2.6,-.8c.1,-.5,-.5,-.7,-1.4,-.9c-1.2,-.3,-1.5,-.3,-2.1,-.6c-.5,.4,-.7,.6,-.8,1c-.1,.4,.3,1,1.7,1.3m3.2,-6.6c0,.3,.1,.5,0,1.2c-.3,1.4,-1.7,1.6,-2.4,1.5c-.2,-.1,-.6,-.2,-.7,-.2c-.3,-.1,-.9,.4,-.9,.6c-.1,.3,.5,.5,.9,.6l1.6,.3c1.4,.4,1.4,1.4,1.3,1.7c-.3,1.5,-2.5,1.8,-3.7,1.5c-1.3,-.2,-2.1,-1,-2,-1.7c.1,-.5,.8,-.9,1.6,-1.3c-.3,-.2,-.6,-.4,-.6,-.8c.1,-.2,.1,-.4,1.4,-1.1c-.7,-.5,-1,-1.2,-.8,-1.9c.3,-1.5,1.6,-1.9,2.6,-1.7c.4,.1,.7,.2,1.2,.5c.2,.2,.4,.2,.6,.3l1,.2l-.1,.5Z" class="g3_376"/>
<path d="M625.9,255.7l-1.2,-.4l-1,3.6c-.1,.4,-.3,1.1,.4,1.3c.3,.1,.7,-.1,.8,-.2l.2,.2c-.5,.4,-1.2,.7,-1.8,.5c-.6,-.1,-1,-.6,-.7,-1.9l1,-3.8l-.6,-.1q-.1,-.1,-.1,-.1c.1,-.2,.4,-.2,.7,-.4c.6,-.3,.9,-.6,1.5,-1.1c.1,0,.1,.1,.1,.2l-.4,1.4l1.2,.4Z" class="g3_376"/>
<path d="M629,253c.4,.1,.5,.4,.4,.8c-.1,.3,-.4,.5,-.8,.4c-.5,-.1,-.5,-.5,-.4,-.8c0,-.2,.3,-.6,.8,-.4m-3.9,7.9c.8,.2,1,.2,1.3,-.8l.9,-2.9c.2,-.7,0,-.8,-.2,-.9c-.2,0,-.4,-.1,-.5,-.1V256c.7,0,1.4,0,2.1,-.1l.1,.1l-1.3,4.4c-.3,.8,-.3,1,.6,1.3l-.1,.2l-2.9,-.8Z" class="g3_376"/>
<path d="M630.6,261.5c-.1,.3,.3,1,1,1.3c.4,.1,1.6,.2,2.3,-1.9c.1,-.3,.7,-2.3,-.8,-2.8c-.5,-.2,-1.3,0,-1.5,.4Zm0,-3.4c.1,-.5,.2,-.7,-.3,-.8c-.1,-.1,-.2,-.1,-.3,-.1l.1,-.2c.6,0,1.3,0,1.9,-.1l.1,.1l-.3,.9c.4,-.2,1.2,-.7,2.1,-.3c1.1,.3,1.7,1.6,1.2,3.3c-.5,1.4,-2,2.8,-3.7,2.3c-.5,-.2,-.8,-.5,-1,-1l-.7,2c-.2,.7,-.1,.9,.8,1.2l-.1,.3l-3,-1l.1,-.2c.8,.2,1,-.1,1.2,-.6Z" class="g3_376"/>
<path clip-path="url(#c1_376)" d="M366.7,265.1c0,0,-7.5,3.4,-10.1,4.5c-.6,.3,.5,2.1,1,1.8c2.3,-1.2,7.6,-4.4,7.6,-4.4m3.1,-3c4.7,-3.3,14.3,-3.3,20,-3.3c.3,0,1.4,-1.8,4.4,-1.8c2.9,0,4,2.8,5.9,3.2c1.9,.3,2.1,.7,2.1,.7l-2.1,.3c0,0,-1.2,-.1,-3.6,.8c-2.8,1,-6.5,5.9,-13.2,5.8c-6.6,-.1,-7,-2,-9.3,-2.3c-2.2,-.3,-3,-.3,-3,-.3m5.7,-3.6c-3,.3,-2.7,1.2,-4,1.4c-1.3,.3,7.1,2.2,9.9,2.2c2.8,.1,6.5,-1.9,6.5,-1.9" class="g4_376"/>
<path d="M393.9,261.4c0,.2,-.1,.4,-.4,.4c-.2,0,-.3,-.2,-.3,-.4c0,-.2,.1,-.4,.3,-.4c.3,0,.4,.2,.4,.4Z" class="g3_376"/>
<path clip-path="url(#c1_376)" d="M749.7,275l-2.3,-2l7.2,.6l-5.8,4.3Z" class="g5_376"/>
<path clip-path="url(#c2_376)" d="M577.1,420.5h25" class="g6_376"/>
<path clip-path="url(#c3_376)" d="M592.5,715.4H648" class="g6_376"/>
<path d="M409.2,827.6h8.4" class="g7_376"/>
<path clip-path="url(#c4_376)" d="M664.7,834.5h37.5" class="g6_376"/>
<path d="M498,920.8h8.4m19.7,0h8.4m170.9,0H714" class="g7_376"/>
<image clip-path="url(#c5_376)" preserveAspectRatio="none" x="68" y="143" width="209" height="156" xlink:href="img/2.jpg"/>
</svg>