<?xml version="1.0" encoding="UTF-8" standalone="no"?>
<!DOCTYPE svg PUBLIC "-//W3C//DTD SVG 1.1//EN"
"http://www.w3.org/Graphics/SVG/1.1/DTD/svg11.dtd">
<svg viewBox="0 0 811 1017" version="1.1" xmlns="http://www.w3.org/2000/svg" xmlns:xlink="http://www.w3.org/1999/xlink">
<defs>
<clipPath id="c0_469"><path d="M158.4,863.8V623.3h440V863.8Z"/></clipPath>
<style type="text/css"><![CDATA[
.g0_469{
fill: #FFFFFF;
}
.g1_469{
fill: #895522;
}
.g2_469{
fill: #B4732D;
}
.g3_469{
fill: #FFDCA5;
}
.g4_469{
fill: #63AFD8;
}
.g5_469{
fill: #ECA93A;
}
.g6_469{
fill: #FDC36A;
}
.g7_469{
fill: #4C81C2;
}
.g8_469{
fill: #808080;
}
.g9_469{
fill: #676767;
}
.ga_469{
fill: #E5E5E5;
}
.gb_469{
fill: #C1C5CB;
}
.gc_469{
fill: #231F20;
}
.gd_469{
fill: none;
stroke: #231F20;
stroke-width: 0.763;
stroke-linecap: butt;
stroke-linejoin: miter;
stroke-miterlimit: 4;
}
]]></style>
</defs>
<path d="M158.4,863.8h440V623.3h-440Z" class="g0_469"/>
<path fill-rule="evenodd" d="M269.4,848.8H224.5c-2.5,0,-4,-1.4,-4,-3.2v8.7c0,1.7,1.3,3.1,3,3.1h91.7c1.7,0,3.1,-1.4,3.1,-3.1v-8.5c-.2,1.7,-1.6,3,-4,3H269.4Z" class="g1_469"/>
<path fill-rule="evenodd" d="M224.2,838.8l-2.9,4.1c-.5,.8,-.8,1.6,-.8,2.4v.3c0,1.8,1.5,3.2,4,3.2h89.8c2.4,0,3.8,-1.3,4,-3c.1,-.9,-.2,-1.9,-.9,-2.9l-2.8,-4.1c-1.3,-1.8,-2.9,-4.1,-5.1,-4.3c-.1,0,-1.5,0,-1.5,0c-2.6,2.3,-8,3,-14,3H244.1c-6,0,-11.4,-.7,-14,-3c-.1,0,-.7,0,-.8,0c-2.2,.2,-3.8,2.5,-5.1,4.3Z" class="g2_469"/>
<path fill-rule="evenodd" d="M229.7,826.8c-1.9,3.6,-1.5,6.1,.4,7.7c2.6,2.3,8,3,14,3h1.6l6,-5.6l-7.2,-5.6c-5.4,-4.3,-11,-1.6,-14.8,.5Z" class="g3_469"/>
<path fill-rule="evenodd" d="M293.5,826.3l-4.4,5.6l3.3,5.6H294c6,0,11.4,-.7,14,-3c1.9,-1.6,2.3,-4.1,.4,-7.7c-3.8,-2.1,-8.2,-2.2,-14.9,-.5Z" class="g3_469"/>
<path fill-rule="evenodd" d="M248.7,804.9c-7,.4,-9.7,4.3,-13.1,10.7l-5.9,11.2c3.8,-2.1,8.1,-2.2,14.8,-.5h49c6.7,-1.7,11.1,-1.6,14.9,.5l-6,-11.2c-3.4,-6.4,-6,-10.3,-13,-10.7c-1.6,0,-3,-.2,-4.2,-.7l-32.4,.1c-1.2,.4,-2.5,.6,-4.1,.6Z" class="g4_469"/>
<path fill-rule="evenodd" d="M286.2,779.8c-4.8,3.6,-3.1,6.5,-.3,8.1c2.3,.1,4.8,-2.2,4.8,-4.5v-1.8c0,-1,-.8,-1.8,-1.8,-1.8h-2.7Z" class="g5_469"/>
<path fill-rule="evenodd" d="M246.2,783.4c0,2.3,2.5,4.6,4.7,4.5l3.6,-4.4l-3.8,-3.7H248c-1,0,-1.8,.8,-1.8,1.8v1.8Z" class="g5_469"/>
<path fill-rule="evenodd" d="M293,832l-.6,5.5H294c6,0,11.4,-.7,14,-3c1.6,-1.4,2.1,-3.4,1,-6.2c-.2,.3,-.4,.5,-.7,.7c-2.6,2.3,-7.9,3,-13.9,3H293Z" class="g6_469"/>
<path fill-rule="evenodd" d="M229,828.4c-1.1,2.7,-.5,4.7,1.1,6.1c2.6,2.3,8,3,14,3h1.6l-.6,-5.6h-1.6c-6,0,-11.4,-.7,-14,-3c-.2,-.2,-.3,-.3,-.5,-.5Z" class="g6_469"/>
<path fill-rule="evenodd" d="M281.9,807.7c1,.4,2.3,.5,3.6,.6c7.1,.4,9.7,4.3,13.1,10.7l3.3,6.1c2.5,.1,4.5,.6,6.5,1.7l-6,-11.2c-3.4,-6.4,-6,-10.3,-13,-10.7c-1.6,0,-3,-.2,-4.2,-.7c-.8,1.4,-1.9,2.6,-3.3,3.5Z" class="g7_469"/>
<path fill-rule="evenodd" d="M253.1,804.8c6.1,9.1,27,8.3,32.1,-.6c-1.6,-.5,-2.9,-1.5,-4.4,-3.1c-.5,-.6,-1.9,-2,-1.9,-2.1l-9.1,-5.7l-11.1,6.3c-.5,.4,-1.2,1.1,-1.5,1.5c-1.4,1.6,-2.8,2.6,-4.4,3.2c.1,.1,.2,.3,.3,.5Z" class="g6_469"/>
<path fill-rule="evenodd" d="M250.9,787.9c.9,4.2,3.9,8.6,7.8,11.7c1.4,1.1,2.9,2,4.5,2.7c.3,.1,.5,.2,.8,.3c3.2,1.2,5.6,1.2,8.9,0c2.1,-.8,4.2,-2,6,-3.6c3.5,-3,6.2,-7.2,7,-11.1c.2,-.8,.3,-1.6,.3,-2.4v-9.7l-16.4,-4.4l-19.1,4.4v9.7c0,.8,.1,1.6,.2,2.4Z" class="g3_469"/>
<path fill-rule="evenodd" d="M281.2,777.4v9.7c0,.8,-.1,1.6,-.3,2.5c-.8,3.9,-3.4,8,-7,11.1c-1.3,1.1,-2.6,2,-4.1,2.7c1,-.1,2,-.4,3.1,-.8c.5,-.2,1.1,-.4,1.7,-.7c1.5,-.8,2.9,-1.7,4.3,-2.9c3.5,-3,6.2,-7.2,7,-11.1c.2,-.8,.3,-1.6,.3,-2.4v-9.7c-1.8,.7,-3.5,1.2,-5,1.6Z" class="g6_469"/>
<path fill-rule="evenodd" d="M250.7,775.8c15.5,-4.2,14.2,8.1,35.5,0c9.8,-7.2,.2,-21,-10.3,-15.4c-5.2,2.8,-11.7,-1.3,-17.2,1.1c-5.3,2.4,-8,7.4,-8,14.3Z" class="g8_469"/>
<path fill-rule="evenodd" d="M275,760.8c8.7,-.8,14.7,10.4,6.2,16.6c1.5,-.4,3.2,-.9,5,-1.6c9.8,-7.2,.2,-21,-10.3,-15.4c-.3,.1,-.6,.3,-.9,.4Z" class="g9_469"/>
<path fill-rule="evenodd" d="M277.6,805.1c1.2,1.2,2.4,2,3.8,2.5c.2,0,.3,.1,.5,.1c1.4,-.9,2.5,-2.1,3.3,-3.5h-.1c-1.5,-.6,-2.9,-1.5,-4.3,-3.1c-.5,-.6,-1.9,-2,-1.9,-2.1c-1.8,1.6,-3.9,2.8,-6,3.6c-3.3,1.2,-5.7,1.2,-8.9,0c-.3,-.1,-.5,-.2,-.8,-.3c-1.6,-.7,-3.1,-1.6,-4.5,-2.7c-.5,.4,-1.2,1.1,-1.5,1.5c-.1,.2,-.3,.3,-.5,.5c.5,.5,1,.9,1.5,1.3c1.5,1.1,3.1,2,4.8,2.7c.3,.1,.5,.2,.8,.3c3.4,1.2,5.9,1.2,9.3,0c.9,-.3,1.9,-.7,2.8,-1.2c.3,-.2,.8,-.6,1.7,.4Z" class="g5_469"/>
<path fill-rule="evenodd" d="M248.1,842.2l-2.4,-4.7h-1.6c-6,0,-11.4,-.7,-14,-3c-.1,0,-.7,0,-.8,0c-1.2,.1,-2.2,.8,-3.1,1.7c0,0,0,.1,0,.1c-.2,.2,-.5,.5,-.7,.7c1.9,5,17.6,5.2,22.6,5.2Z" class="g1_469"/>
<path fill-rule="evenodd" d="M290,842.2l2.4,-4.7H294c6,0,11.4,-.7,14,-3c.3,0,1.4,0,1.5,0c1.2,.1,2.3,.9,3.2,1.8h-.1q.1,0,.1,.1c.1,.1,0,.4,-.2,.6c-1.8,5,-17.5,5.2,-22.5,5.2Z" class="g1_469"/>
<path fill-rule="evenodd" d="M244.5,826.3l1.2,11.2l.2,2.5c.1,1.2,1,2.2,2.2,2.2H290c1.2,0,2,-1,2.1,-2.2l.3,-2.5l1.1,-11.2l.9,-8.5c.1,-1.2,-1,-2.2,-2.2,-2.2H245.9c-1.2,0,-2.3,1,-2.2,2.2l.8,8.5Z" class="ga_469"/>
<path fill-rule="evenodd" d="M264.5,828.9c0,2.2,2,3.9,4.5,3.9c2.5,0,4.6,-1.7,4.6,-3.9c0,-2.2,-2.1,-3.9,-4.6,-3.9c-2.5,0,-4.5,1.7,-4.5,3.9Z" class="g6_469"/>
<path fill-rule="evenodd" d="M245.7,837.5l.2,2.5c0,.2,.1,.5,.2,.7c.3,.9,1,1.5,2,1.5H290c.9,0,1.7,-.6,2,-1.5c.1,-.2,.1,-.5,.1,-.7l.3,-2.5H245.7Z" class="gb_469"/>
<path d="M261.6,788.8c-.8,0,-1.5,-.7,-1.5,-1.5v-1.7c0,-.8,.7,-1.5,1.5,-1.5c.8,0,1.5,.7,1.5,1.5v1.7c0,.8,-.7,1.5,-1.5,1.5Z" class="gc_469"/>
<path d="M275.5,788.8c-.9,0,-1.5,-.7,-1.5,-1.5v-1.7c0,-.8,.6,-1.5,1.5,-1.5c.8,0,1.4,.7,1.4,1.5v1.7c0,.8,-.6,1.5,-1.4,1.5Z" class="gc_469"/>
<path d="M263,828.9c0,3,2.7,5.4,6,5.4c3.4,0,6.1,-2.4,6.1,-5.4c0,-3,-2.7,-5.4,-6.1,-5.4c-3.3,0,-6,2.4,-6,5.4Zm6,-2.4c1.7,0,3.1,1.1,3.1,2.4c0,1.4,-1.4,2.4,-3.1,2.4c-1.6,0,-3,-1,-3,-2.4c0,-1.3,1.4,-2.4,3,-2.4Z" class="gc_469"/>
<path d="M318.7,842l-2.9,-4c-1.2,-1.8,-2.8,-4,-5.1,-4.7c.8,-2,.5,-4.4,-1,-7.1c0,0,0,-.1,0,-.1l-6,-11.2c-3.4,-6.4,-6.4,-11,-14.3,-11.5c-3.1,-.1,-5.2,-.7,-7.4,-3.3c-.3,-.3,-.6,-.7,-1,-1c2.9,-2.8,5.1,-6.3,6.1,-9.8c1.1,-.2,2.2,-.9,3.2,-1.8c1.2,-1.2,1.9,-2.7,1.9,-4.1v-1.8c0,-1.8,-1.5,-3.3,-3.3,-3.3h-1.2v-1.8c2.2,-1.8,3.5,-4,3.9,-6.5c.5,-2.4,-.1,-5,-1.5,-7.2c-2.7,-4.3,-8.7,-7,-14.9,-3.7c-2.3,1.2,-5,.8,-7.9,.5c-3,-.4,-6.1,-.8,-9.2,.6c-2.9,1.2,-5.2,3.3,-6.7,6c-1.5,2.7,-2.2,5.9,-2.2,9.6v2.5H248c-1.8,0,-3.3,1.5,-3.3,3.3v1.8c0,1.4,.7,2.9,1.9,4.1c.9,.9,2,1.6,3.1,1.8c1.1,3.7,3.6,7.5,6.8,10.4c-.2,.1,-.3,.3,-.4,.4c-1.3,1.4,-2.4,2.3,-3.8,2.7c-1.1,.4,-2.3,.6,-3.7,.6c-7.9,.5,-10.9,5.1,-14.3,11.5l-5.9,11.2c0,0,0,.1,0,.1c-1.5,2.8,-1.8,5.3,-.9,7.3c-2,.9,-3.4,2.9,-4.5,4.5l-2.9,4c-.7,1,-1.1,2.1,-1.1,3.1q0,.1,0,.2v9c0,2.5,2,4.6,4.5,4.6h91.7c2.6,0,4.6,-2.1,4.6,-4.6v-8.5c.1,-1.2,-.3,-2.6,-1.1,-3.8Zm-70,-56.6c-.6,-.6,-1,-1.4,-1,-2v-1.8c0,-.1,.1,-.3,.3,-.3h1.2v4.1c0,.2,0,.3,0,.4c-.2,-.1,-.4,-.3,-.5,-.4Zm46.2,42.1c5.7,-1.3,9.3,-1.1,12.4,.4c.9,2,1.1,3.6,.4,4.7c-.9,1.5,-4.1,3.4,-13.7,3.4l.9,-8.5Zm-6,-46.2c.1,0,.3,.2,.3,.3v1.8c0,.6,-.4,1.4,-1,2c-.2,.1,-.4,.3,-.5,.4c0,-.1,0,-.2,0,-.4v-4.1h1.2ZM259.3,762.9c2.3,-1,4.9,-.7,7.7,-.3c3.2,.3,6.5,.8,9.6,-.9c4.8,-2.5,9.1,-.4,11,2.7c1.7,2.7,2.1,6.9,-2.1,10.1c-11.3,4.2,-15.6,2.6,-20.2,.8c-2.5,-.9,-5,-1.9,-8.5,-1.9c-1.4,0,-2.9,.1,-4.6,.5c.4,-4.1,2,-8.8,7.1,-11Zm-6.9,24.9c0,-.1,0,-.2,0,-.2c-.2,-.7,-.2,-1.5,-.2,-2.2V777c5.6,-1.3,8.6,-.2,12,1.1c2.6,1,5.3,2,9.3,2c2.9,0,6.5,-.6,11.2,-2.2v7.5c0,.7,-.1,1.4,-.2,2.1c-.1,.1,-.1,.2,-.1,.3c-1.2,5.4,-6.3,11.3,-12.1,13.4c-2.8,1.1,-4.9,1.1,-7.8,0c-5.7,-2.1,-10.9,-8,-12.1,-13.4Zm6,14.2c.1,-.1,.2,-.3,.4,-.4c1.5,1,3.1,1.8,4.7,2.4c1.8,.7,3.3,1,4.9,1c1.6,0,3.2,-.3,5,-1c1.9,-.7,3.7,-1.7,5.3,-3c.4,.4,.8,.8,1,1c1.1,1.3,2.1,2.2,3.3,2.8c-2.6,2.9,-7.6,4.8,-13.4,5c-6.3,.2,-11.7,-1.7,-14.5,-5c1.1,-.6,2.2,-1.5,3.3,-2.8ZM237,816.3c3.4,-6.5,5.7,-9.5,11.8,-9.9c1.2,0,2.3,-.2,3.4,-.4c3,4.2,9.3,6.8,16.6,6.8c.3,0,.6,0,.9,0c7.1,-.2,13.2,-2.8,16.2,-6.8c1,.2,2.2,.4,3.4,.4c6.1,.4,8.4,3.4,11.8,9.9l4.1,7.7c-2.7,-.6,-5.9,-.5,-10,.4l.7,-6.5c.1,-.9,-.2,-1.8,-.9,-2.5c-.7,-.8,-1.7,-1.3,-2.8,-1.3H272.8c-.8,0,-1.5,.7,-1.5,1.5c0,.8,.7,1.5,1.5,1.5h19.4c.2,0,.4,.1,.6,.3c.1,.1,.1,.2,.1,.2l-2.2,22.3c-.1,.4,-.3,.8,-.7,.8H248.1c-.4,0,-.7,-.5,-.7,-.8L246,826.2c0,0,0,-.1,0,-.2l-.8,-8.4c0,0,0,-.1,.1,-.2c.1,-.2,.3,-.3,.6,-.3h20c.8,0,1.5,-.7,1.5,-1.5c0,-.8,-.7,-1.5,-1.5,-1.5h-20c-1.1,0,-2.1,.5,-2.8,1.3c-.7,.7,-1,1.6,-.9,2.5l.6,6.5c-4,-.9,-7.2,-1,-9.9,-.4l4.1,-7.7Zm7,19.7c-7.7,0,-11.3,-1.2,-12.8,-2.5q-.1,-.1,-.2,-.1c-.3,-.3,-.5,-.6,-.6,-.8c-.7,-1.1,-.5,-2.7,.4,-4.7c3,-1.5,6.7,-1.7,12.4,-.4l.8,8.5Zm28.2,14.3h42.1c.9,0,1.8,-.2,2.5,-.5v4.5c0,.9,-.7,1.6,-1.6,1.6H223.5c-.8,0,-1.6,-.7,-1.6,-1.6v-4.5c.8,.3,1.7,.5,2.6,.5l40.8,-.1c.8,0,1.5,-.6,1.5,-1.5c0,-.8,-.7,-1.4,-1.5,-1.4H224.5c-1.2,0,-2,-.4,-2.4,-1.1c-.1,-.2,-.1,-.4,-.2,-.6v-.3c.1,-.5,.3,-1,.7,-1.5l2.8,-4.1c1.1,-1.6,2.5,-3.5,4,-3.7c0,0,.1,0,.2,0c2.7,2,7.5,3,14.5,3h.2l.1,1.2c.2,2,1.8,3.5,3.7,3.5H290c1.9,0,3.4,-1.5,3.6,-3.5l.1,-1.2h.3c7,0,11.8,-1,14.5,-3c.3,0,.8,0,.9,0c1.5,.2,2.9,2.1,4,3.7l2.8,4.1c.6,.9,.8,1.7,.5,2.4c-.4,.7,-1.3,1.1,-2.4,1.1H272.2c-.8,0,-1.5,.6,-1.5,1.5c0,.8,.7,1.5,1.5,1.5Z" class="gc_469"/>
<path fill-rule="evenodd" d="M473.8,853.7H428.9c-2.5,0,-4,-1.4,-4.1,-3.2v8.7c0,1.7,1.4,3.1,3.1,3.1h91.7c1.7,0,3.1,-1.4,3.1,-3.1v-8.5c-.2,1.7,-1.7,3,-4.1,3H473.8Z" class="g1_469"/>
<path fill-rule="evenodd" d="M428.6,843.7l-2.9,4.1c-.6,.8,-.8,1.6,-.9,2.4v.3c.1,1.8,1.6,3.2,4.1,3.2h89.7c2.4,0,3.9,-1.3,4.1,-3c.1,-.9,-.2,-1.9,-.9,-2.9l-2.9,-4.1c-1.3,-1.8,-2.8,-4.1,-5.1,-4.3c-.1,0,-1.4,0,-1.5,0c-2.6,2.3,-7.9,3,-13.9,3h-50c-6,0,-11.3,-.7,-13.9,-3c-.1,0,-.8,0,-.9,0c-2.2,.2,-3.7,2.5,-5,4.3Z" class="g2_469"/>
<path fill-rule="evenodd" d="M434.1,831.7c-1.9,3.6,-1.5,6.1,.4,7.7c2.6,2.3,7.9,3,13.9,3H450l6,-5.6l-7.1,-5.6c-5.4,-4.3,-11.1,-1.6,-14.8,.5Z" class="g3_469"/>
<path fill-rule="evenodd" d="M497.9,831.2l-4.5,5.6l3.4,5.6h1.6c6,0,11.3,-.7,13.9,-3c1.9,-1.6,2.3,-4.1,.4,-7.7c-3.7,-2.1,-8.1,-2.1,-14.8,-.5Z" class="g3_469"/>
<path fill-rule="evenodd" d="M453.1,809.9c-7.1,.3,-9.7,4.2,-13.1,10.6l-5.9,11.2c3.7,-2.1,8.1,-2.1,14.8,-.5h49c6.7,-1.6,11.1,-1.6,14.8,.5l-5.9,-11.2c-3.4,-6.4,-6,-10.3,-13.1,-10.6c-1.6,-.1,-2.9,-.3,-4.1,-.8l-32.5,.1c-1.2,.4,-2.5,.6,-4,.7Z" class="g4_469"/>
<path fill-rule="evenodd" d="M490.6,784.7c-4.8,3.6,-3.2,6.5,-.3,8.2c2.2,0,4.7,-2.3,4.7,-4.6v-1.8c0,-1,-.8,-1.8,-1.8,-1.8h-2.6Z" class="g5_469"/>
<path fill-rule="evenodd" d="M450.5,788.3c0,2.3,2.6,4.6,4.8,4.6l3.6,-4.5L455,784.7h-2.7c-.9,0,-1.8,.8,-1.8,1.8v1.8Z" class="g5_469"/>
<path fill-rule="evenodd" d="M497.3,836.9l-.5,5.5h1.6c6,0,11.3,-.7,13.9,-3c1.7,-1.4,2.2,-3.4,1.1,-6.2c-.2,.3,-.4,.5,-.7,.7c-2.6,2.3,-8,3,-14,3h-1.4Z" class="g6_469"/>
<path fill-rule="evenodd" d="M433.4,833.3c-1.1,2.7,-.5,4.7,1.1,6.1c2.6,2.3,7.9,3,13.9,3H450l-.5,-5.6h-1.6c-6,0,-11.4,-.7,-14,-3c-.2,-.1,-.4,-.3,-.5,-.5Z" class="g6_469"/>
<path fill-rule="evenodd" d="M486.2,812.6c1.1,.4,2.3,.5,3.7,.6c7,.4,9.7,4.3,13.1,10.7l3.3,6.1c2.4,.1,4.5,.6,6.4,1.7l-5.9,-11.2c-3.4,-6.4,-6,-10.3,-13.1,-10.6c-1.6,-.1,-2.9,-.3,-4.1,-.8c-.8,1.4,-2,2.6,-3.4,3.5Z" class="g7_469"/>
<path fill-rule="evenodd" d="M457.5,809.7c6.1,9.2,26.9,8.3,32.1,-.6c-1.6,-.5,-3,-1.5,-4.4,-3.1c-.5,-.6,-1.9,-2,-2,-2.1l-9,-5.7L463,804.5c-.4,.5,-1.1,1.1,-1.4,1.5c-1.4,1.6,-2.8,2.6,-4.5,3.2c.1,.1,.3,.3,.4,.5Z" class="g6_469"/>
<path fill-rule="evenodd" d="M455.3,792.9c.9,4.1,3.8,8.5,7.7,11.6c1.4,1.1,3,2,4.6,2.7c.2,.1,.5,.3,.8,.4c3.2,1.2,5.6,1.1,8.8,-.1c2.2,-.8,4.2,-2,6,-3.6c3.6,-3,6.2,-7.2,7.1,-11c.2,-.9,.3,-1.7,.3,-2.5v-9.7l-16.4,-4.4L455,780.7v9.7c0,.8,.1,1.6,.3,2.5Z" class="g3_469"/>
<path fill-rule="evenodd" d="M485.6,782.3V792c0,.8,-.1,1.7,-.3,2.5c-.8,3.9,-3.5,8,-7,11.1c-1.3,1.1,-2.7,2,-4.1,2.8c.9,-.2,1.9,-.4,3,-.9c.6,-.2,1.2,-.4,1.7,-.7c1.6,-.7,3,-1.7,4.3,-2.9c3.6,-3,6.2,-7.2,7.1,-11c.2,-.9,.3,-1.7,.3,-2.5v-9.7c-1.9,.7,-3.5,1.2,-5,1.6Z" class="g6_469"/>
<path fill-rule="evenodd" d="M455,780.7c15.5,-4.2,14.3,8.1,35.6,0c9.8,-7.1,.1,-21,-10.4,-15.4c-5.2,2.8,-11.7,-1.3,-17.1,1.1c-5.3,2.4,-8.1,7.4,-8.1,14.3Z" class="g8_469"/>
<path fill-rule="evenodd" d="M479.4,765.7c8.6,-.8,14.7,10.5,6.2,16.6c1.5,-.4,3.1,-.9,5,-1.6c9.8,-7.1,.1,-21,-10.4,-15.4c-.3,.1,-.5,.3,-.8,.4Z" class="g9_469"/>
<path fill-rule="evenodd" d="M482,810c1.2,1.2,2.4,2,3.8,2.5c.1,.1,.3,.1,.4,.1c1.4,-.9,2.6,-2.1,3.4,-3.5h-.1c-1.6,-.6,-2.9,-1.5,-4.3,-3.1c-.5,-.6,-1.9,-2,-2,-2.1c-1.8,1.6,-3.8,2.8,-6,3.6c-3.2,1.2,-5.6,1.3,-8.8,.1c-.3,-.1,-.6,-.3,-.8,-.4c-1.6,-.7,-3.2,-1.6,-4.6,-2.7c-.4,.5,-1.1,1.1,-1.4,1.5c-.2,.2,-.3,.3,-.5,.5c.5,.5,1,.9,1.5,1.3c1.5,1.1,3.1,2,4.7,2.7c.3,.1,.6,.2,.9,.3c3.3,1.2,5.9,1.2,9.2,0c1,-.3,1.9,-.7,2.8,-1.2c.4,-.2,.9,-.6,1.8,.4Z" class="g5_469"/>
<path fill-rule="evenodd" d="M452.5,847.1L450,842.4h-1.6c-6,0,-11.3,-.7,-13.9,-3c-.1,0,-.8,0,-.9,0c-1.1,.2,-2.1,.8,-3,1.7q0,.1,0,.1c-.3,.2,-.5,.5,-.7,.7c1.8,5,17.6,5.2,22.6,5.2Z" class="g1_469"/>
<path fill-rule="evenodd" d="M494.3,847.1l2.5,-4.7h1.6c6,0,11.3,-.7,13.9,-3h.1c.3,0,1.4,0,1.4,0c1.3,.1,2.3,.9,3.2,1.9v-.1q0,.1,0,.1h.1c0,.1,-.1,.4,-.2,.6c-1.8,5,-17.6,5.2,-22.6,5.2Z" class="g1_469"/>
<path fill-rule="evenodd" d="M448.9,831.2l1.1,11.2l.3,2.5c.1,1.2,1,2.2,2.2,2.2h41.8c1.2,0,2.1,-1,2.2,-2.2l.3,-2.5l1.1,-11.2l.9,-8.5c.1,-1.2,-1,-2.2,-2.2,-2.2H450.2c-1.2,0,-2.3,1,-2.2,2.2l.9,8.5Z" class="ga_469"/>
<path fill-rule="evenodd" d="M468.9,833.8c0,2.2,2,3.9,4.5,3.9c2.5,0,4.5,-1.7,4.5,-3.9c0,-2.2,-2,-3.9,-4.5,-3.9c-2.5,0,-4.5,1.7,-4.5,3.9Z" class="g6_469"/>
<path fill-rule="evenodd" d="M450,842.4l.3,2.5c0,.3,.1,.5,.1,.7c.3,.9,1.1,1.5,2.1,1.5h41.8c1,0,1.7,-.6,2.1,-1.5c0,-.2,.1,-.4,.1,-.7l.3,-2.5H450Z" class="gb_469"/>
<path d="M466,793.7c-.9,0,-1.5,-.7,-1.5,-1.5v-1.7c0,-.8,.6,-1.5,1.5,-1.5c.8,0,1.5,.7,1.5,1.5v1.7c0,.8,-.7,1.5,-1.5,1.5Z" class="gc_469"/>
<path d="M479.8,793.7c-.8,0,-1.5,-.7,-1.5,-1.5v-1.7c0,-.8,.7,-1.5,1.5,-1.5c.8,0,1.5,.7,1.5,1.5v1.7c0,.8,-.7,1.5,-1.5,1.5Z" class="gc_469"/>
<path d="M467.4,833.8c0,3,2.7,5.4,6,5.4c3.3,0,6,-2.4,6,-5.4c0,-3,-2.7,-5.4,-6,-5.4c-3.3,0,-6,2.4,-6,5.4Zm6,-2.4c1.7,0,3,1.1,3,2.4c0,1.4,-1.3,2.5,-3,2.5c-1.7,0,-3,-1.1,-3,-2.5c0,-1.3,1.3,-2.4,3,-2.4Z" class="gc_469"/>
<path d="M523,847l-2.8,-4.1c-1.2,-1.7,-2.8,-4,-5.2,-4.7c.8,-2,.5,-4.4,-.9,-7.1V831l-6,-11.2c-3.4,-6.4,-6.4,-11,-14.3,-11.4c-3.2,-.2,-5.2,-.8,-7.5,-3.4c-.2,-.3,-.6,-.6,-.9,-1c2.9,-2.8,5.1,-6.3,6.1,-9.8c1.1,-.2,2.2,-.9,3.1,-1.8c1.2,-1.2,1.9,-2.7,1.9,-4.1v-1.8c0,-1.8,-1.5,-3.3,-3.3,-3.3H492v-1.8c2.2,-1.7,3.6,-4,4,-6.5c.4,-2.4,-.1,-4.9,-1.5,-7.1c-2.7,-4.4,-8.8,-7.1,-15,-3.8c-2.2,1.2,-4.9,.8,-7.8,.5c-3,-.4,-6.2,-.8,-9.2,.6c-3,1.3,-5.2,3.3,-6.7,6c-1.5,2.7,-2.3,5.9,-2.3,9.6v2.5h-1.2c-1.8,0,-3.2,1.5,-3.2,3.3v1.8c0,1.4,.6,2.9,1.8,4.1c1,.9,2.1,1.6,3.2,1.8c1.1,3.7,3.5,7.5,6.7,10.4c-.1,.1,-.2,.3,-.3,.4c-1.3,1.4,-2.5,2.3,-3.8,2.7c-1.1,.4,-2.3,.6,-3.7,.7c-7.9,.4,-10.9,5,-14.3,11.4l-6,11.2q0,.1,0,.1c-1.5,2.8,-1.8,5.3,-.8,7.3c-2,.9,-3.5,2.9,-4.6,4.5l-2.8,4.1c-.7,.9,-1.1,2,-1.2,3q0,.1,0,.2v9c0,2.5,2.1,4.6,4.6,4.6h91.7c2.5,0,4.6,-2.1,4.6,-4.6v-8.5c.1,-1.2,-.3,-2.5,-1.2,-3.7ZM453,790.3c-.6,-.6,-1,-1.4,-1,-2v-1.8c0,-.1,.2,-.3,.3,-.3h1.2v4.2c0,.1,0,.2,0,.3c-.1,-.1,-.3,-.3,-.5,-.4Zm46.3,42.1c5.6,-1.3,9.3,-1.1,12.3,.4c1,2,1.1,3.6,.5,4.7c-1,1.5,-4.1,3.4,-13.7,3.4l.9,-8.5Zm-6.1,-46.2c.2,0,.3,.2,.3,.3v1.8c0,.6,-.3,1.4,-1,2c-.1,.1,-.3,.3,-.5,.4c0,-.1,0,-.2,0,-.3v-4.2h1.2ZM463.7,767.8c2.3,-1,4.9,-.7,7.6,-.3c3.2,.4,6.5,.8,9.6,-.9c4.8,-2.5,9.1,-.4,11.1,2.7c1.6,2.7,2,6.9,-2.2,10.1c-11.2,4.2,-15.5,2.6,-20.1,.8c-2.5,-.9,-5.1,-1.9,-8.6,-1.9c-1.3,0,-2.8,.2,-4.5,.5c.4,-4.1,2,-8.7,7.1,-11Zm-6.9,24.9c0,-.1,0,-.2,-.1,-.2c-.1,-.7,-.2,-1.4,-.2,-2.1v-8.5c5.7,-1.3,8.7,-.2,12.1,1.1c2.6,1,5.3,2,9.2,2c3,0,6.6,-.6,11.3,-2.2v7.6c0,.6,-.1,1.3,-.3,2c0,.1,0,.2,0,.3c-1.2,5.4,-6.4,11.3,-12.1,13.4c-2.9,1.1,-4.9,1.1,-7.8,.1C463.1,804,458,798.1,456.8,792.7Zm5.9,14.3c.1,-.2,.3,-.3,.5,-.5c1.4,1,3,1.9,4.6,2.5c1.8,.6,3.4,.9,5,.9c1.6,0,3.2,-.3,5,-1c1.8,-.7,3.6,-1.7,5.3,-3c.4,.4,.8,.8,1,1c1,1.3,2.1,2.2,3.2,2.8c-2.6,2.9,-7.6,4.8,-13.3,5c-6.3,.2,-11.8,-1.7,-14.6,-4.9c1.2,-.7,2.2,-1.6,3.3,-2.8Zm-21.4,14.2c3.4,-6.5,5.7,-9.5,11.9,-9.9c1.2,0,2.3,-.1,3.3,-.4c3.1,4.2,9.4,6.8,16.6,6.8c.3,0,.6,0,.9,0c7.2,-.2,13.3,-2.8,16.2,-6.8c1.1,.2,2.2,.4,3.4,.4c6.2,.4,8.5,3.5,11.9,9.9l4.1,7.7c-2.8,-.6,-5.9,-.5,-10,.4l.6,-6.4c.1,-1,-.2,-1.9,-.8,-2.6c-.7,-.8,-1.8,-1.3,-2.8,-1.3H477.2c-.8,0,-1.5,.7,-1.5,1.5c0,.8,.7,1.5,1.5,1.5h19.4c.2,0,.4,.1,.6,.3c0,.1,.1,.2,.1,.3L495,844.8c0,.4,-.3,.8,-.7,.8H452.5c-.5,0,-.7,-.5,-.7,-.8l-1.4,-13.7c0,0,0,-.1,0,-.1l-.9,-8.4c0,-.1,.1,-.2,.1,-.3c.2,-.2,.4,-.3,.6,-.3h20.1c.8,0,1.5,-.7,1.5,-1.5c0,-.8,-.7,-1.5,-1.5,-1.5H450.2c-1,0,-2.1,.5,-2.8,1.3c-.6,.7,-.9,1.6,-.8,2.6l.6,6.4c-4.1,-.9,-7.2,-1,-10,-.4l4.1,-7.7Zm7.1,19.7c-7.8,0,-11.3,-1.2,-12.9,-2.5q0,-.1,-.1,-.1c-.3,-.3,-.5,-.6,-.7,-.8c-.6,-1.1,-.5,-2.7,.5,-4.7c3,-1.5,6.7,-1.7,12.3,-.4l.9,8.5Zm28.2,14.3h42c1,0,1.8,-.2,2.6,-.5v4.5c0,.9,-.7,1.6,-1.6,1.6H427.9c-.9,0,-1.6,-.7,-1.6,-1.6v-4.5c.8,.3,1.6,.5,2.6,.5l40.8,-.1c.8,0,1.5,-.6,1.5,-1.4c0,-.9,-.7,-1.5,-1.5,-1.5H428.9c-1.2,0,-2.1,-.4,-2.4,-1.1c-.1,-.2,-.2,-.4,-.2,-.6v-.3c0,-.5,.3,-1,.6,-1.5l2.9,-4.1c1.1,-1.6,2.4,-3.5,3.9,-3.7c.1,0,.2,0,.3,0c2.7,2,7.4,3,14.4,3h.3l.1,1.2c.2,2,1.7,3.5,3.7,3.5h41.8c1.9,0,3.5,-1.5,3.7,-3.5l.1,-1.2h.3c7,0,11.7,-1,14.4,-3c.4,0,.8,0,.9,0c1.6,.2,2.9,2.1,4,3.7l2.9,4.1c.6,.9,.8,1.8,.4,2.4c-.3,.7,-1.2,1.1,-2.4,1.1h-42c-.8,0,-1.5,.7,-1.5,1.5c0,.8,.7,1.5,1.5,1.5Z" class="gc_469"/>
<g clip-path="url(#c0_469)">
<path d="M303.5,781.3c-5.8,0,-10.6,3.7,-10.6,8.3c0,4.6,4.8,8.3,10.6,8.3c5.9,0,10.7,-3.7,10.7,-8.3c0,-4.6,-4.8,-8.3,-10.7,-8.3Zm0,12.8c-3.2,0,-5.8,-2,-5.8,-4.5c0,-2.5,2.6,-4.5,5.8,-4.5c3.3,0,5.9,2,5.9,4.5c0,2.5,-2.6,4.5,-5.9,4.5Zm40.8,-46.3c0,-10.3,-10.8,-18.7,-24,-18.7c-.7,0,-1.4,0,-2.1,0c10.7,-4.8,18,-13.8,18,-24.1c0,-15.3,-16.1,-27.8,-35.8,-27.8c-1.7,0,-3.3,.1,-4.9,.2C290.9,663.8,274.9,654,256.6,654c-12.2,0,-23.5,4.2,-31.2,11.5c-4.5,-1,-9.3,-1.5,-14.1,-1.5c-29.2,0,-52.9,18.5,-52.9,41.2c0,22.7,23.7,41.2,52.9,41.2c8.6,0,17.2,-1.7,24.8,-4.9c6.9,6.8,17.4,10.8,28.5,10.8c15.7,0,29.6,-7.9,34.4,-19.4c.5,0,.9,0,1.4,0c2.1,0,4.1,-.2,6.1,-.5c-6.2,3.4,-10.3,9.1,-10.3,15.4c0,10.2,10.5,18.5,23.6,18.8c-5.7,1.2,-9.9,5.3,-9.9,10.2c0,5.8,6.1,10.6,13.6,10.6c7.6,0,13.7,-4.8,13.7,-10.6c0,-5.5,-5.3,-10,-12.2,-10.6c11,-1.7,19.3,-9.3,19.3,-18.4ZM297.5,729l-2.1,-.1l-.5,1.5c-3.6,10.7,-16.1,18.2,-30.3,18.2c-10.3,0,-19.9,-4,-25.8,-10.6l-1.3,-1.4l-1.9,.9c-7.4,3.3,-15.8,5.1,-24.3,5.1c-26.5,0,-48.1,-16.8,-48.1,-37.4c0,-20.6,21.6,-37.4,48.1,-37.4c4.9,0,9.7,.5,14.3,1.7l1.6,.4l1.1,-1.1c6.7,-7,17.1,-11,28.3,-11c16.8,0,31.4,9.3,34.7,22.1l.5,1.9l2.3,-.4c2.1,-.3,4.2,-.5,6.3,-.5c17,0,30.9,10.8,30.9,24.1c0,13.3,-13.9,24.1,-30.9,24.1c-1,0,-2,0,-2.9,-.1Zm34.9,47.7c0,3.8,-4,6.9,-8.9,6.9c-4.8,0,-8.8,-3.1,-8.8,-6.9c0,-3.7,4,-6.8,8.8,-6.8c4.9,0,8.9,3.1,8.9,6.8ZM320.3,762.8c-10.7,0,-19.3,-6.7,-19.3,-15c0,-8.3,8.6,-15,19.3,-15c10.6,0,19.2,6.7,19.2,15c0,8.3,-8.6,15,-19.2,15Z" class="gc_469"/>
<path d="M439.9,791.5c6.4,0,11.6,4.1,11.6,9.2c0,5.1,-5.2,9.3,-11.6,9.3c-6.4,0,-11.6,-4.2,-11.6,-9.3c0,-5.1,5.2,-9.2,11.6,-9.2Zm0,14.3c3.5,0,6.4,-2.3,6.4,-5.1c0,-2.8,-2.9,-5,-6.4,-5c-3.5,0,-6.3,2.2,-6.3,5c0,2.8,2.8,5.1,6.3,5.1ZM395.4,754.2c0,-11.5,11.8,-20.9,26.3,-20.9c.7,0,1.5,0,2.2,.1C412.2,728,404.3,718,404.3,706.5c0,-17.1,17.5,-31,39.1,-31c1.8,0,3.5,.1,5.3,.3c5,-15.3,22.5,-26.1,42.5,-26.1c13.3,0,25.6,4.6,34,12.8c5,-1.1,10.2,-1.7,15.4,-1.7c31.9,0,57.8,20.6,57.8,45.9c0,25.3,-25.9,45.9,-57.8,45.9c-9.4,0,-18.7,-1.9,-27.1,-5.4c-7.4,7.5,-18.9,12,-31.1,12c-17.1,0,-32.3,-8.8,-37.5,-21.7c-.5,0,-1,0,-1.5,0c-2.3,0,-4.5,-.1,-6.7,-.4c6.8,3.7,11.3,10,11.3,17.1c0,11.4,-11.5,20.6,-25.8,20.9c6.2,1.4,10.8,5.9,10.8,11.3c0,6.5,-6.7,11.9,-14.9,11.9c-8.2,0,-14.9,-5.4,-14.9,-11.9c0,-6.1,5.8,-11.1,13.2,-11.7c-12,-2,-21,-10.4,-21,-20.5Zm51.1,-21l2.3,-.1l.5,1.7c4,11.9,17.6,20.2,33.1,20.2c11.3,0,21.8,-4.4,28.2,-11.7l1.4,-1.6l2.1,.9c8.1,3.8,17.3,5.8,26.5,5.8c29,0,52.5,-18.7,52.5,-41.7c0,-23,-23.5,-41.7,-52.5,-41.7c-5.3,0,-10.6,.7,-15.6,1.9l-1.8,.4l-1.1,-1.1c-7.4,-7.9,-18.6,-12.3,-30.9,-12.3c-18.4,0,-34.3,10.4,-37.9,24.7l-.5,2l-2.6,-.4c-2.2,-.3,-4.5,-.5,-6.8,-.5c-18.7,0,-33.8,12,-33.8,26.8c0,14.8,15.1,26.9,33.8,26.9c1,0,2.1,-.1,3.1,-.2Zm-38,53.2c0,4.2,4.3,7.7,9.6,7.7c5.3,0,9.6,-3.5,9.6,-7.7c0,-4.2,-4.3,-7.6,-9.6,-7.6c-5.3,0,-9.6,3.4,-9.6,7.6Zm13.2,-15.5c11.6,0,21,-7.5,21,-16.7c0,-9.2,-9.4,-16.7,-21,-16.7c-11.6,0,-21.1,7.5,-21.1,16.7c0,9.2,9.5,16.7,21.1,16.7Z" class="gc_469"/>
<path d="M370.4,623.3V861.7" class="gd_469"/>
</g>
</svg>