<?xml version="1.0" encoding="UTF-8" standalone="no"?>
<!DOCTYPE svg PUBLIC "-//W3C//DTD SVG 1.1//EN"
"http://www.w3.org/Graphics/SVG/1.1/DTD/svg11.dtd">
<svg viewBox="0 0 907 1045" version="1.1" xmlns="http://www.w3.org/2000/svg" xmlns:xlink="http://www.w3.org/1999/xlink">
<defs>
<clipPath id="c0_203"><path d="M346.1,385.3V291.4h135v93.9H460l-2.7,-3.2l-.9,.7l2.1,2.5h-44v-1h-1.2l.1,1H364.2l2.1,-2.5l-.9,-.7l-2.7,3.2Z"/></clipPath>
<clipPath id="c1_203"><path d="M362.7,385.3l2.7,-3.2l.9,.7l-2.1,2.5Z"/></clipPath>
<clipPath id="c2_203"><path d="M413.4,385.3l-.1,-1h1.2v1Z"/></clipPath>
<clipPath id="c3_203"><path d="M458.5,385.3l-2.1,-2.5l.9,-.7l2.7,3.2Z"/></clipPath>
<clipPath id="c4_203"><path d="M321,503.2c3.6,-13.2,9.8,-23.7,15.9,-31.6c1,-1.3,2,-2.5,3,-3.6v35.2Zm-116.1,0V452.5c1.1,-.1,2,-.2,2.7,-.2c.5,0,1,.1,1.3,.1c.1,0,.2,0,.3,0h.1l.2,-1.5c-.1,0,-.7,-.1,-1.9,-.1c-.7,0,-1.6,0,-2.7,.1V437.6H319l-15,17.8l.9,.7l15.6,-18.5h19.4v28.1c-1.4,1.5,-2.8,3.2,-4.2,5c-6.3,8,-12.6,18.8,-16.3,32.5Z"/></clipPath>
<clipPath id="c5_203"><path d="M319.4,503.2c3.7,-13.7,10,-24.5,16.3,-32.5c1.4,-1.8,2.8,-3.5,4.2,-5V468c-1,1.1,-2,2.3,-3,3.6c-6.1,7.9,-12.3,18.4,-15.9,31.6Z"/></clipPath>
<clipPath id="c6_203"><path d="M204.9,452.5v-1.6c1.1,-.1,2,-.1,2.7,-.1c1.2,0,1.8,.1,1.9,.1l-.2,1.5h-.1c-.1,0,-.2,0,-.3,0c-.3,0,-.8,-.1,-1.3,-.1c-.7,0,-1.6,.1,-2.7,.2Z"/></clipPath>
<clipPath id="c7_203"><path d="M304.9,456.1l-.9,-.7l15,-17.8h1.5l-15.6,18.5Z"/></clipPath>
<clipPath id="c8_203"><path d="M350.1,503.2V457.9c1.8,-1.5,3.2,-2.6,4.3,-3.3c.5,-.4,.9,-.6,1.2,-.8c.2,-.2,.4,-.3,.4,-.3l-.8,-1.3c-.1,0,-2,1.3,-5.1,3.7V437.6h63.3l.1,42.4h1.1V437.6H485v65.6Z"/></clipPath>
<clipPath id="c9_203"><path d="M350.1,457.9v-2c3.1,-2.4,5,-3.7,5.1,-3.7l.8,1.3c0,0,-.2,.1,-.4,.3c-.3,.2,-.7,.4,-1.2,.8c-1.1,.7,-2.5,1.8,-4.3,3.3Z"/></clipPath>
<clipPath id="ca_203"><path d="M413.5,480l-.1,-42.4h1.2V480Z"/></clipPath>
<clipPath id="cb_203"><path d="M85.2,669.6V605.1h68l2,4.1l1.1,-4.1h63.8v20.6H206v-15H90.7v44.7h16.1v14.2Z"/></clipPath>
<clipPath id="cc_203"><path d="M155.2,609.2l-2,-4.1h3.1l-1.1,4.1Z"/></clipPath>
<clipPath id="cd_203"><path d="M90.7,655.4V610.7H206v15h-.2V610.9H91v44.2h15.8v.3Z"/></clipPath>
<clipPath id="ce_203"><path d="M106.8,690.3V669.6h5.6V676H130v14.3ZM227.7,647.2V631.3h-7.6v-5.6h21.6v21.5Z"/></clipPath>
<clipPath id="cf_203"><path d="M106.8,669.6V655.4h5.6v14.2ZM206,631.3v-5.6h14.1v5.6Z"/></clipPath>
<clipPath id="cg_203"><path d="M106.8,654.9V625.7h98.7v5.6H112.4v23.6Z"/></clipPath>
<clipPath id="ch_203"><path d="M106.8,655.4v-.3h5.6v.3Zm99,-24.1v-5.6h.2v5.6Z"/></clipPath>
<clipPath id="ci_203"><path d="M106.8,655.1v-.2h5.6v.2Zm98.7,-23.8v-5.6h.3v5.6Z"/></clipPath>
<clipPath id="cj_203"><path d="M112.4,676v-6.4h.2v6.2H130v.2Zm115,-28.8V631.5h-7.3v-.2h7.6v15.9Z"/></clipPath>
<clipPath id="ck_203"><path d="M112.4,669.6V655.4h.2v14.2ZM206,631.5v-.2h14.1v.2Z"/></clipPath>
<clipPath id="cl_203"><path d="M112.4,654.9V631.3h93.1v.2H112.6v23.4Z"/></clipPath>
<clipPath id="cm_203"><path d="M112.4,655.4v-.3h.2v.3Zm93.4,-23.9v-.2h.2v.2Z"/></clipPath>
<clipPath id="cn_203"><path d="M112.4,655.1v-.2h.2v.2Zm93.1,-23.6v-.2h.3v.2Z"/></clipPath>
<clipPath id="co_203"><path d="M130,711.8V690.3h5.6v7.2h16.7v14.3ZM250.9,668.1V652.8h-9.2v-5.6H265v20.9Z"/></clipPath>
<clipPath id="cp_203"><path d="M130,690.3V676h5.6v14.3Zm97.7,-37.5v-5.6h14v5.6Z"/></clipPath>
<clipPath id="cq_203"><path d="M130,675.6V647.2h97.2v5.6H135.6v22.8Z"/></clipPath>
<clipPath id="cr_203"><path d="M130,676v-.2h5.6v.2Zm97.4,-23.2v-5.6h.3v5.6Z"/></clipPath>
<clipPath id="cs_203"><path d="M130,675.8v-.2h5.6v.2Zm97.2,-23v-5.6h.2v5.6Z"/></clipPath>
<clipPath id="ct_203"><path d="M135.6,697.5v-7.2h.3v7h16.4v.2Zm115,-29.4V653h-8.9v-.2h9.2v15.3Z"/></clipPath>
<clipPath id="cu_203"><path d="M135.6,690.3V676h.3v14.3ZM227.7,653v-.2h14v.2Z"/></clipPath>
<clipPath id="cv_203"><path d="M135.6,675.6V652.8h91.6v.2H135.9v22.6Z"/></clipPath>
<clipPath id="cw_203"><path d="M135.6,676v-.2h.3v.2Zm91.8,-23v-.2h.3v.2Z"/></clipPath>
<clipPath id="cx_203"><path d="M135.6,675.8v-.2h.3v.2ZM227.2,653v-.2h.2v.2Z"/></clipPath>
<clipPath id="cy_203"><path d="M152.3,732.7V711.8H265V668.1h14.9v1.5h7.3v63.1Z"/></clipPath>
<clipPath id="cz_203"><path d="M152.3,711.8V697.5h98.6V668.1H265v43.7Z"/></clipPath>
<clipPath id="c10_203"><path d="M152.3,697.1v-29h98.1v29Z"/></clipPath>
<clipPath id="c11_203"><path d="M152.3,697.5v-.2h98.3V668.1h.3v29.4Z"/></clipPath>
<clipPath id="c12_203"><path d="M152.3,697.3v-.2h98.1v-29h.2v29.2Z"/></clipPath>
<clipPath id="c13_203"><path d="M287.2,669.6v-1.5h-7.3v-63h57.8l6.7,5.6h-59v44.7h16.1v14.2ZM400.7,625.7v-15H345.1l-1,-5.6h70.7v20.6Z"/></clipPath>
<clipPath id="c14_203"><path d="M344.4,610.7l-6.7,-5.6h6.4l1,5.6Z"/></clipPath>
<clipPath id="c15_203"><path d="M279.9,669.6v-1.5h7.3v1.5Z"/></clipPath>
<clipPath id="c16_203"><path d="M285.4,655.4V610.7h59l.3,.2h-59v44.2h15.8v.3ZM400.5,625.7V610.9H345.2l-.1,-.2h55.6v15Z"/></clipPath>
<clipPath id="c17_203"><path d="M344.7,610.9l-.3,-.2h.7l.1,.2Z"/></clipPath>
<clipPath id="c18_203"><path d="M301.5,690.3V669.6h5.6V676h17.6v14.3ZM435.1,647.2V631.3H414.8v-5.6h34.8v21.5Z"/></clipPath>
<clipPath id="c19_203"><path d="M301.5,669.6V655.4h5.6v14.2Zm99.2,-38.3v-5.6h14.1v5.6Z"/></clipPath>
<clipPath id="c1a_203"><path d="M301.5,654.9V625.7h98.7v5.6H307.1v23.6Z"/></clipPath>
<clipPath id="c1b_203"><path d="M301.5,655.4v-.3h5.6v.3Zm99,-24.1v-5.6h.2v5.6Z"/></clipPath>
<clipPath id="c1c_203"><path d="M301.5,655.1v-.2h5.6v.2Zm98.7,-23.8v-5.6h.3v5.6Z"/></clipPath>
<clipPath id="c1d_203"><path d="M307.1,676v-6.4h.2v6.2h17.4v.2ZM434.9,647.2V631.5H414.8v-.2h20.3v15.9Z"/></clipPath>
<clipPath id="c1e_203"><path d="M307.1,669.6V655.4h.2v14.2Zm93.6,-38.1v-.2h14.1v.2Z"/></clipPath>
<clipPath id="c1f_203"><path d="M307.1,654.9V631.3h93.1v.2H307.3v23.4Z"/></clipPath>
<clipPath id="c1g_203"><path d="M307.1,655.4v-.3h.2v.3Zm93.4,-23.9v-.2h.2v.2Z"/></clipPath>
<clipPath id="c1h_203"><path d="M307.1,655.1v-.2h.2v.2Zm93.1,-23.6v-.2h.3v.2Z"/></clipPath>
<clipPath id="c1i_203"><path d="M324.7,711.8V690.3h5.6v7.2h16.3v14.3ZM450.8,668.1V652.8h-1.2v-5.6h15.9v20.9Z"/></clipPath>
<clipPath id="c1j_203"><path d="M324.7,690.3V676h5.6v14.3ZM435.1,652.8v-5.6h14.5v5.6Z"/></clipPath>
<clipPath id="c1k_203"><path d="M324.7,675.6V647.2H434.6v5.6H330.3v22.8Z"/></clipPath>
<clipPath id="c1l_203"><path d="M324.7,676v-.2h5.6v.2ZM434.9,652.8v-5.6h.2v5.6Z"/></clipPath>
<clipPath id="c1m_203"><path d="M324.7,675.8v-.2h5.6v.2Zm109.9,-23v-5.6h.3v5.6Z"/></clipPath>
<clipPath id="c1n_203"><path d="M330.3,697.5v-7.2h.2v7h16.1v.2ZM450.6,668.1V653h-1v-.2h1.2v15.3Z"/></clipPath>
<clipPath id="c1o_203"><path d="M330.3,690.3V676h.2v14.3ZM435.1,653v-.2h14.5v.2Z"/></clipPath>
<clipPath id="c1p_203"><path d="M330.3,675.6V652.8H434.6v.2H330.5v22.6Z"/></clipPath>
<clipPath id="c1q_203"><path d="M330.3,676v-.2h.2v.2ZM434.9,653v-.2h.2v.2Z"/></clipPath>
<clipPath id="c1r_203"><path d="M330.3,675.8v-.2h.2v.2ZM434.6,653v-.2h.3v.2Z"/></clipPath>
<clipPath id="c1s_203"><path d="M346.6,732.7V711.8H465.5V668.1h21.9v64.6Z"/></clipPath>
<clipPath id="c1t_203"><path d="M346.6,711.8V697.5H450.8V668.1h14.7v43.7Z"/></clipPath>
<clipPath id="c1u_203"><path d="M346.6,697.1v-29H450.4v29Z"/></clipPath>
<clipPath id="c1v_203"><path d="M346.6,697.5v-.2h104V668.1h.2v29.4Z"/></clipPath>
<clipPath id="c1w_203"><path d="M346.6,697.3v-.2H450.4v-29h.2v29.2Z"/></clipPath>
<clipPath id="c1x_203"><path d="M510.8,670.1V605.6H656.7v20.6H642.3V611.1H516.4v44.7h16.1v14.3Z"/></clipPath>
<clipPath id="c1y_203"><path d="M516.4,655.8V611.1H642.3v15.1H642V611.3H516.6v44.3h15.9v.2Z"/></clipPath>
<clipPath id="c1z_203"><path d="M532.5,690.7V670.1h5.6v6.4h17.7v14.2Zm146,-43v-16H656.7v-5.5h36.4v21.5Z"/></clipPath>
<clipPath id="c20_203"><path d="M532.5,670.1V655.8h5.6v14.3ZM642.3,631.7v-5.5h14.4v5.5Z"/></clipPath>
<clipPath id="c21_203"><path d="M532.5,655.4V626.2H641.8v5.5H538.1v23.7Z"/></clipPath>
<clipPath id="c22_203"><path d="M532.5,655.8v-.2h5.6v.2ZM642,631.7v-5.5h.3v5.5Z"/></clipPath>
<clipPath id="c23_203"><path d="M532.5,655.6v-.2h5.6v.2ZM641.8,631.7v-5.5h.2v5.5Z"/></clipPath>
<clipPath id="c24_203"><path d="M538.1,676.5v-6.4h.2v6.1h17.5v.3ZM678.3,647.7V632H656.7v-.3h21.8v16Z"/></clipPath>
<clipPath id="c25_203"><path d="M538.1,670.1V655.8h.2v14.3ZM642.3,632v-.3h14.4v.3Z"/></clipPath>
<clipPath id="c26_203"><path d="M538.1,655.4V631.7H641.8v.3H538.3v23.4Z"/></clipPath>
<clipPath id="c27_203"><path d="M538.1,655.8v-.2h.2v.2ZM642,632v-.3h.3v.3Z"/></clipPath>
<clipPath id="c28_203"><path d="M538.1,655.6v-.2h.2v.2ZM641.8,632v-.3h.2v.3Z"/></clipPath>
<clipPath id="c29_203"><path d="M555.8,712.2V690.7h5.6V698h16.2v14.2ZM695.7,668.6V653.3h-2.6v-5.6h16.7v20.9Z"/></clipPath>
<clipPath id="c2a_203"><path d="M555.8,690.7V676.5h5.6v14.2ZM678.5,653.3v-5.6h14.6v5.6Z"/></clipPath>
<clipPath id="c2b_203"><path d="M555.8,676V647.7H678v5.6H561.4V676Z"/></clipPath>
<clipPath id="c2c_203"><path d="M555.8,676.5v-.3h5.6v.3ZM678.3,653.3v-5.6h.2v5.6Z"/></clipPath>
<clipPath id="c2d_203"><path d="M555.8,676.2V676h5.6v.2ZM678,653.3v-5.6h.3v5.6Z"/></clipPath>
<clipPath id="c2e_203"><path d="M561.4,698v-7.3h.2v7h16v.3ZM695.5,668.6V653.5h-2.4v-.2h2.6v15.3Z"/></clipPath>
<clipPath id="c2f_203"><path d="M561.4,690.7V676.5h.2v14.2ZM678.5,653.5v-.2h14.6v.2Z"/></clipPath>
<clipPath id="c2g_203"><path d="M561.4,676V653.3H678v.2H561.6V676Z"/></clipPath>
<clipPath id="c2h_203"><path d="M561.4,676.5v-.3h.2v.3Zm116.9,-23v-.2h.2v.2Z"/></clipPath>
<clipPath id="c2i_203"><path d="M561.4,676.2V676h.2v.2ZM678,653.5v-.2h.3v.2Z"/></clipPath>
<clipPath id="c2j_203"><path d="M577.6,733.1V712.2H709.8V668.6h17.4v64.5Z"/></clipPath>
<clipPath id="c2k_203"><path d="M577.6,712.2V698H695.7V668.6h14.1v43.6Z"/></clipPath>
<clipPath id="c2l_203"><path d="M577.6,697.5V668.6H695.2v28.9Z"/></clipPath>
<clipPath id="c2m_203"><path d="M577.6,698v-.3H695.5V668.6h.2V698Z"/></clipPath>
<clipPath id="c2n_203"><path d="M577.6,697.7v-.2H695.2V668.6h.3v29.1Z"/></clipPath>
<clipPath id="c2o_203"><path d="M493.7,503.2V437.6h8.5l15.6,18.5l.9,-.7L503.8,437.6H628.6v65.6Z"/></clipPath>
<clipPath id="c2p_203"><path d="M517.8,456.1L502.2,437.6h1.6l14.9,17.8l-.9,.7Z"/></clipPath>
<clipPath id="c2q_203"><path d="M-2.6,1047.7V-2.6H910.2V1047.7Z"/></clipPath>
<style type="text/css"><![CDATA[
.g0_203{
fill: #0D0D0D;
}
.g1_203{
fill: #FFFFFF;
}
.g2_203{
fill: none;
stroke: #000000;
stroke-width: 0.492;
stroke-linecap: butt;
stroke-linejoin: miter;
stroke-miterlimit: 4;
}
.g3_203{
fill: none;
stroke: #000000;
stroke-width: 0.656;
stroke-linecap: butt;
stroke-linejoin: miter;
stroke-miterlimit: 4;
}
.g4_203{
fill: none;
stroke: #404040;
stroke-width: 1.527;
stroke-linecap: butt;
stroke-linejoin: bevel;
stroke-miterlimit: 12;
}
.g5_203{
}
.g6_203{
fill: none;
stroke: #000000;
stroke-width: 1.163;
stroke-linecap: butt;
stroke-linejoin: miter;
stroke-miterlimit: 4;
}
.g7_203{
fill: none;
stroke: #000000;
stroke-width: 0.892;
stroke-linecap: butt;
stroke-linejoin: miter;
stroke-miterlimit: 4;
}
.g8_203{
fill: none;
stroke: #0D0D0D;
stroke-width: 1.527;
stroke-linecap: butt;
stroke-linejoin: bevel;
stroke-miterlimit: 12;
}
.g9_203{
fill: none;
stroke: #636363;
stroke-width: 1.527;
stroke-linecap: butt;
stroke-linejoin: bevel;
stroke-miterlimit: 12;
}
.ga_203{
fill: none;
stroke: #FFFFFF;
stroke-width: 1.909;
stroke-linecap: butt;
stroke-linejoin: miter;
}
.gb_203{
fill: none;
stroke: #000000;
stroke-width: 0.381;
stroke-linecap: butt;
stroke-linejoin: miter;
}
]]></style>
</defs>
<path d="M355.2,452.2c-.1,.1,-9.8,6,-19.5,18.5C326,483.1,316.2,502.1,316.2,528c0,20.9,6.4,46.4,24.2,76.5l1.3,-.7C324,573.8,317.8,548.6,317.8,528c0,-25.5,9.5,-44.1,19.1,-56.4C341.7,465.5,346.5,461,350,458c1.8,-1.5,3.3,-2.7,4.4,-3.4c.5,-.4,.9,-.6,1.2,-.8c.2,-.2,.4,-.3,.4,-.3l-.8,-1.3Z" class="g0_203"/>
<path d="M345.3,611.3l-2.1,-11.2l-2.2,4.1l-4.5,-.1l8.8,7.2Z" class="g0_203"/>
<image clip-path="url(#c0_203)" preserveAspectRatio="none" x="346" y="291" width="135" height="95" xlink:href="img/1.jpg"/>
<image clip-path="url(#c1_203)" preserveAspectRatio="none" x="362" y="382" width="5" height="4" xlink:href="img/2.jpg"/>
<image clip-path="url(#c2_203)" preserveAspectRatio="none" x="413" y="384" width="2" height="2" xlink:href="img/3.jpg"/>
<image clip-path="url(#c3_203)" preserveAspectRatio="none" x="456" y="382" width="5" height="4" xlink:href="img/4.jpg"/>
<path d="M351.9,297.2v73.2H466.7V297.2H351.9Z" class="g1_203"/>
<path d="M351.9,297.2v73.2H466.7V297.2H351.9Z" class="g2_203"/>
<path d="M351.9,319.9H467.8" class="g3_203"/>
<path d="M171.3,849.6H615.6M171.3,875.3H615.6M171.3,901.1H615.6M171.3,926.9H615.6M171.3,952.7H615.6" class="g4_203"/>
<path d="M209.5,450.9c-.1,0,-.7,-.1,-1.9,-.1c-5,0,-19.1,1.4,-31.9,15.7c-12.8,14.2,-24.3,41.3,-24.3,92.3c0,12.5,.7,26.6,2.2,42.2l1.5,-.1c-1.5,-15.6,-2.2,-29.6,-2.2,-42.1c0,-50.8,11.4,-77.4,23.9,-91.3c12.5,-13.9,26.1,-15.2,30.8,-15.2c.5,0,1,.1,1.3,.1c.1,0,.2,0,.3,0h.1l.2,-1.5Z" class="g0_203"/>
<path d="M155.2,609.2l2.8,-11l-3.6,2.7L150.3,599l4.9,10.2Z" class="g0_203"/>
<path d="M304.9,456.1l61.4,-73.3l-.9,-.7L304,455.4l.9,.7Z" class="g5_203"/>
<path d="M414.6,480l-.1,-95.7h-1.2l.2,95.7h1.1Z" class="g5_203"/>
<image clip-path="url(#c4_203)" preserveAspectRatio="none" x="205" y="437" width="135" height="67" xlink:href="img/5.jpg"/>
<image clip-path="url(#c5_203)" preserveAspectRatio="none" x="319" y="465" width="21" height="39" xlink:href="img/6.jpg"/>
<image clip-path="url(#c6_203)" preserveAspectRatio="none" x="205" y="450" width="5" height="3" xlink:href="img/7.jpg"/>
<image clip-path="url(#c7_203)" preserveAspectRatio="none" x="304" y="437" width="17" height="20" xlink:href="img/8.jpg"/>
<path d="M210.8,443.4v44.9H325.5V443.4H210.8Z" class="g1_203"/>
<path d="M210.8,443.4v44.9H325.5V443.4H210.8Z" class="g2_203"/>
<path d="M210.7,459.9h116" class="g3_203"/>
<path d="M414.3,378.2l-8,7.7h15.1l-7.1,-7.7Z" class="g1_203"/>
<path d="M414.3,378.2l-8,7.7h15.1l-7.1,-7.7Z" class="g6_203"/>
<path d="M370.1,378l-11.1,.7l11.6,9.7L370.1,378Z" class="g1_203"/>
<path d="M370.1,378l-11.1,.7l11.6,9.7L370.1,378Z" class="g7_203"/>
<image clip-path="url(#c8_203)" preserveAspectRatio="none" x="350" y="437" width="135" height="67" xlink:href="img/9.jpg"/>
<image clip-path="url(#c9_203)" preserveAspectRatio="none" x="350" y="452" width="6" height="6" xlink:href="img/10.jpg"/>
<image clip-path="url(#ca_203)" preserveAspectRatio="none" x="413" y="437" width="2" height="43" xlink:href="img/11.jpg"/>
<path d="M355.9,443.4v44.9H470.7V443.4H355.9Z" class="g1_203"/>
<path d="M355.9,443.4v44.9H470.7V443.4H355.9Z" class="g2_203"/>
<path d="M355.9,459.9H471.8" class="g3_203"/>
<image clip-path="url(#cb_203)" preserveAspectRatio="none" x="85" y="605" width="135" height="65" xlink:href="img/12.jpg"/>
<image clip-path="url(#cc_203)" preserveAspectRatio="none" x="153" y="605" width="4" height="5" xlink:href="img/13.jpg"/>
<image clip-path="url(#cd_203)" preserveAspectRatio="none" x="90" y="610" width="117" height="46" xlink:href="img/14.jpg"/>
<path d="M91,610.9v44.2H205.8V610.9H91Z" class="g1_203"/>
<path d="M91,610.9h-.3v44.5H206V610.7H90.7v.2H91v.2H205.8v-.2h-.3v44.2h.3v-.2H91v.2h.2V610.9H91v.2v-.2Z" class="g5_203"/>
<image clip-path="url(#ce_203)" preserveAspectRatio="none" x="106" y="625" width="136" height="66" xlink:href="img/15.jpg"/>
<image clip-path="url(#cf_203)" preserveAspectRatio="none" x="106" y="625" width="114" height="45" xlink:href="img/16.jpg"/>
<image clip-path="url(#cg_203)" preserveAspectRatio="none" x="106" y="625" width="100" height="30" xlink:href="img/17.jpg"/>
<image clip-path="url(#ch_203)" preserveAspectRatio="none" x="106" y="625" width="101" height="31" xlink:href="img/18.jpg"/>
<image clip-path="url(#ci_203)" preserveAspectRatio="none" x="106" y="625" width="100" height="30" xlink:href="img/19.jpg"/>
<image clip-path="url(#cj_203)" preserveAspectRatio="none" x="112" y="631" width="116" height="45" xlink:href="img/20.jpg"/>
<image clip-path="url(#ck_203)" preserveAspectRatio="none" x="112" y="631" width="108" height="39" xlink:href="img/21.jpg"/>
<image clip-path="url(#cl_203)" preserveAspectRatio="none" x="112" y="631" width="94" height="24" xlink:href="img/22.jpg"/>
<image clip-path="url(#cm_203)" preserveAspectRatio="none" x="112" y="631" width="95" height="25" xlink:href="img/23.jpg"/>
<image clip-path="url(#cn_203)" preserveAspectRatio="none" x="112" y="631" width="94" height="24" xlink:href="img/24.jpg"/>
<path d="M112.6,631.5v44.3H227.4V631.5H112.6Z" class="g1_203"/>
<path d="M112.6,631.5h-.2V676H227.7V631.3H112.4v.2h.2v.3H227.4v-.3h-.2v44.3h.2v-.2H112.6v.2h.3V631.5h-.3v.3v-.3Z" class="g5_203"/>
<image clip-path="url(#co_203)" preserveAspectRatio="none" x="130" y="647" width="135" height="65" xlink:href="img/25.jpg"/>
<image clip-path="url(#cp_203)" preserveAspectRatio="none" x="130" y="647" width="112" height="44" xlink:href="img/26.jpg"/>
<image clip-path="url(#cq_203)" preserveAspectRatio="none" x="130" y="647" width="98" height="29" xlink:href="img/27.jpg"/>
<image clip-path="url(#cr_203)" preserveAspectRatio="none" x="130" y="647" width="98" height="29" xlink:href="img/28.jpg"/>
<image clip-path="url(#cs_203)" preserveAspectRatio="none" x="130" y="647" width="98" height="29" xlink:href="img/29.jpg"/>
<image clip-path="url(#ct_203)" preserveAspectRatio="none" x="135" y="652" width="116" height="46" xlink:href="img/30.jpg"/>
<image clip-path="url(#cu_203)" preserveAspectRatio="none" x="135" y="652" width="107" height="39" xlink:href="img/31.jpg"/>
<image clip-path="url(#cv_203)" preserveAspectRatio="none" x="135" y="652" width="93" height="24" xlink:href="img/32.jpg"/>
<image clip-path="url(#cw_203)" preserveAspectRatio="none" x="135" y="652" width="93" height="24" xlink:href="img/33.jpg"/>
<image clip-path="url(#cx_203)" preserveAspectRatio="none" x="135" y="652" width="93" height="24" xlink:href="img/34.jpg"/>
<path d="M135.9,653v44.3H250.6V653H135.9Z" class="g1_203"/>
<path d="M135.9,653h-.3v44.5H250.9V652.8H135.6v.2h.3v.3H250.6V653h-.2v44.3h.2v-.2H135.9v.2h.2V653h-.2v.3V653Z" class="g5_203"/>
<image clip-path="url(#cy_203)" preserveAspectRatio="none" x="152" y="668" width="136" height="65" xlink:href="img/35.jpg"/>
<image clip-path="url(#cz_203)" preserveAspectRatio="none" x="152" y="668" width="113" height="44" xlink:href="img/36.jpg"/>
<image clip-path="url(#c10_203)" preserveAspectRatio="none" x="152" y="668" width="99" height="29" xlink:href="img/37.jpg"/>
<image clip-path="url(#c11_203)" preserveAspectRatio="none" x="152" y="668" width="99" height="30" xlink:href="img/38.jpg"/>
<image clip-path="url(#c12_203)" preserveAspectRatio="none" x="152" y="668" width="99" height="29" xlink:href="img/39.jpg"/>
<path d="M158.1,673.9v44.3H272.9V673.9H158.1Z" class="g1_203"/>
<path d="M158.1,673.9v44.3H272.9V673.9H158.1Z" class="g2_203"/>
<path d="M158,690.5H274M135.8,669.6h116M112.6,648.1H228.5M91,627.4H206.9" class="g3_203"/>
<image clip-path="url(#c13_203)" preserveAspectRatio="none" x="280" y="605" width="135" height="65" xlink:href="img/40.jpg"/>
<image clip-path="url(#c14_203)" preserveAspectRatio="none" x="337" y="605" width="9" height="6" xlink:href="img/41.jpg"/>
<image clip-path="url(#c15_203)" preserveAspectRatio="none" x="280" y="668" width="8" height="2" xlink:href="img/42.jpg"/>
<image clip-path="url(#c16_203)" preserveAspectRatio="none" x="285" y="610" width="116" height="46" xlink:href="img/43.jpg"/>
<image clip-path="url(#c17_203)" preserveAspectRatio="none" x="344" y="610" width="2" height="1" xlink:href="img/44.jpg"/>
<path d="M285.7,610.9v44.2H400.5V610.9H285.7Z" class="g1_203"/>
<path d="M285.7,610.9h-.3v44.5H400.7V610.7H285.4v.2h.3v.2H400.5v-.2h-.3v44.2h.3v-.2H285.7v.2h.2V610.9h-.2v.2v-.2Z" class="g5_203"/>
<image clip-path="url(#c18_203)" preserveAspectRatio="none" x="301" y="625" width="149" height="66" xlink:href="img/45.jpg"/>
<image clip-path="url(#c19_203)" preserveAspectRatio="none" x="301" y="625" width="114" height="45" xlink:href="img/46.jpg"/>
<image clip-path="url(#c1a_203)" preserveAspectRatio="none" x="301" y="625" width="100" height="30" xlink:href="img/47.jpg"/>
<image clip-path="url(#c1b_203)" preserveAspectRatio="none" x="301" y="625" width="100" height="31" xlink:href="img/48.jpg"/>
<image clip-path="url(#c1c_203)" preserveAspectRatio="none" x="301" y="625" width="100" height="30" xlink:href="img/49.jpg"/>
<image clip-path="url(#c1d_203)" preserveAspectRatio="none" x="307" y="631" width="128" height="45" xlink:href="img/50.jpg"/>
<image clip-path="url(#c1e_203)" preserveAspectRatio="none" x="307" y="631" width="108" height="39" xlink:href="img/51.jpg"/>
<image clip-path="url(#c1f_203)" preserveAspectRatio="none" x="307" y="631" width="94" height="24" xlink:href="img/52.jpg"/>
<image clip-path="url(#c1g_203)" preserveAspectRatio="none" x="307" y="631" width="94" height="25" xlink:href="img/53.jpg"/>
<image clip-path="url(#c1h_203)" preserveAspectRatio="none" x="307" y="631" width="94" height="24" xlink:href="img/54.jpg"/>
<path d="M307.3,631.5v44.3H434.9V631.5H307.3Z" class="g1_203"/>
<path d="M307.3,631.5h-.2V676h128V631.3h-128v.2h.2v.3H434.9v-.3h-.3v44.3h.3v-.2H307.3v.2h.3V631.5h-.3v.3v-.3Z" class="g5_203"/>
<image clip-path="url(#c1i_203)" preserveAspectRatio="none" x="324" y="647" width="142" height="65" xlink:href="img/55.jpg"/>
<image clip-path="url(#c1j_203)" preserveAspectRatio="none" x="324" y="647" width="126" height="44" xlink:href="img/56.jpg"/>
<image clip-path="url(#c1k_203)" preserveAspectRatio="none" x="324" y="647" width="111" height="29" xlink:href="img/57.jpg"/>
<image clip-path="url(#c1l_203)" preserveAspectRatio="none" x="324" y="647" width="111" height="29" xlink:href="img/58.jpg"/>
<image clip-path="url(#c1m_203)" preserveAspectRatio="none" x="324" y="647" width="111" height="29" xlink:href="img/59.jpg"/>
<image clip-path="url(#c1n_203)" preserveAspectRatio="none" x="330" y="652" width="121" height="46" xlink:href="img/60.jpg"/>
<image clip-path="url(#c1o_203)" preserveAspectRatio="none" x="330" y="652" width="120" height="39" xlink:href="img/61.jpg"/>
<image clip-path="url(#c1p_203)" preserveAspectRatio="none" x="330" y="652" width="105" height="24" xlink:href="img/62.jpg"/>
<image clip-path="url(#c1q_203)" preserveAspectRatio="none" x="330" y="652" width="105" height="24" xlink:href="img/63.jpg"/>
<image clip-path="url(#c1r_203)" preserveAspectRatio="none" x="330" y="652" width="105" height="24" xlink:href="img/64.jpg"/>
<path d="M330.5,653v44.3H450.6V653H330.5Z" class="g1_203"/>
<path d="M330.5,653h-.2v44.5H450.8V652.8H330.3v.2h.2v.3H450.6V653h-.2v44.3h.2v-.2H330.5v.2h.3V653h-.3v.3V653Z" class="g5_203"/>
<image clip-path="url(#c1s_203)" preserveAspectRatio="none" x="346" y="668" width="142" height="65" xlink:href="img/65.jpg"/>
<image clip-path="url(#c1t_203)" preserveAspectRatio="none" x="346" y="668" width="120" height="44" xlink:href="img/66.jpg"/>
<image clip-path="url(#c1u_203)" preserveAspectRatio="none" x="346" y="668" width="105" height="29" xlink:href="img/67.jpg"/>
<image clip-path="url(#c1v_203)" preserveAspectRatio="none" x="346" y="668" width="105" height="30" xlink:href="img/68.jpg"/>
<image clip-path="url(#c1w_203)" preserveAspectRatio="none" x="346" y="668" width="105" height="29" xlink:href="img/69.jpg"/>
<path d="M352.4,673.9v44.3H472.5V673.9H352.4Z" class="g1_203"/>
<path d="M352.4,673.9v44.3H472.5V673.9H352.4Z" class="g2_203"/>
<path d="M352.4,690.5H472.7M330.5,669.6H450.8M307.3,648.1H434.6M285.7,627.4H401.6" class="g3_203"/>
<image clip-path="url(#c1x_203)" preserveAspectRatio="none" x="510" y="605" width="147" height="65" xlink:href="img/70.jpg"/>
<image clip-path="url(#c1y_203)" preserveAspectRatio="none" x="516" y="611" width="127" height="45" xlink:href="img/71.jpg"/>
<path d="M516.6,611.3v44.3H642V611.3H516.6Z" class="g1_203"/>
<path d="M516.6,611.3h-.2v44.5H642.3V611.1H516.4v.2h.2v.3H642v-.3h-.2v44.3h.2v-.2H516.6v.2h.2V611.3h-.2v.3v-.3Z" class="g5_203"/>
<image clip-path="url(#c1z_203)" preserveAspectRatio="none" x="532" y="626" width="161" height="65" xlink:href="img/72.jpg"/>
<image clip-path="url(#c20_203)" preserveAspectRatio="none" x="532" y="626" width="125" height="45" xlink:href="img/73.jpg"/>
<image clip-path="url(#c21_203)" preserveAspectRatio="none" x="532" y="626" width="110" height="30" xlink:href="img/74.jpg"/>
<image clip-path="url(#c22_203)" preserveAspectRatio="none" x="532" y="626" width="111" height="30" xlink:href="img/75.jpg"/>
<image clip-path="url(#c23_203)" preserveAspectRatio="none" x="532" y="626" width="111" height="30" xlink:href="img/76.jpg"/>
<image clip-path="url(#c24_203)" preserveAspectRatio="none" x="538" y="631" width="141" height="46" xlink:href="img/77.jpg"/>
<image clip-path="url(#c25_203)" preserveAspectRatio="none" x="538" y="631" width="119" height="40" xlink:href="img/78.jpg"/>
<image clip-path="url(#c26_203)" preserveAspectRatio="none" x="538" y="631" width="104" height="25" xlink:href="img/79.jpg"/>
<image clip-path="url(#c27_203)" preserveAspectRatio="none" x="538" y="631" width="105" height="25" xlink:href="img/80.jpg"/>
<image clip-path="url(#c28_203)" preserveAspectRatio="none" x="538" y="631" width="105" height="25" xlink:href="img/81.jpg"/>
<path d="M538.3,632v44.2h140V632h-140Z" class="g1_203"/>
<path d="M538.3,632h-.2v44.5H678.5V631.7H538.1v.3h.2v.2h140V632H678v44.2h.3V676h-140v.2h.3V632h-.3v.2V632Z" class="g5_203"/>
<image clip-path="url(#c29_203)" preserveAspectRatio="none" x="555" y="647" width="155" height="66" xlink:href="img/82.jpg"/>
<image clip-path="url(#c2a_203)" preserveAspectRatio="none" x="555" y="647" width="138" height="44" xlink:href="img/83.jpg"/>
<image clip-path="url(#c2b_203)" preserveAspectRatio="none" x="555" y="647" width="123" height="29" xlink:href="img/84.jpg"/>
<image clip-path="url(#c2c_203)" preserveAspectRatio="none" x="555" y="647" width="124" height="30" xlink:href="img/85.jpg"/>
<image clip-path="url(#c2d_203)" preserveAspectRatio="none" x="555" y="647" width="124" height="30" xlink:href="img/86.jpg"/>
<image clip-path="url(#c2e_203)" preserveAspectRatio="none" x="561" y="653" width="135" height="45" xlink:href="img/87.jpg"/>
<image clip-path="url(#c2f_203)" preserveAspectRatio="none" x="561" y="653" width="132" height="38" xlink:href="img/88.jpg"/>
<image clip-path="url(#c2g_203)" preserveAspectRatio="none" x="561" y="653" width="117" height="23" xlink:href="img/89.jpg"/>
<image clip-path="url(#c2h_203)" preserveAspectRatio="none" x="561" y="653" width="118" height="24" xlink:href="img/90.jpg"/>
<image clip-path="url(#c2i_203)" preserveAspectRatio="none" x="561" y="653" width="118" height="24" xlink:href="img/91.jpg"/>
<path d="M561.6,653.5v44.2H695.5V653.5H561.6Z" class="g1_203"/>
<path d="M561.6,653.5h-.2V698H695.7V653.3H561.4v.2h.2v.2H695.5v-.2h-.3v44.2h.3v-.2H561.6v.2h.3V653.5h-.3v.2v-.2Z" class="g5_203"/>
<image clip-path="url(#c2j_203)" preserveAspectRatio="none" x="577" y="668" width="151" height="66" xlink:href="img/92.jpg"/>
<image clip-path="url(#c2k_203)" preserveAspectRatio="none" x="577" y="668" width="133" height="45" xlink:href="img/93.jpg"/>
<image clip-path="url(#c2l_203)" preserveAspectRatio="none" x="577" y="668" width="119" height="30" xlink:href="img/94.jpg"/>
<image clip-path="url(#c2m_203)" preserveAspectRatio="none" x="577" y="668" width="119" height="30" xlink:href="img/95.jpg"/>
<image clip-path="url(#c2n_203)" preserveAspectRatio="none" x="577" y="668" width="119" height="30" xlink:href="img/96.jpg"/>
<path d="M583.5,674.4v44.3H713.1V674.4H583.5Z" class="g1_203"/>
<path d="M583.5,674.4v44.3H713.1V674.4H583.5Z" class="g2_203"/>
<path d="M517.8,456.1L456.4,382.8l.9,-.7l61.4,73.3l-.9,.7Z" class="g5_203"/>
<image clip-path="url(#c2o_203)" preserveAspectRatio="none" x="493" y="437" width="136" height="67" xlink:href="img/97.jpg"/>
<image clip-path="url(#c2p_203)" preserveAspectRatio="none" x="502" y="437" width="17" height="20" xlink:href="img/98.jpg"/>
<path d="M499.5,443.4v44.9H614.3V443.4H499.5Z" class="g1_203"/>
<path d="M499.5,443.4v44.9H614.3V443.4H499.5Z" class="g2_203"/>
<path d="M499.4,459.9h116" class="g3_203"/>
<path d="M452.6,378l11.1,.7l-11.6,9.7l.5,-10.4Z" class="g1_203"/>
<path d="M452.6,378l11.1,.7l-11.6,9.7l.5,-10.4Z" class="g7_203"/>
<path d="M583.4,690.9H713.3M561.6,670H695.7M538.3,648.5H677.9M516.6,627.9H643.2" class="g3_203"/>
<path d="M499.5,451.8c0,0,-66.9,132.5,3,166.1" class="g8_203"/>
<path d="M510,621.5l-8,-8.2l.5,4.6l-3.9,2.4l11.4,1.2Z" class="g0_203"/>
<path d="M620.6,395.1c-10.6,2.3,-19.1,7.6,-26.7,15.3c-3.1,2.7,-5.5,6,-7.1,9.8c-1.1,2.7,-1.2,5.9,-2.8,8.4c-2,-.6,-2.6,-2.9,-3,-4.6c.3,2.3,.5,4.7,2.1,6.6c2.4,-.5,4.2,-2.3,6.3,-3.4M697,433.6c5.9,6.2,6.7,15.5,7.7,23.6c2.8,20.7,.8,42.1,-1.7,62.7c-3.3,27.3,-11,59.9,-30.1,80.8c-.4,-2.5,.5,-5.2,-1,-7.5c-1.5,3.8,-.9,7.6,-.3,11.5c3,1.8,8,-4.7,9.5,-6.1" class="g9_203"/>
<g clip-path="url(#c2q_203)">
<path d="M-4.5,13.7H-27.4m939.5,0H935M-4.5,1031.2H-27.4m939.5,0H935M13.7,-4.5V-27.4m0,1077v22.9m880,-1077V-27.4m0,1077v22.9" class="ga_203"/>
<path d="M-4.5,13.7H-27.4m939.5,0H935M-4.5,1031.2H-27.4m939.5,0H935M13.7,-4.5V-27.4m0,1077v22.9m880,-1077V-27.4m0,1077v22.9" class="gb_203"/>
</g>
</svg>