<?xml version="1.0" encoding="UTF-8" standalone="no"?>
<!DOCTYPE svg PUBLIC "-//W3C//DTD SVG 1.1//EN"
"http://www.w3.org/Graphics/SVG/1.1/DTD/svg11.dtd">
<svg viewBox="0 0 931 1096" version="1.1" xmlns="http://www.w3.org/2000/svg" xmlns:xlink="http://www.w3.org/1999/xlink">
<defs>
<clipPath id="c0_246"><path d="M477.5,134.6V99.1H637.8v35.5Z"/></clipPath>
<clipPath id="c1_246"><path d="M483.8,207.9V172.4H637.6v35.5Z"/></clipPath>
<clipPath id="c2_246"><path d="M419.5,386.2v-35H691.2v35Z"/></clipPath>
<clipPath id="c3_246"><path d="M490.3,456.6V424.5H631.1v32.1Z"/></clipPath>
<clipPath id="c4_246"><path d="M477.8,525.3V493.4h70.5v31.9Z"/></clipPath>
<clipPath id="c5_246"><path d="M599.7,517.5V500.4H718.4v17.1Z"/></clipPath>
<clipPath id="c6_246"><path d="M421.3,696.2V658.4H691v37.8Z"/></clipPath>
<clipPath id="c7_246"><path d="M367.4,920.3V884H743.3v36.3Z"/></clipPath>
<clipPath id="c8_246"><path d="M82.1,497c-5.1,0,-9.2,-4.1,-9.2,-9.2V396.2c0,-5.1,4.1,-9.2,9.2,-9.2H231.8c5.1,0,9.2,4.1,9.2,9.2v91.6c0,5.1,-4.1,9.2,-9.2,9.2Z"/></clipPath>
<style type="text/css"><![CDATA[
.g0_246{
fill: none;
stroke: #241F1F;
stroke-width: 0.763;
stroke-miterlimit: 10;
}
.g1_246{
fill: none;
stroke: #241F1F;
stroke-width: 0.534;
stroke-miterlimit: 10;
}
.g2_246{
fill: none;
stroke: #0079C2;
stroke-width: 0.763;
}
.g3_246{
fill: none;
stroke: #00AEEF;
stroke-width: 0.916;
stroke-miterlimit: 3;
}
.g4_246{
fill: none;
stroke: #EE008C;
stroke-width: 0.916;
stroke-miterlimit: 3;
}
.g5_246{
fill: none;
stroke: #00AEEF;
stroke-width: 0.534;
stroke-miterlimit: 3;
}
.g6_246{
fill: none;
stroke: #241F1F;
stroke-width: 0.458;
stroke-miterlimit: 3;
}
.g7_246{
fill: none;
stroke: #241F1F;
stroke-width: 0.534;
stroke-miterlimit: 3;
}
]]></style>
</defs>
<path clip-path="url(#c0_246)" d="M477.8,115.3h20.5m21.9,0h35.5m21.9,0h60.6" class="g0_246"/>
<path d="M591.1,118h44.8M484.2,188.6h20.5" class="g0_246"/>
<path clip-path="url(#c1_246)" d="M577.3,188.6H638" class="g0_246"/>
<path d="M590.9,191.4h44.8M456.1,317h20.4m-19.7,50.4h19.7m21.9,0h36.9m21.9,0h65.5" class="g0_246"/>
<path clip-path="url(#c2_246)" d="M644.6,367.4h47" class="g0_246"/>
<path d="M490.7,440.7h20.4" class="g0_246"/>
<path clip-path="url(#c3_246)" d="M584.6,440.7h46.9" class="g0_246"/>
<path clip-path="url(#c4_246)" d="M507.3,509.5h41.4" class="g0_246"/>
<path clip-path="url(#c5_246)" d="M708.9,500.7h9.9" class="g0_246"/>
<path d="M409.2,569h20.5m21.9,0h20.5m160.5,0h20.5M462.7,614.9H576.4m-47,3.5h44.8m-88.6,56.1H558M533.8,678h9.9" class="g0_246"/>
<path d="M566.7,675.1h7" class="g1_246"/>
<path clip-path="url(#c6_246)" d="M682.2,666.5h9.2" class="g0_246"/>
<path d="M507.7,714.6h10m-40,19.4h58.7m71.8,-8.7h9.2M370.3,900.2h20.5m72.6,0h58.4M477,902.9h42.5m49.3,-2.7h20.5" class="g0_246"/>
<path clip-path="url(#c7_246)" d="M676.3,900.2h67.4m-45.6,3.5h43.3" class="g0_246"/>
<path d="M367.8,950.6h20.4m87.9,0h62.2m-47.1,2.7H536m32.8,-2.7h20.5m74.3,0H731m-45.6,3.5h43.3M369.5,1001H390m73.4,0h47m59.3,0h20.5m86.1,0h46.9" class="g0_246"/>
<path d="M290.7,844.8c0,0,-3.1,0,-3.1,3.1v178.3c0,0,0,3,3.1,3H820.1c0,0,3,0,3,-3V847.9c0,0,0,-3.1,-3,-3.1H290.7ZM441.9,160c0,0,-3,0,-3,3.1v53.6c0,0,0,3,3,3H678.7c0,0,3.1,0,3.1,-3V163.1c0,0,0,-3.1,-3.1,-3.1H441.9Z" class="g2_246"/>
<g clip-path="url(#c8_246)">
<path d="M238,441.1h3.3m-7.2,0H238m-7.2,-.2l3.3,.2m-6.9,-.2h3.6m-6.9,-.3l3.3,.3m-7.1,-.5l3.8,.2m-7.1,-.2h3.3m-6.9,-.3l3.6,.3m-6.9,-.5l3.3,.2m-6.9,-.7l3.6,.5m-7.2,-.8l3.6,.3m-7.2,-.8l3.6,.5m-7.1,-1.2l3.5,.7m-6.9,-1.4l3.4,.7m-6.9,-1.7l3.5,1M185.1,435l3.6,1.2M183.6,434l1.5,1m-3.3,-1.8l1.8,.8M180,432.3l1.8,.9M178.2,431l1.8,1.3m-3.6,-2.8l1.8,1.5m-3.6,-3.2l1.8,1.7m-3.6,-3.6l1.8,1.9M171,423.9l1.8,2m-3.6,-4.5l1.8,2.5m-3.5,-5.4l1.7,2.9m-3.5,-5.9l1.8,3m-3.6,-5.9l1.8,2.9m-3.6,-5.6l1.8,2.7m-2.6,-4l.8,1.3m-1.5,-2.5l.7,1.2m-1.8,-1.9l1.1,.7m-1.8,-1.5l.7,.8m-1.5,-1l.8,.2m-1.6,-.5l.8,.3m-1.8,0l1,-.3m-2,.8l1,-.5m-1.8,1l.8,-.5m-1.8,1.5l1,-1m-1.8,2.2l.8,-1.2m-1.8,2.4l1,-1.2m-1.7,2.7l.7,-1.5m-1.8,3l1.1,-1.5m-4.4,7.1l3.3,-5.6m-4.8,8.3l1.5,-2.7m-3.3,5.2l1.8,-2.5m-3.6,4.7l1.8,-2.2m-3.6,3.9l1.8,-1.7m-3.6,3.4l1.8,-1.7M136,431l1.8,-1.5m-3.5,2.8L136,431m-3.3,2.2l1.6,-.9m-3.4,1.7l1.8,-.8m-3.6,1.8l1.8,-1m-5.3,2.2l3.5,-1.2m-7.1,2.2l3.6,-1m-6.9,1.7l3.3,-.7m-6.9,1.4l3.6,-.7m-7.2,1.2l3.6,-.5m-7.2,.8l3.6,-.3m-6.9,.8l3.3,-.5m-6.9,.7l3.6,-.2m-7.1,.5l3.5,-.3m-7.1,.3h3.6m-7.2,.2l3.6,-.2m-6.9,.5l3.3,-.3m-6.9,.3H87m-7.2,.2l3.6,-.2m-7.1,.2h3.5m-6.9,0h3.4" class="g3_246"/>
<path d="M238,390.9l3.3,-.2m-7.2,.5l3.9,-.3m-7.2,.5l3.3,-.2m-6.9,.5l3.6,-.3m-6.9,.8l3.3,-.5m-7.1,1l3.8,-.5m-7.1,.7l3.3,-.2m-6.9,.9l3.6,-.7m-6.9,1.2l3.3,-.5m-6.9,1l3.6,-.5m-7.2,1.5l3.6,-1m-7.2,1.7l3.6,-.7m-7.1,1.7l3.5,-1m-6.9,2.3l3.4,-1.3m-6.9,2.5l3.5,-1.2m-7.1,2.9l3.6,-1.7m-6.9,3.7l3.3,-2m-6.9,4.4l3.6,-2.4m-7.2,5.9l3.6,-3.5m-7.2,7.4l3.6,-3.9m-5.4,6.4l1.8,-2.5m-3.5,5.4l1.7,-2.9m-3.5,6.1l1.8,-3.2m-3.6,6.9l1.8,-3.7m-5.1,11.6l3.3,-7.9m-6.7,16.7l3.4,-8.8m-7.2,17.9l3.8,-9.1m-5.6,13.3l1.8,-4.2m-3.6,8.2l1.8,-4m-5.1,10.1l3.3,-6.1m-4.8,9l1.5,-2.9m-3.3,5.4l1.8,-2.5m-5.4,6.4l3.6,-3.9m-7.2,7.4l3.6,-3.5m-6.9,5.7l3.3,-2.2m-6.9,4.4l3.6,-2.2m-7.1,3.7l3.5,-1.5m-7.1,3l3.6,-1.5m-6.9,2.7l3.3,-1.2m-6.9,2.2l3.6,-1m-7.2,1.7l3.6,-.7m-7.2,1.7l3.6,-1m-6.9,1.5l3.3,-.5m-6.9,1l3.6,-.5m-7.1,1.2l3.5,-.7m-7.1,1l3.6,-.3m-7.2,.8l3.6,-.5m-6.9,1l3.3,-.5m-6.9,.7l3.6,-.2m-7.2,.4l3.6,-.2m-7.1,.5l3.5,-.3m-6.9,.5l3.4,-.2" class="g4_246"/>
</g>
<path d="M82.1,387H231.8c5.1,0,9.2,4.1,9.2,9.2v91.6c0,5.1,-4.1,9.2,-9.2,9.2H82.1c-5.1,0,-9.2,-4.1,-9.2,-9.2V396.2c0,-5.1,4.1,-9.2,9.2,-9.2Z" class="g5_246"/>
<path d="M98.7,420.2h31" class="g6_246"/>
<path d="M155,478.7h3.2M155,405.3h3.2m54.7,38.2v-3.2m-28,3.2v-3.2m-84.1,3.2v-3.2m54.2,20h3.2M128.8,443.5v-3.2M155,423.7h3.2m-1.6,73.5V386.8M72.8,441.9H240.9" class="g7_246"/>
<path d="M446.5,413.6c0,0,-3,0,-3,3.1v53.6c0,0,0,3.1,3,3.1H671.2c0,0,3.1,0,3.1,-3.1V416.7c0,0,0,-3.1,-3.1,-3.1H446.5Z" class="g2_246"/>
</svg>