<?xml version="1.0" encoding="UTF-8" standalone="no"?>
<!DOCTYPE svg PUBLIC "-//W3C//DTD SVG 1.1//EN"
"http://www.w3.org/Graphics/SVG/1.1/DTD/svg11.dtd">
<svg viewBox="0 0 931 1096" version="1.1" xmlns="http://www.w3.org/2000/svg" xmlns:xlink="http://www.w3.org/1999/xlink">
<defs>
<clipPath id="c0_219"><path d="M134.5,739.4V530H449.2V739.4Z"/></clipPath>
<style type="text/css"><![CDATA[
.g0_219{
fill: none;
stroke: #241F1F;
stroke-width: 0.687;
stroke-miterlimit: 10;
}
.g1_219{
fill: none;
stroke: #241F1F;
stroke-width: 0.609;
stroke-miterlimit: 3;
}
.g2_219{
fill: #241F1F;
}
.g3_219{
fill: none;
stroke: #00AEEF;
stroke-width: 0.762;
stroke-linejoin: round;
}
.g4_219{
fill: none;
stroke: #EE008C;
stroke-width: 0.762;
stroke-linejoin: round;
}
.g5_219{
fill: #EE008C;
}
.g6_219{
fill: none;
stroke: #EE008C;
stroke-width: 0.762;
stroke-miterlimit: 3;
}
.g7_219{
fill: none;
stroke: #241F1F;
stroke-width: 0.611;
stroke-miterlimit: 3;
}
.g8_219{
fill: #00AEEF;
}
]]></style>
</defs>
<path d="M240,142.2h75.6M217.9,344.6h19.3m-18.6,41.9h18.6" class="g0_219"/>
<path d="M134.5,713.1H443.9" class="g1_219"/>
<path fill-rule="evenodd" d="M443.9,713.1l-1.6,-2.5l6.5,2.5l-6.5,2.4Z" class="g2_219"/>
<path clip-path="url(#c0_219)" d="M169.5,748.1V537.7" class="g1_219"/>
<path fill-rule="evenodd" d="M169.5,537.7l-2.4,1.7l2.4,-6.5l2.5,6.5Z" class="g2_219"/>
<path d="M166.5,560.6h6.1M416.5,710v6.1M334.2,710v6.1M251.8,710v6.1M166.5,675h6.1m-6.1,-38.2h6.1m-6.1,-38.1h6.1" class="g1_219"/>
<path d="M310.4,639.1v-4.2m-11.5,4.2v-4.2m-23.5,4.2v-4.2m11.5,4.2v-4.2m-23.4,4.2v-4.2m-14.8,1.9l5.8,.4m-14.4,1.9v-4.2m-12,4.2v-4.2m-11.9,4.2v-4.2m-11.5,4.2v-4.2m-11.9,4.2v-4.2m-11.9,4.2v-4.2m234,12.9l3.7,-4.6m-15.7,4.6l3.7,-4.6m-15.2,4.6l3.7,-4.6m-15.6,4.6l3.7,-4.6m-15.6,4.6l4.1,-4.6m-16.1,4.6l4.1,-4.6m-16,4.6l4.5,-4.6m-16.4,4.6l4.5,-4.6m-16.4,4.6l4.9,-4.6m-16.9,4.6l5.4,-4.6M296,647.4l5.8,-3.8M284.1,647l5.7,-3m-17.7,2.6l6.2,-2.2m-17.7,1.9l5.8,-1.5m-17.7,.7h5.8m-17.7,-.7l6.1,1.5M231,647.8l-5.7,-4.6m-7.4,4.6l-3.3,-4.6m-9.1,4.6l-2,-4.6m-10.3,4.6l-.8,-4.6m-11.1,4.6l-.4,-4.6m232.7,12.5l6.2,-3.4m-17.7,3l5.8,-3m-17.7,3l5.7,-3m-17.7,3l6.2,-3m-17.7,3l5.8,-2.6m-17.7,2.6l5.8,-2.6m-17.7,2.6l6.2,-2.6m-17.7,2.2l5.7,-2.2m-17.7,2.2l5.8,-2.2m-17.7,2.2l6.2,-1.9M296,654.9l5.8,-1.9m-17.7,1.6l5.7,-1.6m-17.7,1.6l6.2,-1.2m-17.7,.8l5.8,-.4m-17.7,0h5.8m-17.7,-.4l6.1,.8M225.3,653l5.7,1.9m-17.7,-2.6l5.8,3.4m-12.8,.4l-3.7,-4.2m-9,4.2l-2.1,-4.2m-10.2,4.2l-.9,-4.2m233.2,11.3l6.2,-1.8m-17.7,1.8l5.8,-1.8m-17.7,1.8l5.7,-1.8m-17.7,1.8l6.2,-1.5m-17.7,1.5l5.8,-1.5m-17.7,1.5l5.8,-1.5m-17.7,1.5l6.2,-1.5m-17.7,1.5l5.7,-1.5m-17.7,1.2l5.8,-1.2m-17.7,1.2l6.2,-1.2M296,662.9l5.8,-1.2m-17.7,1.2l5.7,-.8m-17.7,.8l6.2,-.8m-17.7,.4l5.8,-.4m-17.7,.4h5.8m-17.7,-.4l6.1,.4m-17.6,-.8l5.7,1.2m-17.7,-1.5l5.8,1.8m-17.7,-2.6l6.2,3.8m-13.2,0l-3.7,-4.2m-9,4.2L180,660.2m233.6,11.3l6.2,-1.1m-17.7,1.1l5.8,-1.1m-17.7,1.1l5.7,-1.1m-17.7,.8l6.2,-.8m-17.7,.8l5.8,-.8m-17.7,.8l5.8,-.8m-17.7,.8l6.2,-.8m-17.7,.8l5.7,-.8m-17.7,.8l5.8,-.8m-17.7,.8l6.2,-.8m-17.7,.8l5.8,-.8m-17.7,.8l5.7,-.8m-17.7,.8l6.2,-.4m-17.7,0h5.8m-17.7,0h5.8m-17.7,0h6.1m-17.6,-.4l5.7,.8M213.3,670l5.8,1.5m-17.7,-1.8l6.2,2.2m-12,1.1l-5.7,-4.5m-7.8,4.5l-2.5,-4.5m234,11l6.2,-.4m-17.7,.4l5.8,-.4m-17.7,.4l5.7,-.4m-17.7,.4l6.2,-.4m-17.7,.4l5.8,-.4m-17.7,.4l5.8,-.4m-17.7,.4l6.2,-.4m-17.7,.4l5.7,-.4m-17.7,.4l5.8,-.4m-17.7,.4l6.2,-.4m-17.7,.4l5.8,-.4m-17.7,.4l5.7,-.4m-17.7,.4l6.2,-.4m-17.7,.4l5.8,-.4m-17.7,.4h5.8m-17.7,-.4l6.1,.4m-17.6,-.4l5.7,.4m-17.7,-.8l5.8,1.1m-17.7,-1.1l6.2,1.1M189.9,678l5.7,2.6m-12.7,.8l-3.7,-4.2m234.4,10.6l6.2,-.4m-17.7,.4l5.8,-.4m-17.7,.4l5.7,-.4m-17.7,.4l6.2,-.4m-17.7,.4l5.8,-.4m-17.7,.4l5.8,-.4m-17.7,.4l6.2,-.4m-17.7,.4l5.7,-.4m-17.7,.4l5.8,-.4m-17.7,.4h6.2m-17.7,0h5.8m-17.7,0h5.7m-17.7,0h6.2m-17.7,0h5.8m-17.7,0h5.8m-17.7,0h6.1m-17.6,0H231m-17.7,-.4l5.8,.7m-17.7,-.7l6.2,.7M189.9,687l5.7,1.5M178,685.9l5.7,3.8m229.9,6.8l6.2,-.4m-17.7,.4l5.8,-.4m-17.7,.4l5.7,-.4m-17.7,.4l6.2,-.4m-17.7,.4l5.8,-.4m-17.7,.4l5.8,-.4m-17.7,.4l6.2,-.4m-17.7,.4l5.7,-.4m-17.7,.4l5.8,-.4m-17.7,.4l6.2,-.4m-17.7,0h5.8m-17.7,0h5.7m-17.7,0h6.2m-17.7,0h5.8m-17.7,0h5.8m-17.7,0h6.1m-17.6,0l5.7,.4m-17.7,-.4l5.8,.4m-17.7,-.4l6.2,.4m-17.7,-.8l5.7,1.1M178,694.9l5.7,2.3m229.9,7.5h6.2m-17.7,0h5.8m-17.7,0h5.7m-17.7,0h6.2m-17.7,0h5.8m-17.7,0h5.8m-17.7,0h6.2m-17.7,0h5.7m-17.7,0h5.8m-17.7,0h6.2m-17.7,0h5.8m-17.7,0h5.7m-17.7,0h6.2m-17.7,0h5.8m-17.7,0h5.8m-17.7,0h6.1m-17.6,0H231m-17.7,0h5.8m-17.7,-.3l6.2,.3m-17.7,-.3l5.7,.3M178,704l5.7,1.1M413.6,713h6.2m-17.7,0h5.8m-17.7,0h5.7m-17.7,0h6.2m-17.7,0h5.8m-17.7,0h5.8m-17.7,0h6.2m-17.7,0h5.7m-17.7,0h5.8m-17.7,0h6.2M296,713h5.8m-17.7,0h5.7m-17.7,0h6.2m-17.7,0h5.8m-17.7,0h5.8m-17.7,0h6.1m-17.6,0H231m-17.7,0h5.8m-17.7,0h6.2m-17.7,0h5.7M178,713h5.7M413.6,560.2l6.2,1.5m-17.7,-1.5l5.8,1.5m-17.7,-1.5l5.7,1.5m-17.7,-1.5l6.2,1.5m-17.7,-1.5l5.8,1.5m-17.7,-1.5l5.8,1.5m-17.7,-1.5l6.2,1.5m-17.7,-1.5l5.7,1.5m-17.7,-1.5l5.8,1.5m-17.7,-1.5l6.2,1.2M296,560.6l5.8,.8m-17.7,-.8l5.7,.8m-17.7,-.8l6.2,.8m-17.7,-.8l5.8,.4m-17.7,0h5.8m-17.7,.4l6.1,-.8m-17.6,.8l5.7,-1.2m-17.7,1.9l5.8,-2.2m-17.7,3l6.2,-3.8m-16.9,4.2l3.7,-4.6M180,563.3l1.7,-4.6m231.9,9.8l6.2,1.9m-17.7,-1.9l5.8,1.9m-17.7,-1.9l5.7,1.9m-17.7,-1.9l6.2,1.9m-17.7,-1.9l5.8,1.9m-17.7,-1.9l5.8,1.5m-17.7,-1.5l6.2,1.5m-17.7,-1.5l5.7,1.5m-17.7,-1.1l5.8,1.1m-17.7,-1.1l6.2,1.1M296,568.9l5.8,1.1m-17.7,-1.1l5.7,.8m-17.7,-.8l6.2,.8m-17.7,-.4l5.8,.4m-17.7,-.4h5.8m-17.7,.4l6.1,-.4m-17.6,.7l5.7,-1.1m-17.7,1.5l5.8,-2.2m-17.7,3l6.2,-3.8m-16.5,4.2l3.3,-4.2M180,571.6l1.7,-4.2m231.9,9.4l6.2,1.9m-17.7,-1.9l5.8,1.9m-17.7,-1.9l5.7,1.9m-17.7,-1.9l6.2,1.9m-17.7,-1.9l5.8,1.9m-17.7,-1.9l5.8,1.9m-17.7,-1.5l6.2,1.5m-17.7,-1.5l5.7,1.5m-17.7,-1.5l5.8,1.5m-17.7,-1.5l6.2,1.1M296,577.2l5.8,1.1m-17.7,-1.1l5.7,1.1m-17.7,-.7l6.2,.7m-17.7,-.7l5.8,.4m-17.7,0h5.8m-17.7,0l6.1,-.4m-17.6,.7l5.7,-1.1m-17.7,1.9l5.8,-2.3m-17.7,3.1l6.2,-4.2m-16.5,4.2l3.3,-4.2m-14,4.2l1.3,-4.2m231.9,9.4l6.2,2.3m-17.7,-2.3l5.8,2.3m-17.7,-2.3l5.7,2.3m-17.7,-2.3l6.2,2.3m-17.7,-2.3l5.8,2.3m-17.7,-1.9l5.8,1.9m-17.7,-1.9l6.2,1.9m-17.7,-1.9l5.7,1.5m-17.7,-1.5l5.8,1.5m-17.7,-1.5l6.2,1.5M296,585.5l5.8,1.5m-17.7,-1.1l5.7,.8m-17.7,-.8l6.2,.8m-17.7,-.4l5.8,.4m-17.7,-.4h5.8m-17.7,.4l6.1,-.8M225.3,587l5.7,-1.5m-17.7,1.9l5.8,-2.3m-17.3,3.4l5.4,-4.1m-16.1,4.1l2.9,-4.1m-13.6,4.1l1.3,-4.1m231.9,9l6.2,2.7m-17.7,-2.7l5.8,2.7m-17.7,-2.7l5.7,2.7m-17.7,-2.7l6.2,2.7m-17.7,-2.3l5.8,1.9m-17.7,-1.9l5.8,1.9m-17.7,-1.9l6.2,1.9m-17.7,-1.9l5.7,1.9m-17.7,-1.9l5.8,1.9m-17.7,-1.9l6.2,1.9M296,594.2l5.8,1.1m-17.7,-1.1l5.7,1.1m-17.7,-1.1l6.2,1.1m-17.7,-.7l5.8,.3m-17.7,0h5.8m-17.7,0l6.1,-.3m-17.6,1.1l5.7,-1.9m-17.7,2.3l5.8,-2.7m-16.9,3.4l5,-4.1m-15.7,4.1l2.5,-4.1m-13.6,4.1l1.3,-4.1m231.9,9l6.2,3.1m-17.7,-3.1l5.8,3.1m-17.7,-3.1l5.7,3.1m-17.7,-3.1l6.2,2.7m-17.7,-2.7l5.8,2.7m-17.7,-2.3l5.8,2.3m-17.7,-2.3l6.2,2.3m-17.7,-2.3l5.7,2.3m-17.7,-2.3l5.8,2.3m-17.7,-2.3l6.2,1.9M296,602.5l5.8,1.5m-17.7,-1.5l5.7,1.5m-17.7,-1.1l6.2,.7m-17.7,-.7l5.8,.7m-17.7,-.4h5.8m-17.7,.4l6.1,-.7M225.3,604l5.7,-1.5m-17.7,2.3l5.8,-3.1m-16.9,3.8l4.6,-4.5m-15.3,4.5L194,601m-13.6,4.5l.9,-4.5m232.3,9l6.2,3.4M402.1,610l5.8,3.4M390.2,610l5.7,3.4M378.2,610l6.2,3.4M366.7,610l5.8,3.4M354.8,610l5.8,3.1M342.9,610l6.2,3.1m-17.7,-2.7l5.7,2.7m-17.7,-2.7l5.8,2.7m-17.7,-2.7l6.2,2.3M296,610.8l5.8,1.9m-17.7,-1.9l5.7,1.5m-17.7,-1.1l6.2,1.1m-17.7,-1.1l5.8,.7m-17.7,-.3h5.8m-17.7,.7l6.1,-1.1m-17.6,1.5l5.7,-2.3m-17.7,3.4l5.8,-4.1m-16.5,4.1l3.7,-4.1M192,613.8l1.6,-4.1m-13.2,4.1l.9,-4.1m238.1,12.4L414,618m-6.6,4.1L402.5,618m-6.6,4.1L390.6,618m-6.6,4.1L378.7,618m-6.2,4.1L366.7,618m-11.9,0l5.8,4.1M342.9,618l6.2,4.1m-17.7,-3.8l5.7,3.8m-17.7,-3.8l5.8,3.4m-17.7,-3l6.2,3m-17.7,-3l5.8,2.7m-17.7,-2.3l5.7,2.3m-17.7,-1.9l6.2,1.5m-17.7,-1.5l5.8,1.1m-17.7,-.4h5.8m-17.7,.4l6.1,-1.1m-17.6,2.2l5.7,-3m-16.8,3.4l4.5,-4.1m-15.2,4.1l2.4,-4.1M192,622.1l1.6,-4.1m-12.7,4.1l.4,-4.1m236.8,12.8l-2.8,-4.2m-9.1,4.2l-2.9,-4.2m-8.6,4.2l-2.9,-4.2m-9,4.2l-2.9,-4.2m-8.6,4.2L368,626.6m-8.7,4.2L356,626.6m-8.2,4.2l-3.7,-4.2m-8.2,4.2l-3.7,-4.2m-7.8,4.2l-4.1,-4.2m-7.4,4.2l-4.6,-4.2m-7,4.2l-4.9,-4.2m-12.3,0l5.7,4.2M272.1,627l6.2,3m-17.7,-2.2l5.8,1.5m-17.7,-.8h5.8m-17.7,1.2l6.1,-2.3m-17.2,3.4l4.5,-4.2M215,630.8l2.4,-4.2m-13.5,4.2l1.2,-4.2m-12.7,4.2l.8,-4.2m-12.3,4.2l.4,-4.2m235.2,12.5v-4.2M405,639.1v-4.2m-11.9,4.2v-4.2m-12,4.2v-4.2m-11.5,4.2v-4.2m-11.9,4.2v-4.2m-11.9,4.2v-4.2m-11.6,4.2v-4.2m-11.9,4.2v-4.2" class="g3_219"/>
<path d="M181.5,949.4h19.3m-22.4,42h22.4" class="g0_219"/>
<path d="M686,418.6c52.3,0,144.1,-15.3,144.1,-61.5c0,-47.6,-82.3,-105.4,-143.5,-105.4c-38.3,0,-52.7,20.5,-52.7,39.4c0,18.9,15.8,44.3,50.1,44.3c23.4,0,30.8,-9.2,30.8,-16.8c0,-9.2,-10.7,-23,-28.8,-23c-10.2,0,-13.5,5.1,-13.5,8.8c0,3.8,5,10.9,13.5,10.9c4.1,0,6.5,-2.4,6.5,-4.5c0,-2.1,-2.4,-5.4,-6.5,-5.4c-2.5,0,-3.3,1.3,-3.3,2.2c0,1.2,1.2,2.8,2.9,2.8c1.2,0,1.7,-.4,1.7,-1.3c0,-.9,-.7,-1.2,-1.3,-1.2c-.7,0,-1,.4,-1,.6c0,.2,.3,.6,.6,.6" class="g4_219"/>
<path d="M684.4,418.6c0,-.9,.7,-1.5,1.6,-1.5c.8,0,1.5,.6,1.5,1.5c0,.8,-.7,1.5,-1.5,1.5c-.9,0,-1.6,-.7,-1.6,-1.5Z" class="g5_219"/>
<path d="M684.4,418.6c0,-.9,.7,-1.5,1.6,-1.5c.8,0,1.5,.6,1.5,1.5c0,.8,-.7,1.5,-1.5,1.5c-.9,0,-1.6,-.7,-1.6,-1.5Z" class="g6_219"/>
<path d="M614.2,464.4H869m-296.1,0h38.2" class="g7_219"/>
<path fill-rule="evenodd" d="M869,464.4l-1.6,-2.5l6.5,2.5l-6.5,2.4Z" class="g2_219"/>
<path d="M594.3,444.6V245.4m0,240.3V447.6" class="g7_219"/>
<path fill-rule="evenodd" d="M594.3,247.6l-2.4,1.7l2.4,-6.5l2.4,6.5Z" class="g2_219"/>
<path d="M640.1,461.3v6.1M591.3,281.2h6m-6,45.8h6m-6,45.8h6m88.6,88.5v6.1M591.3,281.2h6M731.7,461.3v6.1m45.7,-6.1v6.1M591.3,418.6h6m225.9,42.7v6.1M591.1,450.9l6.4,-6.5m-6.4,3.4l6.4,-6.4m10.3,26.3l6.5,-6.5m-3.4,6.5l6.5,-6.5" class="g7_219"/>
<path d="M602.2,653.1h19.4M603,705.7h18.6" class="g0_219"/>
<path d="M500,582.8h15.6v-9.9H500v9.9Z" class="g8_219"/>
</svg>