<?xml version="1.0" encoding="UTF-8" standalone="no"?>
<!DOCTYPE svg PUBLIC "-//W3C//DTD SVG 1.1//EN"
"http://www.w3.org/Graphics/SVG/1.1/DTD/svg11.dtd">
<svg viewBox="0 0 931 1096" version="1.1" xmlns="http://www.w3.org/2000/svg" xmlns:xlink="http://www.w3.org/1999/xlink">
<defs>
<clipPath id="c0_285"><path d="M661,869.2V840.6h87.4v28.6Z"/></clipPath>
<style type="text/css"><![CDATA[
.g0_285{
fill: #00AEEF;
}
.g1_285{
fill: none;
stroke: #241F1F;
stroke-width: 1.069;
stroke-dasharray: 4,3;
}
.g2_285{
fill: #241F1F;
}
.g3_285{
fill: #FFF;
}
.g4_285{
fill: #CFEDFC;
}
.g5_285{
fill: none;
stroke: #00AEEF;
stroke-width: 1.222;
}
.g6_285{
fill: none;
stroke: #969698;
stroke-width: 0.993;
stroke-linejoin: round;
}
.g7_285{
fill: none;
stroke: #00AEEF;
stroke-width: 0.763;
stroke-miterlimit: 3;
}
.g8_285{
fill: none;
stroke: #241F1F;
stroke-width: 0.611;
stroke-miterlimit: 3;
}
.g9_285{
fill: none;
stroke: #241F1F;
stroke-width: 0.687;
stroke-miterlimit: 10;
}
.ga_285{
fill: none;
stroke: #241F1F;
stroke-width: 0.495;
stroke-miterlimit: 10;
}
.gb_285{
fill: none;
stroke: #241F1F;
stroke-width: 0.481;
stroke-miterlimit: 10;
}
]]></style>
</defs>
<path d="M902.9,1096.5h48.9V-20H902.9V1096.5Z" class="g0_285"/>
<path d="M97.8,-20V1116.6" class="g1_285"/>
<path fill-rule="evenodd" d="M96.2,114.5l-4.8,-4.2l-1.3,10.2c-1,-1.5,-1.5,-3.1,-1.5,-4.9l.4,-7.7c-.7,-.7,-1.6,-1.7,-2,-2.7c-.1,-.3,-.5,-1.6,-.9,-1.6c-.3,0,-.8,.4,-1.5,.4c-1.5,0,-2.7,-1.4,-2.7,-2.8c0,-1.1,.8,-2.1,2,-2.1c1.1,0,1.9,.8,2.3,1.7c.3,.5,.4,1.1,.5,1.6c.4,1.4,.7,2.1,1.6,3.1c.4,.5,.8,.9,1.4,1.1c.8,-.7,1.5,-2,1.5,-3.1c0,-.9,-.5,-1.9,-.5,-2.9c0,-1.2,.7,-2.3,2,-2.3c1.5,0,2.7,1.4,2.7,2.8c0,1.3,-.9,2.3,-2.2,2.3c-.3,0,-.4,0,-.7,-.1c-.4,-.1,-.7,-.1,-.7,.4v.8l-.2,3.4l4.6,4.1ZM84.1,99.8c-.9,0,-1.5,.5,-1.5,1.4c0,.9,.9,2.1,1.8,2.1c.7,0,1.4,-.4,1.4,-1.2c0,-.9,-.8,-2.3,-1.7,-2.3M92.8,99c-.9,0,-1.4,.8,-1.4,1.6c0,1.1,.6,2,1.8,2c.9,0,1.5,-.7,1.5,-1.5c0,-1,-.9,-2.1,-1.9,-2.1Z" class="g2_285"/>
<path d="M90,108.3c0,-.1,.1,-.2,.2,-.2c.1,0,.3,.1,.3,.2c0,.2,-.2,.3,-.3,.3c-.1,0,-.2,-.1,-.2,-.3Z" class="g3_285"/>
<path d="M108.5,82.7H260.7V53.3H108.5V82.7Z" class="g0_285"/>
<path d="M638.6,184.2c11.5,25.2,57.3,64.1,104.5,85.8H638.6Z" class="g4_285"/>
<path d="M638.6,184.2c14.9,32.7,88.2,88.8,146.6,100.2" class="g5_285"/>
<path d="M743.1,270H638.6" class="g6_285"/>
<path d="M741.6,270c0,-.8,.6,-1.5,1.5,-1.5c.8,0,1.5,.7,1.5,1.5c0,.9,-.7,1.6,-1.5,1.6c-.9,0,-1.5,-.7,-1.5,-1.6Z" class="g0_285"/>
<path d="M741.6,270c0,-.8,.6,-1.5,1.5,-1.5c.8,0,1.5,.7,1.5,1.5c0,.9,-.7,1.6,-1.5,1.6c-.9,0,-1.5,-.7,-1.5,-1.6Z" class="g7_285"/>
<path d="M616.6,301.5H785.2M638.6,319.9V173.2M743.1,298.5v6.1" class="g8_285"/>
<path fill-rule="evenodd" d="M784.1,301.4L782.5,299l6.5,2.4l-6.5,2.5Z" class="g2_285"/>
<path fill-rule="evenodd" d="M638.4,174.2l-2.4,1.6l2.4,-6.5l2.5,6.5Z" class="g2_285"/>
<path clip-path="url(#c0_285)" d="M737.8,855.1h11" class="g9_285"/>
<path d="M671.8,986.9h43.7m-21.6,2.9h19.5M305.1,250.3h71m-1.6,52h69.4M326.8,383.6h70.3m-.8,51.9h70.9M295.2,489h70.3m-54.7,30.6h70.9" class="g9_285"/>
<path d="M173.9,831.2H180" class="ga_285"/>
<path d="M199.7,836.1h12.6" class="g9_285"/>
<path d="M353,831.2h6.1" class="ga_285"/>
<path d="M378.9,836.1h12.5" class="g9_285"/>
<path d="M410.1,836h4.8" class="gb_285"/>
</svg>