<?xml version="1.0" encoding="UTF-8" standalone="no"?>
<!DOCTYPE svg PUBLIC "-//W3C//DTD SVG 1.1//EN"
"http://www.w3.org/Graphics/SVG/1.1/DTD/svg11.dtd">
<svg viewBox="0 0 931 1096" version="1.1" xmlns="http://www.w3.org/2000/svg" xmlns:xlink="http://www.w3.org/1999/xlink">
<defs>
<clipPath id="c0_70"><path d="M52,726.2V692.6H825v33.6Z"/></clipPath>
<style type="text/css"><![CDATA[
.g0_70{
fill: none;
stroke: #241F1F;
stroke-width: 0.481;
stroke-miterlimit: 10;
}
.g1_70{
fill: none;
stroke: #241F1F;
stroke-width: 0.687;
stroke-miterlimit: 10;
}
.g2_70{
fill: none;
stroke: #241F1F;
stroke-width: 0.534;
stroke-miterlimit: 10;
}
.g3_70{
fill: #FFF;
}
.g4_70{
fill: none;
stroke: #00AEEF;
stroke-width: 1.145;
}
.g5_70{
fill: none;
stroke: #00AEEF;
stroke-width: 0.763;
}
]]></style>
</defs>
<path d="M728.4,788.4h4.8m-413,109.7h4.7" class="g0_70"/>
<path d="M100.5,1019h30.8m150.8,8.3h49.5" class="g1_70"/>
<path d="M472.5,139.6h5.4" class="g2_70"/>
<path d="M290.7,281c0,0,-3.1,0,-3.1,3.1V426.9c0,0,0,3.1,3.1,3.1H820.1c0,0,3,0,3,-3.1V284.1c0,0,0,-3.1,-3,-3.1Z" class="g3_70"/>
<path d="M303.8,291.9c0,0,-1.5,0,-1.5,1.5v14.2c0,0,0,1.5,1.5,1.5H318c0,0,1.5,0,1.5,-1.5V293.4c0,0,0,-1.5,-1.5,-1.5H303.8Z" class="g4_70"/>
<path d="M524.5,345.8h5.3m-5.3,30.6h5.3M524.5,407h5.3" class="g2_70"/>
<path d="M290.7,281c0,0,-3.1,0,-3.1,3.1V426.9c0,0,0,3.1,3.1,3.1H820.1c0,0,3,0,3,-3.1V284.1c0,0,0,-3.1,-3,-3.1H290.7Z" class="g5_70"/>
<path d="M559.5,549h5.4m-17.8,38.2h5.4m-5.8,36.7h5.4m60.5,0H618" class="g2_70"/>
<image clip-path="url(#c0_70)" preserveAspectRatio="none" x="52" y="693" width="773" height="33" xlink:href="img/1.png"/>
</svg>