<?xml version="1.0" encoding="UTF-8" standalone="no"?>
<!DOCTYPE svg PUBLIC "-//W3C//DTD SVG 1.1//EN"
"http://www.w3.org/Graphics/SVG/1.1/DTD/svg11.dtd">
<svg viewBox="0 0 907 1045" version="1.1" xmlns="http://www.w3.org/2000/svg" xmlns:xlink="http://www.w3.org/1999/xlink">
<defs>
<clipPath id="c0_554"><path d="M111.1,430.8V168.2h78.2V430.8Z"/></clipPath>
<clipPath id="c1_554"><path d="M-2.6,1047.7V-2.6H910.2V1047.7Z"/></clipPath>
<style type="text/css"><![CDATA[
.g0_554{
fill: #D9D9D9;
}
.g1_554{
fill: #B8B8B8;
}
.g2_554{
fill: none;
stroke: #000000;
stroke-width: 1.675;
stroke-linecap: butt;
stroke-linejoin: miter;
stroke-miterlimit: 4;
}
.g3_554{
fill: #FFFFFF;
}
.g4_554{
fill: none;
stroke: #000000;
stroke-width: 1.527;
stroke-linecap: butt;
stroke-linejoin: miter;
stroke-miterlimit: 4;
}
.g5_554{
fill: none;
stroke: #636363;
stroke-width: 1.527;
stroke-linecap: butt;
stroke-linejoin: miter;
stroke-miterlimit: 4;
}
.g6_554{
fill: none;
stroke: #FFFFFF;
stroke-width: 1.909;
stroke-linecap: butt;
stroke-linejoin: miter;
}
.g7_554{
fill: none;
stroke: #000000;
stroke-width: 0.381;
stroke-linecap: butt;
stroke-linejoin: miter;
}
]]></style>
</defs>
<path d="M358.4,852.7v21.8H550V852.7H358.4Z" class="g0_554"/>
<path d="M102.2,476.3c5.4,0,9.8,-4.4,9.8,-9.8c0,-5.4,-4.4,-9.8,-9.8,-9.8c-5.4,0,-9.8,4.4,-9.8,9.8c0,5.4,4.4,9.8,9.8,9.8Z" class="g1_554"/>
<path d="M102.2,476.3c5.4,0,9.8,-4.4,9.8,-9.8c0,-5.4,-4.4,-9.8,-9.8,-9.8c-5.4,0,-9.8,4.4,-9.8,9.8c0,5.4,4.4,9.8,9.8,9.8Z" class="g2_554"/>
<image clip-path="url(#c0_554)" preserveAspectRatio="none" x="111" y="168" width="78" height="263" xlink:href="img/1.jpg"/>
<path d="M211.2,164.7c-2.6,.8,-2.1,4,-1.8,6.1c4.3,2.1,8.3,2,10.1,-2.6c-1.7,-1.5,-6.7,-6.5,-8.3,-2.4Z" class="g3_554"/>
<path d="M211.2,164.7c-2.6,.8,-2.1,4,-1.8,6.1c4.3,2.1,8.3,2,10.1,-2.6c-1.7,-1.5,-6.7,-6.5,-8.3,-2.4" class="g4_554"/>
<path d="M192.8,168.8c-3.9,-1.3,-3.2,3.3,-2.8,5.7c2.6,-.5,5.1,5,6.5,-.1c1,-3.3,-2.6,-6.2,-5.7,-5.6Z" class="g3_554"/>
<path d="M192.8,168.8c-3.9,-1.3,-3.2,3.3,-2.8,5.7c2.6,-.5,5.1,5,6.5,-.1c1,-3.3,-2.6,-6.2,-5.7,-5.6" class="g4_554"/>
<path d="M243.4,152.6c-7.7,-1.5,-11.9,10.8,-12.4,15.1c-.5,5.3,2.6,9.1,6.8,12.8c2.9,2.6,5.8,2.7,8.8,4.6c-2.9,5.4,-4.6,8.9,-1.9,15.4c3.4,8,15.7,22,25,26.3c3.2,1.5,8.2,.2,10.4,2.9c1.8,2.2,1.2,5.6,3.1,8.1c5.3,7,16.5,11.4,25.7,12.2c6.7,.5,24.5,.7,28.5,-6.5c2.2,1.4,4,4.1,6.1,5.8c9.3,7.7,19.1,8.6,32.2,10.1c11.4,1.3,19.1,-.8,28.5,-6.7c3.3,-2,9,-4.6,10.4,-8c11.9,9.5,32.4,5.5,45.7,.9c12.9,-4.4,24.4,-11.1,23.2,-23.6c1.6,4.4,15.7,-3.4,17.7,-4.4c6.9,-3.6,10.5,-7,14.6,-12.5c3.4,-4.8,7,-8.6,6.6,-14.4c.5,-2.5,-.2,-4.8,-2.2,-6.9c-1.6,-1.9,-8.3,-4.2,-8.5,-6.8c4.6,-2.5,8.4,-4.4,11.3,-8.5c5.2,-7.5,3.7,-18.3,0,-26.1c-6.8,-14,-25.8,-19.2,-42.3,-18.5c4.4,-1.6,9.3,-4.4,8.6,-9c-.5,-3,-7.2,-8,-9.5,-9.7c-5.2,-4.1,-6.9,-3.5,-14.9,-4.5c-20.7,-2.5,-38,-3.6,-57.9,1.4c-8.8,2.2,-26.5,6.3,-27.5,16.2c1.8,-5.6,-5.3,-10.8,-10.4,-13.2c-12.5,-5.7,-25.7,-5.2,-39.3,-3.8c-9.7,1.1,-40.1,6.7,-33.6,20.1c-8.7,-8.5,-28.7,-.6,-36.9,5.1c-2.5,1.8,-26.1,25.5,-15.9,27Z" class="g3_554"/>
<path d="M243.4,152.6c-7.7,-1.5,-11.9,10.8,-12.4,15.1c-.5,5.3,2.6,9.1,6.8,12.8c2.9,2.6,5.8,2.7,8.8,4.6c-2.9,5.4,-4.6,8.9,-1.9,15.4c3.4,8,15.7,22,25,26.3c3.2,1.5,8.2,.2,10.4,2.9c1.8,2.2,1.2,5.6,3.1,8.1c5.3,7,16.5,11.4,25.7,12.2c6.7,.5,24.5,.7,28.5,-6.5c2.2,1.4,4,4.1,6.1,5.8c9.3,7.7,19.1,8.6,32.2,10.1c11.4,1.3,19.1,-.8,28.5,-6.7c3.3,-2,9,-4.6,10.4,-8c11.9,9.5,32.4,5.5,45.7,.9c12.9,-4.4,24.4,-11.1,23.2,-23.6c1.6,4.4,15.7,-3.4,17.7,-4.4c6.9,-3.6,10.5,-7,14.6,-12.5c3.4,-4.8,7,-8.6,6.6,-14.4c.5,-2.5,-.2,-4.8,-2.2,-6.9c-1.6,-1.9,-8.3,-4.2,-8.5,-6.8c4.6,-2.5,8.4,-4.4,11.3,-8.5c5.2,-7.5,3.7,-18.3,0,-26.1c-6.8,-14,-25.8,-19.2,-42.3,-18.5c4.4,-1.6,9.3,-4.4,8.6,-9c-.5,-3,-7.2,-8,-9.5,-9.7c-5.2,-4.1,-6.9,-3.5,-14.9,-4.5c-20.7,-2.5,-38,-3.6,-57.9,1.4c-8.8,2.2,-26.5,6.3,-27.5,16.2c1.8,-5.6,-5.3,-10.8,-10.4,-13.2c-12.5,-5.7,-25.7,-5.2,-39.3,-3.8c-9.7,1.1,-40.1,6.7,-33.6,20.1c-8.7,-8.5,-28.7,-.6,-36.9,5.1c-2.5,1.8,-26.1,25.5,-15.9,27" class="g4_554"/>
<path d="M536.6,584.9c-1.5,-3.2,-5,-4.9,-8.2,-6.1c-6.3,-2.4,-13.5,-2.2,-20.1,-2.1c-5.2,0,-10.5,.3,-15.6,.8c-7,.7,-14.3,1.1,-21,3.1c-3.3,1,-6.4,2.7,-9.7,3.6c-3.7,1,-7.3,2.2,-10.9,3.6c-6.5,2.5,-12.7,5.7,-18.7,9.3c-3.6,2.1,-6.5,4.7,-9.7,7.4c-1.4,1.2,-2.8,2,-4,3.5c-1.2,1.4,-2.4,2.5,-3.8,3.7c-.9,.8,-2.7,4.2,-4.2,4.1c-2.4,-.2,-.7,-6.2,-1,-7.7c1.4,1.9,.2,6.3,.4,8.5c.1,1,0,1.9,.9,2.4c.8,.4,3.3,-.3,4,-.4c2,-.5,4,-2,6.1,-2.1m157.1,75.7c-9.8,7.2,-22.8,10,-34.7,7.1c-4.9,-1.1,-7,-4,-9.9,-7.9c-1.5,-2,-3.1,-3.8,-4.6,-5.8c-.5,-.7,-1,-1.9,-1.6,-2.4c-.4,3,-.9,6.1,-1.5,9.1c.4,-3.4,-.6,-6.7,-.3,-10.1c2.1,1.7,6.4,2.1,8.9,1M404.6,726.3c-1,-1,-2,-2,-3,-3c-2.1,-2.1,-4.1,-3.5,-6.5,-5.3c-1.9,-1.4,-3.3,-3.1,-4.6,-5.1c-1.5,-2.2,-3.1,-4.1,-4.8,-6.2c-1.5,-1.9,-3.4,-3.4,-4.8,-5.1c-1.1,-1.4,-1.7,-2.7,-2.7,-4.2c-.5,-.9,-1,-1.9,-1.4,-2.7c-.3,-.6,-.8,-1.7,-1.3,-2.1c-.7,1.1,-.7,3.2,-.8,4.4c-.1,1.7,1,4,.6,5.6c-.9,-1.9,.1,-4.1,.4,-6c.2,-1.4,-.3,-3.2,.1,-4.6c1.9,.5,3.6,1,5.7,1.1c2.1,0,6.3,-.1,8,-1.5M562.2,918.2c-1.5,.9,-2.8,.8,-4.5,.8c-1.5,0,-3,.1,-4.5,-.2c-1.4,-.3,-2.9,-.9,-4.2,-1.4c-7.9,-2.8,-13.5,-9.5,-16,-17.3c-.8,-2.5,-1.2,-5.2,-1.7,-7.8c-.4,-1.9,-.2,-3.9,-.2,-5.8c0,-.9,0,-1.8,-.1,-2.7c-.1,-.5,0,-1.1,-.3,-1.5c-.5,.3,-.7,1.1,-.9,1.6c-.7,1.9,-1.3,3.9,-2.1,5.7c-.4,-.7,.4,-2.8,.6,-3.6c.2,-.9,.7,-3.1,1.4,-3.7c.9,.6,1.6,.8,2.6,1c1.5,.2,2.8,1.4,4.3,1.3" class="g5_554"/>
<g clip-path="url(#c1_554)">
<path d="M-4.5,13.7H-27.4m939.5,0H935M-4.5,1031.2H-27.4m939.5,0H935M13.7,-4.5V-27.4m0,1077v22.9m880,-1077V-27.4m0,1077v22.9" class="g6_554"/>
<path d="M-4.5,13.7H-27.4m939.5,0H935M-4.5,1031.2H-27.4m939.5,0H935M13.7,-4.5V-27.4m0,1077v22.9m880,-1077V-27.4m0,1077v22.9" class="g7_554"/>
</g>
</svg>