<?xml version="1.0" encoding="UTF-8" standalone="no"?>
<!DOCTYPE svg PUBLIC "-//W3C//DTD SVG 1.1//EN"
"http://www.w3.org/Graphics/SVG/1.1/DTD/svg11.dtd">
<svg viewBox="0 0 770 1017" version="1.1" xmlns="http://www.w3.org/2000/svg" xmlns:xlink="http://www.w3.org/1999/xlink">
<defs>
<style type="text/css"><![CDATA[
.g0_627{
fill: none;
stroke: #000000;
stroke-width: 0.618;
stroke-linecap: butt;
stroke-linejoin: miter;
}
.g1_627{
fill: none;
stroke: #000000;
stroke-width: 3.101;
stroke-linecap: butt;
stroke-linejoin: miter;
stroke-dasharray: 13;
}
.g2_627{
fill: none;
stroke: #000000;
stroke-width: 3.101;
stroke-linecap: butt;
stroke-linejoin: miter;
}
.g3_627{
fill: none;
stroke: #000000;
stroke-width: 2.724;
stroke-linecap: butt;
stroke-linejoin: miter;
stroke-dasharray: 6;
}
.g4_627{
fill: none;
stroke: #000000;
stroke-width: 2.724;
stroke-linecap: butt;
stroke-linejoin: miter;
}
.g5_627{
fill: none;
stroke: #000000;
stroke-width: 2.724;
stroke-linecap: butt;
stroke-linejoin: miter;
stroke-dasharray: 11;
}
]]></style>
</defs>
<path d="M74.2,69.2H713.5" class="g0_627"/>
<path d="M152.1,128.7c0,12,-9.7,21.7,-21.7,21.7c-11.9,0,-21.7,-9.7,-21.7,-21.7c0,-12,9.8,-21.7,21.7,-21.7c12,0,21.7,9.7,21.7,21.7Z" class="g1_627"/>
<path d="M83.9,128.7H208l31,93l31,-93h93V276H169.2L146,198.5L114.9,276h-31V128.7Z" class="g2_627"/>
<path d="M398.9,279.5V102.4" class="g0_627"/>
<path d="M429.3,126.6c1.6,-10.6,9.9,-18.9,20.5,-20.4M429.3,256c1.6,10.6,9.9,18.9,20.5,20.4M572.3,126.6l6.9,27.3L586,119.8M517.9,276.4h177M429.3,126.6V256M708.5,126.6V256M606.4,106.2h81.7m-238.3,0H558.7" class="g3_627"/>
<path d="M443,126.6H551.9l27.3,81.7l27.2,-81.7h81.7V256H517.9L497.4,187.9L470.2,256H443V126.6Z" class="g4_627"/>
<path d="M488.4,258.3c0,10.5,-8.6,19,-19.1,19c-10.5,0,-19.1,-8.5,-19.1,-19c0,-10.6,8.6,-19.1,19.1,-19.1c10.5,0,19.1,8.5,19.1,19.1ZM530.9,257c0,10.5,-8.6,19.1,-19.1,19.1c-10.5,0,-19.1,-8.6,-19.1,-19.1c0,-10.5,8.6,-19.1,19.1,-19.1c10.5,0,19.1,8.6,19.1,19.1Zm177.6,-1c0,10.5,-8.5,19.1,-19.1,19.1c-10.5,0,-19,-8.6,-19,-19.1c0,-10.5,8.5,-19,19,-19c10.6,0,19.1,8.5,19.1,19ZM705.8,126.6c0,10.6,-8.5,19.1,-19.1,19.1c-10.5,0,-19,-8.5,-19,-19.1c0,-10.5,8.5,-19,19,-19c10.6,0,19.1,8.5,19.1,19Zm-79,0c0,10.6,-8.5,19.1,-19,19.1c-10.6,0,-19.1,-8.5,-19.1,-19.1c0,-10.5,8.5,-19,19.1,-19c10.5,0,19,8.5,19,19Zm-55.2,-2.9c0,10.5,-8.5,19.1,-19.1,19.1c-10.5,0,-19,-8.6,-19,-19.1c0,-10.5,8.5,-19.1,19,-19.1c10.6,0,19.1,8.6,19.1,19.1Zm-68.7,2.9c0,10.6,-8.5,19.1,-19.1,19.1c-10.5,0,-19,-8.5,-19,-19.1c0,-10.5,8.5,-19,19,-19c10.6,0,19.1,8.5,19.1,19Z" class="g5_627"/>
<path d="M83.4,305.7h621" class="g0_627"/>
</svg>