<svg viewBox="0 0 811 1017" version="1.1" xmlns="http://www.w3.org/2000/svg">
<defs>
<style>
.g0_108{fill:#FFF;}
.g1_108{fill:#C1E0F5;}
.g2_108{fill:none;stroke:#2A2827;stroke-width:0.763;stroke-linejoin:round;}
.g3_108{fill:none;stroke:#33312E;stroke-width:0.763;}
.g4_108{fill:#33312E;}
</style>
</defs>
<path d="M156.1 588.6H626.7V211.2H156.1V588.6Z" class="g0_108"/>
<path d="M177 362.8v-94c0-3.6 2.9-6.5 6.6-6.5h51.1c3.6 0 6.6 2.9 6.6 6.5v94c0 3.7-3 6.6-6.6 6.6H183.6c-3.7 0-6.6-2.9-6.6-6.6Z" class="g1_108"/>
<path d="M177 362.8v-94c0-3.6 2.9-6.5 6.6-6.5h51.1c3.6 0 6.6 2.9 6.6 6.5v94c0 3.7-3 6.6-6.6 6.6H183.6c-3.7 0-6.6-2.9-6.6-6.6Z" class="g2_108"/>
<path d="M309.1 362.8v-94c0-3.6 2.9-6.5 6.5-6.5h51.2c3.6 0 6.5 2.9 6.5 6.5v94c0 3.7-2.9 6.6-6.5 6.6H315.6c-3.6 0-6.5-2.9-6.5-6.6Z" class="g1_108"/>
<path d="M309.1 362.8v-94c0-3.6 2.9-6.5 6.5-6.5h51.2c3.6 0 6.5 2.9 6.5 6.5v94c0 3.7-2.9 6.6-6.5 6.6H315.6c-3.6 0-6.5-2.9-6.5-6.6Z" class="g2_108"/>
<path d="M441.2 362.8v-94c0-3.6 2.9-6.5 6.5-6.5h51.2c3.6 0 6.5 2.9 6.5 6.5v94c0 3.7-2.9 6.6-6.5 6.6H447.7c-3.6 0-6.5-2.9-6.5-6.6Z" class="g1_108"/>
<path d="M441.2 362.8v-94c0-3.6 2.9-6.5 6.5-6.5h51.2c3.6 0 6.5 2.9 6.5 6.5v94c0 3.7-2.9 6.6-6.5 6.6H447.7c-3.6 0-6.5-2.9-6.5-6.6Z" class="g2_108"/>
<path d="M177 580.6v-94c0-3.6 2.9-6.6 6.6-6.6h51.1c3.6 0 6.6 3 6.6 6.6v94c0 3.6-3 6.5-6.6 6.5H183.6c-3.7 0-6.6-2.9-6.6-6.5Z" class="g1_108"/>
<path d="M177 580.6v-94c0-3.6 2.9-6.6 6.6-6.6h51.1c3.6 0 6.6 3 6.6 6.6v94c0 3.6-3 6.5-6.6 6.5H183.6c-3.7 0-6.6-2.9-6.6-6.5Z" class="g2_108"/>
<path d="M309.1 580.6v-94c0-3.6 2.9-6.6 6.5-6.6h51.2c3.6 0 6.5 3 6.5 6.6v94c0 3.6-2.9 6.5-6.5 6.5H315.6c-3.6 0-6.5-2.9-6.5-6.5Z" class="g1_108"/>
<path d="M309.1 580.6v-94c0-3.6 2.9-6.6 6.5-6.6h51.2c3.6 0 6.5 3 6.5 6.6v94c0 3.6-2.9 6.5-6.5 6.5H315.6c-3.6 0-6.5-2.9-6.5-6.5Z" class="g2_108"/>
<path d="M441.2 580.6v-94c0-3.6 2.9-6.6 6.5-6.6h51.2c3.6 0 6.5 3 6.5 6.6v94c0 3.6-2.9 6.5-6.5 6.5H447.7c-3.6 0-6.5-2.9-6.5-6.5Z" class="g1_108"/>
<path d="M441.2 580.6v-94c0-3.6 2.9-6.6 6.5-6.6h51.2c3.6 0 6.5 3 6.5 6.6v94c0 3.6-2.9 6.5-6.5 6.5H447.7c-3.6 0-6.5-2.9-6.5-6.5Z" class="g2_108"/>
<path d="M241.3 283.2h62" class="g3_108"/>
<path d="M305.1 282.4c-1.3-.3-2.1-.7-3.1-1.1v3.9c.3-.2 1.8-.8 3.1-1.2c1.3-.4 2.5-.7 3.3-.8c-.8-.1-2-.4-3.3-.8Z" class="g4_108"/>
<path d="M241.3 317.3h62" class="g3_108"/>
<path d="M305.1 316.6c-1.3-.4-2.1-.8-3.1-1.2v3.9c.3-.2 1.8-.8 3.1-1.2c1.3-.4 2.5-.7 3.3-.8c-.8-.1-2-.3-3.3-.7Z" class="g4_108"/>
<path d="M241.3 351.5l62-.1" class="g3_108"/>
<path d="M305.1 350.7c-1.3-.4-2.1-.8-3.1-1.2v3.9c.3-.2 1.8-.8 3.1-1.2c1.3-.4 2.5-.7 3.3-.8c-.8-.1-2-.3-3.3-.7Z" class="g4_108"/>
<path d="M373.3 283.2h62" class="g3_108"/>
<path d="M437.1 282.4c-1.2-.3-2.1-.7-3.1-1.1v3.9c.4-.2 1.9-.8 3.1-1.2c1.4-.4 2.6-.7 3.4-.8c-.8-.1-2-.4-3.4-.8Z" class="g4_108"/>
<path d="M373.3 317.3h62" class="g3_108"/>
<path d="M437.1 316.6c-1.2-.4-2.1-.8-3.1-1.2v3.9c.4-.2 1.9-.8 3.1-1.2c1.4-.4 2.6-.7 3.4-.8c-.8-.1-2-.3-3.4-.7Z" class="g4_108"/>
<path d="M373.3 351.5l62-.1" class="g3_108"/>
<path d="M437.1 350.7c-1.2-.4-2.1-.8-3.1-1.2v3.9c.4-.2 1.9-.8 3.1-1.2c1.4-.4 2.6-.7 3.4-.8c-.8-.1-2-.3-3.4-.7Z" class="g4_108"/>
<path d="M241.3 500.9h62" class="g3_108"/>
<path d="M305.1 500.2c-1.3-.4-2.1-.8-3.1-1.2v3.9c.3-.2 1.8-.8 3.1-1.2c1.3-.4 2.5-.6 3.3-.8c-.8-.1-2-.3-3.3-.7Z" class="g4_108"/>
<path d="M241.3 535h62" class="g3_108"/>
<path d="M305.1 534.3c-1.3-.4-2.1-.8-3.1-1.2V537c.3-.2 1.8-.8 3.1-1.2c1.3-.4 2.5-.6 3.3-.8c-.8 0-2-.3-3.3-.7Z" class="g4_108"/>
<path d="M241.3 569.2h62" class="g3_108"/>
<path d="M305.1 568.4c-1.3-.4-2.1-.8-3.1-1.2v3.9c.3-.2 1.8-.8 3.1-1.1c1.3-.5 2.5-.7 3.3-.8c-.8-.1-2-.4-3.3-.8Z" class="g4_108"/>
<path d="M373.3 500.9h62" class="g3_108"/>
<path d="M437.1 500.2c-1.2-.4-2.1-.8-3.1-1.2v3.9c.4-.2 1.9-.8 3.1-1.2c1.4-.4 2.6-.6 3.4-.8c-.8-.1-2-.3-3.4-.7Z" class="g4_108"/>
<path d="M373.3 535h62" class="g3_108"/>
<path d="M437.1 534.3c-1.2-.4-2.1-.8-3.1-1.2V537c.4-.2 1.9-.8 3.1-1.2c1.4-.4 2.6-.6 3.4-.8c-.8 0-2-.3-3.4-.7Z" class="g4_108"/>
<path d="M373.3 569.2h62" class="g3_108"/>
<path d="M437.1 568.4c-1.2-.4-2.1-.8-3.1-1.2v3.9c.4-.2 1.9-.8 3.1-1.1c1.4-.5 2.6-.7 3.4-.8c-.8-.1-2-.4-3.4-.8Z" class="g4_108"/>
<path d="M157.1 418.3H624.6" class="g3_108"/>
<path d="M156.1 891.6H683.2V809.1H156.1v82.5Z" class="g0_108"/>
<path d="M157.1 890.6H279.3V847.5H157.1v43.1Z" class="g1_108"/>
<path d="M157.1 890.6H279.3V847.5H157.1v43.1Z" class="g2_108"/>
<path d="M358.8 890.6H481V847.5H358.8v43.1Z" class="g1_108"/>
<path d="M358.8 890.6H481V847.5H358.8v43.1Z" class="g2_108"/>
<path d="M560.4 890.6H682.6V847.5H560.4v43.1Z" class="g1_108"/>
<path d="M560.4 890.6H682.6V847.5H560.4v43.1Z" class="g2_108"/>
<path d="M279.5 869h73.7" class="g3_108"/>
<path d="M355 868.2c-1.3-.3-2.1-.7-3.1-1.1V871c.3-.2 1.8-.8 3.1-1.2c1.3-.4 2.5-.7 3.3-.8c-.8-.1-2-.4-3.3-.8Z" class="g4_108"/>
<path d="M481.1 869h73.7" class="g3_108"/>
<path d="M556.6 868.2c-1.2-.3-2-.7-3.1-1.1V871c.4-.2 1.9-.8 3.1-1.2c1.4-.4 2.6-.7 3.4-.8c-.8-.1-2-.4-3.4-.8Z" class="g4_108"/>
</svg>