<?xml version="1.0" encoding="UTF-8" standalone="no"?>
<!DOCTYPE svg PUBLIC "-//W3C//DTD SVG 1.1//EN"
"http://www.w3.org/Graphics/SVG/1.1/DTD/svg11.dtd">
<svg viewBox="0 0 931 1096" version="1.1" xmlns="http://www.w3.org/2000/svg" xmlns:xlink="http://www.w3.org/1999/xlink">
<defs>
<clipPath id="c0_82"><path d="M71.3,985.8C61.2,983.2,54.8,979.4,54.8,975.3V848.1c.6,6.8,6.7,16.9,16.5,27.9V985.8Z"/></clipPath>
<clipPath id="c1_82"><path d="M106.2,989.6c-28.4,0,-51.4,-6.4,-51.4,-14.3V848.1c1,11.1,16.6,31.2,39.5,49.5c21.5,17.2,43,27.8,54.7,27.8c3.4,0,5.9,-.9,7.4,-2.7c.9,-1.2,1.2,-2.6,1.3,-4.3l-.2,56.9c0,7.9,-23,14.3,-51.3,14.3Z"/></clipPath>
<clipPath id="c2_82"><path d="M149,925.4c-11.7,0,-33.3,-10.6,-54.7,-27.8C66.6,875.4,49.6,850.7,56.2,842.4c1.5,-1.8,4.1,-2.7,7.4,-2.7c11.7,0,33.3,10.6,54.7,27.8c23.3,18.6,39,39,39.5,50v1.1c-.1,1.6,-.5,3,-1.4,4.1c-1.5,1.8,-4.1,2.7,-7.4,2.7Z"/></clipPath>
<clipPath id="c3_82"><path d="M53.5,1021.2V815H208.2v206.2Z"/></clipPath>
<style type="text/css"><![CDATA[
.g0_82{
fill: none;
stroke: #241F1F;
stroke-width: 0.763;
stroke-miterlimit: 10;
}
.g1_82{
fill: #EBEAEA;
}
.g2_82{
fill: #EAE9E9;
}
.g3_82{
fill: #E7E6E6;
}
.g4_82{
fill: #E5E4E4;
}
.g5_82{
fill: #E4E3E3;
}
.g6_82{
fill: #E2E1E1;
}
.g7_82{
fill: #DFDEDF;
}
.g8_82{
fill: #DEDDDD;
}
.g9_82{
fill: #DBDADB;
}
.ga_82{
fill: #D9D8D9;
}
.gb_82{
fill: #D8D7D7;
}
.gc_82{
fill: #D6D5D6;
}
.gd_82{
fill: none;
stroke: #969698;
stroke-width: 0.611;
stroke-miterlimit: 3;
stroke-dasharray: 10,4;
}
.ge_82{
fill: none;
stroke: #00AEEF;
stroke-width: 0.916;
stroke-linejoin: round;
}
.gf_82{
fill: #00AEEF;
}
.gg_82{
fill: none;
stroke: #7E7D7F;
stroke-width: 0.763;
stroke-miterlimit: 3;
stroke-dasharray: 9,4;
}
.gh_82{
fill: none;
stroke: #241F1F;
stroke-width: 0.611;
stroke-miterlimit: 3;
}
.gi_82{
fill: #241F1F;
}
.gj_82{
fill: none;
stroke: #969698;
stroke-width: 0.611;
stroke-miterlimit: 3;
stroke-dasharray: 9,4;
}
.gk_82{
fill: none;
stroke: #241F1F;
stroke-width: 0.763;
stroke-linejoin: round;
}
.gl_82{
fill: none;
stroke: #241F1F;
stroke-width: 0.381;
stroke-miterlimit: 3;
}
.gm_82{
fill: none;
stroke: #241F1F;
stroke-width: 0.763;
}
]]></style>
</defs>
<path d="M485.4,153.5h19.7m36.8,0h19.7m35,0h18.1M485.9,213h19m36.7,0h18.9m41.8,0h18.9m3.8,0h19m21.9,0h18.9m3.8,0h19m-180,59.6h19m14.4,0h18.9m78.5,0h18.9m14.4,0h19M519.3,332.2h19m107.9,0h19m-190,59.6h18.9m60.5,0h18.9m32.4,0h19m58.6,0h19M420.9,533.9h23.2m21.9,0h23.2m3.9,0H512m21.9,0h21.5m3.8,0h19m21.8,0h21.5m3.9,0h18.9m3.8,0h19m35,0h36.4M453.4,598h21.5m21.9,0h21.5m3.8,0h19m21.9,0h21.5m3.8,0h18.9m21.9,0h21.5m3.8,0h19m3.8,0h18.9m35,0h36.4M493.8,928h19m21.2,0h19m18.3,0h18.2" class="g0_82"/>
<g clip-path="url(#c0_82)">
<path d="M69.8,991.2h1.5V846.4H69.8V991.2Z" class="g1_82"/>
<path d="M68.3,991.2h1.5V846.4H68.3V991.2Z" class="g2_82"/>
<path d="M66.8,991.2h1.5V846.4H66.8V991.2Z" class="g3_82"/>
<path d="M65.4,991.2h1.4V846.4H65.4V991.2Z" class="g4_82"/>
<path d="M63.9,991.2h1.4V846.4H63.9V991.2Z" class="g5_82"/>
<path d="M62.4,991.2h1.5V846.4H62.4V991.2Z" class="g6_82"/>
<path d="M60.9,991.2h1.5V846.4H60.9V991.2Z" class="g7_82"/>
<path d="M59.4,991.2h1.5V846.4H59.4V991.2Z" class="g8_82"/>
<path d="M57.9,991.2h1.5V846.4H57.9V991.2Z" class="g9_82"/>
<path d="M56.4,991.2h1.5V846.4H56.4V991.2Z" class="ga_82"/>
<path d="M55,991.2h1.4V846.4H55V991.2Z" class="gb_82"/>
<path d="M53.5,991.2h1.4V846.4H53.5V991.2Z" class="gc_82"/>
</g>
<image clip-path="url(#c1_82)" x="54" y="848" width="104" height="142" xlink:href="shade/1.png"/>
<image clip-path="url(#c2_82)" x="49" y="839" width="109" height="92" xlink:href="shade/2.png"/>
<path d="M92.7,987.5l13.5,-12.2" class="gd_82"/>
<path d="M75.9,881c5.4,5.5,11.5,11.1,18.4,16.6c27.6,22.1,55.4,33.4,62.1,25.1c5.9,-7.4,-6.8,-27.6,-29.1,-47.6" class="ge_82"/>
<path d="M123.7,871.8l6.4,2.5l-2.8,.8l-.5,2.9Z" class="gf_82"/>
<path clip-path="url(#c3_82)" d="M127.3,875.1c-2.8,-2.5,-5.8,-5.1,-9,-7.6C90.7,845.4,62.9,834.1,56.2,842.4c-5,6.3,3.5,21.8,19.8,38.6" class="ge_82"/>
<path d="M79.4,884.5l-6.3,-2.9L76,881l.7,-2.9Z" class="gf_82"/>
<path d="M54.9,975.3c0,-7.9,22.9,-14.3,51.3,-14.3c28.3,0,51.3,6.4,51.3,14.3" class="gg_82"/>
<path d="M92.6,987.5l-27.4,24.6" class="gh_82"/>
<path fill-rule="evenodd" d="M65.2,1012.1l2.9,.7l-6.5,2.6l3.2,-6.2Z" class="gi_82"/>
<path d="M106.2,975.3l51.9,5.5" class="gd_82"/>
<path d="M158.1,980.8l45.3,4.8" class="gh_82"/>
<path clip-path="url(#c3_82)" fill-rule="evenodd" d="M203.4,985.6L202,983l6.3,3.1l-6.8,1.8Z" class="gi_82"/>
<path d="M106.2,975.3V886.7" class="gj_82"/>
<path d="M54.9,848.1l-.1,127.2c0,7.9,23,14.3,51.4,14.3c28.3,0,51.3,-6.4,51.3,-14.3l.2,-56.9" class="gk_82"/>
<path d="M152.9,884.5L123,887.3" class="gl_82"/>
<path d="M119.7,887.6l4.2,-2l-.9,1.7l1.2,1.6Z" class="gi_82"/>
<path d="M106.2,883.8V824.2" class="gh_82"/>
<path fill-rule="evenodd" d="M106.2,824.2l-2.5,1.6l2.5,-6.5l2.4,6.5Z" class="gi_82"/>
<path d="M485.9,888.2v81.7M597.5,888.1v81.6" class="gm_82"/>
</svg>