<?xml version="1.0" encoding="UTF-8" standalone="no"?>
<!DOCTYPE svg PUBLIC "-//W3C//DTD SVG 1.1//EN"
"http://www.w3.org/Graphics/SVG/1.1/DTD/svg11.dtd">
<svg viewBox="0 0 931 1096" version="1.1" xmlns="http://www.w3.org/2000/svg" xmlns:xlink="http://www.w3.org/1999/xlink">
<defs>
<clipPath id="c0_458"><path d="M39.4,1096.5V30H931.9V1096.5Z"/></clipPath>
<clipPath id="c1_458"><path d="M517.3,443.8v-32h40.1v32Z"/></clipPath>
<clipPath id="c2_458"><path d="M703.6,702.5V686.8h66.7v15.7Z"/></clipPath>
<style type="text/css"><![CDATA[
.g0_458{
fill: #EBEAEA;
}
.g1_458{
fill: none;
stroke: #241F1F;
stroke-width: 0.687;
stroke-miterlimit: 10;
}
.g2_458{
fill: none;
stroke: #241F1F;
stroke-width: 0.481;
stroke-miterlimit: 10;
}
.g3_458{
fill: #CFEDFC;
}
.g4_458{
fill: #241F1F;
}
.g5_458{
fill: none;
stroke: #00AEEF;
stroke-width: 0.916;
stroke-linejoin: round;
}
.g6_458{
fill: none;
stroke: #241F1F;
stroke-width: 0.763;
stroke-linejoin: round;
}
.g7_458{
fill: none;
stroke: #241F1F;
stroke-width: 0.611;
stroke-miterlimit: 3;
}
.g8_458{
fill: #B2E3FA;
}
.g9_458{
fill: none;
stroke: #00AEEF;
stroke-width: 0.916;
}
.ga_458{
fill: none;
stroke: #ED098A;
stroke-width: 0.916;
}
.gb_458{
fill: none;
stroke: #EE008C;
stroke-width: 0.916;
}
.gc_458{
fill: none;
stroke: #6AC48C;
stroke-width: 1.069;
stroke-linejoin: round;
}
.gd_458{
fill: none;
stroke: #241F1F;
stroke-width: 0.763;
stroke-miterlimit: 3;
}
]]></style>
</defs>
<path d="M0,1096.5H933.5V-20H0V1096.5Z" class="g0_458"/>
<image clip-path="url(#c0_458)" preserveAspectRatio="none" x="39" y="30" width="900" height="1067" xlink:href="img/1.png"/>
<path d="M402.3,232.5h52.4m-40.2,3.6h38.1m-55.3,69.7h11" class="g1_458"/>
<path clip-path="url(#c1_458)" d="M551.7,419.8h6" class="g1_458"/>
<path d="M349.8,519.7h23.5m63,-8.3h40.4M519.6,587h10.9m19.7,0h11m19.7,0h10.9" class="g1_458"/>
<path clip-path="url(#c2_458)" d="M726.3,687.1h44.4" class="g1_458"/>
<path d="M792.5,806.8h4.8" class="g2_458"/>
<path d="M407.4,947.5h68.5m-56.3,2.1h9m11.7,0h33.5m21.8,-2.1h70.5m-58.4,2.1h9.1m11.6,0H564m57.8,-2.1h70.5M634,949.6h9.1m11.6,0h35.6" class="g1_458"/>
<path d="M71.8,315.8H172.7V242.4c-34,3.9,-45.1,67.3,-100.9,73.4Z" class="g3_458"/>
<path fill-rule="evenodd" d="M200.2,315.8l-1.7,-2.5l6.5,2.5l-6.5,2.4Z" class="g4_458"/>
<path fill-rule="evenodd" d="M71.8,219.5l-2.4,1.6l2.4,-6.5l2.5,6.5Z" class="g4_458"/>
<path d="M71.8,315.8c53.5,-4.2,71.1,-73.4,100.9,-73.4" class="g5_458"/>
<path d="M71.8,448.5H172.7V375.2Z" class="g3_458"/>
<path fill-rule="evenodd" d="M200.2,448.5l-1.7,-2.4l6.5,2.4l-6.5,2.5Z" class="g4_458"/>
<path fill-rule="evenodd" d="M71.8,352.3l-2.4,1.6l2.4,-6.5l2.5,6.5Z" class="g4_458"/>
<path d="M172.7,375.2L71.8,448.5" class="g5_458"/>
<path d="M172.7,242.4v73.4m0,132.7V375.2" class="g6_458"/>
<path d="M53.5,315.8H200.2M53.5,448.5H200.2M71.8,334.1V219.5m0,247.3V352.3" class="g7_458"/>
<path d="M66.2,698.5L214.1,631.8c0,0,-28.1,-53.4,-59.1,-53.8C106.8,577.2,66.2,698.5,66.2,698.5Z" class="g8_458"/>
<path d="M62.3,708.8c12.3,-40.4,50,-130.2,91.8,-130.2c42.5,0,79.7,89.6,92.1,130.1" class="g9_458"/>
<path d="M65.5,698.9l148,-66.7L140.9,581.6L65.5,698.9Z" class="ga_458"/>
<path d="M90.2,604l89.1,-39.7" class="gb_458"/>
<path d="M142.5,581.5c0,.9,-.7,1.7,-1.7,1.7c-.9,0,-1.7,-.8,-1.7,-1.7c0,-1,.8,-1.8,1.7,-1.8c1,0,1.7,.8,1.7,1.8Z" class="g4_458"/>
<path d="M215.2,632.1c0,.9,-.7,1.7,-1.7,1.7c-.9,0,-1.7,-.8,-1.7,-1.7c0,-.9,.8,-1.7,1.7,-1.7c1,0,1.7,.8,1.7,1.7Z" class="g4_458"/>
<path d="M67.3,698.6c0,1,-.7,1.7,-1.7,1.7c-.9,0,-1.7,-.7,-1.7,-1.7c0,-.9,.8,-1.7,1.7,-1.7c1,0,1.7,.8,1.7,1.7Z" class="g4_458"/>
<path d="M167,857.9c3.6,11.2,5.6,22.5,5.6,33.8c0,11.1,-2,22.3,-5.6,33.4c-11.1,3.6,-22.3,5.7,-33.5,5.7c-11.3,0,-22.5,-2.2,-33.7,-5.8C96.3,913.9,94.4,902.8,94.4,891.7c0,-11.3,2,-22.4,5.6,-33.6c11.1,-3.6,22.3,-5.5,33.5,-5.5c11,0,22.5,1.8,33.5,5.3Z" class="g3_458"/>
<path d="M167,857.9c3.6,11.2,5.6,22.5,5.6,33.8c0,11.1,-2,22.3,-5.6,33.4c-11.1,3.6,-22.3,5.7,-33.5,5.7c-11.3,0,-22.5,-2.2,-33.7,-5.8C96.3,913.9,94.4,902.8,94.4,891.7c0,-11.3,2,-22.4,5.6,-33.6c11.1,-3.6,22.3,-5.5,33.5,-5.5c11,0,22.5,1.8,33.5,5.3Z" class="g5_458"/>
<path d="M64.7,960.4H202.2V822.9H64.7V960.4Z" class="gc_458"/>
<path d="M131.7,891.7c0,-1,.8,-1.8,1.8,-1.8c.9,0,1.7,.8,1.7,1.8c0,.9,-.8,1.7,-1.7,1.7c-1,0,-1.8,-.8,-1.8,-1.7Z" class="g4_458"/>
<path d="M131.7,891.7c0,-1,.8,-1.8,1.8,-1.8c.9,0,1.7,.8,1.7,1.8c0,.9,-.8,1.7,-1.7,1.7c-1,0,-1.8,-.8,-1.8,-1.7Z" class="gd_458"/>
</svg>