<?xml version="1.0" encoding="UTF-8" standalone="no"?>
<!DOCTYPE svg PUBLIC "-//W3C//DTD SVG 1.1//EN"
"http://www.w3.org/Graphics/SVG/1.1/DTD/svg11.dtd">
<svg viewBox="0 0 931 1096" version="1.1" xmlns="http://www.w3.org/2000/svg" xmlns:xlink="http://www.w3.org/1999/xlink">
<defs>
<clipPath id="c0_196"><path d="M500.7,590.1V574.2h62.1v15.9Z"/></clipPath>
<clipPath id="c1_196"><path d="M116.6,299.6V141.5H347.3V299.6Z"/></clipPath>
<clipPath id="c2_196"><path d="M122.2,801.5V641.1h228V801.5Z"/></clipPath>
<clipPath id="c3_196"><path d="M121.5,1042.3V897.7H361.2v144.6Z"/></clipPath>
<style type="text/css"><![CDATA[
.g0_196{
fill: none;
stroke: #00AEEF;
stroke-width: 0.763;
stroke-miterlimit: 10;
}
.g1_196{
fill: none;
stroke: #00AEEF;
stroke-width: 0.915;
stroke-linejoin: round;
}
.g2_196{
fill: none;
stroke: #241F1F;
stroke-width: 0.609;
stroke-miterlimit: 3;
}
.g3_196{
fill: #241F1F;
}
.g4_196{
fill: none;
stroke: #241F1F;
stroke-width: 0.687;
stroke-miterlimit: 10;
}
.g5_196{
fill: none;
stroke: #EE008C;
stroke-width: 0.915;
stroke-linejoin: round;
}
.g6_196{
fill: none;
stroke: #6AC48C;
stroke-width: 1.067;
stroke-linejoin: round;
}
.g7_196{
fill: none;
stroke: #6AC48C;
stroke-width: 1.07;
stroke-linejoin: round;
}
.g8_196{
fill: none;
stroke: #00AEEF;
stroke-width: 0.916;
stroke-linejoin: round;
}
.g9_196{
fill: none;
stroke: #EE008C;
stroke-width: 0.916;
stroke-linejoin: round;
}
.ga_196{
fill: none;
stroke: #241F1F;
stroke-width: 0.611;
stroke-miterlimit: 3;
}
.gb_196{
fill: none;
stroke: #241F1F;
stroke-width: 0.916;
stroke-linejoin: round;
}
.gc_196{
fill: none;
stroke: #6AC48C;
stroke-width: 1.069;
stroke-linejoin: round;
}
]]></style>
</defs>
<path d="M453.8,184H823.5" class="g0_196"/>
<path d="M553.8,491.7c26.8,-2.2,62.6,-2.2,82.4,-32.6c9.3,-14.4,22.9,-35.2,41.2,-47.1l41.2,-26.6" class="g1_196"/>
<path d="M553.8,513.4v-143" class="g2_196"/>
<path fill-rule="evenodd" d="M553.8,370.4l-2.4,1.6l2.4,-6.5l2.4,6.5Z" class="g3_196"/>
<path d="M526.3,491.7H746" class="g2_196"/>
<path fill-rule="evenodd" d="M746,491.7l-1.6,-2.4l6.5,2.4l-6.5,2.4Z" class="g3_196"/>
<path d="M550.7,426.5h6.1m79.4,62.1v6.1M550.7,383h6.1m-6.1,21.7h6.1M550.7,470h6.1m161.8,18.6v6.1M550.7,448.2h6.1" class="g2_196"/>
<path clip-path="url(#c0_196)" d="M555,574.6h8.1" class="g4_196"/>
<path d="M597,625h8.1" class="g4_196"/>
<path d="M118.2,254.8c58.8,-6,82.7,-35.4,97.4,-54.7c19,-24.9,22.6,-37.4,54.8,-37.4c16.3,0,42.8,6,70.4,6.9" class="g5_196"/>
<path d="M118.2,220.9c85.6,-8,78.5,-46,101.8,-46c13.1,0,17.4,36.9,46,51.3c17.6,8.8,46.4,3.4,74.8,3.4" class="g6_196"/>
<path d="M118.2,222.7c69.6,-7.5,65.6,-31.3,82.6,-31.3c18.5,0,25.1,98.2,37.4,98.2c12.7,0,15.9,-64.3,65.2,-64.3h37.4" class="g1_196"/>
<path d="M116.6,225.6H342.4" class="g2_196"/>
<path fill-rule="evenodd" d="M342.4,225.6l-1.6,-2.5l6.5,2.5l-6.5,2.4Z" class="g3_196"/>
<path clip-path="url(#c1_196)" d="M229.5,301.8V149.2" class="g2_196"/>
<path fill-rule="evenodd" d="M229.5,149.2l-2.5,1.7l2.5,-6.5l2.4,6.5Z" class="g3_196"/>
<path d="M175,374.7c13.2,102.2,22.4,112,53.7,112c31.3,0,40.6,-9.8,53.8,-112" class="g7_196"/>
<path d="M189.9,545.6c8.6,-54.1,14.3,-85.4,38.8,-85.4c24.6,0,30.3,-31.4,38.8,-85.5" class="g8_196"/>
<path d="M201.7,374.7c3.2,20.3,12.8,85.5,27,85.5c14.2,0,23.9,-65.2,27.1,-85.5" class="g9_196"/>
<path d="M143.3,460.2H314.1" class="ga_196"/>
<path fill-rule="evenodd" d="M314.1,460.2l-1.6,-2.5l6.5,2.5l-6.5,2.4Z" class="g3_196"/>
<path d="M228.7,545.6V374.7" class="ga_196"/>
<path fill-rule="evenodd" d="M228.7,374.7l-2.4,1.7l2.4,-6.5l2.5,6.5Z" class="g3_196"/>
<path d="M160,545.6c7.5,-78.7,15,-115,31,-115c11,0,24.9,17.5,37.7,29.6c12.8,12.1,26.7,29.5,37.7,29.5c16.1,0,23.5,-36.3,31,-115" class="gb_196"/>
<path d="M139,724.2c40.4,-3.2,55.4,-29.9,79.5,-29.9c28.1,0,21.2,31.1,120.7,31.1" class="gc_196"/>
<path d="M139,714.8c24,-12.1,38.3,-51.2,51.9,-51.2c22.5,0,29.7,126.6,52.7,126.6c17,0,25.9,-59.2,95.6,-62.3" class="g8_196"/>
<path d="M139.1,725.6c29.6,0,46.4,-1.1,74.6,-10.8C249.6,702.3,277,700.6,340.3,700.6" class="g9_196"/>
<path d="M122.2,726H345.3" class="ga_196"/>
<path fill-rule="evenodd" d="M345.3,726l-1.6,-2.5l6.5,2.5l-6.5,2.4Z" class="g3_196"/>
<path clip-path="url(#c2_196)" d="M139.4,801.7V650.1" class="ga_196"/>
<path fill-rule="evenodd" d="M139.4,650.1l-2.5,1.7l2.5,-6.5l2.4,6.5Z" class="g3_196"/>
<path d="M138.6,989.3c50.3,0,84.4,-32.6,135,-32.6c29.5,0,54.9,3.4,74,5.2" class="gc_196"/>
<path d="M138.6,989.3c21.9,-4.5,46.9,-34.1,69.7,-34.1c17.5,0,50.9,28.8,69.7,34.1c14.6,4.2,50.9,4.2,69.6,4.2" class="g8_196"/>
<path d="M138.6,971.9c9.9,-4.2,29.9,-30.5,41.4,-30.5c33.8,0,25.5,97.3,56.6,97.3c18.2,0,29.2,-43.9,84.9,-48.6c5.1,-.5,26.1,-2.2,26.1,-2.2" class="g9_196"/>
<path d="M138.7,1042V906.9" class="ga_196"/>
<path fill-rule="evenodd" d="M138.7,906.9l-2.5,1.6l2.5,-6.5l2.4,6.5Z" class="g3_196"/>
<path clip-path="url(#c3_196)" d="M121.5,989.4H356.6" class="ga_196"/>
<path fill-rule="evenodd" d="M356.4,989.4l-1.7,-2.5l6.5,2.5l-6.5,2.4Z" class="g3_196"/>
<path d="M138.6,989.3c111.1,-.6,130.9,-22.8,141.6,-32.9c13,-12.3,36.7,-31.9,66.9,-43.3" class="gb_196"/>
</svg>