<?xml version="1.0" encoding="UTF-8" standalone="no"?>
<!DOCTYPE svg PUBLIC "-//W3C//DTD SVG 1.1//EN"
"http://www.w3.org/Graphics/SVG/1.1/DTD/svg11.dtd">
<svg viewBox="0 0 907 1045" version="1.1" xmlns="http://www.w3.org/2000/svg" xmlns:xlink="http://www.w3.org/1999/xlink">
<defs>
<clipPath id="c0_241"><path d="M681.6,233.8V105.4H810V233.8Z"/></clipPath>
<clipPath id="c1_241"><path d="M657.6,593.1V499.3H820.4v93.8Z"/></clipPath>
<clipPath id="c2_241"><path d="M-2.6,1047.7V-2.6H910.2V1047.7Z"/></clipPath>
<style type="text/css"><![CDATA[
.g0_241{
fill: none;
stroke: #3D3D3D;
stroke-width: 1.527;
stroke-linecap: butt;
stroke-linejoin: miter;
stroke-miterlimit: 4;
}
.g1_241{
fill: #FFFFFF;
}
.g2_241{
fill: none;
stroke: #000000;
stroke-width: 0.492;
stroke-linecap: butt;
stroke-linejoin: miter;
stroke-miterlimit: 4;
}
.g3_241{
fill: none;
stroke: #FFFFFF;
stroke-width: 1.909;
stroke-linecap: butt;
stroke-linejoin: miter;
}
.g4_241{
fill: none;
stroke: #000000;
stroke-width: 0.381;
stroke-linecap: butt;
stroke-linejoin: miter;
}
]]></style>
</defs>
<path d="M444,400.7c1.4,-6.8,-12,-6.1,-15.9,-6c-5.7,.2,-11.3,1.6,-16.7,3.5c-3.6,1.2,-7.4,2.6,-9.6,5.8c-.9,1.3,-1.3,3.1,-2.2,4.4c-1.1,1.7,-3.1,2.4,-5.1,2.8c-1.5,.3,-8.4,.9,-9.1,-1c1.6,-.2,4.6,-.5,5.8,-1.7c-2.5,1.2,-5.7,1.5,-8,3.3c.8,1.3,3.7,1,4.4,2.4" class="g0_241"/>
<g clip-path="url(#c0_241)">
<image clip-path="url(#c0_241)" preserveAspectRatio="none" x="682" y="105" width="128" height="129" xlink:href="img/1.jpg"/>
</g>
<path d="M569.3,709.4c-.2,-.3,-.5,-.6,-.7,-1c-7,-1.6,-14.2,-2.2,-21.5,-1.8c-7.1,.2,-14.9,.4,-20.9,4.8c-3.6,2.7,-6.3,6.5,-9.9,9.2c-2.3,2,-5,2.9,-8.1,2.5c-2.4,0,-4.8,0,-7.3,-.1c1.4,-1.5,4.1,-2.6,4.6,-4.6c-1.3,.5,-5.9,3,-5.8,4.6c.1,1.4,2.9,.8,3.2,2.2M568.2,616.3c.2,-.6,-1.2,-2.1,-1.4,-2.3c-1.8,-1.9,-4.4,-3.3,-6.6,-4.7c-3.2,-1.9,-6.6,-3.9,-10.2,-5c-2.9,-.9,-5.8,-1.2,-8.8,-1.2c-6.6,-.2,-14.1,.1,-20.4,2.5c-9.2,3.4,-16.2,13.7,-20.7,21.7c-4.7,8.4,-7.3,16.5,-8,25.9c-.3,-1.5,-1.2,-2.7,-2.2,-3.8c-.5,2.2,0,3.7,1.1,5.7c2.1,-.3,3.3,-1.9,4.2,-3.7M454.6,821.2c.6,-1.5,-.3,-3.6,-.8,-4.9c-.7,-1.8,-1.5,-3.6,-2.2,-5.5c-.4,-1.1,-.9,-2.3,-1.4,-3.3c-1.1,-2,-2.3,-3.9,-4.1,-5.3c-2.9,-2.5,-6.5,-3.6,-10.1,-4.7c-5.1,-1.7,-10.2,-3.4,-15.2,-5c-4.1,-1.3,-8.3,-2.6,-12.4,-3.6c-3.4,-.8,-7,-1.5,-10.4,-1.5c-1.2,.1,-2.5,.1,-3.7,.1c-1.2,-.1,-2.3,-.3,-3.5,-.3c-4.1,0,-8.2,0,-12.3,.4c.7,-.6,1.6,-1.1,2.2,-1.9c-1.3,.5,-3.1,1,-4,2.1c1.4,.8,2.6,1.6,3.8,2.8" class="g0_241"/>
<image clip-path="url(#c1_241)" preserveAspectRatio="none" x="657" y="499" width="164" height="94" xlink:href="img/2.jpg"/>
<path d="M663.4,505.1v73.1H805.6V505.1H663.4Z" class="g1_241"/>
<path d="M663.4,505.1v73.1H805.6V505.1H663.4Z" class="g2_241"/>
<path d="M663.2,533.6l142.3,.7M606.8,528.5c.2,-.9,1.3,-1.6,1.9,-2.3c1.9,-2,3.6,-4.2,5.7,-6.2c1.6,-1.7,3.5,-3,5.7,-4c1.8,-.5,3.6,-1,5.4,-1.4c2.7,-.6,5.2,-1.1,7.9,-1.2c2.3,0,4.3,.1,6.6,.7c2.4,.7,4.7,1.8,6.7,3.3c.5,.7,1,1.3,1.6,2c1,1.3,1.8,3.1,3,4.3c-.8,-.8,-1,-1.6,-1.1,-2.8c0,-.4,-.3,-2.7,-.6,-2.9c.3,1,.8,2.1,1.1,3.1c.3,1.1,1.2,3,1,4.2c-2.4,-.7,-4.7,-1.5,-7.1,-2.2" class="g0_241"/>
<g clip-path="url(#c2_241)">
<path d="M-4.5,13.7H-27.4m939.5,0H935M-4.5,1031.2H-27.4m939.5,0H935M13.7,-4.5V-27.4m0,1077v22.9m880,-1077V-27.4m0,1077v22.9" class="g3_241"/>
<path d="M-4.5,13.7H-27.4m939.5,0H935M-4.5,1031.2H-27.4m939.5,0H935M13.7,-4.5V-27.4m0,1077v22.9m880,-1077V-27.4m0,1077v22.9" class="g4_241"/>
</g>
</svg>