<?xml version="1.0" encoding="UTF-8" standalone="no"?>
<!DOCTYPE svg PUBLIC "-//W3C//DTD SVG 1.1//EN"
"http://www.w3.org/Graphics/SVG/1.1/DTD/svg11.dtd">
<svg viewBox="0 0 931 1096" version="1.1" xmlns="http://www.w3.org/2000/svg" xmlns:xlink="http://www.w3.org/1999/xlink">
<defs>
<clipPath id="c0_160"><path d="M482.7,269.3v-35H628.1v35Z"/></clipPath>
<clipPath id="c1_160"><path d="M418.3,498.5V463H692.4v35.5Z"/></clipPath>
<clipPath id="c2_160"><path d="M308.5,654.4V618.8H802.2v35.6Z"/></clipPath>
<clipPath id="c3_160"><path d="M482.7,868.3v-35H628.1v35Z"/></clipPath>
<style type="text/css"><![CDATA[
.g0_160{
fill: none;
stroke: #00AEEF;
stroke-width: 1.145;
}
.g1_160{
fill: none;
stroke: #241F1F;
stroke-width: 0.763;
stroke-miterlimit: 10;
}
.g2_160{
fill: none;
stroke: #0079C2;
stroke-width: 0.763;
}
.g3_160{
fill: none;
stroke: #241F1F;
stroke-width: 0.687;
stroke-miterlimit: 10;
}
]]></style>
</defs>
<path d="M306.1,163.6c0,0,-1.5,0,-1.5,1.5v14.1c0,0,0,1.6,1.5,1.6h14.2c0,0,1.5,0,1.5,-1.6V165.1c0,0,0,-1.5,-1.5,-1.5H306.1Z" class="g0_160"/>
<path clip-path="url(#c0_160)" d="M483.1,250.5h18.1m21.9,0h19m3.8,0h18.9m21.9,0h19m3.8,0h18.9" class="g1_160"/>
<path d="M290.7,149.6c0,0,-3.1,0,-3.1,3.1V278.1c0,0,0,3,3.1,3H820.1c0,0,3,0,3,-3V152.7c0,0,0,-3.1,-3,-3.1H290.7Z" class="g2_160"/>
<path d="M470.4,368.2h19m42.6,0h18.9M418.7,479.7h21.5m21.8,0h19m3.8,0h22.3m21.8,0h19m3.8,0h21.5m37.9,0h22.3" class="g1_160"/>
<path clip-path="url(#c1_160)" d="M671.3,479.7h21.5" class="g1_160"/>
<path d="M308.9,580.6h18.2m54.3,0h21.4m-53.8,55h18.9m35.4,0h22.3m21.8,0h19m35.3,0h21.5m115.9,0h22.3" class="g1_160"/>
<path clip-path="url(#c2_160)" d="M781.1,635.6h21.5" class="g1_160"/>
<path d="M349,692.1h18.9m3.8,0h19m21.9,0h18.9m3.8,0h19m43.7,0h19m43.8,0h18.9M348.3,748.6h18.9m3.9,0H390m21.9,0h18.9m3.9,0h18.9m29.5,100.9h18.1m21.9,0h19m3.8,0h18.9m21.9,0h19" class="g1_160"/>
<path clip-path="url(#c3_160)" d="M609.5,849.5h18.9" class="g1_160"/>
<path d="M391.1,1000.7h18.2m21.8,0h19m3.8,0h19m21.8,0h19m3.8,0h19" class="g1_160"/>
<path d="M136.2,866.6h17m36.1,0h17" class="g3_160"/>
<path d="M440.1,820.4c0,0,-3.1,0,-3.1,3.1v55c0,0,0,3,3.1,3H670.6c0,0,3.1,0,3.1,-3v-55c0,0,0,-3.1,-3.1,-3.1H440.1Z" class="g2_160"/>
</svg>