<?xml version="1.0" encoding="UTF-8" standalone="no"?>
<!DOCTYPE svg PUBLIC "-//W3C//DTD SVG 1.1//EN"
"http://www.w3.org/Graphics/SVG/1.1/DTD/svg11.dtd">
<svg viewBox="0 0 811 1017" version="1.1" xmlns="http://www.w3.org/2000/svg" xmlns:xlink="http://www.w3.org/1999/xlink">
<defs>
<style type="text/css"><![CDATA[
.g0_305{
fill: #70A6CC;
}
.g1_305{
fill: #FFFFFF;
}
.g2_305{
fill: #231F20;
}
.g3_305{
fill: #5A5758;
}
.g4_305{
fill: #EFEFEF;
}
.g5_305{
fill: #DFDFDF;
}
.g6_305{
fill: #EC2224;
}
.g7_305{
fill: #23ACDC;
}
.g8_305{
fill: #C9C9C8;
}
.g9_305{
fill: #ED3454;
}
.ga_305{
fill: #961E47;
}
.gb_305{
}
]]></style>
</defs>
<path d="M156.1,683H724.4V661.2H156.1Z" class="g0_305"/>
<path d="M154.9,313H698.7V84H154.9Z" class="g1_305"/>
<path d="M340.3,118.6V116c0,-1.7,-1.4,-3,-3,-3H289.9c-1.6,0,-3,1.3,-3,3v2.6h53.4Z" class="g2_305"/>
<path d="M299,118.6H286.9V116c0,-1.7,1.4,-3,3,-3h12.4l-3.3,5.6Z" class="g3_305"/>
<path d="M287.8,156.1h51.6V119.5H287.8Z" class="g1_305"/>
<path d="M338.6,120.3v35h-50v-35h50m1.7,-1.6H286.9V157h53.4Z" class="g4_305"/>
<path d="M337.8,121.2v33.3H289.4V121.2h48.4m.4,-.5H289v34.2h49.2Z" class="g5_305"/>
<path d="M292,115.8c0,.5,-.4,.9,-.8,.9c-.5,0,-.9,-.4,-.9,-.9c0,-.4,.4,-.8,.9,-.8c.4,0,.8,.4,.8,.8Z" class="g6_305"/>
<path d="M294.6,115.8c0,.5,-.4,.9,-.9,.9c-.4,0,-.8,-.4,-.8,-.9c0,-.4,.4,-.8,.8,-.8c.5,0,.9,.4,.9,.8Z" class="g7_305"/>
<path d="M297.1,115.8c0,.5,-.4,.9,-.8,.9c-.5,0,-.9,-.4,-.9,-.9c0,-.4,.4,-.8,.9,-.8c.4,0,.8,.4,.8,.8Z" class="g1_305"/>
<path d="M331.6,117.3H304.7c-.8,0,-1.5,-.6,-1.5,-1.5c0,-.8,.7,-1.5,1.5,-1.5h26.9c.8,0,1.5,.7,1.5,1.5c-.1,.8,-.7,1.5,-1.5,1.5Z" class="g1_305"/>
<path d="M305.8,115.1l.2,.8c0,.2,0,.4,.1,.5c0,-.1,.1,-.3,.1,-.5l.3,-.7h.2l.2,.7c.1,.2,.1,.4,.2,.5c0,-.1,.1,-.3,.1,-.5l.2,-.7h.3l-.5,1.5H307l-.3,-.7c0,-.2,-.1,-.4,-.1,-.5c0,.1,-.1,.3,-.1,.5l-.3,.7H306l-.5,-1.5h.3v-.1Z" class="g2_305"/>
<path d="M308.1,115.1l.2,.8c.1,.2,.1,.4,.2,.5c0,-.1,.1,-.3,.1,-.5l.3,-.7h.2l.2,.7c.1,.2,.1,.4,.2,.5c0,-.1,0,-.3,.1,-.5l.2,-.7h.3l-.5,1.5h-.3l-.2,-.8c0,-.1,-.1,-.3,-.1,-.5c-.1,.2,-.1,.4,-.2,.5l-.2,.8h-.3l-.4,-1.6h.2Z" class="g2_305"/>
<path d="M310.5,115.1l.2,.8c.1,.2,.1,.4,.2,.5c0,-.1,.1,-.3,.1,-.5l.3,-.7h.2l.2,.7c.1,.2,.1,.4,.2,.5c0,-.1,0,-.3,.1,-.5l.2,-.7h.3l-.5,1.5h-.3l-.2,-.7c0,-.2,-.1,-.4,-.1,-.5c-.1,.1,-.1,.3,-.2,.5l-.2,.7h-.3l-.4,-1.5h.2v-.1Z" class="g2_305"/>
<path d="M312.6,116.5l.2,-.2l.2,.2l-.2,.2l-.2,-.2Z" class="g2_305"/>
<path d="M335,116.1h2.4v-.4H335Z" class="g1_305"/>
<path d="M336.4,117.1l-.3,-.3l.9,-.9l-.9,-1l.3,-.3l1.2,1.3l-1.2,1.2Z" class="g1_305"/>
<path d="M331.7,115.3l-.8,1.1l-.8,-1.1h1.6Z" class="g8_305"/>
<path d="M315.8,147.8h2.9V140h-2.9Z" class="g9_305"/>
<path d="M320.6,147.8h2.9v-4.6h-2.9Z" class="g7_305"/>
<path d="M311.1,147.8h2.8V135.6h-2.8Z" class="g7_305"/>
<path d="M306.3,147.8h2.9v-20h-2.9Z" class="g9_305"/>
<path d="M301.5,147.8h2.9v-16h-2.9Z" class="g7_305"/>
<path d="M296.7,147.8h2.9v-9.5h-2.9Z" class="g9_305"/>
<path d="M323.5,139.3l2,-1.9l4.4,4.3l1.8,-1.8l-4.3,-4.4l1.8,-1.9l-6.9,-1.2l1.2,6.9Z" class="g7_305"/>
<path d="M185.7,139c-5.4,-1.9,-7.2,-1,-7.2,-4.5c0,-.2,0,-.5,0,-.8h.3c3.7,.3,7.3,.5,8.1,0c1.3,-.9,-3.1,-2.3,-3.1,-13.8c0,-5.8,-3.9,-9.9,-9.7,-9.9h-.2q-.1,0,-.1,0h-.3c-5.8,0,-9.6,4.1,-9.6,9.9c0,11.5,-4.4,12.9,-3.1,13.8c.8,.5,4.3,.3,8,0h.3c0,.3,0,.6,0,.8c0,3.5,-1.7,2.6,-7.1,4.5c-5.5,2,-7,4,-7,5.4c0,1.3,0,8.9,0,8.9h37.7c0,0,0,-7.6,0,-8.9c0,-1.4,-1.6,-3.4,-7,-5.4Z" class="g2_305"/>
<path d="M445.7,121.1h27.8v-5.3c0,-1.8,.9,-3.3,2.2,-4.2v-.5c0,-.6,0,-1.3,.2,-1.9H445.7c-3.3,0,-6,2.6,-6,5.9c0,3.3,2.7,6,6,6Zm11,-7.5c.8,0,1.5,.7,1.5,1.5c0,.9,-.7,1.5,-1.5,1.5c-.8,0,-1.5,-.6,-1.5,-1.5c0,-.8,.7,-1.5,1.5,-1.5Zm-4.6,0c.8,0,1.5,.7,1.5,1.5c0,.9,-.7,1.5,-1.5,1.5c-.8,0,-1.5,-.6,-1.5,-1.5c0,-.8,.7,-1.5,1.5,-1.5ZM446,112.2c1.6,0,2.9,1.3,2.9,2.9c0,1.6,-1.3,2.9,-2.9,2.9c-1.6,0,-2.9,-1.3,-2.9,-2.9c0,-1.6,1.3,-2.9,2.9,-2.9Z" class="g2_305"/>
<path d="M457.4,148.3c0,-.7,.1,-1.3,.3,-1.9H443.6c-1.1,0,-2,.8,-2,1.9c0,1.1,.9,2,2,2h14.1c-.2,-.7,-.3,-1.3,-.3,-2Z" class="g2_305"/>
<path d="M487.8,148.3c0,-1.1,-.8,-1.9,-1.9,-1.9H471.6c.2,.6,.3,1.2,.3,1.9c0,.7,-.1,1.3,-.3,2h14.3c1.1,0,1.9,-.9,1.9,-2Z" class="g2_305"/>
<path d="M478.6,128.8h15.3c1.2,0,2,-.9,2,-2v-11c0,-1.1,-.8,-2,-2,-2v-2.6c0,-4.2,-3.4,-7.6,-7.6,-7.6c-4.1,0,-7.5,3.4,-7.5,7.6v2.6h-.2c-1.1,0,-2,.9,-2,2v11c0,1.1,.9,2,2,2Zm8.9,-7c-.2,.1,-.2,.2,-.2,.4c0,.8,0,1.6,0,2.4c0,.3,-.2,.6,-.5,.8c-.7,.4,-1.4,-.1,-1.4,-.8c0,-.8,0,-1.6,0,-2.4c0,-.2,0,-.3,-.2,-.4c-.7,-.5,-1,-1.5,-.6,-2.3c.4,-.8,1.2,-1.2,2,-1.1c1,.2,1.6,1,1.6,1.9c0,.6,-.2,1.1,-.7,1.5Zm-5.4,-10.6c0,-2.4,1.9,-4.3,4.2,-4.3c2.4,0,4.3,1.9,4.3,4.3v2.6h-8.5v-2.6Z" class="g2_305"/>
<path d="M445.7,136.8h17v7.5c-1.5,.7,-2.5,2.2,-2.5,4c0,2.5,2,4.5,4.5,4.5c2.4,0,4.5,-2,4.5,-4.5c0,-1.8,-1.1,-3.3,-2.6,-4v-7.5h18.2c2.9,0,5.3,-2.1,5.8,-4.9h-12c-2.8,0,-5.1,-2.3,-5.1,-5.1v-1.9H445.7c-3.3,0,-6,2.7,-6,6c0,3.2,2.7,5.9,6,5.9Zm11,-7.4c.8,0,1.5,.6,1.5,1.5c0,.8,-.7,1.5,-1.5,1.5c-.8,0,-1.5,-.7,-1.5,-1.5c0,-.9,.7,-1.5,1.5,-1.5Zm-4.6,0c.8,0,1.5,.6,1.5,1.5c0,.8,-.7,1.5,-1.5,1.5c-.8,0,-1.5,-.7,-1.5,-1.5c0,-.9,.7,-1.5,1.5,-1.5ZM446,127.9c1.6,0,2.9,1.3,2.9,3c0,1.6,-1.3,2.9,-2.9,2.9c-1.6,0,-2.9,-1.3,-2.9,-2.9c0,-1.7,1.3,-3,2.9,-3Z" class="g2_305"/>
<path d="M515.9,155.7c-.3,-.1,-.6,-.1,-.7,0c-2.9,2.2,-7.8,3.5,-13.3,3.5c-5.5,0,-10.5,-1.3,-13.4,-3.5c-.2,-.1,-.5,-.1,-.7,0c-.3,.1,-.4,.4,-.4,.6v2.2c0,3.6,6.4,6.5,14.5,6.5c8.1,0,14.5,-2.9,14.5,-6.5v-2.2c0,-.3,-.2,-.6,-.5,-.6Z" class="g2_305"/>
<path d="M515.9,141.1c-.3,-.2,-.6,-.2,-.7,0c-2.9,2.1,-7.8,3.4,-13.3,3.4c-5.5,0,-10.5,-1.3,-13.4,-3.4c-.2,-.2,-.5,-.2,-.7,0c-.3,.1,-.4,.4,-.4,.6v2.1c0,3.6,6.4,6.5,14.5,6.5c8.1,0,14.5,-2.9,14.5,-6.5v-2.1c0,-.2,-.2,-.5,-.5,-.6Z" class="g2_305"/>
<path d="M501.9,143.2c8.1,0,14.5,-2.9,14.5,-6.5c0,-3.6,-6.4,-6.5,-14.5,-6.5c-8.1,0,-14.5,2.9,-14.5,6.5c0,3.6,6.4,6.5,14.5,6.5Z" class="g2_305"/>
<path d="M515.9,148.3c-.3,-.1,-.6,-.1,-.7,0c-2.9,2.2,-7.8,3.5,-13.3,3.5c-5.5,0,-10.5,-1.3,-13.4,-3.5c-.2,-.1,-.5,-.1,-.7,0c-.3,.2,-.4,.5,-.4,.6v2.2c0,3.6,6.4,6.5,14.5,6.5c8.1,0,14.5,-2.9,14.5,-6.5v-2.2c0,-.1,-.2,-.4,-.5,-.6Z" class="g2_305"/>
<path d="M615,119.5h27.9v-5.3c0,-1.7,.8,-3.3,2.1,-4.2v-.5c0,-.6,.1,-1.3,.2,-1.9H615c-3.3,0,-5.9,2.6,-5.9,5.9c0,3.3,2.6,6,5.9,6ZM626,112c.9,0,1.5,.7,1.5,1.5c0,.9,-.6,1.5,-1.5,1.5c-.8,0,-1.5,-.6,-1.5,-1.5c0,-.8,.7,-1.5,1.5,-1.5Zm-4.6,0c.9,0,1.5,.7,1.5,1.5c0,.9,-.6,1.5,-1.5,1.5c-.8,0,-1.5,-.6,-1.5,-1.5c0,-.8,.7,-1.5,1.5,-1.5Zm-6.1,-1.4c1.6,0,2.9,1.3,2.9,2.9c0,1.6,-1.3,2.9,-2.9,2.9c-1.6,0,-2.9,-1.3,-2.9,-2.9c0,-1.6,1.3,-2.9,2.9,-2.9Z" class="ga_305"/>
<path d="M626.8,146.7c0,-.6,.1,-1.3,.3,-1.9H612.9c-1.1,0,-1.9,.8,-1.9,1.9c0,1.1,.8,2,1.9,2h14.2c-.2,-.7,-.3,-1.3,-.3,-2Z" class="ga_305"/>
<path d="M657.2,146.7c0,-1.1,-.9,-1.9,-2,-1.9H640.9c.2,.6,.3,1.3,.3,1.9c0,.7,-.1,1.3,-.3,2h14.3c1.1,0,2,-.9,2,-2Z" class="ga_305"/>
<path d="M648,127.2h15.3c1.1,0,2,-.9,2,-2v-11c0,-1.1,-.9,-2,-2,-2h-.1v-2.6c0,-4.2,-3.4,-7.6,-7.5,-7.6c-4.2,0,-7.6,3.4,-7.6,7.6v2.6H648c-1.1,0,-2,.9,-2,2v11c0,1.1,.8,2,2,2Zm8.8,-7c-.2,.1,-.2,.2,-.2,.4c0,.8,0,1.6,0,2.4c0,.3,-.1,.7,-.4,.8c-.8,.4,-1.5,-.1,-1.5,-.8c0,-.8,0,-1.6,0,-2.4c0,-.2,0,-.3,-.1,-.4c-.8,-.5,-1,-1.5,-.6,-2.3c.3,-.8,1.2,-1.2,2,-1.1c.9,.2,1.5,1,1.5,1.9c.1,.6,-.2,1.1,-.7,1.5Zm-5.4,-10.6c0,-2.4,1.9,-4.3,4.3,-4.3c2.3,0,4.2,1.9,4.2,4.3v2.6h-8.5v-2.6Z" class="ga_305"/>
<path d="M615,135.2h17.1v7.5c-1.6,.7,-2.6,2.2,-2.6,4c0,2.5,2,4.5,4.5,4.5c2.5,0,4.5,-2,4.5,-4.5c0,-1.8,-1,-3.3,-2.5,-4v-7.5h18.1c2.9,0,5.4,-2.1,5.9,-4.9H648c-2.9,0,-5.1,-2.3,-5.1,-5.1v-1.9H615c-3.3,0,-5.9,2.7,-5.9,6c0,3.2,2.6,5.9,5.9,5.9Zm11,-7.4c.9,0,1.5,.6,1.5,1.5c0,.8,-.6,1.5,-1.5,1.5c-.8,0,-1.5,-.7,-1.5,-1.5c0,-.9,.7,-1.5,1.5,-1.5Zm-4.6,0c.9,0,1.5,.6,1.5,1.5c0,.8,-.6,1.5,-1.5,1.5c-.8,0,-1.5,-.7,-1.5,-1.5c0,-.9,.7,-1.5,1.5,-1.5Zm-6.1,-1.4c1.6,0,2.9,1.3,2.9,2.9c0,1.6,-1.3,2.9,-2.9,2.9c-1.6,0,-2.9,-1.3,-2.9,-2.9c0,-1.6,1.3,-2.9,2.9,-2.9Z" class="ga_305"/>
<path d="M685.3,154.1c-.3,-.1,-.6,-.1,-.8,0c-2.8,2.2,-7.8,3.5,-13.3,3.5c-5.5,0,-10.4,-1.3,-13.3,-3.5c-.3,-.1,-.6,-.1,-.7,0c-.3,.2,-.5,.4,-.5,.6v2.2c0,3.6,6.4,6.5,14.5,6.5c8.1,0,14.5,-2.9,14.5,-6.5v-2.2c0,-.3,-.1,-.6,-.4,-.6Z" class="ga_305"/>
<path d="M685.3,139.5c-.3,-.2,-.6,-.2,-.8,0c-2.8,2.1,-7.8,3.5,-13.3,3.5c-5.5,0,-10.4,-1.4,-13.3,-3.5c-.3,-.2,-.6,-.2,-.7,0c-.3,.1,-.5,.4,-.5,.6v2.1c0,3.7,6.4,6.5,14.5,6.5c8.1,0,14.5,-2.8,14.5,-6.5v-2.1c0,-.2,-.1,-.5,-.4,-.6Z" class="ga_305"/>
<path d="M671.2,141.7c8.1,0,14.5,-2.9,14.5,-6.6c0,-3.6,-6.4,-6.5,-14.5,-6.5c-8.1,0,-14.5,2.9,-14.5,6.5c0,3.7,6.4,6.6,14.5,6.6Z" class="ga_305"/>
<path d="M685.3,146.7c-.3,-.1,-.6,-.1,-.8,0c-2.8,2.2,-7.8,3.5,-13.3,3.5c-5.5,0,-10.4,-1.3,-13.3,-3.5c-.3,-.1,-.6,-.1,-.7,0c-.3,.2,-.5,.5,-.5,.6v2.2c0,3.6,6.4,6.5,14.5,6.5c8.1,0,14.5,-2.9,14.5,-6.5v-2.2c0,-.1,-.1,-.4,-.4,-.6Z" class="ga_305"/>
<path d="M174.7,172.7l-.3,139.6h.7l.4,-139.6Z" class="g2_305"/>
<path d="M318.3,172l-.4,141.1h.8L319.1,172Z" class="g2_305"/>
<path d="M475.7,175.1l-.4,137.7h.8l.3,-137.7Z" class="g2_305"/>
<path d="M656.4,174.4l-.3,138.7h.7l.4,-138.7Z" class="g2_305"/>
<path d="M475.8,276.1l-150.4,-.7v.7l150.4,.7Z" class="g2_305"/>
<path d="M326.9,273.6l-8.2,2.1l8.2,2.3v-4.4Z" class="g2_305"/>
<path d="M174.8,210.9l136.1,.7v-.8l-136.1,-.7Z" class="g2_305"/>
<path d="M309.4,213.4l8.3,-2.2L309.4,209v4.4Z" class="g2_305"/>
<path d="M318.7,229l149.6,.7V229l-149.6,-.7Z" class="g2_305"/>
<path d="M466.8,231.6l8.3,-2.2l-8.3,-2.3v4.5Z" class="g2_305"/>
<path d="M475.7,255.1l172,-1v-.7l-172,.9Z" class="g2_305"/>
<path d="M646.2,256l8.3,-2.3l-8.3,-2.2V256Z" class="g2_305"/>
<path d="M497.7,762.7v3.2l-.2,-.1l-6.3,-2.9l-.3,-.2l.3,-.2l6.3,-2.9l.2,-.1v.4l-6.3,3l-.2,-.4h.2l6.3,2.9l-.2,.4l-.1,-.2v-2.9Z" class="gb_305"/>
<path d="M497.4,762.7h.3v-3h-.3Z" class="gb_305"/>
<path d="M497.7,762.9h18.8v-.4H497.7Z" class="gb_305"/>
<path d="M516.1,762.7h.4v-38h-.4Z" class="gb_305"/>
<path d="M474.6,824.2v3.2l-.2,-.1L468,824.4l-.3,-.2l.3,-.2l6.4,-2.9l.2,-.1v.4l-6.4,3L468,824h.2l6.4,2.9l-.2,.4l-.1,-.2v-2.9Z" class="gb_305"/>
<path d="M474.3,824.2h.3v-3h-.3Z" class="gb_305"/>
<path d="M493.9,862h.4V824h-.4Z" class="gb_305"/>
<path d="M474.6,824.4h19.5V824H474.6Z" class="gb_305"/>
</svg>