<?xml version="1.0" encoding="UTF-8" standalone="no"?>
<!DOCTYPE svg PUBLIC "-//W3C//DTD SVG 1.1//EN"
"http://www.w3.org/Graphics/SVG/1.1/DTD/svg11.dtd">
<svg viewBox="0 0 907 1045" version="1.1" xmlns="http://www.w3.org/2000/svg" xmlns:xlink="http://www.w3.org/1999/xlink">
<defs>
<clipPath id="c0_425"><path d="M89.9,432.9V156.4h196V432.9Z"/></clipPath>
<clipPath id="c1_425"><path d="M-2.6,1047.7V-2.6H910.2V1047.7Z"/></clipPath>
<style type="text/css"><![CDATA[
.g0_425{
fill: #FFFFFF;
}
.g1_425{
fill: none;
stroke: #000000;
stroke-width: 1.527;
stroke-linecap: butt;
stroke-linejoin: miter;
stroke-miterlimit: 4;
}
.g2_425{
fill: none;
stroke: #636363;
stroke-width: 1.527;
stroke-linecap: butt;
stroke-linejoin: miter;
stroke-miterlimit: 4;
}
.g3_425{
fill: none;
stroke: #FFFFFF;
stroke-width: 1.909;
stroke-linecap: butt;
stroke-linejoin: miter;
}
.g4_425{
fill: none;
stroke: #000000;
stroke-width: 0.381;
stroke-linecap: butt;
stroke-linejoin: miter;
}
]]></style>
</defs>
<image clip-path="url(#c0_425)" preserveAspectRatio="none" x="90" y="156" width="196" height="277" xlink:href="img/1.jpg"/>
<path d="M326,153.1c-2.5,.7,-4.8,1.9,-7,2.6c-2.4,.7,-3.9,.5,-6.3,2.2c-1.8,1.3,-2.2,2.4,-4.6,2.9c-.8,3.2,-.3,5.5,1.8,8.1c1.4,1.6,6,5.9,8.6,6c-3.1,4.2,-7,8.2,-4,13.3c1.3,2.1,5.3,7,8.2,8.2c2.7,1.1,7,0,10,.4c.4,1.9,-.5,4.1,.3,5.9c1.2,3,5.4,6.4,8.1,8.7c6.2,5.1,21.9,14,30.5,8.2c3.3,5.8,11.5,11,19.7,13.2c5.5,1.6,16.7,2.6,22.3,1.1c3.5,-1,6.7,-5.1,10.2,-5.6c1.7,-.2,7.4,2.5,9.1,2.8c7.9,1.1,17.8,1.1,25.5,-.2c11.4,-1.7,17,-8.3,20.4,-15.8c2.5,3.9,16.6,.7,20.3,-.7c7.3,-2.8,14.9,-7,17.8,-13c2.1,-4.3,-4.1,-8.7,-2.5,-12.2c.8,-1.6,3.1,-2.5,4.3,-4c6.7,-7.8,3.9,-15.4,-2.1,-22.6C510.3,154.9,502,149.8,490,147.2c-3.1,-.7,-5.9,-1.1,-9.1,-1c-1.8,.1,-2.6,.8,-4.4,.6c9,-8.6,-22.7,-16.1,-28.3,-16.8c-14.2,-1.8,-30.8,.1,-44.1,3.7c-6.3,1.7,-12.5,4.3,-18.5,6c1.1,-9.1,-22.3,-6.2,-28.5,-4.9c-7.4,1.7,-16.7,5,-21.2,9.7c-2.7,2.9,-7.5,5.7,-9.9,8.8Z" class="g0_425"/>
<path d="M326,153.1c-2.5,.7,-4.8,1.9,-7,2.6c-2.4,.7,-3.9,.5,-6.3,2.2c-1.8,1.3,-2.2,2.4,-4.6,2.9c-.8,3.2,-.3,5.5,1.8,8.1c1.4,1.6,6,5.9,8.6,6c-3.1,4.2,-7,8.2,-4,13.3c1.3,2.1,5.3,7,8.2,8.2c2.7,1.1,7,0,10,.4c.4,1.9,-.5,4.1,.3,5.9c1.2,3,5.4,6.4,8.1,8.7c6.2,5.1,21.9,14,30.5,8.2c3.3,5.8,11.5,11,19.7,13.2c5.5,1.6,16.7,2.6,22.3,1.1c3.5,-1,6.7,-5.1,10.2,-5.6c1.7,-.2,7.4,2.5,9.1,2.8c7.9,1.1,17.8,1.1,25.5,-.2c11.4,-1.7,17,-8.3,20.4,-15.8c2.5,3.9,16.6,.7,20.3,-.7c7.3,-2.8,14.9,-7,17.8,-13c2.1,-4.3,-4.1,-8.7,-2.5,-12.2c.8,-1.6,3.1,-2.5,4.3,-4c6.7,-7.8,3.9,-15.4,-2.1,-22.6C510.3,154.9,502,149.8,490,147.2c-3.1,-.7,-5.9,-1.1,-9.1,-1c-1.8,.1,-2.6,.8,-4.4,.6c9,-8.6,-22.7,-16.1,-28.3,-16.8c-14.2,-1.8,-30.8,.1,-44.1,3.7c-6.3,1.7,-12.5,4.3,-18.5,6c1.1,-9.1,-22.3,-6.2,-28.5,-4.9c-7.4,1.7,-16.7,5,-21.2,9.7c-2.7,2.9,-7.5,5.7,-9.9,8.8m-33.4,6.5c-5.6,-.8,-11.2,7.1,-4.5,8.5c5.3,1.2,6.3,-5.8,5.6,-9.5c-2.8,-1,-5.2,.6,-7.1,2.2M275,165c-.5,-.1,-.9,-.4,-1.4,-.5c-.2,0,-.4,-.1,-.7,-.2c-.4,0,-.7,.2,-1,.4c-1.3,.6,-2.8,1.4,-2.9,3.1c0,1,.4,1.8,1.2,2.3c1.1,.8,2.1,.9,3.3,.7c.5,-.1,.9,-.2,1.4,-.4c.2,-.1,.4,-.1,.7,-.1c.3,-.1,.6,-.5,.9,-.7c.6,-.4,.8,-1.2,.9,-1.9c.2,-1.4,-1.2,-2.7,-2.4,-3.1" class="g1_425"/>
<path d="M111.7,460.5c-1,.8,-1.5,.5,-1.9,-.6c-.7,-1.9,-.6,-3.9,.1,-5.7c1.2,-3.3,2.8,-7,6.1,-8.5c1.5,-.7,2.8,-1.5,4.1,-2.3c-1.1,.1,-2.1,-.8,-3.1,-1.3c.9,.1,1.8,0,2.7,.1c.3,1.2,-.7,2.8,.1,3.8m74.4,2.8c2.2,-.7,2.9,-3.5,3.8,-5.4c.8,-1.9,1.4,-3.7,1.9,-5.7c.4,-1.7,1.2,-3.4,1.3,-5.1c.1,-1.9,.1,-4.1,-1.5,-5.3c-.6,.9,-.7,1.5,-.8,2.5c0,1,.3,2.2,-.2,3.1c-1,-1.1,-.2,-2.8,-.6,-4.1c-.3,-1.3,0,-1.8,.2,-2.9c1.1,0,2.7,1.4,3.5,2.1c.5,.4,1.9,1.4,1.8,2.1m41.3,27.8c3.7,-.3,7.1,-5,8.8,-7.9c.8,-1.4,1.6,-2.9,1.8,-4.5c.1,-1.4,-.2,-2.7,0,-4.1c.3,-1.1,.7,-2.4,.4,-3.6c-.1,-.9,-.5,-1.8,-.7,-2.7c-.5,-1.6,-1.2,-3,-2.3,-4.2c.2,.8,-.5,1.2,-.7,1.9c-.2,.5,.1,1.1,-.5,1.6c.5,-.4,.5,-1.7,.5,-2.4c0,-1.1,.3,-2.2,.5,-3.3c.7,2.2,2.5,2.5,4.2,3.3" class="g2_425"/>
<g clip-path="url(#c1_425)">
<path d="M-4.5,13.7H-27.4m939.5,0H935M-4.5,1031.2H-27.4m939.5,0H935M13.7,-4.5V-27.4m0,1077v22.9m880,-1077V-27.4m0,1077v22.9" class="g3_425"/>
<path d="M-4.5,13.7H-27.4m939.5,0H935M-4.5,1031.2H-27.4m939.5,0H935M13.7,-4.5V-27.4m0,1077v22.9m880,-1077V-27.4m0,1077v22.9" class="g4_425"/>
</g>
</svg>