<?xml version="1.0" encoding="UTF-8" standalone="no"?>
<!DOCTYPE svg PUBLIC "-//W3C//DTD SVG 1.1//EN"
"http://www.w3.org/Graphics/SVG/1.1/DTD/svg11.dtd">
<svg viewBox="0 0 907 1045" version="1.1" xmlns="http://www.w3.org/2000/svg" xmlns:xlink="http://www.w3.org/1999/xlink">
<defs>
<clipPath id="c0_326"><path d="M589.1,319.1V175.3h84.4V319.1Z"/></clipPath>
<clipPath id="c1_326"><path d="M241.6,321.7V171.3h63.6V321.7Z"/></clipPath>
<clipPath id="c2_326"><path d="M-2.6,1047.7V-2.6H910.2V1047.7Z"/></clipPath>
<style type="text/css"><![CDATA[
.g0_326{
fill: none;
stroke: #636363;
stroke-width: 1.527;
stroke-linecap: butt;
stroke-linejoin: miter;
stroke-miterlimit: 4;
}
.g1_326{
fill: none;
stroke: #FFFFFF;
stroke-width: 1.909;
stroke-linecap: butt;
stroke-linejoin: miter;
}
.g2_326{
fill: none;
stroke: #000000;
stroke-width: 0.381;
stroke-linecap: butt;
stroke-linejoin: miter;
}
]]></style>
</defs>
<path d="M131.2,403.4H758.5" class="g0_326"/>
<image clip-path="url(#c0_326)" preserveAspectRatio="none" x="589" y="175" width="85" height="144" xlink:href="img/1.jpg"/>
<image clip-path="url(#c1_326)" preserveAspectRatio="none" x="242" y="171" width="63" height="151" xlink:href="img/2.jpg"/>
<g clip-path="url(#c2_326)">
<path d="M-4.5,13.7H-27.4m939.5,0H935M-4.5,1031.2H-27.4m939.5,0H935M13.7,-4.5V-27.4m0,1077v22.9m880,-1077V-27.4m0,1077v22.9" class="g1_326"/>
<path d="M-4.5,13.7H-27.4m939.5,0H935M-4.5,1031.2H-27.4m939.5,0H935M13.7,-4.5V-27.4m0,1077v22.9m880,-1077V-27.4m0,1077v22.9" class="g2_326"/>
</g>
</svg>