<?xml version="1.0" encoding="UTF-8" standalone="no"?>
<!DOCTYPE svg PUBLIC "-//W3C//DTD SVG 1.1//EN"
"http://www.w3.org/Graphics/SVG/1.1/DTD/svg11.dtd">
<svg viewBox="0 0 931 1096" version="1.1" xmlns="http://www.w3.org/2000/svg" xmlns:xlink="http://www.w3.org/1999/xlink">
<defs>
<clipPath id="c0_186"><path d="M518.8,162.8V126.6h73.1v36.2Z"/></clipPath>
<clipPath id="c1_186"><path d="M500.5,648.6V611.8h59.8v36.8Z"/></clipPath>
<clipPath id="c2_186"><path d="M506.6,943.4V926.3h97.6v17.1Z"/></clipPath>
<clipPath id="c3_186"><path d="M510.4,1010.7V993.5h89.9v17.2Z"/></clipPath>
<clipPath id="c4_186"><path d="M78.1,998.7c-2.8,0,-5.1,-2.3,-5.1,-5.1V863.2c0,-2.8,2.3,-5.1,5.1,-5.1H208.5c2.8,0,5.1,2.3,5.1,5.1V993.6c0,2.8,-2.3,5.1,-5.1,5.1Z"/></clipPath>
<style type="text/css"><![CDATA[
.g0_186{
fill: none;
stroke: #241F1F;
stroke-width: 0.763;
stroke-miterlimit: 10;
}
.g1_186{
fill: none;
stroke: #241F1F;
stroke-width: 0.534;
stroke-miterlimit: 10;
}
.g2_186{
fill: none;
stroke: #00AEEF;
stroke-width: 1.145;
}
.g3_186{
fill: none;
stroke: #EE008C;
stroke-width: 0.916;
stroke-miterlimit: 3;
}
.g4_186{
fill: none;
stroke: #00AEEF;
stroke-width: 0.916;
stroke-miterlimit: 3;
}
.g5_186{
fill: none;
stroke: #00AEEF;
stroke-width: 0.534;
stroke-miterlimit: 3;
}
.g6_186{
fill: none;
stroke: #241F1F;
stroke-width: 0.534;
stroke-miterlimit: 3;
}
]]></style>
</defs>
<path clip-path="url(#c0_186)" d="M519.2,144h20.5m21.9,0h30.6" class="g0_186"/>
<path d="M443.5,414.4h19.7m104.4,0h19.7m-169.1,58h19.7m82.5,0h21.2m-16.6,55h19.7M500.9,629.8h20.4" class="g0_186"/>
<path clip-path="url(#c1_186)" d="M543.2,629.8h17.5" class="g0_186"/>
<path d="M518.1,817.6h5.4m37.4,0h5.4" class="g1_186"/>
<path clip-path="url(#c2_186)" d="M547.3,926.6h57.2" class="g0_186"/>
<path clip-path="url(#c3_186)" d="M551.2,993.9h49.5" class="g0_186"/>
<path d="M307.7,137.3c0,0,-1.6,0,-1.6,1.5v14.1c0,0,0,1.5,1.6,1.5h14.1c0,0,1.5,0,1.5,-1.5V138.8c0,0,0,-1.5,-1.5,-1.5H307.7Z" class="g2_186"/>
<g clip-path="url(#c4_186)">
<path d="M72.9,990.6l2.8,-3.5l3,-4l3.1,-4.3l3,-4.6l2.8,-4.8l2.7,-5.8l1.6,-3.8l.7,-2l.8,-2.3l.7,-2.5l.8,-3.3l.7,-4.5l.3,-3.5l.7,-27l.6,-3.6l.7,-4.3l.8,-3l.7,-2.3l1.3,-3.2l1.5,-2.3l3,-4.1l2.8,-2.7l3,-2.3l2.8,-1.3l3.3,-1.5l2.8,-.7l3,-.8l2.5,-.5l3.1,-.3l3,-.2l3,-.3h17.4l3,-.2l2.8,-.3l3.3,-.2l2.8,-.5l2.8,-.8l3,-.5l3,-1l2.8,-1l3,-1.3l2.8,-1.5l3,-1.5l3.1,-1.5l2.7,-1.8l3.1,-2l2.7,-1.8l3.1,-2.2l2.8,-2.3l3,-2.3l1,-.7" class="g3_186"/>
<path d="M72.9,998.5l2.8,-2.8l3,-3l3.1,-3.1l3,-2.8l2.8,-3L90.3,981l3.1,-3l3,-3l3,-3l2.8,-2.8l3,-3.1l2.8,-2.7l3,-3.1l2.8,-2.7l3.3,-3.3l2.8,-2.8l3,-3l2.5,-2.5l3.1,-3.1l3,-3l3,-3l2.8,-2.8l3,-3l3,-2.8l2.8,-3l2.8,-2.8l3,-3l3,-3.1l2.8,-2.7l3.3,-3.3l2.8,-2.8l2.8,-2.8l3,-3l3,-3l2.8,-2.8l3,-3l2.8,-2.8l3,-3.1l3.1,-3l2.7,-2.8l3.1,-3l2.7,-2.8l3.1,-3l2.8,-2.8l3,-3l2.8,-2.8l3.2,-3.3l2.8,-2.7M85.5,998.5l2.1,-1.6l2.7,-1.7l3.1,-1.8l3,-1.8l3,-1.5l2.8,-1.2l3,-1.3l2.8,-1.3l3,-1l2.8,-.7l3.3,-.8l2.8,-.5l3,-.5l2.5,-.5l3.1,-.2h3l3,-.3h17.4l3,-.3h2.8L161,981l2.8,-.2l2.8,-.5l3,-.8l3,-.7l2.8,-1.3l3,-1.3l2.8,-1.7l3,-2.3l3.1,-3l2.7,-3.8l1.6,-2.8l1.5,-3.3l.7,-2l.5,-2l.8,-2.8l.7,-3.8l.3,-2.7l.5,-4.6l.8,-29.8l.5,-3.2l.2,-2.8l.8,-3.8l.7,-3l.8,-2.6l1.3,-4l3,-6.8l2.8,-5.3l3.2,-5.3l2.8,-4.3M80.7,998.5l1.1,-.8l3,-2.3l2.8,-2.2l2.7,-2.1l3.1,-2l3,-2l3,-1.8l2.8,-1.5l3,-1.5l2.8,-1.5l3,-1.3l2.8,-1l3.3,-1l2.8,-.5l3,-.8l2.5,-.5l3.1,-.2l3,-.3h3l2.8,-.2h14.6l3,-.3l2.8,-.2l3.3,-.3l2.8,-.5l2.8,-.7l3,-1l3,-1.1l2.8,-1.7l3,-2l2.8,-2.8l1.5,-1.8l1.5,-2l1.5,-2.8l1.6,-3.5l.5,-2.3l.7,-2.8l.5,-2l.3,-2.3l1.2,-30.2l.3,-3.6l.8,-4.8l.7,-3.2l.8,-2.6l1.2,-4l1.5,-3.3l3.1,-6.3l2.8,-4.8l3,-4.5l2.8,-4.1l3.2,-4.3l2.8,-3.5M76.7,998.5l2,-2.1l3.1,-2.5l3,-2.5l2.8,-2.5l2.7,-2.3l3.1,-2.5l3,-2.3l3,-2.3l2.8,-2l3,-2l2.8,-1.8l3,-1.7l2.8,-1.3l3.3,-1.5l2.8,-1l3,-.8l2.5,-.7l3.1,-.6l3,-.5l3,-.2h14.4l3,-.3l3,-.2l2.8,-.3l3.3,-.7l2.8,-.8l2.8,-1.2l3,-1.6l3,-2.5l2.8,-3.3l1.5,-2.7l.8,-1.5l.7,-2.1l.8,-2.5l.2,-1.8l.3,-2l.5,-3.5l.2,-17.4l.8,-7.8l.3,-2.3l.5,-1.5l.7,-2.8l1.5,-4.6l1.5,-3.2l1.6,-2.8l2.7,-5.1l3.1,-4.5l2.7,-3.8l3.1,-4l2.8,-3.6l3,-3.3l2.8,-3.5l3.2,-3.5l2.8,-3M72.9,994.7l2.8,-3.1l3,-3.5l3.1,-3.5l3,-3.3l2.8,-3.5L90.3,974l3.1,-4.3l3,-4.3l3,-5.3l1.3,-2.8l1.5,-3l.8,-2l.7,-2.3l.8,-2.8l.2,-1.5l.5,-2l.3,-2.8l.5,-4.5l.2,-17.9l.5,-3.8l.6,-3.8l.7,-2.8l1.5,-3.8l1.5,-2.5l2.8,-3.3l3.3,-2.5l2.8,-1.5l3,-1.3l2.5,-.7l3.1,-.8l3,-.3l3,-.2l2.8,-.3h14.6l3,-.2l2.8,-.5l3.3,-.5l2.8,-.8l2.8,-.7l3,-1.1l3,-1.5l2.8,-1.2l3,-1.8l2.8,-1.8l3,-2l3.1,-2l2.7,-2.3l3.1,-2.2l2.7,-2.3l3.1,-2.5l2.8,-2.6l3,-2.5l2.8,-2.5l2.2,-2M72.9,985.8l2.8,-4.3l3,-5l3.1,-5.6l1.5,-3.2l1.5,-3.6L86,959.8l.8,-2.5l.8,-2.8l.7,-3.7l.3,-2.3l.5,-3l.7,-27.6l.3,-5.8l.2,-3.2l.8,-4.3l.8,-3.3l1.5,-4.6l1.5,-3.2l1.5,-2.6l3,-4l2.8,-2.8l3,-2.3l2.8,-1.7l3,-1.5l2.8,-1l3.3,-.8l2.8,-.8l3,-.5l2.5,-.2l3.1,-.5h3l3,-.3h17.4l3,-.2h2.8L161,874l2.8,-.5l2.8,-.5l3,-.5l3,-.8l2.8,-.7l3,-1l2.8,-1.3l3,-1.2l3.1,-1.3l2.7,-1.5l3.1,-1.8l2.7,-1.8l3.1,-1.7l2,-1.5" class="g4_186"/>
</g>
<path d="M78.1,858.1H208.5c2.8,0,5.1,2.3,5.1,5.1V993.6c0,2.8,-2.3,5.1,-5.1,5.1H78.1c-2.8,0,-5.1,-2.3,-5.1,-5.1V863.2c0,-2.8,2.3,-5.1,5.1,-5.1Z" class="g5_186"/>
<path d="M73,928.4H213.6M96.5,929.9v-3m23.4,3v-3m46.9,3v-3.1m23.5,3.1v-3.1m-48.5,48.5h3.1m-3.1,-23.5h3m-2.9,-46.9h3m-3,-23.4h3m-1.6,117.2V858.1" class="g6_186"/>
<path d="M308.6,287.9c0,0,-1.5,0,-1.5,1.5v14.2c0,0,0,1.5,1.5,1.5h14.1c0,0,1.5,0,1.5,-1.5V289.4c0,0,0,-1.5,-1.5,-1.5H308.6Z" class="g2_186"/>
</svg>