<?xml version="1.0" encoding="UTF-8" standalone="no"?>
<!DOCTYPE svg PUBLIC "-//W3C//DTD SVG 1.1//EN"
"http://www.w3.org/Graphics/SVG/1.1/DTD/svg11.dtd">
<svg viewBox="0 0 931 1096" version="1.1" xmlns="http://www.w3.org/2000/svg" xmlns:xlink="http://www.w3.org/1999/xlink">
<defs>
<clipPath id="c0_231"><path d="M603.9,131.2V115.4H731.3v15.8Z"/></clipPath>
<clipPath id="c1_231"><path d="M579.4,567.8V446.7H702V567.8Z"/></clipPath>
<clipPath id="c2_231"><path d="M745.6,442.4V413.6h65.2v28.8Z"/></clipPath>
<clipPath id="c3_231"><path d="M556.2,965.8V931.5H691.8v34.3Z"/></clipPath>
<clipPath id="c4_231"><path d="M125.9,866.2V849.5H277.8v16.7Z"/></clipPath>
<clipPath id="c5_231"><path d="M287.4,927.9V912.1h136v15.8Z"/></clipPath>
<clipPath id="c6_231"><path d="M133,1012.1V996.2h75.9v15.9Z"/></clipPath>
<style type="text/css"><![CDATA[
.g0_231{
fill: none;
stroke: #241F1F;
stroke-width: 0.687;
stroke-miterlimit: 10;
}
.g1_231{
fill: none;
stroke: #241F1F;
stroke-width: 0.806;
stroke-miterlimit: 3;
}
.g2_231{
fill: none;
stroke: #241F1F;
stroke-width: 0.564;
stroke-linecap: round;
stroke-linejoin: round;
}
.g3_231{
fill: none;
stroke: #241F1F;
stroke-width: 1.048;
stroke-linecap: round;
stroke-linejoin: round;
}
.g4_231{
fill: none;
stroke: #241F1F;
stroke-width: 0.89;
stroke-miterlimit: 3;
}
.g5_231{
fill: none;
stroke: #241F1F;
stroke-width: 0.993;
stroke-linecap: round;
stroke-linejoin: round;
}
.g6_231{
fill: none;
stroke: #241F1F;
stroke-width: 0.534;
stroke-linecap: round;
stroke-linejoin: round;
}
.g7_231{
fill: #241F1F;
}
.g8_231{
fill: none;
stroke: #241F1F;
stroke-width: 0.534;
stroke-linejoin: round;
}
.g9_231{
fill: none;
stroke: #241F1F;
stroke-width: 0.993;
stroke-linejoin: round;
}
.ga_231{
fill: none;
stroke: #241F1F;
stroke-width: 0.893;
stroke-miterlimit: 3;
}
.gb_231{
fill: none;
stroke: #241F1F;
stroke-width: 0.536;
stroke-linecap: round;
stroke-linejoin: round;
}
.gc_231{
fill: none;
stroke: #241F1F;
stroke-width: 0.996;
stroke-linecap: round;
stroke-linejoin: round;
}
.gd_231{
fill: none;
stroke: #241F1F;
stroke-width: 0.481;
stroke-miterlimit: 10;
}
.ge_231{
fill: none;
stroke: #241F1F;
stroke-width: 0.533;
stroke-linecap: round;
stroke-linejoin: round;
}
.gf_231{
fill: none;
stroke: #241F1F;
stroke-width: 0.38;
stroke-linecap: round;
stroke-linejoin: round;
}
.gg_231{
fill: none;
stroke: #B5B5B6;
stroke-width: 0.988;
stroke-linecap: round;
stroke-linejoin: round;
}
.gh_231{
fill: none;
stroke: #241F1F;
stroke-width: 0.988;
stroke-linecap: round;
stroke-linejoin: round;
}
.gi_231{
fill: none;
stroke: #241F1F;
stroke-width: 0.305;
stroke-linecap: round;
stroke-linejoin: round;
}
.gj_231{
fill: none;
stroke: #B5B5B6;
stroke-width: 0.838;
stroke-linecap: round;
stroke-linejoin: round;
}
.gk_231{
fill: none;
stroke: #241F1F;
stroke-width: 0.838;
stroke-linecap: round;
stroke-linejoin: round;
}
.gl_231{
fill: none;
stroke: #241F1F;
stroke-width: 0.997;
stroke-linecap: round;
stroke-linejoin: round;
}
.gm_231{
fill: none;
stroke: #241F1F;
stroke-width: 0.537;
stroke-linecap: round;
stroke-linejoin: round;
}
.gn_231{
fill: none;
stroke: #241F1F;
stroke-width: 0.383;
stroke-linecap: round;
stroke-linejoin: round;
}
]]></style>
</defs>
<path clip-path="url(#c0_231)" d="M625.8,115.7H651m55.5,0h25.2" class="g0_231"/>
<path d="M548.4,150.7H676.1c3.2,0,5.8,2.6,5.8,5.8v79.9c0,3.2,-2.6,5.8,-5.8,5.8H548.4c-3.2,0,-5.8,-2.6,-5.8,-5.8V156.5c0,-3.2,2.6,-5.8,5.8,-5.8Z" class="g1_231"/>
<path d="M612.2,150.7v91.5" class="g2_231"/>
<path d="M545.6,151.4l1.2,.6l1.5,1.3l1.5,1.6l1.4,1.7L554,161l3,4.7l2.8,5.4l3,6.1l2.8,6l3.2,6.4l2.6,5.6l3,6.2l3,5.6l3,5.7l2.5,4.5l3.2,5l2.8,4.1l3,3.8l2.8,2.9l3,2.9l2.8,2.3l3,1.9l2.8,1l3,.8l3,.2l2.5,-.2l3,-.6l3,-1.2l3,-1.9l2.8,-2.1l3,-3.1l3,-3.1l2.8,-3.6l2.8,-4.1l3,-4.8l2.7,-4.7l3,-5.7l3,-5.4l3,-6.2l2.8,-6l3,-6.2l3,-6.3l2.6,-5.3l3.2,-5.9l2.8,-4.7l2.8,-4.2l2.8,-3.3l1.7,-1.3l1.2,-.8" class="g3_231"/>
<path d="M683.6,274.1H786.3c3.6,0,6.4,2.9,6.4,6.5V383.2c0,3.6,-2.8,6.4,-6.4,6.4H683.6c-3.5,0,-6.4,-2.8,-6.4,-6.4V280.6c0,-3.6,2.9,-6.5,6.4,-6.5Z" class="g4_231"/>
<path d="M735.4,280.7c-13.8,0,-36.3,18,-36.3,37.1c0,17.7,22.5,35.6,36.3,35.6c13.8,0,36.3,-17.9,36.3,-35.6c0,-19.1,-22.5,-37.1,-36.3,-37.1Z" class="g5_231"/>
<path d="M735.3,389.9V274.4" class="g6_231"/>
<path fill-rule="evenodd" d="M640.5,433.3l-2.1,1.4l2.1,-5.6l2.1,5.6Z" class="g7_231"/>
<path d="M640.5,580.1V433.3" class="g6_231"/>
<path fill-rule="evenodd" d="M713.9,508.2l-1.4,-2.1l5.6,2.1l-5.6,2.1Z" class="g7_231"/>
<path d="M567.2,508.2H713.9m-134.5,2.7v-5.3m122.3,5.3v-5.3m-58.5,63.8h-5.3m5.3,-122.3h-5.3" class="g6_231"/>
<path clip-path="url(#c1_231)" d="M701.2,451.6l1,-9m-11.2,9l1,-9m-1.6,29l2.2,-8.8m8,8.8l2.2,-8.8m-22,-11.2l1,-9m-1.6,29l2.2,-8.8m-1.8,-1.2l1.4,-8.9m8.8,8.9l1.4,-8.9m8.8,8.9l1.4,-8.9m-3.9,37.8l6.4,-6.4m-16.6,6.4l6.5,-6.4m2.4,14.4l9,-2.2m-28.1,-5.8l6.5,-6.4m-7.7,14.4l8.9,-2.2m1.3,2.2l8.9,-2.2M660.4,451.6l1,-9m-1.6,29l2.2,-8.8M650.2,451.6l1,-9m-11.2,9l1.1,-9m8.5,29l2.2,-8.8M650,461.6l1.5,-8.9m8.7,8.9l1.4,-8.9m-3.9,37.8l6.5,-6.4m-7.7,14.4l8.9,-2.2m-17.9,-5.8l6.5,-6.4m-7.7,14.4l8.9,-2.2m-6.3,-14.9l3.7,-8.3m6.5,8.3l3.7,-8.3m3.9,25.4l8.9,-2.2m-7.7,-5.8l6.5,-6.4m-5.1,-2.7l3.7,-8.3m-3,-1.5l2.2,-8.8m-1.8,-1.2l1.5,-8.9m-1.3,-1.1l1,-9m7.8,38.8l3.8,-8.3m6.5,8.3l3.7,-8.3m6.4,8.3l3.8,-8.3m-6.4,45.5l9,-2.2m-7.7,14.3l6.4,-6.4m-16.6,6.4l6.5,-6.4m-17.9,-5.7l8.9,-2.2m-7.7,14.3l6.5,-6.4m2.5,-5.7l8.9,-2.2M690.4,552l2.2,-8.7m8,8.7l2.2,-8.7m-1.6,29l1,-9m-11.2,9l1,-9M680.2,552l2.2,-8.7m-1.6,29l1,-9m-1.2,-1.1l1.4,-9m8.8,9l1.4,-9m8.8,9l1.4,-9M656.5,518.6l8.9,-2.2m-7.7,14.3l6.5,-6.4m-17.9,-5.7l8.9,-2.2m-7.7,14.3l6.5,-6.4m5.8,27.7l2.2,-8.7m-1.6,29l1,-9M649.6,552l2.2,-8.7m-1.6,29l1,-9m-11.2,9l1.1,-9m8.9,-1.1l1.5,-9m8.7,9l1.4,-9M648.9,541.7l3.7,-8.2m6.5,8.2l3.7,-8.2m7.8,38.8l1,-9m-1.2,-1.1l1.5,-9M670,552l2.2,-8.7m-2.9,-1.6l3.7,-8.2m-5.1,-2.8l6.5,-6.4m-7.7,-5.7l8.9,-2.2m3.8,25.3l3.8,-8.2m6.5,8.2l3.7,-8.2m6.4,8.2l3.8,-8.2M629.8,451.6l1.1,-9m-1.7,29l2.3,-8.8M619.7,451.6l1,-9m-11.2,9l1,-9m-1.7,29l2.3,-8.8m7.9,8.8l2.3,-8.8m-12.1,-1.2l1.5,-8.9m8.7,8.9l1.5,-8.9m8.7,8.9l1.5,-8.9m-4,37.8l6.5,-6.4m-7.7,14.4l8.9,-2.2m-17.9,-5.8l6.5,-6.4m-7.7,14.4l8.9,-2.2M599.3,451.6l1,-9m-1.6,29l2.2,-8.8M589.1,451.6l1,-9m-11.2,9l1,-9m-1.6,29l2.2,-8.8m8,8.8l2.2,-8.8m-12,-1.2l1.4,-8.9m8.8,8.9l1.4,-8.9m8.7,8.9l1.5,-8.9m-4,37.8l6.5,-6.4m-7.7,14.4l8.9,-2.2m-28.1,-5.8l6.5,-6.4m-7.7,14.4l8.9,-2.2m1.3,2.2l8.9,-2.2m-7.7,-5.8l6.5,-6.4m-15.3,-2.7l3.7,-8.3m6.5,8.3l3.7,-8.3m6.5,8.3l3.7,-8.3m3.9,25.4l8.9,-2.2m-7.7,-5.8l6.5,-6.4m-5.1,-2.7l3.7,-8.3m6.5,8.3l3.7,-8.3m6.5,8.3l3.7,-8.3m-6.3,45.5l8.9,-2.2m-7.7,14.3l6.5,-6.4m-16.7,6.4l6.5,-6.4m-7.7,-5.7l8.9,-2.2m4.6,35.6l2.3,-8.7m-1.7,29l1.1,-9M608.8,552l2.3,-8.7M619,552l2.3,-8.7m-1.6,29l1,-9m-11.2,9l1,-9m-1.3,-1.1l1.5,-9m8.7,9l1.5,-9m8.7,9l1.5,-9M595.3,518.6l8.9,-2.2m-7.7,14.3l6.5,-6.4m-28.1,-5.7l8.9,-2.2m-7.7,14.3l6.5,-6.4m3.7,6.4l6.5,-6.4m-7.7,-5.7l8.9,-2.2m4.7,35.6l2.2,-8.7m-1.6,29l1,-9M578.3,552l2.2,-8.7m8,8.7l2.2,-8.7m-1.6,29l1,-9m-11.2,9l1,-9m-1.2,-1.1l1.4,-9m8.8,9l1.4,-9m8.7,9l1.5,-9m-23,-11.5l3.7,-8.2m6.5,8.2l3.7,-8.2m6.5,8.2l3.7,-8.2m6.5,8.2l3.7,-8.2m-5.1,-2.8l6.5,-6.4m-7.7,-5.7l8.9,-2.2m3.9,25.3l3.7,-8.2m6.5,8.2l3.7,-8.2M574.8,507.4H584m1,0h9.2m1,0h9.2m1,0h9.1m1.1,0h9.1m1.1,0h9.1m4.9,54.8l1.5,-9M639.4,552l2.3,-8.7m-3,-1.6l3.7,-8.2m-5.1,-2.8l6.5,-6.4m-7.7,-5.7l8.9,-2.2m-9,-9h9.1m-9,-8.9l8.9,-2.2m-7.7,-5.8l6.5,-6.4m-5.1,-2.7l3.7,-8.3m-3,-1.5l2.3,-8.8m-1.9,-1.2l1.5,-8.9m4.9,54.7h9.1m1,0h9.2m1,0h9.2m1,0h9.2m1,0h9.2m1,0h9.2" class="g8_231"/>
<path d="M627.2,567.8l.6,-6.7l2.5,-13.5l2.6,-8l2.5,-5.4l2.6,-3.8l2.5,-2.9l2.6,-2.2l2.5,-1.8l2.6,-1.4l2.5,-1.3l2.6,-1l2.5,-.9l2.6,-.8l2.5,-.6l2.6,-.6l2.5,-.5l2.6,-.5l2.5,-.4l2.6,-.4l2.5,-.4l2.6,-.3l2.5,-.3l2.6,-.2l2.5,-.3l2.6,-.2l2.5,-.2l2.6,-.2l2.5,-.2l2.6,-.2l2.5,-.2m-122.3,-5H701.7m-122.3,-5l2.5,-.2l2.6,-.1l2.5,-.2l2.6,-.2l2.5,-.2l2.6,-.3l2.5,-.2l2.6,-.3l2.5,-.3l2.6,-.3l2.5,-.3l2.6,-.4l2.5,-.4l2.6,-.5l2.5,-.6l2.6,-.5l2.5,-.7l2.6,-.8l2.5,-.9l2.5,-1l2.6,-1.2l2.5,-1.5l2.6,-1.8l2.5,-2.2l2.6,-2.9l2.5,-3.8l2.6,-5.4l2.5,-8l2.6,-13.4l.6,-6.7m-74.5,53.6l2.5,-.3l2.6,-.3l2.5,-.3l2.6,-.4l2.5,-.4l2.6,-.5l2.5,-.6l2.6,-.5l2.5,-.7l2.6,-.8l2.5,-.9l2.6,-1l2.5,-1.2l2.6,-1.5l2.5,-1.8l2.6,-2.2l2.5,-2.9l2.6,-3.8l2.5,-5.4l2.5,-8l2.6,-13.4l.6,-6.7m14,120.7l.7,-6.7l2.5,-13.5l2.6,-8l2.5,-5.4l2.6,-3.8l2.5,-2.9l2.6,-2.2l2.5,-1.8l2.6,-1.4l2.5,-1.3l2.6,-1l2.5,-.9l2.6,-.8l2.5,-.6l2.6,-.6l2.5,-.5l2.6,-.5l2.5,-.4l2.6,-.4l2.5,-.4l2.6,-.3l2.5,-.3" class="g9_231"/>
<path clip-path="url(#c2_231)" d="M772.1,428.1h39.1" class="g0_231"/>
<path d="M714.2,600h103c3.5,0,6.4,2.9,6.4,6.4v103c0,3.6,-2.9,6.4,-6.4,6.4h-103c-3.5,0,-6.4,-2.8,-6.4,-6.4v-103c0,-3.5,2.9,-6.4,6.4,-6.4Z" class="ga_231"/>
<path d="M765.7,715.8V600m57.9,57.9H707.8" class="gb_231"/>
<path d="M806.7,716c-7.8,-22.3,-22.1,-58.1,-41,-58.1c-18.9,0,-33.2,35.8,-41,58.1m69.7,0c-5.5,-22.3,-15.5,-58.1,-28.7,-58.1c-13.2,0,-23.2,35.8,-28.7,58.1m48.8,0c-3.9,-22.3,-10.9,-58.1,-20.1,-58.1c-9.3,0,-16.3,35.8,-20.1,58.1M716.1,657.9c0,-19.8,22.2,-35.8,49.6,-35.8c27.4,0,49.6,16,49.6,35.8c0,19.8,-22.2,35.9,-49.6,35.9c-27.4,0,-49.6,-16.1,-49.6,-35.9Zm8.2,0c0,-16,18.6,-28.9,41.4,-28.9c22.8,0,41.4,12.9,41.4,28.9c0,16,-18.6,29,-41.4,29c-22.8,0,-41.4,-13,-41.4,-29Zm12.4,0c0,-11.4,13,-20.7,29,-20.7c16,0,29,9.3,29,20.7c0,11.4,-13,20.7,-29,20.7c-16,0,-29,-9.3,-29,-20.7Zm70,-58c-7.8,22.2,-22.1,58,-41,58c-18.9,0,-33.2,-35.8,-41,-58m69.7,0c-5.5,22.2,-15.5,58,-28.7,58c-13.2,0,-23.2,-35.8,-28.7,-58m48.8,0c-3.9,22.2,-10.9,58,-20.1,58c-9.3,0,-16.3,-35.8,-20.1,-58" class="gc_231"/>
<path d="M711.2,759.4H814.3c3.5,0,6.4,2.9,6.4,6.4V868.9c0,3.5,-2.9,6.4,-6.4,6.4H711.2c-3.5,0,-6.4,-2.9,-6.4,-6.4V765.8c0,-3.5,2.9,-6.4,6.4,-6.4Z" class="ga_231"/>
<path d="M704.8,817.1H820.7m-58.4,58.2V759.4" class="gb_231"/>
<path d="M772,759.6c3,17,7.6,29,13.2,34.6c5.7,5.7,18,10.6,35.4,13.7m-56,-48.3c1.1,24.8,3.4,40,9.6,46.2c6.2,6.2,21.5,8.5,46.4,9.3M767,759.6c2,22.8,5.8,35.4,11.9,41.5c6.1,6.1,18.7,10,41.7,11.7m-.9,59.5C794.7,846.8,778.6,829.5,778.6,817c0,-12.4,15.8,-29.5,40.6,-54.8m1.4,108.1C798.2,845.9,785,829.3,785,817c0,-12.3,13.1,-28.8,35.4,-53m.2,103.8C800.4,844.5,790.2,829.1,790.2,817c0,-12.1,10.2,-27.5,30.4,-50.8m-115,105.7c24.8,-25.3,40.7,-42.5,40.7,-54.9c0,-12.4,-15.7,-29.4,-40.4,-54.5m-.9,107c22,-24,34.9,-40.3,34.9,-52.5c0,-12.2,-12.9,-28.6,-35,-52.6m.1,102.5C724.8,844.1,734.7,829,734.7,817c0,-12,-10,-27.2,-29.8,-50m112.3,-6.7C792,785,774.9,800.9,762.5,800.9c-12.4,0,-29.5,-15.8,-54.6,-40.4m107.1,-1c-24,22.1,-40.4,34.9,-52.5,34.9c-12.3,0,-28.6,-12.8,-52.6,-34.9m102.5,0c-22.8,19.8,-38,29.8,-49.9,29.8c-12,0,-27.2,-10,-50,-29.8M817.8,874.3C792.2,849.2,774.9,833.1,762.5,833.1c-12.5,0,-29.6,15.9,-54.9,40.7m108.2,1.4c-24.4,-22.5,-41,-35.6,-53.3,-35.6c-12.3,0,-28.8,13,-53.1,35.4m103.8,.2C790,854.9,774.6,844.7,762.5,844.7c-12.2,0,-27.6,10.2,-50.8,30.5M752.9,759.6c-3,17,-7.6,29,-13.2,34.6c-5.6,5.6,-17.8,10.5,-35,13.6m55.6,-48.2c-1.1,24.8,-3.4,40,-9.6,46.2c-6.2,6.2,-21.3,8.4,-46,9.3m53.2,-55.5c-2,22.8,-5.8,35.4,-11.9,41.5c-6.1,6.1,-18.5,9.9,-41.3,11.7m67.2,62.4c2.9,-17.4,7.6,-29.7,13.3,-35.4c5.7,-5.7,18,-10.6,35.4,-13.7m-56,49.1c1.1,-25.3,3.4,-40.7,9.6,-47c6.2,-6.2,21.5,-8.5,46.4,-9.3m-53.7,56.3c2,-23.3,5.8,-36.1,12,-42.3c6.1,-6.1,18.7,-9.9,41.7,-11.7m-67.6,54c-3,-17.4,-7.6,-29.7,-13.3,-35.4c-5.6,-5.6,-17.8,-10.5,-35,-13.6m55.6,49c-1.1,-25.3,-3.4,-40.7,-9.6,-47c-6.2,-6.1,-21.3,-8.4,-46,-9.3M758,875.2c-2,-23.3,-5.8,-36.1,-12,-42.3c-6.1,-6.1,-18.5,-9.9,-41.3,-11.7" class="gc_231"/>
<path d="M706.1,903.1h5.5" class="gd_231"/>
<path clip-path="url(#c3_231)" d="M609.2,946h83" class="g0_231"/>
<path d="M670.9,948.8h8.2M556.3,993.3h55.9m-36.9,2.1h34.8m60.5,-3.6h37.5M670.6,969.9h38.7m66.4,23.4h37.5M775.7,970.7h38.7" class="g0_231"/>
<path d="M143,251.4l-.2,-4.3m8.5,4.3l-.2,-4.3m8.3,4.3l-.2,-4.3m8.5,4.3l-.2,-4.3m8.3,4.3v-4.3m8.3,4.3l-.2,-4.3m8.5,4.3l-.2,-4.3m8.3,4.3l-.2,-4.3m8.5,4.3l-.2,-4.3m8.5,4.3l-.2,-4.3m8.3,4.3l-.3,-4.3m8.6,4.3l-.3,-4.3m8.3,4.3v-4.3m8.4,4.3l-.3,-4.3m8.5,4.3l-.2,-4.3m8.3,4.3l-.2,-4.3m8.5,4.3l-.2,-4.3M143,243.2l-.2,-3.9m8.5,3.9l-.2,-3.9m8.3,3.9l-.2,-3.9m8.5,3.9l-.2,-3.9m8.5,3.9l-.4,-3.9m8.5,3.9l-.2,-3.9m8.5,3.9l-.2,-3.9m8.5,3.9l-.4,-3.9m8.5,3.9l-.2,-3.9m8.5,3.9l-.5,-3.9m8.6,3.9l-.3,-3.9m8.6,3.9l-.3,-3.9m8.6,3.9l-.5,-3.9m8.6,3.9l-.3,-3.9m8.5,3.9l-.2,-3.9m8.3,3.9l-.2,-3.9m8.5,3.9l-.2,-3.9M143.3,235l-.7,-3.9m8.7,3.9l-.4,-3.9m8.8,3.9l-.5,-3.9m8.7,3.9l-.6,-3.9M176,235l-.4,-3.9m8.7,3.9l-.6,-3.9m8.7,3.9l-.4,-3.9m8.7,3.9l-.4,-3.9M209,235l-.7,-3.9m8.8,3.9l-.5,-3.9m8.8,3.9l-.5,-3.9m8.8,3.9l-.7,-3.9m8.8,3.9l-.5,-3.9m8.8,3.9l-.7,-3.9m8.7,3.9l-.4,-3.9m8.7,3.9l-.4,-3.9m8.8,3.9l-.7,-3.9M143.7,226.8l-1.6,-3.9m9.7,3.9l-1.4,-3.9m9.7,3.9l-1.3,-3.9m9.6,3.9l-1.6,-3.9m9.7,3.9l-1.4,-3.9m9.7,3.9l-1.6,-3.9m9.9,3.9l-1.6,-3.9m9.7,3.9l-1.4,-3.9m9.7,3.9l-1.6,-3.9m9.6,3.9l-1.3,-3.9m9.6,3.9l-1.5,-3.9m9.8,3.9l-1.5,-3.9m9.6,3.9l-1.3,-3.9m9.6,3.9L249,222.9m9.6,3.9l-1.4,-3.9m9.7,3.9l-1.3,-3.9m9.6,3.9l-1.6,-3.9M140.8,216.7h4.3m4,0h4m4.3,0h4m4.1,0h4.3m4,0h4m4.1,0h4.2m4.1,0h4m4.3,0h4m4.4,0h3.6m4.4,0h4m4.2,0h4.1m4,0h4.3m4,0h4.1m4,0h4.3m4,0H260m4.2,0h4m4.1,0h4.2m-135,-6.3l2.9,-3.9m5.2,3.9l3.1,-3.9m5.2,3.9l3.1,-3.9m4.9,3.9l3.2,-3.9m5.1,3.9l3.2,-3.9m5.1,3.9l3.2,-3.9m4.9,3.9l3.2,-3.9m5.1,3.9l3.1,-3.9m5.2,3.9l2.9,-3.9m5.2,3.9l3.1,-3.9m5.2,3.9l3.1,-3.9m5,3.9l3.1,-3.9m5.2,3.9l3.1,-3.9m5.2,3.9l3.1,-3.9m5,3.9l3.1,-3.9m5.2,3.9l3.1,-3.9m5.2,3.9l2.9,-3.9M141.5,202.6l2.9,-4.3m5.4,4.3l2.7,-4.3m5.6,4.3l2.7,-4.3m5.4,4.3l2.6,-4.3m5.7,4.3l2.6,-4.3m5.7,4.3l2.7,-4.3m5.3,4.3l2.7,-4.3m5.6,4.3l2.7,-4.3m5.4,4.3l2.9,-4.3m5.4,4.3l2.7,-4.3m5.6,4.3l2.7,-4.3m5.4,4.3l2.7,-4.3m5.6,4.3l2.7,-4.3m5.6,4.3l2.7,-4.3m5.4,4.3l2.7,-4.3m5.6,4.3l2.7,-4.3m5.4,4.3l2.9,-4.3M140.8,194l4.3,-3.6m4,3.6l4,-3.6m4.3,3.6l4,-3.6m4.1,3.6l4.3,-3.6m4,3.6l4,-3.6m4.1,3.6l4.2,-3.6m4.1,3.6l4,-3.6m4.3,3.6l4,-3.6m4,3.6l4.3,-3.6m4.1,3.6l4,-3.6m4.2,3.6l4.1,-3.6m4,3.6l4.3,-3.6m4,3.6l4.1,-3.6m4,3.6l4.3,-3.6m4,3.6l4.1,-3.6m4.2,3.6l4,-3.6m4.1,3.6l4.2,-3.6M140.8,184.2h4.3m4,0h4m4.3,0h4m4.1,0h4.3m4,0h4m4.1,0h4.2m4.1,0h4m4.3,0h4m4,0h4.3m4.1,0h4m4.2,0h4.1m4,0h4.3m4,0h4.1m4,0h4.3m4,0H260m4.2,0h4m4.1,0h4.2M140.8,174l4.3,3.6m4,-3.6l4,3.6m4.3,-3.6l4,3.6m4.1,-3.6l4.3,3.6m4,-3.6l4,3.6m4.1,-3.6l4.2,3.6m4.1,-3.6l4,3.6m4.3,-3.6l4,3.6m4,-3.6l4.3,3.6m4.1,-3.6l4,3.6m4.2,-3.6l4.1,3.6m4,-3.6l4.3,3.6m4,-3.6l4.1,3.6m4,-3.6l4.3,3.6m4,-3.6l4.1,3.6m4.2,-3.6l4,3.6m4.1,-3.6l4.2,3.6M144.4,169.8l-2.9,-3.9m11,3.9l-2.7,-3.9m11,3.9l-2.7,-3.9m10.7,3.9l-2.6,-3.9m10.9,3.9l-2.6,-3.9m11,3.9l-2.7,-3.9m10.7,3.9l-2.7,-3.9m11,3.9l-2.7,-3.9m11,3.9l-2.9,-3.9m11,3.9l-2.7,-3.9m11,3.9l-2.7,-3.9m10.8,3.9l-2.7,-3.9m11,3.9l-2.7,-3.9m11,3.9l-2.7,-3.9m10.8,3.9l-2.7,-3.9m11,3.9l-2.7,-3.9m11,3.9L273,165.9M144.4,161.6l-2.9,-3.9m11.2,3.9l-3.1,-3.9m11.4,3.9l-3.1,-3.9m11.2,3.9l-3.2,-3.9m11.5,3.9l-3.2,-3.9m11.5,3.9l-3.2,-3.9m11.3,3.9l-3.2,-3.9m11.4,3.9l-3.1,-3.9m11.2,3.9l-2.9,-3.9m11.2,3.9l-3.1,-3.9m11.4,3.9l-3.1,-3.9m11.2,3.9l-3.1,-3.9m11.4,3.9L240,157.7m11.4,3.9l-3.1,-3.9m11.2,3.9l-3.1,-3.9m11.4,3.9l-3.1,-3.9m11.2,3.9L273,157.7M140.8,151.4h4.3m4,0h4m4.3,0h4m4.1,0h4.3m4,0h4m4.1,0h4.2m4.1,0h4m4.3,0h4m4,0h4.3m4.1,0h4m4.2,0h4.1m4,0h4.3m4,0h4.1m4,0h4.3m4,0H260m4.2,0h4m4.1,0h4.2M142.1,145.2l1.6,-3.9m6.7,3.9l1.4,-3.9m7,3.9l1.3,-3.9m6.7,3.9l1.6,-3.9m6.7,3.9l1.4,-3.9m6.7,3.9l1.6,-3.9m6.7,3.9l1.6,-3.9m6.7,3.9l1.4,-3.9m6.7,3.9l1.6,-3.9m6.7,3.9l1.3,-3.9m6.8,3.9l1.5,-3.9m6.8,3.9l1.5,-3.9m6.8,3.9l1.3,-3.9m6.8,3.9l1.5,-3.9m6.7,3.9l1.4,-3.9m7,3.9l1.3,-3.9m6.7,3.9l1.6,-3.9M142.6,137l.7,-3.9m7.6,3.9l.4,-3.9m7.9,3.9l.5,-3.9m7.6,3.9l.6,-3.9m7.7,3.9l.4,-3.9m7.7,3.9l.6,-3.9M192,137l.4,-3.9m7.9,3.9l.4,-3.9m7.6,3.9l.7,-3.9m7.6,3.9l.5,-3.9m7.8,3.9l.5,-3.9M233,137l.7,-3.9m7.6,3.9l.5,-3.9m7.6,3.9l.7,-3.9m7.6,3.9l.4,-3.9M266,137l.4,-3.9m7.7,3.9l.7,-3.9m-132,-4l.2,-4.2m8.1,4.2l.2,-4.2m7.9,4.2l.2,-4.2m8.1,4.2l.2,-4.2m7.9,4.2l.4,-4.2m7.9,4.2l.2,-4.2m8.1,4.2l.2,-4.2m7.9,4.2l.4,-4.2m7.9,4.2l.2,-4.2m7.8,4.2l.5,-4.2m7.8,4.2l.3,-4.2m8,4.2l.3,-4.2m7.8,4.2l.5,-4.2m7.8,4.2l.3,-4.2m8,4.2l.2,-4.2m7.9,4.2l.2,-4.2m8.1,4.2l.2,-4.2M142.8,121l.2,-4.3m8.1,4.3l.2,-4.3m7.9,4.3l.2,-4.3m8.1,4.3l.2,-4.3m8.1,4.3v-4.3m8.1,4.3l.2,-4.3m8.1,4.3l.2,-4.3m7.9,4.3l.2,-4.3m8.1,4.3l.2,-4.3m8.1,4.3l.2,-4.3m7.8,4.3l.3,-4.3m8,4.3l.3,-4.3m8,4.3v-4.3m8.1,4.3l.3,-4.3m8,4.3l.2,-4.3M266,121l.2,-4.3m8.1,4.3l.2,-4.3m-98.7,69.4v-4.2" class="ge_231"/>
<path d="M135.6,184h147" class="gf_231"/>
<path fill-rule="evenodd" d="M282.6,184l-1.4,-2.1l5.6,2.1l-5.6,2.1Z" class="g7_231"/>
<path d="M206.6,233.2h4.2" class="ge_231"/>
<path d="M208.7,259.1V110" class="gf_231"/>
<path fill-rule="evenodd" d="M208.7,110l-2.1,1.4l2.1,-5.5l2.1,5.5Z" class="g7_231"/>
<path d="M208.7,259.1V110m-73.1,74h147m-76.4,32.8h5m-4.6,-16.4h4.2m-4.2,-32.8h4.2m-4.2,-16.5h4.2m-4.2,-16.4h4.2m30.8,51.4v-4.2m32.8,4.2v-4.2M143,186.1v-4.2m63.6,-63.6h4.2m-4.2,131.3h4.2" class="ge_231"/>
<path d="M275,183.7H251.6c-22.6,0,-27.3,3.1,-32.5,5.7c-8.9,4.4,-14.7,21,-21.9,24.6c-2.7,1.3,-5.5,2.6,-18.5,2.6H142.9" class="gg_231"/>
<path d="M210.5,257.9c-1.1,-21,-1.5,-35.7,-8.7,-39.3c-3.4,-1.7,-10.1,-2,-23.1,-2H142.9" class="gh_231"/>
<path d="M210.5,109.4c-1.1,21,-1.5,35.6,-8.7,39.3c-3.4,1.7,-10.1,2,-23.1,2H142.9" class="gg_231"/>
<path d="M275,183.5H251.6c-22.6,0,-27.3,-3,-32.5,-5.6c-8.9,-4.5,-14.7,-21,-21.9,-24.6c-2.7,-1.4,-5.5,-2.6,-18.5,-2.6H142.9" class="gh_231"/>
<path d="M213.8,111.1l5.1,-3.4" class="gi_231"/>
<path d="M213.8,111.1l-.2,-1.2c0,0,-1,2,-1.9,2.6c.9,-.6,3.1,-.8,3.1,-.8l-1,-.6Z" class="g7_231"/>
<path d="M213.8,111.1l-.2,-1.2c0,0,-1,2,-1.9,2.6c.9,-.6,3.1,-.8,3.1,-.8l-1,-.6Zm0,143.1l5.1,3.4" class="gi_231"/>
<path d="M213.8,254.2l1,-.6c0,0,-2.1,-.2,-3,-.8c.9,.6,1.9,2.6,1.9,2.6l.1,-1.2Z" class="g7_231"/>
<path d="M213.8,254.2l1,-.6c0,0,-2.1,-.2,-3,-.8c.9,.6,1.9,2.6,1.9,2.6l.1,-1.2Zm58.8,-72.6l10.7,-7.1" class="gi_231"/>
<path d="M272.6,181.5l-.2,-1.2c0,0,-.9,2,-1.9,2.6c1,-.6,3.1,-.8,3.1,-.8l-1,-.6Z" class="g7_231"/>
<path d="M272.6,181.5l-.2,-1.2c0,0,-.9,2,-1.9,2.6c1,-.6,3.1,-.8,3.1,-.8l-1,-.6Zm-6.1,4.5l16.1,12.6" class="gi_231"/>
<path d="M266.5,186l1.1,-.5c0,0,-2.2,-.4,-3,-1.1c.8,.7,1.7,2.7,1.7,2.7l.2,-1.1Z" class="g7_231"/>
<path d="M266.5,186l1.1,-.5c0,0,-2.2,-.4,-3,-1.1c.8,.7,1.7,2.7,1.7,2.7l.2,-1.1Z" class="gi_231"/>
<path d="M151.6,446.2V325.7m-2.3,124.8l4.6,-4m-4.6,1.7l4.6,-4m-2.3,30.4V448.5" class="ge_231"/>
<path fill-rule="evenodd" d="M151.6,325.7l-2.1,1.4l2.1,-5.6l2.1,5.6Z" class="g7_231"/>
<path d="M250.4,341.1c-9.4,13.6,-57.8,63.7,-98.8,91.1" class="gj_231"/>
<path d="M151.6,432.2l24.7,-18.5L201,393.3l24.7,-22.4l24.7,-24.6m-98.8,85.9l49.4,-37l49.4,-44.5m-98.8,81.5l98.8,-74.1" class="gk_231"/>
<path d="M132.4,455.4H272.1" class="gf_231"/>
<path fill-rule="evenodd" d="M272.1,455.4l-1.4,-2.1l5.6,2.1l-5.6,2Z" class="g7_231"/>
<path d="M149.5,432.2h4.2m-4.2,-18.5h4.2m-4.2,-18.5h4.2m-4.2,-18.5h4.2m-4.2,-18.6h4.2m-4.2,-18.5h4.2m22.6,113.7v4.1M201,453.3v4.1m24.7,-4.1v4.1m24.7,-4.1v4.1m-118,-2H272.1" class="ge_231"/>
<path d="M249.4,341.1c0,-.5,.4,-1,1,-1c.6,0,1,.5,1,1c0,.6,-.4,1.1,-1,1.1c-.6,0,-1,-.5,-1,-1.1Z" class="g7_231"/>
<path d="M249.4,341.1c0,-.5,.4,-1,1,-1c.6,0,1,.5,1,1c0,.6,-.4,1.1,-1,1.1c-.6,0,-1,-.5,-1,-1.1Z" class="gf_231"/>
<path d="M175.3,413.7c0,-.6,.4,-1,1,-1c.6,0,1,.4,1,1c0,.6,-.4,1,-1,1c-.6,0,-1,-.4,-1,-1Z" class="g7_231"/>
<path d="M175.3,413.7c0,-.6,.4,-1,1,-1c.6,0,1,.4,1,1c0,.6,-.4,1,-1,1c-.6,0,-1,-.4,-1,-1Z" class="gf_231"/>
<path d="M200,393.3c0,-.6,.4,-1,1,-1c.6,0,1,.4,1,1c0,.6,-.4,1,-1,1c-.6,0,-1,-.4,-1,-1Z" class="g7_231"/>
<path d="M200,393.3c0,-.6,.4,-1,1,-1c.6,0,1,.4,1,1c0,.6,-.4,1,-1,1c-.6,0,-1,-.4,-1,-1Z" class="gf_231"/>
<path d="M224.7,370.9c0,-.6,.4,-1,1,-1c.6,0,1,.4,1,1c0,.6,-.4,1,-1,1c-.6,0,-1,-.4,-1,-1Z" class="g7_231"/>
<path d="M224.7,370.9c0,-.6,.4,-1,1,-1c.6,0,1,.4,1,1c0,.6,-.4,1,-1,1c-.6,0,-1,-.4,-1,-1Z" class="gf_231"/>
<path d="M249.4,346.3c0,-.6,.4,-1.1,1,-1.1c.6,0,1,.5,1,1.1c0,.5,-.4,1,-1,1c-.6,0,-1,-.5,-1,-1Z" class="g7_231"/>
<path d="M249.4,346.3c0,-.6,.4,-1.1,1,-1.1c.6,0,1,.5,1,1.1c0,.5,-.4,1,-1,1c-.6,0,-1,-.5,-1,-1Z" class="gf_231"/>
<path d="M200,395.2c0,-.6,.4,-1.1,1,-1.1c.6,0,1,.5,1,1.1c0,.5,-.4,1,-1,1c-.6,0,-1,-.5,-1,-1Z" class="g7_231"/>
<path d="M200,395.2c0,-.6,.4,-1.1,1,-1.1c.6,0,1,.5,1,1.1c0,.5,-.4,1,-1,1c-.6,0,-1,-.5,-1,-1Z" class="gf_231"/>
<path d="M249.4,350.7c0,-.5,.4,-1,1,-1c.6,0,1,.5,1,1c0,.6,-.4,1.1,-1,1.1c-.6,0,-1,-.5,-1,-1.1Z" class="g7_231"/>
<path d="M249.4,350.7c0,-.5,.4,-1,1,-1c.6,0,1,.5,1,1c0,.6,-.4,1.1,-1,1.1c-.6,0,-1,-.5,-1,-1.1Z" class="gf_231"/>
<path d="M249.4,358.1c0,-.5,.4,-1,1,-1c.6,0,1,.5,1,1c0,.6,-.4,1.1,-1,1.1c-.6,0,-1,-.5,-1,-1.1Z" class="g7_231"/>
<path d="M249.4,358.1c0,-.5,.4,-1,1,-1c.6,0,1,.5,1,1c0,.6,-.4,1.1,-1,1.1c-.6,0,-1,-.5,-1,-1.1Z" class="gf_231"/>
<path d="M254.5,359.9l14.2,7.5" class="gi_231"/>
<path d="M254.5,359.8l1,-.7c0,0,-2.2,0,-3.2,-.5c1,.5,2.2,2.4,2.2,2.4v-1.2Z" class="g7_231"/>
<path d="M254.5,359.8l1,-.7c0,0,-2.2,0,-3.2,-.5c1,.5,2.2,2.4,2.2,2.4v-1.2Zm.5,-8l13.7,1.4" class="gi_231"/>
<path d="M255,351.7l.7,-1c0,0,-2,.9,-3.1,.8c1.1,.1,2.8,1.3,2.8,1.3l-.4,-1.1Z" class="g7_231"/>
<path d="M255,351.7l.7,-1c0,0,-2,.9,-3.1,.8c1.1,.1,2.8,1.3,2.8,1.3l-.4,-1.1Zm0,-6.8l13.7,-5.5" class="gi_231"/>
<path d="M255,344.9l.1,-1.2c0,0,-1.4,1.7,-2.4,2.1c1,-.4,3.2,-.1,3.2,-.1l-.9,-.8Z" class="g7_231"/>
<path d="M255,344.9l.1,-1.2c0,0,-1.4,1.7,-2.4,2.1c1,-.4,3.2,-.1,3.2,-.1l-.9,-.8Zm0,-6.7l13.7,-10.4" class="gi_231"/>
<path d="M255,338.2l-.2,-1.2c0,0,-.9,2,-1.8,2.7c.9,-.7,3.1,-1,3.1,-1l-1.1,-.5Z" class="g7_231"/>
<path d="M255,338.2l-.2,-1.2c0,0,-.9,2,-1.8,2.7c.9,-.7,3.1,-1,3.1,-1l-1.1,-.5Z" class="gi_231"/>
<path d="M151.6,747.5l.2,-3.1l1.5,-10.3l1.4,-8.8l1.3,-6.6l1.7,-5.9l1.3,-4.4l1.3,-3.7l1.8,-2.9l1.3,-2.7l1.3,-2l1.8,-1.5l1.3,-1.4l1.3,-.9l1.7,-.9l1.3,-.9l1.3,-.5l1.4,-.3l1.7,-.6l1.3,-.3l1.7,-.2l1.4,-.1l1.3,-.1l1.3,-.2l1.6,-.1l1.5,-.2l1.5,-.1l1.5,-.2H267" class="gl_231"/>
<path d="M151.6,746.9L152,742m13.6,4.9L166,742m13.6,4.9L180,742m13.6,4.9L194,742m13.5,4.9L208,742m13.5,4.9L222,742m13.5,4.9L236,742m13.5,4.9l.4,-4.9m13.6,4.9l.4,-4.9M151.6,737.6l.4,-4.7m13.6,4.7l.4,-4.7m13.6,4.7l.4,-4.7m13.6,4.7l.4,-4.7m13.5,4.7l.5,-4.7m13.5,4.7l.5,-4.7m13.5,4.7l.5,-4.7m13.5,4.7l.4,-4.7m13.6,4.7l.4,-4.7M151.2,728.3l.8,-5m13.2,5l.8,-5m13.1,5l.9,-5m13.1,5l.9,-5m13.1,5l.9,-5m13.1,5l.9,-5m13.1,5l1.3,-5m12.7,5l.8,-5m13.2,5l.8,-5M151.2,718.9l1.3,-4.9m12.7,4.9l1.3,-4.9m12.6,4.9l1.3,-4.9m12.7,4.9l1.3,-4.9m12.7,4.9l1.3,-4.9m12.7,4.9l1.3,-4.9m12.7,4.9l1.3,-4.9m12.7,4.9l1.3,-4.9m12.7,4.9l1.3,-4.9M150.7,709.6l1.8,-4.7m12.2,4.7l1.8,-4.7m12.2,4.7l2.2,-4.7m11.8,4.7l1.7,-4.7m12.3,4.7l2.1,-4.7m12.3,4.7l1.3,-4.7m12.2,4.7l2.2,-4.7m11.8,4.7l2.2,-4.7m11.8,4.7l1.8,-4.7M149.8,700.3l3.5,-4.7m10.5,4.7l3.5,-4.7m10.5,4.7l3.5,-4.7m10.5,4.7l3.5,-4.7m10.5,4.7l3.9,-4.7m10.1,4.7l3.5,-4.7m10.5,4.7l3.5,-4.7m10.5,4.7l3.4,-4.7m10.5,4.7l4,-4.7m-117.6,-7h7m7,0h7m7,0h7m7,0h7m6.9,0h7m7,0h7m7,0h7m7,0h7m7,0h7.4m-114.1,-7L149.8,677m17.5,4.6L163.8,677m17.5,4.6L177.8,677m17.5,4.6L191.8,677m17.9,4.6L205.8,677m17.5,4.6L219.8,677m17.5,4.6L233.8,677m17.4,4.6L247.8,677m17.9,4.6l-4,-4.6M152.5,672.3l-1.8,-4.9m15.8,4.9l-1.8,-4.9m16.2,4.9l-2.2,-4.9m15.7,4.9l-1.7,-4.9m16.1,4.9l-2.1,-4.9m15.7,4.9l-1.3,-4.9m15.7,4.9l-2.2,-4.9m16.2,4.9l-2.2,-4.9m15.8,4.9l-1.8,-4.9M152.5,663l-1.3,-4.7m15.3,4.7l-1.3,-4.7m15.2,4.7l-1.3,-4.7m15.3,4.7l-1.3,-4.7m15.3,4.7l-1.3,-4.7m15.3,4.7l-1.3,-4.7m15.3,4.7l-1.3,-4.7m15.3,4.7l-1.3,-4.7m15.3,4.7l-1.3,-4.7M152,653.7l-.8,-4.7m14.8,4.7l-.8,-4.7m14.8,4.7l-.9,-4.7m14.9,4.7l-.9,-4.7m14.9,4.7l-.9,-4.7m14.9,4.7l-.9,-4.7m15.3,4.7L235.1,649m14.8,4.7l-.8,-4.7m14.8,4.7l-.8,-4.7M152,644l-.4,-4.3M166,644l-.4,-4.3M180,644l-.4,-4.3M194,644l-.4,-4.3M208,644l-.5,-4.3M222,644l-.5,-4.3M236,644l-.5,-4.3m14.4,4.3l-.4,-4.3m14.4,4.3l-.4,-4.3M152,635l-.4,-4.6M166,635l-.4,-4.6M180,635l-.4,-4.6M194,635l-.4,-4.6M208,635l-.5,-4.6M222,635l-.5,-4.6M236,635l-.5,-4.6m14.4,4.6l-.4,-4.6m14.4,4.6l-.4,-4.6M235.7,746.5v-4.2m-27.9,4.2v-4.2m-28,4.2v-4.2" class="gm_231"/>
<path d="M134,744.4H273.1" class="gn_231"/>
<path fill-rule="evenodd" d="M273.1,744.4l-1.4,-2.1l5.6,2.1l-5.6,2.1Z" class="g7_231"/>
<path d="M149.7,725.8h4.2" class="gm_231"/>
<path d="M151.8,764.3V620.4" class="gn_231"/>
<path fill-rule="evenodd" d="M151.8,620.4l-2.1,1.4l2.1,-5.6l2.1,5.6Z" class="g7_231"/>
<path d="M151.8,764.3V620.4M134,744.4H273.1M149.7,707.1h4.2m-4.2,-18.6h4.2m-4.2,-18.7h4.2m-4.2,-18.6h4.2m-4.2,-18.7h4.2m109.8,114v-4.2" class="gm_231"/>
<path clip-path="url(#c4_231)" d="M174,849.8H278.1" class="g0_231"/>
<path d="M242.1,897.8h4.8m-34.3,22.9h4.8" class="gd_231"/>
<path clip-path="url(#c5_231)" d="M335.9,912.5h87.8" class="g0_231"/>
<path d="M133.3,942.1H138m33.3,0h4.8m82.1,0H263m55.4,0h4.8m33.3,0h9.6" class="gd_231"/>
<path d="M159.5,971.2H182M171.7,974h8.2" class="g0_231"/>
<path clip-path="url(#c6_231)" d="M169.6,996.5h39.7" class="g0_231"/>
</svg>