<?xml version="1.0" encoding="UTF-8" standalone="no"?>
<!DOCTYPE svg PUBLIC "-//W3C//DTD SVG 1.1//EN"
"http://www.w3.org/Graphics/SVG/1.1/DTD/svg11.dtd">
<svg viewBox="0 0 907 1045" version="1.1" xmlns="http://www.w3.org/2000/svg" xmlns:xlink="http://www.w3.org/1999/xlink">
<defs>
<clipPath id="c0_118"><path d="M536.8,266.5V114.2H671.4V266.5Z"/></clipPath>
<clipPath id="c1_118"><path d="M602.8,754.5V673.9H758.3v80.6Z"/></clipPath>
<clipPath id="c2_118"><path d="M447.3,754.5V673.9h48.3l30.3,30.3l1.1,-1.1L497.8,673.9h105v80.6Z"/></clipPath>
<clipPath id="c3_118"><path d="M525.9,704.2L495.6,673.9h2.2L527,703.1l-1.1,1.1Z"/></clipPath>
<clipPath id="c4_118"><path d="M287.7,754.5V673.9h80l-28.8,28.7l1.1,1.1l29.8,-29.8h73.4v80.6Z"/></clipPath>
<clipPath id="c5_118"><path d="M340,703.7l-1.1,-1.1l28.8,-28.7h2.1L340,703.7Z"/></clipPath>
<clipPath id="c6_118"><path d="M129.4,754.5V673.9H239.9l-20.4,7l.5,1.5l24.5,-8.5h40.3v80.6Z"/></clipPath>
<clipPath id="c7_118"><path d="M220,682.4l-.5,-1.5l20.4,-7h4.6L220,682.4Z"/></clipPath>
<clipPath id="c8_118"><path d="M352.1,618.5V460.8H522.3V618.5H485.6l2.2,-6.5l.6,-1.8l-1.7,.9l-12.8,6.6l-.7,.3l.3,.5H451.1l2,-2.1l1.2,-1.2l-1.7,-.1l-13.7,-.5l-.8,-.1v.8l-.1,3.2h-9.6l.1,-2.9l.1,-.8h-.8l-14.6,-.3l-1.9,-.1l1.4,1.4l2.7,2.7H395.9l-10.5,-5.4l-1.7,-.9l.6,1.9l1.5,4.4Z"/></clipPath>
<clipPath id="c9_118"><path d="M417.5,618.5L415.1,616l11.9,.3l-.1,2.2Z"/></clipPath>
<clipPath id="ca_118"><path d="M415.4,618.5l-2.7,-2.7l-1.4,-1.4l1.9,.1l14.6,.3h.8l-.1,.8l-.1,2.9h-.7l.1,-3l-14.6,-.3l3.2,3.3Z"/></clipPath>
<clipPath id="cb_118"><path d="M416.4,618.5l-3.2,-3.3l14.6,.3l-.1,3h-.8l.1,-2.2L415.1,616l2.4,2.5Z"/></clipPath>
<clipPath id="cc_118"><path d="M439.5,618.5l.1,-2.4l11.2,.5l-1.9,1.9Z"/></clipPath>
<clipPath id="cd_118"><path d="M438,618.5l.1,-3.2v-.8l.8,.1l13.7,.5l1.7,.1l-1.2,1.2l-2,2.1H450l2.6,-2.6l-13.8,-.6v3.2Z"/></clipPath>
<clipPath id="ce_118"><path d="M438.8,618.5v-3.2l13.8,.6l-2.6,2.6h-1.1l1.9,-1.9l-11.2,-.5l-.1,2.4Z"/></clipPath>
<clipPath id="cf_118"><path d="M387.5,618.5l-1.1,-3.2l6.1,3.2Z"/></clipPath>
<clipPath id="cg_118"><path d="M385.8,618.5l-1.5,-4.4l-.6,-1.9l1.7,.9l10.5,5.4h-1.7L385,613.8l1.7,4.7Z"/></clipPath>
<clipPath id="ch_118"><path d="M386.7,618.5L385,613.8l9.2,4.7h-1.7l-6.1,-3.2l1.1,3.2Z"/></clipPath>
<clipPath id="ci_118"><path d="M475.7,618.5l10.1,-5.2l-1.8,5.2Z"/></clipPath>
<clipPath id="cj_118"><path d="M473.5,618.5l-.3,-.5l.7,-.3l12.8,-6.6l1.7,-.9l-.6,1.8l-2.2,6.5h-.8l2.3,-6.7l-12.8,6.6v.1Z"/></clipPath>
<clipPath id="ck_118"><path d="M474.3,618.5v-.1l12.8,-6.6l-2.3,6.7H484l1.8,-5.2l-10.1,5.2Z"/></clipPath>
<clipPath id="cl_118"><path d="M-2.6,1047.7V-2.6H910.2V1047.7Z"/></clipPath>
<style type="text/css"><![CDATA[
.g0_118{
}
.g1_118{
fill: #FFFFFF;
}
.g2_118{
fill: none;
stroke: #000000;
stroke-width: 0.646;
stroke-linecap: butt;
stroke-linejoin: miter;
stroke-miterlimit: 4;
}
.g3_118{
fill: none;
stroke: #000000;
stroke-width: 0.862;
stroke-linecap: butt;
stroke-linejoin: miter;
stroke-miterlimit: 4;
}
.g4_118{
fill: none;
stroke: #000000;
stroke-width: 0.5;
stroke-linecap: butt;
stroke-linejoin: miter;
stroke-miterlimit: 4;
}
.g5_118{
fill: none;
stroke: #000000;
stroke-width: 0.598;
stroke-linecap: butt;
stroke-linejoin: miter;
stroke-miterlimit: 4;
}
.g6_118{
fill: none;
stroke: #000000;
stroke-width: 0.798;
stroke-linecap: butt;
stroke-linejoin: miter;
stroke-miterlimit: 4;
}
.g7_118{
fill: none;
stroke: #3D3D3D;
stroke-width: 1.527;
stroke-linecap: butt;
stroke-linejoin: miter;
stroke-miterlimit: 4;
}
.g8_118{
fill: none;
stroke: #FFFFFF;
stroke-width: 1.909;
stroke-linecap: butt;
stroke-linejoin: miter;
}
.g9_118{
fill: none;
stroke: #000000;
stroke-width: 0.381;
stroke-linecap: butt;
stroke-linejoin: miter;
}
]]></style>
</defs>
<g clip-path="url(#c0_118)">
<image clip-path="url(#c0_118)" preserveAspectRatio="none" x="537" y="114" width="136" height="154" xlink:href="img/1.jpg"/>
</g>
<path d="M340,703.7l82.3,-82.3l-1.1,-1.1l-82.3,82.3l1.1,1.1Z" class="g0_118"/>
<path d="M427.8,615.5l-14.6,-.3l14,14l.6,-13.7Z" class="g1_118"/>
<path d="M427.8,615.5v-.7l-14.6,-.3l-1.9,-.1l1.4,1.4l14,14l1.2,1.2l.1,-1.7l.5,-13.7l.1,-.8h-.8v.7H427l-.5,13.7h.7l.6,-.5l-14,-14l-.6,.5v.8l14.6,.3v-.8H427h.8Z" class="g0_118"/>
<path d="M527,703.1L444.7,620.9l-1,1l82.2,82.3l1.1,-1.1Z" class="g0_118"/>
<path d="M438.8,615.3l-.3,14.6l14.1,-14l-13.8,-.6Z" class="g1_118"/>
<path d="M438.8,615.3h-.7l-.3,14.6l-.1,1.9l1.4,-1.4l14,-14l1.2,-1.2l-1.7,-.1l-13.7,-.5l-.8,-.1v.8h.7v.8l13.7,.5l.1,-.7l-.6,-.6l-14,14.1l.5,.5h.8l.3,-14.5l-.8,-.1v.8v-.8Z" class="g0_118"/>
<image clip-path="url(#c1_118)" preserveAspectRatio="none" x="602" y="673" width="157" height="82" xlink:href="img/2.jpg"/>
<path d="M608.7,679.7V740H743.2V679.7H608.7Z" class="g1_118"/>
<path d="M608.7,679.7V740H743.2V679.7H608.7Z" class="g2_118"/>
<path d="M608.7,701.4H743.5" class="g3_118"/>
<image clip-path="url(#c2_118)" preserveAspectRatio="none" x="447" y="673" width="156" height="82" xlink:href="img/3.jpg"/>
<image clip-path="url(#c3_118)" preserveAspectRatio="none" x="495" y="673" width="32" height="32" xlink:href="img/4.jpg"/>
<path d="M453.2,679.7V740H587.7V679.7H453.2Z" class="g1_118"/>
<path d="M453.2,679.7V740H587.7V679.7H453.2Z" class="g2_118"/>
<path d="M453.2,701.4H588" class="g3_118"/>
<image clip-path="url(#c4_118)" preserveAspectRatio="none" x="287" y="673" width="157" height="82" xlink:href="img/5.jpg"/>
<image clip-path="url(#c5_118)" preserveAspectRatio="none" x="339" y="673" width="31" height="31" xlink:href="img/6.jpg"/>
<path d="M293.6,679.7V740H428.1V679.7H293.6Z" class="g1_118"/>
<path d="M293.6,679.7V740H428.1V679.7H293.6Z" class="g2_118"/>
<path d="M293.6,701.4H428.5" class="g3_118"/>
<path d="M220,682.4L390.5,623.3l-.5,-1.4l-170.5,59l.5,1.5Z" class="g0_118"/>
<path d="M398,620.4l-13,-6.6l6.5,18.7L398,620.4Z" class="g1_118"/>
<path d="M398,620.4l.3,-.7l-12.9,-6.6l-1.7,-.9l.6,1.9l6.5,18.7l.6,1.6l.8,-1.5l6.5,-12.1l.3,-.7l-.7,-.4l-.3,.7l-.7,-.3l-6.5,12.1l.7,.3l.7,-.2l-6.4,-18.8l-.8,.3l-.3,.7l12.9,6.6l.4,-.7l-.7,-.3l.7,.3Z" class="g0_118"/>
<image clip-path="url(#c6_118)" preserveAspectRatio="none" x="129" y="673" width="156" height="82" xlink:href="img/7.jpg"/>
<image clip-path="url(#c7_118)" preserveAspectRatio="none" x="219" y="673" width="26" height="10" xlink:href="img/8.jpg"/>
<path d="M135.2,679.7V740H269.7V679.7H135.2Z" class="g1_118"/>
<path d="M135.2,679.7V740H269.7V679.7H135.2Z" class="g2_118"/>
<path d="M135.2,701.4H270.1" class="g3_118"/>
<path d="M650.8,679.6l-170.5,-59" class="g4_118"/>
<path d="M474.3,618.4l12.8,-6.6l-6.4,18.7l-6.4,-12.1Z" class="g1_118"/>
<path d="M474.3,618.4l-.4,-.7l12.8,-6.6l1.7,-.9l-.6,1.8l-6.4,18.7l-.6,1.7l-.8,-1.6l-6.4,-12.1l-.4,-.7l.7,-.3l.4,.7l.6,-.4l6.4,12.1l-.6,.4l-.7,-.3l6.4,-18.7l.7,.3l.3,.6L474.6,619l-.3,-.6l.6,-.4l-.6,.4Z" class="g0_118"/>
<image clip-path="url(#c8_118)" preserveAspectRatio="none" x="352" y="460" width="171" height="159" xlink:href="img/9.jpg"/>
<image clip-path="url(#c9_118)" preserveAspectRatio="none" x="415" y="616" width="12" height="3" xlink:href="img/10.jpg"/>
<image clip-path="url(#ca_118)" preserveAspectRatio="none" x="411" y="614" width="18" height="5" xlink:href="img/11.jpg"/>
<image clip-path="url(#cb_118)" preserveAspectRatio="none" x="413" y="615" width="15" height="4" xlink:href="img/12.jpg"/>
<image clip-path="url(#cc_118)" preserveAspectRatio="none" x="439" y="616" width="12" height="3" xlink:href="img/13.jpg"/>
<image clip-path="url(#cd_118)" preserveAspectRatio="none" x="438" y="614" width="17" height="5" xlink:href="img/14.jpg"/>
<image clip-path="url(#ce_118)" preserveAspectRatio="none" x="438" y="615" width="15" height="4" xlink:href="img/15.jpg"/>
<image clip-path="url(#cf_118)" preserveAspectRatio="none" x="386" y="615" width="7" height="4" xlink:href="img/16.jpg"/>
<image clip-path="url(#cg_118)" preserveAspectRatio="none" x="383" y="612" width="13" height="7" xlink:href="img/17.jpg"/>
<image clip-path="url(#ch_118)" preserveAspectRatio="none" x="385" y="613" width="10" height="6" xlink:href="img/18.jpg"/>
<image clip-path="url(#ci_118)" preserveAspectRatio="none" x="475" y="613" width="11" height="6" xlink:href="img/19.jpg"/>
<image clip-path="url(#cj_118)" preserveAspectRatio="none" x="473" y="610" width="16" height="9" xlink:href="img/20.jpg"/>
<image clip-path="url(#ck_118)" preserveAspectRatio="none" x="474" y="611" width="13" height="8" xlink:href="img/21.jpg"/>
<path d="M358,466.7V603.5H507.6V466.7H358Z" class="g1_118"/>
<path d="M358,466.7V603.5H507.6V466.7H358Z" class="g5_118"/>
<path d="M358.1,493.9H507.3M359.1,522.6H508.3" class="g6_118"/>
<path d="M315.3,413.8c9.9,-5.2,20.4,-8.5,31.5,-7.5c4.8,.5,12,.6,16.3,2.5c4.9,2.2,6.5,7.8,8.5,12.4c2.6,5.9,5.5,11.5,6.1,17.9c.5,4.9,-.9,9.8,-.6,14.5c-1.9,-5.3,-6.3,-8.4,-9,-13.1c5.3,3.3,7.6,8.6,10,14.1c2.6,-2.1,6.3,-12.8,9.2,-14.6m155.3,63.7c-7.8,5.1,-15.1,6,-24.3,5.3c-7.3,-.5,-13.5,-4.9,-20.4,-6.4c-5.8,-1.2,-11.7,-1,-17.7,-1c-5.5,-.1,-9.4,2.4,-14.7,3.8c-.2,-2,2.4,-4.4,4,-5.6c-.8,1.9,-2.6,2.6,-4.3,3.8c-2.8,1.9,-4.3,3.7,-6.1,6.2c3.1,.5,10.2,3,11.6,5.5M317.3,805.1C308.7,799.9,304.8,790.5,295,786.5c-5.2,-2.1,-9.3,-6.1,-14.6,-7.8c-.6,2.7,-.1,5.9,-.1,8.7c-.7,-5.8,4.2,-10.5,9.5,-6.6m86.8,26.1c1.9,-2.7,2.8,-6.1,3.2,-9.3c.5,-3.7,1.7,-7.2,1.2,-10.9c-.2,-2.5,.2,-5,-.1,-7.3c-.1,-1.2,0,-2.4,0,-3.6c.1,-1.6,-.5,-2.4,-.8,-3.9c-.4,-2.2,-.9,-4.2,-1.7,-6.3c-2.5,-.5,-3.6,3.5,-4.2,5.2c-.4,1.1,-1,1.9,-1.9,2.8c1.6,-.5,2.2,-2.5,3.2,-3.8c1.1,-1.3,1.8,-3.5,3.4,-4.2c.6,-.3,.5,-.6,1.2,-.4c1.1,.2,2.6,2.6,3.4,3.3c1.4,1.2,4.8,3,4.5,5.2m102,39.9c-1.4,-5,-.5,-10.5,1,-15.5c.9,-2.8,3.3,-4.8,4.7,-7.3c1.4,-2.4,3,-4.8,4.6,-7.1c2.5,-3.4,4.7,-6.8,7.2,-10c1.2,-1.6,4,-2.4,4.5,-4.6c-1.3,-.3,-6.6,-.2,-6.6,1.5c1.9,.6,4.4,-.5,6.5,-.3c.4,2.2,-1.3,4.9,.1,6.9m91.8,32.5c0,-1,.5,-1.8,1.4,-2.4c1.9,-1.9,3.2,-3.6,4.7,-5.9c2.8,-4.1,6.4,-6.8,9.7,-10.4c1.5,-1.7,3.4,-3.6,4.5,-5.6c.6,-.9,.7,-1.9,1.2,-2.9c.5,-1,1.3,-1.7,2,-2.6c.7,-1.1,1.2,-2.4,2,-3.4c1,-1.3,2.2,-2.3,3.1,-3.6c.5,-.8,2.4,-3,1.9,-3.9c-1.6,-.4,-8.1,-.3,-7,2.9c1.3,1,3.8,-1,5.1,-1.4c1.9,-.7,2.4,-1.1,2.8,.8c.6,2.9,-.4,6.6,1.5,8.9M246.6,557c2.1,-2.9,5.6,-3.3,8.9,-3.7c1.9,-.2,3.6,-.6,5.5,-.6c1.7,0,3.4,-.3,5.1,-.4c3.5,-.4,7.2,.4,10.7,.8c3,.3,6.1,.9,9,1.6c1.5,.4,3.2,.5,4.7,1c2.4,.8,4.7,1.1,7.2,1.5c4,.7,8,2.2,12.1,2.8c4.1,.6,8.1,1.5,12.2,2c3.2,.5,6.2,1.3,9.3,1.6c3.5,.3,6.9,-.1,10.3,-.4c3,-.2,5.7,-.1,8.5,-1.3c.7,-.3,1.2,-.7,1.9,-1c.3,-.1,.8,-.2,1.2,-.4c.1,0,1.2,-.2,1.3,-.3c.3,-.6,-1.5,-.6,-1.7,-.6c-1.2,-.3,-2.4,-.5,-3.6,-.5c-1.2,-.1,-4.3,-2.9,-5.5,-2.9c1.3,.3,4.4,3,5.7,3.2c.9,.1,1.8,0,2.6,.4c.3,1.5,-.3,2.2,-1.4,3.2c-.7,.5,-1.2,1.2,-1.8,1.8c-.5,.5,-1.1,4.5,-1.3,5.2" class="g7_118"/>
<g clip-path="url(#cl_118)">
<path d="M-4.5,13.7H-27.4m939.5,0H935M-4.5,1031.2H-27.4m939.5,0H935M13.7,-4.5V-27.4m0,1077v22.9m880,-1077V-27.4m0,1077v22.9" class="g8_118"/>
<path d="M-4.5,13.7H-27.4m939.5,0H935M-4.5,1031.2H-27.4m939.5,0H935M13.7,-4.5V-27.4m0,1077v22.9m880,-1077V-27.4m0,1077v22.9" class="g9_118"/>
</g>
</svg>