<?xml version="1.0" encoding="UTF-8" standalone="no"?>
<!DOCTYPE svg PUBLIC "-//W3C//DTD SVG 1.1//EN"
"http://www.w3.org/Graphics/SVG/1.1/DTD/svg11.dtd">
<svg viewBox="0 0 931 1096" version="1.1" xmlns="http://www.w3.org/2000/svg" xmlns:xlink="http://www.w3.org/1999/xlink">
<defs>
<clipPath id="c0_61"><path d="M459.6,927.1V895h300v32.1Z"/></clipPath>
<style type="text/css"><![CDATA[
.g0_61{
fill: none;
stroke: #241F1F;
stroke-width: 0.534;
stroke-miterlimit: 10;
}
.g1_61{
fill: none;
stroke: #00AEEF;
stroke-width: 0.763;
}
.g2_61{
fill: none;
stroke: #241F1F;
stroke-width: 0.763;
stroke-miterlimit: 10;
}
.g3_61{
fill: none;
stroke: #241F1F;
stroke-width: 0.481;
stroke-miterlimit: 10;
}
.g4_61{
fill: none;
stroke: #00AEEF;
stroke-width: 0.534;
stroke-miterlimit: 3;
}
.g5_61{
fill: none;
stroke: #00AEEF;
stroke-width: 0.916;
stroke-miterlimit: 3;
}
.g6_61{
fill: none;
stroke: #EE008C;
stroke-width: 0.916;
stroke-miterlimit: 3;
}
.g7_61{
fill: none;
stroke: #241F1F;
stroke-width: 0.534;
stroke-miterlimit: 3;
}
.g8_61{
fill: none;
stroke: #00AEEF;
stroke-width: 1.145;
}
.g9_61{
fill: #CFEDFC;
}
.ga_61{
fill: none;
stroke: #00AEEF;
stroke-width: 1.069;
stroke-linejoin: round;
}
.gb_61{
fill: none;
stroke: #241F1F;
stroke-width: 0.611;
stroke-miterlimit: 3;
}
.gc_61{
fill: #241F1F;
}
.gd_61{
fill: none;
stroke: #241F1F;
stroke-width: 0.763;
stroke-linejoin: round;
}
]]></style>
</defs>
<path d="M585.6,229.7H591" class="g0_61"/>
<path d="M435.1,358.9c0,0,-3.1,0,-3.1,3.1v51.2c0,0,0,3,3.1,3H785.7c0,0,3,0,3,-3V362c0,0,0,-3.1,-3,-3.1H435.1Z" class="g1_61"/>
<path d="M562.7,540h46.9m18.9,76.4h47.7m41.5,45.8h47.7M531.7,706.5h14.8m39,0h47.7" class="g2_61"/>
<path d="M646,772.1h5.4" class="g0_61"/>
<path d="M504.7,821.1h47.7" class="g2_61"/>
<path d="M593.1,821h5.4" class="g0_61"/>
<path d="M619.9,821.1h16.5" class="g2_61"/>
<path d="M658.1,821h5.4m-70.4,44.3h5.4m102.4,0h5.4" class="g0_61"/>
<path d="M554.8,911.2h14.7m39,0h46.9m40.1,0h14.8" class="g2_61"/>
<path clip-path="url(#c0_61)" d="M732.1,911.2H760" class="g2_61"/>
<path d="M541.4,998.3h13.7m102.6,0h41.7" class="g2_61"/>
<path d="M152.8,137.4h4.8" class="g3_61"/>
<path d="M136.6,208.5H286.3c5.1,0,9.2,4.1,9.2,9.1v91.7c0,5.1,-4.1,9.2,-9.2,9.2H136.6c-5,0,-9.1,-4.1,-9.1,-9.2V217.6c0,-5,4.1,-9.1,9.1,-9.1Z" class="g4_61"/>
<path d="M127.5,291c15.6,0,33.1,1.8,43.4,1.8c36.3,0,44.2,-53.3,56.7,-53.3c8.6,0,13.5,34,17.3,78.7" class="g5_61"/>
<path d="M127.5,290.4c19.9,0,39.3,1.8,50.4,3.4c2.7,.4,8.4,.3,11.4,0c31.1,-3.4,41.4,-82.5,52.9,-82.5c8.3,0,13.2,53.3,16.7,106.9" class="g6_61"/>
<path d="M183.4,318.4V208.5m-1.3,102.8h2.7m-2.7,-6.9h2.7m-2.7,-7h2.7m-2.7,-13.5h2.7M182.1,277h2.7m-2.7,-7h2.7m-2.7,-6.9h2.7m-2.7,-6.6h2.7m-2.7,-6.9h2.7m-2.7,-6.9h2.7m-2.7,-7h2.7m-2.7,-6.9h2.7m-2.7,-6.6h2.7m-2.7,-6.9h2.7M127.5,291H295.7M146,292.6v-3.1m18.6,3.1v-3.1m37.3,3.1v-3.1m19,3.1v-3.1m18.7,3.1v-3.1m18.6,3.1v-3.1m18.6,3.1v-3.1" class="g7_61"/>
<path d="M359.6,379.3c0,0,-1.5,0,-1.5,1.5v14.1c0,0,0,1.5,1.5,1.5h14.1c0,0,1.6,0,1.6,-1.5V380.8c0,0,0,-1.5,-1.6,-1.5H359.6Z" class="g8_61"/>
<path d="M205.2,820.3h50.4V785.1c-22.8,10,-35,21.2,-50.4,35.2Z" class="g9_61"/>
<path d="M108.5,869.5c20.9,-1.4,67.2,-17.7,96.7,-49.2c41.8,-41.2,80.5,-45.7,96.6,-49.2" class="ga_61"/>
<path d="M108.5,820.3H301.8" class="gb_61"/>
<path fill-rule="evenodd" d="M301.8,820.3l-1.6,-2.5l6.5,2.5l-6.5,2.4Z" class="gc_61"/>
<path d="M205.2,895.9V744.7" class="gb_61"/>
<path fill-rule="evenodd" d="M205.2,744.7l-2.5,1.6l2.5,-6.5l2.4,6.5Z" class="gc_61"/>
<path d="M255.6,823.3v-6.1" class="gb_61"/>
<path d="M255.6,820.3V785.1" class="gd_61"/>
<path d="M359.6,990.8c0,0,-1.5,0,-1.5,1.5v14.1c0,0,0,1.5,1.5,1.5h14.1c0,0,1.6,0,1.6,-1.5V992.3c0,0,0,-1.5,-1.6,-1.5H359.6Z" class="g8_61"/>
</svg>