<?xml version="1.0" encoding="UTF-8" standalone="no"?>
<!DOCTYPE svg PUBLIC "-//W3C//DTD SVG 1.1//EN"
"http://www.w3.org/Graphics/SVG/1.1/DTD/svg11.dtd">
<svg viewBox="0 0 907 1045" version="1.1" xmlns="http://www.w3.org/2000/svg" xmlns:xlink="http://www.w3.org/1999/xlink">
<defs>
<clipPath id="c0_49"><path d="M157.8,489.4q-.1,-.2,-.2,-.4c-.9,-.1,-1.3,-.7,-2.3,-.7c-.1,-.2,0,-.1,-.1,-.3c-.7,-.1,0,-.2,-.7,-.2c-.2,-.2,-.1,-.1,-.2,-.4c-.1,.1,-.2,.1,-.3,.1c-.3,0,-.4,-.1,-.6,-.2c-.2,-.1,-.3,-.2,-.7,-.2c0,0,-.1,0,-.2,0c-.3,-.7,-1.1,-1.6,-.3,-2.1c-.8,-.3,-1.4,-.4,-2.1,-.7c-.3,-.4,-.1,-.3,-.8,-.4c0,-.2,0,-.1,-.1,-.3c-.7,-.1,0,-.2,-.7,-.2c-.3,-.3,0,-.2,-.6,-.4c-.3,-.2,.1,-.2,-.5,-.3c-.1,-.3,-.1,0,-.2,-.5c-.1,-.2,-.2,-.2,-.3,-.4c-.7,0,0,-.1,-.7,-.2c-.1,-.2,-.1,-.1,-.2,-.3h-.2v.2h-.1c.1,-.3,0,-.2,.1,-.4c-.4,-.2,-.6,-.3,-1,-.5c-.1,-.4,-.1,.1,-.2,-.6c-.3,-.1,0,-.1,-.5,-.1c-.3,-.5,-.7,-.6,-.9,-1.3c-.3,-.1,0,-.1,-.5,-.1c-.3,-.6,-.7,-.6,-.9,-1.3c-.4,-.1,0,-.1,-.5,-.1c-.3,-.5,-.6,-.5,-.8,-1.1c-.4,-.2,-.8,-.7,-1,-1.2c-.3,-.2,-.3,-.1,-.4,-.6q0,.1,-.1,.1c-.1,0,-.1,-.1,0,-.2h-.2v.1h-.2c0,-.5,0,-.2,-.2,-.7c-.3,-.1,-.2,-.3,-.7,-.3c-.1,-.5,-.2,-.4,-.3,-.9c-.4,-.2,-.2,-.4,-.7,-.5c-.2,-.5,-.4,-.9,-.4,-1.4c-.4,-.3,-.1,-.1,-.3,-.7q-.2,-.1,-.4,-.2c-.1,-.5,-.2,-.8,-.3,-1.2c-.3,-.2,-.4,-.2,-.2,-.4c-.2,-.3,-.3,-.7,-.4,-1.1c-.2,-.1,-.1,0,-.3,-.1c.1,-1.1,-.1,-.4,-.2,-1.1c-.4,-.1,-.5,-.4,-.3,-1c-.4,-.1,-.1,-.1,-.4,-.2c0,-1.1,-.4,-2.7,-.9,-3.5v-9.4h.2v-3.1h.2v-1.1h.2v-.5h.1v-.5h.2v-.6h.2v-1h.2v-.9h.1v-1.2h.2v-.4h.2v-.7h.2V441h.1v-.2h.2v-.9h.2v-.3h.2v-.4h.1v-.3h.2v-.4h.2v-.3h.2v-.6h.3v-.5h.2v-.2h.2v-.2h.2V436h.1v-.1h.2v-.4h.2V435h.2v-.2h.1v-.7h.2v-.2h.2v-.3h.2v-.2h.1v-.3h.4v-.6h.3v-.2h.2V432h.2v-.2h.2v-.2h.3v-.1h.2v-.2h.2v-.2h.3v-.3h.4v-.2h.2v-.2h.1v-.3h.2v-.2h.2v.2h.2c.2,-.3,.5,-.5,.7,-.9c.5,-.1,.3,-.3,.8,-.4c.2,-.4,.5,-.5,.9,-.7c.3,-.4,.3,-.3,.7,-.5c.3,-.4,.3,-.3,.7,-.5c.2,-.5,.6,-.8,1.1,-.9c.1,-.2,.1,-.3,.2,-.4h.1v.2h.2v-.3c.5,-.3,.6,-.3,1.1,-.6c.1,-.2,.2,-.3,.3,-.5c.7,0,0,-.1,.7,-.2c.3,-.2,0,-.2,.6,-.3c0,-.2,0,-.3,.1,-.4c1.7,-.4,2.7,-1.2,4.3,-1.7c.1,-.3,0,-.1,.1,-.4c.7,-.1,0,-.1,.9,-.2c.1,-.2,.1,-.1,.2,-.3c.7,-.1,1,-.2,1.2,-.7h.1c.4,0,.7,-.2,.8,-.5c.4,-.1,2,-.1,1.9,-.4h.6v.2h1v-.2h.2v-.2h.5v.2h1.3v.4h3.1v-.2h.4v.2h.1v-.2h.2v.2h.7v-.2h.4v-.2h.5v-.2h.9v.2h2.3v.2h.5c0,-.2,0,-.3,.1,-.3c.1,0,.2,.1,.3,.1c.2,-.3,0,-.2,.5,-.4c.1,-.1,.1,-.2,.2,-.3h.1v.2h.4v.3h.5v-.2h.4v.2h.1V419h.2v.5h.4v-.2h.3v.4h.2v.2h.4v-.2h.1v-.2h.7v.2h.2v-.2h.4v.2h1v.2h.2v.3h.5V420h.2c.1,.3,.1,.2,.2,.4c.5,0,.2,.2,.5,.2c.1,0,.3,0,.5,0c0,.1,.1,.1,.1,.1c.1,0,.1,.1,.1,.4c.3,0,.4,-.1,.6,-.1c.2,0,.1,.1,.1,.2c0,0,0,.1,.3,.1h.1c.1,.3,.3,.2,.3,.7c.5,.1,.6,.2,.9,.5c.2,.4,0,.3,.3,.5c0,.9,0,.7,.2,1.3h.4v-.2h.1v.2h.2v-.4h.2c-.2,.3,0,.3,-.2,.5c.1,.2,.3,.2,.6,.2c-.2,.2,-.1,.2,-.2,.4c.2,-.1,.4,-.2,.5,-.2c.1,0,.2,.1,.2,.3h.3V425H186v-.2h.1c.1,.1,.1,.2,.1,.2q.1,0,.1,.3q.1,0,.1,0q.1,0,.1,.2c.5,.2,.6,.2,1.2,.3c.1,.1,.3,.3,.5,.4c.2,.4,.4,-.2,.2,.9c.2,.1,.2,.2,.4,.3c.1,0,.2,0,.3,0c.3,0,.1,.1,.6,.2c.1,.4,.3,.7,.7,.9c.4,.1,.6,.2,.8,.5c0,.2,0,.5,0,.7h.2v-.2h.4c-.2,.2,-.1,.2,-.2,.4c.5,.1,-.3,.2,.4,.2c.1,0,.2,0,.3,0c.1,.2,.3,.2,.3,.5q.1,0,.1,0c.6,0,0,.1,.8,.2c-.2,.3,.1,.3,-.2,.7c.7,.2,.7,.7,1.4,.7h.1c-.2,.1,-.3,.4,-.4,.5c.4,.2,.5,.5,.9,.7c.1,.6,.1,.4,.7,.5c0,.5,.1,0,.2,.6c.4,0,-.1,.1,.5,.1c-.1,.7,-.1,.9,-.1,.9q.1,0,.1,-.1c.1,0,.1,-.1,.1,-.1c0,0,.1,.1,.1,.2h.3v-.2h.2c0,.3,-.4,.4,0,.4c0,0,.1,0,.2,0c-.2,.3,-.2,.7,0,1c.2,.3,.5,.4,.9,.6c-.2,.4,0,.3,-.2,.7c0,0,.1,0,.1,0q.1,0,.1,.2h.1V438h.2v.3l.4,.4c.7,.1,-.1,.1,.8,.2c-.2,.4,0,.8,.6,1c0,.6,0,.2,.1,.7c.4,.1,.7,.3,.9,.5c-.2,.4,.1,.1,-.2,.8c.7,0,.2,0,.6,.1c.1,.5,.1,.7,0,1.1c.4,.2,.2,.4,.7,.5l.2,1.1c0,.6,-1,1,-.2,1.2c0,.7,-.1,1,.5,1.2c.3,.6,-.1,.3,.5,.6c0,.1,0,.3,0,.5h.2V448h.2c.1,.3,.2,.6,.3,.9c-.2,.3,.1,.9,.2,1.4c-.1,-.1,-.2,-.1,-.3,-.1c-.2,0,-.3,.2,-.2,.5c.2,-.1,.3,-.1,.4,-.1c.2,0,0,.1,.3,.2v.4h-.2V451h-.2c.1,.1,.1,.2,0,.2q-.1,0,-.1,0c.2,.7,0,1.3,-.4,1.9c.3,.3,.3,.4,.2,1.2c-.4,.1,.1,.2,-.5,.2c-.3,.6,-.1,.4,-.6,.7c.2,1,-.1,1.4,.2,2.3H203v-.2h-.1q0,.2,-.1,.2c0,0,-.1,0,-.1,0c.3,.4,-.1,1.3,.2,1.4c-.7,.9,.3,3.4,-.9,3.4c.2,.6,-.2,1.3,.1,1.9c-.2,.1,-.1,.1,-.3,.2c-.1,.4,-.2,.6,-.4,1c-.5,.2,-.5,1.2,-.1,1.6q-.1,0,-.1,0c-.2,0,-.3,.2,-.1,.5c-.6,.1,-.1,.1,-.5,.2c-.2,.6,0,1,-.6,1.3c-.1,.7,-.3,.6,-.1,1.2c-.2,-.1,-.4,-.1,-.5,-.1c-.7,0,-.9,.6,-.4,1.7h-.2v-.2h-.3v.7h-.4v.2h-.2v.3h-.2v.4h-.3V473h-.2v.4H197v.7h-.3v-.2h-.5v.3c-.4,.2,-.3,.4,-.7,.4c.2,.4,.3,1.4,-.4,1.4q-.1,0,-.2,0c.1,.8,-.2,.4,-.3,.9c-.7,.1,-.1,.1,-.7,.2c-.3,.4,-.7,1,-.4,1.5h-.1c-.4,0,-.6,.3,-.6,.7c0,0,-.1,0,-.1,0c-.1,0,-.1,.1,-.1,.2c-.2,0,-.4,0,-.5,0c-.3,0,.1,.1,-.5,.2c-.2,.2,-.3,.3,-.5,.5c-.2,.7,-.4,1,-.6,1.6c-.4,.1,-.8,.4,-.7,1.1c-.6,.2,-.6,.5,-1.2,.7c-.1,.4,-.3,.6,-.5,.8c-.1,0,-.2,0,-.3,0c-.1,0,-.1,.1,-.1,.2h-.2v-.2h-.1v.2h-.2v.2H187v.3h-.2V485h-.1v.1h-.4v.2h-.5v.2h-.4v-.2h-.9v.2h-.1v.2H184v.2h-.3v-.2h-.2v.2h-.9v-.2h-.3v.3h-.2v-.1h-.2q-.1,.1,-.2,.1q-.1,0,-.1,.4c-.2,0,-.3,-.1,-.4,-.1c-.4,0,-.5,.2,-.5,.6q-.1,0,-.1,0q-.1,0,-.1,.2q-.1,0,-.2,0c-.6,0,-1,.3,-1.2,.7c-.8,.3,-2.7,0,-3.2,.7h-.3v-.2h-.2v.2h-.7v-.2h-1.2v.2h-1.6v.2h-.2v-.2h-1.1v-.2h-.3v-.2h-3.7v.2h-1.1v.2h-2.1v-.2h-.1c-1.1,.4,-3,.4,-3.9,1.1H159v-.2h-.1v.2Z"/></clipPath>
<clipPath id="c1_49"><path d="M595.3,761.8V693.2H743.5v68.6h-.2V719.6H728.7V698.8H600.9v20.8h-5.4v42.2Z"/></clipPath>
<clipPath id="c2_49"><path d="M600.9,719.6V698.8H728.7v20.8h-.3V699H601.2v20.6Z"/></clipPath>
<clipPath id="c3_49"><path d="M595.5,763.6v-1.8h45.8c-.1,.2,0,.4,.2,.5c.1,.1,.2,.2,.4,.2c.1,0,.3,-.1,.4,-.2c.1,-.1,.2,-.3,.1,-.5h43.5l.1,.1c.1,.1,.2,.1,.4,.1c.1,0,.3,0,.4,-.1c0,-.1,.1,-.1,.1,-.1h56.4v1.8h-54q0,-.1,0,-.1c-.1,-.1,-.3,-.1,-.4,-.1c-.2,0,-.3,0,-.4,.1q-.1,0,-.1,.1Z"/></clipPath>
<clipPath id="c4_49"><path d="M644.4,760c.1,0,.3,-.1,.4,-.2c.2,-.2,.2,-.6,0,-.8c-.1,-.1,-.3,-.2,-.4,-.2c-.2,0,-.3,.1,-.4,.2c-.3,.2,-.3,.6,0,.8c.1,.1,.2,.2,.4,.2Zm39.5,-.4c.1,0,.3,-.1,.4,-.2c.2,-.3,.2,-.6,0,-.9c-.1,-.1,-.3,-.1,-.4,-.1c-.2,0,-.3,0,-.4,.1c-.3,.3,-.3,.6,0,.9c.1,.1,.2,.2,.4,.2Zm-37,-2.1c.1,0,.3,-.1,.4,-.2c.2,-.2,.2,-.6,0,-.8c-.1,-.1,-.3,-.2,-.4,-.2c-.2,0,-.3,.1,-.4,.2c-.2,.2,-.2,.6,0,.8c.1,.1,.2,.2,.4,.2Zm34.5,-.4c.2,0,.3,-.1,.4,-.2c.2,-.2,.2,-.6,0,-.8c-.1,-.1,-.2,-.2,-.4,-.2c-.1,0,-.3,.1,-.4,.2c-.2,.2,-.2,.6,0,.8c.1,.1,.3,.2,.4,.2Zm-85.9,4.7V719.6h5.4v27.5H728.7V719.6h14.6v42.2H686.9c.1,-.3,.1,-.6,-.1,-.8c-.1,-.1,-.3,-.1,-.4,-.1c-.2,0,-.3,0,-.4,.1c-.2,.2,-.3,.5,-.1,.8H642.4c0,-.1,-.1,-.2,-.1,-.3c-.1,-.1,-.3,-.2,-.4,-.2c-.2,0,-.3,.1,-.4,.2c-.1,.1,-.2,.2,-.2,.3Z"/></clipPath>
<clipPath id="c5_49"><path d="M601.4,746.7V719.6H728.2v27.1Z"/></clipPath>
<clipPath id="c6_49"><path d="M600.9,747.1V719.6h.3v27.3H728.4V719.6h.3v27.5Z"/></clipPath>
<clipPath id="c7_49"><path d="M601.2,746.9V719.6h.2v27.1H728.2V719.6h.2v27.3Z"/></clipPath>
<clipPath id="c8_49"><path d="M644.4,760c-.2,0,-.3,-.1,-.4,-.2c-.3,-.2,-.3,-.6,0,-.8c.1,-.1,.2,-.2,.4,-.2c.1,0,.3,.1,.4,.2c.2,.2,.2,.6,0,.8c-.1,.1,-.3,.2,-.4,.2Z"/></clipPath>
<clipPath id="c9_49"><path d="M641.9,762.5c-.2,0,-.3,-.1,-.4,-.2c-.2,-.1,-.3,-.3,-.2,-.5h1.1c.1,.2,0,.4,-.1,.5c-.1,.1,-.3,.2,-.4,.2Z"/></clipPath>
<clipPath id="ca_49"><path d="M641.3,761.8c0,-.1,.1,-.2,.2,-.3c.1,-.1,.2,-.2,.4,-.2c.1,0,.3,.1,.4,.2c0,.1,.1,.2,.1,.3Z"/></clipPath>
<clipPath id="cb_49"><path d="M646.9,757.5c-.2,0,-.3,-.1,-.4,-.2c-.2,-.2,-.2,-.6,0,-.8c.1,-.1,.2,-.2,.4,-.2c.1,0,.3,.1,.4,.2c.2,.2,.2,.6,0,.8c-.1,.1,-.3,.2,-.4,.2Z"/></clipPath>
<clipPath id="cc_49"><path d="M683.9,759.6c-.2,0,-.3,-.1,-.4,-.2c-.3,-.3,-.3,-.6,0,-.9c.1,-.1,.2,-.1,.4,-.1c.1,0,.3,0,.4,.1c.2,.3,.2,.6,0,.9c-.1,.1,-.3,.2,-.4,.2Z"/></clipPath>
<clipPath id="cd_49"><path d="M686.4,762c-.2,0,-.3,0,-.4,-.1q-.1,-.1,-.1,-.1h1c0,0,-.1,0,-.1,.1c-.1,.1,-.3,.1,-.4,.1Z"/></clipPath>
<clipPath id="ce_49"><path d="M685.9,761.8c-.2,-.3,-.1,-.6,.1,-.8c.1,-.1,.2,-.1,.4,-.1c.1,0,.3,0,.4,.1c.2,.2,.2,.5,.1,.8Z"/></clipPath>
<clipPath id="cf_49"><path d="M688.4,763.6q0,-.1,.1,-.1c.1,-.1,.2,-.1,.4,-.1c.1,0,.3,0,.4,.1v.1Z"/></clipPath>
<clipPath id="cg_49"><path d="M681.4,757.1c-.1,0,-.3,-.1,-.4,-.2c-.2,-.2,-.2,-.6,0,-.8c.1,-.1,.3,-.2,.4,-.2c.2,0,.3,.1,.4,.2c.2,.2,.2,.6,0,.8c-.1,.1,-.2,.2,-.4,.2Z"/></clipPath>
<clipPath id="ch_49"><path d="M596.6,807.8c.2,0,.3,-.1,.4,-.2c.2,-.2,.2,-.6,0,-.8c-.1,-.1,-.2,-.2,-.4,-.2c-.1,0,-.3,.1,-.4,.2c-.2,.2,-.2,.6,0,.8c.1,.1,.3,.2,.4,.2Zm2.5,-2.5c.2,0,.3,-.1,.4,-.2c.3,-.2,.3,-.6,0,-.8c-.1,-.2,-.2,-.2,-.4,-.2c-.1,0,-.3,0,-.4,.2c-.2,.2,-.2,.6,0,.8c.1,.1,.3,.2,.4,.2Zm2.5,-2.6c.2,0,.3,0,.4,-.1c.3,-.3,.3,-.6,0,-.9c-.1,-.1,-.2,-.1,-.4,-.1c-.1,0,-.3,0,-.4,.1c-.2,.3,-.2,.6,0,.9c.1,.1,.3,.1,.4,.1Zm2.5,-2.5c.2,0,.3,0,.5,-.2c.2,-.2,.2,-.5,0,-.8c-.2,-.1,-.3,-.1,-.5,-.1c-.1,0,-.2,0,-.4,.1c-.2,.3,-.2,.6,0,.8c.2,.2,.3,.2,.4,.2Zm2.6,-2.5c.1,0,.3,0,.4,-.2c.2,-.2,.2,-.6,0,-.8c-.1,-.1,-.3,-.2,-.4,-.2c-.2,0,-.3,.1,-.5,.2c-.2,.2,-.2,.6,0,.8c.2,.2,.3,.2,.5,.2Zm2.5,-2.5c.1,0,.3,-.1,.4,-.2c.2,-.2,.2,-.6,0,-.8c-.1,-.1,-.3,-.2,-.4,-.2c-.2,0,-.3,.1,-.4,.2c-.3,.2,-.3,.6,0,.8c.1,.1,.2,.2,.4,.2Zm-68.5,89.6V792.4h70.5c0,0,0,.1,.1,.1c.1,.1,.2,.2,.4,.2c.1,0,.3,-.1,.4,-.2c0,0,.1,-.1,.1,-.1h64.9v.9H665.4v91.5Z"/></clipPath>
<clipPath id="ci_49"><path d="M599.1,805.3c-.1,0,-.3,-.1,-.4,-.2c-.2,-.2,-.2,-.6,0,-.8c.1,-.2,.3,-.2,.4,-.2c.2,0,.3,0,.4,.2c.3,.2,.3,.6,0,.8c-.1,.1,-.2,.2,-.4,.2Zm2.5,-2.6c-.1,0,-.3,0,-.4,-.1c-.2,-.3,-.2,-.6,0,-.9c.1,-.1,.3,-.1,.4,-.1c.2,0,.3,0,.4,.1c.3,.3,.3,.6,0,.9c-.1,.1,-.2,.1,-.4,.1Zm2.5,-2.5c-.1,0,-.2,0,-.4,-.2c-.2,-.2,-.2,-.5,0,-.8c.2,-.1,.3,-.1,.4,-.1c.2,0,.3,0,.5,.1c.2,.3,.2,.6,0,.8c-.2,.2,-.3,.2,-.5,.2Zm2.6,-2.5c-.2,0,-.3,0,-.5,-.2c-.2,-.2,-.2,-.6,0,-.8c.2,-.1,.3,-.2,.5,-.2c.1,0,.3,.1,.4,.2c.2,.2,.2,.6,0,.8c-.1,.2,-.3,.2,-.4,.2Zm2.5,-2.5c-.2,0,-.3,-.1,-.4,-.2c-.3,-.2,-.3,-.6,0,-.8c.1,-.1,.2,-.2,.4,-.2c.1,0,.3,.1,.4,.2c.2,.2,.2,.6,0,.8c-.1,.1,-.3,.2,-.4,.2Zm2.5,-2.5c-.2,0,-.3,-.1,-.4,-.2c-.1,0,-.1,-.1,-.1,-.1h1c0,0,-.1,.1,-.1,.1c-.1,.1,-.3,.2,-.4,.2Z"/></clipPath>
<clipPath id="cj_49"><path d="M596.6,807.8c-.1,0,-.3,-.1,-.4,-.2c-.2,-.2,-.2,-.6,0,-.8c.1,-.1,.3,-.2,.4,-.2c.2,0,.3,.1,.4,.2c.2,.2,.2,.6,0,.8c-.1,.1,-.2,.2,-.4,.2Z"/></clipPath>
<clipPath id="ck_49"><path d="M731.1,806.8c.2,0,.3,-.1,.5,-.2c.2,-.2,.2,-.6,0,-.8c-.2,-.1,-.3,-.2,-.5,-.2c-.1,0,-.2,.1,-.4,.2c-.2,.2,-.2,.6,0,.8c.2,.1,.3,.2,.4,.2Zm-2.4,-2.5c.1,0,.3,0,.4,-.2c.2,-.2,.2,-.6,0,-.8c-.1,-.1,-.3,-.2,-.4,-.2c-.2,0,-.3,.1,-.4,.2c-.3,.2,-.3,.6,0,.8c.1,.2,.2,.2,.4,.2Zm-2.5,-2.5c.1,0,.3,0,.4,-.1c.2,-.3,.2,-.6,0,-.9c-.1,-.1,-.3,-.1,-.4,-.1c-.2,0,-.3,0,-.4,.1c-.3,.3,-.3,.6,0,.9c.1,.1,.2,.1,.4,.1Zm-2.5,-2.5c.1,0,.3,0,.4,-.1c.2,-.3,.2,-.6,0,-.9c-.1,-.1,-.3,-.1,-.4,-.1c-.2,0,-.3,0,-.4,.1c-.3,.3,-.3,.6,0,.9c.1,.1,.2,.1,.4,.1Zm-2.5,-2.4c.1,0,.3,-.1,.4,-.2c.2,-.2,.2,-.6,0,-.8c-.1,-.2,-.3,-.2,-.4,-.2c-.2,0,-.3,0,-.4,.2c-.2,.2,-.2,.6,0,.8c.1,.1,.2,.2,.4,.2Zm-55.8,88.8v-.9h11.7V793.3h41.2q0,.1,0,.1c-.2,.2,-.2,.6,0,.8c.1,.1,.3,.2,.4,.2c.2,0,.3,-.1,.4,-.2c.3,-.2,.3,-.6,0,-.8v-.1h82.7v92.4Z"/></clipPath>
<clipPath id="cl_49"><path d="M728.7,804.3c-.2,0,-.3,0,-.4,-.2c-.3,-.2,-.3,-.6,0,-.8c.1,-.1,.2,-.2,.4,-.2c.1,0,.3,.1,.4,.2c.2,.2,.2,.6,0,.8c-.1,.2,-.3,.2,-.4,.2Zm-2.5,-2.5c-.2,0,-.3,0,-.4,-.1c-.3,-.3,-.3,-.6,0,-.9c.1,-.1,.2,-.1,.4,-.1c.1,0,.3,0,.4,.1c.2,.3,.2,.6,0,.9c-.1,.1,-.3,.1,-.4,.1Zm-2.5,-2.5c-.2,0,-.3,0,-.4,-.1c-.3,-.3,-.3,-.6,0,-.9c.1,-.1,.2,-.1,.4,-.1c.1,0,.3,0,.4,.1c.2,.3,.2,.6,0,.9c-.1,.1,-.3,.1,-.4,.1Zm-2.5,-2.4c-.2,0,-.3,-.1,-.4,-.2c-.2,-.2,-.2,-.6,0,-.8c.1,-.2,.2,-.2,.4,-.2c.1,0,.3,0,.4,.2c.2,.2,.2,.6,0,.8c-.1,.1,-.3,.2,-.4,.2Zm-2.5,-2.5c-.1,0,-.3,-.1,-.4,-.2c-.2,-.2,-.2,-.6,0,-.8v-.1h.8q0,.1,0,.1c.3,.2,.3,.6,0,.8c-.1,.1,-.2,.2,-.4,.2Z"/></clipPath>
<clipPath id="cm_49"><path d="M731.1,806.8c-.1,0,-.2,-.1,-.4,-.2c-.2,-.2,-.2,-.6,0,-.8c.2,-.1,.3,-.2,.4,-.2c.2,0,.3,.1,.5,.2c.2,.2,.2,.6,0,.8c-.2,.1,-.3,.2,-.5,.2Z"/></clipPath>
<clipPath id="cn_49"><path d="M665.4,884.8V793.3h11.7v91.5Z"/></clipPath>
<clipPath id="co_49"><path d="M-2.6,1047.7V-2.6H910.2V1047.7Z"/></clipPath>
<style type="text/css"><![CDATA[
.g0_49{
fill: #EFEFEF;
}
.g1_49{
fill: none;
stroke: #000000;
stroke-width: 0.384;
stroke-linecap: butt;
stroke-linejoin: miter;
stroke-miterlimit: 4;
}
.g2_49{
fill: #FFFFFF;
}
.g3_49{
}
.g4_49{
fill: none;
stroke: #000000;
stroke-width: 0.492;
stroke-linecap: butt;
stroke-linejoin: miter;
stroke-miterlimit: 4;
}
.g5_49{
fill: none;
stroke: #000000;
stroke-width: 0.822;
stroke-linecap: butt;
stroke-linejoin: miter;
stroke-miterlimit: 4;
}
.g6_49{
fill: none;
stroke: #000000;
stroke-width: 0.656;
stroke-linecap: butt;
stroke-linejoin: miter;
stroke-miterlimit: 4;
}
.g7_49{
fill: none;
stroke: #FFFFFF;
stroke-width: 1.909;
stroke-linecap: butt;
stroke-linejoin: miter;
}
.g8_49{
fill: none;
stroke: #000000;
stroke-width: 0.381;
stroke-linecap: butt;
stroke-linejoin: miter;
}
]]></style>
</defs>
<path d="M124.1,412.8v87.9H446.5V412.8H124.1Z" class="g0_49"/>
<path d="M124.1,412.8c.7,.7,.7,2.1,0,2.9c-.7,.7,-.7,2.1,0,2.8c.7,.8,.7,2.2,0,2.9c-.7,.7,-.7,2.2,0,2.9c.7,.7,.7,2.1,0,2.8c-.7,.8,-.7,2.2,0,2.9c.7,.7,.7,2.2,0,2.9c-.7,.7,-.7,2.1,0,2.8c.7,.8,.7,2.2,0,2.9c-.7,.7,-.7,2.2,0,2.9c.7,.7,.7,2.1,0,2.9c-.7,.7,-.7,2.1,0,2.8c.7,.7,.7,2.2,0,2.9c-.7,.7,-.7,2.1,0,2.9c.7,.7,.7,2.1,0,2.8c-.7,.7,-.7,2.2,0,2.9c.7,.7,.7,2.1,0,2.9c-.7,.7,-.7,2.1,0,2.8c.7,.8,.7,2.2,0,2.9c-.7,.7,-.7,2.2,0,2.9c.7,.7,.7,2.1,0,2.8c-.7,.8,-.7,2.2,0,2.9c.7,.7,.7,2.2,0,2.9c-.7,.7,-.7,2.1,0,2.8c.7,.8,.7,2.2,0,2.9c-.7,.7,-.7,2.2,0,2.9c.7,.7,.7,2.1,0,2.9c-.7,.7,-.7,2.1,0,2.8c.7,.7,.7,2.2,0,2.9c-.7,.7,-.7,2.1,0,2.9c.7,.7,.4,1.1,1.1,1.8c.7,.7,2.2,.7,2.9,0c.7,-.7,2.1,-.7,2.8,0c.8,.7,2.2,.7,2.9,0c.7,-.7,2.2,-.7,2.9,0c.7,.7,2.1,.7,2.8,0c.8,-.7,2.2,-.7,2.9,0c.7,.7,2.2,.7,2.9,0c.7,-.7,2.1,-.7,2.8,0c.8,.7,2.2,.7,2.9,0c.7,-.7,2.2,-.7,2.9,0c.7,.7,2.1,.7,2.9,0c.7,-.7,2.1,-.7,2.8,0c.7,.7,2.2,.7,2.9,0c.7,-.7,2.1,-.7,2.9,0c.7,.7,2.1,.7,2.8,0c.7,-.7,2.2,-.7,2.9,0c.7,.7,2.1,.7,2.9,0c.7,-.7,2.1,-.7,2.8,0c.8,.7,2.2,.7,2.9,0c.7,-.7,2.2,-.7,2.9,0c.7,.7,2.1,.7,2.8,0c.8,-.7,2.2,-.7,2.9,0c.7,.7,2.2,.7,2.9,0c.7,-.7,2.1,-.7,2.8,0c.8,.7,2.2,.7,2.9,0c.7,-.7,2.2,-.7,2.9,0c.7,.7,2.1,.7,2.9,0c.7,-.7,2.1,-.7,2.8,0c.7,.7,2.2,.7,2.9,0c.7,-.7,2.1,-.7,2.9,0c.7,.7,2.1,.7,2.8,0c.7,-.7,2.2,-.7,2.9,0c.7,.7,2.1,.7,2.9,0c.7,-.7,2.1,-.7,2.8,0c.8,.7,2.2,.7,2.9,0c.7,-.7,2.2,-.7,2.9,0c.7,.7,2.1,.7,2.8,0c.8,-.7,2.2,-.7,2.9,0c.7,.7,2.2,.7,2.9,0c.7,-.7,2.1,-.7,2.8,0c.8,.7,2.2,.7,2.9,0c.7,-.7,2.2,-.7,2.9,0c.7,.7,2.1,.7,2.9,0c.7,-.7,2.1,-.7,2.8,0c.7,.7,2.2,.7,2.9,0c.7,-.7,2.1,-.7,2.9,0c.7,.7,2.1,.7,2.8,0c.7,-.7,2.2,-.7,2.9,0c.7,.7,2.1,.7,2.9,0c.7,-.7,2.1,-.7,2.8,0c.7,.7,2.2,.7,2.9,0c.7,-.7,2.2,-.7,2.9,0c.7,.7,2.1,.7,2.8,0c.8,-.7,2.2,-.7,2.9,0c.7,.7,2.2,.7,2.9,0c.7,-.7,2.1,-.7,2.8,0c.8,.7,2.2,.7,2.9,0c.7,-.7,2.2,-.7,2.9,0c.7,.7,2.1,.7,2.9,0c.7,-.7,2.1,-.7,2.8,0c.7,.7,2.2,.7,2.9,0c.7,-.7,2.1,-.7,2.9,0c.7,.7,2.1,.7,2.8,0c.7,-.7,2.2,-.7,2.9,0c.7,.7,2.1,.7,2.9,0c.7,-.7,2.1,-.7,2.8,0c.7,.7,2.2,.7,2.9,0c.7,-.7,2.2,-.7,2.9,0c.7,.7,2.1,.7,2.8,0c.8,-.7,2.2,-.7,2.9,0c.7,.7,2.2,.7,2.9,0c.7,-.7,2.1,-.7,2.8,0c.8,.7,2.2,.7,2.9,0c.7,-.7,2.2,-.7,2.9,0c.7,.7,2.1,.7,2.8,0c.8,-.7,2.2,-.7,2.9,0c.7,.7,2.2,.7,2.9,0c.7,-.7,2.1,-.7,2.9,0c.7,.7,2.1,.7,2.8,0c.7,-.7,2.2,-.7,2.9,0c.7,.7,2.1,.7,2.9,0c.7,-.7,2.1,-.7,2.8,0c.7,.7,2.2,.7,2.9,0c.7,-.7,2.2,-.7,2.9,0c.7,.7,2.1,.7,2.8,0c.8,-.7,2.2,-.7,2.9,0c.7,.7,2.2,.7,2.9,0c.7,-.7,2.1,-.7,2.8,0c.8,.7,2.2,.7,2.9,0c.7,-.7,2.2,-.7,2.9,0c.7,.7,2.1,.7,2.8,0c.8,-.7,2.2,-.7,2.9,0c.7,.7,2.2,.7,2.9,0c.7,-.7,2.1,-.7,2.9,0c.7,.7,2.1,.7,2.8,0c.7,-.7,2.2,-.7,2.9,0c.7,.7,2.1,.7,2.9,0c.7,-.7,2.1,-.7,2.8,0c.7,.7,2.2,.7,2.9,0c.7,-.7,2.1,-.7,2.9,0c.7,.7,2.1,.7,2.8,0c.8,-.7,2.2,-.7,2.9,0c.7,.7,2.2,.7,2.9,0c.7,-.7,2.1,-.7,2.8,0c.8,.7,2.2,.7,2.9,0c.7,-.7,2.2,-.7,2.9,0c.7,.7,2.1,.7,2.8,0c.8,-.7,2.2,-.7,2.9,0c.7,.7,2.2,.7,2.9,0c.7,-.7,2.1,-.7,2.9,0c.7,.7,2.1,.7,2.8,0c.7,-.7,2.2,-.7,2.9,0c.7,-.7,.7,-2.2,0,-2.9c-.7,-.7,-.7,-2.2,0,-2.9c.7,-.7,.7,-2.1,0,-2.8c-.7,-.8,-.7,-2.2,0,-2.9c.7,-.7,.7,-2.2,0,-2.9c-.7,-.7,-.7,-2.1,0,-2.8c.7,-.8,.7,-2.2,0,-2.9c-.7,-.7,-.7,-2.2,0,-2.9c.7,-.7,.7,-2.1,0,-2.8c-.7,-.8,-.7,-2.2,0,-2.9c.7,-.7,.7,-2.2,0,-2.9c-.7,-.7,-.7,-2.1,0,-2.9c.7,-.7,.7,-2.1,0,-2.8c-.7,-.7,-.7,-2.2,0,-2.9c.7,-.7,.7,-2.1,0,-2.9c-.7,-.7,-.7,-2.1,0,-2.8c.7,-.7,.7,-2.2,0,-2.9c-.7,-.7,-.7,-2.2,0,-2.9c.7,-.7,.7,-2.1,0,-2.8c-.7,-.8,-.7,-2.2,0,-2.9c.7,-.7,.7,-2.2,0,-2.9c-.7,-.7,-.7,-2.1,0,-2.8c.7,-.8,.7,-2.2,0,-2.9c-.7,-.7,-.7,-2.2,0,-2.9c.7,-.7,.7,-2.1,0,-2.8c-.7,-.8,-.7,-2.2,0,-2.9c.7,-.7,.7,-2.2,0,-2.9c-.7,-.7,-.7,-2.1,0,-2.9c.7,-.7,.7,-2.1,0,-2.8c-.7,-.7,-.7,-2.2,0,-2.9c.7,-.7,-.4,-2.5,-1.1,-1.8c-.7,.7,-2.1,.7,-2.8,0c-.8,-.7,-2.2,-.7,-2.9,0c-.7,.7,-2.2,.7,-2.9,0c-.7,-.7,-2.1,-.7,-2.8,0c-.8,.7,-2.2,.7,-2.9,0c-.7,-.7,-2.2,-.7,-2.9,0c-.7,.7,-2.1,.7,-2.8,0c-.8,-.7,-2.2,-.7,-2.9,0c-.7,.7,-2.2,.7,-2.9,0c-.7,-.7,-2.1,-.7,-2.9,0c-.7,.7,-2.1,.7,-2.8,0c-.7,-.7,-2.2,-.7,-2.9,0c-.7,.7,-2.1,.7,-2.9,0c-.7,-.7,-2.1,-.7,-2.8,0c-.7,.7,-2.2,.7,-2.9,0c-.7,-.7,-2.2,-.7,-2.9,0c-.7,.7,-2.1,.7,-2.8,0c-.8,-.7,-2.2,-.7,-2.9,0c-.7,.7,-2.2,.7,-2.9,0c-.7,-.7,-2.1,-.7,-2.8,0c-.8,.7,-2.2,.7,-2.9,0c-.7,-.7,-2.2,-.7,-2.9,0c-.7,.7,-2.1,.7,-2.8,0c-.8,-.7,-2.2,-.7,-2.9,0c-.7,.7,-2.2,.7,-2.9,0c-.7,-.7,-2.1,-.7,-2.9,0c-.7,.7,-2.1,.7,-2.8,0c-.7,-.7,-2.2,-.7,-2.9,0c-.7,.7,-2.1,.7,-2.9,0c-.7,-.7,-2.1,-.7,-2.8,0c-.7,.7,-2.2,.7,-2.9,0c-.7,-.7,-2.1,-.7,-2.9,0c-.7,.7,-2.1,.7,-2.8,0c-.8,-.7,-2.2,-.7,-2.9,0c-.7,.7,-2.2,.7,-2.9,0c-.7,-.7,-2.1,-.7,-2.8,0c-.8,.7,-2.2,.7,-2.9,0c-.7,-.7,-2.2,-.7,-2.9,0c-.7,.7,-2.1,.7,-2.8,0c-.8,-.7,-2.2,-.7,-2.9,0c-.7,.7,-2.2,.7,-2.9,0c-.7,-.7,-2.1,-.7,-2.9,0c-.7,.7,-2.1,.7,-2.8,0c-.7,-.7,-2.2,-.7,-2.9,0c-.7,.7,-2.1,.7,-2.9,0c-.7,-.7,-2.1,-.7,-2.8,0c-.7,.7,-2.2,.7,-2.9,0c-.7,-.7,-2.1,-.7,-2.9,0c-.7,.7,-2.1,.7,-2.8,0c-.8,-.7,-2.2,-.7,-2.9,0c-.7,.7,-2.2,.7,-2.9,0c-.7,-.7,-2.1,-.7,-2.8,0c-.8,.7,-2.2,.7,-2.9,0c-.7,-.7,-2.2,-.7,-2.9,0c-.7,.7,-2.1,.7,-2.8,0c-.8,-.7,-2.2,-.7,-2.9,0c-.7,.7,-2.2,.7,-2.9,0c-.7,-.7,-2.1,-.7,-2.9,0c-.7,.7,-2.1,.7,-2.8,0c-.7,-.7,-2.2,-.7,-2.9,0c-.7,.7,-2.1,.7,-2.9,0c-.7,-.7,-2.1,-.7,-2.8,0c-.7,.7,-2.2,.7,-2.9,0c-.7,-.7,-2.1,-.7,-2.9,0c-.7,.7,-2.1,.7,-2.8,0c-.7,-.7,-2.2,-.7,-2.9,0c-.7,.7,-2.2,.7,-2.9,0c-.7,-.7,-2.1,-.7,-2.8,0c-.8,.7,-2.2,.7,-2.9,0c-.7,-.7,-2.2,-.7,-2.9,0c-.7,.7,-2.1,.7,-2.8,0c-.8,-.7,-2.2,-.7,-2.9,0c-.7,.7,-2.2,.7,-2.9,0c-.7,-.7,-2.1,-.7,-2.9,0c-.7,.7,-2.1,.7,-2.8,0c-.7,-.7,-2.2,-.7,-2.9,0c-.7,.7,-2.1,.7,-2.9,0c-.7,-.7,-2.1,-.7,-2.8,0c-.7,.7,-2.2,.7,-2.9,0c-.7,-.7,-2.1,-.7,-2.9,0c-.7,.7,-2.1,.7,-2.8,0c-.7,-.7,-2.2,-.7,-2.9,0c-.7,.7,-2.2,.7,-2.9,0c-.7,-.7,-2.1,-.7,-2.8,0c-.8,.7,-2.2,.7,-2.9,0c-.7,-.7,-2.2,-.7,-2.9,0c-.7,.7,-2.1,.7,-2.8,0c-.8,-.7,-2.2,-.7,-2.9,0c-.7,.7,-2.2,.7,-2.9,0c-.7,-.7,-2.1,-.7,-2.8,0c-.8,.7,-2.2,.7,-2.9,0c-.7,-.7,-2.2,-.7,-2.9,0c-.7,.7,-2.1,.7,-2.9,0c-.7,-.7,-2.1,-.7,-2.8,0c-.7,.7,-2.2,.7,-2.9,0c-.7,-.7,-2.1,-.7,-2.9,0c-.7,.7,-2.1,.7,-2.8,0c-.7,-.7,-2.2,-.7,-2.9,0c-.7,.7,-2.1,.7,-2.9,0c-.7,-.7,-2.1,-.7,-2.8,0c-.8,.7,-2.2,.7,-2.9,0c-.7,-.7,-2.2,-.7,-2.9,0c-.7,.7,-2.1,.7,-2.8,0c-.8,-.7,-2.2,-.7,-2.9,0c-.7,.7,-2.2,.7,-2.9,0c-.7,-.7,-2.1,-.7,-2.8,0c-.8,.7,-2.2,.7,-2.9,0c-.7,-.7,-2.2,-.7,-2.9,0c-.7,.7,-2.1,.7,-2.9,0c-.7,-.7,-2.1,-.7,-2.8,0c-.7,.7,-2.2,.7,-2.9,0c-.7,-.7,-2.1,-.7,-2.9,0" class="g1_49"/>
<g clip-path="url(#c0_49)">
<image clip-path="url(#c0_49)" preserveAspectRatio="none" x="123" y="410" width="88" height="88" xlink:href="img/1.jpg"/>
</g>
<image clip-path="url(#c1_49)" preserveAspectRatio="none" x="595" y="693" width="149" height="69" xlink:href="img/2.jpg"/>
<image clip-path="url(#c2_49)" preserveAspectRatio="none" x="600" y="698" width="129" height="22" xlink:href="img/3.jpg"/>
<path d="M601.2,699v47.9H728.4V699H601.2Z" class="g2_49"/>
<path d="M601.2,699h-.3v48.1H728.7V698.8H600.9v.2h.3v.2H728.4V699h-.2v47.9h.2v-.2H601.2v.2h.2V699h-.2v.2V699Z" class="g3_49"/>
<image clip-path="url(#c3_49)" preserveAspectRatio="none" x="595" y="761" width="149" height="3" xlink:href="img/4.jpg"/>
<image clip-path="url(#c4_49)" preserveAspectRatio="none" x="595" y="719" width="149" height="43" xlink:href="img/5.jpg"/>
<image clip-path="url(#c5_49)" preserveAspectRatio="none" x="601" y="719" width="128" height="28" xlink:href="img/6.jpg"/>
<image clip-path="url(#c6_49)" preserveAspectRatio="none" x="601" y="719" width="128" height="28" xlink:href="img/7.jpg"/>
<image clip-path="url(#c7_49)" preserveAspectRatio="none" x="601" y="719" width="128" height="28" xlink:href="img/8.jpg"/>
<image clip-path="url(#c8_49)" preserveAspectRatio="none" x="643" y="758" width="2" height="2" xlink:href="img/9.jpg"/>
<image clip-path="url(#c9_49)" preserveAspectRatio="none" x="641" y="761" width="2" height="2" xlink:href="img/10.jpg"/>
<image clip-path="url(#ca_49)" preserveAspectRatio="none" x="641" y="761" width="2" height="1" xlink:href="img/11.jpg"/>
<image clip-path="url(#cb_49)" preserveAspectRatio="none" x="646" y="756" width="2" height="2" xlink:href="img/12.jpg"/>
<image clip-path="url(#cc_49)" preserveAspectRatio="none" x="683" y="758" width="2" height="2" xlink:href="img/13.jpg"/>
<image clip-path="url(#cd_49)" preserveAspectRatio="none" x="685" y="761" width="2" height="1" xlink:href="img/14.jpg"/>
<image clip-path="url(#ce_49)" preserveAspectRatio="none" x="685" y="761" width="2" height="1" xlink:href="img/15.jpg"/>
<image clip-path="url(#cf_49)" preserveAspectRatio="none" x="688" y="763" width="2" height="1" xlink:href="img/16.jpg"/>
<image clip-path="url(#cg_49)" preserveAspectRatio="none" x="680" y="755" width="2" height="2" xlink:href="img/17.jpg"/>
<path d="M601.6,725.3v24H728.5v-24H601.6Z" class="g2_49"/>
<path d="M601.6,725.3v24H728.5v-24H601.6Z" class="g4_49"/>
<path d="M599.5,805.1c.3,-.2,.3,-.6,0,-.8c-.2,-.3,-.6,-.3,-.8,0c-.2,.2,-.2,.6,0,.8c.2,.2,.6,.2,.8,0m2.5,-2.5c.3,-.2,.3,-.6,0,-.9c-.2,-.2,-.6,-.2,-.8,0c-.2,.3,-.2,.7,0,.9c.2,.2,.6,.2,.8,0m2.6,-2.5c.2,-.3,.2,-.6,0,-.9c-.3,-.2,-.6,-.2,-.9,0c-.2,.3,-.2,.6,0,.9c.3,.2,.6,.2,.9,0m2.5,-2.5c.2,-.3,.2,-.7,0,-.9c-.2,-.2,-.6,-.2,-.9,0c-.2,.2,-.2,.6,0,.9c.3,.2,.7,.2,.9,0m2.5,-2.6c.2,-.2,.2,-.6,0,-.8c-.2,-.2,-.6,-.2,-.8,0c-.3,.2,-.3,.6,0,.8c.2,.3,.6,.3,.8,0m2.5,-2.5c.2,-.2,.2,-.6,0,-.8c-.2,-.2,-.6,-.2,-.8,0c-.2,.2,-.2,.6,0,.8c.2,.2,.6,.2,.8,0m2.5,-2.5c.2,-.2,.2,-.6,0,-.8c-.2,-.2,-.6,-.2,-.8,0c-.2,.2,-.2,.6,0,.8c.2,.2,.6,.2,.8,0m2.5,-2.5c.3,-.2,.3,-.6,0,-.8c-.2,-.3,-.6,-.3,-.8,0c-.2,.2,-.2,.6,0,.8c.2,.2,.6,.2,.8,0m2.6,-2.5c.2,-.2,.2,-.6,0,-.9c-.3,-.2,-.7,-.2,-.9,0c-.2,.3,-.2,.7,0,.9c.2,.2,.6,.2,.9,0m2.5,-2.5c.2,-.3,.2,-.6,0,-.9c-.3,-.2,-.6,-.2,-.9,0c-.2,.3,-.2,.6,0,.9c.3,.2,.6,.2,.9,0m2.5,-2.6c.2,-.2,.2,-.6,0,-.8c-.2,-.2,-.6,-.2,-.9,0c-.2,.2,-.2,.6,0,.8c.3,.3,.7,.3,.9,0m2.5,-2.5c.2,-.2,.2,-.6,0,-.8c-.2,-.2,-.6,-.2,-.8,0c-.3,.2,-.3,.6,0,.8c.2,.3,.6,.3,.8,0m2.5,-2.5c.2,-.2,.2,-.6,0,-.8c-.2,-.2,-.6,-.2,-.8,0c-.2,.2,-.2,.6,0,.8c.2,.2,.6,.2,.8,0m2.5,-2.5c.2,-.2,.2,-.6,0,-.8c-.2,-.3,-.6,-.3,-.8,0c-.2,.2,-.2,.6,0,.8c.2,.2,.6,.2,.8,0m2.5,-2.5c.3,-.2,.3,-.6,0,-.8c-.2,-.3,-.6,-.3,-.8,0c-.2,.2,-.2,.6,0,.8c.2,.2,.6,.2,.8,0m2.6,-2.5c.2,-.2,.2,-.6,0,-.9c-.3,-.2,-.7,-.2,-.9,0c-.2,.3,-.2,.7,0,.9c.2,.2,.6,.2,.9,0m2.5,-2.5c.2,-.3,.2,-.6,0,-.9c-.3,-.2,-.6,-.2,-.9,0c-.2,.3,-.2,.6,0,.9c.3,.2,.6,.2,.9,0m2.5,-2.6c.2,-.2,.2,-.6,0,-.8c-.2,-.2,-.6,-.2,-.8,0c-.3,.2,-.3,.6,0,.8c.2,.3,.6,.3,.8,0m2.5,-2.5c.2,-.2,.2,-.6,0,-.8c-.2,-.2,-.6,-.2,-.8,0c-.3,.2,-.3,.6,0,.8c.2,.3,.6,.3,.8,0Z" class="g3_49"/>
<path d="M596.2,807.6c.2,.2,.6,.2,.8,0c.2,-.2,.2,-.6,0,-.8c-.2,-.2,-.6,-.2,-.8,0c-.2,.2,-.2,.6,0,.8m50.3,-50.3c.2,.2,.6,.2,.8,0c.2,-.2,.2,-.6,0,-.8c-.2,-.2,-.6,-.2,-.8,0c-.2,.2,-.2,.6,0,.8Z" class="g3_49"/>
<path d="M651.5,752.8l-11.1,-.2l10.7,10.7l.4,-10.5Z" class="g2_49"/>
<path d="M651.5,752.8l-11.1,-.2l10.7,10.7l.4,-10.5Z" class="g5_49"/>
<path d="M729.1,803.3c-.3,-.2,-.6,-.2,-.8,0c-.3,.2,-.3,.6,0,.8c.2,.3,.5,.3,.8,0c.2,-.2,.2,-.6,0,-.8m-2.5,-2.5c-.2,-.2,-.6,-.2,-.8,0c-.3,.3,-.3,.6,0,.9c.2,.2,.6,.2,.8,0c.2,-.3,.2,-.6,0,-.9m-2.5,-2.5c-.2,-.2,-.6,-.2,-.8,0c-.3,.3,-.3,.6,0,.9c.2,.2,.6,.2,.8,0c.2,-.3,.2,-.6,0,-.9m-2.5,-2.4c-.2,-.3,-.6,-.3,-.8,0c-.2,.2,-.2,.6,0,.8c.2,.2,.6,.2,.8,0c.2,-.2,.2,-.6,0,-.8m-2.5,-2.5c-.2,-.3,-.6,-.3,-.8,0c-.2,.2,-.2,.6,0,.8c.2,.2,.6,.2,.8,0c.3,-.2,.3,-.6,0,-.8m-2.5,-2.5c-.2,-.2,-.6,-.2,-.8,0c-.2,.2,-.2,.6,0,.8c.2,.2,.6,.2,.8,0c.3,-.2,.3,-.6,0,-.8m-2.5,-2.5c-.2,-.2,-.5,-.2,-.8,0c-.2,.2,-.2,.6,0,.8c.3,.2,.6,.2,.8,0c.3,-.2,.3,-.6,0,-.8m-2.4,-2.5c-.3,-.2,-.6,-.2,-.9,0c-.2,.2,-.2,.6,0,.8c.3,.3,.6,.3,.9,0c.2,-.2,.2,-.6,0,-.8m-2.5,-2.5c-.3,-.2,-.6,-.2,-.8,0c-.3,.2,-.3,.6,0,.8c.2,.3,.5,.3,.8,0c.2,-.2,.2,-.6,0,-.8m-2.5,-2.5c-.2,-.2,-.6,-.2,-.8,0c-.3,.3,-.3,.6,0,.9c.2,.2,.6,.2,.8,0c.2,-.3,.2,-.6,0,-.9m-2.5,-2.5c-.2,-.2,-.6,-.2,-.8,0c-.3,.3,-.3,.6,0,.9c.2,.2,.6,.2,.8,0c.2,-.3,.2,-.6,0,-.9M701.7,776c-.2,-.3,-.6,-.3,-.8,0c-.2,.2,-.2,.6,0,.8c.2,.2,.6,.2,.8,0c.2,-.2,.2,-.6,0,-.8m-2.5,-2.5c-.2,-.3,-.6,-.3,-.8,0c-.2,.2,-.2,.6,0,.8c.2,.2,.6,.2,.8,0c.3,-.2,.3,-.6,0,-.8M696.7,771c-.2,-.2,-.6,-.2,-.8,0c-.2,.2,-.2,.6,0,.8c.2,.2,.6,.2,.8,0c.3,-.2,.3,-.6,0,-.8m-2.5,-2.5c-.2,-.2,-.5,-.2,-.8,0c-.2,.2,-.2,.6,0,.8c.3,.2,.6,.2,.8,0c.3,-.2,.3,-.6,0,-.8M691.8,766c-.3,-.2,-.6,-.2,-.9,0c-.2,.2,-.2,.6,0,.8c.3,.3,.6,.3,.9,0c.2,-.2,.2,-.6,0,-.8m-2.5,-2.5c-.3,-.2,-.6,-.2,-.8,0c-.3,.2,-.3,.6,0,.8c.2,.3,.5,.3,.8,0c.2,-.2,.2,-.6,0,-.8M686.8,761c-.2,-.2,-.6,-.2,-.8,0c-.3,.3,-.3,.6,0,.9c.2,.2,.6,.2,.8,0c.2,-.3,.2,-.6,0,-.9m-2.5,-2.5c-.2,-.2,-.6,-.2,-.8,0c-.3,.3,-.3,.6,0,.9c.2,.2,.6,.2,.8,0c.2,-.3,.2,-.6,0,-.9Z" class="g3_49"/>
<path d="M731.6,806.6c.2,-.2,.2,-.6,0,-.8c-.3,-.2,-.6,-.2,-.9,0c-.2,.2,-.2,.6,0,.8c.3,.3,.6,.3,.9,0M681.8,756.9c.2,-.2,.2,-.6,0,-.8c-.2,-.3,-.6,-.3,-.8,0c-.2,.2,-.2,.6,0,.8c.2,.2,.6,.2,.8,0Z" class="g3_49"/>
<path d="M677.3,751.9l-.2,11.1l10.7,-10.7l-10.5,-.4Z" class="g2_49"/>
<path d="M677.3,751.9l-.2,11.1l10.7,-10.7l-10.5,-.4Z" class="g5_49"/>
<image clip-path="url(#ch_49)" preserveAspectRatio="none" x="540" y="792" width="137" height="93" xlink:href="img/18.jpg"/>
<image clip-path="url(#ci_49)" preserveAspectRatio="none" x="598" y="792" width="15" height="14" xlink:href="img/19.jpg"/>
<image clip-path="url(#cj_49)" preserveAspectRatio="none" x="596" y="806" width="2" height="2" xlink:href="img/20.jpg"/>
<path d="M546.5,798.1v72H662.8v-72H546.5Z" class="g2_49"/>
<path d="M546.5,798.1v72.1H662.8V798.1H546.5Z" class="g4_49"/>
<path d="M546.5,816.2H662.4" class="g6_49"/>
<image clip-path="url(#ck_49)" preserveAspectRatio="none" x="665" y="793" width="137" height="93" xlink:href="img/21.jpg"/>
<image clip-path="url(#cl_49)" preserveAspectRatio="none" x="718" y="793" width="12" height="12" xlink:href="img/22.jpg"/>
<image clip-path="url(#cm_49)" preserveAspectRatio="none" x="730" y="805" width="2" height="2" xlink:href="img/23.jpg"/>
<image clip-path="url(#cn_49)" preserveAspectRatio="none" x="665" y="793" width="12" height="92" xlink:href="img/24.jpg"/>
<path d="M671.2,799.1v72H787.4v-72H671.2Z" class="g2_49"/>
<path d="M671.2,799.1v72H787.4v-72H671.2Z" class="g4_49"/>
<path d="M671.1,817.2h116" class="g6_49"/>
<g clip-path="url(#co_49)">
<path d="M-4.5,13.7H-27.4m939.5,0H935M-4.5,1031.2H-27.4m939.5,0H935M13.7,-4.5V-27.4m0,1077v22.9m880,-1077V-27.4m0,1077v22.9" class="g7_49"/>
<path d="M-4.5,13.7H-27.4m939.5,0H935M-4.5,1031.2H-27.4m939.5,0H935M13.7,-4.5V-27.4m0,1077v22.9m880,-1077V-27.4m0,1077v22.9" class="g8_49"/>
</g>
</svg>