<?xml version="1.0" encoding="UTF-8" standalone="no"?>
<!DOCTYPE svg PUBLIC "-//W3C//DTD SVG 1.1//EN"
"http://www.w3.org/Graphics/SVG/1.1/DTD/svg11.dtd">
<svg viewBox="0 0 931 1096" version="1.1" xmlns="http://www.w3.org/2000/svg" xmlns:xlink="http://www.w3.org/1999/xlink">
<defs>
<clipPath id="c0_349"><path d="M532.6,538V504.1h73.7V538Z"/></clipPath>
<style type="text/css"><![CDATA[
.g0_349{
fill: none;
stroke: #241F1F;
stroke-width: 0.763;
stroke-miterlimit: 10;
}
.g1_349{
fill: none;
stroke: #00AEEF;
stroke-width: 0.763;
}
.g2_349{
fill: none;
stroke: #00AEEF;
stroke-width: 1.145;
}
]]></style>
</defs>
<path d="M542.4,269.2h57M497.8,373.1h57m109.3,0h57" class="g0_349"/>
<path clip-path="url(#c0_349)" d="M588.4,520.6h18.3" class="g0_349"/>
<path d="M487,491.5c0,0,-3.1,0,-3.1,3.1v52.7c0,0,0,3.1,3.1,3.1H732.2c0,0,3.1,0,3.1,-3.1V494.6c0,0,0,-3.1,-3.1,-3.1H487Z" class="g1_349"/>
<path d="M359.6,513.7c0,0,-1.5,0,-1.5,1.5v14.2c0,0,0,1.5,1.5,1.5h15.7c0,0,1.5,0,1.5,-1.5V515.2c0,0,0,-1.5,-1.5,-1.5H359.6Z" class="g2_349"/>
<path d="M531.8,667.2h17.3m51.4,0h17.3m21.8,0h17.3m21.9,0h17.3" class="g0_349"/>
<path d="M444.2,638.2c0,0,-3,0,-3,3.1V694c0,0,0,3,3,3H776.5c0,0,3.1,0,3.1,-3V641.3c0,0,0,-3.1,-3.1,-3.1H444.2Z" class="g1_349"/>
<path d="M359.6,660.4c0,0,-1.5,0,-1.5,1.5V676c0,0,0,1.6,1.5,1.6h15.7c0,0,1.5,0,1.5,-1.6V661.9c0,0,0,-1.5,-1.5,-1.5H359.6Z" class="g2_349"/>
<path d="M513.4,828.4h44.1m98.6,0h17.5M561.4,946.1h17.5" class="g0_349"/>
<path d="M359.6,939.2c0,0,-1.5,0,-1.5,1.5v14.1c0,0,0,1.6,1.5,1.6h15.7c0,0,1.5,0,1.5,-1.6V940.7c0,0,0,-1.5,-1.5,-1.5H359.6Z" class="g2_349"/>
</svg>