<?xml version="1.0" encoding="UTF-8" standalone="no"?>
<!DOCTYPE svg PUBLIC "-//W3C//DTD SVG 1.1//EN"
"http://www.w3.org/Graphics/SVG/1.1/DTD/svg11.dtd">
<svg viewBox="0 0 931 1096" version="1.1" xmlns="http://www.w3.org/2000/svg" xmlns:xlink="http://www.w3.org/1999/xlink">
<defs>
<style type="text/css"><![CDATA[
.g0_190{
fill: none;
stroke: #00AEEF;
stroke-width: 0.763;
stroke-miterlimit: 10;
}
.g1_190{
fill: none;
stroke: #00AEEF;
stroke-width: 0.763;
stroke-linejoin: round;
}
.g2_190{
fill: none;
stroke: #241F1F;
stroke-width: 0.611;
stroke-miterlimit: 3;
}
.g3_190{
fill: #241F1F;
}
.g4_190{
fill: #FFF;
}
.g5_190{
fill: none;
stroke: #241F1F;
stroke-width: 0.687;
stroke-miterlimit: 10;
}
]]></style>
</defs>
<path d="M456.8,289.3H823.5M456.8,502.4H823.5M456.8,865.3H823.5M53.5,363.9H420.2M53.5,875H420.2" class="g0_190"/>
<path d="M125.4,240.5c0,-3,-.5,-11.2,-.5,-12m2,12c0,-6,-1.1,-17.7,-2,-22.2m3,22.2c0,-10.7,-1.6,-23.6,-3,-29.3m6.6,29.3c0,-19.9,-6.8,-43.4,-6.8,-54.4c0,-7.6,3,-19.9,9.2,-26.1c6.2,-6.2,19.1,-14.1,44.9,-14.1c46.7,0,88.3,22.2,110.1,39.8c15.4,12.4,28.5,32.9,28.5,54.8m-182.2,0c0,-19.9,-7.3,-43.4,-7.3,-54.4c0,-7.6,3.5,-19.1,7.7,-23.3c8.4,-8.4,21.3,-14.6,43.8,-14.8c40.4,-.3,85,20.7,85,37.7c0,14,-21.4,32.9,-21.4,54.8m-103.4,0c0,-19.9,-8.1,-43.4,-8.1,-54.4c0,-21.3,15,-36,47.9,-36c38.9,0,73.8,18.6,73.8,35.6c0,14,-19.3,32.9,-19.3,54.8m89.7,0c0,-24,-14.4,-43.4,-14.4,-54.4c0,-15.4,23,-29.9,34.2,-38.6m-14.7,93c0,-24,-11.3,-43.4,-11.3,-54.4c0,-15.4,14.8,-27.4,26,-36m-6.9,90.4c0,-21.7,-7.9,-40,-7.9,-54.4c0,-12.7,5.8,-22.3,14.8,-30.4m-3.6,84.8c0,-25.5,-7.3,-41.8,-7.3,-54.4c0,-12.7,5.3,-21.8,10.9,-27.4m0,81.8c0,-22.2,-6.7,-39.5,-6.7,-54.4c0,-10.1,2.6,-17.7,6.7,-23.3m-.1,48.2C341.7,201.8,340,193.7,340,186.1c0,-7,1.2,-12.7,3.3,-17.5m.1,34.7c-1.1,-6.1,-1.9,-11.8,-1.9,-17.2c0,-5.2,.7,-9.7,1.9,-13.6m-.2,22.7c-.4,-3.1,-.6,-6.2,-.6,-9.1c0,-3,.2,-5.7,.6,-8.3M150.3,240.5c0,-17.1,-10.6,-39.2,-10.6,-54.4c0,-21.3,15.7,-30.4,39.7,-30.4c28.2,0,55,13,55,30c0,14,-19.4,32.9,-19.4,54.8m38,0c0,-21.4,21.5,-42.3,35.9,-54.8c15,-13,39.9,-31.8,54.5,-39.7M158.5,240.5c0,-17.1,-13.9,-39.2,-13.9,-54.4c0,-21.3,18.5,-27.4,35.3,-27.4c20.9,0,44.8,10,44.8,27c0,19.4,-21.4,32.9,-21.4,54.8m-23.9,0C168.7,227.2,150.3,204,150.3,186.1c0,-14.6,12.3,-22.8,29.1,-22.8c20.8,0,35.6,10.5,35.6,22.4c0,17.1,-22.9,36.7,-35.6,54.8ZM124.9,169.6c1.8,-4.1,4.3,-8.1,7.1,-10.9c6.2,-6.2,21,-14.7,46.8,-14.7c46.5,0,90.5,24.9,109.6,24.9c19.8,0,43,-18.4,55,-24.5M124.9,166.9c.2,-.5,3.2,-5.8,5.6,-8.2c6.2,-6.2,22.5,-15.5,48.3,-15.5c46.5,0,90.5,23.7,109.6,23.7c19.8,0,43,-17.3,55,-23.5M124.9,164.3c.9,-1.8,2.4,-3.9,4.6,-6.1c6.1,-6.2,20.1,-15.7,49.3,-15.7c46.5,0,90.5,21.8,109.6,21.8c19.8,0,43,-15.4,55,-21.6m-164,26.2c8.4,0,23.9,3.8,23.9,16.8c0,9.7,-12,25,-23.9,25c-11,0,-20.9,-14.5,-20.9,-25c0,-10.4,10.2,-16.8,20.9,-16.8Zm0,3.6c9.9,0,18.3,5.6,18.3,13.2c0,8.2,-9.7,17.8,-18.3,17.8c-8.9,0,-16.3,-10.6,-16.3,-16.8c0,-7.4,5.6,-14.2,16.3,-14.2Zm0,5.7c6.6,0,10.2,4.2,10.2,7.5c0,3.3,-3.9,9.2,-10.2,9.2c-4.1,0,-9.2,-5.2,-9.2,-8.6c0,-4.2,3.1,-8.1,9.2,-8.1Zm85,62.3c0,-16.3,13.5,-29.8,24.2,-29.8c12.2,0,21.2,16.8,21.2,29.8m-39.4,0c0,-14,11.1,-22.2,18,-22.2c9.9,0,16.8,12,16.8,22.2m-26.6,0c0,-7.2,5.9,-12.5,10.3,-12.5c5.1,0,9.1,8.1,9.1,12.5m-172.6,0c0,2.9,-.5,11.2,-.5,11.9m2,-11.9c0,5.9,-1.1,17.7,-2,22.1m3,-22.1c0,10.7,-1.6,23.5,-3,29.2m6.6,-29.2c0,19.8,-6.8,43.4,-6.8,54.3c0,7.7,3,20,9.2,26.1c6.2,6.2,19.1,14.1,44.9,14.1c46.7,0,88.3,-22.2,110.1,-39.8c15.4,-12.4,28.5,-32.8,28.5,-54.7m-182.2,0c0,19.8,-7.3,43.4,-7.3,54.3c0,7.7,3.5,19.1,7.7,23.3c8.4,8.4,21.3,14.6,43.8,14.8c40.4,.3,85,-20.6,85,-37.7c0,-14,-21.4,-32.8,-21.4,-54.7m-103.4,0c0,19.8,-8.1,43.4,-8.1,54.3c0,21.3,15,36.1,47.9,36.1c38.9,0,73.8,-18.6,73.8,-35.7c0,-14,-19.3,-32.8,-19.3,-54.7m89.7,0c0,23.9,-14.4,43.4,-14.4,54.3c0,15.4,23,30,34.2,38.6M328.7,240.5c0,23.9,-11.3,43.4,-11.3,54.3c0,15.4,14.8,27.4,26,36.1m-6.9,-90.4c0,21.6,-7.9,39.9,-7.9,54.3c0,12.7,5.8,22.4,14.8,30.5m-3.6,-84.8c0,25.4,-7.3,41.7,-7.3,54.3c0,12.7,5.3,21.8,10.9,27.4m0,-81.7c0,22.1,-6.7,39.4,-6.7,54.3c0,10.1,2.6,17.7,6.7,23.3M343.3,270c-1.6,9.1,-3.3,17.3,-3.3,24.8c0,7,1.2,12.8,3.3,17.5m.1,-34.6c-1.1,6.1,-1.9,11.8,-1.9,17.1c0,5.2,.7,9.7,1.9,13.7m-.2,-22.8c-.4,3.2,-.6,6.2,-.6,9.1c0,3,.2,5.8,.6,8.3M150.3,240.5c0,17,-10.6,39.2,-10.6,54.3c0,21.3,15.7,30.5,39.7,30.5c28.2,0,55,-13,55,-30.1c0,-14,-19.4,-32.8,-19.4,-54.7m38,0c0,21.4,21.5,42.3,35.9,54.7c15,13,39.9,31.9,54.5,39.7M158.5,240.5c0,17,-13.9,39.2,-13.9,54.3c0,21.3,18.5,27.4,35.3,27.4c20.9,0,44.8,-9.9,44.8,-27c0,-19.3,-21.4,-32.8,-21.4,-54.7m-23.9,0c-10.7,13.2,-29.1,36.4,-29.1,54.3c0,14.7,12.3,22.8,29.1,22.8c20.8,0,35.6,-10.4,35.6,-22.4c0,-17.1,-22.9,-36.7,-35.6,-54.7Zm-54.5,70.8c1.8,4.2,4.3,8.1,7.1,10.9c6.2,6.2,21,14.7,46.8,14.7c46.5,0,90.5,-24.9,109.6,-24.9c19.8,0,43,18.4,55,24.6M124.9,314.1c.2,.5,3.2,5.8,5.6,8.1c6.2,6.2,22.5,15.5,48.3,15.5c46.5,0,90.5,-23.7,109.6,-23.7c19.8,0,43,17.4,55,23.5M124.9,316.6c.9,1.8,2.4,3.9,4.6,6.1c6.1,6.2,20.1,15.7,49.3,15.7c46.5,0,90.5,-21.8,109.6,-21.8c19.8,0,43,15.5,55,21.6M179.4,312c8.4,0,23.9,-3.8,23.9,-16.8c0,-9.7,-12,-24.9,-23.9,-24.9c-11,0,-20.9,14.5,-20.9,24.9c0,10.5,10.2,16.8,20.9,16.8Zm0,-3.5c9.9,0,18.3,-5.6,18.3,-13.3c0,-8.1,-9.7,-17.8,-18.3,-17.8c-8.9,0,-16.3,10.7,-16.3,16.8c0,7.4,5.6,14.3,16.3,14.3Zm0,-5.8c6.6,0,10.2,-4.2,10.2,-7.5c0,-3.3,-3.9,-9.2,-10.2,-9.2c-4.1,0,-9.2,5.2,-9.2,8.6c0,4.2,3.1,8.1,9.2,8.1Zm85,-62.2c0,16.3,13.5,29.8,24.2,29.8c12.2,0,21.2,-16.8,21.2,-29.8m-39.4,0c0,14,11.1,22.1,18,22.1c9.9,0,16.8,-12,16.8,-22.1m-26.6,0c0,7.1,5.9,12.4,10.3,12.4c5.1,0,9.1,-8.1,9.1,-12.4" class="g1_190"/>
<path d="M237.3,186.8h-5m5,107.9h-5M120.5,240.5H348.2" class="g2_190"/>
<path fill-rule="evenodd" d="M348.2,240.5L346.6,238l6.5,2.5l-6.5,2.4Z" class="g3_190"/>
<path d="M234.7,341.6l.4,-205" class="g2_190"/>
<path fill-rule="evenodd" d="M235.1,136.6l-2.5,1.6l2.5,-6.5l2.4,6.5Z" class="g3_190"/>
<path d="M288.9,242.7v-5" class="g2_190"/>
<path d="M283.3,213.5h11.8v-6.3H283.3v6.3Z" class="g4_190"/>
<path d="M282.3,173.7h14.8v-6.3H282.3v6.3Z" class="g4_190"/>
<path d="M275.8,200.9L271,196.7l-4.1,5.7l4.8,4.2Z" class="g4_190"/>
<path d="M264.9,195.7l-5.7,-2.8l-7.1,14.3l5.5,3.3Z" class="g4_190"/>
<path d="M249.7,204.4L244,201.6l-3.2,6.4l5.5,3.3Z" class="g4_190"/>
<path d="M223.6,219.4l-5.7,-2.8l-5.2,10.5l5.5,3.3Z" class="g4_190"/>
<path d="M217,212.5l-5.7,-2.9l-10.5,18l5.5,3.3Z" class="g4_190"/>
<path d="M204.6,212.6l-4.9,-3.9l-9,12.2l5.2,4Z" class="g4_190"/>
<path d="M283.1,222.7h11.8v-6.3H283.1v6.3Z" class="g4_190"/>
<path d="M283.7,231.9h11.8v-6.3H283.7v6.3Z" class="g4_190"/>
<path d="M171.9,213.6h15.9v-6.4H171.9v6.4Z" class="g4_190"/>
<path d="M171.6,205.7h16.3v-6.4H171.6v6.4Z" class="g4_190"/>
<path d="M171.6,197.4h16.3v-6.3H171.6v6.3Z" class="g4_190"/>
<path d="M179.7,242.7v-5" class="g2_190"/>
<path d="M133.4,980.2h9.1m204.9,0h9" class="g5_190"/>
</svg>