<?xml version="1.0" encoding="UTF-8" standalone="no"?>
<!DOCTYPE svg PUBLIC "-//W3C//DTD SVG 1.1//EN"
"http://www.w3.org/Graphics/SVG/1.1/DTD/svg11.dtd">
<svg viewBox="0 0 931 1096" version="1.1" xmlns="http://www.w3.org/2000/svg" xmlns:xlink="http://www.w3.org/1999/xlink">
<defs>
<clipPath id="c0_127"><path d="M0,1096.5V30.3H892.7V1096.5Z"/></clipPath>
<clipPath id="c1_127"><path d="M538.8,553.1V520.6H695.7v32.5Z"/></clipPath>
<clipPath id="c2_127"><path d="M535.1,854.9V822H699.3v32.9Z"/></clipPath>
<clipPath id="c3_127"><path d="M184.1,233.2c-37.3,0,-67.6,-30.3,-67.6,-67.7c0,-37.3,30.3,-67.6,67.6,-67.6c37.4,0,67.6,30.3,67.6,67.6c0,37.4,-30.2,67.7,-67.6,67.7Z"/></clipPath>
<clipPath id="c4_127"><path d="M143.2,136.5c-1.1,-.4,-2.5,-.7,-2.5,-1.9c0,-2.4,3.6,-2.2,4.6,-4.4c1.1,-2.1,.6,-3.9,.8,-6.3c.7,-.1,1.1,-.1,1.9,-.2c.1,2,0,3.2,0,5.2c0,2.7,-4.6,2.6,-4.6,5.3c0,.5,.4,.7,.4,1.2c0,.4,-.4,.7,-.6,1.1Z"/></clipPath>
<clipPath id="c5_127"><path d="M164.6,130.6c-1.2,0,-2.5,-.5,-2.5,-1.7c0,-1.4,2.3,-1.1,2.7,-2.3c.4,-1.4,.4,-2.3,.4,-3.8c0,-2.4,-5.4,-1,-5.4,-3.5c0,-1.5,1.5,-2.5,3.1,-2.5h.2c.4,3.2,4.2,3.9,4.2,7.1c0,2.8,.1,6.7,-2.7,6.7Z"/></clipPath>
<clipPath id="c6_127"><path d="M145.7,144.3V143c0,-1.8,2.1,-2.5,3.9,-2.5c1.7,0,2.5,1.5,4.2,1.5c1.7,0,1.9,-2.4,3.5,-2.4c.8,0,1.4,.7,1.4,1.4c0,.8,-.2,1.2,-.2,2c-.7,0,-1.2,-.2,-1.9,-.2c-1.5,0,-2,1.5,-3.5,1.5c-1.6,0,-2.3,-1.7,-4,-1.7c-1,0,-1.1,1.2,-1.9,1.7Z"/></clipPath>
<clipPath id="c7_127"><path d="M157.1,162.5c-1.3,0,-2.8,-.2,-2.8,-1.4c0,-1.2,1.1,-1.8,1.1,-3.1c0,-.7,-.1,-1.1,-.2,-1.8c-.4,0,-.8,.1,-1.2,.1c-.4,0,-.8,-.1,-1.2,-.1V155c0,-1.2,1,-2.5,2.2,-2.5c.1,0,.3,0,.4,0c-.2,.6,-.4,1,-.7,1.6h2.6v3.7c0,1.1,1.9,1.1,1.9,2.2c0,1.3,-.9,2.5,-2.1,2.5Z"/></clipPath>
<clipPath id="c8_127"><path d="M149.3,182.5c-2.7,-1.3,-4.6,-1.4,-6.9,-3.2L143,177l-.2,-.8h-1.9l.4,-1.9H143c.3,0,.4,-.4,.8,-.4c1.6,0,.8,2.5,.9,4.1c.5,.1,1,.1,1.4,.1c1.2,0,2.2,-.2,3.7,-.2c.7,0,1,.4,1.6,.6c-.4,1.7,-1.3,2.4,-2.1,4Z"/></clipPath>
<clipPath id="c9_127"><path d="M177.1,120.6c-2.7,0,-3,-.2,-3.9,-1.9c-.1,-.1,-.3,-.2,-.4,-.2c-.2,0,-.4,.1,-.7,.1c-.2,.1,-.5,.2,-.7,.2c-.1,0,-.2,0,-.3,-.1c-.6,-.2,-.8,-1.3,-1.4,-1.6c.2,-.6,.2,-1,.4,-1.6c.8,-1.7,2.5,-2.8,4.2,-2.8c.6,0,1.1,.1,1.7,.3c2.2,1,4.1,3.3,3.1,5.6c-.3,.8,-.5,1.2,-.9,2c-.4,0,-.7,0,-1.1,0Z"/></clipPath>
<clipPath id="ca_127"><path d="M140.9,192.4c-1.3,0,-2.5,-.6,-3.3,-1.6c-1.5,-2,-2.1,-4.9,-.1,-6.4c.7,-.6,1.1,-.9,1.8,-1.4c2.8,1.6,1.4,3.3,2.7,5.1c.5,.6,1.5,.1,2,.8c.4,.5,.6,.8,1,1.3c-.5,.4,-.6,.8,-1.1,1.2c-.9,.6,-1.9,1,-3,1Z"/></clipPath>
<clipPath id="cb_127"><path d="M193.4,192.7c-3,0,-5.9,-2,-5.9,-5.1c0,-.8,.2,-1.2,.2,-2h1.5l1.9,-1c0,0,1.2,-1.5,2.7,-1.5c2.3,.2,3.5,1.8,3.5,3.8c0,2.7,-1.2,5.8,-3.9,5.8Z"/></clipPath>
<clipPath id="cc_127"><path d="M138.4,156.9c-3,0,-5.9,-2,-5.9,-5c0,-.8,.8,-1.6,.8,-1.6l2.5,.3l.7,-.2c.1,-1.4,.6,-2.1,2.1,-2.1c.4,0,1.4,-.5,1.7,-.5c1,.9,1.9,1.4,1.9,3.4c0,2.7,-1.1,5.7,-3.8,5.7Z"/></clipPath>
<clipPath id="cd_127"><path d="M134.2,165.5c-1.2,0,-2.5,-.5,-2.5,-1.7c0,-1.3,2.3,-1,2.7,-2.3c.4,-1.3,.4,-2.3,.4,-3.7c0,-2.5,-5.3,-1.1,-5.3,-3.5c0,-1.5,1.5,-2.5,3,-2.5q.1,0,.2,0c.4,3.2,4.2,3.8,4.2,7c0,2.9,.1,6.7,-2.7,6.7Z"/></clipPath>
<clipPath id="ce_127"><path d="M185.3,152.2c-1.2,0,-2.8,-.2,-2.8,-1.4c0,-1.3,1.2,-1.8,1.2,-3.1c0,-.7,-.1,-1.1,-.2,-1.8c-.5,0,-.9,.1,-1.2,.1c-.4,0,-.8,-.1,-1.3,-.1v-1.2c0,-1.3,1.1,-2.5,2.2,-2.5c.2,0,.3,0,.5,0c-.2,.6,-.4,1,-.8,1.6h2.7v3.7c0,1.1,1.9,1.1,1.9,2.2c0,1.3,-.9,2.5,-2.2,2.5Z"/></clipPath>
<clipPath id="cf_127"><path d="M183.5,161.3V160c0,-1.8,2.1,-2.5,3.9,-2.5c1.7,0,2.5,1.5,4.2,1.5c1.7,0,1.9,-2.4,3.5,-2.4c.8,0,1.4,.7,1.4,1.4c0,.8,-.2,1.2,-.2,2c-.7,-.1,-1.2,-.2,-1.9,-.2c-1.4,0,-2,1.5,-3.5,1.5c-1.6,0,-2.3,-1.7,-4,-1.7c-1,0,-1.1,1.2,-1.9,1.7Z"/></clipPath>
<clipPath id="cg_127"><path d="M186.2,127.3c-1.2,-.3,-2.5,-.7,-2.5,-1.9c0,-2.4,3.5,-2.2,4.6,-4.4c1,-2.1,.5,-3.8,.7,-6.3c.8,-.1,1.2,-.1,1.9,-.2c.2,2,0,3.2,0,5.2c0,2.7,-4.5,2.6,-4.5,5.3c0,.5,.3,.7,.3,1.2c0,.5,-.3,.8,-.5,1.1Z"/></clipPath>
<clipPath id="ch_127"><path d="M205.8,198.6c-2.6,-1.4,-4.5,-1.5,-6.8,-3.3l.5,-2.3l-.2,-.7h-1.9l.4,-1.9h1.7c.4,0,.5,-.4,.8,-.4c1.6,0,.9,2.5,1,4.1c.4,0,.8,0,1.2,0c1.3,0,2.3,-.1,3.8,-.1c.7,0,1.1,.3,1.6,.6c-.4,1.7,-1.3,2.3,-2.1,4Z"/></clipPath>
<clipPath id="ci_127"><path d="M206.2,129.4c-2.7,-1.3,-4.6,-1.4,-6.9,-3.2l.6,-2.3l-.2,-.8h-1.9l.4,-1.9h1.7c.4,0,.5,-.4,.8,-.4c1.6,0,.8,2.5,.9,4.1c.5,.1,1,.1,1.4,.1c1.2,0,2.2,-.2,3.7,-.2c.7,0,1,.4,1.6,.6c-.4,1.7,-1.3,2.4,-2.1,4Z"/></clipPath>
<clipPath id="cj_127"><path d="M211.5,157.9c-1.2,0,-2.8,-.2,-2.8,-1.3c0,-1.3,1.2,-1.9,1.2,-3.1c0,-.8,-.1,-1.2,-.2,-1.9c-.5,.1,-.9,.1,-1.3,.1c-.4,0,-.7,0,-1.2,-.1v-1.2c0,-1.2,1.1,-2.5,2.2,-2.5c.1,0,.3,0,.5,.1c-.3,.5,-.5,.9,-.8,1.5h2.7v3.8c0,1.1,1.9,1,1.9,2.1c0,1.3,-.9,2.5,-2.2,2.5Z"/></clipPath>
<clipPath id="ck_127"><path d="M220,145.1v-1.3c0,-1.8,2.1,-2.5,3.9,-2.5c1.7,0,2.5,1.5,4.2,1.5c1.7,0,1.8,-2.5,3.5,-2.5c.8,0,1.4,.7,1.4,1.5c0,.8,-.2,1.2,-.2,2c-.7,-.1,-1.2,-.2,-1.9,-.2c-1.5,0,-2,1.5,-3.5,1.5c-1.7,0,-2.3,-1.7,-4,-1.7c-1,0,-1.1,1.2,-1.9,1.7Z"/></clipPath>
<clipPath id="cl_127"><path d="M219.2,193.6c-1.1,-.4,-2.5,-.7,-2.5,-1.9c0,-2.4,3.6,-2.3,4.6,-4.4c1.1,-2.1,.6,-3.9,.8,-6.3c.7,-.1,1.1,-.1,1.9,-.2c.1,2,0,3.2,0,5.2c0,2.7,-4.6,2.6,-4.6,5.3c0,.5,.4,.7,.4,1.2c0,.4,-.4,.7,-.6,1.1Z"/></clipPath>
<clipPath id="cm_127"><path d="M177.9,200.1c-1.2,0,-2.8,-.1,-2.8,-1.3c0,-1.3,1.1,-1.9,1.1,-3.1c0,-.8,0,-1.2,-.2,-1.9c-.4,.1,-.8,.1,-1.2,.1c-.4,0,-.8,0,-1.2,-.1v-1.2c0,-1.2,1,-2.5,2.2,-2.5c.1,0,.3,0,.4,.1c-.2,.5,-.4,.9,-.7,1.5h2.7v3.8c0,1.1,1.9,1,1.9,2.1c0,1.3,-1,2.5,-2.2,2.5Z"/></clipPath>
<clipPath id="cn_127"><path d="M154.5,214.4c-1.2,-.4,-2.5,-.7,-2.5,-1.9c0,-2.4,3.5,-2.2,4.6,-4.4c1,-2.1,.5,-3.9,.7,-6.3c.8,-.1,1.2,-.1,1.9,-.2c.2,2,0,3.2,0,5.2c0,2.7,-4.5,2.6,-4.5,5.3c0,.5,.3,.7,.3,1.2c0,.5,-.3,.7,-.5,1.1Z"/></clipPath>
<clipPath id="co_127"><path d="M196.4,151.9q0,-.1,0,-.1v.1Zm3.3,5.7l-.2,-1.5L199,155q-.1,0,-.2,0c-1.4,0,-2.2,-1.7,-2.4,-3.1c-.1,-2.3,1.3,-3.7,3.3,-4c.4,0,.9,-.1,1.3,-.1c2.3,0,4.6,.9,4.9,3.1c.4,3,-1.1,6.2,-4.1,6.6c-.4,0,-.7,.1,-1,.1c-.2,0,-.3,0,-.4,0c-.2,0,-.4,0,-.7,0Z"/></clipPath>
<clipPath id="cp_127"><path d="M226.8,155.6c.2,-2.2,.9,-3.5,.9,-5.7c0,-.8,-1.1,-1,-1.1,-1.8v-1.6c.6,-.1,1,-.3,1.6,-.3c2.4,0,4.7,1.9,4.7,4.3c0,2.5,-1.3,5.1,-3.8,5.1Z"/></clipPath>
<clipPath id="cq_127"><path d="M224.2,203.7c-2.6,0,-5.1,-1.6,-5.1,-4.2c0,-3,1.7,-6,4.6,-6c2.8,0,5.6,1.7,5.6,4.5c0,1.1,-.7,2.2,-1.8,2.4c0,0,-.2,1.4,-.7,2.5c-1.5,.6,-1.3,.8,-2.6,.8Z"/></clipPath>
<clipPath id="cr_127"><path d="M198.7,214c-2.7,0,-3,-.2,-3.9,-1.9c-.1,-.2,-.3,-.2,-.5,-.2c-.1,0,-.4,.1,-.6,.1c-.2,.1,-.5,.2,-.7,.2c-.1,0,-.2,0,-.3,-.1c-.6,-.2,-.8,-1.3,-1.4,-1.6c.2,-.6,.1,-1,.4,-1.6c.8,-1.7,2.5,-2.8,4.2,-2.8c.6,0,1.1,.1,1.6,.3c2.3,1,4.2,3.3,3.2,5.6c-.4,.7,-.6,1.2,-.9,2c-.4,0,-.7,0,-1.1,0Z"/></clipPath>
<clipPath id="cs_127"><path d="M218.7,133.9c-.5,0,-1,-.1,-1.5,-.3c-1.1,-.5,-1.8,-1.5,-1.6,-2.7c0,0,-1.2,-.7,-2,-1.6c.1,-1.6,-.1,-1.5,.4,-2.7c.8,-1.9,2.5,-3.3,4.4,-3.3c.5,0,1,.1,1.5,.3c2.7,1.2,4.8,4,3.6,6.7c-.9,2,-2.8,3.6,-4.8,3.6Z"/></clipPath>
<clipPath id="ct_127"><path d="M166.4,214.2c-2.4,0,-4.7,-1.1,-5.2,-3.5c-.6,-2.7,.5,-5.8,3.2,-6.3c.2,-.1,.4,-.1,.6,-.1c1,0,1.8,.4,2.2,1.3c0,0,.3,0,.8,0c.5,0,1.1,0,1.8,.2c.9,1.3,1,1.1,1.3,2.3c.5,2.6,-.5,5.4,-3.1,5.9c-.5,.1,-1,.2,-1.6,.2Z"/></clipPath>
<clipPath id="cu_127"><path d="M178,143.3c-1.8,0,-4.2,-.3,-4.2,-2.1c0,-3.2,1,-7,4.2,-7c2.4,0,5.3,.9,5.3,3.4c0,3.1,-2.3,5.7,-5.3,5.7Z"/></clipPath>
<clipPath id="cv_127"><path d="M215,179.8c-2.8,0,-5.4,-2,-5.6,-4.8c-.2,-1.8,-.2,-4.2,1.6,-4.4c.5,0,1,-.1,1.5,-.1c2.8,0,5.7,.9,6,3.6c.2,2.4,-.4,5.4,-2.9,5.6c-.2,.1,-.4,.1,-.6,.1Z"/></clipPath>
<clipPath id="cw_127"><path d="M157.2,183.1c-.2,0,-.3,0,-.5,0c-3,-.5,-5.3,-3.2,-4.8,-6.2c.2,-1.7,.8,-3.8,2.4,-3.8c.1,0,.2,0,.3,0c3.2,.5,6.8,2.1,6.3,5.3c-.3,2.2,-1.6,4.7,-3.7,4.7Z"/></clipPath>
<clipPath id="cx_127"><path d="M181.3,171.9c-1.6,0,-3.2,-.7,-3.7,-2.3c-.3,-.8,-.5,-1.2,-.8,-2c2.1,-.7,3.6,-.4,5.7,-1.2c.7,-.3,.5,-1.4,1.3,-1.7c.6,-.2,.9,-.3,1.5,-.5c.3,.5,.6,.8,.9,1.4c.8,2.3,-.2,5,-2.5,5.8c-.8,.3,-1.6,.5,-2.4,.5Z"/></clipPath>
<clipPath id="cy_127"><path d="M154.9,133.4c-2.6,0,-5.2,-1.6,-5.2,-4.2c0,-2.9,1.7,-6,4.7,-6c2.8,0,5.6,1.7,5.6,4.5c0,1.1,-.7,2.2,-1.8,2.5c0,0,-.2,1.3,-.7,2.4c-1.5,.6,-1.3,.8,-2.6,.8Z"/></clipPath>
<clipPath id="cz_127"><path d="M195.4,122.8c-2.7,0,-6.2,-.6,-6.2,-3.3c0,-2.9,.9,-6.5,3.8,-6.5c1,0,1.6,.4,2.5,.7c.8,1.1,2.9,1.3,2.9,2.7c0,2.8,-.3,6.4,-3,6.4Z"/></clipPath>
<clipPath id="c10_127"><path d="M165.9,161.5c-2.7,0,-6.1,-.5,-6.1,-3.2c0,-3,.9,-6.5,3.8,-6.5c1,0,1.6,.3,2.5,.6c.8,1.2,2.9,1.4,2.9,2.8c0,2.7,-.3,6.3,-3.1,6.3Z"/></clipPath>
<clipPath id="c11_127"><path d="M233.2,179.5c-3.1,0,-6,-2,-6,-5c0,-.9,.8,-1.7,.8,-1.7l2.5,.4l.7,-.2c.1,-1.5,.7,-2.1,2.1,-2.1c.4,0,1.4,-.6,1.8,-.6c.9,1,1.9,1.4,1.9,3.4c0,2.7,-1.2,5.8,-3.8,5.8Z"/></clipPath>
<clipPath id="c12_127"><path d="M184.4,231.3c1.2,0,2.4,0,3.7,-.1c11.3,-.5,15.2,-4,24.4,-9.1c7.1,-3.9,18.6,-10.7,23.7,-16.8c5.4,-6.6,7.1,-15.3,9.6,-23.7c1.7,-5.9,2.7,-9.6,2.7,-16.1c0,-14.2,-.3,-24.5,-8.1,-35.1c-4.2,-5.7,-13.3,-13.9,-19.1,-18c-6.5,-4.5,-10.7,-9.5,-18.7,-11.4c-1.4,-.4,-3.2,-.5,-5.2,-.5c-4.5,0,-9.7,.7,-13.3,.7c-11.5,0,-21.4,.6,-30.8,5.9c-5.2,2.9,-10.8,9,-15,13.2c-3.7,3.8,-9,6.7,-11.7,11.2c-2.5,4.2,-5.8,14,-7.3,18.8c-1.9,6,.4,8.5,.4,15.2c0,6.7,1,13.1,2.9,19.2c2,6.4,4.8,15.5,8.6,20.9c7.3,10.4,17.8,14.9,29.8,19.5c6.6,2.6,10.7,6.2,23.4,6.2Zm-.3,2c-37.4,0,-67.8,-30.3,-67.8,-67.8c0,-37.4,30.4,-67.7,67.8,-67.7c37.4,0,67.8,30.3,67.8,67.7c0,37.5,-30.4,67.8,-67.8,67.8Z"/></clipPath>
<clipPath id="c13_127"><path d="M119.1,565.2V449.1h31V565.2Z"/></clipPath>
<style type="text/css"><![CDATA[
.g0_127{
fill: #EBEAEA;
}
.g1_127{
fill: none;
stroke: #241F1F;
stroke-width: 0.687;
stroke-miterlimit: 10;
}
.g2_127{
fill: none;
stroke: #FFD9E7;
stroke-width: 1.527;
stroke-miterlimit: 3;
}
.g3_127{
fill: none;
stroke: #D4A173;
stroke-width: 1.527;
stroke-miterlimit: 3;
}
.g4_127{
fill: none;
stroke: #241F1F;
stroke-width: 0.534;
stroke-miterlimit: 3;
}
.g5_127{
fill: #EDCDA2;
}
.g6_127{
fill: #241F1F;
}
.g7_127{
fill: none;
stroke: #241F1F;
stroke-width: 0.763;
stroke-miterlimit: 3;
stroke-dasharray: 10,4;
}
.g8_127{
fill: #C1E8FB;
}
.g9_127{
fill: #C3DE91;
}
.ga_127{
fill: none;
stroke: #BE8A58;
stroke-width: 0.611;
stroke-miterlimit: 3;
}
.gb_127{
fill: #D9B491;
}
.gc_127{
fill: #DDBC9C;
}
.gd_127{
fill: #E2C3A7;
}
.ge_127{
fill: #E7CBB3;
}
.gf_127{
fill: #ECD3BE;
}
.gg_127{
fill: none;
stroke: #BE8A58;
stroke-width: 0.763;
stroke-miterlimit: 3;
}
.gh_127{
fill: #E0C0A3;
}
.gi_127{
fill: none;
stroke: #BE8A58;
stroke-width: 0.534;
stroke-miterlimit: 3;
}
.gj_127{
fill: #FFDEB8;
}
.gk_127{
fill: none;
stroke: #FEA814;
stroke-width: 0.412;
stroke-miterlimit: 3;
}
.gl_127{
fill: none;
stroke: #241F1F;
stroke-width: 0.611;
stroke-miterlimit: 3;
}
.gm_127{
fill: none;
stroke: #EE008C;
stroke-width: 1.069;
stroke-linejoin: round;
}
.gn_127{
fill: none;
stroke: #241F1F;
stroke-width: 0.763;
stroke-miterlimit: 3;
}
.go_127{
fill: none;
stroke: #BE8A58;
stroke-width: 0.458;
stroke-miterlimit: 3;
}
]]></style>
</defs>
<path d="M0,1096.5H951.8V-20H0V1096.5Z" class="g0_127"/>
<image clip-path="url(#c0_127)" preserveAspectRatio="none" x="0" y="31" width="892" height="1066" xlink:href="img/1.png"/>
<path d="M593.9,178.3h41.6M470.6,257.1h39.5m29.8,0h39.3M586,538.8h17.8m43.3,-17.9h46.8" class="g1_127"/>
<path clip-path="url(#c1_127)" d="M623.5,538.8H696" class="g1_127"/>
<path clip-path="url(#c2_127)" d="M641.5,838.3h58.2" class="g1_127"/>
<path d="M609,914.7h44.4" class="g1_127"/>
<image clip-path="url(#c3_127)" x="116" y="97" width="136" height="137" xlink:href="shade/1.png"/>
<path d="M116.3,165.5c0,-37.4,30.4,-67.7,67.8,-67.7c37.4,0,67.8,30.3,67.8,67.7c0,37.5,-30.4,67.8,-67.8,67.8c-37.4,0,-67.8,-30.3,-67.8,-67.8Z" class="g2_127"/>
<path d="M109.2,165.5c0,-41.3,33.6,-74.8,74.9,-74.8c41.4,0,74.9,33.5,74.9,74.8c0,41.4,-33.5,74.9,-74.9,74.9c-41.3,0,-74.9,-33.5,-74.9,-74.9Z" class="g3_127"/>
<path d="M259,249.6v13.7M109.2,249.6v13.7" class="g4_127"/>
<path fill-rule="evenodd" d="M109.2,165.5c0,-41.3,33.6,-74.8,74.9,-74.8c41.4,0,74.9,33.5,74.9,74.8c0,41.4,-33.5,74.9,-74.9,74.9c-41.3,0,-74.9,-33.5,-74.9,-74.9m7.1,0c0,-37.4,30.4,-67.7,67.8,-67.7c37.4,0,67.8,30.3,67.8,67.7c0,37.5,-30.4,67.8,-67.8,67.8c-37.4,0,-67.8,-30.3,-67.8,-67.8Z" class="g5_127"/>
<path d="M109.2,165.5c0,-41.3,33.6,-74.8,74.9,-74.8c41.4,0,74.9,33.5,74.9,74.8c0,41.4,-33.5,74.9,-74.9,74.9c-41.3,0,-74.9,-33.5,-74.9,-74.9Zm7.1,0c0,-37.4,30.4,-67.7,67.8,-67.7c37.4,0,67.8,30.3,67.8,67.7c0,37.5,-30.4,67.8,-67.8,67.8c-37.4,0,-67.8,-30.3,-67.8,-67.8Z" class="g3_127"/>
<path d="M113.1,256.5h54" class="g4_127"/>
<path d="M109.4,256.5l4.8,-1.9l-1.1,1.9l1.1,1.8Z" class="g6_127"/>
<path d="M201.8,256.5h53.4" class="g4_127"/>
<path d="M258.8,256.5l-4.8,1.8l1.2,-1.8L254,254.6Z" class="g6_127"/>
<image clip-path="url(#c4_127)" x="140" y="123" width="9" height="14" xlink:href="shade/2.png"/>
<image clip-path="url(#c5_127)" x="159" y="116" width="9" height="15" xlink:href="shade/3.png"/>
<image clip-path="url(#c6_127)" x="145" y="139" width="14" height="6" xlink:href="shade/4.png"/>
<image clip-path="url(#c7_127)" x="152" y="152" width="8" height="11" xlink:href="shade/5.png"/>
<image clip-path="url(#c8_127)" x="140" y="173" width="12" height="10" xlink:href="shade/6.png"/>
<image clip-path="url(#c9_127)" x="169" y="112" width="12" height="9" xlink:href="shade/7.png"/>
<image clip-path="url(#ca_127)" x="135" y="183" width="11" height="10" xlink:href="shade/8.png"/>
<image clip-path="url(#cb_127)" x="187" y="183" width="11" height="10" xlink:href="shade/9.png"/>
<image clip-path="url(#cc_127)" x="132" y="147" width="11" height="10" xlink:href="shade/10.png"/>
<image clip-path="url(#cd_127)" x="129" y="151" width="9" height="15" xlink:href="shade/11.png"/>
<image clip-path="url(#ce_127)" x="181" y="142" width="7" height="11" xlink:href="shade/12.png"/>
<image clip-path="url(#cf_127)" x="183" y="156" width="14" height="6" xlink:href="shade/13.png"/>
<image clip-path="url(#cg_127)" x="183" y="114" width="9" height="14" xlink:href="shade/14.png"/>
<image clip-path="url(#ch_127)" x="197" y="189" width="11" height="10" xlink:href="shade/15.png"/>
<image clip-path="url(#ci_127)" x="197" y="120" width="12" height="10" xlink:href="shade/16.png"/>
<image clip-path="url(#cj_127)" x="207" y="147" width="7" height="11" xlink:href="shade/17.png"/>
<image clip-path="url(#ck_127)" x="219" y="140" width="14" height="6" xlink:href="shade/18.png"/>
<image clip-path="url(#cl_127)" x="216" y="180" width="9" height="14" xlink:href="shade/19.png"/>
<image clip-path="url(#cm_127)" x="173" y="190" width="8" height="11" xlink:href="shade/20.png"/>
<image clip-path="url(#cn_127)" x="151" y="201" width="9" height="14" xlink:href="shade/21.png"/>
<image clip-path="url(#co_127)" x="196" y="147" width="11" height="11" xlink:href="shade/22.png"/>
<image clip-path="url(#cp_127)" x="226" y="146" width="7" height="10" xlink:href="shade/23.png"/>
<image clip-path="url(#cq_127)" x="219" y="193" width="11" height="11" xlink:href="shade/24.png"/>
<image clip-path="url(#cr_127)" x="191" y="206" width="11" height="9" xlink:href="shade/25.png"/>
<image clip-path="url(#cs_127)" x="213" y="123" width="12" height="12" xlink:href="shade/26.png"/>
<image clip-path="url(#ct_127)" x="160" y="204" width="12" height="11" xlink:href="shade/27.png"/>
<image clip-path="url(#cu_127)" x="173" y="134" width="11" height="10" xlink:href="shade/28.png"/>
<image clip-path="url(#cv_127)" x="209" y="170" width="10" height="11" xlink:href="shade/29.png"/>
<image clip-path="url(#cw_127)" x="151" y="173" width="11" height="11" xlink:href="shade/30.png"/>
<path d="M205.5,94.1V236.6M162.7,94.1V236.6" class="g7_127"/>
<image clip-path="url(#cx_127)" x="176" y="164" width="11" height="9" xlink:href="shade/31.png"/>
<image clip-path="url(#cy_127)" x="149" y="123" width="11" height="11" xlink:href="shade/32.png"/>
<image clip-path="url(#cz_127)" x="189" y="112" width="10" height="11" xlink:href="shade/33.png"/>
<image clip-path="url(#c10_127)" x="159" y="151" width="11" height="11" xlink:href="shade/34.png"/>
<image clip-path="url(#c11_127)" x="227" y="170" width="10" height="10" xlink:href="shade/35.png"/>
<image clip-path="url(#c12_127)" x="116" y="97" width="136" height="137" xlink:href="shade/36.png"/>
<path d="M108.5,565.2H318.6V430H108.5V565.2Z" class="g8_127"/>
<path d="M108.5,586.6H318.6V565.2H108.5v21.4Z" class="g9_127"/>
<image clip-path="url(#c13_127)" x="119" y="449" width="32" height="117" xlink:href="shade/37.png"/>
<path d="M119.1,565.2h31V449.1h-31V565.2Z" class="ga_127"/>
<path d="M237.4,548.7c-3.5,-6.8,-21.3,-18.8,-30.3,-17.1c-.3,9.8,14.9,24.8,22.3,26.6c2.8,-1,7.4,-6.5,8,-9.5Z" class="gb_127"/>
<path d="M236.5,549.1c-3.1,-6,-20.4,-18,-28.3,-16.4c-.3,8.5,14.8,23.1,21.3,24.7c2.4,-.9,6.5,-5.7,7,-8.3Z" class="gc_127"/>
<path d="M235.6,549.4c-2.6,-5.1,-19.5,-17,-26.3,-15.7c-.2,7.4,14.7,21.5,20.3,22.9c2.1,-.8,5.6,-5,6,-7.2Z" class="gd_127"/>
<path d="M234.8,549.8c-2.3,-4.4,-18.7,-16.1,-24.4,-15c-.2,6.1,14.6,19.8,19.3,21c1.8,-.7,4.7,-4.2,5.1,-6Z" class="ge_127"/>
<path d="M233.9,550.1c-1.8,-3.5,-17.8,-15.2,-22.4,-14.3c-.1,5,14.5,18.2,18.3,19.2c1.4,-.5,3.8,-3.4,4.1,-4.9Z" class="gf_127"/>
<path d="M214.1,546.2l8.5,-10l2.6,1.5l-9.1,10.8Z" class="gb_127"/>
<path d="M222.3,554.2l9.8,-11.5l2.2,2L224.8,556Z" class="gb_127"/>
<path d="M237.4,548.7c-3.5,-6.8,-21.3,-18.8,-30.3,-17.1c-.3,9.8,14.9,24.8,22.3,26.6c2.8,-1,7.4,-6.5,8,-9.5Z" class="gg_127"/>
<path d="M221.8,553.8l9.7,-11.5l2.3,2l-9.6,11.3Z" class="gh_127"/>
<path d="M221.8,553.8l9.7,-11.5l2.3,2l-9.6,11.3l-2.4,-1.8Z" class="gi_127"/>
<path d="M213.6,545.7l8.4,-10l2.7,1.5L215.6,548Z" class="gh_127"/>
<path d="M213.6,545.7l8.4,-10l2.7,1.5L215.6,548l-2,-2.3Z" class="gi_127"/>
<path d="M150.6,484.5c.2,.3,-.1,.8,-.7,1c-.5,.3,-1.1,.2,-1.3,-.1c-.1,-.4,.2,-.9,.8,-1.1c.5,-.3,1.1,-.2,1.2,.2Z" class="gj_127"/>
<path d="M150.6,484.5c.2,.3,-.1,.8,-.7,1c-.5,.3,-1.1,.2,-1.3,-.1c-.1,-.4,.2,-.9,.8,-1.1c.5,-.3,1.1,-.2,1.2,.2Z" class="gk_127"/>
<path d="M151.7,485.3c.2,.4,-.2,.9,-.7,1.1c-.6,.3,-1.1,.2,-1.3,-.2c-.2,-.3,.2,-.8,.7,-1c.6,-.3,1.2,-.2,1.3,.1Z" class="gj_127"/>
<path d="M151.7,485.3c.2,.4,-.2,.9,-.7,1.1c-.6,.3,-1.1,.2,-1.3,-.2c-.2,-.3,.2,-.8,.7,-1c.6,-.3,1.2,-.2,1.3,.1Z" class="gk_127"/>
<path d="M152.8,486.2c.1,.4,-.2,.8,-.8,1.1c-.5,.2,-1.1,.1,-1.2,-.2c-.2,-.4,.1,-.8,.7,-1.1c.5,-.2,1.1,-.2,1.3,.2Z" class="gj_127"/>
<path d="M152.8,486.2c.1,.4,-.2,.8,-.8,1.1c-.5,.2,-1.1,.1,-1.2,-.2c-.2,-.4,.1,-.8,.7,-1.1c.5,-.2,1.1,-.2,1.3,.2Z" class="gk_127"/>
<path d="M153.8,487.1c.2,.3,-.1,.8,-.7,1c-.5,.3,-1.1,.2,-1.3,-.1c-.1,-.4,.2,-.9,.8,-1.1c.5,-.3,1.1,-.2,1.2,.2Z" class="gj_127"/>
<path d="M153.8,487.1c.2,.3,-.1,.8,-.7,1c-.5,.3,-1.1,.2,-1.3,-.1c-.1,-.4,.2,-.9,.8,-1.1c.5,-.3,1.1,-.2,1.2,.2Z" class="gk_127"/>
<path d="M154.9,487.9c.2,.4,-.2,.9,-.7,1.1c-.6,.3,-1.1,.2,-1.3,-.2c-.2,-.3,.2,-.8,.7,-1.1c.6,-.2,1.2,-.1,1.3,.2Z" class="gj_127"/>
<path d="M154.9,487.9c.2,.4,-.2,.9,-.7,1.1c-.6,.3,-1.1,.2,-1.3,-.2c-.2,-.3,.2,-.8,.7,-1.1c.6,-.2,1.2,-.1,1.3,.2Z" class="gk_127"/>
<path d="M156,488.8c.1,.3,-.2,.8,-.7,1.1c-.6,.2,-1.2,.1,-1.3,-.2c-.2,-.4,.1,-.8,.7,-1.1c.6,-.2,1.1,-.2,1.3,.2Z" class="gj_127"/>
<path d="M156,488.8c.1,.3,-.2,.8,-.7,1.1c-.6,.2,-1.2,.1,-1.3,-.2c-.2,-.4,.1,-.8,.7,-1.1c.6,-.2,1.1,-.2,1.3,.2Z" class="gk_127"/>
<path d="M157.1,489.7c.1,.3,-.2,.8,-.8,1c-.5,.3,-1.1,.2,-1.3,-.1c-.1,-.4,.2,-.9,.8,-1.1c.5,-.3,1.1,-.2,1.3,.2Z" class="gj_127"/>
<path d="M157.1,489.7c.1,.3,-.2,.8,-.8,1c-.5,.3,-1.1,.2,-1.3,-.1c-.1,-.4,.2,-.9,.8,-1.1c.5,-.3,1.1,-.2,1.3,.2Z" class="gk_127"/>
<path d="M158.1,490.5c.2,.4,-.2,.8,-.7,1.1c-.6,.3,-1.1,.2,-1.3,-.2c-.1,-.3,.2,-.8,.7,-1.1c.6,-.2,1.2,-.1,1.3,.2Z" class="gj_127"/>
<path d="M158.1,490.5c.2,.4,-.2,.8,-.7,1.1c-.6,.3,-1.1,.2,-1.3,-.2c-.1,-.3,.2,-.8,.7,-1.1c.6,-.2,1.2,-.1,1.3,.2Z" class="gk_127"/>
<path d="M159.2,491.4c.1,.3,-.2,.8,-.7,1.1c-.6,.2,-1.2,.1,-1.3,-.2c-.2,-.4,.1,-.8,.7,-1.1c.6,-.2,1.1,-.2,1.3,.2Z" class="gj_127"/>
<path d="M159.2,491.4c.1,.3,-.2,.8,-.7,1.1c-.6,.2,-1.2,.1,-1.3,-.2c-.2,-.4,.1,-.8,.7,-1.1c.6,-.2,1.1,-.2,1.3,.2Z" class="gk_127"/>
<path d="M160.2,492.3c.2,.3,-.1,.8,-.7,1c-.5,.3,-1.1,.2,-1.3,-.1c-.1,-.4,.2,-.9,.8,-1.1c.5,-.3,1.1,-.2,1.2,.2Z" class="gj_127"/>
<path d="M160.2,492.3c.2,.3,-.1,.8,-.7,1c-.5,.3,-1.1,.2,-1.3,-.1c-.1,-.4,.2,-.9,.8,-1.1c.5,-.3,1.1,-.2,1.2,.2Z" class="gk_127"/>
<path d="M161.3,493.1c.2,.4,-.1,.8,-.7,1.1c-.6,.2,-1.1,.2,-1.3,-.2c-.1,-.3,.2,-.8,.7,-1.1c.6,-.2,1.2,-.1,1.3,.2Z" class="gj_127"/>
<path d="M161.3,493.1c.2,.4,-.1,.8,-.7,1.1c-.6,.2,-1.1,.2,-1.3,-.2c-.1,-.3,.2,-.8,.7,-1.1c.6,-.2,1.2,-.1,1.3,.2Z" class="gk_127"/>
<path d="M162.4,494c.1,.3,-.2,.8,-.7,1.1c-.6,.2,-1.2,.1,-1.3,-.2c-.2,-.4,.2,-.8,.7,-1.1c.6,-.2,1.1,-.2,1.3,.2Z" class="gj_127"/>
<path d="M162.4,494c.1,.3,-.2,.8,-.7,1.1c-.6,.2,-1.2,.1,-1.3,-.2c-.2,-.4,.2,-.8,.7,-1.1c.6,-.2,1.1,-.2,1.3,.2Z" class="gk_127"/>
<path d="M163.5,494.8c.1,.4,-.2,.9,-.8,1.1c-.5,.3,-1.1,.2,-1.2,-.2c-.2,-.3,.1,-.8,.7,-1c.5,-.3,1.1,-.2,1.3,.1Z" class="gj_127"/>
<path d="M163.5,494.8c.1,.4,-.2,.9,-.8,1.1c-.5,.3,-1.1,.2,-1.2,-.2c-.2,-.3,.1,-.8,.7,-1c.5,-.3,1.1,-.2,1.3,.1Z" class="gk_127"/>
<path d="M164.5,495.7c.2,.4,-.1,.8,-.7,1.1c-.6,.2,-1.1,.2,-1.3,-.2c-.1,-.3,.2,-.8,.7,-1.1c.6,-.2,1.2,-.1,1.3,.2Z" class="gj_127"/>
<path d="M164.5,495.7c.2,.4,-.1,.8,-.7,1.1c-.6,.2,-1.1,.2,-1.3,-.2c-.1,-.3,.2,-.8,.7,-1.1c.6,-.2,1.2,-.1,1.3,.2Z" class="gk_127"/>
<path d="M165.6,496.6c.1,.3,-.2,.8,-.7,1.1c-.6,.2,-1.2,.1,-1.3,-.2c-.2,-.4,.2,-.9,.7,-1.1c.6,-.2,1.1,-.2,1.3,.2Z" class="gj_127"/>
<path d="M165.6,496.6c.1,.3,-.2,.8,-.7,1.1c-.6,.2,-1.2,.1,-1.3,-.2c-.2,-.4,.2,-.9,.7,-1.1c.6,-.2,1.1,-.2,1.3,.2Z" class="gk_127"/>
<path d="M166.7,497.4c.1,.4,-.2,.9,-.8,1.1c-.5,.3,-1.1,.2,-1.2,-.2c-.2,-.3,.1,-.8,.7,-1c.5,-.3,1.1,-.2,1.3,.1Z" class="gj_127"/>
<path d="M166.7,497.4c.1,.4,-.2,.9,-.8,1.1c-.5,.3,-1.1,.2,-1.2,-.2c-.2,-.3,.1,-.8,.7,-1c.5,-.3,1.1,-.2,1.3,.1Z" class="gk_127"/>
<path d="M167.7,498.3c.2,.4,-.1,.8,-.7,1.1c-.5,.2,-1.1,.2,-1.3,-.2c-.1,-.3,.2,-.8,.8,-1.1c.5,-.2,1.1,-.1,1.2,.2Z" class="gj_127"/>
<path d="M167.7,498.3c.2,.4,-.1,.8,-.7,1.1c-.5,.2,-1.1,.2,-1.3,-.2c-.1,-.3,.2,-.8,.8,-1.1c.5,-.2,1.1,-.1,1.2,.2Z" class="gk_127"/>
<path d="M168.8,499.2c.2,.3,-.2,.8,-.7,1.1c-.6,.2,-1.1,.1,-1.3,-.2c-.2,-.4,.2,-.9,.7,-1.1c.6,-.2,1.2,-.2,1.3,.2Z" class="gj_127"/>
<path d="M168.8,499.2c.2,.3,-.2,.8,-.7,1.1c-.6,.2,-1.1,.1,-1.3,-.2c-.2,-.4,.2,-.9,.7,-1.1c.6,-.2,1.2,-.2,1.3,.2Z" class="gk_127"/>
<path d="M169.9,500c.1,.4,-.2,.9,-.8,1.1c-.5,.3,-1.1,.2,-1.2,-.2c-.2,-.3,.1,-.8,.7,-1c.5,-.3,1.1,-.2,1.3,.1Z" class="gj_127"/>
<path d="M169.9,500c.1,.4,-.2,.9,-.8,1.1c-.5,.3,-1.1,.2,-1.2,-.2c-.2,-.3,.1,-.8,.7,-1c.5,-.3,1.1,-.2,1.3,.1Z" class="gk_127"/>
<path d="M170.9,500.9c.2,.4,-.1,.8,-.7,1.1c-.5,.2,-1.1,.1,-1.3,-.2c-.1,-.3,.2,-.8,.8,-1.1c.5,-.2,1.1,-.1,1.2,.2Z" class="gj_127"/>
<path d="M170.9,500.9c.2,.4,-.1,.8,-.7,1.1c-.5,.2,-1.1,.1,-1.3,-.2c-.1,-.3,.2,-.8,.8,-1.1c.5,-.2,1.1,-.1,1.2,.2Z" class="gk_127"/>
<path d="M172,501.8c.2,.3,-.2,.8,-.7,1.1c-.6,.2,-1.2,.1,-1.3,-.2c-.2,-.4,.2,-.9,.7,-1.1c.6,-.3,1.2,-.2,1.3,.2Z" class="gj_127"/>
<path d="M172,501.8c.2,.3,-.2,.8,-.7,1.1c-.6,.2,-1.2,.1,-1.3,-.2c-.2,-.4,.2,-.9,.7,-1.1c.6,-.3,1.2,-.2,1.3,.2Z" class="gk_127"/>
<path d="M173.1,502.6c.1,.4,-.2,.9,-.8,1.1c-.5,.3,-1.1,.2,-1.2,-.2c-.2,-.3,.1,-.8,.7,-1c.5,-.3,1.1,-.2,1.3,.1Z" class="gj_127"/>
<path d="M173.1,502.6c.1,.4,-.2,.9,-.8,1.1c-.5,.3,-1.1,.2,-1.2,-.2c-.2,-.3,.1,-.8,.7,-1c.5,-.3,1.1,-.2,1.3,.1Z" class="gk_127"/>
<path d="M174.2,503.5c.1,.3,-.2,.8,-.8,1.1c-.5,.2,-1.1,.1,-1.3,-.2c-.1,-.3,.2,-.8,.8,-1.1c.5,-.2,1.1,-.1,1.3,.2Z" class="gj_127"/>
<path d="M174.2,503.5c.1,.3,-.2,.8,-.8,1.1c-.5,.2,-1.1,.1,-1.3,-.2c-.1,-.3,.2,-.8,.8,-1.1c.5,-.2,1.1,-.1,1.3,.2Z" class="gk_127"/>
<path d="M175.2,504.4c.2,.3,-.1,.8,-.7,1c-.6,.3,-1.1,.2,-1.3,-.1c-.1,-.4,.2,-.9,.7,-1.1c.6,-.3,1.2,-.2,1.3,.2Z" class="gj_127"/>
<path d="M175.2,504.4c.2,.3,-.1,.8,-.7,1c-.6,.3,-1.1,.2,-1.3,-.1c-.1,-.4,.2,-.9,.7,-1.1c.6,-.3,1.2,-.2,1.3,.2Z" class="gk_127"/>
<path d="M176.3,505.2c.1,.4,-.2,.9,-.7,1.1c-.6,.3,-1.2,.2,-1.3,-.2c-.2,-.3,.1,-.8,.7,-1c.6,-.3,1.1,-.2,1.3,.1Z" class="gj_127"/>
<path d="M176.3,505.2c.1,.4,-.2,.9,-.7,1.1c-.6,.3,-1.2,.2,-1.3,-.2c-.2,-.3,.1,-.8,.7,-1c.6,-.3,1.1,-.2,1.3,.1Z" class="gk_127"/>
<path d="M177.3,506.1c.2,.3,-.1,.8,-.7,1.1c-.5,.2,-1.1,.1,-1.3,-.2c-.1,-.3,.2,-.8,.8,-1.1c.5,-.2,1.1,-.1,1.2,.2Z" class="gj_127"/>
<path d="M177.3,506.1c.2,.3,-.1,.8,-.7,1.1c-.5,.2,-1.1,.1,-1.3,-.2c-.1,-.3,.2,-.8,.8,-1.1c.5,-.2,1.1,-.1,1.2,.2Z" class="gk_127"/>
<path d="M178.4,507c.2,.3,-.2,.8,-.7,1c-.6,.3,-1.1,.2,-1.3,-.1c-.1,-.4,.2,-.9,.7,-1.1c.6,-.3,1.2,-.2,1.3,.2Z" class="gj_127"/>
<path d="M178.4,507c.2,.3,-.2,.8,-.7,1c-.6,.3,-1.1,.2,-1.3,-.1c-.1,-.4,.2,-.9,.7,-1.1c.6,-.3,1.2,-.2,1.3,.2Z" class="gk_127"/>
<path d="M179.5,507.8c.1,.4,-.2,.9,-.7,1.1c-.6,.3,-1.2,.2,-1.3,-.2c-.2,-.3,.2,-.8,.7,-1.1c.6,-.2,1.1,-.1,1.3,.2Z" class="gj_127"/>
<path d="M179.5,507.8c.1,.4,-.2,.9,-.7,1.1c-.6,.3,-1.2,.2,-1.3,-.2c-.2,-.3,.2,-.8,.7,-1.1c.6,-.2,1.1,-.1,1.3,.2Z" class="gk_127"/>
<path d="M180.6,508.7c.1,.3,-.2,.8,-.8,1.1c-.5,.2,-1.1,.1,-1.2,-.2c-.2,-.4,.1,-.8,.7,-1.1c.5,-.2,1.1,-.1,1.3,.2Z" class="gj_127"/>
<path d="M180.6,508.7c.1,.3,-.2,.8,-.8,1.1c-.5,.2,-1.1,.1,-1.2,-.2c-.2,-.4,.1,-.8,.7,-1.1c.5,-.2,1.1,-.1,1.3,.2Z" class="gk_127"/>
<path d="M181.6,509.6c.2,.3,-.1,.8,-.7,1c-.6,.3,-1.1,.2,-1.3,-.1c-.1,-.4,.2,-.9,.7,-1.1c.6,-.3,1.2,-.2,1.3,.2Z" class="gj_127"/>
<path d="M181.6,509.6c.2,.3,-.1,.8,-.7,1c-.6,.3,-1.1,.2,-1.3,-.1c-.1,-.4,.2,-.9,.7,-1.1c.6,-.3,1.2,-.2,1.3,.2Z" class="gk_127"/>
<path d="M182.7,510.4c.1,.4,-.2,.9,-.7,1.1c-.6,.2,-1.2,.2,-1.3,-.2c-.2,-.3,.2,-.8,.7,-1.1c.6,-.2,1.1,-.1,1.3,.2Z" class="gj_127"/>
<path d="M182.7,510.4c.1,.4,-.2,.9,-.7,1.1c-.6,.2,-1.2,.2,-1.3,-.2c-.2,-.3,.2,-.8,.7,-1.1c.6,-.2,1.1,-.1,1.3,.2Z" class="gk_127"/>
<path d="M183.8,511.3c.1,.3,-.2,.8,-.8,1.1c-.5,.2,-1.1,.1,-1.2,-.2c-.2,-.4,.1,-.8,.7,-1.1c.5,-.2,1.1,-.2,1.3,.2Z" class="gj_127"/>
<path d="M183.8,511.3c.1,.3,-.2,.8,-.8,1.1c-.5,.2,-1.1,.1,-1.2,-.2c-.2,-.4,.1,-.8,.7,-1.1c.5,-.2,1.1,-.2,1.3,.2Z" class="gk_127"/>
<path d="M184.8,512.2c.2,.3,-.1,.8,-.7,1c-.6,.3,-1.1,.2,-1.3,-.1c-.1,-.4,.2,-.9,.7,-1.1c.6,-.3,1.2,-.2,1.3,.2Z" class="gj_127"/>
<path d="M184.8,512.2c.2,.3,-.1,.8,-.7,1c-.6,.3,-1.1,.2,-1.3,-.1c-.1,-.4,.2,-.9,.7,-1.1c.6,-.3,1.2,-.2,1.3,.2Z" class="gk_127"/>
<path d="M185.9,513c.2,.4,-.2,.9,-.7,1.1c-.6,.2,-1.1,.2,-1.3,-.2c-.2,-.3,.2,-.8,.7,-1.1c.6,-.2,1.1,-.1,1.3,.2Z" class="gj_127"/>
<path d="M185.9,513c.2,.4,-.2,.9,-.7,1.1c-.6,.2,-1.1,.2,-1.3,-.2c-.2,-.3,.2,-.8,.7,-1.1c.6,-.2,1.1,-.1,1.3,.2Z" class="gk_127"/>
<path d="M187,513.9c.1,.3,-.2,.8,-.8,1.1c-.5,.2,-1.1,.1,-1.2,-.2c-.2,-.4,.1,-.8,.7,-1.1c.5,-.2,1.1,-.2,1.3,.2Z" class="gj_127"/>
<path d="M187,513.9c.1,.3,-.2,.8,-.8,1.1c-.5,.2,-1.1,.1,-1.2,-.2c-.2,-.4,.1,-.8,.7,-1.1c.5,-.2,1.1,-.2,1.3,.2Z" class="gk_127"/>
<path d="M188,514.8c.2,.3,-.1,.8,-.7,1c-.5,.3,-1.1,.2,-1.3,-.1c-.1,-.4,.2,-.9,.8,-1.1c.5,-.3,1.1,-.2,1.2,.2Z" class="gj_127"/>
<path d="M188,514.8c.2,.3,-.1,.8,-.7,1c-.5,.3,-1.1,.2,-1.3,-.1c-.1,-.4,.2,-.9,.8,-1.1c.5,-.3,1.1,-.2,1.2,.2Z" class="gk_127"/>
<path d="M189.1,515.6c.2,.4,-.2,.8,-.7,1.1c-.6,.2,-1.2,.2,-1.3,-.2c-.2,-.3,.2,-.8,.7,-1.1c.6,-.2,1.2,-.1,1.3,.2Z" class="gj_127"/>
<path d="M189.1,515.6c.2,.4,-.2,.8,-.7,1.1c-.6,.2,-1.2,.2,-1.3,-.2c-.2,-.3,.2,-.8,.7,-1.1c.6,-.2,1.2,-.1,1.3,.2Z" class="gk_127"/>
<path d="M190.2,516.5c.1,.3,-.2,.8,-.8,1.1c-.5,.2,-1.1,.1,-1.2,-.2c-.2,-.4,.1,-.8,.7,-1.1c.5,-.2,1.1,-.2,1.3,.2Z" class="gj_127"/>
<path d="M190.2,516.5c.1,.3,-.2,.8,-.8,1.1c-.5,.2,-1.1,.1,-1.2,-.2c-.2,-.4,.1,-.8,.7,-1.1c.5,-.2,1.1,-.2,1.3,.2Z" class="gk_127"/>
<path d="M191.2,517.4c.2,.3,-.1,.8,-.7,1c-.5,.3,-1.1,.2,-1.3,-.1c-.1,-.4,.2,-.9,.8,-1.1c.5,-.3,1.1,-.2,1.2,.2Z" class="gj_127"/>
<path d="M191.2,517.4c.2,.3,-.1,.8,-.7,1c-.5,.3,-1.1,.2,-1.3,-.1c-.1,-.4,.2,-.9,.8,-1.1c.5,-.3,1.1,-.2,1.2,.2Z" class="gk_127"/>
<path d="M192.3,518.2c.2,.4,-.2,.8,-.7,1.1c-.6,.2,-1.1,.2,-1.3,-.2c-.2,-.3,.2,-.8,.7,-1.1c.6,-.2,1.2,-.1,1.3,.2Z" class="gj_127"/>
<path d="M192.3,518.2c.2,.4,-.2,.8,-.7,1.1c-.6,.2,-1.1,.2,-1.3,-.2c-.2,-.3,.2,-.8,.7,-1.1c.6,-.2,1.2,-.1,1.3,.2Z" class="gk_127"/>
<path d="M193.4,519.1c.1,.3,-.2,.8,-.7,1.1c-.6,.2,-1.2,.1,-1.3,-.2c-.2,-.4,.1,-.8,.7,-1.1c.6,-.3,1.1,-.2,1.3,.2Z" class="gj_127"/>
<path d="M193.4,519.1c.1,.3,-.2,.8,-.7,1.1c-.6,.2,-1.2,.1,-1.3,-.2c-.2,-.4,.1,-.8,.7,-1.1c.6,-.3,1.1,-.2,1.3,.2Z" class="gk_127"/>
<path d="M194.5,519.9c.1,.4,-.2,.9,-.8,1.1c-.5,.3,-1.1,.2,-1.3,-.2c-.1,-.3,.2,-.8,.8,-1c.5,-.3,1.1,-.2,1.3,.1Z" class="gj_127"/>
<path d="M194.5,519.9c.1,.4,-.2,.9,-.8,1.1c-.5,.3,-1.1,.2,-1.3,-.2c-.1,-.3,.2,-.8,.8,-1c.5,-.3,1.1,-.2,1.3,.1Z" class="gk_127"/>
<path d="M195.5,520.8c.2,.4,-.2,.8,-.7,1.1c-.6,.2,-1.1,.2,-1.3,-.2c-.1,-.3,.2,-.8,.7,-1.1c.6,-.2,1.2,-.1,1.3,.2Z" class="gj_127"/>
<path d="M195.5,520.8c.2,.4,-.2,.8,-.7,1.1c-.6,.2,-1.1,.2,-1.3,-.2c-.1,-.3,.2,-.8,.7,-1.1c.6,-.2,1.2,-.1,1.3,.2Z" class="gk_127"/>
<path d="M196.6,521.7c.1,.3,-.2,.8,-.7,1.1c-.6,.2,-1.2,.1,-1.3,-.2c-.2,-.4,.1,-.8,.7,-1.1c.6,-.3,1.1,-.2,1.3,.2Z" class="gj_127"/>
<path d="M196.6,521.7c.1,.3,-.2,.8,-.7,1.1c-.6,.2,-1.2,.1,-1.3,-.2c-.2,-.4,.1,-.8,.7,-1.1c.6,-.3,1.1,-.2,1.3,.2Z" class="gk_127"/>
<path d="M197.6,522.5c.2,.4,-.1,.9,-.7,1.1c-.5,.3,-1.1,.2,-1.3,-.2c-.1,-.3,.2,-.8,.8,-1c.5,-.3,1.1,-.2,1.2,.1Z" class="gj_127"/>
<path d="M197.6,522.5c.2,.4,-.1,.9,-.7,1.1c-.5,.3,-1.1,.2,-1.3,-.2c-.1,-.3,.2,-.8,.8,-1c.5,-.3,1.1,-.2,1.2,.1Z" class="gk_127"/>
<path d="M198.7,523.4c.2,.4,-.1,.8,-.7,1.1c-.6,.2,-1.1,.2,-1.3,-.2c-.2,-.3,.2,-.8,.7,-1.1c.6,-.2,1.2,-.1,1.3,.2Z" class="gj_127"/>
<path d="M198.7,523.4c.2,.4,-.1,.8,-.7,1.1c-.6,.2,-1.1,.2,-1.3,-.2c-.2,-.3,.2,-.8,.7,-1.1c.6,-.2,1.2,-.1,1.3,.2Z" class="gk_127"/>
<path d="M199.8,524.3c.1,.3,-.2,.8,-.7,1c-.6,.3,-1.2,.2,-1.3,-.1c-.2,-.4,.2,-.9,.7,-1.1c.6,-.3,1.1,-.2,1.3,.2Z" class="gj_127"/>
<path d="M199.8,524.3c.1,.3,-.2,.8,-.7,1c-.6,.3,-1.2,.2,-1.3,-.1c-.2,-.4,.2,-.9,.7,-1.1c.6,-.3,1.1,-.2,1.3,.2Z" class="gk_127"/>
<path d="M200.9,525.1c.1,.4,-.2,.9,-.8,1.1c-.5,.3,-1.1,.2,-1.2,-.2c-.2,-.3,.1,-.8,.7,-1c.5,-.3,1.1,-.2,1.3,.1Z" class="gj_127"/>
<path d="M200.9,525.1c.1,.4,-.2,.9,-.8,1.1c-.5,.3,-1.1,.2,-1.2,-.2c-.2,-.3,.1,-.8,.7,-1c.5,-.3,1.1,-.2,1.3,.1Z" class="gk_127"/>
<path d="M201.9,526c.2,.3,-.1,.8,-.7,1.1c-.6,.2,-1.1,.2,-1.3,-.2c-.1,-.4,.2,-.8,.7,-1.1c.6,-.2,1.2,-.1,1.3,.2Z" class="gj_127"/>
<path d="M201.9,526c.2,.3,-.1,.8,-.7,1.1c-.6,.2,-1.1,.2,-1.3,-.2c-.1,-.4,.2,-.8,.7,-1.1c.6,-.2,1.2,-.1,1.3,.2Z" class="gk_127"/>
<path d="M203,526.9c.1,.3,-.2,.8,-.7,1c-.6,.3,-1.2,.2,-1.3,-.1c-.2,-.4,.2,-.9,.7,-1.1c.6,-.3,1.1,-.2,1.3,.2Z" class="gj_127"/>
<path d="M203,526.9c.1,.3,-.2,.8,-.7,1c-.6,.3,-1.2,.2,-1.3,-.1c-.2,-.4,.2,-.9,.7,-1.1c.6,-.3,1.1,-.2,1.3,.2Z" class="gk_127"/>
<path d="M204.1,527.7c.1,.4,-.2,.9,-.8,1.1c-.5,.3,-1.1,.2,-1.3,-.2c-.1,-.3,.2,-.8,.8,-1c.5,-.3,1.1,-.2,1.3,.1Z" class="gj_127"/>
<path d="M204.1,527.7c.1,.4,-.2,.9,-.8,1.1c-.5,.3,-1.1,.2,-1.3,-.2c-.1,-.3,.2,-.8,.8,-1c.5,-.3,1.1,-.2,1.3,.1Z" class="gk_127"/>
<path d="M205.1,528.6c.2,.3,-.1,.8,-.7,1.1c-.5,.2,-1.1,.1,-1.3,-.2c-.1,-.4,.2,-.8,.8,-1.1c.5,-.2,1.1,-.1,1.2,.2Z" class="gj_127"/>
<path d="M205.1,528.6c.2,.3,-.1,.8,-.7,1.1c-.5,.2,-1.1,.1,-1.3,-.2c-.1,-.4,.2,-.8,.8,-1.1c.5,-.2,1.1,-.1,1.2,.2Z" class="gk_127"/>
<path d="M206.2,529.5c.2,.3,-.2,.8,-.7,1c-.6,.3,-1.2,.2,-1.3,-.1c-.2,-.4,.2,-.9,.7,-1.1c.6,-.3,1.2,-.2,1.3,.2Z" class="gj_127"/>
<path d="M206.2,529.5c.2,.3,-.2,.8,-.7,1c-.6,.3,-1.2,.2,-1.3,-.1c-.2,-.4,.2,-.9,.7,-1.1c.6,-.3,1.2,-.2,1.3,.2Z" class="gk_127"/>
<path d="M207.3,530.3c.1,.4,-.2,.9,-.8,1.1c-.5,.3,-1.1,.2,-1.2,-.2c-.2,-.3,.1,-.8,.7,-1c.5,-.3,1.1,-.2,1.3,.1Z" class="gj_127"/>
<path d="M207.3,530.3c.1,.4,-.2,.9,-.8,1.1c-.5,.3,-1.1,.2,-1.2,-.2c-.2,-.3,.1,-.8,.7,-1c.5,-.3,1.1,-.2,1.3,.1Z" class="gk_127"/>
<path d="M208.3,531.2c.2,.3,-.1,.8,-.7,1.1c-.5,.2,-1.1,.1,-1.3,-.2c-.1,-.4,.2,-.8,.8,-1.1c.5,-.2,1.1,-.2,1.2,.2Z" class="gj_127"/>
<path d="M208.3,531.2c.2,.3,-.1,.8,-.7,1.1c-.5,.2,-1.1,.1,-1.3,-.2c-.1,-.4,.2,-.8,.8,-1.1c.5,-.2,1.1,-.2,1.2,.2Z" class="gk_127"/>
<path d="M209.4,532.1c.2,.3,-.2,.8,-.7,1c-.6,.3,-1.2,.2,-1.3,-.2c-.2,-.3,.2,-.8,.7,-1c.6,-.3,1.2,-.2,1.3,.2Z" class="gj_127"/>
<path d="M209.4,532.1c.2,.3,-.2,.8,-.7,1c-.6,.3,-1.2,.2,-1.3,-.2c-.2,-.3,.2,-.8,.7,-1c.6,-.3,1.2,-.2,1.3,.2Z" class="gk_127"/>
<path d="M210.5,532.9c.1,.4,-.2,.9,-.8,1.1c-.5,.2,-1.1,.2,-1.2,-.2c-.2,-.3,.1,-.8,.7,-1c.5,-.3,1.1,-.2,1.3,.1Z" class="gj_127"/>
<path d="M210.5,532.9c.1,.4,-.2,.9,-.8,1.1c-.5,.2,-1.1,.2,-1.2,-.2c-.2,-.3,.1,-.8,.7,-1c.5,-.3,1.1,-.2,1.3,.1Z" class="gk_127"/>
<path d="M109.1,565.2H313.8" class="gl_127"/>
<path fill-rule="evenodd" d="M313.8,565.2l-1.7,-2.4l6.6,2.4l-6.6,2.5Z" class="g6_127"/>
<path d="M282.3,565.3C223.2,557.8,176.4,511.9,163.3,463.2" class="gm_127"/>
<path d="M209.6,534.6c0,-.9,.8,-1.7,1.8,-1.7c.9,0,1.7,.8,1.7,1.7c0,1,-.8,1.8,-1.7,1.8c-1,0,-1.8,-.8,-1.8,-1.8Z" class="g6_127"/>
<path d="M209.6,534.6c0,-.9,.8,-1.7,1.8,-1.7c.9,0,1.7,.8,1.7,1.7c0,1,-.8,1.8,-1.7,1.8c-1,0,-1.8,-.8,-1.8,-1.8Z" class="gn_127"/>
<path d="M142.5,509.7l7.6,5.1M119.2,492.7l7.9,5.7m15.4,23.4l7.6,5.3M119.2,504.9l6.3,4.5m-6.4,-29l31,22.2m-31,-34.4l31,22.2m-31,63.4l16.1,11.4M119.1,541.6l31,22.1m-31,-34.4l31,22.2m-31,-34.4l31,22.2m-6.4,-90.2l6.4,4.6m-23.3,-4.6l23.3,16.8m-31,-9.9l31,22.2" class="go_127"/>
<path d="M150.1,586V434.7" class="gl_127"/>
<path fill-rule="evenodd" d="M150.1,434.7l-2.4,1.6l2.4,-6.5l2.5,6.5Z" class="g6_127"/>
<path d="M280.6,565.3c0,-1,.7,-1.7,1.7,-1.7c1,0,1.7,.7,1.7,1.7c0,.9,-.7,1.7,-1.7,1.7c-1,0,-1.7,-.8,-1.7,-1.7Z" class="g6_127"/>
<path d="M280.6,565.3c0,-1,.7,-1.7,1.7,-1.7c1,0,1.7,.7,1.7,1.7c0,.9,-.7,1.7,-1.7,1.7c-1,0,-1.7,-.8,-1.7,-1.7Z" class="gn_127"/>
<path d="M116.1,65.5c0,0,-7.6,0,-7.6,7.6V83.8h220V65.5Z" class="g0_127"/>
</svg>