<?xml version="1.0" encoding="UTF-8" standalone="no"?>
<!DOCTYPE svg PUBLIC "-//W3C//DTD SVG 1.1//EN"
"http://www.w3.org/Graphics/SVG/1.1/DTD/svg11.dtd">
<svg viewBox="0 0 935 1210" version="1.1" xmlns="http://www.w3.org/2000/svg" xmlns:xlink="http://www.w3.org/1999/xlink">
<defs>
<clipPath id="c0_214"><path d="M42.8,1168.2V41.8H892.2V1168.2Z"/></clipPath>
<style type="text/css"><![CDATA[
.g0_214{
fill: #D9D9D9;
}
.g1_214{
}
]]></style>
</defs>
<path d="M93.4,190.3H653.5v39.6H93.4V190.3Z" class="g0_214"/>
<path d="M93.4,229.9H653.5v39.6H93.4V229.9Z" class="g0_214"/>
<path d="M93.4,269.5H653.5v50.6H93.4V269.5Z" class="g0_214"/>
<path d="M93.4,320.1H653.5v39.6H93.4V320.1Z" class="g0_214"/>
<path d="M93.4,359.7H653.5v39.6H93.4V359.7Z" class="g0_214"/>
<path d="M653.5,359.7H857v1.1H653.5v-1.1Z" class="g1_214"/>
<path d="M653.5,399.3H857v1.1H653.5v-1.1Z" class="g1_214"/>
<path d="M653.5,359.7h1.1v40.7h-1.1V359.7Z" class="g1_214"/>
<path d="M855.9,359.7H857v40.7h-1.1V359.7Z" class="g1_214"/>
<path d="M93.4,359.7H654.6v1.1H93.4v-1.1Z" class="g1_214"/>
<path d="M93.4,399.3H654.6v1.1H93.4v-1.1Z" class="g1_214"/>
<path d="M93.4,359.7h1.1v40.7H93.4V359.7Z" class="g1_214"/>
<path d="M653.5,359.7h1.1v40.7h-1.1V359.7Z" class="g1_214"/>
<path d="M653.5,320.1H857v1.1H653.5v-1.1Z" class="g1_214"/>
<path d="M653.5,359.7H857v1.1H653.5v-1.1Z" class="g1_214"/>
<path d="M653.5,320.1h1.1v40.7h-1.1V320.1Z" class="g1_214"/>
<path d="M855.9,320.1H857v40.7h-1.1V320.1Z" class="g1_214"/>
<path d="M93.4,320.1H654.6v1.1H93.4v-1.1Z" class="g1_214"/>
<path d="M93.4,359.7H654.6v1.1H93.4v-1.1Z" class="g1_214"/>
<path d="M93.4,320.1h1.1v40.7H93.4V320.1Z" class="g1_214"/>
<path d="M653.5,320.1h1.1v40.7h-1.1V320.1Z" class="g1_214"/>
<path d="M653.5,269.5H857v1.1H653.5v-1.1Z" class="g1_214"/>
<path d="M653.5,320.1H857v1.1H653.5v-1.1Z" class="g1_214"/>
<path d="M653.5,269.5h1.1v51.7h-1.1V269.5Z" class="g1_214"/>
<path d="M855.9,269.5H857v51.7h-1.1V269.5Z" class="g1_214"/>
<path d="M93.4,269.5H654.6v1.1H93.4v-1.1Z" class="g1_214"/>
<path d="M93.4,320.1H654.6v1.1H93.4v-1.1Z" class="g1_214"/>
<path d="M93.4,269.5h1.1v51.7H93.4V269.5Z" class="g1_214"/>
<path d="M653.5,269.5h1.1v51.7h-1.1V269.5Z" class="g1_214"/>
<path d="M653.5,229.9H857V231H653.5v-1.1Z" class="g1_214"/>
<path d="M653.5,269.5H857v1.1H653.5v-1.1Z" class="g1_214"/>
<path d="M653.5,229.9h1.1v40.7h-1.1V229.9Z" class="g1_214"/>
<path d="M855.9,229.9H857v40.7h-1.1V229.9Z" class="g1_214"/>
<path d="M93.4,229.9H654.6V231H93.4v-1.1Z" class="g1_214"/>
<path d="M93.4,269.5H654.6v1.1H93.4v-1.1Z" class="g1_214"/>
<path d="M93.4,229.9h1.1v40.7H93.4V229.9Z" class="g1_214"/>
<path d="M653.5,229.9h1.1v40.7h-1.1V229.9Z" class="g1_214"/>
<path d="M653.5,190.3H857v1.1H653.5v-1.1Z" class="g1_214"/>
<path d="M653.5,229.9H857V231H653.5v-1.1Z" class="g1_214"/>
<path d="M653.5,190.3h1.1V231h-1.1V190.3Z" class="g1_214"/>
<path d="M855.9,190.3H857V231h-1.1V190.3Z" class="g1_214"/>
<path d="M93.4,190.3H654.6v1.1H93.4v-1.1Z" class="g1_214"/>
<path d="M93.4,229.9H654.6V231H93.4v-1.1Z" class="g1_214"/>
<path d="M93.4,190.3h1.1V231H93.4V190.3Z" class="g1_214"/>
<path d="M653.5,190.3h1.1V231h-1.1V190.3Z" class="g1_214"/>
<image clip-path="url(#c0_214)" preserveAspectRatio="none" x="43" y="744" width="849" height="224" xlink:href="img/1.jpg"/>
</svg>