<?xml version="1.0" encoding="UTF-8" standalone="no"?>
<!DOCTYPE svg PUBLIC "-//W3C//DTD SVG 1.1//EN"
"http://www.w3.org/Graphics/SVG/1.1/DTD/svg11.dtd">
<svg viewBox="0 0 931 1096" version="1.1" xmlns="http://www.w3.org/2000/svg" xmlns:xlink="http://www.w3.org/1999/xlink">
<defs>
<clipPath id="c0_113"><path d="M119.3,409.2V97.6H332.7V409.2Z"/></clipPath>
<clipPath id="c1_113"><path d="M522.7,910.7V874.2H698.1v36.5Z"/></clipPath>
<clipPath id="c2_113"><path d="M108.5,1001.2V596.4h216v404.8Z"/></clipPath>
<style type="text/css"><![CDATA[
.g0_113{
fill: none;
stroke: #241F1F;
stroke-width: 0.763;
stroke-miterlimit: 10;
}
.g1_113{
fill: #E8F6FE;
}
.g2_113{
fill: none;
stroke: #6AC48C;
stroke-width: 0.763;
stroke-miterlimit: 3;
stroke-dasharray: 10,4;
}
.g3_113{
fill: none;
stroke: #EE008C;
stroke-width: 0.763;
stroke-linejoin: round;
}
.g4_113{
fill: none;
stroke: #6AC48C;
stroke-width: 0.916;
stroke-miterlimit: 3;
stroke-dasharray: 10,4;
}
.g5_113{
fill: none;
stroke: #6AC48C;
stroke-width: 0.916;
stroke-linejoin: round;
}
.g6_113{
fill: none;
stroke: #00AEEF;
stroke-width: 0.763;
stroke-linejoin: round;
}
.g7_113{
fill: none;
stroke: #241F1F;
stroke-width: 0.611;
stroke-miterlimit: 3;
}
.g8_113{
fill: #241F1F;
}
.g9_113{
fill: none;
stroke: #241F1F;
stroke-width: 0.916;
stroke-linejoin: round;
}
.ga_113{
fill: none;
stroke: #241F1F;
stroke-width: 0.763;
stroke-miterlimit: 3;
}
]]></style>
</defs>
<image clip-path="url(#c0_113)" preserveAspectRatio="none" x="119" y="98" width="214" height="311" xlink:href="img/1.jpg"/>
<path d="M570.1,272.3H686.4M570.1,324.2h85.5m-85.5,50.5H691" class="g0_113"/>
<path d="M460.6,462.5H610.4v30.6H460.6Zm149.8,0H760.1v30.6H610.4Z" class="g1_113"/>
<path d="M610.4,579V557.6m0,-42.8V493.4m0,42.8V514.8m0,42.8V536.2m0,63.8V579m0,-86.3V462.9M460.6,514.8V493.4m299.5,21.4V493.4M460.6,536.2V514.8m299.5,21.4V514.8M460.6,557.6V536.2m299.5,21.4V536.2M460.6,579V557.6M760.1,579V557.6M460.6,600V579m299.5,21V579M460.3,600.4H610.4m0,0H760.5M460.3,462.5H610.4m0,0H760.5M460.3,493.1H610.4m0,0H760.5m-299.9,-.4V462.9m299.5,29.8V462.9" class="g0_113"/>
<path clip-path="url(#c1_113)" d="M568.2,892.2H698.4" class="g0_113"/>
<path d="M169,936.6v34" class="g2_113"/>
<path d="M252.1,816.9L130.6,992" class="g3_113"/>
<path d="M204.1,726.9v34.6M169.3,726.9v34.4" class="g4_113"/>
<path d="M204.1,658.2v68.7H169.3" class="g5_113"/>
<path d="M229.8,607.6L141.1,782.7" class="g6_113"/>
<path clip-path="url(#c2_113)" d="M103.9,761.1H319.6" class="g7_113"/>
<path fill-rule="evenodd" d="M319.6,761.1L318,758.7l6.5,2.4l-6.5,2.5Z" class="g8_113"/>
<path d="M128.8,791.5V605.6" class="g7_113"/>
<path fill-rule="evenodd" d="M128.8,605.6l-2.4,1.6l2.4,-6.5l2.5,6.5Z" class="g8_113"/>
<path d="M220.2,607.6C188.8,725.4,143,761.3,129.1,761.1" class="g9_113"/>
<path d="M202.4,658.2c0,-.9,.8,-1.7,1.7,-1.7c1,0,1.8,.8,1.8,1.7c0,1,-.8,1.7,-1.8,1.7c-.9,0,-1.7,-.7,-1.7,-1.7Z" class="g8_113"/>
<path d="M202.4,658.2c0,-.9,.8,-1.7,1.7,-1.7c1,0,1.8,.8,1.8,1.7c0,1,-.8,1.7,-1.8,1.7c-.9,0,-1.7,-.7,-1.7,-1.7Z" class="ga_113"/>
<path d="M167.6,726.9c0,-.9,.7,-1.7,1.7,-1.7c.9,0,1.7,.8,1.7,1.7c0,1,-.8,1.8,-1.7,1.8c-1,0,-1.7,-.8,-1.7,-1.8Z" class="g8_113"/>
<path d="M167.6,726.9c0,-.9,.7,-1.7,1.7,-1.7c.9,0,1.7,.8,1.7,1.7c0,1,-.8,1.8,-1.7,1.8c-1,0,-1.7,-.8,-1.7,-1.8Z" class="ga_113"/>
<path clip-path="url(#c2_113)" d="M103.9,970.5H319.6" class="g7_113"/>
<path fill-rule="evenodd" d="M319.6,970.5L318,968l6.5,2.5l-6.5,2.4Z" class="g8_113"/>
<path clip-path="url(#c2_113)" d="M128.8,1001.2V814.9" class="g7_113"/>
<path fill-rule="evenodd" d="M128.8,814.9l-2.4,1.7l2.4,-6.6l2.4,6.6Z" class="g8_113"/>
<path d="M220.2,816.9C188.8,934.7,143,970.6,129.1,970.5" class="g9_113"/>
<path d="M167.3,936.6c0,-.9,.7,-1.7,1.7,-1.7c.9,0,1.7,.8,1.7,1.7c0,1,-.8,1.7,-1.7,1.7c-1,0,-1.7,-.7,-1.7,-1.7Z" class="g8_113"/>
<path d="M167.3,936.6c0,-.9,.7,-1.7,1.7,-1.7c.9,0,1.7,.8,1.7,1.7c0,1,-.8,1.7,-1.7,1.7c-1,0,-1.7,-.7,-1.7,-1.7Z" class="ga_113"/>
</svg>