<?xml version="1.0" encoding="UTF-8" standalone="no"?>
<!DOCTYPE svg PUBLIC "-//W3C//DTD SVG 1.1//EN"
"http://www.w3.org/Graphics/SVG/1.1/DTD/svg11.dtd">
<svg viewBox="0 0 931 1096" version="1.1" xmlns="http://www.w3.org/2000/svg" xmlns:xlink="http://www.w3.org/1999/xlink">
<defs>
<style type="text/css"><![CDATA[
.g0_170{
fill: #FFF;
}
.g1_170{
fill: none;
stroke: #00AEEF;
stroke-width: 1.145;
}
.g2_170{
fill: none;
stroke: #00AEEF;
stroke-width: 0.763;
}
]]></style>
</defs>
<path d="M290.7,99.5c0,0,-3.1,0,-3.1,3V227.7c0,0,0,3,3.1,3H820.1c0,0,3,0,3,-3V102.5c0,0,0,-3,-3,-3Z" class="g0_170"/>
<path d="M303.8,108.8c0,0,-1.5,0,-1.5,1.6v14.1c0,0,0,1.5,1.5,1.5H318c0,0,1.5,0,1.5,-1.5V110.4c0,0,0,-1.6,-1.5,-1.6H303.8Z" class="g1_170"/>
<path d="M290.7,99.5c0,0,-3.1,0,-3.1,3V227.7c0,0,0,3,3.1,3H820.1c0,0,3,0,3,-3V102.5c0,0,0,-3,-3,-3H290.7Z" class="g2_170"/>
<path d="M290.7,653.2c0,0,-3.1,0,-3.1,3v50c0,0,0,3,3.1,3H820.1c0,0,3,0,3,-3v-50c0,0,0,-3,-3,-3Z" class="g0_170"/>
<path d="M290.7,653.2c0,0,-3.1,0,-3.1,3v50c0,0,0,3,3.1,3H820.1c0,0,3,0,3,-3v-50c0,0,0,-3,-3,-3H290.7Z" class="g2_170"/>
</svg>