<?xml version="1.0" encoding="UTF-8" standalone="no"?>
<!DOCTYPE svg PUBLIC "-//W3C//DTD SVG 1.1//EN"
"http://www.w3.org/Graphics/SVG/1.1/DTD/svg11.dtd">
<svg viewBox="0 0 931 1096" version="1.1" xmlns="http://www.w3.org/2000/svg" xmlns:xlink="http://www.w3.org/1999/xlink">
<defs>
<clipPath id="c0_81"><path d="M462.4,714.7v-32H528v32Z"/></clipPath>
<clipPath id="c1_81"><path d="M460.7,796.8V762.2H760v34.6Z"/></clipPath>
<style type="text/css"><![CDATA[
.g0_81{
fill: none;
stroke: #241F1F;
stroke-width: 0.534;
stroke-miterlimit: 10;
}
.g1_81{
fill: none;
stroke: #241F1F;
stroke-width: 0.763;
stroke-miterlimit: 10;
}
.g2_81{
fill: none;
stroke: #EE008C;
stroke-width: 0.916;
stroke-miterlimit: 3;
}
.g3_81{
fill: none;
stroke: #241F1F;
stroke-width: 0.534;
stroke-miterlimit: 3;
}
.g4_81{
fill: none;
stroke: #00AEEF;
stroke-width: 0.916;
stroke-miterlimit: 3;
}
.g5_81{
fill: none;
stroke: #00AEEF;
stroke-width: 0.534;
stroke-miterlimit: 3;
}
]]></style>
</defs>
<path d="M473.7,301.5h5.4m39.4,0h5.4m78.7,0h10.7" class="g0_81"/>
<path d="M399.9,356.6h106m64.9,0H583m3.8,0h12.3m21.8,0h12.2m3.8,0h50m21.9,0h19.9m3.8,0h40.8" class="g1_81"/>
<path d="M546.6,407H552m60.7,0h10.7m98.6,0h10.8M549.6,468.1H555M806.3,573.5h5.4M371.5,593.3h5.4m93.2,0h5.4m243.7,0h5.4m75.2,0h10.7M614,611.7h5.4M791,630h5.4" class="g0_81"/>
<path clip-path="url(#c0_81)" d="M475.3,698.9h53.1" class="g1_81"/>
<path clip-path="url(#c1_81)" d="M461.1,778.3h53.1m21.8,0h99m21.9,0h40.8m21.9,0h40.8" class="g1_81"/>
<path d="M470.6,966.2h53m21.9,0h19.9m27.9,0h40.8m21.9,0h40.9m-151.8,56.6H565" class="g1_81"/>
<path d="M217.5,468.7c2.8,40.1,6.9,45.1,6.9,110m3.7,-110c2.2,40.8,11.9,45.3,67.4,49.8m-91.4,60.1C200.5,549,187.7,539.2,171.6,539.2c-11.9,0,-13.9,14.6,-13.9,39.4M127.4,526c23.7,-1,26.9,-2.2,26.9,-57.3" class="g2_81"/>
<path d="M127.4,523.7H295.5m-84.1,55v-110m-1.6,82.5H213m-3.2,-55H213m-57.6,29v-3.1m28,3.1v-3.1m56,3.1v-3.1m28.1,3.1v-3.1" class="g3_81"/>
<path d="M127.4,503.3c6,.3,11.7,.9,16,.9c10.9,0,12.3,-2.9,12.3,-11.5v-24m57.4,110c.4,-23.8,5.7,-35.8,10,-35.8c2,0,2.3,2.4,2.3,9.5v26.2m-14.2,.1C209.5,553.4,207,541.4,194.9,529.3C178.4,513,156.5,510,156.5,498V468.7m139,39.8c-40.7,6.3,-56.4,17.5,-62.1,23.1c-5,5.1,-7.3,8.3,-7.3,20.8v26.2" class="g4_81"/>
<path d="M136.6,468.7H286.3c5.1,0,9.2,4.1,9.2,9.1v91.7c0,5.1,-4.1,9.2,-9.2,9.2H136.6c-5.1,0,-9.2,-4.1,-9.2,-9.2V477.8c0,-5,4.1,-9.1,9.2,-9.1Z" class="g5_81"/>
</svg>