<?xml version="1.0" encoding="UTF-8" standalone="no"?>
<!DOCTYPE svg PUBLIC "-//W3C//DTD SVG 1.1//EN"
"http://www.w3.org/Graphics/SVG/1.1/DTD/svg11.dtd">
<svg viewBox="0 0 909 1286" version="1.1" xmlns="http://www.w3.org/2000/svg" xmlns:xlink="http://www.w3.org/1999/xlink">
<defs>
<clipPath id="c0_493"><path d="M0,1286.2V-.1H910.6V1286.2Z"/></clipPath>
<style type="text/css"><![CDATA[
.g0_493{
fill: #FFFFFF;
}
.g1_493{
fill: none;
stroke: #0000FF;
stroke-width: 0.733;
stroke-linecap: butt;
stroke-linejoin: bevel;
stroke-miterlimit: 3;
}
]]></style>
</defs>
<g clip-path="url(#c0_493)">
<path fill-rule="evenodd" d="M0,0H909.5V1286.2H0V0Z" class="g0_493"/>
<path d="M65.1,92.4H212.7M65.1,121.3H198.9m-133.8,29H166.2m7.7,0h17.3m7.7,0h15.8m7.8,0H238M65.1,179.4H180m7.9,0h17.2m-140,29h74.2m-66.9,29H391.6M72.4,266.5H364.6m-292.2,29H244.7m-164.9,29H286M79.8,353.6H236.3m-156.5,29H258.5m-186.1,29H218.5M72.4,440.7H388.3M72.4,469.6H377.8m-298,29.1H330.3M79.8,527.8H227.6M79.8,556.7H239M79.8,585.8h60.1M79.8,614.9H234.7M79.8,643.8H296.1m-231,29H227.5m7.9,0h17M65.1,701.9h64.1m-64.1,29H189.5m-124.4,29h103M65.1,789H255.9M65.1,818H170.8M65.1,847H181.8M65.1,876.1h143m-143,29H169.4m-104.3,29H188.5m7.7,0h17.2M65.1,963.2H177.8M65.1,992.1H169.6M65.1,1021.2h113m-113,29.1H209.5M65.1,1079.2H193.6M65.1,1108.3H191.9" class="g1_493"/>
</g>
</svg>