<?xml version="1.0" encoding="UTF-8" standalone="no"?>
<!DOCTYPE svg PUBLIC "-//W3C//DTD SVG 1.1//EN"
"http://www.w3.org/Graphics/SVG/1.1/DTD/svg11.dtd">
<svg viewBox="0 0 907 1045" version="1.1" xmlns="http://www.w3.org/2000/svg" xmlns:xlink="http://www.w3.org/1999/xlink">
<defs>
<clipPath id="c0_132"><path d="M236.3,371.7c-38.1,-18,-82,-19.1,-67.5,-70.4c7.7,-27.3,36.8,-38.3,69.9,-48h36.2c84.2,27.1,64.6,93.6,-9.7,118.4Z"/></clipPath>
<clipPath id="c1_132"><path d="M260.9,347C246,340.1,230.2,337,224.1,326V300.6c5.7,-15.3,22.3,-21.8,41.1,-27.7h21.7c49.2,16.8,39.5,57.4,-2.2,74.1Z"/></clipPath>
<clipPath id="c2_132"><path d="M289,328.1c-8.5,-6,-18.3,-6.4,-15.1,-23.6c1.8,-9.1,8.3,-12.8,15.7,-16.1h8.1c18.8,9.1,14.4,31.4,-2.2,39.7Z"/></clipPath>
<clipPath id="c3_132"><path d="M103.7,471.8v-56h141v56Z"/></clipPath>
<clipPath id="c4_132"><path d="M643.3,400.9V234.5h178V400.9Z"/></clipPath>
<clipPath id="c5_132"><path d="M611.7,678.1V432.4h25.4V678.1Zm26.5,0V431.3H611.7V400.9h31.6v19.5h178V400.9h6V678.1Z"/></clipPath>
<clipPath id="c6_132"><path d="M637.1,678.1V432.4H611.7v-1.1h26.5V678.1Z"/></clipPath>
<clipPath id="c7_132"><path d="M643.3,420.4V400.9h178v19.5Z"/></clipPath>
<clipPath id="c8_132"><path d="M109.5,972.6v-.2H98.6V931.5l67,41.1Zm152.7,0l56.7,-92.4v92.4ZM98.6,787.5V769.8h10.8L98.6,787.5Zm220.3,-1.6L292.7,769.8h26.2v16.1ZM98.6,768.7V752.3h21.6l-10.1,16.4Zm192.3,0L264.1,752.3h54.8v16.4Z"/></clipPath>
<clipPath id="c9_132"><path d="M98.6,972.6v-.2h10.9v.2Z"/></clipPath>
<clipPath id="ca_132"><path d="M106.1,979.5v-4.4l-3.2,4.4ZM95.9,978.3c0,0,.4,0,.9,-.2c0,0,.4,-.2,.7,-.7c0,0,.2,-.5,.2,-1.1c0,0,0,-.5,-.1,-.9c0,0,-.2,-.5,-.4,-.8c0,0,-.3,-.3,-.6,-.5c0,0,-.4,-.1,-.8,-.1c0,0,-.7,0,-1.2,.6c0,0,-.5,.6,-.5,1.6c0,0,0,1,.5,1.6c0,0,.5,.5,1.3,.5Zm-.2,5.4c0,0,-.9,0,-1.7,-.4c0,0,-.7,-.4,-1,-.9c0,0,-.4,-.6,-.4,-1.1c0,0,0,-.3,.2,-.5c0,0,.2,-.3,.6,-.3c0,0,.3,0,.6,.2c0,0,.3,.2,.4,.5c0,0,.2,.5,.5,.8c0,0,.4,.2,.9,.2c0,0,.4,0,.8,-.2c0,0,.4,-.2,.6,-.6c0,0,.6,-.8,.7,-2.8c0,0,-.5,.6,-1.1,.9c0,0,-.6,.3,-1.4,.3c0,0,-.7,0,-1.3,-.3c0,0,-.6,-.3,-1,-.8c0,0,-.5,-.5,-.7,-1.1c0,0,-.2,-.7,-.2,-1.4c0,0,0,-.8,.2,-1.4c0,0,.3,-.7,.8,-1.2c0,0,.5,-.5,1.2,-.8c0,0,.7,-.3,1.5,-.3c0,0,1,0,1.7,.3c0,0,.8,.4,1.3,1.1c0,0,.5,.6,.8,1.6c0,0,.3,1.1,.3,2.3c0,0,0,1.5,-.3,2.6c0,0,-.3,1.1,-.9,1.8c0,0,-.5,.7,-1.3,1.1c0,0,-.8,.4,-1.8,.4Zm11.3,0c0,0,-.4,0,-.7,-.3c0,0,-.2,-.3,-.2,-.9v-1.4h-3.8c0,0,-.7,0,-1,-.3c0,0,-.4,-.3,-.4,-.8c0,0,0,-.2,.1,-.3c0,0,0,-.2,.1,-.3c0,0,.1,-.2,.3,-.3c0,0,.1,-.2,.2,-.4l4,-5.3c0,0,.4,-.5,.6,-.8c0,0,.3,-.2,.6,-.2c0,0,1.2,0,1.2,1.3v5.8h.3c0,0,.6,0,.9,.1c0,0,.3,.2,.3,.7c0,0,0,.5,-.2,.7c0,0,-.3,.1,-.9,.1H108v1.4c0,0,0,.6,-.3,.9c0,0,-.3,.3,-.7,.3Z"/></clipPath>
<clipPath id="cb_132"><path d="M98.6,769.8v-1.1h11.5l-.7,1.1Zm194.1,0l-1.8,-1.1h28v1.1Z"/></clipPath>
<clipPath id="cc_132"><path d="M74.8,917L34.4,892.1L98.6,787.5v90.8L74.8,917ZM120.2,752.3l39.3,-64.2L200,712.9l-24.2,39.4Z"/></clipPath>
<clipPath id="cd_132"><path d="M98.6,931.5L74.3,916.6L98.6,877v54.5Z"/></clipPath>
<clipPath id="ce_132"><path d="M335.8,852.7L318.9,842.4V785.9L361,811.7l-25.2,41ZM175,752.3l24.4,-39.7l64.7,39.7Z"/></clipPath>
<clipPath id="cf_132"><path d="M235.8,1015.7L187.7,986.1h22.7V973.4H166.9l-1.3,-.8h92.1l3.3,2.1l-25.2,41Z"/></clipPath>
<clipPath id="cg_132"><path d="M260.7,975.2l-4.3,-2.6h5.8l-1.5,2.6Z"/></clipPath>
<clipPath id="ch_132"><path d="M318.9,880.2V841.6l17.2,10.5l-17.2,28.1Z"/></clipPath>
<clipPath id="ci_132"><path d="M187.7,986.1L166.9,973.4h43.5v12.7Z"/></clipPath>
<clipPath id="cj_132"><path d="M168.6,982.1c0,0,.4,0,.8,-.2c0,0,.4,-.2,.6,-.5c0,0,.2,-.3,.3,-1.1l.1,-.2c0,0,-.2,0,-.5,.1c0,0,-1.5,.2,-1.9,.5c0,0,-.3,.2,-.3,.6c0,0,0,.4,.2,.6c0,0,.3,.2,.7,.2Zm8.8,0c0,0,.5,0,.9,-.3c0,0,.5,-.3,.8,-1.2c0,0,.2,-.8,.2,-1.4c0,0,0,-.9,-.3,-1.3c0,0,-.4,-.4,-1,-.4c0,0,-.6,0,-1,.4c0,0,-.5,.4,-.7,1.1c0,0,-.3,.8,-.3,1.4c0,0,0,.8,.4,1.3c0,0,.4,.4,1,.4Zm14.3,-2.8c0,0,.1,-.1,.1,-.2c0,0,0,-.8,-.4,-1.2c0,0,-.4,-.4,-1,-.4c0,0,-.6,0,-1,.4c0,0,-.5,.5,-.7,1.4Zm-23.8,4.3c0,0,-.9,0,-1.5,-.6c0,0,-.5,-.6,-.5,-1.5c0,0,0,-1,.6,-1.6c0,0,.6,-.6,2.3,-.8c0,0,1.3,-.1,1.8,-.2c0,0,.1,-.4,.1,-.7c0,0,0,-.3,-.2,-.5c0,0,-.3,-.2,-.8,-.2c0,0,-.5,0,-.8,.2c0,0,-.3,.2,-.4,.6l-1.9,-.2c0,0,.4,-.9,1.2,-1.4c0,0,.8,-.6,2.1,-.6c0,0,1.4,0,2,.6c0,0,.7,.5,.7,1.3c0,0,0,.4,-.1,.7c0,0,0,.4,-.4,1.9c0,0,-.3,1.3,-.3,1.8c0,0,0,.5,.2,1h-1.9c0,0,-.1,-.4,-.1,-.8c0,0,-.4,.5,-1,.7c0,0,-.5,.3,-1.1,.3Zm4.9,2.5l2.1,-9.8h1.8l-.2,.7c0,0,.6,-.5,1.1,-.7c0,0,.6,-.2,1.1,-.2c0,0,1.2,0,1.8,.8c0,0,.7,.8,.7,2.3c0,0,0,1.9,-1.2,3.3c0,0,-1,1.1,-2.3,1.1c0,0,-1.5,0,-2.2,-1.1l-.8,3.6Zm17.1,-2.5c0,0,-1.4,0,-2.3,-.9c0,0,-.9,-.9,-.9,-2.4c0,0,0,-1.5,.8,-2.6c0,0,1.1,-1.6,3.1,-1.6c0,0,1.4,0,2.1,.8c0,0,.8,.8,.8,2.3c0,0,0,.7,-.1,1.3h-4.9c0,0,0,.1,0,.1c0,0,0,.7,.4,1.2c0,0,.4,.4,1,.4c0,0,1,0,1.5,-1l1.8,.3c0,0,-.6,1.1,-1.4,1.6c0,0,-.8,.5,-1.9,.5Zm4.1,-.2l1.4,-7.1h1.8l-.2,1.4c0,0,1,-1.6,2.1,-1.6c0,0,.5,0,.9,.2l-.7,1.6c0,0,-.3,-.1,-.6,-.1c0,0,-.5,0,-1,.4c0,0,-.5,.4,-.8,1c0,0,-.3,.6,-.6,2l-.4,2.2Zm-9.6,.2c0,0,-1.1,0,-1.5,-.4c0,0,-.5,-.4,-.5,-1.1c0,0,0,-.3,.3,-1.5l.6,-2.9h-1l.3,-1.4h1l.2,-1.1l2.2,-1.4l-.5,2.5h1.2l-.3,1.4h-1.2l-.6,3c0,0,-.2,.8,-.2,.9c0,0,0,.3,.1,.4c0,0,.2,.1,.6,.1c0,0,.1,0,.6,0l-.3,1.4c0,0,-.5,.1,-1,.1Zm-27,-.2l2.1,-9.8h1.9l-.7,3.5c0,0,.6,-.5,1.2,-.8c0,0,.6,-.2,1.2,-.2c0,0,.9,0,1.4,.5c0,0,.5,.5,.5,1.3c0,0,0,.5,-.2,1.4l-.9,4.1H162l.9,-4.2c0,0,.1,-.7,.2,-.9c0,0,0,-.4,-.3,-.6c0,0,-.2,-.2,-.6,-.2c0,0,-.5,0,-.9,.3c0,0,-.6,.5,-.9,1.1c0,0,-.2,.4,-.5,1.7l-.5,2.8Zm49,.2c0,0,-1.2,0,-2,-.7c0,0,-.8,-.7,-1,-2l1.8,-.3c0,0,.1,.8,.4,1.1c0,0,.3,.3,.8,.3c0,0,.7,0,1.1,-.4c0,0,.5,-.5,.5,-1.2c0,0,0,-.6,-.4,-.9c0,0,-.3,-.4,-.9,-.4c0,0,-.2,0,-.3,.1l.3,-1.7c0,0,.1,.1,.2,.1c0,0,.8,0,1.2,-.4c0,0,.4,-.4,.4,-1.1c0,0,0,-.5,-.3,-.7c0,0,-.3,-.3,-.7,-.3c0,0,-.4,0,-.8,.3c0,0,-.3,.3,-.5,1l-1.7,-.3c0,0,.3,-1.1,.9,-1.7c0,0,.9,-.9,2.2,-.9c0,0,1.4,0,2.1,.8c0,0,.7,.8,.7,1.8c0,0,0,.8,-.5,1.4c0,0,-.4,.6,-1.2,.9c0,0,.6,.3,.9,.9c0,0,.3,.5,.3,1c0,0,0,1.1,-.7,2.1c0,0,-1.1,1.2,-2.8,1.2Zm-54.3,0c0,0,-1.8,0,-2.9,-1.1c0,0,-1,-1.1,-1,-3.1c0,0,0,-1.7,.7,-3.1c0,0,.7,-1.4,1.9,-2.2c0,0,1.2,-.7,2.6,-.7c0,0,1.6,0,2.6,.9c0,0,1,.8,1.2,2.3l-2,.2c0,0,-.1,-.9,-.6,-1.3c0,0,-.4,-.3,-1.2,-.3c0,0,-.9,0,-1.6,.5c0,0,-.7,.5,-1.1,1.6c0,0,-.5,1,-.5,2.1c0,0,0,1.2,.6,1.9c0,0,.6,.6,1.4,.6c0,0,.8,0,1.4,-.5c0,0,.7,-.5,1,-1.5l2.1,.3c0,0,-.6,1.7,-1.8,2.5c0,0,-1.2,.9,-2.8,.9Z"/></clipPath>
<clipPath id="ck_132"><path d="M165.6,972.6L143.8,959.3L98.6,931.5v-144l10.8,-17.7H292.7l26.2,16.1v94.3l-56.7,92.4ZM110.1,768.7l10.1,-16.4H264.1l26.8,16.4Z"/></clipPath>
<clipPath id="cl_132"><path d="M109.4,769.8l.7,-1.1H290.9l1.8,1.1Z"/></clipPath>
<clipPath id="cm_132"><path d="M-2.6,1047.7V-2.6H910.2V1047.7Z"/></clipPath>
<style type="text/css"><![CDATA[
.g0_132{
}
.g1_132{
fill: #FFFFFF;
}
.g2_132{
fill: none;
stroke: #000000;
stroke-width: 1.527;
stroke-linecap: butt;
stroke-linejoin: miter;
stroke-miterlimit: 4;
}
.g3_132{
fill: none;
stroke: #000000;
stroke-width: 1.145;
stroke-linecap: butt;
stroke-linejoin: miter;
stroke-miterlimit: 4;
}
.g4_132{
fill: none;
stroke: #000000;
stroke-width: 0.763;
stroke-linecap: butt;
stroke-linejoin: miter;
stroke-miterlimit: 4;
}
.g5_132{
fill: none;
stroke: #000000;
stroke-width: 0.804;
stroke-linecap: butt;
stroke-linejoin: miter;
stroke-miterlimit: 4;
}
.g6_132{
fill: #747474;
}
.g7_132{
fill: none;
stroke: #595959;
stroke-width: 0.706;
stroke-linecap: butt;
stroke-linejoin: miter;
stroke-miterlimit: 4;
}
.g8_132{
fill: none;
stroke: #595959;
stroke-width: 0.702;
stroke-linecap: butt;
stroke-linejoin: miter;
stroke-miterlimit: 4;
}
.g9_132{
fill: none;
stroke: #595959;
stroke-width: 0.718;
stroke-linecap: butt;
stroke-linejoin: miter;
stroke-miterlimit: 4;
}
.ga_132{
fill: #B5B5B5;
}
.gb_132{
fill: #333333;
}
.gc_132{
fill: #7C7C7C;
}
.gd_132{
fill: #8F8F8F;
}
.ge_132{
fill: #727272;
}
.gf_132{
fill: #C7C7C7;
}
.gg_132{
fill: #ABABAB;
}
.gh_132{
fill: #A7A7A7;
}
.gi_132{
fill: #E5E5E5;
}
.gj_132{
fill: #D2D2D2;
}
.gk_132{
fill: #CECECE;
}
.gl_132{
fill: #ECECEC;
}
.gm_132{
fill: #DCDCDC;
}
.gn_132{
fill: #DADADA;
}
.go_132{
fill: #D5D5D5;
}
.gp_132{
fill: #3C3C3C;
}
.gq_132{
fill: #F4F4F4;
}
.gr_132{
fill: none;
stroke: #D3D3D3;
stroke-width: 1.005;
stroke-linecap: butt;
stroke-linejoin: miter;
stroke-miterlimit: 4;
}
.gs_132{
fill: none;
stroke: #000000;
stroke-width: 1.373;
stroke-linecap: butt;
stroke-linejoin: miter;
}
.gt_132{
fill: none;
stroke: #636363;
stroke-width: 1.527;
stroke-linecap: butt;
stroke-linejoin: miter;
stroke-miterlimit: 4;
}
.gu_132{
fill: none;
stroke: #FFFFFF;
stroke-width: 1.909;
stroke-linecap: butt;
stroke-linejoin: miter;
}
.gv_132{
fill: none;
stroke: #000000;
stroke-width: 0.381;
stroke-linecap: butt;
stroke-linejoin: miter;
}
]]></style>
</defs>
<path d="M90.7,431.8h-.5v338h548V431.3H90.2v.5h.5v.6H637.6v-.6h-.5V769.2h.5v-.5H90.7v.5h.6V431.8h-.6v.6v-.6Z" class="g0_132"/>
<image clip-path="url(#c4_132)" preserveAspectRatio="none" x="643" y="234" width="179" height="167" xlink:href="img/1.jpg"/>
<path d="M572.7,123.6c-2.4,.8,-4.6,2.1,-6.9,2.9c-2.4,.8,-3.8,.6,-6.2,2.5c-1.8,1.5,-2.1,2.7,-4.6,3.2c-.7,3.5,-.3,6.2,1.9,9.1c1.3,1.8,5.9,6.5,8.5,6.7c-3.1,4.7,-7,9.2,-4,14.9c1.3,2.3,5.2,7.9,8.1,9.2c2.7,1.2,7,0,9.9,.4c.4,2.1,-.5,4.6,.3,6.7c1.2,3.3,5.3,7.1,8.1,9.7c6,5.7,21.6,15.6,30.1,9.1c3.3,6.5,11.4,12.3,19.4,14.9c5.5,1.7,16.6,2.9,22.2,1.1c3.4,-1.1,6.5,-5.6,10.1,-6.2c1.6,-.2,7.3,2.8,8.9,3.1c7.8,1.3,17.6,1.2,25.3,-.2c11.2,-2,16.8,-9.4,20.1,-17.7c2.6,4.4,16.4,.8,20.1,-.8c7.3,-3.1,14.8,-7.8,17.6,-14.5c2.1,-4.9,-4,-9.8,-2.4,-13.7c.8,-1.8,3.1,-2.8,4.3,-4.4c6.6,-8.7,3.8,-17.3,-2.2,-25.4C755.1,125.6,746.9,119.9,735,117c-3,-.8,-5.8,-1.2,-9,-1.1c-1.7,.1,-2.5,.9,-4.3,.6c8.9,-9.5,-22.4,-17.9,-28,-18.7c-14.1,-2,-30.5,.1,-43.6,4.1c-6.3,1.9,-12.4,4.8,-18.4,6.7c1.2,-10.2,-22.1,-7,-28.2,-5.4C596.2,105,587,108.7,582.6,114c-2.7,3.2,-4,7.2,-6.4,10.6Z" class="g1_132"/>
<path d="M572.7,123.6c-2.4,.8,-4.6,2.1,-6.9,2.9c-2.4,.8,-3.8,.6,-6.2,2.5c-1.8,1.5,-2.1,2.7,-4.6,3.2c-.7,3.5,-.3,6.2,1.9,9.1c1.3,1.8,5.9,6.5,8.5,6.7c-3.1,4.7,-7,9.2,-4,14.9c1.3,2.3,5.2,7.9,8.1,9.2c2.7,1.2,7,0,9.9,.4c.4,2.1,-.5,4.6,.3,6.7c1.2,3.3,5.3,7.1,8.1,9.7c6,5.7,21.6,15.6,30.1,9.1c3.3,6.5,11.4,12.3,19.4,14.9c5.5,1.7,16.6,2.9,22.2,1.1c3.4,-1.1,6.5,-5.6,10.1,-6.2c1.6,-.2,7.3,2.8,8.9,3.1c7.8,1.3,17.6,1.2,25.3,-.2c11.2,-2,16.8,-9.4,20.1,-17.7c2.6,4.4,16.4,.8,20.1,-.8c7.3,-3.1,14.8,-7.8,17.6,-14.5c2.1,-4.9,-4,-9.8,-2.4,-13.7c.8,-1.8,3.1,-2.8,4.3,-4.4c6.6,-8.7,3.8,-17.3,-2.2,-25.4C755.1,125.6,746.9,119.9,735,117c-3,-.8,-5.8,-1.2,-9,-1.1c-1.7,.1,-2.5,.9,-4.3,.6c8.9,-9.5,-22.4,-17.9,-28,-18.7c-14.1,-2,-30.5,.1,-43.6,4.1c-6.3,1.9,-12.4,4.8,-18.4,6.7c1.2,-10.2,-22.1,-7,-28.2,-5.4C596.2,105,587,108.7,582.6,114c-2.7,3.2,-4,7.2,-6.4,10.6" class="g2_132"/>
<path d="M705.3,219.6c-.1,-.3,-.1,-.6,-.2,-.9c-6.2,-2,-4.1,13.8,3.3,8.5c7.3,-5.3,-3.7,-10.8,-5.3,-6.5Z" class="g1_132"/>
<path d="M705.3,219.6c-.1,-.3,-.1,-.6,-.2,-.9c-6.2,-2,-4.1,13.8,3.3,8.5c7.3,-5.3,-3.7,-10.8,-5.3,-6.5" class="g3_132"/>
<path d="M715.9,229.6c-3.3,.6,-2.8,4,-2.3,6.3c1.5,.8,3,1.1,4.5,1.2c.6,-2.7,.8,-7,-3.5,-6.4Z" class="g1_132"/>
<path d="M715.9,229.6c-3.3,.6,-2.8,4,-2.3,6.3c1.5,.8,3,1.1,4.5,1.2c.6,-2.7,.8,-7,-3.5,-6.4" class="g4_132"/>
<g clip-path="url(#c0_132)">
<image clip-path="url(#c0_132)" preserveAspectRatio="none" x="164" y="250" width="176" height="125" xlink:href="img/2.jpg"/>
</g>
<g clip-path="url(#c1_132)">
<image clip-path="url(#c1_132)" preserveAspectRatio="none" x="222" y="271" width="104" height="77" xlink:href="img/3.jpg"/>
</g>
<g clip-path="url(#c2_132)">
<image clip-path="url(#c2_132)" preserveAspectRatio="none" x="273" y="287" width="39" height="42" xlink:href="img/4.jpg"/>
</g>
<path d="M190.1,305c.2,-.9,.9,-1.6,1.6,-2.2c.9,-.9,1.9,-1.8,2.9,-2.7c1.5,-1.3,3.2,-2.3,4.9,-3.2c2.3,-1.1,4.8,-2.5,7.3,-2.6c2.3,-.2,4.8,-.1,7.1,.1c5.6,.5,11.5,.9,16.6,3.6c1.6,.8,3,1.6,4.5,2.6c1.1,.7,2.2,1.6,3.5,2.1c.1,-.3,-.1,-.4,-.2,-.6c-.3,-.5,-.5,-.9,-.7,-1.3c-.2,-.4,-.5,-1,-.7,-1.3c.2,.4,.6,.6,.9,1.1c.3,.4,.2,.7,.3,1.2c.1,.5,.3,1.2,.1,1.7c-.3,.9,-2.3,.2,-3,.1c-.9,0,-1.7,0,-2.6,0h.1m10.1,.3c-.2,-1.9,2.5,-3.5,3.7,-4.4c2.4,-1.7,5,-2.5,7.6,-3.6c2.2,-.9,4.4,-1.1,6.7,-1.3c2.5,-.3,4.8,-.1,7.3,.1c2.1,.2,4.3,.7,6.4,1.2c1.9,.5,4,1.3,5.7,2.4c1,.6,1.9,1.3,2.9,1.9c.6,.4,1.1,.7,1.6,1.2c.3,.4,.8,.6,1.1,1c-.2,-.6,-.6,-1.1,-.8,-1.7c-.3,-.5,-.1,-1.3,-.5,-1.8c.9,1.5,-.5,3.4,.7,4.7c-.7,-.7,-2.5,-.9,-3.4,-1.1c-.8,-.2,-1.6,-.2,-2.4,-.2m10.5,6c-.7,1.1,-1.1,2.2,-1.9,3.2c-1.1,1.1,-2.2,2,-3.2,3c-1.4,1.3,-3.2,2,-5,2.4c-1.1,.3,-2.3,.6,-3.5,.8c-1.3,.2,-2.5,.6,-3.8,.7c-2.4,.3,-4.8,.1,-7.2,.1c-2.1,-.1,-4.2,-.6,-6.1,-1.2c-1.9,-.7,-3.9,-1.2,-5.6,-2.2c-1.3,-.7,-2.5,-1.3,-3.6,-2.3c-.5,-.4,-1,-.8,-1.5,-1.2c-.2,-.2,-.5,-.4,-.7,-.6c-.2,-.2,-.5,-.6,-.7,-.7c.6,.6,1.7,.8,2.4,1.1c.7,.2,1.2,.3,1.9,.3c-.9,-.5,-2.1,-.7,-3.1,-1.1c-.6,-.2,-1.6,-1,-2.2,-.8c-.2,.6,.3,1.4,.4,2c.2,.7,.3,1.4,.5,2.1l.1,-.3M243.4,310c-.2,1,-.9,1.7,-1.6,2.4c-.9,1.1,-1.9,2.1,-3,3.1c-1.5,1.4,-3.2,2.5,-5,3.4c-2.3,1.3,-4.9,2.8,-7.5,3c-2.3,.1,-4.9,.1,-7.2,-.2c-5.8,-.6,-11.8,-1,-17.1,-3.9c-1.5,-.9,-3,-1.8,-4.5,-2.9c-1.1,-.8,-2.3,-1.8,-3.6,-2.4c-.1,.4,.1,.5,.2,.7c.3,.5,.5,1,.7,1.5c.2,.4,.5,1.1,.8,1.4c-.3,-.5,-.7,-.7,-.9,-1.2c-.4,-.5,-.3,-.8,-.4,-1.4c-.1,-.5,-.3,-1.2,-.1,-1.8c.3,-1,2.3,-.2,3.1,-.2c.9,.1,1.7,.1,2.6,.1M153.5,274c.4,1.2,.3,2.4,.6,3.6c.2,.7,.6,1.3,.9,1.9c.5,.7,.8,1.5,1.3,2.2c1.3,2.1,3.1,4,4.5,6c.6,.8,1.2,1.7,1.9,2.4c.9,.9,2,2,3.2,2.5c.9,.4,1.7,.7,2.5,1.2c.9,.5,1.9,1,2.9,1.4c.9,.4,1.7,.7,2.6,1.1c.9,.4,1.8,.9,2.7,1.2c1.8,.6,3.4,1.8,5.1,2.5c.7,.3,1.3,.5,2,.9c.5,.3,1.1,.7,1.7,.9c.1,0,.2,0,.4,.1h.3l.1,.2c.3,.2,.8,.2,1.1,.5c-.2,-.2,-.4,-.3,-.6,-.4c-.4,-.3,-.6,-.9,-.8,-1.3c-.1,-.3,-.2,-.6,-.4,-.8c.3,.3,.4,.6,.7,1c.3,.4,.7,.7,.9,1c.2,.4,.4,1,.4,1.3c-1,.3,-2.1,-.1,-3,-.2c-.2,0,-.5,.1,-.8,0c-.3,0,-.8,-.6,-.9,0m5.6,10.3c-1,.7,-2,1.4,-2.8,2.1c-1,.9,-2.4,1.4,-3.5,2.1c-.5,.2,-.9,.6,-1.4,.9c-.6,.3,-1.2,.5,-1.7,.8c-.6,.3,-1.3,.7,-1.9,.8c-.6,.2,-1.1,.2,-1.7,.3c-1.7,.2,-3.4,.8,-5.2,.8c-1.8,0,-3.8,.2,-5.5,-.2c-1,-.2,-2.1,-.1,-3.1,-.2c-1,-.1,-2,-.4,-3,-.5c-.4,0,-.8,0,-1.2,0c-.6,0,-1.2,-.3,-1.8,-.4c-.7,-.1,-1.2,-.2,-1.8,-.5c-.6,-.2,-1.1,-.2,-1.7,-.3c-.6,-.1,-1.1,-.4,-1.6,-.5c-.5,0,-.6,0,-1,-.2c-.3,-.2,-.6,-.4,-.9,-.5c-.6,-.2,-1.3,-.2,-1.9,-.4c-.7,-.2,-1.2,-.7,-1.8,-1.1c-.1,-.2,-.3,-.3,-.6,-.4c-.1,0,-.3,0,-.5,-.1c-.2,-.2,-.1,-.4,-.3,-.4c.1,.6,.4,1,.7,1.5c.1,.4,.2,1,.5,1.2c-.5,-.4,-.8,-1.7,-.9,-2.2c-.1,-.4,-.5,-1.1,-.4,-1.5c.6,.1,1,.1,1.6,0c.2,0,2.2,-.3,1.9,-.7" class="g5_132"/>
<path d="M96.9,259.5c2.3,-.4,3.8,-2.7,3.3,-4.9c-.4,-2.3,-2.7,-3.8,-4.9,-3.3c-2.3,.4,-3.8,2.7,-3.3,4.9c.4,2.3,2.7,3.8,4.9,3.3Z" class="g6_132"/>
<path d="M96.9,259.5c2.3,-.4,3.8,-2.7,3.3,-4.9c-.4,-2.3,-2.7,-3.8,-4.9,-3.3c-2.3,.4,-3.8,2.7,-3.3,4.9c.4,2.3,2.7,3.8,4.9,3.3Z" class="g7_132"/>
<path d="M206.1,235.9c2.3,-.5,3.7,-2.7,3.2,-5c-.5,-2.3,-2.8,-3.7,-5.1,-3.2c-2.2,.5,-3.6,2.8,-3.1,5.1c.5,2.2,2.7,3.6,5,3.1Z" class="g6_132"/>
<path d="M206.1,235.9c2.3,-.5,3.7,-2.7,3.2,-5c-.5,-2.3,-2.8,-3.7,-5.1,-3.2c-2.2,.5,-3.6,2.8,-3.1,5.1c.5,2.2,2.7,3.6,5,3.1Z" class="g8_132"/>
<path d="M240.9,386.3c2.3,-.2,4,-2.2,3.9,-4.5c-.2,-2.4,-2.2,-4.1,-4.6,-3.9c-2.3,.2,-4,2.2,-3.8,4.5c.2,2.3,2.2,4,4.5,3.9Z" class="g6_132"/>
<path d="M240.9,386.3c2.3,-.2,4,-2.2,3.9,-4.5c-.2,-2.4,-2.2,-4.1,-4.6,-3.9c-2.3,.2,-4,2.2,-3.8,4.5c.2,2.3,2.2,4,4.5,3.9Z" class="g9_132"/>
<path d="M98.7,373.3c2.3,-.2,4.1,-2.2,3.9,-4.5c-.2,-2.3,-2.2,-4.1,-4.5,-3.9c-2.3,.2,-4.1,2.2,-3.9,4.5c.2,2.3,2.2,4.1,4.5,3.9Z" class="g6_132"/>
<path d="M98.7,373.3c2.4,-.2,4.1,-2.2,3.9,-4.5c-.2,-2.3,-2.2,-4.1,-4.5,-3.9c-2.3,.2,-4.1,2.2,-3.9,4.5c.2,2.3,2.2,4.1,4.5,3.9Z" class="g9_132"/>
<path d="M293.5,251.5c2.4,-.1,4.1,-2.2,3.9,-4.5c-.2,-2.3,-2.2,-4,-4.5,-3.9c-2.3,.2,-4.1,2.2,-3.9,4.6c.2,2.3,2.2,4,4.5,3.8Z" class="g6_132"/>
<path d="M293.5,251.5c2.4,-.1,4.1,-2.2,3.9,-4.5c-.2,-2.3,-2.2,-4,-4.5,-3.9c-2.3,.2,-4,2.2,-3.9,4.6c.2,2.3,2.2,4,4.5,3.8Z" class="g9_132"/>
<path d="M330.2,343.9c2.3,-.1,4,-2.2,3.9,-4.5c-.2,-2.3,-2.2,-4,-4.6,-3.8c-2.3,.1,-4,2.2,-3.8,4.5c.1,2.3,2.2,4,4.5,3.8Z" class="g6_132"/>
<path d="M330.2,343.9c2.3,-.1,4,-2.2,3.9,-4.5c-.2,-2.3,-2.2,-4,-4.6,-3.8c-2.3,.1,-4,2.1,-3.8,4.5c.2,2.3,2.2,4,4.5,3.8Z" class="g9_132"/>
<path d="M103.7,415.8v56h141v-56h-141Z" class="g1_132"/>
<g clip-path="url(#c3_132)">
<path d="M146.7,459.5l-.9,-.1l.3,.7l7.5,.9l-5.3,-4.5l-.6,.4l-.4,.3l-.2,.6l-.2,.4l-.2,.9v.4Z" class="g0_132"/>
<path d="M136.1,448.4v0l.9,1.1l.7,1.1l.3,.6l.4,.8l.1,.7l.1,.8l.1,.7l-.3,.7l-.4,.6l-.6,.7l-.9,.4l-1.1,.4l10.4,2.4l-.3,-1.1v-.8l.1,-.8l.2,-.6l.3,-.4l.3,-.3l.3,-.2l1.6,1.3l-3.6,-3.7L142,449.7l-1.1,-1.3l-.6,-1.1l-.2,.3l-.1,.3l-.3,.3l-.6,.2l-.6,.2h-1.1l-1.3,-.2Z" class="ga_132"/>
<path d="M145.8,459.4l.9,.1v-.4l.2,-.9l.2,-.4l.2,-.6l.4,-.3l.6,-.4l-1.6,-1.3l-.3,.2l-.3,.3l-.3,.4l-.2,.6l-.1,.8v.8l.3,1.1Z" class="gb_132"/>
<path d="M113.6,439v0l1.9,1.1l1.9,1.1l3.8,2.6l3.8,2.8l3.5,2.7l3,2.5l2.4,2l2,1.9l-.2,.4l.6,-.7l.6,-.6l.3,-.8v-.8l-.1,-.7l-.2,-.9l-.1,-.7l-.5,-.7l-.8,-1.4l-.8,-1.1l-1,-1l1,.4l1,.2l1.2,.2h.9l1.8,-.2h.7l-1.4,-.4l-1.4,-.7l-3.2,-1.4l-3.2,-1.7l-3.3,-2l-3,-2l-2.9,-1.9l-4.2,-3l-1.2,.4l-.8,.6l-.8,.5l-.5,.6l-.5,.7l-.2,.7v.6l-.1,.7Z" class="gc_132"/>
<path d="M135.3,457.1v0l.1,-.1l-.1,.1Z" class="gc_132"/>
<path d="M135.7,456.1v0l-.4,1l.1,-.1l1.1,-.4l.9,-.4l.6,-.7l.4,-.6l.3,-.7l-.1,-.7l-.1,-.8l-.1,-.7l-.4,-.8l-.3,-.6l-.7,-1.1l-.9,-1.1l1.3,.2h1.1l.6,-.2l.6,-.2l.3,-.3l.1,-.3l.2,-.3h-.7l-1.8,.2h-.9l-1.2,-.2l-1,-.2l-1,-.4l1,1l.8,1.1l.8,1.4l.5,.7l.1,.7l.2,.9l.1,.7v.8l-.3,.8l-.6,.6l-.6,.7Z" class="gd_132"/>
<path d="M105.2,431.2v0l-.3,.7l-.1,.6v1.1l.3,.9l.4,.7l.5,.6l.5,.4l.5,.3l1.2,.2l-.1,-.8v-.8l.2,-.7l.2,-.6l.2,-.6l.4,-.5l.8,-.8l.7,-.7l.8,-.3l.7,-.3l.5,-.1l-.8,-.8l-.6,-.4l-.6,-.3l-.7,-.3l-.9,-.1l-.9,.2L107,429l-.6,.4l-.5,.5l-.4,.6l-.3,.7Z" class="ge_132"/>
<path d="M109.9,437.3v0l1.8,.8l-.1,-.7l.1,-.7l.2,-.7l.4,-.7l.6,-.6l.8,-.6l1.2,-.6l1.3,-.3l1.5,1l.4,-.1l-.3,-.5l-1,-1.1L116,432l-.9,-.7l-1,-.5l-1.2,-.4l-.3,.1l.5,.7l-.7,.2l-.6,.3l-.5,.2l-.4,.4l-.4,.4l-.2,.4l-.4,.9l-.1,.9l-.2,1l.1,.7l.2,.7Z" class="gf_132"/>
<path d="M111.7,438.1v0l1.9,.9l.1,-.7v-.6l.2,-.7l.5,-.7l.5,-.6l.8,-.5l.8,-.6l1.2,-.4l-1.5,-1l-1.3,.3l-1.2,.6l-.8,.6l-.6,.6l-.4,.7l-.2,.7l-.1,.7l.1,.7Z" class="gg_132"/>
<path d="M108.2,436.7v0l1.7,.6l-.2,-.7l-.1,-.7l.2,-1l.1,-.9l.4,-.9l.2,-.4l.4,-.4l.4,-.4l.5,-.2l.6,-.3l.7,-.2l-.5,-.7l-.5,.1l-.7,.3l-.8,.3l-.7,.7l-.8,.8l-.4,.5l-.2,.6l-.2,.6l-.2,.7v.8l.1,.8Z" class="gh_132"/>
<path d="M134.3,456.8h.1h-.1Z" class="gi_132"/>
<path d="M134.4,456.8v0l.3,.4l.6,-.1l-.9,-.3Z" class="gj_132"/>
<path d="M113.9,440.5v0l1.5,.9l1.6,1l3.2,2.1l3.3,2.4l2.9,2.5l2.7,2.5l2.4,2l2.9,2.9l.6,-.3l.7,-.4l.2,-.4l-2,-1.9l-2.4,-2l-3,-2.5L125,446.6l-3.8,-2.8l-3.8,-2.6l-1.9,-1.1L113.6,439l.1,.8l.2,.7Z" class="gd_132"/>
<path d="M134.4,456.8l.9,.3l.4,-1l-.7,.4l-.6,.3Z" class="gd_132"/>
<path d="M105.3,430.1v0l-.8,2.1l-.7,2.1l.2,.8l.4,.6l.5,.5l.5,.5l.6,.5l.7,.4l.8,.2l.9,.3l-.2,-1.4l-1.2,-.2l-.5,-.3l-.5,-.4l-.5,-.6l-.4,-.7l-.3,-.9v-1.1l.1,-.6l.3,-.7l.3,-.7l.4,-.6l.5,-.5l.6,-.4l-1,.5l-.7,.6Z" class="gk_132"/>
<path d="M114.7,442.4v0l-.4,-.5l-.3,-.7l-.1,-.7l-1.8,-.9l-.3,-.4l-.1,-.5v-.6l-1.8,-.8l.2,.7l-1,.1h-.7v.6l.7,.6l.5,.6l.8,.7l.9,.6l1.1,.6l1.1,.5h.6l.6,.1Z" class="gl_132"/>
<path d="M112.1,439.6v0l1.8,.9l-.2,-.7l-.1,-.8l-1.9,-.9v.6l.1,.5l.3,.4Z" class="gm_132"/>
<path d="M109.9,437.3v0l-1.7,-.6l.2,1.4h.7l1,-.1l-.2,-.7Z" class="gn_132"/>
<path clip-path="url(#c3_132)" d="M103.8,434.3v0l.7,-2.1l.8,-2.1l-.5,.5l-.4,.5l-.3,.4l-.3,.6v.6l-.1,.6v.6l.1,.4Z" class="go_132"/>
<path d="M133,456.5v0l-4.7,-3.6l-4.9,-3.8l-4.9,-3.6l-2.4,-1.7l-2.6,-1.5l-.2,.4l1.3,.6l1.3,1l2.5,1.7l4.9,3.6l4.8,3.7l2.3,1.8l2.3,1.9v-.1l.3,-.4Z" class="gp_132"/>
<path d="M139.3,444.7v0l-5.4,-2.5l-5.3,-2.7L126,438.2l-2.5,-1.4l-2.6,-1.6l-2.5,-1.6l-.3,.5l2.5,1.6l2.6,1.4l2.5,1.5l2.7,1.3l5.4,2.7l5.2,2.5l.3,-.4Z" class="gp_132"/>
<path d="M114.8,443.6v0l-.7,-.9l-.5,-.9l-.2,-.9l-.2,-1.1l.1,-1.1l.3,-1.1l.4,-1.1l.4,-.5l.4,-.3l.9,-.8l1,-.5l1,-.3l1.1,-.5l-.3,-.4l-1.1,.4l-1,.4l-1,.6l-.9,.8l-.5,.5l-.4,.4l-.4,1.1l-.4,1.3l-.1,1.2l.2,1.1l.3,1.1l.6,1l.3,.4l.4,.4l.3,-.3Z" class="gp_132"/>
<path d="M111.4,440.9v0l-.3,-.8l-.3,-.8l-.1,-.7l-.2,-.8v-.9l.2,-.8l.1,-.8l.3,-.8l.4,-.8l.5,-.6l.6,-.5l.6,-.4l.7,-.4l.8,-.2l.7,-.2h.9v-.5l-.9,.1l-.9,.1l-.8,.3l-.7,.4l-.7,.4l-.6,.6l-.6,.7l-.4,.7l-.3,.8l-.2,1l-.1,.9v.8l.1,.9l.2,.8l.2,.8l.5,.9l.3,-.2Z" class="gp_132"/>
<path d="M109.6,439v0l-.3,-1.3l-.1,-1.1l.1,-1.3l.2,-1.1l.2,-.9l.4,-.6l.4,-.6l.5,-.5l.6,-.4l.5,-.4l1.4,-.7l-.2,-.4l-1.4,.7l-.6,.4l-.6,.5l-.5,.5l-.5,.7l-.4,.7l-.3,.7l-.1,1.3l-.2,1.3l.1,1.3l.3,1.3l.5,-.1Z" class="gp_132"/>
<path d="M116,431.9v0l-1.5,-1.3L113,429.2l-.2,.4l1.4,1.3l1.5,1.3l.3,-.3Z" class="gp_132"/>
<path d="M112.5,440.8v0l-2,-1.2l-2.1,-.9l-.1,.4l1.9,1l2,1.1l.3,-.4Z" class="gp_132"/>
<path d="M107.7,437.8v0l-1,-.6l-1,-.7l-.5,-.5l-.3,-.4l-.3,-.7l-.2,-.6l-.1,-1v-.8l.2,-1l.5,-.7l.6,-.8l.8,-.6l.8,-.4l.8,-.4l1.1,-.2h.8l1,.2l1,.3l.1,-.4l-.9,-.4l-1,-.1H109l-1.1,.2l-1,.3l-.8,.5l-.8,.7l-.7,.8l-.3,.6l-.2,.5l-.2,.6v.6l-.1,1.2l.3,1.1l.3,.6l.4,.5l.8,.8l.9,.7l1.1,.6l.1,-.5Z" class="gp_132"/>
<path d="M137.5,448v0l-2.8,-1.4l-2.8,-1.4l-2.7,-1.6l-2.7,-1.5l-5.2,-3.5l-5.2,-3.4l-.2,.4l5.2,3.5l5.3,3.4l2.5,1.6l2.7,1.5l2.8,1.4l2.8,1.4l.3,-.4Z" class="gp_132"/>
<image x="135" y="447" width="5" height="10" xlink:href="shade/1.png"/>
<path d="M141.2,447.4v0l-.9,.3l-1.1,.1l-2,.3v.5l2.1,-.3l1.1,-.2l1,-.2l-.2,-.5Z" class="gp_132"/>
<path d="M155.2,461.5v0l-4.9,-1.1l-5.1,-.9l-4.9,-.8l-5,-.8v.4l4.9,.8l5,.8l5,1l4.9,1.1l.1,-.5Z" class="gp_132"/>
<path d="M155.3,461v0l-3.8,-3.6l-3.6,-3.8l-3.6,-3.8l-3.4,-4l-.3,.2l3.3,4.1l3.6,3.9l3.7,3.7l3.8,3.6l.3,-.3Z" class="gp_132"/>
<path d="M148.4,459.9v0l-.3,-.6l-.2,-.7v-1.4l.4,-.6l.3,-.6l.3,-.5l.5,-.4l-.2,-.5l-.6,.6l-.4,.6l-.5,.6l-.1,.8l-.2,.7l.1,.8l.1,.7l.3,.7l.5,-.2Z" class="gp_132"/>
</g>
<image clip-path="url(#c5_132)" preserveAspectRatio="none" x="611" y="401" width="217" height="277" xlink:href="img/5.jpg"/>
<image clip-path="url(#c6_132)" preserveAspectRatio="none" x="611" y="431" width="27" height="247" xlink:href="img/6.jpg"/>
<image clip-path="url(#c7_132)" preserveAspectRatio="none" x="643" y="401" width="179" height="20" xlink:href="img/7.jpg"/>
<path d="M635.9,409.4L620.3,647.5l171.6,11.3L807.5,420.7L635.9,409.4Z" class="gq_132"/>
<path d="M635.9,409.4L620.3,647.5l171.6,11.3L807.5,420.7L635.9,409.4Z" class="gr_132"/>
<path d="M648.2,461l55.7,3.6m-62.2,95.2l79.6,5.2" class="gs_132"/>
<path d="M404,286.6c-6.4,3.2,-10.2,4.8,-17.3,5.1c-5.2,.2,-10.3,1.8,-15.5,.8c2.5,-1.8,5.6,-2.4,7.2,-5.6c-2.4,1.2,-6.8,4,-9,6c.3,3.4,5.7,5.3,7.8,7.5c-3,-1,-4.1,-4.4,-6.9,-5.8" class="gt_132"/>
<image clip-path="url(#c8_132)" preserveAspectRatio="none" x="98" y="752" width="221" height="221" xlink:href="img/8.jpg"/>
<image clip-path="url(#c9_132)" preserveAspectRatio="none" x="98" y="972" width="12" height="1" xlink:href="img/9.jpg"/>
<image clip-path="url(#ca_132)" preserveAspectRatio="none" x="98" y="972" width="12" height="1" xlink:href="img/10.jpg"/>
<image clip-path="url(#cb_132)" preserveAspectRatio="none" x="98" y="768" width="221" height="2" xlink:href="img/11.jpg"/>
<image clip-path="url(#cc_132)" preserveAspectRatio="none" x="34" y="688" width="166" height="229" xlink:href="img/12.png"/>
<image clip-path="url(#cd_132)" preserveAspectRatio="none" x="74" y="876" width="66" height="66" xlink:href="img/13.png"/>
<image clip-path="url(#ce_132)" preserveAspectRatio="none" x="174" y="712" width="187" height="141" xlink:href="img/14.png"/>
<image clip-path="url(#cf_132)" preserveAspectRatio="none" x="155" y="925" width="106" height="91" xlink:href="img/15.png"/>
<image clip-path="url(#cg_132)" preserveAspectRatio="none" x="220" y="909" width="66" height="66" xlink:href="img/16.png"/>
<image clip-path="url(#ch_132)" preserveAspectRatio="none" x="270" y="827" width="66" height="67" xlink:href="img/17.png"/>
<image clip-path="url(#ci_132)" preserveAspectRatio="none" x="166" y="954" width="51" height="43" xlink:href="img/18.png"/>
<image clip-path="url(#cj_132)" preserveAspectRatio="none" x="166" y="954" width="51" height="43" xlink:href="img/19.png"/>
<image clip-path="url(#ck_132)" preserveAspectRatio="none" x="34" y="688" width="327" height="328" xlink:href="img/20.png"/>
<image clip-path="url(#cl_132)" preserveAspectRatio="none" x="109" y="688" width="184" height="164" xlink:href="img/21.png"/>
<g clip-path="url(#cm_132)">
<path d="M-4.5,13.7H-27.4m939.5,0H935M-4.5,1031.2H-27.4m939.5,0H935M13.7,-4.5V-27.4m0,1077v22.9m880,-1077V-27.4m0,1077v22.9" class="gu_132"/>
<path d="M-4.5,13.7H-27.4m939.5,0H935M-4.5,1031.2H-27.4m939.5,0H935M13.7,-4.5V-27.4m0,1077v22.9m880,-1077V-27.4m0,1077v22.9" class="gv_132"/>
</g>
</svg>