<?xml version="1.0" encoding="UTF-8" standalone="no"?>
<!DOCTYPE svg PUBLIC "-//W3C//DTD SVG 1.1//EN"
"http://www.w3.org/Graphics/SVG/1.1/DTD/svg11.dtd">
<svg viewBox="0 0 907 1045" version="1.1" xmlns="http://www.w3.org/2000/svg" xmlns:xlink="http://www.w3.org/1999/xlink">
<defs>
<clipPath id="c0_567"><path d="M154,699.8c-4.1,-.9,-8.9,-1.6,-12.4,-3.3c-5.3,-8.4,3.6,-30.8,-2.5,-38.8c1.6,-6.5,-.8,-21.8,-4.1,-27.3c-.7,-1.7,-.6,-2.5,.4,-2.5c.1,0,.2,0,.4,0c-.7,-1.9,-1.2,-4.9,-1.6,-6.6c.5,-.8,1,-3.7,1.6,-5c-2.1,-2.4,-3.1,-5.5,-4.9,-8.2c.6,-5.9,5.7,-6.7,10.7,-8.3h11.5v.8h5.8v-.8h1.7V599h1.6v.8h.8V599h4.2v-.8h1.6v-.9h4.1v-.8H182v.8h1.7v.9h5.8v.8h10.7v-.8h4.9v.8h10.8v.8h1.6v.8h1.7v-.8h1.6c2.2,3.7,3.7,7.6,5.8,11.6c-.3,1.4,-.2,.4,-.8,2.5c.1,-.1,.3,-.1,.4,-.1c1,0,1.1,.9,.4,2.5c-4.2,12.1,.6,36.7,1.6,52.1c.4,5.8,1.9,15.8,5.8,19c.1,3.2,-.6,3.7,-1.6,5.8c-1.3,.2,-4.7,1.6,-5,1.7h-.8V694h-9.9v.9h-5v.8h-7.4v.8h-.8v-.8h-.8v.8h-2.5v-.8h-3.3v.8h-.8v-.8h-4.2v.8h-6.6v.8h-2.4v-.8h-1.7v.8h-.8v-.8h-.9v.8h-1.6v-.8h-1.7v.8h-4.9v.9h-7.4v.8h-6.6v.8h-.9V699h-1.6v.8Z"/></clipPath>
<clipPath id="c1_567"><path d="M594,696.4c.2,-1,-.2,-1.5,-1,-1.5c-.6,0,-1.4,.2,-2.4,.7c-4.9,-7,-17,-14,-19.3,-21.9c-11.6,-4.4,-17.8,-15.5,-9.2,-25.3c7.3,-8.4,11.1,-21.8,21,-27.8h9.2v.9h20.2v-.9H636v-.8h19.3v-.9H657v-.8h.8v-.9h6.7c5,3.8,11.2,8.8,14.3,14.4c9.6,1.4,17.7,17.3,20.1,26.1c-3,7.4,-7.4,12.4,-8.4,21.9c-2.8,2.4,-4.5,5.2,-9.2,5.9c-1.6,5.3,-8.4,7.6,-14.3,8.4h-5.8V693h-.9v.9h-9.2V693h-7.6v.9h-4.2V693H623.4v.9H615v.8h-3.4v-.8h-1.7v.8h-5.8v.9h-3.4v.8h-.8v-.8h-2.6v.8Z"/></clipPath>
<clipPath id="c2_567"><path d="M481.1,528.8H383.9V294.7h97.2V528.8Z"/></clipPath>
<clipPath id="c3_567"><path d="M403.3,868c0,0,-.9,0,-.9,0v-.9h-1.9v.9c0,0,-21.8,0,-21.8,0c-7.4,-2.3,-13.8,-4.2,-21.7,-5.7c-.9,-2.6,-2.6,-3,-3.8,-4.7c0,0,0,-29.5,0,-29.5h-.9v-2.8h.9v-20h-.9v-.9h.9v-2.9h-.9v-6.6h.9V793h-.9v-4.8h-1v-1.9h-.9v-1h-1V772h1v-.9h-1v-1h1v-2.8h.9v-4.8h-.9V754h.9v-3.8h1v-4.8h1.8v-.9h1v-1h2.8v-1.9h1.9v-.9h8.5v-1h10.4v-.9h20.8v.9h4.8v1h2.8v-1H409v-.9h2.8v-1c0,0,3.8,0,3.8,0c15.1,5.7,27.6,20.7,23.7,41.9c.4,.8,1.6,2.3,1.8,2.8c-.4,.9,-1,.8,-.9,1.9c.5,2.5,1.7,10.2,.9,12.4c2.7,3.3,2.9,32,1.9,36.1c.3,2,.2,1.8,1,3.8c-.4,.4,-1.6,1.4,-1.9,1.9c.1,.8,.2,1,.4,1c.1,0,.3,-.1,.4,-.1c.2,0,.3,.3,.1,1.9c-3.9,9.5,-2,13.6,-8.5,19c-6.8,5.7,-20.7,5.7,-31.2,7.6Z"/></clipPath>
<clipPath id="c4_567"><path d="M-2.6,1047.7V-2.6H910.2V1047.7Z"/></clipPath>
<style type="text/css"><![CDATA[
.g0_567{
fill: #ECECEC;
}
.g1_567{
fill: none;
stroke: #FFFFFF;
stroke-width: 2.959;
stroke-linecap: butt;
stroke-linejoin: miter;
stroke-miterlimit: 4;
}
.g2_567{
fill: none;
stroke: #000000;
stroke-width: 1.527;
stroke-linecap: butt;
stroke-linejoin: miter;
stroke-miterlimit: 4;
}
.g3_567{
}
.g4_567{
fill: #FFFFFF;
}
.g5_567{
fill: none;
stroke: #636363;
stroke-width: 1.527;
stroke-linecap: butt;
stroke-linejoin: miter;
stroke-miterlimit: 4;
}
.g6_567{
fill: none;
stroke: #FFFFFF;
stroke-width: 1.909;
stroke-linecap: butt;
stroke-linejoin: miter;
}
.g7_567{
fill: none;
stroke: #000000;
stroke-width: 0.381;
stroke-linecap: butt;
stroke-linejoin: miter;
}
]]></style>
</defs>
<path d="M381.8,915.4c13.7,4.6,27.1,6.1,41.5,7.2c16.1,1.1,32,2.4,48.2,2c13.5,-.4,27.9,-6.1,40.6,-10.4c7.5,-2.6,15.6,-4.8,22.9,-8.1c8.1,-3.6,15.9,-8.9,23.2,-13.8c28,-18.9,59.1,-36.8,91.1,-47.9c14.8,-5.2,28.7,-11.6,40.7,-22c10.8,-9.5,18.7,-25,25.7,-37.4c8,-14.3,15.2,-28.8,21.2,-44c3.3,-8.3,6.5,-17.1,8.5,-25.8c1.8,-8.3,1.4,-16.5,1.4,-25c0,-17.7,-1.7,-35.6,-7.1,-52.6C734.5,621,728.6,604.2,718.6,590C711,579.2,699,571.1,687.2,565.9C662.3,555,636,550.2,609.3,546.2C584,542.4,558.5,540.1,533,538.1c-21,-1.5,-43.6,-3.4,-63.7,3.9c-12.3,4.6,-23.5,11,-35.6,16.2c-8.6,3.6,-15.5,7.2,-25,7.6c-7.1,.3,-14.4,-.1,-21.5,-.1c-14.3,.1,-25.3,-2.3,-37.9,-9c-12.5,-6.8,-26.4,-10.1,-39.2,-16c-11.2,-5.2,-22.4,-8.3,-34.4,-11.2c-9.9,-2.4,-21.6,-2.2,-31.7,-2.1c-11.6,.1,-23.3,-.4,-34.9,0c-10.6,.3,-20.7,3.7,-29.8,6.1c-7.7,2,-16.7,7.6,-22.8,12.6c-6.8,5.6,-11.9,13.6,-16.4,21.2c-1.8,3,-2,6,-3.1,9.2c-1.4,4.4,-3.9,8.6,-6.4,12.6c-6.4,10.4,-12.4,21,-17.5,32.2c-2.7,5.8,-4.2,12,-6.8,17.8c-3.6,7.8,-3.9,16.2,-6.3,24.4c-2.7,9.3,-5,17.2,-4.8,27c.2,10,-1,20,-.9,30.1c0,9.5,-.2,19,-.1,28.4c.1,9.8,2.9,18.1,7,26.9c6,12.9,12.7,26.7,20.3,38.8c6.8,10.7,12.6,22.2,22.6,30.4c7.7,6.4,16.9,7.3,26.6,8.1c10.5,.9,20.9,1.9,31.4,2.2c11,.3,21.8,2.2,32.8,2c30.3,-.4,60.7,10.6,84.6,29.2c8.4,6.6,13,16.4,23.5,18.9c1.3,.3,3.6,.5,4.7,1c1.8,.7,2.5,2,4.6,2.8c3,1.1,6.2,.1,9.2,1.4c2.7,1.1,5,3,7.7,3.9c3.4,1.1,7.2,1,10.5,1.7Z" class="g0_567"/>
<image clip-path="url(#c0_567)" preserveAspectRatio="none" x="122" y="586" width="125" height="120" xlink:href="img/1.jpg"/>
<image clip-path="url(#c1_567)" preserveAspectRatio="none" x="553" y="614" width="147" height="85" xlink:href="img/2.jpg"/>
<path d="M594,414.8l3.9,5.3c.1,.1,.1,.2,.2,.3c0,.1,0,.2,-.1,.3c-.1,.7,-.4,1.2,-.6,1.6c-.3,.4,-.6,.6,-.9,.8l.5,.9c.3,-.1,.8,-.5,1.3,-1.1c.6,-.9,.9,-2.2,1.2,-4.6l.5,-5.1l-1.2,.3l-.3,4.2c0,.5,0,1,-.1,1.4c-.2,-.3,-.5,-.8,-.8,-1.2l-2.3,-3.4Zm11.6,4c1.5,-.4,2.9,-1.8,2.3,-4.2c-.5,-2,-2.1,-3,-4,-2.5c-1.7,.4,-2.8,2.1,-2.3,4.2c.5,2.1,2.2,3,4,2.5Zm-.2,-.8c-1.2,.2,-2.2,-.6,-2.6,-2c-.3,-1.3,0,-2.7,1.3,-3c1.4,-.4,2.3,.8,2.6,1.9c.4,1.5,-.2,2.8,-1.3,3.1Zm8.8,-8.4l-1.2,.3l1.1,3.9c0,.3,0,.5,0,.7c-.1,.5,-.5,1.2,-1.3,1.4c-1,.3,-1.6,-.4,-1.9,-1.7l-.9,-3.5l-1.2,.3l1,3.8c.5,2.2,1.9,2.5,2.9,2.2c1.1,-.3,1.7,-1.1,1.8,-1.7h.1l.3,1l1,-.3c-.1,-.5,-.3,-1.1,-.5,-1.7Zm10.7,-2.8l-1.2,.3l1.1,4c0,.2,0,.4,0,.6c-.1,.6,-.5,1.3,-1.3,1.5c-1,.3,-1.6,-.5,-1.9,-1.7l-.9,-3.6l-1.2,.3l.9,3.8c.6,2.3,2,2.5,3,2.3c1.1,-.3,1.7,-1.2,1.8,-1.8l.4,1l1,-.2c-.1,-.5,-.3,-1.1,-.5,-1.8Zm3.4,5.7c.5,.2,1.2,.2,1.9,0c1.5,-.4,2.2,-1.4,1.9,-2.5c-.3,-1,-1,-1.4,-2.2,-1.5c-.9,-.2,-1.4,-.3,-1.5,-.8c-.1,-.5,.1,-1,.8,-1.2c.6,-.1,1.2,0,1.5,0v-.9c-.4,-.1,-1,-.1,-1.7,0c-1.3,.4,-2,1.5,-1.7,2.5c.2,.8,.9,1.3,2.2,1.4c.9,.1,1.3,.3,1.5,.9c.1,.5,-.2,1,-1,1.2c-.6,.2,-1.3,.1,-1.7,0ZM638.7,407c0,-.2,0,-.4,-.1,-.6c-.3,-1.2,-1.3,-2.9,-3.4,-2.4c-1.9,.5,-2.6,2.3,-2.1,4.3c.5,1.9,2,2.9,4,2.4c1,-.2,1.6,-.6,2,-.9l-.4,-.8c-.4,.3,-.9,.6,-1.7,.8c-1.2,.3,-2.4,-.1,-2.8,-1.7Zm-4.7,.3c-.1,-.9,.1,-2.1,1.3,-2.4c1.3,-.3,1.9,.8,2.1,1.5Zm8.7,-6.3l.3,1.2l-1,.3l.2,.9l1,-.3l.9,3.5c.2,.8,.5,1.3,.9,1.6c.3,.2,.8,.3,1.4,.2c.4,-.1,.8,-.3,1,-.5l-.3,-.8c-.2,.1,-.4,.1,-.7,.2c-.6,.2,-1,-.2,-1.2,-1l-.9,-3.5l1.7,-.4l-.2,-.9l-1.7,.4l-.4,-1.5Zm6.3,6.5l1.2,-.3l-1,-3.9c-.1,-.2,-.1,-.4,-.1,-.5c.1,-.7,.5,-1.4,1.3,-1.6c1.1,-.3,1.7,.5,2,1.5l.9,3.7l1.2,-.3l-1,-3.8c-.5,-2.2,-2.1,-2.4,-2.9,-2.2c-.5,.1,-.9,.3,-1.1,.6c-.4,.3,-.6,.7,-.7,1.1l-1,-4l-1.2,.3Zm12.1,-6.3c0,-.1,-.1,-.3,-.1,-.5c-.3,-1.2,-1.3,-2.9,-3.4,-2.4c-1.9,.5,-2.7,2.3,-2.2,4.3c.5,1.9,2,2.9,4,2.4c1,-.3,1.7,-.7,2.1,-1l-.5,-.7c-.3,.2,-.8,.5,-1.7,.7c-1.1,.3,-2.3,-.1,-2.7,-1.6Zm-4.7,.3c-.1,-.8,.1,-2,1.3,-2.3c1.3,-.4,1.9,.7,2.1,1.5Zm-50,34l-1.7,-6.4l-1.2,.3l1.7,6.4Zm-2.6,-7.4c.5,-.2,.7,-.6,.6,-1c-.1,-.4,-.5,-.7,-1,-.6c-.4,.2,-.7,.6,-.5,1c.1,.4,.4,.7,.9,.6Zm4.8,6.9l1.1,-.3l-1,-3.9c0,-.2,0,-.4,0,-.6c0,-.7,.5,-1.4,1.2,-1.6c1.1,-.3,1.8,.5,2,1.5l1,3.8l1.1,-.3l-.9,-3.9c-.6,-2.2,-2.1,-2.4,-3,-2.2c-1.1,.3,-1.7,1.1,-1.8,1.8h-.1l-.3,-1l-1,.2c.1,.6,.3,1.1,.5,1.8Zm5.9,-9.7l.3,1.2l-1,.3l.2,.8l1,-.2l.9,3.5c.2,.8,.5,1.3,.9,1.6c.4,.2,.8,.3,1.4,.1c.4,-.1,.8,-.2,1,-.4l-.3,-.9c-.2,.1,-.3,.2,-.7,.3c-.6,.2,-.9,-.2,-1.2,-1l-.8,-3.5l1.6,-.4l-.2,-.9l-1.7,.4l-.4,-1.5Zm10.7,2.2c0,-.2,-.1,-.3,-.1,-.6c-.3,-1.2,-1.4,-2.9,-3.5,-2.3c-1.8,.4,-2.6,2.3,-2.1,4.2c.5,2,2,3,4,2.5c1,-.3,1.7,-.7,2.1,-1l-.5,-.8c-.4,.3,-.8,.6,-1.7,.8c-1.1,.3,-2.3,-.1,-2.7,-1.7Zm-4.7,.3c-.2,-.8,.1,-2.1,1.3,-2.4c1.3,-.3,1.9,.8,2.1,1.5Zm7.2,2.2l1.2,-.3l-.9,-3.4c-.1,-.2,-.1,-.4,-.1,-.6c-.1,-.9,.4,-1.6,1.2,-1.9c.1,0,.3,0,.4,0l-.3,-1.1c-.1,0,-.2,0,-.3,0c-.8,.2,-1.4,.9,-1.4,1.9h-.1l-.4,-1.3l-1,.3c.2,.6,.4,1.3,.6,2Zm6.3,-1.6l-1.4,-5.5l1.5,-.4l-.2,-.9l-1.6,.4l-.1,-.4c-.2,-.9,-.2,-1.9,.8,-2.1c.4,-.1,.6,-.1,.8,-.1l-.1,-.9c-.2,-.1,-.6,-.1,-1,0c-.6,.2,-1.1,.5,-1.4,1c-.4,.7,-.4,1.6,-.2,2.5l.1,.3l-.9,.2l.2,.9l.9,-.2l1.4,5.5Zm6.4,-5.8c-.3,-1.3,-1.2,-2.5,-3.1,-2c-.9,.2,-1.6,.6,-2,1.1l.4,.7c.4,-.4,1,-.8,1.6,-.9c1.3,-.4,1.7,.6,1.9,1.1v.1c-2.5,.7,-3.7,1.9,-3.3,3.4c.3,1,1.2,1.7,2.5,1.4c.9,-.3,1.5,-.9,1.7,-1.5l.4,.8l1,-.3c-.2,-.4,-.3,-1,-.5,-1.5Zm-.7,2.1c0,.1,.1,.2,.1,.3c-.1,.6,-.5,1.3,-1.4,1.5c-.5,.2,-1.1,0,-1.3,-.8c-.4,-1.3,1,-1.9,2.3,-2.2Zm8,-1c-.3,.3,-.7,.5,-1.4,.7c-1.3,.3,-2.5,-.3,-2.8,-1.8c-.4,-1.4,.1,-2.7,1.6,-3.1c.6,-.1,1.1,-.1,1.4,0l.1,-1c-.4,0,-1,-.1,-1.7,.1c-2.1,.6,-3.1,2.4,-2.6,4.3c.5,2,2.1,3,4,2.5c.9,-.2,1.5,-.6,1.8,-.8Zm6.4,-3.6c0,-.2,0,-.4,-.1,-.6c-.3,-1.2,-1.3,-2.9,-3.4,-2.4c-1.9,.5,-2.7,2.3,-2.1,4.3c.4,1.9,2,2.9,4,2.4c1,-.2,1.6,-.6,2,-.9l-.4,-.8c-.4,.3,-.9,.6,-1.7,.8c-1.2,.3,-2.4,-.1,-2.8,-1.7Zm-4.7,.3c-.1,-.9,.1,-2.1,1.3,-2.4c1.3,-.3,1.9,.8,2.1,1.5Zm13.9,-3.7c-.4,-1.3,-1.2,-2.5,-3.2,-2c-.8,.2,-1.5,.6,-2,1.1l.5,.7c.4,-.4,1,-.7,1.6,-.9c1.3,-.3,1.7,.6,1.8,1.1l.1,.2c-2.5,.6,-3.7,1.8,-3.3,3.3c.2,1,1.1,1.7,2.4,1.4c1,-.2,1.6,-.9,1.8,-1.5l.3,.8l1.1,-.3c-.2,-.4,-.4,-.9,-.5,-1.5Zm-.7,2.1c0,.1,0,.2,0,.4c0,.6,-.4,1.2,-1.3,1.5c-.6,.1,-1.2,-.1,-1.4,-.9c-.3,-1.2,1.1,-1.8,2.4,-2.1Zm3.8,1.3l1.2,-.3l-1,-3.9c0,-.2,-.1,-.4,-.1,-.5c.1,-.8,.5,-1.5,1.3,-1.7c1.1,-.2,1.7,.5,2,1.6l.9,3.7l1.2,-.3l-1,-3.8c-.5,-2.3,-2.1,-2.4,-3,-2.2c-1,.3,-1.6,1.1,-1.8,1.7l-.3,-1l-1.1,.3c.2,.5,.4,1,.5,1.7Zm9.7,-12.5l.9,3.8c-.4,-.4,-1.2,-.7,-2.2,-.5c-1.5,.4,-2.5,2.1,-2,4.2c.5,2,2.1,3,3.6,2.6c1.1,-.3,1.7,-1,1.9,-1.8l.4,1.1l1,-.3c-.1,-.4,-.3,-1.1,-.5,-1.7l-2,-7.7Zm1.7,6.7c0,.2,.1,.4,.1,.5c0,1,-.6,1.7,-1.4,1.9c-1.2,.3,-2.2,-.6,-2.5,-1.9c-.4,-1.4,.1,-2.7,1.3,-3c.9,-.2,1.7,.2,2,.9c.1,.1,.2,.3,.2,.5Zm-68.2,30.6l3.9,5.3c.1,.1,.1,.2,.2,.3c0,.1,0,.2,-.1,.3c-.1,.7,-.4,1.2,-.6,1.5c-.3,.4,-.6,.7,-.9,.9l.6,.9c.2,-.1,.7,-.5,1.2,-1.1c.6,-.9,.9,-2.2,1.2,-4.6l.5,-5.1l-1.2,.3l-.3,4.1c0,.6,0,1.1,-.1,1.5c-.2,-.4,-.5,-.8,-.8,-1.2l-2.3,-3.5Zm11.6,4c1.5,-.4,2.9,-1.8,2.3,-4.2c-.5,-2,-2.1,-3,-4,-2.5c-1.7,.4,-2.8,2,-2.3,4.2c.5,2,2.2,3,4,2.5ZM621,448c-1.2,.3,-2.2,-.5,-2.6,-1.9c-.3,-1.3,0,-2.7,1.3,-3.1c1.4,-.3,2.3,.9,2.6,2c.4,1.5,-.2,2.8,-1.3,3Zm8.8,-8.3l-1.1,.3l1,3.9c0,.2,0,.5,0,.6c-.1,.6,-.5,1.3,-1.3,1.5c-1,.3,-1.6,-.4,-1.9,-1.7l-.9,-3.5l-1.2,.3l1,3.7c.5,2.3,1.9,2.6,2.9,2.3c1.1,-.3,1.7,-1.2,1.8,-1.8h.1l.3,1.1l1,-.3c-.1,-.5,-.3,-1.1,-.5,-1.7Zm3.9,5.9l1.2,-.3l-.9,-3.5c-.1,-.2,-.1,-.4,-.1,-.5c-.1,-1,.3,-1.7,1.2,-1.9c.1,-.1,.2,-.1,.4,-.1l-.3,-1.1c-.1,0,-.2,0,-.3,0c-.8,.2,-1.4,1,-1.5,1.9l-.4,-1.2l-1,.2c.2,.6,.4,1.3,.6,2Zm11.2,-7.1c-.3,-1.3,-1.1,-2.6,-3.1,-2c-.8,.2,-1.6,.6,-2,1.1l.5,.7c.3,-.4,.9,-.8,1.5,-.9c1.3,-.4,1.7,.5,1.9,1.1v.1c-2.5,.6,-3.6,1.8,-3.2,3.4c.2,.9,1.1,1.7,2.4,1.3c.9,-.2,1.5,-.8,1.7,-1.4h.1l.3,.8l1,-.3c-.1,-.4,-.3,-1,-.5,-1.5Zm-.7,2c.1,.2,.1,.3,.1,.4c-.1,.6,-.5,1.3,-1.3,1.5c-.6,.2,-1.2,-.1,-1.4,-.8c-.3,-1.3,1.1,-1.9,2.4,-2.2Zm8,-.9c-.3,.3,-.7,.5,-1.4,.7c-1.2,.3,-2.4,-.3,-2.8,-1.8c-.4,-1.4,.2,-2.7,1.6,-3.1c.7,-.1,1.1,-.1,1.5,0v-1c-.4,-.1,-1,-.1,-1.7,.1c-2.1,.5,-3.1,2.3,-2.6,4.3c.5,2,2.1,3,4.1,2.5c.8,-.2,1.5,-.6,1.7,-.8Zm.6,-7.1l.3,1.2l-1,.3l.2,.9l1,-.3l.9,3.5c.2,.8,.5,1.3,.9,1.6c.4,.2,.9,.3,1.4,.2c.5,-.2,.8,-.3,1,-.5l-.3,-.8c-.1,0,-.3,.1,-.6,.2c-.7,.2,-1,-.2,-1.2,-1l-.9,-3.5l1.7,-.4l-.3,-.9l-1.7,.4l-.3,-1.5Zm7.5,6.2l-1.6,-6.4l-1.2,.3l1.7,6.4Zm-2.5,-7.5c.4,-.1,.6,-.5,.5,-.9c-.1,-.4,-.4,-.7,-.9,-.6c-.4,.1,-.7,.6,-.6,1c.1,.4,.5,.7,1,.5Zm7.4,6.4c1.6,-.4,3,-1.8,2.3,-4.2c-.5,-2,-2.1,-3,-3.9,-2.5c-1.8,.4,-2.9,2,-2.3,4.2c.5,2,2.2,3,3.9,2.5Zm-.2,-.9c-1.1,.3,-2.2,-.5,-2.6,-1.9c-.3,-1.3,0,-2.7,1.4,-3.1c1.4,-.3,2.3,.9,2.5,2c.4,1.5,-.2,2.7,-1.3,3Zm5.1,-.5l1.2,-.3l-1,-3.9c0,-.2,-.1,-.4,-.1,-.5c.1,-.8,.5,-1.5,1.3,-1.7c1.1,-.2,1.7,.5,2,1.6l.9,3.7l1.2,-.3l-1,-3.9c-.5,-2.2,-2.1,-2.3,-3,-2.1c-1,.3,-1.6,1.1,-1.8,1.7l-.3,-1l-1.1,.3c.2,.5,.3,1,.5,1.7Zm7.2,-2.2c.5,.2,1.2,.2,1.9,0c1.5,-.4,2.2,-1.4,1.9,-2.5c-.3,-1,-1,-1.4,-2.2,-1.5c-.9,-.1,-1.4,-.3,-1.5,-.8c-.1,-.5,.2,-1,.8,-1.2c.6,-.1,1.2,0,1.5,.1v-1c-.4,-.1,-1,-.1,-1.7,0c-1.3,.4,-2,1.5,-1.7,2.5c.2,.8,.9,1.3,2.2,1.4c.9,.1,1.3,.3,1.5,.9c.1,.5,-.2,1,-1,1.3c-.6,.1,-1.3,0,-1.7,-.1Zm-52.5,25.9c-.2,-.8,-.3,-1.3,-.4,-1.8l-1.1,.3l.2,1c-.4,-.5,-1.2,-.9,-2.3,-.6c-1.5,.4,-2.6,1.9,-2,4.1c.4,1.8,1.9,2.9,3.5,2.5c1,-.3,1.6,-.9,1.8,-1.6l.2,.7c.4,1.6,-.3,2.5,-1.5,2.8c-.8,.2,-1.5,.1,-2,-.1l-.1,1c.6,.2,1.5,.2,2.3,0c.8,-.2,1.7,-.6,2.2,-1.4c.4,-.7,.5,-1.7,.1,-3.2Zm-.7,2.2c.1,.2,.1,.5,.1,.7c-.1,.8,-.6,1.4,-1.4,1.6c-1.2,.3,-2.1,-.6,-2.4,-1.8c-.4,-1.5,.1,-2.7,1.2,-3c.9,-.2,1.6,.2,2,.9c.1,.1,.2,.3,.2,.5Zm6.7,1.4c1.6,-.4,3,-1.9,2.4,-4.3c-.5,-1.9,-2.1,-3,-4,-2.5c-1.8,.5,-2.9,2.1,-2.3,4.3c.5,2,2.2,2.9,3.9,2.5Zm-.2,-.9c-1.1,.3,-2.2,-.6,-2.5,-2c-.3,-1.2,-.1,-2.6,1.3,-3c1.4,-.3,2.3,.9,2.6,2c.3,1.4,-.2,2.7,-1.4,3Zm6.5,-9l.4,1.2l-1,.2l.2,.9l1,-.2l.9,3.5c.2,.7,.5,1.3,.9,1.5c.3,.3,.8,.4,1.4,.2c.4,-.1,.8,-.3,1,-.4l-.3,-.9c-.2,.1,-.4,.2,-.7,.3c-.6,.1,-1,-.3,-1.2,-1.1l-.9,-3.4l1.7,-.5l-.2,-.9l-1.7,.5l-.4,-1.6Zm9,6c1.5,-.4,2.9,-1.9,2.3,-4.3c-.5,-2,-2.1,-3,-3.9,-2.5c-1.8,.5,-2.9,2.1,-2.3,4.2c.5,2.1,2.2,3,3.9,2.6Zm-.2,-.9c-1.1,.3,-2.2,-.6,-2.6,-2c-.3,-1.2,0,-2.7,1.4,-3c1.3,-.4,2.2,.9,2.5,2c.4,1.4,-.2,2.7,-1.3,3Zm6.5,-9l.3,1.1l-1,.3l.2,.9l1,-.3l.9,3.5c.2,.8,.5,1.3,.9,1.6c.4,.3,.9,.3,1.4,.2c.5,-.1,.8,-.3,1,-.4l-.3,-.9c-.1,.1,-.3,.2,-.6,.2c-.7,.2,-1,-.2,-1.2,-1l-.9,-3.5l1.7,-.4l-.3,-.9l-1.6,.4l-.4,-1.5Zm6.4,6.5l1.2,-.3L659,452c-.1,-.3,-.1,-.4,-.1,-.6c.1,-.7,.5,-1.4,1.3,-1.6c1.1,-.3,1.7,.5,1.9,1.5l1,3.7l1.2,-.3l-1,-3.8c-.6,-2.2,-2.1,-2.4,-3,-2.2c-.4,.1,-.8,.4,-1.1,.7c-.3,.3,-.5,.6,-.6,1l-1.1,-4l-1.1,.3Zm12,-6.3c0,-.2,0,-.4,-.1,-.6c-.3,-1.2,-1.3,-2.9,-3.4,-2.4c-1.9,.5,-2.6,2.3,-2.1,4.3c.5,1.9,2,2.9,4,2.4c1,-.2,1.7,-.6,2,-.9l-.4,-.8c-.4,.3,-.9,.6,-1.7,.8c-1.2,.3,-2.3,-.1,-2.8,-1.7Zm-4.7,.3c-.1,-.9,.1,-2.1,1.3,-2.4c1.3,-.3,2,.7,2.1,1.5Zm-33.2,28.5c-.3,.2,-.7,.5,-1.4,.6c-1.2,.4,-2.4,-.3,-2.8,-1.8c-.4,-1.4,.2,-2.7,1.6,-3c.7,-.2,1.2,-.2,1.5,-.1v-.9c-.4,-.1,-1,-.2,-1.7,0c-2.1,.6,-3.1,2.4,-2.6,4.3c.5,2,2.1,3,4.1,2.5c.8,-.2,1.5,-.6,1.7,-.8Zm4.7,.1c1.5,-.4,2.9,-1.9,2.3,-4.3c-.5,-1.9,-2.1,-3,-3.9,-2.5c-1.8,.5,-2.9,2.1,-2.3,4.3c.5,2,2.2,2.9,3.9,2.5Zm-.2,-.9c-1.1,.3,-2.2,-.6,-2.6,-2c-.3,-1.2,0,-2.6,1.4,-3c1.4,-.4,2.3,.9,2.5,2c.4,1.4,-.2,2.7,-1.3,3Zm5.1,-.5l1.2,-.3l-1,-3.9c-.1,-.2,-.1,-.4,-.1,-.6c.1,-.7,.5,-1.4,1.3,-1.6c1.1,-.3,1.7,.5,2,1.5l.9,3.8L648,476l-1,-3.9c-.5,-2.2,-2.1,-2.4,-3,-2.2c-1,.3,-1.6,1.1,-1.8,1.8l-.3,-1l-1.1,.2c.2,.5,.3,1.1,.5,1.8Zm5.9,-9.7l.3,1.2l-1,.2l.3,.9l1,-.2l.9,3.5c.2,.8,.4,1.3,.9,1.6c.3,.2,.8,.3,1.3,.1c.5,-.1,.8,-.2,1,-.4l-.2,-.9c-.2,.1,-.4,.2,-.7,.3c-.6,.2,-1,-.2,-1.2,-1l-.9,-3.5l1.7,-.4l-.2,-.9l-1.7,.4l-.4,-1.5Zm6.4,6.5l1.2,-.3l-.9,-3.4c-.1,-.2,-.1,-.4,-.1,-.6c-.1,-.9,.4,-1.7,1.2,-1.9c.1,0,.3,-.1,.4,-.1l-.3,-1.1c-.1,0,-.2,0,-.3,.1c-.8,.2,-1.4,.9,-1.4,1.9h-.1l-.4,-1.3l-1,.3c.2,.6,.4,1.2,.6,2Zm7.2,-1.7c1.6,-.4,2.9,-1.8,2.3,-4.2c-.5,-2,-2.1,-3,-3.9,-2.6c-1.8,.5,-2.9,2.1,-2.3,4.3c.5,2,2.2,3,3.9,2.5Zm-.2,-.9c-1.1,.3,-2.2,-.5,-2.6,-2c-.3,-1.2,0,-2.6,1.4,-3c1.4,-.3,2.3,.9,2.5,2c.4,1.5,-.2,2.7,-1.3,3Zm5.1,-.5l1.2,-.3l-2.4,-9.5l-1.2,.3Zm3.4,-.9l1.2,-.3l-2.4,-9.4l-1.2,.3Zm7.8,-5.2c0,-.1,0,-.3,-.1,-.5c-.3,-1.2,-1.3,-2.9,-3.4,-2.4c-1.9,.5,-2.7,2.3,-2.2,4.3c.5,1.9,2.1,2.9,4,2.4c1.1,-.3,1.7,-.7,2.1,-1l-.4,-.7c-.4,.2,-.9,.5,-1.7,.7c-1.2,.3,-2.4,-.1,-2.8,-1.6Zm-4.7,.3c-.1,-.8,.1,-2,1.3,-2.3c1.3,-.4,1.9,.7,2.1,1.4Zm7.2,2.3l1.2,-.3l-.9,-3.5c0,-.2,-.1,-.3,-.1,-.5c0,-.9,.4,-1.7,1.2,-1.9c.2,-.1,.3,-.1,.4,-.1l-.3,-1.1c-.1,0,-.2,0,-.3,0c-.8,.3,-1.4,1,-1.4,1.9h-.1l-.3,-1.2l-1.1,.2c.2,.6,.4,1.3,.6,2Z" class="g1_567"/>
<image clip-path="url(#c2_567)" preserveAspectRatio="none" x="384" y="295" width="97" height="234" xlink:href="img/3.jpg"/>
<image clip-path="url(#c3_567)" preserveAspectRatio="none" x="344" y="734" width="106" height="138" xlink:href="img/4.jpg"/>
<path d="M516.1,418.4c0,0,130.7,32.1,107.8,157.3" class="g2_567"/>
<path d="M622.4,583.9l5.8,-9.8l-4.3,1.6l-3.4,-3l1.9,11.2Z" class="g3_567"/>
<path d="M622.5,727.8c0,0,20.9,106.1,-152.6,103.9" class="g2_567"/>
<path d="M461.6,831.6l10.7,4l-2.4,-3.9l2.5,-3.9l-10.8,3.8Z" class="g3_567"/>
<path d="M325.1,820.1c0,0,-103.1,22.5,-114.3,-74.2" class="g2_567"/>
<path d="M209.9,737.6l-2.7,11.1l3.6,-2.8l4.2,1.9l-5.1,-10.2Z" class="g3_567"/>
<path d="M188.3,575.9c0,0,-9,-161.2,174.6,-166.1" class="g2_567"/>
<path d="M371.3,409.6L360.4,406l2.5,3.8l-2.3,4l10.7,-4.2Z" class="g3_567"/>
<path d="M520.1,495.2l1,19.8l83,-4.1l-1,-19.8l-83,4.1Z" class="g4_567"/>
<path d="M315.4,892.9c.1,2.3,5.2,-.4,5.7,-.7c1.3,-.7,2.1,-1.6,3.2,-2.6c1.3,-1.2,3,-2.2,4.3,-3.4c4,-3.6,6.7,-8.3,9.7,-12.6c.8,-1.1,1.8,-2,2.7,-3c1,-1.2,1.8,-2.5,2.7,-3.7c.5,-.6,2.4,-2.1,2.1,-3.1c-.2,-.8,-1.2,-.6,-1.8,-.4c-1.5,.5,-3,1.2,-4.5,1.7c-1.1,.4,-2.4,.4,-3.2,1.3c1.2,-.5,2.6,-.5,4,-.8c.9,-.2,1.8,-.4,2.7,-.5c.2,-.1,.7,-.2,1,-.1c.4,.2,.5,.6,.6,1.1c.1,.9,.1,1.3,.7,2c1.1,1.6,2.6,3.4,2.5,5.4" class="g5_567"/>
<g clip-path="url(#c4_567)">
<path d="M-4.5,13.7H-27.4m939.5,0H935M-4.5,1031.2H-27.4m939.5,0H935M13.7,-4.5V-27.4m0,1077v22.9m880,-1077V-27.4m0,1077v22.9" class="g6_567"/>
<path d="M-4.5,13.7H-27.4m939.5,0H935M-4.5,1031.2H-27.4m939.5,0H935M13.7,-4.5V-27.4m0,1077v22.9m880,-1077V-27.4m0,1077v22.9" class="g7_567"/>
</g>
</svg>