<?xml version="1.0" encoding="UTF-8" standalone="no"?>
<!DOCTYPE svg PUBLIC "-//W3C//DTD SVG 1.1//EN"
"http://www.w3.org/Graphics/SVG/1.1/DTD/svg11.dtd">
<svg viewBox="0 0 811 1017" version="1.1" xmlns="http://www.w3.org/2000/svg" xmlns:xlink="http://www.w3.org/1999/xlink">
<defs>
<style type="text/css"><![CDATA[
.g0_186{
fill: #70A6CC;
}
.g1_186{
fill: #FFFFFF;
}
.g2_186{
fill: none;
stroke: #231F20;
stroke-width: 0.763;
stroke-linecap: butt;
stroke-linejoin: round;
}
.g3_186{
fill: none;
stroke: #231F20;
stroke-width: 0.763;
stroke-linecap: butt;
stroke-linejoin: miter;
stroke-miterlimit: 4;
}
.g4_186{
fill: none;
stroke: #231F20;
stroke-width: 0.763;
stroke-linecap: butt;
stroke-linejoin: miter;
stroke-miterlimit: 4;
stroke-dasharray: 6,3;
}
.g5_186{
fill: #231F20;
}
.g6_186{
fill: none;
stroke: #231F20;
stroke-width: 0.458;
stroke-linecap: butt;
stroke-linejoin: miter;
stroke-miterlimit: 4;
}
]]></style>
</defs>
<path d="M142.4,546H710.7V524.1H142.4Z" class="g0_186"/>
<path d="M142.4,825.4H710.7V803.6H142.4Z" class="g0_186"/>
<path d="M143.5,225.5h541V83.6h-541Z" class="g1_186"/>
<path d="M185.5,175.1H313.9v50.1H185.5Zm185.7,-.3H499.7v50H371.2Zm184.5,-.6H684.1v50H555.7Z" class="g2_186"/>
<path d="M313.9,200H317" class="g3_186"/>
<path d="M319.7,200H360" class="g4_186"/>
<path d="M361.4,200h3.1" class="g3_186"/>
<path d="M363,202.2l8.2,-2.3L363,197.7v4.5Z" class="g5_186"/>
<path d="M555.2,199.7l-54.6,-.6" class="g3_186"/>
<path fill-rule="evenodd" d="M507.4,206.1l7,-6.8l-6.8,-7l-7,6.8l6.8,7Z" class="g5_186"/>
<path d="M268,117.6c24.7,25.1,70.9,10.5,75.2,69.9" class="g6_186"/>
<path d="M340.3,186.8l3.2,4.8l2.5,-5.1l-5.7,.3Z" class="g5_186"/>
<path d="M516.9,116.9c-1.3,31.5,12,20.6,12.9,56.6" class="g6_186"/>
<path d="M526.9,172.7l2.9,4.9l2.8,-5l-5.7,.1Z" class="g5_186"/>
</svg>