<?xml version="1.0" encoding="UTF-8" standalone="no"?>
<!DOCTYPE svg PUBLIC "-//W3C//DTD SVG 1.1//EN"
"http://www.w3.org/Graphics/SVG/1.1/DTD/svg11.dtd">
<svg viewBox="0 0 811 1017" version="1.1" xmlns="http://www.w3.org/2000/svg" xmlns:xlink="http://www.w3.org/1999/xlink">
<defs>
<style type="text/css"><![CDATA[
.g0_342{
fill: #FFFFFF;
}
.g1_342{
fill: #231F20;
}
.g2_342{
fill: #5A5758;
}
.g3_342{
fill: #EFEFEF;
}
.g4_342{
fill: #DFDFDF;
}
.g5_342{
fill: #EC2224;
}
.g6_342{
fill: #23ACDC;
}
.g7_342{
fill: #C9C9C8;
}
.g8_342{
fill: #ED3454;
}
.g9_342{
fill: #961E47;
}
]]></style>
</defs>
<path d="M138.9,482.3H707.3V84.8H138.9Z" class="g0_342"/>
<path d="M339.6,116.9V114c0,-1.8,-1.5,-3.3,-3.3,-3.3H285.1c-1.8,0,-3.3,1.5,-3.3,3.3v2.9h57.8Z" class="g1_342"/>
<path d="M294.9,116.9H281.8V114c0,-1.8,1.5,-3.3,3.3,-3.3h13.3l-3.5,6.2Z" class="g2_342"/>
<path d="M282.7,157.5h56V117.8h-56Z" class="g0_342"/>
<path d="M337.8,118.7v37.9H283.6V118.7h54.2m1.8,-1.8H281.8v41.5h57.8Z" class="g3_342"/>
<path d="M336.9,119.6v36.1H284.6V119.6h52.3m.4,-.5H284.1v37h53.2Z" class="g4_342"/>
<path d="M287.3,113.8c0,.5,-.4,.9,-.9,.9c-.5,0,-.9,-.4,-.9,-.9c0,-.5,.4,-.9,.9,-.9c.5,0,.9,.4,.9,.9Z" class="g5_342"/>
<path d="M290.1,113.8c0,.5,-.4,.9,-.9,.9c-.5,0,-.9,-.4,-.9,-.9c0,-.5,.4,-.9,.9,-.9c.5,0,.9,.4,.9,.9Z" class="g6_342"/>
<path d="M292.9,113.8c0,.5,-.4,.9,-1,.9c-.5,0,-.9,-.4,-.9,-.9c0,-.5,.4,-.9,.9,-.9c.6,0,1,.4,1,.9Z" class="g0_342"/>
<path d="M330.1,115.4h-29c-.9,0,-1.6,-.7,-1.6,-1.6c0,-.9,.7,-1.6,1.6,-1.6h29c.9,0,1.7,.7,1.7,1.6c0,.9,-.8,1.6,-1.7,1.6Z" class="g0_342"/>
<path d="M302.2,113.1l.2,.8c.1,.2,.1,.4,.2,.6c0,-.2,.1,-.4,.1,-.6l.3,-.8h.2l.3,.8c.1,.2,.1,.4,.1,.6h.1c0,-.2,0,-.4,.1,-.6l.2,-.8h.3l-.5,1.7h-.3l-.2,-.8c-.1,-.2,-.1,-.4,-.2,-.6c0,.2,-.1,.4,-.1,.6l-.3,.8h-.3l-.5,-1.7h.3Z" class="g1_342"/>
<path d="M304.8,113.1l.2,.8c.1,.2,.1,.4,.1,.6h.1c0,-.2,0,-.4,.1,-.6l.3,-.8h.2l.3,.8c0,.2,.1,.4,.1,.6c.1,-.2,.1,-.4,.2,-.6l.2,-.8h.3l-.5,1.7h-.3l-.3,-.9c0,-.1,-.1,-.3,-.1,-.5c0,.2,-.1,.4,-.1,.5l-.3,.8H305l-.5,-1.6h.3Z" class="g1_342"/>
<path d="M307.4,113.1l.2,.8c.1,.2,.1,.4,.1,.6h.1c0,-.2,0,-.4,.1,-.6l.3,-.8h.2l.3,.8c0,.2,.1,.4,.1,.6c.1,-.2,.1,-.4,.2,-.6l.2,-.8h.3l-.5,1.7h-.3l-.3,-.8c0,-.2,-.1,-.4,-.1,-.6c0,.2,-.1,.4,-.1,.6l-.3,.8h-.3l-.5,-1.7h.3Z" class="g1_342"/>
<path d="M309.6,114.6l.2,-.2l.2,.2c0,.1,0,.2,-.2,.2l-.2,-.2Z" class="g1_342"/>
<path d="M333.9,114.1h2.6v-.5h-2.6Z" class="g0_342"/>
<path d="M335,112.8l.4,-.3l1.3,1.4l-1.3,1.3l-.4,-.3l1.1,-1L335,112.8Z" class="g0_342"/>
<path d="M330.3,113.3l-.8,1.1l-.9,-1.1h1.7Z" class="g7_342"/>
<path d="M313.1,148.5h3.1V140h-3.1Z" class="g8_342"/>
<path d="M318.3,148.5h3.1v-5.1h-3.1Z" class="g6_342"/>
<path d="M308,148.4h3.1V135.3H308Z" class="g6_342"/>
<path d="M302.8,148.5h3.1V126.8h-3.1Z" class="g8_342"/>
<path d="M297.6,148.5h3.1V131.2h-3.1Z" class="g6_342"/>
<path d="M292.5,148.5h3.1V138.1h-3.1Z" class="g8_342"/>
<path d="M327.6,133.1l-7.4,-1.3l1.3,7.5l2.1,-2.2l4.7,4.8l2,-2.1l-4.7,-4.7l2,-2Z" class="g6_342"/>
<path d="M172.2,138.9c-5.9,-2.1,-7.8,-1,-7.8,-4.8c0,-.2,0,-.6,.1,-.9h.2c4.1,.3,7.9,.5,8.8,-.1c1.4,-.9,-3.4,-2.4,-3.4,-14.8c0,-6.3,-4.1,-10.8,-10.4,-10.8h-.3c0,0,-.1,0,-.1,0H159c-6.3,0,-10.4,4.5,-10.4,10.8c0,12.4,-4.8,13.9,-3.4,14.8c.9,.6,4.7,.4,8.7,.1h.3c.1,.3,.1,.7,.1,.9c0,3.8,-1.9,2.7,-7.8,4.8c-5.9,2.2,-7.6,4.3,-7.6,5.8c0,1.5,0,9.7,0,9.7h40.9c0,0,0,-8.2,0,-9.7c0,-1.5,-1.7,-3.6,-7.6,-5.8Z" class="g1_342"/>
<path d="M160.6,172.4l-.8,307.5h.8l.7,-307.5Z" class="g1_342"/>
<path d="M316,171.3l-.7,308.9h.7l.8,-308.9Z" class="g1_342"/>
<path d="M486.4,171.4l-.7,310.8h.7l.8,-310.8Z" class="g1_342"/>
<path d="M682.2,170.7l-.8,310.9h.8l.7,-310.9Z" class="g1_342"/>
<path d="M160.6,215.9l148.1,.7v-.7l-148.1,-.8Z" class="g1_342"/>
<path d="M307.2,218.5l8.3,-2.2L307.2,214v4.5Z" class="g1_342"/>
<path d="M316.2,259.6l-147.5,-.7v.7l147.5,.8Z" class="g1_342"/>
<path d="M170.2,257l-8.3,2.2l8.3,2.3V257Z" class="g1_342"/>
<path d="M160.6,289l316,.7v-.8l-316,-.7Z" class="g1_342"/>
<path d="M475.1,291.5l8.3,-2.2l-8.3,-2.2v4.4Z" class="g1_342"/>
<path d="M486.4,341L323,340.2v.8l163.4,.7Z" class="g1_342"/>
<path d="M324.5,338.4l-8.3,2.2l8.3,2.2v-4.4Z" class="g1_342"/>
<path d="M316.4,380.2l162.1,.8v-.8l-162.1,-.7Z" class="g1_342"/>
<path d="M477,382.8l8.3,-2.2L477,378.3v4.5Z" class="g1_342"/>
<path d="M486.6,405L323,404.2v.8l163.6,.7Z" class="g1_342"/>
<path d="M324.5,402.4l-8.3,2.2l8.3,2.2v-4.4Z" class="g1_342"/>
<path d="M316,441.8L674.5,441v-.7L316,441Z" class="g1_342"/>
<path d="M673,442.9l8.3,-2.3L673,438.4v4.5Z" class="g1_342"/>
<path d="M681.1,463.7L323,464.5v.7l358.1,-.7Z" class="g1_342"/>
<path d="M324.5,462.6l-8.3,2.3l8.3,2.2v-4.5Z" class="g1_342"/>
<path d="M514.1,118.4c-2.5,-4.2,-5.9,-7.6,-10.2,-10.1c-4.3,-2.5,-8.9,-3.7,-14,-3.7c-5.1,0,-9.7,1.2,-14,3.7c-4.3,2.5,-7.7,5.9,-10.1,10.1c-2.5,4.3,-3.8,9,-3.8,14c0,6.1,1.8,11.6,5.3,16.4c3.6,4.9,8.2,8.3,13.8,10.1c.6,.1,1.1,.1,1.4,-.2c.3,-.3,.5,-.7,.5,-1.1c0,-.1,0,-.7,0,-2c0,-1.2,0,-2.3,0,-3.2l-.9,.1c-.5,.1,-1.2,.2,-2,.2c-.8,-.1,-1.6,-.1,-2.5,-.3c-.9,-.2,-1.7,-.5,-2.4,-1.1c-.8,-.6,-1.3,-1.3,-1.6,-2.2l-.4,-.9c-.2,-.5,-.6,-1.1,-1.1,-1.8c-.6,-.7,-1.1,-1.1,-1.6,-1.4l-.3,-.2c-.1,-.1,-.3,-.2,-.5,-.4c-.1,-.2,-.2,-.3,-.3,-.5c0,-.2,0,-.3,.2,-.4c.2,-.1,.5,-.2,1.1,-.2l.7,.1c.5,.1,1.1,.4,1.8,.9c.7,.5,1.3,1.1,1.7,1.9c.6,1,1.3,1.7,2.1,2.2c.7,.6,1.5,.8,2.3,.8c.8,0,1.5,0,2.1,-.2c.6,-.1,1.1,-.3,1.6,-.5c.3,-1.6,.9,-2.9,1.8,-3.7c-1.4,-.2,-2.6,-.4,-3.7,-.7c-1.1,-.3,-2.2,-.8,-3.4,-1.4c-1.2,-.7,-2.2,-1.5,-2.9,-2.4c-.8,-1,-1.5,-2.3,-1.9,-3.9c-.5,-1.5,-.8,-3.3,-.8,-5.4c0,-2.9,1,-5.4,2.9,-7.5c-.9,-2.2,-.8,-4.7,.2,-7.4c.7,-.2,1.8,0,3.2,.5c1.3,.5,2.3,1,3,1.4c.6,.4,1.1,.7,1.5,1c2.3,-.7,4.6,-1,7,-1c2.4,0,4.7,.3,7,1l1.4,-.9c.9,-.6,2,-1.1,3.3,-1.6c1.3,-.5,2.3,-.6,2.9,-.4c1.1,2.7,1.2,5.2,.3,7.4c1.9,2.1,2.9,4.6,2.9,7.5c0,2.1,-.2,3.9,-.7,5.5c-.5,1.5,-1.2,2.8,-2,3.8c-.8,.9,-1.7,1.7,-2.9,2.4c-1.2,.6,-2.3,1.1,-3.4,1.4c-1.1,.3,-2.4,.5,-3.7,.7c1.2,1,1.8,2.8,1.8,5.1v7.7c0,.4,.2,.8,.5,1.1c.3,.3,.8,.3,1.4,.2c5.6,-1.8,10.2,-5.2,13.8,-10.1c3.5,-4.8,5.3,-10.3,5.3,-16.4c0,-5,-1.3,-9.7,-3.7,-14Z" class="g1_342"/>
<path d="M703.5,118.6c-2.5,-4.3,-5.9,-7.7,-10.1,-10.2c-4.3,-2.4,-9,-3.7,-14,-3.7c-5.1,0,-9.8,1.3,-14,3.7c-4.3,2.5,-7.7,5.9,-10.2,10.2c-2.5,4.3,-3.7,8.9,-3.7,14c0,6.1,1.8,11.5,5.3,16.4c3.5,4.8,8.1,8.2,13.7,10.1c.7,.1,1.2,0,1.5,-.3c.3,-.3,.5,-.6,.5,-1.1c0,0,0,-.7,0,-1.9c-.1,-1.3,-.1,-2.3,-.1,-3.3l-.8,.2c-.5,.1,-1.2,.1,-2,.1c-.8,0,-1.7,-.1,-2.5,-.2c-.9,-.2,-1.7,-.6,-2.5,-1.1c-.7,-.6,-1.3,-1.3,-1.6,-2.3l-.3,-.8c-.3,-.6,-.7,-1.2,-1.2,-1.9c-.5,-.6,-1,-1.1,-1.6,-1.3l-.2,-.2c-.2,-.1,-.3,-.3,-.5,-.5c-.1,-.1,-.2,-.3,-.3,-.5c-.1,-.1,0,-.3,.2,-.4c.2,-.1,.5,-.1,1,-.1l.8,.1c.4,.1,1,.4,1.7,.8c.8,.5,1.4,1.1,1.8,1.9c.6,1,1.2,1.8,2,2.3c.8,.5,1.6,.8,2.4,.8c.8,0,1.5,-.1,2.1,-.2c.6,-.1,1.1,-.3,1.6,-.6c.2,-1.6,.8,-2.8,1.8,-3.7c-1.4,-.1,-2.6,-.4,-3.7,-.6c-1.1,-.3,-2.3,-.8,-3.4,-1.5c-1.2,-.6,-2.2,-1.4,-3,-2.4c-.7,-1,-1.4,-2.2,-1.9,-3.8c-.5,-1.6,-.7,-3.4,-.7,-5.5c0,-2.9,.9,-5.4,2.8,-7.4c-.8,-2.2,-.8,-4.7,.3,-7.4c.7,-.3,1.7,-.1,3.1,.4c1.4,.6,2.4,1.1,3.1,1.4c.6,.4,1.1,.8,1.5,1c2.3,-.6,4.6,-.9,7,-.9c2.4,0,4.7,.3,6.9,.9l1.4,-.8c1,-.6,2.1,-1.2,3.4,-1.6c1.3,-.5,2.2,-.7,2.9,-.4c1.1,2.7,1.2,5.2,.3,7.4c1.9,2,2.9,4.5,2.9,7.4c0,2.1,-.3,3.9,-.8,5.5c-.5,1.6,-1.1,2.9,-1.9,3.8c-.8,1,-1.8,1.8,-2.9,2.4c-1.2,.7,-2.4,1.2,-3.5,1.5c-1.1,.2,-2.3,.5,-3.7,.6c1.3,1.1,1.9,2.8,1.9,5.2v7.6c0,.5,.2,.8,.5,1.1c.3,.3,.7,.4,1.4,.3c5.6,-1.9,10.2,-5.3,13.7,-10.1c3.6,-4.9,5.4,-10.3,5.4,-16.4c0,-5.1,-1.3,-9.7,-3.8,-14Z" class="g9_342"/>
<path d="M315.8,480.2l-148.7,-.7v.8l148.7,.7Z" class="g1_342"/>
<path d="M168.6,477.7l-8.3,2.2l8.3,2.2v-4.4Z" class="g1_342"/>
</svg>