<?xml version="1.0" encoding="UTF-8" standalone="no"?>
<!DOCTYPE svg PUBLIC "-//W3C//DTD SVG 1.1//EN"
"http://www.w3.org/Graphics/SVG/1.1/DTD/svg11.dtd">
<svg viewBox="0 0 931 1096" version="1.1" xmlns="http://www.w3.org/2000/svg" xmlns:xlink="http://www.w3.org/1999/xlink">
<defs>
<clipPath id="c0_190"><path d="M414.5,608.1v-42H696.3v42Z"/></clipPath>
<clipPath id="c1_190"><path d="M405.4,724.2v-42H705.3v42Z"/></clipPath>
<clipPath id="c2_190"><path d="M446.7,808.6V775.3H664v33.3Z"/></clipPath>
<style type="text/css"><![CDATA[
.g0_190{
fill: #D0007A;
}
.g1_190{
fill: none;
stroke: #241F1F;
stroke-width: 0.763;
stroke-miterlimit: 10;
}
.g2_190{
fill: none;
stroke: #00AEEF;
stroke-width: 1.145;
}
.g3_190{
fill: none;
stroke: #00AEEF;
stroke-width: 0.763;
stroke-linejoin: round;
}
.g4_190{
fill: none;
stroke: #EE008C;
stroke-width: 0.916;
stroke-linejoin: round;
}
.g5_190{
fill: none;
stroke: #241F1F;
stroke-width: 0.611;
stroke-miterlimit: 3;
}
.g6_190{
fill: #241F1F;
}
.g7_190{
fill: none;
stroke: #241F1F;
stroke-width: 0.763;
stroke-miterlimit: 3;
}
]]></style>
</defs>
<path d="M288.8,97.9c0,0,-1.6,0,-1.6,1.6v9.1c0,0,0,1.6,1.6,1.6h9.1c0,0,1.6,0,1.6,-1.6V99.5c0,0,0,-1.6,-1.6,-1.6Z" class="g0_190"/>
<path d="M470.4,481h20.5M517,588h19.8m40.2,0h28.4" class="g1_190"/>
<path clip-path="url(#c0_190)" d="M668.3,588h28.3" class="g1_190"/>
<path d="M485.1,704.1h35m3.9,0h19.8m40.2,0h28.3m32.5,0h28.7" class="g1_190"/>
<path clip-path="url(#c1_190)" d="M677.3,704.1h28.4" class="g1_190"/>
<path clip-path="url(#c2_190)" d="M447.1,792.7h20.4m70.5,0h31.8m21.9,0h72.7" class="g1_190"/>
<path d="M505.2,875.2h56.1m34.4,0h27.4m-39.9,47.4h27.4m-41.4,80.9h27.4" class="g1_190"/>
<path d="M304.6,473.1c0,0,-1.5,0,-1.5,1.5v14.1c0,0,0,1.5,1.5,1.5h14.1c0,0,1.6,0,1.6,-1.5V474.6c0,0,0,-1.5,-1.6,-1.5H304.6Z" class="g2_190"/>
<path d="M77.9,862.4H261.3" class="g3_190"/>
<path d="M77.9,957.7c17.6,-32.3,77.4,-80.3,183.4,-85.1" class="g4_190"/>
<path d="M53.5,972.4H261.3" class="g5_190"/>
<path fill-rule="evenodd" d="M261.3,972.4l-1.7,-2.5l6.6,2.5l-6.6,2.4Z" class="g6_190"/>
<path d="M77.9,990.7V834.9" class="g5_190"/>
<path fill-rule="evenodd" d="M77.9,834.9l-2.4,1.6L77.9,830l2.5,6.5Z" class="g6_190"/>
<path d="M151.3,969.3v6.1m73.3,-6.1v6.1" class="g7_190"/>
<path d="M74.9,862.4H81m-6.1,73.3H81M74.9,899H81" class="g5_190"/>
</svg>