<?xml version="1.0" encoding="UTF-8" standalone="no"?>
<!DOCTYPE svg PUBLIC "-//W3C//DTD SVG 1.1//EN"
"http://www.w3.org/Graphics/SVG/1.1/DTD/svg11.dtd">
<svg viewBox="0 0 811 1017" version="1.1" xmlns="http://www.w3.org/2000/svg" xmlns:xlink="http://www.w3.org/1999/xlink">
<defs>
<style type="text/css"><![CDATA[
.g0_463{
fill: #CCCCCC;
}
.g1_463{
fill: #476B85;
}
.g2_463{
fill: #F7F5E8;
}
]]></style>
</defs>
<path d="M575.3,100.1c-23.7,11.4,-49.4,17.2,-75.5,19L498,127c7.3,-.4,14.1,-.4,21.3,-.8c7.6,0,16.2,.8,16.2,10c0,4.5,-3.1,15.9,-4.1,20.6L498,283.7c-2.4,9.3,-6.5,27.5,-13.1,34c-6.5,6.9,-25.4,6.9,-33.6,7.3l-2,7.5c17.1,-.3,34,-1,51.1,-1.3c17.9,.3,35.8,1,53.6,1.3l2,-7.5c-18.8,-.8,-35.3,.6,-35.3,-13.8c0,-9.3,11,-47.5,13.7,-58.5Zm91.5,97.3C652.7,183.6,635.4,168.5,635.4,147.1c0,-22.6,16.9,-40.2,39.6,-40.2c23,0,36.5,16.2,36.5,38.5c0,26.8,-18.2,44.4,-41.3,55.1ZM643,217.3c18.6,16.2,38.3,34.7,38.3,61.2c0,27.1,-18,50.2,-46.1,50.2c-28.2,0,-42,-19,-42,-45.7c0,-31.7,22,-54.4,49.8,-65.7Zm33.4,-11c26.5,-11.3,57.4,-27.5,57.4,-60.9c0,-30.3,-27.8,-46,-55.4,-46c-35,0,-68.6,23,-68.6,60.8c0,21.7,12,37.2,27,51.5c-30.9,13.2,-65.9,33.1,-65.9,71.6c0,35.4,29.9,52.9,62.1,52.9c40.7,0,75.7,-26.1,75.7,-68.7c0,-25.1,-15.4,-44.4,-32.3,-61.2Z" class="g0_463"/>
<path d="M270.7,283.9H724.4v-.4H270.7Z" class="g1_463"/>
<path d="M119.4,571.2H506.9V444.4H119.4Z" class="g2_463"/>
</svg>