<?xml version="1.0" encoding="UTF-8" standalone="no"?>
<!DOCTYPE svg PUBLIC "-//W3C//DTD SVG 1.1//EN"
"http://www.w3.org/Graphics/SVG/1.1/DTD/svg11.dtd">
<svg viewBox="0 0 931 1096" version="1.1" xmlns="http://www.w3.org/2000/svg" xmlns:xlink="http://www.w3.org/1999/xlink">
<defs>
<clipPath id="c0_220"><path d="M277.6,625.7V214.6H823.5V625.7Z"/></clipPath>
<style type="text/css"><![CDATA[
.g0_220{
fill: none;
stroke: #241F1F;
stroke-width: 0.534;
stroke-miterlimit: 10;
}
.g1_220{
fill: #95CCE5;
}
.g2_220{
fill: #81C6E4;
}
.g3_220{
fill: none;
stroke: #241F1F;
stroke-width: 0.381;
}
.g4_220{
fill: #BDD9E7;
}
.g5_220{
fill: #9DBAE1;
}
.g6_220{
fill: #93A5D5;
}
.g7_220{
fill: #AC8ABF;
}
.g8_220{
fill: #C398C6;
}
.g9_220{
fill: #D9A7CD;
}
.ga_220{
fill: #F4DEEC;
}
.gb_220{
fill: #D5E2E9;
}
.gc_220{
fill: #E7E6E6;
}
.gd_220{
fill: #F5FBFE;
}
.ge_220{
fill: #FFECF3;
}
.gf_220{
fill: none;
stroke: #241F1F;
stroke-width: 0.763;
}
.gg_220{
fill: #241F1F;
}
.gh_220{
fill: none;
stroke: #241F1F;
stroke-width: 0.611;
stroke-miterlimit: 3;
}
.gi_220{
fill: none;
stroke: #241F1F;
stroke-width: 0.611;
stroke-miterlimit: 10;
}
.gj_220{
fill: none;
stroke: #241F1F;
stroke-width: 0.763;
stroke-miterlimit: 10;
}
]]></style>
</defs>
<path d="M499.2,177.5H510" class="g0_220"/>
<path d="M572.5,597.4c13.3,-17.8,21,-41.4,28,-56.7c7,-15.3,19.7,-25.4,24.2,-35.6c4.4,-10.2,22.3,-22.3,30.5,-39.5c8.3,-17.2,15.9,-29.3,25.5,-29.3c9.5,0,17.8,4.5,43.9,4.5c26.1,0,57.8,-15.3,76.3,-45.9V297.5C792,279.1,768.5,258.1,752,258.1c-12.7,0,-12.1,21.6,-27.4,21.6c-15.3,0,-28,-19.2,-31.8,-33.7H358.9c0,23.1,7.3,22.3,7.3,32.8c0,10.5,-12.4,20.4,-12.4,35.3c0,15,9.2,35,22,35c12.7,0,17.5,-21.9,22.9,-21.9c5.4,0,8.9,-2.6,8.9,31.5c0,34,-6.1,54.1,-6.1,69.4c0,15.2,4.2,10.5,12.1,20.3c8,9.9,3.5,12.8,13.7,12.8c10.2,0,9.6,29.2,15.9,45.8c6.4,16.5,12.8,15.9,22.3,45.2c9.6,29.3,26.8,45.2,26.8,45.2Z" class="g1_220"/>
<path d="M371.3,246c-1.3,31,2.6,29.9,2.6,34.4c0,4.4,-11.5,21,-11.5,33.7c0,12.8,5.1,26.1,14,26.1c8.9,0,13.4,-21.6,19.7,-21.6c6.4,0,14.7,15.9,14.7,21c0,5.1,4.4,17.8,4.4,26.7c0,8.9,-3.8,34.4,-3.8,51.6c0,17.2,14,26.7,24.2,40.1c10.2,13.3,21,59.2,38.2,73.2c17.2,14,25.5,49.6,57.3,49.6c31.8,0,43.9,-28,56,-50.2c12.1,-22.3,15.9,-11.5,26.1,-24.2c10.2,-12.8,11.5,-39.5,11.5,-72.6c0,-33.1,-4.5,-26.1,-4.5,-45.9c0,-19.7,31.8,-64.2,31.8,-129.2c0,-7.6,-1.2,-12.7,-1.2,-12.7Z" class="g2_220"/>
<path d="M371.3,246c-1.3,31,2.6,29.9,2.6,34.4c0,4.4,-11.5,21,-11.5,33.7c0,12.8,5.1,26.1,14,26.1c8.9,0,13.4,-21.6,19.7,-21.6c6.4,0,14.7,15.9,14.7,21c0,5.1,4.4,17.8,4.4,26.7c0,8.9,-3.8,34.4,-3.8,51.6c0,17.2,14,26.7,24.2,40.1c10.2,13.3,21,59.2,38.2,73.2c17.2,14,25.5,49.6,57.3,49.6c31.8,0,43.9,-28,56,-50.2c12.1,-22.3,15.9,-11.5,26.1,-24.2c10.2,-12.8,11.5,-39.5,11.5,-72.6c0,-33.1,-4.5,-26.1,-4.5,-45.9c0,-19.7,31.8,-64.2,31.8,-129.2c0,-7.6,-1.2,-12.7,-1.2,-12.7H371.3Z" class="g3_220"/>
<path d="M455.4,246c10.9,11.5,20.7,20.3,21.8,24.3c1.2,4,9.2,20.6,13.2,25.8c4,5.1,12.4,17.2,18.7,17.2c6.3,0,25,-7.9,29,-17.6c4,-9.7,10.1,-18.4,16.1,-24.4c6,-6,20.6,-19,20.6,-25.3H455.4Z" class="g1_220"/>
<path d="M455.4,246c10.9,11.5,20.7,20.3,21.8,24.3c1.2,4,9.2,20.6,13.2,25.8c4,5.1,12.4,17.2,18.7,17.2c6.3,0,25,-7.9,29,-17.6c4,-9.7,10.1,-18.4,16.1,-24.4c6,-6,20.6,-19,20.6,-25.3H455.4" class="g3_220"/>
<path d="M800.9,394.9c-18.5,30.6,-50.2,45.9,-76.3,45.9c-26.1,0,-34.4,-4.5,-43.9,-4.5c-9.6,0,-17.2,12.1,-25.5,29.3c-8.2,17.2,-26.1,29.3,-30.5,39.5c-4.5,10.2,-17.2,20.3,-24.2,35.6c-7,15.3,-14.7,38.9,-28,56.7H800.9Z" class="g4_220"/>
<path d="M800.9,394.9c-18.5,30.6,-50.2,45.9,-76.3,45.9c-26.1,0,-34.4,-4.5,-43.9,-4.5c-9.6,0,-17.2,12.1,-25.5,29.3c-8.2,17.2,-26.1,29.3,-30.5,39.5c-4.5,10.2,-17.2,20.3,-24.2,35.6c-7,15.3,-14.7,38.9,-28,56.7H800.9V394.9Z" class="g3_220"/>
<path d="M438.2,247.9c-12.8,0,-19.9,7.5,-24.7,7.5c-13.7,0,-14.6,-3.7,-28.5,-3.7c-3.5,0,-6.4,5,-7,12.8c-.6,7.9,3.5,17.4,3.5,21.6c0,8.3,-13.1,26,-13.1,33c0,7,4.8,13.5,8,13.5c10.6,0,10.1,-23.6,17.8,-23.6c9.6,0,27.9,43.3,27.9,63.8c0,20.6,-1.9,26.3,-1.9,34.4c0,8.1,3.3,18.1,3.3,21.5c0,3.3,-1.4,4.8,-1.4,7.2c0,2.3,21,23.4,25.8,40.5c4.7,17.2,28.6,33,40.5,48.3c12,15.2,27.3,28.6,41.6,28.6c14.3,0,62.5,-37.7,62.5,-97.4C592.5,423,582,401.5,570.6,401.5c-11.5,0,-12,8.1,-16.3,8.1C550,409.6,538.1,401,530,399.1c-8.1,-1.9,-15.3,-2.9,-15.3,-28.2c0,-25.3,3.3,-26.2,3.3,-29.6c0,-3.3,-4.3,-9.5,-10.9,-9.5c-6.7,0,-11.3,-6.2,-11.7,-12.9c-.3,-6.7,-2.5,-15.3,-6.6,-15.3c-4.2,0,-9,-9.9,-13.7,-20C470.3,273.4,456,247.9,438.2,247.9Z" class="g5_220"/>
<path d="M438.2,247.9c-12.8,0,-19.9,7.5,-24.7,7.5c-13.7,0,-14.6,-3.7,-28.5,-3.7c-3.5,0,-6.4,5,-7,12.8c-.6,7.9,3.5,17.4,3.5,21.6c0,8.3,-13.1,26,-13.1,33c0,7,4.8,13.5,8,13.5c10.6,0,10.1,-23.6,17.8,-23.6c9.6,0,27.9,43.3,27.9,63.8c0,20.6,-1.9,26.3,-1.9,34.4c0,8.1,3.3,18.1,3.3,21.5c0,3.3,-1.4,4.8,-1.4,7.2c0,2.3,21,23.4,25.8,40.5c4.7,17.2,28.6,33,40.5,48.3c12,15.2,27.3,28.6,41.6,28.6c14.3,0,62.5,-37.7,62.5,-97.4C592.5,423,582,401.5,570.6,401.5c-11.5,0,-12,8.1,-16.3,8.1C550,409.6,538.1,401,530,399.1c-8.1,-1.9,-15.3,-2.9,-15.3,-28.2c0,-25.3,3.3,-26.2,3.3,-29.6c0,-3.3,-4.3,-9.5,-10.9,-9.5c-6.7,0,-11.3,-6.2,-11.7,-12.9c-.3,-6.7,-2.5,-15.3,-6.6,-15.3c-4.2,0,-9,-9.9,-13.7,-20C470.3,273.4,456,247.9,438.2,247.9Z" class="g3_220"/>
<path d="M471.6,351c-4.8,0,-4.8,2.9,-6.4,4.5c-1.6,1.6,-.9,3.5,-8.3,3.5c-7.3,0,-7,-3.5,-13.7,-3.5c-6.6,0,-11.4,4.8,-11.4,13.7c0,8.9,-3.8,21.6,-3.8,34.7c0,13,6.7,23.5,6.7,28.6c0,5.1,13.3,27.1,13.3,32.2c0,5,11.8,24.5,25.8,24.5c14,0,16.6,-16.9,16.6,-25.5c0,-8.6,8.2,-36.9,8.2,-40.7c0,-3.9,-2.5,-13.7,-7,-13.7c-7.9,0,-4.1,6.7,-8.6,6.7c-3.2,0,-3.8,-6.4,-8.9,-6.4c-.8,0,-.4,-3.2,1.3,-5.1c2.8,-3.1,8.4,-5.4,11.8,-5.4c5.4,0,15.3,-9.5,15.3,-20.1c0,-10.5,-8.7,-20.3,-16,-20.6C480.2,358,476.7,351,471.6,351Z" class="g6_220"/>
<path d="M471.6,351c-4.8,0,-4.8,2.9,-6.4,4.5c-1.6,1.6,-.9,3.5,-8.3,3.5c-7.3,0,-7,-3.5,-13.7,-3.5c-6.6,0,-11.4,4.8,-11.4,13.7c0,8.9,-3.8,21.6,-3.8,34.7c0,13,6.7,23.5,6.7,28.6c0,5.1,13.3,27.1,13.3,32.2c0,5,11.8,24.5,25.8,24.5c14,0,16.6,-16.9,16.6,-25.5c0,-8.6,8.2,-36.9,8.2,-40.7c0,-3.9,-2.5,-13.7,-7,-13.7c-7.9,0,-4.1,6.7,-8.6,6.7c-3.2,0,-3.8,-6.4,-8.9,-6.4c-.8,0,-.4,-3.2,1.3,-5.1c2.8,-3.1,8.4,-5.4,11.8,-5.4c5.4,0,15.3,-9.5,15.3,-20.1c0,-10.5,-8.7,-20.3,-16,-20.6C480.2,358,476.7,351,471.6,351Z" class="g3_220"/>
<path d="M448,364.7c-8.3,0,-9.8,14.3,-9.8,19.4c0,5.1,-3.2,19.1,-3.2,24.9c0,13,10.2,18.1,10.2,23.8c0,1.6,-1,4,-1,6.7c0,5.7,4.5,15.9,5.7,19.4c1.3,3.5,8.6,15.9,15.6,15.9c7,0,14.3,-9.5,14.3,-15.2c0,-5.8,9.6,-14.7,9.6,-19.4c0,-4.8,-3.8,-8.6,-3.8,-9.9c0,-1.3,5.1,-2.9,5.1,-6.4c0,-3.5,-1.3,-2.5,-2.3,-2.5c-.9,0,-2.2,4.4,-5,4.4c-1.5,0,-4.2,-3.8,-7.7,-8.2c-3.5,-4.5,-7.6,-3.9,-7.6,-16.3c0,-13,4.7,-10.2,4.7,-19.4c0,-9.2,-8.5,-10.8,-12.4,-12.7c-3.8,-1.9,-8.2,-4.5,-12.4,-4.5Z" class="g7_220"/>
<path d="M448,364.7c-8.3,0,-9.8,14.3,-9.8,19.4c0,5.1,-3.2,19.1,-3.2,24.9c0,13,10.2,18.1,10.2,23.8c0,1.6,-1,4,-1,6.7c0,5.7,4.5,15.9,5.7,19.4c1.3,3.5,8.6,15.9,15.6,15.9c7,0,14.3,-9.5,14.3,-15.2c0,-5.8,9.6,-14.7,9.6,-19.4c0,-4.8,-3.8,-8.6,-3.8,-9.9c0,-1.3,5.1,-2.9,5.1,-6.4c0,-3.5,-1.3,-2.5,-2.3,-2.5c-.9,0,-2.2,4.4,-5,4.4c-1.5,0,-4.2,-3.8,-7.7,-8.2c-3.5,-4.5,-7.6,-3.9,-7.6,-16.3c0,-13,4.7,-10.2,4.7,-19.4c0,-9.2,-8.5,-10.8,-12.4,-12.7c-3.8,-1.9,-8.2,-4.5,-12.4,-4.5Z" class="g3_220"/>
<path d="M526.6,418.2c-9,0,-16.9,9.8,-16.9,15.3c0,5.5,3.1,5.9,.2,8.8c-2.8,2.9,-7.1,5.7,-7.1,15.8c0,10,2.6,9.5,2.6,13.3c0,3.8,-6.7,16.3,-6.7,24.1c0,7.9,6.2,20.3,9.6,23.4c3.3,3.1,10.9,11,21.7,11c10.7,0,28.1,-13.8,28.1,-21.2c0,-7.4,6.7,-25.6,6.7,-38.2c0,-12.7,-5.2,-22.7,-8.8,-25.1C552.4,443,543.3,430.6,541.2,427c-2.2,-3.6,-6.4,-8.8,-14.6,-8.8Z" class="g6_220"/>
<path d="M526.6,418.2c-9,0,-16.9,9.8,-16.9,15.3c0,5.5,3.1,5.9,.2,8.8c-2.8,2.9,-7.1,5.7,-7.1,15.8c0,10,2.6,9.5,2.6,13.3c0,3.8,-6.7,16.3,-6.7,24.1c0,7.9,6.2,20.3,9.6,23.4c3.3,3.1,10.9,11,21.7,11c10.7,0,28.1,-13.8,28.1,-21.2c0,-7.4,6.7,-25.6,6.7,-38.2c0,-12.7,-5.2,-22.7,-8.8,-25.1C552.4,443,543.3,430.6,541.2,427c-2.2,-3.6,-6.4,-8.8,-14.6,-8.8Z" class="g3_220"/>
<path d="M522.1,429.9c-2.9,0,-6,3.8,-7.2,8.1c-1.2,4.4,-6.4,9.1,-6.4,15c0,3.9,3.1,12.5,3.1,20.6c0,8.1,-.2,12.9,-.2,15.5c0,2.6,7.1,21,18.8,21c11.7,0,17.9,-11.9,17.9,-27c0,-20.3,-7.1,-29.3,-7.1,-33.6c0,-4.3,-5.5,-19.6,-18.9,-19.6Z" class="g7_220"/>
<path d="M522.1,429.9c-2.9,0,-6,3.8,-7.2,8.1c-1.2,4.4,-6.4,9.1,-6.4,15c0,3.9,3.1,12.5,3.1,20.6c0,8.1,-.2,12.9,-.2,15.5c0,2.6,7.1,21,18.8,21c11.7,0,17.9,-11.9,17.9,-27c0,-20.3,-7.1,-29.3,-7.1,-33.6c0,-4.3,-5.5,-19.6,-18.9,-19.6Z" class="g3_220"/>
<path d="M451.4,374.3c-5.7,0,-5.4,9.5,-5.4,15.3c0,5.7,-6.3,13.3,-6.3,19.5c0,10.5,12.9,10.5,12.9,20.1c0,6.9,-1.6,9.3,-1.6,16.2c0,6.9,4.5,20.8,11.4,20.8c6.9,0,6.9,-2.7,6.9,-6.2c0,-3.6,6.1,-10,6.1,-12.4c0,-2.4,2.5,-6.7,2.5,-10.3C477.9,424.9,466,419.1,466,413.7c0,-12.2,-10.7,-16.5,-10.7,-19.6c0,-3.1,4.7,-3.4,4.7,-6.7c0,-3.3,-4.7,-13.1,-8.6,-13.1Z" class="g8_220"/>
<path d="M451.4,374.3c-5.7,0,-5.4,9.5,-5.4,15.3c0,5.7,-6.3,13.3,-6.3,19.5c0,10.5,12.9,10.5,12.9,20.1c0,6.9,-1.6,9.3,-1.6,16.2c0,6.9,4.5,20.8,11.4,20.8c6.9,0,6.9,-2.7,6.9,-6.2c0,-3.6,6.1,-10,6.1,-12.4c0,-2.4,2.5,-6.7,2.5,-10.3C477.9,424.9,466,419.1,466,413.7c0,-12.2,-10.7,-16.5,-10.7,-19.6c0,-3.1,4.7,-3.4,4.7,-6.7c0,-3.3,-4.7,-13.1,-8.6,-13.1Z" class="g3_220"/>
<path d="M442,262.7c-11,0,-18.3,7.2,-18.3,16.7c0,9.6,-17.7,6.1,-17.7,22.5c0,13.3,17,46.9,23.2,46.9c6.2,0,5.3,-8,5.3,-10.7c0,-2.7,4,-8.4,9.5,-8.4c5.6,0,13.7,12.4,21.9,12.4c8.1,0,13.2,-12.1,13.2,-24.8c0,-12.7,-9.6,-20.9,-9.6,-26.7c0,-5.9,-12.6,-27.9,-27.5,-27.9Z" class="g6_220"/>
<path d="M442,262.7c-11,0,-18.3,7.2,-18.3,16.7c0,9.6,-17.7,6.1,-17.7,22.5c0,13.3,17,46.9,23.2,46.9c6.2,0,5.3,-8,5.3,-10.7c0,-2.7,4,-8.4,9.5,-8.4c5.6,0,13.7,12.4,21.9,12.4c8.1,0,13.2,-12.1,13.2,-24.8c0,-12.7,-9.6,-20.9,-9.6,-26.7c0,-5.9,-12.6,-27.9,-27.5,-27.9Z" class="g3_220"/>
<path d="M443.1,272.1c-12.1,0,-14,14.2,-19.8,19.4c-5.7,5.3,-10.3,3.8,-10.3,14.8c0,11,9.7,26.3,14.5,26.3c4.8,0,9.4,-6.9,14.9,-6.9c5.6,0,5.8,2.1,13.3,2.1c7.4,0,13,-8,13,-15.8c0,-7.8,-8.6,-39.9,-25.6,-39.9Z" class="g7_220"/>
<path d="M443.1,272.1c-12.1,0,-14,14.2,-19.8,19.4c-5.7,5.3,-10.3,3.8,-10.3,14.8c0,11,9.7,26.3,14.5,26.3c4.8,0,9.4,-6.9,14.9,-6.9c5.6,0,5.8,2.1,13.3,2.1c7.4,0,13,-8,13,-15.8c0,-7.8,-8.6,-39.9,-25.6,-39.9Z" class="g3_220"/>
<path d="M442.8,279.9c-7.8,0,-13.1,8.4,-16,11.8c-2.8,3.3,-8.9,5.2,-8.9,16.5c0,6.7,1.8,17,13.1,17c11.3,0,14,-3.6,18.9,-3.6c5,0,12.6,-5.1,12.6,-13.1c0,-7.9,-8.1,-28.6,-19.7,-28.6Z" class="g8_220"/>
<path d="M442.8,279.9c-7.8,0,-13.1,8.4,-16,11.8c-2.8,3.3,-8.9,5.2,-8.9,16.5c0,6.7,1.8,17,13.1,17c11.3,0,14,-3.6,18.9,-3.6c5,0,12.6,-5.1,12.6,-13.1c0,-7.9,-8.1,-28.6,-19.7,-28.6Z" class="g3_220"/>
<path d="M442.1,287.4c-8.6,0,-20.5,9.5,-20.5,19.4c0,9.9,5.9,12.9,9.7,12.9c3.8,0,11.1,-2.4,17,-2.4c5.9,0,9.6,-5.1,9.6,-10.3c0,-5.3,-5.3,-19.6,-15.8,-19.6Z" class="g9_220"/>
<path d="M442.1,287.4c-8.6,0,-20.5,9.5,-20.5,19.4c0,9.9,5.9,12.9,9.7,12.9c3.8,0,11.1,-2.4,17,-2.4c5.9,0,9.6,-5.1,9.6,-10.3c0,-5.3,-5.3,-19.6,-15.8,-19.6Z" class="g3_220"/>
<path d="M438.3,293.7c-6.2,0,-12.7,6.7,-12.7,11.7c0,4.9,3.5,10,8.7,10c5.3,0,8.9,-2.6,13.4,-2.6c4.5,0,6.4,-.4,6.4,-5.5c0,-5.1,-8,-13.6,-15.8,-13.6Z" class="ga_220"/>
<path d="M438.3,293.7c-6.2,0,-12.7,6.7,-12.7,11.7c0,4.9,3.5,10,8.7,10c5.3,0,8.9,-2.6,13.4,-2.6c4.5,0,6.4,-.4,6.4,-5.5c0,-5.1,-8,-13.6,-15.8,-13.6Z" class="g3_220"/>
<path d="M301.3,246V597.4h191c0,0,-17.2,-15.9,-26.8,-45.2C456,522.9,449.6,523.5,443.2,507c-6.3,-16.6,-5.7,-45.8,-15.9,-45.8c-10.2,0,-5.7,-2.9,-13.7,-12.8c-7.9,-9.8,-12.1,-5.1,-12.1,-20.3c0,-15.3,6.1,-35.4,6.1,-69.4c0,-34.1,-3.5,-31.5,-8.9,-31.5c-5.4,0,-10.2,21.9,-22.9,21.9c-12.8,0,-22,-20,-22,-35c0,-14.9,12.4,-24.8,12.4,-35.3c0,-10.5,-7.3,-9.7,-7.3,-32.8Z" class="g4_220"/>
<path d="M301.3,246V597.4h191c0,0,-17.2,-15.9,-26.8,-45.2C456,522.9,449.6,523.5,443.2,507c-6.3,-16.6,-5.7,-45.8,-15.9,-45.8c-10.2,0,-5.7,-2.9,-13.7,-12.8c-7.9,-9.8,-12.1,-5.1,-12.1,-20.3c0,-15.3,6.1,-35.4,6.1,-69.4c0,-34.1,-3.5,-31.5,-8.9,-31.5c-5.4,0,-10.2,21.9,-22.9,21.9c-12.8,0,-22,-20,-22,-35c0,-14.9,12.4,-24.8,12.4,-35.3c0,-10.5,-7.3,-9.7,-7.3,-32.8H301.3Z" class="g3_220"/>
<path d="M301.3,246V597.4H459.8c0,0,-11.9,-32.3,-11.9,-50.9C447.9,535,429.2,530.7,429.2,475c0,-8.1,-2.8,-8.1,-5.7,-8.1c-2.9,0,-12.9,-6.2,-16.7,-11.9C403,449.2,393.9,443.7,393.9,431.1c0,-11.3,3.4,-18.6,3.4,-26.8c0,-19.5,-3.1,-19.7,-3.1,-26.8c0,-11.2,-6,-14.7,-12.7,-14.7C357,362.8,354.3,343.7,350,336.1c-4.3,-7.7,-9.6,-10.5,-9.6,-32.5c0,-22,1.9,-12.4,1.9,-26.2c0,-13.9,-7.6,-31.4,-7.6,-31.4Z" class="gb_220"/>
<path d="M301.3,246V597.4H459.8c0,0,-11.9,-32.3,-11.9,-50.9C447.9,535,429.2,530.7,429.2,475c0,-8.1,-2.8,-8.1,-5.7,-8.1c-2.9,0,-12.9,-6.2,-16.7,-11.9C403,449.2,393.9,443.7,393.9,431.1c0,-11.3,3.4,-18.6,3.4,-26.8c0,-19.5,-3.1,-19.7,-3.1,-26.8c0,-11.2,-6,-14.7,-12.7,-14.7C357,362.8,354.3,343.7,350,336.1c-4.3,-7.7,-9.6,-10.5,-9.6,-32.5c0,-22,1.9,-12.4,1.9,-26.2c0,-13.9,-7.6,-31.4,-7.6,-31.4H301.3Z" class="g3_220"/>
<path d="M301.3,284.8V597.4H425.4c0,0,-12.1,-38.2,-12.1,-79.6c0,-41.4,-.3,-46.6,-14.6,-55.7c-14.3,-9.1,-10,-27.7,-10,-47.2c0,-19.6,-12.9,-27.7,-29.2,-37.8C343.3,367.1,314.7,330,301.3,284.8Z" class="gc_220"/>
<path d="M301.3,284.8V597.4H425.4c0,0,-12.1,-38.2,-12.1,-79.6c0,-41.4,-.3,-46.6,-14.6,-55.7c-14.3,-9.1,-10,-27.7,-10,-47.2c0,-19.6,-12.9,-27.7,-29.2,-37.8C343.3,367.1,314.7,330,301.3,284.8Z" class="g3_220"/>
<path d="M301.3,597.4h68.1c0,0,1.3,-37.6,-5.7,-50.9c-7,-13.4,-33.8,-38.9,-33.8,-72.6c0,-33.7,5.8,-24.2,5.8,-42c0,-14,-34.4,-37.6,-34.4,-37.6Z" class="gd_220"/>
<path d="M301.3,597.4h68.1c0,0,1.3,-37.6,-5.7,-50.9c-7,-13.4,-33.8,-38.9,-33.8,-72.6c0,-33.7,5.8,-24.2,5.8,-42c0,-14,-34.4,-37.6,-34.4,-37.6V597.4Z" class="g3_220"/>
<path d="M388.2,259.4c-1.9,0,-3.2,1.9,-3.2,5.4c0,3.5,3.2,7.9,5.7,7.9c2.6,0,4.2,-3.1,4.2,-6c0,-2.9,-4.2,-7.3,-6.7,-7.3Z" class="g6_220"/>
<path d="M388.2,259.4c-1.9,0,-3.2,1.9,-3.2,5.4c0,3.5,3.2,7.9,5.7,7.9c2.6,0,4.2,-3.1,4.2,-6c0,-2.9,-4.2,-7.3,-6.7,-7.3Z" class="g3_220"/>
<path d="M377.4,317.6c-2.3,0,-2.6,3.8,-2.6,5.7c0,1.9,1,2.6,2.2,2.6c1.3,0,2.9,-1.6,2.9,-3.2c0,-1.6,-1,-5.1,-2.5,-5.1Z" class="g6_220"/>
<path d="M377.4,317.6c-2.3,0,-2.6,3.8,-2.6,5.7c0,1.9,1,2.6,2.2,2.6c1.3,0,2.9,-1.6,2.9,-3.2c0,-1.6,-1,-5.1,-2.5,-5.1Z" class="g3_220"/>
<path d="M433.4,299.9c-2.1,0,-5.1,2.6,-5.1,4.3c0,1.8,2.2,4.8,4,4.8c1.7,0,7.6,-3,7.6,-5.2c0,-2.3,-4.9,-3.9,-6.5,-3.9Z" class="ge_220"/>
<path d="M433.4,299.9c-2.1,0,-5.1,2.6,-5.1,4.3c0,1.8,2.2,4.8,4,4.8c1.7,0,7.6,-3,7.6,-5.2c0,-2.3,-4.9,-3.9,-6.5,-3.9Z" class="g3_220"/>
<path d="M444.5,409.1c0,5.8,14.6,9.1,14.6,14.3c0,5.3,-1.9,8.9,-1.9,10.5c0,1.7,.4,2.7,1.9,2.7c1.4,0,3.3,-3.8,6.4,-3.8c3.1,0,4.8,0,4.8,-3.4c0,-3.3,-10.3,-10.5,-10.3,-16.5c0,-5.9,1,-3.3,1,-6.9c0,-3.6,-6.7,-8.3,-6.7,-10.7c0,-2.4,-1.4,-3.4,-3.6,0c-2.1,3.3,-6.2,10.5,-6.2,13.8Z" class="g9_220"/>
<path d="M444.5,409.1c0,5.8,14.6,9.1,14.6,14.3c0,5.3,-1.9,8.9,-1.9,10.5c0,1.7,.4,2.7,1.9,2.7c1.4,0,3.3,-3.8,6.4,-3.8c3.1,0,4.8,0,4.8,-3.4c0,-3.3,-10.3,-10.5,-10.3,-16.5c0,-5.9,1,-3.3,1,-6.9c0,-3.6,-6.7,-8.3,-6.7,-10.7c0,-2.4,-1.4,-3.4,-3.6,0c-2.1,3.3,-6.2,10.5,-6.2,13.8Z" class="g3_220"/>
<path d="M453.4,399.6c-1.7,0,-2,.2,-2,3.1c0,2.8,.8,5,1.7,5c1,0,3.1,-1.9,3.1,-3.1c0,-1.2,-1.4,-5,-2.8,-5Z" class="ga_220"/>
<path d="M453.4,399.6c-1.7,0,-2,.2,-2,3.1c0,2.8,.8,5,1.7,5c1,0,3.1,-1.9,3.1,-3.1c0,-1.2,-1.4,-5,-2.8,-5Z" class="g3_220"/>
<path d="M464.6,439c-2.7,0,-3.6,1.4,-3.6,3.3c0,1.9,4.5,10.1,7.1,10.1c1.2,0,2.7,-2.2,2.7,-4.9c0,-2.6,-2.4,-8.5,-6.2,-8.5Z" class="g7_220"/>
<path d="M464.6,439c-2.7,0,-3.6,1.4,-3.6,3.3c0,1.9,4.5,10.1,7.1,10.1c1.2,0,2.7,-2.2,2.7,-4.9c0,-2.6,-2.4,-8.5,-6.2,-8.5Z" class="g3_220"/>
<path d="M458.5,454c-.8,0,-.8,-.2,-.6,.5c.1,.6,-.7,.5,.1,.6c.8,.2,1.2,-.1,1.2,-.6c0,-.5,-.2,-.5,-.7,-.5Z" class="ga_220"/>
<path d="M457.9,448.3c-1.7,0,-2.9,3.1,-2.9,4.3c0,1.2,.7,8.3,2.9,8.3c2.1,0,5,-3.1,5,-5.2c0,-2.2,-3.6,-7.4,-5,-7.4Z" class="g9_220"/>
<path d="M457.9,448.3c-1.7,0,-2.9,3.1,-2.9,4.3c0,1.2,.7,8.3,2.9,8.3c2.1,0,5,-3.1,5,-5.2c0,-2.2,-3.6,-7.4,-5,-7.4Z" class="g3_220"/>
<path d="M523.8,442.1c-3.6,0,-3.6,.2,-3.6,4.3c0,4,1.7,6.2,3.8,6.2c2.2,0,5,-4.6,5,-5.8c0,-1.2,-3.8,-4.7,-5.2,-4.7Z" class="g8_220"/>
<path d="M523.8,442.1c-3.6,0,-3.6,.2,-3.6,4.3c0,4,1.7,6.2,3.8,6.2c2.2,0,5,-4.6,5,-5.8c0,-1.2,-3.8,-4.7,-5.2,-4.7Z" class="g3_220"/>
<path d="M521.6,466.6c-3.3,0,-4.3,1.7,-4.3,6c0,4.3,7.7,22.7,13.6,22.7c6,0,9.6,-6.7,9.6,-11.7c0,-5,-7.4,-17,-18.9,-17Z" class="g8_220"/>
<path d="M521.6,466.6c-3.3,0,-4.3,1.7,-4.3,6c0,4.3,7.7,22.7,13.6,22.7c6,0,9.6,-6.7,9.6,-11.7c0,-5,-7.4,-17,-18.9,-17Z" class="g3_220"/>
<path d="M488.4,376.5c-2.2,0,-3.1,2.5,-3.1,4.1c0,1.6,1.2,4.2,2.5,4.2c1.3,0,3.5,-2.3,3.5,-4.2c0,-1.9,-.9,-4.1,-2.9,-4.1Z" class="g7_220"/>
<path d="M488.4,376.5c-2.2,0,-3.1,2.5,-3.1,4.1c0,1.6,1.2,4.2,2.5,4.2c1.3,0,3.5,-2.3,3.5,-4.2c0,-1.9,-.9,-4.1,-2.9,-4.1Z" class="g3_220"/>
<path d="M614.5,247.3c-5.7,0,-9.1,2.8,-9.1,10.5c0,7.6,4.8,12.4,8.1,12.4c3.4,0,7.2,-7.7,7.2,-12.4c0,-4.8,-2.9,-10.5,-6.2,-10.5Z" class="g5_220"/>
<path d="M614.5,247.3c-5.7,0,-9.1,2.8,-9.1,10.5c0,7.6,4.8,12.4,8.1,12.4c3.4,0,7.2,-7.7,7.2,-12.4c0,-4.8,-2.9,-10.5,-6.2,-10.5Z" class="g3_220"/>
<path d="M475.1,246c2.4,13.8,14.8,17.5,15.3,26.1c.4,8.6,5.7,23.4,15.7,22.9c10,-.5,23.4,-21.5,29.6,-29.6c6.2,-8.1,9.1,-12.2,9.1,-19.4Z" class="g4_220"/>
<path d="M475.1,246c2.4,13.8,14.8,17.5,15.3,26.1c.4,8.6,5.7,23.4,15.7,22.9c10,-.5,23.4,-21.5,29.6,-29.6c6.2,-8.1,9.1,-12.2,9.1,-19.4H475.1Z" class="g3_220"/>
<path d="M692.8,246c3.8,14.5,16.5,33.7,31.8,33.7c15.3,0,14.7,-21.6,27.4,-21.6c16.5,0,40,21,48.9,39.4V246Z" class="g4_220"/>
<path d="M692.8,246c3.8,14.5,16.5,33.7,31.8,33.7c15.3,0,14.7,-21.6,27.4,-21.6c16.5,0,40,21,48.9,39.4V246H692.8Z" class="g3_220"/>
<path d="M611.3,597.4H800.9V561.7C776.7,558.6,704.2,521,687.1,521c-17.2,0,-33.8,-10.2,-46.5,-10.2c-26.1,0,-29.3,42,-29.3,86.6Z" class="gb_220"/>
<path d="M611.3,597.4H800.9V561.7C776.7,558.6,704.2,521,687.1,521c-17.2,0,-33.8,-10.2,-46.5,-10.2c-26.1,0,-29.3,42,-29.3,86.6Z" class="g3_220"/>
<path d="M301.3,597.4H800.9V246H301.3V597.4ZM800.9,509.5H301.3m499.6,87.9H301.3V246H800.9Zm0,-175.7H301.3M800.9,333.8H301.3M426.2,246V597.4" class="gf_220"/>
<path d="M366,553.5c0,1.2,-1,2.3,-2.3,2.3c-1.2,0,-2.3,-1.1,-2.3,-2.3c0,-1.3,1.1,-2.3,2.3,-2.3c1.3,0,2.3,1,2.3,2.3Z" class="gg_220"/>
<path d="M366,553.5c0,1.2,-1,2.3,-2.3,2.3c-1.2,0,-2.3,-1.1,-2.3,-2.3c0,-1.3,1.1,-2.3,2.3,-2.3c1.3,0,2.3,1,2.3,2.3Z" class="gf_220"/>
<path d="M366,465.6c0,1.3,-1,2.3,-2.3,2.3c-1.2,0,-2.3,-1,-2.3,-2.3c0,-1.2,1.1,-2.3,2.3,-2.3c1.3,0,2.3,1.1,2.3,2.3Z" class="gg_220"/>
<path d="M366,465.6c0,1.3,-1,2.3,-2.3,2.3c-1.2,0,-2.3,-1,-2.3,-2.3c0,-1.2,1.1,-2.3,2.3,-2.3c1.3,0,2.3,1.1,2.3,2.3Z" class="gf_220"/>
<path d="M366,377.8c0,1.2,-1,2.3,-2.3,2.3c-1.2,0,-2.3,-1.1,-2.3,-2.3c0,-1.3,1.1,-2.3,2.3,-2.3c1.3,0,2.3,1,2.3,2.3Z" class="gg_220"/>
<path d="M366,377.8c0,1.2,-1,2.3,-2.3,2.3c-1.2,0,-2.3,-1.1,-2.3,-2.3c0,-1.3,1.1,-2.3,2.3,-2.3c1.3,0,2.3,1,2.3,2.3Z" class="gf_220"/>
<path d="M366,289.9c0,1.3,-1,2.3,-2.3,2.3c-1.2,0,-2.3,-1,-2.3,-2.3c0,-1.2,1.1,-2.3,2.3,-2.3c1.3,0,2.3,1.1,2.3,2.3Z" class="gg_220"/>
<path d="M366,289.9c0,1.3,-1,2.3,-2.3,2.3c-1.2,0,-2.3,-1,-2.3,-2.3c0,-1.2,1.1,-2.3,2.3,-2.3c1.3,0,2.3,1.1,2.3,2.3ZM551.1,246V597.4" class="gf_220"/>
<path d="M490.9,553.5c0,1.2,-1,2.3,-2.3,2.3c-1.2,0,-2.3,-1.1,-2.3,-2.3c0,-1.3,1.1,-2.3,2.3,-2.3c1.3,0,2.3,1,2.3,2.3Z" class="gg_220"/>
<path d="M490.9,553.5c0,1.2,-1,2.3,-2.3,2.3c-1.2,0,-2.3,-1.1,-2.3,-2.3c0,-1.3,1.1,-2.3,2.3,-2.3c1.3,0,2.3,1,2.3,2.3Z" class="gf_220"/>
<path d="M490.9,465.6c0,1.3,-1,2.3,-2.3,2.3c-1.2,0,-2.3,-1,-2.3,-2.3c0,-1.2,1.1,-2.3,2.3,-2.3c1.3,0,2.3,1.1,2.3,2.3Z" class="gg_220"/>
<path d="M490.9,465.6c0,1.3,-1,2.3,-2.3,2.3c-1.2,0,-2.3,-1,-2.3,-2.3c0,-1.2,1.1,-2.3,2.3,-2.3c1.3,0,2.3,1.1,2.3,2.3Z" class="gf_220"/>
<path d="M490.9,377.8c0,1.2,-1,2.3,-2.3,2.3c-1.2,0,-2.3,-1.1,-2.3,-2.3c0,-1.3,1.1,-2.3,2.3,-2.3c1.3,0,2.3,1,2.3,2.3Z" class="gg_220"/>
<path d="M490.9,377.8c0,1.2,-1,2.3,-2.3,2.3c-1.2,0,-2.3,-1.1,-2.3,-2.3c0,-1.3,1.1,-2.3,2.3,-2.3c1.3,0,2.3,1,2.3,2.3Z" class="gf_220"/>
<path d="M490.9,289.9c0,1.3,-1,2.3,-2.3,2.3c-1.2,0,-2.3,-1,-2.3,-2.3c0,-1.2,1.1,-2.3,2.3,-2.3c1.3,0,2.3,1.1,2.3,2.3Z" class="gg_220"/>
<path d="M490.9,289.9c0,1.3,-1,2.3,-2.3,2.3c-1.2,0,-2.3,-1,-2.3,-2.3c0,-1.2,1.1,-2.3,2.3,-2.3c1.3,0,2.3,1.1,2.3,2.3ZM676,246V597.4" class="gf_220"/>
<path d="M615.8,553.5c0,1.2,-1,2.3,-2.3,2.3c-1.2,0,-2.3,-1.1,-2.3,-2.3c0,-1.3,1.1,-2.3,2.3,-2.3c1.3,0,2.3,1,2.3,2.3Z" class="gg_220"/>
<path d="M615.8,553.5c0,1.2,-1,2.3,-2.3,2.3c-1.2,0,-2.3,-1.1,-2.3,-2.3c0,-1.3,1.1,-2.3,2.3,-2.3c1.3,0,2.3,1,2.3,2.3Z" class="gf_220"/>
<path d="M615.8,465.6c0,1.3,-1,2.3,-2.3,2.3c-1.2,0,-2.3,-1,-2.3,-2.3c0,-1.2,1.1,-2.3,2.3,-2.3c1.3,0,2.3,1.1,2.3,2.3Z" class="gg_220"/>
<path d="M615.8,465.6c0,1.3,-1,2.3,-2.3,2.3c-1.2,0,-2.3,-1,-2.3,-2.3c0,-1.2,1.1,-2.3,2.3,-2.3c1.3,0,2.3,1.1,2.3,2.3Z" class="gf_220"/>
<path d="M615.8,377.8c0,1.2,-1,2.3,-2.3,2.3c-1.2,0,-2.3,-1.1,-2.3,-2.3c0,-1.3,1.1,-2.3,2.3,-2.3c1.3,0,2.3,1,2.3,2.3Z" class="gg_220"/>
<path d="M615.8,377.8c0,1.2,-1,2.3,-2.3,2.3c-1.2,0,-2.3,-1.1,-2.3,-2.3c0,-1.3,1.1,-2.3,2.3,-2.3c1.3,0,2.3,1,2.3,2.3Z" class="gf_220"/>
<path d="M615.8,289.9c0,1.3,-1,2.3,-2.3,2.3c-1.2,0,-2.3,-1,-2.3,-2.3c0,-1.2,1.1,-2.3,2.3,-2.3c1.3,0,2.3,1.1,2.3,2.3Z" class="gg_220"/>
<path d="M615.8,289.9c0,1.3,-1,2.3,-2.3,2.3c-1.2,0,-2.3,-1,-2.3,-2.3c0,-1.2,1.1,-2.3,2.3,-2.3c1.3,0,2.3,1.1,2.3,2.3Z" class="gf_220"/>
<path d="M740.7,553.5c0,1.2,-1,2.3,-2.3,2.3c-1.2,0,-2.3,-1.1,-2.3,-2.3c0,-1.3,1.1,-2.3,2.3,-2.3c1.3,0,2.3,1,2.3,2.3Z" class="gg_220"/>
<path d="M740.7,553.5c0,1.2,-1,2.3,-2.3,2.3c-1.2,0,-2.3,-1.1,-2.3,-2.3c0,-1.3,1.1,-2.3,2.3,-2.3c1.3,0,2.3,1,2.3,2.3Z" class="gf_220"/>
<path d="M740.7,465.6c0,1.3,-1,2.3,-2.3,2.3c-1.2,0,-2.3,-1,-2.3,-2.3c0,-1.2,1.1,-2.3,2.3,-2.3c1.3,0,2.3,1.1,2.3,2.3Z" class="gg_220"/>
<path d="M740.7,465.6c0,1.3,-1,2.3,-2.3,2.3c-1.2,0,-2.3,-1,-2.3,-2.3c0,-1.2,1.1,-2.3,2.3,-2.3c1.3,0,2.3,1.1,2.3,2.3Z" class="gf_220"/>
<path d="M740.7,377.8c0,1.2,-1,2.3,-2.3,2.3c-1.2,0,-2.3,-1.1,-2.3,-2.3c0,-1.3,1.1,-2.3,2.3,-2.3c1.3,0,2.3,1,2.3,2.3Z" class="gg_220"/>
<path d="M740.7,377.8c0,1.2,-1,2.3,-2.3,2.3c-1.2,0,-2.3,-1.1,-2.3,-2.3c0,-1.3,1.1,-2.3,2.3,-2.3c1.3,0,2.3,1,2.3,2.3Z" class="gf_220"/>
<path d="M740.7,289.9c0,1.3,-1,2.3,-2.3,2.3c-1.2,0,-2.3,-1,-2.3,-2.3c0,-1.2,1.1,-2.3,2.3,-2.3c1.3,0,2.3,1.1,2.3,2.3Z" class="gg_220"/>
<path d="M740.7,289.9c0,1.3,-1,2.3,-2.3,2.3c-1.2,0,-2.3,-1,-2.3,-2.3c0,-1.2,1.1,-2.3,2.3,-2.3c1.3,0,2.3,1.1,2.3,2.3Z" class="gf_220"/>
<path d="M301.3,625.7V225.4" class="gh_220"/>
<path fill-rule="evenodd" d="M301.3,225.4l-2.5,1.6l2.5,-6.5l2.4,6.5Z" class="gg_220"/>
<path d="M280.5,597.4H818.6" class="gh_220"/>
<path clip-path="url(#c0_220)" fill-rule="evenodd" d="M818.6,597.4L817,594.9l6.5,2.5l-6.5,2.4Z" class="gg_220"/>
<path d="M506.4,716.1h6m10.9,0H530" class="gi_220"/>
<path d="M513.6,899.7h78.3" class="gj_220"/>
</svg>