<?xml version="1.0" encoding="UTF-8" standalone="no"?>
<!DOCTYPE svg PUBLIC "-//W3C//DTD SVG 1.1//EN"
"http://www.w3.org/Graphics/SVG/1.1/DTD/svg11.dtd">
<svg viewBox="0 0 907 1045" version="1.1" xmlns="http://www.w3.org/2000/svg" xmlns:xlink="http://www.w3.org/1999/xlink">
<defs>
<clipPath id="c0_435"><path d="M111,562.9V275H226.7V562.9Z"/></clipPath>
<clipPath id="c1_435"><path d="M-2.6,1047.7V-2.6H910.2V1047.7Z"/></clipPath>
<style type="text/css"><![CDATA[
.g0_435{
fill: #FFFFFF;
}
.g1_435{
fill: none;
stroke: #000000;
stroke-width: 1.527;
stroke-linecap: butt;
stroke-linejoin: miter;
stroke-miterlimit: 4;
}
.g2_435{
fill: none;
stroke: #3D3D3D;
stroke-width: 1.196;
stroke-linecap: butt;
stroke-linejoin: miter;
stroke-miterlimit: 4;
}
.g3_435{
fill: none;
stroke: #404040;
stroke-width: 1.196;
stroke-linecap: butt;
stroke-linejoin: miter;
stroke-miterlimit: 4;
}
.g4_435{
fill: none;
stroke: #FFFFFF;
stroke-width: 1.909;
stroke-linecap: butt;
stroke-linejoin: miter;
}
.g5_435{
fill: none;
stroke: #000000;
stroke-width: 0.381;
stroke-linecap: butt;
stroke-linejoin: miter;
}
]]></style>
</defs>
<image clip-path="url(#c0_435)" preserveAspectRatio="none" x="111" y="275" width="116" height="288" xlink:href="img/1.jpg"/>
<path d="M297.3,253.4c-3.8,1.1,-7.3,3.1,-10.8,4.2c-3.7,1.1,-5.9,.9,-9.6,3.7c-2.9,2.1,-3.4,3.8,-7.2,4.7c-1.1,5.1,-.5,9,2.9,13.3c2,2.6,9.3,9.5,13.3,9.7c-4.9,6.9,-10.9,13.5,-6.2,21.8c1.9,3.5,8.1,11.6,12.6,13.5c4.2,1.7,10.8,0,15.4,.6c.6,3.2,-.8,6.7,.4,9.8c2,4.9,8.4,10.4,12.6,14.2c9.5,8.3,33.8,22.9,47,13.3c5.2,9.6,17.7,18,30.4,21.8c8.5,2.5,25.9,4.3,34.4,1.7c5.4,-1.7,10.3,-8.3,15.8,-9.1c2.5,-.3,11.4,4.1,14,4.5c12.1,1.9,27.4,1.8,39.4,-.2c17.5,-2.9,26.2,-13.8,31.3,-26c4,6.5,25.7,1.2,31.4,-1.1c11.3,-4.6,23,-11.5,27.5,-21.3c3.2,-7.1,-6.3,-14.3,-3.8,-20c1.1,-2.6,4.8,-4.2,6.6,-6.5c10.3,-12.8,5.9,-25.2,-3.3,-37.2c-9.8,-12.6,-22.5,-20.9,-41,-25.2c-4.7,-1.1,-9.1,-1.7,-14.1,-1.5c-2.7,.1,-3.9,1.3,-6.7,.8c13.9,-13.9,-35,-26.2,-43.7,-27.4c-21.9,-2.9,-47.5,.2,-68,6.1c-9.8,2.8,-19.3,7,-28.6,9.9c1.8,-15.1,-34.4,-10.3,-44,-8.1c-11.4,2.7,-25.7,8.2,-32.6,15.8c-4.2,4.8,-11.7,9.5,-15.4,14.4Z" class="g0_435"/>
<path d="M297.3,253.4c-3.8,1.1,-7.3,3.1,-10.8,4.2c-3.7,1.1,-5.9,.9,-9.6,3.7c-2.9,2.1,-3.4,3.8,-7.2,4.7c-1.1,5.1,-.5,9,2.9,13.3c2,2.6,9.3,9.5,13.3,9.7c-4.9,6.9,-10.9,13.5,-6.2,21.8c1.9,3.5,8.1,11.6,12.6,13.5c4.2,1.7,10.8,0,15.4,.6c.6,3.2,-.8,6.7,.4,9.8c2,4.9,8.4,10.4,12.6,14.2c9.5,8.3,33.8,22.9,47,13.3c5.2,9.6,17.7,18,30.4,21.8c8.5,2.5,25.9,4.3,34.4,1.7c5.4,-1.7,10.3,-8.3,15.8,-9.1c2.5,-.3,11.4,4.1,14,4.5c12.1,1.9,27.4,1.8,39.4,-.2c17.5,-2.9,26.2,-13.8,31.3,-26c4,6.5,25.7,1.2,31.4,-1.1c11.3,-4.6,23,-11.5,27.5,-21.3c3.2,-7.1,-6.3,-14.3,-3.8,-20c1.1,-2.6,4.8,-4.2,6.6,-6.5c10.3,-12.8,5.9,-25.2,-3.3,-37.2c-9.8,-12.6,-22.5,-20.9,-41,-25.2c-4.7,-1.1,-9.1,-1.7,-14.1,-1.5c-2.7,.1,-3.9,1.3,-6.7,.8c13.9,-13.9,-35,-26.2,-43.7,-27.4c-21.9,-2.9,-47.5,.2,-68,6.1c-9.8,2.8,-19.3,7,-28.6,9.9c1.8,-15.1,-34.4,-10.3,-44,-8.1c-11.4,2.7,-25.7,8.2,-32.6,15.8c-4.2,4.8,-11.7,9.5,-15.4,14.4" class="g1_435"/>
<path d="M251.3,264.4c-6.6,-.9,-13.1,8.2,-5.3,9.9c6.2,1.3,7.4,-6.8,6.5,-11.1c-3.2,-1.1,-5.9,.8,-8.2,2.6" class="g2_435"/>
<path d="M233.4,269.2c-.4,-.1,-.7,-.3,-1,-.4c-.2,0,-.4,-.1,-.6,-.1c-.3,-.1,-.5,.1,-.8,.2c-1,.5,-2.2,1.2,-2.2,2.5c-.1,.8,.3,1.4,.9,1.8c.8,.6,1.6,.7,2.6,.5c.4,-.1,.7,-.2,1.1,-.3c.1,-.1,.3,-.1,.5,-.1c.2,-.1,.4,-.3,.7,-.5c.4,-.3,.7,-.9,.7,-1.5c.2,-1.1,-.9,-2.1,-1.9,-2.4" class="g3_435"/>
<g clip-path="url(#c1_435)">
<path d="M-4.5,13.7H-27.4m939.5,0H935M-4.5,1031.2H-27.4m939.5,0H935M13.7,-4.5V-27.4m0,1077v22.9m880,-1077V-27.4m0,1077v22.9" class="g4_435"/>
<path d="M-4.5,13.7H-27.4m939.5,0H935M-4.5,1031.2H-27.4m939.5,0H935M13.7,-4.5V-27.4m0,1077v22.9m880,-1077V-27.4m0,1077v22.9" class="g5_435"/>
</g>
</svg>