<?xml version="1.0" encoding="UTF-8" standalone="no"?>
<!DOCTYPE svg PUBLIC "-//W3C//DTD SVG 1.1//EN"
"http://www.w3.org/Graphics/SVG/1.1/DTD/svg11.dtd">
<svg viewBox="0 0 931 1096" version="1.1" xmlns="http://www.w3.org/2000/svg" xmlns:xlink="http://www.w3.org/1999/xlink">
<defs>
<clipPath id="c0_117"><path d="M128.5,581.2c-5.1,0,-9.2,-4.1,-9.2,-9.1V480.2c0,-5,4.1,-9,9.2,-9H278.2c5.1,0,9.2,4,9.2,9v91.9c0,5,-4.1,9.1,-9.2,9.1Z"/></clipPath>
<style type="text/css"><![CDATA[
.g0_117{
fill: none;
stroke: #241F1F;
stroke-width: 0.763;
stroke-miterlimit: 10;
}
.g1_117{
fill: #D0007A;
}
.g2_117{
fill: none;
stroke: #00AEEF;
stroke-width: 1.145;
}
.g3_117{
fill: none;
stroke: #EE008C;
stroke-width: 0.916;
stroke-miterlimit: 3;
}
.g4_117{
fill: none;
stroke: #72D0F6;
stroke-width: 0.534;
stroke-miterlimit: 3;
}
.g5_117{
fill: none;
stroke: #00AEEF;
stroke-width: 0.763;
}
]]></style>
</defs>
<path d="M531.9,234.1h26.6m41,0h19.7m-80.4,64.2h26.6m41,0h19.7" class="g0_117"/>
<path d="M343.8,645.5c0,0,-1.6,0,-1.6,1.5v9.2c0,0,0,1.5,1.6,1.5h9.1c0,0,1.6,0,1.6,-1.5V647c0,0,0,-1.5,-1.6,-1.5Z" class="g1_117"/>
<path d="M441.1,744.4h26.6m82.1,51.9h19.7" class="g0_117"/>
<path d="M362.7,923.3c0,0,-1.6,0,-1.6,1.6V939c0,0,0,1.5,1.6,1.5h14.1c0,0,1.5,0,1.5,-1.5V924.9c0,0,0,-1.6,-1.5,-1.6H362.7Z" class="g2_117"/>
<path d="M536.4,932.3H563m32.5,0h19.7" class="g0_117"/>
<path clip-path="url(#c0_117)" d="M284,580l3.4,.4m-7,-.4H284m-7,0h3.4m-7.1,0H277m-7,-.3l3.3,.3m-6.9,-.3H270m-7,0h3.4m-7.1,-.3l3.7,.3m-7,-.3h3.3m-7,-.4l3.7,.4m-7.3,-.7l3.6,.3m-7,-.3h3.4m-7,-.3l3.6,.3m-7,-.7l3.4,.4m-7,-.7l3.6,.3m-7,-.6l3.4,.3m-7,-1l3.6,.7m-7,-1l3.4,.3m-7.1,-1l3.7,.7m-7,-1.3l3.3,.6m-7,-1.3l3.7,.7M210,573.4l3.6,1m-7,-2l3.4,1m-6.7,-2l3.3,1m-7,-2l3.7,1M196,568.8l3.6,1.6m-7,-2.9l3.4,1.3m-7,-3.3l3.6,2m-7,-4l3.4,2m-7.1,-4.3l3.7,2.3m-7,-4.6l3.3,2.3m-7,-5.3l3.7,3m-7,-6l3.3,3m-7,-7.3l3.7,4.3m-7,-7.9l3.3,3.6m-7,-8.2l3.7,4.6m-7,-9.9l3.3,5.3m-7,-11.2l3.7,5.9m-7,-11.6l3.3,5.7m-7,-12.6l3.7,6.9m-7.4,-13.8l3.7,6.9m-7,-13.5l3.3,6.6m-5.3,-9.6l2,3m-3.7,-5.7l1.7,2.7m-3.3,-4.6l1.6,1.9m-3.3,-2.9l1.7,1m-2.7,-1.4l1,.4m-1.7,-.4h.7m-1.7,.7l1,-.7m-2,1.4l1,-.7m-1.6,2.3l.6,-1.6m-1.6,3.6l1,-2m-2,5l1,-3m-1.4,4.6l.4,-1.6m-.7,3.6l.3,-2m-1.3,6.6l1,-4.6m-1.3,7.3l.3,-2.7m-1,5.6l.7,-2.9m-1,6.6l.3,-3.7m-1,7.3l.7,-3.6m-1,7.6l.3,-4m-.7,8.6l.4,-4.6M121.2,541l1,-9.2m-1.6,20.5l.6,-11.3m-1.6,24.5l1,-13.2m-1.7,28.4l.7,-15.2" class="g3_117"/>
<path d="M128.5,471.2H278.2c5.1,0,9.2,4,9.2,9v91.9c0,5,-4.1,9.1,-9.2,9.1H128.5c-5.1,0,-9.2,-4.1,-9.2,-9.1V480.2c0,-5,4.1,-9,9.2,-9Z" class="g4_117"/>
<path d="M479.5,898.8c0,0,-3,0,-3,3.1v60c0,0,0,3.1,3,3.1H740.3c0,0,3.1,0,3.1,-3.1v-60c0,0,0,-3.1,-3.1,-3.1H479.5Z" class="g5_117"/>
</svg>