<?xml version="1.0" encoding="UTF-8" standalone="no"?>
<!DOCTYPE svg PUBLIC "-//W3C//DTD SVG 1.1//EN"
"http://www.w3.org/Graphics/SVG/1.1/DTD/svg11.dtd">
<svg viewBox="0 0 907 1045" version="1.1" xmlns="http://www.w3.org/2000/svg" xmlns:xlink="http://www.w3.org/1999/xlink">
<defs>
<clipPath id="c0_237"><path d="M674.8,369.3L634.6,223.1L613.3,145.7l79.5,-21.9L742.9,110l61.5,223.6L674.8,369.3Z"/></clipPath>
<clipPath id="c1_237"><path d="M684.3,746.9V537.5h85.2V746.9Z"/></clipPath>
<clipPath id="c2_237"><path d="M542.1,951.7V769h83.4V951.7Z"/></clipPath>
<clipPath id="c3_237"><path d="M657.3,389l-42.2,-7.2v-270h209V389Z"/></clipPath>
<clipPath id="c4_237"><path d="M615.1,389v-7.2l42.2,7.2Z"/></clipPath>
<clipPath id="c5_237"><path d="M791.5,421.9v0v-.1v.1Zm0,-.1v0Zm-9.7,.9c.1,0,.3,0,.4,-.1c0,0,.3,0,.4,-.4V422c0,0,0,-.1,0,-.2v-.2c0,0,-.1,-.3,-.3,-.4h-.1c0,0,-.3,0,-1.1,.5c0,0,0,.1,-.1,.3c0,0,-.1,.1,-.1,.2c0,0,-.1,.2,.1,.3c0,0,.3,.2,.6,.2c0,0,.1,0,.2,0Zm6.3,.9c.1,0,.2,0,.3,0c0,0,.1,-.1,.3,-.1c0,0,.1,0,.1,0l.1,.1c0,0,1,-1,1.2,-2.2v-.1c0,0,-.1,-.9,-.8,-1.1h-.1c-.2,0,-1.2,.2,-1.5,2.4c0,0,0,.2,-.1,.7c0,0,.1,.2,.3,.3c0,0,.1,0,.1,0h.1Zm-8.9,-3.8v0Zm17.1,11.7q-.1,0,-.2,0c0,0,-.2,-.1,-.4,-.2c0,0,-.1,-.1,-.2,-.3c0,0,0,-.3,-.1,-.4c0,0,.8,-1.8,2.5,-5.5c0,0,-.1,-.2,-1.5,-2.4c0,0,-.8,-1.5,-.9,-2.6c0,0,0,-.1,0,-.4c0,0,-.1,-.3,-.1,-.4c0,0,.2,-.1,.6,-.1c.1,0,.2,0,.3,0c0,0,.4,.1,.6,.7c0,0,0,.1,.2,.9c0,0,.1,.6,.3,.9c0,0,.2,.2,.5,.8c0,0,.3,.7,.7,.9l.2,-.2l1.5,-3c0,0,.2,-.3,.5,-.3c0,0,0,.1,0,.1c0,0,.3,0,.5,.3c0,0,.2,.3,.2,.5l-.1,.1c0,0,-.5,1.5,-2.3,5.1c0,0,-1.7,3.2,-2.2,5.1c0,0,-.2,.4,-.6,.4Zm-20.5,-10c.1,0,.2,0,.3,0c0,0,.2,-.1,.3,-.1c0,0,.1,0,.1,0c0,0,0,.1,.1,.1c0,0,1,-1,1.2,-2.2v-.1c0,0,-.1,-.9,-.8,-1.1c-.3,0,-1.3,.2,-1.6,2.4c0,0,0,.2,-.1,.7c0,0,.1,.2,.3,.3q.1,0,.1,0h.1Zm-6,-1.3c.1,0,.4,0,1.1,-.3c0,0,.8,-.6,.9,-1.2c0,0,0,-.1,0,-.3c0,0,-.2,-.8,-.8,-.9h-.2c0,0,-1.3,.2,-1.7,1.1c0,0,-.2,.1,-.2,.3c0,0,-.1,.5,.2,.7c0,0,.2,.5,.6,.6c0,0,.1,0,.1,0Zm-19.9,-2.7v0Zm31.4,6.6c-.1,0,-.2,0,-.3,0c0,0,-.5,-.1,-.8,-.4c0,0,-.5,-.2,-.7,-.8c0,0,-.3,-.5,-.2,-1.1c0,0,.2,-.9,1,-1.4c0,0,.9,-.6,1.7,-.6c.1,0,.2,0,.3,0h.1c0,0,.1,0,.4,.2c0,0,.2,.3,.4,.3h.1q.1,0,.1,0c0,0,.2,-.3,.3,-.6c0,0,.1,-.6,0,-1.1c0,0,-.2,-.7,-.6,-.7H783c-.1,0,-.3,0,-.6,.1c0,0,-.4,.1,-.7,.1c0,0,-.3,0,-.4,-.6c0,0,.1,-.5,.6,-.7c0,0,.2,-.1,.9,-.3c0,0,1.7,.3,1.9,1.3c0,0,.5,1.7,.1,3.9c0,0,-.2,1.1,-.5,2c0,0,-.3,.3,-.7,.3c-.1,0,-.2,0,-.2,0c0,0,-.3,0,-.5,-.2c0,0,-1,.3,-1.6,.3ZM770,421.8c-.1,0,-.2,0,-.3,-.1c0,0,-.6,-.1,-1,-.4c0,0,-.1,-.2,-.7,-.7c0,0,-.5,-.4,-.6,-.8c0,0,0,-.8,.1,-1.3c0,0,.1,-.7,.4,-1.1c0,0,.7,-.4,1.4,-.9c0,0,.7,-.4,1.4,-.4c0,0,.1,0,.1,0c0,0,.1,0,.2,0c0,0,.1,0,.2,0c0,0,.9,.1,1.5,1.1c0,0,.6,.9,.5,1.8c0,0,-.1,.3,-.2,.6l.1,-.1c0,0,-.6,1.1,-2.1,2.1c0,0,-.5,.2,-1,.2ZM740.3,415v0ZM793,426c0,0,-.1,0,-.1,-.1c0,0,-.5,-.1,-.8,-.7c0,0,.1,-.5,.3,-1.5c0,0,.1,-.7,.3,-2.1c0,0,.3,-1.4,.4,-2.1c0,0,.4,-2.6,.6,-4.4V415c0,0,.1,-.4,.3,-.5h.1c0,0,.6,.1,.9,.9c0,0,0,1.3,-.3,2.9c0,0,-.1,.7,-.4,2.1c0,0,-.3,1.4,-.4,2.1c0,0,-.3,1.6,-.3,2.8c0,0,-.1,.2,-.2,.3c0,0,-.2,.2,-.4,.4Zm-35.3,-9.2v0c0,0,.3,0,.7,-.1c0,0,.4,-.1,.7,-.3c0,0,.2,-.3,.6,-.6c0,0,.3,-.4,.3,-.7l.1,-.2H760c0,0,-.1,-.4,-.7,-.5c0,0,-.1,-.1,-.4,-.1c0,0,-.3,0,-.4,0l-.3,-.1c0,0,-.5,.2,-.6,.8c0,0,0,.2,.1,.9c0,0,0,.7,0,.9Zm5.1,3.7c0,0,-.2,-.1,-.3,-.2c0,0,-.5,-1.2,-.6,-2.8c0,0,-.1,-.8,0,-3v-.2c0,0,.1,-.4,.4,-.4c0,0,.1,0,.2,0c0,0,.1,0,.1,0c0,0,.3,.1,.5,.5c0,0,.1,.3,.2,.7c0,0,0,.1,0,.2l-.1,.2c0,0,0,.1,0,.2c0,0,-.1,.3,.1,.5c0,0,1,-.5,1.1,-.6c0,0,.7,-.3,1.2,-.3c0,0,.2,0,.3,0c0,0,1.1,.2,1.3,.9v.2c0,0,-.1,.7,-.6,.8c0,0,-.5,-.5,-.9,-.5c0,0,-.1,0,-.2,0c-.1,0,-.2,0,-.2,0c0,0,-1,.2,-1.3,1.4c0,0,-.3,1.1,-.5,2.1c0,0,-.1,0,-.3,.2c0,0,-.3,.1,-.4,.1Zm25.7,4.6c0,0,-.3,-.1,-.6,-.1c0,0,-1.7,-.3,-2.1,-1.4c0,0,.1,-1.5,.6,-4.8c0,0,.5,-3.3,.6,-4.9v-.1c0,0,.1,-.5,.5,-.5q.1,0,.1,0c0,0,.7,.1,.8,.6c0,0,.2,1,.1,1.6c0,0,-.1,.3,-.3,.6c0,0,0,.5,-.1,1.3l-.1,.4c0,0,-.1,.8,-.1,1.3c.1,0,.3,0,.7,-.2c0,0,.5,-.1,.7,-.1c0,0,1.7,.2,2.1,1.7c0,0,.2,.6,.1,1.3c0,.1,-.3,1.3,-1.1,2.2c0,0,-.7,.5,-.9,.7c0,0,-.5,.3,-1,.4Zm-42.7,-8.4c.1,0,.3,0,.4,-.1c0,0,1.8,-1,2.1,-2.4c0,0,0,-.3,0,-.7c0,0,-.2,-.5,-.7,-.6c0,0,-.1,0,-.2,0c-.2,0,-.6,.1,-.9,.4c0,0,-.8,.6,-1,1.8c0,0,-.1,.7,0,1.5c0,0,0,.1,.2,.1h.1Zm10.9,7c0,0,-1,-.3,-.8,-1.6c0,0,0,-.2,.1,-.6c0,0,.1,-.4,.1,-.6c0,0,.1,-.5,.1,-.8c0,0,.2,-1.4,-.1,-2.9c0,0,.1,-.3,.1,-.4c0,0,.1,-.6,0,-1.7c0,0,-.1,-1.1,0,-1.7c0,0,.1,-.4,.2,-.7c0,0,.1,-.2,.2,-.2c0,0,.2,-.1,.3,-.1c0,0,.2,0,.6,.4c0,0,.3,.2,.5,.3h.1c.1,0,.2,0,.3,-.1c0,0,.2,0,.3,0c.2,0,.4,0,.5,0c0,0,1.4,.3,2,1.5h.1c0,0,.2,.4,.1,.9c0,0,-.1,.6,-1.1,1.8c0,0,-.6,.3,-1.2,.7c0,0,-.5,.3,-1,.3c-.1,0,-.2,0,-.2,0l-.1,-.1c0,0,-.3,.1,-.3,.4c0,0,0,.1,0,.4c0,0,0,.2,0,.4l-.3,3.7c0,0,-.1,.3,-.5,.7Zm19.5,-.7c0,0,-.3,-.1,-.6,-.1c0,0,-1.7,-.3,-2.1,-1.4c0,0,.1,-1.5,.6,-4.8c0,0,.5,-3.2,.6,-4.9v-.1c0,0,.1,-.5,.5,-.5q.1,0,.1,0c0,0,.7,.1,.8,.6c0,0,.2,1,.1,1.6c0,0,-.1,.3,-.3,.6c0,0,.1,.5,-.1,1.3l-.1,.4c0,0,-.1,.8,0,1.3c0,0,.2,0,.6,-.2c0,0,.5,-.1,.7,-.1c0,0,1.7,.2,2.1,1.7c0,0,.2,.6,.1,1.3v.1v-.1c0,.1,-.3,1.3,-1.1,2.2c0,0,-.7,.5,-.9,.7c0,0,-.5,.3,-1,.4Zm-44.6,-9.3c.1,0,.4,-.1,1.1,-.3c0,0,.8,-.6,.9,-1.2c0,0,0,-.1,0,-.3c0,0,-.2,-.8,-.7,-.9c0,0,-.1,0,-.1,0q-.1,0,-.2,0c0,0,-1.3,.2,-1.7,1.1c0,0,-.1,.1,-.2,.3c0,0,-.1,.4,.2,.7c0,0,.2,.5,.7,.6Zm5.6,2q-.1,0,-.2,0h-.1c0,0,-.4,-.1,-.7,-.6c0,0,-.3,-.4,-.6,-.8c0,0,-.2,-1.2,.1,-2.9c0,0,.1,-.7,.3,-1.6c0,0,.2,-.1,.4,-.1q.1,0,.1,0c0,0,.3,0,.5,.1l.3,.6l-.5,2.9c0,0,.1,.1,.1,.4c0,0,0,.3,.2,.3q.1,0,.1,0c0,0,.8,-.8,1.7,-2.7c0,0,.2,-.3,.5,-.3q.1,0,.1,0c0,0,.2,.1,.3,.2c0,0,.4,.5,.2,1.9c0,0,-.2,1.3,.3,1.9c0,.1,-.2,.6,-.6,.6c0,0,-.3,-.1,-.9,-1c0,0,-.2,.1,-.8,.6c0,0,-.4,.4,-.8,.5Zm-5.4,-.5c-.1,0,-.2,0,-.3,0c0,0,-.5,-.1,-1,-.4c0,0,-.1,-.2,-.7,-.7c0,0,-.5,-.4,-.6,-.9c0,0,0,-.7,.1,-1.2c0,0,.1,-.7,.4,-1.1c0,0,.7,-.5,1.4,-.9c0,0,.7,-.5,1.4,-.5c0,0,.1,.1,.1,.1c0,0,.1,0,.2,0c.1,0,.2,0,.3,0c0,0,.8,.1,1.4,1.1c0,0,.7,.9,.5,1.8c0,0,0,.3,-.2,.5h.1c0,0,-.6,1.1,-2.1,2.1c0,0,-.4,.1,-1,.1Zm17.1,3c0,0,-.3,-.1,-.5,-.5c0,0,-.2,-.3,-.2,-.6c0,0,-1.1,1,-2.5,1c-.1,0,-.3,0,-.5,0c0,0,-.1,-.1,-.4,-.1c0,0,-1.3,-.8,-1,-2.8v-.1c0,0,.3,-1.3,1.2,-2.4c0,0,.9,-1,2.2,-1.4c0,0,.1,0,.3,0q.1,0,.1,0c0,0,.1,0,.4,.1c0,0,.3,.1,.4,.1c0,0,.1,0,.2,0l.7,-3.5c0,0,.2,-.2,.6,-.2c0,0,.5,.1,.8,.7c0,0,-.1,.5,-.3,1.4c0,0,-.5,3.2,-.8,6.3v.1c0,0,0,.2,.1,.6c0,0,.2,.5,.1,.6q.1,0,.1,0h-.1c0,.1,0,.3,-.3,.5c0,0,-.1,0,-.3,.1c0,0,-.2,.1,-.3,.1Zm-22,-3.9h-.1c0,0,-.6,-.1,-1,-1.1c0,0,-.1,-.1,-.6,-1.5c0,0,-.2,.2,-.5,1.1c0,0,-.3,.9,-.7,1.1c0,0,-.6,-.1,-.9,-.9c0,0,-.2,-.7,-.4,-1.5c0,0,0,-.4,-.5,-1.8c0,0,-.4,-1.3,-.3,-1.9c0,0,.2,-.2,.5,-.2c0,0,.1,0,.1,0c0,0,.8,.1,.9,.9c0,0,.1,.6,.2,1.2c0,0,.2,.8,.3,1.1c0,0,.2,-.1,.6,-1.2c0,0,.4,-.8,.9,-.9c0,0,.4,.2,.6,.6c0,0,.2,.4,.3,1.6c0,0,0,1,.4,1.4l.3,-.1c0,0,0,-.1,.5,-1.8c0,0,.4,-1.1,.8,-1.5l.3,.1c0,0,.7,.1,.6,.6c0,0,-.5,1.4,-1.4,3.8c0,0,-.3,.9,-.9,.9Zm-10.8,-7.2v0Zm0,0v0Zm-4.5,-.8v0ZM714.3,411.8c-.2,0,-.3,0,-.5,0c0,0,-.7,-.1,-1.6,-.6c0,0,-.1,-.1,-.3,-.4c0,0,-.2,-.3,-.2,-.4c0,0,0,-.1,.1,-.2c0,0,.2,-.1,.5,-.1q.1,0,.2,0c0,0,.2,0,.6,.2c0,0,.5,.3,.7,.3h.1c.1,0,.4,0,.7,-.4c0,0,-.5,-.5,-1.4,-1.6c0,0,-.6,-.8,-.6,-1.6c0,0,.5,-1,2.3,-1c.1,0,.2,0,.4,0c0,0,.7,.2,.8,.6c0,0,0,.5,0,.5c0,0,0,.3,-.3,.4c0,0,-.1,.1,-.3,.1h-.1c0,0,-.2,0,-.4,-.2c0,0,-.3,-.1,-.4,-.1c-.1,0,-.4,.1,-.5,.7c0,0,.6,.5,1.2,1.1c0,0,.6,.7,.7,1.4c0,0,-.3,.9,-.8,1.2c0,0,-.4,.1,-.9,.1Zm27.5,5.4c0,0,-.1,0,-.1,0c0,0,-.5,-.1,-.8,-.8c0,0,0,-.5,.2,-1.4c0,0,.1,-.7,.4,-2.1c0,0,.2,-1.4,.3,-2.2c0,0,.5,-2.5,.6,-4.3v-.1c0,0,.1,-.5,.4,-.5c0,0,.6,.1,1,.9c0,0,-.1,1.2,-.3,2.8c0,0,-.2,.7,-.4,2.1c0,0,-.3,1.4,-.5,2.2c0,0,-.2,1.6,-.3,2.8c0,0,.1,-.1,.1,-.1l-.1,.1c0,0,0,.1,-.2,.3c0,0,-.2,.2,-.3,.3Zm-32.1,-6.1c-.1,0,-.2,-.1,-.4,-.1c0,0,-.7,-.1,-1.7,-.6c0,0,0,-.1,-.2,-.4c0,0,-.2,-.2,-.2,-.4c0,0,0,-.1,.1,-.2c0,0,.2,-.1,.5,-.1c0,0,.1,0,.1,0c0,0,.3,0,.7,.3c0,0,.5,.2,.7,.2c0,0,0,.1,.1,.1c.1,0,.4,-.1,.6,-.5c0,0,-.5,-.5,-1.4,-1.5c0,0,-.5,-.9,-.5,-1.6c0,0,.5,-1.1,2.2,-1.1c.2,0,.3,0,.5,0c0,0,.7,.2,.8,.6c0,0,0,.5,0,.5c0,0,-.1,.3,-.3,.5c0,0,-.1,0,-.3,0c0,0,-.1,0,-.1,0c0,0,-.2,0,-.4,-.1c0,0,-.3,-.1,-.4,-.2c-.1,0,-.4,.1,-.5,.7c0,0,.6,.6,1.2,1.1c0,0,.6,.7,.7,1.4v.1c0,0,-.3,.8,-.9,1.1c0,0,-.3,.2,-.9,.2Zm-27.2,-5.3c.2,0,.3,0,.5,-.1c0,0,.3,-.1,.4,-.4c0,0,0,-.1,0,-.2c0,0,0,-.2,0,-.3v-.1c0,0,-.1,-.4,-.4,-.4c0,0,-.3,0,-1.1,.5c0,0,0,.1,-.1,.2c0,0,-.1,.2,-.2,.3c0,0,0,.2,.2,.3c0,0,.3,.1,.6,.2h.1Zm22.3,5.3c-.1,0,-.2,-.1,-.2,-.1c0,0,-.4,0,-.9,-.3c0,0,-.4,-.2,-.9,-.4c0,0,-1,-.9,-.7,-2.7c0,0,.1,-.6,.3,-1.2c0,0,.2,-.4,1.2,-1.3c0,0,.9,-.9,1.8,-.9c.1,0,.2,.1,.3,.1c0,0,.5,.1,.9,.4c0,0,.6,.4,.7,1l-.1,.2c0,0,-.1,.8,-.7,1.2c0,0,-.4,.2,-1.4,.3c0,0,-1.1,.2,-1.4,.4c0,0,-.1,.3,-.1,.4c0,0,-.2,.9,.4,1.3l.4,.1c0,0,.2,.1,.3,.1h.1c.1,0,.2,0,.5,-.1c0,0,.3,-.1,.5,-.1q.1,0,.2,0c0,0,.3,0,.5,.5v.2c0,0,0,.3,-.5,.5c0,0,-.3,.2,-.7,.3c0,0,-.2,.1,-.5,.1ZM689.7,403v0Zm7.6,6.3c0,0,-.2,0,-.3,-.2c0,0,-.5,-1.2,-.6,-2.8c0,0,0,-.8,0,-3l.1,-.1c0,0,0,-.4,.3,-.5c0,0,.1,0,.2,0c0,0,.1,0,.1,0c0,0,.4,.1,.5,.5c0,0,.1,.4,.2,.7c0,0,0,.1,0,.2c0,0,0,.1,0,.2c0,0,-.1,.1,-.1,.2c0,0,0,.3,.1,.5c0,0,1,-.5,1.1,-.6c0,0,.7,-.2,1.2,-.3c0,0,.2,.1,.4,.1c0,0,1,.2,1.3,.9l-.1,.2c0,0,-.1,.6,-.6,.7c0,0,-.4,-.4,-.8,-.5c0,0,-.1,0,-.1,0c0,0,-.1,0,-.2,0q-.1,0,-.2,0c0,0,-1,.2,-1.3,1.4c0,0,-.3,1.1,-.5,2.1c0,0,-.1,.1,-.3,.2c0,0,-.2,.1,-.4,.1Zm-9.9,-1.9h-.1c0,0,-.1,0,-.2,-.1l-.4,-.5l.6,-4.6c0,0,.2,-.4,.6,-.4c.1,0,.1,.1,.2,.1c0,0,.4,0,.5,.3c0,0,.2,.8,-.1,2.2c0,0,0,.2,0,.6c0,0,-.1,.4,-.2,.5c0,0,-.1,.9,-.1,1.4c0,0,-.4,.5,-.8,.5Zm-23.5,-4.8c.1,0,.3,0,.4,-.1c0,0,.3,0,.4,-.4v-.2c0,0,0,-.2,0,-.2l.1,-.2c0,0,-.1,-.3,-.4,-.4c-.1,0,-.4,0,-1.1,.5c0,0,0,.1,-.2,.3c0,0,-.1,.1,-.1,.2c0,0,0,.2,.1,.3c0,0,.3,.2,.6,.2c0,0,.1,0,.2,0Zm18.2,4.6c-.1,0,-.2,0,-.3,0c0,0,-.5,-.1,-.8,-.5c0,0,-.5,-.2,-.7,-.7c0,0,-.3,-.5,-.2,-1.1c0,0,.2,-.9,.9,-1.4c0,0,.9,-.7,1.8,-.7c.1,0,.2,.1,.3,.1h.1c0,0,.1,0,.4,.2c0,0,.2,.2,.4,.3h.1c0,0,.1,0,.1,0c0,0,.2,-.3,.2,-.6c0,0,.1,-.6,0,-1.1c0,0,-.1,-.7,-.5,-.8c0,0,-.1,0,-.1,0c-.1,0,-.3,0,-.7,.2c0,0,-.4,.1,-.6,.1c0,0,-.3,-.1,-.4,-.6c0,0,.1,-.5,.6,-.8c0,0,.2,-.1,.9,-.3c0,0,1.7,.4,1.9,1.3c0,0,.5,1.8,.1,4c0,0,-.2,1,-.5,2c0,0,-.3,.3,-.8,.3c0,0,-.1,0,-.1,0c0,0,-.3,-.1,-.5,-.2c0,0,-1,.3,-1.6,.3Zm-4,-1.2h-.2c0,0,-.5,-.1,-1,-1.1c0,0,0,-.1,-.5,-1.5c0,0,-.3,.1,-.6,1.1c0,0,-.3,.9,-.6,1.1c0,0,-.7,-.1,-.9,-.9c0,0,-.2,-.8,-.4,-1.5c0,0,0,-.4,-.5,-1.9c0,0,-.5,-1.2,-.4,-1.8v-.1c0,0,.3,-.1,.6,-.1h.1c0,0,.7,.1,.9,.9c0,0,.1,.6,.2,1.2c0,0,.1,.8,.3,1.1c0,0,.1,-.2,.6,-1.2c0,0,.4,-.8,.8,-.9c0,0,.5,.1,.7,.6c0,0,.2,.3,.2,1.6c0,0,.1,1,.5,1.4l.2,-.2l.6,-1.7c0,0,.4,-1.1,.8,-1.5h.3c0,0,.6,.2,.6,.7c0,0,-.5,1.3,-1.5,3.7c0,0,-.2,1,-.8,1Zm10.2,-5.8c0,0,-.3,-.1,-.6,-.3c0,0,-.2,-.1,-.3,-.4c0,0,0,-.2,0,-.2c0,0,.1,-.5,.6,-.6c0,0,.3,.1,.6,.3c0,0,.3,.3,.3,.6v.1c0,0,0,-.1,0,-.1c0,.1,-.1,.3,-.6,.6Zm5.5,9.2c0,0,-.1,-.1,-.3,-.1h-.1c-.1,0,-.2,0,-.4,0c0,0,-.2,.1,-.4,.1c0,0,-.3,-.1,-.4,-.3c0,0,-1.4,-1,-1,-3.4l.1,-.1c0,0,0,-.2,0,-.3c0,0,0,-.1,.1,-.3c0,0,0,-.2,0,-.4c0,0,.1,-.4,0,-.7c0,0,-.1,-.1,-.5,-.1c0,0,-.3,0,-.5,0c0,0,-.3,-.1,-.6,-.3c0,0,-.2,-.2,-.1,-.5l.2,-.4h.3c.1,0,.3,0,.5,-.1c0,0,.3,0,.5,0q.1,0,.2,0c0,0,.1,0,.3,.1c0,0,.4,-.4,.5,-1.4l.1,-.7c0,0,.1,-.6,.3,-.9c0,0,0,-.2,.3,-1.4c0,0,.2,-.8,.6,-1.1h.1c0,0,.1,0,.1,0q.1,0,.1,0c0,0,.6,.1,.7,.8c0,0,-.4,.8,-.8,2.2c0,0,-.5,2.1,-.5,2.4c0,0,.2,.2,.6,.3c0,0,.2,0,.6,0c0,0,.4,0,.6,.1c0,0,.4,.1,.6,.3c0,0,.2,.1,.1,.3c0,0,0,.2,-.2,.3c0,0,-.1,.3,-.2,.3h-.1c-.2,0,-.4,0,-.7,0l-.6,-.1c0,0,-.2,-.1,-.5,-.1c-.2,0,-.4,.1,-.5,.1c0,0,-.1,.2,-.1,.6c0,0,-.1,.2,-.1,.6c0,0,-.1,.5,-.2,.7c0,0,-.3,1.6,.5,2.3c.2,0,1.3,0,2.2,-.8c0,0,.7,.1,.7,.5c0,0,-.2,.6,-.9,1c0,0,-.6,.4,-1.2,.5ZM663.4,404c-.1,0,-.2,0,-.2,0c0,0,-.5,-.1,-.9,-.5c0,0,-.5,-.1,-.7,-.7c0,0,-.2,-.5,-.1,-1.1c0,0,.1,-.9,.9,-1.4c0,0,.9,-.6,1.8,-.6q.1,0,.2,0h.1c0,0,.1,0,.4,.2c0,0,.3,.2,.4,.3c0,0,.1,0,.2,0h.1c0,0,.1,-.3,.2,-.6c0,0,.1,-.6,0,-1.1c0,0,-.1,-.7,-.6,-.7c0,0,0,-.1,-.1,-.1c-.1,0,-.3,.1,-.6,.2c0,0,-.4,.1,-.6,.1c0,0,-.1,0,-.1,0c0,0,-.3,-.1,-.3,-.6c0,0,.1,-.5,.5,-.7c0,0,.3,-.2,.9,-.4c0,0,1.7,.4,2,1.4c0,0,.4,1.7,.1,3.9h-.1c0,0,-.2,1.1,-.5,2c0,0,-.3,.3,-.7,.3q-.1,0,-.2,0c0,0,-.2,0,-.4,-.2c0,0,-1,.3,-1.7,.3Zm-9.1,-1.6c-.1,0,-.2,0,-.3,0c0,0,-.4,-.1,-.9,-.3c0,0,-.4,-.2,-.8,-.5c0,0,-1.1,-.8,-.8,-2.6c0,0,.1,-.6,.3,-1.3c0,0,.2,-.4,1.2,-1.2c0,0,.9,-.9,1.9,-.9c0,0,.1,0,.2,0c0,0,.5,.1,1,.5c0,0,.5,.4,.6,1v.1c0,0,-.2,.9,-.8,1.2c0,0,-.4,.3,-1.4,.4c0,0,-1,.2,-1.4,.4c0,0,-.1,.2,-.1,.4c0,0,-.2,.9,.4,1.3l.5,.1c0,0,.2,0,.2,.1c0,0,.1,0,.1,0c.1,0,.3,-.1,.5,-.1c0,0,.3,-.2,.6,-.2c0,0,.1,.1,.1,.1c0,0,.3,0,.6,.4c0,0,0,.1,-.1,.2c0,0,0,.4,-.4,.6c0,0,-.4,.1,-.7,.3c0,0,-.3,0,-.5,0Zm-27.9,-6.2c.2,0,.3,0,.5,-.1c0,0,.3,0,.3,-.4c0,0,.1,0,.1,-.2c0,0,0,-.1,0,-.2v-.2c0,0,-.1,-.3,-.4,-.4c-.1,0,-.3,0,-1.1,.5c0,0,0,.1,-.1,.3c0,0,-.2,.1,-.2,.2c0,0,0,.2,.2,.3c0,0,.3,.2,.5,.2c0,0,.1,0,.2,0Zm15.9,3.5q-.1,0,-.1,0c0,0,-.1,0,-.2,-.1l-.4,-.5l.6,-4.6c0,0,.2,-.4,.6,-.4c.1,0,.1,.1,.2,.1c0,0,.3,0,.5,.4c0,0,.1,.7,-.1,2.1c0,0,0,.2,-.1,.6c0,0,-.1,.4,-.1,.5c0,0,-.1,.9,-.1,1.4c0,0,-.5,.5,-.8,.5Zm.9,-7.2c0,0,-.3,-.1,-.6,-.3c0,0,-.3,-.1,-.3,-.4c0,0,0,-.2,0,-.2c0,0,.1,-.5,.6,-.6c0,0,.3,.1,.6,.3c0,0,.3,.3,.3,.6v.1c0,0,0,-.1,0,-.1c0,.1,-.1,.3,-.6,.6Zm-21.6,4.3c-.1,0,-.2,0,-.3,0c0,0,-.4,0,-.9,-.3c0,0,-.4,-.2,-.8,-.4c0,0,-1.1,-.9,-.8,-2.7c0,0,.1,-.6,.3,-1.2c0,0,.2,-.4,1.2,-1.3c0,0,.9,-.9,1.9,-.9c0,0,.1,0,.2,.1c0,0,.6,.1,1,.4c0,0,.5,.4,.6,1v.2c0,0,-.2,.8,-.8,1.2c0,0,-.4,.2,-1.4,.3c0,0,-1,.2,-1.4,.4c0,0,-.1,.3,-.1,.4c0,0,-.2,.9,.4,1.3l.5,.1c0,0,.2,.1,.3,.1c.1,0,.3,0,.5,-.1c0,0,.3,-.1,.6,-.1c0,0,.1,0,.1,0c0,0,.3,0,.6,.5l-.1,.2c0,0,0,.3,-.4,.5c0,0,-.4,.1,-.7,.3c0,0,-.2,0,-.5,0Zm4.4,.8c-.1,0,-.2,0,-.3,0c0,0,-.5,-.1,-.9,-.4c0,0,-.4,-.2,-.7,-.8c0,0,-.2,-.5,-.1,-1.1c0,0,.2,-.9,.9,-1.4c0,0,.9,-.6,1.8,-.6c.1,0,.2,0,.3,0h.1c0,0,.1,0,.3,.2c0,0,.3,.3,.5,.3h.1c0,0,.1,0,.1,0c0,0,.2,-.3,.2,-.6c0,0,.1,-.6,0,-1.1c0,0,-.1,-.7,-.6,-.7c-.1,0,-.3,0,-.7,.1c0,0,-.4,.1,-.6,.1c0,0,-.4,0,-.4,-.6c0,0,.1,-.5,.6,-.7c0,0,.2,-.1,.9,-.3c0,0,1.6,.3,1.9,1.3c0,0,.5,1.7,.1,3.9c0,0,-.2,1.1,-.6,2c0,0,-.2,.3,-.7,.3c0,0,-.1,0,-.1,0c0,0,-.3,0,-.5,-.2c0,0,-1,.3,-1.6,.3ZM591.4,393c0,0,-.5,-.1,-.6,-.6c0,0,0,-.1,.8,-1.1c0,0,.5,-.7,.6,-1.2c0,0,0,-.2,-.1,-.6c0,0,-.1,-.4,0,-.6c0,0,0,-.3,.4,-.4c0,0,.9,.4,1,1.2c0,0,0,.1,-.1,.4c0,0,-.3,2.2,-2,2.9Zm22.7,2.1q-.1,0,-.1,0c0,0,-.1,0,-.2,-.2c0,0,-.6,-1.2,-.6,-2.8c0,0,-.1,-.8,0,-3V389c0,0,.1,-.4,.4,-.5c0,0,.1,0,.1,0q.1,0,.2,0c0,0,.3,.1,.5,.5c0,0,.1,.4,.2,.7c0,0,0,.1,-.1,.2c0,0,0,.1,0,.2c0,0,0,.1,0,.2c0,0,-.1,.3,.1,.5c0,0,1,-.5,1.1,-.6c0,0,.6,-.2,1.2,-.3c0,0,.2,.1,.3,.1c0,0,1.1,.2,1.3,.9v.1c0,0,-.1,.7,-.6,.8c0,0,-.5,-.4,-.9,-.5c0,0,-.1,0,-.3,0c0,0,-.1,0,-.2,0c0,0,-.9,.2,-1.3,1.4c0,0,-.2,1.1,-.5,2.1c0,0,0,.1,-.3,.2c0,0,-.2,.1,-.3,.1Zm25.2,4.6c0,0,-.1,0,-.1,0c0,0,-.5,-.1,-.8,-.8c0,0,.1,-.5,.2,-1.4c0,0,.1,-.7,.4,-2.1c0,0,.2,-1.4,.3,-2.1c0,0,.5,-2.6,.6,-4.4v-.1c0,0,.1,-.5,.4,-.5c0,0,.7,.1,1,.9c0,0,-.1,1.2,-.3,2.9c0,0,-.2,.7,-.4,2.1c0,0,-.3,1.3,-.4,2.1c0,0,-.3,1.6,-.3,2.8c-.1,0,-.1,.2,-.3,.3c0,0,-.2,.2,-.3,.3Zm8.1,1.4c0,0,-.1,0,-.1,0c0,0,-.3,-.1,-.4,-.2l-.3,-.2c0,0,0,-.5,-.1,-2.9c0,0,-.2,-.3,-.4,-.3H646c-.1,0,-.2,0,-.5,.1c0,0,-.3,0,-.5,0c0,0,-.1,0,-.1,0c0,0,-.8,-.1,-.7,-.8c0,0,.3,-.3,1.1,-.4c0,0,.9,-.1,1.2,-.3v-.2c0,0,.1,-.5,.3,-1.7c0,0,.1,-1.1,.2,-1.7c0,0,.3,-1.8,.9,-2.9c0,0,.8,-1.3,2.2,-1.8c0,0,1.2,.2,1.8,1.6c0,0,.1,.8,.1,1.3c0,0,-.1,.3,-.2,.5c0,0,-.2,.1,-.4,.3c0,0,-.2,.1,-.4,.1c0,0,-.1,0,-.2,-.1c0,0,-.4,-.3,-.3,-1.3c0,0,.1,-.8,-.3,-.9c0,0,-.1,0,-.3,0c0,0,-1.2,1.3,-1.6,3.7c0,0,-.1,.3,-.2,.8c0,0,0,.2,-.1,.6c0,0,-.1,.6,.1,1.4h.2c.1,0,.4,0,.8,-.2c0,0,.5,-.1,.8,-.1q.1,0,.1,0c0,0,.4,0,.6,.6c0,0,-.1,.6,-.7,.7h-.1c0,0,-.1,0,-.3,0c-.3,0,-.9,.1,-1.6,.5c0,0,0,.5,.1,1.7c0,0,.1,1.2,0,1.9c0,0,-.2,.2,-.6,.2Zm-40.8,-7.2c0,0,-.9,-.3,-.7,-1.6c0,0,0,-.1,.1,-.4c0,0,0,-.2,0,-.4c0,0,.2,-1.1,-.4,-1.5c0,0,-.6,.4,-1.2,1.4c0,0,-.1,.1,-.9,1.7c0,0,-.2,.2,-.5,.2q-.1,0,-.1,0c0,0,-.3,0,-.5,-.4c0,0,-.2,-.3,-.1,-.7c0,0,0,-.3,.2,-.7c0,0,.1,-.5,.2,-.7c0,0,0,-.2,0,-.4v-.1c0,0,.1,-.4,0,-1.3c0,0,0,-.9,.1,-1.3v-.1c0,0,.2,-.1,.4,-.1c0,0,.1,0,.1,0c0,0,.5,.1,.7,.6v.5c0,0,.1,.3,.2,.5c0,0,.6,-.6,1.4,-.6c0,0,.1,0,.2,0h.1c0,0,.9,.3,1.2,1.5c0,0,.1,.1,.3,1.9c0,0,-.1,.2,-.1,.4c0,0,0,.1,-.1,.4c0,0,0,.3,0,.5c0,0,-.1,.6,-.6,.7Zm-25,-5.3c.1,0,.3,0,.4,-.1c0,0,.3,-.1,.4,-.4c0,0,0,-.1,0,-.2c0,0,0,-.2,0,-.3l.1,-.1c0,0,-.1,-.4,-.4,-.4c-.1,0,-.4,0,-1.1,.4c0,0,0,.1,-.2,.3c0,0,-.1,.2,-.1,.3c0,0,0,.1,.1,.3c0,0,.3,.1,.6,.2c0,0,.1,0,.2,0Zm18.6,4l-.1,-.1c0,0,-.1,0,-.2,-.1l-.4,-.5l.6,-4.6c0,0,.2,-.3,.6,-.3q.1,0,.2,0c0,0,.4,0,.5,.4c0,0,.2,.8,0,2.1c0,0,-.1,.2,-.1,.6c0,0,-.1,.4,-.2,.6c0,0,-.1,.8,-.1,1.4c0,0,-.4,.5,-.8,.5Zm31.2,5.8c0,0,-.1,0,-.1,0c0,0,-.5,-.1,-.8,-.8c0,0,.1,-.5,.2,-1.5c0,0,.2,-.7,.4,-2.1c0,0,.2,-1.4,.4,-2.1c0,0,.4,-2.5,.5,-4.4l.1,-.1c0,0,0,-.4,.3,-.5h.1c0,0,.6,.1,.9,1c0,0,0,1.2,-.3,2.8c0,0,-.1,.7,-.4,2.1c0,0,-.3,1.4,-.4,2.1c0,0,-.3,1.6,-.3,2.8c0,.1,-.1,.2,-.3,.4c0,0,-.1,.1,-.3,.3ZM601.1,385.3c0,0,-.3,-.1,-.5,-.2c0,0,-.3,-.2,-.4,-.5c0,0,0,-.2,0,-.2c0,0,.1,-.5,.6,-.6c0,0,.3,.2,.6,.4c0,0,.3,.2,.3,.6c0,0,-.1,.2,-.6,.5Zm-14.4,10.4c0,0,-.1,0,-.2,0c0,0,-.2,0,-.3,-.1c0,0,-.2,-.2,-.2,-.4c0,0,-.1,-.3,-.1,-.3c0,0,.7,-1.9,2.4,-5.5c0,0,-.1,-.2,-1.4,-2.5c0,0,-.9,-1.5,-1,-2.6c0,0,.1,0,0,-.3c0,0,-.1,-.3,0,-.4c0,0,.1,-.2,.6,-.2c0,0,.1,0,.2,0c0,0,.5,.1,.7,.7c0,0,0,.1,.1,1c0,0,.1,.6,.3,.8c0,0,.3,.2,.5,.9c0,0,.3,.6,.7,.8l.2,-.1l1.5,-3c0,0,.2,-.3,.5,-.3h.1c0,0,.2,.1,.4,.3c0,0,.2,.3,.2,.6c0,0,-.5,1.5,-2.4,5.1c0,0,-1.7,3.2,-2.2,5.2c0,0,-.2,.3,-.6,.3Zm-5.6,-5.8c-.1,0,-.2,0,-.2,0c0,0,-.5,-.1,-.9,-.4c0,0,-.5,-.2,-.7,-.7c0,0,-.2,-.6,-.1,-1.1c0,0,.1,-.9,.9,-1.5c0,0,.9,-.6,1.8,-.6c0,0,.1,0,.2,0l.1,.1c0,0,.1,0,.4,.2c0,0,.3,.2,.4,.2c0,0,.1,0,.2,0h.1c0,0,.1,-.3,.2,-.5c0,0,.1,-.7,0,-1.2c0,0,-.1,-.6,-.6,-.7h-.1c-.1,0,-.3,0,-.6,.1c0,0,-.4,.2,-.6,.2c0,0,-.1,0,-.1,0c0,0,-.3,-.1,-.3,-.7c0,0,.1,-.4,.5,-.7c0,0,.3,-.1,.9,-.3c0,0,1.7,.4,2,1.3c0,0,.4,1.8,.1,3.9h-.1c0,0,-.2,1.1,-.5,2.1c0,0,-.3,.3,-.7,.3q-.1,0,-.2,0c0,0,-.2,-.1,-.4,-.2c0,0,-1,.2,-1.7,.2Zm-13.6,-3.6c0,0,1.1,0,2,-.5c0,0,2.2,-1.8,2.6,-4c0,0,.2,-1,-.1,-1.9c0,0,-.1,-.4,-.3,-.8c0,0,-.2,-.5,-.5,-.5c-.1,0,-.3,0,-.4,0c0,0,-2.1,1,-2.6,3.7c0,0,-.1,.6,0,1.5c0,0,-.2,.1,-.3,.1q-.1,0,-.1,0c0,0,-.1,0,-.2,-.1c0,0,-.2,0,-.3,0h-.1c0,0,-.2,0,-.3,.1c0,0,0,.7,-.1,1.4c0,0,0,.8,.7,1Zm10.2,2.1q-.1,0,-.2,0c0,0,-.2,0,-.5,-.2c0,0,-.3,-.2,-.9,-.9c0,0,-.6,-.8,-1,-1c0,0,-.2,.2,-.2,.5c0,0,0,.2,-.1,.5c0,0,0,.2,0,.3c0,0,-.1,.7,-.8,.7c0,0,-.8,-.1,-.6,-1.1l.1,-.3c0,0,.1,-.4,0,-.7c0,0,.4,-1.9,.7,-3.5c0,0,.4,-2.5,.6,-4.7c0,0,.1,-.2,.3,-.2c0,0,.3,-.1,.3,-.1c0,0,.1,0,.1,0c0,0,.4,0,.6,.8c0,0,-.2,2,-.6,5.7c0,0,1.4,-1.2,2.5,-2.5c0,0,.1,0,.2,0q.1,0,.2,0c0,0,.2,0,.3,.2c0,0,.4,.3,.3,.6c0,0,0,.3,-.2,.5l-2.5,2.4v.2c0,0,.5,.6,1,1.1c0,0,.6,.6,1.2,.7c0,0,.1,.2,.1,.5c0,0,-.1,.2,-.2,.3c0,0,-.3,.2,-.7,.2Zm-10.1,-.7c0,0,-1.8,-.5,-2,-1.8c0,0,-.2,-1.2,0,-2.4c0,0,.6,-3.6,4.6,-6.3c0,0,.7,-.2,1.3,-.2q.1,0,.2,.1c0,0,.3,0,.5,.1c0,0,1.6,2.4,1.2,4.8v.1c0,0,-.5,3,-4.2,5.3c0,0,-.3,.1,-.7,.1c0,0,-.1,0,-.1,0c0,0,-.1,0,-.1,0c-.2,0,-.5,.1,-.7,.2Z"/></clipPath>
<clipPath id="c6_237"><path d="M674.8,369.3L626.6,194.2L613.2,145.7l79.6,-21.9L742.9,110l61.5,223.6L674.8,369.3Z"/></clipPath>
<clipPath id="c7_237"><path d="M-2.6,1047.7V-2.6H910.2V1047.7Z"/></clipPath>
<style type="text/css"><![CDATA[
.g0_237{
fill: none;
stroke: #3D3D3D;
stroke-width: 1.527;
stroke-linecap: butt;
stroke-linejoin: miter;
stroke-miterlimit: 4;
}
.g1_237{
fill: #FFFFFF;
}
.g2_237{
fill: none;
stroke: #000000;
stroke-width: 1.108;
stroke-linecap: butt;
stroke-linejoin: miter;
stroke-miterlimit: 4;
}
.g3_237{
fill: none;
stroke: #000000;
stroke-width: 0.831;
stroke-linecap: butt;
stroke-linejoin: miter;
stroke-miterlimit: 4;
}
.g4_237{
fill: none;
stroke: #000000;
stroke-width: 0.554;
stroke-linecap: butt;
stroke-linejoin: miter;
stroke-miterlimit: 4;
}
.g5_237{
fill: none;
stroke: #000000;
stroke-width: 1.107;
stroke-linecap: butt;
stroke-linejoin: miter;
stroke-miterlimit: 4;
}
.g6_237{
fill: none;
stroke: #FFFFFF;
stroke-width: 1.909;
stroke-linecap: butt;
stroke-linejoin: miter;
}
.g7_237{
fill: none;
stroke: #000000;
stroke-width: 0.381;
stroke-linecap: butt;
stroke-linejoin: miter;
}
]]></style>
</defs>
<image clip-path="url(#c3_237)" preserveAspectRatio="none" x="615" y="111" width="209" height="278" xlink:href="img/1.jpg"/>
<image clip-path="url(#c4_237)" preserveAspectRatio="none" x="615" y="381" width="43" height="8" xlink:href="img/2.jpg"/>
<image clip-path="url(#c5_237)" preserveAspectRatio="none" x="615" y="381" width="43" height="8" xlink:href="img/3.jpg"/>
<g clip-path="url(#c6_237)">
<image clip-path="url(#c0_237)" preserveAspectRatio="none" x="613" y="109" width="195" height="262" xlink:href="img/4.png"/>
</g>
<path d="M508.1,230.5c2.7,1.2,5.7,.7,8.6,.8c2.6,0,5.2,.5,7.9,.5c3.1,0,6.1,-.1,9.2,-.4c4.1,-.4,8.6,-.6,12.6,-1.7c7.4,-2,14.6,-4.2,22,-6.1c3.7,-.9,7.3,-2.1,10.9,-3.2c2.4,-.8,4.5,-2,6.8,-2.9c2.6,-1.1,5.7,-1.8,8.1,-3.2c1.2,-.7,2.3,-1.3,3.5,-1.7c2.2,-.8,4,-2.3,6,-3.5c-1,.1,-2,-.6,-3,-.8c-1.1,-.3,-2.1,-.3,-3.2,-.3c.4,.2,.7,.2,1.2,.3c.9,.1,1.5,.3,2.4,.6c1.3,.4,2.8,-.2,4,.3c-.1,1.3,-1.5,3,-2.1,4.2c-.4,1,-.9,2,-.8,3.1" class="g0_237"/>
<g clip-path="url(#c1_237)">
<image clip-path="url(#c1_237)" preserveAspectRatio="none" x="684" y="537" width="85" height="210" xlink:href="img/5.jpg"/>
</g>
<path d="M565.6,516.9c-1.6,.5,-3.1,1.5,-4.6,2c-1.6,.5,-2.6,.4,-4.2,1.7c-1.2,1,-1.4,1.9,-3.1,2.2c-.5,2.5,-.2,4.3,1.3,6.3c.8,1.2,4,4.5,5.7,4.6C558.6,537,556,540.1,558,544c.8,1.7,3.5,5.5,5.5,6.4c1.8,.8,4.6,0,6.6,.3c.2,1.5,-.4,3.1,.2,4.6c.8,2.3,3.5,4.9,5.4,6.7c4.1,3.9,14.5,10.8,20.2,6.3c2.2,4.5,7.6,8.5,13,10.3c3.7,1.2,11.2,2,14.9,.8c2.3,-.8,4.4,-3.9,6.8,-4.3c1,-.2,4.9,1.9,6,2.1c5.2,.9,11.8,.9,16.9,-.1c7.5,-1.4,11.3,-6.5,13.5,-12.2c1.7,3,11,.5,13.5,-.6c4.9,-2.2,9.9,-5.4,11.8,-10c1.4,-3.4,-2.7,-6.8,-1.6,-9.5c.5,-1.2,2.1,-1.9,2.9,-3c4.4,-6.1,2.5,-12,-1.5,-17.6c-4.2,-6,-9.7,-9.9,-17.6,-11.9c-2.1,-.5,-3.9,-.8,-6.1,-.7c-1.2,0,-1.7,.6,-2.9,.4c6,-6.6,-15,-12.4,-18.8,-13c-9.4,-1.4,-20.4,.1,-29.2,2.9c-4.2,1.3,-8.3,3.3,-12.3,4.6c.7,-7.1,-14.8,-4.8,-18.9,-3.7c-5,1.2,-11.1,3.8,-14.1,7.4c-1.8,2.3,-2.7,5,-4.3,7.4Z" class="g1_237"/>
<path d="M565.6,516.9c-1.6,.5,-3.1,1.5,-4.6,2c-1.6,.5,-2.6,.4,-4.2,1.7c-1.2,1,-1.4,1.9,-3.1,2.2c-.5,2.5,-.2,4.3,1.3,6.3c.8,1.2,4,4.5,5.7,4.6C558.6,537,556,540.1,558,544c.8,1.7,3.5,5.5,5.5,6.4c1.8,.8,4.6,0,6.6,.3c.2,1.5,-.4,3.1,.2,4.6c.8,2.3,3.5,4.9,5.4,6.7c4.1,3.9,14.5,10.8,20.2,6.3c2.2,4.5,7.6,8.5,13,10.3c3.7,1.2,11.2,2,14.9,.8c2.3,-.8,4.4,-3.9,6.8,-4.3c1,-.2,4.9,1.9,6,2.1c5.2,.9,11.8,.9,16.9,-.1c7.5,-1.4,11.3,-6.5,13.5,-12.2c1.7,3,11,.5,13.5,-.6c4.9,-2.2,9.9,-5.4,11.8,-10c1.4,-3.4,-2.7,-6.8,-1.6,-9.5c.5,-1.2,2.1,-1.9,2.9,-3c4.4,-6.1,2.5,-12,-1.5,-17.6c-4.2,-6,-9.7,-9.9,-17.6,-11.9c-2.1,-.5,-3.9,-.8,-6.1,-.7c-1.2,0,-1.7,.6,-2.9,.4c6,-6.6,-15,-12.4,-18.8,-13c-9.4,-1.4,-20.4,.1,-29.2,2.9c-4.2,1.3,-8.3,3.3,-12.3,4.6c.7,-7.1,-14.8,-4.8,-18.9,-3.7c-5,1.2,-11.1,3.8,-14.1,7.4c-1.8,2.3,-2.7,5,-4.3,7.4" class="g2_237"/>
<path d="M708.9,529.1c0,-.2,-.1,-.4,-.1,-.6c-4.5,-1.5,-3,10,2.3,6.1c5.4,-3.8,-2.6,-7.8,-3.8,-4.7Z" class="g1_237"/>
<path d="M708.9,529.1c-.1,-.2,-.1,-.4,-.1,-.6c-4.5,-1.5,-3,10,2.3,6.1c5.4,-3.8,-2.6,-7.8,-3.8,-4.7" class="g3_237"/>
<path d="M715.5,534.1c-2.3,.5,-2,2.9,-1.6,4.6c1.1,.5,2.2,.8,3.3,.8c.4,-1.9,.5,-5.1,-2.6,-4.6Z" class="g1_237"/>
<path d="M715.5,534.1c-2.3,.5,-2,2.9,-1.6,4.6c1.1,.5,2.2,.8,3.3,.8c.4,-1.9,.5,-5,-2.6,-4.6" class="g4_237"/>
<path d="M803.9,775.9c1.8,.5,3.4,1.6,5,2.1c1.8,.6,2.8,.5,4.5,1.9c1.4,1.1,1.6,2,3.4,2.4c.5,2.7,.2,4.7,-1.4,6.9c-.9,1.3,-4.3,4.9,-6.2,5c2.3,3.6,5.1,6.9,2.9,11.2c-.9,1.8,-3.8,6,-5.9,6.9c-1.9,.9,-5,0,-7.1,.4c-.3,1.6,.3,3.4,-.2,5c-1,2.5,-3.9,5.4,-5.9,7.3c-4.4,4.3,-15.8,11.8,-21.9,6.9c-2.4,4.9,-8.3,9.2,-14.2,11.2c-3.9,1.3,-12,2.2,-16,.8c-2.5,-.8,-4.8,-4.2,-7.4,-4.6c-1.2,-.2,-5.3,2.1,-6.5,2.3c-5.7,1,-12.8,.9,-18.4,-.1C700.5,840,696.4,834.4,694,828.1c-1.8,3.3,-11.9,.6,-14.6,-.6c-5.3,-2.3,-10.7,-5.9,-12.8,-10.9c-1.5,-3.7,2.9,-7.4,1.8,-10.3c-.6,-1.3,-2.3,-2.2,-3.1,-3.4c-4.8,-6.5,-2.8,-12.9,1.5,-19.1c4.6,-6.5,10.5,-10.8,19.1,-13c2.2,-.5,4.3,-.9,6.6,-.8c1.3,.1,1.8,.7,3.1,.5C689.1,763.3,711.9,757,716,756.4c10.2,-1.5,22.1,.1,31.7,3.1c4.6,1.5,9,3.6,13.3,5.1c-.8,-7.7,16.1,-5.3,20.5,-4.1c5.3,1.3,12,4.1,15.2,8.1c2,2.4,3,5.4,4.7,8Z" class="g1_237"/>
<path d="M803.9,775.9c1.8,.5,3.4,1.6,5,2.1c1.8,.6,2.8,.5,4.5,1.9c1.4,1.1,1.6,2,3.4,2.4c.5,2.7,.2,4.7,-1.4,6.9c-.9,1.3,-4.3,4.9,-6.2,5c2.3,3.6,5.1,6.9,2.9,11.2c-.9,1.8,-3.8,6,-5.9,6.9c-1.9,.9,-5,0,-7.1,.4c-.3,1.6,.3,3.4,-.2,5c-1,2.5,-3.9,5.4,-5.9,7.3c-4.5,4.3,-15.8,11.8,-21.9,6.9c-2.4,4.9,-8.3,9.2,-14.2,11.2c-3.9,1.3,-12,2.2,-16,.8c-2.5,-.8,-4.8,-4.2,-7.4,-4.6c-1.2,-.2,-5.3,2.1,-6.5,2.3c-5.7,1,-12.8,.9,-18.4,-.1C700.5,840,696.4,834.4,694,828.1c-1.8,3.3,-11.9,.6,-14.6,-.6c-5.3,-2.3,-10.7,-5.9,-12.8,-10.9c-1.5,-3.7,2.9,-7.4,1.8,-10.3c-.6,-1.3,-2.3,-2.2,-3.1,-3.4c-4.8,-6.5,-2.8,-12.9,1.5,-19.1c4.6,-6.5,10.5,-10.8,19.1,-13c2.2,-.5,4.3,-.9,6.6,-.8c1.3,.1,1.8,.7,3.1,.5C689.1,763.3,711.9,757,716,756.4c10.2,-1.5,22.1,.1,31.7,3.1c4.5,1.5,9,3.6,13.3,5.1c-.8,-7.8,16.1,-5.3,20.5,-4.1c5.3,1.3,12,4.1,15.2,8.1c2,2.4,3,5.4,4.7,8" class="g5_237"/>
<path d="M645.5,789.9c0,-.2,-.1,-.5,-.1,-.7c-4.5,-1.5,-3,10,2.4,6.2c5.3,-3.9,-2.7,-7.9,-3.9,-4.7Z" class="g1_237"/>
<path d="M645.5,789.9c0,-.2,-.1,-.5,-.1,-.7c-4.5,-1.5,-3,10,2.3,6.2c5.4,-3.9,-2.6,-7.9,-3.8,-4.7" class="g3_237"/>
<path d="M635.6,788c-2.3,.4,-2,2.8,-1.6,4.6c1.1,.5,2.2,.8,3.3,.8c.4,-2,.5,-5.1,-2.6,-4.7Z" class="g1_237"/>
<path d="M635.6,788c-2.3,.4,-2,2.8,-1.6,4.6c1.1,.5,2.2,.8,3.3,.8c.4,-2,.5,-5.1,-2.6,-4.7" class="g4_237"/>
<path d="M565.2,371c2.4,-.6,4.7,-1.1,6.3,-3.1c1,-1.2,1,-2.2,1.3,-3.7c.4,-1.4,.5,-2.4,.1,-3.9c-2.5,-7.1,-11.1,-8.7,-17.7,-9.5c-2.5,-.3,-5.1,-.2,-7.7,-.2c-3.3,0,-6.4,.4,-9.5,1.5c-2.5,.9,-5.1,1.2,-7.6,1.8c-1.3,.2,-3.4,.3,-4.5,.9c.3,-.5,1.3,-.8,1.8,-1.1c1.3,-.7,3.1,-1.7,3.9,-2.9c-1,-.4,-3.7,1.9,-4.4,2.5c-.7,.6,-1.3,1.1,-2,1.6c-.5,.4,-1.5,.8,-1.7,1.4c.6,.7,2.1,1,2.9,1.2c1.5,.5,3,.7,4.5,1.3" class="g0_237"/>
<g clip-path="url(#c2_237)">
<image clip-path="url(#c2_237)" preserveAspectRatio="none" x="542" y="769" width="84" height="183" xlink:href="img/6.jpg"/>
</g>
<g clip-path="url(#c7_237)">
<path d="M-4.5,13.7H-27.4m939.5,0H935M-4.5,1031.2H-27.4m939.5,0H935M13.7,-4.5V-27.4m0,1077v22.9m880,-1077V-27.4m0,1077v22.9" class="g6_237"/>
<path d="M-4.5,13.7H-27.4m939.5,0H935M-4.5,1031.2H-27.4m939.5,0H935M13.7,-4.5V-27.4m0,1077v22.9m880,-1077V-27.4m0,1077v22.9" class="g7_237"/>
</g>
</svg>