<?xml version="1.0" encoding="UTF-8" standalone="no"?>
<!DOCTYPE svg PUBLIC "-//W3C//DTD SVG 1.1//EN"
"http://www.w3.org/Graphics/SVG/1.1/DTD/svg11.dtd">
<svg viewBox="0 0 931 1096" version="1.1" xmlns="http://www.w3.org/2000/svg" xmlns:xlink="http://www.w3.org/1999/xlink">
<defs>
<clipPath id="c0_110"><path d="M508.9,675V641.1h92.9V675Z"/></clipPath>
<clipPath id="c1_110"><path d="M52,130.1V96.5H825v33.6Z"/></clipPath>
<style type="text/css"><![CDATA[
.g0_110{
fill: #D0007A;
}
.g1_110{
fill: none;
stroke: #241F1F;
stroke-width: 0.763;
stroke-miterlimit: 10;
}
.g2_110{
fill: none;
stroke: #EE008C;
stroke-width: 0.916;
stroke-linejoin: round;
}
.g3_110{
fill: none;
stroke: #241F1F;
stroke-width: 0.916;
stroke-linejoin: round;
}
.g4_110{
fill: #241F1F;
}
.g5_110{
fill: none;
stroke: #241F1F;
stroke-width: 0.763;
stroke-miterlimit: 3;
}
.g6_110{
fill: none;
stroke: #00AEEF;
stroke-width: 0.916;
stroke-linejoin: round;
}
.g7_110{
fill: none;
stroke: #00AEEF;
stroke-width: 0.763;
stroke-linejoin: round;
}
.g8_110{
fill: none;
stroke: #EE008C;
stroke-width: 0.763;
stroke-linejoin: round;
}
.g9_110{
fill: none;
stroke: #241F1F;
stroke-width: 0.611;
stroke-miterlimit: 3;
}
.ga_110{
fill: none;
stroke: #241F1F;
stroke-width: 0.763;
stroke-linejoin: round;
}
.gb_110{
fill: #E8F6FE;
}
]]></style>
</defs>
<path d="M288.8,198.1c0,0,-1.6,0,-1.6,1.6v9.1c0,0,0,1.6,1.6,1.6h9.1c0,0,1.6,0,1.6,-1.6v-9.1c0,0,0,-1.6,-1.6,-1.6Z" class="g0_110"/>
<path clip-path="url(#c0_110)" d="M554.5,659.1h47.7" class="g1_110"/>
<path d="M500.9,738.6h60.8m21.8,0h31.3m.5,157.3H663" class="g1_110"/>
<path d="M97.1,276.9L208.6,164.2" class="g2_110"/>
<path d="M57.3,207.3c0,-24.9,20.2,-45.1,45.1,-45.1c24.9,0,45.1,20.2,45.1,45.1c0,24.9,-20.2,45,-45.1,45c-24.9,0,-45.1,-20.1,-45.1,-45Z" class="g3_110"/>
<path d="M132.8,239c0,-.9,.7,-1.7,1.7,-1.7c.9,0,1.7,.8,1.7,1.7c0,1,-.8,1.8,-1.7,1.8c-1,0,-1.7,-.8,-1.7,-1.8Z" class="g4_110"/>
<path d="M132.8,239c0,-.9,.7,-1.7,1.7,-1.7c.9,0,1.7,.8,1.7,1.7c0,1,-.8,1.8,-1.7,1.8c-1,0,-1.7,-.8,-1.7,-1.8Z" class="g5_110"/>
<path d="M118,420.6L107.7,314.7" class="g6_110"/>
<path d="M55.1,340.6l199.4,43.3" class="g2_110"/>
<path d="M54.7,404.1c11.4,-17.9,25,-58.7,56.4,-51.6c24.6,5.5,28.5,42.9,55.7,45.4c43.7,4.1,61.2,-29.1,88,-65.7" class="g3_110"/>
<path d="M109.6,352.9c0,-.9,.8,-1.7,1.7,-1.7c1,0,1.7,.8,1.7,1.7c0,1,-.7,1.7,-1.7,1.7c-.9,0,-1.7,-.7,-1.7,-1.7Z" class="g4_110"/>
<path d="M109.6,352.9c0,-.9,.8,-1.7,1.7,-1.7c1,0,1.7,.8,1.7,1.7c0,1,-.7,1.7,-1.7,1.7c-.9,0,-1.7,-.7,-1.7,-1.7Z" class="g5_110"/>
<path d="M212.5,544.4L144.2,676.6" class="g7_110"/>
<path d="M222.7,541.4L133.5,676.6" class="g8_110"/>
<path d="M53.5,634.7H237.7" class="g9_110"/>
<path fill-rule="evenodd" d="M237.7,634.7l-1.6,-2.4l6.5,2.4l-6.5,2.5Z" class="g4_110"/>
<path d="M144.1,676.6V538.8" class="g9_110"/>
<path fill-rule="evenodd" d="M144.1,538.8l-2.5,1.6l2.5,-6.5l2.4,6.5Z" class="g4_110"/>
<path d="M76.4,542.9c19.3,48.8,44.3,91.8,67.7,91.8c23.4,0,48.4,-43,67.7,-91.8" class="ga_110"/>
<path d="M203.1,560.3c0,-.8,.6,-1.5,1.5,-1.5c.8,0,1.5,.7,1.5,1.5c0,.9,-.7,1.5,-1.5,1.5c-.9,0,-1.5,-.6,-1.5,-1.5Z" class="g4_110"/>
<path d="M203.1,560.3c0,-.8,.6,-1.5,1.5,-1.5c.8,0,1.5,.7,1.5,1.5c0,.9,-.7,1.5,-1.5,1.5c-.9,0,-1.5,-.6,-1.5,-1.5Z" class="g5_110"/>
<path d="M181.6,601.6c0,-.9,.7,-1.6,1.5,-1.6c.9,0,1.5,.7,1.5,1.6c0,.8,-.6,1.5,-1.5,1.5c-.8,0,-1.5,-.7,-1.5,-1.5Z" class="g4_110"/>
<path d="M181.6,601.6c0,-.9,.7,-1.6,1.5,-1.6c.9,0,1.5,.7,1.5,1.6c0,.8,-.6,1.5,-1.5,1.5c-.8,0,-1.5,-.7,-1.5,-1.5Z" class="g5_110"/>
<path d="M96,738.1h67.2v27.5H96Zm67.2,0h67.2v27.5H163.2Z" class="gb_110"/>
<path d="M163.2,765.2V738.5m0,45.8V766m0,36.6V784.3m0,36.7V802.6m0,36.7V821m0,39.3v-21M96,784.3V766m134.4,18.3V766M96,802.6V784.3m134.4,18.3V784.3M96,821V802.6M230.4,821V802.6M96,839.3V821m134.4,18.3V821M95.6,738.1h67.6m0,0h67.6M95.6,765.6h67.6m0,0h67.6M96,765.2V738.5m134.4,26.7V738.5M96,860.3v-21m134.4,21v-21M95.6,860.7h67.6m0,0h67.6" class="g1_110"/>
<path d="M96,874.5h67.2V902H96Zm67.2,0h67.2V902H163.2Z" class="gb_110"/>
<path d="M163.2,901.6V874.9m0,45.8V902.4m0,36.7V920.7m0,36.7V939.1m0,36.6V957.4m0,39.3v-21M96,920.7V902.4m134.4,18.3V902.4M96,939.1V920.7m134.4,18.4V920.7M96,957.4V939.1m134.4,18.3V939.1M96,975.7V957.4m134.4,18.3V957.4M95.6,874.5h67.6m0,0h67.6M95.6,902h67.6m0,0h67.6M96,901.6V874.9m134.4,26.7V874.9M96,996.7v-21m134.4,21v-21M95.6,997.1h67.6m0,0h67.6" class="g1_110"/>
<image clip-path="url(#c1_110)" preserveAspectRatio="none" x="52" y="97" width="773" height="33" xlink:href="img/1.png"/>
</svg>