<?xml version="1.0" encoding="UTF-8" standalone="no"?>
<!DOCTYPE svg PUBLIC "-//W3C//DTD SVG 1.1//EN"
"http://www.w3.org/Graphics/SVG/1.1/DTD/svg11.dtd">
<svg viewBox="0 0 931 1096" version="1.1" xmlns="http://www.w3.org/2000/svg" xmlns:xlink="http://www.w3.org/1999/xlink">
<defs>
<clipPath id="c0_443"><path d="M0,1026.4V780.3H880.3v246.1Z"/></clipPath>
<style type="text/css"><![CDATA[
.g0_443{
fill: #E8F6FE;
}
.g1_443{
fill: none;
stroke: #241F1F;
stroke-width: 0.763;
stroke-miterlimit: 10;
}
.g2_443{
fill: none;
stroke: #EE008C;
stroke-width: 0.916;
stroke-linejoin: round;
}
.g3_443{
fill: none;
stroke: #89898B;
stroke-width: 0.534;
stroke-miterlimit: 3;
}
.g4_443{
fill: #FFF;
}
.g5_443{
fill: none;
stroke: #241F1F;
stroke-width: 0.611;
stroke-miterlimit: 3;
}
.g6_443{
fill: #241F1F;
}
.g7_443{
fill: none;
stroke: #EE008C;
stroke-width: 1.069;
stroke-miterlimit: 3;
}
.g8_443{
fill: none;
stroke: #008048;
stroke-width: 3.055;
stroke-miterlimit: 10;
}
]]></style>
</defs>
<path d="M204.7,148.6h87.1v44.3H204.7Zm87.1,0h87.1v44.3H291.8Z" class="g0_443"/>
<path d="M204.4,361h87.4m0,0h87.5M204.4,148.6h87.4m-87.1,43.9V149m87.1,-.4h87.5m-87.5,43.9V149m87.1,43.5V149M204.4,192.9h87.4m0,0h87.5M204.7,211.2V193.3m87.1,17.9V193.3m87.1,17.9V193.3M204.7,229.6V211.2m87.1,18.4V211.2m87.1,18.4V211.2M204.7,247.9V229.6m87.1,18.3V229.6m87.1,18.3V229.6M204.7,266.2V247.9m87.1,18.3V247.9m87.1,18.3V247.9M204.7,284.6V266.2m87.1,18.4V266.2m87.1,18.4V266.2M204.7,302.9V284.6m87.1,18.3V284.6m87.1,18.3V284.6M204.7,321.2V302.9m87.1,18.3V302.9m87.1,18.3V302.9M204.7,339.6V321.2m87.1,18.4V321.2m87.1,18.4V321.2M204.7,360.6v-21m87.1,21v-21m87.1,21v-21" class="g1_443"/>
<path d="M201.3,662.6c2.1,-1.6,4.2,-2.3,7.7,-2.3c8.6,0,13.5,14.9,17,14.9c3.6,0,3.2,-8.5,4.7,-13.4c1.6,-5,4.1,-10.5,6.4,-10.5c1.6,0,2.5,1.9,4.4,1.9c6.2,0,9.3,-19.7,14.1,-19.7c1.8,0,1.6,2.9,3.4,2.9c2.6,0,2.8,-3.6,5.4,-3.6c1.7,0,4,1.9,5.7,1.9c8.2,0,13.4,-18.4,17,-18.4c3.8,0,.6,8.1,5.2,8.1c2.9,0,4.3,-2.5,7.2,-2.5c3.8,0,4.7,4.2,8.5,4.2c5.5,0,13.4,-18,14.7,-26c1.6,-10.4,3.8,-13.8,6.8,-23.7c1.1,-3.6,4.1,-6.5,7.7,-6.5c6.3,0,8.1,-.5,11.2,-5.6" class="g2_443"/>
<path d="M201.2,616.3H366.3m-36.7,-55V726.4M219.5,561.3V726.4M311.3,561.3V726.4M292.9,561.3V726.4M274.6,561.3V726.4M256.2,561.3V726.4M237.9,561.3V726.4M201.2,708.1H366.3M201.2,689.7H366.3M201.2,671.4H366.3M201.2,653H366.3M201.2,634.7H366.3M348,561.3V726.4M201.2,579.6H366.3M201.2,598H366.3" class="g3_443"/>
<path d="M267.8,741.5h13.8V727.7H267.8v13.8Z" class="g4_443"/>
<path d="M304.5,741.5h13.8V727.7H304.5v13.8Z" class="g4_443"/>
<path d="M181.1,659.7h17.5V646H181.1v13.7Z" class="g4_443"/>
<path d="M201.6,726V565.9" class="g5_443"/>
<path fill-rule="evenodd" d="M201.6,565.9l-2.4,1.6l2.4,-6.5l2.5,6.5Z" class="g6_443"/>
<path d="M181.1,586.3h17.5V572.6H181.1v13.7Z" class="g4_443"/>
<path d="M231.1,741.5h13.8V727.7H231.1v13.8Z" class="g4_443"/>
<path d="M341.2,741.5H355V727.7H341.2v13.8Z" class="g4_443"/>
<path d="M186.4,570.7h12.2V556.9H186.4v13.8Z" class="g4_443"/>
<path d="M359,741.5h13.7V727.7H359v13.8Z" class="g4_443"/>
<path d="M201.6,726H362.2" class="g5_443"/>
<path fill-rule="evenodd" d="M362.2,726l-1.7,-2.4L367,726l-6.5,2.5Z" class="g6_443"/>
<path d="M366.3,561.3V726.4M201.3,561.3h165M569.8,338.8H863.1M569.8,320.4H863.1M569.8,210.5H863.1M569.8,302.1H863.1m-12.3,-110V349.5m0,4.6v12.2M838.6,192.1V349.5m0,4.6v12.2M826.4,192.1V349.5m0,4.6v12.2M814.2,192.1V349.5m0,4.6v12.2M802,192.1V349.5m0,4.6v12.2M789.7,192.1V349.5m0,4.6v12.2M777.5,192.1V349.5m0,4.6v12.2M765.3,192.1V349.5m0,4.6v12.2M753.1,192.1V349.5m0,4.6v12.2M740.9,192.1V349.5m0,4.6v12.2M728.6,192.1V349.5m0,4.6v12.2M716.4,192.1V349.5m0,4.6v12.2M704.2,192.1V349.5m0,4.6v12.2M692,192.1V349.5m0,4.6v12.2M679.8,192.1V349.5m0,4.6v12.2M667.5,192.1V349.5m0,4.6v12.2M655.3,192.1V349.5m0,4.6v12.2M643.1,192.1V349.5m0,4.6v12.2M630.9,192.1V349.5m0,4.6v12.2M618.7,192.1V349.5m0,4.6v12.2M606.5,192.1V349.5m0,4.6v12.2M594.2,192.1V349.5m0,4.6v12.2M582,192.1V349.5m0,4.6v12.2M569.8,247.1H863.1M569.8,265.5H863.1M569.8,283.8H863.1m-293.3,-55H863.1M569.8,349.5V192.1H863.1V349.5m0,4.8v12H569.8V354.1" class="g3_443"/>
<path d="M569.8,349.5V196.7m0,169.6V354.1" class="g5_443"/>
<path fill-rule="evenodd" d="M569.8,196.7l-2.4,1.7l2.4,-6.6l2.4,6.6Z" class="g6_443"/>
<path d="M569.8,366.3H863.1" class="g5_443"/>
<path fill-rule="evenodd" d="M858.5,366.3l-1.7,-2.5l6.6,2.5l-6.6,2.4Z" class="g6_443"/>
<path d="M570.7,308.7c.9,2.8,5.2,4.8,7.1,6.3c1.9,1.5,3,4.7,4.2,5.9c1.3,1.1,6.4,3,7.8,3c1.4,0,2,-.9,3.1,-.9c1,0,.9,3.4,2.4,3.4c2.3,0,4.9,-.6,6.2,-.6c1.3,0,1.5,.5,3.2,.5c1,0,.3,5.8,2.2,4.8c1.9,-1,3.7,-1.9,5.1,-1.5c1.4,.3,3.6,-.2,4.8,-.8c1.1,-.6,4.8,-4.9,6.6,-5.6c1.8,-.8,3.7,-2.3,4.9,-2.3c1.1,0,1.3,-.6,2.7,-.8c1.4,-.1,2.3,-6.1,4.3,-7.3c2.6,-1.6,5.3,-6.7,6.6,-7.6c2.1,-1.4,6.5,-13.5,6.5,-16.4c0,-3.1,4.4,-7.5,4.4,-11.2c0,-3.7,5.1,-12.7,5.1,-16c0,-3.3,1.7,-8.5,2.8,-8.5c1.1,0,1.5,-3.4,3.3,-3.4c1.8,0,2.7,10.1,3.7,10.1c1,0,2,-3.8,2.8,-3.8c1.6,0,3,-1.5,5.9,-1.5c2.3,0,4.2,-1.8,5.1,-1.8c.8,0,.8,-1.8,1.7,-1.8c.9,0,2.3,-1.3,3.6,-1.3c1.3,0,1.6,-1,3.8,-1c2.2,0,4.7,-2.6,6.9,-2.6c2.1,0,7.2,-3,8.6,-3.3c1.4,-.2,.7,1.8,2.9,1.3c2.1,-.5,5.2,1.8,7.1,1.5c1.9,-.2,2.4,-1.5,4.3,-2.2c1.9,-.8,7.9,14.7,10.7,14.7c2.8,0,1.8,-1.3,3.5,-1.8c1.8,-.5,4.8,.8,6.2,.8c1.4,0,1.9,7.1,3,7.4c1.2,.2,2.1,-1.7,3.6,-1.8c1.5,-.1,5.9,-7.4,8.1,-7.4c.8,0,4.2,-1.8,4.9,-1.8c1,0,1.6,-3,2.8,-3.3c1.1,-.2,1.9,-2.8,3.5,-3.3c1.7,-.5,5.9,3.3,7.5,3c1.7,-.3,2.6,-16.1,3.5,-16.3c.9,-.3,2.4,-9.5,4.6,-10c2.1,-.5,1.1,6.5,3,6.5c.8,0,2.3,-8.3,3.8,-8.4c1.6,-.1,5,3.1,6.1,2.7c1.2,-.4,6.3,-1.4,6.9,-1.5c.2,-.1,1.6,6,2.7,8.4c.3,.6,1.1,-.9,1.4,-.7c.8,.8,.9,1.9,1.6,1.4c.7,-.4,1,-3.8,1.3,-7.2c.2,-3.3,.4,-6.5,.7,-6.5c1.3,0,3.5,-1.5,4.2,-1.5c.6,0,2.9,2.5,3.6,2.4c.8,-.2,7.4,6.8,7.7,10.9c.2,4.1,5.7,19.9,6.1,22.5c.4,2.5,8.5,10.8,8.6,14c.2,3.2,3.6,5.4,3.7,7.8c.2,2.4,3.5,6.5,4.2,6.5c.8,0,2.2,5.7,3.1,5.7c.9,0,4.3,4.9,5.3,6.8c1.1,1.9,4.5,13.1,5.9,12.8" class="g7_443"/>
<path d="M561.2,349.6H713.4l1.6,-2.7l2.2,5l1.6,-2.3H869.7m-308.5,4.7H713.4l1.6,-2.7l2.2,5l1.6,-2.3H869.7" class="g3_443"/>
<path d="M521.4,578.8H720v22.9H521.4Zm198.6,0h68.7v22.9H720Zm68.7,0h90.2v22.9H788.7Z" class="g0_443"/>
<path d="M720,601.3V579.2m68.7,22.1V579.2M521,746.5H720m0,0h68.7m0,0h90.6M720,619.7V602.1m68.7,17.6V602.1M720,637.3V619.7m68.7,17.6V619.7M720,654.8V637.3m68.7,17.5V637.3M720,672.4V654.8m68.7,17.6V654.8M720,690V672.4M788.7,690V672.4M720,707.5V690m68.7,17.5V690M720,725.1V707.5m68.7,17.6V707.5M521.4,746.1v-21m198.6,21v-21m68.7,21v-21m90.2,21v-21M521,578.8H720m0,0h68.7m0,0h90.6M521,601.7H720m0,0h68.7m0,0h90.6m-357.9,-.4V579.2m357.5,22.1V579.2M521.4,619.7V602.1m357.5,17.6V602.1M521.4,637.3V619.7m357.5,17.6V619.7M521.4,654.8V637.3m357.5,17.5V637.3M521.4,672.4V654.8m357.5,17.6V654.8M521.4,690V672.4M878.9,690V672.4M521.4,707.5V690m357.5,17.5V690M521.4,725.1V707.5m357.5,17.6V707.5" class="g1_443"/>
<image clip-path="url(#c0_443)" preserveAspectRatio="none" x="0" y="780" width="880" height="246" xlink:href="img/1.png"/>
<path d="M107,818.7H863.2" class="g8_443"/>
</svg>