<?xml version="1.0" encoding="UTF-8" standalone="no"?>
<!DOCTYPE svg PUBLIC "-//W3C//DTD SVG 1.1//EN"
"http://www.w3.org/Graphics/SVG/1.1/DTD/svg11.dtd">
<svg viewBox="0 0 931 1096" version="1.1" xmlns="http://www.w3.org/2000/svg" xmlns:xlink="http://www.w3.org/1999/xlink">
<defs>
<style type="text/css"><![CDATA[
.g0_310{
fill: #FFF;
}
.g1_310{
fill: none;
stroke: #00AEEF;
stroke-width: 1.145;
}
.g2_310{
fill: none;
stroke: #00AEEF;
stroke-width: 0.763;
}
.g3_310{
fill: none;
stroke: #241F1F;
stroke-width: 0.611;
stroke-miterlimit: 3;
}
.g4_310{
fill: #241F1F;
}
.g5_310{
fill: none;
stroke: #B5B5B6;
stroke-width: 0.763;
stroke-miterlimit: 3;
}
.g6_310{
fill: none;
stroke: #EE008C;
stroke-width: 0.916;
stroke-linejoin: round;
}
.g7_310{
fill: #EE008C;
}
.g8_310{
fill: none;
stroke: #EE008C;
stroke-width: 0.763;
stroke-miterlimit: 3;
}
.g9_310{
fill: none;
stroke: #241F1F;
stroke-width: 0.763;
stroke-miterlimit: 3;
stroke-dasharray: 10,4;
}
.ga_310{
fill: none;
stroke: #00AEEF;
stroke-width: 0.916;
stroke-linejoin: round;
}
.gb_310{
fill: none;
stroke: #969698;
stroke-width: 0.763;
stroke-miterlimit: 3;
}
.gc_310{
fill: #00AEEF;
}
.gd_310{
fill: none;
stroke: #00AEEF;
stroke-width: 0.763;
stroke-miterlimit: 3;
}
]]></style>
</defs>
<path d="M290.7,97.9c0,0,-3.1,0,-3.1,3.1v71c0,0,0,3.1,3.1,3.1H820.1c0,0,3,0,3,-3.1V101c0,0,0,-3.1,-3,-3.1Z" class="g0_310"/>
<path d="M303.8,107.3c0,0,-1.5,0,-1.5,1.5V123c0,0,0,1.5,1.5,1.5H318c0,0,1.5,0,1.5,-1.5V108.8c0,0,0,-1.5,-1.5,-1.5H303.8Z" class="g1_310"/>
<path d="M290.7,97.9c0,0,-3.1,0,-3.1,3.1v71c0,0,0,3.1,3.1,3.1H820.1c0,0,3,0,3,-3.1V101c0,0,0,-3.1,-3,-3.1H290.7Z" class="g2_310"/>
<path d="M313.2,356.2V264.6" class="g3_310"/>
<path fill-rule="evenodd" d="M313.2,264.6l-2.4,1.6l2.4,-6.5l2.5,6.5Z" class="g4_310"/>
<path d="M294.9,337.9H435.4" class="g3_310"/>
<path fill-rule="evenodd" d="M435.4,337.9l-1.6,-2.4l6.5,2.4l-6.5,2.4Z" class="g4_310"/>
<path d="M359.1,283.3v54.2m45.8,-27.1v27.5" class="g5_310"/>
<path d="M331.6,298.2c4.2,-6.1,8.8,-15.3,27.5,-15.3c17.2,0,36.6,27.5,45.8,27.5c8.4,0,11.4,-4.6,13.7,-7.6" class="g6_310"/>
<path d="M329.9,298.2c0,-1,.7,-1.7,1.7,-1.7c.9,0,1.7,.7,1.7,1.7c0,.9,-.8,1.7,-1.7,1.7c-1,0,-1.7,-.8,-1.7,-1.7Z" class="g7_310"/>
<path d="M329.9,298.2c0,-1,.7,-1.7,1.7,-1.7c.9,0,1.7,.7,1.7,1.7c0,.9,-.8,1.7,-1.7,1.7c-1,0,-1.7,-.8,-1.7,-1.7Z" class="g8_310"/>
<path d="M416.9,302.8c0,-1,.8,-1.8,1.7,-1.8c1,0,1.8,.8,1.8,1.8c0,.9,-.8,1.7,-1.8,1.7c-.9,0,-1.7,-.8,-1.7,-1.7Z" class="g7_310"/>
<path d="M416.9,302.8c0,-1,.8,-1.8,1.7,-1.8c1,0,1.8,.8,1.8,1.8c0,.9,-.8,1.7,-1.8,1.7c-.9,0,-1.7,-.8,-1.7,-1.7Z" class="g8_310"/>
<path d="M418.6,335.6v4.6m-87,-4.6v4.6" class="g3_310"/>
<path d="M707.1,301.2c3.4,-7.6,9.9,-18.3,18.3,-18.3c10.7,0,16,33.2,25.2,33.2c9.1,0,14.5,-33.2,25.2,-33.2c8.4,0,14.9,10.7,18.3,18.3" class="g6_310"/>
<path d="M688.7,356.2V264.6" class="g3_310"/>
<path fill-rule="evenodd" d="M688.7,264.6l-2.4,1.6l2.4,-6.5l2.5,6.5Z" class="g4_310"/>
<path d="M670.4,337.9H810.9" class="g3_310"/>
<path fill-rule="evenodd" d="M810.9,337.9l-1.6,-2.4l6.5,2.4l-6.5,2.4Z" class="g4_310"/>
<path d="M775.8,282.9v55M750.6,316.1v21.8m-25.2,-55v55" class="g5_310"/>
<path d="M705.3,301.2c0,-.9,.8,-1.7,1.7,-1.7c1,0,1.8,.8,1.8,1.7c0,1,-.8,1.8,-1.8,1.8c-.9,0,-1.7,-.8,-1.7,-1.8Z" class="g7_310"/>
<path d="M705.3,301.2c0,-.9,.8,-1.7,1.7,-1.7c1,0,1.8,.8,1.8,1.7c0,1,-.8,1.8,-1.8,1.8c-.9,0,-1.7,-.8,-1.7,-1.8Z" class="g8_310"/>
<path d="M792.4,301.2c0,-.9,.8,-1.7,1.7,-1.7c1,0,1.7,.8,1.7,1.7c0,1,-.7,1.8,-1.7,1.8c-.9,0,-1.7,-.8,-1.7,-1.8Z" class="g7_310"/>
<path d="M792.4,301.2c0,-.9,.8,-1.7,1.7,-1.7c1,0,1.7,.8,1.7,1.7c0,1,-.7,1.8,-1.7,1.8c-.9,0,-1.7,-.8,-1.7,-1.8Z" class="g8_310"/>
<path d="M501.1,356.2V264.6m293,71v4.6M707,335.6v4.6" class="g3_310"/>
<path fill-rule="evenodd" d="M501.1,264.6l-2.4,1.6l2.4,-6.5l2.5,6.5Z" class="g4_310"/>
<path d="M482.8,337.9H623.3" class="g3_310"/>
<path fill-rule="evenodd" d="M623.3,337.9l-1.6,-2.4l6.5,2.4l-6.5,2.4Z" class="g4_310"/>
<path d="M546.9,282.9v55m45.9,-27.5v27.5" class="g5_310"/>
<path d="M519.5,301.2c3.4,-7.6,8.7,-18.3,27.4,-18.3c17.2,0,40.9,19.9,45.9,27.5" class="g6_310"/>
<path d="M517.7,301.2c0,-.9,.8,-1.7,1.8,-1.7c.9,0,1.7,.8,1.7,1.7c0,1,-.8,1.8,-1.7,1.8c-1,0,-1.8,-.8,-1.8,-1.8Z" class="g7_310"/>
<path d="M517.7,301.2c0,-.9,.8,-1.7,1.8,-1.7c.9,0,1.7,.8,1.7,1.7c0,1,-.8,1.8,-1.7,1.8c-1,0,-1.8,-.8,-1.8,-1.8Z" class="g8_310"/>
<path d="M591.1,310.4c0,-.9,.7,-1.7,1.7,-1.7c.9,0,1.7,.8,1.7,1.7c0,1,-.8,1.7,-1.7,1.7c-1,0,-1.7,-.7,-1.7,-1.7Z" class="g7_310"/>
<path d="M591.1,310.4c0,-.9,.7,-1.7,1.7,-1.7c.9,0,1.7,.8,1.7,1.7c0,1,-.8,1.7,-1.7,1.7c-1,0,-1.7,-.7,-1.7,-1.7Z" class="g8_310"/>
<path d="M592.8,335.6v4.6m-73.3,-4.6v4.6" class="g3_310"/>
<path d="M343.3,568.3c18.1,0,34.4,-52.9,36.7,-73.3m230.5,73.3c47.7,0,68.7,-62.8,70.2,-90.1" class="g6_310"/>
<path d="M610.5,641.6V476.7" class="g3_310"/>
<path fill-rule="evenodd" d="M610.5,476.7l-2.5,1.6l2.5,-6.5l2.4,6.5Z" class="g4_310"/>
<path d="M555.5,605H720.4" class="g3_310"/>
<path fill-rule="evenodd" d="M720.4,605l-1.6,-2.5l6.5,2.5l-6.5,2.4Z" class="g4_310"/>
<path d="M613.5,568.3h-6.1" class="g3_310"/>
<path d="M608.8,568.3c0,-.9,.7,-1.7,1.7,-1.7c.9,0,1.7,.8,1.7,1.7c0,1,-.8,1.7,-1.7,1.7c-1,0,-1.7,-.7,-1.7,-1.7Z" class="g0_310"/>
<path d="M608.8,568.3c0,-.9,.7,-1.7,1.7,-1.7c.9,0,1.7,.8,1.7,1.7c0,1,-.8,1.7,-1.7,1.7c-1,0,-1.7,-.7,-1.7,-1.7Z" class="g8_310"/>
<path d="M683.8,601.9V608" class="g3_310"/>
<path d="M683.8,478.2V601.9" class="g9_310"/>
<path d="M343.3,641.6V476.7" class="g3_310"/>
<path fill-rule="evenodd" d="M343.3,476.7l-2.4,1.6l2.4,-6.5l2.5,6.5Z" class="g4_310"/>
<path d="M288.4,605H453.2" class="g3_310"/>
<path fill-rule="evenodd" d="M453.2,605l-1.6,-2.5l6.5,2.5l-6.5,2.4Z" class="g4_310"/>
<path d="M346.4,568.3h-6.1M380,601.9V608" class="g3_310"/>
<path d="M341.6,568.3c0,-.9,.8,-1.7,1.7,-1.7c1,0,1.7,.8,1.7,1.7c0,1,-.7,1.7,-1.7,1.7c-.9,0,-1.7,-.7,-1.7,-1.7Z" class="g7_310"/>
<path d="M341.6,568.3c0,-.9,.8,-1.7,1.7,-1.7c1,0,1.7,.8,1.7,1.7c0,1,-.7,1.7,-1.7,1.7c-.9,0,-1.7,-.7,-1.7,-1.7Z" class="g8_310"/>
<path d="M378.2,495c0,-.9,.8,-1.7,1.8,-1.7c.9,0,1.7,.8,1.7,1.7c0,1,-.8,1.8,-1.7,1.8c-1,0,-1.8,-.8,-1.8,-1.8Z" class="g0_310"/>
<path d="M378.2,495c0,-.9,.8,-1.7,1.8,-1.7c.9,0,1.7,.8,1.7,1.7c0,1,-.8,1.8,-1.7,1.8c-1,0,-1.8,-.8,-1.8,-1.8Z" class="g8_310"/>
<path d="M416.6,601.9V608M346.4,495h-6.1" class="g3_310"/>
<path d="M416.6,605C399,590.2,381.5,552,380,531.7" class="g6_310"/>
<path d="M414.9,605c0,-1,.7,-1.8,1.7,-1.8c.9,0,1.7,.8,1.7,1.8c0,.9,-.8,1.7,-1.7,1.7c-1,0,-1.7,-.8,-1.7,-1.7Z" class="g7_310"/>
<path d="M414.9,605c0,-1,.7,-1.8,1.7,-1.8c.9,0,1.7,.8,1.7,1.8c0,.9,-.8,1.7,-1.7,1.7c-1,0,-1.7,-.8,-1.7,-1.7Z" class="g8_310"/>
<path d="M378.2,531.7c0,-1,.8,-1.7,1.8,-1.7c.9,0,1.7,.7,1.7,1.7c0,.9,-.8,1.7,-1.7,1.7c-1,0,-1.8,-.8,-1.8,-1.7Z" class="g7_310"/>
<path d="M378.2,531.7c0,-1,.8,-1.7,1.8,-1.7c.9,0,1.7,.7,1.7,1.7c0,.9,-.8,1.7,-1.7,1.7c-1,0,-1.8,-.8,-1.8,-1.7Z" class="g8_310"/>
<path d="M53.5,964.7H256.8" class="g3_310"/>
<path fill-rule="evenodd" d="M256.8,964.7l-1.6,-2.4l6.5,2.4l-6.5,2.5Z" class="g4_310"/>
<path fill-rule="evenodd" d="M76.9,859.3l-2.5,1.6l2.5,-6.5l2.4,6.5Z" class="g4_310"/>
<path d="M54.4,944.6c5.3,-16.1,25,-9.9,42.2,-40.5c18,-32.1,47,-11.3,63.4,7.5c19.2,21.8,57,44.1,95.9,-23.6" class="ga_310"/>
<path d="M233.2,933.4H167.6m-12.4,-46H89.7" class="g6_310"/>
<path d="M120.1,887.4v77.4m80.4,-31.4v31.4" class="gb_310"/>
<path d="M118.4,887.4c0,-.9,.7,-1.7,1.7,-1.7c.9,0,1.7,.8,1.7,1.7c0,1,-.8,1.8,-1.7,1.8c-1,0,-1.7,-.8,-1.7,-1.8Z" class="gc_310"/>
<path d="M118.4,887.4c0,-.9,.7,-1.7,1.7,-1.7c.9,0,1.7,.8,1.7,1.7c0,1,-.8,1.8,-1.7,1.8c-1,0,-1.7,-.8,-1.7,-1.8Z" class="gd_310"/>
<path d="M198.7,933.4c0,-1,.8,-1.7,1.8,-1.7c.9,0,1.7,.7,1.7,1.7c0,.9,-.8,1.7,-1.7,1.7c-1,0,-1.8,-.8,-1.8,-1.7Z" class="gc_310"/>
<path d="M198.7,933.4c0,-1,.8,-1.7,1.8,-1.7c.9,0,1.7,.7,1.7,1.7c0,.9,-.8,1.7,-1.7,1.7c-1,0,-1.8,-.8,-1.8,-1.7Z" class="gd_310"/>
<path d="M76.9,989.8V859.3" class="g3_310"/>
</svg>