<?xml version="1.0" encoding="UTF-8" standalone="no"?>
<!DOCTYPE svg PUBLIC "-//W3C//DTD SVG 1.1//EN"
"http://www.w3.org/Graphics/SVG/1.1/DTD/svg11.dtd">
<svg viewBox="0 0 770 1017" version="1.1" xmlns="http://www.w3.org/2000/svg" xmlns:xlink="http://www.w3.org/1999/xlink">
<defs>
<clipPath id="c0_33"><path d="M245.9,309.7v-4.9h-7.5l6.3,2.4l-6.3,2.5Zm-127,15.7v-223h550v223Z"/></clipPath>
<clipPath id="c1_33"><path d="M245.9,225.2v-4.9h-7.5l6.3,2.4l-6.3,2.5Zm-127,100.2v-223h550v223Z"/></clipPath>
<clipPath id="c2_33"><path d="M245.9,161.8v-4.9h-7.5l6.3,2.5l-6.3,2.4Zm-127,163.6v-223h550v223Z"/></clipPath>
<clipPath id="c3_33"><path d="M245.9,119.6v-5h-7.5l6.3,2.5l-6.3,2.5Zm-127,205.8v-223h550v223Z"/></clipPath>
<clipPath id="c4_33"><path d="M552.2,316.7v-4.9h-7.5l6.3,2.5l-6.3,2.4Zm-433.3,8.7v-223h550v223Z"/></clipPath>
<clipPath id="c5_33"><path d="M555.7,228.7v-4.9h-7.5l6.3,2.5l-6.3,2.4ZM118.9,325.4v-223h550v223Z"/></clipPath>
<clipPath id="c6_33"><path d="M559.3,133.6v-4.9h-7.6l6.3,2.5l-6.3,2.4ZM118.9,325.4v-223h550v223Z"/></clipPath>
<clipPath id="c7_33"><path d="M638.4,163.9l2.7,-.8L639,156.3l.3,5.8l-3,-5l2.1,6.8ZM118.9,325.4v-223H621.5l-1.2,.4l2.1,6.8l-.2,-5.8l2.9,5l-1.9,-6.4h45.7v223Z"/></clipPath>
<style type="text/css"><![CDATA[
.g0_33{
fill: none;
stroke: #000000;
stroke-width: 0.618;
stroke-linecap: butt;
stroke-linejoin: miter;
}
.g1_33{
stroke: #000000;
stroke-width: 0.351;
stroke-linecap: butt;
stroke-linejoin: miter;
}
.g2_33{
fill: none;
stroke: #000000;
stroke-width: 0.351;
stroke-linecap: butt;
stroke-linejoin: miter;
}
.g3_33{
}
.g4_33{
fill: none;
stroke: #000000;
stroke-width: 1.408;
stroke-linecap: butt;
stroke-linejoin: miter;
}
.g5_33{
fill: none;
stroke: #000000;
stroke-width: 0.351;
stroke-linecap: butt;
stroke-linejoin: miter;
stroke-dasharray: 3;
}
]]></style>
</defs>
<path d="M74.2,69.2H713.5" class="g0_33"/>
<path fill-rule="evenodd" d="M582.4,131.2c0,1.5,-1.2,2.7,-2.7,2.7c-1.5,0,-2.7,-1.2,-2.7,-2.7c0,-1.5,1.2,-2.7,2.7,-2.7c1.5,0,2.7,1.2,2.7,2.7Z" class="g1_33"/>
<path fill-rule="evenodd" d="M600.8,117.1c0,1.5,-1.2,2.7,-2.7,2.7c-1.5,0,-2.7,-1.2,-2.7,-2.7c0,-1.5,1.2,-2.7,2.7,-2.7c1.5,0,2.7,1.2,2.7,2.7Z" class="g1_33"/>
<path fill-rule="evenodd" d="M497.9,145.3c0,1.5,-1.2,2.7,-2.7,2.7c-1.5,0,-2.7,-1.2,-2.7,-2.7c0,-1.5,1.2,-2.7,2.7,-2.7c1.5,0,2.7,1.2,2.7,2.7Z" class="g1_33"/>
<path fill-rule="evenodd" d="M508.5,138.3c0,1.5,-1.2,2.7,-2.8,2.7c-1.5,0,-2.7,-1.2,-2.7,-2.7c0,-1.5,1.2,-2.8,2.7,-2.8c1.6,0,2.8,1.3,2.8,2.8Z" class="g1_33"/>
<path fill-rule="evenodd" d="M512,120.7c0,1.5,-1.2,2.7,-2.7,2.7c-1.5,0,-2.8,-1.2,-2.8,-2.7c0,-1.5,1.3,-2.8,2.8,-2.8c1.5,0,2.7,1.3,2.7,2.8Z" class="g1_33"/>
<path fill-rule="evenodd" d="M497.9,128.5c0,1.5,-1.2,2.7,-2.7,2.7c-1.5,0,-2.7,-1.2,-2.7,-2.7c0,-1.5,1.2,-2.7,2.7,-2.7c1.5,0,2.7,1.2,2.7,2.7Z" class="g1_33"/>
<path fill-rule="evenodd" d="M494.4,113.6c0,1.5,-1.2,2.7,-2.7,2.7c-1.5,0,-2.8,-1.2,-2.8,-2.7c0,-1.5,1.3,-2.7,2.8,-2.7c1.5,0,2.7,1.2,2.7,2.7Z" class="g1_33"/>
<path fill-rule="evenodd" d="M473.2,134.7c0,1.5,-1.2,2.7,-2.7,2.7c-1.5,0,-2.7,-1.2,-2.7,-2.7c0,-1.5,1.2,-2.7,2.7,-2.7c1.5,0,2.7,1.2,2.7,2.7Z" class="g1_33"/>
<path fill-rule="evenodd" d="M459.2,148.8c0,1.5,-1.2,2.7,-2.7,2.7c-1.5,0,-2.8,-1.2,-2.8,-2.7c0,-1.5,1.3,-2.7,2.8,-2.7c1.5,0,2.7,1.2,2.7,2.7Z" class="g1_33"/>
<path fill-rule="evenodd" d="M445.1,152.3c0,1.5,-1.2,2.7,-2.7,2.7c-1.5,0,-2.7,-1.2,-2.7,-2.7c0,-1.5,1.2,-2.7,2.7,-2.7c1.5,0,2.7,1.2,2.7,2.7Z" class="g1_33"/>
<path fill-rule="evenodd" d="M427.5,145.3c0,1.5,-1.2,2.7,-2.7,2.7c-1.5,0,-2.7,-1.2,-2.7,-2.7c0,-1.5,1.2,-2.7,2.7,-2.7c1.5,0,2.7,1.2,2.7,2.7Z" class="g1_33"/>
<path fill-rule="evenodd" d="M448.6,138.3c0,1.5,-1.2,2.7,-2.7,2.7c-1.5,0,-2.7,-1.2,-2.7,-2.7c0,-1.5,1.2,-2.8,2.7,-2.8c1.5,0,2.7,1.3,2.7,2.8Z" class="g1_33"/>
<path fill-rule="evenodd" d="M431,131.2c0,1.5,-1.2,2.7,-2.7,2.7c-1.5,0,-2.7,-1.2,-2.7,-2.7c0,-1.5,1.2,-2.7,2.7,-2.7c1.5,0,2.7,1.2,2.7,2.7Z" class="g1_33"/>
<path fill-rule="evenodd" d="M449.4,117.1c0,1.5,-1.2,2.7,-2.7,2.7c-1.5,0,-2.7,-1.2,-2.7,-2.7c0,-1.5,1.2,-2.7,2.7,-2.7c1.5,0,2.7,1.2,2.7,2.7Z" class="g1_33"/>
<path d="M146.6,321.3l35.2,-28.1M210,321.3V293.2l-28.2,28.1m0,0H210m0,-28.1H181.8v28.1M136.1,293.2L122,321.3h24.6L136.1,293.2Z" class="g2_33"/>
<path fill-rule="evenodd" d="M212.7,321.3c0,1.5,-1.2,2.7,-2.7,2.7c-1.5,0,-2.7,-1.2,-2.7,-2.7c0,-1.5,1.2,-2.7,2.7,-2.7c1.5,0,2.7,1.2,2.7,2.7Z" class="g3_33"/>
<path d="M212.7,321.3c0,1.5,-1.2,2.7,-2.7,2.7c-1.5,0,-2.7,-1.2,-2.7,-2.7c0,-1.5,1.2,-2.7,2.7,-2.7c1.5,0,2.7,1.2,2.7,2.7Z" class="g2_33"/>
<path fill-rule="evenodd" d="M184.6,321.3c0,1.5,-1.2,2.7,-2.7,2.7c-1.5,0,-2.8,-1.2,-2.8,-2.7c0,-1.5,1.3,-2.7,2.8,-2.7c1.5,0,2.7,1.2,2.7,2.7Z" class="g3_33"/>
<path d="M184.6,321.3c0,1.5,-1.2,2.7,-2.7,2.7c-1.5,0,-2.8,-1.2,-2.8,-2.7c0,-1.5,1.3,-2.7,2.8,-2.7c1.5,0,2.7,1.2,2.7,2.7Z" class="g2_33"/>
<path fill-rule="evenodd" d="M600,138.3c0,1.5,-1.2,2.7,-2.7,2.7c-1.5,0,-2.7,-1.2,-2.7,-2.7c0,-1.5,1.2,-2.8,2.7,-2.8c1.5,0,2.7,1.3,2.7,2.8Z" class="g1_33"/>
<path clip-path="url(#c0_33)" d="M220.6,307.2h24.6" class="g4_33"/>
<path fill-rule="evenodd" d="M238.4,309.7l6.3,-2.5l-6.3,-2.4v4.9Z" class="g1_33"/>
<path clip-path="url(#c1_33)" d="M220.6,222.7h24.6" class="g4_33"/>
<path fill-rule="evenodd" d="M238.4,225.2l6.3,-2.5l-6.3,-2.4v4.9Z" class="g1_33"/>
<path clip-path="url(#c2_33)" d="M220.6,159.4h24.6" class="g4_33"/>
<path fill-rule="evenodd" d="M238.4,161.8l6.3,-2.4l-6.3,-2.5v4.9Z" class="g1_33"/>
<path clip-path="url(#c3_33)" d="M220.6,117.1h24.6" class="g4_33"/>
<path fill-rule="evenodd" d="M238.4,119.6l6.3,-2.5l-6.3,-2.5v5Z" class="g1_33"/>
<path clip-path="url(#c4_33)" d="M526.9,314.3h24.6" class="g4_33"/>
<path fill-rule="evenodd" d="M544.7,316.7l6.3,-2.4l-6.3,-2.5v4.9Z" class="g1_33"/>
<path clip-path="url(#c5_33)" d="M530.4,226.3H555" class="g4_33"/>
<path fill-rule="evenodd" d="M548.2,228.7l6.3,-2.4l-6.3,-2.5v4.9Z" class="g1_33"/>
<path clip-path="url(#c6_33)" d="M533.9,131.2h24.7" class="g4_33"/>
<path fill-rule="evenodd" d="M551.7,133.6l6.3,-2.4l-6.3,-2.5v4.9Z" class="g1_33"/>
<path clip-path="url(#c7_33)" d="M621.9,103l17.6,59.9" class="g5_33"/>
<path fill-rule="evenodd" d="M625.1,108.8l-2.9,-5l.2,5.8l2.7,-.8Z" class="g3_33"/>
<path d="M625.1,108.8l-2.9,-5l.2,5.8l2.7,-.8Z" class="g2_33"/>
<path fill-rule="evenodd" d="M636.3,157.1l3,5l-.3,-5.8l-2.7,.8Z" class="g1_33"/>
<path fill-rule="evenodd" d="M649.3,145.3c0,1.5,-1.2,2.7,-2.7,2.7c-1.5,0,-2.8,-1.2,-2.8,-2.7c0,-1.5,1.3,-2.7,2.8,-2.7c1.5,0,2.7,1.2,2.7,2.7Z" class="g1_33"/>
<path fill-rule="evenodd" d="M659.9,138.3c0,1.5,-1.3,2.7,-2.8,2.7c-1.5,0,-2.7,-1.2,-2.7,-2.7c0,-1.5,1.2,-2.8,2.7,-2.8c1.5,0,2.8,1.3,2.8,2.8Z" class="g1_33"/>
<path fill-rule="evenodd" d="M663.4,120.7c0,1.5,-1.3,2.7,-2.8,2.7c-1.5,0,-2.7,-1.2,-2.7,-2.7c0,-1.5,1.2,-2.8,2.7,-2.8c1.5,0,2.8,1.3,2.8,2.8Z" class="g1_33"/>
<path fill-rule="evenodd" d="M649.3,128.5c0,1.5,-1.2,2.7,-2.7,2.7c-1.5,0,-2.8,-1.2,-2.8,-2.7c0,-1.5,1.3,-2.7,2.8,-2.7c1.5,0,2.7,1.2,2.7,2.7Z" class="g1_33"/>
<path fill-rule="evenodd" d="M645.8,113.6c0,1.5,-1.3,2.7,-2.8,2.7c-1.5,0,-2.7,-1.2,-2.7,-2.7c0,-1.5,1.2,-2.7,2.7,-2.7c1.5,0,2.8,1.2,2.8,2.7Z" class="g1_33"/>
<path fill-rule="evenodd" d="M624.6,134.7c0,1.5,-1.2,2.7,-2.7,2.7c-1.5,0,-2.7,-1.2,-2.7,-2.7c0,-1.5,1.2,-2.7,2.7,-2.7c1.5,0,2.7,1.2,2.7,2.7Z" class="g1_33"/>
<path fill-rule="evenodd" d="M610.6,148.8c0,1.5,-1.3,2.7,-2.8,2.7c-1.5,0,-2.7,-1.2,-2.7,-2.7c0,-1.5,1.2,-2.7,2.7,-2.7c1.5,0,2.8,1.2,2.8,2.7Z" class="g1_33"/>
<path fill-rule="evenodd" d="M596.5,152.3c0,1.5,-1.2,2.7,-2.7,2.7c-1.5,0,-2.8,-1.2,-2.8,-2.7c0,-1.5,1.3,-2.7,2.8,-2.7c1.5,0,2.7,1.2,2.7,2.7Z" class="g1_33"/>
<path fill-rule="evenodd" d="M578.9,145.3c0,1.5,-1.2,2.7,-2.7,2.7c-1.5,0,-2.8,-1.2,-2.8,-2.7c0,-1.5,1.3,-2.7,2.8,-2.7c1.5,0,2.7,1.2,2.7,2.7Z" class="g1_33"/>
<path fill-rule="evenodd" d="M212.7,293.2c0,1.5,-1.2,2.7,-2.7,2.7c-1.5,0,-2.7,-1.2,-2.7,-2.7c0,-1.5,1.2,-2.7,2.7,-2.7c1.5,0,2.7,1.2,2.7,2.7Z" class="g1_33"/>
<path d="M301.5,201.6l-21.1,24.7" class="g5_33"/>
<path d="M319.2,226.3l-7.1,24.6" class="g2_33"/>
<path d="M301.5,201.6l17.7,24.7" class="g5_33"/>
<path d="M280.4,226.3L291,250.9M280.4,226.3l-10.5,24.6" class="g2_33"/>
<path fill-rule="evenodd" d="M284,226.3c0,1.5,-1.3,2.7,-2.8,2.7c-1.5,0,-2.7,-1.2,-2.7,-2.7c0,-1.5,1.2,-2.8,2.7,-2.8c1.5,0,2.8,1.3,2.8,2.8Z" class="g1_33"/>
<path fill-rule="evenodd" d="M321.9,226.3c0,1.5,-1.3,2.7,-2.8,2.7c-1.5,0,-2.7,-1.2,-2.7,-2.7c0,-1.5,1.2,-2.8,2.7,-2.8c1.5,0,2.8,1.3,2.8,2.8Z" class="g1_33"/>
<path fill-rule="evenodd" d="M314.8,250.9c0,1.5,-1.2,2.7,-2.7,2.7c-1.5,0,-2.7,-1.2,-2.7,-2.7c0,-1.5,1.2,-2.7,2.7,-2.7c1.5,0,2.7,1.2,2.7,2.7Z" class="g1_33"/>
<path fill-rule="evenodd" d="M293.7,250.9c0,1.5,-1.2,2.7,-2.7,2.7c-1.5,0,-2.7,-1.2,-2.7,-2.7c0,-1.5,1.2,-2.7,2.7,-2.7c1.5,0,2.7,1.2,2.7,2.7Z" class="g1_33"/>
<path fill-rule="evenodd" d="M272.6,250.9c0,1.5,-1.2,2.7,-2.7,2.7c-1.5,0,-2.8,-1.2,-2.8,-2.7c0,-1.5,1.3,-2.7,2.8,-2.7c1.5,0,2.7,1.2,2.7,2.7Z" class="g1_33"/>
<path fill-rule="evenodd" d="M304.2,201.6c0,1.5,-1.2,2.7,-2.7,2.7c-1.5,0,-2.7,-1.2,-2.7,-2.7c0,-1.5,1.2,-2.7,2.7,-2.7c1.5,0,2.7,1.2,2.7,2.7Z" class="g1_33"/>
<path d="M195.9,226.3l-7,24.6M178.3,201.6l17.6,24.7m-38.7,0l10.6,24.6M157.2,226.3l-10.6,24.6m31.7,-49.3l-21.1,24.7" class="g2_33"/>
<path fill-rule="evenodd" d="M160.7,226.3c0,1.5,-1.2,2.7,-2.7,2.7c-1.5,0,-2.7,-1.2,-2.7,-2.7c0,-1.5,1.2,-2.8,2.7,-2.8c1.5,0,2.7,1.3,2.7,2.8Z" class="g1_33"/>
<path fill-rule="evenodd" d="M198.7,226.3c0,1.5,-1.3,2.7,-2.8,2.7c-1.5,0,-2.7,-1.2,-2.7,-2.7c0,-1.5,1.2,-2.8,2.7,-2.8c1.5,0,2.8,1.3,2.8,2.8Z" class="g1_33"/>
<path fill-rule="evenodd" d="M191.6,250.9c0,1.5,-1.2,2.7,-2.7,2.7c-1.5,0,-2.7,-1.2,-2.7,-2.7c0,-1.5,1.2,-2.7,2.7,-2.7c1.5,0,2.7,1.2,2.7,2.7Z" class="g1_33"/>
<path fill-rule="evenodd" d="M170.5,250.9c0,1.5,-1.2,2.7,-2.7,2.7c-1.6,0,-2.8,-1.2,-2.8,-2.7c0,-1.5,1.2,-2.7,2.8,-2.7c1.5,0,2.7,1.2,2.7,2.7Z" class="g1_33"/>
<path fill-rule="evenodd" d="M149.4,250.9c0,1.5,-1.3,2.7,-2.8,2.7c-1.5,0,-2.7,-1.2,-2.7,-2.7c0,-1.5,1.2,-2.7,2.7,-2.7c1.5,0,2.8,1.2,2.8,2.7Z" class="g1_33"/>
<path fill-rule="evenodd" d="M181,201.6c0,1.5,-1.2,2.7,-2.7,2.7c-1.5,0,-2.7,-1.2,-2.7,-2.7c0,-1.5,1.2,-2.7,2.7,-2.7c1.5,0,2.7,1.2,2.7,2.7Z" class="g1_33"/>
<path fill-rule="evenodd" d="M276.1,293.2c0,1.5,-1.2,2.7,-2.7,2.7c-1.5,0,-2.7,-1.2,-2.7,-2.7c0,-1.5,1.2,-2.7,2.7,-2.7c1.5,0,2.7,1.2,2.7,2.7Z" class="g1_33"/>
<path fill-rule="evenodd" d="M184.6,293.2c0,1.5,-1.2,2.7,-2.7,2.7c-1.5,0,-2.8,-1.2,-2.8,-2.7c0,-1.5,1.3,-2.7,2.8,-2.7c1.5,0,2.7,1.2,2.7,2.7Z" class="g1_33"/>
<path fill-rule="evenodd" d="M124.7,321.3c0,1.5,-1.2,2.7,-2.7,2.7c-1.5,0,-2.7,-1.2,-2.7,-2.7c0,-1.5,1.2,-2.7,2.7,-2.7c1.5,0,2.7,1.2,2.7,2.7Z" class="g3_33"/>
<path d="M124.7,321.3c0,1.5,-1.2,2.7,-2.7,2.7c-1.5,0,-2.7,-1.2,-2.7,-2.7c0,-1.5,1.2,-2.7,2.7,-2.7c1.5,0,2.7,1.2,2.7,2.7Z" class="g2_33"/>
<path fill-rule="evenodd" d="M149.4,321.3c0,1.5,-1.3,2.7,-2.8,2.7c-1.5,0,-2.7,-1.2,-2.7,-2.7c0,-1.5,1.2,-2.7,2.7,-2.7c1.5,0,2.8,1.2,2.8,2.7Z" class="g3_33"/>
<path d="M149.4,321.3c0,1.5,-1.3,2.7,-2.8,2.7c-1.5,0,-2.7,-1.2,-2.7,-2.7c0,-1.5,1.2,-2.7,2.7,-2.7c1.5,0,2.8,1.2,2.8,2.7Z" class="g2_33"/>
<path fill-rule="evenodd" d="M138.8,293.2c0,1.5,-1.2,2.7,-2.7,2.7c-1.5,0,-2.7,-1.2,-2.7,-2.7c0,-1.5,1.2,-2.7,2.7,-2.7c1.5,0,2.7,1.2,2.7,2.7Z" class="g1_33"/>
<path d="M588.8,218L567.7,203.9l14,56.3l-17.6,10.6l49.3,-7L599.3,235.6Zm74.9,1.6V209L653.1,180.8L632,201.9L614.4,180.8L600.3,209l10.5,17.6l24.7,-14.1Z" class="g2_33"/>
<path d="M452.9,215.7l10.6,17.6" class="g5_33"/>
<path d="M516.3,215.7L505.7,187.5l-21.1,21.2L467,187.5l-14.1,28.2L431.8,201.6l14.1,56.3l-17.6,10.6l49.3,-7L463.5,233.3l24.6,-14.1l28.2,7.1Zm56.3,91.5v17.6" class="g2_33"/>
<path d="M283.9,321.3l35.3,-28.1" class="g5_33"/>
<path d="M347.3,321.3V293.2l-28.1,28.1m0,0h28.1m0,-28.1H319.2v28.1M273.4,293.2l-14.1,28.1h24.6L273.4,293.2Z" class="g2_33"/>
<path fill-rule="evenodd" d="M350,321.3c0,1.5,-1.2,2.7,-2.7,2.7c-1.5,0,-2.7,-1.2,-2.7,-2.7c0,-1.5,1.2,-2.7,2.7,-2.7c1.5,0,2.7,1.2,2.7,2.7Z" class="g3_33"/>
<path d="M350,321.3c0,1.5,-1.2,2.7,-2.7,2.7c-1.5,0,-2.7,-1.2,-2.7,-2.7c0,-1.5,1.2,-2.7,2.7,-2.7c1.5,0,2.7,1.2,2.7,2.7Z" class="g2_33"/>
<path fill-rule="evenodd" d="M321.9,321.3c0,1.5,-1.3,2.7,-2.8,2.7c-1.5,0,-2.7,-1.2,-2.7,-2.7c0,-1.5,1.2,-2.7,2.7,-2.7c1.5,0,2.8,1.2,2.8,2.7Z" class="g3_33"/>
<path d="M321.9,321.3c0,1.5,-1.3,2.7,-2.8,2.7c-1.5,0,-2.7,-1.2,-2.7,-2.7c0,-1.5,1.2,-2.7,2.7,-2.7c1.5,0,2.8,1.2,2.8,2.7Z" class="g2_33"/>
<path fill-rule="evenodd" d="M350,293.2c0,1.5,-1.2,2.7,-2.7,2.7c-1.5,0,-2.7,-1.2,-2.7,-2.7c0,-1.5,1.2,-2.7,2.7,-2.7c1.5,0,2.7,1.2,2.7,2.7Z" class="g1_33"/>
<path fill-rule="evenodd" d="M321.9,293.2c0,1.5,-1.3,2.7,-2.8,2.7c-1.5,0,-2.7,-1.2,-2.7,-2.7c0,-1.5,1.2,-2.7,2.7,-2.7c1.5,0,2.8,1.2,2.8,2.7Z" class="g1_33"/>
<path fill-rule="evenodd" d="M262,321.3c0,1.5,-1.2,2.7,-2.7,2.7c-1.5,0,-2.7,-1.2,-2.7,-2.7c0,-1.5,1.2,-2.7,2.7,-2.7c1.5,0,2.7,1.2,2.7,2.7Z" class="g3_33"/>
<path d="M262,321.3c0,1.5,-1.2,2.7,-2.7,2.7c-1.5,0,-2.7,-1.2,-2.7,-2.7c0,-1.5,1.2,-2.7,2.7,-2.7c1.5,0,2.7,1.2,2.7,2.7Z" class="g2_33"/>
<path fill-rule="evenodd" d="M286.7,321.3c0,1.5,-1.3,2.7,-2.8,2.7c-1.5,0,-2.7,-1.2,-2.7,-2.7c0,-1.5,1.2,-2.7,2.7,-2.7c1.5,0,2.8,1.2,2.8,2.7Z" class="g3_33"/>
<path d="M286.7,321.3c0,1.5,-1.3,2.7,-2.8,2.7c-1.5,0,-2.7,-1.2,-2.7,-2.7c0,-1.5,1.2,-2.7,2.7,-2.7c1.5,0,2.8,1.2,2.8,2.7Z" class="g2_33"/>
<path d="M83.4,396.6h621M83.7,639.1H619.6M84,680.3V639.4m535.3,40.9V639.4M83.7,680.6H619.6" class="g0_33"/>
</svg>