<?xml version="1.0" encoding="UTF-8" standalone="no"?>
<!DOCTYPE svg PUBLIC "-//W3C//DTD SVG 1.1//EN"
"http://www.w3.org/Graphics/SVG/1.1/DTD/svg11.dtd">
<svg viewBox="0 0 931 1096" version="1.1" xmlns="http://www.w3.org/2000/svg" xmlns:xlink="http://www.w3.org/1999/xlink">
<defs>
<clipPath id="c0_363"><path d="M108.5,603.6V449.7H848.7V603.6Z"/></clipPath>
<clipPath id="c1_363"><path d="M108.5,858.5V745.3h220V858.5Z"/></clipPath>
<style type="text/css"><![CDATA[
.g0_363{
fill: none;
stroke: #5F2E91;
stroke-width: 1.527;
stroke-miterlimit: 10;
}
.g1_363{
fill: #8FC854;
}
.g2_363{
fill: #96CB5D;
}
.g3_363{
fill: #9DCE66;
}
.g4_363{
fill: #A4D16F;
}
.g5_363{
fill: #AAD479;
}
.g6_363{
fill: #B0D782;
}
.g7_363{
fill: #B7DA8B;
}
.g8_363{
fill: #BDDD94;
}
.g9_363{
fill: none;
stroke: #EE008C;
stroke-width: 1.145;
stroke-linejoin: round;
}
.ga_363{
fill: #4ACAF5;
}
.gb_363{
fill: #57CCF5;
}
.gc_363{
fill: #62CDF6;
}
.gd_363{
fill: #6DCFF6;
}
.ge_363{
fill: #77D2F7;
}
.gf_363{
fill: #81D4F7;
}
.gg_363{
fill: #8BD7F8;
}
.gh_363{
fill: #95DAF8;
}
.gi_363{
fill: none;
stroke: #4ACAF5;
stroke-width: 0.916;
stroke-miterlimit: 3;
}
.gj_363{
fill: none;
stroke: #B2E3FA;
stroke-width: 0.763;
stroke-miterlimit: 3;
}
.gk_363{
fill: none;
stroke: #B2E3FA;
stroke-width: 0.305;
stroke-miterlimit: 3;
}
.gl_363{
fill: none;
stroke: #B2E3FA;
stroke-width: 0.381;
stroke-miterlimit: 3;
}
.gm_363{
fill: #5F2E91;
}
]]></style>
</defs>
<path d="M342.2,276.3H878.5" class="g0_363"/>
<path d="M327.4,582H108.6V563.4c4.3,1.7,8,2.4,12.6,.3c5.8,-2.8,11.4,-.6,16.9,1.1c5.7,1.6,13.5,-.3,20.9,-1.1c7.4,-.6,12.6,.1,18.8,.6c6.3,.5,28.1,0,32.4,1.5c6.7,2.8,21.6,.6,31.3,.6c7.2,0,12.6,-1,18.8,.6c5.4,1.3,8.9,-.3,14.2,-1.2c16.7,-2.7,18.4,-.3,25.4,1.2c9.6,1.9,18.2,2.2,27.3,.5Z" class="g1_363"/>
<path d="M327.4,582H108.6V563.8c4.3,1.7,8,2.5,12.6,.3c5.8,-2.7,11.4,-.6,16.9,1.1c5.7,1.7,13.5,-.3,20.9,-1.1c7.4,-.6,12.6,.2,18.8,.6c6.3,.5,28.1,0,32.4,1.6c6.7,2.7,21.6,.6,31.3,.6c7.2,0,12.6,-1.1,18.8,.6c5.4,1.2,8.9,-.3,14.2,-1.2c16.7,-2.8,18.4,-.3,25.4,1.2c9.6,1.8,18.2,2.1,27.3,.5Z" class="g2_363"/>
<path d="M327.4,582H108.6V564.3c4.3,1.6,8,2.4,12.6,.3c5.8,-2.8,11.4,-.6,16.9,1c5.7,1.7,13.5,-.3,20.9,-1c7.4,-.6,12.6,.1,18.8,.6c6.3,.4,28.1,0,32.4,1.5c6.7,2.8,21.6,.6,31.3,.6c7.2,0,12.6,-1,18.8,.6c5.4,1.3,8.9,-.3,14.2,-1.2c16.7,-2.7,18.4,-.3,25.4,1.2c9.6,1.9,18.2,2.2,27.3,.5Z" class="g3_363"/>
<path d="M327.4,582H108.6V564.7c4.3,1.7,8,2.4,12.6,.3c5.8,-2.7,11.4,-.6,16.9,1.1c5.7,1.7,13.5,-.3,20.9,-1.1c7.4,-.6,12.6,.2,18.8,.6c6.3,.5,28.1,0,32.4,1.5c6.7,2.8,21.6,.7,31.3,.7c7.2,0,12.6,-1.1,18.8,.6c5.4,1.2,8.9,-.3,14.2,-1.3c16.7,-2.7,18.4,-.3,25.4,1.3c9.6,1.8,18.2,2.1,27.3,.4Z" class="g4_363"/>
<path d="M327.4,582H108.6V565.1c4.3,1.7,8,2.5,12.6,.3c5.8,-2.7,11.4,-.6,16.9,1.1c5.7,1.7,13.5,-.3,20.9,-1.1c7.4,-.6,12.6,.2,18.8,.7c6.3,.4,28.1,0,32.4,1.5c6.7,2.7,21.6,.6,31.3,.6c7.2,0,12.6,-1.1,18.8,.6c5.4,1.2,8.9,-.3,14.2,-1.2c16.7,-2.8,18.4,-.3,25.4,1.2c9.6,1.8,18.2,2.1,27.3,.5Z" class="g5_363"/>
<path d="M327.4,582H108.6V565.6c4.3,1.6,8,2.4,12.6,.3c5.8,-2.8,11.4,-.6,16.9,1c5.7,1.7,13.5,-.3,20.9,-1c7.4,-.6,12.6,.1,18.8,.6c6.3,.4,28.1,0,32.4,1.5c6.7,2.8,21.6,.6,31.3,.6c7.2,0,12.6,-1,18.8,.6c5.4,1.3,8.9,-.3,14.2,-1.2c16.7,-2.7,18.4,-.3,25.4,1.2c9.6,1.9,18.2,2.2,27.3,.5Z" class="g6_363"/>
<path d="M327.4,582H108.6V566c4.3,1.7,8,2.5,12.6,.3c5.8,-2.7,11.4,-.6,16.9,1.1c5.7,1.7,13.5,-.3,20.9,-1.1c7.4,-.6,12.6,.2,18.8,.6c6.3,.5,28.1,0,32.4,1.6c6.7,2.7,21.6,.6,31.3,.6c7.2,0,12.6,-1.1,18.8,.6c5.4,1.2,8.9,-.3,14.2,-1.2c16.7,-2.8,18.4,-.4,25.4,1.2c9.6,1.8,18.2,2.1,27.3,.4Z" class="g7_363"/>
<path d="M327.4,582H108.6V566.4c4.3,1.7,8,2.5,12.6,.3c5.8,-2.7,11.4,-.6,16.9,1.1c5.7,1.7,13.5,-.3,20.9,-1.1c7.4,-.6,12.6,.2,18.8,.7c6.3,.4,28.1,0,32.4,1.5c6.7,2.7,21.6,.6,31.3,.6c7.2,0,12.6,-1.1,18.8,.6c5.4,1.2,8.9,-.3,14.2,-1.2c16.7,-2.8,18.4,-.3,25.4,1.2c9.6,1.8,18.2,2.1,27.3,.5Z" class="g8_363"/>
<g clip-path="url(#c0_363)">
<path d="M108.6,449.7l.2,88.3c-.5,-.3,.1,-.1,.1,-.1c1.9,-.6,8,.7,10.4,0c5.5,-1.9,9.5,-2.2,15.3,-1.1c4.4,.8,7.2,1.7,11.6,1.1c3.7,-.6,5.8,-1.1,9.3,0c5.1,1.5,10.3,1.8,13.8,1c5.9,-1.2,9.5,.3,15.4,-.6c7.5,-1,14.7,-1.8,19.3,0c4.7,2,9.6,1.2,13.7,0c7.5,-1.8,13.8,-1.3,19.9,0c12.2,2.9,16.8,-4.1,32.4,0c6.2,1.7,11.7,2.9,17.1,1.2c8.2,-2.7,14,-.9,16.5,-.6c7.8,1.1,15.2,1.1,23.8,1.7V449.7Z" class="g1_363"/>
<path d="M108.6,449.7l.2,87.9c-.5,-.3,.1,-.2,.1,-.2c1.9,-.6,8,.8,10.4,0c5.5,-1.8,9.5,-2.1,15.3,-1c4.4,.7,7.2,1.7,11.6,1c3.7,-.6,5.8,-1,9.3,0c5.1,1.6,10.3,1.9,13.8,1.1c5.9,-1.2,9.5,.3,15.4,-.6c7.5,-1.1,14.7,-1.8,19.3,0c4.7,2,9.6,1.2,13.7,0c7.5,-1.8,13.8,-1.4,19.9,0c12.2,2.9,16.8,-4.1,32.4,0c6.2,1.7,11.7,2.9,17.1,1.2c8.2,-2.7,14,-.9,16.5,-.6c7.8,1.1,15.2,1.1,23.8,1.7V449.7Z" class="g2_363"/>
<path d="M108.6,449.7l.2,87.5c-.5,-.4,.1,-.2,.1,-.2c1.9,-.6,8,.8,10.4,0c5.5,-1.8,9.5,-2.1,15.3,-1.1c4.4,.8,7.2,1.7,11.6,1.1c3.7,-.6,5.8,-1.1,9.3,0c5.1,1.5,10.3,1.8,13.8,1.1c5.9,-1.3,9.5,.3,15.4,-.6c7.5,-1.1,14.7,-1.9,19.3,0c4.7,1.9,9.6,1.2,13.7,0c7.5,-1.9,13.8,-1.4,19.9,0c12.2,2.9,16.8,-4.2,32.4,0c6.2,1.6,11.7,2.9,17.1,1.2c8.2,-2.8,14,-.9,16.5,-.6c7.8,1,15.2,1,23.8,1.6v-90Z" class="g3_363"/>
<path d="M108.6,449.7l.2,87c-.5,-.3,.1,-.1,.1,-.1c1.9,-.6,8,.7,10.4,0c5.5,-1.9,9.5,-2.2,15.3,-1.1c4.4,.8,7.2,1.7,11.6,1.1c3.7,-.6,5.8,-1.1,9.3,0c5.1,1.5,10.3,1.8,13.8,1c5.9,-1.2,9.5,.3,15.4,-.6c7.5,-1,14.7,-1.8,19.3,0c4.7,2,9.6,1.3,13.7,0c7.5,-1.8,13.8,-1.3,19.9,0c12.2,2.9,16.8,-4.1,32.4,0c6.2,1.7,11.7,2.9,17.1,1.3c8.2,-2.8,14,-1,16.5,-.7c7.8,1.1,15.2,1.1,23.8,1.7V449.7Z" class="g4_363"/>
<path d="M108.6,449.7l.2,86.6c-.5,-.3,.1,-.2,.1,-.2c1.9,-.6,8,.8,10.4,0c5.5,-1.8,9.5,-2.1,15.3,-1c4.4,.7,7.2,1.6,11.6,1c3.7,-.6,5.8,-1,9.3,0c5.1,1.6,10.3,1.9,13.8,1.1c5.9,-1.2,9.5,.3,15.4,-.6c7.5,-1.1,14.7,-1.8,19.3,0c4.7,2,9.6,1.2,13.7,0c7.5,-1.8,13.8,-1.4,19.9,0c12.2,2.9,16.8,-4.1,32.4,0c6.2,1.7,11.7,2.9,17.1,1.2c8.2,-2.7,14,-.9,16.5,-.6c7.8,1.1,15.2,1.1,23.8,1.7V449.7Z" class="g5_363"/>
<path d="M108.6,449.7l.2,86.2c-.5,-.4,.1,-.2,.1,-.2c1.9,-.6,8,.8,10.4,0c5.5,-1.8,9.5,-2.1,15.3,-1.1c4.4,.8,7.2,1.7,11.6,1.1c3.7,-.6,5.8,-1.1,9.3,0c5.1,1.5,10.3,1.8,13.8,1.1c5.9,-1.3,9.5,.3,15.4,-.6c7.5,-1.1,14.7,-1.9,19.3,0c4.7,1.9,9.6,1.2,13.7,0c7.5,-1.9,13.8,-1.4,19.9,0c12.2,2.9,16.8,-4.2,32.4,0c6.2,1.6,11.7,2.9,17.1,1.2c8.2,-2.8,14,-.9,16.5,-.6c7.8,1,15.2,1,23.8,1.6V449.7Z" class="g6_363"/>
<path d="M108.6,449.7l.2,85.7c-.5,-.3,.1,-.1,.1,-.1c1.9,-.7,8,.7,10.4,0c5.5,-1.9,9.5,-2.2,15.3,-1.1c4.4,.8,7.2,1.7,11.6,1.1c3.7,-.7,5.8,-1.1,9.3,0c5.1,1.5,10.3,1.8,13.8,1c5.9,-1.2,9.5,.3,15.4,-.6c7.5,-1.1,14.7,-1.8,19.3,0c4.7,2,9.6,1.2,13.7,0c7.5,-1.8,13.8,-1.4,19.9,0c12.2,2.9,16.8,-4.1,32.4,0c6.2,1.7,11.7,2.9,17.1,1.2c8.2,-2.7,14,-.9,16.5,-.6c7.8,1.1,15.2,1.1,23.8,1.7V449.7Z" class="g7_363"/>
<path d="M108.6,449.7l.2,85.3c-.5,-.3,.1,-.2,.1,-.2c1.9,-.6,8,.8,10.4,0c5.5,-1.8,9.5,-2.1,15.3,-1.1c4.4,.8,7.2,1.7,11.6,1.1c3.7,-.6,5.8,-1.1,9.3,0c5.1,1.5,10.3,1.8,13.8,1.1c5.9,-1.2,9.5,.3,15.4,-.6c7.5,-1.1,14.7,-1.9,19.3,0c4.7,2,9.6,1.2,13.7,0c7.5,-1.9,13.8,-1.4,19.9,0c12.2,2.9,16.8,-4.2,32.4,0c6.2,1.7,11.7,2.9,17.1,1.2c8.2,-2.8,14,-.9,16.5,-.6c7.8,1.1,15.2,1.1,23.8,1.7V449.7Z" class="g8_363"/>
</g>
<path d="M134,536.5V521.2H302v17.6" class="g9_363"/>
<path d="M327.4,540.9v26.5c-9.2,1.6,-17.9,1.5,-27.5,-.4c-7,-1.5,-8.7,-3.9,-25.4,-1.2c-5.3,.9,-8.8,2.5,-14.2,1.2c-6.2,-1.6,-11.6,-.6,-18.8,-.6c-9.7,0,-24.6,2.2,-31.3,-.6c-4.3,-1.5,-26.1,-1,-32.4,-1.5c-6.2,-.5,-11.4,-1.2,-18.8,-.6c-7.4,.8,-15.2,2.7,-20.9,1.1c-5.5,-1.7,-11.1,-3.9,-16.9,-1.1c-4.6,2.1,-8.3,1.4,-12.6,-.3l.2,-25.4c1.8,-.6,8.1,.6,10.5,-.1c5.5,-1.9,9.5,-2.2,15.3,-1.1c4.4,.8,7.2,1.7,11.6,1.1c3.7,-.6,5.8,-1.1,9.3,0c5.1,1.5,10.3,1.8,13.8,1c5.9,-1.2,9.5,.3,15.4,-.6c7.5,-1,14.7,-1.8,19.3,0c4.7,2,9.6,1.2,13.7,0c7.5,-1.8,13.8,-1.3,19.9,0c12.2,2.9,16.8,-4.1,32.4,0c6.2,1.7,11.7,2.9,17.1,1.2c8.2,-2.7,14,-.9,16.5,-.6c7.8,1.1,15.4,1,23.8,2Z" class="ga_363"/>
<path d="M327.4,541.3V567c-9.2,1.7,-17.9,1.6,-27.5,-.3c-7,-1.5,-8.7,-3.9,-25.4,-1.2c-5.3,.9,-8.8,2.5,-14.2,1.2c-6.2,-1.7,-11.6,-.6,-18.8,-.6c-9.7,0,-24.6,2.2,-31.3,-.6C205.9,564,184.1,564.4,177.8,564c-6.2,-.5,-11.4,-1.2,-18.8,-.6c-7.4,.7,-15.2,2.7,-20.9,1c-5.5,-1.6,-11.1,-3.8,-16.9,-1c-4.6,2.1,-8.3,1.3,-12.6,-.3l.2,-24.7c1.8,-.7,8.1,.6,10.5,-.2c5.5,-1.8,9.5,-2.1,15.3,-1.1c4.4,.8,7.2,1.7,11.6,1.1c3.7,-.6,5.8,-1.1,9.3,0c5.1,1.5,10.3,1.8,13.8,1.1c5.9,-1.2,9.5,.3,15.4,-.6c7.5,-1.1,14.7,-1.9,19.3,0c4.7,1.9,9.6,1.2,13.7,0c7.5,-1.9,13.8,-1.4,19.9,0c12.2,2.9,16.8,-4.2,32.4,0c6.2,1.6,11.7,2.9,17.1,1.2c8.2,-2.8,14,-.9,16.5,-.6c7.8,1,15.4,.9,23.8,2Z" class="gb_363"/>
<path d="M327.4,541.6v25.1c-9.2,1.7,-17.9,1.5,-27.5,-.3c-7,-1.5,-8.7,-4,-25.4,-1.2c-5.3,.9,-8.8,2.4,-14.2,1.2c-6.2,-1.7,-11.6,-.6,-18.8,-.6c-9.7,0,-24.6,2.1,-31.3,-.6c-4.3,-1.5,-26.1,-1.1,-32.4,-1.5c-6.2,-.5,-11.4,-1.3,-18.8,-.7c-7.4,.8,-15.2,2.8,-20.9,1.1C132.6,562.4,127,560.3,121.2,563c-4.6,2.2,-8.3,1.4,-12.6,-.3l.2,-24c1.8,-.6,8.1,.6,10.5,-.2c5.5,-1.8,9.5,-2.1,15.3,-1c4.4,.7,7.2,1.6,11.6,1c3.7,-.6,5.8,-1,9.3,0c5.1,1.6,10.3,1.9,13.8,1.1c5.9,-1.2,9.5,.3,15.4,-.6c7.5,-1.1,14.7,-1.8,19.3,0c4.7,2,9.6,1.2,13.7,0c7.5,-1.8,13.8,-1.4,19.9,0c12.2,2.9,16.8,-4.1,32.4,0c6.2,1.7,11.7,2.9,17.1,1.2c8.2,-2.7,14,-.9,16.5,-.6c7.8,1.1,15.4,.9,23.8,2Z" class="gc_363"/>
<path d="M327.4,541.9v24.5c-9.2,1.7,-17.9,1.5,-27.5,-.3c-7,-1.6,-8.7,-4,-25.4,-1.3c-5.3,1,-8.8,2.5,-14.2,1.3c-6.2,-1.7,-11.6,-.6,-18.8,-.6c-9.7,0,-24.6,2.1,-31.3,-.7c-4.3,-1.5,-26.1,-1,-32.4,-1.5c-6.2,-.4,-11.4,-1.2,-18.8,-.6c-7.4,.8,-15.2,2.8,-20.9,1.1C132.6,562.1,127,560,121.2,562.7c-4.6,2.1,-8.3,1.4,-12.6,-.3l.2,-23.4c1.8,-.6,8.1,.6,10.5,-.1c5.5,-1.9,9.5,-2.2,15.3,-1.1c4.4,.8,7.2,1.7,11.6,1.1c3.7,-.6,5.8,-1.1,9.3,0c5.1,1.5,10.3,1.8,13.8,1c5.9,-1.2,9.5,.3,15.4,-.6c7.5,-1,14.7,-1.8,19.3,0c4.7,2,9.6,1.2,13.7,0c7.5,-1.8,13.8,-1.4,19.9,0c12.2,2.9,16.8,-4.1,32.4,0c6.2,1.7,11.7,2.9,17.1,1.2c8.2,-2.7,14,-.9,16.5,-.6c7.8,1.1,15.4,.9,23.8,2Z" class="gd_363"/>
<path d="M327.4,542.2v23.9c-9.2,1.6,-17.9,1.5,-27.5,-.3c-7,-1.6,-8.7,-4,-25.4,-1.3c-5.3,.9,-8.8,2.5,-14.2,1.3c-6.2,-1.7,-11.6,-.7,-18.8,-.7c-9.7,0,-24.6,2.2,-31.3,-.6c-4.3,-1.5,-26.1,-1,-32.4,-1.5c-6.2,-.5,-11.4,-1.2,-18.8,-.6c-7.4,.8,-15.2,2.7,-20.9,1.1c-5.5,-1.7,-11.1,-3.9,-16.9,-1.1c-4.6,2.1,-8.3,1.4,-12.6,-.3l.2,-22.8c1.8,-.6,8.1,.6,10.5,-.1c5.5,-1.9,9.5,-2.2,15.3,-1.1c4.4,.8,7.2,1.7,11.6,1.1c3.7,-.6,5.8,-1.1,9.3,0c5.1,1.5,10.3,1.8,13.8,1.1c5.9,-1.3,9.5,.3,15.4,-.7c7.5,-1,14.7,-1.8,19.3,0c4.7,2,9.6,1.3,13.7,0c7.5,-1.8,13.8,-1.3,19.9,0c12.2,2.9,16.8,-4.1,32.4,0c6.2,1.7,11.7,2.9,17.1,1.3c8.2,-2.8,14,-1,16.5,-.6c7.8,1,15.4,.9,23.8,1.9Z" class="ge_363"/>
<path d="M327.4,542.6v23.1c-9.2,1.7,-17.9,1.5,-27.5,-.3c-7,-1.5,-8.7,-4,-25.4,-1.2c-5.3,.9,-8.8,2.4,-14.2,1.2c-6.2,-1.7,-11.6,-.6,-18.8,-.6c-9.7,0,-24.6,2.1,-31.3,-.6c-4.3,-1.5,-26.1,-1.1,-32.4,-1.5c-6.2,-.5,-11.4,-1.3,-18.8,-.6c-7.4,.7,-15.2,2.7,-20.9,1c-5.5,-1.7,-11.1,-3.8,-16.9,-1c-4.6,2.1,-8.3,1.3,-12.6,-.4l.2,-22c1.8,-.6,8.1,.6,10.5,-.2c5.5,-1.8,9.5,-2.1,15.3,-1.1c4.4,.8,7.2,1.7,11.6,1.1c3.7,-.6,5.8,-1.1,9.3,0c5.1,1.5,10.3,1.9,13.8,1.1c5.9,-1.2,9.5,.3,15.4,-.6c7.5,-1.1,14.7,-1.9,19.3,0c4.7,2,9.6,1.2,13.7,0c7.5,-1.9,13.8,-1.4,19.9,0c12.2,2.9,16.8,-4.1,32.4,0c6.2,1.7,11.7,2.9,17.1,1.2c8.2,-2.8,14,-.9,16.5,-.6c7.8,1.1,15.4,.9,23.8,2Z" class="gf_363"/>
<path d="M327.4,542.9v22.5c-9.2,1.7,-17.9,1.5,-27.5,-.3c-7,-1.5,-8.7,-4,-25.4,-1.2c-5.3,.9,-8.8,2.4,-14.2,1.2c-6.2,-1.7,-11.6,-.6,-18.8,-.6c-9.7,0,-24.6,2.1,-31.3,-.6c-4.3,-1.6,-26.1,-1.1,-32.4,-1.6c-6.2,-.4,-11.4,-1.2,-18.8,-.6c-7.4,.8,-15.2,2.8,-20.9,1.1C132.6,561.1,127,559,121.2,561.7c-4.6,2.2,-8.3,1.4,-12.6,-.3l.2,-21.4c1.8,-.6,8.1,.6,10.5,-.2c5.5,-1.8,9.5,-2.1,15.3,-1c4.4,.7,7.2,1.7,11.6,1c3.7,-.6,5.8,-1,9.3,0c5.1,1.6,10.3,1.9,13.8,1.1c5.9,-1.2,9.5,.3,15.4,-.6c7.5,-1.1,14.7,-1.8,19.3,0c4.7,2,9.6,1.2,13.7,0c7.5,-1.8,13.8,-1.4,19.9,0c12.2,2.9,16.8,-4.1,32.4,0c6.2,1.7,11.7,2.9,17.1,1.2c8.2,-2.7,14,-.9,16.5,-.6c7.8,1.1,15.4,.9,23.8,2Z" class="gg_363"/>
<path d="M327.4,543.2v21.9c-9.2,1.6,-17.9,1.5,-27.5,-.3c-7,-1.6,-8.7,-4,-25.4,-1.3c-5.3,1,-8.8,2.5,-14.2,1.3c-6.2,-1.7,-11.6,-.7,-18.8,-.7c-9.7,0,-24.6,2.2,-31.3,-.6c-4.3,-1.5,-26.1,-1,-32.4,-1.5c-6.2,-.5,-11.4,-1.2,-18.8,-.6c-7.4,.8,-15.2,2.7,-20.9,1.1c-5.5,-1.7,-11.1,-3.9,-16.9,-1.1c-4.6,2.1,-8.3,1.4,-12.6,-.3l.2,-20.8c1.8,-.6,8.1,.6,10.5,-.1c5.5,-1.9,9.5,-2.2,15.3,-1.1c4.4,.8,7.2,1.7,11.6,1.1c3.7,-.7,5.8,-1.1,9.3,0c5.1,1.5,10.3,1.8,13.8,1c5.9,-1.2,9.5,.3,15.4,-.6c7.5,-1.1,14.7,-1.8,19.3,0c4.7,2,9.6,1.2,13.7,0c7.5,-1.8,13.8,-1.4,19.9,0c12.2,2.9,16.8,-4.1,32.4,0c6.2,1.7,11.7,2.9,17.1,1.2c8.2,-2.7,14,-.9,16.5,-.6c7.8,1.1,15.4,.9,23.8,2Z" class="gh_363"/>
<path d="M108.9,563.4c4.3,1.7,7.7,2.4,12.3,.3c5.8,-2.8,11.4,-.6,16.9,1.1c5.7,1.6,13.5,-.3,20.9,-1.1c7.4,-.6,12.6,.1,18.8,.6c6.3,.5,28.1,0,32.4,1.5c6.7,2.8,21.6,.6,31.3,.6c7.2,0,12.6,-1,18.8,.6c5.4,1.3,8.9,-.3,14.2,-1.2c16.7,-2.7,18.4,-.3,25.4,1.2c9.6,1.9,18.2,2.2,27.3,.5M108.8,538c1.8,-.6,8.1,.6,10.5,-.1c5.5,-1.9,9.5,-2.2,15.3,-1.1c4.4,.8,7.2,1.7,11.6,1.1c3.7,-.6,5.8,-1.1,9.3,0c5.1,1.5,10.3,1.8,13.8,1c5.9,-1.2,9.5,.3,15.4,-.6c7.5,-1,14.7,-1.8,19.3,0c4.7,2,9.6,1.2,13.7,0c7.5,-1.8,13.8,-1.3,19.9,0c12.2,2.9,16.8,-4.1,32.4,0c6.2,1.7,11.7,2.9,17.1,1.2c8.2,-2.7,14,-.9,16.5,-.6c7.8,1.1,14.5,1.1,23.8,1.7" class="gi_363"/>
<path d="M327.4,567.4c-9.1,1.6,-17.9,1.5,-27.5,-.4c-7,-1.5,-8.7,-3.9,-25.4,-1.2c-5.3,.9,-8.8,2.5,-14.2,1.2c-6.2,-1.6,-11.6,-.6,-18.8,-.6c-9.7,0,-24.6,2.2,-31.3,-.6c-4.3,-1.5,-26.1,-1,-32.4,-1.5c-6.2,-.5,-11.4,-1.2,-18.8,-.6c-7.4,.8,-15.2,2.7,-20.9,1.1c-5.5,-1.7,-11.1,-3.9,-16.9,-1.1c-4.6,2.1,-8.3,1.4,-12.6,-.3m.2,-25.4c1.8,-.6,8.1,.6,10.5,-.1c5.5,-1.9,9.5,-2.2,15.3,-1.1c4.4,.8,7.2,1.7,11.6,1.1c3.7,-.6,5.8,-1.1,9.3,0c5.1,1.5,10.3,1.8,13.8,1c5.9,-1.2,9.5,.3,15.4,-.6c7.5,-1,14.7,-1.8,19.3,0c4.7,2,9.6,1.2,13.7,0c7.5,-1.8,13.8,-1.3,19.9,0c12.2,2.9,16.8,-4.1,32.4,0c6.2,1.7,11.7,2.9,17.1,1.2c8.2,-2.7,14,-.9,16.5,-.6c7.8,1.1,15.4,1,23.8,2" class="gj_363"/>
<path d="M195.3,562.6c-6.9,-.2,-14.3,-.2,-17.5,-.4c-4.2,-.3,-8,-.8,-12.3,-.8m-13.8,1.2c-5,.7,-9.8,1.2,-13.6,.1c-3.4,-1.1,-6.9,-2.3,-10.4,-2.4m-7.8,1.8c-4,1.5,-7.4,.7,-11.3,-.8" class="gk_363"/>
<path d="M166.8,557c-2.3,0,-4.9,0,-7.8,.2c-7.4,.7,-15.2,4,-20.9,2.5c-5.5,-1.5,-11.1,-3.5,-16.9,-1c-4,1.7,-7.3,1.4,-10.9,.3" class="gl_363"/>
<path d="M113.2,550.3c-1.5,-.2,-3,-.5,-4.6,-1m19.7,1.8c-2.3,-.1,-4.8,.1,-7.1,.9c-.9,.3,-1.7,.5,-2.5,.7m208.7,2.6c-9.1,1.4,-17.9,1.3,-27.5,-.2c-7,-1.2,-8.7,-3.2,-25.4,-1c-5.3,.8,-8.8,2,-14.2,1c-6.2,-1.4,-11.6,-.5,-18.8,-.5c-9.7,0,-24.6,1.7,-31.3,-.5c-4.3,-1.2,-26.1,-.9,-32.4,-1.2c-2.2,-.2,-4.3,-.3,-6.4,-.5m23.3,2.4c-6.7,-.1,-13.7,-.1,-16.9,-.3c-4.7,-.3,-8.8,-.6,-13.7,-.6m-9.9,.6c-2.9,.3,-5.9,.6,-8.6,.8M131,553.4c-3.2,-.5,-6.5,-.5,-9.8,.6c-4.6,1.6,-8.3,1.1,-12.6,-.2m69.2,6.7c-6.2,-.5,-11.4,-1.2,-18.8,-.6c-2.3,.2,-4.6,.6,-6.9,.9m-24.6,-2.2c-2.1,-.1,-4.2,.3,-6.3,1.3" class="gk_363"/>
<path d="M132.1,545.2c.8,.1,1.6,.2,2.5,.3c4.4,.6,7.2,1.2,11.6,.8c3.7,-.5,5.8,-.8,9.3,0c5.1,1.1,10.3,1.3,13.8,.8c5.2,-.8,8.6,0,13.4,-.3m-73.9,-2.7c1.9,-.5,8.1,.4,10.5,-.2c4.7,-1.2,8.3,-1.6,12.8,-1.2" class="gl_363"/>
<path d="M207,541.3c3.8,.8,7.4,.1,10.7,-.9c4.4,-1,8.4,-1.3,12.2,-1.1m-69.3,5.2c3.3,.4,6.3,.3,8.7,-.1c5.9,-1,9.5,.3,15.4,-.5c7.5,-.9,14.7,-1.5,19.3,0c4.7,1.6,9.6,1,13.7,0m-94.8,-2.6c3.8,-.6,7.2,-.6,11.7,0M112,546.5c2.6,.1,5.7,.3,7.3,0c1.3,-.3,2.4,-.6,3.5,-.8m40.4,4c2.3,.1,4.4,.1,6.1,-.2c3.3,-.4,5.9,-.3,8.6,-.2m-43.3,-1.2c4.5,.5,7.2,1.1,11.6,.7m-28.6,.1c.7,0,1.3,0,1.7,-.1c2.1,-.5,4,-.8,5.8,-.9m23.1,-6.5c2.6,-.4,4.5,-.5,7.3,.2c1.7,.4,3.4,.7,5,.9m.5,-1.7c3.1,.4,6,.4,8.3,-.1c5.9,-1.3,9.5,.3,15.4,-.6c4.3,-.7,8.5,-1.2,12.1,-1.2m-60.9,-.1c3.2,.6,5.5,1.1,8.6,1M113,539.7c2.3,.1,4.9,.3,6.3,-.1c2.5,-.8,4.7,-1.3,6.8,-1.6" class="gk_363"/>
<path d="M254.7,544.2c4,-.5,8.6,-.8,15.3,.7c6.2,1.3,11.7,2.3,17.1,1c8.2,-2.3,14,-.8,16.5,-.5c7.8,.8,15.4,.7,23.8,1.6m-58.8,3c.5,.1,.9,.2,1.4,.2c6.2,1.3,11.7,2.2,17.1,.9c1.5,-.3,2.9,-.6,4.2,-.8m-95.8,-.9c3.3,0,6.2,.2,8.5,.8c4.7,1.5,9.6,.9,13.7,0c7.5,-1.3,13.8,-1,19.9,0M108.8,550c1.9,-.4,8.1,.5,10.5,-.1c5.5,-1.3,9.5,-1.6,15.3,-.8c4.4,.6,7.2,1.3,11.6,.8c3.7,-.5,5.8,-.8,9.3,0c5.1,1.1,10.3,1.3,13.8,.8c5.9,-.9,9.5,.2,15.4,-.5c3.8,-.4,7.4,-.7,10.7,-.8" class="gl_363"/>
<path d="M327.7,565.3c-3.9,.7,-7.8,1.1,-11.7,1.1m-13.7,-1c-.8,-.2,-1.6,-.3,-2.4,-.4c-7,-1.6,-8.7,-4,-25.4,-1.3c-2.9,.5,-5.2,1.2,-7.7,1.5m-18.6,-1.1c-2.1,.1,-4.3,.2,-6.7,.2c-9.7,0,-24.6,2.2,-31.3,-.6" class="gk_363"/>
<path d="M327.4,561.1c-9.1,1.3,-17.9,1.2,-27.5,-.3c-7,-1.2,-8.7,-3.2,-25.4,-1c-5.3,.8,-8.8,2,-14.2,1c-2.5,-.5,-4.9,-.7,-7.4,-.7" class="gj_363"/>
<path d="M272.3,542.9c5.3,1,10.1,1.7,14.8,.5c.7,-.2,1.5,-.4,2.2,-.6M228,541.4c3.3,0,6.4,.4,9.6,1c3.1,.6,5.8,.7,8.2,.5m2.2,9c4.9,-.8,10,-1.5,18.3,.2c1.6,.4,3.1,.7,4.6,.9m-42.8,-6.4c3.3,0,6.4,.4,9.5,.9c12.2,2.4,16.8,-3.3,32.4,0c1.5,.4,3,.7,4.5,1m0,0c4.5,.8,8.6,1.1,12.6,0c8.2,-2.2,14,-.7,16.5,-.5c7.8,.9,15.4,.8,23.8,1.6M230,539.3c.9,.1,1.8,.1,2.7,.2m18.4,.8c3.9,-.8,8,-1.7,13.7,-.9m18.9,2.9c1.1,-.1,2.3,-.3,3.4,-.6c8.2,-2.8,14,-1,16.5,-.7c3.9,.6,7.8,.8,11.8,1m-9.2,1.7c6.9,.7,13.7,.7,21.2,1.6m-187.8,6.8c2.1,.2,4,.3,6.6,.1c1.5,-.2,2.8,-.4,4,-.4m40.3,7.1c-5.3,-.1,-10.2,-.1,-12.7,-.3c-1.1,-.1,-2.2,-.2,-3.4,-.3m50.7,-.8c-5.9,.1,-11.5,0,-14.9,-1.1c-3.1,-.9,-15.5,-.2,-24.5,-.3m141.8,1.2c-4.6,.6,-9.2,1,-13.8,.9m-6.7,2.2c-2.3,-.2,-4.7,-.5,-7.1,-.9c-3.1,-.6,-5.2,-1.3,-8,-1.7m-.7,-1.5c-3.5,-.5,-8.2,-.6,-17.4,.7m.8,.7c-5.4,.8,-8.9,2,-14.3,1c-6.2,-1.3,-11.6,-.5,-18.8,-.5c-4.8,0,-10.8,.4,-16.4,.6" class="gk_363"/>
<path d="M324.8,552.6c-8.2,.6,-16.2,.5,-24.9,-.4" class="gl_363"/>
<path d="M587.7,582H368.9V563.4c4.3,1.7,8,2.4,12.5,.3c5.8,-2.8,11.5,-.6,17,1.1c5.6,1.6,13.4,-.3,20.9,-1.1c7.3,-.6,12.5,.1,18.8,.6c6.3,.5,28.1,0,32.4,1.5c6.7,2.8,21.5,.6,31.3,.6c7.2,0,12.5,-1,18.8,.6c5.4,1.3,8.9,-.3,14.2,-1.2c16.7,-2.7,18.3,-.3,25.4,1.2c9.6,1.9,18.2,2.2,27.3,.5Z" class="g1_363"/>
<path d="M587.7,582H368.9V563.8c4.3,1.7,8,2.5,12.5,.3c5.8,-2.7,11.5,-.6,17,1.1c5.6,1.7,13.4,-.3,20.9,-1.1c7.3,-.6,12.5,.2,18.8,.6c6.3,.5,28.1,0,32.4,1.6c6.7,2.7,21.5,.6,31.3,.6c7.2,0,12.5,-1.1,18.8,.6c5.4,1.2,8.9,-.3,14.2,-1.2c16.7,-2.8,18.3,-.3,25.4,1.2c9.6,1.8,18.2,2.1,27.3,.5Z" class="g2_363"/>
<path d="M587.7,582H368.9V564.3c4.3,1.6,8,2.4,12.5,.3c5.8,-2.8,11.5,-.6,17,1c5.6,1.7,13.4,-.3,20.9,-1c7.3,-.6,12.5,.1,18.8,.6c6.3,.4,28.1,0,32.4,1.5c6.7,2.8,21.5,.6,31.3,.6c7.2,0,12.5,-1,18.8,.6c5.4,1.3,8.9,-.3,14.2,-1.2c16.7,-2.7,18.3,-.3,25.4,1.2c9.6,1.9,18.2,2.2,27.3,.5Z" class="g3_363"/>
<path d="M587.7,582H368.9V564.7c4.3,1.7,8,2.4,12.5,.3c5.8,-2.7,11.5,-.6,17,1.1c5.6,1.7,13.4,-.3,20.9,-1.1c7.3,-.6,12.5,.2,18.8,.6c6.3,.5,28.1,0,32.4,1.5c6.7,2.8,21.5,.7,31.3,.7c7.2,0,12.5,-1.1,18.8,.6c5.4,1.2,8.9,-.3,14.2,-1.3c16.7,-2.7,18.3,-.3,25.4,1.3c9.6,1.8,18.2,2.1,27.3,.4Z" class="g4_363"/>
<path d="M587.7,582H368.9V565.1c4.3,1.7,8,2.5,12.5,.3c5.8,-2.7,11.5,-.6,17,1.1c5.6,1.7,13.4,-.3,20.9,-1.1c7.3,-.6,12.5,.2,18.8,.7c6.3,.4,28.1,0,32.4,1.5c6.7,2.7,21.5,.6,31.3,.6c7.2,0,12.5,-1.1,18.8,.6c5.4,1.2,8.9,-.3,14.2,-1.2c16.7,-2.8,18.3,-.3,25.4,1.2c9.6,1.8,18.2,2.1,27.3,.5Z" class="g5_363"/>
<path d="M587.7,582H368.9V565.6c4.3,1.6,8,2.4,12.5,.3c5.8,-2.8,11.5,-.6,17,1c5.6,1.7,13.4,-.3,20.9,-1c7.3,-.6,12.5,.1,18.8,.6c6.3,.4,28.1,0,32.4,1.5c6.7,2.8,21.5,.6,31.3,.6c7.2,0,12.5,-1,18.8,.6c5.4,1.3,8.9,-.3,14.2,-1.2c16.7,-2.7,18.3,-.3,25.4,1.2c9.6,1.9,18.2,2.2,27.3,.5Z" class="g6_363"/>
<path d="M587.7,582H368.9V566c4.3,1.7,8,2.5,12.5,.3c5.8,-2.7,11.5,-.6,17,1.1c5.6,1.7,13.4,-.3,20.9,-1.1c7.3,-.6,12.5,.2,18.8,.6c6.3,.5,28.1,0,32.4,1.6c6.7,2.7,21.5,.6,31.3,.6c7.2,0,12.5,-1.1,18.8,.6c5.4,1.2,8.9,-.3,14.2,-1.2c16.7,-2.8,18.3,-.4,25.4,1.2c9.6,1.8,18.2,2.1,27.3,.4Z" class="g7_363"/>
<path d="M587.7,582H368.9V566.4c4.3,1.7,8,2.5,12.5,.3c5.8,-2.7,11.5,-.6,17,1.1c5.6,1.7,13.4,-.3,20.9,-1.1c7.3,-.6,12.5,.2,18.8,.7c6.3,.4,28.1,0,32.4,1.5c6.7,2.7,21.5,.6,31.3,.6c7.2,0,12.5,-1.1,18.8,.6c5.4,1.2,8.9,-.3,14.2,-1.2c16.7,-2.8,18.3,-.3,25.4,1.2c9.6,1.8,18.2,2.1,27.3,.5Z" class="g8_363"/>
<path d="M368.9,449.7l.2,88.3c-.5,-.3,.1,-.1,.1,-.1c1.9,-.6,8,.7,10.4,0c5.5,-1.9,9.5,-2.2,15.3,-1.1c4.4,.8,7.2,1.7,11.6,1.1c3.7,-.6,5.8,-1.1,9.3,0c5.1,1.5,10.3,1.8,13.8,1c5.9,-1.2,9.4,.3,15.4,-.6c7.5,-1,14.6,-1.8,19.2,0c4.8,2,9.7,1.2,13.8,0c7.5,-1.8,13.7,-1.3,19.8,0c12.3,2.9,16.8,-4.1,32.4,0c6.3,1.7,11.8,2.9,17.1,1.2c8.3,-2.7,14.1,-.9,16.5,-.6c7.8,1.1,15.3,1.1,23.9,1.7V449.7Z" class="g1_363"/>
<path d="M368.9,449.7l.2,87.9c-.5,-.3,.1,-.2,.1,-.2c1.9,-.6,8,.8,10.4,0c5.5,-1.8,9.5,-2.1,15.3,-1c4.4,.7,7.2,1.7,11.6,1c3.7,-.6,5.8,-1,9.3,0c5.1,1.6,10.3,1.9,13.8,1.1c5.9,-1.2,9.4,.3,15.4,-.6c7.5,-1.1,14.6,-1.8,19.2,0c4.8,2,9.7,1.2,13.8,0c7.5,-1.8,13.7,-1.4,19.8,0c12.3,2.9,16.8,-4.1,32.4,0c6.3,1.7,11.8,2.9,17.1,1.2c8.3,-2.7,14.1,-.9,16.5,-.6c7.8,1.1,15.3,1.1,23.9,1.7V449.7Z" class="g2_363"/>
<path d="M368.9,449.7l.2,87.5c-.5,-.4,.1,-.2,.1,-.2c1.9,-.6,8,.8,10.4,0c5.5,-1.8,9.5,-2.1,15.3,-1.1c4.4,.8,7.2,1.7,11.6,1.1c3.7,-.6,5.8,-1.1,9.3,0c5.1,1.5,10.3,1.8,13.8,1.1c5.9,-1.3,9.4,.3,15.4,-.6c7.5,-1.1,14.6,-1.9,19.2,0c4.8,1.9,9.7,1.2,13.8,0c7.5,-1.9,13.7,-1.4,19.8,0c12.3,2.9,16.8,-4.2,32.4,0c6.3,1.6,11.8,2.9,17.1,1.2c8.3,-2.8,14.1,-.9,16.5,-.6c7.8,1,15.3,1,23.9,1.6v-90Z" class="g3_363"/>
<path d="M368.9,449.7l.2,87c-.5,-.3,.1,-.1,.1,-.1c1.9,-.6,8,.7,10.4,0c5.5,-1.9,9.5,-2.2,15.3,-1.1c4.4,.8,7.2,1.7,11.6,1.1c3.7,-.6,5.8,-1.1,9.3,0c5.1,1.5,10.3,1.8,13.8,1c5.9,-1.2,9.4,.3,15.4,-.6c7.5,-1,14.6,-1.8,19.2,0c4.8,2,9.7,1.3,13.8,0c7.5,-1.8,13.7,-1.3,19.8,0c12.3,2.9,16.8,-4.1,32.4,0c6.3,1.7,11.8,2.9,17.1,1.3c8.3,-2.8,14.1,-1,16.5,-.7c7.8,1.1,15.3,1.1,23.9,1.7V449.7Z" class="g4_363"/>
<path d="M368.9,449.7l.2,86.6c-.5,-.3,.1,-.2,.1,-.2c1.9,-.6,8,.8,10.4,0c5.5,-1.8,9.5,-2.1,15.3,-1c4.4,.7,7.2,1.6,11.6,1c3.7,-.6,5.8,-1,9.3,0c5.1,1.6,10.3,1.9,13.8,1.1c5.9,-1.2,9.4,.3,15.4,-.6c7.5,-1.1,14.6,-1.8,19.2,0c4.8,2,9.7,1.2,13.8,0c7.5,-1.8,13.7,-1.4,19.8,0c12.3,2.9,16.8,-4.1,32.4,0c6.3,1.7,11.8,2.9,17.1,1.2c8.3,-2.7,14.1,-.9,16.5,-.6c7.8,1.1,15.3,1.1,23.9,1.7V449.7Z" class="g5_363"/>
<path d="M368.9,449.7l.2,86.2c-.5,-.4,.1,-.2,.1,-.2c1.9,-.6,8,.8,10.4,0c5.5,-1.8,9.5,-2.1,15.3,-1.1c4.4,.8,7.2,1.7,11.6,1.1c3.7,-.6,5.8,-1.1,9.3,0c5.1,1.5,10.3,1.8,13.8,1.1c5.9,-1.3,9.4,.3,15.4,-.6c7.5,-1.1,14.6,-1.9,19.2,0c4.8,1.9,9.7,1.2,13.8,0c7.5,-1.9,13.7,-1.4,19.8,0c12.3,2.9,16.8,-4.2,32.4,0c6.3,1.6,11.8,2.9,17.1,1.2c8.3,-2.8,14.1,-.9,16.5,-.6c7.8,1,15.3,1,23.9,1.6V449.7Z" class="g6_363"/>
<path d="M368.9,449.7l.2,85.7c-.5,-.3,.1,-.1,.1,-.1c1.9,-.7,8,.7,10.4,0c5.5,-1.9,9.5,-2.2,15.3,-1.1c4.4,.8,7.2,1.7,11.6,1.1c3.7,-.7,5.8,-1.1,9.3,0c5.1,1.5,10.3,1.8,13.8,1c5.9,-1.2,9.4,.3,15.4,-.6c7.5,-1.1,14.6,-1.8,19.2,0c4.8,2,9.7,1.2,13.8,0c7.5,-1.8,13.7,-1.4,19.8,0c12.3,2.9,16.8,-4.1,32.4,0c6.3,1.7,11.8,2.9,17.1,1.2c8.3,-2.7,14.1,-.9,16.5,-.6c7.8,1.1,15.3,1.1,23.9,1.7V449.7Z" class="g7_363"/>
<path d="M368.9,449.7l.2,85.3c-.5,-.3,.1,-.2,.1,-.2c1.9,-.6,8,.8,10.4,0c5.5,-1.8,9.5,-2.1,15.3,-1.1c4.4,.8,7.2,1.7,11.6,1.1c3.7,-.6,5.8,-1.1,9.3,0c5.1,1.5,10.3,1.8,13.8,1.1c5.9,-1.2,9.4,.3,15.4,-.6c7.5,-1.1,14.6,-1.9,19.2,0c4.8,2,9.7,1.2,13.8,0c7.5,-1.9,13.7,-1.4,19.8,0c12.3,2.9,16.8,-4.2,32.4,0c6.3,1.7,11.8,2.9,17.1,1.2c8.3,-2.8,14.1,-.9,16.5,-.6c7.8,1.1,15.3,1.1,23.9,1.7V449.7Z" class="g8_363"/>
<path d="M587.7,540.9v26.5c-9.2,1.6,-17.9,1.5,-27.5,-.4c-7.1,-1.5,-8.7,-3.9,-25.4,-1.2c-5.3,.9,-8.8,2.5,-14.2,1.2c-6.3,-1.6,-11.6,-.6,-18.8,-.6c-9.8,0,-24.6,2.2,-31.3,-.6c-4.3,-1.5,-26.1,-1,-32.4,-1.5c-6.3,-.5,-11.5,-1.2,-18.8,-.6c-7.5,.8,-15.3,2.7,-20.9,1.1c-5.5,-1.7,-11.2,-3.9,-17,-1.1c-4.5,2.1,-8.2,1.4,-12.5,-.3l.2,-25.4c1.8,-.6,8.1,.6,10.5,-.1c5.5,-1.9,9.5,-2.2,15.3,-1.1c4.4,.8,7.2,1.7,11.6,1.1c3.6,-.6,5.8,-1.1,9.3,0c5,1.5,10.2,1.8,13.8,1c5.9,-1.2,9.4,.3,15.4,-.6c7.5,-1,14.6,-1.8,19.2,0c4.8,2,9.7,1.2,13.8,0c7.5,-1.8,13.7,-1.3,19.8,0c12.3,2.9,16.8,-4.1,32.4,0c6.3,1.7,11.8,2.9,17.1,1.2c8.3,-2.7,14.1,-.9,16.5,-.6c7.8,1.1,15.5,1,23.9,2Z" class="ga_363"/>
<path d="M587.7,541.3V567c-9.2,1.7,-17.9,1.6,-27.5,-.3c-7.1,-1.5,-8.7,-3.9,-25.4,-1.2c-5.3,.9,-8.8,2.5,-14.2,1.2c-6.3,-1.7,-11.6,-.6,-18.8,-.6c-9.8,0,-24.6,2.2,-31.3,-.6C466.2,564,444.4,564.4,438.1,564c-6.3,-.5,-11.5,-1.2,-18.8,-.6c-7.5,.7,-15.3,2.7,-20.9,1c-5.5,-1.6,-11.2,-3.8,-17,-1c-4.5,2.1,-8.2,1.3,-12.5,-.3l.2,-24.7c1.8,-.7,8.1,.6,10.5,-.2c5.5,-1.8,9.5,-2.1,15.3,-1.1c4.4,.8,7.2,1.7,11.6,1.1c3.6,-.6,5.8,-1.1,9.3,0c5,1.5,10.2,1.8,13.8,1.1c5.9,-1.2,9.4,.3,15.4,-.6c7.5,-1.1,14.6,-1.9,19.2,0c4.8,1.9,9.7,1.2,13.8,0c7.5,-1.9,13.7,-1.4,19.8,0c12.3,2.9,16.8,-4.2,32.4,0c6.3,1.6,11.8,2.9,17.1,1.2c8.3,-2.8,14.1,-.9,16.5,-.6c7.8,1,15.5,.9,23.9,2Z" class="gb_363"/>
<path d="M587.7,541.6v25.1c-9.2,1.7,-17.9,1.5,-27.5,-.3c-7.1,-1.5,-8.7,-4,-25.4,-1.2c-5.3,.9,-8.8,2.4,-14.2,1.2c-6.3,-1.7,-11.6,-.6,-18.8,-.6c-9.8,0,-24.6,2.1,-31.3,-.6c-4.3,-1.5,-26.1,-1.1,-32.4,-1.5c-6.3,-.5,-11.5,-1.3,-18.8,-.7c-7.5,.8,-15.3,2.8,-20.9,1.1c-5.5,-1.7,-11.2,-3.8,-17,-1.1c-4.5,2.2,-8.2,1.4,-12.5,-.3l.2,-24c1.8,-.6,8.1,.6,10.5,-.2c5.5,-1.8,9.5,-2.1,15.3,-1c4.4,.7,7.2,1.6,11.6,1c3.6,-.6,5.8,-1,9.3,0c5,1.6,10.2,1.9,13.8,1.1c5.9,-1.2,9.4,.3,15.4,-.6c7.5,-1.1,14.6,-1.8,19.2,0c4.8,2,9.7,1.2,13.8,0c7.5,-1.8,13.7,-1.4,19.8,0c12.3,2.9,16.8,-4.1,32.4,0c6.3,1.7,11.8,2.9,17.1,1.2c8.3,-2.7,14.1,-.9,16.5,-.6c7.8,1.1,15.5,.9,23.9,2Z" class="gc_363"/>
<path d="M587.7,541.9v24.5c-9.2,1.7,-17.9,1.5,-27.5,-.3c-7.1,-1.6,-8.7,-4,-25.4,-1.3c-5.3,1,-8.8,2.5,-14.2,1.3c-6.3,-1.7,-11.6,-.6,-18.8,-.6c-9.8,0,-24.6,2.1,-31.3,-.7c-4.3,-1.5,-26.1,-1,-32.4,-1.5c-6.3,-.4,-11.5,-1.2,-18.8,-.6c-7.5,.8,-15.3,2.8,-20.9,1.1c-5.5,-1.7,-11.2,-3.8,-17,-1.1c-4.5,2.1,-8.2,1.4,-12.5,-.3l.2,-23.4c1.8,-.6,8.1,.6,10.5,-.1c5.5,-1.9,9.5,-2.2,15.3,-1.1c4.4,.8,7.2,1.7,11.6,1.1c3.6,-.6,5.8,-1.1,9.3,0c5,1.5,10.2,1.8,13.8,1c5.9,-1.2,9.4,.3,15.4,-.6c7.5,-1,14.6,-1.8,19.2,0c4.8,2,9.7,1.2,13.8,0c7.5,-1.8,13.7,-1.4,19.8,0c12.3,2.9,16.8,-4.1,32.4,0c6.3,1.7,11.8,2.9,17.1,1.2c8.3,-2.7,14.1,-.9,16.5,-.6c7.8,1.1,15.5,.9,23.9,2Z" class="gd_363"/>
<path d="M587.7,542.2v23.9c-9.2,1.6,-17.9,1.5,-27.5,-.3c-7.1,-1.6,-8.7,-4,-25.4,-1.3c-5.3,.9,-8.8,2.5,-14.2,1.3c-6.3,-1.7,-11.6,-.7,-18.8,-.7c-9.8,0,-24.6,2.2,-31.3,-.6c-4.3,-1.5,-26.1,-1,-32.4,-1.5c-6.3,-.5,-11.5,-1.2,-18.8,-.6c-7.5,.8,-15.3,2.7,-20.9,1.1c-5.5,-1.7,-11.2,-3.9,-17,-1.1c-4.5,2.1,-8.2,1.4,-12.5,-.3l.2,-22.8c1.8,-.6,8.1,.6,10.5,-.1c5.5,-1.9,9.5,-2.2,15.3,-1.1c4.4,.8,7.2,1.7,11.6,1.1c3.6,-.6,5.8,-1.1,9.3,0c5,1.5,10.2,1.8,13.8,1.1c5.9,-1.3,9.4,.3,15.4,-.7c7.5,-1,14.6,-1.8,19.2,0c4.8,2,9.7,1.3,13.8,0c7.5,-1.8,13.7,-1.3,19.8,0c12.3,2.9,16.8,-4.1,32.4,0c6.3,1.7,11.8,2.9,17.1,1.3c8.3,-2.8,14.1,-1,16.5,-.6c7.8,1,15.5,.9,23.9,1.9Z" class="ge_363"/>
<path d="M587.7,542.6v23.1c-9.2,1.7,-17.9,1.5,-27.5,-.3c-7.1,-1.5,-8.7,-4,-25.4,-1.2c-5.3,.9,-8.8,2.4,-14.2,1.2c-6.3,-1.7,-11.6,-.6,-18.8,-.6c-9.8,0,-24.6,2.1,-31.3,-.6c-4.3,-1.5,-26.1,-1.1,-32.4,-1.5c-6.3,-.5,-11.5,-1.3,-18.8,-.6c-7.5,.7,-15.3,2.7,-20.9,1c-5.5,-1.7,-11.2,-3.8,-17,-1c-4.5,2.1,-8.2,1.3,-12.5,-.4l.2,-22c1.8,-.6,8.1,.6,10.5,-.2c5.5,-1.8,9.5,-2.1,15.3,-1.1c4.4,.8,7.2,1.7,11.6,1.1c3.6,-.6,5.8,-1.1,9.3,0c5,1.5,10.2,1.9,13.8,1.1c5.9,-1.2,9.4,.3,15.4,-.6c7.5,-1.1,14.6,-1.9,19.2,0c4.8,2,9.7,1.2,13.8,0c7.5,-1.9,13.7,-1.4,19.8,0c12.3,2.9,16.8,-4.1,32.4,0c6.3,1.7,11.8,2.9,17.1,1.2c8.3,-2.8,14.1,-.9,16.5,-.6c7.8,1.1,15.5,.9,23.9,2Z" class="gf_363"/>
<path d="M587.7,542.9v22.5c-9.2,1.7,-17.9,1.5,-27.5,-.3c-7.1,-1.5,-8.7,-4,-25.4,-1.2c-5.3,.9,-8.8,2.4,-14.2,1.2c-6.3,-1.7,-11.6,-.6,-18.8,-.6c-9.8,0,-24.6,2.1,-31.3,-.6c-4.3,-1.6,-26.1,-1.1,-32.4,-1.6c-6.3,-.4,-11.5,-1.2,-18.8,-.6c-7.5,.8,-15.3,2.8,-20.9,1.1c-5.5,-1.7,-11.2,-3.8,-17,-1.1c-4.5,2.2,-8.2,1.4,-12.5,-.3l.2,-21.4c1.8,-.6,8.1,.6,10.5,-.2c5.5,-1.8,9.5,-2.1,15.3,-1c4.4,.7,7.2,1.7,11.6,1c3.6,-.6,5.8,-1,9.3,0c5,1.6,10.2,1.9,13.8,1.1c5.9,-1.2,9.4,.3,15.4,-.6c7.5,-1.1,14.6,-1.8,19.2,0c4.8,2,9.7,1.2,13.8,0c7.5,-1.8,13.7,-1.4,19.8,0c12.3,2.9,16.8,-4.1,32.4,0c6.3,1.7,11.8,2.9,17.1,1.2c8.3,-2.7,14.1,-.9,16.5,-.6c7.8,1.1,15.5,.9,23.9,2Z" class="gg_363"/>
<path d="M587.7,543.2v21.9c-9.2,1.6,-17.9,1.5,-27.5,-.3c-7.1,-1.6,-8.7,-4,-25.4,-1.3c-5.3,1,-8.8,2.5,-14.2,1.3c-6.3,-1.7,-11.6,-.7,-18.8,-.7c-9.8,0,-24.6,2.2,-31.3,-.6c-4.3,-1.5,-26.1,-1,-32.4,-1.5c-6.3,-.5,-11.5,-1.2,-18.8,-.6c-7.5,.8,-15.3,2.7,-20.9,1.1c-5.5,-1.7,-11.2,-3.9,-17,-1.1c-4.5,2.1,-8.2,1.4,-12.5,-.3l.2,-20.8c1.8,-.6,8.1,.6,10.5,-.1c5.5,-1.9,9.5,-2.2,15.3,-1.1c4.4,.8,7.2,1.7,11.6,1.1c3.6,-.7,5.8,-1.1,9.3,0c5,1.5,10.2,1.8,13.8,1c5.9,-1.2,9.4,.3,15.4,-.6c7.5,-1.1,14.6,-1.8,19.2,0c4.8,2,9.7,1.2,13.8,0c7.5,-1.8,13.7,-1.4,19.8,0c12.3,2.9,16.8,-4.1,32.4,0c6.3,1.7,11.8,2.9,17.1,1.2c8.3,-2.7,14.1,-.9,16.5,-.6c7.8,1.1,15.5,.9,23.9,2Z" class="gh_363"/>
<path d="M369.2,563.4c4.3,1.7,7.7,2.4,12.2,.3c5.8,-2.8,11.5,-.6,17,1.1c5.7,1.6,13.4,-.3,20.9,-1.1c7.4,-.6,12.6,.1,18.8,.6c6.3,.5,28.1,0,32.4,1.5c6.7,2.8,21.5,.6,31.3,.6c7.2,0,12.5,-1,18.8,.6c5.4,1.3,8.9,-.3,14.2,-1.2c16.7,-2.7,18.3,-.3,25.4,1.2c9.6,1.9,18.2,2.2,27.3,.5M369.1,538c1.8,-.6,8.1,.6,10.5,-.1c5.5,-1.9,9.5,-2.2,15.3,-1.1c4.4,.8,7.2,1.7,11.6,1.1c3.7,-.6,5.8,-1.1,9.3,0c5.1,1.5,10.3,1.8,13.8,1c5.9,-1.2,9.4,.3,15.4,-.6c7.5,-1,14.6,-1.8,19.2,0c4.8,2,9.7,1.2,13.8,0c7.5,-1.8,13.7,-1.3,19.8,0c12.3,2.9,16.8,-4.1,32.4,0c6.3,1.7,11.8,2.9,17.1,1.2c8.3,-2.7,14.1,-.9,16.5,-.6c7.8,1.1,14.6,1.1,23.9,1.7" class="gi_363"/>
<path d="M587.7,567.4c-9.2,1.6,-17.9,1.5,-27.5,-.4c-7.1,-1.5,-8.7,-3.9,-25.4,-1.2c-5.3,.9,-8.8,2.5,-14.2,1.2c-6.3,-1.6,-11.6,-.6,-18.8,-.6c-9.8,0,-24.6,2.2,-31.3,-.6c-4.3,-1.5,-26.1,-1,-32.4,-1.5c-6.3,-.5,-11.5,-1.2,-18.8,-.6c-7.5,.8,-15.3,2.7,-20.9,1.1c-5.5,-1.7,-11.2,-3.9,-17,-1.1c-4.5,2.1,-8.2,1.4,-12.5,-.3m.2,-25.4c1.8,-.6,8.1,.6,10.5,-.1c5.5,-1.9,9.5,-2.2,15.3,-1.1c4.4,.8,7.2,1.7,11.6,1.1c3.6,-.6,5.8,-1.1,9.3,0c5,1.5,10.2,1.8,13.8,1c5.9,-1.2,9.4,.3,15.4,-.6c7.5,-1,14.6,-1.8,19.2,0c4.8,2,9.7,1.2,13.8,0c7.5,-1.8,13.7,-1.3,19.8,0c12.3,2.9,16.8,-4.1,32.4,0c6.3,1.7,11.8,2.9,17.1,1.2c8.3,-2.7,14.1,-.9,16.5,-.6c7.8,1.1,15.5,1,23.9,2" class="gj_363"/>
<path d="M455.6,562.6c-7,-.2,-14.3,-.2,-17.5,-.4c-4.3,-.3,-8,-.8,-12.3,-.8M412,562.6c-5,.7,-9.8,1.2,-13.6,.1c-3.4,-1.1,-6.9,-2.3,-10.5,-2.4m-7.7,1.8c-4,1.5,-7.4,.7,-11.3,-.8" class="gk_363"/>
<path d="M427.1,557c-2.4,0,-4.9,0,-7.8,.2c-7.5,.7,-15.3,4,-20.9,2.5c-5.5,-1.5,-11.2,-3.5,-17,-1c-3.9,1.7,-7.2,1.4,-10.8,.3" class="gl_363"/>
<path d="M373.5,550.3c-1.5,-.2,-3,-.5,-4.6,-1m19.7,1.8c-2.4,-.1,-4.8,.1,-7.2,.9c-.8,.3,-1.6,.5,-2.4,.7m208.7,2.6c-9.1,1.4,-17.9,1.3,-27.5,-.2c-7.1,-1.2,-8.7,-3.2,-25.4,-1c-5.3,.8,-8.8,2,-14.2,1c-6.3,-1.4,-11.6,-.5,-18.8,-.5c-9.8,0,-24.6,1.7,-31.3,-.5c-4.3,-1.2,-26.1,-.9,-32.4,-1.2c-2.2,-.2,-4.3,-.3,-6.4,-.5m23.3,2.4c-6.8,-.1,-13.8,-.1,-16.9,-.3c-4.7,-.3,-8.8,-.6,-13.7,-.6m-9.9,.6c-2.9,.3,-5.9,.6,-8.6,.8m-14.6,-1.9c-3.2,-.5,-6.5,-.5,-9.9,.6c-4.5,1.6,-8.2,1.1,-12.5,-.2m69.2,6.7c-6.2,-.5,-11.4,-1.2,-18.8,-.6c-2.3,.2,-4.6,.6,-6.9,.9m-24.6,-2.2c-2.1,-.1,-4.2,.3,-6.4,1.3" class="gk_363"/>
<path d="M392.4,545.2c.8,.1,1.6,.2,2.5,.3c4.4,.6,7.2,1.2,11.6,.8c3.6,-.5,5.8,-.8,9.3,0c5,1.1,10.2,1.3,13.8,.8c5.2,-.8,8.6,0,13.3,-.3m-73.8,-2.7c1.8,-.5,8,.4,10.5,-.2c4.7,-1.2,8.2,-1.6,12.8,-1.2" class="gl_363"/>
<path d="M467.3,541.3c3.7,.8,7.4,.1,10.7,-.9c4.4,-1,8.4,-1.3,12.1,-1.1m-69.2,5.2c3.3,.4,6.3,.3,8.7,-.1c5.9,-1,9.4,.3,15.4,-.5c7.5,-.9,14.6,-1.5,19.2,0c4.8,1.6,9.7,1,13.8,0m-94.8,-2.6c3.8,-.6,7.2,-.6,11.7,0m-22.6,5.2c2.6,.1,5.7,.3,7.3,0c1.2,-.3,2.4,-.6,3.5,-.8m40.4,4c2.3,.1,4.4,.1,6.1,-.2c3.3,-.4,5.9,-.3,8.6,-.2m-43.3,-1.2c4.5,.5,7.2,1.1,11.6,.7m-28.6,.1c.7,0,1.2,0,1.7,-.1c2.1,-.5,4,-.8,5.8,-.9m23,-6.5c2.6,-.4,4.5,-.5,7.4,.2c1.7,.4,3.4,.7,5,.9m.5,-1.7c3.1,.4,6,.4,8.3,-.1c5.9,-1.3,9.4,.3,15.4,-.6c4.3,-.7,8.4,-1.2,12.1,-1.2m-60.9,-.1c3.2,.6,5.5,1.1,8.6,1m-31.5,-.1c2.3,.1,4.9,.3,6.3,-.1c2.5,-.8,4.6,-1.3,6.8,-1.6" class="gk_363"/>
<path d="M514.9,544.2c4.1,-.5,8.7,-.8,15.3,.7c6.3,1.3,11.8,2.3,17.1,1c8.3,-2.3,14.1,-.8,16.5,-.5c7.8,.8,15.5,.7,23.9,1.6m-58.8,3c.4,.1,.9,.2,1.3,.2c6.3,1.3,11.8,2.2,17.1,.9c1.5,-.3,2.9,-.6,4.3,-.8m-95.8,-.9c3.3,0,6.2,.2,8.4,.8c4.8,1.5,9.7,.9,13.8,0c7.5,-1.3,13.7,-1,19.8,0M369.1,550c1.8,-.4,8.1,.5,10.5,-.1c5.5,-1.3,9.5,-1.6,15.3,-.8c4.4,.6,7.2,1.3,11.6,.8c3.7,-.5,5.8,-.8,9.3,0c5.1,1.1,10.3,1.3,13.8,.8c5.9,-.9,9.4,.2,15.4,-.5c3.7,-.4,7.4,-.7,10.7,-.8" class="gl_363"/>
<path d="M587.9,565.3c-3.9,.7,-7.8,1.1,-11.7,1.1m-13.7,-1c-.7,-.2,-1.5,-.3,-2.3,-.4c-7.1,-1.6,-8.7,-4,-25.4,-1.3c-2.9,.5,-5.3,1.2,-7.7,1.5m-18.6,-1.1c-2.1,.1,-4.3,.2,-6.7,.2c-9.8,0,-24.6,2.2,-31.3,-.6" class="gk_363"/>
<path d="M587.7,561.1c-9.1,1.3,-17.9,1.2,-27.5,-.3c-7.1,-1.2,-8.7,-3.2,-25.4,-1c-5.3,.8,-8.8,2,-14.2,1c-2.5,-.5,-4.9,-.7,-7.4,-.7" class="gj_363"/>
<path d="M532.6,542.9c5.3,1,10.1,1.7,14.7,.5c.8,-.2,1.6,-.4,2.3,-.6m-61.4,-1.4c3.4,0,6.5,.4,9.6,1c3.2,.6,5.9,.7,8.3,.5m2.2,9c4.9,-.8,10,-1.5,18.3,.2c1.6,.4,3.1,.7,4.6,.9m-42.8,-6.4c3.3,0,6.4,.4,9.4,.9c12.3,2.4,16.8,-3.3,32.4,0c1.6,.4,3.1,.7,4.6,1m0,0c4.5,.8,8.5,1.1,12.5,0c8.3,-2.2,14.1,-.7,16.5,-.5c7.8,.9,15.5,.8,23.9,1.6M490.3,539.3c.9,.1,1.8,.1,2.7,.2m18.4,.8c3.9,-.8,8,-1.7,13.7,-.9m18.9,2.9c1.1,-.1,2.2,-.3,3.3,-.6c8.3,-2.8,14.1,-1,16.5,-.7c4,.6,7.9,.8,11.9,1m-9.2,1.7c6.9,.7,13.7,.7,21.2,1.6m-187.8,6.8c2.1,.2,4,.3,6.6,.1c1.5,-.2,2.8,-.4,4,-.4m40.3,7.1c-5.3,-.1,-10.2,-.1,-12.7,-.3c-1.1,-.1,-2.3,-.2,-3.4,-.3m50.7,-.8c-5.9,.1,-11.5,0,-14.9,-1.1c-3.1,-.9,-15.6,-.2,-24.5,-.3m141.8,1.2c-4.6,.6,-9.2,1,-13.8,.9m-6.7,2.2c-2.3,-.2,-4.7,-.5,-7.1,-.9c-3.1,-.6,-5.2,-1.3,-8,-1.7m-.7,-1.5c-3.5,-.5,-8.2,-.6,-17.4,.7m.7,.7c-5.3,.8,-8.8,2,-14.2,1c-6.3,-1.3,-11.6,-.5,-18.8,-.5c-4.8,0,-10.8,.4,-16.5,.6" class="gk_363"/>
<path d="M585.1,552.6c-8.2,.6,-16.2,.5,-24.9,-.4" class="gl_363"/>
<path d="M440.1,538.4V483h76.4v54.3" class="g9_363"/>
<path d="M848.5,582H629.7V563.4c4.3,1.7,7.9,2.4,12.5,.3c5.8,-2.8,11.5,-.6,17,1.1c5.6,1.6,13.4,-.3,20.9,-1.1c7.3,-.6,12.5,.1,18.8,.6c6.2,.5,28.1,0,32.4,1.5c6.7,2.8,21.5,.6,31.3,.6c7.2,0,12.5,-1,18.8,.6c5.3,1.3,8.8,-.3,14.2,-1.2c16.6,-2.7,18.3,-.3,25.4,1.2c9.6,1.9,18.1,2.2,27.3,.5Z" class="g1_363"/>
<path d="M848.5,582H629.7V563.8c4.3,1.7,7.9,2.5,12.5,.3c5.8,-2.7,11.5,-.6,17,1.1c5.6,1.7,13.4,-.3,20.9,-1.1c7.3,-.6,12.5,.2,18.8,.6c6.2,.5,28.1,0,32.4,1.6c6.7,2.7,21.5,.6,31.3,.6c7.2,0,12.5,-1.1,18.8,.6c5.3,1.2,8.8,-.3,14.2,-1.2c16.6,-2.8,18.3,-.3,25.4,1.2c9.6,1.8,18.1,2.1,27.3,.5Z" class="g2_363"/>
<path d="M848.5,582H629.7V564.3c4.3,1.6,7.9,2.4,12.5,.3c5.8,-2.8,11.5,-.6,17,1c5.6,1.7,13.4,-.3,20.9,-1c7.3,-.6,12.5,.1,18.8,.6c6.2,.4,28.1,0,32.4,1.5c6.7,2.8,21.5,.6,31.3,.6c7.2,0,12.5,-1,18.8,.6c5.3,1.3,8.8,-.3,14.2,-1.2c16.6,-2.7,18.3,-.3,25.4,1.2c9.6,1.9,18.1,2.2,27.3,.5Z" class="g3_363"/>
<path d="M848.5,582H629.7V564.7c4.3,1.7,7.9,2.4,12.5,.3c5.8,-2.7,11.5,-.6,17,1.1c5.6,1.7,13.4,-.3,20.9,-1.1c7.3,-.6,12.5,.2,18.8,.6c6.2,.5,28.1,0,32.4,1.5c6.7,2.8,21.5,.7,31.3,.7c7.2,0,12.5,-1.1,18.8,.6c5.3,1.2,8.8,-.3,14.2,-1.3c16.6,-2.7,18.3,-.3,25.4,1.3c9.6,1.8,18.1,2.1,27.3,.4Z" class="g4_363"/>
<path d="M848.5,582H629.7V565.1c4.3,1.7,7.9,2.5,12.5,.3c5.8,-2.7,11.5,-.6,17,1.1c5.6,1.7,13.4,-.3,20.9,-1.1c7.3,-.6,12.5,.2,18.8,.7c6.2,.4,28.1,0,32.4,1.5c6.7,2.7,21.5,.6,31.3,.6c7.2,0,12.5,-1.1,18.8,.6c5.3,1.2,8.8,-.3,14.2,-1.2c16.6,-2.8,18.3,-.3,25.4,1.2c9.6,1.8,18.1,2.1,27.3,.5Z" class="g5_363"/>
<path d="M848.5,582H629.7V565.6c4.3,1.6,7.9,2.4,12.5,.3c5.8,-2.8,11.5,-.6,17,1c5.6,1.7,13.4,-.3,20.9,-1c7.3,-.6,12.5,.1,18.8,.6c6.2,.4,28.1,0,32.4,1.5c6.7,2.8,21.5,.6,31.3,.6c7.2,0,12.5,-1,18.8,.6c5.3,1.3,8.8,-.3,14.2,-1.2c16.6,-2.7,18.3,-.3,25.4,1.2c9.6,1.9,18.1,2.2,27.3,.5Z" class="g6_363"/>
<path d="M848.5,582H629.7V566c4.3,1.7,7.9,2.5,12.5,.3c5.8,-2.7,11.5,-.6,17,1.1c5.6,1.7,13.4,-.3,20.9,-1.1c7.3,-.6,12.5,.2,18.8,.6c6.2,.5,28.1,0,32.4,1.6c6.7,2.7,21.5,.6,31.3,.6c7.2,0,12.5,-1.1,18.8,.6c5.3,1.2,8.8,-.3,14.2,-1.2c16.6,-2.8,18.3,-.4,25.4,1.2c9.6,1.8,18.1,2.1,27.3,.4Z" class="g7_363"/>
<path d="M848.5,582H629.7V566.4c4.3,1.7,7.9,2.5,12.5,.3c5.8,-2.7,11.5,-.6,17,1.1c5.6,1.7,13.4,-.3,20.9,-1.1c7.3,-.6,12.5,.2,18.8,.7c6.2,.4,28.1,0,32.4,1.5c6.7,2.7,21.5,.6,31.3,.6c7.2,0,12.5,-1.1,18.8,.6c5.3,1.2,8.8,-.3,14.2,-1.2c16.6,-2.8,18.3,-.3,25.4,1.2c9.6,1.8,18.1,2.1,27.3,.5Z" class="g8_363"/>
<path d="M629.7,449.7l.1,88.3c-.4,-.3,.2,-.1,.2,-.1c1.8,-.6,7.9,.7,10.4,0c5.5,-1.9,9.4,-2.2,15.2,-1.1c4.5,.8,7.2,1.7,11.7,1.1c3.6,-.6,5.8,-1.1,9.3,0c5,1.5,10.2,1.8,13.7,1c6,-1.2,9.5,.3,15.5,-.6c7.4,-1,14.6,-1.8,19.2,0c4.7,2,9.6,1.2,13.8,0c7.4,-1.8,13.7,-1.3,19.8,0c12.2,2.9,16.8,-4.1,32.4,0c6.3,1.7,11.8,2.9,17.1,1.2c8.3,-2.7,14.1,-.9,16.5,-.6c7.8,1.1,15.3,1.1,23.9,1.7V449.7Z" class="g1_363"/>
<path d="M629.7,449.7l.1,87.9c-.4,-.3,.2,-.2,.2,-.2c1.8,-.6,7.9,.8,10.4,0c5.5,-1.8,9.4,-2.1,15.2,-1c4.5,.7,7.2,1.7,11.7,1c3.6,-.6,5.8,-1,9.3,0c5,1.6,10.2,1.9,13.7,1.1c6,-1.2,9.5,.3,15.5,-.6c7.4,-1.1,14.6,-1.8,19.2,0c4.7,2,9.6,1.2,13.8,0c7.4,-1.8,13.7,-1.4,19.8,0c12.2,2.9,16.8,-4.1,32.4,0c6.3,1.7,11.8,2.9,17.1,1.2c8.3,-2.7,14.1,-.9,16.5,-.6c7.8,1.1,15.3,1.1,23.9,1.7V449.7Z" class="g2_363"/>
<path d="M629.7,449.7l.1,87.5c-.4,-.4,.2,-.2,.2,-.2c1.8,-.6,7.9,.8,10.4,0c5.5,-1.8,9.4,-2.1,15.2,-1.1c4.5,.8,7.2,1.7,11.7,1.1c3.6,-.6,5.8,-1.1,9.3,0c5,1.5,10.2,1.8,13.7,1.1c6,-1.3,9.5,.3,15.5,-.6c7.4,-1.1,14.6,-1.9,19.2,0c4.7,1.9,9.6,1.2,13.8,0c7.4,-1.9,13.7,-1.4,19.8,0c12.2,2.9,16.8,-4.2,32.4,0c6.3,1.6,11.8,2.9,17.1,1.2c8.3,-2.8,14.1,-.9,16.5,-.6c7.8,1,15.3,1,23.9,1.6v-90Z" class="g3_363"/>
<path d="M629.7,449.7l.1,87c-.4,-.3,.2,-.1,.2,-.1c1.8,-.6,7.9,.7,10.4,0c5.5,-1.9,9.4,-2.2,15.2,-1.1c4.5,.8,7.2,1.7,11.7,1.1c3.6,-.6,5.8,-1.1,9.3,0c5,1.5,10.2,1.8,13.7,1c6,-1.2,9.5,.3,15.5,-.6c7.4,-1,14.6,-1.8,19.2,0c4.7,2,9.6,1.3,13.8,0c7.4,-1.8,13.7,-1.3,19.8,0c12.2,2.9,16.8,-4.1,32.4,0c6.3,1.7,11.8,2.9,17.1,1.3c8.3,-2.8,14.1,-1,16.5,-.7c7.8,1.1,15.3,1.1,23.9,1.7V449.7Z" class="g4_363"/>
<path d="M629.7,449.7l.1,86.6c-.4,-.3,.2,-.2,.2,-.2c1.8,-.6,7.9,.8,10.4,0c5.5,-1.8,9.4,-2.1,15.2,-1c4.5,.7,7.2,1.6,11.7,1c3.6,-.6,5.8,-1,9.3,0c5,1.6,10.2,1.9,13.7,1.1c6,-1.2,9.5,.3,15.5,-.6c7.4,-1.1,14.6,-1.8,19.2,0c4.7,2,9.6,1.2,13.8,0c7.4,-1.8,13.7,-1.4,19.8,0c12.2,2.9,16.8,-4.1,32.4,0c6.3,1.7,11.8,2.9,17.1,1.2c8.3,-2.7,14.1,-.9,16.5,-.6c7.8,1.1,15.3,1.1,23.9,1.7V449.7Z" class="g5_363"/>
<path d="M629.7,449.7l.1,86.2c-.4,-.4,.2,-.2,.2,-.2c1.8,-.6,7.9,.8,10.4,0c5.5,-1.8,9.4,-2.1,15.2,-1.1c4.5,.8,7.2,1.7,11.7,1.1c3.6,-.6,5.8,-1.1,9.3,0c5,1.5,10.2,1.8,13.7,1.1c6,-1.3,9.5,.3,15.5,-.6c7.4,-1.1,14.6,-1.9,19.2,0c4.7,1.9,9.6,1.2,13.8,0c7.4,-1.9,13.7,-1.4,19.8,0c12.2,2.9,16.8,-4.2,32.4,0c6.3,1.6,11.8,2.9,17.1,1.2c8.3,-2.8,14.1,-.9,16.5,-.6c7.8,1,15.3,1,23.9,1.6V449.7Z" class="g6_363"/>
<path d="M629.7,449.7l.1,85.7c-.4,-.3,.2,-.1,.2,-.1c1.8,-.7,7.9,.7,10.4,0c5.5,-1.9,9.4,-2.2,15.2,-1.1c4.5,.8,7.2,1.7,11.7,1.1c3.6,-.7,5.8,-1.1,9.3,0c5,1.5,10.2,1.8,13.7,1c6,-1.2,9.5,.3,15.5,-.6c7.4,-1.1,14.6,-1.8,19.2,0c4.7,2,9.6,1.2,13.8,0c7.4,-1.8,13.7,-1.4,19.8,0c12.2,2.9,16.8,-4.1,32.4,0c6.3,1.7,11.8,2.9,17.1,1.2c8.3,-2.7,14.1,-.9,16.5,-.6c7.8,1.1,15.3,1.1,23.9,1.7V449.7Z" class="g7_363"/>
<path d="M629.7,449.7l.1,85.3c-.4,-.3,.2,-.2,.2,-.2c1.8,-.6,7.9,.8,10.4,0c5.5,-1.8,9.4,-2.1,15.2,-1.1c4.5,.8,7.2,1.7,11.7,1.1c3.6,-.6,5.8,-1.1,9.3,0c5,1.5,10.2,1.8,13.7,1.1c6,-1.2,9.5,.3,15.5,-.6c7.4,-1.1,14.6,-1.9,19.2,0c4.7,2,9.6,1.2,13.8,0c7.4,-1.9,13.7,-1.4,19.8,0c12.2,2.9,16.8,-4.2,32.4,0c6.3,1.7,11.8,2.9,17.1,1.2c8.3,-2.8,14.1,-.9,16.5,-.6c7.8,1.1,15.3,1.1,23.9,1.7V449.7Z" class="g8_363"/>
<path d="M848.5,540.9v26.5c-9.2,1.6,-17.9,1.5,-27.5,-.4c-7.1,-1.5,-8.8,-3.9,-25.4,-1.2c-5.4,.9,-8.9,2.5,-14.2,1.2c-6.3,-1.6,-11.6,-.6,-18.8,-.6c-9.8,0,-24.6,2.2,-31.3,-.6c-4.3,-1.5,-26.2,-1,-32.4,-1.5c-6.3,-.5,-11.5,-1.2,-18.8,-.6c-7.5,.8,-15.3,2.7,-20.9,1.1c-5.5,-1.7,-11.2,-3.9,-17,-1.1c-4.6,2.1,-8.2,1.4,-12.5,-.3l.1,-25.4c1.9,-.6,8.1,.6,10.6,-.1c5.5,-1.9,9.4,-2.2,15.2,-1.1c4.5,.8,7.2,1.7,11.7,1.1c3.6,-.6,5.8,-1.1,9.3,0c5,1.5,10.2,1.8,13.7,1c6,-1.2,9.5,.3,15.5,-.6c7.4,-1,14.6,-1.8,19.2,0c4.7,2,9.6,1.2,13.8,0c7.4,-1.8,13.7,-1.3,19.8,0c12.2,2.9,16.8,-4.1,32.4,0c6.3,1.7,11.8,2.9,17.1,1.2c8.3,-2.7,14.1,-.9,16.5,-.6c7.8,1.1,15.4,1,23.9,2Z" class="ga_363"/>
<path d="M848.5,541.3V567c-9.2,1.7,-17.9,1.6,-27.5,-.3c-7.1,-1.5,-8.8,-3.9,-25.4,-1.2c-5.4,.9,-8.9,2.5,-14.2,1.2c-6.3,-1.7,-11.6,-.6,-18.8,-.6c-9.8,0,-24.6,2.2,-31.3,-.6C727,564,705.1,564.4,698.9,564c-6.3,-.5,-11.5,-1.2,-18.8,-.6c-7.5,.7,-15.3,2.7,-20.9,1c-5.5,-1.6,-11.2,-3.8,-17,-1c-4.6,2.1,-8.2,1.3,-12.5,-.3l.1,-24.7c1.9,-.7,8.1,.6,10.6,-.2c5.5,-1.8,9.4,-2.1,15.2,-1.1c4.5,.8,7.2,1.7,11.7,1.1c3.6,-.6,5.8,-1.1,9.3,0c5,1.5,10.2,1.8,13.7,1.1c6,-1.2,9.5,.3,15.5,-.6c7.4,-1.1,14.6,-1.9,19.2,0c4.7,1.9,9.6,1.2,13.8,0c7.4,-1.9,13.7,-1.4,19.8,0c12.2,2.9,16.8,-4.2,32.4,0c6.3,1.6,11.8,2.9,17.1,1.2c8.3,-2.8,14.1,-.9,16.5,-.6c7.8,1,15.4,.9,23.9,2Z" class="gb_363"/>
<path d="M848.5,541.6v25.1c-9.2,1.7,-17.9,1.5,-27.5,-.3c-7.1,-1.5,-8.8,-4,-25.4,-1.2c-5.4,.9,-8.9,2.4,-14.2,1.2c-6.3,-1.7,-11.6,-.6,-18.8,-.6c-9.8,0,-24.6,2.1,-31.3,-.6c-4.3,-1.5,-26.2,-1.1,-32.4,-1.5c-6.3,-.5,-11.5,-1.3,-18.8,-.7c-7.5,.8,-15.3,2.8,-20.9,1.1c-5.5,-1.7,-11.2,-3.8,-17,-1.1c-4.6,2.2,-8.2,1.4,-12.5,-.3l.1,-24c1.9,-.6,8.1,.6,10.6,-.2c5.5,-1.8,9.4,-2.1,15.2,-1c4.5,.7,7.2,1.6,11.7,1c3.6,-.6,5.8,-1,9.3,0c5,1.6,10.2,1.9,13.7,1.1c6,-1.2,9.5,.3,15.5,-.6c7.4,-1.1,14.6,-1.8,19.2,0c4.7,2,9.6,1.2,13.8,0c7.4,-1.8,13.7,-1.4,19.8,0c12.2,2.9,16.8,-4.1,32.4,0c6.3,1.7,11.8,2.9,17.1,1.2c8.3,-2.7,14.1,-.9,16.5,-.6c7.8,1.1,15.4,.9,23.9,2Z" class="gc_363"/>
<path d="M848.5,541.9v24.5c-9.2,1.7,-17.9,1.5,-27.5,-.3c-7.1,-1.6,-8.8,-4,-25.4,-1.3c-5.4,1,-8.9,2.5,-14.2,1.3c-6.3,-1.7,-11.6,-.6,-18.8,-.6c-9.8,0,-24.6,2.1,-31.3,-.7c-4.3,-1.5,-26.2,-1,-32.4,-1.5c-6.3,-.4,-11.5,-1.2,-18.8,-.6c-7.5,.8,-15.3,2.8,-20.9,1.1c-5.5,-1.7,-11.2,-3.8,-17,-1.1c-4.6,2.1,-8.2,1.4,-12.5,-.3l.1,-23.4c1.9,-.6,8.1,.6,10.6,-.1c5.5,-1.9,9.4,-2.2,15.2,-1.1c4.5,.8,7.2,1.7,11.7,1.1c3.6,-.6,5.8,-1.1,9.3,0c5,1.5,10.2,1.8,13.7,1c6,-1.2,9.5,.3,15.5,-.6c7.4,-1,14.6,-1.8,19.2,0c4.7,2,9.6,1.2,13.8,0c7.4,-1.8,13.7,-1.4,19.8,0c12.2,2.9,16.8,-4.1,32.4,0c6.3,1.7,11.8,2.9,17.1,1.2c8.3,-2.7,14.1,-.9,16.5,-.6c7.8,1.1,15.4,.9,23.9,2Z" class="gd_363"/>
<path d="M848.5,542.2v23.9c-9.2,1.6,-17.9,1.5,-27.5,-.3c-7.1,-1.6,-8.8,-4,-25.4,-1.3c-5.4,.9,-8.9,2.5,-14.2,1.3c-6.3,-1.7,-11.6,-.7,-18.8,-.7c-9.8,0,-24.6,2.2,-31.3,-.6C727,563,705.1,563.5,698.9,563c-6.3,-.5,-11.5,-1.2,-18.8,-.6c-7.5,.8,-15.3,2.7,-20.9,1.1c-5.5,-1.7,-11.2,-3.9,-17,-1.1c-4.6,2.1,-8.2,1.4,-12.5,-.3l.1,-22.8c1.9,-.6,8.1,.6,10.6,-.1c5.5,-1.9,9.4,-2.2,15.2,-1.1c4.5,.8,7.2,1.7,11.7,1.1c3.6,-.6,5.8,-1.1,9.3,0c5,1.5,10.2,1.8,13.7,1.1c6,-1.3,9.5,.3,15.5,-.7c7.4,-1,14.6,-1.8,19.2,0c4.7,2,9.6,1.3,13.8,0c7.4,-1.8,13.7,-1.3,19.8,0c12.2,2.9,16.8,-4.1,32.4,0c6.3,1.7,11.8,2.9,17.1,1.3c8.3,-2.8,14.1,-1,16.5,-.6c7.8,1,15.4,.9,23.9,1.9Z" class="ge_363"/>
<path d="M848.5,542.6v23.1c-9.2,1.7,-17.9,1.5,-27.5,-.3c-7.1,-1.5,-8.8,-4,-25.4,-1.2c-5.4,.9,-8.9,2.4,-14.2,1.2c-6.3,-1.7,-11.6,-.6,-18.8,-.6c-9.8,0,-24.6,2.1,-31.3,-.6c-4.3,-1.5,-26.2,-1.1,-32.4,-1.5c-6.3,-.5,-11.5,-1.3,-18.8,-.6c-7.5,.7,-15.3,2.7,-20.9,1c-5.5,-1.7,-11.2,-3.8,-17,-1c-4.6,2.1,-8.2,1.3,-12.5,-.4l.1,-22c1.9,-.6,8.1,.6,10.6,-.2c5.5,-1.8,9.4,-2.1,15.2,-1.1c4.5,.8,7.2,1.7,11.7,1.1c3.6,-.6,5.8,-1.1,9.3,0c5,1.5,10.2,1.9,13.7,1.1c6,-1.2,9.5,.3,15.5,-.6c7.4,-1.1,14.6,-1.9,19.2,0c4.7,2,9.6,1.2,13.8,0c7.4,-1.9,13.7,-1.4,19.8,0c12.2,2.9,16.8,-4.1,32.4,0c6.3,1.7,11.8,2.9,17.1,1.2c8.3,-2.8,14.1,-.9,16.5,-.6c7.8,1.1,15.4,.9,23.9,2Z" class="gf_363"/>
<path d="M848.5,542.9v22.5c-9.2,1.7,-17.9,1.5,-27.5,-.3c-7.1,-1.5,-8.8,-4,-25.4,-1.2c-5.4,.9,-8.9,2.4,-14.2,1.2c-6.3,-1.7,-11.6,-.6,-18.8,-.6c-9.8,0,-24.6,2.1,-31.3,-.6c-4.3,-1.6,-26.2,-1.1,-32.4,-1.6c-6.3,-.4,-11.5,-1.2,-18.8,-.6c-7.5,.8,-15.3,2.8,-20.9,1.1c-5.5,-1.7,-11.2,-3.8,-17,-1.1c-4.6,2.2,-8.2,1.4,-12.5,-.3l.1,-21.4c1.9,-.6,8.1,.6,10.6,-.2c5.5,-1.8,9.4,-2.1,15.2,-1c4.5,.7,7.2,1.7,11.7,1c3.6,-.6,5.8,-1,9.3,0c5,1.6,10.2,1.9,13.7,1.1c6,-1.2,9.5,.3,15.5,-.6c7.4,-1.1,14.6,-1.8,19.2,0c4.7,2,9.6,1.2,13.8,0c7.4,-1.8,13.7,-1.4,19.8,0c12.2,2.9,16.8,-4.1,32.4,0c6.3,1.7,11.8,2.9,17.1,1.2c8.3,-2.7,14.1,-.9,16.5,-.6c7.8,1.1,15.4,.9,23.9,2Z" class="gg_363"/>
<path d="M848.5,543.2v21.9c-9.2,1.6,-17.9,1.5,-27.5,-.3c-7.1,-1.6,-8.8,-4,-25.4,-1.3c-5.4,1,-8.9,2.5,-14.2,1.3c-6.3,-1.7,-11.6,-.7,-18.8,-.7c-9.8,0,-24.6,2.2,-31.3,-.6C727,562,705.1,562.5,698.9,562c-6.3,-.5,-11.5,-1.2,-18.8,-.6c-7.5,.8,-15.3,2.7,-20.9,1.1c-5.5,-1.7,-11.2,-3.9,-17,-1.1c-4.6,2.1,-8.2,1.4,-12.5,-.3l.1,-20.8c1.9,-.6,8.1,.6,10.6,-.1c5.5,-1.9,9.4,-2.2,15.2,-1.1c4.5,.8,7.2,1.7,11.7,1.1c3.6,-.7,5.8,-1.1,9.3,0c5,1.5,10.2,1.8,13.7,1c6,-1.2,9.5,.3,15.5,-.6c7.4,-1.1,14.6,-1.8,19.2,0c4.7,2,9.6,1.2,13.8,0c7.4,-1.8,13.7,-1.4,19.8,0c12.2,2.9,16.8,-4.1,32.4,0c6.3,1.7,11.8,2.9,17.1,1.2c8.3,-2.7,14.1,-.9,16.5,-.6c7.8,1.1,15.4,.9,23.9,2Z" class="gh_363"/>
<path d="M630,563.4c4.3,1.7,7.6,2.4,12.2,.3c5.8,-2.8,11.5,-.6,17,1.1c5.6,1.6,13.4,-.3,20.9,-1.1c7.3,-.6,12.5,.1,18.8,.6c6.2,.5,28.1,0,32.4,1.5c6.7,2.8,21.5,.6,31.3,.6c7.2,0,12.5,-1,18.8,.6c5.3,1.3,8.8,-.3,14.2,-1.2c16.6,-2.7,18.3,-.3,25.4,1.2c9.6,1.9,18.1,2.2,27.3,.5M629.8,538c1.9,-.6,8.1,.6,10.6,-.1c5.5,-1.9,9.4,-2.2,15.2,-1.1c4.5,.8,7.2,1.7,11.7,1.1c3.6,-.6,5.8,-1.1,9.3,0c5,1.5,10.2,1.8,13.7,1c6,-1.2,9.5,.3,15.5,-.6c7.4,-1,14.6,-1.8,19.2,0c4.7,2,9.6,1.2,13.8,0c7.4,-1.8,13.7,-1.3,19.8,0c12.2,2.9,16.8,-4.1,32.4,0c6.3,1.7,11.8,2.9,17.1,1.2c8.3,-2.7,14.1,-.9,16.5,-.6c7.8,1.1,14.5,1.1,23.9,1.7" class="gi_363"/>
<path d="M848.5,567.4c-9.2,1.6,-17.9,1.5,-27.5,-.4c-7.1,-1.5,-8.8,-3.9,-25.4,-1.2c-5.4,.9,-8.9,2.5,-14.2,1.2c-6.3,-1.6,-11.6,-.6,-18.8,-.6c-9.8,0,-24.6,2.2,-31.3,-.6c-4.3,-1.5,-26.2,-1,-32.4,-1.5c-6.3,-.5,-11.5,-1.2,-18.8,-.6c-7.5,.8,-15.3,2.7,-20.9,1.1c-5.5,-1.7,-11.2,-3.9,-17,-1.1c-4.6,2.1,-8.2,1.4,-12.5,-.3m.1,-25.4c1.9,-.6,8.1,.6,10.6,-.1c5.5,-1.9,9.4,-2.2,15.2,-1.1c4.5,.8,7.2,1.7,11.7,1.1c3.6,-.6,5.8,-1.1,9.3,0c5,1.5,10.2,1.8,13.7,1c6,-1.2,9.5,.3,15.5,-.6c7.4,-1,14.6,-1.8,19.2,0c4.7,2,9.6,1.2,13.8,0c7.4,-1.8,13.7,-1.3,19.8,0c12.2,2.9,16.8,-4.1,32.4,0c6.3,1.7,11.8,2.9,17.1,1.2c8.3,-2.7,14.1,-.9,16.5,-.6c7.8,1.1,15.4,1,23.9,2" class="gj_363"/>
<path d="M716.3,562.6c-6.9,-.2,-14.2,-.2,-17.4,-.4c-4.3,-.3,-8.1,-.8,-12.4,-.8m-13.8,1.2c-5,.7,-9.8,1.2,-13.5,.1c-3.5,-1.1,-6.9,-2.3,-10.5,-2.4m-7.7,1.8c-4,1.5,-7.4,.7,-11.3,-.8" class="gk_363"/>
<path d="M687.9,557c-2.4,0,-5,0,-7.8,.2c-7.5,.7,-15.3,4,-20.9,2.5c-5.5,-1.5,-11.2,-3.5,-17,-1c-4,1.7,-7.2,1.4,-10.8,.3" class="gl_363"/>
<path d="M634.3,550.3c-1.5,-.2,-3.1,-.5,-4.6,-1m19.6,1.8c-2.3,-.1,-4.7,.1,-7.1,.9c-.8,.3,-1.6,.5,-2.4,.7m208.7,2.6c-9.2,1.4,-17.9,1.3,-27.5,-.2c-7.1,-1.2,-8.8,-3.2,-25.4,-1c-5.4,.8,-8.9,2,-14.2,1c-6.3,-1.4,-11.6,-.5,-18.8,-.5c-9.8,0,-24.6,1.7,-31.3,-.5c-4.3,-1.2,-26.2,-.9,-32.4,-1.2c-2.2,-.2,-4.3,-.3,-6.5,-.5m23.4,2.4c-6.8,-.1,-13.8,-.1,-16.9,-.3c-4.7,-.3,-8.8,-.6,-13.7,-.6m-9.9,.6c-3,.3,-5.9,.6,-8.7,.8M652,553.4c-3.2,-.5,-6.5,-.5,-9.8,.6c-4.6,1.6,-8.2,1.1,-12.5,-.2m69.2,6.7c-6.3,-.5,-11.5,-1.2,-18.8,-.6c-2.3,.2,-4.7,.6,-6.9,.9m-24.7,-2.2c-2,-.1,-4.2,.3,-6.3,1.3" class="gk_363"/>
<path d="M653.2,545.2c.8,.1,1.6,.2,2.4,.3c4.5,.6,7.2,1.2,11.7,.8c3.6,-.5,5.8,-.8,9.3,0c5,1.1,10.2,1.3,13.7,.8c5.3,-.8,8.6,0,13.4,-.3m-73.8,-2.7c1.8,-.5,8,.4,10.5,-.2c4.6,-1.2,8.2,-1.6,12.7,-1.2" class="gl_363"/>
<path d="M728,541.3c3.8,.8,7.5,.1,10.8,-.9c4.4,-1,8.3,-1.3,12.1,-1.1m-69.3,5.2c3.3,.4,6.4,.3,8.7,-.1c6,-1,9.5,.3,15.5,-.5c7.4,-.9,14.6,-1.5,19.2,0c4.7,1.6,9.6,1,13.8,0m-94.9,-2.6c3.9,-.6,7.2,-.6,11.7,0m-22.5,5.2c2.5,.1,5.7,.3,7.3,0c1.2,-.3,2.4,-.6,3.5,-.8m40.4,4c2.3,.1,4.3,.1,6,-.2c3.4,-.4,6,-.3,8.6,-.2m-43.2,-1.2c4.4,.5,7.1,1.1,11.6,.7m-28.6,.1c.6,0,1.2,0,1.7,-.1c2.1,-.5,3.9,-.8,5.8,-.9m23,-6.5c2.6,-.4,4.5,-.5,7.4,.2c1.6,.4,3.3,.7,5,.9m.4,-1.7c3.2,.4,6.1,.4,8.3,-.1c6,-1.3,9.5,.3,15.5,-.6c4.2,-.7,8.4,-1.2,12,-1.2M657,538.8c3.1,.6,5.4,1.1,8.5,1m-31.4,-.1c2.3,.1,4.9,.3,6.3,-.1c2.4,-.8,4.6,-1.3,6.8,-1.6" class="gk_363"/>
<path d="M775.7,544.2c4.1,-.5,8.7,-.8,15.3,.7c6.3,1.3,11.8,2.3,17.1,1c8.3,-2.3,14.1,-.8,16.5,-.5c7.8,.8,15.4,.7,23.9,1.6m-58.8,3c.4,.1,.8,.2,1.3,.2c6.3,1.3,11.8,2.2,17.1,.9c1.5,-.3,2.9,-.6,4.2,-.8m-95.8,-.9c3.3,0,6.2,.2,8.5,.8c4.7,1.5,9.6,.9,13.8,0c7.4,-1.3,13.7,-1,19.8,0M629.9,550c1.8,-.4,8,.5,10.5,-.1c5.5,-1.3,9.4,-1.6,15.2,-.8c4.5,.6,7.2,1.3,11.7,.8c3.6,-.5,5.8,-.8,9.3,0c5,1.1,10.2,1.3,13.7,.8c6,-.9,9.5,.2,15.5,-.5c3.7,-.4,7.4,-.7,10.7,-.8" class="gl_363"/>
<path d="M848.7,565.3c-3.9,.7,-7.8,1.1,-11.7,1.1m-13.7,-1c-.8,-.2,-1.6,-.3,-2.3,-.4c-7.1,-1.6,-8.8,-4,-25.4,-1.3c-2.9,.5,-5.3,1.2,-7.7,1.5m-18.7,-1.1c-2,.1,-4.2,.2,-6.6,.2c-9.8,0,-24.6,2.2,-31.3,-.6" class="gk_363"/>
<path d="M848.5,561.1c-9.2,1.3,-17.9,1.2,-27.5,-.3c-7.1,-1.2,-8.8,-3.2,-25.4,-1c-5.4,.8,-8.9,2,-14.2,1c-2.6,-.5,-5,-.7,-7.4,-.7" class="gj_363"/>
<path d="M793.3,542.9c5.4,1,10.1,1.7,14.8,.5c.8,-.2,1.5,-.4,2.3,-.6M749,541.4c3.4,0,6.5,.4,9.6,1c3.2,.6,5.8,.7,8.3,.5m2.1,9c4.9,-.8,10.1,-1.5,18.4,.2c1.5,.4,3.1,.7,4.5,.9m-42.7,-6.4c3.3,0,6.3,.4,9.4,.9c12.2,2.4,16.8,-3.3,32.4,0c1.6,.4,3.1,.7,4.6,1m0,0c4.4,.8,8.5,1.1,12.5,0c8.3,-2.2,14.1,-.7,16.5,-.5c7.8,.9,15.4,.8,23.9,1.6M751,539.3c1,.1,1.9,.1,2.7,.2m18.4,.8c4,-.8,8,-1.7,13.8,-.9m18.9,2.9c1.1,-.1,2.2,-.3,3.3,-.6c8.3,-2.8,14.1,-1,16.5,-.7c3.9,.6,7.9,.8,11.8,1m-9.1,1.7c6.9,.7,13.7,.7,21.2,1.6m-187.8,6.8c2,.2,4,.3,6.6,.1c1.5,-.2,2.7,-.4,3.9,-.4m40.4,7.1c-5.3,-.1,-10.2,-.1,-12.7,-.3c-1.2,-.1,-2.3,-.2,-3.4,-.3m50.7,-.8c-5.9,.1,-11.5,0,-14.9,-1.1c-3.1,-.9,-15.6,-.2,-24.5,-.3m141.8,1.2c-4.7,.6,-9.3,1,-13.9,.9m-6.6,2.2c-2.4,-.2,-4.7,-.5,-7.1,-.9c-3.2,-.6,-5.2,-1.3,-8,-1.7m-.8,-1.5c-3.5,-.5,-8.1,-.6,-17.4,.7m.8,.7c-5.3,.8,-8.9,2,-14.2,1c-6.3,-1.3,-11.6,-.5,-18.8,-.5c-4.8,0,-10.8,.4,-16.5,.6" class="gk_363"/>
<path d="M845.8,552.6c-8.2,.6,-16.2,.5,-24.8,-.4" class="gl_363"/>
<path d="M723.8,536.7V460.1h30.5v76.6" class="g9_363"/>
<path d="M108.5,378.2h15.3V365.9H108.5v12.3Z" class="gm_363"/>
<path d="M108.5,396.5h15.3V384.3H108.5v12.2Z" class="gm_363"/>
<path d="M108.5,414.8h15.3V402.6H108.5v12.2Z" class="gm_363"/>
<g clip-path="url(#c1_363)">
<path d="M328.9,858.5H108.6V840.7c4.3,1.7,3.4,2.4,8,.3c5.8,-2.8,11.4,-.6,16.9,1c5.7,1.7,13.5,-.3,21,-1c7.3,-.6,12.5,.1,18.8,.6c6.2,.4,28.1,0,32.3,1.5c6.8,2.8,21.6,.6,31.4,.6c7.1,0,12.5,-1,18.8,.6c5.3,1.3,8.8,-.3,14.2,-1.2c16.6,-2.7,18.3,-.3,25.3,1.2c9.6,1.9,24.3,2.2,33.5,.5Z" class="g1_363"/>
<path d="M328.9,858.5H108.6V841.1c4.3,1.7,3.4,2.5,8,.3c5.8,-2.7,11.4,-.6,16.9,1.1c5.7,1.7,13.5,-.3,21,-1.1c7.3,-.6,12.5,.2,18.8,.6c6.2,.5,28.1,0,32.3,1.6c6.8,2.7,21.6,.6,31.4,.6c7.1,0,12.5,-1.1,18.8,.6c5.3,1.2,8.8,-.3,14.2,-1.2c16.6,-2.8,18.3,-.3,25.3,1.2c9.6,1.8,24.3,2.1,33.5,.4Z" class="g2_363"/>
<path d="M328.9,858.5H108.6v-17c4.3,1.7,3.4,2.5,8,.4c5.8,-2.8,11.4,-.7,16.9,1c5.7,1.7,13.5,-.3,21,-1c7.3,-.7,12.5,.1,18.8,.6c6.2,.4,28.1,0,32.3,1.5c6.8,2.7,21.6,.6,31.4,.6c7.1,0,12.5,-1.1,18.8,.6c5.3,1.2,8.8,-.3,14.2,-1.2c16.6,-2.8,18.3,-.3,25.3,1.2c9.6,1.9,24.3,2.2,33.5,.5Z" class="g3_363"/>
<path d="M328.9,858.5H108.6V842c4.3,1.7,3.4,2.4,8,.3c5.8,-2.8,11.4,-.6,16.9,1.1c5.7,1.6,13.5,-.3,21,-1.1c7.3,-.6,12.5,.1,18.8,.6c6.2,.5,28.1,0,32.3,1.5c6.8,2.8,21.6,.6,31.4,.6c7.1,0,12.5,-1,18.8,.7c5.3,1.2,8.8,-.4,14.2,-1.3c16.6,-2.7,18.3,-.3,25.3,1.3c9.6,1.8,24.3,2.1,33.5,.4Z" class="g4_363"/>
<path d="M328.9,858.5H108.6V842.4c4.3,1.7,3.4,2.5,8,.3c5.8,-2.7,11.4,-.6,16.9,1.1c5.7,1.7,13.5,-.3,21,-1.1c7.3,-.6,12.5,.2,18.8,.6c6.2,.5,28.1,0,32.3,1.6c6.8,2.7,21.6,.6,31.4,.6c7.1,0,12.5,-1.1,18.8,.6c5.3,1.2,8.8,-.3,14.2,-1.2c16.6,-2.8,18.3,-.3,25.3,1.2c9.6,1.8,24.3,2.1,33.5,.5Z" class="g5_363"/>
<path d="M328.9,858.5H108.6V842.9c4.3,1.6,3.4,2.4,8,.3c5.8,-2.8,11.4,-.6,16.9,1c5.7,1.7,13.5,-.3,21,-1c7.3,-.6,12.5,.1,18.8,.6c6.2,.4,28.1,0,32.3,1.5c6.8,2.8,21.6,.6,31.4,.6c7.1,0,12.5,-1.1,18.8,.6c5.3,1.2,8.8,-.3,14.2,-1.2c16.6,-2.7,18.3,-.3,25.3,1.2c9.6,1.9,24.3,2.2,33.5,.5Z" class="g6_363"/>
<path d="M328.9,858.5H108.6V843.3c4.3,1.7,3.4,2.4,8,.3c5.8,-2.7,11.4,-.6,16.9,1.1c5.7,1.7,13.5,-.3,21,-1.1c7.3,-.6,12.5,.2,18.8,.6c6.2,.5,28.1,0,32.3,1.5c6.8,2.8,21.6,.7,31.4,.7c7.1,0,12.5,-1.1,18.8,.6c5.3,1.2,8.8,-.3,14.2,-1.3c16.6,-2.7,18.3,-.3,25.3,1.3c9.6,1.8,24.3,2.1,33.5,.4Z" class="g7_363"/>
<path d="M328.9,858.5H108.6V843.7c4.3,1.7,3.4,2.5,8,.3c5.8,-2.7,11.4,-.6,16.9,1.1c5.7,1.7,13.5,-.3,21,-1.1c7.3,-.6,12.5,.2,18.8,.6c6.2,.5,28.1,0,32.3,1.6c6.8,2.7,21.6,.6,31.4,.6c7.1,0,12.5,-1.1,18.8,.6c5.3,1.2,8.8,-.3,14.2,-1.2c16.6,-2.8,18.3,-.3,25.3,1.2c9.6,1.8,24.3,2.1,33.5,.5Z" class="g8_363"/>
<path d="M108.6,745.3l.2,70c-.5,-.3,.1,-.1,.1,-.1c1.9,-.7,3.4,.7,5.8,0c5.5,-1.9,9.5,-2.2,15.3,-1.1c4.4,.8,7.2,1.7,11.6,1.1c3.7,-.7,5.8,-1.1,9.3,0c5.1,1.5,10.3,1.8,13.8,1c6,-1.2,9.5,.3,15.4,-.6c7.5,-1.1,14.7,-1.8,19.3,0c4.7,2,9.6,1.2,13.7,0c7.5,-1.8,13.8,-1.4,19.9,0c12.2,2.9,16.8,-4.1,32.4,0c6.2,1.7,11.7,2.9,17.1,1.2c8.2,-2.7,14,-.9,16.5,-.6c7.8,1.1,21.4,1.1,29.9,1.7V745.3Z" class="g1_363"/>
<path d="M108.6,745.3l.2,69.6c-.5,-.3,.1,-.2,.1,-.2c1.9,-.6,3.4,.8,5.8,0c5.5,-1.8,9.5,-2.1,15.3,-1c4.4,.7,7.2,1.6,11.6,1c3.7,-.6,5.8,-1,9.3,0c5.1,1.6,10.3,1.9,13.8,1.1c6,-1.2,9.5,.3,15.4,-.6c7.5,-1.1,14.7,-1.8,19.3,0c4.7,2,9.6,1.2,13.7,0c7.5,-1.8,13.8,-1.4,19.9,0c12.2,2.9,16.8,-4.1,32.4,0c6.2,1.7,11.7,2.9,17.1,1.2c8.2,-2.7,14,-.9,16.5,-.6c7.8,1.1,21.4,1.1,29.9,1.7V745.3Z" class="g2_363"/>
<path d="M108.6,745.3l.2,69.1c-.5,-.3,.1,-.1,.1,-.1c1.9,-.6,3.4,.8,5.8,0c5.5,-1.8,9.5,-2.1,15.3,-1.1c4.4,.8,7.2,1.7,11.6,1.1c3.7,-.6,5.8,-1.1,9.3,0c5.1,1.5,10.3,1.8,13.8,1.1c6,-1.3,9.5,.3,15.4,-.7c7.5,-1,14.7,-1.8,19.3,0c4.7,2,9.6,1.3,13.7,0c7.5,-1.8,13.8,-1.3,19.9,0c12.2,3,16.8,-4.1,32.4,0c6.2,1.7,11.7,3,17.1,1.3c8.2,-2.8,14,-.9,16.5,-.6c7.8,1,21.4,1,29.9,1.6V745.3Z" class="g3_363"/>
<path d="M108.6,745.3l.2,68.7c-.5,-.3,.1,-.1,.1,-.1c1.9,-.6,3.4,.7,5.8,0c5.5,-1.9,9.5,-2.2,15.3,-1.1c4.4,.8,7.2,1.7,11.6,1.1c3.7,-.6,5.8,-1.1,9.3,0c5.1,1.5,10.3,1.8,13.8,1c6,-1.2,9.5,.3,15.4,-.6c7.5,-1,14.7,-1.8,19.3,0c4.7,2,9.6,1.2,13.7,0c7.5,-1.8,13.8,-1.4,19.9,0c12.2,2.9,16.8,-4.1,32.4,0c6.2,1.7,11.7,2.9,17.1,1.2c8.2,-2.7,14,-.9,16.5,-.6c7.8,1.1,21.4,1.1,29.9,1.7V745.3Z" class="g4_363"/>
<path d="M108.6,745.3l.2,68.3c-.5,-.3,.1,-.2,.1,-.2c1.9,-.6,3.4,.8,5.8,0c5.5,-1.8,9.5,-2.1,15.3,-1.1c4.4,.8,7.2,1.7,11.6,1.1c3.7,-.6,5.8,-1.1,9.3,0c5.1,1.5,10.3,1.9,13.8,1.1c6,-1.2,9.5,.3,15.4,-.6c7.5,-1.1,14.7,-1.9,19.3,0c4.7,2,9.6,1.2,13.7,0c7.5,-1.9,13.8,-1.4,19.9,0c12.2,2.9,16.8,-4.1,32.4,0c6.2,1.7,11.7,2.9,17.1,1.2c8.2,-2.8,14,-.9,16.5,-.6c7.8,1.1,21.4,1.1,29.9,1.7V745.3Z" class="g5_363"/>
<path d="M108.6,745.3l.2,67.8c-.5,-.3,.1,-.1,.1,-.1c1.9,-.6,3.4,.7,5.8,0c5.5,-1.9,9.5,-2.1,15.3,-1.1c4.4,.8,7.2,1.7,11.6,1.1c3.7,-.6,5.8,-1.1,9.3,0c5.1,1.5,10.3,1.8,13.8,1.1c6,-1.3,9.5,.3,15.4,-.7c7.5,-1,14.7,-1.8,19.3,0c4.7,2,9.6,1.3,13.7,0c7.5,-1.8,13.8,-1.3,19.9,0c12.2,3,16.8,-4.1,32.4,0c6.2,1.7,11.7,3,17.1,1.3c8.2,-2.8,14,-1,16.5,-.6c7.8,1,21.4,1,29.9,1.6V745.3Z" class="g6_363"/>
<path d="M108.6,745.3l.2,67.4c-.5,-.3,.1,-.2,.1,-.2c1.9,-.6,3.4,.8,5.8,0c5.5,-1.8,9.5,-2.1,15.3,-1c4.4,.7,7.2,1.7,11.6,1c3.7,-.6,5.8,-1,9.3,0c5.1,1.6,10.3,1.9,13.8,1.1c6,-1.2,9.5,.3,15.4,-.6c7.5,-1.1,14.7,-1.8,19.3,0c4.7,2,9.6,1.2,13.7,0c7.5,-1.8,13.8,-1.4,19.9,0c12.2,2.9,16.8,-4.1,32.4,0c6.2,1.7,11.7,2.9,17.1,1.2c8.2,-2.7,14,-.9,16.5,-.6c7.8,1.1,21.4,1.1,29.9,1.7v-70Z" class="g7_363"/>
<path d="M108.6,745.3l.2,67c-.5,-.3,.1,-.2,.1,-.2c1.9,-.6,3.4,.8,5.8,0c5.5,-1.8,9.5,-2.1,15.3,-1.1c4.4,.8,7.2,1.7,11.6,1.1c3.7,-.6,5.8,-1.1,9.3,0c5.1,1.5,10.3,1.8,13.8,1.1c6,-1.2,9.5,.3,15.4,-.6c7.5,-1.1,14.7,-1.9,19.3,0c4.7,1.9,9.6,1.2,13.7,0c7.5,-1.9,13.8,-1.4,19.9,0c12.2,2.9,16.8,-4.2,32.4,0c6.2,1.6,11.7,2.9,17.1,1.2c8.2,-2.8,14,-.9,16.5,-.6c7.8,1,21.4,1,29.9,1.7V745.3Z" class="g8_363"/>
<path d="M328.9,818.2v26.4c-9.1,1.7,-24,1.6,-33.6,-.3c-7,-1.5,-8.7,-3.9,-25.3,-1.2c-5.4,.9,-8.9,2.5,-14.2,1.2c-6.3,-1.6,-11.7,-.6,-18.8,-.6c-9.8,0,-24.6,2.2,-31.4,-.6c-4.2,-1.5,-26.1,-1.1,-32.3,-1.5c-6.3,-.5,-11.5,-1.2,-18.8,-.6c-7.5,.7,-15.3,2.7,-21,1c-5.5,-1.6,-11.1,-3.8,-16.9,-1c-4.6,2.1,-3.7,1.4,-8,-.3l.2,-25.4c1.8,-.6,3.5,.6,5.9,-.1c5.5,-1.9,9.5,-2.2,15.3,-1.1c4.4,.8,7.2,1.7,11.6,1.1c3.7,-.7,5.8,-1.1,9.3,0c5.1,1.5,10.3,1.8,13.8,1c6,-1.2,9.5,.3,15.4,-.6c7.5,-1.1,14.7,-1.8,19.3,0c4.7,2,9.6,1.2,13.7,0c7.5,-1.8,13.8,-1.4,19.9,0c12.2,2.9,16.8,-4.1,32.4,0c6.2,1.7,11.7,2.9,17.1,1.2c8.2,-2.7,14,-.9,16.5,-.6c7.8,1.1,21.5,.9,29.9,2Z" class="ga_363"/>
<path d="M328.9,818.6v25.7c-9.1,1.7,-24,1.6,-33.6,-.3c-7,-1.5,-8.7,-4,-25.3,-1.2c-5.4,.9,-8.9,2.4,-14.2,1.2c-6.3,-1.7,-11.7,-.6,-18.8,-.6c-9.8,0,-24.6,2.1,-31.4,-.6c-4.2,-1.5,-26.1,-1.1,-32.3,-1.5c-6.3,-.5,-11.5,-1.3,-18.8,-.6c-7.5,.7,-15.3,2.7,-21,1c-5.5,-1.7,-11.1,-3.8,-16.9,-1c-4.6,2.1,-3.7,1.3,-8,-.3l.2,-24.8c1.8,-.6,3.5,.7,5.9,-.1c5.5,-1.8,9.5,-2.1,15.3,-1.1c4.4,.8,7.2,1.7,11.6,1.1c3.7,-.6,5.8,-1.1,9.3,0c5.1,1.5,10.3,1.8,13.8,1.1c6,-1.3,9.5,.3,15.4,-.6c7.5,-1.1,14.7,-1.9,19.3,0c4.7,1.9,9.6,1.2,13.7,0c7.5,-1.9,13.8,-1.4,19.9,0c12.2,2.9,16.8,-4.2,32.4,0c6.2,1.6,11.7,2.9,17.1,1.2c8.2,-2.8,14,-.9,16.5,-.6c7.8,1,21.5,.9,29.9,2Z" class="gb_363"/>
<path d="M328.9,818.9V844c-9.1,1.7,-24,1.5,-33.6,-.3c-7,-1.5,-8.7,-4,-25.3,-1.2c-5.4,.9,-8.9,2.4,-14.2,1.2c-6.3,-1.7,-11.7,-.6,-18.8,-.6c-9.8,0,-24.6,2.1,-31.4,-.6c-4.2,-1.6,-26.1,-1.1,-32.3,-1.6c-6.3,-.4,-11.5,-1.2,-18.8,-.6c-7.5,.8,-15.3,2.8,-21,1.1c-5.5,-1.7,-11.1,-3.8,-16.9,-1.1c-4.6,2.2,-3.7,1.4,-8,-.3l.2,-24c1.8,-.6,3.5,.6,5.9,-.2c5.5,-1.8,9.5,-2.1,15.3,-1.1c4.4,.8,7.2,1.7,11.6,1.1c3.7,-.6,5.8,-1.1,9.3,0c5.1,1.5,10.3,1.9,13.8,1.1c6,-1.2,9.5,.3,15.4,-.6c7.5,-1.1,14.7,-1.9,19.3,0c4.7,2,9.6,1.2,13.7,0c7.5,-1.9,13.8,-1.4,19.9,0c12.2,2.9,16.8,-4.1,32.4,0c6.2,1.7,11.7,2.9,17.1,1.2c8.2,-2.8,14,-.9,16.5,-.6c7.8,1.1,21.5,.9,29.9,2Z" class="gc_363"/>
<path d="M328.9,819.2v24.5c-9.1,1.6,-24,1.5,-33.6,-.3c-7,-1.6,-8.7,-4,-25.3,-1.3c-5.4,1,-8.9,2.5,-14.2,1.3c-6.3,-1.7,-11.7,-.6,-18.8,-.6c-9.8,0,-24.6,2.1,-31.4,-.7c-4.2,-1.5,-26.1,-1,-32.3,-1.5c-6.3,-.4,-11.5,-1.2,-18.8,-.6c-7.5,.8,-15.3,2.8,-21,1.1C128,839.4,122.4,837.3,116.6,840c-4.6,2.1,-3.7,1.4,-8,-.3l.2,-23.4c1.8,-.6,3.5,.6,5.9,-.1c5.5,-1.9,9.5,-2.2,15.3,-1.1c4.4,.7,7.2,1.7,11.6,1.1c3.7,-.7,5.8,-1.1,9.3,0c5.1,1.5,10.3,1.8,13.8,1c6,-1.2,9.5,.3,15.4,-.6c7.5,-1.1,14.7,-1.8,19.3,0c4.7,2,9.6,1.2,13.7,0c7.5,-1.8,13.8,-1.4,19.9,0c12.2,2.9,16.8,-4.1,32.4,0c6.2,1.7,11.7,2.9,17.1,1.2c8.2,-2.7,14,-.9,16.5,-.6c7.8,1.1,21.5,.9,29.9,2Z" class="gd_363"/>
<path d="M328.9,819.5v23.8c-9.1,1.7,-24,1.6,-33.6,-.3c-7,-1.5,-8.7,-3.9,-25.3,-1.2c-5.4,.9,-8.9,2.5,-14.2,1.2c-6.3,-1.6,-11.7,-.6,-18.8,-.6c-9.8,0,-24.6,2.2,-31.4,-.6c-4.2,-1.5,-26.1,-1,-32.3,-1.5c-6.3,-.5,-11.5,-1.2,-18.8,-.6c-7.5,.7,-15.3,2.7,-21,1.1c-5.5,-1.7,-11.1,-3.9,-16.9,-1.1c-4.6,2.1,-3.7,1.4,-8,-.3l.2,-22.8c1.8,-.6,3.5,.6,5.9,-.1c5.5,-1.9,9.5,-2.2,15.3,-1.1c4.4,.8,7.2,1.7,11.6,1.1c3.7,-.6,5.8,-1.1,9.3,0c5.1,1.5,10.3,1.8,13.8,1c6,-1.2,9.5,.3,15.4,-.6c7.5,-1,14.7,-1.8,19.3,0c4.7,2,9.6,1.3,13.7,0c7.5,-1.8,13.8,-1.3,19.9,0c12.2,2.9,16.8,-4.1,32.4,0c6.2,1.7,11.7,2.9,17.1,1.3c8.2,-2.8,14,-1,16.5,-.7c7.8,1.1,21.5,1,29.9,2Z" class="ge_363"/>
<path d="M328.9,819.9V843c-9.1,1.7,-24,1.5,-33.6,-.3c-7,-1.5,-8.7,-4,-25.3,-1.2c-5.4,.9,-8.9,2.4,-14.2,1.2c-6.3,-1.7,-11.7,-.6,-18.8,-.6c-9.8,0,-24.6,2.1,-31.4,-.6C201.4,840,179.5,840.4,173.3,840c-6.3,-.5,-11.5,-1.3,-18.8,-.7c-7.5,.8,-15.3,2.8,-21,1.1c-5.5,-1.7,-11.1,-3.8,-16.9,-1.1c-4.6,2.2,-3.7,1.4,-8,-.3l.2,-22.1c1.8,-.6,3.5,.7,5.9,-.1c5.5,-1.8,9.5,-2.1,15.3,-1.1c4.4,.8,7.2,1.7,11.6,1.1c3.7,-.6,5.8,-1.1,9.3,0c5.1,1.5,10.3,1.8,13.8,1.1c6,-1.3,9.5,.3,15.4,-.6c7.5,-1.1,14.7,-1.9,19.3,0c4.7,1.9,9.6,1.2,13.7,0c7.5,-1.9,13.8,-1.4,19.9,0c12.2,2.9,16.8,-4.2,32.4,0c6.2,1.6,11.7,2.9,17.1,1.2c8.2,-2.8,14,-.9,16.5,-.6c7.8,1,21.5,.9,29.9,2Z" class="gf_363"/>
<path d="M328.9,820.2v22.5c-9.1,1.7,-24,1.5,-33.6,-.3c-7,-1.5,-8.7,-4,-25.3,-1.2c-5.4,.9,-8.9,2.4,-14.2,1.2c-6.3,-1.7,-11.7,-.6,-18.8,-.6c-9.8,0,-24.6,2.1,-31.4,-.6c-4.2,-1.6,-26.1,-1.1,-32.3,-1.6c-6.3,-.4,-11.5,-1.2,-18.8,-.6c-7.5,.8,-15.3,2.8,-21,1.1C128,838.4,122.4,836.3,116.6,839c-4.6,2.2,-3.7,1.4,-8,-.3l.2,-21.4c1.8,-.6,3.5,.6,5.9,-.2c5.5,-1.8,9.5,-2.1,15.3,-1c4.4,.7,7.2,1.6,11.6,1c3.7,-.6,5.8,-1,9.3,0c5.1,1.6,10.3,1.9,13.8,1.1c6,-1.2,9.5,.3,15.4,-.6c7.5,-1.1,14.7,-1.8,19.3,0c4.7,2,9.6,1.2,13.7,0c7.5,-1.8,13.8,-1.4,19.9,0c12.2,2.9,16.8,-4.1,32.4,0c6.2,1.7,11.7,2.9,17.1,1.2c8.2,-2.7,14,-.9,16.5,-.6c7.8,1.1,21.5,.9,29.9,2Z" class="gg_363"/>
<path d="M328.9,820.5v21.9c-9.1,1.6,-24,1.5,-33.6,-.4c-7,-1.5,-8.7,-3.9,-25.3,-1.2c-5.4,.9,-8.9,2.5,-14.2,1.2c-6.3,-1.6,-11.7,-.6,-18.8,-.6c-9.8,0,-24.6,2.2,-31.4,-.6c-4.2,-1.5,-26.1,-1,-32.3,-1.5c-6.3,-.5,-11.5,-1.2,-18.8,-.6c-7.5,.8,-15.3,2.7,-21,1.1c-5.5,-1.7,-11.1,-3.9,-16.9,-1.1c-4.6,2.1,-3.7,1.4,-8,-.3l.2,-20.8c1.8,-.6,3.5,.6,5.9,-.1c5.5,-1.9,9.5,-2.2,15.3,-1.1c4.4,.7,7.2,1.7,11.6,1.1c3.7,-.7,5.8,-1.1,9.3,0c5.1,1.5,10.3,1.8,13.8,1c6,-1.2,9.5,.3,15.4,-.6c7.5,-1.1,14.7,-1.8,19.3,0c4.7,2,9.6,1.2,13.7,0c7.5,-1.8,13.8,-1.4,19.9,0c12.2,2.9,16.8,-4.1,32.4,0c6.2,1.7,11.7,2.9,17.1,1.2c8.2,-2.7,14,-.9,16.5,-.6c7.8,1.1,21.5,.9,29.9,2Z" class="gh_363"/>
<path d="M108.9,840.7c4.3,1.7,3.1,2.4,7.7,.3c5.8,-2.8,11.4,-.6,16.9,1c5.7,1.7,13.5,-.3,21,-1c7.3,-.6,12.5,.1,18.8,.6c6.2,.4,28.1,0,32.3,1.5c6.8,2.8,21.6,.6,31.4,.6c7.1,0,12.5,-1,18.8,.6c5.3,1.3,8.8,-.3,14.2,-1.2c16.6,-2.7,18.3,-.3,25.3,1.2c9.6,1.9,24.3,2.2,33.5,.5m-220,-29.5c1.8,-.6,3.5,.6,5.9,-.1c5.5,-1.9,9.5,-2.2,15.3,-1.1c4.4,.8,7.2,1.7,11.6,1.1c3.7,-.7,5.8,-1.1,9.3,0c5.1,1.5,10.3,1.8,13.8,1c6,-1.2,9.5,.3,15.4,-.6c7.5,-1.1,14.7,-1.8,19.3,0c4.7,2,9.6,1.2,13.7,0c7.5,-1.8,13.8,-1.4,19.9,0c12.2,2.9,16.8,-4.1,32.4,0c6.2,1.7,11.7,2.9,17.1,1.2c8.2,-2.7,14,-.9,16.5,-.6c7.8,1.1,20.6,1.1,29.9,1.7" class="gi_363"/>
<path d="M329,844.6c-9.2,1.7,-24.1,1.6,-33.7,-.3c-7,-1.5,-8.7,-3.9,-25.3,-1.2c-5.4,.9,-8.9,2.5,-14.2,1.2c-6.3,-1.6,-11.7,-.6,-18.8,-.6c-9.8,0,-24.6,2.2,-31.4,-.6c-4.2,-1.5,-26.1,-1.1,-32.3,-1.5c-6.3,-.5,-11.5,-1.2,-18.8,-.6c-7.5,.7,-15.3,2.7,-21,1c-5.5,-1.6,-11.1,-3.8,-16.9,-1c-4.6,2.1,-3.7,1.4,-8,-.3m.2,-25.4c1.8,-.6,3.5,.6,5.9,-.1c5.5,-1.9,9.5,-2.2,15.3,-1.1c4.4,.8,7.2,1.7,11.6,1.1c3.7,-.7,5.8,-1.1,9.3,0c5.1,1.5,10.3,1.8,13.8,1c6,-1.2,9.5,.3,15.4,-.6c7.5,-1.1,14.7,-1.8,19.3,0c4.7,2,9.6,1.2,13.7,0c7.5,-1.8,13.8,-1.4,19.9,0c12.2,2.9,16.8,-4.1,32.4,0c6.2,1.7,11.7,2.9,17.1,1.2c8.2,-2.7,14,-.9,16.5,-.6c7.8,1.1,21.5,.9,29.9,2" class="gj_363"/>
</g>
<path d="M190.7,839.9c-6.9,-.2,-14.2,-.2,-17.4,-.4c-4.3,-.3,-8.1,-.8,-12.4,-.8m-13.8,1.2c-5,.7,-9.8,1.2,-13.6,.1c-3.4,-1.1,-6.9,-2.3,-10.4,-2.4m-7.8,1.8c-4,1.5,-2.8,.7,-6.7,-.8" class="gk_363"/>
<path d="M162.3,834.3c-2.4,-.1,-5,0,-7.8,.2c-7.5,.7,-15.3,4,-21,2.5c-5.5,-1.6,-11.1,-3.5,-16.9,-1c-4,1.7,-2.7,1.4,-6.3,.3" class="gl_363"/>
<path clip-path="url(#c1_363)" d="M123.7,828.4c-2.3,-.1,-4.7,.1,-7.1,.9c-.9,.3,-1.7,.5,-2.5,.7M329,832.6c-9.2,1.4,-24.1,1.3,-33.7,-.2c-7,-1.2,-8.7,-3.2,-25.3,-1c-5.4,.7,-8.9,2,-14.2,1c-6.3,-1.4,-11.7,-.5,-18.8,-.5c-9.8,0,-24.6,1.7,-31.4,-.5c-4.2,-1.2,-26.1,-.9,-32.3,-1.2c-2.3,-.2,-4.4,-.3,-6.5,-.5m23.3,2.3c-6.7,0,-13.7,0,-16.8,-.2c-4.8,-.3,-8.9,-.6,-13.8,-.6m-9.9,.6c-2.9,.3,-5.9,.6,-8.6,.7m-14.6,-1.8c-3.2,-.5,-6.5,-.5,-9.8,.6c-4.6,1.6,-3.7,1,-8,-.2m64.7,6.7c-6.3,-.5,-11.5,-1.3,-18.8,-.6c-2.3,.2,-4.7,.6,-7,.9m-24.6,-2.3c-2.1,0,-4.2,.4,-6.3,1.4" class="gk_363"/>
<path d="M127.6,822.5c.8,.1,1.5,.2,2.4,.3c4.4,.5,7.2,1.2,11.6,.8c3.7,-.5,5.8,-.8,9.3,0c5.1,1.1,10.3,1.3,13.8,.8c5.2,-.8,8.6,-.1,13.4,-.3m-69.3,-2.8c1.9,-.5,3.5,.5,5.9,-.1c4.7,-1.2,8.3,-1.6,12.8,-1.2" class="gl_363"/>
<path d="M202.4,818.6c3.8,.8,7.5,.1,10.7,-.9c4.4,-1.1,8.4,-1.3,12.2,-1.1M156,821.7c3.3,.4,6.3,.4,8.7,0c6,-1,9.5,.2,15.4,-.5c7.5,-.9,14.7,-1.5,19.3,0c4.7,1.6,9.6,1,13.7,0m-94.8,-2.6c3.9,-.6,7.2,-.6,11.7,0m-21,5.2c2.5,.1,4.1,.3,5.7,0c1.3,-.3,2.4,-.6,3.6,-.8m40.4,4c2.2,.1,4.3,0,6,-.2c3.4,-.5,5.9,-.3,8.6,-.2m-43.2,-1.2c4.4,.5,7.1,1.1,11.5,.7m-28.6,0c.7,.1,1.3,.1,1.7,0c2.1,-.5,4,-.8,5.9,-.9m23,-6.5c2.6,-.4,4.5,-.5,7.3,.2c1.7,.4,3.4,.7,5.1,.9m.4,-1.7c3.1,.4,6,.3,8.3,-.1c6,-1.3,9.5,.3,15.4,-.7c4.3,-.6,8.5,-1.1,12.1,-1.1M131.3,816c3.2,.6,5.5,1.2,8.6,1.1m-31,-.1c2.4,.1,4.4,.3,5.8,-.1c2.5,-.8,4.7,-1.4,6.8,-1.6" class="gk_363"/>
<g clip-path="url(#c1_363)">
<path d="M250.1,821.5c4,-.5,8.7,-.8,15.3,.7c6.2,1.3,11.7,2.3,17.1,1c8.2,-2.3,14,-.8,16.5,-.5c7.8,.8,21.5,.7,29.9,1.6m-64.9,3c.5,.1,.9,.1,1.4,.2c6.2,1.3,11.7,2.1,17.1,.9c1.5,-.3,2.9,-.6,4.2,-.8m-95.8,-.9c3.3,0,6.2,.2,8.5,.8c4.7,1.5,9.6,.9,13.7,0c7.5,-1.3,13.8,-1,19.9,0m-124.2,-.2c1.9,-.4,3.5,.4,5.9,-.1c5.5,-1.3,9.5,-1.6,15.3,-.8c4.4,.6,7.2,1.2,11.6,.8c3.7,-.5,5.8,-.8,9.3,0c5.1,1.1,10.3,1.3,13.8,.8c6,-.9,9.5,.2,15.4,-.5c3.8,-.4,7.5,-.7,10.8,-.8" class="gl_363"/>
<path d="M329.2,842.6c-3.9,.7,-13.9,1.1,-17.8,1.1m-13.7,-1c-.8,-.2,-1.6,-.3,-2.4,-.5c-7,-1.5,-8.7,-3.9,-25.3,-1.2c-3,.5,-5.3,1.2,-7.7,1.5m-18.7,-1.1c-2.1,.1,-4.3,.2,-6.6,.2c-9.8,0,-24.6,2.2,-31.4,-.6" class="gk_363"/>
<path d="M329,838.4c-9.2,1.3,-24.1,1.2,-33.7,-.3c-7,-1.2,-8.7,-3.2,-25.3,-1c-5.4,.8,-8.9,2,-14.2,1c-2.6,-.5,-5,-.7,-7.4,-.7" class="gj_363"/>
<path d="M267.7,820.2c5.3,1.1,10.1,1.7,14.8,.5c.8,-.2,1.5,-.4,2.2,-.6m-61.3,-1.4c3.3,0,6.5,.4,9.6,1c3.1,.6,5.8,.7,8.3,.5m2.1,9c4.9,-.8,10,-1.6,18.3,.2c1.6,.4,3.1,.7,4.6,.9m-42.7,-6.4c3.2,0,6.3,.4,9.4,.9c12.2,2.4,16.8,-3.3,32.4,0c1.5,.4,3.1,.7,4.5,1m.1,0c4.4,.7,8.5,1,12.5,0c8.2,-2.2,14,-.7,16.5,-.5c7.8,.9,21.5,.8,29.9,1.6M225.4,816.6c.9,0,1.8,.1,2.7,.2m18.4,.7c3.9,-.7,8,-1.6,13.7,-.8m18.9,3c1.2,-.2,2.3,-.4,3.4,-.8c8.2,-2.7,14,-.9,16.5,-.6c3.9,.6,7.8,.8,11.8,1m-9.2,1.7c6.9,.7,19.9,.7,27.3,1.6M135,829.4c2.1,.2,4.1,.3,6.6,.1c1.5,-.2,2.8,-.4,4,-.4m40.3,7.1c-5.3,-.1,-10.2,-.2,-12.6,-.3c-1.2,-.1,-2.3,-.2,-3.4,-.3m50.6,-.8c-5.9,.1,-11.4,0,-14.9,-1.1c-3.1,-.9,-15.5,-.2,-24.5,-.3m148,1.1c-4.7,.7,-15.4,1.1,-20,1m-6.7,2.1c-2.3,-.1,-4.7,-.4,-7.1,-.8c-3.1,-.6,-5.2,-1.3,-8,-1.7m-.7,-1.5c-3.5,-.5,-8.1,-.6,-17.4,.7m.8,.7c-5.4,.8,-8.9,2,-14.2,1c-6.3,-1.3,-11.7,-.5,-18.8,-.5c-4.8,0,-10.9,.4,-16.5,.6" class="gk_363"/>
</g>
<path d="M326.3,829.9c-8.2,.6,-22.3,.4,-31,-.4" class="gl_363"/>
<path d="M169.7,814.9V769.6H273.6v47.2" class="g9_363"/>
<path d="M108.5,720.1h15.3V707.9H108.5v12.2Z" class="gm_363"/>
</svg>