<?xml version="1.0" encoding="UTF-8" standalone="no"?>
<!DOCTYPE svg PUBLIC "-//W3C//DTD SVG 1.1//EN"
"http://www.w3.org/Graphics/SVG/1.1/DTD/svg11.dtd">
<svg viewBox="0 0 931 1096" version="1.1" xmlns="http://www.w3.org/2000/svg" xmlns:xlink="http://www.w3.org/1999/xlink">
<defs>
<style type="text/css"><![CDATA[
.g0_233{
fill: none;
stroke: #241F1F;
stroke-width: 0.611;
stroke-miterlimit: 3;
}
.g1_233{
fill: #241F1F;
}
.g2_233{
fill: #FFDEB8;
}
.g3_233{
fill: none;
stroke: #F9951B;
stroke-width: 1.069;
stroke-linejoin: round;
}
.g4_233{
fill: none;
stroke: #241F1F;
stroke-width: 0.381;
stroke-miterlimit: 3;
}
.g5_233{
fill: none;
stroke: #241F1F;
stroke-width: 0.763;
stroke-miterlimit: 3;
stroke-dasharray: 10,4;
}
.g6_233{
fill: none;
stroke: #241F1F;
stroke-width: 0.763;
stroke-miterlimit: 3;
}
.g7_233{
fill: none;
stroke: #241F1F;
stroke-width: 0.534;
stroke-miterlimit: 10;
}
.g8_233{
fill: none;
stroke: #00AEEF;
stroke-width: 1.145;
}
]]></style>
</defs>
<path d="M342.2,302.8H557.7" class="g0_233"/>
<path fill-rule="evenodd" d="M557.7,302.8L556,300.3l6.5,2.5l-6.5,2.4Z" class="g1_233"/>
<path d="M365.2,325.7V98.1" class="g0_233"/>
<path d="M397.6,227c19.5,8.3,35,23.9,43.4,43.3l109.4,-47C530,175.9,492.1,137.9,444.6,117.5Z" class="g2_233"/>
<path d="M397.6,227c19.5,8.3,35,23.9,43.4,43.3l109.4,-47C530,175.9,492.1,137.9,444.6,117.5L397.6,227Z" class="g3_233"/>
<path d="M376.2,285.1c7.1,2.7,12.2,9.6,12.2,17.7" class="g4_233"/>
<path d="M373.1,283.9h4.6l-1.5,1.2l.3,1.9Z" class="g1_233"/>
<path d="M397.6,292.7c1.5,3.8,2.1,6.9,1.9,10.1" class="g4_233"/>
<path d="M396.4,289.6l3.1,3.4l-1.9,-.3l-1.1,1.5Z" class="g1_233"/>
<path d="M441,270.3l-75.8,32.5M397.6,227l-32.4,75.8" class="g5_233"/>
<path d="M735.2,157.2l-7.3,11c4,2.7,8.7,6.3,12.4,9.3l8.3,-10.3c-4.3,-3.5,-8.8,-6.8,-13.4,-10Z" class="g2_233"/>
<path d="M736.7,167.7c0,-.9,.7,-1.6,1.5,-1.6c.9,0,1.6,.7,1.6,1.6c0,.8,-.7,1.5,-1.6,1.5c-.8,0,-1.5,-.7,-1.5,-1.5Z" class="g1_233"/>
<path d="M736.7,167.7c0,-.9,.7,-1.6,1.5,-1.6c.9,0,1.6,.7,1.6,1.6c0,.8,-.7,1.5,-1.6,1.5c-.8,0,-1.5,-.7,-1.5,-1.5Z" class="g6_233"/>
<path d="M716.1,117c48.1,20.3,86.7,58.8,107.2,106.8M711,129.2c44.9,19,81,54.9,100.1,99.8M705.8,141.4c41.8,17.7,75.4,51.1,93.2,92.8M700.7,153.6c38.7,16.3,69.6,47.2,86.1,85.7M695.6,165.8c35.5,15,63.9,43.3,79,78.7M690.4,178c32.4,13.6,58.3,39.5,72,71.7M685.3,190.2c29.2,12.3,52.6,35.6,65,64.7M680.2,202.4c26,11,46.8,31.7,57.9,57.7M675,214.6c22.9,9.6,41.2,27.9,50.9,50.7m-56,-38.5c19.7,8.3,35.5,24,43.9,43.7M669.9,226.8L715.9,117M677,230.2L733.4,125.3m-49.6,109l66.2,-99M690.1,239l75.4,-92.2M696,244.3l83.9,-84.6m-78.6,90.4L792.9,174m-86.8,82.5l98.4,-67m-94.3,73.7L814.6,206M713.7,270.3l109.4,-47" class="g3_233"/>
<path d="M614.9,302.8H860.7" class="g0_233"/>
<path fill-rule="evenodd" d="M860.7,302.8l-1.6,-2.5l6.5,2.5l-6.5,2.4Z" class="g1_233"/>
<path d="M637.9,321.1V98.1" class="g0_233"/>
<path d="M669.9,226.8l-32,76M677,230.2l-39.1,72.6m45.9,-68.5l-45.9,68.5M690.1,239l-52.2,63.8M696,244.3l-58.1,58.5m63.4,-52.7l-63.4,52.7m68.2,-46.3l-68.2,46.3m72.3,-39.6l-72.3,39.6m75.8,-32.5l-75.8,32.5" class="g5_233"/>
<path d="M793.1,245.3l2.1,-13.6" class="g4_233"/>
<path d="M795.7,228.4l1,4.6l-1.5,-1.3l-1.8,.8Z" class="g1_233"/>
<path d="M673.5,250l4.7,3.6" class="g0_233"/>
<path d="M653.6,231.1c.4,7,12.1,5.3,17.4,8c10.5,5.2,9,7.6,7.1,10.1" class="g4_233"/>
<path d="M676,251.8l1.4,-4.4l.7,1.8l1.9,.2Z" class="g1_233"/>
<path d="M734.4,111l10.5,25.9" class="g4_233"/>
<path d="M746.1,140L743,136.6l1.9,.3l1.1,-1.6Z" class="g1_233"/>
<path d="M688.8,153.9l43.4,8.4" class="g4_233"/>
<path d="M735.5,163l-4.6,.8l1.3,-1.5l-.7,-1.8Z" class="g1_233"/>
<path d="M792.8,157.4l-49,9.1" class="g4_233"/>
<path d="M740.6,167l4,-2.3l-.8,1.8l1.4,1.4Z" class="g1_233"/>
<path d="M777.9,265.5l4.4,-29.2" class="g4_233"/>
<path d="M782.8,233l1,4.6l-1.5,-1.3l-1.8,.8Z" class="g1_233"/>
<path d="M753.1,130.3l7,18.2" class="g4_233"/>
<path d="M761.3,151.6l-3.1,-3.5l1.9,.4l1.2,-1.6Z" class="g1_233"/>
<path d="M516.3,467.1h5.3m148.7,0h5.4M491.9,514.5h5.4m18.2,50.4h5.3m56,0h5.4m65.3,0h5.4M515.5,597h5.3" class="g7_233"/>
<path d="M362.7,716.4c0,0,-1.6,0,-1.6,1.6v14.1c0,0,0,1.5,1.6,1.5h14.1c0,0,1.5,0,1.5,-1.5V718c0,0,0,-1.6,-1.5,-1.6H362.7Z" class="g8_233"/>
</svg>