<?xml version="1.0" encoding="UTF-8" standalone="no"?>
<!DOCTYPE svg PUBLIC "-//W3C//DTD SVG 1.1//EN"
"http://www.w3.org/Graphics/SVG/1.1/DTD/svg11.dtd">
<svg viewBox="0 0 811 1017" version="1.1" xmlns="http://www.w3.org/2000/svg" xmlns:xlink="http://www.w3.org/1999/xlink">
<defs>
<style type="text/css"><![CDATA[
.g0_256{
fill: none;
stroke: #939598;
stroke-width: 1.527;
stroke-linecap: round;
stroke-linejoin: round;
stroke-dasharray: 0,5;
}
.g1_256{
fill: none;
stroke: #939598;
stroke-width: 1.527;
stroke-linecap: round;
stroke-linejoin: round;
}
]]></style>
</defs>
<path d="M115.3,337.7H301" class="g0_256"/>
<path d="M110.8,337.7v0m192.5,0v0" class="g1_256"/>
<path d="M115.3,366.7H301" class="g0_256"/>
<path d="M110.8,366.7v0m192.5,0v0" class="g1_256"/>
<path d="M115.3,657.8H301" class="g0_256"/>
<path d="M110.8,657.8v0m192.5,0v0" class="g1_256"/>
<path d="M115.3,686.8H301" class="g0_256"/>
<path d="M110.8,686.8v0m192.5,0v0" class="g1_256"/>
<path d="M115.3,826.6H301" class="g0_256"/>
<path d="M110.8,826.6v0m192.5,0v0" class="g1_256"/>
<path d="M115.3,855.6H301" class="g0_256"/>
<path d="M110.8,855.6v0m192.5,0v0" class="g1_256"/>
<path d="M327.7,109.2H513.3" class="g0_256"/>
<path d="M323.1,109.2v0m192.5,0v0" class="g1_256"/>
<path d="M327.7,138.3H513.3" class="g0_256"/>
<path d="M323.1,138.3v0m192.5,0v0" class="g1_256"/>
<path d="M327.7,563.8H513.3" class="g0_256"/>
<path d="M323.1,563.8v0m192.5,0v0" class="g1_256"/>
<path d="M327.7,592.8H513.3" class="g0_256"/>
<path d="M323.1,592.8v0m192.5,0v0" class="g1_256"/>
<path d="M540.1,109.2H725.7" class="g0_256"/>
<path d="M535.5,109.2v0m192.5,0v0" class="g1_256"/>
<path d="M540.1,138.3H725.7" class="g0_256"/>
<path d="M535.5,138.3v0m192.5,0v0" class="g1_256"/>
<path d="M540.1,278.1H725.7" class="g0_256"/>
<path d="M535.5,278.1v0m192.5,0v0" class="g1_256"/>
<path d="M540.1,307.1H725.7" class="g0_256"/>
<path d="M535.5,307.1v0m192.5,0v0" class="g1_256"/>
<path d="M540.1,446.9H725.7" class="g0_256"/>
<path d="M535.5,446.9v0m192.5,0v0" class="g1_256"/>
<path d="M540.1,475.9H725.7" class="g0_256"/>
<path d="M535.5,475.9v0m192.5,0v0" class="g1_256"/>
<path d="M540.1,531.7H725.7" class="g0_256"/>
<path d="M535.5,531.7v0m192.5,0v0" class="g1_256"/>
<path d="M540.1,560.7H725.7" class="g0_256"/>
<path d="M535.5,560.7v0m192.5,0v0" class="g1_256"/>
<path d="M540.1,801.3H725.7" class="g0_256"/>
<path d="M535.5,801.3v0m192.5,0v0" class="g1_256"/>
<path d="M540.1,830.3H725.7" class="g0_256"/>
<path d="M535.5,830.3v0m192.5,0v0" class="g1_256"/>
</svg>