<?xml version="1.0" encoding="UTF-8" standalone="no"?>
<!DOCTYPE svg PUBLIC "-//W3C//DTD SVG 1.1//EN"
"http://www.w3.org/Graphics/SVG/1.1/DTD/svg11.dtd">
<svg viewBox="0 0 811 1017" version="1.1" xmlns="http://www.w3.org/2000/svg" xmlns:xlink="http://www.w3.org/1999/xlink">
<defs>
<style type="text/css"><![CDATA[
.g0_211{
fill: #224867;
}
.g1_211{
fill: #000;
}
]]></style>
</defs>
<path d="M87.4,151.3H300.5V103.9H87.4v47.4Z" class="g0_211"/>
<path d="M300.5,151.3H710.7V103.9H300.5v47.4Z" class="g0_211"/>
<path d="M300.3,838.9h.4V103.5h-.4V838.9Z" class="g1_211"/>
<path d="M87.4,104.3H710.7v-.8H87.4v.8Z" class="g1_211"/>
<path d="M87.4,151.4H710.7v-.3H87.4v.3Z" class="g1_211"/>
<path d="M87.4,272.3H710.7v-.7H87.4v.7Z" class="g1_211"/>
<path d="M87.4,338.1H710.7v-.8H87.4v.8Z" class="g1_211"/>
<path d="M87.4,503.1H710.7v-.8H87.4v.8Z" class="g1_211"/>
<path d="M87.4,628.3H710.7v-.8H87.4v.8Z" class="g1_211"/>
<path d="M87.4,713.9H710.7v-.8H87.4v.8Z" class="g1_211"/>
<path d="M87.4,838.9H710.7v-.3H87.4v.3Z" class="g1_211"/>
<image preserveAspectRatio="none" x="203" y="990" width="405" height="28" xlink:href="img/1.jpg"/>
</svg>