<?xml version="1.0" encoding="UTF-8" standalone="no"?>
<!DOCTYPE svg PUBLIC "-//W3C//DTD SVG 1.1//EN"
"http://www.w3.org/Graphics/SVG/1.1/DTD/svg11.dtd">
<svg viewBox="0 0 931 1096" version="1.1" xmlns="http://www.w3.org/2000/svg" xmlns:xlink="http://www.w3.org/1999/xlink">
<defs>
<clipPath id="c0_87"><path d="M537,424.4V390.8h70v33.6Z"/></clipPath>
<clipPath id="c1_87"><path d="M733.3,424.4V390.8h94.6v33.6Z"/></clipPath>
<clipPath id="c2_87"><path d="M537,473.3V439.7h74.1v33.6Z"/></clipPath>
<clipPath id="c3_87"><path d="M733.3,521.4V488.6h75.3v32.8Z"/></clipPath>
<clipPath id="c4_87"><path d="M737.8,559.2V543.4h50.3v15.8Z"/></clipPath>
<clipPath id="c5_87"><path d="M537,765.5V735.3h53.2v30.2Z"/></clipPath>
<clipPath id="c6_87"><path d="M156.6,223.9v-31h95.3v31Z"/></clipPath>
<clipPath id="c7_87"><path d="M334.6,221.6V192.9h48v28.7Z"/></clipPath>
<clipPath id="c8_87"><path d="M156.6,264.4V235.5h68.5v28.9Z"/></clipPath>
<clipPath id="c9_87"><path d="M334.6,264.4V233.8h68.5v30.6Z"/></clipPath>
<clipPath id="ca_87"><path d="M156.6,305.6V276.9h47.2v28.7Z"/></clipPath>
<clipPath id="cb_87"><path d="M334.6,305.6V275.1h88.6v30.5Z"/></clipPath>
<clipPath id="cc_87"><path d="M156.6,349.9V319.4H298.5v30.5Z"/></clipPath>
<clipPath id="cd_87"><path d="M334.6,349.9V319.4H408v30.5Z"/></clipPath>
<clipPath id="ce_87"><path d="M156.6,392.7V362.1h42.8v30.6Z"/></clipPath>
<clipPath id="cf_87"><path d="M334.6,395.1V362.2H465.3v32.9Z"/></clipPath>
<clipPath id="cg_87"><path d="M156.6,438.5V407.9h42.7v30.6Z"/></clipPath>
<clipPath id="ch_87"><path d="M334.6,440.9V407.8H473.7v33.1Z"/></clipPath>
<clipPath id="ci_87"><path d="M133.7,854.9V823.7h64.7v31.2Z"/></clipPath>
<clipPath id="cj_87"><path d="M107,130.1V96.5H880v33.6Z"/></clipPath>
<style type="text/css"><![CDATA[
.g0_87{
fill: none;
stroke: #00AEEF;
stroke-width: 0.763;
stroke-miterlimit: 10;
}
.g1_87{
fill: none;
stroke: #241F1F;
stroke-width: 0.687;
stroke-miterlimit: 10;
}
.g2_87{
fill: none;
stroke: #241F1F;
stroke-width: 0.756;
stroke-miterlimit: 10;
}
]]></style>
</defs>
<path d="M511.8,333H878.5M511.8,778.4H878.5M511.8,876.2H878.5" class="g0_87"/>
<path d="M548.7,156.3h42.4m158,0h82.6M552.8,205.2h81.4m110.8,0h68.1M548.7,254.1H661.1m83.9,0h86.7M548.7,303h89.8M745,303H859" class="g1_87"/>
<path clip-path="url(#c0_87)" d="M548.7,405.3h58.7" class="g1_87"/>
<path d="M568.5,409h36.8" class="g1_87"/>
<path clip-path="url(#c1_87)" d="M745,405.3h83.2" class="g1_87"/>
<path d="M765.6,409h34.8" class="g1_87"/>
<path clip-path="url(#c2_87)" d="M548.7,454.2h62.8" class="g1_87"/>
<path d="M599.9,457.9h9.5m139.7,-3.7h50.3m-11.5,2.9h9.5m-248.7,46h52.5m-40.3,4.4h38.3" class="g1_87"/>
<path clip-path="url(#c3_87)" d="M745,503.1h63.9" class="g1_87"/>
<path d="M787.6,506h8.3M548.7,552h63.1m-50.9,2.1h9.5m29.8,.8h9.6" class="g1_87"/>
<path clip-path="url(#c4_87)" d="M779,543.7h9.5" class="g1_87"/>
<path d="M599.5,589.9h9.6" class="g1_87"/>
<path d="M562.9,587.4h48.2" class="g2_87"/>
<path d="M550.6,608.5h62.6m-64.5,46.6H634m111,0h92.6M548.7,702.5H659.8m85.2,0H847.9" class="g1_87"/>
<path clip-path="url(#c5_87)" d="M548.7,749.9h41.9" class="g1_87"/>
<path d="M745,749.9h89.3M671.8,1005.6h41.6" class="g1_87"/>
<path d="M108.5,451.2H475.2" class="g0_87"/>
<path clip-path="url(#c6_87)" d="M156.9,207.3h95.4" class="g1_87"/>
<path clip-path="url(#c7_87)" d="M334.9,207.3h48" class="g1_87"/>
<path clip-path="url(#c8_87)" d="M157.3,250.1h68.2" class="g1_87"/>
<path clip-path="url(#c9_87)" d="M335.3,250.1h68.1" class="g1_87"/>
<path clip-path="url(#ca_87)" d="M156.9,291.3h47.3" class="g1_87"/>
<path clip-path="url(#cb_87)" d="M335.3,291.3h88.2" class="g1_87"/>
<path clip-path="url(#cc_87)" d="M157.3,335.6H298.9" class="g1_87"/>
<path clip-path="url(#cd_87)" d="M335.3,335.6h73" class="g1_87"/>
<path clip-path="url(#ce_87)" d="M157.3,378.4h42.4" class="g1_87"/>
<path clip-path="url(#cf_87)" d="M335.3,378.4H465.7" class="g1_87"/>
<path clip-path="url(#cg_87)" d="M156.9,424.2h42.8" class="g1_87"/>
<path clip-path="url(#ch_87)" d="M335.3,424.2H474" class="g1_87"/>
<path d="M145.4,505.2h36.7m158.1,0h41.3M145.4,552.6h96.1m98.7,0h96M149.5,599.9h81.8m113,0h74.9M145.4,647.3h48.4m146.4,0h89.2M152.7,694.7h75.8m115.8,0H451.4M149.5,743.6h96.8m98,0h82.5M149.5,790.9h93.3m101.5,0H444.5" class="g1_87"/>
<path clip-path="url(#ci_87)" d="M145.4,838.3h53.4" class="g1_87"/>
<path d="M340.2,838.3H447.3M145.4,885.6h94.8m100,0H409M145.4,933h99.5m95.3,0h68.1M145.4,980.4H226m114.2,0h76.5m-271.3,47.3h75.7m119.1,0H454.9" class="g1_87"/>
<image clip-path="url(#cj_87)" preserveAspectRatio="none" x="107" y="97" width="773" height="33" xlink:href="img/1.png"/>
</svg>