<?xml version="1.0" encoding="UTF-8" standalone="no"?>
<!DOCTYPE svg PUBLIC "-//W3C//DTD SVG 1.1//EN"
"http://www.w3.org/Graphics/SVG/1.1/DTD/svg11.dtd">
<svg viewBox="0 0 811 1017" version="1.1" xmlns="http://www.w3.org/2000/svg" xmlns:xlink="http://www.w3.org/1999/xlink">
<defs>
<style type="text/css"><![CDATA[
.g0_107{
fill: #70A6CC;
}
.g1_107{
}
]]></style>
</defs>
<path d="M156.1,162.4H724.4V140.5H156.1Z" class="g0_107"/>
<path d="M156.1,667.1H724.4V645.2H156.1Z" class="g0_107"/>
<path d="M600.7,212.2v3.2l-.3,-.1l-6.3,-2.9l-.4,-.2l.4,-.2l6.3,-2.9l.3,-.1v.3l-.1,.2l-6.3,2.9l-.2,-.4h.2l6.3,3l-.2,.3l-.1,-.2v-2.9Z" class="g1_107"/>
<path d="M600.3,212.2h.4v-2.9h-.4Z" class="g1_107"/>
<path d="M619.9,251.2h.4V212h-.4Z" class="g1_107"/>
<path d="M600.7,212.4h19.4V212H600.7Z" class="g1_107"/>
<path d="M482.9,379.8V383l-.3,-.1L476.3,380l-.4,-.2l.4,-.2l6.3,-2.9l.3,-.1v.2l-.1,.2l-6.3,3l-.2,-.4h.2l6.3,2.9l-.2,.4l-.1,-.2v-2.9Z" class="g1_107"/>
<path d="M482.5,379.8h.4v-3h-.4Z" class="g1_107"/>
<path d="M482.9,380h18.7v-.4H482.9Z" class="g1_107"/>
<path d="M501.2,379.8h.4V355.7h-.4Z" class="g1_107"/>
<path d="M502.3,425.6v3.2l-.2,-.1l-6.3,-2.9l-.3,-.2l.3,-.2l6.3,-2.9l.2,-.1v.3l-.1,.2l-6.2,2.9l-.2,-.4h.2l6.2,3l-.1,.3l-.1,-.2v-2.9Z" class="g1_107"/>
<path d="M502,425.6h.3v-2.9H502Z" class="g1_107"/>
<path d="M502.3,425.8H521v-.4H502.3Z" class="g1_107"/>
<path d="M520.7,425.6h.3V401.5h-.3Z" class="g1_107"/>
<path d="M600.7,441.4v3.2l-.3,-.1l-6.3,-2.9l-.4,-.2l.4,-.2l6.3,-2.9l.3,-.1v.2l-.1,.2l-6.3,3l-.2,-.4h.2l6.3,2.9l-.2,.4l-.1,-.2v-2.9Z" class="g1_107"/>
<path d="M600.3,441.4h.4v-3h-.4Z" class="g1_107"/>
<path d="M619.9,496.4h.4V441.2h-.4Z" class="g1_107"/>
<path d="M600.7,441.6h19.4v-.4H600.7Z" class="g1_107"/>
</svg>