<?xml version="1.0" encoding="UTF-8" standalone="no"?>
<!DOCTYPE svg PUBLIC "-//W3C//DTD SVG 1.1//EN"
"http://www.w3.org/Graphics/SVG/1.1/DTD/svg11.dtd">
<svg viewBox="0 0 907 1045" version="1.1" xmlns="http://www.w3.org/2000/svg" xmlns:xlink="http://www.w3.org/1999/xlink">
<defs>
<clipPath id="c0_306"><path d="M88.1,145.1v-57h167v57Z"/></clipPath>
<clipPath id="c1_306"><path d="M666.9,679.7V616.6c.6,.3,1.2,.6,1.8,.9h.1c2.3,.9,4.8,2.2,7.5,2.7l.3,-1.5c-2.4,-.5,-4.8,-1.6,-7.3,-2.7v.1c-.8,-.4,-1.6,-.8,-2.4,-1.3V599.7H776v80Z"/></clipPath>
<clipPath id="c2_306"><path d="M676.3,620.2c-2.7,-.5,-5.2,-1.8,-7.5,-2.7h-.1c-.6,-.3,-1.2,-.6,-1.8,-.9v-1.8c.8,.5,1.6,.9,2.4,1.3V616c2.5,1.1,4.9,2.2,7.3,2.7l-.3,1.5Z"/></clipPath>
<clipPath id="c3_306"><path d="M-2.6,1047.7V-2.6H910.2V1047.7Z"/></clipPath>
<style type="text/css"><![CDATA[
.g0_306{
fill: #FFFFFF;
}
.g1_306{
fill: none;
stroke: #000000;
stroke-width: 1.527;
stroke-linecap: butt;
stroke-linejoin: miter;
stroke-miterlimit: 4;
}
.g2_306{
}
.g3_306{
fill: #B6B6B6;
}
.g4_306{
fill: #333333;
}
.g5_306{
fill: #7C7C7C;
}
.g6_306{
fill: #909090;
}
.g7_306{
fill: #727272;
}
.g8_306{
fill: #C8C8C8;
}
.g9_306{
fill: #ACACAC;
}
.ga_306{
fill: #A8A8A8;
}
.gb_306{
fill: #E5E5E5;
}
.gc_306{
fill: #D2D2D2;
}
.gd_306{
fill: #CFCFCF;
}
.ge_306{
fill: #ECECEC;
}
.gf_306{
fill: #DDDDDD;
}
.gg_306{
fill: #DBDBDB;
}
.gh_306{
fill: #D6D6D6;
}
.gi_306{
fill: #3C3C3C;
}
.gj_306{
fill: #636363;
}
.gk_306{
fill: none;
stroke: #FFFFFF;
stroke-width: 1.909;
stroke-linecap: butt;
stroke-linejoin: miter;
}
.gl_306{
fill: none;
stroke: #000000;
stroke-width: 0.381;
stroke-linecap: butt;
stroke-linejoin: miter;
}
]]></style>
</defs>
<path d="M133,121.4v59.8H367.4V121.4H133Z" class="g0_306"/>
<path d="M91.5,106.4V740.8H816V106.4H91.5Z" class="g1_306"/>
<path d="M90.8,92.7v59.8H294.9V92.7H90.8Z" class="g0_306"/>
<path d="M86.6,85.8v44.8H261.3V85.8H86.6Z" class="g0_306"/>
<path d="M88.1,88.1v68.7h173V88.1H88.1Z" class="g0_306"/>
<g clip-path="url(#c0_306)">
<path d="M140.9,141.7l-1.1,-.2l.4,.8l9.2,1.2L142.9,138l-.7,.5l-.5,.4l-.3,.7l-.3,.5l-.2,1.1v.5Z" class="g2_306"/>
<path d="M127.9,128v0l1.1,1.4l.9,1.3l.4,.8l.4,1l.2,.9l.1,.9l.1,.9l-.4,.8l-.4,.7l-.8,.9l-1.1,.5l-1.3,.5l12.7,2.9l-.3,-1.3l-.1,-1l.2,-1l.2,-.7l.4,-.5l.3,-.4l.4,-.3l2,1.7l-4.4,-4.6l-3.3,-3.7L133.8,128l-.7,-1.3l-.2,.3l-.2,.4l-.4,.4l-.7,.3l-.8,.2l-1.3,.1l-1.6,-.4Z" class="g3_306"/>
<path d="M139.8,141.5l1.1,.2v-.5l.2,-1.1l.3,-.5l.3,-.7l.5,-.4l.7,-.5l-2,-1.7l-.4,.3l-.3,.4l-.4,.5l-.2,.7l-.2,1l.1,1l.3,1.3Z" class="g4_306"/>
<path d="M100.3,116.5v0l2.3,1.4l2.4,1.4l4.7,3.1l4.6,3.4l4.2,3.4l3.8,3l2.9,2.5l2.5,2.3l-.3,.5l.8,-.8l.7,-.8l.3,-1l.1,-1l-.1,-.9l-.3,-1l-.2,-.8l-.5,-1l-1.1,-1.7l-.9,-1.3L125,126l1.2,.5l1.2,.2l1.4,.3H130l2.2,-.2l.9,-.1l-1.8,-.5l-1.7,-.8l-3.9,-1.8l-3.9,-2l-4,-2.5L114,116.7l-3.5,-2.3l-5.2,-3.8l-1.5,.5l-1,.8l-.8,.6l-.8,.7l-.5,.9l-.2,.8l-.1,.8l-.1,.8Z" class="g5_306"/>
<path d="M126.9,138.7v0l.2,-.1l-.2,.1Z" class="g5_306"/>
<path d="M127.4,137.5v0l-.5,1.2l.2,-.1l1.3,-.5l1.1,-.5l.8,-.9l.4,-.7l.4,-.8l-.1,-.9l-.1,-.9l-.2,-.9l-.4,-1l-.4,-.8l-.9,-1.3L127.9,128l1.6,.4l1.3,-.1l.8,-.2l.7,-.3l.4,-.4l.2,-.4l.2,-.3l-.9,.1L130,127h-1.2l-1.4,-.3l-1.2,-.2L125,126l1.2,1.2l.9,1.3l1.1,1.7l.5,1l.2,.8l.3,1l.1,.9l-.1,1l-.3,1l-.7,.8l-.8,.8Z" class="g6_306"/>
<path d="M90,107v0l-.4,.9l-.1,.6v.8l.1,.6l.2,1.1l.5,.8l.7,.8l.6,.5l.7,.4l1.4,.2l-.2,-1l.1,-.9l.2,-.9l.3,-.8l.2,-.7l.5,-.5l.9,-1l1,-.9l.9,-.4l.8,-.4l.7,-.1l-1,-1l-.7,-.4l-.8,-.4l-.9,-.4l-1,-.1l-1.2,.2l-1.2,.3l-.8,.5l-.6,.6l-.5,.7L90,107Z" class="g7_306"/>
<path d="M95.8,114.4v0l2.1,1v-.9l.1,-.8l.2,-.8l.5,-.9l.7,-.8l1,-.7l1.5,-.7l1.6,-.4l1.8,1.2l.6,-.1l-.4,-.5l-1.3,-1.4l-.9,-.7l-1.1,-.8l-1.3,-.6L99.4,106l-.3,.1l.6,.9l-.9,.2l-.6,.3l-.7,.4l-.5,.4l-.4,.6l-.4,.4l-.4,1.1l-.2,1.2l-.1,1.1v.9l.3,.8Z" class="g8_306"/>
<path d="M97.9,115.4v0l2.4,1.1l.1,-.8l.1,-.8l.2,-.8l.5,-.9l.8,-.7l.8,-.6l1,-.8l1.5,-.5l-1.8,-1.2l-1.6,.4l-1.5,.7l-1,.7l-.7,.8l-.5,.9l-.2,.8l-.1,.8v.9Z" class="g9_306"/>
<path d="M93.7,113.7v0l2.1,.7l-.3,-.8v-.9l.1,-1.1l.2,-1.2l.4,-1.1l.4,-.4l.4,-.6l.5,-.4l.7,-.4l.6,-.3l.9,-.2l-.6,-.9l-.7,.1l-.8,.4l-.9,.4l-1,.9l-.9,1l-.5,.5l-.2,.7l-.3,.8l-.2,.9l-.1,.9l.2,1Z" class="ga_306"/>
<path d="M125.7,138.4h.1h-.1Z" class="gb_306"/>
<path d="M125.8,138.4v0l.4,.5l.7,-.2l-1.1,-.3Z" class="gc_306"/>
<path d="M100.6,118.4v0l1.9,1.1l2,1.1l3.9,2.7l4.1,3l3.6,3l3.3,3l2.8,2.5l3.6,3.6l.8,-.4l.8,-.5l.3,-.5l-2.5,-2.3l-2.9,-2.5l-3.8,-3l-4.2,-3.4l-4.6,-3.4L105,119.3l-2.4,-1.4l-2.3,-1.4l.1,1l.2,.9Z" class="g6_306"/>
<path d="M125.8,138.4l1.1,.3l.5,-1.2l-.8,.5l-.8,.4Z" class="g6_306"/>
<path d="M90.1,105.6v0l-1,2.6l-.8,2.6l.2,.9l.5,.8l.6,.6l.6,.6l.8,.6l.9,.5l.9,.2l1.1,.4l-.2,-1.7l-1.4,-.2l-.7,-.4l-.6,-.5l-.7,-.8l-.5,-.8l-.2,-1.1l-.1,-.6v-.8l.1,-.6L90,107l.4,-.9l.5,-.7l.6,-.6l.8,-.5l-1.3,.6l-.9,.7Z" class="gd_306"/>
<path d="M101.7,120.7v0l-.5,-.6l-.3,-.8l-.3,-.9l-2.2,-1.1l-.3,-.6l-.1,-.5l-.1,-.8l-2.1,-1l.2,.9l-1.2,.1h-.9l.1,.7l.7,.7l.7,.8l.9,.8l1.1,.8l1.4,.7l1.3,.6l.8,.1l.8,.1Z" class="ge_306"/>
<path d="M98.4,117.3v0l2.2,1.1l-.2,-.9l-.1,-1l-2.4,-1.1l.1,.8l.1,.5l.3,.6Z" class="gf_306"/>
<path d="M95.8,114.4v0l-2.1,-.7l.2,1.7h.9l1.2,-.1l-.2,-.9Z" class="gg_306"/>
<path clip-path="url(#c0_306)" d="M88.3,110.8v0l.8,-2.6l1,-2.6l-.6,.6l-.4,.6l-.5,.6l-.3,.7l-.1,.7l-.1,.7l.1,.7l.1,.6Z" class="gh_306"/>
<path d="M124.1,138v0l-5.8,-4.5l-5.9,-4.6l-6,-4.4l-3.1,-2l-3.2,-2l-.1,.5l1.5,.9l1.7,1.1l3,2.1l6.1,4.4l5.9,4.5l2.7,2.2l2.9,2.4l-.1,-.2l.4,-.4Z" class="gi_306"/>
<path d="M131.8,123.5v0l-6.6,-3.1l-6.5,-3.2l-3.2,-1.7l-3.1,-1.6l-3.2,-2l-3,-2l-.3,.6l3,2l3.2,1.8l3.1,1.8l3.2,1.6l6.6,3.2l6.5,3.1l.3,-.5Z" class="gi_306"/>
<path d="M101.7,122.1v0l-.8,-1l-.6,-1.1l-.3,-1.1l-.2,-1.4l.1,-1.4l.4,-1.3l.6,-1.4l.4,-.5l.5,-.5l1.1,-.9l1.2,-.6l1.2,-.4l1.4,-.5l-.3,-.6l-1.4,.5l-1.2,.5l-1.3,.8l-1.1,.9l-.6,.6l-.4,.6l-.6,1.3l-.5,1.5v1.6l.2,1.3l.3,1.3l.7,1.2l.5,.5l.4,.5l.3,-.4Z" class="gi_306"/>
<path d="M97.6,118.9v0l-.4,-1l-.4,-1V116l-.3,-1v-1.1l.2,-.9l.2,-1l.4,-1l.5,-.9l.5,-.8l.7,-.6l.8,-.5l.9,-.6l1,-.2l.8,-.2h1.1v-.6l-1,.1l-1.2,.2l-.9,.4l-1,.3l-.7,.5l-.9,.9l-.7,.8l-.5,.9l-.3,1l-.3,1.1V115l.1,1l.2,1l.3,1l.6,1.1l.3,-.2Z" class="gi_306"/>
<path d="M95.4,116.5v0L95,114.9V112l.2,-1.4l.4,-1l.4,-.7l.5,-.8l.6,-.6l.8,-.5l.6,-.5l1.7,-.9l-.3,-.5l-1.7,.9l-.8,.5l-.7,.6l-.6,.6l-.5,.8l-.5,.9l-.4,.9l-.2,1.5l-.2,1.6l.1,1.7l.5,1.6l.5,-.2Z" class="gi_306"/>
<path d="M103.3,107.8v0l-1.9,-1.6l-1.8,-1.6l-.3,.3l1.8,1.7l1.8,1.6l.4,-.4Z" class="gi_306"/>
<path d="M98.9,118.7v0l-2.4,-1.4L94,116.1l-.2,.5l2.4,1.3l2.4,1.3l.3,-.5Z" class="gi_306"/>
<path d="M93.1,115.1v0l-1.2,-.7l-1.3,-.9l-.6,-.7l-.4,-.5l-.4,-.8l-.2,-.7l-.1,-1.2v-1.1l.3,-1.1l.5,-.9l.8,-1l1,-.7l.9,-.6l1.1,-.4l1.3,-.3h1l1.3,.3l1.1,.4l.2,-.6l-1.2,-.4L96,103l-1.4,.1l-1.3,.1l-1.2,.5l-1,.6l-1,.8l-.8,1l-.4,.7l-.3,.7l-.2,.7v.8l-.1,1.4l.4,1.4l.3,.7l.5,.6l1,1l1.1,.8l1.4,.7l.1,-.5Z" class="gi_306"/>
<path d="M129.6,127.6v0l-3.4,-1.8l-3.5,-1.7l-3.3,-1.9l-3.3,-1.9l-6.4,-4.2l-6.3,-4.2l-.3,.5l6.4,4.2l6.5,4.2l3.1,1.9l3.3,1.9l3.5,1.8l3.4,1.7l.3,-.5Z" class="gi_306"/>
<image x="126" y="126" width="7" height="13" xlink:href="shade/1.png"/>
<path d="M134.1,126.9v0l-1.1,.2l-1.3,.2l-2.4,.3v.7l2.6,-.4l1.3,-.2l1.2,-.3l-.3,-.5Z" class="gi_306"/>
<path d="M151.3,144.1v0l-6,-1.4l-6.2,-1l-6,-1.1l-6.2,-.8v.4l6,.9l6.2,1.1l6.1,1.2l6,1.3l.1,-.6Z" class="gi_306"/>
<path d="M151.5,143.5v0l-4.7,-4.4l-4.5,-4.7L138,129.7l-4.2,-4.9l-.4,.3l4.1,5l4.3,4.8l4.6,4.6l4.7,4.3l.4,-.3Z" class="gi_306"/>
<path d="M142.9,142.1v0l-.3,-.7l-.2,-.8v-1.7l.4,-.8l.4,-.7l.4,-.7l.7,-.5l-.3,-.5l-.7,.6l-.6,.8l-.5,.8l-.2,.9l-.3,.9l.1,1l.3,.9l.3,.8l.5,-.3Z" class="gi_306"/>
</g>
<path d="M132.1,796.5v59.8H366.6V796.5H132.1Z" class="g0_306"/>
<path d="M90.7,781.4V952.6H816V781.4H90.7Z" class="g1_306"/>
<path d="M101,767.8v59.7H304.8V767.8H101Z" class="g0_306"/>
<path d="M676.6,618.7c-2.4,-.5,-4.8,-1.6,-7.3,-2.7l-.3,.8l.3,-.7c-1.8,-.8,-3.5,-1.9,-5.1,-3.1h-.1c-4.3,-2.7,-8.9,-4.5,-13.3,-6.6c-5.6,-2.6,-10.6,-5.7,-16.8,-7.3c-2.1,-.5,-4.1,-1.3,-6.4,-1.6l-.1,.7l.7,.3c0,-.1,.3,-.4,.7,-.7c.5,-.4,1.3,-.8,2.1,-1.2c.8,-.4,1.6,-.8,2.2,-1.2l-.4,-.6l-.6,-.5c-.4,.5,-.9,.7,-1.6,1.1l.4,.7l-.4,-.7c-1.4,.8,-3,1.4,-4.5,2H626l-.2,.1c-.5,.2,-1.5,.6,-2.5,1c-.5,.2,-.9,.4,-1.3,.7c-.2,.1,-.4,.2,-.5,.4c-.2,.1,-.4,.3,-.5,.6l-.3,.9l1,.1c.4,.1,.8,.3,1.1,.7l.1,.1h.1c2.6,2,4.8,3.5,8,4.4l.4,-1.5c-2.9,-.8,-5,-2.1,-7.5,-4.1l-.5,.6l.7,-.4c-.6,-.7,-1.4,-1.2,-2.3,-1.3l-.1,.8l.8,.2l-.3,-.1l.2,.2l.1,-.1l-.3,-.1l.2,.2v-.1v.1v-.1v.1c.1,-.1,.4,-.3,.8,-.5c.6,-.3,1.4,-.7,2.1,-.9c.3,-.2,.6,-.3,.8,-.4c.3,-.1,.4,-.1,.5,-.2l-.2,-.7l.2,.8c1.6,-.6,3.2,-1.3,4.7,-2.1h.1c.7,-.4,1.4,-.8,2,-1.6l-1.1,-1.1c-.5,.4,-1.7,.9,-2.8,1.5c-.6,.3,-1.1,.6,-1.6,1c-.5,.4,-.9,.8,-1.1,1.3l-.4,1l1,.1c2.1,.3,4,1,6.2,1.6c5.9,1.5,10.9,4.5,16.5,7.2c4.6,2.1,9,3.9,13.2,6.5l.4,-.7l-.4,.6c1.7,1.3,3.5,2.4,5.4,3.3h.1c2.3,.9,4.8,2.2,7.5,2.7l.3,-1.5Z" class="gj_306"/>
<image clip-path="url(#c1_306)" preserveAspectRatio="none" x="667" y="599" width="109" height="81" xlink:href="img/1.jpg"/>
<image clip-path="url(#c2_306)" preserveAspectRatio="none" x="667" y="615" width="10" height="5" xlink:href="img/2.jpg"/>
<g clip-path="url(#c3_306)">
<path d="M-4.5,13.7H-27.4m939.5,0H935M-4.5,1031.2H-27.4m939.5,0H935M13.7,-4.5V-27.4m0,1077v22.9m880,-1077V-27.4m0,1077v22.9" class="gk_306"/>
<path d="M-4.5,13.7H-27.4m939.5,0H935M-4.5,1031.2H-27.4m939.5,0H935M13.7,-4.5V-27.4m0,1077v22.9m880,-1077V-27.4m0,1077v22.9" class="gl_306"/>
</g>
</svg>