<?xml version="1.0" encoding="UTF-8" standalone="no"?>
<!DOCTYPE svg PUBLIC "-//W3C//DTD SVG 1.1//EN"
"http://www.w3.org/Graphics/SVG/1.1/DTD/svg11.dtd">
<svg viewBox="0 0 931 1096" version="1.1" xmlns="http://www.w3.org/2000/svg" xmlns:xlink="http://www.w3.org/1999/xlink">
<defs>
<clipPath id="c0_101"><path d="M437.2,1012.2V976.5H586.3v35.7Z"/></clipPath>
<clipPath id="c1_101"><path d="M632.1,1012.2V976.5H782v35.7Z"/></clipPath>
<style type="text/css"><![CDATA[
.g0_101{
fill: none;
stroke: #00AEEF;
stroke-width: 1.145;
}
.g1_101{
fill: none;
stroke: #00AEEF;
stroke-width: 0.763;
}
.g2_101{
fill: none;
stroke: #241F1F;
stroke-width: 0.763;
stroke-miterlimit: 10;
}
]]></style>
</defs>
<path d="M361.1,225.5c0,0,-1.5,0,-1.5,1.5v14.1c0,0,0,1.5,1.5,1.5h14.2c0,0,1.5,0,1.5,-1.5V227c0,0,0,-1.5,-1.5,-1.5H361.1Z" class="g0_101"/>
<path d="M345.7,213c0,0,-3.1,0,-3.1,3.1V339.4c0,0,0,3,3.1,3H875.1c0,0,3,0,3,-3V216.1c0,0,0,-3.1,-3,-3.1H345.7Z" class="g1_101"/>
<path d="M362.7,490.8c0,0,-1.6,0,-1.6,1.6v14.1c0,0,0,1.5,1.6,1.5h14.1c0,0,1.5,0,1.5,-1.5V492.4c0,0,0,-1.6,-1.5,-1.6H362.7Zm0,325.4c0,0,-1.6,0,-1.6,1.6v14.1c0,0,0,1.5,1.6,1.5h14.1c0,0,1.5,0,1.5,-1.5V817.8c0,0,0,-1.6,-1.5,-1.6H362.7Zm0,171.2c0,0,-1.6,0,-1.6,1.5V1003c0,0,0,1.5,1.6,1.5h14.1c0,0,1.5,0,1.5,-1.5V988.9c0,0,0,-1.5,-1.5,-1.5H362.7Z" class="g0_101"/>
<path clip-path="url(#c0_101)" d="M525.8,976.9h58.6M470.1,996.3H586.7" class="g2_101"/>
<path clip-path="url(#c1_101)" d="M721.5,976.9h58.6M665.7,996.3H782.3" class="g2_101"/>
<path d="M500.9,480.2c0,0,-3.1,0,-3.1,3.1v35.2c0,0,0,3.1,3.1,3.1H717.4c0,0,3,0,3,-3.1V483.3c0,0,0,-3.1,-3,-3.1H500.9Zm0,325.1c0,0,-3.1,0,-3.1,3.1v35.3c0,0,0,3,3.1,3H717.4c0,0,3,0,3,-3V808.4c0,0,0,-3.1,-3,-3.1H500.9Z" class="g1_101"/>
</svg>