<?xml version="1.0" encoding="UTF-8" standalone="no"?>
<!DOCTYPE svg PUBLIC "-//W3C//DTD SVG 1.1//EN"
"http://www.w3.org/Graphics/SVG/1.1/DTD/svg11.dtd">
<svg viewBox="0 0 931 1096" version="1.1" xmlns="http://www.w3.org/2000/svg" xmlns:xlink="http://www.w3.org/1999/xlink">
<defs>
<clipPath id="c0_350"><path d="M424.6,461.9V425.2H756.4v36.7Z"/></clipPath>
<clipPath id="c1_350"><path d="M434,576.5V540H676.7v36.5Z"/></clipPath>
<clipPath id="c2_350"><path d="M97.8,333.7V303.2h89.4v30.5Z"/></clipPath>
<clipPath id="c3_350"><path d="M97.8,373.4V342.7H222.7v30.7Z"/></clipPath>
<style type="text/css"><![CDATA[
.g0_350{
fill: none;
stroke: #241F1F;
stroke-width: 0.763;
stroke-miterlimit: 10;
}
.g1_350{
fill: none;
stroke: #00AEEF;
stroke-width: 0.763;
}
.g2_350{
fill: none;
stroke: #00AEEF;
stroke-width: 1.145;
}
.g3_350{
fill: none;
stroke: #6AC48C;
stroke-width: 1.069;
stroke-miterlimit: 3;
}
.g4_350{
fill: none;
stroke: #EE008C;
stroke-width: 0.916;
stroke-miterlimit: 3;
}
.g5_350{
fill: none;
stroke: #00AEEF;
stroke-width: 0.916;
stroke-miterlimit: 3;
}
.g6_350{
fill: none;
stroke: #241F1F;
stroke-width: 0.611;
stroke-miterlimit: 3;
}
.g7_350{
fill: #241F1F;
}
.g8_350{
fill: none;
stroke: #241F1F;
stroke-width: 0.763;
stroke-miterlimit: 3;
}
.g9_350{
fill: none;
stroke: #241F1F;
stroke-width: 0.381;
stroke-miterlimit: 3;
}
.ga_350{
fill: none;
stroke: #241F1F;
stroke-width: 0.687;
stroke-miterlimit: 10;
}
]]></style>
</defs>
<path d="M440.9,391.5h36.3m32.4,0h39.3m38.6,0h40.3M470.1,443.4h18.2m21.9,0h18.2m21.9,0h18.2" class="g0_350"/>
<path clip-path="url(#c0_350)" d="M691.4,443.4h65.4" class="g0_350"/>
<path d="M500.9,558h56.9" class="g0_350"/>
<path clip-path="url(#c1_350)" d="M620.1,558h57" class="g0_350"/>
<path d="M509.8,754.6H528m21.9,0h18.2m21.9,0h18.2M537.4,808h65.4" class="g0_350"/>
<path d="M389.2,717.7c0,0,-3,0,-3,3V842.2c0,0,0,3,3,3H721.5c0,0,3.1,0,3.1,-3V720.7c0,0,0,-3,-3.1,-3H389.2Z" class="g1_350"/>
<path d="M304.6,745.9c0,0,-1.5,0,-1.5,1.5v14.2c0,0,0,1.5,1.5,1.5h15.7c0,0,1.5,0,1.5,-1.5V747.4c0,0,0,-1.5,-1.5,-1.5H304.6Z" class="g2_350"/>
<path d="M390.1,970.5h20.5m65,0h20.5m43,0h18.2m21.9,0h18.2m21.9,0h18.2M419.6,1027h25.1m21.9,0h25.1m21.8,0h25.1m94.6,0h18.3m21.8,0h18.3m21.8,0h18.3" class="g0_350"/>
<path d="M58.5,578.9c2.2,-1.5,3.3,-2,5.6,-2c12.8,0,27.8,31,45.5,31c20.9,0,38.8,-42.3,49.3,-64.3c10.6,-22.1,28.3,-64.2,49.8,-64.2c16.9,0,31.6,30.9,45.7,30.9c1.6,0,3.1,-.5,4.7,-1.7" class="g3_350"/>
<path d="M58.6,536.8c9.2,18.5,30.9,70.8,51.2,70.8c20.6,0,38,-41.2,49.1,-64c10.7,-22,29.7,-63.9,48.6,-63.9c20.6,0,40.2,46.7,51.5,69.6" class="g4_350"/>
<path d="M66.4,448.8C76.2,517.4,91.9,604,115,604c15.5,0,31.9,-34.9,43.9,-60.4c14.7,-33.1,31.3,-60.2,43.5,-60.2c20.3,0,34.8,59.4,44,122.4" class="g5_350"/>
<path d="M158.9,620.1V450.3" class="g6_350"/>
<path fill-rule="evenodd" d="M158.9,450.3l-2.4,1.7l2.4,-6.5l2.4,6.5Z" class="g7_350"/>
<path d="M53.5,543.6H264.3" class="g6_350"/>
<path fill-rule="evenodd" d="M264.3,543.6l-1.6,-2.5l6.5,2.5l-6.5,2.4Z" class="g7_350"/>
<path d="M189.5,540.5v6.1M193.7,471L123.6,617.3" class="g8_350"/>
<path d="M100.5,532.1C95.5,547,85.2,555,74.2,556.9" class="g9_350"/>
<path d="M70.9,557.4L75,555.1l-.8,1.8l1.3,1.4Z" class="g7_350"/>
<path d="M155.9,479.4H162" class="g6_350"/>
<path clip-path="url(#c2_350)" d="M171.7,319.4h15.8" class="ga_350"/>
<path d="M171.7,359.2h15.8" class="ga_350"/>
<path clip-path="url(#c3_350)" d="M207.2,359.2h15.9" class="ga_350"/>
<path d="M304.6,550.4c0,0,-1.5,0,-1.5,1.5V566c0,0,0,1.6,1.5,1.6h15.7c0,0,1.5,0,1.5,-1.6V551.9c0,0,0,-1.5,-1.5,-1.5H304.6Z" class="g2_350"/>
</svg>