<?xml version="1.0" encoding="UTF-8" standalone="no"?>
<!DOCTYPE svg PUBLIC "-//W3C//DTD SVG 1.1//EN"
"http://www.w3.org/Graphics/SVG/1.1/DTD/svg11.dtd">
<svg viewBox="0 0 931 1096" version="1.1" xmlns="http://www.w3.org/2000/svg" xmlns:xlink="http://www.w3.org/1999/xlink">
<defs>
<clipPath id="c0_402"><path d="M514.7,162.7v-32H596v32Z"/></clipPath>
<clipPath id="c1_402"><path d="M59.6,1011.2V852.8H823.5v158.4Z"/></clipPath>
<style type="text/css"><![CDATA[
.g0_402{
fill: none;
stroke: #241F1F;
stroke-width: 0.763;
stroke-miterlimit: 10;
}
.g1_402{
fill: #CFEDFC;
}
.g2_402{
fill: none;
stroke: #241F1F;
stroke-width: 0.763;
stroke-linejoin: round;
}
.g3_402{
fill: none;
stroke: #241F1F;
stroke-width: 0.611;
stroke-miterlimit: 3;
}
.g4_402{
fill: #241F1F;
}
.g5_402{
fill: none;
stroke: #241F1F;
stroke-width: 0.534;
stroke-miterlimit: 3;
}
.g6_402{
fill: none;
stroke: #00AEEF;
stroke-width: 1.069;
stroke-linejoin: round;
}
]]></style>
</defs>
<path clip-path="url(#c0_402)" d="M554.7,146.9h41.7" class="g0_402"/>
<path d="M440.8,720h29V623.1h-29V720Z" class="g1_402"/>
<path d="M440.8,720h29V623.1h-29V720Z" class="g2_402"/>
<path d="M469.8,720h29V636.8h-29V720Z" class="g1_402"/>
<path d="M469.8,720h29V636.8h-29V720Z" class="g2_402"/>
<path d="M498.8,720h29V641.2h-29V720Z" class="g1_402"/>
<path d="M498.8,720h29V641.2h-29V720Z" class="g2_402"/>
<path d="M527.8,720h29.1V637.2H527.8V720Z" class="g1_402"/>
<path d="M527.8,720h29.1V637.2H527.8V720Z" class="g2_402"/>
<path d="M556.8,720h29V624.6h-29V720Z" class="g1_402"/>
<path d="M556.8,720h29V624.6h-29V720Z" class="g2_402"/>
<path d="M585.9,720h29V611.4h-29V720Z" class="g1_402"/>
<path d="M585.9,720h29V611.4h-29V720Z" class="g2_402"/>
<path d="M614.9,720h29V607.4h-29V720Z" class="g1_402"/>
<path d="M614.9,720h29V607.4h-29V720Z" class="g2_402"/>
<path d="M643.9,720h29V625h-29v95Z" class="g1_402"/>
<path d="M643.9,720h29V625h-29v95Z" class="g2_402"/>
<path d="M401.2,747.4V585.8" class="g3_402"/>
<path fill-rule="evenodd" d="M401.2,585.8l-2.5,1.7l2.5,-6.6l2.4,6.6Z" class="g4_402"/>
<path d="M373.6,720H732.2" class="g3_402"/>
<path fill-rule="evenodd" d="M732.2,720l-1.6,-2.5l6.5,2.5l-6.5,2.4Z" class="g4_402"/>
<path d="M440.8,623.1V593.4" class="g2_402"/>
<path d="M618.1,718.8c1.3,0,2.2,-1.3,2.3,-2.7V668.7c0,-1.4,.1,-2.5,1.4,-2.5c-1.3,-.1,-1.4,-1.2,-1.4,-2.6V614c-.1,-1.4,-1,-2.5,-2.3,-2.6m-3.2,-8.1c-.1,-1.3,-1.4,-2.2,-2.8,-2.3h-9.4c-1.4,0,-2.5,-.1,-2.5,-1.4c-.1,1.3,-1.2,1.4,-2.6,1.4h-9.2c-1.4,.1,-2.5,1.1,-2.5,2.3" class="g5_402"/>
<path d="M440.8,593.4c26.1,37.6,60.2,48.1,91.4,47.9c38.3,-.2,73.7,-35,104.9,-34.8c30.5,.1,55.8,42.9,64.8,55.7" class="g6_402"/>
<path d="M641.2,676.2h4.2V659h-4.2v17.2Z" class="g1_402"/>
<path d="M672.9,720h29V662.2h-29V720Z" class="g1_402"/>
<path d="M672.9,720h29V662.2h-29V720Z" class="g2_402"/>
<path d="M96.9,966.9h57.7V900H96.9v66.9Z" class="g1_402"/>
<path d="M154.6,966.9h57.8V923.3H154.6v43.6Z" class="g1_402"/>
<path d="M292.4,966.4h28.9V904.9H292.4v61.5Z" class="g1_402"/>
<path d="M321.3,966.4h28.9V899.5H321.3v66.9Z" class="g1_402"/>
<path d="M350.2,966.4h28.9V880.5H350.2v85.9Z" class="g1_402"/>
<path d="M379.1,966.4h28.8V922.7H379.1v43.7Z" class="g1_402"/>
<path d="M591.1,966.8h14.4V923.1H591.1v43.7Z" class="g1_402"/>
<path d="M576.6,966.8h14.5V892.4H576.6v74.4Z" class="g1_402"/>
<path d="M562.2,966.8h14.4V880.9H562.2v85.9Z" class="g1_402"/>
<path d="M547.8,966.8h14.4V888H547.8v78.8Z" class="g1_402"/>
<path d="M533.3,966.8h14.5V899.9H533.3v66.9Z" class="g1_402"/>
<path d="M518.9,966.8h14.4V907H518.9v59.8Z" class="g1_402"/>
<path d="M504.5,966.8h14.4V905.3H504.5v61.5Z" class="g1_402"/>
<path d="M490,966.8h14.5V895.2H490v71.6Z" class="g1_402"/>
<path d="M686.6,967.2h9.6V889.4h-9.6v77.8Z" class="g1_402"/>
<path d="M696.2,967.2h9.6V900h-9.6v67.2Z" class="g1_402"/>
<path d="M705.8,967.2h9.7V905.7h-9.7v61.5Z" class="g1_402"/>
<path d="M715.5,967.2h9.6V907.7h-9.6v59.5Z" class="g1_402"/>
<path d="M725.1,967.2h9.6V906h-9.6v61.2Z" class="g1_402"/>
<path d="M734.7,967.2h9.6v-67h-9.6v67Z" class="g1_402"/>
<path d="M744.3,967.2H754V892.3h-9.7v74.9Z" class="g1_402"/>
<path d="M754,967.2h9.6V884.9H754v82.3Z" class="g1_402"/>
<path d="M763.6,967.2h9.6V881.3h-9.6v85.9Z" class="g1_402"/>
<path d="M773.2,967.2h9.6V886.5h-9.6v80.7Z" class="g1_402"/>
<path d="M782.8,901h9.7v66.2h-9.7Z" class="g1_402"/>
<path d="M792.5,967.2h9.6V923.5h-9.6v43.7Z" class="g1_402"/>
<path d="M96.9,871.4c11.5,28.4,26.6,36.1,40.4,36c17,-.2,32.6,-26.5,46.4,-26.4c13.5,.1,24.7,32.5,28.7,42.2m80,-52.6c11.6,28.4,26.7,36.3,40.4,36.2c17,-.1,32.7,-26.4,46.4,-26.3c13.5,.1,24.7,32.5,28.7,42.2M490,871c11.6,28.4,26.6,36.3,40.4,36.2c17,-.1,32.7,-26.4,46.4,-26.3c13.5,.1,24.7,32.5,28.7,42.2m81.1,-51.7c11.5,28.4,26.6,36.4,40.4,36.3c17,-.2,32.6,-26.5,46.4,-26.4c13.5,.1,24.7,32.5,28.7,42.2" class="g6_402"/>
<path d="M78.9,983.4V862.6" class="g3_402"/>
<path fill-rule="evenodd" d="M78.9,862.6l-2.5,1.6l2.5,-6.5l2.4,6.5Z" class="g4_402"/>
<path clip-path="url(#c1_402)" d="M59.6,966.9H228.9" class="g3_402"/>
<path fill-rule="evenodd" d="M228.9,966.9l-1.7,-2.4l6.6,2.4l-6.6,2.5Z" class="g4_402"/>
<path d="M96.9,966.9V871.4M274.4,982.8V862" class="g3_402"/>
<path fill-rule="evenodd" d="M274.4,862l-2.4,1.7l2.4,-6.5l2.5,6.5Z" class="g4_402"/>
<path d="M255.1,966.4H424.4" class="g3_402"/>
<path fill-rule="evenodd" d="M424.4,966.4l-1.6,-2.5l6.5,2.5l-6.5,2.4Z" class="g4_402"/>
<path d="M292.4,966.4V870.9M472,983.2V862.5" class="g3_402"/>
<path fill-rule="evenodd" d="M472,862.5l-2.4,1.6l2.4,-6.5l2.5,6.5Z" class="g4_402"/>
<path d="M452.7,966.8H622" class="g3_402"/>
<path fill-rule="evenodd" d="M622,966.8l-1.6,-2.5l6.5,2.5l-6.5,2.4Z" class="g4_402"/>
<path d="M490,966.8V871.3M668.6,983.6V862.9" class="g3_402"/>
<path fill-rule="evenodd" d="M668.6,862.9l-2.4,1.6l2.4,-6.5l2.5,6.5Z" class="g4_402"/>
<path d="M649.3,967.2H818.6" class="g3_402"/>
<path fill-rule="evenodd" d="M818.6,967.2L817,964.8l6.5,2.4l-6.5,2.5Z" class="g4_402"/>
<path d="M686.6,967.2V871.7" class="g3_402"/>
<path d="M96.9,900h57.7v66.9H96.9Zm57.7,23.3h57.8v43.6H154.6ZM292.4,904.9h28.9v61.5H292.4Zm28.9,-5.4h28.9v66.9H321.3Zm28.9,-19h28.9v85.9H350.2Zm28.9,42.2h28.8v43.7H379.1Zm212,.4h14.4v43.7H591.1ZM576.6,892.4h14.5v74.4H576.6ZM562.2,880.9h14.4v85.9H562.2ZM547.8,888h14.4v78.8H547.8Zm-14.5,11.9h14.5v66.9H533.3ZM518.9,907h14.4v59.8H518.9Zm-14.4,-1.7h14.4v61.5H504.5ZM490,895.2h14.5v71.6H490Zm196.6,-5.8h9.6v77.8h-9.6Zm9.6,10.6h9.6v67.2h-9.6Zm9.6,5.7h9.7v61.5h-9.7Zm9.7,2h9.6v59.5h-9.6Zm9.6,-1.7h9.6v61.2h-9.6Zm9.6,-5.8h9.6v67h-9.6Zm9.6,-7.9H754v74.9h-9.7Zm9.7,-7.4h9.6v82.3H754Zm9.6,-3.6h9.6v85.9h-9.6Zm9.6,5.2h9.6v80.7h-9.6Zm9.6,14.5h9.7v66.2h-9.7V901Zm9.7,22.5h9.6v43.7h-9.6Z" class="g2_402"/>
</svg>