<?xml version="1.0" encoding="UTF-8" standalone="no"?>
<!DOCTYPE svg PUBLIC "-//W3C//DTD SVG 1.1//EN"
"http://www.w3.org/Graphics/SVG/1.1/DTD/svg11.dtd">
<svg viewBox="0 0 662 1017" version="1.1" xmlns="http://www.w3.org/2000/svg" xmlns:xlink="http://www.w3.org/1999/xlink">
<defs>
<clipPath id="c0_146"><path d="M538.1 162.4V103.5H597v58.9Z"/></clipPath>
<style type="text/css"><![CDATA[
.g0_146{
fill: none;
stroke: #231F20;
stroke-width: 1.591;
}
.g1_146{
fill: none;
stroke: #231F20;
stroke-width: 1.06;
}
.g2_146{
fill: #231F20;
}
.g3_146{
fill: none;
stroke: #231F20;
stroke-width: 0.53;
}
.g4_146{
fill: #000;
}
.g5_146{
fill: #FFF;
stroke: #FFF;
stroke-width: 1.527;
stroke-miterlimit: 10;
}
]]></style>
</defs>
<path clip-path="url(#c0_146)" d="M596.2 132.9c0 15.8 -12.9 28.7 -28.7 28.7c-15.8 0 -28.6 -12.9 -28.6 -28.7c0 -15.8 12.8 -28.6 28.6 -28.6c15.8 0 28.7 12.8 28.7 28.6Z" class="g0_146"/>
<path d="M552 113.2c2.8 -1.9 6 -3.3 9.4 -4.2c2.9 -.7 6 -.9 8.9 -.6" class="g1_146"/>
<path d="M558.2 126.6c0 2 1.2 3.5 2.7 3.5c1.5 0 2.6 -1.5 2.6 -3.5c0 -1.9 -1.1 -3.4 -2.6 -3.4c-1.5 0 -2.7 1.5 -2.7 3.4Z" class="g2_146"/>
<path d="M556.3 120.3l-.7 -.3c.4 -.7 .7 -1.9 1.5 -2.5c.7 -.7 1.6 -1.1 2.5 -1.5c.9 -.3 1.9 -.5 2.9 -.5c.9 0 2 .7 2.7 1l-.4 .7c-.7 -.2 -1.5 -.2 -2.2 -.2c-.7 .1 -1.5 .3 -2.4 .6c-.9 .4 -1.7 .7 -2.3 1.1c-.6 .4 -1.1 .9 -1.6 1.6Z" class="g2_146"/>
<path d="M556.3 120.3l-.7 -.3c.4 -.7 .7 -1.9 1.5 -2.5c.7 -.7 1.6 -1.1 2.5 -1.5c.9 -.3 1.9 -.5 2.9 -.5c.9 0 2 .7 2.7 1l-.4 .7c-.7 -.2 -1.5 -.2 -2.2 -.2c-.7 .1 -1.5 .3 -2.4 .6c-.9 .4 -1.7 .7 -2.3 1.1c-.6 .4 -1.1 .9 -1.6 1.6Z" class="g3_146"/>
<path d="M576.8 126.6c0 2 -1.2 3.5 -2.7 3.5c-1.5 0 -2.6 -1.5 -2.6 -3.5c0 -1.9 1.1 -3.4 2.6 -3.4c1.5 0 2.7 1.5 2.7 3.4Z" class="g2_146"/>
<path d="M577.1 121.9c-.6 -.4 -1.4 -.7 -2.3 -1.1c-.9 -.3 -1.7 -.5 -2.4 -.6c-.7 -.1 -1.4 0 -2.2 .2l-.4 -.7c.8 -.3 1.8 -1 2.8 -1c.9 0 1.9 .2 2.8 .5c1 .3 1.8 .8 2.5 1.4c.8 .7 1.1 1.8 1.5 2.6l-.7 .2c-.5 -.6 -1 -1.1 -1.6 -1.5Z" class="g2_146"/>
<path d="M577.1 121.9c-.6 -.4 -1.4 -.7 -2.3 -1.1c-.9 -.3 -1.7 -.5 -2.4 -.6c-.7 -.1 -1.4 0 -2.2 .2l-.4 -.7c.8 -.3 1.8 -1 2.8 -1c.9 0 1.9 .2 2.8 .5c1 .3 1.8 .8 2.5 1.4c.8 .7 1.1 1.8 1.5 2.6l-.7 .2c-.5 -.6 -1 -1.1 -1.6 -1.5Z" class="g3_146"/>
<path d="M560.3 143.4h15.4" class="g0_146"/>
<path d="M56.8 99.7V98.2H606.4v1.5Z" class="g4_146"/>
<path d="M56.8 292v-1.5H606.4V292Z" class="g4_146"/>
<path d="M56.8 932.7v-1.5H276.6v1.5Z" class="g4_146"/>
<path d="M454.3 1016H660.7v-15.9H454.3Z" class="g5_146"/>
</svg>