<?xml version="1.0" encoding="UTF-8" standalone="no"?>
<!DOCTYPE svg PUBLIC "-//W3C//DTD SVG 1.1//EN"
"http://www.w3.org/Graphics/SVG/1.1/DTD/svg11.dtd">
<svg viewBox="0 0 811 1017" version="1.1" xmlns="http://www.w3.org/2000/svg" xmlns:xlink="http://www.w3.org/1999/xlink">
<defs>
<clipPath id="c0_236"><path d="M144.7,401.3V288.8H639.9V401.3Z"/></clipPath>
<style type="text/css"><![CDATA[
.g0_236{
fill: #FFFFFF;
}
.g1_236{
fill: #231F20;
}
.g2_236{
fill: none;
stroke: #231F20;
stroke-width: 0.763;
stroke-linecap: butt;
stroke-linejoin: miter;
stroke-miterlimit: 4;
}
]]></style>
</defs>
<path d="M144.7,401.3H639.9V288.8H144.7Z" class="g0_236"/>
<path d="M515.4,354.2h36.4v-6.9c0,-2.3,1.2,-4.3,2.9,-5.5v-.6c0,-.9,.1,-1.7,.2,-2.5H515.4c-4.3,0,-7.7,3.4,-7.7,7.7c0,4.3,3.4,7.8,7.7,7.8Zm14.5,-9.7c1,0,1.9,.8,1.9,1.9c0,1.1,-.9,2,-1.9,2c-1.1,0,-2,-.9,-2,-2c0,-1,.9,-1.9,2,-1.9Zm-6.1,0c1.1,0,2,.8,2,1.9c0,1.1,-.9,2,-2,2c-1.1,0,-1.9,-.9,-1.9,-2c0,-1,.8,-1.9,1.9,-1.9Zm-8,-1.9c2.1,0,3.8,1.7,3.8,3.8c0,2.1,-1.7,3.8,-3.8,3.8c-2.1,0,-3.8,-1.7,-3.8,-3.8c0,-2.1,1.7,-3.8,3.8,-3.8Z" class="g1_236"/>
<path d="M530.8,389.8c0,-.8,.2,-1.7,.4,-2.5H512.7c-1.4,0,-2.6,1.1,-2.6,2.5c0,1.4,1.2,2.6,2.6,2.6h18.5c-.2,-.9,-.4,-1.7,-.4,-2.6Z" class="g1_236"/>
<path d="M570.6,389.8c0,-1.4,-1.2,-2.5,-2.6,-2.5H549.3c.3,.8,.4,1.7,.4,2.5c0,.9,-.1,1.8,-.4,2.6H568c1.4,0,2.6,-1.2,2.6,-2.6Z" class="g1_236"/>
<path d="M558.5,364.3h20.1c1.4,0,2.6,-1.2,2.6,-2.6V347.3c0,-1.5,-1.2,-2.6,-2.6,-2.6h-.1v-3.5c0,-5.4,-4.4,-9.8,-9.9,-9.8c-5.4,0,-9.9,4.4,-9.9,9.8v3.5h-.2c-1.4,0,-2.6,1.1,-2.6,2.6v14.4c0,1.4,1.2,2.6,2.6,2.6Zm11.6,-9.2c-.2,.2,-.3,.3,-.3,.5c0,1.1,0,2.1,0,3.2c0,.4,-.2,.9,-.6,1.1c-.9,.4,-1.8,-.2,-1.8,-1.1c0,-1,0,-2.1,0,-3.2c0,-.2,-.1,-.3,-.2,-.4c-1,-.8,-1.3,-2,-.8,-3c.4,-1,1.6,-1.6,2.6,-1.4c1.2,.2,2,1.2,2.1,2.3c0,.8,-.3,1.5,-1,2Zm-7,-13.9c0,-3,2.5,-5.5,5.5,-5.5c3.1,0,5.6,2.5,5.6,5.5v3.5H563.1v-3.5Z" class="g1_236"/>
<path d="M515.4,374.8h22.3v9.7c-2,1,-3.3,3,-3.3,5.3c0,3.3,2.6,5.9,5.9,5.9c3.2,0,5.9,-2.6,5.9,-5.9c0,-2.3,-1.4,-4.3,-3.4,-5.3v-9.7h23.7c3.9,0,7.1,-2.8,7.7,-6.5H558.5c-3.7,0,-6.7,-3,-6.7,-6.6v-2.5H515.4c-4.3,0,-7.7,3.5,-7.7,7.8c0,4.3,3.4,7.8,7.7,7.8ZM529.9,365c1,0,1.9,.9,1.9,2c0,1.1,-.9,2,-1.9,2c-1.1,0,-2,-.9,-2,-2c0,-1.1,.9,-2,2,-2Zm-6.1,0c1.1,0,2,.9,2,2c0,1.1,-.9,2,-2,2c-1.1,0,-1.9,-.9,-1.9,-2c0,-1.1,.8,-2,1.9,-2Zm-8,-1.8c2.1,0,3.8,1.7,3.8,3.8c0,2.1,-1.7,3.8,-3.8,3.8c-2.1,0,-3.8,-1.7,-3.8,-3.8c0,-2.1,1.7,-3.8,3.8,-3.8Z" class="g1_236"/>
<path d="M231.9,382.4c0,-1.1,-.5,-2,-1.3,-2.7c-4.4,-3.6,-9.2,-6,-10.1,-6.5c-.1,0,-.2,-.1,-.2,-.3v-6.8c.9,-.6,1.4,-1.6,1.4,-2.7v-7.1c0,-3.6,-2.9,-6.5,-6.4,-6.5h-1.5c-3.6,0,-6.5,2.9,-6.5,6.5v7.1c0,1.1,.6,2.1,1.5,2.7v6.8c0,.2,-.1,.3,-.2,.3c-1,.5,-5.7,2.9,-10.1,6.5c-.8,.7,-1.3,1.7,-1.3,2.7v4.8h34.6v-4.8h.1Z" class="g1_236"/>
<path d="M191.2,348.2l-.4,-.1c-.6,0,-1.1,-.1,-1.6,-.2c-1.9,-.4,-3.7,-1.3,-5.7,-2.6c-.3,-.3,-.6,-.5,-1.1,-.5c-.5,0,-.9,.2,-1.2,.5c-2.6,1.8,-5,2.7,-7.5,2.9c-.6,0,-1.7,.3,-1.7,1.8v2.4c0,1.7,0,3.4,0,5c0,.7,.1,1.4,.2,2.2c.4,1.6,1.3,3.1,2.7,4.6c1.8,1.8,4,3.2,6.8,4.2c.2,.1,.4,.1,.6,.1c.3,0,.6,0,.8,-.1l.7,-.4c.6,-.2,1.2,-.5,1.8,-.8c2.2,-1.2,4,-2.6,5.2,-4.3c1.2,-1.5,1.8,-3.1,1.9,-4.7c0,-1.1,0,-2.3,0,-3.4v-4.9c0,-.9,-.5,-1.6,-1.5,-1.7Zm-1,9.9c-.1,1.1,-.5,2.2,-1.3,3.3c-1.1,1.5,-2.5,2.6,-4.4,3.6c-.6,.3,-1.1,.5,-1.7,.8c-.1,.1,-.3,.1,-.4,.2v-9.1h-7.9c0,-1.5,0,-3,0,-4.4v-1.9c2.6,-.3,5.1,-1.3,7.9,-3.1v9.4h7.8c0,.4,0,.8,0,1.2Z" class="g1_236"/>
<path clip-path="url(#c0_236)" d="M149.1,387.2h44.4v-4.8c0,-2.2,.9,-4.2,2.6,-5.6c1.4,-1.2,2.9,-2.2,4.3,-3.2H155.9V339.8h53v7.5c1.5,-.8,3.1,-1.2,4.9,-1.2h1.5c.1,0,.2,0,.2,0v-6.3c0,-3.6,-2.9,-6.6,-6.6,-6.6h-53c-3.7,0,-6.6,3,-6.6,6.6v33.4c0,.9,-.3,1.7,-.9,2.4l-3.4,4.1c-.2,.4,-.4,.8,-.4,1.2v1.9c0,2.4,2,4.4,4.5,4.4Zm26.1,-7h14.3v.5c0,1.3,-1,2.3,-2.3,2.3h-9.7c-1.2,0,-2.3,-1,-2.3,-2.3v-.5Z" class="g1_236"/>
<path d="M256.2,349H478.8" class="g2_236"/>
<path d="M477.3,351.2l8.3,-2.2l-8.3,-2.3v4.5Z" class="g1_236"/>
<path d="M263,377.3H485.6" class="g2_236"/>
<path d="M264.5,379.5l-8.3,-2.2l8.3,-2.2v4.4Z" class="g1_236"/>
<path d="M143.5,870.5H634.3V577.8H143.5Z" class="g0_236"/>
<path d="M539.7,826h38.9v-7.4c0,-2.4,1.2,-4.6,3,-5.9v-.6c0,-.9,.1,-1.8,.3,-2.7H539.7c-4.6,0,-8.3,3.7,-8.3,8.3c0,4.6,3.7,8.3,8.3,8.3Zm15.4,-10.4c1.2,0,2.1,.9,2.1,2.1c0,1.2,-.9,2.1,-2.1,2.1c-1.2,0,-2.1,-.9,-2.1,-2.1c0,-1.2,.9,-2.1,2.1,-2.1Zm-6.4,0c1.1,0,2.1,.9,2.1,2.1c0,1.2,-1,2.1,-2.1,2.1c-1.2,0,-2.1,-.9,-2.1,-2.1c0,-1.2,.9,-2.1,2.1,-2.1Zm-8.6,-2c2.3,0,4.1,1.8,4.1,4.1c0,2.2,-1.8,4.1,-4.1,4.1c-2.2,0,-4,-1.9,-4,-4.1c0,-2.3,1.8,-4.1,4,-4.1Z" class="g1_236"/>
<path d="M556.1,864.1c0,-1,.2,-1.9,.4,-2.7H536.7c-1.5,0,-2.7,1.2,-2.7,2.7c0,1.5,1.2,2.7,2.7,2.7h19.8c-.2,-.9,-.4,-1.8,-.4,-2.7Z" class="g1_236"/>
<path d="M598.6,864.1c0,-1.5,-1.2,-2.7,-2.7,-2.7h-20c.3,.8,.4,1.7,.4,2.7c0,.9,-.1,1.8,-.4,2.7h20c1.5,0,2.7,-1.2,2.7,-2.7Z" class="g1_236"/>
<path d="M585.7,836.7h21.5c1.5,0,2.7,-1.2,2.7,-2.7V818.6c0,-1.6,-1.2,-2.8,-2.7,-2.8h-.1v-3.7c0,-5.8,-4.8,-10.5,-10.6,-10.5c-5.8,0,-10.5,4.7,-10.5,10.5v3.7h-.3c-1.5,0,-2.8,1.2,-2.8,2.8V834c0,1.5,1.3,2.7,2.8,2.7ZM598.1,827c-.2,.1,-.3,.3,-.3,.5c0,1.1,0,2.3,0,3.4c0,.5,-.2,.9,-.6,1.1c-1,.5,-2,-.1,-2,-1.1c0,-1.1,0,-2.2,0,-3.4c0,-.2,0,-.4,-.3,-.5c-1,-.8,-1.3,-2,-.8,-3.2c.5,-1.1,1.7,-1.7,2.8,-1.5c1.3,.3,2.2,1.3,2.2,2.6c.1,.8,-.3,1.5,-1,2.1Zm-7.5,-14.9c0,-3.2,2.6,-5.9,5.9,-5.9c3.3,0,6,2.6,6,5.9v3.7H590.6v-3.7Z" class="g1_236"/>
<path d="M539.7,848h23.8v10.4c-2.1,1,-3.6,3.2,-3.6,5.7c0,3.4,2.8,6.2,6.3,6.2c3.5,0,6.3,-2.8,6.3,-6.2c0,-2.5,-1.5,-4.7,-3.5,-5.7V848h25.3c4.1,0,7.5,-3,8.2,-6.9H585.7c-3.9,0,-7.1,-3.2,-7.1,-7.1v-2.7H539.7c-4.6,0,-8.3,3.8,-8.3,8.4c0,4.6,3.7,8.3,8.3,8.3Zm15.4,-10.4c1.2,0,2.1,.9,2.1,2.1c0,1.1,-.9,2.1,-2.1,2.1c-1.2,0,-2.1,-1,-2.1,-2.1c0,-1.2,.9,-2.1,2.1,-2.1Zm-6.4,0c1.1,0,2.1,.9,2.1,2.1c0,1.1,-1,2.1,-2.1,2.1c-1.2,0,-2.1,-1,-2.1,-2.1c0,-1.2,.9,-2.1,2.1,-2.1Zm-8.6,-2c2.3,0,4.1,1.8,4.1,4.1c0,2.2,-1.8,4,-4.1,4c-2.2,0,-4,-1.8,-4,-4c0,-2.3,1.8,-4.1,4,-4.1Z" class="g1_236"/>
<path d="M236.7,856.1c0,-1.1,-.5,-2.2,-1.4,-2.8c-4.7,-3.9,-9.7,-6.5,-10.8,-7c-.1,0,-.2,-.2,-.2,-.3v-7.3c.9,-.6,1.6,-1.7,1.6,-2.9v-7.6c0,-3.8,-3.1,-6.9,-6.9,-6.9h-1.6c-3.8,0,-6.9,3.1,-6.9,6.9v7.6c0,1.2,.6,2.2,1.5,2.9V846c0,.1,-.1,.3,-.2,.3c-1,.5,-6.1,3.1,-10.8,7c-.9,.7,-1.3,1.7,-1.3,2.8v5.2h36.9v-5.2h.1Z" class="g1_236"/>
<path d="M193.2,819.6l-.4,-.1c-.6,-.1,-1.2,-.1,-1.7,-.3c-2,-.4,-3.9,-1.3,-6,-2.8c-.4,-.2,-.7,-.5,-1.3,-.5c-.5,0,-.9,.3,-1.2,.5c-2.9,2,-5.4,3,-8,3.1c-.7,.1,-1.9,.4,-1.9,2v2.6c0,1.8,0,3.6,0,5.3c0,.7,.1,1.5,.3,2.3c.4,1.8,1.3,3.4,2.8,5c1.9,1.9,4.3,3.4,7.3,4.5c.2,.1,.4,.1,.7,.1c.3,0,.6,-.1,.8,-.2l.7,-.3c.7,-.3,1.3,-.6,1.9,-.9c2.4,-1.3,4.3,-2.8,5.7,-4.6c1.2,-1.6,1.8,-3.3,1.9,-5.1c.1,-1.2,.1,-2.4,.1,-3.5v-5.3c0,-1,-.6,-1.7,-1.7,-1.8Zm-1,10.5c-.1,1.2,-.5,2.4,-1.4,3.6c-1.2,1.5,-2.7,2.8,-4.7,3.9c-.6,.2,-1.2,.5,-1.8,.8c-.2,0,-.3,.1,-.5,.2v-9.7h-8.4c0,-1.6,0,-3.2,0,-4.8v-1.9c2.8,-.3,5.5,-1.4,8.4,-3.4v10.1h8.4c0,.4,0,.8,0,1.2Z" class="g1_236"/>
<path d="M148.3,861.3h47.4v-5.2c0,-2.3,1,-4.5,2.8,-6c1.5,-1.2,3.1,-2.3,4.6,-3.3H155.5V810.6h56.7v8c1.5,-.8,3.3,-1.3,5.2,-1.3H219c.1,0,.2,.1,.2,.1v-6.8c0,-3.9,-3.1,-7,-7,-7H155.5c-3.9,0,-7.1,3.1,-7.1,7v35.7c0,.9,-.3,1.8,-.8,2.5l-3.7,4.5c-.3,.3,-.4,.8,-.4,1.2v2c0,2.7,2.1,4.8,4.8,4.8Zm27.9,-7.5h15.3v.5c0,1.4,-1.1,2.5,-2.5,2.5H178.6c-1.3,0,-2.4,-1.1,-2.4,-2.5v-.5Z" class="g1_236"/>
<path d="M249.5,832.4l253.8,-.6" class="g2_236"/>
<path d="M501.8,834l8.2,-2.2l-8.2,-2.2V834Z" class="g1_236"/>
<path d="M509.4,848.1l-253.8,.6" class="g2_236"/>
<path d="M257.1,846.4l-8.2,2.3l8.2,2.2v-4.5Z" class="g1_236"/>
<path d="M532.8,602.2h38.9v-7.4c0,-2.4,1.2,-4.6,3,-5.9v-.6c0,-.9,.1,-1.8,.3,-2.7H532.8c-4.6,0,-8.3,3.7,-8.3,8.3c0,4.6,3.7,8.3,8.3,8.3Zm15.4,-10.4c1.2,0,2.1,.9,2.1,2.1c0,1.2,-.9,2.1,-2.1,2.1c-1.2,0,-2.1,-.9,-2.1,-2.1c0,-1.2,.9,-2.1,2.1,-2.1Zm-6.4,0c1.1,0,2,.9,2,2.1c0,1.2,-.9,2.1,-2,2.1c-1.2,0,-2.1,-.9,-2.1,-2.1c0,-1.2,.9,-2.1,2.1,-2.1Zm-8.6,-2c2.3,0,4.1,1.9,4.1,4.1c0,2.2,-1.8,4.1,-4.1,4.1c-2.2,0,-4,-1.9,-4,-4.1c0,-2.2,1.8,-4.1,4,-4.1Z" class="g1_236"/>
<path d="M549.2,640.3c0,-1,.2,-1.9,.4,-2.7H529.8c-1.5,0,-2.7,1.2,-2.7,2.7c0,1.5,1.2,2.7,2.7,2.7h19.8c-.2,-.9,-.4,-1.8,-.4,-2.7Z" class="g1_236"/>
<path d="M591.7,640.3c0,-1.5,-1.2,-2.7,-2.7,-2.7H569c.2,.8,.4,1.7,.4,2.7c0,.9,-.2,1.8,-.4,2.7h20c1.5,0,2.7,-1.2,2.7,-2.7Z" class="g1_236"/>
<path d="M578.8,612.9h21.4c1.6,0,2.8,-1.2,2.8,-2.7V594.8c0,-1.6,-1.2,-2.8,-2.8,-2.8v-3.7c0,-5.8,-4.8,-10.5,-10.6,-10.5c-5.8,0,-10.6,4.7,-10.6,10.5V592h-.2c-1.5,0,-2.8,1.2,-2.8,2.8v15.4c0,1.5,1.3,2.7,2.8,2.7Zm12.4,-9.7c-.2,.1,-.3,.3,-.3,.5c0,1.2,0,2.3,0,3.4c0,.5,-.2,.9,-.6,1.2c-1,.5,-2,-.2,-2,-1.2c0,-1.1,0,-2.2,0,-3.4c0,-.2,0,-.3,-.3,-.5c-1,-.7,-1.3,-2,-.8,-3.2c.5,-1.1,1.7,-1.7,2.8,-1.5c1.3,.3,2.2,1.3,2.2,2.6c0,.8,-.3,1.5,-1,2.1Zm-7.5,-14.9c0,-3.2,2.6,-5.9,5.9,-5.9c3.3,0,6,2.6,6,5.9V592H583.7v-3.7Z" class="g1_236"/>
<path d="M532.8,624.2h23.8v10.4c-2.1,1,-3.6,3.2,-3.6,5.7c0,3.4,2.8,6.2,6.3,6.2c3.5,0,6.3,-2.8,6.3,-6.2c0,-2.5,-1.5,-4.7,-3.6,-5.7V624.2h25.4c4.1,0,7.5,-3,8.2,-6.9H578.8c-3.9,0,-7.1,-3.2,-7.1,-7.1v-2.7H532.8c-4.6,0,-8.3,3.8,-8.3,8.4c0,4.6,3.7,8.3,8.3,8.3Zm15.4,-10.4c1.2,0,2.1,.9,2.1,2.1c0,1.1,-.9,2.1,-2.1,2.1c-1.2,0,-2.1,-1,-2.1,-2.1c0,-1.2,.9,-2.1,2.1,-2.1Zm-6.4,0c1.1,0,2,.9,2,2.1c0,1.1,-.9,2.1,-2,2.1c-1.2,0,-2.1,-1,-2.1,-2.1c0,-1.2,.9,-2.1,2.1,-2.1Zm-8.6,-2c2.3,0,4.1,1.8,4.1,4.1c0,2.2,-1.8,4,-4.1,4c-2.2,0,-4,-1.8,-4,-4c0,-2.3,1.8,-4.1,4,-4.1Z" class="g1_236"/>
<path d="M187.8,779.3l283,-157.8" class="g2_236"/>
<path d="M470.6,624.2l6.1,-6l-8.3,2.1l2.2,3.9Z" class="g1_236"/>
<path d="M487.8,632.4L217.2,784.1" class="g2_236"/>
<path d="M217.4,781.4l-6.1,6l8.3,-2.1l-2.2,-3.9Z" class="g1_236"/>
</svg>