<?xml version="1.0" encoding="UTF-8" standalone="no"?>
<!DOCTYPE svg PUBLIC "-//W3C//DTD SVG 1.1//EN"
"http://www.w3.org/Graphics/SVG/1.1/DTD/svg11.dtd">
<svg viewBox="0 0 811 1017" version="1.1" xmlns="http://www.w3.org/2000/svg" xmlns:xlink="http://www.w3.org/1999/xlink">
<defs>
<style type="text/css"><![CDATA[
.g0_284{
fill: #FFFFFF;
}
.g1_284{
fill: #484647;
}
.g2_284{
fill: #211E1E;
}
]]></style>
</defs>
<path d="M142.4,706H700.9V381.2H142.4Z" class="g0_284"/>
<path d="M294.5,547.7h-103l-.3,-.1l-.1,-.3V515.4l.1,-.2l.3,-.2h103l.3,.2l.1,.2v31.9l-.1,.3l-.3,.1M191.9,515.8v31.1H294.1V515.8H191.9Z" class="g1_284"/>
<path d="M453.1,548.3h-103l-.3,-.1l-.1,-.2V516.1l.1,-.3l.3,-.1h103l.3,.1l.1,.3V548l-.1,.2l-.3,.1M350.5,516.5v31.1H452.8V516.5H350.5Z" class="g1_284"/>
<path d="M614.3,509.2h-103l-.3,-.1l-.1,-.3V477l.1,-.3l.3,-.1h103l.3,.1l.1,.3v31.8l-.1,.3l-.3,.1M511.7,477.4v31.1H613.9V477.4H511.7Z" class="g1_284"/>
<path d="M613.6,599.8h-103l-.3,-.1l-.1,-.2V567.6l.1,-.3l.3,-.1h103l.3,.1l.1,.3v31.9l-.1,.2l-.3,.1M511,568v31.1H613.2V568H511Z" class="g1_284"/>
<path d="M294.7,532.6h3v-.8h-3Z" class="g2_284"/>
<path d="M301,532.6h6.5v-.8H301Zm9.7,0h6.5v-.8h-6.5Zm9.8,0H327v-.8h-6.5Zm9.7,0h6.5v-.8h-6.5Z" class="g2_284"/>
<path d="M340,532.6h3v-.8h-3Z" class="g2_284"/>
<path d="M341.5,534.4l8.3,-2.2L341.5,530v4.4Z" class="g2_284"/>
<path d="M453.4,545.1l2.8,1.1l.3,-.7l-2.9,-1.1Z" class="g2_284"/>
<path d="M459,547.3l5.5,2.2l.3,-.7l-5.5,-2.2Zm8.3,3.3l5.6,2.2l.3,-.7l-5.6,-2.2Zm8.4,3.3l5.5,2.2l.3,-.7l-5.6,-2.2Zm8.3,3.3l5.6,2.2l.3,-.8l-5.6,-2.2Zm8.4,3.2l5.5,2.2l.3,-.7l-5.6,-2.2Z" class="g2_284"/>
<path d="M500.7,563.7l2.8,1.2l.3,-.8L501,563Z" class="g2_284"/>
<path d="M501.5,566l8.5,1l-6.9,-5.1l-1.6,4.1Z" class="g2_284"/>
<path d="M451.2,652.7h-103l-.3,-.1l-.1,-.3V620.4l.1,-.3l.3,-.1h103l.3,.1l.1,.3v31.9l-.1,.3l-.3,.1M348.6,620.8v31.1H450.8V620.8H348.6Z" class="g1_284"/>
<path d="M401,547.9l-.1,3.1h.8v-3Z" class="g2_284"/>
<path d="M400.9,554.1v6.1h.8v-6.1Zm0,9.1v6.1h.8v-6.1Zm0,9.2v6.1h.8v-6.1Zm0,9.2v6.1h.8v-6.1Zm0,9.1v6.1h.8v-6.1Zm0,9.2V606h.8v-6.1Z" class="g2_284"/>
<path d="M400.9,609.1v3h.8v-3Z" class="g2_284"/>
<path d="M399.1,610.6l2.2,8.3l2.2,-8.3h-4.4Z" class="g2_284"/>
<path d="M220.5,606c-.9,-2.6,-1.3,-5,-1.3,-7.3c0,-7.9,5,-13.9,10.5,-20.3c5.4,-6.4,11.3,-13.3,12.6,-23h-.5c-1.3,9.5,-7,16.3,-12.5,22.7c-5.4,6.4,-10.6,12.5,-10.6,20.6c0,2.3,.4,4.8,1.4,7.5l.4,-.2Z" class="g2_284"/>
<path d="M244.8,556.4l-2.5,-5.1l-3.2,4.7l5.7,.4Z" class="g2_284"/>
<path d="M349.7,429c2.7,19,14.6,27.9,26.2,37.3c11.6,9.4,22.7,19.3,24,40.5h.5c-1.3,-21.4,-12.6,-31.5,-24.2,-40.9c-11.6,-9.4,-23.4,-18.1,-26,-36.9h-.5Z" class="g2_284"/>
<path d="M397.2,506.1l3.1,4.8l2.6,-5l-5.7,.2Z" class="g2_284"/>
<path d="M576.6,415.5c0,16.4,-3.1,23.6,-6.2,29.5c-3.1,5.9,-6.3,10.7,-6.3,22.2c0,.5,0,1,0,1.6h.5c0,-.6,0,-1.1,0,-1.6c0,-11.4,3.1,-16,6.2,-22c3.2,-6,6.3,-13.2,6.3,-29.7h-.5Z" class="g2_284"/>
<path d="M561.5,468.1l3.1,4.8l2.6,-5.1l-5.7,.3Z" class="g2_284"/>
<path d="M640.4,414.7c-4.1,14.1,-4.4,29.1,-4.4,44.9c0,2.7,0,5.4,0,8.1c0,27.1,-.9,56.7,-19.4,89.5l.4,.2c18.6,-32.9,19.4,-62.6,19.4,-89.7c0,-2.7,0,-5.4,0,-8.1c0,-15.8,.3,-30.7,4.5,-44.7l-.5,-.2Z" class="g2_284"/>
<path d="M614.6,555.2l.1,5.7l4.9,-3l-5,-2.7Z" class="g2_284"/>
<path d="M453.2,519.9l3,-.5l-.1,-.8l-3,.5Z" class="g2_284"/>
<path d="M459,518.9l5.6,-1l-.1,-.8l-5.6,1Zm8.4,-1.5l5.6,-1l-.1,-.7l-5.6,1Zm8.4,-1.5l5.6,-.9l-.1,-.8l-5.6,1Zm8.4,-1.4l5.6,-1l-.1,-.8l-5.6,1Zm8.5,-1.5l5.6,-1l-.2,-.7l-5.6,.9Z" class="g2_284"/>
<path d="M501.1,511.5l3,-.5l-.2,-.8l-3,.6Z" class="g2_284"/>
<path d="M502.9,513.1l7.8,-3.6l-8.6,-.8l.8,4.4Z" class="g2_284"/>
<path d="M481.9,672.8c-5.1,-.4,-8.3,-1.6,-10.3,-3.2c-1.9,-1.6,-2.6,-3.7,-2.6,-6c0,-2.8,1.1,-6.1,2.1,-9.3c1.1,-3.3,2.2,-6.5,2.2,-9.3c0,-2.2,-.7,-4.2,-2.8,-5.7c-2,-1.4,-5.3,-2.3,-10.4,-2.4v.5c5.1,.1,8.3,1,10.2,2.3c1.9,1.3,2.5,3.2,2.5,5.3c0,2.7,-1,5.9,-2.1,9.1c-1.1,3.2,-2.1,6.5,-2.1,9.5c0,2.4,.7,4.6,2.7,6.3c2.1,1.7,5.4,2.9,10.6,3.4v-.5Z" class="g2_284"/>
<path d="M461,634.3l-5,2.9l5,2.9v-5.8Z" class="g2_284"/>
</svg>