<?xml version="1.0" encoding="UTF-8" standalone="no"?>
<!DOCTYPE svg PUBLIC "-//W3C//DTD SVG 1.1//EN"
"http://www.w3.org/Graphics/SVG/1.1/DTD/svg11.dtd">
<svg viewBox="0 0 907 1045" version="1.1" xmlns="http://www.w3.org/2000/svg" xmlns:xlink="http://www.w3.org/1999/xlink">
<defs>
<clipPath id="c0_33"><path d="M84.7,234.9V59.8H202.5V234.9Z"/></clipPath>
<clipPath id="c1_33"><path d="M-36.1,1064.9V-35H926.4V1064.9Z"/></clipPath>
<style type="text/css"><![CDATA[
.g0_33{
fill: #B8B8B8;
}
.g1_33{
fill: none;
stroke: #000000;
stroke-width: 1.675;
stroke-linecap: butt;
stroke-linejoin: miter;
stroke-miterlimit: 4;
}
.g2_33{
fill: none;
stroke: #000000;
stroke-width: 1.676;
stroke-linecap: butt;
stroke-linejoin: miter;
stroke-miterlimit: 4;
}
.g3_33{
fill: none;
stroke: #000000;
stroke-width: 1.527;
stroke-linecap: butt;
stroke-linejoin: miter;
stroke-miterlimit: 4;
stroke-dasharray: 5,5;
}
.g4_33{
fill: none;
stroke: #FFFFFF;
stroke-width: 1.909;
stroke-linecap: butt;
stroke-linejoin: miter;
}
.g5_33{
fill: none;
stroke: #000000;
stroke-width: 0.381;
stroke-linecap: butt;
stroke-linejoin: miter;
}
]]></style>
</defs>
<path d="M85.3,285.5c5.4,0,9.8,-4.4,9.8,-9.8c0,-5.4,-4.4,-9.8,-9.8,-9.8c-5.4,0,-9.8,4.4,-9.8,9.8c0,5.4,4.4,9.8,9.8,9.8Z" class="g0_33"/>
<path d="M85.3,285.5c5.4,0,9.8,-4.4,9.8,-9.8c0,-5.4,-4.4,-9.8,-9.8,-9.8c-5.4,0,-9.8,4.4,-9.8,9.8c0,5.4,4.4,9.8,9.8,9.8Z" class="g1_33"/>
<path d="M85.3,460.8c5.4,0,9.8,-4.4,9.8,-9.8c0,-5.4,-4.4,-9.7,-9.8,-9.7c-5.4,0,-9.8,4.3,-9.8,9.7c0,5.4,4.4,9.8,9.8,9.8Z" class="g0_33"/>
<path d="M85.3,460.8c5.4,0,9.8,-4.4,9.8,-9.8c0,-5.4,-4.4,-9.7,-9.8,-9.7c-5.4,0,-9.8,4.3,-9.8,9.7c0,5.4,4.4,9.8,9.8,9.8Z" class="g1_33"/>
<path d="M85.3,617.8c5.4,0,9.8,-4.4,9.8,-9.8c0,-5.4,-4.4,-9.7,-9.8,-9.7c-5.4,0,-9.8,4.3,-9.8,9.7c0,5.4,4.4,9.8,9.8,9.8Z" class="g0_33"/>
<path d="M85.3,617.8c5.4,0,9.8,-4.4,9.8,-9.8c0,-5.4,-4.4,-9.7,-9.8,-9.7c-5.4,0,-9.8,4.3,-9.8,9.7c0,5.4,4.4,9.8,9.8,9.8Z" class="g1_33"/>
<path d="M85.8,724.1c5.4,0,9.8,-4.4,9.8,-9.8c0,-5.4,-4.4,-9.8,-9.8,-9.8c-5.4,0,-9.7,4.4,-9.7,9.8c0,5.4,4.3,9.8,9.7,9.8Z" class="g0_33"/>
<path d="M85.8,724.1c5.4,0,9.8,-4.4,9.8,-9.8c0,-5.4,-4.4,-9.8,-9.8,-9.8c-5.4,0,-9.7,4.4,-9.7,9.8c0,5.4,4.3,9.8,9.7,9.8Z" class="g1_33"/>
<path d="M85.3,900.8c5.4,0,9.8,-4.4,9.8,-9.8c0,-5.4,-4.4,-9.8,-9.8,-9.8c-5.4,0,-9.8,4.4,-9.8,9.8c0,5.4,4.4,9.8,9.8,9.8Z" class="g0_33"/>
<path d="M85.3,900.8c5.4,0,9.8,-4.4,9.8,-9.8c0,-5.4,-4.4,-9.8,-9.8,-9.8c-5.4,0,-9.8,4.4,-9.8,9.8c0,5.4,4.4,9.8,9.8,9.8Z" class="g2_33"/>
<path d="M473.3,284.3c5.4,0,9.8,-4.4,9.8,-9.8c0,-5.4,-4.4,-9.8,-9.8,-9.8c-5.4,0,-9.8,4.4,-9.8,9.8c0,5.4,4.4,9.8,9.8,9.8Z" class="g0_33"/>
<path d="M473.3,284.3c5.4,0,9.8,-4.4,9.8,-9.8c0,-5.4,-4.4,-9.8,-9.8,-9.8c-5.4,0,-9.8,4.4,-9.8,9.8c0,5.4,4.4,9.8,9.8,9.8Z" class="g2_33"/>
<path d="M473.3,475.8c5.4,0,9.8,-4.4,9.8,-9.8c0,-5.4,-4.4,-9.8,-9.8,-9.8c-5.4,0,-9.8,4.4,-9.8,9.8c0,5.4,4.4,9.8,9.8,9.8Z" class="g0_33"/>
<path d="M473.3,475.8c5.4,0,9.8,-4.4,9.8,-9.8c0,-5.4,-4.4,-9.8,-9.8,-9.8c-5.4,0,-9.8,4.4,-9.8,9.8c0,5.4,4.4,9.8,9.8,9.8Z" class="g2_33"/>
<path d="M473.3,764.4c5.4,0,9.7,-4.4,9.7,-9.8c0,-5.4,-4.3,-9.7,-9.7,-9.7c-5.4,0,-9.8,4.3,-9.8,9.7c0,5.4,4.4,9.8,9.8,9.8Z" class="g0_33"/>
<path d="M473.3,764.4c5.4,0,9.7,-4.4,9.7,-9.8c0,-5.4,-4.3,-9.7,-9.7,-9.7c-5.4,0,-9.8,4.3,-9.8,9.7c0,5.4,4.4,9.8,9.8,9.8Z" class="g2_33"/>
<image clip-path="url(#c0_33)" preserveAspectRatio="none" x="85" y="60" width="117" height="175" xlink:href="img/1.jpg"/>
<path d="M75.8,250.9H818.4" class="g3_33"/>
<path d="M473.3,636.2c5.4,0,9.7,-4.4,9.7,-9.8c0,-5.4,-4.3,-9.7,-9.7,-9.7c-5.4,0,-9.8,4.3,-9.8,9.7c0,5.4,4.4,9.8,9.8,9.8Z" class="g0_33"/>
<path d="M473.3,636.2c5.4,0,9.7,-4.4,9.7,-9.8c0,-5.4,-4.3,-9.7,-9.7,-9.7c-5.4,0,-9.8,4.3,-9.8,9.7c0,5.4,4.4,9.8,9.8,9.8Z" class="g2_33"/>
<g clip-path="url(#c1_33)">
<path d="M-13.1,6.1h-23m939.5,0h23M-13.1,1023.6h-23m939.5,0h23M5.1,-12.1V-35m0,1077v22.9m880,-1077V-35m0,1077v22.9" class="g4_33"/>
<path d="M-13.1,6.1h-23m939.5,0h23M-13.1,1023.6h-23m939.5,0h23M5.1,-12.1V-35m0,1077v22.9m880,-1077V-35m0,1077v22.9" class="g5_33"/>
</g>
</svg>