<?xml version="1.0" encoding="UTF-8" standalone="no"?>
<!DOCTYPE svg PUBLIC "-//W3C//DTD SVG 1.1//EN"
"http://www.w3.org/Graphics/SVG/1.1/DTD/svg11.dtd">
<svg viewBox="0 0 907 1045" version="1.1" xmlns="http://www.w3.org/2000/svg" xmlns:xlink="http://www.w3.org/1999/xlink">
<defs>
<clipPath id="c0_39"><path d="M259.6,719.2V322.4H759V719.2Z"/></clipPath>
<clipPath id="c1_39"><path d="M256,683.6V318.7H619.7V683.6Z"/></clipPath>
<clipPath id="c2_39"><path d="M618.9,735.3V318.7H775.2V735.3Z"/></clipPath>
<clipPath id="c3_39"><path d="M256,735.3V682.8H619.7v52.5Z"/></clipPath>
<clipPath id="c4_39"><path d="M-2.6,1047.7V-2.6H910.2V1047.7Z"/></clipPath>
<style type="text/css"><![CDATA[
.g0_39{
fill: #FFFFFF;
}
.g1_39{
fill: none;
stroke: #000000;
stroke-width: 3.055;
stroke-linecap: butt;
stroke-linejoin: miter;
stroke-miterlimit: 4;
}
.g2_39{
fill: none;
stroke: #000000;
stroke-width: 1.527;
stroke-linecap: butt;
stroke-linejoin: miter;
stroke-miterlimit: 4;
}
.g3_39{
fill: none;
stroke: #FFFFFF;
stroke-width: 1.909;
stroke-linecap: butt;
stroke-linejoin: miter;
}
.g4_39{
fill: none;
stroke: #000000;
stroke-width: 0.381;
stroke-linecap: butt;
stroke-linejoin: miter;
}
]]></style>
</defs>
<image clip-path="url(#c1_39)" preserveAspectRatio="none" x="256" y="318" width="364" height="366" xlink:href="img/1.jpg"/>
<image clip-path="url(#c2_39)" preserveAspectRatio="none" x="619" y="318" width="157" height="418" xlink:href="img/2.jpg"/>
<image clip-path="url(#c3_39)" preserveAspectRatio="none" x="256" y="683" width="364" height="53" xlink:href="img/3.jpg"/>
<g clip-path="url(#c0_39)">
<image clip-path="url(#c0_39)" preserveAspectRatio="none" x="260" y="322" width="499" height="399" xlink:href="img/4.jpg"/>
</g>
<path d="M580.1,324.1c-6.7,-1.5,-10.4,10.7,-10.8,14.9c-.4,5.3,2.3,9,6,12.7c2.4,2.5,4.9,2.6,7.6,4.5c-2.5,5.3,-4,8.8,-1.7,15.1c2.9,8,13.7,21.8,21.7,26c2.8,1.5,7.2,.3,9,2.9c1.6,2.2,1.1,5.5,2.7,8c4.6,6.9,14.3,11.2,22.3,12c5.8,.6,21.3,.8,24.8,-6.4c1.9,1.4,3.4,4.1,5.3,5.8c8,7.6,16.5,8.4,27.9,9.9c9.9,1.3,16.6,-.7,24.7,-6.6c2.9,-2,7.8,-4.5,9.1,-7.9c10.2,9.3,28.1,5.4,39.6,.9c11.2,-4.3,21.2,-10.9,20.1,-23.3c1.4,4.4,13.7,-3.3,15.4,-4.4c6,-3.5,9.1,-6.8,12.6,-12.3c3,-4.7,6.2,-8.5,5.8,-14.2c.4,-2.5,-.2,-4.8,-1.9,-6.8c-1.4,-1.9,-7.2,-4.1,-7.4,-6.7c4,-2.5,7.3,-4.4,9.8,-8.4c4.5,-7.4,3.2,-18.1,0,-25.8C816.8,300.3,800.3,295.1,786,295.8c3.9,-1.6,8.1,-4.4,7.4,-8.9c-.4,-3,-6.2,-7.9,-8.2,-9.6c-4.5,-4.1,-5.9,-3.5,-12.9,-4.4c-17.9,-2.4,-32.9,-3.6,-50.2,1.3c-7.7,2.2,-23.1,6.3,-24,16c1.7,-5.5,-4.5,-10.7,-8.9,-13c-10.9,-5.6,-22.4,-5.1,-34.2,-3.7c-8.4,1,-34.8,6.6,-29.1,19.9c-7.5,-8.5,-24.9,-.7,-32,5c-2.2,1.7,-22.6,25.1,-13.8,26.6Z" class="g0_39"/>
<path d="M580.1,324.1c-6.7,-1.5,-10.4,10.7,-10.8,14.9c-.4,5.3,2.3,9,6,12.7c2.4,2.5,4.9,2.6,7.6,4.5c-2.5,5.3,-4,8.8,-1.7,15.1c2.9,8,13.7,21.8,21.7,26c2.8,1.5,7.1,.3,9,2.9c1.6,2.2,1.1,5.5,2.7,8c4.6,6.9,14.3,11.2,22.3,12c5.8,.6,21.3,.8,24.8,-6.4c1.9,1.4,3.4,4.1,5.3,5.8c8,7.6,16.5,8.4,27.9,9.9c9.9,1.3,16.6,-.7,24.7,-6.6c2.9,-2,7.8,-4.5,9.1,-7.9c10.2,9.3,28.1,5.4,39.6,.9c11.2,-4.3,21.2,-10.9,20.1,-23.3c1.4,4.4,13.7,-3.3,15.4,-4.4c6,-3.5,9.1,-6.8,12.6,-12.3c3,-4.7,6.2,-8.5,5.8,-14.2c.4,-2.5,-.2,-4.8,-1.9,-6.8c-1.4,-1.9,-7.2,-4.1,-7.4,-6.7c4,-2.5,7.3,-4.4,9.8,-8.4c4.5,-7.4,3.2,-18.1,0,-25.8C816.8,300.3,800.3,295.1,786,295.8c3.9,-1.6,8.1,-4.4,7.4,-8.9c-.4,-3,-6.2,-7.9,-8.2,-9.6c-4.5,-4.1,-5.9,-3.5,-12.9,-4.4c-17.9,-2.4,-32.9,-3.6,-50.2,1.3c-7.7,2.2,-23.1,6.3,-24,16c1.7,-5.5,-4.5,-10.7,-8.9,-13c-10.9,-5.6,-22.4,-5.1,-34.2,-3.7c-8.4,1,-34.8,6.6,-29.1,19.9c-7.5,-8.5,-24.9,-.7,-32,5c-2.2,1.7,-22.6,25.1,-13.8,26.6" class="g1_39"/>
<path d="M581.6,391.3c-2.6,.8,-2.2,3.9,-1.8,6.1c4.3,2.1,8.3,1.9,10.1,-2.7c-1.7,-1.5,-6.7,-6.5,-8.3,-2.4Z" class="g0_39"/>
<path d="M581.6,391.3c-2.6,.8,-2.2,3.9,-1.8,6.1c4.3,2.1,8.3,1.9,10.1,-2.7c-1.7,-1.5,-6.7,-6.5,-8.3,-2.4" class="g2_39"/>
<path d="M578.6,406c-3.9,-1.2,-3.2,3.3,-2.8,5.8c2.6,-.6,5.1,5,6.6,-.2c.9,-3.3,-2.6,-6.2,-5.7,-5.6Z" class="g0_39"/>
<path d="M578.6,406c-3.9,-1.2,-3.2,3.3,-2.8,5.8c2.6,-.6,5.1,5,6.6,-.2c.9,-3.3,-2.6,-6.2,-5.7,-5.6" class="g2_39"/>
<g clip-path="url(#c4_39)">
<path d="M-4.5,13.7H-27.4m939.5,0H935M-4.5,1031.2H-27.4m939.5,0H935M13.7,-4.5V-27.4m0,1077v22.9m880,-1077V-27.4m0,1077v22.9" class="g3_39"/>
<path d="M-4.5,13.7H-27.4m939.5,0H935M-4.5,1031.2H-27.4m939.5,0H935M13.7,-4.5V-27.4m0,1077v22.9m880,-1077V-27.4m0,1077v22.9" class="g4_39"/>
</g>
</svg>