<?xml version="1.0" encoding="UTF-8" standalone="no"?>
<!DOCTYPE svg PUBLIC "-//W3C//DTD SVG 1.1//EN"
"http://www.w3.org/Graphics/SVG/1.1/DTD/svg11.dtd">
<svg viewBox="0 0 907 1045" version="1.1" xmlns="http://www.w3.org/2000/svg" xmlns:xlink="http://www.w3.org/1999/xlink">
<defs>
<clipPath id="c0_218"><path d="M646,874.4L620,640.1l134.8,-15l26,234.4L646,874.4Z"/></clipPath>
<clipPath id="c1_218"><path d="M-2.6,1047.7V-2.6H910.2V1047.7Z"/></clipPath>
<style type="text/css"><![CDATA[
.g0_218{
fill: #D9D9D9;
}
.g1_218{
fill: none;
stroke: #636363;
stroke-width: 1.527;
stroke-linecap: butt;
stroke-linejoin: miter;
stroke-miterlimit: 4;
}
.g2_218{
fill: #FFFFFF;
}
.g3_218{
fill: none;
stroke: #000000;
stroke-width: 1.527;
stroke-linecap: butt;
stroke-linejoin: miter;
stroke-miterlimit: 4;
}
.g4_218{
fill: none;
stroke: #FFFFFF;
stroke-width: 1.909;
stroke-linecap: butt;
stroke-linejoin: miter;
}
.g5_218{
fill: none;
stroke: #000000;
stroke-width: 0.381;
stroke-linecap: butt;
stroke-linejoin: miter;
}
]]></style>
</defs>
<path d="M281.9,359.8V380H386.1V359.8H281.9Z" class="g0_218"/>
<path d="M534.5,297.2c-2.3,-.4,-4.5,0,-6.8,.4c-1.6,.2,-3.2,.5,-4.8,.8c-1.9,.6,-3.9,2,-5.5,3.2c-2.7,2,-5.1,4.3,-7.5,6.7c-2.9,2.9,-4.8,6.5,-7.5,9.6c-2.6,2.9,-5.4,5.4,-7.5,8.7c-1.8,2.9,-3.5,5.3,-5.6,7.9c-4.1,4.9,-8.4,9.3,-15,10.5c-7,1.2,-14.4,-1.7,-21,-3.4c-9.1,-2.2,-18.5,-3.4,-27.9,-3.4c-3.9,-.1,-8.2,.3,-12.1,1c-4.3,.7,-9.3,2.1,-13,4.6c-2.2,1.5,-4.4,4.2,-5.9,6.6c-1,1.7,-1.1,3.7,-1.9,5.3c-1.1,-1.9,-1,-4.3,-.8,-6.5c.1,-1.2,0,-3.9,.7,-5.1c.1,1.4,.4,2.7,.6,4.1c.3,2.3,-.7,3.7,-1.1,5.7c-.1,.4,-.3,2,.3,2.3c1,.6,5.3,-.7,6.3,-.9c.9,-.2,2.3,-.7,3.4,-.5" class="g1_218"/>
<image clip-path="url(#c0_218)" preserveAspectRatio="none" x="620" y="625" width="161" height="249" xlink:href="img/1.png"/>
<path d="M681.4,619.6c-.6,2.1,-3.4,5.1,-1.8,7.5c1.6,2.3,5.2,1.7,6.6,.2c4.3,-4.4,-.9,-9.2,-5.6,-7.4c0,.6,-.1,1.1,-.2,1.6Z" class="g2_218"/>
<path d="M681.4,619.6c-.6,2.1,-3.4,5.1,-1.8,7.5c1.6,2.3,5.2,1.7,6.6,.2c4.3,-4.4,-.9,-9.2,-5.6,-7.4c0,.6,-.1,1.1,-.2,1.6" class="g3_218"/>
<path d="M496.3,564.7c-4.3,-.5,-7.2,4.8,-10.3,6.7c-5.6,3.3,-5.1,5.9,-5.2,10.3c-.1,4.5,.8,8.6,6.9,11.5c5.2,2.4,3.7,4.3,10,4.3c-7.3,6.4,-3.8,15,.8,22c4.9,7.3,18.7,13.2,29.7,16c5.9,1.5,14.9,2.1,21.2,1.3c3.9,-.4,5.4,-2.2,8.8,-2.7c0,10.3,22.9,16.2,34.9,16.7c8.8,.3,23.4,-.7,30.1,-4.8c5.2,-3.2,12.9,-13.1,9.8,-17.8c1.9,.7,3.3,2.5,5.3,3c8,1.9,19.4,-4.9,24.2,-8.2c10.3,-7.1,12.4,-12.5,8.5,-22c-1.7,-4.1,-5.3,-10.9,-12.7,-11.5c5.9,-5.7,10.1,-10.7,7.1,-17.8c-3,-7.2,-11,-13.9,-20.4,-17.7c-5.3,-2.1,-17.4,-2.7,-19.9,-6.8c7.8,-6.2,-12.5,-15.6,-19.1,-17c-8.6,-1.9,-18.1,-2.1,-26.9,-.9c-6.7,1,-13.2,2.5,-19.6,4.2c-2.6,1,-6.8,4.8,-9.2,5.3c-5.1,1.1,-2.1,-.5,-6.1,-1.5c-5,-1.3,-14.4,1.9,-19,3.7c-13.7,5.5,-29.2,13.7,-27.6,25.7Z" class="g2_218"/>
<path d="M496.3,564.7c-4.3,-.5,-7.2,4.8,-10.3,6.7c-5.6,3.3,-5.1,5.9,-5.2,10.3c-.1,4.5,.8,8.6,6.9,11.5c5.2,2.4,3.7,4.3,10,4.3c-7.3,6.4,-3.8,15,.8,22c4.9,7.3,18.7,13.2,29.7,16c5.9,1.5,14.9,2.1,21.2,1.3c3.9,-.4,5.4,-2.2,8.8,-2.7c0,10.3,22.9,16.2,34.9,16.7c8.8,.3,23.4,-.7,30.1,-4.8c5.2,-3.2,12.9,-13.1,9.8,-17.8c1.9,.7,3.3,2.5,5.3,3c8,1.9,19.4,-4.9,24.2,-8.2c10.3,-7.1,12.4,-12.5,8.5,-22c-1.7,-4.1,-5.3,-10.9,-12.7,-11.5c5.9,-5.7,10.1,-10.7,7.1,-17.8c-3,-7.2,-11,-13.9,-20.4,-17.7c-5.3,-2.1,-17.4,-2.7,-19.9,-6.8c7.8,-6.2,-12.5,-15.6,-19.1,-17c-8.6,-1.9,-18.1,-2.1,-26.9,-.9c-6.7,1,-13.2,2.5,-19.6,4.2c-2.6,1,-6.8,4.8,-9.2,5.3c-5.1,1.1,-2.1,-.5,-6.1,-1.5c-5,-1.3,-14.4,1.9,-19,3.7c-13.7,5.5,-29.2,13.7,-27.6,25.7" class="g3_218"/>
<path d="M694.9,626.5c-3.6,1.1,1.6,7.1,4,2.9c1.6,-2.9,-3.8,-7.2,-5.1,-2.9Z" class="g2_218"/>
<path d="M694.9,626.5c-3.6,1.1,1.6,7.1,4,2.9c1.6,-2.9,-3.8,-7.2,-5.1,-2.9" class="g3_218"/>
<g clip-path="url(#c1_218)">
<path d="M-4.5,13.7H-27.4m939.5,0H935M-4.5,1031.2H-27.4m939.5,0H935M13.7,-4.5V-27.4m0,1077v22.9m880,-1077V-27.4m0,1077v22.9" class="g4_218"/>
<path d="M-4.5,13.7H-27.4m939.5,0H935M-4.5,1031.2H-27.4m939.5,0H935M13.7,-4.5V-27.4m0,1077v22.9m880,-1077V-27.4m0,1077v22.9" class="g5_218"/>
</g>
</svg>