<?xml version="1.0" encoding="UTF-8" standalone="no"?>
<!DOCTYPE svg PUBLIC "-//W3C//DTD SVG 1.1//EN"
"http://www.w3.org/Graphics/SVG/1.1/DTD/svg11.dtd">
<svg viewBox="0 0 907 1045" version="1.1" xmlns="http://www.w3.org/2000/svg" xmlns:xlink="http://www.w3.org/1999/xlink">
<defs>
<clipPath id="c0_583"><path d="M770.8,187.1v0Zm0,0l-61.7,-1.2l1,-53.4l61.8,1.2l-1.1,53.4Z"/></clipPath>
<clipPath id="c1_583"><path d="M657.5,263.2L641,203.6l51.6,-14.2L709,248.9l-51.5,14.3Z"/></clipPath>
<clipPath id="c2_583"><path d="M170.4,546.4V432H305.3V546.4Z"/></clipPath>
<clipPath id="c3_583"><path d="M-2.6,1047.7V-2.6H910.2V1047.7Z"/></clipPath>
<style type="text/css"><![CDATA[
.g0_583{
fill: none;
stroke: #1D1D1D;
stroke-width: 2.569;
stroke-linecap: butt;
stroke-linejoin: miter;
stroke-miterlimit: 4;
}
.g1_583{
fill: #FFFFFF;
}
.g2_583{
fill: none;
stroke: #000000;
stroke-width: 0.492;
stroke-linecap: butt;
stroke-linejoin: miter;
stroke-miterlimit: 4;
}
.g3_583{
fill: none;
stroke: #000000;
stroke-width: 0.656;
stroke-linecap: butt;
stroke-linejoin: miter;
stroke-miterlimit: 4;
}
.g4_583{
fill: none;
stroke: #636363;
stroke-width: 1.527;
stroke-linecap: butt;
stroke-linejoin: miter;
stroke-miterlimit: 4;
}
.g5_583{
fill: none;
stroke: #000000;
stroke-width: 1.527;
stroke-linecap: butt;
stroke-linejoin: miter;
stroke-miterlimit: 4;
}
.g6_583{
fill: none;
stroke: #FFFFFF;
stroke-width: 1.909;
stroke-linecap: butt;
stroke-linejoin: miter;
}
.g7_583{
fill: none;
stroke: #000000;
stroke-width: 0.381;
stroke-linecap: butt;
stroke-linejoin: miter;
}
]]></style>
</defs>
<g clip-path="url(#c0_583)">
<image clip-path="url(#c0_583)" preserveAspectRatio="none" x="707" y="129" width="66" height="58" xlink:href="img/1.png"/>
</g>
<g clip-path="url(#c1_583)">
<image clip-path="url(#c1_583)" preserveAspectRatio="none" x="639" y="176" width="87" height="87" xlink:href="img/2.png"/>
</g>
<path d="M766.3,163.2c-6.2,-19.7,43.3,-12.9,48.6,8.2c6.4,25.1,-47.1,41.4,-47.1,41.4l-62.6,22.6m0,-2.6c0,0,-8.3,-87.1,-2,-103.9c5.6,-15.2,46.2,-44,56.2,5.7" class="g0_583"/>
<image clip-path="url(#c2_583)" preserveAspectRatio="none" x="170" y="432" width="136" height="115" xlink:href="img/3.jpg"/>
<path d="M176.2,437.8v94.1H291V437.8H176.2Z" class="g1_583"/>
<path d="M176.2,437.8v94.1H291V437.8H176.2Z" class="g2_583"/>
<path d="M176.1,462H290.7" class="g3_583"/>
<path d="M361.7,451.1c-6.4,-5.3,-14.4,-2.5,-21.7,-1.3c-6.5,1.2,-11.7,6.2,-16.1,11c-1.4,1.5,-2.8,3.7,-4.7,4.6c-1.4,.7,-3.1,.9,-4.7,1c-1.5,.2,-3,-.8,-4.4,-.1c.7,-1.9,4,-2.3,5.3,-3.8c-.6,.4,-1.1,1,-1.7,1.5c-1.4,1.1,-3.2,1.9,-4.6,3.1c-3,2.6,3.1,3.5,5.1,3.7m-6.3,15.9c1.3,.7,2.9,1.8,3.6,3.2c.6,1.1,.5,2.1,.5,3.3c0,2.6,-1.5,3.8,-3.9,4.7c.8,.9,3,.8,4.2,1.4c-.1,1.3,-3.4,1.2,-4.3,1.5c2.5,.2,5.8,2.6,6.2,5.1c.4,3.4,-1.6,5.2,-4.3,6.9c-1.2,.7,-1.7,.9,-3.1,.8c-.8,-.1,-2.7,-.4,-3.3,-.9m73.8,3.1c-1.3,-1,-2.4,-1.9,-3.8,-2.6c-1.5,-.8,-2.4,-1.9,-3.7,-2.8c-2.5,-1.5,-6,-2.4,-8.8,-2.7c-6.5,-.6,-12.6,-2.8,-19.1,-3.4c-2.5,-.2,-4.9,-.4,-7.4,-.4c-1.2,0,-4.6,.6,-5.7,-.2c2.2,-1.3,4.3,-2.8,6.5,-3.9c1.1,-.6,2.8,-1.4,4.1,-1.1c-1.6,1.4,-4.7,1.5,-6.7,2.2c-1.7,.7,-3.3,1.8,-5,2.7c-.7,.3,-1.6,.6,-2.1,1.3c.9,.9,2.9,.4,4,1.1c1.8,1.1,1.8,2.7,2,4.5" class="g4_583"/>
<path d="M91.5,677.6v275H816.8v-275H91.5Z" class="g5_583"/>
<path d="M133,692.7v59.8H367.4V692.7H133Z" class="g1_583"/>
<path d="M101.9,664v59.8H305.6V664H101.9Z" class="g1_583"/>
<g clip-path="url(#c3_583)">
<path d="M-4.5,13.7H-27.4m939.5,0H935M-4.5,1031.2H-27.4m939.5,0H935M13.7,-4.5V-27.4m0,1077v22.9m880,-1077V-27.4m0,1077v22.9" class="g6_583"/>
<path d="M-4.5,13.7H-27.4m939.5,0H935M-4.5,1031.2H-27.4m939.5,0H935M13.7,-4.5V-27.4m0,1077v22.9m880,-1077V-27.4m0,1077v22.9" class="g7_583"/>
</g>
</svg>