<?xml version="1.0" encoding="UTF-8" standalone="no"?>
<!DOCTYPE svg PUBLIC "-//W3C//DTD SVG 1.1//EN"
"http://www.w3.org/Graphics/SVG/1.1/DTD/svg11.dtd">
<svg viewBox="0 0 811 1017" version="1.1" xmlns="http://www.w3.org/2000/svg" xmlns:xlink="http://www.w3.org/1999/xlink">
<defs>
<clipPath id="c0_76"><path d="M435.2,299.2V237.4H707.3v61.8Z"/></clipPath>
<style type="text/css"><![CDATA[
.g0_76{
fill: #70A6CC;
}
.g1_76{
}
]]></style>
</defs>
<path d="M142.4,101.4H710.7v-22H142.4Z" class="g0_76"/>
<path clip-path="url(#c0_76)" d="M466.7,299.2h.3V237.4h-.3Z" class="g1_76"/>
<path d="M479.2,323.3v3.2l-.2,-.1l-6.4,-2.9l-.3,-.2l.3,-.2l6.4,-2.9l.2,-.1v.3l-.1,.2l-6.3,2.9l-.2,-.4h.2l6.3,3l-.1,.3l-.1,-.2v-2.9Z" class="g1_76"/>
<path d="M478.9,323.3h.3v-2.9h-.3Z" class="g1_76"/>
<path d="M498.5,349.6h.3V323.1h-.3Z" class="g1_76"/>
<path d="M479.2,323.5h19.5v-.4H479.2Z" class="g1_76"/>
</svg>