<?xml version="1.0" encoding="UTF-8" standalone="no"?>
<!DOCTYPE svg PUBLIC "-//W3C//DTD SVG 1.1//EN"
"http://www.w3.org/Graphics/SVG/1.1/DTD/svg11.dtd">
<svg viewBox="0 0 907 1045" version="1.1" xmlns="http://www.w3.org/2000/svg" xmlns:xlink="http://www.w3.org/1999/xlink">
<defs>
<clipPath id="c0_302"><path d="M351.9,792.7V734.1H472.1v56.5l-33,-11.5l-.5,1.2L472.1,792v.7Z"/></clipPath>
<clipPath id="c1_302"><path d="M472.1,792L438.6,780.3l.5,-1.2l33,11.5V792Z"/></clipPath>
<clipPath id="c2_302"><path d="M259.1,635.2V576.6H379.4v17.7H366.2v1.3h13.2v39.6Z"/></clipPath>
<clipPath id="c3_302"><path d="M366.2,595.6v-1.3h13.2v1.3Z"/></clipPath>
<clipPath id="c4_302"><path d="M433.3,635.2V596.8l5.1,-1.9l-5.1,-1.8V576.6H553.6v58.6Z"/></clipPath>
<clipPath id="c5_302"><path d="M433.3,596.8v-3.7l5.1,1.8l-5.1,1.9Z"/></clipPath>
<clipPath id="c6_302"><path d="M425.5,730.1V671.4H545.8v58.7Z"/></clipPath>
<clipPath id="c7_302"><path d="M487,818.3V797.2l60.3,21.1Zm64.3,0L487,795.8V759.6H607.3v58.7Z"/></clipPath>
<clipPath id="c8_302"><path d="M547.3,818.3L487,797.2v-1.4l64.3,22.5Z"/></clipPath>
<clipPath id="c9_302"><path d="M552.3,756.8V698.1H672.6v58.7Z"/></clipPath>
<clipPath id="ca_302"><path d="M544.3,878.1V819.4h6.4l20.2,7.1l.4,-1.3l-16.6,-5.8H664.6v58.7Z"/></clipPath>
<clipPath id="cb_302"><path d="M570.9,826.5l-20.2,-7.1h4l16.6,5.8l-.4,1.3Z"/></clipPath>
<clipPath id="cc_302"><path d="M374.5,877.3V818.6H494.8v58.7Z"/></clipPath>
<clipPath id="cd_302"><path d="M-2.6,1047.7V-2.6H910.2V1047.7Z"/></clipPath>
<style type="text/css"><![CDATA[
.g0_302{
fill: #E0E0E0;
}
.g1_302{
fill: none;
stroke: #000000;
stroke-width: 1.368;
stroke-linecap: butt;
stroke-linejoin: miter;
stroke-miterlimit: 4;
}
.g2_302{
fill: none;
stroke: #606060;
stroke-width: 1.33;
stroke-linecap: round;
stroke-linejoin: round;
stroke-miterlimit: 4;
stroke-dasharray: 0,4;
}
.g3_302{
fill: none;
stroke: #606060;
stroke-width: 1.33;
stroke-linecap: round;
stroke-linejoin: round;
stroke-miterlimit: 4;
stroke-dasharray: 0,5;
}
.g4_302{
fill: none;
stroke: #606060;
stroke-width: 1.33;
stroke-linecap: round;
stroke-linejoin: round;
stroke-miterlimit: 4;
}
.g5_302{
fill: #636363;
}
.g6_302{
fill: #FFFFFF;
}
.g7_302{
fill: none;
stroke: #000000;
stroke-width: 0.429;
stroke-linecap: butt;
stroke-linejoin: miter;
stroke-miterlimit: 4;
}
.g8_302{
}
.g9_302{
fill: none;
stroke: #000000;
stroke-width: 0.572;
stroke-linecap: butt;
stroke-linejoin: miter;
stroke-miterlimit: 4;
}
.ga_302{
fill: none;
stroke: #636363;
stroke-width: 1.33;
stroke-linecap: butt;
stroke-linejoin: miter;
stroke-miterlimit: 4;
}
.gb_302{
fill: none;
stroke: #636363;
stroke-width: 1.527;
stroke-linecap: butt;
stroke-linejoin: miter;
stroke-miterlimit: 4;
}
.gc_302{
fill: none;
stroke: #FFFFFF;
stroke-width: 1.909;
stroke-linecap: butt;
stroke-linejoin: miter;
}
.gd_302{
fill: none;
stroke: #000000;
stroke-width: 0.381;
stroke-linecap: butt;
stroke-linejoin: miter;
}
]]></style>
</defs>
<path d="M214.5,330.9v91.5H591.4V330.9H214.5Z" class="g0_302"/>
<path d="M214.5,330.9v91.5H591.4V330.9H214.5Z" class="g1_302"/>
<path d="M339,661.9v224" class="g2_302"/>
<path d="M343,887.9H682.1" class="g3_302"/>
<path d="M684.1,883.9v-224" class="g2_302"/>
<path d="M680.1,657.9H341" class="g3_302"/>
<path d="M339,887.9v0m345.1,0v0m0,-230v0m-345.1,0v0" class="g4_302"/>
<path d="M438.6,780.3l132.3,46.2l.4,-1.3L439.1,779.1l-.5,1.2Z" class="g5_302"/>
<image clip-path="url(#c0_302)" preserveAspectRatio="none" x="352" y="734" width="121" height="59" xlink:href="img/1.jpg"/>
<image clip-path="url(#c1_302)" preserveAspectRatio="none" x="438" y="779" width="35" height="13" xlink:href="img/2.jpg"/>
<path d="M357.7,739.8v38.6h99.9V739.8H357.7Z" class="g6_302"/>
<path d="M357.7,739.8v38.6h99.9V739.8H357.7Z" class="g7_302"/>
<path d="M366.2,595.6h65v-1.3h-65v1.3Z" class="g8_302"/>
<path d="M438.4,594.9l-9.3,-3.4v6.8l9.3,-3.4Z" class="g8_302"/>
<image clip-path="url(#c2_302)" preserveAspectRatio="none" x="259" y="576" width="121" height="60" xlink:href="img/3.jpg"/>
<image clip-path="url(#c3_302)" preserveAspectRatio="none" x="366" y="594" width="14" height="2" xlink:href="img/4.jpg"/>
<path d="M264.9,582.3v38.6h99.9V582.3H264.9Z" class="g6_302"/>
<path d="M264.9,582.3v38.6h99.9V582.3H264.9Z" class="g7_302"/>
<path d="M264.8,596.7h101" class="g9_302"/>
<image clip-path="url(#c4_302)" preserveAspectRatio="none" x="433" y="576" width="121" height="60" xlink:href="img/5.jpg"/>
<image clip-path="url(#c5_302)" preserveAspectRatio="none" x="433" y="593" width="6" height="4" xlink:href="img/6.jpg"/>
<path d="M439.1,582.3v38.6H539V582.3H439.1Z" class="g6_302"/>
<path d="M439.1,582.3v38.6H539V582.3H439.1Z" class="g7_302"/>
<path d="M439,596.7H540" class="g9_302"/>
<image clip-path="url(#c6_302)" preserveAspectRatio="none" x="425" y="671" width="121" height="59" xlink:href="img/7.jpg"/>
<path d="M431.3,677.2v38.5h99.9V677.2H431.3Z" class="g6_302"/>
<path d="M431.3,677.2v38.5h99.9V677.2H431.3Z" class="g7_302"/>
<image clip-path="url(#c7_302)" preserveAspectRatio="none" x="487" y="759" width="121" height="60" xlink:href="img/8.jpg"/>
<image clip-path="url(#c8_302)" preserveAspectRatio="none" x="487" y="796" width="65" height="23" xlink:href="img/9.jpg"/>
<path d="M492.8,765.3v38.6h99.9V765.3H492.8Z" class="g6_302"/>
<path d="M492.8,765.3v38.6h99.9V765.3H492.8Z" class="g7_302"/>
<image clip-path="url(#c9_302)" preserveAspectRatio="none" x="552" y="698" width="121" height="59" xlink:href="img/10.jpg"/>
<path d="M558.1,703.9v38.5H658V703.9H558.1Z" class="g6_302"/>
<path d="M558.1,703.9v38.5H658V703.9H558.1Z" class="g7_302"/>
<image clip-path="url(#ca_302)" preserveAspectRatio="none" x="544" y="819" width="121" height="59" xlink:href="img/11.jpg"/>
<image clip-path="url(#cb_302)" preserveAspectRatio="none" x="551" y="819" width="21" height="8" xlink:href="img/12.jpg"/>
<path d="M550.1,825.2v38.5H650V825.2H550.1Z" class="g6_302"/>
<path d="M550.1,825.2v38.5H650V825.2H550.1Z" class="g7_302"/>
<image clip-path="url(#cc_302)" preserveAspectRatio="none" x="374" y="818" width="121" height="60" xlink:href="img/13.jpg"/>
<path d="M380.3,824.4v38.5h99.9V824.4H380.3Z" class="g6_302"/>
<path d="M380.3,824.4v38.5h99.9V824.4H380.3Z" class="g7_302"/>
<path d="M484,621.5v55.7m-71,102l25.9,44.4M558.4,805.3l16.1,19.5m14.7,-80.6L559,764.8M531.4,699.9l27,19.9M491.7,782l-32.5,42.2M456.6,715.5l-50.4,24.1M490.8,621.5l117.3,81.9" class="ga_302"/>
<path d="M622.7,562.8c-.6,-1.5,-2.7,-2.7,-3.9,-3.6c-2.9,-2.1,-5.8,-4,-9.4,-4.4c-3.4,-.4,-7.1,.2,-10.5,.4c-3.2,.2,-6.4,.1,-9.5,.2c-5.3,.1,-10.3,1.4,-15.5,2.6c-4.4,1,-8.8,1.7,-12.9,3.6c-5,2.4,-8.3,6.3,-11.9,10.2c-.5,.7,-1.2,1.1,-1.8,1.8c0,.1,-.3,.3,-.4,.5c-.2,.3,-.1,.6,-.5,.8c-.1,-1.3,.1,-3,.3,-4.2c.2,-1.2,.8,-2.2,.7,-3.4c.1,1.8,-1,3.5,-1.3,5.3c-.1,.6,-.5,2.4,-.3,2.9c2.6,-.3,5.3,0,8,0M260,706.2c.3,-1.6,1,-2.5,1.9,-3.7c1.6,-1.9,3.1,-3.8,4.9,-5.5c2.2,-2,4.7,-3.5,7.4,-4.9c1.7,-1,3.4,-2.1,5.2,-2.9c2.2,-.9,4.5,-1.6,6.7,-2.4c3.2,-1.1,6.6,-1.2,10,-1.9c4.5,-1,9.2,-1.7,13.8,-2.3c1.8,-.3,3.7,-.5,5.5,-.5c.6,0,1.4,.1,2,0c.4,-.1,.5,-.3,.9,-.3c-.2,-.9,-1.7,-1,-2.4,-1.2c-1.1,-.2,-4,-.5,-4.8,-1.5c.5,.3,1,.3,1.5,.5c1.2,.2,2.4,.6,3.6,.8c.6,.1,1.1,.1,1.6,.4c.2,.1,.3,.6,.7,.8c-2,1.9,-4.1,3.8,-6.1,5.8M206.2,576.3c0,.2,-.1,.3,-.1,.5c-.4,-1.5,2.5,-2.7,3.4,-3.3c3.6,-2.4,7.8,-4.1,12.1,-4.3c2.8,-.1,5.4,.2,8.1,.5c3.3,.3,6.9,.7,10.1,1.7c2.5,.7,4.9,1.5,7.3,2.3c2.3,.7,4.6,1.5,6.5,2.9c1.1,.9,2.3,1.6,3.4,2.4c.2,.3,.8,.6,.9,.9c-.4,-.9,-1.1,-1.5,-1.5,-2.5c-.5,-1.3,-1.1,-2.7,-1.7,-3.9c.5,1.2,.8,2.3,1.1,3.6c.2,.9,.7,1.6,1,2.5c.1,.3,.3,1.2,.1,1.5c-.1,.3,-2.9,0,-3.1,0c-1.3,0,-2.5,.2,-3.7,.2" class="gb_302"/>
<g clip-path="url(#cd_302)">
<path d="M-4.5,13.7H-27.4m939.5,0H935M-4.5,1031.2H-27.4m939.5,0H935M13.7,-4.5V-27.4m0,1077v22.9m880,-1077V-27.4m0,1077v22.9" class="gc_302"/>
<path d="M-4.5,13.7H-27.4m939.5,0H935M-4.5,1031.2H-27.4m939.5,0H935M13.7,-4.5V-27.4m0,1077v22.9m880,-1077V-27.4m0,1077v22.9" class="gd_302"/>
</g>
</svg>