<?xml version="1.0" encoding="UTF-8" standalone="no"?>
<!DOCTYPE svg PUBLIC "-//W3C//DTD SVG 1.1//EN"
"http://www.w3.org/Graphics/SVG/1.1/DTD/svg11.dtd">
<svg viewBox="0 0 811 1017" version="1.1" xmlns="http://www.w3.org/2000/svg" xmlns:xlink="http://www.w3.org/1999/xlink">
<defs>
<style type="text/css"><![CDATA[
.g0_402{
fill: #FFFFFF;
}
.g1_402{
fill: #231F20;
}
.g2_402{
fill: #5A5758;
}
.g3_402{
fill: #EFEFEF;
}
.g4_402{
fill: #DFDFDF;
}
.g5_402{
fill: #EC2224;
}
.g6_402{
fill: #23ACDC;
}
.g7_402{
fill: #C9C9C8;
}
.g8_402{
fill: #ED3454;
}
.g9_402{
fill: #961E47;
}
.ga_402{
fill: #FABF12;
}
.gb_402{
fill: #D9A728;
}
.gc_402{
fill: #AEADB3;
}
.gd_402{
fill: #8A8791;
}
.ge_402{
fill: #58565C;
}
.gf_402{
fill: #3C3A41;
}
]]></style>
</defs>
<path d="M143.5,379.5H654.7V84.8H143.5Z" class="g0_402"/>
<path d="M367.5,266.4v-2.7c0,-1.7,-1.4,-3.1,-3.1,-3.1H316.1c-1.7,0,-3.1,1.4,-3.1,3.1v2.7h54.5Z" class="g1_402"/>
<path d="M325.3,266.4H313v-2.7c0,-1.7,1.4,-3.1,3.1,-3.1h12.5l-3.3,5.8Z" class="g2_402"/>
<path d="M313.8,304.7h52.8V267.2H313.8Z" class="g0_402"/>
<path d="M365.8,268.1v35.7H314.7V268.1h51.1m1.7,-1.7H313v39.1h54.5Z" class="g3_402"/>
<path d="M364.9,268.9V303H315.5V268.9h49.4m.4,-.4H315.1v34.9h50.2Z" class="g4_402"/>
<path d="M318.2,263.5c0,.5,-.4,.8,-.9,.8c-.5,0,-.9,-.3,-.9,-.8c0,-.5,.4,-.9,.9,-.9c.5,0,.9,.4,.9,.9Z" class="g5_402"/>
<path d="M320.8,263.5c0,.5,-.4,.8,-.9,.8c-.5,0,-.9,-.3,-.9,-.8c0,-.5,.4,-.9,.9,-.9c.5,0,.9,.4,.9,.9Z" class="g6_402"/>
<path d="M323.4,263.5c0,.5,-.4,.8,-.9,.8c-.5,0,-.8,-.3,-.8,-.8c0,-.5,.3,-.9,.8,-.9c.5,0,.9,.4,.9,.9Z" class="g0_402"/>
<path d="M358.6,265H331.2c-.9,0,-1.6,-.7,-1.6,-1.5c0,-.9,.7,-1.6,1.6,-1.6h27.4c.8,0,1.5,.7,1.5,1.6c0,.8,-.7,1.5,-1.5,1.5Z" class="g0_402"/>
<path d="M332.2,262.8l.2,.8c.1,.2,.1,.3,.1,.5h.1c0,-.2,0,-.3,.1,-.5l.2,-.8h.3l.2,.8c.1,.2,.1,.4,.2,.5c0,-.1,0,-.3,.1,-.5l.2,-.8h.3l-.5,1.6h-.3l-.2,-.8c-.1,-.1,-.1,-.3,-.1,-.5c-.1,.2,-.1,.4,-.2,.5l-.2,.8h-.3l-.5,-1.6h.3Z" class="g1_402"/>
<path d="M334.6,262.8l.2,.8c.1,.2,.1,.3,.2,.5c0,-.2,.1,-.3,.1,-.5l.3,-.8h.2l.3,.8c0,.2,.1,.4,.1,.5c0,-.1,.1,-.3,.1,-.5l.2,-.8h.3l-.5,1.6h-.2l-.3,-.8c0,-.2,-.1,-.3,-.1,-.5c0,.2,-.1,.3,-.1,.5l-.3,.7h-.3l-.4,-1.5h.2Z" class="g1_402"/>
<path d="M337.1,262.8l.2,.8c.1,.2,.1,.3,.1,.5c.1,-.2,.1,-.3,.2,-.5l.2,-.8h.3l.2,.8c.1,.2,.1,.4,.1,.5h.1c0,-.1,0,-.3,.1,-.5l.2,-.8h.3l-.5,1.6h-.3l-.2,-.8c-.1,-.1,-.1,-.3,-.2,-.5c0,.2,0,.4,-.1,.5l-.2,.8h-.3l-.5,-1.6h.3Z" class="g1_402"/>
<path d="M339.2,264.2l.2,-.2l.2,.2l-.2,.2l-.2,-.2Z" class="g1_402"/>
<path d="M362.1,263.7h2.4v-.4h-2.4Z" class="g0_402"/>
<path d="M363.2,264.5l1,-1l-1,-1l.3,-.2l1.3,1.2l-1.3,1.3l-.3,-.3Z" class="g0_402"/>
<path d="M357.9,264l-.8,-1h1.6l-.8,1Z" class="g7_402"/>
<path d="M342.5,296.2h2.9v-8h-2.9Z" class="g8_402"/>
<path d="M347.4,296.2h2.9v-4.8h-2.9Z" class="g6_402"/>
<path d="M337.6,296.2h3V283.7h-3Z" class="g6_402"/>
<path d="M332.8,296.2h2.9V275.7h-2.9Z" class="g8_402"/>
<path d="M327.9,296.2h2.9V279.8h-2.9Z" class="g6_402"/>
<path d="M323,296.2h2.9v-9.8H323Z" class="g8_402"/>
<path d="M356.2,281.7l-7.1,-1.3l1.3,7.1l2,-2l4.4,4.4l1.9,-1.9l-4.4,-4.4l1.9,-1.9Z" class="g6_402"/>
<path d="M209.5,289.9c-5.5,-2,-7.3,-1,-7.3,-4.6c0,-.2,0,-.5,0,-.8h.3c3.8,.3,7.4,.5,8.2,-.1c1.3,-.9,-3.2,-2.3,-3.2,-14c0,-5.9,-3.9,-10.1,-9.8,-10.1h-.6c-6,0,-9.9,4.2,-9.9,10.1c0,11.7,-4.5,13.1,-3.2,14c.8,.6,4.5,.4,8.3,.1h.3c0,.3,0,.6,0,.8c0,3.6,-1.8,2.6,-7.3,4.6c-5.6,2,-7.2,4.1,-7.2,5.5c0,1.4,0,9.1,0,9.1h38.6c0,0,0,-7.7,0,-9.1c0,-1.4,-1.6,-3.5,-7.2,-5.5Z" class="g1_402"/>
<path d="M434.8,217h28.4v-5.4c0,-1.8,.9,-3.4,2.2,-4.3v-.5c0,-.6,.1,-1.3,.2,-2H434.8c-3.4,0,-6.1,2.8,-6.1,6.1c0,3.4,2.7,6.1,6.1,6.1Zm11.3,-7.6c.8,0,1.5,.7,1.5,1.5c0,.9,-.7,1.6,-1.5,1.6c-.9,0,-1.6,-.7,-1.6,-1.6c0,-.8,.7,-1.5,1.6,-1.5Zm-4.8,0c.9,0,1.6,.7,1.6,1.5c0,.9,-.7,1.6,-1.6,1.6c-.8,0,-1.5,-.7,-1.5,-1.6c0,-.8,.7,-1.5,1.5,-1.5ZM435.1,208c1.6,0,3,1.3,3,2.9c0,1.7,-1.4,3,-3,3c-1.6,0,-3,-1.3,-3,-3c0,-1.6,1.4,-2.9,3,-2.9Z" class="g9_402"/>
<path d="M446.8,244.8c0,-.7,.1,-1.3,.3,-2H432.6c-1.1,0,-2,.9,-2,2c0,1.1,.9,2,2,2h14.5c-.2,-.6,-.3,-1.3,-.3,-2Z" class="g9_402"/>
<path d="M477.9,244.8c0,-1.1,-.9,-2,-2,-2H461.3c.2,.7,.3,1.3,.3,2c0,.7,-.1,1.4,-.3,2h14.6c1.1,0,2,-.9,2,-2Z" class="g9_402"/>
<path d="M468.4,224.9h15.7c1.1,0,2.1,-1,2.1,-2.1V211.6c0,-1.2,-1,-2.1,-2.1,-2.1v-2.6c0,-4.3,-3.5,-7.8,-7.8,-7.8c-4.2,0,-7.7,3.5,-7.7,7.8v2.6h-.2c-1.1,0,-2,.9,-2,2.1v11.2c0,1.1,.9,2.1,2,2.1Zm9.1,-7.2c-.2,.1,-.2,.2,-.2,.4c0,.8,0,1.7,0,2.5c0,.3,-.2,.7,-.5,.8c-.7,.4,-1.4,-.1,-1.4,-.8c0,-.8,0,-1.7,0,-2.5c0,-.1,-.1,-.3,-.2,-.4c-.8,-.5,-1,-1.5,-.6,-2.3c.3,-.8,1.2,-1.3,2.1,-1.1c.9,.2,1.5,.9,1.5,1.9c.1,.6,-.2,1.1,-.7,1.5ZM472,206.9c0,-2.4,1.9,-4.4,4.3,-4.4c2.5,0,4.4,1.9,4.4,4.4v2.6H472v-2.6Z" class="g9_402"/>
<path d="M434.8,233.1h17.4v7.6c-1.5,.7,-2.6,2.3,-2.6,4.1c0,2.6,2,4.6,4.6,4.6c2.5,0,4.6,-2,4.6,-4.6c0,-1.8,-1.1,-3.4,-2.6,-4.1v-7.6h18.5c3,0,5.5,-2.2,6,-5.1H468.4c-2.8,0,-5.2,-2.3,-5.2,-5.2v-1.9H434.8c-3.4,0,-6.1,2.7,-6.1,6.1c0,3.3,2.7,6.1,6.1,6.1Zm11.3,-7.6c.8,0,1.5,.6,1.5,1.5c0,.8,-.7,1.5,-1.5,1.5c-.9,0,-1.6,-.7,-1.6,-1.5c0,-.9,.7,-1.5,1.6,-1.5Zm-4.8,0c.9,0,1.6,.6,1.6,1.5c0,.8,-.7,1.5,-1.6,1.5c-.8,0,-1.5,-.7,-1.5,-1.5c0,-.9,.7,-1.5,1.5,-1.5ZM435.1,224c1.6,0,3,1.3,3,3c0,1.6,-1.4,3,-3,3c-1.6,0,-3,-1.4,-3,-3c0,-1.7,1.4,-3,3,-3Z" class="g9_402"/>
<path d="M434.5,335.6h28.4v-5.5c0,-1.7,.9,-3.3,2.3,-4.2v-.5c0,-.7,0,-1.3,.2,-2H434.5c-3.4,0,-6.1,2.7,-6.1,6.1c0,3.4,2.7,6.1,6.1,6.1ZM445.8,328c.8,0,1.5,.6,1.5,1.5c0,.8,-.7,1.5,-1.5,1.5c-.9,0,-1.6,-.7,-1.6,-1.5c0,-.9,.7,-1.5,1.6,-1.5Zm-4.7,0c.8,0,1.5,.6,1.5,1.5c0,.8,-.7,1.5,-1.5,1.5c-.9,0,-1.6,-.7,-1.6,-1.5c0,-.9,.7,-1.5,1.6,-1.5Zm-6.3,-1.5c1.6,0,3,1.3,3,3c0,1.6,-1.4,3,-3,3c-1.6,0,-3,-1.4,-3,-3c0,-1.7,1.4,-3,3,-3Z" class="g1_402"/>
<path d="M446.5,363.4c0,-.7,.1,-1.4,.3,-2H432.3c-1.1,0,-1.9,.9,-1.9,2c0,1.1,.8,2,1.9,2h14.5c-.2,-.7,-.3,-1.3,-.3,-2Z" class="g1_402"/>
<path d="M477.6,363.4c0,-1.1,-.9,-2,-2,-2H461c.2,.6,.3,1.3,.3,2c0,.7,-.1,1.3,-.3,2h14.6c1.1,0,2,-.9,2,-2Z" class="g1_402"/>
<path d="M468.2,343.4h15.6c1.2,0,2.1,-.9,2.1,-2V330.1c0,-1.1,-.9,-2,-2.1,-2v-2.7c0,-4.2,-3.5,-7.7,-7.7,-7.7c-4.3,0,-7.8,3.5,-7.8,7.7v2.7h-.1c-1.2,0,-2.1,.9,-2.1,2v11.3c0,1.1,.9,2,2.1,2Zm9,-7.1c-.2,.1,-.2,.2,-.2,.4c0,.8,0,1.6,0,2.4c0,.4,-.2,.7,-.5,.9c-.7,.4,-1.4,-.2,-1.4,-.8c0,-.9,0,-1.7,0,-2.5c0,-.2,0,-.3,-.2,-.4c-.7,-.6,-1,-1.5,-.6,-2.3c.3,-.8,1.2,-1.3,2.1,-1.1c.9,.2,1.5,.9,1.6,1.8c0,.7,-.3,1.2,-.8,1.6Zm-5.5,-10.9c0,-2.4,2,-4.3,4.4,-4.3c2.4,0,4.3,1.9,4.3,4.3v2.7h-8.7v-2.7Z" class="g1_402"/>
<path d="M434.5,351.6h17.4v7.7c-1.5,.7,-2.6,2.3,-2.6,4.1c0,2.5,2.1,4.6,4.6,4.6c2.5,0,4.6,-2.1,4.6,-4.6c0,-1.8,-1.1,-3.4,-2.6,-4.1v-7.7h18.5c3,0,5.5,-2.1,6,-5H468.2c-2.9,0,-5.3,-2.3,-5.3,-5.2v-1.9H434.5c-3.4,0,-6.1,2.7,-6.1,6c0,3.4,2.7,6.1,6.1,6.1ZM445.8,344c.8,0,1.5,.7,1.5,1.5c0,.9,-.7,1.6,-1.5,1.6c-.9,0,-1.6,-.7,-1.6,-1.6c0,-.8,.7,-1.5,1.6,-1.5Zm-4.7,0c.8,0,1.5,.7,1.5,1.5c0,.9,-.7,1.6,-1.5,1.6c-.9,0,-1.6,-.7,-1.6,-1.6c0,-.8,.7,-1.5,1.6,-1.5Zm-6.3,-1.4c1.6,0,3,1.3,3,2.9c0,1.7,-1.4,3,-3,3c-1.6,0,-3,-1.3,-3,-3c0,-1.6,1.4,-2.9,3,-2.9Z" class="g1_402"/>
<path d="M530.9,361c-.3,-.1,-.5,-.1,-.7,0c-3,2.3,-8,3.6,-13.6,3.6c-5.6,0,-10.7,-1.3,-13.6,-3.6c-.3,-.1,-.6,-.1,-.8,0c-.3,.2,-.4,.5,-.4,.6v2.3c0,3.7,6.5,6.6,14.8,6.6c8.3,0,14.8,-2.9,14.8,-6.6v-2.3c0,-.3,-.2,-.6,-.5,-.6Z" class="g1_402"/>
<path d="M530.9,346.1c-.3,-.2,-.5,-.2,-.7,0c-3,2.2,-8,3.5,-13.6,3.5c-5.6,0,-10.7,-1.3,-13.6,-3.5c-.3,-.2,-.6,-.2,-.8,0c-.3,.1,-.4,.4,-.4,.6v2.2c0,3.7,6.5,6.7,14.8,6.7c8.3,0,14.8,-3,14.8,-6.7v-2.2c0,-.2,-.2,-.5,-.5,-.6Z" class="g1_402"/>
<path d="M516.6,348.3c8.3,0,14.8,-3,14.8,-6.7c0,-3.7,-6.5,-6.6,-14.8,-6.6c-8.3,0,-14.8,2.9,-14.8,6.6c0,3.7,6.5,6.7,14.8,6.7Z" class="g1_402"/>
<path d="M530.9,353.5c-.3,-.2,-.5,-.2,-.7,0c-3,2.2,-8,3.5,-13.6,3.5c-5.6,0,-10.7,-1.3,-13.6,-3.5c-.3,-.2,-.6,-.2,-.8,0c-.3,.1,-.4,.4,-.4,.6v2.2c0,3.7,6.5,6.7,14.8,6.7c8.3,0,14.8,-3,14.8,-6.7v-2.2c0,-.2,-.2,-.5,-.5,-.6Z" class="g1_402"/>
<path d="M529.1,240.9c-.3,-.2,-.6,-.2,-.7,0c-3,2.2,-8,3.5,-13.7,3.5c-5.6,0,-10.6,-1.3,-13.6,-3.5c-.3,-.2,-.6,-.2,-.7,0c-.3,.1,-.5,.4,-.5,.6v2.2c0,3.7,6.6,6.6,14.8,6.6c8.3,0,14.9,-2.9,14.9,-6.6v-2.2c0,-.3,-.2,-.6,-.5,-.6Z" class="g9_402"/>
<path d="M529.1,225.9c-.3,-.1,-.6,-.1,-.7,0c-3,2.2,-8,3.6,-13.7,3.6c-5.6,0,-10.6,-1.4,-13.6,-3.6c-.3,-.1,-.6,-.1,-.7,0c-.3,.2,-.5,.5,-.5,.6v2.2c0,3.7,6.6,6.7,14.8,6.7c8.3,0,14.9,-3,14.9,-6.7v-2.2c0,-.1,-.2,-.4,-.5,-.6Z" class="g9_402"/>
<path d="M514.7,228.1c8.3,0,14.9,-2.9,14.9,-6.6c0,-3.7,-6.6,-6.7,-14.9,-6.7c-8.2,0,-14.8,3,-14.8,6.7c0,3.7,6.6,6.6,14.8,6.6Z" class="g9_402"/>
<path d="M529.1,233.3c-.3,-.1,-.6,-.1,-.7,0c-3,2.2,-8,3.6,-13.7,3.6c-5.6,0,-10.6,-1.4,-13.6,-3.6c-.3,-.1,-.6,-.1,-.7,0c-.3,.2,-.5,.5,-.5,.6v2.2c0,3.7,6.6,6.7,14.8,6.7c8.3,0,14.9,-3,14.9,-6.7v-2.2c0,-.1,-.2,-.4,-.5,-.6Z" class="g9_402"/>
<path d="M212.8,282.8l91,.5v-.8l-91,-.4Z" class="g1_402"/>
<path d="M302.3,285.1l8.3,-2.2l-8.3,-2.2v4.4Z" class="g1_402"/>
<path d="M369.1,268.5l53.6,-31.8l-.4,-.7l-53.6,31.9Z" class="g1_402"/>
<path d="M422.3,239l6,-6.1l-8.2,2.3l2.2,3.8Z" class="g1_402"/>
<path d="M369,298.1l51.4,26l.4,-.7l-51.4,-26Z" class="g1_402"/>
<path d="M418.2,325l8.4,1.8L420.2,321l-2,4Z" class="g1_402"/>
<path d="M446,98.7c0,-3.3,-4.7,-5.2,-9.5,-5.5c-.4,-3.1,-3.2,-8.4,-5.9,-8.4c-1,0,-2.1,.2,-3.3,.4c-1.4,.3,-3,.6,-4.5,.6c-1.5,0,-3,-.3,-4.4,-.6C417.2,85,416,84.8,415,84.8c-2.7,0,-5.4,5.3,-5.8,8.4c-4.8,.3,-9.6,2.2,-9.6,5.5c0,2.3,2.7,5.2,8.2,7.1v.1c-1.6,1.1,-1.8,3.1,-1.8,4.5c0,1.1,.5,2.9,1.5,4.4l-2.4,-.5c-.4,-.1,-.8,.1,-1.1,.4c-.2,.4,-.2,.8,0,1.2l6.3,10.6c.2,.3,.6,.5,.9,.5h23.2c.4,0,.8,-.2,.9,-.5l6.4,-10.6c.2,-.4,.2,-.8,-.1,-1.2c-.2,-.3,-.6,-.5,-1.1,-.4l-2.3,.5c.9,-1.5,1.5,-3.3,1.5,-4.4c0,-1.4,-.2,-3.4,-1.9,-4.5v-.1c5.6,-1.9,8.2,-4.8,8.2,-7.1Zm-11.1,16.4c-.4,0,-.7,.3,-.9,.6l-8.2,1.8c-.4,.1,-.6,.3,-.8,.6l-2.2,5.1l-2.2,-5.1c-.1,-.3,-.4,-.5,-.7,-.6l-8.2,-1.8c-.2,-.3,-.6,-.6,-1,-.6c-1,0,-2.6,-3.2,-2.6,-4.7c0,-2.1,.6,-2.6,1.2,-2.9c.4,-.2,.6,-.6,.6,-1c.7,.2,1.4,.3,2.1,.5c-.5,.5,-.8,1.2,-.8,2v1.1c0,2.3,1.9,4.2,4.3,4.2h1c2.9,0,5.3,-2.4,5.3,-5.3v-.8c.1,-.1,.4,-.2,1,-.2h.1c.6,0,.9,.1,1,.2v.8c0,2.9,2.4,5.3,5.3,5.3h1c2.3,0,4.2,-1.9,4.2,-4.2V109c0,-.8,-.3,-1.5,-.7,-2c.7,-.2,1.4,-.3,2,-.5c0,.4,.3,.8,.6,1c.7,.3,1.3,.8,1.3,2.9c0,1.5,-1.6,4.7,-2.7,4.7Z" class="g1_402"/>
<path d="M580.1,323.4c-5.8,0,-10.4,4.7,-10.4,10.4c0,4.2,2.5,7.9,6.3,9.6v20.8l4.1,3.4l4.1,-3.4v-4.3l-1,-1l1,-1v-2.5l-1.3,-1.5l1.3,-1.5v-3.1l-.7,-.6l.7,-.6v-4.7c3.7,-1.7,6.2,-5.4,6.2,-9.6c0,-5.7,-4.6,-10.4,-10.3,-10.4Zm0,8.9c-1.4,0,-2.4,-1.1,-2.4,-2.4c0,-1.3,1,-2.4,2.4,-2.4c1.3,0,2.4,1.1,2.4,2.4c0,1.3,-1.1,2.4,-2.4,2.4Z" class="ga_402"/>
<path d="M590.4,333.8c0,4.2,-2.5,7.9,-6.2,9.6v4.7l-.7,.6l.7,.6v3.1l-1.3,1.5l1.3,1.5v2.4l-1,1.1l1,1v4.3l-4.1,3.4V332.3c1.3,0,2.4,-1.1,2.4,-2.4c0,-1.3,-1.1,-2.4,-2.4,-2.4v-4.1c5.7,0,10.3,4.7,10.3,10.4Z" class="gb_402"/>
<path d="M586.6,214.5H573.1c-1.8,0,-3.3,1.4,-3.3,3.2v8.6c0,1.8,1.5,3.3,3.3,3.3h3.1v21.5l3.6,3l3.7,-3v-3.9l-.9,-.9l.9,-.9v-2.3l-1.1,-1.3l1.1,-1.3v-2.8l-.6,-.6l.6,-.5v-7h3.1c1.8,0,3.3,-1.5,3.3,-3.3v-8.6c0,-1.8,-1.5,-3.2,-3.3,-3.2Zm-3.1,6.1h-7.3v-2.4h7.3Z" class="gc_402"/>
<path d="M589.9,217.7v8.6c0,1.8,-1.5,3.3,-3.3,3.3h-3.1v7l-.6,.5l.6,.6v2.8l-1.1,1.3l1.1,1.3v2.3l-.9,.9l.9,.9v3.9l-3.7,3V220.6h3.7v-2.4h-3.7v-3.7h6.8c1.8,0,3.3,1.4,3.3,3.2Z" class="gd_402"/>
<path d="M586.6,214.5H573.1c-1.8,0,-3.3,1.4,-3.3,3.2v8.6c0,1.8,1.5,3.3,3.3,3.3h13.5c1.8,0,3.3,-1.5,3.3,-3.3v-8.6c0,-1.8,-1.5,-3.2,-3.3,-3.2Zm-3.1,6.1h-7.3v-2.4h7.3Z" class="ge_402"/>
<path d="M589.9,217.7v8.6c0,1.8,-1.5,3.3,-3.3,3.3h-6.8v-9h3.7v-2.4h-3.7v-3.7h6.8c1.8,0,3.3,1.4,3.3,3.2Z" class="gf_402"/>
<path d="M382.3,92.5H368.8c-1.8,0,-3.3,1.4,-3.3,3.2v8.6c0,1.8,1.5,3.3,3.3,3.3h3.1v21.5l3.6,3l3.7,-3v-3.9l-.9,-.9l.9,-.9v-2.3l-1.1,-1.3l1.1,-1.3v-2.8l-.6,-.6l.6,-.5v-7h3.1c1.8,0,3.3,-1.5,3.3,-3.3V95.7c0,-1.8,-1.5,-3.2,-3.3,-3.2Zm-3.1,6.1h-7.3V96.3h7.3Z" class="gc_402"/>
<path d="M385.6,95.7v8.6c0,1.8,-1.5,3.3,-3.3,3.3h-3.1v7l-.6,.5l.6,.6v2.8l-1.1,1.3l1.1,1.3v2.3l-.9,.9l.9,.9v3.9l-3.7,3V98.6h3.7V96.3h-3.7V92.5h6.8c1.8,0,3.3,1.4,3.3,3.2Z" class="gd_402"/>
<path d="M382.3,92.5H368.8c-1.8,0,-3.3,1.4,-3.3,3.2v8.6c0,1.8,1.5,3.3,3.3,3.3h13.5c1.8,0,3.3,-1.5,3.3,-3.3V95.7c0,-1.8,-1.5,-3.2,-3.3,-3.2Zm-3.1,6.1h-7.3V96.3h7.3Z" class="ge_402"/>
<path d="M385.6,95.7v8.6c0,1.8,-1.5,3.3,-3.3,3.3h-6.8v-9h3.7V96.3h-3.7V92.5h6.8c1.8,0,3.3,1.4,3.3,3.2Z" class="gf_402"/>
<path d="M552.4,138c0,13.4,5.3,20.7,11.1,29.2c5.8,8.5,12.1,18.1,14.4,36.2l.4,-.1C576.1,185.2,569.7,175.4,563.9,167c-5.8,-8.5,-11,-15.7,-11,-29h-.5Z" class="g1_402"/>
<path d="M575.1,202.9l3.4,4.6l2.3,-5.3l-5.7,.7Z" class="g1_402"/>
</svg>