<?xml version="1.0" encoding="UTF-8" standalone="no"?>
<!DOCTYPE svg PUBLIC "-//W3C//DTD SVG 1.1//EN"
"http://www.w3.org/Graphics/SVG/1.1/DTD/svg11.dtd">
<svg viewBox="0 0 907 1045" version="1.1" xmlns="http://www.w3.org/2000/svg" xmlns:xlink="http://www.w3.org/1999/xlink">
<defs>
<clipPath id="c0_15"><path d="M193.8,693.9V511.3h145V693.9Z"/></clipPath>
<clipPath id="c1_15"><path d="M-36.1,1058.8V-41.1H926.4V1058.8Z"/></clipPath>
<style type="text/css"><![CDATA[
.g0_15{
fill: #FFFFFF;
}
.g1_15{
fill: none;
stroke: #000000;
stroke-width: 1.527;
stroke-linecap: butt;
stroke-linejoin: miter;
stroke-miterlimit: 4;
}
.g2_15{
fill: none;
stroke: #000000;
stroke-width: 1.222;
stroke-linecap: butt;
stroke-linejoin: miter;
stroke-miterlimit: 4;
}
.g3_15{
fill: none;
stroke: #FFFFFF;
stroke-width: 1.909;
stroke-linecap: butt;
stroke-linejoin: miter;
}
.g4_15{
fill: none;
stroke: #000000;
stroke-width: 0.381;
stroke-linecap: butt;
stroke-linejoin: miter;
}
]]></style>
</defs>
<image clip-path="url(#c0_15)" preserveAspectRatio="none" x="194" y="511" width="145" height="183" xlink:href="img/1.jpg"/>
<path d="M253,488.1c-2.7,.8,-2.2,3.9,-1.8,6.1c4.2,2,8.2,1.9,10.1,-2.7C259.5,490,254.5,485,253,489.1Z" class="g0_15"/>
<path d="M253,488.1c-2.7,.8,-2.2,3.9,-1.8,6.1c4.2,2,8.2,1.9,10.1,-2.7C259.5,490,254.5,485,253,489.1" class="g1_15"/>
<path d="M262.7,501.2c-3.9,-1.2,-3.2,3.4,-2.8,5.8c2.6,-.5,5.1,5,6.6,-.1c.9,-3.4,-2.6,-6.3,-5.7,-5.7Z" class="g0_15"/>
<path d="M262.7,501.2c-3.9,-1.2,-3.2,3.4,-2.8,5.8c2.6,-.5,5.1,5,6.6,-.1c.9,-3.4,-2.6,-6.3,-5.7,-5.7" class="g1_15"/>
<path d="M142.2,402.9c-5.5,-1.2,-8.6,8.5,-8.9,11.8c-.4,4.2,1.9,7.1,4.9,10.1c2.1,2,4.2,2.1,6.4,3.6c-2.1,4.1,-3.4,6.9,-1.4,12c2.5,6.3,11.4,17.2,18.2,20.6c2.3,1.2,5.9,.2,7.5,2.2c1.3,1.8,.9,4.4,2.2,6.4c3.9,5.5,12,8.9,18.8,9.5c4.8,.5,17.7,.6,20.7,-5c1.6,1,2.8,3.2,4.4,4.5c6.8,6.1,13.9,6.7,23.4,7.9c8.3,1,13.9,-.6,20.7,-5.2c2.4,-1.6,6.5,-3.6,7.6,-6.3c8.6,7.4,23.5,4.3,33.2,.7c9.3,-3.4,17.7,-8.6,16.8,-18.5c1.2,3.5,11.4,-2.6,12.9,-3.4c5,-2.8,7.6,-5.5,10.6,-9.8c2.5,-3.7,5.1,-6.7,4.8,-11.3c.3,-2,-.2,-3.8,-1.6,-5.3c-1.2,-1.5,-6,-3.3,-6.2,-5.4c3.4,-2,6.1,-3.4,8.2,-6.7c3.8,-5.9,2.7,-14.3,0,-20.4c-4.9,-10.9,-18.8,-15,-30.8,-14.4c3.3,-1.3,6.8,-3.5,6.3,-7.1c-.4,-2.4,-5.2,-6.2,-6.9,-7.6c-3.8,-3.2,-5,-2.8,-10.8,-3.5c-15,-2,-27.6,-2.9,-42.1,1c-6.4,1.8,-19.2,5,-20,12.7c1.4,-4.3,-3.8,-8.4,-7.5,-10.3c-9.1,-4.4,-18.7,-4.1,-28.6,-2.9c-7,.8,-29.1,5.2,-24.4,15.7c-6.3,-6.7,-20.8,-.5,-26.8,4c-1.8,1.4,-18.9,19.9,-11.6,21.1Z" class="g0_15"/>
<path d="M142.2,402.9c-5.5,-1.2,-8.6,8.5,-8.9,11.8c-.4,4.2,1.9,7.1,4.9,10.1c2.1,2,4.2,2.1,6.4,3.6c-2.1,4.1,-3.4,6.9,-1.4,12c2.5,6.3,11.4,17.2,18.2,20.6c2.3,1.2,5.9,.2,7.5,2.2c1.3,1.8,.9,4.4,2.2,6.4c3.9,5.5,12,8.9,18.8,9.5c4.8,.5,17.7,.6,20.7,-5c1.6,1,2.8,3.2,4.4,4.5c6.8,6.1,13.9,6.7,23.4,7.9c8.3,1,13.9,-.6,20.7,-5.2c2.4,-1.6,6.5,-3.6,7.6,-6.3c8.6,7.4,23.5,4.3,33.2,.7c9.3,-3.4,17.7,-8.6,16.8,-18.5c1.2,3.5,11.4,-2.6,12.9,-3.4c5,-2.8,7.6,-5.5,10.6,-9.8c2.5,-3.7,5.1,-6.7,4.8,-11.3c.3,-2,-.2,-3.8,-1.6,-5.3c-1.2,-1.5,-6,-3.3,-6.2,-5.4c3.4,-2,6.1,-3.4,8.2,-6.7c3.8,-5.9,2.7,-14.3,0,-20.4c-4.9,-10.9,-18.8,-15,-30.8,-14.4c3.3,-1.3,6.8,-3.5,6.3,-7.1c-.4,-2.4,-5.2,-6.2,-6.9,-7.6c-3.8,-3.2,-5,-2.8,-10.8,-3.5c-15,-2,-27.6,-2.9,-42.1,1c-6.4,1.8,-19.2,5,-20,12.7c1.4,-4.3,-3.8,-8.4,-7.5,-10.3c-9.1,-4.4,-18.7,-4.1,-28.6,-2.9c-7,.8,-29.1,5.2,-24.4,15.7c-6.3,-6.7,-20.8,-.5,-26.8,4c-1.8,1.4,-18.9,19.9,-11.6,21.1" class="g2_15"/>
<g clip-path="url(#c1_15)">
<path d="M-13.1,0h-23M903.4,0h23M-13.1,1017.5h-23m939.5,0h23M5.1,-18.2V-41.1m0,1076.9v23m880,-1077V-41.1m0,1076.9v23" class="g3_15"/>
<path d="M-13.1,0h-23M903.4,0h23M-13.1,1017.5h-23m939.5,0h23M5.1,-18.2V-41.1m0,1076.9v23m880,-1077V-41.1m0,1076.9v23" class="g4_15"/>
</g>
</svg>