<?xml version="1.0" encoding="UTF-8" standalone="no"?>
<!DOCTYPE svg PUBLIC "-//W3C//DTD SVG 1.1//EN"
"http://www.w3.org/Graphics/SVG/1.1/DTD/svg11.dtd">
<svg viewBox="0 0 907 1045" version="1.1" xmlns="http://www.w3.org/2000/svg" xmlns:xlink="http://www.w3.org/1999/xlink">
<defs>
<clipPath id="c0_416"><path d="M122.8,953.3v-751H790.6v751Z"/></clipPath>
<clipPath id="c1_416"><path d="M90.7,193.8V105.4H191.9v88.4Z"/></clipPath>
<clipPath id="c2_416"><path d="M-2.6,1047.7V-2.6H910.2V1047.7Z"/></clipPath>
<style type="text/css"><![CDATA[
.g0_416{
fill: #FFFFFF;
}
.g1_416{
fill: none;
stroke: #5E5E5E;
stroke-width: 1.237;
stroke-linecap: butt;
stroke-linejoin: miter;
}
.g2_416{
fill: #5E5E5E;
}
.g3_416{
fill: none;
stroke: #000000;
stroke-width: 1.489;
stroke-linecap: butt;
stroke-linejoin: miter;
stroke-miterlimit: 4;
}
.g4_416{
fill: none;
stroke: #FFFFFF;
stroke-width: 1.909;
stroke-linecap: butt;
stroke-linejoin: miter;
}
.g5_416{
fill: none;
stroke: #000000;
stroke-width: 0.381;
stroke-linecap: butt;
stroke-linejoin: miter;
}
]]></style>
</defs>
<path d="M148.8,202.3h24.7v24.8H148.8Z" class="g0_416"/>
<path d="M149.4,202.9h24.7v24.7H149.4Z" class="g1_416"/>
<path clip-path="url(#c0_416)" d="M173.5,202.3h24.8v24.8H173.5Z" class="g0_416"/>
<path d="M174.1,202.9h24.8v24.8H174.1Z" class="g1_416"/>
<path clip-path="url(#c0_416)" d="M198.3,202.3H223v24.8H198.3Z" class="g0_416"/>
<path d="M198.9,202.9h24.8v24.8H198.9Z" class="g1_416"/>
<path clip-path="url(#c0_416)" d="M223,202.3h24.8v24.8H223Z" class="g0_416"/>
<path d="M223.7,202.9h24.7v24.8H223.7Z" class="g1_416"/>
<path clip-path="url(#c0_416)" d="M247.8,202.3h24.8v24.8H247.8Z" class="g0_416"/>
<path d="M248.4,202.9h24.8v24.8H248.4Z" class="g1_416"/>
<path clip-path="url(#c0_416)" d="M272.6,202.3h24.7v24.8H272.6Z" class="g0_416"/>
<path d="M273.2,202.9h24.7v24.8H273.2Z" class="g1_416"/>
<path clip-path="url(#c0_416)" d="M297.3,202.3h24.8v24.8H297.3Z" class="g0_416"/>
<path d="M297.9,202.9h24.8v24.8H297.9Z" class="g1_416"/>
<path clip-path="url(#c0_416)" d="M322.1,202.3h24.7v24.8H322.1Z" class="g0_416"/>
<path d="M322.7,202.9h24.7v24.8H322.7Z" class="g1_416"/>
<path clip-path="url(#c0_416)" d="M346.8,202.3h24.8v24.8H346.8Z" class="g0_416"/>
<path d="M347.4,202.9h24.8v24.8H347.4Z" class="g1_416"/>
<g clip-path="url(#c0_416)">
<path d="M371.6,202.3h26v26h-26Z" class="g2_416"/>
<path d="M396.3,202.3h26v26h-26Z" class="g2_416"/>
<path d="M421.1,202.3h26v26h-26Z" class="g2_416"/>
<path d="M445.9,202.3h26v26h-26Z" class="g2_416"/>
<path d="M470.6,202.3h26v26h-26Z" class="g2_416"/>
<path d="M495.4,202.3h26v26h-26Z" class="g2_416"/>
<path d="M520.1,202.3h26v26h-26Z" class="g2_416"/>
<path d="M544.9,202.3h24.8v24.8H544.9Z" class="g0_416"/>
</g>
<path d="M545.5,202.9h24.8v24.8H545.5Z" class="g1_416"/>
<g clip-path="url(#c0_416)">
<path d="M569.7,202.3h25.9v26H569.7Z" class="g2_416"/>
<path d="M594.4,202.3h26v26h-26Z" class="g2_416"/>
<path d="M619.2,202.3h26v26h-26Z" class="g2_416"/>
<path d="M643.9,202.3h26v26h-26Z" class="g2_416"/>
<path d="M668.7,202.3h26v26h-26Z" class="g2_416"/>
<path d="M693.4,202.3h26v26h-26Z" class="g2_416"/>
<path d="M718.2,202.3h26v26h-26Z" class="g2_416"/>
<path d="M743,202.3h26v26H743Z" class="g2_416"/>
</g>
<path d="M148.8,227h24.7v24.8H148.8Z" class="g0_416"/>
<path d="M149.4,227.7h24.7v24.7H149.4Z" class="g1_416"/>
<path d="M173.5,227h26v26h-26Z" class="g2_416"/>
<path d="M198.3,227h26v26h-26Z" class="g2_416"/>
<path d="M223,227h26v26H223Z" class="g2_416"/>
<path d="M247.8,227h26v26h-26Z" class="g2_416"/>
<path d="M272.6,227h25.9v26H272.6Z" class="g2_416"/>
<path d="M297.3,227h26v26h-26Z" class="g2_416"/>
<path d="M322.1,227h26v26h-26Z" class="g2_416"/>
<path d="M346.8,227h26v26h-26Z" class="g2_416"/>
<path d="M371.6,227h26v26h-26Z" class="g2_416"/>
<path d="M396.3,227h26v26h-26Z" class="g2_416"/>
<path d="M421.1,227h26v26h-26Z" class="g2_416"/>
<path d="M445.9,227h26v26h-26Z" class="g2_416"/>
<path d="M470.6,227h26v26h-26Z" class="g2_416"/>
<path d="M495.4,227h26v26h-26Z" class="g2_416"/>
<path d="M520.1,227h24.8v24.8H520.1Z" class="g0_416"/>
<path d="M520.8,227.7h24.7v24.7H520.8Z" class="g1_416"/>
<path d="M544.9,227.1h24.7v24.7H544.9Z" class="g0_416"/>
<path d="M545.5,227.7h24.8v24.7H545.5Z" class="g1_416"/>
<path d="M569.6,227.1h24.8v24.7H569.6Z" class="g0_416"/>
<path d="M570.3,227.7H595v24.7H570.3Z" class="g1_416"/>
<path d="M594.4,227.1h24.8v24.7H594.4Z" class="g0_416"/>
<path d="M595,227.7h24.8v24.7H595Z" class="g1_416"/>
<path d="M619.2,227.1h24.7v24.7H619.2Z" class="g0_416"/>
<path d="M619.8,227.7h24.7v24.7H619.8Z" class="g1_416"/>
<path d="M643.9,227.1h24.8v24.7H643.9Z" class="g0_416"/>
<path d="M644.5,227.7h24.8v24.7H644.5Z" class="g1_416"/>
<path d="M668.7,227.1h24.7v24.7H668.7Z" class="g0_416"/>
<path d="M669.3,227.7h24.8v24.7H669.3Z" class="g1_416"/>
<path d="M693.4,227.1h24.8v24.7H693.4Z" class="g0_416"/>
<path d="M694.1,227.7h24.7v24.7H694.1Z" class="g1_416"/>
<path d="M718.2,227.1h24.7v24.7H718.2Z" class="g0_416"/>
<path d="M718.8,227.7h24.8v24.7H718.8Z" class="g1_416"/>
<path d="M742.9,227.1h26v26h-26Z" class="g2_416"/>
<path d="M148.8,251.8h24.7v24.8H148.8Z" class="g0_416"/>
<path d="M149.4,252.4h24.7v24.8H149.4Z" class="g1_416"/>
<path d="M173.5,251.8h26v26h-26Z" class="g2_416"/>
<path d="M198.3,251.8H223v24.8H198.3Z" class="g0_416"/>
<path d="M198.9,252.4h24.8v24.8H198.9Z" class="g1_416"/>
<path d="M223,251.8h24.8v24.8H223Z" class="g0_416"/>
<path d="M223.7,252.4h24.7v24.8H223.7Z" class="g1_416"/>
<path d="M247.8,251.8h24.7v24.8H247.8Z" class="g0_416"/>
<path d="M248.4,252.4h24.8v24.8H248.4Z" class="g1_416"/>
<path d="M272.5,251.8h24.8v24.8H272.5Z" class="g0_416"/>
<path d="M273.2,252.4h24.7v24.8H273.2Z" class="g1_416"/>
<path d="M297.3,251.8h24.8v24.8H297.3Z" class="g0_416"/>
<path d="M297.9,252.4h24.8v24.8H297.9Z" class="g1_416"/>
<path d="M322.1,251.8h24.7v24.8H322.1Z" class="g0_416"/>
<path d="M322.7,252.4h24.7v24.8H322.7Z" class="g1_416"/>
<path d="M346.8,251.8h24.8v24.8H346.8Z" class="g0_416"/>
<path d="M347.4,252.4h24.8v24.8H347.4Z" class="g1_416"/>
<path d="M371.6,251.8h24.7v24.8H371.6Z" class="g0_416"/>
<path d="M372.2,252.4H397v24.8H372.2Z" class="g1_416"/>
<path d="M396.3,251.8h24.8v24.8H396.3Z" class="g0_416"/>
<path d="M397,252.4h24.7v24.8H397Z" class="g1_416"/>
<path d="M421.1,251.8h26v26h-26Z" class="g2_416"/>
<path d="M445.9,251.8h25.9v26H445.9Z" class="g2_416"/>
<path d="M470.6,251.8h26v26h-26Z" class="g2_416"/>
<path d="M495.4,251.8h26v26h-26Z" class="g2_416"/>
<path d="M520.1,251.8h26v26h-26Z" class="g2_416"/>
<path d="M544.9,251.8h24.7v24.8H544.9Z" class="g0_416"/>
<path d="M545.5,252.4h24.8v24.8H545.5Z" class="g1_416"/>
<path d="M569.6,251.8h26v26h-26Z" class="g2_416"/>
<path d="M594.4,251.8h24.8v24.8H594.4Z" class="g0_416"/>
<path d="M595,252.4h24.8v24.8H595Z" class="g1_416"/>
<path d="M619.2,251.8h26v26h-26Z" class="g2_416"/>
<path d="M643.9,251.8h26v26h-26Z" class="g2_416"/>
<path d="M668.7,251.8h26v26h-26Z" class="g2_416"/>
<path d="M693.4,251.8h26v26h-26Z" class="g2_416"/>
<path d="M718.2,251.8h26v26h-26Z" class="g2_416"/>
<path d="M742.9,251.8h26v26h-26Z" class="g2_416"/>
<path d="M148.8,276.6h24.7v24.7H148.8Z" class="g0_416"/>
<path d="M149.4,277.2h24.7V302H149.4Z" class="g1_416"/>
<path d="M173.5,276.6h26v26h-26Z" class="g2_416"/>
<path d="M198.3,276.6H223v24.7H198.3Z" class="g0_416"/>
<path d="M198.9,277.2h24.8V302H198.9Z" class="g1_416"/>
<path d="M223,276.6h26v26H223Z" class="g2_416"/>
<path d="M247.8,276.6h26v26h-26Z" class="g2_416"/>
<path d="M272.5,276.6h26v26h-26Z" class="g2_416"/>
<path d="M297.3,276.6h26v26h-26Z" class="g2_416"/>
<path d="M322.1,276.6h26v26h-26Z" class="g2_416"/>
<path d="M346.8,276.6h26v26h-26Z" class="g2_416"/>
<path d="M371.6,276.6h26v26h-26Z" class="g2_416"/>
<path d="M396.3,276.6h26v26h-26Z" class="g2_416"/>
<path d="M421.1,276.6h26v26h-26Z" class="g2_416"/>
<path d="M445.9,276.6h25.9v26H445.9Z" class="g2_416"/>
<path d="M470.6,276.6h26v26h-26Z" class="g2_416"/>
<path d="M495.4,276.6h26v26h-26Z" class="g2_416"/>
<path d="M520.1,276.6h24.8v24.7H520.1Z" class="g0_416"/>
<path d="M520.7,277.2h24.8V302H520.7Z" class="g1_416"/>
<path d="M544.9,276.6h24.7v24.8H544.9Z" class="g0_416"/>
<path d="M545.5,277.2h24.7V302H545.5Z" class="g1_416"/>
<path d="M569.6,276.6h24.8v24.8H569.6Z" class="g0_416"/>
<path d="M570.2,277.2H595V302H570.2Z" class="g1_416"/>
<path d="M594.4,276.6h24.7v24.8H594.4Z" class="g0_416"/>
<path d="M595,277.2h24.8V302H595Z" class="g1_416"/>
<path d="M619.1,276.6h24.8v24.8H619.1Z" class="g0_416"/>
<path d="M619.8,277.2h24.7V302H619.8Z" class="g1_416"/>
<path d="M643.9,276.6h24.8v24.8H643.9Z" class="g0_416"/>
<path d="M644.5,277.2h24.8V302H644.5Z" class="g1_416"/>
<path d="M668.7,276.6h24.7v24.8H668.7Z" class="g0_416"/>
<path d="M669.3,277.2H694V302H669.3Z" class="g1_416"/>
<path d="M693.4,276.6h24.8v24.8H693.4Z" class="g0_416"/>
<path d="M694,277.2h24.8V302H694Z" class="g1_416"/>
<path d="M718.2,276.6h26v26h-26Z" class="g2_416"/>
<path d="M742.9,276.6h26v26h-26Z" class="g2_416"/>
<path d="M148.8,301.3h24.7v24.8H148.8Z" class="g0_416"/>
<path d="M149.4,302h24.7v24.7H149.4Z" class="g1_416"/>
<path d="M173.5,301.3h26v26h-26Z" class="g2_416"/>
<path d="M198.3,301.3H223v24.8H198.3Z" class="g0_416"/>
<path d="M198.9,302h24.8v24.7H198.9Z" class="g1_416"/>
<path d="M223,301.3h26v26H223Z" class="g2_416"/>
<path d="M247.8,301.3h26v26h-26Z" class="g2_416"/>
<path d="M272.5,301.3h26v26h-26Z" class="g2_416"/>
<path d="M297.3,301.3h24.8v24.8H297.3Z" class="g0_416"/>
<path d="M297.9,302h24.8v24.7H297.9Z" class="g1_416"/>
<path d="M322.1,301.3h26v26h-26Z" class="g2_416"/>
<path d="M346.8,301.3h26v26h-26Z" class="g2_416"/>
<path d="M371.6,301.3h26v26h-26Z" class="g2_416"/>
<path d="M396.3,301.3h26v26h-26Z" class="g2_416"/>
<path d="M421.1,301.3h24.8v24.8H421.1Z" class="g0_416"/>
<path d="M421.7,302h24.8v24.7H421.7Z" class="g1_416"/>
<path d="M445.8,301.4h26v26h-26Z" class="g2_416"/>
<path d="M470.6,301.4h26v26h-26Z" class="g2_416"/>
<path d="M495.4,301.4h25.9v26H495.4Z" class="g2_416"/>
<path d="M520.1,301.4h26v26h-26Z" class="g2_416"/>
<path d="M544.9,301.4h24.7v24.7H544.9Z" class="g0_416"/>
<path d="M545.5,302h24.7v24.7H545.5Z" class="g1_416"/>
<path d="M569.6,301.4h26v26h-26Z" class="g2_416"/>
<path d="M594.4,301.4h24.7v24.7H594.4Z" class="g0_416"/>
<path d="M595,302h24.8v24.7H595Z" class="g1_416"/>
<path d="M619.1,301.4h26v26h-26Z" class="g2_416"/>
<path d="M643.9,301.4h26v26h-26Z" class="g2_416"/>
<path d="M668.7,301.4h25.9v26H668.7Z" class="g2_416"/>
<path d="M693.4,301.4h24.8v24.7H693.4Z" class="g0_416"/>
<path d="M694,302h24.8v24.7H694Z" class="g1_416"/>
<path d="M718.2,301.4h26v26h-26Z" class="g2_416"/>
<path d="M742.9,301.4h26v26h-26Z" class="g2_416"/>
<path d="M148.8,326.1h24.7v24.8H148.8Z" class="g0_416"/>
<path d="M149.4,326.7h24.7v24.8H149.4Z" class="g1_416"/>
<path d="M173.5,326.1h26v26h-26Z" class="g2_416"/>
<path d="M198.3,326.1H223v24.8H198.3Z" class="g0_416"/>
<path d="M198.9,326.7h24.7v24.8H198.9Z" class="g1_416"/>
<path d="M223,326.1h26v26H223Z" class="g2_416"/>
<path d="M247.8,326.1h26v26h-26Z" class="g2_416"/>
<path d="M272.5,326.1h24.8v24.8H272.5Z" class="g0_416"/>
<path d="M273.2,326.7h24.7v24.8H273.2Z" class="g1_416"/>
<path d="M297.3,326.1h24.8v24.8H297.3Z" class="g0_416"/>
<path d="M297.9,326.7h24.8v24.8H297.9Z" class="g1_416"/>
<path d="M322.1,326.1h24.7v24.8H322.1Z" class="g0_416"/>
<path d="M322.7,326.7h24.7v24.8H322.7Z" class="g1_416"/>
<path d="M346.8,326.1h24.8v24.8H346.8Z" class="g0_416"/>
<path d="M347.4,326.7h24.8v24.8H347.4Z" class="g1_416"/>
<path d="M371.6,326.1h24.7v24.8H371.6Z" class="g0_416"/>
<path d="M372.2,326.7h24.7v24.8H372.2Z" class="g1_416"/>
<path d="M396.3,326.1h24.8v24.8H396.3Z" class="g0_416"/>
<path d="M396.9,326.7h24.8v24.8H396.9Z" class="g1_416"/>
<path d="M421.1,326.1h24.7v24.8H421.1Z" class="g0_416"/>
<path d="M421.7,326.7h24.8v24.8H421.7Z" class="g1_416"/>
<path d="M445.8,326.1h24.8v24.8H445.8Z" class="g0_416"/>
<path d="M446.5,326.7h24.7v24.8H446.5Z" class="g1_416"/>
<path d="M470.6,326.1h24.8v24.8H470.6Z" class="g0_416"/>
<path d="M471.2,326.7H496v24.8H471.2Z" class="g1_416"/>
<path d="M495.4,326.1h24.7v24.8H495.4Z" class="g0_416"/>
<path d="M496,326.7h24.7v24.8H496Z" class="g1_416"/>
<path d="M520.1,326.1h24.8v24.8H520.1Z" class="g0_416"/>
<path d="M520.7,326.7h24.8v24.8H520.7Z" class="g1_416"/>
<path d="M544.9,326.1h24.7v24.8H544.9Z" class="g0_416"/>
<path d="M545.5,326.7h24.7v24.8H545.5Z" class="g1_416"/>
<path d="M569.6,326.1h26v26h-26Z" class="g2_416"/>
<path d="M594.4,326.1h24.7v24.8H594.4Z" class="g0_416"/>
<path d="M595,326.7h24.8v24.8H595Z" class="g1_416"/>
<path d="M619.1,326.1h26v26h-26Z" class="g2_416"/>
<path d="M643.9,326.1h26v26h-26Z" class="g2_416"/>
<path d="M668.6,326.1h26v26h-26Z" class="g2_416"/>
<path d="M693.4,326.1h24.8v24.8H693.4Z" class="g0_416"/>
<path d="M694,326.7h24.8v24.8H694Z" class="g1_416"/>
<path d="M718.2,326.1h26v26h-26Z" class="g2_416"/>
<path d="M742.9,326.1h26v26h-26Z" class="g2_416"/>
<path d="M148.8,350.9h24.7v24.7H148.8Z" class="g0_416"/>
<path d="M149.4,351.5h24.7v24.7H149.4Z" class="g1_416"/>
<path d="M173.5,350.9h26v26h-26Z" class="g2_416"/>
<path d="M198.3,350.9H223v24.7H198.3Z" class="g0_416"/>
<path d="M198.9,351.5h24.7v24.7H198.9Z" class="g1_416"/>
<path d="M223,350.9h26v26H223Z" class="g2_416"/>
<path d="M247.8,350.9h26v26h-26Z" class="g2_416"/>
<path d="M272.5,350.9h26v26h-26Z" class="g2_416"/>
<path d="M297.3,350.9h24.8v24.7H297.3Z" class="g0_416"/>
<path d="M297.9,351.5h24.8v24.7H297.9Z" class="g1_416"/>
<path d="M322.1,350.9H348v26H322.1Z" class="g2_416"/>
<path d="M346.8,350.9h26v26h-26Z" class="g2_416"/>
<path d="M371.6,350.9h26v26h-26Z" class="g2_416"/>
<path d="M396.3,350.9h26v26h-26Z" class="g2_416"/>
<path d="M421.1,350.9h24.7v24.7H421.1Z" class="g0_416"/>
<path d="M421.7,351.5h24.8v24.7H421.7Z" class="g1_416"/>
<path d="M445.8,350.9h26v26h-26Z" class="g2_416"/>
<path d="M470.6,350.9h26v26h-26Z" class="g2_416"/>
<path d="M495.4,350.9h25.9v26H495.4Z" class="g2_416"/>
<path d="M520.1,350.9h26v26h-26Z" class="g2_416"/>
<path d="M544.9,350.9h24.7v24.7H544.9Z" class="g0_416"/>
<path d="M545.5,351.5h24.7v24.7H545.5Z" class="g1_416"/>
<path d="M569.6,350.9h26v26h-26Z" class="g2_416"/>
<path d="M594.4,350.9h24.7v24.7H594.4Z" class="g0_416"/>
<path d="M595,351.5h24.8v24.7H595Z" class="g1_416"/>
<path d="M619.1,350.9h26v26h-26Z" class="g2_416"/>
<path d="M643.9,350.9h26v26h-26Z" class="g2_416"/>
<path d="M668.6,350.9h26v26h-26Z" class="g2_416"/>
<path d="M693.4,350.9h24.8v24.7H693.4Z" class="g0_416"/>
<path d="M694,351.5h24.8v24.7H694Z" class="g1_416"/>
<path d="M718.2,350.9h26v26h-26Z" class="g2_416"/>
<path d="M742.9,350.9h26v26h-26Z" class="g2_416"/>
<path d="M148.8,375.6h24.7v24.8H148.8Z" class="g0_416"/>
<path d="M149.4,376.2h24.7V401H149.4Z" class="g1_416"/>
<path d="M173.5,375.6h26v26h-26Z" class="g2_416"/>
<path d="M198.3,375.6H223v24.8H198.3Z" class="g0_416"/>
<path d="M198.9,376.2h24.7V401H198.9Z" class="g1_416"/>
<path d="M223,375.6h26v26H223Z" class="g2_416"/>
<path d="M247.8,375.6h24.7v24.8H247.8Z" class="g0_416"/>
<path d="M248.4,376.2h24.8V401H248.4Z" class="g1_416"/>
<path d="M272.5,375.6h26v26h-26Z" class="g2_416"/>
<path d="M297.3,375.6h24.8v24.8H297.3Z" class="g0_416"/>
<path d="M297.9,376.2h24.8V401H297.9Z" class="g1_416"/>
<path d="M322.1,375.6H348v26H322.1Z" class="g2_416"/>
<path d="M346.8,375.6h24.8v24.8H346.8Z" class="g0_416"/>
<path d="M347.4,376.2h24.8V401H347.4Z" class="g1_416"/>
<path d="M371.6,375.6h24.7v24.8H371.6Z" class="g0_416"/>
<path d="M372.2,376.2h24.7V401H372.2Z" class="g1_416"/>
<path d="M396.3,375.6h24.8v24.8H396.3Z" class="g0_416"/>
<path d="M396.9,376.2h24.8V401H396.9Z" class="g1_416"/>
<path d="M421.1,375.6h24.7v24.8H421.1Z" class="g0_416"/>
<path d="M421.7,376.2h24.8V401H421.7Z" class="g1_416"/>
<path d="M445.8,375.6h26v26h-26Z" class="g2_416"/>
<path d="M470.6,375.6h26v26h-26Z" class="g2_416"/>
<path d="M495.4,375.6h25.9v26H495.4Z" class="g2_416"/>
<path d="M520.1,375.6h26v26h-26Z" class="g2_416"/>
<path d="M544.9,375.6h24.7v24.8H544.9Z" class="g0_416"/>
<path d="M545.5,376.2h24.7V401H545.5Z" class="g1_416"/>
<path d="M569.6,375.6h26v26h-26Z" class="g2_416"/>
<path d="M594.4,375.6h24.7v24.8H594.4Z" class="g0_416"/>
<path d="M595,376.2h24.8V401H595Z" class="g1_416"/>
<path d="M619.1,375.6h26v26h-26Z" class="g2_416"/>
<path d="M643.9,375.6h26v26h-26Z" class="g2_416"/>
<path d="M668.6,375.6h26v26h-26Z" class="g2_416"/>
<path d="M693.4,375.6h24.8v24.8H693.4Z" class="g0_416"/>
<path d="M694,376.2h24.8V401H694Z" class="g1_416"/>
<path d="M718.2,375.6h26v26h-26Z" class="g2_416"/>
<path d="M742.9,375.6h26v26h-26Z" class="g2_416"/>
<path d="M148.8,400.4h24.7v24.8H148.8Z" class="g0_416"/>
<path d="M149.4,401h24.7v24.8H149.4Z" class="g1_416"/>
<path d="M173.5,400.4h26v26h-26Z" class="g2_416"/>
<path d="M198.3,400.4H223v24.8H198.3Z" class="g0_416"/>
<path d="M198.9,401h24.7v24.8H198.9Z" class="g1_416"/>
<path d="M223,400.4h26v26H223Z" class="g2_416"/>
<path d="M247.8,400.4h24.7v24.8H247.8Z" class="g0_416"/>
<path d="M248.4,401h24.8v24.8H248.4Z" class="g1_416"/>
<path d="M272.5,400.4h26v26h-26Z" class="g2_416"/>
<path d="M297.3,400.4h24.8v24.8H297.3Z" class="g0_416"/>
<path d="M297.9,401h24.8v24.8H297.9Z" class="g1_416"/>
<path d="M322.1,400.4H348v26H322.1Z" class="g2_416"/>
<path d="M346.8,400.4h26v26h-26Z" class="g2_416"/>
<path d="M371.6,400.4h26v26h-26Z" class="g2_416"/>
<path d="M396.3,400.4h26v26h-26Z" class="g2_416"/>
<path d="M421.1,400.4h26v26h-26Z" class="g2_416"/>
<path d="M445.8,400.4h26v26h-26Z" class="g2_416"/>
<path d="M470.6,400.4h26v26h-26Z" class="g2_416"/>
<path d="M495.4,400.4h25.9v26H495.4Z" class="g2_416"/>
<path d="M520.1,400.4h26v26h-26Z" class="g2_416"/>
<path d="M544.9,400.4h26v26h-26Z" class="g2_416"/>
<path d="M569.6,400.4h26v26h-26Z" class="g2_416"/>
<path d="M594.4,400.4h24.7v24.8H594.4Z" class="g0_416"/>
<path d="M595,401h24.8v24.8H595Z" class="g1_416"/>
<path d="M619.1,400.4h26v26h-26Z" class="g2_416"/>
<path d="M643.9,400.4h26v26h-26Z" class="g2_416"/>
<path d="M668.6,400.4h26v26h-26Z" class="g2_416"/>
<path d="M693.4,400.4h24.8v24.8H693.4Z" class="g0_416"/>
<path d="M694,401h24.8v24.8H694Z" class="g1_416"/>
<path d="M718.2,400.4h26v26h-26Z" class="g2_416"/>
<path d="M742.9,400.4h26v26h-26Z" class="g2_416"/>
<path d="M148.8,425.2h24.7v24.7H148.8Z" class="g0_416"/>
<path d="M149.4,425.8h24.7v24.7H149.4Z" class="g1_416"/>
<path d="M173.5,425.2h24.8v24.7H173.5Z" class="g0_416"/>
<path d="M174.1,425.8h24.8v24.7H174.1Z" class="g1_416"/>
<path d="M198.3,425.2H223v24.7H198.3Z" class="g0_416"/>
<path d="M198.9,425.8h24.7v24.7H198.9Z" class="g1_416"/>
<path d="M223,425.2h24.8v24.7H223Z" class="g0_416"/>
<path d="M223.6,425.8h24.8v24.7H223.6Z" class="g1_416"/>
<path d="M247.8,425.2h24.7v24.7H247.8Z" class="g0_416"/>
<path d="M248.4,425.8h24.8v24.7H248.4Z" class="g1_416"/>
<path d="M272.5,425.2h24.8v24.7H272.5Z" class="g0_416"/>
<path d="M273.2,425.8h24.7v24.7H273.2Z" class="g1_416"/>
<path d="M297.3,425.2H322v24.7H297.3Z" class="g0_416"/>
<path d="M297.9,425.8h24.8v24.7H297.9Z" class="g1_416"/>
<path d="M322,425.2h24.8v24.7H322Z" class="g0_416"/>
<path d="M322.7,425.8h24.7v24.7H322.7Z" class="g1_416"/>
<path d="M346.8,425.2h24.8v24.7H346.8Z" class="g0_416"/>
<path d="M347.4,425.8h24.8v24.7H347.4Z" class="g1_416"/>
<path d="M371.6,425.2h24.7v24.7H371.6Z" class="g0_416"/>
<path d="M372.2,425.8h24.7v24.7H372.2Z" class="g1_416"/>
<path d="M396.3,425.2h24.8v24.7H396.3Z" class="g0_416"/>
<path d="M396.9,425.8h24.8v24.7H396.9Z" class="g1_416"/>
<path d="M421.1,425.2h24.7v24.7H421.1Z" class="g0_416"/>
<path d="M421.7,425.8h24.7v24.7H421.7Z" class="g1_416"/>
<path d="M445.8,425.2h24.8v24.7H445.8Z" class="g0_416"/>
<path d="M446.4,425.8h24.8v24.7H446.4Z" class="g1_416"/>
<path d="M470.6,425.2h24.7v24.7H470.6Z" class="g0_416"/>
<path d="M471.2,425.8H496v24.7H471.2Z" class="g1_416"/>
<path d="M495.3,425.2h24.8v24.7H495.3Z" class="g0_416"/>
<path d="M496,425.8h24.7v24.7H496Z" class="g1_416"/>
<path d="M520.1,425.2h24.8v24.7H520.1Z" class="g0_416"/>
<path d="M520.7,425.8h24.8v24.7H520.7Z" class="g1_416"/>
<path d="M544.9,425.2h24.7v24.7H544.9Z" class="g0_416"/>
<path d="M545.5,425.8h24.7v24.7H545.5Z" class="g1_416"/>
<path d="M569.6,425.2h24.8v24.7H569.6Z" class="g0_416"/>
<path d="M570.2,425.8H595v24.7H570.2Z" class="g1_416"/>
<path d="M594.4,425.2h24.7v24.7H594.4Z" class="g0_416"/>
<path d="M595,425.8h24.7v24.7H595Z" class="g1_416"/>
<path d="M619.1,425.2h24.8v24.7H619.1Z" class="g0_416"/>
<path d="M619.7,425.8h24.8v24.7H619.7Z" class="g1_416"/>
<path d="M643.9,425.2h26v26h-26Z" class="g2_416"/>
<path d="M668.6,425.2h26v26h-26Z" class="g2_416"/>
<path d="M693.4,425.2h24.7v24.7H693.4Z" class="g0_416"/>
<path d="M694,425.8h24.8v24.7H694Z" class="g1_416"/>
<path d="M718.1,425.2h26v26h-26Z" class="g2_416"/>
<path d="M742.9,425.2h26v26h-26Z" class="g2_416"/>
<path d="M148.8,449.9h25.9v26H148.8Z" class="g2_416"/>
<path d="M173.5,449.9h26v26h-26Z" class="g2_416"/>
<path d="M198.3,449.9H223v24.8H198.3Z" class="g0_416"/>
<path d="M198.9,450.5h24.7v24.8H198.9Z" class="g1_416"/>
<path d="M223,449.9h26v26H223Z" class="g2_416"/>
<path d="M247.8,449.9h24.7v24.8H247.8Z" class="g0_416"/>
<path d="M248.4,450.5h24.8v24.8H248.4Z" class="g1_416"/>
<path d="M272.5,449.9h26v26h-26Z" class="g2_416"/>
<path d="M297.3,449.9H322v24.8H297.3Z" class="g0_416"/>
<path d="M297.9,450.5h24.8v24.8H297.9Z" class="g1_416"/>
<path d="M322,449.9h26v26H322Z" class="g2_416"/>
<path d="M346.8,449.9h26v26h-26Z" class="g2_416"/>
<path d="M371.6,449.9h26v26h-26Z" class="g2_416"/>
<path d="M396.3,449.9h26v26h-26Z" class="g2_416"/>
<path d="M421.1,449.9h26v26h-26Z" class="g2_416"/>
<path d="M445.8,449.9h26v26h-26Z" class="g2_416"/>
<path d="M470.6,449.9h26v26h-26Z" class="g2_416"/>
<path d="M495.3,449.9h26v26h-26Z" class="g2_416"/>
<path d="M520.1,449.9h26v26h-26Z" class="g2_416"/>
<path d="M544.9,449.9h25.9v26H544.9Z" class="g2_416"/>
<path d="M569.6,449.9h26v26h-26Z" class="g2_416"/>
<path d="M594.4,449.9h26v26h-26Z" class="g2_416"/>
<path d="M619.1,449.9h26v26h-26Z" class="g2_416"/>
<path d="M643.9,449.9h26v26h-26Z" class="g2_416"/>
<path d="M668.6,449.9h26v26h-26Z" class="g2_416"/>
<path d="M693.4,449.9h24.7v24.8H693.4Z" class="g0_416"/>
<path d="M694,450.5h24.8v24.8H694Z" class="g1_416"/>
<path d="M718.1,449.9h26v26h-26Z" class="g2_416"/>
<path d="M742.9,449.9h26v26h-26Z" class="g2_416"/>
<path d="M148.8,474.7h25.9v26H148.8Z" class="g2_416"/>
<path d="M173.5,474.7h24.8v24.7H173.5Z" class="g0_416"/>
<path d="M174.1,475.3h24.8V500H174.1Z" class="g1_416"/>
<path d="M198.3,474.7H223v24.7H198.3Z" class="g0_416"/>
<path d="M198.9,475.3h24.7V500H198.9Z" class="g1_416"/>
<path d="M223,474.7h24.8v24.7H223Z" class="g0_416"/>
<path d="M223.6,475.3h24.8V500H223.6Z" class="g1_416"/>
<path d="M247.8,474.7h24.7v24.7H247.8Z" class="g0_416"/>
<path d="M248.4,475.3h24.8V500H248.4Z" class="g1_416"/>
<path d="M272.5,474.7h26v26h-26Z" class="g2_416"/>
<path d="M297.3,474.7h24.8v24.7H297.3Z" class="g0_416"/>
<path d="M297.9,475.3h24.8V500H297.9Z" class="g1_416"/>
<path d="M322.1,474.7H348v26H322.1Z" class="g2_416"/>
<path d="M346.8,474.7h26v26h-26Z" class="g2_416"/>
<path d="M371.6,474.7h26v26h-26Z" class="g2_416"/>
<path d="M396.3,474.7h26v26h-26Z" class="g2_416"/>
<path d="M421.1,474.7h26v26h-26Z" class="g2_416"/>
<path d="M445.8,474.7h26v26h-26Z" class="g2_416"/>
<path d="M470.6,474.7h26v26h-26Z" class="g2_416"/>
<path d="M495.3,474.7h26v26h-26Z" class="g2_416"/>
<path d="M520.1,474.7h26v26h-26Z" class="g2_416"/>
<path d="M544.9,474.7h26v26h-26Z" class="g2_416"/>
<path d="M569.6,474.7h26v26h-26Z" class="g2_416"/>
<path d="M594.4,474.7h26v26h-26Z" class="g2_416"/>
<path d="M619.1,474.7h24.8v24.7H619.1Z" class="g0_416"/>
<path d="M619.8,475.3h24.7V500H619.8Z" class="g1_416"/>
<path d="M643.9,474.7h24.7v24.7H643.9Z" class="g0_416"/>
<path d="M644.5,475.3h24.8V500H644.5Z" class="g1_416"/>
<path d="M668.6,474.7h24.8v24.7H668.6Z" class="g0_416"/>
<path d="M669.3,475.3H694V500H669.3Z" class="g1_416"/>
<path d="M693.4,474.7h24.8v24.7H693.4Z" class="g0_416"/>
<path d="M694,475.3h24.8V500H694Z" class="g1_416"/>
<path d="M718.2,474.7h24.7v24.7H718.2Z" class="g0_416"/>
<path d="M718.8,475.3h24.7V500H718.8Z" class="g1_416"/>
<path d="M742.9,474.7h24.8v24.7H742.9Z" class="g0_416"/>
<path d="M743.5,475.3h24.8V500H743.5Z" class="g1_416"/>
<path d="M148.8,499.4h25.9v26H148.8Z" class="g2_416"/>
<path d="M173.5,499.4h26v26h-26Z" class="g2_416"/>
<path d="M198.3,499.4H223v24.8H198.3Z" class="g0_416"/>
<path d="M198.9,500h24.7v24.8H198.9Z" class="g1_416"/>
<path d="M223,499.4h26v26H223Z" class="g2_416"/>
<path d="M247.8,499.4h24.7v24.8H247.8Z" class="g0_416"/>
<path d="M248.4,500h24.8v24.8H248.4Z" class="g1_416"/>
<path d="M272.5,499.4h26v26h-26Z" class="g2_416"/>
<path d="M297.3,499.4h24.8v24.8H297.3Z" class="g0_416"/>
<path d="M297.9,500h24.8v24.8H297.9Z" class="g1_416"/>
<path d="M322.1,499.4H348v26H322.1Z" class="g2_416"/>
<path d="M346.8,499.4h26v26h-26Z" class="g2_416"/>
<path d="M371.6,499.4h26v26h-26Z" class="g2_416"/>
<path d="M396.3,499.4h26v26h-26Z" class="g2_416"/>
<path d="M421.1,499.4h26v26h-26Z" class="g2_416"/>
<path d="M445.8,499.4h26v26h-26Z" class="g2_416"/>
<path d="M470.6,499.4h26v26h-26Z" class="g2_416"/>
<path d="M495.3,499.4h26v26h-26Z" class="g2_416"/>
<path d="M520.1,499.4h26v26h-26Z" class="g2_416"/>
<path d="M544.9,499.4h26v26h-26Z" class="g2_416"/>
<path d="M569.6,499.4h26v26h-26Z" class="g2_416"/>
<path d="M594.4,499.4h26v26h-26Z" class="g2_416"/>
<path d="M619.1,499.4h26v26h-26Z" class="g2_416"/>
<path d="M643.9,499.4h26v26h-26Z" class="g2_416"/>
<path d="M668.6,499.4h26v26h-26Z" class="g2_416"/>
<path d="M693.4,499.4h26v26h-26Z" class="g2_416"/>
<path d="M718.2,499.4h26v26h-26Z" class="g2_416"/>
<path d="M742.9,499.4h26v26h-26Z" class="g2_416"/>
<path d="M148.8,524.2h25.9v26H148.8Z" class="g2_416"/>
<path d="M173.5,524.2h26v26h-26Z" class="g2_416"/>
<path d="M198.3,524.2H223v24.7H198.3Z" class="g0_416"/>
<path d="M198.9,524.8h24.7v24.8H198.9Z" class="g1_416"/>
<path d="M223,524.2h26v26H223Z" class="g2_416"/>
<path d="M247.8,524.2h24.7v24.7H247.8Z" class="g0_416"/>
<path d="M248.4,524.8h24.8v24.8H248.4Z" class="g1_416"/>
<path d="M272.5,524.2h26v26h-26Z" class="g2_416"/>
<path d="M297.3,524.2h24.8v24.7H297.3Z" class="g0_416"/>
<path d="M297.9,524.8h24.8v24.8H297.9Z" class="g1_416"/>
<path d="M322.1,524.2H348v26H322.1Z" class="g2_416"/>
<path d="M346.8,524.2h26v26h-26Z" class="g2_416"/>
<path d="M371.6,524.2h26v26h-26Z" class="g2_416"/>
<path d="M396.3,524.2h26v26h-26Z" class="g2_416"/>
<path d="M421.1,524.2h26v26h-26Z" class="g2_416"/>
<path d="M445.8,524.2h26v26h-26Z" class="g2_416"/>
<path d="M470.6,524.2h26v26h-26Z" class="g2_416"/>
<path d="M495.3,524.2h26v26h-26Z" class="g2_416"/>
<path d="M520.1,524.2h26v26h-26Z" class="g2_416"/>
<path d="M544.9,524.2h26v26h-26Z" class="g2_416"/>
<path d="M569.6,524.2h26v26h-26Z" class="g2_416"/>
<path d="M594.4,524.2h26v26h-26Z" class="g2_416"/>
<path d="M619.1,524.2h26v26h-26Z" class="g2_416"/>
<path d="M643.9,524.2h26v26h-26Z" class="g2_416"/>
<path d="M668.6,524.2h26v26h-26Z" class="g2_416"/>
<path d="M693.4,524.2h26v26h-26Z" class="g2_416"/>
<path d="M718.2,524.2h26v26h-26Z" class="g2_416"/>
<path d="M742.9,524.2h26v26h-26Z" class="g2_416"/>
<path d="M148.8,548.9h25.9v26H148.8Z" class="g2_416"/>
<path d="M173.5,548.9h26v26h-26Z" class="g2_416"/>
<path d="M198.3,548.9H223v24.8H198.3Z" class="g0_416"/>
<path d="M198.9,549.6h24.7v24.7H198.9Z" class="g1_416"/>
<path d="M223,548.9h26v26H223Z" class="g2_416"/>
<path d="M247.8,548.9h24.7v24.8H247.8Z" class="g0_416"/>
<path d="M248.4,549.6h24.8v24.7H248.4Z" class="g1_416"/>
<path d="M272.5,548.9h26v26h-26Z" class="g2_416"/>
<path d="M297.3,548.9h24.8v24.8H297.3Z" class="g0_416"/>
<path d="M297.9,549.6h24.8v24.7H297.9Z" class="g1_416"/>
<path d="M322,548.9h24.8v24.8H322Z" class="g0_416"/>
<path d="M322.7,549.5h24.7v24.8H322.7Z" class="g1_416"/>
<path d="M346.8,548.9h24.8v24.8H346.8Z" class="g0_416"/>
<path d="M347.4,549.5h24.8v24.8H347.4Z" class="g1_416"/>
<path d="M371.6,548.9h24.7v24.8H371.6Z" class="g0_416"/>
<path d="M372.2,549.5h24.7v24.8H372.2Z" class="g1_416"/>
<path d="M396.3,548.9h24.8v24.8H396.3Z" class="g0_416"/>
<path d="M396.9,549.5h24.8v24.8H396.9Z" class="g1_416"/>
<path d="M421.1,548.9h24.7v24.8H421.1Z" class="g0_416"/>
<path d="M421.7,549.5h24.7v24.8H421.7Z" class="g1_416"/>
<path d="M445.8,548.9h24.8v24.8H445.8Z" class="g0_416"/>
<path d="M446.4,549.5h24.8v24.8H446.4Z" class="g1_416"/>
<path d="M470.6,548.9h24.7v24.8H470.6Z" class="g0_416"/>
<path d="M471.2,549.5H496v24.8H471.2Z" class="g1_416"/>
<path d="M495.3,548.9h24.8v24.8H495.3Z" class="g0_416"/>
<path d="M496,549.5h24.7v24.8H496Z" class="g1_416"/>
<path d="M520.1,548.9h26v26h-26Z" class="g2_416"/>
<path d="M544.9,548.9h25.9v26H544.9Z" class="g2_416"/>
<path d="M569.6,548.9h26v26h-26Z" class="g2_416"/>
<path d="M594.4,548.9h26v26h-26Z" class="g2_416"/>
<path d="M619.1,548.9h26v26h-26Z" class="g2_416"/>
<path d="M643.9,548.9h26v26h-26Z" class="g2_416"/>
<path d="M668.6,548.9h26v26h-26Z" class="g2_416"/>
<path d="M693.4,548.9h26v26h-26Z" class="g2_416"/>
<path d="M718.1,548.9h26v26h-26Z" class="g2_416"/>
<path d="M742.9,548.9h26v26h-26Z" class="g2_416"/>
<path d="M148.8,573.7h25.9v26H148.8Z" class="g2_416"/>
<path d="M173.5,573.7h26v26h-26Z" class="g2_416"/>
<path d="M198.3,573.7H223v24.8H198.3Z" class="g0_416"/>
<path d="M198.9,574.3h24.7v24.8H198.9Z" class="g1_416"/>
<path d="M223,573.7h26v26H223Z" class="g2_416"/>
<path d="M247.8,573.7h24.7v24.8H247.8Z" class="g0_416"/>
<path d="M248.4,574.3h24.8v24.8H248.4Z" class="g1_416"/>
<path d="M272.5,573.7h26v26h-26Z" class="g2_416"/>
<path d="M297.3,573.7H322v24.8H297.3Z" class="g0_416"/>
<path d="M297.9,574.3h24.8v24.8H297.9Z" class="g1_416"/>
<path d="M322,573.7h26v26H322Z" class="g2_416"/>
<path d="M346.8,573.7h26v26h-26Z" class="g2_416"/>
<path d="M371.6,573.7h26v26h-26Z" class="g2_416"/>
<path d="M396.3,573.7h26v26h-26Z" class="g2_416"/>
<path d="M421.1,573.7h26v26h-26Z" class="g2_416"/>
<path d="M445.8,573.7h26v26h-26Z" class="g2_416"/>
<path d="M470.6,573.7h26v26h-26Z" class="g2_416"/>
<path d="M495.3,573.7h26v26h-26Z" class="g2_416"/>
<path d="M520.1,573.7h26v26h-26Z" class="g2_416"/>
<path d="M544.9,573.7h25.9v26H544.9Z" class="g2_416"/>
<path d="M569.6,573.7h26v26h-26Z" class="g2_416"/>
<path d="M594.4,573.7h26v26h-26Z" class="g2_416"/>
<path d="M619.1,573.7h26v26h-26Z" class="g2_416"/>
<path d="M643.9,573.7h26v26h-26Z" class="g2_416"/>
<path d="M668.6,573.7h26v26h-26Z" class="g2_416"/>
<path d="M693.4,573.7h26v26h-26Z" class="g2_416"/>
<path d="M718.1,573.7h26v26h-26Z" class="g2_416"/>
<path d="M742.9,573.7h26v26h-26Z" class="g2_416"/>
<path d="M148.8,598.5h25.9v26H148.8Z" class="g2_416"/>
<path d="M173.5,598.5h26v26h-26Z" class="g2_416"/>
<path d="M198.3,598.5h26v26h-26Z" class="g2_416"/>
<path d="M223,598.5h26v26H223Z" class="g2_416"/>
<path d="M247.8,598.5h24.7v24.7H247.8Z" class="g0_416"/>
<path d="M248.4,599.1h24.8v24.7H248.4Z" class="g1_416"/>
<path d="M272.5,598.5h26v26h-26Z" class="g2_416"/>
<path d="M297.3,598.5H322v24.7H297.3Z" class="g0_416"/>
<path d="M297.9,599.1h24.8v24.7H297.9Z" class="g1_416"/>
<path d="M322,598.5h24.8v24.7H322Z" class="g0_416"/>
<path d="M322.7,599.1h24.7v24.7H322.7Z" class="g1_416"/>
<path d="M346.8,598.5h24.8v24.7H346.8Z" class="g0_416"/>
<path d="M347.4,599.1h24.8v24.7H347.4Z" class="g1_416"/>
<path d="M371.6,598.5h24.7v24.7H371.6Z" class="g0_416"/>
<path d="M372.2,599.1h24.7v24.7H372.2Z" class="g1_416"/>
<path d="M396.3,598.5h24.8v24.7H396.3Z" class="g0_416"/>
<path d="M396.9,599.1h24.8v24.7H396.9Z" class="g1_416"/>
<path d="M421.1,598.5h24.7v24.7H421.1Z" class="g0_416"/>
<path d="M421.7,599.1h24.7v24.7H421.7Z" class="g1_416"/>
<path d="M445.8,598.5h24.8v24.7H445.8Z" class="g0_416"/>
<path d="M446.4,599.1h24.8v24.7H446.4Z" class="g1_416"/>
<path d="M470.6,598.5h26v26h-26Z" class="g2_416"/>
<path d="M495.3,598.5h26v26h-26Z" class="g2_416"/>
<path d="M520.1,598.5h26v26h-26Z" class="g2_416"/>
<path d="M544.9,598.5h25.9v26H544.9Z" class="g2_416"/>
<path d="M569.6,598.5h26v26h-26Z" class="g2_416"/>
<path d="M594.4,598.5h26v26h-26Z" class="g2_416"/>
<path d="M619.1,598.5h26v26h-26Z" class="g2_416"/>
<path d="M643.9,598.5h26v26h-26Z" class="g2_416"/>
<path d="M668.6,598.5h26v26h-26Z" class="g2_416"/>
<path d="M693.4,598.5h26v26h-26Z" class="g2_416"/>
<path d="M718.1,598.5h26v26h-26Z" class="g2_416"/>
<path d="M742.9,598.5h26v26h-26Z" class="g2_416"/>
<path d="M149.3,203.5V624.3H768.1V203.5H149.3Z" class="g3_416"/>
<image clip-path="url(#c1_416)" preserveAspectRatio="none" x="67" y="76" width="155" height="155" xlink:href="img/1.jpg"/>
<g clip-path="url(#c2_416)">
<path d="M-4.5,13.7H-27.4m939.5,0H935M-4.5,1031.2H-27.4m939.5,0H935M13.7,-4.5V-27.4m0,1077v22.9m880,-1077V-27.4m0,1077v22.9" class="g4_416"/>
<path d="M-4.5,13.7H-27.4m939.5,0H935M-4.5,1031.2H-27.4m939.5,0H935M13.7,-4.5V-27.4m0,1077v22.9m880,-1077V-27.4m0,1077v22.9" class="g5_416"/>
</g>
</svg>