<?xml version="1.0" encoding="UTF-8" standalone="no"?>
<!DOCTYPE svg PUBLIC "-//W3C//DTD SVG 1.1//EN"
"http://www.w3.org/Graphics/SVG/1.1/DTD/svg11.dtd">
<svg viewBox="0 0 811 1017" version="1.1" xmlns="http://www.w3.org/2000/svg" xmlns:xlink="http://www.w3.org/1999/xlink">
<defs>
<style type="text/css"><![CDATA[
.g0_88{
fill: #E6E6E6;
}
.g1_88{
fill: #476B85;
}
.g2_88{
fill: #F7F5E8;
}
]]></style>
</defs>
<path d="M650.4,136.9c15.5,-4.9,33,-9.4,49.1,-9.4c14.5,0,34.1,5.2,34.1,22.4c0,36.1,-53.3,48.5,-81.5,51.6c-4.8,.6,-17.2,.6,-17.2,7.5c0,3.1,3.1,4.1,5.8,4.1c3.5,0,17.9,-4.1,32.4,-4.1c20.3,0,35.8,9.3,35.8,31.4c0,30.8,-24.1,56.3,-50.3,69.4c-23.4,11.7,-50.5,15.4,-76,17.9l-2.4,8.5c33,0,68.4,-6.1,98.4,-20.6c29.9,-14,61.2,-43,61.2,-78.7c0,-21.3,-12.1,-40.3,-34.8,-40.6v-.7c23.4,-10.3,53.3,-23.7,53.3,-53.2c0,-33.4,-35.7,-40.6,-62.2,-40.6c-13.4,0,-26.8,2.4,-39.5,6.8Z" class="g0_88"/>
<path d="M275.3,232.4H724.4V232H275.3Z" class="g1_88"/>
<path d="M119.4,511.6h386v-113h-386Z" class="g2_88"/>
</svg>