<?xml version="1.0" encoding="UTF-8" standalone="no"?>
<!DOCTYPE svg PUBLIC "-//W3C//DTD SVG 1.1//EN"
"http://www.w3.org/Graphics/SVG/1.1/DTD/svg11.dtd">
<svg viewBox="0 0 907 1045" version="1.1" xmlns="http://www.w3.org/2000/svg" xmlns:xlink="http://www.w3.org/1999/xlink">
<defs>
<clipPath id="c0_82"><path d="M300.8,910.2V647.4H639.1V910.2Z"/></clipPath>
<clipPath id="c1_82"><path d="M-2.6,1047.7V-2.6H910.2V1047.7Z"/></clipPath>
<style type="text/css"><![CDATA[
.g0_82{
}
.g1_82{
fill: none;
stroke: #000000;
stroke-width: 1.527;
stroke-linecap: butt;
stroke-linejoin: miter;
stroke-miterlimit: 4;
}
.g2_82{
fill: #FFFFFF;
}
.g3_82{
fill: none;
stroke: #000000;
stroke-width: 1.145;
stroke-linecap: butt;
stroke-linejoin: miter;
stroke-miterlimit: 4;
}
.g4_82{
fill: none;
stroke: #FFFFFF;
stroke-width: 1.909;
stroke-linecap: butt;
stroke-linejoin: miter;
}
.g5_82{
fill: none;
stroke: #000000;
stroke-width: 0.381;
stroke-linecap: butt;
stroke-linejoin: miter;
}
]]></style>
</defs>
<path d="M144.3,261.5c4.9,0,8.9,-4,8.9,-8.9c0,-4.9,-4,-8.9,-8.9,-8.9c-5,0,-9,4,-9,8.9c0,4.9,4,8.9,9,8.9Z" class="g0_82"/>
<path d="M144.3,261.5c4.9,0,8.9,-4,8.9,-8.9c0,-4.9,-4,-8.9,-8.9,-8.9c-5,0,-9,4,-9,8.9c0,4.9,4,8.9,9,8.9Z" class="g1_82"/>
<path d="M144.3,324c4.9,0,8.9,-4,8.9,-8.9c0,-4.9,-4,-8.9,-8.9,-8.9c-5,0,-9,4,-9,8.9c0,4.9,4,8.9,9,8.9Z" class="g0_82"/>
<path d="M144.3,324c4.9,0,8.9,-4,8.9,-8.9c0,-4.9,-4,-8.9,-8.9,-8.9c-5,0,-9,4,-9,8.9c0,4.9,4,8.9,9,8.9Z" class="g1_82"/>
<path d="M144.3,396.4c4.9,0,8.9,-4,8.9,-8.9c0,-4.9,-4,-8.9,-8.9,-8.9c-5,0,-9,4,-9,8.9c0,4.9,4,8.9,9,8.9Z" class="g0_82"/>
<path d="M144.3,396.4c4.9,0,8.9,-4,8.9,-8.9c0,-4.9,-4,-8.9,-8.9,-8.9c-5,0,-9,4,-9,8.9c0,4.9,4,8.9,9,8.9Z" class="g1_82"/>
<path d="M144.3,462.6c4.9,0,8.9,-4,8.9,-9c0,-4.9,-4,-8.9,-8.9,-8.9c-5,0,-9,4,-9,8.9c0,5,4,9,9,9Z" class="g0_82"/>
<path d="M144.3,462.6c4.9,0,8.9,-4,8.9,-9c0,-4.9,-4,-8.9,-8.9,-8.9c-5,0,-9,4,-9,8.9c0,5,4,9,9,9Z" class="g1_82"/>
<image clip-path="url(#c0_82)" preserveAspectRatio="none" x="301" y="647" width="338" height="263" xlink:href="img/1.jpg"/>
<path d="M173.7,591c-2.4,.6,-4.7,1.8,-6.9,2.4c-2.4,.7,-3.8,.5,-6.1,2.2c-1.9,1.2,-2.2,2.2,-4.6,2.7c-.7,3,-.3,5.3,1.8,7.7c1.3,1.5,5.9,5.6,8.5,5.7c-3.1,4,-6.9,7.9,-3.9,12.7c1.2,2,5.1,6.7,8,7.9c2.7,1,6.9,0,9.8,.3c.4,1.9,-.5,3.9,.3,5.7c1.2,2.9,5.3,6.1,8,8.3c6.1,4.8,21.5,13.3,29.9,7.8c3.3,5.5,11.3,10.5,19.4,12.7c5.4,1.4,16.4,2.4,21.9,.9c3.4,-.9,6.6,-4.8,10.1,-5.2c1.6,-.3,7.2,2.3,8.9,2.6c7.7,1.1,17.4,1,25.1,-.2c11.1,-1.7,16.7,-8,19.9,-15.1c2.6,3.8,16.4,.7,20,-.6c7.2,-2.7,14.7,-6.8,17.5,-12.4c2.1,-4.2,-4,-8.4,-2.4,-11.7c.7,-1.5,3,-2.4,4.2,-3.8c6.6,-7.4,3.8,-14.7,-2.1,-21.6c-6.2,-7.4,-14.3,-12.2,-26.1,-14.7c-3,-.7,-5.8,-1,-9,-.9c-1.7,0,-2.5,.7,-4.3,.5c8.9,-8.2,-22.2,-15.3,-27.8,-16c-14,-1.7,-30.3,.1,-43.3,3.5c-6.2,1.7,-12.3,4.1,-18.2,5.8c1.1,-8.8,-22,-6,-28,-4.7c-7.3,1.6,-16.4,4.8,-20.8,9.2c-2.7,2.8,-4,6.2,-6.4,9.1Z" class="g2_82"/>
<path d="M173.7,591c-2.4,.6,-4.7,1.8,-6.9,2.4c-2.4,.7,-3.8,.5,-6.1,2.2c-1.9,1.2,-2.2,2.2,-4.6,2.7c-.7,3,-.3,5.3,1.8,7.7c1.3,1.5,5.9,5.6,8.5,5.7c-3.1,4,-6.9,7.9,-3.9,12.7c1.2,2,5.1,6.7,8,7.9c2.7,1,6.9,0,9.8,.3c.4,1.9,-.5,3.9,.3,5.7c1.2,2.9,5.3,6.1,8,8.3c6.1,4.8,21.5,13.3,29.9,7.8c3.3,5.5,11.3,10.5,19.4,12.7c5.4,1.4,16.4,2.4,21.9,.9c3.4,-.9,6.6,-4.8,10.1,-5.2c1.6,-.3,7.2,2.3,8.9,2.6c7.7,1.1,17.4,1,25.1,-.2c11.1,-1.7,16.7,-8,19.9,-15.1c2.6,3.8,16.4,.7,20,-.6c7.2,-2.7,14.7,-6.8,17.5,-12.4c2.1,-4.2,-4,-8.4,-2.4,-11.7c.7,-1.5,3,-2.4,4.2,-3.8c6.6,-7.4,3.8,-14.7,-2.1,-21.6c-6.2,-7.4,-14.3,-12.2,-26.1,-14.7c-3,-.7,-5.8,-1,-9,-.9c-1.7,0,-2.5,.7,-4.3,.5c8.9,-8.2,-22.2,-15.3,-27.8,-16c-14,-1.7,-30.3,.1,-43.3,3.5c-6.2,1.7,-12.3,4.1,-18.2,5.8c1.1,-8.8,-22,-6,-28,-4.7c-7.3,1.6,-16.4,4.8,-20.8,9.2c-2.7,2.8,-4,6.2,-6.4,9.1" class="g1_82"/>
<path d="M366.4,650.3c-4.6,-.6,-9.2,5.8,-3.7,7c4.3,.9,5.1,-4.8,4.5,-7.8c-2.2,-.8,-4.1,.5,-5.7,1.8Z" class="g2_82"/>
<path d="M366.4,650.3c-4.6,-.6,-9.2,5.8,-3.7,7c4.3,.9,5.1,-4.8,4.5,-7.8c-2.2,-.8,-4.1,.5,-5.7,1.8" class="g1_82"/>
<path d="M371,660.3c1.4,-1.1,6.3,-3.2,7.5,-1.1c1.7,3,-7.8,7.2,-6.6,1.2c2.8,-.8,4.4,-2.9,5.2,-1.5Z" class="g2_82"/>
<path d="M371,660.3c1.4,-1.1,6.3,-3.2,7.5,-1.1c1.7,3,-7.8,7.2,-6.6,1.2c2.8,-.8,4.4,-2.9,5.2,-1.5" class="g3_82"/>
<g clip-path="url(#c1_82)">
<path d="M-4.5,13.7H-27.4m939.5,0H935M-4.5,1031.2H-27.4m939.5,0H935M13.7,-4.5V-27.4m0,1077v22.9m880,-1077V-27.4m0,1077v22.9" class="g4_82"/>
<path d="M-4.5,13.7H-27.4m939.5,0H935M-4.5,1031.2H-27.4m939.5,0H935M13.7,-4.5V-27.4m0,1077v22.9m880,-1077V-27.4m0,1077v22.9" class="g5_82"/>
</g>
</svg>