<?xml version="1.0" encoding="UTF-8" standalone="no"?>
<!DOCTYPE svg PUBLIC "-//W3C//DTD SVG 1.1//EN"
"http://www.w3.org/Graphics/SVG/1.1/DTD/svg11.dtd">
<svg viewBox="0 0 931 1096" version="1.1" xmlns="http://www.w3.org/2000/svg" xmlns:xlink="http://www.w3.org/1999/xlink">
<defs>
<clipPath id="c0_263"><path d="M480.9,584.8v-17h49.9v17Z"/></clipPath>
<style type="text/css"><![CDATA[
.g0_263{
fill: #FFF;
}
.g1_263{
fill: none;
stroke: #00AEEF;
stroke-width: 1.145;
}
.g2_263{
fill: none;
stroke: #241F1F;
stroke-width: 0.763;
stroke-miterlimit: 10;
}
.g3_263{
fill: none;
stroke: #00AEEF;
stroke-width: 0.763;
}
.g4_263{
fill: #D0007A;
}
.g5_263{
fill: none;
stroke: #241F1F;
stroke-width: 0.687;
stroke-miterlimit: 10;
}
.g6_263{
fill: none;
stroke: #EE008C;
stroke-width: 0.916;
stroke-linejoin: round;
}
.g7_263{
fill: #241F1F;
}
.g8_263{
fill: #EE008C;
}
.g9_263{
fill: none;
stroke: #EE008C;
stroke-width: 0.763;
stroke-miterlimit: 3;
}
.ga_263{
fill: none;
stroke: #241F1F;
stroke-width: 0.763;
stroke-miterlimit: 3;
}
.gb_263{
fill: none;
stroke: #241F1F;
stroke-width: 0.611;
stroke-miterlimit: 3;
}
.gc_263{
fill: none;
stroke: #241F1F;
stroke-width: 0.381;
stroke-miterlimit: 3;
}
.gd_263{
fill: none;
stroke: #00AEEF;
stroke-width: 0.916;
stroke-linejoin: round;
}
]]></style>
</defs>
<path d="M345.7,97.9c0,0,-3.1,0,-3.1,3.1v98.5c0,0,0,3.1,3.1,3.1H875.1c0,0,3,0,3,-3.1V101c0,0,0,-3.1,-3,-3.1Z" class="g0_263"/>
<path d="M358.8,107.3c0,0,-1.5,0,-1.5,1.5V123c0,0,0,1.5,1.5,1.5H373c0,0,1.5,0,1.5,-1.5V108.8c0,0,0,-1.5,-1.5,-1.5H358.8Z" class="g1_263"/>
<path d="M516.8,144.5h18.4m21.9,0h21.2" class="g2_263"/>
<path d="M345.7,97.9c0,0,-3.1,0,-3.1,3.1v98.5c0,0,0,3.1,3.1,3.1H875.1c0,0,3,0,3,-3.1V101c0,0,0,-3.1,-3,-3.1H345.7Z" class="g3_263"/>
<path d="M345.7,285.9c0,0,-3.1,0,-3.1,3v98.6c0,0,0,3,3.1,3H875.1c0,0,3,0,3,-3V288.9c0,0,0,-3,-3,-3Z" class="g0_263"/>
<path d="M358.8,295.2c0,0,-1.5,0,-1.5,1.6v14.1c0,0,0,1.5,1.5,1.5H373c0,0,1.5,0,1.5,-1.5V296.8c0,0,0,-1.6,-1.5,-1.6H358.8Z" class="g1_263"/>
<path d="M516.8,332.5h18.4m21.9,0h21.2" class="g2_263"/>
<path d="M345.7,285.9c0,0,-3.1,0,-3.1,3v98.6c0,0,0,3,3.1,3H875.1c0,0,3,0,3,-3V288.9c0,0,0,-3,-3,-3H345.7Z" class="g3_263"/>
<path d="M564.7,495.9h19.8m21.9,0h21.3" class="g2_263"/>
<path clip-path="url(#c0_263)" d="M521.2,568.2h10" class="g2_263"/>
<path d="M662.6,568.2h10M565.5,719h18.2m21.9,0h21.3" class="g2_263"/>
<path d="M343.8,953.1c0,0,-1.6,0,-1.6,1.6v9.1c0,0,0,1.5,1.6,1.5h9.1c0,0,1.6,0,1.6,-1.5v-9.1c0,0,0,-1.6,-1.6,-1.6Z" class="g4_263"/>
<path d="M109.2,376.5h16.6m19.7,0h19.3" class="g5_263"/>
<path d="M158.9,235.8c0,-40.5,22.6,-73.3,50.4,-73.3c27.9,0,50.4,32.8,50.4,73.3c0,40.5,-22.5,73.4,-50.4,73.4c-27.8,0,-50.4,-32.9,-50.4,-73.4Z" class="g6_263"/>
<path fill-rule="evenodd" d="M305.6,235.8l-1.7,-2.4l6.6,2.4l-6.6,2.5Z" class="g7_263"/>
<path fill-rule="evenodd" d="M209.3,141.9l-2.4,1.6l2.4,-6.5l2.5,6.5Z" class="g7_263"/>
<path d="M258,235.8c0,-.9,.8,-1.7,1.7,-1.7c1,0,1.7,.8,1.7,1.7c0,1,-.7,1.8,-1.7,1.8c-.9,0,-1.7,-.8,-1.7,-1.8Z" class="g8_263"/>
<path d="M258,235.8c0,-.9,.8,-1.7,1.7,-1.7c1,0,1.7,.8,1.7,1.7c0,1,-.7,1.8,-1.7,1.8c-.9,0,-1.7,-.8,-1.7,-1.8Z" class="g9_263"/>
<path d="M207.6,193.1c0,-1,.8,-1.8,1.7,-1.8c1,0,1.7,.8,1.7,1.8c0,.9,-.7,1.7,-1.7,1.7c-.9,0,-1.7,-.8,-1.7,-1.7Z" class="g7_263"/>
<path d="M207.6,193.1c0,-1,.8,-1.8,1.7,-1.8c1,0,1.7,.8,1.7,1.8c0,.9,-.7,1.7,-1.7,1.7c-.9,0,-1.7,-.8,-1.7,-1.7Z" class="ga_263"/>
<path d="M207.6,278.6c0,-.9,.8,-1.7,1.7,-1.7c1,0,1.7,.8,1.7,1.7c0,1,-.7,1.7,-1.7,1.7c-.9,0,-1.7,-.7,-1.7,-1.7Z" class="g7_263"/>
<path d="M207.6,278.6c0,-.9,.8,-1.7,1.7,-1.7c1,0,1.7,.8,1.7,1.7c0,1,-.7,1.7,-1.7,1.7c-.9,0,-1.7,-.7,-1.7,-1.7Z" class="ga_263"/>
<path d="M207.6,162.5c0,-.9,.8,-1.7,1.7,-1.7c1,0,1.7,.8,1.7,1.7c0,1,-.7,1.7,-1.7,1.7c-.9,0,-1.7,-.7,-1.7,-1.7Z" class="g8_263"/>
<path d="M207.6,162.5c0,-.9,.8,-1.7,1.7,-1.7c1,0,1.7,.8,1.7,1.7c0,1,-.7,1.7,-1.7,1.7c-.9,0,-1.7,-.7,-1.7,-1.7Z" class="g9_263"/>
<path d="M157.2,235.8c0,-.9,.8,-1.7,1.7,-1.7c1,0,1.7,.8,1.7,1.7c0,1,-.7,1.8,-1.7,1.8c-.9,0,-1.7,-.8,-1.7,-1.8Z" class="g8_263"/>
<path d="M157.2,235.8c0,-.9,.8,-1.7,1.7,-1.7c1,0,1.7,.8,1.7,1.7c0,1,-.7,1.8,-1.7,1.8c-.9,0,-1.7,-.8,-1.7,-1.8Z" class="g9_263"/>
<path d="M207.6,309.2c0,-1,.8,-1.8,1.7,-1.8c1,0,1.7,.8,1.7,1.8c0,.9,-.7,1.7,-1.7,1.7c-.9,0,-1.7,-.8,-1.7,-1.7Z" class="g8_263"/>
<path d="M207.6,309.2c0,-1,.8,-1.8,1.7,-1.8c1,0,1.7,.8,1.7,1.8c0,.9,-.7,1.7,-1.7,1.7c-.9,0,-1.7,-.8,-1.7,-1.7Z" class="g9_263"/>
<path d="M108.5,235.8H305.6m-96.3,91.7V141.9" class="gb_263"/>
<path d="M134.5,522.6c0,-30.4,32.8,-55,73.3,-55c40.5,0,73.3,24.6,73.3,55c0,30.4,-32.8,55,-73.3,55c-40.5,0,-73.3,-24.6,-73.3,-55Z" class="g6_263"/>
<path d="M206.1,467.6c0,-.9,.7,-1.7,1.7,-1.7c.9,0,1.7,.8,1.7,1.7c0,1,-.8,1.7,-1.7,1.7c-1,0,-1.7,-.7,-1.7,-1.7Z" class="g8_263"/>
<path d="M206.1,467.6c0,-.9,.7,-1.7,1.7,-1.7c.9,0,1.7,.8,1.7,1.7c0,1,-.8,1.7,-1.7,1.7c-1,0,-1.7,-.7,-1.7,-1.7Z" class="g9_263"/>
<path d="M206.1,577.6c0,-.9,.7,-1.7,1.7,-1.7c.9,0,1.7,.8,1.7,1.7c0,1,-.8,1.7,-1.7,1.7c-1,0,-1.7,-.7,-1.7,-1.7Z" class="g8_263"/>
<path d="M206.1,577.6c0,-.9,.7,-1.7,1.7,-1.7c.9,0,1.7,.8,1.7,1.7c0,1,-.8,1.7,-1.7,1.7c-1,0,-1.7,-.7,-1.7,-1.7Z" class="g9_263"/>
<path d="M279.4,522.6c0,-.9,.8,-1.7,1.7,-1.7c1,0,1.7,.8,1.7,1.7c0,1,-.7,1.7,-1.7,1.7c-.9,0,-1.7,-.7,-1.7,-1.7Z" class="g8_263"/>
<path d="M279.4,522.6c0,-.9,.8,-1.7,1.7,-1.7c1,0,1.7,.8,1.7,1.7c0,1,-.7,1.7,-1.7,1.7c-.9,0,-1.7,-.7,-1.7,-1.7Z" class="g9_263"/>
<path d="M132.7,522.6c0,-.9,.8,-1.7,1.8,-1.7c.9,0,1.7,.8,1.7,1.7c0,1,-.8,1.7,-1.7,1.7c-1,0,-1.8,-.7,-1.8,-1.7Z" class="g8_263"/>
<path d="M132.7,522.6c0,-.9,.8,-1.7,1.8,-1.7c.9,0,1.7,.8,1.7,1.7c0,1,-.8,1.7,-1.7,1.7c-1,0,-1.8,-.7,-1.8,-1.7Z" class="g9_263"/>
<path fill-rule="evenodd" d="M313.2,522.6l-1.6,-2.4l6.5,2.4l-6.5,2.5Z" class="g7_263"/>
<path fill-rule="evenodd" d="M207.8,428.7l-2.5,1.6l2.5,-6.5l2.4,6.5Z" class="g7_263"/>
<path d="M148.6,507L139,517.3" class="gc_263"/>
<path d="M136.8,519.7l1.7,-4.3l.5,1.9l2,.4Z" class="g7_263"/>
<path d="M254.7,522.6c0,-.9,.7,-1.7,1.7,-1.7c.9,0,1.7,.8,1.7,1.7c0,1,-.8,1.7,-1.7,1.7c-1,0,-1.7,-.7,-1.7,-1.7Z" class="g7_263"/>
<path d="M254.7,522.6c0,-.9,.7,-1.7,1.7,-1.7c.9,0,1.7,.8,1.7,1.7c0,1,-.8,1.7,-1.7,1.7c-1,0,-1.7,-.7,-1.7,-1.7Z" class="ga_263"/>
<path d="M157.5,522.6c0,-.9,.8,-1.7,1.7,-1.7c1,0,1.7,.8,1.7,1.7c0,1,-.7,1.7,-1.7,1.7c-.9,0,-1.7,-.7,-1.7,-1.7Z" class="g7_263"/>
<path d="M157.5,522.6c0,-.9,.8,-1.7,1.7,-1.7c1,0,1.7,.8,1.7,1.7c0,1,-.7,1.7,-1.7,1.7c-.9,0,-1.7,-.7,-1.7,-1.7Z" class="ga_263"/>
<path d="M108.5,522.6H313.2M207.8,605.1V428.7" class="gb_263"/>
<path d="M298.9,851.6c-53.5,42.8,-50.2,63.6,-50.2,63.6c0,0,-3.3,21.4,50.2,64.1" class="g6_263"/>
<path d="M151.7,915.5L275.5,872.4l-8.3,43.1" class="gd_263"/>
<path d="M120.5,851.6c53.5,42.8,50.2,63.6,50.2,63.6c0,0,3.3,21.4,-50.2,64.1" class="g6_263"/>
<path d="M273.9,872.6c0,-.9,.7,-1.6,1.6,-1.6c.9,0,1.6,.7,1.6,1.6c0,.9,-.7,1.6,-1.6,1.6c-.9,0,-1.6,-.7,-1.6,-1.6Z" class="g8_263"/>
<path d="M273.9,872.6c0,-.9,.7,-1.6,1.6,-1.6c.9,0,1.6,.7,1.6,1.6c0,.9,-.7,1.6,-1.6,1.6c-.9,0,-1.6,-.7,-1.6,-1.6Z" class="g9_263"/>
<path fill-rule="evenodd" d="M309.6,915.4L308,912.9l6.5,2.5l-6.5,2.4Z" class="g7_263"/>
<path fill-rule="evenodd" d="M209.7,851.6l-2.5,1.6l2.5,-6.5l2.4,6.5Z" class="g7_263"/>
<path d="M265.6,915.5c0,-.9,.7,-1.6,1.6,-1.6c.9,0,1.6,.7,1.6,1.6c0,.9,-.7,1.6,-1.6,1.6c-.9,0,-1.6,-.7,-1.6,-1.6Z" class="g7_263"/>
<path d="M265.6,915.5c0,-.9,.7,-1.6,1.6,-1.6c.9,0,1.6,.7,1.6,1.6c0,.9,-.7,1.6,-1.6,1.6c-.9,0,-1.6,-.7,-1.6,-1.6Z" class="ga_263"/>
<path d="M150.1,915.5c0,-.9,.7,-1.6,1.6,-1.6c.9,0,1.6,.7,1.6,1.6c0,.9,-.7,1.6,-1.6,1.6c-.9,0,-1.6,-.7,-1.6,-1.6Z" class="g7_263"/>
<path d="M150.1,915.5c0,-.9,.7,-1.6,1.6,-1.6c.9,0,1.6,.7,1.6,1.6c0,.9,-.7,1.6,-1.6,1.6c-.9,0,-1.6,-.7,-1.6,-1.6Z" class="ga_263"/>
<path d="M108.5,915.4H309.6m-99.9,63.9V851.6" class="gb_263"/>
</svg>