<?xml version="1.0" encoding="UTF-8" standalone="no"?>
<!DOCTYPE svg PUBLIC "-//W3C//DTD SVG 1.1//EN"
"http://www.w3.org/Graphics/SVG/1.1/DTD/svg11.dtd">
<svg viewBox="0 0 931 1096" version="1.1" xmlns="http://www.w3.org/2000/svg" xmlns:xlink="http://www.w3.org/1999/xlink">
<defs>
<clipPath id="c0_91"><path d="M559.3,468.1V450.9h111v17.2Z"/></clipPath>
<clipPath id="c1_91"><path d="M570.1,513.9V496.7h91.7v17.2Z"/></clipPath>
<style type="text/css"><![CDATA[
.g0_91{
fill: none;
stroke: #EE008C;
stroke-width: 0.916;
stroke-linejoin: round;
}
.g1_91{
fill: none;
stroke: #6AC48C;
stroke-width: 0.916;
stroke-linejoin: round;
}
.g2_91{
fill: none;
stroke: #00AEEF;
stroke-width: 0.763;
stroke-linejoin: round;
}
.g3_91{
fill: none;
stroke: #00AEEF;
stroke-width: 0.916;
stroke-linejoin: round;
}
.g4_91{
fill: none;
stroke: #241F1F;
stroke-width: 0.611;
stroke-miterlimit: 3;
}
.g5_91{
fill: none;
stroke: #241F1F;
stroke-width: 0.458;
stroke-miterlimit: 3;
}
.g6_91{
fill: none;
stroke: #241F1F;
stroke-width: 0.534;
stroke-miterlimit: 3;
}
.g7_91{
fill: #00AEEF;
}
.g8_91{
fill: none;
stroke: #00AEEF;
stroke-width: 0.763;
stroke-miterlimit: 3;
}
.g9_91{
fill: #241F1F;
}
.ga_91{
fill: none;
stroke: #241F1F;
stroke-width: 0.763;
stroke-miterlimit: 3;
stroke-dasharray: 10,4;
}
.gb_91{
fill: #FFF;
}
.gc_91{
fill: none;
stroke: #00AEEF;
stroke-width: 0.763;
}
.gd_91{
fill: none;
stroke: #241F1F;
stroke-width: 0.763;
stroke-miterlimit: 10;
}
.ge_91{
fill: #D0007A;
}
.gf_91{
fill: none;
stroke: #00AEEF;
stroke-width: 1.145;
}
.gg_91{
fill: #EE008C;
}
.gh_91{
fill: none;
stroke: #EE008C;
stroke-width: 0.763;
stroke-miterlimit: 3;
}
]]></style>
</defs>
<path d="M532.9,208.3L489.3,164.7" class="g0_91"/>
<path d="M545.1,152L396,301" class="g1_91"/>
<path d="M520.2,200.2l4.6,-4.6m-2.7,6.4l4.6,-4.6M496.2,176.2l4.6,-4.6m-2.7,6.4l4.5,-4.6" class="g2_91"/>
<path d="M826.9,154.3L680,301.2" class="g1_91"/>
<path d="M736.3,276c28.1,0,52.8,-10,63.3,-43.3c3,-9.4,7.5,-24,32.5,-37.7" class="g3_91"/>
<path d="M705.4,245c0,-28,10,-52.7,43.2,-63.2c9.5,-3,24.1,-7.6,37.7,-32.6" class="g0_91"/>
<path d="M384.5,235H562.3m-99.9,66.3V150.8" class="g4_91"/>
<path d="M507,190.1l3.9,3.9l3.9,-3.9" class="g5_91"/>
<path d="M467.6,164.7v5.2h-5.2m70.4,60h-5.2v5.2" class="g6_91"/>
<path d="M668.5,235H832.1m-85.7,66.2V150.8" class="g4_91"/>
<path d="M531,208.3c0,-1,.7,-1.7,1.7,-1.7c.9,0,1.7,.7,1.7,1.7c0,1,-.8,1.7,-1.7,1.7c-1,0,-1.7,-.7,-1.7,-1.7Z" class="g7_91"/>
<path d="M531,208.3c0,-1,.7,-1.7,1.7,-1.7c.9,0,1.7,.7,1.7,1.7c0,1,-.8,1.7,-1.7,1.7c-1,0,-1.7,-.7,-1.7,-1.7Z" class="g8_91"/>
<path d="M487.6,164.7c0,-.9,.8,-1.7,1.7,-1.7c.9,0,1.7,.8,1.7,1.7c0,1,-.8,1.7,-1.7,1.7c-.9,0,-1.7,-.7,-1.7,-1.7Z" class="g7_91"/>
<path d="M487.6,164.7c0,-.9,.8,-1.7,1.7,-1.7c.9,0,1.7,.8,1.7,1.7c0,1,-.8,1.7,-1.7,1.7c-.9,0,-1.7,-.7,-1.7,-1.7Z" class="g8_91"/>
<path fill-rule="evenodd" d="M561.4,234.8l-1.6,-2.5l6.5,2.5l-6.5,2.4Z" class="g9_91"/>
<path fill-rule="evenodd" d="M462.4,151.5l-2.4,1.7l2.4,-6.5l2.4,6.5Z" class="g9_91"/>
<path fill-rule="evenodd" d="M831.4,235l-1.7,-2.5l6.5,2.5l-6.5,2.4Z" class="g9_91"/>
<path fill-rule="evenodd" d="M746.3,151.3l-2.4,1.7l2.4,-6.6l2.4,6.6Z" class="g9_91"/>
<path d="M532.8,235.1V208.2l-70.4,26.9m0,-70.4h26.9l-26.9,70.4" class="ga_91"/>
<path d="M345.7,370.6c0,0,-3.1,0,-3.1,3.1v48.1c0,0,0,3.1,3.1,3.1H875.1c0,0,3,0,3,-3.1V373.7c0,0,0,-3.1,-3,-3.1Z" class="gb_91"/>
<path d="M345.7,370.6c0,0,-3.1,0,-3.1,3.1v48.1c0,0,0,3.1,3.1,3.1H875.1c0,0,3,0,3,-3.1V373.7c0,0,0,-3.1,-3,-3.1H345.7Z" class="gc_91"/>
<path clip-path="url(#c0_91)" d="M619.3,451.3h51.4" class="gd_91"/>
<path clip-path="url(#c1_91)" d="M610.9,497.1h51.3" class="gd_91"/>
<path d="M343.8,623.9c0,0,-1.6,0,-1.6,1.5v9.1c0,0,0,1.6,1.6,1.6h9.1c0,0,1.6,0,1.6,-1.6v-9.1c0,0,0,-1.5,-1.6,-1.5Z" class="ge_91"/>
<path d="M362.7,808.5c0,0,-1.6,0,-1.6,1.5v14.2c0,0,0,1.5,1.6,1.5h14.1c0,0,1.5,0,1.5,-1.5V810c0,0,0,-1.5,-1.5,-1.5H362.7Z" class="gf_91"/>
<path d="M473,789.2c0,0,-3,0,-3,3.1v48.1c0,0,0,3.1,3,3.1H742.1c0,0,3.1,0,3.1,-3.1V792.3c0,0,0,-3.1,-3.1,-3.1H473Z" class="gc_91"/>
<path d="M362.7,982.7c0,0,-1.6,0,-1.6,1.5v14.1c0,0,0,1.6,1.6,1.6h14.1c0,0,1.5,0,1.5,-1.6V984.2c0,0,0,-1.5,-1.5,-1.5H362.7Z" class="gf_91"/>
<path d="M473,949.6c0,0,-3,0,-3,3.1v69.5c0,0,0,3.1,3,3.1H742.1c0,0,3.1,0,3.1,-3.1V952.7c0,0,0,-3.1,-3.1,-3.1H473Z" class="gc_91"/>
<path d="M135.4,620.9L293.8,462.4" class="g1_91"/>
<path d="M109.9,484.4c38.8,10.4,83.8,29.1,84.1,49.1" class="g3_91"/>
<path d="M264.5,620.7c-11,-31,-25.7,-59.1,-41.7,-59.4" class="g0_91"/>
<path d="M221,561.3c0,-1,.8,-1.8,1.8,-1.8c.9,0,1.7,.8,1.7,1.8c0,.9,-.8,1.7,-1.7,1.7c-1,0,-1.8,-.8,-1.8,-1.7Z" class="gg_91"/>
<path d="M221,561.3c0,-1,.8,-1.8,1.8,-1.8c.9,0,1.7,.8,1.7,1.8c0,.9,-.8,1.7,-1.7,1.7c-1,0,-1.8,-.8,-1.8,-1.7Z" class="gh_91"/>
<path d="M192.3,533.5c0,-1,.8,-1.8,1.7,-1.8c1,0,1.8,.8,1.8,1.8c0,.9,-.8,1.7,-1.8,1.7c-.9,0,-1.7,-.8,-1.7,-1.7Z" class="g7_91"/>
<path d="M192.3,533.5c0,-1,.8,-1.8,1.7,-1.8c1,0,1.8,.8,1.8,1.8c0,.9,-.8,1.7,-1.8,1.7c-.9,0,-1.7,-.8,-1.7,-1.7Z" class="g8_91"/>
<path d="M108.5,533.5H317.9" class="g4_91"/>
<path fill-rule="evenodd" d="M317.9,533.5L316.3,531l6.5,2.5l-6.5,2.4Z" class="g9_91"/>
<path d="M222.6,620.9V460.1" class="g4_91"/>
<path fill-rule="evenodd" d="M222.6,460.1l-2.4,1.7l2.4,-6.6l2.5,6.6Z" class="g9_91"/>
</svg>