<?xml version="1.0" encoding="UTF-8" standalone="no"?>
<!DOCTYPE svg PUBLIC "-//W3C//DTD SVG 1.1//EN"
"http://www.w3.org/Graphics/SVG/1.1/DTD/svg11.dtd">
<svg viewBox="0 0 931 1096" version="1.1" xmlns="http://www.w3.org/2000/svg" xmlns:xlink="http://www.w3.org/1999/xlink">
<defs>
<clipPath id="c0_148"><path d="M53.5,632.2V258H267.7V632.2Z"/></clipPath>
<style type="text/css"><![CDATA[
.g0_148{
fill: none;
stroke: #241F1F;
stroke-width: 0.611;
stroke-miterlimit: 10;
}
.g1_148{
fill: none;
stroke: #241F1F;
stroke-width: 0.534;
stroke-miterlimit: 10;
}
.g2_148{
fill: none;
stroke: #00AEEF;
stroke-width: 0.763;
}
.g3_148{
fill: #C1E8FB;
}
.g4_148{
fill: #DBF2FD;
}
.g5_148{
fill: #FFF;
}
.g6_148{
fill: none;
stroke: #241F1F;
stroke-width: 1.069;
stroke-linejoin: round;
}
.g7_148{
fill: none;
stroke: #241F1F;
stroke-width: 0.763;
stroke-linejoin: round;
}
.g8_148{
fill: none;
stroke: #241F1F;
stroke-width: 0.611;
stroke-miterlimit: 3;
}
.g9_148{
fill: #241F1F;
}
.ga_148{
fill: none;
stroke: #241F1F;
stroke-width: 0.381;
stroke-miterlimit: 3;
}
.gb_148{
fill: none;
stroke: #241F1F;
stroke-width: 0.763;
stroke-miterlimit: 3;
}
.gc_148{
fill: none;
stroke: #241F1F;
stroke-width: 0.505;
stroke-miterlimit: 3;
}
]]></style>
</defs>
<path d="M797.3,317.6h6.8M448.8,335.9h6.7M347.2,372.6H354" class="g0_148"/>
<path d="M364.9,377.9h5.4" class="g1_148"/>
<path d="M386.8,372.6h6.8m98.8,0h6.8m49.2,36.7h6.8m-145,55h6.7M527.3,504h6m38.8,0h6.8m34.3,0h6.7m18.7,0h6.8M520.6,632.3h6.8m18.7,0h6.7" class="g0_148"/>
<path d="M366.3,606.4c0,0,-3.1,0,-3.1,3.1v57.3c0,0,0,3,3.1,3H744.4c0,0,3.1,0,3.1,-3V609.5c0,0,0,-3.1,-3.1,-3.1H366.3Z" class="g2_148"/>
<path d="M499.9,757.6h6.8" class="g0_148"/>
<path d="M545.4,762.9h5.4" class="g1_148"/>
<path d="M567.4,757.6h6.8" class="g0_148"/>
<path d="M627,762.9h5.4" class="g1_148"/>
<path d="M654.8,757.6h6.8" class="g0_148"/>
<path d="M513.5,876h5.4" class="g1_148"/>
<path d="M541.3,870.7h6.8" class="g0_148"/>
<path d="M638.8,876h5.3" class="g1_148"/>
<path d="M366.3,844.8c0,0,-3.1,0,-3.1,3v57.3c0,0,0,3.1,3.1,3.1H744.4c0,0,3.1,0,3.1,-3.1V847.8c0,0,0,-3,-3.1,-3H366.3Z" class="g2_148"/>
<path d="M297.8,957.8h7.5m82.3,0h6.7" class="g0_148"/>
<path d="M182.2,570.9H194V498H182.2v72.9Z" class="g3_148"/>
<path d="M111.2,570.9H123V471.6H111.2v99.3Z" class="g4_148"/>
<path d="M123,570.9h11.8V466.3H123V570.9Z" class="g4_148"/>
<path d="M134.8,570.9h11.9V465.5H134.8V570.9Z" class="g4_148"/>
<path d="M146.7,570.9h11.8V473.5H146.7v97.4Z" class="g4_148"/>
<path d="M158.5,570.9h11.9V491.1H158.5v79.8Z" class="g4_148"/>
<path d="M170.4,570.9h11.8V500.7H170.4v70.2Z" class="g4_148"/>
<path d="M194,570.9h11.9V491.5H194v79.4Z" class="g4_148"/>
<path d="M205.9,570.9h11.8V487.3H205.9v83.6Z" class="g4_148"/>
<path d="M217.7,570.9h11.9V488.8H217.7v82.1Z" class="g5_148"/>
<path d="M229.6,570.9h11.8V495.7H229.6v75.2Z" class="g4_148"/>
<path d="M99.3,570.9h11.9V481.6H99.3v89.3Z" class="g4_148"/>
<g clip-path="url(#c0_148)">
<path d="M241.4,375.4V304.7c-34,-29.8,-42.8,.4,-64.2,.4c-21.4,0,-20,-69.9,-77.9,-14.1v84.4Z" class="g3_148"/>
<path d="M99.1,291c57.9,-55.8,56.7,14.1,78.1,14.1c21.4,0,30.2,-30.2,64.2,-.4" class="g6_148"/>
</g>
<path d="M111.2,471.6H123v99.3H111.2ZM123,466.3h11.8V570.9H123Zm11.8,-.8h11.9V570.9H134.8Zm11.9,8h11.8v97.4H146.7Zm11.8,17.6h11.9v79.8H158.5Zm11.9,9.6h11.8v70.2H170.4ZM182.2,498H194v72.9H182.2ZM194,491.5h11.9v79.4H194Zm11.9,-4.2h11.8v83.6H205.9Z" class="g7_148"/>
<path d="M217.7,570.9h11.9V488.8H217.7v82.1Z" class="g4_148"/>
<path d="M217.7,488.8h11.9v82.1H217.7Zm11.9,6.9h11.8v75.2H229.6ZM99.3,481.6h11.9v89.3H99.3Z" class="g7_148"/>
<path d="M81,607.6V445.3" class="g8_148"/>
<path fill-rule="evenodd" d="M81,445.3l-2.5,1.6L81,440.4l2.4,6.5Z" class="g9_148"/>
<path d="M53.5,570.9H262.8" class="g8_148"/>
<path fill-rule="evenodd" d="M262.8,570.9l-1.6,-2.4l6.5,2.4l-6.5,2.5Z" class="g9_148"/>
<path d="M110,579l-4.6,-12.3" class="ga_148"/>
<path d="M104.2,563.6l3.1,3.5l-1.9,-.4l-1.1,1.6Z" class="g9_148"/>
<path d="M126.8,586.2l-9.9,-19.5" class="ga_148"/>
<path d="M115.4,563.8l3.4,3.1l-1.9,-.2l-1,1.7Z" class="g9_148"/>
<path d="M146.3,595L128.7,567.1" class="ga_148"/>
<path d="M127,564.3l3.7,2.8h-2l-.8,1.8Z" class="g9_148"/>
<path d="M186.4,532.7c0,-.9,.8,-1.7,1.7,-1.7c1,0,1.7,.8,1.7,1.7c0,1,-.7,1.8,-1.7,1.8c-.9,0,-1.7,-.8,-1.7,-1.8Z" class="g9_148"/>
<path d="M186.4,532.7c0,-.9,.8,-1.7,1.7,-1.7c1,0,1.7,.8,1.7,1.7c0,1,-.7,1.8,-1.7,1.8c-.9,0,-1.7,-.8,-1.7,-1.8Z" class="gb_148"/>
<path d="M171.7,585.1l8.4,-11.5" class="ga_148"/>
<path d="M182,570.9l-1.2,4.5l-.7,-1.8l-1.9,-.1Z" class="g9_148"/>
<path d="M198.8,583.2L195.4,574" class="ga_148"/>
<path d="M194.2,570.9l3.1,3.5l-1.9,-.4l-1.2,1.5Z" class="g9_148"/>
<path d="M187.7,592.3V574.4" class="ga_148"/>
<path d="M187.7,571.1l1.7,4.3l-1.7,-1l-1.6,1Z" class="g9_148"/>
<path d="M191.2,480.4l-2.7,45.5" class="ga_148"/>
<path d="M188.3,529.2l-1.4,-4.5l1.6,1.2l1.7,-1Z" class="g9_148"/>
<path d="M172.8,460.5l13.8,33.3" class="ga_148"/>
<path d="M187.8,496.8l-3.1,-3.4l1.9,.4l1.1,-1.6Z" class="g9_148"/>
<path d="M184.6,595.3h6m-29.3,-150h6.1m-31.3,0h6m77.2,25.5h4.6m13.3,-4.1h6.1m-40.1,0h6" class="gc_148"/>
<path d="M81,402.9v-136" class="g8_148"/>
<path fill-rule="evenodd" d="M81,266.9l-2.5,1.6L81,262l2.4,6.5Z" class="g9_148"/>
<path d="M53.5,375.4H262.8" class="g8_148"/>
<path fill-rule="evenodd" d="M262.8,375.4l-1.6,-2.5l6.5,2.5l-6.5,2.4Z" class="g9_148"/>
<path d="M99.3,291v84.4M241.4,304.7v70.7" class="g7_148"/>
<path d="M173.8,274.9l-13.4,6.5" class="ga_148"/>
<path d="M157.5,282.9l3.1,-3.4l-.2,1.9l1.7,1.1Z" class="g9_148"/>
<path d="M99.1,486.6c57.9,-55.8,56.7,14.1,78.1,14.1c21.4,0,30.2,-30.2,64.2,-.4" class="g6_148"/>
</svg>