<?xml version="1.0" encoding="UTF-8" standalone="no"?>
<!DOCTYPE svg PUBLIC "-//W3C//DTD SVG 1.1//EN"
"http://www.w3.org/Graphics/SVG/1.1/DTD/svg11.dtd">
<svg viewBox="0 0 907 1045" version="1.1" xmlns="http://www.w3.org/2000/svg" xmlns:xlink="http://www.w3.org/1999/xlink">
<defs>
<clipPath id="c0_128"><path d="M479.1,553.3C406.7,519.1,323.4,517.1,350.9,419.6C365.5,367.7,420.8,347,483.7,328.4h68.7c159.9,51.5,122.8,177.9,-18.3,224.9Z"/></clipPath>
<clipPath id="c1_128"><path d="M525.9,506.4c-28.4,-13.1,-58.4,-19,-70,-39.8V418.4c10.9,-29.1,42.5,-41.5,78.1,-52.6h41.2c93.5,31.8,74.9,108.9,-4.2,140.6Z"/></clipPath>
<clipPath id="c2_128"><path d="M579.3,470.5C563.1,459.1,544.4,458.4,550.6,425.8c3.3,-17.4,15.6,-24.4,29.7,-30.6h15.4c35.7,17.2,27.4,59.6,-4.1,75.3Z"/></clipPath>
<clipPath id="c3_128"><path d="M-2.6,1047.7V-2.6H910.2V1047.7Z"/></clipPath>
<style type="text/css"><![CDATA[
.g0_128{
fill: #DEDEDE;
}
.g1_128{
fill: none;
stroke: #000000;
stroke-width: 1.527;
stroke-linecap: butt;
stroke-linejoin: miter;
stroke-miterlimit: 4;
}
.g2_128{
}
.g3_128{
fill: #757575;
}
.g4_128{
fill: none;
stroke: #5A5A5A;
stroke-width: 1.341;
stroke-linecap: butt;
stroke-linejoin: miter;
stroke-miterlimit: 4;
}
.g5_128{
fill: none;
stroke: #5A5A5A;
stroke-width: 1.334;
stroke-linecap: butt;
stroke-linejoin: miter;
stroke-miterlimit: 4;
}
.g6_128{
fill: none;
stroke: #5A5A5A;
stroke-width: 1.364;
stroke-linecap: butt;
stroke-linejoin: miter;
stroke-miterlimit: 4;
}
.g7_128{
fill: none;
stroke: #636363;
stroke-width: 1.527;
stroke-linecap: butt;
stroke-linejoin: miter;
stroke-miterlimit: 4;
}
.g8_128{
fill: none;
stroke: #FFFFFF;
stroke-width: 1.909;
stroke-linecap: butt;
stroke-linejoin: miter;
}
.g9_128{
fill: none;
stroke: #000000;
stroke-width: 0.381;
stroke-linecap: butt;
stroke-linejoin: miter;
}
]]></style>
</defs>
<path d="M141.2,788.3v43H673.7v-43H141.2Z" class="g0_128"/>
<image clip-path="url(#c0_128)" preserveAspectRatio="none" x="342" y="322" width="334" height="238" xlink:href="img/1.jpg"/>
<image clip-path="url(#c1_128)" preserveAspectRatio="none" x="454" y="362" width="196" height="146" xlink:href="img/2.jpg"/>
<image clip-path="url(#c2_128)" preserveAspectRatio="none" x="549" y="393" width="74" height="80" xlink:href="img/3.jpg"/>
<path d="M391.4,426.7c.4,-1.7,1.7,-3,2.9,-4.2c1.8,-1.8,3.7,-3.5,5.6,-5.2c2.8,-2.4,6.1,-4.3,9.4,-6c4.2,-2.2,9,-4.7,13.8,-5c4.4,-.3,9.1,-.2,13.5,.2c10.7,1,21.8,1.7,31.6,6.8c2.8,1.5,5.6,3.1,8.3,4.9c2.2,1.5,4.4,3.1,6.8,4.1c.2,-.6,-.1,-.7,-.4,-1.2c-.5,-.8,-.9,-1.6,-1.3,-2.4c-.3,-.7,-.9,-1.9,-1.4,-2.5c.4,.8,1.2,1.2,1.7,2c.6,1,.4,1.5,.6,2.5c.1,.9,.6,2.1,.3,3c-.6,1.9,-4.4,.5,-5.9,.4c-1.6,-.2,-3.2,-.1,-4.8,-.1q-.2,0,.1,0m19.2,.5c-.4,-3.6,4.7,-6.5,7.1,-8.2c4.5,-3.2,9.4,-4.8,14.4,-7c4.1,-1.7,8.4,-2.1,12.8,-2.5c4.7,-.4,9.1,-.1,13.8,.3c4,.3,8.2,1.3,12.1,2.3c3.7,.9,7.7,2.4,10.9,4.5c1.8,1.2,3.7,2.4,5.5,3.6c1.1,.7,2.1,1.4,3,2.4c.7,.7,1.6,1.1,2.2,1.9c-.5,-1.2,-1.1,-2.2,-1.6,-3.3c-.5,-1,-.3,-2.5,-.9,-3.4c1.7,2.7,-1,6.5,1.2,8.8c-1.2,-1.3,-4.6,-1.7,-6.4,-2c-1.5,-.4,-2.9,-.3,-4.5,-.3" class="g1_128"/>
<path d="M139.2,186.8c4.9,0,8.9,-4,8.9,-9c0,-4.9,-4,-8.9,-8.9,-8.9c-4.9,0,-8.9,4,-8.9,8.9c0,5,4,9,8.9,9Z" class="g2_128"/>
<path d="M139.2,186.8c4.9,0,8.9,-4,8.9,-9c0,-4.9,-4,-8.9,-8.9,-8.9c-4.9,0,-8.9,4,-8.9,8.9c0,5,4,9,8.9,9ZM580.8,433c-1.1,2.1,-1.9,4.2,-3.6,6c-1.9,2.1,-4,3.7,-6,5.6c-2.7,2.5,-6,3.9,-9.4,4.7c-2.2,.6,-4.5,1.1,-6.8,1.5c-2.3,.4,-4.7,1.1,-7.2,1.4c-4.5,.5,-9,.2,-13.6,.1c-3.9,-.2,-7.9,-1,-11.7,-2.3c-3.5,-1.2,-7.3,-2.3,-10.6,-4.1c-2.4,-1.3,-4.6,-2.6,-6.8,-4.4c-.9,-.8,-1.8,-1.6,-2.8,-2.4c-.5,-.3,-1.1,-.7,-1.4,-1.1c-.4,-.3,-.9,-1,-1.3,-1.2c1.1,1,3.3,1.4,4.7,2c1.2,.5,2.1,.6,3.4,.6c-1.7,-1,-4,-1.4,-5.8,-2.1c-1.2,-.4,-3,-1.9,-4.3,-1.4c-.3,1.1,.6,2.5,.9,3.6c.4,1.4,.6,2.8,.9,4.1c.2,-.1,.2,-.3,.2,-.5m-7,-7c-.4,1.9,-1.8,3.4,-3,4.7c-1.8,2,-3.7,3.9,-5.7,5.7c-2.9,2.7,-6.2,4.8,-9.6,6.6c-4.3,2.4,-9.2,5.2,-14.2,5.6c-4.5,.3,-9.3,.2,-13.7,-.3C435.4,457.3,424,456.6,414,451c-2.9,-1.7,-5.8,-3.5,-8.5,-5.5c-2.2,-1.6,-4.5,-3.4,-7,-4.5c-.2,.7,.2,.8,.5,1.3c.4,.9,.9,1.8,1.3,2.7c.3,.8,.9,2.1,1.4,2.7c-.5,-.8,-1.2,-1.3,-1.7,-2.2c-.6,-1,-.5,-1.6,-.6,-2.7c-.2,-1,-.6,-2.3,-.3,-3.4c.6,-2,4.4,-.5,6,-.3c1.6,.1,3.2,0,4.9,0q.2,0,-.1,0M321.8,367.8c.8,2.2,.7,4.5,1.2,6.8c.4,1.3,1.1,2.4,1.7,3.6c.9,1.4,1.5,2.9,2.4,4.2c2.5,4,5.9,7.5,8.6,11.4c1.1,1.6,2.2,3.2,3.5,4.6c1.8,1.8,3.8,3.7,6.2,4.8c1.6,.7,3.2,1.2,4.7,2.1c1.8,1.1,3.7,2,5.6,2.8c1.6,.7,3.2,1.3,4.8,2c1.7,.8,3.4,1.7,5.2,2.3c3.4,1.2,6.4,3.3,9.7,4.8c1.3,.5,2.5,.9,3.7,1.7c1,.6,2.1,1.4,3.2,1.7c.3,0,.6,0,.9,.1c.1,.1,.3,.1,.5,.1c.2,.1,.3,.2,.3,.4c.6,.3,1.5,.4,2.1,.9c-.4,-.4,-.9,-.5,-1.3,-.8c-.6,-.6,-1.1,-1.6,-1.4,-2.4c-.3,-.7,-.3,-1.1,-.9,-1.6c.6,.6,.9,1.3,1.4,1.9c.5,.7,1.3,1.3,1.8,2c.3,.6,.7,1.8,.6,2.5c-1.7,.4,-3.8,-.3,-5.6,-.5c-.4,0,-1,.2,-1.4,.1c-.6,-.1,-1.6,-1.2,-1.8,-.1m10.6,19.7c-1.8,1.2,-3.7,2.5,-5.3,4c-1.9,1.7,-4.5,2.6,-6.7,3.8c-.9,.5,-1.7,1.3,-2.6,1.8c-1.1,.5,-2.2,1,-3.3,1.6c-1.1,.5,-2.4,1.2,-3.6,1.5c-1,.3,-2.1,.3,-3.1,.5c-3.3,.4,-6.6,1.6,-9.9,1.5c-3.5,0,-7.3,.5,-10.6,-.4c-1.8,-.4,-3.9,-.2,-5.8,-.4c-1.9,-.2,-3.7,-.7,-5.6,-.8c-.8,-.1,-1.5,-.1,-2.3,-.1c-1.3,0,-2.3,-.6,-3.5,-.8c-1.3,-.2,-2.3,-.4,-3.5,-.9c-1.1,-.4,-2,-.3,-3.2,-.6c-1,-.2,-2,-.8,-3,-.9c-.9,0,-1.2,0,-1.9,-.4c-.6,-.3,-1.2,-.7,-1.7,-.9c-1.2,-.4,-2.4,-.4,-3.6,-.8c-1.2,-.4,-2.2,-1.4,-3.4,-2.1c-.3,-.3,-.7,-.6,-1.1,-.7c-.3,0,-.6,-.1,-.9,-.3c-.5,-.3,-.2,-.7,-.8,-.7c.3,1.1,.8,1.9,1.4,2.9c.3,.6,.4,1.8,1,2.2c-.9,-.7,-1.4,-3.1,-1.7,-4.2c-.3,-.7,-.9,-2.1,-.7,-2.8c1.1,.2,1.8,.1,3,0c.4,-.1,4.3,-.5,3.6,-1.3" class="g1_128"/>
<path d="M214.4,340.3c4.3,-.9,7.1,-5.1,6.2,-9.4c-.9,-4.4,-5.1,-7.2,-9.4,-6.3c-4.3,.9,-7.1,5.1,-6.2,9.4c.8,4.4,5.1,7.1,9.4,6.3Z" class="g3_128"/>
<path d="M214.4,340.3c4.3,-.9,7.1,-5.1,6.2,-9.4c-.9,-4.4,-5.1,-7.2,-9.4,-6.3c-4.3,.9,-7.1,5.1,-6.2,9.4c.8,4.4,5.1,7.1,9.4,6.3Z" class="g4_128"/>
<path d="M421.7,295.5c4.3,-1,7,-5.3,6.1,-9.6c-1,-4.3,-5.3,-7,-9.6,-6c-4.3,1,-7,5.3,-6,9.6c1,4.3,5.2,6.9,9.5,6Z" class="g3_128"/>
<path d="M421.7,295.5c4.3,-1,7,-5.3,6.1,-9.6c-1,-4.3,-5.3,-7,-9.6,-6c-4.3,1,-7,5.3,-6,9.6c1,4.3,5.2,6.9,9.5,6Z" class="g5_128"/>
<path d="M487.8,581c4.4,-.3,7.7,-4.2,7.4,-8.6c-.4,-4.4,-4.2,-7.6,-8.6,-7.3c-4.4,.3,-7.7,4.2,-7.4,8.6c.4,4.4,4.2,7.7,8.6,7.3Z" class="g3_128"/>
<path d="M487.8,581c4.4,-.3,7.7,-4.2,7.4,-8.6c-.4,-4.4,-4.2,-7.6,-8.6,-7.3c-4.4,.3,-7.7,4.2,-7.4,8.6c.4,4.4,4.2,7.7,8.6,7.3Z" class="g6_128"/>
<path d="M217.8,556.3c4.4,-.3,7.7,-4.1,7.4,-8.5c-.4,-4.4,-4.2,-7.7,-8.6,-7.4c-4.4,.4,-7.7,4.2,-7.4,8.6c.4,4.4,4.2,7.7,8.6,7.3Z" class="g3_128"/>
<path d="M217.8,556.3c4.4,-.3,7.7,-4.1,7.4,-8.5c-.4,-4.4,-4.2,-7.7,-8.6,-7.4c-4.4,.4,-7.7,4.2,-7.4,8.6c.4,4.4,4.2,7.7,8.6,7.3Z" class="g6_128"/>
<path d="M90.8,636.3h726" class="g7_128"/>
<path d="M613,341.6c4.4,-.3,7.6,-4.2,7.3,-8.5c-.3,-4.4,-4.2,-7.7,-8.6,-7.4c-4.4,.3,-7.7,4.2,-7.3,8.6c.3,4.4,4.2,7.7,8.6,7.3Z" class="g3_128"/>
<path d="M613,341.6c4.4,-.3,7.6,-4.2,7.3,-8.5c-.3,-4.4,-4.2,-7.7,-8.6,-7.4c-4.4,.3,-7.7,4.2,-7.3,8.6c.3,4.4,4.2,7.7,8.6,7.3Z" class="g6_128"/>
<path d="M657.4,500.6c4.4,-.3,7.7,-4.2,7.4,-8.6c-.4,-4.4,-4.2,-7.7,-8.6,-7.3c-4.4,.3,-7.7,4.2,-7.4,8.6c.4,4.4,4.2,7.6,8.6,7.3Z" class="g3_128"/>
<path d="M657.4,500.6c4.4,-.3,7.7,-4.2,7.4,-8.6c-.4,-4.4,-4.2,-7.7,-8.6,-7.3c-4.4,.3,-7.7,4.2,-7.4,8.6c.4,4.4,4.2,7.6,8.6,7.3Z" class="g6_128"/>
<path d="M678.8,267.5c-4.3,-.5,-7.2,.8,-11,2.2c-3.4,1.2,-5.7,1,-9.1,1.5c-2.9,.4,-5.8,1.9,-8.7,2.3c-2.4,.3,-5.7,-.5,-7.7,1c3,-1.5,2.4,-5,5.1,-6.6c-1.2,2.2,-4.5,4.4,-4.8,6.8c1.8,.9,3.5,2.1,4.5,3.9c-1.7,.3,-2.9,-.6,-3.3,-2.4m37.5,11.3c-4.6,2.5,-8.8,5.5,-11,10.4c-1.5,3.4,-4,9.3,-3.4,12.9c0,-2.8,-2.8,-1.7,-3.2,-4.4c2.3,2.8,4.8,5.9,8.8,1.3c-1,1,-2.8,2.4,-4.5,2.3" class="g7_128"/>
<g clip-path="url(#c3_128)">
<path d="M-4.5,13.7H-27.4m939.5,0H935M-4.5,1031.2H-27.4m939.5,0H935M13.7,-4.5V-27.4m0,1077v22.9m880,-1077V-27.4m0,1077v22.9" class="g8_128"/>
<path d="M-4.5,13.7H-27.4m939.5,0H935M-4.5,1031.2H-27.4m939.5,0H935M13.7,-4.5V-27.4m0,1077v22.9m880,-1077V-27.4m0,1077v22.9" class="g9_128"/>
</g>
</svg>