<?xml version="1.0" encoding="UTF-8" standalone="no"?>
<!DOCTYPE svg PUBLIC "-//W3C//DTD SVG 1.1//EN"
"http://www.w3.org/Graphics/SVG/1.1/DTD/svg11.dtd">
<svg viewBox="0 0 909 1286" version="1.1" xmlns="http://www.w3.org/2000/svg" xmlns:xlink="http://www.w3.org/1999/xlink">
<defs>
<clipPath id="c0_492"><path d="M0,1286.2V-.1H910.6V1286.2Z"/></clipPath>
<style type="text/css"><![CDATA[
.g0_492{
fill: #FFFFFF;
}
.g1_492{
fill: none;
stroke: #0000FF;
stroke-width: 0.733;
stroke-linecap: butt;
stroke-linejoin: bevel;
stroke-miterlimit: 3;
}
]]></style>
</defs>
<g clip-path="url(#c0_492)">
<path fill-rule="evenodd" d="M0,0H909.5V1286.2H0V0Z" class="g0_492"/>
<path d="M65.1,92.4H171.6M65.1,121.3h92.2m7.9,0h17.2m-117.3,29H242.2M65.1,179.4H176.3m-111.2,29H235.6m7.9,0h17m-195.4,29H206M65.1,266.5H218.9m7.8,0h17.1m7.9,0h15.7m-202.3,29H230.4M65.1,353.6h86.2m-78.9,29H189.9m-117.5,29H180.2M65.1,440.7h80m-80,28.9h84.1m7.7,0h17.3M65.1,498.7h98.8M65.1,527.8H191.6M65.1,556.7H178.8M65.1,585.8H233.4M65.1,614.9H193.4M65.1,643.8H295.3m-230.2,29H106M65.1,701.9H201.4m-136.3,29H257.2m-184.8,29H258.7M72.4,789H201.8M72.4,818H202.7M72.4,847H189.1M72.4,876.1H273.5m-201.1,29H198m-125.6,29h89.2M72.4,963.2h55M65.1,1083.3H212.4M65.1,1112.5H204m7.8,0h17.1M65.1,1141.4H187.7m-122.6,29H273.5" class="g1_492"/>
</g>
</svg>