<?xml version="1.0" encoding="UTF-8" standalone="no"?>
<!DOCTYPE svg PUBLIC "-//W3C//DTD SVG 1.1//EN"
"http://www.w3.org/Graphics/SVG/1.1/DTD/svg11.dtd">
<svg viewBox="0 0 811 1017" version="1.1" xmlns="http://www.w3.org/2000/svg" xmlns:xlink="http://www.w3.org/1999/xlink">
<defs>
<style type="text/css"><![CDATA[
.g0_107{
fill: #000;
}
]]></style>
</defs>
<path d="M410.9,209.3v3.2l-.3,-.2l-6.3,-2.9l-.4,-.1l.4,-.2l6.3,-2.9l.3,-.2v.3l-.2,.2l-6.3,2.9l-.1,-.3h.1l6.3,2.9l-.1,.3l-.1,-.1v-2.9Z" class="g0_107"/>
<path d="M410.5,209.3h.4v-3h-.4v3Z" class="g0_107"/>
<path d="M410.9,209.5h70.2v-.4H410.9v.4Z" class="g0_107"/>
<path d="M480.7,209.3h.4V182.4h-.4v26.9Z" class="g0_107"/>
<path d="M567.4,331.6v3.2l-.3,-.2l-6.2,-2.9l-.5,-.1l.5,-.2l6.2,-3l.3,-.1v.3l-.1,.2l-6.3,2.9l-.1,-.3h.1l6.3,2.9l-.2,.3v-3Z" class="g0_107"/>
<path d="M567.1,331.6h.3v-3h-.3v3Z" class="g0_107"/>
<path d="M567.5,331.7h41.9v-.3H567.5v.3Z" class="g0_107"/>
<path d="M609,359.3h.4V331.6H609v27.7Z" class="g0_107"/>
<image preserveAspectRatio="none" x="203" y="990" width="405" height="28" xlink:href="img/1.jpg"/>
</svg>