<?xml version="1.0" encoding="UTF-8" standalone="no"?>
<!DOCTYPE svg PUBLIC "-//W3C//DTD SVG 1.1//EN"
"http://www.w3.org/Graphics/SVG/1.1/DTD/svg11.dtd">
<svg viewBox="0 0 811 1017" version="1.1" xmlns="http://www.w3.org/2000/svg" xmlns:xlink="http://www.w3.org/1999/xlink">
<defs>
<style type="text/css"><![CDATA[
.g0_202{
fill: #CCCCCC;
}
.g1_202{
fill: #476B85;
}
.g2_202{
fill: #F7F5E8;
}
]]></style>
</defs>
<path d="M649.6,197.4C635.4,183.6,618.2,168.5,618.2,147.1c0,-22.6,16.9,-40.2,39.6,-40.2c23,0,36.5,16.2,36.5,38.5c0,26.8,-18.3,44.4,-41.4,55.1Zm-23.8,19.9C644.4,233.5,664,252,664,278.5c0,27.1,-17.9,50.2,-46.1,50.2c-28.1,0,-42,-19,-42,-45.7c0,-31.7,22,-54.4,49.9,-65.7Zm33.4,-11c26.5,-11.3,57.4,-27.5,57.4,-60.9c0,-30.3,-27.8,-46,-55.4,-46c-35,0,-68.7,23,-68.7,60.8c0,21.7,12,37.2,27.1,51.5c-30.9,13.2,-65.9,33.1,-65.9,71.6c0,35.4,29.8,52.9,62.1,52.9c40.6,0,75.6,-26.1,75.6,-68.7c0,-25.1,-15.4,-44.4,-32.2,-61.2Z" class="g0_202"/>
<path d="M256.9,283.9H706.1v-.4H256.9Z" class="g1_202"/>
<path d="M101.1,571.2H488.6V444.4H101.1Z" class="g2_202"/>
</svg>