<?xml version="1.0" encoding="UTF-8" standalone="no"?>
<!DOCTYPE svg PUBLIC "-//W3C//DTD SVG 1.1//EN"
"http://www.w3.org/Graphics/SVG/1.1/DTD/svg11.dtd">
<svg viewBox="0 0 931 1096" version="1.1" xmlns="http://www.w3.org/2000/svg" xmlns:xlink="http://www.w3.org/1999/xlink">
<defs>
<clipPath id="c0_199"><path d="M607.3,560.2V544.4h53.5v15.8Z"/></clipPath>
<style type="text/css"><![CDATA[
.g0_199{
fill: none;
stroke: #241F1F;
stroke-width: 0.991;
stroke-linecap: round;
stroke-linejoin: round;
}
.g1_199{
fill: none;
stroke: #241F1F;
stroke-width: 0.533;
stroke-linecap: round;
stroke-linejoin: round;
}
.g2_199{
fill: #241F1F;
}
.g3_199{
fill: none;
stroke: #241F1F;
stroke-width: 0.381;
stroke-linecap: round;
stroke-linejoin: round;
}
.g4_199{
fill: #FFF;
}
.g5_199{
fill: none;
stroke: #241F1F;
stroke-width: 0.687;
stroke-miterlimit: 10;
}
.g6_199{
fill: none;
stroke: #241F1F;
stroke-width: 0.537;
stroke-linecap: round;
stroke-linejoin: round;
}
.g7_199{
fill: none;
stroke: #241F1F;
stroke-width: 0.921;
stroke-linecap: round;
stroke-linejoin: round;
}
.g8_199{
fill: none;
stroke: #241F1F;
stroke-width: 0.766;
stroke-linecap: round;
stroke-linejoin: round;
}
.g9_199{
fill: none;
stroke: #241F1F;
stroke-width: 0.534;
stroke-linecap: round;
stroke-linejoin: round;
}
.ga_199{
fill: none;
stroke: #241F1F;
stroke-width: 0.916;
stroke-linecap: round;
stroke-linejoin: round;
}
.gb_199{
fill: none;
stroke: #241F1F;
stroke-width: 0.763;
stroke-linecap: round;
stroke-linejoin: round;
}
.gc_199{
fill: none;
stroke: #241F1F;
stroke-width: 0.531;
stroke-linecap: round;
stroke-linejoin: round;
}
.gd_199{
fill: none;
stroke: #241F1F;
stroke-width: 0.38;
stroke-linecap: round;
stroke-linejoin: round;
}
.ge_199{
fill: none;
stroke: #241F1F;
stroke-width: 0.913;
stroke-linecap: round;
stroke-linejoin: round;
}
.gf_199{
fill: none;
stroke: #241F1F;
stroke-width: 0.762;
stroke-linecap: round;
stroke-linejoin: round;
}
.gg_199{
fill: none;
stroke: #241F1F;
stroke-width: 0.997;
stroke-linecap: round;
stroke-linejoin: round;
}
.gh_199{
fill: none;
stroke: #241F1F;
stroke-width: 0.383;
stroke-linecap: round;
stroke-linejoin: round;
}
.gi_199{
fill: none;
stroke: #241F1F;
stroke-width: 0.481;
stroke-miterlimit: 10;
}
.gj_199{
fill: none;
stroke: #241F1F;
stroke-width: 0.99;
stroke-linecap: round;
stroke-linejoin: round;
}
.gk_199{
fill: none;
stroke: #241F1F;
stroke-width: 0.76;
stroke-miterlimit: 3;
}
]]></style>
</defs>
<path d="M624.5,152.2l31.1,-23.1M535.3,159l90,64.4" class="g0_199"/>
<path d="M601.7,208.4h5.6M571.9,187.5h84.4m-51.8,18.3V131.9" class="g1_199"/>
<path d="M656.3,187.5L655,185.6l5,1.9l-5,1.9Z" class="g2_199"/>
<path d="M535,187.5H656.3" class="g3_199"/>
<path d="M604.5,131.9l-1.9,1.3l1.9,-5l1.9,5Z" class="g2_199"/>
<path d="M604.5,237.1V131.9" class="g3_199"/>
<path d="M574.5,190.3v-5.6" class="g1_199"/>
<path d="M623,152.2c0,-.8,.7,-1.5,1.5,-1.5c.9,0,1.6,.7,1.6,1.5c0,.9,-.7,1.6,-1.6,1.6c-.8,0,-1.5,-.7,-1.5,-1.6Z" class="g4_199"/>
<path d="M623,152.2c0,-.8,.7,-1.5,1.5,-1.5c.9,0,1.6,.7,1.6,1.5c0,.9,-.7,1.6,-1.6,1.6c-.8,0,-1.5,-.7,-1.5,-1.6Z" class="g1_199"/>
<path d="M623,223.1c0,-.8,.7,-1.5,1.5,-1.5c.9,0,1.6,.7,1.6,1.5c0,.9,-.7,1.6,-1.6,1.6c-.8,0,-1.5,-.7,-1.5,-1.6Z" class="g4_199"/>
<path d="M623,223.1c0,-.8,.7,-1.5,1.5,-1.5c.9,0,1.6,.7,1.6,1.5c0,.9,-.7,1.6,-1.6,1.6c-.8,0,-1.5,-.7,-1.5,-1.6Z" class="g1_199"/>
<path d="M561.6,495h57.3m-52.2,29.9h43.4" class="g5_199"/>
<path clip-path="url(#c0_199)" d="M617.7,544.7h43.4" class="g5_199"/>
<path d="M651.5,604.3H767.1" class="g5_199"/>
<path d="M530.3,845.2H658m-113,59V781.4" class="g6_199"/>
<path d="M531,851.5c29.5,21.2,56.4,30,102.4,32.4m27.1,-95.3c-9.5,4,-17.4,8.9,-27.1,17.7" class="g7_199"/>
<path fill-rule="evenodd" d="M657.2,845.1L655.8,843l5.6,2.1l-5.6,2.1Z" class="g2_199"/>
<path fill-rule="evenodd" d="M545.1,782.7l-2.1,1.4l2.1,-5.6l2.2,5.6Z" class="g2_199"/>
<path d="M633.4,847.4v-4.6" class="g6_199"/>
<path d="M634.9,883.6c0,.9,-.6,1.5,-1.5,1.5c-.8,0,-1.5,-.6,-1.5,-1.5c0,-.8,.7,-1.5,1.5,-1.5c.9,0,1.5,.7,1.5,1.5Z" class="g4_199"/>
<path d="M634.9,883.6c0,.9,-.6,1.5,-1.5,1.5c-.8,0,-1.5,-.6,-1.5,-1.5c0,-.8,.7,-1.5,1.5,-1.5c.9,0,1.5,.7,1.5,1.5Z" class="g8_199"/>
<path d="M634.9,806.6c0,.9,-.7,1.6,-1.6,1.6c-.8,0,-1.5,-.7,-1.5,-1.6c0,-.8,.7,-1.5,1.5,-1.5c.9,0,1.6,.7,1.6,1.5Z" class="g2_199"/>
<path d="M634.9,806.6c0,.9,-.7,1.6,-1.6,1.6c-.8,0,-1.5,-.7,-1.5,-1.6c0,-.8,.7,-1.5,1.5,-1.5c.9,0,1.6,.7,1.6,1.5Z" class="g8_199"/>
<path d="M711.3,834.7H835.9M723.5,908V785.8" class="g9_199"/>
<path d="M716.2,825.8c10.2,-8.1,21.2,-14.4,26.4,-15.7c17.2,-4.4,17.6,1.3,35.9,-6c3.7,-1.4,11.9,-5.7,19.1,-6c7.3,-.2,13.5,3.6,17.6,6m22.1,72.2c-5.2,10.1,-11.9,18.4,-22.1,18.9" class="ga_199"/>
<path fill-rule="evenodd" d="M835.2,834.6l-1.4,-2.1l5.6,2.1l-5.6,2.1Z" class="g2_199"/>
<path fill-rule="evenodd" d="M723.5,786.7l-2.1,1.4l2.1,-5.6l2.1,5.6Z" class="g2_199"/>
<path d="M815.2,837v-4.6M778.5,837v-4.6" class="g9_199"/>
<path d="M780.1,804.1c0,.9,-.7,1.6,-1.5,1.6c-.9,0,-1.6,-.7,-1.6,-1.6c0,-.8,.7,-1.5,1.6,-1.5c.8,0,1.5,.7,1.5,1.5Z" class="g4_199"/>
<path d="M780.1,804.1c0,.9,-.7,1.6,-1.5,1.6c-.9,0,-1.6,-.7,-1.6,-1.6c0,-.8,.7,-1.5,1.6,-1.5c.8,0,1.5,.7,1.5,1.5Z" class="gb_199"/>
<path d="M780,865.2c0,.9,-.6,1.6,-1.5,1.6c-.8,0,-1.5,-.7,-1.5,-1.6c0,-.8,.7,-1.5,1.5,-1.5c.9,0,1.5,.7,1.5,1.5Z" class="g2_199"/>
<path d="M780,865.2c0,.9,-.6,1.6,-1.5,1.6c-.8,0,-1.5,-.7,-1.5,-1.6c0,-.8,.7,-1.5,1.5,-1.5c.9,0,1.5,.7,1.5,1.5Z" class="gb_199"/>
<path d="M816.7,804.2c0,.8,-.7,1.5,-1.5,1.5c-.8,0,-1.5,-.7,-1.5,-1.5c0,-.8,.7,-1.5,1.5,-1.5c.8,0,1.5,.7,1.5,1.5Z" class="g2_199"/>
<path d="M816.7,804.2c0,.8,-.7,1.5,-1.5,1.5c-.8,0,-1.5,-.7,-1.5,-1.5c0,-.8,.7,-1.5,1.5,-1.5c.8,0,1.5,.7,1.5,1.5Z" class="gb_199"/>
<path d="M816.7,895.2c0,.8,-.7,1.5,-1.5,1.5c-.9,0,-1.6,-.7,-1.6,-1.5c0,-.9,.7,-1.6,1.6,-1.6c.8,0,1.5,.7,1.5,1.6Z" class="g4_199"/>
<path d="M816.7,895.2c0,.8,-.7,1.5,-1.5,1.5c-.9,0,-1.6,-.7,-1.6,-1.5c0,-.9,.7,-1.6,1.6,-1.6c.8,0,1.5,.7,1.5,1.6Z" class="gb_199"/>
<path d="M631,971.9h13.2m-50.1,0h13.2m-.4,11l23,-.1m-66.8,0h5.6m-17.8,27.4h135m-120,18.3V950.7" class="gc_199"/>
<path d="M685.9,1010.2l-1.2,-1.9l5,1.9l-5,1.9Z" class="g2_199"/>
<path d="M565.9,950.7l-1.9,1.2l1.9,-5l1.9,5Z" class="g2_199"/>
<path d="M594.6,1012.9v-5.5" class="gc_199"/>
<path d="M605.4,971.9c0,-.9,.7,-1.6,1.5,-1.6c.9,0,1.6,.7,1.6,1.6c0,.8,-.7,1.5,-1.6,1.5c-.8,0,-1.5,-.7,-1.5,-1.5Z" class="g4_199"/>
<path d="M605.4,971.9c0,-.9,.7,-1.6,1.5,-1.6c.9,0,1.6,.7,1.6,1.6c0,.8,-.7,1.5,-1.6,1.5c-.8,0,-1.5,-.7,-1.5,-1.5Z" class="gd_199"/>
<path d="M593.1,971.9c0,-.9,.7,-1.6,1.5,-1.6c.9,0,1.6,.7,1.6,1.6c0,.8,-.7,1.5,-1.6,1.5c-.8,0,-1.5,-.7,-1.5,-1.5Z" class="g2_199"/>
<path d="M593.1,971.9c0,-.9,.7,-1.6,1.5,-1.6c.9,0,1.6,.7,1.6,1.6c0,.8,-.7,1.5,-1.6,1.5c-.8,0,-1.5,-.7,-1.5,-1.5Z" class="gd_199"/>
<path d="M564.3,982.8c0,-.8,.7,-1.5,1.6,-1.5c.8,0,1.5,.7,1.5,1.5c0,.9,-.7,1.6,-1.5,1.6c-.9,0,-1.6,-.7,-1.6,-1.6Z" class="g2_199"/>
<path d="M564.3,982.8c0,-.8,.7,-1.5,1.6,-1.5c.8,0,1.5,.7,1.5,1.5c0,.9,-.7,1.6,-1.5,1.6c-.9,0,-1.6,-.7,-1.6,-1.6Z" class="gd_199"/>
<path d="M593.1,982.8c0,-.8,.7,-1.5,1.5,-1.5c.9,0,1.6,.7,1.6,1.5c0,.9,-.7,1.6,-1.6,1.6c-.8,0,-1.5,-.7,-1.5,-1.6Z" class="g4_199"/>
<path d="M593.1,982.8c0,-.8,.7,-1.5,1.5,-1.5c.9,0,1.6,.7,1.6,1.5c0,.9,-.7,1.6,-1.6,1.6c-.8,0,-1.5,-.7,-1.5,-1.6Zm14.3,0h23m-64.5,0h28.4" class="gc_199"/>
<path d="M642.3,971.9c0,-.9,.7,-1.6,1.6,-1.6c.8,0,1.5,.7,1.5,1.6c0,.8,-.7,1.5,-1.5,1.5c-.9,0,-1.6,-.7,-1.6,-1.5Z" class="g4_199"/>
<path d="M642.3,971.9c0,-.9,.7,-1.6,1.6,-1.6c.8,0,1.5,.7,1.5,1.6c0,.8,-.7,1.5,-1.5,1.5c-.9,0,-1.6,-.7,-1.6,-1.5Z" class="gd_199"/>
<path d="M630,971.9c0,-.9,.7,-1.6,1.6,-1.6c.8,0,1.5,.7,1.5,1.6c0,.8,-.7,1.5,-1.5,1.5c-.9,0,-1.6,-.7,-1.6,-1.5Z" class="g2_199"/>
<path d="M630,971.9c0,-.9,.7,-1.6,1.6,-1.6c.8,0,1.5,.7,1.5,1.6c0,.8,-.7,1.5,-1.5,1.5c-.9,0,-1.6,-.7,-1.6,-1.5Z" class="gd_199"/>
<path d="M606.9,1012.9v-5.5m24.7,5.5v-5.5m12.3,5.5v-5.5m20.5,5.5v-5.5M563.1,971.9h5.6" class="gc_199"/>
<path d="M630,982.8c0,-.8,.7,-1.5,1.6,-1.5c.8,0,1.5,.7,1.5,1.5c0,.9,-.7,1.6,-1.5,1.6c-.9,0,-1.6,-.7,-1.6,-1.6Z" class="g4_199"/>
<path d="M630,982.8c0,-.8,.7,-1.5,1.6,-1.5c.8,0,1.5,.7,1.5,1.5c0,.9,-.7,1.6,-1.5,1.6c-.9,0,-1.6,-.7,-1.6,-1.6Zm13.7,.1l20.6,-.1" class="gc_199"/>
<path d="M662.9,982.8c0,-.8,.7,-1.5,1.5,-1.5c.9,0,1.5,.7,1.5,1.5c0,.9,-.6,1.6,-1.5,1.6c-.8,0,-1.5,-.7,-1.5,-1.6Z" class="g2_199"/>
<path d="M662.9,982.8c0,-.8,.7,-1.5,1.5,-1.5c.9,0,1.5,.7,1.5,1.5c0,.9,-.6,1.6,-1.5,1.6c-.8,0,-1.5,-.7,-1.5,-1.6Z" class="gd_199"/>
<path d="M644.2,982.8h20.3" class="gc_199"/>
<path d="M642.3,982.8c0,-.8,.7,-1.5,1.6,-1.5c.8,0,1.5,.7,1.5,1.5c0,.9,-.7,1.6,-1.5,1.6c-.9,0,-1.6,-.7,-1.6,-1.6Z" class="g2_199"/>
<path d="M642.3,982.8c0,-.8,.7,-1.5,1.6,-1.5c.8,0,1.5,.7,1.5,1.5c0,.9,-.7,1.6,-1.5,1.6c-.9,0,-1.6,-.7,-1.6,-1.6Z" class="gc_199"/>
<path d="M593.1,982.8c0,-.8,.7,-1.5,1.5,-1.5c.9,0,1.6,.7,1.6,1.5c0,.9,-.7,1.6,-1.6,1.6c-.8,0,-1.5,-.7,-1.5,-1.6Z" class="g4_199"/>
<path d="M593.1,982.8c0,-.8,.7,-1.5,1.5,-1.5c.9,0,1.6,.7,1.6,1.5c0,.9,-.7,1.6,-1.6,1.6c-.8,0,-1.5,-.7,-1.5,-1.6Z" class="gc_199"/>
<path d="M605.4,982.8c0,-.8,.7,-1.5,1.5,-1.5c.9,0,1.6,.7,1.6,1.5c0,.9,-.7,1.6,-1.6,1.6c-.8,0,-1.5,-.7,-1.5,-1.6Z" class="g2_199"/>
<path d="M605.4,982.8c0,-.8,.7,-1.5,1.5,-1.5c.9,0,1.6,.7,1.6,1.5c0,.9,-.7,1.6,-1.6,1.6c-.8,0,-1.5,-.7,-1.5,-1.6Z" class="gc_199"/>
<path d="M137.9,318.8H242.7M189,365.1V233.5" class="g1_199"/>
<path d="M189,250.5c15.7,3.2,34.3,16.9,46.8,25.4m-46.8,77C173.4,349.8,154.8,336,142.3,327.5" class="ge_199"/>
<path fill-rule="evenodd" d="M241.9,318.8l-1.4,-2.1l5.6,2.1l-5.6,2Z" class="g2_199"/>
<path fill-rule="evenodd" d="M188.9,235.2l-2.1,1.4l2.1,-5.6l2.1,5.6Z" class="g2_199"/>
<path d="M186.7,284.7h4.6m-4.5,68.2h4.5M186.8,250.5h4.5" class="g1_199"/>
<path d="M190.5,284.7c0,.8,-.7,1.5,-1.5,1.5c-.9,0,-1.5,-.7,-1.5,-1.5c0,-.9,.6,-1.5,1.5,-1.5c.8,0,1.5,.6,1.5,1.5Z" class="g2_199"/>
<path d="M190.5,284.7c0,.8,-.7,1.5,-1.5,1.5c-.9,0,-1.5,-.7,-1.5,-1.5c0,-.9,.6,-1.5,1.5,-1.5c.8,0,1.5,.6,1.5,1.5Z" class="gf_199"/>
<path d="M190.6,352.9c0,.8,-.7,1.5,-1.6,1.5c-.8,0,-1.5,-.7,-1.5,-1.5c0,-.9,.7,-1.5,1.5,-1.5c.9,0,1.6,.6,1.6,1.5Z" class="g4_199"/>
<path d="M190.6,352.9c0,.8,-.7,1.5,-1.6,1.5c-.8,0,-1.5,-.7,-1.5,-1.5c0,-.9,.7,-1.5,1.5,-1.5c.9,0,1.6,.6,1.6,1.5Z" class="gf_199"/>
<path d="M190.6,250.5c0,.8,-.7,1.5,-1.6,1.5c-.8,0,-1.5,-.7,-1.5,-1.5c0,-.8,.7,-1.5,1.5,-1.5c.9,0,1.6,.7,1.6,1.5Z" class="g4_199"/>
<path d="M190.6,250.5c0,.8,-.7,1.5,-1.6,1.5c-.8,0,-1.5,-.7,-1.5,-1.5c0,-.8,.7,-1.5,1.5,-1.5c.9,0,1.6,.7,1.6,1.5Z" class="gf_199"/>
<path d="M404.6,242c19.4,0,35.8,15.8,44.3,31.8m-44.3,-9.6c-3.8,4.8,-12.6,7.5,-22.1,7.5c-26.4,0,-41.6,-8.4,-54.7,-32.6" class="gg_199"/>
<path d="M305.2,286.3H448.9" class="gh_199"/>
<path fill-rule="evenodd" d="M448.9,286.3l-1.4,-2.1l5.6,2.1l-5.6,2.1Z" class="g2_199"/>
<path d="M371.5,341.5V232.4" class="gh_199"/>
<path fill-rule="evenodd" d="M371.5,232.4l-2.1,1.4l2.1,-5.7l2.1,5.7Z" class="g2_199"/>
<path d="M403.3,253.1c0,-.8,.6,-1.4,1.3,-1.4c.8,0,1.4,.6,1.4,1.4c0,.8,-.6,1.4,-1.4,1.4c-.7,0,-1.3,-.6,-1.3,-1.4Z" class="g2_199"/>
<path d="M403.3,253.1c0,-.8,.6,-1.4,1.3,-1.4c.8,0,1.4,.6,1.4,1.4c0,.8,-.6,1.4,-1.4,1.4c-.7,0,-1.3,-.6,-1.3,-1.4Z" class="gh_199"/>
<path d="M393.6,288.4v-4.2" class="g6_199"/>
<path d="M403.3,264.2c0,-.8,.6,-1.4,1.3,-1.4c.8,0,1.4,.6,1.4,1.4c0,.7,-.6,1.3,-1.4,1.3c-.7,0,-1.3,-.6,-1.3,-1.3m1.3,24.2v-4.2m-22.1,4.2v-4.2m-33.1,4.2v-4.2m11,4.2v-4.2m-22.1,4.2v-4.2m35.3,-20h-4.2m4.2,-11.1h-4.2m4.2,22.1h-4.2Z" class="g4_199"/>
<path d="M403.3,264.2c0,-.8,.6,-1.4,1.3,-1.4c.8,0,1.4,.6,1.4,1.4c0,.7,-.6,1.3,-1.4,1.3c-.7,0,-1.3,-.6,-1.3,-1.3Zm1.3,24.2v-4.2m-22.1,4.2v-4.2m-33.1,4.2v-4.2m11,4.2v-4.2m-22.1,4.2v-4.2m35.3,-20h-4.2m4.2,-11.1h-4.2m4.2,22.1h-4.2" class="g6_199"/>
<path d="M403.3,242c0,-.7,.6,-1.3,1.3,-1.3c.8,0,1.4,.6,1.4,1.3c0,.8,-.6,1.4,-1.4,1.4c-.7,0,-1.3,-.6,-1.3,-1.4m-29.7,0h-4.2m46.3,46.4v-4.2Z" class="g4_199"/>
<path d="M403.3,242c0,-.7,.6,-1.3,1.3,-1.3c.8,0,1.4,.6,1.4,1.3c0,.8,-.6,1.4,-1.4,1.4c-.7,0,-1.3,-.6,-1.3,-1.4Zm-29.7,0h-4.2m46.3,46.4v-4.2" class="g6_199"/>
<path d="M348,275.2c0,-.8,.6,-1.4,1.4,-1.4c.7,0,1.4,.6,1.4,1.4c0,.8,-.7,1.4,-1.4,1.4c-.8,0,-1.4,-.6,-1.4,-1.4Z" class="g2_199"/>
<path d="M348,275.2c0,-.8,.6,-1.4,1.4,-1.4c.7,0,1.4,.6,1.4,1.4c0,.8,-.7,1.4,-1.4,1.4c-.8,0,-1.4,-.6,-1.4,-1.4Z" class="gh_199"/>
<path d="M348,264.2c0,-.8,.6,-1.4,1.4,-1.4c.7,0,1.4,.6,1.4,1.4c0,.7,-.7,1.3,-1.4,1.3c-.8,0,-1.4,-.6,-1.4,-1.3m-20.7,24.2v-4.2m-11.1,4.2v-4.2m110.6,4.2v-4.2m11,4.2v-4.2m-64.2,35.2h-4.2m4.2,-11h-4.2m4.2,22.1h-4.2m4.2,-33.2h-4.2m2.1,44.2V232.4m-66.3,53.9H448.9Z" class="g4_199"/>
<path d="M348,264.2c0,-.8,.6,-1.4,1.4,-1.4c.7,0,1.4,.6,1.4,1.4c0,.7,-.7,1.3,-1.4,1.3c-.8,0,-1.4,-.6,-1.4,-1.3Zm-20.7,24.2v-4.2m-11.1,4.2v-4.2m110.6,4.2v-4.2m11,4.2v-4.2m-64.2,35.2h-4.2m4.2,-11h-4.2m4.2,22.1h-4.2m4.2,-33.2h-4.2m2.1,44.2V232.4m-66.3,53.9H448.9" class="g6_199"/>
<path d="M133.3,399.7H138" class="gi_199"/>
<path d="M351.3,535.9v-2.7m-67,2.7v-2.7m-33.5,1.4H385M316.6,491.1h2.8m-2.8,21.7h2.8M318,556.2V469.6" class="g1_199"/>
<path d="M306.1,469.9l.2,3.2m0,0l.4,2.7m0,0l.4,2.7m0,0l.6,4.2m0,0l.4,1.7m0,0l.5,1.8m0,0l.6,2.9m0,0l.6,2.2m0,0l.8,2m0,0l.6,1.7m0,0l1.2,2.7m0,0l1.5,2.5m0,0l1.4,1.9m0,0l2.8,2.9m0,0l2.9,2.1m0,0l2.6,1.5m0,0l2.9,1.4m0,0l2.8,1.1m0,0l2.9,.8m0,0l2.8,1m0,0l2.9,.5m0,0l2.6,.6m0,0l2.9,.4m0,0l2.8,.6m0,0l2.7,.4m0,0l2.8,.3m0,0l2.9,.2m0,0l2.8,.4m0,0l2.9,.2m0,0l2.6,.2m0,0l2.9,.4m0,0l2.6,.2m0,0l3.1,.2m0,0l2.6,.2m0,0H377m0,0l2.6,.2m0,0l3.1,.2m0,0l2,.1" class="gj_199"/>
<path d="M256.9,469.6H378.4c3.6,0,6.4,2.8,6.4,6.4v73.5c0,3.6,-2.8,6.4,-6.4,6.4H256.9c-3.5,0,-6.4,-2.8,-6.4,-6.4V476c0,-3.6,2.9,-6.4,6.4,-6.4Z" class="gk_199"/>
<path d="M191.7,838.2h4.8m110.9,0h4.8m-48.4,18.3h4.8m129.5,0h9.6M133.3,874.8H138m63.9,0h4.8m111.3,0h14.4m57,0h4.8M248.9,893.2h4.8" class="gi_199"/>
<path d="M159.5,1008.4h52.8" class="g0_199"/>
<path d="M159.5,983.7H261.7" class="g1_199"/>
<path d="M212.3,959h49.4" class="g0_199"/>
<path d="M212.3,1029V938.5" class="g1_199"/>
<path d="M159.5,983.7H261.7" class="g3_199"/>
<path fill-rule="evenodd" d="M261.7,983.7l-1.4,-2.1l5.6,2.1l-5.6,2.1Z" class="g2_199"/>
<path d="M212.3,1029V938.5" class="g3_199"/>
<path fill-rule="evenodd" d="M212.3,938.5l-2.1,1.3l2.1,-5.5l2.1,5.5Z" class="g2_199"/>
<path d="M210.8,959c0,-.8,.7,-1.5,1.5,-1.5c.9,0,1.6,.7,1.6,1.5c0,.9,-.7,1.6,-1.6,1.6c-.8,0,-1.5,-.7,-1.5,-1.6Z" class="g4_199"/>
<path d="M210.8,959c0,-.8,.7,-1.5,1.5,-1.5c.9,0,1.6,.7,1.6,1.5c0,.9,-.7,1.6,-1.6,1.6c-.8,0,-1.5,-.7,-1.5,-1.6Z" class="g1_199"/>
<path d="M210.8,983.7c0,-.8,.7,-1.5,1.5,-1.5c.9,0,1.6,.7,1.6,1.5c0,.9,-.7,1.6,-1.6,1.6c-.8,0,-1.5,-.7,-1.5,-1.6Z" class="g2_199"/>
<path d="M210.8,983.7c0,-.8,.7,-1.5,1.5,-1.5c.9,0,1.6,.7,1.6,1.5c0,.9,-.7,1.6,-1.6,1.6c-.8,0,-1.5,-.7,-1.5,-1.6Z" class="g3_199"/>
<path d="M210.8,1008.4c0,-.8,.7,-1.5,1.5,-1.5c.9,0,1.6,.7,1.6,1.5c0,.9,-.7,1.6,-1.6,1.6c-.8,0,-1.5,-.7,-1.5,-1.6Z" class="g4_199"/>
<path d="M210.8,1008.4c0,-.8,.7,-1.5,1.5,-1.5c.9,0,1.6,.7,1.6,1.5c0,.9,-.7,1.6,-1.6,1.6c-.8,0,-1.5,-.7,-1.5,-1.6Z" class="g1_199"/>
</svg>