<?xml version="1.0" encoding="UTF-8" standalone="no"?>
<!DOCTYPE svg PUBLIC "-//W3C//DTD SVG 1.1//EN"
"http://www.w3.org/Graphics/SVG/1.1/DTD/svg11.dtd">
<svg viewBox="0 0 907 1045" version="1.1" xmlns="http://www.w3.org/2000/svg" xmlns:xlink="http://www.w3.org/1999/xlink">
<defs>
<clipPath id="c0_261"><path d="M-2.6,1047.7V-2.6H910.2V1047.7Z"/></clipPath>
<style type="text/css"><![CDATA[
.g0_261{
fill: #393939;
}
.g1_261{
fill: none;
stroke: #404040;
stroke-width: 2.896;
stroke-linecap: butt;
stroke-linejoin: miter;
stroke-miterlimit: 4;
}
.g2_261{
fill: #FFFFFF;
}
.g3_261{
fill: none;
stroke: #ADADAD;
stroke-width: 1.526;
stroke-linecap: butt;
stroke-linejoin: miter;
stroke-miterlimit: 4;
}
.g4_261{
fill: none;
stroke: #FFFFFF;
stroke-width: 1.909;
stroke-linecap: butt;
stroke-linejoin: miter;
}
.g5_261{
fill: none;
stroke: #000000;
stroke-width: 0.381;
stroke-linecap: butt;
stroke-linejoin: miter;
}
]]></style>
</defs>
<path d="M92.4,264.3V796.5H815.1V264.3H92.4Z" class="g0_261"/>
<path d="M92.4,264.3V796.5H815.1V264.3H92.4Z" class="g1_261"/>
<path d="M92.3,263.9v14.8H816.5V263.9H92.3Z" class="g2_261"/>
<path d="M399.8,337.8c-3.7,-.8,-7.4,-1.5,-11.2,-1.1c-3.6,.3,-6.8,1.7,-10.4,1c-.2,-2,3.7,-2.3,5.2,-3c-1.9,-.2,-8.1,1.8,-7.1,4.9c1.1,3.2,7.5,-.9,7.7,4.1m284.3,7.8c-7.8,-3.9,-12,9.4,-13,14.5c-.8,4,-3.4,7.8,-3.9,11.8c-.8,-1.9,-1.8,-3.9,-2.2,-6c.2,3,-.2,6.2,.1,9.2c2.9,-.8,5.7,-3.7,8.5,-5.1M662,502.7c-12.6,-.1,-25.6,.8,-38.1,2.1c-3.9,.4,-5.2,1.7,-8.8,2.8c-3.7,1.1,-7.8,.4,-11.7,.4c-5.7,-.1,-11.5,0,-17.3,0c-17.5,0,-34.8,-3.8,-52.6,-3.2C528,505,522.6,506,517.1,506c-4.6,0,-9,-1,-13.6,-1.2c-9.1,-.4,-18.7,-.7,-27.9,.1c1.2,-.8,2.4,-1.6,3.6,-2.3c-5.5,-.9,-8.3,3.3,-11.7,6.7c4.8,-.7,9.9,-.3,14.8,-.3m-84.6,25.4c-7.9,0,-16.4,-.3,-23.5,3.4c-.9,-2.2,1.8,-4.2,2.3,-6.5c-2,1,-5.3,3.5,-6,5.9c1.7,1.5,4.1,1.1,6.1,2.5m-7.4,19c-2.2,-.9,-5.8,-1.2,-7.7,-2.2c-2.1,-1,-2.8,-3.6,-4.6,-5c-.8,2.3,1.5,5.9,2.7,8.1c-1.6,-3.1,-4.2,-5.6,-5,-9.2c3.8,-.4,8,.8,11.4,-1.2M638.3,714.1c-11.4,2.7,-23.5,2.6,-35.1,3.1c-12.5,.6,-25.1,2.8,-37.5,2c-20.9,-1.4,-41.6,-.9,-62.5,-3.8c-9.9,-1.4,-15,-1.9,-23.8,1.9c2.7,1,5.3,2.4,7.6,4c-4.2,.1,-9.8,-4.8,-12.8,-7.5c1.7,-2.1,4.4,-4.1,7,-5M374.5,769.1c-6.7,0,-13.2,1.1,-18.8,-3.1c-2.4,-1.8,-3.9,-4.3,-6.1,-6.2c.3,2.2,0,4.5,-.7,6.7c-.3,-4.2,-.9,-8.9,-1.3,-13.1c2.9,-.5,6.2,.7,8,-1.2" class="g3_261"/>
<g clip-path="url(#c0_261)">
<path d="M-4.5,13.7H-27.4m939.5,0H935M-4.5,1031.2H-27.4m939.5,0H935M13.7,-4.5V-27.4m0,1077v22.9m880,-1077V-27.4m0,1077v22.9" class="g4_261"/>
<path d="M-4.5,13.7H-27.4m939.5,0H935M-4.5,1031.2H-27.4m939.5,0H935M13.7,-4.5V-27.4m0,1077v22.9m880,-1077V-27.4m0,1077v22.9" class="g5_261"/>
</g>
</svg>