<svg viewBox="0 0 811 1017" version="1.1" xmlns="http://www.w3.org/2000/svg">
<defs>
<style>
.g0_568{fill:#FFF;}
.g1_568{fill:none;stroke:#231F20;stroke-width:0.763;stroke-dasharray:3,2;}
.g2_568{fill:none;stroke:#231F20;stroke-width:0.763;}
.g3_568{fill:#B1D9F3;}
.g4_568{fill:none;stroke:#231F20;stroke-width:0.763;stroke-linejoin:round;}
.g5_568{fill:none;stroke:#211E1E;stroke-width:0.763;}
.g6_568{fill:#211E1E;}
.g7_568{fill:none;stroke:#231F20;stroke-width:0.73;stroke-linejoin:round;}
.g8_568{fill:none;stroke:#231F20;stroke-width:0.739;stroke-linejoin:round;}
.g9_568{fill:none;stroke:#EE1D23;stroke-width:0.763;stroke-linejoin:round;stroke-dasharray:3,2;}
.ga_568{fill:#EE1D23;}
.gb_568{fill:none;stroke:#0197C2;stroke-width:0.763;stroke-linejoin:round;stroke-dasharray:3,2;}
.gc_568{fill:#0197C2;}
</style>
</defs>
<path d="M101.1 662.8H719.9V335.9H101.1V662.8Z" class="g0_568"/>
<path d="M660.5 377.1H606M281.8 551.4H227.3m270.1 0H442.9m270.2 0H658.6m1.9-147.3H606M660.5 431H606" class="g1_568"/>
<path d="M259.6 422.3H184.2m75.4 23.1H184.2M228 395.7v72.6" class="g2_568"/>
<path d="M303 418.7h71.4V389.4H303v29.3Z" class="g3_568"/>
<path d="M303 418.7h71.4V389.4H303v29.3ZM626.4 387H567.3V367.1h59.1m-48.8 0V387m10.3-19.9V387m10.3-19.9V387" class="g4_568"/>
<path d="M374.5 404.1H479.4" class="g5_568"/>
<path d="M481.2 403.3c-1.3-.4-2.1-.8-3.1-1.2V406c.3-.2 1.8-.8 3.1-1.2c1.3-.4 2.6-.6 3.3-.7c-.7-.1-2-.4-3.3-.8Z" class="g6_568"/>
<path d="M136.6 609.9h53.6" class="g5_568"/>
<path d="M192 609.1c-1.3-.3-2.1-.7-3.1-1.1v3.9c.3-.2 1.8-.8 3.1-1.2c1.3-.4 2.6-.7 3.4-.8c-.8-.1-2.1-.4-3.4-.8Z" class="g6_568"/>
<path d="M533.9 404.1h27.9" class="g5_568"/>
<path d="M563.6 403.3c-1.2-.4-2.1-.8-3.1-1.2V406c.4-.2 1.9-.8 3.1-1.2c1.4-.4 2.6-.6 3.4-.7c-.8-.1-2-.4-3.4-.8Z" class="g6_568"/>
<path d="M214.7 561.3v27.9" class="g5_568"/>
<path d="M215.4 591.1c.4-1.3 .8-2.1 1.2-3.1h-3.9c.2 .3 .8 1.8 1.2 3.1c.4 1.3 .7 2.5 .8 3.3c.1-.8 .3-2 .7-3.3Z" class="g6_568"/>
<path d="M142.4 481.1H393V336.7H142.4V481.1Z" class="g4_568"/>
<path d="M101.9 662.2H294V517.8H101.9V662.2Z" class="g7_568"/>
<path d="M533.9 404.1c0 8.2-11 14.8-24.5 14.8c-13.5 0-24.4-6.6-24.4-14.8c0-8.3 10.9-14.9 24.4-14.9c13.5 0 24.5 6.6 24.5 14.9Z" class="g3_568"/>
<path d="M533.9 404.1c0 8.2-11 14.8-24.5 14.8c-13.5 0-24.4-6.6-24.4-14.8c0-8.3 10.9-14.9 24.4-14.9c13.5 0 24.5 6.6 24.5 14.9Z" class="g4_568"/>
<path d="M195.7 624.5h38V595.3h-38v29.2Z" class="g3_568"/>
<path d="M195.7 624.5h38V595.3h-38v29.2Zm52-63.2H188.6V541.5h59.1m-48.8 0v19.8m10.3-19.8v19.8m10.3-19.8v19.8M626.4 414H567.3V394.1h59.1m-48.8 0V414m10.3-19.9V414m10.3-19.9V414m28.2 27H567.3V421.1h59.1m-48.8 0V441m10.3-19.9V441m10.3-19.9V441" class="g4_568"/>
<path d="M352.3 609.9h53.5" class="g5_568"/>
<path d="M407.6 609.1c-1.2-.3-2-.7-3.1-1.1v3.9c.4-.2 1.9-.8 3.1-1.2c1.4-.4 2.6-.7 3.4-.8c-.8-.1-2-.4-3.4-.8Z" class="g6_568"/>
<path d="M430.3 561.3v27.9" class="g5_568"/>
<path d="M431.1 591.1c.4-1.3 .7-2.1 1.1-3.1h-3.8c.2 .3 .8 1.8 1.1 3.1c.4 1.3 .7 2.5 .8 3.3c.1-.8 .4-2 .8-3.3Z" class="g6_568"/>
<path d="M308.7 662.2h201V517.8h-201V662.2Z" class="g4_568"/>
<path d="M411.3 624.5h38V595.3h-38v29.2Z" class="g3_568"/>
<path d="M411.3 624.5h38V595.3h-38v29.2Zm52-63.2H404.2V541.5h59.1m-48.7 0v19.8m10.3-19.8v19.8m10.3-19.8v19.8" class="g4_568"/>
<path d="M568 609.9h53.5" class="g5_568"/>
<path d="M623.3 609.1c-1.3-.3-2.1-.7-3.1-1.1v3.9c.4-.2 1.8-.8 3.1-1.2c1.4-.4 2.6-.7 3.4-.8c-.8-.1-2-.4-3.4-.8Z" class="g6_568"/>
<path d="M646 561.3v27.9" class="g5_568"/>
<path d="M646.8 591.1c.4-1.3 .7-2.1 1.1-3.1h-3.8c.1 .3 .7 1.8 1.1 3.1c.4 1.3 .7 2.5 .8 3.3c.1-.8 .4-2 .8-3.3Z" class="g6_568"/>
<path d="M524.3 662.2H718.9V517.8H524.3V662.2Z" class="g8_568"/>
<path d="M627 624.5h38V595.3H627v29.2Z" class="g3_568"/>
<path d="M627 624.5h38V595.3H627v29.2Zm52-63.2H619.9V541.5H679m-48.8 0v19.8m10.3-19.8v19.8m10.3-19.8v19.8M425.3 481.1H675.9V336.7H425.3V481.1Z" class="g4_568"/>
<path d="M258.8 455.9h13v44.3h-146v94.4" class="g9_568"/>
<path d="M126.6 596.4c.3-1.3 .7-2.1 1.1-3.1h-3.9c.2 .3 .8 1.8 1.2 3.1c.4 1.3 .7 2.5 .8 3.3c.1-.8 .4-2 .8-3.3Z" class="ga_568"/>
<path d="M258.8 433.4h23.3v66.8h58.8v94.4" class="g9_568"/>
<path d="M341.7 596.4c.4-1.3 .7-2.1 1.1-3.1H339c.1 .3 .7 1.8 1.1 3.1c.4 1.3 .7 2.5 .8 3.3c.1-.8 .4-2 .8-3.3Z" class="ga_568"/>
<path d="M258.8 410.8h33.6V491H556.2V594.6" class="g9_568"/>
<path d="M557 596.4c.4-1.3 .7-2.1 1.1-3.1h-3.8c.1 .3 .7 1.8 1.1 3.1c.4 1.3 .7 2.5 .8 3.3c.1-.8 .4-2 .8-3.3Z" class="ga_568"/>
<path d="M657.3 416.7h9.9v92.7H264.4v14.2" class="gb_568"/>
<path d="M265.2 525.4c.4-1.2 .7-2 1.1-3h-3.8c.1 .3 .7 1.8 1.1 3c.4 1.4 .7 2.6 .8 3.4c.1-.8 .4-2 .8-3.4Z" class="gc_568"/>
<path d="M657.3 389.7h28v62.8H480.8v71.1" class="gb_568"/>
<path d="M481.6 525.4c.4-1.2 .7-2 1.2-3h-3.9c.2 .3 .8 1.8 1.1 3c.4 1.4 .7 2.6 .8 3.4c.1-.8 .4-2 .8-3.4Z" class="gc_568"/>
<path d="M657.3 363.7h37.4V523.6" class="gb_568"/>
<path d="M695.5 525.4c.4-1.2 .7-2 1.1-3h-3.8c.2 .3 .7 1.8 1.1 3c.4 1.4 .7 2.6 .8 3.4c.1-.8 .4-2 .8-3.4Z" class="gc_568"/>
</svg>