<?xml version="1.0" encoding="UTF-8" standalone="no"?>
<!DOCTYPE svg PUBLIC "-//W3C//DTD SVG 1.1//EN"
"http://www.w3.org/Graphics/SVG/1.1/DTD/svg11.dtd">
<svg viewBox="0 0 811 1017" version="1.1" xmlns="http://www.w3.org/2000/svg" xmlns:xlink="http://www.w3.org/1999/xlink">
<defs>
<style type="text/css"><![CDATA[
.g0_168{
fill: #224867;
}
.g1_168{
fill: #000;
}
]]></style>
</defs>
<path d="M156.1,808H724.4V786.8H156.1V808Z" class="g0_168"/>
<path d="M524.1,224.5v3.2l-.2,-.1l-6.3,-2.9l-.4,-.2l.4,-.1l6.3,-3l.2,-.1v.3l-.1,.1l-6.3,3l-.1,-.3h.1l6.3,2.9l-.1,.3l-.1,-.1v-3Z" class="g1_168"/>
<path d="M523.8,224.5h.3v-2.9h-.3v2.9Z" class="g1_168"/>
<path d="M524.2,224.7h41.5v-.3H524.2v.3Z" class="g1_168"/>
<path d="M565.4,224.5h.3V197.6h-.3v26.9Z" class="g1_168"/>
<path d="M608,270.4v3.2l-.3,-.2l-6.3,-2.9l-.4,-.1l.4,-.2l6.3,-2.9l.3,-.2v.3l-.2,.2l-6.2,2.9l-.2,-.3h.2l6.2,2.9l-.1,.3l-.1,-.1v-2.9Z" class="g1_168"/>
<path d="M607.6,270.4h.4v-3h-.4v3Z" class="g1_168"/>
<path d="M608,270.6h14.3v-.4H608v.4Z" class="g1_168"/>
<path d="M621.9,295.1h.4V270.4h-.4v24.7Z" class="g1_168"/>
<image preserveAspectRatio="none" x="203" y="990" width="405" height="28" xlink:href="img/1.jpg"/>
</svg>