<?xml version="1.0" encoding="UTF-8" standalone="no"?>
<!DOCTYPE svg PUBLIC "-//W3C//DTD SVG 1.1//EN"
"http://www.w3.org/Graphics/SVG/1.1/DTD/svg11.dtd">
<svg viewBox="0 0 907 1045" version="1.1" xmlns="http://www.w3.org/2000/svg" xmlns:xlink="http://www.w3.org/1999/xlink">
<defs>
<clipPath id="c0_156"><path d="M259.7,601.6C237.6,586.8,212.3,586,220.7,544c4.4,-22.4,21.2,-31.3,40.4,-39.3h20.8c48.6,22.1,37.3,76.6,-5.5,96.9Z"/></clipPath>
<clipPath id="c1_156"><path d="M540.2,534.2c-22,-14.8,-47.3,-15.6,-38.9,-57.6c4.4,-22.4,21.2,-31.3,40.3,-39.3h20.9c48.6,22.2,37.3,76.6,-5.5,96.9Z"/></clipPath>
<clipPath id="c2_156"><path d="M540.2,689.6C518.2,674.8,492.9,674,501.3,632c4.4,-22.4,21.2,-31.3,40.3,-39.3h20.9c48.6,22.1,37.3,76.6,-5.5,96.9Z"/></clipPath>
<clipPath id="c3_156"><path d="M535.3,661.6V661H535v-1h-.3v-1.3h-.4v.3H534c-.6,-2.2,-3.1,-5.3,-4.2,-8.4h.3c.3,.5,.4,.2,.3,1.3c1.4,.8,2.6,2.7,3.3,4.2h.3c-.9,-5.2,-5.9,-8.6,-7.8,-13.4c-1.3,-.6,-1.8,-2.1,-2.3,-3.5h-.3v.3h-.3c-.3,-3.9,-4,-8.4,-5.9,-12.1c10.4,-3.4,22.7,-7,32.6,-12h1.3c1.1,.7,2.3,1.7,2.9,2.9h.4V618h.3v.3h.3c.4,-.2,.6,-.6,1.3,-.6c-.6,-1.2,-1.3,-2.6,-1.3,-4.3c2,-1.2,4.9,-3.3,6.2,-5.2h1v.3h.3v.4h.3c2.7,-1.9,8.9,-4.8,8.8,-9.2c2.1,-1.2,4.6,-2.9,5.9,-4.9H579v.4h.3v.6h.4v.7h.3v1h.3v-2.7h.3v-.3h1c4.4,2.6,9.3,5.1,13.7,7.5c4.7,2.6,10.9,4,12.9,9.4v.7c-.2,.5,-.5,1.2,-.8,1.6c-6.6,2.9,-13.6,11.7,-18.6,16.7c-7.1,7.1,-15.8,12.7,-25.4,17.2c-8.8,4.2,-19,8.4,-26.8,14Z"/></clipPath>
<clipPath id="c4_156"><path d="M538.1,504.5v-.6h-.3v-1h-.3v-1.3h-.3v.3h-.4c-.6,-2.3,-3.1,-5.3,-4.2,-8.5h.3c.3,.5,.4,.2,.4,1.3c1.3,.9,2.5,2.8,3.2,4.3h.3c-.9,-5.2,-5.9,-8.7,-7.8,-13.4c-1.3,-.7,-1.7,-2.2,-2.3,-3.6h-.3v.3h-.3c-.2,-3.8,-4,-8.3,-5.9,-12c10.4,-3.5,22.8,-7,32.6,-12.1h1.3c1.2,.7,2.4,1.7,3,3h.3v-.4h.3v.4h.3c.5,-.2,.6,-.7,1.3,-.7c-.6,-1.2,-1.2,-2.5,-1.3,-4.2c2,-1.2,4.9,-3.3,6.2,-5.2h1v.3h.3v.3h.4c2.7,-1.8,8.9,-4.7,8.8,-9.1c2,-1.3,4.5,-2.9,5.8,-4.9h1.3v.3h.4v.7h.3v.6h.3v1h.3v-2.6h.4v-.3h1c4.4,2.5,9.2,5,13.6,7.5c4.8,2.6,11,4,13,9.4v.6c-.3,.5,-.6,1.2,-.9,1.7c-6.5,2.9,-13.6,11.6,-18.6,16.6c-7.1,7.1,-15.8,12.7,-25.4,17.3c-8.8,4.2,-19,8.4,-26.7,14Z"/></clipPath>
<clipPath id="c5_156"><path d="M-2.6,1047.7V-2.6H910.2V1047.7Z"/></clipPath>
<style type="text/css"><![CDATA[
.g0_156{
fill: none;
stroke: #0D0D0D;
stroke-width: 1.527;
stroke-linecap: butt;
stroke-linejoin: bevel;
stroke-miterlimit: 12;
}
.g1_156{
fill: #0D0D0D;
}
.g2_156{
fill: none;
stroke: #636363;
stroke-width: 1.527;
stroke-linecap: butt;
stroke-linejoin: bevel;
stroke-miterlimit: 12;
}
.g3_156{
fill: none;
stroke: #FFFFFF;
stroke-width: 1.909;
stroke-linecap: butt;
stroke-linejoin: miter;
}
.g4_156{
fill: none;
stroke: #000000;
stroke-width: 0.381;
stroke-linecap: butt;
stroke-linejoin: miter;
}
]]></style>
</defs>
<image clip-path="url(#c0_156)" preserveAspectRatio="none" x="218" y="502" width="102" height="102" xlink:href="img/1.jpg"/>
<image clip-path="url(#c1_156)" preserveAspectRatio="none" x="498" y="434" width="102" height="103" xlink:href="img/2.jpg"/>
<image clip-path="url(#c2_156)" preserveAspectRatio="none" x="498" y="590" width="102" height="102" xlink:href="img/3.jpg"/>
<path d="M312.5,530.9c0,0,71.1,-94.9,177.4,-55" class="g0_156"/>
<path d="M497.8,478.8l-8.7,-7.4l.8,4.5l-3.6,2.8l11.5,.1Z" class="g1_156"/>
<path d="M311.3,573.4c0,0,72.5,113.3,178.8,65.5" class="g0_156"/>
<path d="M497.8,635.5l-11.4,.8l3.7,2.6l-.5,4.5l8.2,-7.9Z" class="g1_156"/>
<path d="M678.4,441.4C672.9,436.6,662.1,427.8,654.2,428c-8.2,.2,-22.2,11.7,-24,19.5c-.8,-2.3,-1.5,-4.7,-1.3,-7.2c-1.2,3.2,-1.9,6.7,-1.3,10.1c4.5,-2,8.6,-3.4,13.6,-4M153.8,508.7c-2.5,13.7,3.6,20.7,17.8,21.2c5.3,.1,17.2,1.6,21.3,-1.5c-1.7,-2.2,-4.6,-4,-7.1,-5.3c4.6,1.7,9.4,3,13.8,5.4c-1,4.9,-6.7,9.4,-9.8,13.2" class="g2_156"/>
<image clip-path="url(#c3_156)" preserveAspectRatio="none" x="516" y="594" width="92" height="68" xlink:href="img/4.jpg"/>
<path d="M658.9,611.7c-.3,-1.7,-2,-2.4,-3.5,-2.9c-1.2,-.4,-2.5,-.8,-3.7,-.9c-1.3,-.1,-2.7,-.2,-4,-.1c-1.4,0,-2.9,.2,-4.2,.4c-1.2,.2,-2.4,.3,-3.5,.5c-1.1,.3,-1.9,.8,-2.9,1.2c-.5,.2,-1,.3,-1.5,.4c-.7,.3,-1.5,.6,-2.3,.9c-.8,.3,-1.6,.5,-2.3,1c-.3,.3,-.6,.5,-.9,.6c-.3,0,-.7,.2,-1,.3c-.3,.2,-.6,.5,-.9,.8c-.3,.2,-.6,.2,-1,.4c-.8,.3,-1.5,.8,-2.3,1.2c-.2,.1,-.5,.3,-.8,.5c-.2,0,-.4,.1,-.6,.2c.1,-.3,.2,-.5,.3,-.7c.4,-.8,.7,-1.7,.9,-2.5c.2,-.5,.5,-1,.6,-1.5c.1,-.2,0,-.4,.1,-.5c-.4,.7,-.7,1.5,-1.1,2.3c-.6,1,-.9,2.1,-1.4,3c-.2,.3,-.5,.8,0,1c.4,0,.7,-.1,1.1,-.2c.7,-.2,1.4,-.4,2.1,-.4c.7,0,1.5,.2,2.1,.1" class="g2_156"/>
<image clip-path="url(#c4_156)" preserveAspectRatio="none" x="519" y="437" width="92" height="68" xlink:href="img/5.jpg"/>
<g clip-path="url(#c5_156)">
<path d="M-4.5,13.7H-27.4m939.5,0H935M-4.5,1031.2H-27.4m939.5,0H935M13.7,-4.5V-27.4m0,1077v22.9m880,-1077V-27.4m0,1077v22.9" class="g3_156"/>
<path d="M-4.5,13.7H-27.4m939.5,0H935M-4.5,1031.2H-27.4m939.5,0H935M13.7,-4.5V-27.4m0,1077v22.9m880,-1077V-27.4m0,1077v22.9" class="g4_156"/>
</g>
</svg>