<?xml version="1.0" encoding="UTF-8" standalone="no"?>
<!DOCTYPE svg PUBLIC "-//W3C//DTD SVG 1.1//EN"
"http://www.w3.org/Graphics/SVG/1.1/DTD/svg11.dtd">
<svg viewBox="0 0 931 1096" version="1.1" xmlns="http://www.w3.org/2000/svg" xmlns:xlink="http://www.w3.org/1999/xlink">
<defs>
<clipPath id="c0_374"><path d="M730.1,508.4c-.2,0,-.3,0,-.4,0c-4.2,-.6,-6.3,-3.6,-10.2,-3.6c-.4,0,-.8,0,-1.3,.1c-2.2,.4,-7,2.8,-11.7,2.8c-.9,0,-1.8,-.1,-2.7,-.3c-5.4,-1.4,-7.6,-4.4,-13,-6.5c-1.2,-.4,-2.3,-.6,-3.4,-.6c-2.8,0,-5.3,1.1,-8,2.2c-2.6,1.2,-5.3,2.3,-8.3,2.3c-2,0,-4.1,-.5,-6.4,-1.8c-1,-.5,-1.9,-.8,-2.9,-.8c-3.6,0,-7.2,3.3,-9.1,3.6c-2.4,.8,-4.8,1.1,-7.1,1.1c-6,0,-11.1,-2.2,-14.5,-3.5c-.8,-.3,-1.6,-.4,-2.4,-.4c-1.4,0,-2.8,.4,-4.1,.9c-1.3,.4,-2.5,.9,-3.6,.9c-1.5,0,-2.7,-.8,-3.5,-3.4c-9.8,1.8,-23.9,3.9,-35.5,3.9c-4.1,0,-7.8,-.3,-11,-.9c-6.9,0,-10.4,1,-13.9,1c-2.7,0,-5.5,-.6,-10,-3.1V382H784.8V502.8c-1.1,-.2,-2.7,-.4,-4.6,-.4c-6.8,0,-17.9,1.5,-28,3c-10.1,1.5,-19.3,3,-22.1,3Z"/></clipPath>
<clipPath id="c1_374"><path d="M585.6,432.4c-10.5,0,-20.6,-5.8,-19.8,-15.6c.4,-5.9,2.2,-12.4,8.1,-12.7h.3c4.3,0,5,5.5,9.2,7c1,.3,1.9,.4,2.8,.4c2.4,0,4.6,-1,6.8,-2.1c2.2,-1.1,4.4,-2.2,6.9,-2.2c.9,0,1.8,.2,2.8,.5c5,1.9,8.4,4.1,10.2,9.1c3.7,10.3,-12.7,14.6,-23.4,15.3c-1.3,.2,-2.6,.3,-3.9,.3Z"/></clipPath>
<clipPath id="c2_374"><path d="M507.2,1030.4V921.3H794.5v109.1Z"/></clipPath>
<clipPath id="c3_374"><path d="M208.8,253.8V225.5h56v28.3Z"/></clipPath>
<clipPath id="c4_374"><path d="M395.3,418.8c-4.2,0,-9.3,-4.5,-12,-11.3c-3.5,-8,-2.6,-16.8,1.8,-18.9c.8,-.4,1.6,-.6,2.5,-.6c4.1,0,9.1,4.4,11.9,11.2c3.4,8,2.5,16.8,-1.8,19c-.8,.4,-1.6,.6,-2.4,.6Z"/></clipPath>
<clipPath id="c5_374"><path d="M382.2,528c-1.7,-4.3,-2.8,-9.8,-2.8,-15.7c0,-13.6,5.6,-24.9,12.3,-24.9c6.7,0,12.4,11.3,12.4,24.9c0,5.9,-1.1,11.4,-2.9,15.7Z"/></clipPath>
<clipPath id="c6_374"><path d="M390.3,537.1c-3.2,-.8,-6.1,-4.2,-8.1,-9.1h19c-2,4.9,-4.9,8.3,-8.1,9.1Z"/></clipPath>
<clipPath id="c7_374"><path d="M88.7,537.3C81.3,537.3,75,525.9,75,512.3c0,-13.6,6.2,-24.9,13.6,-24.9h98.1L386.6,387.7c-4.6,2.3,-6.8,11.8,-3.3,19.8c2.8,6.9,8.2,11.2,12.3,11.2c.7,0,1.4,-.2,2.1,-.5L262.4,487.4H391.7c-6.3,0,-12.3,11.3,-12.3,24.9c0,13.6,5.7,25,13.3,25Z"/></clipPath>
<clipPath id="c8_374"><path d="M75,559V381.6H420.1V559Z"/></clipPath>
<clipPath id="c9_374"><path d="M205.1,756.6V724h63.4v32.6Z"/></clipPath>
<style type="text/css"><![CDATA[
.g0_374{
fill: #7BCFDB;
}
.g1_374{
fill: #7CCFDC;
}
.g2_374{
fill: #7CCFDD;
}
.g3_374{
fill: #7DCFDD;
}
.g4_374{
fill: #7ECFDE;
}
.g5_374{
fill: #7FD0DF;
}
.g6_374{
fill: #80CFDF;
}
.g7_374{
fill: #81D0E0;
}
.g8_374{
fill: #82D0E1;
}
.g9_374{
fill: #82CFE2;
}
.ga_374{
fill: #83D0E3;
}
.gb_374{
fill: #84D0E4;
}
.gc_374{
fill: #85D0E5;
}
.gd_374{
fill: #86D1E6;
}
.ge_374{
fill: #86D0E6;
}
.gf_374{
fill: #87D0E7;
}
.gg_374{
fill: #88D1E8;
}
.gh_374{
fill: #8AD1E8;
}
.gi_374{
fill: #89D1E9;
}
.gj_374{
fill: #8AD1E9;
}
.gk_374{
fill: #8CD1EA;
}
.gl_374{
fill: #8CD1EB;
}
.gm_374{
fill: #8DD1EB;
}
.gn_374{
fill: #8ED1EC;
}
.go_374{
fill: #8ED1ED;
}
.gp_374{
fill: #8FD2ED;
}
.gq_374{
fill: #90D1EE;
}
.gr_374{
fill: #90D1EF;
}
.gs_374{
fill: #91D2EF;
}
.gt_374{
fill: #92D2EF;
}
.gu_374{
fill: #92D2F0;
}
.gv_374{
fill: #93D2F1;
}
.gw_374{
fill: #94D2F1;
}
.gx_374{
fill: #95D2F2;
}
.gy_374{
fill: #96D2F2;
}
.gz_374{
fill: #97D2F3;
}
.g10_374{
fill: #C3DE91;
}
.g11_374{
fill: #C88C5F;
}
.g12_374{
fill: none;
stroke: #C3DE91;
stroke-width: 1.53;
stroke-miterlimit: 3;
}
.g13_374{
fill: #AFD78A;
}
.g14_374{
fill: #ADD687;
}
.g15_374{
fill: #AAD483;
}
.g16_374{
fill: #A7D380;
}
.g17_374{
fill: #A4D27D;
}
.g18_374{
fill: #A3D179;
}
.g19_374{
fill: #A0D077;
}
.g1a_374{
fill: #9DCF73;
}
.g1b_374{
fill: #9BCE71;
}
.g1c_374{
fill: #99CD6D;
}
.g1d_374{
fill: #96CC6A;
}
.g1e_374{
fill: #93CA66;
}
.g1f_374{
fill: #90C964;
}
.g1g_374{
fill: #8EC860;
}
.g1h_374{
fill: #8BC75D;
}
.g1i_374{
fill: #88C75A;
}
.g1j_374{
fill: #84C657;
}
.g1k_374{
fill: #81C554;
}
.g1l_374{
fill: #7FC450;
}
.g1m_374{
fill: #7CC44C;
}
.g1n_374{
fill: #78C349;
}
.g1o_374{
fill: #74C246;
}
.g1p_374{
fill: #72C142;
}
.g1q_374{
fill: none;
stroke: #BBE3E3;
stroke-width: 1.53;
stroke-miterlimit: 3;
}
.g1r_374{
fill: none;
stroke: #00AEEF;
stroke-width: 0.765;
stroke-linejoin: round;
}
.g1s_374{
fill: none;
stroke: #241F1F;
stroke-width: 0.536;
stroke-miterlimit: 3;
}
.g1t_374{
fill: none;
stroke: #241F1F;
stroke-width: 0.765;
stroke-linejoin: round;
}
.g1u_374{
fill: none;
stroke: #241F1F;
stroke-width: 0.536;
stroke-miterlimit: 3;
stroke-dasharray: 7,4;
}
.g1v_374{
fill: #241F1F;
}
.g1w_374{
fill: none;
stroke: #241F1F;
stroke-width: 0.765;
stroke-miterlimit: 3;
stroke-dasharray: 10,4;
}
.g1x_374{
fill: none;
stroke: #241F1F;
stroke-width: 0.765;
stroke-miterlimit: 3;
}
.g1y_374{
fill: #FFF;
}
.g1z_374{
fill: #FFD66B;
}
.g20_374{
fill: #FFD773;
}
.g21_374{
fill: #FFD979;
}
.g22_374{
fill: #FFDC80;
}
.g23_374{
fill: #FFDD87;
}
.g24_374{
fill: #FFDF8D;
}
.g25_374{
fill: #FFE193;
}
.g26_374{
fill: #FFE39B;
}
.g27_374{
fill: #FFE5A3;
}
.g28_374{
fill: #FFE8AB;
}
.g29_374{
fill: #FFEAB2;
}
.g2a_374{
fill: #FFECB9;
}
.g2b_374{
fill: #FFEEC1;
}
.g2c_374{
fill: #FFF0C9;
}
.g2d_374{
fill: #969698;
}
.g2e_374{
fill: none;
stroke: #969698;
stroke-width: 0.574;
stroke-miterlimit: 3;
}
.g2f_374{
fill: none;
stroke: #241F1F;
stroke-width: 0.574;
stroke-miterlimit: 3;
}
.g2g_374{
fill: none;
stroke: #241F1F;
stroke-width: 0.687;
stroke-miterlimit: 10;
}
.g2h_374{
fill: #F69BC2;
}
.g2i_374{
fill: #F79EC4;
}
.g2j_374{
fill: #F7A1C6;
}
.g2k_374{
fill: #F8A4C7;
}
.g2l_374{
fill: #F8A7C9;
}
.g2m_374{
fill: #F9AACB;
}
.g2n_374{
fill: #FAAECD;
}
.g2o_374{
fill: #FAB1CF;
}
.g2p_374{
fill: #FBB4D1;
}
.g2q_374{
fill: #FBB6D2;
}
.g2r_374{
fill: #FBBAD4;
}
.g2s_374{
fill: #FCBDD6;
}
.g2t_374{
fill: #FCC0D8;
}
.g2u_374{
fill: #FDC3DA;
}
.g2v_374{
fill: #FDC6DC;
}
.g2w_374{
fill: #FDC9DD;
}
.g2x_374{
fill: #FECCDF;
}
.g2y_374{
fill: #FECFE1;
}
.g2z_374{
fill: #FED2E3;
}
.g30_374{
fill: #FFD5E5;
}
.g31_374{
fill: #FFD9E7;
}
.g32_374{
fill: #F687B7;
}
.g33_374{
fill: #F68AB8;
}
.g34_374{
fill: #F68EBA;
}
.g35_374{
fill: #F690BC;
}
.g36_374{
fill: #F694BE;
}
.g37_374{
fill: #F696BF;
}
.g38_374{
fill: #F699C1;
}
.g39_374{
fill: #F79DC3;
}
.g3a_374{
fill: #F7A0C5;
}
.g3b_374{
fill: #F8A3C7;
}
.g3c_374{
fill: #F8A6C8;
}
.g3d_374{
fill: #F9AACA;
}
.g3e_374{
fill: #F9ADCC;
}
.g3f_374{
fill: #FAB0CE;
}
.g3g_374{
fill: #FAB2D0;
}
.g3h_374{
fill: #FBB6D1;
}
.g3i_374{
fill: #FBB9D3;
}
.g3j_374{
fill: #FCBCD5;
}
.g3k_374{
fill: #FCBFD7;
}
.g3l_374{
fill: #FDC2D9;
}
.g3m_374{
fill: #FDC6DB;
}
.g3n_374{
fill: #F697C0;
}
.g3o_374{
fill: #FBB8D3;
}
.g3p_374{
fill: #FDC8DD;
}
.g3q_374{
fill: #F68BB9;
}
.g3r_374{
fill: #F68FBB;
}
.g3s_374{
fill: #F698C0;
}
.g3t_374{
fill: #F69CC2;
}
.g3u_374{
fill: #F7A1C5;
}
.g3v_374{
fill: #F8A5C8;
}
.g3w_374{
fill: #F9A9CA;
}
.g3x_374{
fill: #FAB2CF;
}
.g3y_374{
fill: #FCBAD4;
}
.g3z_374{
fill: #FCBED7;
}
.g40_374{
fill: #FDC7DC;
}
.g41_374{
fill: #FECBDE;
}
.g42_374{
fill: #FED0E1;
}
.g43_374{
fill: #FFD4E4;
}
.g44_374{
fill: none;
stroke: #241F1F;
stroke-width: 0.528;
stroke-miterlimit: 3;
}
.g45_374{
fill: none;
stroke: #EE008C;
stroke-width: 0.756;
stroke-miterlimit: 3;
stroke-dasharray: 10,4;
}
.g46_374{
fill: none;
stroke: #241F1F;
stroke-width: 0.756;
stroke-miterlimit: 3;
stroke-dasharray: 10,4;
}
.g47_374{
fill: none;
stroke: #241F1F;
stroke-width: 0.756;
stroke-miterlimit: 3;
}
]]></style>
</defs>
<g clip-path="url(#c0_374)">
<path d="M797.7,447.5v0C797.7,520.2,738.7,570,666,570C593.3,570,534.2,520.2,534.2,447.5c0,-85,59.1,-131.8,131.8,-131.8c72.7,0,131.7,46.8,131.7,131.8m3.6,.1c0,-87,-60.6,-135.4,-135.3,-135.4c-74.7,0,-135.4,48.4,-135.4,135.4c0,74.7,60.7,126.1,135.4,126.1c74.7,0,135.3,-51.4,135.3,-126.1Z" class="g0_374"/>
<path d="M794.1,447.5v0c0,70.7,-57.4,118.9,-128.1,118.9c-70.7,0,-128.1,-48.2,-128.1,-118.9c0,-83,57.4,-128.1,128.1,-128.1c70.7,0,128.1,45.1,128.1,128.1m3.6,.1c0,-85,-59,-131.8,-131.7,-131.8c-72.7,0,-131.8,46.8,-131.8,131.8c0,72.7,59.1,122.5,131.8,122.5c72.7,0,131.7,-49.8,131.7,-122.5Z" class="g1_374"/>
<path d="M790.5,447.5v0c0,68.7,-55.8,115.3,-124.5,115.3c-68.8,0,-124.5,-46.6,-124.5,-115.3C541.5,366.5,597.2,323,666,323c68.7,0,124.5,43.5,124.5,124.5m3.6,.1c0,-83,-57.4,-128.2,-128.1,-128.2c-70.7,0,-128.1,45.2,-128.1,128.2c0,70.7,57.4,118.9,128.1,118.9c70.7,0,128.1,-48.2,128.1,-118.9Z" class="g2_374"/>
<path d="M786.9,447.5v0c0,66.7,-54.2,111.7,-120.9,111.7c-66.8,0,-120.9,-45,-120.9,-111.7c0,-79,54.1,-120.9,120.9,-120.9c66.7,0,120.9,41.9,120.9,120.9m3.6,-.1c0,-81,-55.8,-124.5,-124.5,-124.5c-68.8,0,-124.5,43.5,-124.5,124.5c0,68.7,55.7,115.3,124.5,115.3c68.7,0,124.5,-46.6,124.5,-115.3Z" class="g3_374"/>
<path d="M783.3,447.5v0c0,64.7,-52.6,108.1,-117.3,108.1c-64.8,0,-117.3,-43.4,-117.3,-108.1c0,-77,52.5,-117.3,117.3,-117.3c64.7,0,117.3,40.3,117.3,117.3m3.6,-.1c0,-79,-54.2,-120.9,-120.9,-120.9c-66.8,0,-120.9,41.9,-120.9,120.9c0,66.7,54.1,111.7,120.9,111.7c66.7,0,120.9,-45,120.9,-111.7Z" class="g4_374"/>
<path d="M779.7,447.5v0c0,62.7,-51,110.6,-113.7,110.6c-62.8,0,-113.7,-47.9,-113.7,-110.6c0,-75,50.9,-113.7,113.7,-113.7c62.7,0,113.7,38.7,113.7,113.7m3.6,-.1c0,-77,-52.6,-117.3,-117.3,-117.3c-64.8,0,-117.3,40.3,-117.3,117.3c0,64.7,52.5,108.1,117.3,108.1c64.7,0,117.3,-43.4,117.3,-108.1Z" class="g5_374"/>
<path d="M776.1,447.5v0c0,60.7,-49.4,107,-110.1,107c-60.8,0,-110.1,-46.3,-110.1,-107c0,-73,49.3,-110.1,110.1,-110.1c60.7,0,110.1,37.1,110.1,110.1m3.6,.1c0,-75.1,-51,-113.7,-113.7,-113.7c-62.8,0,-113.7,38.6,-113.7,113.7c0,62.7,50.9,110.6,113.7,110.6c62.7,0,113.7,-47.9,113.7,-110.6Z" class="g6_374"/>
<path d="M772.4,447.5v0c0,58.8,-47.7,108,-106.4,108c-58.8,0,-106.5,-49.2,-106.5,-108C559.5,376.5,607.2,341,666,341c58.7,0,106.4,35.5,106.4,106.5m3.7,.1C776.1,374.5,726.7,337.5,666,337.5c-60.8,0,-110.1,37,-110.1,110.1c0,60.7,49.3,107,110.1,107c60.7,0,110.1,-46.3,110.1,-107Z" class="g7_374"/>
<path d="M768.8,447.5v0c0,56.8,-46,109,-102.8,109c-56.8,0,-102.9,-52.2,-102.9,-109c0,-69,46.1,-102.9,102.9,-102.9c56.8,0,102.8,33.9,102.8,102.9m3.6,.1C772.4,376.5,724.7,341.1,666,341.1c-58.8,0,-106.5,35.4,-106.5,106.5c0,58.7,47.7,108,106.5,108c58.7,0,106.4,-49.3,106.4,-108Z" class="g8_374"/>
<path d="M765.2,447.5v0c0,54.8,-44.4,110,-99.2,110c-54.8,0,-99.3,-55.2,-99.3,-110c0,-67.1,44.5,-99.3,99.3,-99.3c54.8,0,99.2,32.2,99.2,99.3m3.6,-.1c0,-69,-46,-102.9,-102.8,-102.9c-56.8,0,-102.9,33.9,-102.9,102.9c0,56.8,46.1,109,102.9,109c56.8,0,102.8,-52.2,102.8,-109Z" class="g9_374"/>
<path d="M761.6,447.5v0c0,52.8,-42.8,110.9,-95.6,110.9c-52.8,0,-95.7,-58.1,-95.7,-110.9c0,-65.1,42.9,-95.7,95.7,-95.7c52.8,0,95.6,30.6,95.6,95.7m3.6,-.1c0,-67.1,-44.4,-99.3,-99.2,-99.3c-54.8,0,-99.3,32.2,-99.3,99.3c0,54.8,44.5,109.9,99.3,109.9c54.8,0,99.2,-55.1,99.2,-109.9Z" class="ga_374"/>
<path d="M758,447.5v0c0,50.8,-41.2,107.3,-92,107.3c-50.8,0,-92.1,-56.5,-92.1,-107.3c0,-63.1,41.3,-92,92.1,-92c50.8,0,92,28.9,92,92m3.6,.1c0,-65.1,-42.8,-95.7,-95.6,-95.7c-52.8,0,-95.7,30.6,-95.7,95.7c0,52.8,42.9,110.9,95.7,110.9c52.8,0,95.6,-58.1,95.6,-110.9Z" class="gb_374"/>
<path d="M754.4,447.5v0c0,48.8,-39.6,88.4,-88.4,88.4c-48.8,0,-88.5,-39.6,-88.5,-88.4c0,-61.1,39.7,-88.4,88.5,-88.4c48.8,0,88.4,27.3,88.4,88.4m3.6,.1c0,-63.1,-41.2,-92.1,-92,-92.1c-50.8,0,-92.1,29,-92.1,92.1c0,50.8,41.3,107.3,92.1,107.3c50.8,0,92,-56.5,92,-107.3Z" class="gb_374"/>
<path d="M750.8,447.5v0c0,46.8,-38,84.8,-84.8,84.8c-46.8,0,-84.8,-38,-84.8,-84.8c0,-59.1,38,-84.8,84.8,-84.8c46.8,0,84.8,25.7,84.8,84.8m3.6,.1c0,-61.1,-39.6,-88.5,-88.4,-88.5c-48.8,0,-88.5,27.4,-88.5,88.5c0,48.8,39.7,88.4,88.5,88.4c48.8,0,88.4,-39.6,88.4,-88.4Z" class="gc_374"/>
<path d="M747.2,447.5v0c0,44.8,-36.4,81.2,-81.2,81.2c-44.9,0,-81.2,-36.4,-81.2,-81.2c0,-44.8,36.3,-85.8,81.2,-85.8c44.8,0,81.2,41,81.2,85.8m3.6,.1c0,-59.1,-38,-84.8,-84.8,-84.8c-46.8,0,-84.8,25.7,-84.8,84.8c0,46.8,38,84.8,84.8,84.8c46.8,0,84.8,-38,84.8,-84.8Z" class="gd_374"/>
<path d="M743.6,447.5v0c0,42.8,-34.8,77.6,-77.6,77.6c-42.8,0,-77.6,-34.8,-77.6,-77.6c0,-42.9,34.8,-82.2,77.6,-82.2c42.8,0,77.6,39.3,77.6,82.2m3.6,-.1c0,-44.8,-36.4,-85.8,-81.2,-85.8c-44.9,0,-81.2,41,-81.2,85.8c0,44.8,36.3,81.2,81.2,81.2c44.8,0,81.2,-36.4,81.2,-81.2Z" class="ge_374"/>
<path d="M740,447.5v0c0,40.8,-33.2,74,-74,74c-40.9,0,-74,-33.2,-74,-74c0,-40.9,33.1,-78.6,74,-78.6c40.8,0,74,37.7,74,78.6m3.6,-.1c0,-42.9,-34.8,-82.2,-77.6,-82.2c-42.8,0,-77.6,39.3,-77.6,82.2c0,42.8,34.8,77.6,77.6,77.6c42.8,0,77.6,-34.8,77.6,-77.6Z" class="gf_374"/>
<path d="M736.4,447.5v0c0,38.8,-31.6,70.4,-70.4,70.4c-38.9,0,-70.4,-31.6,-70.4,-70.4c0,-38.9,31.5,-75,70.4,-75c38.8,0,70.4,36.1,70.4,75m3.6,.1C740,406.7,706.8,369,666,369c-40.9,0,-74,37.7,-74,78.6c0,40.8,33.1,74,74,74c40.8,0,74,-33.2,74,-74Z" class="gg_374"/>
<path d="M732.8,447.5v0c0,36.8,-30,66.8,-66.8,66.8c-36.9,0,-66.8,-30,-66.8,-66.8c0,-36.9,29.9,-71.4,66.8,-71.4c36.8,0,66.8,34.5,66.8,71.4m3.6,.1c0,-38.9,-31.6,-75,-70.4,-75c-38.9,0,-70.4,36.1,-70.4,75c0,38.8,31.5,70.3,70.4,70.3c38.8,0,70.4,-31.5,70.4,-70.3Z" class="gh_374"/>
<path d="M729.1,447.5v0c0,34.8,-28.3,63.1,-63.1,63.1c-34.9,0,-63.2,-28.3,-63.2,-63.1c0,-34.9,28.3,-67.8,63.2,-67.8c34.8,0,63.1,32.9,63.1,67.8m3.7,.1c0,-36.9,-30,-71.4,-66.8,-71.4c-36.9,0,-66.8,34.5,-66.8,71.4c0,36.8,29.9,66.7,66.8,66.7c36.8,0,66.8,-29.9,66.8,-66.7Z" class="gi_374"/>
<path d="M725.5,447.5v0c0,32.9,-26.6,59.5,-59.5,59.5c-32.9,0,-59.6,-26.6,-59.6,-59.5c0,-32.9,26.7,-64.2,59.6,-64.2c32.9,0,59.5,31.3,59.5,64.2m3.6,-.1c0,-34.9,-28.3,-67.8,-63.1,-67.8c-34.9,0,-63.2,32.9,-63.2,67.8c0,34.8,28.3,63.1,63.2,63.1c34.8,0,63.1,-28.3,63.1,-63.1Z" class="gj_374"/>
<path d="M721.9,447.5v0c0,30.9,-25,55.9,-55.9,55.9c-30.9,0,-56,-25,-56,-55.9C610,416.6,635.1,387,666,387c30.9,0,55.9,29.6,55.9,60.5m3.6,-.1c0,-32.9,-26.6,-64.2,-59.5,-64.2c-32.9,0,-59.6,31.3,-59.6,64.2c0,32.9,26.7,59.5,59.6,59.5c32.9,0,59.5,-26.6,59.5,-59.5Z" class="gk_374"/>
<path d="M718.3,447.5v0c0,28.9,-23.4,52.3,-52.3,52.3c-28.9,0,-52.4,-23.4,-52.4,-52.3c0,-28.9,23.5,-56.9,52.4,-56.9c28.9,0,52.3,28,52.3,56.9m3.6,.1C721.9,416.7,696.9,387,666,387c-30.9,0,-56,29.7,-56,60.6c0,30.8,25.1,55.9,56,55.9c30.9,0,55.9,-25.1,55.9,-55.9Z" class="gl_374"/>
<path d="M714.7,447.5v0c0,26.9,-21.8,48.7,-48.7,48.7c-26.9,0,-48.7,-21.8,-48.7,-48.7c0,-26.9,21.8,-57.9,48.7,-57.9c26.9,0,48.7,31,48.7,57.9m3.6,.1c0,-28.9,-23.4,-57,-52.3,-57c-28.9,0,-52.4,28.1,-52.4,57c0,28.9,23.5,52.3,52.4,52.3c28.9,0,52.3,-23.4,52.3,-52.3Z" class="gm_374"/>
<path d="M711.1,447.5v0c0,24.9,-20.2,45.1,-45.1,45.1c-24.9,0,-45.1,-20.2,-45.1,-45.1c0,-24.9,20.2,-45.1,45.1,-45.1c24.9,0,45.1,20.2,45.1,45.1m3.6,.1c0,-26.9,-21.8,-58,-48.7,-58c-26.9,0,-48.7,31.1,-48.7,58c0,26.9,21.8,48.7,48.7,48.7c26.9,0,48.7,-21.8,48.7,-48.7Z" class="gn_374"/>
<path d="M707.5,447.5v0c0,22.9,-18.6,41.5,-41.5,41.5c-22.9,0,-41.5,-18.6,-41.5,-41.5C624.5,424.6,643.1,406,666,406c22.9,0,41.5,18.6,41.5,41.5m3.6,.1c0,-24.9,-20.2,-45.2,-45.1,-45.2c-24.9,0,-45.1,20.3,-45.1,45.2c0,24.9,20.2,45.1,45.1,45.1c24.9,0,45.1,-20.2,45.1,-45.1Z" class="go_374"/>
<path d="M703.9,447.5v0c0,20.9,-17,37.9,-37.9,37.9c-20.9,0,-37.9,-17,-37.9,-37.9c0,-20.9,17,-37.9,37.9,-37.9c20.9,0,37.9,17,37.9,37.9m3.6,-.1c0,-22.9,-18.6,-41.5,-41.5,-41.5c-22.9,0,-41.5,18.6,-41.5,41.5c0,22.9,18.6,41.5,41.5,41.5c22.9,0,41.5,-18.6,41.5,-41.5Z" class="gp_374"/>
<path d="M700.3,447.5v0c0,18.9,-15.4,34.3,-34.3,34.3c-19,0,-34.3,-15.4,-34.3,-34.3c0,-18.9,15.3,-34.3,34.3,-34.3c18.9,0,34.3,15.4,34.3,34.3m3.6,-.1c0,-20.9,-17,-37.9,-37.9,-37.9c-20.9,0,-37.9,17,-37.9,37.9c0,20.9,17,37.9,37.9,37.9c20.9,0,37.9,-17,37.9,-37.9Z" class="gq_374"/>
<path d="M696.7,447.5v0c0,16.9,-13.8,30.7,-30.7,30.7c-17,0,-30.7,-13.8,-30.7,-30.7c0,-16.9,13.7,-30.7,30.7,-30.7c16.9,0,30.7,13.8,30.7,30.7m3.6,.1c0,-19,-15.4,-34.3,-34.3,-34.3c-19,0,-34.3,15.3,-34.3,34.3c0,18.9,15.3,34.2,34.3,34.2c18.9,0,34.3,-15.3,34.3,-34.2Z" class="gr_374"/>
<path d="M693,447.5v0c0,14.9,-12.1,27.1,-27,27.1c-15,0,-27.1,-12.2,-27.1,-27.1c0,-15,12.1,-27.1,27.1,-27.1c14.9,0,27,12.1,27,27.1m3.7,.1c0,-17,-13.8,-30.7,-30.7,-30.7c-17,0,-30.7,13.7,-30.7,30.7c0,16.9,13.7,30.6,30.7,30.6c16.9,0,30.7,-13.7,30.7,-30.6Z" class="gs_374"/>
<path d="M689.4,447.5v0c0,12.9,-10.5,23.5,-23.4,23.5c-13,0,-23.5,-10.6,-23.5,-23.5C642.5,434.5,653,424,666,424c12.9,0,23.4,10.5,23.4,23.5m3.6,.1c0,-15,-12.1,-27.1,-27,-27.1c-15,0,-27.1,12.1,-27.1,27.1c0,14.9,12.1,27,27.1,27c14.9,0,27,-12.1,27,-27Z" class="gt_374"/>
<path d="M685.8,447.5v0c0,10.9,-8.9,19.8,-19.8,19.8c-11,0,-19.9,-8.9,-19.9,-19.8c0,-11,8.9,-19.9,19.9,-19.9c10.9,0,19.8,8.9,19.8,19.9m3.6,-.1c0,-13,-10.5,-23.5,-23.4,-23.5c-13,0,-23.5,10.5,-23.5,23.5c0,12.9,10.5,23.4,23.5,23.4c12.9,0,23.4,-10.5,23.4,-23.4Z" class="gu_374"/>
<path d="M682.2,447.5v0c0,9,-7.3,16.2,-16.2,16.2c-9,0,-16.3,-7.2,-16.3,-16.2c0,-9,7.3,-16.3,16.3,-16.3c8.9,0,16.2,7.3,16.2,16.3m3.6,-.1c0,-11,-8.9,-19.9,-19.8,-19.9c-11,0,-19.9,8.9,-19.9,19.9c0,10.9,8.9,19.8,19.9,19.8c10.9,0,19.8,-8.9,19.8,-19.8Z" class="gv_374"/>
<path d="M678.6,447.5v0c0,7,-5.6,12.6,-12.6,12.6c-7,0,-12.7,-5.6,-12.7,-12.6c0,-7,5.7,-12.6,12.7,-12.6c7,0,12.6,5.6,12.6,12.6m3.6,-.1c0,-9,-7.3,-16.3,-16.2,-16.3c-9,0,-16.3,7.3,-16.3,16.3c0,8.9,7.3,16.2,16.3,16.2c8.9,0,16.2,-7.3,16.2,-16.2Z" class="gw_374"/>
<path d="M675,447.5v0c0,5,-4,9,-9,9c-5,0,-9,-4,-9,-9c0,-5,4,-9,9,-9c5,0,9,4,9,9m3.6,.1c0,-7,-5.6,-12.7,-12.6,-12.7c-7,0,-12.7,5.7,-12.7,12.7c0,6.9,5.7,12.6,12.7,12.6c7,0,12.6,-5.7,12.6,-12.6Z" class="gw_374"/>
<path d="M671.4,447.5v0c0,3,-2.4,5.4,-5.4,5.4c-3,0,-5.4,-2.4,-5.4,-5.4c0,-3,2.4,-5.4,5.4,-5.4c3,0,5.4,2.4,5.4,5.4m3.6,.1c0,-5,-4,-9.1,-9,-9.1c-5,0,-9,4.1,-9,9.1c0,4.9,4,9,9,9c5,0,9,-4.1,9,-9Z" class="gx_374"/>
<path d="M667.8,447.5v0c0,1,-.8,1.8,-1.8,1.8c-1,0,-1.8,-.8,-1.8,-1.8c0,-1,.8,-1.8,1.8,-1.8c1,0,1.8,.8,1.8,1.8m3.6,.1c0,-3,-2.4,-5.4,-5.4,-5.4c-3,0,-5.4,2.4,-5.4,5.4c0,3,2.4,5.4,5.4,5.4c3,0,5.4,-2.4,5.4,-5.4Z" class="gy_374"/>
<path d="M667.8,447.4c0,-1,-.8,-1.8,-1.8,-1.8c-1,0,-1.8,.8,-1.8,1.8c0,1,.8,1.8,1.8,1.8c1,0,1.8,-.8,1.8,-1.8Z" class="gz_374"/>
</g>
<path d="M547.1,502.3c10.1,5.5,11.3,2.1,23.9,2.1c12.3,2.4,33.3,-.6,46.5,-3c2.4,7.6,8,-.3,13.6,2c4.7,1.8,12.6,5.3,21.6,2.4c2.4,-.4,7.4,-5.4,12,-2.8c10.6,6,17.2,-5.4,26.1,-2.1c5.4,2.1,7.6,5.1,13,6.5c5.5,1.3,11.8,-2,14.4,-2.5c4.8,-.8,6.8,2.9,11.5,3.5c4.4,.5,45.9,-7,55.1,-4.8v56.9H547.1Z" class="g10_374"/>
<path d="M747.4,507.9c7.8,.7,16.5,2.6,20.2,11.3c1.2,2.9,-1.7,10.4,-4.9,9.4c-5.1,-2.1,-13.8,-1.3,-16.6,0c-8,4.2,-11.7,-7.5,-12,-12.8c-.1,-4.7,13.3,-7.9,13.3,-7.9Z" class="g11_374"/>
<path d="M747.4,507.9c7.8,.7,16.5,2.6,20.2,11.3c1.2,2.9,-1.7,10.4,-4.9,9.4c-5.1,-2.1,-13.8,-1.3,-16.6,0c-8,4.2,-11.7,-7.5,-12,-12.8c-.1,-4.7,13.3,-7.9,13.3,-7.9Z" class="g12_374"/>
<g clip-path="url(#c1_374)">
<path d="M616.4,420.8v0c0,19.2,-15.6,34.8,-34.9,34.8c-19.3,0,-34.9,-15.6,-34.9,-34.8c0,-19.3,15.6,-39.5,34.9,-39.5c19.3,0,34.9,20.2,34.9,39.5m1.6,-.1c0,-20.1,-16.4,-41.1,-36.6,-41.1c-20.1,0,-36.5,21,-36.5,41.1c0,20.2,16.4,36.5,36.5,36.5c20.2,0,36.6,-16.3,36.6,-36.5Z" class="g13_374"/>
<path d="M614.7,420.8v0c0,18.3,-14.8,33.2,-33.2,33.2c-18.4,0,-33.3,-14.9,-33.3,-33.2c0,-18.4,14.9,-37.9,33.3,-37.9c18.4,0,33.2,19.5,33.2,37.9m1.8,-.1c0,-19.2,-15.6,-39.4,-34.9,-39.4c-19.2,0,-34.9,20.2,-34.9,39.4c0,19.3,15.7,34.9,34.9,34.9c19.3,0,34.9,-15.6,34.9,-34.9Z" class="g14_374"/>
<path d="M613.1,420.8v0c0,17.4,-14.1,31.6,-31.6,31.6c-17.5,0,-31.6,-14.2,-31.6,-31.6c0,-17.5,14.1,-36.3,31.6,-36.3c17.5,0,31.6,18.8,31.6,36.3m1.6,-.1c0,-18.3,-14.9,-37.8,-33.3,-37.8c-18.3,0,-33.2,19.5,-33.2,37.8c0,18.4,14.9,33.3,33.2,33.3c18.4,0,33.3,-14.9,33.3,-33.3Z" class="g15_374"/>
<path d="M611.5,420.8v0c0,16.5,-13.4,30,-30,30c-16.6,0,-30,-13.5,-30,-30c0,-16.6,13.4,-34.6,30,-34.6c16.6,0,30,18,30,34.6m1.8,.1c0,-17.4,-14.2,-36.2,-31.7,-36.2c-17.4,0,-31.6,18.8,-31.6,36.2c0,17.5,14.2,31.7,31.6,31.7c17.5,0,31.7,-14.2,31.7,-31.7Z" class="g16_374"/>
<path d="M609.9,420.8v0c0,15.6,-12.7,28.4,-28.4,28.4c-15.7,0,-28.4,-12.8,-28.4,-28.4c0,-15.7,12.7,-33,28.4,-33c15.7,0,28.4,17.3,28.4,33m1.6,-.1c0,-16.5,-13.5,-34.6,-30.1,-34.6c-16.5,0,-30,18.1,-30,34.6c0,16.6,13.5,30.1,30,30.1c16.6,0,30.1,-13.5,30.1,-30.1Z" class="g17_374"/>
<path d="M608.3,420.8v0c0,14.7,-12,26.7,-26.8,26.7c-14.8,0,-26.8,-12,-26.8,-26.7c0,-14.8,12,-31.4,26.8,-31.4c14.8,0,26.8,16.6,26.8,31.4m1.5,-.1c0,-15.6,-12.7,-33,-28.4,-33c-15.6,0,-28.3,17.4,-28.3,33c0,15.7,12.7,28.4,28.3,28.4c15.7,0,28.4,-12.7,28.4,-28.4Z" class="g18_374"/>
<path d="M606.6,420.8v0c0,13.9,-11.2,25.1,-25.1,25.1c-13.9,0,-25.2,-11.2,-25.2,-25.1c0,-13.9,11.3,-29.8,25.2,-29.8c13.9,0,25.1,15.9,25.1,29.8m1.6,-.1c0,-14.7,-12,-31.3,-26.8,-31.3c-14.7,0,-26.7,16.6,-26.7,31.3c0,14.8,12,26.8,26.7,26.8c14.8,0,26.8,-12,26.8,-26.8Z" class="g19_374"/>
<path d="M605,420.8v0c0,13,-10.5,23.5,-23.5,23.5c-13,0,-23.5,-10.5,-23.5,-23.5c0,-13,10.5,-19,23.5,-19c13,0,23.5,6,23.5,19m1.6,-.1C606.6,406.9,595.3,391,581.4,391c-13.8,0,-25.1,15.9,-25.1,29.7c0,13.9,11.3,25.2,25.1,25.2c13.9,0,25.2,-11.3,25.2,-25.2Z" class="g1a_374"/>
<path d="M603.4,420.8v0c0,12,-9.8,21.9,-21.9,21.9c-12.1,0,-21.9,-9.9,-21.9,-21.9c0,-12.1,9.8,-31.1,21.9,-31.1c12.1,0,21.9,19,21.9,31.1m1.8,.1c0,-13,-10.6,-32.7,-23.6,-32.7c-13,0,-23.5,19.7,-23.5,32.7c0,13,10.5,23.5,23.5,23.5c13,0,23.6,-10.5,23.6,-23.5Z" class="g1b_374"/>
<path d="M601.8,420.8v0c0,11.2,-9.1,20.2,-20.3,20.2c-11.2,0,-20.3,-9,-20.3,-20.2c0,-11.2,9.1,-29.5,20.3,-29.5c11.2,0,20.3,18.3,20.3,29.5m1.6,-.1c0,-12.1,-9.9,-31.1,-22,-31.1c-12,0,-21.9,19,-21.9,31.1c0,12.1,9.9,21.9,21.9,21.9c12.1,0,22,-9.8,22,-21.9Z" class="g1c_374"/>
<path d="M600.1,420.8v0c0,10.3,-8.3,18.6,-18.6,18.6c-10.3,0,-18.7,-8.3,-18.7,-18.6c0,-10.3,8.4,-18.7,18.7,-18.7c10.3,0,18.6,8.4,18.6,18.7m1.6,-.1c0,-11.2,-9.1,-29.4,-20.3,-29.4c-11.1,0,-20.2,18.2,-20.2,29.4c0,11.2,9.1,20.3,20.2,20.3c11.2,0,20.3,-9.1,20.3,-20.3Z" class="g1d_374"/>
<path d="M598.5,420.8v0c0,9.4,-7.6,17,-17,17c-9.4,0,-17,-7.6,-17,-17c0,-9.4,7.6,-17.1,17,-17.1c9.4,0,17,7.7,17,17.1m1.6,-.1c0,-10.3,-8.4,-18.6,-18.7,-18.6c-10.3,0,-18.6,8.3,-18.6,18.6c0,10.3,8.3,18.7,18.6,18.7c10.3,0,18.7,-8.4,18.7,-18.7Z" class="g1e_374"/>
<path d="M596.9,420.8v0c0,8.5,-6.9,15.4,-15.4,15.4c-8.5,0,-15.4,-6.9,-15.4,-15.4c0,-8.5,6.9,-15.5,15.4,-15.5c8.5,0,15.4,7,15.4,15.5m1.6,-.1c0,-9.4,-7.6,-17,-17.1,-17c-9.4,0,-17,7.6,-17,17c0,9.4,7.6,17.1,17,17.1c9.5,0,17.1,-7.7,17.1,-17.1Z" class="g1f_374"/>
<path d="M595.3,420.8v0c0,7.6,-6.2,13.8,-13.8,13.8c-7.6,0,-13.8,-6.2,-13.8,-13.8c0,-7.6,6.2,-13.8,13.8,-13.8c7.6,0,13.8,6.2,13.8,13.8m1.7,.1c0,-8.5,-6.9,-15.4,-15.4,-15.4c-8.5,0,-15.4,6.9,-15.4,15.4c0,8.5,6.9,15.4,15.4,15.4c8.5,0,15.4,-6.9,15.4,-15.4Z" class="g1g_374"/>
<path d="M593.7,420.8v0c0,6.7,-5.5,12.1,-12.2,12.1c-6.7,0,-12.2,-5.4,-12.2,-12.1c0,-6.8,5.5,-12.2,12.2,-12.2c6.7,0,12.2,5.4,12.2,12.2m1.5,-.1c0,-7.6,-6.1,-13.8,-13.8,-13.8c-7.6,0,-13.7,6.2,-13.7,13.8c0,7.6,6.1,13.8,13.7,13.8c7.7,0,13.8,-6.2,13.8,-13.8Z" class="g1h_374"/>
<path d="M592,420.8v0c0,5.8,-4.7,10.5,-10.5,10.5c-5.8,0,-10.6,-4.7,-10.6,-10.5c0,-5.9,4.8,-10.6,10.6,-10.6c5.8,0,10.5,4.7,10.5,10.6m1.8,-.1c0,-6.7,-5.5,-12.1,-12.2,-12.1c-6.7,0,-12.1,5.4,-12.1,12.1c0,6.8,5.4,12.2,12.1,12.2c6.7,0,12.2,-5.4,12.2,-12.2Z" class="g1i_374"/>
<path d="M590.4,420.8v0c0,4.9,-4,8.9,-8.9,8.9c-4.9,0,-8.9,-4,-8.9,-8.9c0,-5,4,-9,8.9,-9c4.9,0,8.9,4,8.9,9m1.6,-.1c0,-5.8,-4.7,-10.5,-10.6,-10.5c-5.8,0,-10.5,4.7,-10.5,10.5c0,5.9,4.7,10.6,10.5,10.6c5.9,0,10.6,-4.7,10.6,-10.6Z" class="g1j_374"/>
<path d="M588.8,420.8v0c0,4,-3.3,7.3,-7.3,7.3c-4,0,-7.3,-3.3,-7.3,-7.3c0,-4.1,3.3,-7.3,7.3,-7.3c4,0,7.3,3.2,7.3,7.3m1.6,-.1c0,-4.9,-4,-8.9,-9,-8.9c-4.9,0,-8.9,4,-8.9,8.9c0,5,4,9,8.9,9c5,0,9,-4,9,-9Z" class="g1k_374"/>
<path d="M587.2,420.8v0c0,3.1,-2.6,5.6,-5.7,5.6c-3.1,0,-5.7,-2.5,-5.7,-5.6c0,-3.2,2.6,-5.7,5.7,-5.7c3.1,0,5.7,2.5,5.7,5.7m1.5,-.1c0,-4,-3.2,-7.3,-7.3,-7.3c-4,0,-7.3,3.3,-7.3,7.3c0,4.1,3.3,7.3,7.3,7.3c4.1,0,7.3,-3.2,7.3,-7.3Z" class="g1l_374"/>
<path d="M585.6,420.8v0c0,2.2,-1.9,4,-4.1,4c-2.2,0,-4.1,-1.8,-4.1,-4c0,-2.3,1.9,-4.1,4.1,-4.1c2.2,0,4.1,1.8,4.1,4.1m1.5,-.1c0,-3.1,-2.5,-5.6,-5.7,-5.6c-3.1,0,-5.6,2.5,-5.6,5.6c0,3.2,2.5,5.7,5.6,5.7c3.2,0,5.7,-2.5,5.7,-5.7Z" class="g1m_374"/>
<path d="M583.9,420.8v0c0,1.3,-1.1,2.4,-2.4,2.4c-1.4,0,-2.4,-1.1,-2.4,-2.4c0,-1.4,1,-2.5,2.4,-2.5c1.3,0,2.4,1.1,2.4,2.5m1.8,.1c0,-2.2,-1.8,-4,-4.1,-4c-2.2,0,-4,1.8,-4,4c0,2.3,1.8,4.1,4,4.1c2.3,0,4.1,-1.8,4.1,-4.1Z" class="g1n_374"/>
<path d="M582.3,420.8v0c0,.4,-.4,.8,-.8,.8c-.5,0,-.8,-.4,-.8,-.8c0,-.5,.3,-.8,.8,-.8c.4,0,.8,.3,.8,.8m1.6,-.1c0,-1.3,-1.1,-2.4,-2.5,-2.4c-1.3,0,-2.4,1.1,-2.4,2.4c0,1.4,1.1,2.5,2.4,2.5c1.4,0,2.5,-1.1,2.5,-2.5Z" class="g1o_374"/>
<path d="M582.3,420.7c0,-.4,-.4,-.8,-.9,-.8c-.4,0,-.8,.4,-.8,.8c0,.5,.4,.8,.8,.8c.5,0,.9,-.3,.9,-.8Z" class="g1p_374"/>
</g>
<path d="M565.8,416.8c.4,-5.9,2.2,-12.4,8.1,-12.7c4.6,-.3,5.2,5.5,9.5,7c7.3,2.5,12.2,-6.1,19.3,-3.4c5,1.9,8.4,4.1,10.2,9.1c3.7,10.3,-12.7,14.6,-23.4,15.3c-11.7,1.6,-24.6,-4.3,-23.7,-15.3Z" class="g1q_374"/>
<path d="M547.1,502.3c10.1,5.5,11.3,2.1,23.9,2.1c12.3,2.4,33.3,-.6,46.5,-3c2.4,7.6,8,-.3,13.6,2c4.7,1.8,12.6,5.3,21.6,2.4c2.4,-.4,7.4,-5.4,12,-2.8c10.6,6,17.2,-5.4,26.1,-2.1c5.4,2.1,7.6,5.1,13,6.5c5.5,1.3,11.8,-2,14.4,-2.5c4.8,-.8,6.8,2.9,11.5,3.5c4.4,.5,45.6,-7.8,54.8,-5.6" class="g1r_374"/>
<path d="M589.3,533.4V517.9m143.8,15.5V517.9" class="g1s_374"/>
<path d="M649.9,511.6L589.3,433.5" class="g1t_374"/>
<path d="M589.3,505.8V437.7" class="g1u_374"/>
<path d="M589.3,509.5l-1.8,-4.8l1.8,1.1l1.9,-1.1Z" class="g1v_374"/>
<path d="M589.3,434l1.9,4.8l-1.9,-1.1l-1.8,1.1Z" class="g1v_374"/>
<path d="M641,525.1H593.2" class="g1s_374"/>
<path d="M589.5,525.1l4.8,-1.8l-1.1,1.8l1.1,1.8Z" class="g1v_374"/>
<path d="M681.8,525.1h48.4" class="g1s_374"/>
<path d="M732.9,525.1l-4.9,1.8l1.2,-1.8L728,523.3Z" class="g1v_374"/>
<path d="M649.9,511.6H589.3" class="g1w_374"/>
<path d="M733.1,511.6H649.9" class="g1t_374"/>
<path d="M731.3,511.6c0,-1,.8,-1.7,1.8,-1.7c.9,0,1.7,.7,1.7,1.7c0,.9,-.8,1.7,-1.7,1.7c-1,0,-1.8,-.8,-1.8,-1.7Z" class="g1v_374"/>
<path d="M731.3,511.6c0,-1,.8,-1.7,1.8,-1.7c.9,0,1.7,.7,1.7,1.7c0,.9,-.8,1.7,-1.7,1.7c-1,0,-1.8,-.8,-1.8,-1.7Z" class="g1x_374"/>
<path d="M648.1,511.6c0,-1,.8,-1.7,1.8,-1.7c.9,0,1.7,.7,1.7,1.7c0,.9,-.8,1.7,-1.7,1.7c-1,0,-1.8,-.8,-1.8,-1.7Z" class="g1v_374"/>
<path d="M648.1,511.6c0,-1,.8,-1.7,1.8,-1.7c.9,0,1.7,.7,1.7,1.7c0,.9,-.8,1.7,-1.7,1.7c-1,0,-1.8,-.8,-1.8,-1.7Z" class="g1x_374"/>
<path d="M587.6,511.6c0,-1,.8,-1.7,1.8,-1.7c.9,0,1.7,.7,1.7,1.7c0,.9,-.8,1.7,-1.7,1.7c-1,0,-1.8,-.8,-1.8,-1.7Z" class="g1v_374"/>
<path d="M587.6,511.6c0,-1,.8,-1.7,1.8,-1.7c.9,0,1.7,.7,1.7,1.7c0,.9,-.8,1.7,-1.7,1.7c-1,0,-1.8,-.8,-1.8,-1.7Z" class="g1x_374"/>
<path d="M545.9,1012H756.5" class="g1s_374"/>
<path d="M542.2,1012l4.9,-1.9l-1.2,1.9l1.2,1.8Z" class="g1v_374"/>
<path d="M760.2,1012l-4.8,1.8l1.1,-1.8l-1.1,-1.9Z" class="g1v_374"/>
<path d="M708.9,942.3v52.8m52.2,10v13.7M540.5,1005.1v13.7" class="g1s_374"/>
<path d="M708.9,938.6l1.8,4.9l-1.8,-1.2l-1.8,1.2Z" class="g1v_374"/>
<path d="M708.9,998.8l-1.8,-4.9l1.8,1.2l1.8,-1.2Z" class="g1v_374"/>
<path d="M540.5,937.7H761.1m-220.6,62H761.1" class="g1s_374"/>
<path d="M703.2,981.3h11.4V958.4H703.2v22.9Z" class="g1y_374"/>
<path d="M632.8,1016.9h36.8v-11.5H632.8v11.5Z" class="g1y_374"/>
<path d="M545.9,949.5H646.2" class="g1s_374"/>
<path d="M542.2,949.5l4.9,-1.8l-1.2,1.8l1.2,1.9Z" class="g1v_374"/>
<path d="M649.9,949.5l-4.8,1.9l1.1,-1.9l-1.1,-1.8Z" class="g1v_374"/>
<path d="M650.8,942.6v13.8M540.5,942.6v13.8" class="g1s_374"/>
<path d="M586.9,954.5h18.3V943H586.9v11.5Z" class="g1y_374"/>
<path clip-path="url(#c2_374)" d="M525.1,1021H514.8v-5.7c0,-3.9,-7.2,-10.4,-7.5,-16.4c-.4,-7.2,1.2,-10,2.9,-11.6c1.5,-1.6,3.7,-3.8,9.7,-3.8c5.6,0,8.2,2.2,9.8,3.8c1.7,1.6,3.2,4.4,2.9,11.6c-.3,5.9,-7.5,12.5,-7.5,16.4Z" class="g1z_374"/>
<path d="M524.6,1019.5h-9.7v-5.4c0,-3.7,-6.7,-9.8,-7,-15.5c-.3,-6.7,1.2,-9.4,2.7,-10.9c1.5,-1.5,3.5,-3.6,9.2,-3.6c5.2,0,7.6,2.1,9.1,3.6c1.6,1.5,3,4.2,2.7,10.9c-.3,5.6,-7,11.8,-7,15.5Z" class="g20_374"/>
<path d="M524.2,1018h-9.1v-5.1c0,-3.4,-6.3,-9.1,-6.5,-14.5c-.3,-6.4,1,-8.8,2.5,-10.3c1.4,-1.4,3.3,-3.3,8.5,-3.3c4.9,0,7.2,1.9,8.6,3.3c1.4,1.5,2.8,3.9,2.5,10.3c-.3,5.2,-6.5,11.1,-6.5,14.5Z" class="g21_374"/>
<path d="M523.7,1016.5h-8.4v-4.7c0,-3.2,-5.8,-8.6,-6.1,-13.6c-.3,-6,1,-8.3,2.3,-9.7c1.3,-1.3,3.1,-3.1,8,-3.1c4.5,0,6.6,1.8,7.9,3.1c1.4,1.4,2.6,3.7,2.4,9.7c-.3,4.9,-6.1,10.4,-6.1,13.6Z" class="g22_374"/>
<path d="M523.2,1015.1h-7.7v-4.5c0,-3,-5.4,-8,-5.6,-12.7c-.3,-5.5,.9,-7.7,2.1,-9c1.2,-1.2,2.8,-2.9,7.3,-2.9c4.2,0,6.2,1.7,7.4,2.9c1.2,1.3,2.4,3.5,2.1,9c-.2,4.6,-5.6,9.7,-5.6,12.7Z" class="g23_374"/>
<path d="M522.7,1013.6h-7.1v-4.1c0,-2.8,-4.9,-7.5,-5.1,-11.8c-.2,-5.2,.8,-7.2,2,-8.4c1.1,-1.1,2.5,-2.6,6.7,-2.6c3.9,0,5.6,1.5,6.7,2.6c1.2,1.2,2.2,3.2,2,8.4c-.2,4.2,-5.2,9,-5.2,11.8Z" class="g24_374"/>
<path d="M522.3,1012.1h-6.5v-3.8c0,-2.6,-4.5,-6.8,-4.7,-10.8c-.2,-4.8,.8,-6.6,1.9,-7.7c.9,-1.1,2.3,-2.5,6,-2.5c3.5,0,5.2,1.4,6.2,2.5c1,1.1,2,2.9,1.7,7.7c-.1,3.9,-4.6,8.2,-4.6,10.8Z" class="g25_374"/>
<path d="M521.8,1010.6H516v-3.5c0,-2.3,-4,-6.2,-4.2,-9.9c-.2,-4.3,.7,-6,1.6,-7c.9,-1,2.1,-2.3,5.5,-2.3c3.2,0,4.6,1.3,5.5,2.3c.9,1,1.8,2.7,1.6,7c-.2,3.6,-4.2,7.6,-4.2,9.9Z" class="g26_374"/>
<path d="M521.3,1009.1h-5.1V1006c0,-2.1,-3.6,-5.7,-3.8,-9c-.1,-4,.6,-5.5,1.5,-6.4c.8,-.9,1.8,-2.1,4.9,-2.1c2.8,0,4.1,1.2,4.8,2.1c.9,.9,1.7,2.4,1.5,6.4c-.2,3.2,-3.8,6.9,-3.8,9Z" class="g27_374"/>
<path d="M520.9,1007.7h-4.5v-2.9c0,-1.9,-3.2,-5.1,-3.3,-8c-.2,-3.6,.5,-5,1.2,-5.8c.7,-.8,1.7,-1.8,4.3,-1.8c2.5,0,3.6,1,4.3,1.8c.7,.8,1.4,2.2,1.3,5.8c-.2,2.9,-3.3,6.1,-3.3,8Z" class="g28_374"/>
<path d="M520.4,1006.2h-3.9v-2.5c0,-1.7,-2.7,-4.6,-2.8,-7.2c-.1,-3.1,.5,-4.3,1.1,-5.1c.6,-.7,1.4,-1.6,3.7,-1.6c2.1,0,3,.9,3.6,1.6c.7,.8,1.2,2,1.1,5.1c-.1,2.6,-2.8,5.5,-2.8,7.2Z" class="g29_374"/>
<path d="M519.9,1004.7h-3.2v-2.2c0,-1.5,-2.2,-3.9,-2.3,-6.2c-.1,-2.8,.4,-3.8,.9,-4.4c.5,-.6,1.1,-1.5,3,-1.5c1.8,0,2.6,.9,3.1,1.5c.5,.6,1,1.6,.9,4.4c-.1,2.2,-2.4,4.7,-2.4,6.2Z" class="g2a_374"/>
<path d="M519.5,1003.2h-2.6v-1.9c0,-1.2,-1.8,-3.3,-1.9,-5.3c-.1,-2.3,.3,-3.2,.7,-3.7c.4,-.5,1,-1.2,2.5,-1.2c1.4,0,2,.7,2.4,1.2c.4,.5,.8,1.4,.7,3.7c0,1.9,-1.8,4.1,-1.8,5.3Z" class="g2b_374"/>
<path d="M519,1001.7h-1.9v-1.5c0,-1.1,-1.4,-2.8,-1.4,-4.4c-.1,-1.9,.2,-2.7,.5,-3.1c.3,-.4,.7,-1,1.8,-1c1.1,0,1.6,.6,1.9,1c.3,.4,.6,1.2,.5,3.1c-.1,1.6,-1.4,3.3,-1.4,4.4Z" class="g2c_374"/>
<path d="M515.6,1025.6h8.6c1,0,1.8,.2,1.8,.5v1.3c0,.3,-.8,.5,-1.8,.5h-8.6c-.9,0,-1.7,-.2,-1.7,-.5v-1.3c0,-.3,.8,-.5,1.7,-.5Z" class="g2d_374"/>
<path d="M515.6,1025.6h8.6c1,0,1.8,.2,1.8,.5v1.3c0,.3,-.8,.5,-1.8,.5h-8.6c-.9,0,-1.7,-.2,-1.7,-.5v-1.3c0,-.3,.8,-.5,1.7,-.5Z" class="g2e_374"/>
<path d="M515.6,1023.3h8.6c1,0,1.8,.2,1.8,.5v1.3c0,.3,-.8,.5,-1.8,.5h-8.6c-.9,0,-1.7,-.2,-1.7,-.5v-1.3c0,-.3,.8,-.5,1.7,-.5Z" class="g2d_374"/>
<path d="M515.6,1023.3h8.6c1,0,1.8,.2,1.8,.5v1.3c0,.3,-.8,.5,-1.8,.5h-8.6c-.9,0,-1.7,-.2,-1.7,-.5v-1.3c0,-.3,.8,-.5,1.7,-.5Z" class="g2e_374"/>
<path d="M515.6,1021h8.6c1,0,1.8,.2,1.8,.5v1.3c0,.3,-.8,.5,-1.8,.5h-8.6c-.9,0,-1.7,-.2,-1.7,-.5v-1.3c0,-.3,.8,-.5,1.7,-.5Z" class="g2d_374"/>
<path d="M515.6,1021h8.6c1,0,1.8,.2,1.8,.5v1.3c0,.3,-.8,.5,-1.8,.5h-8.6c-.9,0,-1.7,-.2,-1.7,-.5v-1.3c0,-.3,.8,-.5,1.7,-.5Z" class="g2e_374"/>
<path d="M515,1025.6h10.1M515,1023.3h10.1" class="g2f_374"/>
<path fill-rule="evenodd" d="M524.5,1028.5v.5c0,.4,-.5,.6,-1.1,.6h-6.9c-.7,0,-1.2,-.2,-1.2,-.6v-.5c0,0,9.2,.1,9.2,0Z" class="g1v_374"/>
<path d="M524.5,1028.5v.5c0,.4,-.5,.6,-1.1,.6h-6.9c-.7,0,-1.2,-.2,-1.2,-.6v-.5c0,0,9.2,.1,9.2,0Z" class="g2f_374"/>
<path clip-path="url(#c2_374)" d="M786.9,1021H776.6v-5.7c0,-3.9,-7.2,-10.4,-7.5,-16.4c-.3,-7.2,1.2,-10,2.9,-11.6c1.6,-1.6,3.7,-3.8,9.8,-3.8c5.6,0,8.2,2.2,9.7,3.8c1.7,1.6,3.3,4.4,2.9,11.6c-.3,5.9,-7.5,12.5,-7.5,16.4Z" class="g1z_374"/>
<path d="M786.5,1019.5h-9.7v-5.4c0,-3.7,-6.8,-9.8,-7,-15.5c-.3,-6.7,1.1,-9.4,2.7,-10.9c1.5,-1.5,3.5,-3.6,9.1,-3.6c5.3,0,7.7,2.1,9.2,3.6c1.6,1.5,3,4.2,2.7,10.9c-.3,5.6,-7,11.8,-7,15.5Z" class="g20_374"/>
<path d="M786,1018h-9v-5.1c0,-3.4,-6.3,-9.1,-6.6,-14.5c-.3,-6.4,1.1,-8.8,2.5,-10.3c1.4,-1.4,3.3,-3.3,8.6,-3.3c4.9,0,7.1,1.9,8.5,3.3c1.5,1.5,2.8,3.9,2.5,10.3c-.2,5.2,-6.5,11.1,-6.5,14.5Z" class="g21_374"/>
<path d="M785.5,1016.5h-8.4v-4.7c0,-3.2,-5.8,-8.6,-6,-13.6c-.3,-6,.9,-8.3,2.3,-9.7c1.3,-1.3,3,-3.1,7.9,-3.1c4.6,0,6.7,1.8,8,3.1c1.3,1.4,2.6,3.7,2.3,9.7c-.2,4.9,-6.1,10.4,-6.1,13.6Z" class="g22_374"/>
<path d="M785.1,1015.1h-7.8v-4.5c0,-3,-5.4,-8,-5.6,-12.7c-.2,-5.5,.9,-7.7,2.2,-9c1.2,-1.2,2.8,-2.9,7.3,-2.9c4.2,0,6.1,1.7,7.3,2.9c1.3,1.3,2.4,3.5,2.2,9c-.2,4.6,-5.6,9.7,-5.6,12.7Z" class="g23_374"/>
<path d="M784.6,1013.6h-7.1v-4.1c0,-2.8,-4.9,-7.5,-5.1,-11.8c-.3,-5.2,.8,-7.2,1.9,-8.4c1.1,-1.1,2.6,-2.6,6.7,-2.6c3.9,0,5.7,1.5,6.8,2.6c1.1,1.2,2.2,3.2,1.9,8.4c-.2,4.2,-5.1,9,-5.1,11.8Z" class="g24_374"/>
<path d="M784.1,1012.1h-6.4v-3.8c0,-2.6,-4.5,-6.8,-4.7,-10.8c-.2,-4.8,.8,-6.6,1.8,-7.7c1,-1.1,2.3,-2.5,6.1,-2.5c3.5,0,5.1,1.4,6.1,2.5c1,1.1,2,2.9,1.8,7.7c-.2,3.9,-4.7,8.2,-4.7,10.8Z" class="g25_374"/>
<path d="M783.7,1010.6h-5.8v-3.5c0,-2.3,-4.1,-6.2,-4.2,-9.9c-.2,-4.3,.6,-6,1.6,-7c.9,-1,2.1,-2.3,5.5,-2.3c3.1,0,4.6,1.3,5.5,2.3c.9,1,1.8,2.7,1.6,7c-.2,3.6,-4.2,7.6,-4.2,9.9Z" class="g26_374"/>
<path d="M783.2,1009.1H778V1006c0,-2.1,-3.6,-5.7,-3.7,-9c-.2,-4,.6,-5.5,1.4,-6.4c.8,-.9,1.9,-2.1,4.9,-2.1c2.8,0,4.1,1.2,4.9,2.1c.8,.9,1.6,2.4,1.4,6.4c-.1,3.2,-3.7,6.9,-3.7,9Z" class="g27_374"/>
<path d="M782.7,1007.7h-4.5v-2.9c0,-1.9,-3.1,-5.1,-3.3,-8c-.1,-3.6,.6,-5,1.3,-5.8c.7,-.8,1.6,-1.8,4.3,-1.8c2.4,0,3.5,1,4.2,1.8c.8,.8,1.4,2.2,1.3,5.8c-.1,2.9,-3.3,6.1,-3.3,8Z" class="g28_374"/>
<path d="M782.3,1006.2h-3.9v-2.5c0,-1.7,-2.7,-4.6,-2.8,-7.2c-.1,-3.1,.4,-4.3,1.1,-5.1c.6,-.7,1.4,-1.6,3.6,-1.6c2.1,0,3.1,.9,3.7,1.6c.6,.8,1.2,2,1.1,5.1c-.1,2.6,-2.8,5.5,-2.8,7.2Z" class="g29_374"/>
<path d="M781.8,1004.7h-3.2v-2.2c0,-1.5,-2.3,-3.9,-2.4,-6.2c-.1,-2.8,.4,-3.8,.9,-4.4c.5,-.6,1.2,-1.5,3.1,-1.5c1.7,0,2.5,.9,3,1.5c.6,.6,1,1.6,.9,4.4c-.1,2.2,-2.3,4.7,-2.3,6.2Z" class="g2a_374"/>
<path d="M781.3,1003.2h-2.6v-1.9c0,-1.2,-1.8,-3.3,-1.8,-5.3c-.1,-2.3,.3,-3.2,.7,-3.7c.4,-.5,.9,-1.2,2.4,-1.2c1.4,0,2.1,.7,2.5,1.2c.4,.5,.8,1.4,.7,3.7c-.1,1.9,-1.9,4.1,-1.9,5.3Z" class="g2b_374"/>
<path d="M780.9,1001.7h-2v-1.5c0,-1.1,-1.3,-2.8,-1.4,-4.4c0,-1.9,.2,-2.7,.6,-3.1c.3,-.4,.7,-1,1.8,-1c1,0,1.5,.6,1.8,1c.3,.4,.6,1.2,.6,3.1c-.1,1.6,-1.4,3.3,-1.4,4.4Z" class="g2c_374"/>
<path d="M777.5,1025.6h8.6c.9,0,1.7,.2,1.7,.5v1.3c0,.3,-.8,.5,-1.7,.5h-8.6c-1,0,-1.8,-.2,-1.8,-.5v-1.3c0,-.3,.8,-.5,1.8,-.5Z" class="g2d_374"/>
<path d="M777.5,1025.6h8.6c.9,0,1.7,.2,1.7,.5v1.3c0,.3,-.8,.5,-1.7,.5h-8.6c-1,0,-1.8,-.2,-1.8,-.5v-1.3c0,-.3,.8,-.5,1.8,-.5Z" class="g2e_374"/>
<path d="M777.5,1023.3h8.6c.9,0,1.7,.2,1.7,.5v1.3c0,.3,-.8,.5,-1.7,.5h-8.6c-1,0,-1.8,-.2,-1.8,-.5v-1.3c0,-.3,.8,-.5,1.8,-.5Z" class="g2d_374"/>
<path d="M777.5,1023.3h8.6c.9,0,1.7,.2,1.7,.5v1.3c0,.3,-.8,.5,-1.7,.5h-8.6c-1,0,-1.8,-.2,-1.8,-.5v-1.3c0,-.3,.8,-.5,1.8,-.5Z" class="g2e_374"/>
<path d="M777.5,1021h8.6c.9,0,1.7,.2,1.7,.5v1.3c0,.3,-.8,.5,-1.7,.5h-8.6c-1,0,-1.8,-.2,-1.8,-.5v-1.3c0,-.3,.8,-.5,1.8,-.5Z" class="g2d_374"/>
<path d="M777.5,1021h8.6c.9,0,1.7,.2,1.7,.5v1.3c0,.3,-.8,.5,-1.7,.5h-8.6c-1,0,-1.8,-.2,-1.8,-.5v-1.3c0,-.3,.8,-.5,1.8,-.5Z" class="g2e_374"/>
<path d="M776.9,1025.6h10m-10,-2.3h10" class="g2f_374"/>
<path fill-rule="evenodd" d="M786.4,1028.5v.5c0,.4,-.5,.6,-1.2,.6h-6.9c-.6,0,-1.1,-.2,-1.1,-.6v-.5c0,0,9.2,.1,9.2,0Z" class="g1v_374"/>
<path d="M786.4,1028.5v.5c0,.4,-.5,.6,-1.2,.6h-6.9c-.6,0,-1.1,-.2,-1.1,-.6v-.5c0,0,9.2,.1,9.2,0Z" class="g2f_374"/>
<path d="M538.8,999.7c0,-1,.8,-1.7,1.7,-1.7c1,0,1.8,.7,1.8,1.7c0,1,-.8,1.7,-1.8,1.7c-.9,0,-1.7,-.7,-1.7,-1.7Z" class="g1v_374"/>
<path d="M538.8,999.7c0,-1,.8,-1.7,1.7,-1.7c1,0,1.8,.7,1.8,1.7c0,1,-.8,1.7,-1.8,1.7c-.9,0,-1.7,-.7,-1.7,-1.7Z" class="g1x_374"/>
<path d="M759.4,999.7c0,-1,.8,-1.7,1.7,-1.7c1,0,1.7,.7,1.7,1.7c0,1,-.7,1.7,-1.7,1.7c-.9,0,-1.7,-.7,-1.7,-1.7Z" class="g1v_374"/>
<path d="M759.4,999.7c0,-1,.8,-1.7,1.7,-1.7c1,0,1.7,.7,1.7,1.7c0,1,-.7,1.7,-1.7,1.7c-.9,0,-1.7,-.7,-1.7,-1.7Z" class="g1x_374"/>
<path d="M649.1,937.7c0,-1,.8,-1.7,1.7,-1.7c1,0,1.7,.7,1.7,1.7c0,.9,-.7,1.7,-1.7,1.7c-.9,0,-1.7,-.8,-1.7,-1.7Z" class="g1v_374"/>
<path d="M649.1,937.7c0,-1,.8,-1.7,1.7,-1.7c1,0,1.7,.7,1.7,1.7c0,.9,-.7,1.7,-1.7,1.7c-.9,0,-1.7,-.8,-1.7,-1.7Z" class="g1x_374"/>
<path clip-path="url(#c3_374)" d="M250.1,239.7h15.1" class="g2g_374"/>
<g clip-path="url(#c4_374)">
<path d="M376.3,395.2l16.2,-9l-.6,-1.1l-16.3,9Z" class="g2h_374"/>
<path d="M377,396.6l16.2,-9l-.6,-1.2l-16.2,9Z" class="g2i_374"/>
<path d="M377.7,397.9l16.3,-9l-.7,-1.2l-16.2,9Z" class="g2j_374"/>
<path d="M378.5,399.2l16.2,-9l-.6,-1.1l-16.3,9Z" class="g2k_374"/>
<path d="M379.2,400.6l16.3,-9l-.7,-1.2l-16.2,9Z" class="g2l_374"/>
<path d="M380,401.9l16.2,-9l-.6,-1.2l-16.3,9Z" class="g2m_374"/>
<path d="M380.7,403.2l16.2,-9l-.6,-1.1l-16.2,9Z" class="g2n_374"/>
<path d="M381.4,404.6l16.3,-9l-.7,-1.2l-16.2,9Z" class="g2o_374"/>
<path d="M382.2,405.9l16.2,-9l-.6,-1.2l-16.3,9Z" class="g2p_374"/>
<path d="M382.9,407.2l16.3,-9l-.7,-1.1l-16.2,9Z" class="g2q_374"/>
<path d="M383.7,408.6l16.2,-9l-.6,-1.2l-16.3,9Z" class="g2r_374"/>
<path d="M384.4,409.9l16.2,-9l-.6,-1.2l-16.3,9Z" class="g2s_374"/>
<path d="M385.1,411.2l16.3,-9l-.7,-1.1l-16.2,9Z" class="g2t_374"/>
<path d="M385.9,412.6l16.2,-9l-.6,-1.2l-16.3,9Z" class="g2u_374"/>
<path d="M386.6,413.9l16.3,-9l-.7,-1.2l-16.2,9Z" class="g2v_374"/>
<path d="M387.4,415.2l16.2,-9l-.6,-1.1l-16.3,9Z" class="g2w_374"/>
<path d="M388.1,416.6l16.2,-9l-.6,-1.2l-16.3,9Z" class="g2x_374"/>
<path d="M388.8,417.9l16.3,-9l-.7,-1.2l-16.2,9Z" class="g2y_374"/>
<path d="M389.6,419.2l16.2,-9l-.6,-1.1l-16.3,9Z" class="g2z_374"/>
<path d="M390.3,420.6l16.3,-9l-.7,-1.2l-16.2,9Z" class="g30_374"/>
<path d="M391.1,421.9l16.2,-9l-.7,-1.2l-16.2,9Z" class="g31_374"/>
</g>
<g clip-path="url(#c5_374)">
<path d="M378.6,488h26.2v-1.5H378.6V488Z" class="g32_374"/>
<path d="M378.6,489.5h26.2v-1.4H378.6v1.4Z" class="g33_374"/>
<path d="M378.6,491.1h26.2v-1.5H378.6v1.5Z" class="g34_374"/>
<path d="M378.6,492.6h26.2v-1.5H378.6v1.5Z" class="g35_374"/>
<path d="M378.6,494.1h26.2v-1.4H378.6v1.4Z" class="g36_374"/>
<path d="M378.6,495.7h26.2v-1.5H378.6v1.5Z" class="g37_374"/>
<path d="M378.6,497.2h26.2v-1.4H378.6v1.4Z" class="g38_374"/>
<path d="M378.6,498.8h26.2v-1.5H378.6v1.5Z" class="g39_374"/>
<path d="M378.6,500.3h26.2v-1.5H378.6v1.5Z" class="g3a_374"/>
<path d="M378.6,501.8h26.2v-1.4H378.6v1.4Z" class="g3b_374"/>
<path d="M378.6,503.4h26.2v-1.5H378.6v1.5Z" class="g3c_374"/>
<path d="M378.6,504.9h26.2v-1.4H378.6v1.4Z" class="g3d_374"/>
<path d="M378.6,506.5h26.2V505H378.6v1.5Z" class="g3e_374"/>
<path d="M378.6,508h26.2v-1.5H378.6V508Z" class="g3f_374"/>
<path d="M378.6,509.5h26.2v-1.4H378.6v1.4Z" class="g3g_374"/>
<path d="M378.6,511.1h26.2v-1.5H378.6v1.5Z" class="g3h_374"/>
<path d="M378.6,512.6h26.2v-1.4H378.6v1.4Z" class="g3i_374"/>
<path d="M378.6,514.2h26.2v-1.5H378.6v1.5Z" class="g3j_374"/>
<path d="M378.6,515.7h26.2v-1.5H378.6v1.5Z" class="g3k_374"/>
<path d="M378.6,517.2h26.2v-1.4H378.6v1.4Z" class="g3l_374"/>
<path d="M378.6,518.8h26.2v-1.5H378.6v1.5Z" class="g3m_374"/>
<path d="M378.6,520.3h26.2v-1.4H378.6v1.4Z" class="g2w_374"/>
<path d="M378.6,521.9h26.2v-1.5H378.6v1.5Z" class="g2x_374"/>
<path d="M378.6,523.4h26.2V522H378.6v1.4Z" class="g2y_374"/>
<path d="M378.6,524.9h26.2v-1.4H378.6v1.4Z" class="g2z_374"/>
<path d="M378.6,526.5h26.2V525H378.6v1.5Z" class="g30_374"/>
<path d="M378.6,528h26.2v-1.4H378.6V528Z" class="g31_374"/>
</g>
<g clip-path="url(#c6_374)">
<path d="M378.7,537h26.1v-1.4H378.7V537Z" class="g32_374"/>
<path d="M378.7,535.5h26.1v-1.4H378.7v1.4Z" class="g3n_374"/>
<path d="M378.7,534h26.1v-1.4H378.7V534Z" class="g2l_374"/>
<path d="M378.7,532.5h26.1v-1.4H378.7v1.4Z" class="g3o_374"/>
<path d="M378.7,531h26.1v-1.5H378.7V531Z" class="g3p_374"/>
<path d="M378.7,529.5h26.1V528H378.7v1.5Z" class="g31_374"/>
</g>
<g clip-path="url(#c7_374)">
<path d="M391.5,385.4c-4.4,2.1,4.6,28.6,11.1,30.6L262.4,487.4H396.2c-7.4,0,-6.3,49.9,1.1,49.9H75.6c-7.4,0,-7.6,-49.9,-.2,-49.9H186.7Z" class="g32_374"/>
<path d="M391.6,385.9c-4.1,2,4.4,27.3,10.6,29.2L259.2,488H395.9c-7.1,0,-6.1,47.7,.9,47.7H75.4c-7,0,-7.1,-47.8,-.1,-47.8H187.1Z" class="g3q_374"/>
<path d="M391.7,386.3c-3.9,1.9,4.3,26.1,10.1,27.8L256.1,488.6H395.5c-6.6,0,-5.8,45.5,.9,45.5H75.3c-6.6,0,-6.8,-45.6,-.1,-45.6H187.4Z" class="g3r_374"/>
<path d="M391.8,386.8c-3.7,1.7,4.1,24.8,9.6,26.4L253,489.1H395.1c-6.2,0,-5.4,43.4,.8,43.4H75.2C68.9,532.5,68.8,489,75,489H187.8Z" class="g36_374"/>
<path d="M391.9,387.2c-3.4,1.7,4,23.6,9.1,25.1L249.9,489.8H394.8c-5.9,0,-5.2,41.1,.6,41.1H75c-5.8,0,-6,-41.3,-.1,-41.3H188.2Z" class="g3s_374"/>
<path d="M392,387.7c-3.2,1.5,3.8,22.3,8.6,23.7l-153.8,79H394.4c-5.4,0,-4.9,38.9,.6,38.9H74.9c-5.5,0,-5.6,-39.1,-.1,-39.1H188.5Z" class="g3t_374"/>
<path d="M392.1,388.1c-3,1.5,3.7,21.1,8.1,22.4L243.7,491H394.1c-5.1,0,-4.6,36.7,.4,36.7H74.7c-5,0,-5.1,-37,-.1,-37H188.9Z" class="g3u_374"/>
<path d="M392.2,388.6c-2.7,1.3,3.6,19.8,7.7,21l-159.3,82H393.7c-4.7,0,-4.3,34.5,.4,34.5H74.6c-4.7,0,-4.8,-34.8,-.1,-34.8H189.2Z" class="g3v_374"/>
<path d="M392.3,389c-2.5,1.2,3.4,18.5,7.2,19.7l-162,83.5H393.4c-4.3,0,-4,32.3,.2,32.3H74.5c-4.3,0,-4.4,-32.7,-.1,-32.7H189.6Z" class="g3w_374"/>
<path d="M392.4,389.5c-2.3,1.1,3.3,17.2,6.7,18.3l-164.7,85H393c-3.9,0,-3.7,30.2,.2,30.2H74.3c-3.9,0,-4,-30.6,-.1,-30.6H190Z" class="g2n_374"/>
<path d="M392.5,389.9c-2,1,3.1,16,6.2,17L231.3,493.3H392.6c-3.5,0,-3.4,28.1,.1,28.1H74.2c-3.5,0,-3.6,-28.4,-.1,-28.4H190.3Z" class="g3x_374"/>
<path d="M392.7,390.4c-1.9,.9,2.9,14.7,5.6,15.6L228.2,493.9H392.3c-3.1,0,-3.1,25.9,0,25.9H74c-3.1,0,-3.1,-26.3,0,-26.3H190.7Z" class="g2q_374"/>
<path d="M392.7,390.8c-1.6,.8,2.8,13.5,5.2,14.2L225.1,494.6H391.9c-2.7,0,-2.8,23.6,-.1,23.6H73.9c-2.7,0,-2.8,-24.1,-.1,-24.1H191Z" class="g3y_374"/>
<path d="M392.9,391.3c-1.4,.7,2.6,12.2,4.7,12.8L222,495.2H391.6c-2.4,0,-2.6,21.4,-.2,21.4H73.8c-2.4,0,-2.4,-22,-.1,-22H191.4Z" class="g3z_374"/>
<path d="M393,391.7c-1.2,.6,2.4,11,4.2,11.5L218.9,495.7H391.2c-2,0,-2.2,19.3,-.3,19.3H73.6c-1.9,0,-2,-19.8,0,-19.8H191.8Z" class="g2u_374"/>
<path d="M393.1,392.2c-1,.4,2.3,9.7,3.7,10.1l-181,94.1h175c-1.5,0,-1.9,17,-.3,17H73.5c-1.6,0,-1.6,-17.6,-.1,-17.6H192.1Z" class="g40_374"/>
<path d="M393.2,392.6c-.7,.4,2.2,8.5,3.2,8.8L212.7,497H390.5c-1.2,0,-1.6,14.8,-.5,14.8H73.3c-1.1,0,-1.2,-15.5,0,-15.5H192.5Z" class="g41_374"/>
<path d="M393.3,393.1c-.5,.2,2,7.2,2.7,7.4L209.6,497.6H390.1c-.7,0,-1.3,12.6,-.5,12.6H73.2c-.8,0,-.8,-13.3,0,-13.3H192.8Z" class="g42_374"/>
<path d="M393.4,393.5c-.3,.1,1.9,6,2.2,6.1L206.5,498.1H389.8c-.4,0,-1.1,10.6,-.7,10.6H73.1c-.4,0,-.4,-11.3,0,-11.3H193.2Z" class="g43_374"/>
<path d="M393.5,394l1.7,4.7L203.4,498.8h186l-.7,8.3H72.9V498H193.5Z" class="g31_374"/>
</g>
<path d="M289.3,453.5l-4.1,-8.8" class="g44_374"/>
<path d="M290.9,456.8l-3.7,-3.6l2.1,.3l1.2,-1.8Z" class="g1v_374"/>
<path d="M283.7,441.4l3.7,3.5l-2.2,-.2l-1.1,1.8Z" class="g1v_374"/>
<path d="M414,450.7V408.9" class="g44_374"/>
<path d="M414,405.3l1.8,4.8L414,408.9l-1.9,1.2Z" class="g1v_374"/>
<path d="M414,467.4v42" class="g44_374"/>
<path d="M414,513l-1.9,-4.8l1.9,1.2l1.8,-1.2Z" class="g1v_374"/>
<path d="M387.6,547.5H92.3m-4.6,-5.9v12.1m304,-12.1v12.1" class="g44_374"/>
<path d="M391.2,547.5l-4.8,1.9l1.2,-1.9l-1.2,-1.8Z" class="g1v_374"/>
<path d="M88.7,547.5l4.8,-1.8l-1.2,1.8l1.2,1.9Z" class="g1v_374"/>
<path clip-path="url(#c8_374)" d="M145.5,509.3V492.2M420.2,404.8H408.1m12.1,108.9H408.1" class="g44_374"/>
<path d="M145.5,512.9l-1.8,-4.8l1.8,1.2l1.8,-1.2Z" class="g1v_374"/>
<path d="M145.5,488.6l1.8,4.7l-1.8,-1.1l-1.8,1.1Z" class="g1v_374"/>
<path d="M88.3,487.5c7.4,0,13.8,11.3,13.8,25c0,13.6,-6.4,24.9,-13.8,24.9" class="g45_374"/>
<path clip-path="url(#c8_374)" d="M235.4,559H249V542.4H235.4V559Z" class="g1y_374"/>
<path d="M390.2,513.7H89.2m302,-108.9L182.1,513.5" class="g46_374"/>
<path d="M180.4,513.5c0,-.9,.7,-1.7,1.7,-1.7c.9,0,1.7,.8,1.7,1.7c0,.9,-.8,1.7,-1.7,1.7c-1,0,-1.7,-.8,-1.7,-1.7Z" class="g1v_374"/>
<path d="M180.4,513.5c0,-.9,.7,-1.7,1.7,-1.7c.9,0,1.7,.8,1.7,1.7c0,.9,-.8,1.7,-1.7,1.7c-1,0,-1.7,-.8,-1.7,-1.7Z" class="g47_374"/>
<path d="M88.1,513.5c0,-.9,.8,-1.7,1.7,-1.7c1,0,1.7,.8,1.7,1.7c0,.9,-.7,1.7,-1.7,1.7c-.9,0,-1.7,-.8,-1.7,-1.7Z" class="g1v_374"/>
<path d="M88.1,513.5c0,-.9,.8,-1.7,1.7,-1.7c1,0,1.7,.8,1.7,1.7c0,.9,-.7,1.7,-1.7,1.7c-.9,0,-1.7,-.8,-1.7,-1.7Z" class="g47_374"/>
<path d="M389.5,404.8c0,-1,.7,-1.7,1.7,-1.7c.9,0,1.7,.7,1.7,1.7c0,.9,-.8,1.7,-1.7,1.7c-1,0,-1.7,-.8,-1.7,-1.7Z" class="g1v_374"/>
<path d="M389.5,404.8c0,-1,.7,-1.7,1.7,-1.7c.9,0,1.7,.7,1.7,1.7c0,.9,-.8,1.7,-1.7,1.7c-1,0,-1.7,-.8,-1.7,-1.7Z" class="g47_374"/>
<path d="M389.9,513.5c0,-.9,.7,-1.7,1.7,-1.7c.9,0,1.7,.8,1.7,1.7c0,.9,-.8,1.7,-1.7,1.7c-1,0,-1.7,-.8,-1.7,-1.7Z" class="g1v_374"/>
<path d="M389.9,513.5c0,-.9,.7,-1.7,1.7,-1.7c.9,0,1.7,.8,1.7,1.7c0,.9,-.8,1.7,-1.7,1.7c-1,0,-1.7,-.8,-1.7,-1.7Z" class="g47_374"/>
<path d="M193.5,643.1h66.8m19.7,0h41.4" class="g2g_374"/>
<path clip-path="url(#c9_374)" d="M253.7,741h15.2" class="g2g_374"/>
</svg>