<?xml version="1.0" encoding="UTF-8" standalone="no"?>
<!DOCTYPE svg PUBLIC "-//W3C//DTD SVG 1.1//EN"
"http://www.w3.org/Graphics/SVG/1.1/DTD/svg11.dtd">
<svg viewBox="0 0 931 1096" version="1.1" xmlns="http://www.w3.org/2000/svg" xmlns:xlink="http://www.w3.org/1999/xlink">
<defs>
<clipPath id="c0_293"><path d="M712,127.8V97.3h82.8v30.5Z"/></clipPath>
<clipPath id="c1_293"><path d="M712,274.4V243.9h82.8v30.5Z"/></clipPath>
<clipPath id="c2_293"><path d="M278.8,399.1V368.6h88.5v30.5Z"/></clipPath>
<style type="text/css"><![CDATA[
.g0_293{
fill: none;
stroke: #241F1F;
stroke-width: 1.069;
stroke-dasharray: 4,3;
}
.g1_293{
fill: #241F1F;
}
.g2_293{
fill: #FFF;
}
.g3_293{
fill: none;
stroke: #241F1F;
stroke-width: 0.687;
stroke-miterlimit: 10;
}
.g4_293{
fill: #00AEEF;
}
]]></style>
</defs>
<path d="M97.8,-20V1116.6" class="g0_293"/>
<path fill-rule="evenodd" d="M96.2,114.5l-4.8,-4.2l-1.3,10.2c-1,-1.5,-1.5,-3.1,-1.5,-4.9l.4,-7.7c-.7,-.7,-1.6,-1.7,-2,-2.7c-.1,-.3,-.5,-1.6,-.9,-1.6c-.3,0,-.8,.4,-1.5,.4c-1.5,0,-2.7,-1.4,-2.7,-2.8c0,-1.1,.8,-2.1,2,-2.1c1.1,0,1.9,.8,2.3,1.7c.3,.5,.4,1.1,.5,1.6c.4,1.4,.7,2.1,1.6,3.1c.4,.5,.8,.9,1.4,1.1c.8,-.7,1.5,-2,1.5,-3.1c0,-.9,-.5,-1.9,-.5,-2.9c0,-1.2,.7,-2.3,2,-2.3c1.5,0,2.7,1.4,2.7,2.8c0,1.3,-.9,2.3,-2.2,2.3c-.3,0,-.4,0,-.7,-.1c-.4,-.1,-.7,-.1,-.7,.4v.8l-.2,3.4l4.6,4.1ZM84.1,99.8c-.9,0,-1.5,.5,-1.5,1.4c0,.9,.9,2.1,1.8,2.1c.7,0,1.4,-.4,1.4,-1.2c0,-.9,-.8,-2.3,-1.7,-2.3M92.8,99c-.9,0,-1.4,.8,-1.4,1.6c0,1.1,.6,2,1.8,2c.9,0,1.5,-.7,1.5,-1.5c0,-1,-.9,-2.1,-1.9,-2.1Z" class="g1_293"/>
<path d="M90,108.3c0,-.1,.1,-.2,.2,-.2c.1,0,.3,.1,.3,.2c0,.2,-.2,.3,-.3,.3c-.1,0,-.2,-.1,-.2,-.3Z" class="g2_293"/>
<path clip-path="url(#c0_293)" d="M712.4,113.5h10.2m19.7,0h16.6m19.7,0h16.6" class="g3_293"/>
<path d="M712.7,162.4h16.6m19.7,0h16.6m19.7,0h15.8m-77.4,48.9h17.4m19.7,0h16.6m19.7,0h15.8M712.4,260.2h10.2m19.7,0h16.6" class="g3_293"/>
<path clip-path="url(#c1_293)" d="M778.6,260.2h16.6" class="g3_293"/>
<path d="M280,340.5h16.6m19.7,0h16.6m19.7,0h15.8m-89.1,44.3h15.8m19.7,0h16.6" class="g3_293"/>
<path clip-path="url(#c2_293)" d="M351.1,384.8h16.6" class="g3_293"/>
<path d="M108.5,82.7H260.7V53.3H108.5V82.7Z" class="g4_293"/>
</svg>