<?xml version="1.0" encoding="UTF-8" standalone="no"?>
<!DOCTYPE svg PUBLIC "-//W3C//DTD SVG 1.1//EN"
"http://www.w3.org/Graphics/SVG/1.1/DTD/svg11.dtd">
<svg viewBox="0 0 931 1096" version="1.1" xmlns="http://www.w3.org/2000/svg" xmlns:xlink="http://www.w3.org/1999/xlink">
<defs>
<clipPath id="c0_218"><path d="M78.7,1004.6V763.3H385.8v241.3Z"/></clipPath>
<clipPath id="c1_218"><path d="M547,1005.2v-29H724.1v29Z"/></clipPath>
<style type="text/css"><![CDATA[
.g0_218{
fill: none;
stroke: #241F1F;
stroke-width: 0.687;
stroke-miterlimit: 10;
}
.g1_218{
fill: none;
stroke: #EE008C;
stroke-width: 0.762;
stroke-linejoin: round;
}
.g2_218{
fill: #EE008C;
}
.g3_218{
fill: none;
stroke: #EE008C;
stroke-width: 0.762;
stroke-miterlimit: 3;
}
.g4_218{
fill: none;
stroke: #241F1F;
stroke-width: 0.611;
stroke-miterlimit: 3;
}
.g5_218{
fill: #241F1F;
}
.g6_218{
fill: none;
stroke: #00AEEF;
stroke-width: 0.763;
stroke-miterlimit: 10;
}
.g7_218{
fill: none;
stroke: #EE008C;
stroke-width: 0.763;
stroke-linejoin: round;
}
.g8_218{
fill: none;
stroke: #00AEEF;
stroke-width: 0.763;
stroke-linejoin: round;
}
]]></style>
</defs>
<path d="M105.4,149.2h17.8M105.4,189h17.8m-17.8,41.2h17.8m-17.8,38.2h17.8m24.7,73.3h17.8M147.9,383h17.8" class="g0_218"/>
<path d="M222,784.4c-68,0,-81.5,88.5,-81.5,131.6c0,43.2,16,51.2,77,51.2c64.3,0,159.4,-5,159.4,-53.9C376.9,868.4,283.8,784.4,222,784.4Z" class="g1_218"/>
<path d="M139,916.1c0,-.9,.7,-1.6,1.5,-1.6c.9,0,1.5,.7,1.5,1.6c0,.8,-.6,1.5,-1.5,1.5c-.8,0,-1.5,-.7,-1.5,-1.5Z" class="g2_218"/>
<path d="M139,916.1c0,-.9,.7,-1.6,1.5,-1.6c.9,0,1.5,.7,1.5,1.6c0,.8,-.6,1.5,-1.5,1.5c-.8,0,-1.5,-.7,-1.5,-1.5Z" class="g3_218"/>
<path d="M140.5,916c0,43.2,16,51.2,77,51.2c39.2,0,89.9,-1.9,123.4,-14.4" class="g1_218"/>
<path d="M344.9,951.4l-4.5,3.9l.5,-2.5L339,951.3Z" class="g2_218"/>
<path d="M78.7,977.1H380.9" class="g4_218"/>
<path clip-path="url(#c0_218)" fill-rule="evenodd" d="M380.9,977.1l-1.6,-2.4l6.5,2.4l-6.5,2.5Z" class="g5_218"/>
<path d="M106.2,1004.6V771.1" class="g4_218"/>
<path fill-rule="evenodd" d="M106.2,771.1l-2.5,1.6l2.5,-6.5l2.4,6.5Z" class="g5_218"/>
<path d="M152,974.1v6.1M103.1,794h6.1m-6.1,61h6.1m-6.1,61.1h6.1m88.5,58v6.1M103.1,794h6.1M243.5,974.1v6.1m45.8,-6.1v6.1m45.8,-6.1v6.1" class="g4_218"/>
<path d="M447.7,367.5H823.5M447.7,898.6H823.5" class="g6_218"/>
<path d="M582.1,128.2c-37.5,6.7,-70.3,26.4,-70.3,90.9c0,45.7,7.8,61.9,128.4,61.9c71.7,0,100.6,-6.7,100.6,-13.5c0,-8.4,-49.1,-30.1,-110.5,-30.1" class="g1_218"/>
<path d="M580.6,128.2c0,-.8,.7,-1.5,1.5,-1.5c.8,0,1.5,.7,1.5,1.5c0,.9,-.7,1.6,-1.5,1.6c-.8,0,-1.5,-.7,-1.5,-1.6Z" class="g2_218"/>
<path d="M580.6,128.2c0,-.8,.7,-1.5,1.5,-1.5c.8,0,1.5,.7,1.5,1.5c0,.9,-.7,1.6,-1.5,1.6c-.8,0,-1.5,-.7,-1.5,-1.6Z" class="g3_218"/>
<path d="M472.9,311.4H775.1" class="g4_218"/>
<path fill-rule="evenodd" d="M775.1,311.4l-1.7,-2.5l6.5,2.5l-6.5,2.4Z" class="g5_218"/>
<path d="M500.3,338.9V105.3" class="g4_218"/>
<path fill-rule="evenodd" d="M500.3,105.3l-2.4,1.7l2.4,-6.5l2.5,6.5Z" class="g5_218"/>
<path d="M555.3,308.3v6.1m-58,-186.2h6.1M497.3,174h6.1m-6.1,45.8h6.1m106.8,88.5v6.1M497.3,128.2h6.1M665.2,308.3v6.1m54.9,-6.1v6.1M497.3,265.6h6.1" class="g4_218"/>
<path d="M508,592.5c33.4,0,32.1,-110.1,51.4,-110.1c14.3,0,43.3,110.1,86,110.1c33.4,0,32,-110.1,51.3,-110.1c12.8,0,37.2,87.6,72.7,106.5" class="g7_218"/>
<path d="M508,554.3c17,-41,19.8,-97.2,29.2,-97.2c15.2,0,6.6,139.3,56.6,139.3h3c65.4,0,61.9,-139.3,76.8,-139.3c15.1,0,6.5,139.3,56.5,139.3h3c15.6,0,27.3,-7.9,36.3,-20" class="g8_218"/>
<path d="M472.9,630.6H778.1" class="g4_218"/>
<path fill-rule="evenodd" d="M778.1,630.6l-1.6,-2.4l6.5,2.4l-6.5,2.5Z" class="g5_218"/>
<path d="M508,653.5V455.1" class="g4_218"/>
<path fill-rule="evenodd" d="M508,455.1l-2.5,1.6l2.5,-6.5l2.4,6.5Z" class="g5_218"/>
<path d="M504.9,478H511m-6.1,38.2H511m24.4,111.4v6.1m219.9,-6.1v6.1m-27.5,-6.1v6.1m-27.5,-6.1v6.1m-27.5,-6.1v6.1m-27.5,-6.1v6.1m-27.4,-6.1v6.1m-27.5,-6.1v6.1m-27.5,-6.1v6.1m-58,-41.2H511m-6.1,-38.2H511" class="g4_218"/>
<path d="M508,757.5c50.5,0,48.1,-60.5,89.1,-60.5c26.5,0,40.9,11.8,95.6,11.8h62.8" class="g8_218"/>
<path d="M508,769.7c9.7,27.7,26.2,77.8,61,77.8c34.7,0,34.4,-17.1,117,-17.1c24,0,55.5,.5,69.5,.5" class="g7_218"/>
<path d="M472.9,855.2H782.7" class="g4_218"/>
<path fill-rule="evenodd" d="M782.7,855.2l-1.6,-2.5l6.5,2.5l-6.5,2.4Z" class="g5_218"/>
<path d="M508,878.1V690.3" class="g4_218"/>
<path fill-rule="evenodd" d="M508,690.3l-2.5,1.7l2.5,-6.5l2.4,6.5Z" class="g5_218"/>
<path d="M504.9,708.6H511m-6.1,24.5H511m161.8,119v6.1m-82.4,-6.1v6.1M504.9,781.9H511m-6.1,-24.4H511m244.2,94.6v6.1M504.9,830.7H511m-6.1,-24.4H511M504.9,843H511m-6.1,-24.5H511m-6.1,-24.4H511m-6.1,-24.4H511m-6.1,-24.4H511m-6.1,-24.4H511" class="g4_218"/>
<path clip-path="url(#c1_218)" d="M547.4,990.8h22.4m19.7,0h135" class="g0_218"/>
</svg>