<?xml version="1.0" encoding="UTF-8" standalone="no"?>
<!DOCTYPE svg PUBLIC "-//W3C//DTD SVG 1.1//EN"
"http://www.w3.org/Graphics/SVG/1.1/DTD/svg11.dtd">
<svg viewBox="0 0 770 1017" version="1.1" xmlns="http://www.w3.org/2000/svg" xmlns:xlink="http://www.w3.org/1999/xlink">
<defs>
<style type="text/css"><![CDATA[
.g0_215{
fill: none;
stroke: #000000;
stroke-width: 0.618;
stroke-linecap: butt;
stroke-linejoin: miter;
}
.g1_215{
stroke: #000000;
stroke-width: 0.369;
stroke-linecap: butt;
stroke-linejoin: miter;
}
.g2_215{
fill: none;
stroke: #000000;
stroke-width: 0.369;
stroke-linecap: butt;
stroke-linejoin: miter;
}
]]></style>
</defs>
<path d="M74.2,69.2H713.5" class="g0_215"/>
<path fill-rule="evenodd" d="M312.1,124.3c-2,0,-3.7,-1.7,-3.7,-3.7c0,-2.1,1.7,-3.7,3.7,-3.7c2.1,0,3.7,1.6,3.7,3.7c0,2,-1.6,3.7,-3.7,3.7Z" class="g1_215"/>
<path fill-rule="evenodd" d="M338,157.6c-2,0,-3.7,-1.7,-3.7,-3.7c0,-2,1.7,-3.7,3.7,-3.7c2.1,0,3.7,1.7,3.7,3.7c0,2.1,-1.6,3.7,-3.7,3.7Z" class="g1_215"/>
<path fill-rule="evenodd" d="M334.3,246.4c-2,0,-3.7,-1.6,-3.7,-3.7c0,-2,1.7,-3.7,3.7,-3.7c2.1,0,3.7,1.7,3.7,3.7c0,2.1,-1.6,3.7,-3.7,3.7Z" class="g1_215"/>
<path fill-rule="evenodd" d="M352.8,294.5c-2,0,-3.7,-1.6,-3.7,-3.7c0,-2,1.7,-3.7,3.7,-3.7c2.1,0,3.7,1.7,3.7,3.7c0,2.1,-1.6,3.7,-3.7,3.7Z" class="g1_215"/>
<path fill-rule="evenodd" d="M326.9,294.5c-2,0,-3.7,-1.6,-3.7,-3.7c0,-2,1.7,-3.7,3.7,-3.7c2.1,0,3.7,1.7,3.7,3.7c0,2.1,-1.6,3.7,-3.7,3.7Z" class="g1_215"/>
<path fill-rule="evenodd" d="M301,294.5c-2,0,-3.7,-1.6,-3.7,-3.7c0,-2,1.7,-3.7,3.7,-3.7c2.1,0,3.7,1.7,3.7,3.7c0,2.1,-1.6,3.7,-3.7,3.7Z" class="g1_215"/>
<path fill-rule="evenodd" d="M367.7,198.3c-2.1,0,-3.7,-1.7,-3.7,-3.7c0,-2,1.6,-3.7,3.7,-3.7c2,0,3.7,1.7,3.7,3.7c0,2.1,-1.7,3.7,-3.7,3.7Z" class="g1_215"/>
<path fill-rule="evenodd" d="M363.9,128c-2,0,-3.7,-1.7,-3.7,-3.7c0,-2,1.7,-3.7,3.7,-3.7c2.1,0,3.7,1.7,3.7,3.7c0,2,-1.6,3.7,-3.7,3.7Z" class="g1_215"/>
<path fill-rule="evenodd" d="M312.1,179.8c-2,0,-3.7,-1.6,-3.7,-3.7c0,-2,1.7,-3.7,3.7,-3.7c2.1,0,3.7,1.7,3.7,3.7c0,2.1,-1.6,3.7,-3.7,3.7Z" class="g1_215"/>
<path fill-rule="evenodd" d="M545.3,124.4c-2,0,-3.7,-1.7,-3.7,-3.7c0,-2.1,1.7,-3.7,3.7,-3.7c2.1,0,3.7,1.6,3.7,3.7c0,2,-1.6,3.7,-3.7,3.7Z" class="g1_215"/>
<path fill-rule="evenodd" d="M571.2,157.7c-2,0,-3.7,-1.7,-3.7,-3.7c0,-2.1,1.7,-3.7,3.7,-3.7c2.1,0,3.7,1.6,3.7,3.7c0,2,-1.6,3.7,-3.7,3.7Z" class="g1_215"/>
<path fill-rule="evenodd" d="M567.6,246.5c-2.1,0,-3.7,-1.7,-3.7,-3.7c0,-2.1,1.6,-3.7,3.7,-3.7c2,0,3.7,1.6,3.7,3.7c0,2,-1.7,3.7,-3.7,3.7Z" class="g1_215"/>
<path fill-rule="evenodd" d="M586,294.6c-2,0,-3.7,-1.7,-3.7,-3.7c0,-2.1,1.7,-3.7,3.7,-3.7c2.1,0,3.7,1.6,3.7,3.7c0,2,-1.6,3.7,-3.7,3.7Z" class="g1_215"/>
<path fill-rule="evenodd" d="M560.2,294.6c-2.1,0,-3.7,-1.7,-3.7,-3.7c0,-2.1,1.6,-3.7,3.7,-3.7c2,0,3.7,1.6,3.7,3.7c0,2,-1.7,3.7,-3.7,3.7Z" class="g1_215"/>
<path fill-rule="evenodd" d="M534.2,294.6c-2,0,-3.7,-1.7,-3.7,-3.7c0,-2.1,1.7,-3.7,3.7,-3.7c2.1,0,3.7,1.6,3.7,3.7c0,2,-1.6,3.7,-3.7,3.7Z" class="g1_215"/>
<path fill-rule="evenodd" d="M600.9,198.4c-2.1,0,-3.7,-1.7,-3.7,-3.7c0,-2.1,1.6,-3.7,3.7,-3.7c2,0,3.7,1.6,3.7,3.7c0,2,-1.7,3.7,-3.7,3.7Z" class="g1_215"/>
<path fill-rule="evenodd" d="M597.2,128c-2.1,0,-3.7,-1.6,-3.7,-3.7c0,-2,1.6,-3.7,3.7,-3.7c2,0,3.7,1.7,3.7,3.7c0,2.1,-1.7,3.7,-3.7,3.7Z" class="g1_215"/>
<path fill-rule="evenodd" d="M545.3,179.9c-2,0,-3.7,-1.7,-3.7,-3.7c0,-2.1,1.7,-3.7,3.7,-3.7c2.1,0,3.7,1.6,3.7,3.7c0,2,-1.6,3.7,-3.7,3.7Z" class="g1_215"/>
<path d="M537.9,290.9h48.2m-26,0l7.4,-48.1m0,0l33.4,-48.1m0,0L571.2,154m0,0l-25.9,22.2M571.2,154l26,-29.7m-26,29.7L545.3,120.6M525,279.8c3.7,-2.5,8,-3.7,12.9,-3.7c5,0,14.2,0,27.8,0c13.6,0,22.2,1.2,25.9,3.7c3.7,2.5,6.2,4.9,7.4,7.4c1.2,2.5,1.2,4.9,0,7.4c-1.2,2.5,-3.1,4.3,-5.5,5.5c-2.5,1.3,-13.6,1.9,-33.4,1.9c-19.7,0,-30.8,0,-33.3,0c-2.4,0,-4.3,-1.2,-5.5,-3.7c-1.2,-2.5,-1.9,-4.3,-1.9,-5.6c0,-1.2,0,-3,0,-5.5c0,-2.5,1.9,-4.9,5.6,-7.4Zm7.4,-103.6c-1.2,-5,-2.5,-11.1,-3.7,-18.5c-1.2,-7.4,-1.2,-16.1,0,-26c1.2,-9.8,3.1,-16.6,5.5,-20.3c2.5,-3.7,6.8,-6.2,13,-7.4c6.2,-1.2,16.6,-1.2,31.5,0c14.8,1.2,24,3.7,27.7,7.4c3.7,3.7,5.6,8,5.6,12.9c0,5,-1.9,10.5,-5.6,16.7c-3.7,6.2,-11.7,14.8,-24,25.9C570,178,562,184.8,558.3,187.3c-3.7,2.4,-7.4,3.7,-11.1,3.7c-3.7,0,-6.8,-1.3,-9.3,-3.7c-2.4,-2.5,-4.3,-6.2,-5.5,-11.1Zm40.7,1.8c-6.2,-8.6,-9.9,-14.8,-11.1,-18.5c-1.2,-3.7,-.6,-8,1.8,-12.9c2.5,-5,5.6,-6.8,9.3,-5.6c3.7,1.2,10.5,8.6,20.4,22.2c9.8,13.6,15.4,22.8,16.6,27.8c1.2,4.9,.6,8.6,-1.8,11.1c-2.5,2.4,-5,3.1,-7.4,1.8c-2.5,-1.2,-5.6,-3.1,-9.3,-5.5c-3.7,-2.5,-6.2,-4.4,-7.4,-5.6C583,191.6,579.3,186.6,573.1,178Zm-20.4,87c1.4,-6,4.1,-20.2,7.4,-25.9c1.4,-2.2,4.3,-6.7,7.4,-7.4c3.6,-.9,8.9,.5,11.2,3.7c2.8,4,.2,11.4,0,14.8c-.9,10.3,-2.2,34.2,-7.5,44.4c-1.2,2.4,-4.7,6.3,-7.4,7.4c-.9,.4,-2.8,.2,-3.7,0c-1.9,-.5,-5.9,-2,-7.4,-3.7c-2,-2.4,-3.4,-8.3,-3.7,-11.1c-.4,-5.5,2.6,-17.2,3.7,-22.2ZM575,216.9c3.5,-4.9,10.9,-17.5,14.8,-22.2c2.2,-2.8,6.3,-10,11.1,-11.1c3.5,-.9,8.8,.5,11.1,3.7c2.1,2.9,1.1,8.3,0,11.1c-1.7,3.9,-8.8,8.3,-11.1,11.1c-3.9,4.7,-11.5,17.1,-14.8,22.2c-3.4,5,-8,18.5,-14.9,22.2c-2.8,1.5,-8.4,.6,-11.1,0c-1.9,-.5,-6.3,-.7,-7.4,-3.7c-2,-6.1,5.4,-11.6,7.4,-14.8c3,-4.6,11.7,-14.2,14.9,-18.5Z" class="g2_215"/>
<path fill-rule="evenodd" d="M430.5,124.2c-2,0,-3.7,-1.6,-3.7,-3.7c0,-2,1.7,-3.7,3.7,-3.7c2.1,0,3.7,1.7,3.7,3.7c0,2.1,-1.6,3.7,-3.7,3.7Z" class="g1_215"/>
<path fill-rule="evenodd" d="M456.4,157.6c-2,0,-3.7,-1.7,-3.7,-3.7c0,-2.1,1.7,-3.7,3.7,-3.7c2.1,0,3.7,1.6,3.7,3.7c0,2,-1.6,3.7,-3.7,3.7Z" class="g1_215"/>
<path fill-rule="evenodd" d="M452.7,246.4c-2,0,-3.7,-1.7,-3.7,-3.7c0,-2.1,1.7,-3.7,3.7,-3.7c2.1,0,3.7,1.6,3.7,3.7c0,2,-1.6,3.7,-3.7,3.7Z" class="g1_215"/>
<path fill-rule="evenodd" d="M471.2,294.5c-2,0,-3.7,-1.7,-3.7,-3.7c0,-2.1,1.7,-3.7,3.7,-3.7c2.1,0,3.7,1.6,3.7,3.7c0,2,-1.6,3.7,-3.7,3.7Z" class="g1_215"/>
<path fill-rule="evenodd" d="M445.3,294.5c-2,0,-3.7,-1.7,-3.7,-3.7c0,-2.1,1.7,-3.7,3.7,-3.7c2.1,0,3.7,1.6,3.7,3.7c0,2,-1.6,3.7,-3.7,3.7Z" class="g1_215"/>
<path fill-rule="evenodd" d="M419.4,294.5c-2,0,-3.7,-1.7,-3.7,-3.7c0,-2.1,1.7,-3.7,3.7,-3.7c2.1,0,3.7,1.6,3.7,3.7c0,2,-1.6,3.7,-3.7,3.7Z" class="g1_215"/>
<path fill-rule="evenodd" d="M486,198.3c-2,0,-3.7,-1.7,-3.7,-3.7c0,-2.1,1.7,-3.7,3.7,-3.7c2.1,0,3.7,1.6,3.7,3.7c0,2,-1.6,3.7,-3.7,3.7Z" class="g1_215"/>
<path fill-rule="evenodd" d="M482.3,128c-2,0,-3.7,-1.7,-3.7,-3.7c0,-2.1,1.7,-3.7,3.7,-3.7c2.1,0,3.7,1.6,3.7,3.7c0,2,-1.6,3.7,-3.7,3.7Z" class="g1_215"/>
<path fill-rule="evenodd" d="M430.5,179.8c-2,0,-3.7,-1.7,-3.7,-3.7c0,-2.1,1.7,-3.7,3.7,-3.7c2.1,0,3.7,1.6,3.7,3.7c0,2,-1.6,3.7,-3.7,3.7Z" class="g1_215"/>
<path d="M423.1,290.8h48.1m-25.9,0l7.4,-48.1m0,0L486,194.6m0,0L456.4,153.9m0,0l-25.9,22.2m25.9,-22.2l25.9,-29.7m-25.9,29.7L430.5,120.5" class="g2_215"/>
<path fill-rule="evenodd" d="M197.4,128c-2.1,0,-3.7,-1.7,-3.7,-3.7c0,-2.1,1.6,-3.7,3.7,-3.7c2,0,3.7,1.6,3.7,3.7c0,2,-1.7,3.7,-3.7,3.7Z" class="g1_215"/>
<path fill-rule="evenodd" d="M223.3,161.3c-2.1,0,-3.7,-1.7,-3.7,-3.7c0,-2.1,1.6,-3.7,3.7,-3.7c2,0,3.7,1.6,3.7,3.7c0,2,-1.7,3.7,-3.7,3.7Z" class="g1_215"/>
<path fill-rule="evenodd" d="M219.6,250.1c-2.1,0,-3.7,-1.7,-3.7,-3.7c0,-2.1,1.6,-3.7,3.7,-3.7c2,0,3.7,1.6,3.7,3.7c0,2,-1.7,3.7,-3.7,3.7Z" class="g1_215"/>
<path fill-rule="evenodd" d="M238.1,298.2c-2.1,0,-3.7,-1.7,-3.7,-3.7c0,-2,1.6,-3.7,3.7,-3.7c2,0,3.7,1.7,3.7,3.7c0,2,-1.7,3.7,-3.7,3.7Z" class="g1_215"/>
<path fill-rule="evenodd" d="M212.2,298.2c-2.1,0,-3.7,-1.7,-3.7,-3.7c0,-2,1.6,-3.7,3.7,-3.7c2,0,3.7,1.7,3.7,3.7c0,2,-1.7,3.7,-3.7,3.7Z" class="g1_215"/>
<path fill-rule="evenodd" d="M186.2,298.2c-2,0,-3.7,-1.7,-3.7,-3.7c0,-2,1.7,-3.7,3.7,-3.7c2.1,0,3.7,1.7,3.7,3.7c0,2,-1.6,3.7,-3.7,3.7Z" class="g1_215"/>
<path fill-rule="evenodd" d="M252.9,202c-2.1,0,-3.7,-1.7,-3.7,-3.7c0,-2.1,1.6,-3.7,3.7,-3.7c2,0,3.7,1.6,3.7,3.7c0,2,-1.7,3.7,-3.7,3.7Z" class="g1_215"/>
<path fill-rule="evenodd" d="M249.2,131.6c-2.1,0,-3.7,-1.6,-3.7,-3.7c0,-2,1.6,-3.7,3.7,-3.7c2,0,3.7,1.7,3.7,3.7c0,2.1,-1.7,3.7,-3.7,3.7Z" class="g1_215"/>
<path fill-rule="evenodd" d="M197.4,183.5c-2.1,0,-3.7,-1.7,-3.7,-3.7c0,-2.1,1.6,-3.7,3.7,-3.7c2,0,3.7,1.6,3.7,3.7c0,2,-1.7,3.7,-3.7,3.7Z" class="g1_215"/>
<path d="M193.7,168.7c0,-7.6,3.4,-25,0,-33.3c-.6,-1.4,-3.2,-2.4,-3.7,-3.7c-.4,-1,0,-2.9,0,-3.8c0,-2.5,-1.2,-8.3,0,-11.1c.5,-1.3,2.4,-3.1,3.7,-3.7c1.8,-.7,5.4,-1.2,7.4,0c2.1,1.4,1.5,6.1,3.7,7.4c9.7,6.1,28.5,0,37,0c3.3,0,10.9,-2.4,14.8,0c2.2,1.4,3.2,5.5,3.7,7.4c.2,.9,.4,2.8,0,3.8c-.6,1.3,-3.2,2.3,-3.7,3.7c-5.4,12.9,-2.9,39.5,0,51.8c.4,1.9,3.2,5.4,3.7,7.4c.2,.8,.2,2.8,0,3.7c-.5,1.9,-3.2,5.5,-3.7,7.4c-5.3,18.6,-3.6,62.9,-7.4,81.4c-.6,2.6,-2.2,8.7,-3.7,11.1c-.7,1.1,-2.4,3.2,-3.7,3.7c-14.8,6.1,-45.3,3.3,-59.2,0c-2,-.5,-6.3,-.9,-7.4,-3.7c-1.7,-3.9,1.6,-8.7,3.7,-11.1c1.4,-1.7,5.4,-3.3,7.4,-3.7c13.1,-3.1,40.3,12.8,55.5,0c6.1,-5.2,3.2,-17.1,3.7,-22.2c.2,-2.6,3,-8.1,0,-11.1c-5.1,-5.1,-13.9,-1.9,-18.5,0c-1.3,.5,-2.4,3.1,-3.7,3.7c-2.8,1.1,-8.2,1.8,-11.1,0c-2.2,-1.4,-3.6,-5.2,-3.7,-7.4c-.3,-3.2,.5,-8.9,3.7,-11.1c2,-1.5,5.7,0,7.4,0c2.5,0,8.1,-1.8,11.1,0c2.1,1.3,1.5,6,3.7,7.4c2.9,1.8,8,2.7,11.1,0c9.2,-8.2,5.1,-25.1,3.7,-33.3c-.4,-2.1,-3.3,-5.5,-3.7,-7.4c-.4,-1.8,-.8,-5.6,0,-7.4c.5,-1.3,3.1,-2.4,3.7,-3.7c5.3,-12.9,5.3,-38.9,0,-51.8c-.6,-1.4,-2.4,-3.2,-3.7,-3.7c-1,-.4,-2.9,0,-3.7,0c-2.6,0,-8.1,-3.1,-11.1,0c-6.1,6.1,0,17.1,0,22.2c0,1.6,1.2,5.4,0,7.4c-1.4,2.1,-5.1,3.7,-7.4,3.7c-2.4,0,-6.1,-1.6,-7.4,-3.7c-1.2,-2,0,-5.8,0,-7.4c0,-.9,0,-2.9,0,-3.7c0,-4.3,5.1,-13.5,0,-18.5c-3.1,-3.1,-8.1,-3.1,-11.1,0c-5.1,5,0,14.2,0,18.5c0,6.7,0,22.8,0,29.6c0,.8,1,2.6,0,3.7c-2.1,2,-5.8,0,-7.4,0c-.9,0,-2.9,0,-3.7,0c-.9,0,-2.7,1,-3.7,0c-3.1,-3.1,-1.2,-8.4,0,-11.1c.5,-1.3,3.1,-2.4,3.7,-3.7c.3,-1,0,-2.9,0,-3.7Z" class="g2_215"/>
<path d="M83.4,402.3h621" class="g0_215"/>
</svg>