<?xml version="1.0" encoding="UTF-8" standalone="no"?>
<!DOCTYPE svg PUBLIC "-//W3C//DTD SVG 1.1//EN"
"http://www.w3.org/Graphics/SVG/1.1/DTD/svg11.dtd">
<svg viewBox="0 0 811 1017" version="1.1" xmlns="http://www.w3.org/2000/svg" xmlns:xlink="http://www.w3.org/1999/xlink">
<defs>
<style type="text/css"><![CDATA[
.g0_122{
fill: #000;
}
]]></style>
</defs>
<path d="M523.2,210.5v3.2l-.3,-.2l-6.3,-2.9l-.4,-.1l.4,-.2l6.3,-2.9l.3,-.2v.3l-.1,.2l-6.3,2.9l-.2,-.3h.2l6.3,2.9l-.2,.3l-.1,-.1v-2.9Z" class="g0_122"/>
<path d="M522.8,210.5h.4v-3h-.4v3Z" class="g0_122"/>
<path d="M523.2,210.7h38.4v-.4H523.2v.4Z" class="g0_122"/>
<path d="M561.2,235.4h.4V210.5h-.4v24.9Z" class="g0_122"/>
<path d="M660.7,271.6v3.2l-.3,-.1l-6.3,-3l-.4,-.1l.4,-.2l6.3,-2.9l.3,-.1v.3l-.1,.1l-6.3,2.9l-.2,-.3h.2l6.3,3l-.2,.3l-.1,-.2v-2.9Z" class="g0_122"/>
<path d="M660.3,271.6h.4v-2.9h-.4v2.9Z" class="g0_122"/>
<path d="M660.7,271.8H674v-.4H660.7v.4Z" class="g0_122"/>
<path d="M673.6,296.5h.4V271.6h-.4v24.9Z" class="g0_122"/>
<image preserveAspectRatio="none" x="203" y="990" width="405" height="28" xlink:href="img/1.jpg"/>
</svg>