<?xml version="1.0" encoding="UTF-8" standalone="no"?>
<!DOCTYPE svg PUBLIC "-//W3C//DTD SVG 1.1//EN"
"http://www.w3.org/Graphics/SVG/1.1/DTD/svg11.dtd">
<svg viewBox="0 0 770 1010" version="1.1" xmlns="http://www.w3.org/2000/svg" xmlns:xlink="http://www.w3.org/1999/xlink">
<defs>
<clipPath id="c0_206"><path d="M367.2,716.2v-9.1h52.3v9.1Z"/></clipPath>
<clipPath id="c1_206"><path d="M419.5,716.2v-9.1H528.7v9.1Z"/></clipPath>
<style type="text/css"><![CDATA[
.g0_206{
fill: #E5E5E5;
}
.g1_206{
fill: none;
stroke: #E5E5E5;
stroke-width: 9.166;
stroke-linecap: round;
stroke-linejoin: miter;
}
.g2_206{
fill: none;
stroke: #7F7F7F;
stroke-width: 0.381;
stroke-linecap: round;
stroke-linejoin: miter;
}
.g3_206{
fill: none;
stroke: #000000;
stroke-width: 0.412;
stroke-linecap: round;
stroke-linejoin: miter;
}
]]></style>
</defs>
<path fill-rule="evenodd" d="M119.2,558.5H249.1V575H119.2V558.5Z" class="g0_206"/>
<path d="M253.7,558.5V575m-139.1,0V558.5" class="g1_206"/>
<path fill-rule="evenodd" d="M267.4,558.5h34V575h-34V558.5Z" class="g0_206"/>
<path d="M306,558.5V575m-43.1,0V558.5" class="g1_206"/>
<path fill-rule="evenodd" d="M319.7,558.5H358V575H319.7V558.5Z" class="g0_206"/>
<path d="M362.6,558.5V575m-47.4,0V558.5" class="g1_206"/>
<path fill-rule="evenodd" d="M376.4,558.5h33.9V575H376.4V558.5Z" class="g0_206"/>
<path d="M414.9,558.5V575m-43.1,0V558.5" class="g1_206"/>
<path fill-rule="evenodd" d="M428.7,558.5h90.8V575H428.7V558.5Z" class="g0_206"/>
<path d="M524.1,558.5V575m-100,0V558.5" class="g1_206"/>
<path d="M258.3,711.6H110m200.6,0H258.3m108.9,0H310.6" class="g2_206"/>
<path clip-path="url(#c0_206)" d="M419.5,711.6H367.2" class="g2_206"/>
<path clip-path="url(#c1_206)" d="M528.7,711.6H419.5" class="g2_206"/>
<path d="M110,925.8H605m0,0h55" class="g3_206"/>
</svg>