<?xml version="1.0" encoding="UTF-8" standalone="no"?>
<!DOCTYPE svg PUBLIC "-//W3C//DTD SVG 1.1//EN"
"http://www.w3.org/Graphics/SVG/1.1/DTD/svg11.dtd">
<svg viewBox="0 0 931 1096" version="1.1" xmlns="http://www.w3.org/2000/svg" xmlns:xlink="http://www.w3.org/1999/xlink">
<defs>
<style type="text/css"><![CDATA[
.g0_177{
fill: none;
stroke: #00AEEF;
stroke-width: 1.145;
}
.g1_177{
fill: #FFDEB8;
}
.g2_177{
fill: none;
stroke: #F9951B;
stroke-width: 0.458;
stroke-miterlimit: 3;
}
.g3_177{
fill: none;
stroke: #241F1F;
stroke-width: 0.611;
stroke-miterlimit: 3;
}
.g4_177{
fill: #241F1F;
}
.g5_177{
fill: none;
stroke: #241F1F;
stroke-width: 0.458;
stroke-miterlimit: 3;
}
.g6_177{
fill: none;
stroke: #241F1F;
stroke-width: 0.763;
stroke-miterlimit: 3;
}
.g7_177{
fill: none;
stroke: #241F1F;
stroke-width: 0.381;
stroke-miterlimit: 3;
}
]]></style>
</defs>
<path d="M362.7,126.1c0,0,-1.6,0,-1.6,1.6v14.1c0,0,0,1.5,1.6,1.5h14.1c0,0,1.5,0,1.5,-1.5V127.7c0,0,0,-1.6,-1.5,-1.6H362.7Z" class="g0_177"/>
<path d="M540.5,300.3H687.2V239.2H540.5v61.1Z" class="g1_177"/>
<path d="M540.5,300.3H687.2V239.2H540.5v61.1Z" class="g2_177"/>
<path d="M490.3,314.4H701.1" class="g3_177"/>
<path fill-rule="evenodd" d="M701.1,314.4l-1.6,-2.5l6.5,2.5l-6.5,2.4Z" class="g4_177"/>
<path d="M513.2,337.3V181.5" class="g3_177"/>
<path fill-rule="evenodd" d="M513.2,181.5l-2.4,1.6l2.4,-6.5l2.4,6.5Z" class="g4_177"/>
<path d="M563.4,282V249.1H665.8" class="g5_177"/>
<path d="M561.7,249.1c0,-.9,.8,-1.7,1.7,-1.7c1,0,1.7,.8,1.7,1.7c0,1,-.7,1.8,-1.7,1.8c-.9,0,-1.7,-.8,-1.7,-1.8Z" class="g4_177"/>
<path d="M561.7,249.1c0,-.9,.8,-1.7,1.7,-1.7c1,0,1.7,.8,1.7,1.7c0,1,-.7,1.8,-1.7,1.8c-.9,0,-1.7,-.8,-1.7,-1.8Z" class="g6_177"/>
<path d="M561.7,271.5c0,-1,.8,-1.8,1.7,-1.8c1,0,1.7,.8,1.7,1.8c0,.9,-.7,1.7,-1.7,1.7c-.9,0,-1.7,-.8,-1.7,-1.7Z" class="g4_177"/>
<path d="M561.7,271.5c0,-1,.8,-1.8,1.7,-1.8c1,0,1.7,.8,1.7,1.8c0,.9,-.7,1.7,-1.7,1.7c-.9,0,-1.7,-.8,-1.7,-1.7Z" class="g6_177"/>
<path d="M664.1,249.1c0,-.9,.7,-1.7,1.7,-1.7c.9,0,1.7,.8,1.7,1.7c0,1,-.8,1.8,-1.7,1.8c-1,0,-1.7,-.8,-1.7,-1.8Z" class="g4_177"/>
<path d="M664.1,249.1c0,-.9,.7,-1.7,1.7,-1.7c.9,0,1.7,.8,1.7,1.7c0,1,-.8,1.8,-1.7,1.8c-1,0,-1.7,-.8,-1.7,-1.8Z" class="g6_177"/>
<path d="M627.4,249.1c0,-.9,.8,-1.7,1.7,-1.7c1,0,1.7,.8,1.7,1.7c0,1,-.7,1.8,-1.7,1.8c-.9,0,-1.7,-.8,-1.7,-1.8Z" class="g4_177"/>
<path d="M627.4,249.1c0,-.9,.8,-1.7,1.7,-1.7c1,0,1.7,.8,1.7,1.7c0,1,-.7,1.8,-1.7,1.8c-.9,0,-1.7,-.8,-1.7,-1.8Z" class="g6_177"/>
<path d="M561.7,282c0,-1,.8,-1.7,1.7,-1.7c1,0,1.7,.7,1.7,1.7c0,1,-.7,1.7,-1.7,1.7c-.9,0,-1.7,-.7,-1.7,-1.7Z" class="g4_177"/>
<path d="M561.7,282c0,-1,.8,-1.7,1.7,-1.7c1,0,1.7,.7,1.7,1.7c0,1,-.7,1.7,-1.7,1.7c-.9,0,-1.7,-.7,-1.7,-1.7Z" class="g6_177"/>
<path d="M666.2,242.9l3.4,-39.6" class="g7_177"/>
<path d="M665.9,246.2l-1.3,-4.5l1.6,1.2l1.7,-.9Z" class="g4_177"/>
<path d="M628,243l-5.8,-22.1" class="g7_177"/>
<path d="M628.8,246.3l-2.7,-3.9l1.9,.6l1.3,-1.4Z" class="g4_177"/>
<path d="M562,243.2l-2.4,-10.1" class="g7_177"/>
<path d="M562.8,246.5l-2.6,-3.9l1.8,.6l1.4,-1.4Z" class="g4_177"/>
</svg>