<?xml version="1.0" encoding="UTF-8" standalone="no"?>
<!DOCTYPE svg PUBLIC "-//W3C//DTD SVG 1.1//EN"
"http://www.w3.org/Graphics/SVG/1.1/DTD/svg11.dtd">
<svg viewBox="0 0 811 1017" version="1.1" xmlns="http://www.w3.org/2000/svg" xmlns:xlink="http://www.w3.org/1999/xlink">
<defs>
<style type="text/css"><![CDATA[
.g0_128{
fill: #224867;
}
.g1_128{
fill: #000;
}
]]></style>
</defs>
<path d="M156.1,805.6H724.4V783.8H156.1v21.8Z" class="g0_128"/>
<path d="M600.1,163.4v3.2l-.3,-.1l-6.3,-2.9l-.4,-.2l.4,-.1l6.3,-3l.3,-.1v.3l-.1,.1l-6.3,3l-.2,-.3h.2l6.3,2.9l-.2,.3l-.1,-.1v-3Z" class="g1_128"/>
<path d="M599.7,163.4h.4v-2.9h-.4v2.9Z" class="g1_128"/>
<path d="M600.1,163.6H628v-.3H600.1v.3Z" class="g1_128"/>
<path d="M627.6,163.4h.4V136.5h-.4v26.9Z" class="g1_128"/>
<path d="M348.4,363.3v3.2l-.2,-.2l-6.3,-2.9l-.4,-.1l.4,-.2l6.3,-2.9l.2,-.2v.3l-.1,.2l-6.3,2.9l-.1,-.3h.1l6.3,2.9l-.1,.3l-.1,-.1v-2.9Z" class="g1_128"/>
<path d="M348.1,363.3h.3v-3h-.3v3Z" class="g1_128"/>
<path d="M348.4,363.5h38.4v-.4H348.4v.4Z" class="g1_128"/>
<path d="M386.4,388.2h.4V363.3h-.4v24.9Z" class="g1_128"/>
<image preserveAspectRatio="none" x="203" y="990" width="405" height="28" xlink:href="img/1.jpg"/>
</svg>