<?xml version="1.0" encoding="UTF-8" standalone="no"?>
<!DOCTYPE svg PUBLIC "-//W3C//DTD SVG 1.1//EN"
"http://www.w3.org/Graphics/SVG/1.1/DTD/svg11.dtd">
<svg viewBox="0 0 907 1045" version="1.1" xmlns="http://www.w3.org/2000/svg" xmlns:xlink="http://www.w3.org/1999/xlink">
<defs>
<clipPath id="c0_189"><path d="M96.4,197.8V141.4h72.3v56.4Z"/></clipPath>
<clipPath id="c1_189"><path d="M-2.6,1047.7V-2.6H910.2V1047.7Z"/></clipPath>
<style type="text/css"><![CDATA[
.g0_189{
fill: none;
stroke: #000000;
stroke-width: 1.527;
stroke-linecap: butt;
stroke-linejoin: miter;
stroke-miterlimit: 4;
}
.g1_189{
fill: #FFFFFF;
}
.g2_189{
fill: none;
stroke: #FFFFFF;
stroke-width: 1.527;
stroke-linecap: butt;
stroke-linejoin: miter;
stroke-miterlimit: 4;
}
.g3_189{
fill: none;
stroke: #636363;
stroke-width: 1.527;
stroke-linecap: butt;
stroke-linejoin: bevel;
stroke-miterlimit: 12;
}
.g4_189{
fill: none;
stroke: #FFFFFF;
stroke-width: 1.909;
stroke-linecap: butt;
stroke-linejoin: miter;
}
.g5_189{
fill: none;
stroke: #000000;
stroke-width: 0.381;
stroke-linecap: butt;
stroke-linejoin: miter;
}
]]></style>
</defs>
<path d="M115.7,160.9V452H811.5V160.9H115.7Z" class="g0_189"/>
<path d="M84.5,145.1v60.8H368.6V145.1H84.5Z" class="g1_189"/>
<path d="M84.5,145.1v60.8H368.6V145.1H84.5Z" class="g2_189"/>
<image clip-path="url(#c0_189)" preserveAspectRatio="none" x="96" y="141" width="73" height="57" xlink:href="img/1.jpg"/>
<path d="M353.1,347.8c-2.5,-2.7,-1.7,-7.7,-1.7,-11.3c0,-3.8,0,-7.3,.7,-11c.2,-1.3,.6,-2.9,1.3,-4c.3,-.6,2.1,-2.1,-.2,-1.6c-1.1,.2,-2.2,2.6,-3,3.4c-1.6,1.5,-1.8,1.9,-1.9,4c-.4,-1.2,1.3,-2.5,2,-3.5c.9,-1.3,1.3,-2.2,2.9,-2.5c1.6,-.3,1.4,.2,2.5,1.1c.9,.8,1.8,1.6,2.8,2.2c1.1,.8,2.8,1.2,3.5,2.4m162.3,15.9c4,-1.3,-1.4,-8.9,-2.5,-10.5c-.7,-.8,-1.1,-1.8,-1.2,-2.8c0,-.7,0,-1.4,-.2,-2.1c-.7,-1.4,-2.8,-2.1,-4.1,-2.9c-2.4,-1.5,-3.6,-3.5,-6.5,-4.5c-1.5,-.4,-3,-.4,-4.4,-1c-1,-.3,-1.1,-.9,-2.2,-.6c.5,-.2,1.2,-.2,1.6,.2c.6,.5,1.2,5.5,1.1,6.3c-1.9,-.5,-1.5,-2.9,-1.7,-4.5c0,-.8,-.7,-1.4,0,-2.2c.2,-.2,1.9,-.9,2.1,-1c1.4,-.4,3.2,-.6,4.7,-.6M177.3,329.6c.1,-2.5,-.3,-5,.1,-7.4c.6,-3.1,2.6,-5.5,4.5,-8c2.6,-3.6,7.2,-7.1,11.6,-8.5c4.2,-1.3,8.5,-2.4,13,-2.4c1.4,0,2.7,.4,4.1,.4c1.7,0,3.4,-.3,5.2,-.3c-3.5,.2,-7.5,-.5,-10.6,-2c1.7,-.7,11.8,-.1,11.4,2.5c-.2,1.2,-3.2,2.2,-4.1,3.1c-.7,.8,-1.5,1.6,-2.3,2.3c-.8,.6,-2.3,1.2,-2.6,2.2M616.3,651.2c-5.6,2.8,-12.5,4.7,-18.7,5.8c-6.5,1.1,-14.2,3.2,-20.8,1.6c-2.3,-.6,-3.1,-1.2,-.9,-2.5c2.7,-1.6,6,-1.8,8.8,-3.4c-1.7,.5,-3.5,.8,-5.2,1.2c-1.1,.2,-2.2,.5,-3.3,.8c-.9,.2,-2.8,.3,-3.6,.9c-3.8,2.9,3.2,5.2,4.9,5.9m-1.2,116.1c-1.5,-.7,-1.8,-1.4,-2.9,-2.2c-1.7,-1.4,-4,-2.5,-5.8,-3.9c-3.4,-2.4,-6.4,-4.9,-10.2,-6.5c1.9,-1.2,4.8,.5,6.7,-.7c-1.2,-.2,-2.3,0,-3.5,.2c-1.1,.3,-4.6,.2,-5.3,1.3c-.2,.3,0,2,.2,2.4c.6,1.7,3.2,2.2,4,3.7m18,17.2c-4.9,-1.6,-9.4,-4,-14.2,-5.9c-2.2,-.9,-4.3,-1.9,-6.4,-3c-1.1,-.6,-2.6,-1.7,-4,-1.4c1,-.1,1.5,-.9,2.4,-1.2c1.2,-.4,2.7,.1,4,-.4c-2.5,.1,-5.7,-.5,-8.1,.6c-3.8,1.8,6.8,5.1,7.6,6.7M381.6,852.1c1.3,.4,2.5,0,3.4,-1.2c2.8,-2.2,5,-5.5,7.4,-8.1c3.9,-4.2,6.3,-10,8.2,-15.4c1.2,-3.3,2.7,-6.6,2.8,-10.2c0,-2,-.7,-3.7,-.9,-5.7c-.1,-1.1,.2,-2.3,.1,-3.5c-.1,-1,0,-3.4,-.4,-4.3c-1.3,-3.3,-6.6,7.2,-8,7.9c.3,-1.5,1.9,-2.8,2.7,-4.2c.8,-1.1,2.4,-5.2,3.8,-5.6c1.1,-.4,1.1,.1,1.9,.5c3.3,1.7,6.6,1.7,10.3,1.7M578.3,759.8c-1.2,-.5,-2.3,-1.7,-3.2,-2.5c-2,-2,-4,-3.5,-6.5,-4.8c-1.5,-.9,-3.4,-1.6,-4.7,-2.8c1.2,.2,5.1,-.5,5.9,-1.4c-1.8,-.2,-4.1,.5,-6,.7c-1.1,.1,-3.5,.2,-4.4,1.1c1.8,1.5,4.1,2.3,5.5,4.2" class="g3_189"/>
<g clip-path="url(#c1_189)">
<path d="M-4.5,13.7H-27.4m939.5,0H935M-4.5,1031.2H-27.4m939.5,0H935M13.7,-4.5V-27.4m0,1077v22.9m880,-1077V-27.4m0,1077v22.9" class="g4_189"/>
<path d="M-4.5,13.7H-27.4m939.5,0H935M-4.5,1031.2H-27.4m939.5,0H935M13.7,-4.5V-27.4m0,1077v22.9m880,-1077V-27.4m0,1077v22.9" class="g5_189"/>
</g>
</svg>