<?xml version="1.0" encoding="UTF-8" standalone="no"?>
<!DOCTYPE svg PUBLIC "-//W3C//DTD SVG 1.1//EN"
"http://www.w3.org/Graphics/SVG/1.1/DTD/svg11.dtd">
<svg viewBox="0 0 931 1096" version="1.1" xmlns="http://www.w3.org/2000/svg" xmlns:xlink="http://www.w3.org/1999/xlink">
<defs>
<clipPath id="c0_287"><path d="M707.4,224.7v-16h81.2v16Z"/></clipPath>
<clipPath id="c1_287"><path d="M585.2,377.8V310.4h212v67.4Z"/></clipPath>
<clipPath id="c2_287"><path d="M600.3,469.5V390.8H748.2v78.7Z"/></clipPath>
<style type="text/css"><![CDATA[
.g0_287{
fill: #00AEEF;
}
.g1_287{
fill: none;
stroke: #241F1F;
stroke-width: 1.069;
stroke-dasharray: 4,3;
}
.g2_287{
fill: #241F1F;
}
.g3_287{
fill: #FFF;
}
.g4_287{
fill: none;
stroke: #241F1F;
stroke-width: 0.687;
stroke-miterlimit: 10;
}
.g5_287{
fill: none;
stroke: #241F1F;
stroke-width: 0.481;
stroke-miterlimit: 10;
}
.g6_287{
fill: none;
stroke: #241F1F;
stroke-width: 0.611;
stroke-miterlimit: 3;
}
.g7_287{
fill: none;
stroke: #241F1F;
stroke-width: 0.534;
stroke-miterlimit: 3;
}
.g8_287{
fill: none;
stroke: #00AEEF;
stroke-width: 0.916;
stroke-linejoin: round;
}
.g9_287{
fill: none;
stroke: #241F1F;
stroke-width: 0.763;
stroke-miterlimit: 3;
}
.ga_287{
fill: none;
stroke: #241F1F;
stroke-width: 0.381;
stroke-miterlimit: 3;
}
.gb_287{
fill: none;
stroke: #241F1F;
stroke-width: 1.069;
stroke-linejoin: round;
}
]]></style>
</defs>
<path d="M902.9,1096.5h48.9V-20H902.9V1096.5Z" class="g0_287"/>
<path d="M97.8,-20V1116.6" class="g1_287"/>
<path fill-rule="evenodd" d="M96.2,114.5l-4.8,-4.2l-1.3,10.2c-1,-1.5,-1.5,-3.1,-1.5,-4.9l.4,-7.7c-.7,-.7,-1.6,-1.7,-2,-2.7c-.1,-.3,-.5,-1.6,-.9,-1.6c-.3,0,-.8,.4,-1.5,.4c-1.5,0,-2.7,-1.4,-2.7,-2.8c0,-1.1,.8,-2.1,2,-2.1c1.1,0,1.9,.8,2.3,1.7c.3,.5,.4,1.1,.5,1.6c.4,1.4,.7,2.1,1.6,3.1c.4,.5,.8,.9,1.4,1.1c.8,-.7,1.5,-2,1.5,-3.1c0,-.9,-.5,-1.9,-.5,-2.9c0,-1.2,.7,-2.3,2,-2.3c1.5,0,2.7,1.4,2.7,2.8c0,1.3,-.9,2.3,-2.2,2.3c-.3,0,-.4,0,-.7,-.1c-.4,-.1,-.7,-.1,-.7,.4v.8l-.2,3.4l4.6,4.1ZM84.1,99.8c-.9,0,-1.5,.5,-1.5,1.4c0,.9,.9,2.1,1.8,2.1c.7,0,1.4,-.4,1.4,-1.2c0,-.9,-.8,-2.3,-1.7,-2.3M92.8,99c-.9,0,-1.4,.8,-1.4,1.6c0,1.1,.6,2,1.8,2c.9,0,1.5,-.7,1.5,-1.5c0,-1,-.9,-2.1,-1.9,-2.1Z" class="g2_287"/>
<path d="M90,108.3c0,-.1,.1,-.2,.2,-.2c.1,0,.3,.1,.3,.2c0,.2,-.2,.3,-.3,.3c-.1,0,-.2,-.1,-.2,-.3Z" class="g3_287"/>
<path d="M108.5,82.7H260.7V53.3H108.5V82.7Z" class="g0_287"/>
<path clip-path="url(#c0_287)" d="M742.9,209.1H789" class="g4_287"/>
<path d="M585.5,344.2h17.8M625,324.9h17.9M623,344.2h21.9M625,363.4h17.9m23.8,-38.5h17.8m-19.9,19.3H706m-39.3,19.2h17.8m44.4,-38.5h17.8" class="g4_287"/>
<path clip-path="url(#c1_287)" d="M725.7,344.2h71.9" class="g4_287"/>
<path d="M727.7,363.4h17.9M633.9,410.5h17.9" class="g4_287"/>
<path clip-path="url(#c2_287)" d="M622.4,429.7H748.6" class="g4_287"/>
<path d="M633.9,451.3h17.9" class="g4_287"/>
<path d="M660.1,527.4h4.8m65,0h4.8" class="g5_287"/>
<path d="M663.9,584.9H779.5M663.2,621.6h78.9m-77.8,36.6H767M664.2,987.4h16.6m19.7,0h19.2M223.5,428.2H242m19.7,0H297M261.1,679.6H369.9M261.1,716.3h98.8M287,791.1H395.8m-92.3,36.3h98.8" class="g4_287"/>
<path d="M211.8,1014.2H404.4" class="g6_287"/>
<path fill-rule="evenodd" d="M404.4,1014.2l-1.6,-2.5l6.5,2.5l-6.5,2.4Z" class="g2_287"/>
<path fill-rule="evenodd" d="M233.7,907.6l-2.5,1.6l2.5,-6.5l2.4,6.5Z" class="g2_287"/>
<path d="M365,1005h-9.1v9.2" class="g7_287"/>
<path d="M233.7,1014.2L365,932.4" class="g8_287"/>
<path d="M363.3,932.4c0,-.9,.8,-1.7,1.7,-1.7c1,0,1.8,.8,1.8,1.7c0,1,-.8,1.7,-1.8,1.7c-.9,0,-1.7,-.7,-1.7,-1.7Z" class="g2_287"/>
<path d="M363.3,932.4c0,-.9,.8,-1.7,1.7,-1.7c1,0,1.8,.8,1.8,1.7c0,1,-.8,1.7,-1.8,1.7c-.9,0,-1.7,-.7,-1.7,-1.7Z" class="g9_287"/>
<path d="M263.5,1000.2c2.2,4,3.3,8.6,3.3,13.4" class="ga_287"/>
<path d="M262,997.3l3.5,3.1l-2,-.2l-1,1.7Z" class="g2_287"/>
<path d="M233.7,1032.7V907.6" class="g6_287"/>
<path d="M365,932.4v81.8H233.7" class="gb_287"/>
</svg>