<?xml version="1.0" encoding="UTF-8" standalone="no"?>
<!DOCTYPE svg PUBLIC "-//W3C//DTD SVG 1.1//EN"
"http://www.w3.org/Graphics/SVG/1.1/DTD/svg11.dtd">
<svg viewBox="0 0 907 1045" version="1.1" xmlns="http://www.w3.org/2000/svg" xmlns:xlink="http://www.w3.org/1999/xlink">
<defs>
<clipPath id="c0_93"><path d="M120.6,561V266.5h77.3V561Z"/></clipPath>
<clipPath id="c1_93"><path d="M-2.6,1047.7V-2.6H910.2V1047.7Z"/></clipPath>
<style type="text/css"><![CDATA[
.g0_93{
fill: #FFFFFF;
}
.g1_93{
fill: none;
stroke: #000000;
stroke-width: 1.527;
stroke-linecap: butt;
stroke-linejoin: miter;
stroke-miterlimit: 4;
}
.g2_93{
fill: none;
stroke: #000000;
stroke-width: 1.145;
stroke-linecap: butt;
stroke-linejoin: miter;
stroke-miterlimit: 4;
}
.g3_93{
fill: none;
stroke: #000000;
stroke-width: 0.763;
stroke-linecap: butt;
stroke-linejoin: miter;
stroke-miterlimit: 4;
}
.g4_93{
fill: none;
stroke: #3D3D3D;
stroke-width: 1.527;
stroke-linecap: butt;
stroke-linejoin: miter;
stroke-miterlimit: 4;
}
.g5_93{
fill: none;
stroke: #FFFFFF;
stroke-width: 1.909;
stroke-linecap: butt;
stroke-linejoin: miter;
}
.g6_93{
fill: none;
stroke: #000000;
stroke-width: 0.381;
stroke-linecap: butt;
stroke-linejoin: miter;
}
]]></style>
</defs>
<image clip-path="url(#c0_93)" preserveAspectRatio="none" x="121" y="266" width="77" height="295" xlink:href="img/1.jpg"/>
<path d="M180,214.4c-2.4,.5,-4.5,1.3,-6.7,1.8c-2.3,.5,-3.6,.4,-5.9,1.6c-1.7,.9,-2.1,1.7,-4.4,2c-.7,2.3,-.3,4,1.8,5.8c1.2,1.1,5.7,4.1,8.1,4.2c-3,3,-6.6,5.9,-3.7,9.5c1.1,1.5,4.9,5,7.7,5.8c2.6,.8,6.6,0,9.4,.3c.4,1.3,-.5,2.9,.3,4.2c1.2,2.1,5.1,4.5,7.7,6.2c5.8,3.6,20.7,9.9,28.8,5.8c3.1,4.1,10.8,7.8,18.6,9.4c5.2,1.1,15.8,1.8,21.1,.7c3.3,-.7,6.3,-3.6,9.7,-3.9c1.5,-.2,6.9,1.8,8.5,1.9c7.4,.9,16.8,.8,24.2,-.1c10.7,-1.2,16,-5.9,19.2,-11.2c2.4,2.8,15.7,.5,19.2,-.5c6.9,-2,14.1,-5,16.8,-9.2c2,-3.1,-3.8,-6.2,-2.3,-8.7c.7,-1.1,2.9,-1.8,4.1,-2.8c6.2,-5.5,3.6,-11,-2.1,-16.1c-6,-5.5,-13.8,-9.1,-25.1,-11c-2.9,-.4,-5.6,-.7,-8.6,-.6c-1.7,0,-2.5,.5,-4.2,.4c8.6,-6.1,-21.4,-11.4,-26.7,-11.9c-13.5,-1.3,-29.1,.1,-41.7,2.6c-6,1.2,-11.8,3,-17.5,4.3c1.1,-6.5,-21.1,-4.5,-26.9,-3.5c-7,1.2,-15.8,3.5,-20,6.8c-2.6,2.1,-3.9,4.6,-6.1,6.8Z" class="g0_93"/>
<path d="M180,214.4c-2.4,.5,-4.5,1.3,-6.7,1.8c-2.3,.5,-3.6,.4,-5.9,1.6c-1.7,.9,-2.1,1.7,-4.4,2c-.7,2.3,-.3,4,1.8,5.8c1.2,1.1,5.7,4.1,8.1,4.2c-3,3,-6.6,5.9,-3.7,9.5c1.1,1.5,4.9,5,7.7,5.8c2.6,.8,6.6,0,9.4,.3c.4,1.3,-.5,2.9,.3,4.2c1.2,2.1,5.1,4.5,7.7,6.2c5.8,3.6,20.7,9.9,28.8,5.8c3.1,4.1,10.8,7.8,18.6,9.4c5.2,1.1,15.8,1.8,21.1,.7c3.3,-.7,6.3,-3.6,9.7,-3.9c1.5,-.2,6.9,1.8,8.5,1.9c7.4,.9,16.8,.8,24.2,-.1c10.7,-1.2,16,-5.9,19.2,-11.2c2.4,2.8,15.7,.5,19.2,-.5c6.9,-2,14.1,-5,16.8,-9.2c2,-3.1,-3.8,-6.2,-2.3,-8.7c.7,-1.1,2.9,-1.8,4.1,-2.8c6.2,-5.5,3.6,-11,-2.1,-16.1c-6,-5.5,-13.8,-9.1,-25.1,-11c-2.9,-.4,-5.6,-.7,-8.6,-.6c-1.7,0,-2.5,.5,-4.2,.4c8.6,-6.1,-21.4,-11.4,-26.7,-11.9c-13.5,-1.3,-29.1,.1,-41.7,2.6c-6,1.2,-11.8,3,-17.5,4.3c1.1,-6.5,-21.1,-4.5,-26.9,-3.5c-7,1.2,-15.8,3.5,-20,6.8c-2.6,2.1,-3.9,4.6,-6.1,6.8" class="g1_93"/>
<path d="M160.1,244.5c0,-.3,-.1,-.6,-.2,-.9c-6.2,-2.1,-4.1,13.8,3.3,8.5c7.4,-5.3,-3.7,-10.9,-5.3,-6.5Z" class="g0_93"/>
<path d="M160.1,244.5c0,-.3,-.1,-.6,-.2,-.9c-6.2,-2.1,-4.1,13.8,3.3,8.5c7.4,-5.3,-3.7,-10.9,-5.3,-6.5" class="g2_93"/>
<path d="M156.6,256.1c-3.2,.6,-2.8,3.9,-2.3,6.3c1.6,.7,3,1.1,4.6,1.2c.5,-2.7,.7,-7,-3.5,-6.4Z" class="g0_93"/>
<path d="M156.6,256.1c-3.2,.6,-2.8,3.9,-2.3,6.3c1.6,.7,3,1.1,4.6,1.2c.5,-2.7,.7,-7,-3.5,-6.4" class="g3_93"/>
<path d="M128.3,244.9c-.8,.2,-3,1.6,-3.3,2.4c-.6,1.3,-.2,3.6,-.3,5c0,2.1,.3,3.8,1.4,5.6c1.1,2,3.2,3.4,4.7,5.1c-.9,0,-1.2,-.9,-1.9,-1.2c-.5,-.2,-3.8,1.1,-4.4,1.1c1,.2,6,1.2,6.9,1.5c.1,-.6,1.6,-7,.8,-6.9" class="g4_93"/>
<g clip-path="url(#c1_93)">
<path d="M-4.5,13.7H-27.4m939.5,0H935M-4.5,1031.2H-27.4m939.5,0H935M13.7,-4.5V-27.4m0,1077v22.9m880,-1077V-27.4m0,1077v22.9" class="g5_93"/>
<path d="M-4.5,13.7H-27.4m939.5,0H935M-4.5,1031.2H-27.4m939.5,0H935M13.7,-4.5V-27.4m0,1077v22.9m880,-1077V-27.4m0,1077v22.9" class="g6_93"/>
</g>
</svg>