<?xml version="1.0" encoding="UTF-8" standalone="no"?>
<!DOCTYPE svg PUBLIC "-//W3C//DTD SVG 1.1//EN"
"http://www.w3.org/Graphics/SVG/1.1/DTD/svg11.dtd">
<svg viewBox="0 0 907 1045" version="1.1" xmlns="http://www.w3.org/2000/svg" xmlns:xlink="http://www.w3.org/1999/xlink">
<defs>
<clipPath id="c0_440"><path d="M441.6,786.4V541.2H486v-2.3H822.9V786.4Z"/></clipPath>
<clipPath id="c1_440"><path d="M102.1,541.2V298.8H486V538.9H441.6v2.3Z"/></clipPath>
<clipPath id="c2_440"><path d="M441.6,541.2v-2.3H486v2.3Z"/></clipPath>
<clipPath id="c3_440"><path d="M-2.6,1047.7V-2.6H910.2V1047.7Z"/></clipPath>
<style type="text/css"><![CDATA[
.g0_440{
fill: #FFFFFF;
}
.g1_440{
fill: none;
stroke: #000000;
stroke-width: 0.763;
stroke-linecap: butt;
stroke-linejoin: miter;
stroke-miterlimit: 4;
}
.g2_440{
fill: none;
stroke: #636363;
stroke-width: 1.527;
stroke-linecap: butt;
stroke-linejoin: miter;
stroke-miterlimit: 4;
}
.g3_440{
fill: none;
stroke: #FFFFFF;
stroke-width: 1.909;
stroke-linecap: butt;
stroke-linejoin: miter;
}
.g4_440{
fill: none;
stroke: #000000;
stroke-width: 0.381;
stroke-linecap: butt;
stroke-linejoin: miter;
}
]]></style>
</defs>
<image clip-path="url(#c0_440)" preserveAspectRatio="none" x="441" y="539" width="382" height="248" xlink:href="img/1.jpg"/>
<path d="M807,544v0H446.8c0,.5,0,1,0,1.5c0,1.3,0,2.7,0,4.1c0,2.1,0,4.3,0,6.4c0,2.9,0,5.8,0,8.6c0,3.5,0,6.9,0,10.4c0,4,0,8,0,11.9c0,4.5,0,8.9,0,13.3c0,4.7,0,9.4,0,14.2c0,4.9,0,9.9,0,14.9c0,5.1,0,10.2,0,15.4c0,5.1,0,10.3,0,15.4c0,5.2,0,10.3,0,15.4c0,5,0,10,0,15c0,4.8,0,9.5,0,14.3c0,4.4,0,8.9,0,13.3c0,4.1,0,8.1,0,12.1c0,3.6,0,7.1,0,10.6c0,2.9,0,5.9,0,8.8c0,2.2,0,4.5,0,6.7c0,1.5,-.1,2.9,0,4.4c.1,3.1,3.3,2.6,4.7,.8c1.1,-1.4,2,-4.1,3.7,-4.5c1.2,-.3,2.7,.3,3.9,.4c1.9,.1,3.8,.8,5.7,1.3c1.7,.5,3.3,1.3,5,1.7c.8,.2,1.5,.3,2.2,.3c1.2,.2,2.2,.7,3.4,.6c1.7,0,3.7,-.4,5.4,-.9c1.8,-.5,3.4,-1.7,5.4,-1.2c1.2,.4,2,1.8,2.9,2.8c1.3,1.4,2.9,3.3,4.5,4.2c2.6,1.6,6,.4,8.7,-.6c2.5,-.9,5,-1.8,7.6,-2.1c2.6,-.3,5.3,.3,7.9,-.2c3.3,-.6,6.8,-1.7,9.9,.2c4.5,2.8,9.4,5.5,14.3,7c5.2,1.5,10.7,.4,15.7,-1.5c2.4,-.9,4.4,-3.1,6.7,-4.1c1.6,-.7,2.3,.1,3.2,1.5c1.9,2.9,4.2,5.5,7.4,4.5c2.1,-.6,3.8,-2.1,5.7,-3.3c2,-1.3,4.1,-2,6.4,-2c2.2,-.1,4.2,-.1,6.3,.9c2.5,1.2,4.4,3,7.1,3.3c2.6,.2,4.8,-1.5,7.2,-2.1c2.8,-.8,5.6,-1.8,8.3,-2.6c2.9,-.8,5.9,-1.3,8.8,-1.4c2.6,0,5,.8,7.5,1.4c5.1,1.3,10.4,2.9,15.4,.9c2.5,-1,4.7,-2.4,7.3,-2.5c2.3,-.1,3.9,1.4,5.8,2.8c1.8,1.3,3.8,2.4,5.9,2.7c4.4,.5,8.3,-2.7,12.1,-4.6c4.4,-2.3,9,-4,13.6,-5.6c3.5,-1.2,6.9,-2.3,10.5,-2.7c6.8,-.7,13.1,1.4,19.5,4.1c4.6,1.9,8.6,.2,12.9,-1.9c4.2,-2,8.1,-.8,11.7,2.3c1.3,1.1,2.5,2.9,4.1,3.8c1.8,1,4.4,.5,6.3,-.1c1.6,-.6,3.6,-1,5.2,-1.8c1.2,-.6,2.4,-1.7,3.5,-2.5c1.3,-1.1,2.6,-2.4,4.3,-2.6c1.4,-.3,3.2,.6,4.5,1c2.5,.9,5,2.3,7.7,2.7c2.7,.5,4.1,-.7,6.3,-2.5c1.1,-.8,2.2,-1.9,3.4,-1.3c1.5,.6,1.7,1.8,2.6,3.1c.4,.8,1.3,1.2,2,1.7c1,.6,1.9,1.3,2.9,1.9c1.5,.8,2.7,1.3,4.3,1.3c1.2,0,3,.2,3.8,-1.2c.8,-1.4,-.4,-1.7,-.8,-2.8c-.3,-.7,-.1,-1.7,-.1,-2.4c0,-1.9,0,-3.7,0,-5.5c0,-2.6,0,-5.2,0,-7.8c0,-3.3,0,-6.5,0,-9.7c0,-3.8,0,-7.6,0,-11.4c0,-4.3,0,-8.5,0,-12.8c0,-4.6,0,-9.2,0,-13.8c0,-4.9,0,-9.8,0,-14.8c0,-5,0,-10.1,0,-15.2c0,-5.1,0,-10.3,0,-15.5c0,-5.1,0,-10.3,0,-15.4c0,-5.1,0,-10.2,0,-15.3c0,-4.8,0,-9.7,0,-14.6c0,-4.6,0,-9.2,0,-13.7c0,-4.3,0,-8.5,0,-12.7c0,-3.7,0,-7.5,0,-11.2c0,-3.2,0,-6.3,0,-9.5c0,-2.5,0,-5,0,-7.6c0,-1.7,0,-3.5,0,-5.3c0,-.9,0,-1.8,0,-2.7Z" class="g0_440"/>
<path d="M807,544H446.8c0,.5,0,1,0,1.5c0,1.3,0,2.7,0,4.1c0,2.1,0,4.3,0,6.4c0,2.9,0,5.8,0,8.6c0,3.5,0,6.9,0,10.4c0,4,0,8,0,11.9c0,4.5,0,8.9,0,13.3c0,4.7,0,9.4,0,14.2c0,4.9,0,9.9,0,14.9c0,5.1,0,10.2,0,15.4c0,5.1,0,10.3,0,15.4c0,5.2,0,10.3,0,15.4c0,5,0,10,0,15c0,4.8,0,9.5,0,14.3c0,4.4,0,8.9,0,13.3c0,4.1,0,8.1,0,12.1c0,3.6,0,7.1,0,10.6c0,2.9,0,5.9,0,8.8c0,2.2,0,4.5,0,6.7c0,1.5,-.1,2.9,0,4.4c.1,3.1,3.3,2.6,4.7,.8c1.1,-1.4,2,-4.1,3.7,-4.5c1.2,-.3,2.7,.3,3.9,.4c1.9,.1,3.8,.8,5.7,1.3c1.7,.5,3.3,1.3,5,1.7c.8,.2,1.5,.3,2.2,.3c1.2,.2,2.2,.7,3.4,.6c1.7,0,3.7,-.4,5.4,-.9c1.8,-.5,3.4,-1.7,5.4,-1.2c1.2,.4,2,1.8,2.9,2.8c1.3,1.4,2.9,3.3,4.5,4.2c2.6,1.6,6,.4,8.7,-.6c2.5,-.9,5,-1.8,7.6,-2.1c2.6,-.3,5.3,.3,7.9,-.2c3.3,-.6,6.8,-1.7,9.9,.2c4.5,2.8,9.4,5.5,14.3,7c5.2,1.5,10.7,.4,15.7,-1.5c2.4,-.9,4.4,-3.1,6.7,-4.1c1.6,-.7,2.3,.1,3.2,1.5c1.9,2.9,4.2,5.5,7.4,4.5c2.1,-.6,3.8,-2.1,5.7,-3.3c2,-1.3,4.1,-2,6.4,-2c2.2,-.1,4.2,-.1,6.3,.9c2.5,1.2,4.4,3,7.1,3.3c2.6,.2,4.8,-1.5,7.2,-2.1c2.8,-.8,5.6,-1.8,8.4,-2.6c2.8,-.8,5.8,-1.3,8.7,-1.4c2.6,0,5,.8,7.5,1.4c5.1,1.3,10.4,2.9,15.4,.9c2.5,-1,4.7,-2.4,7.3,-2.5c2.3,-.1,3.9,1.4,5.8,2.8c1.8,1.3,3.8,2.4,5.9,2.7c4.4,.5,8.3,-2.7,12.1,-4.6c4.4,-2.3,9,-4,13.6,-5.6c3.5,-1.2,6.9,-2.3,10.5,-2.7c6.8,-.7,13.1,1.4,19.5,4.1c4.6,1.9,8.6,.2,12.9,-1.9c4.2,-2,8.1,-.8,11.7,2.3c1.3,1.1,2.5,2.9,4.1,3.8c1.8,1,4.4,.5,6.3,-.1c1.6,-.6,3.6,-1,5.2,-1.8c1.2,-.6,2.4,-1.7,3.5,-2.5c1.3,-1.1,2.6,-2.4,4.3,-2.6c1.4,-.3,3.2,.6,4.5,1c2.5,.9,5,2.3,7.7,2.7c2.7,.5,4.1,-.7,6.3,-2.5c1.1,-.8,2.2,-1.9,3.4,-1.3c1.5,.6,1.7,1.8,2.6,3.1c.4,.8,1.3,1.2,2,1.7c1,.6,1.9,1.3,2.9,1.9c1.5,.8,2.7,1.3,4.3,1.3c1.2,0,3,.2,3.8,-1.2c.8,-1.4,-.4,-1.7,-.8,-2.8c-.3,-.7,-.1,-1.7,-.1,-2.4c0,-1.9,0,-3.7,0,-5.5c0,-2.6,0,-5.2,0,-7.8c0,-3.3,0,-6.5,0,-9.7c0,-3.8,0,-7.6,0,-11.4c0,-4.3,0,-8.5,0,-12.8c0,-4.6,0,-9.2,0,-13.8c0,-4.9,0,-9.8,0,-14.8c0,-5,0,-10.1,0,-15.2c0,-5.1,0,-10.3,0,-15.5c0,-5.1,0,-10.3,0,-15.4c0,-5.1,0,-10.2,0,-15.3c0,-4.8,0,-9.7,0,-14.6c0,-4.6,0,-9.2,0,-13.7c0,-4.3,0,-8.5,0,-12.7c0,-3.7,0,-7.5,0,-11.2c0,-3.2,0,-6.3,0,-9.5c0,-2.5,0,-5,0,-7.6c0,-1.7,0,-3.5,0,-5.3c0,-.9,0,-1.8,0,-2.7" class="g1_440"/>
<image clip-path="url(#c1_440)" preserveAspectRatio="none" x="102" y="298" width="384" height="244" xlink:href="img/2.jpg"/>
<image clip-path="url(#c2_440)" preserveAspectRatio="none" x="441" y="539" width="45" height="3" xlink:href="img/3.jpg"/>
<path d="M470.3,512.3V303.9H107.2c0,.5,0,.9,0,1.4c0,1.3,0,2.6,0,3.9c0,2,0,4.1,0,6.1c0,2.7,0,5.4,0,8.1c0,3.3,0,6.6,0,9.9c0,3.8,0,7.5,0,11.3c0,4.2,0,8.4,0,12.6c0,4.5,0,8.9,0,13.4c0,4.8,0,9.5,0,14.2c0,4.9,0,9.8,0,14.6c0,4.9,0,9.8,0,14.7c0,4.9,0,9.8,0,14.7c0,4.8,0,9.5,0,14.2c0,4.6,0,9.1,0,13.7c0,4.2,0,8.5,0,12.7c0,3.9,0,7.7,0,11.6c0,3.4,0,6.7,0,10.1c0,2.9,0,5.7,0,8.5c0,2.2,0,4.3,0,6.5c0,1.4,0,2.9,0,4.3c.3,3.9,4.9,2.2,7.4,2.8c1.2,.2,2.3,.7,3.6,.9c1,.2,2,.4,3.1,.7c2.1,.6,4.3,.7,6.4,0c2,-.6,3.8,-1.9,5.9,-2.2c4.8,-.8,9.2,.7,13.4,3.5c2.5,1.8,6,2.5,8.9,3.1c3.4,.8,7.2,-.8,10.3,-1.9c1.9,-.7,3.7,-1.3,5.4,-2.2c1.2,-.5,2.3,-1.5,3.5,-1.9c3,-.8,6.4,-.3,9.4,0c1.7,.1,3.2,.5,4.9,.9c2.7,.6,4.9,1.4,7.3,3.1c2.4,1.8,4.8,3.6,7.5,5.1c3,1.7,7.4,4.6,11.1,3c2.7,-1.3,5,-3.6,8,-4.5c4.1,-1.4,8.8,-.3,13,.3c2.3,.3,4.2,1,6.3,1.8c3.7,1.3,7.3,2.2,11.1,2.5c6.1,.7,11.8,-.6,17.8,-1.2c2.7,-.3,5.4,-.7,8,-1.4c2,-.6,4,-1.7,6.2,-1.4c4.7,.6,9.5,-.4,14.2,-1.1c3.2,-.5,6.1,-1.5,9.2,-2.3c2.9,-.7,5.4,-2.2,8.2,-3c1.9,-.6,3.8,-.1,5.7,0c2.6,.1,5.5,.5,7.9,1.5c2.3,.8,3.7,2.5,5.7,3.7c1.9,1.1,4.3,1.3,6.4,1.7c3,.5,5.9,1,8.9,.8c2.6,-.2,5.7,-.3,8,-1.3c1.9,-.8,3.7,-1.8,5.7,-2.5c2.2,-.8,4.8,-1.2,7.2,-1.6c1.2,-.2,2.7,-.4,3.9,-.2c3.5,.5,6.8,1.3,10.4,1.1c1.9,-.2,3.9,-.6,5.8,-1c2.4,-.4,5,-.7,7.3,-1.6c3.5,-1.5,6.4,-4.7,10.2,-5.8c2.4,-.7,5.4,-.4,7.8,.3c1,.4,1.2,.8,2,1.4c.9,.8,2.3,1.3,3.3,1.7c1.6,.5,3.2,1.2,4.8,1.6c1.2,.3,2.3,.3,3.5,.8c3.2,1.1,6.9,2.4,10.2,1.8c2.6,-.5,4.6,-1.1,6.5,-3c1.1,-1.2,2.3,-2.3,3.8,-2.8c2.2,-.7,4.8,.6,6.8,1.2c.6,.2,1,.2,1.6,.4c.5,.2,1.1,.4,1.6,.6c1.1,.4,2.1,.9,3.2,.9c1.1,0,2.2,-.1,3.1,-.5c.5,-.3,.7,-.5,1,-1l.2,-.7c.1,-.2,.5,-.4,.6,-.5c-.2,-.1,-.2,0,-.2,.2Z" class="g0_440"/>
<path d="M470.3,512.3V303.9H107.2c0,.5,0,.9,0,1.4c0,1.3,0,2.6,0,3.9c0,2,0,4.1,0,6.1c0,2.7,0,5.4,0,8.1c0,3.3,0,6.6,0,9.9c0,3.8,0,7.5,0,11.3c0,4.2,0,8.4,0,12.6c0,4.5,0,8.9,0,13.4c0,4.8,0,9.5,0,14.2c0,4.9,0,9.8,0,14.6c0,4.9,0,9.8,0,14.7c0,4.9,0,9.8,0,14.7c0,4.8,0,9.5,0,14.2c0,4.6,0,9.1,0,13.7c0,4.2,0,8.5,0,12.7c0,3.9,0,7.7,0,11.6c0,3.4,0,6.7,0,10.1c0,2.9,0,5.7,0,8.5c0,2.2,0,4.3,0,6.5c0,1.4,0,2.9,0,4.3c.3,3.9,4.9,2.2,7.4,2.8c1.2,.2,2.3,.7,3.6,.9c1,.2,2,.4,3.1,.7c2.1,.6,4.3,.7,6.4,0c2,-.6,3.8,-1.9,5.9,-2.2c4.8,-.8,9.2,.7,13.4,3.5c2.5,1.8,6,2.5,8.9,3.1c3.4,.8,7.2,-.8,10.3,-1.9c1.9,-.7,3.7,-1.3,5.4,-2.2c1.2,-.5,2.3,-1.5,3.5,-1.9c3,-.8,6.4,-.3,9.4,0c1.7,.1,3.2,.5,4.9,.9c2.7,.6,4.9,1.4,7.3,3.1c2.4,1.8,4.8,3.6,7.5,5.1c3,1.7,7.4,4.6,11.1,3c2.7,-1.3,5,-3.6,8,-4.5c4.1,-1.4,8.8,-.3,13,.3c2.3,.3,4.2,1,6.3,1.8c3.7,1.3,7.3,2.2,11.1,2.5c6.1,.7,11.8,-.6,17.8,-1.2c2.7,-.3,5.4,-.7,8,-1.4c2,-.6,4,-1.7,6.2,-1.4c4.7,.6,9.5,-.4,14.2,-1.1c3.2,-.5,6.1,-1.5,9.2,-2.3c2.9,-.7,5.4,-2.2,8.2,-3c1.9,-.6,3.8,-.1,5.7,0c2.6,.1,5.5,.5,7.9,1.5c2.3,.8,3.7,2.5,5.7,3.7c1.9,1.1,4.3,1.3,6.4,1.7c3,.5,5.9,1,8.9,.8c2.6,-.2,5.7,-.3,8,-1.3c1.9,-.8,3.7,-1.8,5.7,-2.5c2.2,-.8,4.8,-1.2,7.2,-1.6c1.2,-.2,2.7,-.4,3.9,-.2c3.5,.5,6.8,1.3,10.4,1.1c1.9,-.2,3.9,-.6,5.8,-1c2.4,-.4,5,-.7,7.3,-1.6c3.5,-1.5,6.4,-4.7,10.2,-5.8c2.4,-.7,5.4,-.4,7.8,.3c1,.4,1.2,.8,2,1.4c.9,.8,2.3,1.3,3.3,1.7c1.6,.5,3.2,1.2,4.8,1.6c1.2,.3,2.3,.3,3.5,.8c3.2,1.1,6.9,2.4,10.2,1.8c2.6,-.5,4.6,-1.1,6.5,-3c1.1,-1.2,2.3,-2.3,3.8,-2.8c2.2,-.7,4.8,.6,6.8,1.2c.6,.2,1,.2,1.6,.4c.5,.2,1.1,.4,1.6,.6c1.1,.4,2.1,.9,3.2,.9c1.1,0,2.2,-.1,3.1,-.5c.5,-.3,.7,-.5,1,-1l.2,-.7c.1,-.2,.5,-.4,.6,-.5c-.2,-.1,-.2,0,-.2,.2" class="g1_440"/>
<path d="M432.6,358.3c4.4,2.4,8.3,5.1,9.3,10.4c1,5.5,1.2,12.6,-3.4,16.7c-1.2,1,-7.2,3.1,-7.4,4.9c-.2,1.7,4.7,3.7,5.9,4.7c-1.5,2,-3.2,2.3,-1.5,5.1c1.4,2.3,4.1,3.4,5,6c.7,2.1,.2,5,-.8,6.9c-3.4,6.8,-13.2,9.9,-20,11.8c-1.4,.3,-6.7,.4,-7.2,2.3m309.7,168c4.7,2.2,12.3,5.7,11.7,12.1c-.6,6.6,-8.4,5.2,-12.2,8.4c1.1,2.9,6,1.8,7.2,4c-2.1,.3,-5.4,.5,-4.3,3.5c.7,2.1,5.1,2.9,6.7,3.5c3.7,1.4,8.3,3.2,10.2,7.2c1.1,3,.9,5.9,-.7,8.8c-2.3,6.3,-6.3,12,-11.7,16c-8,5.9,-18.1,7.1,-26.8,11.3c-4.1,2,-6.5,3.9,-9.8,6.5m42.2,-211c9.2,7.4,17.7,15.5,25.6,24.1c9.4,10.1,19,21.1,22.4,34.8c2.1,8.2,3.1,16.7,2.3,25.1c-.3,3.5,-1,6.9,-2.1,10.2c-1.3,4.7,-2.1,9.5,-3.5,14.2c-1.6,5.5,-3.9,10.7,-6.2,16c-1.8,4.2,-2.2,8.9,-4.5,12.9c-1.9,3.3,-5,5.1,-8.3,6.9c.2,-1.1,1,-1.9,1.3,-3c.8,-3,-.3,-6.8,0,-10c0,3.8,-2.3,8.5,-3.8,11.8c-.8,1.9,-1.7,3.4,.3,4.8c2,1.3,11.4,.7,11.9,-1.7M524.6,413.6c-3.5,-3.5,-7.7,-5.1,-12.4,-6.5c-6.8,-2,-14.2,-4.3,-21.1,-5.8c-6.2,-1.3,-12.6,-1.7,-18.7,-2.8c-3.4,-.6,-6.5,-2.1,-10,-1.7c2.4,.1,3.7,-2.7,4.8,-4.6c2.8,-4.8,3.4,-4,8.6,-4.3c-6.3,-.5,-8.5,4.7,-12.8,7.6c-2,1.3,-5.4,1.7,-7.1,3c4.8,.3,11.9,8.4,11.6,12.9M152.3,563.7c-7.1,-7.8,2.6,-13.8,3.4,-22c.6,-.1,1.1,-.2,1.7,-.4c.1,-3,3.8,-2.1,4.4,-4.9c-2.4,-.7,-8,1.8,-9.7,3.7c1.9,-.8,5.7,-4.3,7.6,-4c2.9,.6,3.6,5.3,5.3,6.5M559.5,807c.2,-1.7,-.4,-2.6,-1.1,-4.2c-1.4,-2.9,-2.7,-5.2,-5.1,-7.4c-4.5,-4.2,-8.5,-8.6,-13.6,-12.1c-1.7,-1.1,-3.7,-1.9,-5.5,-2.9c-2.1,-1.3,-4.1,-2.7,-6.2,-3.8c-4.6,-2.5,-9.7,-4.2,-14.1,-7.2c-1.7,-1.1,-3.6,-2.2,-5.3,-3.5c-2.1,-1.6,-4.5,-2.6,-6.4,-4.5c-1.9,-1.8,-3.3,-3.5,-5.5,-5c-2.2,-1.4,-4.2,-3,-6.3,-4.6c-4.3,-3.4,-8.9,-8,-11.6,-12.7c-2.8,-4.8,-6.6,-8.9,-9,-13.8c-1.9,-4,-4.6,-7.6,-6.1,-11.8c-1.3,-3.6,-1.5,-6.6,-1.5,-10.4c0,-2.1,-.3,-4.3,-.1,-6.4c.3,-2.6,1.3,-5.1,1.9,-7.6c.1,-.8,.2,-1.8,.4,-2.5c.3,-.8,.6,-1.4,.8,-2.2c.3,-.9,.1,-1.5,.6,-2.5c.4,-1,.9,-2.4,1.4,-3.2c.6,-1,1.5,-1.8,2.2,-2.7c.6,-.7,1.9,-1.2,2.3,-2.1c-2.4,1.8,-5.6,2.8,-7.6,5.1c1.2,-1.8,4,-3.5,6,-4.1c.2,2.6,.9,4.6,2.4,6.7c1.2,1.8,1.5,2.7,1.5,4.8m-95.9,19.3c0,-4.5,-.1,-8.7,1.1,-12.9c.6,-2.2,2.6,-3.9,3.3,-5.9c.2,-.6,-.2,-1.4,0,-1.9c.3,-.9,1.2,-.8,1.8,-1.6c.2,-.9,.4,-1.9,.8,-2.7c.3,-.4,1.2,-1.1,1.6,-1.5c1.2,-1.3,2.2,-3,3,-4.5c1.6,-3,4.3,-5.4,7.2,-7.5c4.3,-3,8.4,-5,13.3,-6.8c1.8,-.7,3.6,-1.1,5.4,-1.8c1.4,-.5,3.7,-.7,4.7,-1.7c-2.4,-.5,-5.3,1.2,-7.9,1.3c-2.2,0,-4.5,0,-6.7,0c3.1,.2,6.1,-1.1,9.3,-1c2.3,.1,4.7,.2,7.2,0c-.7,1.8,-2.2,3.5,-2.4,5.8c-.1,1.2,-.1,4.8,1,5.3M722.9,832.4c2.5,-2.4,3,-5.9,3.6,-9.1c.5,-2.5,1.5,-4.6,1.7,-7.2c.2,-2.2,0,-4.4,0,-6.6c.1,-3.3,1.1,-6.3,1,-9.6c0,-3.5,-.1,-6.7,-.7,-10.2c-1.2,-7,-2.4,-14,-3.9,-21c-1.3,-6.1,-4.5,-12.5,-7.3,-18.1c-2.9,-6,-4.7,-12,-8.8,-17.3c-3.2,-4.2,-7.7,-6.9,-9.7,-11.8c-.7,-1.8,-1.3,-3.3,-2.2,-5c-.9,-1.6,-2,-2.6,-3.1,-3.9c-.9,-1.3,-1.7,-2.6,-2.7,-3.9c-.5,-.5,-.3,-1,-.8,-1.4c-.4,-.5,-1.1,-.4,-1.6,-1c.4,3.4,.7,6.6,1.6,10c-.7,-3.8,-3.6,-7.1,-2,-11.1c4.3,-.8,8.6,1.2,12.8,1.5" class="g2_440"/>
<g clip-path="url(#c3_440)">
<path d="M-4.5,13.7H-27.4m939.5,0H935M-4.5,1031.2H-27.4m939.5,0H935M13.7,-4.5V-27.4m0,1077v22.9m880,-1077V-27.4m0,1077v22.9" class="g3_440"/>
<path d="M-4.5,13.7H-27.4m939.5,0H935M-4.5,1031.2H-27.4m939.5,0H935M13.7,-4.5V-27.4m0,1077v22.9m880,-1077V-27.4m0,1077v22.9" class="g4_440"/>
</g>
</svg>