<?xml version="1.0" encoding="UTF-8" standalone="no"?>
<!DOCTYPE svg PUBLIC "-//W3C//DTD SVG 1.1//EN"
"http://www.w3.org/Graphics/SVG/1.1/DTD/svg11.dtd">
<svg viewBox="0 0 770 1017" version="1.1" xmlns="http://www.w3.org/2000/svg" xmlns:xlink="http://www.w3.org/1999/xlink">
<defs>
<style type="text/css"><![CDATA[
.g0_660{
fill: none;
stroke: #000000;
stroke-width: 0.618;
stroke-linecap: butt;
stroke-linejoin: miter;
}
.g1_660{
fill: none;
stroke: #000000;
stroke-width: 0.514;
stroke-linecap: butt;
stroke-linejoin: miter;
}
.g2_660{
fill: none;
stroke: #000000;
stroke-width: 2.059;
stroke-linecap: butt;
stroke-linejoin: miter;
}
]]></style>
</defs>
<path d="M56,69.2H695.2M380.7,304.9V102.4" class="g0_660"/>
<path d="M457.3,112.8c0,6.3,-5.1,11.4,-11.4,11.4c-6.2,0,-11.3,-5.1,-11.3,-11.4c0,-6.2,5.1,-11.3,11.3,-11.3c6.3,0,11.4,5.1,11.4,11.3m20.5,0c0,6.3,-5,11.4,-11.3,11.4c-6.2,0,-11.3,-5.1,-11.3,-11.4c0,-6.2,5.1,-11.3,11.3,-11.3c6.3,0,11.3,5.1,11.3,11.3m25.8,0c0,6.3,-5.1,11.4,-11.3,11.4c-6.3,0,-11.4,-5.1,-11.4,-11.4c0,-6.2,5.1,-11.3,11.4,-11.3c6.2,0,11.3,5.1,11.3,11.3m51.5,0c0,6.3,-5.1,11.4,-11.4,11.4c-6.2,0,-11.3,-5.1,-11.3,-11.4c0,-6.2,5.1,-11.3,11.3,-11.3c6.3,0,11.4,5.1,11.4,11.3m46.3,0c0,6.3,-5.1,11.4,-11.3,11.4c-6.3,0,-11.3,-5.1,-11.3,-11.4c0,-6.2,5,-11.3,11.3,-11.3c6.2,0,11.3,5.1,11.3,11.3m25.7,0c0,6.3,-5.1,11.4,-11.3,11.4c-6.3,0,-11.3,-5.1,-11.3,-11.4c0,-6.2,5,-11.3,11.3,-11.3c6.2,0,11.3,5.1,11.3,11.3m46.4,0c0,6.3,-5.1,11.4,-11.4,11.4c-6.2,0,-11.3,-5.1,-11.3,-11.4c0,-6.2,5.1,-11.3,11.3,-11.3c6.3,0,11.4,5.1,11.4,11.3m20.6,0c0,6.3,-5.1,11.4,-11.4,11.4c-6.2,0,-11.3,-5.1,-11.3,-11.4c0,-6.2,5.1,-11.3,11.3,-11.3c6.3,0,11.4,5.1,11.4,11.3m0,46.4c0,6.2,-5.1,11.3,-11.4,11.3c-6.2,0,-11.3,-5.1,-11.3,-11.3c0,-6.3,5.1,-11.4,11.3,-11.4c6.3,0,11.4,5.1,11.4,11.4m-25.8,0c0,6.2,-5.1,11.3,-11.3,11.3c-6.3,0,-11.3,-5.1,-11.3,-11.3c0,-6.3,5,-11.4,11.3,-11.4c6.2,0,11.3,5.1,11.3,11.4m-25.7,0c0,6.2,-5.1,11.3,-11.4,11.3c-6.2,0,-11.3,-5.1,-11.3,-11.3c0,-6.3,5.1,-11.4,11.3,-11.4c6.3,0,11.4,5.1,11.4,11.4m-20.6,0c0,6.2,-5.1,11.3,-11.3,11.3c-6.3,0,-11.4,-5.1,-11.4,-11.3c0,-6.3,5.1,-11.4,11.4,-11.4c6.2,0,11.3,5.1,11.3,11.4m-66.9,0c0,6.2,-5.1,11.3,-11.4,11.3c-6.2,0,-11.3,-5.1,-11.3,-11.3c0,-6.3,5.1,-11.4,11.3,-11.4c6.3,0,11.4,5.1,11.4,11.4m-72.1,0c0,6.2,-5.1,11.3,-11.4,11.3c-6.2,0,-11.3,-5.1,-11.3,-11.3c0,-6.3,5.1,-11.4,11.3,-11.4c6.3,0,11.4,5.1,11.4,11.4m-25.7,0c0,6.2,-5.1,11.3,-11.4,11.3c-6.2,0,-11.3,-5.1,-11.3,-11.3c0,-6.3,5.1,-11.4,11.3,-11.4c6.3,0,11.4,5.1,11.4,11.4m-25.8,0c0,6.2,-5.1,11.3,-11.3,11.3c-6.3,0,-11.3,-5.1,-11.3,-11.3c0,-6.3,5,-11.4,11.3,-11.4c6.2,0,11.3,5.1,11.3,11.4m25.8,46.3c0,6.2,-5.1,11.3,-11.4,11.3c-6.2,0,-11.3,-5.1,-11.3,-11.3c0,-6.3,5.1,-11.4,11.3,-11.4c6.3,0,11.4,5.1,11.4,11.4m25.7,0c0,6.2,-5.1,11.3,-11.4,11.3c-6.2,0,-11.3,-5.1,-11.3,-11.3c0,-6.3,5.1,-11.4,11.3,-11.4c6.3,0,11.4,5.1,11.4,11.4m25.7,0c0,6.2,-5,11.3,-11.3,11.3c-6.2,0,-11.3,-5.1,-11.3,-11.3c0,-6.3,5.1,-11.4,11.3,-11.4c6.3,0,11.3,5.1,11.3,11.4m20.6,0c0,6.2,-5.1,11.3,-11.3,11.3c-6.3,0,-11.3,-5.1,-11.3,-11.3c0,-6.3,5,-11.4,11.3,-11.4c6.2,0,11.3,5.1,11.3,11.4m92.7,0c0,6.2,-5.1,11.3,-11.3,11.3c-6.3,0,-11.4,-5.1,-11.4,-11.3c0,-6.3,5.1,-11.4,11.4,-11.4c6.2,0,11.3,5.1,11.3,11.4m20.6,0c0,6.2,-5.1,11.3,-11.4,11.3c-6.2,0,-11.3,-5.1,-11.3,-11.3c0,-6.3,5.1,-11.4,11.3,-11.4c6.3,0,11.4,5.1,11.4,11.4m25.7,0c0,6.2,-5.1,11.3,-11.3,11.3c-6.3,0,-11.3,-5.1,-11.3,-11.3c0,-6.3,5,-11.4,11.3,-11.4c6.2,0,11.3,5.1,11.3,11.4m-1,46.3c0,6.3,-5.1,11.3,-11.3,11.3c-6.3,0,-11.4,-5,-11.4,-11.3c0,-6.2,5.1,-11.3,11.4,-11.3c6.2,0,11.3,5.1,11.3,11.3m-20.6,0c0,6.3,-5.1,11.3,-11.3,11.3c-6.3,0,-11.4,-5,-11.4,-11.3c0,-6.2,5.1,-11.3,11.4,-11.3c6.2,0,11.3,5.1,11.3,11.3m-25.7,0c0,6.3,-5.1,11.3,-11.4,11.3c-6.2,0,-11.3,-5,-11.3,-11.3c0,-6.2,5.1,-11.3,11.3,-11.3c6.3,0,11.4,5.1,11.4,11.3m-20.6,0c0,6.3,-5.1,11.3,-11.4,11.3c-6.2,0,-11.3,-5,-11.3,-11.3c0,-6.2,5.1,-11.3,11.3,-11.3c6.3,0,11.4,5.1,11.4,11.3m-97.9,0c0,6.3,-5,11.3,-11.3,11.3c-6.2,0,-11.3,-5,-11.3,-11.3c0,-6.2,5.1,-11.3,11.3,-11.3c6.3,0,11.3,5.1,11.3,11.3m-25.7,0c0,6.3,-5.1,11.3,-11.3,11.3c-6.3,0,-11.3,-5,-11.3,-11.3c0,-6.2,5,-11.3,11.3,-11.3c6.2,0,11.3,5.1,11.3,11.3m-25.7,0c0,6.3,-5.1,11.3,-11.4,11.3c-6.2,0,-11.3,-5,-11.3,-11.3c0,-6.2,5.1,-11.3,11.3,-11.3c6.3,0,11.4,5.1,11.4,11.3m-20.6,0c0,6.3,-5.1,11.3,-11.3,11.3c-6.3,0,-11.4,-5,-11.4,-11.3c0,-6.2,5.1,-11.3,11.4,-11.3c6.2,0,11.3,5.1,11.3,11.3M483,293c0,6.3,-5.1,11.3,-11.4,11.3c-6.2,0,-11.3,-5,-11.3,-11.3c0,-6.2,5.1,-11.3,11.3,-11.3c6.3,0,11.4,5.1,11.4,11.3m25.7,0c0,6.3,-5,11.3,-11.3,11.3c-6.2,0,-11.3,-5,-11.3,-11.3c0,-6.2,5.1,-11.3,11.3,-11.3c6.3,0,11.3,5.1,11.3,11.3m20.6,0c0,6.3,-5.1,11.3,-11.3,11.3c-6.3,0,-11.3,-5,-11.3,-11.3c0,-6.2,5,-11.3,11.3,-11.3c6.2,0,11.3,5.1,11.3,11.3m72.1,0c0,6.3,-5.1,11.3,-11.3,11.3c-6.3,0,-11.3,-5,-11.3,-11.3c0,-6.2,5,-11.3,11.3,-11.3c6.2,0,11.3,5.1,11.3,11.3m20.6,0c0,6.3,-5.1,11.3,-11.3,11.3c-6.3,0,-11.4,-5,-11.4,-11.3c0,-6.2,5.1,-11.3,11.4,-11.3c6.2,0,11.3,5.1,11.3,11.3m20.6,0c0,6.3,-5.1,11.3,-11.4,11.3c-6.2,0,-11.3,-5,-11.3,-11.3c0,-6.2,5.1,-11.3,11.3,-11.3c6.3,0,11.4,5.1,11.4,11.3m25.7,0c0,6.3,-5.1,11.3,-11.3,11.3c-6.3,0,-11.3,-5,-11.3,-11.3c0,-6.2,5,-11.3,11.3,-11.3c6.2,0,11.3,5.1,11.3,11.3m-72,-87.5c0,6.2,-5.1,11.3,-11.4,11.3c-6.2,0,-11.3,-5.1,-11.3,-11.3c0,-6.3,5.1,-11.4,11.3,-11.4c6.3,0,11.4,5.1,11.4,11.4M457.3,293c0,6.3,-5.1,11.3,-11.4,11.3c-6.2,0,-11.3,-5,-11.3,-11.3c0,-6.2,5.1,-11.3,11.3,-11.3c6.3,0,11.4,5.1,11.4,11.3" class="g1_660"/>
<path d="M440.8,123.1l-15.5,25.8m35,-25.8l-15.4,25.8m41.2,-25.8l-15.5,25.8m-45.3,20.6l15.5,25.7M450,169.5l15.5,25.7m10.3,-25.7l15.4,25.7m-50.4,20.6l-15.5,25.7m37.1,-25.7L447,241.5m41.1,-25.7l-15.4,25.7m41.2,-25.7l-15.5,25.7m-73.1,20.6l15.5,20.6M449,263.1l15.5,20.6m10.3,-20.6l15.4,20.6m10.3,-20.6l15.4,20.6M595.2,123.1l15.5,25.8m4.1,-25.8l15.4,25.8m-24.7,20.6l-15.4,25.7m37,-25.7l-15.4,25.7m41.2,-25.7l-15.5,25.7m36.1,-25.7L658,195.2m-73.1,20.6l5.2,25.7m20.6,-25.7l5.1,25.7m13.4,-25.7l5.1,25.7m20.6,-25.7l5.2,25.7m-70,20.6v20.6m20.6,-20.6v20.6m25.7,-20.6v20.6M657,262.1v20.6m5.1,-159.6L657,148.9m27.8,-26.8l-5.2,25.7M543.7,123.1v25.8m-5.1,20.6l-15.5,25.7" class="g2_660"/>
<path d="M65.1,331.2h621" class="g0_660"/>
</svg>