<?xml version="1.0" encoding="UTF-8" standalone="no"?>
<!DOCTYPE svg PUBLIC "-//W3C//DTD SVG 1.1//EN"
"http://www.w3.org/Graphics/SVG/1.1/DTD/svg11.dtd">
<svg viewBox="0 0 907 1045" version="1.1" xmlns="http://www.w3.org/2000/svg" xmlns:xlink="http://www.w3.org/1999/xlink">
<defs>
<clipPath id="c0_522"><path d="M-2.6,1047.7V-2.6H910.2V1047.7Z"/></clipPath>
<style type="text/css"><![CDATA[
.g0_522{
fill: none;
stroke: #636363;
stroke-width: 1.527;
stroke-linecap: butt;
stroke-linejoin: miter;
stroke-miterlimit: 4;
}
.g1_522{
fill: none;
stroke: #3D3D3D;
stroke-width: 1.527;
stroke-linecap: butt;
stroke-linejoin: miter;
stroke-miterlimit: 4;
}
.g2_522{
fill: none;
stroke: #FFFFFF;
stroke-width: 1.909;
stroke-linecap: butt;
stroke-linejoin: miter;
}
.g3_522{
fill: none;
stroke: #000000;
stroke-width: 0.381;
stroke-linecap: butt;
stroke-linejoin: miter;
}
]]></style>
</defs>
<path d="M535.3,221.5c-6.8,-3.6,-14.7,-2.9,-22.1,-2.9c-8.4,.1,-16.3,2.9,-22.8,8.2c-3.3,2.8,-6.6,5.7,-9.7,8.7c-3.1,3.1,-7.3,6.3,-9,10.5c-1.5,3.6,-1.9,7.1,-4.1,10.5c-1,-1.4,-1.8,-4.1,-2.8,-5c.2,1.3,1.1,3.3,1.8,4.5c2.4,-2.2,6.6,-2.4,9.6,-3.6m83.6,87.2c-3.1,-.4,-7.3,2.1,-10.2,3.1c-7,2.4,-14,5.6,-21.2,7.6c-7.7,2.2,-16,2.8,-23.8,4.1c-5.1,.9,-9.8,2.7,-14.9,3.2c-6.8,.7,-13.6,1.9,-20.3,3.1c-2,.4,-4.4,1.4,-6.4,1.4c3.3,-1.9,7.1,-4.2,9.3,-7.3c-2.3,.5,-5.1,3.2,-7,4.6c-1.4,.9,-4.6,2.8,-5.2,4.5c-2.4,6.6,19.3,2.7,21.1,3.9m163.7,33.7c-2.9,-1,-6.1,-.4,-9,0c-5.8,.7,-11.1,2.2,-16.6,4.4c-3.6,1.4,-5.1,3.3,-7.5,6.1c-1.6,1.9,-4.1,3.1,-5.4,5.3c-.3,-2,-1.2,-5,-2.7,-6.3c.2,.6,.6,1.1,.8,1.7c.9,2.6,-.5,6.1,1,8.3c2.8,0,5.5,-1.6,8.3,-2.1m21.9,29.9c-2.2,.2,-4.3,-.4,-6.4,-.5c-4.7,-.1,-9.5,.2,-14.2,.1c-3.1,-.1,-6.1,-1,-9.3,-1.1c-2.2,0,-5.8,.8,-7.9,-.3c3.3,-.4,7.5,-.7,10.4,-2c-2.1,-.1,-4.2,.6,-6.3,.9c-2.4,.5,-6.5,.2,-8.5,2c.5,.7,1.4,1.4,2.3,1.9c2.4,1.3,6.1,1.5,8.8,1.5c1.4,.1,2.2,-.3,3.2,.5m41.4,35.4c-.8,-.6,-1.7,-1.1,-2.7,-1.4c-2.6,-1.3,-4.8,-2.9,-7.2,-4.5c-4.2,-2.9,-8.9,-5.9,-13.6,-7.8c-4,-1.5,-8,-2.5,-12.2,-2.8c-1.1,-.1,-2.3,.2,-3.3,-.1c2.1,-2.3,6.9,-2.3,9.8,-2.2c-2.6,1.4,-8.5,.1,-10,3.2c2.1,1.9,13.2,3.2,10.1,7.7m30.6,34.5c.2,-.4,.5,-.9,.7,-1.3c-1.4,-2.3,-3.3,-3.5,-5.3,-5.2c-2,-1.7,-3.7,-3.6,-5.5,-5.5c-3,-3.2,-5.4,-5.2,-9.4,-6.9c-6.9,-3.1,-14.6,-3.7,-21.5,-6.7c-2.8,-1.2,-6,-1.5,-8.8,-2.8c-.9,-.4,-3.7,-.8,-3.7,-1.9c-.1,-1.9,4.7,-2.6,5.3,-3.7c-3.1,.6,-10.2,.5,-11.2,4.7c-1.2,4.9,9.3,5.4,11.7,8.5m78.5,52c-4.9,-1.3,-10.1,-2.2,-14.9,-3.9c-4.4,-1.5,-8.7,-3.6,-13.1,-4.8c-3,-.7,-5.6,-1.6,-8.3,-2.8c-4.2,-1.7,-8.6,-2.6,-12.9,-3.7c-3.1,-.7,-6.4,-1,-9.6,-1.9c-7.9,-2,-16.8,-4.5,-25.1,-3.5c-2,.3,-3.7,1.3,-5.8,1.6c-1.5,.1,-3,.3,-4.5,.4c-2.2,.2,-4.3,.7,-6.5,1c-2.6,.5,-5.5,.1,-8.1,.9c2.9,-1.9,7.8,-3.2,9.4,-6.6c-2.5,2.3,-6.3,3.2,-9.4,4.4c-2,.8,-2.5,.9,-3,2.7c-.2,.7,0,.8,-.4,1.4c1.5,1,3.5,1,5.3,1c2.7,.1,10,-1,11.2,2.3m170.5,51.9c0,-5.6,.9,-12.2,-.2,-17.6c-2.9,-.5,-4.6,3.3,-5.2,5.5c-2,-9,11,-.9,13.2,.3m-2.7,149.9c0,-5.5,.9,-12.1,-.2,-17.5c-2.9,-.5,-4.5,3.2,-5.1,5.4c-2.1,-8.9,11,-.8,13.1,.4M733.7,841.1c0,-5.5,.9,-12.2,-.2,-17.6c-2.9,-.5,-4.6,3.3,-5.1,5.5c-2.1,-9,11,-.9,13.1,.3M674.2,625.2c-4.9,.8,-9.5,0,-14.4,0c-6.1,-.1,-12.1,1.7,-18.1,1.2c-5.5,-.5,-11.6,-1.5,-17.2,-.7c1.9,-2.2,3.5,-3.9,6.8,-3.7c-.8,.3,-1.2,.7,-1.8,1.2c-.6,.9,-1.4,1.5,-2.3,2c-.7,.2,-1.4,.5,-2,1c-3.3,4,5.8,4.8,7.3,6.3m13.3,38c-4.5,0,-8.9,.1,-13.4,-1c-4,-1,-8.5,-2.4,-12.7,-2.2c2.6,0,6.4,-.2,8.4,-2.1c-2,.1,-3.7,.5,-5.7,.9c-2.2,.5,-6.8,1.4,-7.8,3.7c.3,.7,2.8,1.2,3.3,1.3c2,.6,4,1.1,6.1,1.4m78.5,18.4c-1.2,.5,-2.4,.4,-3.6,.5c-2.7,.3,-5,1.5,-7.6,1.8c-5.4,.5,-10.3,-1,-15.5,-1.4c-3.4,-.4,-6.8,-.2,-10.1,-.6c-1.5,-.2,-2.9,-.6,-4.3,-1.2c-3.7,-1.3,-7.7,-2,-11.5,-2.9c-3.5,-.8,-6.7,-1,-10.2,-1.3c-3.2,-.3,-6.9,.2,-10,-.4c.2,-.8,2.7,-.9,3.5,-1.2c2.5,-.9,4.5,-1.2,7.2,-1.1c-2.8,-.1,-5.5,.2,-8.2,.4c-2.5,.1,-4,.4,-6.4,1.2c-1.1,.3,-2.2,.2,-3.1,.8c1.5,1.5,2.3,2.2,4.4,2.7c2.3,.6,5.7,1.4,7.4,3.1m91,79.1c1.1,-.3,1.4,-1,1.8,-1.9c.5,-1,.7,-.1,.5,-1.6c-.1,-.8,-1.4,-2.3,-1.9,-2.9c-3.4,-3.5,-10.2,-6.7,-15.1,-7c-5.3,-.4,-10.3,-.6,-15.6,-.3c-2.4,.1,-4.8,-.1,-7.2,-.1c-1.8,.1,-3.5,.7,-5.3,.3c1,-.5,2.2,-1.9,2.9,-3c.6,-1,.9,-2.4,1.9,-2.9c-.2,1.2,-2,2.3,-3,3c-2,1.5,-4.3,2.7,-4.8,5.4c1.2,1.2,5.3,1.7,7,1.8" class="g0_522"/>
<path d="M708.1,860.8c5.4,0,10.8,0,16.3,0c5.4,0,10.2,-1,15.7,-1" class="g1_522"/>
<g clip-path="url(#c0_522)">
<path d="M-4.5,13.7H-27.4m939.5,0H935M-4.5,1031.2H-27.4m939.5,0H935M13.7,-4.5V-27.4m0,1077v22.9m880,-1077V-27.4m0,1077v22.9" class="g2_522"/>
<path d="M-4.5,13.7H-27.4m939.5,0H935M-4.5,1031.2H-27.4m939.5,0H935M13.7,-4.5V-27.4m0,1077v22.9m880,-1077V-27.4m0,1077v22.9" class="g3_522"/>
</g>
</svg>