<?xml version="1.0" encoding="UTF-8" standalone="no"?>
<!DOCTYPE svg PUBLIC "-//W3C//DTD SVG 1.1//EN"
"http://www.w3.org/Graphics/SVG/1.1/DTD/svg11.dtd">
<svg viewBox="0 0 931 1096" version="1.1" xmlns="http://www.w3.org/2000/svg" xmlns:xlink="http://www.w3.org/1999/xlink">
<defs>
<clipPath id="c0_102"><path d="M639.3,568.2V539.5h88.1v28.7Z"/></clipPath>
<clipPath id="c1_102"><path d="M580.2,903V874.1H703.8V903Z"/></clipPath>
<clipPath id="c2_102"><path d="M190.8,150.7V120.9h96.6v29.8Z"/></clipPath>
<clipPath id="c3_102"><path d="M262,261.7V245.5h99.2v16.2Z"/></clipPath>
<clipPath id="c4_102"><path d="M156.5,644V515.7h165V644Z"/></clipPath>
<clipPath id="c5_102"><path d="M156.2,644.3V512.5h170V644.3Z"/></clipPath>
<clipPath id="c6_102"><path d="M262,706V690.1h55.1V706Z"/></clipPath>
<clipPath id="c7_102"><path d="M195.2,1017.5V999.3H304.4v18.2Z"/></clipPath>
<style type="text/css"><![CDATA[
.g0_102{
fill: #E8F6FE;
}
.g1_102{
fill: none;
stroke: #241F1F;
stroke-width: 0.763;
stroke-miterlimit: 10;
}
.g2_102{
fill: none;
stroke: #241F1F;
stroke-width: 0.687;
stroke-miterlimit: 10;
}
.g3_102{
fill: none;
stroke: #241F1F;
stroke-width: 0.481;
stroke-miterlimit: 10;
}
.g4_102{
fill: none;
stroke: #00AEEF;
stroke-width: 0.763;
stroke-miterlimit: 10;
}
.g5_102{
fill: #241F1F;
}
.g6_102{
fill: none;
stroke: #89898B;
stroke-width: 0.534;
stroke-miterlimit: 3;
}
.g7_102{
fill: #FFF;
}
.g8_102{
fill: none;
stroke: #FFF;
stroke-width: 1.527;
}
.g9_102{
fill: none;
stroke: #241F1F;
stroke-width: 0.611;
stroke-miterlimit: 3;
}
.ga_102{
fill: none;
stroke: #EE008C;
stroke-width: 0.916;
stroke-linejoin: round;
}
.gb_102{
fill: none;
stroke: #241F1F;
stroke-width: 0.756;
stroke-miterlimit: 10;
}
]]></style>
</defs>
<path d="M484.2,190.1h67.3v27.5H484.2Zm67.3,0h97.7v27.5H551.5Zm97.7,0h4.6v27.5h-4.6Zm4.6,0h68.8v27.5H653.8Zm68.8,0h97.8v27.5H722.6Z" class="g0_102"/>
<path d="M483.9,190.1h67.6m0,0h97.7m0,0h4.2m69.6,0h97.7M483.9,217.6h67.6m0,0h97.7m0,0h4.2m69.6,0h97.7M483.9,329.2h67.6m0,0h97.7m0,0h4.2m69.6,0h97.7M484.2,217.3V190.5m67.3,26.8V190.5m268.9,26.8V190.5M484.2,236V218m67.3,18V218m268.9,18V218M484.2,254.3V236m67.3,18.3V236m268.9,18.3V236M484.2,272.6V254.3m67.3,18.3V254.3m268.9,18.3V254.3M484.2,291V272.6M551.5,291V272.6M820.4,291V272.6M484.2,309.3V291m67.3,18.3V291m268.9,18.3V291M484.2,328.8V309.3m67.3,19.5V309.3m268.9,19.5V309.3m-171.2,-92V190.5m4.6,26.8V190.5m68.8,26.8V190.5M649.2,236V218m4.6,18V218m68.8,18V218m-73.4,36.3V236m4.6,18.3V236m68.8,18.3V236m-73.4,36.6V254.3m4.6,18.3V254.3m68.8,18.3V254.3M649.2,291V272.6m4.6,18.4V272.6M722.6,291V272.6m-73.4,36.7V291m4.6,18.3V291m68.8,18.3V291m-73.4,37.8V309.3m4.6,19.5V309.3m68.8,19.5V309.3M653.4,190.1H723m-69.6,27.5H723M653.4,329.2H723" class="g1_102"/>
<path clip-path="url(#c0_102)" d="M683.4,553.9h44.3" class="g2_102"/>
<path d="M564.5,624.1h4.8m171.3,0h5.6" class="g3_102"/>
<path clip-path="url(#c1_102)" d="M623.2,888.5h80.9" class="g2_102"/>
<path d="M53.5,299.5H424.7M53.5,785.3H424.7" class="g4_102"/>
<path clip-path="url(#c2_102)" d="M193.1,136.5h94.6" class="g2_102"/>
<path clip-path="url(#c3_102)" d="M314.3,245.8h47.2" class="g2_102"/>
<path d="M288.4,469.4h4.8" class="g3_102"/>
<path fill-rule="evenodd" d="M248.1,521l-2.4,1.6l2.4,-6.5l2.5,6.5Z" class="g5_102"/>
<path fill-rule="evenodd" d="M316.9,607.4l-1.7,-2.5l6.6,2.5l-6.6,2.4Z" class="g5_102"/>
<path clip-path="url(#c4_102)" d="M156.4,625.7h165M156.4,534h165m-165,18.4h165m-165,18.3h165M156.4,589h165m-18.3,55V515.7M284.8,644V515.7M266.4,644V515.7M248.1,644V515.7M229.8,644V515.7M174.8,644V515.7M211.4,644V515.7M193.1,644V515.7m-36.7,91.7h165" class="g6_102"/>
<path d="M156.5,644H321.4V515.7H156.5V644Z" class="g6_102"/>
<path d="M259.5,622.9h13.7V609.2H259.5v13.7Z" class="g7_102"/>
<path d="M236.6,596h9.1V582.2h-9.1V596Z" class="g7_102"/>
<path clip-path="url(#c5_102)" d="M327.4,515.5V642.8" class="g8_102"/>
<path d="M248.1,644V521m-91.6,86.4H316.9" class="g9_102"/>
<path d="M174.8,607.4c34.3,0,73.6,-38.5,73.3,-55l55,-18.4" class="ga_102"/>
<path clip-path="url(#c6_102)" d="M307,690.4h10.4" class="g2_102"/>
<g clip-path="url(#c7_102)">
<path d="M296.5,1002.1h8.2" class="g2_102"/>
<path d="M260.6,999.6h44.2" class="gb_102"/>
</g>
</svg>