<?xml version="1.0" encoding="UTF-8" standalone="no"?>
<!DOCTYPE svg PUBLIC "-//W3C//DTD SVG 1.1//EN"
"http://www.w3.org/Graphics/SVG/1.1/DTD/svg11.dtd">
<svg viewBox="0 0 770 1017" version="1.1" xmlns="http://www.w3.org/2000/svg" xmlns:xlink="http://www.w3.org/1999/xlink">
<defs>
<style type="text/css"><![CDATA[
.g0_205{
fill: none;
stroke: #000000;
stroke-width: 0.618;
stroke-linecap: butt;
stroke-linejoin: miter;
}
.g1_205{
stroke: #000000;
stroke-width: 0.336;
stroke-linecap: butt;
stroke-linejoin: miter;
}
.g2_205{
fill: none;
stroke: #000000;
stroke-width: 0.336;
stroke-linecap: butt;
stroke-linejoin: miter;
}
]]></style>
</defs>
<path d="M74.2,69.2H713.5" class="g0_205"/>
<path d="M182.3,182.2c0,1.9,-1.5,3.4,-3.4,3.4c-1.8,0,-3.3,-1.5,-3.3,-3.4c0,-1.8,1.5,-3.3,3.3,-3.3c1.9,0,3.4,1.5,3.4,3.3" class="g1_205"/>
<path d="M202.4,108.4c0,1.9,-1.5,3.4,-3.3,3.4c-1.9,0,-3.4,-1.5,-3.4,-3.4c0,-1.8,1.5,-3.3,3.4,-3.3c1.8,0,3.3,1.5,3.3,3.3" class="g1_205"/>
<path d="M168.9,115.2c0,1.8,-1.5,3.3,-3.4,3.3c-1.8,0,-3.3,-1.5,-3.3,-3.3c0,-1.9,1.5,-3.4,3.3,-3.4c1.9,0,3.4,1.5,3.4,3.4" class="g1_205"/>
<path d="M152.1,128.6c0,1.8,-1.5,3.3,-3.3,3.3c-1.9,0,-3.4,-1.5,-3.4,-3.3c0,-1.9,1.5,-3.4,3.4,-3.4c1.8,0,3.3,1.5,3.3,3.4" class="g1_205"/>
<path d="M132,152.1c0,1.8,-1.5,3.3,-3.4,3.3c-1.8,0,-3.3,-1.5,-3.3,-3.3c0,-1.9,1.5,-3.4,3.3,-3.4c1.9,0,3.4,1.5,3.4,3.4" class="g1_205"/>
<path d="M125.3,175.5c0,1.9,-1.5,3.4,-3.4,3.4c-1.8,0,-3.3,-1.5,-3.3,-3.4c0,-1.8,1.5,-3.3,3.3,-3.3c1.9,0,3.4,1.5,3.4,3.3" class="g1_205"/>
<path d="M125.3,199c0,1.9,-1.5,3.4,-3.4,3.4c-1.8,0,-3.3,-1.5,-3.3,-3.4c0,-1.8,1.5,-3.3,3.3,-3.3c1.9,0,3.4,1.5,3.4,3.3" class="g1_205"/>
<path d="M132,222.5c0,1.8,-1.5,3.3,-3.4,3.3c-1.8,0,-3.3,-1.5,-3.3,-3.3c0,-1.9,1.5,-3.4,3.3,-3.4c1.9,0,3.4,1.5,3.4,3.4" class="g1_205"/>
<path d="M145.4,239.3c0,1.8,-1.5,3.3,-3.3,3.3c-1.9,0,-3.4,-1.5,-3.4,-3.3c0,-1.9,1.5,-3.4,3.4,-3.4c1.8,0,3.3,1.5,3.3,3.4" class="g1_205"/>
<path d="M162.2,252.7c0,1.8,-1.5,3.3,-3.4,3.3c-1.8,0,-3.3,-1.5,-3.3,-3.3c0,-1.9,1.5,-3.4,3.3,-3.4c1.9,0,3.4,1.5,3.4,3.4" class="g1_205"/>
<path d="M182.3,262.7c0,1.9,-1.5,3.4,-3.4,3.4c-1.8,0,-3.3,-1.5,-3.3,-3.4c0,-1.8,1.5,-3.3,3.3,-3.3c1.9,0,3.4,1.5,3.4,3.3" class="g1_205"/>
<path d="M209.1,262.7c0,1.9,-1.5,3.4,-3.3,3.4c-1.9,0,-3.4,-1.5,-3.4,-3.4c0,-1.8,1.5,-3.3,3.4,-3.3c1.8,0,3.3,1.5,3.3,3.3" class="g1_205"/>
<path d="M235.9,256c0,1.9,-1.5,3.4,-3.3,3.4c-1.9,0,-3.4,-1.5,-3.4,-3.4c0,-1.8,1.5,-3.3,3.4,-3.3c1.8,0,3.3,1.5,3.3,3.3" class="g1_205"/>
<path d="M262.8,232.5c0,1.9,-1.5,3.4,-3.4,3.4c-1.8,0,-3.3,-1.5,-3.3,-3.4c0,-1.8,1.5,-3.3,3.3,-3.3c1.9,0,3.4,1.5,3.4,3.3" class="g1_205"/>
<path d="M229.2,115.2c0,1.8,-1.5,3.3,-3.3,3.3c-1.9,0,-3.4,-1.5,-3.4,-3.3c0,-1.9,1.5,-3.4,3.4,-3.4c1.8,0,3.3,1.5,3.3,3.4" class="g1_205"/>
<path d="M252.7,131.9c0,1.9,-1.5,3.4,-3.3,3.4c-1.9,0,-3.4,-1.5,-3.4,-3.4c0,-1.8,1.5,-3.3,3.4,-3.3c1.8,0,3.3,1.5,3.3,3.3" class="g1_205"/>
<path d="M269.5,152.1c0,1.8,-1.5,3.3,-3.4,3.3c-1.8,0,-3.3,-1.5,-3.3,-3.3c0,-1.9,1.5,-3.4,3.3,-3.4c1.9,0,3.4,1.5,3.4,3.4" class="g1_205"/>
<path d="M400.3,105.1c0,1.8,-1.5,3.3,-3.4,3.3c-1.8,0,-3.3,-1.5,-3.3,-3.3c0,-1.9,1.5,-3.4,3.3,-3.4c1.9,0,3.4,1.5,3.4,3.4" class="g1_205"/>
<path d="M366.7,111.8c0,1.9,-1.5,3.4,-3.3,3.4c-1.9,0,-3.4,-1.5,-3.4,-3.4c0,-1.8,1.5,-3.3,3.4,-3.3c1.8,0,3.3,1.5,3.3,3.3" class="g1_205"/>
<path d="M350,125.2c0,1.9,-1.5,3.4,-3.4,3.4c-1.8,0,-3.3,-1.5,-3.3,-3.4c0,-1.8,1.5,-3.3,3.3,-3.3c1.9,0,3.4,1.5,3.4,3.3" class="g1_205"/>
<path d="M329.8,148.7c0,1.8,-1.5,3.3,-3.3,3.3c-1.9,0,-3.4,-1.5,-3.4,-3.3c0,-1.9,1.5,-3.4,3.4,-3.4c1.8,0,3.3,1.5,3.3,3.4" class="g1_205"/>
<path d="M323.2,172.2c0,1.8,-1.5,3.3,-3.4,3.3c-1.8,0,-3.4,-1.5,-3.4,-3.3c0,-1.9,1.6,-3.4,3.4,-3.4c1.9,0,3.4,1.5,3.4,3.4" class="g1_205"/>
<path d="M323.2,195.7c0,1.8,-1.5,3.3,-3.4,3.3c-1.8,0,-3.4,-1.5,-3.4,-3.3c0,-1.9,1.6,-3.4,3.4,-3.4c1.9,0,3.4,1.5,3.4,3.4" class="g1_205"/>
<path d="M329.8,219.1c0,1.9,-1.5,3.4,-3.3,3.4c-1.9,0,-3.4,-1.5,-3.4,-3.4c0,-1.8,1.5,-3.3,3.4,-3.3c1.8,0,3.3,1.5,3.3,3.3" class="g1_205"/>
<path d="M343.3,235.9c0,1.9,-1.5,3.4,-3.4,3.4c-1.8,0,-3.3,-1.5,-3.3,-3.4c0,-1.8,1.5,-3.3,3.3,-3.3c1.9,0,3.4,1.5,3.4,3.3" class="g1_205"/>
<path d="M360,249.3c0,1.9,-1.5,3.4,-3.3,3.4c-1.9,0,-3.4,-1.5,-3.4,-3.4c0,-1.8,1.5,-3.3,3.4,-3.3c1.8,0,3.3,1.5,3.3,3.3" class="g1_205"/>
<path d="M380.1,259.4c0,1.8,-1.5,3.3,-3.3,3.3c-1.9,0,-3.4,-1.5,-3.4,-3.3c0,-1.9,1.5,-3.4,3.4,-3.4c1.8,0,3.3,1.5,3.3,3.4" class="g1_205"/>
<path d="M407,259.4c0,1.8,-1.5,3.3,-3.4,3.3c-1.8,0,-3.3,-1.5,-3.3,-3.3c0,-1.9,1.5,-3.4,3.3,-3.4c1.9,0,3.4,1.5,3.4,3.4" class="g1_205"/>
<path d="M433.8,252.7c0,1.8,-1.5,3.3,-3.3,3.3c-1.9,0,-3.4,-1.5,-3.4,-3.3c0,-1.9,1.5,-3.4,3.4,-3.4c1.8,0,3.3,1.5,3.3,3.4" class="g1_205"/>
<path d="M460.7,229.2c0,1.8,-1.5,3.3,-3.4,3.3c-1.8,0,-3.4,-1.5,-3.4,-3.3c0,-1.9,1.6,-3.4,3.4,-3.4c1.9,0,3.4,1.5,3.4,3.4" class="g1_205"/>
<path d="M427.1,111.8c0,1.9,-1.5,3.4,-3.3,3.4c-1.9,0,-3.4,-1.5,-3.4,-3.4c0,-1.8,1.5,-3.3,3.4,-3.3c1.8,0,3.3,1.5,3.3,3.3" class="g1_205"/>
<path d="M450.6,128.6c0,1.8,-1.5,3.3,-3.4,3.3c-1.8,0,-3.3,-1.5,-3.3,-3.3c0,-1.9,1.5,-3.4,3.3,-3.4c1.9,0,3.4,1.5,3.4,3.4" class="g1_205"/>
<path d="M467.3,148.7c0,1.8,-1.5,3.3,-3.3,3.3c-1.9,0,-3.4,-1.5,-3.4,-3.3c0,-1.9,1.5,-3.4,3.4,-3.4c1.8,0,3.3,1.5,3.3,3.4" class="g1_205"/>
<path d="M383.5,182.2c0,1.9,-1.5,3.4,-3.3,3.4c-1.9,0,-3.4,-1.5,-3.4,-3.4c0,-1.8,1.5,-3.3,3.4,-3.3c1.8,0,3.3,1.5,3.3,3.3" class="g1_205"/>
<path d="M581.4,178.9c0,1.8,-1.5,3.3,-3.4,3.3c-1.8,0,-3.3,-1.5,-3.3,-3.3c0,-1.9,1.5,-3.4,3.3,-3.4c1.9,0,3.4,1.5,3.4,3.4" class="g1_205"/>
<path d="M601.5,105.1c0,1.8,-1.5,3.3,-3.4,3.3c-1.8,0,-3.3,-1.5,-3.3,-3.3c0,-1.9,1.5,-3.4,3.3,-3.4c1.9,0,3.4,1.5,3.4,3.4" class="g1_205"/>
<path d="M568,111.8c0,1.9,-1.6,3.4,-3.4,3.4c-1.9,0,-3.4,-1.5,-3.4,-3.4c0,-1.8,1.5,-3.3,3.4,-3.3c1.8,0,3.4,1.5,3.4,3.3" class="g1_205"/>
<path d="M551.2,125.2c0,1.9,-1.5,3.4,-3.4,3.4c-1.8,0,-3.3,-1.5,-3.3,-3.4c0,-1.8,1.5,-3.3,3.3,-3.3c1.9,0,3.4,1.5,3.4,3.3" class="g1_205"/>
<path d="M531.1,148.7c0,1.8,-1.5,3.3,-3.4,3.3c-1.8,0,-3.4,-1.5,-3.4,-3.3c0,-1.9,1.6,-3.4,3.4,-3.4c1.9,0,3.4,1.5,3.4,3.4" class="g1_205"/>
<path d="M524.4,172.2c0,1.8,-1.5,3.3,-3.4,3.3c-1.8,0,-3.3,-1.5,-3.3,-3.3c0,-1.9,1.5,-3.4,3.3,-3.4c1.9,0,3.4,1.5,3.4,3.4" class="g1_205"/>
<path d="M524.4,195.7c0,1.8,-1.5,3.3,-3.4,3.3c-1.8,0,-3.3,-1.5,-3.3,-3.3c0,-1.9,1.5,-3.4,3.3,-3.4c1.9,0,3.4,1.5,3.4,3.4" class="g1_205"/>
<path d="M531.1,219.1c0,1.9,-1.5,3.4,-3.4,3.4c-1.8,0,-3.4,-1.5,-3.4,-3.4c0,-1.8,1.6,-3.3,3.4,-3.3c1.9,0,3.4,1.5,3.4,3.3" class="g1_205"/>
<path d="M544.5,235.9c0,1.9,-1.5,3.4,-3.4,3.4c-1.8,0,-3.3,-1.5,-3.3,-3.4c0,-1.8,1.5,-3.3,3.3,-3.3c1.9,0,3.4,1.5,3.4,3.3" class="g1_205"/>
<path d="M561.3,249.3c0,1.9,-1.5,3.4,-3.4,3.4c-1.8,0,-3.3,-1.5,-3.3,-3.4c0,-1.8,1.5,-3.3,3.3,-3.3c1.9,0,3.4,1.5,3.4,3.3" class="g1_205"/>
<path d="M581.4,259.4c0,1.8,-1.5,3.3,-3.4,3.3c-1.8,0,-3.3,-1.5,-3.3,-3.3c0,-1.9,1.5,-3.4,3.3,-3.4c1.9,0,3.4,1.5,3.4,3.4" class="g1_205"/>
<path d="M608.2,259.4c0,1.8,-1.5,3.3,-3.4,3.3c-1.8,0,-3.3,-1.5,-3.3,-3.3c0,-1.9,1.5,-3.4,3.3,-3.4c1.9,0,3.4,1.5,3.4,3.4" class="g1_205"/>
<path d="M635,252.7c0,1.8,-1.5,3.3,-3.3,3.3c-1.9,0,-3.4,-1.5,-3.4,-3.3c0,-1.9,1.5,-3.4,3.4,-3.4c1.8,0,3.3,1.5,3.3,3.4" class="g1_205"/>
<path d="M661.9,229.2c0,1.8,-1.5,3.3,-3.4,3.3c-1.8,0,-3.3,-1.5,-3.3,-3.3c0,-1.9,1.5,-3.4,3.3,-3.4c1.9,0,3.4,1.5,3.4,3.4" class="g1_205"/>
<path d="M628.3,111.8c0,1.9,-1.5,3.4,-3.3,3.4c-1.9,0,-3.4,-1.5,-3.4,-3.4c0,-1.8,1.5,-3.3,3.4,-3.3c1.8,0,3.3,1.5,3.3,3.3" class="g1_205"/>
<path d="M651.8,128.6c0,1.8,-1.5,3.3,-3.3,3.3c-1.9,0,-3.4,-1.5,-3.4,-3.3c0,-1.9,1.5,-3.4,3.4,-3.4c1.8,0,3.3,1.5,3.3,3.4" class="g1_205"/>
<path d="M668.6,148.7c0,1.8,-1.5,3.3,-3.4,3.3c-1.8,0,-3.4,-1.5,-3.4,-3.3c0,-1.9,1.6,-3.4,3.4,-3.4c1.9,0,3.4,1.5,3.4,3.4" class="g1_205"/>
<path d="M464,148.7L447.2,128.6L423.8,111.8l-26.9,-6.7l-33.5,6.7l-16.8,13.4l-20.1,23.5l-6.7,23.5v23.4l6.7,23.5m0,0l13.4,16.8l16.8,13.4l20.1,10.1h26.8l26.9,-6.7l26.8,-23.5m-77.1,-47l-60.4,-10M578,178.9l87.2,-30.2M578,178.9l20.1,-73.8M578,175.5L547.8,125.2M578,178.9L527.7,148.7M578,178.9l-57,-6.7m57,6.7l-57,16.7m57,-16.7l-50.3,40.2M578,178.9l-36.9,57m36.9,-57l-20.1,70.4M578,178.9v80.5m0,-80.5l26.9,80.5M578,178.9l53.7,73.8M578,178.9l77.2,46.9m-90.6,-114L578,178.9m47,-67.1l-47,67.1m70.4,-50.3L578,178.9" class="g2_205"/>
<path d="M83.4,374.9h621" class="g0_205"/>
</svg>