<?xml version="1.0" encoding="UTF-8" standalone="no"?>
<!DOCTYPE svg PUBLIC "-//W3C//DTD SVG 1.1//EN"
"http://www.w3.org/Graphics/SVG/1.1/DTD/svg11.dtd">
<svg viewBox="0 0 931 1096" version="1.1" xmlns="http://www.w3.org/2000/svg" xmlns:xlink="http://www.w3.org/1999/xlink">
<defs>
<clipPath id="c0_377"><path d="M556.8,1011V974.8H663.9V1011Z"/></clipPath>
<clipPath id="c1_377"><path d="M107,130.1V96.5H880v33.6Z"/></clipPath>
<style type="text/css"><![CDATA[
.g0_377{
fill: none;
stroke: #241F1F;
stroke-width: 0.763;
stroke-miterlimit: 10;
}
.g1_377{
fill: none;
stroke: #00AEEF;
stroke-width: 1.145;
}
.g2_377{
fill: none;
stroke: #00AEEF;
stroke-width: 0.534;
stroke-miterlimit: 3;
}
.g3_377{
fill: none;
stroke: #EE008C;
stroke-width: 0.916;
stroke-miterlimit: 3;
}
.g4_377{
fill: none;
stroke: #241F1F;
stroke-width: 0.534;
stroke-miterlimit: 3;
}
.g5_377{
fill: none;
stroke: #EE008C;
stroke-width: 0.763;
stroke-linejoin: round;
}
.g6_377{
fill: none;
stroke: #00AEEF;
stroke-width: 0.763;
stroke-linejoin: round;
}
.g7_377{
fill: #00AEEF;
}
.g8_377{
fill: none;
stroke: #00AEEF;
stroke-width: 0.763;
stroke-miterlimit: 3;
}
.g9_377{
fill: none;
stroke: #241F1F;
stroke-width: 0.611;
stroke-miterlimit: 3;
}
.ga_377{
fill: #241F1F;
}
.gb_377{
fill: none;
stroke: #969698;
stroke-width: 0.763;
stroke-miterlimit: 3;
}
]]></style>
</defs>
<path clip-path="url(#c0_377)" d="M625.6,992.2h38.7" class="g0_377"/>
<path d="M358.8,214.3c0,0,-1.5,0,-1.5,1.5v14.1c0,0,0,1.5,1.5,1.5H373c0,0,1.5,0,1.5,-1.5V215.8c0,0,0,-1.5,-1.5,-1.5H358.8Z" class="g1_377"/>
<path d="M132.8,275.5H282.5c5.1,0,9.2,4.1,9.2,9.2v91.6c0,5.1,-4.1,9.2,-9.2,9.2H132.8c-5,0,-9.2,-4.1,-9.2,-9.2V284.7c0,-5.1,4.2,-9.2,9.2,-9.2Z" class="g2_377"/>
<path d="M288.6,290.7l3.1,-5.6m-6.9,12l3.8,-6.4m-7.1,12.1l3.3,-5.7m-6.9,11.1l3.6,-5.4m-6.9,10.3l3.3,-4.9m-7.2,10.3l3.9,-5.4m-7.2,9.6l3.3,-4.2m-6.9,8.9l3.6,-4.7m-6.9,8.6l3.3,-3.9m-6.9,7.8l3.6,-3.9m-7.2,7.9l3.6,-4m-7.2,7.4l3.6,-3.4m-7.1,6.6l3.5,-3.2m-6.9,6.2l3.4,-3m-6.9,5.9l3.5,-2.9m-7.1,5.4l3.6,-2.5m-7,4.9l3.4,-2.4m-6.9,4.6l3.5,-2.2m-7.1,4.5l3.6,-2.3m-7.2,4l3.6,-1.7m-7.2,3.4l3.6,-1.7m-7.2,3.2l3.6,-1.5m-6.9,2.7l3.3,-1.2m-6.9,2.4l3.6,-1.2m-7.2,2.2l3.6,-1m-7.1,2l3.5,-1m-6.9,1.5l3.4,-.5m-6.7,1.2l3.3,-.7m-6.9,1l3.6,-.3m-7.2,.8l3.6,-.5m-6.9,.5h3.3m-6.9,0h3.6m-7.2,0h3.6m-7.1,-.3l3.5,.3m-6.9,-.8l3.4,.5m-6.9,-1l3.5,.5m-7.1,-.9l3.6,.4m-7.2,-1.2l3.6,.8m-6.9,-1.5l3.3,.7m-6.9,-1.7l3.6,1m-7.2,-2l3.6,1m-7.2,-2l3.6,1M140.7,365l3.6,1.2m-6.9,-2.4l3.3,1.2m-6.9,-2.7l3.6,1.5m-7.2,-3l3.6,1.5m-7.1,-3l3.5,1.5M123.7,358l3,1.3" class="g3_377"/>
<path d="M207.5,359.4v-3.2M123.7,330.5h1.7m138.3,28.9v-3.2m-28,3.2v-3.2m-84.2,3.2v-3.2M123.7,303h1.7m54.1,56.4v-3.2m-55.8,1.6h168" class="g4_377"/>
<path d="M288.6,614.2l-40,138.9" class="g5_377"/>
<path d="M287.1,614.2c-18,100,-73.4,150.1,-178.6,141.3" class="g6_377"/>
<path d="M278.1,645.7c0,-.9,.7,-1.6,1.5,-1.6c.9,0,1.6,.7,1.6,1.6c0,.8,-.7,1.5,-1.6,1.5c-.8,0,-1.5,-.7,-1.5,-1.5Z" class="g7_377"/>
<path d="M278.1,645.7c0,-.9,.7,-1.6,1.5,-1.6c.9,0,1.6,.7,1.6,1.6c0,.8,-.7,1.5,-1.6,1.5c-.8,0,-1.5,-.7,-1.5,-1.5Z" class="g8_377"/>
<path d="M205.5,740.8c0,-.8,.7,-1.5,1.5,-1.5c.9,0,1.5,.7,1.5,1.5c0,.8,-.6,1.5,-1.5,1.5c-.8,0,-1.5,-.7,-1.5,-1.5Z" class="g7_377"/>
<path d="M205.5,740.8c0,-.8,.7,-1.5,1.5,-1.5c.9,0,1.5,.7,1.5,1.5c0,.8,-.6,1.5,-1.5,1.5c-.8,0,-1.5,-.7,-1.5,-1.5Z" class="g8_377"/>
<path d="M139.1,774.4V616.1" class="g9_377"/>
<path fill-rule="evenodd" d="M139.1,616.1l-2.5,1.6l2.5,-6.5l2.4,6.5Z" class="ga_377"/>
<path d="M108.5,740.8H312.3" class="g9_377"/>
<path fill-rule="evenodd" d="M312.3,740.8l-1.6,-2.5l6.5,2.5l-6.5,2.4Z" class="ga_377"/>
<path d="M279.6,740.8V645.7" class="gb_377"/>
<image clip-path="url(#c1_377)" preserveAspectRatio="none" x="107" y="97" width="773" height="33" xlink:href="img/1.png"/>
</svg>