<svg viewBox="0 0 811 1017" version="1.1" xmlns="http://www.w3.org/2000/svg">
<defs>
<style>
.g0_150{fill:#476B85;}
.g1_150{fill:#000;}
</style>
</defs>
<path d="M156.1 151.3h87.7V103.9H156.1v47.4Z" class="g0_150"/>
<path d="M243.8 151.3H374.6V103.9H243.8v47.4Z" class="g0_150"/>
<path d="M374.6 151.3H476.2V103.9H374.6v47.4Z" class="g0_150"/>
<path d="M476.2 151.3H616V103.9H476.2v47.4Z" class="g0_150"/>
<path d="M616 151.3H725.5V103.9H616v47.4Z" class="g0_150"/>
<path d="M243.6 348.5h.4v-245h-.4v245Z" class="g1_150"/>
<path d="M374.5 348.5h.3v-245h-.3v245Z" class="g1_150"/>
<path d="M476 348.5h.4v-245H476v245Z" class="g1_150"/>
<path d="M615.8 348.5h.4v-245h-.4v245Z" class="g1_150"/>
<path d="M156.1 104.3H725.5v-.8H156.1v.8Z" class="g1_150"/>
<path d="M156.1 151.4H725.5v-.3H156.1v.3Z" class="g1_150"/>
<path d="M156.1 348.5H725.5v-.3H156.1v.3Z" class="g1_150"/>
</svg>