<?xml version="1.0" encoding="UTF-8" standalone="no"?>
<!DOCTYPE svg PUBLIC "-//W3C//DTD SVG 1.1//EN"
"http://www.w3.org/Graphics/SVG/1.1/DTD/svg11.dtd">
<svg viewBox="0 0 907 1045" version="1.1" xmlns="http://www.w3.org/2000/svg" xmlns:xlink="http://www.w3.org/1999/xlink">
<defs>
<clipPath id="c0_337"><path d="M569.4,952V699.8H758.6V952Z"/></clipPath>
<clipPath id="c1_337"><path d="M-2.6,1047.7V-2.6H910.2V1047.7Z"/></clipPath>
<style type="text/css"><![CDATA[
.g0_337{
fill: #FFFFFF;
}
.g1_337{
fill: none;
stroke: #000000;
stroke-width: 1.527;
stroke-linecap: butt;
stroke-linejoin: miter;
stroke-miterlimit: 4;
}
.g2_337{
fill: none;
stroke: #000000;
stroke-width: 1.145;
stroke-linecap: butt;
stroke-linejoin: miter;
stroke-miterlimit: 4;
}
.g3_337{
fill: none;
stroke: #000000;
stroke-width: 0.763;
stroke-linecap: butt;
stroke-linejoin: miter;
stroke-miterlimit: 4;
}
.g4_337{
fill: none;
stroke: #FFFFFF;
stroke-width: 1.909;
stroke-linecap: butt;
stroke-linejoin: miter;
}
.g5_337{
fill: none;
stroke: #000000;
stroke-width: 0.381;
stroke-linecap: butt;
stroke-linejoin: miter;
}
]]></style>
</defs>
<image clip-path="url(#c0_337)" preserveAspectRatio="none" x="569" y="700" width="190" height="252" xlink:href="img/1.jpg"/>
<path d="M437.5,479.7c-4.6,1.6,-8.8,4.5,-13,6.1c-4.4,1.8,-7.1,1.4,-11.5,5.5c-3.5,3.2,-4.1,5.8,-8.6,7c-1.4,7.7,-.6,13.5,3.4,19.8c2.5,3.8,11.1,14.2,15.9,14.5c-5.8,10.2,-13,20,-7.3,32.4c2.3,5.1,9.6,17.1,15.1,20c5,2.6,12.9,0,18.4,.9c.7,4.7,-1,10,.5,14.5c2.4,7.3,10.1,15.6,15.2,21.1c11.3,12.4,40.5,34.1,56.3,19.9c6.2,14.1,21.2,26.7,36.4,32.3c10.1,3.8,31,6.4,41.3,2.5c6.4,-2.4,12.3,-12.3,18.9,-13.4c3,-.6,13.7,6,16.8,6.6c14.5,2.8,32.8,2.7,47.2,-.3c21,-4.4,31.5,-20.4,37.6,-38.6c4.8,9.6,30.7,1.8,37.6,-1.7c13.6,-6.8,27.6,-17.1,33,-31.6c3.8,-10.6,-7.6,-21.3,-4.6,-29.7c1.4,-3.9,5.7,-6.2,8,-9.7c12.3,-19,7.1,-37.5,-4,-55.2c-11.7,-18.7,-27,-31.1,-49.2,-37.5c-5.7,-1.6,-10.9,-2.6,-16.8,-2.3c-3.3,.2,.6,-3.6,-2.7,-4.3C738.1,437.8,674,425.1,663.6,423.4c-26.3,-4.4,-57,.3,-81.5,9c-11.8,4.2,-23.5,2.5,-34.7,6.7c2.1,-22.3,-40.9,-7.3,-52.4,-4c-13.6,4,-30.8,12.1,-39.1,23.5c-5.1,7,-13.4,15.3,-17.8,22.7Z" class="g0_337"/>
<path d="M437.5,479.7c-4.6,1.6,-8.8,4.5,-13,6.1c-4.4,1.8,-7.1,1.4,-11.5,5.5c-3.5,3.2,-4.1,5.8,-8.6,7c-1.4,7.7,-.6,13.5,3.4,19.8c2.5,3.8,11.1,14.2,15.9,14.5c-5.8,10.2,-13,20,-7.3,32.4c2.3,5.1,9.6,17.1,15.1,20c5,2.6,12.9,0,18.4,.9c.7,4.7,-1,10,.5,14.5c2.4,7.3,10.1,15.6,15.2,21.1c11.3,12.4,40.5,34.1,56.3,19.9c6.2,14.1,21.2,26.7,36.4,32.3c10.1,3.8,31,6.4,41.3,2.5c6.4,-2.4,12.3,-12.3,18.9,-13.4c3,-.6,13.7,6,16.8,6.6c14.5,2.8,32.8,2.7,47.2,-.3c21,-4.4,31.5,-20.4,37.6,-38.6c4.8,9.6,30.7,1.8,37.6,-1.7c13.6,-6.8,27.6,-17.1,33,-31.6c3.8,-10.6,-7.6,-21.3,-4.6,-29.7c1.4,-3.9,5.7,-6.2,8,-9.7c12.3,-19,7.1,-37.5,-4,-55.2c-11.7,-18.7,-27,-31.1,-49.2,-37.5c-5.7,-1.6,-10.9,-2.6,-16.8,-2.3c-3.3,.2,.6,-3.6,-2.7,-4.3C738.1,437.8,674,425.1,663.6,423.4c-26.3,-4.4,-57,.3,-81.5,9c-11.8,4.2,-23.5,2.5,-34.7,6.7c2.1,-22.3,-40.9,-7.3,-52.4,-4c-13.6,4,-30.8,12.1,-39.1,23.5c-5.1,7,-13.4,15.3,-17.8,22.7" class="g1_337"/>
<path d="M652.9,680.1c-.1,-.3,-.2,-.6,-.2,-.9c-6.2,-2,-4.1,13.8,3.2,8.5c7.4,-5.3,-3.6,-10.8,-5.3,-6.5Z" class="g0_337"/>
<path d="M652.9,680.1c-.1,-.3,-.2,-.6,-.2,-.9c-6.2,-2,-4.1,13.8,3.2,8.5c7.4,-5.3,-3.6,-10.8,-5.3,-6.5" class="g2_337"/>
<path d="M653.2,694.3c-3.3,.7,-2.8,4,-2.3,6.4c1.5,.7,3,1.1,4.5,1.1c.6,-2.7,.8,-7,-3.5,-6.4Z" class="g0_337"/>
<path d="M653.2,694.3c-3.3,.7,-2.8,4,-2.3,6.4c1.5,.7,3,1.1,4.5,1.1c.6,-2.7,.8,-7,-3.5,-6.4" class="g3_337"/>
<g clip-path="url(#c1_337)">
<path d="M-4.5,13.7H-27.4m939.5,0H935M-4.5,1031.2H-27.4m939.5,0H935M13.7,-4.5V-27.4m0,1077v22.9m880,-1077V-27.4m0,1077v22.9" class="g4_337"/>
<path d="M-4.5,13.7H-27.4m939.5,0H935M-4.5,1031.2H-27.4m939.5,0H935M13.7,-4.5V-27.4m0,1077v22.9m880,-1077V-27.4m0,1077v22.9" class="g5_337"/>
</g>
</svg>