<?xml version="1.0" encoding="UTF-8" standalone="no"?>
<!DOCTYPE svg PUBLIC "-//W3C//DTD SVG 1.1//EN"
"http://www.w3.org/Graphics/SVG/1.1/DTD/svg11.dtd">
<svg viewBox="0 0 931 1096" version="1.1" xmlns="http://www.w3.org/2000/svg" xmlns:xlink="http://www.w3.org/1999/xlink">
<defs>
<clipPath id="c0_254"><path d="M375,531.1V487.3H670.2v43.8Z"/></clipPath>
<clipPath id="c1_254"><path d="M127.7,713.5c5.2,-4.7,-2.2,-21.9,-21.2,-31.1c-7.7,-3.8,-14,-5.3,-18.8,-5.3c-6.9,0,-10.7,3.2,-11.4,7.4c.3,-1.8,1.1,-3.8,2.6,-5.1l69.3,-43.2c1.8,-.8,4.1,-1.3,6.8,-1.3c4.7,0,10.8,1.5,18.3,5.1c18.9,9.3,26,27,20.8,31.7l-66.4,41.8Z"/></clipPath>
<clipPath id="c2_254"><path d="M226.7,927.3c-5.2,-.6,-10.3,-1.2,-15.5,-1.8c-12.6,-1.4,-22.2,-2.6,-34.8,-4.1c-5,-.5,-13,-1.3,-18,-1.9c-5.2,-1,-9.1,-7.9,-10.5,-12.7c-1.1,-3.8,-.6,-8.2,-.1,-14c.4,-4.3,1.1,-8.5,2.3,-12.7c1.1,-4,2.4,-7.4,4.1,-10.3c2.3,-4.3,5.2,-7.5,6.5,-7.5c.1,0,.3,.1,.3,.1c2.9,.3,16.5,1.7,19.4,2.1c16.6,1.9,22.5,2.7,39.1,4.6c6.8,.8,13.6,1.6,20.4,2.4c-.1,0,-.2,0,-.3,0c-5,0,-7.5,4.7,-8.7,8.9c-1.4,4.9,-2,10,-3.2,14.9c-.3,1.2,-.7,2.3,-1.2,3.3c-1.2,3.1,-5.6,10.4,-7.4,16.7c0,.3,-.1,.7,-.2,1.1c-1.2,5.3,0,9.6,7.8,10.9Z"/></clipPath>
<clipPath id="c3_254"><path d="M229.7,927.5c-.8,0,-1.9,-.1,-3,-.3c-2.5,-.6,-4.3,-1.3,-5.6,-2.3c-2.2,-1.9,-2.8,-4.5,-2.4,-7.5c.7,-5.2,6,-14.9,8.2,-19.9c1.1,-2.5,2.1,-7.9,2.9,-12.6c.7,-4.1,1,-5,2.4,-8.2c.8,-2,1.9,-3.2,3.5,-4.2c1.3,-.8,2.8,-1.2,4.2,-1.2c2.4,0,4.7,1,6.2,2.9c1.1,1.5,2,3.4,2.6,5.6c.8,2.8,1.2,5.9,1.3,9.3c.1,3.9,-.3,8,-1,11.9c-.4,2.2,-1,4.3,-1.6,6.3c-2.7,6.1,-6.3,18.1,-16.5,20.1c-.3,0,-.7,.1,-1.2,.1Z"/></clipPath>
<style type="text/css"><![CDATA[
.g0_254{
fill: none;
stroke: #00AEEF;
stroke-width: 1.145;
}
.g1_254{
fill: none;
stroke: #241F1F;
stroke-width: 0.763;
stroke-miterlimit: 10;
}
.g2_254{
fill: none;
stroke: #241F1F;
stroke-width: 0.534;
stroke-miterlimit: 10;
}
.g3_254{
fill: #B0D5E7;
}
.g4_254{
fill: none;
stroke: #00AEEF;
stroke-width: 0.763;
stroke-miterlimit: 3;
}
.g5_254{
fill: #00AEEF;
}
.g6_254{
fill: none;
stroke: #241F1F;
stroke-width: 0.381;
stroke-miterlimit: 3;
}
.g7_254{
fill: none;
stroke: #241F1F;
stroke-width: 0.381;
stroke-miterlimit: 3;
stroke-dasharray: 4,3;
}
.g8_254{
fill: #241F1F;
}
.g9_254{
fill: none;
stroke: #969698;
stroke-width: 0.763;
stroke-miterlimit: 3;
stroke-dasharray: 10,4;
}
.ga_254{
fill: none;
stroke: #241F1F;
stroke-width: 0.611;
stroke-miterlimit: 3;
}
.gb_254{
fill: none;
stroke: #00BFF3;
stroke-width: 0.611;
stroke-linejoin: round;
}
.gc_254{
fill: #8ACCE8;
}
.gd_254{
fill: none;
stroke: #241F1F;
stroke-width: 0.763;
stroke-miterlimit: 3;
stroke-dasharray: 9,4;
}
.ge_254{
fill: none;
stroke: #00C3F4;
stroke-width: 0.611;
stroke-miterlimit: 3;
stroke-dasharray: 10,4;
}
.gf_254{
fill: #FFDEB8;
}
.gg_254{
fill: none;
stroke: #F9951B;
stroke-width: 0.916;
stroke-linejoin: round;
}
.gh_254{
fill: none;
stroke: #00AEEF;
stroke-width: 0.763;
stroke-linejoin: round;
}
]]></style>
</defs>
<path d="M307.7,289.3c0,0,-1.6,0,-1.6,1.5V305c0,0,0,1.5,1.6,1.5h14.1c0,0,1.5,0,1.5,-1.5V290.8c0,0,0,-1.5,-1.5,-1.5H307.7Z" class="g0_254"/>
<path d="M633.8,383.8h15.9" class="g1_254"/>
<path d="M400.2,446.4h5.4m188.9,0h5.3" class="g2_254"/>
<path d="M646.4,446.5h85.7" class="g1_254"/>
<path d="M401,510.5h5.3" class="g2_254"/>
<path d="M518,510.6h12.2m27.1,0h57.1" class="g1_254"/>
<path clip-path="url(#c0_254)" d="M650.7,510.6h19.9" class="g1_254"/>
<path d="M307.7,688.8c0,0,-1.6,0,-1.6,1.5v14.2c0,0,0,1.5,1.6,1.5h15.6c0,0,1.6,0,1.6,-1.5V690.3c0,0,0,-1.5,-1.6,-1.5H307.7Zm0,183.3c0,0,-1.6,0,-1.6,1.6v14.1c0,0,0,1.5,1.6,1.5h15.6c0,0,1.6,0,1.6,-1.5V873.7c0,0,0,-1.6,-1.6,-1.6H307.7Z" class="g0_254"/>
<path d="M464.8,992.4h50" class="g1_254"/>
<path d="M200,207L129.4,129.3L91.1,230.5Z" class="g3_254"/>
<path d="M200,207L129.4,129.3L91.1,230.5L200,207Z" class="g4_254"/>
<path d="M198.3,206.7c0,-1,.8,-1.7,1.8,-1.7c.9,0,1.7,.7,1.7,1.7c0,.9,-.8,1.7,-1.7,1.7c-1,0,-1.8,-.8,-1.8,-1.7Z" class="g5_254"/>
<path d="M198.3,206.7c0,-1,.8,-1.7,1.8,-1.7c.9,0,1.7,.7,1.7,1.7c0,.9,-.8,1.7,-1.7,1.7c-1,0,-1.8,-.8,-1.8,-1.7Z" class="g4_254"/>
<path d="M89.4,230.5c0,-1,.8,-1.7,1.7,-1.7c1,0,1.7,.7,1.7,1.7c0,1,-.7,1.7,-1.7,1.7c-.9,0,-1.7,-.7,-1.7,-1.7Z" class="g5_254"/>
<path d="M89.4,230.5c0,-1,.8,-1.7,1.7,-1.7c1,0,1.7,.7,1.7,1.7c0,1,-.7,1.7,-1.7,1.7c-.9,0,-1.7,-.7,-1.7,-1.7Z" class="g4_254"/>
<path d="M127.8,129.8c0,-.9,.8,-1.6,1.7,-1.5c1,.1,1.7,.9,1.7,1.9c0,.9,-.7,1.6,-1.7,1.5c-.9,-.1,-1.7,-.9,-1.7,-1.9Z" class="g5_254"/>
<path d="M127.8,129.8c0,-.9,.8,-1.6,1.7,-1.5c1,.1,1.7,.9,1.7,1.9c0,.9,-.7,1.6,-1.7,1.5c-.9,-.1,-1.7,-.9,-1.7,-1.9Z" class="g4_254"/>
<path d="M161.6,235.2c-11.4,-1.1,-18.3,-5.8,-21.1,-15.1" class="g6_254"/>
<path d="M140.2,219c-.6,-2.1,-1.3,-5.2,-1.4,-7.8" class="g7_254"/>
<path d="M138.5,207.9l2,4.3l-1.7,-1l-1.6,1.2Z" class="g8_254"/>
<path d="M129.4,199.6L91.1,230.5m38.3,-30.9L200,207" class="g9_254"/>
<path d="M165.5,150.1l-17.7,13.8" class="g6_254"/>
<path d="M145.2,166l2.4,-4l.2,1.9l1.9,.7Z" class="g8_254"/>
<path d="M129.4,199.6V129.3" class="g9_254"/>
<path d="M200,207l30.6,3.2" class="ga_254"/>
<path fill-rule="evenodd" d="M230.6,210.2l-1.3,-2.6l6.2,3.1l-6.7,1.8Z" class="g8_254"/>
<path d="M129.4,129.3V104.5" class="ga_254"/>
<path fill-rule="evenodd" d="M129.4,104.5l-2.4,1.6l2.4,-6.5l2.5,6.5Z" class="g8_254"/>
<path d="M91.1,230.5L77,242" class="ga_254"/>
<path fill-rule="evenodd" d="M77,242l2.8,.9l-6.6,2.2l3.5,-6Z" class="g8_254"/>
<image clip-path="url(#c1_254)" x="76" y="634" width="124" height="80" xlink:href="shade/1.png"/>
<path d="M127.7,713.5l66.4,-41.8C199.3,667,192.2,649.3,173.3,640c-11.7,-5.7,-20,-6,-25.1,-3.8L78.9,679.4c-1.5,1.3,-2.3,3.3,-2.6,5.1c1.1,-7.1,11.3,-11.4,30.2,-2.1c19,9.2,26.4,26.4,21.2,31.1Z" class="gb_254"/>
<path d="M106.5,682.4c-18.9,-9.3,-29.1,-5,-30.2,2.1c-1.1,6.8,4.3,16.6,19.2,23.3c15,6.6,26.9,10.4,32.1,5.7c5.3,-4.7,-2.1,-21.9,-21.1,-31.1Z" class="gc_254"/>
<path d="M106.5,682.4c-18.9,-9.3,-29.1,-5,-30.2,2.1c-1.1,6.8,4.3,16.6,19.2,23.3c15,6.6,26.9,10.4,32.1,5.7c5.3,-4.7,-2.1,-21.9,-21.1,-31.1Z" class="gb_254"/>
<path d="M248.5,637.5l-54,33.8m8.4,-69.5l-54,33.8" class="gd_254"/>
<path d="M148.2,636.2c-3.2,1.4,-5,3.8,-5.5,6.5c-1.8,9.7,13.9,7.6,21.3,20.9c7.8,14.2,24.8,12.8,30.1,8.1" class="ge_254"/>
<path d="M151,623.9l100.5,38.7" class="ga_254"/>
<path fill-rule="evenodd" d="M251.5,662.6l-.7,-2.9l5.2,4.7l-6.9,-.1Z" class="g8_254"/>
<path d="M151,623.9V563.4" class="ga_254"/>
<path fill-rule="evenodd" d="M151,563.4l-2.4,1.6l2.4,-6.5l2.5,6.5Z" class="g8_254"/>
<path d="M151,623.9L66.2,676" class="ga_254"/>
<path fill-rule="evenodd" d="M66.2,676l2.7,1.2L62,678.5L66.3,673Z" class="g8_254"/>
<path d="M231.4,603.8c-18.9,-9.3,-29.2,-4.3,-30.5,2.7c-1.8,9.7,13.9,7.6,21.3,20.8c7.8,14.3,24.8,12.9,30.1,8.2c5.2,-4.7,-1.9,-22.4,-20.9,-31.7Z" class="gf_254"/>
<path d="M231.4,603.8c-18.9,-9.3,-29.2,-4.3,-30.5,2.7c-1.8,9.7,13.9,7.6,21.3,20.8c7.8,14.3,24.8,12.9,30.1,8.2c5.2,-4.7,-1.9,-22.4,-20.9,-31.7Z" class="gg_254"/>
<path d="M120.8,728.6c-12,-3.9,-16.2,-13.9,-11.9,-23.7" class="g6_254"/>
<path d="M110.3,701.9l-.3,4.6l-1.1,-1.6l-1.9,.3Z" class="g8_254"/>
<path d="M184,660.8c3.4,-.9,7.7,-1.2,10,-.7" class="g7_254"/>
<path d="M180.8,661.6l3.8,-2.7l-.6,1.9l1.4,1.4Z" class="g8_254"/>
<path d="M198.7,684.7c5.4,-6,6.2,-22,-4.7,-24.6" class="g6_254"/>
<path d="M81,434.5V339.6l94.9,94.9Z" class="gf_254"/>
<path d="M81,434.5V339.6l94.9,94.9H81Z" class="gg_254"/>
<path d="M122.3,434.5l-.1,-25.2" class="gh_254"/>
<path d="M122.2,405.1l2.1,5.5l-2.1,-1.3l-2.1,1.3Z" class="g5_254"/>
<path d="M122.2,409.3V381.6" class="gh_254"/>
<path d="M53.5,434.5H203.4" class="ga_254"/>
<path fill-rule="evenodd" d="M203.4,434.5l-1.7,-2.4l6.6,2.4l-6.6,2.5Z" class="g8_254"/>
<path d="M81,462V312.1" class="ga_254"/>
<path fill-rule="evenodd" d="M81,312.1l-2.5,1.7L81,307.3l2.4,6.5Z" class="g8_254"/>
<path d="M175.9,431.5v6.1m-98,-98H84" class="ga_254"/>
<image clip-path="url(#c2_254)" x="146" y="862" width="94" height="66" xlink:href="shade/2.png"/>
<image clip-path="url(#c3_254)" x="218" y="871" width="33" height="57" xlink:href="shade/3.png"/>
<path d="M239.9,871.4l-78.8,-9.1c-2.8,-1,-11.1,12.1,-12.9,27.7c-1.5,12.7,-1,27.2,10.5,29.4l68,7.8c-17.1,-3,-2.1,-22.7,.1,-28.7c4,-9.9,2.3,-27.1,13.1,-27.1Z" class="gb_254"/>
<path d="M158.7,919.4c5.7,1.1,11.5,-9.7,13,-19.6c2.4,-14.8,-4.6,-34.7,-10.3,-37.5" class="ge_254"/>
<path d="M86.8,854.1C83.1,852.4,74,865.7,72.2,881.3c-1.4,12.7,-2.2,27,9.4,29.1c5.6,1.1,12.2,-9.7,13.7,-19.6C97.7,876,92.5,856.9,86.8,854.1Z" class="gf_254"/>
<path d="M86.8,854.1C83.1,852.4,74,865.7,72.2,881.3c-1.4,12.7,-2.2,27,9.4,29.1c5.6,1.1,12.2,-9.7,13.7,-19.6C97.7,876,92.5,856.9,86.8,854.1Z" class="gg_254"/>
<path d="M241.4,871.4c-12.9,-1.4,-10.6,17.2,-14.6,27.1c-2.2,6,-17.2,25.7,-.1,28.7c12.4,2.1,17.1,-11.7,20.7,-19.9c4.5,-13.6,3.5,-34.8,-6,-35.9Z" class="gb_254"/>
<path d="M112.5,931.7l-47,38.1" class="ga_254"/>
<path fill-rule="evenodd" d="M65.5,969.8l2.8,.9l-6.6,2.2l3.5,-6Z" class="g8_254"/>
<path d="M112.5,931.7l143.8,15.1" class="ga_254"/>
<path fill-rule="evenodd" d="M256.3,946.8l-1.4,-2.6l6.2,3.1l-6.7,1.8Z" class="g8_254"/>
<path d="M112.5,931.7V816.2" class="ga_254"/>
<path fill-rule="evenodd" d="M112.5,816.2l-2.5,1.7l2.5,-6.6l2.4,6.6Z" class="g8_254"/>
<path d="M157.7,919.3L81.6,910.4m79.8,-48.1L86.8,854.1" class="gd_254"/>
<path d="M236.7,852.3c12.1,7.6,12.5,25.8,5,29.2" class="g6_254"/>
<path d="M238.7,882.9l3.3,-3.3l-.3,1.9l1.7,1.1Z" class="g8_254"/>
<path d="M157,897.1c-2.3,.3,-7,1.2,-8.9,2" class="g7_254"/>
<path d="M160.3,896.8l-4.1,2.1l.8,-1.8l-1.2,-1.5Z" class="g8_254"/>
<path d="M142.2,948.3c-12.2,-11.8,-12.1,-41.2,5,-48.7" class="g6_254"/>
</svg>