<?xml version="1.0" encoding="UTF-8" standalone="no"?>
<!DOCTYPE svg PUBLIC "-//W3C//DTD SVG 1.1//EN"
"http://www.w3.org/Graphics/SVG/1.1/DTD/svg11.dtd">
<svg viewBox="0 0 811 1017" version="1.1" xmlns="http://www.w3.org/2000/svg" xmlns:xlink="http://www.w3.org/1999/xlink">
<defs>
<style type="text/css"><![CDATA[
.g0_448{
fill: #70A6CC;
}
.g1_448{
}
]]></style>
</defs>
<path d="M142.4,182.2H710.7V160.4H142.4Z" class="g0_448"/>
<path d="M142.4,562.6H710.7V541.3H142.4Z" class="g0_448"/>
<path d="M495.7,246.9v3.2l-.2,-.1l-6.3,-3l-.3,-.1l.3,-.2l6.3,-3h.2v.2l-.1,.2l-6.2,2.9l-.2,-.3h.2l6.2,2.9l-.1,.4l-.1,-.2v-2.9Z" class="g1_448"/>
<path d="M495.4,246.9h.3v-3h-.3Z" class="g1_448"/>
<path d="M495.7,247h18.7v-.3H495.7Z" class="g1_448"/>
<path d="M514.1,246.9h.3V208.5h-.3Z" class="g1_448"/>
<path d="M404.7,308.5v3.2l-.3,-.1l-6.2,-3l-.4,-.1l.4,-.2l6.2,-3l.3,-.1v.3l-.1,.2l-6.2,2.9l-.2,-.3h.2l6.2,2.9l-.2,.4l-.1,-.2v-2.9Z" class="g1_448"/>
<path d="M404.3,308.5h.4v-3h-.4Z" class="g1_448"/>
<path d="M424,334.8h.3V308.3H424Z" class="g1_448"/>
<path d="M404.7,308.6h19.4v-.3H404.7Z" class="g1_448"/>
</svg>