<?xml version="1.0" encoding="UTF-8" standalone="no"?>
<!DOCTYPE svg PUBLIC "-//W3C//DTD SVG 1.1//EN"
"http://www.w3.org/Graphics/SVG/1.1/DTD/svg11.dtd">
<svg viewBox="0 0 811 1017" version="1.1" xmlns="http://www.w3.org/2000/svg" xmlns:xlink="http://www.w3.org/1999/xlink">
<defs>
<style type="text/css"><![CDATA[
.g0_167{
fill: #E6E6E6;
}
.g1_167{
fill: #476B85;
}
.g2_167{
fill: #F7F5E8;
}
]]></style>
</defs>
<path d="M752.4,99.4c-41.6,6.1,-79.8,24.4,-110.7,52.9c-30.3,27.9,-57.4,70.8,-57.4,113.2c0,37.1,22.3,70.7,62.1,70.7c46.5,0,85.7,-46.3,85.7,-91.4c0,-28.8,-16.2,-50.5,-46.4,-50.5c-18.3,0,-31.7,8.6,-42.7,22.7c-2.4,3.1,-7.2,9.6,-7.2,14.1c0,2,1,3.7,3.4,3.7c5.9,0,15.2,-26.8,37.2,-26.8c19.3,0,24.8,16.9,24.8,32.7c0,31.3,-21,88,-58.5,88c-22.4,0,-31,-19.6,-31,-38.8c0,-40.7,19,-91.8,43.7,-123.8c26.8,-34.7,57.8,-48.2,98.7,-60.6Z" class="g0_167"/>
<path d="M256.9,281.3H706.1V281H256.9Z" class="g1_167"/>
<path d="M101.1,529.9H487V398.6H101.1Z" class="g2_167"/>
</svg>