<?xml version="1.0" encoding="UTF-8" standalone="no"?>
<!DOCTYPE svg PUBLIC "-//W3C//DTD SVG 1.1//EN"
"http://www.w3.org/Graphics/SVG/1.1/DTD/svg11.dtd">
<svg viewBox="0 0 931 1096" version="1.1" xmlns="http://www.w3.org/2000/svg" xmlns:xlink="http://www.w3.org/1999/xlink">
<defs>
<style type="text/css"><![CDATA[
.g0_406{
fill: #CFEDFC;
}
.g1_406{
fill: none;
stroke: #00AEEF;
stroke-width: 0.763;
stroke-linejoin: round;
}
.g2_406{
fill: #00AEEF;
}
.g3_406{
fill: none;
stroke: #00AEEF;
stroke-width: 0.763;
stroke-miterlimit: 3;
}
.g4_406{
fill: none;
stroke: #241F1F;
stroke-width: 0.611;
stroke-miterlimit: 3;
}
.g5_406{
fill: #241F1F;
}
.g6_406{
fill: none;
stroke: #241F1F;
stroke-width: 0.763;
stroke-linejoin: round;
}
]]></style>
</defs>
<path d="M72.4,681.5H96.9V612.7H72.4v68.8Z" class="g0_406"/>
<path d="M96.9,681.5h24.4V596.2H96.9v85.3Z" class="g0_406"/>
<path d="M121.3,681.5h24.4V585.2H121.3v96.3Z" class="g0_406"/>
<path d="M145.7,681.5h24.5V563.2H145.7V681.5Z" class="g0_406"/>
<path d="M170.2,681.5h24.4V552.2H170.2V681.5Z" class="g0_406"/>
<path d="M194.6,681.5h24.5V555H194.6V681.5Z" class="g0_406"/>
<path d="M72.4,612.7c9.5,-6.4,14.4,-10.9,24.5,-16.5c9.1,-5,15.6,-5.4,24.4,-11c10.9,-6.8,13.6,-15.1,24.4,-22c8.9,-5.5,14.2,-9.5,24.5,-11c9.5,-1.3,15.2,.2,24.4,2.8c10.2,2.8,15,7,24.5,11.4" class="g1_406"/>
<path d="M70.9,612.7c0,-.8,.7,-1.5,1.5,-1.5c.9,0,1.5,.7,1.5,1.5c0,.9,-.6,1.6,-1.5,1.6c-.8,0,-1.5,-.7,-1.5,-1.6Z" class="g2_406"/>
<path d="M70.9,612.7c0,-.8,.7,-1.5,1.5,-1.5c.9,0,1.5,.7,1.5,1.5c0,.9,-.6,1.6,-1.5,1.6c-.8,0,-1.5,-.7,-1.5,-1.6Z" class="g3_406"/>
<path d="M95.3,596.2c0,-.8,.7,-1.5,1.6,-1.5c.8,0,1.5,.7,1.5,1.5c0,.9,-.7,1.6,-1.5,1.6c-.9,0,-1.6,-.7,-1.6,-1.6Z" class="g2_406"/>
<path d="M95.3,596.2c0,-.8,.7,-1.5,1.6,-1.5c.8,0,1.5,.7,1.5,1.5c0,.9,-.7,1.6,-1.5,1.6c-.9,0,-1.6,-.7,-1.6,-1.6Z" class="g3_406"/>
<path d="M119.8,585.2c0,-.8,.7,-1.5,1.5,-1.5c.8,0,1.5,.7,1.5,1.5c0,.9,-.7,1.6,-1.5,1.6c-.8,0,-1.5,-.7,-1.5,-1.6Z" class="g2_406"/>
<path d="M119.8,585.2c0,-.8,.7,-1.5,1.5,-1.5c.8,0,1.5,.7,1.5,1.5c0,.9,-.7,1.6,-1.5,1.6c-.8,0,-1.5,-.7,-1.5,-1.6Z" class="g3_406"/>
<path d="M144.2,563.2c0,-.8,.7,-1.5,1.5,-1.5c.9,0,1.6,.7,1.6,1.5c0,.9,-.7,1.6,-1.6,1.6c-.8,0,-1.5,-.7,-1.5,-1.6Z" class="g2_406"/>
<path d="M144.2,563.2c0,-.8,.7,-1.5,1.5,-1.5c.9,0,1.6,.7,1.6,1.5c0,.9,-.7,1.6,-1.6,1.6c-.8,0,-1.5,-.7,-1.5,-1.6Z" class="g3_406"/>
<path d="M168.7,552.2c0,-.8,.6,-1.5,1.5,-1.5c.8,0,1.5,.7,1.5,1.5c0,.9,-.7,1.6,-1.5,1.6c-.9,0,-1.5,-.7,-1.5,-1.6Z" class="g2_406"/>
<path d="M168.7,552.2c0,-.8,.6,-1.5,1.5,-1.5c.8,0,1.5,.7,1.5,1.5c0,.9,-.7,1.6,-1.5,1.6c-.9,0,-1.5,-.7,-1.5,-1.6Z" class="g3_406"/>
<path d="M193.1,555c0,-.9,.7,-1.5,1.5,-1.5c.9,0,1.6,.6,1.6,1.5c0,.8,-.7,1.5,-1.6,1.5c-.8,0,-1.5,-.7,-1.5,-1.5Z" class="g2_406"/>
<path d="M193.1,555c0,-.9,.7,-1.5,1.5,-1.5c.9,0,1.6,.6,1.6,1.5c0,.8,-.7,1.5,-1.6,1.5c-.8,0,-1.5,-.7,-1.5,-1.5Z" class="g3_406"/>
<path d="M217.6,566.4c0,-.8,.6,-1.5,1.5,-1.5c.8,0,1.5,.7,1.5,1.5c0,.9,-.7,1.6,-1.5,1.6c-.9,0,-1.5,-.7,-1.5,-1.6Z" class="g2_406"/>
<path d="M217.6,566.4c0,-.8,.6,-1.5,1.5,-1.5c.8,0,1.5,.7,1.5,1.5c0,.9,-.7,1.6,-1.5,1.6c-.9,0,-1.5,-.7,-1.5,-1.6Z" class="g3_406"/>
<path d="M69.4,654h6.1M69.4,626.5h6.1m94.7,51.9v6.1m-48.9,-6.1v6.1M69.4,599h6.1M69.4,571.5h6.1M194.6,678.4v6.1m-48.9,-6.1v6.1M96.9,678.4v6.1m122.2,-6.1v6.1M72.4,699.8V544" class="g4_406"/>
<path fill-rule="evenodd" d="M72.4,544L70,545.6l2.4,-6.5l2.5,6.5Z" class="g5_406"/>
<path d="M54.1,681.5H243.5" class="g4_406"/>
<path fill-rule="evenodd" d="M243.5,681.5L241.9,679l6.5,2.5l-6.5,2.4Z" class="g5_406"/>
<path d="M72.4,612.7H96.9v68.8H72.4ZM96.9,596.2h24.4v85.3H96.9Zm24.4,-11h24.4v96.3H121.3Zm24.4,-22h24.5V681.5H145.7Zm24.5,-11h24.4V681.5H170.2Zm24.4,2.8h24.5V681.5H194.6Z" class="g6_406"/>
</svg>