<?xml version="1.0" encoding="UTF-8" standalone="no"?>
<!DOCTYPE svg PUBLIC "-//W3C//DTD SVG 1.1//EN"
"http://www.w3.org/Graphics/SVG/1.1/DTD/svg11.dtd">
<svg viewBox="0 0 811 1017" version="1.1" xmlns="http://www.w3.org/2000/svg" xmlns:xlink="http://www.w3.org/1999/xlink">
<defs>
<style type="text/css"><![CDATA[
.g0_537{
fill: #FFFFFF;
}
.g1_537{
fill: none;
stroke: #231F20;
stroke-width: 0.763;
stroke-linecap: butt;
stroke-linejoin: miter;
stroke-miterlimit: 4;
}
.g2_537{
fill: #231F20;
}
.g3_537{
fill: none;
stroke: #231F20;
stroke-width: 0.763;
stroke-linecap: butt;
stroke-linejoin: miter;
stroke-miterlimit: 4;
stroke-dasharray: 5,2;
}
.g4_537{
fill: none;
stroke: #231F20;
stroke-width: 0.458;
stroke-linecap: butt;
stroke-linejoin: miter;
stroke-miterlimit: 4;
}
]]></style>
</defs>
<path d="M158.4,740.1H533.3V306.3H158.4Z" class="g0_537"/>
<path d="M162.1,447.6H303.6v47.6H162.1Zm2.7,193.9H305.2v47.4H164.8ZM162.3,537.3H303.2v47.5H162.3Zm205.2,57H514.4v47.6H367.5Zm3.1,100H514.8v45.4H370.6ZM201,494.9v34.8" class="g1_537"/>
<path d="M198.8,528.2l2.3,8.3l2.2,-8.3h-4.5Z" class="g2_537"/>
<path d="M198.8,584.8l.2,49.3" class="g1_537"/>
<path d="M196.8,632.6l2.2,8.3l2.2,-8.3h-4.4Z" class="g2_537"/>
<path d="M362.8,446.2H529.5v44.1H362.8Zm-59.6,21.2l51.7,.4" class="g1_537"/>
<path d="M353.4,470l8.3,-2.1l-8.3,-2.3V470Z" class="g2_537"/>
<path d="M305.9,664.2L361,620.6" class="g3_537"/>
<path d="M361.2,623.3l5.1,-6.9l-7.9,3.4l2.8,3.5Z" class="g2_537"/>
<path d="M305.9,664.3l58.2,49.1" class="g3_537"/>
<path d="M361.6,714.2l7.7,3.6l-4.9,-7l-2.8,3.4Z" class="g2_537"/>
<path d="M270.1,640.9l.4,-48.8" class="g1_537"/>
<path d="M272.7,593.6l-2.1,-8.3l-2.3,8.3h4.4Z" class="g2_537"/>
<path d="M269.2,536.5l.4,-33.4" class="g1_537"/>
<path d="M271.8,504.6l-2.1,-8.3l-2.3,8.2l4.4,.1Z" class="g2_537"/>
<path d="M158.8,358.1H303v45.5H158.8Zm41.9,45.2v35.4" class="g1_537"/>
<path d="M198.5,437.2l2.2,8.3l2.2,-8.3h-4.4Z" class="g2_537"/>
<path d="M269.4,446.7l-.1,-36.6" class="g1_537"/>
<path d="M271.6,411.6l-2.3,-8.3l-2.2,8.3h4.5Z" class="g2_537"/>
<path d="M437.4,355.5c-2.6,21.6,-66.9,25.1,-125.4,25.2" class="g4_537"/>
<path d="M312.8,377.8l-4.9,2.9l5,2.8l-.1,-5.7Z" class="g2_537"/>
</svg>