<?xml version="1.0" encoding="UTF-8" standalone="no"?>
<!DOCTYPE svg PUBLIC "-//W3C//DTD SVG 1.1//EN"
"http://www.w3.org/Graphics/SVG/1.1/DTD/svg11.dtd">
<svg viewBox="0 0 660 990" version="1.1" xmlns="http://www.w3.org/2000/svg" xmlns:xlink="http://www.w3.org/1999/xlink">
<defs>
<clipPath id="c0_212"><path d="M86.9,437.9l-1.2,-2.4l-1.2,-2.4H576.2l-1.1,2.4l-1.2,2.4Z"/></clipPath>
<clipPath id="c1_212"><path d="M577.3,543.7L575,542.6l-2.4,-1.2V436.6l2.4,-1.2l2.3,-1.2V543.7Z"/></clipPath>
<clipPath id="c2_212"><path d="M84.5,544.8l1.2,-2.3l1.2,-2.4h487l1.2,2.4l1.1,2.3Z"/></clipPath>
<clipPath id="c3_212"><path d="M83.5,543.7V434.2l2.3,1.2l2.4,1.2V541.4l-2.4,1.2l-2.3,1.1Z"/></clipPath>
<clipPath id="c4_212"><path d="M85.6,915.9v-5.1H574.4v5.1Z"/></clipPath>
<style type="text/css"><![CDATA[
.g0_212{
fill: none;
stroke: #231F20;
stroke-width: 0.381;
stroke-linecap: round;
stroke-linejoin: miter;
}
.g1_212{
fill: none;
stroke: #231F20;
stroke-width: 0.763;
stroke-linecap: round;
stroke-linejoin: miter;
}
]]></style>
</defs>
<path clip-path="url(#c0_212)" d="M85.6,435.5H575.1" class="g0_212"/>
<path clip-path="url(#c1_212)" d="M575,435.3V542.7" class="g0_212"/>
<path clip-path="url(#c2_212)" d="M575.1,542.5H85.6" class="g0_212"/>
<path clip-path="url(#c3_212)" d="M85.8,542.7V435.3" class="g0_212"/>
<path clip-path="url(#c4_212)" d="M85.6,913.4H574.4" class="g1_212"/>
<image preserveAspectRatio="none" x="285" y="443" width="90" height="91" xlink:href="img/1.jpg"/>
</svg>