<?xml version="1.0" encoding="UTF-8" standalone="no"?>
<!DOCTYPE svg PUBLIC "-//W3C//DTD SVG 1.1//EN"
"http://www.w3.org/Graphics/SVG/1.1/DTD/svg11.dtd">
<svg viewBox="0 0 770 1017" version="1.1" xmlns="http://www.w3.org/2000/svg" xmlns:xlink="http://www.w3.org/1999/xlink">
<defs>
<style type="text/css"><![CDATA[
.g0_578{
fill: none;
stroke: #000000;
stroke-width: 0.618;
stroke-linecap: butt;
stroke-linejoin: miter;
}
.g1_578{
stroke: #000000;
stroke-width: 2.548;
stroke-linecap: butt;
stroke-linejoin: miter;
}
.g2_578{
fill: none;
stroke: #000000;
stroke-width: 2.548;
stroke-linecap: butt;
stroke-linejoin: miter;
}
]]></style>
</defs>
<path d="M56,69.2H695.2" class="g0_578"/>
<path d="M207.2,111.1c0,1.4,-1.1,2.5,-2.6,2.5c-1.4,0,-2.5,-1.1,-2.5,-2.5c0,-1.4,1.1,-2.6,2.5,-2.6c1.5,0,2.6,1.2,2.6,2.6" class="g1_578"/>
<path d="M188.1,111.1c0,1.4,-1.2,2.5,-2.6,2.5c-1.4,0,-2.5,-1.1,-2.5,-2.5c0,-1.4,1.1,-2.6,2.5,-2.6c1.4,0,2.6,1.2,2.6,2.6" class="g1_578"/>
<path d="M175.3,123.8c0,1.4,-1.1,2.6,-2.5,2.6c-1.4,0,-2.6,-1.2,-2.6,-2.6c0,-1.4,1.2,-2.5,2.6,-2.5c1.4,0,2.5,1.1,2.5,2.5" class="g1_578"/>
<path d="M165.2,136.6c0,1.4,-1.2,2.5,-2.6,2.5c-1.4,0,-2.5,-1.1,-2.5,-2.5c0,-1.4,1.1,-2.6,2.5,-2.6c1.4,0,2.6,1.2,2.6,2.6" class="g1_578"/>
<path d="M175.3,155.7c0,1.4,-1.1,2.5,-2.5,2.5c-1.4,0,-2.6,-1.1,-2.6,-2.5c0,-1.4,1.2,-2.6,2.6,-2.6c1.4,0,2.5,1.2,2.5,2.6" class="g1_578"/>
<path d="M188.1,139.1c0,1.4,-1.2,2.5,-2.6,2.5c-1.4,0,-2.5,-1.1,-2.5,-2.5c0,-1.4,1.1,-2.6,2.5,-2.6c1.4,0,2.6,1.2,2.6,2.6" class="g1_578"/>
<path d="M207.2,123.8c0,1.4,-1.1,2.6,-2.6,2.6c-1.4,0,-2.5,-1.2,-2.5,-2.6c0,-1.4,1.1,-2.5,2.5,-2.5c1.5,0,2.6,1.1,2.6,2.5" class="g1_578"/>
<path d="M226.3,111.1c0,1.4,-1.1,2.5,-2.5,2.5c-1.4,0,-2.6,-1.1,-2.6,-2.5c0,-1.4,1.2,-2.6,2.6,-2.6c1.4,0,2.5,1.2,2.5,2.6" class="g1_578"/>
<path d="M223.8,127.6c0,1.4,-1.2,2.6,-2.6,2.6c-1.4,0,-2.5,-1.2,-2.5,-2.6c0,-1.4,1.1,-2.5,2.5,-2.5c1.4,0,2.6,1.1,2.6,2.5" class="g1_578"/>
<path d="M245.4,130.2c0,1.4,-1.1,2.5,-2.5,2.5c-1.4,0,-2.6,-1.1,-2.6,-2.5c0,-1.4,1.2,-2.6,2.6,-2.6c1.4,0,2.5,1.2,2.5,2.6" class="g1_578"/>
<path d="M251.8,117.4c0,1.5,-1.2,2.6,-2.6,2.6c-1.4,0,-2.5,-1.1,-2.5,-2.6c0,-1.4,1.1,-2.5,2.5,-2.5c1.4,0,2.6,1.1,2.6,2.5" class="g1_578"/>
<path d="M270.9,136.6c0,1.4,-1.1,2.5,-2.5,2.5c-1.5,0,-2.6,-1.1,-2.6,-2.5c0,-1.4,1.1,-2.6,2.6,-2.6c1.4,0,2.5,1.2,2.5,2.6" class="g1_578"/>
<path d="M264.5,149.3c0,1.4,-1.1,2.6,-2.5,2.6c-1.4,0,-2.6,-1.2,-2.6,-2.6c0,-1.4,1.2,-2.5,2.6,-2.5c1.4,0,2.5,1.1,2.5,2.5" class="g1_578"/>
<path d="M242.9,146.7c0,1.4,-1.2,2.6,-2.6,2.6c-1.4,0,-2.5,-1.2,-2.5,-2.6c0,-1.4,1.1,-2.5,2.5,-2.5c1.4,0,2.6,1.1,2.6,2.5" class="g1_578"/>
<path d="M258.2,162c0,1.5,-1.2,2.6,-2.6,2.6c-1.4,0,-2.5,-1.1,-2.5,-2.6c0,-1.4,1.1,-2.5,2.5,-2.5c1.4,0,2.6,1.1,2.6,2.5" class="g1_578"/>
<path d="M296.4,149.3c0,1.4,-1.2,2.6,-2.6,2.6c-1.4,0,-2.5,-1.2,-2.5,-2.6c0,-1.4,1.1,-2.5,2.5,-2.5c1.4,0,2.6,1.1,2.6,2.5" class="g1_578"/>
<path d="M277.3,155.7c0,1.4,-1.2,2.5,-2.6,2.5c-1.4,0,-2.5,-1.1,-2.5,-2.5c0,-1.4,1.1,-2.6,2.5,-2.6c1.4,0,2.6,1.2,2.6,2.6" class="g1_578"/>
<path d="M274.8,165.8c0,1.5,-1.2,2.6,-2.6,2.6c-1.4,0,-2.5,-1.1,-2.5,-2.6c0,-1.4,1.1,-2.5,2.5,-2.5c1.4,0,2.6,1.1,2.6,2.5" class="g1_578"/>
<path d="M204.7,140.4c0,1.4,-1.2,2.5,-2.6,2.5c-1.4,0,-2.5,-1.1,-2.5,-2.5c0,-1.4,1.1,-2.6,2.5,-2.6c1.4,0,2.6,1.2,2.6,2.6" class="g1_578"/>
<path d="M213.6,142.9c0,1.4,-1.2,2.6,-2.6,2.6c-1.4,0,-2.5,-1.2,-2.5,-2.6c0,-1.4,1.1,-2.5,2.5,-2.5c1.4,0,2.6,1.1,2.6,2.5" class="g1_578"/>
<path d="M232.7,142.9c0,1.4,-1.2,2.6,-2.6,2.6c-1.4,0,-2.5,-1.2,-2.5,-2.6c0,-1.4,1.1,-2.5,2.5,-2.5c1.4,0,2.6,1.1,2.6,2.5" class="g1_578"/>
<path d="M149.9,162c0,1.5,-1.2,2.6,-2.6,2.6c-1.4,0,-2.5,-1.1,-2.5,-2.6c0,-1.4,1.1,-2.5,2.5,-2.5c1.4,0,2.6,1.1,2.6,2.5" class="g1_578"/>
<path d="M153.7,146.7c0,1.4,-1.2,2.6,-2.6,2.6c-1.4,0,-2.5,-1.2,-2.5,-2.6c0,-1.4,1.1,-2.5,2.5,-2.5c1.4,0,2.6,1.1,2.6,2.5" class="g1_578"/>
<path d="M156.2,136.6c0,1.4,-1.1,2.5,-2.5,2.5c-1.4,0,-2.6,-1.1,-2.6,-2.5c0,-1.4,1.2,-2.6,2.6,-2.6c1.4,0,2.5,1.2,2.5,2.6" class="g1_578"/>
<path d="M160.1,114.9c0,1.4,-1.2,2.5,-2.6,2.5c-1.4,0,-2.5,-1.1,-2.5,-2.5c0,-1.4,1.1,-2.6,2.5,-2.6c1.4,0,2.6,1.2,2.6,2.6" class="g1_578"/>
<path d="M137.1,168.4c0,1.4,-1.1,2.6,-2.5,2.6c-1.4,0,-2.6,-1.2,-2.6,-2.6c0,-1.4,1.2,-2.5,2.6,-2.5c1.4,0,2.5,1.1,2.5,2.5" class="g1_578"/>
<path d="M149.9,181.2c0,1.4,-1.2,2.5,-2.6,2.5c-1.4,0,-2.5,-1.1,-2.5,-2.5c0,-1.5,1.1,-2.6,2.5,-2.6c1.4,0,2.6,1.1,2.6,2.6" class="g1_578"/>
<path d="M143.5,200.3c0,1.4,-1.2,2.5,-2.6,2.5c-1.4,0,-2.5,-1.1,-2.5,-2.5c0,-1.4,1.1,-2.6,2.5,-2.6c1.4,0,2.6,1.2,2.6,2.6" class="g1_578"/>
<path d="M130.7,219.4c0,1.4,-1.1,2.5,-2.5,2.5c-1.4,0,-2.6,-1.1,-2.6,-2.5c0,-1.4,1.2,-2.6,2.6,-2.6c1.4,0,2.5,1.2,2.5,2.6" class="g1_578"/>
<path d="M130.7,200.3c0,1.4,-1.1,2.5,-2.5,2.5c-1.4,0,-2.6,-1.1,-2.6,-2.5c0,-1.4,1.2,-2.6,2.6,-2.6c1.4,0,2.5,1.2,2.5,2.6" class="g1_578"/>
<path d="M130.7,174.8c0,1.4,-1.1,2.5,-2.5,2.5c-1.4,0,-2.6,-1.1,-2.6,-2.5c0,-1.4,1.2,-2.6,2.6,-2.6c1.4,0,2.5,1.2,2.5,2.6" class="g1_578"/>
<path d="M121.8,185c0,1.4,-1.1,2.5,-2.5,2.5c-1.4,0,-2.6,-1.1,-2.6,-2.5c0,-1.4,1.2,-2.6,2.6,-2.6c1.4,0,2.5,1.2,2.5,2.6" class="g1_578"/>
<path d="M137.1,187.5c0,1.4,-1.1,2.6,-2.5,2.6c-1.4,0,-2.6,-1.2,-2.6,-2.6c0,-1.4,1.2,-2.5,2.6,-2.5c1.4,0,2.5,1.1,2.5,2.5" class="g1_578"/>
<path d="M118,219.4c0,1.4,-1.1,2.5,-2.5,2.5c-1.5,0,-2.6,-1.1,-2.6,-2.5c0,-1.4,1.1,-2.6,2.6,-2.6c1.4,0,2.5,1.2,2.5,2.6" class="g1_578"/>
<path d="M130.7,238.5c0,1.4,-1.1,2.5,-2.5,2.5c-1.4,0,-2.6,-1.1,-2.6,-2.5c0,-1.4,1.2,-2.6,2.6,-2.6c1.4,0,2.5,1.2,2.5,2.6" class="g1_578"/>
<path d="M111.6,244.9c0,1.4,-1.1,2.5,-2.5,2.5c-1.4,0,-2.6,-1.1,-2.6,-2.5c0,-1.4,1.2,-2.6,2.6,-2.6c1.4,0,2.5,1.2,2.5,2.6" class="g1_578"/>
<path d="M111.6,200.3c0,1.4,-1.1,2.5,-2.5,2.5c-1.4,0,-2.6,-1.1,-2.6,-2.5c0,-1.4,1.2,-2.6,2.6,-2.6c1.4,0,2.5,1.2,2.5,2.6" class="g1_578"/>
<path d="M130.7,149.3c0,1.4,-1.1,2.6,-2.5,2.6c-1.4,0,-2.6,-1.2,-2.6,-2.6c0,-1.4,1.2,-2.5,2.6,-2.5c1.4,0,2.5,1.1,2.5,2.5" class="g1_578"/>
<path d="M143.5,142.9c0,1.4,-1.2,2.6,-2.6,2.6c-1.4,0,-2.5,-1.2,-2.5,-2.6c0,-1.4,1.1,-2.5,2.5,-2.5c1.4,0,2.6,1.1,2.6,2.5" class="g1_578"/>
<path d="M149.9,123.8c0,1.4,-1.2,2.6,-2.6,2.6c-1.4,0,-2.5,-1.2,-2.5,-2.6c0,-1.4,1.1,-2.5,2.5,-2.5c1.4,0,2.6,1.1,2.6,2.5" class="g1_578"/>
<path d="M130.7,123.8c0,1.4,-1.1,2.6,-2.5,2.6c-1.4,0,-2.6,-1.2,-2.6,-2.6c0,-1.4,1.2,-2.5,2.6,-2.5c1.4,0,2.5,1.1,2.5,2.5" class="g1_578"/>
<path d="M124.4,136.6c0,1.4,-1.2,2.5,-2.6,2.5c-1.4,0,-2.5,-1.1,-2.5,-2.5c0,-1.4,1.1,-2.6,2.5,-2.6c1.4,0,2.6,1.2,2.6,2.6" class="g1_578"/>
<path d="M118,149.3c0,1.4,-1.1,2.6,-2.5,2.6c-1.5,0,-2.6,-1.2,-2.6,-2.6c0,-1.4,1.1,-2.5,2.6,-2.5c1.4,0,2.5,1.1,2.5,2.5" class="g1_578"/>
<path d="M118,162c0,1.5,-1.1,2.6,-2.5,2.6c-1.5,0,-2.6,-1.1,-2.6,-2.6c0,-1.4,1.1,-2.5,2.6,-2.5c1.4,0,2.5,1.1,2.5,2.5" class="g1_578"/>
<path d="M105.3,174.8c0,1.4,-1.2,2.5,-2.6,2.5c-1.4,0,-2.5,-1.1,-2.5,-2.5c0,-1.4,1.1,-2.6,2.5,-2.6c1.4,0,2.6,1.2,2.6,2.6" class="g1_578"/>
<path d="M101.4,155.7c0,1.4,-1.1,2.5,-2.5,2.5c-1.4,0,-2.6,-1.1,-2.6,-2.5c0,-1.4,1.2,-2.6,2.6,-2.6c1.4,0,2.5,1.2,2.5,2.6" class="g1_578"/>
<path d="M102.7,191.3c0,1.4,-1.1,2.6,-2.6,2.6c-1.4,0,-2.5,-1.2,-2.5,-2.6c0,-1.4,1.1,-2.5,2.5,-2.5c1.5,0,2.6,1.1,2.6,2.5" class="g1_578"/>
<path d="M105.3,219.4c0,1.4,-1.2,2.5,-2.6,2.5c-1.4,0,-2.5,-1.1,-2.5,-2.5c0,-1.4,1.1,-2.6,2.5,-2.6c1.4,0,2.6,1.2,2.6,2.6" class="g1_578"/>
<path d="M105.3,260.2c0,1.4,-1.2,2.5,-2.6,2.5c-1.4,0,-2.5,-1.1,-2.5,-2.5c0,-1.5,1.1,-2.6,2.5,-2.6c1.4,0,2.6,1.1,2.6,2.6" class="g1_578"/>
<path d="M111.6,276.7c0,1.4,-1.1,2.6,-2.5,2.6c-1.4,0,-2.6,-1.2,-2.6,-2.6c0,-1.4,1.2,-2.5,2.6,-2.5c1.4,0,2.5,1.1,2.5,2.5" class="g1_578"/>
<path d="M124.4,270.3c0,1.5,-1.2,2.6,-2.6,2.6c-1.4,0,-2.5,-1.1,-2.5,-2.6c0,-1.4,1.1,-2.5,2.5,-2.5c1.4,0,2.6,1.1,2.6,2.5" class="g1_578"/>
<path d="M130.7,257.6c0,1.4,-1.1,2.6,-2.5,2.6c-1.4,0,-2.6,-1.2,-2.6,-2.6c0,-1.4,1.2,-2.5,2.6,-2.5c1.4,0,2.5,1.1,2.5,2.5" class="g1_578"/>
<path d="M128.2,299.6c0,1.4,-1.1,2.6,-2.5,2.6c-1.5,0,-2.6,-1.2,-2.6,-2.6c0,-1.4,1.1,-2.5,2.6,-2.5c1.4,0,2.5,1.1,2.5,2.5" class="g1_578"/>
<path d="M124.4,314.9c0,1.5,-1.2,2.6,-2.6,2.6c-1.4,0,-2.5,-1.1,-2.5,-2.6c0,-1.4,1.1,-2.5,2.5,-2.5c1.4,0,2.6,1.1,2.6,2.5" class="g1_578"/>
<path d="M124.4,321.3c0,1.4,-1.2,2.6,-2.6,2.6c-1.4,0,-2.5,-1.2,-2.5,-2.6c0,-1.4,1.1,-2.5,2.5,-2.5c1.4,0,2.6,1.1,2.6,2.5" class="g1_578"/>
<path d="M124.4,334.1c0,1.4,-1.2,2.5,-2.6,2.5c-1.4,0,-2.5,-1.1,-2.5,-2.5c0,-1.5,1.1,-2.6,2.5,-2.6c1.4,0,2.6,1.1,2.6,2.6" class="g1_578"/>
<path d="M111.6,346.8c0,1.4,-1.1,2.5,-2.5,2.5c-1.4,0,-2.6,-1.1,-2.6,-2.5c0,-1.4,1.2,-2.6,2.6,-2.6c1.4,0,2.5,1.2,2.5,2.6" class="g1_578"/>
<path d="M124.4,365.9c0,1.4,-1.2,2.6,-2.6,2.6c-1.4,0,-2.5,-1.2,-2.5,-2.6c0,-1.4,1.1,-2.5,2.5,-2.5c1.4,0,2.6,1.1,2.6,2.5" class="g1_578"/>
<path d="M149.9,365.9c0,1.4,-1.2,2.6,-2.6,2.6c-1.4,0,-2.5,-1.2,-2.5,-2.6c0,-1.4,1.1,-2.5,2.5,-2.5c1.4,0,2.6,1.1,2.6,2.5" class="g1_578"/>
<path d="M169,365.9c0,1.4,-1.2,2.6,-2.6,2.6c-1.4,0,-2.5,-1.2,-2.5,-2.6c0,-1.4,1.1,-2.5,2.5,-2.5c1.4,0,2.6,1.1,2.6,2.5" class="g1_578"/>
<path d="M188.1,365.9c0,1.4,-1.2,2.6,-2.6,2.6c-1.4,0,-2.5,-1.2,-2.5,-2.6c0,-1.4,1.1,-2.5,2.5,-2.5c1.4,0,2.6,1.1,2.6,2.5" class="g1_578"/>
<path d="M207.2,372.3c0,1.4,-1.1,2.5,-2.6,2.5c-1.4,0,-2.5,-1.1,-2.5,-2.5c0,-1.4,1.1,-2.6,2.5,-2.6c1.5,0,2.6,1.2,2.6,2.6" class="g1_578"/>
<path d="M223.8,369.7c0,1.4,-1.2,2.6,-2.6,2.6c-1.4,0,-2.5,-1.2,-2.5,-2.6c0,-1.4,1.1,-2.5,2.5,-2.5c1.4,0,2.6,1.1,2.6,2.5" class="g1_578"/>
<path d="M226.3,372.3c0,1.4,-1.1,2.5,-2.5,2.5c-1.4,0,-2.6,-1.1,-2.6,-2.5c0,-1.4,1.2,-2.6,2.6,-2.6c1.4,0,2.5,1.2,2.5,2.6" class="g1_578"/>
<path d="M242.9,363.4c0,1.4,-1.2,2.5,-2.6,2.5c-1.4,0,-2.5,-1.1,-2.5,-2.5c0,-1.4,1.1,-2.6,2.5,-2.6c1.4,0,2.6,1.2,2.6,2.6" class="g1_578"/>
<path d="M251.8,353.2c0,1.4,-1.2,2.5,-2.6,2.5c-1.4,0,-2.5,-1.1,-2.5,-2.5c0,-1.4,1.1,-2.6,2.5,-2.6c1.4,0,2.6,1.2,2.6,2.6" class="g1_578"/>
<path d="M258.2,340.4c0,1.4,-1.2,2.6,-2.6,2.6c-1.4,0,-2.5,-1.2,-2.5,-2.6c0,-1.4,1.1,-2.5,2.5,-2.5c1.4,0,2.6,1.1,2.6,2.5" class="g1_578"/>
<path d="M264.5,317.5c0,1.4,-1.1,2.6,-2.5,2.6c-1.4,0,-2.6,-1.2,-2.6,-2.6c0,-1.4,1.2,-2.5,2.6,-2.5c1.4,0,2.5,1.1,2.5,2.5" class="g1_578"/>
<path d="M277.3,302.2c0,1.4,-1.2,2.6,-2.6,2.6c-1.4,0,-2.5,-1.2,-2.5,-2.6c0,-1.4,1.1,-2.5,2.5,-2.5c1.4,0,2.6,1.1,2.6,2.5" class="g1_578"/>
<path d="M296.4,257.6c0,1.4,-1.2,2.6,-2.6,2.6c-1.4,0,-2.5,-1.2,-2.5,-2.6c0,-1.4,1.1,-2.5,2.5,-2.5c1.4,0,2.6,1.1,2.6,2.5" class="g1_578"/>
<path d="M313,255c0,1.4,-1.2,2.6,-2.6,2.6c-1.4,0,-2.5,-1.2,-2.5,-2.6c0,-1.4,1.1,-2.5,2.5,-2.5c1.4,0,2.6,1.1,2.6,2.5" class="g1_578"/>
<path d="M315.5,270.3c0,1.5,-1.1,2.6,-2.6,2.6c-1.4,0,-2.5,-1.1,-2.5,-2.6c0,-1.4,1.1,-2.5,2.5,-2.5c1.5,0,2.6,1.1,2.6,2.5" class="g1_578"/>
<path d="M315.5,283.1c0,1.4,-1.1,2.5,-2.6,2.5c-1.4,0,-2.5,-1.1,-2.5,-2.5c0,-1.4,1.1,-2.6,2.5,-2.6c1.5,0,2.6,1.2,2.6,2.6" class="g1_578"/>
<path d="M309.1,295.8c0,1.4,-1.1,2.6,-2.5,2.6c-1.4,0,-2.6,-1.2,-2.6,-2.6c0,-1.4,1.2,-2.5,2.6,-2.5c1.4,0,2.5,1.1,2.5,2.5" class="g1_578"/>
<path d="M309.1,314.9c0,1.5,-1.1,2.6,-2.5,2.6c-1.4,0,-2.6,-1.1,-2.6,-2.6c0,-1.4,1.2,-2.5,2.6,-2.5c1.4,0,2.5,1.1,2.5,2.5" class="g1_578"/>
<path d="M302.8,321.3c0,1.4,-1.2,2.6,-2.6,2.6c-1.4,0,-2.5,-1.2,-2.5,-2.6c0,-1.4,1.1,-2.5,2.5,-2.5c1.4,0,2.6,1.1,2.6,2.5" class="g1_578"/>
<path d="M296.4,334.1c0,1.4,-1.2,2.5,-2.6,2.5c-1.4,0,-2.5,-1.1,-2.5,-2.5c0,-1.5,1.1,-2.6,2.5,-2.6c1.4,0,2.6,1.1,2.6,2.6" class="g1_578"/>
<path d="M302.8,340.4c0,1.4,-1.2,2.6,-2.6,2.6c-1.4,0,-2.5,-1.2,-2.5,-2.6c0,-1.4,1.1,-2.5,2.5,-2.5c1.4,0,2.6,1.1,2.6,2.5" class="g1_578"/>
<path d="M290,346.8c0,1.4,-1.1,2.5,-2.5,2.5c-1.4,0,-2.6,-1.1,-2.6,-2.5c0,-1.4,1.2,-2.6,2.6,-2.6c1.4,0,2.5,1.2,2.5,2.6" class="g1_578"/>
<path d="M270.9,359.5c0,1.4,-1.1,2.6,-2.5,2.6c-1.5,0,-2.6,-1.2,-2.6,-2.6c0,-1.4,1.1,-2.5,2.6,-2.5c1.4,0,2.5,1.1,2.5,2.5" class="g1_578"/>
<path d="M270.9,372.3c0,1.4,-1.1,2.5,-2.5,2.5c-1.5,0,-2.6,-1.1,-2.6,-2.5c0,-1.4,1.1,-2.6,2.6,-2.6c1.4,0,2.5,1.2,2.5,2.6" class="g1_578"/>
<path d="M251.8,381.2c0,1.4,-1.2,2.6,-2.6,2.6c-1.4,0,-2.5,-1.2,-2.5,-2.6c0,-1.4,1.1,-2.5,2.5,-2.5c1.4,0,2.6,1.1,2.6,2.5" class="g1_578"/>
<path d="M239,391.4c0,1.4,-1.1,2.5,-2.5,2.5c-1.4,0,-2.5,-1.1,-2.5,-2.5c0,-1.4,1.1,-2.6,2.5,-2.6c1.4,0,2.5,1.2,2.5,2.6" class="g1_578"/>
<path d="M219.9,391.4c0,1.4,-1.1,2.5,-2.5,2.5c-1.4,0,-2.6,-1.1,-2.6,-2.5c0,-1.4,1.2,-2.6,2.6,-2.6c1.4,0,2.5,1.2,2.5,2.6" class="g1_578"/>
<path d="M194.5,391.4c0,1.4,-1.2,2.5,-2.6,2.5c-1.4,0,-2.5,-1.1,-2.5,-2.5c0,-1.4,1.1,-2.6,2.5,-2.6c1.4,0,2.6,1.2,2.6,2.6" class="g1_578"/>
<path d="M175.3,391.4c0,1.4,-1.1,2.5,-2.5,2.5c-1.4,0,-2.6,-1.1,-2.6,-2.5c0,-1.4,1.2,-2.6,2.6,-2.6c1.4,0,2.5,1.2,2.5,2.6" class="g1_578"/>
<path d="M149.9,385c0,1.4,-1.2,2.6,-2.6,2.6c-1.4,0,-2.5,-1.2,-2.5,-2.6c0,-1.4,1.1,-2.5,2.5,-2.5c1.4,0,2.6,1.1,2.6,2.5" class="g1_578"/>
<path d="M143.5,378.7c0,1.4,-1.2,2.5,-2.6,2.5c-1.4,0,-2.5,-1.1,-2.5,-2.5c0,-1.5,1.1,-2.6,2.5,-2.6c1.4,0,2.6,1.1,2.6,2.6" class="g1_578"/>
<path d="M143.5,349.4c0,1.4,-1.2,2.5,-2.6,2.5c-1.4,0,-2.5,-1.1,-2.5,-2.5c0,-1.4,1.1,-2.6,2.5,-2.6c1.4,0,2.6,1.2,2.6,2.6" class="g1_578"/>
<path d="M143.5,334.1c0,1.4,-1.2,2.5,-2.6,2.5c-1.4,0,-2.5,-1.1,-2.5,-2.5c0,-1.5,1.1,-2.6,2.5,-2.6c1.4,0,2.6,1.1,2.6,2.6" class="g1_578"/>
<path d="M137.1,317.5c0,1.4,-1.1,2.6,-2.5,2.6c-1.4,0,-2.6,-1.2,-2.6,-2.6c0,-1.4,1.2,-2.5,2.6,-2.5c1.4,0,2.5,1.1,2.5,2.5" class="g1_578"/>
<path d="M130.7,289.5c0,1.4,-1.1,2.5,-2.5,2.5c-1.4,0,-2.6,-1.1,-2.6,-2.5c0,-1.4,1.2,-2.6,2.6,-2.6c1.4,0,2.5,1.2,2.5,2.6" class="g1_578"/>
<path d="M105.3,298.4c0,1.4,-1.2,2.5,-2.6,2.5c-1.4,0,-2.5,-1.1,-2.5,-2.5c0,-1.4,1.1,-2.6,2.5,-2.6c1.4,0,2.6,1.2,2.6,2.6" class="g1_578"/>
<path d="M92.5,279.3c0,1.4,-1.1,2.5,-2.5,2.5c-1.4,0,-2.6,-1.1,-2.6,-2.5c0,-1.4,1.2,-2.6,2.6,-2.6c1.4,0,2.5,1.2,2.5,2.6" class="g1_578"/>
<path d="M92.5,264c0,1.4,-1.1,2.5,-2.5,2.5c-1.4,0,-2.6,-1.1,-2.6,-2.5c0,-1.4,1.2,-2.6,2.6,-2.6c1.4,0,2.5,1.2,2.5,2.6" class="g1_578"/>
<path d="M86.1,251.2c0,1.4,-1.1,2.6,-2.5,2.6c-1.4,0,-2.5,-1.2,-2.5,-2.6c0,-1.4,1.1,-2.5,2.5,-2.5c1.4,0,2.5,1.1,2.5,2.5" class="g1_578"/>
<path d="M86.1,238.5c0,1.4,-1.1,2.5,-2.5,2.5c-1.4,0,-2.5,-1.1,-2.5,-2.5c0,-1.4,1.1,-2.6,2.5,-2.6c1.4,0,2.5,1.2,2.5,2.6" class="g1_578"/>
<path d="M98.9,228.3c0,1.4,-1.2,2.5,-2.6,2.5c-1.4,0,-2.5,-1.1,-2.5,-2.5c0,-1.4,1.1,-2.6,2.5,-2.6c1.4,0,2.6,1.2,2.6,2.6" class="g1_578"/>
<path d="M86.1,219.4c0,1.4,-1.1,2.5,-2.5,2.5c-1.4,0,-2.5,-1.1,-2.5,-2.5c0,-1.4,1.1,-2.6,2.5,-2.6c1.4,0,2.5,1.2,2.5,2.6" class="g1_578"/>
<path d="M92.5,206.6c0,1.4,-1.1,2.6,-2.5,2.6c-1.4,0,-2.6,-1.2,-2.6,-2.6c0,-1.4,1.2,-2.5,2.6,-2.5c1.4,0,2.5,1.1,2.5,2.5" class="g1_578"/>
<path d="M92.5,187.5c0,1.4,-1.1,2.6,-2.5,2.6c-1.4,0,-2.6,-1.2,-2.6,-2.6c0,-1.4,1.2,-2.5,2.6,-2.5c1.4,0,2.5,1.1,2.5,2.5" class="g1_578"/>
<path d="M86.1,270.3c0,1.5,-1.1,2.6,-2.5,2.6c-1.4,0,-2.5,-1.1,-2.5,-2.6c0,-1.4,1.1,-2.5,2.5,-2.5c1.4,0,2.5,1.1,2.5,2.5" class="g1_578"/>
<path d="M82.3,289.5c0,1.4,-1.1,2.5,-2.5,2.5c-1.4,0,-2.6,-1.1,-2.6,-2.5c0,-1.4,1.2,-2.6,2.6,-2.6c1.4,0,2.5,1.2,2.5,2.6" class="g1_578"/>
<path d="M90,306c0,1.4,-1.2,2.6,-2.6,2.6c-1.4,0,-2.5,-1.2,-2.5,-2.6c0,-1.4,1.1,-2.5,2.5,-2.5c1.4,0,2.6,1.1,2.6,2.5" class="g1_578"/>
<path d="M98.9,321.3c0,1.4,-1.2,2.6,-2.6,2.6c-1.4,0,-2.5,-1.2,-2.5,-2.6c0,-1.4,1.1,-2.5,2.5,-2.5c1.4,0,2.6,1.1,2.6,2.5" class="g1_578"/>
<path d="M96.3,331.5c0,1.4,-1.1,2.6,-2.5,2.6c-1.4,0,-2.6,-1.2,-2.6,-2.6c0,-1.4,1.2,-2.5,2.6,-2.5c1.4,0,2.5,1.1,2.5,2.5" class="g1_578"/>
<path d="M109.1,312.4c0,1.4,-1.2,2.5,-2.6,2.5c-1.4,0,-2.5,-1.1,-2.5,-2.5c0,-1.4,1.1,-2.5,2.5,-2.5c1.4,0,2.6,1.1,2.6,2.5" class="g1_578"/>
<path d="M130.7,353.2c0,1.4,-1.1,2.5,-2.5,2.5c-1.4,0,-2.6,-1.1,-2.6,-2.5c0,-1.4,1.2,-2.6,2.6,-2.6c1.4,0,2.5,1.2,2.5,2.6" class="g1_578"/>
<path d="M156.2,346.8c0,1.4,-1.1,2.5,-2.5,2.5c-1.4,0,-2.6,-1.1,-2.6,-2.5c0,-1.4,1.2,-2.6,2.6,-2.6c1.4,0,2.5,1.2,2.5,2.6" class="g1_578"/>
<path d="M166.4,376.1c0,1.4,-1.1,2.6,-2.5,2.6c-1.4,0,-2.6,-1.2,-2.6,-2.6c0,-1.4,1.2,-2.5,2.6,-2.5c1.4,0,2.5,1.1,2.5,2.5" class="g1_578"/>
<path d="M188.1,378.7c0,1.4,-1.2,2.5,-2.6,2.5c-1.4,0,-2.5,-1.1,-2.5,-2.5c0,-1.5,1.1,-2.6,2.5,-2.6c1.4,0,2.6,1.1,2.6,2.6" class="g1_578"/>
<path d="M219.9,385c0,1.4,-1.1,2.6,-2.5,2.6c-1.4,0,-2.6,-1.2,-2.6,-2.6c0,-1.4,1.2,-2.5,2.6,-2.5c1.4,0,2.5,1.1,2.5,2.5" class="g1_578"/>
<path d="M207.2,385c0,1.4,-1.1,2.6,-2.6,2.6c-1.4,0,-2.5,-1.2,-2.5,-2.6c0,-1.4,1.1,-2.5,2.5,-2.5c1.5,0,2.6,1.1,2.6,2.5" class="g1_578"/>
<path d="M270.9,327.7c0,1.4,-1.1,2.5,-2.5,2.5c-1.5,0,-2.6,-1.1,-2.6,-2.5c0,-1.4,1.1,-2.6,2.6,-2.6c1.4,0,2.5,1.2,2.5,2.6" class="g1_578"/>
<path d="M296.4,289.5c0,1.4,-1.2,2.5,-2.6,2.5c-1.4,0,-2.5,-1.1,-2.5,-2.5c0,-1.4,1.1,-2.6,2.5,-2.6c1.4,0,2.6,1.2,2.6,2.6" class="g1_578"/>
<path d="M296.4,270.3c0,1.5,-1.2,2.6,-2.6,2.6c-1.4,0,-2.5,-1.1,-2.5,-2.6c0,-1.4,1.1,-2.5,2.5,-2.5c1.4,0,2.6,1.1,2.6,2.5" class="g1_578"/>
<path d="M296.4,308.6c0,1.4,-1.2,2.5,-2.6,2.5c-1.4,0,-2.5,-1.1,-2.5,-2.5c0,-1.4,1.1,-2.6,2.5,-2.6c1.4,0,2.6,1.2,2.6,2.6" class="g1_578"/>
<path d="M283.6,321.3c0,1.4,-1.1,2.6,-2.5,2.6c-1.4,0,-2.6,-1.2,-2.6,-2.6c0,-1.4,1.2,-2.5,2.6,-2.5c1.4,0,2.5,1.1,2.5,2.5" class="g1_578"/>
<path d="M277.3,340.4c0,1.4,-1.2,2.6,-2.6,2.6c-1.4,0,-2.5,-1.2,-2.5,-2.6c0,-1.4,1.1,-2.5,2.5,-2.5c1.4,0,2.6,1.1,2.6,2.5" class="g1_578"/>
<path d="M283.6,365.9c0,1.4,-1.1,2.6,-2.5,2.6c-1.4,0,-2.6,-1.2,-2.6,-2.6c0,-1.4,1.2,-2.5,2.6,-2.5c1.4,0,2.5,1.1,2.5,2.5" class="g1_578"/>
<path d="M296.4,359.5c0,1.4,-1.2,2.6,-2.6,2.6c-1.4,0,-2.5,-1.2,-2.5,-2.6c0,-1.4,1.1,-2.5,2.5,-2.5c1.4,0,2.6,1.1,2.6,2.5" class="g1_578"/>
<path d="M334.6,257.6c0,1.4,-1.1,2.6,-2.5,2.6c-1.4,0,-2.6,-1.2,-2.6,-2.6c0,-1.4,1.2,-2.5,2.6,-2.5c1.4,0,2.5,1.1,2.5,2.5" class="g1_578"/>
<path d="M334.6,270.3c0,1.5,-1.1,2.6,-2.5,2.6c-1.4,0,-2.6,-1.1,-2.6,-2.6c0,-1.4,1.2,-2.5,2.6,-2.5c1.4,0,2.5,1.1,2.5,2.5" class="g1_578"/>
<path d="M334.6,283.1c0,1.4,-1.1,2.5,-2.5,2.5c-1.4,0,-2.6,-1.1,-2.6,-2.5c0,-1.4,1.2,-2.6,2.6,-2.6c1.4,0,2.5,1.2,2.5,2.6" class="g1_578"/>
<path d="M283.6,136.6c0,1.4,-1.1,2.5,-2.5,2.5c-1.4,0,-2.6,-1.1,-2.6,-2.5c0,-1.4,1.2,-2.6,2.6,-2.6c1.4,0,2.5,1.2,2.5,2.6" class="g1_578"/>
<path d="M270.9,123.8c0,1.4,-1.1,2.6,-2.5,2.6c-1.5,0,-2.6,-1.2,-2.6,-2.6c0,-1.4,1.1,-2.5,2.6,-2.5c1.4,0,2.5,1.1,2.5,2.5" class="g1_578"/>
<path d="M251.8,257.6c0,1.4,-1.2,2.6,-2.6,2.6c-1.4,0,-2.5,-1.2,-2.5,-2.6c0,-1.4,1.1,-2.5,2.5,-2.5c1.4,0,2.6,1.1,2.6,2.5" class="g1_578"/>
<path d="M277.3,251.2c0,1.4,-1.2,2.6,-2.6,2.6c-1.4,0,-2.5,-1.2,-2.5,-2.6c0,-1.4,1.1,-2.5,2.5,-2.5c1.4,0,2.6,1.1,2.6,2.5" class="g1_578"/>
<path d="M270.9,270.3c0,1.5,-1.1,2.6,-2.5,2.6c-1.5,0,-2.6,-1.1,-2.6,-2.6c0,-1.4,1.1,-2.5,2.6,-2.5c1.4,0,2.5,1.1,2.5,2.5" class="g1_578"/>
<path d="M242.9,267.8c0,1.4,-1.2,2.5,-2.6,2.5c-1.4,0,-2.5,-1.1,-2.5,-2.5c0,-1.4,1.1,-2.6,2.5,-2.6c1.4,0,2.6,1.2,2.6,2.6" class="g1_578"/>
<path d="M255.6,280.5c0,1.4,-1.1,2.6,-2.5,2.6c-1.4,0,-2.6,-1.2,-2.6,-2.6c0,-1.4,1.2,-2.5,2.6,-2.5c1.4,0,2.5,1.1,2.5,2.5" class="g1_578"/>
<path d="M277.3,283.1c0,1.4,-1.2,2.5,-2.6,2.5c-1.4,0,-2.5,-1.1,-2.5,-2.5c0,-1.4,1.1,-2.6,2.5,-2.6c1.4,0,2.6,1.2,2.6,2.6" class="g1_578"/>
<path d="M270.9,385c0,1.4,-1.1,2.6,-2.5,2.6c-1.5,0,-2.6,-1.2,-2.6,-2.6c0,-1.4,1.1,-2.5,2.6,-2.5c1.4,0,2.5,1.1,2.5,2.5" class="g1_578"/>
<path d="M283.6,378.7c0,1.4,-1.1,2.5,-2.5,2.5c-1.4,0,-2.6,-1.1,-2.6,-2.5c0,-1.5,1.2,-2.6,2.6,-2.6c1.4,0,2.5,1.1,2.5,2.6" class="g1_578"/>
<path d="M258.2,391.4c0,1.4,-1.2,2.5,-2.6,2.5c-1.4,0,-2.5,-1.1,-2.5,-2.5c0,-1.4,1.1,-2.6,2.5,-2.6c1.4,0,2.6,1.2,2.6,2.6" class="g1_578"/>
<path d="M230.1,401.6c0,1.4,-1.1,2.5,-2.5,2.5c-1.4,0,-2.6,-1.1,-2.6,-2.5c0,-1.4,1.2,-2.6,2.6,-2.6c1.4,0,2.5,1.2,2.5,2.6" class="g1_578"/>
<path d="M213.6,404.1c0,1.4,-1.2,2.6,-2.6,2.6c-1.4,0,-2.5,-1.2,-2.5,-2.6c0,-1.4,1.1,-2.5,2.5,-2.5c1.4,0,2.6,1.1,2.6,2.5" class="g1_578"/>
<path d="M194.5,404.1c0,1.4,-1.2,2.6,-2.6,2.6c-1.4,0,-2.5,-1.2,-2.5,-2.6c0,-1.4,1.1,-2.5,2.5,-2.5c1.4,0,2.6,1.1,2.6,2.5" class="g1_578"/>
<path d="M166.4,395.2c0,1.4,-1.1,2.6,-2.5,2.6c-1.4,0,-2.6,-1.2,-2.6,-2.6c0,-1.4,1.2,-2.5,2.6,-2.5c1.4,0,2.5,1.1,2.5,2.5" class="g1_578"/>
<path d="M73.4,308.6c0,1.4,-1.1,2.5,-2.5,2.5c-1.4,0,-2.6,-1.1,-2.6,-2.5c0,-1.4,1.2,-2.6,2.6,-2.6c1.4,0,2.5,1.2,2.5,2.6" class="g1_578"/>
<path d="M67,257.6c0,1.4,-1.1,2.6,-2.5,2.6c-1.4,0,-2.6,-1.2,-2.6,-2.6c0,-1.4,1.2,-2.5,2.6,-2.5c1.4,0,2.5,1.1,2.5,2.5" class="g1_578"/>
<path d="M347.4,270.3c0,1.5,-1.2,2.6,-2.6,2.6c-1.4,0,-2.5,-1.1,-2.5,-2.6c0,-1.4,1.1,-2.5,2.5,-2.5c1.4,0,2.6,1.1,2.6,2.5" class="g1_578"/>
<path d="M251.8,404.1c0,1.4,-1.2,2.6,-2.6,2.6c-1.4,0,-2.5,-1.2,-2.5,-2.6c0,-1.4,1.1,-2.5,2.5,-2.5c1.4,0,2.6,1.1,2.6,2.5" class="g1_578"/>
<path d="M175.3,410.5c0,1.4,-1.1,2.6,-2.5,2.6c-1.4,0,-2.6,-1.2,-2.6,-2.6c0,-1.4,1.2,-2.5,2.6,-2.5c1.4,0,2.5,1.1,2.5,2.5" class="g1_578"/>
<path d="M306.6,363.4c0,1.4,-1.1,2.5,-2.5,2.5c-1.4,0,-2.6,-1.1,-2.6,-2.5c0,-1.4,1.2,-2.6,2.6,-2.6c1.4,0,2.5,1.2,2.5,2.6" class="g1_578"/>
<path d="M239,104.7c0,1.4,-1.1,2.6,-2.5,2.6c-1.4,0,-2.5,-1.2,-2.5,-2.6c0,-1.4,1.1,-2.5,2.5,-2.5c1.4,0,2.5,1.1,2.5,2.5" class="g1_578"/>
<path d="M169,104.7c0,1.4,-1.2,2.6,-2.6,2.6c-1.4,0,-2.5,-1.2,-2.5,-2.6c0,-1.4,1.1,-2.5,2.5,-2.5c1.4,0,2.6,1.1,2.6,2.5" class="g1_578"/>
<path d="M380.7,413.9V102.4" class="g0_578"/>
<path d="M553.1,111.1c0,1.4,-1.2,2.5,-2.6,2.5c-1.4,0,-2.5,-1.1,-2.5,-2.5c0,-1.4,1.1,-2.6,2.5,-2.6c1.4,0,2.6,1.2,2.6,2.6" class="g1_578"/>
<path d="M533.9,111.1c0,1.4,-1.1,2.5,-2.5,2.5c-1.4,0,-2.6,-1.1,-2.6,-2.5c0,-1.4,1.2,-2.6,2.6,-2.6c1.4,0,2.5,1.2,2.5,2.6" class="g1_578"/>
<path d="M521.2,123.8c0,1.4,-1.1,2.6,-2.5,2.6c-1.5,0,-2.6,-1.2,-2.6,-2.6c0,-1.4,1.1,-2.5,2.6,-2.5c1.4,0,2.5,1.1,2.5,2.5" class="g1_578"/>
<path d="M511,136.6c0,1.4,-1.2,2.5,-2.6,2.5c-1.4,0,-2.5,-1.1,-2.5,-2.5c0,-1.4,1.1,-2.6,2.5,-2.6c1.4,0,2.6,1.2,2.6,2.6" class="g1_578"/>
<path d="M521.2,155.7c0,1.4,-1.1,2.5,-2.5,2.5c-1.5,0,-2.6,-1.1,-2.6,-2.5c0,-1.4,1.1,-2.6,2.6,-2.6c1.4,0,2.5,1.2,2.5,2.6" class="g1_578"/>
<path d="M533.9,139.1c0,1.4,-1.1,2.5,-2.5,2.5c-1.4,0,-2.6,-1.1,-2.6,-2.5c0,-1.4,1.2,-2.6,2.6,-2.6c1.4,0,2.5,1.2,2.5,2.6" class="g1_578"/>
<path d="M553.1,123.8c0,1.4,-1.2,2.6,-2.6,2.6c-1.4,0,-2.5,-1.2,-2.5,-2.6c0,-1.4,1.1,-2.5,2.5,-2.5c1.4,0,2.6,1.1,2.6,2.5" class="g1_578"/>
<path d="M572.2,111.1c0,1.4,-1.2,2.5,-2.6,2.5c-1.4,0,-2.5,-1.1,-2.5,-2.5c0,-1.4,1.1,-2.6,2.5,-2.6c1.4,0,2.6,1.2,2.6,2.6" class="g1_578"/>
<path d="M569.6,127.6c0,1.4,-1.1,2.6,-2.5,2.6c-1.5,0,-2.6,-1.2,-2.6,-2.6c0,-1.4,1.1,-2.5,2.6,-2.5c1.4,0,2.5,1.1,2.5,2.5" class="g1_578"/>
<path d="M591.3,130.2c0,1.4,-1.2,2.5,-2.6,2.5c-1.4,0,-2.5,-1.1,-2.5,-2.5c0,-1.4,1.1,-2.6,2.5,-2.6c1.4,0,2.6,1.2,2.6,2.6" class="g1_578"/>
<path d="M597.6,117.4c0,1.5,-1.1,2.6,-2.5,2.6c-1.4,0,-2.5,-1.1,-2.5,-2.6c0,-1.4,1.1,-2.5,2.5,-2.5c1.4,0,2.5,1.1,2.5,2.5" class="g1_578"/>
<path d="M616.8,136.6c0,1.4,-1.2,2.5,-2.6,2.5c-1.4,0,-2.5,-1.1,-2.5,-2.5c0,-1.4,1.1,-2.6,2.5,-2.6c1.4,0,2.6,1.2,2.6,2.6" class="g1_578"/>
<path d="M610.4,149.3c0,1.4,-1.2,2.6,-2.6,2.6c-1.4,0,-2.5,-1.2,-2.5,-2.6c0,-1.4,1.1,-2.5,2.5,-2.5c1.4,0,2.6,1.1,2.6,2.5" class="g1_578"/>
<path d="M588.7,146.7c0,1.4,-1.1,2.6,-2.5,2.6c-1.4,0,-2.6,-1.2,-2.6,-2.6c0,-1.4,1.2,-2.5,2.6,-2.5c1.4,0,2.5,1.1,2.5,2.5" class="g1_578"/>
<path d="M604,162c0,1.5,-1.1,2.6,-2.5,2.6c-1.4,0,-2.6,-1.1,-2.6,-2.6c0,-1.4,1.2,-2.5,2.6,-2.5c1.4,0,2.5,1.1,2.5,2.5" class="g1_578"/>
<path d="M642.2,149.3c0,1.4,-1.1,2.6,-2.5,2.6c-1.4,0,-2.6,-1.2,-2.6,-2.6c0,-1.4,1.2,-2.5,2.6,-2.5c1.4,0,2.5,1.1,2.5,2.5" class="g1_578"/>
<path d="M623.1,155.7c0,1.4,-1.1,2.5,-2.5,2.5c-1.4,0,-2.6,-1.1,-2.6,-2.5c0,-1.4,1.2,-2.6,2.6,-2.6c1.4,0,2.5,1.2,2.5,2.6" class="g1_578"/>
<path d="M620.6,165.8c0,1.5,-1.2,2.6,-2.6,2.6c-1.4,0,-2.5,-1.1,-2.5,-2.6c0,-1.4,1.1,-2.5,2.5,-2.5c1.4,0,2.6,1.1,2.6,2.5" class="g1_578"/>
<path d="M550.5,140.4c0,1.4,-1.2,2.5,-2.6,2.5c-1.4,0,-2.5,-1.1,-2.5,-2.5c0,-1.4,1.1,-2.6,2.5,-2.6c1.4,0,2.6,1.2,2.6,2.6" class="g1_578"/>
<path d="M559.4,142.9c0,1.4,-1.1,2.6,-2.5,2.6c-1.4,0,-2.6,-1.2,-2.6,-2.6c0,-1.4,1.2,-2.5,2.6,-2.5c1.4,0,2.5,1.1,2.5,2.5" class="g1_578"/>
<path d="M578.5,142.9c0,1.4,-1.1,2.6,-2.5,2.6c-1.4,0,-2.6,-1.2,-2.6,-2.6c0,-1.4,1.2,-2.5,2.6,-2.5c1.4,0,2.5,1.1,2.5,2.5" class="g1_578"/>
<path d="M495.7,162c0,1.5,-1.1,2.6,-2.5,2.6c-1.4,0,-2.6,-1.1,-2.6,-2.6c0,-1.4,1.2,-2.5,2.6,-2.5c1.4,0,2.5,1.1,2.5,2.5" class="g1_578"/>
<path d="M499.5,146.7c0,1.4,-1.1,2.6,-2.5,2.6c-1.4,0,-2.6,-1.2,-2.6,-2.6c0,-1.4,1.2,-2.5,2.6,-2.5c1.4,0,2.5,1.1,2.5,2.5" class="g1_578"/>
<path d="M502.1,136.6c0,1.4,-1.2,2.5,-2.6,2.5c-1.4,0,-2.5,-1.1,-2.5,-2.5c0,-1.4,1.1,-2.6,2.5,-2.6c1.4,0,2.6,1.2,2.6,2.6" class="g1_578"/>
<path d="M505.9,114.9c0,1.4,-1.2,2.5,-2.6,2.5c-1.4,0,-2.5,-1.1,-2.5,-2.5c0,-1.4,1.1,-2.6,2.5,-2.6c1.4,0,2.6,1.2,2.6,2.6" class="g1_578"/>
<path d="M483,168.4c0,1.4,-1.2,2.6,-2.6,2.6c-1.4,0,-2.5,-1.2,-2.5,-2.6c0,-1.4,1.1,-2.5,2.5,-2.5c1.4,0,2.6,1.1,2.6,2.5" class="g1_578"/>
<path d="M495.7,181.2c0,1.4,-1.1,2.5,-2.5,2.5c-1.4,0,-2.6,-1.1,-2.6,-2.5c0,-1.5,1.2,-2.6,2.6,-2.6c1.4,0,2.5,1.1,2.5,2.6" class="g1_578"/>
<path d="M489.3,200.3c0,1.4,-1.1,2.5,-2.5,2.5c-1.4,0,-2.6,-1.1,-2.6,-2.5c0,-1.4,1.2,-2.6,2.6,-2.6c1.4,0,2.5,1.2,2.5,2.6" class="g1_578"/>
<path d="M476.6,219.4c0,1.4,-1.1,2.5,-2.5,2.5c-1.5,0,-2.6,-1.1,-2.6,-2.5c0,-1.4,1.1,-2.6,2.6,-2.6c1.4,0,2.5,1.2,2.5,2.6" class="g1_578"/>
<path d="M476.6,200.3c0,1.4,-1.1,2.5,-2.5,2.5c-1.5,0,-2.6,-1.1,-2.6,-2.5c0,-1.4,1.1,-2.6,2.6,-2.6c1.4,0,2.5,1.2,2.5,2.6" class="g1_578"/>
<path d="M476.6,174.8c0,1.4,-1.1,2.5,-2.5,2.5c-1.5,0,-2.6,-1.1,-2.6,-2.5c0,-1.4,1.1,-2.6,2.6,-2.6c1.4,0,2.5,1.2,2.5,2.6" class="g1_578"/>
<path d="M467.7,185c0,1.4,-1.2,2.5,-2.6,2.5c-1.4,0,-2.5,-1.1,-2.5,-2.5c0,-1.4,1.1,-2.6,2.5,-2.6c1.4,0,2.6,1.2,2.6,2.6" class="g1_578"/>
<path d="M483,187.5c0,1.4,-1.2,2.6,-2.6,2.6c-1.4,0,-2.5,-1.2,-2.5,-2.6c0,-1.4,1.1,-2.5,2.5,-2.5c1.4,0,2.6,1.1,2.6,2.5" class="g1_578"/>
<path d="M463.8,219.4c0,1.4,-1.1,2.5,-2.5,2.5c-1.4,0,-2.6,-1.1,-2.6,-2.5c0,-1.4,1.2,-2.6,2.6,-2.6c1.4,0,2.5,1.2,2.5,2.6" class="g1_578"/>
<path d="M476.6,238.5c0,1.4,-1.1,2.5,-2.5,2.5c-1.5,0,-2.6,-1.1,-2.6,-2.5c0,-1.4,1.1,-2.6,2.6,-2.6c1.4,0,2.5,1.2,2.5,2.6" class="g1_578"/>
<path d="M457.5,244.9c0,1.4,-1.2,2.5,-2.6,2.5c-1.4,0,-2.5,-1.1,-2.5,-2.5c0,-1.4,1.1,-2.6,2.5,-2.6c1.4,0,2.6,1.2,2.6,2.6" class="g1_578"/>
<path d="M457.5,200.3c0,1.4,-1.2,2.5,-2.6,2.5c-1.4,0,-2.5,-1.1,-2.5,-2.5c0,-1.4,1.1,-2.6,2.5,-2.6c1.4,0,2.6,1.2,2.6,2.6" class="g1_578"/>
<path d="M476.6,149.3c0,1.4,-1.1,2.6,-2.5,2.6c-1.5,0,-2.6,-1.2,-2.6,-2.6c0,-1.4,1.1,-2.5,2.6,-2.5c1.4,0,2.5,1.1,2.5,2.5" class="g1_578"/>
<path d="M489.3,142.9c0,1.4,-1.1,2.6,-2.5,2.6c-1.4,0,-2.6,-1.2,-2.6,-2.6c0,-1.4,1.2,-2.5,2.6,-2.5c1.4,0,2.5,1.1,2.5,2.5" class="g1_578"/>
<path d="M495.7,123.8c0,1.4,-1.1,2.6,-2.5,2.6c-1.4,0,-2.6,-1.2,-2.6,-2.6c0,-1.4,1.2,-2.5,2.6,-2.5c1.4,0,2.5,1.1,2.5,2.5" class="g1_578"/>
<path d="M476.6,123.8c0,1.4,-1.1,2.6,-2.5,2.6c-1.5,0,-2.6,-1.2,-2.6,-2.6c0,-1.4,1.1,-2.5,2.6,-2.5c1.4,0,2.5,1.1,2.5,2.5" class="g1_578"/>
<path d="M470.2,136.6c0,1.4,-1.1,2.5,-2.5,2.5c-1.4,0,-2.6,-1.1,-2.6,-2.5c0,-1.4,1.2,-2.6,2.6,-2.6c1.4,0,2.5,1.2,2.5,2.6" class="g1_578"/>
<path d="M463.8,149.3c0,1.4,-1.1,2.6,-2.5,2.6c-1.4,0,-2.6,-1.2,-2.6,-2.6c0,-1.4,1.2,-2.5,2.6,-2.5c1.4,0,2.5,1.1,2.5,2.5" class="g1_578"/>
<path d="M463.8,162c0,1.5,-1.1,2.6,-2.5,2.6c-1.4,0,-2.6,-1.1,-2.6,-2.6c0,-1.4,1.2,-2.5,2.6,-2.5c1.4,0,2.5,1.1,2.5,2.5" class="g1_578"/>
<path d="M451.1,174.8c0,1.4,-1.1,2.5,-2.6,2.5c-1.4,0,-2.5,-1.1,-2.5,-2.5c0,-1.4,1.1,-2.6,2.5,-2.6c1.5,0,2.6,1.2,2.6,2.6" class="g1_578"/>
<path d="M447.3,155.7c0,1.4,-1.2,2.5,-2.6,2.5c-1.4,0,-2.5,-1.1,-2.5,-2.5c0,-1.4,1.1,-2.6,2.5,-2.6c1.4,0,2.6,1.2,2.6,2.6" class="g1_578"/>
<path d="M448.6,191.3c0,1.4,-1.2,2.6,-2.6,2.6c-1.4,0,-2.5,-1.2,-2.5,-2.6c0,-1.4,1.1,-2.5,2.5,-2.5c1.4,0,2.6,1.1,2.6,2.5" class="g1_578"/>
<path d="M451.1,219.4c0,1.4,-1.1,2.5,-2.6,2.5c-1.4,0,-2.5,-1.1,-2.5,-2.5c0,-1.4,1.1,-2.6,2.5,-2.6c1.5,0,2.6,1.2,2.6,2.6" class="g1_578"/>
<path d="M451.1,260.2c0,1.4,-1.1,2.5,-2.6,2.5c-1.4,0,-2.5,-1.1,-2.5,-2.5c0,-1.5,1.1,-2.6,2.5,-2.6c1.5,0,2.6,1.1,2.6,2.6" class="g1_578"/>
<path d="M457.5,276.7c0,1.4,-1.2,2.6,-2.6,2.6c-1.4,0,-2.5,-1.2,-2.5,-2.6c0,-1.4,1.1,-2.5,2.5,-2.5c1.4,0,2.6,1.1,2.6,2.5" class="g1_578"/>
<path d="M470.2,270.3c0,1.5,-1.1,2.6,-2.5,2.6c-1.4,0,-2.6,-1.1,-2.6,-2.6c0,-1.4,1.2,-2.5,2.6,-2.5c1.4,0,2.5,1.1,2.5,2.5" class="g1_578"/>
<path d="M476.6,257.6c0,1.4,-1.1,2.6,-2.5,2.6c-1.5,0,-2.6,-1.2,-2.6,-2.6c0,-1.4,1.1,-2.5,2.6,-2.5c1.4,0,2.5,1.1,2.5,2.5" class="g1_578"/>
<path d="M474,299.6c0,1.4,-1.1,2.6,-2.5,2.6c-1.4,0,-2.6,-1.2,-2.6,-2.6c0,-1.4,1.2,-2.5,2.6,-2.5c1.4,0,2.5,1.1,2.5,2.5" class="g1_578"/>
<path d="M470.2,314.9c0,1.5,-1.1,2.6,-2.5,2.6c-1.4,0,-2.6,-1.1,-2.6,-2.6c0,-1.4,1.2,-2.5,2.6,-2.5c1.4,0,2.5,1.1,2.5,2.5" class="g1_578"/>
<path d="M470.2,321.3c0,1.4,-1.1,2.6,-2.5,2.6c-1.4,0,-2.6,-1.2,-2.6,-2.6c0,-1.4,1.2,-2.5,2.6,-2.5c1.4,0,2.5,1.1,2.5,2.5" class="g1_578"/>
<path d="M470.2,334.1c0,1.4,-1.1,2.5,-2.5,2.5c-1.4,0,-2.6,-1.1,-2.6,-2.5c0,-1.5,1.2,-2.6,2.6,-2.6c1.4,0,2.5,1.1,2.5,2.6" class="g1_578"/>
<path d="M457.5,346.8c0,1.4,-1.2,2.5,-2.6,2.5c-1.4,0,-2.5,-1.1,-2.5,-2.5c0,-1.4,1.1,-2.6,2.5,-2.6c1.4,0,2.6,1.2,2.6,2.6" class="g1_578"/>
<path d="M470.2,365.9c0,1.4,-1.1,2.6,-2.5,2.6c-1.4,0,-2.6,-1.2,-2.6,-2.6c0,-1.4,1.2,-2.5,2.6,-2.5c1.4,0,2.5,1.1,2.5,2.5" class="g1_578"/>
<path d="M495.7,365.9c0,1.4,-1.1,2.6,-2.5,2.6c-1.4,0,-2.6,-1.2,-2.6,-2.6c0,-1.4,1.2,-2.5,2.6,-2.5c1.4,0,2.5,1.1,2.5,2.5" class="g1_578"/>
<path d="M514.8,365.9c0,1.4,-1.1,2.6,-2.5,2.6c-1.4,0,-2.6,-1.2,-2.6,-2.6c0,-1.4,1.2,-2.5,2.6,-2.5c1.4,0,2.5,1.1,2.5,2.5" class="g1_578"/>
<path d="M533.9,365.9c0,1.4,-1.1,2.6,-2.5,2.6c-1.4,0,-2.6,-1.2,-2.6,-2.6c0,-1.4,1.2,-2.5,2.6,-2.5c1.4,0,2.5,1.1,2.5,2.5" class="g1_578"/>
<path d="M553.1,372.3c0,1.4,-1.2,2.5,-2.6,2.5c-1.4,0,-2.5,-1.1,-2.5,-2.5c0,-1.4,1.1,-2.6,2.5,-2.6c1.4,0,2.6,1.2,2.6,2.6" class="g1_578"/>
<path d="M569.6,369.7c0,1.4,-1.1,2.6,-2.5,2.6c-1.5,0,-2.6,-1.2,-2.6,-2.6c0,-1.4,1.1,-2.5,2.6,-2.5c1.4,0,2.5,1.1,2.5,2.5" class="g1_578"/>
<path d="M572.2,372.3c0,1.4,-1.2,2.5,-2.6,2.5c-1.4,0,-2.5,-1.1,-2.5,-2.5c0,-1.4,1.1,-2.6,2.5,-2.6c1.4,0,2.6,1.2,2.6,2.6" class="g1_578"/>
<path d="M588.7,363.4c0,1.4,-1.1,2.5,-2.5,2.5c-1.4,0,-2.6,-1.1,-2.6,-2.5c0,-1.4,1.2,-2.6,2.6,-2.6c1.4,0,2.5,1.2,2.5,2.6" class="g1_578"/>
<path d="M597.6,353.2c0,1.4,-1.1,2.5,-2.5,2.5c-1.4,0,-2.5,-1.1,-2.5,-2.5c0,-1.4,1.1,-2.6,2.5,-2.6c1.4,0,2.5,1.2,2.5,2.6" class="g1_578"/>
<path d="M604,340.4c0,1.4,-1.1,2.6,-2.5,2.6c-1.4,0,-2.6,-1.2,-2.6,-2.6c0,-1.4,1.2,-2.5,2.6,-2.5c1.4,0,2.5,1.1,2.5,2.5" class="g1_578"/>
<path d="M610.4,317.5c0,1.4,-1.2,2.6,-2.6,2.6c-1.4,0,-2.5,-1.2,-2.5,-2.6c0,-1.4,1.1,-2.5,2.5,-2.5c1.4,0,2.6,1.1,2.6,2.5" class="g1_578"/>
<path d="M623.1,302.2c0,1.4,-1.1,2.6,-2.5,2.6c-1.4,0,-2.6,-1.2,-2.6,-2.6c0,-1.4,1.2,-2.5,2.6,-2.5c1.4,0,2.5,1.1,2.5,2.5" class="g1_578"/>
<path d="M642.2,257.6c0,1.4,-1.1,2.6,-2.5,2.6c-1.4,0,-2.6,-1.2,-2.6,-2.6c0,-1.4,1.2,-2.5,2.6,-2.5c1.4,0,2.5,1.1,2.5,2.5" class="g1_578"/>
<path d="M658.8,255c0,1.4,-1.2,2.6,-2.6,2.6c-1.4,0,-2.5,-1.2,-2.5,-2.6c0,-1.4,1.1,-2.5,2.5,-2.5c1.4,0,2.6,1.1,2.6,2.5" class="g1_578"/>
<path d="M661.4,270.3c0,1.5,-1.2,2.6,-2.6,2.6c-1.4,0,-2.5,-1.1,-2.5,-2.6c0,-1.4,1.1,-2.5,2.5,-2.5c1.4,0,2.6,1.1,2.6,2.5" class="g1_578"/>
<path d="M661.4,283.1c0,1.4,-1.2,2.5,-2.6,2.5c-1.4,0,-2.5,-1.1,-2.5,-2.5c0,-1.4,1.1,-2.6,2.5,-2.6c1.4,0,2.6,1.2,2.6,2.6" class="g1_578"/>
<path d="M655,295.8c0,1.4,-1.2,2.6,-2.6,2.6c-1.4,0,-2.5,-1.2,-2.5,-2.6c0,-1.4,1.1,-2.5,2.5,-2.5c1.4,0,2.6,1.1,2.6,2.5" class="g1_578"/>
<path d="M655,314.9c0,1.5,-1.2,2.6,-2.6,2.6c-1.4,0,-2.5,-1.1,-2.5,-2.6c0,-1.4,1.1,-2.5,2.5,-2.5c1.4,0,2.6,1.1,2.6,2.5" class="g1_578"/>
<path d="M648.6,321.3c0,1.4,-1.1,2.6,-2.5,2.6c-1.4,0,-2.6,-1.2,-2.6,-2.6c0,-1.4,1.2,-2.5,2.6,-2.5c1.4,0,2.5,1.1,2.5,2.5" class="g1_578"/>
<path d="M642.2,334.1c0,1.4,-1.1,2.5,-2.5,2.5c-1.4,0,-2.6,-1.1,-2.6,-2.5c0,-1.5,1.2,-2.6,2.6,-2.6c1.4,0,2.5,1.1,2.5,2.6" class="g1_578"/>
<path d="M648.6,340.4c0,1.4,-1.1,2.6,-2.5,2.6c-1.4,0,-2.6,-1.2,-2.6,-2.6c0,-1.4,1.2,-2.5,2.6,-2.5c1.4,0,2.5,1.1,2.5,2.5" class="g1_578"/>
<path d="M635.9,346.8c0,1.4,-1.2,2.5,-2.6,2.5c-1.4,0,-2.5,-1.1,-2.5,-2.5c0,-1.4,1.1,-2.6,2.5,-2.6c1.4,0,2.6,1.2,2.6,2.6" class="g1_578"/>
<path d="M616.8,359.5c0,1.4,-1.2,2.6,-2.6,2.6c-1.4,0,-2.5,-1.2,-2.5,-2.6c0,-1.4,1.1,-2.5,2.5,-2.5c1.4,0,2.6,1.1,2.6,2.5" class="g1_578"/>
<path d="M616.8,372.3c0,1.4,-1.2,2.5,-2.6,2.5c-1.4,0,-2.5,-1.1,-2.5,-2.5c0,-1.4,1.1,-2.6,2.5,-2.6c1.4,0,2.6,1.2,2.6,2.6" class="g1_578"/>
<path d="M597.6,381.2c0,1.4,-1.1,2.6,-2.5,2.6c-1.4,0,-2.5,-1.2,-2.5,-2.6c0,-1.4,1.1,-2.5,2.5,-2.5c1.4,0,2.5,1.1,2.5,2.5" class="g1_578"/>
<path d="M584.9,391.4c0,1.4,-1.1,2.5,-2.5,2.5c-1.4,0,-2.6,-1.1,-2.6,-2.5c0,-1.4,1.2,-2.6,2.6,-2.6c1.4,0,2.5,1.2,2.5,2.6" class="g1_578"/>
<path d="M565.8,391.4c0,1.4,-1.1,2.5,-2.6,2.5c-1.4,0,-2.5,-1.1,-2.5,-2.5c0,-1.4,1.1,-2.6,2.5,-2.6c1.5,0,2.6,1.2,2.6,2.6" class="g1_578"/>
<path d="M540.3,391.4c0,1.4,-1.1,2.5,-2.5,2.5c-1.4,0,-2.6,-1.1,-2.6,-2.5c0,-1.4,1.2,-2.6,2.6,-2.6c1.4,0,2.5,1.2,2.5,2.6" class="g1_578"/>
<path d="M521.2,391.4c0,1.4,-1.1,2.5,-2.5,2.5c-1.5,0,-2.6,-1.1,-2.6,-2.5c0,-1.4,1.1,-2.6,2.6,-2.6c1.4,0,2.5,1.2,2.5,2.6" class="g1_578"/>
<path d="M495.7,385c0,1.4,-1.1,2.6,-2.5,2.6c-1.4,0,-2.6,-1.2,-2.6,-2.6c0,-1.4,1.2,-2.5,2.6,-2.5c1.4,0,2.5,1.1,2.5,2.5" class="g1_578"/>
<path d="M489.3,378.7c0,1.4,-1.1,2.5,-2.5,2.5c-1.4,0,-2.6,-1.1,-2.6,-2.5c0,-1.5,1.2,-2.6,2.6,-2.6c1.4,0,2.5,1.1,2.5,2.6" class="g1_578"/>
<path d="M489.3,349.4c0,1.4,-1.1,2.5,-2.5,2.5c-1.4,0,-2.6,-1.1,-2.6,-2.5c0,-1.4,1.2,-2.6,2.6,-2.6c1.4,0,2.5,1.2,2.5,2.6" class="g1_578"/>
<path d="M489.3,334.1c0,1.4,-1.1,2.5,-2.5,2.5c-1.4,0,-2.6,-1.1,-2.6,-2.5c0,-1.5,1.2,-2.6,2.6,-2.6c1.4,0,2.5,1.1,2.5,2.6" class="g1_578"/>
<path d="M483,317.5c0,1.4,-1.2,2.6,-2.6,2.6c-1.4,0,-2.5,-1.2,-2.5,-2.6c0,-1.4,1.1,-2.5,2.5,-2.5c1.4,0,2.6,1.1,2.6,2.5" class="g1_578"/>
<path d="M476.6,289.5c0,1.4,-1.1,2.5,-2.5,2.5c-1.5,0,-2.6,-1.1,-2.6,-2.5c0,-1.4,1.1,-2.6,2.6,-2.6c1.4,0,2.5,1.2,2.5,2.6" class="g1_578"/>
<path d="M451.1,298.4c0,1.4,-1.1,2.5,-2.6,2.5c-1.4,0,-2.5,-1.1,-2.5,-2.5c0,-1.4,1.1,-2.6,2.5,-2.6c1.5,0,2.6,1.2,2.6,2.6" class="g1_578"/>
<path d="M438.4,279.3c0,1.4,-1.2,2.5,-2.6,2.5c-1.4,0,-2.5,-1.1,-2.5,-2.5c0,-1.4,1.1,-2.6,2.5,-2.6c1.4,0,2.6,1.2,2.6,2.6" class="g1_578"/>
<path d="M438.4,264c0,1.4,-1.2,2.5,-2.6,2.5c-1.4,0,-2.5,-1.1,-2.5,-2.5c0,-1.4,1.1,-2.6,2.5,-2.6c1.4,0,2.6,1.2,2.6,2.6" class="g1_578"/>
<path d="M432,251.2c0,1.4,-1.2,2.6,-2.6,2.6c-1.4,0,-2.5,-1.2,-2.5,-2.6c0,-1.4,1.1,-2.5,2.5,-2.5c1.4,0,2.6,1.1,2.6,2.5" class="g1_578"/>
<path d="M432,238.5c0,1.4,-1.2,2.5,-2.6,2.5c-1.4,0,-2.5,-1.1,-2.5,-2.5c0,-1.4,1.1,-2.6,2.5,-2.6c1.4,0,2.6,1.2,2.6,2.6" class="g1_578"/>
<path d="M444.7,228.3c0,1.4,-1.1,2.5,-2.5,2.5c-1.4,0,-2.6,-1.1,-2.6,-2.5c0,-1.4,1.2,-2.6,2.6,-2.6c1.4,0,2.5,1.2,2.5,2.6" class="g1_578"/>
<path d="M432,219.4c0,1.4,-1.2,2.5,-2.6,2.5c-1.4,0,-2.5,-1.1,-2.5,-2.5c0,-1.4,1.1,-2.6,2.5,-2.6c1.4,0,2.6,1.2,2.6,2.6" class="g1_578"/>
<path d="M438.4,206.6c0,1.4,-1.2,2.6,-2.6,2.6c-1.4,0,-2.5,-1.2,-2.5,-2.6c0,-1.4,1.1,-2.5,2.5,-2.5c1.4,0,2.6,1.1,2.6,2.5" class="g1_578"/>
<path d="M438.4,187.5c0,1.4,-1.2,2.6,-2.6,2.6c-1.4,0,-2.5,-1.2,-2.5,-2.6c0,-1.4,1.1,-2.5,2.5,-2.5c1.4,0,2.6,1.1,2.6,2.5" class="g1_578"/>
<path d="M432,270.3c0,1.5,-1.2,2.6,-2.6,2.6c-1.4,0,-2.5,-1.1,-2.5,-2.6c0,-1.4,1.1,-2.5,2.5,-2.5c1.4,0,2.6,1.1,2.6,2.5" class="g1_578"/>
<path d="M428.2,289.5c0,1.4,-1.2,2.5,-2.6,2.5c-1.4,0,-2.5,-1.1,-2.5,-2.5c0,-1.4,1.1,-2.6,2.5,-2.6c1.4,0,2.6,1.2,2.6,2.6" class="g1_578"/>
<path d="M435.8,306c0,1.4,-1.1,2.6,-2.5,2.6c-1.4,0,-2.6,-1.2,-2.6,-2.6c0,-1.4,1.2,-2.5,2.6,-2.5c1.4,0,2.5,1.1,2.5,2.5" class="g1_578"/>
<path d="M444.7,321.3c0,1.4,-1.1,2.6,-2.5,2.6c-1.4,0,-2.6,-1.2,-2.6,-2.6c0,-1.4,1.2,-2.5,2.6,-2.5c1.4,0,2.5,1.1,2.5,2.5" class="g1_578"/>
<path d="M442.2,331.5c0,1.4,-1.2,2.6,-2.6,2.6c-1.4,0,-2.5,-1.2,-2.5,-2.6c0,-1.4,1.1,-2.5,2.5,-2.5c1.4,0,2.6,1.1,2.6,2.5" class="g1_578"/>
<path d="M454.9,312.4c0,1.4,-1.1,2.5,-2.5,2.5c-1.4,0,-2.6,-1.1,-2.6,-2.5c0,-1.4,1.2,-2.5,2.6,-2.5c1.4,0,2.5,1.1,2.5,2.5" class="g1_578"/>
<path d="M476.6,353.2c0,1.4,-1.1,2.5,-2.5,2.5c-1.5,0,-2.6,-1.1,-2.6,-2.5c0,-1.4,1.1,-2.6,2.6,-2.6c1.4,0,2.5,1.2,2.5,2.6" class="g1_578"/>
<path d="M502.1,346.8c0,1.4,-1.2,2.5,-2.6,2.5c-1.4,0,-2.5,-1.1,-2.5,-2.5c0,-1.4,1.1,-2.6,2.5,-2.6c1.4,0,2.6,1.2,2.6,2.6" class="g1_578"/>
<path d="M512.3,376.1c0,1.4,-1.2,2.6,-2.6,2.6c-1.4,0,-2.5,-1.2,-2.5,-2.6c0,-1.4,1.1,-2.5,2.5,-2.5c1.4,0,2.6,1.1,2.6,2.5" class="g1_578"/>
<path d="M533.9,378.7c0,1.4,-1.1,2.5,-2.5,2.5c-1.4,0,-2.6,-1.1,-2.6,-2.5c0,-1.5,1.2,-2.6,2.6,-2.6c1.4,0,2.5,1.1,2.5,2.6" class="g1_578"/>
<path d="M565.8,385c0,1.4,-1.1,2.6,-2.6,2.6c-1.4,0,-2.5,-1.2,-2.5,-2.6c0,-1.4,1.1,-2.5,2.5,-2.5c1.5,0,2.6,1.1,2.6,2.5" class="g1_578"/>
<path d="M553.1,385c0,1.4,-1.2,2.6,-2.6,2.6c-1.4,0,-2.5,-1.2,-2.5,-2.6c0,-1.4,1.1,-2.5,2.5,-2.5c1.4,0,2.6,1.1,2.6,2.5" class="g1_578"/>
<path d="M616.8,327.7c0,1.4,-1.2,2.5,-2.6,2.5c-1.4,0,-2.5,-1.1,-2.5,-2.5c0,-1.4,1.1,-2.6,2.5,-2.6c1.4,0,2.6,1.2,2.6,2.6" class="g1_578"/>
<path d="M642.2,289.5c0,1.4,-1.1,2.5,-2.5,2.5c-1.4,0,-2.6,-1.1,-2.6,-2.5c0,-1.4,1.2,-2.6,2.6,-2.6c1.4,0,2.5,1.2,2.5,2.6" class="g1_578"/>
<path d="M642.2,270.3c0,1.5,-1.1,2.6,-2.5,2.6c-1.4,0,-2.6,-1.1,-2.6,-2.6c0,-1.4,1.2,-2.5,2.6,-2.5c1.4,0,2.5,1.1,2.5,2.5" class="g1_578"/>
<path d="M642.2,308.6c0,1.4,-1.1,2.5,-2.5,2.5c-1.4,0,-2.6,-1.1,-2.6,-2.5c0,-1.4,1.2,-2.6,2.6,-2.6c1.4,0,2.5,1.2,2.5,2.6" class="g1_578"/>
<path d="M629.5,321.3c0,1.4,-1.1,2.6,-2.5,2.6c-1.5,0,-2.6,-1.2,-2.6,-2.6c0,-1.4,1.1,-2.5,2.6,-2.5c1.4,0,2.5,1.1,2.5,2.5" class="g1_578"/>
<path d="M623.1,340.4c0,1.4,-1.1,2.6,-2.5,2.6c-1.4,0,-2.6,-1.2,-2.6,-2.6c0,-1.4,1.2,-2.5,2.6,-2.5c1.4,0,2.5,1.1,2.5,2.5" class="g1_578"/>
<path d="M629.5,365.9c0,1.4,-1.1,2.6,-2.5,2.6c-1.5,0,-2.6,-1.2,-2.6,-2.6c0,-1.4,1.1,-2.5,2.6,-2.5c1.4,0,2.5,1.1,2.5,2.5" class="g1_578"/>
<path d="M642.2,359.5c0,1.4,-1.1,2.6,-2.5,2.6c-1.4,0,-2.6,-1.2,-2.6,-2.6c0,-1.4,1.2,-2.5,2.6,-2.5c1.4,0,2.5,1.1,2.5,2.5" class="g1_578"/>
<path d="M680.5,257.6c0,1.4,-1.2,2.6,-2.6,2.6c-1.4,0,-2.5,-1.2,-2.5,-2.6c0,-1.4,1.1,-2.5,2.5,-2.5c1.4,0,2.6,1.1,2.6,2.5" class="g1_578"/>
<path d="M680.5,270.3c0,1.5,-1.2,2.6,-2.6,2.6c-1.4,0,-2.5,-1.1,-2.5,-2.6c0,-1.4,1.1,-2.5,2.5,-2.5c1.4,0,2.6,1.1,2.6,2.5" class="g1_578"/>
<path d="M680.5,283.1c0,1.4,-1.2,2.5,-2.6,2.5c-1.4,0,-2.5,-1.1,-2.5,-2.5c0,-1.4,1.1,-2.6,2.5,-2.6c1.4,0,2.6,1.2,2.6,2.6" class="g1_578"/>
<path d="M629.5,136.6c0,1.4,-1.1,2.5,-2.5,2.5c-1.5,0,-2.6,-1.1,-2.6,-2.5c0,-1.4,1.1,-2.6,2.6,-2.6c1.4,0,2.5,1.2,2.5,2.6" class="g1_578"/>
<path d="M616.8,123.8c0,1.4,-1.2,2.6,-2.6,2.6c-1.4,0,-2.5,-1.2,-2.5,-2.6c0,-1.4,1.1,-2.5,2.5,-2.5c1.4,0,2.6,1.1,2.6,2.5" class="g1_578"/>
<path d="M597.6,257.6c0,1.4,-1.1,2.6,-2.5,2.6c-1.4,0,-2.5,-1.2,-2.5,-2.6c0,-1.4,1.1,-2.5,2.5,-2.5c1.4,0,2.5,1.1,2.5,2.5" class="g1_578"/>
<path d="M623.1,251.2c0,1.4,-1.1,2.6,-2.5,2.6c-1.4,0,-2.6,-1.2,-2.6,-2.6c0,-1.4,1.2,-2.5,2.6,-2.5c1.4,0,2.5,1.1,2.5,2.5" class="g1_578"/>
<path d="M616.8,270.3c0,1.5,-1.2,2.6,-2.6,2.6c-1.4,0,-2.5,-1.1,-2.5,-2.6c0,-1.4,1.1,-2.5,2.5,-2.5c1.4,0,2.6,1.1,2.6,2.5" class="g1_578"/>
<path d="M588.7,267.8c0,1.4,-1.1,2.5,-2.5,2.5c-1.4,0,-2.6,-1.1,-2.6,-2.5c0,-1.4,1.2,-2.6,2.6,-2.6c1.4,0,2.5,1.2,2.5,2.6" class="g1_578"/>
<path d="M601.5,280.5c0,1.4,-1.2,2.6,-2.6,2.6c-1.4,0,-2.5,-1.2,-2.5,-2.6c0,-1.4,1.1,-2.5,2.5,-2.5c1.4,0,2.6,1.1,2.6,2.5" class="g1_578"/>
<path d="M623.1,283.1c0,1.4,-1.1,2.5,-2.5,2.5c-1.4,0,-2.6,-1.1,-2.6,-2.5c0,-1.4,1.2,-2.6,2.6,-2.6c1.4,0,2.5,1.2,2.5,2.6" class="g1_578"/>
<path d="M616.8,385c0,1.4,-1.2,2.6,-2.6,2.6c-1.4,0,-2.5,-1.2,-2.5,-2.6c0,-1.4,1.1,-2.5,2.5,-2.5c1.4,0,2.6,1.1,2.6,2.5" class="g1_578"/>
<path d="M629.5,378.7c0,1.4,-1.1,2.5,-2.5,2.5c-1.5,0,-2.6,-1.1,-2.6,-2.5c0,-1.5,1.1,-2.6,2.6,-2.6c1.4,0,2.5,1.1,2.5,2.6" class="g1_578"/>
<path d="M604,391.4c0,1.4,-1.1,2.5,-2.5,2.5c-1.4,0,-2.6,-1.1,-2.6,-2.5c0,-1.4,1.2,-2.6,2.6,-2.6c1.4,0,2.5,1.2,2.5,2.6" class="g1_578"/>
<path d="M576,401.6c0,1.4,-1.2,2.5,-2.6,2.5c-1.4,0,-2.5,-1.1,-2.5,-2.5c0,-1.4,1.1,-2.6,2.5,-2.6c1.4,0,2.6,1.2,2.6,2.6" class="g1_578"/>
<path d="M559.4,404.1c0,1.4,-1.1,2.6,-2.5,2.6c-1.4,0,-2.6,-1.2,-2.6,-2.6c0,-1.4,1.2,-2.5,2.6,-2.5c1.4,0,2.5,1.1,2.5,2.5" class="g1_578"/>
<path d="M540.3,404.1c0,1.4,-1.1,2.6,-2.5,2.6c-1.4,0,-2.6,-1.2,-2.6,-2.6c0,-1.4,1.2,-2.5,2.6,-2.5c1.4,0,2.5,1.1,2.5,2.5" class="g1_578"/>
<path d="M512.3,395.2c0,1.4,-1.2,2.6,-2.6,2.6c-1.4,0,-2.5,-1.2,-2.5,-2.6c0,-1.4,1.1,-2.5,2.5,-2.5c1.4,0,2.6,1.1,2.6,2.5" class="g1_578"/>
<path d="M419.2,308.6c0,1.4,-1.1,2.5,-2.5,2.5c-1.4,0,-2.6,-1.1,-2.6,-2.5c0,-1.4,1.2,-2.6,2.6,-2.6c1.4,0,2.5,1.2,2.5,2.6" class="g1_578"/>
<path d="M412.9,257.6c0,1.4,-1.2,2.6,-2.6,2.6c-1.4,0,-2.5,-1.2,-2.5,-2.6c0,-1.4,1.1,-2.5,2.5,-2.5c1.4,0,2.6,1.1,2.6,2.5" class="g1_578"/>
<path d="M693.2,270.3c0,1.5,-1.1,2.6,-2.5,2.6c-1.4,0,-2.6,-1.1,-2.6,-2.6c0,-1.4,1.2,-2.5,2.6,-2.5c1.4,0,2.5,1.1,2.5,2.5" class="g1_578"/>
<path d="M597.6,404.1c0,1.4,-1.1,2.6,-2.5,2.6c-1.4,0,-2.5,-1.2,-2.5,-2.6c0,-1.4,1.1,-2.5,2.5,-2.5c1.4,0,2.5,1.1,2.5,2.5" class="g1_578"/>
<path d="M521.2,410.5c0,1.4,-1.1,2.6,-2.5,2.6c-1.5,0,-2.6,-1.2,-2.6,-2.6c0,-1.4,1.1,-2.5,2.6,-2.5c1.4,0,2.5,1.1,2.5,2.5" class="g1_578"/>
<path d="M652.4,363.4c0,1.4,-1.1,2.5,-2.5,2.5c-1.4,0,-2.6,-1.1,-2.6,-2.5c0,-1.4,1.2,-2.6,2.6,-2.6c1.4,0,2.5,1.2,2.5,2.6" class="g1_578"/>
<path d="M584.9,104.7c0,1.4,-1.1,2.6,-2.5,2.6c-1.4,0,-2.6,-1.2,-2.6,-2.6c0,-1.4,1.2,-2.5,2.6,-2.5c1.4,0,2.5,1.1,2.5,2.5" class="g1_578"/>
<path d="M514.8,104.7c0,1.4,-1.1,2.6,-2.5,2.6c-1.4,0,-2.6,-1.2,-2.6,-2.6c0,-1.4,1.2,-2.5,2.6,-2.5c1.4,0,2.5,1.1,2.5,2.5" class="g1_578"/>
<path d="M639.7,142.9l51,127.4l-38.3,95.6l-57.3,38.2l-76.5,6.4L461.3,365.9L416.7,308.6l-6.4,-51L442.2,155.7L474,123.8l38.3,-19.1m0,0H576l38.2,19.1l25.5,25.5" class="g2_578"/>
<path d="M65.1,440.2h621" class="g0_578"/>
</svg>