<?xml version="1.0" encoding="UTF-8" standalone="no"?>
<!DOCTYPE svg PUBLIC "-//W3C//DTD SVG 1.1//EN"
"http://www.w3.org/Graphics/SVG/1.1/DTD/svg11.dtd">
<svg viewBox="0 0 660 990" version="1.1" xmlns="http://www.w3.org/2000/svg" xmlns:xlink="http://www.w3.org/1999/xlink">
<defs>
<clipPath id="c0_303"><path d="M86.9,289.5l-1.2,-2.4l-1.2,-2.3H576.2l-1.1,2.3l-1.2,2.4Z"/></clipPath>
<clipPath id="c1_303"><path d="M577.3,804.9L575,803.7l-2.4,-1.2V288.2L575,287l2.3,-1.2V804.9Z"/></clipPath>
<clipPath id="c2_303"><path d="M84.5,805.9l1.2,-2.3l1.2,-2.4h487l1.2,2.4l1.1,2.3Z"/></clipPath>
<clipPath id="c3_303"><path d="M83.5,804.9V285.8l2.3,1.2l2.4,1.2V802.5l-2.4,1.2l-2.3,1.2Z"/></clipPath>
<clipPath id="c4_303"><path d="M85.6,915.9v-5.1H574.4v5.1Z"/></clipPath>
<style type="text/css"><![CDATA[
.g0_303{
fill: none;
stroke: #231F20;
stroke-width: 0.381;
stroke-linecap: round;
stroke-linejoin: miter;
}
.g1_303{
fill: #FFFFFF;
}
.g2_303{
fill: #231F20;
}
.g3_303{
fill: none;
stroke: #231F20;
stroke-width: 0.763;
stroke-linecap: round;
stroke-linejoin: miter;
}
]]></style>
</defs>
<path clip-path="url(#c0_303)" d="M85.6,287.1H575.1" class="g0_303"/>
<path clip-path="url(#c1_303)" d="M575,286.9V803.8" class="g0_303"/>
<path clip-path="url(#c2_303)" d="M575.1,803.6H85.6" class="g0_303"/>
<path clip-path="url(#c3_303)" d="M85.8,803.8V286.9" class="g0_303"/>
<path fill-rule="evenodd" d="M597.3,913H660v77H597.3V913Z" class="g1_303"/>
<path fill-rule="evenodd" d="M597.3,77H660v92.4H597.3V77Z" class="g2_303"/>
<path fill-rule="evenodd" d="M597.3,0H660V77H597.3V0Z" class="g1_303"/>
<path clip-path="url(#c4_303)" d="M85.6,913.4H574.4" class="g3_303"/>
<image preserveAspectRatio="none" x="142" y="295" width="377" height="500" xlink:href="img/1.jpg"/>
</svg>