<?xml version="1.0" encoding="UTF-8" standalone="no"?>
<!DOCTYPE svg PUBLIC "-//W3C//DTD SVG 1.1//EN"
"http://www.w3.org/Graphics/SVG/1.1/DTD/svg11.dtd">
<svg viewBox="0 0 811 1017" version="1.1" xmlns="http://www.w3.org/2000/svg" xmlns:xlink="http://www.w3.org/1999/xlink">
<defs>
<clipPath id="c0_473"><path d="M101.1,489.9V82.5H724.4V489.9Z"/></clipPath>
<clipPath id="c1_473"><path d="M103.4,437.2V85.4H592V437.2Z"/></clipPath>
<clipPath id="c2_473"><path d="M101.1,868V509.8H724.4V868Z"/></clipPath>
<clipPath id="c3_473"><path d="M103.4,858.8V513.6H593.6V858.8Z"/></clipPath>
<style type="text/css"><![CDATA[
.g0_473{
fill: #FFFFFF;
}
.g1_473{
fill: #231F20;
}
]]></style>
</defs>
<path clip-path="url(#c0_473)" d="M103.4,437.2h621V85.4h-621Z" class="g0_473"/>
<image clip-path="url(#c1_473)" preserveAspectRatio="none" x="103" y="85" width="490" height="353" xlink:href="img/1.jpg"/>
<path d="M438,259.4c.3,0,.6,0,.9,0c35.7,0,61.4,7.6,85.3,15.3c23.9,7.7,46,15.4,74.4,15.4c2,0,3.9,-.1,5.9,-.1v-.5c-2,.1,-3.9,.1,-5.9,.1c-28.3,0,-50.3,-7.7,-74.3,-15.3c-23.9,-7.7,-49.7,-15.4,-85.4,-15.4c-.3,0,-.6,0,-.9,0v.5Z" class="g1_473"/>
<path d="M438.9,262.1l-5,-2.9l5,-2.9v5.8Z" class="g1_473"/>
<path d="M410.8,209.9c2,0,4,0,6,0c45.4,0,78.6,-12.1,107,-24.2c28.3,-12,51.7,-24.1,77.7,-24.1c.7,0,1.5,0,2.3,0v-.4c-.8,-.1,-1.6,-.1,-2.3,-.1c-26.1,0,-49.6,12.1,-77.9,24.2c-28.3,12.1,-61.5,24.2,-106.8,24.2c-2,0,-4,0,-6,-.1v.5Z" class="g1_473"/>
<path d="M411.6,212.4l-4.9,-2.9l4.9,-2.8v5.7Z" class="g1_473"/>
<path clip-path="url(#c2_473)" d="M103.4,858.8h621V513.6h-621Z" class="g0_473"/>
<image clip-path="url(#c3_473)" preserveAspectRatio="none" x="103" y="513" width="491" height="347" xlink:href="img/2.jpg"/>
<path d="M574.3,696.4c8.6,-.1,17.4,-.3,26,-.3c16.4,0,31.9,.7,43.7,4.3c11.8,3.5,19.9,9.8,21.4,21h.5C664.3,709.9,656,703.5,644.1,699.9c-11.9,-3.5,-27.4,-4.3,-43.8,-4.3c-8.6,0,-17.4,.2,-26.1,.3l.1,.5Z" class="g1_473"/>
<path d="M575.1,699l-5,-2.8l5,-2.9V699Z" class="g1_473"/>
</svg>