<?xml version="1.0" encoding="UTF-8" standalone="no"?>
<!DOCTYPE svg PUBLIC "-//W3C//DTD SVG 1.1//EN"
"http://www.w3.org/Graphics/SVG/1.1/DTD/svg11.dtd">
<svg viewBox="0 0 931 1096" version="1.1" xmlns="http://www.w3.org/2000/svg" xmlns:xlink="http://www.w3.org/1999/xlink">
<defs>
<clipPath id="c0_267"><path d="M107,461V427.4H880V461Z"/></clipPath>
<clipPath id="c1_267"><path d="M769,966.8Zm0,0c13.4,-20.8,26.7,-41.5,40.1,-62.3L845.4,963c-7.4,-4.7,-21.6,-7.4,-36.1,-7.4c-6.7,0,-13.4,.6,-19.7,1.8c-10.9,2,-18.1,5.5,-20.6,9.4Z"/></clipPath>
<clipPath id="c2_267"><path d="M849.3,966.7c0,0,0,-.1,0,-.1c0,0,0,.1,0,.1Zm0,-.1c-.8,-1.2,-2.1,-2.4,-3.9,-3.6L809.1,904.5c13.4,20.7,26.8,41.4,40.2,62.1Z"/></clipPath>
<clipPath id="c3_267"><path d="M809.1,983.9c-14.6,0,-28.7,-2.6,-36.1,-7.4c-10.8,-6.8,-3.4,-15.4,16.6,-19.1c6.3,-1.2,13,-1.8,19.6,-1.8c14.6,0,28.8,2.7,36.2,7.4c10.8,6.9,3.3,15.5,-16.7,19.2c-6.2,1.2,-13,1.7,-19.6,1.7Z"/></clipPath>
<clipPath id="c4_267"><path d="M809.1,983.9c-14.6,0,-28.7,-2.6,-36.1,-7.4c-4.9,-3.1,-6.1,-6.5,-4,-9.7c13.4,-20.8,26.7,-41.5,40.1,-62.3c13.4,20.7,26.8,41.5,40.2,62.2c3.9,6,-4,12.4,-20.6,15.5c-6.2,1.2,-13,1.7,-19.6,1.7Z"/></clipPath>
<clipPath id="c5_267"><path d="M649.3,905.1l33.2,-67.3c4.4,2.7,5.5,5.7,3.7,8.5c-11,17.6,-25.8,41.1,-36.9,58.8Z"/></clipPath>
<clipPath id="c6_267"><path d="M649.3,905.1l33.2,-67.3c4.4,2.7,5.5,5.7,3.7,8.5c-12.3,19.6,-24.6,39.2,-36.9,58.8Z"/></clipPath>
<clipPath id="c7_267"><path d="M649.3,905.1c-12.5,-19.5,-25,-38.9,-37.5,-58.4c-3.4,-5.3,3.9,-10.9,19.1,-13.7c5.9,-1.1,12.3,-1.6,18.6,-1.6c13.4,0,26.2,2.3,33,6.4l-33.2,67.3Z"/></clipPath>
<clipPath id="c8_267"><path d="M611.8,846.7Zm37.5,58.4c-12.5,-19.5,-25,-38.9,-37.5,-58.4c.7,1.2,2,2.3,3.7,3.4c6.8,4,19.6,6.3,32.9,6.3c6.3,0,12.7,-.5,18.7,-1.6c10.3,-1.8,16.9,-5,19.1,-8.5l-36.9,58.8Z"/></clipPath>
<clipPath id="c9_267"><path d="M611.8,846.7Zm37.5,58.4c-12.5,-19.5,-25,-38.9,-37.5,-58.4c.7,1.2,2,2.3,3.7,3.4c6.8,4,19.6,6.3,32.9,6.3c6.3,0,12.7,-.5,18.7,-1.6c10.3,-1.8,16.9,-5,19.1,-8.5c-12.3,19.6,-24.6,39.2,-36.9,58.8Z"/></clipPath>
<clipPath id="ca_267"><path d="M176.6,960.3c-3.2,0,-6.4,-.3,-9.6,-.9c-6,-1,-10.5,-2.9,-11.9,-3.5c-5,-2.1,-9.3,-5,-10.5,-5.9c-1.2,-.9,-2.7,-2,-3.8,-3c-.9,-.8,-2.1,-1.8,-2.9,-2.7c-1,-1,-2.3,-2.4,-3.3,-3.4c-2.6,-3.2,-5,-6.8,-7.1,-10.9c-.7,-1.2,-1.5,-2.9,-1.9,-4.2c-.9,-2.4,-2,-5.7,-2.6,-8.2c-.5,-2.3,-.9,-5.5,-1.2,-7.8c-.1,-1.4,-.1,-3.2,-.2,-4.5c0,-1.8,.1,-7.4,1.9,-13.9c1.8,-7.2,4.8,-12.2,5.2,-13c1.3,-2.1,3.1,-4.8,4.6,-6.8c.9,-1.3,2.2,-2.8,3.3,-3.9q3.8,-3.8,7.2,-6.4c2,-1.5,4.1,-2.7,6.2,-4c1.7,-1,3.9,-2,5.7,-2.7c2.4,-1,4.1,-1.6,7.9,-2.6c2.8,-.7,7.3,-1.5,13,-1.5c.1,0,.2,0,.4,0c6.9,0,12.1,1.4,14.5,2.1c.7,.1,3.1,.8,6.5,2.2c1.7,.8,3.9,1.9,5.6,2.8c.3,.2,.7,.4,1,.6c1.1,.7,2.4,1.4,3.3,2.1c.9,.7,2.1,1.5,3,2.3c1.1,.9,2.6,2.1,3.6,3.1c.8,.9,2,2,2.8,2.9c.9,1.1,2.1,2.5,3,3.6c2.6,3.5,4.3,6.6,4.7,7.4c.9,1.7,2.2,4.3,3.6,8.2c.8,2.5,1.6,5.9,2.1,8.4c.7,3.7,1,10.2,.5,14.7c-.4,3.2,-.7,5.2,-1.7,9.1q-.9,3.1,-3.1,8.4c-1.1,2.4,-2.1,4,-4.5,7.9c-.9,1.3,-2.2,3,-3.2,4.2c-4.7,5.6,-8.9,8.7,-13,11.4c-1.9,1.2,-7.1,4.3,-14.3,6.3c-4.9,1.4,-9.8,2.1,-14.8,2.1Z"/></clipPath>
<clipPath id="cb_267"><path d="M176.5,960.3c-2.6,0,-5.3,-.2,-8,-.6c-9,-1.3,-15.8,-4.7,-19,-6.6c-1,-.5,-2.3,-1.3,-3.2,-1.9c-1.4,-1,-3.3,-2.4,-4.7,-3.5c-1.8,-1.5,-4.1,-3.7,-5.7,-5.5c-1.1,-1.1,-2.5,-2.7,-3.4,-4q-3.1,-4.5,-4.8,-7.7C124.3,924.1,123,917.6,123,917.6c-.5,-2.6,-1.1,-6.1,-1.2,-8.7c-.2,-2.4,-.3,-5.7,0,-8.1c.2,-1.4,.3,-3.4,.6,-4.8c.3,-1.2,.6,-3,1,-4.2c.3,-1.4,.8,-3.2,1.3,-4.6c.5,-1.2,1.1,-2.8,1.6,-3.9c.6,-1.3,1.4,-3,2.1,-4.3c2.3,-4.3,4.9,-7.4,4.9,-7.4c1.5,-1.9,3.7,-4.3,5.4,-6c.4,-.3,3.6,-3.4,6.7,-5.4c2.5,-1.7,7.9,-5.3,16.4,-7.7c4.8,-1.3,9.8,-2,14.7,-2c2.3,0,4.5,.1,6.7,.4c8.9,1.1,15.3,4,18.8,5.9c.6,.3,1.2,.6,1.6,.8c1.9,1.2,4.5,2.8,6.2,4.1c1.6,1.3,4.3,3.4,6.8,6.2c2,2.1,6.5,7.1,10.1,15.1c.6,1.3,1.2,3.1,1.7,4.4c.4,1.2,.9,2.9,1.3,4.1c.4,1.4,.8,3.3,1,4.7c.1,1.3,.4,3.1,.5,4.4c.1,1.5,.2,3.4,.2,4.9c0,2.6,-.3,6.2,-.7,8.8c-.2,1.6,-.7,3.7,-1.1,5.2c-1.3,4.2,-1.8,6.1,-3,8.5c-.6,1.1,-1.3,2.6,-1.9,3.7c-.7,1.3,-1.7,2.9,-2.4,4c-2.1,3.2,-4.2,5.6,-5.5,7c-2,2.1,-3.7,3.8,-6.5,5.9c-2.9,2.3,-4.6,3.3,-7.3,4.9c-2.1,1.2,-5.7,2.7,-6.3,2.9c-1.6,.7,-4.1,1.6,-7.9,2.5c-4,.9,-8.1,1.4,-12.3,1.4Z"/></clipPath>
<clipPath id="cc_267"><path d="M849.5,966.5Zm0,0c-.9,-1.2,-2.2,-2.4,-4,-3.6L809,904.5c13.5,20.7,27,41.4,40.5,62Z"/></clipPath>
<clipPath id="cd_267"><path d="M0,347V94.8H879.4V347Z"/></clipPath>
<style type="text/css"><![CDATA[
.g0_267{
fill: #D0007A;
}
.g1_267{
fill: #14AFD9;
}
.g2_267{
fill: #25B1DA;
}
.g3_267{
fill: #32B3DB;
}
.g4_267{
fill: #07ADD8;
}
.g5_267{
fill: #62C0E5;
}
.g6_267{
fill: #3DB5DD;
}
.g7_267{
fill: #45B7DE;
}
.g8_267{
fill: #4DB9E0;
}
.g9_267{
fill: #55BBE1;
}
.ga_267{
fill: #5CBEE3;
}
.gb_267{
fill: #69C2E6;
}
.gc_267{
fill: #70C5E7;
}
.gd_267{
fill: #75C7E9;
}
.ge_267{
fill: #7DCAEA;
}
.gf_267{
fill: #83CCEC;
}
.gg_267{
fill: #89CFEE;
}
.gh_267{
fill: #90D2EF;
}
.gi_267{
fill: #96D5F1;
}
.gj_267{
fill: #9CD7F2;
}
.gk_267{
fill: #A3DAF4;
}
.gl_267{
fill: #A8DDF5;
}
.gm_267{
fill: #AFE0F7;
}
.gn_267{
fill: #B4E2F8;
}
.go_267{
fill: #BAE6FA;
}
.gp_267{
fill: #C1E8FB;
}
.gq_267{
fill: #5BBDE3;
}
.gr_267{
fill: #61BFE4;
}
.gs_267{
fill: #65C0E5;
}
.gt_267{
fill: #6BC3E6;
}
.gu_267{
fill: #71C5E8;
}
.gv_267{
fill: #77C7E9;
}
.gw_267{
fill: #82CCEC;
}
.gx_267{
fill: #88CEED;
}
.gy_267{
fill: #8CD0EE;
}
.gz_267{
fill: #93D3F0;
}
.g10_267{
fill: #97D5F1;
}
.g11_267{
fill: #A2DAF4;
}
.g12_267{
fill: #A7DCF5;
}
.g13_267{
fill: #ACDFF6;
}
.g14_267{
fill: #B1E2F8;
}
.g15_267{
fill: #B6E4F9;
}
.g16_267{
fill: #BCE6FA;
}
.g17_267{
fill: #4FBAE0;
}
.g18_267{
fill: #48B8DF;
}
.g19_267{
fill: #40B6DE;
}
.g1a_267{
fill: #39B4DC;
}
.g1b_267{
fill: #5DA8C6;
}
.g1c_267{
fill: #61ABC9;
}
.g1d_267{
fill: none;
stroke: #00C3F4;
stroke-width: 0.611;
stroke-linejoin: round;
}
.g1e_267{
fill: #ABDAF0;
}
.g1f_267{
fill: none;
stroke: #241F1F;
stroke-width: 0.381;
stroke-miterlimit: 3;
}
.g1g_267{
fill: none;
stroke: #00AEEF;
stroke-width: 0.534;
stroke-miterlimit: 3;
}
.g1h_267{
fill: none;
stroke: #00AEEF;
stroke-width: 0.763;
stroke-linejoin: round;
}
.g1i_267{
fill: none;
stroke: #00A3CD;
stroke-width: 0.611;
stroke-linejoin: round;
stroke-dasharray: 10,4;
}
.g1j_267{
fill: none;
stroke: #00A3CD;
stroke-width: 0.611;
stroke-linejoin: round;
}
.g1k_267{
fill: none;
stroke: #00C3F4;
stroke-width: 0.611;
stroke-miterlimit: 3;
}
.g1l_267{
fill: #241F1F;
}
.g1m_267{
fill: none;
stroke: #00A3CD;
stroke-width: 0.611;
stroke-miterlimit: 3;
stroke-dasharray: 10,4;
}
.g1n_267{
fill: none;
stroke: #241F1F;
stroke-width: 0.611;
stroke-miterlimit: 3;
}
.g1o_267{
fill: none;
stroke: #969698;
stroke-width: 0.611;
stroke-miterlimit: 3;
stroke-dasharray: 10,4;
}
.g1p_267{
fill: none;
stroke: #EE008C;
stroke-width: 0.916;
stroke-linejoin: round;
}
.g1q_267{
fill: #EE008C;
}
.g1r_267{
fill: none;
stroke: #EE008C;
stroke-width: 0.763;
stroke-miterlimit: 3;
}
.g1s_267{
fill: none;
stroke: #EE008C;
stroke-width: 0.381;
stroke-miterlimit: 3;
}
.g1t_267{
fill: none;
stroke: #241F1F;
stroke-width: 0.763;
stroke-linejoin: round;
}
.g1u_267{
fill: #00AEEF;
}
]]></style>
</defs>
<image clip-path="url(#c0_267)" preserveAspectRatio="none" x="107" y="428" width="773" height="33" xlink:href="img/1.png"/>
<path d="M343.8,536.7c0,0,-1.6,0,-1.6,1.5v9.2c0,0,0,1.5,1.6,1.5h9.1c0,0,1.6,0,1.6,-1.5v-9.2c0,0,0,-1.5,-1.6,-1.5Z" class="g0_267"/>
<g clip-path="url(#c1_267)">
<path d="M845.4,963L809.1,904.5l31.5,56.1c1.8,.7,3.4,1.6,4.8,2.4Z" class="g1_267"/>
<path d="M840.6,960.6L809.1,904.5l22.6,53.4c3.3,.8,6.3,1.7,8.9,2.7Z" class="g2_267"/>
<path d="M831.7,957.9L809.1,904.5l8.3,51.4c5.1,.4,10,1.1,14.3,2Z" class="g3_267"/>
<path d="M817.4,955.9l-8.3,-51.4l-3.5,51.2c4,-.1,8,-.1,11.8,.2Z" class="g2_267"/>
<path d="M805.6,955.7l3.5,-51.2l-12.4,51.8c2.9,-.3,5.9,-.5,8.9,-.6Z" class="g1_267"/>
<path d="M796.7,956.3l12.4,-51.8L769,966.8c2.5,-3.9,9.7,-7.4,20.6,-9.4c2.3,-.5,4.7,-.8,7.1,-1.1Z" class="g4_267"/>
</g>
<g clip-path="url(#c2_267)">
<path d="M849.3,966.7L809.1,904.5l36.6,58.7c1.7,1.2,2.9,2.3,3.6,3.5Z" class="g4_267"/>
<path d="M845.7,963.2L809.1,904.5L845.4,963c.1,.1,.2,.2,.3,.2Z" class="g1_267"/>
</g>
<path clip-path="url(#c3_267)" d="M809.2,969.7L845.4,963c-10.8,-6.8,-35.8,-9.4,-55.8,-5.6c-20,3.7,-27.4,12.3,-16.6,19.1c10.8,6.9,35.7,9.4,55.7,5.7c20,-3.7,27.5,-12.3,16.7,-19.2l-36.2,6.7Z" class="g5_267"/>
<g clip-path="url(#c4_267)">
<path d="M769,966.8l40.1,-62.3l-40.3,62.6c.1,-.1,.1,-.2,.2,-.3Z" class="g6_267"/>
<path d="M768.8,967.1l40.3,-62.6L768.4,968c.1,-.3,.2,-.6,.4,-.9Z" class="g7_267"/>
<path d="M768.4,968l40.7,-63.5l-41,64.3c.1,-.3,.2,-.5,.3,-.8Z" class="g8_267"/>
<path d="M768.1,968.8l41,-64.3L768,969.6c0,-.2,.1,-.5,.1,-.8Z" class="g9_267"/>
<path d="M768,969.6l41.1,-65.1l-41,65.9c-.1,-.2,-.1,-.5,-.1,-.8Z" class="ga_267"/>
<path d="M768.1,970.4l41,-65.9l-40.9,66.7c-.1,-.3,-.1,-.5,-.1,-.8Z" class="g5_267"/>
<path d="M768.2,971.2l40.9,-66.7l-40.6,67.4c-.1,-.2,-.2,-.5,-.3,-.7Z" class="gb_267"/>
<path d="M768.5,971.9l40.6,-67.4l-40.3,68.1c-.1,-.2,-.2,-.4,-.3,-.7Z" class="gc_267"/>
<path d="M768.8,972.6l40.3,-68.1l-39.8,68.8c-.2,-.2,-.3,-.4,-.5,-.7Z" class="gd_267"/>
<path d="M769.3,973.3l39.8,-68.8L769.9,974c-.2,-.2,-.4,-.4,-.6,-.7Z" class="ge_267"/>
<path d="M769.9,974l39.2,-69.5l-38.5,70.2c-.3,-.2,-.5,-.4,-.7,-.7Z" class="gf_267"/>
<path d="M770.6,974.7l38.5,-70.2l-37.7,70.9c-.3,-.2,-.6,-.4,-.8,-.7Z" class="gg_267"/>
<path d="M771.4,975.4l37.7,-70.9l-36.8,71.6c-.3,-.2,-.6,-.4,-.9,-.7Z" class="gh_267"/>
<path d="M772.3,976.1l36.8,-71.6l-35.7,72.3c-.1,-.1,-.3,-.2,-.4,-.3c-.2,-.1,-.5,-.2,-.7,-.4Z" class="gi_267"/>
<path d="M773.4,976.8l35.7,-72.3l-34.4,73c-.4,-.2,-.9,-.4,-1.3,-.7Z" class="gj_267"/>
<path d="M774.7,977.5l34.4,-73l-32.9,73.8c-.5,-.3,-1,-.5,-1.5,-.8Z" class="gk_267"/>
<path d="M776.2,978.3l32.9,-73.8L777.9,979c-.6,-.2,-1.2,-.5,-1.7,-.7Z" class="gl_267"/>
<path d="M777.9,979l31.2,-74.5L780,979.8c-.7,-.3,-1.4,-.5,-2.1,-.8Z" class="gm_267"/>
<path d="M780,979.8l29.1,-75.3l-26.4,76.1c-.9,-.2,-1.8,-.5,-2.7,-.8Z" class="gn_267"/>
<path d="M782.7,980.6l26.4,-76.1l-22.2,77.2c-1.4,-.3,-2.8,-.7,-4.2,-1.1Z" class="go_267"/>
<path d="M786.9,981.7l22.2,-77.2l-8.5,79.1c-4.8,-.3,-9.5,-1,-13.7,-1.9Z" class="gp_267"/>
<path d="M800.6,983.6l8.5,-79.1l-3.4,79.4c-1.7,-.1,-3.4,-.2,-5.1,-.3Z" class="go_267"/>
<path d="M805.7,983.9l3.4,-79.4l.3,79.4c-1.2,0,-2.5,0,-3.7,0Z" class="gn_267"/>
<path d="M809.4,983.9l-.3,-79.4l3.4,79.4c-1,0,-2,0,-3.1,0Z" class="gm_267"/>
<path d="M812.5,983.9l-3.4,-79.4l6.2,79.3c-.9,0,-1.8,.1,-2.8,.1Z" class="gl_267"/>
<path d="M815.3,983.8l-6.2,-79.3l8.7,79.1c-.9,.1,-1.7,.1,-2.5,.2Z" class="gk_267"/>
<path d="M817.8,983.6l-8.7,-79.1l11,78.9c-.8,.1,-1.6,.2,-2.3,.2Z" class="gj_267"/>
<path d="M820.1,983.4l-11,-78.9l13.2,78.7c-.8,.1,-1.5,.1,-2.2,.2Z" class="gi_267"/>
<path d="M822.3,983.2L809.1,904.5l15.2,78.4c-.6,.1,-1.3,.2,-2,.3Z" class="gh_267"/>
<path d="M824.3,982.9L809.1,904.5l17.3,78.1c-.7,.1,-1.4,.2,-2.1,.3Z" class="gg_267"/>
<path d="M826.4,982.6L809.1,904.5l19.2,77.8c-.6,.1,-1.3,.2,-1.9,.3Z" class="gf_267"/>
<path d="M828.3,982.3L809.1,904.5l21.1,77.4c-.5,.1,-1,.2,-1.5,.3c-.1,0,-.3,.1,-.4,.1Z" class="ge_267"/>
<path d="M830.2,981.9L809.1,904.5l22.9,77c-.6,.2,-1.2,.3,-1.8,.4Z" class="gd_267"/>
<path d="M832,981.5l-22.9,-77l24.6,76.6c-.5,.2,-1.1,.3,-1.7,.4Z" class="gc_267"/>
<path d="M833.7,981.1L809.1,904.5l26.4,76.1c-.6,.2,-1.2,.4,-1.8,.5Z" class="gb_267"/>
<path d="M835.5,980.6L809.1,904.5l28,75.6c-.5,.2,-1.1,.4,-1.6,.5Z" class="g5_267"/>
<path d="M837.1,980.1l-28,-75.6l29.6,75.1c-.5,.2,-1.1,.4,-1.6,.5Z" class="ga_267"/>
<path d="M838.7,979.6L809.1,904.5L840.3,979c-.5,.2,-1,.4,-1.6,.6Z" class="g9_267"/>
<path d="M840.3,979L809.1,904.5l32.8,73.8c-.5,.3,-1,.5,-1.6,.7Z" class="g8_267"/>
<path d="M841.9,978.3L809.1,904.5l34.3,73.1c-.5,.2,-1,.5,-1.5,.7Z" class="g7_267"/>
<path d="M843.4,977.6L809.1,904.5l35.8,72.2c-.4,.3,-.9,.6,-1.5,.9Z" class="g6_267"/>
<path d="M844.9,976.7L809.1,904.5l37.3,71.2c-.4,.4,-.9,.7,-1.5,1Z" class="g3_267"/>
<path d="M846.4,975.7L809.1,904.5l38.8,70c-.4,.4,-.9,.8,-1.5,1.2Z" class="g2_267"/>
<path d="M847.9,974.5l-38.8,-70l40.2,68.3c-.3,.6,-.8,1.1,-1.4,1.7Z" class="g1_267"/>
<path d="M849.3,972.8L809.1,904.5l40.2,62.2c1.4,2,1.3,4.1,0,6.1Z" class="g4_267"/>
</g>
<g clip-path="url(#c5_267)">
<path d="M649.3,905.1l36.9,-58.8c.1,-.1,.2,-.2,.2,-.3l-37.1,59.1Z" class="g9_267"/>
<path d="M649.3,905.1L686.4,846c.2,-.3,.3,-.5,.4,-.8l-37.5,59.9Z" class="gq_267"/>
<path d="M649.3,905.1l37.5,-59.9c.1,-.3,.1,-.5,.2,-.8l-37.7,60.7Z" class="gr_267"/>
<path d="M649.3,905.1L687,844.4c0,-.2,0,-.4,0,-.7l-37.7,61.4Z" class="gs_267"/>
<path d="M649.3,905.1L687,843.7c0,-.2,0,-.4,0,-.7l-37.7,62.1Z" class="gt_267"/>
<path d="M649.3,905.1L687,843c-.1,-.2,-.1,-.4,-.2,-.6l-37.5,62.7Z" class="gu_267"/>
<path d="M649.3,905.1l37.5,-62.7c0,-.2,-.1,-.5,-.2,-.7l-37.3,63.4Z" class="gv_267"/>
<path d="M649.3,905.1l37.3,-63.4c-.2,-.2,-.3,-.4,-.4,-.6l-36.9,64Z" class="ge_267"/>
<path d="M649.3,905.1l36.9,-64c-.1,-.2,-.3,-.4,-.5,-.6l-36.4,64.6Z" class="gw_267"/>
<path d="M649.3,905.1l36.4,-64.6c-.1,-.2,-.3,-.4,-.5,-.6l-35.9,65.2Z" class="gx_267"/>
<path d="M649.3,905.1l35.9,-65.2c-.2,-.2,-.4,-.4,-.7,-.6l-35.2,65.8Z" class="gy_267"/>
<path d="M649.3,905.1l35.2,-65.8c-.2,-.2,-.5,-.4,-.7,-.6l-34.5,66.4Z" class="gz_267"/>
<path d="M649.3,905.1l34.5,-66.4c-.3,-.2,-.6,-.4,-.9,-.6l-33.6,67Z" class="g10_267"/>
<path d="M649.3,905.1l33.6,-67c-.2,-.1,-.3,-.2,-.4,-.3l-33.2,67.3Z" class="gj_267"/>
</g>
<g clip-path="url(#c6_267)">
<path d="M686.2,846.3l-36.9,58.8L686.4,846c0,.1,-.1,.2,-.2,.3Z" class="g9_267"/>
<path d="M686.4,846l-37.1,59.1l37.5,-59.9c-.1,.3,-.2,.5,-.4,.8Z" class="gq_267"/>
<path d="M686.8,845.2l-37.5,59.9L687,844.4c-.1,.3,-.1,.5,-.2,.8Z" class="gr_267"/>
<path d="M687,844.4l-37.7,60.7L687,843.7c0,.3,0,.5,0,.7Z" class="gs_267"/>
<path d="M687,843.7l-37.7,61.4L687,843c0,.3,0,.5,0,.7Z" class="gt_267"/>
<path d="M687,843l-37.7,62.1l37.5,-62.7c.1,.2,.1,.4,.2,.6Z" class="gu_267"/>
<path d="M686.8,842.4l-37.5,62.7l37.3,-63.4c.1,.3,.2,.5,.2,.7Z" class="gv_267"/>
<path d="M686.6,841.7l-37.3,63.4l36.9,-64c.1,.2,.2,.4,.4,.6Z" class="ge_267"/>
<path d="M686.2,841.1l-36.9,64l36.4,-64.6c.2,.2,.4,.4,.5,.6Z" class="gw_267"/>
<path d="M685.7,840.5l-36.4,64.6l35.9,-65.2c.2,.2,.4,.4,.5,.6Z" class="gx_267"/>
<path d="M685.2,839.9l-35.9,65.2l35.2,-65.8c.3,.2,.5,.4,.7,.6Z" class="gy_267"/>
<path d="M684.5,839.3l-35.2,65.8l34.5,-66.4c.2,.2,.5,.4,.7,.6Z" class="gz_267"/>
<path d="M683.8,838.7l-34.5,66.4l33.6,-67c.3,.2,.6,.4,.9,.6Z" class="g10_267"/>
<path d="M682.9,838.1l-33.6,67l33.2,-67.3c.1,.1,.2,.2,.4,.3Z" class="gj_267"/>
</g>
<g clip-path="url(#c7_267)">
<path d="M682.5,837.8l-33.2,67.3l32.6,-67.6c.2,.1,.4,.2,.6,.3Z" class="gj_267"/>
<path d="M681.9,837.5l-32.6,67.6l31.4,-68.2c.4,.2,.8,.4,1.2,.6Z" class="g11_267"/>
<path d="M680.7,836.9l-31.4,68.2l30,-68.9c.5,.2,1,.4,1.4,.7Z" class="g12_267"/>
<path d="M679.3,836.2l-30,68.9l28.5,-69.5c.5,.2,1,.4,1.5,.6Z" class="g13_267"/>
<path d="M677.8,835.6l-28.5,69.5l26.5,-70.2c.7,.2,1.3,.5,2,.7Z" class="g14_267"/>
<path d="M675.8,834.9l-26.5,70.2l24.1,-70.9c.8,.2,1.6,.5,2.4,.7Z" class="g15_267"/>
<path d="M673.4,834.2l-24.1,70.9l20.3,-71.8c1.3,.3,2.5,.6,3.8,.9Z" class="g16_267"/>
<path d="M669.6,833.3l-20.3,71.8l7.1,-73.5c4.7,.3,9.1,.9,13.2,1.7Z" class="gp_267"/>
<path d="M656.4,831.6l-7.1,73.5l2.4,-73.7c1.6,.1,3.1,.1,4.7,.2Z" class="g16_267"/>
<path d="M651.7,831.4l-2.4,73.7l-1,-73.7c1.2,0,2.3,0,3.4,0Z" class="g15_267"/>
<path d="M648.3,831.4l1,73.7l-3.8,-73.6c.9,0,1.9,-.1,2.8,-.1Z" class="g14_267"/>
<path d="M645.5,831.5l3.8,73.6L643,831.6c.9,0,1.7,-.1,2.5,-.1Z" class="g13_267"/>
<path d="M643,831.6l6.3,73.5l-8.5,-73.3c.7,-.1,1.5,-.2,2.2,-.2Z" class="g12_267"/>
<path d="M640.8,831.8l8.5,73.3L638.6,832c.7,-.1,1.5,-.2,2.2,-.2Z" class="g11_267"/>
<path d="M638.6,832l10.7,73.1L636.6,832.2c.7,-.1,1.4,-.2,2,-.2Z" class="gj_267"/>
<path d="M636.6,832.2l12.7,72.9L634.7,832.4c.7,-.1,1.3,-.2,1.9,-.2Z" class="g10_267"/>
<path d="M634.7,832.4l14.6,72.7L632.9,832.7c.6,-.1,1.2,-.2,1.8,-.3Z" class="gz_267"/>
<path d="M632.9,832.7l16.4,72.4L631.1,833c.6,-.1,1.2,-.2,1.8,-.3Z" class="gy_267"/>
<path d="M631.1,833l18.2,72.1L629.4,833.3c.5,-.1,1,-.2,1.5,-.3q.1,0,.2,0Z" class="gx_267"/>
<path d="M629.4,833.3l19.9,71.8L627.8,833.7c.5,-.2,1,-.3,1.6,-.4Z" class="gw_267"/>
<path d="M627.8,833.7l21.5,71.4L626.2,834c.5,-.1,1,-.2,1.6,-.3Z" class="ge_267"/>
<path d="M626.2,834l23.1,71.1L624.6,834.5c.5,-.2,1,-.3,1.6,-.5Z" class="gv_267"/>
<path d="M624.6,834.5l24.7,70.6L623.1,834.9c.5,-.2,1,-.3,1.5,-.4Z" class="gu_267"/>
<path d="M623.1,834.9l26.2,70.2L621.6,835.4c.5,-.2,1,-.3,1.5,-.5Z" class="gt_267"/>
<path d="M621.6,835.4l27.7,69.7L620.2,835.9c.4,-.2,.9,-.3,1.4,-.5Z" class="gs_267"/>
<path d="M620.2,835.9l29.1,69.2L618.7,836.5c.5,-.2,1,-.4,1.5,-.6Z" class="gr_267"/>
<path d="M618.7,836.5l30.6,68.6l-32,-67.9c.5,-.3,.9,-.5,1.4,-.7Z" class="gq_267"/>
<path d="M617.3,837.2l32,67.9L615.9,837.9c.5,-.3,.9,-.5,1.4,-.7Z" class="g9_267"/>
<path d="M615.9,837.9l33.4,67.2L614.5,838.8c.5,-.3,.9,-.6,1.4,-.9Z" class="g17_267"/>
<path d="M614.5,838.8l34.8,66.3L613.2,839.9c.4,-.4,.8,-.8,1.3,-1.1Z" class="g18_267"/>
<path d="M613.2,839.9l36.1,65.2L611.9,841.4c.3,-.5,.8,-1,1.3,-1.5Z" class="g19_267"/>
<path d="M611.9,841.4l37.4,63.7L611.8,846.7c-1.2,-1.8,-1.1,-3.6,.1,-5.3Z" class="g1a_267"/>
<path d="M649.3,905.1l33.2,-67.3c-.2,-.1,-.4,-.2,-.6,-.3l-32.6,67.6Z" class="gj_267"/>
<path d="M649.3,905.1l32.6,-67.6c-.4,-.2,-.8,-.4,-1.2,-.6l-31.4,68.2Z" class="g11_267"/>
<path d="M649.3,905.1l31.4,-68.2c-.4,-.3,-.9,-.5,-1.4,-.7l-30,68.9Z" class="g12_267"/>
<path d="M649.3,905.1l30,-68.9c-.5,-.2,-1,-.4,-1.5,-.6l-28.5,69.5Z" class="g13_267"/>
<path d="M649.3,905.1l28.5,-69.5c-.7,-.2,-1.3,-.5,-2,-.7l-26.5,70.2Z" class="g14_267"/>
<path d="M649.3,905.1l26.5,-70.2c-.8,-.2,-1.6,-.5,-2.4,-.7l-24.1,70.9Z" class="g15_267"/>
<path d="M649.3,905.1l24.1,-70.9c-1.3,-.3,-2.5,-.6,-3.8,-.9l-20.3,71.8Z" class="g16_267"/>
<path d="M649.3,905.1l20.3,-71.8c-4.1,-.8,-8.5,-1.4,-13.2,-1.7l-7.1,73.5Z" class="gp_267"/>
<path d="M649.3,905.1l7.1,-73.5c-1.6,-.1,-3.1,-.1,-4.7,-.2l-2.4,73.7Z" class="g16_267"/>
<path d="M649.3,905.1l2.4,-73.7c-1.1,0,-2.2,0,-3.4,0l1,73.7Z" class="g15_267"/>
<path d="M649.3,905.1l-1,-73.7c-.9,0,-1.9,.1,-2.8,.1l3.8,73.6Z" class="g14_267"/>
<path d="M649.3,905.1l-3.8,-73.6c-.8,0,-1.6,.1,-2.5,.1l6.3,73.5Z" class="g13_267"/>
<path d="M649.3,905.1L643,831.6c-.7,0,-1.5,.1,-2.2,.2l8.5,73.3Z" class="g12_267"/>
<path d="M649.3,905.1l-8.5,-73.3c-.7,0,-1.5,.1,-2.2,.2l10.7,73.1Z" class="g11_267"/>
<path d="M649.3,905.1L638.6,832c-.6,0,-1.3,.1,-2,.2l12.7,72.9Z" class="gj_267"/>
<path d="M649.3,905.1L636.6,832.2c-.6,0,-1.2,.1,-1.9,.2l14.6,72.7Z" class="g10_267"/>
<path d="M649.3,905.1L634.7,832.4c-.6,.1,-1.2,.2,-1.8,.3l16.4,72.4Z" class="gz_267"/>
<path d="M649.3,905.1L632.9,832.7c-.6,.1,-1.2,.2,-1.8,.3l18.2,72.1Z" class="gy_267"/>
<path d="M649.3,905.1L631.1,833q-.1,0,-.2,0c-.5,.1,-1,.2,-1.5,.3l19.9,71.8Z" class="gx_267"/>
<path d="M649.3,905.1L629.4,833.3c-.6,.1,-1.1,.2,-1.6,.4l21.5,71.4Z" class="gw_267"/>
<path d="M649.3,905.1L627.8,833.7c-.6,.1,-1.1,.2,-1.6,.3l23.1,71.1Z" class="ge_267"/>
<path d="M649.3,905.1L626.2,834c-.6,.2,-1.1,.3,-1.6,.5l24.7,70.6Z" class="gv_267"/>
<path d="M649.3,905.1L624.6,834.5c-.5,.1,-1,.2,-1.5,.4l26.2,70.2Z" class="gu_267"/>
<path d="M649.3,905.1L623.1,834.9c-.5,.2,-1,.3,-1.5,.5l27.7,69.7Z" class="gt_267"/>
<path d="M649.3,905.1L621.6,835.4c-.5,.2,-1,.3,-1.4,.5l29.1,69.2Z" class="gs_267"/>
<path d="M649.3,905.1L620.2,835.9c-.5,.2,-1,.4,-1.5,.6l30.6,68.6Z" class="gr_267"/>
<path d="M649.3,905.1L618.7,836.5c-.5,.2,-.9,.4,-1.4,.7l32,67.9Z" class="gq_267"/>
<path d="M649.3,905.1l-32,-67.9c-.5,.2,-.9,.4,-1.4,.7l33.4,67.2Z" class="g9_267"/>
<path d="M649.3,905.1L615.9,837.9c-.5,.3,-.9,.6,-1.4,.9l34.8,66.3Z" class="g17_267"/>
<path d="M649.3,905.1L614.5,838.8c-.5,.3,-.9,.7,-1.3,1.1l36.1,65.2Z" class="g18_267"/>
<path d="M649.3,905.1L613.2,839.9c-.5,.5,-1,1,-1.3,1.5l37.4,63.7Z" class="g19_267"/>
<path d="M649.3,905.1L611.9,841.4c-1.2,1.7,-1.3,3.5,-.1,5.3l37.5,58.4Z" class="g1a_267"/>
</g>
<g clip-path="url(#c8_267)">
<path d="M649.3,905.1L611.8,846.7c.6,1,1.6,2,3,2.9l34.5,55.5Z" class="g1a_267"/>
<path d="M649.3,905.1L614.8,849.6c.2,.2,.5,.3,.7,.5c1.1,.6,2.3,1.2,3.6,1.7l30.2,53.3Z" class="g19_267"/>
<path d="M649.3,905.1L619.1,851.8c1.9,.8,4,1.5,6.3,2.1l23.9,51.2Z" class="g18_267"/>
<path d="M649.3,905.1L625.4,853.9c5.7,1.4,12.6,2.3,19.8,2.5l4.1,48.7Z" class="g17_267"/>
<path d="M649.3,905.1l-4.1,-48.7c2.9,.1,6,0,9,-.1l-4.9,48.8Z" class="g18_267"/>
<path d="M649.3,905.1l4.9,-48.8c2.6,-.1,5.1,-.3,7.6,-.7l-12.5,49.5Z" class="g19_267"/>
<path d="M649.3,905.1l12.5,-49.5c1.8,-.2,3.6,-.4,5.3,-.8c10.3,-1.8,16.9,-5,19.1,-8.5l-36.9,58.8Z" class="g1a_267"/>
</g>
<g clip-path="url(#c9_267)">
<path d="M611.8,846.7l37.5,58.4L614.8,849.6c-1.4,-.9,-2.4,-1.9,-3,-2.9Z" class="g1a_267"/>
<path d="M614.8,849.6l34.5,55.5L619.1,851.8c-1.3,-.5,-2.5,-1.1,-3.6,-1.7c-.2,-.2,-.5,-.3,-.7,-.5Z" class="g19_267"/>
<path d="M619.1,851.8l30.2,53.3L625.4,853.9c-2.3,-.6,-4.4,-1.3,-6.3,-2.1Z" class="g18_267"/>
<path d="M625.4,853.9l23.9,51.2l-4.1,-48.7c-7.2,-.2,-14.1,-1.1,-19.8,-2.5Z" class="g17_267"/>
<path d="M645.2,856.4l4.1,48.7l4.9,-48.8c-3,.2,-6.1,.2,-9,.1Z" class="g18_267"/>
<path d="M654.2,856.3l-4.9,48.8l12.5,-49.5c-2.5,.4,-5,.6,-7.6,.7Z" class="g19_267"/>
<path d="M661.8,855.6l-12.5,49.5l36.9,-58.8c-2.2,3.5,-8.8,6.7,-19.1,8.5c-1.7,.4,-3.5,.6,-5.3,.8Z" class="g1a_267"/>
</g>
<g clip-path="url(#ca_267)">
<path d="M121.6,905.3c.6,34.6,26.9,47.9,34.9,51.2c16.8,6.8,41.8,5.4,59.6,-13.1C241,917.6,234.9,875.9,203.6,857.6c13.4,7.6,22.2,22.7,22.2,41.2c-.1,29.1,-22.1,55.6,-49.4,59.3c27.3,-3.7,49.3,-30.2,49.4,-59.3c0,-18.5,-8.8,-33.6,-22.2,-41.2C177.3,843.7,156,853.9,150,857.3c-27.5,16,-28.4,42.8,-28.4,48Z" class="gw_267"/>
<path d="M225.8,898.8c0,12.4,-4.1,24.4,-10.8,34.3c0,0,-.1,.1,-.1,.1c-5.5,8.3,-7.5,9.7,-11.4,12.6c-7.8,6.5,-17.1,11,-27.1,12.3c10,-1.3,19.3,-5.8,27.1,-12.3c-1,.7,-2.4,1.5,-3.4,2.1c-28.4,16.5,-61.8,-6.8,-54.2,-37.7C153.6,878.9,196,873,211.4,894.4c11,15.2,8,29.4,3.6,38.7c6.7,-9.9,10.8,-21.9,10.8,-34.3c0,-18.5,-8.8,-33.6,-22.2,-41.2c-.8,-.4,-2,-1,-2.8,-1.5c-1.3,-.5,-3,-1.3,-4.2,-1.8l-2.4,-.9c-.8,-.2,-1.9,-.6,-2.7,-.8l-1.8,-.5c-.6,-.2,-1.4,-.4,-2,-.5l-1.6,-.3c-.5,-.1,-1.1,-.2,-1.6,-.2l-1.3,-.2c-.4,-.1,-1,-.1,-1.4,-.2l-1.2,-.1c-.4,0,-.9,0,-1.3,-.1h-1.1c-.4,0,-.9,0,-1.2,0h-1.2c-.4,0,-.9,0,-1.2,0l-1.3,.1c-.4,0,-.9,0,-1.3,.1l-1.3,.1c-.5,0,-1.1,.1,-1.5,.2l-1.8,.2c-5.2,1,-7.7,1.8,-11.7,3.4l-2.8,1.2c-3.7,1.9,-3.9,2.1,-6.1,3.4l-3,2.1c-1.3,1.1,-3.1,2.5,-4.3,3.6l-2.9,2.8c-1,1.2,-2.3,2.7,-3.3,3.9l-2.4,3.3c-.8,1.2,-1.8,2.9,-2.5,4.1l-1.9,3.8c-.5,1.3,-1.3,3.1,-1.8,4.4l-1.2,4.2c-.4,1.4,-.8,3.2,-1.1,4.6l-.5,4.4c-.1,1.5,-.2,3.4,-.3,4.9l.2,4.5c.3,2.3,.8,5.5,1.2,7.8l1.1,4.2c.5,1.3,1.1,3.1,1.6,4.4l1.8,3.8c.7,1.3,1.6,3,2.3,4.2l2.3,3.4c.9,1.1,2.1,2.7,3,3.8l2.8,2.9c1.1,1.1,2.6,2.5,3.7,3.4l3,2.3c1.4,1,3.4,2.2,4.9,3.1l2.8,1.5c1.2,.6,2.9,1.4,4.2,1.9l2.3,.8c.8,.3,1.9,.7,2.7,.9l1.9,.5c.6,.1,1.4,.3,2,.4l1.6,.3c.4,.1,1.1,.2,1.5,.3l1.4,.2c.4,0,.9,.1,1.3,.1l1.3,.1c.4,.1,.9,.1,1.2,.1l1.2,.1c.4,0,.9,0,1.2,0h1.2c.4,0,.8,-.1,1.2,-.1h1.3c.3,0,.9,-.1,1.2,-.1l1.4,-.1c.4,-.1,1,-.2,1.5,-.2l1.7,-.3c3.5,-.6,6.3,-1.2,11.1,-3.1l2.9,-1.2c3.5,-1.7,3.9,-1.9,6.1,-3.3l3.1,-2.1c1.3,-1.1,3.1,-2.5,4.4,-3.6l2.9,-2.8c1,-1.1,2.4,-2.6,3.3,-3.8l2.5,-3.3c.7,-1.2,1.8,-2.8,2.5,-4.1l2,-3.8c.5,-1.3,1.3,-3,1.8,-4.4l1.3,-4c.3,-1.5,.8,-3.3,1,-4.7l.7,-4.4c0,-1.6,.2,-3.8,.2,-5.4l-.2,-4.5c-.1,-1.4,-.3,-3.4,-.5,-4.8l-.9,-4.3c-.4,-1.3,-.9,-3.1,-1.4,-4.5l-1.5,-4c-.7,-1.2,-1.4,-2.9,-2.1,-4.2l-2.1,-3.6c-.9,-1.2,-1.9,-2.8,-2.8,-3.9l-2.6,-3.1c-1.1,-1.1,-2.4,-2.5,-3.5,-3.5l-2.9,-2.5c-3.8,-2.9,-4.2,-3.2,-7.3,-5c13.4,7.6,22.2,22.7,22.2,41.2Z" class="gw_267"/>
<path d="M225.8,898.8c0,9.8,-2.5,19.3,-6.9,27.7c-.4,1.2,-1,2.7,-1.4,3.8c-2,4.4,-6.7,14.5,-21.8,21c-5.9,3.5,-12.4,5.9,-19.3,6.8c6.9,-.9,13.4,-3.3,19.3,-6.8c-.7,.2,-1.7,.5,-2.4,.7c-41.9,12,-59.1,-29.8,-45.8,-51.4c20.9,-33.8,66.6,-23.3,72.4,8.3c.1,.4,1.7,9.2,-1,17.6c4.4,-8.4,6.9,-17.9,6.9,-27.7c0,-18.5,-8.8,-33.6,-22.2,-41.2c-.8,-.4,-2,-1,-2.8,-1.5c-1.3,-.5,-3,-1.3,-4.2,-1.8l-2.4,-.9c-.8,-.2,-1.9,-.6,-2.7,-.8l-1.8,-.5c-.6,-.2,-1.4,-.4,-2,-.5l-1.6,-.3c-.5,-.1,-1.1,-.2,-1.6,-.2l-1.3,-.2c-.4,-.1,-1,-.1,-1.4,-.2l-1.2,-.1c-.4,0,-.9,0,-1.3,-.1h-1.1c-.4,0,-.9,0,-1.2,0h-1.2c-.4,0,-.9,0,-1.2,0l-1.3,.1c-.4,0,-.9,0,-1.3,.1l-1.3,.1c-.5,0,-1.1,.1,-1.5,.2l-1.8,.2c-5.2,1,-7.7,1.8,-11.7,3.4l-2.8,1.2c-3.7,1.9,-3.9,2.1,-6.1,3.4l-3,2.1c-1.3,1.1,-3.1,2.5,-4.3,3.6l-2.9,2.8c-1,1.2,-2.3,2.7,-3.3,3.9l-2.4,3.3c-.8,1.2,-1.8,2.9,-2.5,4.1l-1.9,3.8c-.5,1.3,-1.3,3.1,-1.8,4.4l-1.2,4.2c-.4,1.4,-.8,3.2,-1.1,4.6l-.5,4.4c-.1,1.5,-.2,3.4,-.3,4.9l.2,4.5c.3,2.3,.8,5.5,1.2,7.8l1.1,4.2c.5,1.3,1.1,3.1,1.6,4.4l1.8,3.8c.7,1.3,1.6,3,2.3,4.2l2.3,3.4c.9,1.1,2.1,2.7,3,3.8l2.8,2.9c1.1,1.1,2.6,2.5,3.7,3.4l3,2.3c1.4,1,3.4,2.2,4.9,3.1l2.8,1.5c1.2,.6,2.9,1.4,4.2,1.9l2.3,.8c.8,.3,1.9,.7,2.7,.9l1.9,.5c.6,.1,1.4,.3,2,.4l1.6,.3c.4,.1,1.1,.2,1.5,.3l1.4,.2c.4,0,.9,.1,1.3,.1l1.3,.1c.4,.1,.9,.1,1.2,.1l1.2,.1c.4,0,.9,0,1.2,0h1.2c.4,0,.8,-.1,1.2,-.1h1.3c.3,0,.9,-.1,1.2,-.1l1.4,-.1c.4,-.1,1,-.2,1.5,-.2l1.7,-.3c3.5,-.6,6.3,-1.2,11.1,-3.1l2.9,-1.2c3.5,-1.7,3.9,-1.9,6.1,-3.3l3.1,-2.1c1.3,-1.1,3.1,-2.5,4.4,-3.6l2.9,-2.8c1,-1.1,2.4,-2.6,3.3,-3.8l2.5,-3.3c.7,-1.2,1.8,-2.8,2.5,-4.1l2,-3.8c.5,-1.3,1.3,-3,1.8,-4.4l1.3,-4c.3,-1.5,.8,-3.3,1,-4.7l.7,-4.4c0,-1.6,.2,-3.8,.2,-5.4l-.2,-4.5c-.1,-1.4,-.3,-3.4,-.5,-4.8l-.9,-4.3c-.4,-1.3,-.9,-3.1,-1.4,-4.5l-1.5,-4c-.7,-1.2,-1.4,-2.9,-2.1,-4.2l-2.1,-3.6c-.9,-1.2,-1.9,-2.8,-2.8,-3.9l-2.6,-3.1c-1.1,-1.1,-2.4,-2.5,-3.5,-3.5l-2.9,-2.5c-3.8,-2.9,-4.2,-3.2,-7.3,-5c13.4,7.6,22.2,22.7,22.2,41.2Z" class="ge_267"/>
<path d="M225.8,898.8c0,7.6,-1.5,15,-4.3,21.9c0,.7,-.2,1.5,-.3,2.2C216.3,939.4,208,947.8,190.7,954c-4.5,2,-9.3,3.4,-14.3,4.1c5,-.7,9.8,-2.1,14.3,-4.1c-.6,.1,-1.5,.3,-2.1,.4c-34.5,7.8,-60.3,-28.1,-41.4,-57.3c20.7,-31.8,68.5,-23.9,74.3,12.2c.3,1.9,.5,5.3,0,11.4c2.8,-6.9,4.3,-14.3,4.3,-21.9c0,-18.5,-8.8,-33.6,-22.2,-41.2c-.8,-.4,-2,-1,-2.8,-1.5c-1.3,-.5,-3,-1.3,-4.2,-1.8l-2.4,-.9c-.8,-.2,-1.9,-.6,-2.7,-.8l-1.8,-.5c-.6,-.2,-1.4,-.4,-2,-.5l-1.6,-.3c-.5,-.1,-1.1,-.2,-1.6,-.2l-1.3,-.2c-.4,-.1,-1,-.1,-1.4,-.2l-1.2,-.1c-.4,0,-.9,0,-1.3,-.1h-1.1c-.4,0,-.9,0,-1.2,0h-1.2c-.4,0,-.9,0,-1.2,0l-1.3,.1c-.4,0,-.9,0,-1.3,.1l-1.3,.1c-.5,0,-1.1,.1,-1.5,.2l-1.8,.2c-5.2,1,-7.7,1.8,-11.7,3.4l-2.8,1.2c-3.7,1.9,-3.9,2.1,-6.1,3.4l-3,2.1c-1.3,1.1,-3.1,2.5,-4.3,3.6l-2.9,2.8c-1,1.2,-2.3,2.7,-3.3,3.9l-2.4,3.3c-.8,1.2,-1.8,2.9,-2.5,4.1l-1.9,3.8c-.5,1.3,-1.3,3.1,-1.8,4.4l-1.2,4.2c-.4,1.4,-.8,3.2,-1.1,4.6l-.5,4.4c-.1,1.5,-.2,3.4,-.3,4.9l.2,4.5c.3,2.3,.8,5.5,1.2,7.8l1.1,4.2c.5,1.3,1.1,3.1,1.6,4.4l1.8,3.8c.7,1.3,1.6,3,2.3,4.2l2.3,3.4c.9,1.1,2.1,2.7,3,3.8l2.8,2.9c1.1,1.1,2.6,2.5,3.7,3.4l3,2.3c1.4,1,3.4,2.2,4.9,3.1l2.8,1.5c1.2,.6,2.9,1.4,4.2,1.9l2.3,.8c.8,.3,1.9,.7,2.7,.9l1.9,.5c.6,.1,1.4,.3,2,.4l1.6,.3c.4,.1,1.1,.2,1.5,.3l1.4,.2c.4,0,.9,.1,1.3,.1l1.3,.1c.4,.1,.9,.1,1.2,.1l1.2,.1c.4,0,.9,0,1.2,0h1.2c.4,0,.8,-.1,1.2,-.1h1.3c.3,0,.9,-.1,1.2,-.1l1.4,-.1c.4,-.1,1,-.2,1.5,-.2l1.7,-.3c3.5,-.6,6.3,-1.2,11.1,-3.1l2.9,-1.2c3.5,-1.7,3.9,-1.9,6.1,-3.3l3.1,-2.1c1.3,-1.1,3.1,-2.5,4.4,-3.6l2.9,-2.8c1,-1.1,2.4,-2.6,3.3,-3.8l2.5,-3.3c.7,-1.2,1.8,-2.8,2.5,-4.1l2,-3.8c.5,-1.3,1.3,-3,1.8,-4.4l1.3,-4c.3,-1.5,.8,-3.3,1,-4.7l.7,-4.4c0,-1.6,.2,-3.8,.2,-5.4l-.2,-4.5c-.1,-1.4,-.3,-3.4,-.5,-4.8l-.9,-4.3c-.4,-1.3,-.9,-3.1,-1.4,-4.5l-1.5,-4c-.7,-1.2,-1.4,-2.9,-2.1,-4.2l-2.1,-3.6c-.9,-1.2,-1.9,-2.8,-2.8,-3.9l-2.6,-3.1c-1.1,-1.1,-2.4,-2.5,-3.5,-3.5l-2.9,-2.5c-3.8,-2.9,-4.2,-3.2,-7.3,-5c13.4,7.6,22.2,22.7,22.2,41.2Z" class="gv_267"/>
<path d="M225.8,898.8c0,5.9,-.9,11.8,-2.7,17.4c-2,24.3,-20.5,36.4,-37.2,39.6c-3,1.1,-6.2,1.9,-9.5,2.3c3.3,-.4,6.5,-1.2,9.5,-2.3c-.4,.1,-.9,.1,-1.2,.2C146,960.4,127,916.9,148.1,892.3c27.1,-31.6,70.3,-16.1,74.8,17.5c.3,1.9,.3,4.5,.2,6.4c1.8,-5.6,2.7,-11.5,2.7,-17.4c0,-18.5,-8.8,-33.6,-22.2,-41.2c-.8,-.4,-2,-1,-2.8,-1.5c-1.3,-.5,-3,-1.3,-4.2,-1.8l-2.4,-.9c-.8,-.2,-1.9,-.6,-2.7,-.8l-1.8,-.5c-.6,-.2,-1.4,-.4,-2,-.5l-1.6,-.3c-.5,-.1,-1.1,-.2,-1.6,-.2l-1.3,-.2c-.4,-.1,-1,-.1,-1.4,-.2l-1.2,-.1c-.4,0,-.9,0,-1.3,-.1h-1.1c-.4,0,-.9,0,-1.2,0h-1.2c-.4,0,-.9,0,-1.2,0l-1.3,.1c-.4,0,-.9,0,-1.3,.1l-1.3,.1c-.5,0,-1.1,.1,-1.5,.2l-1.8,.2c-5.2,1,-7.7,1.8,-11.7,3.4l-2.8,1.2c-3.7,1.9,-3.9,2.1,-6.1,3.4l-3,2.1c-1.3,1.1,-3.1,2.5,-4.3,3.6l-2.9,2.8c-1,1.2,-2.3,2.7,-3.3,3.9l-2.4,3.3c-.8,1.2,-1.8,2.9,-2.5,4.1l-1.9,3.8c-.5,1.3,-1.3,3.1,-1.8,4.4l-1.2,4.2c-.4,1.4,-.8,3.2,-1.1,4.6l-.5,4.4c-.1,1.5,-.2,3.4,-.3,4.9l.2,4.5c.3,2.3,.8,5.5,1.2,7.8l1.1,4.2c.5,1.3,1.1,3.1,1.6,4.4l1.8,3.8c.7,1.3,1.6,3,2.3,4.2l2.3,3.4c.9,1.1,2.1,2.7,3,3.8l2.8,2.9c1.1,1.1,2.6,2.5,3.7,3.4l3,2.3c1.4,1,3.4,2.2,4.9,3.1l2.8,1.5c1.2,.6,2.9,1.4,4.2,1.9l2.3,.8c.8,.3,1.9,.7,2.7,.9l1.9,.5c.6,.1,1.4,.3,2,.4l1.6,.3c.4,.1,1.1,.2,1.5,.3l1.4,.2c.4,0,.9,.1,1.3,.1l1.3,.1c.4,.1,.9,.1,1.2,.1l1.2,.1c.4,0,.9,0,1.2,0h1.2c.4,0,.8,-.1,1.2,-.1h1.3c.3,0,.9,-.1,1.2,-.1l1.4,-.1c.4,-.1,1,-.2,1.5,-.2l1.7,-.3c3.5,-.6,6.3,-1.2,11.1,-3.1l2.9,-1.2c3.5,-1.7,3.9,-1.9,6.1,-3.3l3.1,-2.1c1.3,-1.1,3.1,-2.5,4.4,-3.6l2.9,-2.8c1,-1.1,2.4,-2.6,3.3,-3.8l2.5,-3.3c.7,-1.2,1.8,-2.8,2.5,-4.1l2,-3.8c.5,-1.3,1.3,-3,1.8,-4.4l1.3,-4c.3,-1.5,.8,-3.3,1,-4.7l.7,-4.4c0,-1.6,.2,-3.8,.2,-5.4l-.2,-4.5c-.1,-1.4,-.3,-3.4,-.5,-4.8l-.9,-4.3c-.4,-1.3,-.9,-3.1,-1.4,-4.5l-1.5,-4c-.7,-1.2,-1.4,-2.9,-2.1,-4.2l-2.1,-3.6c-.9,-1.2,-1.9,-2.8,-2.8,-3.9l-2.6,-3.1c-1.1,-1.1,-2.4,-2.5,-3.5,-3.5l-2.9,-2.5c-3.8,-2.9,-4.2,-3.2,-7.3,-5c13.4,7.6,22.2,22.7,22.2,41.2Z" class="gu_267"/>
<path d="M225.8,898.8c0,4.3,-.5,8.6,-1.4,12.7c0,1.3,0,2.9,-.1,4.2c-1.2,13.2,-8.3,36.1,-42.6,41.4c-1.7,.4,-3.5,.8,-5.3,1c1.8,-.2,3.6,-.6,5.3,-1c-.2,0,-.5,0,-.7,0c-36.2,2.5,-57.6,-40,-33.8,-66.9c28.4,-32.1,73.6,-14.3,77.1,20.7c.1,.2,.1,.5,.1,.6c.9,-4.1,1.4,-8.4,1.4,-12.7c0,-18.5,-8.8,-33.6,-22.2,-41.2c-.8,-.4,-2,-1,-2.8,-1.5c-1.3,-.5,-3,-1.3,-4.2,-1.8l-2.4,-.9c-.8,-.2,-1.9,-.6,-2.7,-.8l-1.8,-.5c-.6,-.2,-1.4,-.4,-2,-.5l-1.6,-.3c-.5,-.1,-1.1,-.2,-1.6,-.2l-1.3,-.2c-.4,-.1,-1,-.1,-1.4,-.2l-1.2,-.1c-.4,0,-.9,0,-1.3,-.1h-1.1c-.4,0,-.9,0,-1.2,0h-1.2c-.4,0,-.9,0,-1.2,0l-1.3,.1c-.4,0,-.9,0,-1.3,.1l-1.3,.1c-.5,0,-1.1,.1,-1.5,.2l-1.8,.2c-5.2,1,-7.7,1.8,-11.7,3.4l-2.8,1.2c-3.7,1.9,-3.9,2.1,-6.1,3.4l-3,2.1c-1.3,1.1,-3.1,2.5,-4.3,3.6l-2.9,2.8c-1,1.2,-2.3,2.7,-3.3,3.9l-2.4,3.3c-.8,1.2,-1.8,2.9,-2.5,4.1l-1.9,3.8c-.5,1.3,-1.3,3.1,-1.8,4.4l-1.2,4.2c-.4,1.4,-.8,3.2,-1.1,4.6l-.5,4.4c-.1,1.5,-.2,3.4,-.3,4.9l.2,4.5c.3,2.3,.8,5.5,1.2,7.8l1.1,4.2c.5,1.3,1.1,3.1,1.6,4.4l1.8,3.8c.7,1.3,1.6,3,2.3,4.2l2.3,3.4c.9,1.1,2.1,2.7,3,3.8l2.8,2.9c1.1,1.1,2.6,2.5,3.7,3.4l3,2.3c1.4,1,3.4,2.2,4.9,3.1l2.8,1.5c1.2,.6,2.9,1.4,4.2,1.9l2.3,.8c.8,.3,1.9,.7,2.7,.9l1.9,.5c.6,.1,1.4,.3,2,.4l1.6,.3c.4,.1,1.1,.2,1.5,.3l1.4,.2c.4,0,.9,.1,1.3,.1l1.3,.1c.4,.1,.9,.1,1.2,.1l1.2,.1c.4,0,.9,0,1.2,0h1.2c.4,0,.8,-.1,1.2,-.1h1.3c.3,0,.9,-.1,1.2,-.1l1.4,-.1c.4,-.1,1,-.2,1.5,-.2l1.7,-.3c3.5,-.6,6.3,-1.2,11.1,-3.1l2.9,-1.2c3.5,-1.7,3.9,-1.9,6.1,-3.3l3.1,-2.1c1.3,-1.1,3.1,-2.5,4.4,-3.6l2.9,-2.8c1,-1.1,2.4,-2.6,3.3,-3.8l2.5,-3.3c.7,-1.2,1.8,-2.8,2.5,-4.1l2,-3.8c.5,-1.3,1.3,-3,1.8,-4.4l1.3,-4c.3,-1.5,.8,-3.3,1,-4.7l.7,-4.4c0,-1.6,.2,-3.8,.2,-5.4l-.2,-4.5c-.1,-1.4,-.3,-3.4,-.5,-4.8l-.9,-4.3c-.4,-1.3,-.9,-3.1,-1.4,-4.5l-1.5,-4c-.7,-1.2,-1.4,-2.9,-2.1,-4.2l-2.1,-3.6c-.9,-1.2,-1.9,-2.8,-2.8,-3.9l-2.6,-3.1c-1.1,-1.1,-2.4,-2.5,-3.5,-3.5l-2.9,-2.5c-3.8,-2.9,-4.2,-3.2,-7.3,-5c13.4,7.6,22.2,22.7,22.2,41.2Z" class="gt_267"/>
<path d="M225.8,898.8c0,2.9,-.2,5.8,-.7,8.7c.2,1.9,5,45.8,-47.7,50.5c-.3,0,-.7,.1,-1,.1c.3,0,.7,-.1,1,-.1c-.1,0,-.2,0,-.2,0C155.5,960.4,117.9,925.6,145,889.8c20.1,-26.5,71.4,-26.3,80.1,17.7c.5,-2.9,.7,-5.8,.7,-8.7c0,-18.5,-8.8,-33.6,-22.2,-41.2c-.8,-.4,-2,-1,-2.8,-1.5c-1.3,-.5,-3,-1.3,-4.2,-1.8l-2.4,-.9c-.8,-.2,-1.9,-.6,-2.7,-.8l-1.8,-.5c-.6,-.2,-1.4,-.4,-2,-.5l-1.6,-.3c-.5,-.1,-1.1,-.2,-1.6,-.2l-1.3,-.2c-.4,-.1,-1,-.1,-1.4,-.2l-1.2,-.1c-.4,0,-.9,0,-1.3,-.1h-1.1c-.4,0,-.9,0,-1.2,0h-1.2c-.4,0,-.9,0,-1.2,0l-1.3,.1c-.4,0,-.9,0,-1.3,.1l-1.3,.1c-.5,0,-1.1,.1,-1.5,.2l-1.8,.2c-5.2,1,-7.7,1.8,-11.7,3.4l-2.8,1.2c-3.7,1.9,-3.9,2.1,-6.1,3.4l-3,2.1c-1.3,1.1,-3.1,2.5,-4.3,3.6l-2.9,2.8c-1,1.2,-2.3,2.7,-3.3,3.9l-2.4,3.3c-.8,1.2,-1.8,2.9,-2.5,4.1l-1.9,3.8c-.5,1.3,-1.3,3.1,-1.8,4.4l-1.2,4.2c-.4,1.4,-.8,3.2,-1.1,4.6l-.5,4.4c-.1,1.5,-.2,3.4,-.3,4.9l.2,4.5c.3,2.3,.8,5.5,1.2,7.8l1.1,4.2c.5,1.3,1.1,3.1,1.6,4.4l1.8,3.8c.7,1.3,1.6,3,2.3,4.2l2.3,3.4c.9,1.1,2.1,2.7,3,3.8l2.8,2.9c1.1,1.1,2.6,2.5,3.7,3.4l3,2.3c1.4,1,3.4,2.2,4.9,3.1l2.8,1.5c1.2,.6,2.9,1.4,4.2,1.9l2.3,.8c.8,.3,1.9,.7,2.7,.9l1.9,.5c.6,.1,1.4,.3,2,.4l1.6,.3c.4,.1,1.1,.2,1.5,.3l1.4,.2c.4,0,.9,.1,1.3,.1l1.3,.1c.4,.1,.9,.1,1.2,.1l1.2,.1c.4,0,.9,0,1.2,0h1.2c.4,0,.8,-.1,1.2,-.1h1.3c.3,0,.9,-.1,1.2,-.1l1.4,-.1c.4,-.1,1,-.2,1.5,-.2l1.7,-.3c3.5,-.6,6.3,-1.2,11.1,-3.1l2.9,-1.2c3.5,-1.7,3.9,-1.9,6.1,-3.3l3.1,-2.1c1.3,-1.1,3.1,-2.5,4.4,-3.6l2.9,-2.8c1,-1.1,2.4,-2.6,3.3,-3.8l2.5,-3.3c.7,-1.2,1.8,-2.8,2.5,-4.1l2,-3.8c.5,-1.3,1.3,-3,1.8,-4.4l1.3,-4c.3,-1.5,.8,-3.3,1,-4.7l.7,-4.4c0,-1.6,.2,-3.8,.2,-5.4l-.2,-4.5c-.1,-1.4,-.3,-3.4,-.5,-4.8l-.9,-4.3c-.4,-1.3,-.9,-3.1,-1.4,-4.5l-1.5,-4c-.7,-1.2,-1.4,-2.9,-2.1,-4.2l-2.1,-3.6c-.9,-1.2,-1.9,-2.8,-2.8,-3.9l-2.6,-3.1c-1.1,-1.1,-2.4,-2.5,-3.5,-3.5l-2.9,-2.5c-3.8,-2.9,-4.2,-3.2,-7.3,-5c13.4,7.6,22.2,22.7,22.2,41.2Z" class="gs_267"/>
<path d="M225.8,898.8c0,1.5,-.1,3.1,-.2,4.7c.2,1.2,.5,2.9,.7,4.1c4.1,43.2,-47.2,64.3,-76.3,41.1c-32.2,-25.6,-12.4,-77.4,30.2,-79.2c17.7,-.7,39,7.8,45.4,34c.1,-1.6,.2,-3.2,.2,-4.7c0,-18.5,-8.8,-33.6,-22.2,-41.2c-.8,-.4,-2,-1,-2.8,-1.5c-1.3,-.5,-3,-1.3,-4.2,-1.8l-2.4,-.9c-.8,-.2,-1.9,-.6,-2.7,-.8l-1.8,-.5c-.6,-.2,-1.4,-.4,-2,-.5l-1.6,-.3c-.5,-.1,-1.1,-.2,-1.6,-.2l-1.3,-.2c-.4,-.1,-1,-.1,-1.4,-.2l-1.2,-.1c-.4,0,-.9,0,-1.3,-.1h-1.1c-.4,0,-.9,0,-1.2,0h-1.2c-.4,0,-.9,0,-1.2,0l-1.3,.1c-.4,0,-.9,0,-1.3,.1l-1.3,.1c-.5,0,-1.1,.1,-1.5,.2l-1.8,.2c-5.2,1,-7.7,1.8,-11.7,3.4l-2.8,1.2c-3.7,1.9,-3.9,2.1,-6.1,3.4l-3,2.1c-1.3,1.1,-3.1,2.5,-4.3,3.6l-2.9,2.8c-1,1.2,-2.3,2.7,-3.3,3.9l-2.4,3.3c-.8,1.2,-1.8,2.9,-2.5,4.1l-1.9,3.8c-.5,1.3,-1.3,3.1,-1.8,4.4l-1.2,4.2c-.4,1.4,-.8,3.2,-1.1,4.6l-.5,4.4c-.1,1.5,-.2,3.4,-.3,4.9l.2,4.5c.3,2.3,.8,5.5,1.2,7.8l1.1,4.2c.5,1.3,1.1,3.1,1.6,4.4l1.8,3.8c.7,1.3,1.6,3,2.3,4.2l2.3,3.4c.9,1.1,2.1,2.7,3,3.8l2.8,2.9c1.1,1.1,2.6,2.5,3.7,3.4l3,2.3c1.4,1,3.4,2.2,4.9,3.1l2.8,1.5c1.2,.6,2.9,1.4,4.2,1.9l2.3,.8c.8,.3,1.9,.7,2.7,.9l1.9,.5c.6,.1,1.4,.3,2,.4l1.6,.3c.4,.1,1.1,.2,1.5,.3l1.4,.2c.4,0,.9,.1,1.3,.1l1.3,.1c.4,.1,.9,.1,1.2,.1l1.2,.1c.4,0,.9,0,1.2,0h1.2c.4,0,.8,-.1,1.2,-.1h1.3c.3,0,.9,-.1,1.2,-.1l1.4,-.1c.4,-.1,1,-.2,1.5,-.2l1.7,-.3c3.5,-.6,6.3,-1.2,11.1,-3.1l2.9,-1.2c3.5,-1.7,3.9,-1.9,6.1,-3.3l3.1,-2.1c1.3,-1.1,3.1,-2.5,4.4,-3.6l2.9,-2.8c1,-1.1,2.4,-2.6,3.3,-3.8l2.5,-3.3c.7,-1.2,1.8,-2.8,2.5,-4.1l2,-3.8c.5,-1.3,1.3,-3,1.8,-4.4l1.3,-4c.3,-1.5,.8,-3.3,1,-4.7l.7,-4.4c0,-1.6,.2,-3.8,.2,-5.4l-.2,-4.5c-.1,-1.4,-.3,-3.4,-.5,-4.8l-.9,-4.3c-.4,-1.3,-.9,-3.1,-1.4,-4.5l-1.5,-4c-.7,-1.2,-1.4,-2.9,-2.1,-4.2l-2.1,-3.6c-.9,-1.2,-1.9,-2.8,-2.8,-3.9l-2.6,-3.1c-1.1,-1.1,-2.4,-2.5,-3.5,-3.5l-2.9,-2.5c-3.8,-2.9,-4.2,-3.2,-7.3,-5c13.4,7.6,22.2,22.7,22.2,41.2Z" class="gr_267"/>
<path d="M225.8,898.8c0,.2,0,.4,0,.6c.3,1.2,.7,2.9,1,4.2c6.9,44.9,-44.4,69.7,-75.7,47C119,927.5,130.3,878.7,169.9,869.1c28.5,-6.9,50,10.4,55.9,30.3c0,-.2,0,-.4,0,-.6c0,-18.5,-8.8,-33.6,-22.2,-41.2c-.8,-.4,-2,-1,-2.8,-1.5c-1.3,-.5,-3,-1.3,-4.2,-1.8l-2.4,-.9c-.8,-.2,-1.9,-.6,-2.7,-.8l-1.8,-.5c-.6,-.2,-1.4,-.4,-2,-.5l-1.6,-.3c-.5,-.1,-1.1,-.2,-1.6,-.2l-1.3,-.2c-.4,-.1,-1,-.1,-1.4,-.2l-1.2,-.1c-.4,0,-.9,0,-1.3,-.1h-1.1c-.4,0,-.9,0,-1.2,0h-1.2c-.4,0,-.9,0,-1.2,0l-1.3,.1c-.4,0,-.9,0,-1.3,.1l-1.3,.1c-.5,0,-1.1,.1,-1.5,.2l-1.8,.2c-5.2,1,-7.7,1.8,-11.7,3.4l-2.8,1.2c-3.7,1.9,-3.9,2.1,-6.1,3.4l-3,2.1c-1.3,1.1,-3.1,2.5,-4.3,3.6l-2.9,2.8c-1,1.2,-2.3,2.7,-3.3,3.9l-2.4,3.3c-.8,1.2,-1.8,2.9,-2.5,4.1l-1.9,3.8c-.5,1.3,-1.3,3.1,-1.8,4.4l-1.2,4.2c-.4,1.4,-.8,3.2,-1.1,4.6l-.5,4.4c-.1,1.5,-.2,3.4,-.3,4.9l.2,4.5c.3,2.3,.8,5.5,1.2,7.8l1.1,4.2c.5,1.3,1.1,3.1,1.6,4.4l1.8,3.8c.7,1.3,1.6,3,2.3,4.2l2.3,3.4c.9,1.1,2.1,2.7,3,3.8l2.8,2.9c1.1,1.1,2.6,2.5,3.7,3.4l3,2.3c1.4,1,3.4,2.2,4.9,3.1l2.8,1.5c1.2,.6,2.9,1.4,4.2,1.9l2.3,.8c.8,.3,1.9,.7,2.7,.9l1.9,.5c.6,.1,1.4,.3,2,.4l1.6,.3c.4,.1,1.1,.2,1.5,.3l1.4,.2c.4,0,.9,.1,1.3,.1l1.3,.1c.4,.1,.9,.1,1.2,.1l1.2,.1c.4,0,.9,0,1.2,0h1.2c.4,0,.8,-.1,1.2,-.1h1.3c.3,0,.9,-.1,1.2,-.1l1.4,-.1c.4,-.1,1,-.2,1.5,-.2l1.7,-.3c3.5,-.6,6.3,-1.2,11.1,-3.1l2.9,-1.2c3.5,-1.7,3.9,-1.9,6.1,-3.3l3.1,-2.1c1.3,-1.1,3.1,-2.5,4.4,-3.6l2.9,-2.8c1,-1.1,2.4,-2.6,3.3,-3.8l2.5,-3.3c.7,-1.2,1.8,-2.8,2.5,-4.1l2,-3.8c.5,-1.3,1.3,-3,1.8,-4.4l1.3,-4c.3,-1.5,.8,-3.3,1,-4.7l.7,-4.4c0,-1.6,.2,-3.8,.2,-5.4l-.2,-4.5c-.1,-1.4,-.3,-3.4,-.5,-4.8l-.9,-4.3c-.4,-1.3,-.9,-3.1,-1.4,-4.5l-1.5,-4c-.7,-1.2,-1.4,-2.9,-2.1,-4.2l-2.1,-3.6c-.9,-1.2,-1.9,-2.8,-2.8,-3.9l-2.6,-3.1c-1.1,-1.1,-2.4,-2.5,-3.5,-3.5l-2.9,-2.5c-3.8,-2.9,-4.2,-3.2,-7.3,-5c13.4,7.6,22.2,22.7,22.2,41.2Z" class="gq_267"/>
<path d="M225.7,895.1c2.9,14.5,7.4,36.4,-18.3,55.1c-14,10.2,-38.1,14.6,-58,.4c-30,-21.4,-23.1,-72.6,20.7,-83.9c29.5,-7.6,53.1,16,55.6,28.4c-1.1,-16.8,-9.6,-30.4,-22.1,-37.5c-.8,-.4,-2,-1,-2.8,-1.5c-1.3,-.5,-3,-1.3,-4.2,-1.8l-2.4,-.9c-.8,-.2,-1.9,-.6,-2.7,-.8l-1.8,-.5c-.6,-.2,-1.4,-.4,-2,-.5l-1.6,-.3c-.4,-.1,-1.1,-.2,-1.6,-.2l-1.3,-.2c-.4,-.1,-1,-.1,-1.4,-.2l-1.2,-.1c-.4,0,-.9,0,-1.3,-.1h-1.1c-.4,0,-.9,0,-1.2,0h-1.2c-.4,0,-.9,0,-1.2,0l-1.3,.1c-.4,0,-.9,0,-1.3,.1l-1.3,.1c-.5,0,-1.1,.1,-1.5,.2l-1.8,.2c-5.2,1,-7.7,1.8,-11.7,3.4l-2.8,1.2c-3.7,1.9,-3.9,2,-6.1,3.4l-3,2.1c-1.3,1.1,-3.1,2.5,-4.3,3.6l-2.9,2.8c-1,1.2,-2.3,2.7,-3.3,3.9l-2.4,3.3c-.8,1.2,-1.8,2.9,-2.5,4.1l-1.9,3.8c-.5,1.3,-1.3,3.1,-1.8,4.4l-1.2,4.2c-.4,1.4,-.8,3.2,-1.1,4.6l-.5,4.4c-.1,1.5,-.2,3.4,-.3,4.9l.2,4.5c.3,2.3,.8,5.5,1.2,7.8l1.1,4.2c.5,1.3,1.1,3.1,1.6,4.4l1.8,3.8c.7,1.3,1.6,3,2.3,4.2l2.3,3.4c.9,1.1,2.1,2.7,3,3.8l2.8,2.9c1.1,1.1,2.6,2.5,3.7,3.4l3,2.3c1.4,1,3.4,2.2,4.9,3.1l2.8,1.5c1.2,.6,2.9,1.4,4.2,1.9l2.3,.8c.8,.3,1.9,.7,2.7,.9l1.9,.5c.6,.1,1.4,.3,2,.4l1.6,.3c.4,.1,1.1,.2,1.5,.3l1.4,.2c.4,0,.9,.1,1.3,.1l1.3,.1c.4,.1,.9,.1,1.2,.1l1.2,.1c.4,0,.9,0,1.2,0h1.2c.4,0,.8,-.1,1.2,-.1h1.3c.3,0,.9,-.1,1.2,-.1l1.4,-.1c.4,-.1,1,-.2,1.5,-.2l1.7,-.3c3.5,-.6,6.3,-1.2,11.1,-3.1l2.9,-1.2c3.5,-1.8,3.9,-1.9,6.1,-3.3l3.1,-2.1c1.3,-1.1,3.1,-2.5,4.4,-3.6l2.9,-2.8c1,-1.1,2.4,-2.6,3.3,-3.8l2.5,-3.3c.7,-1.2,1.8,-2.8,2.5,-4.1l2,-3.8c.5,-1.3,1.3,-3,1.8,-4.4l1.3,-4c.3,-1.5,.8,-3.3,1,-4.7l.7,-4.4c0,-1.6,.2,-3.8,.2,-5.4l-.1,-4.5c-.2,-1.4,-.4,-3.4,-.6,-4.8l-.9,-4.3c-.4,-1.3,-.9,-3.1,-1.4,-4.5l-1.5,-4c-.7,-1.2,-1.4,-2.9,-2.1,-4.2l-2.1,-3.6c-.9,-1.2,-1.9,-2.8,-2.8,-3.9l-2.6,-3.1c-1.1,-1.1,-2.4,-2.5,-3.5,-3.5l-2.9,-2.5c-3.8,-2.9,-4.2,-3.2,-7.3,-5c12.5,7.1,21,20.7,22.1,37.5Z" class="g9_267"/>
<path d="M225.3,891c4.2,15.2,9.9,36,-14.7,57.2c-13.5,11.6,-37.8,17.1,-58.1,5.3c-38.1,-22.2,-26.7,-78.9,17.9,-89.1c12.9,-3,41.1,-1.3,54.9,26.6c-2.1,-14.9,-10.2,-26.9,-21.7,-33.4c-.8,-.4,-2,-1,-2.8,-1.5c-1.3,-.5,-3,-1.3,-4.2,-1.8l-2.4,-.9c-.8,-.2,-1.9,-.6,-2.7,-.8l-1.8,-.5c-.6,-.2,-1.4,-.4,-2,-.5l-1.6,-.3c-.5,-.1,-1.1,-.2,-1.6,-.2l-1.3,-.2c-.4,-.1,-1,-.1,-1.4,-.2l-1.2,-.1c-.4,0,-.9,0,-1.3,-.1h-1.1c-.4,0,-.9,0,-1.2,0h-1.2c-.4,0,-.9,0,-1.2,0l-1.3,.1c-.4,0,-.9,0,-1.3,.1l-1.3,.1c-.5,0,-1.1,.1,-1.5,.2l-1.8,.2c-5.2,1,-7.7,1.8,-11.7,3.4l-2.8,1.2c-3.7,1.9,-3.9,2.1,-6.1,3.4l-3,2.1c-1.3,1.1,-3.1,2.5,-4.3,3.6l-2.9,2.8c-1,1.2,-2.3,2.7,-3.3,3.9l-2.4,3.3c-.8,1.2,-1.8,2.9,-2.5,4.1l-1.9,3.8c-.5,1.3,-1.3,3.1,-1.8,4.4l-1.2,4.2c-.4,1.4,-.8,3.2,-1.1,4.6l-.5,4.4c-.1,1.5,-.2,3.4,-.3,4.9l.2,4.5c.3,2.3,.8,5.5,1.2,7.8l1.1,4.2c.5,1.3,1.1,3.1,1.6,4.4l1.8,3.8c.7,1.3,1.6,3,2.3,4.2l2.3,3.4c.9,1.1,2.1,2.7,3,3.8l2.8,2.9c1.1,1.1,2.6,2.5,3.7,3.4l3,2.3c1.4,1,3.4,2.2,4.9,3.1l2.8,1.5c1.2,.6,2.9,1.4,4.2,1.9l2.3,.8c.8,.3,1.9,.7,2.7,.9l1.9,.5c.6,.1,1.4,.3,2,.4l1.6,.3c.4,.1,1.1,.2,1.5,.3l1.4,.2c.4,0,.9,.1,1.3,.1l1.3,.1c.4,.1,.9,.1,1.2,.1l1.2,.1c.4,0,.9,0,1.2,0h1.2c.4,0,.8,-.1,1.2,-.1h1.3c.3,0,.8,-.1,1.2,-.1l1.4,-.1c.4,-.1,1,-.2,1.5,-.2l1.7,-.3c3.5,-.6,6.3,-1.2,11.1,-3.1l2.9,-1.2c3.5,-1.7,3.9,-1.9,6.1,-3.3l3.1,-2.1c1.3,-1.1,3.1,-2.5,4.4,-3.6l2.9,-2.8c1,-1.1,2.4,-2.6,3.3,-3.8l2.5,-3.3c.7,-1.2,1.8,-2.8,2.5,-4.1l2,-3.8c.5,-1.3,1.3,-3,1.8,-4.4l1.3,-4c.3,-1.5,.8,-3.3,1,-4.7l.7,-4.4c0,-1.6,.2,-3.8,.2,-5.4l-.2,-4.5c-.1,-1.4,-.3,-3.4,-.5,-4.8l-.9,-4.3c-.4,-1.3,-.9,-3.1,-1.4,-4.5l-1.5,-4c-.7,-1.2,-1.4,-2.9,-2.1,-4.2l-2.1,-3.6c-.9,-1.2,-1.9,-2.8,-2.8,-3.9l-2.6,-3.1c-1.1,-1.1,-2.4,-2.5,-3.5,-3.5l-2.9,-2.5c-3.8,-2.9,-4.2,-3.2,-7.3,-5c11.5,6.5,19.6,18.5,21.7,33.4Z" class="g17_267"/>
<path d="M224.6,886.9c4.6,13.3,12.4,35.5,-8.5,56.5c-20.1,20.2,-45,19.3,-60.2,12.5C115.5,937.7,118.5,882.5,160.8,865c30.4,-12.6,58.5,7.1,63.8,21.9c-2.9,-13,-10.6,-23.4,-21,-29.3c-.8,-.4,-2,-1,-2.8,-1.5c-1.3,-.5,-3,-1.3,-4.2,-1.8l-2.4,-.9c-.8,-.2,-1.9,-.6,-2.7,-.8l-1.8,-.5c-.6,-.2,-1.4,-.4,-2,-.5l-1.6,-.3c-.4,-.1,-1.1,-.2,-1.6,-.2l-1.3,-.2c-.4,-.1,-1,-.1,-1.4,-.2l-1.2,-.1c-.4,0,-.9,0,-1.3,-.1h-1.2c-.3,0,-.8,0,-1.1,0h-1.2c-.4,0,-.9,0,-1.2,0l-1.3,.1c-.4,0,-.9,0,-1.3,.1l-1.3,.1c-.5,0,-1.1,.1,-1.5,.2l-1.8,.2c-5.2,1,-7.7,1.8,-11.7,3.4l-2.8,1.2c-3.7,1.9,-3.9,2,-6.1,3.4l-3,2.1c-1.3,1.1,-3.1,2.5,-4.3,3.6l-2.9,2.8c-1,1.2,-2.3,2.7,-3.3,3.9l-2.4,3.3c-.8,1.2,-1.8,2.9,-2.5,4.1l-1.9,3.8c-.5,1.3,-1.3,3.1,-1.8,4.4l-1.2,4.2c-.4,1.4,-.8,3.2,-1.1,4.6l-.5,4.4c-.1,1.5,-.2,3.4,-.3,4.9l.2,4.5c.3,2.3,.8,5.5,1.2,7.8l1.1,4.2c.5,1.3,1.1,3.1,1.6,4.4l1.8,3.8c.7,1.3,1.6,3,2.3,4.2l2.3,3.4c.9,1.1,2.1,2.7,3,3.8l2.8,2.9c1.1,1.1,2.6,2.5,3.7,3.4l3,2.3c1.4,1,3.4,2.2,4.9,3.1l2.8,1.5c1.2,.6,2.9,1.4,4.2,1.9l2.3,.8c.8,.3,1.9,.7,2.7,.9l1.9,.5c.6,.1,1.4,.3,2,.4l1.6,.3c.4,.1,1.1,.2,1.5,.3l1.4,.2c.4,0,.9,.1,1.3,.1l1.3,.1c.4,.1,.9,.1,1.2,.1l1.2,.1c.4,0,.9,0,1.2,0h1.2c.4,0,.8,-.1,1.2,-.1h1.3c.3,0,.9,-.1,1.2,-.1l1.4,-.1c.4,-.1,1,-.2,1.5,-.2l1.7,-.3c3.5,-.6,6.3,-1.2,11.1,-3.1l2.9,-1.2c3.5,-1.8,3.9,-1.9,6.1,-3.3l3.1,-2.1c1.3,-1.1,3.1,-2.5,4.4,-3.6l2.9,-2.8c1,-1.1,2.4,-2.6,3.3,-3.8l2.5,-3.3c.7,-1.2,1.8,-2.8,2.5,-4.1l2,-3.8c.5,-1.3,1.3,-3,1.8,-4.4l1.3,-4c.3,-1.5,.8,-3.3,1,-4.7l.7,-4.4c0,-1.6,.2,-3.8,.2,-5.4l-.1,-4.5c-.2,-1.4,-.4,-3.4,-.6,-4.8l-.9,-4.3c-.4,-1.3,-.9,-3.1,-1.4,-4.5l-1.5,-4c-.7,-1.2,-1.4,-2.9,-2.1,-4.2l-2.1,-3.6c-.9,-1.2,-1.9,-2.8,-2.8,-3.9l-2.6,-3.1c-1.1,-1.1,-2.4,-2.5,-3.5,-3.5l-2.9,-2.5c-3.8,-2.9,-4.2,-3.2,-7.3,-5c10.4,5.9,18.1,16.3,21,29.3Z" class="g18_267"/>
<path d="M159.1,957.4C114,941,117.7,883,154.9,865.3c40.8,-19.5,63.9,10.2,68.2,16.3c-3.6,-10.5,-10.5,-18.9,-19.5,-24c-.8,-.4,-2,-1,-2.8,-1.5c-1.3,-.5,-3,-1.3,-4.2,-1.8l-2.4,-.9c-.8,-.2,-1.9,-.6,-2.7,-.8l-1.8,-.5c-.6,-.2,-1.4,-.4,-2,-.5l-1.6,-.3c-.4,-.1,-1.1,-.2,-1.6,-.2l-1.3,-.2c-.4,-.1,-1,-.1,-1.4,-.2l-1.2,-.1c-.4,0,-.9,0,-1.3,-.1h-1.1c-.4,0,-.9,0,-1.2,0h-1.2c-.4,0,-.9,0,-1.2,0l-1.3,.1c-.4,0,-.9,0,-1.3,.1l-1.3,.1c-.5,0,-1.1,.1,-1.5,.2l-1.8,.2c-5.2,1,-7.7,1.8,-11.7,3.4l-2.8,1.2c-3.7,1.9,-3.9,2,-6.1,3.4l-3,2.1c-1.3,1.1,-3.1,2.5,-4.3,3.6l-2.9,2.8c-1,1.2,-2.3,2.7,-3.3,3.9l-2.4,3.3c-.8,1.2,-1.8,2.9,-2.5,4.1l-1.9,3.8c-.5,1.3,-1.3,3.1,-1.8,4.4l-1.2,4.2c-.4,1.4,-.8,3.2,-1.1,4.6l-.5,4.4c-.1,1.5,-.2,3.4,-.3,4.9l.2,4.5c.3,2.3,.8,5.5,1.2,7.8l1.1,4.2c.5,1.3,1.1,3.1,1.6,4.4l1.8,3.8c.7,1.3,1.6,3,2.3,4.2l2.3,3.4c.9,1.1,2.1,2.7,3,3.8l2.8,2.9c1.1,1.1,2.6,2.5,3.7,3.4l3,2.3c1.4,1,3.4,2.2,4.9,3.1l2.8,1.5c1.2,.6,2.9,1.4,4.2,1.9l2.3,.8l1.9,.6l-1.6,-.5Z" class="g19_267"/>
<path d="M223.1,881.6q7.5,15.8,7.8,21.8c.5,10.4,-1.1,18.2,-5.6,27.2l1.8,-3.9l1.1,-2.7l1.3,-4c.3,-1.5,.8,-3.3,1,-4.7l.7,-4.4c0,-1.6,.2,-3.8,.2,-5.4l-.2,-4.5c-.1,-1.4,-.3,-3.4,-.5,-4.8l-.9,-4.3c-.4,-1.3,-.9,-3.1,-1.4,-4.5l-1.5,-4c-.7,-1.2,-1.4,-2.9,-2.1,-4.2l-2.1,-3.6c-.9,-1.2,-1.9,-2.8,-2.8,-3.9l-2.6,-3.1c-1.1,-1.1,-2.4,-2.5,-3.5,-3.5l-2.9,-2.5c-3.8,-2.9,-4.2,-3.2,-7.3,-5c9,5.1,15.9,13.5,19.5,24Z" class="g19_267"/>
<path d="M144.5,949.9C104.4,919.1,127.6,863,171.6,856.4c19.8,-3,36.4,3.8,49.4,20.2c-3.9,-8.2,-9.9,-14.7,-17.4,-19c-.8,-.4,-2,-1,-2.8,-1.5c-1.3,-.5,-3,-1.3,-4.2,-1.8l-2.4,-.9c-.8,-.2,-1.9,-.6,-2.7,-.8l-1.8,-.5c-.6,-.2,-1.4,-.4,-2,-.5l-1.6,-.3c-.4,-.1,-1.1,-.2,-1.6,-.2l-1.3,-.2c-.4,-.1,-1,-.1,-1.4,-.2l-1.2,-.1c-.4,0,-.9,0,-1.3,-.1h-1.1c-.4,0,-.9,0,-1.2,0h-1.2c-.4,0,-.9,0,-1.2,0l-1.3,.1c-.4,0,-.9,0,-1.3,.1l-1.3,.1c-.5,0,-1.1,.1,-1.5,.2l-1.8,.2c-5.2,1,-7.7,1.8,-11.7,3.4l-2.8,1.2c-3.7,1.9,-3.9,2.1,-6.1,3.4l-3,2.1c-1.3,1.1,-3.1,2.5,-4.3,3.6l-2.9,2.8c-1,1.2,-2.3,2.7,-3.3,3.9l-2.4,3.3c-.8,1.2,-1.8,2.9,-2.5,4.1l-1.9,3.8c-.5,1.3,-1.3,3.1,-1.8,4.4l-1.2,4.2c-.4,1.4,-.8,3.2,-1.1,4.6l-.5,4.4c-.1,1.5,-.2,3.4,-.3,4.9l.2,4.5c.3,2.3,.8,5.5,1.2,7.8l1.1,4.2c.5,1.3,1.1,3.1,1.6,4.4l1.8,3.8c.7,1.3,1.6,3,2.3,4.2l2.3,3.4c.9,1.1,2.1,2.7,3,3.8l2.8,2.9c1.1,1.1,2.6,2.5,3.7,3.4c.9,.7,2.1,1.6,2.9,2.3c0,0,0,-.1,0,-.1Z" class="g1a_267"/>
<path d="M221,876.6c1.2,1.9,3.3,4,4.4,5.9c2,3.5,2.7,4.7,3.7,8.2c1.3,4.2,2.8,11,2.1,19.1c.2,-2.6,.2,-6.2,0,-8.8c-.1,-1.4,-.3,-3.4,-.5,-4.8l-.9,-4.3c-.4,-1.3,-.9,-3.1,-1.4,-4.5l-1.5,-4c-.7,-1.2,-1.4,-2.9,-2.1,-4.2l-2.1,-3.6c-.9,-1.2,-1.9,-2.8,-2.8,-3.9l-2.6,-3.1c-1.1,-1.1,-2.4,-2.5,-3.5,-3.5l-2.9,-2.5c-3.8,-2.9,-4.2,-3.2,-7.3,-5c7.5,4.3,13.5,10.8,17.4,19Z" class="g1a_267"/>
<path d="M162.5,947.2c21.1,14.1,60.4,-2.8,54.1,-38c-5,-28.3,-49.7,-36.6,-66.6,-4.7c-6.5,12.3,-5.4,30.9,12.5,42.7Z" class="gx_267"/>
<path d="M155.3,939c18.8,22.7,57.4,10.9,60.6,-18.6c1.9,-18.1,-12.4,-28.7,-17.5,-31c-20,-8.7,-32.1,1.1,-38.6,6.4c-11.7,9.5,-16.3,29.1,-4.5,43.2Z" class="gy_267"/>
<path d="M157.2,938.6c6.5,8.1,20.4,13.9,34.4,9.3c12.3,-4.1,22,-16.2,22.6,-28.1c1.5,-27.9,-32.4,-44.4,-56,-19.4c-.2,.2,-16.5,18.9,-1,38.2Z" class="gz_267"/>
<path d="M159.4,938.2c19.2,21.1,52.1,5.3,53,-19c.7,-21.2,-20.6,-27.7,-20.8,-27.7c-15,-4.4,-29.8,7.4,-33.2,12c-5.5,7.5,-9.1,23.7,1,34.7Z" class="g10_267"/>
<path d="M161.9,937.9c4.2,4.7,17.4,11.2,26.6,7.6c21.7,-8.6,21.9,-22.3,22,-26.8c.3,-23.7,-31.6,-34,-48.2,-15.6c-6.3,7,-11.6,22.1,-.4,34.8Z" class="gj_267"/>
<path d="M164.5,937.6c2.1,2.5,15,10.1,25.4,5.4c5.5,-2.4,18.5,-8.1,18.5,-24.8c0,-3,-5.2,-13.5,-5.2,-13.5c-3.3,-4.1,-11.6,-7.5,-11.7,-7.5c-6.7,-2.4,-19.6,-.3,-25.2,5.7c-14.4,15.1,-7.3,28.2,-1.8,34.7Z" class="g11_267"/>
<path d="M162.6,929.8c3.9,6.3,8,12.7,21.9,12.3c12.4,-.4,19.4,-13.3,19.5,-13.5c1.5,-5.8,1.8,-11,1.8,-11c-.2,-1,-2.3,-9.7,-7.3,-13.6c-2.8,-2.2,-13.1,-8.8,-27.5,-1.3c-3.7,1.9,-9.6,12.7,-9.6,12.8c-.1,.1,-2.2,9,1.2,14.3Z" class="g12_267"/>
<path d="M171.7,937.1c1.8,1.8,14.7,4.4,21,.3c.1,0,8.3,-8.7,8.3,-8.8c.5,-.9,2,-10.5,1.8,-11.6c-1.1,-7.2,-11.1,-14,-11.6,-14.1c-.6,-.2,-10.5,-.9,-10.8,-.8c-3,.8,-10.8,6.5,-10.8,6.5c-1.8,1.7,-3.9,4.3,-4.6,6.6c-.2,.9,-.7,10.1,-.5,11.7l7.2,10.2Z" class="g13_267"/>
<path d="M171.2,931.3L179,937h7c.1,0,9.3,-4.9,12,-8.9c.4,-.5,1.8,-10.7,1.7,-11.6c-.2,-1.1,-8.8,-8.9,-8.8,-8.9c-1,-.7,-2.8,-.4,-3.9,-.5c-2,-.2,-4.8,-1.3,-6.7,-.6c-.6,.3,-10,6.4,-10.5,6.9c-2.5,2.5,-1.8,13.2,-1.8,13.3c.2,1.7,2,3.4,3.2,4.6Z" class="g14_267"/>
<path d="M179.3,931.8h7.9l6.5,-4.3c.2,-.5,.5,-11.2,.3,-11.7c-.6,-1.4,-2.2,-2.9,-3.6,-3.4c-.3,-.1,-7.5,-.9,-10.2,-1c-1.9,-.1,-4.3,1.9,-5.4,3.5c-.2,.2,-2.3,11.4,-2.2,11.6l6.7,5.3Z" class="g15_267"/>
</g>
<g clip-path="url(#cb_267)">
<path d="M149.5,953.1C124.3,938.5,120.4,912.5,121.8,900.8c.6,-4.5,2.2,-18,11.5,-29.2c3.3,-4,11.9,-14.5,28.5,-19.1c9.8,-2.7,25,-4.1,41.8,5.1c-7.7,-4.4,-17,-6.3,-27,-4.9c10,-1.4,19.3,.5,27,4.9c7.5,4.6,16.1,10.8,23.1,25.4c2.4,5.1,6.2,16.1,4,31.3c-2.6,17.4,-16.7,38.8,-41.9,44.6c-19,4.4,-33.8,-2.6,-39.3,-5.8Z" class="gr_267"/>
<path d="M203.6,857.6c3.5,2.1,6.3,4,10.2,7.5l2.8,2.8c1,1.1,2.4,2.6,3.3,3.8l2.4,3.4c.8,1.2,1.8,2.8,2.5,4.1l1.9,3.8c.5,1.3,1.2,3.1,1.7,4.4l1.3,4.1c.3,1.4,.7,3.3,1,4.7l.5,4.4c.1,1.5,.2,3.4,.2,4.9l-.2,4.5c-.2,1.5,-.4,3.7,-.7,5.3l-.9,4.2c-.4,1.4,-1,3.2,-1.4,4.5l-1.6,4c-.7,1.2,-1.5,3,-2.2,4.2l-2.1,3.5c-.9,1.2,-2,2.8,-2.9,3.9l-2.6,3.1c-1.1,1.1,-2.5,2.5,-3.6,3.5l-2.9,2.4c-1.3,1,-3.2,2.3,-4.6,3.3l-2.7,1.6c-3.6,1.8,-3.9,2,-6.3,2.9l-1.9,.8c-2.8,.9,-5.7,1.8,-10.9,2.6l-1.5,.2c-.4,0,-.9,.1,-1.4,.1l-1.2,.1c-.4,0,-.9,0,-1.3,0l-1.2,.1c-.4,0,-.8,0,-1.2,0h-1.2c-.3,-.1,-.8,-.1,-1.2,-.1l-1.2,-.1c-.4,0,-.9,0,-1.3,-.1l-1.3,-.1c-.4,-.1,-1,-.2,-1.4,-.2l-1.5,-.3c-.5,-.1,-1.1,-.2,-1.6,-.3l-1.8,-.4c-.6,-.1,-1.5,-.3,-2.1,-.5l-2.2,-.7c-.9,-.3,-2,-.7,-2.8,-1l-2.8,-1.2c-1.3,-.6,-3,-1.5,-4.2,-2.2l-3.2,-1.9c-1.4,-1,-3.3,-2.4,-4.7,-3.5l-2.9,-2.6c-1.1,-1.1,-2.6,-2.6,-3.6,-3.7l-2.6,-3.2c-.8,-1.2,-1.9,-2.8,-2.7,-4l-2.1,-3.7c-.6,-1.3,-1.4,-3,-2,-4.3l-1.4,-4c-.4,-1.4,-1,-3.2,-1.3,-4.6l-.8,-4.3c-.2,-2.4,-.5,-5.6,-.6,-8l.2,-4.5c.2,-1.4,.4,-3.3,.6,-4.8l1,-4.2c.4,-1.4,.9,-3.2,1.3,-4.6l1.6,-3.9c.6,-1.3,1.4,-3,2.1,-4.3l2.1,-3.5c.8,-1.2,1.9,-2.8,2.8,-3.9l2.6,-3.1c1.1,-1.1,2.5,-2.6,3.6,-3.6l2.8,-2.5c1.4,-.9,3.2,-2.3,4.5,-3.2l2.8,-1.7c3.7,-1.9,3.9,-2,6.1,-2.9l2,-.8c3.6,-1.2,6.2,-2,11.5,-2.8l1.4,-.2c.5,-.1,1,-.1,1.4,-.1l1.3,-.1c.4,-.1,.9,-.1,1.3,-.1h1.2c.3,0,.8,0,1.2,0h1.2c.3,0,.8,0,1.1,0l1.3,.1c.4,.1,.9,.1,1.2,.1l1.4,.2c.4,0,.9,.1,1.3,.2l1.6,.2c.5,.1,1.1,.2,1.6,.3l1.8,.4c.6,.2,1.4,.4,2,.6l2.3,.6c.8,.4,1.9,.7,2.8,1.1l2.8,1.1c1.2,.7,3,1.5,4.2,2.2c-7.4,-4.2,-16.1,-6.1,-25.5,-5.1q-.1,0,-.2,0c-49.8,-.4,-63.3,50.8,-39.6,75.3c28.6,29.6,80.6,8.1,80.6,-33.4c0,-26.6,-24.2,-41.7,-40.8,-41.9c9.4,-1,18.1,.9,25.5,5.1Z" class="gr_267"/>
<path d="M203.6,857.6c3.5,2.1,6.3,4,10.2,7.5l2.8,2.8c1,1.1,2.4,2.6,3.3,3.8l2.4,3.4c.8,1.2,1.8,2.8,2.5,4.1l1.9,3.8c.5,1.3,1.2,3.1,1.7,4.4l1.3,4.1c.3,1.4,.7,3.3,1,4.7l.5,4.4c.1,1.5,.2,3.4,.2,4.9l-.2,4.5c-.2,1.5,-.4,3.7,-.7,5.3l-.9,4.2c-.4,1.4,-1,3.2,-1.4,4.5l-1.6,4c-.7,1.2,-1.5,3,-2.2,4.2l-2.1,3.5c-.9,1.2,-2,2.8,-2.9,3.9l-2.6,3.1c-1.1,1.1,-2.5,2.5,-3.6,3.5l-2.9,2.4c-1.3,1,-3.2,2.3,-4.6,3.3l-2.7,1.6c-3.6,1.8,-3.9,2,-6.3,2.9l-1.9,.8c-2.8,.9,-5.7,1.8,-10.9,2.6l-1.5,.2c-.4,0,-.9,.1,-1.4,.1l-1.2,.1c-.4,0,-.9,0,-1.3,0l-1.2,.1c-.4,0,-.8,0,-1.2,0h-1.2c-.3,-.1,-.8,-.1,-1.2,-.1l-1.2,-.1c-.4,0,-.9,0,-1.3,-.1l-1.3,-.1c-.4,-.1,-1,-.2,-1.4,-.2l-1.5,-.3c-.5,-.1,-1.1,-.2,-1.6,-.3l-1.8,-.4c-.6,-.1,-1.5,-.3,-2.1,-.5l-2.2,-.7c-.9,-.3,-2,-.7,-2.8,-1l-2.8,-1.2c-1.3,-.6,-3,-1.5,-4.2,-2.2l-3.2,-1.9c-1.4,-1,-3.3,-2.4,-4.7,-3.5l-2.9,-2.6c-1.1,-1.1,-2.6,-2.6,-3.6,-3.7l-2.6,-3.2c-.8,-1.2,-1.9,-2.8,-2.7,-4l-2.1,-3.7c-.6,-1.3,-1.4,-3,-2,-4.3l-1.4,-4c-.4,-1.4,-1,-3.2,-1.3,-4.6l-.8,-4.3c-.2,-2.4,-.5,-5.6,-.6,-8l.2,-4.5c.2,-1.4,.4,-3.3,.6,-4.8l1,-4.2c.4,-1.4,.9,-3.2,1.3,-4.6l1.6,-3.9c.6,-1.3,1.4,-3,2.1,-4.3l2.1,-3.5c.8,-1.2,1.9,-2.8,2.8,-3.9l2.6,-3.1c1.1,-1.1,2.5,-2.6,3.6,-3.6l2.8,-2.5c1.4,-.9,3.2,-2.3,4.5,-3.2l2.8,-1.7c3.7,-1.9,3.9,-2,6.1,-2.9l2,-.8c3.6,-1.2,6.2,-2,11.5,-2.8l1.4,-.2c.5,-.1,1,-.1,1.4,-.1l1.3,-.1c.4,-.1,.9,-.1,1.3,-.1h1.2c.3,0,.8,0,1.2,0h1.2c.3,0,.8,0,1.1,0l1.3,.1c.4,.1,.9,.1,1.2,.1l1.4,.2c.4,0,.9,.1,1.3,.2l1.6,.2c.5,.1,1.1,.2,1.6,.3l1.8,.4c.6,.2,1.4,.4,2,.6l2.3,.6c.8,.4,1.9,.7,2.8,1.1l2.8,1.1c1.2,.7,3,1.5,4.2,2.2C197.3,854,190,852.1,182.1,852.2c-.1,0,-.4,0,-.5,-.1c-38.8,-6,-73.9,37.9,-47,73.9c23.8,32,79.8,16.3,85.5,-24c3.9,-27.3,-16.7,-47.1,-38,-49.8c7.9,-.1,15.2,1.8,21.5,5.4Z" class="gq_267"/>
<path d="M203.6,857.6c3.5,2.1,6.3,4,10.2,7.5l2.8,2.8c1,1.1,2.4,2.6,3.3,3.8l2.4,3.4c.8,1.2,1.8,2.8,2.5,4.1l1.9,3.8c.5,1.3,1.2,3.1,1.7,4.4l1.3,4.1c.3,1.4,.7,3.3,1,4.7l.5,4.4c.1,1.5,.2,3.4,.2,4.9l-.2,4.5c-.2,1.5,-.4,3.7,-.7,5.3l-.9,4.2c-.4,1.4,-1,3.2,-1.4,4.5l-1.6,4c-.7,1.2,-1.5,3,-2.2,4.2l-2.1,3.5c-.9,1.2,-2,2.8,-2.9,3.9l-2.6,3.1c-1.1,1.1,-2.5,2.5,-3.6,3.5l-2.9,2.4c-1.3,1,-3.2,2.3,-4.6,3.3l-2.7,1.6c-3.6,1.8,-3.9,2,-6.3,2.9l-1.9,.8c-2.8,.9,-5.7,1.8,-10.9,2.6l-1.5,.2c-.4,0,-.9,.1,-1.4,.1l-1.2,.1c-.4,0,-.9,0,-1.3,0l-1.2,.1c-.4,0,-.8,0,-1.2,0h-1.2c-.3,-.1,-.8,-.1,-1.2,-.1l-1.2,-.1c-.4,0,-.9,0,-1.3,-.1l-1.3,-.1c-.4,-.1,-1,-.2,-1.4,-.2l-1.5,-.3c-.5,-.1,-1.1,-.2,-1.6,-.3l-1.8,-.4c-.6,-.1,-1.5,-.3,-2.1,-.5l-2.2,-.7c-.9,-.3,-2,-.7,-2.8,-1l-2.8,-1.2c-1.3,-.6,-3,-1.5,-4.2,-2.2l-3.2,-1.9c-1.4,-1,-3.3,-2.4,-4.7,-3.5l-2.9,-2.6c-1.1,-1.1,-2.6,-2.6,-3.6,-3.7l-2.6,-3.2c-.8,-1.2,-1.9,-2.8,-2.7,-4l-2.1,-3.7c-.6,-1.3,-1.4,-3,-2,-4.3l-1.4,-4c-.4,-1.4,-1,-3.2,-1.3,-4.6l-.8,-4.3c-.2,-2.4,-.5,-5.6,-.6,-8l.2,-4.5c.2,-1.4,.4,-3.3,.6,-4.8l1,-4.2c.4,-1.4,.9,-3.2,1.3,-4.6l1.6,-3.9c.6,-1.3,1.4,-3,2.1,-4.3l2.1,-3.5c.8,-1.2,1.9,-2.8,2.8,-3.9l2.6,-3.1c1.1,-1.1,2.5,-2.6,3.6,-3.6l2.8,-2.5c1.4,-.9,3.2,-2.3,4.5,-3.2l2.8,-1.7c3.7,-1.9,3.9,-2,6.1,-2.9l2,-.8c3.6,-1.2,6.2,-2,11.5,-2.8l1.4,-.2c.5,-.1,1,-.1,1.4,-.1l1.3,-.1c.4,-.1,.9,-.1,1.3,-.1h1.2c.3,0,.8,0,1.2,0h1.2c.3,0,.8,0,1.1,0l1.3,.1c.4,.1,.9,.1,1.2,.1l1.4,.2c.4,0,.9,.1,1.3,.2l1.6,.2c.5,.1,1.1,.2,1.6,.3l1.8,.4c.6,.2,1.4,.4,2,.6l2.3,.6c.8,.4,1.9,.7,2.8,1.1l2.8,1.1c1.2,.7,3,1.5,4.2,2.2c-5.2,-2.9,-11.1,-4.8,-17.5,-5.3c-.3,0,-.6,-.1,-.9,-.2c-39,-8.5,-78.6,36.4,-52.6,73.8c22.2,31.8,79.9,23.9,88.9,-21.9c4,-20.4,-8.4,-45.9,-35.4,-51.7c6.4,.5,12.3,2.4,17.5,5.3Z" class="g9_267"/>
<path d="M203.6,857.6c3.5,2.1,6.3,4,10.2,7.5l2.8,2.8c1,1.1,2.4,2.6,3.3,3.8l2.4,3.4c.8,1.2,1.8,2.8,2.5,4.1l1.9,3.8c.5,1.3,1.2,3.1,1.7,4.4l1.3,4.1c.3,1.4,.7,3.3,1,4.7l.5,4.4c.1,1.5,.2,3.4,.2,4.9l-.2,4.5c-.2,1.5,-.4,3.7,-.7,5.3l-.9,4.2c-.4,1.4,-1,3.2,-1.4,4.5l-1.6,4c-.7,1.2,-1.5,3,-2.2,4.2l-2.1,3.5c-.9,1.2,-2,2.8,-2.9,3.9l-2.6,3.1c-1.1,1.1,-2.5,2.5,-3.6,3.5l-2.9,2.4c-1.3,1,-3.2,2.3,-4.6,3.3l-2.7,1.6c-3.6,1.8,-3.9,2,-6.3,2.9l-1.9,.8c-2.8,.9,-5.7,1.8,-10.9,2.6l-1.5,.2c-.4,0,-.9,.1,-1.4,.1l-1.2,.1c-.4,0,-.9,0,-1.3,0l-1.2,.1c-.4,0,-.8,0,-1.2,0h-1.2c-.3,-.1,-.8,-.1,-1.2,-.1l-1.2,-.1c-.4,0,-.9,0,-1.3,-.1l-1.3,-.1c-.4,-.1,-1,-.2,-1.4,-.2l-1.5,-.3c-.5,-.1,-1.1,-.2,-1.6,-.3l-1.8,-.4c-.6,-.1,-1.5,-.3,-2.1,-.5l-2.2,-.7c-.9,-.3,-2,-.7,-2.8,-1l-2.8,-1.2c-1.3,-.6,-3,-1.5,-4.2,-2.2l-3.2,-1.9c-1.4,-1,-3.3,-2.4,-4.7,-3.5l-2.9,-2.6c-1.1,-1.1,-2.6,-2.6,-3.6,-3.7l-2.6,-3.2c-.8,-1.2,-1.9,-2.8,-2.7,-4l-2.1,-3.7c-.6,-1.3,-1.4,-3,-2,-4.3l-1.4,-4c-.4,-1.4,-1,-3.2,-1.3,-4.6l-.8,-4.3c-.2,-2.4,-.5,-5.6,-.6,-8l.2,-4.5c.2,-1.4,.4,-3.3,.6,-4.8l1,-4.2c.4,-1.4,.9,-3.2,1.3,-4.6l1.6,-3.9c.6,-1.3,1.4,-3,2.1,-4.3l2.1,-3.5c.8,-1.2,1.9,-2.8,2.8,-3.9l2.6,-3.1c1.1,-1.1,2.5,-2.6,3.6,-3.6l2.8,-2.5c1.4,-.9,3.2,-2.3,4.5,-3.2l2.8,-1.7c3.7,-1.9,3.9,-2,6.1,-2.9l2,-.8c3.6,-1.2,6.2,-2,11.5,-2.8l1.4,-.2c.5,-.1,1,-.1,1.4,-.1l1.3,-.1c.4,-.1,.9,-.1,1.3,-.1h1.2c.3,0,.8,0,1.2,0h1.2c.3,0,.8,0,1.1,0l1.3,.1c.4,.1,.9,.1,1.2,.1l1.4,.2c.4,0,.9,.1,1.3,.2l1.6,.2c.5,.1,1.1,.2,1.6,.3l1.8,.4c.6,.2,1.4,.4,2,.6l2.3,.6c.8,.4,1.9,.7,2.8,1.1l2.8,1.1c1.2,.7,3,1.5,4.2,2.2c-4.1,-2.3,-8.6,-3.9,-13.5,-4.8c-.3,-.1,-.8,-.2,-1.2,-.4c-43.8,-11.6,-81.8,34.7,-59,71.9c24.5,40,82.2,24.3,92.2,-14.8c7.4,-28.8,-10.5,-50.3,-32,-56.7c4.9,.9,9.4,2.5,13.5,4.8Z" class="g17_267"/>
<path d="M203.6,857.6c3.5,2.1,6.3,4,10.2,7.5l2.8,2.8c1,1.1,2.4,2.6,3.3,3.8l2.4,3.4c.8,1.2,1.8,2.8,2.5,4.1l1.9,3.8c.5,1.3,1.2,3.1,1.7,4.4l1.3,4.1c.3,1.4,.7,3.3,1,4.7l.5,4.4c.1,1.5,.2,3.4,.2,4.9l-.2,4.5c-.2,1.5,-.4,3.7,-.7,5.3l-.9,4.2c-.4,1.4,-1,3.2,-1.4,4.5l-1.6,4c-.7,1.2,-1.5,3,-2.2,4.2l-2.1,3.5c-.9,1.2,-2,2.8,-2.9,3.9l-2.6,3.1c-1.1,1.1,-2.5,2.5,-3.6,3.5l-2.9,2.4c-1.3,1,-3.2,2.3,-4.6,3.3l-2.7,1.6c-3.6,1.8,-3.9,2,-6.3,2.9l-1.9,.8c-2.8,.9,-5.7,1.8,-10.9,2.6l-1.5,.2c-.4,0,-.9,.1,-1.4,.1l-1.2,.1c-.4,0,-.9,0,-1.3,0l-1.2,.1c-.4,0,-.8,0,-1.2,0h-1.2c-.3,-.1,-.8,-.1,-1.2,-.1l-1.2,-.1c-.4,0,-.9,0,-1.3,-.1l-1.3,-.1c-.4,-.1,-1,-.2,-1.4,-.2l-1.5,-.3c-.5,-.1,-1.1,-.2,-1.6,-.3l-1.8,-.4c-.6,-.1,-1.5,-.3,-2.1,-.5l-2.2,-.7c-.9,-.3,-2,-.7,-2.8,-1l-2.8,-1.2c-1.3,-.6,-3,-1.5,-4.2,-2.2l-3.2,-1.9c-1.4,-1,-3.3,-2.4,-4.7,-3.5l-2.9,-2.6c-1.1,-1.1,-2.6,-2.6,-3.6,-3.7l-2.6,-3.2c-.8,-1.2,-1.9,-2.8,-2.7,-4l-2.1,-3.7c-.6,-1.3,-1.4,-3,-2,-4.3l-1.4,-4c-.4,-1.4,-1,-3.2,-1.3,-4.6l-.8,-4.3c-.2,-2.4,-.5,-5.6,-.6,-8l.2,-4.5c.2,-1.4,.4,-3.3,.6,-4.8l1,-4.2c.4,-1.4,.9,-3.2,1.3,-4.6l1.6,-3.9c.6,-1.3,1.4,-3,2.1,-4.3l2.1,-3.5c.8,-1.2,1.9,-2.8,2.8,-3.9l2.6,-3.1c1.1,-1.1,2.5,-2.6,3.6,-3.6l2.8,-2.5c1.4,-.9,3.2,-2.3,4.5,-3.2l2.8,-1.7c3.7,-1.9,3.9,-2,6.1,-2.9l2,-.8c3.6,-1.2,6.2,-2,11.5,-2.8l1.4,-.2c.5,-.1,1,-.1,1.4,-.1l1.3,-.1c.4,-.1,.9,-.1,1.3,-.1h1.2c.3,0,.8,0,1.2,0h1.2c.3,0,.8,0,1.1,0l1.3,.1c.4,.1,.9,.1,1.2,.1l1.4,.2c.4,0,.9,.1,1.3,.2l1.6,.2c.5,.1,1.1,.2,1.6,.3l1.8,.4c.6,.2,1.4,.4,2,.6l2.3,.6c.8,.4,1.9,.7,2.8,1.1l2.8,1.1c1.2,.7,3,1.5,4.2,2.2c-2.9,-1.6,-6,-2.9,-9.3,-3.8c-.5,-.2,-1,-.4,-1.4,-.6c-43.1,-14.8,-85,30.6,-65,70.4c19.3,38.3,81.4,31.8,95,-10c8.1,-25,-4.2,-50.7,-28.6,-59.8c3.3,.9,6.4,2.2,9.3,3.8Z" class="g18_267"/>
<path d="M196.6,854.3c3.7,1.6,4,1.7,7,3.3c-1.7,-1,-3.5,-1.8,-5.4,-2.5c-.4,-.2,-1,-.5,-1.5,-.7q-2.1,-.9,-4.3,-1.6l2.3,.8l1.9,.7Z" class="g19_267"/>
<path d="M203.6,857.6c3.5,2.1,6.3,4,10.2,7.5l2.8,2.8c1,1.1,2.4,2.6,3.3,3.8l2.4,3.4c.8,1.2,1.8,2.8,2.5,4.1l1.9,3.8c.5,1.3,1.2,3.1,1.7,4.4l1.3,4.1c.3,1.4,.7,3.3,1,4.7l.5,4.4c.1,1.5,.2,3.4,.2,4.9l-.2,4.5c-.2,1.5,-.4,3.7,-.7,5.3l-.9,4.2c-.4,1.4,-1,3.2,-1.4,4.5l-1.6,4c-.7,1.2,-1.5,3,-2.2,4.2l-2.1,3.5c-.9,1.2,-2,2.8,-2.9,3.9l-2.6,3.1c-1.1,1.1,-2.5,2.5,-3.6,3.5l-2.9,2.4c-1.3,1,-3.2,2.3,-4.6,3.3l-2.7,1.6c-3.6,1.8,-3.9,2,-6.3,2.9l-1.9,.8c-2.8,.9,-5.7,1.8,-10.9,2.6l-1.5,.2c-.4,0,-.9,.1,-1.4,.1l-1.2,.1c-.4,0,-.9,0,-1.3,0l-1.2,.1c-.4,0,-.8,0,-1.2,0h-1.2c-.3,-.1,-.8,-.1,-1.2,-.1l-1.2,-.1c-.4,0,-.9,0,-1.3,-.1l-1.3,-.1c-.4,-.1,-1,-.2,-1.4,-.2l-1.5,-.3c-.5,-.1,-1.1,-.2,-1.6,-.3l-1.8,-.4c-.6,-.1,-1.5,-.3,-2.1,-.5l-2.2,-.7c-.9,-.3,-2,-.7,-2.8,-1l-2.8,-1.2c-1.3,-.6,-3,-1.5,-4.2,-2.2l-3.2,-1.9c-1.4,-1,-3.3,-2.4,-4.7,-3.5l-2.9,-2.6c-1.1,-1.1,-2.6,-2.6,-3.6,-3.7l-2.6,-3.2c-.8,-1.2,-1.9,-2.8,-2.7,-4l-2.1,-3.7c-.6,-1.3,-1.4,-3,-2,-4.3l-1.4,-4c-.4,-1.4,-1,-3.2,-1.3,-4.6l-.8,-4.3c-.2,-2.4,-.5,-5.6,-.6,-8l.2,-4.5c.2,-1.4,.4,-3.3,.6,-4.8l1,-4.2c.4,-1.4,.9,-3.2,1.3,-4.6l1.6,-3.9l1.4,-3.1l-1.7,3.7c-17.7,47.4,28.7,80.9,68.9,63.1C237,928.4,239,873.4,198.2,855.1c1.9,.7,3.7,1.5,5.4,2.5Z" class="g19_267"/>
<path d="M213.8,865.1c3.6,3.6,4,3.9,6.1,6.6l2.4,3.4c.8,1.2,1.8,2.9,2.5,4.1l1.9,3.8c.5,1.3,1.2,3.1,1.7,4.4l1.3,4.1c.3,1.4,.7,3.3,1,4.7l.5,4.4c.1,1.5,.2,3.4,.2,4.9l-.2,4.5c-.2,1.5,-.4,3.7,-.7,5.3l-.9,4.2c-.4,1.4,-1,3.2,-1.4,4.5l-1.6,4c-.7,1.3,-1.5,3,-2.2,4.2l-2.1,3.5c-.9,1.2,-2,2.8,-2.9,3.9l-2.6,3.1c-1.1,1.1,-2.5,2.5,-3.6,3.5l-2.9,2.4c-1.3,1,-3.2,2.3,-4.6,3.3l-2.7,1.6c-3.6,1.8,-3.9,2,-6.3,2.9l-1.9,.8c-2.8,.9,-5.7,1.8,-10.9,2.6l-1.5,.2c-.4,0,-.9,.1,-1.4,.1l-1.2,.1c-.4,0,-.9,0,-1.3,0l-1.2,.1c-.4,0,-.8,0,-1.2,0h-1.2c-.3,-.1,-.8,-.1,-1.2,-.1l-1.2,-.1c-.4,0,-.9,0,-1.3,-.1l-1.3,-.1c-.4,-.1,-1,-.2,-1.4,-.2l-1.5,-.3c-.5,0,-1.1,-.2,-1.6,-.3l-1.8,-.4c-.6,-.1,-1.5,-.3,-2.1,-.5l-2.2,-.7c-.9,-.3,-2,-.7,-2.8,-1l-2.8,-1.2c-1.3,-.6,-3,-1.5,-4.2,-2.2l-3.2,-1.9c-1.4,-1,-3.3,-2.4,-4.7,-3.5l-2.9,-2.6c-1.1,-1.1,-2.6,-2.6,-3.6,-3.7l-2.6,-3.2c-.8,-1.2,-1.9,-2.8,-2.7,-4l-2.1,-3.7c-.6,-1.3,-1.4,-3,-2,-4.3l-1.4,-4c-.4,-1.4,-1,-3.2,-1.3,-4.6l-.8,-4.3c-.2,-2.4,-.5,-5.6,-.6,-8c.1,-1.3,.2,-3,.2,-4.4c0,1.3,-.1,3,-.1,4.2c.4,46.5,58.8,67.2,91.9,32.6c23.8,-25.1,20,-61.3,-8.5,-79.2l3.1,2.1c1.7,1.2,4,3,5.6,4.5Z" class="g1a_267"/>
<path d="M199.1,860.5c30.4,20.3,20.9,66.5,-15.7,77.2C148.9,947.7,113.5,913.8,133,877c9.7,-18.3,40.3,-33.9,66.1,-16.5Z" class="gs_267"/>
<path d="M206.8,868.8c24.8,30.3,-4.7,75.4,-44.5,68c-37.3,-6.9,-45.4,-55.2,-12.8,-76c21.6,-13.8,45.6,-6.1,57.3,8Z" class="gt_267"/>
<path d="M205.5,869.4c23.8,29.5,-5.1,72.9,-43.4,65.4C128.4,928.2,115.7,884,150,861.4c20.1,-13.2,44,-6.3,55.5,8Z" class="gu_267"/>
<path d="M209.9,879.9c12.6,33.3,-26.2,65.9,-58.4,49.2c-28.8,-15,-27.6,-60.5,10,-71.9c26.8,-8.1,44.5,12.2,48.4,22.7Z" class="gv_267"/>
<path d="M208.4,880.4c11.5,32.5,-26.3,63.2,-57.1,46.4c-25.6,-14,-27.4,-58.9,13.4,-69.5c19.4,-5.1,38.3,7.9,43.7,23.1Z" class="ge_267"/>
<path d="M206.8,880.9c10.9,31.1,-26.5,60.4,-55.6,43.6c-25,-14.4,-23,-55.2,10.5,-65.3c25.6,-7.7,41.4,11.3,45.1,21.7Z" class="gw_267"/>
<path d="M205.1,881.3c10,30,-26.3,57.4,-54,40.8c-22.4,-13.4,-22.6,-54.2,14.1,-62.7c18.9,-4.4,35.1,7.7,39.9,21.9Z" class="gx_267"/>
<path d="M204.6,893.5c-1.3,16.3,-17.5,27.3,-20.7,28.3c-12.1,3.8,-26.1,6.6,-39.8,-9.2C125.7,891.4,146.2,857,175.4,860c17.7,1.8,30.6,16.5,29.2,33.5Z" class="gy_267"/>
<path d="M202.4,891.5c.8,21.9,-30.8,41.3,-51.3,25.3C127.4,898.5,140.9,865.9,167,861.6c16.5,-2.7,34.6,8.7,35.4,29.9Z" class="gz_267"/>
<path d="M200,894.3c-3.5,20.7,-25,25.4,-27.5,25.8c-8.7,1.7,-22.3,-3.7,-29,-15.2c-.1,-.1,-4.1,-8.2,-2.1,-17.4c1.7,-7.7,1.8,-8,9.6,-16.9c.1,-.2,11.6,-11.2,28.7,-6.8c4,1,23.6,10.5,20.3,30.5Z" class="g10_267"/>
<path d="M197.4,894.6c-4.8,25.7,-39.2,29.5,-50.8,10.9C132,882,159.4,860.5,176,864.7c15.4,3.9,24,15.9,21.4,29.9Z" class="gj_267"/>
<path d="M194.8,894.9c-.7,3.5,-7.9,12.9,-8,13c-3.1,2.7,-7.9,4.9,-14.2,6.5c-6.6,1.6,-19.1,-2.9,-22.7,-8.3c-9.2,-13.7,-3.3,-23.9,-2.6,-25.1c9.4,-14.9,21.2,-15.4,27.4,-14.4c12.3,2,23.1,13.1,20.1,28.3Z" class="g11_267"/>
<path d="M192.1,888c0,2.2,.6,5.3,-.4,7.2c-.1,.2,-6.5,11.6,-9.7,12.9q-9.8,4,-20.3,2.6c-.1,0,-6.9,-2.7,-9.7,-6.5c-8.4,-11.7,-2.8,-22.6,-2.7,-22.7c.5,-.9,8.6,-9.3,8.6,-9.3c2.8,-1.4,9.2,-4.6,16.6,-3.4c.5,.1,8.3,2.3,10.6,4.7c7,7.7,7,10.5,7,14.5Z" class="g12_267"/>
<path d="M188.1,895.5c-2.5,7.2,-13.5,13,-15.4,13.2c-.6,.1,-10.6,-.7,-10.8,-.8c-2,-1,-9.2,-8.5,-9.2,-8.5c-1,-1.6,-2.3,-3.8,-2.4,-5.7c-.1,-1.6,1.4,-11.1,1.8,-11.6c4.4,-5.8,10,-13.1,22.2,-10.9l7.1,2.5l7.2,10.1c.2,.4,-.3,11.1,-.5,11.7Z" class="g13_267"/>
<path d="M184.4,895.7c-.9,2.6,-11.6,8.5,-11.7,8.5c-1.7,0,-10.2,-.9,-10.5,-1c-.8,-.4,-8,-7.5,-8.6,-8.5c-.7,-1,1.4,-12,1.5,-12.1c.3,-1.2,1.9,-2.2,2.8,-3.2l9.2,-5.7l7,.1l7.8,5.6c1.2,1.2,2.4,3.2,3.1,4.7c.2,.3,-.4,11.1,-.6,11.6Z" class="g14_267"/>
<path d="M178.3,895.9c-1.1,1.6,-3.5,3.5,-5.4,3.4c-2.1,-.1,-9.7,-.8,-10.2,-1c-1.4,-.4,-3,-2,-3.6,-3.3c-.2,-.5,.1,-11.3,.3,-11.7l6.4,-4.4h8l6.7,5.3c.1,.2,-2.1,11.4,-2.2,11.7Z" class="g15_267"/>
</g>
<g clip-path="url(#cc_267)">
<path d="M849.5,966.5L809,904.5L845.7,963c1.7,1.2,3,2.3,3.8,3.5Z" class="g1b_267"/>
<path d="M845.7,963L809,904.5l36.5,58.4c0,0,.1,.1,.2,.1Z" class="g1c_267"/>
</g>
<path d="M611,843.7c0,-7,17.1,-12.8,38.3,-12.8c21.1,0,38.2,5.8,38.2,12.8c0,7,-17.1,12.8,-38.2,12.8c-21.2,0,-38.3,-5.8,-38.3,-12.8Z" class="g1d_267"/>
<path d="M402.8,832l46.5,45.1V981L402.8,932.3Z" class="g1e_267"/>
<path d="M402.8,832l46.5,45.1V981L402.8,932.3V832Z" class="g1d_267"/>
<path d="M409,915.2c-2.9,2.1,-11.2,2.9,-16.9,1.3" class="g1f_267"/>
<path d="M449.3,954.1L402.8,905.4l46.5,48.7Z" class="g1g_267"/>
<path d="M121.7,905.4c0,-30.3,24.6,-54.9,54.9,-54.9c30.3,0,54.8,24.6,54.8,54.9c0,30.3,-24.5,54.9,-54.8,54.9c-30.3,0,-54.9,-24.6,-54.9,-54.9Z" class="g1h_267"/>
<path d="M121.7,905.4c0,-8.6,24.6,-15.5,54.9,-15.5c30.3,0,54.8,6.9,54.8,15.5M187,851.5c7.9,2,12.2,14,12.2,35.1c0,40.6,-14.7,64.1,-22.5,70.4c-2.4,2,-5.1,2.7,-7.8,2.5" class="g1i_267"/>
<path d="M169.6,959.5c-9.2,-.4,-18.1,-12.3,-18.1,-34.1c0,-21.7,4.9,-58.4,23.8,-70.7c4.8,-3,8.9,-4.1,12.3,-3.2M231.2,908c0,13.1,-49.4,23.8,-79.7,17.4c-25,-5.8,-29.8,-11.5,-29.8,-20" class="g1j_267"/>
<path d="M611.8,846.3l37.5,59.1l37.4,-59.1c-3.3,5.9,-18.7,10.2,-37.4,10.2c-18.6,0,-34,-4.4,-37.5,-10.2Z" class="g1k_267"/>
<path d="M661.8,879.9c-3.1,-2.2,-7.5,-2.6,-12.5,-1.2" class="g1f_267"/>
<path d="M664.5,881.8L660,880.6l1.8,-.7l.1,-2Z" class="g1l_267"/>
<path d="M769.5,966.9l39.7,-62.7L849,966.9c.9,1.1,1.4,2.3,1.4,3.5c0,7.6,-18.4,13.7,-41.2,13.7c-22.7,0,-41.1,-6.1,-41.1,-13.7c0,-1.2,.5,-2.4,1.4,-3.5Z" class="g1d_267"/>
<path d="M849.2,967.2c-4.4,-6,-20.6,-10.5,-40,-10.5c-19.2,0,-35.4,4.4,-39.9,10.4" class="g1m_267"/>
<path d="M402.8,905.4l-50.1,50.1" class="g1n_267"/>
<path fill-rule="evenodd" d="M352.7,955.5l2.9,.6l-6.3,2.8l2.8,-6.3Z" class="g1l_267"/>
<path d="M402.8,905.4v-81" class="g1n_267"/>
<path fill-rule="evenodd" d="M402.8,824.4l-2.4,1.6l2.4,-6.5l2.5,6.5Z" class="g1l_267"/>
<path d="M449.7,914.6l46.7,9" class="g1n_267"/>
<path fill-rule="evenodd" d="M496.4,923.6l-1.1,-2.7l5.9,3.6l-6.9,1.2Z" class="g1l_267"/>
<path d="M402.8,905.4l46.9,9.2M176.5,905.4l50.9,8.9m-50.8,-8.9l-25.1,20m25.1,-20V854.1" class="g1o_267"/>
<path d="M151.5,925.4l-30,24.5" class="g1n_267"/>
<path fill-rule="evenodd" d="M121.5,949.9l2.8,.9l-6.6,2.2l3.5,-6Z" class="g1l_267"/>
<path d="M227.4,914.3l28.6,5.1" class="g1n_267"/>
<path fill-rule="evenodd" d="M256,919.4l-1.2,-2.7l6,3.5l-6.9,1.3Z" class="g1l_267"/>
<path d="M176.6,854.1V824.4" class="g1n_267"/>
<path fill-rule="evenodd" d="M176.6,824.4l-2.5,1.6l2.5,-6.5L179,826Z" class="g1l_267"/>
<path d="M649.3,905.4l-50.2,50.1" class="g1n_267"/>
<path fill-rule="evenodd" d="M599.1,955.5l2.9,.6l-6.3,2.8l2.9,-6.3Z" class="g1l_267"/>
<path d="M649.3,905.4V856.5" class="g1o_267"/>
<path d="M649.3,905.4l57.5,11.2" class="g1n_267"/>
<path fill-rule="evenodd" d="M706.8,916.6l-1.1,-2.7l6,3.6l-6.9,1.2Z" class="g1l_267"/>
<path d="M649.3,856.5V824.4" class="g1n_267"/>
<path fill-rule="evenodd" d="M649.3,824.4l-2.5,1.6l2.5,-6.5l2.4,6.5Z" class="g1l_267"/>
<path d="M820.2,916.3c4.3,-3,6.7,-7,6.7,-12.8C826.9,894.6,818,887,809.2,887" class="g1f_267"/>
<path d="M817.4,918.1l2.7,-3.8l.1,2l1.8,.8Z" class="g1l_267"/>
<path d="M809.2,904.2V975" class="g1o_267"/>
<path d="M809.2,904.2l-57,57" class="g1n_267"/>
<path fill-rule="evenodd" d="M752.2,961.2l2.9,.6l-6.4,2.9l2.9,-6.4Z" class="g1l_267"/>
<path d="M809.2,904.2l57.6,11.2" class="g1n_267"/>
<path fill-rule="evenodd" d="M866.8,915.4l-1.1,-2.7l5.9,3.6l-6.8,1.2Z" class="g1l_267"/>
<path d="M809.2,904.2V824.4" class="g1n_267"/>
<path fill-rule="evenodd" d="M809.2,824.4l-2.4,1.6l2.4,-6.5l2.5,6.5Z" class="g1l_267"/>
<path d="M411.7,913.3l-2.6,3.9l-.1,-2l-1.8,-.7Z" class="g1l_267"/>
<path fill-rule="evenodd" d="M292.8,670.9l-1.1,-2.7l5.9,3.6l-6.9,1.2Z" class="g1l_267"/>
<path fill-rule="evenodd" d="M120.2,682.6l2.8,1.1l-6.8,1.7l4,-5.7Z" class="g1l_267"/>
<path fill-rule="evenodd" d="M171.6,546.3l-2.5,1.6l2.5,-6.5l2.4,6.5Z" class="g1l_267"/>
<path d="M171.6,647.1L233.9,572" class="g1p_267"/>
<path d="M232.2,572c0,-.9,.8,-1.7,1.7,-1.7c1,0,1.7,.8,1.7,1.7c0,.9,-.7,1.7,-1.7,1.7c-.9,0,-1.7,-.8,-1.7,-1.7Z" class="g1q_267"/>
<path d="M232.2,572c0,-.9,.8,-1.7,1.7,-1.7c1,0,1.7,.8,1.7,1.7c0,.9,-.7,1.7,-1.7,1.7c-.9,0,-1.7,-.8,-1.7,-1.7Z" class="g1r_267"/>
<path d="M177.3,658.5c-5.3,2,-14.4,2.3,-21.6,-.4" class="g1s_267"/>
<path d="M180.3,657.3l-3.4,3.1l.3,-1.9l-1.5,-1.2Z" class="g1q_267"/>
<path d="M181.1,629.3c-2.9,-2,-6.1,-3.4,-9.5,-4.2" class="g1s_267"/>
<path d="M183.8,631.2l-4.5,-1.1l1.8,-.8l.1,-1.9Z" class="g1q_267"/>
<path d="M171.6,647.2l121.2,23.7M171.6,647.1l-51.4,35.5m51.4,-35.5V546.3" class="g1n_267"/>
<path d="M233.9,572V713.6L171.6,647.1" class="g1t_267"/>
<image clip-path="url(#cd_267)" preserveAspectRatio="none" x="0" y="95" width="879" height="252" xlink:href="img/2.png"/>
<path d="M308.3,218.6H324v-9.8H308.3v9.8Z" class="g1u_267"/>
</svg>