<?xml version="1.0" encoding="UTF-8" standalone="no"?>
<!DOCTYPE svg PUBLIC "-//W3C//DTD SVG 1.1//EN"
"http://www.w3.org/Graphics/SVG/1.1/DTD/svg11.dtd">
<svg viewBox="0 0 811 1017" version="1.1" xmlns="http://www.w3.org/2000/svg" xmlns:xlink="http://www.w3.org/1999/xlink">
<defs>
<clipPath id="c0_526"><path d="M87.4,454.7V82.5H710.7V454.7Z"/></clipPath>
<style type="text/css"><![CDATA[
.g0_526{
fill: #70A6CC;
}
.g1_526{
fill: #FFFFFF;
}
.g2_526{
fill: #C2C3C3;
}
.g3_526{
fill: #231F20;
}
.g4_526{
}
]]></style>
</defs>
<path d="M142.4,614.9H710.7V593.7H142.4Z" class="g0_526"/>
<path clip-path="url(#c0_526)" d="M89.7,445.5h621V83.1H89.7Z" class="g1_526"/>
<path d="M121.7,182.1H260.5V135.3H121.7Z" class="g2_526"/>
<path d="M121.7,135.3v.4H260.2v46H122.1V135.3h-.4v.4v-.4h-.4v47.2H260.9V134.9H121.3v.4h.4Z" class="g3_526"/>
<path d="M124.3,372.3H262.1V325.7H124.3Z" class="g2_526"/>
<path d="M124.3,325.7v.3H261.7v45.9h-137V325.7h-.4v.3v-.3h-.4v47H262.5V325.3H123.9v.4h.4Z" class="g3_526"/>
<path d="M121.9,270H260.2V223.4H121.9Z" class="g2_526"/>
<path d="M121.9,223.4v.4H259.8v45.8H122.2V223.4h-.3v.4v-.4h-.4v47h139V223h-139v.4h.4Z" class="g3_526"/>
<path d="M323.3,326.1H467.5V279.3H323.3Z" class="g2_526"/>
<path d="M323.3,279.3v.4H467.1v46H323.6V279.3h-.3v.4v-.4h-.4v47.1h145V278.9h-145v.4h.4Z" class="g3_526"/>
<path d="M326.4,422.1H467.9V377.5H326.4Z" class="g2_526"/>
<path d="M326.4,377.5v.4H467.5v43.9H326.8V377.5h-.4v.4v-.4H326v45H468.3V377.2H326v.3h.4Z" class="g3_526"/>
<path d="M155.1,182.5l-.2,33.5h.8l.1,-33.5Z" class="g3_526"/>
<path d="M153.1,214.5l2.2,8.3l2.2,-8.3h-4.4Z" class="g3_526"/>
<path d="M155,271l-.1,47h.8l.1,-47Z" class="g3_526"/>
<path d="M153.1,316.4l2.2,8.3l2.2,-8.3h-4.4Z" class="g3_526"/>
<path d="M308,133.9v.4H440.2v42.6H308.3v-43H308v.4v-.4h-.4v43.8H441V133.6H307.6v.3h.4Z" class="g3_526"/>
<path d="M260.4,153.2l37.5,.4v-.8l-37.5,-.4Z" class="g3_526"/>
<path d="M296.4,155.4l8.3,-2.1L296.4,151v4.4Z" class="g3_526"/>
<path d="M263.1,348.3l1.7,-1.4l-.4,-.6l-1.8,1.4Z" class="g3_526"/>
<path d="M266.1,345.9l3.6,-3.1l-.5,-.5l-3.6,3Zm4.8,-4.1l3.7,-3l-.5,-.5l-3.7,3Zm4.9,-4l3.6,-3l-.5,-.6l-3.6,3.1Zm4.8,-4l3.7,-3l-.5,-.6l-3.7,3Zm4.9,-4l3.6,-3l-.4,-.6l-3.7,3Zm4.9,-4l3.6,-3l-.5,-.6l-3.6,3Zm4.8,-4l3.7,-3l-.5,-.6l-3.7,3Zm4.9,-4l3.6,-3l-.5,-.6l-3.6,3Zm4.8,-4l3.7,-3l-.5,-.6l-3.7,3Zm4.9,-4l3.6,-3l-.5,-.6l-3.6,3Z" class="g3_526"/>
<path d="M314.7,305.8l1.7,-1.5l-.5,-.5l-1.7,1.4Z" class="g3_526"/>
<path d="M316.4,306.7l5,-7l-7.8,3.6l2.8,3.4Z" class="g3_526"/>
<path d="M262.6,348.4l1.7,1.5l.5,-.6l-1.7,-1.5Z" class="g3_526"/>
<path d="M265.5,350.8l3.5,2.9l.5,-.6L266,350.2Zm4.6,3.9l3.5,2.9l.5,-.6l-3.5,-2.9Zm4.7,3.8l3.5,2.9l.4,-.6l-3.4,-2.9Zm4.6,3.9l3.5,2.9l.5,-.6l-3.5,-2.9Zm4.7,3.8l3.4,2.9l.5,-.6l-3.5,-2.9Zm4.6,3.9l3.5,2.9l.5,-.6l-3.5,-2.9Zm4.6,3.8l3.5,2.9l.5,-.6l-3.5,-2.9Zm4.7,3.9l3.5,2.9l.4,-.6l-3.4,-2.9Zm4.6,3.8l3.5,2.9l.5,-.6L303.1,381Zm4.7,3.9l3.4,2.8l.5,-.5l-3.5,-2.9Zm4.6,3.8l3.5,2.9l.5,-.6l-3.5,-2.9Z" class="g3_526"/>
<path d="M316.5,393.2l1.8,1.4l.5,-.6L317,392.6Z" class="g3_526"/>
<path d="M316,395.1l7.8,3.5l-5,-6.9l-2.8,3.4Z" class="g3_526"/>
<path d="M225.2,325l.4,-47.4h-.8l-.4,47.4Z" class="g3_526"/>
<path d="M227.4,279.1l-2.2,-8.3l-2.3,8.3h4.5Z" class="g3_526"/>
<path d="M224.8,223V189.9H224V223Z" class="g3_526"/>
<path d="M226.6,191.4l-2.2,-8.2l-2.2,8.2h4.4Z" class="g3_526"/>
<path d="M439.9,213.2v.4h96.7v44H440.3V213.2h-.4v.4v-.4h-.4v45.1h97.9V212.9H439.5v.3h.4Z" class="g3_526"/>
<path d="M456.7,212.9l-1.8,-1.3l-.5,.6l1.9,1.3Z" class="g3_526"/>
<path d="M453.6,210.7L449.8,208l-.5,.7l3.9,2.6Zm-5.1,-3.5l-3.8,-2.7l-.4,.6l3.8,2.7Zm-5.1,-3.6l-3.8,-2.7l-.4,.6l3.8,2.7ZM438.3,200l-3.8,-2.6l-.4,.6l3.8,2.6Zm-5.1,-3.5l-3.8,-2.7l-.4,.6l3.8,2.7Zm-5,-3.6l-3.9,-2.7l-.4,.6l3.8,2.7Zm-5.1,-3.6l-3.8,-2.6l-.5,.6l3.8,2.7ZM418,185.8l-3.8,-2.7l-.5,.6l3.8,2.7Z" class="g3_526"/>
<path d="M412.9,182.2L411,180.9l-.4,.6l1.9,1.3Z" class="g3_526"/>
<path d="M413.3,180.3l-8,-3l5.5,6.6l2.5,-3.6Z" class="g3_526"/>
<path d="M592.3,295.8c.9,-2.5,1.4,-5.2,1.4,-7.9c0,-11.4,-6.9,-24.6,-15.1,-39c-8.2,-14.3,-17.8,-29.8,-23.3,-45.3l-.4,.2c5.5,15.6,15.1,31,23.3,45.3c8.2,14.4,15,27.6,15,38.8c0,2.7,-.4,5.3,-1.3,7.8l.4,.1Z" class="g3_526"/>
<path d="M558.1,203.5l-4.3,-3.7l-1.1,5.6l5.4,-1.9Z" class="g3_526"/>
<path d="M182.8,396.3c0,-.7,0,-1.4,0,-2.1c0,-4.1,.8,-6.8,2.1,-8.5c1.3,-1.6,3.2,-2.2,5.5,-2.2c4.2,-.1,9.9,2.2,15.7,4.5c5.8,2.3,11.7,4.6,16.7,4.6c2.7,0,5.2,-.7,7.1,-2.7c1.9,-2,3.1,-5.1,3.6,-9.7l-.5,-.1c-.4,4.6,-1.7,7.6,-3.4,9.5c-1.8,1.8,-4.1,2.6,-6.8,2.6c-4.8,0,-10.7,-2.3,-16.5,-4.6C200.5,385.3,194.8,383,190.4,383c-2.4,0,-4.5,.7,-5.9,2.5c-1.4,1.7,-2.2,4.5,-2.2,8.7c0,.7,0,1.4,.1,2.2l.4,-.1Z" class="g3_526"/>
<path d="M236,381.1L233.4,376l-3.1,4.8l5.7,.3Z" class="g3_526"/>
<path d="M541.6,133v.4H671.3v43.9H542V133h-.4v.4V133h-.3v45H672.1V132.6H541.3v.4h.3Z" class="g3_526"/>
<path d="M521.6,213.5l46.8,-31.7l-.4,-.7l-46.8,31.8Z" class="g3_526"/>
<path d="M568.2,184.1l5.6,-6.5l-8.1,2.9l2.5,3.6Z" class="g3_526"/>
<path d="M481.9,113.3c-1.3,17.7,-2.1,33.4,-5.9,46.4c-3.8,13,-10.7,23.4,-24.1,30.7l.2,.4c13.6,-7.4,20.5,-17.9,24.3,-31c3.9,-13.1,4.7,-28.7,5.9,-46.4l-.4,-.1Z" class="g3_526"/>
<path d="M451.4,187.6l-3,4.9l5.7,.2l-2.7,-5.1Z" class="g3_526"/>
<path d="M486.4,765.6v3.2l-.3,-.1l-6.3,-2.9l-.4,-.2l.4,-.2l6.3,-2.9l.3,-.1v.3l-.1,.2l-6.3,2.9l-.2,-.4h.2l6.3,3l-.2,.3l-.1,-.2v-2.9Z" class="g4_526"/>
<path d="M486,765.6h.4v-2.9H486Z" class="g4_526"/>
<path d="M505.6,803.4h.4v-38h-.4Z" class="g4_526"/>
<path d="M486.4,765.8h19.4v-.4H486.4Z" class="g4_526"/>
</svg>