<?xml version="1.0" encoding="UTF-8" standalone="no"?>
<!DOCTYPE svg PUBLIC "-//W3C//DTD SVG 1.1//EN"
"http://www.w3.org/Graphics/SVG/1.1/DTD/svg11.dtd">
<svg viewBox="0 0 811 1017" version="1.1" xmlns="http://www.w3.org/2000/svg" xmlns:xlink="http://www.w3.org/1999/xlink">
<defs>
<style type="text/css"><![CDATA[
.g0_366{
fill: #70A6CC;
}
.g1_366{
}
]]></style>
</defs>
<path d="M142.4,221.4H710.7V200.1H142.4Z" class="g0_366"/>
<path d="M432.5,469.3v3.2l-.3,-.1l-6.3,-2.9l-.4,-.2l.4,-.2l6.3,-2.9l.3,-.1v.3l-.1,.2l-6.3,2.9l-.2,-.4h.2l6.3,3l-.2,.3l-.1,-.1v-3Z" class="g1_366"/>
<path d="M432.1,469.3h.4v-2.9h-.4Z" class="g1_366"/>
<path d="M432.5,469.5h18.7v-.4H432.5Z" class="g1_366"/>
<path d="M450.8,469.3h.4V431.5h-.4Z" class="g1_366"/>
<path d="M582.5,727.6v3.2l-.2,-.1l-6.3,-3l-.3,-.1l.3,-.2l6.3,-3l.2,-.1v.3l-.1,.2l-6.2,2.9l-.2,-.3h.2l6.2,2.9l-.1,.4l-.1,-.2v-2.9Z" class="g1_366"/>
<path d="M582.2,727.6h.3v-3h-.3Z" class="g1_366"/>
<path d="M582.5,727.7h18.7v-.3H582.5Z" class="g1_366"/>
<path d="M600.9,727.6h.3V689.7h-.3Z" class="g1_366"/>
</svg>