<?xml version="1.0" encoding="UTF-8" standalone="no"?>
<!DOCTYPE svg PUBLIC "-//W3C//DTD SVG 1.1//EN"
"http://www.w3.org/Graphics/SVG/1.1/DTD/svg11.dtd">
<svg viewBox="0 0 931 1096" version="1.1" xmlns="http://www.w3.org/2000/svg" xmlns:xlink="http://www.w3.org/1999/xlink">
<defs>
<clipPath id="c0_54"><path d="M178.6,761.4V602.5H282.8V761.4Z"/></clipPath>
<clipPath id="c1_54"><path d="M183.5,757.7v-103c0,-27.1,20.6,-47.3,47.4,-47.3c26,0,47.4,20.4,47.4,47.3v103Z"/></clipPath>
<clipPath id="c2_54"><path d="M185.1,757V654.7c0,-25.3,20.5,-45.8,45.8,-45.8c25.3,0,45.8,20.5,45.8,45.8V757Z"/></clipPath>
<clipPath id="c3_54"><path d="M188.6,753.4V722.3l.8,.8v29.5l-.8,.8Zm19.4,0l-.8,-.8V723.1l.8,-.8v31.1Zm2.3,0V722.3l.9,.8v29.5l-.9,.8Zm19.4,0l-.8,-.8V723.1l.8,-.8v31.1Zm2.4,0V722.3l.8,.8v29.5l-.8,.8Zm19.4,0l-.9,-.8V723.1l.9,-.8v31.1Zm2.3,0V722.3l.8,.8v29.5l-.8,.8Zm19.4,0l-.8,-.8V723.1l.8,-.8v31.1ZM188.6,719.9V688.8l.8,.8v29.5l-.8,.8Zm19.4,0l-.8,-.8V689.6l.8,-.8v31.1Zm2.3,0V688.8l.9,.8v29.5l-.9,.8Zm19.4,0l-.8,-.8V689.6l.8,-.8v31.1Zm2.4,0V688.8l.8,.8v29.5l-.8,.8Zm19.4,0l-.9,-.8V689.6l.9,-.8v31.1Zm2.3,0V688.8l.8,.8v29.5l-.8,.8Zm19.4,0l-.8,-.8V689.6l.8,-.8v31.1ZM188.6,686.4V655.3l.8,.8v29.5l-.8,.8Zm19.4,0l-.8,-.8V656.1l.8,-.8v31.1Zm2.3,0V655.3l.9,.8v29.5l-.9,.8Zm19.4,0l-.8,-.8V656.1l.8,-.8v31.1Zm2.4,0V655.3l.8,.8v29.5l-.8,.8Zm19.4,0l-.9,-.8V656.1l.9,-.8v31.1Zm2.3,0V655.3l.8,.8v29.5l-.8,.8Zm19.4,0l-.8,-.8V656.1l.8,-.8v31.1ZM210.7,652.8c.3,-4.7,2.1,-8.9,5,-12.2v.8c-1.9,2.4,-3.9,7,-4.2,10.6l-.8,.8Zm40.4,0l-.8,-.8c-.3,-3.6,-2.3,-8.2,-4.2,-10.6v-.8c2.9,3.3,4.7,7.5,5,12.2Zm-43.2,0l-.8,-.8c.5,-4.9,2.4,-10.1,5.2,-13.2h1.5c-3.4,3.8,-5.6,8.7,-5.9,14Zm46,0c-.3,-5.3,-2.5,-10.2,-5.8,-14h1.4c2.8,3.1,4.7,8.3,5.2,13.2l-.8,.8Zm-36.2,-14c3.5,-3.1,7.8,-4.8,12.2,-5.1l-1,.9c-3.1,.3,-7.6,1.9,-10,4.2Zm25.2,0c-2.5,-2.3,-6.9,-3.9,-10.1,-4.2l-.9,-.9c4.4,.3,8.7,2,12.2,5.1Zm-27.1,-1.7v-1.8c3.4,-3,8.8,-4.7,13.1,-5l.9,1c-5,.3,-10.1,2.1,-14,5.8Zm30.2,0c-4,-3.7,-9,-5.5,-14,-5.8l.9,-1c4.3,.3,9.7,2,13.1,5v1.8Zm-57.4,15.7c.4,-10.8,4.7,-20.3,11.6,-27.5v1.4c-5.7,6.2,-10.4,15.9,-10.9,25.3l-.7,.8Zm84.6,0l-.8,-.8c-.4,-9.4,-5.1,-19.1,-10.8,-25.3v-1.4c6.9,7.2,11.2,16.7,11.6,27.5ZM202.1,623.4c7.9,-7.4,17.7,-11.1,27.7,-11.3l-.9,1c-8.9,.2,-18.6,4.4,-25.1,10.2l-1.7,.1Zm57.6,0l-1.7,-.1c-6.5,-5.8,-16.2,-10,-25.1,-10.2l-.9,-1c10,.2,19.8,3.9,27.7,11.3Z"/></clipPath>
<clipPath id="c4_54"><path d="M188.6,753.4l.8,-.8h17.8l.8,.8Zm21.7,0l.9,-.8h17.7l.8,.8Zm21.8,0l.8,-.8h17.7l.9,.8Zm21.7,0l.8,-.8h17.8l.8,.8ZM189.4,723.1l-.8,-.8H208l-.8,.8Zm21.8,0l-.9,-.8h19.4l-.8,.8Zm21.7,0l-.8,-.8h19.4l-.9,.8Zm21.7,0l-.8,-.8h19.4l-.8,.8Zm-66,-3.2l.8,-.8h17.8l.8,.8Zm21.7,0l.9,-.8h17.7l.8,.8Zm21.8,0l.8,-.8h17.7l.9,.8Zm21.7,0l.8,-.8h17.8l.8,.8ZM189.4,689.6l-.8,-.8H208l-.8,.8Zm21.8,0l-.9,-.8h19.4l-.8,.8Zm21.7,0l-.8,-.8h19.4l-.9,.8Zm21.7,0l-.8,-.8h19.4l-.8,.8Zm-66,-3.2l.8,-.8h17.8l.8,.8Zm21.7,0l.9,-.8h17.7l.8,.8Zm21.8,0l.8,-.8h17.7l.9,.8Zm21.7,0l.8,-.8h17.8l.8,.8ZM189.4,656.1l-.8,-.8H208l-.8,.8Zm21.8,0l-.9,-.8h19.4l-.8,.8Zm21.7,0l-.8,-.8h19.4l-.9,.8Zm21.7,0l-.8,-.8h19.4l-.8,.8Zm-66.1,-3.3l.8,-.8h17.8l.8,.8Zm65.4,0l.8,-.8h17.7l.9,.8Zm-43.2,0l.8,-.8h14.9l1.7,.8Zm23,0l1.7,-.8h14.9l.8,.8Zm-3.8,-1.7L217.6,638.8h1.3l10,10.2l1,2.1Zm2,0l.9,-2.1l10.1,-10.2h1.2l-12.2,12.3ZM212.3,638.8L200.2,626.7v-1.4l13.6,13.5Zm35.8,0l13.5,-13.5v1.4l-12.1,12.1Zm-32.3,-1.7L202,623.3h1.8l12,12v1.8Zm30.2,0v-1.8l12,-12h1.8L246,637.1Zm-16.2,-5.8l-.9,-1V613l.9,-.9v19.2Zm2.2,0V612.1l.9,.9v17.3l-.9,1Z"/></clipPath>
<clipPath id="c5_54"><path d="M189.4,752.6V723.1h17.8v29.5Zm21.8,0V723.1h17.7v29.5Zm21.7,0V723.1h17.7v29.5Zm21.7,0V723.1h17.8v29.5ZM189.4,719.1V689.6h17.8v29.5Zm21.8,0V689.6h17.7v29.5Zm21.7,0V689.6h17.7v29.5Zm21.7,0V689.6h17.8v29.5ZM189.4,685.6V656.1h17.8v29.5Zm21.8,0V656.1h17.7v29.5Zm21.7,0V656.1h17.7v29.5Zm21.7,0V656.1h17.8v29.5ZM211.5,652c.3,-3.6,2.3,-8.2,4.2,-10.6L226.4,652Zm23.9,0l10.7,-10.6c1.9,2.4,3.9,7,4.2,10.6Zm-6.5,-3l-10,-10.2c2.4,-2.3,6.9,-3.9,10,-4.2V649Zm3.9,0V634.6c3.2,.3,7.6,1.9,10.1,4.2L232.8,649Zm-43.5,3c.5,-9.4,5.2,-19.1,10.9,-25.3l12.1,12.1c-2.8,3.1,-4.7,8.3,-5.2,13.2Zm65.4,0c-.5,-4.9,-2.4,-10.1,-5.2,-13.2l12.1,-12.1c5.7,6.2,10.4,15.9,10.8,25.3ZM215.8,635.3l-12,-12c6.5,-5.8,16.2,-10,25.1,-10.2v17.2c-4.3,.3,-9.7,2,-13.1,5Zm30.2,0c-3.4,-3,-8.8,-4.7,-13.1,-5V613.1c8.9,.2,18.6,4.4,25.1,10.2l-12,12Z"/></clipPath>
<clipPath id="c6_54"><path d="M189.4,710v-1l17.8,-.3v.9l-17.8,.4Zm21.7,-.4v-.9l17.8,-.3v.8l-17.8,.4Zm21.8,-.4v-.8l17.7,-.3v.7l-17.7,.4Zm21.8,-.4V708l17.7,-.3v.7l-17.7,.4Z"/></clipPath>
<style type="text/css"><![CDATA[
.g0_54{
fill: none;
stroke: #00AEEF;
stroke-width: 0.763;
stroke-miterlimit: 10;
}
.g1_54{
fill: none;
stroke: #89898B;
stroke-width: 0.537;
stroke-miterlimit: 3;
}
.g2_54{
fill: none;
stroke: #241F1F;
stroke-width: 0.614;
stroke-miterlimit: 3;
}
.g3_54{
fill: #241F1F;
}
.g4_54{
fill: #FFF;
}
.g5_54{
fill: none;
stroke: #EE008C;
stroke-width: 0.921;
stroke-linejoin: round;
}
.g6_54{
fill: none;
stroke: #EE008C;
stroke-width: 0.916;
stroke-linejoin: round;
}
.g7_54{
fill: none;
stroke: #89898B;
stroke-width: 0.534;
stroke-miterlimit: 3;
}
.g8_54{
fill: none;
stroke: #241F1F;
stroke-width: 0.611;
stroke-miterlimit: 3;
}
.g9_54{
fill: #F8F7CD;
}
.ga_54{
fill: none;
stroke: #241F1F;
stroke-width: 0.534;
stroke-linecap: round;
stroke-linejoin: round;
}
.gb_54{
fill: none;
stroke: #241F1F;
stroke-width: 0.381;
stroke-linecap: round;
stroke-linejoin: round;
}
.gc_54{
fill: #D5E9C2;
}
.gd_54{
fill: none;
stroke: #6AC48C;
stroke-width: 0.771;
stroke-linejoin: round;
}
.ge_54{
fill: none;
stroke: #6AC48C;
stroke-width: 0.771;
stroke-miterlimit: 3;
stroke-dasharray: 10,4;
}
.gf_54{
fill: none;
stroke: #6AC48C;
stroke-width: 0.925;
stroke-linejoin: round;
}
.gg_54{
fill: none;
stroke: #241F1F;
stroke-width: 0.54;
stroke-miterlimit: 3;
}
.gh_54{
fill: none;
stroke: #241F1F;
stroke-width: 0.386;
stroke-miterlimit: 3;
}
.gi_54{
fill: #C9E29C;
}
.gj_54{
fill: #D6E8AF;
}
.gk_54{
fill: none;
stroke: #6AC48C;
stroke-width: 1.08;
stroke-miterlimit: 3;
}
.gl_54{
fill: none;
stroke: #EE008C;
stroke-width: 0.931;
stroke-linejoin: round;
}
.gm_54{
fill: none;
stroke: #00AEEF;
stroke-width: 0.931;
stroke-linejoin: round;
}
.gn_54{
fill: none;
stroke: #241F1F;
stroke-width: 0.62;
stroke-miterlimit: 3;
}
]]></style>
</defs>
<path d="M53.5,227.8H429.3M53.5,510.5H429.3" class="g0_54"/>
<path d="M85.1,119.7h129m-129,18.4h129m-129,18.5h129m-18.4,55.3V101.3M177.3,211.9V101.3M158.8,211.9V101.3M140.4,211.9V101.3M122,211.9V101.3M85.1,175h129M85.2,211.9V101.3m128.9,0V211.9" class="g1_54"/>
<path d="M103.5,211.8V106.2" class="g2_54"/>
<path fill-rule="evenodd" d="M103.5,106.2l-2.4,1.6l2.4,-6.5l2.5,6.5Z" class="g3_54"/>
<path d="M85.1,193.4H209.7" class="g2_54"/>
<path fill-rule="evenodd" d="M209.7,193.4l-1.6,-2.5l6.6,2.5l-6.6,2.4Z" class="g3_54"/>
<path d="M214.1,211.9H85.1m.2,-110.6H214.1m-129,0h.5" class="g1_54"/>
<path d="M93.7,181.5h6.9V169H93.7v12.5Z" class="g4_54"/>
<path d="M118,210.1h7.7V197H118v13.1Z" class="g4_54"/>
<path d="M103.5,138.1l55.3,55.3l36.9,-73.7" class="g5_54"/>
<path d="M260.2,138.1L297,193.2c0,-20.3,16.4,-36.7,36.7,-36.7c20.2,0,36.6,16.4,36.6,36.7l36.8,-55.1" class="g6_54"/>
<path d="M407.1,211.6V101.4M260.2,119.8H407.1M260.2,138.1H407.1M260.2,156.5H407.1m-18.4,55.1V101.4M370.4,211.6V101.4M352,211.6V101.4M278.6,211.6V101.4m36.7,110.2V101.4m-55.1,73.4H407.1M297,211.6V101.4" class="g7_54"/>
<path d="M333.6,211.5V106.3" class="g8_54"/>
<path fill-rule="evenodd" d="M333.6,106.3l-2.4,1.6l2.4,-6.5l2.5,6.5Z" class="g3_54"/>
<path d="M260.2,193.2H402.7" class="g8_54"/>
<path fill-rule="evenodd" d="M402.7,193.2l-1.6,-2.5l6.5,2.5l-6.5,2.4Z" class="g3_54"/>
<path d="M407.1,211.6H260.2M278.8,101.4H407M260.2,211.6V101.4m0,0H279" class="g7_54"/>
<path d="M323.8,181.3h6.9V168.9h-6.9v12.4Z" class="g4_54"/>
<path d="M348.1,209.7h7.6V196.8h-7.6v12.9Z" class="g4_54"/>
<image clip-path="url(#c0_54)" x="178" y="602" width="105" height="160" xlink:href="shade/1.png"/>
<image clip-path="url(#c1_54)" x="183" y="607" width="96" height="151" xlink:href="shade/2.png"/>
<image clip-path="url(#c2_54)" x="185" y="608" width="92" height="149" xlink:href="shade/3.png"/>
<path fill-rule="evenodd" d="M246.1,641.4v-.8l-12.4,12.2l1.7,-.8Z" class="g9_54"/>
<path d="M231.9,651.1l.9,-2.1V634.6l-.9,-.9Z" class="g9_54"/>
<path fill-rule="evenodd" d="M215.7,641.4v-.8l12.4,12.2l-1.7,-.8Z" class="g9_54"/>
<path d="M228.9,634.6V649l1,2.1V633.7Z" class="g9_54"/>
<image clip-path="url(#c3_54)" x="188" y="612" width="86" height="142" xlink:href="shade/4.png"/>
<image clip-path="url(#c4_54)" x="188" y="612" width="86" height="142" xlink:href="shade/5.png"/>
<path d="M276.7,763.1v15.2M185.1,763.1v15.2" class="ga_54"/>
<path d="M236.8,770.7h36.1m-84,0h36.5" class="gb_54"/>
<image clip-path="url(#c5_54)" x="189" y="613" width="84" height="140" xlink:href="shade/6.png"/>
<image clip-path="url(#c6_54)" x="189" y="707" width="84" height="3" xlink:href="shade/7.png"/>
<path d="M185.3,770.7l4.4,-1.7l-1.1,1.7l1.1,1.7Z" class="g3_54"/>
<path d="M276.3,770.8l-4.3,1.6l1,-1.6l-1,-1.7Z" class="g3_54"/>
<path d="M104,1011.8H258.3V919.3H104v92.5Z" class="gc_54"/>
<path d="M230.6,946.9h27.7V919.3H230.6v27.6Z" class="g4_54"/>
<path d="M230.6,942.2v4.7h4.7" class="gd_54"/>
<path d="M238.3,946.9h19.8m-27.5,-7.7V919.4" class="ge_54"/>
<path d="M104,946.9h27.6V919.3H104v27.6Z" class="g4_54"/>
<path d="M131.6,942.2v4.7h-4.7" class="gd_54"/>
<path d="M123.9,946.9H104.1m27.5,-7.7V919.4" class="ge_54"/>
<path d="M230.6,1011.8h27.7V984.2H230.6v27.6Z" class="g4_54"/>
<path d="M230.6,988.8v-4.6h4.7" class="gd_54"/>
<path d="M238.3,984.2h19.8m-27.5,7.7v19.8" class="ge_54"/>
<path d="M104,1011.8h27.6V984.2H104v27.6Z" class="g4_54"/>
<path d="M131.6,988.8v-4.6h-4.7" class="gd_54"/>
<path d="M123.9,984.2H104.1m27.5,7.7v19.8" class="ge_54"/>
<path d="M104,1011.8H258.3V919.3H104v92.5Z" class="gf_54"/>
<path d="M258.4,900.3v10.8" class="gg_54"/>
<path d="M170.3,905.5H108" class="gh_54"/>
<path d="M104.6,905.5l4.4,-1.7l-1,1.7l1,1.7Z" class="g3_54"/>
<path d="M192.1,905.5h61.5" class="gh_54"/>
<path d="M257,905.5l-4.4,1.7l1,-1.7l-1,-1.7Z" class="g3_54"/>
<path d="M81.3,919.2h9.2m-9.2,92.6h9.2M104.1,900.3v10.8" class="gg_54"/>
<path d="M85.9,956.3V923.1" class="gh_54"/>
<path d="M85.9,919.8l1.7,4.4l-1.7,-1.1l-1.7,1.1Z" class="g3_54"/>
<path d="M85.9,974.8v33.3" class="gh_54"/>
<path d="M85.9,1011.5l-1.7,-4.4l1.7,1l1.7,-1Z" class="g3_54"/>
<path d="M334,919.2v21.5l61.6,46V965.5Z" class="gi_54"/>
<path d="M334,919.2L296.8,947v21.2L334,940.7Z" class="gj_54"/>
<path d="M334,940.7l-37.2,27.5l61.8,46.1l37,-27.6Z" class="gc_54"/>
<path d="M358.6,992.9L296.8,947v21.2l61.8,46.1Z" class="gi_54"/>
<path d="M358.6,992.9v21.4l37,-27.6V965.5Z" class="gj_54"/>
<path d="M358.6,993.2v21.1" class="gk_54"/>
<path d="M334,919.2v21.5" class="gd_54"/>
<path d="M296.8,947l61.8,46.2l37,-27.7" class="gf_54"/>
<path d="M381.5,976.2L334,940.7l-22.8,17" class="gd_54"/>
<path d="M334,919.2L296.8,947v21.2l61.8,46.1l37,-27.6V965.5L334,919.2Z" class="gf_54"/>
<path d="M458.3,860.7H823.5" class="g0_54"/>
<path d="M521.5,709.1c4.6,21,8.2,32.5,13.7,32.5c9.3,0,15.6,-10.7,24.5,-10.7c8.8,0,15.1,10.7,24.5,10.7c5.4,0,9.1,-11.5,13.7,-32.5" class="gl_54"/>
<path d="M512.9,709.1c5.9,39.2,13.9,81.9,27.7,81.9c7.1,0,15,-11.2,19.1,-16.6c4,-5.4,11.9,-16.6,19,-16.6c13.9,0,21.8,42.7,27.8,81.9" class="gm_54"/>
<path d="M559.7,839.6V709.2" class="gn_54"/>
<path fill-rule="evenodd" d="M559.7,709.2l-2.5,1.7l2.5,-6.7l2.4,6.7Z" class="g3_54"/>
<path d="M494.5,774.4H624.9" class="gn_54"/>
<path fill-rule="evenodd" d="M624.9,774.4l-1.7,-2.5l6.6,2.5l-6.6,2.5Z" class="g3_54"/>
<path d="M683.3,759.1c8.4,-17,19.1,-29.8,33.7,-29.8c11.8,0,25,8.4,31.7,12.4c6.8,4.1,19.9,12.5,31.8,12.5c14.6,0,25.4,-13,33.8,-29.9" class="gl_54"/>
<path d="M683.7,811.8c2.5,1.7,5.1,2.9,8.1,2.9c10.7,0,17.5,-16.2,27.9,-16.2c12.5,0,17.3,16.4,29,16.4c11.8,0,16.6,-16.4,29.1,-16.4c10.4,0,17.2,16.2,27.9,16.2c3.3,0,6.1,-1.4,8.8,-3.5" class="gm_54"/>
<path d="M748.7,839.5V709.1" class="gn_54"/>
<path fill-rule="evenodd" d="M748.7,709.1l-2.4,1.7l2.4,-6.6l2.5,6.6Z" class="g3_54"/>
<path d="M683.5,774.3H813.9" class="gn_54"/>
<path fill-rule="evenodd" d="M813.9,774.3l-1.6,-2.5l6.6,2.5l-6.6,2.5Z" class="g3_54"/>
</svg>