<?xml version="1.0" encoding="UTF-8" standalone="no"?>
<!DOCTYPE svg PUBLIC "-//W3C//DTD SVG 1.1//EN"
"http://www.w3.org/Graphics/SVG/1.1/DTD/svg11.dtd">
<svg viewBox="0 0 931 1096" version="1.1" xmlns="http://www.w3.org/2000/svg" xmlns:xlink="http://www.w3.org/1999/xlink">
<defs>
<clipPath id="c0_47"><path d="M519,663.1V628.4h66.6v34.7Z"/></clipPath>
<clipPath id="c1_47"><path d="M108.5,225.4V97.6H303.1V225.4Z"/></clipPath>
<clipPath id="c2_47"><path d="M107,958.8V925.2H880v33.6Z"/></clipPath>
<style type="text/css"><![CDATA[
.g0_47{
fill: none;
stroke: #241F1F;
stroke-width: 0.763;
stroke-miterlimit: 10;
}
.g1_47{
fill: #FFDEB8;
}
.g2_47{
fill: none;
stroke: #F9951B;
stroke-width: 0.916;
stroke-linejoin: round;
}
.g3_47{
fill: none;
stroke: #241F1F;
stroke-width: 0.611;
stroke-miterlimit: 3;
}
.g4_47{
fill: #241F1F;
}
.g5_47{
fill: #F9951B;
}
]]></style>
</defs>
<path d="M638.4,181.4h23.3m21.9,0h21.5M638.4,241h70m21.9,0h70M480.6,480.8H724.2M519.4,644.3h21.5" class="g0_47"/>
<path clip-path="url(#c0_47)" d="M562.7,644.3H586" class="g0_47"/>
<path d="M625.4,746.7h23.3m21.9,0h21.5" class="g0_47"/>
<path fill-rule="evenodd" d="M241.9,122.9c26.1,0,38.2,12.4,39.5,34.1c1,17.5,-6,26.5,-14.1,31.9c-20.6,13.8,-37.9,20,-66.7,23.4c-17.2,2.1,-34.2,-.2,-47.1,-1.7c-18.9,-2.2,-30.6,-9.3,-30.6,-27.8c0,-30.1,11.5,-30.6,28.2,-30.3c29.6,.6,38.5,-13.7,48.8,-17.2c11.2,-3.7,22.7,-12.4,42,-12.4M191,171.8c0,6.8,5.5,12.3,12.4,12.3c6.8,0,12.3,-5.5,12.3,-12.3c0,-6.9,-5.5,-12.4,-12.3,-12.4c-6.9,0,-12.4,5.5,-12.4,12.4Z" class="g1_47"/>
<path d="M241.9,122.9c26.1,0,38.2,12.4,39.5,34.1c1,17.5,-6,26.5,-14.1,31.9c-20.6,13.8,-37.9,20,-66.7,23.4c-17.2,2.1,-34.2,-.2,-47.1,-1.7c-18.9,-2.2,-30.6,-9.3,-30.6,-27.8c0,-30.1,11.5,-30.6,28.2,-30.3c29.6,.6,38.5,-13.7,48.8,-17.2c11.2,-3.7,22.7,-12.4,42,-12.4ZM191,171.8c0,6.8,5.5,12.3,12.4,12.3c6.8,0,12.3,-5.5,12.3,-12.3c0,-6.9,-5.5,-12.4,-12.3,-12.4c-6.9,0,-12.4,5.5,-12.4,12.4Z" class="g2_47"/>
<path d="M108.5,171.8H298.2" class="g3_47"/>
<path clip-path="url(#c1_47)" fill-rule="evenodd" d="M298.2,171.8l-1.6,-2.5l6.5,2.5l-6.5,2.4Z" class="g4_47"/>
<path d="M203.4,225.4V108.5" class="g3_47"/>
<path fill-rule="evenodd" d="M203.4,108.5l-2.5,1.6l2.5,-6.5l2.4,6.5Z" class="g4_47"/>
<path d="M273.8,134.8l1.4,8l1.7,-3.1l3.5,-.2Z" class="g5_47"/>
<path d="M210.2,161.3l2.5,7.8l1.3,-3.4l3.5,-.6Z" class="g5_47"/>
<image clip-path="url(#c2_47)" preserveAspectRatio="none" x="107" y="925" width="773" height="34" xlink:href="img/1.png"/>
</svg>