<?xml version="1.0" encoding="UTF-8" standalone="no"?>
<!DOCTYPE svg PUBLIC "-//W3C//DTD SVG 1.1//EN"
"http://www.w3.org/Graphics/SVG/1.1/DTD/svg11.dtd">
<svg viewBox="0 0 931 1096" version="1.1" xmlns="http://www.w3.org/2000/svg" xmlns:xlink="http://www.w3.org/1999/xlink">
<defs>
<clipPath id="c0_152"><path d="M411.4,756.8V731.4h13.3v25.4Z"/></clipPath>
<clipPath id="c1_152"><path d="M454.1,756.6V731.4h13.3v25.2Z"/></clipPath>
<clipPath id="c2_152"><path d="M496.7,756.8V731.4H510v25.4Z"/></clipPath>
<clipPath id="c3_152"><path d="M539.3,756.6V731.4h13.3v25.2Z"/></clipPath>
<clipPath id="c4_152"><path d="M578.5,756.8V728.1h20.2v28.7Z"/></clipPath>
<clipPath id="c5_152"><path d="M621.1,756.6V728.1h20.2v28.5Z"/></clipPath>
<clipPath id="c6_152"><path d="M663.8,756.8V727.9h20.1v28.9Z"/></clipPath>
<clipPath id="c7_152"><path d="M749,756.6V728.1h20.2v28.5Z"/></clipPath>
<clipPath id="c8_152"><path d="M518.5,879V847.2h73.7V879Z"/></clipPath>
<clipPath id="c9_152"><path d="M435.4,973.5v-28h41.7v28Z"/></clipPath>
<clipPath id="ca_152"><path d="M52,130.1V96.5H825v33.6Z"/></clipPath>
<style type="text/css"><![CDATA[
.g0_152{
fill: #D0007A;
}
.g1_152{
fill: none;
stroke: #00AEEF;
stroke-width: 1.145;
}
.g2_152{
fill: none;
stroke: #241F1F;
stroke-width: 0.763;
stroke-miterlimit: 10;
}
.g3_152{
fill: #E8F6FE;
}
.g4_152{
fill: none;
stroke: #241F1F;
stroke-width: 0.687;
stroke-miterlimit: 10;
}
.g5_152{
fill: none;
stroke: #0079C2;
stroke-width: 0.763;
}
.g6_152{
fill: none;
stroke: #EE008C;
stroke-width: 0.916;
stroke-linejoin: round;
}
.g7_152{
fill: #EE008C;
}
.g8_152{
fill: none;
stroke: #EE008C;
stroke-width: 0.763;
stroke-miterlimit: 3;
}
.g9_152{
fill: none;
stroke: #241F1F;
stroke-width: 0.763;
stroke-miterlimit: 3;
stroke-dasharray: 8,4;
}
]]></style>
</defs>
<path d="M288.8,142.3c0,0,-1.6,0,-1.6,1.5v9.1c0,0,0,1.6,1.6,1.6h9.1c0,0,1.6,0,1.6,-1.6v-9.1c0,0,0,-1.5,-1.6,-1.5Z" class="g0_152"/>
<path d="M307.7,229.2c0,0,-1.6,0,-1.6,1.5v14.1c0,0,0,1.5,1.6,1.5h14.1c0,0,1.5,0,1.5,-1.5V230.7c0,0,0,-1.5,-1.5,-1.5H307.7Zm0,83.4c0,0,-1.6,0,-1.6,1.5v14.1c0,0,0,1.5,1.6,1.5h14.1c0,0,1.5,0,1.5,-1.5V314.1c0,0,0,-1.5,-1.5,-1.5H307.7Z" class="g1_152"/>
<path d="M429.9,321.5h27.5m158.8,0h27.5M540.8,494.2h27.5m32.4,0h14.7M460.8,582.8h22.4m45.1,0h22.4m10.6,0h27.4" class="g2_152"/>
<path d="M287.6,692h66.6v27.5H287.6Zm0,27.5h66.6v45.9H287.6Z" class="g3_152"/>
<path d="M287.2,692h67m-66.6,27.1V692.4m66.6,-.4h42.6m0,0h42.6m0,0H482m0,0h42.7m0,0h42.6m0,0h42.6m0,0h42.6m0,0h42.7m0,0h42.6m0,0h42.6m0,0h43m-.4,27.1V692.4M287.6,765V719.9M823,765V719.9M287.2,765.4h67m0,0h42.6m0,0h42.6m0,0H482m0,0h42.7m0,0h42.6m0,0h42.6m0,0h42.6m0,0h42.7m0,0h42.6m0,0h42.6m0,0h43M354.2,719.1V692.4m42.6,26.7V692.4m42.6,26.7V692.4M482,719.1V692.4m42.7,26.7V692.4m42.6,26.7V692.4m42.6,26.7V692.4m42.6,26.7V692.4m42.7,26.7V692.4m42.6,26.7V692.4m42.6,26.7V692.4M287.2,719.5h67m0,0h42.6M354.2,765V719.9m42.6,-.4h42.6M396.8,765V719.9m42.6,-.4H482M439.4,765V719.9m42.6,-.4h42.7M482,765V719.9m42.7,-.4h42.6M524.7,765V719.9m42.6,-.4h42.6M567.3,765V719.9m42.6,-.4h42.6M609.9,765V719.9m42.6,-.4h42.7M652.5,765V719.9m42.7,-.4h42.6M695.2,765V719.9m42.6,-.4h42.6M737.8,765V719.9m42.6,-.4h43m-43,45.5V719.9" class="g2_152"/>
<path clip-path="url(#c0_152)" d="M411.8,742.5h13.3" class="g4_152"/>
<path clip-path="url(#c1_152)" d="M454.4,742.5h13.3" class="g4_152"/>
<path clip-path="url(#c2_152)" d="M497,742.5h13.3" class="g4_152"/>
<path clip-path="url(#c3_152)" d="M539.6,742.5H553" class="g4_152"/>
<path clip-path="url(#c4_152)" d="M578.8,742.5H599" class="g4_152"/>
<path clip-path="url(#c5_152)" d="M621.5,742.5h20.1" class="g4_152"/>
<path clip-path="url(#c6_152)" d="M664.1,742.5h20.2" class="g4_152"/>
<path clip-path="url(#c7_152)" d="M749.4,742.5h20.1" class="g4_152"/>
<path clip-path="url(#c8_152)" d="M518.9,863.1h22.4m21.9,0h29.4" class="g2_152"/>
<path d="M307.7,948.9c0,0,-1.6,0,-1.6,1.5v14.1c0,0,0,1.6,1.6,1.6h14.1c0,0,1.5,0,1.5,-1.6V950.4c0,0,0,-1.5,-1.5,-1.5H307.7Z" class="g1_152"/>
<path clip-path="url(#c9_152)" d="M465.3,957.8h12.2" class="g2_152"/>
<path d="M477.7,217.8c0,0,-3.1,0,-3.1,3v34.4c0,0,0,3,3.1,3H634c0,0,3,0,3,-3V220.8c0,0,0,-3,-3,-3H477.7Z" class="g5_152"/>
<path d="M115.4,842.2V780.7c28.4,0,52.3,19.3,59.4,45.5l-59.4,16Z" class="g6_152"/>
<path d="M113.4,842.5c0,-1,.7,-1.7,1.7,-1.7c.9,0,1.7,.7,1.7,1.7c0,.9,-.8,1.7,-1.7,1.7c-1,0,-1.7,-.8,-1.7,-1.7Z" class="g7_152"/>
<path d="M113.4,842.5c0,-1,.7,-1.7,1.7,-1.7c.9,0,1.7,.7,1.7,1.7c0,.9,-.8,1.7,-1.7,1.7c-1,0,-1.7,-.8,-1.7,-1.7Z" class="g8_152"/>
<path d="M174.8,826.2c1.3,5.1,2.1,10.5,2.1,16c0,34,-27.6,61.5,-61.5,61.5c-34,0,-61.5,-27.5,-61.5,-61.5c0,-34,27.5,-61.5,61.5,-61.5" class="g9_152"/>
<path d="M393,928.9c0,0,-3.1,0,-3.1,3.1v53.6c0,0,0,3.1,3.1,3.1H519.8c0,0,3.1,0,3.1,-3.1V932c0,0,0,-3.1,-3.1,-3.1H393Zm224.9,-2.1c0,0,-3,0,-3,3v53.7c0,0,0,3,3,3H748.6c0,0,3,0,3,-3V929.8c0,0,0,-3,-3,-3H617.9Z" class="g5_152"/>
<image clip-path="url(#ca_152)" preserveAspectRatio="none" x="52" y="97" width="773" height="33" xlink:href="img/1.png"/>
</svg>