<?xml version="1.0" encoding="UTF-8" standalone="no"?>
<!DOCTYPE svg PUBLIC "-//W3C//DTD SVG 1.1//EN"
"http://www.w3.org/Graphics/SVG/1.1/DTD/svg11.dtd">
<svg viewBox="0 0 907 1045" version="1.1" xmlns="http://www.w3.org/2000/svg" xmlns:xlink="http://www.w3.org/1999/xlink">
<defs>
<clipPath id="c0_75"><path d="M256.7,699.7V291.8H585.1V699.7Z"/></clipPath>
<clipPath id="c1_75"><path d="M253,663.3V288.2H601.7V663.3Z"/></clipPath>
<clipPath id="c2_75"><path d="M253,716.4V662.5H601.7v53.9Z"/></clipPath>
<clipPath id="c3_75"><path d="M-2.6,1047.7V-2.6H910.2V1047.7Z"/></clipPath>
<style type="text/css"><![CDATA[
.g0_75{
fill: #FFFFFF;
}
.g1_75{
fill: none;
stroke: #000000;
stroke-width: 3.055;
stroke-linecap: butt;
stroke-linejoin: miter;
stroke-miterlimit: 4;
}
.g2_75{
fill: none;
stroke: #000000;
stroke-width: 1.527;
stroke-linecap: butt;
stroke-linejoin: miter;
stroke-miterlimit: 4;
}
.g3_75{
fill: none;
stroke: #FFFFFF;
stroke-width: 1.909;
stroke-linecap: butt;
stroke-linejoin: miter;
}
.g4_75{
fill: none;
stroke: #000000;
stroke-width: 0.381;
stroke-linecap: butt;
stroke-linejoin: miter;
}
]]></style>
</defs>
<image clip-path="url(#c1_75)" preserveAspectRatio="none" x="253" y="288" width="349" height="375" xlink:href="img/1.jpg"/>
<image clip-path="url(#c2_75)" preserveAspectRatio="none" x="253" y="663" width="349" height="54" xlink:href="img/2.jpg"/>
<g clip-path="url(#c0_75)">
<image clip-path="url(#c0_75)" preserveAspectRatio="none" x="257" y="292" width="328" height="408" xlink:href="img/3.jpg"/>
</g>
<path d="M558.2,339.2C551.3,337.6,547.4,351,547,355.6c-.5,5.7,2.4,9.7,6.2,13.8c2.6,2.7,5.2,2.9,7.9,4.9c-2.5,5.8,-4.1,9.6,-1.7,16.5c3.1,8.7,14.3,23.7,22.7,28.4c3,1.6,7.5,.2,9.4,3.1c1.7,2.4,1.1,6,2.9,8.7c4.8,7.6,15,12.3,23.4,13.1c6,.7,22.2,.9,25.9,-6.9c2,1.4,3.5,4.4,5.5,6.3c8.4,8.3,17.3,9.1,29.2,10.8c10.4,1.4,17.3,-.8,25.9,-7.2c3,-2.2,8.1,-4.9,9.5,-8.6c10.7,10.1,29.4,5.9,41.4,1c11.7,-4.8,22.2,-12,21.1,-25.5c1.5,4.8,14.3,-3.6,16.1,-4.8c6.2,-3.8,9.6,-7.4,13.2,-13.4c3.1,-5.1,6.4,-9.3,6.1,-15.5c.4,-2.7,-.3,-5.2,-2,-7.4c-1.5,-2,-7.6,-4.5,-7.8,-7.3c4.2,-2.8,7.7,-4.8,10.2,-9.2c4.8,-8.1,3.4,-19.7,0,-28.1c-6.1,-15,-23.4,-20.6,-38.4,-19.9c4.1,-1.8,8.5,-4.8,7.8,-9.7c-.4,-3.3,-6.5,-8.6,-8.6,-10.5c-4.7,-4.4,-6.2,-3.8,-13.5,-4.8c-18.8,-2.7,-34.5,-3.9,-52.5,1.5c-8,2.3,-24.2,6.8,-25.1,17.4c1.7,-6,-4.7,-11.6,-9.4,-14.2C661,282,649,282.5,636.7,284.1c-8.8,1.1,-36.4,7.2,-30.5,21.6c-7.9,-9.2,-26,-.7,-33.5,5.5c-2.3,1.9,-23.7,27.4,-14.5,29.1Z" class="g0_75"/>
<path d="M558.2,339.2C551.3,337.6,547.4,351,547,355.6c-.5,5.7,2.4,9.7,6.2,13.8c2.6,2.7,5.2,2.9,7.9,4.9c-2.5,5.8,-4.1,9.6,-1.7,16.5c3.1,8.7,14.3,23.7,22.7,28.4c3,1.6,7.5,.2,9.4,3.1c1.7,2.4,1.1,6,2.9,8.7c4.8,7.6,15,12.3,23.4,13.1c6,.7,22.2,.9,25.9,-6.9c2,1.4,3.5,4.4,5.5,6.3c8.4,8.3,17.3,9.1,29.2,10.8c10.4,1.4,17.3,-.8,25.9,-7.2c3,-2.2,8.1,-4.9,9.5,-8.6c10.7,10.1,29.4,5.9,41.4,1c11.7,-4.8,22.2,-12,21.1,-25.5c1.5,4.8,14.3,-3.6,16.1,-4.8c6.2,-3.8,9.6,-7.4,13.2,-13.4c3.1,-5.1,6.4,-9.3,6.1,-15.5c.4,-2.7,-.3,-5.2,-2,-7.4c-1.5,-2,-7.6,-4.5,-7.8,-7.3c4.2,-2.8,7.7,-4.8,10.2,-9.2c4.8,-8.1,3.4,-19.7,0,-28.1c-6.1,-15,-23.4,-20.6,-38.4,-19.9c4.1,-1.8,8.5,-4.8,7.8,-9.7c-.4,-3.3,-6.5,-8.6,-8.6,-10.5c-4.7,-4.4,-6.2,-3.8,-13.5,-4.8c-18.8,-2.7,-34.5,-3.9,-52.5,1.5c-8,2.3,-24.2,6.8,-25.1,17.4c1.7,-6,-4.7,-11.6,-9.4,-14.2C661,282,649,282.5,636.7,284.1c-8.8,1.1,-36.4,7.2,-30.5,21.6c-7.9,-9.2,-26,-.7,-33.5,5.5c-2.3,1.9,-23.7,27.4,-14.5,29.1" class="g1_75"/>
<path d="M525.4,349.4c-2.7,.8,-2.2,3.9,-1.8,6.1c4.2,2,8.2,1.9,10.1,-2.7c-1.8,-1.5,-6.8,-6.5,-8.3,-2.4Z" class="g0_75"/>
<path d="M525.4,349.4c-2.7,.8,-2.2,3.9,-1.8,6.1c4.2,2,8.2,1.9,10.1,-2.7c-1.8,-1.5,-6.8,-6.5,-8.3,-2.4" class="g2_75"/>
<path d="M511.4,349.3c-3.9,-1.2,-3.2,3.4,-2.8,5.8c2.6,-.6,5.1,5,6.6,-.1c.9,-3.4,-2.6,-6.3,-5.8,-5.7Z" class="g0_75"/>
<path d="M511.4,349.3c-3.9,-1.2,-3.2,3.4,-2.8,5.8c2.6,-.6,5.1,5,6.6,-.1c.9,-3.4,-2.6,-6.3,-5.8,-5.7" class="g2_75"/>
<g clip-path="url(#c3_75)">
<path d="M-4.5,13.7H-27.4m939.5,0H935M-4.5,1031.2H-27.4m939.5,0H935M13.7,-4.5V-27.4m0,1077v22.9m880,-1077V-27.4m0,1077v22.9" class="g3_75"/>
<path d="M-4.5,13.7H-27.4m939.5,0H935M-4.5,1031.2H-27.4m939.5,0H935M13.7,-4.5V-27.4m0,1077v22.9m880,-1077V-27.4m0,1077v22.9" class="g4_75"/>
</g>
</svg>