<?xml version="1.0" encoding="UTF-8" standalone="no"?>
<!DOCTYPE svg PUBLIC "-//W3C//DTD SVG 1.1//EN"
"http://www.w3.org/Graphics/SVG/1.1/DTD/svg11.dtd">
<svg viewBox="0 0 931 1096" version="1.1" xmlns="http://www.w3.org/2000/svg" xmlns:xlink="http://www.w3.org/1999/xlink">
<defs>
<clipPath id="c0_94"><path d="M53.5,1004.8V868.2h202v136.6Z"/></clipPath>
<style type="text/css"><![CDATA[
.g0_94{
fill: none;
stroke: #241F1F;
stroke-width: 0.534;
stroke-miterlimit: 10;
}
.g1_94{
fill: #D0007A;
}
.g2_94{
fill: none;
stroke: #EE008C;
stroke-width: 0.763;
stroke-linejoin: round;
}
.g3_94{
fill: none;
stroke: #241F1F;
stroke-width: 0.611;
stroke-miterlimit: 3;
}
.g4_94{
fill: none;
stroke: #241F1F;
stroke-width: 0.611;
stroke-miterlimit: 3;
stroke-dasharray: 8,4;
}
.g5_94{
fill: #00AEEF;
}
.g6_94{
fill: #241F1F;
}
.g7_94{
fill: none;
stroke: #241F1F;
stroke-width: 0.381;
stroke-miterlimit: 3;
}
.g8_94{
fill: none;
stroke: #241F1F;
stroke-width: 0.534;
stroke-miterlimit: 3;
}
.g9_94{
fill: none;
stroke: #00AEEF;
stroke-width: 0.916;
stroke-linejoin: round;
}
.ga_94{
fill: none;
stroke: #00AEEF;
stroke-width: 0.763;
stroke-linejoin: round;
}
.gb_94{
fill: none;
stroke: #EE008C;
stroke-width: 0.916;
stroke-linejoin: round;
}
.gc_94{
fill: #EE008C;
}
]]></style>
</defs>
<path d="M448,223.3h5.4m154.9,0h5.3M454.2,296.6h5.4m185.2,0h5.4" class="g0_94"/>
<path d="M288.8,860.9c0,0,-1.6,0,-1.6,1.5v9.2c0,0,0,1.5,1.6,1.5h9.1c0,0,1.6,0,1.6,-1.5v-9.2c0,0,0,-1.5,-1.6,-1.5Z" class="g1_94"/>
<path d="M113,254.9l-.5,-.7l-.4,-.8l-.4,-.8l-.4,-.8l-.4,-.9l-.3,-1l-.4,-1l-.3,-1l-.2,-1l-.1,-1.1l-.2,-1.1v-2.3l.1,-1.2l.2,-1.2l.3,-1.2l.3,-1.3l.5,-1.2l.6,-1.3l.7,-1.3l.8,-1.4l.9,-1.3l1.1,-1.3l1.2,-1.4l1.3,-1.3l1.5,-1.4l1.6,-1.4l1.8,-1.4l2,-1.4l2.1,-1.3l2.3,-1.4l2.5,-1.4l2.7,-1.4l2.9,-1.4l3.1,-1.3l3.3,-1.4l3.5,-1.3l3.7,-1.3l4,-1.4l4.2,-1.2l4.4,-1.3l4.6,-1.3l4.9,-1.3l5.2,-1.2l5.5,-1.2l5.6,-1.2l6,-1.1l6.3,-1.1l6.5,-1.1" class="g2_94"/>
<path d="M72.2,206.6h4.6m130.8,82.2v-93m38,65.6V168.3M112.5,160.5l-38,27.4m0,0l133.1,7.9M112.5,160.5l133.1,7.8l-38,27.5M74.5,281V187.9m0,93.1l133.1,7.8m38,-27.4l-38,27.4" class="g3_94"/>
<path d="M114.7,253.7l130.9,7.7M114.5,253.7V160.8m-38,120.4l38,-27.5" class="g4_94"/>
<path d="M72.2,194.1h4.6m-4.6,12.5h4.6M72.2,219h4.6m-4.6,12.4h4.6m-4.6,12.4h4.6m-4.6,12.4h4.6m-4.6,12.4h4.6M72.2,281h4.6m-1.9,1.5l3.6,-2.8M247.6,261.5l-4.4,-.2m-29.4,24.9l-4.4,-.2m12.8,-6l-4.4,-.2m12.8,-6.1l-4.4,-.2m13,-5.9l-4.4,-.2M184.1,289l3.5,-2.8m-31.2,1l3.5,-2.8m-31,1.4l3.6,-2.8m-30.9,1.1l3.5,-2.8" class="g3_94"/>
<path d="M241.5,971C229.1,935.5,194.3,898.1,164.2,898.4c-30.6,.3,-66.3,37.5,-78.6,72.9" class="g2_94"/>
<path d="M122,885.3l-.3,6.9L120,889.9l-2.8,.4Z" class="g5_94"/>
<path d="M53.5,971.3H250.6" class="g3_94"/>
<path clip-path="url(#c0_94)" fill-rule="evenodd" d="M250.6,971.3l-1.7,-2.4l6.6,2.4l-6.6,2.5Z" class="g6_94"/>
<path d="M85.6,1003.4V879.7" class="g3_94"/>
<path fill-rule="evenodd" d="M85.6,879.7l-2.5,1.6l2.5,-6.5l2.4,6.5Z" class="g6_94"/>
<path d="M93.5,955.4c5.9,3,9,8.9,9,15.9" class="g7_94"/>
<path d="M241.5,974.2c-.2,3.8,-3.8,4.1,-8.4,4.3h-61c-4.5,.1,-8.2,.4,-8.4,4.2c-.1,-3.8,-3.8,-4.1,-8.4,-4.2H94.8c-4.6,-.2,-8.2,-.5,-8.4,-4.3" class="g8_94"/>
<path d="M85.6,971.3L120,889.9m3.7,-154.2l25.2,-45.4" class="g9_94"/>
<path d="M71.7,735.7c0,-28.7,23.3,-52,52,-52c28.7,0,51.9,23.3,51.9,52c0,28.7,-23.2,51.9,-51.9,51.9c-28.7,0,-52,-23.2,-52,-51.9Z" class="ga_94"/>
<path d="M175.6,735.7H152.8" class="gb_94"/>
<path d="M147.9,735.7l6.5,-2.5l-1.6,2.5l1.6,2.5Z" class="gc_94"/>
<path d="M123.7,683.7v22.8" class="gb_94"/>
<path d="M123.7,711.5L121.2,705l2.5,1.5l2.4,-1.5Z" class="gc_94"/>
<path d="M71.7,735.7h22" class="gb_94"/>
<path d="M98.6,735.7l-6.4,2.5l1.5,-2.5l-1.5,-2.5Z" class="gc_94"/>
<path d="M123.7,787.6v-22" class="gb_94"/>
<path d="M123.7,760.7l2.4,6.5l-2.4,-1.6l-2.5,1.6Z" class="gc_94"/>
<path d="M160.4,772.4L144.8,756.9" class="gb_94"/>
<path d="M141.4,753.4l6.3,2.8l-2.9,.7l-.6,2.8Z" class="gc_94"/>
<path d="M160.4,699l-16.1,16.1" class="gb_94"/>
<path d="M140.8,718.6l2.8,-6.4l.7,2.9l2.8,.6Z" class="gc_94"/>
<path d="M86.9,699L103,715.1" class="gb_94"/>
<path d="M106.5,718.6l-6.3,-2.9l2.8,-.6l.7,-2.9Z" class="gc_94"/>
<path d="M86.9,772.4l15.6,-15.5" class="gb_94"/>
<path d="M106,753.4l-2.9,6.3l-.6,-2.8l-2.9,-.7Z" class="gc_94"/>
<path d="M123.7,683.7V670m0,90.7V711.5m0,89.5V787.6" class="g3_94"/>
<path fill-rule="evenodd" d="M123.7,670l-2.4,1.7l2.4,-6.6l2.5,6.6Z" class="g6_94"/>
<path d="M175.6,735.6H195m-96.4,0h49.3m-94.4,0H71.7" class="g3_94"/>
<path fill-rule="evenodd" d="M195,735.6l-1.7,-2.5l6.5,2.5l-6.5,2.4Z" class="g6_94"/>
</svg>