<?xml version="1.0" encoding="UTF-8" standalone="no"?>
<!DOCTYPE svg PUBLIC "-//W3C//DTD SVG 1.1//EN"
"http://www.w3.org/Graphics/SVG/1.1/DTD/svg11.dtd">
<svg viewBox="0 0 931 1096" version="1.1" xmlns="http://www.w3.org/2000/svg" xmlns:xlink="http://www.w3.org/1999/xlink">
<defs>
<clipPath id="c0_296"><path d="M457.8,285.5V251.6H573.9v33.9Z"/></clipPath>
<clipPath id="c1_296"><path d="M109.9,296V267.3H217V296Z"/></clipPath>
<style type="text/css"><![CDATA[
.g0_296{
fill: #FFF;
}
.g1_296{
fill: none;
stroke: #00AEEF;
stroke-width: 1.145;
}
.g2_296{
fill: none;
stroke: #241F1F;
stroke-width: 0.763;
stroke-miterlimit: 10;
}
.g3_296{
fill: none;
stroke: #00AEEF;
stroke-width: 0.763;
}
.g4_296{
fill: none;
stroke: #241F1F;
stroke-width: 0.687;
}
.g5_296{
fill: none;
stroke: #241F1F;
stroke-width: 0.534;
stroke-miterlimit: 10;
}
.g6_296{
fill: #E8F6FE;
}
.g7_296{
fill: none;
stroke: #241F1F;
stroke-width: 0.611;
stroke-miterlimit: 3;
}
.g8_296{
fill: #241F1F;
}
.g9_296{
fill: #EE008C;
}
.ga_296{
fill: none;
stroke: #EE008C;
stroke-width: 0.763;
stroke-miterlimit: 3;
}
.gb_296{
fill: none;
stroke: #241F1F;
stroke-width: 0.481;
stroke-miterlimit: 10;
}
]]></style>
</defs>
<path d="M290.7,126.7c0,0,-3.1,0,-3.1,3.1V324.6c0,0,0,3,3.1,3H820.1c0,0,3,0,3,-3V129.8c0,0,0,-3.1,-3,-3.1Z" class="g0_296"/>
<path d="M303.8,137.6c0,0,-1.5,0,-1.5,1.5v14.2c0,0,0,1.5,1.5,1.5H318c0,0,1.5,0,1.5,-1.5V139.1c0,0,0,-1.5,-1.5,-1.5H303.8Z" class="g1_296"/>
<path clip-path="url(#c0_296)" d="M533.9,268h40.4" class="g2_296"/>
<path d="M290.7,126.7c0,0,-3.1,0,-3.1,3.1V324.6c0,0,0,3,3.1,3H820.1c0,0,3,0,3,-3V129.8c0,0,0,-3.1,-3,-3.1H290.7Z" class="g3_296"/>
<path clip-path="url(#c1_296)" d="M110.3,281.8H217.4" class="g4_296"/>
<path d="M513.2,388.6h10.7m22.3,0H557m22.2,0H590m103.2,35.2h5.3M328.3,442.1h5.4" class="g5_296"/>
<path d="M422.3,480.4h19.9m21.8,0h19.9m21.9,0h19.8m65.2,0h62.7" class="g2_296"/>
<path d="M640.3,492.5h5.4" class="g5_296"/>
<path d="M675.4,480.4h12.2" class="g2_296"/>
<path d="M679.3,492.5h5.4" class="g5_296"/>
<path d="M287.6,530h56.5v26H287.6Zm56.5,0h91.7v26H344.1Z" class="g6_296"/>
<path d="M344.1,574.7V556.4m91.7,18.3V556.4m-91.7,36.7V574.7m91.7,18.4V574.7m-91.7,36.7V593.1m91.7,18.3V593.1m-91.7,36.6V611.4m91.7,18.3V611.4m-91.7,36.7V629.7m91.7,18.4V629.7m-91.7,36.7V648.1m91.7,18.3V648.1m-91.7,36.6V666.4m91.7,18.3V666.4m-91.7,36.7V684.7m91.7,18.4V684.7m-91.7,36.7V703.1m91.7,18.3V703.1m-91.7,39.3v-21m91.7,21v-21m-91.7,21.4h92.1M344.1,555.6V530.4M287.2,530h56.9m0,0h92.1m-149,26h56.9m0,0h92.1m-148.6,-.4V530.4m148.2,25.2V530.4m-148.2,212v-21m-.4,21.4h56.9M287.6,574.7V556.4m0,36.7V574.7m0,36.7V593.1m0,36.6V611.4m0,36.7V629.7m0,36.7V648.1m0,36.6V666.4m0,36.7V684.7m0,36.7V703.1" class="g2_296"/>
<path d="M559.9,718.7V535.4" class="g7_296"/>
<path fill-rule="evenodd" d="M559.9,535.4l-2.4,1.6l2.4,-6.5l2.5,6.5Z" class="g8_296"/>
<path d="M523.3,682.1H775.4" class="g7_296"/>
<path fill-rule="evenodd" d="M775.4,682.1l-1.7,-2.5l6.6,2.5l-6.6,2.4Z" class="g8_296"/>
<path d="M556.9,603.2H563M761.6,679v6.1" class="g7_296"/>
<path d="M567.7,552.3c0,-.5,.3,-.8,.7,-.8c.5,0,.8,.3,.8,.8c0,.4,-.3,.7,-.8,.7c-.4,0,-.7,-.3,-.7,-.7Z" class="g9_296"/>
<path d="M567.7,552.3c0,-.5,.3,-.8,.7,-.8c.5,0,.8,.3,.8,.8c0,.4,-.3,.7,-.8,.7c-.4,0,-.7,-.3,-.7,-.7Z" class="ga_296"/>
<path d="M577.9,639.6c0,-.4,.3,-.8,.8,-.8c.4,0,.7,.4,.7,.8c0,.4,-.3,.8,-.7,.8c-.5,0,-.8,-.4,-.8,-.8Z" class="g9_296"/>
<path d="M577.9,639.6c0,-.4,.3,-.8,.8,-.8c.4,0,.7,.4,.7,.8c0,.4,-.3,.8,-.7,.8c-.5,0,-.8,-.4,-.8,-.8Z" class="ga_296"/>
<path d="M588.1,581.4c0,-.4,.4,-.8,.8,-.8c.4,0,.8,.4,.8,.8c0,.4,-.4,.7,-.8,.7c-.4,0,-.8,-.3,-.8,-.7Z" class="g9_296"/>
<path d="M588.1,581.4c0,-.4,.4,-.8,.8,-.8c.4,0,.8,.4,.8,.8c0,.4,-.4,.7,-.8,.7c-.4,0,-.8,-.3,-.8,-.7Z" class="ga_296"/>
<path d="M598.4,620.7c0,-.4,.3,-.7,.7,-.7c.4,0,.8,.3,.8,.7c0,.4,-.4,.8,-.8,.8c-.4,0,-.7,-.4,-.7,-.8Z" class="g9_296"/>
<path d="M598.4,620.7c0,-.4,.3,-.7,.7,-.7c.4,0,.8,.3,.8,.7c0,.4,-.4,.8,-.8,.8c-.4,0,-.7,-.4,-.7,-.8Z" class="ga_296"/>
<path d="M608.6,594.8c0,-.5,.3,-.8,.8,-.8c.4,0,.7,.3,.7,.8c0,.4,-.3,.7,-.7,.7c-.5,0,-.8,-.3,-.8,-.7Z" class="g9_296"/>
<path d="M608.6,594.8c0,-.5,.3,-.8,.8,-.8c.4,0,.7,.3,.7,.8c0,.4,-.3,.7,-.7,.7c-.5,0,-.8,-.3,-.8,-.7Z" class="ga_296"/>
<path d="M618,612.1c0,-.5,.4,-.8,.8,-.8c.4,0,.8,.3,.8,.8c0,.4,-.4,.7,-.8,.7c-.4,0,-.8,-.3,-.8,-.7Z" class="g9_296"/>
<path d="M618,612.1c0,-.5,.4,-.8,.8,-.8c.4,0,.8,.3,.8,.8c0,.4,-.4,.7,-.8,.7c-.4,0,-.8,-.3,-.8,-.7Z" class="ga_296"/>
<path d="M628.3,600.3c0,-.4,.3,-.8,.7,-.8c.5,0,.8,.4,.8,.8c0,.4,-.3,.7,-.8,.7c-.4,0,-.7,-.3,-.7,-.7Z" class="g9_296"/>
<path d="M628.3,600.3c0,-.4,.3,-.8,.7,-.8c.5,0,.8,.4,.8,.8c0,.4,-.3,.7,-.8,.7c-.4,0,-.7,-.3,-.7,-.7Z" class="ga_296"/>
<path d="M638.5,608.1c0,-.4,.3,-.7,.8,-.7c.4,0,.7,.3,.7,.7c0,.5,-.3,.8,-.7,.8c-.5,0,-.8,-.3,-.8,-.8Z" class="g9_296"/>
<path d="M638.5,608.1c0,-.4,.3,-.7,.8,-.7c.4,0,.7,.3,.7,.7c0,.5,-.3,.8,-.7,.8c-.5,0,-.8,-.3,-.8,-.8Z" class="ga_296"/>
<path d="M648.7,602.6c0,-.4,.4,-.7,.8,-.7c.4,0,.8,.3,.8,.7c0,.4,-.4,.8,-.8,.8c-.4,0,-.8,-.4,-.8,-.8Z" class="g9_296"/>
<path d="M648.7,602.6c0,-.4,.4,-.7,.8,-.7c.4,0,.8,.3,.8,.7c0,.4,-.4,.8,-.8,.8c-.4,0,-.8,-.4,-.8,-.8Z" class="ga_296"/>
<path d="M658.9,606.6c0,-.5,.4,-.8,.8,-.8c.4,0,.8,.3,.8,.8c0,.4,-.4,.7,-.8,.7c-.4,0,-.8,-.3,-.8,-.7Z" class="g9_296"/>
<path d="M658.9,606.6c0,-.5,.4,-.8,.8,-.8c.4,0,.8,.3,.8,.8c0,.4,-.4,.7,-.8,.7c-.4,0,-.8,-.3,-.8,-.7Z" class="ga_296"/>
<path d="M668.4,604.2c0,-.4,.3,-.8,.8,-.8c.4,0,.7,.4,.7,.8c0,.4,-.3,.8,-.7,.8c-.5,0,-.8,-.4,-.8,-.8Z" class="g9_296"/>
<path d="M668.4,604.2c0,-.4,.3,-.8,.8,-.8c.4,0,.7,.4,.7,.8c0,.4,-.3,.8,-.7,.8c-.5,0,-.8,-.4,-.8,-.8Z" class="ga_296"/>
<path d="M678.6,605.8c0,-.4,.4,-.8,.8,-.8c.4,0,.8,.4,.8,.8c0,.4,-.4,.7,-.8,.7c-.4,0,-.8,-.3,-.8,-.7Z" class="g9_296"/>
<path d="M678.6,605.8c0,-.4,.4,-.8,.8,-.8c.4,0,.8,.4,.8,.8c0,.4,-.4,.7,-.8,.7c-.4,0,-.8,-.3,-.8,-.7Z" class="ga_296"/>
<path d="M688.8,604.2c0,-.4,.4,-.8,.8,-.8c.4,0,.8,.4,.8,.8c0,.4,-.4,.8,-.8,.8c-.4,0,-.8,-.4,-.8,-.8Z" class="g9_296"/>
<path d="M688.8,604.2c0,-.4,.4,-.8,.8,-.8c.4,0,.8,.4,.8,.8c0,.4,-.4,.8,-.8,.8c-.4,0,-.8,-.4,-.8,-.8Z" class="ga_296"/>
<path d="M699.1,605.4c0,-.4,.3,-.8,.7,-.8c.5,0,.8,.4,.8,.8c0,.4,-.3,.7,-.8,.7c-.4,0,-.7,-.3,-.7,-.7Z" class="g9_296"/>
<path d="M699.1,605.4c0,-.4,.3,-.8,.7,-.8c.5,0,.8,.4,.8,.8c0,.4,-.3,.7,-.8,.7c-.4,0,-.7,-.3,-.7,-.7Z" class="ga_296"/>
<path d="M709.3,604.6c0,-.4,.4,-.8,.8,-.8c.4,0,.7,.4,.7,.8c0,.4,-.3,.8,-.7,.8c-.4,0,-.8,-.4,-.8,-.8Z" class="g9_296"/>
<path d="M709.3,604.6c0,-.4,.4,-.8,.8,-.8c.4,0,.7,.4,.7,.8c0,.4,-.3,.8,-.7,.8c-.4,0,-.8,-.4,-.8,-.8Z" class="ga_296"/>
<path d="M719.5,605.4c0,-.4,.4,-.8,.8,-.8c.4,0,.8,.4,.8,.8c0,.4,-.4,.7,-.8,.7c-.4,0,-.8,-.3,-.8,-.7Z" class="g9_296"/>
<path d="M719.5,605.4c0,-.4,.4,-.8,.8,-.8c.4,0,.8,.4,.8,.8c0,.4,-.4,.7,-.8,.7c-.4,0,-.8,-.3,-.8,-.7Z" class="ga_296"/>
<path d="M729.8,604.6c0,-.4,.3,-.8,.7,-.8c.5,0,.8,.4,.8,.8c0,.4,-.3,.8,-.8,.8c-.4,0,-.7,-.4,-.7,-.8Z" class="g9_296"/>
<path d="M729.8,604.6c0,-.4,.3,-.8,.7,-.8c.5,0,.8,.4,.8,.8c0,.4,-.3,.8,-.8,.8c-.4,0,-.7,-.4,-.7,-.8Z" class="ga_296"/>
<path d="M740,605.4c0,-.4,.3,-.8,.8,-.8c.4,0,.7,.4,.7,.8c0,.4,-.3,.7,-.7,.7c-.5,0,-.8,-.3,-.8,-.7Z" class="g9_296"/>
<path d="M740,605.4c0,-.4,.3,-.8,.8,-.8c.4,0,.7,.4,.7,.8c0,.4,-.3,.7,-.7,.7c-.5,0,-.8,-.3,-.8,-.7Z" class="ga_296"/>
<path d="M750.2,604.6c0,-.4,.4,-.8,.8,-.8c.4,0,.7,.4,.7,.8c0,.4,-.3,.8,-.7,.8c-.4,0,-.8,-.4,-.8,-.8Z" class="g9_296"/>
<path d="M750.2,604.6c0,-.4,.4,-.8,.8,-.8c.4,0,.7,.4,.7,.8c0,.4,-.3,.8,-.7,.8c-.4,0,-.8,-.4,-.8,-.8Z" class="ga_296"/>
<path d="M760.5,605c0,-.4,.3,-.8,.7,-.8c.4,0,.8,.4,.8,.8c0,.4,-.4,.7,-.8,.7c-.4,0,-.7,-.3,-.7,-.7Z" class="g9_296"/>
<path d="M760.5,605c0,-.4,.3,-.8,.7,-.8c.4,0,.8,.4,.8,.8c0,.4,-.4,.7,-.8,.7c-.4,0,-.7,-.3,-.7,-.7Z" class="ga_296"/>
<path d="M608.2,858.1H638" class="g2_296"/>
<path d="M695.9,858h5.4m-6,47.4h5.4" class="g5_296"/>
<path d="M130,880h9.6m20,0h9.6" class="gb_296"/>
</svg>