<?xml version="1.0" encoding="UTF-8" standalone="no"?>
<!DOCTYPE svg PUBLIC "-//W3C//DTD SVG 1.1//EN"
"http://www.w3.org/Graphics/SVG/1.1/DTD/svg11.dtd">
<svg viewBox="0 0 931 1096" version="1.1" xmlns="http://www.w3.org/2000/svg" xmlns:xlink="http://www.w3.org/1999/xlink">
<defs>
<clipPath id="c0_80"><path d="M578.7,681.7c-5,0,-9.2,-4,-9.2,-9V580.8c0,-5,4.2,-9.1,9.2,-9.1H728.4c5.1,0,9.2,4.1,9.2,9.1v91.9c0,5,-4.1,9,-9.2,9Z"/></clipPath>
<clipPath id="c1_80"><path d="M317.5,681.7c-5.1,0,-9.2,-4,-9.2,-9V580.8c0,-5,4.1,-9.1,9.2,-9.1H467.2c5.1,0,9.1,4.1,9.1,9.1v91.9c0,5,-4,9,-9.1,9Z"/></clipPath>
<style type="text/css"><![CDATA[
.g0_80{
fill: #241F1F;
}
.g1_80{
fill: none;
stroke: #00AEEF;
stroke-width: 0.913;
stroke-linejoin: round;
}
.g2_80{
fill: none;
stroke: #241F1F;
stroke-width: 0.609;
stroke-miterlimit: 3;
}
.g3_80{
fill: none;
stroke: #6AC48C;
stroke-width: 1.066;
stroke-linejoin: round;
}
.g4_80{
fill: none;
stroke: #241F1F;
stroke-width: 0.762;
stroke-miterlimit: 3;
stroke-dasharray: 11,4;
}
.g5_80{
fill: none;
stroke: #EE008C;
stroke-width: 0.913;
stroke-linejoin: round;
}
.g6_80{
fill: none;
stroke: #00AEEF;
stroke-width: 0.916;
stroke-miterlimit: 3;
}
.g7_80{
fill: none;
stroke: #EE008C;
stroke-width: 0.916;
stroke-miterlimit: 3;
}
.g8_80{
fill: none;
stroke: #00AEEF;
stroke-width: 0.534;
stroke-miterlimit: 3;
}
.g9_80{
fill: none;
stroke: #241F1F;
stroke-width: 0.534;
stroke-miterlimit: 3;
}
.ga_80{
fill: #D0007A;
}
]]></style>
</defs>
<path fill-rule="evenodd" d="M440.6,253.9l-1.7,-2.4l6.5,2.4l-6.5,2.4Z" class="g0_80"/>
<path fill-rule="evenodd" d="M376,161.8l-2.4,1.6l2.4,-6.5l2.5,6.5Z" class="g0_80"/>
<path d="M423.5,161C394,233.7,354,244.4,312.2,249" class="g1_80"/>
<path d="M311.3,253.9H440.9m-64.8,77.8V161.4" class="g2_80"/>
<path fill-rule="evenodd" d="M617.5,253.9l-1.7,-2.4l6.5,2.4l-6.5,2.5Z" class="g0_80"/>
<path fill-rule="evenodd" d="M553.3,161.7l-2.5,1.6l2.5,-6.5l2.4,6.5Z" class="g0_80"/>
<path d="M593.9,330.9c-20,-45.5,-54.3,-66.6,-104.5,-72" class="g3_80"/>
<path d="M488.5,253.9H618m-64.7,77.8V161.4" class="g2_80"/>
<path fill-rule="evenodd" d="M794.6,253.9l-1.7,-2.4l6.5,2.4l-6.5,2.5Z" class="g0_80"/>
<path fill-rule="evenodd" d="M730.3,161.9l-2.5,1.6l2.5,-6.5l2.4,6.5Z" class="g0_80"/>
<path d="M665.5,176.2H796.3" class="g4_80"/>
<path d="M794.2,321.6C764.4,201.1,716.7,186.8,666.4,181.3" class="g5_80"/>
<path d="M665.5,253.9H795.1m-64.8,77.8V161.4" class="g2_80"/>
<g clip-path="url(#c0_80)">
<path d="M734.2,654.1l3.3,-1m-7.1,2.2l3.8,-1.2m-7.2,2.4l3.4,-1.2m-6.9,2.2l3.5,-1m-6.8,2l3.3,-1m-7.2,2.2l3.9,-1.2m-7.2,2.2l3.3,-1m-6.8,2l3.5,-1m-6.9,2l3.4,-1m-6.9,2l3.5,-1m-7.1,1.7l3.6,-.7m-7.2,1.7l3.6,-1m-7.1,2l3.5,-1m-6.9,1.7l3.4,-.7m-6.9,1.5l3.5,-.8m-7.1,1.7l3.6,-.9m-6.9,1.7l3.3,-.8m-6.9,1.5l3.6,-.7m-7.2,1.5l3.6,-.8m-7.1,1.2l3.5,-.4m-7.1,1.2l3.6,-.8m-7.2,1.5l3.6,-.7m-6.9,1.2l3.3,-.5m-6.8,1.3l3.5,-.8m-7.1,1.3l3.6,-.5m-7.2,1.2l3.6,-.7m-6.9,1.2l3.3,-.5m-6.6,1l3.3,-.5m-6.9,1l3.6,-.5m-7.2,.7L636,677m-6.9,.7l3.3,-.5m-6.8,1l3.5,-.5m-7.1,.8l3.6,-.3m-7.2,.7l3.6,-.4m-6.9,.7l3.3,-.3m-6.9,.5l3.6,-.2m-7.1,.5l3.5,-.3m-7.1,.8l3.6,-.5m-6.9,.5h3.3m-6.9,.2l3.6,-.2m-7.2,.5l3.6,-.3m-7.1,.5l3.5,-.2m-7.1,.2h3.6m-6.9,.3l3.3,-.3m-6.9,.3h3.6m-7.2,0h3.6m-7.1,0h3.5m-6.8,.2l3.3,-.2" class="g6_80"/>
<path d="M734.2,580.1l2.5,-9.1m-4.6,15.3l2.1,-6.2M730.4,592l1.7,-5.7M727,601.6l3.4,-9.6m-6.9,18.2l3.5,-8.6m-6.8,16l3.3,-7.4M716.3,625l3.9,-7.4M713,630.7l3.3,-5.7m-6.8,11.3l3.5,-5.6m-6.9,10.5l3.4,-4.9m-6.9,9.4l3.5,-4.5m-7.1,8.4l3.6,-3.9m-7.2,7.4l3.6,-3.5m-7.1,6.7l3.5,-3.2m-6.9,5.6l3.4,-2.4m-6.9,5.2l3.5,-2.8m-7.1,4.7l3.6,-1.9m-6.9,3.9l3.3,-2m-6.9,3.7l3.6,-1.7m-7.2,3.4l3.6,-1.7m-7.1,3l3.5,-1.3m-7.1,2.5l3.6,-1.2m-7.2,2.4l3.6,-1.2m-6.9,2l3.3,-.8m-6.8,1.8l3.5,-1m-7.1,1.7l3.6,-.7m-7.2,1.4l3.6,-.7m-6.9,1.2l3.3,-.5m-6.6,1l3.3,-.5m-6.9,1l3.6,-.5m-7.2,1l3.6,-.5m-6.9,1l3.3,-.5m-6.8,.8l3.5,-.3m-7.1,.5l3.6,-.2m-7.2,.7l3.6,-.5m-6.9,.5h3.3m-6.9,.2l3.6,-.2m-7.1,.5l3.5,-.3m-7.1,.5l3.6,-.2m-6.9,.2h3.3m-6.9,.3l3.6,-.3m-7.2,.3h3.6m-7.1,.2l3.5,-.2m-7.1,.2h3.6m-6.9,.3l3.3,-.3m-6.9,.3h3.6m-7.2,0h3.6m-7.1,0h3.5m-6.8,.2l3.3,-.2" class="g7_80"/>
</g>
<path d="M578.7,571.7H728.4c5.1,0,9.2,4.1,9.2,9.1v91.9c0,5,-4.1,9,-9.2,9H578.7c-5,0,-9.2,-4,-9.2,-9V580.8c0,-5,4.2,-9.1,9.2,-9.1Z" class="g8_80"/>
<g clip-path="url(#c1_80)">
<path d="M473.1,587.9l3.3,-5.4m-7.2,11l3.9,-5.6m-7.2,10.5l3.3,-4.9m-6.8,9.8l3.5,-4.9M459,608l3.4,-4.7m-7.2,9.6L459,608m-7.1,9.1l3.3,-4.2m-6.9,8.8l3.6,-4.6m-6.9,8.8l3.3,-4.2m-6.9,8.1l3.6,-3.9m-7.1,7.8l3.5,-3.9m-7.1,7.6l3.6,-3.7m-7.2,7.4l3.6,-3.7m-6.9,7.1l3.3,-3.4m-6.8,6.8l3.5,-3.4m-7.1,6.4l3.6,-3m-6.9,5.9l3.3,-2.9m-6.9,5.6l3.6,-2.7m-7.2,5.6l3.6,-2.9m-7.1,5.4l3.5,-2.5m-7.1,5l3.6,-2.5m-7.2,4.7l3.6,-2.2m-6.9,4.1l3.3,-1.9m-6.9,3.9l3.6,-2m-7.1,3.7l3.5,-1.7m-7.1,3.4l3.6,-1.7m-6.9,2.9l3.3,-1.2m-6.6,2.7l3.3,-1.5m-6.9,2.5l3.6,-1m-7.2,2l3.6,-1m-6.9,1.9l3.3,-.9m-6.9,1.7l3.6,-.8m-7.1,1.3l3.5,-.5m-7.1,.7l3.6,-.2m-6.9,.5l3.3,-.3m-6.9,.5l3.6,-.2m-7.2,0l3.6,.2m-7.1,-.5l3.5,.3m-6.8,-.5l3.3,.2m-6.9,-.7l3.6,.5m-7.2,-1.3l3.6,.8m-7.1,-1.7l3.5,.9m-7.1,-1.9l3.6,1m-6.9,-2l3.3,1m-6.9,-2.5l3.6,1.5m-7.2,-2.9l3.6,1.4m-7.1,-2.9l3.5,1.5m-6.9,-3.2l3.4,1.7" class="g6_80"/>
<path d="M459,582.5l3.1,-10.8M455.2,594L459,582.5m-7.1,20.3l3.3,-8.8m-6.9,17.7l3.6,-8.9M445,619.3l3.3,-7.6m-6.9,14.4l3.6,-6.8m-7.1,12.9l3.5,-6.1m-7.1,11.3l3.6,-5.2m-7.2,10.1l3.6,-4.9m-6.9,9.1l3.3,-4.2m-6.8,8.1l3.5,-3.9m-7.1,7.3l3.6,-3.4m-6.9,6.3l3.3,-2.9m-6.9,5.6l3.6,-2.7m-7.2,5.2l3.6,-2.5m-7.1,4.4l3.5,-1.9m-7.1,3.9l3.6,-2m-7.2,3.7l3.6,-1.7m-6.9,3.2l3.3,-1.5m-6.9,3l3.6,-1.5m-7.1,2.7l3.5,-1.2m-7.1,2.2l3.6,-1m-6.9,2l3.3,-1m-6.6,1.7l3.3,-.7m-6.9,1.4l3.6,-.7m-7.2,1.5l3.6,-.8m-6.9,1.3l3.3,-.5m-6.9,1.2l3.6,-.7m-7.1,1.2l3.5,-.5m-7.1,.7l3.6,-.2m-6.9,.7l3.3,-.5m-6.9,.8l3.6,-.3m-7.2,.8l3.6,-.5m-7.1,.7l3.5,-.2m-6.8,.4l3.3,-.2m-6.9,.2H340m-7.2,.3l3.6,-.3m-7.1,.5l3.5,-.2m-7.1,.5l3.6,-.3m-6.9,.3h3.3m-6.9,.2l3.6,-.2m-7.2,.2h3.6m-7.1,0h3.5m-6.9,.3l3.4,-.3" class="g7_80"/>
</g>
<path d="M317.5,571.7H467.2c5.1,0,9.1,4.1,9.1,9.1v91.9c0,5,-4,9,-9.1,9H317.5c-5.1,0,-9.2,-4,-9.2,-9V580.8c0,-5,4.1,-9.1,9.2,-9.1Z" class="g8_80"/>
<path d="M350.5,681.6V571.8m-1.7,82.1h3.8m-3.8,-27.5h3.8m-3.8,-27.5h3.8m39.9,83.3v-2.8m41.8,2.8v-2.8M569.6,659.2h2.5m-2.5,-22.1l2.5,-.1m-2.5,-21.9h2.5m-2.5,-22.2h2.5m39.4,88.9v-2.3m42.1,2.3v-2.3m41.8,2.3v-2.3" class="g9_80"/>
<path d="M288.8,752.9c0,0,-1.6,0,-1.6,1.5v9.2c0,0,0,1.5,1.6,1.5h9.1c0,0,1.6,0,1.6,-1.5v-9.2c0,0,0,-1.5,-1.6,-1.5Z" class="ga_80"/>
</svg>