<?xml version="1.0" encoding="UTF-8" standalone="no"?>
<!DOCTYPE svg PUBLIC "-//W3C//DTD SVG 1.1//EN"
"http://www.w3.org/Graphics/SVG/1.1/DTD/svg11.dtd">
<svg viewBox="0 0 770 1017" version="1.1" xmlns="http://www.w3.org/2000/svg" xmlns:xlink="http://www.w3.org/1999/xlink">
<defs>
<style type="text/css"><![CDATA[
.g0_309{
fill: none;
stroke: #000000;
stroke-width: 0.618;
stroke-linecap: butt;
stroke-linejoin: miter;
}
]]></style>
</defs>
<path d="M74.2,69.2H713.5M126.3,102.7H367.9M126.3,115.2V103m31,12.2V103m73.6,12.2V103m34.8,12.2V103m28.5,12.2V103m73.7,12.2V103M126.3,115.5H367.9M126.3,128V115.8m31,12.2V115.8M230.9,128V115.8M265.7,128V115.8M294.2,128V115.8M367.9,128V115.8M126.3,140.2V128m31,12.2V128m73.6,12.2V128m34.8,12.2V128m28.5,12.2V128m73.7,12.2V128M126.3,152.3V140.1m31,12.2V140.1m73.6,12.2V140.1m34.8,12.2V140.1m28.5,12.2V140.1m73.7,12.2V140.1M126.3,164.5V152.3m31,12.2V152.3m73.6,12.2V152.3m34.8,12.2V152.3m28.5,12.2V152.3m73.7,12.2V152.3M126.3,176.7V164.5m31,12.2V164.5m73.6,12.2V164.5m34.8,12.2V164.5m28.5,12.2V164.5m73.7,12.2V164.5M126.3,188.9V176.7m31,12.2V176.7m73.6,12.2V176.7m34.8,12.2V176.7m28.5,12.2V176.7m73.7,12.2V176.7M126.3,201V188.9m31,12.1V188.9M230.9,201V188.9M265.7,201V188.9M294.2,201V188.9M367.9,201V188.9M126.3,213.2V201m31,12.2V201m73.6,12.2V201m34.8,12.2V201m28.5,12.2V201m73.7,12.2V201M126.3,225.4V213.2m31,12.2V213.2m73.6,12.2V213.2m34.8,12.2V213.2m28.5,12.2V213.2m73.7,12.2V213.2M126.3,237.6V225.4m31,12.2V225.4m73.6,12.2V225.4m34.8,12.2V225.4m28.5,12.2V225.4m73.7,12.2V225.4M126.3,237.9H367.9m47,-135.2H674.1M415,115.2V103m31,12.2V103m91.2,12.2V103m34.7,12.2V103m28.6,12.2V103m73.6,12.2V103M414.9,115.5H674.1M415,128V115.8M446,128V115.8M537.2,128V115.8M571.9,128V115.8M600.5,128V115.8M674.1,128V115.8M415,140.2V128m31,12.2V128m91.2,12.2V128m34.7,12.2V128m28.6,12.2V128m73.6,12.2V128M415,152.3V140.1m31,12.2V140.1m91.2,12.2V140.1m34.7,12.2V140.1m28.6,12.2V140.1m73.6,12.2V140.1M415,164.5V152.3m31,12.2V152.3m91.2,12.2V152.3m34.7,12.2V152.3m28.6,12.2V152.3m73.6,12.2V152.3M415,176.7V164.5m31,12.2V164.5m91.2,12.2V164.5m34.7,12.2V164.5m28.6,12.2V164.5m73.6,12.2V164.5M415,188.9V176.7m31,12.2V176.7m91.2,12.2V176.7m34.7,12.2V176.7m28.6,12.2V176.7m73.6,12.2V176.7M415,201V188.9M446,201V188.9M537.2,201V188.9M571.9,201V188.9M600.5,201V188.9M674.1,201V188.9M415,213.2V201m31,12.2V201m91.2,12.2V201m34.7,12.2V201m28.6,12.2V201m73.6,12.2V201M415,225.4V213.2m31,12.2V213.2m91.2,12.2V213.2m34.7,12.2V213.2m28.6,12.2V213.2m73.6,12.2V213.2M415,237.6V225.4m31,12.2V225.4m91.2,12.2V225.4m34.7,12.2V225.4m28.6,12.2V225.4m73.6,12.2V225.4M414.9,237.9H674.1M83.4,321.5h621" class="g0_309"/>
</svg>