<?xml version="1.0" encoding="UTF-8" standalone="no"?>
<!DOCTYPE svg PUBLIC "-//W3C//DTD SVG 1.1//EN"
"http://www.w3.org/Graphics/SVG/1.1/DTD/svg11.dtd">
<svg viewBox="0 0 931 1096" version="1.1" xmlns="http://www.w3.org/2000/svg" xmlns:xlink="http://www.w3.org/1999/xlink">
<defs>
<style type="text/css"><![CDATA[
.g0_283{
fill: #FFF;
}
.g1_283{
fill: none;
stroke: #00AEEF;
stroke-width: 1.145;
}
.g2_283{
fill: none;
stroke: #00AEEF;
stroke-width: 0.763;
}
.g3_283{
fill: none;
stroke: #00AEEF;
stroke-width: 0.916;
stroke-miterlimit: 3;
}
.g4_283{
fill: none;
stroke: #241F1F;
stroke-width: 0.611;
stroke-miterlimit: 3;
}
.g5_283{
fill: #241F1F;
}
.g6_283{
fill: none;
stroke: #EE008C;
stroke-width: 0.916;
stroke-miterlimit: 3;
}
.g7_283{
fill: #EE008C;
}
.g8_283{
fill: none;
stroke: #EE008C;
stroke-width: 0.763;
stroke-miterlimit: 3;
}
.g9_283{
fill: none;
stroke: #241F1F;
stroke-width: 0.763;
stroke-miterlimit: 10;
}
]]></style>
</defs>
<path d="M345.7,166.4c0,0,-3.1,0,-3.1,3.1v52.7c0,0,0,3.1,3.1,3.1H875.1c0,0,3,0,3,-3.1V169.5c0,0,0,-3.1,-3,-3.1Z" class="g0_283"/>
<path d="M358.8,175.8c0,0,-1.5,0,-1.5,1.5v14.2c0,0,0,1.5,1.5,1.5H373c0,0,1.5,0,1.5,-1.5V177.3c0,0,0,-1.5,-1.5,-1.5H358.8Z" class="g1_283"/>
<path d="M345.7,166.4c0,0,-3.1,0,-3.1,3.1v52.7c0,0,0,3.1,3.1,3.1H875.1c0,0,3,0,3,-3.1V169.5c0,0,0,-3.1,-3,-3.1H345.7Z" class="g2_283"/>
<path d="M840.8,299.9H397.2" class="g3_283"/>
<path d="M429.1,352.4v-6.1m-58.8,3.2H845.6m-431.8,2.9v-6.1" class="g4_283"/>
<path fill-rule="evenodd" d="M845.6,349.5l-1.7,-2.4l6.6,2.4l-6.6,2.5Z" class="g5_283"/>
<path fill-rule="evenodd" d="M397.2,258l-2.5,1.6l2.5,-6.5l2.4,6.5Z" class="g5_283"/>
<path d="M444.4,352.4v-6.1m15.2,6.1v-6.1" class="g4_283"/>
<path d="M397.2,342.2c29.8,0,55.3,-26,77.9,-44.3c45.8,-37.4,91.8,-36.8,122.2,-19.4c35.1,20.1,147.4,13.3,240.3,19.1" class="g6_283"/>
<path d="M413.1,339.6c0,-.4,.3,-.7,.7,-.7c.4,0,.8,.3,.8,.7c0,.5,-.4,.8,-.8,.8c-.4,0,-.7,-.3,-.7,-.8Z" class="g7_283"/>
<path d="M413.1,339.6c0,-.4,.3,-.7,.7,-.7c.4,0,.8,.3,.8,.7c0,.5,-.4,.8,-.8,.8c-.4,0,-.7,-.3,-.7,-.8Z" class="g8_283"/>
<path d="M428.3,333.1c0,-.5,.4,-.8,.8,-.8c.4,0,.8,.3,.8,.8c0,.4,-.4,.7,-.8,.7c-.4,0,-.8,-.3,-.8,-.7Z" class="g7_283"/>
<path d="M428.3,333.1c0,-.5,.4,-.8,.8,-.8c.4,0,.8,.3,.8,.8c0,.4,-.4,.7,-.8,.7c-.4,0,-.8,-.3,-.8,-.7Z" class="g8_283"/>
<path d="M443.8,323.1c0,-.4,.3,-.8,.7,-.8c.4,0,.8,.4,.8,.8c0,.4,-.4,.8,-.8,.8c-.4,0,-.7,-.4,-.7,-.8Z" class="g7_283"/>
<path d="M443.8,323.1c0,-.4,.3,-.8,.7,-.8c.4,0,.8,.4,.8,.8c0,.4,-.4,.8,-.8,.8c-.4,0,-.7,-.4,-.7,-.8Z" class="g8_283"/>
<path d="M459,311.1c0,-.4,.4,-.7,.8,-.7c.4,0,.8,.3,.8,.7c0,.5,-.4,.8,-.8,.8c-.4,0,-.8,-.3,-.8,-.8Z" class="g7_283"/>
<path d="M459,311.1c0,-.4,.4,-.7,.8,-.7c.4,0,.8,.3,.8,.7c0,.5,-.4,.8,-.8,.8c-.4,0,-.8,-.3,-.8,-.8Z" class="g8_283"/>
<path d="M474.3,298.1c0,-.4,.4,-.8,.8,-.8c.4,0,.7,.4,.7,.8c0,.4,-.3,.7,-.7,.7c-.4,0,-.8,-.3,-.8,-.7Z" class="g7_283"/>
<path d="M474.3,298.1c0,-.4,.4,-.8,.8,-.8c.4,0,.7,.4,.7,.8c0,.4,-.3,.7,-.7,.7c-.4,0,-.8,-.3,-.8,-.7Z" class="g8_283"/>
<path d="M489.6,287.2c0,-.5,.3,-.8,.8,-.8c.4,0,.7,.3,.7,.8c0,.4,-.3,.7,-.7,.7c-.5,0,-.8,-.3,-.8,-.7Z" class="g7_283"/>
<path d="M489.6,287.2c0,-.5,.3,-.8,.8,-.8c.4,0,.7,.3,.7,.8c0,.4,-.3,.7,-.7,.7c-.5,0,-.8,-.3,-.8,-.7Z" class="g8_283"/>
<path d="M504.9,278.6c0,-.4,.3,-.7,.7,-.7c.4,0,.8,.3,.8,.7c0,.5,-.4,.8,-.8,.8c-.4,0,-.7,-.3,-.7,-.8Z" class="g7_283"/>
<path d="M504.9,278.6c0,-.4,.3,-.7,.7,-.7c.4,0,.8,.3,.8,.7c0,.5,-.4,.8,-.8,.8c-.4,0,-.7,-.3,-.7,-.8Z" class="g8_283"/>
<path d="M520.1,272.4c0,-.4,.4,-.7,.8,-.7c.4,0,.8,.3,.8,.7c0,.4,-.4,.8,-.8,.8c-.4,0,-.8,-.4,-.8,-.8Z" class="g7_283"/>
<path d="M520.1,272.4c0,-.4,.4,-.7,.8,-.7c.4,0,.8,.3,.8,.7c0,.4,-.4,.8,-.8,.8c-.4,0,-.8,-.4,-.8,-.8Z" class="g8_283"/>
<path d="M535.3,268.6c0,-.5,.3,-.8,.7,-.8c.4,0,.8,.3,.8,.8c0,.4,-.4,.7,-.8,.7c-.4,0,-.7,-.3,-.7,-.7Z" class="g7_283"/>
<path d="M535.3,268.6c0,-.5,.3,-.8,.7,-.8c.4,0,.8,.3,.8,.8c0,.4,-.4,.7,-.8,.7c-.4,0,-.7,-.3,-.7,-.7Z" class="g8_283"/>
<path d="M550.7,267c0,-.4,.3,-.7,.8,-.7c.4,0,.7,.3,.7,.7c0,.5,-.3,.8,-.7,.8c-.5,0,-.8,-.3,-.8,-.8Z" class="g7_283"/>
<path d="M550.7,267c0,-.4,.3,-.7,.8,-.7c.4,0,.7,.3,.7,.7c0,.5,-.3,.8,-.7,.8c-.5,0,-.8,-.3,-.8,-.8Z" class="g8_283"/>
<path d="M565.8,268.1c0,-.5,.4,-.8,.8,-.8c.4,0,.8,.3,.8,.8c0,.4,-.4,.7,-.8,.7c-.4,0,-.8,-.3,-.8,-.7Z" class="g7_283"/>
<path d="M565.8,268.1c0,-.5,.4,-.8,.8,-.8c.4,0,.8,.3,.8,.8c0,.4,-.4,.7,-.8,.7c-.4,0,-.8,-.3,-.8,-.7Z" class="g8_283"/>
<path d="M581.3,271.7c0,-.4,.3,-.8,.7,-.8c.4,0,.8,.4,.8,.8c0,.4,-.4,.7,-.8,.7c-.4,0,-.7,-.3,-.7,-.7Z" class="g7_283"/>
<path d="M581.3,271.7c0,-.4,.3,-.8,.7,-.8c.4,0,.8,.4,.8,.8c0,.4,-.4,.7,-.8,.7c-.4,0,-.7,-.3,-.7,-.7Z" class="g8_283"/>
<path d="M596.5,278.3c0,-.4,.4,-.7,.8,-.7c.4,0,.8,.3,.8,.7c0,.5,-.4,.8,-.8,.8c-.4,0,-.8,-.3,-.8,-.8Z" class="g7_283"/>
<path d="M596.5,278.3c0,-.4,.4,-.7,.8,-.7c.4,0,.8,.3,.8,.7c0,.5,-.4,.8,-.8,.8c-.4,0,-.8,-.3,-.8,-.8Z" class="g8_283"/>
<path d="M611.8,284.6c0,-.5,.4,-.8,.8,-.8c.4,0,.7,.3,.7,.8c0,.4,-.3,.7,-.7,.7c-.4,0,-.8,-.3,-.8,-.7Z" class="g7_283"/>
<path d="M611.8,284.6c0,-.5,.4,-.8,.8,-.8c.4,0,.7,.3,.7,.8c0,.4,-.3,.7,-.7,.7c-.4,0,-.8,-.3,-.8,-.7Z" class="g8_283"/>
<path d="M626.9,287.7c0,-.4,.4,-.7,.8,-.7c.4,0,.8,.3,.8,.7c0,.5,-.4,.8,-.8,.8c-.4,0,-.8,-.3,-.8,-.8Z" class="g7_283"/>
<path d="M626.9,287.7c0,-.4,.4,-.7,.8,-.7c.4,0,.8,.3,.8,.7c0,.5,-.4,.8,-.8,.8c-.4,0,-.8,-.3,-.8,-.8Z" class="g8_283"/>
<path d="M642.2,289.9c0,-.4,.4,-.8,.8,-.8c.4,0,.7,.4,.7,.8c0,.4,-.3,.8,-.7,.8c-.4,0,-.8,-.4,-.8,-.8Z" class="g7_283"/>
<path d="M642.2,289.9c0,-.4,.4,-.8,.8,-.8c.4,0,.7,.4,.7,.8c0,.4,-.3,.8,-.7,.8c-.4,0,-.8,-.4,-.8,-.8Z" class="g8_283"/>
<path d="M657.6,291.2c0,-.4,.4,-.8,.8,-.8c.4,0,.8,.4,.8,.8c0,.4,-.4,.7,-.8,.7c-.4,0,-.8,-.3,-.8,-.7Z" class="g7_283"/>
<path d="M657.6,291.2c0,-.4,.4,-.8,.8,-.8c.4,0,.8,.4,.8,.8c0,.4,-.4,.7,-.8,.7c-.4,0,-.8,-.3,-.8,-.7Z" class="g8_283"/>
<path d="M672.6,292.4c0,-.4,.4,-.8,.8,-.8c.4,0,.7,.4,.7,.8c0,.4,-.3,.7,-.7,.7c-.4,0,-.8,-.3,-.8,-.7Z" class="g7_283"/>
<path d="M672.6,292.4c0,-.4,.4,-.8,.8,-.8c.4,0,.7,.4,.7,.8c0,.4,-.3,.7,-.7,.7c-.4,0,-.8,-.3,-.8,-.7Z" class="g8_283"/>
<path d="M688.1,293.1c0,-.4,.3,-.7,.7,-.7c.4,0,.8,.3,.8,.7c0,.5,-.4,.8,-.8,.8c-.4,0,-.7,-.3,-.7,-.8Z" class="g7_283"/>
<path d="M688.1,293.1c0,-.4,.3,-.7,.7,-.7c.4,0,.8,.3,.8,.7c0,.5,-.4,.8,-.8,.8c-.4,0,-.7,-.3,-.7,-.8Z" class="g8_283"/>
<path d="M703.5,293.7c0,-.4,.3,-.8,.7,-.8c.5,0,.8,.4,.8,.8c0,.4,-.3,.7,-.8,.7c-.4,0,-.7,-.3,-.7,-.7Z" class="g7_283"/>
<path d="M703.5,293.7c0,-.4,.3,-.8,.7,-.8c.5,0,.8,.4,.8,.8c0,.4,-.3,.7,-.8,.7c-.4,0,-.7,-.3,-.7,-.7Z" class="g8_283"/>
<path d="M718.6,294.1c0,-.4,.3,-.8,.8,-.8c.4,0,.7,.4,.7,.8c0,.4,-.3,.8,-.7,.8c-.5,0,-.8,-.4,-.8,-.8Z" class="g7_283"/>
<path d="M718.6,294.1c0,-.4,.3,-.8,.8,-.8c.4,0,.7,.4,.7,.8c0,.4,-.3,.8,-.7,.8c-.5,0,-.8,-.4,-.8,-.8Z" class="g8_283"/>
<path d="M733.9,294.5c0,-.4,.3,-.7,.7,-.7c.5,0,.8,.3,.8,.7c0,.5,-.3,.8,-.8,.8c-.4,0,-.7,-.3,-.7,-.8Z" class="g7_283"/>
<path d="M733.9,294.5c0,-.4,.3,-.7,.7,-.7c.5,0,.8,.3,.8,.7c0,.5,-.3,.8,-.8,.8c-.4,0,-.7,-.3,-.7,-.8Z" class="g8_283"/>
<path d="M749.3,294.6c0,-.4,.3,-.8,.8,-.8c.4,0,.7,.4,.7,.8c0,.4,-.3,.8,-.7,.8c-.5,0,-.8,-.4,-.8,-.8Z" class="g7_283"/>
<path d="M749.3,294.6c0,-.4,.3,-.8,.8,-.8c.4,0,.7,.4,.7,.8c0,.4,-.3,.8,-.7,.8c-.5,0,-.8,-.4,-.8,-.8Z" class="g8_283"/>
<path d="M764.6,295.1c0,-.5,.3,-.8,.8,-.8c.4,0,.7,.3,.7,.8c0,.4,-.3,.7,-.7,.7c-.5,0,-.8,-.3,-.8,-.7Z" class="g7_283"/>
<path d="M764.6,295.1c0,-.5,.3,-.8,.8,-.8c.4,0,.7,.3,.7,.8c0,.4,-.3,.7,-.7,.7c-.5,0,-.8,-.3,-.8,-.7Z" class="g8_283"/>
<path d="M779.9,295.4c0,-.4,.3,-.7,.7,-.7c.4,0,.8,.3,.8,.7c0,.5,-.4,.8,-.8,.8c-.4,0,-.7,-.3,-.7,-.8Z" class="g7_283"/>
<path d="M779.9,295.4c0,-.4,.3,-.7,.7,-.7c.4,0,.8,.3,.8,.7c0,.5,-.4,.8,-.8,.8c-.4,0,-.7,-.3,-.7,-.8Z" class="g8_283"/>
<path d="M795,295.9c0,-.4,.3,-.7,.8,-.7c.4,0,.7,.3,.7,.7c0,.5,-.3,.8,-.7,.8c-.5,0,-.8,-.3,-.8,-.8Z" class="g7_283"/>
<path d="M795,295.9c0,-.4,.3,-.7,.8,-.7c.4,0,.7,.3,.7,.7c0,.5,-.3,.8,-.7,.8c-.5,0,-.8,-.3,-.8,-.8Z" class="g8_283"/>
<path d="M810.1,296.3c0,-.4,.4,-.8,.8,-.8c.4,0,.7,.4,.7,.8c0,.4,-.3,.7,-.7,.7c-.4,0,-.8,-.3,-.8,-.7Z" class="g7_283"/>
<path d="M810.1,296.3c0,-.4,.4,-.8,.8,-.8c.4,0,.7,.4,.7,.8c0,.4,-.3,.7,-.7,.7c-.4,0,-.8,-.3,-.8,-.7Z" class="g8_283"/>
<path d="M825.6,296.9c0,-.4,.3,-.7,.7,-.7c.4,0,.8,.3,.8,.7c0,.5,-.4,.8,-.8,.8c-.4,0,-.7,-.3,-.7,-.8Z" class="g7_283"/>
<path d="M825.6,296.9c0,-.4,.3,-.7,.7,-.7c.4,0,.8,.3,.8,.7c0,.5,-.4,.8,-.8,.8c-.4,0,-.7,-.3,-.7,-.8Z" class="g8_283"/>
<path d="M836.9,297.5c0,-.5,.3,-.8,.7,-.8c.4,0,.8,.3,.8,.8c0,.4,-.4,.7,-.8,.7c-.4,0,-.7,-.3,-.7,-.7Z" class="g7_283"/>
<path d="M836.9,297.5c0,-.5,.3,-.8,.7,-.8c.4,0,.8,.3,.8,.8c0,.4,-.4,.7,-.8,.7c-.4,0,-.7,-.3,-.7,-.7Z" class="g8_283"/>
<path d="M397.2,371.1V258" class="g4_283"/>
<path d="M560.6,454.7h17.3" class="g9_283"/>
<path d="M345.7,541c0,0,-3.1,0,-3.1,3.1v83.3c0,0,0,3,3.1,3H875.1c0,0,3,0,3,-3V544.1c0,0,0,-3.1,-3,-3.1Z" class="g0_283"/>
<path d="M358.8,550.4c0,0,-1.5,0,-1.5,1.5v14.2c0,0,0,1.5,1.5,1.5H373c0,0,1.5,0,1.5,-1.5V551.9c0,0,0,-1.5,-1.5,-1.5H358.8Z" class="g1_283"/>
<path d="M345.7,541c0,0,-3.1,0,-3.1,3.1v83.3c0,0,0,3,3.1,3H875.1c0,0,3,0,3,-3V544.1c0,0,0,-3.1,-3,-3.1H345.7Z" class="g2_283"/>
<path d="M345.7,739.7c0,0,-3.1,0,-3.1,3v297.2c0,0,0,3,3.1,3H875.1c0,0,3,0,3,-3V742.7c0,0,0,-3,-3,-3Z" class="g0_283"/>
<path d="M500.1,963.6h17.5m20.4,0h42.2" class="g9_283"/>
<path d="M345.7,739.7c0,0,-3.1,0,-3.1,3v297.2c0,0,0,3,3.1,3H875.1c0,0,3,0,3,-3V742.7c0,0,0,-3,-3,-3H345.7Z" class="g2_283"/>
<path d="M359.6,449.5c0,0,-1.5,0,-1.5,1.6v14.1c0,0,0,1.5,1.5,1.5h14.1c0,0,1.6,0,1.6,-1.5V451.1c0,0,0,-1.6,-1.6,-1.6H359.6Z" class="g1_283"/>
</svg>