<?xml version="1.0" encoding="UTF-8" standalone="no"?>
<!DOCTYPE svg PUBLIC "-//W3C//DTD SVG 1.1//EN"
"http://www.w3.org/Graphics/SVG/1.1/DTD/svg11.dtd">
<svg viewBox="0 0 931 1096" version="1.1" xmlns="http://www.w3.org/2000/svg" xmlns:xlink="http://www.w3.org/1999/xlink">
<defs>
<clipPath id="c0_205"><path d="M532.4,165.7V149.9h97v15.8Z"/></clipPath>
<clipPath id="c1_205"><path d="M659.9,199.3V183.5h29.8v15.8Z"/></clipPath>
<clipPath id="c2_205"><path d="M556.2,252.3V223.6h81.5v28.7Z"/></clipPath>
<clipPath id="c3_205"><path d="M681.2,252.3V223.5H792.4v28.8Z"/></clipPath>
<clipPath id="c4_205"><path d="M531.7,285.9V257.2H681.2v28.7Z"/></clipPath>
<clipPath id="c5_205"><path d="M527,373.9V341.2h76.3v32.7Z"/></clipPath>
<clipPath id="c6_205"><path d="M745,373.9V337.3h30.1v36.6Z"/></clipPath>
<clipPath id="c7_205"><path d="M534.1,520.3v-32H651.3v32Z"/></clipPath>
<clipPath id="c8_205"><path d="M534.1,556.5V523.7h129v32.8Z"/></clipPath>
<clipPath id="c9_205"><path d="M715.1,557.4V521H830.9v36.4Z"/></clipPath>
<clipPath id="ca_205"><path d="M534.1,593.7V560.8H725v32.9Z"/></clipPath>
<clipPath id="cb_205"><path d="M534.1,645.2V614.7H665v30.5Z"/></clipPath>
<clipPath id="cc_205"><path d="M534.1,682.7V649.9H695.4v32.8Z"/></clipPath>
<clipPath id="cd_205"><path d="M534.1,792.8V756.3H804.8v36.5Z"/></clipPath>
<clipPath id="ce_205"><path d="M534.1,865.1V833.6H642.2v31.5Z"/></clipPath>
<clipPath id="cf_205"><path d="M509.5,900.6V867.7H750.2v32.9Z"/></clipPath>
<clipPath id="cg_205"><path d="M155.1,273.6V242.5H259.2v31.1Z"/></clipPath>
<clipPath id="ch_205"><path d="M266.4,273.6V240.7H383.1v32.9Z"/></clipPath>
<clipPath id="ci_205"><path d="M305.3,471.3V438.4H417.5v32.9Z"/></clipPath>
<clipPath id="cj_205"><path d="M130.6,494.3V464.4H241.3v29.9Z"/></clipPath>
<clipPath id="ck_205"><path d="M133,566.9V535.8h86.3v31.1Z"/></clipPath>
<clipPath id="cl_205"><path d="M125.9,799.6V766.7h146v32.9Z"/></clipPath>
<clipPath id="cm_205"><path d="M323.9,797.3V768.5H430v28.8Z"/></clipPath>
<clipPath id="cn_205"><path d="M133,837.8V804.9H281.6v32.9Z"/></clipPath>
<style type="text/css"><![CDATA[
.g0_205{
fill: none;
stroke: #241F1F;
stroke-width: 0.481;
stroke-miterlimit: 10;
}
.g1_205{
fill: none;
stroke: #241F1F;
stroke-width: 0.687;
stroke-miterlimit: 10;
}
.g2_205{
fill: none;
stroke: #241F1F;
stroke-width: 0.412;
stroke-miterlimit: 10;
}
.g3_205{
fill: none;
stroke: #241F1F;
stroke-width: 0.453;
stroke-miterlimit: 10;
}
.g4_205{
fill: none;
stroke: #241F1F;
stroke-width: 0.537;
stroke-linecap: round;
stroke-linejoin: round;
}
.g5_205{
fill: none;
stroke: #241F1F;
stroke-width: 0.766;
stroke-miterlimit: 3;
}
.g6_205{
fill: none;
stroke: #241F1F;
stroke-width: 0.997;
stroke-linecap: round;
stroke-linejoin: round;
}
.g7_205{
fill: #241F1F;
}
.g8_205{
fill: none;
stroke: #241F1F;
stroke-width: 0.383;
stroke-linecap: round;
stroke-linejoin: round;
}
.g9_205{
fill: none;
stroke: #B5B5B6;
stroke-width: 0.918;
stroke-linejoin: round;
}
.ga_205{
fill: none;
stroke: #241F1F;
stroke-width: 0.918;
stroke-linejoin: round;
}
.gb_205{
fill: none;
stroke: #241F1F;
stroke-width: 0.534;
stroke-linecap: round;
stroke-linejoin: round;
}
.gc_205{
fill: none;
stroke: #241F1F;
stroke-width: 0.488;
stroke-linecap: round;
stroke-linejoin: round;
}
.gd_205{
fill: none;
stroke: #241F1F;
stroke-width: 0.765;
stroke-miterlimit: 3;
}
.ge_205{
fill: none;
stroke: #B5B5B6;
stroke-width: 0.915;
stroke-linejoin: round;
}
.gf_205{
fill: none;
stroke: #241F1F;
stroke-width: 0.915;
stroke-linejoin: round;
}
.gg_205{
fill: none;
stroke: #241F1F;
stroke-width: 0.915;
stroke-linejoin: round;
stroke-dasharray: 7,3;
}
.gh_205{
fill: none;
stroke: #241F1F;
stroke-width: 0.487;
stroke-linecap: round;
stroke-linejoin: round;
}
.gi_205{
fill: none;
stroke: #241F1F;
stroke-width: 0.762;
stroke-miterlimit: 3;
}
.gj_205{
fill: none;
stroke: #241F1F;
stroke-width: 0.762;
}
.gk_205{
fill: none;
stroke: #241F1F;
stroke-width: 0.533;
stroke-linecap: square;
stroke-miterlimit: 10;
}
.gl_205{
fill: none;
stroke: #241F1F;
stroke-width: 0.533;
stroke-linecap: round;
stroke-linejoin: round;
}
.gm_205{
fill: none;
stroke: #241F1F;
stroke-width: 0.456;
stroke-miterlimit: 10;
}
.gn_205{
fill: none;
stroke: #241F1F;
stroke-width: 0.991;
stroke-linecap: square;
stroke-miterlimit: 10;
}
.go_205{
fill: none;
stroke: #241F1F;
stroke-width: 0.381;
stroke-linecap: round;
stroke-linejoin: round;
}
]]></style>
</defs>
<path d="M612.6,123.3h4.8" class="g0_205"/>
<path clip-path="url(#c0_205)" d="M551.3,150.3h8.2m62,0h8.2" class="g1_205"/>
<path d="M628.7,175.3h4.8m122.7,0h5.5M534.3,192.1h4.8m63.8,0h4.8" class="g0_205"/>
<path clip-path="url(#c1_205)" d="M681.8,183.9h8.3" class="g1_205"/>
<path d="M574.5,211.9h9.6m46.9,0h9.6" class="g0_205"/>
<path clip-path="url(#c2_205)" d="M604.7,238H638" class="g1_205"/>
<path clip-path="url(#c3_205)" d="M759.4,238h33.3" class="g1_205"/>
<path clip-path="url(#c4_205)" d="M624.7,271.6h56.8" class="g1_205"/>
<path clip-path="url(#c5_205)" d="M527.3,355.7h76.4" class="g1_205"/>
<path d="M546.9,358.5h54.7" class="g1_205"/>
<path d="M764.8,337.5h3.7" class="g2_205"/>
<path clip-path="url(#c6_205)" d="M745.3,355.7h30.1" class="g1_205"/>
<path d="M765.1,358.5h8.3M574.9,410.7h60.7m-40.9,2h39.6" class="g1_205"/>
<path d="M579.2,476.2H584" class="g0_205"/>
<path clip-path="url(#c7_205)" d="M565.1,502.8h86.6" class="g1_205"/>
<path d="M585.7,504.9H594" class="g1_205"/>
<path clip-path="url(#c8_205)" d="M580.8,539.9h82.6" class="g1_205"/>
<path d="M824.8,521.2h4.3" class="g3_205"/>
<path clip-path="url(#c9_205)" d="M759.6,539.9h71.7" class="g1_205"/>
<path d="M796.9,542h7.2" class="g1_205"/>
<path clip-path="url(#ca_205)" d="M583.3,577h142" class="g1_205"/>
<path clip-path="url(#cb_205)" d="M639.2,631h26.2" class="g1_205"/>
<path d="M565.1,666.1h60.8" class="g1_205"/>
<path clip-path="url(#cc_205)" d="M649.7,666.1h46" class="g1_205"/>
<path clip-path="url(#cd_205)" d="M739.3,756.6h63.8m-237.2,18H805.2" class="g1_205"/>
<path d="M662.1,777.4h63.8" class="g1_205"/>
<path clip-path="url(#ce_205)" d="M565.1,846.8h77.5" class="g1_205"/>
<path d="M585.7,849.7h54.8" class="g1_205"/>
<path clip-path="url(#cf_205)" d="M542.1,884H750.6" class="g1_205"/>
<path d="M582.6,926.6h4.8" class="g0_205"/>
<path d="M683.9,994H816.4m-66.2,29.2V936.3M706,992.5v3.1m88.4,-3.1v3.1M748.7,974.8h3m20.6,17.7v3.1m-44.2,-3.1v3.1m20.6,17.9h3m-3,-58h3" class="g4_205"/>
<path d="M690.3,936.1H810c3.6,0,6.5,2.9,6.5,6.5v74.1c0,3.6,-2.9,6.5,-6.5,6.5H690.3c-3.5,0,-6.4,-2.9,-6.4,-6.5V942.6c0,-3.6,2.9,-6.5,6.4,-6.5Z" class="g5_205"/>
<path d="M684,992.2c20.4,-.7,40.3,-6.5,66.2,-18c26.5,-11.8,46,-16.9,66.4,-17.6" class="g6_205"/>
<path d="M684,1003.8L816.6,945" class="g4_205"/>
<path d="M748.9,974.5c0,-.7,.6,-1.4,1.3,-1.4c.8,0,1.4,.7,1.4,1.4c0,.8,-.6,1.4,-1.4,1.4c-.7,0,-1.3,-.6,-1.3,-1.4Z" class="g7_205"/>
<path d="M748.9,974.5c0,-.7,.6,-1.4,1.3,-1.4c.8,0,1.4,.7,1.4,1.4c0,.8,-.6,1.4,-1.4,1.4c-.7,0,-1.3,-.6,-1.3,-1.4Z" class="g8_205"/>
<path d="M157.3,178.4l.5,.1h.8l.5,.1h1.3l.5,.1h.4l.5,.1h.8l.5,.1h.8l.5,.1h.4l.5,.1h.9l.4,.1h.4l.5,.1h.4l.5,.1h.4l.4,.1h.5l.4,.1l.5,.1h.4l.5,.1h.4l.4,.1l.5,.1h.4l.5,.1l.4,.1h.5l.4,.1l.5,.1l.4,.1h.4l.5,.1l.4,.1l.5,.1l.4,.1l.5,.1h.4l.4,.1l.5,.1l.4,.1l.4,.1l.5,.1l.4,.1l.5,.1l.4,.1l.4,.1l.5,.1l.4,.2l.5,.1l.4,.1l.5,.1l.4,.1l.5,.2l.4,.1l.4,.1l.5,.1l.4,.2l.5,.1l.4,.2l.5,.1l.4,.1l.4,.2l.5,.1l.4,.2l.4,.1l.5,.2l.4,.2l.5,.1l.4,.2l.5,.2l.4,.1l.5,.2l.4,.2l.5,.2l.4,.1l.4,.2l.5,.2l.4,.2l.4,.2l.5,.2l.4,.2l.5,.2l.4,.2l.5,.2l.4,.3l.4,.2l.5,.2l.4,.2l.5,.2l.4,.3l.4,.2l.5,.2l.4,.3l.5,.2l.4,.2l.4,.3l.5,.2l.4,.3l.5,.2l.4,.3l.5,.2l.4,.3l.5,.3l.4,.2l.4,.3l.5,.2l.4,.3l.4,.3l.5,.2l.4,.3l.5,.3l.4,.2l.5,.3l1.7,1.1l.5,.2l.4,.3l.5,.3l.4,.3l.5,.2l.4,.3l.4,.3l.5,.2l.4,.3l.4,.2l.5,.3l.4,.2l.5,.3l.4,.2l.4,.2l.5,.3l.4,.2l.5,.2l.4,.3l.5,.2l.4,.2l.5,.2l.4,.2l.5,.2l.4,.1l.4,.2l.5,.2l.4,.1l.5,.2l.4,.1l.4,.1l.5,.1l.4,.1l.4,.1l.5,.1l.5,.1h.4l.5,.1h1.7l.5,-.1h.4l.4,-.1l.5,-.1l.4,-.1l.5,-.1l.4,-.2l.5,-.1l.4,-.2l.4,-.2l.5,-.2l.4,-.3l.4,-.2l.5,-.3l.4,-.3l.5,-.3l.4,-.4l.5,-.3l.4,-.4l.4,-.4l.5,-.4l.4,-.5l.5,-.5l.4,-.5l.4,-.5l.5,-.5l.4,-.6l.5,-.5l.4,-.7l.4,-.5l.5,-.7l.5,-.7l.4,-.6l.4,-.6l.5,-.8l.4,-.7l.5,-.7l.4,-.7l.4,-.7l.5,-.8l.4,-.8l.4,-.7l1,-1.5l.4,-.8l.4,-.7l.5,-.8l.4,-.7l.5,-.7l.4,-.7l.4,-.7l.5,-.7l.4,-.7l.4,-.6l.5,-.6l.5,-.6l.4,-.5l.4,-.5l.5,-.5l.4,-.4l.4,-.4l.5,-.3l.4,-.3l.5,-.2l.4,-.1l.5,-.1h.8l.5,.2l.4,.2l.5,.3l.4,.3l.5,.5l.4,.5l.5,.6l.4,.6l.4,.8l.5,.8l.4,.9l.4,.9l.5,1.1l.4,1.1l.5,1.1l.4,1.1l.5,1.2l.4,1.2l.4,1.1l.5,1.2l.4,1l.5,1.1l.4,.9l.5,.8l.4,.5l.5,.5l.4,.1l.4,-.2l.5,-.5l.4,-.9l.5,-1.4l.4,-2.2l.5,-2.6L278,182l.4,-4.4l.5,-4.8l.4,-6.1l.4,-7.3l.5,-9.2l.4,-9.6l.3,-6.5" class="g9_205"/>
<path d="M157.3,178.1l.5,.1H160l.4,.1h1.4l.4,.1h1.3l.4,.1h1.4l.4,.1H167l.5,.1h.9l.4,.1h.9l.4,.1h.9l.5,.1h.8l.5,.1h.4l.5,.1h.9l.4,.1h.5l.4,.1h.4l.5,.1h.9l.4,.1l.5,.1h.8l.5,.1h.4l.4,.1h.5l.4,.1h.5l.4,.1l.4,.1h.5l.4,.1h.5l.4,.1l.5,.1h.4l.5,.1h.4l.4,.1l.5,.1h.4l.5,.1l.4,.1h.5l.4,.1l.4,.1h.5l.4,.1l.4,.1h.5l.4,.1l.5,.1l.4,.1h.5l.4,.1l.5,.1h.4l.5,.1l.4,.1l1.7,.3h.5l.4,.1l.5,.1l.4,.1h.5l.4,.1l.4,.1l.5,.1h.4l.5,.1h.4l.4,.1l.5,.1h.4l.5,.1l.4,.1h.4l.5,.1l.4,.1h.9l.5,.1l.4,.1h.9l.4,.1h.5l.4,.1h1.3l.5,.1h3.5l.5,-.1h.9l.4,-.1h.4l.5,-.1h.4l.4,-.1l.5,-.1h.4l.5,-.1l.4,-.1l.4,-.1l.5,-.2l.4,-.1l.5,-.1l.4,-.1l.5,-.2l.4,-.2l.5,-.1l.4,-.2l.5,-.2l.4,-.2l.4,-.2l.5,-.2l.4,-.3l.5,-.2l.4,-.2l.4,-.3l.5,-.3l.4,-.3l.4,-.3l.5,-.3l.5,-.3l.4,-.3l.5,-.4l.4,-.3l.4,-.4l.5,-.4l.4,-.4l.5,-.4l.4,-.4l.4,-.4l.5,-.4l.4,-.5l.5,-.5l.4,-.4l.5,-.5l.4,-.5l.4,-.4l.5,-.6l.4,-.5l.4,-.5l.5,-.5l.4,-.5l.5,-.6l.4,-.4l.5,-.6l.8,-1.1l.5,-.5l.4,-.5l.5,-.6l.4,-.5l.4,-.5l.5,-.5l.4,-.5l.5,-.4l.4,-.5l.4,-.5l.5,-.4l.5,-.5l.4,-.3l.4,-.4l.5,-.3l.4,-.4l.5,-.2l.4,-.3l.4,-.2l.5,-.2l.4,-.1l.4,-.1h1.4l.4,.1l.5,.2l.4,.2l.5,.4l.4,.3l.4,.4l.5,.6l.4,.6l.4,.6l.5,.7l.5,.9l.4,.8l.4,1l.5,1.1l.4,1.1l.4,1.2l.5,1.5l.4,1.3l.5,1.6l.4,1.4l.5,1.7l.4,1.7l.4,1.7l.5,1.8l.4,2l.5,1.9l.4,2l.5,2l.4,1.8l.5,2.1l.4,1.8l.4,1.9l.5,1.8l.4,1.8l.4,1.5l.5,1.5l.4,1.1l.5,1.1l.4,.6l.5,.4h.4l.4,-.5l.5,-1l.4,-1.5l.5,-2.2l.4,-2.9l.5,-4l.4,-4.4l.5,-6l.4,-6.9l.4,-8.2l.5,-10.1l.4,-10.7l.5,-12.7v-1.6" class="ga_205"/>
<path d="M265.7,199.1h3.5m-3.5,-43.3h3.5" class="gb_205"/>
<path d="M278.5,175.7v3.5m-22.1,-3.5v3.5m-11,-3.5v3.5m-11,-3.5v3.5m-11,-3.5v3.5m-11,-3.5v3.5m-11,-3.5v3.5m-11,-3.5v3.5m-11.1,-3.5v3.5m-11,-3.5v3.5" class="gc_205"/>
<path d="M157.3,177.5H289.5" class="gb_205"/>
<path d="M162.8,134.1H284c3,0,5.5,2.5,5.5,5.5v75.7c0,3,-2.5,5.5,-5.5,5.5H162.8c-3,0,-5.5,-2.5,-5.5,-5.5V139.6c0,-3,2.5,-5.5,5.5,-5.5Z" class="gd_205"/>
<path d="M267.5,134.1v86.7" class="gb_205"/>
<path clip-path="url(#cg_205)" d="M203.1,257h56.4" class="g1_205"/>
<path clip-path="url(#ch_205)" d="M317.4,257h66" class="g1_205"/>
<path d="M151.5,337.4h1.4l.4,.1h3.5l.5,.1h2.6l.5,.1h2.2l.4,.1h1.8l.4,.1H167l.4,.1h1.3l.5,.1h1.3l.5,.1h1.3l.4,.1h.9l.4,.1h.9l.5,.1h.8l.5,.1h.4l.5,.1h.4l.4,.1h.9l.5,.1h.4l.5,.1h.4l.4,.1l.5,.1h.4l.5,.1h.4l.4,.1l.5,.1h.4l.5,.1l.4,.1l.4,.1h.5l.4,.1l.5,.1l.4,.1l.4,.1l.5,.1l.4,.1l.5,.1l.4,.1l.4,.1l.5,.1l.4,.1l.5,.2l.4,.1l.5,.1l.4,.2l.4,.1l.5,.2l.4,.1l.4,.2l.5,.2l.4,.2l.5,.2l.4,.2l.4,.2l.5,.2l.4,.2l.5,.3l.4,.2l.4,.3l.5,.2l.4,.3l.5,.4l.4,.3l.5,.3l.4,.4l.5,.3l.4,.4l.4,.4l.5,.4l.4,.5l.4,.4l.5,.5l.4,.5l.5,.6l.4,.5l.4,.6l.5,.6l.4,.6l.5,.6l.4,.7l.5,.7l.4,.7l.5,.8l.4,.7l.5,.8l.8,1.4l.4,.8l.5,.7l.4,.7l.5,.7l.4,.7l.5,.6l.4,.5l.4,.5l.5,.5l.4,.3l.4,.3l.3,.1l.2,.1h.2l.2,.1h.5l.2,-.1h.2l.2,-.1l.3,-.1l.4,-.3l.4,-.3l.5,-.5l.4,-.5l.5,-.5l.4,-.6l.4,-.7l.5,-.7l.4,-.7l.5,-.7l.4,-.7l.9,-1.6l.4,-.7l.5,-.8l.4,-.7l.5,-.7l.4,-.7l.5,-.7l.4,-.6l.5,-.6l.4,-.6l.4,-.6l.4,-.5l.5,-.6l.4,-.5l.5,-.5l.4,-.4l.4,-.5l.5,-.4l.5,-.4l.4,-.4l.4,-.4l.5,-.3l.4,-.4l.4,-.2l.5,-.4l.4,-.3l.5,-.2l.4,-.3l.4,-.2l.5,-.3l.4,-.2l.5,-.2l.4,-.3l.5,-.2l.4,-.1l.5,-.2l.4,-.2l.4,-.2l.5,-.1l.4,-.2l.4,-.1l.5,-.2l.4,-.1l.5,-.1l.4,-.2l.4,-.1l.5,-.1l.4,-.1l.5,-.1l.4,-.1l.5,-.1l.4,-.1l.4,-.1l.5,-.1l.4,-.1l.5,-.1h.4l.4,-.1l.5,-.1l.4,-.1h.4l.5,-.1l.5,-.1h.4l.4,-.1h.5l.4,-.1l.4,-.1h.5l.4,-.1h.5l.4,-.1h.9l.4,-.1h.5l.4,-.1h.5l.4,-.1h.9l.4,-.1h.9l.4,-.1h.9l.5,-.1H264l.4,-.1h1.4l.4,-.1h1.3l.4,-.1h1.8l.4,-.1h1.8l.5,-.1h2.1l.5,-.1h2.7l.4,-.1h3.5l.5,-.1h1.3" class="ge_205"/>
<path d="M151.5,351.3h3.6l.4,.1h5.8l.4,.1h3.5l.5,.1h3l.5,.1H171l.4,.1h1.7l.5,.1h1.3l.5,.1h1.3l.4,.1h.9l.4,.1h.9l.5,.1h.4l.5,.1h.8l.5,.1h.4l.5,.1h.4l.4,.1h.5l.4,.1l.5,.1h.4l.4,.1l.5,.1h.4l.5,.1l.4,.1l.4,.1l.5,.1l.4,.1l.5,.1l.4,.1l.4,.1l.5,.1l.4,.1l.5,.1l.4,.2l.5,.1l.4,.2l.4,.1l.5,.2l.4,.2l.4,.1l.5,.2l.4,.2l.5,.3l.4,.2l.4,.2l.5,.3l.4,.2l.5,.3l.4,.3l.4,.3l.5,.3l.4,.4l.5,.3l.4,.4l.5,.4l.4,.4l.5,.5l.4,.4l.4,.5l.5,.4l.4,.6l.4,.5l.5,.5l.4,.6l.5,.6l.4,.5l.4,.6l.5,.6l.4,.5l.5,.6l.4,.5l.5,.5l.4,.4l.5,.4l.4,.3l.2,.1l.3,.1l.2,.1h.4l.2,-.1l.2,-.1l.2,-.1l.5,-.3l.4,-.6l.5,-.8l.4,-1l.5,-1.2l.4,-1.4l.4,-1.5l.5,-1.9l.4,-1.9l.4,-2.1l.5,-2.2l.4,-2.5l.5,-2.1l.4,-2.5l.5,-2.1l.4,-2.2l.4,-1.8l.5,-1.9l.4,-1.6l.5,-1.5l.4,-1.1l.4,-1l.5,-.8l.4,-.5l.5,-.4l.2,-.1l.2,-.1l.2,-.1h.5l.2,.1l.2,.1l.2,.1l.5,.3l.4,.4l.5,.4l.4,.5l.5,.5l.4,.6l.5,.5l.4,.6l.4,.6l.4,.5l.5,.6l.4,.5l.5,.6l.4,.5l.4,.5l.5,.5l.5,.5l.4,.5l.4,.4l.5,.4l.4,.4l.4,.4l.5,.3l.4,.4l.5,.3l.4,.3l.4,.3l.5,.3l.4,.2l.5,.3l.4,.2l.5,.3l.4,.2l.5,.2l.4,.2l.4,.1l.5,.2l.4,.2l.4,.1l.5,.2l.4,.1l.5,.2l.4,.1l.4,.1l.5,.1l.4,.1l.5,.1l.4,.1l.5,.1l.4,.1l.4,.1l.5,.1l.4,.1h.5l.4,.1l.4,.1h.5l.4,.1l.4,.1h.5l.5,.1h.4l.4,.1h.5l.4,.1h.4l.5,.1h.9l.4,.1h.9l.4,.1h.9l.5,.1h.8l.5,.1h1.7l.5,.1h1.8l.4,.1h1.8l.4,.1h3.1l.4,.1h3.5l.5,.1h5.7l.5,.1h3.5" class="gf_205"/>
<path d="M151.5,351.2h7.1l.4,.1h6.2l.5,.1h3.9l.5,.1h1.7l.5,.1h2.2l.4,.1h1.3l.5,.1h.9l.4,.1h.9l.4,.1h.9l.5,.1h.4l.4,.1h.5l.4,.1h.5l.4,.1h.4l.5,.1l.4,.1h.5l.4,.1l.4,.1l.5,.1h.4l.5,.2h.4l.4,.1l.5,.1l.4,.2l.5,.1l.4,.1l.4,.1l.5,.2l.4,.1l.5,.2l.4,.2l.5,.2l.4,.1l.4,.2l.5,.2l.4,.3l.4,.2l.5,.3l.4,.2l.5,.3l.4,.3l.4,.3l.5,.3l.4,.4l.5,.3l.4,.4l.4,.4l.5,.4l.4,.4l.5,.5l.4,.4l.5,.5l.4,.5l.5,.5l.4,.5l.4,.5l.5,.4l.4,.5l.4,.4l.5,.4l.4,.3l.5,.2l.4,.1l.4,.1l.3,-.1l.2,-.1l.2,-.1l.2,-.2l.5,-.5l.4,-.8l.5,-1.1l.4,-1.4l.5,-1.9l.4,-2.2l.5,-2.7l.4,-2.9l.4,-3.7l.4,-3.9l.5,-4.4l.4,-4.8l.5,-5.3l.4,-5.3l.5,-5.5l.4,-5.4l.4,-4.7l.5,-4.8l.4,-3.7l.4,-3.2l.5,-2.1l.2,-.8l.2,-.4l.3,-.1l.2,.1l.2,.4l.2,.8l.5,2.1l.4,3.2l.4,3.6l.5,4.7l.4,5.1l.5,5.3l.4,5.4l.4,5.1l.5,5.3l.4,4.8l.5,4.6l.4,3.8l.5,3.7l.4,3.1l.4,2.6l.5,2.3l.4,1.7l.5,1.4l.4,1.2l.5,.8l.4,.5l.2,.2l.3,.1l.2,.1l.2,.1l.4,-.1l.4,-.1l.5,-.2l.4,-.3l.5,-.4l.4,-.4l.4,-.5l.5,-.4l.5,-.5l.4,-.5l.4,-.5l.5,-.5l.4,-.5l.4,-.4l.5,-.5l.4,-.4l.5,-.4l.4,-.4l.4,-.4l.5,-.3l.4,-.4l.5,-.3l.4,-.3l.5,-.3l.4,-.3l.5,-.3l.4,-.2l.4,-.2l.5,-.3l.4,-.2l.4,-.2l.5,-.2l.4,-.1l.5,-.2l.4,-.2l.4,-.1l.5,-.2l.4,-.1l.5,-.1l.4,-.1l.5,-.2l.4,-.1l.4,-.1l.5,-.1h.4l.5,-.1l.4,-.1l.4,-.1l.5,-.1h.4l.4,-.1l.5,-.1h.5l.4,-.1h.4l.5,-.1h.4l.4,-.1h.5l.4,-.1h.9l.5,-.1h.8l.5,-.1h.9l.4,-.1H260l.4,-.1h2.3l.4,-.1h1.8l.4,-.1h4l.4,-.1h6.2l.4,-.1h7.1" class="gg_205"/>
<path d="M215.8,365.5h3.4m-3.4,-28.9h3.4m-3.4,-14.4h3.4m-3.4,-14.4h3.4m31.2,41.5v3.5m-65.9,-3.5v3.5m54.9,-3.5v3.5m-65.9,-3.5v3.5m54.9,-3.5v3.5m-65.9,-3.5v3.5m98.9,-3.5v3.5m-65.9,-3.5v3.5m76.9,-3.5v3.5m-65.9,-3.5v3.5" class="gh_205"/>
<path d="M151.5,351.1H283.4m-65.9,28.8V293.4" class="gb_205"/>
<path d="M157,293.4H277.9c3,0,5.5,2.4,5.5,5.5v75.5c0,3,-2.5,5.5,-5.5,5.5H157c-3,0,-5.5,-2.5,-5.5,-5.5V298.9c0,-3.1,2.5,-5.5,5.5,-5.5Z" class="gi_205"/>
<path d="M133.3,408.1H138m154.7,0h11.1m50.1,18.3h4.8" class="g0_205"/>
<path clip-path="url(#ci_205)" d="M336.3,454h81.5" class="g1_205"/>
<path clip-path="url(#cj_205)" d="M161.7,480h80" class="g1_205"/>
<path d="M216.9,499.2h7" class="g1_205"/>
<path d="M230.6,507.4h4.8" class="g0_205"/>
<path d="M278.7,499.2h7" class="g1_205"/>
<path clip-path="url(#ck_205)" d="M133.4,550.3h86.2" class="g1_205"/>
<path clip-path="url(#cl_205)" d="M157,783H272.2" class="g1_205"/>
<path clip-path="url(#cm_205)" d="M372.7,783h57.6" class="g1_205"/>
<path clip-path="url(#cn_205)" d="M164.1,821.2H281.9" class="g1_205"/>
<path d="M182.1,850.1h4.8" class="g0_205"/>
<path d="M322.9,932.8c0,.7,-.6,1.4,-1.4,1.4c-.7,0,-1.4,-.7,-1.4,-1.4c0,-.8,.7,-1.4,1.4,-1.4c.8,0,1.4,.6,1.4,1.4Z" class="g7_205"/>
<path d="M322.9,932.8c0,.7,-.6,1.4,-1.4,1.4c-.7,0,-1.4,-.7,-1.4,-1.4c0,-.8,.7,-1.4,1.4,-1.4c.8,0,1.4,.6,1.4,1.4Z" class="gj_205"/>
<path d="M257.4,988.8l.8,-.7m0,0l2.8,-2.4m0,0l2.9,-2.5m0,0l2.7,-2.4m0,0l2.7,-2.3m0,0L272,976m0,0l2.8,-2.4m0,0l2.8,-2.4m0,0l2.9,-2.5m0,0l2.4,-2.2m0,0l2.9,-2.5m0,0l2.7,-2.3m0,0l2.9,-2.6m0,0l2.5,-2.2m0,0l3,-2.6m0,0l2.6,-2.3m0,0l2.9,-2.4m0,0l2.6,-2.3m0,0l2.7,-2.5m0,0l2.8,-2.4m0,0l2.8,-2.5m0,0l2.7,-2.2m0,0l2.7,-2.4m0,0l2.9,-2.5m0,0l2.6,-2.2m0,0l2.7,-2.5m0,0l2.8,-2.4m0,0l2.9,-2.5m0,0l2.6,-2.3m0,0l2.8,-2.7m0,0l2.8,-2.3m0,0l2.7,-2.3m0,0l2.6,-2.4m0,0l2.9,-2.5m0,0l2.6,-2.3m0,0l2.9,-2.4" class="gk_205"/>
<path d="M261.1,904H381.9c3,0,5.5,2.4,5.5,5.5v75.4c0,3.1,-2.5,5.5,-5.5,5.5H261.1c-3,0,-5.5,-2.4,-5.5,-5.5V909.5c0,-3.1,2.5,-5.5,5.5,-5.5Z" class="gi_205"/>
<path d="M319.7,988.5v2.1m-64.2,-29h2.1m-2.1,-28.8h2.1" class="gl_205"/>
<path d="M248.7,891h14" class="gm_205"/>
<path d="M259.7,990.1l1.3,-.3m0,0l2.9,-.8m0,0l2.7,-1m0,0l2.7,-1.5m0,0l2.7,-1.6m0,0l2.8,-1.9m0,0l2.8,-2.2m0,0l2.9,-2.6m0,0l2.4,-2.3m0,0l2.9,-2.9m0,0l2.7,-2.9m0,0l2.9,-3.3m0,0l2.5,-3m0,0l3,-3.5m0,0l2.6,-3.2m0,0l2.9,-3.4m0,0l2.6,-3.1m0,0l2.7,-3.3m0,0l2.8,-3.2m0,0l2.8,-3.2m0,0l2.7,-2.8m0,0l2.7,-2.7m0,0l2.9,-2.6m0,0l2.6,-2.1m0,0l2.7,-2.1m0,0l2.8,-1.7m0,0l2.9,-1.5m0,0l2.6,-.8m0,0l2.8,-.8m0,0l2.8,-.2m0,0l2.7,.2m0,0l2.6,.8m0,0l2.9,1.1m0,0l2.6,1.4m0,0l2.9,2.2m0,0l2.6,2.5m0,0l2.9,3.1m0,0l2.7,3.5m0,0l2.8,4m0,0l2.8,4.6m0,0l2.5,4.7m0,0l3,5.7m0,0l2.6,5.7m0,0l2.8,6.1m0,0l2.6,6.5m0,0l3,7.5m0,0l1.7,4.7" class="gn_205"/>
<path d="M296.1,927.1h6" class="go_205"/>
</svg>