<?xml version="1.0" encoding="UTF-8" standalone="no"?>
<!DOCTYPE svg PUBLIC "-//W3C//DTD SVG 1.1//EN"
"http://www.w3.org/Graphics/SVG/1.1/DTD/svg11.dtd">
<svg viewBox="0 0 931 1096" version="1.1" xmlns="http://www.w3.org/2000/svg" xmlns:xlink="http://www.w3.org/1999/xlink">
<defs>
<clipPath id="c0_405"><path d="M108.5,227.4V97.6h220V227.4Z"/></clipPath>
<clipPath id="c1_405"><path d="M108.5,496V360.3h220V496Z"/></clipPath>
<style type="text/css"><![CDATA[
.g0_405{
fill: none;
stroke: #241F1F;
stroke-width: 0.534;
stroke-miterlimit: 10;
}
.g1_405{
fill: #D0007A;
}
.g2_405{
fill: #E8F6FE;
}
.g3_405{
fill: none;
stroke: #241F1F;
stroke-width: 0.763;
stroke-miterlimit: 10;
}
.g4_405{
fill: #CFEDFC;
}
.g5_405{
fill: none;
stroke: #00AEEF;
stroke-width: 1.069;
stroke-linejoin: round;
}
.g6_405{
fill: none;
stroke: #241F1F;
stroke-width: 0.611;
stroke-miterlimit: 3;
}
.g7_405{
fill: #241F1F;
}
.g8_405{
fill: none;
stroke: #241F1F;
stroke-width: 0.763;
stroke-miterlimit: 3;
stroke-dasharray: 10,4;
}
.g9_405{
fill: none;
stroke: #241F1F;
stroke-width: 0.763;
stroke-miterlimit: 3;
stroke-dasharray: 6,3;
}
.ga_405{
fill: none;
stroke: #241F1F;
stroke-width: 0.763;
stroke-linejoin: round;
}
]]></style>
</defs>
<path d="M469.2,305.7h5.3" class="g0_405"/>
<path d="M343.8,543c0,0,-1.6,0,-1.6,1.5v9.2c0,0,0,1.5,1.6,1.5h9.1c0,0,1.6,0,1.6,-1.5v-9.2c0,0,0,-1.5,-1.6,-1.5Z" class="g1_405"/>
<path d="M417.1,806.2H519.5v27.5H417.1Zm0,27.5H519.5v27.5H417.1Z" class="g2_405"/>
<path d="M416.7,806.2H519.5M417.1,833.3V806.5m-.4,27.2H519.5M417.1,860.8V834m-.4,27.2H519.5m0,-55h41.2m-41.2,27.1V806.5m41.2,-.3H602m-41.3,27.1V806.5m41.3,-.3h41.2M602,833.3V806.5m41.2,-.3h41.3m-41.3,27.1V806.5m41.3,-.3h41.2m-41.2,27.1V806.5m41.2,-.3H767m-41.3,27.1V806.5m41.3,-.3h41.6M767,833.3V806.5m41.2,26.8V806.5M519.5,860.8V834m41.2,26.8V834M602,860.8V834m41.2,26.8V834m41.3,26.8V834m41.2,26.8V834M767,860.8V834m41.2,26.8V834M519.5,861.2h41.2m0,0H602m0,0h41.2m0,0h41.3m0,0h41.2m0,0H767m0,0h41.6M519.5,833.7h41.2m0,0H602m0,0h41.2m0,0h41.3m0,0h41.2m0,0H767m0,0h41.6" class="g3_405"/>
<path d="M420.9,932.2h94.7v27.5H420.9Zm0,27.5h94.7v27.5H420.9Z" class="g2_405"/>
<path d="M420.5,932.2h95.1m-94.7,27.1V932.6m-.4,27.1h95.1m-94.7,27.1V960.1m-.4,27.1h95.1m0,-55h41.3m-41.3,27.1V932.6m41.3,-.4h41.2m-41.2,27.1V932.6m41.2,-.4h41.3m-41.3,27.1V932.6m41.3,-.4h41.2m-41.2,27.1V932.6m41.2,-.4h41.3m-41.3,27.1V932.6m41.3,-.4h41.2m-41.2,27.1V932.6m41.2,-.4h41.7m-41.7,27.1V932.6m41.3,26.7V932.6M515.6,986.8V960.1m41.3,26.7V960.1m41.2,26.7V960.1m41.3,26.7V960.1m41.2,26.7V960.1m41.3,26.7V960.1m41.2,26.7V960.1m41.3,26.7V960.1M515.6,987.2h41.3m0,0h41.2m0,0h41.3m0,0h41.2m0,0h41.3m0,0h41.2m0,0h41.7M515.6,959.7h41.3m0,0h41.2m0,0h41.3m0,0h41.2m0,0h41.3m0,0h41.2m0,0h41.7" class="g3_405"/>
<path d="M163.5,208.3h36.7V173.7H163.5v34.6Z" class="g4_405"/>
<path d="M200.2,208.3h36.6V187.4H200.2v20.9Z" class="g4_405"/>
<path d="M236.8,208.3h36.7V195.5H236.8v12.8Z" class="g4_405"/>
<path d="M126.8,208.3h36.7V150.8H126.8v57.5Z" class="g4_405"/>
<path d="M126.8,134.9c39.7,37.7,80.2,56.4,164.8,65.7" class="g5_405"/>
<path d="M126.8,226.6V107.4" class="g6_405"/>
<path fill-rule="evenodd" d="M126.8,107.4l-2.4,1.7l2.4,-6.5l2.5,6.5Z" class="g7_405"/>
<path d="M108.5,208.3H294.9" class="g6_405"/>
<path fill-rule="evenodd" d="M294.9,208.3l-1.7,-2.5l6.6,2.5l-6.6,2.4Z" class="g7_405"/>
<path d="M145.2,208.3V150.8m36.6,57.5V173.7m36.7,34.6V187.4" class="g8_405"/>
<path d="M255.2,208.3V195.5" class="g9_405"/>
<path clip-path="url(#c0_405)" d="M126.8,389.2h14.7v66.6H126.8Zm14.7,12.1h14.7v54.5H141.5Zm14.7,9.9h14.6v44.6H156.2Zm14.6,8.2h14.7v36.4H170.8Zm14.7,6.8h14.7v29.6H185.5Zm14.7,5.3h14.6v24.3H200.2Zm14.6,4.4h14.7v19.9H214.8Zm14.7,3.5h14.7v16.4H229.5Zm14.7,2.9h14.6v13.5H244.2Zm14.6,2.5h14.7v11H258.8ZM163.5,173.7h36.7v34.6H163.5Zm36.7,13.7h36.6v20.9H200.2Zm36.6,8.1h36.7v12.8H236.8Zm-110,-44.7h36.7v57.5H126.8Z" class="ga_405"/>
<path d="M229.5,470.3h14.7V454H229.5v16.3Z" class="g4_405"/>
<path d="M244.2,470.3h14.6V456.8H244.2v13.5Z" class="g4_405"/>
<path d="M258.8,470.3h14.7v-11H258.8v11Z" class="g4_405"/>
<path d="M126.8,470.3h14.7V403.7H126.8v66.6Z" class="g4_405"/>
<path d="M141.5,470.3h14.7V415.8H141.5v54.5Z" class="g4_405"/>
<path d="M156.2,470.3h14.6V425.7H156.2v44.6Z" class="g4_405"/>
<path d="M170.8,470.3h14.7V433.9H170.8v36.4Z" class="g4_405"/>
<path d="M185.5,470.3h14.7V440.7H185.5v29.6Z" class="g4_405"/>
<path d="M200.2,470.3h14.6V446H200.2v24.3Z" class="g4_405"/>
<path d="M214.8,470.3h14.7V450.4H214.8v19.9Z" class="g4_405"/>
<path d="M126.8,397c39.7,37.6,80.2,56.3,164.8,65.6" class="g5_405"/>
<path d="M126.8,488.6V369.5" class="g6_405"/>
<path fill-rule="evenodd" d="M126.8,369.5l-2.4,1.6l2.4,-6.5l2.5,6.5Z" class="g7_405"/>
<path d="M108.5,470.3H294.9" class="g6_405"/>
<path fill-rule="evenodd" d="M294.9,470.3l-1.7,-2.4l6.6,2.4l-6.6,2.4Z" class="g7_405"/>
<path clip-path="url(#c1_405)" d="M126.8,403.7h14.7v66.6H126.8Zm14.7,12.1h14.7v54.5H141.5Zm14.7,9.9h14.6v44.6H156.2Zm14.6,8.2h14.7v36.4H170.8Zm14.7,6.8h14.7v29.6H185.5Zm14.7,5.3h14.6v24.3H200.2Zm14.6,4.4h14.7v19.9H214.8Zm14.7,3.6h14.7v16.3H229.5Zm14.7,2.8h14.6v13.5H244.2Zm14.6,2.5h14.7v11H258.8ZM163.5,188.2h36.7v34.6H163.5Zm36.7,13.7h36.6v20.9H200.2Zm36.6,8.1h36.7v12.8H236.8Zm-110,-44.7h36.7v57.5H126.8Z" class="ga_405"/>
</svg>