<?xml version="1.0" encoding="UTF-8" standalone="no"?>
<!DOCTYPE svg PUBLIC "-//W3C//DTD SVG 1.1//EN"
"http://www.w3.org/Graphics/SVG/1.1/DTD/svg11.dtd">
<svg viewBox="0 0 660 990" version="1.1" xmlns="http://www.w3.org/2000/svg" xmlns:xlink="http://www.w3.org/1999/xlink">
<defs>
<clipPath id="c0_325"><path d="M86.9,141l-1.2,-2.4l-1.2,-2.3H576.2l-1.1,2.3l-1.2,2.4Z"/></clipPath>
<clipPath id="c1_325"><path d="M577.3,348.8L575,347.6l-2.4,-1.2V139.7l2.4,-1.2l2.3,-1.2V348.8Z"/></clipPath>
<clipPath id="c2_325"><path d="M84.5,349.9l1.2,-2.4l1.2,-2.4h487l1.2,2.4l1.1,2.4Z"/></clipPath>
<clipPath id="c3_325"><path d="M83.5,348.8V137.3l2.3,1.2l2.4,1.2V346.4l-2.4,1.2l-2.3,1.2Z"/></clipPath>
<clipPath id="c4_325"><path d="M85.6,915.9v-5.1H574.4v5.1Z"/></clipPath>
<style type="text/css"><![CDATA[
.g0_325{
fill: none;
stroke: #231F20;
stroke-width: 0.381;
stroke-linecap: round;
stroke-linejoin: miter;
}
.g1_325{
fill: #FFFFFF;
}
.g2_325{
fill: #231F20;
}
.g3_325{
fill: none;
stroke: #231F20;
stroke-width: 0.763;
stroke-linecap: round;
stroke-linejoin: miter;
}
]]></style>
</defs>
<path clip-path="url(#c0_325)" d="M85.6,138.6H575.1" class="g0_325"/>
<path clip-path="url(#c1_325)" d="M575,138.4V347.7" class="g0_325"/>
<path clip-path="url(#c2_325)" d="M575.1,347.5H85.6" class="g0_325"/>
<path clip-path="url(#c3_325)" d="M85.8,347.7V138.4" class="g0_325"/>
<path fill-rule="evenodd" d="M597.3,913H660v77H597.3V913Z" class="g1_325"/>
<path fill-rule="evenodd" d="M597.3,77H660v92.4H597.3V77Z" class="g2_325"/>
<path fill-rule="evenodd" d="M597.3,0H660V77H597.3V0Z" class="g1_325"/>
<path clip-path="url(#c4_325)" d="M85.6,913.4H574.4" class="g3_325"/>
<image preserveAspectRatio="none" x="235" y="146" width="191" height="193" xlink:href="img/1.jpg"/>
</svg>