<?xml version="1.0" encoding="UTF-8" standalone="no"?>
<!DOCTYPE svg PUBLIC "-//W3C//DTD SVG 1.1//EN"
"http://www.w3.org/Graphics/SVG/1.1/DTD/svg11.dtd">
<svg viewBox="0 0 907 1045" version="1.1" xmlns="http://www.w3.org/2000/svg" xmlns:xlink="http://www.w3.org/1999/xlink">
<defs>
<clipPath id="c0_444"><path d="M88.2,178.9V110.2h173v68.7Z"/></clipPath>
<clipPath id="c1_444"><path d="M-2.6,1047.7V-2.6H910.2V1047.7Z"/></clipPath>
<style type="text/css"><![CDATA[
.g0_444{
fill: none;
stroke: #000000;
stroke-width: 1.527;
stroke-linecap: butt;
stroke-linejoin: miter;
stroke-miterlimit: 4;
}
.g1_444{
fill: #FFFFFF;
}
.g2_444{
}
.g3_444{
fill: #B6B6B6;
}
.g4_444{
fill: #343434;
}
.g5_444{
fill: #7C7C7C;
}
.g6_444{
fill: #909090;
}
.g7_444{
fill: #737373;
}
.g8_444{
fill: #C7C7C7;
}
.g9_444{
fill: #ACACAC;
}
.ga_444{
fill: #A8A8A8;
}
.gb_444{
fill: #E6E6E6;
}
.gc_444{
fill: #D2D2D2;
}
.gd_444{
fill: #CFCFCF;
}
.ge_444{
fill: #ECECEC;
}
.gf_444{
fill: #DDDDDD;
}
.gg_444{
fill: #DBDBDB;
}
.gh_444{
fill: #D5D5D5;
}
.gi_444{
fill: #3C3C3C;
}
.gj_444{
fill: none;
stroke: #000000;
stroke-width: 0.763;
stroke-linecap: butt;
stroke-linejoin: miter;
stroke-miterlimit: 4;
}
.gk_444{
fill: none;
stroke: #FFFFFF;
stroke-width: 1.909;
stroke-linecap: butt;
stroke-linejoin: miter;
}
.gl_444{
fill: none;
stroke: #000000;
stroke-width: 0.381;
stroke-linecap: butt;
stroke-linejoin: miter;
}
]]></style>
</defs>
<path d="M91.6,128.5V955.4H816.1V128.5H91.6Z" class="g0_444"/>
<path d="M133.1,143.5v59.8H367.5V143.5H133.1Z" class="g1_444"/>
<path d="M90.9,114.8v59.8H295V114.8H90.9Z" class="g1_444"/>
<path d="M86.7,107.9v44.8H261.4V107.9H86.7Z" class="g1_444"/>
<path d="M88.2,110.2v68.7h173V110.2H88.2Z" class="g1_444"/>
<path d="M141,163.8l-1.1,-.2l.4,.9l9.2,1.1L143,160.1l-.7,.5l-.5,.4l-.3,.7l-.3,.5l-.2,1.1v.5Z" class="g2_444"/>
<path d="M128,150.1v0l1.1,1.4l.9,1.3l.4,.8l.4,1l.2,.9l.1,.9l.1,.9l-.4,.8l-.4,.8l-.8,.8l-1.1,.6l-1.3,.5l12.7,2.8l-.3,-1.3l-.1,-1l.2,-1l.2,-.7l.4,-.5l.3,-.4l.4,-.2l2,1.6l-4.4,-4.6l-3.3,-3.7L134,150.1l-.8,-1.3l-.2,.4l-.2,.3l-.4,.4l-.6,.3l-.9,.2l-1.3,.1l-1.6,-.4Z" class="g3_444"/>
<path d="M139.9,163.6l1.1,.2v-.5l.2,-1.1l.3,-.5l.3,-.7l.5,-.4l.7,-.5l-2,-1.6l-.4,.2l-.3,.4l-.4,.5l-.2,.7l-.2,1l.1,1l.3,1.3Z" class="g4_444"/>
<path d="M100.4,138.6v0l2.3,1.4l2.4,1.4l4.7,3.1l4.6,3.4l4.3,3.4l3.7,3l2.9,2.5l2.5,2.3l-.3,.5l.8,-.8l.7,-.8l.3,-1l.1,-.9l-.1,-.9l-.3,-1.1l-.2,-.8l-.5,-1l-1.1,-1.7l-.9,-1.3l-1.2,-1.2l1.2,.5l1.2,.3l1.4,.2h1.2l2.2,-.2l.9,-.1l-1.8,-.5l-1.7,-.8l-3.8,-1.7l-4,-2.1l-4,-2.5l-3.8,-2.4l-3.5,-2.3l-5.2,-3.8l-1.5,.6l-1,.7l-.8,.7l-.8,.6l-.5,.9l-.2,.8l-.1,.8l-.1,.8Z" class="g5_444"/>
<path d="M127,160.8v0h.2H127Z" class="g5_444"/>
<path d="M127.5,159.6v0l-.5,1.2h.2l1.3,-.5l1.1,-.6l.8,-.8l.4,-.8l.4,-.8l-.1,-.9l-.1,-.9l-.2,-.9l-.4,-1l-.4,-.8l-.9,-1.3L128,150.1l1.6,.4l1.3,-.1l.9,-.2l.6,-.3l.4,-.4l.2,-.3l.2,-.4l-.9,.1l-2.2,.2h-1.2l-1.4,-.2l-1.2,-.3l-1.2,-.5l1.2,1.2l.9,1.3l1.1,1.7l.5,1l.2,.8l.3,1.1l.1,.9l-.1,.9l-.3,1l-.7,.8l-.8,.8Z" class="g6_444"/>
<path d="M90.1,129.1v0l-.4,.9l-.1,.6l.1,.8v.6l.3,1.2l.5,.7l.6,.8l.6,.5l.7,.4l1.4,.3l-.2,-1.1l.1,-.9l.2,-.8l.3,-.9l.2,-.7l.5,-.5l.9,-1l1,-.9l.9,-.4l.8,-.3l.7,-.2l-1,-1l-.7,-.4l-.8,-.4l-.9,-.4l-1,-.1l-1.2,.2l-1.2,.3l-.8,.5l-.6,.6l-.5,.8l-.4,.8Z" class="g7_444"/>
<path d="M95.9,136.5v0l2.2,1l-.1,-.9l.1,-.8l.2,-.8l.5,-.9l.7,-.8l1,-.7l1.5,-.7l1.6,-.4l1.8,1.2l.6,-.1l-.4,-.5l-1.3,-1.4l-.9,-.7l-1.1,-.8l-1.3,-.6l-1.5,-.5l-.3,.1l.6,.9l-.9,.2l-.6,.3l-.7,.4l-.5,.4l-.4,.6l-.4,.4l-.4,1.2l-.2,1.1l-.1,1.1l.1,.9l.2,.8Z" class="g8_444"/>
<path d="M98.1,137.5v0l2.3,1.1l.1,-.8l.1,-.8l.2,-.8l.5,-.9l.8,-.6l.8,-.7l1,-.7l1.5,-.6l-1.8,-1.2l-1.6,.4l-1.5,.7l-1,.7l-.7,.8l-.5,.9l-.2,.8l-.1,.8l.1,.9Z" class="g9_444"/>
<path d="M93.8,135.9v0l2.1,.6l-.2,-.8l-.1,-.9l.1,-1.1l.2,-1.1l.4,-1.2l.4,-.4l.4,-.6l.5,-.4l.7,-.4l.6,-.3l.9,-.2l-.6,-.9l-.7,.2l-.8,.3l-.9,.4l-1,.9l-.9,1l-.5,.5l-.2,.7l-.3,.9l-.2,.8l-.1,.9l.2,1.1Z" class="ga_444"/>
<path d="M125.8,160.5h.1h-.1Z" class="gb_444"/>
<path d="M125.9,160.5v0l.4,.5l.7,-.2l-1.1,-.3Z" class="gc_444"/>
<path d="M100.8,140.5v0l1.9,1.1l1.9,1.2l3.9,2.6l4.1,3l3.6,3.1l3.3,2.9l2.8,2.5l3.6,3.6l.8,-.4l.8,-.5l.3,-.5l-2.5,-2.3l-2.9,-2.5l-3.7,-3l-4.3,-3.4l-4.6,-3.4l-4.7,-3.1L102.7,140l-2.3,-1.4l.1,1.1l.3,.8Z" class="g6_444"/>
<path d="M125.9,160.5l1.1,.3l.5,-1.2l-.8,.5l-.8,.4Z" class="g6_444"/>
<path d="M90.2,127.7v0l-1,2.6l-.8,2.6l.2,.9l.5,.8l.6,.6l.6,.6l.8,.6l.9,.5l.9,.3l1.1,.3l-.2,-1.6l-1.4,-.3l-.7,-.4l-.6,-.5l-.6,-.8l-.5,-.7L89.7,132v-.6l-.1,-.8l.1,-.6l.4,-.9l.4,-.8l.5,-.8l.6,-.6l.8,-.5l-1.3,.6l-.9,.7Z" class="gd_444"/>
<path d="M101.8,142.9v0l-.5,-.7l-.3,-.8l-.2,-.9l-2.3,-1.1l-.3,-.5l-.1,-.6v-.8l-2.2,-1l.2,.9l-1.2,.2l-.9,-.1l.1,.7l.8,.8l.6,.7l.9,.8l1.1,.8l1.4,.8l1.4,.5l.7,.1l.8,.2Z" class="ge_444"/>
<path d="M98.5,139.4v0l2.3,1.1l-.3,-.8l-.1,-1.1l-2.3,-1.1v.8l.1,.6l.3,.5Z" class="gf_444"/>
<path d="M95.9,136.5v0l-2.1,-.6l.2,1.6l.9,.1l1.2,-.2l-.2,-.9Z" class="gg_444"/>
<path clip-path="url(#c0_444)" d="M88.4,132.9v0l.8,-2.6l1,-2.6l-.6,.6l-.4,.6l-.5,.6l-.3,.7v.8l-.2,.6l.1,.8l.1,.5Z" class="gh_444"/>
<path d="M124.2,160.1v0l-5.8,-4.5L112.5,151l-6,-4.4l-3.1,-2l-3.1,-2l-.2,.5l1.5,.9l1.7,1.1l3,2.1l6.1,4.5l5.9,4.4l2.8,2.2l2.8,2.4l-.1,-.2l.4,-.4Z" class="gi_444"/>
<path d="M131.9,145.6v0l-6.6,-3.1l-6.5,-3.2l-3.2,-1.7L112.5,136l-3.2,-2l-3,-2l-.3,.6l3,2l3.2,1.8l3.1,1.8l3.2,1.6l6.7,3.2l6.4,3.1l.3,-.5Z" class="gi_444"/>
<path d="M101.8,144.2v0l-.8,-1l-.6,-1.1l-.3,-1.1l-.2,-1.3l.1,-1.5l.4,-1.3l.6,-1.3l.4,-.6l.5,-.5l1.1,-.8l1.2,-.7l1.2,-.4l1.4,-.5l-.3,-.6l-1.4,.5l-1.2,.5l-1.3,.8l-1.1,.9l-.6,.6l-.4,.6l-.6,1.3l-.5,1.5v1.6l.2,1.3l.3,1.3l.8,1.2l.4,.5l.4,.5l.3,-.4Z" class="gi_444"/>
<path d="M97.7,141v0l-.3,-1L97,139l-.1,-.9l-.3,-1V136l.2,-.9l.2,-1l.4,-1l.5,-.9l.5,-.8l.8,-.6l.7,-.5l.9,-.5l1,-.3l.8,-.2h1.1v-.6l-1,.1l-1.2,.2l-.9,.4l-1,.4l-.7,.5l-.9,.8l-.6,.8l-.6,.9l-.3,1l-.3,1.1v2.2l.1,1l.2,1l.3,1l.6,1.1l.3,-.2Z" class="gi_444"/>
<path d="M95.5,138.6v0l-.4,-1.5v-3l.2,-1.4l.4,-1l.4,-.7l.5,-.8l.6,-.6l.8,-.5l.6,-.5l1.7,-.9l-.3,-.5l-1.7,.9l-.7,.5l-.8,.6l-.6,.7l-.5,.7l-.5,.9l-.4,.9l-.2,1.6l-.2,1.5l.2,1.7l.4,1.6l.5,-.2Z" class="gi_444"/>
<path d="M103.4,129.9v0l-1.9,-1.5l-1.8,-1.7l-.3,.4l1.8,1.7l1.8,1.5l.4,-.4Z" class="gi_444"/>
<path d="M99,140.8v0l-2.4,-1.4l-2.5,-1.2l-.2,.5l2.4,1.3l2.4,1.3l.3,-.5Z" class="gi_444"/>
<path d="M93.2,137.2v0L92,136.5l-1.3,-.9l-.6,-.6l-.4,-.6l-.4,-.8l-.2,-.7L89,131.7v-1.1l.3,-1.1l.5,-.9l.8,-1l1,-.7l.9,-.5l1.1,-.5l1.3,-.3h1l1.3,.3l1.1,.4l.2,-.5l-1.2,-.5l-1.2,-.2l-1.4,.1l-1.2,.2l-1.3,.4l-1,.6l-1,.9l-.8,.9l-.4,.7l-.2,.7l-.3,.7v.8l-.1,1.4l.4,1.4l.3,.7l.5,.6l1,1l1.1,.8l1.4,.7l.1,-.5Z" class="gi_444"/>
<path d="M129.7,149.7v0L126.3,148l-3.4,-1.8l-3.4,-1.9l-3.3,-1.9l-6.4,-4.2L103.5,134l-.3,.5l6.4,4.2l6.5,4.2l3.1,1.9l3.3,2l3.5,1.7l3.4,1.7l.3,-.5Z" class="gi_444"/>
<image x="127" y="149" width="6" height="12" xlink:href="shade/1.png"/>
<path d="M134.3,149v0l-1.2,.3l-1.3,.1l-2.4,.4v.6L132,150l1.3,-.2l1.2,-.3l-.2,-.5Z" class="gi_444"/>
<path d="M151.4,166.2v0l-6,-1.4l-6.2,-1l-6,-1l-6.2,-.9v.4l6,1l6.2,1l6.1,1.2l6,1.4l.1,-.7Z" class="gi_444"/>
<path d="M151.6,165.6v0l-4.7,-4.4l-4.5,-4.7l-4.3,-4.7l-4.2,-4.9l-.4,.3l4.1,5.1l4.3,4.7l4.6,4.6l4.7,4.4l.4,-.4Z" class="gi_444"/>
<path d="M143.1,164.2v0l-.4,-.7l-.2,-.8V161l.4,-.7l.4,-.8l.5,-.7l.6,-.4l-.3,-.6l-.7,.7l-.6,.7l-.5,.8l-.2,.9l-.3,.9l.1,1l.3,.9l.3,.8l.6,-.3Z" class="gi_444"/>
<path d="M421.4,228.4v22.7h88.9V228.4H421.4Z" class="g1_444"/>
<path d="M421.4,228.4v22.7h88.9V228.4H421.4Z" class="gj_444"/>
<g clip-path="url(#c1_444)">
<path d="M-4.5,13.7H-27.4m939.5,0H935M-4.5,1031.2H-27.4m939.5,0H935M13.7,-4.5V-27.4m0,1077v22.9m880,-1077V-27.4m0,1077v22.9" class="gk_444"/>
<path d="M-4.5,13.7H-27.4m939.5,0H935M-4.5,1031.2H-27.4m939.5,0H935M13.7,-4.5V-27.4m0,1077v22.9m880,-1077V-27.4m0,1077v22.9" class="gl_444"/>
</g>
</svg>