<?xml version="1.0" encoding="UTF-8" standalone="no"?>
<!DOCTYPE svg PUBLIC "-//W3C//DTD SVG 1.1//EN"
"http://www.w3.org/Graphics/SVG/1.1/DTD/svg11.dtd">
<svg viewBox="0 0 770 1017" version="1.1" xmlns="http://www.w3.org/2000/svg" xmlns:xlink="http://www.w3.org/1999/xlink">
<defs>
<style type="text/css"><![CDATA[
.g0_296{
fill: none;
stroke: #000000;
stroke-width: 0.618;
stroke-linecap: butt;
stroke-linejoin: miter;
}
.g1_296{
fill: none;
stroke: #000000;
stroke-width: 0.77;
stroke-linecap: butt;
stroke-linejoin: miter;
}
]]></style>
</defs>
<path d="M56,69.2H695.2M125.7,102.7H625.4M125.7,115.2V103m64.7,12.2V103m435,12.2V103M125.7,127.4V115.2m64.7,12.2V115.2m435,12.2V115.2M125.7,127.7H625.4M125.7,140.2V128m64.7,12.2V128m435,12.2V128M125.7,152.3V140.1m64.7,12.2V140.1m435,12.2V140.1M125.7,164.5V152.3m64.7,12.2V152.3m435,12.2V152.3M125.7,176.7V164.5m64.7,12.2V164.5m435,12.2V164.5M125.7,188.9V176.7m64.7,12.2V176.7m435,12.2V176.7M125.7,201V188.9M190.4,201V188.9m435,12.1V188.9M125.7,213.2V201m64.7,12.2V201m435,12.2V201M125.7,225.4V213.2m64.7,12.2V213.2m435,12.2V213.2M125.7,237.6V225.4m64.7,12.2V225.4m435,12.2V225.4M125.7,249.8V237.6m64.7,12.2V237.6m435,12.2V237.6M125.7,261.9V249.7m64.7,12.2V249.7m435,12.2V249.7M125.7,274.1V261.9m64.7,12.2V261.9m435,12.2V261.9M125.7,286.3V274.1m64.7,12.2V274.1m435,12.2V274.1M125.7,298.5V286.3m64.7,12.2V286.3m435,12.2V286.3M125.7,310.6V298.5m64.7,12.1V298.5m435,12.1V298.5M125.7,310.9H625.4M65.1,391.5h621" class="g0_296"/>
<path d="M65.1,853.9h91.3" class="g1_296"/>
</svg>