<?xml version="1.0" encoding="UTF-8" standalone="no"?>
<!DOCTYPE svg PUBLIC "-//W3C//DTD SVG 1.1//EN"
"http://www.w3.org/Graphics/SVG/1.1/DTD/svg11.dtd">
<svg viewBox="0 0 811 1017" version="1.1" xmlns="http://www.w3.org/2000/svg" xmlns:xlink="http://www.w3.org/1999/xlink">
<defs>
<style type="text/css"><![CDATA[
.g0_336{
fill: #CEBCDA;
}
.g1_336{
fill: none;
stroke: #222326;
stroke-width: 0.763;
}
.g2_336{
fill: #C6EAFA;
}
.g3_336{
fill: #FED74D;
}
.g4_336{
fill: #9AD2AE;
}
.g5_336{
fill: #FED9A1;
}
.g6_336{
fill: #211E1E;
}
.g7_336{
fill: none;
stroke: #222326;
stroke-width: 0.763;
stroke-dasharray: 4,4;
}
.g8_336{
fill: none;
stroke: #EE2026;
stroke-width: 1.527;
}
.g9_336{
fill: #EE2026;
}
]]></style>
</defs>
<path d="M275,751.3c0,3.4,2.8,6.1,6.1,6.1H691.6c3.3,0,6.1,-2.7,6.1,-6.1V540.6c0,-3.4,-2.8,-6.1,-6.1,-6.1H281.1c-3.3,0,-6.1,2.7,-6.1,6.1V751.3Z" class="g0_336"/>
<path d="M275,751.3c0,3.4,2.8,6.1,6.1,6.1H691.6c3.3,0,6.1,-2.7,6.1,-6.1V540.6c0,-3.4,-2.8,-6.1,-6.1,-6.1H281.1c-3.3,0,-6.1,2.7,-6.1,6.1V751.3Z" class="g1_336"/>
<path d="M291.7,734.6c0,3.4,2.7,6.2,6.1,6.2H674.9c3.4,0,6.1,-2.8,6.1,-6.2V557.3c0,-3.4,-2.7,-6.1,-6.1,-6.1H297.8c-3.4,0,-6.1,2.7,-6.1,6.1V734.6Z" class="g2_336"/>
<path d="M291.7,734.6c0,3.4,2.7,6.2,6.1,6.2H674.9c3.4,0,6.1,-2.8,6.1,-6.2V557.3c0,-3.4,-2.7,-6.1,-6.1,-6.1H297.8c-3.4,0,-6.1,2.7,-6.1,6.1V734.6Z" class="g1_336"/>
<path d="M157.3,609.2c0,3.4,2.8,6.1,6.1,6.1h42.8c3.4,0,6.1,-2.7,6.1,-6.1V583.1c0,-3.4,-2.7,-6.1,-6.1,-6.1H163.4c-3.3,0,-6.1,2.7,-6.1,6.1v26.1Z" class="g3_336"/>
<path d="M157.3,609.2c0,3.4,2.8,6.1,6.1,6.1h42.8c3.4,0,6.1,-2.7,6.1,-6.1V583.1c0,-3.4,-2.7,-6.1,-6.1,-6.1H163.4c-3.3,0,-6.1,2.7,-6.1,6.1v26.1Z" class="g1_336"/>
<path d="M303.7,657.7c0,3.4,2.7,6.2,6.1,6.2h42.8c3.4,0,6.1,-2.8,6.1,-6.2V631.6c0,-3.4,-2.7,-6.1,-6.1,-6.1H309.8c-3.4,0,-6.1,2.7,-6.1,6.1v26.1Z" class="g4_336"/>
<path d="M303.7,657.7c0,3.4,2.7,6.2,6.1,6.2h42.8c3.4,0,6.1,-2.8,6.1,-6.2V631.6c0,-3.4,-2.7,-6.1,-6.1,-6.1H309.8c-3.4,0,-6.1,2.7,-6.1,6.1v26.1Z" class="g1_336"/>
<path d="M609.6,701.2c0,3.3,2.7,6.1,6.1,6.1h47.2c3.3,0,6.1,-2.8,6.1,-6.1V595.1c0,-3.4,-2.8,-6.1,-6.1,-6.1H615.7c-3.4,0,-6.1,2.7,-6.1,6.1V701.2Z" class="g5_336"/>
<path d="M609.6,701.2c0,3.3,2.7,6.1,6.1,6.1h47.2c3.3,0,6.1,-2.8,6.1,-6.1V595.1c0,-3.4,-2.8,-6.1,-6.1,-6.1H615.7c-3.4,0,-6.1,2.7,-6.1,6.1V701.2Z" class="g1_336"/>
<path d="M157.3,657.7c0,3.4,2.8,6.2,6.1,6.2h42.8c3.4,0,6.1,-2.8,6.1,-6.2V631.6c0,-3.4,-2.7,-6.1,-6.1,-6.1H163.4c-3.3,0,-6.1,2.7,-6.1,6.1v26.1Z" class="g3_336"/>
<path d="M157.3,657.7c0,3.4,2.8,6.2,6.1,6.2h42.8c3.4,0,6.1,-2.8,6.1,-6.2V631.6c0,-3.4,-2.7,-6.1,-6.1,-6.1H163.4c-3.3,0,-6.1,2.7,-6.1,6.1v26.1Z" class="g1_336"/>
<path d="M157.3,706.3c0,3.3,2.8,6.1,6.1,6.1h42.8c3.4,0,6.1,-2.8,6.1,-6.1V680.1c0,-3.4,-2.7,-6.1,-6.1,-6.1H163.4c-3.3,0,-6.1,2.7,-6.1,6.1v26.2Z" class="g3_336"/>
<path d="M157.3,706.3c0,3.3,2.8,6.1,6.1,6.1h42.8c3.4,0,6.1,-2.8,6.1,-6.1V680.1c0,-3.4,-2.7,-6.1,-6.1,-6.1H163.4c-3.3,0,-6.1,2.7,-6.1,6.1v26.2Zm60.4,-61.6h81" class="g1_336"/>
<path d="M300.5,643.9c-1.3,-.4,-2.1,-.7,-3.1,-1.2v3.9c.4,-.2,1.8,-.8,3.1,-1.1c1.3,-.4,2.6,-.7,3.4,-.8c-.8,-.1,-2.1,-.4,-3.4,-.8Z" class="g6_336"/>
<path d="M215.9,645.5c1.3,.3,2.1,.7,3.1,1.1v-3.9c-.3,.2,-1.8,.8,-3.1,1.2c-1.3,.4,-2.5,.7,-3.3,.8c.8,.1,2,.3,3.3,.8Z" class="g6_336"/>
<path d="M217.4,693.2l81.3,-36.7" class="g1_336"/>
<path d="M300,655.1c-1.3,.2,-2.2,.2,-3.3,.2l1.6,3.5c.3,-.3,1.4,-1.4,2.4,-2.3c1,-.9,2,-1.7,2.7,-2.1c-.8,.2,-2,.5,-3.4,.7Z" class="g6_336"/>
<path d="M216,694.6c1.4,-.1,2.2,-.2,3.3,-.2l-1.5,-3.5c-.3,.3,-1.4,1.4,-2.4,2.3c-1.1,.9,-2.1,1.7,-2.8,2.1c.8,-.2,2,-.5,3.4,-.7Z" class="g6_336"/>
<path d="M217.4,596.2L299.2,633" class="g1_336"/>
<path d="M301.1,633c-1,-.8,-1.6,-1.5,-2.3,-2.3l-1.6,3.6c.4,-.1,2,0,3.3,.2c1.4,.2,2.6,.4,3.4,.7c-.7,-.5,-1.7,-1.2,-2.8,-2.2Z" class="g6_336"/>
<path d="M215.4,596.1c1,.9,1.6,1.6,2.4,2.3l1.5,-3.5c-.4,0,-1.9,0,-3.2,-.2c-1.4,-.2,-2.7,-.4,-3.4,-.7c.6,.5,1.6,1.2,2.7,2.1Z" class="g6_336"/>
<path d="M610,674.7c-8.3,6.8,-19.8,11,-32.4,11c-16.3,0,-30.6,-7,-38.7,-17.4" class="g7_336"/>
<path d="M537.2,667.3c.4,1.3,.7,2.1,1,3.2l3,-2.4c-.3,-.2,-1.7,-1,-2.8,-1.7c-1.1,-.8,-2.1,-1.6,-2.7,-2.2c.4,.7,1,1.8,1.5,3.1Z" class="g6_336"/>
<path d="M537.8,623.6c8.5,-7.9,21.1,-13,35.1,-13c12.7,0,24.2,4.1,32.6,10.8" class="g7_336"/>
<path d="M607.4,621.9c-.7,-1.1,-1.1,-1.8,-1.7,-2.8l-2.4,3c.4,.1,1.9,.6,3.1,1.1c1.4,.5,2.5,1,3.2,1.4c-.6,-.5,-1.4,-1.5,-2.2,-2.7Z" class="g6_336"/>
<path d="M428.4,671.6c-8.4,8.9,-24.7,14.1,-36.5,14.1c-15.1,0,-28.4,-7,-36,-17.4" class="g7_336"/>
<path d="M354.2,667.3c.5,1.2,.7,2.1,.9,3.2l3.1,-2.3c-.3,-.2,-1.6,-1,-2.7,-1.8c-1.1,-.9,-2.1,-1.7,-2.6,-2.3c.4,.7,.9,1.9,1.3,3.2Z" class="g6_336"/>
<path d="M352,625.5c8.5,-8.6,22.5,-14.9,35.6,-14.9c11.8,0,22.5,4.1,30.3,10.8" class="g7_336"/>
<path d="M419.8,622c-.7,-1.1,-1.1,-1.9,-1.6,-2.9l-2.5,2.9c.4,.2,1.9,.7,3.1,1.2c1.3,.6,2.4,1.1,3,1.6c-.5,-.6,-1.3,-1.6,-2,-2.8Z" class="g6_336"/>
<path d="M420,641c0,-22.2,12.1,-41.5,30,-51.9" class="g8_336"/>
<path d="M452.3,585.9c-2.5,.6,-4.3,.9,-6.5,1.2l3.9,6.6c.4,-.6,2.4,-3.1,4.2,-5c1.9,-2.1,3.8,-3.8,5.1,-4.8c-1.5,.6,-3.9,1.4,-6.7,2Z" class="g9_336"/>
<path d="M450,692.9C432.1,682.5,420,663.2,420,641" class="g8_336"/>
<path d="M418.5,637.4c-.8,2.5,-1.5,4.1,-2.3,6.2h7.7c-.3,-.7,-1.5,-3.7,-2.3,-6.2c-.8,-2.7,-1.3,-5.2,-1.5,-6.8c-.2,1.6,-.8,4.1,-1.6,6.8Z" class="g9_336"/>
<path d="M509.9,692.9c-8.8,5.1,-19,8,-29.9,8c-11,0,-21.2,-2.9,-30,-8" class="g8_336"/>
<path d="M446.1,692.4c1.8,2,2.9,3.4,4.2,5.1l3.9,-6.7c-.8,0,-4,-.5,-6.5,-1.1c-2.8,-.6,-5.2,-1.4,-6.7,-2c1.3,1,3.2,2.7,5.1,4.7Z" class="g9_336"/>
<path d="M539.9,641c0,22.2,-12.1,41.5,-30,51.9" class="g8_336"/>
<path d="M507.6,696c2.5,-.6,4.3,-.8,6.5,-1.1l-3.9,-6.7c-.4,.7,-2.4,3.2,-4.2,5.1c-1.9,2.1,-3.8,3.8,-5.1,4.8c1.5,-.7,3.9,-1.4,6.7,-2.1Z" class="g9_336"/>
<path d="M509.9,589.1c17.9,10.4,30,29.7,30,51.9" class="g8_336"/>
<path d="M541.4,644.6c.8,-2.5,1.5,-4.2,2.3,-6.2H536c.3,.7,1.5,3.7,2.3,6.2c.8,2.7,1.4,5.2,1.6,6.7c.2,-1.5,.7,-4,1.5,-6.7Z" class="g9_336"/>
<path d="M450,589.1c8.8,-5.1,19,-8,30,-8c10.9,0,21.1,2.9,29.9,8" class="g8_336"/>
<path d="M513.8,589.5c-1.8,-1.9,-2.8,-3.3,-4.2,-5l-3.9,6.6c.8,.1,4,.6,6.5,1.2c2.8,.6,5.2,1.4,6.7,2c-1.3,-1,-3.1,-2.7,-5.1,-4.8Z" class="g9_336"/>
</svg>