<?xml version="1.0" encoding="UTF-8" standalone="no"?>
<!DOCTYPE svg PUBLIC "-//W3C//DTD SVG 1.1//EN"
"http://www.w3.org/Graphics/SVG/1.1/DTD/svg11.dtd">
<svg viewBox="0 0 907 1045" version="1.1" xmlns="http://www.w3.org/2000/svg" xmlns:xlink="http://www.w3.org/1999/xlink">
<defs>
<clipPath id="c0_354"><path d="M237.6,860.9V575.4H409.8V860.9Z"/></clipPath>
<clipPath id="c1_354"><path d="M512.7,852.6V561.8h92.7V852.6Z"/></clipPath>
<clipPath id="c2_354"><path d="M-2.6,1047.7V-2.6H910.2V1047.7Z"/></clipPath>
<style type="text/css"><![CDATA[
.g0_354{
fill: #FFFFFF;
}
.g1_354{
fill: none;
stroke: #000000;
stroke-width: 1.527;
stroke-linecap: butt;
stroke-linejoin: miter;
stroke-miterlimit: 4;
}
.g2_354{
fill: none;
stroke: #636363;
stroke-width: 1.527;
stroke-linecap: butt;
stroke-linejoin: miter;
stroke-miterlimit: 4;
}
.g3_354{
fill: none;
stroke: #3D3D3D;
stroke-width: 1.1;
stroke-linecap: butt;
stroke-linejoin: miter;
stroke-miterlimit: 4;
}
.g4_354{
fill: none;
stroke: #000000;
stroke-width: 1.145;
stroke-linecap: butt;
stroke-linejoin: miter;
stroke-miterlimit: 4;
}
.g5_354{
fill: none;
stroke: #000000;
stroke-width: 0.763;
stroke-linecap: butt;
stroke-linejoin: miter;
stroke-miterlimit: 4;
}
.g6_354{
fill: none;
stroke: #FFFFFF;
stroke-width: 1.909;
stroke-linecap: butt;
stroke-linejoin: miter;
}
.g7_354{
fill: none;
stroke: #000000;
stroke-width: 0.381;
stroke-linecap: butt;
stroke-linejoin: miter;
}
]]></style>
</defs>
<path d="M135,397.4c-2.9,1,-5.5,3,-8.2,4.1c-2.8,1.1,-4.5,.8,-7.3,3.6c-2.1,2.1,-2.5,3.8,-5.4,4.6c-.9,5,-.4,8.8,2.2,13c1.5,2.5,7,9.3,10,9.5c-3.6,6.8,-8.2,13.2,-4.6,21.4c1.4,3.3,6.1,11.2,9.5,13.1c3.2,1.7,8.2,0,11.7,.6c.4,3.1,-.6,6.6,.3,9.6c1.5,4.8,6.3,10.2,9.6,13.9c7.2,8.1,25.6,22.4,35.5,13c4,9.3,13.5,17.6,23,21.3c6.5,2.5,19.6,4.2,26.2,1.6c4,-1.5,7.7,-8,11.9,-8.8c1.9,-.4,8.6,4,10.6,4.4c9.2,1.8,20.7,1.7,29.8,-.2c13.3,-2.9,19.9,-13.5,23.8,-25.4c3,6.3,19.4,1.2,23.7,-1.1c8.6,-4.5,17.5,-11.3,20.8,-20.8c2.5,-7,-4.7,-14.1,-2.8,-19.6c.9,-2.5,3.6,-4.1,5,-6.4c7.8,-12.5,4.5,-24.7,-2.5,-36.3C350.4,400.1,340.7,392,326.7,387.8c-3.6,-1.1,-6.9,-1.7,-10.6,-1.5c-2.1,.1,-3,1.3,-5.1,.8c10.5,-13.6,-26.5,-25.6,-33.1,-26.8c-16.6,-2.8,-36,.2,-51.5,6c-7.4,2.7,-14.6,6.8,-21.7,9.6c1.3,-14.7,-26.1,-10,-33.3,-7.8c-8.7,2.6,-19.5,7.9,-24.7,15.4c-3.2,4.6,-4.8,10.4,-7.6,15.2Z" class="g0_354"/>
<path d="M135,397.4c-2.9,1,-5.5,3,-8.2,4.1c-2.8,1.1,-4.5,.8,-7.3,3.6c-2.1,2.1,-2.5,3.8,-5.4,4.6c-.9,5,-.4,8.8,2.2,13c1.5,2.5,7,9.3,10,9.5c-3.6,6.8,-8.2,13.2,-4.6,21.4c1.4,3.3,6.1,11.2,9.5,13.1c3.2,1.7,8.2,0,11.7,.6c.4,3.1,-.6,6.6,.3,9.6c1.5,4.8,6.3,10.2,9.6,13.9c7.2,8.1,25.6,22.4,35.5,13c4,9.3,13.5,17.6,23,21.3c6.5,2.5,19.6,4.2,26.2,1.6c4,-1.5,7.7,-8,11.9,-8.8c1.9,-.4,8.6,4,10.6,4.4c9.2,1.8,20.7,1.7,29.8,-.2c13.3,-2.9,19.9,-13.5,23.8,-25.4c3,6.3,19.4,1.2,23.7,-1.1c8.6,-4.5,17.5,-11.3,20.8,-20.8c2.5,-7,-4.7,-14.1,-2.8,-19.6c.9,-2.5,3.6,-4.1,5,-6.4c7.8,-12.5,4.5,-24.7,-2.5,-36.3C350.4,400.1,340.7,392,326.7,387.8c-3.6,-1.1,-6.9,-1.7,-10.6,-1.5c-2.1,.1,-3,1.3,-5.1,.8c10.5,-13.6,-26.5,-25.6,-33.1,-26.8c-16.6,-2.8,-36,.2,-51.5,6c-7.4,2.7,-14.6,6.8,-21.7,9.6c1.3,-14.7,-26.1,-10,-33.3,-7.8c-8.7,2.6,-19.5,7.9,-24.7,15.4c-3.2,4.6,-4.8,10.4,-7.6,15.2" class="g1_354"/>
<path d="M225.1,580.1c5.1,-6.2,14.6,-15.9,23.8,-14.3c2.7,.5,10.7,4,12.1,6.4c-3.1,.4,-6.3,.2,-9.4,.1c2.9,.7,6.3,1.4,9.3,.9c-1.7,-2.9,-2.6,-5,-2.7,-8.6m391.4,33.5C648,590.5,644.9,583.2,635.4,584c-4.1,.5,-7.4,2.3,-10.1,5.3c-.6,1.8,-1.6,2.5,-3,2.2c.4,-2.1,1.5,-4.2,1.5,-6.4c-1.9,2.5,-3.6,6.5,-3.6,9.7c2.6,.1,5.3,-.1,7.9,-.1" class="g2_354"/>
<path d="M307,550.4c-5.3,4.3,1.4,8.4,4.5,3.1c-.8,-1.9,-2.6,-2.6,-4.5,-2.5m1.8,-19.6c-1.7,1,-3.1,2.3,-4.2,3.9c-1.8,3.8,1.6,8.1,5.7,7.5c8,-1.1,3.8,-11.7,-2.7,-9.5" class="g3_354"/>
<image clip-path="url(#c0_354)" preserveAspectRatio="none" x="238" y="575" width="172" height="286" xlink:href="img/1.jpg"/>
<image clip-path="url(#c1_354)" preserveAspectRatio="none" x="513" y="562" width="92" height="291" xlink:href="img/2.jpg"/>
<path d="M585.1,516.8c-.1,-.3,-.1,-.6,-.2,-.9c-6.2,-2.1,-4.1,13.8,3.3,8.5c7.3,-5.3,-3.7,-10.9,-5.3,-6.5Z" class="g0_354"/>
<path d="M585.1,516.8c-.1,-.3,-.1,-.6,-.2,-.9c-6.2,-2.1,-4.1,13.8,3.3,8.5c7.3,-5.3,-3.7,-10.9,-5.3,-6.5" class="g4_354"/>
<path d="M578.9,532.8c-3.3,.7,-2.8,4,-2.3,6.4c1.5,.7,3,1.1,4.5,1.1c.6,-2.7,.8,-7,-3.5,-6.4Z" class="g0_354"/>
<path d="M578.9,532.8c-3.3,.7,-2.8,4,-2.3,6.4c1.5,.7,3,1.1,4.5,1.1c.6,-2.7,.8,-7,-3.5,-6.4" class="g5_354"/>
<path d="M536.5,376.4c-3.5,1.2,-6.7,3.5,-10,4.8c-3.4,1.4,-5.5,1.1,-8.9,4.4c-2.6,2.5,-3.1,4.5,-6.6,5.4c-1.1,6.1,-.5,10.7,2.6,15.6c1.9,3,8.6,11.2,12.3,11.4c-4.5,8.1,-10,15.8,-5.7,25.5c1.8,4,7.5,13.5,11.7,15.7c3.9,2.1,10,0,14.2,.8c.6,3.7,-.7,7.8,.4,11.4c1.9,5.8,7.8,12.2,11.7,16.6c8.8,9.8,31.3,26.8,43.5,15.6c4.8,11.2,16.4,21.1,28.1,25.5c7.8,2.9,23.9,5,31.9,1.9c4.9,-1.9,9.5,-9.6,14.6,-10.5c2.3,-.5,10.5,4.7,12.9,5.2c11.2,2.2,25.4,2.1,36.5,-.3c16.1,-3.4,24.2,-16,29,-30.3c3.7,7.5,23.7,1.4,29,-1.3c10.5,-5.4,21.4,-13.5,25.5,-24.9c2.9,-8.3,-5.9,-16.8,-3.6,-23.4c1.1,-3.1,4.5,-4.9,6.2,-7.6c9.5,-15,5.5,-29.6,-3.1,-43.5c-9,-14.7,-20.8,-24.5,-37.9,-29.5c-4.4,-1.3,-8.5,-2,-13,-1.8c-2.6,.1,.5,-2.9,-2.1,-3.4c12.9,-16.3,-36.6,-26.3,-44.6,-27.6c-20.3,-3.5,-44,.2,-63,7.1c-9,3.3,-18.1,1.9,-26.7,5.2C623,326.9,589.8,338.7,581,341.3c-10.6,3.1,-23.9,9.5,-30.2,18.5c-4,5.5,-5.9,12.4,-9.3,18.2Z" class="g0_354"/>
<path d="M536.5,376.4c-3.5,1.2,-6.7,3.5,-10,4.8c-3.4,1.4,-5.5,1.1,-8.9,4.4c-2.6,2.5,-3.1,4.5,-6.6,5.4c-1.1,6.1,-.5,10.7,2.6,15.6c1.9,3,8.6,11.2,12.3,11.4c-4.5,8.1,-10,15.8,-5.7,25.5c1.8,4,7.5,13.5,11.7,15.7c3.9,2.1,10,0,14.2,.8c.6,3.7,-.7,7.8,.4,11.4c1.9,5.8,7.8,12.2,11.7,16.6c8.8,9.8,31.3,26.8,43.5,15.6c4.8,11.2,16.4,21.1,28.1,25.5c7.8,2.9,23.9,5,31.9,1.9c4.9,-1.9,9.5,-9.6,14.6,-10.5c2.3,-.5,10.5,4.7,12.9,5.2c11.2,2.2,25.4,2.1,36.5,-.3c16.1,-3.4,24.2,-16,29,-30.3c3.7,7.5,23.7,1.4,29,-1.3c10.5,-5.4,21.4,-13.5,25.5,-24.9c2.9,-8.3,-5.9,-16.8,-3.6,-23.4c1.1,-3.1,4.5,-4.9,6.2,-7.6c9.5,-15,5.5,-29.6,-3.1,-43.5c-9,-14.7,-20.8,-24.5,-37.9,-29.5c-4.4,-1.3,-8.5,-2,-13,-1.8c-2.6,.1,.5,-2.9,-2.1,-3.4c12.9,-16.3,-36.6,-26.3,-44.6,-27.6c-20.3,-3.5,-44,.2,-63,7.1c-9,3.3,-18.1,1.9,-26.7,5.2C623,326.9,589.8,338.7,581,341.3c-10.6,3.1,-23.9,9.5,-30.2,18.5c-4,5.5,-5.9,12.4,-9.3,18.2" class="g1_354"/>
<g clip-path="url(#c2_354)">
<path d="M-4.5,13.7H-27.4m939.5,0H935M-4.5,1031.2H-27.4m939.5,0H935M13.7,-4.5V-27.4m0,1077v22.9m880,-1077V-27.4m0,1077v22.9" class="g6_354"/>
<path d="M-4.5,13.7H-27.4m939.5,0H935M-4.5,1031.2H-27.4m939.5,0H935M13.7,-4.5V-27.4m0,1077v22.9m880,-1077V-27.4m0,1077v22.9" class="g7_354"/>
</g>
</svg>