<?xml version="1.0" encoding="UTF-8" standalone="no"?>
<!DOCTYPE svg PUBLIC "-//W3C//DTD SVG 1.1//EN"
"http://www.w3.org/Graphics/SVG/1.1/DTD/svg11.dtd">
<svg viewBox="0 0 770 1017" version="1.1" xmlns="http://www.w3.org/2000/svg" xmlns:xlink="http://www.w3.org/1999/xlink">
<defs>
<style type="text/css"><![CDATA[
.g0_19{
fill: none;
stroke: #000000;
stroke-width: 0.618;
stroke-linecap: butt;
stroke-linejoin: miter;
}
.g1_19{
fill: none;
stroke: #000000;
stroke-width: 0.349;
stroke-linecap: butt;
stroke-linejoin: miter;
}
.g2_19{
fill: none;
stroke: #000000;
stroke-width: 0.349;
stroke-linecap: butt;
stroke-linejoin: miter;
stroke-dasharray: 3;
}
.g3_19{
stroke: #000000;
stroke-width: 0.349;
stroke-linecap: butt;
stroke-linejoin: miter;
}
]]></style>
</defs>
<path d="M74.2,69.2H713.5" class="g0_19"/>
<path d="M451.3,187.1c1.6,-2.2,4.2,-3.5,7,-3.5c2.7,0,5.3,1.3,7,3.5m0,0c-1.8,-6.2,-7.5,-10.5,-14,-10.5c-6.5,0,-12.2,4.3,-14,10.5m0,0c5.2,-10.7,16.1,-17.5,28,-17.5c11.8,0,22.7,6.8,27.9,17.5m111.7,0C546.4,133.2,469.8,103.2,390.2,103.2c-79.6,0,-156.3,30,-214.8,83.9m317.8,0C479.8,169.9,459.1,159.8,437.3,159.8c-21.8,0,-42.4,10.1,-55.8,27.3m0,0c29,-30.8,69.4,-48.3,111.7,-48.3c42.3,0,82.7,17.5,111.7,48.3" class="g1_19"/>
<path d="M175.4,187.1c43,20.9,90.2,31.8,138,31.8c47.8,0,94.9,-10.9,137.9,-31.8" class="g2_19"/>
<path d="M454.8,187.8c0,1.5,-1.3,2.8,-2.8,2.8c-1.6,0,-2.8,-1.3,-2.8,-2.8c0,-1.6,1.2,-2.8,2.8,-2.8c1.5,0,2.8,1.2,2.8,2.8" class="g3_19"/>
<path d="M468.8,187.8c0,1.5,-1.3,2.8,-2.8,2.8c-1.6,0,-2.8,-1.3,-2.8,-2.8c0,-1.6,1.2,-2.8,2.8,-2.8c1.5,0,2.8,1.2,2.8,2.8" class="g3_19"/>
<path d="M440.8,187.8c0,1.5,-1.3,2.8,-2.8,2.8c-1.5,0,-2.8,-1.3,-2.8,-2.8c0,-1.6,1.3,-2.8,2.8,-2.8c1.5,0,2.8,1.2,2.8,2.8" class="g3_19"/>
<path d="M496.7,187.8c0,1.5,-1.3,2.8,-2.8,2.8c-1.6,0,-2.8,-1.3,-2.8,-2.8c0,-1.6,1.2,-2.8,2.8,-2.8c1.5,0,2.8,1.2,2.8,2.8" class="g3_19"/>
<path d="M608.4,187.8c0,1.5,-1.2,2.8,-2.8,2.8c-1.5,0,-2.8,-1.3,-2.8,-2.8c0,-1.6,1.3,-2.8,2.8,-2.8c1.6,0,2.8,1.2,2.8,2.8" class="g3_19"/>
<path d="M178.9,187.8c0,1.5,-1.2,2.8,-2.8,2.8c-1.5,0,-2.8,-1.3,-2.8,-2.8c0,-1.6,1.3,-2.8,2.8,-2.8c1.6,0,2.8,1.2,2.8,2.8" class="g3_19"/>
<path d="M384.9,187.8c0,1.5,-1.2,2.8,-2.8,2.8c-1.5,0,-2.8,-1.3,-2.8,-2.8c0,-1.6,1.3,-2.8,2.8,-2.8c1.6,0,2.8,1.2,2.8,2.8" class="g3_19"/>
<path d="M177.9,277.4C248,258.6,320.2,249.1,392.7,249.1c72.5,0,144.7,9.5,214.8,28.3" class="g2_19"/>
<path d="M457.3,278.1c0,1.5,-1.3,2.8,-2.8,2.8c-1.5,0,-2.8,-1.3,-2.8,-2.8c0,-1.5,1.3,-2.8,2.8,-2.8c1.5,0,2.8,1.3,2.8,2.8" class="g3_19"/>
<path d="M471.3,278.1c0,1.5,-1.3,2.8,-2.8,2.8c-1.6,0,-2.8,-1.3,-2.8,-2.8c0,-1.5,1.2,-2.8,2.8,-2.8c1.5,0,2.8,1.3,2.8,2.8" class="g3_19"/>
<path d="M443.4,278.1c0,1.5,-1.3,2.8,-2.8,2.8c-1.6,0,-2.8,-1.3,-2.8,-2.8c0,-1.5,1.2,-2.8,2.8,-2.8c1.5,0,2.8,1.3,2.8,2.8" class="g3_19"/>
<path d="M499.2,278.1c0,1.5,-1.2,2.8,-2.8,2.8c-1.5,0,-2.8,-1.3,-2.8,-2.8c0,-1.5,1.3,-2.8,2.8,-2.8c1.6,0,2.8,1.3,2.8,2.8" class="g3_19"/>
<path d="M611,278.1c0,1.5,-1.3,2.8,-2.8,2.8c-1.6,0,-2.8,-1.3,-2.8,-2.8c0,-1.5,1.2,-2.8,2.8,-2.8c1.5,0,2.8,1.3,2.8,2.8" class="g3_19"/>
<path d="M181.4,278.1c0,1.5,-1.2,2.8,-2.8,2.8c-1.5,0,-2.8,-1.3,-2.8,-2.8c0,-1.5,1.3,-2.8,2.8,-2.8c1.6,0,2.8,1.3,2.8,2.8" class="g3_19"/>
<path d="M387.5,278.1c0,1.5,-1.3,2.8,-2.8,2.8c-1.6,0,-2.8,-1.3,-2.8,-2.8c0,-1.5,1.2,-2.8,2.8,-2.8c1.5,0,2.8,1.3,2.8,2.8" class="g3_19"/>
<path d="M178,277.4H607.5" class="g1_19"/>
<path d="M83.4,348.1h621" class="g0_19"/>
</svg>