<?xml version="1.0" encoding="UTF-8" standalone="no"?>
<!DOCTYPE svg PUBLIC "-//W3C//DTD SVG 1.1//EN"
"http://www.w3.org/Graphics/SVG/1.1/DTD/svg11.dtd">
<svg viewBox="0 0 770 1017" version="1.1" xmlns="http://www.w3.org/2000/svg" xmlns:xlink="http://www.w3.org/1999/xlink">
<defs>
<style type="text/css"><![CDATA[
.g0_554{
fill: none;
stroke: #000000;
stroke-width: 0.618;
stroke-linecap: butt;
stroke-linejoin: miter;
}
.g1_554{
stroke: #000000;
stroke-width: 2.154;
stroke-linecap: butt;
stroke-linejoin: miter;
}
.g2_554{
fill: none;
stroke: #000000;
stroke-width: 2.154;
stroke-linecap: butt;
stroke-linejoin: miter;
}
]]></style>
</defs>
<path d="M56,69.2H695.2" class="g0_554"/>
<path d="M107.8,246.7c0,3,-2.4,5.4,-5.4,5.4c-2.9,0,-5.3,-2.4,-5.3,-5.4c0,-2.9,2.4,-5.3,5.3,-5.3c3,0,5.4,2.4,5.4,5.3" class="g1_554"/>
<path d="M107.8,155.2c0,3,-2.4,5.4,-5.4,5.4c-2.9,0,-5.3,-2.4,-5.3,-5.4c0,-3,2.4,-5.4,5.3,-5.4c3,0,5.4,2.4,5.4,5.4" class="g1_554"/>
<path d="M107.8,295.2c0,3,-2.4,5.4,-5.4,5.4c-2.9,0,-5.3,-2.4,-5.3,-5.4c0,-3,2.4,-5.4,5.3,-5.4c3,0,5.4,2.4,5.4,5.4" class="g1_554"/>
<path d="M107.8,203.7c0,2.9,-2.4,5.3,-5.4,5.3c-2.9,0,-5.3,-2.4,-5.3,-5.3c0,-3,2.4,-5.4,5.3,-5.4c3,0,5.4,2.4,5.4,5.4" class="g1_554"/>
<path d="M107.8,338.3c0,2.9,-2.4,5.4,-5.4,5.4c-2.9,0,-5.3,-2.5,-5.3,-5.4c0,-3,2.4,-5.4,5.3,-5.4c3,0,5.4,2.4,5.4,5.4" class="g1_554"/>
<path d="M253.2,155.2c0,3,-2.4,5.4,-5.4,5.4c-3,0,-5.4,-2.4,-5.4,-5.4c0,-3,2.4,-5.4,5.4,-5.4c3,0,5.4,2.4,5.4,5.4" class="g1_554"/>
<path d="M253.2,203.7c0,2.9,-2.4,5.3,-5.4,5.3c-3,0,-5.4,-2.4,-5.4,-5.3c0,-3,2.4,-5.4,5.4,-5.4c3,0,5.4,2.4,5.4,5.4" class="g1_554"/>
<path d="M253.2,246.7c0,3,-2.4,5.4,-5.4,5.4c-3,0,-5.4,-2.4,-5.4,-5.4c0,-2.9,2.4,-5.3,5.4,-5.3c3,0,5.4,2.4,5.4,5.3" class="g1_554"/>
<path d="M253.2,295.2c0,3,-2.4,5.4,-5.4,5.4c-3,0,-5.4,-2.4,-5.4,-5.4c0,-3,2.4,-5.4,5.4,-5.4c3,0,5.4,2.4,5.4,5.4" class="g1_554"/>
<path d="M253.2,338.3c0,2.9,-2.4,5.4,-5.4,5.4c-3,0,-5.4,-2.5,-5.4,-5.4c0,-3,2.4,-5.4,5.4,-5.4c3,0,5.4,2.4,5.4,5.4" class="g1_554"/>
<path d="M183.2,273.6c0,3,-2.4,5.4,-5.4,5.4c-2.9,0,-5.4,-2.4,-5.4,-5.4c0,-2.9,2.5,-5.3,5.4,-5.3c3,0,5.4,2.4,5.4,5.3" class="g1_554"/>
<path d="M183.2,316.7c0,3,-2.4,5.4,-5.4,5.4c-2.9,0,-5.4,-2.4,-5.4,-5.4c0,-2.9,2.5,-5.4,5.4,-5.4c3,0,5.4,2.5,5.4,5.4" class="g1_554"/>
<path d="M183.2,225.2c0,3,-2.4,5.4,-5.4,5.4c-2.9,0,-5.4,-2.4,-5.4,-5.4c0,-3,2.5,-5.4,5.4,-5.4c3,0,5.4,2.4,5.4,5.4" class="g1_554"/>
<path d="M183.2,176.7c0,3,-2.4,5.4,-5.4,5.4c-2.9,0,-5.4,-2.4,-5.4,-5.4c0,-3,2.5,-5.4,5.4,-5.4c3,0,5.4,2.4,5.4,5.4" class="g1_554"/>
<path d="M102.4,155.2H247.8L102.4,203.7l150.8,43L102.4,295.2l145.4,43.1H102.4L253.2,295.2L97,246.7l150.8,-43L102.4,155.2m0,48.5H247.8M102.4,295.2H247.8" class="g2_554"/>
<path d="M380.7,344.1V102.4" class="g0_554"/>
<path d="M485.9,244.4c0,2.9,-2.4,5.3,-5.3,5.3c-3,0,-5.4,-2.4,-5.4,-5.3c0,-3,2.4,-5.4,5.4,-5.4c2.9,0,5.3,2.4,5.3,5.4" class="g1_554"/>
<path d="M485.9,152.8c0,3,-2.4,5.4,-5.3,5.4c-3,0,-5.4,-2.4,-5.4,-5.4c0,-3,2.4,-5.4,5.4,-5.4c2.9,0,5.3,2.4,5.3,5.4" class="g1_554"/>
<path d="M485.9,292.8c0,3,-2.4,5.4,-5.3,5.4c-3,0,-5.4,-2.4,-5.4,-5.4c0,-3,2.4,-5.4,5.4,-5.4c2.9,0,5.3,2.4,5.3,5.4" class="g1_554"/>
<path d="M485.9,201.3c0,3,-2.4,5.4,-5.3,5.4c-3,0,-5.4,-2.4,-5.4,-5.4c0,-3,2.4,-5.4,5.4,-5.4c2.9,0,5.3,2.4,5.3,5.4" class="g1_554"/>
<path d="M485.9,335.9c0,3,-2.4,5.4,-5.3,5.4c-3,0,-5.4,-2.4,-5.4,-5.4c0,-3,2.4,-5.4,5.4,-5.4c2.9,0,5.3,2.4,5.3,5.4" class="g1_554"/>
<path d="M631.4,152.8c0,3,-2.5,5.4,-5.4,5.4c-3,0,-5.4,-2.4,-5.4,-5.4c0,-3,2.4,-5.4,5.4,-5.4c2.9,0,5.4,2.4,5.4,5.4" class="g1_554"/>
<path d="M631.4,201.3c0,3,-2.5,5.4,-5.4,5.4c-3,0,-5.4,-2.4,-5.4,-5.4c0,-3,2.4,-5.4,5.4,-5.4c2.9,0,5.4,2.4,5.4,5.4" class="g1_554"/>
<path d="M631.4,244.4c0,2.9,-2.5,5.3,-5.4,5.3c-3,0,-5.4,-2.4,-5.4,-5.3c0,-3,2.4,-5.4,5.4,-5.4c2.9,0,5.4,2.4,5.4,5.4" class="g1_554"/>
<path d="M631.4,292.8c0,3,-2.5,5.4,-5.4,5.4c-3,0,-5.4,-2.4,-5.4,-5.4c0,-3,2.4,-5.4,5.4,-5.4c2.9,0,5.4,2.4,5.4,5.4" class="g1_554"/>
<path d="M631.4,335.9c0,3,-2.5,5.4,-5.4,5.4c-3,0,-5.4,-2.4,-5.4,-5.4c0,-3,2.4,-5.4,5.4,-5.4c2.9,0,5.4,2.4,5.4,5.4" class="g1_554"/>
<path d="M561.3,271.3c0,2.9,-2.4,5.3,-5.3,5.3c-3,0,-5.4,-2.4,-5.4,-5.3c0,-3,2.4,-5.4,5.4,-5.4c2.9,0,5.3,2.4,5.3,5.4" class="g1_554"/>
<path d="M561.3,314.3c0,3,-2.4,5.4,-5.3,5.4c-3,0,-5.4,-2.4,-5.4,-5.4c0,-2.9,2.4,-5.3,5.4,-5.3c2.9,0,5.3,2.4,5.3,5.3" class="g1_554"/>
<path d="M561.3,222.8c0,3,-2.4,5.4,-5.3,5.4c-3,0,-5.4,-2.4,-5.4,-5.4c0,-3,2.4,-5.4,5.4,-5.4c2.9,0,5.3,2.4,5.3,5.4" class="g1_554"/>
<path d="M561.3,174.3c0,3,-2.4,5.4,-5.3,5.4c-3,0,-5.4,-2.4,-5.4,-5.4c0,-2.9,2.4,-5.4,5.4,-5.4c2.9,0,5.3,2.5,5.3,5.4" class="g1_554"/>
<path d="M480.6,152.8H626L480.6,201.3l150.8,43L480.6,292.8L626,335.9H480.6L631.4,292.8L475.2,244.3L626,201.3L480.6,152.8m0,48.5H626M480.6,292.8H626M480.6,125.9l-13.5,2.7c-9,1.8,-15.2,7.1,-18.8,16.1c-3.6,9,-4.5,19.8,-2.7,32.3c1.8,12.6,2.7,28.8,2.7,48.5c0,19.7,-.9,37.7,-2.7,53.8c-1.8,16.2,-1.8,31.5,0,45.8c1.8,14.4,5.4,24.2,10.7,29.6c5.4,5.4,15.3,9,29.7,10.8c14.3,1.8,24.2,0,29.6,-5.4c5.4,-5.4,6.3,-17.9,2.7,-37.7c-3.6,-19.7,-5.4,-35.9,-5.4,-48.4c0,-12.6,.9,-25.2,2.7,-37.7c1.8,-12.6,3.6,-24.3,5.4,-35c1.8,-10.8,.9,-18.9,-2.7,-24.3c-3.6,-5.4,-6.3,-14.3,-8.1,-26.9C508.4,137.5,503,130.4,494,128.6l-13.4,-2.7m70,0l-5.4,10.7c-3.6,7.2,-6.3,15.3,-8.1,24.3c-1.8,9,-2.7,19.7,-2.7,32.3c0,12.6,.9,22.4,2.7,29.6c1.8,7.2,2.7,16.2,2.7,26.9c0,10.8,0,22.5,0,35c0,12.6,-.9,23.4,-2.7,32.3c-1.8,9,-1.8,18,0,27c1.8,8.9,7.2,15.2,16.2,18.8c8.9,3.6,16.1,2.7,21.5,-2.7c5.4,-5.4,9,-15.2,10.8,-29.6c1.8,-14.4,1.8,-28.7,0,-43.1c-1.8,-14.3,-3.6,-25.1,-5.4,-32.3c-1.8,-7.2,-1.8,-17,0,-29.6c1.8,-12.6,3.6,-25.1,5.4,-37.7c1.8,-12.6,.9,-22.4,-2.7,-29.6c-3.6,-7.2,-5.4,-13.5,-5.4,-18.9c0,-5.3,-1.8,-8.9,-5.4,-10.7c-3.6,-1.8,-8.1,-2.7,-13.4,-2.7h-8.1m80.8,0l-13.5,2.7c-9,1.8,-14.4,4.5,-16.2,8c-1.8,3.6,-2.7,10.8,-2.7,21.6c0,10.8,.9,23.3,2.7,37.7c1.8,14.3,2.7,28.7,2.7,43.1c0,14.3,-.9,29.6,-2.7,45.7c-1.8,16.2,-3.6,30.5,-5.3,43.1c-1.8,12.6,-1.8,21.5,0,26.9c1.7,5.4,7.1,9,16.1,10.8c9,1.8,17.1,1.8,24.2,0c7.2,-1.8,12.6,-9.9,16.2,-24.2c3.6,-14.4,4.5,-27.9,2.7,-40.4c-1.8,-12.6,-3.6,-26,-5.4,-40.4c-1.8,-14.4,-.9,-29.6,2.7,-45.8c3.6,-16.1,4.5,-32.3,2.7,-48.4c-1.8,-16.2,-6.3,-27,-13.5,-32.3l-10.7,-8.1" class="g2_554"/>
<path d="M65.1,370.4h621" class="g0_554"/>
</svg>