<?xml version="1.0" encoding="UTF-8" standalone="no"?>
<!DOCTYPE svg PUBLIC "-//W3C//DTD SVG 1.1//EN"
"http://www.w3.org/Graphics/SVG/1.1/DTD/svg11.dtd">
<svg viewBox="0 0 660 990" version="1.1" xmlns="http://www.w3.org/2000/svg" xmlns:xlink="http://www.w3.org/1999/xlink">
<defs>
<clipPath id="c0_340"><path d="M85.6,751.9v-4.7h24.9v4.7Z"/></clipPath>
<clipPath id="c1_340"><path d="M110.2,751.9v-4.7h22.5v4.7Z"/></clipPath>
<clipPath id="c2_340"><path d="M132.4,751.9v-4.7H155v4.7Z"/></clipPath>
<clipPath id="c3_340"><path d="M154.7,751.9v-4.7h22.5v4.7Z"/></clipPath>
<clipPath id="c4_340"><path d="M176.9,751.9v-4.7h22.5v4.7Z"/></clipPath>
<clipPath id="c5_340"><path d="M199.1,751.9v-4.7h22.5v4.7Z"/></clipPath>
<clipPath id="c6_340"><path d="M221.3,751.9v-4.7h22.5v4.7Z"/></clipPath>
<clipPath id="c7_340"><path d="M243.5,751.9v-4.7h22.6v4.7Z"/></clipPath>
<clipPath id="c8_340"><path d="M265.8,751.9v-4.7h22.5v4.7Z"/></clipPath>
<clipPath id="c9_340"><path d="M288,751.9v-4.7h22.5v4.7Z"/></clipPath>
<clipPath id="ca_340"><path d="M310.2,751.9v-4.7h22.5v4.7Z"/></clipPath>
<clipPath id="cb_340"><path d="M332.4,751.9v-4.7h22.5v4.7Z"/></clipPath>
<clipPath id="cc_340"><path d="M354.6,751.9v-4.7h22.6v4.7Z"/></clipPath>
<clipPath id="cd_340"><path d="M376.9,751.9v-4.7h22.5v4.7Z"/></clipPath>
<clipPath id="ce_340"><path d="M399.1,751.9v-4.7h22.5v4.7Z"/></clipPath>
<clipPath id="cf_340"><path d="M421.3,751.9v-4.7h22.5v4.7Z"/></clipPath>
<clipPath id="cg_340"><path d="M443.5,751.9v-4.7H466v4.7Z"/></clipPath>
<clipPath id="ch_340"><path d="M465.7,751.9v-4.7h22.6v4.7Z"/></clipPath>
<clipPath id="ci_340"><path d="M488,751.9v-4.7h22.5v4.7Z"/></clipPath>
<clipPath id="cj_340"><path d="M510.2,751.9v-4.7h22.5v4.7Z"/></clipPath>
<clipPath id="ck_340"><path d="M532.4,751.9v-4.7h22.5v4.7Z"/></clipPath>
<clipPath id="cl_340"><path d="M554.6,751.9v-4.7H577v4.7Z"/></clipPath>
<clipPath id="cm_340"><path d="M85.6,915.9v-5.1H574.4v5.1Z"/></clipPath>
<style type="text/css"><![CDATA[
.g0_340{
fill: #231F20;
}
.g1_340{
fill: none;
stroke: #231F20;
stroke-width: 0.381;
stroke-linecap: round;
stroke-linejoin: miter;
}
.g2_340{
fill: none;
stroke: #231F20;
stroke-width: 0.763;
stroke-linecap: round;
stroke-linejoin: miter;
}
]]></style>
</defs>
<path fill-rule="evenodd" d="M85.6,627.2h24.8v22H85.6v-22Z" class="g0_340"/>
<path fill-rule="evenodd" d="M110.4,627.2h22.2v22H110.4v-22Z" class="g0_340"/>
<path fill-rule="evenodd" d="M132.6,627.2h22.2v22H132.6v-22Z" class="g0_340"/>
<path fill-rule="evenodd" d="M154.8,627.2H177v22H154.8v-22Z" class="g0_340"/>
<path fill-rule="evenodd" d="M177,627.2h22.2v22H177v-22Z" class="g0_340"/>
<path fill-rule="evenodd" d="M199.2,627.2h22.3v22H199.2v-22Z" class="g0_340"/>
<path fill-rule="evenodd" d="M221.5,627.2h22.2v22H221.5v-22Z" class="g0_340"/>
<path fill-rule="evenodd" d="M243.7,627.2h22.2v22H243.7v-22Z" class="g0_340"/>
<path fill-rule="evenodd" d="M265.9,627.2h22.2v22H265.9v-22Z" class="g0_340"/>
<path fill-rule="evenodd" d="M288.1,627.2h22.2v22H288.1v-22Z" class="g0_340"/>
<path fill-rule="evenodd" d="M310.3,627.2h22.3v22H310.3v-22Z" class="g0_340"/>
<path fill-rule="evenodd" d="M332.6,627.2h22.2v22H332.6v-22Z" class="g0_340"/>
<path fill-rule="evenodd" d="M354.8,627.2H377v22H354.8v-22Z" class="g0_340"/>
<path fill-rule="evenodd" d="M377,627.2h22.2v22H377v-22Z" class="g0_340"/>
<path fill-rule="evenodd" d="M399.2,627.2h22.2v22H399.2v-22Z" class="g0_340"/>
<path fill-rule="evenodd" d="M421.4,627.2h22.3v22H421.4v-22Z" class="g0_340"/>
<path fill-rule="evenodd" d="M443.7,627.2h22.2v22H443.7v-22Z" class="g0_340"/>
<path fill-rule="evenodd" d="M465.9,627.2h22.2v22H465.9v-22Z" class="g0_340"/>
<path fill-rule="evenodd" d="M488.1,627.2h22.2v22H488.1v-22Z" class="g0_340"/>
<path fill-rule="evenodd" d="M510.3,627.2h22.2v22H510.3v-22Z" class="g0_340"/>
<path fill-rule="evenodd" d="M532.5,627.2h22.3v22H532.5v-22Z" class="g0_340"/>
<path fill-rule="evenodd" d="M554.8,627.2H577v22H554.8v-22Z" class="g0_340"/>
<path clip-path="url(#c0_340)" d="M110.5,749.6H85.6" class="g1_340"/>
<path clip-path="url(#c1_340)" d="M132.7,749.6H110.2" class="g1_340"/>
<path clip-path="url(#c2_340)" d="M155,749.6H132.4" class="g1_340"/>
<path clip-path="url(#c3_340)" d="M177.2,749.6H154.7" class="g1_340"/>
<path clip-path="url(#c4_340)" d="M199.4,749.6H176.9" class="g1_340"/>
<path clip-path="url(#c5_340)" d="M221.6,749.6H199.1" class="g1_340"/>
<path clip-path="url(#c6_340)" d="M243.8,749.6H221.3" class="g1_340"/>
<path clip-path="url(#c7_340)" d="M266.1,749.6H243.5" class="g1_340"/>
<path clip-path="url(#c8_340)" d="M288.3,749.6H265.8" class="g1_340"/>
<path clip-path="url(#c9_340)" d="M310.5,749.6H288" class="g1_340"/>
<path clip-path="url(#ca_340)" d="M332.7,749.6H310.2" class="g1_340"/>
<path clip-path="url(#cb_340)" d="M354.9,749.6H332.4" class="g1_340"/>
<path clip-path="url(#cc_340)" d="M377.2,749.6H354.6" class="g1_340"/>
<path clip-path="url(#cd_340)" d="M399.4,749.6H376.9" class="g1_340"/>
<path clip-path="url(#ce_340)" d="M421.6,749.6H399.1" class="g1_340"/>
<path clip-path="url(#cf_340)" d="M443.8,749.6H421.3" class="g1_340"/>
<path clip-path="url(#cg_340)" d="M466,749.6H443.5" class="g1_340"/>
<path clip-path="url(#ch_340)" d="M488.3,749.6H465.7" class="g1_340"/>
<path clip-path="url(#ci_340)" d="M510.5,749.6H488" class="g1_340"/>
<path clip-path="url(#cj_340)" d="M532.7,749.6H510.2" class="g1_340"/>
<path clip-path="url(#ck_340)" d="M554.9,749.6H532.4" class="g1_340"/>
<path clip-path="url(#cl_340)" d="M577,749.6H554.6" class="g1_340"/>
<path clip-path="url(#cm_340)" d="M85.6,913.4H574.4" class="g2_340"/>
</svg>