<?xml version="1.0" encoding="UTF-8" standalone="no"?>
<!DOCTYPE svg PUBLIC "-//W3C//DTD SVG 1.1//EN"
"http://www.w3.org/Graphics/SVG/1.1/DTD/svg11.dtd">
<svg viewBox="0 0 660 990" version="1.1" xmlns="http://www.w3.org/2000/svg" xmlns:xlink="http://www.w3.org/1999/xlink">
<defs>
<clipPath id="c0_129"><path d="M86.9,199.3L85.7,197l-1.2,-2.4h491l-1.2,2.4l-1.2,2.3Z"/></clipPath>
<clipPath id="c1_129"><path d="M576.5,792.4l-2.3,-1.1l-2.4,-1.2v-592l2.4,-1.2l2.3,-1.2V792.4Z"/></clipPath>
<clipPath id="c2_129"><path d="M84.5,793.5l1.2,-2.3l1.2,-2.4H573.1l1.2,2.4l1.2,2.3Z"/></clipPath>
<clipPath id="c3_129"><path d="M83.5,792.4V195.7l2.3,1.2l2.4,1.2v592l-2.4,1.2l-2.3,1.1Z"/></clipPath>
<clipPath id="c4_129"><path d="M85.6,915.9v-5.1H574.4v5.1Z"/></clipPath>
<clipPath id="c5_129"><path d="M293,295V281.3h13.7V295Z"/></clipPath>
<clipPath id="c6_129"><path d="M275.4,353.6V339.9h13.8v13.7Z"/></clipPath>
<clipPath id="c7_129"><path d="M287.1,370.1V356.4h13.8v13.7Z"/></clipPath>
<clipPath id="c8_129"><path d="M234.5,386.6V372.9h13.8v13.7Z"/></clipPath>
<clipPath id="c9_129"><path d="M310.5,473.2V459.5h13.7v13.7Z"/></clipPath>
<clipPath id="ca_129"><path d="M205.3,517.8V504h13.8v13.8Z"/></clipPath>
<clipPath id="cb_129"><path d="M97.5,566.2V552.4h13.8v13.8Z"/></clipPath>
<clipPath id="cc_129"><path d="M97.5,599.6V585.9h13.8v13.7Z"/></clipPath>
<clipPath id="cd_129"><path d="M97.5,633.1V619.3h13.8v13.8Z"/></clipPath>
<clipPath id="ce_129"><path d="M97.5,672.3V658.5h13.8v13.8Z"/></clipPath>
<clipPath id="cf_129"><path d="M97.5,705.7V691.9h13.8v13.8Z"/></clipPath>
<clipPath id="cg_129"><path d="M97.5,755.6V741.9h13.8v13.7Z"/></clipPath>
<style type="text/css"><![CDATA[
.g0_129{
fill: none;
stroke: #231F20;
stroke-width: 0.381;
stroke-linecap: round;
stroke-linejoin: miter;
}
.g1_129{
fill: #FFFFFF;
}
.g2_129{
fill: #231F20;
}
.g3_129{
fill: none;
stroke: #231F20;
stroke-width: 1.527;
stroke-linecap: butt;
stroke-linejoin: miter;
stroke-miterlimit: 4;
}
.g4_129{
fill: none;
stroke: #231F20;
stroke-width: 0.763;
stroke-linecap: round;
stroke-linejoin: miter;
}
]]></style>
</defs>
<path clip-path="url(#c0_129)" d="M85.6,197H574.4" class="g0_129"/>
<path clip-path="url(#c1_129)" d="M574.2,196.8V791.4" class="g0_129"/>
<path clip-path="url(#c2_129)" d="M574.4,791.2H85.6" class="g0_129"/>
<path clip-path="url(#c3_129)" d="M85.8,791.4V196.8" class="g0_129"/>
<path fill-rule="evenodd" d="M597.3,913H660v77H597.3V913Z" class="g1_129"/>
<path fill-rule="evenodd" d="M597.3,446.6H660V539H597.3V446.6Z" class="g2_129"/>
<path fill-rule="evenodd" d="M597.3,0H660V77H597.3V0Z" class="g1_129"/>
<path clip-path="url(#c4_129)" d="M85.6,913.4H574.4" class="g4_129"/>
<g clip-path="url(#c5_129)">
<path d="M299.8,282.8c3,0,5.4,2.4,5.4,5.4c0,2.9,-2.4,5.3,-5.4,5.3c-2.9,0,-5.3,-2.4,-5.3,-5.3c0,-3,2.4,-5.4,5.3,-5.4Z" class="g2_129"/>
<path d="M299.8,282.8c3,0,5.4,2.4,5.4,5.4c0,2.9,-2.4,5.3,-5.4,5.3c-2.9,0,-5.3,-2.4,-5.3,-5.3c0,-3,2.4,-5.4,5.3,-5.4Z" class="g3_129"/>
<path d="M297.8,286.1h.2c1.3,0,1.6,-.6,1.6,-1.1h1.1v6.6h-1.3V287h-1.6v-.9Z" class="g1_129"/>
</g>
<g clip-path="url(#c6_129)">
<path d="M282.3,341.4c3,0,5.4,2.4,5.4,5.3c0,3,-2.4,5.4,-5.4,5.4c-2.9,0,-5.3,-2.4,-5.3,-5.4c0,-2.9,2.4,-5.3,5.3,-5.3Z" class="g2_129"/>
<path d="M282.3,341.4c3,0,5.4,2.4,5.4,5.3c0,3,-2.4,5.4,-5.4,5.4c-2.9,0,-5.3,-2.4,-5.3,-5.4c0,-2.9,2.4,-5.3,5.3,-5.3Z" class="g3_129"/>
<path d="M280,345.3c0,-2.1,1.6,-2.3,2.2,-2.3c1.3,0,2.3,.7,2.3,2.1c0,1.1,-.8,1.7,-1.4,2.1c-.9,.7,-1.3,1,-1.5,1.3h2.9v1.1h-4.6c.1,-.7,.1,-1.6,1.6,-2.6c1.2,-.9,1.7,-1.2,1.7,-2c0,-.4,-.3,-.9,-1,-.9c-.9,0,-.9,.7,-.9,1.2H280Z" class="g1_129"/>
</g>
<g clip-path="url(#c7_129)">
<path d="M294,357.9c2.9,0,5.3,2.4,5.3,5.3c0,3,-2.4,5.4,-5.3,5.4c-3,0,-5.4,-2.4,-5.4,-5.4c0,-2.9,2.4,-5.3,5.4,-5.3Z" class="g2_129"/>
<path d="M294,357.9c2.9,0,5.3,2.4,5.3,5.3c0,3,-2.4,5.4,-5.3,5.4c-3,0,-5.4,-2.4,-5.4,-5.4c0,-2.9,2.4,-5.3,5.4,-5.3Z" class="g3_129"/>
<path d="M293.5,362.4h.2c.4,0,1.2,0,1.2,-.9c0,-.2,-.2,-.9,-.9,-.9c-.9,0,-.9,.9,-.9,1.1h-1.2c0,-1.2,.7,-2.1,2.2,-2.1c.9,0,2.1,.4,2.1,1.8c0,.7,-.5,1.1,-.8,1.3c.2,.1,1,.4,1,1.6c0,1.2,-1,2.1,-2.3,2.1c-.6,0,-2.3,-.1,-2.3,-2.2h1.3c0,.4,.1,1.2,.9,1.2c.6,0,1,-.4,1,-1.1c0,-.9,-.9,-1,-1.5,-1v-.9Z" class="g1_129"/>
</g>
<g clip-path="url(#c8_129)">
<path d="M241.4,374.4c3,0,5.3,2.4,5.3,5.3c0,3,-2.3,5.4,-5.3,5.4c-3,0,-5.3,-2.4,-5.3,-5.4c0,-2.9,2.3,-5.3,5.3,-5.3Z" class="g2_129"/>
<path d="M241.4,374.4c3,0,5.3,2.4,5.3,5.3c0,3,-2.3,5.4,-5.3,5.4c-3,0,-5.3,-2.4,-5.3,-5.4c0,-2.9,2.3,-5.3,5.3,-5.3Z" class="g3_129"/>
<path d="M241.2,380.1c0,-1.6,0,-2.6,0,-2.8l-1.7,2.8h1.7Zm2,1.1h-.7v1.4h-1.3v-1.4h-2.7V380l2.5,-4h1.5v4.1h.7v1.1Z" class="g1_129"/>
</g>
<g clip-path="url(#c9_129)">
<path d="M317.4,461c2.9,0,5.3,2.4,5.3,5.4c0,2.9,-2.4,5.3,-5.3,5.3c-3,0,-5.4,-2.4,-5.4,-5.3c0,-3,2.4,-5.4,5.4,-5.4Z" class="g2_129"/>
<path d="M317.4,461c2.9,0,5.3,2.4,5.3,5.4c0,2.9,-2.4,5.3,-5.3,5.3c-3,0,-5.4,-2.4,-5.4,-5.3c0,-3,2.4,-5.4,5.4,-5.4Z" class="g3_129"/>
<path d="M316.5,465.6c.3,-.2,.6,-.4,1.2,-.4c.9,0,2,.7,2,2.2c0,.9,-.4,2.4,-2.4,2.4c-1,0,-2.1,-.7,-2.1,-2h1.3c0,.6,.3,.9,.9,.9c.6,0,1,-.5,1,-1.2c0,-.6,-.3,-1.2,-1,-1.2c-.2,0,-.6,0,-.9,.5l-1.1,-.1l.4,-3.6h3.7v1.1h-2.7l-.3,1.4Z" class="g1_129"/>
</g>
<g clip-path="url(#ca_129)">
<path d="M212.2,505.6c2.9,0,5.3,2.3,5.3,5.3c0,3,-2.4,5.3,-5.3,5.3c-3,0,-5.4,-2.3,-5.4,-5.3c0,-3,2.4,-5.3,5.4,-5.3Z" class="g2_129"/>
<path d="M212.2,505.6c2.9,0,5.3,2.3,5.3,5.3c0,3,-2.4,5.3,-5.3,5.3c-3,0,-5.4,-2.3,-5.4,-5.3c0,-3,2.4,-5.3,5.4,-5.3Z" class="g3_129"/>
<path d="M212.2,510.7c-.5,0,-1,.3,-1,1.1c0,.7,.4,1.2,1.1,1.2c.4,0,.9,-.3,.9,-1.2c0,-.9,-.6,-1.1,-1,-1.1Zm.9,-1.7c-.1,-.4,-.3,-.7,-.8,-.7c-.9,0,-1.1,1,-1.1,1.9c.2,-.3,.5,-.6,1.3,-.6c1.3,0,2,1.1,2,2.1c0,1.4,-.9,2.4,-2.2,2.4c-2,0,-2.4,-1.7,-2.4,-3.3c0,-1.3,.2,-3.5,2.5,-3.5c.2,0,1,.1,1.3,.4c.4,.4,.5,.6,.7,1.3h-1.3Z" class="g1_129"/>
</g>
<g clip-path="url(#cb_129)">
<path d="M104.4,554c2.9,0,5.3,2.4,5.3,5.3c0,3,-2.4,5.4,-5.3,5.4c-3,0,-5.4,-2.4,-5.4,-5.4c0,-2.9,2.4,-5.3,5.4,-5.3Z" class="g2_129"/>
<path d="M104.4,554c2.9,0,5.3,2.4,5.3,5.3c0,3,-2.4,5.4,-5.3,5.4c-3,0,-5.4,-2.4,-5.4,-5.4c0,-2.9,2.4,-5.3,5.4,-5.3Z" class="g3_129"/>
<path d="M102.4,557.3h.2c1.2,0,1.6,-.7,1.6,-1.2h1.1v6.7h-1.4v-4.6h-1.5v-.9Z" class="g1_129"/>
</g>
<g clip-path="url(#cc_129)">
<path d="M104.4,587.4c2.9,0,5.3,2.4,5.3,5.4c0,2.9,-2.4,5.3,-5.3,5.3c-3,0,-5.4,-2.4,-5.4,-5.3c0,-3,2.4,-5.4,5.4,-5.4Z" class="g2_129"/>
<path d="M104.4,587.4c2.9,0,5.3,2.4,5.3,5.4c0,2.9,-2.4,5.3,-5.3,5.3c-3,0,-5.4,-2.4,-5.4,-5.3c0,-3,2.4,-5.4,5.4,-5.4Z" class="g3_129"/>
<path d="M102.1,591.4c0,-2.2,1.6,-2.4,2.2,-2.4c1.3,0,2.3,.8,2.3,2.1c0,1.1,-.8,1.7,-1.4,2.2c-.9,.6,-1.4,.9,-1.5,1.2h2.9v1.2H102c.1,-.8,.1,-1.6,1.6,-2.7c1.2,-.9,1.7,-1.2,1.7,-1.9c0,-.5,-.3,-1,-1,-1c-.9,0,-.9,.8,-.9,1.3h-1.3Z" class="g1_129"/>
</g>
<g clip-path="url(#cd_129)">
<path d="M104.4,620.8c2.9,0,5.3,2.4,5.3,5.4c0,2.9,-2.4,5.3,-5.3,5.3c-3,0,-5.4,-2.4,-5.4,-5.3c0,-3,2.4,-5.4,5.4,-5.4Z" class="g2_129"/>
<path d="M104.4,620.8c2.9,0,5.3,2.4,5.3,5.4c0,2.9,-2.4,5.3,-5.3,5.3c-3,0,-5.4,-2.4,-5.4,-5.3c0,-3,2.4,-5.4,5.4,-5.4Z" class="g3_129"/>
<path d="M103.9,625.3h.2c.4,0,1.2,0,1.2,-.8c0,-.3,-.2,-.9,-.9,-.9c-.9,0,-.9,.9,-.9,1.1h-1.2c0,-1.3,.7,-2.1,2.2,-2.1c.9,0,2.1,.4,2.1,1.8c0,.7,-.5,1.1,-.8,1.3c.2,.1,1,.4,1,1.5c0,1.3,-1,2.2,-2.3,2.2c-.6,0,-2.3,-.2,-2.3,-2.2h1.3c0,.3,.1,1.1,.9,1.1c.6,0,1,-.3,1,-1.1c0,-.9,-.9,-.9,-1.5,-.9v-1Z" class="g1_129"/>
</g>
<g clip-path="url(#ce_129)">
<path d="M104.4,660c2.9,0,5.3,2.4,5.3,5.4c0,2.9,-2.4,5.3,-5.3,5.3c-3,0,-5.4,-2.4,-5.4,-5.3c0,-3,2.4,-5.4,5.4,-5.4Z" class="g2_129"/>
<path d="M104.4,660c2.9,0,5.3,2.4,5.3,5.4c0,2.9,-2.4,5.3,-5.3,5.3c-3,0,-5.4,-2.4,-5.4,-5.3c0,-3,2.4,-5.4,5.4,-5.4Z" class="g3_129"/>
<path d="M104.1,665.8c0,-1.6,.1,-2.7,.1,-2.9l-1.7,2.9h1.6Zm2.1,1h-.7v1.5h-1.4v-1.5h-2.6v-1.1l2.5,-4.1h1.5v4.2h.7v1Z" class="g1_129"/>
</g>
<g clip-path="url(#cf_129)">
<path d="M104.4,693.5c2.9,0,5.3,2.4,5.3,5.3c0,3,-2.4,5.4,-5.3,5.4c-3,0,-5.4,-2.4,-5.4,-5.4c0,-2.9,2.4,-5.3,5.4,-5.3Z" class="g2_129"/>
<path d="M104.4,693.5c2.9,0,5.3,2.4,5.3,5.3c0,3,-2.4,5.4,-5.3,5.4c-3,0,-5.4,-2.4,-5.4,-5.4c0,-2.9,2.4,-5.3,5.4,-5.3Z" class="g3_129"/>
<path d="M103.6,698.1c.2,-.2,.5,-.4,1.2,-.4c.8,0,2,.6,2,2.1c0,1,-.5,2.4,-2.4,2.4c-1.1,0,-2.1,-.6,-2.2,-1.9h1.3c.1,.5,.4,.9,.9,.9c.7,0,1,-.6,1,-1.3c0,-.6,-.3,-1.2,-.9,-1.2c-.2,0,-.7,.1,-.9,.5h-1.2l.5,-3.7h3.6v1.1h-2.7l-.2,1.5Z" class="g1_129"/>
</g>
<g clip-path="url(#cg_129)">
<path d="M104.4,743.4c2.9,0,5.3,2.4,5.3,5.3c0,3,-2.4,5.4,-5.3,5.4c-3,0,-5.4,-2.4,-5.4,-5.4c0,-2.9,2.4,-5.3,5.4,-5.3Z" class="g2_129"/>
<path d="M104.4,743.4c2.9,0,5.3,2.4,5.3,5.3c0,3,-2.4,5.4,-5.3,5.4c-3,0,-5.4,-2.4,-5.4,-5.4c0,-2.9,2.4,-5.3,5.4,-5.3Z" class="g3_129"/>
<path d="M104.4,748.5c-.5,0,-1,.3,-1,1.2c0,.7,.4,1.2,1.1,1.2c.4,0,.9,-.4,.9,-1.3c0,-.8,-.6,-1.1,-1,-1.1Zm.9,-1.7c-.1,-.4,-.3,-.6,-.8,-.6c-.9,0,-1,.9,-1.1,1.8c.2,-.2,.5,-.5,1.3,-.5c1.3,0,2,1,2,2c0,1.5,-.9,2.4,-2.2,2.4c-2,0,-2.4,-1.6,-2.4,-3.3c0,-1.3,.2,-3.5,2.5,-3.5c.3,0,1,.1,1.4,.4c.3,.4,.4,.6,.6,1.3h-1.3Z" class="g1_129"/>
</g>
</svg>