<?xml version="1.0" encoding="UTF-8" standalone="no"?>
<!DOCTYPE svg PUBLIC "-//W3C//DTD SVG 1.1//EN"
"http://www.w3.org/Graphics/SVG/1.1/DTD/svg11.dtd">
<svg viewBox="0 0 931 1096" version="1.1" xmlns="http://www.w3.org/2000/svg" xmlns:xlink="http://www.w3.org/1999/xlink">
<defs>
<clipPath id="c0_173"><path d="M108.5,1014.5V831.6H323.1v182.9Z"/></clipPath>
<style type="text/css"><![CDATA[
.g0_173{
fill: none;
stroke: #241F1F;
stroke-width: 0.763;
stroke-miterlimit: 10;
}
.g1_173{
fill: #D0007A;
}
.g2_173{
fill: none;
stroke: #00AEEF;
stroke-width: 0.763;
stroke-linejoin: round;
}
.g3_173{
fill: none;
stroke: #F8831E;
stroke-width: 0.916;
stroke-linejoin: round;
}
.g4_173{
fill: none;
stroke: #EE008C;
stroke-width: 0.763;
stroke-linejoin: round;
}
.g5_173{
fill: none;
stroke: #241F1F;
stroke-width: 0.611;
stroke-miterlimit: 3;
}
.g6_173{
fill: #241F1F;
}
.g7_173{
fill: none;
stroke: #241F1F;
stroke-width: 0.763;
stroke-linejoin: round;
}
.g8_173{
fill: none;
stroke: #00AEEF;
stroke-width: 1.145;
}
.g9_173{
fill: none;
stroke: #71C257;
stroke-width: 1.069;
stroke-linejoin: round;
}
.ga_173{
fill: none;
stroke: #9351A1;
stroke-width: 0.916;
stroke-linejoin: round;
}
.gb_173{
fill: none;
stroke: #969698;
stroke-width: 0.763;
stroke-linejoin: round;
}
.gc_173{
fill: none;
stroke: #241F1F;
stroke-width: 0.381;
stroke-miterlimit: 3;
}
.gd_173{
fill: none;
stroke: #899FAB;
stroke-width: 0.611;
stroke-miterlimit: 3;
}
.ge_173{
fill: #899FAB;
}
.gf_173{
fill: #8DA3AE;
}
.gg_173{
fill: #92A7B2;
}
.gh_173{
fill: #98ACB6;
}
.gi_173{
fill: #9CAFB9;
}
.gj_173{
fill: #A1B3BD;
}
.gk_173{
fill: #A7B8C1;
}
.gl_173{
fill: #ABBCC5;
}
.gm_173{
fill: #B1C0C9;
}
.gn_173{
fill: #B7C5CD;
}
.go_173{
fill: #BCCAD1;
}
.gp_173{
fill: #C2CED4;
}
.gq_173{
fill: #C7D2D9;
}
.gr_173{
fill: #CDD7DD;
}
.gs_173{
fill: #F2D6B4;
}
.gt_173{
fill: none;
stroke: #899FAB;
stroke-width: 0.763;
stroke-miterlimit: 3;
}
.gu_173{
fill: none;
stroke: #ECAB60;
stroke-width: 0.763;
stroke-linecap: round;
stroke-linejoin: round;
}
.gv_173{
fill: none;
stroke: #F2C287;
stroke-width: 0.763;
stroke-linecap: round;
stroke-linejoin: round;
}
.gw_173{
fill: none;
stroke: #ECAB60;
stroke-width: 0.763;
stroke-miterlimit: 3;
}
.gx_173{
fill: none;
stroke: #F2C287;
stroke-width: 0.763;
stroke-miterlimit: 3;
}
]]></style>
</defs>
<path d="M379.3,287.9h21.5m-21.5,47.4h21.5m146.3,80.9h21.5m78,0h17.3" class="g0_173"/>
<path d="M343.8,833.7c0,0,-1.6,0,-1.6,1.5v9.2c0,0,0,1.5,1.6,1.5h9.1c0,0,1.6,0,1.6,-1.5v-9.2c0,0,0,-1.5,-1.6,-1.5Z" class="g1_173"/>
<path d="M136,161.5c32.7,-14.6,58.7,-36,73.7,-57.1" class="g2_173"/>
<path d="M136,175.8c52.4,-11.5,91.2,-33.5,120.1,-71.4" class="g3_173"/>
<path d="M136,180.8c68.9,-10,107,-32.5,134.2,-61.1" class="g4_173"/>
<path d="M108.5,189.9H280" class="g5_173"/>
<path fill-rule="evenodd" d="M280,189.9l-1.6,-2.4l6.5,2.4l-6.5,2.5Z" class="g6_173"/>
<path d="M135.8,234.7V104.5" class="g5_173"/>
<path fill-rule="evenodd" d="M135.8,104.5l-2.4,1.7l2.4,-6.6l2.4,6.6Z" class="g6_173"/>
<path d="M136,132.9c11.3,-9.5,20.2,-19.3,27.2,-28.5" class="g7_173"/>
<path d="M359.6,406.1c0,0,-1.5,0,-1.5,1.6v14.1c0,0,0,1.5,1.5,1.5h14.1c0,0,1.6,0,1.6,-1.5V407.7c0,0,0,-1.6,-1.6,-1.6H359.6Z" class="g8_173"/>
<path d="M184.1,578.4c17.8,36.8,45.1,46.4,139.8,48" class="g9_173"/>
<path d="M140.9,578.9c21.8,39.6,46,47.9,183,47.9" class="ga_173"/>
<path d="M108.7,717.9c98.4,-17.8,103,-81.5,215.2,-87.5" class="g2_173"/>
<path d="M108.7,709.4c82.8,-32.5,81.4,-78.5,215.2,-81" class="g3_173"/>
<path d="M108.7,698.3c71.7,-41,78.2,-70.5,215.2,-70.5" class="g4_173"/>
<path d="M109.1,725.4H318.9" class="g5_173"/>
<path fill-rule="evenodd" d="M318.9,725.4L317.2,723l6.6,2.4l-6.6,2.4Z" class="g6_173"/>
<path fill-rule="evenodd" d="M151.9,568.2l-2.5,1.6l2.5,-6.5l2.4,6.5Z" class="g6_173"/>
<path d="M108.7,721.2c112.5,-9.7,121.9,-74.7,215.2,-87.9" class="g7_173"/>
<path d="M108.7,627.1H323.9" class="gb_173"/>
<path d="M255,678.5L224.2,630.2" class="gc_173"/>
<path d="M222.4,627.4l3.7,2.8h-1.9l-.9,1.8Z" class="g6_173"/>
<path d="M256.1,687.5l-25.7,35.9" class="gc_173"/>
<path d="M228.4,726.1l1.3,-4.5l.7,1.8l1.9,.1Z" class="g6_173"/>
<path d="M151.9,748.4V568.2" class="g5_173"/>
<path d="M170,840.1l-1.8,1.8m1.8,-3.7l-3.7,3.7m2.7,-4.6l-4.5,4.6m2.7,-4.6l-4.5,4.6m2.7,-4.6l-4.6,4.6m2.7,-4.6l-4.5,4.6m2.7,-4.6l-4.5,4.6m2.7,-4.6l-4.6,4.6m2.7,-4.6l-4.5,4.6m2.7,-4.6l-4.5,4.6m2.7,-4.6l-4.6,4.6m2.8,-4.6l-4.6,4.6m2.7,-4.6l-4.5,4.6m2.7,-4.6l-4.6,4.6m2.8,-4.6l-4.6,4.6m2.7,-4.6l-4.5,4.6m2.7,-4.6l-4.6,4.6m2.8,-4.6l-4.6,4.6m2.7,-4.6l-4.5,4.6m2.7,-4.6l-4.6,4.6m2.8,-4.6l-4.6,4.6m2.7,-4.6l-4.5,4.6m2.7,-4.6l-4.6,4.6m2.8,-4.6l-4.6,4.6m2.7,-4.6l-4.5,4.6m2.7,-4.6l-4.6,4.6m2.8,-4.6l-4.6,4.6m2.7,-4.6l-4.5,4.6m2.7,-4.6l-4.6,4.6m2.8,-4.6l-4.6,4.6m2.7,-4.6l-4.5,4.6m2.7,-4.6l-4.6,4.6m2.8,-4.6l-4.6,4.6m2.7,-4.6l-3.3,3.4m1.5,-3.4l-1.5,1.5m213.8,1.3l-1.8,1.8m1.8,-3.7l-3.6,3.7m2.7,-4.6l-4.5,4.6m2.7,-4.6l-4.6,4.6m2.7,-4.6l-4.5,4.6m2.7,-4.6l-4.5,4.6m2.7,-4.6l-4.6,4.6m2.8,-4.6l-4.6,4.6m2.7,-4.6l-4.5,4.6m2.7,-4.6l-4.6,4.6m2.8,-4.6l-4.6,4.6m2.7,-4.6l-4.5,4.6m2.7,-4.6l-4.6,4.6m2.8,-4.6l-4.6,4.6m2.7,-4.6l-4.5,4.6m2.7,-4.6l-4.6,4.6m2.8,-4.6l-4.6,4.6m2.7,-4.6l-4.5,4.6m2.7,-4.6l-4.6,4.6m2.8,-4.6l-4.6,4.6m2.7,-4.6l-4.5,4.6m2.7,-4.6l-4.6,4.6m2.8,-4.6l-4.6,4.6m2.7,-4.6l-4.5,4.6m2.7,-4.6l-4.6,4.6m2.8,-4.6l-4.6,4.6m2.7,-4.6l-4.5,4.6m2.7,-4.6l-4.6,4.6m2.8,-4.6l-4.6,4.6m2.7,-4.6l-4.5,4.6m2.7,-4.6l-4.6,4.6m2.8,-4.6l-4.6,4.6m2.7,-4.6l-4.5,4.6m2.7,-4.6l-3.4,3.4m1.6,-3.4l-1.6,1.5" class="gd_173"/>
<path d="M149.5,896.4c-.1,.8,-1,1.4,-2,1.3l-14.2,-1.8c-1,-.1,-1.7,-.9,-1.6,-1.8c.1,-.8,1,-1.4,2,-1.3l14.1,1.8c1,.2,1.8,.9,1.7,1.8Z" class="ge_173"/>
<path d="M149.5,859.7c-.1,.8,-1,1.4,-2,1.3l-14.2,-1.8c-1,-.1,-1.7,-.9,-1.6,-1.7c.1,-.9,1,-1.4,2,-1.3l14.1,1.8c1,.1,1.8,.9,1.7,1.7Z" class="ge_173"/>
<path d="M149.5,865.8c-.1,.8,-1,1.4,-2,1.3l-14.2,-1.8c-1,-.1,-1.7,-.9,-1.6,-1.7c.1,-.8,1,-1.4,2,-1.3l14.1,1.8c1,.1,1.8,.9,1.7,1.7Z" class="ge_173"/>
<path d="M149.5,871.9c-.1,.9,-1,1.4,-2,1.3l-14.2,-1.8c-1,-.1,-1.7,-.9,-1.6,-1.7c.1,-.8,1,-1.4,2,-1.3l14.1,1.8c1,.1,1.8,.9,1.7,1.7Z" class="ge_173"/>
<path d="M149.5,878c-.1,.9,-1,1.4,-2,1.3l-14.2,-1.7c-1,-.2,-1.7,-1,-1.6,-1.8c.1,-.8,1,-1.4,2,-1.3l14.1,1.8c1,.1,1.8,.9,1.7,1.7Z" class="ge_173"/>
<path d="M149.5,884.2c-.1,.8,-1,1.4,-2,1.2l-14.2,-1.7c-1,-.2,-1.7,-1,-1.6,-1.8c.1,-.8,1,-1.4,2,-1.3l14.1,1.8c1,.1,1.8,.9,1.7,1.8Z" class="ge_173"/>
<path d="M149.5,890.3c-.1,.8,-1,1.4,-2,1.2l-14.2,-1.7c-1,-.2,-1.7,-.9,-1.6,-1.8c.1,-.8,1,-1.4,2,-1.3l14.1,1.8c1,.1,1.8,.9,1.7,1.8Z" class="ge_173"/>
<path d="M149.5,853.6c-.1,.8,-1,1.4,-2,1.3l-14.2,-1.8c-1,-.1,-1.7,-.9,-1.6,-1.7c.1,-.9,1,-1.5,2,-1.3l14.1,1.7c1,.2,1.8,1,1.7,1.8Z" class="ge_173"/>
<path fill-rule="evenodd" d="M147.9,855l-14,4c-1,.3,-2,-.1,-2.2,-.9c-.3,-.8,.4,-1.7,1.4,-2l13.9,-4c1.1,-.3,2.1,.1,2.3,.9c.2,.8,-.4,1.7,-1.4,2Z" class="ge_173"/>
<path fill-rule="evenodd" d="M147.8,855L134,858.9c-1,.3,-1.9,-.1,-2.2,-.9c-.2,-.7,.4,-1.6,1.4,-1.9L147,852.2c.9,-.3,1.9,.1,2.1,.9c.3,.8,-.4,1.6,-1.3,1.9Z" class="gf_173"/>
<path fill-rule="evenodd" d="M147.6,855l-13.5,3.9c-.9,.2,-1.9,-.2,-2.1,-.9c-.2,-.8,.4,-1.6,1.3,-1.9l13.6,-3.9c.9,-.2,1.9,.2,2.1,.9c.2,.8,-.4,1.6,-1.4,1.9Z" class="gg_173"/>
<path fill-rule="evenodd" d="M147.5,855l-13.3,3.8c-.9,.3,-1.8,-.1,-2,-.8c-.3,-.8,.3,-1.6,1.2,-1.8l13.4,-3.9c.9,-.2,1.8,.1,2,.9c.2,.7,-.4,1.5,-1.3,1.8Z" class="gh_173"/>
<path fill-rule="evenodd" d="M147.4,855l-13.1,3.7c-.9,.3,-1.8,-.1,-2,-.8c-.2,-.7,.4,-1.5,1.2,-1.7l13.2,-3.8c.9,-.3,1.7,.1,1.9,.8c.2,.7,-.3,1.5,-1.2,1.8Z" class="gi_173"/>
<path fill-rule="evenodd" d="M147.3,854.9l-12.9,3.8c-.9,.2,-1.7,-.2,-1.9,-.8c-.2,-.7,.3,-1.5,1.2,-1.7l12.9,-3.7c.8,-.3,1.7,.1,1.9,.8c.2,.7,-.4,1.4,-1.2,1.6Z" class="gj_173"/>
<path fill-rule="evenodd" d="M147.2,854.9l-12.7,3.7c-.9,.2,-1.7,-.1,-1.9,-.8c-.2,-.6,.4,-1.4,1.2,-1.6l12.7,-3.6c.8,-.3,1.6,.1,1.8,.7c.2,.7,-.3,1.4,-1.1,1.6Z" class="gk_173"/>
<path fill-rule="evenodd" d="M147,854.9l-12.5,3.6c-.7,.2,-1.5,-.1,-1.7,-.7c-.2,-.6,.3,-1.3,1.1,-1.6l12.5,-3.6c.8,-.2,1.6,.1,1.7,.8c.2,.6,-.3,1.3,-1.1,1.5Z" class="gl_173"/>
<path fill-rule="evenodd" d="M146.9,854.9l-12.3,3.5c-.7,.3,-1.5,0,-1.7,-.7c-.1,-.6,.3,-1.2,1.1,-1.4l12.3,-3.6c.8,-.2,1.5,.1,1.7,.7c.2,.6,-.3,1.3,-1.1,1.5Z" class="gm_173"/>
<path fill-rule="evenodd" d="M146.8,854.9l-12.1,3.5c-.7,.2,-1.4,-.1,-1.6,-.7c-.2,-.6,.3,-1.2,1,-1.4l12.1,-3.5c.7,-.2,1.4,.1,1.6,.7c.2,.6,-.3,1.2,-1,1.4Z" class="gn_173"/>
<path fill-rule="evenodd" d="M146.7,854.9l-11.9,3.4c-.7,.2,-1.4,-.1,-1.5,-.6c-.2,-.6,.2,-1.2,.9,-1.4l11.9,-3.4c.7,-.2,1.4,.1,1.5,.6c.2,.6,-.2,1.2,-.9,1.4Z" class="go_173"/>
<path fill-rule="evenodd" d="M146.6,854.9l-11.7,3.3c-.7,.2,-1.3,0,-1.5,-.6c-.1,-.5,.3,-1.1,.9,-1.3L146,853c.7,-.2,1.3,0,1.5,.6c.1,.5,-.3,1.1,-.9,1.3Z" class="gp_173"/>
<path fill-rule="evenodd" d="M146.4,854.9L135,858.2c-.7,.1,-1.3,-.1,-1.4,-.6c-.2,-.5,.2,-1.1,.9,-1.3L145.9,853c.7,-.1,1.3,.1,1.4,.6c.2,.5,-.2,1.1,-.9,1.3Z" class="gq_173"/>
<path fill-rule="evenodd" d="M146.3,854.8l-11.2,3.3c-.6,.2,-1.2,-.1,-1.4,-.6c-.1,-.4,.3,-1,.9,-1.1l11.2,-3.3c.6,-.1,1.2,.1,1.4,.6c.1,.4,-.3,1,-.9,1.1Z" class="gr_173"/>
<path fill-rule="evenodd" d="M147.9,861.1l-14,4c-1,.3,-2,-.1,-2.2,-.9c-.3,-.8,.4,-1.7,1.4,-2l13.9,-4c1.1,-.3,2.1,.1,2.3,.9c.2,.8,-.4,1.7,-1.4,2Z" class="ge_173"/>
<path fill-rule="evenodd" d="M147.8,861.1l-13.8,4c-1,.2,-1.9,-.2,-2.2,-1c-.2,-.7,.4,-1.6,1.4,-1.9L147,858.3c.9,-.3,1.9,.1,2.1,.9c.3,.8,-.4,1.6,-1.3,1.9Z" class="gf_173"/>
<path fill-rule="evenodd" d="M147.6,861.1L134.1,865c-.9,.3,-1.9,-.1,-2.1,-.9c-.2,-.8,.4,-1.6,1.3,-1.9l13.6,-3.8c.9,-.3,1.9,.1,2.1,.8c.2,.8,-.4,1.6,-1.4,1.9Z" class="gg_173"/>
<path fill-rule="evenodd" d="M147.5,861.1l-13.3,3.8c-.9,.3,-1.8,-.1,-2,-.8c-.3,-.8,.3,-1.6,1.2,-1.8l13.4,-3.9c.9,-.2,1.8,.1,2,.9c.2,.7,-.4,1.5,-1.3,1.8Z" class="gh_173"/>
<path fill-rule="evenodd" d="M147.4,861.1l-13.1,3.7c-.9,.3,-1.8,-.1,-2,-.8c-.2,-.7,.4,-1.5,1.2,-1.7l13.2,-3.8c.9,-.2,1.7,.1,1.9,.8c.2,.7,-.3,1.5,-1.2,1.8Z" class="gi_173"/>
<path fill-rule="evenodd" d="M147.3,861.1l-12.9,3.7c-.9,.2,-1.7,-.1,-1.9,-.8c-.2,-.7,.3,-1.4,1.2,-1.7l12.9,-3.7c.8,-.2,1.7,.1,1.9,.8c.2,.7,-.4,1.4,-1.2,1.7Z" class="gj_173"/>
<path fill-rule="evenodd" d="M147.2,861l-12.7,3.7c-.9,.2,-1.7,-.1,-1.9,-.8c-.2,-.6,.4,-1.3,1.2,-1.6l12.7,-3.6c.8,-.3,1.6,.1,1.8,.7c.2,.7,-.3,1.4,-1.1,1.6Z" class="gk_173"/>
<path fill-rule="evenodd" d="M147,861l-12.5,3.6c-.7,.3,-1.5,-.1,-1.7,-.7c-.2,-.6,.3,-1.3,1.1,-1.5l12.5,-3.7c.8,-.2,1.6,.2,1.7,.8c.2,.6,-.3,1.3,-1.1,1.5Z" class="gl_173"/>
<path fill-rule="evenodd" d="M146.9,861l-12.3,3.6c-.7,.2,-1.5,-.1,-1.7,-.7c-.1,-.6,.3,-1.3,1.1,-1.5l12.3,-3.6c.8,-.2,1.5,.1,1.7,.7c.2,.6,-.3,1.3,-1.1,1.5Z" class="gm_173"/>
<path fill-rule="evenodd" d="M146.8,861l-12.1,3.5c-.7,.2,-1.4,-.1,-1.6,-.7c-.2,-.6,.3,-1.2,1,-1.4l12.1,-3.5c.7,-.2,1.4,.1,1.6,.7c.2,.6,-.3,1.2,-1,1.4Z" class="gn_173"/>
<path fill-rule="evenodd" d="M146.7,861l-11.9,3.4c-.7,.2,-1.4,-.1,-1.5,-.6c-.2,-.6,.2,-1.2,.9,-1.4L146.1,859c.7,-.2,1.4,.1,1.5,.6c.2,.6,-.2,1.2,-.9,1.4Z" class="go_173"/>
<path fill-rule="evenodd" d="M146.6,861l-11.7,3.3c-.7,.2,-1.3,0,-1.5,-.6c-.1,-.5,.3,-1.1,.9,-1.3L146,859.1c.7,-.2,1.3,.1,1.5,.6c.1,.5,-.3,1.1,-.9,1.3Z" class="gp_173"/>
<path fill-rule="evenodd" d="M146.4,861L135,864.3c-.7,.1,-1.3,-.1,-1.4,-.6c-.2,-.5,.2,-1.1,.9,-1.2l11.4,-3.3c.7,-.2,1.3,0,1.4,.5c.2,.5,-.2,1.1,-.9,1.3Z" class="gq_173"/>
<path fill-rule="evenodd" d="M146.3,860.9l-11.2,3.3c-.6,.2,-1.2,-.1,-1.4,-.5c-.1,-.5,.3,-1,.9,-1.2l11.2,-3.3c.6,-.1,1.2,.1,1.4,.6c.1,.5,-.3,1,-.9,1.1Z" class="gr_173"/>
<path fill-rule="evenodd" d="M147.9,867.2l-14,4c-1,.3,-2,-.1,-2.2,-.9c-.3,-.8,.4,-1.7,1.4,-2l13.9,-4c1.1,-.3,2.1,.1,2.3,.9c.2,.9,-.4,1.8,-1.4,2Z" class="ge_173"/>
<path fill-rule="evenodd" d="M147.8,867.2l-13.8,4c-1,.2,-1.9,-.2,-2.2,-.9c-.2,-.8,.4,-1.7,1.4,-2L147,864.4c.9,-.3,1.9,.1,2.1,.9c.3,.8,-.4,1.6,-1.3,1.9Z" class="gf_173"/>
<path fill-rule="evenodd" d="M147.6,867.2l-13.5,3.9c-.9,.3,-1.9,-.1,-2.1,-.9c-.2,-.7,.4,-1.6,1.3,-1.9l13.6,-3.8c.9,-.3,1.9,.1,2.1,.8c.2,.8,-.4,1.6,-1.4,1.9Z" class="gg_173"/>
<path fill-rule="evenodd" d="M147.5,867.2L134.2,871c-.9,.3,-1.8,-.1,-2,-.8c-.3,-.8,.3,-1.6,1.2,-1.8l13.4,-3.9c.9,-.2,1.8,.2,2,.9c.2,.7,-.4,1.5,-1.3,1.8Z" class="gh_173"/>
<path fill-rule="evenodd" d="M147.4,867.2L134.3,871c-.9,.2,-1.8,-.2,-2,-.9c-.2,-.7,.4,-1.5,1.2,-1.7l13.2,-3.8c.9,-.2,1.7,.1,1.9,.8c.2,.7,-.3,1.5,-1.2,1.8Z" class="gi_173"/>
<path fill-rule="evenodd" d="M147.3,867.2l-12.9,3.7c-.9,.2,-1.7,-.1,-1.9,-.8c-.2,-.7,.3,-1.4,1.2,-1.7l12.9,-3.7c.8,-.2,1.7,.1,1.9,.8c.2,.7,-.4,1.4,-1.2,1.7Z" class="gj_173"/>
<path fill-rule="evenodd" d="M147.2,867.2l-12.7,3.6c-.9,.2,-1.7,-.1,-1.9,-.7c-.2,-.7,.4,-1.4,1.2,-1.7l12.7,-3.6c.8,-.2,1.6,.1,1.8,.7c.2,.7,-.3,1.4,-1.1,1.7Z" class="gk_173"/>
<path fill-rule="evenodd" d="M147,867.2l-12.5,3.5c-.7,.3,-1.5,-.1,-1.7,-.7c-.2,-.6,.3,-1.3,1.1,-1.5l12.5,-3.6c.8,-.3,1.6,.1,1.7,.7c.2,.6,-.3,1.3,-1.1,1.6Z" class="gl_173"/>
<path fill-rule="evenodd" d="M146.9,867.1l-12.3,3.6c-.7,.2,-1.5,-.1,-1.7,-.7c-.1,-.6,.3,-1.3,1.1,-1.5L146.3,865c.8,-.3,1.5,0,1.7,.7c.2,.5,-.3,1.2,-1.1,1.4Z" class="gm_173"/>
<path fill-rule="evenodd" d="M146.8,867.1l-12.1,3.5c-.7,.2,-1.4,-.1,-1.6,-.7c-.2,-.5,.3,-1.2,1,-1.4L146.2,865c.7,-.2,1.4,.1,1.6,.7c.2,.6,-.3,1.2,-1,1.4Z" class="gn_173"/>
<path fill-rule="evenodd" d="M146.7,867.1l-11.9,3.4c-.7,.2,-1.4,-.1,-1.5,-.6c-.2,-.6,.2,-1.2,.9,-1.4l11.9,-3.4c.7,-.2,1.4,.1,1.5,.6c.2,.6,-.2,1.2,-.9,1.4Z" class="go_173"/>
<path fill-rule="evenodd" d="M146.6,867.1l-11.7,3.4c-.7,.1,-1.3,-.1,-1.5,-.7c-.1,-.5,.3,-1.1,.9,-1.2L146,865.2c.7,-.2,1.3,.1,1.5,.6c.1,.5,-.3,1.1,-.9,1.3Z" class="gp_173"/>
<path fill-rule="evenodd" d="M146.4,867.1L135,870.4c-.7,.2,-1.3,-.1,-1.4,-.6c-.2,-.5,.2,-1,.9,-1.2l11.4,-3.3c.7,-.2,1.3,0,1.4,.6c.2,.4,-.2,1,-.9,1.2Z" class="gq_173"/>
<path fill-rule="evenodd" d="M146.3,867.1l-11.2,3.2c-.6,.2,-1.2,-.1,-1.4,-.5c-.1,-.5,.3,-1,.9,-1.2l11.2,-3.3c.6,-.1,1.2,.1,1.4,.6c.1,.5,-.3,1,-.9,1.2Z" class="gr_173"/>
<path fill-rule="evenodd" d="M147.9,873.4l-14,3.9c-1,.3,-2,-.1,-2.2,-.9c-.3,-.8,.4,-1.7,1.4,-2l13.9,-4c1.1,-.3,2.1,.1,2.3,1c.2,.8,-.4,1.7,-1.4,2Z" class="ge_173"/>
<path fill-rule="evenodd" d="M147.8,873.3l-13.8,4c-1,.3,-1.9,-.2,-2.2,-.9c-.2,-.8,.4,-1.7,1.4,-2L147,870.5c.9,-.3,1.9,.1,2.1,.9c.3,.8,-.4,1.6,-1.3,1.9Z" class="gf_173"/>
<path fill-rule="evenodd" d="M147.6,873.3l-13.5,3.9c-.9,.3,-1.9,-.1,-2.1,-.9c-.2,-.7,.4,-1.6,1.3,-1.8l13.6,-3.9c.9,-.3,1.9,.1,2.1,.9c.2,.7,-.4,1.5,-1.4,1.8Z" class="gg_173"/>
<path fill-rule="evenodd" d="M147.5,873.3l-13.3,3.8c-.9,.3,-1.8,-.1,-2,-.8c-.3,-.7,.3,-1.6,1.2,-1.8l13.4,-3.9c.9,-.2,1.8,.2,2,.9c.2,.7,-.4,1.5,-1.3,1.8Z" class="gh_173"/>
<path fill-rule="evenodd" d="M147.4,873.3l-13.1,3.8c-.9,.2,-1.8,-.2,-2,-.9c-.2,-.7,.4,-1.4,1.2,-1.7l13.2,-3.8c.9,-.2,1.7,.1,1.9,.9c.2,.7,-.3,1.4,-1.2,1.7Z" class="gi_173"/>
<path fill-rule="evenodd" d="M147.3,873.3L134.4,877c-.9,.2,-1.7,-.1,-1.9,-.8c-.2,-.7,.3,-1.4,1.2,-1.7l12.9,-3.7c.8,-.2,1.7,.1,1.9,.8c.2,.7,-.4,1.4,-1.2,1.7Z" class="gj_173"/>
<path fill-rule="evenodd" d="M147.2,873.3l-12.7,3.6c-.9,.3,-1.7,-.1,-1.9,-.7c-.2,-.7,.4,-1.4,1.2,-1.7l12.7,-3.6c.8,-.2,1.6,.1,1.8,.8c.2,.6,-.3,1.3,-1.1,1.6Z" class="gk_173"/>
<path fill-rule="evenodd" d="M147,873.2l-12.5,3.7c-.7,.2,-1.5,-.2,-1.7,-.8c-.2,-.6,.3,-1.3,1.1,-1.5L146.4,871c.8,-.3,1.6,.1,1.7,.7c.2,.6,-.3,1.3,-1.1,1.5Z" class="gl_173"/>
<path fill-rule="evenodd" d="M146.9,873.2l-12.3,3.6c-.7,.2,-1.5,-.1,-1.7,-.7c-.1,-.6,.3,-1.3,1.1,-1.5l12.3,-3.5c.8,-.3,1.5,.1,1.7,.7c.2,.6,-.3,1.2,-1.1,1.4Z" class="gm_173"/>
<path fill-rule="evenodd" d="M146.8,873.2l-12.1,3.5c-.7,.2,-1.4,-.1,-1.6,-.7c-.2,-.5,.3,-1.2,1,-1.4l12.1,-3.5c.7,-.2,1.4,.1,1.6,.7c.2,.6,-.3,1.2,-1,1.4Z" class="gn_173"/>
<path fill-rule="evenodd" d="M146.7,873.2l-11.9,3.4c-.7,.2,-1.4,-.1,-1.5,-.6c-.2,-.6,.2,-1.2,.9,-1.4l11.9,-3.4c.7,-.2,1.4,.1,1.5,.7c.2,.5,-.2,1.1,-.9,1.3Z" class="go_173"/>
<path fill-rule="evenodd" d="M146.6,873.2l-11.7,3.4c-.7,.2,-1.3,-.1,-1.5,-.6c-.1,-.6,.3,-1.1,.9,-1.3L146,871.3c.7,-.2,1.3,.1,1.5,.6c.1,.5,-.3,1.1,-.9,1.3Z" class="gp_173"/>
<path fill-rule="evenodd" d="M146.4,873.2L135,876.5c-.7,.2,-1.3,-.1,-1.4,-.6c-.2,-.5,.2,-1,.9,-1.2l11.4,-3.3c.7,-.2,1.3,.1,1.4,.6c.2,.5,-.2,1,-.9,1.2Z" class="gq_173"/>
<path fill-rule="evenodd" d="M146.3,873.2l-11.2,3.2c-.6,.2,-1.2,-.1,-1.4,-.5c-.1,-.5,.3,-1,.9,-1.2l11.2,-3.2c.6,-.2,1.2,0,1.4,.5c.1,.5,-.3,1,-.9,1.2Z" class="gr_173"/>
<path fill-rule="evenodd" d="M147.9,879.5l-14,4c-1,.2,-2,-.2,-2.2,-1c-.3,-.8,.4,-1.7,1.4,-2l13.9,-4c1.1,-.3,2.1,.2,2.3,1c.2,.8,-.4,1.7,-1.4,2Z" class="ge_173"/>
<path fill-rule="evenodd" d="M147.8,879.4l-13.8,4c-1,.3,-1.9,-.1,-2.2,-.9c-.2,-.8,.4,-1.7,1.4,-2L147,876.6c.9,-.3,1.9,.1,2.1,.9c.3,.8,-.4,1.7,-1.3,1.9Z" class="gf_173"/>
<path fill-rule="evenodd" d="M147.6,879.4l-13.5,3.9c-.9,.3,-1.9,-.1,-2.1,-.9c-.2,-.7,.4,-1.6,1.3,-1.8l13.6,-3.9c.9,-.3,1.9,.1,2.1,.9c.2,.7,-.4,1.6,-1.4,1.8Z" class="gg_173"/>
<path fill-rule="evenodd" d="M147.5,879.4l-13.3,3.8c-.9,.3,-1.8,-.1,-2,-.8c-.3,-.7,.3,-1.5,1.2,-1.8l13.4,-3.8c.9,-.3,1.8,.1,2,.8c.2,.7,-.4,1.6,-1.3,1.8Z" class="gh_173"/>
<path fill-rule="evenodd" d="M147.4,879.4l-13.1,3.8c-.9,.2,-1.8,-.1,-2,-.8c-.2,-.8,.4,-1.5,1.2,-1.8l13.2,-3.8c.9,-.2,1.7,.2,1.9,.9c.2,.7,-.3,1.5,-1.2,1.7Z" class="gi_173"/>
<path fill-rule="evenodd" d="M147.3,879.4l-12.9,3.7c-.9,.2,-1.7,-.1,-1.9,-.8c-.2,-.7,.3,-1.4,1.2,-1.7l12.9,-3.7c.8,-.2,1.7,.1,1.9,.8c.2,.7,-.4,1.4,-1.2,1.7Z" class="gj_173"/>
<path fill-rule="evenodd" d="M147.2,879.4L134.5,883c-.9,.3,-1.7,-.1,-1.9,-.7c-.2,-.7,.4,-1.4,1.2,-1.6L146.5,877c.8,-.2,1.6,.1,1.8,.8c.2,.6,-.3,1.3,-1.1,1.6Z" class="gk_173"/>
<path fill-rule="evenodd" d="M147,879.4L134.5,883c-.7,.2,-1.5,-.1,-1.7,-.8c-.2,-.6,.3,-1.3,1.1,-1.5l12.5,-3.6c.8,-.2,1.6,.1,1.7,.7c.2,.6,-.3,1.3,-1.1,1.6Z" class="gl_173"/>
<path fill-rule="evenodd" d="M146.9,879.4l-12.3,3.5c-.7,.2,-1.5,-.1,-1.7,-.7c-.1,-.6,.3,-1.3,1.1,-1.5l12.3,-3.5c.8,-.3,1.5,.1,1.7,.7c.2,.6,-.3,1.2,-1.1,1.5Z" class="gm_173"/>
<path fill-rule="evenodd" d="M146.8,879.3l-12.1,3.5c-.7,.2,-1.4,-.1,-1.6,-.6c-.2,-.6,.3,-1.3,1,-1.5l12.1,-3.5c.7,-.2,1.4,.1,1.6,.7c.2,.6,-.3,1.2,-1,1.4Z" class="gn_173"/>
<path fill-rule="evenodd" d="M146.7,879.3l-11.9,3.4c-.7,.2,-1.4,0,-1.5,-.6c-.2,-.5,.2,-1.2,.9,-1.4l11.9,-3.4c.7,-.2,1.4,.1,1.5,.7c.2,.5,-.2,1.1,-.9,1.3Z" class="go_173"/>
<path fill-rule="evenodd" d="M146.6,879.3l-11.7,3.4c-.7,.2,-1.3,-.1,-1.5,-.6c-.1,-.6,.3,-1.1,.9,-1.3L146,877.4c.7,-.2,1.3,.1,1.5,.6c.1,.5,-.3,1.1,-.9,1.3Z" class="gp_173"/>
<path fill-rule="evenodd" d="M146.4,879.3L135,882.6c-.7,.2,-1.3,-.1,-1.4,-.6c-.2,-.5,.2,-1,.9,-1.2l11.4,-3.3c.7,-.2,1.3,.1,1.4,.6c.2,.5,-.2,1,-.9,1.2Z" class="gq_173"/>
<path fill-rule="evenodd" d="M146.3,879.3l-11.2,3.2c-.6,.2,-1.2,0,-1.4,-.5c-.1,-.5,.3,-1,.9,-1.2l11.2,-3.2c.6,-.2,1.2,0,1.4,.5c.1,.5,-.3,1,-.9,1.2Z" class="gr_173"/>
<path fill-rule="evenodd" d="M147.9,885.6l-14,4c-1,.3,-2,-.2,-2.2,-1c-.3,-.8,.4,-1.7,1.4,-2l13.9,-4c1.1,-.3,2.1,.2,2.3,1c.2,.8,-.4,1.7,-1.4,2Z" class="ge_173"/>
<path fill-rule="evenodd" d="M147.8,885.6L134,889.5c-1,.3,-1.9,-.1,-2.2,-.9c-.2,-.8,.4,-1.7,1.4,-1.9l13.8,-4c.9,-.3,1.9,.1,2.1,.9c.3,.8,-.4,1.7,-1.3,2Z" class="gf_173"/>
<path fill-rule="evenodd" d="M147.6,885.5l-13.5,3.9c-.9,.3,-1.9,-.1,-2.1,-.9c-.2,-.7,.4,-1.5,1.3,-1.8l13.6,-3.9c.9,-.3,1.9,.1,2.1,.9c.2,.7,-.4,1.6,-1.4,1.8Z" class="gg_173"/>
<path fill-rule="evenodd" d="M147.5,885.5l-13.3,3.9c-.9,.2,-1.8,-.2,-2,-.9c-.3,-.7,.3,-1.5,1.2,-1.8l13.4,-3.8c.9,-.3,1.8,.1,2,.8c.2,.8,-.4,1.6,-1.3,1.8Z" class="gh_173"/>
<path fill-rule="evenodd" d="M147.4,885.5l-13.1,3.8c-.9,.2,-1.8,-.1,-2,-.8c-.2,-.7,.4,-1.5,1.2,-1.8l13.2,-3.8c.9,-.2,1.7,.2,1.9,.9c.2,.7,-.3,1.5,-1.2,1.7Z" class="gi_173"/>
<path fill-rule="evenodd" d="M147.3,885.5l-12.9,3.7c-.9,.3,-1.7,-.1,-1.9,-.8c-.2,-.7,.3,-1.4,1.2,-1.6L146.6,883c.8,-.2,1.7,.1,1.9,.8c.2,.7,-.4,1.5,-1.2,1.7Z" class="gj_173"/>
<path fill-rule="evenodd" d="M147.2,885.5l-12.7,3.6c-.9,.3,-1.7,-.1,-1.9,-.7c-.2,-.7,.4,-1.4,1.2,-1.6l12.7,-3.7c.8,-.2,1.6,.1,1.8,.8c.2,.6,-.3,1.4,-1.1,1.6Z" class="gk_173"/>
<path fill-rule="evenodd" d="M147,885.5l-12.5,3.6c-.7,.2,-1.5,-.1,-1.7,-.8c-.2,-.6,.3,-1.3,1.1,-1.5l12.5,-3.6c.8,-.2,1.6,.1,1.7,.7c.2,.7,-.3,1.4,-1.1,1.6Z" class="gl_173"/>
<path fill-rule="evenodd" d="M146.9,885.5L134.6,889c-.7,.2,-1.5,-.1,-1.7,-.7c-.1,-.6,.3,-1.3,1.1,-1.5l12.3,-3.5c.8,-.2,1.5,.1,1.7,.7c.2,.6,-.3,1.2,-1.1,1.5Z" class="gm_173"/>
<path fill-rule="evenodd" d="M146.8,885.5l-12.1,3.4c-.7,.2,-1.4,-.1,-1.6,-.6c-.2,-.6,.3,-1.3,1,-1.5l12.1,-3.4c.7,-.3,1.4,.1,1.6,.6c.2,.6,-.3,1.2,-1,1.5Z" class="gn_173"/>
<path fill-rule="evenodd" d="M146.7,885.4l-11.9,3.5c-.7,.2,-1.4,-.1,-1.5,-.7c-.2,-.5,.2,-1.1,.9,-1.3l11.9,-3.5c.7,-.2,1.4,.1,1.5,.7c.2,.5,-.2,1.1,-.9,1.3Z" class="go_173"/>
<path fill-rule="evenodd" d="M146.6,885.4l-11.7,3.4c-.7,.2,-1.3,-.1,-1.5,-.6c-.1,-.5,.3,-1.1,.9,-1.3L146,883.5c.7,-.2,1.3,.1,1.5,.6c.1,.6,-.3,1.1,-.9,1.3Z" class="gp_173"/>
<path fill-rule="evenodd" d="M146.4,885.4L135,888.7c-.7,.2,-1.3,-.1,-1.4,-.6c-.2,-.5,.2,-1,.9,-1.2l11.4,-3.3c.7,-.2,1.3,.1,1.4,.6c.2,.5,-.2,1,-.9,1.2Z" class="gq_173"/>
<path fill-rule="evenodd" d="M146.3,885.4l-11.2,3.2c-.6,.2,-1.2,0,-1.4,-.5c-.1,-.5,.3,-1,.9,-1.2l11.2,-3.2c.6,-.2,1.2,.1,1.4,.5c.1,.5,-.3,1,-.9,1.2Z" class="gr_173"/>
<path fill-rule="evenodd" d="M147.9,891.7l-14,4c-1,.3,-2,-.1,-2.2,-1c-.3,-.8,.4,-1.7,1.4,-2l13.9,-4c1.1,-.3,2.1,.2,2.3,1c.2,.8,-.4,1.7,-1.4,2Z" class="ge_173"/>
<path fill-rule="evenodd" d="M147.8,891.7L134,895.6c-1,.3,-1.9,-.1,-2.2,-.9c-.2,-.8,.4,-1.7,1.4,-1.9l13.8,-4c.9,-.3,1.9,.2,2.1,.9c.3,.8,-.4,1.7,-1.3,2Z" class="gf_173"/>
<path fill-rule="evenodd" d="M147.6,891.7l-13.5,3.8c-.9,.3,-1.9,-.1,-2.1,-.8c-.2,-.8,.4,-1.6,1.3,-1.9l13.6,-3.9c.9,-.3,1.9,.1,2.1,.9c.2,.7,-.4,1.6,-1.4,1.9Z" class="gg_173"/>
<path fill-rule="evenodd" d="M147.5,891.6l-13.3,3.9c-.9,.2,-1.8,-.1,-2,-.9c-.3,-.7,.3,-1.5,1.2,-1.8L146.8,889c.9,-.3,1.8,.1,2,.8c.2,.8,-.4,1.6,-1.3,1.8Z" class="gh_173"/>
<path fill-rule="evenodd" d="M147.4,891.6l-13.1,3.8c-.9,.2,-1.8,-.1,-2,-.8c-.2,-.7,.4,-1.5,1.2,-1.8l13.2,-3.7c.9,-.3,1.7,.1,1.9,.8c.2,.7,-.3,1.5,-1.2,1.7Z" class="gi_173"/>
<path fill-rule="evenodd" d="M147.3,891.6l-12.9,3.7c-.9,.3,-1.7,-.1,-1.9,-.8c-.2,-.6,.3,-1.4,1.2,-1.6l12.9,-3.7c.8,-.3,1.7,.1,1.9,.7c.2,.7,-.4,1.5,-1.2,1.7Z" class="gj_173"/>
<path fill-rule="evenodd" d="M147.2,891.6l-12.7,3.6c-.9,.3,-1.7,0,-1.9,-.7c-.2,-.7,.4,-1.4,1.2,-1.6l12.7,-3.7c.8,-.2,1.6,.1,1.8,.8c.2,.6,-.3,1.4,-1.1,1.6Z" class="gk_173"/>
<path fill-rule="evenodd" d="M147,891.6l-12.5,3.6c-.7,.2,-1.5,-.1,-1.7,-.7c-.2,-.7,.3,-1.4,1.1,-1.6l12.5,-3.6c.8,-.2,1.6,.1,1.7,.7c.2,.7,-.3,1.4,-1.1,1.6Z" class="gl_173"/>
<path fill-rule="evenodd" d="M146.9,891.6l-12.3,3.5c-.7,.2,-1.5,-.1,-1.7,-.7c-.1,-.6,.3,-1.3,1.1,-1.5l12.3,-3.5c.8,-.2,1.5,.1,1.7,.7c.2,.6,-.3,1.3,-1.1,1.5Z" class="gm_173"/>
<path fill-rule="evenodd" d="M146.8,891.6L134.7,895c-.7,.2,-1.4,-.1,-1.6,-.6c-.2,-.6,.3,-1.2,1,-1.4l12.1,-3.5c.7,-.2,1.4,.1,1.6,.6c.2,.6,-.3,1.3,-1,1.5Z" class="gn_173"/>
<path fill-rule="evenodd" d="M146.7,891.5L134.8,895c-.7,.2,-1.4,-.1,-1.5,-.7c-.2,-.5,.2,-1.1,.9,-1.3l11.9,-3.5c.7,-.2,1.4,.1,1.5,.7c.2,.5,-.2,1.2,-.9,1.3Z" class="go_173"/>
<path fill-rule="evenodd" d="M146.6,891.5l-11.7,3.4c-.7,.2,-1.3,-.1,-1.5,-.6c-.1,-.5,.3,-1.1,.9,-1.3L146,889.6c.7,-.2,1.3,.1,1.5,.6c.1,.6,-.3,1.2,-.9,1.3Z" class="gp_173"/>
<path fill-rule="evenodd" d="M146.4,891.5L135,894.8c-.7,.2,-1.3,-.1,-1.4,-.5c-.2,-.6,.2,-1.1,.9,-1.3l11.4,-3.3c.7,-.2,1.3,.1,1.4,.6c.2,.5,-.2,1.1,-.9,1.2Z" class="gq_173"/>
<path fill-rule="evenodd" d="M146.3,891.5l-11.2,3.3c-.6,.1,-1.2,-.1,-1.4,-.6c-.1,-.5,.3,-1,.9,-1.2l11.2,-3.2c.6,-.2,1.2,.1,1.4,.5c.1,.5,-.3,1,-.9,1.2Z" class="gr_173"/>
<path fill-rule="evenodd" d="M134,853c-1,.3,-2,-.1,-2.3,-.9c-.2,-.9,.4,-1.8,1.5,-2L137,849c.8,-.1,1.1,-.4,1.1,-1.1v-6.1h3v8c0,.9,-.3,1.4,-.9,1.5Z" class="ge_173"/>
<path fill-rule="evenodd" d="M134,852.9c-1,.3,-1.9,-.1,-2.1,-.9c-.3,-.8,.3,-1.6,1.3,-1.9l4,-1c.7,-.2,1,-.5,1,-1.1v-6.2h2.9v8c0,.8,-.4,1.3,-.9,1.5Z" class="gf_173"/>
<path fill-rule="evenodd" d="M134,852.8c-.9,.3,-1.8,-.1,-2,-.8c-.2,-.8,.3,-1.6,1.3,-1.8l4,-1.1c.6,-.1,.9,-.4,.9,-1v-6.3H141v8c0,.8,-.3,1.2,-.9,1.4Z" class="gg_173"/>
<path fill-rule="evenodd" d="M134,852.8c-.8,.2,-1.7,-.1,-1.9,-.9c-.2,-.7,.4,-1.4,1.2,-1.7l4.1,-1c.6,-.2,.9,-.4,.9,-1v-6.4h2.6v8c0,.7,-.3,1.2,-.8,1.3Z" class="gh_173"/>
<path fill-rule="evenodd" d="M134.1,852.7c-.9,.2,-1.7,-.1,-1.9,-.8c-.2,-.6,.4,-1.4,1.2,-1.6l4.1,-1.1c.6,-.2,.8,-.4,.8,-.9v-6.5h2.5v8c0,.7,-.3,1.1,-.8,1.2Z" class="gi_173"/>
<path fill-rule="evenodd" d="M134.1,852.6c-.8,.2,-1.6,-.1,-1.7,-.7c-.2,-.6,.3,-1.3,1,-1.5l4.2,-1.2c.6,-.1,.8,-.3,.8,-.9v-6.5h2.3v8c0,.6,-.2,1,-.7,1.2Z" class="gj_173"/>
<path fill-rule="evenodd" d="M134.1,852.5c-.7,.2,-1.5,-.1,-1.6,-.7c-.2,-.5,.3,-1.2,1,-1.4l4.2,-1.1c.5,-.2,.8,-.4,.8,-.9v-6.6h2.1v8c0,.6,-.2,1,-.6,1.1Z" class="gk_173"/>
<path fill-rule="evenodd" d="M134.1,852.4c-.7,.2,-1.3,0,-1.5,-.6c-.2,-.5,.3,-1.1,.9,-1.3l4.3,-1.2c.5,-.1,.7,-.3,.7,-.8v-6.7h2.1v8c0,.6,-.3,.9,-.7,1Z" class="gl_173"/>
<path fill-rule="evenodd" d="M134.1,852.4c-.6,.1,-1.2,-.1,-1.4,-.6c-.1,-.5,.3,-1.1,.9,-1.3l4.3,-1.2c.5,-.1,.7,-.3,.7,-.7v-6.8h1.9v8c0,.5,-.2,.9,-.6,.9Z" class="gm_173"/>
<path fill-rule="evenodd" d="M134.1,852.3c-.5,.2,-1.1,-.1,-1.3,-.5c-.1,-.5,.3,-1,.9,-1.2l4.3,-1.2c.5,-.1,.6,-.3,.6,-.7v-6.9h1.8v8c0,.5,-.2,.8,-.6,.9Z" class="gn_173"/>
<path fill-rule="evenodd" d="M134.2,852.2c-.6,.2,-1.1,-.1,-1.2,-.5c-.2,-.4,.2,-.9,.7,-1l4.4,-1.3c.4,-.1,.6,-.2,.6,-.6v-7h1.6v8c0,.4,-.2,.7,-.5,.8Z" class="go_173"/>
<path fill-rule="evenodd" d="M134.2,852.1c-.5,.2,-1,0,-1.1,-.4c-.1,-.4,.2,-.9,.7,-1l4.4,-1.3c.4,0,.5,-.2,.5,-.5v-7.1h1.5v8c0,.4,-.1,.7,-.4,.7Z" class="gp_173"/>
<path fill-rule="evenodd" d="M134.2,852.1c-.5,.1,-.9,-.1,-1,-.5c-.1,-.3,.2,-.7,.6,-.8l4.6,-1.3c.3,-.1,.4,-.2,.4,-.5v-7.2h1.3v8c0,.4,-.1,.6,-.4,.7Z" class="gq_173"/>
<path fill-rule="evenodd" d="M134.2,852c-.4,.1,-.8,-.1,-.9,-.4c-.1,-.3,.2,-.7,.6,-.8l4.6,-1.3c.3,-.1,.4,-.2,.4,-.5v-7.2h1.2v8c0,.3,-.2,.5,-.4,.6Z" class="gr_173"/>
<path fill-rule="evenodd" d="M147.2,894.5c1,-.3,2,.1,2.3,.9c.2,.9,-.4,1.8,-1.5,2l-3.8,1.1c-.8,.1,-1.1,.4,-1.1,1.1v6.1H140v-8c0,-.8,.4,-1.4,1,-1.5Z" class="ge_173"/>
<path fill-rule="evenodd" d="M147.2,894.6c.9,-.3,1.9,.1,2.1,.9c.3,.8,-.3,1.6,-1.3,1.9l-4,1c-.7,.2,-1,.5,-1,1.1v6.2h-2.9v-8c0,-.8,.4,-1.3,.9,-1.5Z" class="gf_173"/>
<path fill-rule="evenodd" d="M147.2,894.7c.9,-.3,1.8,.1,2,.8c.2,.8,-.4,1.6,-1.3,1.8l-4,1.1c-.6,.1,-.9,.4,-.9,1v6.3h-2.8v-8c0,-.8,.3,-1.2,.9,-1.4Z" class="gg_173"/>
<path fill-rule="evenodd" d="M147.1,894.7c.9,-.2,1.8,.1,2,.9c.2,.6,-.4,1.4,-1.2,1.7l-4.1,1c-.6,.2,-.9,.4,-.9,1v6.4h-2.6v-8c0,-.7,.3,-1.2,.8,-1.3Z" class="gh_173"/>
<path fill-rule="evenodd" d="M147.1,894.8c.9,-.2,1.7,.1,1.9,.8c.2,.6,-.4,1.4,-1.2,1.6l-4.1,1.1c-.6,.2,-.8,.4,-.8,.9v6.5h-2.5v-8c0,-.7,.3,-1.1,.8,-1.2Z" class="gi_173"/>
<path fill-rule="evenodd" d="M147.1,894.9c.8,-.2,1.6,.1,1.7,.7c.2,.6,-.3,1.3,-1,1.5l-4.2,1.2c-.6,.1,-.8,.3,-.8,.9v6.5h-2.3v-8c0,-.7,.2,-1,.7,-1.2Z" class="gj_173"/>
<path fill-rule="evenodd" d="M147.1,895c.7,-.2,1.5,.1,1.6,.7c.2,.5,-.3,1.2,-1,1.4l-4.2,1.1c-.5,.2,-.8,.4,-.8,.9v6.6h-2.2v-8c0,-.6,.3,-1,.7,-1.1Z" class="gk_173"/>
<path fill-rule="evenodd" d="M147.1,895c.7,-.1,1.3,.1,1.5,.7c.2,.5,-.3,1.1,-.9,1.3l-4.3,1.2c-.5,.1,-.7,.3,-.7,.8v6.7h-2.1v-8c0,-.6,.3,-.9,.7,-1Z" class="gl_173"/>
<path fill-rule="evenodd" d="M147.1,895.1c.6,-.2,1.2,.1,1.4,.6c.1,.5,-.3,1.1,-.9,1.3l-4.3,1.2c-.5,.1,-.7,.3,-.7,.7v6.8h-1.9v-8c0,-.5,.2,-.8,.6,-1Z" class="gm_173"/>
<path fill-rule="evenodd" d="M147.1,895.2c.5,-.2,1.1,.1,1.3,.6c.1,.4,-.3,.9,-.9,1.1l-4.3,1.2c-.5,.1,-.6,.3,-.6,.7v6.9h-1.8v-8c0,-.5,.2,-.8,.6,-.9Z" class="gn_173"/>
<path fill-rule="evenodd" d="M147,895.3c.6,-.2,1.1,.1,1.2,.5c.2,.4,-.2,.9,-.7,1.1l-4.4,1.2c-.4,.1,-.6,.2,-.6,.6v7h-1.6v-8c0,-.4,.2,-.7,.5,-.8Z" class="go_173"/>
<path fill-rule="evenodd" d="M147,895.4c.5,-.2,1,0,1.1,.4c.1,.4,-.2,.9,-.7,1l-4.4,1.3c-.4,0,-.6,.2,-.6,.5v7.1H141v-8c0,-.4,.1,-.7,.4,-.7Z" class="gp_173"/>
<path fill-rule="evenodd" d="M147,895.4c.4,-.1,.9,.1,1,.5c.1,.3,-.2,.7,-.6,.8l-4.6,1.3c-.3,.1,-.4,.2,-.4,.5v7.2h-1.3v-8c0,-.4,.1,-.6,.4,-.7Z" class="gq_173"/>
<path fill-rule="evenodd" d="M147,895.5c.4,-.1,.8,.1,.9,.4c.1,.3,-.2,.6,-.6,.8l-4.6,1.3c-.3,.1,-.4,.2,-.4,.5v7.2h-1.2v-8c0,-.3,.2,-.5,.4,-.6Z" class="gr_173"/>
<path d="M301.7,957.7c-.3,.8,-1.3,1.1,-2.2,.7l-12.4,-5.7c-.9,-.4,-1.4,-1.4,-1.1,-2.2c.3,-.8,1.3,-1.1,2.2,-.7l12.4,5.7c.9,.5,1.4,1.4,1.1,2.2Z" class="ge_173"/>
<path fill-rule="evenodd" d="M300.8,958.5l-3.4,2.1c-.7,.3,-1.2,1.1,-1.2,1.8v5.4h-3.1v-7.4c0,-.8,.1,-.9,.6,-1.2l5.5,-3.4c.9,-.5,2,-.4,2.5,.3c.4,.7,.1,1.8,-.9,2.4Z" class="ge_173"/>
<path fill-rule="evenodd" d="M300.7,958.4l-3.5,2.1c-.6,.4,-1.1,1.1,-1.1,1.8v5.5h-3v-7.4c0,-.8,.1,-.8,.6,-1.2l5.5,-3.3c.8,-.5,1.9,-.4,2.3,.3c.5,.7,.1,1.7,-.8,2.2Z" class="gf_173"/>
<path fill-rule="evenodd" d="M300.6,958.4l-3.5,2.1c-.6,.4,-1.1,1.1,-1.1,1.7v5.6h-2.8v-7.4c0,-.8,.1,-.8,.5,-1.1l5.4,-3.3c.9,-.5,1.9,-.4,2.3,.2c.4,.7,0,1.7,-.8,2.2Z" class="gg_173"/>
<path fill-rule="evenodd" d="M300.5,958.4l-3.5,2.1c-.6,.3,-1.1,1,-1.1,1.6v5.7h-2.7v-7.4c0,-.7,.1,-.8,.6,-1.1l5.3,-3.2c.8,-.5,1.7,-.4,2.1,.2c.4,.6,.1,1.6,-.7,2.1Z" class="gh_173"/>
<path fill-rule="evenodd" d="M300.4,958.3l-3.6,2.2c-.5,.3,-1,.9,-1,1.5v5.8h-2.6v-7.4c0,-.7,.1,-.8,.6,-1l5.2,-3.3c.8,-.4,1.7,-.3,2.1,.3c.3,.6,.1,1.5,-.7,1.9Z" class="gi_173"/>
<path fill-rule="evenodd" d="M300.3,958.3l-3.6,2.2c-.6,.3,-1,.9,-1,1.4v5.9h-2.4v-7.4q0,-.7,.5,-1l5.2,-3.2c.7,-.4,1.6,-.3,1.9,.2c.4,.6,.1,1.4,-.6,1.9Z" class="gj_173"/>
<path fill-rule="evenodd" d="M300.2,958.3l-3.7,2.2c-.5,.3,-.9,.8,-.9,1.4v5.9h-2.3v-7.4c0,-.7,.1,-.7,.5,-.9l5.2,-3.2c.6,-.4,1.5,-.3,1.8,.2c.3,.5,0,1.3,-.6,1.8Z" class="gk_173"/>
<path fill-rule="evenodd" d="M300.1,958.2l-3.7,2.3c-.5,.2,-.9,.8,-.9,1.3v6h-2.2v-7.4c0,-.6,.1,-.7,.5,-.9l5.1,-3.1c.7,-.4,1.4,-.4,1.7,.2c.4,.5,.1,1.2,-.5,1.6Z" class="gl_173"/>
<path fill-rule="evenodd" d="M299.9,958.2l-3.7,2.3c-.4,.2,-.8,.7,-.8,1.2v6.1h-2v-7.4q0,-.6,.4,-.8l5.1,-3.2c.6,-.3,1.3,-.3,1.6,.2c.3,.5,0,1.2,-.6,1.6Z" class="gm_173"/>
<path fill-rule="evenodd" d="M299.8,958.2l-3.7,2.2c-.4,.3,-.8,.7,-.8,1.2v6.2h-1.9v-7.4c0,-.6,.1,-.6,.4,-.8l5,-3.1c.6,-.3,1.3,-.3,1.5,.2c.3,.4,.1,1.1,-.5,1.5Z" class="gn_173"/>
<path fill-rule="evenodd" d="M299.7,958.1l-3.8,2.3c-.4,.3,-.7,.7,-.7,1.1v6.3h-1.8v-7.5c0,-.4,.1,-.5,.4,-.7l5,-3c.5,-.3,1.1,-.3,1.4,.2c.3,.4,.1,1,-.5,1.3Z" class="go_173"/>
<path fill-rule="evenodd" d="M299.6,958.1l-3.8,2.3c-.4,.2,-.7,.6,-.7,1v6.4h-1.6v-7.5q0,-.4,.3,-.6l4.9,-3c.5,-.3,1.1,-.3,1.4,.1c.2,.4,0,1,-.5,1.3Z" class="gp_173"/>
<path fill-rule="evenodd" d="M299.5,958.1l-3.9,2.3c-.3,.2,-.6,.6,-.6,.9v6.5h-1.5v-7.5q0,-.4,.3,-.6l4.9,-3c.4,-.3,1,-.2,1.2,.2c.2,.3,0,.9,-.4,1.2Z" class="gq_173"/>
<path fill-rule="evenodd" d="M299.4,958l-3.9,2.4c-.3,.2,-.6,.5,-.6,.8v6.6h-1.4v-7.5c0,-.4,.1,-.4,.3,-.5l4.9,-3c.4,-.3,.9,-.2,1.1,.1c.2,.4,0,.9,-.4,1.1Z" class="gr_173"/>
<path d="M301.7,943.7c-.3,.8,-1.3,1.1,-2.2,.7l-12.4,-5.7c-.9,-.4,-1.4,-1.4,-1.1,-2.2c.3,-.8,1.3,-1.1,2.2,-.7l12.4,5.7c.9,.4,1.4,1.4,1.1,2.2Z" class="ge_173"/>
<path d="M301.7,929.7c-.3,.8,-1.3,1.1,-2.2,.7l-12.4,-5.7c-.9,-.5,-1.4,-1.4,-1.1,-2.2c.3,-.8,1.3,-1.1,2.2,-.7l12.4,5.7c.9,.4,1.4,1.4,1.1,2.2Z" class="ge_173"/>
<path d="M301.7,915.7c-.3,.8,-1.3,1.1,-2.2,.6l-12.4,-5.7c-.9,-.4,-1.4,-1.4,-1.1,-2.2c.3,-.7,1.3,-1.1,2.2,-.6l12.4,5.7c.9,.4,1.4,1.4,1.1,2.2Z" class="ge_173"/>
<path d="M301.7,901.6c-.3,.8,-1.3,1.1,-2.2,.7l-12.4,-5.7c-.9,-.4,-1.4,-1.4,-1.1,-2.2c.3,-.8,1.3,-1.1,2.2,-.7l12.4,5.7c.9,.5,1.4,1.4,1.1,2.2Z" class="ge_173"/>
<path d="M301.7,887.6c-.3,.8,-1.3,1.1,-2.2,.7l-12.4,-5.7c-.9,-.4,-1.4,-1.4,-1.1,-2.2c.3,-.8,1.3,-1.1,2.2,-.7l12.4,5.7c.9,.4,1.4,1.4,1.1,2.2Z" class="ge_173"/>
<path d="M301.7,873.6c-.3,.8,-1.3,1.1,-2.2,.7l-12.4,-5.7c-.9,-.5,-1.4,-1.4,-1.1,-2.2c.3,-.8,1.3,-1.1,2.2,-.7l12.4,5.7c.9,.4,1.4,1.4,1.1,2.2Z" class="ge_173"/>
<path d="M301.7,859.6c-.3,.8,-1.3,1.1,-2.2,.6l-12.4,-5.7c-.9,-.4,-1.4,-1.4,-1.1,-2.2c.3,-.7,1.3,-1.1,2.2,-.6l12.4,5.7c.9,.4,1.4,1.4,1.1,2.2Z" class="ge_173"/>
<path fill-rule="evenodd" d="M286.6,851.1l3.4,-2c.7,-.4,1.3,-1.2,1.3,-1.9v-5.4h3v7.4c0,.8,-.1,.9,-.6,1.2l-5.5,3.4c-.9,.6,-2,.4,-2.4,-.3c-.5,-.7,-.1,-1.8,.8,-2.4Z" class="ge_173"/>
<path fill-rule="evenodd" d="M286.7,851.2l3.5,-2.1c.6,-.4,1.2,-1.1,1.2,-1.8v-5.5h2.9v7.4c0,.8,-.1,.9,-.6,1.2l-5.5,3.3c-.8,.6,-1.8,.4,-2.3,-.3c-.4,-.7,-.1,-1.7,.8,-2.2Z" class="gf_173"/>
<path fill-rule="evenodd" d="M286.8,851.2l3.5,-2.1c.7,-.3,1.2,-1,1.2,-1.7v-5.6h2.8v7.4c0,.8,-.1,.8,-.6,1.1l-5.4,3.3c-.8,.6,-1.8,.4,-2.2,-.2c-.5,-.7,-.1,-1.7,.7,-2.2Z" class="gg_173"/>
<path fill-rule="evenodd" d="M286.9,851.2l3.6,-2.1c.6,-.3,1.1,-1,1.1,-1.6v-5.7h2.6v7.4q0,.8,-.5,1.1l-5.4,3.3c-.7,.5,-1.7,.4,-2.1,-.3c-.4,-.6,-.1,-1.5,.7,-2.1Z" class="gh_173"/>
<path fill-rule="evenodd" d="M287,851.3l3.6,-2.2c.6,-.3,1.1,-.9,1.1,-1.5v-5.8h2.5v7.4c0,.7,-.1,.8,-.5,1l-5.3,3.3c-.8,.5,-1.7,.4,-2,-.3c-.4,-.6,-.1,-1.4,.6,-1.9Z" class="gi_173"/>
<path fill-rule="evenodd" d="M287.1,851.3l3.7,-2.2c.5,-.3,.9,-.9,.9,-1.4v-5.9h2.5v7.4c0,.7,-.1,.7,-.5,1l-5.3,3.2c-.7,.5,-1.5,.4,-1.9,-.2c-.3,-.6,-.1,-1.4,.6,-1.9Z" class="gj_173"/>
<path fill-rule="evenodd" d="M287.3,851.4l3.6,-2.3c.5,-.2,.9,-.8,.9,-1.3v-6h2.3v7.4q0,.7,-.4,.9l-5.2,3.2c-.7,.5,-1.5,.4,-1.9,-.2c-.3,-.5,0,-1.3,.7,-1.7Z" class="gk_173"/>
<path fill-rule="evenodd" d="M287.4,851.4l3.7,-2.2c.4,-.3,.8,-.8,.8,-1.4v-6h2.2v7.5c0,.5,-.1,.6,-.4,.8l-5.2,3.2c-.6,.4,-1.4,.3,-1.7,-.3c-.3,-.5,-.1,-1.2,.6,-1.6Z" class="gl_173"/>
<path fill-rule="evenodd" d="M287.5,851.4l3.7,-2.2c.5,-.3,.8,-.8,.8,-1.3v-6.1h2.1v7.5c0,.5,-.1,.6,-.4,.8l-5.1,3.1c-.6,.4,-1.4,.3,-1.7,-.2c-.3,-.5,0,-1.2,.6,-1.6Z" class="gm_173"/>
<path fill-rule="evenodd" d="M287.6,851.5l3.8,-2.3c.4,-.3,.7,-.7,.7,-1.2v-6.2H294v7.5q0,.5,-.4,.7l-5,3.1c-.6,.4,-1.2,.3,-1.5,-.2c-.3,-.4,-.1,-1.1,.5,-1.4Z" class="gn_173"/>
<path fill-rule="evenodd" d="M287.7,851.5l3.8,-2.3c.4,-.2,.7,-.7,.7,-1.1v-6.3H294v7.5q0,.5,-.4,.7l-4.9,3c-.6,.4,-1.2,.3,-1.5,-.1c-.2,-.5,0,-1.1,.5,-1.4Z" class="go_173"/>
<path fill-rule="evenodd" d="M287.8,851.5l3.9,-2.3c.3,-.2,.6,-.6,.6,-1v-6.4H294v7.5c0,.4,-.1,.5,-.4,.6l-4.9,3.1c-.5,.3,-1.1,.2,-1.3,-.2c-.3,-.4,-.1,-1,.4,-1.3Z" class="gp_173"/>
<path fill-rule="evenodd" d="M287.9,851.6l3.9,-2.4c.3,-.2,.6,-.6,.6,-.9v-6.5h1.5v7.5q0,.4,-.3,.6l-4.8,3c-.5,.3,-1,.2,-1.3,-.2c-.2,-.3,0,-.9,.4,-1.1Z" class="gq_173"/>
<path fill-rule="evenodd" d="M288,851.6l3.9,-2.4c.3,-.2,.6,-.5,.6,-.8v-6.6h1.4v7.5q0,.4,-.3,.5l-4.8,3c-.4,.3,-.9,.2,-1.1,-.1c-.2,-.4,-.1,-.8,.3,-1.1Z" class="gr_173"/>
<path fill-rule="evenodd" d="M286.8,865.4l12.5,-7.6c.9,-.6,2,-.4,2.4,.3c.4,.7,.1,1.8,-.9,2.3l-12.4,7.7c-.9,.5,-2,.4,-2.4,-.4c-.5,-.7,-.1,-1.8,.8,-2.3Z" class="ge_173"/>
<path fill-rule="evenodd" d="M286.9,865.4l12.3,-7.5c.9,-.6,2,-.4,2.4,.3c.4,.7,0,1.7,-.8,2.2L288.4,868c-.8,.5,-1.9,.4,-2.3,-.3c-.4,-.7,0,-1.7,.8,-2.3Z" class="gf_173"/>
<path fill-rule="evenodd" d="M287,865.5L299.2,858c.9,-.5,1.9,-.4,2.3,.3c.4,.7,0,1.6,-.8,2.1l-12.2,7.5c-.8,.5,-1.8,.4,-2.2,-.3c-.4,-.6,-.1,-1.6,.7,-2.1Z" class="gg_173"/>
<path fill-rule="evenodd" d="M287.1,865.5l12.1,-7.4c.8,-.5,1.8,-.4,2.1,.3c.4,.6,.1,1.6,-.7,2l-12.1,7.5c-.8,.5,-1.7,.3,-2.1,-.3c-.4,-.7,0,-1.6,.7,-2.1Z" class="gh_173"/>
<path fill-rule="evenodd" d="M287.3,865.5l11.9,-7.3c.7,-.5,1.6,-.4,2,.3c.4,.6,.1,1.5,-.7,1.9l-11.9,7.4c-.8,.5,-1.7,.3,-2.1,-.3c-.3,-.6,0,-1.5,.8,-2Z" class="gi_173"/>
<path fill-rule="evenodd" d="M287.3,865.6l11.9,-7.3c.7,-.4,1.6,-.3,1.9,.3c.3,.6,0,1.4,-.7,1.8l-11.8,7.3c-.7,.5,-1.6,.4,-1.9,-.2c-.4,-.6,-.1,-1.5,.6,-1.9Z" class="gj_173"/>
<path fill-rule="evenodd" d="M287.5,865.6l11.6,-7.2c.7,-.4,1.6,-.3,1.9,.3c.3,.5,0,1.3,-.7,1.7l-11.6,7.3c-.7,.4,-1.6,.3,-1.9,-.3c-.3,-.5,0,-1.3,.7,-1.8Z" class="gk_173"/>
<path fill-rule="evenodd" d="M287.6,865.7l11.5,-7.2c.7,-.4,1.4,-.3,1.8,.2c.3,.6,0,1.3,-.6,1.7l-11.6,7.2c-.7,.4,-1.4,.3,-1.8,-.2c-.3,-.6,0,-1.3,.7,-1.7Z" class="gl_173"/>
<path fill-rule="evenodd" d="M287.7,865.7l11.4,-7.1c.6,-.4,1.3,-.3,1.6,.2c.3,.5,.1,1.3,-.5,1.6l-11.5,7.1c-.6,.4,-1.3,.3,-1.6,-.2c-.3,-.5,-.1,-1.2,.6,-1.6Z" class="gm_173"/>
<path fill-rule="evenodd" d="M287.8,865.7l11.3,-7c.5,-.3,1.2,-.2,1.5,.2c.3,.5,.1,1.2,-.5,1.6l-11.3,7c-.6,.3,-1.3,.2,-1.6,-.2c-.3,-.5,0,-1.2,.6,-1.6Z" class="gn_173"/>
<path fill-rule="evenodd" d="M287.9,865.8l11.1,-7c.6,-.3,1.2,-.2,1.5,.2c.3,.5,0,1.1,-.5,1.5l-11.2,6.9c-.5,.3,-1.2,.3,-1.5,-.2c-.2,-.4,0,-1.1,.6,-1.4Z" class="go_173"/>
<path fill-rule="evenodd" d="M288,865.8l11,-6.9c.5,-.3,1.1,-.2,1.4,.2c.2,.4,0,1,-.5,1.4l-11,6.8c-.5,.4,-1.2,.3,-1.4,-.1c-.3,-.5,0,-1.1,.5,-1.4Z" class="gp_173"/>
<path fill-rule="evenodd" d="M288.1,865.9L299,859c.5,-.3,1,-.2,1.3,.2c.2,.4,0,1,-.5,1.3l-10.9,6.8c-.5,.3,-1.1,.2,-1.3,-.2c-.2,-.4,0,-.9,.5,-1.2Z" class="gq_173"/>
<path fill-rule="evenodd" d="M288.2,865.9L299,859.1c.4,-.2,.9,-.2,1.1,.2c.3,.4,.1,.9,-.4,1.2l-10.8,6.7c-.4,.3,-.9,.2,-1.1,-.1c-.3,-.4,-.1,-.9,.4,-1.2Z" class="gr_173"/>
<path fill-rule="evenodd" d="M286.8,879.4l12.5,-7.6c.9,-.6,2,-.4,2.4,.3c.4,.8,.1,1.8,-.9,2.4l-12.4,7.6c-.9,.5,-2,.4,-2.4,-.3c-.5,-.8,-.1,-1.8,.8,-2.4Z" class="ge_173"/>
<path fill-rule="evenodd" d="M286.9,879.5l12.3,-7.6c.9,-.5,2,-.4,2.4,.3c.4,.7,0,1.7,-.8,2.3L288.4,882c-.8,.6,-1.9,.4,-2.3,-.3c-.4,-.7,0,-1.7,.8,-2.2Z" class="gf_173"/>
<path fill-rule="evenodd" d="M287,879.5L299.2,872c.9,-.5,1.9,-.4,2.3,.3c.4,.7,0,1.6,-.8,2.2L288.5,882c-.8,.5,-1.8,.3,-2.2,-.4c-.4,-.6,-.1,-1.6,.7,-2.1Z" class="gg_173"/>
<path fill-rule="evenodd" d="M287.1,879.5l12.1,-7.4c.8,-.5,1.8,-.4,2.1,.3c.4,.6,.1,1.6,-.7,2.1l-12.1,7.4c-.8,.5,-1.7,.4,-2.1,-.3c-.4,-.7,0,-1.6,.7,-2.1Z" class="gh_173"/>
<path fill-rule="evenodd" d="M287.3,879.6l11.9,-7.4c.7,-.5,1.6,-.3,2,.3c.4,.6,.1,1.5,-.7,2l-11.9,7.3c-.8,.5,-1.7,.4,-2.1,-.3c-.3,-.6,0,-1.5,.8,-1.9Z" class="gi_173"/>
<path fill-rule="evenodd" d="M287.3,879.6l11.9,-7.3c.7,-.4,1.6,-.3,1.9,.3c.3,.6,0,1.4,-.7,1.9l-11.8,7.3c-.7,.4,-1.6,.3,-1.9,-.3c-.4,-.6,-.1,-1.4,.6,-1.9Z" class="gj_173"/>
<path fill-rule="evenodd" d="M287.5,879.7l11.6,-7.3c.7,-.4,1.6,-.3,1.9,.3c.3,.5,0,1.4,-.7,1.8l-11.6,7.2c-.7,.4,-1.6,.3,-1.9,-.2c-.3,-.6,0,-1.4,.7,-1.8Z" class="gk_173"/>
<path fill-rule="evenodd" d="M287.6,879.7l11.5,-7.2c.7,-.4,1.4,-.3,1.8,.3c.3,.5,0,1.3,-.6,1.7l-11.6,7.1c-.7,.4,-1.4,.3,-1.8,-.2c-.3,-.5,0,-1.3,.7,-1.7Z" class="gl_173"/>
<path fill-rule="evenodd" d="M287.7,879.7l11.4,-7.1c.6,-.3,1.3,-.2,1.6,.3c.3,.5,.1,1.2,-.5,1.6l-11.5,7.1c-.6,.4,-1.3,.2,-1.6,-.3c-.3,-.5,-.1,-1.2,.6,-1.6Z" class="gm_173"/>
<path fill-rule="evenodd" d="M287.8,879.8l11.3,-7.1c.5,-.3,1.2,-.2,1.5,.3c.3,.4,.1,1.1,-.5,1.5l-11.3,7c-.6,.4,-1.3,.3,-1.6,-.2c-.3,-.5,0,-1.2,.6,-1.5Z" class="gn_173"/>
<path fill-rule="evenodd" d="M287.9,879.8l11.1,-7c.6,-.3,1.2,-.2,1.5,.2c.3,.5,0,1.1,-.5,1.5l-11.2,6.9c-.5,.4,-1.2,.3,-1.5,-.2c-.2,-.4,0,-1,.6,-1.4Z" class="go_173"/>
<path fill-rule="evenodd" d="M288,879.9L299,873c.5,-.3,1.1,-.3,1.4,.2c.2,.4,0,1,-.5,1.3l-11,6.9c-.5,.3,-1.2,.2,-1.4,-.2c-.3,-.4,0,-1,.5,-1.3Z" class="gp_173"/>
<path fill-rule="evenodd" d="M288.1,879.9L299,873.1c.5,-.3,1,-.3,1.3,.1c.2,.4,0,1,-.5,1.3l-10.9,6.8c-.5,.3,-1.1,.2,-1.3,-.2c-.2,-.4,0,-.9,.5,-1.2Z" class="gq_173"/>
<path fill-rule="evenodd" d="M288.2,879.9L299,873.2c.4,-.3,.9,-.2,1.1,.1c.3,.4,.1,.9,-.4,1.2l-10.8,6.7c-.4,.3,-.9,.3,-1.1,-.1c-.3,-.4,-.1,-.9,.4,-1.2Z" class="gr_173"/>
<path fill-rule="evenodd" d="M286.8,893.4l12.5,-7.6c.9,-.5,2,-.4,2.4,.4c.4,.7,.1,1.7,-.9,2.3l-12.4,7.6c-.9,.6,-2,.4,-2.4,-.3c-.5,-.8,-.1,-1.8,.8,-2.4Z" class="ge_173"/>
<path fill-rule="evenodd" d="M286.9,893.5l12.3,-7.6c.9,-.5,2,-.4,2.4,.3c.4,.8,0,1.8,-.8,2.3l-12.4,7.6c-.8,.5,-1.9,.3,-2.3,-.4c-.4,-.7,0,-1.7,.8,-2.2Z" class="gf_173"/>
<path fill-rule="evenodd" d="M287,893.5L299.2,886c.9,-.5,1.9,-.3,2.3,.3c.4,.7,0,1.7,-.8,2.2L288.5,896c-.8,.5,-1.8,.4,-2.2,-.3c-.4,-.7,-.1,-1.7,.7,-2.2Z" class="gg_173"/>
<path fill-rule="evenodd" d="M287.1,893.6l12.1,-7.5c.8,-.4,1.8,-.3,2.1,.3c.4,.7,.1,1.6,-.7,2.1l-12.1,7.4c-.8,.5,-1.7,.4,-2.1,-.3c-.4,-.6,0,-1.5,.7,-2Z" class="gh_173"/>
<path fill-rule="evenodd" d="M287.3,893.6l11.9,-7.4c.7,-.4,1.6,-.3,2,.3c.4,.6,.1,1.5,-.7,2l-11.9,7.4c-.8,.4,-1.7,.3,-2.1,-.3c-.3,-.6,0,-1.5,.8,-2Z" class="gi_173"/>
<path fill-rule="evenodd" d="M287.3,893.6l11.9,-7.2c.7,-.5,1.6,-.4,1.9,.2c.3,.6,0,1.5,-.7,1.9l-11.8,7.3c-.7,.4,-1.6,.3,-1.9,-.3c-.4,-.6,-.1,-1.4,.6,-1.9Z" class="gj_173"/>
<path fill-rule="evenodd" d="M287.5,893.7l11.6,-7.2c.7,-.5,1.6,-.4,1.9,.2c.3,.6,0,1.4,-.7,1.8l-11.6,7.2c-.7,.4,-1.6,.3,-1.9,-.2c-.3,-.6,0,-1.4,.7,-1.8Z" class="gk_173"/>
<path fill-rule="evenodd" d="M287.6,893.7l11.5,-7.1c.7,-.4,1.4,-.3,1.8,.2c.3,.5,0,1.3,-.6,1.7l-11.6,7.2c-.7,.4,-1.4,.2,-1.8,-.3c-.3,-.5,0,-1.3,.7,-1.7Z" class="gl_173"/>
<path fill-rule="evenodd" d="M287.7,893.8l11.4,-7.1c.6,-.4,1.3,-.3,1.6,.2c.3,.5,.1,1.2,-.5,1.6l-11.5,7.1c-.6,.4,-1.3,.3,-1.6,-.2c-.3,-.5,-.1,-1.3,.6,-1.6Z" class="gm_173"/>
<path fill-rule="evenodd" d="M287.8,893.8l11.3,-7c.5,-.4,1.2,-.3,1.5,.2c.3,.5,.1,1.1,-.5,1.5l-11.3,7c-.6,.4,-1.3,.3,-1.6,-.2c-.3,-.5,0,-1.1,.6,-1.5Z" class="gn_173"/>
<path fill-rule="evenodd" d="M287.9,893.8L299,886.9c.6,-.4,1.2,-.3,1.5,.2c.3,.4,0,1.1,-.5,1.4l-11.2,7c-.5,.3,-1.2,.2,-1.5,-.2c-.2,-.5,0,-1.1,.6,-1.5Z" class="go_173"/>
<path fill-rule="evenodd" d="M288,893.9L299,887c.5,-.3,1.1,-.2,1.4,.2c.2,.4,0,1,-.5,1.3l-11,6.9c-.5,.3,-1.2,.2,-1.4,-.2c-.3,-.4,0,-1,.5,-1.3Z" class="gp_173"/>
<path fill-rule="evenodd" d="M288.1,893.9L299,887.1c.5,-.3,1,-.2,1.3,.2c.2,.4,0,.9,-.5,1.2l-10.9,6.8c-.5,.3,-1.1,.3,-1.3,-.1c-.2,-.4,0,-1,.5,-1.3Z" class="gq_173"/>
<path fill-rule="evenodd" d="M288.2,894L299,887.2c.4,-.3,.9,-.2,1.1,.2c.3,.3,.1,.8,-.4,1.1l-10.8,6.8c-.4,.2,-.9,.2,-1.1,-.2c-.3,-.4,-.1,-.9,.4,-1.1Z" class="gr_173"/>
<path fill-rule="evenodd" d="M286.8,907.5l12.5,-7.7c.9,-.5,2,-.4,2.4,.4c.4,.7,.1,1.8,-.9,2.3l-12.4,7.6c-.9,.6,-2,.4,-2.4,-.3c-.5,-.7,-.1,-1.8,.8,-2.3Z" class="ge_173"/>
<path fill-rule="evenodd" d="M286.9,907.5L299.2,900c.9,-.6,2,-.4,2.4,.3c.4,.7,0,1.7,-.8,2.2l-12.4,7.6c-.8,.5,-1.9,.4,-2.3,-.3c-.4,-.8,0,-1.8,.8,-2.3Z" class="gf_173"/>
<path fill-rule="evenodd" d="M287,907.5l12.2,-7.4c.9,-.6,1.9,-.4,2.3,.3c.4,.6,0,1.6,-.8,2.1L288.5,910c-.8,.5,-1.8,.4,-2.2,-.3c-.4,-.7,-.1,-1.6,.7,-2.2Z" class="gg_173"/>
<path fill-rule="evenodd" d="M287.1,907.6l12.1,-7.4c.8,-.5,1.8,-.4,2.1,.3c.4,.6,.1,1.5,-.7,2l-12.1,7.4c-.8,.5,-1.7,.4,-2.1,-.2c-.4,-.7,0,-1.6,.7,-2.1Z" class="gh_173"/>
<path fill-rule="evenodd" d="M287.3,907.6l11.9,-7.3c.7,-.5,1.6,-.4,2,.2c.4,.7,.1,1.5,-.7,2l-11.9,7.4c-.8,.4,-1.7,.3,-2.1,-.3c-.3,-.6,0,-1.5,.8,-2Z" class="gi_173"/>
<path fill-rule="evenodd" d="M287.3,907.7l11.9,-7.3c.7,-.5,1.6,-.4,1.9,.2c.3,.6,0,1.5,-.7,1.9l-11.8,7.3c-.7,.5,-1.6,.3,-1.9,-.3c-.4,-.5,-.1,-1.4,.6,-1.8Z" class="gj_173"/>
<path fill-rule="evenodd" d="M287.5,907.7l11.6,-7.2c.7,-.4,1.6,-.3,1.9,.2c.3,.6,0,1.4,-.7,1.8l-11.6,7.2c-.7,.5,-1.6,.4,-1.9,-.2c-.3,-.6,0,-1.4,.7,-1.8Z" class="gk_173"/>
<path fill-rule="evenodd" d="M287.6,907.7l11.5,-7.1c.7,-.4,1.4,-.3,1.8,.2c.3,.6,0,1.3,-.6,1.7l-11.6,7.2c-.7,.4,-1.4,.3,-1.8,-.3c-.3,-.5,0,-1.2,.7,-1.7Z" class="gl_173"/>
<path fill-rule="evenodd" d="M287.7,907.8l11.4,-7.1c.6,-.4,1.3,-.3,1.6,.2c.3,.5,.1,1.3,-.5,1.6l-11.5,7.1c-.6,.4,-1.3,.3,-1.6,-.2c-.3,-.5,-.1,-1.2,.6,-1.6Z" class="gm_173"/>
<path fill-rule="evenodd" d="M287.8,907.8l11.3,-7c.5,-.4,1.2,-.3,1.5,.2c.3,.5,.1,1.2,-.5,1.5l-11.3,7.1c-.6,.3,-1.3,.2,-1.6,-.3c-.3,-.4,0,-1.1,.6,-1.5Z" class="gn_173"/>
<path fill-rule="evenodd" d="M287.9,907.9l11.1,-7c.6,-.3,1.2,-.2,1.5,.2c.3,.5,0,1.1,-.5,1.4l-11.2,7c-.5,.3,-1.2,.2,-1.5,-.2c-.2,-.5,0,-1.1,.6,-1.4Z" class="go_173"/>
<path fill-rule="evenodd" d="M288,907.9L299,901c.5,-.3,1.1,-.2,1.4,.2c.2,.4,0,1,-.5,1.3l-11,6.9c-.5,.3,-1.2,.3,-1.4,-.2c-.3,-.4,0,-1,.5,-1.3Z" class="gp_173"/>
<path fill-rule="evenodd" d="M288.1,907.9L299,901.1c.5,-.3,1,-.2,1.3,.2c.2,.4,0,.9,-.5,1.2l-10.9,6.9c-.5,.3,-1.1,.2,-1.3,-.2c-.2,-.4,0,-1,.5,-1.3Z" class="gq_173"/>
<path fill-rule="evenodd" d="M288.2,908L299,901.2c.4,-.3,.9,-.2,1.1,.2c.3,.3,.1,.9,-.4,1.1l-10.8,6.8c-.4,.3,-.9,.2,-1.1,-.2c-.3,-.3,-.1,-.8,.4,-1.1Z" class="gr_173"/>
<path fill-rule="evenodd" d="M286.8,921.5l12.5,-7.6c.9,-.6,2,-.4,2.4,.3c.4,.7,.1,1.8,-.9,2.3l-12.4,7.7c-.9,.5,-2,.4,-2.4,-.4c-.5,-.7,-.1,-1.8,.8,-2.3Z" class="ge_173"/>
<path fill-rule="evenodd" d="M286.9,921.5L299.2,914c.9,-.6,2,-.4,2.4,.3c.4,.7,0,1.7,-.8,2.2l-12.4,7.6c-.8,.5,-1.9,.4,-2.3,-.3c-.4,-.7,0,-1.7,.8,-2.3Z" class="gf_173"/>
<path fill-rule="evenodd" d="M287,921.6l12.2,-7.5c.9,-.5,1.9,-.4,2.3,.3c.4,.7,0,1.6,-.8,2.1L288.5,924c-.8,.5,-1.8,.4,-2.2,-.3c-.4,-.6,-.1,-1.6,.7,-2.1Z" class="gg_173"/>
<path fill-rule="evenodd" d="M287.1,921.6l12.1,-7.4c.8,-.5,1.8,-.4,2.1,.3c.4,.6,.1,1.6,-.7,2L288.5,924c-.8,.5,-1.7,.3,-2.1,-.3c-.4,-.7,0,-1.6,.7,-2.1Z" class="gh_173"/>
<path fill-rule="evenodd" d="M287.3,921.6l11.9,-7.3c.7,-.5,1.6,-.4,2,.3c.4,.6,.1,1.5,-.7,1.9l-11.9,7.4c-.8,.5,-1.7,.3,-2.1,-.3c-.3,-.6,0,-1.5,.8,-2Z" class="gi_173"/>
<path fill-rule="evenodd" d="M287.3,921.7l11.9,-7.3c.7,-.4,1.6,-.3,1.9,.3c.3,.6,0,1.4,-.7,1.8l-11.8,7.3c-.7,.5,-1.6,.4,-1.9,-.2c-.4,-.6,-.1,-1.5,.6,-1.9Z" class="gj_173"/>
<path fill-rule="evenodd" d="M287.5,921.7l11.6,-7.2c.7,-.4,1.6,-.3,1.9,.3c.3,.5,0,1.3,-.7,1.7l-11.6,7.3c-.7,.4,-1.6,.3,-1.9,-.3c-.3,-.5,0,-1.3,.7,-1.8Z" class="gk_173"/>
<path fill-rule="evenodd" d="M287.6,921.8l11.5,-7.2c.7,-.4,1.4,-.3,1.8,.2c.3,.6,0,1.3,-.6,1.7l-11.6,7.2c-.7,.4,-1.4,.3,-1.8,-.2c-.3,-.6,0,-1.3,.7,-1.7Z" class="gl_173"/>
<path fill-rule="evenodd" d="M287.7,921.8l11.4,-7.1c.6,-.4,1.3,-.3,1.6,.2c.3,.6,.1,1.3,-.5,1.6l-11.5,7.1c-.6,.4,-1.3,.3,-1.6,-.2c-.3,-.5,-.1,-1.2,.6,-1.6Z" class="gm_173"/>
<path fill-rule="evenodd" d="M287.8,921.8l11.3,-7c.5,-.3,1.2,-.2,1.5,.2c.3,.5,.1,1.2,-.5,1.6l-11.3,7c-.6,.3,-1.3,.2,-1.6,-.2c-.3,-.5,0,-1.2,.6,-1.6Z" class="gn_173"/>
<path fill-rule="evenodd" d="M287.9,921.9l11.1,-7c.6,-.3,1.2,-.2,1.5,.2c.3,.5,0,1.1,-.5,1.5l-11.2,6.9c-.5,.3,-1.2,.3,-1.5,-.2c-.2,-.4,0,-1.1,.6,-1.4Z" class="go_173"/>
<path fill-rule="evenodd" d="M288,921.9L299,915c.5,-.3,1.1,-.2,1.4,.2c.2,.4,0,1,-.5,1.4l-11,6.8c-.5,.4,-1.2,.3,-1.4,-.1c-.3,-.5,0,-1.1,.5,-1.4Z" class="gp_173"/>
<path fill-rule="evenodd" d="M288.1,922L299,915.1c.5,-.3,1,-.2,1.3,.2c.2,.4,0,1,-.5,1.3l-10.9,6.8c-.5,.3,-1.1,.2,-1.3,-.2c-.2,-.4,0,-.9,.5,-1.2Z" class="gq_173"/>
<path fill-rule="evenodd" d="M288.2,922L299,915.2c.4,-.2,.9,-.2,1.1,.2c.3,.4,.1,.9,-.4,1.2l-10.8,6.7c-.4,.3,-.9,.2,-1.1,-.1c-.3,-.4,-.1,-.9,.4,-1.2Z" class="gr_173"/>
<path fill-rule="evenodd" d="M286.8,935.5l12.5,-7.6c.9,-.6,2,-.4,2.4,.3c.4,.8,.1,1.8,-.9,2.4l-12.4,7.6c-.9,.5,-2,.4,-2.4,-.3c-.5,-.8,-.1,-1.8,.8,-2.4Z" class="ge_173"/>
<path fill-rule="evenodd" d="M286.9,935.6L299.2,928c.9,-.5,2,-.4,2.4,.3c.4,.7,0,1.7,-.8,2.3l-12.4,7.5c-.8,.6,-1.9,.4,-2.3,-.3c-.4,-.7,0,-1.7,.8,-2.2Z" class="gf_173"/>
<path fill-rule="evenodd" d="M287,935.6l12.2,-7.5c.9,-.5,1.9,-.4,2.3,.3c.4,.7,0,1.7,-.8,2.2l-12.2,7.5c-.8,.5,-1.8,.3,-2.2,-.4c-.4,-.6,-.1,-1.6,.7,-2.1Z" class="gg_173"/>
<path fill-rule="evenodd" d="M287.1,935.6l12.1,-7.4c.8,-.5,1.8,-.4,2.1,.3c.4,.7,.1,1.6,-.7,2.1L288.5,938c-.8,.5,-1.7,.4,-2.1,-.3c-.4,-.7,0,-1.6,.7,-2.1Z" class="gh_173"/>
<path fill-rule="evenodd" d="M287.3,935.7l11.9,-7.4c.7,-.5,1.6,-.3,2,.3c.4,.6,.1,1.5,-.7,2l-11.9,7.3c-.8,.5,-1.7,.4,-2.1,-.3c-.3,-.6,0,-1.5,.8,-1.9Z" class="gi_173"/>
<path fill-rule="evenodd" d="M287.3,935.7l11.9,-7.3c.7,-.4,1.6,-.3,1.9,.3c.3,.6,0,1.4,-.7,1.9l-11.8,7.3c-.7,.4,-1.6,.3,-1.9,-.3c-.4,-.6,-.1,-1.4,.6,-1.9Z" class="gj_173"/>
<path fill-rule="evenodd" d="M287.5,935.8l11.6,-7.3c.7,-.4,1.6,-.3,1.9,.3c.3,.5,0,1.4,-.7,1.8l-11.6,7.2c-.7,.4,-1.6,.3,-1.9,-.2c-.3,-.6,0,-1.4,.7,-1.8Z" class="gk_173"/>
<path fill-rule="evenodd" d="M287.6,935.8l11.5,-7.2c.7,-.4,1.4,-.3,1.8,.3c.3,.5,0,1.3,-.6,1.7l-11.6,7.1c-.7,.4,-1.4,.3,-1.8,-.2c-.3,-.5,0,-1.3,.7,-1.7Z" class="gl_173"/>
<path fill-rule="evenodd" d="M287.7,935.8l11.4,-7.1c.6,-.3,1.3,-.2,1.6,.3c.3,.5,.1,1.2,-.5,1.6l-11.5,7.1c-.6,.4,-1.3,.2,-1.6,-.3c-.3,-.5,-.1,-1.2,.6,-1.6Z" class="gm_173"/>
<path fill-rule="evenodd" d="M287.8,935.9l11.3,-7.1c.5,-.3,1.2,-.2,1.5,.3c.3,.4,.1,1.1,-.5,1.5l-11.3,7c-.6,.4,-1.3,.3,-1.6,-.2c-.3,-.5,0,-1.2,.6,-1.5Z" class="gn_173"/>
<path fill-rule="evenodd" d="M287.9,935.9l11.1,-7c.6,-.3,1.2,-.2,1.5,.3c.3,.4,0,1,-.5,1.4l-11.2,6.9c-.5,.4,-1.2,.3,-1.5,-.2c-.2,-.4,0,-1,.6,-1.4Z" class="go_173"/>
<path fill-rule="evenodd" d="M288,936l11,-6.9c.5,-.3,1.1,-.3,1.4,.2c.2,.4,0,1,-.5,1.3l-11,6.9c-.5,.3,-1.2,.2,-1.4,-.2c-.3,-.4,0,-1,.5,-1.3Z" class="gp_173"/>
<path fill-rule="evenodd" d="M288.1,936L299,929.2c.5,-.3,1,-.3,1.3,.1c.2,.4,0,1,-.5,1.3l-10.9,6.8c-.5,.3,-1.1,.2,-1.3,-.2c-.2,-.4,0,-.9,.5,-1.2Z" class="gq_173"/>
<path fill-rule="evenodd" d="M288.2,936L299,929.3c.4,-.3,.9,-.2,1.1,.1c.3,.4,.1,.9,-.4,1.2l-10.8,6.8c-.4,.2,-.9,.2,-1.1,-.2c-.3,-.4,-.1,-.9,.4,-1.2Z" class="gr_173"/>
<path fill-rule="evenodd" d="M286.8,949.5l12.5,-7.6c.9,-.5,2,-.4,2.4,.4c.4,.7,.1,1.7,-.9,2.3l-12.4,7.6c-.9,.6,-2,.4,-2.4,-.3c-.5,-.8,-.1,-1.8,.8,-2.4Z" class="ge_173"/>
<path fill-rule="evenodd" d="M286.9,949.6L299.2,942c.9,-.5,2,-.4,2.4,.3c.4,.8,0,1.8,-.8,2.3l-12.4,7.6c-.8,.5,-1.9,.3,-2.3,-.4c-.4,-.7,0,-1.7,.8,-2.2Z" class="gf_173"/>
<path fill-rule="evenodd" d="M287,949.6l12.2,-7.5c.9,-.5,1.9,-.3,2.3,.3c.4,.7,0,1.7,-.8,2.2l-12.2,7.5c-.8,.5,-1.8,.4,-2.2,-.3c-.4,-.7,-.1,-1.7,.7,-2.2Z" class="gg_173"/>
<path fill-rule="evenodd" d="M287.1,949.7l12.1,-7.5c.8,-.4,1.8,-.3,2.1,.3c.4,.7,.1,1.6,-.7,2.1L288.5,952c-.8,.5,-1.7,.4,-2.1,-.3c-.4,-.6,0,-1.5,.7,-2Z" class="gh_173"/>
<path fill-rule="evenodd" d="M287.3,949.7l11.9,-7.4c.7,-.4,1.6,-.3,2,.3c.4,.6,.1,1.5,-.7,2L288.6,952c-.8,.4,-1.7,.3,-2.1,-.3c-.3,-.6,0,-1.5,.8,-2Z" class="gi_173"/>
<path fill-rule="evenodd" d="M287.3,949.7l11.9,-7.2c.7,-.5,1.6,-.4,1.9,.2c.3,.6,0,1.5,-.7,1.9l-11.8,7.3c-.7,.4,-1.6,.3,-1.9,-.3c-.4,-.6,-.1,-1.4,.6,-1.9Z" class="gj_173"/>
<path fill-rule="evenodd" d="M287.5,949.8l11.6,-7.3c.7,-.4,1.6,-.3,1.9,.3c.3,.6,0,1.4,-.7,1.8l-11.6,7.2c-.7,.4,-1.6,.3,-1.9,-.2c-.3,-.6,0,-1.4,.7,-1.8Z" class="gk_173"/>
<path fill-rule="evenodd" d="M287.6,949.8l11.5,-7.1c.7,-.4,1.4,-.3,1.8,.2c.3,.5,0,1.3,-.6,1.7l-11.6,7.2c-.7,.4,-1.4,.3,-1.8,-.3c-.3,-.5,0,-1.3,.7,-1.7Z" class="gl_173"/>
<path fill-rule="evenodd" d="M287.7,949.9l11.4,-7.1c.6,-.4,1.3,-.3,1.6,.2c.3,.5,.1,1.2,-.5,1.6l-11.5,7.1c-.6,.4,-1.3,.3,-1.6,-.2c-.3,-.5,-.1,-1.3,.6,-1.6Z" class="gm_173"/>
<path fill-rule="evenodd" d="M287.8,949.9l11.3,-7c.5,-.4,1.2,-.3,1.5,.2c.3,.5,.1,1.1,-.5,1.5l-11.3,7c-.6,.4,-1.3,.3,-1.6,-.2c-.3,-.5,0,-1.1,.6,-1.5Z" class="gn_173"/>
<path fill-rule="evenodd" d="M287.9,949.9L299,943c.6,-.4,1.2,-.3,1.5,.2c.3,.4,0,1.1,-.5,1.4l-11.2,7c-.5,.3,-1.2,.2,-1.5,-.2c-.2,-.5,0,-1.1,.6,-1.5Z" class="go_173"/>
<path fill-rule="evenodd" d="M288,950l11,-6.9c.5,-.3,1.1,-.2,1.4,.2c.2,.4,0,1,-.5,1.3l-11,6.9c-.5,.3,-1.2,.2,-1.4,-.2c-.3,-.4,0,-1,.5,-1.3Z" class="gp_173"/>
<path fill-rule="evenodd" d="M288.1,950L299,943.2c.5,-.3,1,-.2,1.3,.2c.2,.4,0,.9,-.5,1.2l-10.9,6.8c-.5,.3,-1.1,.2,-1.3,-.1c-.2,-.4,0,-1,.5,-1.3Z" class="gq_173"/>
<path fill-rule="evenodd" d="M288.2,950.1L299,943.3c.4,-.3,.9,-.2,1.1,.2c.3,.3,.1,.8,-.4,1.1l-10.8,6.8c-.4,.2,-.9,.2,-1.1,-.2c-.3,-.4,-.1,-.9,.4,-1.1Z" class="gr_173"/>
<path d="M129.5,924.4h22.9V906.1H129.5v18.3Z" class="gs_173"/>
<path d="M108.9,841.9H170v-4.6H108.9v4.6Z" class="gt_173"/>
<path clip-path="url(#c0_173)" d="M243.1,827v180.3" class="g5_173"/>
<path fill-rule="evenodd" d="M243.1,1007.3l2.5,-1.6l-2.5,6.5l-2.4,-6.5Z" class="g6_173"/>
<path d="M246.2,915.6h-6.1m6.1,61.5h-6.1" class="g5_173"/>
<path d="M282.3,986.1h22.9V967.7H282.3v18.4Z" class="gs_173"/>
<path d="M261.6,841.9h61.2v-4.6H261.6v4.6Z" class="gt_173"/>
<path d="M152.4,924.4H129.5V906.1" class="gu_173"/>
<path d="M129.5,906.1h22.9v18.3" class="gv_173"/>
<path d="M305.2,986.1H282.3V967.7" class="gw_173"/>
<path d="M282.3,967.7h22.9v18.4" class="gx_173"/>
</svg>