<?xml version="1.0" encoding="UTF-8" standalone="no"?>
<!DOCTYPE svg PUBLIC "-//W3C//DTD SVG 1.1//EN"
"http://www.w3.org/Graphics/SVG/1.1/DTD/svg11.dtd">
<svg viewBox="0 0 931 1096" version="1.1" xmlns="http://www.w3.org/2000/svg" xmlns:xlink="http://www.w3.org/1999/xlink">
<defs>
<clipPath id="c0_247"><path d="M512.2,458.9V443.1h19.2v15.8Z"/></clipPath>
<clipPath id="c1_247"><path d="M512.2,477.6V461.8h19.2v15.8Z"/></clipPath>
<clipPath id="c2_247"><path d="M500.8,551.3V535.5h30.6v15.8Z"/></clipPath>
<clipPath id="c3_247"><path d="M500.8,569.6V553.8h30.6v15.8Z"/></clipPath>
<style type="text/css"><![CDATA[
.g0_247{
fill: none;
stroke: #00AEEF;
stroke-width: 0.763;
stroke-miterlimit: 3;
stroke-dasharray: 10,4;
}
.g1_247{
fill: #241F1F;
}
.g2_247{
fill: none;
stroke: #EE008C;
stroke-width: 0.916;
stroke-linejoin: round;
}
.g3_247{
fill: #EE008C;
}
.g4_247{
fill: none;
stroke: #EE008C;
stroke-width: 0.763;
stroke-miterlimit: 3;
}
.g5_247{
fill: none;
stroke: #241F1F;
stroke-width: 0.534;
stroke-miterlimit: 3;
}
.g6_247{
fill: none;
stroke: #241F1F;
stroke-width: 0.611;
stroke-miterlimit: 3;
}
.g7_247{
fill: none;
stroke: #00AEEF;
stroke-width: 0.916;
stroke-linejoin: round;
}
.g8_247{
fill: none;
stroke: #241F1F;
stroke-width: 0.763;
stroke-miterlimit: 3;
}
.g9_247{
fill: none;
stroke: #241F1F;
stroke-width: 0.381;
stroke-miterlimit: 3;
}
.ga_247{
fill: #E8F6FE;
}
.gb_247{
fill: none;
stroke: #241F1F;
stroke-width: 0.763;
stroke-miterlimit: 10;
}
.gc_247{
fill: none;
stroke: #241F1F;
stroke-width: 0.687;
stroke-miterlimit: 10;
}
]]></style>
</defs>
<path d="M650.8,498.4l66.5,-66.6m-86.2,31.9l53.2,92.2M618.5,466l98.8,98.7M616.6,478.6l134.3,76.9M650.8,498.4l33.5,-57.9m-33.5,57.9L750.9,440.7" class="g0_247"/>
<path fill-rule="evenodd" d="M822,498.4L820.3,496l6.5,2.4l-6.5,2.5Z" class="g1_247"/>
<path d="M650.8,498.3c0,-36.7,29.8,-66.5,66.5,-66.5c36.7,0,66.5,29.8,66.5,66.5c0,36.7,-29.8,66.4,-66.5,66.4c-36.7,0,-66.5,-29.7,-66.5,-66.4Z" class="g2_247"/>
<path d="M649.1,498.4c0,-.9,.8,-1.7,1.7,-1.7c1,0,1.8,.8,1.8,1.7c0,1,-.8,1.7,-1.8,1.7c-.9,0,-1.7,-.7,-1.7,-1.7Z" class="g3_247"/>
<path d="M649.1,498.4c0,-.9,.8,-1.7,1.7,-1.7c1,0,1.8,.8,1.8,1.7c0,1,-.8,1.7,-1.8,1.7c-.9,0,-1.7,-.7,-1.7,-1.7Z" class="g4_247"/>
<path d="M782,498.4c0,-.9,.8,-1.7,1.8,-1.7c.9,0,1.7,.8,1.7,1.7c0,1,-.8,1.7,-1.7,1.7c-1,0,-1.8,-.7,-1.8,-1.7Z" class="g3_247"/>
<path d="M782,498.4c0,-.9,.8,-1.7,1.8,-1.7c.9,0,1.7,.8,1.7,1.7c0,1,-.8,1.7,-1.7,1.7c-1,0,-1.8,-.7,-1.8,-1.7Z" class="g4_247"/>
<path d="M715.6,432c0,-1,.8,-1.8,1.7,-1.8c1,0,1.7,.8,1.7,1.8c0,.9,-.7,1.7,-1.7,1.7c-.9,0,-1.7,-.8,-1.7,-1.7Z" class="g3_247"/>
<path d="M715.6,432c0,-1,.8,-1.8,1.7,-1.8c1,0,1.7,.8,1.7,1.8c0,.9,-.7,1.7,-1.7,1.7c-.9,0,-1.7,-.8,-1.7,-1.7Z" class="g4_247"/>
<path d="M715.6,564.9c0,-1,.8,-1.7,1.7,-1.7c1,0,1.7,.7,1.7,1.7c0,.9,-.7,1.7,-1.7,1.7c-.9,0,-1.7,-.8,-1.7,-1.7Z" class="g3_247"/>
<path d="M715.6,564.9c0,-1,.8,-1.7,1.7,-1.7c1,0,1.7,.7,1.7,1.7c0,.9,-.7,1.7,-1.7,1.7c-.9,0,-1.7,-.8,-1.7,-1.7Z" class="g4_247"/>
<path d="M678.2,571.4h11.3" class="g5_247"/>
<path d="M749.2,555.5c0,-.9,.8,-1.7,1.7,-1.7c1,0,1.7,.8,1.7,1.7c0,1,-.7,1.7,-1.7,1.7c-.9,0,-1.7,-.7,-1.7,-1.7Z" class="g3_247"/>
<path d="M749.2,555.5c0,-.9,.8,-1.7,1.7,-1.7c1,0,1.7,.8,1.7,1.7c0,1,-.7,1.7,-1.7,1.7c-.9,0,-1.7,-.7,-1.7,-1.7Z" class="g4_247"/>
<path d="M682.6,440.5c0,-.9,.7,-1.7,1.7,-1.7c.9,0,1.7,.8,1.7,1.7c0,1,-.8,1.8,-1.7,1.8c-1,0,-1.7,-.8,-1.7,-1.8Z" class="g3_247"/>
<path d="M682.6,440.5c0,-.9,.7,-1.7,1.7,-1.7c.9,0,1.7,.8,1.7,1.7c0,1,-.8,1.8,-1.7,1.8c-1,0,-1.7,-.8,-1.7,-1.8Z" class="g4_247"/>
<path d="M749.2,440.7c0,-.9,.8,-1.7,1.7,-1.7c1,0,1.7,.8,1.7,1.7c0,1,-.7,1.8,-1.7,1.8c-.9,0,-1.7,-.8,-1.7,-1.8Z" class="g3_247"/>
<path d="M749.2,440.7c0,-.9,.8,-1.7,1.7,-1.7c1,0,1.7,.8,1.7,1.7c0,1,-.7,1.8,-1.7,1.8c-.9,0,-1.7,-.8,-1.7,-1.8Z" class="g4_247"/>
<path d="M682.6,555.9c0,-1,.7,-1.7,1.7,-1.7c.9,0,1.7,.7,1.7,1.7c0,1,-.8,1.7,-1.7,1.7c-1,0,-1.7,-.7,-1.7,-1.7Z" class="g3_247"/>
<path d="M682.6,555.9c0,-1,.7,-1.7,1.7,-1.7c.9,0,1.7,.7,1.7,1.7c0,1,-.8,1.7,-1.7,1.7c-1,0,-1.7,-.7,-1.7,-1.7Z" class="g4_247"/>
<path d="M635.7,514.1h5.9M670.3,427h5.9m47.3,-11.2h5.9m52.2,12.8h5.9m5.3,137.1h11.3M735,580.2h11.2" class="g5_247"/>
<path d="M614.2,498.4H822M650.8,588.9V404.1" class="g6_247"/>
<path fill-rule="evenodd" d="M704.9,932.4l-1.7,-2.5l6.5,2.5l-6.5,2.4Z" class="g1_247"/>
<path fill-rule="evenodd" d="M530.7,854.5l-2.4,1.6l2.4,-6.5l2.5,6.5Z" class="g1_247"/>
<path d="M636.9,881.6l4,8.2l8.2,-4" class="g5_247"/>
<path d="M530.7,932.4l114.6,-55l26.8,55H530.7Z" class="g7_247"/>
<path d="M530.7,932.4c0,-39.1,31.7,-70.7,70.7,-70.7c39,0,70.7,31.6,70.7,70.7c0,39,-31.7,70.6,-70.7,70.6c-39,0,-70.7,-31.6,-70.7,-70.6Z" class="g2_247"/>
<path d="M670.3,932.4c0,-1,.8,-1.8,1.8,-1.8c.9,0,1.7,.8,1.7,1.8c0,.9,-.8,1.7,-1.7,1.7c-1,0,-1.8,-.8,-1.8,-1.7Z" class="g3_247"/>
<path d="M670.3,932.4c0,-1,.8,-1.8,1.8,-1.8c.9,0,1.7,.8,1.7,1.8c0,.9,-.8,1.7,-1.7,1.7c-1,0,-1.8,-.8,-1.8,-1.7Z" class="g4_247"/>
<path d="M643.6,877.4c0,-1,.8,-1.8,1.7,-1.8c1,0,1.7,.8,1.7,1.8c0,.9,-.7,1.7,-1.7,1.7c-.9,0,-1.7,-.8,-1.7,-1.7Z" class="g3_247"/>
<path d="M643.6,877.4c0,-1,.8,-1.8,1.7,-1.8c1,0,1.7,.8,1.7,1.8c0,.9,-.7,1.7,-1.7,1.7c-.9,0,-1.7,-.8,-1.7,-1.7Z" class="g4_247"/>
<path d="M507.4,932.4H704.9m-174.2,73.3V854.5M163.9,212H295.2" class="g6_247"/>
<path fill-rule="evenodd" d="M295.2,212l-1.6,-2.4l6.5,2.4l-6.5,2.5Z" class="g1_247"/>
<path d="M240.7,102.4L108.9,291.1" class="g2_247"/>
<path d="M162.1,212c0,-.9,.8,-1.7,1.8,-1.7c.9,0,1.7,.8,1.7,1.7c0,1,-.8,1.8,-1.7,1.8c-1,0,-1.8,-.8,-1.8,-1.8Z" class="g1_247"/>
<path d="M162.1,212c0,-.9,.8,-1.7,1.8,-1.7c.9,0,1.7,.8,1.7,1.7c0,1,-.8,1.8,-1.7,1.8c-1,0,-1.8,-.8,-1.8,-1.8Z" class="g8_247"/>
<path d="M185.1,179.2c0,-1,.7,-1.7,1.7,-1.7c.9,0,1.7,.7,1.7,1.7c0,.9,-.8,1.7,-1.7,1.7c-1,0,-1.7,-.8,-1.7,-1.7Z" class="g3_247"/>
<path d="M185.1,179.2c0,-1,.7,-1.7,1.7,-1.7c.9,0,1.7,.7,1.7,1.7c0,.9,-.8,1.7,-1.7,1.7c-1,0,-1.7,-.8,-1.7,-1.7Z" class="g4_247"/>
<path d="M208,146.3c0,-.9,.7,-1.7,1.7,-1.7c1,0,1.7,.8,1.7,1.7c0,1,-.7,1.8,-1.7,1.8c-1,0,-1.7,-.8,-1.7,-1.8Z" class="g3_247"/>
<path d="M208,146.3c0,-.9,.7,-1.7,1.7,-1.7c1,0,1.7,.8,1.7,1.7c0,1,-.7,1.8,-1.7,1.8c-1,0,-1.7,-.8,-1.7,-1.8Z" class="g4_247"/>
<path d="M230.9,113.5c0,-1,.8,-1.7,1.7,-1.7c1,0,1.7,.7,1.7,1.7c0,.9,-.7,1.7,-1.7,1.7c-.9,0,-1.7,-.8,-1.7,-1.7Z" class="g3_247"/>
<path d="M230.9,113.5c0,-1,.8,-1.7,1.7,-1.7c1,0,1.7,.7,1.7,1.7c0,.9,-.7,1.7,-1.7,1.7c-.9,0,-1.7,-.8,-1.7,-1.7Z" class="g4_247"/>
<path d="M139.2,244.9c0,-1,.8,-1.7,1.7,-1.7c1,0,1.8,.7,1.8,1.7c0,.9,-.8,1.7,-1.8,1.7c-.9,0,-1.7,-.8,-1.7,-1.7Z" class="g3_247"/>
<path d="M139.2,244.9c0,-1,.8,-1.7,1.7,-1.7c1,0,1.8,.7,1.8,1.7c0,.9,-.8,1.7,-1.8,1.7c-.9,0,-1.7,-.8,-1.7,-1.7Z" class="g4_247"/>
<path d="M116.3,277.7c0,-.9,.8,-1.7,1.7,-1.7c1,0,1.7,.8,1.7,1.7c0,1,-.7,1.7,-1.7,1.7c-.9,0,-1.7,-.7,-1.7,-1.7Z" class="g3_247"/>
<path d="M116.3,277.7c0,-.9,.8,-1.7,1.7,-1.7c1,0,1.7,.8,1.7,1.7c0,1,-.7,1.7,-1.7,1.7c-.9,0,-1.7,-.7,-1.7,-1.7Z" class="g4_247"/>
<path d="M171.3,154.7l20.6,10.4" class="g9_247"/>
<path d="M194.9,166.6l-4.6,-.5l1.6,-1l-.1,-2Z" class="g1_247"/>
<path d="M175.5,202.1c2.3,2.7,3.6,6.1,3.6,9.9" class="g9_247"/>
<path d="M173.4,199.6l4.1,2.2l-2,.3l-.6,1.9Z" class="g1_247"/>
<path d="M397.9,394.6h69.3v27.5H397.9Zm69.3,0H570.4v27.5H467.2Z" class="ga_247"/>
<path d="M397.5,590.8h69.7m0,0H570.8M397.5,394.6h69.7m-69.3,27.2V395m69.3,-.4H570.8M467.2,421.8V395m103.2,26.8V395M397.5,422.1h69.7m0,0H570.8M397.9,440.5v-18m69.3,18v-18m103.2,18v-18M397.9,458.8V440.5m69.3,18.3V440.5m103.2,18.3V440.5M397.9,477.9V458.8m69.3,19.1V458.8m103.2,19.1V458.8M397.9,496.2V477.9m69.3,18.3V477.9m103.2,18.3V477.9M397.9,514.5V496.2m69.3,18.3V496.2m103.2,18.3V496.2M397.9,532.9V514.5m69.3,18.4V514.5m103.2,18.4V514.5M397.9,551.2V532.9m69.3,18.3V532.9m103.2,18.3V532.9M397.9,569.5V551.2m69.3,18.3V551.2m103.2,18.3V551.2M397.9,590.4V569.5m69.3,20.9V569.5m103.2,20.9V569.5" class="gb_247"/>
<path clip-path="url(#c0_247)" d="M522.7,443.4h9" class="gc_247"/>
<path clip-path="url(#c1_247)" d="M522.7,462.1h9" class="gc_247"/>
<path clip-path="url(#c2_247)" d="M522.7,535.8h9" class="gc_247"/>
<path clip-path="url(#c3_247)" d="M522.7,554.2h9" class="gc_247"/>
</svg>