<?xml version="1.0" encoding="UTF-8" standalone="no"?>
<!DOCTYPE svg PUBLIC "-//W3C//DTD SVG 1.1//EN"
"http://www.w3.org/Graphics/SVG/1.1/DTD/svg11.dtd">
<svg viewBox="0 0 931 1096" version="1.1" xmlns="http://www.w3.org/2000/svg" xmlns:xlink="http://www.w3.org/1999/xlink">
<defs>
<clipPath id="c0_291"><path d="M107,132.9V99.2H880v33.7Z"/></clipPath>
<clipPath id="c1_291"><path d="M450.7,400.1V368.5H569.2v31.6Z"/></clipPath>
<style type="text/css"><![CDATA[
.g0_291{
fill: none;
stroke: #241F1F;
stroke-width: 0.763;
stroke-miterlimit: 10;
}
.g1_291{
fill: none;
stroke: #0079C2;
stroke-width: 0.763;
}
.g2_291{
fill: none;
stroke: #241F1F;
stroke-width: 0.763;
stroke-miterlimit: 3;
stroke-dasharray: 10,4;
}
.g3_291{
fill: none;
stroke: #EE008C;
stroke-width: 0.916;
stroke-linejoin: round;
}
.g4_291{
fill: none;
stroke: #241F1F;
stroke-width: 0.611;
stroke-miterlimit: 3;
}
.g5_291{
fill: #241F1F;
}
.g6_291{
fill: none;
stroke: #00AEEF;
stroke-width: 0.916;
stroke-linejoin: round;
}
.g7_291{
fill: none;
stroke: #241F1F;
stroke-width: 0.505;
stroke-miterlimit: 3;
}
.g8_291{
fill: none;
stroke: #6AC48C;
stroke-width: 0.916;
stroke-linejoin: round;
}
.g9_291{
fill: none;
stroke: #241F1F;
stroke-width: 0.381;
stroke-miterlimit: 3;
}
.ga_291{
fill: none;
stroke: #FFF;
stroke-width: 1.298;
stroke-miterlimit: 3;
}
.gb_291{
fill: none;
stroke: #241F1F;
stroke-width: 0.481;
stroke-miterlimit: 10;
}
.gc_291{
fill: #969698;
}
.gd_291{
fill: none;
stroke: #969698;
stroke-width: 0.305;
stroke-miterlimit: 3;
}
.ge_291{
fill: none;
stroke: #C0BFC1;
stroke-width: 0.381;
stroke-miterlimit: 3;
}
.gf_291{
fill: none;
stroke: #C0BFC1;
stroke-width: 0.381;
stroke-linejoin: round;
}
.gg_291{
fill: #C0BFC1;
}
.gh_291{
fill: none;
stroke: #ABABAD;
stroke-width: 0.305;
stroke-linejoin: round;
}
.gi_291{
fill: none;
stroke: #C0BFC1;
stroke-width: 0.381;
stroke-linecap: round;
stroke-linejoin: round;
}
.gj_291{
fill: none;
stroke: #ABABAD;
stroke-width: 0.381;
stroke-linecap: round;
stroke-linejoin: round;
}
.gk_291{
fill: none;
stroke: #ABABAD;
stroke-width: 0.305;
stroke-miterlimit: 3;
}
.gl_291{
fill: #ABABAD;
}
.gm_291{
fill: none;
stroke: #EE008C;
stroke-width: 0.763;
stroke-linejoin: round;
}
]]></style>
</defs>
<image clip-path="url(#c0_291)" preserveAspectRatio="none" x="107" y="99" width="773" height="34" xlink:href="img/1.png"/>
<path d="M513.5,334h57.4m148.3,0h41.4" class="g0_291"/>
<path clip-path="url(#c1_291)" d="M512.2,384.5h57.4" class="g0_291"/>
<path d="M719.2,384.5h43.9M512,436.4h43.2m164.6,0h43.1" class="g0_291"/>
<path d="M345.7,278.7c0,0,-3.1,0,-3.1,3V465.1c0,0,0,3,3.1,3H875.1c0,0,3,0,3,-3V281.7c0,0,0,-3,-3,-3H345.7Z" class="g1_291"/>
<path d="M665.5,687.7H867.2M665.5,614.4H867.2" class="g2_291"/>
<path d="M665.5,685.4c76.6,0,80.4,-12.4,100.8,-34.3c20.5,-22,24.3,-34.4,100.9,-34.4" class="g3_291"/>
<path d="M660.9,651.1H871.8" class="g4_291"/>
<path fill-rule="evenodd" d="M871.8,651.1l-1.7,-2.5l6.6,2.5l-6.6,2.4Z" class="g5_291"/>
<path d="M766.3,706.1v-110" class="g4_291"/>
<path fill-rule="evenodd" d="M766.3,596.1l-2.4,1.6l2.4,-6.5l2.5,6.5Z" class="g5_291"/>
<path d="M264.1,556.2c-34,67.6,-92.1,85.9,-155.8,85.9" class="g6_291"/>
<path d="M165.3,608.9h-6.6m111.2,70.9h-6.5" class="g7_291"/>
<path d="M135.8,733.1c34,-67.5,92,-85.9,155.8,-85.9" class="g8_291"/>
<path d="M267.9,556.2c-17.6,41.1,-50.8,76,-68,88.1c-17.2,12.1,-50.4,47,-68,88.1" class="g3_291"/>
<path fill-rule="evenodd" d="M294.6,644.3L293,641.8l6.5,2.5l-6.5,2.4Z" class="g5_291"/>
<path fill-rule="evenodd" d="M199.9,561.8l-2.4,1.6l2.4,-6.5l2.5,6.5Z" class="g5_291"/>
<path d="M173.9,615.9l9.9,8.9" class="g9_291"/>
<path d="M186.2,627l-4.3,-1.7l1.9,-.5l.3,-2Z" class="g5_291"/>
<path d="M228.7,673.3l-8.9,-9.9" class="g9_291"/>
<path d="M217.6,660.9l4.1,2.2l-1.9,.3l-.5,1.9Z" class="g5_291"/>
<path d="M397.9,671.2h-6.5m166.9,-.8h-7" class="g7_291"/>
<path d="M562.5,559.6C551,599.3,518,659.2,472,659.2c-46.1,0,-79.1,-59.9,-90.5,-99.6" class="g3_291"/>
<path d="M377.8,559c37.5,109.4,87.9,142.2,197.8,151.4" class="g8_291"/>
<path d="M566.1,559C528.7,668.4,478.3,701.2,368.3,710.4" class="g6_291"/>
<path d="M536.5,592.9l4,4.4" class="g9_291"/>
<path d="M542.7,599.8l-4.1,-2.1l1.9,-.4l.6,-1.8Z" class="g5_291"/>
<path d="M368.8,714.2H572" class="g4_291"/>
<path fill-rule="evenodd" d="M572,714.2l-1.6,-2.5l6.5,2.5l-6.5,2.4Z" class="g5_291"/>
<path fill-rule="evenodd" d="M472,563l-2.5,1.6l2.5,-6.5l2.4,6.5Z" class="g5_291"/>
<path d="M468.9,659.2H475" class="g4_291"/>
<path d="M526,667.4l-9.7,-9.9" class="g9_291"/>
<path d="M514,655.1l4.3,2l-2,.4l-.4,1.9Z" class="g5_291"/>
<path d="M419.9,664.4l5.7,-6" class="g9_291"/>
<path d="M427.9,656.1l-1.9,4.2l-.4,-1.9l-1.9,-.4Z" class="g5_291"/>
<path d="M262.5,556.7h6.1" class="ga_291"/>
<path d="M108.3,644.3H294.6m-94.7,88.6V561.8M472,732.5V563" class="g4_291"/>
<path d="M186.9,770h4.8m32.1,0h4.8m219.1,0h4.8m32,0h4.8" class="gb_291"/>
<path d="M108.5,939.9H310.2" class="g4_291"/>
<path fill-rule="evenodd" d="M310.2,939.9l-1.7,-2.5l6.5,2.5l-6.5,2.4Z" class="g5_291"/>
<path d="M123.8,885.5v.4l1.5,-.5v-.5Z" class="gc_291"/>
<path d="M125.3,884.9l-1.5,.6v.4l1.5,-.5v-.5Z" class="gd_291"/>
<path d="M125.3,885.4h4.4V885l-4.4,-.1Z" class="gc_291"/>
<path d="M129.7,885l-4.4,-.1v.5h4.4V885Z" class="gd_291"/>
<path d="M132.7,939.8l-2.1,-26.2l-1.2,-28.4l.3,.2l1.3,28.3l2.2,26Z" class="gc_291"/>
<path d="M132.7,939.8l-2.1,-26.2l-1.2,-28.4l.3,.2l1.3,28.3l2.2,26l-.5,.1Z" class="gd_291"/>
<path d="M125.3,884.9l-1.4,28.4l-2.2,26.2h.7l2.2,-26.2l1.2,-28.4Z" class="gc_291"/>
<path d="M125.3,884.9l-1.4,28.4l-2.2,26.2h.7l2.2,-26.2l1.2,-28.4h-.5Z" class="gd_291"/>
<path d="M129.1,914.3l-5.5,-5.4l5.2,-5.2l-4.9,-4.9l4.4,-4.4l-4.2,-4.2l4.2,-4.2m-4.8,28.2l5.4,-5.4l-5.2,-5.2l4.9,-4.9l-4.4,-4.4l4.2,-4.2l-4.2,-4.2" class="ge_291"/>
<path d="M122.4,914.2l7.9,6.9l-8.5,7.2l9.2,9.6" class="gf_291"/>
<path d="M123.8,885.9h5.1v-.4h-5.1v.4Z" class="gg_291"/>
<path d="M123.8,885.9h5.1v-.4h-5.1v.4Z" class="gh_291"/>
<path d="M121.3,937.9l9.5,-9.6l-8.7,-7.2l7.9,-6.9" class="gf_291"/>
<path d="M123.5,914.2l5.6,.1" class="gi_291"/>
<path d="M130.1,914.1l.7,-.3" class="gj_291"/>
<path d="M128.9,885.9l1.2,28.4l2.1,26.5h-1l-2.1,-26.5L128,885.9Z" class="gg_291"/>
<path d="M128.9,885.9l1.2,28.4l2.1,26.5h-1l-2.1,-26.5L128,885.9h.9Z" class="gk_291"/>
<path d="M129,885.9l1.2,28.3l2.3,26.3l-.3,.3l-2.1,-26.5l-1.2,-28.4Z" class="gl_291"/>
<path d="M129,885.9l1.2,28.3l2.3,26.3l-.3,.3l-2.1,-26.5l-1.2,-28.4h.1Z" class="gk_291"/>
<path d="M132.9,940l-2.1,-26.2l-1.2,-28.3l.1,-.1l1.3,28.3l2.2,26Z" class="gl_291"/>
<path d="M132.9,940l-2.1,-26.2l-1.2,-28.3l.1,-.1l1.3,28.3l2.2,26l-.3,.3Z" class="gk_291"/>
<path d="M123.8,885.9l-1.4,28.3l-2.2,26.2h1l2.3,-26.2l1.2,-28.3Z" class="gg_291"/>
<path d="M123.8,885.9l-1.4,28.3l-2.2,26.2h1l2.3,-26.2l1.2,-28.3h-.9Z" class="gk_291"/>
<path fill-rule="evenodd" d="M129,885.4l-2.5,-19.2l2.4,19.3Z" class="gl_291"/>
<path d="M129,885.4l-2.5,-19.2l2.4,19.3l.1,-.1Z" class="gk_291"/>
<path fill-rule="evenodd" d="M129.7,885l-3.2,-18.8l3.1,18.8Z" class="gl_291"/>
<path d="M129.7,885l-3.2,-18.8l3.1,18.8h.1Z" class="gk_291"/>
<path d="M125.3,884.9h.5l.7,-18.7Z" class="gc_291"/>
<path d="M125.8,884.9l.7,-18.7l-1.2,18.7h.5Z" class="gd_291"/>
<path d="M128.9,885.5v.4l.8,-.5V885Z" class="gl_291"/>
<path d="M129.7,885l-.8,.5v.4l.8,-.5V885Zm-5.1,.5l3.2,-3.2l-2.7,-2.6l2.4,-2.3l-2.2,-2.2l2,-2l-1.5,-1.5l1.3,-1.3L126,869.3" class="gh_291"/>
<path d="M123.8,885.5l2.7,-19.3l-1.9,19.3Z" class="gg_291"/>
<path d="M123.8,885.5l2.7,-19.3l-1.9,19.3h-.8Z" class="gk_291"/>
<path d="M128,885.5l-1.5,-19.3l2.4,19.3Z" class="gg_291"/>
<path d="M128,885.5l-1.5,-19.3l2.4,19.3H128Z" class="gk_291"/>
<path d="M128,885.5l-3.1,-3.1l2.7,-2.8l-2.3,-2.3l2.1,-2.1l-1.8,-1.8l1.6,-1.6l-1.4,-1.4l1.2,-1.2" class="gh_291"/>
<path d="M209.3,962.8V853.2" class="g4_291"/>
<path fill-rule="evenodd" d="M209.3,853.2l-2.4,1.6l2.4,-6.5l2.5,6.5Z" class="g5_291"/>
<path d="M289.4,885.5v.4l1.5,-.5v-.5Z" class="gc_291"/>
<path d="M290.9,884.9l-1.5,.6v.4l1.5,-.5v-.5Z" class="gd_291"/>
<path d="M290.9,885.4h4.4V885l-4.4,-.1Z" class="gc_291"/>
<path d="M295.3,885l-4.4,-.1v.5h4.4V885Z" class="gd_291"/>
<path d="M298.3,939.8l-2.1,-26.2l-1.1,-28.4l.2,.2l1.3,28.3l2.2,26Z" class="gc_291"/>
<path d="M298.3,939.8l-2.1,-26.2l-1.1,-28.4l.2,.2l1.3,28.3l2.2,26l-.5,.1Z" class="gd_291"/>
<path d="M290.9,884.9l-1.4,28.4l-2.2,26.2h.7l2.2,-26.2l1.2,-28.4Z" class="gc_291"/>
<path d="M290.9,884.9l-1.4,28.4l-2.2,26.2h.7l2.2,-26.2l1.2,-28.4h-.5Z" class="gd_291"/>
<path d="M294.7,914.3l-5.4,-5.4l5.1,-5.2l-4.9,-4.9l4.4,-4.4l-4.2,-4.2l4.2,-4.2m-4.8,28.2l5.4,-5.4l-5.1,-5.2l4.9,-4.9l-4.4,-4.4l4.2,-4.2l-4.2,-4.2" class="ge_291"/>
<path d="M288,914.2l8,6.9l-8.6,7.2l9.2,9.6" class="gf_291"/>
<path d="M289.4,885.9h5.1v-.4h-5.1v.4Z" class="gg_291"/>
<path d="M289.4,885.9h5.1v-.4h-5.1v.4Z" class="gh_291"/>
<path d="M287,937.9l9.5,-9.6l-8.8,-7.2l8,-6.9" class="gf_291"/>
<path d="M289.1,914.2l5.6,.1" class="gi_291"/>
<path d="M295.8,914.1l.6,-.3" class="gj_291"/>
<path d="M294.5,885.9l1.2,28.4l2.1,26.5h-1l-2.1,-26.5l-1.1,-28.4Z" class="gg_291"/>
<path d="M294.5,885.9l1.2,28.4l2.1,26.5h-1l-2.1,-26.5l-1.1,-28.4h.9Z" class="gk_291"/>
<path d="M294.6,885.9l1.2,28.3l2.3,26.3l-.3,.3l-2.1,-26.5l-1.2,-28.4Z" class="gl_291"/>
<path d="M294.6,885.9l1.2,28.3l2.3,26.3l-.3,.3l-2.1,-26.5l-1.2,-28.4h.1Z" class="gk_291"/>
<path d="M298.5,940l-2.1,-26.2l-1.2,-28.3l.1,-.1l1.3,28.3l2.2,26Z" class="gl_291"/>
<path d="M298.5,940l-2.1,-26.2l-1.2,-28.3l.1,-.1l1.3,28.3l2.2,26l-.3,.3Z" class="gk_291"/>
<path d="M289.4,885.9l-1.3,28.3l-2.3,26.2h1.1l2.2,-26.2l1.2,-28.3Z" class="gg_291"/>
<path d="M289.4,885.9l-1.3,28.3l-2.3,26.2h1.1l2.2,-26.2l1.2,-28.3h-.9Z" class="gk_291"/>
<path fill-rule="evenodd" d="M294.6,885.4l-2.5,-19.2l2.4,19.3Z" class="gl_291"/>
<path d="M294.6,885.4l-2.5,-19.2l2.4,19.3l.1,-.1Z" class="gk_291"/>
<path fill-rule="evenodd" d="M295.3,885l-3.2,-18.8l3.1,18.8Z" class="gl_291"/>
<path d="M295.3,885l-3.2,-18.8l3.1,18.8h.1Z" class="gk_291"/>
<path d="M290.9,884.9h.5l.7,-18.7Z" class="gc_291"/>
<path d="M291.4,884.9l.7,-18.7l-1.2,18.7h.5Z" class="gd_291"/>
<path d="M294.5,885.5v.4l.8,-.5V885Z" class="gl_291"/>
<path d="M295.3,885l-.8,.5v.4l.8,-.5V885Zm-5.1,.5l3.2,-3.2l-2.6,-2.6l2.4,-2.3L291,875.2l1.9,-2l-1.5,-1.5l1.3,-1.3l-1.1,-1.1" class="gh_291"/>
<path d="M289.4,885.5l2.7,-19.3l-1.9,19.3Z" class="gg_291"/>
<path d="M289.4,885.5l2.7,-19.3l-1.9,19.3h-.8Z" class="gk_291"/>
<path d="M293.7,885.5l-1.6,-19.3l2.4,19.3Z" class="gg_291"/>
<path d="M293.7,885.5l-1.6,-19.3l2.4,19.3h-.8Z" class="gk_291"/>
<path d="M293.7,885.5l-3.2,-3.1l2.8,-2.8l-2.4,-2.3l2.1,-2.1l-1.8,-1.8l1.6,-1.6l-1.4,-1.4l1.2,-1.2" class="gh_291"/>
<path d="M126.5,866.2c17.1,6.1,45.7,14.7,82.8,14.7c37.1,0,65.7,-8.6,82.8,-14.7" class="gm_291"/>
</svg>