<?xml version="1.0" encoding="UTF-8" standalone="no"?>
<!DOCTYPE svg PUBLIC "-//W3C//DTD SVG 1.1//EN"
"http://www.w3.org/Graphics/SVG/1.1/DTD/svg11.dtd">
<svg viewBox="0 0 931 1096" version="1.1" xmlns="http://www.w3.org/2000/svg" xmlns:xlink="http://www.w3.org/1999/xlink">
<defs>
<style type="text/css"><![CDATA[
.g0_134{
fill: #E8F6FE;
}
.g1_134{
fill: none;
stroke: #241F1F;
stroke-width: 0.763;
stroke-miterlimit: 10;
}
.g2_134{
fill: #D0007A;
}
.g3_134{
fill: none;
stroke: #00AEEF;
stroke-width: 0.763;
}
.g4_134{
fill: none;
stroke: #EE008C;
stroke-width: 1.527;
stroke-linejoin: round;
}
.g5_134{
fill: #EE008C;
}
.g6_134{
fill: none;
stroke: #EE008C;
stroke-width: 0.763;
stroke-miterlimit: 3;
}
.g7_134{
fill: #241F1F;
}
.g8_134{
fill: none;
stroke: #241F1F;
stroke-width: 0.611;
stroke-miterlimit: 3;
}
.g9_134{
fill: none;
stroke: #EE008C;
stroke-width: 1.069;
stroke-linejoin: round;
}
.ga_134{
fill: #FFF;
}
.gb_134{
fill: none;
stroke: #241F1F;
stroke-width: 0.763;
stroke-miterlimit: 3;
}
.gc_134{
fill: none;
stroke: #00AEEF;
stroke-width: 1.145;
}
]]></style>
</defs>
<path d="M334.8,509H446.3v26H334.8Zm111.5,0h55v26h-55Zm55,0h77.9v26H501.3Zm77.9,0h77.9v26H579.2Zm77.9,0H776.3v26H657.1Z" class="g0_134"/>
<path d="M446.3,556.3v-21m0,42.4V556.3m0,42.8V577.7m0,44V599.1M334.8,556.3v-21m0,42.4V556.3m0,42.8V577.7M334.4,509H446.3m55,0h77.9m0,0h77.9M334.4,535H446.3m55,0h77.9m0,0h77.9m-322.3,-.4V509.4m0,112.3V599.1m441.5,22.6V599.1M334.4,622H446.3m0,0h55m0,0h77.9m0,0h77.9m0,0H776.7M657.1,556.3v-21m119.2,21v-21M657.1,577.7V556.3m119.2,21.4V556.3M657.1,599.1V577.7m119.2,21.4V577.7M657.1,509H776.7M657.1,535H776.7m-119.6,-.4V509.4m119.2,25.2V509.4m-330,-.4h55m-55,26h55m-55,-.4V509.4m55,25.2V509.4m77.9,25.2V509.4m-77.9,46.9v-21m77.9,21v-21m-77.9,42.4V556.3m77.9,21.4V556.3m-77.9,42.8V577.7m77.9,21.4V577.7m-77.9,44V599.1m77.9,22.6V599.1m77.9,22.6V599.1" class="g1_134"/>
<path d="M288.8,752.3c0,0,-1.6,0,-1.6,1.5V763c0,0,0,1.5,1.6,1.5h9.1c0,0,1.6,0,1.6,-1.5v-9.2c0,0,0,-1.5,-1.6,-1.5Z" class="g2_134"/>
<path d="M560.3,885.3h10m69.2,0h10" class="g1_134"/>
<path d="M453.4,958.9c0,0,-3.1,0,-3.1,3.1v71c0,0,0,3.1,3.1,3.1H657.3c0,0,3.1,0,3.1,-3.1V962c0,0,0,-3.1,-3.1,-3.1H453.4Z" class="g3_134"/>
<path d="M187.9,228.2H151.3" class="g4_134"/>
<path d="M149.5,228.2c0,-.9,.8,-1.7,1.8,-1.7c.9,0,1.7,.8,1.7,1.7c0,1,-.8,1.7,-1.7,1.7c-1,0,-1.8,-.7,-1.8,-1.7Z" class="g5_134"/>
<path d="M149.5,228.2c0,-.9,.8,-1.7,1.8,-1.7c.9,0,1.7,.8,1.7,1.7c0,1,-.8,1.7,-1.7,1.7c-1,0,-1.8,-.7,-1.8,-1.7Z" class="g6_134"/>
<path d="M186.2,228.2c0,-.9,.8,-1.7,1.7,-1.7c1,0,1.7,.8,1.7,1.7c0,1,-.7,1.7,-1.7,1.7c-.9,0,-1.7,-.7,-1.7,-1.7Z" class="g5_134"/>
<path d="M186.2,228.2c0,-.9,.8,-1.7,1.7,-1.7c1,0,1.7,.8,1.7,1.7c0,1,-.7,1.7,-1.7,1.7c-.9,0,-1.7,-.7,-1.7,-1.7Z" class="g6_134"/>
<path fill-rule="evenodd" d="M242.9,228.2l-1.6,-2.4l6.5,2.4l-6.5,2.5Z" class="g7_134"/>
<path d="M187.9,228.2h55m-165,-3v6.1M53.5,228.2h97.8" class="g8_134"/>
<path d="M240.1,694h21.2" class="g4_134"/>
<path fill-rule="evenodd" d="M261.3,694l-1.7,-2.4l6.6,2.4l-6.6,2.5Z" class="g7_134"/>
<path d="M240.1,694h21.2" class="g9_134"/>
<path d="M266.2,694l-6.5,2.5l1.6,-2.5l-1.6,-2.4Z" class="g5_134"/>
<path d="M204.5,694H79.6" class="g4_134"/>
<path d="M53.5,694H76.2" class="g8_134"/>
<path d="M76.2,694c0,-.9,.8,-1.7,1.7,-1.7c1,0,1.7,.8,1.7,1.7c0,1,-.7,1.8,-1.7,1.8c-.9,0,-1.7,-.8,-1.7,-1.8Z" class="ga_134"/>
<path d="M76.2,694c0,-.9,.8,-1.7,1.7,-1.7c1,0,1.7,.8,1.7,1.7c0,1,-.7,1.8,-1.7,1.8c-.9,0,-1.7,-.8,-1.7,-1.8Z" class="gb_134"/>
<path d="M204.5,694c0,-.9,.8,-1.7,1.8,-1.7c.9,0,1.7,.8,1.7,1.7c0,1,-.8,1.8,-1.7,1.8c-1,0,-1.8,-.8,-1.8,-1.8Z" class="ga_134"/>
<path d="M204.5,694c0,-.9,.8,-1.7,1.8,-1.7c.9,0,1.7,.8,1.7,1.7c0,1,-.8,1.8,-1.7,1.8c-1,0,-1.8,-.8,-1.8,-1.8Z" class="gb_134"/>
<path d="M236.6,694c0,-.9,.8,-1.7,1.7,-1.7c1,0,1.8,.8,1.8,1.7c0,1,-.8,1.8,-1.8,1.8c-.9,0,-1.7,-.8,-1.7,-1.8Z" class="ga_134"/>
<path d="M236.6,694c0,-.9,.8,-1.7,1.7,-1.7c1,0,1.8,.8,1.8,1.7c0,1,-.8,1.8,-1.8,1.8c-.9,0,-1.7,-.8,-1.7,-1.8Z" class="gb_134"/>
<path d="M208,694h28.6" class="g8_134"/>
<path d="M304.6,973.6c0,0,-1.5,0,-1.5,1.5v14.1c0,0,0,1.5,1.5,1.5h14.1c0,0,1.6,0,1.6,-1.5V975.1c0,0,0,-1.5,-1.6,-1.5H304.6Z" class="gc_134"/>
</svg>