<?xml version="1.0" encoding="UTF-8" standalone="no"?>
<!DOCTYPE svg PUBLIC "-//W3C//DTD SVG 1.1//EN"
"http://www.w3.org/Graphics/SVG/1.1/DTD/svg11.dtd">
<svg viewBox="0 0 907 1045" version="1.1" xmlns="http://www.w3.org/2000/svg" xmlns:xlink="http://www.w3.org/1999/xlink">
<defs>
<clipPath id="c0_70"><path d="M90.8,198.9V105.4h84.6v93.5Z"/></clipPath>
<clipPath id="c1_70"><path d="M712.4,217.8l-22.5,-52l30.9,-11.4h39.9l23.2,53.4l-27,10Z"/></clipPath>
<clipPath id="c2_70"><path d="M90.7,198.9V105.4h84.7v93.5Z"/></clipPath>
<clipPath id="c3_70"><path d="M689.9,217.8V154.4h94v63.4Z"/></clipPath>
<clipPath id="c4_70"><path d="M379.5,507.8V446.1H365L342.1,294.7L342,294l-.7,.1L158.7,321.7l-.7,.1l.1,.7l18.7,123.6H152.7V288.9H381.5V507.8Z"/></clipPath>
<clipPath id="c5_70"><path d="M90.2,492.6V446.1h62.5v33.7L98.5,488l-1,.2l.1,.9l.6,3.5Z"/></clipPath>
<clipPath id="c6_70"><path d="M90.2,723.3V491.9h7.9l29.6,196.4H111.4v35Z"/></clipPath>
<clipPath id="c7_70"><path d="M330.8,688.3V675.2l29.9,-4.5l1,-.2l-.2,-.9L337.1,507.8h42.4V688.3Z"/></clipPath>
<clipPath id="c8_70"><path d="M282.7,688.3v-5.8l48.8,-7.4v13.2Z"/></clipPath>
<clipPath id="c9_70"><path d="M244,688.3l39.5,-6v6Z"/></clipPath>
<clipPath id="ca_70"><path d="M152.7,479.8V446.1h24.1l4.4,29.4l-28.5,4.3Zm184.4,28l-5.4,-35.5l35.7,-5.4l.7,-.1l-.1,-.7l-3,-20h14.5v61.7Z"/></clipPath>
<clipPath id="cb_70"><path d="M182.6,475.3l-4.4,-29.2h50.4L205,449.6l1.9,12.7l58.7,-8.8l-1.1,-7.4h99.1l2.9,19.5l-35,5.3L329,454.2l-.2,-1l-.9,.2L182.6,475.3Z"/></clipPath>
<clipPath id="cc_70"><path d="M181.2,475.5l-4.4,-29.4h1.4l4.4,29.2l-1.4,.2Zm150.5,-3.2l-.2,-1.4l35,-5.3l-2.9,-19.5H365l3,20l.1,.7l-.7,.1l-35.7,5.4Z"/></clipPath>
<clipPath id="cd_70"><path d="M206.9,462.3L205,449.6l23.6,-3.5h35.9l1.1,7.4l-58.7,8.8Z"/></clipPath>
<clipPath id="ce_70"><path d="M210.6,460.5c-.1,0,-.3,0,-.5,-.2c0,0,-.3,-.3,-.4,-.7c0,0,0,-.3,0,-.7c0,0,0,-.5,0,-.7c0,0,0,-.2,-.1,-.4v-.1c0,0,-.1,-.5,-.4,-1.3c0,0,-.4,-.8,-.4,-1.2c0,0,0,-.1,0,-.1c0,0,.2,-.2,.5,-.3h.1c.1,0,.5,.1,.7,.3c0,0,0,.1,.2,.5c0,0,.1,.3,.3,.4c0,0,.5,-.9,1.3,-1h.1c0,0,1,0,1.6,1c0,0,.1,.1,.9,1.8v-.1c0,0,0,.3,0,.4c0,0,0,.1,.1,.4c0,0,.1,.3,.1,.5c0,0,.1,.6,-.3,.8h-.1c0,0,-.9,0,-1.1,-1.2c0,0,0,-.1,0,-.4c0,0,-.1,-.3,-.1,-.4c0,0,-.2,-1.2,-.9,-1.4c0,0,-.5,.7,-.7,1.8c0,0,0,.1,-.3,1.8c0,0,-.2,.4,-.5,.5c0,0,-.1,0,-.1,0Zm34.1,-6.2c0,0,.1,0,.2,-.1c0,0,.4,0,.5,-.2c0,0,.3,-.2,.3,-.5c0,0,0,-.1,-.1,-.2c0,0,0,-.2,0,-.3l-.1,-.1c0,0,-.1,-.3,-.4,-.3c0,0,-.3,0,-1,.8c0,0,.1,.1,0,.3c0,0,-.1,.2,-.1,.3c0,0,.1,.2,.3,.2c0,0,.2,.1,.4,.1Zm-20.3,4.4c-.1,0,-.3,0,-.6,0c0,0,-.4,-.1,-.9,-.2c0,0,-1.3,-.5,-1.6,-2.3c0,0,0,-.5,-.1,-1.2c0,0,.1,-.5,.8,-1.6c0,0,.7,-1.3,1.7,-1.5c0,0,.1,0,.3,0c.2,0,.5,.1,.8,.1c0,0,.6,.3,.9,.8v.2c0,0,.1,.9,-.3,1.3c0,0,-.3,.4,-1.3,.8c0,0,-.9,.5,-1.2,.9c0,0,0,.2,0,.3c0,0,.2,1,.9,1.2l.4,-.1c0,0,.2,0,.3,0c0,0,.2,0,.5,-.3c0,0,.3,-.3,.6,-.3h.1c.1,0,.3,0,.6,.3c0,0,0,.1,.1,.2c0,0,0,.3,-.3,.6c0,0,-.3,.3,-.6,.5c0,0,-.3,.3,-.7,.3c0,0,-.2,0,-.4,0ZM228.8,457.6c-.1,0,-.2,0,-.3,-.1c0,0,-.9,-.9,-1.5,-2.5c0,0,-.3,-.7,-.9,-2.8v-.1c0,0,-.1,-.4,.2,-.6c0,0,.2,-.1,.3,-.1c.1,0,.4,.1,.6,.3c0,0,.2,.3,.4,.7c0,0,.1,0,.1,.1c0,0,0,.1,0,.2c0,0,0,.2,0,.2c0,0,.1,.3,.3,.5c0,0,.8,-.8,.9,-.9c0,0,.5,-.5,1,-.7c0,0,.2,0,.3,0c0,0,.1,-.1,.3,-.1c.4,0,.9,.1,1.2,.5l.1,.2c0,0,.1,.6,-.4,.9c0,0,-.4,-.2,-.8,-.2q-.1,0,-.2,0c0,0,-.3,0,-.4,.1c0,0,-.8,.5,-.8,1.8c0,0,.1,1.1,.2,2.1c0,0,-.1,.1,-.3,.3c0,0,-.2,.2,-.3,.2Zm5.5,-1q-.1,0,-.2,0l-.5,-.4l-.9,-4.6c0,0,.1,-.4,.6,-.5c0,0,.1,0,.1,0c.1,0,.4,0,.6,.2c0,0,.3,.7,.6,2.1c0,0,0,.2,.1,.5c0,0,0,.4,0,.6c0,0,.1,.8,.3,1.4c0,0,-.3,.7,-.6,.7c0,0,-.1,0,-.1,0Zm-17.4,2.7c-.2,0,-.6,-.1,-.9,-.5c0,0,-.4,-2.3,-.8,-4.5c0,0,-.5,-2.8,-1.1,-4.4c0,0,.2,-.4,.4,-.4c0,0,.1,0,.1,0c.1,0,.3,0,.5,.2c0,0,.3,.2,.4,.5c0,0,.3,.9,.7,1.9c0,0,.3,1,.4,2c0,0,.1,0,.6,-.3c0,0,.4,-.1,.7,-.2c0,0,.1,0,.2,0c.2,0,.4,0,.7,.2c0,0,.5,.3,.9,.8c0,0,.7,1.1,.9,2.5c0,0,.1,.9,0,1.6c0,0,0,.3,-.5,.4c0,0,-.1,0,-.1,0c-.1,0,-.2,0,-.4,-.1c0,0,-.4,-.4,-.5,-1.2c0,0,0,-.2,-.1,-.5c0,0,0,-.4,0,-.5c0,0,-.3,-1.4,-1,-1.8c0,0,-.5,.4,-.7,1.3c0,0,-.1,.6,.1,2.1v.2c0,0,0,.1,-.4,.7h-.1Zm-9.5,2.9c-.1,0,-.3,0,-.6,-.1c0,0,-.1,-.8,-.3,-2.2c0,0,-.8,-5.3,-1,-9.9c0,0,0,-.2,.2,-.3c0,0,.3,-.2,.3,-.2h.1c.1,0,.5,0,.8,.6c0,.2,.1,4.3,1.1,11.7c0,0,-.2,.3,-.5,.4c0,0,-.1,0,-.1,0Zm42.5,-7.6c-.1,0,-.3,0,-.5,-.2c0,0,-.3,-.3,-.4,-.7c0,0,-.1,-.3,0,-.8c0,0,0,-.4,0,-.6c0,0,-.1,-.2,-.2,-.5c0,0,0,-.5,-.4,-1.3c0,0,-.3,-.9,-.3,-1.3H248c0,0,.2,-.2,.5,-.3c0,0,.1,0,.1,0c.2,0,.5,0,.7,.3c0,0,.1,.1,.2,.5c0,0,.2,.3,.4,.4c0,0,.5,-.9,1.3,-1h.1c0,0,1,0,1.6,1c0,0,.1,.1,.9,1.7c0,0,0,.3,0,.4c0,0,0,.1,.1,.4c0,0,.1,.3,.1,.5c0,0,.1,.6,-.4,.8c0,0,-.9,0,-1.1,-1.2c0,0,-.1,-.2,-.1,-.4c0,0,0,-.3,0,-.4c0,0,-.2,-1.2,-1,-1.4c0,0,-.4,.7,-.6,1.7c0,0,-.1,.2,-.3,1.9c0,0,-.2,.4,-.6,.5Zm-16.5,-5.9v0Zm-.4,.7c0,0,-.3,0,-.6,0c0,0,-.3,-.1,-.4,-.4c0,0,-.1,-.1,-.1,-.2c0,0,-.1,-.5,.4,-.7c0,0,.3,0,.7,.1c0,0,.3,.2,.4,.5c0,.1,0,.3,-.4,.7Zm30.3,3.5c-.1,0,-.3,0,-.6,-.1c0,0,-.4,0,-.9,-.1c0,0,-1.3,-.5,-1.6,-2.3c0,0,0,-.6,0,-1.3c0,0,0,-.4,.7,-1.6c0,0,.7,-1.3,1.7,-1.4c0,0,.1,0,.3,0c.2,0,.5,0,.8,.1c0,0,.6,.2,.9,.8v.1c0,0,.1,.9,-.3,1.4c0,0,-.3,.3,-1.2,.8c0,0,-1,.5,-1.3,.8c0,0,0,.3,0,.4c0,0,.2,.9,.9,1.1h.4c0,0,.2,-.1,.3,-.1c0,0,.2,0,.5,-.3c0,0,.4,-.2,.6,-.2c0,0,0,-.1,.1,-.1c.1,0,.3,.1,.6,.3c0,0,0,.1,.1,.2c0,0,0,.4,-.3,.7c0,0,-.3,.2,-.6,.5c0,0,-.3,.2,-.7,.3c0,0,-.1,0,-.4,0Zm-7.1,.7c-.3,0,-.9,-.1,-1.2,-.5c0,0,-.5,-.5,-.7,-1.4c0,0,-.1,-.8,.2,-1.9L255,448c0,0,0,-.2,.5,-1.1c0,0,.4,-.6,.3,-1.1c0,0,.2,-.1,.4,-.1h.1c.1,0,.5,0,.9,.3c0,0,.4,.3,.7,.8c0,0,0,.7,-.2,1.4c0,0,-.2,.8,-.5,.9c-.1,0,-.2,0,-.4,-.2c0,0,-.3,-.2,-.4,-.2h-.1c0,0,-.1,.1,-.2,.4c0,0,-.3,1,-.1,3c0,0,.2,.2,.6,.2c0,0,.1,0,.1,0c0,0,.2,0,.3,-.1c0,0,.3,-.1,.9,-.7c0,0,.6,-.5,.9,-.6h.1c.1,0,.4,0,.8,.4c0,.1,0,.5,-.3,.7c0,0,-.1,.3,-.6,.6c0,0,-.5,.3,-.7,.5c0,0,-1.5,.5,-1.6,.5c0,0,-.1,0,-.3,0Zm-16.3,3.2c-.1,0,-.3,0,-.4,-.1c0,0,-1.6,-.5,-2,-2.9v-.1c0,0,0,-.2,0,-.3c0,0,0,-.2,-.1,-.4c0,0,0,-.2,0,-.3c0,0,-.1,-.5,-.3,-.8c0,0,-.1,.1,-.4,.2c0,0,-.4,.1,-.6,.1H236c-.1,0,-.3,0,-.5,-.1c0,0,-.3,-.1,-.3,-.4l.1,-.5h.1c0,0,.2,-.1,.6,-.3c0,0,.4,-.2,.7,-.3c.1,0,.2,0,.3,.1c0,0,.2,-.6,0,-1.5l-.1,-.8c0,0,-.1,-.5,0,-.9c0,0,0,-.1,-.1,-1.4c0,0,-.1,-.8,.2,-1.2c0,0,.1,-.1,.2,-.1h.2c.1,0,.6,.1,.7,.6c0,0,-.1,.8,0,2.3c0,0,.2,2.1,.3,2.4c0,0,.2,.1,.5,.1c0,0,.1,0,.2,-.1c0,0,.1,0,.5,-.1c0,0,.4,-.1,.6,-.1h.2c.1,0,.3,0,.5,.1c0,0,.2,.1,.2,.3c0,0,0,.1,-.1,.3c0,0,0,.3,-.1,.4c0,0,-.3,.1,-.8,.2l-.6,.1c0,0,-.6,.1,-1,.3c0,0,.1,.2,.1,.6c0,0,.1,.2,.1,.7c0,0,.1,.4,.1,.7c0,0,.2,1.5,1.2,2c0,0,1.2,-.4,1.8,-1.5c0,0,.1,0,.2,0c.2,0,.4,0,.5,.1q0,-.1,0,-.1c0,0,-.2,-.9,.4,-1.7c0,0,.8,-1,1.7,-1.2h.2c0,0,.1,0,.4,.1c0,0,.2,.1,.4,.1h.1l.2,-.1c0,0,0,-.3,0,-.6c0,0,-.1,-.6,-.3,-1c0,0,-.3,-.5,-.7,-.5q-.1,0,-.1,0c0,0,-.2,0,-.7,.3c0,0,-.4,.3,-.6,.3c-.1,0,-.3,0,-.5,-.4c0,0,0,-.5,.3,-.9c0,0,.2,-.2,.8,-.6c0,0,.1,0,.4,0c.5,0,1.4,.1,1.8,.7c0,0,1,1.5,1.3,3.7c0,0,.2,1,.1,2c0,0,-.1,.5,-.7,.6c0,0,-.1,0,-.2,0c-.1,0,-.2,0,-.3,0c0,0,-1.1,.7,-1.7,.8c0,0,-.1,0,-.2,0c-.2,0,-.5,0,-.8,-.1c0,0,-.5,-.1,-.9,-.5c0,0,-.1,-.2,-.3,-.5c0,.2,-.2,.6,-.5,1c0,0,-.4,.6,-1,.9c0,0,-.1,0,-.2,0h-.1c0,0,-.2,0,-.4,.2c0,0,-.3,.1,-.5,.1Z"/></clipPath>
<clipPath id="cf_70"><path d="M111.4,924.1V723.3H379.5v-35h70.3V924.1Z"/></clipPath>
<clipPath id="cg_70"><path d="M111.4,723.3v-35h16.3l2.5,16.2l.1,1l1,-.2L244,688.3H379.5v35Z"/></clipPath>
<clipPath id="ch_70"><path d="M132,703.3l-2.3,-15H230.9l-98.9,15Z"/></clipPath>
<clipPath id="ci_70"><path d="M130.3,705.5l-.1,-1l-2.5,-16.2h2l2.3,15l98.9,-15H244l-112.7,17l-1,.2Z"/></clipPath>
<clipPath id="cj_70"><path d="M-2.6,1047.7V-2.6H910.2V1047.7Z"/></clipPath>
<style type="text/css"><![CDATA[
.g0_70{
fill: none;
stroke: #000000;
stroke-width: 0.763;
stroke-linecap: butt;
stroke-linejoin: miter;
stroke-miterlimit: 4;
}
.g1_70{
fill: #FFFFFF;
}
.g2_70{
fill: #E9E9E9;
}
.g3_70{
fill: #AFAFAF;
}
.g4_70{
fill: none;
stroke: #AFAFAF;
stroke-width: 1.364;
stroke-linecap: butt;
stroke-linejoin: miter;
stroke-miterlimit: 4;
}
.g5_70{
fill: none;
stroke: #636363;
stroke-width: 1.527;
stroke-linecap: butt;
stroke-linejoin: miter;
stroke-miterlimit: 4;
}
.g6_70{
fill: none;
stroke: #FFFFFF;
stroke-width: 1.909;
stroke-linecap: butt;
stroke-linejoin: miter;
}
.g7_70{
fill: none;
stroke: #000000;
stroke-width: 0.381;
stroke-linecap: butt;
stroke-linejoin: miter;
}
]]></style>
</defs>
<g clip-path="url(#c2_70)">
<image clip-path="url(#c0_70)" preserveAspectRatio="none" x="91" y="105" width="84" height="94" xlink:href="img/1.jpg"/>
</g>
<path d="M613.2,205.7V953H816.4V205.7H613.2Z" class="g0_70"/>
<path d="M689.9,154.4v63.4h94V154.4h-94Z" class="g1_70"/>
<g clip-path="url(#c3_70)">
<image clip-path="url(#c1_70)" preserveAspectRatio="none" x="690" y="142" width="94" height="90" xlink:href="img/2.png"/>
</g>
<path d="M618.8,198.1v21.1H734.6V198.1H618.8Z" class="g1_70"/>
<image clip-path="url(#c4_70)" preserveAspectRatio="none" x="152" y="289" width="230" height="219" xlink:href="img/3.jpg"/>
<path d="M158.8,322.4l25.9,171.4L367.3,466.2L341.4,294.8L158.8,322.4Z" class="g2_70"/>
<path d="M158.8,322.4l-.7,.1L184,493.9l.1,.7l.7,-.1L367.4,466.9l.7,-.1l-.1,-.7L342.1,294.7L342,294l-.7,.1L158.7,321.7l-.7,.1l.1,.7l.7,-.1l.1,.7L341.5,295.5l-.1,-.7l-.7,.1l25.9,171.4l.7,-.1l-.1,-.7L184.6,493.1l.1,.7l.7,-.1L159.5,322.3l-.7,.1l.1,.7l-.1,-.7Z" class="g3_70"/>
<image clip-path="url(#c5_70)" preserveAspectRatio="none" x="90" y="446" width="97" height="47" xlink:href="img/4.jpg"/>
<image clip-path="url(#c6_70)" preserveAspectRatio="none" x="90" y="492" width="49" height="232" xlink:href="img/5.jpg"/>
<image clip-path="url(#c7_70)" preserveAspectRatio="none" x="331" y="492" width="49" height="232" xlink:href="img/6.jpg"/>
<image clip-path="url(#c8_70)" preserveAspectRatio="none" x="283" y="631" width="49" height="93" xlink:href="img/7.jpg"/>
<image clip-path="url(#c9_70)" preserveAspectRatio="none" x="234" y="677" width="49" height="47" xlink:href="img/8.jpg"/>
<image clip-path="url(#ca_70)" preserveAspectRatio="none" x="152" y="446" width="228" height="62" xlink:href="img/9.jpg"/>
<image clip-path="url(#cb_70)" preserveAspectRatio="none" x="178" y="446" width="189" height="30" xlink:href="img/10.jpg"/>
<image clip-path="url(#cc_70)" preserveAspectRatio="none" x="176" y="446" width="193" height="30" xlink:href="img/11.jpg"/>
<image clip-path="url(#cd_70)" preserveAspectRatio="none" x="205" y="446" width="61" height="17" xlink:href="img/12.jpg"/>
<image clip-path="url(#ce_70)" preserveAspectRatio="none" x="205" y="446" width="61" height="17" xlink:href="img/13.jpg"/>
<path d="M98.6,489l32.6,215.4L360.5,669.7L328,454.3L98.6,489Z" class="g2_70"/>
<path d="M98.6,489l-1,.1l32.6,215.4l.1,1l1,-.2L360.7,670.7l1,-.2l-.2,-.9L329,454.2l-.2,-1l-.9,.2L98.5,488l-1,.2l.1,.9l1,-.1l.2,1L328.2,455.3l-.2,-1l-1,.2l32.6,215.3l.9,-.1l-.1,-1L131,703.4l.2,1l.9,-.2L99.6,488.8l-1,.2l.2,1l-.2,-1Z" class="g3_70"/>
<image clip-path="url(#cf_70)" preserveAspectRatio="none" x="111" y="688" width="339" height="236" xlink:href="img/14.jpg"/>
<image clip-path="url(#cg_70)" preserveAspectRatio="none" x="111" y="688" width="269" height="36" xlink:href="img/15.jpg"/>
<image clip-path="url(#ch_70)" preserveAspectRatio="none" x="129" y="688" width="102" height="16" xlink:href="img/16.jpg"/>
<image clip-path="url(#ci_70)" preserveAspectRatio="none" x="128" y="688" width="117" height="18" xlink:href="img/17.jpg"/>
<path d="M117.5,738.4l25.9,171.4L435.8,865.6L409.9,694.2L117.5,738.4Z" class="g2_70"/>
<path d="M117.5,738.4l25.9,171.4L435.8,865.6L409.9,694.2L117.5,738.4Z" class="g4_70"/>
<path d="M390,365.1c-1,0,-1.8,.5,-2.8,.7c-1.4,.3,-2.8,.5,-4.3,.8c-.9,.1,-1.9,.1,-2.8,.3c-1,.3,-1.7,.5,-2.7,.6c-1.8,.2,-3.6,.6,-5.3,1.2c-1,.4,-2.2,.4,-3.2,.8c.6,-.7,1.3,-1.4,2,-2c.5,-.3,.7,-.8,1.1,-1.1c.3,-.3,.5,-.2,.6,-.5c-.3,.1,-.7,.6,-.9,.9c-.4,.5,-.7,1.1,-1.1,1.5c-.4,.3,-.6,.4,-.8,.7c-.3,.6,-.4,1.5,-1.2,1.7c.5,.3,1.6,.1,2.2,.2c.5,.1,3.2,1.4,3.4,.9m48.1,147.9c1.8,-.2,2.8,-.5,1.7,-2.2c-1.2,-1.1,-2.4,-2.3,-3.6,-3.5c-1.3,-1.4,-2.6,-2.8,-4,-4c-6.8,-5.4,-16.8,-7.3,-25.1,-5.6c-7.5,1.5,-14.1,2.7,-20.3,7.5c-2.4,1.8,-4.3,4.1,-6.3,6.3c-1.1,1.2,-2.6,2.5,-3.2,4.1c.1,-1.4,.1,-2.8,0,-4.1c-.1,-1,-1,-4.6,.2,-5.3c1.3,-.7,1,.9,1,1.6c.1,2.9,-.6,5.3,-1.5,8.1c2.8,1.8,8.1,-.2,11,-.9" class="g5_70"/>
<g clip-path="url(#cj_70)">
<path d="M-4.5,13.7H-27.4m939.5,0H935M-4.5,1031.2H-27.4m939.5,0H935M13.7,-4.5V-27.4m0,1077v22.9m880,-1077V-27.4m0,1077v22.9" class="g6_70"/>
<path d="M-4.5,13.7H-27.4m939.5,0H935M-4.5,1031.2H-27.4m939.5,0H935M13.7,-4.5V-27.4m0,1077v22.9m880,-1077V-27.4m0,1077v22.9" class="g7_70"/>
</g>
</svg>