<?xml version="1.0" encoding="UTF-8" standalone="no"?>
<!DOCTYPE svg PUBLIC "-//W3C//DTD SVG 1.1//EN"
"http://www.w3.org/Graphics/SVG/1.1/DTD/svg11.dtd">
<svg viewBox="0 0 931 1096" version="1.1" xmlns="http://www.w3.org/2000/svg" xmlns:xlink="http://www.w3.org/1999/xlink">
<defs>
<clipPath id="c0_6"><path d="M169.3,132.4V94.2H846.1v38.2Z"/></clipPath>
<clipPath id="c1_6"><path d="M169.3,656.6V618.4H846.1v38.2Z"/></clipPath>
<clipPath id="c2_6"><path d="M53.6,266.6v-118H227.8v118Z"/></clipPath>
<clipPath id="c3_6"><path d="M87.4,251.9v-.4h-.7v.4Zm.4,0v-.4v.4Zm.7,0v-.4h-.6v.4Zm-.4,-.6v-.2H88v.2Zm.4,0v-.2h-.4v.2Zm3.3,-3.4v-.3h-.2v.3Zm.2,0v-.3h-.1v.3Zm.8,0v-.3h-.5v.3ZM193.1,243v-.4h-.7v.4Zm.4,0v-.4h-.1v.4Zm.7,0v-.4h-.6v.4Zm3.3,-.1v-.3h-.2v.3Zm.2,0v-.3h-.1v.3Zm.8,0v-.3H198v.3Zm-4.7,-.7V242h-.1v.2Zm.4,0V242h-.4v.2ZM53.6,267.5V257.2h.2v.2h.4v-.5h.3v-1.7h-.2v-.3h.2v-.3h.1v-.4h.1v.4h.1v-.4v.4H55v-.8h.2l.2,-2.8h.1l.1,2.8h.3v.8v-.3H56v.3h.1v-.3h.1v.3h.2v.3h.2v.3h-.1v1.7h.2v.5v-.6h.1v.6h.1v-.5v.5h.3v-.6h.1v.6h.1V257h.1v.4h.7v.4h1.7v-3.1h1.4v-3.8h1.5v-.8h.5v.8h.1v7.2h.1v-3.7h1.6v-.3h.6v-.4h.4v-.4h1.8v.8h.3v.3h.7v1.2h.7v-1.4h.6v.3h1.5v-3.8h.2v3.8h.2v.8h.6v-.7H74V254h1.1v-.9h-.6v-.6h.6v-.4H78v2h1.1V253h2.6v-1.2h.1V253h.9v1h2.2v-3.4h.8v-.8h.2v.8h.5v-.3v.3h.3v.7h.9v-.2h-.2v-.2h.7v-1v1h.4v-.5h1.1v-1.3h.1v1.3h.2v-4.3H90v.4h.7V246h.1v.5h.8v.8h1.2v-.7h.3v-.2h.2v.2h.2v-.9h.1v.9h.5v-.7h.1v.7h.5v7.1h.7v-3.5h.2v3.5h.1v3.8h.1v-.6h1.5v.2h.1V257h.7v-.3h.2v-.2h-.1v-1.4h1.2v-2.2h.3v2.2h1.1v-1.3h1.8v1.3h2.6v1.4H105v.4h.6v-1h.1v-3.3h2.1v-.9h1.6v.9h.3v-1.4h1.7v1.4h2.3v4.5h1.5v.1h.2v-.5h2v-.3h2.8v.7h1.2v-.7h1.5v-4.9h1v.5h1.2v-.6h.6v-.5h1v.5h.6v.6h.2v-.4h1.7v4.8h.7v.3h.5v-.9h2.8v1.4h.5v-1.3h1.4v.8h.6v-2.2H141v.6h.4v-.3h1.3v-.3H144v-.6h.1v-9.5h1.5V244H151v.4h1.3v10.7h.2v-1.9H154v-.7h.5v.7h.1v3.5h.1v-.4h1.2v-.2h.1v-.5h.1v.5h.1v.2h.2V256h.6v-.4h.4v-.3h1.5V255h.2v.7h.2v-.1h.2v.1h.4v-.5h.3v-2H160v-.4h.2v-.2h.1v-.5h.1v.5V252h.1v.6h.2v-1.1h.2l.2,-3.2h.1l.1,3.2h.3v1.1v-.5h.1v.5h.1v-.5h.1v.5h.2v.2h.2v.4h-.1v2h.1v.5h.1v-.6v.6h.1v-.5h.1v.5h.3v-.6h.1V253h.1v2.3h.1v.4h.7v.6h1.3v-.4h1.1v-.8h-.5v-.5h.5v-.4h2.9V256h1.1v-1h2.6v-1h.2v1h.8v.4h1.4v-3.3h.6v3.8h.5v-.7h.3v-2.6h.2v2.6h1.8v.4h.4v.1h.1v-.1h.5v.1h.1v-1.3h.4v-1.6h-.6v-.2h.6v-2.3h.2v2.2h.3v.1H185v.2h-4.3v.6h-.3v1h1.4v.9h.4v-.4h.9v-.7h1.6v1.1h.3v-.4h.7v-2.1h.2v2.1h.2v-2.6h1.1v-.6h.3v.6h.6v-.4h1.2v.2h.7v.5h.5V241.4h.9v-.9h.2v.9h.4v-.3h.1v.3h.3v.8h.8v-.1h-.1v-.2h.7v-1.2v1.2h.4v-.6h1.1v-1.6h.1v1.6h.2v-.5h.1v.5h.7v-.6h.1v.6h.8v.9h1.2v-.8h.3v-.2h.2v.2h.2v-1h.1v1h.5v-.7v.7h.6v13.5h.2v.4h.3v.5h.5v-.6h1.5v.4h.2v-.4h.6v-.3h.9v.1h.4v-4.5h.4v4.7h.5v.2h.8v-.8h3.2v.7v-.1h1.4V254h.3v1.3h.8V255h1.2v.5h.3v-.1H216v.1h1.4v1.3h.4v-2.5h.3v2.5h.6v-1.4h2.1V257h1.1v-1.9H223v-.5h2.9v.8h1.5V257h.4v10.5Z"/></clipPath>
<clipPath id="c4_6"><path d="M227.7,255.9v-.5h-4.3v-.1h4.3v-.1h.1v.7ZM123.6,253.5v-.3H123v.3Zm.2,0v-.3h-.1v.3Zm1,0v-.3h-.7v.3Zm-1.4,-.5v-.2H123v.2Zm.1,0v-.2v.2Zm-4.4,-2.9v-.2h-.4v.2Zm.5,0v-.2h-.2v.2Zm.3,0v-.2h-.3v.2ZM53.6,267.6V257.5h.5v.3h.4v.3h.6v.2h1.7v3.2v-5.7H57v-.6h.5v.6h1.4v2.7h2.9v-.4h1.4v-2.5h1.9v.5h1.4v.2h1v.5h1.3v.3H70v.3h4.7v1.2h2.7v2.9h1.2v-2.8h3.3v.2H83v-.4h1.8v.5h1v-.5h1.6v.6h1.1v1h1.2V259h1.5v-.6h2.9v.4h1.1v1.3h1.1V259h2.1v1H99v-1.8h.3V260h.4v-.9h1.4V259h2.2v.1h.2v-.4h1.2v.3h.8v-1h.4v.8h1.3v.2h.1v-.6h3.1v.6h.9v-.1h.4v-3.4h.4v3.2h1.3v.2h.7v.3h.1v-.4h1.5v.5h.6V259h.3v-.3h.1V249h.6v-.5h.1v.5h.4v-.7h.1v.7h.2v-.1h.2v.1h.4v.6h1.2v-.7h.8v-.4h.1v.4h.7v-.3h.1v.3h.2v-1.1h.1v4.5H123v.4h.4v-.9h.1v.9h.6v.1H124v.2h.8v-.6h.3v-.3h.1v.3h.5v-.7h.1v.7h.9V257h.5v-.3h.6v-.2h1.3v.3h.6v-.4h.2v.4h1.2v1.8h1.1v.3h.3v-.8H134v.5h1v.3h.4v-.6h1.9v.9h.8v-.1h.3v-.2h2.3v.8h.6v-3.1h.6V259h2.2v.7h2.7v.3h.7v-.2h1.9v-.1h.3v-.3h.3v.3h.2v.1h.2v.2h.9v-.4h2v-.4h.6v-.3h.1v.3h.1v-.4h.2v.4h.2v-.4h.1v.4h.1v-.4h.1v.4v-.4h.2v-.1h-.2v-1.5h.3V257h.2v-.4v.4h.1v-.4h.1v.4h.1v-.8h.9v.8h.1v-.1h.1v.1h.1v-.1v.1h.1v.2h.3v1.5h-.3v.1h.4v.4h.4v-.1h.1v.1h.2v-.5h.2v.5h.1v.4h.4v-.4h.2v.3h.1v-.4h.1v.4h.1v.1h.4v-.1h.2v.1h.2v-.5h.1v.4h.3v.1h.1v-.2h.1v.2h.3v-.1h.1v-.3h.2v.3h.1v.5h2.3v-1.2h1.2v-3.1h1.4v-3.1h5.3v3.1H173v4.4h.6V259h2.6v-.6h5.3v2.8h.5v-1.8h1.5v.9h.4v-1h2.9v1h.5v-.6h.6v-3.4h1.8v.3h.2v-.4h.6v-.4h.9v.4h.6v.3h1.2v-.3h1v3.5h1.5v.6h3.4v-.4h2.6v.4h1.8V257h2.3v-1h1.7v1h.2v-.7h1.6v.7h2.2v4.5h.6v-1.7H212v-1h2.6v-1h1.7v1h2.6v1h-.1v.4h2.3v1.3h.3v-3.7h.2v-2.5h.1v2.5h.7v-2.4h.2v2.4h.6v1.5h2v-1.2h2.6v9.5Z"/></clipPath>
<clipPath id="c5_6"><path d="M80.1,286.1c-8.6,-1.5,-17.5,-3.4,-26.5,-5.7V273c34.6,-1.7,86,-4.4,86,-4.4l88.2,4.4v8c-6.5,1.7,-14.3,3.5,-23.2,5.1Z"/></clipPath>
<clipPath id="c6_6"><path d="M167.4,267c-.4,0,-.6,-.3,-.6,-.6c0,-.3,.2,-.6,.6,-.6c.3,0,.6,.3,.6,.6c0,.3,-.3,.6,-.6,.6Z"/></clipPath>
<clipPath id="c7_6"><path d="M166.9,266.7c-.1,-.1,-.1,-.2,-.1,-.3c0,-.1,0,-.2,.1,-.3h1c0,.1,.1,.2,.1,.3c0,.1,-.1,.2,-.1,.3Z"/></clipPath>
<clipPath id="c8_6"><path d="M170.8,266.8c-.5,0,-.8,-.4,-.8,-.8c0,-.5,.3,-.9,.8,-.9c.5,0,.8,.4,.8,.9c0,.4,-.3,.8,-.8,.8Z"/></clipPath>
<clipPath id="c9_6"><path d="M170.1,266.4c-.1,-.1,-.1,-.2,-.1,-.4c0,-.2,0,-.4,.1,-.5h1.4c.1,.1,.1,.3,.1,.5c0,.2,0,.3,-.1,.4Z"/></clipPath>
<clipPath id="ca_6"><path d="M174.8,266.6c-.6,0,-1.1,-.5,-1.1,-1.1c0,-.6,.5,-1.1,1.1,-1.1c.6,0,1.1,.5,1.1,1.1c0,.6,-.5,1.1,-1.1,1.1Z"/></clipPath>
<clipPath id="cb_6"><path d="M173.9,266.1c-.1,-.2,-.2,-.4,-.2,-.6c0,-.2,.1,-.5,.2,-.7h1.8c.2,.2,.2,.5,.2,.7c0,.2,0,.4,-.1,.6Z"/></clipPath>
<clipPath id="cc_6"><path d="M179.7,266.4c-.8,0,-1.5,-.7,-1.5,-1.5c0,-.8,.7,-1.5,1.5,-1.5c.8,0,1.5,.7,1.5,1.5c0,.8,-.7,1.5,-1.5,1.5Z"/></clipPath>
<clipPath id="cd_6"><path d="M178.5,265.7c-.2,-.2,-.3,-.5,-.3,-.8c0,-.3,.1,-.6,.3,-.9h2.4c.2,.3,.3,.6,.3,.9c0,.3,-.1,.6,-.3,.8Z"/></clipPath>
<clipPath id="ce_6"><path d="M185.9,266c-1,0,-1.9,-.8,-1.9,-1.9c0,-1,.9,-1.9,1.9,-1.9c1.1,0,1.9,.9,1.9,1.9c0,1.1,-.8,1.9,-1.9,1.9Z"/></clipPath>
<clipPath id="cf_6"><path d="M184.3,265.2c-.2,-.3,-.3,-.7,-.3,-1.1c0,-.4,.1,-.8,.4,-1.1h3.1c.2,.3,.3,.7,.3,1.1c0,.4,-.1,.8,-.3,1.1Z"/></clipPath>
<clipPath id="cg_6"><path d="M194.5,265.6c-1.4,0,-2.5,-1.1,-2.5,-2.5c0,-1.4,1.1,-2.5,2.5,-2.5c1.4,0,2.5,1.1,2.5,2.5c0,1.4,-1.1,2.5,-2.5,2.5Z"/></clipPath>
<clipPath id="ch_6"><path d="M192.4,264.4c-.3,-.3,-.4,-.8,-.4,-1.3c0,-.6,.1,-1.1,.4,-1.5h4.1c.3,.4,.5,.9,.5,1.5c0,.5,-.2,1,-.4,1.3Z"/></clipPath>
<clipPath id="ci_6"><path d="M208.3,264.9c-1.9,0,-3.5,-1.6,-3.5,-3.5c0,-1.9,1.6,-3.5,3.5,-3.5c1.9,0,3.5,1.6,3.5,3.5c0,1.9,-1.6,3.5,-3.5,3.5Z"/></clipPath>
<clipPath id="cj_6"><path d="M205.4,263.3c-.4,-.6,-.6,-1.2,-.6,-1.9c0,-.8,.3,-1.4,.7,-2h5.6c.4,.6,.7,1.2,.7,2c0,.7,-.2,1.3,-.6,1.9Z"/></clipPath>
<clipPath id="ck_6"><path d="M147.8,267c-.3,0,-.6,-.3,-.6,-.6c0,-.3,.3,-.6,.6,-.6c.3,0,.6,.3,.6,.6c0,.3,-.3,.6,-.6,.6Z"/></clipPath>
<clipPath id="cl_6"><path d="M147.3,266.7c0,-.1,-.1,-.2,-.1,-.3c0,-.1,.1,-.2,.1,-.3h1c.1,.1,.1,.2,.1,.3c0,.1,0,.2,-.1,.3Z"/></clipPath>
<clipPath id="cm_6"><path d="M149.5,266.8c-.5,0,-.9,-.4,-.9,-.8c0,-.5,.4,-.9,.9,-.9c.4,0,.8,.4,.8,.9c0,.4,-.4,.8,-.8,.8Z"/></clipPath>
<clipPath id="cn_6"><path d="M148.8,266.4c-.1,-.1,-.2,-.2,-.2,-.4c0,-.2,.1,-.4,.2,-.5h1.3c.1,.1,.2,.3,.2,.5c0,.2,-.1,.3,-.1,.4Z"/></clipPath>
<clipPath id="co_6"><path d="M151.4,266.6c-.6,0,-1.1,-.5,-1.1,-1.1c0,-.6,.5,-1.1,1.1,-1.1c.6,0,1.1,.5,1.1,1.1c0,.6,-.5,1.1,-1.1,1.1Z"/></clipPath>
<clipPath id="cp_6"><path d="M150.5,266.1c-.1,-.2,-.2,-.4,-.2,-.6c0,-.2,.1,-.5,.2,-.7h1.8c.2,.2,.2,.5,.2,.7c0,.2,0,.4,-.1,.6Z"/></clipPath>
<clipPath id="cq_6"><path d="M153.8,266.4c-.8,0,-1.5,-.7,-1.5,-1.5c0,-.8,.7,-1.5,1.5,-1.5c.8,0,1.4,.7,1.4,1.5c0,.8,-.6,1.5,-1.4,1.5Z"/></clipPath>
<clipPath id="cr_6"><path d="M152.6,265.7c-.2,-.2,-.3,-.5,-.3,-.8c0,-.3,.1,-.6,.3,-.9H155c.1,.3,.2,.6,.2,.9c0,.3,0,.6,-.2,.8Z"/></clipPath>
<clipPath id="cs_6"><path d="M156.8,266c-1.1,0,-1.9,-.8,-1.9,-1.9c0,-1,.8,-1.9,1.9,-1.9c1.1,0,1.9,.9,1.9,1.9c0,1.1,-.8,1.9,-1.9,1.9Z"/></clipPath>
<clipPath id="ct_6"><path d="M155.2,265.2c-.2,-.3,-.3,-.7,-.3,-1.1c0,-.4,.1,-.8,.3,-1.1h3.1c.3,.3,.4,.7,.4,1.1c0,.4,-.1,.8,-.3,1.1Z"/></clipPath>
<clipPath id="cu_6"><path d="M160.9,265.6c-1.3,0,-2.5,-1.1,-2.5,-2.5c0,-1.4,1.2,-2.5,2.5,-2.5c1.4,0,2.5,1.1,2.5,2.5c0,1.4,-1.1,2.5,-2.5,2.5Z"/></clipPath>
<clipPath id="cv_6"><path d="M158.8,264.4c-.2,-.3,-.4,-.8,-.4,-1.3c0,-.6,.2,-1.1,.5,-1.5H163c.3,.4,.4,.9,.4,1.5c0,.5,-.1,1,-.4,1.3Z"/></clipPath>
<clipPath id="cw_6"><path d="M167.6,264.9c-1.9,0,-3.5,-1.6,-3.5,-3.5c0,-1.9,1.6,-3.5,3.5,-3.5c2,0,3.5,1.6,3.5,3.5c0,1.9,-1.5,3.5,-3.5,3.5Z"/></clipPath>
<clipPath id="cx_6"><path d="M164.7,263.3c-.3,-.6,-.6,-1.2,-.6,-1.9c0,-.8,.3,-1.4,.7,-2h5.7c.4,.6,.6,1.2,.6,2c0,.7,-.2,1.3,-.6,1.9Z"/></clipPath>
<clipPath id="cy_6"><path d="M53.6,286.1V148.6H227.8V286.1Z"/></clipPath>
<clipPath id="cz_6"><path d="M187.1,262.8c-3.5,0,-6.3,-2.8,-6.3,-6.3c0,-3.5,2.8,-6.3,6.3,-6.3c3.5,0,6.3,2.8,6.3,6.3c0,3.5,-2.8,6.3,-6.3,6.3Z"/></clipPath>
<clipPath id="c10_6"><path d="M181.8,259.9c-.6,-1,-1,-2.2,-1,-3.4c0,-1.4,.4,-2.7,1.2,-3.7h10.3c.7,1,1.1,2.3,1.1,3.7c0,1.2,-.3,2.4,-1,3.4Z"/></clipPath>
<clipPath id="c11_6"><path d="M114.3,267.1c-.3,0,-.6,-.2,-.6,-.5c0,-.4,.3,-.6,.6,-.6c.4,0,.6,.2,.6,.6c0,.3,-.2,.5,-.6,.5Z"/></clipPath>
<clipPath id="c12_6"><path d="M113.8,266.9c0,-.1,-.1,-.2,-.1,-.3c0,-.2,.1,-.3,.2,-.4h.9c.1,.1,.1,.2,.1,.4c0,.1,0,.2,-.1,.3Z"/></clipPath>
<clipPath id="c13_6"><path d="M110.9,267c-.4,0,-.8,-.4,-.8,-.9c0,-.4,.4,-.8,.8,-.8c.5,0,.8,.4,.8,.8c0,.5,-.3,.9,-.8,.9Z"/></clipPath>
<clipPath id="c14_6"><path d="M110.2,266.6c-.1,-.1,-.1,-.3,-.1,-.5c0,-.1,0,-.3,.1,-.4h1.4c.1,.1,.1,.3,.1,.4c0,.2,0,.4,-.1,.5Z"/></clipPath>
<clipPath id="c15_6"><path d="M106.9,266.8c-.6,0,-1.1,-.5,-1.1,-1.2c0,-.6,.5,-1.1,1.1,-1.1c.6,0,1.1,.5,1.1,1.1c0,.7,-.5,1.2,-1.1,1.2Z"/></clipPath>
<clipPath id="c16_6"><path d="M106,266.3c-.2,-.2,-.2,-.4,-.2,-.7c0,-.2,0,-.4,.2,-.6h1.8c.1,.2,.2,.4,.2,.6c0,.3,-.1,.5,-.2,.7Z"/></clipPath>
<clipPath id="c17_6"><path d="M102,266.5c-.8,0,-1.5,-.6,-1.5,-1.4c0,-.9,.7,-1.5,1.5,-1.5c.8,0,1.5,.6,1.5,1.5c0,.8,-.7,1.4,-1.5,1.4Z"/></clipPath>
<clipPath id="c18_6"><path d="M100.8,265.8c-.2,-.2,-.3,-.5,-.3,-.7c0,-.4,.1,-.7,.3,-.9h2.4c.2,.2,.3,.5,.3,.9c0,.2,-.1,.5,-.3,.7Z"/></clipPath>
<clipPath id="c19_6"><path d="M95.8,266.2c-1.1,0,-1.9,-.9,-1.9,-1.9c0,-1.1,.8,-1.9,1.9,-1.9c1,0,1.9,.8,1.9,1.9c0,1,-.9,1.9,-1.9,1.9Z"/></clipPath>
<clipPath id="c1a_6"><path d="M94.2,265.3c-.2,-.3,-.3,-.6,-.3,-1c0,-.4,.1,-.8,.3,-1.1h3.1c.3,.3,.4,.7,.4,1.1c0,.4,-.1,.7,-.3,1Z"/></clipPath>
<clipPath id="c1b_6"><path d="M87.2,265.8c-1.4,0,-2.5,-1.2,-2.5,-2.5c0,-1.4,1.1,-2.6,2.5,-2.6c1.4,0,2.5,1.2,2.5,2.6c0,1.3,-1.1,2.5,-2.5,2.5Z"/></clipPath>
<clipPath id="c1c_6"><path d="M85.1,264.6c-.2,-.4,-.4,-.8,-.4,-1.3c0,-.6,.2,-1.1,.5,-1.5h4.1c.3,.4,.4,.9,.4,1.5c0,.5,-.1,.9,-.4,1.3Z"/></clipPath>
<clipPath id="c1d_6"><path d="M73.4,265c-1.9,0,-3.5,-1.5,-3.5,-3.4c0,-2,1.6,-3.5,3.5,-3.5c1.9,0,3.5,1.5,3.5,3.5c0,1.9,-1.6,3.4,-3.5,3.4Z"/></clipPath>
<clipPath id="c1e_6"><path d="M70.5,263.5c-.4,-.6,-.6,-1.2,-.6,-1.9c0,-.8,.3,-1.5,.7,-2.1h5.6c.5,.6,.7,1.3,.7,2.1c0,.7,-.2,1.3,-.6,1.9Z"/></clipPath>
<clipPath id="c1f_6"><path d="M133.9,267.1c-.3,0,-.6,-.2,-.6,-.5c0,-.4,.3,-.6,.6,-.6c.3,0,.6,.2,.6,.6c0,.3,-.3,.5,-.6,.5Z"/></clipPath>
<clipPath id="c1g_6"><path d="M133.4,266.9c-.1,-.1,-.1,-.2,-.1,-.3c0,-.2,.1,-.3,.1,-.4h1c.1,.1,.1,.2,.1,.4c0,.1,0,.2,-.1,.3Z"/></clipPath>
<clipPath id="c1h_6"><path d="M132.2,267c-.4,0,-.8,-.4,-.8,-.9c0,-.4,.4,-.8,.8,-.8c.5,0,.9,.4,.9,.8c0,.5,-.4,.9,-.9,.9Z"/></clipPath>
<clipPath id="c1i_6"><path d="M131.5,266.6c0,-.1,-.1,-.3,-.1,-.5c0,-.1,.1,-.3,.2,-.4h1.3c.1,.1,.2,.3,.2,.4c0,.2,-.1,.4,-.2,.5Z"/></clipPath>
<clipPath id="c1j_6"><path d="M130.3,266.8c-.6,0,-1.1,-.5,-1.1,-1.2c0,-.6,.5,-1.1,1.1,-1.1c.6,0,1.1,.5,1.1,1.1c0,.7,-.5,1.2,-1.1,1.2Z"/></clipPath>
<clipPath id="c1k_6"><path d="M129.4,266.3c-.2,-.2,-.2,-.4,-.2,-.7c0,-.2,.1,-.4,.2,-.6h1.8c.1,.2,.2,.4,.2,.6c0,.3,-.1,.5,-.2,.7Z"/></clipPath>
<clipPath id="c1l_6"><path d="M127.9,266.5c-.8,0,-1.4,-.6,-1.4,-1.4c0,-.9,.6,-1.5,1.4,-1.5c.8,0,1.5,.6,1.5,1.5c0,.8,-.7,1.4,-1.5,1.4Z"/></clipPath>
<clipPath id="c1m_6"><path d="M126.7,265.8c-.1,-.2,-.2,-.5,-.2,-.7c0,-.4,.1,-.7,.2,-.9h2.4c.2,.2,.3,.5,.3,.9c0,.2,-.1,.5,-.2,.7Z"/></clipPath>
<clipPath id="c1n_6"><path d="M124.9,266.2c-1,0,-1.9,-.9,-1.9,-1.9c0,-1.1,.9,-1.9,1.9,-1.9c1.1,0,1.9,.8,1.9,1.9c0,1,-.8,1.9,-1.9,1.9Z"/></clipPath>
<clipPath id="c1o_6"><path d="M123.3,265.3c-.2,-.3,-.3,-.6,-.3,-1c0,-.4,.1,-.8,.4,-1.1h3.1c.2,.3,.3,.7,.3,1.1c0,.4,-.1,.7,-.3,1Z"/></clipPath>
<clipPath id="c1p_6"><path d="M120.8,265.8c-1.4,0,-2.5,-1.2,-2.5,-2.5c0,-1.4,1.1,-2.6,2.5,-2.6c1.4,0,2.5,1.2,2.5,2.6c0,1.3,-1.1,2.5,-2.5,2.5Z"/></clipPath>
<clipPath id="c1q_6"><path d="M118.7,264.6c-.3,-.4,-.4,-.8,-.4,-1.3c0,-.6,.1,-1.1,.4,-1.5h4.1c.3,.4,.5,.9,.5,1.5c0,.5,-.2,.9,-.4,1.3Z"/></clipPath>
<clipPath id="c1r_6"><path d="M114.1,265c-1.9,0,-3.5,-1.5,-3.5,-3.4c0,-2,1.6,-3.5,3.5,-3.5c1.9,0,3.5,1.5,3.5,3.5c0,1.9,-1.6,3.4,-3.5,3.4Z"/></clipPath>
<clipPath id="c1s_6"><path d="M111.2,263.5c-.4,-.6,-.6,-1.2,-.6,-1.9c0,-.8,.2,-1.5,.6,-2.1h5.7c.4,.6,.7,1.3,.7,2.1c0,.7,-.2,1.3,-.6,1.9Z"/></clipPath>
<clipPath id="c1t_6"><path d="M94.6,263c-3.5,0,-6.3,-2.9,-6.3,-6.4c0,-3.5,2.8,-6.3,6.3,-6.3c3.5,0,6.3,2.8,6.3,6.3c0,3.5,-2.8,6.4,-6.3,6.4Z"/></clipPath>
<clipPath id="c1u_6"><path d="M89.3,260.1c-.7,-1,-1,-2.2,-1,-3.5c0,-1.3,.4,-2.6,1.1,-3.6H99.7c.8,1,1.2,2.3,1.2,3.6c0,1.3,-.4,2.5,-1,3.5Z"/></clipPath>
<clipPath id="c1v_6"><path d="M141.4,177h-.6v-4.1l.3,.3l.2,.9l.1,2.9Z"/></clipPath>
<clipPath id="c1w_6"><path d="M61.8,200.4h-.1c-.3,-.3,-.2,-1,-.2,-1.5c0,-.4,-.2,-.7,-.3,-1.1c-.1,-.3,.2,-.7,.2,-.7c0,0,.1,-.1,.2,-.6c.1,-.5,.3,-.8,.4,-.8c.2,.2,.1,.3,.1,.8c0,.6,-.1,2,-.1,2.7c0,.7,0,1.2,-.2,1.2Z"/></clipPath>
<clipPath id="c1x_6"><path d="M148.5,192.9c-.2,-1.2,-.8,-3.4,-1.6,-4.3c-1.1,-1.4,-3.7,-2.9,-4.3,-3.2c-.7,-.3,0,-.4,.1,-1c.2,-.5,-.3,-.6,.1,-.8c.1,-.1,.5,-.2,1,-.2c.6,0,1.4,.1,2.2,.5c.5,.2,.8,.3,.9,.3c.2,0,-.1,-.4,-.5,-1c-.6,-.9,-1.7,-1.2,-1.7,-1.2l-1.6,-1.2c0,0,-.3,-.4,-.3,-.9c0,-.5,.2,-1,1.6,-1.4c.1,0,.3,0,.4,0c.2,0,.5,0,.7,.1c.8,.7,1.5,1.6,2,2.9c2,4.7,1.4,6.4,1.1,10.3c0,.3,0,.7,-.1,1.1Z"/></clipPath>
<clipPath id="c1y_6"><path d="M142.9,181.4l-1.8,-.1v-.8l1.6,.1l.2,.8Z"/></clipPath>
<clipPath id="c1z_6"><path d="M160.7,207.7c-.5,0,-.8,-1,-.8,-2.9v-1.4h.3v1.2c0,1.8,.3,2.9,.8,2.9q.1,0,.2,0c-.2,.2,-.4,.2,-.5,.2Zm8.3,-.5c-.5,0,-.7,-1.1,-.7,-3l.1,-2l.3,-.1V204c-.1,1.9,.2,2.9,.7,2.9c0,0,.1,0,.1,0c-.1,.2,-.3,.3,-.4,.3c0,0,-.1,0,-.1,0Zm8,-1.4c-.5,0,-.7,-1,-.6,-2.9l.1,-1.9h.3l-.1,1.6c-.1,1.9,.1,3,.6,3h.1c0,0,.1,0,.1,-.1c-.2,.2,-.3,.3,-.5,.3Zm8.5,-1.5c-.5,0,-.7,-1,-.5,-2.9l.1,-1.6l.3,-.1l-.1,1.4c-.1,1.9,0,3,.5,3h.1c0,0,.1,0,.1,-.1c-.2,.2,-.3,.3,-.5,.3Z"/></clipPath>
<clipPath id="c20_6"><path d="M143.3,191.1c-.2,-.4,-.4,-.7,-.5,-.7l-.3,-1.3c.2,.1,.4,.2,.5,.6l.3,1.4Z"/></clipPath>
<clipPath id="c21_6"><path d="M94,198.2H86.8L61.9,198c0,0,-.1,0,-.2,-.2l25.2,-.2l7.1,.6Z"/></clipPath>
<clipPath id="c22_6"><path d="M121,207.7c-.2,0,-.4,-.2,-.6,-.5c0,.1,.1,.1,.2,.1c.5,0,.8,-1.1,.8,-2.9V201l.4,.1v3.7c0,1.9,-.3,2.9,-.8,2.9Zm-8.3,-.5q-.1,0,-.1,0c-.2,0,-.4,-.2,-.6,-.6c.1,.1,.2,.1,.2,.1h.1c.4,0,.7,-1,.6,-2.9v-3.7l.4,.1v4c.1,1.9,-.2,3,-.6,3Zm-8,-1.4c-.2,0,-.5,-.2,-.7,-.5c.1,0,.2,.1,.3,.1c.5,0,.7,-1.1,.6,-3l-.1,-2.6h.4l.1,3.1c.1,1.8,-.1,2.9,-.6,2.9Zm-8.5,-1.5c-.2,0,-.5,-.2,-.7,-.5c.1,0,.2,.1,.3,.1c.5,0,.7,-1.1,.5,-3v-1.3l.3,.1l.1,1.7c.2,1.8,0,2.9,-.5,2.9Z"/></clipPath>
<clipPath id="c23_6"><path d="M133,189.2c0,0,0,-.2,0,-.4c0,-.2,0,-.4,0,-.4c0,0,0,.2,0,.4c0,.2,0,.4,0,.4Zm.1,-.3c-.1,0,-.1,-.3,-.1,-.6c0,-.3,0,-.5,.1,-.5c0,0,0,.2,0,.5c0,.3,0,.6,0,.6Zm0,-.5c0,0,0,-.3,0,-.7c0,-.3,0,-.6,0,-.6c.1,0,.1,.3,.1,.6c0,.4,0,.7,-.1,.7Zm.1,-.6c0,0,0,-.3,0,-.6c0,-.4,0,-.7,0,-.7c0,0,.1,.3,.1,.7c0,.3,-.1,.6,-.1,.6Zm.1,-.5c0,0,0,-.3,0,-.7c0,-.5,0,-.8,0,-.8c.1,0,.1,.3,.1,.8c0,.4,0,.7,-.1,.7Zm.2,-.5c0,0,-.1,-.4,-.1,-.8c0,-.5,.1,-.9,.1,-.9c0,0,0,.4,0,.9c0,.4,0,.8,0,.8Z"/></clipPath>
<clipPath id="c24_6"><path d="M109,203.7c2.1,-.4,3.6,-2.2,3.6,-4.4c0,-.3,0,-.6,-.1,-.9c0,0,0,-.1,0,-.2l.4,1.5c0,2.2,-1.7,3.9,-3.9,4Z"/></clipPath>
<clipPath id="c25_6"><path d="M86.8,203.4c2.1,-.9,3.5,-3,3.5,-5.3c0,-.1,0,-.2,0,-.3l.4,1.5c0,2.2,-1.7,4,-3.9,4.1Z"/></clipPath>
<clipPath id="c26_6"><path d="M140.8,192.8c-.2,0,-.4,-.1,-.4,-.4c0,-.2,.2,-.4,.4,-.4c.2,0,.4,.2,.4,.4c0,.3,-.2,.4,-.4,.4Z"/></clipPath>
<clipPath id="c27_6"><path d="M140.8,189.6c-.4,0,-.8,-.2,-.8,-.4c0,-.2,.4,-.4,.8,-.4c.4,0,.8,.2,.8,.4c0,.2,-.4,.4,-.8,.4Z"/></clipPath>
<clipPath id="c28_6"><path d="M140.8,189.3c-.2,0,-.3,-.1,-.3,-.2c0,-.1,.1,-.2,.3,-.2c.2,0,.3,.1,.3,.2c0,.1,-.1,.2,-.3,.2Z"/></clipPath>
<clipPath id="c29_6"><path d="M151.5,196.6c-.1,0,-.1,-.1,-.1,-.2v-1c0,-.1,0,-.2,.1,-.2h.3c.1,0,.2,.1,.2,.2v1c0,.1,-.1,.2,-.2,.2Z"/></clipPath>
<clipPath id="c2a_6"><path d="M130.3,196.6c-.1,0,-.2,-.1,-.2,-.2v-1c0,-.1,.1,-.2,.2,-.2h.3c.1,0,.1,.1,.1,.2v1c0,.1,0,.2,-.1,.2Z"/></clipPath>
<clipPath id="c2b_6"><path d="M83.6,200.6c-.7,-.7,-1.2,-1.6,-1.2,-2.7c0,-2.1,1.8,-3.8,3.9,-3.8c1.1,0,2.2,.5,2.9,1.4c-.7,-.7,-1.6,-1.1,-2.7,-1.1c-2.1,0,-3.8,1.7,-3.8,3.8c0,.9,.3,1.7,.9,2.4Z"/></clipPath>
<clipPath id="c2c_6"><path d="M105.9,200.9c-.8,-.7,-1.3,-1.7,-1.3,-2.8c0,-2.1,1.7,-3.8,3.9,-3.8c1.1,0,2.1,.5,2.8,1.2c-.7,-.6,-1.6,-.9,-2.5,-.9c-2.1,0,-3.8,1.7,-3.8,3.8c0,1,.3,1.8,.9,2.5Z"/></clipPath>
<clipPath id="c2d_6"><path d="M172.8,203.7c.6,-2.3,1.4,-1.1,3,-2.5c.7,-.6,1.2,-1.5,1.4,-2.4c-.2,2.3,-1.8,4.9,-4.4,4.9Z"/></clipPath>
<clipPath id="c2e_6"><path d="M195,203.4c.6,-2.3,1.4,-1,3,-2.5c.8,-.6,1.3,-1.4,1.4,-2.4c-.1,2.4,-1.8,4.9,-4.4,4.9Z"/></clipPath>
<clipPath id="c2f_6"><path d="M198.1,200.7c.6,-.7,.9,-1.5,.9,-2.5c0,-2.1,-1.7,-3.8,-3.8,-3.8c-1,0,-2,.5,-2.7,1.1c.7,-.8,1.8,-1.3,2.9,-1.3c2.1,0,3.9,1.7,3.9,3.8c0,1,-.5,2,-1.2,2.7Z"/></clipPath>
<clipPath id="c2g_6"><path d="M175.8,201c.6,-.7,.9,-1.6,.9,-2.5c0,-2.2,-1.7,-3.8,-3.8,-3.8c-.9,0,-1.8,.3,-2.5,.9c.7,-.8,1.7,-1.3,2.9,-1.3c2.1,0,3.8,1.7,3.8,3.8c0,1.2,-.5,2.2,-1.3,2.9Z"/></clipPath>
<clipPath id="c2h_6"><path d="M130.3,196.6c0,0,-.1,0,-.1,-.1h.5q-.1,.1,-.1,.1Z"/></clipPath>
<clipPath id="c2i_6"><path d="M130.2,196.5Zm.4,-.3h.1V196h-.5v.2h.1Zm0,-.3h.1v-.2h-.5v.2h.1Zm0,-.3h.1v-.2h-.5v.2h.1Zm.1,.9h-.1l.1,-.1v-.1h-.5v.2q-.1,0,-.1,-.1v-1c0,-.1,.1,-.2,.2,-.2h.3c.1,0,.1,.1,.1,.2v1c0,0,0,.1,0,.1v-.1v.1Z"/></clipPath>
<clipPath id="c2j_6"><path d="M151.6,196.6v-.1l.1,.1Z"/></clipPath>
<clipPath id="c2k_6"><path d="M151.8,196.5l.1,-.1v-.1h-.5v.1l.1,.1Zm0,-.3h.1V196h-.5v.2h.1Zm0,-.3h.1v-.2h-.5v.2h.1Zm0,-.3h.1v-.2h-.5v.2h.1Zm-.3,1c-.1,0,-.1,-.1,-.1,-.2v-1c0,-.1,0,-.2,.1,-.2h.3c.1,0,.2,.1,.2,.2v1c0,.1,-.1,.2,-.2,.2h-.1l-.1,-.1v.1Z"/></clipPath>
<clipPath id="c2l_6"><path d="M53.6,810.3V672.8H227.8V810.3Z"/></clipPath>
<style type="text/css"><![CDATA[
.g0_6{
fill: #111212;
}
.g1_6{
fill: #F8801E;
}
.g2_6{
fill: #FFF;
}
.g3_6{
fill: #FEFCE8;
}
.g4_6{
fill: #FEFCDD;
}
.g5_6{
fill: #FEFCD7;
}
.g6_6{
fill: #FEFAD1;
}
.g7_6{
fill: #FEFACE;
}
.g8_6{
fill: #FEF9CA;
}
.g9_6{
fill: #FEF9C8;
}
.ga_6{
fill: #FEF8C5;
}
.gb_6{
fill: #EFB51A;
}
.gc_6{
fill: #753914;
}
.gd_6{
fill: #202221;
}
.ge_6{
fill: #8D521D;
}
.gf_6{
fill: #CCAC93;
}
.gg_6{
fill: #FFEDCF;
}
.gh_6{
fill: #FCDCA7;
}
.gi_6{
fill: #F3C56C;
}
.gj_6{
fill: #848385;
}
.gk_6{
fill: #EBD9CE;
}
.gl_6{
fill: #FFEAC6;
}
.gm_6{
fill: #FFF4CF;
}
.gn_6{
fill: #F9DC8D;
}
.go_6{
fill: #FFE6BF;
}
.gp_6{
fill: #FDF1CA;
}
]]></style>
</defs>
<image clip-path="url(#c0_6)" preserveAspectRatio="none" x="169" y="94" width="677" height="39" xlink:href="img/1.png"/>
<image clip-path="url(#c1_6)" preserveAspectRatio="none" x="169" y="618" width="677" height="39" xlink:href="img/2.png"/>
<path d="M53.6,286.1H227.8V148.6H53.6V286.1Z" class="g0_6"/>
<image clip-path="url(#c2_6)" x="53" y="148" width="175" height="119" xlink:href="shade/1.png"/>
<image clip-path="url(#c3_6)" x="53" y="239" width="175" height="29" xlink:href="shade/2.png"/>
<image clip-path="url(#c4_6)" x="53" y="247" width="175" height="21" xlink:href="shade/3.png"/>
<image clip-path="url(#c5_6)" x="53" y="268" width="175" height="19" xlink:href="shade/4.png"/>
<path fill-rule="evenodd" d="M85,267.8c.1,0,.2,-.1,.2,-.3c0,-.1,-.1,-.2,-.2,-.2c-.1,0,-.3,.1,-.3,.2c0,.2,.2,.3,.3,.3Z" class="g1_6"/>
<path fill-rule="evenodd" d="M91.1,267.3c.1,0,.2,.1,.2,.2c0,.2,-.1,.3,-.2,.3c-.2,0,-.3,-.1,-.3,-.3c0,-.1,.1,-.2,.3,-.2Z" class="g1_6"/>
<path fill-rule="evenodd" d="M97.1,267.3c.2,0,.2,.1,.2,.2c0,.2,0,.3,-.2,.3c-.1,0,-.2,-.1,-.2,-.3c0,-.1,.1,-.2,.2,-.2Z" class="g1_6"/>
<path fill-rule="evenodd" d="M103.2,267.3c.1,0,.2,.1,.2,.2c0,.2,-.1,.3,-.2,.3c-.1,0,-.3,-.1,-.3,-.3c0,-.1,.2,-.2,.3,-.2Z" class="g1_6"/>
<path fill-rule="evenodd" d="M109.3,267.3c.1,0,.2,.1,.2,.2c0,.2,-.1,.3,-.2,.3c-.2,0,-.3,-.1,-.3,-.3c0,-.1,.1,-.2,.3,-.2Z" class="g1_6"/>
<path fill-rule="evenodd" d="M115.3,267.3c.2,0,.3,.1,.3,.2c0,.2,-.1,.3,-.3,.3c-.1,0,-.2,-.1,-.2,-.3c0,-.1,.1,-.2,.2,-.2Z" class="g1_6"/>
<path fill-rule="evenodd" d="M121.4,267.3c.2,0,.2,.1,.2,.2c0,.2,0,.3,-.2,.3c-.2,0,-.2,-.1,-.2,-.3c0,-.1,0,-.2,.2,-.2Z" class="g1_6"/>
<path fill-rule="evenodd" d="M127.5,267.3c.1,0,.2,.1,.2,.2c0,.2,-.1,.3,-.2,.3c-.2,0,-.3,-.1,-.3,-.3c0,-.1,.1,-.2,.3,-.2Z" class="g1_6"/>
<path fill-rule="evenodd" d="M133.6,267.3c.1,0,.2,.1,.2,.2c0,.2,-.1,.3,-.2,.3c-.2,0,-.3,-.1,-.3,-.3c0,-.1,.1,-.2,.3,-.2Z" class="g1_6"/>
<path fill-rule="evenodd" d="M139.6,267.3c.2,0,.3,.1,.3,.2c0,.2,-.1,.3,-.3,.3c-.1,0,-.2,-.1,-.2,-.3c0,-.1,.1,-.2,.2,-.2Z" class="g1_6"/>
<path fill-rule="evenodd" d="M145.7,267.3c.1,0,.2,.1,.2,.2c0,.2,-.1,.3,-.2,.3c-.2,0,-.3,-.1,-.3,-.3c0,-.1,.1,-.2,.3,-.2Z" class="g1_6"/>
<path fill-rule="evenodd" d="M151.7,267.3c.2,0,.3,.1,.3,.2c0,.2,-.1,.3,-.3,.3c-.1,0,-.2,-.1,-.2,-.3c0,-.1,.1,-.2,.2,-.2Z" class="g1_6"/>
<path fill-rule="evenodd" d="M157.8,267.3c.1,0,.2,.1,.2,.2c0,.2,-.1,.3,-.2,.3c-.2,0,-.2,-.1,-.2,-.3c0,-.1,0,-.2,.2,-.2Z" class="g1_6"/>
<path fill-rule="evenodd" d="M163.9,267.3c.1,0,.2,.1,.2,.2c0,.2,-.1,.3,-.2,.3c-.2,0,-.3,-.1,-.3,-.3c0,-.1,.1,-.2,.3,-.2Z" class="g1_6"/>
<path fill-rule="evenodd" d="M169.9,267.3c.2,0,.3,.1,.3,.2c0,.2,-.1,.3,-.3,.3c-.1,0,-.2,-.1,-.2,-.3c0,-.1,.1,-.2,.2,-.2Z" class="g1_6"/>
<path fill-rule="evenodd" d="M176,267.3c.2,0,.3,.1,.3,.2c0,.2,-.1,.3,-.3,.3c-.1,0,-.2,-.1,-.2,-.3c0,-.1,.1,-.2,.2,-.2Z" class="g1_6"/>
<path fill-rule="evenodd" d="M182.1,267.3c.1,0,.2,.1,.2,.2c0,.2,-.1,.3,-.2,.3c-.2,0,-.2,-.1,-.2,-.3c0,-.1,0,-.2,.2,-.2Z" class="g1_6"/>
<path fill-rule="evenodd" d="M188.1,267.3c.2,0,.3,.1,.3,.2c0,.2,-.1,.3,-.3,.3c-.1,0,-.2,-.1,-.2,-.3c0,-.1,.1,-.2,.2,-.2Z" class="g1_6"/>
<path fill-rule="evenodd" d="M194.2,267.3c.2,0,.3,.1,.3,.2c0,.2,-.1,.3,-.3,.3c-.1,0,-.2,-.1,-.2,-.3c0,-.1,.1,-.2,.2,-.2Z" class="g1_6"/>
<path fill-rule="evenodd" d="M200.3,267.3c.2,0,.3,.1,.3,.2c0,.2,-.1,.3,-.3,.3c-.1,0,-.2,-.1,-.2,-.3c0,-.1,.1,-.2,.2,-.2Z" class="g1_6"/>
<path fill-rule="evenodd" d="M206.4,267.3c.1,0,.2,.1,.2,.2c0,.2,-.1,.3,-.2,.3c-.2,0,-.3,-.1,-.3,-.3c0,-.1,.1,-.2,.3,-.2Z" class="g1_6"/>
<path fill-rule="evenodd" d="M212.4,267.8c.2,0,.3,-.1,.3,-.3c0,-.1,-.1,-.2,-.3,-.2c-.1,0,-.2,.1,-.2,.2c0,.2,.1,.3,.2,.3Z" class="g1_6"/>
<path fill-rule="evenodd" d="M61.2,268.2c.1,0,.2,.1,.2,.3c0,.1,-.1,.2,-.2,.2c-.1,0,-.3,-.1,-.3,-.2c0,-.2,.2,-.3,.3,-.3Z" class="g1_6"/>
<path fill-rule="evenodd" d="M70.4,268.2c.2,0,.3,.1,.3,.3c0,.1,-.1,.2,-.3,.2c-.1,0,-.2,-.1,-.2,-.2c0,-.2,.1,-.3,.2,-.3Z" class="g1_6"/>
<path fill-rule="evenodd" d="M79.6,268.2c.2,0,.3,.1,.3,.3c0,.1,-.1,.2,-.3,.2c-.1,0,-.2,-.1,-.2,-.2c0,-.2,.1,-.3,.2,-.3Z" class="g1_6"/>
<path fill-rule="evenodd" d="M88.9,268.2c.1,0,.2,.1,.2,.3c0,.1,-.1,.2,-.2,.2c-.1,0,-.2,-.1,-.2,-.2c0,-.2,.1,-.3,.2,-.3Z" class="g1_6"/>
<path fill-rule="evenodd" d="M98.1,268.2c.2,0,.3,.1,.3,.3c0,.1,-.1,.2,-.3,.2c-.1,0,-.2,-.1,-.2,-.2c0,-.2,.1,-.3,.2,-.3Z" class="g1_6"/>
<path fill-rule="evenodd" d="M107.4,268.2c.1,0,.2,.1,.2,.3c0,.1,-.1,.2,-.2,.2c-.2,0,-.3,-.1,-.3,-.2c0,-.2,.1,-.3,.3,-.3Z" class="g1_6"/>
<path fill-rule="evenodd" d="M116.6,268.2c.1,0,.2,.1,.2,.3c0,.1,-.1,.2,-.2,.2c-.1,0,-.3,-.1,-.3,-.2c0,-.2,.2,-.3,.3,-.3Z" class="g1_6"/>
<path fill-rule="evenodd" d="M125.8,268.2c.2,0,.3,.1,.3,.3c0,.1,-.1,.2,-.3,.2c-.1,0,-.2,-.1,-.2,-.2c0,-.2,.1,-.3,.2,-.3Z" class="g1_6"/>
<path fill-rule="evenodd" d="M135,268.2c.2,0,.3,.1,.3,.3c0,.1,-.1,.2,-.3,.2c-.1,0,-.2,-.1,-.2,-.2c0,-.2,.1,-.3,.2,-.3Z" class="g1_6"/>
<path fill-rule="evenodd" d="M144.2,268.2c.2,0,.3,.1,.3,.3c0,.1,-.1,.2,-.3,.2c-.1,0,-.2,-.1,-.2,-.2c0,-.2,.1,-.3,.2,-.3Z" class="g1_6"/>
<path fill-rule="evenodd" d="M153.5,268.2c.1,0,.2,.1,.2,.3c0,.1,-.1,.2,-.2,.2c-.2,0,-.3,-.1,-.3,-.2c0,-.2,.1,-.3,.3,-.3Z" class="g1_6"/>
<path fill-rule="evenodd" d="M162.7,268.2c.1,0,.3,.1,.3,.3c0,.1,-.2,.2,-.3,.2c-.1,0,-.2,-.1,-.2,-.2c0,-.2,.1,-.3,.2,-.3Z" class="g1_6"/>
<path fill-rule="evenodd" d="M172,268.2c.1,0,.2,.1,.2,.3c0,.1,-.1,.2,-.2,.2c-.2,0,-.3,-.1,-.3,-.2c0,-.2,.1,-.3,.3,-.3Z" class="g1_6"/>
<path fill-rule="evenodd" d="M181.2,268.2c.1,0,.2,.1,.2,.3c0,.1,-.1,.2,-.2,.2c-.2,0,-.3,-.1,-.3,-.2c0,-.2,.1,-.3,.3,-.3Z" class="g1_6"/>
<path fill-rule="evenodd" d="M190.4,268.2c.2,0,.3,.1,.3,.3c0,.1,-.1,.2,-.3,.2c-.1,0,-.2,-.1,-.2,-.2c0,-.2,.1,-.3,.2,-.3Z" class="g1_6"/>
<path fill-rule="evenodd" d="M199.6,268.2c.2,0,.3,.1,.3,.3c0,.1,-.1,.2,-.3,.2c-.1,0,-.2,-.1,-.2,-.2c0,-.2,.1,-.3,.2,-.3Z" class="g1_6"/>
<path fill-rule="evenodd" d="M208.9,268.2c.1,0,.2,.1,.2,.3c0,.1,-.1,.2,-.2,.2c-.2,0,-.3,-.1,-.3,-.2c0,-.2,.1,-.3,.3,-.3Z" class="g1_6"/>
<path fill-rule="evenodd" d="M218.1,268.2c.1,0,.3,.1,.3,.3c0,.1,-.2,.2,-.3,.2c-.1,0,-.2,-.1,-.2,-.2c0,-.2,.1,-.3,.2,-.3Z" class="g1_6"/>
<path fill-rule="evenodd" d="M227.3,268.2c.2,0,.3,.1,.3,.3c0,.1,-.1,.2,-.3,.2c-.1,0,-.2,-.1,-.2,-.2c0,-.2,.1,-.3,.2,-.3Z" class="g1_6"/>
<path fill-rule="evenodd" d="M57,268.9c.1,0,.2,.1,.2,.3c0,.1,-.1,.2,-.2,.2c-.2,0,-.3,-.1,-.3,-.2c0,-.2,.1,-.3,.3,-.3Z" class="g2_6"/>
<path fill-rule="evenodd" d="M66.2,268.9c.1,0,.2,.1,.2,.3c0,.1,-.1,.2,-.2,.2c-.2,0,-.3,-.1,-.3,-.2c0,-.2,.1,-.3,.3,-.3Z" class="g2_6"/>
<path fill-rule="evenodd" d="M75.4,268.9c.1,0,.3,.1,.3,.3c0,.1,-.2,.2,-.3,.2c-.1,0,-.2,-.1,-.2,-.2c0,-.2,.1,-.3,.2,-.3Z" class="g2_6"/>
<path fill-rule="evenodd" d="M84.6,268.9c.2,0,.3,.1,.3,.3c0,.1,-.1,.2,-.3,.2c-.1,0,-.2,-.1,-.2,-.2c0,-.2,.1,-.3,.2,-.3Z" class="g2_6"/>
<path fill-rule="evenodd" d="M93.9,268.9c.1,0,.2,.1,.2,.3c0,.1,-.1,.2,-.2,.2c-.2,0,-.3,-.1,-.3,-.2c0,-.2,.1,-.3,.3,-.3Z" class="g2_6"/>
<path fill-rule="evenodd" d="M103.1,268.9c.1,0,.3,.1,.3,.3c0,.1,-.2,.2,-.3,.2c-.1,0,-.2,-.1,-.2,-.2c0,-.2,.1,-.3,.2,-.3Z" class="g2_6"/>
<path fill-rule="evenodd" d="M112.4,268.9c.1,0,.2,.1,.2,.3c0,.1,-.1,.2,-.2,.2c-.2,0,-.3,-.1,-.3,-.2c0,-.2,.1,-.3,.3,-.3Z" class="g2_6"/>
<path fill-rule="evenodd" d="M121.5,268.9c.2,0,.3,.1,.3,.3c0,.1,-.1,.2,-.3,.2c-.1,0,-.2,-.1,-.2,-.2c0,-.2,.1,-.3,.2,-.3Z" class="g2_6"/>
<path fill-rule="evenodd" d="M130.8,268.9c.1,0,.3,.1,.3,.3c0,.1,-.2,.2,-.3,.2c-.1,0,-.2,-.1,-.2,-.2c0,-.2,.1,-.3,.2,-.3Z" class="g2_6"/>
<path fill-rule="evenodd" d="M140,268.9c.2,0,.3,.1,.3,.3c0,.1,-.1,.2,-.3,.2c-.1,0,-.2,-.1,-.2,-.2c0,-.2,.1,-.3,.2,-.3Z" class="g2_6"/>
<path fill-rule="evenodd" d="M149.2,268.9c.2,0,.3,.1,.3,.3c0,.1,-.1,.2,-.3,.2c-.1,0,-.2,-.1,-.2,-.2c0,-.2,.1,-.3,.2,-.3Z" class="g2_6"/>
<path fill-rule="evenodd" d="M158.5,268.9c.1,0,.2,.1,.2,.3c0,.1,-.1,.2,-.2,.2c-.2,0,-.3,-.1,-.3,-.2c0,-.2,.1,-.3,.3,-.3Z" class="g2_6"/>
<path fill-rule="evenodd" d="M167.7,268.9c.1,0,.2,.1,.2,.3c0,.1,-.1,.2,-.2,.2c-.2,0,-.3,-.1,-.3,-.2c0,-.2,.1,-.3,.3,-.3Z" class="g2_6"/>
<path fill-rule="evenodd" d="M176.9,268.9c.2,0,.3,.1,.3,.3c0,.1,-.1,.2,-.3,.2c-.1,0,-.2,-.1,-.2,-.2c0,-.2,.1,-.3,.2,-.3Z" class="g2_6"/>
<path fill-rule="evenodd" d="M186.1,268.9c.2,0,.3,.1,.3,.3c0,.1,-.1,.2,-.3,.2c-.1,0,-.2,-.1,-.2,-.2c0,-.2,.1,-.3,.2,-.3Z" class="g2_6"/>
<path fill-rule="evenodd" d="M195.4,268.9c.1,0,.2,.1,.2,.3c0,.1,-.1,.2,-.2,.2c-.1,0,-.3,-.1,-.3,-.2c0,-.2,.2,-.3,.3,-.3Z" class="g2_6"/>
<path fill-rule="evenodd" d="M204.6,268.9c.2,0,.3,.1,.3,.3c0,.1,-.1,.2,-.3,.2c-.1,0,-.2,-.1,-.2,-.2c0,-.2,.1,-.3,.2,-.3Z" class="g2_6"/>
<path fill-rule="evenodd" d="M213.9,268.9c.1,0,.2,.1,.2,.3c0,.1,-.1,.2,-.2,.2c-.2,0,-.3,-.1,-.3,-.2c0,-.2,.1,-.3,.3,-.3Z" class="g2_6"/>
<path fill-rule="evenodd" d="M223.1,268.9c.1,0,.2,.1,.2,.3c0,.1,-.1,.2,-.2,.2c-.2,0,-.3,-.1,-.3,-.2c0,-.2,.1,-.3,.3,-.3Z" class="g2_6"/>
<path fill-rule="evenodd" d="M164.3,269h.2v-1.9h-.2V269Z" class="g0_6"/>
<path fill-rule="evenodd" d="M164.4,267.1c.2,0,.4,-.1,.4,-.3c0,-.2,-.2,-.4,-.4,-.4c-.2,0,-.4,.2,-.4,.4c0,.2,.2,.3,.4,.3Z" class="g2_6"/>
<path fill-rule="evenodd" d="M164.1,266.5h.6c.1,.1,.1,.2,.1,.3c0,0,0,.1,-.1,.2h-.6c-.1,-.1,-.1,-.2,-.1,-.2c0,-.1,0,-.2,.1,-.3Z" class="g2_6"/>
<path fill-rule="evenodd" d="M164.4,266.9c.1,0,.1,-.1,.1,-.1c0,-.1,0,-.2,-.1,-.2c-.1,0,-.1,.1,-.1,.2c0,0,0,.1,.1,.1Z" class="g2_6"/>
<path fill-rule="evenodd" d="M164.4,266.6c-.1,0,-.2,0,-.2,0c0,0,.1,0,.2,0c.2,0,.3,0,.3,0c0,0,-.1,0,-.3,0Z" class="g2_6"/>
<path fill-rule="evenodd" d="M164.4,266.6c-.1,0,-.2,0,-.2,0c0,0,.1,0,.2,0c.2,0,.3,0,.3,0c0,0,-.1,0,-.3,0Z" class="g2_6"/>
<path fill-rule="evenodd" d="M164.4,266.7c-.1,0,-.2,0,-.2,0c0,0,.1,0,.2,0c.2,0,.3,0,.3,0c0,0,-.1,0,-.3,0Z" class="g2_6"/>
<path fill-rule="evenodd" d="M164.4,266.7c-.1,0,-.2,0,-.2,0c0,0,.1,0,.2,0c.2,0,.3,0,.3,0c0,0,-.1,0,-.3,0Z" class="g2_6"/>
<path fill-rule="evenodd" d="M164.4,266.8c-.1,0,-.2,0,-.2,0c0,0,.1,0,.2,0c.2,0,.3,0,.3,0c0,0,-.1,0,-.3,0Z" class="g2_6"/>
<path fill-rule="evenodd" d="M164.4,266.8c-.1,0,-.2,0,-.2,0c0,0,.1,0,.2,0c.2,0,.3,0,.3,0c0,0,-.1,0,-.3,0Z" class="g2_6"/>
<path fill-rule="evenodd" d="M164.4,266.9c-.1,0,-.2,0,-.2,0c0,0,.1,0,.2,0c.2,0,.3,0,.3,0c0,0,-.1,0,-.3,0Z" class="g2_6"/>
<path fill-rule="evenodd" d="M164.4,266.9c-.1,0,-.2,0,-.2,0c0,0,.1,0,.2,0c.2,0,.3,0,.3,0c0,0,-.1,0,-.3,0Z" class="g2_6"/>
<path fill-rule="evenodd" d="M167.3,269.9h.2V267h-.2v2.9Z" class="g0_6"/>
<image clip-path="url(#c6_6)" x="166" y="265" width="2" height="2" xlink:href="shade/5.png"/>
<image clip-path="url(#c7_6)" x="166" y="266" width="2" height="1" xlink:href="shade/6.png"/>
<path fill-rule="evenodd" d="M167.4,266.6c.1,0,.2,-.1,.2,-.2c0,-.1,-.1,-.2,-.2,-.2c-.1,0,-.2,.1,-.2,.2c0,.1,.1,.2,.2,.2Z" class="g3_6"/>
<path fill-rule="evenodd" d="M167.4,266.1c-.2,0,-.4,0,-.4,0c0,0,.2,0,.4,0c.2,0,.4,0,.4,0c0,0,-.2,0,-.4,0Z" class="g2_6"/>
<path fill-rule="evenodd" d="M167.4,266.2c-.2,0,-.4,0,-.4,0c0,0,.2,0,.4,0c.2,0,.4,0,.4,0c0,0,-.2,0,-.4,0Z" class="g2_6"/>
<path fill-rule="evenodd" d="M167.4,266.2c-.2,0,-.4,.1,-.4,.1c0,0,.2,0,.4,0c.2,0,.4,0,.4,0c0,0,-.2,-.1,-.4,-.1Z" class="g2_6"/>
<path fill-rule="evenodd" d="M167.4,266.3c-.2,0,-.4,0,-.4,.1c0,0,.2,0,.4,0c.2,0,.4,0,.4,0c0,-.1,-.2,-.1,-.4,-.1Z" class="g2_6"/>
<path fill-rule="evenodd" d="M167.4,266.4c-.2,0,-.4,0,-.4,0c0,0,.2,0,.4,0c.2,0,.4,0,.4,0c0,0,-.2,0,-.4,0Z" class="g2_6"/>
<path fill-rule="evenodd" d="M167.4,266.5c-.2,0,-.4,0,-.4,0c0,0,.2,0,.4,0c.2,0,.4,0,.4,0c0,0,-.2,0,-.4,0Z" class="g2_6"/>
<path fill-rule="evenodd" d="M167.4,266.6c-.2,0,-.4,0,-.4,0c0,0,.2,0,.4,0c.2,0,.4,0,.4,0c0,0,-.2,0,-.4,0Z" class="g2_6"/>
<path fill-rule="evenodd" d="M167.4,266.7c-.2,0,-.4,0,-.4,0c0,0,.2,0,.4,0c.2,0,.4,0,.4,0c0,0,-.2,0,-.4,0Z" class="g2_6"/>
<path fill-rule="evenodd" d="M170.7,271h.2v-4.2h-.2V271Z" class="g0_6"/>
<image clip-path="url(#c8_6)" x="169" y="265" width="3" height="2" xlink:href="shade/7.png"/>
<image clip-path="url(#c9_6)" x="169" y="265" width="3" height="2" xlink:href="shade/8.png"/>
<path fill-rule="evenodd" d="M170.8,266.2c.1,0,.3,-.1,.3,-.2c0,-.2,-.2,-.3,-.3,-.3c-.1,0,-.3,.1,-.3,.3c0,.1,.2,.2,.3,.2Z" class="g4_6"/>
<path fill-rule="evenodd" d="M170.9,265.5c-.3,0,-.6,.1,-.6,.1c0,0,.3,0,.6,0c.3,0,.5,0,.5,0c0,0,-.2,-.1,-.5,-.1Z" class="g2_6"/>
<path fill-rule="evenodd" d="M170.9,265.7c-.3,0,-.6,0,-.6,0c0,0,.3,0,.6,0c.3,0,.5,0,.5,0c0,0,-.2,0,-.5,0Z" class="g2_6"/>
<path fill-rule="evenodd" d="M170.9,265.8c-.3,0,-.6,0,-.6,0c0,0,.3,0,.6,0c.3,0,.5,0,.5,0c0,0,-.2,0,-.5,0Z" class="g2_6"/>
<path fill-rule="evenodd" d="M170.9,265.9c-.3,0,-.6,0,-.6,0c0,0,.3,0,.6,0c.3,0,.5,0,.5,0c0,0,-.2,0,-.5,0Z" class="g2_6"/>
<path fill-rule="evenodd" d="M170.9,266c-.3,0,-.6,0,-.6,0c0,0,.3,0,.6,0c.3,0,.5,0,.5,0c0,0,-.2,0,-.5,0Z" class="g2_6"/>
<path fill-rule="evenodd" d="M170.9,266.1c-.3,0,-.6,0,-.6,0c0,.1,.3,.1,.6,.1c.3,0,.5,0,.5,-.1c0,0,-.2,0,-.5,0Z" class="g2_6"/>
<path fill-rule="evenodd" d="M170.9,266.2c-.3,0,-.6,0,-.6,.1c0,0,.3,0,.6,0c.3,0,.5,0,.5,0c0,-.1,-.2,-.1,-.5,-.1Z" class="g2_6"/>
<path fill-rule="evenodd" d="M170.9,266.4c-.3,0,-.6,0,-.6,0c0,0,.3,0,.6,0c.3,0,.5,0,.5,0c0,0,-.2,0,-.5,0Z" class="g2_6"/>
<path fill-rule="evenodd" d="M174.7,272.2h.3v-5.7h-.3v5.7Z" class="g0_6"/>
<image clip-path="url(#ca_6)" x="173" y="264" width="3" height="3" xlink:href="shade/9.png"/>
<image clip-path="url(#cb_6)" x="173" y="264" width="3" height="3" xlink:href="shade/10.png"/>
<path fill-rule="evenodd" d="M174.8,265.8c.2,0,.4,-.1,.4,-.3c0,-.2,-.2,-.4,-.4,-.4c-.2,0,-.3,.2,-.3,.4c0,.2,.1,.3,.3,.3Z" class="g5_6"/>
<path fill-rule="evenodd" d="M174.9,264.9c-.4,0,-.7,0,-.7,0c0,0,.3,0,.7,0c.4,0,.7,0,.7,0c0,0,-.3,0,-.7,0Z" class="g2_6"/>
<path fill-rule="evenodd" d="M174.9,265.1c-.4,0,-.7,0,-.7,0c0,0,.3,0,.7,0c.4,0,.7,0,.7,0c0,0,-.3,0,-.7,0Z" class="g2_6"/>
<path fill-rule="evenodd" d="M174.9,265.2c-.4,0,-.7,0,-.7,0c0,.1,.3,.1,.7,.1c.4,0,.7,0,.7,-.1c0,0,-.3,0,-.7,0Z" class="g2_6"/>
<path fill-rule="evenodd" d="M174.9,265.4c-.4,0,-.7,0,-.7,0c0,0,.3,0,.7,0c.4,0,.7,0,.7,0c0,0,-.3,0,-.7,0Z" class="g2_6"/>
<path fill-rule="evenodd" d="M174.9,265.5c-.4,0,-.7,0,-.7,.1c0,0,.3,0,.7,0c.4,0,.7,0,.7,0c0,-.1,-.3,-.1,-.7,-.1Z" class="g2_6"/>
<path fill-rule="evenodd" d="M174.9,265.7c-.4,0,-.7,0,-.7,0c0,0,.3,0,.7,0c.4,0,.7,0,.7,0c0,0,-.3,0,-.7,0Z" class="g2_6"/>
<path fill-rule="evenodd" d="M174.9,265.8c-.4,0,-.7,0,-.7,.1c0,0,.3,0,.7,0c.4,0,.7,0,.7,0c0,-.1,-.3,-.1,-.7,-.1Z" class="g2_6"/>
<path fill-rule="evenodd" d="M174.9,266c-.4,0,-.7,0,-.7,0c0,0,.3,0,.7,0c.4,0,.7,0,.7,0c0,0,-.3,0,-.7,0Z" class="g2_6"/>
<path fill-rule="evenodd" d="M179.5,273.6h.4v-7.3h-.4v7.3Z" class="g0_6"/>
<image clip-path="url(#cc_6)" x="178" y="263" width="4" height="4" xlink:href="shade/11.png"/>
<image clip-path="url(#cd_6)" x="178" y="264" width="4" height="2" xlink:href="shade/12.png"/>
<path fill-rule="evenodd" d="M179.7,265.3c.3,0,.5,-.2,.5,-.4c0,-.3,-.2,-.5,-.5,-.5c-.2,0,-.4,.2,-.4,.5c0,.2,.2,.4,.4,.4Z" class="g6_6"/>
<path fill-rule="evenodd" d="M179.8,264.1c-.5,0,-.9,0,-.9,.1c0,0,.4,0,.9,0c.6,0,1,0,1,0c0,-.1,-.4,-.1,-1,-.1Z" class="g2_6"/>
<path fill-rule="evenodd" d="M179.8,264.3c-.5,0,-.9,0,-.9,.1c0,0,.4,0,.9,0c.6,0,1,0,1,0c0,-.1,-.4,-.1,-1,-.1Z" class="g2_6"/>
<path fill-rule="evenodd" d="M179.8,264.5c-.5,0,-.9,0,-.9,.1c0,0,.4,0,.9,0c.6,0,1,0,1,0c0,-.1,-.4,-.1,-1,-.1Z" class="g2_6"/>
<path fill-rule="evenodd" d="M179.8,264.7c-.5,0,-.9,0,-.9,.1c0,0,.4,0,.9,0c.6,0,1,0,1,0c0,-.1,-.4,-.1,-1,-.1Z" class="g2_6"/>
<path fill-rule="evenodd" d="M179.8,264.9c-.5,0,-.9,.1,-.9,.1c0,0,.4,0,.9,0c.6,0,1,0,1,0c0,0,-.4,-.1,-1,-.1Z" class="g2_6"/>
<path fill-rule="evenodd" d="M179.8,265.1c-.5,0,-.9,.1,-.9,.1c0,0,.4,0,.9,0c.6,0,1,0,1,0c0,0,-.4,-.1,-1,-.1Z" class="g2_6"/>
<path fill-rule="evenodd" d="M179.8,265.4c-.5,0,-.9,0,-.9,0c0,0,.4,0,.9,0c.6,0,1,0,1,0c0,0,-.4,0,-1,0Z" class="g2_6"/>
<path fill-rule="evenodd" d="M179.8,265.6c-.5,0,-.9,0,-.9,0c0,0,.4,0,.9,0c.6,0,1,0,1,0c0,0,-.4,0,-1,0Z" class="g2_6"/>
<path fill-rule="evenodd" d="M185.6,275.5h.6v-9.6h-.6v9.6Z" class="g0_6"/>
<image clip-path="url(#ce_6)" x="184" y="262" width="4" height="5" xlink:href="shade/13.png"/>
<image clip-path="url(#cf_6)" x="184" y="263" width="4" height="3" xlink:href="shade/14.png"/>
<path fill-rule="evenodd" d="M185.9,264.7c.4,0,.6,-.2,.6,-.6c0,-.3,-.2,-.6,-.6,-.6c-.3,0,-.6,.3,-.6,.6c0,.4,.3,.6,.6,.6Z" class="g7_6"/>
<path fill-rule="evenodd" d="M186.1,263.1c-.7,0,-1.2,0,-1.2,.1c0,0,.5,0,1.2,0c.7,0,1.2,0,1.2,0c0,-.1,-.5,-.1,-1.2,-.1Z" class="g2_6"/>
<path fill-rule="evenodd" d="M186.1,263.4c-.7,0,-1.2,0,-1.2,0c0,.1,.5,.1,1.2,.1c.7,0,1.2,0,1.2,-.1c0,0,-.5,0,-1.2,0Z" class="g2_6"/>
<path fill-rule="evenodd" d="M186.1,263.7c-.7,0,-1.2,0,-1.2,0c0,0,.5,.1,1.2,.1c.7,0,1.2,-.1,1.2,-.1c0,0,-.5,0,-1.2,0Z" class="g2_6"/>
<path fill-rule="evenodd" d="M186.1,263.9c-.7,0,-1.2,.1,-1.2,.1c0,0,.5,0,1.2,0c.7,0,1.2,0,1.2,0c0,0,-.5,-.1,-1.2,-.1Z" class="g2_6"/>
<path fill-rule="evenodd" d="M186.1,264.2c-.7,0,-1.2,0,-1.2,0c0,.1,.5,.1,1.2,.1c.7,0,1.2,0,1.2,-.1c0,0,-.5,0,-1.2,0Z" class="g2_6"/>
<path fill-rule="evenodd" d="M186.1,264.5c-.7,0,-1.2,0,-1.2,0c0,0,.5,0,1.2,0c.7,0,1.2,0,1.2,0c0,0,-.5,0,-1.2,0Z" class="g2_6"/>
<path fill-rule="evenodd" d="M186.1,264.7c-.7,0,-1.2,0,-1.2,.1c0,0,.5,0,1.2,0c.7,0,1.2,0,1.2,0c0,-.1,-.5,-.1,-1.2,-.1Z" class="g2_6"/>
<path fill-rule="evenodd" d="M186.1,265c-.7,0,-1.2,0,-1.2,0c0,.1,.5,.1,1.2,.1c.7,0,1.2,0,1.2,-.1c0,0,-.5,0,-1.2,0Z" class="g2_6"/>
<path fill-rule="evenodd" d="M194.1,278h.8V265.4h-.8V278Z" class="g0_6"/>
<image clip-path="url(#cg_6)" x="191" y="260" width="6" height="6" xlink:href="shade/15.png"/>
<image clip-path="url(#ch_6)" x="191" y="261" width="6" height="4" xlink:href="shade/16.png"/>
<path fill-rule="evenodd" d="M194.5,263.9c.4,0,.8,-.4,.8,-.8c0,-.4,-.4,-.8,-.8,-.8c-.4,0,-.8,.4,-.8,.8c0,.4,.4,.8,.8,.8Z" class="g8_6"/>
<path fill-rule="evenodd" d="M194.7,261.8c-.9,0,-1.6,0,-1.6,0c0,0,.7,.1,1.6,.1c.9,0,1.6,-.1,1.6,-.1c0,0,-.7,0,-1.6,0Z" class="g2_6"/>
<path fill-rule="evenodd" d="M194.7,262.1c-.9,0,-1.6,0,-1.6,.1c0,0,.7,0,1.6,0c.9,0,1.6,0,1.6,0c0,-.1,-.7,-.1,-1.6,-.1Z" class="g2_6"/>
<path fill-rule="evenodd" d="M194.7,262.5c-.9,0,-1.6,0,-1.6,0c0,0,.7,.1,1.6,.1c.9,0,1.6,-.1,1.6,-.1c0,0,-.7,0,-1.6,0Z" class="g2_6"/>
<path fill-rule="evenodd" d="M194.7,262.8c-.9,0,-1.6,0,-1.6,.1c0,0,.7,0,1.6,0c.9,0,1.6,0,1.6,0c0,-.1,-.7,-.1,-1.6,-.1Z" class="g2_6"/>
<path fill-rule="evenodd" d="M194.7,263.2c-.9,0,-1.6,0,-1.6,0c0,.1,.7,.1,1.6,.1c.9,0,1.6,0,1.6,-.1c0,0,-.7,0,-1.6,0Z" class="g2_6"/>
<path fill-rule="evenodd" d="M194.7,263.5c-.9,0,-1.6,.1,-1.6,.1c0,0,.7,0,1.6,0c.9,0,1.6,0,1.6,0c0,0,-.7,-.1,-1.6,-.1Z" class="g2_6"/>
<path fill-rule="evenodd" d="M194.7,263.9c-.9,0,-1.6,0,-1.6,0c0,.1,.7,.1,1.6,.1c.9,0,1.6,0,1.6,-.1c0,0,-.7,0,-1.6,0Z" class="g2_6"/>
<path fill-rule="evenodd" d="M194.7,264.2c-.9,0,-1.6,.1,-1.6,.1c0,0,.7,0,1.6,0c.9,0,1.6,0,1.6,0c0,0,-.7,-.1,-1.6,-.1Z" class="g2_6"/>
<path fill-rule="evenodd" d="M207.8,282.1h1V264.7h-1v17.4Z" class="g0_6"/>
<image clip-path="url(#ci_6)" x="204" y="257" width="8" height="8" xlink:href="shade/17.png"/>
<image clip-path="url(#cj_6)" x="204" y="259" width="8" height="5" xlink:href="shade/18.png"/>
<path fill-rule="evenodd" d="M208.3,262.5c.6,0,1.1,-.5,1.1,-1.1c0,-.6,-.5,-1.1,-1.1,-1.1c-.6,0,-1.1,.5,-1.1,1.1c0,.6,.5,1.1,1.1,1.1Z" class="g9_6"/>
<path fill-rule="evenodd" d="M208.6,259.6c-1.2,0,-2.2,0,-2.2,0c0,.1,1,.1,2.2,.1c1.3,0,2.3,0,2.3,-.1c0,0,-1,0,-2.3,0Z" class="g2_6"/>
<path fill-rule="evenodd" d="M208.6,260.1c-1.2,0,-2.2,0,-2.2,0c0,.1,1,.1,2.2,.1c1.3,0,2.3,0,2.3,-.1c0,0,-1,0,-2.3,0Z" class="g2_6"/>
<path fill-rule="evenodd" d="M208.6,260.5c-1.2,0,-2.2,.1,-2.2,.1c0,.1,1,.1,2.2,.1c1.3,0,2.3,0,2.3,-.1c0,0,-1,-.1,-2.3,-.1Z" class="g2_6"/>
<path fill-rule="evenodd" d="M208.6,261c-1.2,0,-2.2,.1,-2.2,.1c0,0,1,.1,2.2,.1c1.3,0,2.3,-.1,2.3,-.1c0,0,-1,-.1,-2.3,-.1Z" class="g2_6"/>
<path fill-rule="evenodd" d="M208.6,261.5c-1.2,0,-2.2,.1,-2.2,.1c0,0,1,.1,2.2,.1c1.3,0,2.3,-.1,2.3,-.1c0,0,-1,-.1,-2.3,-.1Z" class="g2_6"/>
<path fill-rule="evenodd" d="M208.6,262c-1.2,0,-2.2,0,-2.2,.1c0,0,1,.1,2.2,.1c1.3,0,2.3,-.1,2.3,-.1c0,-.1,-1,-.1,-2.3,-.1Z" class="g2_6"/>
<path fill-rule="evenodd" d="M208.6,262.5c-1.2,0,-2.2,0,-2.2,.1c0,0,1,.1,2.2,.1c1.3,0,2.3,-.1,2.3,-.1c0,-.1,-1,-.1,-2.3,-.1Z" class="g2_6"/>
<path fill-rule="evenodd" d="M208.6,263c-1.2,0,-2.2,0,-2.2,.1c0,0,1,0,2.2,0c1.3,0,2.3,0,2.3,0c0,-.1,-1,-.1,-2.3,-.1Z" class="g2_6"/>
<path fill-rule="evenodd" d="M146.3,269h.1v-1.9h-.1V269Z" class="g0_6"/>
<path fill-rule="evenodd" d="M146.4,267.1c.2,0,.3,-.1,.3,-.3c0,-.2,-.1,-.4,-.3,-.4c-.2,0,-.4,.2,-.4,.4c0,.2,.2,.3,.4,.3Z" class="g2_6"/>
<path fill-rule="evenodd" d="M146.1,266.5h.6c0,.1,0,.2,0,.3c0,0,0,.1,0,.2H146c0,-.1,0,-.2,0,-.2c0,-.1,0,-.2,.1,-.3Z" class="g2_6"/>
<path fill-rule="evenodd" d="M146.4,266.9c0,0,.1,-.1,.1,-.1c0,-.1,-.1,-.2,-.1,-.2c-.1,0,-.2,.1,-.2,.2c0,0,.1,.1,.2,.1Z" class="g2_6"/>
<path fill-rule="evenodd" d="M146.4,266.6c-.1,0,-.2,0,-.2,0c0,0,.1,0,.2,0c.1,0,.2,0,.2,0c0,0,-.1,0,-.2,0Z" class="g2_6"/>
<path fill-rule="evenodd" d="M146.4,266.6c-.1,0,-.2,0,-.2,0c0,0,.1,0,.2,0c.1,0,.2,0,.2,0c0,0,-.1,0,-.2,0Z" class="g2_6"/>
<path fill-rule="evenodd" d="M146.4,266.7c-.1,0,-.2,0,-.2,0c0,0,.1,0,.2,0c.1,0,.2,0,.2,0c0,0,-.1,0,-.2,0Z" class="g2_6"/>
<path fill-rule="evenodd" d="M146.4,266.7c-.1,0,-.2,0,-.2,0c0,0,.1,0,.2,0c.1,0,.2,0,.2,0c0,0,-.1,0,-.2,0Z" class="g2_6"/>
<path fill-rule="evenodd" d="M146.4,266.8c-.1,0,-.2,0,-.2,0c0,0,.1,0,.2,0c.1,0,.2,0,.2,0c0,0,-.1,0,-.2,0Z" class="g2_6"/>
<path fill-rule="evenodd" d="M146.4,266.8c-.1,0,-.2,0,-.2,0c0,0,.1,0,.2,0c.1,0,.2,0,.2,0c0,0,-.1,0,-.2,0Z" class="g2_6"/>
<path fill-rule="evenodd" d="M146.4,266.9c-.1,0,-.2,0,-.2,0c0,0,.1,0,.2,0c.1,0,.2,0,.2,0c0,0,-.1,0,-.2,0Z" class="g2_6"/>
<path fill-rule="evenodd" d="M146.4,266.9c-.1,0,-.2,0,-.2,0c0,0,.1,0,.2,0c.1,0,.2,0,.2,0c0,0,-.1,0,-.2,0Z" class="g2_6"/>
<path fill-rule="evenodd" d="M147.7,269.9h.2V267h-.2v2.9Z" class="g0_6"/>
<image clip-path="url(#ck_6)" x="147" y="265" width="2" height="2" xlink:href="shade/19.png"/>
<image clip-path="url(#cl_6)" x="147" y="266" width="2" height="1" xlink:href="shade/20.png"/>
<path fill-rule="evenodd" d="M147.8,266.6c.1,0,.2,-.1,.2,-.2c0,-.1,-.1,-.2,-.2,-.2c-.1,0,-.2,.1,-.2,.2c0,.1,.1,.2,.2,.2Z" class="g3_6"/>
<path fill-rule="evenodd" d="M147.9,266.1c-.2,0,-.4,0,-.4,0c0,0,.2,0,.4,0c.2,0,.3,0,.3,0c0,0,-.1,0,-.3,0Z" class="g2_6"/>
<path fill-rule="evenodd" d="M147.9,266.2c-.2,0,-.4,0,-.4,0c0,0,.2,0,.4,0c.2,0,.3,0,.3,0c0,0,-.1,0,-.3,0Z" class="g2_6"/>
<path fill-rule="evenodd" d="M147.9,266.2c-.2,0,-.4,.1,-.4,.1c0,0,.2,0,.4,0c.2,0,.3,0,.3,0c0,0,-.1,-.1,-.3,-.1Z" class="g2_6"/>
<path fill-rule="evenodd" d="M147.9,266.3c-.2,0,-.4,0,-.4,.1c0,0,.2,0,.4,0c.2,0,.3,0,.3,0c0,-.1,-.1,-.1,-.3,-.1Z" class="g2_6"/>
<path fill-rule="evenodd" d="M147.9,266.4c-.2,0,-.4,0,-.4,0c0,0,.2,0,.4,0c.2,0,.3,0,.3,0c0,0,-.1,0,-.3,0Z" class="g2_6"/>
<path fill-rule="evenodd" d="M147.9,266.5c-.2,0,-.4,0,-.4,0c0,0,.2,0,.4,0c.2,0,.3,0,.3,0c0,0,-.1,0,-.3,0Z" class="g2_6"/>
<path fill-rule="evenodd" d="M147.9,266.6c-.2,0,-.4,0,-.4,0c0,0,.2,0,.4,0c.2,0,.3,0,.3,0c0,0,-.1,0,-.3,0Z" class="g2_6"/>
<path fill-rule="evenodd" d="M147.9,266.7c-.2,0,-.4,0,-.4,0c0,0,.2,0,.4,0c.2,0,.3,0,.3,0c0,0,-.1,0,-.3,0Z" class="g2_6"/>
<path fill-rule="evenodd" d="M149.3,271h.3v-4.2h-.3V271Z" class="g0_6"/>
<image clip-path="url(#cm_6)" x="148" y="265" width="3" height="2" xlink:href="shade/21.png"/>
<image clip-path="url(#cn_6)" x="148" y="265" width="3" height="2" xlink:href="shade/22.png"/>
<path fill-rule="evenodd" d="M149.5,266.2c.1,0,.2,-.1,.2,-.2c0,-.2,-.1,-.3,-.2,-.3c-.2,0,-.3,.1,-.3,.3c0,.1,.1,.2,.3,.2Z" class="g4_6"/>
<path fill-rule="evenodd" d="M149.5,265.5c-.3,0,-.5,.1,-.5,.1c0,0,.2,0,.5,0c.3,0,.6,0,.6,0c0,0,-.3,-.1,-.6,-.1Z" class="g2_6"/>
<path fill-rule="evenodd" d="M149.5,265.7c-.3,0,-.5,0,-.5,0c0,0,.2,0,.5,0c.3,0,.6,0,.6,0c0,0,-.3,0,-.6,0Z" class="g2_6"/>
<path fill-rule="evenodd" d="M149.5,265.8c-.3,0,-.5,0,-.5,0c0,0,.2,0,.5,0c.3,0,.6,0,.6,0c0,0,-.3,0,-.6,0Z" class="g2_6"/>
<path fill-rule="evenodd" d="M149.5,265.9c-.3,0,-.5,0,-.5,0c0,0,.2,0,.5,0c.3,0,.6,0,.6,0c0,0,-.3,0,-.6,0Z" class="g2_6"/>
<path fill-rule="evenodd" d="M149.5,266c-.3,0,-.5,0,-.5,0c0,0,.2,0,.5,0c.3,0,.6,0,.6,0c0,0,-.3,0,-.6,0Z" class="g2_6"/>
<path fill-rule="evenodd" d="M149.5,266.1c-.3,0,-.5,0,-.5,0c0,.1,.2,.1,.5,.1c.3,0,.6,0,.6,-.1c0,0,-.3,0,-.6,0Z" class="g2_6"/>
<path fill-rule="evenodd" d="M149.5,266.2c-.3,0,-.5,0,-.5,.1c0,0,.2,0,.5,0c.3,0,.6,0,.6,0c0,-.1,-.3,-.1,-.6,-.1Z" class="g2_6"/>
<path fill-rule="evenodd" d="M149.5,266.4c-.3,0,-.5,0,-.5,0c0,0,.2,0,.5,0c.3,0,.6,0,.6,0c0,0,-.3,0,-.6,0Z" class="g2_6"/>
<path fill-rule="evenodd" d="M151.2,272.2h.4v-5.7h-.4v5.7Z" class="g0_6"/>
<image clip-path="url(#co_6)" x="150" y="264" width="3" height="3" xlink:href="shade/23.png"/>
<image clip-path="url(#cp_6)" x="150" y="264" width="3" height="3" xlink:href="shade/24.png"/>
<path fill-rule="evenodd" d="M151.4,265.8c.2,0,.4,-.1,.4,-.3c0,-.2,-.2,-.4,-.4,-.4c-.2,0,-.3,.2,-.3,.4c0,.2,.1,.3,.3,.3Z" class="g5_6"/>
<path fill-rule="evenodd" d="M151.5,264.9c-.4,0,-.7,0,-.7,0c0,0,.3,0,.7,0c.4,0,.7,0,.7,0c0,0,-.3,0,-.7,0Z" class="g2_6"/>
<path fill-rule="evenodd" d="M151.5,265.1c-.4,0,-.7,0,-.7,0c0,0,.3,0,.7,0c.4,0,.7,0,.7,0c0,0,-.3,0,-.7,0Z" class="g2_6"/>
<path fill-rule="evenodd" d="M151.5,265.2c-.4,0,-.7,0,-.7,0c0,.1,.3,.1,.7,.1c.4,0,.7,0,.7,-.1c0,0,-.3,0,-.7,0Z" class="g2_6"/>
<path fill-rule="evenodd" d="M151.5,265.4c-.4,0,-.7,0,-.7,0c0,0,.3,0,.7,0c.4,0,.7,0,.7,0c0,0,-.3,0,-.7,0Z" class="g2_6"/>
<path fill-rule="evenodd" d="M151.5,265.5c-.4,0,-.7,0,-.7,.1c0,0,.3,0,.7,0c.4,0,.7,0,.7,0c0,-.1,-.3,-.1,-.7,-.1Z" class="g2_6"/>
<path fill-rule="evenodd" d="M151.5,265.7c-.4,0,-.7,0,-.7,0c0,0,.3,0,.7,0c.4,0,.7,0,.7,0c0,0,-.3,0,-.7,0Z" class="g2_6"/>
<path fill-rule="evenodd" d="M151.5,265.8c-.4,0,-.7,0,-.7,.1c0,0,.3,0,.7,0c.4,0,.7,0,.7,0c0,-.1,-.3,-.1,-.7,-.1Z" class="g2_6"/>
<path fill-rule="evenodd" d="M151.5,266c-.4,0,-.7,0,-.7,0c0,0,.3,0,.7,0c.4,0,.7,0,.7,0c0,0,-.3,0,-.7,0Z" class="g2_6"/>
<path fill-rule="evenodd" d="M153.6,273.6h.4v-7.3h-.4v7.3Z" class="g0_6"/>
<image clip-path="url(#cq_6)" x="152" y="263" width="4" height="4" xlink:href="shade/25.png"/>
<image clip-path="url(#cr_6)" x="152" y="264" width="4" height="2" xlink:href="shade/26.png"/>
<path fill-rule="evenodd" d="M153.8,265.3c.2,0,.4,-.2,.4,-.4c0,-.3,-.2,-.5,-.4,-.5c-.3,0,-.5,.2,-.5,.5c0,.2,.2,.4,.5,.4Z" class="g6_6"/>
<path fill-rule="evenodd" d="M153.9,264.1c-.5,0,-.9,0,-.9,.1c0,0,.4,0,.9,0c.5,0,1,0,1,0c0,-.1,-.5,-.1,-1,-.1Z" class="g2_6"/>
<path fill-rule="evenodd" d="M153.9,264.3c-.5,0,-.9,0,-.9,.1c0,0,.4,0,.9,0c.5,0,1,0,1,0c0,-.1,-.5,-.1,-1,-.1Z" class="g2_6"/>
<path fill-rule="evenodd" d="M153.9,264.5c-.5,0,-.9,0,-.9,.1c0,0,.4,0,.9,0c.5,0,1,0,1,0c0,-.1,-.5,-.1,-1,-.1Z" class="g2_6"/>
<path fill-rule="evenodd" d="M153.9,264.7c-.5,0,-.9,0,-.9,.1c0,0,.4,0,.9,0c.5,0,1,0,1,0c0,-.1,-.5,-.1,-1,-.1Z" class="g2_6"/>
<path fill-rule="evenodd" d="M153.9,264.9c-.5,0,-.9,.1,-.9,.1c0,0,.4,0,.9,0c.5,0,1,0,1,0c0,0,-.5,-.1,-1,-.1Z" class="g2_6"/>
<path fill-rule="evenodd" d="M153.9,265.1c-.5,0,-.9,.1,-.9,.1c0,0,.4,0,.9,0c.5,0,1,0,1,0c0,0,-.5,-.1,-1,-.1Z" class="g2_6"/>
<path fill-rule="evenodd" d="M153.9,265.4c-.5,0,-.9,0,-.9,0c0,0,.4,0,.9,0c.5,0,1,0,1,0c0,0,-.5,0,-1,0Z" class="g2_6"/>
<path fill-rule="evenodd" d="M153.9,265.6c-.5,0,-.9,0,-.9,0c0,0,.4,0,.9,0c.5,0,1,0,1,0c0,0,-.5,0,-1,0Z" class="g2_6"/>
<path fill-rule="evenodd" d="M156.5,275.5h.6v-9.6h-.6v9.6Z" class="g0_6"/>
<image clip-path="url(#cs_6)" x="154" y="262" width="5" height="5" xlink:href="shade/27.png"/>
<image clip-path="url(#ct_6)" x="154" y="263" width="5" height="3" xlink:href="shade/28.png"/>
<path fill-rule="evenodd" d="M156.8,264.7c.3,0,.6,-.2,.6,-.6c0,-.3,-.3,-.6,-.6,-.6c-.3,0,-.6,.3,-.6,.6c0,.4,.3,.6,.6,.6Z" class="g7_6"/>
<path fill-rule="evenodd" d="M157,263.1c-.7,0,-1.2,0,-1.2,.1c0,0,.5,0,1.2,0c.7,0,1.2,0,1.2,0c0,-.1,-.5,-.1,-1.2,-.1Z" class="g2_6"/>
<path fill-rule="evenodd" d="M157,263.4c-.7,0,-1.2,0,-1.2,0c0,.1,.5,.1,1.2,.1c.7,0,1.2,0,1.2,-.1c0,0,-.5,0,-1.2,0Z" class="g2_6"/>
<path fill-rule="evenodd" d="M157,263.7c-.7,0,-1.2,0,-1.2,0c0,0,.5,.1,1.2,.1c.7,0,1.2,-.1,1.2,-.1c0,0,-.5,0,-1.2,0Z" class="g2_6"/>
<path fill-rule="evenodd" d="M157,263.9c-.7,0,-1.2,.1,-1.2,.1c0,0,.5,0,1.2,0c.7,0,1.2,0,1.2,0c0,0,-.5,-.1,-1.2,-.1Z" class="g2_6"/>
<path fill-rule="evenodd" d="M157,264.2c-.7,0,-1.2,0,-1.2,0c0,.1,.5,.1,1.2,.1c.7,0,1.2,0,1.2,-.1c0,0,-.5,0,-1.2,0Z" class="g2_6"/>
<path fill-rule="evenodd" d="M157,264.5c-.7,0,-1.2,0,-1.2,0c0,0,.5,0,1.2,0c.7,0,1.2,0,1.2,0c0,0,-.5,0,-1.2,0Z" class="g2_6"/>
<path fill-rule="evenodd" d="M157,264.7c-.7,0,-1.2,0,-1.2,.1c0,0,.5,0,1.2,0c.7,0,1.2,0,1.2,0c0,-.1,-.5,-.1,-1.2,-.1Z" class="g2_6"/>
<path fill-rule="evenodd" d="M157,265c-.7,0,-1.2,0,-1.2,0c0,.1,.5,.1,1.2,.1c.7,0,1.2,0,1.2,-.1c0,0,-.5,0,-1.2,0Z" class="g2_6"/>
<path fill-rule="evenodd" d="M160.6,278h.7V265.4h-.7V278Z" class="g0_6"/>
<image clip-path="url(#cu_6)" x="158" y="260" width="6" height="6" xlink:href="shade/29.png"/>
<image clip-path="url(#cv_6)" x="158" y="261" width="6" height="4" xlink:href="shade/30.png"/>
<path fill-rule="evenodd" d="M160.9,263.9c.5,0,.8,-.4,.8,-.8c0,-.4,-.3,-.8,-.8,-.8c-.4,0,-.7,.4,-.7,.8c0,.4,.3,.8,.7,.8Z" class="g8_6"/>
<path fill-rule="evenodd" d="M161.2,261.8c-.9,0,-1.6,0,-1.6,0c0,0,.7,.1,1.6,.1c.9,0,1.6,-.1,1.6,-.1c0,0,-.7,0,-1.6,0Z" class="g2_6"/>
<path fill-rule="evenodd" d="M161.2,262.1c-.9,0,-1.6,0,-1.6,.1c0,0,.7,0,1.6,0c.9,0,1.6,0,1.6,0c0,-.1,-.7,-.1,-1.6,-.1Z" class="g2_6"/>
<path fill-rule="evenodd" d="M161.2,262.5c-.9,0,-1.6,0,-1.6,0c0,0,.7,.1,1.6,.1c.9,0,1.6,-.1,1.6,-.1c0,0,-.7,0,-1.6,0Z" class="g2_6"/>
<path fill-rule="evenodd" d="M161.2,262.8c-.9,0,-1.6,0,-1.6,.1c0,0,.7,0,1.6,0c.9,0,1.6,0,1.6,0c0,-.1,-.7,-.1,-1.6,-.1Z" class="g2_6"/>
<path fill-rule="evenodd" d="M161.2,263.2c-.9,0,-1.6,0,-1.6,0c0,.1,.7,.1,1.6,.1c.9,0,1.6,0,1.6,-.1c0,0,-.7,0,-1.6,0Z" class="g2_6"/>
<path fill-rule="evenodd" d="M161.2,263.5c-.9,0,-1.6,.1,-1.6,.1c0,0,.7,0,1.6,0c.9,0,1.6,0,1.6,0c0,0,-.7,-.1,-1.6,-.1Z" class="g2_6"/>
<path fill-rule="evenodd" d="M161.2,263.9c-.9,0,-1.6,0,-1.6,0c0,.1,.7,.1,1.6,.1c.9,0,1.6,0,1.6,-.1c0,0,-.7,0,-1.6,0Z" class="g2_6"/>
<path fill-rule="evenodd" d="M161.2,264.2c-.9,0,-1.6,.1,-1.6,.1c0,0,.7,0,1.6,0c.9,0,1.6,0,1.6,0c0,0,-.7,-.1,-1.6,-.1Z" class="g2_6"/>
<path fill-rule="evenodd" d="M167.1,282.1h1.1V264.7h-1.1v17.4Z" class="g0_6"/>
<image clip-path="url(#cw_6)" x="164" y="257" width="8" height="8" xlink:href="shade/31.png"/>
<image clip-path="url(#cx_6)" x="164" y="259" width="8" height="5" xlink:href="shade/32.png"/>
<path fill-rule="evenodd" d="M167.6,262.5c.6,0,1.1,-.5,1.1,-1.1c0,-.6,-.5,-1.1,-1.1,-1.1c-.6,0,-1,.5,-1,1.1c0,.6,.4,1.1,1,1.1Z" class="g9_6"/>
<path fill-rule="evenodd" d="M168,259.6c-1.3,0,-2.3,0,-2.3,0c0,.1,1,.1,2.3,.1c1.2,0,2.2,0,2.2,-.1c0,0,-1,0,-2.2,0Z" class="g2_6"/>
<path fill-rule="evenodd" d="M168,260.1c-1.3,0,-2.3,0,-2.3,0c0,.1,1,.1,2.3,.1c1.2,0,2.2,0,2.2,-.1c0,0,-1,0,-2.2,0Z" class="g2_6"/>
<path fill-rule="evenodd" d="M168,260.5c-1.3,0,-2.3,.1,-2.3,.1c0,.1,1,.1,2.3,.1c1.2,0,2.2,0,2.2,-.1c0,0,-1,-.1,-2.2,-.1Z" class="g2_6"/>
<path fill-rule="evenodd" d="M168,261c-1.3,0,-2.3,.1,-2.3,.1c0,0,1,.1,2.3,.1c1.2,0,2.2,-.1,2.2,-.1c0,0,-1,-.1,-2.2,-.1Z" class="g2_6"/>
<path fill-rule="evenodd" d="M168,261.5c-1.3,0,-2.3,.1,-2.3,.1c0,0,1,.1,2.3,.1c1.2,0,2.2,-.1,2.2,-.1c0,0,-1,-.1,-2.2,-.1Z" class="g2_6"/>
<path fill-rule="evenodd" d="M168,262c-1.3,0,-2.3,0,-2.3,.1c0,0,1,.1,2.3,.1c1.2,0,2.2,-.1,2.2,-.1c0,-.1,-1,-.1,-2.2,-.1Z" class="g2_6"/>
<path fill-rule="evenodd" d="M168,262.5c-1.3,0,-2.3,0,-2.3,.1c0,0,1,.1,2.3,.1c1.2,0,2.2,-.1,2.2,-.1c0,-.1,-1,-.1,-2.2,-.1Z" class="g2_6"/>
<path fill-rule="evenodd" d="M168,263c-1.3,0,-2.3,0,-2.3,.1c0,0,1,0,2.3,0c1.2,0,2.2,0,2.2,0c0,-.1,-1,-.1,-2.2,-.1Z" class="g2_6"/>
<path clip-path="url(#cy_6)" fill-rule="evenodd" d="M186.2,294.1h1.9V262.4h-1.9v31.7Z" class="g0_6"/>
<image clip-path="url(#cz_6)" x="180" y="250" width="14" height="13" xlink:href="shade/33.png"/>
<image clip-path="url(#c10_6)" x="180" y="252" width="14" height="8" xlink:href="shade/34.png"/>
<path fill-rule="evenodd" d="M187.1,258.4c1.1,0,2,-.9,2,-1.9c0,-1.1,-.9,-2,-2,-2c-1,0,-1.9,.9,-1.9,2c0,1,.9,1.9,1.9,1.9Z" class="ga_6"/>
<path fill-rule="evenodd" d="M187.7,253.1c-2.2,0,-4,.1,-4,.2c0,.1,1.8,.1,4,.1c2.3,0,4.1,0,4.1,-.1c0,-.1,-1.8,-.2,-4.1,-.2Z" class="g2_6"/>
<path fill-rule="evenodd" d="M187.7,254c-2.2,0,-4,.1,-4,.2c0,.1,1.8,.1,4,.1c2.3,0,4.1,0,4.1,-.1c0,-.1,-1.8,-.2,-4.1,-.2Z" class="g2_6"/>
<path fill-rule="evenodd" d="M187.7,254.9c-2.2,0,-4,.1,-4,.2c0,0,1.8,.1,4,.1c2.3,0,4.1,-.1,4.1,-.1c0,-.1,-1.8,-.2,-4.1,-.2Z" class="g2_6"/>
<path fill-rule="evenodd" d="M187.7,255.8c-2.2,0,-4,.1,-4,.1c0,.1,1.8,.2,4,.2c2.3,0,4.1,-.1,4.1,-.2c0,0,-1.8,-.1,-4.1,-.1Z" class="g2_6"/>
<path fill-rule="evenodd" d="M187.7,256.7c-2.2,0,-4,.1,-4,.1c0,.1,1.8,.2,4,.2c2.3,0,4.1,-.1,4.1,-.2c0,0,-1.8,-.1,-4.1,-.1Z" class="g2_6"/>
<path fill-rule="evenodd" d="M187.7,257.6c-2.2,0,-4,0,-4,.1c0,.1,1.8,.2,4,.2c2.3,0,4.1,-.1,4.1,-.2c0,-.1,-1.8,-.1,-4.1,-.1Z" class="g2_6"/>
<path fill-rule="evenodd" d="M187.7,258.5c-2.2,0,-4,0,-4,.1c0,.1,1.8,.1,4,.1c2.3,0,4.1,0,4.1,-.1c0,-.1,-1.8,-.1,-4.1,-.1Z" class="g2_6"/>
<path fill-rule="evenodd" d="M187.7,259.4c-2.2,0,-4,0,-4,.1c0,.1,1.8,.1,4,.1c2.3,0,4.1,0,4.1,-.1c0,-.1,-1.8,-.1,-4.1,-.1Z" class="g2_6"/>
<path fill-rule="evenodd" d="M117.3,269.2h.1v-1.9h-.1v1.9Z" class="g0_6"/>
<path fill-rule="evenodd" d="M117.3,267.3c-.2,0,-.4,-.2,-.4,-.4c0,-.2,.2,-.4,.4,-.4c.2,0,.4,.2,.4,.4c0,.2,-.2,.4,-.4,.4Z" class="g2_6"/>
<path fill-rule="evenodd" d="M117.6,266.7H117c0,.1,-.1,.1,-.1,.2c0,.1,.1,.2,.1,.2h.6c.1,0,.1,-.1,.1,-.2q0,-.1,-.1,-.2Z" class="g2_6"/>
<path fill-rule="evenodd" d="M117.3,267c0,0,-.1,0,-.1,-.1c0,0,.1,-.1,.1,-.1c.1,0,.1,.1,.1,.1q0,.1,-.1,.1Z" class="g2_6"/>
<path fill-rule="evenodd" d="M117.3,266.7c.1,0,.2,0,.2,0c0,0,-.1,0,-.2,0c-.2,0,-.3,0,-.3,0c0,0,.1,0,.3,0Z" class="g2_6"/>
<path fill-rule="evenodd" d="M117.3,266.8c.1,0,.2,0,.2,0c0,0,-.1,0,-.2,0c-.2,0,-.3,0,-.3,0c0,0,.1,0,.3,0Z" class="g2_6"/>
<path fill-rule="evenodd" d="M117.3,266.8c.1,0,.2,0,.2,0c0,0,-.1,0,-.2,0c-.2,0,-.3,0,-.3,0c0,0,.1,0,.3,0Z" class="g2_6"/>
<path fill-rule="evenodd" d="M117.3,266.9c.1,0,.2,0,.2,0c0,0,-.1,0,-.2,0c-.2,0,-.3,0,-.3,0c0,0,.1,0,.3,0Z" class="g2_6"/>
<path fill-rule="evenodd" d="M117.3,266.9c.1,0,.2,0,.2,0c0,0,-.1,0,-.2,0c-.2,0,-.3,0,-.3,0c0,0,.1,0,.3,0Z" class="g2_6"/>
<path fill-rule="evenodd" d="M117.3,267c.1,0,.2,0,.2,0c0,0,-.1,0,-.2,0c-.2,0,-.3,0,-.3,0c0,0,.1,0,.3,0Z" class="g2_6"/>
<path fill-rule="evenodd" d="M117.3,267c.1,0,.2,0,.2,.1c0,0,-.1,0,-.2,0c-.2,0,-.3,0,-.3,0c0,-.1,.1,-.1,.3,-.1Z" class="g2_6"/>
<path fill-rule="evenodd" d="M117.3,267.1c.1,0,.2,0,.2,0c0,0,-.1,0,-.2,0c-.2,0,-.3,0,-.3,0c0,0,.1,0,.3,0Z" class="g2_6"/>
<path fill-rule="evenodd" d="M114.2,270.1h.2v-3h-.2v3Z" class="g0_6"/>
<image clip-path="url(#c11_6)" x="113" y="265" width="2" height="3" xlink:href="shade/35.png"/>
<image clip-path="url(#c12_6)" x="113" y="266" width="2" height="1" xlink:href="shade/36.png"/>
<path fill-rule="evenodd" d="M114.3,266.7q-.1,0,-.1,-.1c0,-.1,0,-.2,.1,-.2c.1,0,.2,.1,.2,.2c0,.1,-.1,.1,-.2,.1Z" class="g3_6"/>
<path fill-rule="evenodd" d="M114.3,266.2c.2,0,.4,.1,.4,.1c0,0,-.2,0,-.4,0c-.2,0,-.4,0,-.4,0c0,0,.2,-.1,.4,-.1Z" class="g2_6"/>
<path fill-rule="evenodd" d="M114.3,266.3c.2,0,.4,0,.4,.1c0,0,-.2,0,-.4,0c-.2,0,-.4,0,-.4,0c0,-.1,.2,-.1,.4,-.1Z" class="g2_6"/>
<path fill-rule="evenodd" d="M114.3,266.4c.2,0,.4,0,.4,0c0,0,-.2,0,-.4,0c-.2,0,-.4,0,-.4,0c0,0,.2,0,.4,0Z" class="g2_6"/>
<path fill-rule="evenodd" d="M114.3,266.5c.2,0,.4,0,.4,0c0,0,-.2,0,-.4,0c-.2,0,-.4,0,-.4,0c0,0,.2,0,.4,0Z" class="g2_6"/>
<path fill-rule="evenodd" d="M114.3,266.6c.2,0,.4,0,.4,0c0,0,-.2,0,-.4,0c-.2,0,-.4,0,-.4,0c0,0,.2,0,.4,0Z" class="g2_6"/>
<path fill-rule="evenodd" d="M114.3,266.7c.2,0,.4,0,.4,0c0,0,-.2,0,-.4,0c-.2,0,-.4,0,-.4,0c0,0,.2,0,.4,0Z" class="g2_6"/>
<path fill-rule="evenodd" d="M114.3,266.7c.2,0,.4,0,.4,.1c0,0,-.2,0,-.4,0c-.2,0,-.4,0,-.4,0c0,-.1,.2,-.1,.4,-.1Z" class="g2_6"/>
<path fill-rule="evenodd" d="M114.3,266.8c.2,0,.4,0,.4,0c0,.1,-.2,.1,-.4,.1c-.2,0,-.4,0,-.4,-.1c0,0,.2,0,.4,0Z" class="g2_6"/>
<path fill-rule="evenodd" d="M110.8,271.1h.2v-4.2h-.2v4.2Z" class="g0_6"/>
<image clip-path="url(#c13_6)" x="110" y="265" width="2" height="2" xlink:href="shade/37.png"/>
<image clip-path="url(#c14_6)" x="110" y="265" width="2" height="2" xlink:href="shade/38.png"/>
<path fill-rule="evenodd" d="M110.9,266.4c-.1,0,-.2,-.1,-.2,-.3c0,-.1,.1,-.2,.2,-.2c.2,0,.3,.1,.3,.2c0,.2,-.1,.3,-.3,.3Z" class="g4_6"/>
<path fill-rule="evenodd" d="M110.8,265.7c.3,0,.6,0,.6,0c0,0,-.3,0,-.6,0c-.3,0,-.5,0,-.5,0c0,0,.2,0,.5,0Z" class="g2_6"/>
<path fill-rule="evenodd" d="M110.8,265.8c.3,0,.6,0,.6,0c0,0,-.3,.1,-.6,.1c-.3,0,-.5,-.1,-.5,-.1c0,0,.2,0,.5,0Z" class="g2_6"/>
<path fill-rule="evenodd" d="M110.8,265.9c.3,0,.6,0,.6,.1c0,0,-.3,0,-.6,0c-.3,0,-.5,0,-.5,0c0,-.1,.2,-.1,.5,-.1Z" class="g2_6"/>
<path fill-rule="evenodd" d="M110.8,266c.3,0,.6,.1,.6,.1c0,0,-.3,0,-.6,0c-.3,0,-.5,0,-.5,0c0,0,.2,-.1,.5,-.1Z" class="g2_6"/>
<path fill-rule="evenodd" d="M110.8,266.2c.3,0,.6,0,.6,0c0,0,-.3,0,-.6,0c-.3,0,-.5,0,-.5,0c0,0,.2,0,.5,0Z" class="g2_6"/>
<path fill-rule="evenodd" d="M110.8,266.3c.3,0,.6,0,.6,0c0,0,-.3,0,-.6,0c-.3,0,-.5,0,-.5,0c0,0,.2,0,.5,0Z" class="g2_6"/>
<path fill-rule="evenodd" d="M110.8,266.4c.3,0,.6,0,.6,0c0,0,-.3,0,-.6,0c-.3,0,-.5,0,-.5,0c0,0,.2,0,.5,0Z" class="g2_6"/>
<path fill-rule="evenodd" d="M110.8,266.5c.3,0,.6,0,.6,0c0,.1,-.3,.1,-.6,.1c-.3,0,-.5,0,-.5,-.1c0,0,.2,0,.5,0Z" class="g2_6"/>
<path fill-rule="evenodd" d="M106.7,272.3h.4v-5.6h-.4v5.6Z" class="g0_6"/>
<image clip-path="url(#c15_6)" x="105" y="264" width="3" height="3" xlink:href="shade/39.png"/>
<image clip-path="url(#c16_6)" x="105" y="265" width="3" height="2" xlink:href="shade/40.png"/>
<path fill-rule="evenodd" d="M106.9,266c-.2,0,-.4,-.2,-.4,-.4c0,-.1,.2,-.3,.4,-.3c.2,0,.3,.2,.3,.3c0,.2,-.1,.4,-.3,.4Z" class="g5_6"/>
<path fill-rule="evenodd" d="M106.8,265.1c.4,0,.7,0,.7,0c0,0,-.3,0,-.7,0c-.4,0,-.7,0,-.7,0c0,0,.3,0,.7,0Z" class="g2_6"/>
<path fill-rule="evenodd" d="M106.8,265.2c.4,0,.7,0,.7,0c0,.1,-.3,.1,-.7,.1c-.4,0,-.7,0,-.7,-.1c0,0,.3,0,.7,0Z" class="g2_6"/>
<path fill-rule="evenodd" d="M106.8,265.4c.4,0,.7,0,.7,0c0,0,-.3,0,-.7,0c-.4,0,-.7,0,-.7,0c0,0,.3,0,.7,0Z" class="g2_6"/>
<path fill-rule="evenodd" d="M106.8,265.5c.4,0,.7,0,.7,.1c0,0,-.3,0,-.7,0c-.4,0,-.7,0,-.7,0c0,-.1,.3,-.1,.7,-.1Z" class="g2_6"/>
<path fill-rule="evenodd" d="M106.8,265.7c.4,0,.7,0,.7,0c0,0,-.3,0,-.7,0c-.4,0,-.7,0,-.7,0c0,0,.3,0,.7,0Z" class="g2_6"/>
<path fill-rule="evenodd" d="M106.8,265.8c.4,0,.7,.1,.7,.1c0,0,-.3,0,-.7,0c-.4,0,-.7,0,-.7,0c0,0,.3,-.1,.7,-.1Z" class="g2_6"/>
<path fill-rule="evenodd" d="M106.8,266c.4,0,.7,0,.7,0c0,0,-.3,0,-.7,0c-.4,0,-.7,0,-.7,0c0,0,.3,0,.7,0Z" class="g2_6"/>
<path fill-rule="evenodd" d="M106.8,266.2c.4,0,.7,0,.7,0c0,0,-.3,0,-.7,0c-.4,0,-.7,0,-.7,0c0,0,.3,0,.7,0Z" class="g2_6"/>
<path fill-rule="evenodd" d="M101.8,273.8h.4v-7.4h-.4v7.4Z" class="g0_6"/>
<image clip-path="url(#c17_6)" x="100" y="263" width="4" height="4" xlink:href="shade/41.png"/>
<image clip-path="url(#c18_6)" x="100" y="264" width="4" height="2" xlink:href="shade/42.png"/>
<path fill-rule="evenodd" d="M102,265.5c-.2,0,-.4,-.2,-.4,-.4c0,-.3,.2,-.5,.4,-.5c.3,0,.5,.2,.5,.5c0,.2,-.2,.4,-.5,.4Z" class="g6_6"/>
<path fill-rule="evenodd" d="M101.9,264.3c.5,0,.9,0,.9,0c0,0,-.4,.1,-.9,.1c-.6,0,-1,-.1,-1,-.1c0,0,.4,0,1,0Z" class="g2_6"/>
<path fill-rule="evenodd" d="M101.9,264.5c.5,0,.9,0,.9,0c0,0,-.4,0,-.9,0c-.6,0,-1,0,-1,0c0,0,.4,0,1,0Z" class="g2_6"/>
<path fill-rule="evenodd" d="M101.9,264.7c.5,0,.9,0,.9,0c0,0,-.4,.1,-.9,.1c-.6,0,-1,-.1,-1,-.1c0,0,.4,0,1,0Z" class="g2_6"/>
<path fill-rule="evenodd" d="M101.9,264.9c.5,0,.9,0,.9,0c0,0,-.4,.1,-.9,.1c-.6,0,-1,-.1,-1,-.1c0,0,.4,0,1,0Z" class="g2_6"/>
<path fill-rule="evenodd" d="M101.9,265.1c.5,0,.9,0,.9,0c0,.1,-.4,.1,-.9,.1c-.6,0,-1,0,-1,-.1c0,0,.4,0,1,0Z" class="g2_6"/>
<path fill-rule="evenodd" d="M101.9,265.3c.5,0,.9,0,.9,0c0,.1,-.4,.1,-.9,.1c-.6,0,-1,0,-1,-.1c0,0,.4,0,1,0Z" class="g2_6"/>
<path fill-rule="evenodd" d="M101.9,265.5c.5,0,.9,0,.9,0c0,.1,-.4,.1,-.9,.1c-.6,0,-1,0,-1,-.1c0,0,.4,0,1,0Z" class="g2_6"/>
<path fill-rule="evenodd" d="M101.9,265.7c.5,0,.9,0,.9,.1c0,0,-.4,0,-.9,0c-.6,0,-1,0,-1,0c0,-.1,.4,-.1,1,-.1Z" class="g2_6"/>
<path fill-rule="evenodd" d="M95.5,275.6h.6v-9.5h-.6v9.5Z" class="g0_6"/>
<image clip-path="url(#c19_6)" x="93" y="262" width="5" height="5" xlink:href="shade/43.png"/>
<image clip-path="url(#c1a_6)" x="93" y="263" width="5" height="3" xlink:href="shade/44.png"/>
<path fill-rule="evenodd" d="M95.8,264.9c-.3,0,-.6,-.3,-.6,-.6c0,-.3,.3,-.6,.6,-.6c.3,0,.6,.3,.6,.6c0,.3,-.3,.6,-.6,.6Z" class="g7_6"/>
<path fill-rule="evenodd" d="M95.6,263.3c.7,0,1.2,0,1.2,0c0,.1,-.5,.1,-1.2,.1c-.7,0,-1.2,0,-1.2,-.1c0,0,.5,0,1.2,0Z" class="g2_6"/>
<path fill-rule="evenodd" d="M95.6,263.6c.7,0,1.2,0,1.2,0c0,0,-.5,0,-1.2,0c-.7,0,-1.2,0,-1.2,0c0,0,.5,0,1.2,0Z" class="g2_6"/>
<path fill-rule="evenodd" d="M95.6,263.8c.7,0,1.2,0,1.2,.1c0,0,-.5,0,-1.2,0c-.7,0,-1.2,0,-1.2,0c0,-.1,.5,-.1,1.2,-.1Z" class="g2_6"/>
<path fill-rule="evenodd" d="M95.6,264.1c.7,0,1.2,0,1.2,0c0,.1,-.5,.1,-1.2,.1c-.7,0,-1.2,0,-1.2,-.1c0,0,.5,0,1.2,0Z" class="g2_6"/>
<path fill-rule="evenodd" d="M95.6,264.4c.7,0,1.2,0,1.2,0c0,0,-.5,0,-1.2,0c-.7,0,-1.2,0,-1.2,0c0,0,.5,0,1.2,0Z" class="g2_6"/>
<path fill-rule="evenodd" d="M95.6,264.6c.7,0,1.2,0,1.2,.1c0,0,-.5,0,-1.2,0c-.7,0,-1.2,0,-1.2,0c0,-.1,.5,-.1,1.2,-.1Z" class="g2_6"/>
<path fill-rule="evenodd" d="M95.6,264.9c.7,0,1.2,0,1.2,0c0,.1,-.5,.1,-1.2,.1c-.7,0,-1.2,0,-1.2,-.1c0,0,.5,0,1.2,0Z" class="g2_6"/>
<path fill-rule="evenodd" d="M95.6,265.2c.7,0,1.2,0,1.2,0c0,0,-.5,0,-1.2,0c-.7,0,-1.2,0,-1.2,0c0,0,.5,0,1.2,0Z" class="g2_6"/>
<path fill-rule="evenodd" d="M86.9,278.2h.7V265.6h-.7v12.6Z" class="g0_6"/>
<image clip-path="url(#c1b_6)" x="84" y="260" width="6" height="6" xlink:href="shade/45.png"/>
<image clip-path="url(#c1c_6)" x="84" y="261" width="6" height="4" xlink:href="shade/46.png"/>
<path fill-rule="evenodd" d="M87.2,264c-.4,0,-.7,-.3,-.7,-.7c0,-.5,.3,-.8,.7,-.8c.5,0,.8,.3,.8,.8c0,.4,-.3,.7,-.8,.7Z" class="g8_6"/>
<path fill-rule="evenodd" d="M87,261.9c.9,0,1.6,.1,1.6,.1c0,0,-.7,0,-1.6,0c-.9,0,-1.6,0,-1.6,0c0,0,.7,-.1,1.6,-.1Z" class="g2_6"/>
<path fill-rule="evenodd" d="M87,262.3c.9,0,1.6,0,1.6,0c0,.1,-.7,.1,-1.6,.1c-.9,0,-1.6,0,-1.6,-.1c0,0,.7,0,1.6,0Z" class="g2_6"/>
<path fill-rule="evenodd" d="M87,262.6c.9,0,1.6,.1,1.6,.1c0,0,-.7,0,-1.6,0c-.9,0,-1.6,0,-1.6,0c0,0,.7,-.1,1.6,-.1Z" class="g2_6"/>
<path fill-rule="evenodd" d="M87,263c.9,0,1.6,0,1.6,0c0,.1,-.7,.1,-1.6,.1c-.9,0,-1.6,0,-1.6,-.1c0,0,.7,0,1.6,0Z" class="g2_6"/>
<path fill-rule="evenodd" d="M87,263.3c.9,0,1.6,.1,1.6,.1c0,0,-.7,.1,-1.6,.1c-.9,0,-1.6,-.1,-1.6,-.1c0,0,.7,-.1,1.6,-.1Z" class="g2_6"/>
<path fill-rule="evenodd" d="M87,263.7c.9,0,1.6,0,1.6,0c0,.1,-.7,.1,-1.6,.1c-.9,0,-1.6,0,-1.6,-.1c0,0,.7,0,1.6,0Z" class="g2_6"/>
<path fill-rule="evenodd" d="M87,264c.9,0,1.6,.1,1.6,.1c0,0,-.7,.1,-1.6,.1c-.9,0,-1.6,-.1,-1.6,-.1c0,0,.7,-.1,1.6,-.1Z" class="g2_6"/>
<path fill-rule="evenodd" d="M87,264.4c.9,0,1.6,0,1.6,0c0,.1,-.7,.1,-1.6,.1c-.9,0,-1.6,0,-1.6,-.1c0,0,.7,0,1.6,0Z" class="g2_6"/>
<path fill-rule="evenodd" d="M72.9,282.3h1V264.8h-1v17.5Z" class="g0_6"/>
<image clip-path="url(#c1d_6)" x="69" y="258" width="8" height="8" xlink:href="shade/47.png"/>
<image clip-path="url(#c1e_6)" x="69" y="259" width="8" height="5" xlink:href="shade/48.png"/>
<path fill-rule="evenodd" d="M73.4,262.6c-.6,0,-1.1,-.4,-1.1,-1c0,-.6,.5,-1.1,1.1,-1.1c.6,0,1.1,.5,1.1,1.1c0,.6,-.5,1,-1.1,1Z" class="g9_6"/>
<path fill-rule="evenodd" d="M73.1,259.7c1.2,0,2.2,.1,2.2,.1c0,0,-1,.1,-2.2,.1c-1.3,0,-2.3,-.1,-2.3,-.1c0,0,1,-.1,2.3,-.1Z" class="g2_6"/>
<path fill-rule="evenodd" d="M73.1,260.2c1.2,0,2.2,0,2.2,.1c0,0,-1,.1,-2.2,.1c-1.3,0,-2.3,-.1,-2.3,-.1c0,-.1,1,-.1,2.3,-.1Z" class="g2_6"/>
<path fill-rule="evenodd" d="M73.1,260.7c1.2,0,2.2,0,2.2,.1c0,0,-1,.1,-2.2,.1c-1.3,0,-2.3,-.1,-2.3,-.1c0,-.1,1,-.1,2.3,-.1Z" class="g2_6"/>
<path fill-rule="evenodd" d="M73.1,261.2c1.2,0,2.2,0,2.2,.1c0,0,-1,0,-2.2,0c-1.3,0,-2.3,0,-2.3,0c0,-.1,1,-.1,2.3,-.1Z" class="g2_6"/>
<path fill-rule="evenodd" d="M73.1,261.7c1.2,0,2.2,0,2.2,.1c0,0,-1,0,-2.2,0c-1.3,0,-2.3,0,-2.3,0c0,-.1,1,-.1,2.3,-.1Z" class="g2_6"/>
<path fill-rule="evenodd" d="M73.1,262.2c1.2,0,2.2,0,2.2,0c0,.1,-1,.1,-2.2,.1c-1.3,0,-2.3,0,-2.3,-.1c0,0,1,0,2.3,0Z" class="g2_6"/>
<path fill-rule="evenodd" d="M73.1,262.7c1.2,0,2.2,0,2.2,0c0,.1,-1,.1,-2.2,.1c-1.3,0,-2.3,0,-2.3,-.1c0,0,1,0,2.3,0Z" class="g2_6"/>
<path fill-rule="evenodd" d="M73.1,263.1c1.2,0,2.2,.1,2.2,.1c0,.1,-1,.1,-2.2,.1c-1.3,0,-2.3,0,-2.3,-.1c0,0,1,-.1,2.3,-.1Z" class="g2_6"/>
<path fill-rule="evenodd" d="M135.3,269.2h.1v-1.9h-.1v1.9Z" class="g0_6"/>
<path fill-rule="evenodd" d="M135.3,267.3c-.2,0,-.3,-.2,-.3,-.4c0,-.2,.1,-.4,.3,-.4c.3,0,.4,.2,.4,.4c0,.2,-.1,.4,-.4,.4Z" class="g2_6"/>
<path fill-rule="evenodd" d="M135.7,266.7H135q0,.1,0,.2c0,.1,0,.2,0,.2h.7c0,0,0,-.1,0,-.2q0,-.1,0,-.2Z" class="g2_6"/>
<path fill-rule="evenodd" d="M135.3,267c0,0,-.1,0,-.1,-.1c0,0,.1,-.1,.1,-.1c.1,0,.2,.1,.2,.1c0,.1,-.1,.1,-.2,.1Z" class="g2_6"/>
<path fill-rule="evenodd" d="M135.3,266.7c.1,0,.3,0,.3,0c0,0,-.2,0,-.3,0c-.1,0,-.2,0,-.2,0c0,0,.1,0,.2,0Z" class="g2_6"/>
<path fill-rule="evenodd" d="M135.3,266.8c.1,0,.3,0,.3,0c0,0,-.2,0,-.3,0c-.1,0,-.2,0,-.2,0c0,0,.1,0,.2,0Z" class="g2_6"/>
<path fill-rule="evenodd" d="M135.3,266.8c.1,0,.3,0,.3,0c0,0,-.2,0,-.3,0c-.1,0,-.2,0,-.2,0c0,0,.1,0,.2,0Z" class="g2_6"/>
<path fill-rule="evenodd" d="M135.3,266.9c.1,0,.3,0,.3,0c0,0,-.2,0,-.3,0c-.1,0,-.2,0,-.2,0c0,0,.1,0,.2,0Z" class="g2_6"/>
<path fill-rule="evenodd" d="M135.3,266.9c.1,0,.3,0,.3,0c0,0,-.2,0,-.3,0c-.1,0,-.2,0,-.2,0c0,0,.1,0,.2,0Z" class="g2_6"/>
<path fill-rule="evenodd" d="M135.3,267c.1,0,.3,0,.3,0c0,0,-.2,0,-.3,0c-.1,0,-.2,0,-.2,0c0,0,.1,0,.2,0Z" class="g2_6"/>
<path fill-rule="evenodd" d="M135.3,267c.1,0,.3,0,.3,.1c0,0,-.2,0,-.3,0c-.1,0,-.2,0,-.2,0c0,-.1,.1,-.1,.2,-.1Z" class="g2_6"/>
<path fill-rule="evenodd" d="M135.3,267.1c.1,0,.3,0,.3,0c0,0,-.2,0,-.3,0c-.1,0,-.2,0,-.2,0c0,0,.1,0,.2,0Z" class="g2_6"/>
<path fill-rule="evenodd" d="M133.8,270.1h.2v-3h-.2v3Z" class="g0_6"/>
<image clip-path="url(#c1f_6)" x="133" y="265" width="2" height="3" xlink:href="shade/49.png"/>
<image clip-path="url(#c1g_6)" x="133" y="266" width="2" height="1" xlink:href="shade/50.png"/>
<path fill-rule="evenodd" d="M133.9,266.7c-.1,0,-.2,0,-.2,-.1c0,-.1,.1,-.2,.2,-.2c.1,0,.2,.1,.2,.2c0,.1,-.1,.1,-.2,.1Z" class="g3_6"/>
<path fill-rule="evenodd" d="M133.8,266.2c.3,0,.4,.1,.4,.1c0,0,-.1,0,-.4,0c-.2,0,-.3,0,-.3,0c0,0,.1,-.1,.3,-.1Z" class="g2_6"/>
<path fill-rule="evenodd" d="M133.8,266.3c.3,0,.4,0,.4,.1c0,0,-.1,0,-.4,0c-.2,0,-.3,0,-.3,0c0,-.1,.1,-.1,.3,-.1Z" class="g2_6"/>
<path fill-rule="evenodd" d="M133.8,266.4c.3,0,.4,0,.4,0c0,0,-.1,0,-.4,0c-.2,0,-.3,0,-.3,0c0,0,.1,0,.3,0Z" class="g2_6"/>
<path fill-rule="evenodd" d="M133.8,266.5c.3,0,.4,0,.4,0c0,0,-.1,0,-.4,0c-.2,0,-.3,0,-.3,0c0,0,.1,0,.3,0Z" class="g2_6"/>
<path fill-rule="evenodd" d="M133.8,266.6c.3,0,.4,0,.4,0c0,0,-.1,0,-.4,0c-.2,0,-.3,0,-.3,0c0,0,.1,0,.3,0Z" class="g2_6"/>
<path fill-rule="evenodd" d="M133.8,266.7c.3,0,.4,0,.4,0c0,0,-.1,0,-.4,0c-.2,0,-.3,0,-.3,0c0,0,.1,0,.3,0Z" class="g2_6"/>
<path fill-rule="evenodd" d="M133.8,266.7c.3,0,.4,0,.4,.1c0,0,-.1,0,-.4,0c-.2,0,-.3,0,-.3,0c0,-.1,.1,-.1,.3,-.1Z" class="g2_6"/>
<path fill-rule="evenodd" d="M133.8,266.8c.3,0,.4,0,.4,0c0,.1,-.1,.1,-.4,.1c-.2,0,-.3,0,-.3,-.1c0,0,.1,0,.3,0Z" class="g2_6"/>
<path fill-rule="evenodd" d="M132.1,271.1h.3v-4.2h-.3v4.2Z" class="g0_6"/>
<image clip-path="url(#c1h_6)" x="131" y="265" width="3" height="2" xlink:href="shade/51.png"/>
<image clip-path="url(#c1i_6)" x="131" y="265" width="3" height="2" xlink:href="shade/52.png"/>
<path fill-rule="evenodd" d="M132.2,266.4c-.1,0,-.2,-.1,-.2,-.3c0,-.1,.1,-.2,.2,-.2c.2,0,.3,.1,.3,.2c0,.2,-.1,.3,-.3,.3Z" class="g4_6"/>
<path fill-rule="evenodd" d="M132.2,265.7c.3,0,.5,0,.5,0c0,0,-.2,0,-.5,0c-.3,0,-.6,0,-.6,0c0,0,.3,0,.6,0Z" class="g2_6"/>
<path fill-rule="evenodd" d="M132.2,265.8c.3,0,.5,0,.5,0c0,0,-.2,.1,-.5,.1c-.3,0,-.6,-.1,-.6,-.1c0,0,.3,0,.6,0Z" class="g2_6"/>
<path fill-rule="evenodd" d="M132.2,265.9c.3,0,.5,0,.5,.1c0,0,-.2,0,-.5,0c-.3,0,-.6,0,-.6,0c0,-.1,.3,-.1,.6,-.1Z" class="g2_6"/>
<path fill-rule="evenodd" d="M132.2,266c.3,0,.5,.1,.5,.1c0,0,-.2,0,-.5,0c-.3,0,-.6,0,-.6,0c0,0,.3,-.1,.6,-.1Z" class="g2_6"/>
<path fill-rule="evenodd" d="M132.2,266.2c.3,0,.5,0,.5,0c0,0,-.2,0,-.5,0c-.3,0,-.6,0,-.6,0c0,0,.3,0,.6,0Z" class="g2_6"/>
<path fill-rule="evenodd" d="M132.2,266.3c.3,0,.5,0,.5,0c0,0,-.2,0,-.5,0c-.3,0,-.6,0,-.6,0c0,0,.3,0,.6,0Z" class="g2_6"/>
<path fill-rule="evenodd" d="M132.2,266.4c.3,0,.5,0,.5,0c0,0,-.2,0,-.5,0c-.3,0,-.6,0,-.6,0c0,0,.3,0,.6,0Z" class="g2_6"/>
<path fill-rule="evenodd" d="M132.2,266.5c.3,0,.5,0,.5,0c0,.1,-.2,.1,-.5,.1c-.3,0,-.6,0,-.6,-.1c0,0,.3,0,.6,0Z" class="g2_6"/>
<path fill-rule="evenodd" d="M130.1,272.3h.4v-5.6h-.4v5.6Z" class="g0_6"/>
<image clip-path="url(#c1j_6)" x="129" y="264" width="3" height="3" xlink:href="shade/53.png"/>
<image clip-path="url(#c1k_6)" x="129" y="265" width="3" height="2" xlink:href="shade/54.png"/>
<path fill-rule="evenodd" d="M130.3,266c-.2,0,-.3,-.2,-.3,-.4c0,-.1,.1,-.3,.3,-.3c.2,0,.3,.2,.3,.3c0,.2,-.1,.4,-.3,.4Z" class="g5_6"/>
<path fill-rule="evenodd" d="M130.2,265.1c.4,0,.7,0,.7,0c0,0,-.3,0,-.7,0c-.4,0,-.7,0,-.7,0c0,0,.3,0,.7,0Z" class="g2_6"/>
<path fill-rule="evenodd" d="M130.2,265.2c.4,0,.7,0,.7,0c0,.1,-.3,.1,-.7,.1c-.4,0,-.7,0,-.7,-.1c0,0,.3,0,.7,0Z" class="g2_6"/>
<path fill-rule="evenodd" d="M130.2,265.4c.4,0,.7,0,.7,0c0,0,-.3,0,-.7,0c-.4,0,-.7,0,-.7,0c0,0,.3,0,.7,0Z" class="g2_6"/>
<path fill-rule="evenodd" d="M130.2,265.5c.4,0,.7,0,.7,.1c0,0,-.3,0,-.7,0c-.4,0,-.7,0,-.7,0c0,-.1,.3,-.1,.7,-.1Z" class="g2_6"/>
<path fill-rule="evenodd" d="M130.2,265.7c.4,0,.7,0,.7,0c0,0,-.3,0,-.7,0c-.4,0,-.7,0,-.7,0c0,0,.3,0,.7,0Z" class="g2_6"/>
<path fill-rule="evenodd" d="M130.2,265.8c.4,0,.7,.1,.7,.1c0,0,-.3,0,-.7,0c-.4,0,-.7,0,-.7,0c0,0,.3,-.1,.7,-.1Z" class="g2_6"/>
<path fill-rule="evenodd" d="M130.2,266c.4,0,.7,0,.7,0c0,0,-.3,0,-.7,0c-.4,0,-.7,0,-.7,0c0,0,.3,0,.7,0Z" class="g2_6"/>
<path fill-rule="evenodd" d="M130.2,266.2c.4,0,.7,0,.7,0c0,0,-.3,0,-.7,0c-.4,0,-.7,0,-.7,0c0,0,.3,0,.7,0Z" class="g2_6"/>
<path fill-rule="evenodd" d="M127.7,273.8h.5v-7.4h-.5v7.4Z" class="g0_6"/>
<image clip-path="url(#c1l_6)" x="126" y="263" width="4" height="4" xlink:href="shade/55.png"/>
<image clip-path="url(#c1m_6)" x="126" y="264" width="4" height="2" xlink:href="shade/56.png"/>
<path fill-rule="evenodd" d="M127.9,265.5c-.2,0,-.4,-.2,-.4,-.4c0,-.3,.2,-.5,.4,-.5c.3,0,.5,.2,.5,.5c0,.2,-.2,.4,-.5,.4Z" class="g6_6"/>
<path fill-rule="evenodd" d="M127.8,264.3c.5,0,.9,0,.9,0c0,0,-.4,.1,-.9,.1c-.5,0,-1,-.1,-1,-.1c0,0,.5,0,1,0Z" class="g2_6"/>
<path fill-rule="evenodd" d="M127.8,264.5c.5,0,.9,0,.9,0c0,0,-.4,0,-.9,0c-.5,0,-1,0,-1,0c0,0,.5,0,1,0Z" class="g2_6"/>
<path fill-rule="evenodd" d="M127.8,264.7c.5,0,.9,0,.9,0c0,0,-.4,.1,-.9,.1c-.5,0,-1,-.1,-1,-.1c0,0,.5,0,1,0Z" class="g2_6"/>
<path fill-rule="evenodd" d="M127.8,264.9c.5,0,.9,0,.9,0c0,0,-.4,.1,-.9,.1c-.5,0,-1,-.1,-1,-.1c0,0,.5,0,1,0Z" class="g2_6"/>
<path fill-rule="evenodd" d="M127.8,265.1c.5,0,.9,0,.9,0c0,.1,-.4,.1,-.9,.1c-.5,0,-1,0,-1,-.1c0,0,.5,0,1,0Z" class="g2_6"/>
<path fill-rule="evenodd" d="M127.8,265.3c.5,0,.9,0,.9,0c0,.1,-.4,.1,-.9,.1c-.5,0,-1,0,-1,-.1c0,0,.5,0,1,0Z" class="g2_6"/>
<path fill-rule="evenodd" d="M127.8,265.5c.5,0,.9,0,.9,0c0,.1,-.4,.1,-.9,.1c-.5,0,-1,0,-1,-.1c0,0,.5,0,1,0Z" class="g2_6"/>
<path fill-rule="evenodd" d="M127.8,265.7c.5,0,.9,0,.9,.1c0,0,-.4,0,-.9,0c-.5,0,-1,0,-1,0c0,-.1,.5,-.1,1,-.1Z" class="g2_6"/>
<path fill-rule="evenodd" d="M124.6,275.6h.6v-9.5h-.6v9.5Z" class="g0_6"/>
<image clip-path="url(#c1n_6)" x="123" y="262" width="4" height="5" xlink:href="shade/57.png"/>
<image clip-path="url(#c1o_6)" x="123" y="263" width="4" height="3" xlink:href="shade/58.png"/>
<path fill-rule="evenodd" d="M124.9,264.9c-.3,0,-.6,-.3,-.6,-.6c0,-.3,.3,-.6,.6,-.6c.3,0,.6,.3,.6,.6c0,.3,-.3,.6,-.6,.6Z" class="g7_6"/>
<path fill-rule="evenodd" d="M124.7,263.3c.7,0,1.3,0,1.3,0c0,.1,-.6,.1,-1.3,.1c-.6,0,-1.2,0,-1.2,-.1c0,0,.6,0,1.2,0Z" class="g2_6"/>
<path fill-rule="evenodd" d="M124.7,263.6c.7,0,1.3,0,1.3,0c0,0,-.6,0,-1.3,0c-.6,0,-1.2,0,-1.2,0c0,0,.6,0,1.2,0Z" class="g2_6"/>
<path fill-rule="evenodd" d="M124.7,263.8c.7,0,1.3,0,1.3,.1c0,0,-.6,0,-1.3,0c-.6,0,-1.2,0,-1.2,0c0,-.1,.6,-.1,1.2,-.1Z" class="g2_6"/>
<path fill-rule="evenodd" d="M124.7,264.1c.7,0,1.3,0,1.3,0c0,.1,-.6,.1,-1.3,.1c-.6,0,-1.2,0,-1.2,-.1c0,0,.6,0,1.2,0Z" class="g2_6"/>
<path fill-rule="evenodd" d="M124.7,264.4c.7,0,1.3,0,1.3,0c0,0,-.6,0,-1.3,0c-.6,0,-1.2,0,-1.2,0c0,0,.6,0,1.2,0Z" class="g2_6"/>
<path fill-rule="evenodd" d="M124.7,264.6c.7,0,1.3,0,1.3,.1c0,0,-.6,0,-1.3,0c-.6,0,-1.2,0,-1.2,0c0,-.1,.6,-.1,1.2,-.1Z" class="g2_6"/>
<path fill-rule="evenodd" d="M124.7,264.9c.7,0,1.3,0,1.3,0c0,.1,-.6,.1,-1.3,.1c-.6,0,-1.2,0,-1.2,-.1c0,0,.6,0,1.2,0Z" class="g2_6"/>
<path fill-rule="evenodd" d="M124.7,265.2c.7,0,1.3,0,1.3,0c0,0,-.6,0,-1.3,0c-.6,0,-1.2,0,-1.2,0c0,0,.6,0,1.2,0Z" class="g2_6"/>
<path fill-rule="evenodd" d="M120.4,278.2h.8V265.6h-.8v12.6Z" class="g0_6"/>
<image clip-path="url(#c1p_6)" x="118" y="260" width="6" height="6" xlink:href="shade/59.png"/>
<image clip-path="url(#c1q_6)" x="118" y="261" width="6" height="4" xlink:href="shade/60.png"/>
<path fill-rule="evenodd" d="M120.8,264c-.5,0,-.8,-.3,-.8,-.7c0,-.5,.3,-.8,.8,-.8c.4,0,.7,.3,.7,.8c0,.4,-.3,.7,-.7,.7Z" class="g8_6"/>
<path fill-rule="evenodd" d="M120.5,261.9c.9,0,1.6,.1,1.6,.1c0,0,-.7,0,-1.6,0c-.9,0,-1.6,0,-1.6,0c0,0,.7,-.1,1.6,-.1Z" class="g2_6"/>
<path fill-rule="evenodd" d="M120.5,262.3c.9,0,1.6,0,1.6,0c0,.1,-.7,.1,-1.6,.1c-.9,0,-1.6,0,-1.6,-.1c0,0,.7,0,1.6,0Z" class="g2_6"/>
<path fill-rule="evenodd" d="M120.5,262.6c.9,0,1.6,.1,1.6,.1c0,0,-.7,0,-1.6,0c-.9,0,-1.6,0,-1.6,0c0,0,.7,-.1,1.6,-.1Z" class="g2_6"/>
<path fill-rule="evenodd" d="M120.5,263c.9,0,1.6,0,1.6,0c0,.1,-.7,.1,-1.6,.1c-.9,0,-1.6,0,-1.6,-.1c0,0,.7,0,1.6,0Z" class="g2_6"/>
<path fill-rule="evenodd" d="M120.5,263.3c.9,0,1.6,.1,1.6,.1c0,0,-.7,.1,-1.6,.1c-.9,0,-1.6,-.1,-1.6,-.1c0,0,.7,-.1,1.6,-.1Z" class="g2_6"/>
<path fill-rule="evenodd" d="M120.5,263.7c.9,0,1.6,0,1.6,0c0,.1,-.7,.1,-1.6,.1c-.9,0,-1.6,0,-1.6,-.1c0,0,.7,0,1.6,0Z" class="g2_6"/>
<path fill-rule="evenodd" d="M120.5,264c.9,0,1.6,.1,1.6,.1c0,0,-.7,.1,-1.6,.1c-.9,0,-1.6,-.1,-1.6,-.1c0,0,.7,-.1,1.6,-.1Z" class="g2_6"/>
<path fill-rule="evenodd" d="M120.5,264.4c.9,0,1.6,0,1.6,0c0,.1,-.7,.1,-1.6,.1c-.9,0,-1.6,0,-1.6,-.1c0,0,.7,0,1.6,0Z" class="g2_6"/>
<path fill-rule="evenodd" d="M113.6,282.3h1V264.8h-1v17.5Z" class="g0_6"/>
<image clip-path="url(#c1r_6)" x="110" y="258" width="8" height="8" xlink:href="shade/61.png"/>
<image clip-path="url(#c1s_6)" x="110" y="259" width="8" height="5" xlink:href="shade/62.png"/>
<path fill-rule="evenodd" d="M114.1,262.6c-.6,0,-1.1,-.4,-1.1,-1c0,-.6,.5,-1.1,1.1,-1.1c.6,0,1.1,.5,1.1,1.1c0,.6,-.5,1,-1.1,1Z" class="g9_6"/>
<path fill-rule="evenodd" d="M113.7,259.7c1.3,0,2.3,.1,2.3,.1c0,0,-1,.1,-2.3,.1c-1.2,0,-2.2,-.1,-2.2,-.1c0,0,1,-.1,2.2,-.1Z" class="g2_6"/>
<path fill-rule="evenodd" d="M113.7,260.2c1.3,0,2.3,0,2.3,.1c0,0,-1,.1,-2.3,.1c-1.2,0,-2.2,-.1,-2.2,-.1c0,-.1,1,-.1,2.2,-.1Z" class="g2_6"/>
<path fill-rule="evenodd" d="M113.7,260.7c1.3,0,2.3,0,2.3,.1c0,0,-1,.1,-2.3,.1c-1.2,0,-2.2,-.1,-2.2,-.1c0,-.1,1,-.1,2.2,-.1Z" class="g2_6"/>
<path fill-rule="evenodd" d="M113.7,261.2c1.3,0,2.3,0,2.3,.1c0,0,-1,0,-2.3,0c-1.2,0,-2.2,0,-2.2,0c0,-.1,1,-.1,2.2,-.1Z" class="g2_6"/>
<path fill-rule="evenodd" d="M113.7,261.7c1.3,0,2.3,0,2.3,.1c0,0,-1,0,-2.3,0c-1.2,0,-2.2,0,-2.2,0c0,-.1,1,-.1,2.2,-.1Z" class="g2_6"/>
<path fill-rule="evenodd" d="M113.7,262.2c1.3,0,2.3,0,2.3,0c0,.1,-1,.1,-2.3,.1c-1.2,0,-2.2,0,-2.2,-.1c0,0,1,0,2.2,0Z" class="g2_6"/>
<path fill-rule="evenodd" d="M113.7,262.7c1.3,0,2.3,0,2.3,0c0,.1,-1,.1,-2.3,.1c-1.2,0,-2.2,0,-2.2,-.1c0,0,1,0,2.2,0Z" class="g2_6"/>
<path fill-rule="evenodd" d="M113.7,263.1c1.3,0,2.3,.1,2.3,.1c0,.1,-1,.1,-2.3,.1c-1.2,0,-2.2,0,-2.2,-.1c0,0,1,-.1,2.2,-.1Z" class="g2_6"/>
<path clip-path="url(#cy_6)" fill-rule="evenodd" d="M93.6,294.3h1.9V262.6H93.6v31.7Z" class="g0_6"/>
<image clip-path="url(#c1t_6)" x="88" y="250" width="13" height="13" xlink:href="shade/63.png"/>
<image clip-path="url(#c1u_6)" x="88" y="252" width="13" height="9" xlink:href="shade/64.png"/>
<path fill-rule="evenodd" d="M94.6,258.6c-1.1,0,-2,-.9,-2,-2c0,-1,.9,-1.9,2,-1.9c1,0,1.9,.9,1.9,1.9c0,1.1,-.9,2,-1.9,2Z" class="ga_6"/>
<path fill-rule="evenodd" d="M94,253.3c2.2,0,4,.1,4,.1c0,.1,-1.8,.2,-4,.2c-2.3,0,-4.1,-.1,-4.1,-.2c0,0,1.8,-.1,4.1,-.1Z" class="g2_6"/>
<path fill-rule="evenodd" d="M94,254.2c2.2,0,4,.1,4,.1c0,.1,-1.8,.2,-4,.2c-2.3,0,-4.1,-.1,-4.1,-.2c0,0,1.8,-.1,4.1,-.1Z" class="g2_6"/>
<path fill-rule="evenodd" d="M94,255.1c2.2,0,4,0,4,.1c0,.1,-1.8,.2,-4,.2c-2.3,0,-4.1,-.1,-4.1,-.2c0,-.1,1.8,-.1,4.1,-.1Z" class="g2_6"/>
<path fill-rule="evenodd" d="M94,256c2.2,0,4,0,4,.1c0,.1,-1.8,.2,-4,.2c-2.3,0,-4.1,-.1,-4.1,-.2c0,-.1,1.8,-.1,4.1,-.1Z" class="g2_6"/>
<path fill-rule="evenodd" d="M94,256.8c2.2,0,4,.1,4,.2c0,.1,-1.8,.1,-4,.1c-2.3,0,-4.1,0,-4.1,-.1c0,-.1,1.8,-.2,4.1,-.2Z" class="g2_6"/>
<path fill-rule="evenodd" d="M94,257.8c2.2,0,4,0,4,.1c0,.1,-1.8,.1,-4,.1c-2.3,0,-4.1,0,-4.1,-.1c0,-.1,1.8,-.1,4.1,-.1Z" class="g2_6"/>
<path fill-rule="evenodd" d="M94,258.6c2.2,0,4,.1,4,.2c0,.1,-1.8,.1,-4,.1c-2.3,0,-4.1,0,-4.1,-.1c0,-.1,1.8,-.2,4.1,-.2Z" class="g2_6"/>
<path fill-rule="evenodd" d="M94,259.5c2.2,0,4,.1,4,.2c0,0,-1.8,.1,-4,.1c-2.3,0,-4.1,-.1,-4.1,-.1c0,-.1,1.8,-.2,4.1,-.2Z" class="g2_6"/>
<path d="M172.8,203.9c1.6,0,2.1,-1,3.4,-1.2c-.2,4.4,2.1,4.7,2.3,-.3l6.3,-.7c-.3,3.9,1.8,3.8,2.2,-.2l4.2,-.3c2.3,5,8.3,1.7,8.4,-2.8l19.9,-.1c.2,4.2,.5,1.6,1.1,-.3c.2,0,0,-.8,-.2,-.9c0,-.1,-1.2,-2.8,-1,-.8c.1,.9,-.9,.2,-1.6,.1c0,0,-18.3,-1.3,-19.8,-1.4c-1.4,-1.2,-3.4,-1.2,-5,-.3c-12.7,-.6,-25.5,-.7,-38.3,0c-6.6,.4,-6.1,-.2,-5.7,-4.5c.5,-5.6,-1.1,-12.4,-7.5,-13.7c0,-.9,-.4,-5.9,-1.3,-2.3c0,.8,0,1.5,-.1,2.3c-7.6,1.5,-8.1,10.8,-7,17c-1.5,1.9,-3.6,1.3,-6.2,1.2c-12.7,-.7,-25.5,-.6,-38.2,0c-1.2,-.7,-2.6,-.9,-3.9,-.4c0,0,-.9,.4,-1.2,.7c-1.4,.1,-19.8,1.4,-19.8,1.4c0,0,-.8,.1,-1.5,.3c.1,-2.7,-1.5,.6,-1.2,1.4c0,.1,1.1,4.9,1,1.7c0,-.5,0,-1,.1,-1.5l19.9,.1c.1,4.9,6.2,7.5,8.4,2.8c1.9,.1,4.1,.1,4.1,.4c.3,3.1,2.6,4.6,2.3,.1l6.3,.7c0,1.1,.1,3.6,1.4,3.7c1.8,0,-.2,-4.6,1.7,-3.1c.5,.4,1.8,.9,1.7,.8c3.6,.3,3.2,-.4,3.2,-.4c0,1.1,0,4,1.4,4.1c1.1,0,.9,-3,.9,-3.7l6.2,1.6c.1,2.4,2,4.1,2.2,.5l2.8,.4h-.4c-1.4,0,-.6,3.7,-.1,4.7c1.2,.6,1.5,-1.1,1.9,-1.1c0,1.2,1.1,-1,1.1,.6c2.2,2.2,2.4,-2.8,1.6,-3.7c2.4,.4,2.2,.1,2.2,2.2c0,2,-.6,3.2,1.2,3.2c.4,0,.7,-.3,.7,-.6c0,-.5,1.4,-.8,1.4,0c.7,.6,.1,.6,1.2,.6c1.1,0,.6,-4.5,.6,-5.3c3.1,.1,4.5,1.7,7.5,0c.7,0,1.3,0,1.9,0c0,1.4,-.7,6.1,1.4,5.3c.4,-.2,.9,-2.2,.9,-.9c.6,0,1,-.8,1,.3c0,.7,.8,.7,1.3,.6c1.1,-.2,.5,-4.2,.5,-5.1c.7,0,3.2,-1,2.1,.6c-1.4,3.4,1.8,4.3,1.8,2.8c0,-1.6,1,.6,1,-.6c.2,0,1.1,2,2.1,1c0,-1.4,1.7,-4.6,-.6,-4.6l2.8,-.4c.2,3.3,2,2.4,2.2,-.5l6.2,-1.6c-.1,5.4,2.2,4.3,2.3,-.4c.6,-.1,1.6,.5,2.3,.5Z" class="gb_6"/>
<image clip-path="url(#c1v_6)" x="140" y="172" width="2" height="6" xlink:href="shade/65.png"/>
<image clip-path="url(#c1w_6)" x="61" y="195" width="2" height="6" xlink:href="shade/66.png"/>
<path fill-rule="evenodd" d="M126.1,208.7h-.6v-.1h.6Zm1,0H127v-.1h.1Zm7.4,-.1v.1v-.1Zm-1.6,.1h-.2v-.1h.2q0,.1,0,.1m1.6,-1.2v-.1v.3q0,-.1,0,-.2Zm-1.2,2.3h-.6v-.2h.6Zm1.2,0h-.4v-.2h.4Zm12.7,-1.2v.1v-.1Zm1.6,.1h.2v-.1h-.2q0,.1,0,.1m-1.6,-1.2v-.1v.3q0,-.1,0,-.2Zm1.2,2.3h.6v-.2h-.6Zm-1.2,0h.4v-.2h-.4Zm8.4,-1.1h.6v-.1h-.6Zm-1.1,0h.2v-.1h-.2Zm-.4,-2.4c.2,0,.4,.2,.4,.5v.2v-.4L154,206l-.1,.1l-2.4,-2.4l.4,-.4l2.4,2.4h-.1l.3,.3v-.7l-.3,-.3l-.1,.1l-2.4,-2.4l.4,-.4l2.4,2.3v.2V203h.3v-1h1.1v4h.1c.1,0,.2,.1,.2,.2v.3c0,.1,-.1,.2,-.2,.2h-.2v.3c.1,0,.2,.1,.2,.2v.3q0,.1,-.1,.2h.3v-.2h.1c0,-.1,.1,-.1,.1,-.1v-.8h.1v-.1l.1,-.1c.1,-.1,.2,-.1,.3,-.1h.4c.3,0,.6,.2,.6,.5v2.5c0,.1,-.1,.2,-.2,.3q0,.1,0,.1h-.1v.6c0,.2,0,.3,-.1,.4c0,0,-.1,0,-.1,0v.1h-.8c-.2,0,-.4,-.2,-.4,-.5v-.7h-.8v.3h-.3v-.3h-.6c-.1,0,-.1,.1,-.2,.1v.6c0,.2,-.1,.4,-.2,.5h-.8c-.2,0,-.4,-.2,-.4,-.5v-2.5c0,0,0,-.1,0,-.1v-.1q.1,-.1,.2,-.2v-.6c0,0,0,-.1,0,-.1v-.1h.1v-.1c.1,-.1,.2,-.2,.4,-.2Zm-7,.2c0,.1,.1,.2,.1,.3v.1l.1,.1h.1v-.3c-.1,0,-.2,-.1,-.2,-.2Zm-12.6,0v0c0,.1,-.1,.2,-.2,.2v.3c0,0,.1,0,.1,0l.1,-.1v-.1c0,-.1,0,-.2,.1,-.3ZM61.3,197.1c0,0,-.2,.4,-.1,.8c.1,.3,.3,.6,.3,1c0,.5,-.1,1.2,.2,1.5c.2,.1,.2,0,.2,-.2c-.1,-.3,-.1,-.9,-.1,-1.3c0,-.4,-.1,-.7,-.2,-1c-.1,-.1,-.1,-.3,-.1,-.3c.2,.2,.4,.4,.4,.4l24.9,.2l11.1,.1l19.2,.7l13.6,2.3c-.1,.8,-.1,1.5,-.1,1.7c0,1.1,1.1,2.5,2.3,3.1v.4c0,.1,0,.2,.2,.2v.3H133c-.1,0,-.1,.1,-.1,.2v.3q0,.1,0,.2h-.2v-1.1h-.1v-.1q-.1,0,-.1,-.1h-.1c0,-.1,-.1,-.1,-.2,-.1h-.5c-.3,0,-.5,.2,-.5,.5v4.6c0,.2,.1,.3,.1,.4q.1,0,.1,0l.1,.1h.7c.3,0,.5,-.2,.5,-.5v-.7h.8v.3h.2v-.3h.8v.7c0,.2,.1,.4,.3,.5h.7c.2,0,.5,-.2,.5,-.5v-4.6c0,0,0,-.1,0,-.1h-.1v-.1c.7,0,1.5,0,2.2,0c1.1,.7,2.7,.9,2.7,.9c0,0,1.6,-.2,2.8,-.9c.7,0,1.4,0,2.2,0h-.1v.1c0,0,0,.1,0,.1v4.6c0,.3,.2,.5,.5,.5h.5c0,0,.1,0,.1,0h.1c.2,-.1,.3,-.3,.3,-.5v-.7h.8v.3h.2v-.3h.8v.7c0,.3,.2,.5,.5,.5h.5c0,0,.1,0,.1,0h.1v-.1h.1c.1,-.1,.2,-.2,.2,-.4v-4.6c0,-.3,-.3,-.5,-.5,-.5h-.5c-.1,0,-.2,0,-.3,.1c0,.1,-.1,.1,-.1,.1v.1H149v1.1h-.2q0,-.1,0,-.2v-.3c0,-.1,-.1,-.2,-.1,-.2h-.2v-.3h.1c.1,0,.2,-.1,.2,-.2v-.3q0,-.1,0,-.1c1.2,-.6,2.2,-2,2.3,-3.1c0,-.2,-.1,-.9,-.1,-1.7L164.6,199l19.2,-.7l11.1,-.1l24.8,-.2c0,.4,0,.9,0,1.2c0,.8,-.1,1.4,.3,1.2c.3,-.3,.2,-1,.2,-1.5c0,-.4,.2,-.7,.3,-1c.1,-.4,-.2,-.8,-.2,-.8c0,0,-.1,-.1,-.2,-.6c-.2,-.5,-.3,-1,-.5,-.8c-.1,.2,0,.3,0,.8v.3c-.7,-.2,-1.8,-.3,-1.8,-.3L196,194.9l-9.6,-.5l-20.5,-.1c0,0,-9.2,.3,-11.2,.4c-1.9,.2,-4.3,-.1,-4.3,-.1c0,0,-.7,-.3,-1.3,-.2c-.1,-.1,-.1,-.2,-.2,-.2c-.2,-.3,-.3,-.6,-.5,-.8c.1,-.6,.2,-1.1,.2,-1.6c.3,-3.9,.9,-5.6,-1.1,-10.3c-1.9,-4.7,-6.7,-5,-6.7,-5c0,0,-4.7,.3,-6.7,5c-2,4.7,-1.3,6.4,-1.1,10.3c.1,.5,.1,1,.2,1.6c-.1,.2,-.3,.5,-.5,.8c0,0,-.1,.1,-.1,.2c-.7,-.1,-1.4,.2,-1.4,.2c0,0,-2.3,.3,-4.3,.1c-1.9,-.1,-11.1,-.4,-11.1,-.4l-20.5,.1l-9.7,.5l-21.7,1.6c0,0,-1.4,.1,-2.1,.4c.1,-.1,.1,-.3,.2,-.4c0,-.2,.1,-.4,.1,-.5c0,-.1,0,-.2,-.1,-.3c-.1,-.2,-.2,.3,-.4,.8c-.1,.5,-.3,.6,-.3,.6m66.3,9.2c-.3,0,-.5,.2,-.5,.5v.2v-.4l.6,-.6l.1,.1l2.4,-2.4l-.4,-.4l-2.4,2.4h.1l-.4,.3v-.7l.4,-.3l.1,.1l2.4,-2.4l-.4,-.4l-2.5,2.3l.1,.1l-.1,.1V203h-.2v-1h-1.1v4h-.2c-.1,0,-.1,.1,-.1,.2v.3c0,.1,.1,.2,.2,.2h.2v.3c-.1,0,-.2,.1,-.2,.2v.3q0,.1,0,.2h-.2v-.1h-.1v-.1q-.1,-.1,-.1,-.1v-.8h-.1v-.1c0,0,-.1,0,-.1,-.1c-.1,-.1,-.2,-.1,-.3,-.1h-.5c-.2,0,-.5,.2,-.5,.5v2.5c0,.1,.1,.2,.2,.3q0,.1,0,.1h.1v.6c0,.2,0,.3,.1,.4h.1v.1c0,0,.1,0,.1,0h.6c.3,0,.5,-.2,.5,-.5v-.7h.8v.3h.3v-.3h.6c0,0,.1,.1,.2,.1v.6c0,.2,.1,.4,.2,.5h.7c.3,0,.5,-.2,.5,-.5v-2.5c0,0,0,-.1,0,-.1v-.1h-.1c0,-.1,-.1,-.1,-.1,-.2v-.6c0,0,0,-.1,0,-.1v-.1h-.1v-.1c-.1,-.1,-.2,-.2,-.4,-.2Z" class="g0_6"/>
<image clip-path="url(#c1x_6)" x="141" y="178" width="9" height="15" xlink:href="shade/67.png"/>
<path fill-rule="evenodd" d="M144.9,182.1L144,181l-.3,-.1l.6,1Z" class="gc_6"/>
<path fill-rule="evenodd" d="M144,181.8l-.6,-1l-.4,-.1l.1,.3l.4,.6Z" class="gc_6"/>
<image clip-path="url(#c1y_6)" x="141" y="180" width="2" height="2" xlink:href="shade/68.png"/>
<path fill-rule="evenodd" d="M168.8,199.6c0,2.2,1.8,4,4,4c2.7,0,4.4,-2.7,4.4,-5.2c0,-2.2,-1.8,-4,-4,-4c-1.6,0,-3,.8,-3.6,2c-.5,.8,-.8,2.3,-.8,3.2Z" class="gd_6"/>
<path fill-rule="evenodd" d="M191,199.4c0,2.2,1.8,4,4,4c2.7,0,4.4,-2.8,4.4,-5.3c0,-2.2,-1.8,-4,-4,-4c-1.6,0,-3,.8,-3.6,2.1c-.5,.8,-.8,2.3,-.8,3.2Z" class="gd_6"/>
<path fill-rule="evenodd" d="M169.4,196.6c-.5,0,-.9,.4,-.9,.9l-.2,6.7c0,1.9,.2,3,.8,3c.4,-.1,1.1,-1,1.2,-3l.1,-6.7c0,-.5,-.6,-.9,-1,-.9m9.2,1h-2l-.2,5.3c-.1,1.9,.1,3,.6,2.9c.5,0,1.2,-.9,1.3,-2.9Zm8.6,-.5h-2l-.2,4.3c-.2,1.9,0,2.9,.5,2.9c.5,0,1.2,-.9,1.4,-2.9Zm-74.9,-.5c.5,0,.9,.4,.9,.9l.1,6.7c.1,1.9,-.2,3,-.7,3c-.4,-.1,-1.2,-1,-1.2,-3l-.1,-6.7c0,-.5,.6,-.9,1,-.9m-9.2,1h2l.2,5.3c.1,1.9,-.1,3,-.7,2.9c-.4,0,-1.1,-.9,-1.2,-2.9Zm-8.6,-.5h1.9l.3,4.3c.2,1.9,0,2.9,-.5,2.9c-.5,0,-1.3,-.9,-1.4,-2.9Zm26.4,.1c.5,0,.9,.4,.9,.8v6.8c0,1.9,-.3,3,-.8,2.9c-.5,0,-1.2,-.9,-1.2,-2.9V198c0,-.4,.6,-.8,1.1,-.8m39.9,0c-.5,0,-.9,.4,-.9,.8v6.8c0,1.9,.3,3,.8,2.9c.4,0,1.2,-.9,1.2,-2.9V198c0,-.4,-.7,-.8,-1.1,-.8Z" class="gd_6"/>
<image clip-path="url(#c1z_6)" x="159" y="199" width="27" height="9" xlink:href="shade/69.png"/>
<image clip-path="url(#c20_6)" x="142" y="189" width="2" height="3" xlink:href="shade/70.png"/>
<path fill-rule="evenodd" d="M140.8,172.9V177h-.5l.1,-2.9l.2,-.9Z" class="gd_6"/>
<path d="M147.4,185.5c.1,.8,0,1.6,-.1,2.4c0,.1,.1,.2,.2,.3c.1,.1,.1,.2,.2,.2c0,0,.1,0,.1,-.1c.1,-.7,.1,-1.5,.1,-2.2c-.1,-.8,-.2,-1.7,-.4,-2.6c-.1,-.2,-.3,-.5,-.5,-.6c0,-.1,-.1,-.1,-.1,-.1q-.1,0,-.1,0c-.1,.1,0,.2,0,.3c.3,.8,.5,1.7,.6,2.4m-.5,-2.4v0c-.1,-.1,-.1,-.2,-.1,-.2q.1,0,.2,0c.1,.2,.3,.5,.4,.6c.2,.9,.3,1.8,.4,2.6c0,.7,0,1.5,-.1,2.2c0,0,-.1,-.1,-.1,-.1c-.1,-.1,-.2,-.2,-.2,-.3c.1,-.8,.1,-1.6,.1,-2.4c-.1,-.8,-.3,-1.6,-.6,-2.4Z" class="gd_6"/>
<path fill-rule="evenodd" d="M148.3,185.8c0,0,0,.3,0,.8c0,.4,0,.7,0,.7c.1,0,.1,-.3,.1,-.7c0,-.5,0,-.8,-.1,-.8m.2,.7c-.1,0,-.1,.3,-.1,.7c0,.3,0,.6,.1,.6c0,0,0,-.3,0,-.6c0,-.4,0,-.7,0,-.7m0,.6c0,0,0,.3,0,.6c0,.4,0,.7,0,.7c.1,0,.1,-.3,.1,-.7c0,-.3,0,-.6,-.1,-.6m.1,.7c0,0,0,.2,0,.5c0,.3,0,.6,0,.6c0,0,.1,-.3,.1,-.6c0,-.3,-.1,-.5,-.1,-.5m.1,.6c0,0,0,.2,0,.4c0,.2,0,.4,0,.4c0,0,0,-.2,0,-.4c0,-.2,0,-.4,0,-.4m-.5,-3.3c0,0,-.1,.4,-.1,.9c0,.4,.1,.8,.1,.8c0,0,0,-.4,0,-.8c0,-.5,0,-.9,0,-.9Z" class="gd_6"/>
<image clip-path="url(#c21_6)" x="61" y="197" width="33" height="2" xlink:href="shade/71.png"/>
<path fill-rule="evenodd" d="M136.8,182.1l.9,-1.1l.2,-.1l-.6,1Z" class="gc_6"/>
<path fill-rule="evenodd" d="M137.6,181.8l.7,-1l.4,-.1l-.1,.3l-.5,.6Z" class="gc_6"/>
<path fill-rule="evenodd" d="M138.7,181.4l.3,-.8l1.6,-.1v.8Z" class="gc_6"/>
<image clip-path="url(#c22_6)" x="95" y="199" width="27" height="9" xlink:href="shade/72.png"/>
<path fill-rule="evenodd" d="M112.9,199.6c0,2.2,-1.8,4,-4,4c-2.7,0,-4.4,-2.7,-4.4,-5.2c0,-2.2,1.8,-4,4,-4c1.5,0,2.9,.8,3.6,2c.5,.8,.8,2.3,.8,3.2Z" class="gd_6"/>
<path fill-rule="evenodd" d="M90.7,199.4c0,2.2,-1.8,4,-4,4c-2.8,0,-4.4,-2.8,-4.4,-5.3c0,-2.2,1.8,-4,4,-4c1.5,0,2.9,.8,3.6,2.1c.5,.8,.8,2.3,.8,3.2Z" class="gd_6"/>
<path fill-rule="evenodd" d="M130.9,201.3l.2,5.6l-10.2,-1.5l-3.9,-1v-1h-.2v1l-4.1,-1.1l-8.3,-1l-4,-.5v-.7h-.2v.7L96,201.3l-9.4,-.6v-2.1l9.4,-.2l8.3,.3l8.5,.4l4.8,.4l3.9,.7Z" class="gd_6"/>
<path d="M134.3,185.5c-.1,.8,-.1,1.6,0,2.4c.1,.1,0,.2,-.1,.3c-.1,.1,-.2,.2,-.2,.2c0,0,-.1,0,-.1,-.1c-.1,-.7,-.1,-1.5,-.1,-2.2c0,-.8,.2,-1.7,.4,-2.6c.1,-.2,.3,-.5,.5,-.6c0,-.1,.1,-.1,.1,-.1q.1,0,.1,0c0,.1,0,.2,0,.3c-.4,.8,-.5,1.7,-.6,2.4m.5,-2.4v0c0,-.1,.1,-.2,0,-.2h-.1c-.1,.2,-.4,.5,-.4,.6c-.2,.9,-.4,1.8,-.4,2.6c-.1,.7,0,1.5,.1,2.2c0,0,.1,-.1,.1,-.1c.1,-.1,.2,-.2,.2,-.3c-.1,-.8,-.2,-1.6,-.1,-2.4c.1,-.8,.3,-1.6,.6,-2.4Z" class="gc_6"/>
<image clip-path="url(#c23_6)" x="132" y="185" width="2" height="5" xlink:href="shade/73.png"/>
<image clip-path="url(#c24_6)" x="109" y="198" width="4" height="6" xlink:href="shade/74.png"/>
<image clip-path="url(#c25_6)" x="86" y="197" width="5" height="7" xlink:href="shade/75.png"/>
<path fill-rule="evenodd" d="M140.3,192.4c0,.3,.2,.5,.5,.5c.3,0,.5,-.2,.5,-.5c0,-.3,-.2,-.5,-.5,-.5c-.3,0,-.5,.2,-.5,.5Z" class="ge_6"/>
<image clip-path="url(#c26_6)" x="140" y="192" width="2" height="1" xlink:href="shade/76.png"/>
<path fill-rule="evenodd" d="M140.6,192.5c0,.1,.1,.2,.2,.2c.1,0,.2,-.1,.2,-.2c0,-.1,-.1,-.2,-.2,-.2c-.1,0,-.2,.1,-.2,.2Z" class="g2_6"/>
<image clip-path="url(#c27_6)" x="140" y="188" width="2" height="2" xlink:href="shade/77.png"/>
<path fill-rule="evenodd" d="M140.8,189.3c-.2,0,-.4,-.1,-.4,-.2c0,-.1,.2,-.3,.4,-.3c.2,0,.4,.2,.4,.3c0,.1,-.2,.2,-.4,.2Z" class="gd_6"/>
<image clip-path="url(#c28_6)" x="140" y="188" width="2" height="2" xlink:href="shade/78.png"/>
<path fill-rule="evenodd" d="M140.8,189.1q-.1,0,-.1,-.1q0,-.1,.1,-.1c.1,0,.2,0,.2,.1c0,.1,-.1,.1,-.2,.1Z" class="g2_6"/>
<path fill-rule="evenodd" d="M151.8,195.1h-.3c-.1,0,-.2,.1,-.2,.2v1.1c0,.1,.1,.2,.2,.2h.3c.1,0,.2,-.1,.2,-.2v-1.1c0,-.1,-.1,-.2,-.2,-.2Z" class="ge_6"/>
<image clip-path="url(#c29_6)" x="151" y="195" width="1" height="2" xlink:href="shade/79.png"/>
<path fill-rule="evenodd" d="M151.8,195.4h-.3q-.1,0,-.1,0v.2h.4q.1,0,.1,0v-.2h-.1Z" class="g2_6"/>
<path fill-rule="evenodd" d="M151.8,196.3h-.3q-.1,0,-.1,0v.1q0,.1,.1,.1h.3q.1,0,.1,-.1v-.1h-.1Z" class="g2_6"/>
<path fill-rule="evenodd" d="M151.8,196h-.3q-.1,0,-.1,0v.2h.4q.1,0,.1,0V196h-.1Z" class="g2_6"/>
<path fill-rule="evenodd" d="M151.8,195.7h-.3q-.1,0,-.1,0v.2h.4q.1,0,.1,0v-.2h-.1Z" class="g2_6"/>
<path fill-rule="evenodd" d="M130.6,195.1h-.3c-.1,0,-.2,.1,-.2,.2v1.1c0,.1,.1,.2,.2,.2h.3c.1,0,.2,-.1,.2,-.2v-1.1c0,-.1,-.1,-.2,-.2,-.2Z" class="ge_6"/>
<image clip-path="url(#c2a_6)" x="130" y="195" width="1" height="2" xlink:href="shade/80.png"/>
<path fill-rule="evenodd" d="M130.6,195.4h-.3q-.1,0,-.1,0v.2h.4c0,0,.1,0,.1,0v-.2c0,0,-.1,0,-.1,0Z" class="g2_6"/>
<path fill-rule="evenodd" d="M130.6,196.3h-.3q-.1,0,-.1,0v.1q0,.1,.1,.1h.3c0,0,.1,0,.1,-.1v-.1c0,0,-.1,0,-.1,0Z" class="g2_6"/>
<path fill-rule="evenodd" d="M130.6,196h-.3q-.1,0,-.1,0v.2h.4c0,0,.1,0,.1,0V196c0,0,-.1,0,-.1,0Z" class="g2_6"/>
<path fill-rule="evenodd" d="M130.6,195.7h-.3q-.1,0,-.1,0v.2h.4c0,0,.1,0,.1,0v-.2c0,0,-.1,0,-.1,0Z" class="g2_6"/>
<image clip-path="url(#c2b_6)" x="82" y="194" width="8" height="7" xlink:href="shade/81.png"/>
<image clip-path="url(#c2c_6)" x="104" y="194" width="8" height="7" xlink:href="shade/82.png"/>
<path fill-rule="evenodd" d="M150.7,201.3l-.1,5.6l10.2,-1.5l3.8,-1v-1h.3v1l4.1,-1.1l8.3,-1l3.9,-.5v-.7h.3v.7l4.2,-.5l9.4,-.6l-.1,-2.1l-9.3,-.2l-8.3,.3l-8.5,.4l-4.8,.4l-3.9,.7Z" class="gd_6"/>
<image clip-path="url(#c2d_6)" x="172" y="198" width="6" height="6" xlink:href="shade/83.png"/>
<image clip-path="url(#c2e_6)" x="195" y="198" width="5" height="6" xlink:href="shade/84.png"/>
<image clip-path="url(#c2f_6)" x="192" y="194" width="8" height="7" xlink:href="shade/85.png"/>
<image clip-path="url(#c2g_6)" x="170" y="194" width="8" height="7" xlink:href="shade/86.png"/>
<path fill-rule="evenodd" d="M147.3,183.9c.1,0,.1,.2,.2,.5c.1,.3,.1,.6,.1,.6c-.1,0,-.1,-.3,-.2,-.6c-.1,-.3,-.1,-.5,-.1,-.5Z" class="gd_6"/>
<path d="M130.7,196.5q-.1,.1,-.1,.1h-.3c0,0,-.1,0,-.1,-.1v.1c0,0,.1,0,.1,0h.3c0,0,.1,0,.1,0v-.1Z" class="gf_6"/>
<image clip-path="url(#c2h_6)" x="130" y="196" width="1" height="1" xlink:href="shade/87.png"/>
<path d="M130.4,196.3l-.2,.2h.4Z" class="g2_6"/>
<path d="M127.4,200.8l-.1,.1h.1v-.1Z" class="gg_6"/>
<path d="M133.1,192.5l-.2,.1c.1,.3,.1,.6,.2,.9c-.4,.4,-.7,.7,-1.1,.9l.5,-.3l.7,-.8c0,-.3,-.1,-.6,-.1,-.8m-.8,1.9c0,0,.1,0,.2,0c0,0,.1,0,.1,0c0,-.1,.1,-.2,.1,-.2c.1,-.1,.1,-.2,.2,-.2l-.4,.1Zm.7,-3.1c0,-.1,0,-.2,0,-.3l-.2,.4c0,0,0,.2,0,.2Z" class="gh_6"/>
<path d="M128.4,194.2l1.1,.5q.1,0,.2,0l-.5,-.9l-7.4,-6.9Zm4.5,-1.6l-1.2,1.2l-.4,.8c.1,-.1,.3,-.1,.7,-.2c.4,-.2,.7,-.5,1.1,-.9c-.1,-.3,-.1,-.6,-.2,-.9m-4.2,2.2c.1,-.1,.2,-.1,.2,-.1l-.5,-.5l-3.8,-2Zm4.1,-3.4l-2.1,3.2l-.3,-5.8l-.2,5.8l-3.1,-4.9l2.1,4.1l1,.9c.2,0,.4,0,.5,-.1l1,-.8l1.1,-2.2c0,0,0,-.2,0,-.2Z" class="gi_6"/>
<path d="M125.3,200.4l-.2,.2l.6,.1l.2,-.2Z" class="gg_6"/>
<path d="M121.8,204.3l3.9,-3.6l-.6,-.1Zm6.9,-7.5l-3.4,3.6l.6,.1l3.2,-2.9l.7,-1.4Zm3.5,0l-1.1,-.6l.7,1.4l7.3,6.7Zm-.8,-1.5v0l.2,-.1Zm-2.1,-.1l.2,.1Zm.4,-.5q-.1,0,-.2,0l.3,.2Zm3.5,-1.4l5.9,-6.4l-6,5.6c0,.2,.1,.5,.1,.8m-1.2,1.1c-.4,.1,-.6,.1,-.7,.2l-.2,.3l.9,-.5m1.8,7l-2,-3.8l-1,-.9Zm-6.7,0l.3,-.5h-.1Zm.3,-.6v0l2.7,-4.1l-1,.9Zm4,-5l5.8,-.3l-5.8,-.2l-.3,.3l1.1,1.2l4.1,2.1Zm-1.9,-.5l-5.8,.2l5.8,.3l-4.9,3.1l4.1,-2.1l1,-1.2Zm.8,1.3c0,0,-.1,0,-.1,0l.2,4.6v1.1l.1,-1.1l.2,-4.6c0,0,-.1,0,-.1,0Zm-1.6,-1.8l.6,.4l-.3,-.5c-.1,0,-.2,0,-.3,.1m4.2,-.8c-.1,0,-.1,.1,-.2,.2c0,0,-.1,.1,-.1,.2c0,0,-.1,0,-.1,0c-.1,0,-.2,0,-.2,0l-.7,.8l4.7,-3Zm.9,-4.3L133,191c0,.1,0,.2,0,.3Zm-3.4,5.2l.3,-.3c-.1,.1,-.3,.1,-.5,.1Z" class="gj_6"/>
<path d="M130.7,196.5c0,0,0,.1,0,.1l.1,.1Z" class="gj_6"/>
<path d="M130.7,196.5v.1c0,0,0,-.1,0,-.1Z" class="gf_6"/>
<path d="M130.1,196.6v.1l.1,-.1q-.1,0,-.1,0Z" class="gj_6"/>
<path d="M130.2,196.5l-.1,.1h.1v-.1Z" class="gf_6"/>
<path d="M130.2,196.4v.1Z" class="g2_6"/>
<path d="M132.3,194.4l.2,-.3l-.5,.3l-.9,.5l.2,-.3l.4,-.8l-1,.8l-.3,.3l-.2,-.2l-1,-.9l.5,.9l.1,.2l-.3,-.2l-1.1,-.6l.6,.6l.3,.5l.2,.1l.2,.3l-1,1.2l1.1,-.6l-.7,1.4l1,-.9v-.1q0,-.1,0,-.2v-1.1c0,-.1,.1,-.2,.2,-.2h.3c.1,0,.2,.1,.2,.2v1.1q0,.1,-.1,.1l.1,.2l1,.9l-.7,-1.4l1.1,.6l-1.1,-1.2l.3,-.3l.2,-.1Z" class="g2_6"/>
<path d="M130.6,195.1h-.3c-.1,0,-.2,.1,-.2,.2v1.1q0,.1,0,.2l.1,-.1q-.1,0,-.1,-.1v-1c0,-.1,.1,-.2,.2,-.2h.3c.1,0,.1,.1,.1,.2v1c0,0,0,.1,0,.1q.1,0,.1,-.1v-1.1c0,-.1,-.1,-.2,-.2,-.2m.1,1.4v0Z" class="gk_6"/>
<image clip-path="url(#c2i_6)" x="130" y="195" width="1" height="2" xlink:href="shade/88.png"/>
<path d="M130.6,195.4h-.4v.2h.5v-.2Z" class="g2_6"/>
<path d="M130.6,196.3h-.4v.2v-.1v.1l.2,-.2l.2,.2l.1,-.1v-.1Z" class="g2_6"/>
<path d="M130.6,196h-.4v.2h.5V196Z" class="g2_6"/>
<path d="M130.6,195.7h-.4v.2h.5v-.2Z" class="g2_6"/>
<path d="M148.7,190.7c0,0,0,.1,0,.1l.2,.3q0,-.1,0,-.2Z" class="gl_6"/>
<path d="M148.3,189.9l.4,.9c0,0,0,-.1,0,-.1Z" class="gm_6"/>
<path d="M153.8,194.7c-.2,0,-.3,0,-.5,0v.1c.2,0,.3,0,.4,0Z" class="gn_6"/>
<path d="M148.8,194c0,0,.1,.1,.1,.2c.1,0,.1,.1,.2,.2c0,0,.1,0,.1,0c.1,0,.2,0,.3,0c-.1,-.1,-.2,-.2,-.3,-.3Z" class="gl_6"/>
<path d="M154.5,200.7v.2l.1,-.1Z" class="go_6"/>
<path d="M148.8,193.6l.8,.8c.5,.1,.8,.2,.8,.2c0,0,.1,0,.3,0l-.3,-.6l-1.6,-1.5c-.1,.4,0,.8,0,1.1m4.1,.4l-.4,.7c.1,0,.3,0,.4,.1l.8,-.4l6.6,-7.2Zm-3.4,.4c0,0,.1,0,.1,0l-.4,-.3c.1,.1,.2,.2,.3,.3m3.8,.3c.2,0,.3,0,.5,0l3.7,-2.3l-3.8,2Zm-1.3,0h.1l.8,-.7l2.1,-4.1Zm-.6,0c.1,0,.3,0,.5,0l-.3,-5.7Zm-2.5,-3.6l1.5,2.9l.7,.7q.1,0,.2,0l-2.4,-3.8q0,.1,0,.2Z" class="gi_6"/>
<path d="M148.6,192.3c0,.3,-.1,.6,-.1,.9l.3,.4c0,-.3,-.1,-.7,0,-1.1Z" class="gl_6"/>
<path d="M148.3,192.1c.1,.3,.2,.6,.2,.8c0,-.2,.1,-.4,.1,-.6Z" class="gm_6"/>
<path d="M156.5,200.4l-.6,.1l.2,.2l.6,-.1Z" class="go_6"/>
<path d="M156.7,200.6l-.6,.1l4.2,3.8Zm-4.8,-3.9l.1,.2l-.1,-.2Zm-.6,.2l.1,-.2Zm-1.5,.1l-6.9,7.5l7.3,-6.7l.8,-1.4Zm3.6,0l-1.1,-.6l.7,1.4l3,2.7l.5,-.1Zm-2.9,-1.6l.1,.1h.1Zm2,.1h.1l.1,-.1Zm-4,-2.7c0,0,0,.1,0,.1c0,0,0,-.1,0,-.1m.1,-.5c0,.2,-.1,.4,-.1,.5c0,-.1,.1,-.3,.1,-.5Zm2.1,2.3c-.2,0,-.3,0,-.3,0c0,0,-.3,-.1,-.8,-.2l1.4,.7Zm-2.2,-1.7c0,-.2,-.1,-.5,-.2,-.8l-5.4,-4.9l5.6,6c0,-.1,0,-.2,0,-.3m4,1.8l-.2,.4l.6,-.4c-.1,0,-.3,0,-.4,0m2,6.2l.5,.7l-.4,-.8Zm0,-.2v0L153,197.8l-1,-.9Zm-6.2,.9l3,-4.7l-1.1,.9Zm2.3,-6.1l-5.7,.3l5.8,.2l-4.9,3.1l4,-2.1l1.1,-1.2Zm1.9,.5l5.9,-.2l-5.8,-.3l-.3,.3l1.1,1.2l4.1,2.1Zm-3,-1.6c-.1,0,-.2,0,-.3,0c0,0,-.1,0,-.1,0c-.1,-.1,-.1,-.2,-.2,-.2c0,-.1,0,-.2,-.1,-.2l-3,-1.6l4.7,3l-.9,-1c0,0,-.1,0,-.1,0m2.1,2.2l-.2,.1l.2,4.5v1.3l.1,-1.3l.2,-4.5l-.2,-.1Zm1.7,-1.8l-.6,.6l1,-.6c-.1,0,-.2,0,-.4,0m-1.2,-.1q-.1,0,-.1,0l-.1,.2v-.2c-.2,0,-.4,0,-.5,0v.2l-.1,-.2q-.1,0,-.2,0l.5,.4Z" class="gj_6"/>
<path d="M153.3,194.7c0,.1,-.1,.1,-.2,.1c.1,0,.2,0,.2,0Z" class="gp_6"/>
<path d="M152.3,195.8l.3,-.3h-.1l.2,-.1l.6,-.6c0,0,-.1,0,-.2,0c.1,0,.2,-.1,.2,-.1l.4,-.3l-.8,.4l-.6,.3l.2,-.4l.4,-.7l-.8,.7l-.5,.4l-.5,-.4l-.7,-.7l.3,.6l.3,.5l-1.4,-.7l.9,1l.2,.1h-.1l.3,.3l-1.1,1.2l1.2,-.6l-.8,1.4l1.1,-.9l.1,-.2v.1l.2,-.2h-.1c-.1,0,-.2,-.1,-.2,-.2v-1.1c0,-.1,.1,-.2,.2,-.2h.3c.1,0,.2,.1,.2,.2v1.1c0,.1,-.1,.2,-.2,.2h-.1l.2,.2v-.1l.1,.2l1,.9l-.7,-1.4l1.1,.6Z" class="g2_6"/>
<path d="M151.7,196.6h-.1h.1Z" class="gf_6"/>
<image clip-path="url(#c2j_6)" x="151" y="196" width="1" height="1" xlink:href="shade/89.png"/>
<path d="M151.8,195.1h-.3c-.1,0,-.2,.1,-.2,.2v1.1c0,.1,.1,.2,.2,.2h.1h-.1c-.1,0,-.1,-.1,-.1,-.2v-1c0,-.1,0,-.2,.1,-.2h.3c.1,0,.2,.1,.2,.2v1c0,.1,-.1,.2,-.2,.2h-.1h.1c.1,0,.2,-.1,.2,-.2v-1.1c0,-.1,-.1,-.2,-.2,-.2Z" class="gk_6"/>
<image clip-path="url(#c2k_6)" x="151" y="195" width="1" height="2" xlink:href="shade/90.png"/>
<path d="M151.8,195.4h-.4v.2h.5v-.2Z" class="g2_6"/>
<path d="M151.8,196.3h-.4v.1l.1,.1h.3l.1,-.1v-.1Z" class="g2_6"/>
<path d="M151.8,196h-.4v.2h.5V196Z" class="g2_6"/>
<path d="M151.8,195.7h-.4v.2h.5v-.2Z" class="g2_6"/>
<path fill-rule="evenodd" d="M140.8,190.7v1.8l-1,-1.5l.8,1.5l-1.5,-.8l1.5,.9l-1.7,.1l1.7,.1l-1.5,.9l1.5,-.8l-.8,1.5l1,-1.4v1.7l.1,-1.7l.9,1.4l-.8,-1.5l1.6,.8l-1.5,-.9l1.7,-.1l-1.7,-.1l1.5,-.9l-1.6,.8l.8,-1.5l-.9,1.5Z" class="g2_6"/>
<path fill-rule="evenodd" d="M143.4,190.2l-2.6,2.3l-2.5,-2.3l2.3,2.5l-2.3,2.6l2.5,-2.4l2.6,2.4L141,192.7Z" class="g2_6"/>
<image clip-path="url(#c2l_6)" preserveAspectRatio="none" x="53" y="673" width="175" height="137" xlink:href="img/3.jpg"/>
</svg>