<?xml version="1.0" encoding="UTF-8" standalone="no"?>
<!DOCTYPE svg PUBLIC "-//W3C//DTD SVG 1.1//EN"
"http://www.w3.org/Graphics/SVG/1.1/DTD/svg11.dtd">
<svg viewBox="0 0 811 1017" version="1.1" xmlns="http://www.w3.org/2000/svg" xmlns:xlink="http://www.w3.org/1999/xlink">
<defs>
<style type="text/css"><![CDATA[
.g0_517{
fill: #70A6CC;
}
.g1_517{
}
]]></style>
</defs>
<path d="M156.1,552.9H724.4V531.7H156.1Z" class="g0_517"/>
<path d="M526.4,755.1v3.2l-.2,-.1l-6.4,-3l-.3,-.1l.3,-.2l6.4,-3l.2,-.1v.3l-.1,.2l-6.3,2.9l-.2,-.3h.2l6.3,2.9l-.1,.4l-.1,-.2v-2.9Z" class="g1_517"/>
<path d="M526.1,755.1h.3v-3h-.3Z" class="g1_517"/>
<path d="M526.4,755.2h18.7v-.3H526.4Z" class="g1_517"/>
<path d="M544.8,755.1h.3V731h-.3Z" class="g1_517"/>
<path d="M543.4,770.7v3.2h-.3l-6.3,-3l-.4,-.2l.4,-.1l6.3,-2.9l.3,-.1v.3l-.1,.2l-6.3,2.8l-.2,-.3h.2l6.3,2.9l-.2,.4l-.1,-.2v-3Z" class="g1_517"/>
<path d="M543,770.7h.4v-2.8H543Z" class="g1_517"/>
<path d="M562.7,797.1h.3V770.6h-.3Z" class="g1_517"/>
<path d="M543.4,770.9h19.4v-.3H543.4Z" class="g1_517"/>
</svg>