<?xml version="1.0" encoding="UTF-8" standalone="no"?>
<!DOCTYPE svg PUBLIC "-//W3C//DTD SVG 1.1//EN"
"http://www.w3.org/Graphics/SVG/1.1/DTD/svg11.dtd">
<svg viewBox="0 0 811 1017" version="1.1" xmlns="http://www.w3.org/2000/svg" xmlns:xlink="http://www.w3.org/1999/xlink">
<defs>
<style type="text/css"><![CDATA[
.g0_323{
fill: none;
stroke: #222326;
stroke-width: 1.145;
}
.g1_323{
fill: #211E1E;
}
.g2_323{
fill: none;
stroke: #222326;
stroke-width: 1.527;
}
.g3_323{
fill: #C6EAFA;
}
.g4_323{
fill: none;
stroke: #222326;
stroke-width: 0.763;
}
.g5_323{
fill: #FED9A1;
}
.g6_323{
fill: #65C18B;
}
.g7_323{
fill: #FED74D;
}
.g8_323{
fill: #92C4E9;
}
.g9_323{
fill: #CEBCDA;
}
.ga_323{
fill: none;
stroke: #222326;
stroke-width: 0.763;
stroke-dasharray: 4,4;
}
.gb_323{
fill: #FFF;
}
.gc_323{
fill: none;
stroke: #EE2026;
stroke-width: 0.763;
}
.gd_323{
fill: none;
stroke: #EE2026;
stroke-width: 0.763;
stroke-dasharray: 4,4;
}
]]></style>
</defs>
<path d="M143.6,513H398.1" class="g0_323"/>
<path d="M400.8,511.9c-1.9,-.6,-3.2,-1.1,-4.7,-1.7v5.7c.6,-.2,2.8,-1.1,4.7,-1.7c2,-.6,3.8,-1,5,-1.2c-1.2,-.1,-3,-.5,-5,-1.1Z" class="g1_323"/>
<path d="M362.9,523.5V502.6" class="g2_323"/>
<path d="M143.6,616.9H398.1" class="g0_323"/>
<path d="M400.8,615.8c-1.9,-.6,-3.2,-1.1,-4.7,-1.8v5.8c.6,-.2,2.8,-1.1,4.7,-1.7c2,-.6,3.8,-1,5,-1.2c-1.2,-.1,-3,-.5,-5,-1.1Z" class="g1_323"/>
<path d="M159.1,577.4c0,3.3,2.7,6.1,6.1,6.1H373.1c3.4,0,6.2,-2.8,6.2,-6.1v-24c0,-3.4,-2.8,-6.1,-6.2,-6.1H165.2c-3.4,0,-6.1,2.7,-6.1,6.1v24Z" class="g3_323"/>
<path d="M159.1,577.4c0,3.3,2.7,6.1,6.1,6.1H373.1c3.4,0,6.2,-2.8,6.2,-6.1v-24c0,-3.4,-2.8,-6.1,-6.2,-6.1H165.2c-3.4,0,-6.1,2.7,-6.1,6.1v24Z" class="g4_323"/>
<path d="M203.6,513c0,5.8,-4.7,10.5,-10.5,10.5c-5.8,0,-10.5,-4.7,-10.5,-10.5c0,-5.8,4.7,-10.4,10.5,-10.4c5.8,0,10.5,4.6,10.5,10.4Z" class="g5_323"/>
<path d="M203.6,513c0,5.8,-4.7,10.5,-10.5,10.5c-5.8,0,-10.5,-4.7,-10.5,-10.5c0,-5.8,4.7,-10.4,10.5,-10.4c5.8,0,10.5,4.6,10.5,10.4Z" class="g4_323"/>
<path d="M233.3,513c0,5.8,-4.7,10.5,-10.5,10.5c-5.8,0,-10.5,-4.7,-10.5,-10.5c0,-5.8,4.7,-10.4,10.5,-10.4c5.8,0,10.5,4.6,10.5,10.4Z" class="g6_323"/>
<path d="M233.3,513c0,5.8,-4.7,10.5,-10.5,10.5c-5.8,0,-10.5,-4.7,-10.5,-10.5c0,-5.8,4.7,-10.4,10.5,-10.4c5.8,0,10.5,4.6,10.5,10.4Z" class="g4_323"/>
<path d="M263,513c0,5.8,-4.7,10.5,-10.5,10.5C246.7,523.5,242,518.8,242,513c0,-5.8,4.7,-10.4,10.5,-10.4c5.8,0,10.5,4.6,10.5,10.4Z" class="g7_323"/>
<path d="M263,513c0,5.8,-4.7,10.5,-10.5,10.5C246.7,523.5,242,518.8,242,513c0,-5.8,4.7,-10.4,10.5,-10.4c5.8,0,10.5,4.6,10.5,10.4Z" class="g4_323"/>
<path d="M292.7,513c0,5.8,-4.7,10.5,-10.5,10.5c-5.8,0,-10.5,-4.7,-10.5,-10.5c0,-5.8,4.7,-10.4,10.5,-10.4c5.8,0,10.5,4.6,10.5,10.4Z" class="g8_323"/>
<path d="M292.7,513c0,5.8,-4.7,10.5,-10.5,10.5c-5.8,0,-10.5,-4.7,-10.5,-10.5c0,-5.8,4.7,-10.4,10.5,-10.4c5.8,0,10.5,4.6,10.5,10.4Z" class="g4_323"/>
<path d="M322.4,513c0,5.8,-4.7,10.5,-10.5,10.5c-5.8,0,-10.5,-4.7,-10.5,-10.5c0,-5.8,4.7,-10.4,10.5,-10.4c5.8,0,10.5,4.6,10.5,10.4Z" class="g9_323"/>
<path d="M322.4,513c0,5.8,-4.7,10.5,-10.5,10.5c-5.8,0,-10.5,-4.7,-10.5,-10.5c0,-5.8,4.7,-10.4,10.5,-10.4c5.8,0,10.5,4.6,10.5,10.4Z" class="g4_323"/>
<path d="M292.7,616.9c0,5.8,-4.7,10.5,-10.5,10.5c-5.8,0,-10.5,-4.7,-10.5,-10.5c0,-5.8,4.7,-10.5,10.5,-10.5c5.8,0,10.5,4.7,10.5,10.5Z" class="g8_323"/>
<path d="M292.7,616.9c0,5.8,-4.7,10.5,-10.5,10.5c-5.8,0,-10.5,-4.7,-10.5,-10.5c0,-5.8,4.7,-10.5,10.5,-10.5c5.8,0,10.5,4.7,10.5,10.5Z" class="g4_323"/>
<path d="M322.4,616.9c0,5.8,-4.7,10.5,-10.5,10.5c-5.8,0,-10.5,-4.7,-10.5,-10.5c0,-5.8,4.7,-10.5,10.5,-10.5c5.8,0,10.5,4.7,10.5,10.5Z" class="g9_323"/>
<path d="M322.4,616.9c0,5.8,-4.7,10.5,-10.5,10.5c-5.8,0,-10.5,-4.7,-10.5,-10.5c0,-5.8,4.7,-10.5,10.5,-10.5c5.8,0,10.5,4.7,10.5,10.5Z" class="g4_323"/>
<path d="M193.1,523.9v17.7" class="ga_323"/>
<path d="M193.9,543.5c.3,-1.3,.7,-2.1,1.1,-3.1h-3.9c.2,.3,.8,1.8,1.2,3.1c.4,1.3,.7,2.5,.8,3.3c.1,-.8,.4,-2,.8,-3.3Z" class="g1_323"/>
<path d="M222.8,523.9v17.7" class="ga_323"/>
<path d="M223.6,543.5c.3,-1.3,.7,-2.1,1.1,-3.1h-3.9c.2,.3,.8,1.8,1.2,3.1c.4,1.3,.7,2.5,.8,3.3c.1,-.8,.4,-2,.8,-3.3Z" class="g1_323"/>
<path d="M252.5,523.9v17.7" class="ga_323"/>
<path d="M253.3,543.5c.3,-1.3,.7,-2.1,1.1,-3.1h-3.9c.2,.3,.8,1.8,1.2,3.1c.4,1.3,.7,2.5,.8,3.3c.1,-.8,.4,-2,.8,-3.3Z" class="g1_323"/>
<path d="M282.2,523.9v17.7" class="ga_323"/>
<path d="M283,543.5c.3,-1.3,.7,-2.1,1.1,-3.1h-3.9c.2,.3,.8,1.8,1.2,3.1c.4,1.3,.7,2.5,.8,3.3c.1,-.8,.4,-2,.8,-3.3Z" class="g1_323"/>
<path d="M311.9,523.9v17.7" class="ga_323"/>
<path d="M312.7,543.5c.3,-1.3,.7,-2.1,1.1,-3.1H310c.1,.3,.7,1.8,1.1,3.1c.4,1.3,.7,2.5,.8,3.3c.1,-.8,.4,-2,.8,-3.3Z" class="g1_323"/>
<path d="M362.9,523.9v17.7" class="ga_323"/>
<path d="M363.6,543.5c.4,-1.3,.8,-2.1,1.2,-3.1h-3.9c.2,.3,.8,1.8,1.2,3.1c.4,1.3,.6,2.5,.7,3.3c.1,-.8,.4,-2,.8,-3.3Z" class="g1_323"/>
<path d="M282.2,583.5v17.8" class="ga_323"/>
<path d="M283,603.1c.3,-1.3,.7,-2.1,1.1,-3.1h-3.9c.2,.3,.8,1.8,1.2,3.1c.4,1.3,.7,2.6,.8,3.3c.1,-.7,.4,-2,.8,-3.3Z" class="g1_323"/>
<path d="M311.9,583.5v17.8" class="ga_323"/>
<path d="M312.7,603.1c.3,-1.3,.7,-2.1,1.1,-3.1H310c.1,.3,.7,1.8,1.1,3.1c.4,1.3,.7,2.6,.8,3.3c.1,-.7,.4,-2,.8,-3.3Z" class="g1_323"/>
<path d="M362.9,583.5v17.8" class="ga_323"/>
<path d="M363.6,603.1c.4,-1.3,.8,-2.1,1.2,-3.1h-3.9c.2,.3,.8,1.8,1.2,3.1c.4,1.3,.6,2.6,.7,3.3c.1,-.7,.4,-2,.8,-3.3Z" class="g1_323"/>
<path d="M362.9,627.4v-21" class="g2_323"/>
<path d="M283.7,557c0,2.7,-2.1,4.8,-4.8,4.8c-2.6,0,-4.8,-2.1,-4.8,-4.8c0,-2.7,2.2,-4.8,4.8,-4.8c2.7,0,4.8,2.1,4.8,4.8Z" class="gb_323"/>
<path d="M274.9,557h4l-.3,-4m5.1,4c0,2.7,-2.1,4.8,-4.8,4.8c-2.6,0,-4.8,-2.1,-4.8,-4.8c0,-2.7,2.2,-4.8,4.8,-4.8c2.7,0,4.8,2.1,4.8,4.8Z" class="gc_323"/>
<path d="M326.3,564.1H231.6V549.9h94.7v14.2Z" class="gd_323"/>
<path d="M224.5,573.8c0,2.6,-2.1,4.8,-4.8,4.8c-2.7,0,-4.8,-2.2,-4.8,-4.8c0,-2.7,2.1,-4.9,4.8,-4.9c2.7,0,4.8,2.2,4.8,4.9Z" class="gb_323"/>
<path d="M215.7,573.8h4l-.4,-4m5.2,4c0,2.6,-2.1,4.8,-4.8,4.8c-2.7,0,-4.8,-2.2,-4.8,-4.8c0,-2.7,2.1,-4.9,4.8,-4.9c2.7,0,4.8,2.2,4.8,4.9Z" class="gc_323"/>
<path d="M267.1,580.8H172.4V566.7h94.7v14.1Z" class="gd_323"/>
</svg>