<?xml version="1.0" encoding="UTF-8" standalone="no"?>
<!DOCTYPE svg PUBLIC "-//W3C//DTD SVG 1.1//EN"
"http://www.w3.org/Graphics/SVG/1.1/DTD/svg11.dtd">
<svg viewBox="0 0 811 1017" version="1.1" xmlns="http://www.w3.org/2000/svg" xmlns:xlink="http://www.w3.org/1999/xlink">
<defs>
<style type="text/css"><![CDATA[
.g0_509{
fill: #70A6CC;
}
.g1_509{
}
]]></style>
</defs>
<path d="M156.1,181H724.4V159.8H156.1Z" class="g0_509"/>
<path d="M156.1,746.4H724.4V725.3H156.1Z" class="g0_509"/>
<path d="M542.5,893.3v3.2l-.3,-.1l-6.3,-2.9l-.4,-.2l.4,-.2l6.3,-2.9l.3,-.1v.3l-.1,.1l-6.3,3l-.2,-.4h.2l6.3,2.9l-.2,.4l-.1,-.2v-2.9Z" class="g1_509"/>
<path d="M542.1,893.3h.4v-2.9h-.4Z" class="g1_509"/>
<path d="M542.5,893.5h42.7v-.4H542.5Z" class="g1_509"/>
<path d="M584.8,893.3h.4V835.4h-.4Z" class="g1_509"/>
<path d="M550.5,923.8V927l-.3,-.1L544,924l-.4,-.2l.4,-.2l6.2,-2.8l.3,-.1v.3l-.1,.2l-6.3,2.8l-.1,-.4h.1l6.3,3l-.2,.3l-.1,-.1v-3Z" class="g1_509"/>
<path d="M550.1,923.8h.4V921h-.4Z" class="g1_509"/>
<path d="M550.5,924h18.7v-.4H550.5Z" class="g1_509"/>
<path d="M568.8,923.8h.4V899.7h-.4Z" class="g1_509"/>
</svg>