<?xml version="1.0" encoding="UTF-8" standalone="no"?>
<!DOCTYPE svg PUBLIC "-//W3C//DTD SVG 1.1//EN"
"http://www.w3.org/Graphics/SVG/1.1/DTD/svg11.dtd">
<svg viewBox="0 0 907 1045" version="1.1" xmlns="http://www.w3.org/2000/svg" xmlns:xlink="http://www.w3.org/1999/xlink">
<defs>
<clipPath id="c0_367"><path d="M-2.6,1047.7V-2.6H910.2V1047.7Z"/></clipPath>
<style type="text/css"><![CDATA[
.g0_367{
fill: #393939;
}
.g1_367{
fill: none;
stroke: #404040;
stroke-width: 2.898;
stroke-linecap: butt;
stroke-linejoin: miter;
stroke-miterlimit: 4;
}
.g2_367{
fill: #FFFFFF;
}
.g3_367{
fill: none;
stroke: #636363;
stroke-width: 1.527;
stroke-linecap: butt;
stroke-linejoin: miter;
stroke-miterlimit: 4;
}
.g4_367{
fill: none;
stroke: #D7D7D7;
stroke-width: 1.527;
stroke-linecap: butt;
stroke-linejoin: miter;
stroke-miterlimit: 4;
}
.g5_367{
fill: none;
stroke: #FFFFFF;
stroke-width: 1.909;
stroke-linecap: butt;
stroke-linejoin: miter;
}
.g6_367{
fill: none;
stroke: #000000;
stroke-width: 0.381;
stroke-linecap: butt;
stroke-linejoin: miter;
}
]]></style>
</defs>
<path d="M92.8,593.8V912.5H815.7V593.8H92.8Z" class="g0_367"/>
<path d="M92.8,593.8V912.5H815.7V593.8H92.8Z" class="g1_367"/>
<path d="M95,594.7v10.4H813.5V594.7H95Z" class="g2_367"/>
<path d="M98.9,614.6V904H806.8V614.6H98.9Z" class="g0_367"/>
<path d="M595,262c-3.5,1.5,-6.4,3,-9.3,5.4c-1.6,1.3,-2.6,2.5,-3.4,4.4c-.8,1.7,-1.7,3.2,-2.5,4.9c-1.2,2.5,-2.9,4.6,-2.9,7.5c0,1,0,2,.1,3c-.1,-.2,-.2,-.3,-.4,-.4c-.9,-.2,-1.6,-2.1,-1.8,-2.8c-.6,-1.5,-1.2,-2.5,-1.5,-4c-1.7,.1,2.5,6.9,3.3,7.6c.6,-.3,.5,-1.4,.9,-1.9c.4,-.6,1.2,-1,1.9,-1.1m74,-20.6c.3,1.2,2.2,2.4,2.9,3.2c2.3,2.5,4.4,5.9,5.8,8.9c1.2,2.6,1.7,5.5,2,8.3c.4,3,.8,6.1,.6,9.1c-.4,4.1,-1.2,9.1,-2.6,13c-1.3,3.3,-3.9,7.1,-6.7,9.2c-2.4,1.9,-4.8,3,-7.4,4.5c-1.3,.6,-2,1.3,-3.4,1.5c-2,.4,-3.4,1.5,-5.2,2.1c-3.1,1.1,-6.2,.7,-9.4,.9c1.7,-.1,3.7,-1.7,4.7,-2.9c.5,-.5,1.1,-1,1.6,-1.6c-1.6,.7,-2.5,2.6,-3.9,3.6c-.1,0,-3,1.1,-3,1c-.3,.7,1.6,1,1.9,1.2c1.4,.6,2.1,1.6,3.2,2.4m44.9,29.3c-2,-1.5,-5.7,-.9,-8,-.9c-1.6,0,-3.2,0,-4.8,0c-1,0,-2,.3,-1.4,-1c.6,-1.2,3.1,-2.2,4.1,-2.9c1.3,-.7,2.7,-1.7,4.2,-1.9c-1.3,0,-2.9,.8,-4,1.3c-2.1,.9,-4.6,2.4,-5.7,4.4c-1.3,2.3,2,2.5,3.6,2.4M440.6,420.3c1,-.5,1.8,-.6,2.8,-1c1.6,-.8,3.2,-1.7,4.6,-2.8c1.7,-.9,3.1,-2.1,4,-3.8c1.1,-2.7,.1,-7.4,-1.7,-9.6c-2,-2.6,-5.7,-5,-8.7,-6.2c-3.8,-1.5,-8,-2.8,-12.1,-2.9c-2.4,-.1,-4.4,.8,-6.7,1c-1.9,.2,-3.6,-.4,-5.5,-.4c-.8,0,-2.1,.8,-2.5,-.1c1,-.5,1.5,-1.6,2.3,-2.4c1.6,-1.5,4.2,-2.2,6.3,-2.7c-1.3,1,-3.4,1.4,-4.8,2c-1.7,.7,-3.2,1.8,-4.9,2.5c-.5,.2,-1.6,.3,-1.8,.9c1.1,1.1,2.2,1,3.5,1.7c1.7,1,.2,1.6,.3,3.1" class="g3_367"/>
<path d="M648.9,641.7c-4.9,-3.4,-11.6,-3.4,-17.1,-1.5c-2.7,1,-5.6,2.4,-7.9,4.1c-3.3,2.4,-5.3,6.1,-7.2,9.5c-2.1,3.8,-4,9.1,-2.6,13.5c.5,1.3,1,2.7,1.7,3.9c.5,.8,1.3,1.4,1,2.4c-1.2,-.8,-2,-2.2,-2.9,-3.3c-.9,-1.2,-1.9,-1.7,-2.9,-2.6c-.5,-.5,-.9,-.5,-1.1,-1.1c1.1,1.8,3.8,4.3,3.9,6.3c.9,.3,1.4,0,2.2,-.3c2.9,-.9,5.6,-2.4,8.5,-3.4m114.9,78.3c-6.3,-2.5,-13.6,.7,-17.2,6.3c-1.7,2.7,-2.6,5.4,-2.6,8.5c-.1,1.5,1.2,5.2,-.1,6c-2,-2,-5,-2.8,-4.9,-6.3c1.2,2.5,3.7,6.7,6.3,7.6c1.5,-.7,1.3,-3.5,2.8,-4.3c.9,-.6,1.8,-.2,2.8,-.3" class="g4_367"/>
<g clip-path="url(#c0_367)">
<path d="M-4.5,13.7H-27.4m939.5,0H935M-4.5,1031.2H-27.4m939.5,0H935M13.7,-4.5V-27.4m0,1077v22.9m880,-1077V-27.4m0,1077v22.9" class="g5_367"/>
<path d="M-4.5,13.7H-27.4m939.5,0H935M-4.5,1031.2H-27.4m939.5,0H935M13.7,-4.5V-27.4m0,1077v22.9m880,-1077V-27.4m0,1077v22.9" class="g6_367"/>
</g>
</svg>