<?xml version="1.0" encoding="UTF-8" standalone="no"?>
<!DOCTYPE svg PUBLIC "-//W3C//DTD SVG 1.1//EN"
"http://www.w3.org/Graphics/SVG/1.1/DTD/svg11.dtd">
<svg viewBox="0 0 931 1096" version="1.1" xmlns="http://www.w3.org/2000/svg" xmlns:xlink="http://www.w3.org/1999/xlink">
<defs>
<clipPath id="c0_20"><path d="M694.4,176.4V161.2H823.3v15.2Z"/></clipPath>
<clipPath id="c1_20"><path d="M499.7,333.9c-3.4,0,-6.1,-2.7,-6.1,-6.1V211.7c0,-3.4,2.7,-6.1,6.1,-6.1H615.8c3.4,0,6.1,2.7,6.1,6.1V327.8c0,3.4,-2.7,6.1,-6.1,6.1Z"/></clipPath>
<clipPath id="c2_20"><path d="M689.2,333.9c-3.4,0,-6.1,-2.7,-6.1,-6.1V211.7c0,-3.4,2.7,-6.1,6.1,-6.1H805.3c3.4,0,6.1,2.7,6.1,6.1V327.8c0,3.4,-2.7,6.1,-6.1,6.1Z"/></clipPath>
<clipPath id="c3_20"><path d="M499.5,513.4c-3.3,0,-6.1,-2.7,-6.1,-6.1V391.2c0,-3.4,2.8,-6.1,6.1,-6.1H615.6c3.4,0,6.2,2.7,6.2,6.1V507.3c0,3.4,-2.8,6.1,-6.2,6.1Z"/></clipPath>
<clipPath id="c4_20"><path d="M302.1,845.5V829.6H411.5v15.9Z"/></clipPath>
<clipPath id="c5_20"><path d="M98.9,869.9V854.7h155v15.2Z"/></clipPath>
<style type="text/css"><![CDATA[
.g0_20{
fill: none;
stroke: #00AEEF;
stroke-width: 0.763;
stroke-miterlimit: 10;
}
.g1_20{
fill: none;
stroke: #241F1F;
stroke-width: 0.687;
stroke-miterlimit: 10;
}
.g2_20{
fill: none;
stroke: #241F1F;
stroke-width: 0.534;
stroke-miterlimit: 3;
}
.g3_20{
fill: none;
stroke: #00AEEF;
stroke-width: 0.534;
stroke-miterlimit: 3;
}
.g4_20{
fill: none;
stroke: #00AEEF;
stroke-width: 0.763;
stroke-linecap: round;
stroke-linejoin: round;
}
.g5_20{
fill: none;
stroke: #00AEEF;
stroke-width: 0.916;
stroke-linecap: round;
stroke-miterlimit: 3;
}
.g6_20{
fill: none;
stroke: #00AEEF;
stroke-width: 0.763;
stroke-linejoin: round;
}
.g7_20{
fill: none;
stroke: #241F1F;
stroke-width: 0.611;
stroke-miterlimit: 3;
}
.g8_20{
fill: none;
stroke: #241F1F;
stroke-width: 0.481;
stroke-miterlimit: 10;
}
.g9_20{
fill: #00AEEF;
}
]]></style>
</defs>
<path d="M466,547.5H823.5" class="g0_20"/>
<path clip-path="url(#c0_20)" d="M779.1,161.6h44.5" class="g1_20"/>
<path clip-path="url(#c1_20)" d="M557.7,333.9V205.6m-64.2,64.1H621.9" class="g2_20"/>
<path d="M499.7,205.6H615.8c3.4,0,6.1,2.7,6.1,6.1V327.8c0,3.4,-2.7,6.1,-6.1,6.1H499.7c-3.4,0,-6.1,-2.7,-6.1,-6.1V211.7c0,-3.4,2.7,-6.1,6.1,-6.1Z" class="g3_20"/>
<path clip-path="url(#c2_20)" d="M747.1,333.9V205.6M683,269.7H811.3" class="g2_20"/>
<path d="M689.2,205.6H805.3c3.4,0,6.1,2.7,6.1,6.1V327.8c0,3.4,-2.7,6.1,-6.1,6.1H689.2c-3.4,0,-6.1,-2.7,-6.1,-6.1V211.7c0,-3.4,2.7,-6.1,6.1,-6.1Zm0,179.7H805.3c3.4,0,6.1,2.7,6.1,6.1V507.5c0,3.4,-2.7,6.1,-6.1,6.1H689.2c-3.4,0,-6.1,-2.7,-6.1,-6.1V391.4c0,-3.4,2.7,-6.1,6.1,-6.1Z" class="g3_20"/>
<path d="M747.1,513.6V385.3M683,449.4H811.3" class="g2_20"/>
<path d="M496,262.9l8.1,.9m0,0l-1.9,.8m0,0l.2,-2m0,0l1.7,1.2m2.4,-1.3l12.7,1.8m0,0l-3,1.2m0,0l.5,-3.2m0,0l2.5,2m2.4,-1.7l8.1,1.6m0,0l-1.9,.6m0,0l.3,-2m0,0l1.6,1.4m9.8,-.5l-2,-.7m0,0l.5,-.1m0,0l-.2,.6m0,0l-.3,-.5m17.4,4l-7.3,-7.3m0,0l2.5,.7m0,0l-1.8,1.8m0,0l-.7,-2.5m12.8,7.3l7.3,-7.3m0,0l-.6,2.5m0,0l-1.8,-1.8m0,0l2.4,-.7m8.2,4l2,-.7m0,0l-.4,.5m0,0l-.1,-.6m0,0l.5,.1m15.8,-.4l-8,1.6m0,0l1.5,-1.4m0,0l.4,2m0,0l-1.9,-.6m23.1,-1.7l-12.6,1.8m0,0l2.5,-2m0,0l.4,3.2m0,0l-2.9,-1.2m23.1,-1.4l-8,.9m0,0l1.6,-1.2m0,0l.2,2m0,0l-1.8,-.8M497.1,249.6l5.8,1.9m0,0l-1.5,.3m0,0l.5,-1.4m0,0l1,1.1m4.2,-3.4l11.5,4.9m0,0l-3.1,.4m0,0l1.2,-2.9m0,0l1.9,2.5m2.4,-5.2l9.4,5.6m0,0h-2.8m0,0L529,251m0,0l1.4,2.4m6.7,-4.2l2.8,2.8m0,0l-1,-.3m0,0l.7,-.7m0,0l.3,1m11.7,-.4l-.7,-2m0,0l.4,.3m0,0l-.5,.2m0,0l.1,-.5m12.9,2l.6,-2m0,0l.1,.5m0,0l-.5,-.2m0,0l.4,-.3m13.9,-.4l-2.8,2.8m0,0l.2,-1m0,0l.8,.7m0,0l-1,.3m18.9,-4.2l-9.4,5.6m0,0l1.3,-2.4m0,0l1.5,2.4m0,0H585m23.2,-5.3L596.8,253m0,0l1.9,-2.5m0,0l1.2,2.9m0,0l-3.1,-.4m21.4,-3.4l-5.8,1.9m0,0l1,-1.1m0,0l.5,1.4m0,0l-1.5,-.3M499.3,237.3l1.5,.9m0,0h-.5m0,0l.3,-.4m0,0l.2,.4m8,-3.3l8.1,5.7m0,0l-2.5,-.2m0,0l1.5,-2m0,0l1,2.2m4.2,-7.4l9.1,9.1m0,0l-3.1,-.8m0,0l2.3,-2.3m0,0l.8,3.1m5.4,-9.2l5.7,9.3m0,0l-2.4,-1.3m0,0l2.3,-1.4m0,0l.1,2.7m9.2,-8.7l1.6,8.1m0,0l-1.4,-1.5m0,0l2.1,-.5m0,0l-.7,2m12.8,-8.1l-1.6,8.1m0,0l-.7,-2m0,0l2,.5m0,0l-1.3,1.5m16.4,-8.7l-5.6,9.3m0,0v-2.7m0,0l2.4,1.4m0,0l-2.4,1.3m20.1,-9.2l-9,9.1m0,0l.8,-3.1m0,0l2.3,2.3m0,0l-3.1,.8m21.3,-7.4l-8,5.7m0,0l1,-2.2m0,0l1.4,2m0,0l-2.4,.2m17.6,-3.3l-1.6,.9m0,0l.3,-.4m0,0l.2,.4m0,0h-.5M501.8,226.3l-3.5,-2.7m0,0l1.1,.1m0,0l-.7,.9m0,0l-.4,-1m13.2,0l2.8,2.7m0,0l-1,-.2m0,0l.7,-.7m0,0l.3,.9m8.5,-5.4l5.8,8.1m0,0l-2.3,-1m0,0l2,-1.5m0,0l.3,2.5m7.4,-9.8l4.9,11.5m0,0l-2.5,-1.9m0,0l2.9,-1.2m0,0l-.4,3.1m9.5,-12.1l1.8,12.7m0,0l-2,-2.5m0,0l3.2,-.5m0,0l-1.2,3M565,218.6l-1.8,12.7m0,0l-1.2,-3m0,0l3.2,.5m0,0l-2,2.5m16.1,-12.1l-4.9,11.5m0,0l-.3,-3.1m0,0l2.8,1.2m0,0l-2.5,1.9m18.2,-9.8l-5.8,8.1m0,0l.2,-2.5m0,0l2.1,1.5m0,0l-2.3,1m17.1,-5.4l-2.8,2.7m0,0l.2,-.9m0,0l.8,.7m0,0l-1,.2m12.4,0l3.6,-2.7m0,0l-.4,1m0,0l-.7,-.9m0,0l1.1,-.1M503.7,215.8l-7.3,-7.3m0,0l2.5,.6m0,0L497,211m0,0l-.6,-2.5m17.8,5.4l-2.7,-3.5m0,0l1,.4m0,0l-.9,.7m0,0l-.1,-1.1m13.8,1l.8,1.5m0,0l-.4,-.2m0,0l.4,-.2m0,0v.4m11.4,-3.6l1.9,5.7m0,0l-1.1,-1m0,0l1.4,-.5m0,0l-.3,1.5m11.4,-6.9l.9,8.1m0,0l-1.2,-1.6m0,0l2.1,-.3m0,0l-.9,1.9m12.8,-8.1l-.9,8.1m0,0l-.8,-1.9m0,0l2,.3m0,0l-1.2,1.6m14.3,-6.9l-2,5.7m0,0l-.3,-1.5m0,0l1.5,.5m0,0l-1.2,1m14.2,-3.6l-.8,1.5m0,0l-.1,-.4m0,0l.4,.2m0,0l-.3,.2m11.8,1l2.8,-3.5m0,0l-.2,1.1m0,0l-.9,-.7m0,0l1.1,-.4m7.7,5.4l7.4,-7.3m0,0l-.7,2.5m0,0l-1.8,-1.9m0,0l2.5,-.6M503.7,323.7l-7.3,7.4m0,0l.6,-2.5m0,0l1.9,1.8m0,0l-2.5,.7m17.8,-5.4l-2.7,3.5m0,0l.1,-1.1m0,0l.9,.6m0,0l-1,.5m13.8,-1l.8,-1.5m0,0v.4m0,0l-.4,-.2m0,0l.4,-.2m11.4,3.6l1.9,-5.8m0,0l.3,1.5m0,0l-1.4,-.5m0,0l1.1,-1m11.4,7l.9,-8.1m0,0l.9,1.8m0,0l-2.1,-.2m0,0l1.2,-1.6m12.8,8.1l-.9,-8.1m0,0l1.2,1.6m0,0l-2,.2m0,0l.8,-1.8m14.3,6.9l-2,-5.8m0,0l1.2,1m0,0l-1.5,.5m0,0l.3,-1.5m14.2,3.7l-.8,-1.5m0,0l.3,.2m0,0l-.4,.2m0,0l.1,-.4m11.8,-1l2.8,3.5m0,0l-1.1,-.5m0,0l.9,-.6m0,0l.2,1.1m7.7,-5.5l7.4,7.4m0,0l-2.5,-.7m0,0l1.8,-1.8m0,0l.7,2.5M501.8,313.2l-3.5,2.8m0,0l.4,-1m0,0l.7,.8m0,0l-1.1,.2m13.2,0l2.8,-2.8m0,0l-.3,1m0,0l-.7,-.7m0,0l1,-.3m8.5,5.5l5.8,-8.1m0,0l-.3,2.4m0,0l-2,-1.4m0,0l2.3,-1m7.4,9.7l4.9,-11.4m0,0l.4,3.1m0,0l-2.9,-1.3m0,0l2.5,-1.8m9.5,12l1.8,-12.6m0,0l1.2,2.9m0,0l-3.2,-.4m0,0l2,-2.5M565,320.9l-1.8,-12.6m0,0l2,2.5m0,0l-3.2,.4m0,0l1.2,-2.9m16.1,12l-4.9,-11.4m0,0l2.5,1.8m0,0l-2.8,1.3m0,0l.3,-3.1m18.2,9.8l-5.8,-8.1m0,0l2.3,1m0,0L587,313m0,0l-.2,-2.4m17.1,5.4l-2.8,-2.8m0,0l1,.3m0,0l-.8,.7m0,0l-.2,-1m12.4,0l3.6,2.8m0,0l-1.1,-.2m0,0l.7,-.8m0,0l.4,1M499.3,302.2l1.5,-.8m0,0l-.2,.4m0,0l-.3,-.4m0,0h.5m8,3.3l8.1,-5.8m0,0l-1,2.3m0,0l-1.5,-2m0,0l2.5,-.3m4.2,7.4l9.1,-9m0,0l-.8,3.1m0,0l-2.3,-2.3m0,0l3.1,-.8m5.4,9.2l5.7,-9.4m0,0l-.1,2.7m0,0l-2.3,-1.3m0,0l2.4,-1.4m9.2,8.7l1.6,-8m0,0l.7,1.9m0,0l-2.1,-.4m0,0l1.4,-1.5m12.8,8l-1.6,-8m0,0l1.3,1.5m0,0l-2,.4m0,0l.7,-1.9m16.4,8.7l-5.6,-9.4m0,0l2.4,1.4m0,0l-2.4,1.3m0,0v-2.7m20.1,9.2l-9,-9m0,0l3.1,.8m0,0l-2.3,2.3m0,0l-.8,-3.1m21.3,7.4l-8,-5.8m0,0l2.4,.3m0,0l-1.4,2m0,0l-1,-2.3m17.6,3.3l-1.6,-.8m0,0h.5m0,0l-.2,.4m0,0l-.3,-.4M497.1,290l5.8,-2m0,0l-1,1.2m0,0l-.5,-1.5m0,0l1.5,.3m4.2,3.4l11.5,-4.9m0,0l-1.9,2.5m0,0l-1.2,-2.8m0,0l3.1,.3m2.4,5.3l9.4,-5.6m0,0l-1.4,2.4m0,0l-1.4,-2.4m0,0h2.8m6.7,4.2l2.8,-2.8m0,0l-.3,.9m0,0l-.7,-.7m0,0l1,-.2m11.7,.4l-.7,2m0,0l-.1,-.5m0,0l.5,.1m0,0l-.4,.4m12.9,-2l.6,2m0,0l-.4,-.4m0,0l.5,-.1m0,0l-.1,.5m13.9,.4l-2.8,-2.8m0,0l1,.2m0,0l-.8,.7m0,0l-.2,-.9m18.9,4.2L585,286.2m0,0h2.8m0,0l-1.5,2.4m0,0L585,286.2m23.2,5.2l-11.4,-4.9m0,0l3.1,-.3m0,0l-1.2,2.8m0,0l-1.9,-2.5m21.4,3.5l-5.8,-2m0,0l1.5,-.3m0,0l-.5,1.5m0,0l-1,-1.2M496,276.6l8.1,-.9m0,0l-1.7,1.2m0,0l-.2,-2m0,0l1.9,.8m2.4,1.4l12.7,-1.8m0,0l-2.5,1.9m0,0l-.5,-3.1m0,0l3,1.2m2.4,1.7l8.1,-1.6m0,0l-1.6,1.3m0,0l-.3,-2m0,0l1.9,.7m9.8,.4l-2,.7m0,0l.3,-.4m0,0l.2,.5m0,0l-.5,-.1m17.4,-4l-7.3,7.3m0,0l.7,-2.5m0,0l1.8,1.9m0,0l-2.5,.6m12.8,-7.3l7.3,7.3m0,0l-2.4,-.6m0,0l1.8,-1.9m0,0l.6,2.5m8.2,-4l2,.7m0,0l-.5,.1m0,0l.1,-.5m0,0l.4,.4m15.8,.5l-8,-1.6m0,0l1.9,-.7m0,0l-.4,2m0,0l-1.5,-1.3m23.1,1.7l-12.6,-1.8m0,0l2.9,-1.2m0,0l-.4,3.1m0,0l-2.5,-1.9m23.1,1.3l-8,-.9m0,0l1.8,-.8m0,0l-.2,2m0,0l-1.6,-1.2m155.4,-.1l-.1,.4m0,0l-.3,-.3m0,0l.4,-.1m11.2,1.5l2,-2m0,0l-.2,.7m0,0l-.5,-.5m0,0l.7,-.2m10.2,2.5l3,-3m0,0l-.3,1.1m0,0l-.7,-.8m0,0l1,-.3m9.2,3.5l4,-4m0,0l-.4,1.4m0,0l-1,-1m0,0l1.4,-.4M691.9,261.4l-4,4m0,0l.4,-1.3m0,0l1,1m0,0l-1.4,.3m16.2,-3.5l-2.9,3m0,0l.2,-1m0,0l.8,.7m0,0l-1,.3m15.2,-2.5l-2.1,2m0,0l.2,-.7m0,0l.5,.6m0,0l-.7,.1m14.3,-1.5l-1,1m0,0l.1,-.3m0,0l.2,.2m0,0l-.3,.1m13.2,-.5v0m12.2,.5l1,-1m0,0l-.1,.4m0,0l-.3,-.3m0,0l.4,-.1m11.2,1.5l2,-2m0,0l-.2,.7m0,0l-.5,-.5m0,0l.7,-.2m10.2,2.5l3,-3m0,0l-.3,1m0,0l-.7,-.7m0,0l1,-.3m9.2,3.5l4,-4m0,0l-.4,1.4m0,0l-1,-1m0,0l1.4,-.4m8.2,4.5l5,-5m0,0l-.4,1.8m0,0l-1.3,-1.3m0,0l1.7,-.5M691.4,249.2l-3,3m0,0l.3,-1m0,0l.8,.7m0,0l-1.1,.3m15.3,-2.5l-2.1,2m0,0l.2,-.7m0,0l.5,.5m0,0l-.7,.2m14.3,-1.5l-1.1,1m0,0l.2,-.3m0,0l.2,.2m0,0l-.4,.1m13.3,-.5v0m12.2,.5l1,-1m0,0l-.1,.4m0,0l-.3,-.3m0,0l.4,-.1m11.2,1.5l2,-2m0,0l-.2,.7m0,0l-.5,-.5m0,0l.7,-.2m10.2,2.5l3,-3m0,0l-.3,1m0,0l-.7,-.7m0,0l1,-.3m9.2,3.5l4,-4m0,0l-.4,1.4m0,0l-1,-1m0,0l1.4,-.4m8.2,4.5l5,-5m0,0l-.5,1.7m0,0l-1.2,-1.2m0,0l1.7,-.5m7.2,5.5l6,-6m0,0l-.6,2.1m0,0l-1.4,-1.5m0,0l2,-.6M691,237l-2.1,2m0,0l.2,-.7m0,0l.5,.5m0,0l-.7,.2m14.2,-1.5l-.9,1m0,0v-.3m0,0l.3,.2m0,0l-.3,.1m13.2,-.5v0m12.2,.5l1,-1m0,0l-.1,.3m0,0l-.3,-.2m0,0l.4,-.1m11.2,1.5l2,-2m0,0l-.2,.7m0,0l-.5,-.5m0,0l.7,-.2m10.2,2.5l3,-3m0,0l-.3,1m0,0l-.7,-.7m0,0l1,-.3m9.2,3.5l4,-4m0,0l-.4,1.4m0,0l-1,-1m0,0l1.4,-.4m8.2,4.5l5,-5m0,0l-.5,1.7m0,0L779.7,236m0,0l1.7,-.5m7.2,5.5l6,-6m0,0l-.6,2.1m0,0l-1.4,-1.5m0,0l2,-.6m6.2,6.5l7,-7m0,0l-.6,2.4m0,0l-1.8,-1.7m0,0l2.4,-.7M690.4,224.8l-1,1m0,0l.1,-.3m0,0l.3,.2m0,0l-.4,.1m13.2,-.5v0m12.2,.5l1.1,-1m0,0l-.2,.3m0,0l-.2,-.2m0,0l.4,-.1m11.2,1.5l2,-2m0,0l-.2,.7m0,0l-.5,-.5m0,0l.7,-.2m10.2,2.5l3,-3m0,0l-.3,1m0,0l-.8,-.7m0,0l1.1,-.3m9.2,3.5l4,-4m0,0l-.4,1.4m0,0l-1,-1m0,0l1.4,-.4m8.2,4.5l5,-5m0,0l-.5,1.7m0,0L767,223.3m0,0l1.7,-.5m7.2,5.5l6,-6m0,0l-.6,2m0,0l-1.5,-1.4m0,0l2.1,-.6m6.2,6.5l7,-7m0,0l-.6,2.4m0,0l-1.8,-1.8m0,0l2.4,-.6m5.2,7.5l8,-8m0,0l-.7,2.7m0,0l-2,-2m0,0l2.7,-.7M689.9,212.6v0m12.3,.5l.9,-1m0,0v.3m0,0l-.3,-.2m0,0l.3,-.1m11.2,1.5l2.1,-2m0,0l-.2,.7m0,0l-.5,-.5m0,0l.7,-.2m10.2,2.5l2.9,-3m0,0l-.2,1m0,0l-.8,-.7m0,0l1,-.3m9.3,3.5l4,-4m0,0l-.4,1.4m0,0l-1,-1m0,0l1.4,-.4m8.2,4.5l5,-5m0,0l-.5,1.7m0,0l-1.3,-1.3m0,0l1.8,-.4m7.2,5.5l6,-6m0,0l-.6,2m0,0l-1.5,-1.4m0,0l2.1,-.6m6.2,6.5l7,-7m0,0l-.7,2.4m0,0L780,209.7m0,0l2.4,-.6m5.2,7.5l8,-8m0,0l-.7,2.8m0,0l-2,-2.1m0,0l2.7,-.7m4.2,8.5l9,-9m0,0l-.8,3.1m0,0l-2.3,-2.3m0,0l3.1,-.8M694.4,322.5l-9,9m0,0l.9,-3.1m0,0l2.2,2.2m0,0l-3.1,.9M706.6,323l-7.9,8m0,0l.7,-2.8m0,0l2,2m0,0l-2.7,.8m20.1,-7.5l-6.9,6.9m0,0l.6,-2.3m0,0l1.8,1.7m0,0l-2.4,.6M731.1,324l-6,6m0,0l.5,-2.1m0,0l1.5,1.5m0,0l-2,.6m18.1,-5.5l-4.9,4.9m0,0l.4,-1.7m0,0L740,329m0,0l-1.7,.4M755.5,325l-4,4m0,0l.4,-1.4m0,0l.9,1m0,0l-1.3,.4m16.2,-3.5l-3,3m0,0l.3,-1.1m0,0l.7,.8m0,0l-1,.3M779.9,326l-2,2m0,0l.2,-.7m0,0l.5,.5m0,0l-.7,.2m14.2,-1.5l-1,1m0,0l.1,-.4m0,0l.2,.3m0,0l-.3,.1m13.2,-.5v0M693.9,310.3l-8,8m0,0l.8,-2.8m0,0l2,2m0,0l-2.8,.8m20.2,-7.5l-6.9,6.9m0,0l.6,-2.3m0,0l1.7,1.7m0,0l-2.3,.6m19.1,-6.4l-5.9,6m0,0l.5,-2.1m0,0l1.5,1.5m0,0l-2,.6m18.1,-5.5l-4.9,4.9m0,0L726,315m0,0l1.3,1.3m0,0l-1.7,.4m17.2,-4.5l-4,4.1m0,0l.3,-1.4m0,0l1,1m0,0l-1.3,.4M755,312.8l-3,2.9m0,0l.3,-1m0,0l.7,.8m0,0l-1,.2m15.2,-2.5l-2,2.1m0,0l.2,-.7m0,0l.5,.5m0,0l-.7,.2m14.2,-1.5l-1,1m0,0l.1,-.4m0,0l.2,.3m0,0l-.3,.1m13.2,-.5v0m12.2,.5l1,-1m0,0l-.1,.3m0,0l-.2,-.2m0,0l.3,-.1M693.4,298.1l-6.9,6.9m0,0l.6,-2.3m0,0l1.7,1.7m0,0l-2.3,.6m19.1,-6.4l-6,5.9m0,0l.6,-2m0,0l1.5,1.5m0,0l-2.1,.5m18.2,-5.4l-4.9,4.9m0,0l.4,-1.7m0,0l1.3,1.3m0,0l-1.7,.4m17.2,-4.4l-4.1,4m0,0l.4,-1.4m0,0l1,1m0,0l-1.4,.4m16.3,-3.5l-3,2.9m0,0l.3,-1m0,0l.7,.8m0,0l-1,.2m15.2,-2.5l-2,2.1m0,0l.1,-.7m0,0l.6,.5m0,0l-.7,.2M766.7,301l-1,1.1m0,0l.1,-.4m0,0l.2,.2m0,0l-.3,.2m13.2,-.6v0m12.2,.6l1,-1.1m0,0l-.1,.4m0,0l-.2,-.2m0,0l.3,-.2m11.2,1.6l2,-2.1m0,0l-.2,.7m0,0l-.5,-.5m0,0l.7,-.2M692.9,285.8l-6,6.1m0,0l.6,-2.1m0,0l1.5,1.5m0,0l-2.1,.6m18.2,-5.5l-4.9,4.9m0,0l.4,-1.7m0,0l1.3,1.3m0,0l-1.7,.4m17.2,-4.5l-4,4m0,0l.3,-1.3m0,0l1,1m0,0l-1.3,.3m16.1,-3.4l-2.9,2.9m0,0l.2,-1m0,0l.8,.8m0,0l-1,.2m15.2,-2.5l-2,2m0,0l.1,-.7m0,0l.6,.6m0,0l-.7,.1M754,288.4l-1,.9m0,0l.1,-.3m0,0l.2,.3m0,0H753m13.2,-.5v0m12.2,.5l1,-.9m0,0l-.1,.3m0,0l-.3,-.3m0,0h.4m11.2,1.4l2,-2m0,0l-.2,.7m0,0l-.5,-.5m0,0l.7,-.2m10.2,2.5l3,-2.9m0,0l-.3,1m0,0l-.7,-.8m0,0l1,-.2M692.4,273.7l-4.9,4.9m0,0l.4,-1.7m0,0l1.2,1.3m0,0l-1.6,.4m17.1,-4.5l-4,4m0,0l.4,-1.3m0,0l1,1m0,0l-1.4,.3m16.2,-3.5l-2.9,3m0,0l.2,-1m0,0l.8,.7m0,0l-1,.3m15.2,-2.5l-2,2m0,0l.1,-.6m0,0l.6,.5m0,0l-.7,.1m14.2,-1.5l-1,1m0,0l.1,-.3m0,0l.2,.2m0,0l-.3,.1m13.2,-.5v0m12.2,.5l1,-1M695,440.8l-7.4,4.2m0,0l1.2,-1.9m0,0l.9,2m0,0l-2.1,-.1m19,-3.7l-5.7,3.2m0,0l.8,-1.4m0,0l.8,1.5m0,0l-1.6,-.1m17.2,-2.8l-3.9,2.3m0,0l.5,-1m0,0l.6,1.1m0,0l-1.1,-.1m15.4,-1.8l-2.2,1.4m0,0l.4,-.6m0,0l.3,.6m0,0h-.7m13.8,-.9l-.5,.4m0,0l.1,-.1m0,0l.1,.1m0,0h-.2m12,0l1.3,-.4m0,0l-.3,.2m0,0l-.1,-.3m0,0l.4,.1m10.2,.9l3,-1.4m0,0l-.5,.7m0,0l-.3,-.8m0,0l.8,.1m8.5,1.8l4.8,-2.3m0,0l-.8,1.2m0,0l-.5,-1.3m0,0l1.3,.1m6.7,2.8l6.6,-3.2m0,0l-1.1,1.6m0,0l-.7,-1.8m0,0l1.8,.2m5,3.7l8.2,-4.2m0,0l-1.3,2m0,0l-.9,-2.2m0,0l2.2,.2M694.6,427.7l-6.5,4.2m0,0l.9,-1.8m0,0l1,1.7m0,0l-1.9,.1m18,-3.7l-4.8,3.2m0,0l.7,-1.3m0,0l.7,1.3m0,0h-1.4m16.3,-2.7l-3,2.3m0,0l.4,-.9m0,0l.5,.8m0,0l-.9,.1m14.6,-1.9l-1.3,1.4m0,0l.1,-.5m0,0l.3,.4m0,0l-.4,.1m12.8,-.9l.5,.4m0,0H741m0,0l.1,-.1m0,0l.1,.1m11,0l2.2,-.4m0,0l-.4,.4m0,0l-.1,-.6m0,0l.5,.2m9.4,.9l3.9,-1.4m0,0l-.7,.8m0,0l-.3,-1m0,0l1,.2m7.6,1.9l5.7,-2.3m0,0l-1,1.2m0,0l-.6,-1.5m0,0l1.6,.3m5.8,2.7l7.4,-3.2m0,0l-1.2,1.7m0,0l-.8,-2m0,0l2,.3m4.1,3.7l9.2,-4.2m0,0l-1.5,2.1m0,0l-1,-2.4m0,0l2.5,.3M694.2,414.6l-5.7,4.2m0,0l.7,-1.7m0,0l1,1.5m0,0l-1.7,.2m17.2,-3.7l-3.9,3.2m0,0l.5,-1.2m0,0l.7,1m0,0l-1.2,.2m15.4,-2.7l-2.2,2.2m0,0l.2,-.7m0,0l.6,.6m0,0l-.8,.1M728.7,416l-.4,1.4m0,0l-.1,-.3m0,0l.4,.1m0,0l-.3,.2m12,-.9l1.3,.4m0,0l-.4,.1m0,0l.2,-.3m0,0l.2,.2m10.2,0l3,-.4m0,0l-.6,.5m0,0l-.1,-.8m0,0l.7,.3m8.5,.9l4.8,-1.4m0,0l-.9,.9m0,0l-.3,-1.2m0,0l1.2,.3m6.7,1.8l6.6,-2.2m0,0l-1.2,1.3m0,0l-.5,-1.7m0,0l1.7,.4m5,2.7l8.2,-3.2m0,0l-1.3,1.8m0,0l-.8,-2.2m0,0l2.1,.4m3.3,3.7l10,-4.2m0,0l-1.7,2.3m0,0l-1,-2.7m0,0l2.7,.4m-114.2,-13l-4.8,4.1m0,0l.6,-1.5m0,0l1,1.2m0,0l-1.6,.3M705.3,402l-3.1,3.2m0,0l.3,-1.1m0,0l.8,.8m0,0l-1.1,.3m14.6,-2.8l-1.3,2.4m0,0v-.7m0,0l.5,.3m0,0l-.5,.4m12.8,-1.9l.4,1.4m0,0l-.2,-.2m0,0l.3,-.1m0,0l-.1,.3m11.1,-.9l2.2,.4m0,0l-.5,.2m0,0l.1,-.6m0,0l.4,.4m9.3,0l4,-.4m0,0l-.8,.6m0,0l-.1,-1m0,0l.9,.4m7.6,.9l5.6,-1.4m0,0l-1,1.1m0,0l-.3,-1.5m0,0l1.3,.4m5.9,1.9l7.4,-2.4m0,0l-1.3,1.5m0,0l-.6,-1.9m0,0l1.9,.4m4.1,2.8l9.2,-3.2m0,0l-1.6,1.9m0,0l-.8,-2.4m0,0l2.4,.5m2.4,3.7l10.8,-4.1m0,0l-1.8,2.3m0,0l-1,-2.9m0,0l2.8,.6m-115,-13.2l-3.9,4.2m0,0l.3,-1.4m0,0l1,1m0,0l-1.3,.4m15.4,-3.7l-2.1,3.2m0,0v-1m0,0l.8,.6m0,0l-.8,.4m13.6,-2.7l-.4,2.3m0,0l-.2,-.6m0,0l.6,.1m0,0l-.4,.5m12,-1.9l1.3,1.4m0,0l-.5,-.1m0,0l.4,-.4m0,0l.1,.5m10.2,-.9l3.1,.4m0,0l-.8,.4m0,0l.1,-.9m0,0l.7,.5m8.4,0l4.8,-.4m0,0l-1,.7m0,0l-.1,-1.2m0,0l1.1,.5m6.8,.9l6.5,-1.4m0,0l-1.3,1.2m0,0l-.3,-1.7m0,0l1.6,.5m5,1.9l8.3,-2.3m0,0l-1.6,1.6m0,0l-.5,-2.2m0,0l2.1,.6m3.2,2.7l10,-3.2m0,0l-1.8,2m0,0l-.7,-2.6m0,0l2.5,.6m1.5,3.7l11.8,-4.2m0,0l-2.1,2.5m0,0l-.9,-3.1m0,0l3,.6M697.2,506.3l-11.7,4.1m0,0l2,-2.4m0,0l1,3.1m0,0l-3,-.7m23.3,-3.6L698.7,510m0,0l1.8,-2m0,0l.8,2.6m0,0l-2.6,-.6m21.6,-2.8l-8.3,2.3m0,0l1.5,-1.5m0,0l.6,2.1m0,0l-2.1,-.6m19.8,-1.8l-6.5,1.4m0,0l1.2,-1.2m0,0l.4,1.8m0,0l-1.6,-.6m18,-1l-4.8,.5m0,0l1,-.7m0,0l.1,1.2m0,0l-1.1,-.5m16.3,0l-3,-.5m0,0l.7,-.3m0,0l-.1,.9m0,0l-.6,-.6m14.6,1l-1.3,-1.4m0,0l.4,.1m0,0l-.3,.4m0,0l-.1,-.5m12.8,1.8l.4,-2.3m0,0l.2,.6m0,0l-.5,-.1m0,0l.3,-.5m11.1,2.8l2.2,-3.2m0,0l-.1,1m0,0l-.8,-.6m0,0l.9,-.4m9.3,3.6l4,-4.1m0,0l-.4,1.4m0,0l-1,-1m0,0l1.4,-.4M696.8,493.2l-10.9,4.2m0,0l1.9,-2.4m0,0l1,2.9m0,0l-2.9,-.5m22.4,-3.7l-9.1,3.2m0,0l1.6,-1.9m0,0l.7,2.4m0,0l-2.3,-.5m20.6,-2.8l-7.4,2.3m0,0l1.4,-1.4m0,0l.5,1.9m0,0l-1.9,-.5m18.9,-1.8l-5.6,1.4m0,0l1.1,-1.1m0,0l.3,1.5m0,0l-1.4,-.4m17.2,-.9l-3.9,.4m0,0l.8,-.6m0,0l.1,1m0,0l-.9,-.4m15.4,0l-2.2,-.4m0,0l.6,-.2m0,0l-.1,.5m0,0l-.5,-.3m13.7,.9l-.4,-1.4m0,0l.2,.2m0,0l-.3,.2m0,0l.1,-.4m12,1.8l1.3,-2.3m0,0v.7m0,0l-.6,-.3m0,0l.6,-.4m10.2,2.8l3,-3.2m0,0l-.2,1.1m0,0L791,494m0,0l1,-.3m8.5,3.7l4.8,-4.2m0,0l-.5,1.5m0,0l-1,-1.2m0,0l1.5,-.3m-109,-13.1l-10,4.2m0,0L688,482m0,0l1,2.7m0,0l-2.7,-.4m21.6,-3.7l-8.3,3.2m0,0L701,482m0,0l.8,2.2m0,0l-2.2,-.4M719.4,481l-6.6,2.3m0,0L714,482m0,0l.6,1.7m0,0l-1.8,-.4m18.1,-1.8l-4.8,1.4m0,0l.9,-1m0,0l.3,1.3m0,0l-1.2,-.3m16.4,-.9l-3.1,.4m0,0l.6,-.5m0,0l.1,.8m0,0l-.7,-.3m14.6,0l-1.3,-.4m0,0l.3,-.1m0,0l-.1,.3m0,0l-.2,-.2m12.8,.9l.4,-1.4m0,0l.1,.4m0,0l-.3,-.2m0,0l.2,-.2m11.1,1.8l2.2,-2.3m0,0l-.2,.8m0,0l-.5,-.5m0,0l.7,-.3m9.3,2.8l4,-3.2m0,0l-.5,1.2m0,0l-.7,-1.1m0,0l1.2,-.1m7.6,3.7l5.6,-4.2m0,0l-.7,1.7m0,0l-1,-1.5m0,0l1.7,-.2M695.9,467l-9.1,4.2m0,0l1.5,-2.1m0,0l.9,2.4m0,0l-2.4,-.3m20.7,-3.7l-7.5,3.2m0,0l1.3,-1.7m0,0l.7,2m0,0l-2,-.3M719,468l-5.7,2.3m0,0l1,-1.3m0,0l.5,1.5m0,0l-1.5,-.2m17.2,-1.9l-3.9,1.4m0,0l.6,-.8m0,0l.4,1m0,0l-1,-.2m15.4,-.9l-2.2,.4m0,0l.4,-.3m0,0l.2,.5m0,0l-.6,-.2m13.7,0l-.4,-.4m0,0h.2m0,0l-.2,.1m0,0v-.1m12,.9l1.3,-1.4m0,0l-.1,.5m0,0l-.4,-.4m0,0l.5,-.1m10.2,1.9l3,-2.3m0,0l-.3,.8m0,0l-.6,-.8m0,0h.9m8.5,2.7l4.8,-3.2m0,0l-.7,1.3m0,0l-.7,-1.2m0,0l1.4,-.1m6.7,3.7l6.6,-4.2m0,0l-1,1.8m0,0l-.9,-1.7m0,0l1.9,-.1M695.5,453.9l-8.3,4.2m0,0l1.3,-2m0,0l1,2.2m0,0l-2.3,-.2M707,454.4l-6.5,3.2m0,0l1,-1.5m0,0l.8,1.7m0,0l-1.8,-.2m18,-2.7l-4.8,2.2m0,0l.8,-1.1m0,0l.5,1.3m0,0l-1.3,-.2M730,455.3l-3,1.4m0,0l.5,-.7m0,0l.3,.8m0,0l-.8,-.1m14.6,-.9l-1.3,.4m0,0l.2,-.3m0,0l.1,.4m0,0l-.3,-.1m12.8,0l.4,-.4m0,0v.1m0,0l-.1,-.1m0,0h.1m11.1,.9l2.2,-1.4m0,0l-.3,.6m0,0l-.3,-.6m0,0h.6m9.4,1.8l3.9,-2.2m0,0l-.6,1m0,0l-.5,-1.1m0,0l1.1,.1m7.6,2.7l5.6,-3.2m0,0l-.8,1.4m0,0l-.8,-1.5m0,0l1.6,.1m5.9,3.7l7.4,-4.2m0,0l-1.1,1.9m0,0l-1,-2m0,0l2.1,.1" class="g4_20"/>
<g clip-path="url(#c3_20)">
<path d="M557.5,513.4V385.1m-64.2,64.1H621.7" class="g2_20"/>
<path d="M514,407.6l-.6,-2.6m2.6,.8l-2,1.8m-.6,-2.6l2.6,.8m5.6,7.3L513.4,405m-16.3,3.2L495.7,405m3.5,.3l-2.1,2.9M495.7,405l3.5,.3m7.8,7.8L495.7,405m120.5,17.1l3.2,.6m-2.1,2.4l-1.1,-3m3.2,.6l-2.1,2.4m-9.3,2.3l11.4,-4.7m-20.1,0h2.3m-1.2,2.1l-1.1,-2.1m2.3,0l-1.2,2.1m-6.9,2.6l8.1,-4.7m-19.2,.3l1.5,-.3m-.3,1.5L582.4,423m1.5,-.3l-.3,1.5m-4.4,3.2l4.7,-4.7m-18.7,.9l1.2,-.9m.3,1.2l-1.5,-.3m1.2,-.9l.3,1.2m-2.1,3.5l1.8,-4.7m-18.1,1.2l.3,-1.2m.9,.9l-1.2,.3m.3,-1.2l.9,.9m.9,3.8l-1.8,-4.7m-17.1,1.5l-.6,-1.5m1.7,.3l-1.1,1.2m-.6,-1.5l1.7,.3m3.2,4.4l-4.9,-4.7m-16.3,2.1l-1.2,-2.1m2.3,0l-1.1,2.1m-1.2,-2.1h2.3m5.9,4.7l-8.2,-4.7m-15.7,2.4l-2,-2.4m3.2,-.6l-1.2,3m-2,-2.4l3.2,-.6m8.1,5.3l-11.3,-4.7m121,16.6l2.7,.9m-2.4,1.7l-.3,-2.6m2.7,.9l-2.4,1.7m-9,0l11.4,-1.7m-19.8,-.6l2,.6m-1.5,1.4l-.5,-2m2,.6l-1.5,1.4m-6.6,.3l8.1,-1.7m-18.9,-.3l1.2,.3m-.9,1.2l-.3,-1.5m1.2,.3l-.9,1.2m-3.8,.5l4.7,-1.7m-18.1,.3l.6,-.3m-.3,.6l-.3,-.3m.6,-.3l-.3,.6m-1.5,1.1l1.8,-1.7m-17.5,.6l-.3,-.6m.6,.3l-.3,.3m-.3,-.6l.6,.3m1.2,1.4l-1.8,-1.7m-16.9,1.2l-.8,-1.2m1.4,-.3l-.6,1.5m-.8,-1.2l1.4,-.3m3.5,2l-4.9,-1.7m-16,1.4l-1.5,-1.4m2,-.6l-.5,2m-1.5,-1.4l2,-.6m6.2,2.3l-8.2,-1.7M498,441.9l-2.3,-1.7m2.6,-.9l-.3,2.6m-2.3,-1.7l2.6,-.9m8.7,2.6l-11.3,-1.7m121.3,16l2.4,1.7m-2.7,1.2l.3,-2.9m2.4,1.7l-2.7,1.2M608,456.2l11.4,1.7m-19.3,-1.4l1.5,1.4m-2,.6l.5,-2m1.5,1.4l-2,.6m-6.1,-2.3l8.1,1.7M583,457.1l.9,.8m-1.2,.3l.3,-1.1m.9,.8l-1.2,.3m-3.5,-2l4.7,1.7m-17.8,-.5l.3,.5m-.6,-.3l.3,-.2m.3,.5l-.6,-.3m-1.2,-1.4l1.8,1.7m-17.2,-.3l-.6,.3m.3,-.5l.3,.2m-.6,.3l.3,-.5m1.5,-1.2l-1.8,1.7m-16.3,.3l-1.4,-.3m.8,-.8l.6,1.1m-1.4,-.3l.8,-.8m4.1,-.9l-4.9,1.7m-15.5,.6l-2,-.6m1.5,-1.4l.5,2m-2,-.6l1.5,-1.4m6.7,-.3l-8.2,1.7m-15.1,1.2l-2.6,-1.2m2.3,-1.7l.3,2.9m-2.6,-1.2l2.3,-1.7m9,0l-11.3,1.7m121.6,15.2l2.1,2.6m-3.2,.3l1.1,-2.9m2.1,2.6l-3.2,.3M608,470.8l11.4,4.9m-19,-2.3l1.2,2.3m-2.3,-.3l1.1,-2m1.2,2.3l-2.3,-.3m-5.8,-4.6l8.1,4.9m-18,-1.8l.3,1.8m-1.5,-.6l1.2,-1.2m.3,1.8l-1.5,-.6m-3.2,-4.3l4.7,4.9m-17.2,-1.5l-.3,1.5m-1.2,-.9l1.5,-.6m-.3,1.5l-1.2,-.9m-.6,-4l1.8,4.9m-16.9,-.9l-.9,.9m-.3,-1.5l1.2,.6m-.9,.9l-.3,-1.5m2.1,-3.4l-1.8,4.9m-16,-.6l-1.7,.6m.6,-1.8l1.1,1.2m-1.7,.6l.6,-1.8m4.3,-3.1l-4.9,4.9m-15.2,-.3l-2.3,.3m1.2,-2.3l1.1,2m-2.3,.3l1.2,-2.3m7,-2.6l-8.2,4.9m-14.5,.3l-3.2,-.3m2,-2.6l1.2,2.9m-3.2,-.3l2,-2.6m9.3,-2.3l-11.3,4.9M617.9,490l1.5,3.2m-3.5,-.3l2,-2.9m1.5,3.2l-3.5,-.3M608,485l11.4,8.2m-18.7,-2.7l.9,2.7m-2.6,-.6l1.7,-2.1m.9,2.7l-2.6,-.6M593.5,485l8.1,8.2m-17.7,-2.4v2.4M581.8,492l2.1,-1.2m0,2.4L581.8,492m-2.6,-7l4.7,8.2M567,491.1l-.6,2.1m-1.5,-1.5l2.1,-.6m-.6,2.1l-1.5,-1.5m-.3,-6.7l1.8,8.2m-16.3,-1.5l-1.5,1.5m-.6,-2.1l2.1,.6m-1.5,1.5l-.6,-2.1m2.4,-6.1l-1.8,8.2M533.2,492l-2.3,1.2m.3,-2.4l2,1.2m-2.3,1.2l.3,-2.4m4.6,-5.8l-4.9,8.2M516,492.6l-2.6,.6m.6,-2.7l2,2.1m-2.6,.6l.6,-2.7m7.6,-5.5l-8.2,8.2m-14.2,-.3l-3.5,.3m1.4,-3.2l2.1,2.9m-3.5,.3l1.4,-3.2m9.9,-5l-11.3,8.2m122.5,13.9l1.2,3.8m-4.1,-1.2l2.9,-2.6m1.2,3.8l-4.1,-1.2M608,499.6l11.4,11.3m-18.1,-3.5l.3,3.5m-3.2,-1.4l2.9,-2.1m.3,3.5l-3.2,-1.4m-4.9,-9.9l8.1,11.3m-17.2,-3.2l-.5,3.2m-2.4,-2l2.9,-1.2m-.5,3.2l-2.4,-2m-2.3,-9.3l4.7,11.3m-16.7,-2.6l-.8,2.6m-1.8,-2.3l2.6,-.3m-.8,2.6l-1.8,-2.3m0,-9l1.8,11.3m-16,-2.3l-1.8,2.3m-1.1,-2.6l2.9,.3m-1.8,2.3l-1.1,-2.6m2.9,-8.7l-1.8,11.3m-15.1,-2l-2.6,2m-.3,-3.2l2.9,1.2m-2.6,2l-.3,-3.2m5.2,-8.1l-4.9,11.3m-14.3,-1.4l-3.2,1.4m.3,-3.5l2.9,2.1m-3.2,1.4l.3,-3.5m7.9,-7.8l-8.2,11.3m-14,-1.2l-3.7,1.2m1.1,-3.8l2.6,2.6m-3.7,1.2l1.1,-3.8M507,499.6l-11.3,11.3M615.3,388.4l4.1,-1.2m-1.2,4.1l-2.9,-2.9m4.1,-1.2l-1.2,4.1M608,398.6l11.4,-11.4m-21,1.5l3.2,-1.5m-.3,3.5l-2.9,-2m3.2,-1.5l-.3,3.5m-7.8,7.9l8.1,-11.4m-20.1,2.1l2.4,-2.1m.5,3.2l-2.9,-1.1m2.4,-2.1l.5,3.2m-5.2,8.2l4.7,-11.4m-19.3,2.3l1.8,-2.3m.8,2.6l-2.6,-.3m1.8,-2.3l.8,2.6m-2.6,8.8l1.8,-11.4m-18.9,2.6l1.1,-2.6m1.8,2.3l-2.9,.3m1.1,-2.6l1.8,2.3m0,9.1l-1.8,-11.4m-18,3.2l.3,-3.2m2.6,2.1l-2.9,1.1m.3,-3.2l2.6,2.1m2.3,9.3l-4.9,-11.4m-17.2,3.5l-.3,-3.5m3.2,1.5l-2.9,2m-.3,-3.5l3.2,1.5m5,9.9l-8.2,-11.4m-16.6,4.1l-1.1,-4.1m3.7,1.2l-2.6,2.9m-1.1,-4.1l3.7,1.2m7.6,10.2L495.7,387.2m120.2,18.1l3.5,-.3m-1.5,3.2l-2,-2.9m3.5,-.3l-1.5,3.2m-9.9,4.9L619.4,405m-20.4,.8l2.6,-.8m-.9,2.6L599,405.8m2.6,-.8l-.9,2.6m-7.2,5.5l8.1,-8.1m-19.8,1.1l2.1,-1.1m0,2.3l-2.1,-1.2m2.1,-1.1v2.3m-4.7,5.8l4.7,-8.1m-19,1.4l1.5,-1.4m.6,2l-2.1,-.6m1.5,-1.4l.6,2m-2.4,6.1l1.8,-8.1M548,407l.6,-2m1.5,1.4L548,407m.6,-2l1.5,1.4m.3,6.7L548.6,405m-17.4,2.3l-.3,-2.3m2.3,1.1l-2,1.2m-.3,-2.3l2.3,1.1m2.6,7L530.9,405" class="g5_20"/>
</g>
<path d="M499.5,385.1H615.6c3.4,0,6.2,2.7,6.2,6.1V507.3c0,3.4,-2.8,6.1,-6.2,6.1H499.5c-3.3,0,-6.1,-2.7,-6.1,-6.1V391.2c0,-3.4,2.8,-6.1,6.1,-6.1Z" class="g3_20"/>
<path d="M73.7,586.4H441.2M73.7,883.5H441.2M73.7,955.3H441.2M73.7,1044H441.2" class="g0_20"/>
<path d="M345,287.7l2.8,1.2m.3,4.3L345,287.7m24.2,62.6l-1.6,2.4m-2.4,-2.1l4,-.3m-1.6,2.4l-2.4,-2.1m-.3,-8.5l2.7,10.6m13.5,-8.5l-.3,2.1M378,344.8l3.1,-.6m-.3,2.1L378,344.8m-3.3,-7.6l6.1,9.1m11.9,-8.2l1.2,1.8m-2.7,-1.2l1.5,-.6m1.2,1.8l-2.7,-1.2m-6.7,-6.4l9.4,7.6m10.7,-8.2l2.5,1.8m-3.1,-.6l.6,-1.2m2.5,1.8l-3.1,-.6m-9.8,-5.5l12.9,6.1m9.1,-7.9l4,1.5m-3.1,-.3l-.9,-1.2m4,1.5l-3.1,-.3m-13.1,-4l16.2,4.3m-69.1,19.2l-2.1,2.2M347.8,346l3.3,.3m-2.1,2.2L347.8,346m3,-7.3l-1.8,9.8m13.8,-8.3l-.7,1.9m-1.2,-1.9h1.9m-.7,1.9l-1.2,-1.9m-.3,-6.4l1.5,8.3m12.6,-8.3l.6,1.8m-1.5,-1.2l.9,-.6m.6,1.8l-1.5,-1.2m-3.4,-5.5l4.9,6.7m11,-7.9l2.1,1.5m-1.5,-.9l-.6,-.6m2.1,1.5l-1.5,-.9M380.2,324l8.2,5.2m9.8,-7.6l3.4,.9m-1.9,0l-1.5,-.9m3.4,.9h-1.9m-9.4,-3.1l11.3,3.1m-68.8,19.9l-2.4,1.5m.3,-2.2l2.1,.7m-2.4,1.5l.3,-2.2m6.1,-6.4l-6.4,8.6m14.3,-8l-1.2,1.6m0,-1.9l1.2,.3m-1.2,1.6v-1.9m3.1,-5.2l-3.1,7.1m12.8,-7.7v1.3m0,0v-1.3m0,-4.2v5.5m12,-7.4l1.2,.9m0,-.6l-1.2,-.3m1.2,.9V324m-3.1,-3.3l3.1,3.9m10.7,-7.3l2.4,.9m-.3,-.3l-2.1,-.6m2.4,.9l-.3,-.3m-6.1,-1.8l6.4,2.1m-67.8,20.2l-3.4,.9m1.9,-2.1l1.5,1.2m-3.4,.9l1.9,-2.1m9.4,-5.2l-11.3,7.3m15,-7.3l-1.8,.9m1.5,-1.5l.3,.6m-1.8,.9l1.5,-1.5m6.7,-4.3l-8.2,5.8m13.7,-7l-.6,.6m1.5,-1.3l-.9,.7m-.6,.6l1.5,-1.3m3.4,-3l-4.9,4.3m12.5,-7.1l.6,.7m1.3,-.7h-1.9m.6,.7l1.3,-.7m.3,-2.1l-1.6,2.8m11,-6.8l2.2,.3m1.2,0l-3.4,-.3m2.2,.3h1.2m-3.1,-.9l1.9,.9m-67.5,20.5l-3.7,.9m3,-2.1l.7,1.2m-3.7,.9l3,-2.1M309,328.6L292.8,335m15.6,-7l-2.5,.6m3.1,-1.8l-.6,1.2m-2.5,.6l3.1,-1.8m9.8,-3.1l-12.9,4.9m14.4,-6.7h-1.2m2.7,-.9l-1.5,.9m-1.2,0l2.7,-.9m6.7,-2.2l-9.4,3.1m12.8,-6.4h.3m2.7,-.6l-3,.6m.3,0l2.7,-.6m3.4,-1l-6.1,1.6m11.6,-6.1l1.2,-.3m2.8,0l-4,.3m1.2,-.3h2.8m.3,.3l-3.1,-.3m24.2,61.7l-1.6,3.6m-2.4,-3.3l4,-.3m-1.6,3.6l-2.4,-3.3m-.3,-13.2l2.7,16.5m13.5,-10l-.3,3.6M378,365l3.1,-.6m-.3,3.6L378,365m-3.3,-11.9l6.1,14.9m11.9,-9.8l1.2,3.4m-2.7,-2.4l1.5,-1m1.2,3.4l-2.7,-2.4m-6.7,-10.7l9.4,13.1m10.7,-9.5l2.5,3.1M404,353.1l.6,-1m2.5,3.1L404,353.1m-9.8,-9.5l12.9,11.6m9.1,-9.5l4,3.1m-3.1,-1.6l-.9,-1.5m4,3.1l-3.1,-1.6M404,338.7l16.2,10.1m-69.1,18l-2.1,3.1m-1.2,-3.4l3.3,.3m-2.1,3.1l-1.2,-3.4m3,-11.9L349,369.9m13.8,-9.5l-.7,3m-1.2,-2.7l1.9,-.3m-.7,3l-1.2,-2.7m-.3,-11l1.5,13.7m12.6,-9.1l.6,2.7m-1.5,-2.4l.9,-.3m.6,2.7l-1.5,-2.4m-3.4,-9.5l4.9,11.9m11,-9.1l2.1,2.7m-1.5,-1.8l-.6,-.9m2.1,2.7l-1.5,-1.8m-6.7,-8.6l8.2,10.4m9.8,-8.9l3.4,2.5m-1.9,-1.5l-1.5,-1m3.4,2.5l-1.9,-1.5m-9.4,-7.4l11.3,8.9m-68.8,18.3l-2.4,2.8m.3,-3.4l2.1,.6m-2.4,2.8l.3,-3.4m6.1,-10.7l-6.4,14.1m14.3,-8.9l-1.2,2.5m0,-2.8l1.2,.3m-1.2,2.5v-2.8m3.1,-9.8l-3.1,12.6m12.8,-8.6v2.1m0,0v-2.1m0,-8.6v10.7m12,-8.5l1.2,2.1m0,-1.8l-1.2,-.3m1.2,2.1v-1.8m-3.1,-7.3l3.1,9.1m10.7,-8.2l2.4,1.8m-.3,-1.2l-2.1,-.6m2.4,1.8l-.3,-1.2M376.2,332l6.4,7.6m-67.8,19l-3.4,2.4m1.9,-3.4l1.5,1m-3.4,2.4l1.9,-3.4m9.4,-9.7L311.4,361m15,-8.6l-1.8,2.2m1.5,-3.1l.3,.9m-1.8,2.2l1.5,-3.1m6.7,-8.5l-8.2,11.6M338.3,346l-.6,2.2m1.5,-2.5l-.9,.3m-.6,2.2l1.5,-2.5m3.4,-7.3l-4.9,9.8m12.5,-8.3l.6,1.5m1.3,-1.5h-1.9m.6,1.5l1.3,-1.5m.3,-6.4l-1.6,7.9m11,-7.6L364,335m1.2,-1.2h-3.4M364,335l1.2,-1.2m-3.1,-5.2L364,335m-67.5,19.6l-3.7,1.8m3,-3.3l.7,1.5m-3.7,1.8l3,-3.3M309,344.5l-16.2,11.9m15.6,-8.2l-2.5,1.8m3.1,-2.8l-.6,1m-2.5,1.8l3.1,-2.8m9.8,-7.6L305.9,350m14.4,-7.9l-1.2,1.5m2.7,-2.5l-1.5,1m-1.2,1.5l2.7,-2.5m6.7,-6.1l-9.4,8.6m12.8,-7.7l.3,1.3m2.7,-1.9l-3,.6m.3,1.3l2.7,-1.9m3.4,-5.2l-6.1,7.1m11.6,-7.7l1.2,1.2m2.8,-1.2h-4m1.2,1.2l2.8,-1.2m.3,-4.3l-3.1,5.5M334.9,254.1l-3,.6m.3,-3.7l2.7,3.1m3.4,11.9l-6.1,-15m11.6,-2.8l1.2,-3.6m2.8,3.3l-4,.3m1.2,-3.6l2.8,3.3m.3,13.2L345,244.6m24.2,65.1l-1.6,.3m-2.4,0l4,-.3m-1.6,.3h-2.4m-.3,-.3l2.7,.3m13.5,-6.4h-.3m-2.8,.6l3.1,-.6m-.3,0l-2.8,.6m-3.3,.9l6.1,-1.5m11.9,-6.2l1.2,-.3m-2.7,1l1.5,-.7m1.2,-.3l-2.7,1m-6.7,2.1l9.4,-3.1M404.6,291l2.5,-.3m-3.1,1.5l.6,-1.2m2.5,-.3l-3.1,1.5m-9.8,3.1l12.9,-4.6m9.1,-5.8l4,-.9m-3.1,2.1l-.9,-1.2m4,-.9l-3.1,2.1M404,290.4L420.2,284m-69.1,21.7l-2.1,-.3m-1.2,0l3.3,.3m-2.1,-.3h-1.2m3,.9l-1.8,-.9m13.8,-5.8l-.7,-.6m-1.2,.6h1.9m-.7,-.6l-1.2,.6m-.3,2.1l1.5,-2.7m12.6,-5.8l.6,-.6m-1.5,1.2l.9,-.6m.6,-.6l-1.5,1.2m-3.4,3l4.9,-4.2m11,-5.5l2.1,-1m-1.5,1.6l-.6,-.6m2.1,-1l-1.5,1.6m-6.7,4.2l8.2,-5.8m9.8,-5.2l3.4,-1.2m-1.9,2.2l-1.5,-1m3.4,-1.2l-1.9,2.2m-9.4,5.2l11.3,-7.4m-68.8,22l-2.4,-.9m.3,.3l2.1,.6m-2.4,-.9l.3,.3m6.1,1.8l-6.4,-2.1m14.3,-5.5l-1.2,-.9m0,.6l1.2,.3m-1.2,-.9v.6m3.1,3.4l-3.1,-4m12.8,-5.2V288m0,0v1.2m0,4.3V288m12,-4.9l1.2,-1.5m0,1.8l-1.2,-.3m1.2,-1.5v1.8m-3.1,5.2l3.1,-7m10.7,-4.9l2.4,-1.6m-.3,2.2l-2.1,-.6m2.4,-1.6l-.3,2.2m-6.1,6.4l6.4,-8.6m-67.8,22.6l-3.4,-1.2m1.9,0l1.5,1.2m-3.4,-1.2h1.9m9.4,3.1l-11.3,-3.1m15,-5.2l-1.8,-1.2m1.5,.6l.3,.6m-1.8,-1.2l1.5,.6m6.7,4.3l-8.2,-4.9m13.7,-4.9l-.6,-1.8m1.5,1.2l-.9,.6m-.6,-1.8l1.5,1.2m3.4,5.5l-4.9,-6.7m12.5,-4.6l.6,-1.8m1.3,1.8h-1.9m.6,-1.8l1.3,1.8m.3,6.4L350.8,277m11,-4.3l2.2,-2.1m1.2,2.4l-3.4,-.3m2.2,-2.1l1.2,2.4m-3.1,7.3l1.9,-9.7m-67.5,22.9l-3.7,-1.6m3,.3l.7,1.3m-3.7,-1.6l3,.3m13.2,4l-16.2,-4.3m15.6,-4.5l-2.5,-1.9m3.1,.6l-.6,1.3m-2.5,-1.9l3.1,.6m9.8,5.5l-12.9,-6.1m14.4,-4.3l-1.2,-2.1m2.7,1.2l-1.5,.9m-1.2,-2.1l2.7,1.2m6.7,6.4l-9.4,-7.6m12.8,-4.3l.3,-2.1m2.7,1.5l-3,.6m.3,-2.1l2.7,1.5m3.4,7.7l-6.1,-9.2m11.6,-4l1.2,-2.4m2.8,2.1l-4,.3m1.2,-2.4l2.8,2.1m.3,8.6L345,266.3m24.2,63.8l-1.6,1.3m-2.4,-1l4,-.3m-1.6,1.3l-2.4,-1m-.3,-4.5l2.7,5.5m13.5,-7.7l-.3,1.2m-2.8,-.6l3.1,-.6m-.3,1.2l-2.8,-.6M374.7,321l6.1,3.9m11.9,-7.3l1.2,.9m-2.7,0l1.5,-.9m1.2,.9h-2.7m-6.7,-2.1l9.4,2.1m10.7,-7l2.5,.6m-3.1,.3l.6,-.9m2.5,.6l-3.1,.3m-9.8,-.9l12.9,.6m9.1,-7l4,.6m-3.1,.9l-.9,-1.5m4,.6l-3.1,.9m-13.1,0l16.2,-.9m-69.1,20.5l-2.1,.6m-1.2,-.9l3.3,.3m-2.1,.6l-1.2,-.9m3,-3.4l-1.8,4.3m13.8,-7.1l-.7,.7m-1.2,-.3l1.9,-.4m-.7,.7l-1.2,-.3m-.3,-2.5l1.5,2.8m12.6,-6.8l.6,.3m-1.5,0l.9,-.3m.6,.3h-1.5m-3.4,-.9l4.9,.9m11,-6.7l2.1,.3m-1.5,.6l-.6,-.9m2.1,.3l-1.5,.6m-6.7,0l8.2,-.6m9.8,-6.4h3.4m-1.9,.9l-1.5,-.9m3.4,0l-1.9,.9m-9.4,1.2l11.3,-2.1m-68.8,20.8l-2.4,.6m.3,-1.2l2.1,.6m-2.4,.6l.3,-1.2m6.1,-2.2l-6.4,3.4m14.3,-6.7l-1.2,.3m0,-.6l1.2,.3m-1.2,.3v-.6m3.1,-1.3l-3.1,1.9m24.8,-12.9l1.2,-.3m0,.7l-1.2,-.4m1.2,-.3v.7m-3.1,1.2l3.1,-1.9m10.7,-5.8l2.4,-.6m-.3,1.2l-2.1,-.6m2.4,-.6l-.3,1.2m-6.1,2.2l6.4,-3.4m-67.8,21.4h-3.4m1.9,-.9l1.5,.9m-3.4,0l1.9,-.9m9.4,-1.2l-11.3,2.1m15,-6.1l-1.8,-.3m1.5,-.6l.3,.9m-1.8,-.3l1.5,-.6m6.7,0l-8.2,.6m13.7,-6.1l-.6,-.3m1.5,0l-.9,.3m-.6,-.3h1.5m3.4,1.2l-4.9,-1.2m12.5,-5.8l.6,-.6m1.3,.6h-1.9m.6,-.6l1.3,.6m.3,2.1l-1.6,-2.7m11,-5.5l2.2,-1m1.2,1h-3.4m2.2,-1l1.2,1m-3.1,3.3l1.9,-4.3m-67.5,21.7l-3.7,-.6m3,-.9l.7,1.5m-3.7,-.6l3,-.9m13.2,0l-16.2,.9m15.6,-5.8l-2.5,-.6m3.1,-.3l-.6,.9m-2.5,-.6l3.1,-.3m9.8,.9l-12.9,-.6m14.4,-5.5l-1.2,-.9m2.7,0l-1.5,.9m-1.2,-.9h2.7m6.7,2.4l-9.4,-2.4m12.8,-5.2l.3,-1.2m2.7,.6l-3,.6m.3,-1.2l2.7,.6m3.4,3.4l-6.1,-4m11.6,-5.2l1.2,-1.2m2.8,1.2h-4M144.6,327.1l.4,2.4m-3.7,-2.1l3.3,-.3m.4,2.4l-3.7,-2.1m-5.2,-8.3l8.9,10.4m11.3,-6.4v2.1m-3.7,-1.8l3.7,-.3m0,2.1l-3.7,-1.8m-5.2,-8.2l8.9,10m30.5,47.1v4m-3.6,-3.7l3.6,-.3m0,4l-3.6,-3.7M178,358.9l8.8,17.4m11.3,-8v4m-3.6,-3.7l3.6,-.3m0,4l-3.6,-3.7m-5.2,-13.7l8.8,17.4m11.3,-7.9l.3,3.9m-3.6,-3.6l3.3,-.3m.3,3.9l-3.6,-3.6m-5.2,-13.8l8.8,17.4M221,360.4v4m-3.6,-3.7l3.6,-.3m0,4l-3.6,-3.7m-5.2,-13.8l8.8,17.5m11.3,-8.3l.4,4.3M229,356.7l3.3,-.6m.4,4.3L229,356.7M223.5,343l9.2,17.4m-65.1,9.5l.3,3.9m-3.7,-3.6l3.4,-.3m.3,3.9l-3.7,-3.6M159,356.4l8.9,17.4m11.3,-7.9v4m-3.7,-3.7l3.7,-.3m0,4l-3.7,-3.7m-5.2,-13.8l8.9,17.5m11.3,-8l.3,4m-3.7,-3.7l3.4,-.3m.3,4l-3.7,-3.7m-5.5,-13.7l9.2,17.4m11,-8l.3,4m-3.7,-3.7l3.4,-.3m.3,4l-3.7,-3.7m-5.2,-13.7l8.9,17.4M213.4,354v3.9m-3.7,-3.6l3.7,-.3m0,3.9l-3.7,-3.6m-5.2,-13.8l8.9,17.4m-64.8,9.5l.3,4m-3.6,-3.7l3.3,-.3m.3,4l-3.6,-3.7M139.8,354l9.1,17.4m11,-8l.3,4m-3.6,-3.7l3.3,-.3m.3,4l-3.6,-3.7M151.4,350l8.8,17.4m11.3,-7.9v3.9m-3.6,-3.6l3.6,-.3m0,3.9l-3.6,-3.6M162.7,346l8.8,17.4m11.3,-7.9l.4,4m-3.7,-3.7l3.3,-.3m.4,4l-3.7,-3.7M174,342.1l9.2,17.4m11,-8l.3,4m-3.7,-3.7l3.4,-.3m.3,4l-3.7,-3.7m-5.2,-13.7l8.9,17.4M129.7,365v3.9M126,365.6l3.7,-.6m0,3.9L126,365.6m-5.2,-14.1l8.9,17.4M141,361l.3,4m-3.7,-3.4L141,361m.3,4l-3.7,-3.4m-5.5,-14l9.2,17.4m11,-8l.3,4m-3.7,-3.4l3.4,-.6m.3,4l-3.7,-3.4m-5.2,-14l8.9,17.4m11.3,-7.9V357m-3.7,-3.3l3.7,-.6m0,3.9l-3.7,-3.3M155,339.6l8.9,17.4m11.3,-7.9l.3,4m-3.7,-3.4l3.4,-.6m.3,4l-3.7,-3.4m-5.1,-14.1l8.8,17.5m-65.1,9.4l.3,4m-3.6,-3.4l3.3,-.6m.3,4l-3.6,-3.4m-5.2,-13.7l8.8,17.1M122,358.6v3.9m-3.6,-3.3l3.6,-.6m0,3.9l-3.6,-3.3m-5.2,-13.8l8.8,17.1m11.3,-7.9l.3,4M130,355.2l3.3,-.6m.3,4L130,355.2m-5.2,-14.1l8.8,17.5m11,-8l.4,4m-3.7,-3.4l3.3,-.6m.4,4l-3.7,-3.4m-5.2,-14l8.9,17.4m11.3,-8v4m-3.7,-3.4l3.7,-.6m0,4l-3.7,-3.4m-5.2,-14l8.9,17.4M369.2,289.5l-1.6,-1.2m-2.4,1.5l4,-.3m-1.6,-1.2l-2.4,1.5m-.3,4l2.7,-5.5m13.5,-5.2l-.3,-1.2m-2.8,1.8l3.1,-.6m-.3,-1.2l-2.8,1.8m-3.3,5.2l6.1,-7M392.7,277l1.2,-1.6m-2.7,2.5l1.5,-.9m1.2,-1.6l-2.7,2.5m-6.7,6.1l9.4,-8.6m10.7,-4.5l2.5,-1.9m-3.1,2.8l.6,-.9m2.5,-1.9l-3.1,2.8m-9.8,7.6L407.1,269m9.1,-4.6l4,-1.8m-3.1,3.4l-.9,-1.6m4,-1.8l-3.1,3.4M404,274.5l16.2,-11.9m-69.1,22.6L349,284m-1.2,1.2h3.3M349,284l-1.2,1.2m3,5.2L349,284m13.8,-4.9l-.7,-1.5m-1.2,1.8l1.9,-.3m-.7,-1.5l-1.2,1.8m-.3,6.1l1.5,-7.9M374.7,273l.6,-1.8m-1.5,2.1l.9,-.3m.6,-1.8l-1.5,2.1m-3.4,7.3l4.9,-9.4m11,-4.6l2.1,-2.2m-1.5,3.1l-.6,-.9m2.1,-2.2l-1.5,3.1m-6.7,8.6l8.2,-11.7m9.8,-3.9l3.4,-2.5m-1.9,3.4l-1.5,-.9m3.4,-2.5l-1.9,3.4m-9.4,9.8L401.6,258m-68.8,23.2l-2.4,-1.8m.3,1.2l2.1,.6m-2.4,-1.8l.3,1.2m6.1,6.5l-6.4,-7.7m14.3,-4.3L343.5,273m0,1.8l1.2,.3M343.5,273v1.8m3.1,7.4L343.5,273m12.8,-4v-2.4m0,0V269m0,8.3V266.6m12,-4l1.2,-2.4m0,2.7l-1.2,-.3m1.2,-2.4v2.7m-3.1,9.8l3.1,-12.5m10.7,-3.7l2.4,-2.8m-.3,3.4l-2.1,-.6m2.4,-2.8l-.3,3.4m-6.1,10.7l6.4,-14.1m-67.8,23.6l-3.4,-2.5m1.9,1.6l1.5,.9m-3.4,-2.5l1.9,1.6m9.4,7.3l-11.3,-8.9m15,-3.6l-1.8,-2.8m1.5,1.8l.3,1m-1.8,-2.8l1.5,1.8m6.7,8.6l-8.2,-10.4m13.7,-3.7l-.6,-2.7m1.5,2.4l-.9,.3m-.6,-2.7l1.5,2.4m3.4,9.5L337.7,262m12.5,-3.4l.6,-3m1.3,3h-1.9m.6,-3l1.3,3m.3,10.7l-1.6,-13.7m11,-3.1l2.2,-3.3m1.2,3.3h-3.4m2.2,-3.3l1.2,3.3m-3.1,11.9L364,249.2m-67.5,24.1l-3.7,-2.7m3,1.2l.7,1.5m-3.7,-2.7l3,1.2m13.2,8.5l-16.2,-9.7m15.6,-3.7l-2.5,-3.1M309,266l-.6,.9m-2.5,-3.1L309,266m9.8,9.4L305.9,263.8m14.4,-3l-1.2,-3.4m2.7,2.5l-1.5,.9m-1.2,-3.4l2.7,2.5m6.7,10.7l-9.4,-13.2m12.8,-2.7l.3,-3.7M144.6,279.4l.4,-.6m-3.7,1.2l3.3,-.6m.4,-.6l-3.7,1.2m-5.2,3.1l8.9,-4.3m11.3,-3.3v-.7m-3.7,1.3l3.7,-.6m0,-.7l-3.7,1.3m-5.2,3l8.9,-4.3m30.5,49.8v1m-3.6,-.4l3.6,-.6m0,1l-3.6,-.4M178,322.5l8.8,3.1m11.3,-4.9v.9m-3.6,-.3l3.6,-.6m0,.9l-3.6,-.3m-5.2,-2.8l8.8,3.1m11.3,-4.9l.3,.9m-3.6,-.3l3.3,-.6m.3,.9l-3.6,-.3m-5.2,-2.7l8.8,3M221,312.7v.9m-3.6,-.3l3.6,-.6m0,.9l-3.6,-.3m-5.2,-2.7l8.8,3m11.3,-4.9l.4,1m-3.7,-.3l3.3,-.7m.4,1l-3.7,-.3m-5.5,-2.8l9.2,3.1m-65.1,12.5l.3,.9m-3.7,-.3l3.4,-.6m.3,.9l-3.7,-.3M159,320.4l8.9,2.7m11.3,-4.9v.9m-3.7,-.3l3.7,-.6m0,.9l-3.7,-.3m-5.2,-2.4l8.9,2.7m11.3,-4.9l.3,1m-3.7,-.3l3.4,-.7m.3,1l-3.7,-.3m-5.5,-2.5l9.2,2.8m11,-4.9l.3,.9m-3.7,-.3l3.4,-.6m.3,.9l-3.7,-.3m-5.2,-2.8l8.9,3.1m11.3,-4.9v.9m-3.7,-.3l3.7,-.6m0,.9l-3.7,-.3m-5.2,-2.7l8.9,3m-64.8,12.5l.3,1m-3.6,-.3l3.3,-.7m.3,1l-3.6,-.3m-5.5,-2.5l9.1,2.8m11,-4.9l.3,.9m-3.6,-.3l3.3,-.6m.3,.9l-3.6,-.3m-5.2,-2.5l8.8,2.8m11.3,-4.9v.9m-3.6,-.3l3.6,-.6m0,.9l-3.6,-.3M162.7,310l8.8,2.7m11.3,-4.9l.4,.9m-3.7,-.3l3.3,-.6m.4,.9l-3.7,-.3M174,306l9.2,2.7m11,-4.8l.3,.9m-3.7,-.3l3.4,-.6m.3,.9l-3.7,-.3M185.6,302l8.9,2.8m-64.8,12.8v.6m-3.7,-.3l3.7,-.3m0,.6l-3.7,-.3m-5.2,-2.4l8.9,2.7M141,313.6l.3,.6m-3.7,-.3l3.4,-.3m.3,.6l-3.7,-.3m-5.5,-2.4l9.2,2.7m11,-4.5l.3,.6m-3.7,-.3l3.4,-.3m.3,.6l-3.7,-.3m-5.2,-2.5l8.9,2.8m11.3,-4.6v.6m-3.7,-.3l3.7,-.3m0,.6l-3.7,-.3M155,303.6l8.9,2.7m11.3,-4.6l.3,.6m-3.7,-.3l3.4,-.3m.3,.6l-3.7,-.3m-5.1,-2.4l8.8,2.7m-65.1,12.9l.3,.9m-3.6,-.6l3.3,-.3m.3,.9l-3.6,-.6M101.9,313l8.8,3.1M122,311.2v.9m-3.6,-.6l3.6,-.3m0,.9l-3.6,-.6m-5.2,-2.4l8.8,3m11.3,-4.9l.3,.9m-3.6,-.6l3.3,-.3m.3,.9l-3.6,-.6m-5.2,-2.4l8.8,3m11,-4.9l.4,1m-3.7,-.6l3.3,-.4m.4,1l-3.7,-.6m-5.2,-2.5l8.9,3.1m11.3,-4.9v.9m-3.7,-.6l3.7,-.3m0,.9l-3.7,-.6m-5.2,-2.5l8.9,3.1m30.5,48.3v2.4m-3.6,-2.1l3.6,-.3m0,2.4l-3.6,-2.1m-5.2,-8l8.8,10.1m11.3,-6.4v2.4m-3.6,-2.1l3.6,-.3m0,2.4l-3.6,-2.1m-5.2,-7.9l8.8,10m11.3,-6.4l.3,2.5m-3.6,-2.2l3.3,-.3m.3,2.5l-3.6,-2.2m-5.2,-7.9l8.8,10.1M221,336.6V339m-3.6,-2.1l3.6,-.3m0,2.4l-3.6,-2.1m-5.2,-8.3L221,339m11.3,-6.4l.4,2.4M229,332.9l3.3,-.3m.4,2.4L229,332.9m-5.5,-8.3l9.2,10.4m-65.1,11l.3,2.5m-3.7,-1.9l3.4,-.6m.3,2.5l-3.7,-1.9M159,338.4l8.9,10.1m11.3,-6.4v2.4m-3.7,-1.8l3.7,-.6m0,2.4l-3.7,-1.8m-5.2,-8.3l8.9,10.1m11.3,-6.4l.3,2.4m-3.7,-2.1l3.4,-.3m.3,2.4l-3.7,-2.1m-5.5,-8l9.2,10.1m11,-6.4l.3,2.5m-3.7,-2.2l3.4,-.3m.3,2.5l-3.7,-2.2m-5.2,-7.9l8.9,10.1m11.3,-6.5v2.5m-3.7,-2.2l3.7,-.3m0,2.5l-3.7,-2.2m-5.2,-7.9l8.9,10.1m-64.8,11l.3,2.4m-3.6,-1.8l3.3,-.6m.3,2.4l-3.6,-1.8m-5.5,-8.3l9.1,10.1m11,-6.4l.3,2.5m-3.6,-1.9l3.3,-.6m.3,2.5l-3.6,-1.9M151.4,332l8.8,10.1m11.3,-6.5v2.5m-3.6,-1.9l3.6,-.6m0,2.5l-3.6,-1.9M162.7,328l8.8,10.1m11.3,-6.4l.4,2.4m-3.7,-1.8l3.3,-.6m.4,2.4l-3.7,-1.8M174,324l9.2,10.1m11,-6.4l.3,2.4m-3.7,-1.8l3.4,-.6m.3,2.4l-3.7,-1.8m-5.2,-8.2l8.9,10m-64.8,11v2.5M126,341.7l3.7,-.6m0,2.5L126,341.7m-5.2,-8.2l8.9,10.1M141,337.2l.3,2.4m-3.7,-1.8l3.4,-.6m.3,2.4l-3.7,-1.8m-5.5,-8.3l9.2,10.1m11,-6.4l.3,2.4m-3.7,-1.8l3.4,-.6m.3,2.4l-3.7,-1.8m-5.2,-8.2l8.9,10m11.3,-6.4v2.5m-3.7,-1.9l3.7,-.6m0,2.5l-3.7,-1.9M155,321.6l8.9,10.1m11.3,-6.5l.3,2.5m-3.7,-1.8l3.4,-.7m.3,2.5l-3.7,-1.8m-5.1,-8.3l8.8,10.1M110.4,339l.3,2.4m-3.6,-2.1l3.3,-.3m.3,2.4l-3.6,-2.1m-5.2,-8.2l8.8,10.3M122,335v2.5m-3.6,-2.2L122,335m0,2.5l-3.6,-2.2m-5.2,-8.2l8.8,10.4m11.3,-6.4l.3,2.4M130,331.4l3.3,-.3m.3,2.4L130,331.4m-5.2,-8.3l8.8,10.4m53.2,-56.2v-2.5m-3.6,2.8l3.6,-.3m0,-2.5l-3.6,2.8m-5.2,8.9l8.8,-11.7m11.3,-1.5v-2.4m-3.6,2.7l3.6,-.3m0,-2.4l-3.6,2.7m-5.2,8.9l8.8,-11.6m11.3,-1.6l.3,-2.4m-3.6,2.8l3.3,-.4m.3,-2.4l-3.6,2.8m-5.2,8.8l8.8,-11.6M221,265.4v-2.5m-3.6,2.8l3.6,-.3m0,-2.5l-3.6,2.8m-5.2,8.8L221,262.9m11.3,-1.8l.4,-2.1m-3.7,2.7l3.3,-.6m.4,-2.1l-3.7,2.7m-5.5,8.9L232.7,259m-65.1,15.8l.3,-2.4m-3.7,2.8l3.4,-.4m.3,-2.4l-3.7,2.8M159,284l8.9,-11.6m11.3,-1.5v-2.5m-3.7,2.8l3.7,-.3m0,-2.5l-3.7,2.8m-5.2,8.8l8.9,-11.6m11.3,-1.5l.3,-2.4m-3.7,2.7l3.4,-.3m.3,-2.4l-3.7,2.7m-5.5,8.9l9.2,-11.6m11,-1.6l.3,-2.4m-3.7,2.7l3.4,-.3m.3,-2.4l-3.7,2.7m-5.2,8.9l8.9,-11.6M213.4,259v-2.5m-3.7,2.7l3.7,-.2m0,-2.5l-3.7,2.7m-5.2,8.9l8.9,-11.6m-64.8,15.9l.3,-2.2m-3.6,2.5l3.3,-.3m.3,-2.2l-3.6,2.5m-5.5,8.9l9.1,-11.4m11,-1.8l.3,-2.1m-3.6,2.4l3.3,-.3m.3,-2.1l-3.6,2.4m-5.2,8.9l8.8,-11.3m11.3,-1.8V262m-3.6,2.8l3.6,-.3m0,-2.5l-3.6,2.8m-5.2,8.8L171.5,262m11.3,-1.5l.4,-2.5m-3.7,2.8l3.3,-.3m.4,-2.5l-3.7,2.8m-5.5,8.9L183.2,258m11,-1.5l.3,-2.4m-3.7,2.7l3.4,-.3m.3,-2.4l-3.7,2.7m-5.2,8.9l8.9,-11.6M129.7,270v-2.2m-3.7,2.8l3.7,-.6m0,-2.2l-3.7,2.8m-5.2,8.8l8.9,-11.6M141,266l.3,-2.2m-3.7,2.8L141,266m.3,-2.2l-3.7,2.8m-5.5,8.9l9.2,-11.7m11,-1.8l.3,-2.1m-3.7,2.7l3.4,-.6m.3,-2.1l-3.7,2.7m-5.2,8.9l8.9,-11.6M163.9,258v-2.1m-3.7,2.8l3.7,-.7m0,-2.1l-3.7,2.8m-5.2,8.5l8.9,-11.3m11.3,-1.8l.3,-2.2m-3.7,2.8l3.4,-.6m.3,-2.2l-3.7,2.8m-5.1,8.5l8.8,-11.3m-65.1,15.6l.3,-2.1m-3.6,2.7l3.3,-.6m.3,-2.1l-3.6,2.7m-5.2,8.9l8.8,-11.6M122,263.5v-2.1m-3.6,2.7l3.6,-.6m0,-2.1l-3.6,2.7m-5.2,8.9L122,261.4m11.3,-1.8l.3,-2.2m-3.6,2.8l3.3,-.6m.3,-2.2l-3.6,2.8m-5.2,8.8l8.8,-11.6m11,-1.8l.4,-2.1m-3.7,2.7l3.3,-.6m.4,-2.1l-3.7,2.7m-5.2,8.9L145,253.5m11.3,-1.9v-2.1m-3.7,2.7l3.7,-.6m0,-2.1l-3.7,2.7m-5.2,8.9l8.9,-11.6m30.5,51.3v-.6m-3.6,1.2l3.6,-.6m0,-.6l-3.6,1.2m-5.2,3.1l8.8,-4.3m11.3,-3.4v-.6m-3.6,1.2l3.6,-.6m0,-.6l-3.6,1.2m-5.2,3.1l8.8,-4.3m11.3,-3.3l.3,-.7m-3.6,1.3l3.3,-.6m.3,-.7l-3.6,1.3m-5.2,3l8.8,-4.3M221,288.9v-.6m-3.6,1.2l3.6,-.6m0,-.6l-3.6,1.2m-5.2,3.1l8.8,-4.3m11.3,-3.4l.4,-.6m-3.7,1.2l3.3,-.6m.4,-.6l-3.7,1.2m-5.5,3.1l9.2,-4.3m-65.1,14.4l.3,-1m-3.7,1.3l3.4,-.3m.3,-1l-3.7,1.3m-5.2,3l8.9,-4.3m11.3,-3.3v-.6m-3.7,1.2l3.7,-.6m0,-.6l-3.7,1.2m-5.2,3.1l8.9,-4.3m11.3,-3.4l.3,-.6m-3.7,1.2l3.4,-.6m.3,-.6l-3.7,1.2m-5.5,3.1l9.2,-4.3m11,-3.3l.3,-.7m-3.7,1.3l3.4,-.6m.3,-.7l-3.7,1.3m-5.2,3l8.9,-4.3m11.3,-3.3v-.6m-3.7,1.2l3.7,-.6m0,-.6l-3.7,1.2m-5.2,3l8.9,-4.2m-64.8,14.3l.3,-.9m-3.6,1.2l3.3,-.3m.3,-.9l-3.6,1.2m-5.5,3.4l9.1,-4.6m11,-3.1l.3,-.9m-3.6,1.3l3.3,-.4m.3,-.9l-3.6,1.3m-5.2,3.3l8.8,-4.6m11.3,-3v-.9m-3.6,1.2l3.6,-.3m0,-.9l-3.6,1.2m-5.2,3.3l8.8,-4.5m11.3,-3.1l.4,-.9m-3.7,1.2l3.3,-.3m.4,-.9l-3.7,1.2m-5.5,3.1l9.2,-4.3m11,-3.1l.3,-.9m-3.7,1.3l3.4,-.4m.3,-.9l-3.7,1.3m-5.2,3l8.9,-4.3m-64.8,14.4v-.6m-3.7,.9l3.7,-.3m0,-.6l-3.7,.9m-5.2,3.3l8.9,-4.2M141,289.8l.3,-.6m-3.7,.9l3.4,-.3m.3,-.6l-3.7,.9m-5.5,3.4l9.2,-4.3m11,-3.4l.3,-.6m-3.7,.9l3.4,-.3m.3,-.6l-3.7,.9m-5.2,3.4l8.9,-4.3m11.3,-3.3v-.6m-3.7,.9l3.7,-.3m0,-.6l-3.7,.9m-5.2,3.3l8.9,-4.2m11.3,-3.4l.3,-.6m-3.7,.9l3.4,-.3m.3,-.6l-3.7,.9m-5.1,3.4l8.8,-4.3m-65.1,14l.3,-.6m-3.6,1.2l3.3,-.6m.3,-.6l-3.6,1.2m-5.2,3.1l8.8,-4.3M122,287.4v-.7m-3.6,1.3l3.6,-.6m0,-.7l-3.6,1.3m-5.2,3l8.8,-4.3m11.3,-3.3l.3,-.6M130,284l3.3,-.6m.3,-.6L130,284m-5.2,3.1l8.8,-4.3" class="g6_20"/>
<path d="M348.2,370.7l-4.6,1.9m-12,-5.9l-4.6,1.9m-11.6,-6l-4.6,2m-11.7,-5.5l-4.6,1.9m121.8,-9l4.8,1.2m-16.6,4.4l4.8,1.2M393,363.1l4.8,1.3m-16.3,4.4l4.8,1.2m-16,4.3l4.8,1.2M344.9,242.3l77.9,18.6m0,0l-54.4,26.9m54.4,62.7V260.9m0,89.6L368.4,377m0,0V287.8m-4,86.8l-4.6,1.9M290.5,358.4L368.4,377M290.5,358.4V268.9M288,351.2h4.9M288,332.3h4.9M288,313.6h4.9M288,294.7h4.9M288,276.1h4.9m-2.4,-7.2l77.9,18.9M344.9,242.3l-54.4,26.6M155.3,550.2l-4.6,1.9m-11.9,-5.9l-4.6,1.9m-11.6,-5.9l-4.6,1.9m-11.7,-5.5l-4.6,1.9m121.8,-9l4.8,1.2m-16.6,4.4l4.8,1.2m-16.3,4.4l4.8,1.2m-16.3,4.4l4.8,1.3m-16,4.2l4.7,1.3M152.1,417.2L230,435.9m0,0l-54.4,26.8M230,530V435.9m0,94.1l-54.4,26.6m0,0V462.7m-4,91.4L167,556M97.7,537.9l77.9,18.7M97.7,537.9V443.8m-2.5,85.1h4.9M95.2,509.8h4.9M95.2,490.6h4.9M95.2,471.7h4.9M95.2,452.4h4.9m-2.4,-8.6l77.9,18.9M152.1,417.2L97.7,443.8" class="g7_20"/>
<path d="M365.8,513.9l-.3,-3m-2.7,3.3l3,-.3m-.3,-3l-2.7,3.3m-3.1,11.3l5.8,-14.6m12.8,-.6v-3.1m-2.7,3.4l2.7,-.3m0,-3.1l-2.7,3.4m-3.4,11.3l6.1,-14.7m12.9,-.6l-.3,-3.1m-2.5,3.4l2.8,-.3m-.3,-3.1l-2.5,3.4m-3.3,11.3l5.8,-14.7m13.1,-.6l-.3,-3m-2.7,3.3l3,-.3m-.3,-3l-2.7,3.3m-3.1,11.3l5.8,-14.6m12.8,-.6v-3.1m-2.7,3.4l2.7,-.3m0,-3.1l-2.7,3.4m-3.4,11.3l6.1,-14.7m-68.4,15.3v-3.1m-2.8,3.4l2.8,-.3m0,-3.1l-2.8,3.4M342,523.1l6.1,-14.7m12.8,-.6l-.3,-3m-2.7,3.3l3,-.3m-.3,-3l-2.7,3.3m-3.1,11.3l5.8,-14.6m12.8,-.6v-3.1m-2.7,3.4l2.7,-.3m0,-3.1l-2.7,3.4m-3.4,11.3l6.1,-14.7m12.9,-.6v-3.1m-2.8,3.4l2.8,-.3m0,-3.1l-2.8,3.4m-3.3,11.3l6.1,-14.7m12.8,-.6l-.3,-3m-2.7,3.3l3,-.3m-.3,-3l-2.7,3.3M393,508.4l5.8,-14.6m-68.1,14.9l-.3,-3m-2.8,3.3l3.1,-.3m-.3,-3l-2.8,3.3m-3.3,11.3l6.1,-14.6m12.8,-.6V502m-2.8,3.4l2.8,-.3m0,-3.1l-2.8,3.4m-3.3,11.3L343.2,502m12.8,-.6l-.3,-3.1m-2.4,3.4l2.7,-.3m-.3,-3.1l-2.4,3.4M349.9,513l5.8,-14.7m13.2,-.6l-.3,-3m-2.8,3.3l3.1,-.3m-.3,-3l-2.8,3.3m-3,11.3l5.8,-14.6m12.8,-.6V491m-2.8,3.4l2.8,-.3m0,-3.1l-2.8,3.4m-3.3,11.3L381.4,491m-68.5,15v-3.1m-2.7,3.4l2.7,-.3m0,-3.1l-2.7,3.4m-3.4,11.3l6.1,-14.7m12.9,-.6l-.3,-3m-2.8,3.3l3.1,-.3m-.3,-3l-2.8,3.3m-3,11.3l5.8,-14.6m12.8,-.6v-3.1m-2.7,3.4l2.7,-.3m0,-3.1l-2.7,3.4m-3.4,11.3l6.1,-14.7m12.8,-.6v-3.1m-2.7,3.4l2.7,-.3m0,-3.1l-2.7,3.4M345,506.6l6.1,-14.7m12.9,-.6l-.3,-3m-2.8,3.3l3.1,-.3m-.3,-3l-2.8,3.3m-3,11.3l5.8,-14.6m-68.2,15.2l-.3,-3m-2.7,3.3l3,-.3m-.3,-3l-2.7,3.3m-3.4,11l6.1,-14.3m12.9,-.9v-2.8m-2.8,3.4l2.8,-.6m0,-2.8l-2.8,3.4m-3.3,11l6.1,-14.4m12.8,-.9l-.3,-2.7m-2.8,3l3.1,-.3m-.3,-2.7l-2.8,3m-3,11.3l5.8,-14.3m13.1,-1l-.3,-2.7m-2.7,3l3,-.3m-.3,-2.7l-2.7,3m-3.1,11.3l5.8,-14.3m12.9,-.9v-2.8m-2.8,3.1l2.8,-.3m0,-2.8l-2.8,3.1m-3.4,11.3l6.2,-14.4m19.5,49.5l-.3,-3m-2.7,3.3l3,-.3m-.3,-3l-2.7,3.3m-3.1,11.3l5.8,-14.6m12.8,-.6v-3.1m-2.7,3.4l2.7,-.3m0,-3.1l-2.7,3.4m-3.4,11.3l6.1,-14.7m12.9,-.6l-.3,-3.1m-2.5,3.4l2.8,-.3m-.3,-3.1l-2.5,3.4m-3.3,11.3l5.8,-14.7m13.1,-.6l-.3,-3m-2.7,3.3l3,-.3m-.3,-3l-2.7,3.3m-3.1,11.3l5.8,-14.6m12.8,-.6v-3.1m-2.7,3.4l2.7,-.3m0,-3.1l-2.7,3.4m-3.4,11.3l6.1,-14.7m-68.4,15v-3.1m-2.8,3.4l2.8,-.3m0,-3.1l-2.8,3.4M342,544.2l6.1,-14.7m12.8,-.6l-.3,-3.1m-2.7,3.4l3,-.3m-.3,-3.1l-2.7,3.4m-3.1,11.3l5.8,-14.7m12.8,-.6v-3m-2.7,3.3l2.7,-.3m0,-3l-2.7,3.3m-3.4,11.3l6.1,-14.6m12.9,-.6v-3.1m-2.8,3.4l2.8,-.3m0,-3.1l-2.8,3.4m-3.3,11.3l6.1,-14.7m12.8,-.6l-.3,-3.1m-2.7,3.4l3,-.3m-.3,-3.1l-2.7,3.4M393,529.5l5.8,-14.7m-68.1,15l-.3,-2.7m-2.8,3l3.1,-.3m-.3,-2.7l-2.8,3m-3.3,11.3l6.1,-14.3m12.8,-.9v-2.8m-2.8,3.1l2.8,-.3m0,-2.8l-2.8,3.1m-3.3,11.3l6.1,-14.4m12.8,-.9l-.3,-2.8m-2.4,3.1l2.7,-.3m-.3,-2.8l-2.4,3.1m-3.4,11.3l5.8,-14.4m13.2,-.9l-.3,-2.7m-2.8,3l3.1,-.3m-.3,-2.7l-2.8,3m-3,11.3l5.8,-14.3m12.8,-.9v-3.1m-2.8,3.4l2.8,-.3m0,-3.1l-2.8,3.4m-3.3,11.3l6.1,-14.7m-68.5,15.3v-3.1m-2.7,3.4l2.7,-.3m0,-3.1l-2.7,3.4M306.8,539l6.1,-14.7m12.9,-.6l-.3,-3m-2.8,3.3l3.1,-.3m-.3,-3l-2.8,3.3m-3,11.3l5.8,-14.6m12.8,-.7v-3m-2.7,3.3l2.7,-.3m0,-3l-2.7,3.3m-3.4,11.4L338.3,517m12.8,-.6v-3.1m-2.7,3.4l2.7,-.3m0,-3.1l-2.7,3.4M345,528l6.1,-14.7m12.9,-.6l-.3,-3m-2.8,3.3l3.1,-.3m-.3,-3l-2.8,3.3m-3,11.3l5.8,-14.6m-68.2,14.9l-.3,-3m-2.7,3.3l3,-.3m-.3,-3l-2.7,3.3m-3.4,11.3l6.1,-14.6m12.9,-.6v-3.1m-2.8,3.4l2.8,-.3m0,-3.1l-2.8,3.4M302,532.6l6.1,-14.7m12.8,-.6l-.3,-3.1m-2.8,3.4l3.1,-.3m-.3,-3.1l-2.8,3.4m-3,11.3l5.8,-14.7m13.1,-.6l-.3,-3m-2.7,3.3l3,-.3m-.3,-3l-2.7,3.3m-3.1,11.3l5.8,-14.6m12.9,-.6v-3.1m-2.8,3.4l2.8,-.3m0,-3.1l-2.8,3.4m-3.4,11.3l6.2,-14.7m19.5,-35.4l-.3,-2.8m-2.7,3.1l3,-.3m-.3,-2.8l-2.7,3.1m-3.1,11.3l5.8,-14.4m12.8,-.9V465m-2.7,3.1l2.7,-.3m0,-2.8l-2.7,3.1m-3.4,11.3L378.3,465m12.9,-.9l-.3,-2.7m-2.5,3l2.8,-.3m-.3,-2.7l-2.5,3m-3.3,11.3l5.8,-14.3m13.1,-.9l-.3,-2.8m-2.7,3.1l3,-.3m-.3,-2.8l-2.7,3.1m-3.1,11.3l5.8,-14.4m12.8,-.9V454m-2.7,3.1l2.7,-.3m0,-2.8l-2.7,3.1m-3.4,11.3L416.5,454m-68.4,15v-3m-2.8,3.3l2.8,-.3m0,-3l-2.8,3.3M342,480.6L348.1,466m12.8,-.7l-.3,-3m-2.7,3.4l3,-.4m-.3,-3l-2.7,3.4M354.8,477l5.8,-14.7m12.8,-.6v-3.1m-2.7,3.4l2.7,-.3m0,-3.1l-2.7,3.4m-3.4,11.3l6.1,-14.7m12.9,-.6v-3m-2.8,3.3l2.8,-.3m0,-3l-2.8,3.3m-3.3,11.3L386.3,455m12.8,-.7l-.3,-3m-2.7,3.4l3,-.4m-.3,-3l-2.7,3.4M393,466l5.8,-14.7m-68.1,15l-.3,-3.1m-2.8,3.4l3.1,-.3m-.3,-3.1l-2.8,3.4m-3.3,11.3l6.1,-14.7m12.8,-.6v-3.1m-2.8,3.4l2.8,-.3m0,-3.1l-2.8,3.4m-3.3,11.3l6.1,-14.7m12.8,-.6l-.3,-3m-2.4,3.3l2.7,-.3m-.3,-3l-2.4,3.3m-3.4,11.3l5.8,-14.6m13.2,-.6l-.3,-3.1m-2.8,3.4l3.1,-.3m-.3,-3.1l-2.8,3.4m-3,11.3l5.8,-14.7m12.8,-.6v-3.1m-2.8,3.4l2.8,-.3m0,-3.1l-2.8,3.4m-3.3,11.3l6.1,-14.7m-68.5,15v-3m-2.7,3.3l2.7,-.3m0,-3l-2.7,3.3m-3.4,11.3l6.1,-14.6m12.9,-.7l-.3,-3m-2.8,3.4l3.1,-.4m-.3,-3l-2.8,3.4m-3,11.3l5.8,-14.7m12.8,-.6v-3.1m-2.7,3.4l2.7,-.3m0,-3.1l-2.7,3.4m-3.4,11.3l6.1,-14.7m12.8,-.6v-3m-2.7,3.3l2.7,-.3m0,-3l-2.7,3.3M345,464.1l6.1,-14.6m12.9,-.7l-.3,-3m-2.8,3.4l3.1,-.4m-.3,-3l-2.8,3.4m-3,11.3l5.8,-14.7m-68.2,15.3l-.3,-3.1m-2.7,3.4l3,-.3m-.3,-3.1l-2.7,3.4m-3.4,11.3L295.2,458m12.9,-.6v-3.1m-2.8,3.4l2.8,-.3m0,-3.1l-2.8,3.4M302,469l6.1,-14.7m12.8,-.6l-.3,-3m-2.8,3.3l3.1,-.3m-.3,-3l-2.8,3.3m-3,11.3l5.8,-14.6m13.1,-.6l-.3,-3.1m-2.7,3.4l3,-.3m-.3,-3.1l-2.7,3.4m-3.1,11.3L333.4,447m12.9,-.6v-3.1m-2.8,3.4l2.8,-.3m0,-3.1l-2.8,3.4m-3.4,11l6.2,-14.4m19.5,49.5l-.3,-3m-2.7,3.4l3,-.4m-.3,-3l-2.7,3.4m-3.1,11.3l5.8,-14.7m12.8,-.6v-3.1m-2.7,3.4l2.7,-.3m0,-3.1l-2.7,3.4m-3.4,11.3l6.1,-14.7m12.9,-.6l-.3,-3m-2.5,3.3l2.8,-.3m-.3,-3l-2.5,3.3m-3.3,11.3l5.8,-14.6m13.1,-.7l-.3,-3m-2.7,3.4l3,-.4m-.3,-3l-2.7,3.4m-3.1,11.3l5.8,-14.7m12.8,-.6v-3.1m-2.7,3.4l2.7,-.3m0,-3.1l-2.7,3.4m-3.4,11.3l6.1,-14.7m-68.4,15V487m-2.8,3.4l2.8,-.3m0,-3.1l-2.8,3.4M342,501.7L348.1,487m12.8,-.6l-.3,-3m-2.7,3.3l3,-.3m-.3,-3l-2.7,3.3M354.8,498l5.8,-14.6m12.8,-.6v-3.1m-2.7,3.4l2.7,-.3m0,-3.1l-2.7,3.4m-3.4,11.3l6.1,-14.7m12.9,-.6V476m-2.8,3.4l2.8,-.3m0,-3.1l-2.8,3.4m-3.3,11.3L386.3,476m12.8,-.6l-.3,-3m-2.7,3.3l3,-.3m-.3,-3l-2.7,3.3M393,487l5.8,-14.6m-68.1,14.9l-.3,-2.7m-2.8,3.1l3.1,-.4m-.3,-2.7l-2.8,3.1M324.3,499l6.1,-14.4m12.8,-.9v-2.8m-2.8,3.1l2.8,-.3m0,-2.8l-2.8,3.1m-3.3,11.3l6.1,-14.4M356,480l-.3,-2.7m-2.4,3L356,480m-.3,-2.7l-2.4,3m-3.4,11.3l5.8,-14.3m13.2,-1l-.3,-2.7m-2.8,3.1l3.1,-.4m-.3,-2.7l-2.8,3.1m-3,11.3l5.8,-14.4m12.8,-.9v-2.8m-2.8,3.1l2.8,-.3m0,-2.8l-2.8,3.1m-3.3,11.3l6.1,-14.4m-68.5,15v-3.1m-2.7,3.4l2.7,-.3m0,-3.1l-2.7,3.4m-3.4,11.3l6.1,-14.7m12.9,-.6l-.3,-3m-2.8,3.3l3.1,-.3m-.3,-3l-2.8,3.3m-3,11.3l5.8,-14.6m12.8,-.6v-3.1m-2.7,3.4l2.7,-.3m0,-3.1l-2.7,3.4m-3.4,11.3l6.1,-14.7m12.8,-.6v-3.1m-2.7,3.4l2.7,-.3m0,-3.1l-2.7,3.4M345,485.5l6.1,-14.7m12.9,-.6l-.3,-3m-2.8,3.3l3.1,-.3m-.3,-3l-2.8,3.3m-3,11.3l5.8,-14.6m-68.2,15l-.3,-3.1m-2.7,3.4l3,-.3m-.3,-3.1l-2.7,3.4m-3.4,11.3l6.1,-14.7m12.9,-.6v-3.1m-2.8,3.4l2.8,-.3m0,-3.1l-2.8,3.4M302,490.1l6.1,-14.7m12.8,-.6l-.3,-3m-2.8,3.3l3.1,-.3m-.3,-3l-2.8,3.3m-3,11.3l5.8,-14.6m13.1,-.6l-.3,-3.1m-2.7,3.4l3,-.3m-.3,-3.1l-2.7,3.4m-3.1,11.3l5.8,-14.7m12.9,-.6v-3.1m-2.8,3.4l2.8,-.3m0,-3.1l-2.8,3.4m-3.4,11.3l6.2,-14.7m19.5,-14l-.3,-3.1m-2.7,3.4l3,-.3m-.3,-3.1l-2.7,3.4M359.7,462l5.8,-14.7m12.8,-.6v-3m-2.7,3.3l2.7,-.3m0,-3l-2.7,3.3m-3.4,11.3l6.1,-14.6m12.9,-.7l-.3,-3m-2.5,3.3l2.8,-.3m-.3,-3l-2.5,3.3m-3.3,11.4L390.9,440m13.1,-.6l-.3,-3.1m-2.7,3.4l3,-.3m-.3,-3.1l-2.7,3.4M397.9,451l5.8,-14.7m12.8,-.6v-3m-2.7,3.3l2.7,-.3m0,-3l-2.7,3.3m-3.4,11.3l6.1,-14.6m-68.4,14.9v-3m-2.8,3.3l2.8,-.3m0,-3l-2.8,3.3M342,459.2l6.1,-14.6m12.8,-.6l-.3,-3.1m-2.7,3.4l3,-.3m-.3,-3.1l-2.7,3.4m-3.1,11.3l5.8,-14.7m12.8,-.6v-3.1m-2.7,3.4l2.7,-.3m0,-3.1l-2.7,3.4m-3.4,11.3l6.1,-14.7m12.9,-.6v-3m-2.8,3.3l2.8,-.3m0,-3l-2.8,3.3m-3.3,11.3l6.1,-14.6m12.8,-.6l-.3,-3.1m-2.7,3.4l3,-.3m-.3,-3.1l-2.7,3.4M393,444.6l5.8,-14.7m-68.1,15.3l-.3,-3.1m-2.8,3.4l3.1,-.3m-.3,-3.1l-2.8,3.4m-3.3,11l6.1,-14.4m12.8,-.9v-2.7m-2.8,3.3l2.8,-.6m0,-2.7l-2.8,3.3m-3.3,11l6.1,-14.3m12.8,-1l-.3,-2.7m-2.4,3.4l2.7,-.7m-.3,-2.7l-2.4,3.4m-3.4,11l5.8,-14.4m13.2,-.9l-.3,-2.8m-2.8,3.1l3.1,-.3m-.3,-2.8l-2.8,3.1m-3,11.3l5.8,-14.4m12.8,-.9v-2.7m-2.8,3l2.8,-.3m0,-2.7l-2.8,3m-3.3,11.3l6.1,-14.3m-68.5,14.9v-3m-2.7,3.3l2.7,-.3m0,-3l-2.7,3.3M306.8,454l6.1,-14.6m12.9,-.6l-.3,-3.1m-2.8,3.4l3.1,-.3m-.3,-3.1l-2.8,3.4m-3,11.3l5.8,-14.7m12.8,-.6V432m-2.7,3.4l2.7,-.3m0,-3.1l-2.7,3.4m-3.4,11.3L338.3,432m12.8,-.6v-3m-2.7,3.3l2.7,-.3m0,-3l-2.7,3.3M345,443l6.1,-14.6m12.9,-.6l-.3,-3.1m-2.8,3.4l3.1,-.3m-.3,-3.1l-2.8,3.4m-3,11.3l5.8,-14.7m-68.2,15l-.3,-3.1m-2.7,3.4l3,-.3m-.3,-3.1l-2.7,3.4m-3.4,11.3l6.1,-14.7m12.9,-.6v-3m-2.8,3.3l2.8,-.3m0,-3l-2.8,3.3M302,447.6L308.1,433m12.8,-.7l-.3,-3m-2.8,3.4l3.1,-.4m-.3,-3l-2.8,3.4m-3,11.3l5.8,-14.7m13.1,-.6l-.3,-3.1m-2.7,3.4l3,-.3m-.3,-3.1l-2.7,3.4m-3.1,11.3l5.8,-14.7m12.9,-.6v-3m-2.8,3.3l2.8,-.3m0,-3l-2.8,3.3m-3.4,11.3L346.3,422" class="g6_20"/>
<path d="M106.9,367.1l-4.7,1.9m23.6,.6l-4.7,1.9m24,.5l-4.7,1.9m23.6,.6l-4.7,1.9m23.7,.2l-4.8,1.9m9.4,.4V273.5m-.2,103.6l4.6,1.7m6.7,-5.7l4.6,1.8m7,-5.7l4.3,1.7m7,-5.7l4.6,1.7m13,-6.1l-51.6,18.1m45.3,-17.7l4.7,1.7M146.9,244.1l92.3,11.6m0,0l-51.6,17.8m51.6,87.3V255.7M92.9,357.9h4.8M92.9,336.2h4.8M92.9,314.6h4.8M92.9,292.9h4.8M92.9,271.2h4.8m-2.4,96.1l92.3,11.6M95.3,367.3V262.2m0,0l92.3,11.3M146.9,244.1L95.3,262.2M366,552V445.9m-37.8,98.8l-4.5,1.8m99.1,-10.7L366,552m51.5,-16.8l4.5,2.1m-17.4,1.6l4.6,2m-17.4,1.6l4.5,2.1m-17,1.6l4.5,2.1m-17.3,1.6l4.5,2M283.2,539.4L366,552M293.1,539.4l-4.5,2m22.2,.8l-4.5,1.9m39.6,3.3l-4.5,1.9m21.9,.8l-4.5,1.9M283.2,539.4v-106m-2.5,95.5h4.9m-4.9,-21.4h4.9m-4.9,-21.1h4.9M280.7,465h4.9m-4.9,-21h4.9M340,417.2l82.8,12.5m0,0L366,445.9M283.2,433.4L366,445.9M340,417.2l-56.8,16.2M422.8,535.8V429.7" class="g7_20"/>
<path d="M152.5,457.8l2.2,4.1m0,14.5l-2.2,-18.6m23.7,64.7L175,520.7m-2.3,2.2l3.5,-.4M175,520.7l-2.3,2.2m-.3,6.9l2.6,-9.1m13.2,-4.5v-1.9m-2.5,2.6l2.5,-.7m0,-1.9l-2.5,2.6m-2.8,7.8l5.3,-10.4m12,-4.1l1,-2.5m-2.6,3.2l1.6,-.7m1,-2.5l-2.6,3.2m-5.6,8.8l8.2,-12m11,-3.8l1.9,-2.5m-2.5,3.5l.6,-1m1.9,-2.5l-2.5,3.5m-8.2,9.7l10.7,-13.2m9.8,-3.8l3.5,-2.5m-2.9,3.8l-.6,-1.3m3.5,-2.5l-2.9,3.8m-11,11l13.9,-14.8m-69.5,23.3l-1.6,-2.2m-.9,2.2h2.5m-1.6,-2.2l-.9,2.2m2.5,7.9l-1.6,-10.1m13.6,-4.1l-.6,-2.2m-1,2.5l1.6,-.3m-.6,-2.2l-1,2.5m-.3,8.9l1.3,-11.4m12.6,-3.8l.6,-2.8m-1.2,3.1l.6,-.3m.6,-2.8l-1.2,3.1m-2.9,9.8l4.1,-12.9m11.4,-3.5l1.6,-2.8m-1.3,3.4l-.3,-.6m1.6,-2.8l-1.3,3.4m-5.7,10.8l7,-14.2m10.4,-3.5l2.9,-2.9m-1.6,3.8l-1.3,-.9m2.9,-2.9l-1.6,3.8M199,506.1l9.8,-15.5m-68.9,23.7l-2.2,-2.5m0,2.2l2.2,.3m-2.2,-2.5V514m5.7,8.9l-5.7,-11.1M151.9,508l-1.3,-2.8m0,2.8h1.3m-1.3,-2.8V508m2.9,9.8l-2.9,-12.6m13,-3.2v-3.1m0,0V502m0,10.8V498.9m12,-3.2l1.3,-3.2m0,3.5l-1.3,-.3m1.3,-3.2V496M174,507.7l2.9,-15.2m10.7,-3.1l2.2,-3.5m0,4.1l-2.2,-.6m2.2,-3.5V490m-5.7,12.7l5.7,-16.8m-68.2,24.3l-2.8,-2.8m1.5,1.9l1.3,.9m-2.8,-2.8l1.5,1.9m8.2,10.1l-9.7,-12m14.8,-3.5L132,500.8m1.3,2.8l.3,.3M132,500.8l1.3,2.8m5.7,10.7l-7,-13.5m13.6,-2.9l-.6,-3.5m1.2,3.2l-.6,.3m-.6,-3.5l1.2,3.2m2.9,11.7L145,494.4m12.6,-2.8l.6,-3.5m1,3.5h-1.6m.6,-3.5l1,3.5m0,12.6l-1,-16.1m11.4,-2.8l1.6,-3.8m.9,4.1l-2.5,-.3m1.6,-3.8l.9,4.1m-2.5,13.6l1.6,-17.7m-67.6,24.6l-3.5,-3.4m2.9,2.2l.6,1.2m-3.5,-3.4l2.9,2.2m11,11L100.1,502.7m15.2,-2.9l-1.9,-3.5m2.5,2.6l-.6,.9m-1.9,-3.5l2.5,2.6m8.2,12L113.4,496.3m13.9,-2.5l-1,-3.8m2.6,2.9l-1.6,.9m-1,-3.8l2.6,2.9m5.6,12.9L126.3,490m13,-2.5v-4.1m2.5,3.5l-2.5,.6m0,-4.1l2.5,3.5m2.8,13.9l-5.3,-17.4m12,-2.2l1.2,-4.1m2.2,3.8l-3.4,.3m1.2,-4.1l2.2,3.8m0,14.8l-2.2,-18.6m23.7,64.7L175,539.9m-2.3,1.9h3.5M175,539.9l-2.3,1.9m-.3,7.3l2.6,-9.2m13.2,-4.4v-2.2m-2.5,2.5l2.5,-.3m0,-2.2l-2.5,2.5m-2.8,8.2l5.3,-10.7m12,-4.1l1,-2.2m-2.6,2.8l1.6,-.6m1,-2.2l-2.6,2.8M193,539l8.2,-12m11,-4.1l1.9,-2.2m-2.5,3.1l.6,-.9m1.9,-2.2l-2.5,3.1m-8.2,10.1l10.7,-13.2m9.8,-3.8l3.5,-2.9m-2.9,3.8l-.6,-.9m3.5,-2.9l-2.9,3.8m-11,11.1L227.4,514m-69.5,23.7l-1.6,-2.5m-.9,2.2l2.5,.3m-1.6,-2.5l-.9,2.2m2.5,8.2l-1.6,-10.4m13.6,-3.8l-.6,-2.5m-1,2.5h1.6m-.6,-2.5l-1,2.5m-.3,9.1l1.3,-11.6m12.6,-3.8l.6,-2.6m-1.2,2.9l.6,-.3m.6,-2.6l-1.2,2.9m-2.9,10.1l4.1,-13m11.4,-3.7l1.6,-2.6m-1.3,3.2l-.3,-.6m1.6,-2.6l-1.3,3.2m-5.7,11l7,-14.2m10.4,-3.4l2.9,-3.2m-1.6,3.8l-1.3,-.6m2.9,-3.2l-1.6,3.8m-8.2,12l9.8,-15.8m-68.9,24l-2.2,-2.9m0,2.3l2.2,.6m-2.2,-2.9V533m5.7,9.1l-5.7,-11.4m14.2,-3.4l-1.3,-2.9m0,2.6l1.3,.3m-1.3,-2.9V527m2.9,10.1l-2.9,-12.7m13,-3.4v-2.9m0,0V521m0,11V518.1m12,-3.5l1.3,-3.1m0,3.5l-1.3,-.4m1.3,-3.1V515M174,527l2.9,-15.5m10.7,-2.9l2.2,-3.4m0,3.8l-2.2,-.4m2.2,-3.4V509m-5.7,12.9l5.7,-16.7m-68.2,24.3l-2.8,-3.2m1.5,2.2l1.3,1m-2.8,-3.2l1.5,2.2m8.2,9.8l-9.7,-12m14.8,-3.1L132,520m1.3,2.5l.3,.7M132,520l1.3,2.5m5.7,11.1L132,520m13.6,-3.1l-.6,-3.5m1.2,3.1l-.6,.4m-.6,-3.5l1.2,3.1m2.9,12L145,513.4m12.6,-2.9l.6,-3.4m1,3.4h-1.6m.6,-3.4l1,3.4m0,13l-1,-16.4m11.4,-2.6l1.6,-3.7m.9,3.7h-2.5m1.6,-3.7l.9,3.7m-2.5,13.9l1.6,-17.6m-67.6,24.6l-3.5,-3.5m2.9,2.2l.6,1.3m-3.5,-3.5l2.9,2.2m11,10.8l-13.9,-13m15.2,-2.8l-1.9,-3.5m2.5,2.5l-.6,1m-1.9,-3.5l2.5,2.5m8.2,11.7L113.4,515.6m13.9,-2.8l-1,-3.8m2.6,3.1l-1.6,.7m-1,-3.8l2.6,3.1m5.6,12.6L126.3,509m13,-2.6v-3.7m2.5,3.4l-2.5,.3m0,-3.7l2.5,3.4m2.8,13.9l-5.3,-17.3m12,-2.3l1.2,-4.1m2.2,3.8l-3.4,.3m1.2,-4.1l2.2,3.8m0,14.9l-2.2,-18.7m-1.2,-72.6l1.2,-4.1m2.2,4.1h-3.4m1.2,-4.1l2.2,4.1m0,14.5l-2.2,-18.6m23.7,64.7L175,482.4m-2.3,2.2l3.5,-.3M175,482.4l-2.3,2.2m-.3,7l2.6,-9.2M188.2,478v-1.9m-2.5,2.6l2.5,-.7m0,-1.9l-2.5,2.6m-2.8,7.9l5.3,-10.5m12,-4.4l1,-2.2m-2.6,3.1l1.6,-.9m1,-2.2l-2.6,3.1m-5.6,8.9l8.2,-12m11,-3.8l1.9,-2.5m-2.5,3.4l.6,-.9m1.9,-2.5l-2.5,3.4m-8.2,9.8l10.7,-13.2m9.8,-3.8l3.5,-2.5m-2.9,3.8l-.6,-1.3m3.5,-2.5l-2.9,3.8m-11,10.7l13.9,-14.5m-69.5,23.3L156.3,478m-.9,2.2h2.5M156.3,478l-.9,2.2m2.5,7.9L156.3,478m13.6,-4.1l-.6,-2.5m-1,2.8l1.6,-.3m-.6,-2.5l-1,2.8m-.3,8.9l1.3,-11.7m12.6,-3.8l.6,-2.5m-1.2,3.1l.6,-.6m.6,-2.5l-1.2,3.1m-2.9,9.8l4.1,-12.9m11.4,-3.5l1.6,-2.8m-1.3,3.4l-.3,-.6m1.6,-2.8l-1.3,3.4M188.5,473l7,-14.2m10.4,-3.5l2.9,-3.2m-1.6,4.1l-1.3,-.9m2.9,-3.2l-1.6,4.1M199,467.9l9.8,-15.8m-68.9,24l-2.2,-2.5m0,1.9l2.2,.6m-2.2,-2.5v1.9m5.7,9.1l-5.7,-11m14.2,-3.8L150.6,467m0,2.5l1.3,.3M150.6,467v2.5m2.9,10.1L150.6,467m13,-3.5v-2.8m0,0v2.8m0,11V460.7m12,-3.2l1.3,-3.2m0,3.2h-1.3m1.3,-3.2v3.2m-2.9,12l2.9,-15.2m10.7,-3.1l2.2,-3.5m0,3.8l-2.2,-.3m2.2,-3.5v3.8m-5.7,12.9l5.7,-16.7M121.6,472l-2.8,-3.1m1.5,2.2l1.3,.9m-2.8,-3.1l1.5,2.2m8.2,10.1l-9.7,-12.3m14.8,-3.2L132,462.5m1.3,2.6l.3,.6M132,462.5l1.3,2.6m5.7,11l-7,-13.6m13.6,-3.1l-.6,-3.2m1.2,2.9l-.6,.3m-.6,-3.2l1.2,2.9m2.9,12L145,456.2m12.6,-2.8l.6,-3.8m1,3.5l-1.6,.3m.6,-3.8l1,3.5m0,12.9l-1,-16.4m11.4,-2.5l1.6,-3.8m.9,3.8h-2.5m1.6,-3.8l.9,3.8M169.6,461l1.6,-17.7m-67.6,24.6l-3.5,-3.5m2.9,2.2l.6,1.3m-3.5,-3.5l2.9,2.2m11,11.1L100.1,464.4m15.2,-2.8l-1.9,-3.5m2.5,2.6l-.6,.9m-1.9,-3.5l2.5,2.6m8.2,11.9L113.4,458.1m13.9,-2.8l-1,-3.5m2.6,2.9l-1.6,.6m-1,-3.5l2.6,2.9m5.6,12.9l-8.2,-15.8m13,-2.5v-4.1m2.5,3.4l-2.5,.7m0,-4.1l2.5,3.4m2.8,13.9l-5.3,-17.3m12,-2.2l1.2,-4.1m2.2,3.8l-3.4,.3m1.2,-4.1l2.2,3.8m0,14.8l-2.2,-18.6m23.7,64.7L175,501.7m-2.3,1.9h3.5M175,501.7l-2.3,1.9m-.3,7.3l2.6,-9.2m13.2,-4.4v-2.2m-2.5,2.5l2.5,-.3m0,-2.2l-2.5,2.5m-2.8,8.2l5.3,-10.7m12,-4.1l1,-2.2m-2.6,2.8l1.6,-.6m1,-2.2l-2.6,2.8m-5.6,9.2l8.2,-12m11,-4.2l1.9,-2.2m-2.5,3.2l.6,-1m1.9,-2.2l-2.5,3.2m-8.2,10.1l10.7,-13.3m9.8,-4.1l3.5,-2.5m-2.9,3.8l-.6,-1.3m3.5,-2.5l-2.9,3.8m-11,11l13.9,-14.8m-69.5,23.7L156.3,497m-.9,2.2l2.5,.3M156.3,497l-.9,2.2m2.5,8.2L156.3,497m13.6,-3.8l-.6,-2.6m-1,2.6h1.6m-.6,-2.6l-1,2.6m-.3,9.1l1.3,-11.7m12.6,-3.7l.6,-2.6m-1.2,2.9l.6,-.3m.6,-2.6l-1.2,2.9m-2.9,10.1l4.1,-13m11.4,-3.8l1.6,-2.8m-1.3,3.5l-.3,-.7m1.6,-2.8l-1.3,3.5m-5.7,11l7,-14.5m10.4,-3.2l2.9,-3.1m-1.6,3.8l-1.3,-.7m2.9,-3.1l-1.6,3.8m-8.2,12l9.8,-15.8m-68.9,24l-2.2,-2.9m0,2.3l2.2,.6m-2.2,-2.9v2.3m5.7,8.8l-5.7,-11.1m14.2,-3.4l-1.3,-2.9m0,2.6l1.3,.3m-1.3,-2.9v2.6m2.9,9.7l-2.9,-12.3m13,-3.4v-3.2m0,0v3.2m0,11V479.6m12,-3.2l1.3,-3.1m0,3.5l-1.3,-.4m1.3,-3.1v3.5m-2.9,12l2.9,-15.5m10.7,-2.9l2.2,-3.4m0,3.8l-2.2,-.4m2.2,-3.4v3.8m-5.7,12.9L189.8,467m-68.2,24.3l-2.8,-3.2m1.5,2.2l1.3,1m-2.8,-3.2l1.5,2.2m8.2,9.8l-9.7,-12M133.6,485L132,481.8m1.3,2.5l.3,.7M132,481.8l1.3,2.5m5.7,10.8l-7,-13.3m13.6,-3.1l-.6,-3.5m1.2,3.1l-.6,.4m-.6,-3.5l1.2,3.1m2.9,11.7L145,475.2m12.6,-2.9l.6,-3.4m1,3.4h-1.6m.6,-3.4l1,3.4m0,13l-1,-16.4m11.4,-2.6l1.6,-3.8m.9,3.8h-2.5m1.6,-3.8l.9,3.8m-2.5,13.9l1.6,-17.7m-67.6,24.7l-3.5,-3.5m2.9,2.2l.6,1.3m-3.5,-3.5l2.9,2.2m11,10.7L100.1,483.7m15.2,-2.8l-1.9,-3.8m2.5,2.8l-.6,1m-1.9,-3.8l2.5,2.8m8.2,11.7L113.4,477.1m13.9,-2.6l-1,-3.7m2.6,3.1l-1.6,.6m-1,-3.7l2.6,3.1m5.6,12.7l-8.2,-15.8m13,-2.6v-3.8m2.5,3.5l-2.5,.3m0,-3.8l2.5,3.5m2.8,13.6l-5.3,-17.1m12,-2.2l1.2,-4.4m2.2,4.1l-3.4,.3m24.9,2.9L175,463.2m-2.3,2.2l3.5,-.3M175,463.2l-2.3,2.2m-.3,7.2l2.6,-9.4m13.2,-4.1v-2.2m-2.5,2.5l2.5,-.3m0,-2.2l-2.5,2.5m-2.8,8.2l5.3,-10.7m12,-4.1l1,-2.3m-2.6,2.9l1.6,-.6m1,-2.3l-2.6,2.9m-5.6,9.1l8.2,-12m11,-4.1l1.9,-2.5m-2.5,3.5l.6,-1m1.9,-2.5l-2.5,3.5m-8.2,10.1l10.7,-13.6m9.8,-3.8l3.5,-2.5m-2.9,3.8l-.6,-1.3m3.5,-2.5l-2.9,3.8m-11,11l13.9,-14.8M157.9,461l-1.6,-2.2m-.9,2.2h2.5m-1.6,-2.2l-.9,2.2m2.5,7.9l-1.6,-10.1M169.9,455l-.6,-2.6m-1,2.6h1.6m-.6,-2.6l-1,2.6m-.3,8.8l1.3,-11.4m12.6,-3.8l.6,-2.5m-1.2,2.9l.6,-.4m.6,-2.5l-1.2,2.9m-2.9,10.1l4.1,-13m11.4,-3.8l1.6,-2.8m-1.3,3.5l-.3,-.7m1.6,-2.8l-1.3,3.5m-5.7,11l7,-14.5M205.9,436l2.9,-2.8m-1.6,3.8l-1.3,-1m2.9,-2.8l-1.6,3.8M199,449l9.8,-15.8m-68.9,23.7l-2.2,-2.6m0,2.2l2.2,.4m-2.2,-2.6v2.2m5.7,8.9l-5.7,-11.1m14.2,-3.4L150.6,448m0,2.5l1.3,.4M150.6,448v2.5m2.9,9.8L150.6,448m13,-3.5v-3.1m0,0v3.1m0,10.8V441.4m12,-3.2l1.3,-3.1m0,3.4l-1.3,-.3m1.3,-3.1v3.4M174,450.2l2.9,-15.1m10.7,-3.2l2.2,-3.1m0,3.7l-2.2,-.6m2.2,-3.1v3.7m-5.7,13l5.7,-16.7m-68.2,24l-2.8,-2.9m1.5,2.2l1.3,.7m-2.8,-2.9l1.5,2.2m8.2,9.8l-9.7,-12m14.8,-3.1L132,443.3m1.3,2.8l.3,.7M132,443.3l1.3,2.8m5.7,10.8l-7,-13.6m13.6,-2.9L145,437m1.2,3.1l-.6,.3M145,437l1.2,3.1m2.9,11.7L145,437m12.6,-2.9l.6,-3.5m1,3.5h-1.6m.6,-3.5l1,3.5m0,12.7l-1,-16.2m11.4,-2.8l1.6,-3.5m.9,3.8l-2.5,-.3m1.6,-3.5l.9,3.8m-2.5,13.6l1.6,-17.4m-67.6,24.3l-3.5,-3.1m2.9,2.2l.6,.9m-3.5,-3.1l2.9,2.2m11,10.7L100.1,445.5m15.2,-2.8l-1.9,-3.8m2.5,2.8l-.6,1m-1.9,-3.8l2.5,2.8m8.2,11.7L113.4,438.9m13.9,-2.6l-1,-3.8m2.6,3.2l-1.6,.6m-1,-3.8l2.6,3.2m5.6,12.6l-8.2,-15.8m13,-2.5v-3.8m2.5,3.5l-2.5,.3m0,-3.8l2.5,3.5m2.8,13.6l-5.3,-17.1" class="g6_20"/>
<path clip-path="url(#c4_20)" d="M366.3,829.9h45.5" class="g1_20"/>
<path clip-path="url(#c5_20)" d="M178.2,855.1h76" class="g1_20"/>
<path d="M155.8,934.3h4.8m198.4,0h4.8" class="g8_20"/>
<path d="M53.5,612.1H69.1v-9.9H53.5v9.9Z" class="g9_20"/>
<path d="M53.5,738.1H69.1v-9.8H53.5v9.8Z" class="g9_20"/>
<path d="M53.5,987.1H69.1v-9.8H53.5v9.8Z" class="g9_20"/>
</svg>