<?xml version="1.0" encoding="UTF-8" standalone="no"?>
<!DOCTYPE svg PUBLIC "-//W3C//DTD SVG 1.1//EN"
"http://www.w3.org/Graphics/SVG/1.1/DTD/svg11.dtd">
<svg viewBox="0 0 660 990" version="1.1" xmlns="http://www.w3.org/2000/svg" xmlns:xlink="http://www.w3.org/1999/xlink">
<defs>
<clipPath id="c0_100"><path d="M85.6,813.3v-4.8h45.6v4.8Z"/></clipPath>
<clipPath id="c1_100"><path d="M130.9,813.3v-4.8H238.3v4.8Z"/></clipPath>
<clipPath id="c2_100"><path d="M238,813.3v-4.8H339.2v4.8Z"/></clipPath>
<clipPath id="c3_100"><path d="M338.9,813.3v-4.8h61.4v4.8Z"/></clipPath>
<clipPath id="c4_100"><path d="M400,813.3v-4.8h56v4.8Z"/></clipPath>
<clipPath id="c5_100"><path d="M455.7,813.3v-4.8H574.4v4.8Z"/></clipPath>
<clipPath id="c6_100"><path d="M85.6,915.9v-5.1H574.4v5.1Z"/></clipPath>
<style type="text/css"><![CDATA[
.g0_100{
fill: #231F20;
}
.g1_100{
fill: none;
stroke: #231F20;
stroke-width: 0.381;
stroke-linecap: round;
stroke-linejoin: miter;
}
.g2_100{
fill: none;
stroke: #231F20;
stroke-width: 0.763;
stroke-linecap: round;
stroke-linejoin: miter;
}
]]></style>
</defs>
<path fill-rule="evenodd" d="M85.6,620.8H131v39.6H85.6V620.8Z" class="g0_100"/>
<path fill-rule="evenodd" d="M131,620.8H238.1v39.6H131V620.8Z" class="g0_100"/>
<path fill-rule="evenodd" d="M238.1,620.8h101v39.6h-101V620.8Z" class="g0_100"/>
<path fill-rule="evenodd" d="M339.1,620.8h61.1v39.6H339.1V620.8Z" class="g0_100"/>
<path fill-rule="evenodd" d="M400.2,620.8h55.6v39.6H400.2V620.8Z" class="g0_100"/>
<path fill-rule="evenodd" d="M455.8,620.8H574.4v39.6H455.8V620.8Z" class="g0_100"/>
<path clip-path="url(#c0_100)" d="M131.2,810.9H85.6" class="g1_100"/>
<path clip-path="url(#c1_100)" d="M238.3,810.9H130.9" class="g1_100"/>
<path clip-path="url(#c2_100)" d="M339.2,810.9H238" class="g1_100"/>
<path clip-path="url(#c3_100)" d="M400.3,810.9H338.9" class="g1_100"/>
<path clip-path="url(#c4_100)" d="M456,810.9H400" class="g1_100"/>
<path clip-path="url(#c5_100)" d="M574.4,810.9H455.7" class="g1_100"/>
<path clip-path="url(#c6_100)" d="M85.6,913.4H574.4" class="g2_100"/>
</svg>