<?xml version="1.0" encoding="UTF-8" standalone="no"?>
<!DOCTYPE svg PUBLIC "-//W3C//DTD SVG 1.1//EN"
"http://www.w3.org/Graphics/SVG/1.1/DTD/svg11.dtd">
<svg viewBox="0 0 770 1017" version="1.1" xmlns="http://www.w3.org/2000/svg" xmlns:xlink="http://www.w3.org/1999/xlink">
<defs>
<style type="text/css"><![CDATA[
.g0_359{
fill: none;
stroke: #000000;
stroke-width: 0.618;
stroke-linecap: butt;
stroke-linejoin: miter;
}
.g1_359{
stroke: #000000;
stroke-width: 0.88;
stroke-linecap: butt;
stroke-linejoin: miter;
}
.g2_359{
fill: none;
stroke: #000000;
stroke-width: 0.88;
stroke-linecap: butt;
stroke-linejoin: miter;
}
.g3_359{
fill: none;
stroke: #000000;
stroke-width: 0.44;
stroke-linecap: butt;
stroke-linejoin: miter;
stroke-dasharray: 4;
}
]]></style>
</defs>
<path d="M74.2,69.2H713.5" class="g0_359"/>
<path d="M366.6,130.9c0,2.4,-2,4.4,-4.4,4.4c-2.4,0,-4.4,-2,-4.4,-4.4c0,-2.5,2,-4.4,4.4,-4.4c2.4,0,4.4,1.9,4.4,4.4" class="g1_359"/>
<path d="M305,188.1c0,2.4,-2,4.4,-4.4,4.4c-2.4,0,-4.4,-2,-4.4,-4.4c0,-2.5,2,-4.4,4.4,-4.4c2.4,0,4.4,1.9,4.4,4.4" class="g1_359"/>
<path d="M423.8,188.1c0,2.4,-2,4.4,-4.4,4.4c-2.4,0,-4.4,-2,-4.4,-4.4c0,-2.5,2,-4.4,4.4,-4.4c2.4,0,4.4,1.9,4.4,4.4" class="g1_359"/>
<path d="M366.6,214.5c0,2.4,-2,4.4,-4.4,4.4c-2.4,0,-4.4,-2,-4.4,-4.4c0,-2.5,2,-4.4,4.4,-4.4c2.4,0,4.4,1.9,4.4,4.4" class="g1_359"/>
<path d="M401.8,258.5c0,2.4,-2,4.4,-4.4,4.4c-2.4,0,-4.4,-2,-4.4,-4.4c0,-2.5,2,-4.4,4.4,-4.4c2.4,0,4.4,1.9,4.4,4.4" class="g1_359"/>
<path d="M335.8,258.5c0,2.4,-2,4.4,-4.4,4.4c-2.4,0,-4.4,-2,-4.4,-4.4c0,-2.5,2,-4.4,4.4,-4.4c2.4,0,4.4,1.9,4.4,4.4" class="g1_359"/>
<path d="M291.8,302.5c0,2.4,-2,4.4,-4.4,4.4c-2.4,0,-4.4,-2,-4.4,-4.4c0,-2.5,2,-4.4,4.4,-4.4c2.4,0,4.4,1.9,4.4,4.4" class="g1_359"/>
<path d="M371,302.5c0,2.4,-2,4.4,-4.4,4.4c-2.4,0,-4.4,-2,-4.4,-4.4c0,-2.5,2,-4.4,4.4,-4.4c2.4,0,4.4,1.9,4.4,4.4" class="g1_359"/>
<path d="M467.8,232.1c0,2.4,-2,4.4,-4.4,4.4c-2.4,0,-4.4,-2,-4.4,-4.4c0,-2.5,2,-4.4,4.4,-4.4c2.4,0,4.4,1.9,4.4,4.4" class="g1_359"/>
<path d="M441.4,280.5c0,2.4,-2,4.4,-4.4,4.4c-2.4,0,-4.4,-2,-4.4,-4.4c0,-2.5,2,-4.4,4.4,-4.4c2.4,0,4.4,1.9,4.4,4.4" class="g1_359"/>
<path d="M494.2,280.5c0,2.4,-2,4.4,-4.4,4.4c-2.4,0,-4.4,-2,-4.4,-4.4c0,-2.5,2,-4.4,4.4,-4.4c2.4,0,4.4,1.9,4.4,4.4" class="g1_359"/>
<path d="M362.2,130.9l-61.6,57.2m61.6,-57.2v83.6m0,-83.6L463.4,232.1l26.4,48.4M463.4,232.1L437,280.5m-74.8,-66l-30.8,44l35.2,44m-35.2,-44l-44,44m74.8,-88l35.2,44" class="g2_359"/>
<path d="M357.8,130.9c-3.2,.5,-10.3,2.9,-13.2,4.4c-4.6,2.4,-13.8,9.9,-17.6,13.2c-3.2,2.8,-10.4,9.9,-13.2,13.2c-3.3,3.8,-11.4,12.2,-13.2,17.6c-.7,2.1,-.9,6.6,0,8.8c1.3,3.1,6.3,7.1,8.8,8.8c4.7,3.1,16.9,7,22,8.8c6.9,2.3,29.6,1.5,30.8,8.8c.6,3.6,-10.4,6.5,-13.2,8.8c-3.3,2.7,-10.8,9.3,-13.2,13.2c-1.8,2.8,-3.2,10.2,-4.4,13.2c-.9,2.1,-2.8,7,-4.4,8.8c-2.6,2.9,-10.1,6.9,-13.2,8.8c-2,1.1,-6.9,3,-8.8,4.4c-2.4,1.7,-7.1,6.4,-8.8,8.8c-1.4,1.8,-3.4,6.8,-4.4,8.8c-1,2,-3.9,6.4,-4.4,8.8c-.3,1,-1.2,3.2,0,4.4c6,6,17,0,22,0c7,0,23.8,0,30.8,0c6,0,19.4,4.3,26.4,0c5.2,-3.2,6.4,-13.8,8.8,-17.6c2.6,-4.3,9.9,-13.8,13.2,-17.6c1.9,-2.2,7.2,-6.2,8.8,-8.8c4,-6.8,6.6,-23.9,8.8,-30.8c1.9,-6.1,6.8,-20.4,8.8,-26.4c1,-3,.6,-10.5,4.4,-13.2c6.3,4.3,6.1,17.2,8.8,22c2.5,4.4,8.3,14.5,13.2,17.6c5,3.1,16.8,3.9,22,4.4c0,0,-6.6,-1.2,-8.8,0c-5.6,2.8,-11,12.8,-13.2,17.6c-1.9,3.9,-3.9,13.4,-4.4,17.6c-.4,3,-3.6,9.5,0,13.2c14.5,14.5,39.2,7.3,52.8,0c4.1,-2.2,7.3,-9.8,8.8,-13.2c1.7,-3.9,3.9,-13.5,4.4,-17.6c.5,-4.1,.4,-13.6,0,-17.6c-.5,-5.2,-2.4,-17.1,-4.4,-22c-1.5,-3.5,-7,-10.1,-8.8,-13.2C487.5,193,483.7,183,481,179.3c-.9,-1.2,-3.5,-3.3,-4.4,-4.4c-2.3,-2.9,-6.1,-10.6,-8.8,-13.2c-2.7,-2.7,-10.1,-7,-13.2,-8.8c-2,-1.2,-6.8,-3.4,-8.8,-4.4c-4,-2,-13.6,-6.8,-17.6,-8.8c-2,-1,-6.6,-3.7,-8.8,-4.4c-4.9,-1.7,-16.9,-3.9,-22,-4.4c-3,-.3,-10.2,0,-13.2,0c-2,0,-6.8,0,-8.8,0c-4,0,-13.5,-.7,-17.6,0Z" class="g3_359"/>
<path d="M83.4,378.3h621" class="g0_359"/>
</svg>