<?xml version="1.0" encoding="UTF-8" standalone="no"?>
<!DOCTYPE svg PUBLIC "-//W3C//DTD SVG 1.1//EN"
"http://www.w3.org/Graphics/SVG/1.1/DTD/svg11.dtd">
<svg viewBox="0 0 660 990" version="1.1" xmlns="http://www.w3.org/2000/svg" xmlns:xlink="http://www.w3.org/1999/xlink">
<defs>
<clipPath id="c0_199"><path d="M86.9,147.1l-1.2,-2.4l-1.2,-2.3h491l-1.2,2.3l-1.2,2.4Z"/></clipPath>
<clipPath id="c1_199"><path d="M576.5,673.4l-2.3,-1.2L571.8,671V145.8l2.4,-1.2l2.3,-1.2v530Z"/></clipPath>
<clipPath id="c2_199"><path d="M84.5,674.4l1.2,-2.3l1.2,-2.4H573.1l1.2,2.4l1.2,2.3Z"/></clipPath>
<clipPath id="c3_199"><path d="M83.5,673.4v-530l2.3,1.2l2.4,1.2V671l-2.4,1.2l-2.3,1.2Z"/></clipPath>
<clipPath id="c4_199"><path d="M85.6,915.9v-5.1H574.4v5.1Z"/></clipPath>
<clipPath id="c5_199"><path d="M485.8,247.4V233.6h13.8v13.8Z"/></clipPath>
<clipPath id="c6_199"><path d="M398.1,334V320.2h13.8V334Z"/></clipPath>
<clipPath id="c7_199"><path d="M328,490.7V477h13.8v13.7Z"/></clipPath>
<clipPath id="c8_199"><path d="M97.5,553.2V539.4h13.8v13.8Z"/></clipPath>
<clipPath id="c9_199"><path d="M97.5,603.1V589.4h13.8v13.7Z"/></clipPath>
<clipPath id="ca_199"><path d="M97.5,636.5V622.8h13.8v13.7Z"/></clipPath>
<style type="text/css"><![CDATA[
.g0_199{
fill: none;
stroke: #231F20;
stroke-width: 0.381;
stroke-linecap: round;
stroke-linejoin: miter;
}
.g1_199{
fill: #FFFFFF;
}
.g2_199{
fill: #231F20;
}
.g3_199{
fill: none;
stroke: #231F20;
stroke-width: 1.527;
stroke-linecap: butt;
stroke-linejoin: miter;
stroke-miterlimit: 4;
}
.g4_199{
fill: none;
stroke: #231F20;
stroke-width: 0.763;
stroke-linecap: round;
stroke-linejoin: miter;
}
]]></style>
</defs>
<path clip-path="url(#c0_199)" d="M85.6,144.7H574.4" class="g0_199"/>
<path clip-path="url(#c1_199)" d="M574.2,144.5V672.3" class="g0_199"/>
<path clip-path="url(#c2_199)" d="M574.4,672.1H85.6" class="g0_199"/>
<path clip-path="url(#c3_199)" d="M85.8,672.3V144.5" class="g0_199"/>
<path fill-rule="evenodd" d="M597.3,913H660v77H597.3V913Z" class="g1_199"/>
<path fill-rule="evenodd" d="M597.3,631.4H660v92.4H597.3V631.4Z" class="g2_199"/>
<path fill-rule="evenodd" d="M597.3,0H660V77H597.3V0Z" class="g1_199"/>
<path clip-path="url(#c4_199)" d="M85.6,913.4H574.4" class="g4_199"/>
<g clip-path="url(#c5_199)">
<path d="M492.7,235.1c2.9,0,5.3,2.4,5.3,5.4c0,2.9,-2.4,5.3,-5.3,5.3c-3,0,-5.4,-2.4,-5.4,-5.3c0,-3,2.4,-5.4,5.4,-5.4Z" class="g2_199"/>
<path d="M492.7,235.1c2.9,0,5.3,2.4,5.3,5.4c0,2.9,-2.4,5.3,-5.3,5.3c-3,0,-5.4,-2.4,-5.4,-5.3c0,-3,2.4,-5.4,5.4,-5.4Z" class="g3_199"/>
<path d="M490.7,238.5h.1c1.3,0,1.6,-.7,1.7,-1.2h1v6.6h-1.3v-4.5h-1.5v-.9Z" class="g1_199"/>
</g>
<g clip-path="url(#c6_199)">
<path d="M405,321.8c3,0,5.4,2.4,5.4,5.3c0,3,-2.4,5.4,-5.4,5.4c-2.9,0,-5.3,-2.4,-5.3,-5.4c0,-2.9,2.4,-5.3,5.3,-5.3Z" class="g2_199"/>
<path d="M405,321.8c3,0,5.4,2.4,5.4,5.3c0,3,-2.4,5.4,-5.4,5.4c-2.9,0,-5.3,-2.4,-5.3,-5.4c0,-2.9,2.4,-5.3,5.3,-5.3Z" class="g3_199"/>
<path d="M402.7,325.7c0,-2.1,1.6,-2.3,2.2,-2.3c1.3,0,2.3,.7,2.3,2.1c0,1.1,-.7,1.7,-1.4,2.1c-.9,.6,-1.3,.9,-1.5,1.3h2.9V330h-4.5c0,-.8,.1,-1.6,1.5,-2.6c1.2,-.9,1.7,-1.2,1.7,-2c0,-.4,-.3,-.9,-.9,-.9c-.9,0,-1,.7,-1,1.2h-1.3Z" class="g1_199"/>
</g>
<g clip-path="url(#c7_199)">
<path d="M334.9,478.5c3,0,5.3,2.4,5.3,5.4c0,2.9,-2.3,5.3,-5.3,5.3c-3,0,-5.3,-2.4,-5.3,-5.3c0,-3,2.3,-5.4,5.3,-5.4Z" class="g2_199"/>
<path d="M334.9,478.5c3,0,5.3,2.4,5.3,5.4c0,2.9,-2.3,5.3,-5.3,5.3c-3,0,-5.3,-2.4,-5.3,-5.3c0,-3,2.3,-5.4,5.3,-5.4Z" class="g3_199"/>
<path d="M334.4,483h.2c.4,0,1.2,0,1.2,-.9c0,-.2,-.2,-.8,-.9,-.8c-.9,0,-.9,.8,-.9,1.1h-1.2c0,-1.3,.7,-2.2,2.2,-2.2c.9,0,2.1,.5,2.1,1.9c0,.7,-.5,1.1,-.8,1.2v.1c.2,0,1,.4,1,1.5c0,1.3,-1,2.2,-2.3,2.2c-.6,0,-2.3,-.2,-2.3,-2.3H334c0,.4,.1,1.2,.9,1.2c.6,0,1,-.4,1,-1.1c0,-.9,-.9,-.9,-1.5,-.9v-1Z" class="g1_199"/>
</g>
<g clip-path="url(#c8_199)">
<path d="M104.4,541c2.9,0,5.3,2.4,5.3,5.3c0,3,-2.4,5.4,-5.3,5.4c-3,0,-5.4,-2.4,-5.4,-5.4c0,-2.9,2.4,-5.3,5.4,-5.3Z" class="g2_199"/>
<path d="M104.4,541c2.9,0,5.3,2.4,5.3,5.3c0,3,-2.4,5.4,-5.3,5.4c-3,0,-5.4,-2.4,-5.4,-5.4c0,-2.9,2.4,-5.3,5.4,-5.3Z" class="g3_199"/>
<path d="M102.4,544.3h.2c1.2,0,1.6,-.7,1.6,-1.2h1.1v6.7h-1.4v-4.6h-1.5v-.9Z" class="g1_199"/>
</g>
<g clip-path="url(#c9_199)">
<path d="M104.4,590.9c2.9,0,5.3,2.4,5.3,5.3c0,3,-2.4,5.4,-5.3,5.4c-3,0,-5.4,-2.4,-5.4,-5.4c0,-2.9,2.4,-5.3,5.4,-5.3Z" class="g2_199"/>
<path d="M104.4,590.9c2.9,0,5.3,2.4,5.3,5.3c0,3,-2.4,5.4,-5.3,5.4c-3,0,-5.4,-2.4,-5.4,-5.4c0,-2.9,2.4,-5.3,5.4,-5.3Z" class="g3_199"/>
<path d="M102.1,594.8c0,-2.1,1.6,-2.3,2.2,-2.3c1.3,0,2.3,.7,2.3,2.1c0,1.1,-.8,1.7,-1.4,2.2c-.9,.6,-1.4,.9,-1.5,1.2h2.9v1.1H102c.1,-.7,.1,-1.6,1.6,-2.6c1.2,-.9,1.7,-1.2,1.7,-2c0,-.4,-.3,-.9,-1,-.9c-.9,0,-.9,.8,-.9,1.2h-1.3Z" class="g1_199"/>
</g>
<g clip-path="url(#ca_199)">
<path d="M104.4,624.3c2.9,0,5.3,2.4,5.3,5.4c0,2.9,-2.4,5.3,-5.3,5.3c-3,0,-5.4,-2.4,-5.4,-5.3c0,-3,2.4,-5.4,5.4,-5.4Z" class="g2_199"/>
<path d="M104.4,624.3c2.9,0,5.3,2.4,5.3,5.4c0,2.9,-2.4,5.3,-5.3,5.3c-3,0,-5.4,-2.4,-5.4,-5.3c0,-3,2.4,-5.4,5.4,-5.4Z" class="g3_199"/>
<path d="M103.9,628.8h.2c.4,0,1.2,0,1.2,-.9c0,-.2,-.2,-.8,-.9,-.8c-.9,0,-.9,.8,-.9,1.1h-1.2c0,-1.3,.7,-2.2,2.2,-2.2c.9,0,2.1,.5,2.1,1.9c0,.7,-.5,1.1,-.8,1.3c.2,0,1,.4,1,1.5c0,1.3,-1,2.2,-2.3,2.2c-.6,0,-2.3,-.2,-2.3,-2.3h1.3c0,.4,.1,1.2,.9,1.2c.6,0,1,-.3,1,-1.1c0,-.9,-.9,-.9,-1.5,-.9v-1Z" class="g1_199"/>
</g>
</svg>