<?xml version="1.0" encoding="UTF-8" standalone="no"?>
<!DOCTYPE svg PUBLIC "-//W3C//DTD SVG 1.1//EN"
"http://www.w3.org/Graphics/SVG/1.1/DTD/svg11.dtd">
<svg viewBox="0 0 931 1096" version="1.1" xmlns="http://www.w3.org/2000/svg" xmlns:xlink="http://www.w3.org/1999/xlink">
<defs>
<clipPath id="c0_395"><path d="M0,1096.5V30.3H892.7V1096.5Z"/></clipPath>
<clipPath id="c1_395"><path d="M433.6,134.9V118.1h124v16.8Z"/></clipPath>
<clipPath id="c2_395"><path d="M549.1,461.2V427.7H671.6v33.5Z"/></clipPath>
<clipPath id="c3_395"><path d="M671.1,583.1V567.3h59.4v15.8Z"/></clipPath>
<clipPath id="c4_395"><path d="M778.8,599.9V584.1h59.4v15.8Z"/></clipPath>
<clipPath id="c5_395"><path d="M108.5,780.6V611.5H308.9V780.6Z"/></clipPath>
<style type="text/css"><![CDATA[
.g0_395{
fill: #EBEAEA;
}
.g1_395{
fill: none;
stroke: #241F1F;
stroke-width: 0.687;
stroke-miterlimit: 10;
}
.g2_395{
fill: #241F1F;
}
.g3_395{
fill: none;
stroke: #EE008C;
stroke-width: 0.916;
stroke-linejoin: round;
}
.g4_395{
fill: none;
stroke: #00AEEF;
stroke-width: 0.763;
stroke-linejoin: round;
}
.g5_395{
fill: none;
stroke: #241F1F;
stroke-width: 0.611;
stroke-miterlimit: 3;
}
.g6_395{
fill: none;
stroke: #241F1F;
stroke-width: 0.763;
stroke-linejoin: round;
}
.g7_395{
fill: #290002;
}
.g8_395{
fill: none;
stroke: #241F1F;
stroke-width: 0.763;
stroke-miterlimit: 3;
}
.g9_395{
fill: none;
stroke: #241F1F;
stroke-width: 0.458;
}
.ga_395{
fill: none;
stroke: #EE008C;
stroke-width: 0.916;
stroke-miterlimit: 3;
}
.gb_395{
fill: none;
stroke: #00AEEF;
stroke-width: 0.916;
stroke-miterlimit: 3;
}
.gc_395{
fill: none;
stroke: #241F1F;
stroke-width: 0.534;
stroke-miterlimit: 3;
}
.gd_395{
fill: #FFDEB8;
}
.ge_395{
fill: none;
stroke: #F9951B;
stroke-width: 0.913;
stroke-linejoin: round;
}
.gf_395{
fill: none;
stroke: #00AEEF;
stroke-width: 0.913;
stroke-linejoin: round;
}
.gg_395{
fill: #00AEEF;
}
.gh_395{
fill: none;
stroke: #00AEEF;
stroke-width: 0.762;
stroke-miterlimit: 3;
}
.gi_395{
fill: none;
stroke: #241F1F;
stroke-width: 0.609;
stroke-miterlimit: 3;
}
.gj_395{
fill: none;
stroke: #241F1F;
stroke-width: 0.762;
stroke-linejoin: round;
}
]]></style>
</defs>
<path d="M0,1096.5H951.8V-20H0V1096.5Z" class="g0_395"/>
<image clip-path="url(#c0_395)" preserveAspectRatio="none" x="0" y="31" width="892" height="1066" xlink:href="img/1.png"/>
<path clip-path="url(#c1_395)" d="M548.9,118.5h9" class="g1_395"/>
<path d="M519.3,349.8H700.4" class="g1_395"/>
<path clip-path="url(#c2_395)" d="M573.2,444.6h98.7" class="g1_395"/>
<path clip-path="url(#c3_395)" d="M721.8,567.7h9" class="g1_395"/>
<path clip-path="url(#c4_395)" d="M829.5,584.5h9.1" class="g1_395"/>
<path d="M590.5,1009.8h36.7" class="g1_395"/>
<path fill-rule="evenodd" d="M286.9,534.5l-1.7,-2.4l6.5,2.4l-6.5,2.5Z" class="g2_395"/>
<path fill-rule="evenodd" d="M194.9,406.2l-2.5,1.7l2.5,-6.6l2.4,6.6Z" class="g2_395"/>
<path d="M285.6,550.1L108.9,432.1" class="g3_395"/>
<path d="M242.4,487.3l-28.3,42.4" class="g4_395"/>
<path d="M108.5,534.5H286.9m-92,21.6V406.2" class="g5_395"/>
<path d="M121.3,406.2c15,56,42,128.3,73.6,128.3c31.5,0,58.6,-72.3,73.6,-128.3" class="g6_395"/>
<path d="M136.2,449c0,.9,-.8,1.7,-1.7,1.7c-1,0,-1.8,-.8,-1.8,-1.7c0,-1,.8,-1.7,1.8,-1.7c.9,0,1.7,.7,1.7,1.7Z" class="g7_395"/>
<path d="M136.2,449c0,.9,-.8,1.7,-1.7,1.7c-1,0,-1.8,-.8,-1.8,-1.7c0,-1,.8,-1.7,1.8,-1.7c.9,0,1.7,.7,1.7,1.7Z" class="g8_395"/>
<path d="M228.5,510.7c0,1,-.8,1.7,-1.7,1.7c-1,0,-1.7,-.7,-1.7,-1.7c0,-.9,.7,-1.7,1.7,-1.7c.9,0,1.7,.8,1.7,1.7Z" class="g7_395"/>
<path d="M228.5,510.7c0,1,-.8,1.7,-1.7,1.7c-1,0,-1.7,-.7,-1.7,-1.7c0,-.9,.7,-1.7,1.7,-1.7c.9,0,1.7,.8,1.7,1.7Z" class="g8_395"/>
<path d="M222.3,507.8l-3,4.4l4.5,3" class="g9_395"/>
<path d="M305,717.5l-1.3,-2l5.2,2l-5.2,2Z" class="g2_395"/>
<path d="M108.5,717.5H305m-98.3,63.1V615.4" class="g5_395"/>
<path d="M206.7,615.4l-1.9,1.3l1.9,-5.2l2,5.2Z" class="g2_395"/>
<path d="M200.3,728.8c1.4,0,1.5,-2,1.5,-3.9c0,-2.1,-.3,-3.9,-1.5,-3.9c-1.4,0,-1.6,1.9,-1.6,4c0,1.8,.3,3.8,1.6,3.8m-.1,-8.1c1.9,0,2.8,1.8,2.8,4.2c0,1.7,-.6,4.2,-2.8,4.2c-1.7,0,-2.7,-1.9,-2.7,-4.3c0,-1.7,.7,-4.1,2.7,-4.1Z" class="g2_395"/>
<path clip-path="url(#c5_395)" d="M198.4,618.9c.6,-.4,1.1,-1,1.4,-1.7c0,-1.9,-.6,-3.5,-1,-4.4c-.4,-1,-.9,-.7,-1.2,-.7v-.2l1.5,-.3c.3,0,.3,.1,.4,.2c.5,1.5,.8,2.7,1.1,4.2c.2,-.3,1.2,-1.8,1.4,-2.8c0,-.2,0,-.4,-.1,-.5c-.3,-.2,-.6,-.5,-.6,-.7c.1,-.2,.2,-.5,.7,-.4c.5,.2,.5,.8,.5,1.2c-.1,.3,-.5,1.2,-.7,1.6c-1,1.9,-1.9,3.4,-2.7,4.2c-.1,.2,-.6,.7,-1.1,.9c-.3,.2,-.7,.1,-.9,-.1c-.1,-.2,-.1,-.4,0,-.5c.1,-.3,.5,-.3,.8,-.2Z" class="g2_395"/>
<path d="M306,723.6l.9,-1.3c.3,-.3,.6,-.6,.9,-.6c.2,0,.6,.1,.6,.4c0,.2,-.2,.4,-.5,.4c-.1,0,-.2,0,-.3,0c-.1,-.1,-.2,-.1,-.3,-.1c-.1,0,-.2,.1,-.4,.2l-.9,1.3l.6,2.5c0,.1,.2,.2,.3,.2c.2,0,.5,-.1,.6,-.4c.2,-.2,.2,-.4,.3,-.4c0,0,.1,.1,.1,.2c0,.2,-.6,.9,-1,1.1c-.2,.1,-.3,.2,-.4,.2c-.3,0,-.6,-.3,-.8,-1l-.3,-1.4l-1.1,1.5c-.2,.3,-.7,.9,-1.3,.9c-.2,0,-.5,-.1,-.5,-.4c0,-.3,.1,-.5,.4,-.5c.1,0,.3,0,.4,.1c.2,.1,.3,.1,.4,.1c.1,0,.1,-.1,.2,-.1c.5,-.7,1,-1.3,1.4,-1.9l-.4,-1.8c-.1,-.5,-.1,-.6,-.6,-.6c-.1,0,-.2,0,-.6,.1v-.1c.6,-.2,1.4,-.5,1.5,-.5c.2,0,.4,.2,.5,.8Z" class="g2_395"/>
<path d="M206.7,635.9L136,758.4H277.4L206.7,635.9Z" class="ga_395"/>
<path d="M247.4,717.5c0,22.4,-18.2,40.6,-40.7,40.6c-22.4,0,-40.6,-18.2,-40.6,-40.6c0,-22.4,18.2,-40.6,40.6,-40.6c22.5,0,40.7,18.2,40.7,40.6Z" class="gb_395"/>
<path d="M206.4,717.5L241.1,696" class="g5_395"/>
<path d="M223.5,694.2c0,0,0,.1,0,.1v8.1c0,.3,.1,.5,.3,.6c.2,.1,.5,.2,1,.2v.2H221v-.2c.6,0,.9,-.1,1.1,-.2c.2,-.1,.2,-.4,.2,-.8V696c0,-.3,0,-.4,0,-.5c-.1,-.1,-.2,-.2,-.4,-.2c-.1,0,-.3,0,-.4,.1c-.2,.1,-.4,.1,-.6,.2v-.2l2.5,-1.2h.1Z" class="g2_395"/>
<path d="M236.7,698.7l2.7,4.3l4.5,-2.8" class="gc_395"/>
<path d="M208.5,635.9c0,1,-.8,1.7,-1.8,1.7c-.9,0,-1.7,-.7,-1.7,-1.7c0,-.9,.8,-1.7,1.7,-1.7c1,0,1.8,.8,1.8,1.7Z" class="g2_395"/>
<path d="M213.6,625.7c-1.2,1.8,-1.4,3.7,-1.4,5.4c0,1.8,.2,3.6,1.4,5.4v.4c-1.4,-1.8,-2.2,-3.6,-2.2,-5.8c0,-2.1,.8,-4,2.2,-5.7Z" class="g2_395"/>
<path d="M217.4,633.8c1.4,0,1.6,-2.1,1.6,-4.1c0,-2.3,-.4,-4.2,-1.6,-4.2c-1.4,0,-1.7,2.1,-1.7,4.3c0,1.9,.3,4,1.7,4m-.1,-8.6c2,0,3,2,3,4.5c0,1.8,-.7,4.4,-3,4.4c-1.9,0,-2.9,-1.9,-2.9,-4.5c0,-1.8,.7,-4.4,2.9,-4.4Z" class="g2_395"/>
<path d="M220.8,635.6c.5,-.2,1.1,-.9,1.1,-1.4c0,-.1,-.1,-.2,-.2,-.2c-.1,0,-.3,.1,-.4,.1c-.4,-.1,-.7,-.3,-.7,-.7c0,-.5,.3,-.7,.8,-.7c.8,0,1,.7,1,1.2c0,.7,-.8,1.7,-1.4,1.9Z" class="g2_395"/>
<path d="M230.9,628.9c-.1,-.4,-.5,-.5,-1,-.3c-1.1,.3,-2.5,2.4,-2.4,4.1c.1,.9,.9,.8,1.3,.6c.6,-.1,1.7,-1.8,2,-3c.1,-.3,.2,-.9,.1,-1.4m.3,3.7c-.1,.2,-.2,.6,-.2,.7c0,.1,0,.2,.1,.2c.3,0,.5,-.2,.8,-.7c.2,-.2,.3,-.3,.3,-.3q.1,0,.1,0c0,.2,-.1,.2,-.2,.4c-.7,1.1,-1.3,1.2,-1.5,1.2c-.3,0,-.6,-.2,-.6,-.6c0,-.1,0,-.4,.3,-1.2c-1.2,1.7,-2.2,1.8,-2.6,1.8c-.5,0,-1.3,-.5,-1.3,-1.5c0,-2,2.3,-4.4,3.9,-4.4c.5,0,.8,.3,.9,.8h.1l.1,-.7l1,-.1Z" class="g2_395"/>
<path d="M233.6,625.4c1.4,1.7,2.2,3.6,2.2,5.7c0,2.2,-.8,4,-2.2,5.8v-.4c1.2,-1.8,1.4,-3.6,1.4,-5.4c0,-1.7,-.2,-3.6,-1.4,-5.4Z" class="g2_395"/>
<path d="M169.4,923.4l59.8,44l44,-81.7Z" class="gd_395"/>
<path d="M169.4,923.4l59.8,44l44,-81.7L169.4,923.4Z" class="ge_395"/>
<path fill-rule="evenodd" d="M309.8,972.6l-1.6,-2.5l6.5,2.5l-6.5,2.4Z" class="g2_395"/>
<path fill-rule="evenodd" d="M214.1,844.9l-2.4,1.6l2.4,-6.5l2.5,6.5Z" class="g2_395"/>
<path d="M144.1,849.6c1.5,-2.3,27.4,123.4,70,122.7c42.7,.7,68.6,-125,70.2,-122.7" class="gf_395"/>
<path d="M227.5,967.4c0,-.9,.8,-1.7,1.7,-1.7c1,0,1.8,.8,1.8,1.7c0,1,-.8,1.7,-1.8,1.7c-.9,0,-1.7,-.7,-1.7,-1.7Z" class="gg_395"/>
<path d="M227.5,967.4c0,-.9,.8,-1.7,1.7,-1.7c1,0,1.8,.8,1.8,1.7c0,1,-.8,1.7,-1.8,1.7c-.9,0,-1.7,-.7,-1.7,-1.7Z" class="gh_395"/>
<path d="M271.5,885.7c0,-.9,.8,-1.7,1.7,-1.7c1,0,1.8,.8,1.8,1.7c0,.9,-.8,1.7,-1.8,1.7c-.9,0,-1.7,-.8,-1.7,-1.7Z" class="gg_395"/>
<path d="M271.5,885.7c0,-.9,.8,-1.7,1.7,-1.7c1,0,1.8,.8,1.8,1.7c0,.9,-.8,1.7,-1.8,1.7c-.9,0,-1.7,-.8,-1.7,-1.7Z" class="gh_395"/>
<path d="M167.7,923.4c0,-1,.8,-1.8,1.7,-1.8c1,0,1.7,.8,1.7,1.8c0,.9,-.7,1.7,-1.7,1.7c-.9,0,-1.7,-.8,-1.7,-1.7Z" class="gg_395"/>
<path d="M167.7,923.4c0,-1,.8,-1.8,1.7,-1.8c1,0,1.7,.8,1.7,1.8c0,.9,-.7,1.7,-1.7,1.7c-.9,0,-1.7,-.8,-1.7,-1.7Z" class="gh_395"/>
<path d="M109.1,972.6H309.9m-95.8,27.6V844.9" class="gi_395"/>
<path d="M109.1,945.4L309.9,872.2" class="gj_395"/>
</svg>