<?xml version="1.0" encoding="UTF-8" standalone="no"?>
<!DOCTYPE svg PUBLIC "-//W3C//DTD SVG 1.1//EN"
"http://www.w3.org/Graphics/SVG/1.1/DTD/svg11.dtd">
<svg viewBox="0 0 770 1017" version="1.1" xmlns="http://www.w3.org/2000/svg" xmlns:xlink="http://www.w3.org/1999/xlink">
<defs>
<style type="text/css"><![CDATA[
.g0_100{
fill: none;
stroke: #000000;
stroke-width: 0.618;
stroke-linecap: butt;
stroke-linejoin: miter;
}
]]></style>
</defs>
<path d="M56,69.2H695.2M115.4,102.7H625.3M115.4,121.3V103m109.5,18.3V103m114.7,18.3V103m87.3,18.3V103m97.6,18.3V103m100.8,18.3V103M115.4,121.6H625.3M115.4,140.2V121.9m109.5,18.3V121.9m114.7,18.3V121.9m87.3,18.3V121.9m97.6,18.3V121.9m100.8,18.3V121.9M115.4,158.4V140.1m109.5,18.3V140.1m114.7,18.3V140.1m87.3,18.3V140.1m97.6,18.3V140.1m100.8,18.3V140.1M115.4,176.7V158.4m109.5,18.3V158.4m114.7,18.3V158.4m87.3,18.3V158.4m97.6,18.3V158.4m100.8,18.3V158.4M115.4,195V176.7M224.9,195V176.7M339.6,195V176.7M426.9,195V176.7M524.5,195V176.7M625.3,195V176.7M115.4,213.2V194.9m109.5,18.3V194.9m114.7,18.3V194.9m87.3,18.3V194.9m97.6,18.3V194.9m100.8,18.3V194.9M115.4,231.5V213.2m109.5,18.3V213.2m114.7,18.3V213.2m87.3,18.3V213.2m97.6,18.3V213.2m100.8,18.3V213.2M115.4,249.8V231.5m109.5,18.3V231.5m114.7,18.3V231.5m87.3,18.3V231.5m97.6,18.3V231.5m100.8,18.3V231.5M115.4,250H625.3M65.1,312.4h621" class="g0_100"/>
</svg>