<?xml version="1.0" encoding="UTF-8" standalone="no"?>
<!DOCTYPE svg PUBLIC "-//W3C//DTD SVG 1.1//EN"
"http://www.w3.org/Graphics/SVG/1.1/DTD/svg11.dtd">
<svg viewBox="0 0 931 1096" version="1.1" xmlns="http://www.w3.org/2000/svg" xmlns:xlink="http://www.w3.org/1999/xlink">
<defs>
<clipPath id="c0_376"><path d="M39.4,1096.5V30H931.9V1096.5Z"/></clipPath>
<clipPath id="c1_376"><path d="M436,130.5V101.8H674.8v28.7Z"/></clipPath>
<clipPath id="c2_376"><path d="M419,599.6V574.1H530.9v25.5Z"/></clipPath>
<style type="text/css"><![CDATA[
.g0_376{
fill: #EBEAEA;
}
.g1_376{
fill: none;
stroke: #241F1F;
stroke-width: 0.687;
stroke-miterlimit: 10;
}
.g2_376{
fill: none;
stroke: #241F1F;
stroke-width: 0.649;
stroke-miterlimit: 10;
}
.g3_376{
fill: none;
stroke: #EE008C;
stroke-width: 0.916;
stroke-linejoin: round;
}
.g4_376{
fill: #241F1F;
}
.g5_376{
fill: none;
stroke: #241F1F;
stroke-width: 0.763;
stroke-miterlimit: 3;
}
.g6_376{
fill: none;
stroke: #241F1F;
stroke-width: 0.534;
stroke-miterlimit: 3;
}
]]></style>
</defs>
<path d="M0,1096.5H933.5V-20H0V1096.5Z" class="g0_376"/>
<image clip-path="url(#c0_376)" preserveAspectRatio="none" x="39" y="30" width="900" height="1067" xlink:href="img/1.png"/>
<path d="M462.8,116.2h11m19.7,0h11m19.7,0h10.9m56.5,0h45.2" class="g1_376"/>
<path clip-path="url(#c1_376)" d="M656.4,116.2h18.7" class="g1_376"/>
<path d="M361.2,220.1h30.7m19.7,0h30.6m19.7,0h30.7m56.4,0h78.2m35,0h36.7M476.6,342.4h15.6m19.7,0h15.8m19.7,0h15.8m19.7,0h15.8" class="g1_376"/>
<path clip-path="url(#c2_376)" d="M463.1,585.3h68.1" class="g1_376"/>
<path d="M519.2,735h16.7m19.7,0h16.7m19.7,0h16.7m-90.3,53.5h15.9m19.7,0h15.9m19.7,0H612" class="g1_376"/>
<path d="M492.1,837.6h15.1m18.7,0H541m18.6,0h15.1" class="g2_376"/>
<path d="M53.9,478.6L96.2,437.8l91.2,95.7L53.9,478.6ZM96.2,437.8L152,419.6l35.4,113.9L96.2,437.8ZM152,419.6l57.5,12.2L187.4,533.5L152,419.6Zm57.5,12.2l40,43l-62.1,58.7L209.5,431.8Zm40,43v58.7H187.4l62.1,-58.7Z" class="g3_376"/>
<path d="M185.6,533.5c0,-1,.8,-1.7,1.8,-1.7c.9,0,1.7,.7,1.7,1.7c0,.9,-.8,1.7,-1.7,1.7c-1,0,-1.8,-.8,-1.8,-1.7Z" class="g4_376"/>
<path d="M185.6,533.5c0,-1,.8,-1.7,1.8,-1.7c.9,0,1.7,.7,1.7,1.7c0,.9,-.8,1.7,-1.7,1.7c-1,0,-1.8,-.8,-1.8,-1.7Z" class="g5_376"/>
<path d="M100.9,442.8l-5.1,4.7l-4.6,-5.1m62.9,-16.2l-6.6,2l-2,-6.6m62.4,16.9L201.2,437l1.6,-6.7m41.7,49.2l-4.7,-5.1l5,-4.7m-2.1,63.8l-.1,-6.9h6.9" class="g6_376"/>
<path d="M101.1,510.5c0,-.3,.2,-.4,.4,-.4c.2,0,.3,.1,.3,.4c0,.2,-.1,.3,-.3,.3c-.2,0,-.4,-.1,-.4,-.3Z" class="g4_376"/>
<path d="M101.1,510.5c0,-.3,.2,-.4,.4,-.4c.2,0,.3,.1,.3,.4c0,.2,-.1,.3,-.3,.3c-.2,0,-.4,-.1,-.4,-.3Z" class="g5_376"/>
<path d="M99.7,513.9c0,-.2,.2,-.4,.4,-.4c.2,0,.4,.2,.4,.4c0,.2,-.2,.4,-.4,.4c-.2,0,-.4,-.2,-.4,-.4Z" class="g4_376"/>
<path d="M99.7,513.9c0,-.2,.2,-.4,.4,-.4c.2,0,.4,.2,.4,.4c0,.2,-.2,.4,-.4,.4c-.2,0,-.4,-.2,-.4,-.4Z" class="g5_376"/>
<path d="M98.4,517.3c0,-.2,.2,-.3,.4,-.3c.2,0,.4,.1,.4,.3c0,.2,-.2,.4,-.4,.4c-.2,0,-.4,-.2,-.4,-.4Z" class="g4_376"/>
<path d="M98.4,517.3c0,-.2,.2,-.3,.4,-.3c.2,0,.4,.1,.4,.3c0,.2,-.2,.4,-.4,.4c-.2,0,-.4,-.2,-.4,-.4Z" class="g5_376"/>
</svg>