<?xml version="1.0" encoding="UTF-8" standalone="no"?>
<!DOCTYPE svg PUBLIC "-//W3C//DTD SVG 1.1//EN"
"http://www.w3.org/Graphics/SVG/1.1/DTD/svg11.dtd">
<svg viewBox="0 0 811 1017" version="1.1" xmlns="http://www.w3.org/2000/svg" xmlns:xlink="http://www.w3.org/1999/xlink">
<defs>
<style type="text/css"><![CDATA[
.g0_114{
fill: #70A6CC;
}
.g1_114{
}
]]></style>
</defs>
<path d="M142.4,414.5H710.7V392.6H142.4Z" class="g0_114"/>
<path d="M124.3,525v-3.2l.3,.1l6.3,2.9l.4,.2l-.4,.2l-6.3,2.9l-.3,.1v-.3l.1,-.2l6.3,-2.9l.2,.4h-.2l-6.3,-3l.2,-.3l.1,.1v3Z" class="g1_114"/>
<path d="M124.3,527.9h.4V525h-.4Z" class="g1_114"/>
<path d="M85.1,525.2h39.2v-.4H85.1Z" class="g1_114"/>
<path d="M85.1,525h.3V432h-.3Z" class="g1_114"/>
<path d="M550.5,555.5v3.2l-.3,-.1L544,555.7l-.4,-.2l.4,-.2l6.2,-2.9l.3,-.1v.3l-.1,.1l-6.3,3l-.1,-.4h.1l6.3,2.9l-.2,.4l-.1,-.2v-2.9Z" class="g1_114"/>
<path d="M550.1,555.5h.4v-2.9h-.4Z" class="g1_114"/>
<path d="M550.5,555.7h18.7v-.4H550.5Z" class="g1_114"/>
<path d="M568.8,555.5h.4V517.6h-.4Z" class="g1_114"/>
<path d="M521.9,616.6v3.3l-.3,-.1l-6.3,-3l-.4,-.2l.4,-.1l6.3,-3l.3,-.1v.3l-.1,.2l-6.4,2.9l-.1,-.3h.1l6.4,2.9l-.2,.4l-.1,-.2v-3Z" class="g1_114"/>
<path d="M521.5,616.6h.4v-2.9h-.4Z" class="g1_114"/>
<path d="M521.9,616.8h18.7v-.3H521.9Z" class="g1_114"/>
<path d="M540.2,616.6h.4V592.5h-.4Z" class="g1_114"/>
<path d="M591.4,647v3.2l-.2,-.1l-6.3,-2.9l-.3,-.2l.3,-.2l6.3,-2.9l.2,-.1v.3l-.1,.1l-6.2,3l-.2,-.4h.2l6.2,2.9l-.1,.4l-.1,-.2V647Z" class="g1_114"/>
<path d="M591.1,647h.3v-2.9h-.3Z" class="g1_114"/>
<path d="M591.4,647.2H712.2v-.4H591.4Z" class="g1_114"/>
<path d="M711.8,741.6h.4V647h-.4Z" class="g1_114"/>
<path d="M501,693.5v3.2l-.3,-.1l-6.2,-3l-.4,-.1l.4,-.2l6.2,-3h.3v.2l-.1,.2l-6.3,2.9l-.1,-.3h.1l6.3,2.9l-.2,.4l-.1,-.2v-2.9Z" class="g1_114"/>
<path d="M500.6,693.5h.4v-3h-.4Z" class="g1_114"/>
<path d="M520.2,762.2h.4V693.3h-.4Z" class="g1_114"/>
<path d="M501,693.6h19.4v-.3H501Z" class="g1_114"/>
</svg>