<?xml version="1.0" encoding="UTF-8" standalone="no"?>
<!DOCTYPE svg PUBLIC "-//W3C//DTD SVG 1.1//EN"
"http://www.w3.org/Graphics/SVG/1.1/DTD/svg11.dtd">
<svg viewBox="0 0 907 1045" version="1.1" xmlns="http://www.w3.org/2000/svg" xmlns:xlink="http://www.w3.org/1999/xlink">
<defs>
<clipPath id="c0_325"><path d="M799.7,185.9L724.5,169.1l9.3,-41.6l7.9,-35.2L762.6,97l54.3,12.1l-17.2,76.8Z"/></clipPath>
<clipPath id="c1_325"><path d="M799.7,185.9L724.5,169.1l9.3,-41.6l7.9,-35.2l66.1,14.8l9.1,2l-17.2,76.8Z"/></clipPath>
<clipPath id="c2_325"><path d="M576.1,392.4v-95H740v95Z"/></clipPath>
<clipPath id="c3_325"><path d="M672.4,661.3V556.1H829.3V661.3h-82v-3.1H755l-1,-.9l-7.2,-6.9l-.4,-.4l-.3,.4l-6.4,7l-.8,.8h7.4v3.1Z"/></clipPath>
<clipPath id="c4_325"><path d="M746.3,661.3v-3.1h1v3.1Z"/></clipPath>
<clipPath id="c5_325"><path d="M741.3,657.2l5.2,-5.7l5.9,5.7Z"/></clipPath>
<clipPath id="c6_325"><path d="M738.9,658.2l.8,-.8l6.4,-7l.3,-.4l.4,.4l7.2,6.9l1,.9h-7.7v-.5h6.4l-7.2,-6.9l-6.4,6.9h6.2v.5Z"/></clipPath>
<clipPath id="c7_325"><path d="M746.3,658.2v-.5h1v.5Z"/></clipPath>
<clipPath id="c8_325"><path d="M752.4,657.2l-5.9,-5.7l-5.2,5.7Zm-12.3,.5l6.4,-6.9l7.2,6.9Z"/></clipPath>
<clipPath id="c9_325"><path d="M672.4,791.6V709.4h73.9v37.3h1.1l-.1,-37.3h82v82.2Z"/></clipPath>
<clipPath id="ca_325"><path d="M746.3,746.7V709.4h1l.1,37.3Z"/></clipPath>
<clipPath id="cb_325"><path d="M-2.6,1047.7V-2.6H910.2V1047.7Z"/></clipPath>
<style type="text/css"><![CDATA[
.g0_325{
}
.g1_325{
fill: none;
stroke: #000000;
stroke-width: 1.901;
stroke-linecap: butt;
stroke-linejoin: miter;
stroke-miterlimit: 4;
}
.g2_325{
fill: #F8F8F8;
}
.g3_325{
fill: none;
stroke: #000000;
stroke-width: 0.381;
stroke-linecap: butt;
stroke-linejoin: miter;
stroke-miterlimit: 4;
}
.g4_325{
fill: #FFFFFF;
}
.g5_325{
fill: none;
stroke: #000000;
stroke-width: 0.444;
stroke-linecap: butt;
stroke-linejoin: miter;
stroke-miterlimit: 4;
}
.g6_325{
fill: none;
stroke: #000000;
stroke-width: 0.592;
stroke-linecap: butt;
stroke-linejoin: miter;
stroke-miterlimit: 4;
}
.g7_325{
fill: none;
stroke: #636363;
stroke-width: 1.527;
stroke-linecap: butt;
stroke-linejoin: miter;
stroke-miterlimit: 4;
}
.g8_325{
fill: none;
stroke: #FFFFFF;
stroke-width: 1.909;
stroke-linecap: butt;
stroke-linejoin: miter;
}
.g9_325{
fill: none;
stroke: #000000;
stroke-width: 0.381;
stroke-linecap: butt;
stroke-linejoin: miter;
}
]]></style>
</defs>
<g clip-path="url(#c1_325)">
<image clip-path="url(#c0_325)" preserveAspectRatio="none" x="724" y="92" width="94" height="96" xlink:href="img/1.png"/>
</g>
<path d="M129.9,335.2c6.1,0,11.1,-5,11.1,-11.1C141,317.9,136,313,129.9,313c-6.2,0,-11.1,4.9,-11.1,11.1c0,6.1,4.9,11.1,11.1,11.1Z" class="g0_325"/>
<path d="M129.9,335.2c6.1,0,11.1,-5,11.1,-11.1C141,317.9,136,313,129.9,313c-6.2,0,-11.1,4.9,-11.1,11.1c0,6.1,4.9,11.1,11.1,11.1Z" class="g1_325"/>
<path d="M129.9,436.7c6.1,0,11.1,-5,11.1,-11.1c0,-6.1,-5,-11.1,-11.1,-11.1c-6.2,0,-11.1,5,-11.1,11.1c0,6.1,4.9,11.1,11.1,11.1Z" class="g0_325"/>
<path d="M129.9,436.7c6.1,0,11.1,-5,11.1,-11.1c0,-6.1,-5,-11.1,-11.1,-11.1c-6.2,0,-11.1,5,-11.1,11.1c0,6.1,4.9,11.1,11.1,11.1Z" class="g1_325"/>
<image clip-path="url(#c2_325)" preserveAspectRatio="none" x="576" y="297" width="164" height="96" xlink:href="img/2.jpg"/>
<path d="M575.6,296.8v74.3H718.9V296.8H575.6Z" class="g2_325"/>
<path d="M575.6,296.8v74.3H719V296.8H575.6Z" class="g3_325"/>
<path d="M128.9,559.4c6.1,0,11.1,-5,11.1,-11.1c0,-6.1,-5,-11.1,-11.1,-11.1c-6.1,0,-11.1,5,-11.1,11.1c0,6.1,5,11.1,11.1,11.1Z" class="g0_325"/>
<path d="M128.9,559.4c6.1,0,11.1,-5,11.1,-11.1c0,-6.1,-5,-11.1,-11.1,-11.1c-6.1,0,-11.1,5,-11.1,11.1c0,6.1,5,11.1,11.1,11.1Z" class="g1_325"/>
<path d="M746.3,746.7V656.3h1l.1,90.4h-1.1Z" class="g0_325"/>
<path d="M746.5,650.8l7.2,6.9H740.1l6.4,-6.9Z" class="g4_325"/>
<path d="M746.5,650.8l.3,-.4l7.2,6.9l1,.9H738.9l.8,-.8l6.4,-7l.3,-.4l.4,.4l-.3,.4l.3,.3l-6.3,7l-.4,-.4v-.5h13.6v.5l-.4,.4l-7.2,-6.9l.4,-.4l.3,.3l-.3,-.3Z" class="g0_325"/>
<image clip-path="url(#c3_325)" preserveAspectRatio="none" x="672" y="556" width="158" height="106" xlink:href="img/3.jpg"/>
<image clip-path="url(#c4_325)" preserveAspectRatio="none" x="746" y="658" width="2" height="4" xlink:href="img/4.jpg"/>
<image clip-path="url(#c5_325)" preserveAspectRatio="none" x="741" y="651" width="12" height="7" xlink:href="img/5.jpg"/>
<image clip-path="url(#c6_325)" preserveAspectRatio="none" x="738" y="650" width="17" height="9" xlink:href="img/6.jpg"/>
<image clip-path="url(#c7_325)" preserveAspectRatio="none" x="746" y="657" width="2" height="2" xlink:href="img/7.jpg"/>
<image clip-path="url(#c8_325)" preserveAspectRatio="none" x="740" y="650" width="14" height="8" xlink:href="img/8.jpg"/>
<path d="M678.2,561.9v84.6H815.1V561.9H678.2Z" class="g4_325"/>
<path d="M678.2,561.9v84.6H815.1V561.9H678.2Z" class="g5_325"/>
<path d="M678.2,582.3H814.9" class="g6_325"/>
<image clip-path="url(#c9_325)" preserveAspectRatio="none" x="672" y="709" width="158" height="83" xlink:href="img/9.jpg"/>
<image clip-path="url(#ca_325)" preserveAspectRatio="none" x="746" y="709" width="2" height="38" xlink:href="img/10.jpg"/>
<path d="M678.2,715.2v61.9H815.1V715.2H678.2Z" class="g4_325"/>
<path d="M678.2,715.2v61.9H815.1V715.2H678.2Z" class="g5_325"/>
<path d="M678.2,734.3H814.8" class="g6_325"/>
<path d="M128.9,679.2c6.1,0,11.1,-4.9,11.1,-11.1C140,662,135,657,128.9,657c-6.1,0,-11.1,5,-11.1,11.1c0,6.2,5,11.1,11.1,11.1Z" class="g0_325"/>
<path d="M128.9,679.2c6.1,0,11.1,-4.9,11.1,-11.1C140,662,135,657,128.9,657c-6.1,0,-11.1,5,-11.1,11.1c0,6.2,5,11.1,11.1,11.1Z" class="g1_325"/>
<path d="M129.9,759.7c6.1,0,11.1,-4.9,11.1,-11c0,-6.2,-5,-11.1,-11.1,-11.1c-6.1,0,-11.1,4.9,-11.1,11.1c0,6.1,5,11,11.1,11Z" class="g0_325"/>
<path d="M129.9,759.8c6.1,0,11.1,-5,11.1,-11.1c0,-6.2,-5,-11.1,-11.1,-11.1c-6.1,0,-11.1,4.9,-11.1,11.1c0,6.1,5,11.1,11.1,11.1Z" class="g1_325"/>
<path d="M129.9,849.2c6.1,0,11.1,-5,11.1,-11.1C141,832,136,827,129.9,827c-6.1,0,-11.1,5,-11.1,11.1c0,6.1,5,11.1,11.1,11.1Z" class="g0_325"/>
<path d="M129.9,849.2c6.1,0,11.1,-5,11.1,-11.1C141,832,136,827,129.9,827c-6.1,0,-11.1,5,-11.1,11.1c0,6.1,5,11.1,11.1,11.1Z" class="g1_325"/>
<path d="M443.8,448.2c6.8,5,15.3,4.4,23.5,4.3c9.8,0,19.6,.3,29.4,-.6c5.2,-.5,10.4,-.4,15.5,-.9c7.5,-.7,14.5,-2.7,21.6,-4.7c11.3,-3.2,21.7,-5,32.1,-10.5c12,-6.4,23.5,-13.2,29.9,-25.8c1.9,-3.8,3.2,-7.9,4.7,-11.9c.6,-1.4,1.7,-3.9,1.3,-5.4c-4.5,2.6,-8.2,6.4,-13.9,6.2c4,-1.2,8.2,-4.5,11.6,-6.8c-1.8,7.6,12.7,10.2,18,9.8M377.7,582.6c7.1,1.6,14.4,3.1,21.7,3.7c8.8,.7,17.4,2.2,26.2,3c9.2,.7,18.5,.8,27.8,.8c9.3,.1,18.4,1.4,27.6,1.3c17.5,-.1,35,.4,52.5,.6c12.4,.1,25,.4,37.4,1.1c7.2,.4,14.6,1.6,21.8,1.4c-1.8,.1,-3.8,-.8,-5.4,-1.3c-5.4,-1.7,-10.6,-4.1,-16,-5.7c2.8,.2,5.6,.9,8.3,1.4c2,.3,8.5,.2,10.1,1.8c4.2,4.6,-11.2,14.4,-13.9,16.9M368.1,709.4c4.4,.2,9.2,-2.3,13.5,-3c8.6,-1.4,17.2,-2.8,25.9,-3.4c8.2,-.5,16.2,-2.5,24.3,-3c5.3,-.3,10.6,-1.2,15.8,-1.7c5.6,-.5,11.2,-.3,16.8,-1c7.4,-.8,15,-1.1,22.4,-1.5c13.1,-.8,26.4,.2,39.4,1.2c5.9,.5,11.6,.9,17.4,1.9c7.5,1.3,15.3,1.2,22.8,3c3.5,.8,6.9,2.1,10.4,3.1c6.1,1.8,12.4,2.7,18.5,4.4c8.3,2.2,15.7,5.9,23.1,10c2.9,1.7,5.5,4.1,8.5,5.5c1.5,.7,2.9,1,4.2,2.1c-1.6,-1,-2.5,-2,-3.7,-3.3c-1.8,-2.1,-2.5,-4.7,-4.2,-6.6c.9,4.3,5.9,6.8,7.8,10.5c-5.9,1.4,-12.5,.5,-18.5,.5M403.8,800.6c6.4,6.1,18.8,3.6,26.8,3.2c5.9,-.3,11.7,-1.9,17.6,-2.7c5.7,-.8,11.5,-1.6,17.3,-2.2c16.3,-1.8,32.9,-2.6,49,-5.3c3.5,-.6,7.1,-.9,10.7,-1.1c3.9,-.2,7.5,-1.2,11.3,-1.9c5.9,-1,12,-1.7,17.9,-2.4c3.1,-.4,6.3,-1.5,9.4,-2.1c2.8,-.5,5.6,-1.5,8.3,-2.2c3.1,-.8,6,-1.1,9.2,-1.5c3.5,-.5,6.8,-2.4,10.2,-3.5c4.8,-1.7,9.5,-3.5,14.1,-5.8c2.2,-1,4.4,-2.2,6.4,-3.4c2.5,-1.5,5.7,-2.5,8.1,-4c3.1,-2.1,6.5,-4.6,9.3,-7.2c1.7,-1.6,3.9,-2.6,5.6,-4c2.3,-2,4.4,-5.1,5.7,-7.7c3.6,-6.7,9,-12.1,11.1,-19.6c.8,-3.3,1.7,-6.5,3,-9.7c1.7,-4,4.6,-7.3,6.4,-11.3c4.8,-10.2,7,-21.5,8.8,-32.4c.2,-1.3,1,-2.3,.6,-3.6c-2.1,1,-3.2,3.3,-4.6,5c-1.9,2.1,-4.2,4,-5.2,6.7c4.2,-1,2.5,-10,7.3,-10.7c2.4,-.3,2.4,1.2,3.7,2.8c1.8,2.4,4.5,3.8,6.3,5.4m-242.5,210c9.8,0,20.2,-.5,29.9,-1.9c5.3,-.7,10.2,-1.7,15.6,-1.9c2.1,0,3.9,-.5,5.9,-.6c2.7,-.2,5.4,.3,8,0c10.3,-1,20.6,-.7,30.9,-1.2c3.8,-.2,7.6,-1.1,11.4,-1.4c5.8,-.6,12,-.5,17.8,-1.6c6.2,-1.1,12.6,-2.3,18.6,-3.9c8.2,-2.1,16.6,-3.9,24.6,-6.5c6,-2,11.3,-5.2,17.4,-7.1c5,-1.6,8.2,-4.5,11.9,-7.8c4.3,-3.8,9.7,-6.3,13.6,-10.3c2.6,-2.6,4.6,-5.7,7.1,-8.2c2.6,-2.7,5.6,-5.1,8.2,-7.9c3.5,-4,4.6,-9.9,6.6,-14.7c1.3,-3,3.6,-4.6,4.9,-7.5c.9,-2.2,3.1,-3.7,2.6,-6.1c-1.7,.9,-3.1,2.1,-4.7,3.1c-1.9,1.2,-5.2,2,-6.3,4.2c3.4,.7,5.7,-7,10.5,-5.6c2.2,.7,1.7,2.6,2.5,4.8c1.4,3.9,3.8,4.8,6.8,7.1M709.1,413.8c1.6,-.2,3,-.9,4.2,-2.1c1.5,-1.5,1.4,-3,1.2,-4.9c-.2,-1.6,-.4,-3,-.7,-4.6c-.3,-1.3,-.1,-2.5,-.2,-3.7c-.2,-1.9,-1.5,-3.8,-2.8,-5.2c-.6,-.5,-1.3,-1.1,-1.8,-1.8c-.4,-.5,-.3,-1.4,-1.1,-1.5c-.1,1.1,.1,2.2,-.2,3.3c-.4,1.2,-.7,1.7,-.7,2.9c-.1,-1.2,.5,-2.1,.7,-3.2c.2,-.7,-.1,-2.1,.3,-2.7c.5,-.6,1.1,-.1,1.8,0c1.9,.5,3.5,.7,5.5,.7" class="g7_325"/>
<g clip-path="url(#cb_325)">
<path d="M-4.5,13.7H-27.4m939.5,0H935M-4.5,1031.2H-27.4m939.5,0H935M13.7,-4.5V-27.4m0,1077v22.9m880,-1077V-27.4m0,1077v22.9" class="g8_325"/>
<path d="M-4.5,13.7H-27.4m939.5,0H935M-4.5,1031.2H-27.4m939.5,0H935M13.7,-4.5V-27.4m0,1077v22.9m880,-1077V-27.4m0,1077v22.9" class="g9_325"/>
</g>
</svg>