<?xml version="1.0" encoding="UTF-8" standalone="no"?>
<!DOCTYPE svg PUBLIC "-//W3C//DTD SVG 1.1//EN"
"http://www.w3.org/Graphics/SVG/1.1/DTD/svg11.dtd">
<svg viewBox="0 0 770 1017" version="1.1" xmlns="http://www.w3.org/2000/svg" xmlns:xlink="http://www.w3.org/1999/xlink">
<defs>
<clipPath id="c0_194"><path d="M563.6,332.2l2.7,-2.3l-5.8,-6.8l3.3,6.5l-5.9,-4.2l5.7,6.8Zm-435.5,2.6V102.4h495V334.8Z"/></clipPath>
<clipPath id="c1_194"><path d="M567.2,250.2l-2.3,-6.8l5.3,4.9l-4.8,-7.5l-3,1.9l4.8,7.5ZM128.1,334.8V102.4h495V334.8Z"/></clipPath>
<clipPath id="c2_194"><path d="M566.9,119.6L561,115.5l7.1,.8l-8.3,-3.2l-1.2,3.3l8.3,3.2ZM128.1,334.8V102.4h495V334.8Z"/></clipPath>
<clipPath id="c3_194"><path d="M546.7,117.5l6.4,-6.1l-2.4,-2.6l-6.5,6.1l6.3,-3.5l-3.8,6.1ZM128.1,334.8V102.4h495V334.8Z"/></clipPath>
<clipPath id="c4_194"><path d="M607.2,244.2l3.1,-1.8l-4.6,-7.7l2.1,7l-5.1,-5.1l4.5,7.6ZM128.1,334.8V102.4h495V334.8Z"/></clipPath>
<clipPath id="c5_194"><path d="M566.2,331.3v-8.9l-1.8,7l-1.7,-7v8.9Zm-438.1,3.5V102.4h495V334.8Z"/></clipPath>
<clipPath id="c6_194"><path d="M566.2,283v-9l-1.8,7.1L562.7,274v9ZM128.1,334.8V102.4h495V334.8Z"/></clipPath>
<clipPath id="c7_194"><path d="M565.7,244l3.3,-8.3l-4.2,6l.9,-7.3l-3.3,8.2l3.3,1.4ZM128.1,334.8V102.4h495V334.8Z"/></clipPath>
<clipPath id="c8_194"><path d="M530.3,200.2l4.6,-7.6l-5.1,5.2l2.1,-7l-4.6,7.6l3,1.8ZM128.1,334.8V102.4h495V334.8Z"/></clipPath>
<clipPath id="c9_194"><path d="M580.9,200.2l3,-1.8l-4.6,-7.6l2.2,7l-5.2,-5.2l4.6,7.6ZM128.1,334.8V102.4h495V334.8Z"/></clipPath>
<clipPath id="ca_194"><path d="M557.4,151.1v-8.9l-1.8,7.1l-1.7,-7.1v8.9ZM128.1,334.8V102.4h495V334.8Z"/></clipPath>
<clipPath id="cb_194"><path d="M215.2,154.9l-5.8,-4.3l7.2,1.1l-8.2,-3.4l-1.4,3.2l8.2,3.4ZM128.1,334.8V102.4h495V334.8Z"/></clipPath>
<clipPath id="cc_194"><path d="M332.4,270.6v-3.5h-8.9l7.1,1.8l-7.1,1.7ZM128.1,334.8V102.4h495V334.8Z"/></clipPath>
<clipPath id="cd_194"><path d="M243.7,280.2L240,274l6.2,3.7l-6.3,-6.3l-2.5,2.5l6.3,6.3ZM128.1,334.8V102.4h495V334.8Z"/></clipPath>
<clipPath id="ce_194"><path d="M292.6,314.6l6.3,-6.2l-6.2,3.7l3.7,-6.2l-6.3,6.3l2.5,2.4ZM128.1,334.8V102.4h495V334.8Z"/></clipPath>
<clipPath id="cf_194"><path d="M340.5,266.4l7.6,-4.6l-6.9,2.2l5.1,-5.2l-7.6,4.6l1.8,3ZM128.1,334.8V102.4h495V334.8Z"/></clipPath>
<clipPath id="cg_194"><path d="M383.9,240.1l2.1,-2.9L378.8,232l4.7,5.6l-6.7,-2.8l7.1,5.3ZM128.1,334.8V102.4h495V334.8Z"/></clipPath>
<clipPath id="ch_194"><path d="M337.7,265.4v-8.9l-1.7,7l-1.8,-7v8.9ZM128.1,334.8V102.4h495V334.8Z"/></clipPath>
<clipPath id="ci_194"><path d="M332.4,204.7v-3.5h-8.9l7.1,1.8l-7.1,1.7ZM128.1,334.8V102.4h495V334.8Z"/></clipPath>
<clipPath id="cj_194"><path d="M236.7,265.4v-8.9l-1.8,7l-1.8,-7v8.9ZM128.1,334.8V102.4h495V334.8Z"/></clipPath>
<clipPath id="ck_194"><path d="M181.4,204.7l-7,-1.7l7,-1.8h-8.9v3.5ZM128.1,334.8V102.4h495V334.8Z"/></clipPath>
<clipPath id="cl_194"><path d="M233.9,200.2l2.9,-1.8L232,190.9l2.4,6.9l-5.3,-5.1l4.8,7.5ZM128.1,334.8V102.4h495V334.8Z"/></clipPath>
<clipPath id="cm_194"><path d="M196.6,162.2l5.1,-7.3l-2.9,-2l-5.1,7.3l5.5,-4.7l-2.6,6.7ZM128.1,334.8V102.4h495V334.8Z"/></clipPath>
<style type="text/css"><![CDATA[
.g0_194{
fill: none;
stroke: #000000;
stroke-width: 0.618;
stroke-linecap: butt;
stroke-linejoin: miter;
}
.g1_194{
fill: none;
stroke: #000000;
stroke-width: 0.44;
stroke-linecap: butt;
stroke-linejoin: bevel;
}
.g2_194{
fill: none;
stroke: #000000;
stroke-width: 0.44;
stroke-linecap: butt;
stroke-linejoin: miter;
}
.g3_194{
fill: none;
stroke: #000000;
stroke-width: 0.44;
stroke-linecap: butt;
stroke-linejoin: bevel;
stroke-dasharray: 4;
}
.g4_194{
stroke: #000000;
stroke-width: 0.44;
stroke-linecap: butt;
stroke-linejoin: miter;
}
.g5_194{
}
]]></style>
</defs>
<path d="M56,69.2H695.2" class="g0_194"/>
<path clip-path="url(#c0_194)" d="M555.6,154.7v.3l-.1,.4l-.1,.5l-.2,1l-.2,1.2l-.2,1.5l-.3,1.9l-.5,2.1l-.4,2.6l-.5,2.9l-.5,3.1l-.6,3.5l-.6,3.7l-.7,3.9l-.7,4l-.6,4.2l-.7,4.3l-.7,4.3l-1.4,8.6l-.7,4.2l-.6,4.1l-.6,4.1l-.6,3.9l-.6,3.8l-.5,3.7l-.5,3.5l-.5,3.4l-.4,3.2l-.3,3.2l-.4,2.9l-.3,2.9l-.3,2.7l-.2,2.6l-.2,2.4l-.1,2.4l-.2,2.3l-.1,2.1l-.1,2.1v5.9l.1,1.8v1.8l.2,2.6l.2,2.5l.3,2.5l.4,2.3l.4,2.3l.6,2.2l.7,2.3l.7,2.1l.8,2.2l.9,2.2l1.1,2.2l1.1,2.2l1.2,2.3l1.4,2.2l1.4,2.3l2.9,4.4l1.5,2.2l1.5,2l1.5,2l1.3,1.7l1.2,1.5l1,1.3l.9,1.2l.7,.8l1,1.2" class="g1_194"/>
<path d="M557.9,325.4l5.9,4.2l-3.3,-6.5" class="g2_194"/>
<path clip-path="url(#c1_194)" d="M564.4,330.4l.1,-.1l.2,-.4l.2,-.5l.5,-.9l1.3,-2.7l.9,-1.8l1,-2l1.1,-2.4l1.2,-2.4l1.2,-2.5l1.2,-2.6l1.1,-2.5l1.1,-2.5l1,-2.4l.9,-2.2l.8,-2.2l.8,-2.1l.7,-1.9l.5,-1.9l.6,-1.7l.3,-1.7l.4,-1.5l.2,-1.6l.2,-1.4V285l.1,-1.5l-.1,-1.5l-.1,-1.6l-.2,-1.5l-.3,-1.6l-.3,-1.6l-.5,-1.7l-.6,-1.7l-.6,-1.8l-.8,-1.9l-.8,-2l-1,-2.1l-1.2,-2.2L574.4,260l-1.3,-2.3l-1.2,-2.3l-1.3,-2.3l-1.2,-2.2l-1.2,-2l-1,-1.8l-.9,-1.5l-.7,-1.2l-1.2,-1.9" class="g1_194"/>
<path d="M570.2,248.3l-5.3,-4.9l2.3,6.8" class="g2_194"/>
<path clip-path="url(#c2_194)" d="M582,198.6v-.1l.1,-.1l.1,-.3l.2,-.5l.3,-.6l.3,-.9l.5,-1l.5,-1.2l.5,-1.4l.7,-1.6l.6,-1.7l.7,-1.9l.7,-1.9l.7,-2l.7,-2.1l.7,-2.2l.5,-2.2l.6,-2.3l.6,-2.3l.4,-2.4l.4,-2.4l.3,-2.5l.2,-2.5l.1,-2.7v-2.7l-.2,-2.7l-.3,-2.8l-.5,-2.9l-.6,-2.8l-.9,-3l-1.1,-2.7l-1.1,-2.5l-1.3,-2.4l-1.3,-2.1l-1.4,-1.9l-1.4,-1.8l-1.5,-1.6l-1.5,-1.4l-1.5,-1.4l-1.6,-1.2l-1.6,-1.1L573,121.7l-1.6,-1l-1.5,-.8l-1.6,-.9l-1.4,-.7l-1.4,-.7l-1.2,-.6l-1.1,-.5l-.9,-.4l-.8,-.3l-.5,-.3l-1,-.4" class="g1_194"/>
<path d="M568.1,116.3l-7.1,-.8l5.9,4.1" class="g2_194"/>
<path clip-path="url(#c3_194)" d="M529.3,198.6l-.1,-.2v-.3l-.3,-.6l-.2,-.9l-.4,-1.3l-.4,-1.6l-.6,-2l-.7,-2.2l-.6,-2.6l-.7,-2.6l-.7,-2.7l-.7,-2.7l-.7,-2.8l-.6,-2.6l-.5,-2.6l-.4,-2.4l-.5,-2.4l-.3,-2.1l-.3,-2.1l-.2,-1.9l-.1,-1.8v-3.4l.1,-1.5l.3,-1.6l.2,-1.4l.3,-1.5l.4,-1.4l.5,-1.5l.5,-1.4l.6,-1.4l.8,-1.4l.8,-1.5l1,-1.5l1,-1.5l1.2,-1.6l1.3,-1.7l1.4,-1.7l1.6,-1.8l1.6,-1.9l1.8,-2l1.8,-1.9l1.8,-2l1.9,-1.9l1.8,-1.9l4.7,-4.7l1.2,-1.1l.9,-.9l1.4,-1.4" class="g1_194"/>
<path d="M546.7,117.5l3.8,-6.1l-6.3,3.5" class="g2_194"/>
<path d="M380.7,205.9l.8,-.1h.9l.9,.1l1,.1l1.1,.3l1.1,.3l1.1,.5l1.1,.5l1.1,.6l1.2,.7l1.1,.8l1.1,.8l1.2,1l1,1l1.1,1.1l1,1l.9,1.2l.9,1.2l.7,1.2l.8,1.3l.6,1.2l.6,1.3l.4,1.3l.5,1.2l.2,1.3l.2,1.4l.1,1.4v2.9l-.3,1.5l-.2,1.6l-.5,1.5l-.4,1.6l-.6,1.6l-.7,1.6l-.7,1.5l-.8,1.5l-.9,1.5l-.9,1.4l-.9,1.4l-1,1.2l-1.1,1.2l-1,1l-1,.9l-1,.9l-1.1,.7l-1,.6l-.9,.4l-1,.4l-.9,.2l-.9,.1h-.9l-.9,-.1l-.9,-.3l-.8,-.3l-.9,-.5l-.8,-.6l-.9,-.7l-.8,-.9l-.8,-.9l-.8,-1l-.7,-1.1l-.7,-1.2l-.6,-1.2l-.7,-1.4l-.5,-1.3l-.5,-1.4l-.5,-1.4l-.4,-1.4l-.4,-1.4l-.3,-1.4l-.3,-1.4l-.2,-1.5l-.2,-1.4l-.2,-1.4v-1.5l-.1,-1.4v-3l.1,-1.5l.1,-1.5l.2,-1.5l.2,-1.5l.3,-1.4l.3,-1.4l.5,-1.4l.4,-1.3l.5,-1.3l.5,-1.1l.6,-1.1l.6,-1l.7,-.8l.7,-.8l.8,-.7l.7,-.5l.8,-.5l.9,-.2ZM257.6,244l2,-.1l2,-.1l2.1,-.1l2.1,-.1l2.1,-.1h2.3l2.3,-.1h2.3l2.3,-.1h7.4l2.5,.1h5.1l2.6,.1l2.5,.1l2.6,.2l2.5,.1l2.5,.2l2.5,.1l2.4,.3l2.4,.2l2.4,.2l2.2,.3l2.2,.3l2.1,.4l2.1,.3l2,.4l1.8,.4l1.9,.4l1.7,.5l1.6,.4l1.6,.5l1.6,.5l1.4,.6l1.4,.5l1.4,.7l1.3,.7l1.2,.7l1.2,.8l1.1,.8l1,.8l1,1l.9,.9l.8,1l.8,1.1l.6,1l.6,1.2l.5,1.2l.5,1.2l.4,1.2l.3,1.3l.2,1.3l.1,1.4l.1,1.4l-.1,1.3l-.1,1.4l-.2,1.4l-.2,1.5l-.4,1.4l-.3,1.4l-.5,1.5l-.5,1.4l-.6,1.4l-.6,1.5l-.7,1.5l-.8,1.4l-.8,1.4l-.8,1.6l-.9,1.4l-.9,1.4l-1,1.4l-1,1.4l-1.1,1.5l-1.2,1.5l-1.2,1.5l-1.3,1.5l-1.4,1.5l-1.4,1.6l-1.4,1.5l-1.5,1.5l-1.7,1.5l-1.6,1.5l-1.7,1.5l-1.8,1.4l-1.8,1.3l-1.9,1.4l-1.8,1.2L317,319l-2,1.1l-1.9,1.2l-2,1l-2,.9l-2,.9l-2,.7l-2,.7l-1.9,.6l-2,.5l-2,.4l-2,.4l-1.9,.2l-2,.1h-2l-1.9,-.1l-1.9,-.1l-2,-.3l-2,-.4l-2,-.4l-2,-.6l-2.1,-.7l-2,-.8l-2.1,-.8l-2.1,-1L267,321.4l-2.1,-1.1l-2.2,-1.2l-2.2,-1.3l-2.2,-1.3L256.1,315l-2.2,-1.5l-2.2,-1.6l-2.1,-1.5l-2.2,-1.7L245.3,307l-2.1,-1.7l-2.1,-1.7l-2,-1.7l-1.9,-1.8l-1.9,-1.7l-1.9,-1.7L231.6,295l-1.7,-1.7l-1.7,-1.7L226.6,290l-1.5,-1.6l-1.4,-1.5l-1.4,-1.5L221,283.9l-1.3,-1.4l-1.2,-1.3l-1.2,-1.3L216,278.4l-1.2,-1.5l-1.2,-1.4l-1.1,-1.3l-1,-1.4l-1,-1.3l-.8,-1.2l-.9,-1.2L208,268l-.6,-1.2l-.7,-1.1l-.5,-1l-.5,-1l-.4,-1l-.3,-.9l-.3,-.8l-.1,-.9l-.1,-.8v-.7l.1,-.7l.1,-.7l.2,-.6l.2,-.5l.3,-.6l.4,-.5l.5,-.5l.5,-.4l.5,-.5l.6,-.4l.6,-.4l.8,-.4l.8,-.4l.9,-.4l.9,-.5l1.1,-.4l1.2,-.4l1.1,-.4l1.4,-.4l1.4,-.4l1.5,-.4l1.6,-.3l1.6,-.4l1.8,-.3l1.9,-.4l1.8,-.3l2,-.3l2.1,-.3l2.1,-.3l2.2,-.3l2.1,-.2l2.3,-.3l2.2,-.3l2.3,-.1l2.3,-.3l2.4,-.1l2.4,-.2l2.4,-.1ZM177.8,130.5l1.4,-.7l1.4,-.6l1.5,-.6l1.5,-.6l1.5,-.6l1.7,-.5l1.6,-.5l1.7,-.4l1.7,-.5l1.9,-.3l1.8,-.4l1.9,-.2l1.9,-.3l2,-.3l2.1,-.2l2.1,-.1h2l2.2,-.1h2.1l2.2,.1l2.2,.1l2.1,.1l2.2,.2l2.2,.2l2.1,.3l2.2,.3l2.2,.4l2.1,.3l2.2,.5l2.2,.4l2.1,.5l2.3,.6l1.8,.5l1.9,.5l1.9,.5l2,.6l1.9,.7l2.1,.6l2,.7l2.1,.7l2.1,.8l2.1,.8l2.3,.8l2.2,.8l2.2,1l2.2,.8l2.3,1l2.3,1l2.4,1l2.2,1l2.3,1l2.3,1l2.3,1.1l2.2,1.1l2.2,1l2.3,1.1l2.1,1l2.1,1.2l2.1,1l2,1.1l2,1l2,1.1l1.8,1l1.9,1l1.8,1l1.7,1l1.7,1l1.6,1l1.6,.9l1.6,1l2,1.3l2,1.3l2,1.2l1.9,1.3l1.9,1.4l1.8,1.3l1.7,1.3l1.8,1.4l1.7,1.3l1.7,1.4l1.6,1.4l1.5,1.4l1.5,1.3l1.4,1.4l1.3,1.4l1.3,1.3l1.2,1.4l1.1,1.3l1,1.3l.9,1.2l.8,1.3l.8,1.2l.6,1.2l.6,1.1l.6,1.2l.4,1.1l.4,1.1l.3,1.1l.3,.9l.1,1l.2,.9v2.9l-.2,.9l-.2,1l-.3,.9l-.4,1l-.5,1l-.6,1l-.8,.9l-.8,1l-.9,.9l-1,1l-1.2,.9l-1.3,.8l-1.4,.9l-1.5,.8l-1.6,.9l-1.8,.8l-1.8,.7l-2,.7l-2,.7l-2.2,.6l-2.3,.7l-2.4,.5l-2.5,.6l-2.6,.5l-2.7,.5l-2.9,.5l-2.1,.2l-2.2,.3l-2.2,.3l-2.3,.3l-2.4,.2l-2.6,.2l-2.5,.3l-2.7,.2l-2.7,.2l-2.8,.2l-2.8,.2l-3,.2l-3,.1l-3.1,.2l-3.2,.1l-3.1,.2h-3.3l-3.3,.1l-3.3,.1l-3.4,.1l-3.4,.1h-6.9l-3.5,.1h-6.8l-3.5,-.1h-6.7l-3.3,-.1l-3.3,-.1l-3.2,-.1h-3.1l-3.2,-.1l-3,-.2l-3,-.1l-2.9,-.1l-2.8,-.1l-2.8,-.2l-2.7,-.2l-2.6,-.1l-2.6,-.2l-2.4,-.2l-2.5,-.2l-2.3,-.2l-2.2,-.2l-3.2,-.3l-3,-.4l-3,-.3l-2.8,-.4l-2.7,-.5l-2.6,-.4l-2.5,-.5l-2.5,-.5l-2.3,-.5l-2.3,-.6l-2.2,-.6l-2.1,-.5l-2,-.7l-1.9,-.6l-1.7,-.7l-1.7,-.7l-1.5,-.8L140,216l-1.3,-.8l-1.3,-.8l-1.1,-.7l-1.1,-.9l-.9,-.8l-.9,-.8l-.7,-.8l-.7,-.9l-.6,-.8l-.5,-.8l-.4,-.9l-.5,-.8l-.2,-.9l-.3,-.8l-.3,-1.2l-.3,-1.2l-.1,-1.3v-2.7l.1,-1.4l.2,-1.5l.2,-1.5l.3,-1.6l.4,-1.6l.5,-1.7l.6,-1.7l.6,-1.7l.7,-1.7l.7,-1.7l.8,-1.7l.8,-1.7l.9,-1.7l.8,-1.7l.9,-1.7l.9,-1.6l1,-1.6l1,-1.6l1,-1.6l.9,-1.4l.8,-1.3l1,-1.4l1,-1.4l1,-1.5l1,-1.5l1.1,-1.4l1.1,-1.5l1.2,-1.5l1.2,-1.5l1.3,-1.6l1.3,-1.4l1.4,-1.5l1.3,-1.5l1.4,-1.5l1.5,-1.4l1.5,-1.4l1.4,-1.3l1.5,-1.3l1.5,-1.3l1.5,-1.2l1.5,-1.2l1.5,-1l1.5,-1.1l1.6,-.9l1.5,-.9l1.5,-.9Z" class="g3_194"/>
<path clip-path="url(#c4_194)" d="M582,198.6l26.4,43.9" class="g2_194"/>
<path d="M602.7,236.6l5.1,5.1l-2.1,-7m2.7,7.8H568.8" class="g2_194"/>
<path clip-path="url(#c5_194)" d="M564.4,290.9v39.5" class="g2_194"/>
<path d="M562.7,322.4l1.7,7l1.8,-7" class="g2_194"/>
<path clip-path="url(#c6_194)" d="M564.4,242.5v39.6" class="g2_194"/>
<path d="M562.7,274l1.7,7.1l1.8,-7.1" class="g2_194"/>
<path clip-path="url(#c7_194)" d="M582,198.6l-17.6,43.9" class="g2_194"/>
<path d="M565.7,234.4l-.9,7.3l4.2,-6" class="g2_194"/>
<path clip-path="url(#c8_194)" d="M555.6,154.7l-26.3,43.9" class="g2_194"/>
<path d="M531.9,190.8l-2.1,7l5.1,-5.2" class="g2_194"/>
<path clip-path="url(#c9_194)" d="M555.6,154.7L582,198.6" class="g2_194"/>
<path d="M576.3,192.6l5.2,5.2l-2.2,-7" class="g2_194"/>
<path fill-rule="evenodd" d="M567.9,286.5c0,1.9,-1.5,3.5,-3.5,3.5c-1.9,0,-3.5,-1.6,-3.5,-3.5c0,-2,1.6,-3.6,3.5,-3.6c2,0,3.5,1.6,3.5,3.6Z" class="g4_194"/>
<path fill-rule="evenodd" d="M567.9,242.5c0,2,-1.5,3.5,-3.5,3.5c-1.9,0,-3.5,-1.5,-3.5,-3.5c0,-1.9,1.6,-3.5,3.5,-3.5c2,0,3.5,1.6,3.5,3.5Z" class="g4_194"/>
<path fill-rule="evenodd" d="M559.2,154.7c0,1.9,-1.6,3.5,-3.6,3.5c-1.9,0,-3.5,-1.6,-3.5,-3.5c0,-2,1.6,-3.6,3.5,-3.6c2,0,3.6,1.6,3.6,3.6Z" class="g4_194"/>
<path fill-rule="evenodd" d="M559.2,110.7c0,2,-1.6,3.5,-3.6,3.5c-1.9,0,-3.5,-1.5,-3.5,-3.5c0,-1.9,1.6,-3.5,3.5,-3.5c2,0,3.6,1.6,3.6,3.5Z" class="g4_194"/>
<path fill-rule="evenodd" d="M586.4,198.6c0,1.9,-1.6,3.5,-3.5,3.5c-2,0,-3.6,-1.6,-3.6,-3.5c0,-1.9,1.6,-3.5,3.6,-3.5c1.9,0,3.5,1.6,3.5,3.5Z" class="g4_194"/>
<path fill-rule="evenodd" d="M531.9,198.6c0,1.9,-1.6,3.5,-3.5,3.5c-2,0,-3.5,-1.6,-3.5,-3.5c0,-1.9,1.5,-3.5,3.5,-3.5c1.9,0,3.5,1.6,3.5,3.5Z" class="g4_194"/>
<path fill-rule="evenodd" d="M291.1,317.2c0,2,-1.5,3.5,-3.5,3.5c-1.9,0,-3.5,-1.5,-3.5,-3.5c0,-1.9,1.6,-3.5,3.5,-3.5c2,0,3.5,1.6,3.5,3.5Z" class="g4_194"/>
<path fill-rule="evenodd" d="M238.4,268.9c0,1.9,-1.6,3.5,-3.5,3.5c-1.9,0,-3.5,-1.6,-3.5,-3.5c0,-2,1.6,-3.5,3.5,-3.5c1.9,0,3.5,1.5,3.5,3.5Z" class="g4_194"/>
<path fill-rule="evenodd" d="M339.5,268.9c0,1.9,-1.6,3.5,-3.5,3.5c-2,0,-3.6,-1.6,-3.6,-3.5c0,-2,1.6,-3.5,3.6,-3.5c1.9,0,3.5,1.5,3.5,3.5Z" class="g4_194"/>
<path fill-rule="evenodd" d="M387.8,238.1c0,2,-1.6,3.5,-3.5,3.5c-2,0,-3.5,-1.5,-3.5,-3.5c0,-1.9,1.5,-3.5,3.5,-3.5c1.9,0,3.5,1.6,3.5,3.5Z" class="g4_194"/>
<path fill-rule="evenodd" d="M339.5,203c0,1.9,-1.6,3.5,-3.5,3.5c-2,0,-3.6,-1.6,-3.6,-3.5c0,-1.9,1.6,-3.5,3.6,-3.5c1.9,0,3.5,1.6,3.5,3.5Z" class="g4_194"/>
<path fill-rule="evenodd" d="M238.4,203c0,1.9,-1.6,3.5,-3.5,3.5c-1.9,0,-3.5,-1.6,-3.5,-3.5c0,-1.9,1.6,-3.5,3.5,-3.5c1.9,0,3.5,1.6,3.5,3.5Z" class="g4_194"/>
<path fill-rule="evenodd" d="M172.5,203c0,1.9,-1.5,3.5,-3.5,3.5c-1.9,0,-3.5,-1.6,-3.5,-3.5c0,-1.9,1.6,-3.5,3.5,-3.5c2,0,3.5,1.6,3.5,3.5Z" class="g4_194"/>
<path fill-rule="evenodd" d="M207.7,150.3c0,1.9,-1.6,3.5,-3.6,3.5c-1.9,0,-3.5,-1.6,-3.5,-3.5c0,-2,1.6,-3.6,3.5,-3.6c2,0,3.6,1.6,3.6,3.6Z" class="g4_194"/>
<path fill-rule="evenodd" d="M567.9,330.4c0,1.9,-1.5,3.5,-3.5,3.5c-1.9,0,-3.5,-1.6,-3.5,-3.5c0,-2,1.6,-3.5,3.5,-3.5c2,0,3.5,1.5,3.5,3.5Z" class="g5_194"/>
<path d="M567.9,330.4c0,1.9,-1.5,3.5,-3.5,3.5c-1.9,0,-3.5,-1.6,-3.5,-3.5c0,-2,1.6,-3.5,3.5,-3.5c2,0,3.5,1.5,3.5,3.5Z" class="g2_194"/>
<path clip-path="url(#ca_194)" d="M555.6,110.7v39.6" class="g2_194"/>
<path d="M553.9,142.2l1.7,7.1l1.8,-7.1" class="g2_194"/>
<path clip-path="url(#cb_194)" d="M336,203L208.5,150.3" class="g2_194"/>
<path d="M216.6,151.7l-7.2,-1.1l5.8,4.3" class="g2_194"/>
<path clip-path="url(#cc_194)" d="M234.9,268.9h96.7" class="g2_194"/>
<path d="M323.5,270.6l7.1,-1.7l-7.1,-1.8" class="g2_194"/>
<path clip-path="url(#cd_194)" d="M287.6,321.6L239.3,273.3" class="g2_194"/>
<path d="M246.2,277.7L240,274l3.7,6.2" class="g2_194"/>
<path clip-path="url(#ce_194)" d="M336,268.9l-44,43.9" class="g2_194"/>
<path d="M296.4,305.9l-3.7,6.2l6.2,-3.7" class="g2_194"/>
<path clip-path="url(#cf_194)" d="M384.3,238.1l-44,26.4" class="g2_194"/>
<path d="M346.3,258.8l-5.1,5.2l6.9,-2.2" class="g2_194"/>
<path clip-path="url(#cg_194)" d="M336,203l48.3,35.1" class="g2_194"/>
<path d="M376.8,234.8l6.7,2.8L378.8,232" class="g2_194"/>
<path clip-path="url(#ch_194)" d="M336,203v61.5" class="g2_194"/>
<path d="M334.2,256.5l1.8,7l1.7,-7" class="g2_194"/>
<path clip-path="url(#ci_194)" d="M234.9,203h96.7" class="g2_194"/>
<path d="M323.5,204.7l7.1,-1.7l-7.1,-1.8" class="g2_194"/>
<path clip-path="url(#cj_194)" d="M234.9,207.4v57.1" class="g2_194"/>
<path d="M233.1,256.5l1.8,7l1.8,-7" class="g2_194"/>
<path clip-path="url(#ck_194)" d="M234.9,203H173.4" class="g2_194"/>
<path d="M181.4,201.2l-7,1.8l7,1.7" class="g2_194"/>
<path clip-path="url(#cl_194)" d="M204.2,150.3l30.7,48.3" class="g2_194"/>
<path d="M229.1,192.7l5.3,5.1L232,190.9" class="g2_194"/>
<path clip-path="url(#cm_194)" d="M169,198.6l30.8,-43.9" class="g2_194"/>
<path d="M196.6,162.2l2.6,-6.7l-5.5,4.7" class="g2_194"/>
<path fill-rule="evenodd" d="M611.9,242.5c0,2,-1.6,3.5,-3.6,3.5c-1.9,0,-3.5,-1.5,-3.5,-3.5c0,-1.9,1.6,-3.5,3.5,-3.5c2,0,3.6,1.6,3.6,3.5Z" class="g4_194"/>
<path d="M65.1,387.8h621" class="g0_194"/>
</svg>