<?xml version="1.0" encoding="UTF-8" standalone="no"?>
<!DOCTYPE svg PUBLIC "-//W3C//DTD SVG 1.1//EN"
"http://www.w3.org/Graphics/SVG/1.1/DTD/svg11.dtd">
<svg viewBox="0 0 660 990" version="1.1" xmlns="http://www.w3.org/2000/svg" xmlns:xlink="http://www.w3.org/1999/xlink">
<defs>
<clipPath id="c0_216"><path d="M86.9,251.6l-1.2,-2.4l-1.2,-2.3h491l-1.2,2.3l-1.2,2.4Z"/></clipPath>
<clipPath id="c1_216"><path d="M576.5,830.7l-2.3,-1.2l-2.4,-1.2v-578l2.4,-1.2l2.3,-1.2V830.7Z"/></clipPath>
<clipPath id="c2_216"><path d="M84.5,831.8l1.2,-2.4l1.2,-2.3H573.1l1.2,2.3l1.2,2.4Z"/></clipPath>
<clipPath id="c3_216"><path d="M83.5,830.7V247.9l2.3,1.2l2.4,1.2v578l-2.4,1.2l-2.3,1.2Z"/></clipPath>
<clipPath id="c4_216"><path d="M85.6,915.9v-5.1H574.4v5.1Z"/></clipPath>
<clipPath id="c5_216"><path d="M281.3,365.9V352.1H295v13.8Z"/></clipPath>
<clipPath id="c6_216"><path d="M398.1,550.7V536.9h13.8v13.8Z"/></clipPath>
<clipPath id="c7_216"><path d="M263.7,581.2V567.5h13.8v13.7Z"/></clipPath>
<clipPath id="c8_216"><path d="M304.6,597.7V584h13.8v13.7Z"/></clipPath>
<clipPath id="c9_216"><path d="M316.3,614.2V600.5h13.8v13.7Z"/></clipPath>
<clipPath id="ca_216"><path d="M97.5,676.7V662.9h13.8v13.8Z"/></clipPath>
<clipPath id="cb_216"><path d="M97.5,710.1V696.3h13.8v13.8Z"/></clipPath>
<clipPath id="cc_216"><path d="M97.5,743.5V729.8h13.8v13.7Z"/></clipPath>
<clipPath id="cd_216"><path d="M97.5,776.9V763.2h13.8v13.7Z"/></clipPath>
<clipPath id="ce_216"><path d="M97.5,810.4V796.6h13.8v13.8Z"/></clipPath>
<style type="text/css"><![CDATA[
.g0_216{
fill: none;
stroke: #231F20;
stroke-width: 0.381;
stroke-linecap: round;
stroke-linejoin: miter;
}
.g1_216{
fill: #231F20;
}
.g2_216{
fill: none;
stroke: #231F20;
stroke-width: 1.527;
stroke-linecap: butt;
stroke-linejoin: miter;
stroke-miterlimit: 4;
}
.g3_216{
fill: #FFFFFF;
}
.g4_216{
fill: none;
stroke: #231F20;
stroke-width: 0.763;
stroke-linecap: round;
stroke-linejoin: miter;
}
]]></style>
</defs>
<path clip-path="url(#c0_216)" d="M85.6,249.2H574.4" class="g0_216"/>
<path clip-path="url(#c1_216)" d="M574.2,249V829.6" class="g0_216"/>
<path clip-path="url(#c2_216)" d="M574.4,829.4H85.6" class="g0_216"/>
<path clip-path="url(#c3_216)" d="M85.8,829.6V249" class="g0_216"/>
<path clip-path="url(#c4_216)" d="M85.6,913.4H574.4" class="g4_216"/>
<g clip-path="url(#c5_216)">
<path d="M288.1,353.7c3,0,5.4,2.4,5.4,5.3c0,3,-2.4,5.4,-5.4,5.4c-2.9,0,-5.3,-2.4,-5.3,-5.4c0,-2.9,2.4,-5.3,5.3,-5.3Z" class="g1_216"/>
<path d="M288.1,353.7c3,0,5.4,2.4,5.4,5.3c0,3,-2.4,5.4,-5.4,5.4c-2.9,0,-5.3,-2.4,-5.3,-5.4c0,-2.9,2.4,-5.3,5.3,-5.3Z" class="g2_216"/>
<path d="M286.1,357h.2c1.3,0,1.6,-.7,1.6,-1.2H289v6.7h-1.3v-4.6h-1.6V357Z" class="g3_216"/>
</g>
<g clip-path="url(#c6_216)">
<path d="M405,538.5c3,0,5.4,2.4,5.4,5.3c0,3,-2.4,5.4,-5.4,5.4c-2.9,0,-5.3,-2.4,-5.3,-5.4c0,-2.9,2.4,-5.3,5.3,-5.3Z" class="g1_216"/>
<path d="M405,538.5c3,0,5.4,2.4,5.4,5.3c0,3,-2.4,5.4,-5.4,5.4c-2.9,0,-5.3,-2.4,-5.3,-5.4c0,-2.9,2.4,-5.3,5.3,-5.3Z" class="g2_216"/>
<path d="M402.7,542.4c0,-2.1,1.6,-2.3,2.2,-2.3c1.3,0,2.3,.7,2.3,2.1c0,1.1,-.7,1.7,-1.4,2.1c-.9,.6,-1.3,.9,-1.5,1.3h2.9v1.1h-4.5c0,-.8,.1,-1.6,1.5,-2.6c1.2,-.9,1.7,-1.2,1.7,-2c0,-.4,-.3,-.9,-.9,-.9c-.9,0,-1,.7,-1,1.2h-1.3Z" class="g3_216"/>
</g>
<g clip-path="url(#c7_216)">
<path d="M270.6,569c3,0,5.4,2.4,5.4,5.3c0,3,-2.4,5.4,-5.4,5.4c-2.9,0,-5.3,-2.4,-5.3,-5.4c0,-2.9,2.4,-5.3,5.3,-5.3Z" class="g1_216"/>
<path d="M270.6,569c3,0,5.4,2.4,5.4,5.3c0,3,-2.4,5.4,-5.4,5.4c-2.9,0,-5.3,-2.4,-5.3,-5.4c0,-2.9,2.4,-5.3,5.3,-5.3Z" class="g2_216"/>
<path d="M270.2,573.5h.2c.4,0,1.1,0,1.1,-.9c0,-.2,-.1,-.8,-.9,-.8c-.9,0,-.9,.8,-.9,1h-1.2c0,-1.2,.7,-2.1,2.2,-2.1c.9,0,2.1,.5,2.1,1.9c0,.6,-.4,1.1,-.8,1.2c.2,.1,1,.5,1,1.6c0,1.2,-.9,2.1,-2.3,2.1c-.6,0,-2.3,-.1,-2.3,-2.2h1.3c0,.4,.1,1.2,1,1.2c.5,0,.9,-.4,.9,-1.1c0,-.9,-.8,-1,-1.4,-1v-.9Z" class="g3_216"/>
</g>
<g clip-path="url(#c8_216)">
<path d="M311.5,585.5c3,0,5.4,2.4,5.4,5.3c0,3,-2.4,5.4,-5.4,5.4c-2.9,0,-5.3,-2.4,-5.3,-5.4c0,-2.9,2.4,-5.3,5.3,-5.3Z" class="g1_216"/>
<path d="M311.5,585.5c3,0,5.4,2.4,5.4,5.3c0,3,-2.4,5.4,-5.4,5.4c-2.9,0,-5.3,-2.4,-5.3,-5.4c0,-2.9,2.4,-5.3,5.3,-5.3Z" class="g2_216"/>
<path d="M311.3,591.2c0,-1.6,0,-2.6,0,-2.8l-1.7,2.8h1.7Zm2,1.1h-.7v1.4h-1.3v-1.4h-2.6v-1.2l2.4,-4h1.5v4.1h.7v1.1Z" class="g3_216"/>
</g>
<g clip-path="url(#c9_216)">
<path d="M323.2,602c3,0,5.4,2.4,5.4,5.3c0,3,-2.4,5.4,-5.4,5.4c-2.9,0,-5.3,-2.4,-5.3,-5.4c0,-2.9,2.4,-5.3,5.3,-5.3Z" class="g1_216"/>
<path d="M323.2,602c3,0,5.4,2.4,5.4,5.3c0,3,-2.4,5.4,-5.4,5.4c-2.9,0,-5.3,-2.4,-5.3,-5.4c0,-2.9,2.4,-5.3,5.3,-5.3Z" class="g2_216"/>
<path d="M322.4,606.6c.2,-.2,.5,-.4,1.2,-.4c.9,0,2,.6,2,2.2c0,.9,-.5,2.3,-2.4,2.3c-1.1,0,-2.1,-.6,-2.2,-1.9h1.3c.1,.5,.4,.9,.9,.9c.7,0,1,-.5,1,-1.2c0,-.6,-.2,-1.2,-.9,-1.2c-.2,0,-.7,0,-.9,.4h-1.2l.5,-3.7h3.6v1.1h-2.7l-.2,1.5Z" class="g3_216"/>
</g>
<g clip-path="url(#ca_216)">
<path d="M104.4,664.4c2.9,0,5.3,2.4,5.3,5.4c0,2.9,-2.4,5.3,-5.3,5.3c-3,0,-5.4,-2.4,-5.4,-5.3c0,-3,2.4,-5.4,5.4,-5.4Z" class="g1_216"/>
<path d="M104.4,664.4c2.9,0,5.3,2.4,5.3,5.4c0,2.9,-2.4,5.3,-5.3,5.3c-3,0,-5.4,-2.4,-5.4,-5.3c0,-3,2.4,-5.4,5.4,-5.4Z" class="g2_216"/>
<path d="M102.4,667.7h.2c1.2,0,1.6,-.6,1.6,-1.1h1.1v6.6h-1.4v-4.5h-1.5v-1Z" class="g3_216"/>
</g>
<g clip-path="url(#cb_216)">
<path d="M104.4,697.9c2.9,0,5.3,2.4,5.3,5.3c0,3,-2.4,5.4,-5.3,5.4c-3,0,-5.4,-2.4,-5.4,-5.4c0,-2.9,2.4,-5.3,5.4,-5.3Z" class="g1_216"/>
<path d="M104.4,697.9c2.9,0,5.3,2.4,5.3,5.3c0,3,-2.4,5.4,-5.3,5.4c-3,0,-5.4,-2.4,-5.4,-5.4c0,-2.9,2.4,-5.3,5.4,-5.3Z" class="g2_216"/>
<path d="M102.1,701.8c0,-2.1,1.6,-2.3,2.2,-2.3c1.3,0,2.3,.7,2.3,2.1c0,1.1,-.8,1.7,-1.4,2.1c-.9,.6,-1.4,.9,-1.5,1.3h2.9v1.1H102c.1,-.8,.1,-1.6,1.6,-2.6c1.2,-.9,1.7,-1.2,1.7,-2c0,-.4,-.3,-.9,-1,-.9c-.9,0,-.9,.7,-.9,1.2h-1.3Z" class="g3_216"/>
</g>
<g clip-path="url(#cc_216)">
<path d="M104.4,731.3c2.9,0,5.3,2.4,5.3,5.3c0,3,-2.4,5.4,-5.3,5.4c-3,0,-5.4,-2.4,-5.4,-5.4c0,-2.9,2.4,-5.3,5.4,-5.3Z" class="g1_216"/>
<path d="M104.4,731.3c2.9,0,5.3,2.4,5.3,5.3c0,3,-2.4,5.4,-5.3,5.4c-3,0,-5.4,-2.4,-5.4,-5.4c0,-2.9,2.4,-5.3,5.4,-5.3Z" class="g2_216"/>
<path d="M103.9,735.8h.2c.4,0,1.2,0,1.2,-.9c0,-.2,-.2,-.8,-.9,-.8c-.9,0,-.9,.8,-.9,1h-1.2c0,-1.2,.7,-2.1,2.2,-2.1c.9,0,2.1,.5,2.1,1.9c0,.6,-.5,1.1,-.8,1.2c.2,.1,1,.5,1,1.6c0,1.2,-1,2.1,-2.3,2.1c-.6,0,-2.3,-.1,-2.3,-2.2h1.3c0,.4,.1,1.2,.9,1.2c.6,0,1,-.4,1,-1.1c0,-.9,-.9,-1,-1.5,-1v-.9Z" class="g3_216"/>
</g>
<g clip-path="url(#cd_216)">
<path d="M104.4,764.7c2.9,0,5.3,2.4,5.3,5.4c0,2.9,-2.4,5.3,-5.3,5.3c-3,0,-5.4,-2.4,-5.4,-5.3c0,-3,2.4,-5.4,5.4,-5.4Z" class="g1_216"/>
<path d="M104.4,764.7c2.9,0,5.3,2.4,5.3,5.4c0,2.9,-2.4,5.3,-5.3,5.3c-3,0,-5.4,-2.4,-5.4,-5.3c0,-3,2.4,-5.4,5.4,-5.4Z" class="g2_216"/>
<path d="M104.1,770.5c0,-1.6,.1,-2.7,.1,-2.9l-1.7,2.9h1.6Zm2.1,1h-.7V773h-1.4v-1.5h-2.6v-1.1l2.5,-4.1h1.5v4.2h.7v1Z" class="g3_216"/>
</g>
<g clip-path="url(#ce_216)">
<path d="M104.4,798.2c2.9,0,5.3,2.4,5.3,5.3c0,3,-2.4,5.4,-5.3,5.4c-3,0,-5.4,-2.4,-5.4,-5.4c0,-2.9,2.4,-5.3,5.4,-5.3Z" class="g1_216"/>
<path d="M104.4,798.2c2.9,0,5.3,2.4,5.3,5.3c0,3,-2.4,5.4,-5.3,5.4c-3,0,-5.4,-2.4,-5.4,-5.4c0,-2.9,2.4,-5.3,5.4,-5.3Z" class="g2_216"/>
<path d="M103.6,802.8c.2,-.2,.5,-.4,1.2,-.4c.8,0,2,.6,2,2.1c0,.9,-.5,2.4,-2.4,2.4c-1.1,0,-2.1,-.6,-2.2,-1.9h1.3c.1,.5,.4,.9,.9,.9c.7,0,1,-.6,1,-1.3c0,-.6,-.3,-1.2,-.9,-1.2c-.2,0,-.7,0,-.9,.5h-1.2l.5,-3.7h3.6v1.1h-2.7l-.2,1.5Z" class="g3_216"/>
</g>
</svg>