<?xml version="1.0" encoding="UTF-8" standalone="no"?>
<!DOCTYPE svg PUBLIC "-//W3C//DTD SVG 1.1//EN"
"http://www.w3.org/Graphics/SVG/1.1/DTD/svg11.dtd">
<svg viewBox="0 0 811 1017" version="1.1" xmlns="http://www.w3.org/2000/svg" xmlns:xlink="http://www.w3.org/1999/xlink">
<defs>
<style type="text/css"><![CDATA[
.g0_39{
fill: #FFFFFF;
}
.g1_39{
fill: none;
stroke: #000000;
stroke-width: 1.732;
stroke-linecap: butt;
stroke-linejoin: miter;
stroke-miterlimit: 11;
}
.g2_39{
fill: none;
stroke: #000000;
stroke-width: 0.866;
stroke-linecap: butt;
stroke-linejoin: miter;
stroke-miterlimit: 11;
}
.g3_39{
}
]]></style>
</defs>
<path d="M157.2,700H564.4V420.5H157.2Z" class="g0_39"/>
<path d="M265.3,534.1h298v165h-298Zm-.2,-53.9H563.5v34.1H265.1Z" class="g1_39"/>
<path d="M275.9,485.5H408.4v21.1H275.9Zm143.3,-.3H551.7v21.1H419.2ZM273,665.6H556.1v23H273Zm-.2,-33.1H407.5v21.6H272.8Zm-.6,-31.9H555.4v21.3H272.2Zm.5,-33.6H555.9v21.3H272.7Z" class="g2_39"/>
<path d="M301.2,453.4c-3.6,0,-6.5,-3,-6.5,-6.7c0,-3.6,2.9,-6.6,6.5,-6.6c3.6,0,6.5,3,6.5,6.6c0,3.7,-2.9,6.7,-6.5,6.7Zm0,-16c-5,0,-9.1,4.2,-9.1,9.3c0,5.2,4.1,9.4,9.1,9.4c5,0,9.1,-4.2,9.1,-9.4c0,-5.1,-4.1,-9.3,-9.1,-9.3Z" class="g3_39"/>
<path d="M318.9,463.3L301,489.6L283.1,463.2c-6.8,-9.2,-5.9,-24.3,2,-32.4c4.3,-4.3,9.9,-6.7,15.9,-6.7c6,0,11.6,2.4,15.8,6.7c7.9,8.1,8.9,23.2,2.1,32.5Zm-.2,-34.4c-4.8,-4.8,-11,-7.4,-17.7,-7.4c-6.7,0,-13,2.6,-17.7,7.4c-8.8,9,-9.8,25.7,-2.4,35.9L301,494.3l20,-29.5c7.5,-10.2,6.4,-26.9,-2.3,-35.9Z" class="g3_39"/>
<path d="M272.7,538.9H555.9v21.3H272.7Zm149,93.6H555.9v21.6H421.7Z" class="g2_39"/>
</svg>