<?xml version="1.0" encoding="UTF-8" standalone="no"?>
<!DOCTYPE svg PUBLIC "-//W3C//DTD SVG 1.1//EN"
"http://www.w3.org/Graphics/SVG/1.1/DTD/svg11.dtd">
<svg viewBox="0 0 770 1017" version="1.1" xmlns="http://www.w3.org/2000/svg" xmlns:xlink="http://www.w3.org/1999/xlink">
<defs>
<clipPath id="c0_183"><path d="M484.6,143.5l13.8,-13.9l-13.3,7.7L492.9,124L479,137.9l5.6,5.6ZM193.8,849V78.1H770V849Z"/></clipPath>
<clipPath id="c1_183"><path d="M542.7,143.5l5.7,-5.6L534.5,124l7.7,13.3l-13.3,-7.7l13.8,13.9ZM193.8,849V78.1H770V849Z"/></clipPath>
<clipPath id="c2_183"><path d="M473.4,181.4l3.8,-19.3l-6.8,13.8l-.9,-15.3l-3.8,19.2l7.7,1.6ZM193.8,849V78.1H770V849Z"/></clipPath>
<clipPath id="c3_183"><path d="M473.8,224.4V204.8l-3.9,14.9l-4,-14.9v19.6ZM193.8,849V78.1H770V849Z"/></clipPath>
<clipPath id="c4_183"><path d="M470.6,268.9l7.8,-1.4l-3.2,-19.3l-1.5,15.3l-6.3,-14l3.2,19.4ZM193.8,849V78.1H770V849Z"/></clipPath>
<clipPath id="c5_183"><path d="M456.5,165.2l16.9,-10.1l-4.1,-6.8l-16.8,10.1l14.8,-4.3l-10.8,11.1ZM193.8,849V78.1H770V849Z"/></clipPath>
<clipPath id="c6_183"><path d="M512.3,140l-2,-15.3l9.3,12.4l-7.3,-18.3l-7.3,3l7.3,18.2ZM193.8,849V78.1H770V849Z"/></clipPath>
<style type="text/css"><![CDATA[
.g0_183{
fill: none;
stroke: #000000;
stroke-width: 0.618;
stroke-linecap: butt;
stroke-linejoin: miter;
}
.g1_183{
fill: none;
stroke: #000000;
stroke-width: 0.438;
stroke-linecap: butt;
stroke-linejoin: miter;
}
.g2_183{
fill: none;
stroke: #000000;
stroke-width: 0.875;
stroke-linecap: butt;
stroke-linejoin: miter;
}
.g3_183{
fill: none;
stroke: #000000;
stroke-width: 0.875;
stroke-linecap: butt;
stroke-linejoin: miter;
stroke-dasharray: 6;
}
.g4_183{
fill: none;
stroke: #000000;
stroke-width: 0.875;
stroke-linecap: butt;
stroke-linejoin: miter;
stroke-dasharray: 5;
}
]]></style>
</defs>
<path d="M74.2,69.2H713.5" class="g0_183"/>
<path d="M523.3,113.2c0,5.3,-4.3,9.6,-9.6,9.6c-5.4,0,-9.7,-4.3,-9.7,-9.6c0,-5.3,4.3,-9.7,9.7,-9.7c5.3,0,9.6,4.4,9.6,9.7Zm-35,35c0,5.3,-4.4,9.7,-9.7,9.7c-5.3,0,-9.6,-4.4,-9.6,-9.7c0,-5.3,4.3,-9.6,9.6,-9.6c5.3,0,9.7,4.3,9.7,9.6Zm70.1,0c0,5.3,-4.4,9.7,-9.7,9.7c-5.3,0,-9.6,-4.4,-9.6,-9.7c0,-5.3,4.3,-9.6,9.6,-9.6c5.3,0,9.7,4.3,9.7,9.6Zm-78.9,39.4c0,5.4,-4.3,9.7,-9.6,9.7c-5.4,0,-9.7,-4.3,-9.7,-9.7c0,-5.3,4.3,-9.6,9.7,-9.6c5.3,0,9.6,4.3,9.6,9.6Zm0,43.9c0,5.3,-4.3,9.6,-9.6,9.6c-5.4,0,-9.7,-4.3,-9.7,-9.6c0,-5.4,4.3,-9.7,9.7,-9.7c5.3,0,9.6,4.3,9.6,9.7Zm4.4,43.8c0,5.3,-4.3,9.6,-9.7,9.6c-5.3,0,-9.6,-4.3,-9.6,-9.6c0,-5.4,4.3,-9.7,9.6,-9.7c5.4,0,9.7,4.3,9.7,9.7Z" class="g1_183"/>
<path clip-path="url(#c0_183)" d="M504.9,117.6L483,139.5" class="g2_183"/>
<path d="M498.4,129.6l-13.3,7.7L492.9,124" class="g2_183"/>
<path clip-path="url(#c1_183)" d="M522.4,117.6l21.9,21.9" class="g2_183"/>
<path d="M534.5,124l7.7,13.3l-13.3,-7.7" class="g2_183"/>
<path clip-path="url(#c2_183)" d="M474.2,157l-4.3,21.9" class="g2_183"/>
<path d="M477.2,162.1l-6.8,13.8l-.9,-15.3" class="g2_183"/>
<path clip-path="url(#c3_183)" d="M469.9,196.4v26.3" class="g2_183"/>
<path d="M473.8,204.8l-3.9,14.9l-4,-14.9" class="g2_183"/>
<path clip-path="url(#c4_183)" d="M469.9,240.2l4.3,26.3" class="g2_183"/>
<path d="M475.2,248.2l-1.5,15.3l-6.3,-14" class="g2_183"/>
<path clip-path="url(#c5_183)" d="M465.5,270.9L434.8,235.8l-4.4,-17.5V200.8l4.4,-21.9L448,165.7l21.9,-13.1" class="g3_183"/>
<path d="M452.5,158.4l14.8,-4.3l-10.8,11.1" class="g2_183"/>
<path clip-path="url(#c6_183)" d="M483,270.9l13.1,-11c8.8,-7.3,15.4,-14.6,19.8,-21.9c4.3,-7.3,7.3,-16.8,8.7,-28.5c1.5,-11.6,1.5,-21.9,0,-30.6c-1.4,-8.8,-2.9,-16.8,-4.4,-24.1c-1.4,-7.3,-3.6,-14.6,-6.5,-21.9l-4.4,-11" class="g4_183"/>
<path d="M512.3,140l-2,-15.3l9.3,12.4" class="g2_183"/>
<path d="M299,139.4c0,2.5,-2,4.4,-4.4,4.4c-2.4,0,-4.4,-1.9,-4.4,-4.4c0,-2.4,2,-4.3,4.4,-4.3c2.4,0,4.4,1.9,4.4,4.3Zm-48.2,39.5c0,2.4,-1.9,4.3,-4.4,4.3c-2.4,0,-4.3,-1.9,-4.3,-4.3c0,-2.5,1.9,-4.4,4.3,-4.4c2.5,0,4.4,1.9,4.4,4.4ZM299,218.3c0,2.4,-2,4.4,-4.4,4.4c-2.4,0,-4.4,-2,-4.4,-4.4c0,-2.4,2,-4.4,4.4,-4.4c2.4,0,4.4,2,4.4,4.4Zm-48.2,26.3c0,2.4,-1.9,4.4,-4.4,4.4c-2.4,0,-4.3,-2,-4.3,-4.4c0,-2.4,1.9,-4.4,4.3,-4.4c2.5,0,4.4,2,4.4,4.4ZM360.3,200.8c0,2.4,-1.9,4.4,-4.3,4.4c-2.5,0,-4.4,-2,-4.4,-4.4c0,-2.4,1.9,-4.4,4.4,-4.4c2.4,0,4.3,2,4.3,4.4Zm0,-39.4c0,2.4,-1.9,4.3,-4.3,4.3c-2.5,0,-4.4,-1.9,-4.4,-4.3c0,-2.5,1.9,-4.4,4.4,-4.4c2.4,0,4.3,1.9,4.3,4.4Z" class="g1_183"/>
<path d="M246.4,183.3v56.9m4.4,-61.3l39.5,39.4m4.3,-74.5v70.1m4.4,4.4l52.6,-17.5M356,165.7v30.7M299,139.5l52.6,21.9M290.3,139.5l-39.5,35" class="g2_183"/>
<path d="M83.4,338.4h621" class="g0_183"/>
</svg>