<?xml version="1.0" encoding="UTF-8" standalone="no"?>
<!DOCTYPE svg PUBLIC "-//W3C//DTD SVG 1.1//EN"
"http://www.w3.org/Graphics/SVG/1.1/DTD/svg11.dtd">
<svg viewBox="0 0 811 1017" version="1.1" xmlns="http://www.w3.org/2000/svg" xmlns:xlink="http://www.w3.org/1999/xlink">
<defs>
<style type="text/css"><![CDATA[
.g0_99{
fill: #224867;
}
.g1_99{
fill: #000;
}
]]></style>
</defs>
<path d="M142.4,540.7H710.7V519.4H142.4v21.3Z" class="g0_99"/>
<path d="M557,595.7v3.2l-.3,-.2l-6.3,-2.9l-.4,-.1l.4,-.2l6.3,-3l.3,-.1v.3l-.2,.2l-6.3,2.9l-.1,-.3h.1l6.3,2.9l-.1,.3l-.1,-.1v-2.9Z" class="g1_99"/>
<path d="M556.6,595.7h.4v-3h-.4v3Z" class="g1_99"/>
<path d="M557,595.8h27.9v-.3H557v.3Z" class="g1_99"/>
<path d="M584.6,595.7h.3v-27h-.3v27Z" class="g1_99"/>
<path d="M431.7,733.7v3.1l-.3,-.1l-6.3,-2.9l-.4,-.1l.4,-.2l6.3,-3l.3,-.1v.3l-.2,.2l-6.3,2.9l-.1,-.3h.1l6.3,2.9l-.1,.3l-.1,-.2v-2.8Z" class="g1_99"/>
<path d="M431.3,733.7h.4v-3h-.4v3Z" class="g1_99"/>
<path d="M431.7,733.8h36.5v-.3H431.7v.3Z" class="g1_99"/>
<path d="M467.8,759.7h.4v-26h-.4v26Z" class="g1_99"/>
<path d="M476,855.8v3.3l-.3,-.2L469.5,856l-.4,-.2l.4,-.1l6.2,-3l.3,-.1v.3l-.1,.2l-6.3,2.9l-.1,-.3h.1l6.3,2.9l-.2,.3v-3.1Z" class="g1_99"/>
<path d="M475.7,855.8h.3v-2.9h-.3v2.9Z" class="g1_99"/>
<path d="M476.1,856h53.6v-.3H476.1v.3Z" class="g1_99"/>
<path d="M529.4,882h.3V855.8h-.3V882Z" class="g1_99"/>
<image preserveAspectRatio="none" x="203" y="990" width="405" height="28" xlink:href="img/1.jpg"/>
</svg>