<?xml version="1.0" encoding="UTF-8" standalone="no"?>
<!DOCTYPE svg PUBLIC "-//W3C//DTD SVG 1.1//EN"
"http://www.w3.org/Graphics/SVG/1.1/DTD/svg11.dtd">
<svg viewBox="0 0 931 1096" version="1.1" xmlns="http://www.w3.org/2000/svg" xmlns:xlink="http://www.w3.org/1999/xlink">
<defs>
<clipPath id="c0_273"><path d="M559,195.6V161.7H661.7v33.9Z"/></clipPath>
<clipPath id="c1_273"><path d="M455.6,782.3v-34H765.1v34Z"/></clipPath>
<clipPath id="c2_273"><path d="M545.2,867.9V833.8H675.5v34.1Z"/></clipPath>
<style type="text/css"><![CDATA[
.g0_273{
fill: #FFF;
}
.g1_273{
fill: none;
stroke: #00AEEF;
stroke-width: 1.145;
}
.g2_273{
fill: none;
stroke: #241F1F;
stroke-width: 0.763;
stroke-miterlimit: 10;
}
.g3_273{
fill: none;
stroke: #00AEEF;
stroke-width: 0.763;
}
.g4_273{
fill: none;
stroke: #241F1F;
stroke-width: 0.763;
stroke-linejoin: round;
}
.g5_273{
fill: none;
stroke: #EE008C;
stroke-width: 1.069;
stroke-linejoin: round;
}
.g6_273{
fill: #EE008C;
}
.g7_273{
fill: none;
stroke: #EE008C;
stroke-width: 0.763;
stroke-miterlimit: 3;
}
.g8_273{
fill: none;
stroke: #00AEEF;
stroke-width: 1.069;
stroke-linejoin: round;
}
.g9_273{
fill: #00AEEF;
}
.ga_273{
fill: none;
stroke: #00AEEF;
stroke-width: 0.763;
stroke-miterlimit: 3;
}
.gb_273{
fill: none;
stroke: #241F1F;
stroke-width: 0.534;
stroke-miterlimit: 3;
}
.gc_273{
fill: #241F1F;
}
]]></style>
</defs>
<path d="M345.7,97.9c0,0,-3.1,0,-3.1,3.1V210.2c0,0,0,3.1,3.1,3.1H875.1c0,0,3,0,3,-3.1V101c0,0,0,-3.1,-3,-3.1Z" class="g0_273"/>
<path d="M358.8,107.3c0,0,-1.5,0,-1.5,1.5V123c0,0,0,1.5,1.5,1.5H373c0,0,1.5,0,1.5,-1.5V108.8c0,0,0,-1.5,-1.5,-1.5H358.8Z" class="g1_273"/>
<path clip-path="url(#c0_273)" d="M587.2,179.7h74.9" class="g2_273"/>
<path d="M345.7,97.9c0,0,-3.1,0,-3.1,3.1V210.2c0,0,0,3.1,3.1,3.1H875.1c0,0,3,0,3,-3.1V101c0,0,0,-3.1,-3,-3.1H345.7Z" class="g3_273"/>
<path d="M485,375.2h76.4m21.9,0H688.4" class="g2_273"/>
<path d="M345.7,464.6c0,0,-3.1,0,-3.1,3.1v48.1c0,0,0,3,3.1,3H875.1c0,0,3,0,3,-3V467.7c0,0,0,-3.1,-3,-3.1Z" class="g0_273"/>
<path d="M358.8,474c0,0,-1.5,0,-1.5,1.5v14.1c0,0,0,1.6,1.5,1.6H373c0,0,1.5,0,1.5,-1.6V475.5c0,0,0,-1.5,-1.5,-1.5H358.8Z" class="g1_273"/>
<path d="M345.7,464.6c0,0,-3.1,0,-3.1,3.1v48.1c0,0,0,3,3.1,3H875.1c0,0,3,0,3,-3V467.7c0,0,0,-3.1,-3,-3.1H345.7Z" class="g3_273"/>
<path d="M483.8,766.3h74.9" class="g2_273"/>
<path clip-path="url(#c1_273)" d="M580.6,766.3H765.5" class="g2_273"/>
<path clip-path="url(#c2_273)" d="M573.4,851.9H675.9" class="g2_273"/>
<path d="M110.6,323.3H281.1" class="g4_273"/>
<path d="M177,260.2l48.8,63.1" class="g5_273"/>
<path d="M224.1,323.3c0,-.9,.7,-1.7,1.7,-1.7c.9,0,1.7,.8,1.7,1.7c0,1,-.8,1.7,-1.7,1.7c-1,0,-1.7,-.7,-1.7,-1.7Z" class="g6_273"/>
<path d="M224.1,323.3c0,-.9,.7,-1.7,1.7,-1.7c.9,0,1.7,.8,1.7,1.7c0,1,-.8,1.7,-1.7,1.7c-1,0,-1.7,-.7,-1.7,-1.7Z" class="g7_273"/>
<path d="M110.6,323.3c0,-35.8,38.2,-64.9,85.2,-64.9c47.1,0,85.3,29.1,85.3,64.9c0,35.9,-38.2,65,-85.3,65c-47,0,-85.2,-29.1,-85.2,-65Z" class="g8_273"/>
<path d="M108.9,323.3c0,-.9,.7,-1.7,1.7,-1.7c.9,0,1.7,.8,1.7,1.7c0,1,-.8,1.7,-1.7,1.7c-1,0,-1.7,-.7,-1.7,-1.7Z" class="g9_273"/>
<path d="M108.9,323.3c0,-.9,.7,-1.7,1.7,-1.7c.9,0,1.7,.8,1.7,1.7c0,1,-.8,1.7,-1.7,1.7c-1,0,-1.7,-.7,-1.7,-1.7Z" class="ga_273"/>
<path d="M279.4,323.3c0,-.9,.7,-1.7,1.7,-1.7c.9,0,1.7,.8,1.7,1.7c0,1,-.8,1.7,-1.7,1.7c-1,0,-1.7,-.7,-1.7,-1.7Z" class="g9_273"/>
<path d="M279.4,323.3c0,-.9,.7,-1.7,1.7,-1.7c.9,0,1.7,.8,1.7,1.7c0,1,-.8,1.7,-1.7,1.7c-1,0,-1.7,-.7,-1.7,-1.7Z" class="ga_273"/>
<path d="M175.3,260.2c0,-1,.8,-1.7,1.7,-1.7c1,0,1.8,.7,1.8,1.7c0,1,-.8,1.7,-1.8,1.7c-.9,0,-1.7,-.7,-1.7,-1.7Z" class="g9_273"/>
<path d="M175.3,260.2c0,-1,.8,-1.7,1.7,-1.7c1,0,1.8,.7,1.8,1.7c0,1,-.8,1.7,-1.8,1.7c-.9,0,-1.7,-.7,-1.7,-1.7Z" class="ga_273"/>
<path d="M126.3,339.9l-9.7,-10" class="gb_273"/>
<path d="M114,327.3l4.7,2.1l-2.1,.5l-.5,2.1Z" class="gc_273"/>
<path d="M264.9,338.9l10,-9.7" class="gb_273"/>
<path d="M277.5,326.6l-2.1,4.7l-.5,-2.1l-2.1,-.5Z" class="gc_273"/>
</svg>