<?xml version="1.0" encoding="UTF-8" standalone="no"?>
<!DOCTYPE svg PUBLIC "-//W3C//DTD SVG 1.1//EN"
"http://www.w3.org/Graphics/SVG/1.1/DTD/svg11.dtd">
<svg viewBox="0 0 907 1045" version="1.1" xmlns="http://www.w3.org/2000/svg" xmlns:xlink="http://www.w3.org/1999/xlink">
<defs>
<clipPath id="c0_323"><path d="M723.7,759.6L631.9,732.2L666.8,615.3l91.8,27.4L723.7,759.6Z"/></clipPath>
<clipPath id="c1_323"><path d="M171,723.5l-12.2,-86l69.1,-9.7l12.1,86l-69,9.7Z"/></clipPath>
<clipPath id="c2_323"><path d="M-2.6,1047.7V-2.6H910.2V1047.7Z"/></clipPath>
<style type="text/css"><![CDATA[
.g0_323{
}
.g1_323{
fill: none;
stroke: #000000;
stroke-width: 1.355;
stroke-linecap: butt;
stroke-linejoin: miter;
stroke-miterlimit: 4;
}
.g2_323{
fill: none;
stroke: #000000;
stroke-width: 1.24;
stroke-linecap: butt;
stroke-linejoin: miter;
stroke-miterlimit: 4;
}
.g3_323{
fill: none;
stroke: #000000;
stroke-width: 1.516;
stroke-linecap: butt;
stroke-linejoin: miter;
stroke-miterlimit: 4;
}
.g4_323{
fill: none;
stroke: #636363;
stroke-width: 1.527;
stroke-linecap: butt;
stroke-linejoin: miter;
stroke-miterlimit: 4;
}
.g5_323{
fill: none;
stroke: #000000;
stroke-width: 1.493;
stroke-linecap: butt;
stroke-linejoin: miter;
stroke-miterlimit: 4;
}
.g6_323{
fill: none;
stroke: #000000;
stroke-width: 1.453;
stroke-linecap: butt;
stroke-linejoin: miter;
stroke-miterlimit: 4;
}
.g7_323{
fill: none;
stroke: #0D0D0D;
stroke-width: 1.527;
stroke-linecap: butt;
stroke-linejoin: miter;
stroke-miterlimit: 4;
}
.g8_323{
fill: #0D0D0D;
}
.g9_323{
fill: none;
stroke: #FFFFFF;
stroke-width: 1.909;
stroke-linecap: butt;
stroke-linejoin: miter;
}
.ga_323{
fill: none;
stroke: #000000;
stroke-width: 0.381;
stroke-linecap: butt;
stroke-linejoin: miter;
}
]]></style>
</defs>
<path d="M158.9,335.4c4.3,-.4,7.5,-4.3,7,-8.7c-.4,-4.4,-4.3,-7.5,-8.7,-7.1c-4.4,.5,-7.5,4.4,-7.1,8.8c.5,4.3,4.4,7.5,8.8,7Z" class="g0_323"/>
<path d="M158.9,335.4c4.3,-.4,7.5,-4.3,7,-8.7c-.4,-4.4,-4.3,-7.5,-8.7,-7.1c-4.4,.5,-7.5,4.4,-7.1,8.8c.5,4.3,4.4,7.5,8.8,7Z" class="g1_323"/>
<path d="M162.3,368.3c4.4,-.5,7.6,-4.4,7.1,-8.8c-.4,-4.3,-4.4,-7.5,-8.7,-7c-4.4,.4,-7.6,4.4,-7.1,8.7c.5,4.4,4.4,7.5,8.7,7.1Z" class="g0_323"/>
<path d="M162.4,368.3c4.3,-.5,7.5,-4.4,7,-8.8c-.4,-4.3,-4.4,-7.5,-8.7,-7c-4.4,.4,-7.6,4.4,-7.1,8.7c.5,4.4,4.4,7.5,8.8,7.1Z" class="g1_323"/>
<path d="M165.8,401.1c4.4,-.4,7.6,-4.4,7.1,-8.7c-.5,-4.4,-4.4,-7.5,-8.7,-7.1c-4.4,.5,-7.6,4.4,-7.1,8.8c.4,4.3,4.4,7.5,8.7,7Z" class="g0_323"/>
<path d="M165.8,401.1c4.4,-.4,7.6,-4.3,7.1,-8.7c-.5,-4.4,-4.4,-7.5,-8.7,-7.1c-4.4,.5,-7.6,4.4,-7.1,8.8c.5,4.3,4.4,7.5,8.7,7Z" class="g1_323"/>
<path d="M169.3,434c4.4,-.5,7.5,-4.4,7.1,-8.8c-.5,-4.3,-4.4,-7.5,-8.8,-7c-4.3,.4,-7.5,4.4,-7,8.7c.4,4.4,4.3,7.5,8.7,7.1Z" class="g0_323"/>
<path d="M169.3,434c4.4,-.5,7.5,-4.4,7.1,-8.8c-.5,-4.3,-4.4,-7.5,-8.8,-7c-4.3,.4,-7.5,4.3,-7,8.7c.4,4.4,4.3,7.5,8.7,7.1Z" class="g1_323"/>
<path d="M602,318.7c4,.7,7.8,-1.9,8.5,-5.9c.7,-4,-2,-7.8,-6,-8.5c-4,-.7,-7.8,1.9,-8.5,5.9c-.7,4,2,7.8,6,8.5Z" class="g0_323"/>
<path d="M602,318.7c4,.7,7.8,-1.9,8.5,-5.9c.7,-4,-2,-7.8,-6,-8.5c-4,-.7,-7.8,1.9,-8.5,5.9c-.7,4,2,7.8,6,8.5Z" class="g2_323"/>
<path d="M596.8,348.8c4,.7,7.8,-2,8.5,-6c.7,-4,-2,-7.8,-6,-8.5c-4,-.7,-7.8,2,-8.5,6c-.7,4,2,7.8,6,8.5Z" class="g0_323"/>
<path d="M596.8,348.8c4,.7,7.8,-2,8.5,-6c.7,-4,-2,-7.8,-6,-8.5c-4,-.7,-7.8,2,-8.5,6c-.7,4,2,7.8,6,8.5Z" class="g2_323"/>
<path d="M591.5,378.9c4,.7,7.8,-2,8.5,-6c.7,-4,-2,-7.8,-6,-8.5c-4,-.7,-7.8,2,-8.5,6c-.7,4,2,7.8,6,8.5Z" class="g0_323"/>
<path d="M591.5,378.9c4,.7,7.8,-2,8.5,-6c.7,-4,-2,-7.8,-6,-8.5c-4,-.7,-7.8,2,-8.5,6c-.6,4,2,7.8,6,8.5Z" class="g2_323"/>
<path d="M586.3,409c4,.7,7.8,-2,8.5,-6c.7,-4,-2,-7.8,-6,-8.5c-4,-.7,-7.8,2,-8.5,6c-.7,4,2,7.8,6,8.5Z" class="g0_323"/>
<path d="M586.3,409c4,.7,7.8,-2,8.5,-6c.7,-4,-2,-7.8,-6,-8.5c-4,-.7,-7.8,2,-8.5,6c-.7,4,2,7.8,6,8.5Z" class="g2_323"/>
<image clip-path="url(#c0_323)" preserveAspectRatio="none" x="632" y="615" width="127" height="145" xlink:href="img/1.png"/>
<image clip-path="url(#c1_323)" preserveAspectRatio="none" x="159" y="628" width="81" height="96" xlink:href="img/2.png"/>
<path d="M121.4,759.7c4.9,.3,9.1,-3.5,9.3,-8.3c.3,-4.9,-3.4,-9.1,-8.3,-9.4c-4.9,-.3,-9.1,3.5,-9.3,8.4c-.3,4.8,3.4,9,8.3,9.3Z" class="g0_323"/>
<path d="M121.4,759.7c4.9,.3,9.1,-3.4,9.3,-8.3c.3,-4.9,-3.4,-9.1,-8.3,-9.4c-4.9,-.3,-9.1,3.5,-9.3,8.4c-.3,4.8,3.4,9,8.3,9.3Z" class="g3_323"/>
<path d="M119.3,796.5c4.9,.2,9.1,-3.5,9.4,-8.4c.2,-4.9,-3.5,-9.1,-8.4,-9.3c-4.9,-.3,-9,3.4,-9.3,8.3c-.3,4.9,3.4,9.1,8.3,9.4Z" class="g0_323"/>
<path d="M119.3,796.5c4.9,.2,9.1,-3.5,9.4,-8.4c.3,-4.9,-3.5,-9.1,-8.4,-9.3c-4.8,-.3,-9,3.4,-9.3,8.3c-.3,4.9,3.5,9.1,8.3,9.4Z" class="g3_323"/>
<path d="M143.2,657.3c-1.5,.7,-2,1.5,-2,3.2c0,.6,-.2,1.4,.1,2c.4,.9,1.5,1.3,2.4,1.7c2.3,1.2,5.6,2.3,8.2,1.8c.1,-1.1,-.2,-1.6,-.8,-2.4c1.2,1.1,3.1,1.8,4.6,2.2c-.5,.2,-1.1,.3,-1.6,.6c-.7,.4,-1.2,1.1,-2,1.4m611.2,-7.1c.6,1.6,1,3.2,1.4,4.8c.6,1.9,-.3,3.5,-2.2,4.3c-3.2,1.3,-7.8,0,-11.1,-.2c-.4,0,-5.2,-.6,-5.7,.1c2,-.1,4.5,-1.3,5.5,-3c-.7,.3,-1.4,.6,-2,.9c-.7,.4,-3.7,2.2,-3.5,3.2c.2,.8,1.6,.7,2.2,.7c2,.3,4.2,.5,5.9,1.7" class="g4_323"/>
<path d="M630.6,793.9c4.8,-.5,8.3,-4.8,7.8,-9.6c-.5,-4.9,-4.8,-8.4,-9.6,-7.8c-4.8,.5,-8.3,4.8,-7.8,9.6c.5,4.8,4.8,8.3,9.6,7.8Z" class="g0_323"/>
<path d="M630.6,793.9c4.8,-.5,8.3,-4.8,7.8,-9.6c-.5,-4.9,-4.8,-8.4,-9.6,-7.9c-4.8,.6,-8.3,4.9,-7.8,9.7c.5,4.8,4.8,8.3,9.6,7.8Z" class="g5_323"/>
<path d="M634.4,830.1c4.8,-.5,8.3,-4.8,7.8,-9.7c-.5,-4.8,-4.8,-8.3,-9.6,-7.8c-4.8,.5,-8.3,4.9,-7.8,9.7c.5,4.8,4.8,8.3,9.6,7.8Z" class="g0_323"/>
<path d="M634.4,830.1c4.8,-.5,8.3,-4.8,7.8,-9.7c-.5,-4.8,-4.8,-8.3,-9.6,-7.8c-4.8,.5,-8.3,4.9,-7.8,9.7c.5,4.8,4.8,8.3,9.6,7.8Z" class="g5_323"/>
<path d="M366.8,515.9c4.7,0,8.5,-3.8,8.5,-8.5c0,-4.7,-3.8,-8.5,-8.5,-8.5c-4.7,0,-8.5,3.8,-8.5,8.5c0,4.7,3.8,8.5,8.5,8.5Z" class="g0_323"/>
<path d="M366.8,515.9c4.7,0,8.5,-3.8,8.5,-8.5c0,-4.7,-3.8,-8.5,-8.5,-8.5c-4.7,0,-8.5,3.8,-8.5,8.5c0,4.7,3.8,8.5,8.5,8.5Z" class="g6_323"/>
<path d="M366.8,551.1c4.7,0,8.5,-3.8,8.5,-8.5c0,-4.6,-3.8,-8.4,-8.5,-8.4c-4.7,0,-8.5,3.8,-8.5,8.4c0,4.7,3.8,8.5,8.5,8.5Z" class="g0_323"/>
<path d="M366.8,551.1c4.7,0,8.5,-3.8,8.5,-8.4c0,-4.7,-3.8,-8.5,-8.5,-8.5c-4.7,0,-8.5,3.8,-8.5,8.4c0,4.7,3.8,8.5,8.5,8.5Z" class="g6_323"/>
<path d="M366.8,586.4c4.7,0,8.5,-3.8,8.5,-8.5c0,-4.7,-3.8,-8.5,-8.5,-8.5c-4.7,0,-8.5,3.8,-8.5,8.5c0,4.7,3.8,8.5,8.5,8.5Z" class="g0_323"/>
<path d="M366.8,586.4c4.7,0,8.5,-3.8,8.5,-8.5c0,-4.7,-3.8,-8.5,-8.5,-8.5c-4.7,0,-8.5,3.8,-8.5,8.5c0,4.7,3.8,8.5,8.5,8.5Z" class="g6_323"/>
<path d="M366.8,621.6c4.7,0,8.5,-3.8,8.5,-8.5c0,-4.7,-3.8,-8.5,-8.5,-8.5c-4.7,0,-8.5,3.8,-8.5,8.5c0,4.7,3.8,8.5,8.5,8.5Z" class="g0_323"/>
<path d="M366.8,621.6c4.7,0,8.5,-3.8,8.5,-8.5c0,-4.7,-3.8,-8.5,-8.5,-8.5c-4.7,0,-8.5,3.8,-8.5,8.5c0,4.7,3.8,8.5,8.5,8.5Z" class="g6_323"/>
<path d="M374.2,254.1c-6.6,-.1,-13.3,1.5,-19.6,3c-3.7,.8,-7.1,1.9,-10.7,3.2c-1.3,.5,-1.7,1.1,-3.2,.6c.8,-1.4,2.9,-1.5,3.6,-3.6c-2,.4,-4.1,2.8,-4.5,4.9c2.9,.1,5.9,.9,8.7,.7M537.9,251c5.8,1.6,11.7,2.1,17.5,3.6c3.7,.9,10.1,3,13.8,1.9c.1,-2.1,-2.6,-4.1,-3.9,-5.4c.6,1,1.4,1.9,2.3,2.7c.3,.3,3.9,2.3,4,2.9c.3,2.8,-6.5,4.5,-6.8,7.4M464.4,369.7c0,3.1,.1,6,-.6,9c-.8,3.7,-.9,7.1,-1.3,10.8c-1.8,-1.7,-2.5,-4.3,-4.4,-5.8c-.2,3.3,3.6,5.3,3.8,8.3c3.2,-2.2,4.1,-6.1,6.9,-8.5" class="g4_323"/>
<path d="M170.5,454.4c0,0,-29.6,81.6,113.7,65.1" class="g7_323"/>
<path d="M292.5,518.5l-11.1,-2.6l2.8,3.6l-1.9,4.1l10.2,-5.1Z" class="g8_323"/>
<path d="M289.8,557.4c0,0,-108,-11.2,-120.4,58.5" class="g7_323"/>
<path d="M167.9,624.1l5.7,-9.8l-4.2,1.6l-3.5,-3l2,11.2Z" class="g8_323"/>
<path d="M681.5,460.2c0,0,16.3,84.3,-100.7,66.3" class="g7_323"/>
<path d="M572.6,525.3l10,5.4l-1.8,-4.2l2.9,-3.5l-11.1,2.3Z" class="g8_323"/>
<path d="M571.6,562.3c0,0,108.1,-11.2,120.4,58.6" class="g7_323"/>
<path d="M693.5,629.1l-5.7,-9.9l4.2,1.7l3.5,-3l-2,11.2Z" class="g8_323"/>
<path d="M548.8,844.2c1.9,1.1,3.4,-1.1,4.7,-2.1c2.4,-2,4.3,-4.2,6.5,-6.3c2.5,-2.3,4.9,-5.5,6.3,-8.6c.6,-1.7,1.3,-3.4,2.1,-5c1.1,-2.3,2.5,-4.3,3.4,-6.6c1.3,-2.8,1.8,-5.9,3.3,-8.5c1.4,-2.5,2.7,-5.1,4.2,-7.4c1.2,-1.9,2.7,-3.2,4.5,-4.6c1.1,-.9,2.1,-.7,3.4,-1.3c0,-.6,-1.3,-.7,-1.9,-.8c-1.8,-.2,-3.1,.1,-4.7,.9c0,0,2.9,-1.3,2.6,-1.2c1.6,-.4,3.1,-.8,4.7,-1.2c.6,-.4,1.4,-.6,2.1,-.6c.6,1.3,-1.3,3.1,-1.8,4c-.7,1.2,-2,3.1,-1.6,4.6M392.4,876c.5,-10.1,-6.6,-16.5,-13.7,-22.5c-1.6,-1.4,-2.8,-3,-4.3,-4.5c-2,-1.9,-4.6,-3.1,-6.9,-4.5c-2.4,-1.4,-4.9,-2.6,-7.3,-3.9c-2.3,-1.2,-4.2,-2.7,-6.3,-4.1c-1.9,-1.2,-3.9,-1.9,-5.8,-3c-2,-1.3,-3.8,-2.3,-5.9,-3.4c-3.5,-1.6,-6.9,-3.4,-10.3,-5.2C330.1,824.1,328,823,326,823c-.9,0,-2.7,.7,-3.5,-.1c.5,-1,1.5,-1.8,2.3,-2.5c.5,-.5,3.6,-2.5,3.6,-3.1c-1.1,0,-2.9,2.2,-3.5,2.9c-.4,.4,-2.9,2.6,-2.6,3.2c.4,.3,.9,.5,1.4,.6c1.3,.8,1.4,1.3,2,2.6c.8,1.6,1.1,2.7,1.1,4.5M457,755.1c0,-1.9,0,-3.7,0,-5.6c0,-4.8,1.3,-9.6,1,-14.4c-.2,-3.8,-1.7,-7.3,-1.7,-11.1c.1,-2.2,0,-4.4,.1,-6.6c-1.9,2.6,-5.2,4.1,-7,6.7c1.1,-.8,2.1,-1.7,3.1,-2.6c.9,-.8,1.8,-1.6,2.7,-2.4c.4,-.3,.7,-.6,.9,-1.1c.9,-.4,2.1,.6,2.9,1c2.5,1.3,5.5,2,8.3,2.3" class="g4_323"/>
<g clip-path="url(#c2_323)">
<path d="M-4.5,13.7H-27.4m939.5,0H935M-4.5,1031.2H-27.4m939.5,0H935M13.7,-4.5V-27.4m0,1077v22.9m880,-1077V-27.4m0,1077v22.9" class="g9_323"/>
<path d="M-4.5,13.7H-27.4m939.5,0H935M-4.5,1031.2H-27.4m939.5,0H935M13.7,-4.5V-27.4m0,1077v22.9m880,-1077V-27.4m0,1077v22.9" class="ga_323"/>
</g>
</svg>