<?xml version="1.0" encoding="UTF-8" standalone="no"?>
<!DOCTYPE svg PUBLIC "-//W3C//DTD SVG 1.1//EN"
"http://www.w3.org/Graphics/SVG/1.1/DTD/svg11.dtd">
<svg viewBox="0 0 907 1045" version="1.1" xmlns="http://www.w3.org/2000/svg" xmlns:xlink="http://www.w3.org/1999/xlink">
<defs>
<clipPath id="c0_114"><path d="M116.9,206.2V117.9H218v88.3Z"/></clipPath>
<clipPath id="c1_114"><path d="M140.7,619.1V233.9H752.9V619.1Z"/></clipPath>
<clipPath id="c2_114"><path d="M-2.6,1047.7V-2.6H910.2V1047.7Z"/></clipPath>
<style type="text/css"><![CDATA[
.g0_114{
fill: #A6A6A6;
}
.g1_114{
fill: #FFFFFF;
}
.g2_114{
fill: none;
stroke: #A6A6A6;
stroke-width: 1.119;
stroke-linecap: butt;
stroke-linejoin: miter;
}
.g3_114{
fill: none;
stroke: #000000;
stroke-width: 1.527;
stroke-linecap: butt;
stroke-linejoin: miter;
stroke-miterlimit: 4;
}
.g4_114{
fill: none;
stroke: #FFFFFF;
stroke-width: 1.909;
stroke-linecap: butt;
stroke-linejoin: miter;
}
.g5_114{
fill: none;
stroke: #000000;
stroke-width: 0.381;
stroke-linecap: butt;
stroke-linejoin: miter;
}
]]></style>
</defs>
<image clip-path="url(#c0_114)" preserveAspectRatio="none" x="93" y="89" width="155" height="154" xlink:href="img/1.jpg"/>
<g clip-path="url(#c1_114)">
<path d="M170.9,233.9h23.5v23.5H170.9Z" class="g0_114"/>
<path d="M193.3,233.9h23.5v23.5H193.3Z" class="g0_114"/>
<path d="M215.7,233.9h23.5v23.5H215.7Z" class="g0_114"/>
<path d="M238,233.9h23.5v23.5H238Z" class="g0_114"/>
<path d="M260.4,233.9h22.4v22.4H260.4Z" class="g1_114"/>
</g>
<path d="M261,234.4h22.4v22.4H261Z" class="g2_114"/>
<path clip-path="url(#c1_114)" d="M282.8,233.9h22.4v22.4H282.8Z" class="g1_114"/>
<path d="M283.4,234.4h22.4v22.4H283.4Z" class="g2_114"/>
<path clip-path="url(#c1_114)" d="M305.2,233.9h22.4v22.4H305.2Z" class="g1_114"/>
<path d="M305.8,234.4h22.3v22.4H305.8Z" class="g2_114"/>
<path clip-path="url(#c1_114)" d="M327.6,233.9H350v22.4H327.6Z" class="g1_114"/>
<path d="M328.1,234.4h22.4v22.4H328.1Z" class="g2_114"/>
<path clip-path="url(#c1_114)" d="M350,233.9h22.3v22.4H350Z" class="g1_114"/>
<path d="M350.5,234.4h22.4v22.4H350.5Z" class="g2_114"/>
<path d="M372.3,233.9h23.5v23.5H372.3Z" class="g0_114"/>
<path d="M394.7,233.9h23.5v23.5H394.7Z" class="g0_114"/>
<path d="M417.1,233.9h23.5v23.5H417.1Z" class="g0_114"/>
<path d="M439.5,233.9H463v23.5H439.5Z" class="g0_114"/>
<path d="M461.9,233.9h23.5v23.5H461.9Z" class="g0_114"/>
<path d="M484.3,233.9h23.5v23.5H484.3Z" class="g0_114"/>
<path d="M506.6,233.9H529v22.4H506.6Z" class="g1_114"/>
<path d="M507.2,234.4h22.4v22.4H507.2Z" class="g2_114"/>
<path d="M529,233.9h22.4v22.4H529Z" class="g1_114"/>
<path d="M529.6,234.4H552v22.4H529.6Z" class="g2_114"/>
<path d="M551.4,233.9h22.4v22.4H551.4Z" class="g1_114"/>
<path d="M552,234.4h22.4v22.4H552Z" class="g2_114"/>
<path d="M573.8,233.9h22.4v22.4H573.8Z" class="g1_114"/>
<path d="M574.4,234.4h22.3v22.4H574.4Z" class="g2_114"/>
<path d="M596.2,233.9h22.4v22.4H596.2Z" class="g1_114"/>
<path d="M596.7,234.4h22.4v22.4H596.7Z" class="g2_114"/>
<path d="M618.6,233.9H641v22.4H618.6Z" class="g1_114"/>
<path d="M619.1,234.4h22.4v22.4H619.1Z" class="g2_114"/>
<path d="M641,233.9h22.3v22.4H641Z" class="g1_114"/>
<path d="M641.5,234.4h22.4v22.4H641.5Z" class="g2_114"/>
<path d="M663.3,233.9h22.4v22.4H663.3Z" class="g1_114"/>
<path d="M663.9,234.4h22.4v22.4H663.9Z" class="g2_114"/>
<path d="M685.7,233.9h22.4v22.4H685.7Z" class="g1_114"/>
<path d="M686.3,234.4h22.4v22.4H686.3Z" class="g2_114"/>
<path d="M708.1,233.9h23.5v23.5H708.1Z" class="g0_114"/>
<path d="M170.9,256.3h23.5v23.5H170.9Z" class="g0_114"/>
<path d="M193.3,256.3h23.5v23.5H193.3Z" class="g0_114"/>
<path d="M215.7,256.3h23.5v23.5H215.7Z" class="g0_114"/>
<path d="M238,256.3h23.5v23.5H238Z" class="g0_114"/>
<path d="M260.4,256.3h23.5v23.5H260.4Z" class="g0_114"/>
<path d="M282.8,256.3h23.5v23.5H282.8Z" class="g0_114"/>
<path d="M305.2,256.3h23.5v23.5H305.2Z" class="g0_114"/>
<path d="M327.6,256.3h23.5v23.5H327.6Z" class="g0_114"/>
<path d="M350,256.3h22.3v22.3H350Z" class="g1_114"/>
<path d="M350.5,256.8h22.4v22.4H350.5Z" class="g2_114"/>
<path d="M372.4,256.2h22.3v22.4H372.4Z" class="g1_114"/>
<path d="M372.9,256.8h22.4v22.4H372.9Z" class="g2_114"/>
<path d="M394.7,256.2h22.4v22.4H394.7Z" class="g1_114"/>
<path d="M395.3,256.8h22.4v22.4H395.3Z" class="g2_114"/>
<path d="M417.1,256.2h22.4v22.4H417.1Z" class="g1_114"/>
<path d="M417.7,256.8h22.4v22.4H417.7Z" class="g2_114"/>
<path d="M439.5,256.2h22.4v22.4H439.5Z" class="g1_114"/>
<path d="M440.1,256.8h22.4v22.4H440.1Z" class="g2_114"/>
<path d="M461.9,256.2h22.4v22.4H461.9Z" class="g1_114"/>
<path d="M462.5,256.8h22.3v22.4H462.5Z" class="g2_114"/>
<path d="M484.3,256.2h23.5v23.5H484.3Z" class="g0_114"/>
<path d="M506.7,256.2h22.4v22.4H506.7Z" class="g1_114"/>
<path d="M507.2,256.8h22.4v22.4H507.2Z" class="g2_114"/>
<path d="M529.1,256.2h23.5v23.5H529.1Z" class="g0_114"/>
<path d="M551.4,256.2h23.5v23.5H551.4Z" class="g0_114"/>
<path d="M573.8,256.2h23.5v23.5H573.8Z" class="g0_114"/>
<path d="M596.2,256.2h23.5v23.5H596.2Z" class="g0_114"/>
<path d="M618.6,256.2h23.5v23.5H618.6Z" class="g0_114"/>
<path d="M641,256.2h23.5v23.5H641Z" class="g0_114"/>
<path d="M663.4,256.2h23.5v23.5H663.4Z" class="g0_114"/>
<path d="M685.7,256.2h23.5v23.5H685.7Z" class="g0_114"/>
<path d="M708.1,256.2h23.5v23.5H708.1Z" class="g0_114"/>
<path d="M170.9,278.6h23.5v23.5H170.9Z" class="g0_114"/>
<path d="M193.3,278.6h23.5v23.5H193.3Z" class="g0_114"/>
<path d="M215.7,278.6h23.5v23.5H215.7Z" class="g0_114"/>
<path d="M238.1,278.6h23.5v23.5H238.1Z" class="g0_114"/>
<path d="M260.4,278.6h23.5v23.5H260.4Z" class="g0_114"/>
<path d="M282.8,278.6h23.5v23.5H282.8Z" class="g0_114"/>
<path d="M305.2,278.6h22.4V301H305.2Z" class="g1_114"/>
<path d="M305.8,279.2h22.3v22.4H305.8Z" class="g2_114"/>
<path d="M327.6,278.6H350V301H327.6Z" class="g1_114"/>
<path d="M328.2,279.2h22.3v22.4H328.2Z" class="g2_114"/>
<path d="M350,278.6h22.4V301H350Z" class="g1_114"/>
<path d="M350.5,279.2h22.4v22.4H350.5Z" class="g2_114"/>
<path d="M372.4,278.6h23.5v23.5H372.4Z" class="g0_114"/>
<path d="M394.7,278.6h23.5v23.5H394.7Z" class="g0_114"/>
<path d="M417.1,278.6h23.5v23.5H417.1Z" class="g0_114"/>
<path d="M439.5,278.6H463v23.5H439.5Z" class="g0_114"/>
<path d="M461.9,278.6h23.5v23.5H461.9Z" class="g0_114"/>
<path d="M484.3,278.6h23.5v23.5H484.3Z" class="g0_114"/>
<path d="M506.7,278.6h22.4V301H506.7Z" class="g1_114"/>
<path d="M507.2,279.2h22.4v22.4H507.2Z" class="g2_114"/>
<path d="M529.1,278.6h22.3V301H529.1Z" class="g1_114"/>
<path d="M529.6,279.2H552v22.4H529.6Z" class="g2_114"/>
<path d="M551.4,278.6h22.4V301H551.4Z" class="g1_114"/>
<path d="M552,279.2h22.4v22.4H552Z" class="g2_114"/>
<path d="M573.8,278.6h22.4V301H573.8Z" class="g1_114"/>
<path d="M574.4,279.2h22.4v22.4H574.4Z" class="g2_114"/>
<path d="M596.2,278.6h22.4V301H596.2Z" class="g1_114"/>
<path d="M596.8,279.2h22.4v22.4H596.8Z" class="g2_114"/>
<path d="M618.6,278.6H641V301H618.6Z" class="g1_114"/>
<path d="M619.2,279.2h22.3v22.4H619.2Z" class="g2_114"/>
<path d="M641,278.6h22.4V301H641Z" class="g1_114"/>
<path d="M641.5,279.2h22.4v22.4H641.5Z" class="g2_114"/>
<path d="M663.4,278.6h22.3V301H663.4Z" class="g1_114"/>
<path d="M663.9,279.2h22.4v22.4H663.9Z" class="g2_114"/>
<path d="M685.7,278.6h23.6v23.5H685.7Z" class="g0_114"/>
<path d="M708.1,278.6h23.5v23.5H708.1Z" class="g0_114"/>
<path d="M170.9,301h23.5v23.5H170.9Z" class="g0_114"/>
<path d="M193.3,301h23.5v23.5H193.3Z" class="g0_114"/>
<path d="M215.7,301h23.5v23.5H215.7Z" class="g0_114"/>
<path d="M238.1,301h23.5v23.5H238.1Z" class="g0_114"/>
<path d="M260.4,301h22.4v22.4H260.4Z" class="g1_114"/>
<path d="M261,301.6h22.4v22.3H261Z" class="g2_114"/>
<path d="M282.8,301h23.5v23.5H282.8Z" class="g0_114"/>
<path d="M305.2,301h23.5v23.5H305.2Z" class="g0_114"/>
<path d="M327.6,301h23.5v23.5H327.6Z" class="g0_114"/>
<path d="M350,301h22.4v22.4H350Z" class="g1_114"/>
<path d="M350.5,301.5h22.4v22.4H350.5Z" class="g2_114"/>
<path d="M372.4,301h23.5v23.5H372.4Z" class="g0_114"/>
<path d="M394.7,301h23.6v23.5H394.7Z" class="g0_114"/>
<path d="M417.1,301h23.5v23.5H417.1Z" class="g0_114"/>
<path d="M439.5,301H463v23.5H439.5Z" class="g0_114"/>
<path d="M461.9,301h23.5v23.5H461.9Z" class="g0_114"/>
<path d="M484.3,301h23.5v23.5H484.3Z" class="g0_114"/>
<path d="M506.7,301h22.4v22.4H506.7Z" class="g1_114"/>
<path d="M507.2,301.5h22.4v22.4H507.2Z" class="g2_114"/>
<path d="M529.1,301h23.5v23.5H529.1Z" class="g0_114"/>
<path d="M551.4,301h23.5v23.5H551.4Z" class="g0_114"/>
<path d="M573.8,301h23.5v23.5H573.8Z" class="g0_114"/>
<path d="M596.2,301h23.5v23.5H596.2Z" class="g0_114"/>
<path d="M618.6,301h23.5v23.5H618.6Z" class="g0_114"/>
<path d="M641,301h23.5v23.5H641Z" class="g0_114"/>
<path d="M663.4,301h23.5v23.5H663.4Z" class="g0_114"/>
<path d="M685.7,301h23.6v23.5H685.7Z" class="g0_114"/>
<path d="M708.1,301h23.5v23.5H708.1Z" class="g0_114"/>
<path d="M170.9,323.4h23.5v23.5H170.9Z" class="g0_114"/>
<path d="M193.3,323.4h23.5v23.5H193.3Z" class="g0_114"/>
<path d="M215.7,323.4h23.5v23.5H215.7Z" class="g0_114"/>
<path d="M238.1,323.4h22.3v22.4H238.1Z" class="g1_114"/>
<path d="M238.6,323.9H261v22.4H238.6Z" class="g2_114"/>
<path d="M260.4,323.4h22.4v22.4H260.4Z" class="g1_114"/>
<path d="M261,323.9h22.4v22.4H261Z" class="g2_114"/>
<path d="M282.8,323.4h22.4v22.4H282.8Z" class="g1_114"/>
<path d="M283.4,323.9h22.4v22.4H283.4Z" class="g2_114"/>
<path d="M305.2,323.4h22.4v22.4H305.2Z" class="g1_114"/>
<path d="M305.8,323.9h22.4v22.4H305.8Z" class="g2_114"/>
<path d="M327.6,323.4H350v22.4H327.6Z" class="g1_114"/>
<path d="M328.2,323.9h22.3v22.4H328.2Z" class="g2_114"/>
<path d="M350,323.4h22.4v22.4H350Z" class="g1_114"/>
<path d="M350.5,323.9h22.4v22.4H350.5Z" class="g2_114"/>
<path d="M372.4,323.4h22.3v22.4H372.4Z" class="g1_114"/>
<path d="M372.9,323.9h22.4v22.4H372.9Z" class="g2_114"/>
<path d="M394.7,323.4h22.4v22.4H394.7Z" class="g1_114"/>
<path d="M395.3,323.9h22.4v22.4H395.3Z" class="g2_114"/>
<path d="M417.1,323.4h22.4v22.4H417.1Z" class="g1_114"/>
<path d="M417.7,323.9h22.4v22.4H417.7Z" class="g2_114"/>
<path d="M439.5,323.4h22.4v22.4H439.5Z" class="g1_114"/>
<path d="M440.1,323.9h22.4v22.4H440.1Z" class="g2_114"/>
<path d="M461.9,323.4h22.4v22.4H461.9Z" class="g1_114"/>
<path d="M462.5,323.9h22.3v22.4H462.5Z" class="g2_114"/>
<path d="M484.3,323.4h22.4v22.4H484.3Z" class="g1_114"/>
<path d="M484.8,323.9h22.4v22.4H484.8Z" class="g2_114"/>
<path d="M506.7,323.4h22.4v22.4H506.7Z" class="g1_114"/>
<path d="M507.2,323.9h22.4v22.4H507.2Z" class="g2_114"/>
<path d="M529.1,323.4h22.3v22.4H529.1Z" class="g1_114"/>
<path d="M529.6,323.9H552v22.4H529.6Z" class="g2_114"/>
<path d="M551.4,323.4h23.5v23.5H551.4Z" class="g0_114"/>
<path d="M573.8,323.4h23.5v23.5H573.8Z" class="g0_114"/>
<path d="M596.2,323.4h22.4v22.4H596.2Z" class="g1_114"/>
<path d="M596.8,323.9h22.4v22.4H596.8Z" class="g2_114"/>
<path d="M618.6,323.4h23.5v23.5H618.6Z" class="g0_114"/>
<path d="M641,323.4h23.5v23.5H641Z" class="g0_114"/>
<path d="M663.4,323.4h23.5v23.5H663.4Z" class="g0_114"/>
<path d="M685.8,323.4h23.5v23.5H685.8Z" class="g0_114"/>
<path d="M708.1,323.4h23.6v23.5H708.1Z" class="g0_114"/>
<path d="M170.9,345.7h23.5v23.5H170.9Z" class="g0_114"/>
<path d="M193.3,345.7h22.4v22.4H193.3Z" class="g1_114"/>
<path d="M193.8,346.3h22.4v22.4H193.8Z" class="g2_114"/>
<path d="M215.7,345.7h23.5v23.5H215.7Z" class="g0_114"/>
<path d="M238.1,345.7h23.5v23.5H238.1Z" class="g0_114"/>
<path d="M260.4,345.7h22.4v22.4H260.4Z" class="g1_114"/>
<path d="M261,346.3h22.4v22.4H261Z" class="g2_114"/>
<path d="M282.8,345.7h23.5v23.5H282.8Z" class="g0_114"/>
<path d="M305.2,345.7h22.4v22.4H305.2Z" class="g1_114"/>
<path d="M305.8,346.3h22.4v22.4H305.8Z" class="g2_114"/>
<path d="M327.6,345.7h23.5v23.5H327.6Z" class="g0_114"/>
<path d="M350,345.7h22.4v22.4H350Z" class="g1_114"/>
<path d="M350.5,346.3h22.4v22.4H350.5Z" class="g2_114"/>
<path d="M372.4,345.7h23.5v23.5H372.4Z" class="g0_114"/>
<path d="M394.8,345.7h23.5v23.5H394.8Z" class="g0_114"/>
<path d="M417.1,345.7h23.5v23.5H417.1Z" class="g0_114"/>
<path d="M439.5,345.7H463v23.5H439.5Z" class="g0_114"/>
<path d="M461.9,345.7h23.5v23.5H461.9Z" class="g0_114"/>
<path d="M484.3,345.7h23.5v23.5H484.3Z" class="g0_114"/>
<path d="M506.7,345.7h23.5v23.5H506.7Z" class="g0_114"/>
<path d="M529.1,345.7h23.5v23.5H529.1Z" class="g0_114"/>
<path d="M551.5,345.7H575v23.5H551.5Z" class="g0_114"/>
<path d="M573.8,345.7h23.5v23.5H573.8Z" class="g0_114"/>
<path d="M596.2,345.7h22.4v22.4H596.2Z" class="g1_114"/>
<path d="M596.8,346.3h22.4v22.4H596.8Z" class="g2_114"/>
<path d="M618.6,345.7h23.5v23.5H618.6Z" class="g0_114"/>
<path d="M641,345.7h23.5v23.5H641Z" class="g0_114"/>
<path d="M663.4,345.7h23.5v23.5H663.4Z" class="g0_114"/>
<path d="M685.8,345.7h23.5v23.5H685.8Z" class="g0_114"/>
<path d="M708.1,345.7h23.6v23.5H708.1Z" class="g0_114"/>
<path d="M170.9,368.1h23.5v23.5H170.9Z" class="g0_114"/>
<path d="M193.3,368.1h22.4v22.4H193.3Z" class="g1_114"/>
<path d="M193.8,368.7h22.4v22.4H193.8Z" class="g2_114"/>
<path d="M215.7,368.1h23.5v23.5H215.7Z" class="g0_114"/>
<path d="M238.1,368.1h23.5v23.5H238.1Z" class="g0_114"/>
<path d="M260.4,368.1h22.4v22.4H260.4Z" class="g1_114"/>
<path d="M261,368.7h22.4v22.4H261Z" class="g2_114"/>
<path d="M282.8,368.1h23.5v23.5H282.8Z" class="g0_114"/>
<path d="M305.2,368.1h22.4v22.4H305.2Z" class="g1_114"/>
<path d="M305.8,368.7h22.4v22.4H305.8Z" class="g2_114"/>
<path d="M327.6,368.1H350v22.4H327.6Z" class="g1_114"/>
<path d="M328.2,368.7h22.3v22.4H328.2Z" class="g2_114"/>
<path d="M350,368.1h22.4v22.4H350Z" class="g1_114"/>
<path d="M350.5,368.7h22.4v22.4H350.5Z" class="g2_114"/>
<path d="M372.4,368.1h22.4v22.4H372.4Z" class="g1_114"/>
<path d="M372.9,368.7h22.4v22.4H372.9Z" class="g2_114"/>
<path d="M394.8,368.1h22.3v22.4H394.8Z" class="g1_114"/>
<path d="M395.3,368.7h22.4v22.4H395.3Z" class="g2_114"/>
<path d="M417.1,368.1h22.4v22.4H417.1Z" class="g1_114"/>
<path d="M417.7,368.7h22.4v22.4H417.7Z" class="g2_114"/>
<path d="M439.5,368.1h22.4v22.4H439.5Z" class="g1_114"/>
<path d="M440.1,368.7h22.4v22.4H440.1Z" class="g2_114"/>
<path d="M461.9,368.1h22.4v22.4H461.9Z" class="g1_114"/>
<path d="M462.5,368.7h22.4v22.4H462.5Z" class="g2_114"/>
<path d="M484.3,368.1h22.4v22.4H484.3Z" class="g1_114"/>
<path d="M484.9,368.7h22.3v22.4H484.9Z" class="g2_114"/>
<path d="M506.7,368.1h22.4v22.4H506.7Z" class="g1_114"/>
<path d="M507.2,368.7h22.4v22.4H507.2Z" class="g2_114"/>
<path d="M529.1,368.1h23.5v23.5H529.1Z" class="g0_114"/>
<path d="M551.5,368.1h22.3v22.4H551.5Z" class="g1_114"/>
<path d="M552,368.7h22.4v22.4H552Z" class="g2_114"/>
<path d="M573.8,368.1h23.5v23.5H573.8Z" class="g0_114"/>
<path d="M596.2,368.1h22.4v22.4H596.2Z" class="g1_114"/>
<path d="M596.8,368.7h22.4v22.4H596.8Z" class="g2_114"/>
<path d="M618.6,368.1h23.5v23.5H618.6Z" class="g0_114"/>
<path d="M641,368.1h23.5v23.5H641Z" class="g0_114"/>
<path d="M663.4,368.1h23.5v23.5H663.4Z" class="g0_114"/>
<path d="M685.8,368.1h23.5v23.5H685.8Z" class="g0_114"/>
<path d="M708.1,368.1h23.6v23.5H708.1Z" class="g0_114"/>
<path d="M170.9,390.5h23.5V414H170.9Z" class="g0_114"/>
<path d="M193.3,390.5h22.4v22.4H193.3Z" class="g1_114"/>
<path d="M193.8,391.1h22.4v22.4H193.8Z" class="g2_114"/>
<path d="M215.7,390.5h23.5V414H215.7Z" class="g0_114"/>
<path d="M238.1,390.5h23.5V414H238.1Z" class="g0_114"/>
<path d="M260.4,390.5h22.4v22.4H260.4Z" class="g1_114"/>
<path d="M261,391.1h22.4v22.4H261Z" class="g2_114"/>
<path d="M282.8,390.5h23.5V414H282.8Z" class="g0_114"/>
<path d="M305.2,390.5h22.4v22.4H305.2Z" class="g1_114"/>
<path d="M305.8,391.1h22.4v22.4H305.8Z" class="g2_114"/>
<path d="M327.6,390.5h23.5V414H327.6Z" class="g0_114"/>
<path d="M350,390.5h23.5V414H350Z" class="g0_114"/>
<path d="M372.4,390.5h23.5V414H372.4Z" class="g0_114"/>
<path d="M394.8,390.5h23.5V414H394.8Z" class="g0_114"/>
<path d="M417.1,390.5h23.5V414H417.1Z" class="g0_114"/>
<path d="M439.5,390.5h22.4v22.4H439.5Z" class="g1_114"/>
<path d="M440.1,391.1h22.4v22.4H440.1Z" class="g2_114"/>
<path d="M461.9,390.5h23.5V414H461.9Z" class="g0_114"/>
<path d="M484.3,390.5h23.5V414H484.3Z" class="g0_114"/>
<path d="M506.7,390.5h23.5V414H506.7Z" class="g0_114"/>
<path d="M529.1,390.5h23.5V414H529.1Z" class="g0_114"/>
<path d="M551.5,390.5h22.3v22.4H551.5Z" class="g1_114"/>
<path d="M552,391.1h22.4v22.4H552Z" class="g2_114"/>
<path d="M573.8,390.5h22.4v22.4H573.8Z" class="g1_114"/>
<path d="M574.4,391.1h22.4v22.3H574.4Z" class="g2_114"/>
<path d="M596.2,390.5h22.4v22.4H596.2Z" class="g1_114"/>
<path d="M596.8,391.1h22.4v22.3H596.8Z" class="g2_114"/>
<path d="M618.6,390.5H641v22.4H618.6Z" class="g1_114"/>
<path d="M619.2,391.1h22.4v22.3H619.2Z" class="g2_114"/>
<path d="M641,390.5h23.5V414H641Z" class="g0_114"/>
<path d="M663.4,390.5h23.5V414H663.4Z" class="g0_114"/>
<path d="M685.8,390.5h23.5V414H685.8Z" class="g0_114"/>
<path d="M708.1,390.5h23.6V414H708.1Z" class="g0_114"/>
<path d="M170.9,412.9h23.5v23.5H170.9Z" class="g0_114"/>
<path d="M193.3,412.9h22.4v22.4H193.3Z" class="g1_114"/>
<path d="M193.9,413.4h22.3v22.4H193.9Z" class="g2_114"/>
<path d="M215.7,412.9h23.5v23.5H215.7Z" class="g0_114"/>
<path d="M238.1,412.9h23.5v23.5H238.1Z" class="g0_114"/>
<path d="M260.4,412.9h22.4v22.4H260.4Z" class="g1_114"/>
<path d="M261,413.4h22.4v22.4H261Z" class="g2_114"/>
<path d="M282.8,412.9h23.5v23.5H282.8Z" class="g0_114"/>
<path d="M305.2,412.9h22.4v22.4H305.2Z" class="g1_114"/>
<path d="M305.8,413.4h22.4v22.4H305.8Z" class="g2_114"/>
<path d="M327.6,412.9h23.5v23.5H327.6Z" class="g0_114"/>
<path d="M350,412.9h23.5v23.5H350Z" class="g0_114"/>
<path d="M372.4,412.9h23.5v23.5H372.4Z" class="g0_114"/>
<path d="M394.8,412.9h23.5v23.5H394.8Z" class="g0_114"/>
<path d="M417.1,412.9h23.5v23.5H417.1Z" class="g0_114"/>
<path d="M439.5,412.9h22.4v22.4H439.5Z" class="g1_114"/>
<path d="M440.1,413.4h22.4v22.4H440.1Z" class="g2_114"/>
<path d="M461.9,412.9h23.5v23.5H461.9Z" class="g0_114"/>
<path d="M484.3,412.9h23.5v23.5H484.3Z" class="g0_114"/>
<path d="M506.7,412.9h23.5v23.5H506.7Z" class="g0_114"/>
<path d="M529.1,412.9h23.5v23.5H529.1Z" class="g0_114"/>
<path d="M551.5,412.9h22.3v22.4H551.5Z" class="g1_114"/>
<path d="M552,413.4h22.4v22.4H552Z" class="g2_114"/>
<path d="M573.8,412.9h23.5v23.5H573.8Z" class="g0_114"/>
<path d="M596.2,412.9h22.4v22.4H596.2Z" class="g1_114"/>
<path d="M596.8,413.4h22.4v22.4H596.8Z" class="g2_114"/>
<path d="M618.6,412.9h23.5v23.5H618.6Z" class="g0_114"/>
<path d="M641,412.9h23.5v23.5H641Z" class="g0_114"/>
<path d="M663.4,412.9h23.5v23.5H663.4Z" class="g0_114"/>
<path d="M685.8,412.9h23.5v23.5H685.8Z" class="g0_114"/>
<path d="M708.1,412.9h23.6v23.5H708.1Z" class="g0_114"/>
<path d="M170.9,435.3h23.5v23.5H170.9Z" class="g0_114"/>
<path d="M193.3,435.3h22.4v22.4H193.3Z" class="g1_114"/>
<path d="M193.9,435.8h22.3v22.4H193.9Z" class="g2_114"/>
<path d="M215.7,435.3h23.5v23.5H215.7Z" class="g0_114"/>
<path d="M238.1,435.3h23.5v23.5H238.1Z" class="g0_114"/>
<path d="M260.4,435.3h22.4v22.4H260.4Z" class="g1_114"/>
<path d="M261,435.8h22.4v22.4H261Z" class="g2_114"/>
<path d="M282.8,435.3h23.5v23.5H282.8Z" class="g0_114"/>
<path d="M305.2,435.3h22.4v22.4H305.2Z" class="g1_114"/>
<path d="M305.8,435.8h22.4v22.4H305.8Z" class="g2_114"/>
<path d="M327.6,435.3h23.5v23.5H327.6Z" class="g0_114"/>
<path d="M350,435.3h23.5v23.5H350Z" class="g0_114"/>
<path d="M372.4,435.3h23.5v23.5H372.4Z" class="g0_114"/>
<path d="M394.8,435.3h23.5v23.5H394.8Z" class="g0_114"/>
<path d="M417.1,435.3h23.5v23.5H417.1Z" class="g0_114"/>
<path d="M439.5,435.3h22.4v22.4H439.5Z" class="g1_114"/>
<path d="M440.1,435.8h22.4v22.4H440.1Z" class="g2_114"/>
<path d="M461.9,435.3h23.5v23.5H461.9Z" class="g0_114"/>
<path d="M484.3,435.3h22.4v22.4H484.3Z" class="g1_114"/>
<path d="M484.9,435.8h22.3v22.4H484.9Z" class="g2_114"/>
<path d="M506.7,435.3h23.5v23.5H506.7Z" class="g0_114"/>
<path d="M529.1,435.3h23.5v23.5H529.1Z" class="g0_114"/>
<path d="M551.5,435.3h22.3v22.4H551.5Z" class="g1_114"/>
<path d="M552,435.8h22.4v22.4H552Z" class="g2_114"/>
<path d="M573.8,435.3h23.5v23.5H573.8Z" class="g0_114"/>
<path d="M596.2,435.3h23.5v23.5H596.2Z" class="g0_114"/>
<path d="M618.6,435.3h23.5v23.5H618.6Z" class="g0_114"/>
<path d="M641,435.3h23.5v23.5H641Z" class="g0_114"/>
<path d="M663.4,435.3h23.5v23.5H663.4Z" class="g0_114"/>
<path d="M685.8,435.3h23.5v23.5H685.8Z" class="g0_114"/>
<path d="M708.1,435.3h23.6v23.5H708.1Z" class="g0_114"/>
<path d="M170.9,457.7h23.5v23.5H170.9Z" class="g0_114"/>
<path d="M193.3,457.7h22.4v22.4H193.3Z" class="g1_114"/>
<path d="M193.9,458.2h22.3v22.4H193.9Z" class="g2_114"/>
<path d="M215.7,457.7h23.5v23.5H215.7Z" class="g0_114"/>
<path d="M238.1,457.7h23.5v23.5H238.1Z" class="g0_114"/>
<path d="M260.4,457.7h22.4v22.4H260.4Z" class="g1_114"/>
<path d="M261,458.2h22.4v22.4H261Z" class="g2_114"/>
<path d="M282.8,457.7h23.5v23.5H282.8Z" class="g0_114"/>
<path d="M305.2,457.7h22.4v22.4H305.2Z" class="g1_114"/>
<path d="M305.8,458.2h22.4v22.4H305.8Z" class="g2_114"/>
<path d="M327.6,457.7h23.5v23.5H327.6Z" class="g0_114"/>
<path d="M350,457.7h22.4v22.4H350Z" class="g1_114"/>
<path d="M350.5,458.2h22.4v22.4H350.5Z" class="g2_114"/>
<path d="M372.4,457.7h23.5v23.5H372.4Z" class="g0_114"/>
<path d="M394.8,457.7h23.5v23.5H394.8Z" class="g0_114"/>
<path d="M417.1,457.7h23.6v23.5H417.1Z" class="g0_114"/>
<path d="M439.5,457.7h22.4V480H439.5Z" class="g1_114"/>
<path d="M440.1,458.2h22.4v22.4H440.1Z" class="g2_114"/>
<path d="M461.9,457.7h23.5v23.5H461.9Z" class="g0_114"/>
<path d="M484.3,457.7h22.4V480H484.3Z" class="g1_114"/>
<path d="M484.9,458.2h22.4v22.4H484.9Z" class="g2_114"/>
<path d="M506.7,457.7h22.4V480H506.7Z" class="g1_114"/>
<path d="M507.3,458.2h22.3v22.4H507.3Z" class="g2_114"/>
<path d="M529.1,457.7h22.4V480H529.1Z" class="g1_114"/>
<path d="M529.6,458.2H552v22.4H529.6Z" class="g2_114"/>
<path d="M551.5,457.7h22.3V480H551.5Z" class="g1_114"/>
<path d="M552,458.2h22.4v22.4H552Z" class="g2_114"/>
<path d="M573.8,457.7h22.4V480H573.8Z" class="g1_114"/>
<path d="M574.4,458.2h22.4v22.4H574.4Z" class="g2_114"/>
<path d="M596.2,457.7h23.5v23.5H596.2Z" class="g0_114"/>
<path d="M618.6,457.7h23.5v23.5H618.6Z" class="g0_114"/>
<path d="M641,457.7h23.5v23.5H641Z" class="g0_114"/>
<path d="M663.4,457.7h23.5v23.5H663.4Z" class="g0_114"/>
<path d="M685.8,457.7h23.5v23.5H685.8Z" class="g0_114"/>
<path d="M708.2,457.7h23.5v23.5H708.2Z" class="g0_114"/>
<path d="M170.9,480h23.5v23.5H170.9Z" class="g0_114"/>
<path d="M193.3,480h22.4v22.4H193.3Z" class="g1_114"/>
<path d="M193.9,480.6h22.3V503H193.9Z" class="g2_114"/>
<path d="M215.7,480h23.5v23.5H215.7Z" class="g0_114"/>
<path d="M238.1,480h23.5v23.5H238.1Z" class="g0_114"/>
<path d="M260.5,480h22.3v22.4H260.5Z" class="g1_114"/>
<path d="M261,480.6h22.4V503H261Z" class="g2_114"/>
<path d="M282.8,480h23.5v23.5H282.8Z" class="g0_114"/>
<path d="M305.2,480h22.4v22.4H305.2Z" class="g1_114"/>
<path d="M305.8,480.6h22.4V503H305.8Z" class="g2_114"/>
<path d="M327.6,480h23.5v23.5H327.6Z" class="g0_114"/>
<path d="M350,480h22.4v22.4H350Z" class="g1_114"/>
<path d="M350.6,480.6h22.3V503H350.6Z" class="g2_114"/>
<path d="M372.4,480h23.5v23.5H372.4Z" class="g0_114"/>
<path d="M394.8,480h23.5v23.5H394.8Z" class="g0_114"/>
<path d="M417.1,480h23.6v23.5H417.1Z" class="g0_114"/>
<path d="M439.5,480h22.4v22.4H439.5Z" class="g1_114"/>
<path d="M440.1,480.6h22.4V503H440.1Z" class="g2_114"/>
<path d="M461.9,480h23.5v23.5H461.9Z" class="g0_114"/>
<path d="M484.3,480h22.4v22.4H484.3Z" class="g1_114"/>
<path d="M484.9,480.6h22.4V503H484.9Z" class="g2_114"/>
<path d="M506.7,480h23.5v23.5H506.7Z" class="g0_114"/>
<path d="M529.1,480h23.5v23.5H529.1Z" class="g0_114"/>
<path d="M551.5,480h22.3v22.4H551.5Z" class="g1_114"/>
<path d="M552,480.6h22.4V503H552Z" class="g2_114"/>
<path d="M573.8,480h23.6v23.5H573.8Z" class="g0_114"/>
<path d="M596.2,480h23.5v23.5H596.2Z" class="g0_114"/>
<path d="M618.6,480h23.5v23.5H618.6Z" class="g0_114"/>
<path d="M641,480h23.5v23.5H641Z" class="g0_114"/>
<path d="M663.4,480h23.5v23.5H663.4Z" class="g0_114"/>
<path d="M685.8,480h23.5v23.5H685.8Z" class="g0_114"/>
<path d="M708.2,480h23.5v23.5H708.2Z" class="g0_114"/>
<path d="M170.9,502.4h23.5v23.5H170.9Z" class="g0_114"/>
<path d="M193.3,502.4h22.4v22.4H193.3Z" class="g1_114"/>
<path d="M193.9,503h22.3v22.4H193.9Z" class="g2_114"/>
<path d="M215.7,502.4h23.5v23.5H215.7Z" class="g0_114"/>
<path d="M238.1,502.4h23.5v23.5H238.1Z" class="g0_114"/>
<path d="M260.5,502.4h22.3v22.4H260.5Z" class="g1_114"/>
<path d="M261,503h22.4v22.4H261Z" class="g2_114"/>
<path d="M282.8,502.4h23.5v23.5H282.8Z" class="g0_114"/>
<path d="M305.2,502.4h22.4v22.4H305.2Z" class="g1_114"/>
<path d="M305.8,503h22.4v22.4H305.8Z" class="g2_114"/>
<path d="M327.6,502.4h23.5v23.5H327.6Z" class="g0_114"/>
<path d="M350,502.4h22.4v22.4H350Z" class="g1_114"/>
<path d="M350.6,503h22.3v22.4H350.6Z" class="g2_114"/>
<path d="M372.4,502.4h23.5v23.5H372.4Z" class="g0_114"/>
<path d="M394.8,502.4h22.3v22.4H394.8Z" class="g1_114"/>
<path d="M395.3,503h22.4v22.4H395.3Z" class="g2_114"/>
<path d="M417.1,502.4h22.4v22.4H417.1Z" class="g1_114"/>
<path d="M417.7,503h22.4v22.4H417.7Z" class="g2_114"/>
<path d="M439.5,502.4h22.4v22.4H439.5Z" class="g1_114"/>
<path d="M440.1,503h22.4v22.4H440.1Z" class="g2_114"/>
<path d="M461.9,502.4h22.4v22.4H461.9Z" class="g1_114"/>
<path d="M462.5,503h22.4v22.4H462.5Z" class="g2_114"/>
<path d="M484.3,502.4h22.4v22.4H484.3Z" class="g1_114"/>
<path d="M484.9,503h22.4v22.4H484.9Z" class="g2_114"/>
<path d="M506.7,502.4h22.4v22.4H506.7Z" class="g1_114"/>
<path d="M507.3,503h22.3v22.4H507.3Z" class="g2_114"/>
<path d="M529.1,502.4h22.4v22.4H529.1Z" class="g1_114"/>
<path d="M529.6,503H552v22.4H529.6Z" class="g2_114"/>
<path d="M551.5,502.4h22.3v22.4H551.5Z" class="g1_114"/>
<path d="M552,503h22.4v22.4H552Z" class="g2_114"/>
<path d="M573.8,502.4h23.6v23.5H573.8Z" class="g0_114"/>
<path d="M596.2,502.4h23.5v23.5H596.2Z" class="g0_114"/>
<path d="M618.6,502.4h23.5v23.5H618.6Z" class="g0_114"/>
<path d="M641,502.4h23.5v23.5H641Z" class="g0_114"/>
<path d="M663.4,502.4h23.5v23.5H663.4Z" class="g0_114"/>
<path d="M685.8,502.4h23.5v23.5H685.8Z" class="g0_114"/>
<path d="M708.2,502.4h23.5v23.5H708.2Z" class="g0_114"/>
<path d="M170.9,524.8h22.4v22.4H170.9Z" class="g1_114"/>
<path d="M171.5,525.4h22.4v22.4H171.5Z" class="g2_114"/>
<path d="M193.3,524.8h22.4v22.4H193.3Z" class="g1_114"/>
<path d="M193.9,525.4h22.3v22.4H193.9Z" class="g2_114"/>
<path d="M215.7,524.8h22.4v22.4H215.7Z" class="g1_114"/>
<path d="M216.2,525.4h22.4v22.4H216.2Z" class="g2_114"/>
<path d="M238.1,524.8h22.4v22.4H238.1Z" class="g1_114"/>
<path d="M238.6,525.4H261v22.4H238.6Z" class="g2_114"/>
<path d="M260.5,524.8h22.3v22.4H260.5Z" class="g1_114"/>
<path d="M261,525.4h22.4v22.4H261Z" class="g2_114"/>
<path d="M282.8,524.8h22.4v22.4H282.8Z" class="g1_114"/>
<path d="M283.4,525.4h22.4v22.4H283.4Z" class="g2_114"/>
<path d="M305.2,524.8h22.4v22.4H305.2Z" class="g1_114"/>
<path d="M305.8,525.4h22.4v22.4H305.8Z" class="g2_114"/>
<path d="M327.6,524.8H350v22.4H327.6Z" class="g1_114"/>
<path d="M328.2,525.4h22.4v22.4H328.2Z" class="g2_114"/>
<path d="M350,524.8h22.4v22.4H350Z" class="g1_114"/>
<path d="M350.6,525.4h22.3v22.4H350.6Z" class="g2_114"/>
<path d="M372.4,524.8h23.5v23.5H372.4Z" class="g0_114"/>
<path d="M394.8,524.8h22.4v22.4H394.8Z" class="g1_114"/>
<path d="M395.3,525.4h22.4v22.4H395.3Z" class="g2_114"/>
<path d="M417.2,524.8h23.5v23.5H417.2Z" class="g0_114"/>
<path d="M439.5,524.8h22.4v22.4H439.5Z" class="g1_114"/>
<path d="M440.1,525.4h22.4v22.4H440.1Z" class="g2_114"/>
<path d="M461.9,524.8h23.5v23.5H461.9Z" class="g0_114"/>
<path d="M484.3,524.8h22.4v22.4H484.3Z" class="g1_114"/>
<path d="M484.9,525.4h22.4v22.4H484.9Z" class="g2_114"/>
<path d="M506.7,524.8h23.5v23.5H506.7Z" class="g0_114"/>
<path d="M529.1,524.8h23.5v23.5H529.1Z" class="g0_114"/>
<path d="M551.5,524.8h22.3v22.4H551.5Z" class="g1_114"/>
<path d="M552,525.4h22.4v22.4H552Z" class="g2_114"/>
<path d="M573.8,524.8h23.6v23.5H573.8Z" class="g0_114"/>
<path d="M596.2,524.8h23.5v23.5H596.2Z" class="g0_114"/>
<path d="M618.6,524.8h23.5v23.5H618.6Z" class="g0_114"/>
<path d="M641,524.8h23.5v23.5H641Z" class="g0_114"/>
<path d="M663.4,524.8h23.5v23.5H663.4Z" class="g0_114"/>
<path d="M685.8,524.8h23.5v23.5H685.8Z" class="g0_114"/>
<path d="M708.2,524.8h23.5v23.5H708.2Z" class="g0_114"/>
<path d="M170.9,547.2h23.5v23.5H170.9Z" class="g0_114"/>
<path d="M193.3,547.2h23.5v23.5H193.3Z" class="g0_114"/>
<path d="M215.7,547.2h23.5v23.5H215.7Z" class="g0_114"/>
<path d="M238.1,547.2h23.5v23.5H238.1Z" class="g0_114"/>
<path d="M260.5,547.2h22.3v22.4H260.5Z" class="g1_114"/>
<path d="M261,547.8h22.4v22.3H261Z" class="g2_114"/>
<path d="M282.8,547.2h23.5v23.5H282.8Z" class="g0_114"/>
<path d="M305.2,547.2h23.5v23.5H305.2Z" class="g0_114"/>
<path d="M327.6,547.2h23.5v23.5H327.6Z" class="g0_114"/>
<path d="M350,547.2h23.5v23.5H350Z" class="g0_114"/>
<path d="M372.4,547.2h23.5v23.5H372.4Z" class="g0_114"/>
<path d="M394.8,547.2h22.4v22.4H394.8Z" class="g1_114"/>
<path d="M395.3,547.8h22.4v22.3H395.3Z" class="g2_114"/>
<path d="M417.2,547.2h23.5v23.5H417.2Z" class="g0_114"/>
<path d="M439.5,547.2H463v23.5H439.5Z" class="g0_114"/>
<path d="M461.9,547.2h23.5v23.5H461.9Z" class="g0_114"/>
<path d="M484.3,547.2h23.5v23.5H484.3Z" class="g0_114"/>
<path d="M506.7,547.2h23.5v23.5H506.7Z" class="g0_114"/>
<path d="M529.1,547.2h23.5v23.5H529.1Z" class="g0_114"/>
<path d="M551.5,547.2h22.3v22.4H551.5Z" class="g1_114"/>
<path d="M552,547.8h22.4v22.3H552Z" class="g2_114"/>
<path d="M573.8,547.2h23.6v23.5H573.8Z" class="g0_114"/>
<path d="M596.2,547.2h23.5v23.5H596.2Z" class="g0_114"/>
<path d="M618.6,547.2h23.5v23.5H618.6Z" class="g0_114"/>
<path d="M641,547.2h23.5v23.5H641Z" class="g0_114"/>
<path d="M663.4,547.2h23.5v23.5H663.4Z" class="g0_114"/>
<path d="M685.8,547.2h23.5v23.5H685.8Z" class="g0_114"/>
<path d="M708.2,547.2h23.5v23.5H708.2Z" class="g0_114"/>
<path d="M170.9,569.6h22.4V592H170.9Z" class="g1_114"/>
<path d="M171.5,570.1h22.4v22.4H171.5Z" class="g2_114"/>
<path d="M193.3,569.6h22.4V592H193.3Z" class="g1_114"/>
<path d="M193.9,570.1h22.3v22.4H193.9Z" class="g2_114"/>
<path d="M215.7,569.6h22.4V592H215.7Z" class="g1_114"/>
<path d="M216.2,570.1h22.4v22.4H216.2Z" class="g2_114"/>
<path d="M238.1,569.6h22.4V592H238.1Z" class="g1_114"/>
<path d="M238.6,570.1H261v22.4H238.6Z" class="g2_114"/>
<path d="M260.5,569.6h22.3V592H260.5Z" class="g1_114"/>
<path d="M261,570.1h22.4v22.4H261Z" class="g2_114"/>
<path d="M282.8,569.6h22.4V592H282.8Z" class="g1_114"/>
<path d="M283.4,570.1h22.4v22.4H283.4Z" class="g2_114"/>
<path d="M305.2,569.6h22.4V592H305.2Z" class="g1_114"/>
<path d="M305.8,570.1h22.4v22.4H305.8Z" class="g2_114"/>
<path d="M327.6,569.6H350V592H327.6Z" class="g1_114"/>
<path d="M328.2,570.1h22.4v22.4H328.2Z" class="g2_114"/>
<path d="M350,569.6h22.4V592H350Z" class="g1_114"/>
<path d="M350.6,570.1h22.3v22.4H350.6Z" class="g2_114"/>
<path d="M372.4,569.6h23.5v23.5H372.4Z" class="g0_114"/>
<path d="M394.8,569.6h22.4V592H394.8Z" class="g1_114"/>
<path d="M395.3,570.1h22.4v22.4H395.3Z" class="g2_114"/>
<path d="M417.2,569.6h23.5v23.5H417.2Z" class="g0_114"/>
<path d="M439.5,569.6h22.4V592H439.5Z" class="g1_114"/>
<path d="M440.1,570.1h22.4v22.4H440.1Z" class="g2_114"/>
<path d="M461.9,569.6h22.4V592H461.9Z" class="g1_114"/>
<path d="M462.5,570.1h22.4v22.4H462.5Z" class="g2_114"/>
<path d="M484.3,569.6h22.4V592H484.3Z" class="g1_114"/>
<path d="M484.9,570.1h22.4v22.4H484.9Z" class="g2_114"/>
<path d="M506.7,569.6h22.4V592H506.7Z" class="g1_114"/>
<path d="M507.3,570.1h22.3v22.4H507.3Z" class="g2_114"/>
<path d="M529.1,569.6h22.4V592H529.1Z" class="g1_114"/>
<path d="M529.6,570.1H552v22.4H529.6Z" class="g2_114"/>
<path d="M551.5,569.6h22.3V592H551.5Z" class="g1_114"/>
<path d="M552,570.1h22.4v22.4H552Z" class="g2_114"/>
<path d="M573.8,569.6h22.4V592H573.8Z" class="g1_114"/>
<path d="M574.4,570.1h22.4v22.4H574.4Z" class="g2_114"/>
<path d="M596.2,569.6h22.4V592H596.2Z" class="g1_114"/>
<path d="M596.8,570.1h22.4v22.4H596.8Z" class="g2_114"/>
<path d="M618.6,569.6H641V592H618.6Z" class="g1_114"/>
<path d="M619.2,570.1h22.4v22.4H619.2Z" class="g2_114"/>
<path d="M641,569.6h23.5v23.5H641Z" class="g0_114"/>
<path d="M663.4,569.6h23.5v23.5H663.4Z" class="g0_114"/>
<path d="M685.8,569.6h23.5v23.5H685.8Z" class="g0_114"/>
<path d="M708.2,569.6h23.5v23.5H708.2Z" class="g0_114"/>
<path d="M170.9,592h23.5v23.5H170.9Z" class="g0_114"/>
<path d="M193.3,592h23.5v23.5H193.3Z" class="g0_114"/>
<path d="M215.7,592h23.5v23.5H215.7Z" class="g0_114"/>
<path d="M238.1,592h23.5v23.5H238.1Z" class="g0_114"/>
<path d="M260.5,592H284v23.5H260.5Z" class="g0_114"/>
<path d="M282.8,592h23.5v23.5H282.8Z" class="g0_114"/>
<path d="M305.2,592h23.5v23.5H305.2Z" class="g0_114"/>
<path d="M327.6,592h23.5v23.5H327.6Z" class="g0_114"/>
<path d="M350,592h23.5v23.5H350Z" class="g0_114"/>
<path d="M372.4,592h23.5v23.5H372.4Z" class="g0_114"/>
<path d="M394.8,592h23.5v23.5H394.8Z" class="g0_114"/>
<path d="M417.2,592h23.5v23.5H417.2Z" class="g0_114"/>
<path d="M439.5,592H463v23.5H439.5Z" class="g0_114"/>
<path d="M461.9,592h23.5v23.5H461.9Z" class="g0_114"/>
<path d="M484.3,592h23.5v23.5H484.3Z" class="g0_114"/>
<path d="M506.7,592h23.5v23.5H506.7Z" class="g0_114"/>
<path d="M529.1,592h23.5v23.5H529.1Z" class="g0_114"/>
<path d="M551.5,592H575v23.5H551.5Z" class="g0_114"/>
<path d="M573.8,592h23.6v23.5H573.8Z" class="g0_114"/>
<path d="M596.2,592h23.5v23.5H596.2Z" class="g0_114"/>
<path d="M618.6,592h23.5v23.5H618.6Z" class="g0_114"/>
<path d="M641,592h23.5v23.5H641Z" class="g0_114"/>
<path d="M663.4,592h23.5v23.5H663.4Z" class="g0_114"/>
<path d="M685.8,592h23.5v23.5H685.8Z" class="g0_114"/>
<path d="M708.2,592h23.5v23.5H708.2Z" class="g0_114"/>
<path d="M170.9,233.9V614.7H732.7V233.9H170.9Z" class="g3_114"/>
<g clip-path="url(#c2_114)">
<path d="M-4.5,13.7H-27.4m939.5,0H935M-4.5,1031.2H-27.4m939.5,0H935M13.7,-4.5V-27.4m0,1077v22.9m880,-1077V-27.4m0,1077v22.9" class="g4_114"/>
<path d="M-4.5,13.7H-27.4m939.5,0H935M-4.5,1031.2H-27.4m939.5,0H935M13.7,-4.5V-27.4m0,1077v22.9m880,-1077V-27.4m0,1077v22.9" class="g5_114"/>
</g>
</svg>