<?xml version="1.0" encoding="UTF-8" standalone="no"?>
<!DOCTYPE svg PUBLIC "-//W3C//DTD SVG 1.1//EN"
"http://www.w3.org/Graphics/SVG/1.1/DTD/svg11.dtd">
<svg viewBox="0 0 931 1096" version="1.1" xmlns="http://www.w3.org/2000/svg" xmlns:xlink="http://www.w3.org/1999/xlink">
<defs>
<clipPath id="c0_58"><path d="M52,130.1V96.5H825v33.6Z"/></clipPath>
<style type="text/css"><![CDATA[
.g0_58{
fill: none;
stroke: #241F1F;
stroke-width: 0.763;
stroke-miterlimit: 10;
}
.g1_58{
fill: none;
stroke: #00AEEF;
stroke-width: 0.763;
}
.g2_58{
fill: none;
stroke: #00AEEF;
stroke-width: 1.145;
}
]]></style>
</defs>
<image clip-path="url(#c0_58)" preserveAspectRatio="none" x="52" y="97" width="773" height="33" xlink:href="img/1.png"/>
<path d="M436.1,265h20.5" class="g0_58"/>
<path d="M380.1,504.1c0,0,-3.1,0,-3.1,3v51.2c0,0,0,3.1,3.1,3.1H730.7c0,0,3,0,3,-3.1V507.1c0,0,0,-3,-3,-3H380.1Zm66.4,171.1c0,0,-3,0,-3,3v51.2c0,0,0,3.1,3,3.1H664.2c0,0,3.1,0,3.1,-3.1V678.2c0,0,0,-3,-3.1,-3H446.5Z" class="g1_58"/>
<path d="M304.6,524.4c0,0,-1.5,0,-1.5,1.5v14.2c0,0,0,1.5,1.5,1.5h14.1c0,0,1.6,0,1.6,-1.5V525.9c0,0,0,-1.5,-1.6,-1.5H304.6Zm0,172.6c0,0,-1.5,0,-1.5,1.6v14.1c0,0,0,1.5,1.5,1.5h14.1c0,0,1.6,0,1.6,-1.5V698.6c0,0,0,-1.6,-1.6,-1.6H304.6Z" class="g2_58"/>
</svg>