<?xml version="1.0" encoding="UTF-8" standalone="no"?>
<!DOCTYPE svg PUBLIC "-//W3C//DTD SVG 1.1//EN"
"http://www.w3.org/Graphics/SVG/1.1/DTD/svg11.dtd">
<svg viewBox="0 0 907 1045" version="1.1" xmlns="http://www.w3.org/2000/svg" xmlns:xlink="http://www.w3.org/1999/xlink">
<defs>
<clipPath id="c0_366"><path d="M661.8,378V106.2H803.1V378Z"/></clipPath>
<clipPath id="c1_366"><path d="M-2.6,1047.7V-2.6H910.2V1047.7Z"/></clipPath>
<style type="text/css"><![CDATA[
.g0_366{
fill: none;
stroke: #636363;
stroke-width: 1.527;
stroke-linecap: butt;
stroke-linejoin: miter;
stroke-miterlimit: 4;
}
.g1_366{
fill: none;
stroke: #FFFFFF;
stroke-width: 1.909;
stroke-linecap: butt;
stroke-linejoin: miter;
}
.g2_366{
fill: none;
stroke: #000000;
stroke-width: 0.381;
stroke-linecap: butt;
stroke-linejoin: miter;
}
]]></style>
</defs>
<path d="M391.4,864.5c3.3,4.1,17,-.1,20.9,-.7c3.5,-.6,7.3,.2,10.9,-.2c1.7,-.2,3.2,-1,5.3,-1.1c2,0,4.1,0,6.2,0M492.4,686.6c.3,3.2,-2.2,6.5,-4.2,8.9c-2,2.5,-3.8,4.9,-7,5.5c-3.6,.8,-7.2,2.9,-10.8,3c-2.1,0,-5.2,-.7,-7.2,.2c.3,-.5,1.5,-2,2,-2.4c.9,-.6,1.9,-.7,2.6,-1.5c-1.3,.4,-2.5,1,-3.5,1.9c-1.1,.9,-1.4,1.8,-2.8,2.3c.9,2.2,5.6,1.9,7.7,2m116.8,6c-2.9,-2.5,-6,-2.8,-9.6,-3.8c-3.9,-1,-7.6,-1.7,-11.7,-1.4c-2.7,.2,-4.4,1.4,-6.9,2.2c-1.9,.6,-2.1,1.4,-3.5,2.6c-.7,.6,-1.2,1.1,-2.1,.8c-.5,-1.7,1.7,-3.5,1.2,-5.5c-2.1,2.6,-1.7,5,-1.2,8.1c1.3,.2,2.6,-.2,3.8,-.4c1.6,-.4,4.4,.1,5.6,-1.3m49.8,-98c-3.2,.2,-6.4,-.5,-9.6,-.7c-1.7,-.1,-3.3,0,-5,-.1c-2.2,0,-4.3,-.8,-6.4,-1.2c-3.1,-.4,-6.4,-.8,-9.5,-.8c-1.4,-.1,-3.8,.5,-5,-.3c1.3,-.8,2.8,-1.6,4.3,-1.9c.7,-.1,2.6,.1,2.9,-.6c-2.4,-.5,-6,.9,-8.1,1.9c-1.5,.7,-4.8,1.2,-5.5,2.9c2.4,.3,4.7,.7,7.1,.8c2.4,.1,4.5,.5,6.8,.8c1.2,.1,2.2,-.2,2.6,.5m30.2,7.3c-3.4,0,-5.7,1,-8.8,2.4c-1.8,.8,-3.6,.8,-5.4,1.4c-2.1,.8,-3.5,2.1,-5.8,2.6c-3.3,.7,-6,2.2,-9.1,3.4c-1.1,.4,-2.5,.8,-3.5,1.4c-.3,-.9,.2,-1.3,.3,-2.1c.3,-1,.4,-1.9,.5,-3c-.6,.6,-.7,1.6,-.9,2.4c-.4,1.6,-2,4.1,-1.7,5.6c2.8,.5,5.8,-.5,8.6,-.4M641.4,517c-6.9,.1,-12.2,2.2,-16.6,7.9c-2,2.6,-3.5,5.8,-4.8,8.7c-1.3,2.6,-3.2,5.2,-4.2,7.9c-.4,-2.5,-.4,-5.4,-1.4,-7.7c0,2.1,.1,4.8,1.2,6.6c1.2,1.7,4.6,2.1,6.4,1m48.3,28.4c-5.2,2.2,-10.7,4,-16.1,5.5c-3.6,1,-8.2,1.3,-12,.8c-3.1,-.4,-5.9,-1.6,-9.2,-1.5c-1.2,0,-2.5,-.1,-3.8,0c.9,-.2,1.9,-.6,2.8,-.9c1.5,-.4,2.5,-.7,3.9,-1.6c.7,-.5,1.3,-1.1,2.1,-1.5c-1.4,0,-3.1,.9,-4.3,1.7c-1.9,1.2,-3.9,2.2,-5.5,3.8c-1,1,-2,1.4,-.4,2.4c1,.6,3.5,.7,4.5,.9c1.2,.3,2.4,.8,3.6,.8M580.6,801.8c5.8,.9,9.5,-7.3,11.4,-11.4c2.6,-5.6,2,-11.1,-.5,-16.6c-.8,-1.7,-1.9,-2.3,-3.2,-3.6c-1.1,-1.1,-1.8,-2.1,-3.2,-2.7c-1.2,-.6,-2.1,-.9,-3.4,-1.1c-.8,-.2,-2.1,-.4,-2.8,-1c2.6,-.9,5.5,-.9,8.1,-1.7c-1.8,-.4,-4.1,0,-5.9,.3c-1,.2,-2,.4,-3,.7c-.8,.3,-2.1,.4,-2.9,.9c1.1,1.1,2.1,1.9,2.9,3.3c.8,1.3,1.1,2.5,1.6,3.8c.3,.6,.8,1.2,.9,1.9" class="g0_366"/>
<image clip-path="url(#c0_366)" preserveAspectRatio="none" x="662" y="106" width="141" height="272" xlink:href="img/1.jpg"/>
<path d="M581.1,263.9c-.6,-4.1,1.7,-7.9,3,-11.7c1.8,-5.5,5.2,-10.2,9.4,-14.1c6.6,-6.1,13.5,-12,21.4,-16.1c2.7,-1.4,5.7,-2.6,8.6,-3.5c1.9,-.7,3.7,-1.3,5.7,-1.6c2.1,-.3,3.3,-1.5,5.2,-2.3c1.4,-.6,2.9,-.7,4.3,-1.2c1.9,-.7,3.7,-1.4,5.8,-1.5c1.8,-.1,3.1,.3,4.6,-1c-.5,-.1,-1,0,-1.5,0c-1.3,-.2,-2.4,-1,-3.7,-1.2c-2.8,-.4,-5.9,0,-8.7,0c1.4,-.1,2.6,.3,4,.4c2.6,.1,6.9,-1.4,9.1,.6c3.4,3.1,-4.5,5.8,-4.2,8.8M296.3,383.9c.2,-.4,.4,-.8,.6,-1.2m4.7,1.2c1.2,.3,2.3,.6,3.5,.9m209.5,28.6c-1.1,.1,-2.2,.4,-3.3,.8c-3.2,1.2,-6.9,1.6,-9.3,4.4c-2.1,2.4,-3.6,5.7,-4.8,8.7c-.7,1.6,-.9,3.3,-1.1,5c-.2,1,-.1,2.1,-.6,3c-.7,-1.3,-1.4,-3.1,-2.7,-4.1c1,.5,1.5,2,2,2.9c-.1,.4,0,.7,.3,.7c.4,.1,2.1,-1.2,2.5,-1.4m15.4,-14c.7,.4,1.1,1.1,1.6,1.6c1.1,1.3,2.4,2.4,3.6,3.5c1.8,1.6,3,3.2,4.5,5c1.3,1.7,3.5,3,4.5,4.9c.3,.7,.2,1.4,.4,2.1c.3,.5,.5,.9,.7,1.5c.2,.7,.6,1,1,1.6c-2.3,-.9,-4.5,-1.8,-6.6,-2.9c.2,.6,1.5,1.3,2,1.6c1.2,.7,2.5,1.4,3.8,1.8c1.6,.5,3.7,-.6,3.7,-2.5" class="g0_366"/>
<g clip-path="url(#c1_366)">
<path d="M-4.5,13.7H-27.4m939.5,0H935M-4.5,1031.2H-27.4m939.5,0H935M13.7,-4.5V-27.4m0,1077v22.9m880,-1077V-27.4m0,1077v22.9" class="g1_366"/>
<path d="M-4.5,13.7H-27.4m939.5,0H935M-4.5,1031.2H-27.4m939.5,0H935M13.7,-4.5V-27.4m0,1077v22.9m880,-1077V-27.4m0,1077v22.9" class="g2_366"/>
</g>
</svg>