<?xml version="1.0" encoding="UTF-8" standalone="no"?>
<!DOCTYPE svg PUBLIC "-//W3C//DTD SVG 1.1//EN"
"http://www.w3.org/Graphics/SVG/1.1/DTD/svg11.dtd">
<svg viewBox="0 0 811 1017" version="1.1" xmlns="http://www.w3.org/2000/svg" xmlns:xlink="http://www.w3.org/1999/xlink">
<defs>
<style type="text/css"><![CDATA[
.g0_326{
fill: none;
stroke: #222326;
stroke-width: 1.145;
}
.g1_326{
fill: #211E1E;
}
.g2_326{
fill: none;
stroke: #222326;
stroke-width: 1.527;
}
.g3_326{
fill: #C6EAFA;
}
.g4_326{
fill: none;
stroke: #222326;
stroke-width: 0.763;
}
.g5_326{
fill: #FED9A1;
}
.g6_326{
fill: #65C18B;
}
.g7_326{
fill: #FED74D;
}
.g8_326{
fill: #92C4E9;
}
.g9_326{
fill: #CEBCDA;
}
.ga_326{
fill: none;
stroke: #222326;
stroke-width: 0.763;
stroke-dasharray: 4,4;
}
]]></style>
</defs>
<path d="M157.4,94.8H411.8" class="g0_326"/>
<path d="M414.5,93.6c-1.9,-.6,-3.1,-1.1,-4.6,-1.7v5.8c.5,-.3,2.7,-1.2,4.6,-1.7c2,-.6,3.9,-1.1,5.1,-1.2c-1.2,-.2,-3.1,-.6,-5.1,-1.2Z" class="g1_326"/>
<path d="M376.6,105.3v-21" class="g2_326"/>
<path d="M157.4,198.7H411.8" class="g0_326"/>
<path d="M414.5,197.5c-1.9,-.6,-3.1,-1.1,-4.6,-1.7v5.8c.5,-.3,2.7,-1.2,4.6,-1.7c2,-.6,3.9,-1.1,5.1,-1.2c-1.2,-.2,-3.1,-.6,-5.1,-1.2Z" class="g1_326"/>
<path d="M172.9,159.1c0,3.4,2.7,6.1,6.1,6.1H386.9c3.4,0,6.1,-2.7,6.1,-6.1V135.2c0,-3.4,-2.7,-6.2,-6.1,-6.2H179c-3.4,0,-6.1,2.8,-6.1,6.2v23.9Z" class="g3_326"/>
<path d="M172.9,159.1c0,3.4,2.7,6.1,6.1,6.1H386.9c3.4,0,6.1,-2.7,6.1,-6.1V135.2c0,-3.4,-2.7,-6.2,-6.1,-6.2H179c-3.4,0,-6.1,2.8,-6.1,6.2v23.9Z" class="g4_326"/>
<path d="M217.3,94.8c0,5.8,-4.7,10.5,-10.5,10.5c-5.8,0,-10.5,-4.7,-10.5,-10.5c0,-5.8,4.7,-10.5,10.5,-10.5c5.8,0,10.5,4.7,10.5,10.5Z" class="g5_326"/>
<path d="M217.3,94.8c0,5.8,-4.7,10.5,-10.5,10.5c-5.8,0,-10.5,-4.7,-10.5,-10.5c0,-5.8,4.7,-10.5,10.5,-10.5c5.8,0,10.5,4.7,10.5,10.5Z" class="g4_326"/>
<path d="M247,94.8c0,5.8,-4.7,10.5,-10.5,10.5c-5.8,0,-10.5,-4.7,-10.5,-10.5c0,-5.8,4.7,-10.5,10.5,-10.5c5.8,0,10.5,4.7,10.5,10.5Z" class="g6_326"/>
<path d="M247,94.8c0,5.8,-4.7,10.5,-10.5,10.5c-5.8,0,-10.5,-4.7,-10.5,-10.5c0,-5.8,4.7,-10.5,10.5,-10.5c5.8,0,10.5,4.7,10.5,10.5Z" class="g4_326"/>
<path d="M276.7,94.8c0,5.8,-4.7,10.5,-10.5,10.5c-5.8,0,-10.5,-4.7,-10.5,-10.5c0,-5.8,4.7,-10.5,10.5,-10.5c5.8,0,10.5,4.7,10.5,10.5Z" class="g7_326"/>
<path d="M276.7,94.8c0,5.8,-4.7,10.5,-10.5,10.5c-5.8,0,-10.5,-4.7,-10.5,-10.5c0,-5.8,4.7,-10.5,10.5,-10.5c5.8,0,10.5,4.7,10.5,10.5Z" class="g4_326"/>
<path d="M306.4,94.8c0,5.8,-4.7,10.5,-10.5,10.5c-5.8,0,-10.5,-4.7,-10.5,-10.5c0,-5.8,4.7,-10.5,10.5,-10.5c5.8,0,10.5,4.7,10.5,10.5Z" class="g8_326"/>
<path d="M306.4,94.8c0,5.8,-4.7,10.5,-10.5,10.5c-5.8,0,-10.5,-4.7,-10.5,-10.5c0,-5.8,4.7,-10.5,10.5,-10.5c5.8,0,10.5,4.7,10.5,10.5Z" class="g4_326"/>
<path d="M336.1,94.8c0,5.8,-4.7,10.5,-10.5,10.5c-5.8,0,-10.4,-4.7,-10.4,-10.5c0,-5.8,4.6,-10.5,10.4,-10.5c5.8,0,10.5,4.7,10.5,10.5Z" class="g9_326"/>
<path d="M336.1,94.8c0,5.8,-4.7,10.5,-10.5,10.5c-5.8,0,-10.4,-4.7,-10.4,-10.5c0,-5.8,4.6,-10.5,10.4,-10.5c5.8,0,10.5,4.7,10.5,10.5Z" class="g4_326"/>
<path d="M217.3,198.7c0,5.8,-4.7,10.5,-10.5,10.5c-5.8,0,-10.5,-4.7,-10.5,-10.5c0,-5.8,4.7,-10.5,10.5,-10.5c5.8,0,10.5,4.7,10.5,10.5Z" class="g5_326"/>
<path d="M217.3,198.7c0,5.8,-4.7,10.5,-10.5,10.5c-5.8,0,-10.5,-4.7,-10.5,-10.5c0,-5.8,4.7,-10.5,10.5,-10.5c5.8,0,10.5,4.7,10.5,10.5Z" class="g4_326"/>
<path d="M247,198.7c0,5.8,-4.7,10.5,-10.5,10.5c-5.8,0,-10.5,-4.7,-10.5,-10.5c0,-5.8,4.7,-10.5,10.5,-10.5c5.8,0,10.5,4.7,10.5,10.5Z" class="g6_326"/>
<path d="M247,198.7c0,5.8,-4.7,10.5,-10.5,10.5c-5.8,0,-10.5,-4.7,-10.5,-10.5c0,-5.8,4.7,-10.5,10.5,-10.5c5.8,0,10.5,4.7,10.5,10.5Z" class="g4_326"/>
<path d="M336.1,198.7c0,5.8,-4.7,10.5,-10.5,10.5c-5.8,0,-10.4,-4.7,-10.4,-10.5c0,-5.8,4.6,-10.5,10.4,-10.5c5.8,0,10.5,4.7,10.5,10.5Z" class="g9_326"/>
<path d="M336.1,198.7c0,5.8,-4.7,10.5,-10.5,10.5c-5.8,0,-10.4,-4.7,-10.4,-10.5c0,-5.8,4.6,-10.5,10.4,-10.5c5.8,0,10.5,4.7,10.5,10.5Z" class="g4_326"/>
<path d="M206.8,165.2V183" class="ga_326"/>
<path d="M207.6,184.8c.4,-1.2,.7,-2.1,1.2,-3.1h-3.9c.2,.4,.8,1.9,1.1,3.1c.4,1.4,.7,2.6,.8,3.4c.1,-.8,.4,-2,.8,-3.4Z" class="g1_326"/>
<path d="M206.8,105.5v17.8" class="ga_326"/>
<path d="M207.6,125.1c.4,-1.2,.7,-2,1.2,-3.1h-3.9c.2,.4,.8,1.9,1.1,3.1c.4,1.4,.7,2.6,.8,3.4c.1,-.8,.4,-2,.8,-3.4Z" class="g1_326"/>
<path d="M236.5,105.5v17.8" class="ga_326"/>
<path d="M237.3,125.1c.4,-1.2,.7,-2,1.1,-3.1h-3.8c.2,.4,.8,1.9,1.1,3.1c.4,1.4,.7,2.6,.8,3.4c.1,-.8,.4,-2,.8,-3.4Z" class="g1_326"/>
<path d="M266.2,105.5v17.8" class="ga_326"/>
<path d="M267,125.1c.4,-1.2,.7,-2,1.2,-3.1h-3.9c.2,.4,.8,1.9,1.1,3.1c.4,1.4,.7,2.6,.8,3.4c.1,-.8,.4,-2,.8,-3.4Z" class="g1_326"/>
<path d="M295.9,105.5v17.8" class="ga_326"/>
<path d="M296.7,125.1c.4,-1.2,.7,-2,1.2,-3.1H294c.2,.4,.8,1.9,1.1,3.1c.4,1.4,.7,2.6,.8,3.4c.1,-.8,.4,-2,.8,-3.4Z" class="g1_326"/>
<path d="M325.6,105.5v17.8" class="ga_326"/>
<path d="M326.4,125.1c.4,-1.2,.7,-2,1.2,-3.1h-3.9c.2,.4,.8,1.9,1.1,3.1c.4,1.4,.7,2.6,.8,3.4c.1,-.8,.4,-2,.8,-3.4Z" class="g1_326"/>
<path d="M376.6,105.5v17.8" class="ga_326"/>
<path d="M377.4,125.1c.4,-1.2,.7,-2,1.1,-3.1h-3.8c.1,.4,.7,1.9,1.1,3.1c.4,1.4,.7,2.6,.8,3.4c.1,-.8,.4,-2,.8,-3.4Z" class="g1_326"/>
<path d="M236.5,165.2V183" class="ga_326"/>
<path d="M237.3,184.8c.4,-1.2,.7,-2.1,1.1,-3.1h-3.8c.2,.4,.8,1.9,1.1,3.1c.4,1.4,.7,2.6,.8,3.4c.1,-.8,.4,-2,.8,-3.4Z" class="g1_326"/>
<path d="M325.6,165.2V183" class="ga_326"/>
<path d="M326.4,184.8c.4,-1.2,.7,-2.1,1.2,-3.1h-3.9c.2,.4,.8,1.9,1.1,3.1c.4,1.4,.7,2.6,.8,3.4c.1,-.8,.4,-2,.8,-3.4Z" class="g1_326"/>
<path d="M376.6,165.2V183" class="ga_326"/>
<path d="M377.4,184.8c.4,-1.2,.7,-2.1,1.1,-3.1h-3.8c.1,.4,.7,1.9,1.1,3.1c.4,1.4,.7,2.6,.8,3.4c.1,-.8,.4,-2,.8,-3.4Z" class="g1_326"/>
<path d="M376.6,209.2v-21" class="g2_326"/>
<path d="M157.4,686.6H411.8" class="g0_326"/>
<path d="M414.5,685.4c-1.9,-.5,-3.1,-1.1,-4.6,-1.7v5.8c.5,-.3,2.7,-1.1,4.6,-1.7c2,-.6,3.9,-1,5.1,-1.2c-1.2,-.1,-3.1,-.6,-5.1,-1.2Z" class="g1_326"/>
<path d="M376.6,697.1v-21" class="g2_326"/>
<path d="M157.4,790.2H411.8" class="g0_326"/>
<path d="M414.5,789c-1.9,-.6,-3.1,-1.1,-4.6,-1.7v5.8c.5,-.3,2.7,-1.2,4.6,-1.7c2,-.6,3.9,-1.1,5.1,-1.2c-1.2,-.2,-3.1,-.6,-5.1,-1.2Z" class="g1_326"/>
<path d="M172.9,750.6c0,3.4,2.7,6.1,6.1,6.1H386.9c3.4,0,6.1,-2.7,6.1,-6.1V726.7c0,-3.4,-2.7,-6.1,-6.1,-6.1H179c-3.4,0,-6.1,2.7,-6.1,6.1v23.9Z" class="g3_326"/>
<path d="M172.9,750.6c0,3.4,2.7,6.1,6.1,6.1H386.9c3.4,0,6.1,-2.7,6.1,-6.1V726.7c0,-3.4,-2.7,-6.1,-6.1,-6.1H179c-3.4,0,-6.1,2.7,-6.1,6.1v23.9Z" class="g4_326"/>
<path d="M217.3,686.6c0,5.8,-4.7,10.5,-10.5,10.5c-5.8,0,-10.4,-4.7,-10.4,-10.5c0,-5.8,4.6,-10.5,10.4,-10.5c5.8,0,10.5,4.7,10.5,10.5Z" class="g5_326"/>
<path d="M217.3,686.6c0,5.8,-4.7,10.5,-10.5,10.5c-5.8,0,-10.4,-4.7,-10.4,-10.5c0,-5.8,4.6,-10.5,10.4,-10.5c5.8,0,10.5,4.7,10.5,10.5Z" class="g4_326"/>
<path d="M247,686.6c0,5.8,-4.7,10.5,-10.5,10.5c-5.8,0,-10.5,-4.7,-10.5,-10.5c0,-5.8,4.7,-10.5,10.5,-10.5c5.8,0,10.5,4.7,10.5,10.5Z" class="g5_326"/>
<path d="M247,686.6c0,5.8,-4.7,10.5,-10.5,10.5c-5.8,0,-10.5,-4.7,-10.5,-10.5c0,-5.8,4.7,-10.5,10.5,-10.5c5.8,0,10.5,4.7,10.5,10.5Z" class="g4_326"/>
<path d="M276.7,686.6c0,5.8,-4.7,10.5,-10.5,10.5c-5.8,0,-10.5,-4.7,-10.5,-10.5c0,-5.8,4.7,-10.5,10.5,-10.5c5.8,0,10.5,4.7,10.5,10.5Z" class="g5_326"/>
<path d="M276.7,686.6c0,5.8,-4.7,10.5,-10.5,10.5c-5.8,0,-10.5,-4.7,-10.5,-10.5c0,-5.8,4.7,-10.5,10.5,-10.5c5.8,0,10.5,4.7,10.5,10.5Z" class="g4_326"/>
<path d="M306.4,686.6c0,5.8,-4.7,10.5,-10.5,10.5c-5.8,0,-10.5,-4.7,-10.5,-10.5c0,-5.8,4.7,-10.5,10.5,-10.5c5.8,0,10.5,4.7,10.5,10.5Z" class="g5_326"/>
<path d="M306.4,686.6c0,5.8,-4.7,10.5,-10.5,10.5c-5.8,0,-10.5,-4.7,-10.5,-10.5c0,-5.8,4.7,-10.5,10.5,-10.5c5.8,0,10.5,4.7,10.5,10.5Z" class="g4_326"/>
<path d="M206.8,756.7v17.8" class="ga_326"/>
<path d="M207.6,776.3c.4,-1.2,.7,-2.1,1.2,-3.1h-3.9c.2,.4,.8,1.9,1.1,3.1c.4,1.4,.7,2.6,.8,3.4c.1,-.8,.4,-2,.8,-3.4Z" class="g1_326"/>
<path d="M206.8,697.2v17.7" class="ga_326"/>
<path d="M207.6,716.8c.4,-1.3,.7,-2.1,1.2,-3.1h-3.9c.2,.3,.8,1.8,1.1,3.1c.4,1.3,.7,2.5,.8,3.3c.1,-.8,.4,-2,.8,-3.3Z" class="g1_326"/>
<path d="M236.5,697.2v17.7" class="ga_326"/>
<path d="M237.3,716.8c.4,-1.3,.7,-2.1,1.2,-3.1h-3.9c.2,.3,.8,1.8,1.1,3.1c.4,1.3,.7,2.5,.8,3.3c.1,-.8,.4,-2,.8,-3.3Z" class="g1_326"/>
<path d="M266.2,697.2v17.7" class="ga_326"/>
<path d="M267,716.8c.4,-1.3,.7,-2.1,1.2,-3.1h-3.9c.2,.3,.8,1.8,1.1,3.1c.4,1.3,.7,2.5,.8,3.3c.1,-.8,.4,-2,.8,-3.3Z" class="g1_326"/>
<path d="M295.9,697.2v17.7" class="ga_326"/>
<path d="M296.7,716.8c.4,-1.3,.7,-2.1,1.2,-3.1H294c.2,.3,.8,1.8,1.1,3.1c.4,1.3,.7,2.5,.8,3.3c.1,-.8,.4,-2,.8,-3.3Z" class="g1_326"/>
<path d="M376.6,697.2v17.7" class="ga_326"/>
<path d="M377.4,716.8c.4,-1.3,.7,-2.1,1.1,-3.1h-3.8c.1,.3,.7,1.8,1.1,3.1c.4,1.3,.7,2.5,.8,3.3c.1,-.8,.4,-2,.8,-3.3Z" class="g1_326"/>
<path d="M236.5,756.7v17.8" class="ga_326"/>
<path d="M237.3,776.3c.4,-1.2,.7,-2.1,1.2,-3.1h-3.9c.2,.4,.8,1.9,1.1,3.1c.4,1.4,.7,2.6,.8,3.4c.1,-.8,.4,-2,.8,-3.4Z" class="g1_326"/>
<path d="M266.2,756.7v17.8" class="ga_326"/>
<path d="M267,776.3c.4,-1.2,.7,-2.1,1.2,-3.1h-3.9c.2,.4,.8,1.9,1.1,3.1c.4,1.4,.7,2.6,.8,3.4c.1,-.8,.4,-2,.8,-3.4Z" class="g1_326"/>
<path d="M295.9,756.7v17.8" class="ga_326"/>
<path d="M296.7,776.3c.4,-1.2,.7,-2.1,1.2,-3.1H294c.2,.4,.8,1.9,1.1,3.1c.4,1.4,.7,2.6,.8,3.4c.1,-.8,.4,-2,.8,-3.4Z" class="g1_326"/>
<path d="M376.6,756.7v17.8" class="ga_326"/>
<path d="M377.4,776.3c.4,-1.2,.7,-2.1,1.1,-3.1h-3.8c.1,.4,.7,1.9,1.1,3.1c.4,1.4,.7,2.6,.8,3.4c.1,-.8,.4,-2,.8,-3.4Z" class="g1_326"/>
<path d="M376.6,800.7v-21" class="g2_326"/>
<path d="M196.3,800.7h21v-21h-21Z" class="g6_326"/>
<path d="M217.3,800.7h-21v-21h21Z" class="g4_326"/>
<path d="M226,800.7h21v-21H226Z" class="g6_326"/>
<path d="M247,800.7H226v-21h21Z" class="g4_326"/>
<path d="M255.7,800.7h21v-21h-21Z" class="g6_326"/>
<path d="M276.7,800.7h-21v-21h21Z" class="g4_326"/>
<path d="M285.4,800.7h21v-21h-21Z" class="g6_326"/>
<path d="M306.4,800.7h-21v-21h21Z" class="g4_326"/>
<path d="M282.3,738.6h15" class="ga_326"/>
<path d="M299.1,737.9c-1.2,-.4,-2,-.8,-3.1,-1.2v3.9c.4,-.2,1.9,-.8,3.1,-1.2c1.4,-.4,2.6,-.7,3.4,-.8c-.8,-.1,-2,-.3,-3.4,-.7Z" class="g1_326"/>
<path d="M282.3,738.6c0,4.1,-3.3,7.4,-7.3,7.4c-4.1,0,-7.3,-3.3,-7.3,-7.4c0,-4,3.2,-7.3,7.3,-7.3c4,0,7.3,3.3,7.3,7.3Z" class="g5_326"/>
<path d="M282.3,738.6c0,4.1,-3.3,7.4,-7.3,7.4c-4.1,0,-7.3,-3.3,-7.3,-7.4c0,-4,3.2,-7.3,7.3,-7.3c4,0,7.3,3.3,7.3,7.3Z" class="g4_326"/>
<path d="M303.6,746h14.6V731.3H303.6Z" class="g6_326"/>
<path d="M318.2,746H303.6V731.3h14.6Z" class="g4_326"/>
</svg>