<?xml version="1.0" encoding="UTF-8" standalone="no"?>
<!DOCTYPE svg PUBLIC "-//W3C//DTD SVG 1.1//EN"
"http://www.w3.org/Graphics/SVG/1.1/DTD/svg11.dtd">
<svg viewBox="0 0 931 1096" version="1.1" xmlns="http://www.w3.org/2000/svg" xmlns:xlink="http://www.w3.org/1999/xlink">
<defs>
<clipPath id="c0_382"><path d="M707.9,649.8c-2.8,0,-5.1,-2.3,-5.1,-5.1c0,-2.9,2.3,-5.2,5.1,-5.2c2.9,0,5.2,2.3,5.2,5.2c0,2.8,-2.3,5.1,-5.2,5.1Z"/></clipPath>
<clipPath id="c1_382"><path d="M623.3,658.6l.1,-7.7l-7.3,4.3l3.8,-6.2h-9.3l9.3,-4.4l-5.8,-7.5l8.7,2.9l-3.6,-8.4l6.5,4.8l2.7,-6.5l1.4,6.8l6.5,-6.1l-2.7,8.2l8.9,-.4l-8.9,5.5l6.6,5.6l-7.7,1.1l.4,6.3l-5.8,-4.1l-3.8,5.8Z"/></clipPath>
<clipPath id="c2_382"><path d="M627.4,652.8c-4.5,0,-8.2,-3.7,-8.2,-8.2c0,-4.6,3.7,-8.2,8.2,-8.2c4.5,0,8.2,3.6,8.2,8.2c0,4.5,-3.7,8.2,-8.2,8.2Z"/></clipPath>
<clipPath id="c3_382"><path d="M520.3,710.2V568.3H760V710.2Z"/></clipPath>
<clipPath id="c4_382"><path d="M52,823V789.3H825V823Z"/></clipPath>
<style type="text/css"><![CDATA[
.g0_382{
fill: #241F1F;
}
.g1_382{
fill: none;
stroke: #241F1F;
stroke-width: 0.771;
stroke-miterlimit: 3;
}
.g2_382{
fill: #00AEEF;
}
.g3_382{
fill: #00BCF2;
}
.g4_382{
fill: #4ACAF5;
}
.g5_382{
fill: #95DAF8;
}
.g6_382{
fill: #CFEDFC;
}
.g7_382{
fill: #FFDB7F;
}
.g8_382{
fill: #FFDD86;
}
.g9_382{
fill: #FFDF8D;
}
.ga_382{
fill: #FFE193;
}
.gb_382{
fill: #FFE39C;
}
.gc_382{
fill: #FFE6A4;
}
.gd_382{
fill: #FFE8AC;
}
.ge_382{
fill: #FFEBB4;
}
.gf_382{
fill: #FFEDBC;
}
.gg_382{
fill: #FFEFC4;
}
.gh_382{
fill: #FFF1CB;
}
.gi_382{
fill: #FFF4D4;
}
.gj_382{
fill: #FFDE8A;
}
.gk_382{
fill: #FFE295;
}
.gl_382{
fill: #FFE5A1;
}
.gm_382{
fill: #FFE9AE;
}
.gn_382{
fill: #FFECBA;
}
.go_382{
fill: #FFF0C7;
}
.gp_382{
fill: none;
stroke: #241F1F;
stroke-width: 0.617;
stroke-miterlimit: 3;
}
.gq_382{
fill: none;
stroke: #EE008C;
stroke-width: 0.919;
stroke-linejoin: round;
}
.gr_382{
fill: none;
stroke: #00AEEF;
stroke-width: 0.919;
stroke-linejoin: round;
}
.gs_382{
fill: none;
stroke: #241F1F;
stroke-width: 0.687;
stroke-miterlimit: 10;
}
.gt_382{
fill: #FFF;
}
.gu_382{
fill: none;
stroke: #00AEEF;
stroke-width: 0.763;
}
]]></style>
</defs>
<path d="M666.5,583c0,-1.1,.8,-1.9,1.9,-1.9c1.1,0,1.9,.8,1.9,1.9c0,1.1,-.8,1.9,-1.9,1.9c-1.1,0,-1.9,-.8,-1.9,-1.9Z" class="g0_382"/>
<path d="M666.5,583c0,-1.1,.8,-1.9,1.9,-1.9c1.1,0,1.9,.8,1.9,1.9c0,1.1,-.8,1.9,-1.9,1.9c-1.1,0,-1.9,-.8,-1.9,-1.9Z" class="g1_382"/>
<path d="M666.5,705.2c0,-1.1,.8,-2,1.9,-2c1.1,0,1.9,.9,1.9,2c0,1,-.8,1.9,-1.9,1.9c-1.1,0,-1.9,-.9,-1.9,-1.9Z" class="g0_382"/>
<path d="M666.5,705.2c0,-1.1,.8,-2,1.9,-2c1.1,0,1.9,.9,1.9,2c0,1,-.8,1.9,-1.9,1.9c-1.1,0,-1.9,-.9,-1.9,-1.9Z" class="g1_382"/>
<g clip-path="url(#c0_382)">
<path d="M713,644.4v0c0,3.2,-2.6,5.8,-5.8,5.8c-3.2,0,-5.8,-2.6,-5.8,-5.8c0,-3.2,2.6,-5.8,5.8,-5.8c3.2,0,5.8,2.6,5.8,5.8m1.7,0c0,-4.2,-3.4,-7.5,-7.5,-7.5c-4.1,0,-7.4,3.3,-7.4,7.5c0,4.1,3.3,7.4,7.4,7.4c4.1,0,7.5,-3.3,7.5,-7.4Z" class="g2_382"/>
<path d="M711.3,644.4v0c0,2.3,-1.8,4.2,-4.1,4.2c-2.3,0,-4.1,-1.9,-4.1,-4.2c0,-2.2,1.8,-4.1,4.1,-4.1c2.3,0,4.1,1.9,4.1,4.1m1.7,.2c0,-3.2,-2.6,-5.8,-5.8,-5.8c-3.2,0,-5.8,2.6,-5.8,5.8c0,3.2,2.6,5.8,5.8,5.8c3.2,0,5.8,-2.6,5.8,-5.8Z" class="g3_382"/>
<path d="M709.7,644.4v0c0,1.4,-1.1,2.5,-2.5,2.5c-1.4,0,-2.5,-1.1,-2.5,-2.5c0,-1.3,1.1,-2.4,2.5,-2.4c1.4,0,2.5,1.1,2.5,2.4m1.6,0c0,-2.3,-1.8,-4.2,-4.1,-4.2c-2.3,0,-4.1,1.9,-4.1,4.2c0,2.2,1.8,4.1,4.1,4.1c2.3,0,4.1,-1.9,4.1,-4.1Z" class="g4_382"/>
<path d="M708,644.4v0c0,.5,-.3,.9,-.8,.9c-.4,0,-.8,-.4,-.8,-.9c0,-.4,.4,-.8,.8,-.8c.5,0,.8,.4,.8,.8m1.7,0c0,-1.4,-1.1,-2.5,-2.5,-2.5c-1.4,0,-2.5,1.1,-2.5,2.5c0,1.3,1.1,2.5,2.5,2.5c1.4,0,2.5,-1.2,2.5,-2.5Z" class="g5_382"/>
<path d="M708,644.4c0,-.5,-.3,-.9,-.8,-.9c-.4,0,-.8,.4,-.8,.9c0,.4,.4,.8,.8,.8c.5,0,.8,-.4,.8,-.8Z" class="g6_382"/>
</g>
<g clip-path="url(#c1_382)">
<path d="M647.6,644.9v0c0,10.1,-8.2,18.3,-18.3,18.3c-10.1,0,-18.2,-8.2,-18.2,-18.3c0,-10.1,8.1,-18.3,18.2,-18.3c10.1,0,18.3,8.2,18.3,18.3m1.7,0c0,-11,-9,-20,-20.1,-20c-11,0,-20,9,-20,20c0,11.1,9,20,20,20c11.1,0,20.1,-8.9,20.1,-20Z" class="g7_382"/>
<path d="M645.9,644.9v0c0,9.2,-7.4,16.6,-16.6,16.6c-9.1,0,-16.5,-7.4,-16.5,-16.6c0,-9.1,7.4,-16.5,16.5,-16.5c9.2,0,16.6,7.4,16.6,16.5m1.8,0c0,-10.1,-8.2,-18.3,-18.3,-18.3c-10.1,0,-18.2,8.2,-18.2,18.3c0,10.1,8.1,18.3,18.2,18.3c10.1,0,18.3,-8.2,18.3,-18.3Z" class="g8_382"/>
<path d="M644.1,644.9v0c0,8.2,-6.6,14.8,-14.8,14.8c-8.1,0,-14.8,-6.6,-14.8,-14.8c0,-8.1,6.7,-14.8,14.8,-14.8c8.2,0,14.8,6.7,14.8,14.8m1.9,0c0,-9.1,-7.4,-16.5,-16.6,-16.5c-9.1,0,-16.5,7.4,-16.5,16.5c0,9.2,7.4,16.6,16.5,16.6c9.2,0,16.6,-7.4,16.6,-16.6Z" class="g9_382"/>
<path d="M642.4,644.9v0c0,7.2,-5.9,13.1,-13.1,13.1c-7.2,0,-13,-5.9,-13,-13.1c0,-7.2,5.8,-13,13,-13c7.2,0,13.1,5.8,13.1,13m1.7,0c0,-8.1,-6.7,-14.8,-14.9,-14.8c-8.1,0,-14.7,6.7,-14.7,14.8c0,8.2,6.6,14.8,14.7,14.8c8.2,0,14.9,-6.6,14.9,-14.8Z" class="ga_382"/>
<path d="M640.6,644.9v0c0,6.3,-5,11.3,-11.3,11.3c-6.2,0,-11.3,-5,-11.3,-11.3c0,-6.2,5.1,-11.3,11.3,-11.3c6.3,0,11.3,5.1,11.3,11.3m1.7,0c0,-7.2,-5.8,-13,-13.1,-13c-7.1,0,-13,5.8,-13,13c0,7.2,5.9,13.1,13,13.1c7.3,0,13.1,-5.9,13.1,-13.1Z" class="gb_382"/>
<path d="M638.9,644.9v0c0,5.3,-4.3,9.6,-9.6,9.6c-5.2,0,-9.5,-4.3,-9.5,-9.6c0,-5.3,4.3,-9.5,9.5,-9.5c5.3,0,9.6,4.2,9.6,9.5m1.8,0c0,-6.2,-5,-11.3,-11.3,-11.3c-6.2,0,-11.3,5.1,-11.3,11.3c0,6.3,5.1,11.3,11.3,11.3c6.3,0,11.3,-5,11.3,-11.3Z" class="gc_382"/>
<path d="M637.2,644.9v0c0,4.3,-3.6,7.9,-7.9,7.9c-4.3,0,-7.8,-3.6,-7.8,-7.9c0,-4.3,3.5,-7.8,7.8,-7.8c4.3,0,7.9,3.5,7.9,7.8m1.6,0c0,-5.3,-4.3,-9.5,-9.6,-9.5c-5.2,0,-9.5,4.2,-9.5,9.5c0,5.3,4.3,9.6,9.5,9.6c5.3,0,9.6,-4.3,9.6,-9.6Z" class="gd_382"/>
<path d="M635.4,644.9v0c0,3.4,-2.7,6.1,-6.1,6.1c-3.3,0,-6.1,-2.7,-6.1,-6.1c0,-3.3,2.8,-6.1,6.1,-6.1c3.4,0,6.1,2.8,6.1,6.1m1.7,0c0,-4.3,-3.5,-7.8,-7.9,-7.8c-4.3,0,-7.8,3.5,-7.8,7.8c0,4.3,3.5,7.9,7.8,7.9c4.4,0,7.9,-3.6,7.9,-7.9Z" class="ge_382"/>
<path d="M633.7,644.9v0c0,2.4,-2,4.4,-4.4,4.4c-2.4,0,-4.3,-2,-4.3,-4.4c0,-2.4,1.9,-4.3,4.3,-4.3c2.4,0,4.4,1.9,4.4,4.3m1.8,0c0,-3.3,-2.7,-6.1,-6.1,-6.1c-3.3,0,-6.1,2.8,-6.1,6.1c0,3.4,2.8,6.1,6.1,6.1c3.4,0,6.1,-2.7,6.1,-6.1Z" class="gf_382"/>
<path d="M631.9,644.9v0c0,1.5,-1.1,2.6,-2.6,2.6c-1.4,0,-2.6,-1.1,-2.6,-2.6c0,-1.4,1.2,-2.6,2.6,-2.6c1.5,0,2.6,1.2,2.6,2.6m1.7,0c0,-2.4,-2,-4.3,-4.4,-4.3c-2.4,0,-4.3,1.9,-4.3,4.3c0,2.4,1.9,4.4,4.3,4.4c2.4,0,4.4,-2,4.4,-4.4Z" class="gg_382"/>
<path d="M630.2,644.9v0c0,.5,-.4,.9,-.9,.9c-.5,0,-.8,-.4,-.8,-.9c0,-.5,.3,-.9,.8,-.9c.5,0,.9,.4,.9,.9m1.7,0c0,-1.4,-1.2,-2.6,-2.7,-2.6c-1.4,0,-2.6,1.2,-2.6,2.6c0,1.5,1.2,2.6,2.6,2.6c1.5,0,2.7,-1.1,2.7,-2.6Z" class="gh_382"/>
<path d="M630.3,644.9c0,-.5,-.4,-.9,-.9,-.9c-.4,0,-.8,.4,-.8,.9c0,.5,.4,.9,.8,.9c.5,0,.9,-.4,.9,-.9Z" class="gi_382"/>
</g>
<g clip-path="url(#c2_382)">
<path d="M636.8,642.6v0c0,6.1,-5,11.1,-11.1,11.1c-6.1,0,-11.1,-5,-11.1,-11.1c0,-6.1,5,-11,11.1,-11c6.1,0,11.1,4.9,11.1,11m1.7,.1c0,-7.1,-5.7,-12.8,-12.8,-12.8c-7,0,-12.7,5.7,-12.7,12.8c0,7.1,5.7,12.8,12.7,12.8c7.1,0,12.8,-5.7,12.8,-12.8Z" class="g7_382"/>
<path d="M635.1,642.6v0c0,5.2,-4.2,9.4,-9.4,9.4c-5.2,0,-9.3,-4.2,-9.3,-9.4c0,-5.2,4.1,-9.4,9.3,-9.4c5.2,0,9.4,4.2,9.4,9.4m1.7,-.1c0,-6.1,-5,-11.1,-11.1,-11.1c-6.1,0,-11,5,-11,11.1c0,6.1,4.9,11.1,11,11.1c6.1,0,11.1,-5,11.1,-11.1Z" class="gj_382"/>
<path d="M633.4,642.6v0c0,4.3,-3.5,7.7,-7.7,7.7c-4.2,0,-7.7,-3.4,-7.7,-7.7c0,-4.2,3.5,-7.6,7.7,-7.6c4.2,0,7.7,3.4,7.7,7.6m1.7,.1c0,-5.2,-4.2,-9.4,-9.4,-9.4c-5.1,0,-9.3,4.2,-9.3,9.4c0,5.2,4.2,9.4,9.3,9.4c5.2,0,9.4,-4.2,9.4,-9.4Z" class="gk_382"/>
<path d="M631.7,642.6v0c0,3.3,-2.7,6,-6,6c-3.3,0,-5.9,-2.7,-5.9,-6c0,-3.3,2.6,-5.9,5.9,-5.9c3.3,0,6,2.6,6,5.9m1.7,.1c0,-4.2,-3.4,-7.7,-7.7,-7.7c-4.2,0,-7.6,3.5,-7.6,7.7c0,4.2,3.4,7.7,7.6,7.7c4.3,0,7.7,-3.5,7.7,-7.7Z" class="gl_382"/>
<path d="M630,642.6v0c0,2.4,-1.9,4.3,-4.3,4.3c-2.3,0,-4.2,-1.9,-4.2,-4.3c0,-2.3,1.9,-4.2,4.2,-4.2c2.4,0,4.3,1.9,4.3,4.2m1.7,-.1c0,-3.3,-2.7,-6,-6,-6c-3.3,0,-5.9,2.7,-5.9,6c0,3.3,2.6,6,5.9,6c3.3,0,6,-2.7,6,-6Z" class="gm_382"/>
<path d="M628.3,642.6v0c0,1.4,-1.2,2.6,-2.6,2.6c-1.4,0,-2.5,-1.2,-2.5,-2.6c0,-1.4,1.1,-2.5,2.5,-2.5c1.4,0,2.6,1.1,2.6,2.5m1.7,.1c0,-2.3,-1.9,-4.3,-4.3,-4.3c-2.3,0,-4.2,2,-4.2,4.3c0,2.4,1.9,4.3,4.2,4.3c2.4,0,4.3,-1.9,4.3,-4.3Z" class="gn_382"/>
<path d="M626.6,642.6v0c0,.5,-.4,.9,-.9,.9c-.5,0,-.8,-.4,-.8,-.9c0,-.4,.3,-.8,.8,-.8c.5,0,.9,.4,.9,.8m1.7,-.1c0,-1.4,-1.2,-2.5,-2.6,-2.5c-1.4,0,-2.5,1.1,-2.5,2.5c0,1.4,1.1,2.6,2.5,2.6c1.4,0,2.6,-1.2,2.6,-2.6Z" class="go_382"/>
<path d="M626.6,642.7c0,-.5,-.4,-.9,-.9,-.9c-.4,0,-.8,.4,-.8,.9c0,.5,.4,.9,.8,.9c.5,0,.9,-.4,.9,-.9Z" class="gi_382"/>
</g>
<path d="M520.3,644.5H755.1" class="gp_382"/>
<path clip-path="url(#c3_382)" fill-rule="evenodd" d="M755.1,644.5L753.4,642l6.6,2.5l-6.6,2.5Z" class="g0_382"/>
<path d="M627.4,710.2V577.5" class="gp_382"/>
<path fill-rule="evenodd" d="M627.4,577.5l-2.5,1.7l2.5,-6.6l2.4,6.6Z" class="g0_382"/>
<path d="M546.3,644.4c0,-1,.9,-1.9,2,-1.9c1,0,1.9,.9,1.9,1.9c0,1.1,-.9,2,-1.9,2c-1.1,0,-2,-.9,-2,-2Z" class="g0_382"/>
<path d="M546.3,644.4c0,-1,.9,-1.9,2,-1.9c1,0,1.9,.9,1.9,1.9c0,1.1,-.9,2,-1.9,2c-1.1,0,-2,-.9,-2,-2Z" class="g1_382"/>
<path d="M730.7,644.7c0,-1.1,.8,-1.9,1.9,-1.9c1.1,0,1.9,.8,1.9,1.9c0,1,-.8,1.9,-1.9,1.9c-1.1,0,-1.9,-.9,-1.9,-1.9Z" class="g0_382"/>
<path d="M730.7,644.7c0,-1.1,.8,-1.9,1.9,-1.9c1.1,0,1.9,.8,1.9,1.9c0,1,-.8,1.9,-1.9,1.9c-1.1,0,-1.9,-.9,-1.9,-1.9Z" class="g1_382"/>
<path d="M681.4,644.7c0,-1.1,.8,-1.9,1.9,-1.9c1.1,0,1.9,.8,1.9,1.9c0,1,-.8,1.9,-1.9,1.9c-1.1,0,-1.9,-.9,-1.9,-1.9Z" class="g0_382"/>
<path d="M681.4,644.7c0,-1.1,.8,-1.9,1.9,-1.9c1.1,0,1.9,.8,1.9,1.9c0,1,-.8,1.9,-1.9,1.9c-1.1,0,-1.9,-.9,-1.9,-1.9Z" class="g1_382"/>
<path d="M175.5,495.2c0,-30.8,25,-55.8,55.9,-55.8c30.8,0,55.8,25,55.8,55.8c0,30.9,-25,55.9,-55.8,55.9c-30.9,0,-55.9,-25,-55.9,-55.9Z" class="gq_382"/>
<path d="M187.4,462.1h87.9l-43.9,33.1l-44,-33.1Z" class="gr_382"/>
<path d="M193.6,694h12.5" class="gs_382"/>
<image clip-path="url(#c4_382)" preserveAspectRatio="none" x="52" y="789" width="773" height="34" xlink:href="img/1.png"/>
<path d="M290.7,976.2c0,0,-3.1,0,-3.1,3v52.7c0,0,0,3.1,3.1,3.1H820.1c0,0,3,0,3,-3.1V979.2c0,0,0,-3,-3,-3Z" class="gt_382"/>
<path d="M290.7,976.2c0,0,-3.1,0,-3.1,3v52.7c0,0,0,3.1,3.1,3.1H820.1c0,0,3,0,3,-3.1V979.2c0,0,0,-3,-3,-3H290.7Z" class="gu_382"/>
</svg>