<?xml version="1.0" encoding="UTF-8" standalone="no"?>
<!DOCTYPE svg PUBLIC "-//W3C//DTD SVG 1.1//EN"
"http://www.w3.org/Graphics/SVG/1.1/DTD/svg11.dtd">
<svg viewBox="0 0 811 1017" version="1.1" xmlns="http://www.w3.org/2000/svg" xmlns:xlink="http://www.w3.org/1999/xlink">
<defs>
<style type="text/css"><![CDATA[
.g0_486{
fill: #70A6CC;
}
.g1_486{
}
]]></style>
</defs>
<path d="M142.4,102.4H710.7V80.6H142.4Z" class="g0_486"/>
<path d="M142.4,433.8H710.7V412H142.4Z" class="g0_486"/>
<path d="M482.9,183.5v3.2l-.3,-.1l-6.3,-2.9l-.4,-.2l.4,-.2l6.3,-2.9l.3,-.1v.3l-.1,.2l-6.3,2.9l-.2,-.4h.2l6.3,3l-.2,.3l-.1,-.2v-2.9Z" class="g1_486"/>
<path d="M482.5,183.5h.4v-2.9h-.4Z" class="g1_486"/>
<path d="M482.9,183.7h18.7v-.4H482.9Z" class="g1_486"/>
<path d="M501.2,183.5h.4V144.8h-.4Z" class="g1_486"/>
<path d="M482.9,546.4v3.2l-.3,-.1l-6.3,-2.9l-.4,-.2l.4,-.2l6.3,-2.9l.3,-.1v.3l-.1,.2l-6.3,2.9l-.2,-.4h.2l6.3,3l-.2,.3l-.1,-.1v-3Z" class="g1_486"/>
<path d="M482.5,546.4h.4v-2.9h-.4Z" class="g1_486"/>
<path d="M482.9,546.6h18.7v-.4H482.9Z" class="g1_486"/>
<path d="M501.2,546.4h.4V507.7h-.4Z" class="g1_486"/>
<path d="M469.1,639.9v3.2l-.2,-.1l-6.3,-2.9l-.4,-.2l.4,-.2l6.3,-2.9l.2,-.1v.5l-6.4,2.9l-.1,-.4h.1l6.4,3l-.2,.3l-.1,-.1v-3Z" class="g1_486"/>
<path d="M468.8,639.9h.3V637h-.3Z" class="g1_486"/>
<path d="M469.1,640.1h18.8v-.4H469.1Z" class="g1_486"/>
<path d="M487.5,639.9h.4V615.8h-.4Z" class="g1_486"/>
<path d="M485.2,702.3v3.2l-.3,-.1l-6.3,-3l-.4,-.1l.4,-.2l6.3,-3h.3v.2l-.1,.2l-6.3,2.9l-.2,-.3h.2l6.3,2.9l-.2,.4l-.1,-.2v-2.9Z" class="g1_486"/>
<path d="M484.8,702.3h.4v-3h-.4Z" class="g1_486"/>
<path d="M485.2,702.4h18.7v-.3H485.2Z" class="g1_486"/>
<path d="M503.5,702.3h.4V678.2h-.4Z" class="g1_486"/>
</svg>