<?xml version="1.0" encoding="UTF-8" standalone="no"?>
<!DOCTYPE svg PUBLIC "-//W3C//DTD SVG 1.1//EN"
"http://www.w3.org/Graphics/SVG/1.1/DTD/svg11.dtd">
<svg viewBox="0 0 811 1017" version="1.1" xmlns="http://www.w3.org/2000/svg" xmlns:xlink="http://www.w3.org/1999/xlink">
<defs>
<style type="text/css"><![CDATA[
.g0_410{
fill: #70A6CC;
}
.g1_410{
}
]]></style>
</defs>
<path d="M142.4,702.9H710.7V681.7H142.4Z" class="g0_410"/>
<path d="M315.6,740.7v3.2l-.3,-.1L309,740.9l-.4,-.2l.4,-.2l6.3,-3h.3v.2l-.1,.2l-6.3,3l-.2,-.4h.2l6.3,2.9l-.2,.4l-.1,-.2v-2.9Z" class="g1_410"/>
<path d="M315.2,740.7h.4v-3h-.4Z" class="g1_410"/>
<path d="M315.6,740.9h18.7v-.4H315.6Z" class="g1_410"/>
<path d="M333.9,740.7h.4V716.6h-.4Z" class="g1_410"/>
<path d="M493.2,756.3v3.2l-.3,-.1l-6.2,-3l-.4,-.1l.4,-.2l6.2,-3l.3,-.1v.3l-.1,.2l-6.3,2.9l-.1,-.3h.1l6.3,2.9l-.2,.4l-.1,-.2v-2.9Z" class="g1_410"/>
<path d="M492.8,756.3h.4v-3h-.4Z" class="g1_410"/>
<path d="M493.2,756.4h18.7v-.3H493.2Z" class="g1_410"/>
<path d="M511.5,756.3h.4V732.1h-.4Z" class="g1_410"/>
<path d="M358.9,772.3v3.2l-.3,-.1l-6.2,-2.9l-.4,-.2l.4,-.2l6.2,-2.9l.3,-.1v.3l-.1,.1l-6.3,3l-.1,-.4h.1l6.3,2.9l-.2,.4l-.1,-.2v-2.9Z" class="g1_410"/>
<path d="M358.5,772.3h.4v-2.9h-.4Z" class="g1_410"/>
<path d="M378.1,797.2h.4V772.1h-.4Z" class="g1_410"/>
<path d="M358.9,772.5h19.4v-.4H358.9Z" class="g1_410"/>
<path d="M508.1,818.6v3.2l-.3,-.1l-6.3,-2.9l-.4,-.2l.4,-.2l6.3,-2.9l.3,-.1v.3l-.1,.1l-6.3,3l-.2,-.4h.2l6.3,2.9l-.2,.4l-.1,-.2v-2.9Z" class="g1_410"/>
<path d="M507.7,818.6h.4v-2.9h-.4Z" class="g1_410"/>
<path d="M508.1,818.8h18.7v-.4H508.1Z" class="g1_410"/>
<path d="M526.4,818.6h.4V794.5h-.4Z" class="g1_410"/>
<path d="M446,834.6v3.2l-.3,-.1l-6.2,-2.9l-.4,-.2l.4,-.2l6.2,-2.9l.3,-.1v.3l-.1,.2l-6.3,2.9l-.1,-.4h.1l6.3,3l-.2,.3l-.1,-.1v-3Z" class="g1_410"/>
<path d="M445.6,834.6h.4v-2.9h-.4Z" class="g1_410"/>
<path d="M465.2,859.6h.4V834.4h-.4Z" class="g1_410"/>
<path d="M446,834.8h19.4v-.4H446Z" class="g1_410"/>
<path d="M290.1,850.2v3.2l-.2,-.1l-6.3,-2.9l-.4,-.2l.4,-.2l6.3,-2.9l.2,-.1v.3l-.1,.2l-6.2,2.9l-.2,-.4h.2l6.2,3l-.1,.3l-.1,-.2v-2.9Z" class="g1_410"/>
<path d="M289.8,850.2h.3v-2.9h-.3Z" class="g1_410"/>
<path d="M309.4,875.1h.3V850h-.3Z" class="g1_410"/>
<path d="M290.1,850.4h19.5V850H290.1Z" class="g1_410"/>
</svg>