<?xml version="1.0" encoding="UTF-8" standalone="no"?>
<!DOCTYPE svg PUBLIC "-//W3C//DTD SVG 1.1//EN"
"http://www.w3.org/Graphics/SVG/1.1/DTD/svg11.dtd">
<svg viewBox="0 0 907 1045" version="1.1" xmlns="http://www.w3.org/2000/svg" xmlns:xlink="http://www.w3.org/1999/xlink">
<defs>
<clipPath id="c0_259"><path d="M586.6,241.1V105.4H816.7V241.1Z"/></clipPath>
<clipPath id="c1_259"><path d="M-2.6,1047.7V-2.6H910.2V1047.7Z"/></clipPath>
<style type="text/css"><![CDATA[
.g0_259{
fill: #D9D9D9;
}
.g1_259{
fill: none;
stroke: #4D4D4D;
stroke-width: 1.527;
stroke-linecap: butt;
stroke-linejoin: miter;
stroke-miterlimit: 4;
}
.g2_259{
fill: #FFFFFF;
}
.g3_259{
fill: none;
stroke: #000000;
stroke-width: 1.527;
stroke-linecap: butt;
stroke-linejoin: miter;
stroke-miterlimit: 4;
}
.g4_259{
fill: none;
stroke: #FFFFFF;
stroke-width: 1.909;
stroke-linecap: butt;
stroke-linejoin: miter;
}
.g5_259{
fill: none;
stroke: #000000;
stroke-width: 0.381;
stroke-linecap: butt;
stroke-linejoin: miter;
}
]]></style>
</defs>
<path d="M118.8,517.1V703.2H521.5V517.1H118.8Z" class="g0_259"/>
<path d="M152.3,454v19.1H438.9V454H152.3Z" class="g0_259"/>
<path d="M122.8,336.5v18.2H250.4V336.5H122.8Z" class="g0_259"/>
<image clip-path="url(#c0_259)" preserveAspectRatio="none" x="587" y="105" width="230" height="136" xlink:href="img/1.jpg"/>
<path d="M573.4,330.4c-5.2,-1,-11.7,-1.6,-16.9,-.7c-9.7,1.8,-18,7.8,-26.6,12.1c-4.3,2.1,-8.5,3.9,-13.4,3.8c-2.6,0,-6.1,-.6,-8.6,.3c-.6,-2.2,3.8,-4,4.9,-5.7c-1.4,2.2,-3.7,4.2,-5.6,5.9c-.7,.6,-4.1,2.5,-4.1,3.6c.1,1.5,5.5,1.3,6.6,2.8m48,81.5C551,431.6,544.2,430.5,537,430.8c-1.8,0,-3.5,.1,-5.2,.3c-9.4,.8,-21.5,2.3,-29.4,7.7c-5.6,3.4,-8.9,8.2,-10,14.6c-.3,3.9,-2.2,6.6,-5.8,8.1c-4,1.5,-6.9,-.6,-10.6,-.8c1.6,-.8,2.8,-2.8,3.9,-4.3c-3.3,1.3,-7.9,3.7,-10,6.6c2.4,2,6.1,1.6,8.1,4.5m98.1,133.4c-4.8,.2,-9.6,.7,-14.4,1c-1.6,.1,-13.4,1.6,-14,.1c3.4,-.7,6.6,-1.7,9.2,-4.2c-1.9,-.3,-14.4,2.4,-12.9,6.2c.3,.9,3.8,1.5,4.3,1.7c1.3,.4,4,.7,4.9,2" class="g1_259"/>
<path d="M130.3,791.6v59.8H364.7V791.6H130.3Z" class="g2_259"/>
<path d="M128.9,776.6v144H775.2v-144H128.9Z" class="g3_259"/>
<path d="M126.7,762.9v59.8H330.4V762.9H126.7Z" class="g2_259"/>
<g clip-path="url(#c1_259)">
<path d="M-4.5,13.7H-27.4m939.5,0H935M-4.5,1031.2H-27.4m939.5,0H935M13.7,-4.5V-27.4m0,1077v22.9m880,-1077V-27.4m0,1077v22.9" class="g4_259"/>
<path d="M-4.5,13.7H-27.4m939.5,0H935M-4.5,1031.2H-27.4m939.5,0H935M13.7,-4.5V-27.4m0,1077v22.9m880,-1077V-27.4m0,1077v22.9" class="g5_259"/>
</g>
</svg>