<?xml version="1.0" encoding="UTF-8" standalone="no"?>
<!DOCTYPE svg PUBLIC "-//W3C//DTD SVG 1.1//EN"
"http://www.w3.org/Graphics/SVG/1.1/DTD/svg11.dtd">
<svg viewBox="0 0 811 1017" version="1.1" xmlns="http://www.w3.org/2000/svg" xmlns:xlink="http://www.w3.org/1999/xlink">
<defs>
<style type="text/css"><![CDATA[
.g0_287{
fill: none;
stroke: #222326;
stroke-width: 0.763;
}
.g1_287{
fill: #211E1E;
}
.g2_287{
fill: #C6EAFA;
}
.g3_287{
fill: #E4F2E8;
}
.g4_287{
fill: none;
stroke: #78797A;
stroke-width: 0.763;
}
.g5_287{
fill: #78797A;
}
.g6_287{
fill: none;
stroke: #222326;
stroke-width: 0.763;
stroke-dasharray: 4,4;
}
.g7_287{
fill: #222326;
}
.g8_287{
fill: #FFF;
}
]]></style>
</defs>
<path d="M142.5,845.2h45.1" class="g0_287"/>
<path d="M189.4,844.4c-1.3,-.4,-2.1,-.7,-3.1,-1.1v3.8c.3,-.1,1.8,-.7,3.1,-1.1c1.3,-.4,2.5,-.7,3.3,-.8c-.8,-.1,-2,-.4,-3.3,-.8Z" class="g1_287"/>
<path d="M155.8,841.5h8.3v-8.2h-8.3Z" class="g2_287"/>
<path d="M164.1,841.5h-8.3v-8.2h8.3Z" class="g0_287"/>
<path d="M194,872.4h88.2V818H194Z" class="g3_287"/>
<path d="M282.2,872.4H194V818h88.2Z" class="g0_287"/>
<path d="M203.8,845.2h10" class="g4_287"/>
<path d="M215.6,844.4c-1.3,-.4,-2.1,-.7,-3.1,-1.1v3.8c.4,-.1,1.8,-.7,3.1,-1.1c1.4,-.4,2.6,-.7,3.4,-.8c-.8,-.1,-2,-.4,-3.4,-.8Z" class="g5_287"/>
<path d="M286.3,796l-16.6,39.5" class="g6_287"/>
<path d="M269.8,837.4c.8,-1,1.4,-1.6,2.2,-2.4l-3.5,-1.5c0,.4,-.1,2,-.2,3.3c-.1,1.4,-.4,2.7,-.6,3.4c.4,-.6,1.2,-1.7,2.1,-2.8Z" class="g1_287"/>
<path d="M225.2,839.9l5.2,5.2l-5.2,5.2l-5.1,-5.2l5.1,-5.2Z" class="g7_287"/>
<path d="M225.2,839.9l5.2,5.2l-5.2,5.2l-5.1,-5.2l5.1,-5.2Z" class="g0_287"/>
<path d="M266,839.9l5.2,5.2l-5.2,5.2l-5.2,-5.2l5.2,-5.2Z" class="g8_287"/>
<path d="M230.4,845.2h23.9M266,839.9l5.2,5.2l-5.2,5.2l-5.2,-5.2l5.2,-5.2Z" class="g0_287"/>
<path d="M256.1,844.4c-1.3,-.4,-2.1,-.7,-3.1,-1.1v3.8c.3,-.1,1.8,-.7,3.1,-1.1c1.3,-.4,2.5,-.7,3.3,-.8c-.8,-.1,-2,-.4,-3.3,-.8Z" class="g1_287"/>
</svg>