<?xml version="1.0" encoding="UTF-8" standalone="no"?>
<!DOCTYPE svg PUBLIC "-//W3C//DTD SVG 1.1//EN"
"http://www.w3.org/Graphics/SVG/1.1/DTD/svg11.dtd">
<svg viewBox="0 0 907 1045" version="1.1" xmlns="http://www.w3.org/2000/svg" xmlns:xlink="http://www.w3.org/1999/xlink">
<defs>
<clipPath id="c0_420"><path d="M91.3,216.3V108h74.2V216.3Z"/></clipPath>
<clipPath id="c1_420"><path d="M103.6,294.4V226.2H350.4v68.2Z"/></clipPath>
<clipPath id="c2_420"><path d="M104.9,336.7V296.3H460.1v40.4Z"/></clipPath>
<clipPath id="c3_420"><path d="M140.2,382.9V339.8h165v43.1H292.1l.1,-34.8v-.7h-.7l-143.4,-.6l-.8,-.1v.8l-.1,35.4Z"/></clipPath>
<clipPath id="c4_420"><path d="M190.2,521.2V440.9h8.4l-1.4,55l-.1,.7l.8,.1l446.7,11.6h.8v-.7l1.5,-55.8v-.7h-.8L255.7,440.9h345v-8.5h3.4v1.3h41v-1.3h14.4v88.8Z"/></clipPath>
<clipPath id="c5_420"><path d="M190.2,819.6V752.7h7l.5,53.1v.8l.8,-.1l307.4,-2.8h.8v-.8l-.5,-59.2l-.1,-.7h-.7l-148.1,1.3V736H519.8v83.6Z"/></clipPath>
<clipPath id="c6_420"><path d="M190.2,940.8V881.4h7.6l-.6,36.9l-.1,.7h.8l536.6,8.6h.8v-.7l.7,-46.1V880h-.7L358.4,874v-9.5H621.6l.1,3.6l99.5,-3.3v-.3H749v76.3Z"/></clipPath>
<clipPath id="c7_420"><path d="M621.7,868.1l-.1,-3.6h99.6v.3l-99.5,3.3Z"/></clipPath>
<clipPath id="c8_420"><path d="M632.4,861.5v0Zm16.1,-.4c0,0,.3,0,1.1,-.5c0,0,.7,-.8,.7,-1.5c0,0,0,-.1,0,-.4c0,0,-.4,-.7,-1,-.7c0,0,-.1,0,-.2,0c0,0,-1.4,.5,-1.7,1.5c0,0,-.1,.2,-.1,.4c0,0,0,.5,.4,.7c0,0,.3,.5,.8,.5Zm-23.1,-3.5v0Zm0,0v0Zm9.4,2.6c0,0,.4,-.2,.8,-.4c0,0,.4,-.2,.6,-.4c0,0,.2,-.4,.5,-.8c0,0,.3,-.4,.2,-.8v-.2c0,0,-.2,-.4,-.8,-.4c0,0,-.1,0,-.1,0c0,0,-.1,0,-.4,0c0,0,-.3,0,-.5,.1h-.3c0,0,-.5,.3,-.4,.9c0,0,0,.3,.2,1c0,0,.2,.6,.2,1ZM658.3,857v0Zm-16.9,2.9c0,0,.3,-.1,.7,-.3c0,0,.4,-.2,.6,-.4c0,0,.3,-.4,.5,-.8c0,0,.3,-.5,.3,-.9v-.1h-.1c0,0,-.2,-.4,-.8,-.4c0,0,-.1,0,-.5,0c0,0,-.3,0,-.4,0h-.3c0,0,-.5,.4,-.5,1c0,0,0,.3,.2,.9c0,0,.3,.7,.3,1ZM624,863.1c-.2,0,-.9,0,-1.9,-.3c0,0,0,-.1,-.4,-.3c0,0,-.2,-.2,-.2,-.4c0,0,0,-.1,0,-.2c0,0,.3,-.3,.7,-.3c0,0,.3,0,.8,.1c0,0,.5,.2,.7,.2c.1,0,.5,-.1,.7,-.7c0,0,-.6,-.4,-1.8,-1.3c0,0,-.8,-.7,-.9,-1.6c0,0,.3,-1.4,2.6,-1.7c0,0,.8,.1,1,.5c0,0,.1,.5,.1,.5c0,.1,0,.4,-.2,.6c0,0,-.2,.1,-.4,.1q-.1,0,-.1,0c0,0,-.1,0,-.4,0c0,0,-.3,-.1,-.4,-.1c0,0,-.4,0,-.4,.8c0,0,.7,.5,1.5,1c0,0,.8,.6,1,1.3h.1c0,0,-.1,1,-.7,1.4c0,0,-.6,.4,-1.4,.4Zm5,-.2c-.1,0,-.5,0,-1,-.4c0,0,-.3,-.4,-.7,-.8c0,0,-.5,-1.2,-.6,-3.1c0,0,0,-.8,.1,-1.8c0,0,.1,-.2,.5,-.2c.1,0,.3,0,.5,.1l.4,.5l.2,3.2c0,0,0,.1,.1,.4c0,0,.1,.3,.3,.3h.1c0,0,.7,-1.1,1.2,-3.3c0,0,.2,-.4,.6,-.4c.1,0,.2,0,.4,.1c0,0,.5,.5,.6,2c0,0,.1,1.5,.7,2c0,.1,-.1,.6,-.5,.7c0,0,-.4,0,-1.2,-.9c0,0,-.2,.2,-.7,.8c0,0,-.4,.6,-.7,.7c0,0,-.1,.1,-.2,.1c0,0,-.1,0,-.1,0Zm66.7,-3.4c0,0,.3,0,1.1,-.5c0,0,.8,-.8,.7,-1.4v-.1c0,0,0,-.1,0,-.3c0,0,-.4,-.8,-1,-.8c0,0,-.1,0,-.2,.1c0,0,-1.4,.5,-1.7,1.5c0,0,-.1,.1,-.1,.3c0,0,.1,.5,.4,.8c0,0,.3,.4,.8,.4Zm-47,3.2c-.1,0,-.6,0,-1.1,-.2c0,0,-.1,-.2,-.9,-.6c0,0,-.6,-.3,-.8,-.7c0,0,-.2,-.9,-.2,-1.4c0,0,0,-.8,.2,-1.3c0,0,.7,-.6,1.3,-1.2c0,0,.8,-.8,1.5,-.8c0,0,.3,-.1,.5,-.1c.1,0,1,0,1.8,.9c0,0,.9,.8,.9,1.8c0,0,0,.3,-.1,.6h.1c0,0,-.4,1.3,-1.8,2.6c0,0,-.6,.4,-1.4,.4Zm-13.5,4.9c0,0,-1.1,0,-1.1,-1.5c0,0,0,-.1,0,-.6c0,0,0,-.5,0,-.7c0,0,-.1,-.6,-.2,-.8c0,0,-.1,-1.6,-.7,-3.1c0,0,0,-.4,0,-.5c0,0,0,-.6,-.3,-1.8c0,0,-.4,-1.1,-.4,-1.8c0,0,0,-.4,.1,-.8c0,0,0,-.1,.1,-.2c0,0,.2,-.1,.4,-.2c0,0,.1,0,.6,.3c0,0,.4,.2,.6,.2c0,0,.3,0,.5,-.2c0,0,.4,-.1,.8,-.1h.1c.2,0,1.5,0,2.4,1.1c0,0,.3,.4,.4,.9c0,0,0,.7,-.8,2.1c0,0,-.6,.5,-1.1,1c0,0,-.7,.6,-1.3,.6c0,0,-.3,.2,-.3,.5c0,0,0,.1,.1,.4c0,0,.1,.2,.1,.4l.4,4c0,0,0,.3,-.4,.8Zm50,-6.4c0,0,-1.1,-.2,-1.2,-1.7c0,0,0,-.3,.1,-.9c0,0,0,-.5,0,-.8c0,0,0,-.3,-.2,-.8c0,0,-.1,-.5,-.1,-.7c0,0,0,-.5,.4,-.7c0,0,.1,0,.2,0c.1,0,.5,0,.9,.6c0,0,-.1,0,0,.1l.1,.1c0,0,0,.1,.1,.2c0,0,.3,-.3,.6,-.5c0,0,.3,-.4,.6,-.4c.1,0,.2,0,.4,.1c0,0,.5,.2,1.4,1.2c0,0,.7,-.8,1.5,-.8c.1,0,.3,0,.5,0c0,0,1.5,1.1,1.6,3.7v.3c0,0,-.2,.5,-.7,.5h-.2c0,0,-.6,-.3,-.7,-1.5c0,0,-.1,-1.1,-.6,-1.4l-.3,.6c0,0,-.2,.7,-.3,1.4c0,0,-.3,.8,-.8,1.3c0,0,-.4,-.1,-.8,-.4c0,0,-.3,-.4,-.3,-.9c0,0,0,-.3,.1,-.6c0,0,-.1,-.1,-.2,-.5c0,0,0,-.1,0,-.3c0,0,0,-.1,0,-.2c0,0,0,-.6,-.3,-.8c0,0,-.5,.5,-.8,1.9c0,0,-.3,1.4,-1,1.9ZM654,862.5c0,0,-.1,0,-.3,-.2c0,0,-.8,-1.1,-1.2,-2.8c0,0,-.3,-.8,-.7,-3.2v-.1c0,0,0,-.5,.3,-.6c0,0,.2,-.1,.3,-.1c.1,0,.4,.1,.7,.4c0,0,.1,.4,.3,.8c0,0,.1,0,.1,.2v.2c0,0,0,.1,0,.2c0,0,0,.3,.2,.5c0,0,.9,-.8,1,-.8c0,0,.7,-.5,1.2,-.6c0,0,.3,0,.4,0c.2,0,1.2,0,1.6,.6v.2c0,0,0,.7,-.5,.9c0,0,-.6,-.3,-1,-.3h-.1c0,0,-.3,0,-.4,.1c0,0,-1,.4,-1.1,1.8c0,0,0,1.2,0,2.3c0,0,-.1,.1,-.4,.3c0,0,-.2,.2,-.4,.2Zm-12.2,4.9c0,0,-1.1,0,-1.2,-1.5c0,0,0,-.1,0,-.6c0,0,0,-.5,0,-.7c0,0,0,-.6,-.1,-.9c0,0,-.1,-1.5,-.7,-3c0,0,0,-.4,0,-.5c0,0,0,-.6,-.4,-1.8c0,0,-.3,-1.1,-.3,-1.8c0,0,0,-.5,0,-.8c0,0,0,-.2,.2,-.3c0,0,.1,0,.3,-.1c0,0,.2,0,.7,.3c0,0,.3,.2,.6,.2c0,0,.2,0,.4,-.2c0,0,.4,-.1,.9,-.1c.2,0,1.6,0,2.4,1.1h.1c0,0,.3,.4,.3,.9c0,0,0,.7,-.8,2.1c0,0,-.5,.5,-1.1,1c0,0,-.6,.6,-1.2,.6c0,0,-.1,0,-.1,0c0,0,-.3,.2,-.3,.4c0,0,0,.2,.1,.4c0,0,.1,.3,.1,.5l.5,4c0,0,-.1,.3,-.4,.8ZM673,861.8c0,0,-.1,0,-.3,-.1c0,0,-.8,-1.1,-1.2,-2.9c0,0,-.3,-.8,-.7,-3.1v-.2c0,0,0,-.4,.3,-.5c0,0,.2,-.1,.3,-.1c.1,0,.4,0,.7,.4c0,0,.1,.4,.3,.7c0,0,.1,.1,.1,.2c0,0,0,.1,0,.3c0,0,0,.1,0,.2c0,0,0,.3,.2,.5c0,0,.9,-.8,1,-.9c0,0,.7,-.4,1.2,-.5c0,0,.3,-.1,.4,-.1c.2,0,1.2,.1,1.6,.7v.2c0,0,0,.7,-.5,.9c0,0,-.6,-.3,-1,-.3c0,0,-.1,0,-.1,0c0,0,-.3,0,-.4,.1c0,0,-1,.4,-1.1,1.8c0,0,0,1.1,-.1,2.3c0,0,0,.1,-.3,.2c0,0,-.2,.2,-.4,.2Zm22.9,-.6c-.1,0,-.6,0,-1,-.3c0,0,-.2,-.1,-1,-.5c0,0,-.6,-.4,-.8,-.8c0,0,-.1,-.8,-.2,-1.4c0,0,0,-.8,.2,-1.2c0,0,.7,-.7,1.3,-1.3c0,0,.8,-.7,1.6,-.8c0,0,.2,0,.4,-.1c.1,0,1,.1,1.8,.9c0,0,.9,.9,.9,1.8c0,0,0,.4,0,.6c0,0,-.4,1.3,-1.8,2.7c0,0,-.6,.4,-1.3,.4h-.1Zm-14.8,.9c-.1,0,-.5,0,-1,-.1c0,0,-.5,-.2,-1,-.3c0,0,-1.3,-.7,-1.4,-2.7c0,0,0,-.6,.1,-1.4c0,0,.1,-.4,1,-1.6c0,0,.9,-1.3,2,-1.3h.1c.1,0,.6,0,1.1,.2c0,0,.6,.3,.8,1v.2c0,0,.1,.9,-.5,1.4c0,0,-.3,.3,-1.4,.7c0,0,-1.1,.4,-1.4,.7c0,0,-.1,.3,-.1,.4c0,0,.1,1.1,.8,1.3h.5c0,0,.2,0,.3,0c0,0,.2,0,.6,-.2c0,0,.4,-.2,.7,-.2c0,0,.4,0,.7,.4v.2c0,0,0,.3,-.4,.6c0,0,-.3,.3,-.7,.5c0,0,-.3,.2,-.8,.2Zm27.7,-.9c-.1,0,-.5,0,-1,-.2c0,0,-.5,-.1,-1,-.2c0,0,-1.3,-.7,-1.4,-2.7c0,0,0,-.6,.1,-1.4c0,0,.1,-.4,.9,-1.6c0,0,1,-1.3,2.1,-1.3c.1,0,.7,0,1.1,.2c0,0,.7,.3,.9,1v.1c0,0,0,1,-.5,1.5c0,0,-.4,.3,-1.4,.7c0,0,-1.1,.4,-1.5,.7c0,0,0,.3,0,.4c0,0,0,1,.7,1.3h.6c0,0,.1,0,.2,0h.1c0,0,.2,0,.6,-.2c0,0,.3,-.2,.6,-.3c.1,0,.4,.1,.7,.4c0,0,.1,.1,.1,.3c0,0,0,.3,-.4,.6c0,0,-.4,.3,-.7,.5c0,0,-.4,.2,-.8,.2Zm-6.5,-.8c0,0,-.1,0,-.3,-.1c0,0,-.8,-.8,-1.4,-2.1c0,0,-.4,-1.1,-.9,-2.3c0,0,0,-.1,-.1,-.4c0,0,-.2,-.3,-.2,-.5c0,0,0,-.2,.1,-.4c0,0,.2,-.2,.5,-.2c0,0,.4,0,.6,.3c0,0,.3,.3,.4,.7c0,0,.1,.2,.5,1.3c0,0,.3,.7,.6,1.2h.1c0,0,.1,-.3,.6,-2.2c0,0,.3,-1.5,.7,-1.9c0,0,.2,-.1,.4,-.1q.1,0,.2,0c0,0,.2,.2,.4,.6c0,0,-.3,1.5,-.6,2.9c0,0,-.4,1.8,-.8,2.7c0,0,-.6,.5,-.8,.5Zm-39.5,2.7c0,0,-.3,0,-.5,-.2c0,0,-1.6,-.7,-1.7,-3.4v-.1c0,0,0,-.2,0,-.3c0,0,0,-.1,0,-.4c0,0,0,-.2,0,-.3c0,0,0,-.5,-.3,-.9c0,0,-.1,0,-.4,.1c0,0,-.4,.1,-.6,.1c-.1,0,-.4,0,-.7,-.2c0,0,-.2,-.2,-.3,-.5c0,0,.1,0,.2,-.5h.1c0,0,.3,0,.7,-.2c0,0,.5,-.2,.8,-.2c0,0,.1,0,.3,0c0,0,.3,-.5,.2,-1.5v-.9c0,0,0,-.6,.1,-1c0,0,0,-.1,.1,-1.5c0,0,0,-.9,.4,-1.3c0,0,.1,0,.2,0h.1c0,0,.7,0,.8,.7c0,0,-.2,.9,-.3,2.5c0,0,0,2.3,0,2.6c0,0,.2,.1,.7,.1c0,0,.2,0,.6,0c0,0,.4,-.1,.6,-.1c0,0,.5,0,.8,.2c0,0,.2,.1,.2,.4c0,0,0,.1,-.1,.3c0,0,-.2,.3,-.2,.4c0,0,-.3,.1,-.9,.1h-.6c0,0,-.7,0,-1.2,.3c0,0,.1,.2,.1,.6c0,0,0,.2,0,.7c0,0,0,.5,0,.8c0,0,.1,1.7,1,2.3c0,0,1.3,-.2,2.1,-1.4c.2,0,.8,.1,1,.4c0,0,-.2,.7,-.8,1.3c0,0,-.6,.6,-1.2,.8c0,0,-.1,0,-.3,0c0,0,-.2,0,-.5,.1c0,0,-.3,.1,-.5,.1ZM717.6,860c0,0,-.7,0,-.8,-.7v-.2c0,0,0,-.5,.7,-1c0,0,.8,-.6,.9,-1.1c0,0,1.1,-2.7,1,-4.4c0,0,0,-1.5,-.8,-2.5c0,0,-.1,-.2,-1,-.7c0,0,-.7,-.4,-.7,-.9c0,0,0,-.2,.1,-.6c0,0,.2,-.1,.5,-.1c0,0,.4,0,.8,.3c0,0,.8,.6,.8,.6c0,0,.6,.6,1,1.5c0,0,.3,.8,.6,1.6l.1,2.1c0,0,-.3,2.1,-.9,3.3c0,0,-.7,1.8,-2,2.8c0,0,-.2,0,-.3,0Zm-3.3,-.1c-.1,0,-.4,0,-.8,-.4c0,0,-.5,-.4,-.7,-.5c0,0,-1.2,-1.3,-1.3,-3.6c0,0,-.1,-1.9,.7,-4.4c0,0,.4,-1.4,2.2,-3.4c0,0,.3,0,.6,.3c0,0,.3,.2,.3,.6c0,0,0,.4,-.5,.9c0,0,-.5,.6,-.6,.9c0,0,-1.4,2.6,-1.3,6.2v.2c0,0,.1,.8,.9,1.5c0,0,.5,.2,.6,.2c0,0,.3,.2,.4,.5c0,0,.1,.2,.1,.4c0,0,0,.3,-.2,.4c0,0,-.2,.2,-.4,.2Z"/></clipPath>
<clipPath id="c9_420"><path d="M140.2,440.9V397h165V382.9H600.7v49.5H190.2v8.5Z"/></clipPath>
<clipPath id="ca_420"><path d="M140.2,397V382.9h7v.9h.7l143.4,.6h.8v-1.5h13.1V397Z"/></clipPath>
<clipPath id="cb_420"><path d="M291.3,384.4l-143.4,-.6h-.7v-.9H292.1v1.5Z"/></clipPath>
<clipPath id="cc_420"><path d="M190.2,440.9v-8.5H600.7v8.5h-345l-56.3,-1.5h-.8v1.5Z"/></clipPath>
<clipPath id="cd_420"><path d="M198.6,440.9v-1.5h.8l56.3,1.5Z"/></clipPath>
<clipPath id="ce_420"><path d="M460.1,353.1V336.7h6.6V296.3h-6.6v-5.1H647.8v11.4H636.4v49.5h11.4v1Z"/></clipPath>
<clipPath id="cf_420"><path d="M460.1,336.7V296.3h6.6v40.4Z"/></clipPath>
<clipPath id="cg_420"><path d="M140.6,752.7V700.3H149L147.2,725v.7l.7,.1L288.3,736H190.2v16.7ZM342.6,736l1.8,-24.8l.1,-.8h-.8L183.5,698.7v-9.1H357.3V736Z"/></clipPath>
<clipPath id="ch_420"><path d="M190.2,752.7V736h98.1l53.3,3.9h.7l.1,-.7l.2,-3.2h14.7v8.3l-159.4,1.5h-.7v6.9Z"/></clipPath>
<clipPath id="ci_420"><path d="M198.8,752.7l-.1,-5.4l158.6,-1.4v6.8Z"/></clipPath>
<clipPath id="cj_420"><path d="M197.2,752.7v-6.9h.7l159.4,-1.5v1.6l-158.6,1.4l.1,5.4Z"/></clipPath>
<clipPath id="ck_420"><path d="M140.2,582.3V533.9h.4v14.5h6.6l.2,20.4v.8l.8,-.1l42,-.4v13.2Zm234,-19.4L374,541.6v-.8h-.7l-190.9,2v-8.9h205v29Z"/></clipPath>
<clipPath id="cl_420"><path d="M190.2,678V582.3H387.4V562.9H691.1V678Z"/></clipPath>
<clipPath id="cm_420"><path d="M190.2,582.3V569.1l183.3,-1.8h.8v-.8l-.1,-3.6h13.2v19.4Z"/></clipPath>
<clipPath id="cn_420"><path d="M190.2,567.6v-4.5l27.6,-.2H372.7v2.9l-182.5,1.8Z"/></clipPath>
<clipPath id="co_420"><path d="M190.2,569.1v-1.5l182.5,-1.8v-2.9h1.5l.1,3.6v.8h-.8l-183.3,1.8Z"/></clipPath>
<clipPath id="cp_420"><path d="M190.2,563.1v-.2h27.6l-27.6,.2Z"/></clipPath>
<clipPath id="cq_420"><path d="M140.2,881.4V824.2h.4v16.6h6.7l1,26.9v.8l.8,-.1l41.1,-1.6v14.6Zm109,-16.9l95.6,-3.8h.8v-.8l-1.1,-28l-.1,-.8h-.7l-161.3,6.4V824.2h176v40.3Z"/></clipPath>
<clipPath id="cr_420"><path d="M190.2,881.4V866.8l59,-2.3H358.4V874L198.7,871.4h-.8v.8l-.1,9.2Z"/></clipPath>
<clipPath id="cs_420"><path d="M199.3,881.4l.1,-8.4l159,2.5v5.9H306.6L202.5,879.7v1.7Z"/></clipPath>
<clipPath id="ct_420"><path d="M197.8,881.4l.1,-9.2v-.8h.8L358.4,874v1.5L199.4,873l-.1,8.4Z"/></clipPath>
<clipPath id="cu_420"><path d="M202.5,881.4v-1.7l104.1,1.7Z"/></clipPath>
<clipPath id="cv_420"><path d="M407.3,891.3c.1,0,.8,0,1.3,-.2c0,0,.7,-.3,1.4,-.9v-1.3c0,0,-.4,-.1,-.9,-.2c0,0,-.4,0,-.9,0c-.2,0,-1.3,0,-1.9,.5c0,0,-.6,.3,-.6,.9c0,0,0,.5,.4,.9c0,0,.4,.3,1.2,.3Zm98.4,1.6c0,0,1.1,0,1.8,-.7c0,0,.8,-.8,.8,-1.8c0,0,0,-1.1,-.8,-1.8c0,0,-.7,-.8,-1.8,-.8c-.1,0,-1.1,0,-1.8,.7c0,0,-.8,.7,-.8,1.8c0,0,0,1,.7,1.8c0,0,.8,.8,1.8,.8h.1Zm-24.1,-.7c.1,0,1.1,-.1,1.8,-.7l.7,-1.7c0,0,0,-1,-.7,-1.7c0,0,-.7,-.7,-1.7,-.7c-.1,0,-1,0,-1.7,.7c0,0,-.8,.7,-.8,1.6c0,0,0,1,.7,1.7c0,0,.7,.7,1.7,.8Zm35.1,1.2h-1.5c0,0,-.2,0,-.3,-.1c0,0,-.1,-.1,-.1,-.2c0,0,0,-.1,.1,-.2c0,0,.1,-.1,.3,-.1h.5v-3.4c0,0,0,-.6,-.4,-1c0,0,-.4,-.5,-1.1,-.5c0,0,-.1,0,-.1,0c0,0,-.5,0,-.9,.2c0,0,-.4,.2,-1.2,1.1l-.1,3.6h.7c0,0,.2,0,.3,.1v.2c0,0,0,.1,-.1,.2c0,0,0,.1,-.2,.1l-1.9,-.1c0,0,-.2,0,-.2,-.1c0,0,-.1,0,-.1,-.2c0,0,0,-.1,.1,-.2h.9l.1,-4.7H511c0,0,-.2,0,-.3,-.1c0,0,-.1,-.1,-.1,-.2c0,0,0,-.1,.1,-.2c0,0,.1,-.1,.3,-.1h1v.9c0,0,.6,-.6,1.1,-.8c0,0,.4,-.2,1,-.2c0,0,.1,0,.1,0c0,0,.6,0,1.1,.3c0,0,.4,.2,.7,.6c0,0,.3,.5,.3,1l-.1,3.5l.5,.1c0,0,.2,0,.3,0c0,0,.1,.1,.1,.2c0,0,0,.2,-.1,.2c0,0,-.1,.1,-.3,.1Zm-41,-4v0c0,0,-.1,-.9,-.8,-1.5c0,0,-.7,-.6,-1.7,-.6c-.1,0,-1,0,-1.7,.5c0,0,-.7,.6,-.9,1.5l5.1,.1Zm24.4,3.8c0,0,-.1,0,-.1,0l-5,-.1c0,0,-.2,0,-.2,-.1c0,0,-.1,-.1,-.1,-.2c0,0,0,-.1,.1,-.2c0,0,.1,-.1,.2,-.1c0,0,.1,0,.1,0h2.2v-4.6l-1.6,-.1c0,0,-.2,0,-.3,-.1c0,0,-.1,0,-.1,-.2c0,0,0,-.1,.1,-.2c0,0,.1,0,.3,0h2.2l-.1,5.3h2.3c0,0,.2,0,.2,.1c0,0,.1,0,.1,.2c0,0,0,.1,-.1,.2c0,0,0,.1,-.2,.1Zm5.6,.3h-.1c0,0,-1.3,-.1,-2.2,-1c0,0,-.9,-.9,-.9,-2.2c0,0,.1,-1.3,1,-2.2c0,0,.9,-.9,2.2,-.9c0,0,1.3,0,2.2,1c0,0,1,.9,.9,2.2c0,0,0,1.3,-.9,2.2c0,0,-.9,.9,-2.2,.9Zm-25.2,1.9h-2.7c0,0,-.2,0,-.3,-.1c0,0,-.1,-.1,-.1,-.2c0,0,0,-.1,.1,-.2c0,0,.1,-.1,.3,-.1h.8l.1,-7.2l-.8,-.1c0,0,-.2,0,-.2,0c0,0,-.1,-.1,-.1,-.2c0,0,0,-.2,.1,-.2c0,0,0,-.1,.2,-.1h1.4v1c0,0,.5,-.6,1,-.9c0,0,.6,-.3,1.4,-.3c0,0,.8,.1,1.5,.5c0,0,.7,.4,1.1,1.1c0,0,.4,.7,.4,1.4c0,0,0,1.2,-.9,2.1c0,0,-.9,.8,-2.1,.8c0,0,-.1,0,-.1,0c0,0,-1.5,0,-2.4,-1.2l-.1,3.3l1.4,.1c0,0,.2,0,.3,0c0,0,.1,.1,.1,.3c0,0,0,.1,-.1,.1c0,0,-.1,.1,-.3,.1Zm-7.1,-2.5c0,0,-.1,0,-.1,0c0,0,-1.4,0,-2.4,-.9c0,0,-.9,-1,-.9,-2.4c0,0,0,-1.2,.9,-2.1c0,0,.9,-.8,2.2,-.8q.1,0,.1,0c0,0,1.4,0,2.2,.9c0,0,.9,1,.9,2.4l-5.8,-.1c0,0,.2,1.1,.9,1.8c0,0,.8,.7,1.9,.7c.1,0,.7,0,1.3,-.2c0,0,.7,-.2,1.2,-.5c0,0,.1,-.1,.2,-.1c0,0,.1,0,.2,0c0,0,.1,.1,.1,.2c0,0,0,.2,-.1,.3c0,0,-.4,.3,-1.2,.6c0,0,-.8,.2,-1.6,.2Zm-40.8,-1.2c.1,0,1.2,0,1.9,-.7c0,0,.8,-.7,.8,-1.8c0,0,0,-1,-.8,-1.8c0,0,-.7,-.8,-1.8,-.8c-.1,0,-1.1,0,-1.8,.7c0,0,-.8,.8,-.8,1.8c0,0,0,1.1,.7,1.8c0,0,.8,.8,1.8,.8Zm27.5,.8c0,0,-.1,0,-.1,0h-1.8c0,0,-.2,0,-.3,-.1c0,0,-.1,-.1,-.1,-.2c0,0,0,-.1,.1,-.2c0,0,.1,-.1,.3,-.1h1L457,889.8l-2.2,2.1h.9c0,0,.2,0,.3,.1c0,0,.1,0,.1,.2c0,0,0,.1,-.1,.2c0,0,-.1,0,-.3,0h-1.8c0,0,-.2,0,-.3,-.1c0,0,-.1,-.1,-.1,-.2c0,0,0,-.1,.1,-.1c0,0,0,-.1,.1,-.1h.2q.1,0,.1,0l2.6,-2.5l-2.2,-2.2c0,0,-.3,0,-.3,-.1c0,0,-.1,0,-.2,-.1v-.1c0,0,0,-.1,.1,-.2c0,0,.1,-.1,.3,-.1h1.5c0,0,.2,0,.3,.1c0,0,.1,.1,.1,.2c0,0,0,.1,-.1,.2c0,0,-.1,.1,-.3,.1h-.7L457,889l2,-1.8h-.7c0,0,-.2,0,-.3,-.1c0,0,-.1,0,-.1,-.2c0,0,0,-.1,.1,-.2c0,0,.1,0,.3,0h1.5c0,0,.2,0,.3,.1c0,0,.1,.1,.1,.2c0,0,0,.1,0,.1c0,0,-.1,.1,-.2,.1c0,0,0,.1,-.2,.1h-.1l-2.3,2.1l2.5,2.5c0,0,.3,.1,.4,.1l.1,.1v.1c0,0,0,.2,-.1,.2c0,0,0,.1,-.2,.1Zm5.2,.3c0,0,-.1,0,-.1,0c0,0,-1.3,0,-2.2,-.9c0,0,-.9,-.9,-.9,-2.2c0,0,.1,-1.4,1,-2.3c0,0,.9,-.8,2.2,-.8h.1c0,0,1.3,0,2.1,.8v-.2c0,0,0,-.2,.1,-.3c0,0,.1,-.1,.2,-.1c0,0,.1,0,.2,.1c0,0,.1,.1,.1,.3v1.3c0,0,0,.2,-.1,.3c0,0,-.1,.1,-.2,.1c0,0,-.1,0,-.2,-.1c0,0,-.1,-.1,-.1,-.3c0,0,0,-.5,-.6,-.9c0,0,-.6,-.4,-1.6,-.5c-.1,0,-1.3,.1,-1.9,.8c0,0,-.7,.8,-.7,1.8c0,0,0,1.1,.7,1.8c0,0,.7,.7,1.9,.8c.1,0,.7,-.1,1.3,-.3c0,0,.7,-.2,1.2,-.7c0,0,.2,-.2,.3,-.2c0,0,.1,0,.2,.1c0,0,.1,.1,.1,.2c0,0,0,.3,-.7,.7c0,0,-1.1,.7,-2.4,.7Zm-21.6,-.5c0,0,0,-.1,0,-.1h-1.5c0,0,-.2,0,-.3,-.1c0,0,-.1,0,-.1,-.2c0,0,0,-.1,.1,-.2c0,0,.1,0,.3,0h.5v-3.5c0,0,0,-.6,-.4,-1c0,0,-.4,-.4,-1.2,-.4c0,0,-.5,0,-.9,.2c0,0,-.4,.2,-1.2,1.1l-.1,3.5h.7c0,0,.2,0,.3,.1c0,0,0,.1,0,.2c0,0,0,.1,-.1,.2c0,0,0,.1,-.2,.1h-1.9c0,0,-.2,0,-.2,-.1c0,0,-.1,-.1,-.1,-.2c0,0,0,-.2,.1,-.2c0,0,0,-.1,.2,-.1h.7v-4.7H438c0,0,-.2,0,-.3,-.1c0,0,-.1,-.1,-.1,-.2c0,0,0,-.1,.1,-.2c0,0,.1,-.1,.3,-.1l1,.1v.8c0,0,.6,-.6,1.1,-.8c0,0,.4,-.2,1,-.2c0,0,.1,0,.1,0c0,0,.6,0,1.1,.3c0,0,.4,.2,.7,.7c0,0,.3,.4,.3,.9l-.1,3.6h.5c0,0,.2,0,.3,.1c0,0,.1,0,.1,.2c0,0,0,.1,-.1,.2c0,0,-.1,.1,-.3,.1ZM427.1,892c0,0,-.1,0,-.1,0l-5,-.1c0,0,-.2,0,-.2,-.1c0,0,-.1,-.1,-.1,-.2c0,0,0,-.1,.1,-.2c0,0,0,-.1,.2,-.1c0,0,.1,0,.1,0l2.2,.1v-4.7h-1.6c0,0,-.2,0,-.3,-.1c0,0,-.1,-.1,-.1,-.2c0,0,0,-.2,.1,-.2c0,0,.1,-.1,.3,-.1h2.2l-.1,5.3h2.3c0,0,.2,0,.2,.1c0,0,.1,.1,.1,.2c0,0,0,.1,-.1,.2c0,0,0,.1,-.2,.1Zm5.6,.3h-.1c0,0,-1.3,0,-2.2,-1c0,0,-.9,-.9,-.9,-2.2c0,0,.1,-1.3,1,-2.2c0,0,.9,-.8,2.2,-.8c0,0,1.3,0,2.2,.9c0,0,1,.9,.9,2.2c0,0,0,1.3,-.9,2.2c0,0,-.9,.9,-2.2,.9Zm-38.1,-4.2c0,0,-.1,-.9,-.8,-1.5c0,0,-.7,-.6,-1.7,-.6c-.1,0,-1.1,0,-1.7,.5c0,0,-.8,.6,-.9,1.5l5.1,.1Zm-10.3,2.5c.1,0,1.1,0,1.7,-.7l.8,-1.6c0,0,0,-1,-.7,-1.7c0,0,-.7,-.7,-1.7,-.8c-.1,0,-1.1,.1,-1.8,.7c0,0,-.7,.7,-.7,1.7c0,0,0,1,.7,1.7c0,0,.7,.7,1.7,.7Zm23,1.3c0,0,-1,0,-1.6,-.6c0,0,-.5,-.5,-.5,-1.2c0,0,0,-.8,.7,-1.4c0,0,.8,-.6,2.2,-.6h.1c0,0,.3,0,.8,.1c0,0,.5,0,1,.1v-.9c0,0,0,-.5,-.4,-.8c0,0,-.4,-.4,-1.3,-.4c-.1,0,-.7,0,-1.9,.4c0,0,-.2,.1,-.2,.1c0,0,-.1,-.1,-.2,-.1c0,0,-.1,-.1,-.1,-.2c0,0,0,-.1,.1,-.2c0,0,.1,-.1,.7,-.3c0,0,1.1,-.2,1.6,-.2c0,0,1.1,0,1.7,.5c0,0,.6,.6,.6,1.2l-.1,3.8h.8c0,0,.2,0,.2,0c0,0,.1,.1,.1,.3c0,0,0,.1,-.1,.2h-1.6v-.8c0,0,-1.2,1,-2.6,1Zm-5.3,-.3l-4.4,-.1c0,0,-.2,0,-.3,-.1c0,0,-.1,0,-.1,-.2c0,0,0,-.1,.1,-.2c0,0,.1,0,.3,0H399v-4.7h-1c0,0,-.2,0,-.3,-.1c0,0,-.1,-.1,-.1,-.2c0,0,0,-.1,.1,-.2c0,0,.1,-.1,.3,-.1h1.6v1.5c0,0,1.1,-1,1.7,-1.3c0,0,.5,-.3,1,-.3c0,0,.5,0,.9,.4c0,0,.4,.3,.4,.5c0,0,0,.1,-.1,.2c0,0,0,.1,-.2,.1c0,0,-.1,0,-.1,0c0,0,0,-.1,-.2,-.2c0,0,-.2,-.2,-.4,-.3c0,0,-.1,-.1,-.3,-.1c0,0,-.4,0,-.9,.3c0,0,-.5,.3,-1.8,1.4l-.1,3.1H402c0,0,.2,0,.3,.1c0,0,.1,.1,.1,.2c0,0,0,.1,-.1,.2c0,0,-.1,.1,-.3,.1Zm-34.5,-.9c.1,0,1,0,1.7,-.7c0,0,.8,-.8,.8,-1.8c0,0,0,-1.1,-.7,-1.9c0,0,-.7,-.7,-1.7,-.7c-.1,0,-1.1,0,-1.8,.7c0,0,-.7,.7,-.7,1.8c0,0,0,1.1,.7,1.8c0,0,.7,.8,1.7,.8Zm-5.3,-3.1c0,0,-.2,-.9,-.9,-1.5c0,0,-.7,-.6,-1.7,-.7c-.1,0,-1,.1,-1.7,.6c0,0,-.7,.6,-.9,1.5l5.2,.1Zm30.1,4q-.1,0,-.1,0c0,0,-1.4,0,-2.4,-.9c0,0,-1,-1,-.9,-2.4c0,0,0,-1.2,.9,-2.1c0,0,.9,-.8,2.2,-.8c0,0,.1,0,.1,0c0,0,1.4,0,2.2,.9c0,0,.9,1,.9,2.4l-5.8,-.1c0,0,.2,1.1,.9,1.8c0,0,.8,.7,1.9,.7c.1,0,.7,0,1.3,-.2c0,0,.7,-.2,1.2,-.5c0,0,.1,-.1,.2,-.1c0,0,.1,0,.2,.1c0,0,.1,0,.1,.2c0,0,0,.1,-.2,.2c0,0,-.3,.3,-1.1,.6c0,0,-.8,.2,-1.6,.2Zm-9.1,2.3l-2.7,-.1c0,0,-.2,0,-.3,-.1c0,0,-.1,0,-.1,-.2c0,0,0,-.1,.1,-.2c0,0,.1,0,.3,0h.7l.2,-7.3h-.8c0,0,-.2,0,-.3,-.1c0,0,-.1,-.1,-.1,-.2c0,0,0,-.1,.1,-.2c0,0,.1,-.1,.3,-.1h1.3v1.1c0,0,.5,-.6,1.1,-.9c0,0,.6,-.3,1.3,-.3c0,0,.1,0,.1,0c0,0,.8,0,1.5,.4c0,0,.7,.4,1.1,1.1c0,0,.4,.7,.3,1.5c0,0,0,1.2,-.9,2c0,0,-.8,.9,-2.1,.9c0,0,-1.5,-.1,-2.4,-1.3l-.1,3.4h1.4c0,0,.2,0,.3,.1c0,0,0,.1,0,.2c0,0,0,.1,0,.2c0,0,-.1,.1,-.3,.1Zm140.6,1.4c0,0,-.1,0,-.2,-.1c0,0,-.3,-.2,-.8,-1.3c0,0,-.6,-1.2,-.8,-2c0,0,-.2,-.9,-.1,-1.7c0,0,0,-.8,.2,-1.7c0,0,.2,-.8,.8,-2c0,0,.6,-1.1,.9,-1.3c0,0,0,-.1,.1,-.1c0,0,.1,0,.2,.1c0,0,.1,.1,.1,.2c0,0,0,.1,0,.1c0,0,-.8,1.4,-1.1,2.5c0,0,-.4,1.1,-.4,2.2c0,0,0,1.1,.3,2.2c0,0,.3,1.1,1,2.5v.1c0,0,0,.1,0,.2c0,0,-.1,.1,-.2,.1Zm-33.9,-2.1h-.1c0,0,-1,0,-1.5,-.5c0,0,-.6,-.5,-.6,-1.2l.1,-3.8h-1.1c0,0,-.2,0,-.3,-.1c0,0,0,-.1,0,-.2c0,0,0,-.1,0,-.2c0,0,.1,-.1,.3,-.1h1.1v-1.6c0,0,0,-.2,.1,-.3c0,0,.1,-.1,.2,-.1c0,0,.1,0,.2,.1c0,0,.1,.1,.1,.3l-.1,1.6l3.1,.1c0,0,.2,0,.3,.1c0,0,.1,.1,.1,.2c0,0,0,.1,-.1,.2c0,0,-.1,.1,-.3,.1l-3.1,-.1v3.8c0,0,0,.5,.4,.8c0,0,.3,.3,1.1,.3c.1,0,.6,0,1.2,-.1c0,0,.7,-.2,1.1,-.4c0,0,.1,-.1,.2,-.1c0,0,.1,0,.2,.1c0,0,.1,.1,.1,.2c0,0,0,.1,-.1,.2c0,0,-.2,.2,-1.1,.5c0,0,-.8,.2,-1.5,.2Zm-154.6,-3c.1,0,1.1,0,1.9,-.7c0,0,.7,-.8,.7,-1.8c0,0,.1,-1.1,-.7,-1.9c0,0,-.7,-.7,-1.8,-.7c-.1,0,-1.1,0,-1.9,.7c0,0,-.7,.7,-.7,1.8c0,0,-.1,1,.7,1.8c0,0,.7,.8,1.8,.8Zm-7.8,-.5c.1,0,1.1,0,1.8,-.7l.7,-1.7c0,0,0,-.9,-.7,-1.6c0,0,-.7,-.7,-1.7,-.8c-.1,0,-1.1,.1,-1.8,.7c0,0,-.7,.7,-.7,1.7c0,0,0,.9,.7,1.7c0,0,.7,.7,1.7,.7Zm32.3,1.4c0,0,-1.5,0,-2.4,-1c0,0,-1,-.9,-1,-2.3c0,0,0,-1.2,1,-2.1c0,0,.9,-.8,2.2,-.8c0,0,1.4,0,2.3,.9c0,0,.9,.9,.8,2.4l-5.7,-.1c0,0,.1,1.1,.9,1.8c0,0,.7,.6,1.9,.7c.1,0,.7,0,1.3,-.2c0,0,.7,-.2,1.1,-.6c0,0,.2,-.1,.2,-.1c0,0,.2,0,.2,.1c0,0,.1,.1,.1,.2c0,0,0,.1,-.1,.3c0,0,-.3,.3,-1.2,.6c0,0,-.7,.2,-1.6,.2Zm-40.4,-1.5c.1,0,1.1,-.1,1.8,-.7l.7,-1.7c0,0,0,-1,-.7,-1.7c0,0,-.7,-.7,-1.7,-.7c-.1,0,-1.1,0,-1.8,.7c0,0,-.7,.7,-.7,1.6c0,0,0,1,.7,1.7c0,0,.7,.7,1.7,.8Zm25.8,1.1l-4.4,-.1c0,0,-.2,0,-.3,-.1c0,0,-.1,-.1,-.1,-.2c0,0,0,-.1,.1,-.2c0,0,.1,0,.3,0h1.4l.1,-4.7h-1.1c0,0,-.2,0,-.3,-.1c0,0,-.1,-.1,-.1,-.2c0,0,0,-.2,.1,-.2c0,0,.1,-.1,.3,-.1h1.6v1.4c0,0,1.1,-.9,1.7,-1.2c0,0,.5,-.3,1,-.3c0,0,.5,0,.9,.4c0,0,.4,.3,.4,.5c0,0,0,.1,0,.2c0,0,-.1,.1,-.2,.1c0,0,-.1,0,-.1,0h-.1c0,0,0,-.1,-.1,-.2c0,0,-.3,-.2,-.4,-.3c0,0,-.2,-.1,-.4,-.1c0,0,-.4,0,-.9,.3c0,0,-.5,.3,-1.8,1.4l-.1,3.1h2.5c0,0,.2,0,.3,.1c0,0,.1,.1,.1,.2c0,0,0,.1,-.1,.2c0,0,-.1,.1,-.3,.1Zm-9.9,0c0,0,-1.3,0,-2.2,-.9c0,0,-.9,-.9,-.9,-2.2c0,0,0,-1.3,1,-2.2c0,0,.9,-.9,2.2,-.9c0,0,1.3,0,2.2,.9c0,0,.9,1,.9,2.3c0,0,0,1.3,-1,2.2c0,0,-.9,.8,-2.2,.8Zm116.6,1.7l-6.2,-.1c0,0,-.2,0,-.3,-.1c0,0,-.1,-.1,-.1,-.2c0,0,0,-.1,.1,-.2c0,0,.1,-.1,.3,-.1h.8l.1,-6.7h-.8c0,0,-.2,0,-.3,-.1c0,0,-.1,-.1,-.1,-.2c0,0,0,-.1,.1,-.2c0,0,.1,-.1,.3,-.1l5.9,.1v2c0,0,0,.2,-.1,.2c0,0,0,.1,-.2,.1c0,0,-.1,0,-.2,-.1c0,0,0,-.1,0,-.3v-1.3l-4.1,-.1v2.9l2,.1v-.7c0,0,0,-.2,.1,-.2c0,0,.1,-.1,.2,-.1c0,0,.1,0,.2,.1c0,0,.1,.1,.1,.3v1.8c0,0,0,.2,-.1,.3c0,0,-.1,.1,-.2,.1c0,0,-.1,0,-.2,-.1c0,0,-.1,-.1,-.1,-.3v-.7h-2l-.1,3.2l4.4,.1v-1.7c0,0,0,-.2,.1,-.2c0,0,.1,-.1,.2,-.1c0,0,.1,0,.2,.1c0,0,.1,.1,.1,.3l-.1,2.2Zm46,-6.5h-.8v-1.5h.9l-.1,1.5ZM326.4,893l-2.7,-.1c0,0,-.2,0,-.3,-.1c0,0,-.1,0,-.1,-.2c0,0,0,-.1,.1,-.2c0,0,.1,0,.3,0h.8l.1,-7.3h-.8c0,0,-.2,0,-.3,-.1c0,0,0,-.1,0,-.2c0,0,0,-.1,0,-.2c0,0,.1,-.1,.3,-.1h1.4l-.1,1.1c0,0,.6,-.6,1.1,-.9c0,0,.6,-.3,1.4,-.3c0,0,.8,0,1.5,.4c0,0,.7,.4,1.1,1.1c0,0,.4,.7,.4,1.5c0,0,-.1,1.2,-.9,2c0,0,-.9,.9,-2.1,.9q-.1,0,-.1,0c0,0,-1.5,-.1,-2.4,-1.3l-.1,3.4h1.4c0,0,.2,0,.3,.1c0,0,.1,.1,.1,.2c0,0,0,.1,-.1,.2c0,0,-.1,.1,-.3,.1Zm-16,-2.7c0,0,-.8,0,-1.3,-.4c0,0,-.5,-.6,-.5,-1.4l.1,-3.7h-.8c0,0,-.2,0,-.3,-.1c0,0,-.1,0,-.1,-.2c0,0,0,-.1,.1,-.2c0,0,.1,0,.3,0h1.3v4.2c0,0,0,.5,.3,.9c0,0,.4,.4,.9,.4c.1,0,1.4,0,2.5,-1.2l.1,-3.7h-1.1c0,0,-.2,0,-.2,-.1c0,0,-.1,-.1,-.1,-.2c0,0,0,-.1,.1,-.2c0,0,0,-.1,.2,-.1c0,0,.1,0,.1,0l1.6,.1l-.1,5.2h.4c0,0,.3,0,.3,.1c0,0,.1,.1,.1,.2c0,0,0,.1,-.1,.2c0,0,-.1,.1,-.2,.1q-.1,0,-.1,0h-1v-.9c0,0,-1.1,1,-2.5,1Zm7.9,2.5h-2.7c0,0,-.2,0,-.3,-.1c0,0,-.1,-.1,-.1,-.2c0,0,0,-.1,.1,-.2c0,0,.1,-.1,.3,-.1h.8l.1,-7.2l-.8,-.1c0,0,-.2,0,-.3,0c0,0,-.1,-.1,-.1,-.2c0,0,0,-.2,.1,-.2c0,0,.1,-.1,.3,-.1H317v1c0,0,.5,-.6,1.1,-.9c0,0,.6,-.3,1.3,-.3q.1,0,.1,0c0,0,.8,.1,1.5,.5c0,0,.7,.4,1.1,1.1c0,0,.4,.7,.4,1.4c0,0,-.1,1.2,-.9,2.1c0,0,-.9,.8,-2.2,.8c0,0,-1.5,0,-2.4,-1.2l-.1,3.3l1.4,.1c0,0,.2,0,.3,.1c0,0,.1,0,.1,.2c0,0,0,.1,-.1,.2c0,0,-.1,0,-.3,0Zm-15.4,-2.6c0,0,-1.4,0,-2.2,-.7c0,0,0,.2,0,.3c0,0,-.1,.1,-.1,.1c0,0,-.1,.1,-.2,.1c0,0,-.1,0,-.2,-.1c0,0,-.1,-.1,-.1,-.3v-1.2c0,0,0,-.2,.1,-.3c0,0,.1,-.1,.2,-.1c0,0,.2,.1,.2,.1c0,0,.1,.1,.1,.3c0,0,0,.3,.2,.5c0,0,.2,.3,.7,.5c0,0,.5,.2,1.3,.3c.1,0,1.1,-.1,1.6,-.4c0,0,.5,-.4,.6,-.9c0,0,0,-.5,-.6,-.8c0,0,-.5,-.4,-1.6,-.5c0,0,-1,-.1,-1.5,-.3c0,0,-.4,-.2,-.7,-.5c0,0,-.2,-.4,-.2,-.8c0,0,0,-.7,.7,-1.1c0,0,.7,-.4,1.7,-.4c0,0,1.2,0,1.9,.6c0,0,0,-.2,.1,-.3c0,0,.1,-.1,.2,-.1c0,0,.1,0,.2,.1c0,0,.1,.1,.1,.3v1c0,0,0,.2,-.1,.3c0,0,-.1,0,-.2,0c0,0,-.1,0,-.2,0c0,0,-.1,-.1,-.1,-.3c0,0,0,-.4,-.4,-.7c0,0,-.6,-.3,-1.5,-.4c-.1,0,-1,.1,-1.4,.4c0,0,-.4,.3,-.5,.6c0,0,0,.4,.5,.7c0,0,.3,.2,1.2,.3c0,0,1.2,.2,1.7,.4c0,0,.6,.2,.9,.6c0,0,.3,.4,.3,.9c0,0,0,.7,-.7,1.3c0,0,-.7,.5,-2,.5Zm114,1.8c0,0,-.1,0,-.1,0c0,0,-1,0,-1.5,-.4c0,0,-.6,-.5,-.6,-1.3l.1,-3.8h-1.1c0,0,-.2,0,-.3,-.1v-.2c0,0,0,-.1,0,-.2c0,0,.1,0,.3,0h1.1v-1.7c0,0,0,-.2,.1,-.3c0,0,.1,-.1,.2,-.1c0,0,.1,0,.2,.1c0,0,.1,.1,.1,.3l-.1,1.7h3.1c0,0,.2,0,.3,.1c0,0,.1,.1,.1,.2c0,0,0,.1,-.1,.2c0,0,-.1,.1,-.3,.1l-3.1,-.1v3.8c0,0,0,.5,.3,.8c0,0,.4,.4,1.2,.4c.1,0,.6,0,1.2,-.2c0,0,.7,-.1,1.1,-.3c0,0,.1,-.1,.2,-.1c0,0,.1,0,.2,.1c0,0,.1,0,.1,.2c0,0,0,.1,-.1,.1c0,0,-.2,.3,-1.1,.5c0,0,-.8,.2,-1.5,.2ZM264.8,886.1v0c0,0,-.1,-1,-.8,-1.6c0,0,-.7,-.6,-1.7,-.6c-.1,0,-1,0,-1.7,.5c0,0,-.7,.6,-.9,1.6l5.1,.1Zm32.9,3.8h-1.5c0,0,-.2,0,-.3,-.1c0,0,-.1,-.1,-.1,-.2c0,0,0,-.1,.1,-.2c0,0,.1,-.1,.3,-.1h.5v-3.4c0,0,0,-.6,-.4,-1c0,0,-.4,-.5,-1.2,-.5c0,0,-.5,0,-.9,.2c0,0,-.4,.2,-1.2,1.1l-.1,3.6h.7c0,0,.2,0,.2,.1c0,0,.1,0,.1,.2c0,0,0,.1,-.1,.2h-2.1c0,0,-.2,0,-.3,-.1v-.2c0,0,0,-.1,.1,-.2h.9v-4.7H292c0,0,-.2,0,-.3,-.1c0,0,-.1,-.1,-.1,-.2c0,0,0,-.1,.1,-.2c0,0,.1,-.1,.3,-.1h1v.9c0,0,.6,-.6,1.1,-.8c0,0,.4,-.2,1,-.2h.1c0,0,.6,0,1.1,.2c0,0,.4,.3,.7,.7c0,0,.3,.5,.3,1l-.1,3.5l.5,.1c0,0,.2,0,.3,0c0,0,.1,.1,.1,.2c0,0,0,.2,-.1,.2c0,0,-.1,.1,-.3,.1Zm77.5,.9c.1,0,1.3,0,2.1,-1c0,0,.8,-1.1,.8,-2.5c0,0,0,-1.4,-.8,-2.5c0,0,-.7,-1.1,-2,-1.1c-.1,0,-1.2,0,-2.1,1c0,0,-.8,1,-.8,2.5c0,0,-.1,1.6,.8,2.6c0,0,.9,1,2,1ZM272.4,889.5h-.8l-1.1,-3.6l-1.3,3.6l-.7,-.1l-1.1,-5.2h-.3c0,0,-.2,0,-.3,-.1c0,0,0,-.1,0,-.2c0,0,0,-.1,0,-.2c0,0,.1,-.1,.3,-.1h1.6c0,0,.2,0,.3,.1c0,0,.1,.1,.1,.2c0,0,0,.1,-.1,.2c0,0,-.1,.1,-.3,.1H268l.9,4.5l1.2,-3.6h.7l1.2,3.6l1,-4.4h-.7c0,0,-.2,0,-.3,-.1c0,0,-.1,-.1,-.1,-.2c0,0,0,-.2,.1,-.2c0,0,.1,-.1,.3,-.1h1.6c0,0,.2,0,.3,.1c0,0,0,.1,0,.2c0,0,0,.1,0,.2c0,0,-.1,.1,-.3,.1h-.3l-1.2,5.2Zm-42.5,-1c.1,0,1.1,0,1.8,-.7c0,0,.8,-.8,.8,-1.8c0,0,0,-1.1,-.7,-1.8c0,0,-.8,-.8,-1.9,-.8c-.1,0,-1.1,0,-1.8,.7c0,0,-.8,.7,-.8,1.8c0,0,0,1,.7,1.8c0,0,.8,.8,1.9,.8Zm32.6,1.1c0,0,-.1,0,-.1,0c0,0,-1.4,-.1,-2.4,-1c0,0,-.9,-1,-.9,-2.3c0,0,0,-1.3,.9,-2.1c0,0,.9,-.9,2.2,-.9q.1,0,.1,0c0,0,1.4,.1,2.3,1c0,0,.8,.9,.8,2.3l-5.8,-.1c0,0,.2,1.1,.9,1.8c0,0,.8,.7,1.9,.7c.1,0,.7,0,1.4,-.2c0,0,.6,-.2,1.1,-.5c0,0,.1,-.1,.2,-.1c0,0,.1,0,.2,.1c0,0,.1,.1,.1,.2c0,0,0,.1,-.1,.2c0,0,-.4,.3,-1.2,.6c0,0,-.8,.3,-1.6,.3Zm162.4,-4.9h-.8v-1.5h.8v1.5Zm-167.7,4.6c0,0,-.1,0,-.1,0l-1.5,-.1c0,0,-.2,0,-.3,0c0,0,0,-.1,0,-.2c0,0,0,-.2,0,-.2c0,0,.1,-.1,.3,-.1h.5l.1,-3.5c0,0,0,-.6,-.5,-1c0,0,-.4,-.4,-1.1,-.4c-.1,0,-.6,0,-1,.2c0,0,-.4,.2,-1.2,1.1v3.5h.6c0,0,.2,0,.3,.1c0,0,.1,.1,.1,.2c0,0,0,.1,-.1,.2c0,0,-.1,.1,-.3,.1h-1.8c0,0,-.2,0,-.3,-.1c0,0,-.1,-.1,-.1,-.2c0,0,0,-.1,.1,-.2c0,0,.1,-.1,.3,-.1h.6l.1,-4.7h-.5c0,0,-.2,0,-.3,-.1c0,0,-.1,0,-.1,-.2c0,0,0,-.1,.1,-.2c0,0,.1,0,.3,0h1.1l-.1,.8c0,0,.6,-.6,1.1,-.8c0,0,.5,-.2,1.1,-.2c0,0,.6,0,1.2,.3c0,0,.3,.2,.6,.7c0,0,.3,.5,.3,.9v3.6h.5c0,0,.2,0,.2,.1c0,0,.1,.1,.1,.2c0,0,0,.1,-.1,.2c0,0,-.1,.1,-.2,.1Zm118,2.1c0,0,-1.4,0,-2.4,-1.2c0,0,-1,-1.2,-1,-3c0,0,0,-1.8,1.1,-3c0,0,1,-1.1,2.4,-1.1c0,0,.9,0,1.7,.6c0,0,.8,.5,1.2,1.5c0,0,.5,1,.5,2.1c0,0,-.1,1.1,-.5,2.1c0,0,-.5,.9,-1.3,1.5c0,0,-.8,.5,-1.7,.5ZM239.9,889h-.7L238,885.3l-1.3,3.6H236l-1,-5.2h-.3c0,0,-.2,-.1,-.3,-.1c0,0,-.1,-.1,-.1,-.2c0,0,0,-.2,.1,-.2c0,0,.1,-.1,.3,-.1h1.5c0,0,.2,0,.3,.1c0,0,.1,.1,.1,.2c0,0,0,.1,-.1,.2c0,0,-.1,.1,-.3,.1h-.7l.9,4.5l1.3,-3.6h.7l1.1,3.6l1.1,-4.5h-.7c0,0,-.2,0,-.3,0c0,0,-.1,-.1,-.1,-.3c0,0,0,-.1,.1,-.2c0,0,.1,0,.3,0h1.5c0,0,.2,0,.3,.1c0,0,.1,.1,.1,.2c0,0,0,.1,-.1,.2c0,0,-.1,.1,-.3,.1h-.3l-1.2,5.2ZM352,891h-.1c0,0,-.9,0,-1.5,-.5c0,0,-.6,-.5,-.6,-1.2l.1,-3.8h-1.1c0,0,-.2,0,-.3,-.1c0,0,0,-.1,0,-.2c0,0,0,-.1,.1,-.2c0,0,0,-.1,.2,-.1h1.1v-1.6c0,0,0,-.2,.1,-.3c0,0,.1,-.1,.2,-.1c0,0,.1,0,.2,.1c0,0,.1,.1,.1,.3l-.1,1.6l3.1,.1c0,0,.2,0,.3,.1c0,0,.1,.1,.1,.2c0,0,0,.1,-.1,.2c0,0,-.1,.1,-.3,.1l-3.1,-.1v3.8c0,0,0,.5,.4,.8c0,0,.3,.3,1.1,.3c.1,0,.6,0,1.2,-.1c0,0,.7,-.2,1.1,-.4c0,0,.1,-.1,.2,-.1c0,0,.1,0,.2,.1c0,0,.1,.1,.1,.2c0,0,0,.1,-.1,.2c0,0,-.2,.2,-1.1,.5c0,0,-.8,.2,-1.5,.2ZM229.9,889.1c0,0,-1.4,-.1,-2.3,-1c0,0,-.9,-.9,-.8,-2.2c0,0,0,-1.3,.9,-2.2c0,0,.9,-.9,2.2,-.9h.1c0,0,1.3,0,2.2,1c0,0,.9,.9,.9,2.2c0,0,-.1,1.3,-1,2.2c0,0,-.9,.9,-2.2,.9Zm-6.3,-.4h-4.5c0,0,-.2,0,-.2,-.1c0,0,-.1,-.1,-.1,-.2c0,0,0,-.1,.1,-.2c0,0,0,-.1,.2,-.1h1.4l.1,-4.7h-1.1c0,0,-.2,0,-.2,-.1c0,0,-.1,-.1,-.1,-.2c0,0,0,-.1,.1,-.2c0,0,0,-.1,.2,-.1c0,0,.1,0,.1,0l1.6,.1l-.1,1.4c0,0,1.2,-1,1.7,-1.3c0,0,.5,-.2,1,-.2c0,0,.5,0,1,.3c0,0,.4,.4,.4,.6c0,0,0,.1,-.1,.2c0,0,-.1,0,-.2,0q-.1,0,-.1,0c0,0,-.1,0,-.2,-.1c0,0,-.2,-.3,-.4,-.4c0,0,-.2,-.1,-.4,-.1c0,0,-.3,0,-.9,.3c0,0,-.5,.3,-1.8,1.4v3.1l2.5,.1c0,0,.2,0,.3,0c0,0,.1,.1,0,.3c0,0,0,.1,0,.2c0,0,-.1,0,-.3,0Zm143.9,2.6h-.1c0,0,-.7,-.1,-1.4,-.5c0,0,-.7,-.4,-1.1,-1.2c0,0,-.4,-.7,-.4,-1.5c0,0,0,-.8,.4,-1.6c0,0,.5,-.7,1.2,-1.1c0,0,.7,-.4,1.4,-.4h.1c0,0,1.4,0,2.4,1.4l.1,-3.2h-.8c0,0,-.2,0,-.3,-.1c0,0,-.1,-.1,-.1,-.2c0,0,0,-.1,.1,-.2c0,0,.1,-.1,.3,-.1l1.3,.1l-.1,7.8h.8c0,0,.2,0,.3,.1c0,0,0,.1,0,.2c0,0,0,.1,0,.2c0,0,-.1,.1,-.3,.1h-1.4l.1,-1.2c0,0,-1,1.4,-2.5,1.4ZM286.7,890c0,0,-.8,-.1,-1.4,-.4c0,0,-.6,-.3,-1,-1c0,0,-.4,-.7,-.3,-1.5v-4.7h-.4c0,0,-.2,0,-.3,-.1c0,0,-.1,-.1,-.1,-.2c0,0,0,-.1,.1,-.2c0,0,.1,-.1,.3,-.1l2.1,.1c0,0,.2,0,.2,0c0,0,.1,.1,.1,.3c0,0,0,.1,-.1,.2c0,0,-.1,0,-.2,0c0,0,-.1,0,-.1,0h-1l-.1,4.7c0,0,0,1,.6,1.6c0,0,.7,.7,1.5,.7c.1,0,.6,0,1.1,-.2c0,0,.4,-.3,.8,-.8c0,0,.3,-.5,.3,-1.2l.1,-4.7h-1c0,0,-.2,0,-.3,-.1c0,0,-.1,-.1,-.1,-.2c0,0,0,-.2,.1,-.2c0,0,.1,-.1,.3,-.1H290c0,0,.2,0,.2,.1c0,0,.1,.1,.1,.2c0,0,0,.1,-.1,.2c0,0,0,.1,-.2,.1h-.5l-.1,4.7c0,0,0,1.2,-.8,2c0,0,-.8,.8,-1.9,.8ZM206,888.7h-.1c0,0,-.9,0,-1.5,-.5c0,0,-.6,-.5,-.6,-1.3l.1,-3.7l-1.1,-.1c0,0,-.2,0,-.3,0c0,0,0,-.1,0,-.2c0,0,0,-.2,.1,-.2c0,0,0,-.1,.2,-.1h1.1v-1.7c0,0,0,-.2,.1,-.3c0,0,.1,0,.2,0c0,0,.1,0,.2,0c0,0,.1,.1,.1,.3l-.1,1.7l3.1,.1c0,0,.2,0,.3,0c0,0,.1,.1,.1,.2c0,0,0,.2,-.1,.2c0,0,-.1,.1,-.3,.1h-3.1v3.7c0,0,0,.5,.4,.9c0,0,.3,.3,1.1,.3c.1,0,.6,0,1.2,-.1c0,0,.7,-.2,1.1,-.4c0,0,.1,-.1,.2,-.1c0,0,.1,0,.2,.1c0,0,.1,.1,.1,.2c0,0,0,.1,-.1,.2c0,0,-.2,.2,-1.1,.4c0,0,-.8,.3,-1.5,.3Zm10.7,-.1h-1.8c0,0,-.2,0,-.3,-.1c0,0,-.1,-.1,-.1,-.2c0,0,0,-.1,.1,-.2c0,0,.1,-.1,.3,-.1h.6l.1,-3.4c0,0,0,-.6,-.4,-1.1c0,0,-.5,-.4,-1.2,-.4h-.1c0,0,-.6,0,-1,.3c0,0,-.3,.2,-1.1,1V888h.6c0,0,.2,0,.3,.1c0,0,.1,0,.1,.2c0,0,0,.1,-.1,.2c0,0,-.1,.1,-.3,.1l-1.8,-.1c0,0,-.2,0,-.3,-.1c0,0,-.1,0,-.1,-.2c0,0,0,-.1,.1,-.2c0,0,.1,0,.3,0h.6l.1,-7.3h-.7c0,0,-.2,0,-.3,-.1c0,0,-.1,-.1,-.1,-.2c0,0,0,-.1,.1,-.2c0,0,.1,-.1,.3,-.1h1.3v3.5c0,0,.5,-.6,1,-.8c0,0,.5,-.2,1.1,-.2c0,0,.7,0,1.1,.2c0,0,.5,.2,.8,.7c0,0,.3,.5,.3,1l-.1,3.5l.6,.1c0,0,.2,0,.3,0c0,0,.1,.1,.1,.2c0,0,0,.2,-.1,.2c0,0,-.1,.1,-.3,.1Z"/></clipPath>
<clipPath id="cw_420"><path d="M140.6,689.6V651.1h42.9v38.5Z"/></clipPath>
<clipPath id="cx_420"><path d="M140.6,700.3V689.6h42.9v9.1l-33.4,-2.4l-.8,-.1v.8l-.3,3.3Z"/></clipPath>
<clipPath id="cy_420"><path d="M150.6,700.3l.1,-2.5l32.8,2.4v.1Z"/></clipPath>
<clipPath id="cz_420"><path d="M149,700.3l.3,-3.3v-.8l.8,.1l33.4,2.4v1.5l-32.8,-2.4l-.1,2.5Z"/></clipPath>
<clipPath id="c10_420"><path d="M140.6,533.9V500h41.8v33.9Z"/></clipPath>
<clipPath id="c11_420"><path d="M140.6,548.4V533.9h41.8v8.9l-34.5,.3h-.7v5.3Z"/></clipPath>
<clipPath id="c12_420"><path d="M148.8,548.4l-.1,-3.8l33.7,-.3v4.1Z"/></clipPath>
<clipPath id="c13_420"><path d="M147.2,548.4v-5.3h.7l34.5,-.3v1.5l-33.7,.3l.1,3.8Z"/></clipPath>
<clipPath id="c14_420"><path d="M647.8,352.1V302.6h32.3v49.5Z"/></clipPath>
<clipPath id="c15_420"><path d="M636.4,352.1V302.6h11.4v49.5Z"/></clipPath>
<clipPath id="c16_420"><path d="M604.1,432.5V385.7h41v46.8Z"/></clipPath>
<clipPath id="c17_420"><path d="M604.1,433.7v-1.2h41v1.2Z"/></clipPath>
<clipPath id="c18_420"><path d="M140.6,824.2V792.5h41.8v31.7Z"/></clipPath>
<clipPath id="c19_420"><path d="M140.6,840.9V824.2h41.8v13.3l-34.5,1.3l-.7,.1v.7l.1,1.3Z"/></clipPath>
<clipPath id="c1a_420"><path d="M148.8,840.9v-.6L182.4,839v1.9Z"/></clipPath>
<clipPath id="c1b_420"><path d="M147.3,840.9l-.1,-1.3v-.7l.7,-.1l34.5,-1.3V839l-33.6,1.3v.6Z"/></clipPath>
<clipPath id="c1c_420"><path d="M151.8,944.9l-2.9,-24.6l17.4,-2.1l2.9,24.6l-17.4,2.1Zm-1.3,1.7l.7,-.1l19,-2.3l.7,-.1v-.8l-3.2,-26l-.1,-.8l-.7,.1l-19,2.3l-.7,.1l.1,.7l3.1,26.1l.1,.8Zm-3.6,12.5V917.5h-6.3v-7.6h42.9v49.2Z"/></clipPath>
<clipPath id="c1d_420"><path d="M104,966.6V917.5h36.6v41.6h6.3v7.5Z"/></clipPath>
<clipPath id="c1e_420"><path d="M140.6,959.1V917.5h6.3v41.6Z"/></clipPath>
<clipPath id="c1f_420"><path d="M-26.9,1071.9V-28H935.5V1071.9Z"/></clipPath>
<style type="text/css"><![CDATA[
.g0_420{
fill: #FFFFFF;
}
.g1_420{
fill: none;
stroke: #414142;
stroke-width: 1.527;
stroke-linecap: butt;
stroke-linejoin: miter;
stroke-miterlimit: 4;
}
.g2_420{
fill: #414142;
}
.g3_420{
fill: none;
stroke: #414142;
stroke-width: 1.519;
stroke-linecap: butt;
stroke-linejoin: miter;
stroke-miterlimit: 4;
}
.g4_420{
fill: none;
stroke: #414142;
stroke-width: 1.516;
stroke-linecap: butt;
stroke-linejoin: miter;
stroke-miterlimit: 4;
}
.g5_420{
fill: none;
stroke: #414142;
stroke-width: 1.523;
stroke-linecap: butt;
stroke-linejoin: miter;
stroke-miterlimit: 4;
}
.g6_420{
fill: none;
stroke: #414142;
stroke-width: 1.503;
stroke-linecap: butt;
stroke-linejoin: miter;
stroke-miterlimit: 4;
}
.g7_420{
fill: none;
stroke: #77797B;
stroke-width: 1.527;
stroke-linecap: butt;
stroke-linejoin: miter;
stroke-miterlimit: 4;
}
.g8_420{
fill: none;
stroke: #FFFFFF;
stroke-width: 1.909;
stroke-linecap: butt;
stroke-linejoin: miter;
}
.g9_420{
fill: none;
stroke: #000000;
stroke-width: 0.381;
stroke-linecap: butt;
stroke-linejoin: miter;
}
]]></style>
</defs>
<g clip-path="url(#c0_420)">
<image clip-path="url(#c0_420)" preserveAspectRatio="none" x="91" y="108" width="74" height="110" xlink:href="img/1.jpg"/>
</g>
<image clip-path="url(#c1_420)" preserveAspectRatio="none" x="103" y="226" width="248" height="69" xlink:href="img/2.jpg"/>
<path d="M111.3,240l1.1,40.7l224.3,-6l-1.1,-40.8L111.3,240Z" class="g0_420"/>
<path d="M111.3,240l1.1,40.7l224.3,-6l-1.1,-40.8L111.3,240Z" class="g1_420"/>
<image clip-path="url(#c2_420)" preserveAspectRatio="none" x="104" y="296" width="357" height="41" xlink:href="img/3.jpg"/>
<path d="M112.6,304v16.7l340,1.9l.1,-16.7L112.6,304Z" class="g0_420"/>
<path d="M112.6,304v16.7l340,1.9l.1,-16.7L112.6,304Z" class="g1_420"/>
<image clip-path="url(#c3_420)" preserveAspectRatio="none" x="140" y="339" width="166" height="58" xlink:href="img/4.jpg"/>
<path d="M148.1,347.5l-.2,35.5l143.4,.6l.2,-35.5l-143.4,-.6Z" class="g0_420"/>
<path d="M148.1,347.5h-.8l-.1,35.5v.8h.7l143.4,.6h.8v-.8l.1,-35.5v-.7h-.7l-143.4,-.6l-.8,-.1v.8h.8v.8l143.3,.6l.1,-.8h-.8l-.2,35.5h.8v-.8l-143.4,-.6v.8h.8l.1,-35.5h-.7v.8v-.8Z" class="g2_420"/>
<image clip-path="url(#c4_420)" preserveAspectRatio="none" x="190" y="432" width="470" height="90" xlink:href="img/5.jpg"/>
<path d="M199.4,440.2l-1.5,55.7l446.7,11.6l1.5,-55.7L199.4,440.2Z" class="g0_420"/>
<path d="M199.4,440.2l-.8,-.1l-1.4,55.8l-.1,.7l.8,.1l446.7,11.6h.8v-.7l1.5,-55.8v-.7h-.8L199.4,439.4h-.8v.7l.8,.1v.7l446.7,11.7v-.8h-.8l-1.4,55.7h.7l.1,-.7L198,495.1l-.1,.8h.8l1.5,-55.7h-.8v.7v-.7Z" class="g2_420"/>
<image clip-path="url(#c5_420)" preserveAspectRatio="none" x="190" y="736" width="330" height="84" xlink:href="img/6.jpg"/>
<path d="M197.9,746.6l.6,59.2l307.4,-2.9l-.5,-59.2l-307.5,2.9Z" class="g0_420"/>
<path d="M197.9,746.6h-.7l.5,59.2v.8l.8,-.1l307.4,-2.8h.8v-.8l-.5,-59.2l-.1,-.7h-.7l-307.5,2.8h-.8l.1,.8h.7v.7l307.5,-2.8v-.8h-.8l.6,59.3l.7,-.1v-.7L198.5,805v.8h.7l-.5,-59.2h-.8v.7v-.7Z" class="g2_420"/>
<image clip-path="url(#c6_420)" preserveAspectRatio="none" x="190" y="864" width="559" height="77" xlink:href="img/7.jpg"/>
<image clip-path="url(#c7_420)" preserveAspectRatio="none" x="621" y="864" width="100" height="5" xlink:href="img/8.jpg"/>
<image clip-path="url(#c8_420)" preserveAspectRatio="none" x="621" y="864" width="100" height="5" xlink:href="img/9.jpg"/>
<path d="M198.7,872.2l-.8,46.1l536.6,8.5l.8,-46L198.7,872.2Z" class="g0_420"/>
<path d="M198.7,872.2h-.8l-.7,46.1l-.1,.7h.8l536.6,8.6h.8v-.7l.7,-46.1V880h-.7L198.7,871.4h-.8v.8h.8l-.1,.8l536.7,8.6v-.8h-.8l-.7,46h.7v-.7L197.9,917.5v.8h.8l.7,-46.1h-.7l-.1,.8l.1,-.8Z" class="g2_420"/>
<image clip-path="url(#c9_420)" preserveAspectRatio="none" x="140" y="383" width="461" height="58" xlink:href="img/10.jpg"/>
<image clip-path="url(#ca_420)" preserveAspectRatio="none" x="140" y="383" width="166" height="14" xlink:href="img/11.jpg"/>
<image clip-path="url(#cb_420)" preserveAspectRatio="none" x="147" y="383" width="145" height="2" xlink:href="img/12.jpg"/>
<image clip-path="url(#cc_420)" preserveAspectRatio="none" x="190" y="432" width="411" height="9" xlink:href="img/13.jpg"/>
<image clip-path="url(#cd_420)" preserveAspectRatio="none" x="198" y="439" width="58" height="2" xlink:href="img/14.jpg"/>
<path d="M147.9,401.1l.7,26L586.9,416.6l-.6,-25.9L147.9,401.1Z" class="g0_420"/>
<path d="M147.9,401.2l.7,25.9L586.9,416.6l-.6,-25.9L147.9,401.2Z" class="g1_420"/>
<image clip-path="url(#ce_420)" preserveAspectRatio="none" x="460" y="291" width="188" height="63" xlink:href="img/15.jpg"/>
<image clip-path="url(#cf_420)" preserveAspectRatio="none" x="460" y="296" width="7" height="41" xlink:href="img/16.jpg"/>
<path d="M470,298.6l-2.5,23.7l164.6,17.6l2.6,-23.7L470,298.6Z" class="g0_420"/>
<path d="M470,298.6l-2.5,23.7l164.6,17.6l2.6,-23.7L470,298.6Z" class="g3_420"/>
<image clip-path="url(#cg_420)" preserveAspectRatio="none" x="140" y="689" width="218" height="64" xlink:href="img/17.jpg"/>
<image clip-path="url(#ch_420)" preserveAspectRatio="none" x="190" y="736" width="168" height="17" xlink:href="img/18.jpg"/>
<image clip-path="url(#ci_420)" preserveAspectRatio="none" x="198" y="745" width="160" height="8" xlink:href="img/19.jpg"/>
<image clip-path="url(#cj_420)" preserveAspectRatio="none" x="197" y="744" width="161" height="9" xlink:href="img/20.jpg"/>
<path d="M150,697l-2,28l193.6,14.1l2.1,-28L150,697Z" class="g0_420"/>
<path d="M150,697h-.7l-2.1,28v.7l.7,.1l193.7,14.1h.7l.1,-.7l2,-28l.1,-.8h-.8L150.1,696.3l-.8,-.1v.8h.7v.8l193.6,14.1l.1,-.8h-.8l-2,28h.7l.1,-.7L148,724.3v.7l.7,.1l2.1,-28L150,697v.8V697Z" class="g2_420"/>
<image clip-path="url(#ck_420)" preserveAspectRatio="none" x="140" y="534" width="248" height="49" xlink:href="img/21.jpg"/>
<path d="M147.9,543.9l.3,24.9l225.3,-2.3l-.2,-24.9l-225.4,2.3Z" class="g0_420"/>
<path d="M147.9,543.9h-.7l.2,24.9v.8l.8,-.1l225.3,-2.2h.8v-.8L374,541.6v-.8h-.7l-225.4,2.3h-.7v.8h.7v.7l225.4,-2.2v-.8h-.8l.3,24.9h.7v-.8L148.2,568v.8h.7l-.2,-24.9h-.8v.7v-.7Z" class="g2_420"/>
<image clip-path="url(#cl_420)" preserveAspectRatio="none" x="190" y="562" width="501" height="116" xlink:href="img/22.jpg"/>
<image clip-path="url(#cm_420)" preserveAspectRatio="none" x="190" y="562" width="198" height="21" xlink:href="img/23.jpg"/>
<image clip-path="url(#cn_420)" preserveAspectRatio="none" x="190" y="562" width="183" height="6" xlink:href="img/24.jpg"/>
<image clip-path="url(#co_420)" preserveAspectRatio="none" x="190" y="562" width="185" height="7" xlink:href="img/25.jpg"/>
<image clip-path="url(#cp_420)" preserveAspectRatio="none" x="190" y="562" width="28" height="2" xlink:href="img/26.jpg"/>
<path d="M197.9,578.9l1.5,85.2l477.7,-8.3l-1.5,-85.2l-477.7,8.3Z" class="g0_420"/>
<path d="M197.9,578.9l1.5,85.2l477.7,-8.3l-1.5,-85.2l-477.7,8.3Z" class="g1_420"/>
<image clip-path="url(#cq_420)" preserveAspectRatio="none" x="140" y="824" width="219" height="58" xlink:href="img/27.jpg"/>
<image clip-path="url(#cr_420)" preserveAspectRatio="none" x="190" y="864" width="169" height="18" xlink:href="img/28.jpg"/>
<image clip-path="url(#cs_420)" preserveAspectRatio="none" x="199" y="873" width="160" height="9" xlink:href="img/29.jpg"/>
<image clip-path="url(#ct_420)" preserveAspectRatio="none" x="197" y="871" width="162" height="11" xlink:href="img/30.jpg"/>
<image clip-path="url(#cu_420)" preserveAspectRatio="none" x="202" y="879" width="105" height="3" xlink:href="img/31.jpg"/>
<image clip-path="url(#cv_420)" preserveAspectRatio="none" x="202" y="879" width="105" height="3" xlink:href="img/32.jpg"/>
<path d="M148,839.6l1.1,28.1L344.8,860l-1.1,-28.1L148,839.6Z" class="g0_420"/>
<path d="M148,839.6h-.8l1.1,28.1v.8l.8,-.1l195.7,-7.7h.8v-.8l-1.1,-28l-.1,-.8h-.7l-195.8,7.7l-.7,.1v.7h.8v.8l195.7,-7.7v-.8h-.8L344,860h.8v-.8L149,866.9l.1,.8l.7,-.1l-1.1,-28H148v.8v-.8Z" class="g2_420"/>
<image clip-path="url(#cw_420)" preserveAspectRatio="none" x="140" y="651" width="44" height="39" xlink:href="img/33.jpg"/>
<image clip-path="url(#cx_420)" preserveAspectRatio="none" x="140" y="689" width="44" height="12" xlink:href="img/34.jpg"/>
<image clip-path="url(#cy_420)" preserveAspectRatio="none" x="150" y="697" width="34" height="4" xlink:href="img/35.jpg"/>
<image clip-path="url(#cz_420)" preserveAspectRatio="none" x="149" y="696" width="35" height="5" xlink:href="img/36.jpg"/>
<path d="M148,660.8l3.1,26.1l19,-2.3L167,658.5l-19,2.3Z" class="g0_420"/>
<path d="M148,660.8l3.1,26.1l19,-2.3L167,658.5l-19,2.3Z" class="g4_420"/>
<image clip-path="url(#c10_420)" preserveAspectRatio="none" x="140" y="500" width="43" height="34" xlink:href="img/37.jpg"/>
<image clip-path="url(#c11_420)" preserveAspectRatio="none" x="140" y="534" width="43" height="15" xlink:href="img/38.jpg"/>
<image clip-path="url(#c12_420)" preserveAspectRatio="none" x="148" y="544" width="35" height="5" xlink:href="img/39.jpg"/>
<image clip-path="url(#c13_420)" preserveAspectRatio="none" x="147" y="543" width="36" height="6" xlink:href="img/40.jpg"/>
<path d="M149.9,507.4L148,533.6l19,1.4l1.9,-26.2l-19,-1.4Z" class="g0_420"/>
<path d="M149.9,507.4L148,533.6l19,1.4l1.9,-26.2l-19,-1.4Z" class="g5_420"/>
<image clip-path="url(#c14_420)" preserveAspectRatio="none" x="647" y="302" width="33" height="50" xlink:href="img/41.jpg"/>
<image clip-path="url(#c15_420)" preserveAspectRatio="none" x="636" y="302" width="12" height="50" xlink:href="img/42.jpg"/>
<path d="M667,335.5l-4.7,-25.8L643.5,313l4.7,25.9L667,335.5Z" class="g0_420"/>
<path d="M667,335.5l-4.7,-25.8l-18.8,3.4l4.7,25.8L667,335.5Z" class="g6_420"/>
<image clip-path="url(#c16_420)" preserveAspectRatio="none" x="604" y="385" width="42" height="48" xlink:href="img/43.jpg"/>
<image clip-path="url(#c17_420)" preserveAspectRatio="none" x="604" y="432" width="42" height="2" xlink:href="img/44.jpg"/>
<path d="M630.9,419.9l.2,-26.3L612,393.4l-.2,26.3l19.1,.2Z" class="g0_420"/>
<path d="M630.9,419.9l.2,-26.3L612,393.4l-.2,26.3l19.1,.2Z" class="g1_420"/>
<image clip-path="url(#c18_420)" preserveAspectRatio="none" x="140" y="792" width="43" height="32" xlink:href="img/45.jpg"/>
<image clip-path="url(#c19_420)" preserveAspectRatio="none" x="140" y="824" width="43" height="17" xlink:href="img/46.jpg"/>
<image clip-path="url(#c1a_420)" preserveAspectRatio="none" x="148" y="839" width="35" height="2" xlink:href="img/47.jpg"/>
<image clip-path="url(#c1b_420)" preserveAspectRatio="none" x="147" y="837" width="36" height="4" xlink:href="img/48.jpg"/>
<path d="M149.9,799.8L148,826l19,1.4l1.9,-26.2l-19,-1.4Z" class="g0_420"/>
<path d="M149.9,799.8L148,826l19,1.4l1.9,-26.2l-19,-1.4Z" class="g5_420"/>
<image clip-path="url(#c1c_420)" preserveAspectRatio="none" x="140" y="910" width="44" height="49" xlink:href="img/49.jpg"/>
<path d="M148,919.6l3.1,26.1l19,-2.3l-3.1,-26l-19,2.2Z" class="g0_420"/>
<path d="M148,919.6l-.7,.1l3.1,26.1l.1,.8l.7,-.1l19,-2.3l.7,-.1v-.8l-3.2,-26l-.1,-.8l-.7,.1l-19,2.3l-.7,.1l.1,.7l.7,-.1l.1,.8l19,-2.3l-.1,-.7h-.8l3.1,26.1l.8,-.1l-.1,-.7L151.1,945v.7l.8,-.1l-3.1,-26.1l-.8,.1l.1,.8l-.1,-.8Z" class="g2_420"/>
<image clip-path="url(#c1d_420)" preserveAspectRatio="none" x="104" y="917" width="43" height="50" xlink:href="img/50.jpg"/>
<image clip-path="url(#c1e_420)" preserveAspectRatio="none" x="140" y="917" width="7" height="42" xlink:href="img/51.jpg"/>
<path d="M111.4,927.2l3.1,26.1l19,-2.3l-3.2,-26.1l-18.9,2.3Z" class="g0_420"/>
<path d="M111.4,927.2l3.1,26.1l19,-2.3l-3.1,-26.1l-19,2.3Z" class="g4_420"/>
<path d="M609,824.4c-3.5,-2,-6.9,-.8,-10.3,.5c-6.7,2.6,-13.6,5.9,-20,9.1c-5.3,2.6,-9.7,5.6,-14.1,9.5c-2.3,2,-4.6,5.4,-7.4,6.7c-.5,-2.9,1.7,-6.4,2.7,-9.1c-3,-.9,-5.1,12,-4.7,14.2c3.4,0,8.8,-2,11.4,-4.1" class="g7_420"/>
<g clip-path="url(#c1f_420)">
<path d="M-4,13.1H-26.9m939.5,0h22.9M-4,1030.6H-26.9m939.5,0h22.9M14.3,-5.1V-28m0,1077v22.9m880,-1077V-28m0,1077v22.9" class="g8_420"/>
<path d="M-4,13.1H-26.9m939.5,0h22.9M-4,1030.6H-26.9m939.5,0h22.9M14.3,-5.1V-28m0,1077v22.9m880,-1077V-28m0,1077v22.9" class="g9_420"/>
</g>
</svg>