<?xml version="1.0" encoding="UTF-8" standalone="no"?>
<!DOCTYPE svg PUBLIC "-//W3C//DTD SVG 1.1//EN"
"http://www.w3.org/Graphics/SVG/1.1/DTD/svg11.dtd">
<svg viewBox="0 0 931 1096" version="1.1" xmlns="http://www.w3.org/2000/svg" xmlns:xlink="http://www.w3.org/1999/xlink">
<defs>
<clipPath id="c0_90"><path d="M448.2,212.7c-4.3,0,-7.8,-2.7,-7.8,-6v-8.2L427,203.3V181.5l13.4,4.8v-8.8c0,-3.3,3.5,-5.9,7.8,-5.9H493c4.3,0,7.8,2.6,7.8,5.9v8.9l13,-4.9l-.1,21.8l-12.9,-5v8.4c0,3.3,-3.5,6,-7.8,6Z"/></clipPath>
<clipPath id="c1_90"><path d="M449.6,209.5c-3.2,0,-5.9,-2,-5.9,-4.4V194.7L427,199.6V183.8l16.7,4.9V177.8c0,-2.4,2.7,-4.4,5.9,-4.4h42.1c3.2,0,5.8,2,5.8,4.4v11l16.3,-5l-.1,15.8l-16.2,-5.1v10.6c0,2.4,-2.6,4.4,-5.8,4.4Z"/></clipPath>
<clipPath id="c2_90"><path d="M616.1,212.7c-4.3,0,-7.8,-2.7,-7.8,-6v-8.2L595,203.3l-.1,-21.8l13.4,4.8v-8.8c0,-3.3,3.5,-5.9,7.8,-5.9h44.8c4.4,0,7.9,2.6,7.9,5.9v8.9l12.9,-4.9l-.1,21.8l-12.8,-5v8.4c0,3.3,-3.5,6,-7.9,6Z"/></clipPath>
<clipPath id="c3_90"><path d="M617.5,210.5c-3.2,0,-5.8,-2,-5.8,-4.4V195.6l-16.7,5l-.1,-15.8l16.8,4.9V178.8c0,-2.5,2.6,-4.5,5.8,-4.5h42.1c3.2,0,5.8,2,5.8,4.5v11l16.3,-5l-.1,15.8l-16.2,-5.1v10.6c0,2.4,-2.6,4.4,-5.8,4.4Z"/></clipPath>
<clipPath id="c4_90"><path d="M516.5,832.4V815.2h82.3v17.2Z"/></clipPath>
<clipPath id="c5_90"><path d="M516.5,892V874.8h82.3V892Z"/></clipPath>
<clipPath id="c6_90"><path d="M487,936.3V919.1H598.1v17.2Z"/></clipPath>
<style type="text/css"><![CDATA[
.g0_90{
fill: none;
stroke: #EE008C;
stroke-width: 0.935;
stroke-linejoin: round;
}
.g1_90{
fill: #EE008C;
}
.g2_90{
fill: #FFF;
}
.g3_90{
fill: none;
stroke: #00AEEF;
stroke-width: 1.145;
}
.g4_90{
fill: none;
stroke: #00AEEF;
stroke-width: 0.763;
}
.g5_90{
fill: none;
stroke: #241F1F;
stroke-width: 0.763;
stroke-miterlimit: 10;
}
]]></style>
</defs>
<image clip-path="url(#c0_90)" x="426" y="171" width="88" height="42" xlink:href="shade/1.png"/>
<image clip-path="url(#c1_90)" x="426" y="173" width="88" height="37" xlink:href="shade/2.png"/>
<image clip-path="url(#c2_90)" x="594" y="171" width="88" height="42" xlink:href="shade/3.png"/>
<image clip-path="url(#c3_90)" x="594" y="174" width="88" height="37" xlink:href="shade/4.png"/>
<path d="M404.4,192.8h28" class="g0_90"/>
<path d="M437.5,192.8l-6.7,2.5l1.6,-2.5l-1.6,-2.5Z" class="g1_90"/>
<path d="M506.5,192.8h23.3" class="g0_90"/>
<path d="M534.9,192.8l-6.6,2.5l1.5,-2.5l-1.5,-2.5Z" class="g1_90"/>
<path d="M577,192.3h23.4" class="g0_90"/>
<path d="M605.4,192.3l-6.6,2.5l1.6,-2.5l-1.6,-2.5Z" class="g1_90"/>
<path d="M674.4,192.3h28" class="g0_90"/>
<path d="M707.5,192.3l-6.6,2.5l1.5,-2.5l-1.5,-2.5Z" class="g1_90"/>
<path d="M290.7,493.5c0,0,-3.1,0,-3.1,3.1V631.8c0,0,0,3,3.1,3H820.1c0,0,3,0,3,-3V496.6c0,0,0,-3.1,-3,-3.1Z" class="g2_90"/>
<path d="M303.8,504.4c0,0,-1.5,0,-1.5,1.5v14.2c0,0,0,1.5,1.5,1.5H318c0,0,1.5,0,1.5,-1.5V505.9c0,0,0,-1.5,-1.5,-1.5H303.8Z" class="g3_90"/>
<path d="M290.7,493.5c0,0,-3.1,0,-3.1,3.1V631.8c0,0,0,3,3.1,3H820.1c0,0,3,0,3,-3V496.6c0,0,0,-3.1,-3,-3.1H290.7Z" class="g4_90"/>
<path clip-path="url(#c4_90)" d="M560.6,815.6h38.6" class="g5_90"/>
<path clip-path="url(#c5_90)" d="M560.6,875.2h38.6" class="g5_90"/>
<path clip-path="url(#c6_90)" d="M560,919.5h38.5" class="g5_90"/>
</svg>