<?xml version="1.0" encoding="UTF-8" standalone="no"?>
<!DOCTYPE svg PUBLIC "-//W3C//DTD SVG 1.1//EN"
"http://www.w3.org/Graphics/SVG/1.1/DTD/svg11.dtd">
<svg viewBox="0 0 931 1096" version="1.1" xmlns="http://www.w3.org/2000/svg" xmlns:xlink="http://www.w3.org/1999/xlink">
<defs>
<clipPath id="c0_83"><path d="M126.1,542.1c-5,0,-9.1,-4,-9.1,-9.1V441.3c0,-5,4.1,-9.1,9.1,-9.1H275.8c5.1,0,9.2,4.1,9.2,9.1V533c0,5.1,-4.1,9.1,-9.2,9.1Z"/></clipPath>
<style type="text/css"><![CDATA[
.g0_83{
fill: none;
stroke: #241F1F;
stroke-width: 0.763;
stroke-miterlimit: 10;
}
.g1_83{
fill: #D0007A;
}
.g2_83{
fill: none;
stroke: #EE008C;
stroke-width: 0.762;
stroke-linejoin: round;
}
.g3_83{
fill: none;
stroke: #00AEEF;
stroke-width: 0.762;
stroke-linejoin: round;
}
.g4_83{
fill: none;
stroke: #241F1F;
stroke-width: 0.609;
stroke-miterlimit: 3;
}
.g5_83{
fill: #241F1F;
}
.g6_83{
fill: none;
stroke: #EE008C;
stroke-width: 0.916;
stroke-miterlimit: 3;
}
.g7_83{
fill: none;
stroke: #00AEEF;
stroke-width: 0.916;
stroke-miterlimit: 3;
}
.g8_83{
fill: none;
stroke: #00AEEF;
stroke-width: 0.534;
stroke-miterlimit: 3;
}
.g9_83{
fill: none;
stroke: #241F1F;
stroke-width: 0.534;
stroke-miterlimit: 3;
}
]]></style>
</defs>
<path d="M575.8,190.1H588m-12.2,44.3H588m14.3,0h12.2m48.8,0h16.8M575.8,278.7H588m14.3,0h16.8m48.8,0h16.8M575.8,323H588m14.3,0h16.8m48.8,0h16.8M517,405.5h28.6" class="g0_83"/>
<path d="M343.8,604.5c0,0,-1.6,0,-1.6,1.6v9.1c0,0,0,1.5,1.6,1.5h9.1c0,0,1.6,0,1.6,-1.5v-9.1c0,0,0,-1.6,-1.6,-1.6Z" class="g1_83"/>
<path d="M627.6,941.9L776.3,778.2" class="g2_83"/>
<path d="M742.7,778.2c-20.7,74,-55.1,111.7,-122.8,118" class="g3_83"/>
<path d="M342.7,916.7L506.4,803" class="g2_83"/>
<path d="M489.3,778.5c-29.2,66.3,-79.4,101.1,-147,111.7" class="g3_83"/>
<path d="M619.7,900.7H784.5" class="g4_83"/>
<path fill-rule="evenodd" d="M784.5,900.7l-1.7,-2.4l6.5,2.4l-6.5,2.5Z" class="g5_83"/>
<path d="M702.1,941.9V777.2" class="g4_83"/>
<path fill-rule="evenodd" d="M702.1,777.2l-2.5,1.6l2.5,-6.5l2.4,6.5Z" class="g5_83"/>
<path d="M342.3,900.7H507.1" class="g4_83"/>
<path fill-rule="evenodd" d="M507.1,900.7l-1.7,-2.4l6.5,2.4l-6.5,2.5Z" class="g5_83"/>
<path d="M424.7,941.9V777.2" class="g4_83"/>
<path fill-rule="evenodd" d="M424.7,777.2l-2.5,1.6l2.5,-6.5l2.4,6.5Z" class="g5_83"/>
<g clip-path="url(#c0_83)">
<path d="M281.9,536l3.3,.3m-7.1,-.8l3.8,.5m-7.1,-.7l3.3,.2m-6.9,-.7l3.6,.5m-6.9,-.7l3.3,.2m-7.1,-.8l3.8,.6m-7.1,-1l3.3,.4m-6.9,-.9l3.6,.5m-6.9,-1l3.3,.5m-6.9,-1l3.6,.5m-7.2,-1.3l3.6,.8m-7.1,-1.2l3.5,.4m-7.1,-1.2l3.6,.8m-6.9,-1.5l3.3,.7m-6.9,-1.5l3.6,.8m-7.2,-1.5l3.6,.7m-6.9,-1.4l3.3,.7m-6.8,-1.7l3.5,1m-7.1,-2l3.6,1m-7.2,-2l3.6,1m-7.1,-2l3.5,1M208,522l3.6,1.2M204.7,521l3.3,1m-6.9,-2.2l3.6,1.2m-7.2,-2.7l3.6,1.5M194,517l3.5,1.3m-6.9,-2.7L194,517m-6.7,-2.9l3.3,1.5m-6.8,-3.2l3.5,1.7m-7.1,-3.5l3.6,1.8m-6.9,-3.7l3.3,1.9m-6.9,-3.9l3.6,2m-7.2,-4l3.6,2m-7.1,-4.4l3.5,2.4m-6.9,-4.4l3.4,2m-6.9,-4.7l3.5,2.7m-7.1,-5.2l3.6,2.5m-7.2,-5.4l3.6,2.9m-6.9,-5.6l3.3,2.7m-6.8,-6l3.5,3.3m-7.1,-6.7l3.6,3.4m-7.2,-6.9l3.6,3.5m-7.2,-7.1l3.6,3.6m-6.9,-7.6l3.3,4m-6.8,-8.2l3.5,4.2m-7.1,-8.6l3.6,4.4m-7.2,-9.4l3.6,5m-6.9,-9.6l3.3,4.6" class="g6_83"/>
<path d="M117.2,523.5h168" class="g7_83"/>
</g>
<path d="M126.1,432.2H275.8c5.1,0,9.2,4.1,9.2,9.1V533c0,5.1,-4.1,9.1,-9.2,9.1H126.1c-5,0,-9.1,-4,-9.1,-9.1V441.3c0,-5,4.1,-9.1,9.1,-9.1Z" class="g8_83"/>
<path d="M117.1,523.5h1.8M117.1,505h2.1m-2.1,-18.3h2.1m-2.1,-18.4h2.1m-2.1,-18.5h2.1m31.7,92.4v-2.4m33.6,2.4v-2.4m33.4,2.4v-2.4m33.7,2.4v-2.4" class="g9_83"/>
</svg>