<?xml version="1.0" encoding="UTF-8" standalone="no"?>
<!DOCTYPE svg PUBLIC "-//W3C//DTD SVG 1.1//EN"
"http://www.w3.org/Graphics/SVG/1.1/DTD/svg11.dtd">
<svg viewBox="0 0 935 1210" version="1.1" xmlns="http://www.w3.org/2000/svg" xmlns:xlink="http://www.w3.org/1999/xlink">
<defs>
<clipPath id="c0_808"><path d="M42.8,1168.2V41.8H892.2V1168.2Z"/></clipPath>
<style type="text/css"><![CDATA[
.g0_808{
fill: #D9D9D9;
}
.g1_808{
}
]]></style>
</defs>
<path d="M93.4,973.5H302.5v39.6H93.4V973.5Z" class="g0_808"/>
<path d="M302.5,973.5H855.9v39.6H302.5V973.5Z" class="g0_808"/>
<path d="M302.5,1131.9H857v1.1H302.5v-1.1Z" class="g1_808"/>
<g clip-path="url(#c0_808)">
<path d="M302.5,1131.9h1.1v40.7h-1.1v-40.7Z" class="g1_808"/>
<path d="M855.9,1131.9H857v40.7h-1.1v-40.7Z" class="g1_808"/>
</g>
<path d="M93.4,1131.9H303.6v1.1H93.4v-1.1Z" class="g1_808"/>
<g clip-path="url(#c0_808)">
<path d="M93.4,1131.9h1.1v40.7H93.4v-40.7Z" class="g1_808"/>
<path d="M302.5,1131.9h1.1v40.7h-1.1v-40.7Z" class="g1_808"/>
</g>
<path d="M302.5,1092.3H857v1.1H302.5v-1.1Z" class="g1_808"/>
<path d="M302.5,1131.9H857v1.1H302.5v-1.1Z" class="g1_808"/>
<path d="M302.5,1092.3h1.1V1133h-1.1v-40.7Z" class="g1_808"/>
<path d="M855.9,1092.3H857V1133h-1.1v-40.7Z" class="g1_808"/>
<path d="M93.4,1092.3H303.6v1.1H93.4v-1.1Z" class="g1_808"/>
<path d="M93.4,1131.9H303.6v1.1H93.4v-1.1Z" class="g1_808"/>
<path d="M93.4,1092.3h1.1V1133H93.4v-40.7Z" class="g1_808"/>
<path d="M302.5,1092.3h1.1V1133h-1.1v-40.7Z" class="g1_808"/>
<path d="M302.5,1052.7H857v1.1H302.5v-1.1Z" class="g1_808"/>
<path d="M302.5,1092.3H857v1.1H302.5v-1.1Z" class="g1_808"/>
<path d="M302.5,1052.7h1.1v40.7h-1.1v-40.7Z" class="g1_808"/>
<path d="M855.9,1052.7H857v40.7h-1.1v-40.7Z" class="g1_808"/>
<path d="M93.4,1052.7H303.6v1.1H93.4v-1.1Z" class="g1_808"/>
<path d="M93.4,1092.3H303.6v1.1H93.4v-1.1Z" class="g1_808"/>
<path d="M93.4,1052.7h1.1v40.7H93.4v-40.7Z" class="g1_808"/>
<path d="M302.5,1052.7h1.1v40.7h-1.1v-40.7Z" class="g1_808"/>
<path d="M302.5,1013.1H857v1.1H302.5v-1.1Z" class="g1_808"/>
<path d="M302.5,1052.7H857v1.1H302.5v-1.1Z" class="g1_808"/>
<path d="M302.5,1013.1h1.1v40.7h-1.1v-40.7Z" class="g1_808"/>
<path d="M855.9,1013.1H857v40.7h-1.1v-40.7Z" class="g1_808"/>
<path d="M93.4,1013.1H303.6v1.1H93.4v-1.1Z" class="g1_808"/>
<path d="M93.4,1052.7H303.6v1.1H93.4v-1.1Z" class="g1_808"/>
<path d="M93.4,1013.1h1.1v40.7H93.4v-40.7Z" class="g1_808"/>
<path d="M302.5,1013.1h1.1v40.7h-1.1v-40.7Z" class="g1_808"/>
<path d="M302.5,973.5H857v1.1H302.5v-1.1Z" class="g1_808"/>
<path d="M302.5,1013.1H857v1.1H302.5v-1.1Z" class="g1_808"/>
<path d="M302.5,973.5h1.1v40.7h-1.1V973.5Z" class="g1_808"/>
<path d="M855.9,973.5H857v40.7h-1.1V973.5Z" class="g1_808"/>
<path d="M93.4,973.5H303.6v1.1H93.4v-1.1Z" class="g1_808"/>
<path d="M93.4,1013.1H303.6v1.1H93.4v-1.1Z" class="g1_808"/>
<path d="M93.4,973.5h1.1v40.7H93.4V973.5Z" class="g1_808"/>
<path d="M302.5,973.5h1.1v40.7h-1.1V973.5Z" class="g1_808"/>
<image clip-path="url(#c0_808)" preserveAspectRatio="none" x="43" y="126" width="849" height="483" xlink:href="img/1.jpg"/>
</svg>