<?xml version="1.0" encoding="UTF-8" standalone="no"?>
<!DOCTYPE svg PUBLIC "-//W3C//DTD SVG 1.1//EN"
"http://www.w3.org/Graphics/SVG/1.1/DTD/svg11.dtd">
<svg viewBox="0 0 660 990" version="1.1" xmlns="http://www.w3.org/2000/svg" xmlns:xlink="http://www.w3.org/1999/xlink">
<defs>
<clipPath id="c0_132"><path d="M86.9,450.9l-1.2,-2.3l-1.2,-2.4H576.2l-1.1,2.4l-1.2,2.3Z"/></clipPath>
<clipPath id="c1_132"><path d="M577.3,730.6L575,729.4l-2.4,-1.2V449.7l2.4,-1.2l2.3,-1.2V730.6Z"/></clipPath>
<clipPath id="c2_132"><path d="M84.5,731.7l1.2,-2.4L86.9,727h487l1.2,2.3l1.1,2.4Z"/></clipPath>
<clipPath id="c3_132"><path d="M83.5,730.6V447.3l2.3,1.2l2.4,1.2V728.2l-2.4,1.2l-2.3,1.2Z"/></clipPath>
<clipPath id="c4_132"><path d="M85.6,915.9v-5.1H574.4v5.1Z"/></clipPath>
<style type="text/css"><![CDATA[
.g0_132{
fill: none;
stroke: #231F20;
stroke-width: 0.381;
stroke-linecap: round;
stroke-linejoin: miter;
}
.g1_132{
fill: none;
stroke: #231F20;
stroke-width: 0.763;
stroke-linecap: round;
stroke-linejoin: miter;
}
.g2_132{
fill: none;
stroke: #231F20;
stroke-width: 0.848;
stroke-linecap: butt;
stroke-linejoin: miter;
}
.g3_132{
fill: #231F20;
}
]]></style>
</defs>
<path clip-path="url(#c0_132)" d="M85.6,448.6H575.1" class="g0_132"/>
<path clip-path="url(#c1_132)" d="M575,448.4V729.5" class="g0_132"/>
<path clip-path="url(#c2_132)" d="M575.1,729.3H85.6" class="g0_132"/>
<path clip-path="url(#c3_132)" d="M85.8,729.5V448.4" class="g0_132"/>
<path clip-path="url(#c4_132)" d="M85.6,913.4H574.4" class="g1_132"/>
<path d="M141,197.9H243.2" class="g2_132"/>
<path d="M146.3,196c-1.5,-2.6,-2.3,-7.5,-2.3,-19c0,-11.5,.8,-16.5,2.3,-19l-.2,-.7c-2.2,3,-3.2,7.9,-3.2,19.6c0,11.8,1,16.8,3.2,19.8l.2,-.7Z" class="g3_132"/>
<path d="M174.6,191.4c-1.5,-2.5,-2.4,-7.5,-2.4,-14.4c0,-7,.9,-11.9,2.4,-14.4l-.3,-.7c-2.2,3,-3.1,7.9,-3.1,15c0,7.3,.9,12.2,3.1,15.2l.3,-.7Z" class="g3_132"/>
<path d="M199.2,177h13.7" class="g2_132"/>
<path d="M214.4,162.6c1.5,2.5,2.4,7.4,2.4,14.4c0,6.9,-.8,11.8,-2.4,14.4l.3,.7c2.3,-3.1,3.2,-7.9,3.2,-15.1c0,-7.2,-.9,-12.1,-3.2,-15.1l-.3,.7Z" class="g3_132"/>
<path d="M232,158c1.5,2.5,2.3,7.5,2.3,19c0,11.5,-.8,16.4,-2.3,19l.3,.7c2.2,-3.1,3.1,-8,3.1,-19.7c0,-11.8,-.9,-16.6,-3.1,-19.7l-.3,.7Z" class="g3_132"/>
<image preserveAspectRatio="none" x="146" y="456" width="369" height="264" xlink:href="img/1.jpg"/>
</svg>