<?xml version="1.0" encoding="UTF-8" standalone="no"?>
<!DOCTYPE svg PUBLIC "-//W3C//DTD SVG 1.1//EN"
"http://www.w3.org/Graphics/SVG/1.1/DTD/svg11.dtd">
<svg viewBox="0 0 931 1096" version="1.1" xmlns="http://www.w3.org/2000/svg" xmlns:xlink="http://www.w3.org/1999/xlink">
<defs>
<clipPath id="c0_117"><path d="M461.1,939.8V922.3H612.5v17.5Z"/></clipPath>
<clipPath id="c1_117"><path d="M745.1,1046.2v-16.9h56.1v16.9Z"/></clipPath>
<style type="text/css"><![CDATA[
.g0_117{
fill: none;
stroke: #241F1F;
stroke-width: 0.534;
stroke-miterlimit: 10;
}
.g1_117{
fill: none;
stroke: #EE008C;
stroke-width: 0.916;
stroke-linejoin: round;
}
.g2_117{
fill: none;
stroke: #241F1F;
stroke-width: 0.611;
stroke-miterlimit: 3;
}
.g3_117{
fill: #241F1F;
}
.g4_117{
fill: none;
stroke: #241F1F;
stroke-width: 0.763;
stroke-miterlimit: 10;
}
.g5_117{
fill: none;
stroke: #EE008C;
stroke-width: 0.763;
stroke-linejoin: round;
}
.g6_117{
fill: none;
stroke: #241F1F;
stroke-width: 0.381;
stroke-miterlimit: 3;
}
.g7_117{
fill: #FFF;
}
]]></style>
</defs>
<path d="M573.3,623.9h5.4" class="g0_117"/>
<path d="M549.4,721.3l76.4,114.6M512.7,721.3l76.4,114.6m-3,-114.6l76.3,114.6M622.7,721.3l76.4,114.6" class="g1_117"/>
<path d="M586.1,805.4V716.7" class="g2_117"/>
<path fill-rule="evenodd" d="M586.1,716.7l-2.5,1.7l2.5,-6.5l2.4,6.5Z" class="g3_117"/>
<path d="M586.1,845.1V828.3m-73.4,-52H700.6" class="g2_117"/>
<path fill-rule="evenodd" d="M700.6,776.3L699,773.9l6.5,2.4l-6.5,2.5Z" class="g3_117"/>
<path clip-path="url(#c0_117)" d="M533.3,922.7h79.6" class="g4_117"/>
<path d="M469.1,993h79.5" class="g4_117"/>
<path clip-path="url(#c1_117)" d="M756.8,1029.6h44.7" class="g4_117"/>
<path d="M244.7,413c0,-22.1,4.8,-27,9,-27c7.6,0,17.2,8.6,17.2,27c0,18.5,-9.6,27,-17.2,27c-4.2,0,-9,-4.9,-9,-27Zm-5.7,0c0,-3.7,-.2,-11.2,-.2,-19.7c0,-17.1,6.6,-21.4,13.7,-21.4c8.2,0,26.2,12.9,26.2,41.1c0,28.2,-18,41.2,-26.2,41.2c-7.1,0,-13.7,-4.4,-13.7,-21.5c0,-8.4,.2,-16,.2,-19.7Zm-5,0c0,-23.6,-5.1,-27.4,-5.1,-39.4c0,-11.1,9.6,-15.4,17.8,-15.4c19.3,0,39.8,24.4,39.8,54.8c0,30.5,-20.5,54.9,-39.8,54.9c-8.2,0,-17.8,-4.3,-17.8,-15.4c0,-12,5.1,-15.9,5.1,-39.5Zm-43.6,0c0,-22.1,-4.8,-27,-9,-27c-7.6,0,-17.2,8.6,-17.2,27c0,18.5,9.6,27,17.2,27c4.2,0,9,-4.9,9,-27Zm5.7,0c0,-3.7,.2,-11.2,.2,-19.7c0,-17.1,-6.6,-21.4,-13.7,-21.4c-8.3,0,-26.2,12.9,-26.2,41.1c0,28.2,17.9,41.2,26.2,41.2c7.1,0,13.7,-4.4,13.7,-21.5c0,-8.4,-.2,-16,-.2,-19.7Zm5,0c0,-23.6,5.1,-27.4,5.1,-39.4c0,-11.1,-9.6,-15.4,-17.8,-15.4c-19.4,0,-39.8,24.4,-39.8,54.8c0,30.5,20.4,54.9,39.8,54.9c8.2,0,17.8,-4.3,17.8,-15.4c0,-12,-5.1,-15.9,-5.1,-39.5Zm16.5,-71.9c3.7,0,10.2,-.3,17.6,-.3c39.4,0,61.6,36.9,61.6,72.2c0,35.3,-22.2,72.3,-61.6,72.3c-7.4,0,-13.9,-.4,-17.6,-.4c-3.8,0,-10.3,.4,-17.7,.4c-39.4,0,-61.7,-37,-61.7,-72.3c0,-35.3,22.3,-72.2,61.7,-72.2c7.4,0,13.9,.3,17.7,.3Zm0,45.6c5.1,0,10.8,6.8,10.8,26.3c0,19.6,-5.7,26.4,-10.8,26.4c-5.2,0,-10.9,-6.8,-10.9,-26.4c0,-19.5,5.7,-26.3,10.9,-26.3Z" class="g5_117"/>
<path d="M287.6,462.4H131.8M287.6,434.9H131.8M287.6,407.4H131.8M287.6,379.9H131.8M287.6,352.4H131.8m27.5,137.5V334.1m27.5,155.8V334.1m27.5,155.8V334.1m27.5,155.8V334.1m27.5,155.8V334.1" class="g6_117"/>
<path d="M209.3,346.8h16.4V335.4H209.3v11.4Z" class="g7_117"/>
<path d="M208.9,441.5h16.5V430.1H208.9v11.4Z" class="g7_117"/>
<path d="M246.8,442.3h16.4V437H246.8v5.3Z" class="g7_117"/>
<path d="M172.3,442.1h16.4v-5.3H172.3v5.3Z" class="g7_117"/>
<path d="M240.8,459.5h16.5V449.2H240.8v10.3Z" class="g7_117"/>
<path d="M175.2,459.3h16.5V449H175.2v10.3Z" class="g7_117"/>
<path d="M233,474.4h16.4V463.3H233v11.1Z" class="g7_117"/>
<path d="M181.8,474.4h16.4V463.3H181.8v11.1Z" class="g7_117"/>
<path d="M131.8,512.8V334.1" class="g2_117"/>
<path fill-rule="evenodd" d="M131.8,334.1l-2.5,1.6l2.5,-6.5l2.4,6.5Z" class="g3_117"/>
<path d="M108.9,489.9H296.8" class="g2_117"/>
<path fill-rule="evenodd" d="M296.8,489.9l-1.7,-2.4l6.6,2.4l-6.6,2.4Z" class="g3_117"/>
<path d="M134.8,462.4h-6.1m6.1,-27.5h-6.1m6.1,-27.5h-6.1m6.1,-27.5h-6.1m6.1,-27.5h-6.1M159.3,493v-6.2m27.5,6.2v-6.2m27.5,6.2v-6.2m27.5,6.2v-6.2m27.5,6.2v-6.2" class="g2_117"/>
</svg>