<?xml version="1.0" encoding="UTF-8" standalone="no"?>
<!DOCTYPE svg PUBLIC "-//W3C//DTD SVG 1.1//EN"
"http://www.w3.org/Graphics/SVG/1.1/DTD/svg11.dtd">
<svg viewBox="0 0 931 1096" version="1.1" xmlns="http://www.w3.org/2000/svg" xmlns:xlink="http://www.w3.org/1999/xlink">
<defs>
<clipPath id="c0_259"><path d="M527,452.7V305H679.3V452.7Z"/></clipPath>
<clipPath id="c1_259"><path d="M527,743V609.7H656.9V743Z"/></clipPath>
<clipPath id="c2_259"><path d="M183.5,219.6L153,144.7c6.5,1.2,19.7,2.4,30.6,2.4c10.9,0,26,-1.1,40.2,-5l-40.3,77.5Z"/></clipPath>
<clipPath id="c3_259"><path d="M183.6,147.1c-10.9,0,-24.1,-1.2,-30.6,-2.4c9.1,-11.8,20.4,-19.5,30.4,-22.9c13.8,.8,30.5,12,40.4,20.3c-14.2,3.9,-29.3,5,-40.2,5Z"/></clipPath>
<clipPath id="c4_259"><path d="M133,243.7V97.6H241.5V243.7Z"/></clipPath>
<clipPath id="c5_259"><path d="M424.8,582.7v-16h44.6v16Z"/></clipPath>
<clipPath id="c6_259"><path d="M130.6,1011.2V994.9H339.1v16.3Z"/></clipPath>
<style type="text/css"><![CDATA[
.g0_259{
fill: none;
stroke: #241F1F;
stroke-width: 0.763;
stroke-miterlimit: 10;
}
.g1_259{
fill: none;
stroke: #241F1F;
stroke-width: 0.481;
stroke-miterlimit: 10;
}
.g2_259{
fill: none;
stroke: #241F1F;
stroke-width: 0.412;
stroke-miterlimit: 10;
}
.g3_259{
fill: none;
stroke: #241F1F;
stroke-width: 0.687;
stroke-miterlimit: 10;
}
.g4_259{
fill: none;
stroke: #241F1F;
stroke-width: 0.381;
stroke-linecap: round;
stroke-linejoin: round;
}
.g5_259{
fill: none;
stroke: #241F1F;
stroke-width: 0.534;
stroke-linecap: round;
stroke-linejoin: round;
}
.g6_259{
fill: #241F1F;
}
.g7_259{
fill: none;
stroke: #241F1F;
stroke-width: 0.993;
stroke-linecap: round;
stroke-linejoin: round;
}
.g8_259{
fill: none;
stroke: #241F1F;
stroke-width: 0.993;
stroke-linejoin: round;
}
.g9_259{
fill: none;
stroke: #241F1F;
stroke-width: 0.993;
}
.ga_259{
fill: none;
stroke: #241F1F;
stroke-width: 0.534;
stroke-linejoin: round;
}
.gb_259{
fill: none;
stroke: #241F1F;
stroke-width: 0.534;
}
.gc_259{
fill: none;
stroke: #241F1F;
stroke-width: 0.534;
stroke-linecap: round;
stroke-linejoin: round;
}
.gd_259{
fill: none;
stroke: #241F1F;
stroke-width: 0.916;
stroke-linecap: round;
stroke-linejoin: round;
}
.ge_259{
fill: none;
stroke: #241F1F;
stroke-width: 0.534;
stroke-miterlimit: 3;
}
.gf_259{
fill: none;
stroke: #241F1F;
stroke-width: 0.763;
stroke-miterlimit: 3;
}
.gg_259{
fill: #CBCACB;
}
.gh_259{
fill: #CCCBCC;
}
.gi_259{
fill: #CCCCCD;
}
.gj_259{
fill: #CDCDCD;
}
.gk_259{
fill: #CECECE;
}
.gl_259{
fill: #CFCECF;
}
.gm_259{
fill: #D0CFD0;
}
.gn_259{
fill: #D1D0D1;
}
.go_259{
fill: #D2D1D2;
}
.gp_259{
fill: #D2D2D2;
}
.gq_259{
fill: #D3D3D3;
}
.gr_259{
fill: #D4D3D4;
}
.gs_259{
fill: #D6D5D6;
}
.gt_259{
fill: #D7D6D6;
}
.gu_259{
fill: #D8D7D7;
}
.gv_259{
fill: #D8D8D8;
}
.gw_259{
fill: #D9D8D9;
}
.gx_259{
fill: #DAD9DA;
}
.gy_259{
fill: #DBDADB;
}
.gz_259{
fill: #DCDBDB;
}
.g10_259{
fill: #DDDCDC;
}
.g11_259{
fill: #DEDDDD;
}
.g12_259{
fill: #DEDEDE;
}
.g13_259{
fill: #DFDEDF;
}
.g14_259{
fill: #E0DFDF;
}
.g15_259{
fill: #E1E0E0;
}
.g16_259{
fill: #E2E1E1;
}
.g17_259{
fill: #E3E2E2;
}
.g18_259{
fill: #E4E3E3;
}
.g19_259{
fill: #E5E3E4;
}
.g1a_259{
fill: #E5E4E4;
}
.g1b_259{
fill: #E6E5E5;
}
.g1c_259{
fill: #E7E6E6;
}
.g1d_259{
fill: #E8E7E7;
}
.g1e_259{
fill: #E9E8E8;
}
.g1f_259{
fill: #EAE9E9;
}
.g1g_259{
fill: #EBE9E9;
}
.g1h_259{
fill: #EBEAEA;
}
.g1i_259{
fill: none;
stroke: #241F1F;
stroke-width: 0.534;
stroke-linecap: round;
stroke-linejoin: round;
stroke-dasharray: 7,4;
}
.g1j_259{
fill: none;
stroke: #241F1F;
stroke-width: 0.305;
stroke-linecap: round;
stroke-linejoin: round;
}
.g1k_259{
fill: none;
stroke: #241F1F;
stroke-width: 0.481;
stroke-linecap: round;
stroke-linejoin: round;
}
.g1l_259{
fill: none;
stroke: #241F1F;
stroke-width: 0.495;
stroke-miterlimit: 10;
}
]]></style>
</defs>
<path d="M509.5,272.8h369" class="g0_259"/>
<path d="M556.4,105.7H566m43.9,0h4.8m43.2,0h9.6" class="g1_259"/>
<path d="M579.9,118.7h3.7m2.5,10.3h3.7" class="g2_259"/>
<path d="M585.9,182.3h4.8" class="g1_259"/>
<path d="M574.4,211.5h10.9m19.7,0h28.1m-9,2.1H631" class="g3_259"/>
<g clip-path="url(#c0_259)">
<path d="M613.2,461.5V312m-86,87.7H675.7" class="g4_259"/>
<path d="M610.5,365.3h5.3m-5.3,-34.4h5.3M610.5,434h5.3m-2.6,27.5V312m-86,87.7H675.7" class="g5_259"/>
</g>
<path fill-rule="evenodd" d="M623.7,379.1l.9,-1.8c0,0,.8,3.7,1.9,5.3c-1.4,-1.4,-4.8,-3,-4.8,-3Z" class="g6_259"/>
<path d="M613.2,365.3l10.5,13.8" class="g5_259"/>
<path d="M613.2,365.3l10.5,13.8" class="g7_259"/>
<path fill-rule="evenodd" d="M623.6,344.5l1.2,-2.5c0,0,1.1,5,2.4,7.1c-1.7,-1.9,-6.3,-4,-6.3,-4Z" class="g6_259"/>
<path d="M613.2,330.9l10.5,13.9" class="g5_259"/>
<path d="M613.2,330.9l10.5,13.9" class="g7_259"/>
<path fill-rule="evenodd" d="M658.1,379.1l.9,-1.8c0,0,.8,3.7,1.8,5.3c-1.3,-1.4,-4.7,-3,-4.7,-3Z" class="g6_259"/>
<path d="M647.6,365.3l10.5,13.8" class="g5_259"/>
<path d="M647.6,365.3l10.5,13.8" class="g7_259"/>
<path fill-rule="evenodd" d="M658,344.5l1.2,-2.5c0,0,1,5,2.4,7.1c-1.7,-1.9,-6.3,-4,-6.3,-4Z" class="g6_259"/>
<path d="M647.6,330.9l10.5,13.9" class="g5_259"/>
<path d="M647.6,330.9l10.5,13.9" class="g7_259"/>
<path fill-rule="evenodd" d="M623.7,413.5l.9,-1.9c0,0,.8,3.7,1.9,5.3c-1.4,-1.3,-4.8,-2.9,-4.8,-2.9Z" class="g6_259"/>
<path d="M613.2,399.7l10.5,13.8" class="g5_259"/>
<path d="M613.2,399.7l10.5,13.8" class="g7_259"/>
<path fill-rule="evenodd" d="M623.6,378.9l1.2,-2.5c0,0,1.1,4.9,2.4,7.1c-1.7,-1.9,-6.3,-4,-6.3,-4Z" class="g6_259"/>
<path d="M613.2,365.3l10.5,13.8" class="g5_259"/>
<path d="M613.2,365.3l10.5,13.8" class="g7_259"/>
<path fill-rule="evenodd" d="M658.1,413.5l.9,-1.9c0,0,.8,3.7,1.8,5.3c-1.3,-1.3,-4.7,-2.9,-4.7,-2.9Z" class="g6_259"/>
<path d="M647.6,399.7l10.5,13.8" class="g5_259"/>
<path d="M647.6,399.7l10.5,13.8" class="g7_259"/>
<path fill-rule="evenodd" d="M658,378.9l1.2,-2.5c0,0,1,4.9,2.4,7.1c-1.7,-1.9,-6.3,-4,-6.3,-4Z" class="g6_259"/>
<path d="M647.6,365.3l10.5,13.8" class="g5_259"/>
<path d="M647.6,365.3l10.5,13.8" class="g7_259"/>
<path fill-rule="evenodd" d="M623.6,447.6l1.2,-2.5c0,0,1.1,5,2.4,7.1c-1.7,-1.8,-6.3,-4,-6.3,-4Z" class="g6_259"/>
<path d="M613.2,434l10.5,13.9" class="g5_259"/>
<path d="M613.2,434l10.5,13.9" class="g7_259"/>
<path fill-rule="evenodd" d="M623.6,413.3l1.2,-2.6c0,0,1.1,5,2.4,7.1c-1.7,-1.8,-6.3,-4,-6.3,-4Z" class="g6_259"/>
<path d="M613.2,399.7l10.5,13.8" class="g5_259"/>
<path d="M613.2,399.7l10.5,13.8" class="g7_259"/>
<path fill-rule="evenodd" d="M658,447.6l1.2,-2.5c0,0,1,5,2.4,7.1c-1.7,-1.8,-6.3,-4,-6.3,-4Z" class="g6_259"/>
<path d="M647.6,434l10.5,13.9" class="g5_259"/>
<path d="M647.6,434l10.5,13.9" class="g7_259"/>
<path fill-rule="evenodd" d="M658,413.3l1.2,-2.6c0,0,1,5,2.4,7.1c-1.7,-1.8,-6.3,-4,-6.3,-4Z" class="g6_259"/>
<path d="M647.6,399.7l10.5,13.8" class="g5_259"/>
<path d="M647.6,399.7l10.5,13.8" class="g7_259"/>
<path fill-rule="evenodd" d="M555,379.1l.9,-1.8c0,0,.8,3.7,1.8,5.3c-1.3,-1.4,-4.8,-3,-4.8,-3Z" class="g6_259"/>
<path d="M544.5,365.3L555,379.1" class="g5_259"/>
<path d="M544.5,365.3L555,379.1" class="g7_259"/>
<path d="M544.5,330.9L555,344.8" class="g5_259"/>
<path d="M544.5,330.9L555,344.8" class="g7_259"/>
<path fill-rule="evenodd" d="M589.4,379.1l.8,-1.8c0,0,.9,3.7,1.9,5.3c-1.3,-1.4,-4.8,-3,-4.8,-3Z" class="g6_259"/>
<path d="M578.9,365.3l10.5,13.8" class="g5_259"/>
<path d="M578.9,365.3l10.5,13.8" class="g7_259"/>
<path d="M578.9,330.9l10.5,13.9" class="g5_259"/>
<path d="M578.9,330.9l10.5,13.9" class="g7_259"/>
<path fill-rule="evenodd" d="M554.9,378.9l1.2,-2.5c0,0,1,4.9,2.4,7.1c-1.8,-1.9,-6.4,-4,-6.4,-4Z" class="g6_259"/>
<path d="M544.5,365.3L555,379.1" class="g5_259"/>
<path d="M544.5,365.3L555,379.1" class="g7_259"/>
<path fill-rule="evenodd" d="M589.2,378.9l1.2,-2.5c0,0,1.1,4.9,2.5,7.1c-1.8,-1.9,-6.4,-4,-6.4,-4Z" class="g6_259"/>
<path d="M578.9,365.3l10.5,13.8" class="g5_259"/>
<path d="M578.9,365.3l10.5,13.8" class="g7_259"/>
<path fill-rule="evenodd" d="M554.9,447.6l1.2,-2.5c0,0,1,5,2.4,7.1c-1.8,-1.8,-6.4,-4,-6.4,-4Z" class="g6_259"/>
<path d="M544.5,434L555,447.9" class="g5_259"/>
<path d="M544.5,434L555,447.9" class="g7_259"/>
<path fill-rule="evenodd" d="M554.9,413.3l1.2,-2.6c0,0,1,5,2.4,7.1c-1.8,-1.8,-6.4,-4,-6.4,-4Z" class="g6_259"/>
<path d="M544.5,399.7L555,413.5" class="g5_259"/>
<path d="M544.5,399.7L555,413.5" class="g7_259"/>
<path fill-rule="evenodd" d="M589.2,447.6l1.2,-2.5c0,0,1.1,5,2.5,7.1c-1.8,-1.8,-6.4,-4,-6.4,-4Z" class="g6_259"/>
<path d="M578.9,434l10.5,13.9" class="g5_259"/>
<path d="M578.9,434l10.5,13.9" class="g7_259"/>
<path fill-rule="evenodd" d="M589.2,413.3l1.2,-2.6c0,0,1.1,5,2.5,7.1c-1.8,-1.8,-6.4,-4,-6.4,-4Z" class="g6_259"/>
<path d="M578.9,399.7l10.5,13.8" class="g5_259"/>
<path d="M578.9,399.7l10.5,13.8" class="g7_259"/>
<path d="M647.5,397v5.3M578.8,397v5.3M544.4,397v5.3" class="g5_259"/>
<path fill-rule="evenodd" d="M613.3,312.9l-2.1,1.4l2.1,-5.6l2.1,5.6Z" class="g6_259"/>
<path fill-rule="evenodd" d="M674.8,399.7l-1.4,-2.1l5.6,2.1l-5.6,2.1Z" class="g6_259"/>
<path fill-rule="evenodd" d="M555,344.8l1.2,-2.6c0,0,1,5,2.4,7.1c-1.7,-1.8,-6.4,-4,-6.4,-4Z" class="g6_259"/>
<path fill-rule="evenodd" d="M589.4,344.8l1.1,-2.6c0,0,1.1,5,2.5,7.1c-1.8,-1.8,-6.4,-4,-6.4,-4Z" class="g6_259"/>
<path d="M527.2,538H654m-62.6,64.2V467.8" class="g5_259"/>
<path d="M654,538l-1.4,-2.1l5.6,2.1l-5.6,2.1Z" class="g6_259"/>
<path d="M591.4,467.8l-2.1,1.3l2.1,-5.5l2.1,5.5Z" class="g6_259"/>
<path fill-rule="evenodd" d="M627.5,498.2l1.4,2.8c0,0,-5.1,-2.4,-7.9,-2.6c2.8,-.3,7.8,-3,7.8,-3l-1.3,2.8Z" class="g6_259"/>
<path d="M631.1,498.1l-3.9,.1" class="g8_259"/>
<path fill-rule="evenodd" d="M601.1,518.1c2.8,-.3,7.8,-2.8,7.8,-2.8l-1.4,2.8l1.4,2.8c0,0,-5,-2.6,-7.8,-2.8Z" class="g6_259"/>
<path d="M611.4,518.1h-3.9" class="g8_259"/>
<path fill-rule="evenodd" d="M580.6,538c2.8,-.2,7.9,-2.7,7.9,-2.7l-1.4,2.7l1.4,2.8c0,0,-5.1,-2.5,-7.9,-2.8Z" class="g6_259"/>
<path d="M591.1,538h-4" class="g8_259"/>
<path fill-rule="evenodd" d="M561,557.9c2.8,-.2,7.8,-2.7,7.8,-2.7l-1.4,2.8l1.4,2.7c0,0,-5,-2.5,-7.8,-2.8Z" class="g6_259"/>
<path d="M571.3,558h-3.9" class="g8_259"/>
<path fill-rule="evenodd" d="M541,577.9c2.8,-.3,7.9,-2.8,7.9,-2.8l-1.5,2.8l1.4,2.8c0,0,-5,-2.6,-7.8,-2.8Z" class="g6_259"/>
<path d="M551.3,577.9h-3.9" class="g8_259"/>
<path fill-rule="evenodd" d="M564.4,523.9l-1.9,2.5c0,0,0,-5.7,-.9,-8.3c1.4,2.4,5.9,5.8,5.9,5.8h-3.1Z" class="g6_259"/>
<path d="M571.4,538.1l-7.1,-14.7" class="g9_259"/>
<path fill-rule="evenodd" d="M542.8,504.4l-2.4,2c0,0,1.2,-5.5,.8,-8.3c.9,2.7,4.6,6.9,4.6,6.9l-3,-.6Z" class="g6_259"/>
<path fill-rule="evenodd" d="M563.2,485.1l-2.3,2c0,0,1.1,-5.5,.7,-8.3c.9,2.7,4.6,6.9,4.6,6.9l-3,-.6Z" class="g6_259"/>
<path d="M551.1,537.7l-8.5,-34" class="g9_259"/>
<path fill-rule="evenodd" d="M541.2,498.1c.9,2.7,4.6,6.9,4.6,6.9Z" class="g6_259"/>
<path d="M551.1,537.7l-8.5,-34m29,14.5l-8.5,-33.9" class="g9_259"/>
<path fill-rule="evenodd" d="M622.6,571.5l-2.3,-2c0,0,1.1,5.5,.7,8.3c.9,-2.7,4.6,-7,4.6,-7l-3,.7Z" class="g6_259"/>
<path d="M630.9,538.2l-8.5,34" class="g9_259"/>
<path fill-rule="evenodd" d="M602.9,590.8l-2.3,-2c0,0,1.2,5.5,.7,8.3c1,-2.7,4.7,-7,4.7,-7l-3.1,.7Z" class="g6_259"/>
<path d="M611.2,557.5l-8.5,33.9" class="g9_259"/>
<path fill-rule="evenodd" d="M544.7,543.5l-1.9,2.5c0,0,0,-5.7,-1,-8.3c1.5,2.4,6,5.8,6,5.8h-3.1Z" class="g6_259"/>
<path d="M551.7,557.7L544.5,543" class="g9_259"/>
<path fill-rule="evenodd" d="M584.4,504l-1.9,2.5c0,0,0,-5.6,-1,-8.3c1.5,2.5,6,5.9,6,5.9l-3.1,-.1Z" class="g6_259"/>
<path d="M591.4,518.2l-7.2,-14.7" class="g9_259"/>
<path fill-rule="evenodd" d="M604.4,484.2l-1.9,2.5c0,0,0,-5.7,-1,-8.3c1.5,2.4,6,5.8,6,5.8h-3.1Z" class="g6_259"/>
<path d="M611.4,498.3l-7.2,-14.6" class="g9_259"/>
<path fill-rule="evenodd" d="M564.4,591.8l-1.9,-2.4c0,0,0,5.6,-.9,8.3c1.4,-2.5,5.9,-5.9,5.9,-5.9h-3.1Z" class="g6_259"/>
<path d="M571.4,577.7l-7.1,14.6" class="g9_259"/>
<path fill-rule="evenodd" d="M584,572.2l-1.9,-2.4c0,0,0,5.6,-.9,8.2c1.4,-2.4,5.9,-5.8,5.9,-5.8H584Z" class="g6_259"/>
<path d="M591,558.1l-7.1,14.6" class="g9_259"/>
<path fill-rule="evenodd" d="M603.6,552.6l-1.9,-2.4c0,0,0,5.6,-.9,8.2c1.4,-2.4,5.9,-5.8,5.9,-5.8h-3.1Z" class="g6_259"/>
<path d="M610.6,538.5l-7.1,14.6" class="g9_259"/>
<path fill-rule="evenodd" d="M623.2,533l-1.9,-2.4c0,0,.1,5.6,-.9,8.2c1.4,-2.4,5.9,-5.8,5.9,-5.8h-3.1Z" class="g6_259"/>
<path d="M630.2,518.9l-7.1,14.6" class="g9_259"/>
<path d="M589.1,498.3h4.6m-4.6,79.5h4.6" class="ga_259"/>
<path d="M631.1,535.7v4.6m-79.4,-4.6v4.6" class="gb_259"/>
<path d="M609.3,681.3V668.4" class="g7_259"/>
<path d="M609.3,668.4l-2.4,1.3c0,0,2.1,-4.6,2.2,-7.1c.3,2.5,2.8,7,2.8,7Z" class="g6_259"/>
<path d="M590,662h12.9" class="g7_259"/>
<path d="M602.9,662l-1.4,-2.5c0,0,4.7,2.1,7.2,2.3c-2.5,.3,-7,2.7,-7,2.7Z" class="g6_259"/>
<path d="M628.7,681.3V668.4" class="g7_259"/>
<path d="M628.7,668.4l-2.5,1.3c0,0,2.1,-4.6,2.3,-7.1c.3,2.5,2.7,7,2.7,7Z" class="g6_259"/>
<path d="M648.1,681.3V668.4" class="g7_259"/>
<path d="M648.1,668.4l-2.5,1.3c0,0,2.1,-4.6,2.3,-7.1c.3,2.5,2.7,7,2.7,7Z" class="g6_259"/>
<path d="M590,642.6h12.9" class="g7_259"/>
<path d="M602.9,642.6l-1.4,-2.5c0,0,4.7,2.1,7.2,2.3c-2.5,.3,-7,2.7,-7,2.7Z" class="g6_259"/>
<path d="M590,623.2h12.9" class="g7_259"/>
<path d="M602.9,623.2l-1.4,-2.4c0,0,4.7,2.1,7.2,2.2c-2.5,.3,-7,2.8,-7,2.8Z" class="g6_259"/>
<path d="M609.3,662l12.9,-13" class="g7_259"/>
<path d="M622.2,649l-2.6,-.7c0,0,4.7,-1.8,6.6,-3.5c-1.6,2,-3,6.9,-3,6.9Z" class="g6_259"/>
<path d="M628.7,642.6l12.9,-12.9" class="g7_259"/>
<path d="M641.6,629.7l-2.7,-.8c0,0,4.8,-1.8,6.7,-3.5c-1.6,2,-3,6.9,-3,6.9Z" class="g6_259"/>
<path d="M609.3,642.6l12.9,-5.5" class="g7_259"/>
<path d="M622.2,637.1L620,635.3c0,0,5.1,.1,7.5,-.7c-2.2,1.3,-5.3,5.2,-5.3,5.2Z" class="g6_259"/>
<path d="M628.7,662l5.5,-13" class="g7_259"/>
<path d="M634.2,649l-2.8,.3c0,0,3.8,-3.4,4.9,-5.7c-.7,2.5,-.2,7.5,-.2,7.5Z" class="g6_259"/>
<path d="M648.1,662l1.8,-13" class="g7_259"/>
<path d="M649.9,649l-2.6,1c0,0,2.7,-4.3,3.2,-6.7c0,2.5,1.8,7.2,1.8,7.2Z" class="g6_259"/>
<path d="M570.6,662l12.9,12.9" class="g7_259"/>
<path d="M583.5,674.9l.8,-2.7c0,0,1.8,4.7,3.5,6.7c-2.1,-1.6,-6.9,-3.1,-6.9,-3.1Z" class="g6_259"/>
<path d="M551.2,642.6l12.9,12.9" class="g7_259"/>
<path d="M564.1,655.5l.8,-2.7c0,0,1.8,4.8,3.5,6.7c-2,-1.6,-6.9,-3,-6.9,-3Z" class="g6_259"/>
<path d="M531.8,623.2l13,12.9" class="g7_259"/>
<path d="M544.8,636.1l.7,-2.6c0,0,1.8,4.7,3.5,6.6c-2,-1.6,-6.9,-3,-6.9,-3Z" class="g6_259"/>
<path d="M570.6,681.3v13" class="g7_259"/>
<path d="M570.6,694.3l2.4,-1.4c0,0,-2.1,4.6,-2.2,7.2c-.3,-2.6,-2.8,-7,-2.8,-7Z" class="g6_259"/>
<path d="M590,700.7H577" class="g7_259"/>
<path d="M577,700.7l1.4,2.5c0,0,-4.7,-2.1,-7.2,-2.3c2.5,-.3,7,-2.7,7,-2.7Z" class="g6_259"/>
<path d="M551.2,681.3v13" class="g7_259"/>
<path d="M551.2,694.3l2.5,-1.4c0,0,-2.1,4.6,-2.3,7.2c-.3,-2.6,-2.7,-7,-2.7,-7Z" class="g6_259"/>
<path d="M531.8,681.3v13" class="g7_259"/>
<path d="M531.8,694.3l2.5,-1.4c0,0,-2.1,4.6,-2.3,7.2c-.3,-2.6,-2.7,-7,-2.7,-7Z" class="g6_259"/>
<path d="M590,720.1H577" class="g7_259"/>
<path d="M577,720.1l1.4,2.4c0,0,-4.7,-2.1,-7.2,-2.2c2.5,-.3,7,-2.8,7,-2.8Z" class="g6_259"/>
<path d="M590,739.4H577" class="g7_259"/>
<path d="M577,739.4l1.4,2.5c0,0,-4.7,-2.1,-7.2,-2.3c2.5,-.2,7,-2.7,7,-2.7Z" class="g6_259"/>
<path d="M570.6,700.7l-12.9,12.9" class="g7_259"/>
<path d="M557.7,713.6l2.6,.8c0,0,-4.7,1.8,-6.6,3.5c1.6,-2,3,-6.9,3,-6.9Z" class="g6_259"/>
<path d="M551.2,720.1L538.3,733" class="g7_259"/>
<path d="M538.3,733l2.7,.8c0,0,-4.8,1.8,-6.7,3.4c1.6,-2,3,-6.8,3,-6.8Z" class="g6_259"/>
<path d="M570.6,720.1l-12.9,5.5" class="g7_259"/>
<path d="M557.7,725.6l2.2,1.7c0,0,-5.1,-.1,-7.5,.8c2.2,-1.3,5.3,-5.3,5.3,-5.3Z" class="g6_259"/>
<path d="M551.2,700.7l-5.5,12.9" class="g7_259"/>
<path d="M545.7,713.6l2.8,-.3c0,0,-3.8,3.5,-4.9,5.8c.7,-2.5,.2,-7.5,.2,-7.5Z" class="g6_259"/>
<path d="M531.8,700.7L530,713.6" class="g7_259"/>
<path d="M530,713.6l2.6,-1c0,0,-2.7,4.3,-3.2,6.8c0,-2.5,-1.8,-7.3,-1.8,-7.3Z" class="g6_259"/>
<path d="M551.2,623.2l12.9,5.6" class="g7_259"/>
<path d="M564.1,628.8l-.2,-2.8c0,0,3.4,3.7,5.7,4.8c-2.5,-.7,-7.5,-.2,-7.5,-.2Z" class="g6_259"/>
<path d="M570.6,623.2l12.9,1.9" class="g7_259"/>
<path d="M583.5,625.1l-1,-2.7c0,0,4.3,2.8,6.8,3.3c-2.6,-.1,-7.3,1.7,-7.3,1.7Z" class="g6_259"/>
<path d="M531.8,642.6l5.6,12.9" class="g7_259"/>
<path d="M537.4,655.5l1.7,-2.2c0,0,-.1,5.1,.7,7.5c-1.2,-2.2,-5.2,-5.4,-5.2,-5.4Z" class="g6_259"/>
<path d="M531.8,662l1.9,12.9" class="g7_259"/>
<path d="M533.7,674.9l2.2,-1.7c0,0,-1.4,4.9,-1.2,7.4c-.6,-2.5,-3.7,-6.5,-3.7,-6.5Z" class="g6_259"/>
<path d="M551.2,662l5.5,12.9" class="g7_259"/>
<path d="M556.8,674.9l1.7,-2.2c0,0,-.1,5.1,.7,7.5C557.9,678,554,674.8,554,674.8Z" class="g6_259"/>
<path d="M570.6,642.6l12.9,5.5" class="g7_259"/>
<path d="M583.5,648.1l-.3,-2.8c0,0,3.5,3.8,5.7,4.9c-2.4,-.7,-7.5,-.2,-7.5,-.2Z" class="g6_259"/>
<path d="M609.3,700.7L596.4,687.8" class="g7_259"/>
<path d="M596.4,687.8l-.8,2.7c0,0,-1.8,-4.8,-3.4,-6.7c2,1.6,6.8,3,6.8,3Z" class="g6_259"/>
<path d="M628.7,720.1L615.8,707.2" class="g7_259"/>
<path d="M615.8,707.2l-.8,2.6c0,0,-1.8,-4.7,-3.5,-6.6c2,1.6,6.9,3,6.9,3Z" class="g6_259"/>
<path d="M648.1,739.4l-13,-12.9" class="g7_259"/>
<path d="M635.1,726.5l-.7,2.7c0,0,-1.8,-4.7,-3.5,-6.6c2,1.5,6.9,3,6.9,3Z" class="g6_259"/>
<path d="M628.7,739.4l-12.9,-5.5" class="g7_259"/>
<path d="M615.8,733.9l.2,2.8c0,0,-3.4,-3.7,-5.7,-4.9c2.5,.7,7.5,.2,7.5,.2Z" class="g6_259"/>
<path d="M609.3,739.4l-12.9,-1.8" class="g7_259"/>
<path d="M596.4,737.6l1,2.6c0,0,-4.3,-2.7,-6.8,-3.2c2.6,0,7.3,-1.8,7.3,-1.8Z" class="g6_259"/>
<path d="M648.1,720.1l-5.6,-12.9" class="g7_259"/>
<path d="M642.5,707.2l-1.7,2.1c0,0,.1,-5,-.7,-7.4c1.2,2.2,5.2,5.3,5.2,5.3Z" class="g6_259"/>
<path d="M648.1,700.7l-1.9,-12.9" class="g7_259"/>
<path d="M646.2,687.8l-2.2,1.7c0,0,1.4,-4.9,1.2,-7.5c.7,2.5,3.7,6.6,3.7,6.6Z" class="g6_259"/>
<path d="M628.7,700.7l-5.5,-12.9" class="g7_259"/>
<path d="M623.2,687.8l-1.8,2.2c0,0,.1,-5.1,-.7,-7.5c1.3,2.2,5.2,5.4,5.2,5.4Z" class="g6_259"/>
<path d="M609.3,720.1l-12.9,-5.6" class="g7_259"/>
<path d="M596.4,714.5l.3,2.8c0,0,-3.5,-3.7,-5.7,-4.9c2.4,.8,7.5,.2,7.5,.2Z" class="g6_259"/>
<path d="M551.2,642.6l12.9,12.9" class="g7_259"/>
<path d="M564.1,655.5l.8,-2.7c0,0,1.8,4.8,3.5,6.7c-2,-1.6,-6.9,-3,-6.9,-3Z" class="g6_259"/>
<path d="M531.8,642.6l5.6,12.9" class="g7_259"/>
<path d="M537.4,655.5l1.7,-2.2c0,0,-.1,5.1,.7,7.5c-1.2,-2.2,-5.2,-5.4,-5.2,-5.4Z" class="g6_259"/>
<path d="M590,742.2V616.8" class="g4_259"/>
<path fill-rule="evenodd" d="M590,616.8l-2.1,1.4l2.1,-5.6l2,5.6Z" class="g6_259"/>
<path d="M590,742.2V616.8" class="g5_259"/>
<path d="M527.2,681.3H652.7" class="g4_259"/>
<path clip-path="url(#c1_259)" fill-rule="evenodd" d="M652.7,681.3l-1.4,-2.1l5.6,2.1l-5.6,2.1Z" class="g6_259"/>
<path d="M527.2,681.3H652.7" class="g5_259"/>
<path d="M638.6,801.9l-50.9,22.6m-60.5,-19l60.5,19" class="gc_259"/>
<path d="M557.5,851.7l-12.7,5.6m33,-52.9L565,810m-7.5,5l-12.7,5.6" class="gd_259"/>
<path d="M587.7,883.3v-126" class="gc_259"/>
<path d="M630.8,816.8l-12.7,5.7m-30.4,38.7L575,866.8M557.5,778.3L544.8,784m42.9,40.5L575,830.1" class="gd_259"/>
<path d="M587.7,824.5l-50.8,22.6m50.8,-22.6l60.5,19" class="gc_259"/>
<path d="M581.4,838.3L568.7,844m21.4,9.2l12.8,-5.6M618,870.7l-12.7,5.6M587.7,787.8L575,793.5M618,834l-12.7,5.7M618,797.3L605.3,803" class="gd_259"/>
<path d="M538.7,846.2l2.2,1.3l-6,.5l4.2,-4.3Z" class="g6_259"/>
<path d="M587.8,760.4l-2.1,1.4l2.1,-5.6l2.1,5.6Z" class="g6_259"/>
<path fill-rule="evenodd" d="M540.5,860.1c2.3,-1.7,5.3,-6.4,5.3,-6.4l.2,3l2.6,1.7c0,0,-5.6,.5,-8.1,1.7Z" class="g6_259"/>
<path d="M645.1,842.6l-.6,-2.4l4.6,3.8l-6,.1Z" class="g6_259"/>
<path fill-rule="evenodd" d="M564.9,846.4c2.2,-1.7,5.3,-6.4,5.3,-6.4l.2,3.1l2.6,1.6c0,0,-5.6,.5,-8.1,1.7Z" class="g6_259"/>
<path fill-rule="evenodd" d="M570.7,832.3c2.4,-1.4,5.8,-5.9,5.8,-5.9v3.1l2.5,1.9c0,0,-5.7,0,-8.3,.9Z" class="g6_259"/>
<path fill-rule="evenodd" d="M570.8,868.9c2.4,-1.5,5.9,-6,5.9,-6l-.1,3.1l2.5,1.9c0,0,-5.7,0,-8.3,1Z" class="g6_259"/>
<path fill-rule="evenodd" d="M601.3,878.1c2.4,-1.4,5.9,-5.9,5.9,-5.9l-.1,3.1l2.5,1.9c0,0,-5.7,-.1,-8.3,.9Z" class="g6_259"/>
<path fill-rule="evenodd" d="M585.6,855.8c2.4,-1.5,5.8,-6,5.8,-6v3.1l2.4,1.9c0,0,-5.6,0,-8.2,1Z" class="g6_259"/>
<path fill-rule="evenodd" d="M601.3,841.7c2.4,-1.4,5.8,-5.9,5.8,-5.9v3.1l2.4,1.9c0,0,-5.6,0,-8.2,.9Z" class="g6_259"/>
<path fill-rule="evenodd" d="M614,824.4c2.5,-1.4,5.9,-5.9,5.9,-5.9v3.1l2.4,1.9c0,0,-5.6,0,-8.3,.9Z" class="g6_259"/>
<path fill-rule="evenodd" d="M601.2,805c2.4,-1.5,5.8,-5.9,5.8,-5.9v3.1l2.5,1.8c0,0,-5.7,0,-8.3,1Z" class="g6_259"/>
<path fill-rule="evenodd" d="M571.5,795.2c2.4,-1.4,5.8,-5.9,5.8,-5.9v3.1l2.4,1.9c0,0,-5.6,0,-8.2,.9Z" class="g6_259"/>
<path fill-rule="evenodd" d="M561.3,812.2c2.4,-1.4,5.8,-5.9,5.8,-5.9v3.1l2.4,1.9c0,0,-5.6,0,-8.2,.9Z" class="g6_259"/>
<path fill-rule="evenodd" d="M540.4,786.3c2.4,-1.5,5.8,-5.9,5.8,-5.9v3.1l2.4,1.9c0,0,-5.6,-.1,-8.2,.9Z" class="g6_259"/>
<path fill-rule="evenodd" d="M540.7,822.9c2.5,-1.5,5.9,-5.9,5.9,-5.9l-.1,3.1l2.5,1.8c0,0,-5.6,0,-8.3,1Z" class="g6_259"/>
<path d="M749.9,849.5l-40.1,14.2" class="gd_259"/>
<path d="M739.1,797.3l43.3,23.4" class="gc_259"/>
<path d="M760.7,855.4L734,864.8m15.9,-46.2l-40.1,14.2" class="gd_259"/>
<path d="M835.9,801.8l-53.5,18.9" class="gc_259"/>
<path d="M771.5,861.2L758.2,866m2.5,-41.5L734,833.9m15.9,-46.2l-40.1,14.2" class="gd_259"/>
<path d="M782.4,867.1V758.8" class="gc_259"/>
<path d="M793.2,872.9l13.3,-4.7m-35,-37.9L758.2,835M804,878.8l26.7,-9.5m-70,-75.8L734,803m80.8,81.6l40.1,-14.1M749.9,756.8l-40.1,14.1M793.2,842l13.3,-4.7m-35,-37.9l-13.3,4.7M804,847.9l26.7,-9.5m-70,-75.8L734,772.1m80.8,81.6l40.1,-14.2" class="gd_259"/>
<path d="M782.4,820.7l-57.5,20.4m57.5,-20.4l57.3,31.1" class="gc_259"/>
<path d="M793.2,811.1l13.3,-4.7m-35,-37.9l-13.3,4.7M804,816.9l26.7,-9.4m-15.9,15.3l40.1,-14.2M793.2,780.2l13.3,-4.8M804,786l26.7,-9.4m-15.9,15.3l40.1,-14.2" class="gd_259"/>
<path d="M725.3,841l2.1,1.4l-6,.1l4.5,-4Z" class="g6_259"/>
<path d="M782.5,759.4l-2.2,1.4l2.2,-5.6l2,5.6Z" class="g6_259"/>
<path d="M838.6,851.3v-2.5l3.6,4.7l-5.9,-1.2Z" class="g6_259"/>
<path fill-rule="evenodd" d="M753.6,868.2c2.4,-1.4,5.8,-5.9,5.8,-5.9v3.1l2.5,1.9c0,0,-5.7,-.1,-8.3,.9Z" class="g6_259"/>
<path fill-rule="evenodd" d="M730.5,866.7c2.4,-1.4,5.9,-5.9,5.9,-5.9l-.1,3.1l2.5,1.9c0,0,-5.7,0,-8.3,.9Z" class="g6_259"/>
<path fill-rule="evenodd" d="M706,865.8c2.5,-1.4,5.9,-5.9,5.9,-5.9V863l2.4,1.9c0,0,-5.6,0,-8.3,.9Z" class="g6_259"/>
<path fill-rule="evenodd" d="M753.5,837.5c2.4,-1.4,5.8,-5.9,5.8,-5.9v3.1l2.5,1.9c0,0,-5.7,0,-8.3,.9Z" class="g6_259"/>
<path fill-rule="evenodd" d="M730,836c2.5,-1.5,5.9,-6,5.9,-6v3.1l2.4,1.9c0,0,-5.6,0,-8.3,1Z" class="g6_259"/>
<path fill-rule="evenodd" d="M705.9,834.8c2.5,-1.4,5.9,-5.9,5.9,-5.9V832l2.4,1.9c0,0,-5.6,-.1,-8.3,.9Z" class="g6_259"/>
<path fill-rule="evenodd" d="M705.9,803.9c2.5,-1.4,5.9,-5.9,5.9,-5.9v3.1l2.4,1.9c0,0,-5.6,-.1,-8.3,.9Z" class="g6_259"/>
<path fill-rule="evenodd" d="M729.8,805.2c2.4,-1.5,5.9,-6,5.9,-6l-.1,3.1l2.5,1.9c0,0,-5.6,0,-8.3,1Z" class="g6_259"/>
<path fill-rule="evenodd" d="M753.9,806.3c2.5,-1.5,5.9,-5.9,5.9,-5.9l-.1,3.1l2.5,1.9c0,0,-5.6,-.1,-8.3,.9Z" class="g6_259"/>
<path fill-rule="evenodd" d="M729.7,774.3c2.4,-1.5,5.9,-6,5.9,-6l-.1,3.2l2.5,1.8c0,0,-5.7,0,-8.3,1Z" class="g6_259"/>
<path fill-rule="evenodd" d="M811,773c-2.4,1.4,-5.8,5.9,-5.8,5.9v-3.1l-2.4,-1.9c0,0,5.6,0,8.2,-.9Z" class="g6_259"/>
<path fill-rule="evenodd" d="M835.4,774.1c-2.5,1.4,-5.9,5.9,-5.9,5.9l.1,-3.1L827.1,775c0,0,5.6,.1,8.3,-.9Z" class="g6_259"/>
<path fill-rule="evenodd" d="M859,775.5c-2.4,1.4,-5.8,5.9,-5.8,5.9v-3.1l-2.4,-1.9c0,0,5.6,0,8.2,-.9Z" class="g6_259"/>
<path fill-rule="evenodd" d="M810.6,804.1c-2.5,1.4,-5.9,5.9,-5.9,5.9l.1,-3.1L802.3,805c0,0,5.6,.1,8.3,-.9Z" class="g6_259"/>
<path fill-rule="evenodd" d="M835.1,805.1c-2.4,1.5,-5.8,5.9,-5.8,5.9v-3.1l-2.4,-1.8c0,0,5.6,0,8.2,-1Z" class="g6_259"/>
<path fill-rule="evenodd" d="M859.6,806c-2.4,1.5,-5.9,6,-5.9,6l.1,-3.1L851.3,807c0,0,5.6,0,8.3,-1Z" class="g6_259"/>
<path fill-rule="evenodd" d="M810.7,835c-2.4,1.5,-5.9,5.9,-5.9,5.9l.1,-3.1l-2.5,-1.9c0,0,5.7,.1,8.3,-.9Z" class="g6_259"/>
<path fill-rule="evenodd" d="M835.1,836c-2.4,1.5,-5.8,5.9,-5.8,5.9v-3.1L826.9,837c0,0,5.6,0,8.2,-1Z" class="g6_259"/>
<path fill-rule="evenodd" d="M858.7,837.4c-2.4,1.4,-5.9,5.9,-5.9,5.9l.1,-3.1l-2.5,-1.9c0,0,5.6,.1,8.3,-.9Z" class="g6_259"/>
<path fill-rule="evenodd" d="M810.7,866c-2.4,1.5,-5.8,5.9,-5.8,5.9v-3.1L802.5,867c0,0,5.6,0,8.2,-1Z" class="g6_259"/>
<path fill-rule="evenodd" d="M835,867c-2.4,1.4,-5.8,5.9,-5.8,5.9v-3.1l-2.5,-1.9c0,0,5.7,.1,8.3,-.9Z" class="g6_259"/>
<path fill-rule="evenodd" d="M859.2,868.1c-2.4,1.4,-5.9,5.9,-5.9,5.9l.1,-3.1L850.9,869c0,0,5.6,.1,8.3,-.9Z" class="g6_259"/>
<path fill-rule="evenodd" d="M705.7,773.1c2.4,-1.4,5.9,-5.9,5.9,-5.9l-.1,3.1l2.5,1.9c0,0,-5.6,0,-8.3,.9Z" class="g6_259"/>
<path fill-rule="evenodd" d="M753.7,775.5c2.4,-1.4,5.9,-5.9,5.9,-5.9l-.1,3.1l2.5,1.9c0,0,-5.7,-.1,-8.3,.9Z" class="g6_259"/>
<path d="M558.3,974.7H673.8m-58.2,58.4V917.6" class="g5_259"/>
<path d="M564.4,965.4l.3,7.3m0,0l-1.1,-1.5m0,0h1.9m0,0l-.8,1.5M575.9,967v4.4m0,0l-.5,-1m0,0h1m0,0l-.5,1M587.1,968l.3,2.4m0,0l-.3,-.5m0,0h.5m0,0l-.2,.5m11.2,-1.6l.3,.8m0,0l-.3,-.3m0,0h.3m0,0v.3m11.2,-.5v.2m0,0v-.2m0,0v.2m-46,-15.4l.8,8.1m0,0l-1.3,-1.6m0,0l2.2,-.2m0,0l-.9,1.8m10.7,-6.5l.6,4.9m0,0l-.8,-.7m0,0l1.3,-.3m0,0l-.5,1m10.9,-3.9l.5,2.9m0,0l-.5,-.5m0,0l.8,-.3m0,0l-.3,.8m11,-2.1l.3,1.3m0,0l-.3,-.3m0,0h.3m0,0v.3m11.2,-.8v.3M563.6,942.4l1.9,8.9m0,0l-1.6,-1.9m0,0l2.1,-.2m0,0l-.5,2.1m9.6,-7.4l1.6,5.8m0,0l-1.1,-1.1m0,0l1.4,-.2m0,0l-.3,1.3m10.1,-4.5l1.1,3.2m0,0l-.8,-.5m0,0l.8,-.3m0,0v.8M598.3,946l.8,1.6m0,0l-.2,-.3m0,0l.2,-.2m0,0v.5m10.7,-1l.6,.5m0,0l-.3,-.3m0,0h.3m0,0v.3M563.3,930.8l2.5,9.7m0,0l-1.9,-1.8m0,0l2.6,-.5m0,0l-.7,2.3m9,-8.1L577,939m0,0l-1.4,-1.4m0,0l1.6,-.5m0,0L577,939m9.3,-5.3l1.9,3.7m0,0l-.8,-.5m0,0l.8,-.6m0,0v1.1m9.9,-2.6l1.3,1.8m0,0l-.5,-.3m0,0l.5,-.5m0,0v.8m10.2,-1.1l1,.3m0,0h-.2m0,0v-.3m0,0l.2,.3M562.8,919l3.5,10.8m0,0L564.1,928m0,0l2.7,-1.1m0,0l-.5,2.9m8,-8.9l3.2,7.1m0,0l-1.6,-1.1m0,0l1.9,-.8m0,0l-.3,1.9m8.6,-5.5l2.4,4.1m0,0l-1.1,-.7m0,0l1.1,-.6m0,0v1.3m9.3,-3.1l1.9,1.8m0,0h-.6m0,0l.3,-.5m0,0l.3,.5m9.6,-1l1.6,.5m0,0h-.5m0,0l.2,-.5m0,0l.3,.5m21.9,44v.8m0,0v-.3m0,0h.3m0,0l-.3,.3m11.5,-1.3v1.8m0,0l-.3,-.5m0,0h.6m0,0l-.3,.5m11.5,-2.9l-.3,4m0,0l-.3,-1.1m0,0l.9,.3m0,0l-.6,.8m11.8,-5.3l-.3,6.6m0,0l-.8,-1.6m0,0l1.6,.3m0,0l-.8,1.3M633.1,957.8l-.3,.3m11.8,-.8l-.6,1.6m0,0v-.6m0,0h.3m0,0l-.3,.6m12.1,-2.7l-.6,3.5m0,0l-.3,-.8m0,0h.9m0,0l-.6,.8m12,-4.8l-.8,6.1m0,0l-.5,-1.3m0,0h1.3m0,0l-.8,1.3M621.3,946.8h.3m23,-.5l-.6,1m0,0v-.2m0,0h.3m0,0l-.3,.2m12.1,-1.8l-.9,2.6m0,0v-.5m0,0h.6m0,0l-.6,.5m12.3,-3.9l-.8,5.2m0,0l-.5,-1.3m0,0l1.3,.3m0,0l-.8,1M621.3,935.8l.6,-.3m0,0h-.3m0,0h.3m10.9,.3l.3,-.3m0,0h-.3m0,0h.3m11.5,-.2l-.6,.8m0,0v-.3m0,0h.3m0,0l-.3,.3m12.1,-1.6l-.9,2.1m0,0v-.5m0,0l.6,.2m0,0l-.6,.3m12.3,-3.1l-1,4.4m0,0l-.3,-1.3m0,0l1.1,.3m0,0l-.8,1M621.1,924.5l.8,-.2m0,0v.2m0,0v-.2m10.9,.2l.3,-.2m11.2,0v.2m11.8,-.7l-.9,1.5m0,0v-.5m0,0l.6,.3m0,0l-.6,.2m12.6,-2.6l-1.3,3.4m0,0l-.3,-.8m0,0l1.1,.3m0,0l-.8,.5m-45.7,98.8l1.3,.2m0,0l-.2,.3m0,0v-.5m0,0l.2,.2m9.9,-1l1.9,1.8m0,0h-.6m0,0l.3,-.5m0,0l.3,.5M643,1023l2.6,4m0,0l-1,-.5m0,0l1,-.6m0,0v1.1m8.6,-5.5l2.9,7.1m0,0l-1.3,-1.1m0,0l1.6,-.8m0,0l-.3,1.9m8.3,-9l3.5,10.8m0,0l-2.2,-1.8m0,0l2.7,-1.1m0,0l-.5,2.9m-47.8,-16.8l.8,.5m0,0h-.3m0,0l.3,-.2m0,0v.2m10.4,-1l1.3,1.6m0,0l-.5,-.3m0,0l.5,-.3m0,0v.6m9.9,-2.7l1.6,3.7m0,0l-.8,-.5m0,0l1.1,-.5m0,0l-.3,1m9.6,-5l2.2,6.3m0,0l-1.4,-1m0,0l1.6,-.5m0,0l-.2,1.5m8.8,-8.1l2.6,10m0,0l-1.8,-1.9m0,0l2.7,-.8m0,0l-.9,2.7m-47,-16.3l.6,.3m0,0h-.3m0,0v-.3m0,0l.3,.3m10.6,-1.1l.8,1.6m0,0l-.2,-.3m0,0l.2,-.2m0,0v.5m10.5,-2.4l1,3.2m0,0l-.5,-.5m0,0l.8,-.3m0,0l-.3,.8M655,999.7l1.3,5.8m0,0l-1.1,-1.1m0,0l1.7,-.2m0,0l-.6,1.3m9.9,-7.3l1.9,8.9m0,0l-1.6,-1.6m0,0l2.1,-.5m0,0l-.5,2.1M621.3,991.3l.3,.3m11.2,-.8l.3,1.3m0,0l-.3,-.2m0,0h.3m0,0v.2M644,990l.6,2.9m0,0l-.6,-.5m0,0l.8,-.3m0,0l-.2,.8M655.2,989l.9,5m0,0l-.9,-.8m0,0l1.4,-.3m0,0l-.5,1.1m10.6,-6.6l.8,8.1m0,0L666.2,994m0,0l2.1,-.3m0,0l-.8,1.8M632.8,979.8l.3,1.1m0,0l-.3,-.3m0,0h.3m0,0v.3M644.3,979v2.4m0,0l-.3,-.3m0,0l.6,-.2m0,0l-.3,.5M655.5,978l.3,4.7m0,0l-.6,-1m0,0h1.1m0,0l-.5,1m11.2,-6l.3,7.3m0,0l-1.1,-1.6m0,0h1.9m0,0l-.8,1.6m-102.1,39.3l-1.3,3.4m0,0l-.3,-.8m0,0l1.1,.3m0,0l-.8,.5m12.3,-2.3l-.6,1.3m0,0v-.3m0,0l.3,.3m0,0h-.3m11.8,-.8l-.3,.2m0,0h.3m0,0h-.3m11.5,0l.3,-.2m10.7,.2l1,-.2m0,0l-.2,.2m0,0v-.2m0,0h.2m-45.7,-13.1l-1,4.2m0,0l-.3,-1.1m0,0l1.1,.3m0,0l-.8,.8m12.3,-3.2l-.6,2.1m0,0l-.2,-.5m0,0l.5,.3m0,0l-.3,.2m11.8,-1.3l-.3,.5m0,0v-.2m0,0l.3,.2m0,0h-.3m11.5,-.2h.3m0,0h-.3m0,0h.3m10.9,0l.6,-.3m0,0v.3m0,0l-.3,-.3m0,0h.3m-45.5,-13.3l-.8,4.9m0,0l-.5,-1.3m0,0l1.3,.3m0,0l-.8,1m12.1,-3.9l-.6,2.6m0,0l-.2,-.5m0,0l.8,.3m0,0l-.6,.2m11.8,-1.8l-.3,1m0,0v-.2m0,0l.3,.2m0,0h-.3M564.9,988.5l-.8,6m0,0l-.5,-1.3m0,0h1.3m0,0l-.8,1.3m12.1,-4.7l-.6,3.4m0,0l-.2,-.8m0,0h.8m0,0l-.6,.8m11.8,-2.4l-.3,1.3m0,0v-.2m0,0h.3m0,0l-.3,.2m11.8,-.8l-.3,.3m11.5,0v-.3m0,0v.3m0,0v-.3M564.7,976.9l-.3,6.9m0,0l-.8,-1.6m0,0h1.6m0,0l-.8,1.6m11.5,-5.5v3.9m0,0l-.5,-.8m0,0h1m0,0l-.5,.8m11.5,-2.9l-.3,2.1m0,0v-.5m0,0h.3m0,0l-.3,.5m11.5,-1.3v.5m0,0h.3m0,0h-.3m34.2,-33.8l.3,-.2m0,0h-.3m0,0h.3m-11.8,11.5l.3,-.3m-.3,11.3v.2m0,0v-.2m0,0v.2m-11.2,10.8v.3m0,0v-.3m0,0v.3m11.2,-.3v.3m0,0v-.3m0,0v.3m-22.4,21.8l-.3,.3m11.5,0v-.3m0,0v.3m0,0v-.3" class="ge_259"/>
<path d="M563.7,917.7H668.2c3.1,0,5.5,2.5,5.5,5.5v104.5c0,3.1,-2.4,5.5,-5.5,5.5H563.7c-3,0,-5.5,-2.4,-5.5,-5.5V923.2c0,-3,2.5,-5.5,5.5,-5.5Z" class="gf_259"/>
<g clip-path="url(#c2_259)">
<path d="M140.1,144.2l43.4,75.4l40.3,-77.5Z" class="gg_259"/>
<path d="M140.2,144.2l43,74.6l39.1,-76.6Z" class="gh_259"/>
<path d="M140.4,144.2L182.9,218l37.9,-75.8Z" class="gi_259"/>
<path d="M140.5,144.2l42,73l36.8,-74.9Z" class="gj_259"/>
<path d="M140.7,144.2l41.5,72.2l35.5,-74.1Z" class="gk_259"/>
<path d="M140.8,144.2l41,71.4l34.4,-73.2Z" class="gl_259"/>
<path d="M141,144.2l40.5,70.6l33.2,-72.4Z" class="gm_259"/>
<path d="M141.2,144.2l39.9,69.7l32.1,-71.5Z" class="gn_259"/>
<path d="M141.3,144.2l39.5,68.9l30.9,-70.6Z" class="go_259"/>
<path d="M141.5,144.2l39,68.1l29.7,-69.8Z" class="gp_259"/>
<path d="M141.6,144.2l38.5,67.3l28.5,-68.9Z" class="gp_259"/>
<path d="M141.8,144.2l38,66.5l27.3,-68.1Z" class="gq_259"/>
<path d="M141.9,144.2l37.5,65.7l26.2,-67.2Z" class="gr_259"/>
<path d="M142.1,144.2l37,64.9l25,-66.4Z" class="gs_259"/>
<path d="M142.2,144.2l36.5,64.1l23.9,-65.5Z" class="gt_259"/>
<path d="M142.4,144.2l36,63.3l22.7,-64.7Z" class="gu_259"/>
<path d="M142.5,144.2L178,206.7l21.6,-63.8Z" class="gu_259"/>
<path d="M142.7,144.2l35,61.7l20.3,-63Z" class="gv_259"/>
<path d="M142.8,144.2L177.4,205l19.1,-62Z" class="gw_259"/>
<path d="M143,144.2l34,60L195,143Z" class="gx_259"/>
<path d="M143.2,144.2l33.5,59.2l16.8,-60.3Z" class="gy_259"/>
<path d="M143.3,144.2l33,58.4L192,143.1Z" class="gz_259"/>
<path d="M143.5,144.2L176,201.8l14.5,-58.6Z" class="g10_259"/>
<path d="M143.6,144.2l32,56.8L189,143.2Z" class="g11_259"/>
<path d="M143.8,144.2l31.5,56l12.1,-57Z" class="g12_259"/>
<path d="M143.9,144.2L175,199.4l10.9,-56.1Z" class="g13_259"/>
<path d="M144.1,144.2l30.5,54.4l9.8,-55.3Z" class="g14_259"/>
<path d="M144.2,144.2l30.1,53.6l8.6,-54.4Z" class="g15_259"/>
<path d="M144.4,144.2L173.9,197l7.5,-53.6Z" class="g16_259"/>
<path d="M144.5,144.2l29.1,52l6.2,-52.7Z" class="g17_259"/>
<path d="M144.7,144.2l28.5,51.1l5.1,-51.8Z" class="g18_259"/>
<path d="M144.9,144.2l28,50.3l3.9,-50.9Z" class="g19_259"/>
<path d="M145,144.2l27.5,49.5l2.8,-50.1Z" class="g1a_259"/>
<path d="M145.2,144.2l27,48.7l1.6,-49.2Z" class="g1b_259"/>
<path d="M145.3,144.2l26.6,47.9l.4,-48.4Z" class="g1c_259"/>
<path d="M145.5,144.2l26,47.1l-.7,-47.6Z" class="g1d_259"/>
<path d="M145.6,144.2l25.6,46.3l-2,-46.7Z" class="g1e_259"/>
<path d="M145.8,144.2l25,45.5l-3.1,-45.9Z" class="g1f_259"/>
<path d="M145.9,144.2l24.6,44.7l-4.3,-45Z" class="g1g_259"/>
<path d="M146.1,144.2l24,43.9l-5.4,-44.2Z" class="g1h_259"/>
</g>
<path d="M153,144.7c6.5,1.2,19.7,2.4,30.6,2.4c10.9,0,26,-1.1,40.2,-5l-40.3,77.5L153,144.7Z" class="g7_259"/>
<image clip-path="url(#c3_259)" x="153" y="121" width="71" height="27" xlink:href="shade/1.png"/>
<path d="M223.8,142.1c-9.9,-8.3,-26.6,-19.5,-40.4,-20.3c-10,3.4,-21.3,11.1,-30.4,22.9c6.5,1.2,19.7,2.4,30.6,2.4c10.9,0,26,-1.1,40.2,-5Z" class="g7_259"/>
<path d="M193.6,216.5l-50.4,16.3" class="g4_259"/>
<path fill-rule="evenodd" d="M143.2,232.8l1.9,1.6l-5.9,-.3l4.6,-3.7Z" class="g6_259"/>
<path d="M170.1,217.3l67.3,12.3" class="g4_259"/>
<path clip-path="url(#c4_259)" fill-rule="evenodd" d="M237.4,229.6l-1,-2.3l5.1,3.1l-5.8,1.1Z" class="g6_259"/>
<path d="M183.5,121.8V104.6" class="g4_259"/>
<path fill-rule="evenodd" d="M183.5,104.6l-2.1,1.4l2.1,-5.6l2.1,5.6Z" class="g6_259"/>
<path d="M170.1,217.3l67.3,12.3M193.6,216.5l-50.4,16.3" class="g5_259"/>
<path d="M183.6,219.6l-.1,-97.8" class="g1i_259"/>
<path d="M183.6,121.8l-.1,-17.2" class="g5_259"/>
<path d="M183.6,190.2c3.4,0,7.1,1.7,9.9,4" class="g1j_259"/>
<path d="M193.5,194.2l.3,-1.3c0,0,.9,2.3,1.8,3.1c-.9,-.8,-3.3,-1.3,-3.3,-1.3Z" class="g6_259"/>
<path d="M193.5,194.2l.3,-1.3c0,0,.9,2.3,1.8,3.1c-.9,-.8,-3.3,-1.3,-3.3,-1.3l1.2,-.5Z" class="g1j_259"/>
<path d="M187.1,181.1h7.4" class="g4_259"/>
<path d="M369.4,98.8h7M148.1,286.7h7" class="g3_259"/>
<path d="M187.4,312.5h9.5m-9.5,18.3h4.8m-58.9,22.9H138" class="g1_259"/>
<path d="M192,346.3h7m109.9,0h7m-79.1,33.6h6.9" class="g3_259"/>
<path d="M155.9,399.7h-1.4m-1.1,0h1.1m1.2,0h-1.2m-.9,0h.9m2.8,.3l-1.4,-.3m-.2,0h.2m.3,0h-.3m-2.3,0h-.2m-.3,0h.3M152,400l1.4,-.3m4.4,.3l-1.6,-.3m-4.7,.3l1.6,-.3m3.8,.3l-1.2,-.3m-.2,0h.2m-1.9,0h-.2m-1.2,.3l1.2,-.3m1.9,0h-1m-.7,0h.7m0,.3v-.3m1.9,.3l-.9,-.3m-.3,.3l.3,-.3m-2.6,.3l.9,-.3m0,.3v-.3m3.5,.3h-.4m.9,0h-.9m-.5,0h.5m-5.4,.2l.9,-.2m-.4,0h.4m.5,0h-.5m6.1,.2l-1.2,-.2m.5,0h-.5m-6.5,.2L152,400m-.5,0h.5m3.2,0h-.7m-.7,0h.7m1.4,0h.5m.7,0h-.7m-3,0h-.5m-.7,.2l.7,-.2m3,0h-.7m-.2,0h.2m-1.8,0h.4m.3,0h-.3m5.2,.2l-1.2,-.2m.5,0h-.5m-7.5,.2l1.2,-.2m-.5,0h.5m4,.2l.4,-.2m.7,.2l-.7,-.2m-3.2,.2l.7,-.2m.4,.2l-.4,-.2m6.3,.4l-1.4,-.4m-8.7,.4L151,400m3.1,0h.4m0,.2V400m.5,0h-.5m.3,.2l.2,-.2m.5,.2L155,400m-.7,.2l-.2,-.2m-.3,.2l.3,-.2m2.5,.2l.5,-.2m.7,.2l-.7,-.2m.7,0h-.7m1.4,.2l-.7,-.2m.7,.4l-.7,-.4m-6.3,.2h.7m.5,0h-.5m-.7,0h.7m-1.4,0h.7m-.7,.2l.7,-.2m4.4,0h.7m.3,0h-.3m-1.6,0h.5m.4,0h-.4m-1.2,0h-.5m-.4,0h.4m-1.4,0h.3m.7,0h-.7m6.5,.2l-.7,-.2m.5,0h-.5m-8.4,.2l.7,-.2m-.5,0h.5m5.4,0h-.3m-.7,0h.7m-1.8,0h-.7m-.3,0h.3m6.3,.2l-.7,-.2m1.1,.2l-1.1,-.2m-9.4,.2l.7,-.2m-1.2,.2l1.2,-.2m4.2,.2v-.2m-.2,0h.2m.3,0h-.3m0,.2l.3,-.2m.2,0h-.2m-.3,.2l-.2,-.2m3,.2l-.4,-.2m.9,0h-.9m-.7,0h.7m-5.4,0h.9m.7,0h-.7m-.4,.2l.4,-.2m2.8,0H155m-.5,.2l.5,-.2m-.5,.2l-.2,-.2m-.2,0h.2m4.2,.2l-.7,-.2m.2,.2l-.2,-.2m-7,.2l.7,-.2m-.2,.2l.2,-.2m4.9,.2l-.2,-.2m-.7,.2l.7,-.2m-3.3,.2l.2,-.2m.7,.2l-.7,-.2m2.4,.2l-.3,-.2m-.7,.2l.7,-.2m-.7,.2l-.4,-.2m-.3,.2l.3,-.2m6.3,.2h-.7m1.1,.3l-1.1,-.3m-11.3,.3l1.2,-.3m-.7,0h.7m9.6,0h-.7m.5,.3l-.5,-.3m-8.2,.3l.5,-.3m-.7,0h.7m3.7,0h1m-1,0h-.7m1.7,0h.9m.9,0h-.9m-4.4,0h.9m.9,0h-.9m1.6,0h1m-1,0h-.7m6.3,0h-.9m.7,.3l-.7,-.3m-9.8,.3l.7,-.3m-1,0h1m7.2,.3v-.3m.7,0h-.7m-5.3,.3v-.3m-.7,0h.7m1.8,0h.7m-.2,.3l.2,-.3m1,0h-1m-.4,.3l.4,-.3m1,.3l-1,-.3m-.7,0h.7m.5,.3l-.5,-.3m.3,.3l-.3,-.3m1,0h-1m-.7,.3l.7,-.3m-.2,.3l.2,-.3m.7,.3l-.7,-.3m0,.3v-.3m0,.3v-.3m1.9,0h-.9m-2.6,0h.9m7,.3l-.4,-.3m1.1,.5l-1.1,-.5m-12.7,.5l1.2,-.5m-.7,.3l.7,-.3m10.1,.3l-1,-.3m.3,.3l-.3,-.3m-7,.3l.3,-.3m-1,.3l1,-.3m5.1,.3v-.3m.9,.3l-.9,-.3m-4.4,.3l.9,-.3m0,.3v-.3m2.6,.3v-.3m.9,.3l-.9,-.3m-1.7,.3v-.3m-.9,.3l.9,-.3m7,.3l-.7,-.3m.5,.5l-.5,-.5m-11.7,.3l.7,-.3m-.4,.5l.4,-.5m7.1,.3h-.7m-.3,0h.3m-2.4,0h.7m.3,0h-.3m5.4,.2l-.2,-.2m.9,0H159m-9.6,0h.9m-.2,.2l.2,-.2m8,0h-1m0,.2v-.2m-6.3,0h1m0,.2v-.2m3,0h.2m.7,.2l-.7,-.2m-1.8,.2l.7,-.2m.2,0h-.2m3.2,.2l-.9,-.2m-.2,0h.2m-4.4,.2l.9,-.2m.2,0h-.2m2.6,.2l-.5,-.2m-.2,0h.2m-1.2,.2l.5,-.2m7.9,.4l-1.4,-.4m-6.3,0h.3m.2,.2l-.2,-.2m-.7,.2l.2,-.2m.2,0h-.2m-7.5,.4l1.4,-.4m6.3,.2v-.2m0,.2v-.2m7,.2l-.7,-.2m.7,.4l-.7,-.4m-13.1,.2l.7,-.2m-.7,.4l.7,-.4m9.6,.2l.3,-.2m.9,.2l-.9,-.2m-7,.2l-.3,-.2m-.9,.2l.9,-.2m9.6,.2l-.7,-.2m0,.4v-.4m-11.2,.2l.7,-.2m0,.4v-.4m7.5,.2l-.7,-.2m-.3,.2l.3,-.2m-2.8,.2l-.3,-.2m-.7,.2l.7,-.2m4.9,.2h-.7m-.4,0h.4m-4.9,0H152m-.7,0h.7m3.5,0h.4m.7,.2l-.7,-.2m-2.1,0h-.4m-.7,.2l.7,-.2m6.5,.2l-.7,-.2m-.2,.2l.2,-.2m-8.9,.2l-.2,-.2m-.7,.2l.7,-.2m12.1,.2l-.7,-.2m1,.5l-1,-.5m-14.7,.5l.9,-.5m-.9,.2l.9,-.2m8.2,.2l-.4,-.2m-.5,0h.5m-1.4,0h-.3m-.4,.2l.4,-.2m7.7,.2l-.9,-.2m.2,.5l-.2,-.5m-12.2,.5l.3,-.5m-1,.2l1,-.2m7.9,.2l.3,-.2m.9,.2l-.9,-.2m-5.4,.2l.9,-.2m.3,.2l-.3,-.2m2.8,.5l-.2,-.5m-.5,0h.5m-.5,0h-.4m0,.5v-.5m4.9,.2l-1,-.2m-.2,.2l.2,-.2m-6.5,.2l-.2,-.2m-1,.2l1,-.2m3.2,.5v-.5m0,.5v-.5m1.4,.2h.7m.5,.3l-.5,-.3m-4.4,.3l.5,-.3m.7,0h-.7m7.2,.3v-.3m.9,.3l-.9,-.3m-11.5,.3l1,-.3m0,.3v-.3m13.1,.3l-1,-.3m.3,.5l-.3,-.5m-14.7,.3l.9,-.3m-.2,.5l.2,-.5m15.5,.3l-1,-.3m1,.7l-1,-.7m-16.1,.3l.7,-.3m-.7,.7l.7,-.7m10.3,.3l.7,-.3m.7,.3l-.7,-.3m.7,.3l.5,-.3m.9,.3l-.9,-.3m-6.8,.3l-.7,-.3m-.7,.3l.7,-.3m-.7,.3l-.5,-.3m-.9,.3l.9,-.3m4.9,.3l.7,-.3m.5,.5l-.5,-.5m-1.8,.3l-.7,-.3m-.5,.5l.5,-.5m1.1,.3h.7m.3,.2l-.3,-.2m-1.4,.2l.3,-.2m.4,0h-.4m.4,.2v-.2m0,.2v-.2m7.3,.2l-1,-.2m-.2,.4l.2,-.4m-12.1,.4l-.3,-.4m-.9,.2l.9,-.2m9.4,.4l-.7,-.4m-.7,.2l.7,-.2m-4.2,.2l-.7,-.2m-.7,.4l.7,-.4m11,.4l-.7,-.4m.2,.7l-.2,-.7m-16.4,.4l.7,-.4m-.2,.7l.2,-.7m12.4,.4l.7,-.4m.7,.4l-.7,-.4m-9.8,.4l-.7,-.4m-.7,.4l.7,-.4m14.5,.4l-.7,-.4m.9,.7l-.9,-.7m-18,.7l.9,-.7m-.7,.4l.7,-.4m13.1,.4l-.7,-.4m-.7,.4l.7,-.4m-7,.4l-.7,-.4m-.7,.4l.7,-.4m4.7,.2h.9m.5,.2l-.5,-.2m-4,.2l.5,-.2m.9,0h-.9m8.6,.5l.3,-.5m.9,.5l-.9,-.5m-14.1,.5l-.2,-.5m-.9,.5l.9,-.5m8.2,.5l-.2,-.5m-1,0h1m-1,0h-.7m-.2,.5l.2,-.5m.7,.5v-.5m0,.5v-.5m2.4,.2h.9m.7,.3l-.7,-.3m-7,.3l.7,-.3m.9,0h-.9m12.1,.5l-.4,-.5m.9,.3l-.9,-.3m-17.6,.5l.5,-.5m-.9,.3l.9,-.3m15.4,.3l-.9,-.3m-.5,.3l.5,-.3m-11.5,.3l-.4,-.3m-1,.3l1,-.3m9.8,.3l.7,-.3m.9,.3l-.9,-.3m-8.4,.3l-.7,-.3m-1,.3l1,-.3m14.5,.5l-.7,-.5m1.1,.7l-1.1,-.7m-19.2,.5l.7,-.5m-1.2,.7l1.2,-.7m11.9,.5l-.4,-.5m-1.2,.3l1.2,-.3m-3.3,.3l-1.2,-.3m-.4,.5l.4,-.5m10.1,.7l.2,-.4m.9,.2l-.9,-.2m-17.1,.2l1,-.2m.2,.4l-.2,-.4m9.3,.4l-.2,-.4m-1.2,0h1.2m-1.2,0h-.9m-.2,.4l.2,-.4m.9,.4v-.4m0,.4v-.4m10.5,.4l-.9,-.4m.2,.7l-.2,-.7m-5.1,.4l-.5,-.4m-1.2,.2l1.2,-.2m-8.2,.4l.5,-.4m1.2,.2l-1.2,-.2m-5.9,.7l.3,-.7m-1,.4l1,-.4m17.3,.4l-1,-.4m-.7,.4l.7,-.4m-13.1,.4l-.7,-.4m-.9,.4l.9,-.4m13.1,.4l-.7,-.4m-1.1,.4l1.1,-.4m-9.8,.4l-1.2,-.4m-.7,.4l.7,-.4m16.4,.7l-.9,-.5m1.1,.7l-1.1,-.7m-20.8,.5l.9,-.5m-1.2,.7l1.2,-.7m11.2,.2l1.4,-.2m.5,.5l-.5,-.5m-3.9,.2l-1.4,-.2m-.5,.5l.5,-.5m12.3,.5l-.7,-.5m-.4,.7l.4,-.7m-18.7,.5l.7,-.5m.5,.7l-.5,-.7m8.9,.2h1.4m.3,.5l-.3,-.5m-1.4,0h-1.1m-.3,.5l.3,-.5m6.3,.5l-.7,-.5m-1.2,.3l1.2,-.3m4.2,.5l-.7,-.5m-1,.5l1,-.5m-8,.5v-.5m0,.5v-.5m-4.9,.5l.7,-.5m1.2,.3l-1.2,-.3m15,.7l-.3,-.7m.7,.5l-.7,-.5m-17.3,.5l-.9,-.5m-.7,.5l.7,-.5m-3.3,.5l.7,-.5m-.2,.7l.2,-.7m17.3,.5l-.7,-.5m-1.1,.5l1.1,-.5m-13.1,.5l.7,-.5m1.2,.5l-1.2,-.5m18.3,1l-1.2,-.7m-22.9,.7l1.2,-.7m20.3,.7l.2,-.7m1,.4l-1,-.4m-19.1,.7l-.3,-.7m-.9,.4l.9,-.4m13.4,.4l-.5,-.4m-1.6,.2l1.6,-.2m-4.7,.2l-1.6,-.2m-.5,.4l.5,-.4m4.9,.7l-.2,-.5m-1.7,0h1.7m-1.7,0h-1.4m-.2,.5l.2,-.5m11,.5l-.9,-.5m-.7,.5l.7,-.5m-18,.5l.9,-.5m.7,.5l-.7,-.5m14.3,.5l-.7,-.5m-1.4,.2l1.4,-.2m-8.7,.2l-1.4,-.2m-.7,.5l.7,-.5m17.1,.5l-1,-.5m.5,.7l-.5,-.7m-23.1,.5l.9,-.5m-.4,.7l.4,-.7m11,.5V403m0,.5V403m8,.5l-1,-.5m-1.1,.5l1.1,-.5m-14.7,.5l.9,-.5m1.2,.5l-1.2,-.5m18.5,.7l-.9,-.5m-.3,.7l.3,-.7m-22.2,.5l.9,-.5m.2,.7l-.2,-.7m14.7,.5l-.4,-.5m-1.9,.3l1.9,-.3m-7.7,.5l.4,-.5m1.9,.3l-1.9,-.3m14,.7l-.9,-.4m-.9,.4l.9,-.4m-19.9,.4l1,-.4m.9,.4l-.9,-.4m9.3,0h1.9m.2,.4l-.2,-.4m-1.9,0h-1.6m-.2,.4l.2,-.4m5.8,.2l1.7,-.2m.4,.4l-.4,-.4m-12,.4l.5,-.4m1.7,.2l-1.7,-.2m5.6,.4v-.4m0,.4v-.4m8.7,.4l-.7,-.4m-1.7,.4l1.7,-.4m4.6,.9l-.4,-.9m.9,.7l-.9,-.7m-18.3,.4l-1.6,-.4m-.7,.4l.7,-.4m-4.7,.9l.5,-.9m-.9,.7l.9,-.7m23.1,.9l.5,-.7m.9,.7l-.9,-.7m-24.1,.7l1,-.7m.4,.9l-.4,-.9m16.1,.7l-.5,-.7m-2.1,.2l2.1,-.2m-6,.2l-2.1,-.2m-.5,.7l.5,-.7m15.1,.7l-.7,-.5m-1.1,.7l1.1,-.7m-21.5,.7l.7,-.7m1.2,.7l-1.2,-.7m15,.5l1.6,-.5m.7,.7l-.7,-.7m-13.1,.7l.7,-.7m1.7,.5l-1.7,-.5m6.1,0h2.1m.3,.7l-.3,-.7m-2.1,0h-1.8m-.3,.7l.3,-.7m11.2,.7l-.7,-.7m-1.7,.7l1.7,-.7m-15.5,.7l-1.6,-.7m-.7,.7l.7,-.7m8.7,.7l-.3,-.7m.3,.7l-.3,-.7m13.8,.7l-.7,-.4m.5,.7l-.5,-.7m-26.6,.4l.7,-.4m-.5,.7l.5,-.7m25,.9l.4,-.7m1,.5l-1,-.5m-24.5,.7l-.5,-.7m-.9,.5l.9,-.5m17.3,.5l-.2,-.5m-2.3,.2l2.3,-.2m-6.8,.2l-2.3,-.2m-.2,.5l.2,-.5m14.5,.9l1.1,-.9m1,.7l-1,-.7m-23.1,.7l.9,-.5m1.2,.7l-1.2,-.7m18.7,.5l-.7,-.5m-2.1,.3l2.1,-.3m-11.6,.3l-2.2,-.3m-.7,.5l.7,-.5m7.1,0h2.1m.2,.5l-.2,-.5m-2.1,0h-2.4m-.2,.5l.2,-.5m12.2,.7l-.7,-.7m-1.7,.5l1.7,-.5m-19.2,.7l.7,-.7m1.6,.5l-1.6,-.5m9.4,.7v-.7m0,.7v-.7m14.4,1l-.9,-1m.5,1.2l-.5,-1.2m-28.3,1l1,-1m-.7,1.2l.7,-1.2m18.9,1l-.5,-.7m-2.3,.2l2.3,-.2m-7.2,.2l-2.3,-.2m-.5,.7l.5,-.7m18.9,.9l-.7,-.9m-.5,.9l.5,-.9m-27.8,.9l.9,-.9m.5,.9l-.5,-.9m26.4,.9l-.9,-.7m-1.2,.9l1.2,-.9m-25,.7l.9,-.7m1.2,.9l-1.2,-.9m17.3,.5l2.3,-.5m.7,.7l-.7,-.7m-15.9,.7l.7,-.7m2.4,.5l-2.4,-.5m10.3,.7l-.2,-.7m-2.3,.2l2.3,-.2m-2.3,.2l-2.6,-.2m-.2,.7l.2,-.7m10.7,.7l1.7,-.5m.9,.7l-.9,-.7m-20.8,.7l.9,-.7m1.6,.5l-1.6,-.5m10.1,.7v-.7m0,.7v-.7m14.9,1.2l-.5,-.9m1,.7l-1,-.7m-30.1,.7l.9,-.7m-.4,.9l.4,-.9m20.4,.7l-.5,-.7m-2.6,.2l2.6,-.2m-7.9,.2l-2.6,-.2m-.5,.7l.5,-.7m20.3,.9l-.9,-.7m-.5,.9l.5,-.9m-27.8,.9l-.7,-.9m-.7,.7l.7,-.7m23.1,.7l-.5,-.7m-2.5,.5l2.5,-.5m-17,.7l.4,-.7m2.6,.5l-2.6,-.5m22,.9l-.7,-.9m-1.4,.9l1.4,-.9m-24.5,.9l-1.4,-.9m-.7,.9l.7,-.9m13.1,.2l2.5,-.2m.3,.9l-.3,-.9m-2.5,.2l-2.8,-.2m-.3,.9l.3,-.9m11.4,.7l2.1,-.5m.7,.7l-.7,-.7m-22.4,.7l.7,-.7m2.1,.5l-2.1,-.5m11,.7V406m0,.7V406m6,1.2l-.4,-.9m-2.8,.4l2.8,-.4m-8.7,.4l-2.8,-.4m-.5,.9l.5,-.9m22,1.1l-.7,-1.1m.5,1.1l-.5,-1.1m-31.6,1.1l.5,-1.1m-.9,1.1l.9,-1.1m31.6,1.1l-1,-.9m-.5,.9l.5,-.9m-31.1,.9l1,-.9m.4,.9l-.4,-.9m24.5,.9l-.7,-.9m-2.6,.7l2.6,-.7m-15,.7l-2.5,-.7m-.7,.9l.7,-.9m8.9,.2h2.8m.2,.7l-.2,-.7m-2.8,0h-3.1m-.2,.7l.2,-.7m17.5,.7l-.9,-.7m-1.4,.7l1.4,-.7m-25.9,1l-1.4,-1m-1,.7l1,-.7m25.9,.7l-.7,-.7m-2.1,.7l2.1,-.7m-21,.7l-2.1,-.7m-.7,1l.7,-1m11.7,1v-1m0,1v-1m3,.7l3,-.2m.5,.7l-.5,-.7m-9.3,.2l-3.1,-.2m-.4,.7l.4,-.7m23.4,1.2l-.9,-1m.7,1l-.7,-1m-33.4,1l.7,-1m-.5,1l.5,-1m26.6,1l-.7,-1m-2.8,.5l2.8,-.5m7.5,1l-.9,-1m-.5,1.2l.5,-1.2m-26.2,1l.7,-1m2.8,.5l-2.8,-.5m-6.1,1.2l-.5,-1.2m-.9,1l.9,-1m16.2,.3l3,-.3m.2,1l-.2,-1m-6.5,1l.2,-1m3.3,.3l-3.3,-.3m18.7,1.2l-1,-1.2m-1.4,1l1.4,-1m-30.1,1.2l.9,-1.2m1.4,1l-1.4,-1m27.8,1l-.9,-1m-2.1,1l2.1,-1m-22.4,1l-2.1,-.7m-1,.7l1,-.7m12.4,.7v-.7m0,.7v-.7m7,1.1l-.5,-.9m-3.3,.5l3.3,-.5m-13.8,.9l.5,-.9m3.3,.5l-3.3,-.5m17.3,1.4l-.5,-.9m-3,.4l3,-.4m-17.3,.4l-3,-.4m-.5,.9l.5,-.9m10.3,0H158m.3,.9l-.3,-.9m-3.2,0h-3.5m-.3,.9l.3,-.9m3.5,.9v-.9m0,.9v-.9m17.7,1.4l-.9,-1.4m-.7,1.2l.7,-1.2m.9,1.4l-.7,-1.4m1,1.4l-1,-1.4m-3.3,1.2l-.7,-1.2m-2.5,.9l2.5,-.9m-31,1.4l.9,-1.4m.5,1.2l-.5,-1.2m-1.2,1.4l1,-1.4m-.7,1.4l.7,-1.4m6.5,.9l-2.6,-.9m-.7,1.2l.7,-1.2m27.1,1.2l1.7,-1m.7,1l-.7,-1m-32,1l.9,-1m1.6,1l-1.6,-1m23.1,1.4l-.4,-1.2m-3.5,.5l3.5,-.5m-10.8,.5l-3.5,-.5M147,410l.5,-1.2m11,1.5l-.2,-1m-3.5,0h3.5m-7.5,1l.2,-1m3.8,0H151m11.2,.7l3.1,-.7m.7,1.2l-.7,-1.2m-22,1.2l.7,-1.2m3,.7l-3,-.7m10.8,1.2v-1.2m0,1.2v-1.2m11.2,1.2l2.5,-.9m.7,1.1l-.7,-1.1M140,410.7l.7,-1.1m2.6,.9l-2.6,-.9m28.5,1.1l1.7,-1.1m.9,1.4l-.9,-1.4M140,410.7l-1.8,-1.1m-.7,1.4l.7,-1.4m35.3,1.6l-1,-1.4m-.7,1.2l.7,-1.2m-36.7,1.4l1,-1.4m.7,1.2l-.7,-1.2m36.7,1.4l-.7,-1.4m.7,1.6l-.7,-1.6m-37.2,1.9l.9,-1.9m-.7,1.4l.7,-1.4m22,.5l3.7,-.3m.5,1l-.5,-1m-15.6,1l.4,-1m3.8,.3L147,410m11.7,1.4l-.2,-1.1m-3.7,.2l3.7,-.2m-7.9,1.1l.2,-1.1m4,.2l-4,-.2m15.9,1.4l-.7,-1.2m-3.3,.5l3.3,-.5m-23.4,1.2l.7,-1.2m3.3,.5l-3.3,-.5m11.5,1.2v-1.2m0,1.2v-1.2m15.4,1.4l-1,-1.2m-2.5,1l2.5,-1m-30.1,1.4l.9,-1.4m2.6,1l-2.6,-1m30.2,1.2l1.6,-.9m1,1.4l-1,-1.4m-32.7,1.1L137.5,411m-1,1.4l1,-1.4m25.7,1.4l-.5,-1.4m-4,.4l4,-.4m-16.6,1.4l.5,-1.4m4,.4l-4,-.4m27.6,1.8l-.7,-1.6m-.7,1.2l.7,-1.2m-37,1.2l-.7,-1.2m-.7,1.6l.7,-1.6m19,.5l3.9,-.3m.3,1.4l-.3,-1.4m-8.4,1.4l.3,-1.4m4.2,.3l-4.2,-.3m23.6,1.4l-.7,-1.4m-38.4,1.4l.5,-1.1m27.6,.7l3.5,-.7m.4,1.3l-.4,-1.3M142.1,413l.5,-1.3m3.5,.7l-3.5,-.7m12.2,1.1v-1.1m0,1.1v-1.1m16.1,1.8l-.7,-1.6m-3.1,1.1l3.1,-1.1M142.1,413l-3,-.9m-.7,1.4l.7,-1.4m19.9,.7l4.2,-.4m.4,1.4l-.4,-1.4m-17.6,1.4l.5,-1.4m4.2,.4l-4.2,-.4m27.6,1.8l-.9,-1.8m-1.9,1.1l1.9,-1.1m-34.4,1.1l-1.9,-1.1m-.9,1.8l.9,-1.8m18.3,.4H159m.2,1.4l-.2,-1.4m-8.9,1.4l.2,-1.4m4.5,0h-4.5m24.8,2.4l-.9,-2.4m-.5,1.4l.5,-1.4m-40,2.4l.9,-2.4m.5,1.4l-.5,-1.4m19.7,1.4v-1.4m0,1.4v-1.4m13,1.7l-.7,-1.5m-3.5,.8l3.5,-.8m-25.7,1.5l.7,-1.5m3.5,.8l-3.5,-.8m25.7,1.5l3.1,-1m.7,1.9l-.7,-1.9m-29.5,1l-3,-1m-.7,1.9l.7,-1.9m20.8,.7l4.4,-.4m.5,1.6l-.5,-1.6m-18.4,1.6l.4,-1.6m4.5,.4l-4.5,-.4m13.8,2.1l-.2,-1.7m-4.4,0h4.4m-9.3,1.7l.2,-1.7m4.7,0h-4.7m24.3,2.4l-.7,-2.4m-2.1,1.2l2.1,-1.2m-38.8,2.4l.7,-2.4m2.1,1.2l-2.1,-1.2m19.2,1.7v-1.7m0,1.7v-1.7m9.3,1.2l3.7,-.9m.7,2.1l-.7,-2.1m-22.6,.9l-3.8,-.9m-.7,2.1l.7,-2.1m33,2.1l.7,-1.4m.9,5.8l-.9,-5.8M133.3,421l.9,-5.8m.7,1.4l-.7,-1.4m30.1,2.1l-.2,-1.9m-4.7,.5l4.7,-.5m-19.2,1.9l.3,-1.9m4.7,.5l-4.7,-.5m27.1,2.6l-.7,-2.6m-3.1,1.2l3.1,-1.2M137,418l.7,-2.6m3,1.2l-3,-1.2m22,2.3l-.3,-1.8m-4.6,0h4.6m-4.6,0h-4.9m-.3,1.8l.3,-1.8m4.9,2.1v-2.1m0,2.1v-2.1m9.5,1.4l4.2,-.7m.7,2.3l-.7,-2.3m-28.2,2.3l.4,-2.3m4.2,.7l-4.2,-.7m31.6,1.4l2.1,-1.4m.9,6l-.9,-6M137,418l-2.1,-1.4m-.9,6l.9,-6m29.9,3.2l-.5,-2.5m-4.6,.4l4.6,-.4m-19.8,2.5l.4,-2.5m4.7,.4l-4.7,-.4m15,3l-.2,-2.6m-4.9,.3l4.9,-.3m-10.3,2.6l.2,-2.6m5.2,.3l-5.2,-.3m23.6,6.1l-.9,-5.8m-3.1,.9l3.1,-.9m-32,.9L137,418m-.9,5.8L137,418m17.8,2.5V418m0,2.5V418m14.9,7l-.5,-6.1m-4.4,.9l4.4,-.9M139.6,425l.7,-6.1m4.2,.9l-4.2,-.9m19.6,1.4l4.9,-.5m.5,6.1l-.5,-6.1M144,425.9l.5,-6.1m4.9,.5l-4.9,-.5m15.6,6.6l-.2,-6.1m-5.1,.2l5.1,-.2m-10.8,6.1l.3,-6.1m5.4,.2l-5.4,-.2m5.4,6.3v-6.1m0,6.1v-6.1m20.5,2.1L176,421m0,3v-3m-.7,1.6L176,421m-42.7,3v-3m.7,1.6l-.7,-1.6m.7,1.6l-.7,-1.6m39.9,2.8l2.1,-1.2m0,2.8v-2.8m-2.1,1.2l2.1,-1.2M134,425.4v-2.8m2.1,1.2L134,422.6m2.1,1.2L134,422.6m35.7,2.4l3.5,-1.2m0,3v-3m-3.5,1.2l3.5,-1.2M139.6,425l-3.5,-1.2m0,3v-3m3.5,1.2l-3.5,-1.2m39.9,3V424m-.7,1.4L176,424m-42,1.4l-.7,-1.4m0,2.8V424m36.4,4v-3m-4.4,.9l4.4,-.9m-4.4,.9l4.4,-.9m-30.1,3v-3m4.4,.9l-4.4,-.9m4.4,.9l-4.4,-.9m35.7,3.3v-2.9m-2.1,1.4l2.1,-1.4M134,428.3v-2.9m2.1,1.4L134,425.4m31.3,3.3v-2.8m-5.2,.5l5.2,-.5m-5.2,.5l5.2,-.5M144,428.7v-2.8m5.1,.5l-5.1,-.5m5.1,.5l-5.1,-.5m16.1,3.5v-3m-5.3,.2l5.3,-.2m-5.3,.2l5.3,-.2m-11,3v-3m5.7,.2l-5.7,-.2m5.7,.2l-5.7,-.2m5.7,3.3v-3.1m0,3.1v-3.1m14.9,1.4l3.5,-1.2m0,2.9v-2.9m-37.1,2.9v-2.9m3.5,1.2l-3.5,-1.2m39.9,2.9v-2.9m-.7,1.5l.7,-1.5m-42.7,2.9v-2.9m.7,1.5l-.7,-1.5m36.4,4V428m-4.4,.7l4.4,-.7m-25.7,.7l-4.4,-.7m0,2.8V428m35.7,3v-2.7m-2.1,1.4l2.1,-1.4m-39.2,1.4L134,428.3m0,2.7v-2.7m31.3,3.5v-3.1m-5.2,.7l5.2,-.7m-16.2,.7l-5.1,-.7m0,3.1v-3.1m16.1,3.5v-2.8m-5.3,.3l5.3,-.3m-11,2.8v-2.8m5.7,.3l-5.7,-.3m5.7,3.1v-2.8m0,2.8v-2.8m14.9,1.1l3.5,-1.1m0,2.8v-2.8m-33.6,1.1l-3.5,-1.1m0,2.8v-2.8m39.9,3v-3m-.7,1.3l.7,-1.3m-42.7,3v-3m.7,1.3l-.7,-1.3m32,2.1l4.4,-1m0,2.8v-2.8m-30.1,2.8v-2.8m4.4,1l-4.4,-1m33.6,1.7l2.1,-1.5m0,3.1V431m-39.2,1.5L134,431m0,3.1V431m31.3,3.6v-2.8m-5.2,.4l5.2,-.4m-16.2,.4l-5.1,-.4m0,2.8v-2.8m16.1,3.2v-2.8m-5.3,.3l5.3,-.3m-11,2.8v-2.8m5.7,.3l-5.7,-.3m5.7,3.1v-2.8m0,2.8v-2.8m14.9,1.1l3.5,-1.1m0,2.8v-2.8m-37.1,2.8v-2.8m3.5,1.1l-3.5,-1.1m39.9,3v-2.8m-.7,1.4l.7,-1.4m-42.7,2.8v-2.8m.7,1.4l-.7,-1.4m36.4,3.7v-2.8m-4.4,1l4.4,-1m-25.7,1l-4.4,-1m0,2.8v-2.8m35.7,3.3v-2.8m-2.1,1.2l2.1,-1.2m-39.2,1.2L134,434.1m0,2.8v-2.8m26.1,.9l5.2,-.4m0,2.8v-2.8M144,437.4v-2.8m5.1,.4l-5.1,-.4m16.1,3.5V435m-5.3,.3l5.3,-.3m-11,3.1V435m5.7,.3l-5.7,-.3m5.7,3.1v-2.8m0,2.8v-2.8m18.4,3v-3m-3.5,1.1l3.5,-1.1m-33.6,1.1l-3.5,-1.1m0,3v-3m39.9,3v-2.8m-.7,1.4l.7,-1.4m-42,1.4l-.7,-1.4m0,2.8v-2.8m32,1.9l4.4,-1m0,3.1v-3.1m-30.1,3.1v-3.1m4.4,1l-4.4,-1m35.7,3.3v-2.8m-2.1,1.4l2.1,-1.4m-39.2,1.4L134,436.9m0,2.8v-2.8m31.3,3.3v-2.8m-5.2,.7l5.2,-.7m-16.2,.7l-5.1,-.7m0,2.8v-2.8m16.1,3.5v-2.8m-5.3,0h5.3m-5.3,0h-5.7m0,2.8v-2.8m5.7,3v-3m0,3v-3m18.4,3v-2.8m-3.5,1.2l3.5,-1.2m-33.6,1.2l-3.5,-1.2m0,2.8v-2.8m39.2,1.4l.7,-1.4m0,2.8v-2.8m-42.7,2.8v-2.8m.7,1.4l-.7,-1.4m32,1.9l4.4,-.7m0,2.8v-2.8m-25.7,.7l-4.4,-.7m0,2.8v-2.8m35.7,3.2v-3m-2.1,1.4l2.1,-1.4m-39.2,1.4L134,439.7m0,3v-3m31.3,3.5v-3m-5.2,.7l5.2,-.7m-16.2,.7l-5.1,-.7m0,3v-3m16.1,3.5v-2.8m-5.3,.2l5.3,-.2m-5.3,.2l-5.7,-.2m0,2.8v-2.8m5.7,3v-2.8m0,2.8v-2.8m14.9,1.2l3.5,-1.2m0,2.8v-2.8m-33.6,1.2l-3.5,-1.2m0,2.8v-2.8m39.9,3v-3m-.7,1.6l.7,-1.6m-42,1.6l-.7,-1.6m0,3v-3m36.4,4v-2.8m-4.4,.9l4.4,-.9m-25.7,.9l-4.4,-.9m0,2.8v-2.8m35.7,3.2v-2.8m-2.1,1.2l2.1,-1.2m-39.2,1.2L134,442.7m0,2.8v-2.8m31.3,3.3v-2.8m-5.2,.5l5.2,-.5M144,446v-2.8m5.1,.5l-5.1,-.5m16.1,3.3v-2.8m-5.3,.2l5.3,-.2m-11,2.8v-2.8m5.7,.2l-5.7,-.2m5.7,3v-2.8m0,2.8v-2.8m14.9,1.2l3.5,-1.2m0,3.1v-3.1M136.1,447v-3.1m3.5,1.2l-3.5,-1.2M176,447v-2.9m-.7,1.4l.7,-1.4M133.3,447v-2.9m.7,1.4l-.7,-1.4m32,1.9l4.4,-.9m0,2.8v-2.8m-30.1,2.8v-2.8m4.4,.9l-4.4,-.9m35.7,3.3v-2.9m-2.1,1.5l2.1,-1.5M134,448.4v-2.9m2.1,1.5L134,445.5m31.3,3.3V446m-5.2,.5l5.2,-.5M144,448.8V446m5.1,.5L144,446m10.8,.7l5.3,-.2m0,3v-3m-5.3,.2l-5.7,-.2m0,3v-3m5.7,3v-2.8m0,2.8v-2.8m18.4,3V447m-3.5,.9l3.5,-.9m-37.1,2.7V447m3.5,.9l-3.5,-.9m39.2,1.4L176,447m0,2.7V447m-42,1.4l-.7,-1.4m0,2.7V447m36.4,3.9v-3m-4.4,.9l4.4,-.9m-25.7,.9l-4.4,-.9m0,3v-3m35.7,3.3v-2.8m-2.1,1.3l2.1,-1.3m-39.2,1.3L134,448.4m0,2.8v-2.8m31.3,3.5v-3.1m-5.2,.7l5.2,-.7M144,451.9v-3.1m5.1,.7l-5.1,-.7m10.8,.7h5.3m0,2.8v-2.8m-5.3,0h-5.7m0,2.8v-2.8m5.7,3.1v-3.1m0,3.1v-3.1m14.9,1.4l3.5,-1.2m0,2.9v-2.9m-33.6,1.2l-3.5,-1.2m0,2.9v-2.9m39.9,2.9v-2.9m-.7,1.5l.7,-1.5m-42,1.5l-.7,-1.5m0,3.1v-3.1m32,2.2l4.4,-1m0,2.8v-2.8m-30.1,2.8v-2.8m4.4,1l-4.4,-1m33.6,1.7l2.1,-1.4m0,3v-3m-39.2,1.4L134,451.2m0,3v-3m31.3,3.5v-2.8m-5.2,.4l5.2,-.4m-16.2,.4l-5.1,-.4m0,2.8v-2.8m16.1,3.2v-2.8m-5.3,.3l5.3,-.3m-5.3,.3l-5.7,-.3m0,2.8v-2.8m5.7,3.1v-2.8m0,2.8v-2.8m14.9,1.1l3.5,-1.1m0,2.8v-2.8m-33.6,1.1l-3.5,-1.1m0,2.8v-2.8m39.2,1.6l.7,-1.6m0,3v-3m-42,1.6l-.7,-1.4m0,2.8v-2.8m32,1.9l4.4,-1m0,2.8v-2.8m-30.1,2.8v-2.8m4.4,1l-4.4,-1m33.6,1.7l2.1,-1.2m0,2.8v-2.8M134,457v-2.8m2.1,1.2L134,454.2m31.3,3.3v-2.8m-5.2,.4l5.2,-.4M144,457.5v-2.8m5.1,.4l-5.1,-.4m16.1,3.2v-2.8m-5.3,.3l5.3,-.3m-5.3,.3l-5.7,-.3m0,2.8v-2.8m5.7,3.1v-2.8m0,2.8v-2.8m18.4,3v-3m-3.5,1.1l3.5,-1.1m-33.6,1.1l-3.5,-1.1m0,3v-3m39.9,3v-2.8m-.7,1.4l.7,-1.4M134,457l-.7,-1.4m0,2.8v-2.8m32,1.9l4.4,-1m0,3.1v-3.1m-25.7,1l-4.4,-1m0,3.1v-3.1m33.6,1.9l2.1,-1.4m0,2.8V457M134,459.8V457m2.1,1.4L134,457m31.3,3.3v-2.8m-5.2,.4l5.2,-.4M144,460.3v-2.8m5.1,.4l-5.1,-.4m16.1,3.5v-3.1m-5.3,.3l5.3,-.3m-11,3.1v-3.1m5.7,.3l-5.7,-.3m5.7,3.3v-3m0,3v-3m18.4,3v-2.8m-3.5,1.2l3.5,-1.2m-33.6,1.2l-3.5,-1.2m0,2.8v-2.8m39.2,1.4l.7,-1.4m0,2.8v-2.8m-42,1.4l-.7,-1.4m0,2.8v-2.8m36.4,4v-2.8m-4.4,.7l4.4,-.7m-25.7,.7l-4.4,-.7m0,2.8v-2.8m35.7,3v-2.8m-2.1,1.4l2.1,-1.4M134,462.6v-2.8m2.1,1.4L134,459.8m26.1,1.2l5.2,-.7m0,3v-3m-16.2,.7l-5.1,-.7m0,3v-3m16.1,3.5V461m-5.3,.2l5.3,-.2m-5.3,.2l-5.7,-.2m0,2.8V461m5.7,3v-2.8m0,2.8v-2.8m18.4,2.8v-2.8m-3.5,1.2l3.5,-1.2M136.1,464v-2.8m3.5,1.2l-3.5,-1.2m39.2,1.4l.7,-1.4m0,3v-3m-42,1.4l-.7,-1.4m0,3v-3m32,2.1l4.4,-.9m0,2.8v-2.8m-30.1,2.8v-2.8m4.4,.9l-4.4,-.9m35.7,3.3v-3.1m-2.1,1.4l2.1,-1.4M134,465.7v-3.1m2.1,1.4L134,462.6m26.1,1.2l5.2,-.5m0,2.8v-2.8m-16.2,.5l-5.1,-.5m0,2.8v-2.8m16.1,3.3v-2.8m-5.3,.2l5.3,-.2m-11,2.8v-2.8m5.7,.2l-5.7,-.2m5.7,3V464m0,2.8V464m18.4,2.8V464m-3.5,1.2l3.5,-1.2m-37.1,2.8V464m3.5,1.2L136.1,464m39.2,1.7l.7,-1.5m0,2.9v-2.9m-42,1.5l-.7,-1.5m0,2.9v-2.9m32,1.9l4.4,-.9m0,2.8v-2.8m-25.7,.9l-4.4,-.9m0,2.8v-2.8m33.6,1.6l2.1,-1.1m0,2.7v-2.7M134,468.4v-2.7m2.1,1.1L134,465.7m31.3,3.2v-2.8m-5.2,.5l5.2,-.5M144,468.9v-2.8m5.1,.5l-5.1,-.5m16.1,3.5v-3m-5.3,.2l5.3,-.2m-11,3v-3m5.7,.2l-5.7,-.2m5.7,3v-2.8m0,2.8v-2.8m14.9,1.2l3.5,-1.2m0,3.1v-3.1m-37.1,3.1v-3.1m3.5,1.2l-3.5,-1.2m39.2,1.6l.7,-1.3m0,2.8v-2.8m-42,1.3l-.7,-1.3m0,2.8v-2.8m36.4,3.9v-3m-4.4,.9l4.4,-.9m-30.1,3v-3m4.4,.9l-4.4,-.9m35.7,3.3v-2.9m-2.1,1.5l2.1,-1.5M134,471.3v-2.9m2.1,1.5L134,468.4m31.3,3.3v-2.8m-5.2,.7l5.2,-.7M144,471.7v-2.8m5.1,.7l-5.1,-.7m10.8,.7h5.3m0,2.8v-2.8m-11,2.8v-2.8m5.7,0h-5.7m5.7,3.1v-3.1m0,3.1v-3.1m14.9,1.4l3.5,-1.1m0,2.8v-2.8M139.6,471l-3.5,-1.1m0,2.8v-2.8m39.2,1.4l.7,-1.4m0,2.8v-2.8m-42,1.4l-.7,-1.4m0,2.8v-2.8m36.4,3.9V471m-4.4,.7l4.4,-.7m-30.1,2.8V471m4.4,.7l-4.4,-.7m33.6,1.7l2.1,-1.4m0,3v-3m-41.3,3v-3m2.1,1.4L134,471.3m31.3,3.5v-3.1m-5.2,.7l5.2,-.7m-16.2,.7l-5.1,-.7m0,3.1v-3.1m16.1,3.5v-2.8m-5.3,.3l5.3,-.3m-11,2.8v-2.8m5.7,.3l-5.7,-.3m5.7,3.1v-2.8m0,2.8v-2.8m18.4,2.8v-2.8m-3.5,1.1l3.5,-1.1m-37.1,2.8v-2.8m3.5,1.1l-3.5,-1.1m39.9,3v-3m-.7,1.6l.7,-1.6m-42.7,3v-3m.7,1.6l-.7,-1.6m32,2.1l4.4,-1m0,2.8v-2.8m-25.7,1l-4.4,-1m0,2.8v-2.8m35.7,3.3v-2.8m-2.1,1.2l2.1,-1.2M134,477.1v-2.8m2.1,1.2L134,474.3m26.1,.9l5.2,-.4m0,2.8v-2.8M144,477.6v-2.8m5.1,.4l-5.1,-.4m16.1,3.2v-2.8m-5.3,.3l5.3,-.3m-11,2.8v-2.8m5.7,.3l-5.7,-.3m5.7,3.1v-2.8m0,2.8v-2.8m14.9,1.1l3.5,-1.1m0,3v-3m-33.6,1.1l-3.5,-1.1m0,3v-3m39.9,3v-2.8m-.7,1.4l.7,-1.4m-42,1.4l-.7,-1.4m0,2.8v-2.8m36.4,3.7v-2.8m-4.4,1l4.4,-1m-25.7,1l-4.4,-1m0,3.1v-3.1m35.7,3.3v-2.8m-2.1,1.4l2.1,-1.4M134,479.9v-2.8m2.1,1.4L134,477.1m31.3,3.3v-2.8m-5.2,.4l5.2,-.4M144,480.4v-2.8m5.1,.4l-5.1,-.4m16.1,3.5V478m-5.3,.3l5.3,-.3m-11,3.1V478m5.7,.3l-5.7,-.3m5.7,3.1v-2.8m0,2.8v-2.8m14.9,1.1l3.5,-.9m0,2.8v-2.8m-33.6,1.2l-3.5,-1.2m0,2.8v-2.8m39.9,2.8v-2.8m-.7,1.4l.7,-1.4m-42.7,2.8v-2.8m.7,1.4l-.7,-1.4m36.4,4v-3.1m-4.4,1l4.4,-1m-25.7,1l-4.4,-.7m0,2.8v-2.8m35.7,3v-2.8m-2.1,1.4l2.1,-1.4m-39.2,1.4L134,479.9m0,2.8v-2.8m31.3,3.5v-3m-5.2,.7l5.2,-.7m-16.2,.7l-5.1,-.7m0,3v-3m16.1,3.5v-2.8m-5.3,0h5.3m-11,2.8v-2.8m5.7,0h-5.7m5.7,3v-3m0,3v-3m18.4,3v-2.8m-3.5,1.2l3.5,-1.2m-33.6,1.2l-3.5,-1.2m0,2.8v-2.8m39.2,1.4l.7,-1.4m0,2.8v-2.8m-42.7,3.1v-3.1m.7,1.4l-.7,-1.4m36.4,4v-2.8m-4.4,.9l4.4,-.9m-30.1,2.8v-2.8m4.4,.9l-4.4,-.9m33.6,1.6l2.1,-1.4m0,3.1v-3.1m-39.2,1.4L134,482.7m0,3.1v-3.1m31.3,3.5v-2.8m-5.2,.5l5.2,-.5M144,486.2v-2.8m5.1,.5l-5.1,-.5m16.1,3.3v-2.8m-5.3,.2l5.3,-.2m-11,2.8v-2.8m5.7,.2l-5.7,-.2m5.7,3v-2.8m0,2.8v-2.8m18.4,2.8v-2.8m-3.5,1.2l3.5,-1.2m-37.1,2.8v-2.8m3.5,1.2l-3.5,-1.2m39.9,3v-3m-.7,1.7l.7,-1.7m-42.7,3v-2.7m.7,1.4l-.7,-1.4m32,1.8l4.4,-.9m0,2.8v-2.8m-25.7,.9l-4.4,-.9m0,2.8v-2.8m33.6,1.6l2.1,-1.1m0,2.8v-2.8m-39.2,1.1L134,485.8m0,2.8v-2.8m26.1,.9l5.2,-.5m0,2.8v-2.8M144,489v-2.8m5.1,.5l-5.1,-.5m10.8,.7l5.3,-.2m0,2.8v-2.8m-11,2.8v-2.8m5.7,.2l-5.7,-.2m5.7,3v-2.8m0,2.8v-2.8m14.9,1.2l3.5,-1.2m0,3.1v-3.1m-33.6,1.2l-3.5,-1.2m0,3.1v-3.1m39.2,1.7l.7,-1.5m0,2.9v-2.9m-42,1.5l-.7,-1.5m0,2.9v-2.9m36.4,4v-3m-4.4,.9l4.4,-.9m-30.1,3v-3m4.4,.9l-4.4,-.9m35.7,3.3v-2.8m-2.1,1.4l2.1,-1.4M134,491.4v-2.8m2.1,1.4L134,488.6m26.1,.9l5.2,-.5m0,2.8V489M144,491.8V489m5.1,.5L144,489m16.1,3.5v-3m-5.3,.2l5.3,-.2m-11,3v-3m5.7,.2l-5.7,-.2m5.7,3.3v-3.1m0,3.1v-3.1m18.4,3.1V490m-3.5,1.1l3.5,-1.1m-37.1,2.8V490m3.5,1.1L136.1,490m39.2,1.4L176,490m-42,1.4l-.7,-1.4m32,1.8l4.4,-.7m0,2.8v-2.8m-25.7,.7l-4.4,-.7m0,2.8v-2.8m33.6,1.7l2.1,-1.4m-39.2,1.4L134,491.4m26.1,1.1l5.2,-.7m0,3.1v-3.1m-16.2,.7l-5.1,-.7m0,3.1v-3.1m10.8,1l5.3,-.3m0,2.8v-2.8m-5.3,.3l-5.7,-.3m0,2.8v-2.8m5.7,3.1v-2.8m0,2.8v-2.8m14.9,1.1l3.5,-1.1m-33.6,1.1l-3.5,-1.1m29.2,2.1l4.4,-1m-25.7,1l-4.4,-1m20.5,1.4l5.2,-.4m-16.2,.4l-5.1,-.4m10.8,.7l5.3,-.3m-5.3,.3l-5.7,-.3" class="g1k_259"/>
<path clip-path="url(#c5_259)" d="M461.5,567.1h8.2" class="g3_259"/>
<path d="M159.4,593.6h4.8m75.7,0h4.8" class="g1_259"/>
<path d="M289.2,636.6h7" class="g3_259"/>
<path d="M155.4,677.6h4.8m216.1,0h9.6M133.3,696H138m76.8,0h4.8M330.1,802.9h4.8m75.1,0h4.8" class="g1_259"/>
<path d="M148.1,832.9h7m-.2,21.4h7m23.8,0h7m23.8,0h7m78,0h7" class="g3_259"/>
<path d="M133.3,929.7H138m82.2,0H225m33.3,0h4.8m52.4,0h4.8M221.9,948h9.6m134.3,0h9.5M205.9,964.8h4.8m-55.3,18.4h4.8m48.5,0H215m8,0h9.6M158.9,1003h9.5m35.9,0h9.6" class="g1_259"/>
<path d="M222.3,996.2h6.1m-6.1,2h6.1" class="g1l_259"/>
<path d="M270.5,995.6h7" class="g3_259"/>
<path d="M284.3,998.2h6m-6,-2h6" class="g1l_259"/>
<path clip-path="url(#c6_259)" d="M332.5,995.6h7" class="g3_259"/>
<path d="M158.7,1030.8h7m29.8,0h7m36,0h7" class="g3_259"/>
<path d="M311.1,1038.2h14.4" class="g1_259"/>
</svg>