<?xml version="1.0" encoding="UTF-8" standalone="no"?>
<!DOCTYPE svg PUBLIC "-//W3C//DTD SVG 1.1//EN"
"http://www.w3.org/Graphics/SVG/1.1/DTD/svg11.dtd">
<svg viewBox="0 0 770 1017" version="1.1" xmlns="http://www.w3.org/2000/svg" xmlns:xlink="http://www.w3.org/1999/xlink">
<defs>
<style type="text/css"><![CDATA[
.g0_32{
fill: none;
stroke: #000000;
stroke-width: 0.618;
stroke-linecap: butt;
stroke-linejoin: miter;
}
.g1_32{
stroke: #000000;
stroke-width: 0.435;
stroke-linecap: butt;
stroke-linejoin: miter;
}
.g2_32{
fill: none;
stroke: #000000;
stroke-width: 0.435;
stroke-linecap: butt;
stroke-linejoin: miter;
}
.g3_32{
fill: none;
stroke: #000000;
stroke-width: 0.352;
stroke-linecap: butt;
stroke-linejoin: miter;
}
]]></style>
</defs>
<path d="M56,69.2H695.2" class="g0_32"/>
<path d="M140.1,171.3c0,2.4,-2,4.3,-4.4,4.3c-2.4,0,-4.3,-1.9,-4.3,-4.3c0,-2.4,1.9,-4.4,4.3,-4.4c2.4,0,4.4,2,4.4,4.4" class="g1_32"/>
<path d="M105.2,227.9c0,2.4,-1.9,4.4,-4.3,4.4c-2.4,0,-4.4,-2,-4.4,-4.4c0,-2.4,2,-4.4,4.4,-4.4c2.4,0,4.3,2,4.3,4.4" class="g1_32"/>
<path d="M140.1,227.9c0,2.4,-2,4.4,-4.4,4.4c-2.4,0,-4.3,-2,-4.3,-4.4c0,-2.4,1.9,-4.4,4.3,-4.4c2.4,0,4.4,2,4.4,4.4" class="g1_32"/>
<path d="M170.6,227.9c0,2.4,-2,4.4,-4.4,4.4c-2.4,0,-4.3,-2,-4.3,-4.4c0,-2.4,1.9,-4.4,4.3,-4.4c2.4,0,4.4,2,4.4,4.4" class="g1_32"/>
<path d="M253.4,171.3c0,2.4,-2,4.3,-4.4,4.3c-2.4,0,-4.3,-1.9,-4.3,-4.3c0,-2.4,1.9,-4.4,4.3,-4.4c2.4,0,4.4,2,4.4,4.4" class="g1_32"/>
<path d="M218.5,223.5c0,2.4,-1.9,4.4,-4.3,4.4c-2.4,0,-4.4,-2,-4.4,-4.4c0,-2.4,2,-4.3,4.4,-4.3c2.4,0,4.3,1.9,4.3,4.3" class="g1_32"/>
<path d="M249,223.5c0,2.4,-1.9,4.4,-4.3,4.4c-2.4,0,-4.4,-2,-4.4,-4.4c0,-2.4,2,-4.3,4.4,-4.3c2.4,0,4.3,1.9,4.3,4.3" class="g1_32"/>
<path d="M275.2,223.5c0,2.4,-2,4.4,-4.4,4.4c-2.4,0,-4.4,-2,-4.4,-4.4c0,-2.4,2,-4.3,4.4,-4.3c2.4,0,4.4,1.9,4.4,4.3" class="g1_32"/>
<path d="M301.3,223.5c0,2.4,-1.9,4.4,-4.3,4.4c-2.5,0,-4.4,-2,-4.4,-4.4c0,-2.4,1.9,-4.3,4.4,-4.3c2.4,0,4.3,1.9,4.3,4.3" class="g1_32"/>
<path d="M358,171.3c0,2.4,-2,4.3,-4.4,4.3c-2.4,0,-4.4,-1.9,-4.4,-4.3c0,-2.4,2,-4.4,4.4,-4.4c2.4,0,4.4,2,4.4,4.4" class="g1_32"/>
<path d="M253.4,105.9c0,2.4,-2,4.4,-4.4,4.4c-2.4,0,-4.3,-2,-4.3,-4.4c0,-2.4,1.9,-4.4,4.3,-4.4c2.4,0,4.4,2,4.4,4.4" class="g1_32"/>
<path d="M358,223.5c0,2.4,-2,4.4,-4.4,4.4c-2.4,0,-4.4,-2,-4.4,-4.4c0,-2.4,2,-4.3,4.4,-4.3c2.4,0,4.4,1.9,4.4,4.3" class="g1_32"/>
<path d="M249,105.9L135.7,171.3m0,0l-34.8,56.6m34.8,-56.6v56.6m0,-56.6l30.5,56.6M249,105.9v65.4m0,0l-34.8,52.2M249,171.3l-4.3,52.2M249,171.3l21.8,52.2M249,171.3l48,52.2M249,105.9l104.6,65.4m0,0v52.2" class="g2_32"/>
<path d="M410.4,136.1c0,2,-1.6,3.6,-3.6,3.6c-1.9,0,-3.5,-1.6,-3.5,-3.6c0,-1.9,1.6,-3.5,3.5,-3.5c2,0,3.6,1.6,3.6,3.5m144.5,0c0,2,-1.6,3.6,-3.5,3.6c-1.9,0,-3.5,-1.6,-3.5,-3.6c0,-1.9,1.6,-3.5,3.5,-3.5c1.9,0,3.5,1.6,3.5,3.5M410.4,231.3c0,2,-1.6,3.5,-3.6,3.5c-1.9,0,-3.5,-1.5,-3.5,-3.5c0,-1.9,1.6,-3.5,3.5,-3.5c2,0,3.6,1.6,3.6,3.5m144.5,0c0,2,-1.6,3.5,-3.5,3.5c-1.9,0,-3.5,-1.5,-3.5,-3.5c0,-1.9,1.6,-3.5,3.5,-3.5c1.9,0,3.5,1.6,3.5,3.5m0,-45.8c0,1.9,-1.6,3.5,-3.5,3.5c-1.9,0,-3.5,-1.6,-3.5,-3.5c0,-2,1.6,-3.5,3.5,-3.5c1.9,0,3.5,1.5,3.5,3.5m-70.5,0c0,1.9,-1.6,3.5,-3.5,3.5c-2,0,-3.6,-1.6,-3.6,-3.5c0,-2,1.6,-3.5,3.6,-3.5c1.9,0,3.5,1.5,3.5,3.5M614.8,136.1c0,2,-1.6,3.6,-3.5,3.6c-1.9,0,-3.5,-1.6,-3.5,-3.6c0,-1.9,1.6,-3.5,3.5,-3.5c1.9,0,3.5,1.6,3.5,3.5m2.9,95.9c0,2,-1.6,3.5,-3.6,3.5c-1.9,0,-3.5,-1.5,-3.5,-3.5c0,-1.9,1.6,-3.5,3.5,-3.5c2,0,3.6,1.6,3.6,3.5M406.8,139.6v88.2m3.6,-91.7H547.9M410.4,231.3H547.9m3.5,-91.7v42.3m0,7.1v38.8m-141,-88.2l66.9,42.3m7.1,3.6l63.5,42.3m0,-88.2l-63.5,42.3m-7.1,3.6l-66.9,42.3M554.9,136.1h52.9m-52.9,95.2h56.4" class="g3_32"/>
<path d="M65.1,298.7h621" class="g0_32"/>
</svg>