<?xml version="1.0" encoding="UTF-8" standalone="no"?>
<!DOCTYPE svg PUBLIC "-//W3C//DTD SVG 1.1//EN"
"http://www.w3.org/Graphics/SVG/1.1/DTD/svg11.dtd">
<svg viewBox="0 0 907 1045" version="1.1" xmlns="http://www.w3.org/2000/svg" xmlns:xlink="http://www.w3.org/1999/xlink">
<defs>
<clipPath id="c0_667"><path d="M632.9,576.4C611.2,561.9,586.4,561.1,594.6,519.8c4.3,-22,20.9,-30.8,39.6,-38.7h20.6c47.7,21.8,36.7,75.4,-5.5,95.3Z"/></clipPath>
<clipPath id="c1_667"><path d="M710.4,446.9c-17,-11.4,-36.6,-12.1,-30.1,-44.6c3.4,-17.3,16.4,-24.2,31.2,-30.4h16.2c37.6,17.2,28.9,59.3,-4.3,75Z"/></clipPath>
<clipPath id="c2_667"><path d="M564.2,716.9C539.4,700.3,511,699.4,520.4,652.2C525.4,627,544.3,617,565.7,608h23.5c54.6,24.9,41.9,86.1,-6.3,108.9Z"/></clipPath>
<clipPath id="c3_667"><path d="M761.1,567.2C739.5,552.7,714.6,551.9,722.8,510.6c4.3,-22,20.9,-30.8,39.7,-38.7H783c47.8,21.8,36.7,75.4,-5.5,95.3Z"/></clipPath>
<clipPath id="c4_667"><path d="M731.4,716.9C706.6,700.3,678.2,699.4,687.6,652.2C692.6,627,711.5,617,732.9,608h23.5c54.6,24.9,41.9,86.1,-6.2,108.9Z"/></clipPath>
<clipPath id="c5_667"><path d="M439.4,501.9C422.3,490.5,402.8,489.8,409.2,457.3c3.5,-17.3,16.5,-24.2,31.3,-30.4h16.1c37.6,17.2,28.9,59.3,-4.3,75Z"/></clipPath>
<clipPath id="c6_667"><path d="M255.6,630.8C233.9,616.3,209,615.4,217.2,574.2c4.4,-22,20.9,-30.8,39.7,-38.7h20.5c47.8,21.8,36.7,75.3,-5.4,95.3Z"/></clipPath>
<clipPath id="c7_667"><path d="M358.9,544.1c-5,-3.4,-10.7,-3.6,-8.8,-13.1c1,-5,4.8,-7,9.1,-8.9h4.7c11,5.1,8.5,17.4,-1.2,22Z"/></clipPath>
<clipPath id="c8_667"><path d="M376.7,514.3c-3.9,-2.6,-8.4,-2.8,-6.9,-10.3c.8,-4,3.8,-5.5,7.2,-7h3.7c8.7,4,6.6,13.7,-1,17.3Z"/></clipPath>
<clipPath id="c9_667"><path d="M343.1,576.4c-5.7,-3.8,-12.2,-4.1,-10.1,-14.9c1.2,-5.8,5.5,-8.1,10.5,-10.2h5.3c12.6,5.8,9.7,19.8,-1.4,25.1Z"/></clipPath>
<clipPath id="ca_667"><path d="M392.6,544.1c-5,-3.4,-10.7,-3.6,-8.8,-13.1c1,-5,4.8,-7,9.1,-8.9h4.7c11,5.1,8.5,17.4,-1.2,22Z"/></clipPath>
<clipPath id="cb_667"><path d="M381.6,576.4c-5.7,-3.8,-12.3,-4.1,-10.1,-14.9c1.1,-5.8,5.5,-8.1,10.4,-10.2h5.4c12.6,5.8,9.6,19.8,-1.4,25.1Z"/></clipPath>
<clipPath id="cc_667"><path d="M-2.6,1047.7V-2.6H910.2V1047.7Z"/></clipPath>
<style type="text/css"><![CDATA[
.g0_667{
fill: none;
stroke: #000000;
stroke-width: 0.763;
stroke-linecap: butt;
stroke-linejoin: miter;
stroke-miterlimit: 4;
}
.g1_667{
fill: #FFFFFF;
}
.g2_667{
fill: none;
stroke: #000000;
stroke-width: 1.527;
stroke-linecap: butt;
stroke-linejoin: miter;
stroke-miterlimit: 4;
}
.g3_667{
fill: none;
stroke: #000000;
stroke-width: 1.527;
stroke-linecap: butt;
stroke-linejoin: miter;
stroke-miterlimit: 4;
stroke-dasharray: 5,3;
}
.g4_667{
fill: none;
stroke: #000000;
stroke-width: 1.527;
stroke-linecap: butt;
stroke-linejoin: miter;
stroke-miterlimit: 4;
stroke-dasharray: 5,4;
}
.g5_667{
fill: none;
stroke: #454545;
stroke-width: 1.151;
stroke-linecap: butt;
stroke-linejoin: miter;
stroke-miterlimit: 4;
}
.g6_667{
fill: none;
stroke: #474747;
stroke-width: 0.566;
stroke-linecap: butt;
stroke-linejoin: miter;
stroke-miterlimit: 4;
}
.g7_667{
fill: none;
stroke: #474747;
stroke-width: 0.966;
stroke-linecap: butt;
stroke-linejoin: miter;
stroke-miterlimit: 4;
}
.g8_667{
fill: none;
stroke: #454545;
stroke-width: 0.471;
stroke-linecap: butt;
stroke-linejoin: miter;
stroke-miterlimit: 4;
}
.g9_667{
fill: none;
stroke: #454545;
stroke-width: 1.546;
stroke-linecap: butt;
stroke-linejoin: miter;
stroke-miterlimit: 4;
}
.ga_667{
fill: none;
stroke: #FFFFFF;
stroke-width: 1.909;
stroke-linecap: butt;
stroke-linejoin: miter;
}
.gb_667{
fill: none;
stroke: #000000;
stroke-width: 0.381;
stroke-linecap: butt;
stroke-linejoin: miter;
}
]]></style>
</defs>
<path d="M91.1,773.8V951.4H437.2V773.8H91.1Z" class="g0_667"/>
<path d="M115.6,765.3v23h136v-23h-136Z" class="g1_667"/>
<path d="M468.5,773.7V951.4H809.6V773.7H468.5Z" class="g0_667"/>
<path d="M491.5,763.9v24.4H640.1V763.9H491.5Z" class="g1_667"/>
<g clip-path="url(#c0_667)">
<image clip-path="url(#c0_667)" preserveAspectRatio="none" x="592" y="478" width="100" height="101" xlink:href="img/1.jpg"/>
</g>
<g clip-path="url(#c1_667)">
<image clip-path="url(#c1_667)" preserveAspectRatio="none" x="678" y="370" width="79" height="79" xlink:href="img/2.jpg"/>
</g>
<g clip-path="url(#c2_667)">
<image clip-path="url(#c2_667)" preserveAspectRatio="none" x="517" y="605" width="114" height="115" xlink:href="img/3.jpg"/>
</g>
<g clip-path="url(#c3_667)">
<image clip-path="url(#c3_667)" preserveAspectRatio="none" x="720" y="469" width="100" height="101" xlink:href="img/4.jpg"/>
</g>
<g clip-path="url(#c4_667)">
<image clip-path="url(#c4_667)" preserveAspectRatio="none" x="684" y="605" width="115" height="115" xlink:href="img/5.jpg"/>
</g>
<path d="M696,444l-26.1,41.2m60,-40.7l22.7,31.7m-129,96.3l-21.1,41.1m66,-43.1l37.1,46.1" class="g2_667"/>
<g clip-path="url(#c5_667)">
<image clip-path="url(#c5_667)" preserveAspectRatio="none" x="407" y="425" width="79" height="79" xlink:href="img/6.jpg"/>
</g>
<g clip-path="url(#c6_667)">
<image clip-path="url(#c6_667)" preserveAspectRatio="none" x="214" y="533" width="100" height="101" xlink:href="img/7.jpg"/>
</g>
<path d="M482.5,446.1L634.2,422.4" class="g3_667"/>
<path d="M627.3,417.8l6.9,4.6L629,429" class="g2_667"/>
<path d="M486.7,458.2l147.7,11.9" class="g4_667"/>
<path d="M628.7,464l5.7,6.1l-6.6,5.2" class="g2_667"/>
<path d="M486.7,470.5l93.8,35" class="g4_667"/>
<path d="M576.7,498l3.8,7.5l-7.8,3.2" class="g2_667"/>
<path d="M482.5,484.2l97.9,75" class="g3_667"/>
<path d="M579,550.9l1.4,8.3l-8.3,.8" class="g2_667"/>
<path d="M465.3,501.1l68.2,104.1" class="g3_667"/>
<path d="M534.9,596.9l-1.4,8.3l-8.1,-2" class="g2_667"/>
<g clip-path="url(#c7_667)">
<image clip-path="url(#c7_667)" preserveAspectRatio="none" x="349" y="522" width="23" height="23" xlink:href="img/8.jpg"/>
</g>
<g clip-path="url(#c8_667)">
<image clip-path="url(#c8_667)" preserveAspectRatio="none" x="369" y="497" width="18" height="18" xlink:href="img/9.jpg"/>
</g>
<g clip-path="url(#c9_667)">
<image clip-path="url(#c9_667)" preserveAspectRatio="none" x="332" y="551" width="27" height="26" xlink:href="img/10.jpg"/>
</g>
<g clip-path="url(#ca_667)">
<image clip-path="url(#ca_667)" preserveAspectRatio="none" x="383" y="522" width="23" height="23" xlink:href="img/11.jpg"/>
</g>
<g clip-path="url(#cb_667)">
<image clip-path="url(#cb_667)" preserveAspectRatio="none" x="371" y="551" width="26" height="26" xlink:href="img/12.jpg"/>
</g>
<path d="M372.9,513.9l-5,8.9M381.7,514l5.4,9.5m-30.9,19.9l-3.7,9m15.1,-9.3l7.6,9.9" class="g2_667"/>
<path d="M290.1,540.1c1.8,-.9,.6,-4.8,1.5,-6.5c.6,-1,1.2,-2,1.7,-3.1c.8,-1.5,.2,-1.9,1.6,-3.6c.8,-.9,1,-1.8,1.6,-2.8c.7,-1.4,2.1,-2.1,2.9,-3.5c1.3,-2.3,3.5,-4.3,5.6,-6c4.6,-4,9.2,-8,13.8,-12.1c4.7,-4.1,9.9,-7.3,14.4,-11.4c2.7,-2.4,5.1,-3.9,8,-5.7c1.1,-.7,2,-.9,3.1,-1.6c1.9,-1.2,3.8,-3.2,5.8,-4c3.2,-1.1,4.9,-2.2,7.6,-4.1c1.4,-.9,2.7,-1.3,4.3,-1.9c2.2,-.8,2.6,-.9,4.6,-2.2c2.7,-1.9,5.5,-2.9,8.4,-4c2.9,-1.1,6,-2.9,8.9,-3.7c4.1,-1.1,11.7,-2,15.5,-1.7c1.8,.1,3.7,-2.2,6.1,-1.6c-2.7,-1.8,-6,-2.5,-8.3,-5.4c1.7,2.1,6.1,6.6,8.7,4.8c-.5,4.1,-2.1,6.5,-4.8,9.1c2.7,-1.8,2.8,-5.4,4.8,-7.8" class="g5_667"/>
<path d="M788.3,353.3c.5,2.1,.9,4.1,1.2,6.4c.3,3.1,1.6,5.9,2.1,9c.4,2,-.1,4.2,.1,6.2c.3,2.8,1.2,5.6,1.1,8.4c-.1,4.9,0,9.3,-.4,14c-.3,5.5,-1.4,9.9,-1,15.4c.6,8.7,-1,17.7,-2.1,26c-.2,1.2,.2,2.6,.1,3.7c.1,-.6,-1.3,2.5,-1.1,2.1l-.9,2.6c-.2,.8,.1,2.1,-.2,2.7c-.2,.7,-3.3,5.2,-.9,4.9c.9,-.1,2.4,-2.8,2.9,-3.7c1.6,-2.9,3.1,-3.7,5.9,-5.1c.9,-.3,3,-.8,3.1,-2.2c.4,-3.6,-2.9,1.4,-3,1.6c-1.7,2.2,-4.3,4.6,-6.3,6.3c-.7,.7,-1.7,3.2,-3.6,2.6c-2,-.6,-3.6,-5.6,-4.7,-7.4c-1.2,-2.1,-3.4,-3.9,-4.4,-6.4" class="g6_667"/>
<path d="M153.4,501.7c1,1.4,1.8,2.8,3,4.2c1.6,2,2.5,4.2,3.9,6.2c1,1.4,2.3,2.4,3.4,3.6c1.4,1.7,2.5,3.8,4.1,5.3c2.7,2.8,5.1,5.3,7.8,7.8c3.2,2.9,6.2,4.8,9,8.1c4.5,5.3,10.2,9.6,15.4,13.7c.6,.5,1.2,1.6,1.9,2.1c-.4,-.3,2,.8,1.7,.6l1.9,1c.5,.4,1.1,1.3,1.5,1.5c.5,.2,4.5,1.2,3.2,2.3c-.5,.4,-2.7,-.4,-3.5,-.6c-2.4,-.8,-3.5,-.5,-5.6,.3c-.6,.2,-1.9,1,-2.7,.4c-2.2,-1.9,2.1,-.8,2.3,-.8c2.1,.4,4.6,.4,6.5,.3c.7,0,2.6,.9,3.1,-.5c.7,-1.4,-1.3,-5,-1.8,-6.6c-.5,-1.9,-.5,-4.1,-1.4,-6" class="g7_667"/>
<path d="M410.4,645.2c.1,-1.1,.3,-2.2,.3,-3.4c-.1,-1.8,.8,-3.2,.9,-4.9c0,-1.1,-.6,-2.3,-.7,-3.4c-.1,-1.6,.4,-3.1,0,-4.7c-.7,-2.8,-1.2,-5.2,-2.1,-7.9c-1,-3.1,-2.6,-5.8,-2.9,-8.8c-.4,-4.9,-3,-10.1,-5.1,-15c-.3,-.6,-.1,-1.4,-.3,-2c.1,.3,-1.5,-1.6,-1.3,-1.3L398,592.2c-.3,-.5,-.1,-1.2,-.4,-1.6c-.4,-.4,-3.8,-3.3,-1.5,-2.9c.8,.2,2.5,1.9,3.1,2.5c1.9,1.8,3.4,2.5,6.2,3.6c.8,.3,2.9,.8,3.2,1.6c.7,2.1,-2.9,-1.1,-3.1,-1.3c-1.8,-1.4,-4.5,-3.1,-6.6,-4.3c-.7,-.4,-2,-2,-3.7,-1.9c-1.8,.1,-2.7,2.7,-3.5,3.6c-.9,1.1,-2.7,1.8,-3.3,3.1" class="g6_667"/>
<path d="M776.7,352.4c1,.6,-.2,2.7,-.4,3.4c-.5,1.5,-1,3,-1.5,4.6c-.2,.6,-.1,1.1,-.2,1.8c-.1,.7,-.7,1.3,-1,1.9c-.6,1.4,-1.5,2.5,-2.2,3.9c-.3,.7,-.6,1.4,-1,2.1c-.5,.7,-.5,1.4,-.9,2.1c-.3,.5,-.8,.8,-1.1,1.2c-.4,.6,-.6,1.3,-1.1,1.9c-.9,.9,-1.6,1.8,-2.6,2.6c-1.1,1,-2.2,1.7,-3,2.8c-1.4,1.8,-3.5,3.3,-5.3,4.7c-.2,.2,-.4,.5,-.6,.7l-.7,.2l-.8,.4c-.2,.1,-.3,.4,-.5,.5c-.2,0,-2,.4,-1.2,.7c.3,.2,1.3,-.1,1.6,-.2c1.1,-.2,1.7,-.1,2.9,.1c.3,.1,1.1,.4,1.3,.1c.8,-.6,-1.1,-.2,-1.2,-.2c-1,.1,-2.2,.1,-3.2,.1c-.3,0,-1.1,.3,-1.6,-.1c-.5,-.5,-.2,-1.8,-.2,-2.3c-.1,-.6,-.5,-1.4,-.3,-2" class="g8_667"/>
<path d="M264.2,393.4c.5,-1.1,2.8,-.2,3.6,-.2c1.7,.2,3.3,.5,5,.6c.7,.1,1.2,0,1.9,0c.7,-.1,1.4,.4,2.1,.5c1.5,.4,2.8,1.1,4.3,1.5c.9,.2,1.6,.3,2.4,.7c.8,.3,1.6,.2,2.4,.5c.5,.1,.9,.6,1.4,.8c.7,.3,1.5,.3,2.1,.7c1.1,.8,2.1,1.3,3.2,2.1c1.2,.9,2.1,1.9,3.4,2.5c2.1,1,4,2.8,5.8,4.3c.2,.2,.6,.3,.9,.5c-.2,-.1,.4,.8,.3,.7l.5,.6c.2,.2,.5,.3,.6,.5c.2,.1,.9,1.8,1.1,1c0,-.4,-.4,-1.3,-.6,-1.6c-.4,-.9,-.5,-1.6,-.4,-2.8c0,-.3,.1,-1.1,-.2,-1.3c-.8,-.7,0,1.2,0,1.3c.3,.8,.6,2.1,.7,3c.1,.3,.6,1.1,.2,1.6c-.4,.7,-1.7,.6,-2.2,.7c-.7,.1,-1.4,.7,-2,.7" class="g9_667"/>
<path d="M496.6,389.8c1,.6,-.2,2.7,-.5,3.4c-.5,1.5,-1,3.1,-1.4,4.6c-.2,.6,-.2,1.2,-.3,1.8c-.1,.8,-.6,1.3,-.9,2c-.7,1.3,-1.6,2.4,-2.2,3.8c-.4,.8,-.6,1.4,-1.1,2.1c-.4,.7,-.5,1.5,-.9,2.2c-.2,.4,-.7,.8,-1,1.2c-.4,.6,-.6,1.3,-1.1,1.8c-.9,.9,-1.7,1.8,-2.6,2.6c-1.1,1,-2.2,1.7,-3.1,2.8c-1.3,1.8,-3.4,3.3,-5.2,4.7c-.3,.2,-.4,.6,-.6,.8l-.8,.2l-.7,.3c-.2,.1,-.4,.4,-.5,.5c-.2,.1,-2,.4,-1.2,.8c.3,.1,1.3,-.1,1.6,-.2c1,-.3,1.7,-.2,2.8,.1c.3,0,1.1,.3,1.4,.1c.7,-.7,-1.2,-.3,-1.3,-.3c-.9,.2,-2.2,.2,-3.1,.2c-.3,-.1,-1.1,.3,-1.6,-.2c-.6,-.5,-.2,-1.7,-.3,-2.3c0,-.6,-.4,-1.3,-.3,-2" class="g8_667"/>
<g clip-path="url(#cc_667)">
<path d="M-4.5,13.7H-27.4m939.5,0H935M-4.5,1031.2H-27.4m939.5,0H935M13.7,-4.5V-27.4m0,1077v22.9m880,-1077V-27.4m0,1077v22.9" class="ga_667"/>
<path d="M-4.5,13.7H-27.4m939.5,0H935M-4.5,1031.2H-27.4m939.5,0H935M13.7,-4.5V-27.4m0,1077v22.9m880,-1077V-27.4m0,1077v22.9" class="gb_667"/>
</g>
</svg>