<?xml version="1.0" encoding="UTF-8" standalone="no"?>
<!DOCTYPE svg PUBLIC "-//W3C//DTD SVG 1.1//EN"
"http://www.w3.org/Graphics/SVG/1.1/DTD/svg11.dtd">
<svg viewBox="0 0 811 1017" version="1.1" xmlns="http://www.w3.org/2000/svg" xmlns:xlink="http://www.w3.org/1999/xlink">
<defs>
<clipPath id="c0_186"><path d="M540,669.7V550.1H721.9V669.7Z"/></clipPath>
<style type="text/css"><![CDATA[
.g0_186{
fill: #224867;
}
.g1_186{
fill: #000;
}
.g2_186{
fill: #FFF;
}
]]></style>
</defs>
<path d="M156.1,181.6H724.4V160.4H156.1v21.2Z" class="g0_186"/>
<path d="M396.4,201.9v3.2l-.3,-.2L389.9,202l-.5,-.1l.5,-.2l6.2,-2.9l.3,-.2v.4l-.1,.1L390,202l-.1,-.3h.1l6.3,2.9l-.2,.3l-.1,-.1v-2.9Z" class="g1_186"/>
<path d="M396,201.9h.4V199H396v2.9Z" class="g1_186"/>
<path d="M396.4,202.1H467v-.4H396.4v.4Z" class="g1_186"/>
<path d="M466.7,226.8h.3V201.9h-.3v24.9Z" class="g1_186"/>
<path d="M332.3,307.4v3.2l-.2,-.2l-6.3,-2.9l-.4,-.1l.4,-.2l6.3,-3l.2,-.1v.3l-.1,.2l-6.3,2.9l-.1,-.3h.1l6.3,2.9l-.1,.3l-.1,-.1v-2.9Z" class="g1_186"/>
<path d="M332,307.4h.3v-3H332v3Z" class="g1_186"/>
<path d="M332.3,307.5h47.4v-.3H332.3v.3Z" class="g1_186"/>
<path d="M440.5,460.5v3.2l-.3,-.1l-6.3,-3l-.4,-.1l.4,-.2l6.3,-2.9l.3,-.2v.4l-.2,.1l-6.3,2.9l-.1,-.3h.1l6.3,2.9l-.1,.4l-.1,-.2v-2.9Z" class="g1_186"/>
<path d="M440.1,460.5h.4v-2.9h-.4v2.9Z" class="g1_186"/>
<path d="M440.5,460.7H473v-.4H440.5v.4Z" class="g1_186"/>
<path d="M540.4,491.4v3.2l-.3,-.1l-6.3,-2.9l-.3,-.2l.3,-.2l6.3,-2.8l.3,-.2v.3l-.2,.2l-6.2,2.9l-.2,-.4h.2l6.2,3l-.1,.3l-.1,-.1v-3Z" class="g1_186"/>
<path d="M540,491.4h.4v-2.9H540v2.9Z" class="g1_186"/>
<path d="M540.4,491.6h54.1v-.4H540.4v.4Z" class="g1_186"/>
<path d="M594.1,517h.4V491.4h-.4V517Z" class="g1_186"/>
<path d="M518.8,723.8H724.4V549H518.8V723.8Z" class="g2_186"/>
<path d="M540,550.1H721.9V669.7H540Z" class="g2_186"/>
<image clip-path="url(#c0_186)" preserveAspectRatio="none" x="540" y="550" width="182" height="120" xlink:href="img/1.jpg"/>
<image preserveAspectRatio="none" x="203" y="990" width="405" height="28" xlink:href="img/2.jpg"/>
</svg>