<?xml version="1.0" encoding="UTF-8" standalone="no"?>
<!DOCTYPE svg PUBLIC "-//W3C//DTD SVG 1.1//EN"
"http://www.w3.org/Graphics/SVG/1.1/DTD/svg11.dtd">
<svg viewBox="0 0 907 1045" version="1.1" xmlns="http://www.w3.org/2000/svg" xmlns:xlink="http://www.w3.org/1999/xlink">
<defs>
<clipPath id="c0_387"><path d="M638.4,427.6v-192H752.8v192Z"/></clipPath>
<clipPath id="c1_387"><path d="M697.3,848H615.9V745.6h81.4V848Z"/></clipPath>
<clipPath id="c2_387"><path d="M-2.6,1047.7V-2.6H910.2V1047.7Z"/></clipPath>
<style type="text/css"><![CDATA[
.g0_387{
fill: none;
stroke: #636363;
stroke-width: 1.527;
stroke-linecap: butt;
stroke-linejoin: miter;
stroke-miterlimit: 4;
}
.g1_387{
fill: none;
stroke: #5A5A5A;
stroke-width: 1.527;
stroke-linecap: butt;
stroke-linejoin: miter;
stroke-miterlimit: 4;
}
.g2_387{
fill: none;
stroke: #5A5A5A;
stroke-width: 0.377;
stroke-linecap: butt;
stroke-linejoin: miter;
stroke-miterlimit: 4;
}
.g3_387{
fill: none;
stroke: #5A5A5A;
stroke-width: 1.428;
stroke-linecap: butt;
stroke-linejoin: miter;
stroke-miterlimit: 4;
}
.g4_387{
fill: none;
stroke: #1A1A1A;
stroke-width: 1.527;
stroke-linecap: butt;
stroke-linejoin: miter;
stroke-miterlimit: 4;
}
.g5_387{
fill: #FFFFFF;
}
.g6_387{
fill: none;
stroke: #FFFFFF;
stroke-width: 1.909;
stroke-linecap: butt;
stroke-linejoin: miter;
}
.g7_387{
fill: none;
stroke: #000000;
stroke-width: 0.381;
stroke-linecap: butt;
stroke-linejoin: miter;
}
]]></style>
</defs>
<image clip-path="url(#c0_387)" preserveAspectRatio="none" x="638" y="236" width="115" height="192" xlink:href="img/1.jpg"/>
<path d="M560,124c-1.2,-1.3,-2.6,-2.1,-4.2,-2.6c-4.9,-2.4,-10.2,-4.6,-15.5,-5.8c-12.6,-2.9,-25.8,-.1,-37.2,6.4c-8.1,4.7,-15.9,13.1,-17.5,23.6c-.7,5.3,-.8,12.4,2.6,16.7c-.2,.4,-3.8,2.2,-3.5,2c-3.1,2,-3.9,4,-5.1,7.6c-1.2,3.9,-2.6,8,-3.3,12.2c-.7,4.2,-.7,8.4,-.7,12.6c.1,9.7,2.4,20.2,7.1,28.4c2.7,4.7,6.2,8.4,10.9,10.5c2.6,1.2,5.4,1.3,8,2.5c-.8,4.1,.8,6.9,2.7,10.3c3.6,6.2,7.8,10.6,13.4,14.5c7,4.8,15.2,9.2,23.6,7.1c3.9,-.9,10.4,-4,12.5,-8.2c.4,.5,.8,1,1,1.7c1.5,2.4,3.6,4.1,6.1,5c5.4,1.7,11,2.5,16.6,2.5c5.8,.3,11.5,.1,17.2,-.8c7.1,-1.3,17.3,-4.7,20.7,-12.8c.8,-2.3,1.2,-4.6,1.1,-7.1c0,-.7,.2,-3.7,-.5,-4.3c-1.4,1.9,8.3,3.4,7.9,3.4c3.4,.2,6.8,0,10.2,-.7c6.7,-1,13.5,-2.1,19.6,-5.5c11.4,-6.3,17.7,-22,14.7,-36c-.8,-3.6,-3.8,-12.9,-8.8,-13c4.8,-5.3,7.3,-11.2,8.2,-18.7c1.3,-9.7,.1,-20.2,-3.9,-29c-4.4,-10,-12.5,-18.3,-21.5,-23c-6.5,-3.4,-13.9,-5.4,-20.1,-.5c-.1,-.5,-.2,-1,-.4,-1.4c-1.3,-2.7,-4.3,-5.8,-6,-8c-6.7,-8.2,-17.1,-12.6,-27.1,-9.9c-3.2,1.1,-6.4,2.6,-9.4,4.3c-4.2,2.3,-8.5,4.6,-12,8.2c-1.4,1.8,-3,3.5,-4.7,5.1c-.5,.4,-3,1.9,-3.3,3c-.1,0,-.3,.1,-.4,.1M707.6,226c-1.6,1.1,-7.1,4.6,-3.7,7c3.1,2.1,6.4,-2.7,6.8,-5.1c-1.1,-1,-2.5,-1.3,-4,-1M691.3,216.8c-2.7,.2,-5.5,1.9,-5.5,5.2c0,3.6,4,4.9,6.7,3c1.4,-1,2.1,-2.3,2.3,-3.9c.2,-1.1,.2,-2.2,0,-3.2c-.7,-1,-2.7,-1.1,-3.7,-1.4" class="g0_387"/>
<path d="M127.5,169.5c2.4,0,4.8,-.3,7.3,-.3c1.8,.1,3.6,-.2,5.4,-.3c1.3,0,2.6,.2,3.9,.1c1,0,2,.2,3,.2c1.4,.1,2.8,.2,4.2,.2c1.8,0,3.6,.1,5.3,.1c1.7,-.1,3.5,-.1,5.2,.1c1.7,.1,3.4,.4,5.1,.6c1.5,.2,3.1,.2,4.6,.4c1.7,.1,3.4,.3,5,.1c.9,0,1.7,-.1,2.6,-.1c.6,0,1.2,.1,1.8,0c1,-.1,2,0,3.1,0c1.2,0,2.4,-.2,3.6,-.1c.8,.1,1.8,.1,2.7,.1c.3,0,1.4,.1,1.7,-.1c-.5,.4,-1.1,.4,-1.6,.5c-1.2,.3,-2.4,.2,-3.6,.4c-1.2,.2,-2.5,.3,-3.8,.4c-.9,.1,-1.8,.1,-2.7,.1c-1.2,0,-2.4,-.1,-3.6,0c-.7,.1,-1.5,.1,-2.3,0c-.7,-.1,-1.3,-.3,-2,-.4c-1.5,-.2,-2.9,-.5,-4.3,-.5c-3.7,-.1,-7.4,0,-11.1,-.4c-1.9,-.1,-3.9,-.4,-5.9,-.4c-1.1,-.1,-2.1,0,-3.2,.1c-1.1,.1,-2.2,.1,-3.2,.3c-1.8,.2,-3.6,.6,-5.4,1c-1.6,.2,-3.2,.1,-4.8,.3c-1,.1,-1.9,0,-2.9,0c-1,0,-2.1,.2,-3.1,.3c-.9,.1,-2,.4,-2.8,-.1c-.8,-.5,-1.2,-1.5,-2.4,-1.4" class="g1_387"/>
<path d="M157.1,476.7c.7,1.4,1.5,2.7,2.3,4.1c1.6,2.7,2.8,5.7,4.5,8.3c1.9,2.9,4.5,5.2,6.6,7.9c2.1,2.9,2.9,6.7,4.1,9.9c-1.4,-.4,-6.7,-.6,-6.4,-2.6c1.1,.1,2.2,1.3,3.1,1.9c.7,.3,2.9,2.4,3.6,2.3c1.1,0,.9,-2.4,1.1,-3.3c.4,-1.6,.5,-3.3,1,-4.9c.4,-1.1,.9,-2,1.1,-3.1" class="g2_387"/>
<path d="M266.4,471.9c1.6,2.3,4.3,3.5,6.3,5.4c3.1,2.8,4.4,7.4,5.6,11.2c1.1,3.5,2.5,6.9,2.7,10.5c.2,3.3,-.6,6.7,-1.2,9.9c-.8,3.9,-.6,8.7,-2.9,12.1c-.7,1,-.7,1.1,-1.1,-.4c-.3,-1.9,-1.3,-4.4,-.6,-6.4c-.4,.9,.2,2.9,.3,3.7c0,.9,.1,1.9,.3,2.8c0,.3,-.2,1.6,0,1.8c.2,.2,.5,.4,.7,.6c1,.5,.2,.2,1.2,-.3c.4,-.4,.8,-.8,1.2,-1.1c1.2,-.9,2.6,-1.4,4.1,-1.6c.5,-.1,1.1,-.1,1.6,0" class="g3_387"/>
<path d="M575,642.7c1.7,2.7,4.4,4.6,5.8,7.5c1.6,3.4,1.3,6.5,-.2,9.9c-1.5,3.6,-3.7,6.8,-6.1,9.8c-1.2,1.5,-2.8,2,-4.1,3.4c1.2,-2.4,.1,-6.1,-.8,-8.3c-.1,3.2,1.9,6.1,1.9,9.3c1.3,-.2,2.5,-1.4,3.5,-2c1.5,-.9,3.4,-1.8,5.3,-1.7M250.2,808.5c3.2,.5,5.6,-3.5,6.6,-5.8c1.1,-3,1.7,-4.8,1.2,-8c-.3,-2.2,-.8,-4.3,-1.4,-6.5c-.4,-1.5,-1.2,-2.6,-1.6,-4c-1.6,2,-1.9,5.8,-3.9,7.3c-.3,-1.1,.5,-2.2,.9,-3.2c.5,-1.3,.7,-2.7,1.1,-4c1.1,.9,2.8,.8,4.1,.7c3.1,-.1,6.2,-.9,9.2,-1.6" class="g1_387"/>
<path d="M591.9,796.2V951.6H816V796.2H591.9Z" class="g4_387"/>
<path d="M610.6,781.2v25h82.5v-25H610.6Z" class="g5_387"/>
<image clip-path="url(#c1_387)" preserveAspectRatio="none" x="616" y="746" width="81" height="102" xlink:href="img/2.jpg"/>
<g clip-path="url(#c2_387)">
<path d="M-4.5,13.7H-27.4m939.5,0H935M-4.5,1031.2H-27.4m939.5,0H935M13.7,-4.5V-27.4m0,1077v22.9m880,-1077V-27.4m0,1077v22.9" class="g6_387"/>
<path d="M-4.5,13.7H-27.4m939.5,0H935M-4.5,1031.2H-27.4m939.5,0H935M13.7,-4.5V-27.4m0,1077v22.9m880,-1077V-27.4m0,1077v22.9" class="g7_387"/>
</g>
</svg>