<?xml version="1.0" encoding="UTF-8" standalone="no"?>
<!DOCTYPE svg PUBLIC "-//W3C//DTD SVG 1.1//EN"
"http://www.w3.org/Graphics/SVG/1.1/DTD/svg11.dtd">
<svg viewBox="0 0 931 1096" version="1.1" xmlns="http://www.w3.org/2000/svg" xmlns:xlink="http://www.w3.org/1999/xlink">
<defs>
<clipPath id="c0_388"><path d="M671.7,259.1V140H822.2V259.1Z"/></clipPath>
<clipPath id="c1_388"><path d="M688.6,809.8V793.9H792.5v15.9Z"/></clipPath>
<clipPath id="c2_388"><path d="M491.2,992.5V963.7h86.1v28.8Z"/></clipPath>
<clipPath id="c3_388"><path d="M99.3,128.1V97.6h93.8v30.5Z"/></clipPath>
<clipPath id="c4_388"><path d="M99.3,444.7v-16H199.4v16Z"/></clipPath>
<clipPath id="c5_388"><path d="M99.3,576.1v-16H215.5v16Z"/></clipPath>
<style type="text/css"><![CDATA[
.g0_388{
fill: none;
stroke: #00AEEF;
stroke-width: 0.763;
stroke-miterlimit: 10;
}
.g1_388{
fill: none;
stroke: #6AC48C;
stroke-width: 1.069;
stroke-linejoin: round;
}
.g2_388{
fill: #241F1F;
}
.g3_388{
fill: none;
stroke: #EE008C;
stroke-width: 0.916;
stroke-linejoin: round;
}
.g4_388{
fill: none;
stroke: #00AEEF;
stroke-width: 0.916;
stroke-linejoin: round;
}
.g5_388{
fill: none;
stroke: #241F1F;
stroke-width: 0.611;
stroke-miterlimit: 3;
}
.g6_388{
fill: none;
stroke: #241F1F;
stroke-width: 0.916;
stroke-linejoin: round;
}
.g7_388{
fill: none;
stroke: #241F1F;
stroke-width: 0.381;
stroke-miterlimit: 3;
}
.g8_388{
fill: #FFF;
}
.g9_388{
fill: none;
stroke: #EE008C;
stroke-width: 0.763;
stroke-miterlimit: 3;
}
.ga_388{
fill: none;
stroke: #241F1F;
stroke-width: 0.687;
stroke-miterlimit: 10;
}
]]></style>
</defs>
<path d="M466,266.4H823.5M466,1034.3H823.5" class="g0_388"/>
<path d="M505.6,203.1c67.2,-13.8,92.2,-1.9,130.1,54.7" class="g1_388"/>
<path fill-rule="evenodd" d="M642.3,203.3l-1.6,-2.5l6.5,2.5l-6.5,2.4Z" class="g2_388"/>
<path fill-rule="evenodd" d="M505.5,147.2l-2.4,1.6l2.4,-6.5l2.5,6.5Z" class="g2_388"/>
<path d="M505.6,203.1c11.6,35.8,52.5,4.9,91.2,-54.7" class="g3_388"/>
<path d="M505.6,203.1c70.2,15.5,95.6,1.2,130.7,-54.7" class="g4_388"/>
<path d="M483.6,203.3H642.3M505.5,259.1V147.2" class="g5_388"/>
<path d="M544,148.4c-23.2,40.1,-30.2,92.9,-31.1,110.1" class="g6_388"/>
<g clip-path="url(#c0_388)">
<path d="M707,259.2c21.5,-45.1,46.1,-58.6,107.5,-58.6" class="g1_388"/>
<path fill-rule="evenodd" d="M817.3,203.2l-1.6,-2.4l6.5,2.4l-6.5,2.5Z" class="g2_388"/>
</g>
<path fill-rule="evenodd" d="M693.7,147.1l-2.5,1.7l2.5,-6.6l2.4,6.6Z" class="g2_388"/>
<path d="M690.9,150.7c17.6,49.9,46.7,66.8,123.6,57.6" class="g3_388"/>
<path d="M685.6,192.5c27.6,46.7,82.2,19.3,128.9,17.7" class="g4_388"/>
<path clip-path="url(#c0_388)" d="M671.7,203.2H817.3M693.7,259.3V147.1" class="g5_388"/>
<path d="M685.6,214.1c27.6,-46.7,82.2,-18.8,128.9,-17.2" class="g6_388"/>
<path d="M575.7,373.7c5.3,15.5,16.3,37.5,30.6,37.5c21.1,0,31.8,-56,46.9,-56c9.3,0,14.9,31.9,29.2,31.9c12.6,0,16.7,-12.5,44.1,-12.5" class="g4_388"/>
<path d="M575.7,419.5V332.7" class="g5_388"/>
<path fill-rule="evenodd" d="M575.7,332.7l-2.5,1.6l2.5,-6.5l2.4,6.5Z" class="g2_388"/>
<path d="M557.3,373.7H727.2" class="g5_388"/>
<path fill-rule="evenodd" d="M727.2,373.7l-1.6,-2.5l6.5,2.5l-6.5,2.4Z" class="g2_388"/>
<path d="M606.3,370.6v6.1m30.5,-6.1v6.1m30.6,-6.1v6.1M698,370.6v6.1" class="g7_388"/>
<path d="M575.7,529.5c14,0,16.3,-37.2,30.6,-37.2h14.3c15.3,0,13.2,37.2,28.1,37.2h17.2c8.2,0,11,17.3,17,17.3c6.6,0,8.4,-17.3,21.8,-17.3h20.2" class="g4_388"/>
<path d="M575.7,575.3V488.5" class="g5_388"/>
<path fill-rule="evenodd" d="M575.7,488.5l-2.5,1.7l2.5,-6.6l2.4,6.6Z" class="g2_388"/>
<path fill-rule="evenodd" d="M727.2,529.5l-1.6,-2.4l6.5,2.4l-6.5,2.5Z" class="g2_388"/>
<path d="M557.3,529.5H727.2" class="g5_388"/>
<path d="M601,673.5h27.5M656,756h25.8M628.5,701H656" class="g3_388"/>
<path d="M626.8,673.5c0,-.9,.8,-1.7,1.7,-1.7c1,0,1.8,.8,1.8,1.7c0,1,-.8,1.7,-1.8,1.7c-.9,0,-1.7,-.7,-1.7,-1.7Z" class="g8_388"/>
<path d="M626.8,673.5c0,-.9,.8,-1.7,1.7,-1.7c1,0,1.8,.8,1.8,1.7c0,1,-.8,1.7,-1.8,1.7c-.9,0,-1.7,-.7,-1.7,-1.7Z" class="g9_388"/>
<path d="M598,756h6.1M598,701h6.1m79.4,24.5v6.1M656,725.5v6.1m-27.5,-6.1v6.1M598,673.5h4.8m-29.3,55H711" class="g5_388"/>
<path fill-rule="evenodd" d="M711,728.5l-1.6,-2.4l6.5,2.4l-6.5,2.5Z" class="g2_388"/>
<path d="M601,774.4V650.6" class="g5_388"/>
<path fill-rule="evenodd" d="M601,650.6l-2.4,1.6l2.4,-6.5l2.5,6.5Z" class="g2_388"/>
<path d="M654.3,756c0,-.9,.8,-1.7,1.7,-1.7c1,0,1.8,.8,1.8,1.7c0,1,-.8,1.7,-1.8,1.7c-.9,0,-1.7,-.7,-1.7,-1.7Z" class="g8_388"/>
<path d="M654.3,756c0,-.9,.8,-1.7,1.7,-1.7c1,0,1.8,.8,1.8,1.7c0,1,-.8,1.7,-1.8,1.7c-.9,0,-1.7,-.7,-1.7,-1.7Z" class="g9_388"/>
<path d="M626.8,701c0,-.9,.8,-1.7,1.7,-1.7c1,0,1.8,.8,1.8,1.7c0,1,-.8,1.7,-1.8,1.7c-.9,0,-1.7,-.7,-1.7,-1.7Z" class="g8_388"/>
<path d="M626.8,701c0,-.9,.8,-1.7,1.7,-1.7c1,0,1.8,.8,1.8,1.7c0,1,-.8,1.7,-1.8,1.7c-.9,0,-1.7,-.7,-1.7,-1.7Z" class="g9_388"/>
<path d="M654.3,701c0,-.9,.8,-1.7,1.7,-1.7c1,0,1.8,.8,1.8,1.7c0,1,-.8,1.7,-1.8,1.7c-.9,0,-1.7,-.7,-1.7,-1.7Z" class="g8_388"/>
<path d="M654.3,701c0,-.9,.8,-1.7,1.7,-1.7c1,0,1.8,.8,1.8,1.7c0,1,-.8,1.7,-1.8,1.7c-.9,0,-1.7,-.7,-1.7,-1.7Z" class="g9_388"/>
<path d="M599.3,673.5c0,-.9,.8,-1.7,1.7,-1.7c1,0,1.8,.8,1.8,1.7c0,1,-.8,1.7,-1.8,1.7c-.9,0,-1.7,-.7,-1.7,-1.7Z" class="g8_388"/>
<path d="M599.3,673.5c0,-.9,.8,-1.7,1.7,-1.7c1,0,1.8,.8,1.8,1.7c0,1,-.8,1.7,-1.8,1.7c-.9,0,-1.7,-.7,-1.7,-1.7Z" class="g9_388"/>
<path d="M681.8,756c0,-.9,.8,-1.7,1.7,-1.7c1,0,1.8,.8,1.8,1.7c0,1,-.8,1.7,-1.8,1.7c-.9,0,-1.7,-.7,-1.7,-1.7Z" class="g8_388"/>
<path d="M681.8,756c0,-.9,.8,-1.7,1.7,-1.7c1,0,1.8,.8,1.8,1.7c0,1,-.8,1.7,-1.8,1.7c-.9,0,-1.7,-.7,-1.7,-1.7Z" class="g9_388"/>
<path clip-path="url(#c1_388)" d="M784.6,794.2h8.3" class="ga_388"/>
<path clip-path="url(#c2_388)" d="M535.3,978.2h42.4" class="ga_388"/>
<path d="M545.4,1005.1h80.2" class="ga_388"/>
<path d="M74.1,143.9h330M74.1,281.4h330M74.1,927.9h330" class="g0_388"/>
<path clip-path="url(#c3_388)" d="M143.4,113.8h50" class="ga_388"/>
<path d="M340.7,402.8h6" class="ga_388"/>
<path clip-path="url(#c4_388)" d="M191.5,429.1h8.3" class="ga_388"/>
<path clip-path="url(#c5_388)" d="M207.5,560.5h8.3" class="ga_388"/>
<path d="M157.4,840.1h5.9" class="ga_388"/>
</svg>