<?xml version="1.0" encoding="UTF-8" standalone="no"?>
<!DOCTYPE svg PUBLIC "-//W3C//DTD SVG 1.1//EN"
"http://www.w3.org/Graphics/SVG/1.1/DTD/svg11.dtd">
<svg viewBox="0 0 931 1096" version="1.1" xmlns="http://www.w3.org/2000/svg" xmlns:xlink="http://www.w3.org/1999/xlink">
<defs>
<clipPath id="c0_29"><path d="M108.5,666.4v-196H300.6v196Z"/></clipPath>
<style type="text/css"><![CDATA[
.g0_29{
fill: none;
stroke: #00AEEF;
stroke-width: 1.145;
}
.g1_29{
fill: none;
stroke: #00AEEF;
stroke-width: 0.763;
}
.g2_29{
fill: none;
stroke: #241F1F;
stroke-width: 0.763;
stroke-miterlimit: 10;
}
.g3_29{
fill: none;
stroke: #00AEEF;
stroke-width: 0.763;
stroke-linejoin: round;
}
.g4_29{
fill: #EE008C;
}
.g5_29{
fill: none;
stroke: #EE008C;
stroke-width: 0.916;
stroke-linejoin: round;
}
.g6_29{
fill: none;
stroke: #241F1F;
stroke-width: 0.611;
stroke-miterlimit: 3;
}
.g7_29{
fill: #241F1F;
}
.g8_29{
fill: none;
stroke: #241F1F;
stroke-width: 0.763;
stroke-miterlimit: 3;
}
.g9_29{
fill: none;
stroke: #00AEEF;
stroke-width: 0.916;
stroke-linejoin: round;
}
.ga_29{
fill: #00AEEF;
}
.gb_29{
fill: none;
stroke: #EE008C;
stroke-width: 0.763;
stroke-miterlimit: 3;
}
]]></style>
</defs>
<path d="M361.1,184.6c0,0,-1.5,0,-1.5,1.5v14.1c0,0,0,1.6,1.5,1.6h15.7c0,0,1.5,0,1.5,-1.6V186.1c0,0,0,-1.5,-1.5,-1.5H361.1Z" class="g0_29"/>
<path d="M345.7,170.6c0,0,-3.1,0,-3.1,3.1V281.3c0,0,0,3,3.1,3H875.1c0,0,3,0,3,-3V173.7c0,0,0,-3.1,-3,-3.1H345.7Z" class="g1_29"/>
<path d="M515.1,669.3h34.5m56.6,0h12.2" class="g2_29"/>
<path d="M286.7,499.8l1.9,7.2m-7.2,-2.3l5.3,-4.9m1.9,7.2l-7.2,-2.3M267.8,485.9L288.6,507m-34,-7.6l.8,5.3m-4.9,-1.9l4.1,-3.4m.8,5.3l-4.9,-1.9m-8.3,-14.7l13.2,16.6M223,499.1l.3,3.4M220,500.9l3,-1.8m.3,3.4L220,500.9M215.8,490l7.5,12.5M192,498.3l-.3,2.3m-1.9,-1.5l2.2,-.8m-.3,2.3l-1.9,-1.5m-1.5,-6.8l3.4,8.3m-30.2,-3l-.4,.7m-.7,-.7h1.1m-.4,.7l-.7,-.7m0,-3.4l.7,4.1m125.2,29.8l2.3,6M282.2,533l4.1,-4.9m2.3,6L282.2,533M267.8,517.5l20.8,16.6m-34.3,-6l1.1,4.5m-4.5,-1.5l3.4,-3m1.1,4.5l-4.5,-1.5M242.2,519l13.2,13.6M223,527.7l.3,3m-3,-1.1l2.7,-1.9m.3,3l-3,-1.1m-4.5,-8.7l7.5,9.8m-31.6,-3.4v1.9m-1.5,-1.1l1.5,-.8m0,1.9l-1.5,-1.1m-1.9,-5.7l3.4,6.8m-30.6,-2.6v.7m-.7,-.3l.7,-.4m0,.7l-.7,-.3m0,-2.7l.7,3M285.6,556l3,5.3m-6.1,0l3.1,-5.3m3,5.3h-6.1M267.8,548.8l20.8,12.5m-34.7,-4.9l1.5,3.7m-4.2,-.3l2.7,-3.4m1.5,3.7l-4.2,-.3m-9,-9.5l13.2,9.8m-32.8,-3.7l.7,2.6m-2.6,-.7l1.9,-1.9m.7,2.6l-2.6,-.7m-4.9,-6.8l7.5,7.5m-31.6,-2.6v1.5m-1.5,-.8l1.5,-.7m0,1.5l-1.5,-.8m-1.9,-4.5l3.4,5.3M161.1,556v.4m-.7,-.4h.7m0,.4l-.7,-.4m0,-1.9l.7,2.3m124.1,27.9l3.4,4.5m-5.7,.8l2.3,-5.3m3.4,4.5l-5.7,.8m-15.1,-9.1l20.8,8.3M253.5,585l1.9,3m-3.8,0l1.9,-3m1.9,3h-3.8m-9.4,-6.7l13.2,6.7m-33.2,-3l1.1,2.3m-2.2,-.4l1.1,-1.9m1.1,2.3l-2.2,-.4M215.8,582l7.5,5.3m-32,-2.3l.4,1.2m-1.2,0l.8,-1.2m.4,1.2h-1.2m-2.2,-3l3.4,3M161.1,585v.4m-.3,-.4h.3m0,.4l-.3,-.4m-.4,-1.1l.7,1.5m123.7,27.2l3.8,3.4m-4.9,1.8l1.1,-5.2m3.8,3.4l-4.9,1.8m-15.9,-6l20.8,4.2m-35.5,-2.7l2.3,2.3m-3,1.1l.7,-3.4m2.3,2.3l-3,1.1m-10.2,-4.1l13.2,3m-33.6,-1.9l1.5,1.5m-2.2,.4l.7,-1.9m1.5,1.5l-2.2,.4m-5.3,-2.7l7.5,2.3m-32,-1.1l.4,.7m-.8,0l.4,-.7m.4,.7h-.8m-2.6,-1.5l3.4,1.5m-30.6,-.7v.3m-.3,0l.3,-.3m0,.3h-.3m-.4,-.7l.7,.7M284,640.8l4.6,2.7m-4.6,2.6v-5.3m4.6,2.7l-4.6,2.6M252.8,642l2.6,1.5m-2.6,1.5v-3m2.6,1.5l-2.6,1.5m-10.6,-1.5h13.2m-33.9,-1.2l1.8,1.2m-1.8,.7v-1.9m1.8,1.2l-1.8,.7m-5.7,-.7h7.5m-32.4,-.4l.8,.4m-.8,.4v-.8m.8,.4l-.8,.4m-2.6,-.4h3.4m-30.9,0h.3m0,0h-.3m-.4,0h.7m106.7,0h20.8" class="g3_29"/>
<path d="M263.1,577.7l4.9,4.9l-2.9,-.4l-1.6,2.4Z" class="g4_29"/>
<path d="M265.1,582.2C252.2,553.3,230.3,529.3,202,514.1M131.4,496.8c85.6,0,146.7,67.3,146.7,146.7" class="g5_29"/>
<path d="M197.7,511.8l6.9,.9l-2.6,1.4l.3,2.9Z" class="g4_29"/>
<path d="M131.4,666.4V481.6" class="g6_29"/>
<path fill-rule="evenodd" d="M131.4,481.6l-2.4,1.6l2.4,-6.5l2.4,6.5Z" class="g7_29"/>
<path d="M108.5,643.5H295.7" class="g6_29"/>
<path clip-path="url(#c0_29)" fill-rule="evenodd" d="M295.7,643.5l-1.6,-2.4l6.5,2.4l-6.5,2.4Z" class="g7_29"/>
<path d="M278.1,640.4v6.2M128.3,496.8h6.2" class="g6_29"/>
<path d="M127.2,962.4h3.4M127.2,815.2h3.4m-3.4,37h3.4m-3.4,37h3.4m-3.4,36.6h3.4" class="g8_29"/>
<path d="M156.6,992.3V839.2" class="g6_29"/>
<path d="M219.7,901.6L162.2,846.3" class="g9_29"/>
<path d="M158.6,842.9l6.4,2.7l-2.8,.7l-.6,2.9Z" class="ga_29"/>
<path d="M279.5,958.1c-4.1,1.5,-20.2,2.1,-31,-3.3c-10.7,-5.4,-23.3,-22.3,-28.8,-53.2" class="g5_29"/>
<path d="M231.8,937L208.7,920.5" class="g9_29"/>
<path d="M204.7,917.7l6.7,1.7l-2.7,1.1l-.1,2.9Z" class="ga_29"/>
<path d="M245.2,952.6L239.9,951" class="g9_29"/>
<path d="M235.1,949.7l6.9,-.6l-2.1,1.9l.8,2.8Z" class="ga_29"/>
<path d="M130.2,964.6l-1.6,3.4m15.1,9.2l-1.5,3.4m13,7.9l-1.6,3.4" class="g8_29"/>
<path d="M309.1,834.2l-152.5,5l-27.7,-26m152.6,-5.5l-152.6,5.5V965.8l27.7,26.5l152.5,-5.5V834.2L281.5,807.7Z" class="g6_29"/>
<path d="M232.7,987.5l.7,3.4m-74.5,-.5l.7,3.4m36,-5l.6,3.5m72.9,-6.2l.7,3.4m35.6,-4.6l.7,3.4" class="g8_29"/>
<path d="M217.9,901.6c0,-1,.8,-1.7,1.8,-1.7c.9,0,1.7,.7,1.7,1.7c0,.9,-.8,1.7,-1.7,1.7c-1,0,-1.8,-.8,-1.8,-1.7Z" class="g4_29"/>
<path d="M217.9,901.6c0,-1,.8,-1.7,1.8,-1.7c.9,0,1.7,.7,1.7,1.7c0,.9,-.8,1.7,-1.7,1.7c-1,0,-1.8,-.8,-1.8,-1.7Z" class="gb_29"/>
</svg>