<?xml version="1.0" encoding="UTF-8" standalone="no"?>
<!DOCTYPE svg PUBLIC "-//W3C//DTD SVG 1.1//EN"
"http://www.w3.org/Graphics/SVG/1.1/DTD/svg11.dtd">
<svg viewBox="0 0 662 1017" version="1.1" xmlns="http://www.w3.org/2000/svg" xmlns:xlink="http://www.w3.org/1999/xlink">
<defs>
<style type="text/css"><![CDATA[
.g0_286{
fill: none;
stroke: #000;
stroke-width: 0.733;
stroke-linecap: round;
stroke-miterlimit: 10;
}
.g1_286{
fill: #DFDFDF;
}
.g2_286{
fill: none;
stroke: #000;
stroke-width: 0.733;
stroke-linecap: round;
stroke-miterlimit: 10;
stroke-dasharray: 1,5;
}
.g3_286{
fill: #FFF;
stroke: #FFF;
stroke-width: 1.527;
stroke-miterlimit: 10;
}
]]></style>
</defs>
<path d="M161.1 365.5v-220m275.1 220H161.1m0 0v13.7m55 -13.7v13.7m55 -13.7v13.7m55 -13.7v13.7m55.1 -13.7v13.7m55 -13.7v13.7M161.1 365.5H147.4m13.7 -55H147.4m13.7 -55H147.4m13.7 -55H147.4m13.7 -55H147.4" class="g0_286"/>
<path d="M178.2 365.5h-6.8v-11h6.8Z" class="g1_286"/>
<path d="M171.4 365.5h6.8v-11h-6.8Z" class="g0_286"/>
<path d="M191.9 365.5h-6.7v-11h6.7Z" class="g1_286"/>
<path d="M185.2 365.5h6.7v-11h-6.7Z" class="g0_286"/>
<path d="M205.7 365.5h-6.8v-9.9h6.8Z" class="g1_286"/>
<path d="M198.9 365.5h6.8v-9.9h-6.8Z" class="g0_286"/>
<path d="M219.4 365.5h-6.7v-2.2h6.7Z" class="g1_286"/>
<path d="M212.7 365.5h6.7v-2.2h-6.7Z" class="g0_286"/>
<path d="M233.2 365.5h-6.8v-3.3h6.8Z" class="g1_286"/>
<path d="M226.4 365.5h6.8v-3.3h-6.8Z" class="g0_286"/>
<path d="M246.9 365.5h-6.7v-8.8h6.7Z" class="g1_286"/>
<path d="M240.2 365.5h6.7v-8.8h-6.7Z" class="g0_286"/>
<path d="M260.7 365.5h-6.8v-6.6h6.8Z" class="g1_286"/>
<path d="M253.9 365.5h6.8v-6.6h-6.8Z" class="g0_286"/>
<path d="M274.4 365.5h-6.7V347.9h6.7Z" class="g1_286"/>
<path d="M267.7 365.5h6.7V347.9h-6.7Z" class="g0_286"/>
<path d="M288.2 365.5h-6.8v-9.9h6.8Z" class="g1_286"/>
<path d="M281.4 365.5h6.8v-9.9h-6.8Z" class="g0_286"/>
<path d="M301.9 365.5h-6.7V352.3h6.7Z" class="g1_286"/>
<path d="M295.2 365.5h6.7V352.3h-6.7Z" class="g0_286"/>
<path d="M315.7 365.5h-6.8v-8.8h6.8Z" class="g1_286"/>
<path d="M308.9 365.5h6.8v-8.8h-6.8Z" class="g0_286"/>
<path d="M329.4 365.5h-6.7V347.9h6.7Z" class="g1_286"/>
<path d="M322.7 365.5h6.7V347.9h-6.7Z" class="g0_286"/>
<path d="M343.2 365.5h-6.8V353.4h6.8Z" class="g1_286"/>
<path d="M336.4 365.5h6.8V353.4h-6.8Z" class="g0_286"/>
<path d="M357 365.5h-6.8V340.2H357Z" class="g1_286"/>
<path d="M350.2 365.5H357V340.2h-6.8Z" class="g0_286"/>
<path d="M370.7 365.5h-6.8V340.2h6.8Z" class="g1_286"/>
<path d="M363.9 365.5h6.8V340.2h-6.8Z" class="g0_286"/>
<path d="M384.5 365.5h-6.8V334.7h6.8Z" class="g1_286"/>
<path d="M377.7 365.5h6.8V334.7h-6.8Z" class="g0_286"/>
<path d="M398.2 365.5h-6.8V324.8h6.8Z" class="g1_286"/>
<path d="M391.4 365.5h6.8V324.8h-6.8Zm176.8 0H474.6m0 0v13.7m46.8 -13.7v13.7m46.8 -13.7v13.7M474.6 365.5h3.7h-3.7Zm20 0h7.2h-7.2Zm23.5 0h7V296.2h-7Zm23.3 0h7.1V153.2h-7.1Zm23.5 0h3.3h-3.3Z" class="g0_286"/>
<path d="M474.6 365.5H436.2" class="g2_286"/>
<path d="M454.3 1016H660.7v-15.9H454.3Z" class="g3_286"/>
</svg>