<?xml version="1.0" encoding="UTF-8" standalone="no"?>
<!DOCTYPE svg PUBLIC "-//W3C//DTD SVG 1.1//EN"
"http://www.w3.org/Graphics/SVG/1.1/DTD/svg11.dtd">
<svg viewBox="0 0 931 1096" version="1.1" xmlns="http://www.w3.org/2000/svg" xmlns:xlink="http://www.w3.org/1999/xlink">
<defs>
<clipPath id="c0_455"><path d="M153.6,943.9V915.2H259.7v28.7Z"/></clipPath>
<clipPath id="c1_455"><path d="M325.4,943.9V911.4H440.9v32.5Z"/></clipPath>
<style type="text/css"><![CDATA[
.g0_455{
fill: #E8F6FE;
}
.g1_455{
fill: none;
stroke: #241F1F;
stroke-width: 0.763;
stroke-miterlimit: 10;
}
.g2_455{
fill: none;
stroke: #EE008C;
stroke-width: 0.918;
stroke-linejoin: round;
}
.g3_455{
fill: none;
stroke: #89898B;
stroke-width: 0.534;
stroke-miterlimit: 3;
}
.g4_455{
fill: none;
stroke: #241F1F;
stroke-width: 0.611;
stroke-miterlimit: 3;
}
.g5_455{
fill: #241F1F;
}
.g6_455{
fill: none;
stroke: #241F1F;
stroke-width: 0.687;
stroke-miterlimit: 10;
}
.g7_455{
fill: none;
stroke: #00AEEF;
stroke-width: 0.763;
stroke-miterlimit: 10;
}
.g8_455{
fill: none;
stroke: #241F1F;
stroke-width: 0.412;
stroke-miterlimit: 10;
}
]]></style>
</defs>
<path d="M551.6,368H604v32.1H551.6Zm52.4,0h93.3v32.1H604Zm93.3,0h4.6v32.1h-4.6Zm4.6,0h54.4v32.1H701.9Zm54.4,0h91.6v32.1H756.3Z" class="g0_455"/>
<path d="M604,400.1h93.3M604,368h93.3m150.6,53.8V400.4m0,42.8V421.8m0,42.8V443.2M701.9,368h54.4m0,0h92m-.4,31.7V368.4m-146,31.7h54.4m0,0h92m-92,-.4V368.4m-59,31.7h4.6M697.3,368h4.6m-4.6,31.7V368.4m4.6,31.3V368.4m-4.6,53.4V400.4m0,42.8V421.8m0,42.8V443.2M551.2,368H604m-52.4,31.7V368.4M604,399.7V368.4m-52.8,31.7H604m-52.4,21.7V400.4M604,421.8V400.4m97.9,21.4V400.4m54.4,21.4V400.4M551.6,443.2V421.8M604,443.2V421.8m97.9,21.4V421.8m54.4,21.4V421.8M551.6,464.6V443.2M604,464.6V443.2M551.6,486V464.6M604,486V464.6m97.9,0V443.2m54.4,21.4V443.2m-59,42.8V464.6m4.6,21.4V464.6M756.3,486V464.6M847.9,486V464.6M551.6,507.4V486M604,507.4V486m93.3,21.4V486m4.6,21.4V486m54.4,21.4V486m91.6,21.4V486M604,534.5V507.4m93.3,27.1V507.4m4.6,27.1V507.4m54.4,27.1V507.4M551.6,534.5V507.4m296.3,27.1V507.4M551.2,534.9H604m0,0h93.3m0,0h4.6m0,0h54.4m0,0h92" class="g1_455"/>
<path d="M597.4,789.4c19.9,0,41.2,-2,53.6,-14.3c24.8,-24.8,32.8,-97.6,45.1,-97.6c12.3,0,20.3,72.8,45.1,97.6c11.4,11.4,30.5,13.5,49,13.8" class="g2_455"/>
<path d="M597.3,648.9H822.1V789.4H597.3Zm0,20.1H822.1M597.3,689.1H822.1M597.3,709.2H822.1m-224.8,20H822.1M597.3,749.3H822.1M597.3,769.4H822.1M629.4,648.9V789.4M661.6,648.9V789.4M693.7,648.9V789.4M725.8,648.9V789.4M757.9,648.9V789.4M790,648.9V789.4" class="g3_455"/>
<path d="M597.3,789.4V653.7" class="g4_455"/>
<path fill-rule="evenodd" d="M597.3,653.7l-2.4,1.7l2.4,-6.6l2.5,6.6Z" class="g5_455"/>
<path d="M597.3,789.4h220" class="g4_455"/>
<path fill-rule="evenodd" d="M817.3,789.4L815.7,787l6.5,2.4l-6.5,2.5Z" class="g5_455"/>
<path d="M790,786.4v6.1M594.3,769.4h6.1m157.5,17v6.1m-32.1,-6.1v6.1m-32.1,-6.1v6.1m-32.1,-6.1v6.1m-32.2,-6.1v6.1M594.3,669h6.1m-6.1,20.1h6.1m-6.1,20.1h6.1m-6.1,20h6.1m-6.1,20.1h6.1" class="g4_455"/>
<path d="M667.5,883.6h40.4" class="g6_455"/>
<path d="M128.3,388.3H476.7M128.3,504.4H476.7M128.3,782.5H476.7M128.3,875.7H476.7M128.3,994.8H476.7" class="g7_455"/>
<path d="M165.2,113.8h61.6m-49.4,2.9h47.3m112.4,-2.9H394" class="g6_455"/>
<path d="M179.5,179.7h3.8" class="g8_455"/>
<path d="M165.2,196.3h20.5m-8.3,2.9h6.2m153.5,-2.9h50.3m-50.3,41.3h54.7m-42.5,2.8h40.4M165.2,278.8h42.4m-42.4,41.3h62.3M358.6,353h9.5M165.2,474.4h69.3m-57.1,2.8h55.1m104.6,-2.8h53.4m-41.2,2.8h39.1m-16.9,57.6h10.3M213.6,676h40.1m142.4,-8.3h50.3m-52.4,48h40.1" class="g6_455"/>
<path d="M191.3,759.2h5" class="g8_455"/>
<path d="M201.4,755.5h14M178,840.4h41.1m122.1,8.3h36.7" class="g6_455"/>
<path clip-path="url(#c0_455)" d="M249.1,929.6H260" class="g6_455"/>
<path d="M350.7,929.6h30.5m48.9,-17.9h9.1" class="g6_455"/>
<path clip-path="url(#c1_455)" d="M417.9,929.6h23.3" class="g6_455"/>
</svg>