<?xml version="1.0" encoding="UTF-8" standalone="no"?>
<!DOCTYPE svg PUBLIC "-//W3C//DTD SVG 1.1//EN"
"http://www.w3.org/Graphics/SVG/1.1/DTD/svg11.dtd">
<svg viewBox="0 0 811 1017" version="1.1" xmlns="http://www.w3.org/2000/svg" xmlns:xlink="http://www.w3.org/1999/xlink">
<defs>
<clipPath id="c0_259"><path d="M157.2,839.9V545.3H547.7V839.9Z"/></clipPath>
<style type="text/css"><![CDATA[
.g0_259{
fill: #70A6CC;
}
.g1_259{
fill: #FFFFFF;
}
.g2_259{
fill: #C4E5B6;
}
.g3_259{
fill: #231F20;
}
]]></style>
</defs>
<path d="M156.1,102.4H724.4V80.6H156.1Z" class="g0_259"/>
<path d="M157.2,839.9H547.7V545.2H157.2Z" class="g1_259"/>
<path d="M360.4,664.5H547.1V632.1H360.4Z" class="g2_259"/>
<path d="M360.7,742.9H547.4V710.5H360.7Z" class="g2_259"/>
<path d="M470.5,828.9c-.3,-.1,-.6,-.1,-.8,0c-3.4,2.6,-9.3,4.1,-15.8,4.1c-6.5,0,-12.3,-1.5,-15.8,-4.1c-.3,-.1,-.6,-.1,-.8,0c-.4,.2,-.5,.6,-.5,.7v2.6c0,4.3,7.5,7.7,17.1,7.7c9.6,0,17.2,-3.4,17.2,-7.7v-2.6c0,-.3,-.2,-.7,-.6,-.7Z" class="g3_259"/>
<path d="M470.5,811.6c-.3,-.1,-.6,-.1,-.8,0c-3.4,2.6,-9.3,4.1,-15.8,4.1c-6.5,0,-12.3,-1.5,-15.8,-4.1c-.3,-.1,-.6,-.1,-.8,0c-.4,.2,-.5,.5,-.5,.7v2.6c0,4.3,7.5,7.7,17.1,7.7c9.6,0,17.2,-3.4,17.2,-7.7v-2.6c0,-.2,-.2,-.5,-.6,-.7Z" class="g3_259"/>
<path d="M453.9,814.2c9.6,0,17.2,-3.4,17.2,-7.7c0,-4.3,-7.6,-7.7,-17.2,-7.7c-9.6,0,-17.1,3.4,-17.1,7.7c0,4.3,7.5,7.7,17.1,7.7Z" class="g3_259"/>
<path d="M470.5,820.2c-.3,-.2,-.6,-.2,-.8,0c-3.4,2.6,-9.3,4.1,-15.8,4.1c-6.5,0,-12.3,-1.5,-15.8,-4.1c-.3,-.2,-.6,-.2,-.8,0c-.4,.2,-.5,.5,-.5,.7v2.6c0,4.2,7.5,7.7,17.1,7.7c9.6,0,17.2,-3.5,17.2,-7.7v-2.6c0,-.2,-.2,-.5,-.6,-.7Z" class="g3_259"/>
<path d="M215.7,631.1v.4h78v32.1H216V631.1h-.3v.4v-.4h-.4V664l.1,.3l.3,.1h78.4l.3,-.1l.1,-.3V631.1l-.1,-.3l-.3,-.1H215.7l-.3,.1l-.1,.3h.4Z" class="g3_259"/>
<path d="M360.4,632.1v.4H546.7v31.6H360.8v-32h-.4v.4v-.4H360v32.4l.1,.2l.3,.1H547.1l.3,-.1l.1,-.2V632.1l-.1,-.3l-.3,-.1H360.4l-.3,.1l-.1,.3h.4Z" class="g3_259"/>
<path clip-path="url(#c0_259)" d="M360.7,710.5v.4H547v31.6H361v-32h-.3v.4v-.4h-.4v32.4l.1,.3l.3,.1H547.4l.2,-.1l.1,-.3V710.5l-.1,-.2l-.2,-.2H360.7l-.3,.2l-.1,.2h.4Z" class="g3_259"/>
<path d="M294.1,648.1h3v-.8h-3Z" class="g3_259"/>
<path d="M300.4,648.1H307v-.7l-6.6,-.1Zm9.9,0l6.6,.1v-.8h-6.6Zm9.9,.1h6.6v-.8h-6.6Zm9.9,0h6.6v-.7l-6.6,-.1Zm9.9,0l6.5,.1v-.8H340Z" class="g3_259"/>
<path d="M349.8,648.3h3.1v-.8h-3.1Z" class="g3_259"/>
<path d="M351.4,650.1l8.3,-2.2l-8.3,-2.2v4.4Z" class="g3_259"/>
<path d="M453.4,664.5v3h.8v-3Z" class="g3_259"/>
<path d="M453.4,670.8l.1,6.7h.7v-6.7Zm.1,10v6.6h.8l-.1,-6.6Zm0,10v6.6h.8v-6.7Z" class="g3_259"/>
<path d="M453.5,700.7l.1,3.1h.7v-3.1Z" class="g3_259"/>
<path d="M451.7,702.3l2.3,8.2l2.1,-8.3l-4.4,.1Z" class="g3_259"/>
<path d="M453.6,742.9v3h.8v-3Z" class="g3_259"/>
<path d="M453.6,749.3v6.6h.8v-6.6Zm0,9.9v6.6h.8v-6.6Zm0,9.9v6.6h.7l.1,-6.6Zm0,9.9v6.6h.7V779Z" class="g3_259"/>
<path d="M453.6,788.9V792h.7v-3.1Z" class="g3_259"/>
<path d="M451.7,790.5l2.2,8.3l2.3,-8.3h-4.5Z" class="g3_259"/>
<path d="M237.6,766.1c6.3,-12,14.9,-21.6,31.5,-28.3c16.7,-6.6,41.3,-10.3,79.7,-10.5v-.4c-38.4,.2,-63.1,3.8,-79.9,10.5c-16.7,6.7,-25.4,16.4,-31.7,28.5l.4,.2Z" class="g3_259"/>
<path d="M348,730.1l4.9,-3l-5,-2.7l.1,5.7Z" class="g3_259"/>
<path d="M398,563.3c15.2,2,28.1,5.7,37.6,14.7c9.4,9,15.5,23.3,16.8,46.6h.5c-1.4,-23.4,-7.4,-37.8,-17,-46.9C426.3,568.6,413.3,564.9,398,562.9v.4Z" class="g3_259"/>
<path d="M449.7,624l3.1,4.7l2.6,-5.1l-5.7,.4Z" class="g3_259"/>
<path d="M165.9,639.9l42.8,-.1V639l-42.8,.1Z" class="g3_259"/>
<path d="M207.2,641.6l8.3,-2.2l-8.3,-2.2v4.4Z" class="g3_259"/>
<path d="M216.1,653.8l-44.1,.1v.8l44.1,-.1Z" class="g3_259"/>
<path d="M173.5,652.1l-8.3,2.2l8.3,2.2v-4.4Z" class="g3_259"/>
</svg>