<?xml version="1.0" encoding="UTF-8" standalone="no"?>
<!DOCTYPE svg PUBLIC "-//W3C//DTD SVG 1.1//EN"
"http://www.w3.org/Graphics/SVG/1.1/DTD/svg11.dtd">
<svg viewBox="0 0 907 1045" version="1.1" xmlns="http://www.w3.org/2000/svg" xmlns:xlink="http://www.w3.org/1999/xlink">
<defs>
<clipPath id="c0_410"><path d="M-2.6,1047.7V-2.6H910.2V1047.7Z"/></clipPath>
<style type="text/css"><![CDATA[
.g0_410{
fill: none;
stroke: #5A5A5A;
stroke-width: 1.527;
stroke-linecap: butt;
stroke-linejoin: miter;
stroke-miterlimit: 4;
}
.g1_410{
fill: none;
stroke: #FFFFFF;
stroke-width: 1.909;
stroke-linecap: butt;
stroke-linejoin: miter;
}
.g2_410{
fill: none;
stroke: #000000;
stroke-width: 0.381;
stroke-linecap: butt;
stroke-linejoin: miter;
}
]]></style>
</defs>
<path d="M563.8,718.8c-4.7,-3.1,-10.9,-5.2,-16.2,-6.8c-5.1,-1.6,-10.2,-2.8,-15.5,-3c-6,-.3,-12.3,-.1,-18.1,-1.4c-.1,-1.3,1.7,-2.7,2.5,-3.5c.9,-1,1.9,-1.7,3.2,-2.2c.6,-.3,1.1,-.2,1.6,-.6c-1.1,.1,-2.6,1.3,-3.5,1.8c-2.6,1.9,-5.1,3.2,-8,4.6c-5.8,2.8,8.2,5.1,8.7,7.3m30.7,48.1c-5.4,-4.4,-11.3,-7.6,-18.5,-7.4c-9.3,.2,-19.4,1.8,-28.4,4.2c-2.1,.5,-3.3,1.3,-5.1,2.4c-2.8,1.6,-5.7,2.6,-8.8,3.4c-2.2,.7,-5.2,1.9,-7.5,1.6c-.2,-1,2.4,-2.9,3,-3.6c1.1,-1.5,2.4,-3.1,3.4,-4.5c-1.9,2,-3.9,3.9,-5.9,5.9c-1.2,1.2,-4.3,3.9,-3.6,6c3.7,.8,7.8,-.4,11.5,-.3m102,74.8c-4.8,-1.2,-10.3,-1.5,-15.2,-1.7c-1.7,0,-4,.1,-5.5,-.6c1.7,-.6,3.1,-3.8,4.4,-3.7c-2.3,1.5,-6.2,2.1,-7.8,4.6c-3.2,4.8,7.4,4.6,9.9,5" class="g0_410"/>
<g clip-path="url(#c0_410)">
<path d="M-4.5,13.7H-27.4m939.5,0H935M-4.5,1031.2H-27.4m939.5,0H935M13.7,-4.5V-27.4m0,1077v22.9m880,-1077V-27.4m0,1077v22.9" class="g1_410"/>
<path d="M-4.5,13.7H-27.4m939.5,0H935M-4.5,1031.2H-27.4m939.5,0H935M13.7,-4.5V-27.4m0,1077v22.9m880,-1077V-27.4m0,1077v22.9" class="g2_410"/>
</g>
</svg>