<?xml version="1.0" encoding="UTF-8" standalone="no"?>
<!DOCTYPE svg PUBLIC "-//W3C//DTD SVG 1.1//EN"
"http://www.w3.org/Graphics/SVG/1.1/DTD/svg11.dtd">
<svg viewBox="0 0 931 1096" version="1.1" xmlns="http://www.w3.org/2000/svg" xmlns:xlink="http://www.w3.org/1999/xlink">
<defs>
<clipPath id="c0_176"><path d="M411.4,840.6V808.8H697.8v31.8Z"/></clipPath>
<clipPath id="c1_176"><path d="M154.5,698.7c-37.5,0,-68.4,-8,-77.8,-23.9c.4,-14.8,2.1,-28.6,7.9,-45.2c11.3,-32.5,22.3,-50.9,29,-59.4L96.9,607.9v.2l.1,.2L206.4,657h.3l.2,-.2l15.2,-34.2c1.5,1.5,2.5,2.6,4,4.3c8,9.3,19.8,23.9,23.1,50.4c-10,9.4,-26.1,14.3,-49.4,17.8c-15.5,2.4,-30.9,3.6,-45.3,3.6Z"/></clipPath>
<clipPath id="c2_176"><path d="M206.4,656.3L97.6,607.8l17.1,-38.5c.1,-.1,.2,-.1,.3,-.1c.8,-.3,2.1,-.4,3.7,-.4c15.2,0,65.3,12.3,102.5,52.9c.1,.2,.3,.3,.4,.4l-15.2,34.2Z"/></clipPath>
<clipPath id="c3_176"><path d="M206.4,657L97,608.3l-.1,-.2v-.2l16.7,-37.7q.1,-.1,.2,-.2c.1,-.2,.3,-.3,.5,-.4L97.2,608l109.4,48.7l15.3,-34.3c0,0,.1,.1,.2,.2l-15.2,34.2l-.2,.2Z"/></clipPath>
<clipPath id="c4_176"><path d="M206.6,656.7L97.2,608l17.1,-38.4c.1,-.1,.2,-.2,.4,-.3L97.6,607.8l108.8,48.5l15.2,-34.2c.1,.1,.2,.2,.3,.3l-15.3,34.3Z"/></clipPath>
<clipPath id="c5_176"><path d="M53.5,699.2V540.6H266.8V699.2Z"/></clipPath>
<style type="text/css"><![CDATA[
.g0_176{
fill: #D0007A;
}
.g1_176{
fill: none;
stroke: #00AEEF;
stroke-width: 1.145;
}
.g2_176{
fill: none;
stroke: #241F1F;
stroke-width: 0.763;
stroke-miterlimit: 10;
}
.g3_176{
fill: none;
stroke: #0079C2;
stroke-width: 0.763;
}
.g4_176{
fill: #FFD9AC;
}
.g5_176{
fill: #FFCE95;
}
.g6_176{
fill: none;
stroke: #241F1F;
stroke-width: 0.381;
stroke-miterlimit: 3;
}
.g7_176{
fill: #241F1F;
}
.g8_176{
fill: none;
stroke: #00BFF3;
stroke-width: 0.611;
stroke-miterlimit: 3;
stroke-dasharray: 10,4;
}
.g9_176{
fill: none;
stroke: #00BFF3;
stroke-width: 0.611;
stroke-linejoin: round;
}
.ga_176{
fill: none;
stroke: #EE008C;
stroke-width: 0.916;
stroke-linejoin: round;
}
.gb_176{
fill: #EE008C;
}
.gc_176{
fill: none;
stroke: #EE008C;
stroke-width: 0.763;
stroke-miterlimit: 3;
}
.gd_176{
fill: none;
stroke: #00AEEF;
stroke-width: 0.763;
stroke-linejoin: round;
}
.ge_176{
fill: none;
stroke: #241F1F;
stroke-width: 0.611;
stroke-miterlimit: 3;
}
.gf_176{
fill: none;
stroke: #008BC0;
stroke-width: 0.763;
stroke-miterlimit: 3;
stroke-dasharray: 9,4;
}
.gg_176{
fill: none;
stroke: #241F1F;
stroke-width: 0.534;
stroke-miterlimit: 3;
}
.gh_176{
fill: none;
stroke: #7E7D7F;
stroke-width: 0.611;
stroke-miterlimit: 3;
stroke-dasharray: 8,4;
}
.gi_176{
fill: none;
stroke: #7E7D7F;
stroke-width: 0.611;
stroke-miterlimit: 3;
stroke-dasharray: 10,4;
}
]]></style>
</defs>
<path d="M288.8,97.6c0,0,-1.6,0,-1.6,1.5v9.2c0,0,0,1.5,1.6,1.5h9.1c0,0,1.6,0,1.6,-1.5V99.1c0,0,0,-1.5,-1.6,-1.5Z" class="g0_176"/>
<path d="M307.7,248.6c0,0,-1.6,0,-1.6,1.6v14.1c0,0,0,1.5,1.6,1.5h15.6c0,0,1.6,0,1.6,-1.5V250.2c0,0,0,-1.6,-1.6,-1.6H307.7Zm0,94.8c0,0,-1.6,0,-1.6,1.5V359c0,0,0,1.5,1.6,1.5h15.6c0,0,1.6,0,1.6,-1.5V344.9c0,0,0,-1.5,-1.6,-1.5H307.7Z" class="g1_176"/>
<path d="M452.3,352.3h21.5m3.8,0h19m21.9,0H540m3.8,0h19m21.8,0h21.5m3.8,0h18.2" class="g2_176"/>
<path d="M307.7,500.7c0,0,-1.6,0,-1.6,1.5v14.2c0,0,0,1.5,1.6,1.5h15.6c0,0,1.6,0,1.6,-1.5V502.2c0,0,0,-1.5,-1.6,-1.5H307.7Zm.7,178c0,0,-1.5,0,-1.5,1.5v14.2c0,0,0,1.5,1.5,1.5h15.7c0,0,1.5,0,1.5,-1.5V680.2c0,0,0,-1.5,-1.5,-1.5H308.4Z" class="g1_176"/>
<path d="M290.7,666.3c0,0,-3.1,0,-3.1,3v37.5c0,0,0,3,3.1,3H820.1c0,0,3,0,3,-3V669.3c0,0,0,-3,-3,-3H290.7Z" class="g3_176"/>
<path d="M307.7,812.4c0,0,-1.6,0,-1.6,1.5V828c0,0,0,1.6,1.6,1.6h16.4c0,0,1.5,0,1.5,-1.6V813.9c0,0,0,-1.5,-1.5,-1.5H307.7Z" class="g1_176"/>
<path clip-path="url(#c0_176)" d="M412.1,821.3h81.3m21.8,0h81.3m21.8,0h79.9" class="g2_176"/>
<image clip-path="url(#c1_176)" x="76" y="570" width="174" height="129" xlink:href="shade/1.png"/>
<path d="M221.6,622.1c-.1,-.1,-.3,-.2,-.4,-.4C184,581.1,133.9,568.8,118.7,568.8c-1.6,0,-2.9,.1,-3.7,.4c-.1,0,-.2,0,-.3,.1l7,-15.6l108.8,48.4l-8.9,20Z" class="g4_176"/>
<image clip-path="url(#c2_176)" preserveAspectRatio="none" x="97" y="569" width="125" height="88" xlink:href="img/1.jpg"/>
<path d="M222.1,622.6c-.1,-.1,-.2,-.2,-.2,-.2l9,-20.4L121.5,553.3l-7.2,16.3c-.2,.1,-.4,.2,-.5,.4q-.1,.1,-.2,.2l7.6,-17.1c.1,-.1,.2,-.1,.3,-.1q.1,0,.1,0l109.5,48.7l.1,.2v.2l-9.1,20.5Z" class="g5_176"/>
<image clip-path="url(#c3_176)" preserveAspectRatio="none" x="96" y="569" width="127" height="89" xlink:href="img/2.jpg"/>
<path d="M221.9,622.4c-.1,-.1,-.2,-.2,-.3,-.3l8.9,-20L121.7,553.7l-7,15.6c-.2,.1,-.3,.2,-.4,.3l7.2,-16.3L230.9,602l-9,20.4Z" class="g5_176"/>
<image clip-path="url(#c4_176)" preserveAspectRatio="none" x="97" y="569" width="126" height="88" xlink:href="img/3.jpg"/>
<path d="M222.8,583.9l-6.4,17" class="g6_176"/>
<path d="M215.2,604v-4.7l1.2,1.6l1.9,-.4Z" class="g7_176"/>
<path d="M221.2,621.7C178.5,575,118.4,565.4,114.1,569.6" class="g8_176"/>
<path clip-path="url(#c5_176)" d="M114.2,569.6c-9,9.2,-37.7,63,-37.7,105.4c27,39,155.5,23.2,172.7,2.2c-2.9,-23.3,-11.8,-39.3,-28,-55.5" class="g9_176"/>
<path d="M175.5,555.5l-27.3,40.7l38.5,25.9" class="ga_176"/>
<path d="M178.3,551.5l-1.6,6.7l-1.2,-2.7l-2.9,-.1Z" class="gb_176"/>
<path d="M190.8,624.9L184,623.3l2.7,-1.2l.1,-2.9Z" class="gb_176"/>
<path d="M146.5,596.2c0,-.9,.8,-1.7,1.7,-1.7c.9,0,1.7,.8,1.7,1.7c0,.9,-.8,1.7,-1.7,1.7c-.9,0,-1.7,-.8,-1.7,-1.7Z" class="gb_176"/>
<path d="M146.5,596.2c0,-.9,.8,-1.7,1.7,-1.7c.9,0,1.7,.8,1.7,1.7c0,.9,-.8,1.7,-1.7,1.7c-.9,0,-1.7,-.8,-1.7,-1.7Z" class="gc_176"/>
<path d="M196.2,674.5c-.8,-7.6,-2.7,-15.3,-6.3,-24.6" class="gd_176"/>
<path d="M244.9,664.9l14.6,1.6" class="ge_176"/>
<path d="M189.2,648.3C176.8,618.4,147.9,580.1,107.9,592.2" class="gf_176"/>
<path d="M151.6,591.4l5,3.3l-3.2,5" class="gg_176"/>
<path fill-rule="evenodd" d="M259.5,666.5l-1.4,-2.6l6.3,3.1l-6.8,1.7Z" class="g7_176"/>
<path d="M104.8,583.6V545.5" class="ge_176"/>
<path fill-rule="evenodd" d="M104.8,545.5l-2.5,1.6l2.5,-6.5l2.4,6.5Z" class="g7_176"/>
<path d="M104.8,650.3L78.6,676.5" class="gh_176"/>
<path d="M78.6,676.5L65.9,689.2" class="ge_176"/>
<path fill-rule="evenodd" d="M65.9,689.2l2.9,.5l-6.4,2.9l2.9,-6.3Z" class="g7_176"/>
<path d="M104.8,650.3V583.6m136.8,81l-137,-14.4" class="gi_176"/>
</svg>