<?xml version="1.0" encoding="UTF-8" standalone="no"?>
<!DOCTYPE svg PUBLIC "-//W3C//DTD SVG 1.1//EN"
"http://www.w3.org/Graphics/SVG/1.1/DTD/svg11.dtd">
<svg viewBox="0 0 770 1017" version="1.1" xmlns="http://www.w3.org/2000/svg" xmlns:xlink="http://www.w3.org/1999/xlink">
<defs>
<clipPath id="c0_470"><path d="M534.6,326.2l-15.4,-3.8l15.4,-3.8H516.2v7.6ZM408.1,350.1V102.4h286V350.1Z"/></clipPath>
<clipPath id="c1_470"><path d="M499.7,152.7l14.8,-10.8L510,135.7l-14.9,10.8l14.7,-5.9l-10.1,12.1ZM408.1,350.1V102.4h286V350.1Z"/></clipPath>
<clipPath id="c2_470"><path d="M440.6,272.3l-2.8,-15.5l9.7,12.3L440,252.4l-7,3.2l7.6,16.7Zm-32.5,77.8V102.4h286V350.1Z"/></clipPath>
<clipPath id="c3_470"><path d="M645.7,311l7.6,-16.7l-9.8,12.3l2.8,-15.5l-7.6,16.7l7,3.2ZM408.1,350.1V102.4h286V350.1Z"/></clipPath>
<clipPath id="c4_470"><path d="M644.6,178l4.5,-6.2L634.3,161l10.1,12.1l-14.7,-5.9L644.6,178ZM408.1,350.1V102.4h286V350.1Z"/></clipPath>
<style type="text/css"><![CDATA[
.g0_470{
fill: none;
stroke: #000000;
stroke-width: 0.618;
stroke-linecap: butt;
stroke-linejoin: miter;
}
.g1_470{
fill: none;
stroke: #000000;
stroke-width: 0.956;
stroke-linecap: butt;
stroke-linejoin: miter;
}
.g2_470{
}
.g3_470{
stroke: #000000;
stroke-width: 0.956;
stroke-linecap: butt;
stroke-linejoin: miter;
}
]]></style>
</defs>
<path d="M56,69.2H695.2M380.7,350.1V102.4" class="g0_470"/>
<path d="M665.5,188.4v33.5m0,-33.5l-28.7,52.7m0,0h52.6m0,0L665.5,188.4m-28.7,52.7l28.7,-19.2m-52.7,71.8v33.5m0,-33.5l-28.7,52.6m0,0h52.7M488.4,293.7v33.5m0,-33.5l-28.7,52.6m177.1,0l-24,-52.6M440.6,221.9l23.9,19.2m-52.6,0l28.7,-19.2m23.9,19.2L440.6,188.4m110,-81.3v33.5m0,-33.5l-28.7,52.6m-81.3,28.7l-28.7,52.7m110,-81.4h52.7m0,0l-24,-52.6m-28.7,52.6l28.7,-19.1m0,0l24,19.1M459.7,346.3h52.7" class="g1_470"/>
<path clip-path="url(#c0_470)" d="M517.1,322.4h67" class="g1_470"/>
<path d="M534.6,318.6l-15.4,3.8l15.4,3.8" class="g1_470"/>
<path clip-path="url(#c1_470)" d="M458.9,177.7l52.6,-38.3" class="g1_470"/>
<path d="M499.7,152.7l10.1,-12.1l-14.7,5.9" class="g1_470"/>
<path clip-path="url(#c2_470)" d="M436.9,254.9l23.9,52.6" class="g1_470"/>
<path d="M447.5,269.1l-9.7,-12.3l2.8,15.5" class="g1_470"/>
<path clip-path="url(#c3_470)" d="M666.5,255.9l-23.9,52.6" class="g1_470"/>
<path d="M646.3,291.1l-2.8,15.5l9.8,-12.3" class="g1_470"/>
<path fill-rule="evenodd" d="M553.5,107.1c0,1.6,-1.3,2.9,-2.9,2.9c-1.5,0,-2.8,-1.3,-2.8,-2.9c0,-1.6,1.3,-2.9,2.8,-2.9c1.6,0,2.9,1.3,2.9,2.9Z" class="g2_470"/>
<path d="M553.5,107.1c0,1.6,-1.3,2.9,-2.9,2.9c-1.5,0,-2.8,-1.3,-2.8,-2.9c0,-1.6,1.3,-2.9,2.8,-2.9c1.6,0,2.9,1.3,2.9,2.9Z" class="g1_470"/>
<path fill-rule="evenodd" d="M414.8,241.1c0,1.5,-1.3,2.8,-2.9,2.8c-1.6,0,-2.9,-1.3,-2.9,-2.8c0,-1.6,1.3,-2.9,2.9,-2.9c1.6,0,2.9,1.3,2.9,2.9Z" class="g2_470"/>
<path d="M414.8,241.1c0,1.5,-1.3,2.8,-2.9,2.8c-1.6,0,-2.9,-1.3,-2.9,-2.8c0,-1.6,1.3,-2.9,2.9,-2.9c1.6,0,2.9,1.3,2.9,2.9Z" class="g1_470"/>
<path fill-rule="evenodd" d="M524.8,159.7c0,1.6,-1.3,2.9,-2.9,2.9c-1.6,0,-2.8,-1.3,-2.8,-2.9c0,-1.6,1.2,-2.9,2.8,-2.9c1.6,0,2.9,1.3,2.9,2.9Z" class="g3_470"/>
<path fill-rule="evenodd" d="M553.5,140.6c0,1.6,-1.3,2.9,-2.9,2.9c-1.5,0,-2.8,-1.3,-2.8,-2.9c0,-1.6,1.3,-2.9,2.8,-2.9c1.6,0,2.9,1.3,2.9,2.9Z" class="g3_470"/>
<path fill-rule="evenodd" d="M577.4,159.7c0,1.6,-1.2,2.9,-2.8,2.9c-1.6,0,-2.9,-1.3,-2.9,-2.9c0,-1.6,1.3,-2.9,2.9,-2.9c1.6,0,2.8,1.3,2.8,2.9Z" class="g3_470"/>
<path fill-rule="evenodd" d="M668.3,188.4c0,1.6,-1.3,2.9,-2.8,2.9c-1.6,0,-2.9,-1.3,-2.9,-2.9c0,-1.5,1.3,-2.8,2.9,-2.8c1.5,0,2.8,1.3,2.8,2.8Z" class="g3_470"/>
<path fill-rule="evenodd" d="M639.6,241.1c0,1.5,-1.3,2.8,-2.8,2.8c-1.6,0,-2.9,-1.3,-2.9,-2.8c0,-1.6,1.3,-2.9,2.9,-2.9c1.5,0,2.8,1.3,2.8,2.9Z" class="g3_470"/>
<path fill-rule="evenodd" d="M668.3,221.9c0,1.6,-1.3,2.9,-2.8,2.9c-1.6,0,-2.9,-1.3,-2.9,-2.9c0,-1.6,1.3,-2.9,2.9,-2.9c1.5,0,2.8,1.3,2.8,2.9Z" class="g3_470"/>
<path fill-rule="evenodd" d="M692.2,241.1c0,1.5,-1.2,2.8,-2.8,2.8c-1.6,0,-2.9,-1.3,-2.9,-2.8c0,-1.6,1.3,-2.9,2.9,-2.9c1.6,0,2.8,1.3,2.8,2.9Z" class="g2_470"/>
<path d="M692.2,241.1c0,1.5,-1.2,2.8,-2.8,2.8c-1.6,0,-2.9,-1.3,-2.9,-2.8c0,-1.6,1.3,-2.9,2.9,-2.9c1.6,0,2.8,1.3,2.8,2.9Z" class="g1_470"/>
<path fill-rule="evenodd" d="M615.7,293.7c0,1.6,-1.3,2.8,-2.9,2.8c-1.5,0,-2.8,-1.2,-2.8,-2.8c0,-1.6,1.3,-2.9,2.8,-2.9c1.6,0,2.9,1.3,2.9,2.9Z" class="g3_470"/>
<path fill-rule="evenodd" d="M587,346.3c0,1.6,-1.3,2.9,-2.9,2.9c-1.6,0,-2.8,-1.3,-2.8,-2.9c0,-1.6,1.2,-2.9,2.8,-2.9c1.6,0,2.9,1.3,2.9,2.9Z" class="g2_470"/>
<path d="M587,346.3c0,1.6,-1.3,2.9,-2.9,2.9c-1.6,0,-2.8,-1.3,-2.8,-2.9c0,-1.6,1.2,-2.9,2.8,-2.9c1.6,0,2.9,1.3,2.9,2.9Z" class="g1_470"/>
<path fill-rule="evenodd" d="M615.7,327.2c0,1.6,-1.3,2.9,-2.9,2.9c-1.5,0,-2.8,-1.3,-2.8,-2.9c0,-1.6,1.3,-2.9,2.8,-2.9c1.6,0,2.9,1.3,2.9,2.9Z" class="g3_470"/>
<path fill-rule="evenodd" d="M639.6,346.3c0,1.6,-1.3,2.9,-2.8,2.9c-1.6,0,-2.9,-1.3,-2.9,-2.9c0,-1.6,1.3,-2.9,2.9,-2.9c1.5,0,2.8,1.3,2.8,2.9Z" class="g2_470"/>
<path d="M639.6,346.3c0,1.6,-1.3,2.9,-2.8,2.9c-1.6,0,-2.9,-1.3,-2.9,-2.9c0,-1.6,1.3,-2.9,2.9,-2.9c1.5,0,2.8,1.3,2.8,2.9Z" class="g1_470"/>
<path fill-rule="evenodd" d="M491.3,293.7c0,1.6,-1.3,2.8,-2.9,2.8c-1.5,0,-2.8,-1.2,-2.8,-2.8c0,-1.6,1.3,-2.9,2.8,-2.9c1.6,0,2.9,1.3,2.9,2.9Z" class="g3_470"/>
<path fill-rule="evenodd" d="M462.6,346.3c0,1.6,-1.3,2.9,-2.9,2.9c-1.6,0,-2.8,-1.3,-2.8,-2.9c0,-1.6,1.2,-2.9,2.8,-2.9c1.6,0,2.9,1.3,2.9,2.9Z" class="g2_470"/>
<path d="M462.6,346.3c0,1.6,-1.3,2.9,-2.9,2.9c-1.6,0,-2.8,-1.3,-2.8,-2.9c0,-1.6,1.2,-2.9,2.8,-2.9c1.6,0,2.9,1.3,2.9,2.9Z" class="g1_470"/>
<path fill-rule="evenodd" d="M491.3,327.2c0,1.6,-1.3,2.9,-2.9,2.9c-1.5,0,-2.8,-1.3,-2.8,-2.9c0,-1.6,1.3,-2.9,2.8,-2.9c1.6,0,2.9,1.3,2.9,2.9Z" class="g3_470"/>
<path fill-rule="evenodd" d="M515.2,346.3c0,1.6,-1.2,2.9,-2.8,2.9c-1.6,0,-2.9,-1.3,-2.9,-2.9c0,-1.6,1.3,-2.9,2.9,-2.9c1.6,0,2.8,1.3,2.8,2.9Z" class="g2_470"/>
<path d="M515.2,346.3c0,1.6,-1.2,2.9,-2.8,2.9c-1.6,0,-2.9,-1.3,-2.9,-2.9c0,-1.6,1.3,-2.9,2.9,-2.9c1.6,0,2.8,1.3,2.8,2.9Z" class="g1_470"/>
<path fill-rule="evenodd" d="M443.5,188.4c0,1.6,-1.3,2.9,-2.9,2.9c-1.6,0,-2.9,-1.3,-2.9,-2.9c0,-1.5,1.3,-2.8,2.9,-2.8c1.6,0,2.9,1.3,2.9,2.8Z" class="g3_470"/>
<path fill-rule="evenodd" d="M443.5,221.9c0,1.6,-1.3,2.9,-2.9,2.9c-1.6,0,-2.9,-1.3,-2.9,-2.9c0,-1.6,1.3,-2.9,2.9,-2.9c1.6,0,2.9,1.3,2.9,2.9Z" class="g3_470"/>
<path fill-rule="evenodd" d="M467.4,241.1c0,1.5,-1.3,2.8,-2.9,2.8c-1.6,0,-2.8,-1.3,-2.8,-2.8c0,-1.6,1.2,-2.9,2.8,-2.9c1.6,0,2.9,1.3,2.9,2.9Z" class="g3_470"/>
<path clip-path="url(#c4_470)" d="M593.5,136.1l52.6,38.2" class="g1_470"/>
<path d="M629.7,167.2l14.7,5.9L634.3,161" class="g1_470"/>
<path d="M65.1,376.4h621" class="g0_470"/>
</svg>