<?xml version="1.0" encoding="UTF-8" standalone="no"?>
<!DOCTYPE svg PUBLIC "-//W3C//DTD SVG 1.1//EN"
"http://www.w3.org/Graphics/SVG/1.1/DTD/svg11.dtd">
<svg viewBox="0 0 931 1096" version="1.1" xmlns="http://www.w3.org/2000/svg" xmlns:xlink="http://www.w3.org/1999/xlink">
<defs>
<style type="text/css"><![CDATA[
.g0_45{
fill: none;
stroke: #241F1F;
stroke-width: 0.611;
stroke-miterlimit: 3;
}
.g1_45{
fill: #241F1F;
}
.g2_45{
fill: #00AEEF;
}
.g3_45{
fill: none;
stroke: #00AEEF;
stroke-width: 0.763;
stroke-miterlimit: 3;
}
.g4_45{
fill: none;
stroke: #EE008C;
stroke-width: 0.763;
stroke-linejoin: round;
}
.g5_45{
fill: #E8F6FE;
}
.g6_45{
fill: none;
stroke: #241F1F;
stroke-width: 0.763;
stroke-miterlimit: 10;
}
]]></style>
</defs>
<path d="M114.1,686.3H468.6" class="g0_45"/>
<path fill-rule="evenodd" d="M466.1,686.3l-1.6,-2.5l6.5,2.5l-6.5,2.4Z" class="g1_45"/>
<path fill-rule="evenodd" d="M159,496.8l-2.4,1.7l2.4,-6.6l2.4,6.6Z" class="g1_45"/>
<path d="M155.9,539.6h6.2m-6.2,-24.4h6.2" class="g0_45"/>
<path d="M157.9,645.8c0,-.6,.5,-1.1,1.1,-1.1c.6,0,1.1,.5,1.1,1.1c0,.6,-.5,1.2,-1.1,1.2c-.6,0,-1.1,-.6,-1.1,-1.2Z" class="g2_45"/>
<path d="M157.9,645.8c0,-.6,.5,-1.1,1.1,-1.1c.6,0,1.1,.5,1.1,1.1c0,.6,-.5,1.2,-1.1,1.2c-.6,0,-1.1,-.6,-1.1,-1.2Z" class="g3_45"/>
<path d="M180.8,643.9c0,-.7,.5,-1.2,1.1,-1.2c.7,0,1.2,.5,1.2,1.2c0,.6,-.5,1.1,-1.2,1.1c-.6,0,-1.1,-.5,-1.1,-1.1Z" class="g2_45"/>
<path d="M180.8,643.9c0,-.7,.5,-1.2,1.1,-1.2c.7,0,1.2,.5,1.2,1.2c0,.6,-.5,1.1,-1.2,1.1c-.6,0,-1.1,-.5,-1.1,-1.1Z" class="g3_45"/>
<path d="M203.7,641.4c0,-.6,.5,-1.1,1.1,-1.1c.7,0,1.2,.5,1.2,1.1c0,.6,-.5,1.2,-1.2,1.2c-.6,0,-1.1,-.6,-1.1,-1.2Z" class="g2_45"/>
<path d="M203.7,641.4c0,-.6,.5,-1.1,1.1,-1.1c.7,0,1.2,.5,1.2,1.1c0,.6,-.5,1.2,-1.2,1.2c-.6,0,-1.1,-.6,-1.1,-1.2Z" class="g3_45"/>
<path d="M226.6,635.9c0,-.7,.5,-1.2,1.1,-1.2c.7,0,1.2,.5,1.2,1.2c0,.6,-.5,1.1,-1.2,1.1c-.6,0,-1.1,-.5,-1.1,-1.1Z" class="g2_45"/>
<path d="M226.6,635.9c0,-.7,.5,-1.2,1.1,-1.2c.7,0,1.2,.5,1.2,1.2c0,.6,-.5,1.1,-1.2,1.1c-.6,0,-1.1,-.5,-1.1,-1.1Z" class="g3_45"/>
<path d="M249.5,630.3c0,-.6,.5,-1.1,1.2,-1.1c.6,0,1.1,.5,1.1,1.1c0,.7,-.5,1.2,-1.1,1.2c-.7,0,-1.2,-.5,-1.2,-1.2Z" class="g2_45"/>
<path d="M249.5,630.3c0,-.6,.5,-1.1,1.2,-1.1c.6,0,1.1,.5,1.1,1.1c0,.7,-.5,1.2,-1.1,1.2c-.7,0,-1.2,-.5,-1.2,-1.2Z" class="g3_45"/>
<path d="M272.4,624.8c0,-.6,.6,-1.1,1.2,-1.1c.6,0,1.1,.5,1.1,1.1c0,.7,-.5,1.2,-1.1,1.2c-.6,0,-1.2,-.5,-1.2,-1.2Z" class="g2_45"/>
<path d="M272.4,624.8c0,-.6,.6,-1.1,1.2,-1.1c.6,0,1.1,.5,1.1,1.1c0,.7,-.5,1.2,-1.1,1.2c-.6,0,-1.2,-.5,-1.2,-1.2Z" class="g3_45"/>
<path d="M295.3,612.8c0,-.6,.6,-1.2,1.2,-1.2c.6,0,1.1,.6,1.1,1.2c0,.6,-.5,1.1,-1.1,1.1c-.6,0,-1.2,-.5,-1.2,-1.1Z" class="g2_45"/>
<path d="M295.3,612.8c0,-.6,.6,-1.2,1.2,-1.2c.6,0,1.1,.6,1.1,1.2c0,.6,-.5,1.1,-1.1,1.1c-.6,0,-1.2,-.5,-1.2,-1.1Z" class="g3_45"/>
<path d="M318.3,596.2c0,-.6,.5,-1.1,1.1,-1.1c.7,0,1.2,.5,1.2,1.1c0,.7,-.5,1.2,-1.2,1.2c-.6,0,-1.1,-.5,-1.1,-1.2Z" class="g2_45"/>
<path d="M318.3,596.2c0,-.6,.5,-1.1,1.1,-1.1c.7,0,1.2,.5,1.2,1.1c0,.7,-.5,1.2,-1.2,1.2c-.6,0,-1.1,-.5,-1.1,-1.2Z" class="g3_45"/>
<path d="M341.2,578c0,-.6,.5,-1.1,1.1,-1.1c.7,0,1.2,.5,1.2,1.1c0,.6,-.5,1.2,-1.2,1.2c-.6,0,-1.1,-.6,-1.1,-1.2Z" class="g2_45"/>
<path d="M341.2,578c0,-.6,.5,-1.1,1.1,-1.1c.7,0,1.2,.5,1.2,1.1c0,.6,-.5,1.2,-1.2,1.2c-.6,0,-1.1,-.6,-1.1,-1.2Z" class="g3_45"/>
<path d="M364.1,557.5c0,-.6,.5,-1.1,1.1,-1.1c.7,0,1.2,.5,1.2,1.1c0,.7,-.5,1.2,-1.2,1.2c-.6,0,-1.1,-.5,-1.1,-1.2Z" class="g2_45"/>
<path d="M364.1,557.5c0,-.6,.5,-1.1,1.1,-1.1c.7,0,1.2,.5,1.2,1.1c0,.7,-.5,1.2,-1.2,1.2c-.6,0,-1.1,-.5,-1.1,-1.2Z" class="g3_45"/>
<path d="M387,537.9c0,-.6,.5,-1.1,1.2,-1.1c.6,0,1.1,.5,1.1,1.1c0,.6,-.5,1.1,-1.1,1.1c-.7,0,-1.2,-.5,-1.2,-1.1Z" class="g2_45"/>
<path d="M387,537.9c0,-.6,.5,-1.1,1.2,-1.1c.6,0,1.1,.5,1.1,1.1c0,.6,-.5,1.1,-1.1,1.1c-.7,0,-1.2,-.5,-1.2,-1.1Z" class="g3_45"/>
<path d="M409.9,518.3c0,-.6,.6,-1.1,1.2,-1.1c.6,0,1.1,.5,1.1,1.1c0,.7,-.5,1.2,-1.1,1.2c-.6,0,-1.2,-.5,-1.2,-1.2Z" class="g2_45"/>
<path d="M409.9,518.3c0,-.6,.6,-1.1,1.2,-1.1c.6,0,1.1,.5,1.1,1.1c0,.7,-.5,1.2,-1.1,1.2c-.6,0,-1.2,-.5,-1.2,-1.2Z" class="g3_45"/>
<path d="M204.8,683.2v6.1m45.9,-6.1v6.1m45.8,-6.1v6.1m45.8,-6.1v6.1m45.9,-6.1v6.1M434,683.2v6.1M155.9,661.8h6.2m-6.2,-24.4h6.2m-6.2,-24.5h6.2m-6.2,-24.4h6.2m-6.2,-24.4h6.2M518.4,686.3H872.9" class="g0_45"/>
<path fill-rule="evenodd" d="M867.9,686.3l-1.6,-2.5l6.5,2.5l-6.5,2.4Z" class="g1_45"/>
<path fill-rule="evenodd" d="M560.8,501.4l-2.4,1.6l2.4,-6.5l2.4,6.5Z" class="g1_45"/>
<path d="M557.7,539.6h6.2m-6.2,-24.4h6.2" class="g0_45"/>
<path d="M559.7,645.8c0,-.6,.5,-1.1,1.1,-1.1c.6,0,1.1,.5,1.1,1.1c0,.6,-.5,1.2,-1.1,1.2c-.6,0,-1.1,-.6,-1.1,-1.2Z" class="g2_45"/>
<path d="M559.7,645.8c0,-.6,.5,-1.1,1.1,-1.1c.6,0,1.1,.5,1.1,1.1c0,.6,-.5,1.2,-1.1,1.2c-.6,0,-1.1,-.6,-1.1,-1.2Z" class="g3_45"/>
<path d="M582.6,643.9c0,-.7,.5,-1.2,1.1,-1.2c.7,0,1.2,.5,1.2,1.2c0,.6,-.5,1.1,-1.2,1.1c-.6,0,-1.1,-.5,-1.1,-1.1Z" class="g2_45"/>
<path d="M582.6,643.9c0,-.7,.5,-1.2,1.1,-1.2c.7,0,1.2,.5,1.2,1.2c0,.6,-.5,1.1,-1.2,1.1c-.6,0,-1.1,-.5,-1.1,-1.1Z" class="g3_45"/>
<path d="M605.5,641.4c0,-.6,.5,-1.1,1.1,-1.1c.7,0,1.2,.5,1.2,1.1c0,.6,-.5,1.2,-1.2,1.2c-.6,0,-1.1,-.6,-1.1,-1.2Z" class="g2_45"/>
<path d="M605.5,641.4c0,-.6,.5,-1.1,1.1,-1.1c.7,0,1.2,.5,1.2,1.1c0,.6,-.5,1.2,-1.2,1.2c-.6,0,-1.1,-.6,-1.1,-1.2Z" class="g3_45"/>
<path d="M628.4,635.9c0,-.7,.5,-1.2,1.2,-1.2c.6,0,1.1,.5,1.1,1.2c0,.6,-.5,1.1,-1.1,1.1c-.7,0,-1.2,-.5,-1.2,-1.1Z" class="g2_45"/>
<path d="M628.4,635.9c0,-.7,.5,-1.2,1.2,-1.2c.6,0,1.1,.5,1.1,1.2c0,.6,-.5,1.1,-1.1,1.1c-.7,0,-1.2,-.5,-1.2,-1.1Z" class="g3_45"/>
<path d="M651.3,630.3c0,-.6,.5,-1.1,1.2,-1.1c.6,0,1.1,.5,1.1,1.1c0,.7,-.5,1.2,-1.1,1.2c-.7,0,-1.2,-.5,-1.2,-1.2Z" class="g2_45"/>
<path d="M651.3,630.3c0,-.6,.5,-1.1,1.2,-1.1c.6,0,1.1,.5,1.1,1.1c0,.7,-.5,1.2,-1.1,1.2c-.7,0,-1.2,-.5,-1.2,-1.2Z" class="g3_45"/>
<path d="M674.2,624.8c0,-.6,.6,-1.1,1.2,-1.1c.6,0,1.1,.5,1.1,1.1c0,.7,-.5,1.2,-1.1,1.2c-.6,0,-1.2,-.5,-1.2,-1.2Z" class="g2_45"/>
<path d="M674.2,624.8c0,-.6,.6,-1.1,1.2,-1.1c.6,0,1.1,.5,1.1,1.1c0,.7,-.5,1.2,-1.1,1.2c-.6,0,-1.2,-.5,-1.2,-1.2Z" class="g3_45"/>
<path d="M697.2,612.8c0,-.6,.5,-1.2,1.1,-1.2c.6,0,1.1,.6,1.1,1.2c0,.6,-.5,1.1,-1.1,1.1c-.6,0,-1.1,-.5,-1.1,-1.1Z" class="g2_45"/>
<path d="M697.2,612.8c0,-.6,.5,-1.2,1.1,-1.2c.6,0,1.1,.6,1.1,1.2c0,.6,-.5,1.1,-1.1,1.1c-.6,0,-1.1,-.5,-1.1,-1.1Z" class="g3_45"/>
<path d="M720.1,596.2c0,-.6,.5,-1.1,1.1,-1.1c.7,0,1.2,.5,1.2,1.1c0,.7,-.5,1.2,-1.2,1.2c-.6,0,-1.1,-.5,-1.1,-1.2Z" class="g2_45"/>
<path d="M720.1,596.2c0,-.6,.5,-1.1,1.1,-1.1c.7,0,1.2,.5,1.2,1.1c0,.7,-.5,1.2,-1.2,1.2c-.6,0,-1.1,-.5,-1.1,-1.2Z" class="g3_45"/>
<path d="M743,578c0,-.6,.5,-1.1,1.1,-1.1c.7,0,1.2,.5,1.2,1.1c0,.6,-.5,1.2,-1.2,1.2c-.6,0,-1.1,-.6,-1.1,-1.2Z" class="g2_45"/>
<path d="M743,578c0,-.6,.5,-1.1,1.1,-1.1c.7,0,1.2,.5,1.2,1.1c0,.6,-.5,1.2,-1.2,1.2c-.6,0,-1.1,-.6,-1.1,-1.2Z" class="g3_45"/>
<path d="M765.9,557.5c0,-.6,.5,-1.1,1.2,-1.1c.6,0,1.1,.5,1.1,1.1c0,.7,-.5,1.2,-1.1,1.2c-.7,0,-1.2,-.5,-1.2,-1.2Z" class="g2_45"/>
<path d="M765.9,557.5c0,-.6,.5,-1.1,1.2,-1.1c.6,0,1.1,.5,1.1,1.1c0,.7,-.5,1.2,-1.1,1.2c-.7,0,-1.2,-.5,-1.2,-1.2Z" class="g3_45"/>
<path d="M788.8,537.9c0,-.6,.5,-1.1,1.2,-1.1c.6,0,1.1,.5,1.1,1.1c0,.6,-.5,1.1,-1.1,1.1c-.7,0,-1.2,-.5,-1.2,-1.1Z" class="g2_45"/>
<path d="M788.8,537.9c0,-.6,.5,-1.1,1.2,-1.1c.6,0,1.1,.5,1.1,1.1c0,.6,-.5,1.1,-1.1,1.1c-.7,0,-1.2,-.5,-1.2,-1.1Z" class="g3_45"/>
<path d="M811.7,518.3c0,-.6,.6,-1.1,1.2,-1.1c.6,0,1.1,.5,1.1,1.1c0,.7,-.5,1.2,-1.1,1.2c-.6,0,-1.2,-.5,-1.2,-1.2Z" class="g2_45"/>
<path d="M811.7,518.3c0,-.6,.6,-1.1,1.2,-1.1c.6,0,1.1,.5,1.1,1.1c0,.7,-.5,1.2,-1.1,1.2c-.6,0,-1.2,-.5,-1.2,-1.2Z" class="g3_45"/>
<path d="M606.6,683.2v6.1m45.9,-6.1v6.1m45.8,-6.1v6.1m45.8,-6.1v6.1M790,683.2v6.1m45.8,-6.1v6.1M557.7,661.8h6.2m-6.2,-24.4h6.2m-6.2,-24.5h6.2m-6.2,-24.4h6.2m-6.2,-24.4h6.2" class="g0_45"/>
<path d="M561.4,651.6c33.5,-7,176.7,-40.1,261.6,-135.4" class="g4_45"/>
<path d="M159,704.6V495.3M560.8,709.2V499.9" class="g0_45"/>
<path d="M108.5,175.9H209.3v62.6H108.5Zm100.8,0H309.8v62.6H209.3Z" class="g5_45"/>
<path d="M209.3,238.1V176.2m0,81V238.9m0,36.6V257.2m0,36.7V275.5m0,36.7V293.9m0,36.6V312.2m0,36.7V330.5m0,36.7V348.9m0,36.6V367.2m0,36.7V385.5m0,36.7V403.9m0,36.6V422.2m0,39.4V440.5M108.1,175.9H209.3m0,0H310.2M108.1,238.5H209.3m0,0H310.2m-201.7,-.4V176.2m201.3,61.9V176.2m-201.3,81V238.9m201.3,18.3V238.9M108.5,275.5V257.2m201.3,18.3V257.2M108.5,293.9V275.5m201.3,18.4V275.5M108.5,312.2V293.9m201.3,18.3V293.9M108.5,330.5V312.2m201.3,18.3V312.2M108.5,348.9V330.5m201.3,18.4V330.5M108.5,367.2V348.9m201.3,18.3V348.9M108.5,385.5V367.2m201.3,18.3V367.2M108.5,403.9V385.5m201.3,18.4V385.5M108.5,422.2V403.9m201.3,18.3V403.9M108.5,440.5V422.2m201.3,18.3V422.2M108.5,461.6V440.5m201.3,21.1V440.5M108.1,461.9H209.3m0,0H310.2" class="g6_45"/>
<path d="M107.7,858.8H207v27.5H107.7Zm99.3,0h99.3v27.5H207Z" class="g5_45"/>
<path d="M207,885.9V859.2m0,48.8V886.7m0,41.2V908m0,39.8V927.9m0,39.7V947.8m0,39.7V967.6m-99.3,30.8V987.5m0,38.3v-16.5m-.4,16.8H207m-99.3,-16.8V998.4m99.3,27.7h99.7m-.4,-27.7V987.5m0,21.8V998.4m-99.3,0V987.5m0,21.8V998.4m0,27.4v-16.5m99.3,16.5v-16.5M107.7,908V886.7M306.3,908V886.7M107.7,927.9V908m198.6,19.9V908M107.7,947.8V927.9m198.6,19.9V927.9M107.7,967.6V947.8m198.6,19.8V947.8M107.7,987.5V967.6m198.6,19.9V967.6M107.3,858.8H207m-99.3,27.1V859.2m99.3,-.4h99.7m-.4,27.1V859.2m-199,27.1H207m0,0h99.7" class="g6_45"/>
</svg>