<?xml version="1.0" encoding="UTF-8" standalone="no"?>
<!DOCTYPE svg PUBLIC "-//W3C//DTD SVG 1.1//EN"
"http://www.w3.org/Graphics/SVG/1.1/DTD/svg11.dtd">
<svg viewBox="0 0 931 1096" version="1.1" xmlns="http://www.w3.org/2000/svg" xmlns:xlink="http://www.w3.org/1999/xlink">
<defs>
<clipPath id="c0_116"><path d="M73.3,472.5V97.3h660V472.5Z"/></clipPath>
<clipPath id="c1_116"><path d="M68.1,951.1V526.5H798.6V951.1Z"/></clipPath>
<style type="text/css"><![CDATA[
.g0_116{
fill: #FFF;
}
.g1_116{
fill: none;
stroke: #969698;
stroke-width: 0.702;
stroke-linecap: round;
stroke-linejoin: round;
}
.g2_116{
fill: #84AFD9;
}
.g3_116{
fill: none;
stroke: #7A7679;
stroke-width: 0.702;
}
.g4_116{
fill: #FFC34D;
}
.g5_116{
fill: #F87D4A;
}
.g6_116{
fill: #6BAA72;
}
.g7_116{
fill: #9F5A8B;
}
.g8_116{
fill: #50679C;
}
.g9_116{
fill: none;
stroke: #FFF;
stroke-width: 0.491;
}
.ga_116{
fill: none;
stroke: #FFF;
stroke-width: 0.491;
stroke-linecap: round;
stroke-linejoin: round;
}
.gb_116{
fill: #6F86C2;
}
.gc_116{
fill: #8BC58F;
}
.gd_116{
fill: none;
stroke: #6F626B;
stroke-width: 0.491;
}
.ge_116{
fill: none;
stroke: #1180BB;
stroke-width: 0.702;
}
]]></style>
</defs>
<image clip-path="url(#c0_116)" preserveAspectRatio="none" x="73" y="97" width="660" height="375" xlink:href="img/1.jpg"/>
<image clip-path="url(#c1_116)" preserveAspectRatio="none" x="68" y="526" width="731" height="426" xlink:href="img/2.jpg"/>
<path d="M587,979.3l-4.3,4l-4.4,-4h-7.8V1041H814.9V979.3Z" class="g0_116"/>
<path d="M587,979.3l-4.3,4l-4.4,-4h-7.8V1041H814.9V979.3H587Z" class="g1_116"/>
<path d="M662.3,1035.4h12.1v-12.2H662.3v12.2Z" class="g2_116"/>
<path d="M662.3,1035.4h12.1v-12.2H662.3v12.2Z" class="g3_116"/>
<path d="M576.4,1035.4h12.1v-12.2H576.4v12.2Z" class="g4_116"/>
<path d="M576.4,1016h12.1v-12.1H576.4V1016Z" class="g5_116"/>
<path d="M662.3,1016h12.1v-12.1H662.3V1016Z" class="g6_116"/>
<path d="M742.2,1035.4h12.1v-12.2H742.2v12.2Z" class="g7_116"/>
<path d="M742.2,1016h12.1v-12.1H742.2V1016Z" class="g8_116"/>
<path d="M576.4,1023.2h12.1v12.2H576.4Zm0,-19.3h12.1V1016H576.4Zm85.9,0h12.1V1016H662.3Zm79.9,19.3h12.1v12.2H742.2Zm0,-19.3h12.1V1016H742.2Z" class="g3_116"/>
<path d="M402,777.3c.2,-6.8,-4,-12.9,-5.7,-15c-1.8,-2.4,-2.3,-3.1,-2.3,-4.9c0,-1.9,-1.7,-2.1,-4.2,-1.9c-2.6,.2,-4,-.9,-6.4,-1.9c-1.2,-.5,-1.8,-.8,-2.6,-.8m5.3,10.1c4.2,1.4,8.9,6.6,8.6,11.8M227.8,743c-.3,1.6,-.6,3.8,-.9,5.9m15.4,-10.4c-1.2,1.1,-1.5,3.5,-2.5,4.7c-1.2,1.3,-3.1,3.1,-3.7,4.2c-.3,.8,-.5,2,-.5,2.9c-.1,.8,0,1.5,.4,2.3c.5,1,2.5,1.9,2.5,2.8m50.6,139.3c-11.8,-14.5,-10.3,-44.3,-10,-53c.2,-5.1,0,-8.4,-7.6,-14.9c-1.6,-1.4,-3.9,-4.4,-7.4,-6.8m29.5,67.9c-3.6,-5.8,-6.4,-15.4,-7.2,-20.3c-.9,-5.6,0,-16.9,1.1,-25.8c.9,-6.8,-3.9,-10.3,-6.6,-12.2c-2.6,-1.8,-10.7,-9.8,-11.8,-11.5c-1.1,-1.5,-3.9,-6.9,-9.1,-8.4M478.1,793.9c-3.7,8.2,-9,16.1,-16.8,22c-11.7,8.6,-12.9,.9,-13.1,-1.7c-.3,-2.6,-.6,-10.4,-9.4,-12.3M382,748.5c3,-.2,4.9,-.2,9,1.1c5.2,1.6,12.7,3.7,16.9,5.4c4.2,1.6,7,3,11,1.8c4,-1.1,7.7,-1.8,12.4,-.9c4.7,.9,10.8,3.7,15.2,3.7c4.5,0,8,-.4,16.2,-2.1c8.2,-1.6,7.2,-.7,11.7,-1.1c4.5,-.5,12.8,.7,11.9,6.1c-.9,5.7,-2.4,15.9,-6.2,26.4m-37.9,29.5c.7,1.8,1.3,3.4,2.2,4.7c2.1,3.3,3.9,4.1,6.1,5c2.8,1.1,5.4,1.8,7.7,3.2c2.4,1.4,6.4,6.1,6.1,10.1c-.2,3.8,-1.7,21.1,-13.9,32.3M382.7,742.5c2.5,-.5,4,-.5,6.7,-.2c3.5,.5,6,2.4,9.3,2.1c3.3,-.2,4.5,.7,5.7,1.2c1.1,.5,10,4.7,14.5,4.4c4.4,-.2,5.6,-1.1,11.7,-.9c6.1,.2,11.9,.9,19.2,2.1c7.3,1.2,15.5,1.4,19.9,.9c4.5,-.4,7.9,-2.2,10.8,-.4c4.2,2.6,5.6,3.3,7.7,5.8c2.1,2.6,3.1,5.2,3.1,7.5c0,2.4,3.2,11,3.2,14.1c0,2.7,2,7.4,5.3,9.5m-66.3,5.3c3.3,-4.1,5.4,-7.3,6.4,-10.1c1.4,-3.7,0,-9.6,-2.8,-10.3c-2.7,-.7,-5.3,-.9,-10.8,3.8" class="g9_116"/>
<path d="M245.6,761.5c.9,.4,1.1,1.2,1.6,1.4c.2,.1,.5,.1,.8,.5c.3,.4,.7,1.3,1,1.5c.4,.3,1.2,.9,1.5,1c.3,.2,.5,1,.5,1.2c.3,.2,.7,.4,1,.4c.3,0,1.1,.2,1.2,.3l.3,.4c0,0,.1,.1,.1,.2c1.5,0,2,-.4,2.6,-1.4c-.6,.4,-1.8,.9,-3,.2c-.4,-.2,-1.1,-.4,-1.5,-.9c-.3,-.3,-.2,-1,-.5,-1.2c-.6,-.6,-1.3,-.7,-1.6,-1.1c-.4,-.5,-.4,-1.4,-.6,-1.9c-.4,-1,-.4,-2.1,-.6,-2.8c-.6,-1.3,.7,-4.1,.7,-5.5c0,-.7,-1.3,-2.1,-2.3,-2.7c-1.1,-.5,-2.5,.3,-3.2,.5c-1.4,.3,-2.7,.2,-4.8,-.2c0,0,0,-.7,.4,-1.6" class="ga_116"/>
<path d="M179.1,697.7c-.2,.2,-.3,.4,-.5,.6c.2,-.2,.3,-.4,.5,-.6m-1.9,3.4c.1,-1,.7,-1.9,1.3,-2.7c-.6,.8,-1.2,1.7,-1.3,2.7m10.8,5.5c0,.4,-.1,.9,-.2,1.4m-10.6,-6.9c.1,-1,.7,-1.9,1.3,-2.7l.1,-.1c.2,-.2,.3,-.4,.5,-.6m8.9,8.9c.7,-6.1,-4,-11,-8.9,-8.9m-66.7,-73c-.1,-.3,-.2,-.5,-.2,-.7c.2,0,.6,.3,.6,.3m58.9,20.1c-3.8,-5,-14.6,-12.6,-18.1,-13.6c-3.5,-.9,-5.4,-4.9,-9,-6.6c-3.6,-1.8,-6.8,-.3,-11.4,-1.9c-1.4,-.5,-2.2,-2.1,-6.5,-2.3c-4.3,-.1,-4.3,-1,-7.6,-1.2c-3.2,-.3,-6.1,2.8,-7.7,6.9M188,706.6c1.7,-4.7,.8,-10.2,-1.2,-15.6c-.7,-1.9,-3.4,-7,-3.3,-9.6c0,-3.3,.6,-11.1,1,-13.6m6.9,43c-.1,-5.1,3.5,-7.2,3,-14c-.5,-6.9,-9.4,-16.3,-9.9,-29m79.8,-30.5c7.9,-2.4,19.3,-1.7,25.9,-7.6m-90.8,92.2c2.3,-2,4.8,-3.5,6.9,-5.8c1.2,-1.2,2.9,-4,2.9,-4c.6,-1.1,3.9,-5.4,6.4,-13.3c.7,-2.2,1.1,-8.5,1.6,-10.9c.7,-3.8,2.8,-5.3,7.2,-11.4c2.6,-3.6,5.9,-8.3,7.8,-13.7c3.5,-10,13.6,-17.2,20.8,-20.6m46,.6c-.9,.6,-2.7,1.8,-3.1,2.5c-.3,.4,-.6,1.2,-.7,1.7c-.4,1.2,.4,2.6,-.1,3.6c-.3,.4,-.7,1.7,-.9,2c-.6,1.3,-1.7,2.5,-4.1,2.3c-1.2,-.1,-2.5,-.3,-3.4,-.4c-1.2,0,-1.9,.1,-3.5,1c-.6,.4,-1.7,1.8,-2.6,2.5c-2.8,2.2,-3.9,2.5,-4.6,4.6c-.3,1,-1.1,3.2,-1,5.9c0,3.5,-.2,7.4,-1.4,8.7c-1,1,-1.4,1.7,-2.4,2.6c-1.3,1.3,-2.7,2.4,-3.4,3c-1.3,1.1,-2,1.5,-2.5,-.1c-.6,-1.2,-1,-2.1,-1.8,-1.9c-.5,.1,-.9,1,-1.3,1.5c-1.5,1.8,-5.2,5.2,-9.3,6.7c-4.4,1.6,-10.4,2,-13.9,4.5c-6.5,4.5,-10.1,9.5,-9.4,19.7M184.5,667.8c-.1,-2.7,-2.1,-7.3,-6.3,-13.4c-1.9,-2.9,-3.5,-6.2,-6.5,-10M381.4,735c4.3,-1,8.1,-.8,11,.5c4.5,2.1,10.1,4.9,16.4,5.4c6.3,.5,16.6,.7,22.5,.2c5.8,-.4,8.4,.3,11.2,1.4c2.8,1.2,10.6,3.1,15.3,2.9c4.6,-.3,11.7,.7,17.3,-.3c5.6,-.9,8,.3,10.8,3.1c2.8,2.8,7.5,7.2,9.3,9.8c1.9,2.6,2,5.6,2.2,7.7c.2,4,1.8,8,1.8,10.6c0,2.4,2.6,5.9,6.5,6.9M693.4,653c-16.2,1.7,-28.8,5.1,-38.5,12.1c-10.4,7.6,-22.1,21.8,-38.3,22.2c-16.2,.3,-14.1,1.4,-27.8,0c-13.7,-1.5,-16.1,-1.8,-22.1,-1.1c-3.2,.4,-11.5,6.9,-8.8,14.4c1.1,2.9,2.9,4.6,3.8,6.4c2.9,5.6,3.3,9.8,.5,13.8c-2.9,4.3,-7.1,7,-11,11.3M595,733c-.1,-3.3,-3.9,-7.1,-5.2,-8c-1.4,-.9,-.9,-5.4,-.4,-7.5c.4,-2.1,3.5,-1.6,7.9,.3c4.5,1.8,3.5,3,2.8,5.8c-.7,2.8,-.4,5.2,.5,9.4c.8,3.6,4.3,8.7,4,16.2M561.3,592.8c10,1.4,25.6,6.3,37.7,16.7c11.3,9.7,34.4,25.5,51.8,25.7c39.3,.6,40.6,-24.7,87.7,-16.2m-.5,8.1c-1.2,-.1,-2,-.3,-3.8,-.1m-11.4,17.1c3.4,-1.6,6.6,-2.5,11.1,-2.2M605.8,775.4c.2,1.2,.1,2.6,-.3,4.2m12.3,20.8c1.7,-1.6,3.4,-3,6.5,-3.7M613.2,782.2c-1.7,-.7,-3.6,-.7,-5.3,.1m-19.3,-46c-2,-7.7,-5,-18.5,-8.4,-23.2c-4.2,-5.9,-2.6,-7.7,1.7,-7.7c4.2,0,4.9,1.1,9.3,3c4.5,1.9,7,2.2,9.6,3.5c4,1.9,6.6,7.3,4.5,14.3c-.9,3,-.7,4,.7,9.1c2,7.3,6.9,7.6,3,18.1m42.5,-53.9c-5.6,1.1,-7.9,2.4,-11.5,4.5c-4.6,2.8,-10.3,6,-16.8,6c-6.6,0,-13.4,-2.1,-25.8,-6.4c-12.4,-4.2,-19.2,-11.4,-31.9,-10c-4.5,.5,-4.8,4.5,-1.6,8.4c.4,.5,3.4,2.1,3.7,2.6c2.5,3.4,2.9,8,3.1,11.7c.1,1.9,0,4.5,-2.4,6.8c-3.8,3.8,-7.5,7.3,-9.9,11.2m74.8,62c2,-1.9,3.2,-3.5,4.5,-5.7c1.6,-2.9,6.3,-2.3,6.7,-1c.8,2.1,1.7,1.3,2.1,2.9m32.8,3.2c-1.3,.2,-2.2,.5,-3.6,1.1m13.5,-1.6c.2,.3,.4,.6,.6,1c.8,1.7,.3,1.5,1,2.8c.7,1.3,1.5,2,1.6,2.9c.1,1,2.5,3.1,5.2,2.8c2.5,-.2,5.3,-.7,8.4,.4M682.1,826c-3.8,-.8,-8.8,-1.2,-12.1,-1.1m38.2,60.6c1,-7.1,1.9,-14.7,2,-15.9c.5,-4,.7,-8,-.9,-14.6c-1.7,-6.7,-5.9,-11.3,-8.9,-14.8c-2.8,-3.2,-3.5,-4,-8.2,-7.5m-2.4,48.7c1.9,-.1,3.5,-.1,5.2,-.8c3,-1.2,5.4,-1.7,8.2,-7.2c2.1,-4.3,2.6,-7.9,2.1,-10.8c-.8,-5,-2.9,-7.6,-8.3,-14.5c-2.4,-3.1,-6.5,-6,-8.1,-7.5c-2,-1.9,-6.6,-4.8,-11.4,-5.8c-6.8,-1.4,-15.2,-.2,-23.1,1.4M674,868.7c10.6,-1.4,15.3,-8.8,16.1,-11.3c1.4,-4.5,-3.5,-9.6,-8,-13.5c-1.4,-1.1,-5.3,-4.1,-11.1,-3c-5.9,1.1,-19,4.6,-23.8,4.2c-3.6,-.2,-4.8,-.1,-6.5,-.8m1.8,24.1c3.6,2.6,7.2,4.3,12.5,5.8m45.2,23.2c2,-.7,4,-1.7,5.4,-3.4M243.5,609.1c-18,1.1,-18.5,7.1,-28.3,9.1c-9.6,1.9,-18.7,2.3,-27.8,-2.9c-9.1,-5.2,-14.3,-4.8,-17.1,-1.3c-2.9,3.5,-10.4,8.4,-15.5,-2.5C153.2,608,150,603.1,148,600.8c-4.4,-4.6,-9.2,-5.3,-13.1,-4.1c-8.7,2.7,-13.3,4.9,-19.8,-.8c-5,-4.5,-9.3,-7.3,-13.4,-8.1m107.2,75c-.9,-.8,-1.4,-1.5,-1.7,-2.4c-.2,-.7,.2,-1.6,.2,-2.5c-.2,-.1,-.8,-.5,-1.1,-.1c-.3,-.6,-.4,-3.7,.1,-6.3c.6,-2.9,.3,-6.1,-.4,-7.2c-.3,-.5,-.5,-.9,-1.6,-1.8c-.5,-.5,-.8,-1.3,-1.4,-1.3c-.7,0,-1.2,.8,-1.5,1.2c-1.1,1,-.7,2.1,-.5,3.9c.1,1.9,.7,3.6,.1,5.6c-.7,1.9,-3.8,6.8,-6.4,11.1c-1.8,2.7,-1.5,5.6,-1.3,7.8c.2,2.3,1.3,10.8,2.8,14c1.5,3.3,5.1,1.8,5.4,-.9c.3,-2.7,.2,-3.3,1.3,-6.1c1.1,-2.8,6.6,-9,6.6,-11.4c0,-2.4,1.1,-2,-.6,-3.6Zm3.2,17.6c-.6,0,-2.7,1.7,-4.5,2.3c-1.6,.5,-.6,2.2,-.9,3.7c-.2,1.4,-.3,4,.4,5.9c.7,1.9,2.8,2.1,4.5,.5c1.6,-1.6,1.3,-5.2,3,-8.9c1,-2.2,-1,-3.6,-2.5,-3.5ZM312.9,803.7c-3.8,-.9,-8.1,-.6,-9,-5c-.7,-3.1,-.8,-4.2,-1,-6.5c-.1,-1.7,-3,-4.3,-5.6,-.6c-1.2,1.7,-3.9,2.7,-4.7,1c-.8,-1.7,-3.6,-4.9,-3.5,-8c.1,-3.1,-2.9,-5.5,-5,-8.3c-3.3,-4.6,-8,-3.8,-8.5,-1.5c-.4,1.7,-1.6,5,-1.2,7.7c.3,2.7,-2,8.1,-3,11.5c-1.1,3.4,-.6,9.5,2.7,14.7c2.3,3.6,19.3,15.9,29.5,15c10.2,-.9,13.5,-8.2,13.5,-10.5c.1,-2.3,-.4,-8.6,-4.2,-9.5Zm10.7,-12.4c-1.8,2.2,-6.1,4.1,-8.1,4.3c-2.8,.3,-6.8,.8,-7.9,-4.8c-1,-5.7,-1,-10,-4,-13.9c-2.2,-2.8,-4.6,-2.1,-7.7,-.2c-3.2,1.9,-6.2,-.5,-6.7,-4c-.4,-2.7,.1,-6.7,.8,-9.9m-1.9,27.4c.1,-1.5,.1,-2,-2.1,-2.9c-2.1,-.8,-7.1,-3.4,-8.6,0c-.2,.7,-.7,10.1,-.7,13.7c0,3.5,1,4.9,2.4,6.3c1.2,1.2,5.1,2.5,6.9,3c1.7,.4,3.7,.2,4.9,-.9c1.1,-1.1,1.1,-5.5,.1,-7.6c-.9,-2,-3.1,-10,-2.9,-11.6Zm18.6,20.1c-2.5,-.8,-4.7,-5.3,-5.2,-7.9c-.4,-2.5,-3.2,-2.2,-3.2,-.3c0,2,0,4.9,-2.6,6.9c-1.2,.8,-3.2,4.4,-2.5,6.2c.7,1.7,4.4,4.1,7.6,4.2c2.6,.1,6.8,-.9,7.5,-3.6c.6,-2.7,.1,-5,-1.6,-5.5ZM341.2,800c0,2,0,4.5,-.2,5.7c-.3,2.2,-2.2,5.6,-4.4,7.4c-2.1,1.9,-5.6,2.9,-7.2,.5c-1.5,-2.5,-1.8,-4.8,-2.3,-9.5c-.5,-4.1,1,-6.8,3.5,-9.2M280.1,762.7c-4.2,2.2,-5.8,6.5,-7.6,7.6c-1.9,1.3,-2.6,1.4,-4.2,0c-1.2,-1,-1.9,-3,-2.3,-5.4m-5.6,1.6c-.1,.8,-.2,1.4,.3,1.4c.7,0,.7,.3,.7,.8c.1,.4,-.2,.6,-.1,.9c.1,.7,1,.8,1.4,1.5c.3,.7,.4,1.3,.3,2.9c0,.9,-.6,2.2,-1.1,2.8m-7,26c7,-1.3,4.8,-12.1,12,-21.3c2.5,-3.2,3.6,-.7,2.5,2c-3.2,7.9,-1.1,20.8,1.4,25.2c2.8,4.8,7.8,9.2,17,15.2c8.1,5.3,6.8,10.3,6.6,14.8c-.3,6.6,-.7,16.3,1.7,23.8c2.1,6.3,8.6,10.4,12.7,12.3m-34.9,56.3c-3.3,-14.3,-.7,-29,.6,-35.8c1.2,-6.6,0,-14.8,-1.2,-21.2M315.8,611c8.1,-4.8,18.8,-8.8,34.5,-9.9m21.8,-24.9c-8,-.1,-8.8,3.3,-19.5,2.6c-10.6,-.6,-20.3,8.5,-26.6,9.7c-5.2,1,-7.5,-1,-10.7,-1.6m112.2,45.9c1.4,-1.3,2.1,-2.8,3.5,-5.2c.8,-1.3,2.4,-3,2.7,-5c.3,-1.9,-1,-4.4,-1,-7m25.8,-24c-.8,2.9,-2,5.9,-3.9,8.2c-3.2,3.8,-4.2,7.7,-4.2,9.1c0,1.4,.7,1.4,-.4,4.6c-.6,1.9,-.9,4.3,-.2,6.5m38,-6.4c.5,1.4,1.8,2.3,5.1,2.7c5.6,.7,13.4,0,22.5,-3.9c9.1,-3.9,20.5,-5.9,27.2,-5.6c6.6,.4,6.2,2.8,6.2,5.6c0,2.8,-7.8,8.8,-7.8,13.7c0,4.9,2.3,8.3,4.3,10.2c3.5,3.5,7.9,6.6,-10.6,8.8c-32.5,3.9,-65,1.1,-59.2,25M518,696.2c-6.7,.9,-11,1,-13.3,-.4c-5.6,-3.5,-10.3,.6,-11,5.8c-.8,5.7,-1.4,12.3,-8.3,14.5c-3.8,1.2,-3.7,-1.2,-6.8,-1.2c-3,0,-7.3,-.9,-10.3,-1.9c-3,-.9,-6.8,-.2,-12.4,3.8c-5.6,4,-12.4,.9,-13.8,-.5c-1.4,-1.4,-6.1,-4.9,-8.2,-7c-2.1,-2.1,-6.8,-2.4,-13.2,.2c-6.3,2.6,-14.2,3.5,-19.2,3.5c-.2,0,-.3,0,-.5,0c-1.9,.1,-3.6,.2,-5.3,.6m96.4,18.2c1.4,1,2.6,2.7,3.4,4.2c1.2,2.1,4.3,5.2,7.5,7c4.2,2.4,6.3,7.2,8.5,11M486.3,682c1,2.2,2,5.9,3.1,8.6c.6,1.7,3.4,4.7,8.4,-.8c6.5,-6.9,7.5,-9.9,9.1,-15m-76.6,1.6c.4,-2.5,.6,-4.9,1.4,-6.3c1.6,-3.1,5.1,-3.6,10,-1.5c8,3.5,10.1,6.4,12.6,9.5c1.8,2.4,0,5.2,.2,8.6M402.9,696c2.8,-4.9,8.1,-7.2,11.9,-7.8M402.5,677c-.3,3.5,-2.1,7.9,-5.5,10.6m87.4,148.8c-.2,-6.6,3.3,-16,4.7,-21.7c1.7,-6.2,.6,-8.1,1,-11.1c.3,-2.7,1.2,-4.6,3.7,-6.4M511,820.8c.8,3.5,.7,5.4,.7,6.8c-.2,2.9,-1.3,4.1,-2.7,6.5c-.7,1.2,-2.5,3,-2.6,8.7c0,1.2,.5,2.8,.7,3.9c.1,.9,-.2,2,.2,3.8M483.8,696.3c1.9,-.9,2.3,-2.1,4.2,-1.2c1.9,.9,1.6,1.8,1.1,3.6c-.4,1.9,-.4,6.8,-2.3,8.7c-1.1,1.1,-1.9,1.1,-2.8,1.3m62.5,18c2.9,-5.4,6.4,-9.1,7.8,-13.9c1.9,-6.6,-3.9,-12.6,-3.4,-21c.3,-6.7,2.8,-16.1,7,-24.6c4.2,-8.4,-5.6,-17.8,-17,-12.3c-3.5,1.7,-11.4,6,-17.5,6.7c-15,1.6,-36.3,-6.8,-38.8,8.3M276.4,935.2c.4,.5,.8,.9,1.2,1.3m-2.1,-2.3c-.6,-.9,-1.1,-1.7,-1.4,-2.6m32,-158.2c1.8,1.3,3.3,2.5,3.7,3.2c.3,.7,.1,1.2,-.5,1.6c-1,.8,-.3,.9,.5,2.6c.9,1.5,3.3,5.5,3.4,9.2M264.4,766.8c.8,3.8,1.4,4.8,.8,6c-.9,1.8,-.9,4.2,-3,6.9M322.7,623.6c2.8,-3.1,5.6,-4.5,9.4,-5.1m333.7,76.7c1.2,-.4,1.9,-.9,3.1,-1.5M616.1,674.8c20.6,0,30.2,-18.1,26,-27.6c-1.3,-3,-4.4,-6.1,-9.6,-7.7c-12.7,-4.1,-17.4,-1.7,-23.9,-1.2c-4.7,.4,-9.5,-.6,-11.2,-.2c-3.6,.8,-6.1,4.4,-8.5,8.6c-1,1.8,-.9,7.4,-2.1,10.1c-2.8,6.6,-10.1,15,-15.4,15.5c-3.1,.2,-7,.6,-8.2,3.7c-1,2.3,2.3,7.5,9.8,5.2c7.5,-2.4,17.6,-8,25.1,-8.2c7.5,-.3,14.5,1.8,18,1.8ZM437,696.6c-2.3,1.2,-5.6,1.8,-7,1.5c-1.7,-.3,-6.5,-.6,-9.8,2.9c-3.4,3.4,-8.5,3.5,-13.4,3.1c-2.9,-.2,-4.4,-.1,-7,.1m48.8,158.5c5.5,-8.4,5.6,-14.5,5.4,-17.3c-.2,-3.3,-1.6,-4.2,-5.1,-8.5c-2.9,-3.4,-6.8,-7.6,-9.4,-12m60.8,16.5c1,2.4,1.1,2.8,1.9,3.9c.7,1,1.5,4.2,2,7.4m67.5,-81.8c.6,-.7,1,-1.2,1.7,-1.4c.6,-.1,1.4,.1,2.3,.4M703.6,812c1.2,-.1,2.4,-.3,3.5,-.6M616.6,773.1c-.2,.8,-.6,1.5,-1.1,2.1c-.7,.9,-.9,2.8,-1.1,5.1M289.3,674.1c.2,0,.4,0,.6,0m-5.7,.8c1.7,-.5,3.2,-.8,4.7,-.8m330,111.1c-.2,-.5,-.3,-1.1,-.4,-2.1c-.3,-1.8,-1.2,-5.1,-1.3,-6.4c-.1,-.9,-.1,-1.5,.3,-2.2m7.8,-10.1c-.8,-1.6,-.9,-4.3,-1,-6.8c-.1,-3.1,-.4,-5.9,.7,-6.6c.8,-.4,1.8,-.1,2.4,.5c.9,.9,1.9,1.8,2.8,2.6M694.9,653c1.2,-.2,2.2,-.3,3.1,-.4M475.2,683.4c.4,1.2,.8,1.3,.1,4.1c-.2,1.1,-.6,4.7,-.5,6.1c.2,1.2,.5,2.2,.8,3.4m-44.4,80.1c.9,-.9,1.8,-1.3,2.5,-1c.4,.2,.8,.6,1.1,1.1c1.3,2,.5,1.7,.6,4.1c0,1.1,.9,3.3,.8,4.1c-.2,.9,-.9,1.8,-2.1,2.2m5,-113.7c-.9,-.2,-1.9,-.4,-2.6,-.3c-1,0,-1.9,.8,-2.8,1.6" class="g9_116"/>
<path d="M328.7,626.4l-.2,.6c.3,0,.4,.2,.8,.1c.2,0,0,-.4,0,-.4c-.2,-.1,-.4,-.2,-.6,-.3Z" class="gb_116"/>
<path d="M370.4,604.4c0,.1,-.1,.3,-.1,.4c-.3,0,-.1,.1,-.2,.3c.8,-.1,1.3,-.2,2.1,0c-.1,-.1,-.1,-.4,-.3,-.5c-.2,-.2,-1.1,-.3,-1.5,-.2Z" class="gc_116"/>
<path d="M105.3,737.6c0,.1,0,.4,0,.5c0,0,-.6,.3,-.6,.3c.3,2.2,.6,1.7,2,.9c-.2,-.5,-.2,-.6,-.3,-.9c-.4,-.9,-.3,-.4,-1.1,-.8Z" class="gb_116"/>
<path d="M102.7,735.2l.2,.3c-.1,-.2,.1,-.3,-.2,-.3Z" class="gb_116"/>
<path d="M103.6,735c.2,.2,.4,.6,.5,.9c0,0,.3,.1,.1,-.1c.4,.2,.3,-.7,0,-.8c-.1,0,-.4,.1,-.6,0Z" class="gb_116"/>
<path d="M100.6,732.9c.3,.1,-.3,.1,-.3,.1c0,.1,0,.4,0,.5c.3,.1,.4,.2,.6,.3h.3c0,0,-.2,-.3,-.2,-.3c0,-.1,.1,-.4,0,-.5c0,-.1,-.4,-.1,-.4,-.1Z" class="gb_116"/>
<path d="M97.1,731.8c-.5,0,-.3,1.1,.4,1.1c.4,0,.4,-1.1,-.4,-1.1Z" class="gb_116"/>
<path d="M97.1,731.8c-.5,0,-.3,1.1,.4,1.1c.4,0,.4,-1.1,-.4,-1.1Z" class="gb_116"/>
<path d="M100.6,732.9c.3,.1,-.3,.1,-.3,.1c0,.1,0,.4,0,.5c.3,.1,.4,.2,.6,.3h.3c0,0,-.2,-.3,-.2,-.3c0,-.1,.1,-.4,0,-.5c0,-.1,-.4,-.1,-.4,-.1Z" class="gb_116"/>
<path d="M103.6,735c.2,.2,.4,.6,.5,.9c0,0,.3,.1,.1,-.1c.4,.2,.3,-.7,0,-.8c-.1,0,-.4,.1,-.6,0Z" class="gb_116"/>
<path d="M102.7,735.2l.2,.3c-.1,-.2,.1,-.3,-.2,-.3Z" class="gb_116"/>
<path d="M105.3,737.6c0,.1,0,.4,0,.5c0,0,-.6,.3,-.6,.3c.3,2.2,.6,1.7,2,.9c-.2,-.5,-.2,-.6,-.3,-.9c-.4,-.9,-.3,-.4,-1.1,-.8Z" class="gb_116"/>
<path d="M68.1,739.5H798.6M68.1,812.6H798.6M68.1,714.2H798.6M68.1,763.9H798.6M68.1,837.8H798.6M68.1,863.1H798.6M68.1,892.6H798.6" class="gd_116"/>
<path d="M68.1,788.3H798.6" class="ge_116"/>
<path d="M68.1,923.1H798.6m0,-238.6H68.1M798.6,551l-730.5,.2M798.6,526.5l-730.5,.1m730.5,60.3L68.1,587m730.5,35.6l-730.5,.1M798.6,654H68.1" class="gd_116"/>
</svg>