<?xml version="1.0" encoding="UTF-8" standalone="no"?>
<!DOCTYPE svg PUBLIC "-//W3C//DTD SVG 1.1//EN"
"http://www.w3.org/Graphics/SVG/1.1/DTD/svg11.dtd">
<svg viewBox="0 0 907 1045" version="1.1" xmlns="http://www.w3.org/2000/svg" xmlns:xlink="http://www.w3.org/1999/xlink">
<defs>
<clipPath id="c0_255"><path d="M-2.6,1047.7V-2.6H910.2V1047.7Z"/></clipPath>
<style type="text/css"><![CDATA[
.g0_255{
fill: none;
stroke: #3D3D3D;
stroke-width: 1.527;
stroke-linecap: butt;
stroke-linejoin: miter;
stroke-miterlimit: 4;
}
.g1_255{
}
.g2_255{
fill: none;
stroke: #000000;
stroke-width: 1.527;
stroke-linecap: butt;
stroke-linejoin: miter;
stroke-miterlimit: 4;
}
.g3_255{
fill: none;
stroke: #FFFFFF;
stroke-width: 1.909;
stroke-linecap: butt;
stroke-linejoin: miter;
}
.g4_255{
fill: none;
stroke: #000000;
stroke-width: 0.381;
stroke-linecap: butt;
stroke-linejoin: miter;
}
]]></style>
</defs>
<path d="M466.3,819.8c-11.9,0,-24.3,.9,-36.1,-.1c.2,-2.3,2.4,-3.7,2.3,-6c-4.4,1.5,-7.7,5.6,-11.9,8.1c8.5,-4.4,15.3,-1.1,21,4.3M469.8,443.9c-5.6,1.7,-9.5,5,-15.5,6.1c-4.4,.7,-11.3,.6,-15.8,.2c-7.1,-.7,-14.2,-5.2,-20.5,-7.7c-1.6,3.7,2,8.3,3.1,11.8c-2.4,-3.7,-2.7,-10.6,-6.5,-12.9c4.7,-2.2,10.3,-3.7,15.9,-3.7" class="g0_255"/>
<path d="M151.2,149.2c5.1,0,9.2,-4,9.2,-8.9c0,-4.9,-4.1,-8.9,-9.2,-8.9c-5.1,0,-9.2,4,-9.2,8.9c0,4.9,4.1,8.9,9.2,8.9Z" class="g1_255"/>
<path d="M151.2,149.2c5.1,0,9.2,-4,9.2,-8.9c0,-4.9,-4.1,-8.9,-9.2,-8.9c-5.1,0,-9.2,4,-9.2,8.9c0,4.9,4.1,8.9,9.2,8.9Z" class="g2_255"/>
<g clip-path="url(#c0_255)">
<path d="M-4.5,13.7H-27.4m939.5,0H935M-4.5,1031.2H-27.4m939.5,0H935M13.7,-4.5V-27.4m0,1077v22.9m880,-1077V-27.4m0,1077v22.9" class="g3_255"/>
<path d="M-4.5,13.7H-27.4m939.5,0H935M-4.5,1031.2H-27.4m939.5,0H935M13.7,-4.5V-27.4m0,1077v22.9m880,-1077V-27.4m0,1077v22.9" class="g4_255"/>
</g>
</svg>