<?xml version="1.0" encoding="UTF-8" standalone="no"?>
<!DOCTYPE svg PUBLIC "-//W3C//DTD SVG 1.1//EN"
"http://www.w3.org/Graphics/SVG/1.1/DTD/svg11.dtd">
<svg viewBox="0 0 770 1017" version="1.1" xmlns="http://www.w3.org/2000/svg" xmlns:xlink="http://www.w3.org/1999/xlink">
<defs>
<style type="text/css"><![CDATA[
.g0_491{
fill: none;
stroke: #000000;
stroke-width: 0.618;
stroke-linecap: butt;
stroke-linejoin: miter;
}
.g1_491{
stroke: #000000;
stroke-width: 1.488;
stroke-linecap: butt;
stroke-linejoin: miter;
}
.g2_491{
fill: none;
stroke: #000000;
stroke-width: 2.976;
stroke-linecap: butt;
stroke-linejoin: miter;
}
.g3_491{
fill: none;
stroke: #000000;
stroke-width: 2.976;
stroke-linecap: butt;
stroke-linejoin: bevel;
}
.g4_491{
fill: none;
stroke: #000000;
stroke-width: 0.884;
stroke-linecap: butt;
stroke-linejoin: bevel;
}
.g5_491{
fill: none;
stroke: #000000;
stroke-width: 0.884;
stroke-linecap: butt;
stroke-linejoin: miter;
}
.g6_491{
stroke: #000000;
stroke-width: 1.769;
stroke-linecap: butt;
stroke-linejoin: miter;
}
.g7_491{
fill: none;
stroke: #000000;
stroke-width: 1.769;
stroke-linecap: butt;
stroke-linejoin: miter;
}
.g8_491{
fill: none;
stroke: #000000;
stroke-width: 1.769;
stroke-linecap: butt;
stroke-linejoin: bevel;
}
]]></style>
</defs>
<path d="M74.2,69.2H713.5" class="g0_491"/>
<path d="M202.5,110.8c0,2.5,-2,4.5,-4.5,4.5c-2.4,0,-4.4,-2,-4.4,-4.5c0,-2.4,2,-4.4,4.4,-4.4c2.5,0,4.5,2,4.5,4.4" class="g1_491"/>
<path d="M150.4,170.4c0,2.4,-2,4.4,-4.4,4.4c-2.5,0,-4.5,-2,-4.5,-4.4c0,-2.5,2,-4.5,4.5,-4.5c2.4,0,4.4,2,4.4,4.5" class="g1_491"/>
<path d="M202.5,170.4c0,2.4,-2,4.4,-4.5,4.4c-2.4,0,-4.4,-2,-4.4,-4.4c0,-2.5,2,-4.5,4.4,-4.5c2.5,0,4.5,2,4.5,4.5" class="g1_491"/>
<path d="M247.1,170.4c0,2.4,-2,4.4,-4.4,4.4c-2.5,0,-4.5,-2,-4.5,-4.4c0,-2.5,2,-4.5,4.5,-4.5c2.4,0,4.4,2,4.4,4.5" class="g1_491"/>
<path d="M306.6,170.4c0,2.4,-2,4.4,-4.4,4.4c-2.5,0,-4.5,-2,-4.5,-4.4c0,-2.5,2,-4.5,4.5,-4.5c2.4,0,4.4,2,4.4,4.5" class="g1_491"/>
<path d="M202.5,222.5c0,2.4,-2,4.4,-4.5,4.4c-2.4,0,-4.4,-2,-4.4,-4.4c0,-2.5,2,-4.5,4.4,-4.5c2.5,0,4.5,2,4.5,4.5" class="g1_491"/>
<path d="M105.8,222.5c0,2.4,-2,4.4,-4.5,4.4c-2.4,0,-4.4,-2,-4.4,-4.4c0,-2.5,2,-4.5,4.4,-4.5c2.5,0,4.5,2,4.5,4.5" class="g1_491"/>
<path d="M269.4,222.5c0,2.4,-2,4.4,-4.4,4.4c-2.5,0,-4.5,-2,-4.5,-4.4c0,-2.5,2,-4.5,4.5,-4.5c2.4,0,4.4,2,4.4,4.5" class="g1_491"/>
<path d="M202.5,281.9c0,2.5,-2,4.5,-4.5,4.5c-2.4,0,-4.4,-2,-4.4,-4.5c0,-2.4,2,-4.4,4.4,-4.4c2.5,0,4.5,2,4.5,4.4" class="g1_491"/>
<path d="M343.9,222.5c0,2.4,-2,4.4,-4.5,4.4c-2.5,0,-4.5,-2,-4.5,-4.4c0,-2.5,2,-4.5,4.5,-4.5c2.5,0,4.5,2,4.5,4.5" class="g1_491"/>
<path d="M198,110.8v59.6" class="g2_491"/>
<path d="M204,146.6l-6,23.8l-5.9,-23.8" class="g3_491"/>
<path d="M144.5,168.9l-44.7,52" class="g2_491"/>
<path d="M119.8,206.7l-20,14.2l11,-21.9" class="g3_491"/>
<path d="M146,170.4l52,52" class="g2_491"/>
<path d="M185.4,201.4l12.6,21L177,209.8" class="g3_491"/>
<path d="M98.3,222.4l96.8,59.5" class="g2_491"/>
<path d="M177.9,264.4l17.2,17.5l-23.4,-7.4" class="g3_491"/>
<path d="M198,177.8v52.1" class="g2_491"/>
<path d="M204,206.1l-6,23.8l-5.9,-23.8" class="g3_491"/>
<path d="M248.6,168.9l-44.6,52" class="g2_491"/>
<path d="M224,206.7l-20,14.2L215,199" class="g3_491"/>
<path d="M241.2,170.4l22.3,52" class="g2_491"/>
<path d="M259.6,198.2l3.9,24.2L248.7,202.9" class="g3_491"/>
<path d="M302.2,170.4l-37.2,52" class="g2_491"/>
<path d="M283.7,206.5L265,222.4l9,-22.8" class="g3_491"/>
<path d="M259,223.9l-66.9,59.5" class="g2_491"/>
<path d="M213.8,272.1l-21.7,11.3l13.8,-20.2m14.9,18l-24.3,3.7l19.7,-14.7" class="g3_491"/>
<path d="M196.5,284.9L337.9,225.4M198,229.9v52" class="g2_491"/>
<path d="M204,258.1l-6,23.8l-5.9,-23.8" class="g3_491"/>
<path d="M398.9,312.4v-210" class="g0_491"/>
<path d="M709,190.8v14.5l-6.9,-12.8" class="g4_491"/>
<path d="M492.3,209.8C503,158.2,548.5,121.3,601.1,121.3c51,0,95.4,34.6,107.9,84" class="g5_491"/>
<path d="M705.3,190.8l-.7,14.5l-6.3,-13.1" class="g4_491"/>
<path d="M585.1,209.8c3.8,-30.4,29.5,-53.1,60.1,-53.1c28.9,0,53.7,20.3,59.4,48.6" class="g5_491"/>
<path d="M695.3,225.5l9.3,-11.3l-2.9,14.3" class="g4_491"/>
<path d="M647.1,209.8c3.8,13.1,15.9,22.1,29.5,22.1c12,0,22.9,-6.9,28,-17.7" class="g5_491"/>
<path d="M572.2,226l8.5,-11.8l-2,14.4" class="g4_491"/>
<path d="M461.3,209.8c8.4,26.3,32.9,44.2,60.5,44.2c25.9,0,49.3,-15.8,58.9,-39.8" class="g5_491"/>
<path d="M577.8,226.8l7.3,-12.6l-.5,14.6" class="g4_491"/>
<path d="M430.3,209.8c8.5,36.2,40.8,61.9,78,61.9c35.6,0,66.8,-23.4,76.8,-57.5" class="g5_491"/>
<path d="M637.9,228l4.7,-13.8l2.4,14.4" class="g4_491"/>
<path d="M430.3,209.8c2.5,56.8,49.4,101.7,106.3,101.7c55.3,0,101.3,-42.3,106,-97.3" class="g5_491"/>
<path d="M433,209.8c0,1.4,-1.2,2.6,-2.6,2.6c-1.5,0,-2.7,-1.2,-2.7,-2.6c0,-1.5,1.2,-2.7,2.7,-2.7c1.4,0,2.6,1.2,2.6,2.7" class="g6_491"/>
<path d="M463.9,209.8c0,1.4,-1.1,2.6,-2.6,2.6c-1.5,0,-2.7,-1.2,-2.7,-2.6c0,-1.5,1.2,-2.7,2.7,-2.7c1.5,0,2.6,1.2,2.6,2.7" class="g6_491"/>
<path d="M494.9,209.8c0,1.4,-1.2,2.6,-2.6,2.6c-1.5,0,-2.7,-1.2,-2.7,-2.6c0,-1.5,1.2,-2.7,2.7,-2.7c1.4,0,2.6,1.2,2.6,2.7" class="g6_491"/>
<path d="M525.9,209.8c0,1.4,-1.2,2.6,-2.7,2.6c-1.5,0,-2.6,-1.2,-2.6,-2.6c0,-1.5,1.1,-2.7,2.6,-2.7c1.5,0,2.7,1.2,2.7,2.7" class="g6_491"/>
<path d="M556.8,209.8c0,1.4,-1.1,2.6,-2.6,2.6c-1.5,0,-2.7,-1.2,-2.7,-2.6c0,-1.5,1.2,-2.7,2.7,-2.7c1.5,0,2.6,1.2,2.6,2.7" class="g6_491"/>
<path d="M587.8,209.8c0,1.4,-1.2,2.6,-2.7,2.6c-1.4,0,-2.6,-1.2,-2.6,-2.6c0,-1.5,1.2,-2.7,2.6,-2.7c1.5,0,2.7,1.2,2.7,2.7" class="g6_491"/>
<path d="M618.8,209.8c0,1.4,-1.2,2.6,-2.7,2.6c-1.5,0,-2.6,-1.2,-2.6,-2.6c0,-1.5,1.1,-2.7,2.6,-2.7c1.5,0,2.7,1.2,2.7,2.7" class="g6_491"/>
<path d="M680.7,209.8c0,1.4,-1.2,2.6,-2.7,2.6c-1.4,0,-2.6,-1.2,-2.6,-2.6c0,-1.5,1.2,-2.7,2.6,-2.7c1.5,0,2.7,1.2,2.7,2.7" class="g6_491"/>
<path d="M649.7,209.8c0,1.4,-1.2,2.6,-2.6,2.6c-1.5,0,-2.7,-1.2,-2.7,-2.6c0,-1.5,1.2,-2.7,2.7,-2.7c1.4,0,2.6,1.2,2.6,2.7" class="g6_491"/>
<path d="M711.6,209.8c0,1.4,-1.2,2.6,-2.6,2.6c-1.5,0,-2.7,-1.2,-2.7,-2.6c0,-1.5,1.2,-2.7,2.7,-2.7c1.4,0,2.6,1.2,2.6,2.7" class="g6_491"/>
<path d="M461.3,209.8h26.5" class="g7_491"/>
<path d="M473.7,206.2l14.1,3.6l-14.1,3.5" class="g8_491"/>
<path d="M527.6,209.8h26.6" class="g7_491"/>
<path d="M540,206.2l14.2,3.6L540,213.3" class="g8_491"/>
<path d="M558.6,209.8h26.5" class="g7_491"/>
<path d="M571,206.2l14.1,3.6L571,213.3" class="g8_491"/>
<path d="M620.5,209.8h26.6" class="g7_491"/>
<path d="M632.9,206.2l14.2,3.6l-14.2,3.5" class="g8_491"/>
<path d="M682.4,209.8H709" class="g7_491"/>
<path d="M694.8,206.2l14.2,3.6l-14.2,3.5" class="g8_491"/>
<path d="M83.4,338.7h621" class="g0_491"/>
</svg>