<?xml version="1.0" encoding="UTF-8" standalone="no"?>
<!DOCTYPE svg PUBLIC "-//W3C//DTD SVG 1.1//EN"
"http://www.w3.org/Graphics/SVG/1.1/DTD/svg11.dtd">
<svg viewBox="0 0 907 1045" version="1.1" xmlns="http://www.w3.org/2000/svg" xmlns:xlink="http://www.w3.org/1999/xlink">
<defs>
<clipPath id="c0_22"><path d="M93.6,639.1v-249H404.5v249Z"/></clipPath>
<clipPath id="c1_22"><path d="M524.1,831L465.2,805.4l34.5,-79.2l58.9,25.6L524.1,831Z"/></clipPath>
<style type="text/css"><![CDATA[
.g0_22{
fill: #FFFFFF;
}
.g1_22{
fill: none;
stroke: #B0B0B0;
stroke-width: 0.66;
stroke-linecap: butt;
stroke-linejoin: miter;
stroke-miterlimit: 4;
}
.g2_22{
fill: none;
stroke: #B0B0B0;
stroke-width: 0.33;
stroke-linecap: butt;
stroke-linejoin: miter;
stroke-miterlimit: 4;
}
.g3_22{
fill: none;
stroke: #B0B0B0;
stroke-width: 0.165;
stroke-linecap: butt;
stroke-linejoin: miter;
stroke-miterlimit: 4;
}
.g4_22{
fill: none;
stroke: #B0B0B0;
stroke-width: 0.33;
stroke-linecap: butt;
stroke-linejoin: miter;
stroke-miterlimit: 44;
}
.g5_22{
fill: none;
stroke: #B0B0B0;
stroke-width: 0.165;
stroke-linecap: butt;
stroke-linejoin: miter;
stroke-miterlimit: 44;
}
.g6_22{
fill: none;
stroke: #3A3A3A;
stroke-width: 0.432;
stroke-linecap: butt;
stroke-linejoin: miter;
stroke-miterlimit: 4;
}
.g7_22{
fill: #686868;
}
.g8_22{
fill: none;
stroke: #000000;
stroke-width: 0.216;
stroke-linecap: butt;
stroke-linejoin: miter;
stroke-miterlimit: 4;
}
.g9_22{
fill: none;
stroke: #484848;
stroke-width: 0.659;
stroke-linecap: butt;
stroke-linejoin: miter;
stroke-miterlimit: 4;
}
.ga_22{
fill: none;
stroke: #636363;
stroke-width: 0.659;
stroke-linecap: butt;
stroke-linejoin: miter;
stroke-miterlimit: 4;
}
.gb_22{
fill: none;
stroke: #FFFFFF;
stroke-width: 1.909;
stroke-linecap: butt;
stroke-linejoin: miter;
}
.gc_22{
fill: none;
stroke: #000000;
stroke-width: 0.381;
stroke-linecap: butt;
stroke-linejoin: miter;
}
]]></style>
</defs>
<image clip-path="url(#c0_22)" preserveAspectRatio="none" x="93" y="390" width="312" height="249" xlink:href="img/1.jpg"/>
<path d="M93,400l8,218.1L383.7,607.8L375.8,389.7L93,400Z" class="g0_22"/>
<path d="M93,400l8,218.1L383.7,607.8L375.8,389.7L93,400Z" class="g1_22"/>
<path d="M93.3,416L375.8,405.7M95.3,460.4L377.9,450.1M96.6,505.7L379.1,495.4M98.6,550.1L381.2,539.8m-281,55L382.8,584.5" class="g2_22"/>
<path d="M92.5,404.8L375,394.5m-281,16L376.5,400.2m-283,21.5L376.1,411.4M93.7,427.3L376.3,417M93.9,432.9L376.5,422.6M94.1,438.5L376.7,428.2M94.5,438.4L377.1,428.1M94.8,444L377.3,433.7M95,449.6L377.5,439.3M95.2,455.2L377.7,444.9M95.6,466.8L378.1,456.5M95.8,472.4L378.3,462.1M96,477.9L378.5,467.6M96.2,483.5L378.7,473.2M96.6,483.5L379.2,473.2M96.8,489.1L379.4,478.8M97,494.7L379.6,484.4M97.2,500.3L379.8,490M97.6,511.1L380.2,500.7M97.8,516.6L380.4,506.3M98,522.2L380.6,511.9M98.2,527.8L380.8,517.5M98.7,527.8L381.2,517.5M98.9,533.4L381.4,523.1M99.1,539L381.6,528.7M99.3,544.6L381.8,534.2m-283.4,22L381,545.9M98.6,561.8L381.2,551.5M98.8,567.4L381.4,557.1M99,573L381.6,562.7M99.5,572.9L382,562.6M99.7,578.5L382.2,568.2M99.9,584.1L382.4,573.8M100.1,589.7L382.6,579.4M100.5,601.2L383,590.9M100.7,606.8L383.2,596.5M100.9,612.4L383.4,602.1" class="g3_22"/>
<path d="M100.9,399.4l7.9,218.3" class="g4_22"/>
<path d="M95.4,400.5l8,218.3m3.1,-219.6l8,218.3M112.2,399.9l7.9,218.2M118.2,399l7.9,218.3M123.3,398.6l8,218.3M128.9,398.4l8,218.3M134.5,398.2l8,218.3M140.5,398l8,218.3m3.6,-218.7L160,615.8" class="g5_22"/>
<path d="M146.6,398.6l7.9,218.3" class="g4_22"/>
<path d="M157.7,397.3l8,218.3M163.3,398l8,218.3m-2,-219.1l8,218.2M174.5,396.7l8,218.3M180.1,396.5L188,614.8M185.7,396.3l7.9,218.3" class="g5_22"/>
<path d="M191.7,396.1l8,218.3" class="g4_22"/>
<path d="M203.2,395.7l8,218.3M197.7,396.7l8,218.3m3.2,-219.5l8,218.3M214.5,396.1l8,218.3m-2,-219.1l8,218.3M225.7,394.9l7.9,218.2M231.3,394.7l7.9,218.2" class="g5_22"/>
<path d="M236.9,394.5l7.9,218.2" class="g4_22"/>
<path d="M242.9,394.2l7.9,218.3m3.4,-218.7l8,218.3M248.7,394.9l8,218.3m3.2,-219.6l8,218.3M265.5,394.3l8,218.3m-2,-219.2l8,218.3M276.7,393l7.9,218.3" class="g5_22"/>
<path d="M282.3,392.8l7.9,218.3" class="g4_22"/>
<path d="M287.8,392.6l8,218.3M293.9,392.4l7.9,218.3m3.3,-219.2l8,218.3M299.7,392.6l7.9,218.3m3.2,-219.6l8,218.3M316.4,392l8,218.3" class="g5_22"/>
<path d="M322.4,391.1l8,218.3" class="g4_22"/>
<path d="M327.6,390.7L335.5,609M333.2,390.5l7.9,218.3M338.8,390.3l7.9,218.3M344.8,390.1l7.9,218.3m3.2,-218.3l8,218.3M350.4,391.2l8,218.3m3.2,-219.6l7.9,218.3" class="g5_22"/>
<path d="M367.2,390.6l8,218.2" class="g4_22"/>
<path d="M373.2,389.7l8,218.3" class="g5_22"/>
<path d="M128.8,428.2c6.8,-.3,12.2,-5.8,11.9,-12.4c-.2,-6.6,-6,-11.8,-12.8,-11.5c-6.8,.2,-12.1,5.8,-11.9,12.4c.2,6.6,6,11.7,12.8,11.5Z" class="g6_22"/>
<path d="M128.9,427.9c.6,0,1.1,-.6,1.1,-1.2c0,-.6,-.6,-1.1,-1.2,-1.1c-.7,0,-1.2,.5,-1.2,1.2c.1,.6,.6,1.1,1.3,1.1Z" class="g7_22"/>
<path d="M128.9,427.9c.6,0,1.1,-.6,1.1,-1.2c0,-.6,-.6,-1.1,-1.2,-1.1c-.7,0,-1.2,.5,-1.2,1.2c.1,.6,.6,1.1,1.3,1.1Z" class="g8_22"/>
<path d="M131.1,426.9c.6,0,1.1,-.6,1.1,-1.2c0,-.6,-.5,-1.1,-1.2,-1.1c-.7,0,-1.2,.6,-1.1,1.2c0,.6,.5,1.1,1.2,1.1Z" class="g7_22"/>
<path d="M131.1,426.9c.6,0,1.2,-.6,1.1,-1.2c0,-.6,-.5,-1.1,-1.2,-1.1c-.6,0,-1.2,.6,-1.1,1.2c0,.6,.5,1.1,1.2,1.1Z" class="g8_22"/>
<path d="M128.9,425.5c.7,0,1.2,-.5,1.2,-1.1c0,-.7,-.6,-1.2,-1.2,-1.1c-.7,0,-1.2,.5,-1.2,1.1c0,.7,.6,1.2,1.2,1.1Z" class="g7_22"/>
<path d="M128.9,425.5c.7,0,1.2,-.5,1.2,-1.2c0,-.6,-.6,-1.1,-1.2,-1.1c-.7,.1,-1.2,.6,-1.2,1.2c0,.7,.6,1.2,1.2,1.1Z" class="g8_22"/>
<path d="M133.5,426c.6,0,1.1,-.5,1.1,-1.1c0,-.7,-.6,-1.2,-1.2,-1.1c-.7,0,-1.2,.5,-1.2,1.1c.1,.7,.6,1.2,1.3,1.1Z" class="g7_22"/>
<path d="M133.5,426c.6,0,1.1,-.5,1.1,-1.1c0,-.7,-.6,-1.2,-1.2,-1.1c-.7,0,-1.2,.5,-1.2,1.1c.1,.7,.6,1.2,1.3,1.1Z" class="g8_22"/>
<path d="M131.2,424.7c.6,0,1.1,-.6,1.1,-1.2c0,-.6,-.6,-1.1,-1.2,-1.1c-.7,0,-1.2,.5,-1.2,1.2c.1,.6,.6,1.1,1.3,1.1Z" class="g7_22"/>
<path d="M131.2,424.7c.6,0,1.1,-.6,1.1,-1.2c0,-.6,-.6,-1.1,-1.2,-1.1c-.7,0,-1.2,.5,-1.2,1.2c.1,.6,.6,1.1,1.3,1.1Z" class="g8_22"/>
<path d="M126.7,426.5c.6,0,1.1,-.5,1.1,-1.2c0,-.6,-.5,-1.1,-1.2,-1.1c-.7,0,-1.2,.6,-1.1,1.2c0,.6,.5,1.1,1.2,1.1Z" class="g7_22"/>
<path d="M126.7,426.5c.6,0,1.1,-.5,1.1,-1.2c0,-.6,-.6,-1.1,-1.2,-1.1c-.7,0,-1.2,.6,-1.2,1.2c.1,.6,.6,1.1,1.3,1.1Z" class="g8_22"/>
<path d="M124.5,426.7c.6,-.1,1.2,-.6,1.1,-1.2c0,-.7,-.5,-1.1,-1.2,-1.1c-.6,0,-1.2,.5,-1.1,1.2c0,.6,.5,1.1,1.2,1.1Z" class="g7_22"/>
<path d="M124.5,426.7c.7,-.1,1.2,-.6,1.1,-1.2c0,-.7,-.5,-1.1,-1.2,-1.1c-.6,0,-1.2,.5,-1.1,1.2c0,.6,.5,1.1,1.2,1.1Z" class="g8_22"/>
<path d="M125.7,424.3c.7,0,1.2,-.5,1.2,-1.2c0,-.6,-.6,-1.1,-1.3,-1.1c-.6,.1,-1.1,.6,-1.1,1.2c0,.7,.6,1.2,1.2,1.1Z" class="g7_22"/>
<path d="M125.7,424.3c.7,0,1.2,-.5,1.2,-1.1c0,-.7,-.6,-1.2,-1.2,-1.1c-.7,0,-1.2,.5,-1.2,1.1c0,.7,.6,1.2,1.2,1.1Z" class="g8_22"/>
<path d="M128.2,423.4c.7,0,1.2,-.5,1.2,-1.1c-.1,-.7,-.6,-1.2,-1.3,-1.1c-.6,0,-1.1,.5,-1.1,1.1c0,.7,.6,1.2,1.2,1.1Z" class="g7_22"/>
<path d="M128.2,423.4c.7,0,1.2,-.5,1.2,-1.2c-.1,-.6,-.6,-1.1,-1.3,-1.1c-.6,.1,-1.1,.6,-1.1,1.2c0,.7,.6,1.2,1.2,1.1Z" class="g8_22"/>
<path d="M135.6,424.6c.7,0,1.2,-.6,1.2,-1.2c-.1,-.6,-.6,-1.1,-1.3,-1.1c-.6,0,-1.1,.5,-1.1,1.2c0,.6,.6,1.1,1.2,1.1Z" class="g7_22"/>
<path d="M135.6,424.6c.7,-.1,1.2,-.6,1.2,-1.2c-.1,-.7,-.6,-1.1,-1.3,-1.1c-.6,0,-1.1,.5,-1.1,1.2c0,.6,.6,1.1,1.2,1.1Z" class="g8_22"/>
<path d="M133.4,423.8c.7,0,1.2,-.6,1.2,-1.2c-.1,-.6,-.6,-1.1,-1.3,-1.1c-.6,0,-1.1,.5,-1.1,1.2c0,.6,.6,1.1,1.2,1.1Z" class="g7_22"/>
<path d="M133.4,423.8c.7,-.1,1.2,-.6,1.1,-1.2c0,-.6,-.5,-1.1,-1.2,-1.1c-.6,0,-1.2,.5,-1.1,1.2c0,.6,.5,1.1,1.2,1.1Z" class="g8_22"/>
<path d="M130.8,422.3c.7,0,1.2,-.6,1.2,-1.2c-.1,-.6,-.6,-1.1,-1.3,-1.1c-.6,0,-1.1,.6,-1.1,1.2c0,.6,.6,1.1,1.2,1.1Z" class="g7_22"/>
<path d="M130.8,422.3c.7,0,1.2,-.6,1.2,-1.2c-.1,-.6,-.6,-1.1,-1.3,-1.1c-.6,0,-1.1,.6,-1.1,1.2c0,.6,.6,1.1,1.2,1.1Z" class="g8_22"/>
<path d="M133.1,421.3c.7,0,1.2,-.5,1.1,-1.2c0,-.6,-.5,-1.1,-1.2,-1.1c-.6,0,-1.2,.6,-1.1,1.2c0,.6,.5,1.1,1.2,1.1Z" class="g7_22"/>
<path d="M133.1,421.3c.7,0,1.2,-.5,1.1,-1.2c0,-.6,-.5,-1.1,-1.2,-1.1c-.6,0,-1.1,.6,-1.1,1.2c0,.6,.5,1.1,1.2,1.1Z" class="g8_22"/>
<path d="M123.3,424.7c.6,0,1.1,-.5,1.1,-1.2c0,-.6,-.6,-1.1,-1.2,-1.1c-.7,.1,-1.2,.6,-1.2,1.2c.1,.7,.6,1.2,1.3,1.1Z" class="g7_22"/>
<path d="M123.3,424.7c.6,0,1.1,-.5,1.1,-1.2c0,-.6,-.6,-1.1,-1.2,-1.1c-.7,.1,-1.2,.6,-1.2,1.2c.1,.7,.6,1.2,1.3,1.1Z" class="g8_22"/>
<path d="M137.6,422.9c.6,-.1,1.2,-.6,1.1,-1.2c0,-.6,-.5,-1.1,-1.2,-1.1c-.6,0,-1.2,.5,-1.1,1.2c0,.6,.5,1.1,1.2,1.1Z" class="g7_22"/>
<path d="M137.6,422.9c.6,-.1,1.2,-.6,1.1,-1.2c0,-.6,-.5,-1.1,-1.2,-1.1c-.7,0,-1.2,.5,-1.1,1.2c0,.6,.5,1.1,1.2,1.1Z" class="g8_22"/>
<path d="M135.5,421.7c.7,0,1.2,-.5,1.2,-1.1c0,-.7,-.6,-1.2,-1.2,-1.1c-.7,0,-1.2,.5,-1.2,1.1c0,.7,.6,1.2,1.2,1.1Z" class="g7_22"/>
<path d="M135.5,421.7c.7,0,1.2,-.5,1.2,-1.2c-.1,-.6,-.6,-1.1,-1.3,-1.1c-.6,.1,-1.1,.6,-1.1,1.2c0,.7,.6,1.1,1.2,1.1Z" class="g8_22"/>
<path d="M138.4,420.7c.7,-.1,1.2,-.6,1.2,-1.2c-.1,-.7,-.6,-1.2,-1.3,-1.1c-.6,0,-1.1,.5,-1.1,1.2c0,.6,.6,1.1,1.2,1.1Z" class="g7_22"/>
<path d="M138.4,420.6c.7,0,1.2,-.5,1.2,-1.1c-.1,-.7,-.6,-1.2,-1.3,-1.1c-.6,0,-1.1,.5,-1.1,1.1c0,.7,.6,1.2,1.2,1.1Z" class="g8_22"/>
<path d="M136.5,419.4c.7,-.1,1.2,-.6,1.1,-1.2c0,-.7,-.5,-1.2,-1.2,-1.1c-.6,0,-1.1,.5,-1.1,1.2c0,.6,.6,1.1,1.2,1.1Z" class="g7_22"/>
<path d="M136.5,419.4c.7,-.1,1.2,-.6,1.1,-1.2c0,-.7,-.5,-1.2,-1.2,-1.1c-.6,0,-1.1,.5,-1.1,1.2c0,.6,.6,1.1,1.2,1.1Z" class="g8_22"/>
<path d="M134,418.7c.7,0,1.2,-.6,1.2,-1.2c-.1,-.6,-.6,-1.1,-1.3,-1.1c-.6,0,-1.1,.6,-1.1,1.2c0,.6,.6,1.1,1.2,1.1Z" class="g7_22"/>
<path d="M134,418.7c.7,0,1.2,-.6,1.1,-1.2c0,-.6,-.5,-1.1,-1.2,-1.1c-.6,0,-1.1,.6,-1.1,1.2c0,.6,.5,1.1,1.2,1.1Z" class="g8_22"/>
<path d="M121,424.2c.7,0,1.2,-.6,1.2,-1.2c-.1,-.6,-.6,-1.1,-1.3,-1.1c-.6,0,-1.1,.6,-1.1,1.2c0,.6,.6,1.1,1.2,1.1Z" class="g7_22"/>
<path d="M121,424.2c.7,0,1.2,-.6,1.2,-1.2c-.1,-.6,-.6,-1.1,-1.3,-1.1c-.6,0,-1.1,.6,-1.1,1.2c0,.6,.6,1.1,1.2,1.1Z" class="g8_22"/>
<path d="M122.7,422.5c.7,0,1.2,-.5,1.2,-1.2c0,-.6,-.6,-1.1,-1.2,-1.1c-.7,.1,-1.2,.6,-1.2,1.2c0,.6,.6,1.1,1.2,1.1Z" class="g7_22"/>
<path d="M122.7,422.5c.7,0,1.2,-.5,1.2,-1.2c0,-.6,-.6,-1.1,-1.2,-1.1c-.7,.1,-1.2,.6,-1.2,1.2c0,.7,.6,1.1,1.2,1.1Z" class="g8_22"/>
<path d="M125.4,422.1c.6,0,1.1,-.6,1.1,-1.2c0,-.6,-.6,-1.1,-1.2,-1.1c-.7,0,-1.2,.5,-1.2,1.2c.1,.6,.6,1.1,1.3,1.1Z" class="g7_22"/>
<path d="M125.4,422.1c.6,0,1.1,-.6,1.1,-1.2c0,-.6,-.6,-1.1,-1.2,-1.1c-.7,0,-1.2,.6,-1.1,1.2c0,.6,.5,1.1,1.2,1.1Z" class="g8_22"/>
<path d="M127.7,421.2c.6,0,1.1,-.5,1.1,-1.1c0,-.7,-.6,-1.2,-1.2,-1.1c-.7,0,-1.2,.5,-1.1,1.1c0,.7,.5,1.2,1.2,1.1Z" class="g7_22"/>
<path d="M127.7,421.2c.6,0,1.1,-.5,1.1,-1.2c0,-.6,-.6,-1.1,-1.2,-1.1c-.7,.1,-1.2,.6,-1.1,1.2c0,.7,.5,1.2,1.2,1.1Z" class="g8_22"/>
<path d="M130,420c.7,0,1.2,-.5,1.1,-1.2c0,-.6,-.5,-1.1,-1.2,-1.1c-.6,.1,-1.1,.6,-1.1,1.2c0,.7,.6,1.2,1.2,1.1Z" class="g7_22"/>
<path d="M130,420c.7,0,1.2,-.5,1.2,-1.2c-.1,-.6,-.6,-1.1,-1.3,-1.1c-.6,.1,-1.1,.6,-1.1,1.2c0,.7,.6,1.1,1.2,1.1Z" class="g8_22"/>
<path d="M132,419.3c.6,0,1.1,-.6,1.1,-1.2c0,-.6,-.6,-1.1,-1.2,-1.1c-.7,0,-1.2,.5,-1.2,1.2c.1,.6,.6,1.1,1.3,1.1Z" class="g7_22"/>
<path d="M132,419.3c.6,0,1.1,-.6,1.1,-1.2c0,-.6,-.6,-1.1,-1.2,-1.1c-.7,0,-1.2,.5,-1.2,1.2c0,.6,.6,1.1,1.3,1.1Z" class="g8_22"/>
<path d="M136.2,417c.7,0,1.2,-.5,1.2,-1.2c-.1,-.6,-.6,-1.1,-1.3,-1.1c-.6,.1,-1.1,.6,-1.1,1.2c0,.7,.6,1.2,1.2,1.1Z" class="g7_22"/>
<path d="M136.2,417c.7,0,1.2,-.5,1.2,-1.2c0,-.6,-.6,-1.1,-1.2,-1.1c-.7,.1,-1.2,.6,-1.2,1.2c0,.7,.6,1.2,1.2,1.1Z" class="g8_22"/>
<path d="M139.3,418.2c.7,0,1.2,-.6,1.2,-1.2c0,-.6,-.6,-1.1,-1.2,-1.1c-.7,0,-1.2,.6,-1.2,1.2c0,.6,.6,1.1,1.2,1.1Z" class="g7_22"/>
<path d="M139.4,418.2c.6,0,1.1,-.6,1.1,-1.2c0,-.6,-.6,-1.1,-1.2,-1.1c-.7,0,-1.2,.6,-1.2,1.2c0,.6,.6,1.1,1.3,1.1Z" class="g8_22"/>
<path d="M138.5,416c.7,0,1.2,-.5,1.2,-1.1c-.1,-.7,-.6,-1.2,-1.3,-1.1c-.6,0,-1.1,.5,-1.1,1.1c0,.7,.6,1.2,1.2,1.1Z" class="g7_22"/>
<path d="M138.5,416c.7,0,1.2,-.5,1.2,-1.1c-.1,-.7,-.6,-1.2,-1.3,-1.1c-.6,0,-1.1,.5,-1.1,1.1c0,.7,.6,1.2,1.2,1.1Z" class="g8_22"/>
<path d="M119.6,422.4c.6,0,1.1,-.5,1.1,-1.2c0,-.6,-.6,-1.1,-1.2,-1.1c-.7,.1,-1.2,.6,-1.2,1.2c.1,.6,.6,1.1,1.3,1.1Z" class="g7_22"/>
<path d="M119.6,422.4c.6,0,1.1,-.5,1.1,-1.2c0,-.6,-.6,-1.1,-1.2,-1.1c-.7,.1,-1.2,.6,-1.2,1.2c.1,.6,.6,1.1,1.3,1.1Z" class="g8_22"/>
<path d="M121.4,420.7c.6,0,1.1,-.5,1.1,-1.2c0,-.6,-.6,-1.1,-1.2,-1.1c-.7,0,-1.2,.6,-1.2,1.2c.1,.6,.6,1.1,1.3,1.1Z" class="g7_22"/>
<path d="M121.4,420.7c.6,0,1.1,-.5,1.1,-1.2c0,-.6,-.6,-1.1,-1.2,-1.1c-.7,0,-1.2,.6,-1.2,1.2c.1,.6,.6,1.1,1.3,1.1Z" class="g8_22"/>
<path d="M124.2,420.2c.6,0,1.1,-.5,1.1,-1.2c0,-.6,-.6,-1.1,-1.2,-1.1c-.7,.1,-1.2,.6,-1.2,1.2c0,.7,.6,1.1,1.3,1.1Z" class="g7_22"/>
<path d="M124.2,420.2c.6,0,1.1,-.5,1.1,-1.2c0,-.6,-.6,-1.1,-1.2,-1.1c-.7,.1,-1.2,.6,-1.2,1.2c.1,.7,.6,1.2,1.3,1.1Z" class="g8_22"/>
<path d="M126.7,418.9c.7,-.1,1.2,-.6,1.2,-1.2c0,-.7,-.6,-1.2,-1.3,-1.1c-.6,0,-1.1,.5,-1.1,1.2c0,.6,.6,1.1,1.2,1.1Z" class="g7_22"/>
<path d="M126.7,418.9c.7,-.1,1.2,-.6,1.2,-1.2c0,-.6,-.6,-1.1,-1.2,-1.1c-.7,0,-1.2,.5,-1.2,1.2c0,.6,.6,1.1,1.2,1.1Z" class="g8_22"/>
<path d="M129.2,417.7c.6,0,1.1,-.5,1.1,-1.2c0,-.6,-.6,-1.1,-1.2,-1.1c-.7,.1,-1.2,.6,-1.2,1.2c.1,.7,.6,1.1,1.3,1.1Z" class="g7_22"/>
<path d="M129.2,417.7c.6,0,1.1,-.5,1.1,-1.2c0,-.6,-.6,-1.1,-1.2,-1.1c-.7,.1,-1.2,.6,-1.2,1.2c.1,.7,.6,1.2,1.3,1.1Z" class="g8_22"/>
<path d="M131.8,416.7c.6,-.1,1.1,-.6,1.1,-1.2c0,-.7,-.6,-1.2,-1.2,-1.1c-.7,0,-1.2,.5,-1.2,1.2c.1,.6,.6,1.1,1.3,1.1Z" class="g7_22"/>
<path d="M131.7,416.7c.7,-.1,1.2,-.6,1.2,-1.2c0,-.6,-.6,-1.1,-1.2,-1.1c-.7,0,-1.2,.5,-1.2,1.2c0,.6,.6,1.1,1.2,1.1Z" class="g8_22"/>
<path d="M134.2,415.9c.7,0,1.2,-.6,1.1,-1.2c0,-.6,-.5,-1.1,-1.2,-1.1c-.6,0,-1.1,.6,-1.1,1.2c0,.6,.5,1.1,1.2,1.1Z" class="g7_22"/>
<path d="M134.2,415.9c.6,0,1.2,-.6,1.1,-1.2c0,-.6,-.5,-1.1,-1.2,-1.1c-.6,0,-1.2,.6,-1.1,1.2c0,.6,.5,1.1,1.2,1.1Z" class="g8_22"/>
<path d="M136.4,414.7c.7,0,1.2,-.5,1.2,-1.2c-.1,-.6,-.6,-1.1,-1.3,-1c-.6,0,-1.1,.5,-1.1,1.1c0,.7,.6,1.2,1.2,1.1Z" class="g7_22"/>
<path d="M136.4,414.7c.7,0,1.2,-.5,1.2,-1.2c-.1,-.6,-.6,-1.1,-1.3,-1.1c-.6,.1,-1.1,.6,-1.1,1.2c0,.7,.6,1.2,1.2,1.1Z" class="g8_22"/>
<path d="M138.5,413.4c.7,0,1.2,-.5,1.2,-1.2c0,-.6,-.6,-1.1,-1.2,-1.1c-.7,.1,-1.2,.6,-1.2,1.2c0,.6,.6,1.1,1.2,1.1Z" class="g7_22"/>
<path d="M138.5,413.4c.7,0,1.2,-.5,1.2,-1.2c0,-.6,-.6,-1.1,-1.2,-1.1c-.7,0,-1.2,.6,-1.2,1.2c0,.6,.6,1.1,1.2,1.1Z" class="g8_22"/>
<path d="M132.3,414.3c.6,0,1.2,-.5,1.1,-1.2c0,-.6,-.5,-1.1,-1.2,-1.1c-.6,0,-1.2,.6,-1.1,1.2c0,.6,.5,1.1,1.2,1.1Z" class="g7_22"/>
<path d="M132.3,414.3c.6,0,1.2,-.5,1.1,-1.2c0,-.6,-.5,-1.1,-1.2,-1.1c-.6,0,-1.2,.6,-1.1,1.2c0,.6,.5,1.1,1.2,1.1Z" class="g8_22"/>
<path d="M134.9,413.5c.6,-.1,1.1,-.6,1.1,-1.2c0,-.7,-.6,-1.1,-1.2,-1.1c-.7,0,-1.2,.5,-1.1,1.2c0,.6,.5,1.1,1.2,1.1Z" class="g7_22"/>
<path d="M134.9,413.5c.6,-.1,1.1,-.6,1.1,-1.2c0,-.7,-.6,-1.1,-1.2,-1.1c-.7,0,-1.2,.5,-1.2,1.2c.1,.6,.6,1.1,1.3,1.1Z" class="g8_22"/>
<path d="M136.7,411.6c.6,0,1.2,-.6,1.1,-1.2c0,-.6,-.5,-1.1,-1.2,-1.1c-.6,0,-1.2,.6,-1.1,1.2c0,.6,.5,1.1,1.2,1.1Z" class="g7_22"/>
<path d="M136.7,411.6c.7,0,1.2,-.6,1.1,-1.2c0,-.6,-.5,-1.1,-1.2,-1.1c-.6,0,-1.1,.6,-1.1,1.2c0,.6,.6,1.1,1.2,1.1Z" class="g8_22"/>
<path d="M118.7,420.2c.7,0,1.2,-.5,1.2,-1.2c0,-.6,-.6,-1.1,-1.2,-1.1c-.7,.1,-1.2,.6,-1.2,1.2c0,.7,.6,1.1,1.2,1.1Z" class="g7_22"/>
<path d="M118.7,420.2c.7,0,1.2,-.5,1.2,-1.2c0,-.6,-.6,-1.1,-1.2,-1.1c-.7,.1,-1.2,.6,-1.2,1.2c0,.7,.6,1.1,1.2,1.1Z" class="g8_22"/>
<path d="M120.7,418.3c.6,0,1.2,-.5,1.1,-1.2c0,-.6,-.5,-1.1,-1.2,-1.1c-.6,0,-1.2,.6,-1.1,1.2c0,.6,.5,1.1,1.2,1.1Z" class="g7_22"/>
<path d="M120.7,418.3c.6,0,1.2,-.5,1.1,-1.2c0,-.6,-.5,-1.1,-1.2,-1.1c-.6,0,-1.2,.6,-1.1,1.2c0,.6,.5,1.1,1.2,1.1Z" class="g8_22"/>
<path d="M159.3,490.7c9,-.3,16.1,-7.9,15.8,-16.9c-.3,-9,-7.9,-16.1,-16.9,-15.7c-9,.3,-16.1,7.8,-15.8,16.9c.3,9,7.9,16,16.9,15.7Zm82.6,14.4c9,-.3,16.1,-7.9,15.8,-16.9c-.3,-9,-7.9,-16,-16.9,-15.7c-9,.3,-16.1,7.9,-15.8,16.9c.3,9,7.9,16.1,16.9,15.7Zm-14.1,58.6c9,-.3,16.1,-7.8,15.7,-16.9c-.3,-9,-7.9,-16,-16.9,-15.7c-9,.3,-16,7.9,-15.7,16.9c.3,9,7.9,16.1,16.9,15.7Zm67.7,23.1c9,-.3,16,-7.9,15.7,-16.9c-.3,-9,-7.9,-16,-16.9,-15.7c-9,.3,-16.1,7.9,-15.7,16.9c.3,9,7.8,16.1,16.9,15.7Z" class="g9_22"/>
<path d="M228.8,528.8c0,0,-29.6,-26.8,-6.4,-42.2m-5.1,1.2l5.1,-1.2l-3.1,4.2m41.1,1.5c0,0,33.2,45.6,-14.3,45.9m5,1.8l-5,-1.8l4.9,-1.8m6.1,-59.8c0,0,90.6,36.2,56.1,82.2m4.4,-2.8l-4.4,2.8l1.5,-5M251,587.5c0,0,-136.7,51.3,-102.9,-90.6m-2.9,4.4l2.9,-4.4l.6,5.2m129.7,78.4c-1.3,-2,-27,6.7,-27,6.7c0,0,-46.7,4.5,-36.7,-21.9m-3.4,4l3.4,-4l-.1,5.3" class="ga_22"/>
<image clip-path="url(#c1_22)" preserveAspectRatio="none" x="465" y="726" width="94" height="105" xlink:href="img/2.png"/>
<path d="M5.4,0H-17.4M922,0h23M5.4,1017.5H-17.4m939.4,0h23M23.7,-18.2V-41.1m0,1076.9v23m880,-1077V-41.1m0,1076.9v23" class="gb_22"/>
<path d="M5.4,0H-17.4M922,0h23M5.4,1017.5H-17.4m939.4,0h23M23.7,-18.2V-41.1m0,1076.9v23m880,-1077V-41.1m0,1076.9v23" class="gc_22"/>
</svg>