<?xml version="1.0" encoding="UTF-8" standalone="no"?>
<!DOCTYPE svg PUBLIC "-//W3C//DTD SVG 1.1//EN"
"http://www.w3.org/Graphics/SVG/1.1/DTD/svg11.dtd">
<svg viewBox="0 0 931 1096" version="1.1" xmlns="http://www.w3.org/2000/svg" xmlns:xlink="http://www.w3.org/1999/xlink">
<defs>
<style type="text/css"><![CDATA[
.g0_95{
fill: none;
stroke: #00AEEF;
stroke-width: 0.763;
stroke-miterlimit: 10;
}
.g1_95{
fill: none;
stroke: #241F1F;
stroke-width: 0.687;
stroke-miterlimit: 10;
}
.g2_95{
fill: none;
stroke: #00AEEF;
stroke-width: 0.763;
stroke-linecap: round;
stroke-linejoin: round;
}
.g3_95{
fill: none;
stroke: #EE008C;
stroke-width: 1.069;
stroke-linejoin: round;
}
.g4_95{
fill: #EE008C;
}
.g5_95{
fill: none;
stroke: #EE008C;
stroke-width: 1.527;
}
.g6_95{
fill: none;
stroke: #241F1F;
stroke-width: 0.611;
stroke-miterlimit: 3;
}
.g7_95{
fill: #241F1F;
}
.g8_95{
fill: none;
stroke: #241F1F;
stroke-width: 0.763;
stroke-miterlimit: 3;
}
]]></style>
</defs>
<path d="M108.5,118.6h770M498.1,158.1H878.5M498.1,309.3H878.5" class="g0_95"/>
<path d="M644.1,431.3h40.5" class="g1_95"/>
<path d="M108.5,760.6H488.9" class="g0_95"/>
<path d="M377.6,300.3l2.9,-.8m-1.3,2.9l-1.6,-2.1m2.9,-.8l-1.3,2.9m-8.3,5l9.6,-7.9m-20.8,1.3h2.1m-.9,2l-1.2,-2m2.1,0l-.9,2m-6.6,3.8l7.5,-5.8m-20.4,.8h2.1m-.9,1.7l-1.2,-1.7m2.1,0l-.9,1.7m-5.4,2.5l6.3,-4.2m-20,.8h1.2m-.8,1.3l-.4,-1.3m1.2,0l-.8,1.3m-3.3,.8l4.1,-2.1m-19.1,.9l.4,.4m-.4,0v-.4m.4,.4h-.4m-1.6,0h2m-18.3,.4l-.4,.4m0,-.4h.4m-.4,.4v-.4m0,-1.7v2.1m-17.5,.4l-1.2,.9m0,-1.3l1.2,.4m-1.2,.9v-1.3m2.1,-2.9l-2.1,4.2m-17.1,0l-1.2,.8m0,-1.7l1.2,.9m-1.2,.8v-1.7m3.7,-4.1l-3.7,5.8m-16.7,0l-2,.8m0,-2.5l2,1.7m-2,.8v-2.5m5.8,-5.4l-5.8,7.9m-15.8,0l-3,1.3m.5,-3.4l2.5,2.1m-3,1.3l.5,-3.4m7.4,-6.6l-7.9,10m165.6,9.5h3.3m-2,3l-1.3,-3m3.3,0l-2,3m-10,2.9l12,-5.9m-21.6,.9l2.9,.4m-1.6,2.1l-1.3,-2.5m2.9,.4l-1.6,2.1m-8.4,1.6l10,-3.7m-20.8,.4l2.1,.4m-1.7,1.3l-.4,-1.7m2.1,.4l-1.7,1.3m-6.2,.8l7.9,-2.1m-20,0l1.3,.9m-1.3,.8v-1.7m1.3,.9l-1.3,.8m-4.6,-.8h5.9m-19.2,0l.5,1.2m-.9,0l.4,-1.2m.5,1.2H306m-2.9,-2.1l3.8,2.1M288.6,322v1.2m-1.3,-.4l1.3,-.8m0,1.2l-1.3,-.4m-.8,-3.3l2.1,3.7m-17.9,-.4l-.9,1.3m-.8,-1.3h1.7m-.9,1.3l-.8,-1.3m.8,-4.6v5.9m-17.4,-.5l-1.3,1.7m-.4,-2.1l1.7,.4m-1.3,1.7l-.4,-2.1m2.5,-5.8l-2.1,7.9m-16.6,-.8l-2.1,1.6m-.4,-2.5l2.5,.9m-2.1,1.6l-.4,-2.5m4.5,-7.4l-4.1,9.9m-15.8,-.8l-2.9,1.7m0,-2.9l2.9,1.2m-2.9,1.7v-2.9m5.8,-8.8L213.7,327m165.5,9.1l3.4,.9m-2.5,2.5l-.9,-3.4m3.4,.9l-2.5,2.5m-11.3,1.2L382.6,337m-21.7,0l2.9,.8m-2,2.1l-.9,-2.9m2.9,.8l-2,2.1m-9.6,0l11.6,-2.1m-20.8,0l2.1,1.2m-2.1,1.3v-2.5m2.1,1.2l-2.1,1.3M335.6,339h9.5m-19.9,-.4l1.6,1.3m-2.1,.4l.5,-1.7m1.6,1.3l-2.1,.4m-5.8,-2.5l7.9,2.1m-19.5,-.4l.8,1.2m-2.1,0l1.3,-1.2m.8,1.2H306M302.3,337l5.8,3.7m-18.7,-.4v1.6m-1.7,-.8l1.7,-.8m0,1.6l-1.7,-.8m-2.5,-5l4.2,5.8m-18.3,-1.2l-.4,2.1m-1.3,-1.3l1.7,-.8m-.4,2.1l-1.3,-1.3m-.8,-6.6l2.1,7.9m-17.5,-1.3l-1.3,2.1m-1.2,-2.1h2.5m-1.3,2.1l-1.2,-2.1m1.2,-7.5v9.6m-16.6,-1.2l-2.1,2.5m-.8,-3l2.9,.5m-2.1,2.5l-.8,-3m2.9,-8.7l-2.1,11.7m-15.8,-1.7l-2.5,2.5m-.8,-3.3l3.3,.8m-2.5,2.5l-.8,-3.3M218.7,332l-3.8,13.7M380.1,354l3.3,1.7m-2.9,2.5l-.4,-4.2m3.3,1.7l-2.9,2.5M368,357.8l15.4,-2.1m-21.6,-.9l2.9,1.7m-2.9,1.7v-3.4m2.9,1.7l-2.9,1.7M351,356.5h13.7m-20.8,-.8l2.5,2.1m-2.9,.8l.4,-2.9m2.5,2.1l-2.9,.8m-9.2,-2.9l12.1,2.1M326,356.5l1.7,2.1m-2.5,.4l.8,-2.5m1.7,2.1l-2.5,.4m-7.5,-4.6l10,4.2m-19.6,-1.3l.8,2.1m-2.5,0l1.7,-2.1m.8,2.1h-2.5M301,353.6l7.9,5.8m-18.7,-1.2v2.5m-2.1,-1.3l2.1,-1.2m0,2.5l-2.1,-1.3m-3.7,-6.6l5.8,7.9M271.9,359l-.4,2.5m-2.1,-1.7l2.5,-.8m-.4,2.5l-2.1,-1.7m-1.6,-8.3l3.7,10M254,359.8l-.8,2.5m-2.1,-2.1l2.9,-.4m-.8,2.5l-2.1,-2.1m0,-9.5l2.1,11.6m-17.1,-1.6l-1.6,2.9m-1.7,-2.9h3.3m-1.6,2.9l-1.7,-2.9m1.7,-10.9v13.8m-16.3,-2.5l-2.4,3.3m-1.7,-3.7l4.1,.4m-2.4,3.3l-1.7,-3.7m3.7,-12.1l-2,15.8m164.7,7.5l4.1,2.5m-4.1,2.1v-4.6m4.1,2.5l-4.1,2.1m-13.7,-2.1h17.8m-22,-1.7l3.3,2.5m-3.7,1.7l.4,-4.2m3.3,2.5l-3.7,1.7m-12.1,-3.8l15.8,2.1m-21.2,-1.6l2.5,2.5m-3.3,.8l.8,-3.3m2.5,2.5l-3.3,.8m-10.4,-4.6l13.7,3.8m-20.4,-1.7l1.7,2.9m-3.3,0l1.6,-2.9m1.7,2.9h-3.3m-8.4,-5.8l11.7,5.8m-19.6,-2.1l.9,2.9m-2.9,-.4l2,-2.5m.9,2.9l-2.9,-.4m-6.7,-7.5l9.6,7.9m-19.2,-2l.9,2.9m-2.9,-.9l2,-2m.9,2.9l-2.9,-.9m-5,-8.7l7.9,9.6m-18.8,-2.1v3.3m-2.9,-2.1l2.9,-1.2m0,3.3l-2.9,-2.1m-2.9,-10l5.8,12.1m-17.8,-2.5L254,381m-2.5,-2.4l3.4,-.9M254,381l-2.5,-2.4m-1.2,-11.3L254,381m-17,-2.4l-1.7,3.3M232.8,379l4.2,-.4m-1.7,3.3L232.8,379m.4,-12.5l2.1,15.4m-16.2,-2.5l-2.5,3.7m-2.1,-3.7h4.6m-2.5,3.7l-2.1,-3.7m2.1,-14.2v17.9M373.4,210.5l2.1,-4.2m2.5,4.2h-4.6m2.1,-4.2l2.5,4.2m-2.5,13.7V206.3m-20,4.6l1.7,-3.3m2.1,2.9l-3.8,.4m1.7,-3.3l2.1,2.9m-.4,12.5l-1.7,-15.4m-19.6,4.1l.9,-3.3m2.5,2.5l-3.4,.8m.9,-3.3l2.5,2.5m1.2,11.2l-3.7,-13.7m-18.8,4.2v-3.4m3,2.1l-3,1.3m0,-3.4l3,2.1m2.9,10l-5.9,-12.1m-18.3,4.2l-.4,-2.9m3,1.2l-2.6,1.7m-.4,-2.9l3,1.2m4.9,8.4L301,210.5m-17.4,3.7l-1.3,-2.9m3.3,.4l-2,2.5m-1.3,-2.9l3.3,.4m6.7,7.5l-10,-7.9m-16.6,3.8L264,212.6m2.9,-.4l-1.2,2.9M264,212.6l2.9,-.4m8.8,6.2L264,212.6m-16.2,3.3l-2.5,-2.5m3.3,-.8l-.8,3.3m-2.5,-2.5l3.3,-.8m10.4,4.5l-13.7,-3.7m-15.4,3.3l-3.3,-2.5m3.7,-1.2l-.4,3.7m-3.3,-2.5l3.7,-1.2m12.1,3.3l-15.8,-2.1m-15,3.4l-3.7,-2.1m3.7,-2.5v4.6m-3.7,-2.1l3.7,-2.5m14.1,2.5H207.9m166.3,12.9l2.6,-3.3m1.2,3.7l-3.8,-.4m2.6,-3.3l1.2,3.7m-3.3,12.1l2.1,-15.8m-20.4,4.1l1.6,-2.9m1.7,2.9h-3.3m1.6,-2.9l1.7,2.9M358,240V226.3M338.5,230l.8,-2.9m2.1,2.1l-2.9,.8m.8,-2.9l2.1,2.1m0,9.6l-2.1,-11.7m-19.1,3.8l.4,-2.9m2.1,1.6l-2.5,1.3m.4,-2.9l2.1,1.6m2,8.4l-4.1,-10m-18.3,3.3v-2.1m2.1,.8l-2.1,1.3m0,-2.1l2.1,.8m3.7,6.7l-5.8,-7.5m-17.9,2.9l-.8,-2.1m2.5,.5l-1.7,1.6m-.8,-2.1l2.5,.5m5.4,5.4L283.6,230m-17.1,3l-1.7,-2.1m2.5,-.4l-.8,2.5m-1.7,-2.1l2.5,-.4m7.5,4.5l-10,-4.1m-16.2,2.9l-2.5,-1.7m2.9,-1.2l-.4,2.9m-2.5,-1.7l2.9,-1.2m8.8,2.9l-11.7,-1.7m-15.8,2.5L227.4,233m2.9,-1.7v3.3M227.4,233l2.9,-1.7m10.8,1.7H227.4m-15,2.4l-3.3,-1.6m2.9,-2.1l.4,3.7m-3.3,-1.6l2.9,-2.1m12.5,.4l-15.4,1.7m166,12.5l2.5,-2.5m.8,3.3l-3.3,-.8m2.5,-2.5l.8,3.3m-4.6,10.4l3.8,-13.7m-20.4,3.3l1.7,-2.5m1.2,2.9l-2.9,-.4m1.7,-2.5l1.2,2.9m-2.9,9.2l1.7,-12.1m-19.6,3.3l1.3,-2.1m.8,2.1h-2.1m1.3,-2.1l.8,2.1m-.8,7.5v-9.6m-19.6,3l.8,-2.1m1.3,1.6l-2.1,.5m.8,-2.1l1.3,1.6m.4,6.3l-1.7,-7.9m-18.7,2.9v-2.1m1.7,.8l-1.7,1.3m0,-2.1l1.7,.8m2.1,5.4l-3.8,-6.2m-17.9,2.9l-.8,-1.6m1.7,0l-.9,1.6m-.8,-1.6h1.7m4.1,3.7l-5.8,-3.7m-17.1,2l-1.6,-1.2m2.1,-.4l-.5,1.6m-1.6,-1.2l2.1,-.4m5.8,2.5l-7.9,-2.1m-16.2,2.1l-2.1,-1.3m2.1,-.8v2.1m-2.1,-1.3l2.1,-.8m7.4,.8h-9.5m-16.2,2.1l-2.6,-.8m2.1,-2.1l.5,2.9m-2.6,-.8l2.1,-2.1m9.6,0l-11.7,2.1m-15.3,1.6l-3.4,-.8m2.5,-2.5l.9,3.3m-3.4,-.8l2.5,-2.5m11.3,-1.2l-13.8,3.7m166,11.7l2.5,-1.7m.4,3.3l-2.9,-1.6m2.5,-1.7l.4,3.3m-6.2,8.3l5.8,-11.6M358,265l2.1,-1.7m.4,2.5L358,265m2.1,-1.7l.4,2.5m-4.6,7.5l4.2,-10m-20,2.5l1.3,-1.6m.4,2l-1.7,-.4m1.3,-1.6l.4,2m-2.5,5.9l2.1,-7.9m-19.6,2.5l.9,-1.3m.8,1.3h-1.7m.9,-1.3l.8,1.3m-.8,4.5v-5.8M304,267.5v-1.3m.8,.9l-.8,.4m0,-1.3l.8,.9m1.2,3.3l-2,-4.2m-17.9,2.1l-.9,-.8m1.3,-.4l-.4,1.2m-.9,-.8l1.3,-.4m2.9,2l-4.2,-1.6m-17,1.6l-1.3,-.8m1.3,-.8v1.6m-1.3,-.8l1.3,-.8m4.5,.8h-5.8M250.3,270l-2.1,-.9m1.3,-1.2l.8,2.1m-2.1,-.9l1.3,-1.2m6.6,-.4l-7.9,1.6M232,270.8l-2.5,-.4m1.7,-2.1l.8,2.5m-2.5,-.4l1.7,-2.1m8.3,-2.1l-10,4.2m-15.4,.8h-3.3m2,-2.9l1.3,2.9m-3.3,0l2,-2.9m10,-2.9l-12,5.8m166,10.8l2.9,-.8m-.5,2.9L376.8,282m2.9,-.8l-.5,2.9m-7.4,6.7l7.9,-9.6m-20.8,1.7l2,-.9m-.4,2.5l-1.6,-1.6m2,-.9l-.4,2.5m-5.4,5.4l5.8,-7.9m-20.3,1.7l1.6,-.8m0,2.1l-1.6,-1.3m1.6,-.8V285m-3.7,3.7l3.7,-5.8m-19.5,1.6l.8,-.4m.4,.9l-1.2,-.5m.8,-.4l.4,.9m-2.1,2.9l1.7,-3.8m-18.7,1.3l.4,-.4m0,.4h-.4m.4,-.4v.4m0,1.6v-2m-18.3,1.2l-.4,-.4m.4,0v.4m-.4,-.4h.4m1.7,0h-2.1M269,287h-1.2m.4,-.8l.8,.8m-1.2,0l.4,-.8m3.3,-1.2l-3.7,2m-17.1,.9H249m.9,-1.7l.8,1.7m-1.7,0l.9,-1.7m5,-2.1l-5.9,3.8m-16.2,.8h-2.5m1.3,-2.1l1.2,2.1m-2.5,0l1.3,-2.1m6.6,-3.7l-7.9,5.8m-15.4,.8l-2.9,.4m.8,-2.9l2.1,2.5m-2.9,.4l.8,-2.9m8.8,-5l-9.6,7.9" class="g2_95"/>
<path d="M296.3,354.9c-33,0,-59.9,-26.8,-59.9,-59.8c0,-12.8,4,-24.6,10.8,-34.3" class="g3_95"/>
<path d="M250,256.7l-1.7,6.8l-1.1,-2.7l-2.9,-.2Z" class="g4_95"/>
<path d="M250,256.7l-1.7,6.8l-1.1,-2.7l-2.9,-.2l5.7,-3.9Z" class="g5_95"/>
<path d="M247.2,260.8C258,245.3,276,235.2,296.3,235.2c33,0,59.8,26.8,59.8,59.9" class="g3_95"/>
<path d="M204.6,295H387.9" class="g6_95"/>
<path fill-rule="evenodd" d="M387.9,295l-1.6,-2.4l6.5,2.4l-6.5,2.4Z" class="g7_95"/>
<path d="M296.3,386.7V203.3" class="g6_95"/>
<path fill-rule="evenodd" d="M296.3,203.3l-2.5,1.7l2.5,-6.6l2.4,6.6Z" class="g7_95"/>
<path d="M329.1,347c0,-1,.8,-1.8,1.7,-1.8c1,0,1.8,.8,1.8,1.8c0,.9,-.8,1.7,-1.8,1.7c-.9,0,-1.7,-.8,-1.7,-1.7Z" class="g7_95"/>
<path d="M329.1,347c0,-1,.8,-1.8,1.7,-1.8c1,0,1.8,.8,1.8,1.8c0,.9,-.8,1.7,-1.8,1.7c-.9,0,-1.7,-.8,-1.7,-1.7Z" class="g8_95"/>
<path d="M158,590.9h15.1" class="g1_95"/>
</svg>