<?xml version="1.0" encoding="UTF-8" standalone="no"?>
<!DOCTYPE svg PUBLIC "-//W3C//DTD SVG 1.1//EN"
"http://www.w3.org/Graphics/SVG/1.1/DTD/svg11.dtd">
<svg viewBox="0 0 907 1045" version="1.1" xmlns="http://www.w3.org/2000/svg" xmlns:xlink="http://www.w3.org/1999/xlink">
<defs>
<clipPath id="c0_573"><path d="M518.5,899.1c-.3,-.3,-.5,-.7,-.8,-1c-.5,0,-.8,.1,-1,.1c-.8,0,-1,-.3,-2.3,-.9c-.2,0,-.3,0,-.4,0c-.4,0,-.6,.1,-.7,.1c-.2,0,-.4,-.2,-1.3,-.8c-.5,.1,-.8,.3,-1.3,.3c0,0,-.1,0,-.1,0c-2.8,-1.5,-6.5,-7.4,-9.4,-8c-.3,-1.9,-4.7,-5.2,-7,-7.4c-.3,.2,-.5,.3,-.6,.3c-.2,0,-.1,-.3,-.3,-.3c-.1,0,-.4,.1,-1.1,.7c-.1,-.3,-.3,-.5,-.5,-.5c-.1,0,-.3,.2,-.5,.5c-4.2,-3.4,-7.6,-5.6,-11.7,-8.8c-.8,.2,-.5,.2,-1.4,.3c-3.4,-3.2,-7.3,-5.9,-9.1,-10.9c.5,-.9,.2,-.5,.6,-1.4c-2.1,-1.1,-3.6,-2.1,-4.4,-4.3c.7,-.8,.1,-1,.2,-1.9c0,0,1.5,-1.3,1.5,-1.3c.9,0,1.4,.4,2.1,.4c.2,0,.5,0,.8,-.1c2.8,2.3,.5,.1,3.5,3.2c.7,-.5,1,-.6,1.4,-.6c.2,0,.5,.1,.8,.1c.2,0,.4,0,.8,-.2c.7,1.1,1.5,1.8,2.4,1.8c.4,0,.8,-.2,1.3,-.5c1.5,1.1,2.6,1.8,4.1,2.8c0,0,.5,-.4,.5,-.4c-.6,-.4,-.6,-.7,.1,-1c-1.3,-2.4,.4,-.2,-1.7,-3c.4,-.9,.2,-1.5,.7,-2.4c-.7,-2,-2.5,-4,-3.2,-6c1.1,-.4,1.3,-.9,.6,-1.4c0,0,1.5,-1.3,1.5,-1.3c.6,0,.8,.4,1.3,.4c.2,0,.4,-.1,.6,-.2c1.8,1,3.2,2.7,3.9,4.6c.9,-.6,1.6,-1,2.3,-1c.8,0,1.4,.4,2.1,1c.8,1,5.5,6.2,6.9,8.3c1.8,2.7,2.2,6,3.1,8c1.3,3.1,3.9,14.1,6.8,14.6c-.1,5.5,9.7,12,13.6,14.2c0,0,-4.7,3.9,-4.7,3.9ZM471.9,847.2l-1.7,-2.1l.5,-.4l1.7,2l-.5,.5Z"/></clipPath>
<clipPath id="c1_573"><path d="M423.8,877.5C392,856.2,355.4,855,367.5,794.3c6.4,-32.3,30.7,-45.2,58.3,-56.7h30.1c70.2,32,53.9,110.6,-8,139.9Z"/></clipPath>
<clipPath id="c2_573"><path d="M78.6,300.4V138.1H265.2V300.4Z"/></clipPath>
<clipPath id="c3_573"><path d="M627.8,299.9V128H816.7V299.9Z"/></clipPath>
<clipPath id="c4_573"><path d="M574.3,561.3V471.7h155v89.6Z"/></clipPath>
<clipPath id="c5_573"><path d="M658,874.9V711.8h63.7V874.9Z"/></clipPath>
<clipPath id="c6_573"><path d="M765.5,897.8c-14.1,-4.7,-30.7,-5.1,-45.6,-8.3c.1,-.3,0,-.4,-.2,-.4c0,0,-.1,0,-.2,0c2.5,-5.2,2.5,-7.9,-.2,-7.9c-.1,0,-.2,0,-.2,.1c0,0,0,-14.5,0,-14.5h-.5V852.3h-.4V837.4h-.4V822.9h-.4V807.6H717V791.9h-.4V778.2h-.4V763.8h-.5V750.1h-.4V736h-.4v-8.6h17v-.5h21.2v-.4h21.1v.4h7.1v.5h.4v7h-.4v48.4h-.5v55h-.4v43.9H780v.8h-.4v.8h-.8v.8h-.5v.5h-.4v.4h-.4v.8h-.4v.8h-.4v.4h-.4v.5h-.4v.4h-.5v.4H775v.8h-.4v.8h-.4v.5h-.4v.4h-.4v.4H773v.8h-.9v.8h-.4v.9h-.4v.4h-.4v.4h-.4v.8h-.4v.4h-.5v.4h-.4v.9h-.4v.4h-.4v.4Z"/></clipPath>
<clipPath id="c7_573"><path d="M-2.6,1047.7V-2.6H910.2V1047.7Z"/></clipPath>
<style type="text/css"><![CDATA[
.g0_573{
fill: none;
stroke: #2D2D2D;
stroke-width: 3.569;
stroke-linecap: butt;
stroke-linejoin: miter;
stroke-miterlimit: 4;
}
.g1_573{
fill: none;
stroke: #636363;
stroke-width: 1.527;
stroke-linecap: butt;
stroke-linejoin: miter;
stroke-miterlimit: 4;
}
.g2_573{
fill: #FFFFFF;
}
.g3_573{
fill: none;
stroke: #FFFFFF;
stroke-width: 1.909;
stroke-linecap: butt;
stroke-linejoin: miter;
}
.g4_573{
fill: none;
stroke: #000000;
stroke-width: 0.381;
stroke-linecap: butt;
stroke-linejoin: miter;
}
]]></style>
</defs>
<image clip-path="url(#c0_573)" preserveAspectRatio="none" x="401" y="781" width="173" height="169" xlink:href="img/1.jpg"/>
<path d="M517.7,894.8c0,0,205.3,73.9,244.3,48.3c38.9,-25.6,24.7,-34.7,24.7,-34.7c0,0,-19.2,-20.2,-24.7,-20.7c-5.6,-.5,-10,-9.3,-10,-9.3M518.8,895c0,0,-4.2,-2.5,-4.9,-3.5c-.7,-1,-10.6,-15,-10.6,-15m9.6,19.6l-2,-1.1L495.7,879.8" class="g0_573"/>
<image clip-path="url(#c1_573)" preserveAspectRatio="none" x="363" y="734" width="147" height="148" xlink:href="img/2.jpg"/>
<image clip-path="url(#c2_573)" preserveAspectRatio="none" x="79" y="136" width="187" height="165" xlink:href="img/3.jpg"/>
<image clip-path="url(#c3_573)" preserveAspectRatio="none" x="628" y="128" width="190" height="173" xlink:href="img/4.jpg"/>
<path d="M296.5,164.7c-2,-4.4,-9.4,-2.9,-12.8,-.7c-2,1.2,-2.9,3.4,-3.8,5.5c-.1,.9,-.4,1.7,-.8,2.5c-.9,1.1,-2.9,2.3,-4,3.2c-1.1,1,-11.1,10.3,-12.2,6.9c-.4,-1.4,.7,-1.2,1.5,-2.5c1.2,-2,-.6,-6.4,.9,-7.7c.6,1.4,-.5,3.6,-1,4.8c-1.3,3.4,-3,6.1,-5,9.1c2.5,1.3,6.5,-.5,9.3,-.5M281,297.8c-4.7,2,-9.1,3.8,-13.4,6.6c-4.6,2.9,-9.2,5.3,-14.2,7.5c-9.3,4,-18.6,6.7,-28.8,6.8c-3.7,0,-6.7,-1.3,-10.2,-2.3c-1.7,-.3,-3.4,-.9,-4.9,-1.8c-1.4,-.7,-3.4,-1.3,-4.7,-2.2c-2.1,-1.6,-4.7,-5,-5.3,-7.5c-.5,-2,.9,-6.2,-1.4,-7.5c-2.1,.2,-3,5.8,-3.5,7.3c-.6,2.4,-1.7,4.7,-2,7.1c.6,-2.9,1.4,-5.7,2.1,-8.5c.4,-1.8,1.7,-3.6,1.7,-5.5c1.2,.7,2,1.4,3.5,1.7c3.5,.7,7.2,-.4,10.6,-.4M574.9,179.8c3.5,-.7,8.3,-.9,11.5,1c1.3,.8,1.7,2.5,2.6,3.5c1.2,1.5,2.6,2.3,3,4.4c.3,1.6,-.5,2.3,-.9,3.9c-.4,1.5,-.3,3,-.3,4.6c0,1.2,.1,2.5,-.1,3.8c-.3,1.6,-1.3,2.8,-1.7,4.4c-2,7.1,6.4,9.1,11.7,9.7c4.5,.6,8.3,.3,12.8,-.3c2.1,-.3,8,-1.6,9.6,-.3c.4,-1.8,-1.6,-1.7,-2.8,-2.2c-3,-1.2,-5.4,-2.1,-8.2,-3.8c2.2,-.3,4.6,.4,6.6,1.1c2,.7,4.4,.8,4.7,2.8c.1,1.2,-.7,2.3,-1.2,3.2c-.5,1,-1.1,2.5,-1.7,3.5c-.5,.8,-1.4,1.3,-1.7,2.1c-.4,.9,.2,1.5,-.5,2.3m-48.6,80.1c3.6,-.1,6.9,-1.5,10.2,-2.8c3.1,-1.2,5.7,-4.1,8.6,-5.7c3.1,-1.9,5.7,-5.4,8,-8.3c2.4,-3.1,5.7,-5.2,8.4,-8.1c2,-2.1,4.6,-4.7,6.1,-7.2c.8,-1.2,1.3,-1.9,2.2,-2.9c1.1,-1.2,1.8,-2.7,2.8,-3.8c1.6,-1.8,3.5,-3.3,4.9,-5.3c1.6,-2.2,2.4,-4.5,4.3,-6.6c-1.3,1.6,-3,2.2,-4.7,3.2c-1.8,1,-3,2.8,-4.8,3.9c-.7,.5,-1.6,.8,-2.3,1.3c.6,-.9,1.8,-1.3,2.4,-2.3c1,-1.3,.7,-1.6,1.9,-2.5c1.6,-1.2,3.7,-1.1,5.5,-1.7c.5,1,0,2,0,3.1c-.2,1.8,-.2,3.6,-.2,5.4c.1,1.4,.3,3.1,-.3,4.4c-.5,1,-1.6,1.7,-2.2,2.6" class="g1_573"/>
<image clip-path="url(#c4_573)" preserveAspectRatio="none" x="574" y="472" width="155" height="89" xlink:href="img/5.jpg"/>
<path d="M737.7,290.8c10.5,0,17.2,11.4,23,18.6c4,4.9,7.1,9.3,9.4,15.2c2,5.2,3,10.9,3.7,16.4c.7,5.7,.4,11.4,.4,17.1c0,4.3,.4,8.8,-.2,13.1c-1.6,11.8,-7.2,22.7,-12,33.4c-5,11.1,-10.4,22.1,-18.7,31.3c-2.6,2.9,-5.5,5.4,-7.9,8.6c-2.9,4,-5.6,8,-8.9,11.8c-2.1,2.4,-4.3,5.1,-7.2,6.8c-1.4,.9,-2.6,1.5,-3.9,2.6c-2.1,1.8,-3.6,3.4,-5.9,4.8c.3,-2.6,1.4,-4.7,1.3,-7.5c0,-2.7,-1.8,-7.4,.1,-9.8c3,1.1,1.4,9.2,1.1,11.2c-.5,2.3,-1,4.4,-.3,6.7c.2,.8,.8,1,.7,2.1c1.7,.4,3.7,-.8,5.1,-1.4c3,-1.2,5.5,-2.6,8.8,-2.3" class="g1_573"/>
<path d="M672.7,354l.4,43.6l127.9,-1l-.3,-43.7l-128,1.1Z" class="g2_573"/>
<path d="M479.1,486.5c-.6,-5.8,4.6,-13.2,7.7,-17.8c4.9,-7.3,11.4,-13.5,19.5,-16.9c10.1,-4.3,22.5,-7.2,33.3,-4.9c7.4,1.6,13.1,3.2,19.5,7.2c2.2,1.3,4.7,2.4,6.7,3.8c2,1.5,3.4,4,5.2,5.2c-1.9,-2.8,-1,-6.9,.7,-9.7c-1.9,3.4,-.6,9,1.1,12c-3.6,-.9,-10.3,2.9,-12,6.3M270.1,769.8c-1.7,1.1,-2.4,2.7,-2,4.6c-.3,-11.7,9.5,-27.6,21.7,-30.8c6.8,-1.9,16.9,1.9,22,6.2c.6,-3.3,-1.1,-6,-.9,-9.2c.1,4.7,4.4,4.8,7.2,6.8c-.6,1.5,-1.7,1.7,-3.1,2.5c-3.8,1.9,-6.4,5.2,-10.1,7.3c.3,-.3,.5,-.5,.8,-.7m43.2,140.4c1.9,-.8,1.7,-4.7,2.1,-6.4c.6,-2.5,1,-5.3,2.1,-7.7c1.5,-3.2,3.7,-6.1,5.8,-8.9c1.1,-1.4,2.4,-2.6,3.5,-3.9c.9,-1.1,1.4,-2.3,2.5,-3.2c.9,-.9,1.8,-1.9,2.7,-2.8c.7,-.7,2.1,-1.3,2.5,-2.3c-.9,-.3,-2.3,.3,-3.1,.6c-1.1,.4,-2.2,.9,-3.2,1.5c-.9,.5,-2.1,1.5,-3.2,1.6c.7,-1.2,3,-2.1,4.1,-2.7c.8,-.5,4.2,-2.4,5.1,-1.6c.8,.7,-.3,3.6,-.2,4.6c.1,1.8,.5,3.4,.5,5.1" class="g1_573"/>
<image clip-path="url(#c5_573)" preserveAspectRatio="none" x="658" y="712" width="64" height="163" xlink:href="img/6.jpg"/>
<image clip-path="url(#c6_573)" preserveAspectRatio="none" x="714" y="726" width="68" height="172" xlink:href="img/7.jpg"/>
<g clip-path="url(#c7_573)">
<path d="M-4.5,13.7H-27.4m939.5,0H935M-4.5,1031.2H-27.4m939.5,0H935M13.7,-4.5V-27.4m0,1077v22.9m880,-1077V-27.4m0,1077v22.9" class="g3_573"/>
<path d="M-4.5,13.7H-27.4m939.5,0H935M-4.5,1031.2H-27.4m939.5,0H935M13.7,-4.5V-27.4m0,1077v22.9m880,-1077V-27.4m0,1077v22.9" class="g4_573"/>
</g>
</svg>