<?xml version="1.0" encoding="UTF-8" standalone="no"?>
<!DOCTYPE svg PUBLIC "-//W3C//DTD SVG 1.1//EN"
"http://www.w3.org/Graphics/SVG/1.1/DTD/svg11.dtd">
<svg viewBox="0 0 907 1045" version="1.1" xmlns="http://www.w3.org/2000/svg" xmlns:xlink="http://www.w3.org/1999/xlink">
<defs>
<clipPath id="c0_46"><path d="M90.8,515V446.3h173V515Z"/></clipPath>
<clipPath id="c1_46"><path d="M-2.6,1047.7V-2.6H910.2V1047.7Z"/></clipPath>
<style type="text/css"><![CDATA[
.g0_46{
fill: #FFFFFF;
}
.g1_46{
}
.g2_46{
fill: #B5B5B5;
}
.g3_46{
fill: #333333;
}
.g4_46{
fill: #7B7B7B;
}
.g5_46{
fill: #8F8F8F;
}
.g6_46{
fill: #727272;
}
.g7_46{
fill: #C7C7C7;
}
.g8_46{
fill: #ABABAB;
}
.g9_46{
fill: #A7A7A7;
}
.ga_46{
fill: #E4E4E4;
}
.gb_46{
fill: #D2D2D2;
}
.gc_46{
fill: #CECECE;
}
.gd_46{
fill: #ECECEC;
}
.ge_46{
fill: #DCDCDC;
}
.gf_46{
fill: #DADADA;
}
.gg_46{
fill: #D5D5D5;
}
.gh_46{
fill: #3C3C3C;
}
.gi_46{
fill: none;
stroke: #000000;
stroke-width: 1.145;
stroke-linecap: butt;
stroke-linejoin: miter;
stroke-miterlimit: 4;
}
.gj_46{
fill: none;
stroke: #FFFFFF;
stroke-width: 1.909;
stroke-linecap: butt;
stroke-linejoin: miter;
}
.gk_46{
fill: none;
stroke: #000000;
stroke-width: 0.381;
stroke-linecap: butt;
stroke-linejoin: miter;
}
]]></style>
</defs>
<path d="M90.8,446.2V515h173V446.2H90.8Z" class="g0_46"/>
<path d="M143.5,499.9l-1,-.2l.3,.8l9.2,1.2l-6.4,-5.6l-.8,.5l-.5,.5l-.3,.7l-.3,.5l-.1,1.1l-.1,.5Z" class="g1_46"/>
<path d="M130.5,486.2v0l1.1,1.4l1,1.3l.3,.8l.4,1l.2,.8l.1,.9l.1,.9l-.4,.9l-.4,.7l-.8,.9l-1,.5l-1.4,.5l12.8,2.9l-.4,-1.3l-.1,-1l.2,-1l.3,-.7l.3,-.5l.3,-.4l.4,-.3l2.1,1.6l-4.5,-4.5l-3.3,-3.7l-1.3,-1.7l-.8,-1.3l-.2,.3l-.2,.4l-.4,.4l-.6,.3l-.9,.2h-1.3l-1.6,-.3Z" class="g2_46"/>
<path d="M142.5,499.7l1,.2l.1,-.5l.1,-1.1l.3,-.5l.3,-.7l.5,-.5l.8,-.5l-2.1,-1.6l-.4,.3l-.3,.4l-.3,.5l-.3,.7l-.2,1l.1,1l.4,1.3Z" class="g3_46"/>
<path d="M102.9,474.7v0l2.3,1.4l2.5,1.4l4.6,3.1l4.6,3.4l4.3,3.3l3.7,3.1l2.9,2.5l2.5,2.2l-.3,.6l.8,-.8l.7,-.8l.3,-1l.1,-1l-.1,-.9l-.2,-1l-.3,-.9l-.5,-.9l-1,-1.7l-1,-1.3l-1.2,-1.2l1.2,.4l1.3,.3l1.4,.3h1.2l2.1,-.3h.9l-1.8,-.5l-1.6,-.8l-3.9,-1.8l-4,-2l-4,-2.5l-3.8,-2.4l-3.5,-2.4L108,468.8l-1.5,.5l-1,.7l-.9,.7l-.7,.7l-.5,.9l-.3,.8l-.1,.8l-.1,.8Z" class="g4_46"/>
<path d="M129.6,496.9v0l.1,-.1l-.1,.1Z" class="g4_46"/>
<path d="M130,495.7v0l-.4,1.2l.1,-.1l1.4,-.5l1,-.5l.8,-.9l.4,-.7l.4,-.9l-.1,-.9l-.1,-.9l-.2,-.8l-.4,-1l-.3,-.8l-1,-1.3l-1.1,-1.4l1.6,.3h1.3l.9,-.2l.6,-.3l.4,-.4l.2,-.4l.2,-.3h-.9l-2.1,.3h-1.2l-1.4,-.3l-1.3,-.3l-1.2,-.4l1.2,1.2l1,1.3l1,1.7l.5,.9l.3,.9l.2,1l.1,.9l-.1,1l-.3,1l-.7,.8l-.8,.8Z" class="g5_46"/>
<path d="M92.6,465.2v0l-.3,.9l-.2,.6l.1,.8v.6l.3,1.1l.5,.8l.6,.8l.6,.4l.7,.5l1.4,.2l-.1,-1v-1l.3,-.8l.2,-.8l.3,-.7l.4,-.6l1,-1l.9,-.8l1,-.4l.8,-.4l.7,-.2l-1,-.9l-.7,-.5l-.9,-.4l-.8,-.4H97.3l-1.1,.1l-1.3,.4l-.7,.5l-.6,.6l-.6,.7l-.4,.9Z" class="g6_46"/>
<path d="M98.4,472.6v0l2.2,1l-.1,-.9l.1,-.8l.2,-.8l.5,-.9l.7,-.8l1,-.7l1.5,-.7l1.7,-.4l1.8,1.2l.5,-.2l-.4,-.5l-1.2,-1.3l-1,-.7l-1.1,-.8l-1.3,-.6l-1.5,-.5h-.2l.5,1l-.8,.2l-.7,.3l-.7,.3l-.4,.5l-.5,.5l-.3,.4l-.5,1.2l-.1,1.1l-.2,1.2l.1,.9l.2,.8Z" class="g7_46"/>
<path d="M100.6,473.6v0l2.3,1.1l.1,-.8l.1,-.8l.3,-.8l.5,-.9l.7,-.7l.9,-.7l1,-.7l1.5,-.5l-1.8,-1.2l-1.7,.4l-1.5,.7l-1,.7l-.7,.8l-.5,.9l-.2,.8l-.1,.8l.1,.9Z" class="g8_46"/>
<path d="M96.3,471.9v0l2.1,.7l-.2,-.8l-.1,-.9l.2,-1.2l.1,-1.1l.5,-1.2l.3,-.4l.5,-.5l.4,-.5l.7,-.3l.7,-.3l.8,-.2l-.5,-1l-.7,.2l-.8,.4l-1,.4l-.9,.8l-1,1l-.4,.6l-.3,.7l-.2,.8l-.3,.8v1l.1,1Z" class="g9_46"/>
<path d="M128.3,496.6l.1,-.1l-.1,.1Z" class="ga_46"/>
<path d="M128.4,496.5v0l.5,.5l.7,-.1l-1.2,-.4Z" class="gb_46"/>
<path d="M103.3,476.6v0l1.9,1l1.9,1.2l4,2.7l4,3l3.6,3l3.3,3l2.9,2.5l3.5,3.5l.8,-.3l.8,-.5l.3,-.6l-2.5,-2.2l-2.9,-2.5l-3.7,-3.1L116.9,484l-4.6,-3.4l-4.6,-3.1l-2.5,-1.4l-2.3,-1.4l.2,1l.2,.9Z" class="g5_46"/>
<path d="M128.4,496.5l1.2,.4l.4,-1.2l-.8,.5l-.8,.3Z" class="g5_46"/>
<path d="M92.7,463.8v0l-1,2.5l-.8,2.7l.3,.9l.5,.8l.6,.6l.6,.6l.7,.6l.9,.5l.9,.2l1.2,.3l-.3,-1.6l-1.4,-.2l-.7,-.5l-.6,-.4L93,470l-.5,-.8l-.3,-1.1v-.6l-.1,-.8l.2,-.6l.3,-.9l.4,-.9l.6,-.7l.6,-.6l.7,-.5l-1.3,.6l-.9,.7Z" class="gc_46"/>
<path d="M104.3,478.9v0l-.4,-.6l-.4,-.9l-.2,-.8l-2.2,-1.1l-.3,-.6l-.2,-.6v-.7l-2.2,-1l.2,.9l-1.1,.1l-.9,-.1v.8l.8,.7l.6,.8l1,.8l1.1,.8l1.3,.7l1.4,.6l.8,.1l.7,.1Z" class="gd_46"/>
<path d="M101.1,475.5v0l2.2,1.1l-.2,-.9l-.2,-1l-2.3,-1.1v.7l.2,.6l.3,.6Z" class="ge_46"/>
<path d="M98.4,472.6v0l-2.1,-.7l.3,1.6l.9,.1l1.1,-.1l-.2,-.9Z" class="gf_46"/>
<path clip-path="url(#c0_46)" d="M90.9,469v0l.8,-2.7l1,-2.5l-.6,.6l-.4,.6l-.5,.5l-.2,.7l-.1,.8l-.1,.7v.7l.1,.6Z" class="gg_46"/>
<path d="M126.7,496.2v0L121,491.7l-6,-4.6l-6,-4.5l-3,-1.9l-3.2,-2l-.2,.5l1.6,.8l1.6,1.2l3.1,2.1l6,4.4l5.9,4.5l2.8,2.2l2.8,2.3v-.1l.3,-.4Z" class="gh_46"/>
<path d="M134.4,481.7v0l-6.5,-3.1l-6.5,-3.3l-3.3,-1.6L115,472l-3.1,-1.9l-3.1,-2l-.3,.5l3.1,2l3.1,1.8l3.1,1.8l3.3,1.7l6.6,3.2l6.4,3.1l.3,-.5Z" class="gh_46"/>
<path d="M104.4,480.3v0l-.9,-1l-.6,-1.1l-.2,-1.1l-.2,-1.4l.1,-1.4L103,473l.5,-1.4l.4,-.6l.5,-.4l1.1,-.9l1.2,-.6l1.2,-.5l1.4,-.5l-.3,-.5l-1.4,.5l-1.2,.5l-1.3,.8l-1.1,.9l-.5,.6l-.5,.5l-.5,1.4l-.5,1.5l-.1,1.6l.2,1.3l.3,1.3l.8,1.2l.4,.5l.4,.5l.4,-.4Z" class="gh_46"/>
<path d="M100.3,477v0l-.4,-.9l-.4,-1l-.1,-.9l-.3,-1l.1,-1.1l.2,-1l.2,-.9l.3,-1l.5,-.9l.6,-.8l.7,-.6l.7,-.5l1,-.6l.9,-.2l.9,-.2h1v-.6l-1,.1L104,465l-.9,.4l-.9,.4l-.8,.5l-.8,.9l-.7,.7l-.5,.9l-.4,1l-.3,1.2v2.2l.1,1l.3,1l.2,1l.6,1.1l.4,-.3Z" class="gh_46"/>
<path d="M98,474.7v0l-.4,-1.6v-2.9l.3,-1.4l.3,-1l.4,-.8l.6,-.7l.5,-.6l.8,-.5l.6,-.5l1.7,-.9l-.3,-.5l-1.7,.9l-.7,.5l-.7,.6l-.6,.6l-.6,.8l-.5,.9l-.4,.8l-.2,1.6l-.1,1.6l.1,1.7l.4,1.5l.5,-.1Z" class="gh_46"/>
<path d="M105.9,465.9v0L104,464.4l-1.7,-1.7l-.4,.4l1.8,1.7l1.9,1.5l.3,-.4Z" class="gh_46"/>
<path d="M101.6,476.9v0l-2.5,-1.4l-2.5,-1.2l-.2,.5l2.4,1.2l2.5,1.4l.3,-.5Z" class="gh_46"/>
<path d="M95.8,473.3v0l-1.3,-.8l-1.3,-.9l-.6,-.6l-.4,-.5l-.3,-.8l-.2,-.7l-.2,-1.2v-1.1l.3,-1.1l.6,-.9l.7,-1l1.1,-.7l.9,-.6l1,-.4l1.3,-.3h1l1.3,.3l1.1,.3l.2,-.5l-1.2,-.4l-1.2,-.2H97.3l-1.3,.2l-1.2,.5l-1.1,.6l-.9,.8l-.8,1l-.4,.7l-.3,.7l-.3,.7l.1,.7l-.1,1.4l.3,1.5l.4,.7l.4,.6l1,1l1.1,.8l1.4,.7l.2,-.5Z" class="gh_46"/>
<path d="M132.2,485.8v0L128.8,484l-3.4,-1.7l-3.3,-1.9l-3.3,-1.9l-6.5,-4.2L106.1,470l-.3,.6l6.4,4.2l6.4,4.2l3.2,1.9l3.3,1.9l3.4,1.8l3.4,1.7l.3,-.5Z" class="gh_46"/>
<path d="M136.8,485v0l-1.1,.3l-1.3,.2l-2.5,.3v.6l2.6,-.3l1.3,-.2l1.3,-.3l-.3,-.6Z" class="gh_46"/>
<path d="M154,502.3v0l-6,-1.4l-6.2,-1l-6.1,-1.1l-6.2,-.9v.5l6,.9l6.2,1l6.1,1.2l6,1.4l.2,-.6Z" class="gh_46"/>
<path d="M154.1,501.6v0l-4.7,-4.3L145,492.6l-4.4,-4.7L136.4,483l-.4,.2l4.1,5.1l4.4,4.7l4.6,4.7l4.6,4.3l.4,-.4Z" class="gh_46"/>
<path d="M145.6,500.3v0l-.3,-.7l-.3,-.9V497l.5,-.7l.4,-.7l.4,-.7l.6,-.5l-.3,-.5l-.7,.6l-.6,.8l-.5,.7l-.2,1l-.2,.8l.1,1.1l.2,.8l.4,.9l.5,-.3Z" class="gh_46"/>
<path d="M90.8,579.9H710.4m-619.6,55H710.4m-619.6,55H710.4m-619.6,55H710.4m-619.6,55H710.4m-619.6,55H710.4m-619.6,55H710.4" class="gi_46"/>
<g clip-path="url(#c1_46)">
<path d="M-4.5,13.7H-27.4m939.5,0H935M-4.5,1031.2H-27.4m939.5,0H935M13.7,-4.5V-27.4m0,1077v22.9m880,-1077V-27.4m0,1077v22.9" class="gj_46"/>
<path d="M-4.5,13.7H-27.4m939.5,0H935M-4.5,1031.2H-27.4m939.5,0H935M13.7,-4.5V-27.4m0,1077v22.9m880,-1077V-27.4m0,1077v22.9" class="gk_46"/>
</g>
</svg>