<?xml version="1.0" encoding="UTF-8" standalone="no"?>
<!DOCTYPE svg PUBLIC "-//W3C//DTD SVG 1.1//EN"
"http://www.w3.org/Graphics/SVG/1.1/DTD/svg11.dtd">
<svg viewBox="0 0 811 1017" version="1.1" xmlns="http://www.w3.org/2000/svg" xmlns:xlink="http://www.w3.org/1999/xlink">
<defs>
<clipPath id="c0_428"><path d="M87.4,475.2V82.5H710.7V475.2Z"/></clipPath>
<style type="text/css"><![CDATA[
.g0_428{
fill: #70A6CC;
}
.g1_428{
fill: #FFFFFF;
}
.g2_428{
fill: #231F20;
}
.g3_428{
fill: #C4E5B6;
}
.g4_428{
fill: #EC2224;
}
]]></style>
</defs>
<path d="M142.4,737.8H710.7V716.6H142.4Z" class="g0_428"/>
<path clip-path="url(#c0_428)" d="M88.5,381.2H710.7V84.4H88.5Z" class="g1_428"/>
<path d="M537.1,225v.4H663.5v51h-126V225h-.4v.4V225h-.4v51.7l.1,.3l.3,.1H663.9l.2,-.1l.2,-.3V225l-.2,-.3l-.2,-.1H537.1l-.3,.1l-.1,.3h.4Z" class="g2_428"/>
<path d="M123.7,225.2v.4H250.1v51h-126V225.2h-.4v.4v-.4h-.4V277l.1,.3l.3,.1H250.5l.3,-.1l.1,-.3V225.2l-.1,-.2l-.3,-.1H123.7l-.3,.1l-.1,.2h.4Z" class="g2_428"/>
<path d="M311.7,276H438.5V224.2H311.7Z" class="g3_428"/>
<path d="M311.7,224.2v.4H438.1v51h-126V224.2h-.4v.4v-.4h-.4V276l.2,.3l.2,.1H438.5l.3,-.1l.1,-.3V224.2l-.1,-.2l-.3,-.1H311.7l-.2,.1l-.2,.2h.4Z" class="g2_428"/>
<path d="M250.5,243.8l54.5,-.3v-.7l-54.5,.3Z" class="g2_428"/>
<path d="M303.5,245.4l8.2,-2.3l-8.3,-2.2l.1,4.5Z" class="g2_428"/>
<path d="M437.9,245.3l92,-.3v-.8l-92,.3Z" class="g2_428"/>
<path d="M528.4,246.8l8.2,-2.2l-8.2,-2.2v4.4Z" class="g2_428"/>
<path d="M275.8,270.7L298.5,249l-1.4,-1.5l-22.8,21.6Z" class="g4_428"/>
<path d="M298.3,270.3L276.6,247.6l-1.5,1.4l21.6,22.8Z" class="g4_428"/>
<path d="M311,257.9H258.3v.8l52.7,-.1Z" class="g2_428"/>
<path d="M259.8,256.1l-8.3,2.2l8.3,2.2v-4.4Z" class="g2_428"/>
<path d="M536.7,260.6H447.3v.8l89.4,-.1Z" class="g2_428"/>
<path d="M448.9,258.8l-8.3,2.2l8.3,2.2v-4.4Z" class="g2_428"/>
<path d="M227.4,146.4c0,14.4,3.9,21.3,8,27c4.1,5.8,8.3,10.2,9.3,20h.4c-.9,-9.9,-5.3,-14.6,-9.4,-20.2c-4,-5.7,-7.9,-12.4,-7.9,-26.8h-.4Z" class="g2_428"/>
<path d="M241.9,192.7l3.2,4.8l2.5,-5.1l-5.7,.3Z" class="g2_428"/>
<path d="M518.2,175.5c0,11.7,-1.6,17.7,-4,21c-1.8,2.4,-4,3.4,-6.4,4c-3.6,1,-7.7,1.2,-10.8,5c-3.2,3.7,-5.5,10.8,-5.9,25.4h.5c.3,-12.9,2.1,-19.9,4.7,-23.8c1.9,-2.9,4.2,-4.1,6.7,-4.9c3.6,-1.1,7.6,-1.2,10.6,-4.3c3,-3.1,5.1,-9.2,5.1,-22.4h-.5Z" class="g2_428"/>
<path d="M488.6,230l2.7,5.1l3,-4.9l-5.7,-.2Z" class="g2_428"/>
<path d="M537.7,332.8c0,-3.9,-1.3,-6.8,-3.2,-9.1c-2.9,-3.5,-7.2,-5.7,-10.9,-9c-3.8,-3.3,-7.1,-7.5,-8,-14.9l-.4,.1c1.2,10,6.8,14.4,12,18.2c2.6,1.9,5.1,3.6,6.9,5.9c1.9,2.2,3.1,4.9,3.1,8.8h.5Z" class="g2_428"/>
<path d="M518.4,300.5l-3.2,-4.8l-2.5,5.2l5.7,-.4Z" class="g2_428"/>
<path d="M227,334.8c.3,-6.5,3.6,-10.8,8.6,-14.3c7.5,-5.2,18.6,-8.3,28.4,-13.5c9.8,-5.2,18.2,-12.5,19.9,-26.2h-.4c-1.2,8.9,-5.2,15.1,-10.7,19.8c-8.1,7,-19.5,10.6,-28.9,14.9c-4.7,2.1,-8.9,4.4,-12,7.4c-3.2,3.1,-5.1,6.9,-5.3,11.8l.4,.1Z" class="g2_428"/>
<path d="M286.4,281.9L284,276.7l-3.3,4.7l5.7,.5Z" class="g2_428"/>
</svg>