<?xml version="1.0" encoding="UTF-8" standalone="no"?>
<!DOCTYPE svg PUBLIC "-//W3C//DTD SVG 1.1//EN"
"http://www.w3.org/Graphics/SVG/1.1/DTD/svg11.dtd">
<svg viewBox="0 0 931 1096" version="1.1" xmlns="http://www.w3.org/2000/svg" xmlns:xlink="http://www.w3.org/1999/xlink">
<defs>
<clipPath id="c0_26"><path d="M42,174.7V47.9H906.7V174.7Z"/></clipPath>
<clipPath id="c1_26"><path d="M397.5,1046.7V729.4H822.6v317.3Z"/></clipPath>
<clipPath id="c2_26"><path d="M397.8,1074.4V716H843.3v358.4Z"/></clipPath>
<clipPath id="c3_26"><path d="M607.3,1033c-31.8,0,-185.7,-2.4,-192.9,-2.4c-4.6,0,-11.5,-5.1,-11.5,-14.9c0,-6.3,-.9,-131.5,-1,-139.6c-.1,-8.4,-1.4,-122.8,-1.6,-133.4c-.1,-8.7,9.2,-11.8,15.7,-12.5H632.8c46.8,.1,144.9,.3,158.8,.3c7.7,0,11.3,5.4,11,16.8c-.3,10,1,91.2,-.4,141.3c-.8,27.9,-3.1,113.2,-3.1,124c0,13.2,-8,15.5,-13.7,15.7c-9.9,.3,-140.8,4.7,-178.1,4.7Z"/></clipPath>
<clipPath id="c4_26"><path d="M67.4,489.3V212.1H357.8V489.3Z"/></clipPath>
<clipPath id="c5_26"><path d="M176.5,476.7c-56.3,0,-105.5,0,-108.8,-.1V233c0,-.3,0,-.4,0,-.5c.1,-.3,.1,-.6,0,-.9v-4.4c.2,-.5,.4,-1.1,.8,-1.8c4.4,-2.6,15.5,-3,19.7,-3.8c3.8,-1.2,14.3,-2.6,15.6,-2.9c-.2,0,-.5,0,-.7,0c-1.2,0,-1.4,-.1,0,-.1c.2,0,.4,-.1,.6,-.1c.4,0,.4,.1,.1,.2c3.3,-.1,10.1,-.2,12.8,-.5c5.8,-.7,36.1,-5.7,90.9,-5.7c11.3,0,57.1,1.9,70.7,3c13.6,1.2,38.2,4.2,41.6,4.4c.3,0,.6,0,.8,0c.9,0,1.2,-.1,1.3,-.2c.2,-.1,.3,-.2,.6,-.2c.3,0,.7,.1,1.3,.2c2.9,.6,6.7,1.7,6.7,1.7c3.7,.8,8.7,1.6,11.5,1.9c1.3,.2,2.2,.3,3,.5V476.6c-12.9,.1,-77,.1,-140.3,.1Z"/></clipPath>
<clipPath id="c6_26"><path d="M395.7,718.5V502.3H827.5V718.5Z"/></clipPath>
<clipPath id="c7_26"><path d="M396.1,705.5V502.9H814.5V705.5Z"/></clipPath>
<clipPath id="c8_26"><path d="M745.2,705.5l-314.9,-.4c-1.6,.1,-3.2,.2,-4.8,.2c-21.2,0,-28.2,-9,-29.4,-27.1V533.8c1,-17,7,-30.9,32.7,-30.9h.2l357.5,.3c21.2,0,28,17,28,37.1l-.8,130.8c0,23.7,-5.9,33.7,-30.1,34.4Z"/></clipPath>
<clipPath id="c9_26"><path d="M0,46.9V0H931.9V46.9Z"/></clipPath>
<style type="text/css"><![CDATA[
.g0_26{
fill: #E5E3DF;
}
.g1_26{
fill: none;
stroke: #241F1F;
stroke-width: 3.055;
stroke-linejoin: round;
}
.g2_26{
fill: none;
stroke: #241F1F;
stroke-width: 10.694;
stroke-miterlimit: 10;
}
.g3_26{
fill: #BBB9BB;
}
]]></style>
</defs>
<image clip-path="url(#c0_26)" preserveAspectRatio="none" x="42" y="48" width="865" height="127" xlink:href="img/1.png"/>
<image clip-path="url(#c1_26)" preserveAspectRatio="none" x="397" y="729" width="425" height="318" xlink:href="img/2.png"/>
<path clip-path="url(#c2_26)" d="M810,1013.2c0,11.4,-8.6,20.6,-19.4,20.6H415.4c-10.7,0,-19.4,-9.2,-19.4,-20.6V750.4c0,-11.4,8.7,-20.6,19.4,-20.6H790.6c10.8,0,19.4,9.2,19.4,20.6Z" class="g0_26"/>
<image clip-path="url(#c3_26)" preserveAspectRatio="none" x="399" y="730" width="405" height="304" xlink:href="img/3.jpg"/>
<path d="M432,1005.2H773.7V758.7H432v246.5Z" class="g1_26"/>
<path d="M768.8,766.4l.1,239.3" class="g2_26"/>
<image clip-path="url(#c4_26)" preserveAspectRatio="none" x="67" y="212" width="291" height="277" xlink:href="img/4.png"/>
<image clip-path="url(#c5_26)" preserveAspectRatio="none" x="68" y="212" width="277" height="265" xlink:href="img/5.jpg"/>
<image clip-path="url(#c6_26)" preserveAspectRatio="none" x="396" y="502" width="431" height="217" xlink:href="img/6.png"/>
<path clip-path="url(#c7_26)" d="M813.7,671.1c0,24.6,-6.4,34.4,-32.9,34.4l-350.5,-.4c-27.6,1.6,-34.4,-9.4,-34.4,-33.2V540.7c0,-20.1,3.8,-37.8,33.1,-37.8l357.5,.3c21.2,0,28,17,28,37.1Z" class="g3_26"/>
<image clip-path="url(#c8_26)" preserveAspectRatio="none" x="396" y="503" width="419" height="203" xlink:href="img/7.jpg"/>
<image clip-path="url(#c9_26)" preserveAspectRatio="none" x="0" y="-19" width="1887" height="66" xlink:href="img/8.png"/>
</svg>