<?xml version="1.0" encoding="UTF-8" standalone="no"?>
<!DOCTYPE svg PUBLIC "-//W3C//DTD SVG 1.1//EN"
"http://www.w3.org/Graphics/SVG/1.1/DTD/svg11.dtd">
<svg viewBox="0 0 931 1096" version="1.1" xmlns="http://www.w3.org/2000/svg" xmlns:xlink="http://www.w3.org/1999/xlink">
<defs>
<clipPath id="c0_221"><path d="M133.7,992.3V976.4H254.8v15.9Z"/></clipPath>
<style type="text/css"><![CDATA[
.g0_221{
fill: none;
stroke: #00AEEF;
stroke-width: 0.763;
stroke-miterlimit: 10;
}
.g1_221{
fill: none;
stroke: #00AEEF;
stroke-width: 0.763;
stroke-linejoin: round;
}
.g2_221{
fill: none;
stroke: #241F1F;
stroke-width: 0.611;
stroke-miterlimit: 3;
}
.g3_221{
fill: #241F1F;
}
.g4_221{
fill: none;
stroke: #241F1F;
stroke-width: 0.687;
stroke-miterlimit: 10;
}
]]></style>
</defs>
<path d="M108.5,1008.9H466" class="g0_221"/>
<path d="M243.6,446.2l9,-4.3m-23.9,4.3l2.7,-4.3m-20.8,4.3l1.6,-4.3m-19.7,4.3l1.1,-4.3m-19.1,4.3l.5,-4.3m219.5,13.3l.6,-4.2m-19.2,4.2L377,451m-19.7,4.2l1.1,-4.2m-19.7,4.2l2.1,-4.2m-22.3,4.2l5.9,-4.2m-26.1,2.1h9.6M280.3,452l9,2.1m-27.7,-1h9.6m-26,2.1L251,451m-22.3,4.2l2.1,-4.2m-19.7,4.2l1.1,-4.2m-19.7,4.2l1.1,-4.2m-19.1,4.2L175,451m219.5,13.8l.6,-4.8m-19.2,4.8L377,460m-19.7,4.8l1.1,-4.8m-19.7,4.8l2.1,-4.8m-21.7,4.8l4.7,-4.8m-25.5,3.2l9.6,-1.6m-27.6,.5l9,.5m-27.7,.6l9.6,-1.6m-25.5,3.2l4.8,-4.8m-21.8,4.8l2.1,-4.8m-19.7,4.8l1.1,-4.8m-19.7,4.8l1.1,-4.8m-19.1,4.8L175,460m219.5,13.8l.6,-4.8m-19.2,4.8l.6,-4.8m-19.2,4.8l1.1,-4.8m-19.7,4.8l2.1,-4.8m-21.7,4.8l4.7,-4.8m-25.5,3.7l9.6,-2.6m-27.6,1.6h9m-27.7,1l9.6,-2.6m-25.5,3.7l4.8,-4.8m-21.8,4.8l2.1,-4.8m-19.7,4.8l1.1,-4.8m-19.1,4.8l.5,-4.8m-19.1,4.8L175,469m219.5,13.8l.6,-4.7m-19.2,4.7l1.1,-4.7m-19.7,4.7l1.1,-4.7m-19.7,4.7l2.1,-4.7m-21.7,4.7l4.7,-4.7m-25.5,3.1l9.6,-1.5m-27.6,.5l9,.5m-27.7,.5l9.6,-1.5m-25.5,3.1l4.8,-4.7m-21.8,4.7l2.1,-4.7m-19.7,4.7l1.1,-4.7m-19.7,4.7l1.1,-4.7m-19.1,4.7l.5,-4.7m219.5,13.8l.6,-4.3m-19.2,4.3l1.1,-4.3m-19.7,4.3l1.1,-4.3m-19.7,4.3l2.1,-4.3m-22.3,4.3l5.9,-4.3m-26.1,2.2h9.6m-27.6,-1.1l9,2.1m-27.7,-1h9.6m-26,2.1l5.8,-4.3m-22.3,4.3l2.1,-4.3m-19.7,4.3l1.1,-4.3m-19.7,4.3l1.1,-4.3m-19.1,4.3l.5,-4.3m219.5,13.8l.6,-4.7m-19.2,4.7l1.1,-4.7m-19.7,4.7l1.6,-4.7m-20.7,4.7l2.6,-4.7m-23.9,4.2l9.1,-4.2m-27.7,1l9.6,2.7m-19.1,1l-8,-4.7m-19.2,1l9.6,2.7m-27.6,.5l9,-4.2m-23.9,4.7l2.7,-4.7m-20.8,4.7l1.6,-4.7m-19.7,4.7l1.1,-4.7m-19.1,4.7l.5,-4.7m219.5,13.8l.6,-4.8m-19.2,4.8l1.1,-4.8m-19.7,4.8l1.6,-4.8m-21.2,4.8l3.7,-4.8m-24.5,2.1H326m-19.7,2.7l-6.4,-4.8m-12.7,4.8l-4.8,-4.8m-12.8,4.8l-6.4,-4.8m-19.6,2.1h9m-24.4,2.7l3.7,-4.8m-21.3,4.8l1.6,-4.8m-19.7,4.8l1.1,-4.8m-19.1,4.8l.5,-4.8m219.5,13.8l.6,-4.8m-19.2,4.8l1.1,-4.8m-19.7,4.8l1.6,-4.8m-22.3,4.8l6.4,-4.8m-17.6,4.8l-7.9,-4.8m-12.8,4.8l-3.2,-4.8m-15.4,4.8l-2.7,-4.8M268,519.5l-3.2,-4.8m-12.7,4.8l-8,-4.8m-17.5,4.8l6.3,-4.8m-22.3,4.8l1.6,-4.8m-19.7,4.8l1.1,-4.8m-19.1,4.8l.5,-4.8m219.5,13.9l.6,-4.3m-19.2,4.3l1.1,-4.3m-20.2,4.3l2.7,-4.3M335,526.4h9.6m-21.3,2.2l-3.7,-4.3m-15.4,4.3L302,524.3m-16.4,4.3L284,524.3m-16.5,4.3l-2.1,-4.3m-15.5,4.3l-3.7,-4.3M225,526.4h9.5m-24.4,2.2l2.6,-4.3m-20.2,4.3l1.1,-4.3m-19.1,4.3l.5,-4.3m219.5,13.3l.6,-4.3m-19.7,4.3l1.6,-4.3m-21.3,4.3l4.8,-4.3m-18,4.3l-5.4,-4.3m-14.3,4.3l-2.7,-4.3m-16.5,4.3L302,533.3m-16.4,4.3L284,533.3m-16.5,4.3l-1.6,-4.3m-16.5,4.3l-2.6,-4.3m-14.4,4.3l-5.3,-4.3M209,537.6l4.8,-4.3m-21.3,4.3l1.6,-4.3m-19.6,4.3l.5,-4.3m219,13.9l1.1,-4.8m-19.7,4.8l2.1,-4.8m-23.9,2.1h9m-21.8,2.7l-2.6,-4.8m-15.9,4.8l-1.6,-4.8m-17.1,4.8l-1,-4.8m-17,4.8L284,542.4m-17,4.8l-1.1,-4.8m-17,4.8l-1.6,-4.8m-15.9,4.8l-2.7,-4.8m-21.8,2.1h9M192,547.2l2.1,-4.8m-19.6,4.8l1,-4.8M394,556.2l1.1,-4.8m-20.8,4.8l3.8,-4.8M360,556.2l-4.3,-4.8m-15.4,4.8l-1.6,-4.8m-17,4.8l-1,-4.8m-17.1,4.8l-1,-4.8M285,556.2l-.5,-4.8M267,556.2l-1.1,-4.8m-17,4.8l-1.1,-4.8m-17,4.8l-1.6,-4.8m-15.4,4.8l-4.2,-4.8m-18.1,4.8l3.7,-4.8m-20.7,4.8l1,-4.8M394,565.2l1.6,-4.2m-23.9,2.1h9m-21.8,2.1L356.8,561m-16.5,4.2l-1,-4.2m-17.6,4.2l-.5,-4.2m-17.6,4.2l-1,-4.2M285,565.2l-.5,-4.2M267,565.2L265.9,561m-17.5,4.2l-.6,-4.2m-17.5,4.2L229.2,561m-16.5,4.2L210.6,561m-21.8,2.1h9.1m-24,2.1l1.6,-4.2M393,574.3l3.1,-4.3m-18,4.3L374.9,570m-16,4.3L357.3,570m-17,4.3l-1,-4.3m-17.6,4.3l-.5,-4.3m-17.6,4.3l-1,-4.3M285,574.3l-.5,-4.3M267,574.3L265.9,570m-17.5,4.3l-.6,-4.3m-17.5,4.3L229.2,570m-17,4.3L210.6,570m-15.9,4.3L191.5,570m-18.1,4.3l3.2,-4.3m213.7,11.2h9M377,583.8l-1.6,-4.7m-17,4.7l-1.1,-4.7m-17,4.7l-1,-4.7m-17.6,4.7l-.5,-4.7m-18.1,4.7l-.5,-4.7M285,583.8l-.5,-4.7M267,583.8l-.6,-4.7m-18,4.7l-.6,-4.7m-17.5,4.7l-1.1,-4.7m-17,4.7l-1.1,-4.7m-17,4.7l-1.6,-4.7m-22.3,2.1h9.1m211,-219.6h9M377,363.8L375.4,359m-17,4.8L357.3,359m-17,4.8l-1,-4.8m-17.6,4.8l-.5,-4.8m-18.1,4.8l-.5,-4.8M285,363.8l-.5,-4.8M267,363.8l-.6,-4.8m-18,4.8l-.6,-4.8m-17.5,4.8L229.2,359m-17,4.8L211.1,359m-17,4.8L192.5,359m-22.3,2.6h9.1M393,372.8l3.1,-4.3m-18,4.3l-3.2,-4.3m-16,4.3l-1.6,-4.3m-17,4.3l-1,-4.3m-17.6,4.3l-.5,-4.3m-17.6,4.3l-1,-4.3M285,372.8l-.5,-4.3M267,372.8l-1.1,-4.3m-17.5,4.3l-.6,-4.3m-17.5,4.3l-1.1,-4.3m-17,4.3l-1.6,-4.3m-15.9,4.3l-3.2,-4.3m-18.1,4.3l3.2,-4.3M394,382.4l1.6,-4.8m-23.9,2.1h9m-21.8,2.7l-2.1,-4.8m-16.5,4.8l-1,-4.8m-17.6,4.8l-.5,-4.8m-17.6,4.8l-1,-4.8M285,382.4l-.5,-4.8M267,382.4l-1.1,-4.8m-17.5,4.8l-.6,-4.8m-17.5,4.8l-1.1,-4.8m-16.5,4.8l-2.1,-4.8m-21.8,2.1h9.1m-24,2.7l1.6,-4.8M394,391.4l1.1,-4.8m-20.8,4.8l3.8,-4.8M360,391.4l-4.3,-4.8m-15.4,4.8l-1.6,-4.8m-17,4.8l-1,-4.8m-17.1,4.8l-1,-4.8M285,391.4l-.5,-4.8M267,391.4l-1.1,-4.8m-17,4.8l-1.1,-4.8m-17,4.8l-1.6,-4.8m-15.4,4.8l-4.2,-4.8m-18.1,4.8l3.7,-4.8m-20.7,4.8l1,-4.8M394,400.4l1.1,-4.7m-19.7,4.7l2.1,-4.7m-23.9,2.6h9m-21.8,2.1l-2.6,-4.7m-15.9,4.7l-1.6,-4.7m-17.1,4.7l-1,-4.7m-17,4.7L284,395.7m-17,4.7l-1.1,-4.7m-17,4.7l-1.6,-4.7m-15.9,4.7l-2.7,-4.7m-21.8,2.6h9M192,400.4l2.1,-4.7m-19.6,4.7l1,-4.7m219,13.8l.6,-4.3m-19.7,4.3l1.6,-4.3m-21.3,4.3l4.8,-4.3m-18,4.3l-5.4,-4.3m-14.3,4.3l-2.7,-4.3m-16.5,4.3L302,405.2m-16.4,4.3L284,405.2m-16.5,4.3l-1.6,-4.3m-16.5,4.3l-2.6,-4.3m-14.4,4.3l-5.3,-4.3M209,409.5l4.8,-4.3m-21.3,4.3l1.6,-4.3m-19.6,4.3l.5,-4.3m219.5,13.3l.6,-4.2m-19.2,4.2l1.1,-4.2m-20.2,4.2l2.7,-4.2M335,416.4h9.6m-21.3,2.1l-3.7,-4.2m-15.4,4.2L302,414.3m-16.4,4.2L284,414.3m-16.5,4.2l-2.1,-4.2m-15.5,4.2l-3.7,-4.2M225,416.4h9.5m-24.4,2.1l2.6,-4.2m-20.2,4.2l1.1,-4.2m-19.1,4.2l.5,-4.2m219.5,13.8l.6,-4.8m-19.2,4.8l1.1,-4.8m-19.7,4.8l1.6,-4.8m-22.3,4.8l6.4,-4.8m-17.6,4.8l-7.9,-4.8m-12.8,4.8l-3.2,-4.8m-15.4,4.8l-2.7,-4.8M268,428.1l-3.2,-4.8m-12.7,4.8l-8,-4.8m-17.5,4.8l6.3,-4.8m-22.3,4.8l1.6,-4.8m-19.7,4.8l1.1,-4.8m-19.1,4.8l.5,-4.8m219.5,13.8l.6,-4.8m-19.2,4.8l1.1,-4.8m-19.7,4.8l1.6,-4.8m-21.2,4.8l3.7,-4.8M316.9,435H326m-19.7,2.1l-6.4,-4.8m-12.7,4.8l-4.8,-4.8m-12.8,4.8l-6.4,-4.8M243.6,435h9m-24.4,2.1l3.7,-4.8m-21.3,4.8l1.6,-4.8m-19.7,4.8l1.1,-4.8m-19.1,4.8l.5,-4.8m219.5,13.9l.6,-4.3m-19.2,4.3l1.1,-4.3m-19.7,4.3l1.6,-4.3m-20.7,4.3l2.6,-4.3m-23.9,4.3l9.1,-4.3m-27.7,.5l9.6,3.2m-19.1,.6l-8,-4.3m-19.2,.5l9.6,3.2" class="g1_221"/>
<path d="M284.8,595.3V347.8" class="g2_221"/>
<path fill-rule="evenodd" d="M284.8,347.8l-2.5,1.6l2.5,-6.5l2.4,6.5Z" class="g3_221"/>
<path d="M161,471.5H408.5" class="g2_221"/>
<path fill-rule="evenodd" d="M408.5,471.5l-1.6,-2.4l6.5,2.4l-6.5,2.5Z" class="g3_221"/>
<path d="M281.7,508.2h6.1m-6.1,-73.3h6.1m-6.1,110h6.1M281.7,398.2h6.1m-39.7,70.3v6.1m-36.6,-6.1v6.1m146.6,-6.1v6.1m-36.6,-6.1v6.1m73.3,-6.1v6.1m-220,-6.1v6.1M281.7,361.5h6.1m-6.1,220h6.1" class="g2_221"/>
<path d="M330.4,943.8h17.8" class="g4_221"/>
<path clip-path="url(#c0_221)" d="M245.6,976.7h9.5" class="g4_221"/>
<path d="M502.7,235.8H878.5M502.7,362.6H878.5" class="g0_221"/>
<path d="M528.2,137h16.3m30.3,293.4h19.3m79.7,0h31.5" class="g4_221"/>
</svg>