<?xml version="1.0" encoding="UTF-8" standalone="no"?>
<!DOCTYPE svg PUBLIC "-//W3C//DTD SVG 1.1//EN"
"http://www.w3.org/Graphics/SVG/1.1/DTD/svg11.dtd">
<svg viewBox="0 0 907 1045" version="1.1" xmlns="http://www.w3.org/2000/svg" xmlns:xlink="http://www.w3.org/1999/xlink">
<defs>
<clipPath id="c0_73"><path d="M218.1,736.9v-363H646.3v363Z"/></clipPath>
<clipPath id="c1_73"><path d="M205.3,238.3V191.6H322.8v46.7Z"/></clipPath>
<clipPath id="c2_73"><path d="M205.3,809.5V762.8H322.8v46.7Z"/></clipPath>
<clipPath id="c3_73"><path d="M-2.6,1047.7V-2.6H910.2V1047.7Z"/></clipPath>
<style type="text/css"><![CDATA[
.g0_73{
fill: #FFFFFF;
}
.g1_73{
fill: none;
stroke: #D7D7D7;
stroke-width: 0.748;
stroke-linecap: butt;
stroke-linejoin: miter;
}
.g2_73{
fill: #D7D7D7;
}
.g3_73{
fill: none;
stroke: #D7D7D7;
stroke-width: 0.749;
stroke-linecap: butt;
stroke-linejoin: miter;
}
.g4_73{
fill: none;
stroke: #000000;
stroke-width: 1.525;
stroke-linecap: butt;
stroke-linejoin: miter;
stroke-miterlimit: 4;
}
.g5_73{
fill: none;
stroke: #000000;
stroke-width: 1.527;
stroke-linecap: butt;
stroke-linejoin: miter;
stroke-miterlimit: 4;
}
.g6_73{
fill: none;
stroke: #3D3D3D;
stroke-width: 2.074;
stroke-linecap: butt;
stroke-linejoin: miter;
stroke-miterlimit: 4;
}
.g7_73{
}
.g8_73{
fill: #B6B6B6;
}
.g9_73{
fill: #343434;
}
.ga_73{
fill: #7C7C7C;
}
.gb_73{
fill: #909090;
}
.gc_73{
fill: #737373;
}
.gd_73{
fill: #C7C7C7;
}
.ge_73{
fill: #ACACAC;
}
.gf_73{
fill: #A8A8A8;
}
.gg_73{
fill: #E6E6E6;
}
.gh_73{
fill: #D2D2D2;
}
.gi_73{
fill: #CFCFCF;
}
.gj_73{
fill: #ECECEC;
}
.gk_73{
fill: #DDDDDD;
}
.gl_73{
fill: #DBDBDB;
}
.gm_73{
fill: #D5D5D5;
}
.gn_73{
fill: #3C3C3C;
}
.go_73{
fill: none;
stroke: #FFFFFF;
stroke-width: 1.909;
stroke-linecap: butt;
stroke-linejoin: miter;
}
.gp_73{
fill: none;
stroke: #000000;
stroke-width: 0.381;
stroke-linecap: butt;
stroke-linejoin: miter;
}
]]></style>
</defs>
<path clip-path="url(#c0_73)" d="M220.4,373.9h20.9v21H220.4Z" class="g0_73"/>
<path d="M220.7,374.3h21v21h-21Z" class="g1_73"/>
<g clip-path="url(#c0_73)">
<path d="M241.3,373.9h21.8v21.7H241.3Z" class="g2_73"/>
<path d="M262.3,373.9H284v21.7H262.3Z" class="g2_73"/>
<path d="M283.3,373.9H305v21.7H283.3Z" class="g2_73"/>
<path d="M304.2,373.9H326v21.7H304.2Z" class="g2_73"/>
<path d="M325.2,373.9h21.7v21.7H325.2Z" class="g2_73"/>
<path d="M346.2,373.9h21.7v21.7H346.2Z" class="g2_73"/>
<path d="M367.2,373.9h21.7v21.7H367.2Z" class="g2_73"/>
<path d="M388.1,373.9h21.8v21.7H388.1Z" class="g2_73"/>
<path d="M409.1,373.9h21.7v21.7H409.1Z" class="g2_73"/>
<path d="M430.1,373.9h21.7v21.7H430.1Z" class="g2_73"/>
<path d="M451,373.9h21.8v21.7H451Z" class="g2_73"/>
<path d="M472,373.9h21.7v21.7H472Z" class="g2_73"/>
<path d="M493,373.9h21.7v21.7H493Z" class="g2_73"/>
<path d="M514,373.9h21.7v21.7H514Z" class="g2_73"/>
<path d="M534.9,373.9h21.8v21.7H534.9Z" class="g2_73"/>
<path d="M555.9,373.9h21.7v21.7H555.9Z" class="g2_73"/>
<path d="M576.9,373.9h21.7v21.7H576.9Z" class="g2_73"/>
<path d="M597.9,373.9h21.7v21.7H597.9Z" class="g2_73"/>
<path d="M618.8,373.9h21.7v21.7H618.8Z" class="g2_73"/>
</g>
<path d="M220.4,394.9h20.9v20.9H220.4Z" class="g0_73"/>
<path d="M220.7,395.3h21v20.9h-21Z" class="g1_73"/>
<path d="M241.3,394.9h21v20.9h-21Z" class="g0_73"/>
<path d="M241.7,395.2h21v21h-21Z" class="g1_73"/>
<path d="M262.3,394.9h21v20.9h-21Z" class="g0_73"/>
<path d="M262.7,395.2h21v21h-21Z" class="g1_73"/>
<path d="M283.3,394.9h20.9v20.9H283.3Z" class="g0_73"/>
<path d="M283.7,395.2h20.9v21H283.7Z" class="g1_73"/>
<path d="M304.2,394.9h21v20.9h-21Z" class="g0_73"/>
<path d="M304.6,395.2h21v21h-21Z" class="g1_73"/>
<path d="M325.2,394.9h21v20.9h-21Z" class="g0_73"/>
<path d="M325.6,395.2h21v21h-21Z" class="g1_73"/>
<path d="M346.2,394.9h21v20.9h-21Z" class="g0_73"/>
<path d="M346.6,395.2h20.9v21H346.6Z" class="g1_73"/>
<path d="M367.2,394.9h20.9v20.9H367.2Z" class="g0_73"/>
<path d="M367.5,395.2h21v21h-21Z" class="g1_73"/>
<path d="M388.1,394.9h21v20.9h-21Z" class="g0_73"/>
<path d="M388.5,395.2h21v21h-21Z" class="g1_73"/>
<path d="M409.1,394.9h21v20.9h-21Z" class="g0_73"/>
<path d="M409.5,395.2h21v21h-21Z" class="g1_73"/>
<path d="M430.1,394.9h21v20.9h-21Z" class="g0_73"/>
<path d="M430.5,395.2h20.9v21H430.5Z" class="g1_73"/>
<path d="M451.1,394.9h21.7v21.7H451.1Z" class="g2_73"/>
<path d="M472,394.9h21.7v21.7H472Z" class="g2_73"/>
<path d="M493,394.9h21.7v21.7H493Z" class="g2_73"/>
<path d="M514,394.9h21.7v21.7H514Z" class="g2_73"/>
<path d="M534.9,394.9h21.8v21.7H534.9Z" class="g2_73"/>
<path d="M555.9,394.9h21.7v21.7H555.9Z" class="g2_73"/>
<path d="M576.9,394.9h21.7v21.7H576.9Z" class="g2_73"/>
<path d="M597.9,394.9h21.7v21.7H597.9Z" class="g2_73"/>
<path d="M618.8,394.9h21.8v21.7H618.8Z" class="g2_73"/>
<path d="M220.4,415.8h20.9v21H220.4Z" class="g0_73"/>
<path d="M220.7,416.2h21v21h-21Z" class="g1_73"/>
<path d="M241.3,415.8h21.8v21.7H241.3Z" class="g2_73"/>
<path d="M262.3,415.8h21v21h-21Z" class="g0_73"/>
<path d="M262.7,416.2h21v21h-21Z" class="g3_73"/>
<path d="M283.3,415.8H305v21.7H283.3Z" class="g2_73"/>
<path d="M304.3,415.8H326v21.7H304.3Z" class="g2_73"/>
<path d="M325.2,415.8H347v21.7H325.2Z" class="g2_73"/>
<path d="M346.2,415.8h21.7v21.7H346.2Z" class="g2_73"/>
<path d="M367.2,415.8h21.7v21.7H367.2Z" class="g2_73"/>
<path d="M388.2,415.8h21.7v21.7H388.2Z" class="g2_73"/>
<path d="M409.1,415.8h21.7v21.7H409.1Z" class="g2_73"/>
<path d="M430.1,415.8h21.7v21.7H430.1Z" class="g2_73"/>
<path d="M451.1,415.8h21.7v21.7H451.1Z" class="g2_73"/>
<path d="M472,415.8h21v21H472Z" class="g0_73"/>
<path d="M472.4,416.2h21v21h-21Z" class="g3_73"/>
<path d="M493,415.8h21v21H493Z" class="g0_73"/>
<path d="M493.4,416.2h21v21h-21Z" class="g3_73"/>
<path d="M514,415.8h21v21H514Z" class="g0_73"/>
<path d="M514.4,416.2h20.9v21H514.4Z" class="g3_73"/>
<path d="M535,415.8h20.9v21H535Z" class="g0_73"/>
<path d="M535.3,416.2h21v21h-21Z" class="g3_73"/>
<path d="M555.9,415.8h21.8v21.7H555.9Z" class="g2_73"/>
<path d="M576.9,415.8h21.7v21.7H576.9Z" class="g2_73"/>
<path d="M597.9,415.8h21.7v21.7H597.9Z" class="g2_73"/>
<path d="M618.9,415.8h21.7v21.7H618.9Z" class="g2_73"/>
<path d="M220.4,436.8h20.9v20.9H220.4Z" class="g0_73"/>
<path d="M220.7,437.2h21v20.9h-21Z" class="g3_73"/>
<path d="M241.3,436.8h21.8v21.7H241.3Z" class="g2_73"/>
<path d="M262.3,436.8h21v20.9h-21Z" class="g0_73"/>
<path d="M262.7,437.2h21v20.9h-21Z" class="g3_73"/>
<path d="M283.3,436.8H305v21.7H283.3Z" class="g2_73"/>
<path d="M304.3,436.8h20.9v20.9H304.3Z" class="g0_73"/>
<path d="M304.6,437.2h21v20.9h-21Z" class="g3_73"/>
<path d="M325.2,436.8h21v20.9h-21Z" class="g0_73"/>
<path d="M325.6,437.2h21v20.9h-21Z" class="g3_73"/>
<path d="M346.2,436.8h21v20.9h-21Z" class="g0_73"/>
<path d="M346.6,437.2h21v20.9h-21Z" class="g3_73"/>
<path d="M367.2,436.8h21v20.9h-21Z" class="g0_73"/>
<path d="M367.6,437.2h20.9v20.9H367.6Z" class="g3_73"/>
<path d="M388.2,436.8h21.7v21.7H388.2Z" class="g2_73"/>
<path d="M409.1,436.8h21.8v21.7H409.1Z" class="g2_73"/>
<path d="M430.1,436.8h21.7v21.7H430.1Z" class="g2_73"/>
<path d="M451.1,436.8h21.7v21.7H451.1Z" class="g2_73"/>
<path d="M472.1,436.8h21.7v21.7H472.1Z" class="g2_73"/>
<path d="M493,436.8h21v20.9H493Z" class="g0_73"/>
<path d="M493.4,437.1h21v21h-21Z" class="g3_73"/>
<path d="M514,436.8h21.7v21.7H514Z" class="g2_73"/>
<path d="M535,436.8h21.7v21.7H535Z" class="g2_73"/>
<path d="M555.9,436.8h21.8v21.7H555.9Z" class="g2_73"/>
<path d="M576.9,436.8h21v20.9h-21Z" class="g0_73"/>
<path d="M577.3,437.1h21v21h-21Z" class="g3_73"/>
<path d="M597.9,436.8h21.7v21.7H597.9Z" class="g2_73"/>
<path d="M618.9,436.8h21.7v21.7H618.9Z" class="g2_73"/>
<path d="M220.4,457.7h21v21h-21Z" class="g0_73"/>
<path d="M220.8,458.1h20.9v21H220.8Z" class="g3_73"/>
<path d="M241.4,457.7h21.7v21.8H241.4Z" class="g2_73"/>
<path d="M262.3,457.7h21v21h-21Z" class="g0_73"/>
<path d="M262.7,458.1h21v21h-21Z" class="g3_73"/>
<path d="M283.3,457.7H305v21.8H283.3Z" class="g2_73"/>
<path d="M304.3,457.7H326v21.8H304.3Z" class="g2_73"/>
<path d="M325.2,457.7h21v21h-21Z" class="g0_73"/>
<path d="M325.6,458.1h21v21h-21Z" class="g3_73"/>
<path d="M346.2,457.7h21.7v21.8H346.2Z" class="g2_73"/>
<path d="M367.2,457.7h21.7v21.8H367.2Z" class="g2_73"/>
<path d="M388.2,457.7h21.7v21.8H388.2Z" class="g2_73"/>
<path d="M409.1,457.7h21.8v21.8H409.1Z" class="g2_73"/>
<path d="M430.1,457.7h21.7v21.8H430.1Z" class="g2_73"/>
<path d="M451.1,457.7h21.7v21.8H451.1Z" class="g2_73"/>
<path d="M472.1,457.7h21.7v21.8H472.1Z" class="g2_73"/>
<path d="M493,457.7h21v21H493Z" class="g0_73"/>
<path d="M493.4,458.1h21v21h-21Z" class="g3_73"/>
<path d="M514,457.7h21v21H514Z" class="g0_73"/>
<path d="M514.4,458.1h21v21h-21Z" class="g3_73"/>
<path d="M535,457.7h21v21H535Z" class="g0_73"/>
<path d="M535.4,458.1h20.9v21H535.4Z" class="g3_73"/>
<path d="M556,457.7h20.9v21H556Z" class="g0_73"/>
<path d="M556.3,458.1h21v21h-21Z" class="g3_73"/>
<path d="M576.9,457.7h21v21h-21Z" class="g0_73"/>
<path d="M577.3,458.1h21v21h-21Z" class="g3_73"/>
<path d="M597.9,457.7h21v21h-21Z" class="g0_73"/>
<path d="M598.3,458.1h21v21h-21Z" class="g3_73"/>
<path d="M618.9,457.7h21.7v21.7H618.9Z" class="g2_73"/>
<path d="M220.4,478.7h21.7v21.7H220.4Z" class="g2_73"/>
<path d="M241.4,478.7h21.7v21.7H241.4Z" class="g2_73"/>
<path d="M262.3,478.7h21v21h-21Z" class="g0_73"/>
<path d="M262.7,479.1h21V500h-21Z" class="g3_73"/>
<path d="M283.3,478.7H305v21.7H283.3Z" class="g2_73"/>
<path d="M304.3,478.7H326v21.7H304.3Z" class="g2_73"/>
<path d="M325.3,478.7h20.9v21H325.3Z" class="g0_73"/>
<path d="M325.6,479.1h21V500h-21Z" class="g3_73"/>
<path d="M346.2,478.7H368v21.7H346.2Z" class="g2_73"/>
<path d="M367.2,478.7h21v21h-21Z" class="g0_73"/>
<path d="M367.6,479.1h21V500h-21Z" class="g3_73"/>
<path d="M388.2,478.7h21.7v21.7H388.2Z" class="g2_73"/>
<path d="M409.2,478.7h20.9v21H409.2Z" class="g0_73"/>
<path d="M409.5,479.1h21V500h-21Z" class="g3_73"/>
<path d="M430.1,478.7h21.8v21.7H430.1Z" class="g2_73"/>
<path d="M451.1,478.7h21v20.9h-21Z" class="g0_73"/>
<path d="M451.5,479.1h21V500h-21Z" class="g3_73"/>
<path d="M472.1,478.7h21.7v21.7H472.1Z" class="g2_73"/>
<path d="M493.1,478.7H514v20.9H493.1Z" class="g0_73"/>
<path d="M493.4,479.1h21V500h-21Z" class="g3_73"/>
<path d="M514,478.7h21.8v21.7H514Z" class="g2_73"/>
<path d="M535,478.7h21.7v21.7H535Z" class="g2_73"/>
<path d="M556,478.7h21.7v21.7H556Z" class="g2_73"/>
<path d="M577,478.7h20.9v20.9H577Z" class="g0_73"/>
<path d="M577.3,479.1h21V500h-21Z" class="g3_73"/>
<path d="M597.9,478.7h21.8v21.7H597.9Z" class="g2_73"/>
<path d="M618.9,478.7h21.7v21.7H618.9Z" class="g2_73"/>
<path d="M220.4,499.6h21v21h-21Z" class="g0_73"/>
<path d="M220.8,500h20.9v21H220.8Z" class="g3_73"/>
<path d="M241.4,499.6h20.9v21H241.4Z" class="g0_73"/>
<path d="M241.7,500h21v21h-21Z" class="g3_73"/>
<path d="M262.3,499.6h21v21h-21Z" class="g0_73"/>
<path d="M262.7,500h21v21h-21Z" class="g3_73"/>
<path d="M283.3,499.6h21v21h-21Z" class="g0_73"/>
<path d="M283.7,500h21v21h-21Z" class="g3_73"/>
<path d="M304.3,499.6h21v21h-21Z" class="g0_73"/>
<path d="M304.7,500h20.9v21H304.7Z" class="g3_73"/>
<path d="M325.3,499.6h21v21h-21Z" class="g0_73"/>
<path d="M325.7,500h20.9v21H325.7Z" class="g3_73"/>
<path d="M346.3,499.6h20.9v21H346.3Z" class="g0_73"/>
<path d="M346.6,500h21v21h-21Z" class="g3_73"/>
<path d="M367.2,499.6h21v21h-21Z" class="g0_73"/>
<path d="M367.6,500h21v21h-21Z" class="g3_73"/>
<path d="M388.2,499.6h21v21h-21Z" class="g0_73"/>
<path d="M388.6,500h21v21h-21Z" class="g3_73"/>
<path d="M409.2,499.6h21v21h-21Z" class="g0_73"/>
<path d="M409.6,500h20.9v21H409.6Z" class="g3_73"/>
<path d="M430.2,499.6h20.9v21H430.2Z" class="g0_73"/>
<path d="M430.5,500h21v21h-21Z" class="g3_73"/>
<path d="M451.1,499.6h21v21h-21Z" class="g0_73"/>
<path d="M451.5,500h21v21h-21Z" class="g3_73"/>
<path d="M472.1,499.6h21v21h-21Z" class="g0_73"/>
<path d="M472.5,500h21v21h-21Z" class="g3_73"/>
<path d="M493.1,499.6h21v21h-21Z" class="g0_73"/>
<path d="M493.5,500h20.9v21H493.5Z" class="g3_73"/>
<path d="M514.1,499.6h21v21h-21Z" class="g0_73"/>
<path d="M514.5,500h20.9v21H514.5Z" class="g3_73"/>
<path d="M535.1,499.6H556v21H535.1Z" class="g0_73"/>
<path d="M535.4,500h21v21h-21Z" class="g3_73"/>
<path d="M556,499.6h21.8v21.7H556Z" class="g2_73"/>
<path d="M577,499.6h21v21H577Z" class="g0_73"/>
<path d="M577.4,500h21v21h-21Z" class="g3_73"/>
<path d="M598,499.6h21.7v21.7H598Z" class="g2_73"/>
<path d="M619,499.6h21.7v21.7H619Z" class="g2_73"/>
<path d="M220.4,520.6h21v21h-21Z" class="g0_73"/>
<path d="M220.8,521h21v20.9h-21Z" class="g3_73"/>
<path d="M241.4,520.6h21.7v21.7H241.4Z" class="g2_73"/>
<path d="M262.4,520.6h20.9v21H262.4Z" class="g0_73"/>
<path d="M262.7,521h21v20.9h-21Z" class="g3_73"/>
<path d="M283.3,520.6h21.8v21.7H283.3Z" class="g2_73"/>
<path d="M304.3,520.6H326v21.7H304.3Z" class="g2_73"/>
<path d="M325.3,520.6h21v21h-21Z" class="g0_73"/>
<path d="M325.7,521h21v20.9h-21Z" class="g3_73"/>
<path d="M346.3,520.6H368v21.7H346.3Z" class="g2_73"/>
<path d="M367.3,520.6h20.9v21H367.3Z" class="g0_73"/>
<path d="M367.6,520.9h21v21h-21Z" class="g3_73"/>
<path d="M388.2,520.6H410v21.7H388.2Z" class="g2_73"/>
<path d="M409.2,520.6h21v21h-21Z" class="g0_73"/>
<path d="M409.6,520.9h21v21h-21Z" class="g3_73"/>
<path d="M430.2,520.6h21.7v21.7H430.2Z" class="g2_73"/>
<path d="M451.2,520.6h20.9v20.9H451.2Z" class="g0_73"/>
<path d="M451.5,520.9h21v21h-21Z" class="g3_73"/>
<path d="M472.1,520.6h21.8v21.7H472.1Z" class="g2_73"/>
<path d="M493.1,520.6h21v20.9h-21Z" class="g0_73"/>
<path d="M493.5,520.9h21v21h-21Z" class="g3_73"/>
<path d="M514.1,520.6h21.7v21.7H514.1Z" class="g2_73"/>
<path d="M535.1,520.6h21.7v21.7H535.1Z" class="g2_73"/>
<path d="M556.1,520.6h21.7v21.7H556.1Z" class="g2_73"/>
<path d="M577,520.6h21v20.9H577Z" class="g0_73"/>
<path d="M577.4,520.9h21v21h-21Z" class="g3_73"/>
<path d="M598,520.6h21.7v21.7H598Z" class="g2_73"/>
<path d="M619,520.6h21.7v21.7H619Z" class="g2_73"/>
<path d="M220.4,541.5h21v21h-21Z" class="g0_73"/>
<path d="M220.8,541.9h21v21h-21Z" class="g3_73"/>
<path d="M241.4,541.5h21.7v21.8H241.4Z" class="g2_73"/>
<path d="M262.4,541.5h21v21h-21Z" class="g0_73"/>
<path d="M262.7,541.9h21v21h-21Z" class="g3_73"/>
<path d="M283.4,541.5h21.7v21.8H283.4Z" class="g2_73"/>
<path d="M304.3,541.5h21.8v21.8H304.3Z" class="g2_73"/>
<path d="M325.3,541.5h21v21h-21Z" class="g0_73"/>
<path d="M325.7,541.9h21v21h-21Z" class="g3_73"/>
<path d="M346.3,541.5H368v21.8H346.3Z" class="g2_73"/>
<path d="M367.3,541.5h20.9v21H367.3Z" class="g0_73"/>
<path d="M367.6,541.9h21v21h-21Z" class="g3_73"/>
<path d="M388.2,541.5H410v21.8H388.2Z" class="g2_73"/>
<path d="M409.2,541.5h21v21h-21Z" class="g0_73"/>
<path d="M409.6,541.9h21v21h-21Z" class="g3_73"/>
<path d="M430.2,541.5h21.7v21.8H430.2Z" class="g2_73"/>
<path d="M451.2,541.5h20.9v21H451.2Z" class="g0_73"/>
<path d="M451.5,541.9h21v21h-21Z" class="g3_73"/>
<path d="M472.1,541.5h21.8v21.8H472.1Z" class="g2_73"/>
<path d="M493.1,541.5h21v21h-21Z" class="g0_73"/>
<path d="M493.5,541.9h21v21h-21Z" class="g3_73"/>
<path d="M514.1,541.5h21.7v21.8H514.1Z" class="g2_73"/>
<path d="M535.1,541.5h21v21h-21Z" class="g0_73"/>
<path d="M535.4,541.9h21v21h-21Z" class="g3_73"/>
<path d="M556.1,541.5h21.7v21.8H556.1Z" class="g2_73"/>
<path d="M577,541.5h21v21H577Z" class="g0_73"/>
<path d="M577.4,541.9h21v21h-21Z" class="g3_73"/>
<path d="M598,541.6h21.7v21.7H598Z" class="g2_73"/>
<path d="M619,541.6h21.7v21.7H619Z" class="g2_73"/>
<path d="M220.4,562.5h21v21h-21Z" class="g0_73"/>
<path d="M220.8,562.9h21v21h-21Z" class="g3_73"/>
<path d="M241.4,562.5h21.7v21.8H241.4Z" class="g2_73"/>
<path d="M262.4,562.5h20.9v21H262.4Z" class="g0_73"/>
<path d="M262.7,562.9h21v21h-21Z" class="g3_73"/>
<path d="M283.3,562.5h21.8v21.8H283.3Z" class="g2_73"/>
<path d="M304.3,562.5H326v21.8H304.3Z" class="g2_73"/>
<path d="M325.3,562.5h21v21h-21Z" class="g0_73"/>
<path d="M325.7,562.9h20.9v21H325.7Z" class="g3_73"/>
<path d="M346.3,562.5H368v21.8H346.3Z" class="g2_73"/>
<path d="M367.3,562.5h20.9v21H367.3Z" class="g0_73"/>
<path d="M367.6,562.9h21v21h-21Z" class="g3_73"/>
<path d="M388.2,562.5H410v21.8H388.2Z" class="g2_73"/>
<path d="M409.2,562.5h21v21h-21Z" class="g0_73"/>
<path d="M409.6,562.9h21v21h-21Z" class="g3_73"/>
<path d="M430.2,562.5h21v21h-21Z" class="g0_73"/>
<path d="M430.6,562.9h20.9v21H430.6Z" class="g3_73"/>
<path d="M451.2,562.5h20.9v21H451.2Z" class="g0_73"/>
<path d="M451.5,562.9h21v21h-21Z" class="g3_73"/>
<path d="M472.1,562.5h21v21h-21Z" class="g0_73"/>
<path d="M472.5,562.9h21v21h-21Z" class="g3_73"/>
<path d="M493.1,562.5h21v21h-21Z" class="g0_73"/>
<path d="M493.5,562.9h21v21h-21Z" class="g3_73"/>
<path d="M514.1,562.5h21v21h-21Z" class="g0_73"/>
<path d="M514.5,562.9h20.9v21H514.5Z" class="g3_73"/>
<path d="M535.1,562.5H556v21H535.1Z" class="g0_73"/>
<path d="M535.4,562.9h21v21h-21Z" class="g3_73"/>
<path d="M556,562.5h21v21H556Z" class="g0_73"/>
<path d="M556.4,562.9h21v21h-21Z" class="g3_73"/>
<path d="M577,562.5h21v21H577Z" class="g0_73"/>
<path d="M577.4,562.9h21v21h-21Z" class="g3_73"/>
<path d="M598,562.5h21.7v21.8H598Z" class="g2_73"/>
<path d="M619,562.5h21.7v21.8H619Z" class="g2_73"/>
<path d="M220.4,583.5h21v21h-21Z" class="g0_73"/>
<path d="M220.8,583.9h21v21h-21Z" class="g3_73"/>
<path d="M241.4,583.5h21.7v21.7H241.4Z" class="g2_73"/>
<path d="M262.4,583.5h20.9v21H262.4Z" class="g0_73"/>
<path d="M262.7,583.9h21v21h-21Z" class="g3_73"/>
<path d="M283.3,583.5h21.8v21.7H283.3Z" class="g2_73"/>
<path d="M304.3,583.5H326v21.7H304.3Z" class="g2_73"/>
<path d="M325.3,583.5h21v21h-21Z" class="g0_73"/>
<path d="M325.7,583.9h20.9v21H325.7Z" class="g3_73"/>
<path d="M346.3,583.5H368v21.7H346.3Z" class="g2_73"/>
<path d="M367.2,583.5h21v21h-21Z" class="g0_73"/>
<path d="M367.6,583.9h21v21h-21Z" class="g3_73"/>
<path d="M388.2,583.5h21.7v21.7H388.2Z" class="g2_73"/>
<path d="M409.2,583.5h21v21h-21Z" class="g0_73"/>
<path d="M409.6,583.9h21v21h-21Z" class="g3_73"/>
<path d="M430.2,583.5h21.7v21.7H430.2Z" class="g2_73"/>
<path d="M451.2,583.5h20.9v21H451.2Z" class="g0_73"/>
<path d="M451.5,583.9h21v21h-21Z" class="g3_73"/>
<path d="M472.1,583.5h21.8v21.7H472.1Z" class="g2_73"/>
<path d="M493.1,583.5h21.7v21.7H493.1Z" class="g2_73"/>
<path d="M514.1,583.5h21.7v21.7H514.1Z" class="g2_73"/>
<path d="M535.1,583.5H556v21H535.1Z" class="g0_73"/>
<path d="M535.4,583.9h21v21h-21Z" class="g3_73"/>
<path d="M556,583.5h21.8v21.7H556Z" class="g2_73"/>
<path d="M577,583.5h21v21H577Z" class="g0_73"/>
<path d="M577.4,583.9h21v21h-21Z" class="g3_73"/>
<path d="M598,583.5h21.7v21.7H598Z" class="g2_73"/>
<path d="M619,583.5h21.7v21.7H619Z" class="g2_73"/>
<path d="M220.4,604.5h21v21h-21Z" class="g0_73"/>
<path d="M220.8,604.9h21v20.9h-21Z" class="g3_73"/>
<path d="M241.4,604.5h21.7v21.7H241.4Z" class="g2_73"/>
<path d="M262.4,604.5h20.9v21H262.4Z" class="g0_73"/>
<path d="M262.7,604.9h21v20.9h-21Z" class="g3_73"/>
<path d="M283.3,604.5h21.8v21.7H283.3Z" class="g2_73"/>
<path d="M304.3,604.5H326v21.7H304.3Z" class="g2_73"/>
<path d="M325.3,604.5h21v21h-21Z" class="g0_73"/>
<path d="M325.7,604.9h20.9v20.9H325.7Z" class="g3_73"/>
<path d="M346.3,604.5H368v21.7H346.3Z" class="g2_73"/>
<path d="M367.2,604.5h21v21h-21Z" class="g0_73"/>
<path d="M367.6,604.9h21v20.9h-21Z" class="g3_73"/>
<path d="M388.2,604.5h21.7v21.7H388.2Z" class="g2_73"/>
<path d="M409.2,604.5h21v21h-21Z" class="g0_73"/>
<path d="M409.6,604.9h21v21h-21Z" class="g3_73"/>
<path d="M430.2,604.5h21.7v21.7H430.2Z" class="g2_73"/>
<path d="M451.2,604.5h20.9v21H451.2Z" class="g0_73"/>
<path d="M451.5,604.9h21v21h-21Z" class="g3_73"/>
<path d="M472.1,604.5h21.8v21.7H472.1Z" class="g2_73"/>
<path d="M493.1,604.5h21.7v21.7H493.1Z" class="g2_73"/>
<path d="M514.1,604.5h21.7v21.7H514.1Z" class="g2_73"/>
<path d="M535.1,604.5H556v21H535.1Z" class="g0_73"/>
<path d="M535.4,604.9h21v21h-21Z" class="g3_73"/>
<path d="M556,604.5h21.8v21.7H556Z" class="g2_73"/>
<path d="M577,604.5h21.7v21.7H577Z" class="g2_73"/>
<path d="M598,604.5h21.7v21.7H598Z" class="g2_73"/>
<path d="M619,604.5h21.7v21.7H619Z" class="g2_73"/>
<path d="M220.4,625.5h21v20.9h-21Z" class="g0_73"/>
<path d="M220.8,625.9h21v20.9h-21Z" class="g3_73"/>
<path d="M241.4,625.5h21.7v21.7H241.4Z" class="g2_73"/>
<path d="M262.4,625.5h21.7v21.7H262.4Z" class="g2_73"/>
<path d="M283.3,625.5h21v20.9h-21Z" class="g0_73"/>
<path d="M283.7,625.9h21v20.9h-21Z" class="g3_73"/>
<path d="M304.3,625.5H326v21.7H304.3Z" class="g2_73"/>
<path d="M325.3,625.5h21v20.9h-21Z" class="g0_73"/>
<path d="M325.7,625.9h20.9v20.9H325.7Z" class="g3_73"/>
<path d="M346.3,625.5H368v21.7H346.3Z" class="g2_73"/>
<path d="M367.2,625.5h21v20.9h-21Z" class="g0_73"/>
<path d="M367.6,625.9h21v20.9h-21Z" class="g3_73"/>
<path d="M388.2,625.5h21.7v21.7H388.2Z" class="g2_73"/>
<path d="M409.2,625.5h21.7v21.7H409.2Z" class="g2_73"/>
<path d="M430.2,625.5h21.7v21.7H430.2Z" class="g2_73"/>
<path d="M451.1,625.5h21v21h-21Z" class="g0_73"/>
<path d="M451.5,625.8h21v21h-21Z" class="g3_73"/>
<path d="M472.1,625.5h21.7v21.7H472.1Z" class="g2_73"/>
<path d="M493.1,625.5h21.7v21.7H493.1Z" class="g2_73"/>
<path d="M514.1,625.5h21.7v21.7H514.1Z" class="g2_73"/>
<path d="M535,625.5h21v21H535Z" class="g0_73"/>
<path d="M535.4,625.8h21v21h-21Z" class="g3_73"/>
<path d="M556,625.5h21v21H556Z" class="g0_73"/>
<path d="M556.4,625.8h21v21h-21Z" class="g3_73"/>
<path d="M577,625.5h21v21H577Z" class="g0_73"/>
<path d="M577.4,625.8h20.9v21H577.4Z" class="g3_73"/>
<path d="M598,625.5h21v21H598Z" class="g0_73"/>
<path d="M598.3,625.8h21v21h-21Z" class="g3_73"/>
<path d="M619,625.5h20.9v21H619Z" class="g0_73"/>
<path d="M619.3,625.8h21v21h-21Z" class="g3_73"/>
<path d="M220.4,646.4h21v21h-21Z" class="g0_73"/>
<path d="M220.8,646.8h21v21h-21Z" class="g3_73"/>
<path d="M241.4,646.4h21.7v21.8H241.4Z" class="g2_73"/>
<path d="M262.4,646.4h21.7v21.8H262.4Z" class="g2_73"/>
<path d="M283.3,646.4h21v21h-21Z" class="g0_73"/>
<path d="M283.7,646.8h21v21h-21Z" class="g3_73"/>
<path d="M304.3,646.4H326v21.8H304.3Z" class="g2_73"/>
<path d="M325.3,646.4H347v21.8H325.3Z" class="g2_73"/>
<path d="M346.3,646.4H368v21.8H346.3Z" class="g2_73"/>
<path d="M367.2,646.4h21v21h-21Z" class="g0_73"/>
<path d="M367.6,646.8h21v21h-21Z" class="g3_73"/>
<path d="M388.2,646.4h21.7v21.8H388.2Z" class="g2_73"/>
<path d="M409.2,646.4h21.7v21.8H409.2Z" class="g2_73"/>
<path d="M430.2,646.4h21.7v21.8H430.2Z" class="g2_73"/>
<path d="M451.2,646.4h21.7v21.8H451.2Z" class="g2_73"/>
<path d="M472.1,646.4h21.8v21.8H472.1Z" class="g2_73"/>
<path d="M493.1,646.4h21.7v21.8H493.1Z" class="g2_73"/>
<path d="M514.1,646.4h21.7v21.8H514.1Z" class="g2_73"/>
<path d="M535.1,646.4H556v21H535.1Z" class="g0_73"/>
<path d="M535.4,646.8h21v21h-21Z" class="g3_73"/>
<path d="M556,646.4h21.8v21.8H556Z" class="g2_73"/>
<path d="M577,646.4h21.7v21.8H577Z" class="g2_73"/>
<path d="M598,646.4h21.7v21.8H598Z" class="g2_73"/>
<path d="M619,646.4h21.7v21.8H619Z" class="g2_73"/>
<path d="M220.4,667.4h21v21h-21Z" class="g0_73"/>
<path d="M220.8,667.8h21v21h-21Z" class="g3_73"/>
<path d="M241.4,667.4h21.7v21.7H241.4Z" class="g2_73"/>
<path d="M262.4,667.4h20.9v21H262.4Z" class="g0_73"/>
<path d="M262.7,667.8h21v21h-21Z" class="g3_73"/>
<path d="M283.3,667.4h21v21h-21Z" class="g0_73"/>
<path d="M283.7,667.8h21v21h-21Z" class="g3_73"/>
<path d="M304.3,667.4h21v21h-21Z" class="g0_73"/>
<path d="M304.7,667.8h21v21h-21Z" class="g3_73"/>
<path d="M325.3,667.4h21v21h-21Z" class="g0_73"/>
<path d="M325.7,667.8h20.9v21H325.7Z" class="g3_73"/>
<path d="M346.3,667.4h20.9v21H346.3Z" class="g0_73"/>
<path d="M346.6,667.8h21v21h-21Z" class="g3_73"/>
<path d="M367.2,667.4h21v21h-21Z" class="g0_73"/>
<path d="M367.6,667.8h21v21h-21Z" class="g3_73"/>
<path d="M388.2,667.4h21v21h-21Z" class="g0_73"/>
<path d="M388.6,667.8h21v21h-21Z" class="g3_73"/>
<path d="M409.2,667.4h21v21h-21Z" class="g0_73"/>
<path d="M409.6,667.8h21v21h-21Z" class="g3_73"/>
<path d="M430.2,667.4h21v21h-21Z" class="g0_73"/>
<path d="M430.6,667.8h20.9v21H430.6Z" class="g3_73"/>
<path d="M451.2,667.4h21.7v21.7H451.2Z" class="g2_73"/>
<path d="M472.1,667.4h21v21h-21Z" class="g0_73"/>
<path d="M472.5,667.8h21v21h-21Z" class="g3_73"/>
<path d="M493.1,667.4h21v21h-21Z" class="g0_73"/>
<path d="M493.5,667.8h21v21h-21Z" class="g3_73"/>
<path d="M514.1,667.4h21v21h-21Z" class="g0_73"/>
<path d="M514.5,667.8h20.9v21H514.5Z" class="g3_73"/>
<path d="M535.1,667.4H556v21H535.1Z" class="g0_73"/>
<path d="M535.4,667.8h21v21h-21Z" class="g3_73"/>
<path d="M556,667.4h21v21H556Z" class="g0_73"/>
<path d="M556.4,667.8h21v21h-21Z" class="g3_73"/>
<path d="M577,667.4h21v21H577Z" class="g0_73"/>
<path d="M577.4,667.8h21v21h-21Z" class="g3_73"/>
<path d="M598,667.4h21.7v21.7H598Z" class="g2_73"/>
<path d="M619,667.4h21.7v21.7H619Z" class="g2_73"/>
<path d="M220.4,688.4h21.7v21.7H220.4Z" class="g2_73"/>
<path d="M241.4,688.4h21.7v21.7H241.4Z" class="g2_73"/>
<path d="M262.4,688.4h21.7v21.7H262.4Z" class="g2_73"/>
<path d="M283.3,688.4h21v21h-21Z" class="g0_73"/>
<path d="M283.7,688.8h21v20.9h-21Z" class="g3_73"/>
<path d="M304.3,688.4H326v21.7H304.3Z" class="g2_73"/>
<path d="M325.3,688.4H347v21.7H325.3Z" class="g2_73"/>
<path d="M346.3,688.4H368v21.7H346.3Z" class="g2_73"/>
<path d="M367.3,688.4H389v21.7H367.3Z" class="g2_73"/>
<path d="M388.2,688.4H410v21.7H388.2Z" class="g2_73"/>
<path d="M409.2,688.4h21.7v21.7H409.2Z" class="g2_73"/>
<path d="M430.2,688.4h21.7v21.7H430.2Z" class="g2_73"/>
<path d="M451.2,688.4h21.7v21.7H451.2Z" class="g2_73"/>
<path d="M472.1,688.4h21.8v21.7H472.1Z" class="g2_73"/>
<path d="M493.1,688.4h21.7v21.7H493.1Z" class="g2_73"/>
<path d="M514.1,688.4h21.7v21.7H514.1Z" class="g2_73"/>
<path d="M535.1,688.4H556v21H535.1Z" class="g0_73"/>
<path d="M535.4,688.8h21v20.9h-21Z" class="g3_73"/>
<path d="M556,688.4h21.8v21.7H556Z" class="g2_73"/>
<path d="M577,688.4h21.7v21.7H577Z" class="g2_73"/>
<path d="M598,688.4h21.7v21.7H598Z" class="g2_73"/>
<path d="M619,688.4h21.7v21.7H619Z" class="g2_73"/>
<path d="M220.4,709.4h21.7v21.7H220.4Z" class="g2_73"/>
<path d="M241.4,709.4h21.7v21.7H241.4Z" class="g2_73"/>
<path d="M262.4,709.4h21.7v21.7H262.4Z" class="g2_73"/>
<path d="M283.3,709.4h21.8v21.7H283.3Z" class="g2_73"/>
<path d="M304.3,709.4H326v21.7H304.3Z" class="g2_73"/>
<path d="M325.3,709.4H347v21.7H325.3Z" class="g2_73"/>
<path d="M346.3,709.4h21v20.9h-21Z" class="g0_73"/>
<path d="M346.7,709.7h20.9v21H346.7Z" class="g3_73"/>
<path d="M367.3,709.4h20.9v20.9H367.3Z" class="g0_73"/>
<path d="M367.6,709.7h21v21h-21Z" class="g3_73"/>
<path d="M388.2,709.4h21v20.9h-21Z" class="g0_73"/>
<path d="M388.6,709.7h21v21h-21Z" class="g3_73"/>
<path d="M409.2,709.4h21v20.9h-21Z" class="g0_73"/>
<path d="M409.6,709.8h21v20.9h-21Z" class="g3_73"/>
<path d="M430.2,709.4h21v20.9h-21Z" class="g0_73"/>
<path d="M430.6,709.7h20.9v21H430.6Z" class="g3_73"/>
<path d="M451.2,709.4h20.9v20.9H451.2Z" class="g0_73"/>
<path d="M451.5,709.7h21v21h-21Z" class="g3_73"/>
<path d="M472.1,709.4h21v20.9h-21Z" class="g0_73"/>
<path d="M472.5,709.7h21v21h-21Z" class="g3_73"/>
<path d="M493.1,709.4h21v20.9h-21Z" class="g0_73"/>
<path d="M493.5,709.7h21v21h-21Z" class="g3_73"/>
<path d="M514.1,709.4h21v20.9h-21Z" class="g0_73"/>
<path d="M514.5,709.7h21v21h-21Z" class="g3_73"/>
<path d="M535.1,709.4h21v20.9h-21Z" class="g0_73"/>
<path d="M535.5,709.7h20.9v21H535.5Z" class="g3_73"/>
<path d="M556.1,709.4h21.7v21.7H556.1Z" class="g2_73"/>
<path d="M577,709.4h21.8v21.7H577Z" class="g2_73"/>
<path d="M598,709.4h21.7v21.7H598Z" class="g2_73"/>
<path d="M619,709.4h21.7v21.7H619Z" class="g2_73"/>
<path d="M220.5,373.8v357H639.6v-357H220.5Z" class="g4_73"/>
<path d="M197.8,182V347H659.7V182H197.8Z" class="g5_73"/>
<path d="M215.1,278.8c.6,1.4,1.4,2.8,2.5,4c2.6,-2.2,5.1,-5.7,7.5,-8m-9.3,20c.3,2.7,.9,4.8,2,7.2c0,-.4,-.2,-1,.4,-1.1c1.6,-1.2,3.1,-2.7,4.4,-4.3c1.6,-2,3.4,-3.9,5.2,-5.7c.1,.5,-.1,1,-.7,1.3M423.5,276.8c1.3,2,3,4.2,3.2,6.6c.8,-.9,1.8,-1.6,3,-1.9c4.4,-2.9,8.2,-6.3,11.4,-10.4c-.2,.3,-.4,.7,-.6,1m-16.4,44.1c2.4,1.5,2.4,2.3,4.6,2.5c1.5,.1,10.7,-7.6,11,-6.5" class="g6_73"/>
<path d="M205.3,191.6v46.7H322.8V191.6H205.3Z" class="g0_73"/>
<path d="M241.2,228l-.8,-.1l.3,.5l6.2,.8l-4.4,-3.8l-.5,.4l-.3,.3l-.2,.4l-.2,.4l-.1,.8v.3Z" class="g7_73"/>
<path d="M232.3,218.7v0l.8,.9l.6,.9l.2,.6l.3,.6l.2,.6v.6l.1,.6l-.3,.6l-.3,.5l-.5,.6l-.7,.4l-.9,.3l8.6,2l-.2,-.9l-.1,-.7l.1,-.7l.2,-.5l.2,-.3l.3,-.3l.2,-.2l1.4,1.1l-3,-3l-2.2,-2.6l-.9,-1.1l-.6,-.9l-.1,.2l-.2,.3l-.2,.2l-.4,.3l-.6,.1h-.9l-1.1,-.2Z" class="g8_73"/>
<path d="M240.4,227.9l.8,.1v-.3l.1,-.8l.2,-.4l.2,-.4l.3,-.3l.5,-.4l-1.4,-1.1l-.2,.2l-.3,.3l-.2,.3l-.2,.5l-.1,.7l.1,.7l.2,.9Z" class="g9_73"/>
<path d="M213.6,210.9v0l1.5,.9l1.7,1l3.2,2.1l3.1,2.3l2.9,2.3l2.5,2l2,1.7l1.7,1.6l-.2,.3l.5,-.5l.5,-.6l.2,-.7l.1,-.6l-.1,-.6l-.2,-.7l-.1,-.6l-.4,-.6l-.7,-1.2l-.6,-.9l-.8,-.8l.7,.3l.9,.2l1,.2h.8l1.4,-.2h.6l-1.2,-.3l-1.1,-.6l-2.6,-1.2l-2.7,-1.4l-2.8,-1.7L222.9,211l-2.4,-1.6L217,206.9l-1,.3l-.7,.5l-.6,.5l-.5,.4l-.3,.6l-.2,.6v.5l-.1,.6Z" class="ga_73"/>
<path d="M231.7,225.9v0h.1h-.1Z" class="ga_73"/>
<path d="M232,225.1v0l-.3,.8h.1l.9,-.3l.7,-.4l.5,-.6l.3,-.5l.3,-.6l-.1,-.6v-.6l-.2,-.6l-.3,-.6l-.2,-.6l-.6,-.9l-.8,-.9l1.1,.2h.9l.6,-.1l.4,-.3l.2,-.2l.2,-.3l.1,-.2h-.6l-1.4,.2H233l-1,-.2l-.9,-.2l-.7,-.3l.8,.8l.6,.9l.7,1.2l.4,.6l.1,.6l.2,.7l.1,.6l-.1,.7l-.2,.6l-.5,.6l-.5,.5Z" class="gb_73"/>
<path d="M206.6,204.4v0l-.3,.6v1.4l.2,.8l.3,.5l.5,.5l.3,.3l.5,.3l1,.2l-.1,-.7v-.6l.2,-.6l.2,-.6l.1,-.4l.3,-.4l.7,-.7l.6,-.6l.7,-.2l.5,-.3l.5,-.1l-.7,-.7l-.5,-.3l-.5,-.2l-.6,-.3h-.7l-.8,.1l-.9,.2l-.5,.3l-.4,.4l-.4,.5l-.2,.6Z" class="gc_73"/>
<path d="M210.5,209.5v0l1.5,.6l-.1,-.6l.1,-.5l.2,-.6l.3,-.6l.5,-.5l.7,-.5l.9,-.5l1.2,-.3l1.2,.9l.4,-.1l-.3,-.4l-.9,-.9l-.6,-.5l-.7,-.5l-.9,-.4l-1,-.4l-.2,.1l.3,.6l-.5,.2l-.5,.2l-.4,.2l-.3,.3l-.4,.4l-.2,.3l-.3,.8l-.1,.7l-.1,.8l.1,.6l.1,.6Z" class="gd_73"/>
<path d="M212,210.1v0l1.6,.8l.1,-.6v-.5l.2,-.6l.3,-.6l.5,-.4l.6,-.5l.7,-.5l1,-.3l-1.2,-.9l-1.2,.3l-.9,.5l-.7,.5l-.5,.5l-.3,.6l-.2,.6l-.1,.5l.1,.6Z" class="ge_73"/>
<path d="M209.1,209v0l1.4,.5l-.1,-.6l-.1,-.6l.1,-.8l.1,-.7l.3,-.8l.3,-.3l.3,-.4l.3,-.3l.4,-.2l.5,-.2l.5,-.2l-.3,-.6l-.5,.1l-.5,.3l-.7,.2l-.6,.6l-.7,.7l-.3,.4l-.1,.4l-.2,.6l-.2,.6v.6l.1,.7Z" class="gf_73"/>
<path d="M230.8,225.7h.1h-.1Z" class="gg_73"/>
<path d="M230.9,225.7v0l.3,.4l.5,-.2l-.8,-.2Z" class="gh_73"/>
<path d="M213.8,212.2v0l1.3,.7l1.3,.8l2.7,1.8l2.7,2l2.5,2.1l2.2,2l2,1.7l2.4,2.4l.5,-.2l.6,-.4l.2,-.3l-1.7,-1.6l-2,-1.7l-2.5,-2l-2.9,-2.3L220,214.9l-3.2,-2.1l-1.7,-1l-1.5,-.9l.1,.7l.1,.6Z" class="gb_73"/>
<path d="M230.9,225.7l.8,.2l.3,-.8l-.6,.4l-.5,.2Z" class="gb_73"/>
<path d="M206.7,203.5v0l-.7,1.7l-.6,1.8l.2,.6l.3,.5l.4,.5l.4,.4l.6,.4l.6,.3l.6,.2l.8,.2l-.2,-1.1l-1,-.2l-.5,-.3l-.3,-.3l-.5,-.5l-.3,-.5l-.2,-.8V205l.3,-.6l.2,-.6l.4,-.5l.4,-.4l.5,-.3l-.9,.4l-.5,.5Z" class="gi_73"/>
<path d="M214.5,213.8v0l-.3,-.5l-.2,-.5l-.2,-.6l-1.5,-.8l-.2,-.4l-.1,-.4v-.5l-1.5,-.6l.2,.6l-.8,.1l-.6,-.1v.5l.5,.5l.4,.5l.7,.6l.7,.5l1,.5l.9,.4l.5,.1l.5,.1Z" class="gj_73"/>
<path d="M212.3,211.4v0l1.5,.8l-.1,-.6l-.1,-.7l-1.6,-.8v.5l.1,.4l.2,.4Z" class="gk_73"/>
<path d="M210.5,209.5v0l-1.4,-.5l.2,1.1l.6,.1l.8,-.1l-.2,-.6Z" class="gl_73"/>
<path clip-path="url(#c1_73)" d="M205.4,207v0l.6,-1.8l.7,-1.7l-.4,.4l-.3,.4l-.4,.4l-.1,.4l-.1,.6l-.1,.4v.5l.1,.4Z" class="gm_73"/>
<path d="M229.7,225.5v0l-3.9,-3.1l-4,-3.1l-4.1,-3l-2.1,-1.4l-2.1,-1.3l-.1,.3l1,.6l1.1,.8l2.1,1.4l4.1,3l4,3.1l1.9,1.5l1.9,1.6v-.1l.2,-.3Z" class="gn_73"/>
<path d="M235,215.6v0l-4.5,-2.1l-4.4,-2.2l-2.2,-1.1l-2.1,-1.1l-2.2,-1.3l-2,-1.4l-.2,.4l2,1.3l2.2,1.3l2.1,1.2l2.2,1.1l4.5,2.2l4.4,2.1l.2,-.4Z" class="gn_73"/>
<path d="M214.6,214.7v0L214,214l-.4,-.7l-.2,-.8l-.1,-.9v-1l.3,-.9l.4,-.9l.3,-.4l.3,-.3l.7,-.6l.8,-.4l.9,-.3l.9,-.4l-.2,-.3l-.9,.3l-.8,.3l-.9,.6l-.8,.6l-.4,.4l-.3,.4l-.3,.9l-.4,1v1.1l.1,.9l.2,.9l.6,.8l.2,.3l.3,.4l.3,-.3Z" class="gn_73"/>
<path d="M211.8,212.5v0l-.3,-.7l-.3,-.6v-.7l-.2,-.6v-.8l.2,-.6l.1,-.7l.2,-.7l.4,-.6l.3,-.5l.5,-.4l.6,-.4l.6,-.3l.6,-.2l.6,-.2l.7,.1v-.4h-.7l-.8,.1l-.6,.3l-.6,.3l-.6,.3l-.5,.6l-.5,.5l-.3,.6l-.3,.7l-.2,.8v1.4l.1,.7l.2,.7l.1,.7l.4,.8l.3,-.2Z" class="gn_73"/>
<path d="M210.3,210.9v0l-.3,-1.1v-2l.1,-.9l.3,-.7l.2,-.5l.4,-.5l.4,-.4l.5,-.4l.5,-.3l1.1,-.6l-.2,-.4l-1.1,.6l-.6,.4l-.4,.4l-.4,.4l-.4,.5l-.4,.7l-.2,.5l-.1,1.1l-.2,1.1l.1,1.1l.3,1.1l.4,-.1Z" class="gn_73"/>
<path d="M215.6,204.9v0l-1.3,-1l-1.2,-1.1l-.2,.2l1.2,1.2l1.3,1l.2,-.3Z" class="gn_73"/>
<path d="M212.7,212.4v0l-1.7,-1l-1.7,-.8l-.1,.4l1.6,.8l1.6,.9l.3,-.3Z" class="gn_73"/>
<path d="M208.7,209.9v0l-.8,-.5l-.9,-.6l-.4,-.4l-.3,-.4l-.2,-.5l-.2,-.5l-.1,-.8v-.7l.3,-.8l.3,-.6l.5,-.7l.7,-.5l.6,-.3l.8,-.3l.8,-.3l.7,.1l.9,.2l.7,.2l.2,-.4l-.8,-.3l-.9,-.1l-.9,.1l-.8,.1l-.9,.3l-.7,.4l-.6,.6l-.6,.6l-.2,.5l-.2,.5l-.2,.4v1.5l.2,1l.2,.4l.3,.5l.7,.6l.8,.6l.9,.5l.1,-.4Z" class="gn_73"/>
<path d="M233.5,218.4v0l-2.4,-1.2L228.8,216l-2.2,-1.3l-2.3,-1.3L220,210.6l-4.3,-2.9l-.2,.4l4.4,2.8l4.3,2.9l2.2,1.3l2.2,1.3l2.3,1.2l2.4,1.2l.2,-.4Z" class="gn_73"/>
<image x="231" y="217" width="5" height="9" xlink:href="shade/1.png"/>
<path d="M236.6,217.9v0l-.8,.2l-.9,.1l-1.6,.2v.5l1.7,-.3l.9,-.1l.9,-.2l-.2,-.4Z" class="gn_73"/>
<path d="M248.2,229.6v0l-4,-.9l-4.3,-.7l-4.1,-.7l-4.2,-.6v.3l4.1,.6l4.2,.7l4.2,.8l4,1l.1,-.5Z" class="gn_73"/>
<path d="M248.3,229.2v0l-3.2,-3l-3,-3.1l-2.9,-3.3l-2.9,-3.3l-.3,.2l2.8,3.4l3,3.2l3.1,3.2l3.2,2.9l.2,-.2Z" class="gn_73"/>
<path d="M242.5,228.3v0l-.2,-.5l-.1,-.6l-.1,-.5l.1,-.6l.3,-.5l.2,-.5l.3,-.5l.4,-.3l-.2,-.4l-.5,.4l-.3,.6l-.4,.5l-.1,.6l-.2,.6l.1,.7l.1,.6l.3,.6l.3,-.2Z" class="gn_73"/>
<path d="M197.8,753.3V952.6H762.9V753.3H197.8Z" class="g5_73"/>
<path d="M205.3,762.8v46.7H322.8V762.8H205.3Z" class="g0_73"/>
<path d="M241.2,799.2l-.8,-.1l.3,.6l6.2,.8l-4.4,-3.8l-.5,.3l-.3,.3l-.2,.5l-.2,.4l-.1,.7v.3Z" class="g7_73"/>
<path d="M232.3,789.9v0l.8,1l.6,.9l.2,.5l.3,.7l.2,.6v.6l.1,.6l-.3,.6l-.3,.5l-.5,.5l-.7,.4l-.9,.4l8.6,1.9l-.2,-.9l-.1,-.7l.1,-.6l.2,-.5l.2,-.4l.3,-.2l.2,-.2l1.4,1.1l-3,-3.1l-2.2,-2.5l-.9,-1.2l-.6,-.9l-.1,.3l-.2,.2l-.2,.3l-.4,.2l-.6,.2h-.9l-1.1,-.3Z" class="g8_73"/>
<path d="M240.4,799.1l.8,.1v-.3l.1,-.7l.2,-.4l.2,-.5l.3,-.3l.5,-.3l-1.4,-1.1l-.2,.2l-.3,.2l-.2,.4l-.2,.5l-.1,.6l.1,.7l.2,.9Z" class="g9_73"/>
<path d="M213.6,782.1v0l1.5,1l1.7,.9l3.2,2.1l3.1,2.3l2.9,2.3l2.5,2.1l2,1.7l1.7,1.5l-.2,.4l.5,-.6l.5,-.5l.2,-.7l.1,-.6l-.1,-.6l-.2,-.7l-.1,-.6l-.4,-.7l-.7,-1.1l-.6,-.9l-.8,-.8l.7,.3l.9,.2l1,.1l.8,.1l1.4,-.2l.6,-.1l-1.2,-.3l-1.1,-.5L230.9,787l-2.7,-1.4l-2.8,-1.7l-2.5,-1.7l-2.4,-1.5L217,778.1l-1,.4l-.7,.5l-.6,.4l-.5,.5l-.3,.6l-.2,.5v.6l-.1,.5Z" class="ga_73"/>
<path d="M231.7,797.2v0h.1h-.1Z" class="ga_73"/>
<path d="M232,796.4v0l-.3,.8h.1l.9,-.4l.7,-.4l.5,-.5l.3,-.5l.3,-.6l-.1,-.6v-.6l-.2,-.6l-.3,-.7l-.2,-.5l-.6,-.9l-.8,-1l1.1,.3h.9l.6,-.2l.4,-.2l.2,-.3l.2,-.2l.1,-.3l-.6,.1l-1.4,.2l-.8,-.1l-1,-.1l-.9,-.2l-.7,-.3l.8,.8l.6,.9l.7,1.1l.4,.7l.1,.6l.2,.7l.1,.6l-.1,.6l-.2,.7l-.5,.5l-.5,.6Z" class="gb_73"/>
<path d="M206.6,775.7v0l-.3,.6v1.3l.2,.8l.3,.6l.5,.5l.3,.3l.5,.3l1,.2l-.1,-.8v-.6l.2,-.6l.2,-.5l.1,-.5l.3,-.4l.7,-.6l.6,-.6l.7,-.3l.5,-.2l.5,-.2l-.7,-.6l-.5,-.3l-.5,-.3l-.6,-.3h-.7l-.8,.1l-.9,.2l-.5,.4l-.4,.4l-.4,.5l-.2,.6Z" class="gc_73"/>
<path d="M210.5,780.7v0l1.5,.7l-.1,-.6l.1,-.6l.2,-.5l.3,-.6l.5,-.6l.7,-.5l.9,-.4l1.2,-.3l1.2,.8l.4,-.1l-.3,-.3l-.9,-.9l-.6,-.5l-.7,-.6l-.9,-.3l-1,-.4h-.2l.3,.7l-.5,.1l-.5,.2l-.4,.3l-.3,.2l-.3,.4l-.3,.3l-.3,.8l-.1,.8l-.1,.7l.1,.6l.1,.6Z" class="gd_73"/>
<path d="M212,781.4v0l1.6,.7l.1,-.5V781l.2,-.5l.3,-.6l.5,-.5l.6,-.4l.7,-.5l1,-.4l-1.2,-.8l-1.2,.3l-.9,.4l-.7,.5l-.5,.6l-.3,.6l-.2,.5l-.1,.6l.1,.6Z" class="ge_73"/>
<path d="M209.1,780.3v0l1.4,.4l-.1,-.6l-.1,-.6l.1,-.7l.1,-.8l.3,-.8l.3,-.3l.3,-.4l.3,-.2l.4,-.3l.5,-.2l.5,-.1l-.3,-.7l-.5,.2l-.5,.2l-.7,.3l-.6,.6l-.7,.6l-.3,.4l-.1,.5l-.2,.6l-.2,.5v.6l.1,.8Z" class="gf_73"/>
<path d="M230.8,797h.1h-.1Z" class="gg_73"/>
<path d="M230.9,797v0l.3,.3l.5,-.1l-.8,-.2Z" class="gh_73"/>
<path d="M213.8,783.4v0l1.3,.7l1.3,.8l2.7,1.8l2.7,2.1l2.5,2l2.2,2.1l2,1.7l2.4,2.4l.5,-.3l.6,-.3l.2,-.4l-1.7,-1.5l-2,-1.7L226,790.7l-2.9,-2.3L220,786.1L216.8,784l-1.7,-.9l-1.5,-1l.1,.7l.1,.6Z" class="gb_73"/>
<path d="M230.9,797l.8,.2l.3,-.8l-.6,.3l-.5,.3Z" class="gb_73"/>
<path d="M206.7,774.7v0l-.7,1.8l-.6,1.8l.2,.6l.3,.5l.4,.4l.4,.4l.6,.4l.6,.4l.6,.1l.8,.3l-.2,-1.1l-1,-.2l-.5,-.3l-.3,-.3l-.5,-.5l-.3,-.6l-.2,-.8v-1.3l.3,-.6l.2,-.6l.4,-.5l.4,-.4l.5,-.4l-.9,.5l-.5,.4Z" class="gi_73"/>
<path d="M214.5,785v0l-.3,-.4L214,784l-.2,-.6l-1.5,-.7l-.2,-.4l-.1,-.4v-.5l-1.5,-.7l.2,.6l-.8,.1h-.6v.5l.5,.5l.4,.5l.7,.5l.7,.6l1,.5l.9,.4h.5l.5,.1Z" class="gj_73"/>
<path d="M212.3,782.7v0l1.5,.7l-.1,-.6l-.1,-.7l-1.6,-.7v.5l.1,.4l.2,.4Z" class="gk_73"/>
<path d="M210.5,780.7v0l-1.4,-.4l.2,1.1h.6l.8,-.1l-.2,-.6Z" class="gl_73"/>
<path clip-path="url(#c2_73)" d="M205.4,778.3v0l.6,-1.8l.7,-1.8l-.4,.4l-.3,.4l-.4,.4l-.1,.5l-.1,.5l-.1,.5v.5l.1,.4Z" class="gm_73"/>
<path d="M229.7,796.7v0l-3.9,-3l-4,-3.2l-4.1,-3l-2.1,-1.3l-2.1,-1.3l-.1,.3l1,.6l1.1,.7l2.1,1.5l4.1,3l4,3l1.9,1.5l1.9,1.6V797l.2,-.3Z" class="gn_73"/>
<path d="M235,786.9v0l-4.5,-2.1l-4.4,-2.2l-2.2,-1.1l-2.1,-1.2L219.6,779l-2,-1.3l-.2,.3l2,1.4l2.2,1.2l2.1,1.2l2.2,1.1l4.5,2.2l4.4,2.1l.2,-.3Z" class="gn_73"/>
<path d="M214.6,785.9v0l-.6,-.7l-.4,-.7l-.2,-.8l-.1,-.9v-.9l.3,-.9l.4,-1l.3,-.3l.3,-.3l.7,-.6l.8,-.5l.9,-.3l.9,-.3l-.2,-.4l-.9,.4l-.8,.3l-.9,.5l-.8,.6l-.4,.4l-.3,.4l-.3,1l-.4,1v1l.1,.9l.2,.9l.6,.8l.2,.4l.3,.3l.3,-.3Z" class="gn_73"/>
<path d="M211.8,783.7v0l-.3,-.6l-.3,-.7v-.6l-.2,-.7v-.7l.2,-.7l.1,-.6l.2,-.7l.4,-.6l.3,-.5l.5,-.5l.6,-.3l.6,-.4l.6,-.2l.6,-.1h.7v-.4l-.7,.1l-.8,.1l-.6,.2l-.6,.3l-.6,.4l-.5,.5l-.5,.5l-.3,.7l-.3,.6l-.2,.8v1.5l.1,.7l.2,.7l.1,.7l.4,.7l.3,-.2Z" class="gn_73"/>
<path d="M210.3,782.1v0l-.3,-1v-2l.1,-1l.3,-.7l.2,-.5l.4,-.5l.4,-.4l.5,-.3l.5,-.3l1.1,-.7l-.2,-.3l-1.1,.6l-.6,.3l-.4,.5l-.4,.4l-.4,.5l-.4,.6l-.2,.6l-.1,1.1l-.2,1l.1,1.2l.3,1l.4,-.1Z" class="gn_73"/>
<path d="M215.6,776.2v0l-1.3,-1L213.1,774l-.2,.3l1.2,1.1l1.3,1.1l.2,-.3Z" class="gn_73"/>
<path d="M212.7,783.6v0l-1.7,-.9l-1.7,-.8l-.1,.3l1.6,.8l1.6,1l.3,-.4Z" class="gn_73"/>
<path d="M208.7,781.2v0l-.8,-.5l-.9,-.6l-.4,-.5l-.3,-.3l-.2,-.6l-.2,-.5l-.1,-.8v-.7l.3,-.8l.3,-.6l.5,-.6l.7,-.5l.6,-.4l.8,-.3l.8,-.2h.7l.9,.2l.7,.2l.2,-.3l-.8,-.3l-.9,-.1h-.9l-.8,.1l-.9,.3l-.7,.4l-.6,.6l-.6,.7l-.2,.5l-.2,.4l-.2,.5V778l.2,.9l.2,.5l.3,.4l.7,.7l.8,.5l.9,.5l.1,-.3Z" class="gn_73"/>
<path d="M233.5,789.6v0l-2.4,-1.1l-2.3,-1.2L226.6,786l-2.3,-1.3L220,781.8L215.7,779l-.2,.3l4.4,2.9l4.3,2.8l2.2,1.4l2.2,1.3l2.3,1.1l2.4,1.2l.2,-.4Z" class="gn_73"/>
<image x="231" y="788" width="5" height="9" xlink:href="shade/2.png"/>
<path d="M236.6,789.2v0l-.8,.2l-.9,.1l-1.6,.2v.4l1.7,-.2l.9,-.2l.9,-.2l-.2,-.3Z" class="gn_73"/>
<path d="M248.2,800.9v0l-4,-1l-4.3,-.7l-4.1,-.7l-4.2,-.6v.3l4.1,.7l4.2,.6l4.2,.9l4,.9l.1,-.4Z" class="gn_73"/>
<path d="M248.3,800.4v0l-3.2,-2.9l-3,-3.2l-2.9,-3.2l-2.9,-3.3l-.3,.1l2.8,3.5l3,3.2l3.1,3.2l3.2,2.9l.2,-.3Z" class="gn_73"/>
<path d="M242.5,799.5v0l-.2,-.5l-.1,-.5l-.1,-.6l.1,-.6l.3,-.5l.2,-.5l.3,-.5l.4,-.3l-.2,-.3l-.5,.4l-.3,.5l-.4,.5l-.1,.7l-.2,.5l.1,.8l.1,.5l.3,.6l.3,-.2Z" class="gn_73"/>
<g clip-path="url(#c3_73)">
<path d="M-4.5,13.7H-27.4m939.5,0H935M-4.5,1031.2H-27.4m939.5,0H935M13.7,-4.5V-27.4m0,1077v22.9m880,-1077V-27.4m0,1077v22.9" class="go_73"/>
<path d="M-4.5,13.7H-27.4m939.5,0H935M-4.5,1031.2H-27.4m939.5,0H935M13.7,-4.5V-27.4m0,1077v22.9m880,-1077V-27.4m0,1077v22.9" class="gp_73"/>
</g>
</svg>