<?xml version="1.0" encoding="UTF-8" standalone="no"?>
<!DOCTYPE svg PUBLIC "-//W3C//DTD SVG 1.1//EN"
"http://www.w3.org/Graphics/SVG/1.1/DTD/svg11.dtd">
<svg viewBox="0 0 907 1045" version="1.1" xmlns="http://www.w3.org/2000/svg" xmlns:xlink="http://www.w3.org/1999/xlink">
<defs>
<clipPath id="c0_464"><path d="M90.7,148.2V91.3H258.2v56.9Z"/></clipPath>
<clipPath id="c1_464"><path d="M590.2,317.8V212.2h135V317.8Z"/></clipPath>
<clipPath id="c2_464"><path d="M590.2,777.2V671.6h135V777.2Z"/></clipPath>
<clipPath id="c3_464"><path d="M590.2,611.8V506.6h135V611.8Z"/></clipPath>
<clipPath id="c4_464"><path d="M590.2,458.3V351.6h135V458.3Z"/></clipPath>
<clipPath id="c5_464"><path d="M591.2,916.8V811.5h135V916.8Z"/></clipPath>
<clipPath id="c6_464"><path d="M-2.6,1047.7V-2.6H910.2V1047.7Z"/></clipPath>
<style type="text/css"><![CDATA[
.g0_464{
fill: none;
stroke: #000000;
stroke-width: 1.527;
stroke-linecap: butt;
stroke-linejoin: miter;
stroke-miterlimit: 4;
}
.g1_464{
fill: #FFFFFF;
}
.g2_464{
}
.g3_464{
fill: #B6B6B6;
}
.g4_464{
fill: #333333;
}
.g5_464{
fill: #7C7C7C;
}
.g6_464{
fill: #909090;
}
.g7_464{
fill: #727272;
}
.g8_464{
fill: #C8C8C8;
}
.g9_464{
fill: #ACACAC;
}
.ga_464{
fill: #A8A8A8;
}
.gb_464{
fill: #E5E5E5;
}
.gc_464{
fill: #D2D2D2;
}
.gd_464{
fill: #CFCFCF;
}
.ge_464{
fill: #ECECEC;
}
.gf_464{
fill: #DDDDDD;
}
.gg_464{
fill: #DBDBDB;
}
.gh_464{
fill: #D6D6D6;
}
.gi_464{
fill: #3C3C3C;
}
.gj_464{
fill: none;
stroke: #000000;
stroke-width: 0.492;
stroke-linecap: butt;
stroke-linejoin: miter;
stroke-miterlimit: 4;
}
.gk_464{
fill: none;
stroke: #000000;
stroke-width: 0.656;
stroke-linecap: butt;
stroke-linejoin: miter;
stroke-miterlimit: 4;
}
.gl_464{
fill: none;
stroke: #636363;
stroke-width: 1.527;
stroke-linecap: butt;
stroke-linejoin: miter;
stroke-miterlimit: 4;
}
.gm_464{
fill: none;
stroke: #FFFFFF;
stroke-width: 1.909;
stroke-linecap: butt;
stroke-linejoin: miter;
}
.gn_464{
fill: none;
stroke: #000000;
stroke-width: 0.381;
stroke-linecap: butt;
stroke-linejoin: miter;
}
]]></style>
</defs>
<path d="M94.1,106.1V954.9H818.5V106.1H94.1Z" class="g0_464"/>
<path d="M135.5,143v59.8H370V143H135.5Z" class="g1_464"/>
<path d="M93.3,95.9v59.8H278.5V95.9H93.3Z" class="g1_464"/>
<path d="M89.2,89v44.8H263.8V89H89.2Z" class="g1_464"/>
<path d="M90.7,91.3V160h173V91.3H90.7Z" class="g1_464"/>
<g clip-path="url(#c0_464)">
<path d="M143.5,144.9l-1.1,-.2l.3,.9l9.2,1.1l-6.4,-5.5l-.8,.5l-.5,.4l-.2,.7l-.4,.5l-.1,1.1v.5Z" class="g2_464"/>
<path d="M130.4,131.2v0l1.2,1.4l.9,1.3l.3,.8l.4,1l.3,.9v.9l.1,.9l-.4,.8l-.4,.8l-.8,.8l-1,.6l-1.4,.5l12.8,2.8l-.4,-1.3l-.1,-1l.2,-1l.3,-.7l.3,-.5l.3,-.4l.4,-.3l2.1,1.7L141,136.6l-3.3,-3.7l-1.3,-1.7l-.8,-1.3l-.2,.3l-.2,.4l-.3,.4l-.7,.3l-.8,.2l-1.4,.1l-1.6,-.4Z" class="g3_464"/>
<path d="M142.4,144.7l1.1,.2v-.5l.1,-1.1l.4,-.5l.2,-.7l.5,-.4l.8,-.5l-2.1,-1.7l-.4,.3l-.3,.4l-.3,.5l-.3,.7l-.2,1l.1,1l.4,1.3Z" class="g4_464"/>
<path d="M102.9,119.7v0l2.2,1.4l2.5,1.4l4.6,3.1l4.6,3.4l4.3,3.4l3.7,3l2.9,2.5l2.5,2.3l-.3,.5l.8,-.8l.7,-.8l.4,-1v-1l-.1,-.9l-.2,-1l-.2,-.8l-.6,-1l-1,-1.7l-.9,-1.3l-1.2,-1.2l1.1,.5l1.3,.2l1.4,.3h1.2l2.1,-.2l.9,-.1l-1.7,-.5l-1.7,-.8l-3.9,-1.7l-3.9,-2.1l-4.1,-2.5l-3.7,-2.4L113,117.6l-5.1,-3.8l-1.5,.6l-1,.7l-.9,.7l-.7,.6l-.5,.9l-.3,.8l-.1,.8v.8Z" class="g5_464"/>
<path d="M129.5,141.9v0h.1h-.1Z" class="g5_464"/>
<path d="M129.9,140.7v0l-.4,1.2h.1l1.4,-.5l1,-.6l.8,-.8l.4,-.8l.4,-.8l-.1,-.9v-.9l-.3,-.9l-.4,-1l-.3,-.8l-.9,-1.3l-1.2,-1.4l1.6,.4l1.4,-.1l.8,-.2l.7,-.3l.3,-.4l.2,-.4l.2,-.3l-.9,.1l-2.1,.2h-1.2l-1.4,-.3l-1.3,-.2l-1.1,-.5l1.2,1.2l.9,1.3l1,1.7l.6,1l.2,.8l.2,1l.1,.9v1l-.4,1l-.7,.8l-.8,.8Z" class="g6_464"/>
<path d="M92.6,110.2v0l-.4,.9l-.2,.6l.1,.8v.6l.3,1.2l.5,.7l.6,.8l.6,.5l.7,.4l1.4,.3l-.1,-1.1V115l.3,-.8l.2,-.9l.3,-.7l.4,-.5l1,-1l.9,-.9l1,-.4l.8,-.4l.7,-.1l-1,-1l-.7,-.4l-.9,-.4l-.8,-.4L97.2,107l-1.1,.2l-1.3,.3l-.7,.5l-.6,.6l-.6,.8l-.3,.8Z" class="g7_464"/>
<path d="M98.3,117.6v0l2.2,1l-.1,-.9l.1,-.8l.2,-.8l.6,-.9l.6,-.8l1,-.7l1.5,-.7l1.7,-.4l1.8,1.2l.5,-.1l-.4,-.5l-1.2,-1.4l-1,-.7l-1,-.8l-1.4,-.6l-1.5,-.5l-.2,.1l.5,.9l-.8,.2l-.7,.3l-.7,.4l-.4,.4l-.5,.6l-.3,.4l-.5,1.2l-.1,1.1l-.2,1.1l.1,.9l.2,.8Z" class="g8_464"/>
<path d="M100.5,118.6v0l2.4,1.1v-.8l.1,-.8l.3,-.8l.5,-.9l.7,-.6l.9,-.7l1,-.7l1.5,-.6l-1.8,-1.2l-1.7,.4l-1.5,.7l-1,.7l-.6,.8l-.6,.9l-.2,.8l-.1,.8l.1,.9Z" class="g9_464"/>
<path d="M96.2,117v0l2.1,.6l-.2,-.8l-.1,-.9l.2,-1.1l.1,-1.1l.5,-1.2l.3,-.4l.5,-.6l.4,-.4l.7,-.4l.7,-.3l.8,-.2l-.5,-.9l-.7,.1l-.8,.4l-1,.4l-.9,.9l-1,1l-.4,.5l-.3,.7l-.2,.9l-.3,.8v.9l.1,1.1Z" class="ga_464"/>
<path d="M128.2,141.6h.1h-.1Z" class="gb_464"/>
<path d="M128.3,141.6v0l.5,.5l.7,-.2l-1.2,-.3Z" class="gc_464"/>
<path d="M103.2,121.6v0l1.9,1.1l1.9,1.2l4,2.6l4,3l3.6,3l3.3,3l2.9,2.5l3.5,3.6l.8,-.4l.8,-.5l.3,-.5l-2.5,-2.3l-2.9,-2.5l-3.7,-3L116.8,129l-4.6,-3.4l-4.6,-3.1l-2.5,-1.4l-2.2,-1.4l.1,1.1l.2,.8Z" class="g6_464"/>
<path d="M128.3,141.6l1.2,.3l.4,-1.2l-.8,.5l-.8,.4Z" class="g6_464"/>
<path d="M92.6,108.8v0l-.9,2.6l-.8,2.6l.2,.9l.5,.8l.6,.6l.6,.6l.7,.6l.9,.5l.9,.2l1.2,.4L96.2,117l-1.4,-.3l-.7,-.4l-.6,-.5l-.6,-.8l-.5,-.7l-.3,-1.2v-.6l-.1,-.8l.2,-.6l.4,-.9l.3,-.8l.6,-.8l.6,-.6l.7,-.5l-1.3,.6l-.9,.7Z" class="gd_464"/>
<path d="M104.2,124v0l-.4,-.7l-.4,-.8l-.2,-.9L101,120.5l-.3,-.5l-.2,-.6v-.8l-2.2,-1l.2,.9l-1.1,.2l-.9,-.1v.7l.8,.8l.6,.7l1,.8l1.1,.8l1.4,.8l1.3,.5l.8,.1l.7,.2Z" class="ge_464"/>
<path d="M101,120.5v0l2.2,1.1l-.2,-.8l-.1,-1.1l-2.4,-1.1v.8l.2,.6l.3,.5Z" class="gf_464"/>
<path d="M98.3,117.6v0L96.2,117l.3,1.6l.9,.1l1.1,-.2l-.2,-.9Z" class="gg_464"/>
<path clip-path="url(#c0_464)" d="M90.9,114v0l.8,-2.6l.9,-2.6l-.5,.6l-.5,.6l-.4,.6l-.3,.7l-.1,.8l-.1,.6v.8l.2,.5Z" class="gh_464"/>
<path d="M126.6,141.2v0l-5.7,-4.5l-6,-4.6l-6,-4.4l-3,-2l-3.2,-2l-.2,.5l1.6,.9l1.6,1.1l3.1,2.1l6,4.5l5.9,4.4l2.8,2.2l2.8,2.4v-.2l.3,-.4Z" class="gi_464"/>
<path d="M134.3,126.7v0l-6.5,-3.1l-6.5,-3.2L118,118.7l-3.1,-1.6l-3.1,-2l-3.1,-2l-.3,.6l3.1,2l3.1,1.8l3.1,1.8l3.3,1.6l6.6,3.2l6.4,3.1l.3,-.5Z" class="gi_464"/>
<path d="M104.3,125.3v0l-.9,-1l-.5,-1.1l-.3,-1.1l-.2,-1.4l.1,-1.4l.4,-1.3l.5,-1.4l.5,-.5l.4,-.5l1.1,-.9l1.2,-.6l1.2,-.4l1.4,-.5l-.3,-.6l-1.3,.5l-1.3,.5l-1.2,.8l-1.2,.9l-.5,.6l-.5,.6l-.5,1.3l-.5,1.5l-.1,1.6l.2,1.3l.3,1.3l.8,1.2l.4,.5l.4,.5l.4,-.4Z" class="gi_464"/>
<path d="M100.2,122.1v0l-.4,-1l-.4,-1l-.1,-.9l-.2,-1v-1.1l.2,-.9l.2,-1l.3,-1l.5,-.9l.6,-.8l.7,-.6l.8,-.5l.9,-.5l.9,-.3l.9,-.2h1v-.6l-1,.1l-1.2,.2l-.9,.4l-.9,.4l-.8,.5l-.8,.8l-.7,.8l-.5,.9l-.4,1l-.3,1.1v2.2l.1,1l.3,1l.2,1l.6,1.1l.4,-.2Z" class="gi_464"/>
<path d="M98,119.7v0l-.4,-1.6l-.1,-1.3v-1.6l.3,-1.4l.3,-1l.4,-.7l.6,-.8l.6,-.6l.7,-.5l.6,-.5l1.7,-.9l-.2,-.5l-1.7,.9l-.8,.5l-.7,.6l-.6,.7l-.6,.7l-.5,.9l-.4,.9l-.1,1.6l-.2,1.5l.1,1.7l.4,1.6l.6,-.2Z" class="gi_464"/>
<path d="M105.8,111v0l-1.9,-1.5l-1.7,-1.7l-.4,.4l1.8,1.7l1.9,1.5l.3,-.4Z" class="gi_464"/>
<path d="M101.5,121.9v0l-2.4,-1.4l-2.6,-1.2l-.2,.5l2.4,1.3l2.5,1.3l.3,-.5Z" class="gi_464"/>
<path d="M95.7,118.3v0l-1.3,-.7l-1.2,-.9l-.6,-.7l-.5,-.5l-.3,-.8l-.2,-.7l-.2,-1.2l.1,-1.1l.3,-1.1l.5,-.9l.8,-1l1,-.7l.9,-.5l1,-.5l1.3,-.3h1l1.3,.3l1.1,.4l.2,-.5l-1.2,-.5l-1.2,-.2l-1.3,.1l-1.3,.2l-1.2,.4l-1.1,.6l-.9,.9l-.8,.9l-.4,.7l-.3,.7l-.3,.7l.1,.8l-.1,1.4l.4,1.4l.3,.7l.4,.6l1,1l1.1,.8l1.4,.7l.2,-.5Z" class="gi_464"/>
<path d="M132.1,130.8v0L128.7,129l-3.4,-1.7L122,125.4l-3.3,-1.9l-6.4,-4.2L106,115.1l-.3,.5l6.4,4.2l6.4,4.2l3.2,1.9l3.3,2l3.4,1.7l3.4,1.7l.3,-.5Z" class="gi_464"/>
<image x="129" y="130" width="6" height="12" xlink:href="shade/1.png"/>
<path d="M136.7,130.1v0l-1.1,.3l-1.3,.1l-2.5,.4l.1,.6l2.5,-.4l1.3,-.2l1.3,-.3l-.3,-.5Z" class="gi_464"/>
<path d="M153.9,147.3v0l-6,-1.4l-6.2,-1l-6.1,-1.1l-6.2,-.8v.4l6,1l6.2,1l6.1,1.2l6,1.4l.2,-.7Z" class="gi_464"/>
<path d="M154,146.7v0l-4.7,-4.4l-4.4,-4.7l-4.4,-4.7L136.3,128l-.4,.3l4.2,5.1l4.3,4.7l4.6,4.6l4.7,4.4l.3,-.4Z" class="gi_464"/>
<path d="M145.5,145.3v0l-.3,-.7l-.3,-.8V143l.1,-.9l.4,-.7l.4,-.8l.4,-.7l.6,-.5l-.3,-.5l-.7,.7l-.5,.7l-.6,.8l-.2,.9l-.2,.9l.1,1l.2,.9l.4,.8l.5,-.3Z" class="gi_464"/>
</g>
<image clip-path="url(#c1_464)" preserveAspectRatio="none" x="590" y="212" width="136" height="106" xlink:href="img/1.jpg"/>
<path d="M596.1,218v85H710.8V218H596.1Z" class="g1_464"/>
<path d="M596.1,218v85H710.8V218H596.1Z" class="gj_464"/>
<path d="M596,234.5H712" class="gk_464"/>
<image clip-path="url(#c2_464)" preserveAspectRatio="none" x="590" y="671" width="136" height="107" xlink:href="img/2.jpg"/>
<path d="M596.1,677.4v85H710.8v-85H596.1Z" class="g1_464"/>
<path d="M596.1,677.4v85H710.8v-85H596.1Z" class="gj_464"/>
<path d="M596,693.9H712" class="gk_464"/>
<image clip-path="url(#c3_464)" preserveAspectRatio="none" x="590" y="506" width="136" height="106" xlink:href="img/3.jpg"/>
<path d="M596.1,512.3v84.5H710.8V512.3H596.1Z" class="g1_464"/>
<path d="M596.1,512.3v84.5H710.8V512.3H596.1Z" class="gj_464"/>
<path d="M596,528.9H712" class="gk_464"/>
<image clip-path="url(#c4_464)" preserveAspectRatio="none" x="590" y="351" width="136" height="108" xlink:href="img/4.jpg"/>
<path d="M596.1,357.4v86.1H710.8V357.4H596.1Z" class="g1_464"/>
<path d="M596,357.4v86.1H710.8V357.4H596Z" class="gj_464"/>
<path d="M596,373.9H711.9" class="gk_464"/>
<path d="M357.1,212.1c5.4,-.1,10.9,-1.8,16.2,-2.8c8,-1.5,16.4,-1.1,24.5,-2c8.7,-1,17.8,-1.8,26.5,-.9c11,1.2,21.9,1.3,32.9,3.1c5.4,.9,10.1,3.4,15.5,4.1c5.7,.8,11.4,2.3,16.9,3.8c4.2,1.2,8.5,1.6,12.7,2.9c4.5,1.4,8.9,3.1,13.4,4.7c7.7,2.6,16.1,3.2,23.7,5.6c6.6,2,13.3,3.4,19.8,5.7c2.3,.8,4.6,1.6,6.9,1.9c1.1,.2,3.6,.8,4.2,.3c2,1.2,7.8,-.9,8.8,1c-2.8,-.4,-9,-3,-10.2,-5.8c1.9,.1,7.6,3.7,7.8,5.7c.2,3,-7.1,3.8,-9.2,3.6m-72.9,3.4c9.7,-1.7,19.2,1,29,1.5c8.5,.4,17,2.1,25.5,3.6c5.5,.9,10.9,2.4,16.4,3c2,.3,4.1,0,6.1,.2c1.5,.1,3.2,.9,4.7,.7c-2.4,.2,-5.4,-.9,-6.7,-3.1c2.3,2.2,7.6,2,8.9,5c.7,1.5,.8,.9,-.7,2.2c-1.9,1.7,-7.6,1.9,-10.3,2.1m-63.2,19.2c12.6,0,25.1,-.7,37.7,-.7c6.1,0,12.1,0,18.1,.6c3.8,.4,11.4,-1.7,14.1,1.7c.9,-.2,1.4,-.8,1.5,-1.8c1.2,-.7,1.7,-.2,2.8,-.6c1.2,-.4,2.4,-1.2,3.2,-2c-4.3,.2,-8.9,1,-13.1,.8c4.4,-.1,9.7,-.8,14,.1c.6,4.2,-6.1,5.2,-6.2,8.8M447.2,309c6.9,0,14,.7,20.9,1.6c7.4,1,15.1,.5,22.6,.5c14.8,-.1,29.5,-4.3,44.3,-4.9c9.3,-.3,18.8,.5,27.9,-1.8c2.3,-.6,3.9,-1.4,6,-2.5c1.8,-.9,4.3,-.7,6,-1.9c-3.5,.2,-7,.1,-10.5,.1c2.1,0,8.9,-1.2,10.5,.1c1.9,1.6,-2.2,6.3,-2.6,8.1m-79.7,51.3c13.7,3.5,28,4.9,41.6,8.9c5.5,1.7,10.9,2.1,16.4,3.2c3.6,.8,6.9,2.1,10.6,2.5c1.9,.3,3.8,-.1,5.7,.2c2.9,.3,7.4,.7,10.1,2c-1.9,-1.3,-3.2,-3,-4.8,-4.5c.9,2.1,3.6,2.6,4.7,4.7c-3,2.3,-7.9,2.4,-11.5,2.6m-125.8,8.9c11.6,-.6,23.5,1.5,35.1,1.4c7.6,0,15.1,1.4,22.8,1.4c12.4,0,24.9,-.3,37.3,0c9,.2,18.7,1.1,27.3,2.8c6.1,1.2,12.1,1,18.3,1.4c-3.6,-2,-7.5,-3.9,-10.9,-6c2.1,1.6,10.1,3.7,10.5,5.9c.3,1.6,-3.7,4.1,-4.7,4.5c-1.5,.7,-5.1,.3,-5.7,1.7M288.4,414.3c15.2,.3,30.5,1.2,45.8,.1c5.7,-.4,11.5,.1,17.2,.5c6.8,.6,13.7,.6,20.4,1.3c2.4,.2,4.8,-.1,7.2,.1c3.5,.3,6.9,1.4,10.5,1.5c6.3,.1,12.4,-.3,18.6,.4c2.4,.3,4.8,.2,7.2,.2c5.6,-.1,11,.9,16.5,1.3c9.4,.6,18.9,.1,28.3,.9c7.1,.6,14.2,.3,21.3,1c3.4,.4,6.6,.9,10,1c4.6,.1,9.2,-1,13.8,-.7c6.7,.6,13.4,.4,20.2,.6c7.1,.2,13.8,.9,20.9,.2c7.1,-.7,14,-.3,21.1,-1.7c3,-.7,6,-.3,9,-.7c2.4,-.3,5,-2,7.4,-1.9c-1.4,-1,-2.6,-.7,-4.5,-.8c-3.6,-.3,-7.6,-.6,-11.2,-1.4c1.2,-2.4,13.2,0,15.4,2c4.7,4.2,-2.4,9.1,-5,11.9m-151.2,22c8.4,0,16.9,0,25.4,0c5.3,0,11.1,.5,16.4,-.1c5.6,-.7,10.8,-1.3,16.4,-1.3c13.7,0,27.2,-1.5,40.8,-2.1c4.8,-.2,9.5,.2,14.2,-.6c4.2,-.8,8.3,-1.8,12.4,-2.7c1.6,-.3,3.4,.3,5,-.1c1.2,-.2,2.3,-1,3.5,-1.4c1.1,-.4,4.3,-.4,4.7,-1.2c-4.7,-.8,-9.6,0,-14.4,-1.6c2.6,.1,10.3,-1.3,12.3,.6c2,1.9,-1.4,7.1,-2,9.8m-33.7,60c2,.4,3.4,1.8,5.1,2.9c5.8,3.4,12.9,3.6,19.3,5.3c3.4,1,6.8,2.3,10.3,3.4c2.1,.7,4.4,2.5,6.6,2.9c1.7,.3,3.8,-.6,5.5,-.1c1.7,.5,3,3.2,4.7,2.7c-.3,-3.6,-5,-7.5,-7.3,-10.4c1.9,1,3.4,3.7,5,5.1c1.8,1.6,5.3,4.8,4.3,7.9c-1,3.3,-8,1.3,-10.9,.9m-98.1,6.2c3.7,1.3,8.3,.7,12.2,.7c6.6,0,13,.4,19.6,.7c9.7,.3,19.7,2.8,29.4,4.2c7.9,1.2,15.8,3.5,23.7,4.5c3.6,.5,8.8,.8,12.4,.1c-1.5,-1.5,-4.2,-1.3,-6.1,-1.9c-2.7,-.8,-6.7,-1.9,-8.9,-3.4c2.5,-.4,12,.5,13,3.3c1.2,3.6,-4,4.6,-6.1,6.2m-39.9,19.3c7,0,14,-.6,21,-.7c6.4,-.2,13.4,.9,19.8,0c3.5,-.4,6.4,-1.4,10.1,-1.4c1.9,0,5.2,.7,6.7,-.7c-3.1,.5,-7.8,-1.1,-10.7,-2.1c3.1,1.9,8.6,.9,12.2,1.6c.4,2.4,-4.1,5.7,-5.4,7.4m-88,24.1c5.4,4.6,13.9,3.4,20.7,3.4c5.2,0,10.4,0,15.6,0c7.5,0,15.3,-.3,22.8,-1.2c6.9,-.9,13.1,-2.6,19.8,-4.1c3.4,-.8,7.3,-2.7,9.8,-5.4c-.9,.1,-2.2,-.4,-3.5,-.3c-2.3,.1,-4.3,1.4,-6.7,1.4c1.5,0,3,0,4.6,0c1.6,0,8.1,-1,9.3,.1c1.6,1.5,-1.9,7.2,-1.7,9.5M425.2,657.7c2.7,-1.4,6.9,-1,9.8,-1.4c7,-.9,14,-1.3,21.1,-1.4c5,-.1,10.2,-.3,15.2,0c5.2,.3,10.1,1.9,15.2,2.6c7.3,1,14.4,4.3,20.7,7.9c6.6,3.7,13.6,6.6,20.1,10.3c5.8,3.3,10.8,6.9,17.3,8.8c6.8,2,13.2,4.7,19.7,7.4c7,2.9,14.3,4.9,21,8.3c-1.4,-.8,-3.1,-.6,-4.5,-1.3c-2.2,-1.1,-4.6,-3,-6.3,-4.7c3.8,-.6,11.3,1.4,12.1,6.1c1,5.6,-9.3,2.7,-11.5,4.8M467.1,692c2.9,-2.5,7.2,.6,9.8,1.9c5.4,2.7,10.5,4.8,16.5,6.1c7,1.5,13.8,3.8,20.8,5.3c10.6,2.4,21.5,2.7,32.1,4.6c6.8,1.2,13.1,4.6,19.8,5.6c2.5,.3,4.5,.8,6.9,1.3c1.2,.2,4.3,1.2,5.1,2c-3.1,-2.3,-6.5,-4,-9,-6.9c4.2,.5,8,5.2,11.3,7.7c-5.3,-.5,-10.4,1.6,-15.8,1.3q-.5,0,.2,0m-136.9,1.4c3.7,0,7,0,10.6,.6c7.4,1.3,15,1.9,22.3,3.5c7.4,1.6,15.1,4.2,22.6,4.8c5.6,.5,10.9,2.4,16.5,2.8c3.2,.3,6.4,-.1,9.7,0c3.8,0,7.6,.9,11.4,1.2c6.2,.5,12.7,1.5,18.9,.7c4.8,-.6,9.7,-.9,14.6,-.6c5.7,.4,11.4,1.2,17,2.2c-3,-1.9,-9.8,-2,-11.6,-4.1c1.4,.4,2.9,.8,4.2,1.2c2.3,.7,5.5,.9,7.5,2.3c-.4,3.8,-8.3,2.9,-9.6,6M422.4,758.7c11.9,.1,23.6,-3.7,35.5,-2.6c4.1,.3,7.9,1.2,11.9,1.3c4.8,0,9.6,0,14.4,0c4.7,0,9.9,-.8,14.5,.5c5.7,1.5,11.8,.5,17.9,.8c12.9,.6,26.1,1.1,39,-.5c3.1,-.4,5.8,-.8,8.9,-.8c1.8,-.1,3.5,.4,5,.5c1.4,.1,2.6,-.6,4,-.5c-1.8,.1,-3.8,-1.1,-5.4,-1.6c-2.5,-.8,-5.3,-.9,-7.3,-2.6c4.5,.5,9.1,2.9,13.5,2.9c1.5,4.8,-8.5,8.2,-10.9,10.9" class="gl_464"/>
<image clip-path="url(#c5_464)" preserveAspectRatio="none" x="591" y="811" width="136" height="106" xlink:href="img/5.jpg"/>
<path d="M597,817.3v84.5H711.8V817.3H597Z" class="g1_464"/>
<path d="M597,817.3v84.5H711.8V817.3H597Z" class="gj_464"/>
<path d="M597,833.8H712.9" class="gk_464"/>
<path d="M529.3,816.3c2,.5,3.4,1.9,5.1,2.9c5.8,3.5,12.8,3.6,19.2,5.4c3.5,1,6.9,2.3,10.3,3.4c2.2,.7,4.5,2.5,6.7,2.8c1.7,.3,3.8,-.6,5.5,-.1c1.7,.5,3,3.3,4.7,2.8c-.4,-3.7,-5,-7.6,-7.3,-10.4c1.8,.9,3.4,3.7,4.9,5.1c1.9,1.6,5.3,4.8,4.4,7.8c-1,3.3,-8,1.4,-10.9,1m-98.1,6.1c3.7,1.4,8.3,.7,12.2,.7c6.5,0,13,.5,19.6,.7c9.6,.4,19.7,2.8,29.4,4.3c7.9,1.2,15.8,3.5,23.7,4.5c3.6,.5,8.7,.8,12.4,0c-1.5,-1.4,-4.2,-1.3,-6.1,-1.8c-2.7,-.8,-6.8,-1.9,-9,-3.4c2.6,-.4,12.1,.5,13.1,3.3c1.2,3.5,-4,4.6,-6.1,6.2m-39.9,19.2c7,0,14,-.6,21,-.7c6.4,-.1,13.4,.9,19.8,.1c3.5,-.5,6.4,-1.4,10.1,-1.4c1.9,0,5.2,.7,6.6,-.8c-3.1,.5,-7.7,-1.1,-10.6,-2c3.1,1.9,8.6,.8,12.2,1.5c.4,2.5,-4.1,5.8,-5.5,7.5m-88,24c5.5,4.7,14,3.5,20.8,3.5c5.2,-.1,10.4,0,15.5,0c7.6,0,15.4,-.4,22.9,-1.3c6.9,-.8,13.1,-2.5,19.8,-4.1c3.4,-.8,7.3,-2.7,9.8,-5.3c-.9,.1,-2.2,-.4,-3.5,-.4c-2.3,.2,-4.4,1.5,-6.7,1.5c1.5,-.1,3,-.1,4.6,-.1c1.6,0,8.1,-1,9.3,.1c1.6,1.5,-1.9,7.2,-1.7,9.6" class="gl_464"/>
<g clip-path="url(#c6_464)">
<path d="M-4.5,13.7H-27.4m939.5,0H935M-4.5,1031.2H-27.4m939.5,0H935M13.7,-4.5V-27.4m0,1077v22.9m880,-1077V-27.4m0,1077v22.9" class="gm_464"/>
<path d="M-4.5,13.7H-27.4m939.5,0H935M-4.5,1031.2H-27.4m939.5,0H935M13.7,-4.5V-27.4m0,1077v22.9m880,-1077V-27.4m0,1077v22.9" class="gn_464"/>
</g>
</svg>