<?xml version="1.0" encoding="UTF-8" standalone="no"?>
<!DOCTYPE svg PUBLIC "-//W3C//DTD SVG 1.1//EN"
"http://www.w3.org/Graphics/SVG/1.1/DTD/svg11.dtd">
<svg viewBox="0 0 931 1096" version="1.1" xmlns="http://www.w3.org/2000/svg" xmlns:xlink="http://www.w3.org/1999/xlink">
<defs>
<clipPath id="c0_59"><path d="M183.3,1015c-35.4,0,-64.1,-28.7,-64.1,-64.2c0,-35.4,28.7,-64.1,64.1,-64.1c35.5,0,64.2,28.7,64.2,64.1c0,35.5,-28.7,64.2,-64.2,64.2Z"/></clipPath>
<style type="text/css"><![CDATA[
.g0_59{
fill: #B3D9EB;
}
.g1_59{
fill: none;
stroke: #00AEEF;
stroke-width: 0.916;
stroke-linejoin: round;
}
.g2_59{
fill: #00AEEF;
}
.g3_59{
fill: none;
stroke: #EE008C;
stroke-width: 0.916;
stroke-linejoin: round;
}
.g4_59{
fill: #EE008C;
}
.g5_59{
fill: #FFDEB8;
}
.g6_59{
fill: none;
stroke: #F9951B;
stroke-width: 0.916;
}
.g7_59{
fill: none;
stroke: #EE008C;
stroke-width: 0.916;
}
.g8_59{
fill: none;
stroke: #241F1F;
stroke-width: 0.611;
stroke-miterlimit: 3;
}
.g9_59{
fill: #241F1F;
}
.ga_59{
fill: none;
stroke: #6AC48C;
stroke-width: 1.069;
}
.gb_59{
fill: none;
stroke: #290002;
stroke-width: 0.611;
}
.gc_59{
fill: none;
stroke: #241F1F;
stroke-width: 0.763;
stroke-miterlimit: 3;
}
.gd_59{
fill: none;
stroke: #00C3F4;
stroke-width: 0.534;
stroke-linejoin: round;
}
.ge_59{
fill: none;
stroke: #241F1F;
stroke-width: 0.534;
stroke-linejoin: round;
}
.gf_59{
fill: none;
stroke: #717072;
stroke-width: 0.611;
stroke-miterlimit: 3;
stroke-dasharray: 10,4;
}
.gg_59{
fill: none;
stroke: #EE008C;
stroke-width: 0.611;
stroke-miterlimit: 3;
}
.gh_59{
fill: none;
stroke: #EE008C;
stroke-width: 0.611;
stroke-miterlimit: 3;
stroke-dasharray: 10,4;
}
.gi_59{
fill: none;
stroke: #00AA9D;
stroke-width: 0.763;
stroke-miterlimit: 3;
stroke-dasharray: 7,3;
}
.gj_59{
fill: none;
stroke: #00AA9D;
stroke-width: 0.763;
stroke-miterlimit: 3;
}
.gk_59{
fill: none;
stroke: #241F1F;
stroke-width: 0.381;
stroke-miterlimit: 3;
}
.gl_59{
fill: none;
stroke: #969698;
stroke-width: 0.611;
stroke-miterlimit: 3;
stroke-dasharray: 10,4;
}
.gm_59{
fill: none;
stroke: #969698;
stroke-width: 0.611;
stroke-miterlimit: 3;
stroke-dasharray: 7,4;
}
.gn_59{
fill: none;
stroke: #969698;
stroke-width: 0.611;
stroke-miterlimit: 3;
stroke-dasharray: 7,3;
}
]]></style>
</defs>
<path d="M152.5,311.1l136,9.5l-31.3,92L121.2,403Z" class="g0_59"/>
<path d="M121.2,403L284,322.7" class="g1_59"/>
<path d="M288.4,320.5l-4.7,5l.3,-2.8l-2.5,-1.6Z" class="g2_59"/>
<path d="M121.2,403l29.9,-87.6" class="g1_59"/>
<path d="M152.7,310.7l.2,7l-1.8,-2.3l-2.9,.6Z" class="g2_59"/>
<path d="M121.2,403l130.7,9.2" class="g1_59"/>
<path d="M256.8,412.5l-6.6,2l1.7,-2.3l-1.4,-2.6Z" class="g2_59"/>
<path d="M122.2,402.4l56.8,3.9" class="g3_59"/>
<path d="M183.9,406.7l-6.6,2l1.7,-2.4l-1.4,-2.6Z" class="g4_59"/>
<path d="M122.2,402.4l19.3,-56.9" class="g3_59"/>
<path d="M143.1,340.8l.2,7l-1.8,-2.3l-2.8,.7Z" class="g4_59"/>
<path d="M149.7,768.6h64.2V640.2H149.7V768.6Z" class="g5_59"/>
<path d="M149.7,768.6h64.2V640.2H149.7V768.6Z" class="g6_59"/>
<path d="M168.1,768.6V640.2Z" class="g5_59"/>
<path d="M168.1,768.6V640.2" class="g7_59"/>
<path d="M126.7,768.5h126" class="g8_59"/>
<path fill-rule="evenodd" d="M252.7,768.5L251.1,766l6.5,2.5l-6.5,2.4Z" class="g9_59"/>
<path d="M149.6,791.4V613.9" class="g8_59"/>
<path fill-rule="evenodd" d="M149.6,613.8l-2.4,1.7l2.4,-6.5l2.5,6.5Z" class="g9_59"/>
<path d="M145.8,640.2h7.6M145.8,741h7.6" class="g8_59"/>
<path d="M149.7,741.1h64.2" class="ga_59"/>
<path d="M213.9,772.4v-7.7m-45.8,7.7v-7.7" class="gb_59"/>
<path d="M189.4,804.8v19.9" class="gc_59"/>
<path d="M189.4,830.3l-2.6,-7.6l2.6,1.6l2.6,-1.6Z" class="g9_59"/>
<image clip-path="url(#c0_59)" x="119" y="886" width="129" height="129" xlink:href="shade/1.png"/>
<path d="M119.2,950.8c0,-35.4,28.7,-64.1,64.1,-64.1c35.5,0,64.2,28.7,64.2,64.1c0,35.5,-28.7,64.2,-64.2,64.2c-35.4,0,-64.1,-28.7,-64.1,-64.2Z" class="gd_59"/>
<path d="M247.5,950.8c0,17.7,-28.7,32.1,-64.2,32.1c-35.4,0,-64.1,-14.4,-64.1,-32.1" class="ge_59"/>
<path d="M247.5,950.8c0,-17.7,-28.7,-32.1,-64.2,-32.1c-35.4,0,-64.1,14.4,-64.1,32.1" class="gf_59"/>
<path d="M241.7,923.6c.8,1.7,1.2,3.5,1.2,5.4c0,14.3,-26.6,25.9,-59.6,25.9c-32.9,0,-59.5,-11.6,-59.5,-25.9c0,-2,.5,-3.9,1.4,-5.8" class="gg_59"/>
<path d="M125.2,923.2C131.2,911.7,155,903,183.3,903c28.7,0,52.7,8.8,58.4,20.6" class="gh_59"/>
<path d="M186.6,1014.6c-1.4,.6,-2.3,.6,-3.8,.6" class="gi_59"/>
<path d="M183.3,891.2c14.4,0,26,24.2,26,59.6c0,31.8,-7.2,55.7,-19.4,62" class="gj_59"/>
<path d="M260.7,942.3l-20.3,-1.9" class="gk_59"/>
<path d="M240.8,940.4l.6,1.3v.1l-2,-1c-.7,-.3,-1.3,-.5,-2,-.7c.7,-.1,1.4,-.2,2.1,-.3l2.1,-.6Z" class="g9_59"/>
<path d="M219.4,1013.3L204.1,1000" class="gk_59"/>
<path d="M204.4,1000.2l-.2,1.4h-.1l-1,-1.9c-.4,-.6,-.8,-1.2,-1.3,-1.8c.7,.4,1.3,.7,1.9,1.1l2.1,.7v.1Z" class="g9_59"/>
<path d="M242.9,963.5L283,972" class="g8_59"/>
<path fill-rule="evenodd" d="M283,972l-1,-2.7l5.8,3.7l-6.9,1.1Z" class="g9_59"/>
<path d="M183.4,891.6V860.4" class="g8_59"/>
<path fill-rule="evenodd" d="M183.4,860.4L181,862l2.4,-6.5l2.5,6.5Z" class="g9_59"/>
<path d="M148.1,977.6l-27.4,20.8" class="g8_59"/>
<path fill-rule="evenodd" d="M120.7,998.4l2.7,1l-6.6,1.9l3.7,-5.8Z" class="g9_59"/>
<path d="M183.4,950.8l58.2,12.5" class="gl_59"/>
<path d="M183.4,950.8V892.7" class="gm_59"/>
<path d="M183.3,950.8L150,976.1" class="gn_59"/>
</svg>