<?xml version="1.0" encoding="UTF-8" standalone="no"?>
<!DOCTYPE svg PUBLIC "-//W3C//DTD SVG 1.1//EN"
"http://www.w3.org/Graphics/SVG/1.1/DTD/svg11.dtd">
<svg viewBox="0 0 935 1210" version="1.1" xmlns="http://www.w3.org/2000/svg" xmlns:xlink="http://www.w3.org/1999/xlink">
<defs>
<clipPath id="c0_200"><path d="M42.8,1168.2V41.8H892.2V1168.2Z"/></clipPath>
<style type="text/css"><![CDATA[
.g0_200{
fill: #D9D9D9;
}
.g1_200{
}
]]></style>
</defs>
<path d="M93.4,865.7H476.3v64.9H93.4V865.7Z" class="g0_200"/>
<path d="M476.3,865.7H855.9v64.9H476.3V865.7Z" class="g0_200"/>
<path d="M476.3,865.7H857v1.1H476.3v-1.1Z" class="g1_200"/>
<path d="M476.3,930.6H857v1.1H476.3v-1.1Z" class="g1_200"/>
<path d="M476.3,865.7h1.1v66h-1.1v-66Z" class="g1_200"/>
<path d="M855.9,865.7H857v66h-1.1v-66Z" class="g1_200"/>
<path d="M93.4,865.7h384v1.1H93.4v-1.1Z" class="g1_200"/>
<path d="M93.4,930.6h384v1.1H93.4v-1.1Z" class="g1_200"/>
<path d="M93.4,865.7h1.1v66H93.4v-66Z" class="g1_200"/>
<path d="M476.3,865.7h1.1v66h-1.1v-66Z" class="g1_200"/>
<image clip-path="url(#c0_200)" preserveAspectRatio="none" x="43" y="42" width="849" height="447" xlink:href="img/1.jpg"/>
</svg>