<?xml version="1.0" encoding="UTF-8" standalone="no"?>
<!DOCTYPE svg PUBLIC "-//W3C//DTD SVG 1.1//EN"
"http://www.w3.org/Graphics/SVG/1.1/DTD/svg11.dtd">
<svg viewBox="0 0 931 1096" version="1.1" xmlns="http://www.w3.org/2000/svg" xmlns:xlink="http://www.w3.org/1999/xlink">
<defs>
<clipPath id="c0_268"><path d="M354.5,569.9V525.4H756.8v44.5Z"/></clipPath>
<clipPath id="c1_268"><path d="M427.2,929.2v-35H593v35Z"/></clipPath>
<clipPath id="c2_268"><path d="M623.6,926.2v-32H678v32Z"/></clipPath>
<clipPath id="c3_268"><path d="M628.2,976.4v-28h44.3v28Z"/></clipPath>
<clipPath id="c4_268"><path d="M53.8,326.9V102.8H242.9V326.9Z"/></clipPath>
<style type="text/css"><![CDATA[
.g0_268{
fill: none;
stroke: #00AEEF;
stroke-width: 1.145;
}
.g1_268{
fill: none;
stroke: #241F1F;
stroke-width: 0.763;
stroke-miterlimit: 10;
}
.g2_268{
fill: none;
stroke: #241F1F;
stroke-width: 0.534;
stroke-miterlimit: 10;
}
.g3_268{
fill: none;
stroke: #EE008C;
stroke-width: 0.916;
stroke-linejoin: round;
}
.g4_268{
fill: #EE008C;
}
.g5_268{
fill: none;
stroke: #F01879;
stroke-width: 0.763;
stroke-miterlimit: 3;
}
.g6_268{
fill: none;
stroke: #241F1F;
stroke-width: 0.611;
stroke-miterlimit: 3;
}
.g7_268{
fill: #241F1F;
}
.g8_268{
fill: none;
stroke: #241F1F;
stroke-width: 0.381;
stroke-miterlimit: 3;
}
.g9_268{
fill: none;
stroke: #241F1F;
stroke-width: 0.534;
stroke-miterlimit: 3;
}
.ga_268{
fill: none;
stroke: #241F1F;
stroke-width: 0.763;
stroke-miterlimit: 3;
stroke-dasharray: 10,4;
}
.gb_268{
fill: none;
stroke: #00AEEF;
stroke-width: 0.763;
}
.gc_268{
fill: none;
stroke: #EE008C;
stroke-width: 0.763;
stroke-miterlimit: 3;
}
.gd_268{
fill: none;
stroke: #EE008C;
stroke-width: 0.458;
stroke-miterlimit: 3;
}
.ge_268{
fill: none;
stroke: #EE008C;
stroke-width: 0.381;
stroke-miterlimit: 3;
}
.gf_268{
fill: none;
stroke: #241F1F;
stroke-width: 0.763;
stroke-linejoin: round;
}
.gg_268{
fill: none;
stroke: #FFF;
stroke-width: 1.145;
}
.gh_268{
fill: none;
stroke: #FFF;
stroke-width: 1.283;
}
]]></style>
</defs>
<path d="M308,252c0,0,-1.6,0,-1.6,1.6v14.1c0,0,0,1.5,1.6,1.5h14.1c0,0,1.5,0,1.5,-1.5V253.6c0,0,0,-1.6,-1.5,-1.6H308Zm0,100.9c0,0,-1.6,0,-1.6,1.5v14.1c0,0,0,1.6,1.6,1.6h14.1c0,0,1.5,0,1.5,-1.6V354.4c0,0,0,-1.5,-1.5,-1.5H308Z" class="g0_268"/>
<path d="M516.5,549.8h14.8m30.2,0h14.8m53.6,-19.4h10m-23.6,19.4h25.9m21.2,0h25.9m-12.4,3.5H687m55.7,-3.5h12.2" class="g1_268"/>
<path clip-path="url(#c0_268)" d="M742.7,525.8h14.5" class="g1_268"/>
<path d="M513.2,612.4H528m27.7,0h14.7M624.1,593h10m-23.6,19.4h25.9m21.1,0h25.9m-12.3,3.5h10m55.8,-3.5h12.2m-12.2,-24h14.4M485.2,662.8H500" class="g1_268"/>
<path d="M536.8,662.7h5.3" class="g2_268"/>
<path d="M498,704.5h23.6m18.9,0h23.7m-87.9,36.7h10m-21.9,82.5h84.7m33.2,0H659M487.6,910.3h12.2m21.9,0h24.9" class="g1_268"/>
<path clip-path="url(#c1_268)" d="M581.2,910.3h12.2" class="g1_268"/>
<path clip-path="url(#c2_268)" d="M656,910.3h22.4" class="g1_268"/>
<path d="M487.5,960.7h47.8" class="g1_268"/>
<path clip-path="url(#c3_268)" d="M658.1,960.7h14.8" class="g1_268"/>
<path d="M518.8,1002.4h10.1" class="g1_268"/>
<path d="M116.9,253.5l62.3,-66.8m0,0V315.4L116.9,253.5" class="g3_268"/>
<path d="M177.5,186.7c0,-.9,.8,-1.7,1.7,-1.7c1,0,1.8,.8,1.8,1.7c0,1,-.8,1.7,-1.8,1.7c-.9,0,-1.7,-.7,-1.7,-1.7Z" class="g4_268"/>
<path d="M177.5,186.7c0,-.9,.8,-1.7,1.7,-1.7c1,0,1.8,.8,1.8,1.7c0,1,-.8,1.7,-1.8,1.7c-.9,0,-1.7,-.7,-1.7,-1.7Z" class="g5_268"/>
<path d="M116.9,253.5V114.1" class="g6_268"/>
<path fill-rule="evenodd" d="M116.9,114.1l-2.5,1.6l2.5,-6.5l2.4,6.5Z" class="g7_268"/>
<path d="M116.9,253.6l121.2,23.7" class="g6_268"/>
<path clip-path="url(#c4_268)" fill-rule="evenodd" d="M238.1,277.3L237,274.6l5.9,3.6l-6.9,1.2Z" class="g7_268"/>
<path d="M116.9,253.5L65.6,304.3" class="g6_268"/>
<path fill-rule="evenodd" d="M65.6,304.3l2.8,.6l-6.3,2.9L65,301.4Z" class="g7_268"/>
<path d="M124.4,266.2c-5.5,2.3,-14.2,3,-20.2,.4" class="g8_268"/>
<path d="M127.4,264.9l-3.3,3.2l.3,-1.9l-1.6,-1.1Z" class="g7_268"/>
<path d="M126.8,236.8c-1.3,-3.6,-5.4,-7.7,-10,-9.2" class="g8_268"/>
<path d="M127.9,239.9l-3,-3.5l1.9,.4l1.2,-1.6Z" class="g7_268"/>
<path d="M178.7,209c-5.5,0,-10.5,-2.6,-13.7,-6.7" class="g9_268"/>
<path d="M179,315.7L75.6,294.3M117.2,135.1l62,51.6" class="ga_268"/>
<path d="M172.8,308.8v-9.3l6.1,5.7M122,139.7v8.4l-5.1,-4.8" class="g9_268"/>
<path d="M465.1,341.2c0,0,-3,0,-3,3V382c0,0,0,3,3,3H666.4c0,0,3,0,3,-3V344.2c0,0,0,-3,-3,-3H465.1Z" class="gb_268"/>
<path d="M115.2,588l65.4,-54.9" class="g3_268"/>
<path d="M178.9,533.1c0,-.9,.8,-1.7,1.7,-1.7c1,0,1.7,.8,1.7,1.7c0,1,-.7,1.8,-1.7,1.8c-.9,0,-1.7,-.8,-1.7,-1.8Z" class="g4_268"/>
<path d="M178.9,533.1c0,-.9,.8,-1.7,1.7,-1.7c1,0,1.7,.8,1.7,1.7c0,1,-.7,1.8,-1.7,1.8c-.9,0,-1.7,-.8,-1.7,-1.8Z" class="gc_268"/>
<path d="M121.5,553.7h10m-23.7,63h9.9" class="gd_268"/>
<path d="M102.8,598.9c6.6,2.6,16.1,2.1,20.2,.5" class="ge_268"/>
<path d="M126.1,598.2l-3.5,3.1l.4,-1.9l-1.6,-1.2Z" class="g4_268"/>
<path d="M115.3,567.4c4.5,0,8.6,2.6,11.4,6.7" class="ge_268"/>
<path d="M128.6,576.8l-3.8,-2.6l1.9,-.1l.8,-1.8Z" class="g4_268"/>
<path d="M115.2,588l114.4,15.9" class="g6_268"/>
<path fill-rule="evenodd" d="M229.6,603.9l-1.3,-2.7l6.1,3.3l-6.8,1.6Z" class="g7_268"/>
<path d="M115.3,588L65.2,630.7" class="g6_268"/>
<path fill-rule="evenodd" d="M65.2,630.7l2.9,.8l-6.6,2.4l3.4,-6.1Z" class="g7_268"/>
<path d="M115.2,588V497.2" class="g6_268"/>
<path fill-rule="evenodd" d="M115.2,497.2l-2.4,1.7l2.4,-6.5l2.5,6.5Z" class="g7_268"/>
<path d="M180.6,533.1V641.6L115.2,588" class="gf_268"/>
<path d="M53.5,804.2H67.2V789.6H53.5v14.6Z" class="g4_268"/>
<path d="M60.4,802.7c3.2,0,5.8,-2.6,5.8,-5.8c0,-3.2,-2.6,-5.8,-5.8,-5.8c-3.3,0,-5.9,2.6,-5.9,5.8c0,3.2,2.6,5.8,5.9,5.8Z" class="g4_268"/>
<path d="M60.4,802.7c3.2,0,5.8,-2.6,5.8,-5.8c0,-3.2,-2.6,-5.8,-5.8,-5.8c-3.3,0,-5.9,2.6,-5.9,5.8c0,3.2,2.6,5.8,5.9,5.8Z" class="gg_268"/>
<path d="M64.6,792.7L56.3,801" class="gh_268"/>
<path d="M56.5,989.8c0,0,-3,0,-3,3v9.2c0,0,0,3.1,3,3.1H77.9c0,0,3.1,0,3.1,-3.1v-9.2c0,0,0,-3,-3.1,-3Z" class="g4_268"/>
<path d="M351.8,240.3c0,0,-3.1,0,-3.1,3.1v37.7c0,0,0,3.1,3.1,3.1H789.2c0,0,3,0,3,-3.1V243.4c0,0,0,-3.1,-3,-3.1H351.8Z" class="gb_268"/>
</svg>