<?xml version="1.0" encoding="UTF-8" standalone="no"?>
<!DOCTYPE svg PUBLIC "-//W3C//DTD SVG 1.1//EN"
"http://www.w3.org/Graphics/SVG/1.1/DTD/svg11.dtd">
<svg viewBox="0 0 811 1017" version="1.1" xmlns="http://www.w3.org/2000/svg" xmlns:xlink="http://www.w3.org/1999/xlink">
<defs>
<clipPath id="c0_254"><path d="M144.7,414.4V203.2H474.6V414.4Z"/></clipPath>
<clipPath id="c1_254"><path d="M429.3,720.5V689.1H668.1v31.4Z"/></clipPath>
<style type="text/css"><![CDATA[
.g0_254{
fill: #70A6CC;
}
.g1_254{
fill: #FFFFFF;
}
.g2_254{
}
]]></style>
</defs>
<path d="M142.4,583.8H710.7V562.6H142.4Z" class="g0_254"/>
<path d="M144.7,414.4H474.6V203.2H144.7Z" class="g1_254"/>
<image clip-path="url(#c0_254)" preserveAspectRatio="none" x="145" y="203" width="330" height="211" xlink:href="img/1.jpg"/>
<path d="M144.7,203.4H474.8V203H144.7Z" class="g2_254"/>
<path d="M474.5,414.6h.3V203.2h-.3Z" class="g2_254"/>
<path d="M144.5,414.6H474.6v-.4H144.5Z" class="g2_254"/>
<path d="M144.5,414.4h.3V203h-.3Z" class="g2_254"/>
<path d="M508.1,679v3.2l-.3,-.1l-6.3,-2.9l-.4,-.2l.4,-.2l6.3,-2.9l.3,-.1v.2l-.1,.2l-6.3,3l-.2,-.4h.2l6.3,2.9l-.2,.4l-.1,-.2V679Z" class="g2_254"/>
<path d="M507.7,679h.4v-3h-.4Z" class="g2_254"/>
<path d="M508.1,679.2h18.7v-.4H508.1Z" class="g2_254"/>
<path d="M526.4,679h.4V654.9h-.4Z" class="g2_254"/>
<path clip-path="url(#c1_254)" d="M460.6,720.5h.4V689h-.4Z" class="g2_254"/>
</svg>