<?xml version="1.0" encoding="UTF-8" standalone="no"?>
<!DOCTYPE svg PUBLIC "-//W3C//DTD SVG 1.1//EN"
"http://www.w3.org/Graphics/SVG/1.1/DTD/svg11.dtd">
<svg viewBox="0 0 662 1017" version="1.1" xmlns="http://www.w3.org/2000/svg" xmlns:xlink="http://www.w3.org/1999/xlink">
<defs>
<style type="text/css"><![CDATA[
.g0_55{
fill: #FFF;
}
.g1_55{
fill: none;
stroke: #231F20;
stroke-width: 1.527;
}
.g2_55{
fill: #231F20;
}
.g3_55{
fill: #000;
}
.g4_55{
fill: #FFF;
stroke: #FFF;
stroke-width: 1.527;
stroke-miterlimit: 10;
}
]]></style>
</defs>
<path d="M594.7 256.9c0 15.4 -12.5 27.9 -27.9 27.9c-15.5 0 -28 -12.5 -28 -27.9c0 -15.4 12.5 -27.9 28 -27.9c15.4 0 27.9 12.5 27.9 27.9Z" class="g0_55"/>
<path d="M594.7 256.9c0 15.4 -12.5 27.9 -27.9 27.9c-15.5 0 -28 -12.5 -28 -27.9c0 -15.4 12.5 -27.9 28 -27.9c15.4 0 27.9 12.5 27.9 27.9Z" class="g1_55"/>
<path d="M578.9 236.5l2.5 4.1l-11.5 5.9L568.4 244l10.5 -7.5Z" class="g2_55"/>
<path d="M552.1 240.7l2.4 -4.2l10.6 7.5l-1.5 2.5l-11.5 -5.8Z" class="g2_55"/>
<path d="M554.1 250.1l5.3 -3.7l4.6 2l-1.7 2.9l-2.7 -1.7l-4.2 2.4l-1.3 -1.9Z" class="g2_55"/>
<path d="M578.8 250.1l-5.3 -3.7l-4.5 2l1.7 2.9l2.7 -1.7l4.1 2.4l1.3 -1.9Z" class="g2_55"/>
<path d="M552.2 273.6c-.2 -.3 0 -1 .5 -1.7c0 0 5.7 -7.9 14.2 -7.9c8.5 0 14 7.4 14 7.4c.5 .7 .6 1.5 .4 1.8c-.3 .4 -1 .1 -1.6 -.6c0 0 -3 -3.4 -12.8 -3.4c-9.8 0 -13.3 3.6 -13.3 3.6c-.6 .6 -1.2 1 -1.4 .8Z" class="g2_55"/>
<path d="M562 265.5v7.2c0 0 .9 4.2 4.8 4.2c3.9 0 4.8 -4.3 4.8 -4.3v-7.1H562Z" class="g0_55"/>
<path d="M562 265.5v7.2c0 0 .9 4.2 4.8 4.2c3.9 0 4.8 -4.3 4.8 -4.3v-7.1H562Zm4.8 -.7v8.6" class="g1_55"/>
<path d="M56.8 206.6V205H606.4v1.6Z" class="g3_55"/>
<path d="M56.8 545v-1.5H606.4V545Z" class="g3_55"/>
<path d="M56.8 782.8v-1.5H276.6v1.5Z" class="g3_55"/>
<path d="M454.3 1016H660.7v-15.9H454.3Z" class="g4_55"/>
</svg>