<?xml version="1.0" encoding="UTF-8" standalone="no"?>
<!DOCTYPE svg PUBLIC "-//W3C//DTD SVG 1.1//EN"
"http://www.w3.org/Graphics/SVG/1.1/DTD/svg11.dtd">
<svg viewBox="0 0 660 990" version="1.1" xmlns="http://www.w3.org/2000/svg" xmlns:xlink="http://www.w3.org/1999/xlink">
<defs>
<clipPath id="c0_236"><path d="M86.9,166.3l-1.2,-2.4l-1.2,-2.3h491l-1.2,2.3l-1.2,2.4Z"/></clipPath>
<clipPath id="c1_236"><path d="M576.5,761l-2.3,-1.2l-2.4,-1.2V165l2.4,-1.2l2.3,-1.2V761Z"/></clipPath>
<clipPath id="c2_236"><path d="M84.5,762.1l1.2,-2.4l1.2,-2.3H573.1l1.2,2.3l1.2,2.4Z"/></clipPath>
<clipPath id="c3_236"><path d="M83.5,761V162.6l2.3,1.2l2.4,1.2V758.6l-2.4,1.2L83.5,761Z"/></clipPath>
<clipPath id="c4_236"><path d="M85.6,915.9v-5.1H574.4v5.1Z"/></clipPath>
<clipPath id="c5_236"><path d="M351.4,262V248.2h13.7V262Z"/></clipPath>
<clipPath id="c6_236"><path d="M252.1,362.6V348.9h13.7v13.7Z"/></clipPath>
<clipPath id="c7_236"><path d="M252.1,505.3V491.6h13.7v13.7Z"/></clipPath>
<clipPath id="c8_236"><path d="M316.3,535.9V522.1h13.8v13.8Z"/></clipPath>
<clipPath id="c9_236"><path d="M97.5,640.4V626.6h13.8v13.8Z"/></clipPath>
<clipPath id="ca_236"><path d="M97.5,673.8V660.1h13.8v13.7Z"/></clipPath>
<clipPath id="cb_236"><path d="M97.5,707.3V693.5h13.8v13.8Z"/></clipPath>
<clipPath id="cc_236"><path d="M97.5,740.7V726.9h13.8v13.8Z"/></clipPath>
<style type="text/css"><![CDATA[
.g0_236{
fill: none;
stroke: #231F20;
stroke-width: 0.381;
stroke-linecap: round;
stroke-linejoin: miter;
}
.g1_236{
fill: #231F20;
}
.g2_236{
fill: none;
stroke: #231F20;
stroke-width: 1.527;
stroke-linecap: butt;
stroke-linejoin: miter;
stroke-miterlimit: 4;
}
.g3_236{
fill: #FFFFFF;
}
.g4_236{
fill: none;
stroke: #231F20;
stroke-width: 0.763;
stroke-linecap: round;
stroke-linejoin: miter;
}
]]></style>
</defs>
<path clip-path="url(#c0_236)" d="M85.6,163.9H574.4" class="g0_236"/>
<path clip-path="url(#c1_236)" d="M574.2,163.7V759.9" class="g0_236"/>
<path clip-path="url(#c2_236)" d="M574.4,759.7H85.6" class="g0_236"/>
<path clip-path="url(#c3_236)" d="M85.8,759.9V163.7" class="g0_236"/>
<path clip-path="url(#c4_236)" d="M85.6,913.4H574.4" class="g4_236"/>
<g clip-path="url(#c5_236)">
<path d="M358.3,249.8c2.9,0,5.3,2.3,5.3,5.3c0,3,-2.4,5.3,-5.3,5.3c-3,0,-5.4,-2.3,-5.4,-5.3c0,-3,2.4,-5.3,5.4,-5.3Z" class="g1_236"/>
<path d="M358.3,249.8c2.9,0,5.3,2.3,5.3,5.3c0,3,-2.4,5.3,-5.3,5.3c-3,0,-5.4,-2.3,-5.4,-5.3c0,-3,2.4,-5.3,5.4,-5.3Z" class="g2_236"/>
<path d="M356.2,253.1h.2c1.3,0,1.6,-.7,1.7,-1.2h1v6.7h-1.3V254h-1.6v-.9Z" class="g3_236"/>
</g>
<g clip-path="url(#c6_236)">
<path d="M258.9,350.4c3,0,5.4,2.4,5.4,5.3c0,3,-2.4,5.4,-5.4,5.4c-2.9,0,-5.3,-2.4,-5.3,-5.4c0,-2.9,2.4,-5.3,5.3,-5.3Z" class="g1_236"/>
<path d="M258.9,350.4c3,0,5.4,2.4,5.4,5.3c0,3,-2.4,5.4,-5.4,5.4c-2.9,0,-5.3,-2.4,-5.3,-5.4c0,-2.9,2.4,-5.3,5.3,-5.3Z" class="g2_236"/>
<path d="M256.6,354.4c0,-2.2,1.6,-2.4,2.2,-2.4c1.3,0,2.3,.8,2.3,2.1c0,1.1,-.7,1.7,-1.4,2.2c-.9,.6,-1.3,.9,-1.5,1.2h2.9v1.1h-4.5c0,-.7,.1,-1.5,1.5,-2.6c1.2,-.9,1.7,-1.2,1.7,-1.9c0,-.5,-.3,-1,-.9,-1c-.9,0,-1,.8,-1,1.3h-1.3Z" class="g3_236"/>
</g>
<g clip-path="url(#c7_236)">
<path d="M258.9,493.1c3,0,5.4,2.4,5.4,5.4c0,2.9,-2.4,5.3,-5.4,5.3c-2.9,0,-5.3,-2.4,-5.3,-5.3c0,-3,2.4,-5.4,5.3,-5.4Z" class="g1_236"/>
<path d="M258.9,493.1c3,0,5.4,2.4,5.4,5.4c0,2.9,-2.4,5.3,-5.4,5.3c-2.9,0,-5.3,-2.4,-5.3,-5.3c0,-3,2.4,-5.4,5.3,-5.4Z" class="g2_236"/>
<path d="M258.5,497.6h.2c.4,0,1.1,0,1.1,-.9c0,-.2,-.1,-.8,-.8,-.8c-.9,0,-.9,.8,-.9,1.1h-1.3c0,-1.3,.7,-2.2,2.2,-2.2c.9,0,2.1,.5,2.1,1.9c0,.7,-.4,1.1,-.8,1.3c.2,0,1,.4,1,1.5c0,1.3,-.9,2.2,-2.3,2.2c-.6,0,-2.3,-.2,-2.3,-2.3H258v.1c0,.3,.1,1.1,1,1.1c.5,0,1,-.3,1,-1.1c0,-.9,-.9,-.9,-1.5,-.9v-1Z" class="g3_236"/>
</g>
<g clip-path="url(#c8_236)">
<path d="M323.2,523.7c3,0,5.4,2.3,5.4,5.3c0,3,-2.4,5.3,-5.4,5.3c-2.9,0,-5.3,-2.3,-5.3,-5.3c0,-3,2.4,-5.3,5.3,-5.3Z" class="g1_236"/>
<path d="M323.2,523.7c3,0,5.4,2.3,5.4,5.3c0,3,-2.4,5.3,-5.4,5.3c-2.9,0,-5.3,-2.3,-5.3,-5.3c0,-3,2.4,-5.3,5.3,-5.3Z" class="g2_236"/>
<path d="M323,529.4c0,-1.6,0,-2.6,0,-2.8l-1.7,2.8H323Zm2,1h-.7v1.5H323v-1.5h-2.7v-1.1l2.5,-4h1.5v4.1h.7v1Z" class="g3_236"/>
</g>
<g clip-path="url(#c9_236)">
<path d="M104.4,628.2c2.9,0,5.3,2.4,5.3,5.3c0,3,-2.4,5.4,-5.3,5.4c-3,0,-5.4,-2.4,-5.4,-5.4c0,-2.9,2.4,-5.3,5.4,-5.3Z" class="g1_236"/>
<path d="M104.4,628.2c2.9,0,5.3,2.4,5.3,5.3c0,3,-2.4,5.4,-5.3,5.4c-3,0,-5.4,-2.4,-5.4,-5.4c0,-2.9,2.4,-5.3,5.4,-5.3Z" class="g2_236"/>
<path d="M102.4,631.5h.2c1.2,0,1.6,-.7,1.6,-1.2h1.1V637h-1.4v-4.6h-1.5v-.9Z" class="g3_236"/>
</g>
<g clip-path="url(#ca_236)">
<path d="M104.4,661.6c2.9,0,5.3,2.4,5.3,5.3c0,3,-2.4,5.4,-5.3,5.4c-3,0,-5.4,-2.4,-5.4,-5.4c0,-2.9,2.4,-5.3,5.4,-5.3Z" class="g1_236"/>
<path d="M104.4,661.6c2.9,0,5.3,2.4,5.3,5.3c0,3,-2.4,5.4,-5.3,5.4c-3,0,-5.4,-2.4,-5.4,-5.4c0,-2.9,2.4,-5.3,5.4,-5.3Z" class="g2_236"/>
<path d="M102.1,665.6c0,-2.2,1.6,-2.4,2.2,-2.4c1.3,0,2.3,.8,2.3,2.1c0,1.1,-.8,1.7,-1.4,2.2c-.9,.6,-1.4,.9,-1.5,1.2h2.9v1.1H102c.1,-.7,.1,-1.5,1.6,-2.6c1.2,-.9,1.7,-1.2,1.7,-1.9c0,-.5,-.3,-1,-1,-1c-.9,0,-.9,.8,-.9,1.3h-1.3Z" class="g3_236"/>
</g>
<g clip-path="url(#cb_236)">
<path d="M104.4,695c2.9,0,5.3,2.4,5.3,5.4c0,2.9,-2.4,5.3,-5.3,5.3c-3,0,-5.4,-2.4,-5.4,-5.3c0,-3,2.4,-5.4,5.4,-5.4Z" class="g1_236"/>
<path d="M104.4,695c2.9,0,5.3,2.4,5.3,5.4c0,2.9,-2.4,5.3,-5.3,5.3c-3,0,-5.4,-2.4,-5.4,-5.3c0,-3,2.4,-5.4,5.4,-5.4Z" class="g2_236"/>
<path d="M103.9,699.5h.2c.4,0,1.2,0,1.2,-.9c0,-.2,-.2,-.8,-.9,-.8c-.9,0,-.9,.8,-.9,1.1h-1.2c0,-1.3,.7,-2.2,2.2,-2.2c.9,0,2.1,.5,2.1,1.9c0,.7,-.5,1.1,-.8,1.3c.2,0,1,.4,1,1.5c0,1.3,-1,2.2,-2.3,2.2c-.6,0,-2.3,-.2,-2.3,-2.2h1.3c0,.3,.1,1.1,.9,1.1c.6,0,1,-.3,1,-1.1c0,-.9,-.9,-.9,-1.5,-.9v-1Z" class="g3_236"/>
</g>
<g clip-path="url(#cc_236)">
<path d="M104.4,728.5c2.9,0,5.3,2.4,5.3,5.3c0,3,-2.4,5.4,-5.3,5.4c-3,0,-5.4,-2.4,-5.4,-5.4c0,-2.9,2.4,-5.3,5.4,-5.3Z" class="g1_236"/>
<path d="M104.4,728.5c2.9,0,5.3,2.4,5.3,5.3c0,3,-2.4,5.4,-5.3,5.4c-3,0,-5.4,-2.4,-5.4,-5.4c0,-2.9,2.4,-5.3,5.4,-5.3Z" class="g2_236"/>
<path d="M104.1,734.2c0,-1.6,.1,-2.6,.1,-2.8l-1.7,2.8h1.6Zm2.1,1h-.7v1.5h-1.4v-1.5h-2.6v-1.1l2.5,-4h1.5v4.1h.7v1Z" class="g3_236"/>
</g>
</svg>