<?xml version="1.0" encoding="UTF-8" standalone="no"?>
<!DOCTYPE svg PUBLIC "-//W3C//DTD SVG 1.1//EN"
"http://www.w3.org/Graphics/SVG/1.1/DTD/svg11.dtd">
<svg viewBox="0 0 660 990" version="1.1" xmlns="http://www.w3.org/2000/svg" xmlns:xlink="http://www.w3.org/1999/xlink">
<defs>
<clipPath id="c0_283"><path d="M86.9,123.5l-1.2,-2.3l-1.2,-2.4H576.2l-1.1,2.4l-1.2,2.3Z"/></clipPath>
<clipPath id="c1_283"><path d="M577.3,605.9L575,604.8l-2.4,-1.2V122.3l2.4,-1.2l2.3,-1.2v486Z"/></clipPath>
<clipPath id="c2_283"><path d="M84.5,607l1.2,-2.3l1.2,-2.4h487l1.2,2.4l1.1,2.3Z"/></clipPath>
<clipPath id="c3_283"><path d="M83.5,605.9v-486l2.3,1.2l2.4,1.2V603.6l-2.4,1.2l-2.3,1.1Z"/></clipPath>
<clipPath id="c4_283"><path d="M85.6,915.9v-5.1H574.4v5.1Z"/></clipPath>
<style type="text/css"><![CDATA[
.g0_283{
fill: none;
stroke: #231F20;
stroke-width: 0.381;
stroke-linecap: round;
stroke-linejoin: miter;
}
.g1_283{
fill: #FFFFFF;
}
.g2_283{
fill: #231F20;
}
.g3_283{
fill: none;
stroke: #231F20;
stroke-width: 0.763;
stroke-linecap: round;
stroke-linejoin: miter;
}
]]></style>
</defs>
<path clip-path="url(#c0_283)" d="M85.6,121.2H575.1" class="g0_283"/>
<path clip-path="url(#c1_283)" d="M575,121V604.9" class="g0_283"/>
<path clip-path="url(#c2_283)" d="M575.1,604.7H85.6" class="g0_283"/>
<path clip-path="url(#c3_283)" d="M85.8,604.9V121" class="g0_283"/>
<path fill-rule="evenodd" d="M597.3,913H660v77H597.3V913Z" class="g1_283"/>
<path fill-rule="evenodd" d="M597.3,816.2H660v92.4H597.3V816.2Z" class="g2_283"/>
<path fill-rule="evenodd" d="M597.3,0H660V77H597.3V0Z" class="g1_283"/>
<path clip-path="url(#c4_283)" d="M85.6,913.4H574.4" class="g3_283"/>
<image preserveAspectRatio="none" x="98" y="129" width="465" height="467" xlink:href="img/1.jpg"/>
</svg>