<?xml version="1.0" encoding="UTF-8" standalone="no"?>
<!DOCTYPE svg PUBLIC "-//W3C//DTD SVG 1.1//EN"
"http://www.w3.org/Graphics/SVG/1.1/DTD/svg11.dtd">
<svg viewBox="0 0 931 1096" version="1.1" xmlns="http://www.w3.org/2000/svg" xmlns:xlink="http://www.w3.org/1999/xlink">
<defs>
<clipPath id="c0_225"><path d="M108.5,998.8V800.4H283.9V998.8Z"/></clipPath>
<style type="text/css"><![CDATA[
.g0_225{
fill: none;
stroke: #00AEEF;
stroke-width: 1.145;
}
.g1_225{
fill: none;
stroke: #0079C2;
stroke-width: 0.763;
}
.g2_225{
fill: none;
stroke: #241F1F;
stroke-width: 0.763;
stroke-miterlimit: 10;
}
.g3_225{
fill: #FFDEB8;
}
.g4_225{
fill: none;
stroke: #F9951B;
stroke-width: 0.916;
stroke-linejoin: round;
}
.g5_225{
fill: #F9951B;
}
.g6_225{
fill: none;
stroke: #F9951B;
stroke-width: 0.763;
stroke-miterlimit: 3;
}
.g7_225{
fill: none;
stroke: #241F1F;
stroke-width: 0.611;
stroke-miterlimit: 3;
}
.g8_225{
fill: none;
stroke: #241F1F;
stroke-width: 0.381;
stroke-miterlimit: 3;
}
.g9_225{
fill: #241F1F;
}
.ga_225{
fill: none;
stroke: #00AEEF;
stroke-width: 0.763;
stroke-linejoin: round;
}
.gb_225{
fill: #00AEEF;
}
.gc_225{
fill: #FFC500;
}
]]></style>
</defs>
<path d="M361.1,161.3c0,0,-1.5,0,-1.5,1.6V177c0,0,0,1.5,1.5,1.5h14.2c0,0,1.5,0,1.5,-1.5V162.9c0,0,0,-1.6,-1.5,-1.6H361.1Z" class="g0_225"/>
<path d="M345.7,145c0,0,-3.1,0,-3.1,3.1v78.3c0,0,0,3.1,3.1,3.1H875.1c0,0,3,0,3,-3.1V148.1c0,0,0,-3.1,-3,-3.1H345.7Z" class="g1_225"/>
<path d="M534.7,733.6h18.2m21.9,0H593m33.3,0h18.2m21.9,0h18.2m74.8,0h19.9" class="g2_225"/>
<path d="M267.9,363.5c-12.1,54.4,-34.7,122.1,-61,121.5c-24.8,-.4,-48.7,-67.7,-61.2,-121.7h-.3l-.4,-2.9c17.5,30.1,42,61.6,62.3,61.8c20.4,.2,42.6,-27.7,59.1,-56.4v-.1Z" class="g3_225"/>
<path d="M286.3,325.4c-13.2,33.6,-48.4,97.1,-79,96.8C178.4,422,141.5,358.9,127.5,325.4m147.8,0C267.7,378.4,240,485.6,206.9,485C175.7,484.5,146.3,378.2,138.3,325.4" class="g4_225"/>
<path d="M143.4,360.3c0,-1,.8,-1.7,1.7,-1.7c1,0,1.7,.7,1.7,1.7c0,.9,-.7,1.7,-1.7,1.7c-.9,0,-1.7,-.8,-1.7,-1.7Z" class="g5_225"/>
<path d="M143.4,360.3c0,-1,.8,-1.7,1.7,-1.7c1,0,1.7,.7,1.7,1.7c0,.9,-.7,1.7,-1.7,1.7c-.9,0,-1.7,-.8,-1.7,-1.7Z" class="g6_225"/>
<path d="M266.9,361.7c0,-1,.7,-1.7,1.7,-1.7c.9,0,1.7,.7,1.7,1.7c0,.9,-.8,1.7,-1.7,1.7c-1,0,-1.7,-.8,-1.7,-1.7Z" class="g5_225"/>
<path d="M266.9,361.7c0,-1,.7,-1.7,1.7,-1.7c.9,0,1.7,.7,1.7,1.7c0,.9,-.8,1.7,-1.7,1.7c-1,0,-1.7,-.8,-1.7,-1.7Z" class="g6_225"/>
<path d="M145.3,482.1V488" class="g7_225"/>
<path d="M234.2,368.7l6.3,29.2" class="g8_225"/>
<path d="M241.2,401.1l-2.5,-3.9l1.8,.7l1.4,-1.4Z" class="g9_225"/>
<path d="M221.6,478.2V450.4" class="ga_225"/>
<path fill-rule="evenodd" d="M221.6,450.4l-2.7,1.8l2.7,-7.1l2.6,7.1Z" class="gb_225"/>
<path d="M221.6,450.4V418.6" class="ga_225"/>
<path d="M108.5,485H305.3m-37,-2.9V488" class="g7_225"/>
<path fill-rule="evenodd" d="M305.3,485l-1.7,-2.4l6.5,2.4l-6.5,2.5Z" class="g9_225"/>
<path d="M206.9,513.1V325.4" class="g7_225"/>
<path fill-rule="evenodd" d="M206.9,325.4l-2.5,1.7l2.5,-6.5l2.4,6.5Z" class="g9_225"/>
<path d="M222.3,826.8l-72.2,144c15.6,0,35.9,-26.3,45.8,-46.3c11.8,-23.4,20.4,-53.4,26.1,-94.2Z" class="g3_225"/>
<path d="M222.1,967.7v6.2m-35.9,-6.2v6.2" class="g7_225"/>
<path d="M140.7,990.7L230.1,811.3m-5.8,0c-5.6,50.9,-15,86.3,-28.5,113.2c-10,20,-30.1,46.3,-45.7,46.3c-7,0,-14.8,-5.5,-22.3,-13.1" class="g4_225"/>
<path d="M220.4,827.7c0,-.9,.8,-1.7,1.7,-1.7c1,0,1.8,.8,1.8,1.7c0,1,-.8,1.7,-1.8,1.7c-.9,0,-1.7,-.7,-1.7,-1.7Z" class="gc_225"/>
<path d="M220.4,827.7c0,-.9,.8,-1.7,1.7,-1.7c1,0,1.8,.8,1.8,1.7c0,1,-.8,1.7,-1.8,1.7c-.9,0,-1.7,-.7,-1.7,-1.7Z" class="g5_225"/>
<path d="M220.4,827.7c0,-.9,.8,-1.7,1.7,-1.7c1,0,1.8,.8,1.8,1.7c0,1,-.8,1.7,-1.8,1.7c-.9,0,-1.7,-.7,-1.7,-1.7Z" class="g6_225"/>
<path d="M194.1,926.9V907.6" class="ga_225"/>
<path fill-rule="evenodd" d="M194.1,907.6l-2.7,1.8l2.7,-7.1l2.6,7.1Z" class="gb_225"/>
<path d="M194.1,907.6V884" class="ga_225"/>
<path d="M108.5,970.8H279" class="g7_225"/>
<path clip-path="url(#c0_225)" fill-rule="evenodd" d="M279,970.8l-1.6,-2.4l6.5,2.4l-6.5,2.4Z" class="g9_225"/>
<path d="M150.1,998.8V811.3" class="g7_225"/>
<path fill-rule="evenodd" d="M150.1,811.3l-2.4,1.6l2.4,-6.5l2.5,6.5Z" class="g9_225"/>
</svg>