<?xml version="1.0" encoding="UTF-8" standalone="no"?>
<!DOCTYPE svg PUBLIC "-//W3C//DTD SVG 1.1//EN"
"http://www.w3.org/Graphics/SVG/1.1/DTD/svg11.dtd">
<svg viewBox="0 0 907 1045" version="1.1" xmlns="http://www.w3.org/2000/svg" xmlns:xlink="http://www.w3.org/1999/xlink">
<defs>
<clipPath id="c0_601"><path d="M114.9,518.2V459H201v59.2Z"/></clipPath>
<clipPath id="c1_601"><path d="M589.2,754c.3,0,.6,-.3,.6,-.6c0,-.3,-.3,-.6,-.6,-.6c-.3,0,-.6,.3,-.6,.6c0,.3,.3,.6,.6,.6Zm-63.1,1V651.2h135V755Z"/></clipPath>
<clipPath id="c2_601"><path d="M589.2,754c-.3,0,-.6,-.3,-.6,-.6c0,-.3,.3,-.6,.6,-.6c.3,0,.6,.3,.6,.6c0,.3,-.3,.6,-.6,.6Z"/></clipPath>
<clipPath id="c3_601"><path d="M248.8,869.7V651.2H383.7V869.7Z"/></clipPath>
<clipPath id="c4_601"><path d="M588.8,824.3c.3,0,.5,-.2,.5,-.5c0,-.4,-.2,-.6,-.5,-.6c-.4,0,-.6,.2,-.6,.5c0,.4,.2,.6,.6,.6Zm0,-3.5c.3,0,.6,-.2,.6,-.6c0,-.3,-.3,-.6,-.6,-.6c-.3,0,-.6,.3,-.6,.6c0,.4,.3,.6,.6,.6Zm0,-3.5c.3,0,.6,-.3,.6,-.6c0,-.3,-.3,-.6,-.6,-.6c-.3,0,-.6,.3,-.6,.6c0,.3,.3,.6,.6,.6Zm0,-3.5c.3,0,.6,-.3,.6,-.6c0,-.3,-.2,-.6,-.6,-.6c-.3,0,-.6,.3,-.6,.6c0,.3,.3,.6,.6,.6Zm.1,-3.5c.3,0,.5,-.3,.5,-.6c0,-.3,-.2,-.6,-.6,-.6c-.3,0,-.5,.3,-.5,.6c0,.3,.2,.6,.5,.6Zm0,-3.5c.3,0,.5,-.3,.6,-.6c0,-.4,-.3,-.6,-.6,-.6c-.4,0,-.6,.2,-.6,.6c0,.3,.2,.5,.6,.6Zm0,-3.6c.3,0,.6,-.2,.6,-.5c0,-.4,-.3,-.6,-.6,-.6c-.3,0,-.6,.2,-.6,.5c0,.4,.3,.6,.6,.6Zm0,-3.5c.3,0,.6,-.2,.6,-.6c0,-.3,-.3,-.5,-.6,-.6c-.3,0,-.6,.3,-.6,.6c0,.4,.3,.6,.6,.6Zm0,-3.5c.3,0,.6,-.3,.6,-.6c0,-.3,-.2,-.6,-.6,-.6c-.3,0,-.5,.3,-.5,.6c0,.3,.2,.6,.5,.6Zm.1,-3.5c.3,0,.5,-.3,.5,-.6c0,-.3,-.2,-.6,-.5,-.6c-.4,0,-.6,.3,-.6,.6c0,.3,.2,.6,.5,.6Zm0,-3.5c.3,0,.6,-.3,.6,-.6c0,-.3,-.3,-.6,-.6,-.6c-.3,0,-.6,.3,-.6,.6c0,.3,.3,.6,.6,.6Zm-62.9,92.7V785.1h62.3c.1,.3,.3,.5,.6,.5c.3,0,.5,-.2,.6,-.5H661v96.8Z"/></clipPath>
<clipPath id="c5_601"><path d="M588.8,820.8c-.3,0,-.6,-.2,-.6,-.6c0,-.3,.3,-.6,.6,-.6c.3,0,.6,.3,.6,.6c0,.4,-.3,.6,-.6,.6Zm0,-3.5c-.3,0,-.6,-.3,-.6,-.6c0,-.3,.3,-.6,.6,-.6c.3,0,.6,.3,.6,.6c0,.3,-.3,.6,-.6,.6Zm0,-3.5c-.3,0,-.6,-.3,-.6,-.6c0,-.3,.3,-.6,.6,-.6c.4,0,.6,.3,.6,.6c0,.3,-.3,.6,-.6,.6Zm0,-3.5c-.3,0,-.5,-.3,-.5,-.6c0,-.3,.2,-.6,.5,-.6c.4,0,.6,.3,.6,.6c0,.3,-.2,.6,-.5,.6Zm.1,-3.5c-.4,-.1,-.6,-.3,-.6,-.6c0,-.4,.2,-.6,.6,-.6c.3,0,.6,.2,.6,.6c-.1,.3,-.3,.6,-.6,.6Zm0,-3.6c-.3,0,-.6,-.2,-.6,-.6c0,-.3,.3,-.5,.6,-.5c.3,0,.6,.2,.6,.6c0,.3,-.3,.5,-.6,.5Zm0,-3.5c-.3,0,-.6,-.2,-.6,-.6c0,-.3,.3,-.6,.6,-.6c.3,.1,.6,.3,.6,.6c0,.4,-.3,.6,-.6,.6Zm0,-3.5c-.3,0,-.5,-.3,-.5,-.6c0,-.3,.2,-.6,.5,-.6c.4,0,.6,.3,.6,.6c0,.3,-.3,.6,-.6,.6Zm0,-3.5c-.3,0,-.5,-.3,-.5,-.6c0,-.3,.2,-.6,.6,-.6c.3,0,.5,.3,.5,.6c0,.3,-.2,.6,-.5,.6Zm.1,-3.5c-.3,0,-.6,-.3,-.6,-.6c0,-.3,.3,-.6,.6,-.6c.3,0,.6,.3,.6,.6c0,.3,-.3,.6,-.6,.6Zm0,-3.6c-.3,0,-.5,-.2,-.6,-.5h1.2c-.1,.3,-.3,.5,-.6,.5Z"/></clipPath>
<clipPath id="c6_601"><path d="M588.8,824.3c-.4,0,-.6,-.2,-.6,-.6c0,-.3,.2,-.5,.6,-.5c.3,0,.5,.2,.5,.6c0,.3,-.2,.5,-.5,.5Z"/></clipPath>
<clipPath id="c7_601"><path d="M125.9,233.8V176.7H293.3v57.1Z"/></clipPath>
<clipPath id="c8_601"><path d="M-2.6,1047.7V-2.6H910.2V1047.7Z"/></clipPath>
<style type="text/css"><![CDATA[
.g0_601{
fill: none;
stroke: #000000;
stroke-width: 1.527;
stroke-linecap: butt;
stroke-linejoin: miter;
stroke-miterlimit: 4;
}
.g1_601{
fill: #FFFFFF;
}
.g2_601{
fill: none;
stroke: #000000;
stroke-width: 0.492;
stroke-linecap: butt;
stroke-linejoin: miter;
stroke-miterlimit: 4;
}
.g3_601{
fill: none;
stroke: #000000;
stroke-width: 0.656;
stroke-linecap: butt;
stroke-linejoin: miter;
stroke-miterlimit: 4;
}
.g4_601{
}
.g5_601{
fill: none;
stroke: #000000;
stroke-width: 1.164;
stroke-linecap: butt;
stroke-linejoin: miter;
stroke-miterlimit: 4;
}
.g6_601{
fill: none;
stroke: #000000;
stroke-width: 1.145;
stroke-linecap: butt;
stroke-linejoin: miter;
stroke-miterlimit: 4;
}
.g7_601{
fill: none;
stroke: #636363;
stroke-width: 1.527;
stroke-linecap: butt;
stroke-linejoin: miter;
stroke-miterlimit: 4;
}
.g8_601{
fill: #B6B6B6;
}
.g9_601{
fill: #333333;
}
.ga_601{
fill: #7C7C7C;
}
.gb_601{
fill: #909090;
}
.gc_601{
fill: #727272;
}
.gd_601{
fill: #C8C8C8;
}
.ge_601{
fill: #ACACAC;
}
.gf_601{
fill: #A8A8A8;
}
.gg_601{
fill: #E5E5E5;
}
.gh_601{
fill: #D2D2D2;
}
.gi_601{
fill: #CFCFCF;
}
.gj_601{
fill: #ECECEC;
}
.gk_601{
fill: #DDDDDD;
}
.gl_601{
fill: #DBDBDB;
}
.gm_601{
fill: #D6D6D6;
}
.gn_601{
fill: #3C3C3C;
}
.go_601{
fill: none;
stroke: #FFFFFF;
stroke-width: 1.909;
stroke-linecap: butt;
stroke-linejoin: miter;
}
.gp_601{
fill: none;
stroke: #000000;
stroke-width: 0.381;
stroke-linecap: butt;
stroke-linejoin: miter;
}
]]></style>
</defs>
<path d="M91.5,488.7V926.8H816.8V488.7H91.5Z" class="g0_601"/>
<path d="M101.9,475v59.8H374.2V475H101.9Z" class="g1_601"/>
<g clip-path="url(#c0_601)">
<image clip-path="url(#c0_601)" preserveAspectRatio="none" x="98" y="432" width="118" height="119" xlink:href="img/1.jpg"/>
</g>
<image clip-path="url(#c1_601)" preserveAspectRatio="none" x="526" y="651" width="135" height="104" xlink:href="img/2.jpg"/>
<image clip-path="url(#c2_601)" preserveAspectRatio="none" x="588" y="752" width="2" height="2" xlink:href="img/3.jpg"/>
<path d="M531.9,657v83.1H646.7V657H531.9Z" class="g1_601"/>
<path d="M531.9,657v83.1H646.7V657H531.9Z" class="g2_601"/>
<path d="M531.9,686H646.6" class="g3_601"/>
<image clip-path="url(#c3_601)" preserveAspectRatio="none" x="248" y="651" width="136" height="219" xlink:href="img/4.jpg"/>
<path d="M254.6,657V855H369.4V657H254.6Z" class="g1_601"/>
<path d="M254.6,657V855H369.4V657H254.6Z" class="g2_601"/>
<path d="M254.6,681.2h115M254.5,704h115" class="g3_601"/>
<path d="M588.2,820.2c0,-.3,.3,-.6,.6,-.6c.3,0,.6,.3,.6,.6c0,.3,-.3,.6,-.6,.6c-.3,0,-.6,-.3,-.6,-.6m0,-3.5c0,-.3,.3,-.6,.6,-.6c.3,0,.6,.3,.6,.6c0,.3,-.3,.6,-.6,.6c-.3,0,-.6,-.3,-.6,-.6m.1,-3.5c0,-.3,.2,-.6,.5,-.6c.4,0,.6,.3,.6,.6c0,.3,-.2,.6,-.6,.6c-.3,0,-.5,-.3,-.5,-.6m0,-3.5c0,-.4,.3,-.6,.6,-.6c.3,0,.5,.3,.5,.6c0,.3,-.2,.6,-.5,.5c-.4,0,-.6,-.2,-.6,-.5m0,-3.5c0,-.4,.3,-.6,.6,-.6c.3,0,.6,.2,.6,.6c0,.3,-.3,.5,-.6,.5c-.3,0,-.6,-.2,-.6,-.5m0,-3.6c0,-.3,.3,-.5,.6,-.5c.3,0,.6,.2,.6,.5c0,.4,-.3,.6,-.6,.6c-.3,0,-.6,-.2,-.6,-.6m0,-3.5c0,-.3,.3,-.6,.6,-.6c.4,0,.6,.3,.6,.6c0,.3,-.2,.6,-.6,.6c-.3,0,-.6,-.3,-.6,-.6m.1,-3.5c0,-.3,.2,-.6,.6,-.6c.3,0,.5,.3,.5,.6c0,.3,-.2,.6,-.5,.6c-.4,0,-.6,-.3,-.6,-.6m0,-3.5c0,-.3,.3,-.6,.6,-.6c.3,0,.6,.3,.6,.6c0,.3,-.3,.6,-.6,.6c-.4,0,-.6,-.3,-.6,-.6m0,-3.5c0,-.4,.3,-.6,.6,-.6c.3,0,.6,.2,.6,.6c0,.3,-.3,.6,-.6,.6c-.3,0,-.6,-.3,-.6,-.6m0,-3.6c0,-.3,.3,-.5,.6,-.5c.3,0,.6,.2,.6,.6c0,.3,-.3,.5,-.6,.5c-.3,0,-.6,-.2,-.6,-.6m.1,-3.5c0,-.3,.2,-.6,.5,-.6c.4,.1,.6,.3,.6,.6c0,.4,-.2,.6,-.6,.6c-.3,0,-.5,-.2,-.5,-.6m0,-3.5c0,-.3,.2,-.6,.6,-.6c.3,0,.5,.3,.5,.6c0,.3,-.2,.6,-.5,.6c-.4,0,-.6,-.3,-.6,-.6m0,-3.5c0,-.3,.3,-.6,.6,-.6c.3,0,.6,.3,.6,.6c0,.3,-.3,.6,-.6,.6c-.3,0,-.6,-.3,-.6,-.6m0,-3.5c0,-.3,.3,-.6,.6,-.6c.3,0,.6,.3,.6,.6c0,.3,-.3,.6,-.6,.6c-.3,0,-.6,-.3,-.6,-.6m0,-3.5c.1,-.4,.3,-.6,.6,-.6c.3,0,.6,.3,.6,.6c0,.3,-.3,.6,-.6,.6c-.3,0,-.6,-.3,-.6,-.6m.1,-3.5c0,-.4,.2,-.6,.6,-.6c.3,0,.5,.2,.5,.6c0,.3,-.2,.5,-.6,.5c-.3,0,-.5,-.2,-.5,-.5m0,-3.6c0,-.3,.3,-.5,.6,-.5c.3,0,.5,.2,.5,.5c0,.4,-.2,.6,-.5,.6c-.4,0,-.6,-.3,-.6,-.6m0,-3.5c0,-.3,.3,-.6,.6,-.6c.3,0,.6,.3,.6,.6c0,.3,-.3,.6,-.6,.6c-.3,0,-.6,-.3,-.6,-.6Z" class="g4_601"/>
<path d="M588.8,824.3c-.3,0,-.6,-.2,-.6,-.6c0,-.3,.3,-.5,.6,-.5c.3,0,.6,.2,.6,.6c0,.3,-.3,.5,-.6,.5m.4,-70.3c-.3,0,-.6,-.3,-.6,-.6c0,-.3,.3,-.6,.6,-.6c.3,0,.6,.3,.6,.6c0,.3,-.3,.6,-.6,.6Z" class="g4_601"/>
<path d="M588.9,747.2l7.9,7.8l-15.1,-.1l7.2,-7.7Z" class="g1_601"/>
<path d="M588.9,747.2l7.9,7.8l-15.1,-.1l7.2,-7.7Z" class="g5_601"/>
<image clip-path="url(#c4_601)" preserveAspectRatio="none" x="526" y="785" width="135" height="97" xlink:href="img/5.jpg"/>
<image clip-path="url(#c5_601)" preserveAspectRatio="none" x="588" y="785" width="2" height="36" xlink:href="img/6.jpg"/>
<image clip-path="url(#c6_601)" preserveAspectRatio="none" x="588" y="823" width="2" height="2" xlink:href="img/7.jpg"/>
<path d="M531.9,790.9v76.4H646.7V790.9H531.9Z" class="g1_601"/>
<path d="M531.9,790.9v76.4H646.7V790.9H531.9Z" class="g2_601"/>
<path d="M531.9,815.1h115" class="g3_601"/>
<path d="M369.2,667.5H523.9" class="g6_601"/>
<path d="M531.7,667.5l-10.2,-3.7l2.4,3.7l-2.4,3.7l10.2,-3.7Z" class="g4_601"/>
<path d="M201.3,643.9c1.8,-10.6,14.9,-18.7,23.4,-23.8c8.8,-5.2,18.4,-7,28,-3.8c5.9,2,11.4,6.3,14.7,11.8c2.1,3.4,2.4,8.4,4.5,11.4c-2.4,-2.9,-3.9,-4.6,-6.8,-7.2c1.2,3.3,4,4.6,6.7,6.5c.4,-4.1,1.5,-7.2,3.2,-10.7m404.6,-2c2.8,-5.4,-3.8,-12.9,-8.7,-14.2c-6.5,-1.8,-13,.4,-18.5,4c-11.5,7.7,-22.8,17.9,-27.8,30.9c.2,-4,-1,-8.5,-1,-12.6c0,4.7,1,10.5,-.9,14.9c4.1,1,9.6,-2.5,14,-2m71.9,180.3c5.3,-4.7,12.4,-12.3,8.4,-19.9c-2.4,-4.6,-8.4,-5.5,-13.1,-5.4c-5.9,.1,-13.1,1.5,-18.7,2.9c-4.1,1.1,-6.8,3.5,-11.2,2.7c1.7,-1.5,6.9,-4.2,6.3,-6.7c-3.9,-.2,-7.1,4.9,-9.6,7.2c1.1,3.2,9.7,1.8,12.8,3.9" class="g7_601"/>
<path d="M133.5,196.3V373.8H776.4V196.3H133.5Z" class="g0_601"/>
<path d="M125.9,176.7v68.7h173V176.7h-173Z" class="g1_601"/>
<g clip-path="url(#c7_601)">
<path d="M178.7,230.3l-1.1,-.2l.3,.8l9.2,1.2l-6.4,-5.5l-.8,.5l-.5,.4l-.2,.7l-.4,.5l-.1,1.1v.5Z" class="g4_601"/>
<path d="M165.6,216.6v0l1.2,1.4l.9,1.3l.3,.8l.4,1l.3,.9v.9l.1,.9l-.4,.8l-.4,.8l-.8,.8l-1,.6l-1.4,.4l12.8,2.9l-.4,-1.3l-.1,-1l.2,-1l.3,-.7l.3,-.5l.3,-.4l.4,-.3l2.1,1.7L176.2,222l-3.3,-3.7l-1.3,-1.7l-.8,-1.3l-.2,.3l-.2,.4l-.3,.4l-.7,.3l-.8,.2l-1.4,.1l-1.6,-.4Z" class="g8_601"/>
<path d="M177.6,230.1l1.1,.2v-.5l.1,-1.1l.4,-.5l.2,-.7l.5,-.4l.8,-.5l-2.1,-1.7l-.4,.3l-.3,.4l-.3,.5l-.3,.7l-.2,1l.1,1l.4,1.3Z" class="g9_601"/>
<path d="M138.1,205.1v0l2.2,1.4l2.5,1.4l4.6,3.1l4.6,3.4l4.3,3.4l3.7,3l2.9,2.5l2.5,2.3l-.3,.5l.8,-.8l.7,-.8l.4,-1v-1l-.1,-.9l-.2,-1l-.2,-.8l-.6,-1l-1,-1.7l-.9,-1.3l-1.2,-1.2l1.1,.5l1.3,.2l1.4,.3h1.2l2.1,-.2l.9,-.1l-1.7,-.5l-1.7,-.8l-3.9,-1.8l-3.9,-2l-4.1,-2.5l-3.7,-2.4L148.2,203l-5.1,-3.8l-1.5,.5l-1,.8l-.9,.6l-.7,.7l-.5,.9l-.3,.8l-.1,.8v.8Z" class="ga_601"/>
<path d="M164.7,227.3v0l.1,-.1l-.1,.1Z" class="ga_601"/>
<path d="M165.1,226.1v0l-.4,1.2l.1,-.1l1.4,-.4l1,-.6l.8,-.8l.4,-.8l.4,-.8l-.1,-.9V222l-.3,-.9l-.4,-1l-.3,-.8l-.9,-1.3l-1.2,-1.4l1.6,.4l1.4,-.1l.8,-.2l.7,-.3l.3,-.4l.2,-.4l.2,-.3l-.9,.1l-2.1,.2h-1.2l-1.4,-.3l-1.3,-.2l-1.1,-.5l1.2,1.2l.9,1.3l1,1.7l.6,1l.2,.8l.2,1l.1,.9v1l-.4,1l-.7,.8l-.8,.8Z" class="gb_601"/>
<path d="M127.8,195.6v0l-.4,.9l-.1,.6v1.4l.3,1.1l.5,.8l.6,.8l.6,.5l.7,.4l1.4,.3l-.1,-1.1v-.9l.3,-.9l.2,-.8l.3,-.7l.4,-.5l1,-1l.9,-.9l1,-.4l.8,-.4l.7,-.1l-1,-1l-.7,-.4l-.9,-.4l-.8,-.4l-1.1,-.1l-1.1,.2l-1.3,.3l-.7,.5l-.6,.6l-.6,.8l-.3,.8Z" class="gc_601"/>
<path d="M133.5,203v0l2.2,1l-.1,-.9l.1,-.8l.2,-.8l.6,-.9l.6,-.8l1.1,-.7l1.4,-.7l1.7,-.4l1.8,1.2l.5,-.1l-.4,-.5L142,197.2l-.9,-.7l-1.1,-.8l-1.4,-.6l-1.5,-.5l-.2,.1l.5,.9l-.8,.2l-.7,.3l-.7,.4l-.4,.4l-.5,.6l-.3,.4l-.5,1.1l-.1,1.2l-.2,1.1l.1,.9l.2,.8Z" class="gd_601"/>
<path d="M135.7,204v0l2.4,1.1v-.8l.1,-.8l.3,-.8l.5,-.9l.7,-.7l.9,-.6l1,-.8l1.5,-.5L141.3,198l-1.7,.4l-1.4,.7l-1.1,.7l-.6,.8l-.6,.9l-.2,.8l-.1,.8l.1,.9Z" class="ge_601"/>
<path d="M131.4,202.4v0l2.1,.6l-.2,-.8l-.1,-.9l.2,-1.1l.1,-1.2l.5,-1.1l.3,-.4l.5,-.6l.4,-.4l.7,-.4l.7,-.3l.8,-.2l-.5,-.9l-.7,.1l-.8,.4l-1,.4l-.9,.9l-1,1l-.4,.5l-.3,.7l-.2,.8l-.3,.9v.9l.1,1.1Z" class="gf_601"/>
<path d="M163.4,227h.1h-.1Z" class="gg_601"/>
<path d="M163.5,227v0l.5,.5l.7,-.2l-1.2,-.3Z" class="gh_601"/>
<path d="M138.4,207v0l1.9,1.1l1.9,1.1l4,2.7l4,3l3.6,3l3.3,3l2.9,2.5l3.5,3.6l.8,-.4l.8,-.5l.3,-.5l-2.5,-2.3L160,220.8l-3.7,-3L152,214.4L147.4,211l-4.6,-3.1l-2.5,-1.4l-2.2,-1.4l.1,1l.2,.9Z" class="gb_601"/>
<path d="M163.5,227l1.2,.3l.4,-1.2l-.8,.5l-.8,.4Z" class="gb_601"/>
<path d="M127.8,194.2v0l-.9,2.6l-.8,2.6l.2,.9l.5,.8l.6,.6l.6,.6l.7,.6l.9,.5l1,.2l1.1,.4l-.3,-1.6l-1.4,-.3l-.7,-.4l-.6,-.5l-.6,-.8l-.5,-.8l-.3,-1.1v-1.4l.1,-.6l.4,-.9l.3,-.8l.6,-.8l.6,-.6l.7,-.5l-1.3,.6l-.9,.7Z" class="gi_601"/>
<path d="M139.4,209.3v0l-.4,-.6l-.4,-.8l-.2,-.9l-2.2,-1.1l-.3,-.6l-.2,-.5V204l-2.2,-1l.2,.9l-1.1,.1h-.9v.7l.8,.7l.6,.8l1,.8l1.1,.8l1.4,.8l1.3,.5l.8,.1l.7,.1Z" class="gj_601"/>
<path d="M136.2,205.9v0l2.2,1.1l-.2,-.9l-.1,-1L135.7,204v.8l.2,.5l.3,.6Z" class="gk_601"/>
<path d="M133.5,203v0l-2.1,-.6l.3,1.6h.9l1.1,-.1l-.2,-.9Z" class="gl_601"/>
<path d="M126.1,199.4v0l.8,-2.6l.9,-2.6l-.5,.6l-.5,.6l-.4,.6l-.3,.7l-.1,.7l-.1,.7v.7l.2,.6Z" class="gm_601"/>
<path d="M161.8,226.6v0l-5.7,-4.5l-6,-4.6l-6,-4.4l-3,-2l-3.2,-2l-.2,.5l1.6,.9l1.6,1.1l3.1,2.1l6,4.4l5.9,4.5l2.8,2.2l2.8,2.4V227l.3,-.4Z" class="gn_601"/>
<path d="M169.5,212.1v0L163,209l-6.5,-3.2l-3.2,-1.7l-3.1,-1.6l-3.2,-2l-3.1,-2l-.3,.6l3.1,2l3.1,1.8l3.1,1.8l3.3,1.6l6.6,3.2l6.4,3.1l.3,-.5Z" class="gn_601"/>
<path d="M139.5,210.7v0l-.9,-1l-.5,-1.1l-.3,-1.1l-.2,-1.4l.1,-1.4l.4,-1.3l.5,-1.4l.5,-.5l.4,-.5l1.1,-.9l1.2,-.6l1.2,-.4l1.4,-.5l-.3,-.6l-1.3,.5l-1.3,.5l-1.2,.8l-1.1,.9l-.6,.6l-.5,.6l-.5,1.3l-.5,1.5l-.1,1.6l.2,1.3l.3,1.3l.8,1.2l.4,.5l.4,.5l.4,-.4Z" class="gn_601"/>
<path d="M135.4,207.5v0l-.4,-1l-.4,-1l-.1,-.9l-.2,-1v-1.1l.2,-.9l.2,-1l.3,-1l.5,-.9l.6,-.8l.7,-.6l.8,-.5l.9,-.5l.9,-.3l.9,-.2h1v-.6l-1,.1l-1.1,.2l-1,.4l-.9,.3l-.8,.6l-.8,.8l-.7,.8l-.5,.9l-.4,1l-.3,1.1v2.2l.1,1l.3,1l.2,1l.6,1.1l.4,-.2Z" class="gn_601"/>
<path d="M133.2,205.1v0l-.4,-1.6l-.1,-1.3l.1,-1.6l.2,-1.4l.3,-1l.4,-.7l.6,-.8l.6,-.6l.7,-.5l.6,-.5l1.7,-.9l-.2,-.5l-1.7,.9l-.8,.5l-.7,.6l-.6,.6l-.6,.8l-.5,.9l-.4,.9l-.1,1.5l-.2,1.6l.1,1.7l.4,1.6l.6,-.2Z" class="gn_601"/>
<path d="M141,196.4v0l-1.9,-1.5l-1.7,-1.7l-.4,.4l1.8,1.6l1.9,1.6l.3,-.4Z" class="gn_601"/>
<path d="M136.7,207.3v0l-2.4,-1.4l-2.6,-1.2l-.1,.5l2.3,1.3l2.5,1.3l.3,-.5Z" class="gn_601"/>
<path d="M130.9,203.7v0l-1.3,-.7l-1.2,-.9l-.6,-.7l-.5,-.5l-.3,-.8l-.2,-.7l-.2,-1.2l.1,-1.1L127,196l.5,-.9l.8,-1l1,-.7l.9,-.5l1,-.5l1.3,-.3h1l1.3,.3l1.1,.4l.2,-.5l-1.2,-.5l-1.2,-.2l-1.3,.1l-1.3,.1l-1.2,.5l-1.1,.6l-.9,.8l-.8,1l-.4,.7l-.3,.7l-.3,.7l.1,.8l-.1,1.4l.4,1.4l.3,.7l.4,.6l1,1l1.1,.8l1.4,.7l.2,-.5Z" class="gn_601"/>
<path d="M167.3,216.2v0l-3.4,-1.8l-3.4,-1.7l-3.3,-1.9l-3.3,-1.9l-6.4,-4.2l-6.3,-4.2l-.3,.5l6.4,4.2l6.4,4.2l3.2,1.9l3.3,1.9l3.4,1.8l3.4,1.7l.3,-.5Z" class="gn_601"/>
<image x="164" y="215" width="7" height="13" xlink:href="shade/1.png"/>
<path d="M171.9,215.5v0l-1.1,.3l-1.3,.1l-2.5,.3l.1,.7l2.5,-.4l1.3,-.2l1.3,-.3l-.3,-.5Z" class="gn_601"/>
<path d="M189.1,232.7v0l-6,-1.4l-6.2,-1l-6.1,-1.1l-6.1,-.8l-.1,.4l6,.9l6.2,1.1l6.1,1.2l6,1.3l.2,-.6Z" class="gn_601"/>
<path d="M189.2,232.1v0l-4.7,-4.4L180.1,223l-4.4,-4.7l-4.2,-4.9l-.4,.3l4.2,5l4.3,4.8l4.6,4.6l4.7,4.3l.3,-.3Z" class="gn_601"/>
<path d="M180.7,230.7v0l-.3,-.7l-.3,-.8v-.8l.1,-.9l.4,-.8l.4,-.7l.4,-.7l.6,-.5l-.3,-.5l-.7,.6l-.5,.8l-.6,.8l-.2,.9l-.2,.9l.1,1l.2,.9l.4,.8l.5,-.3Z" class="gn_601"/>
</g>
<g clip-path="url(#c8_601)">
<path d="M-4.5,13.7H-27.4m939.5,0H935M-4.5,1031.2H-27.4m939.5,0H935M13.7,-4.5V-27.4m0,1077v22.9m880,-1077V-27.4m0,1077v22.9" class="go_601"/>
<path d="M-4.5,13.7H-27.4m939.5,0H935M-4.5,1031.2H-27.4m939.5,0H935M13.7,-4.5V-27.4m0,1077v22.9m880,-1077V-27.4m0,1077v22.9" class="gp_601"/>
</g>
</svg>