<?xml version="1.0" encoding="UTF-8" standalone="no"?>
<!DOCTYPE svg PUBLIC "-//W3C//DTD SVG 1.1//EN"
"http://www.w3.org/Graphics/SVG/1.1/DTD/svg11.dtd">
<svg viewBox="0 0 907 1045" version="1.1" xmlns="http://www.w3.org/2000/svg" xmlns:xlink="http://www.w3.org/1999/xlink">
<defs>
<clipPath id="c0_238"><path d="M650.6,824.1l-4,-25.3l-2.1,-13l2.8,-.4L660,783.3l6.2,38.3l-15.6,2.5Z"/></clipPath>
<clipPath id="c1_238"><path d="M693.3,856.6l-3.7,-23.3l10.2,-1.7l5.3,-.8l3.8,23.3l-11.4,1.8l-4.2,.7Z"/></clipPath>
<clipPath id="c2_238"><path d="M689.5,777.6l-5.8,-35.9l10.4,-1.6l8.6,-1.4l3.6,-.6l2.5,15.9l3.2,20l-22.5,3.6Z"/></clipPath>
<clipPath id="c3_238"><path d="M591.1,783.1L574.5,746.8L573,743.5l1.9,-.9l21,-9.6l18.2,39.6l-23,10.5Z"/></clipPath>
<clipPath id="c4_238"><path d="M614.8,865.5l-7.9,-17.2l-.2,-.3l.3,-.1l9.9,-4.5l8,17.5l-10.1,4.6Z"/></clipPath>
<clipPath id="c5_238"><path d="M666.9,886.5l-2.7,-16.6l1.1,-.2l9.8,-1.5l2.7,16.5l-1.9,.3l-9,1.5Z"/></clipPath>
<clipPath id="c6_238"><path d="M675.8,880.3v0h.1h-.1Zm.7,-.5v0Zm0,0l-.1,-.1h.1v.1Zm3.1,-.9v-.1h.1v.1h-.1Zm-.5,.1v-.2h.2v.2h-.2Zm.3,-.1v-.1h.1l-.1,.1Zm-1.9,-.7v-.1h.1v.1h-.1Zm-.9,-.1V878h.1v.1Zm-.3,0V878v.1Zm1.9,0V878h.1v.1Zm-1.6,-.1v0Zm1.1,0v-.1l.1,.1h-.1Zm1,-.1v-.1v.1Zm-1,0v-.1h.1v.1Zm-1.6,.8l-.2,-.1c-.1,-.2,-.2,-.5,-.3,-.8h.1c.1,.3,.2,.6,.3,.8l.1,.1Zm-.3,-.8v-.1h.1l-.1,.1Zm4.3,8c-.8,0,-3.5,-.4,-3.7,-.4l-.1,-.2c0,0,-.1,0,-.1,0q-.1,0,-.1,0c0,0,-.1,0,-.1,0l-.1,-.1c-.3,-.1,-.5,-.2,-.8,-.2l-.1,-.1c-.2,-.1,-.3,-.1,-.5,-.1c-.1,-.1,0,-.1,-.2,-.1c-.1,-.2,-.1,-.1,-.3,-.2c-.1,-.2,-.4,-.3,-.5,-.4c-.2,-.4,-.5,-.9,-.3,-1.4c.2,-.2,.3,-.6,.6,-.7v-.2c.6,-.3,1.3,-.6,1.8,-1l.2,-.1v.1h.1v-.2l-.1,.1v-.2v.1h.1v-.3l.1,-.1h.1v-.1h.1l-.1,-.9l.2,.7l.1,.1v.3h.1l.1,-.4l-.1,-.1c.1,-.1,.4,-.2,.1,-.3c-.1,-.2,-.3,-.2,-.4,-.3c.3,-.1,0,-.1,.3,-.2l-.1,-.1h.1c0,0,.2,.1,.3,.1c0,0,.1,0,.1,0l.1,.1c0,0,.1,0,.2,0c.2,0,.5,.1,.6,.1h.2v-.1h.1v.1l.2,-.1v.1v-.1h.1v.1h.2v-.1h.2V879h.1v.2l.3,-.1V879h.1l.2,-.1v-.1h.1v.1l.1,.1h.2v.1h.1v-.2h.1v.1h.2l-.1,-.2v-.1l-.1,.1v-.1l.3,-.1l-.1,-.1v.1h-.2l-.1,-.1h-.1v-.1h-.1v.1h-.1v.1h-.1v-.1l-.2,.1v-.1v.1h-.1v-.1h-.2v-.2H679v.1h-.2q-.1,-.1,-.2,-.1c0,0,-.2,0,-.3,.1l-.2,-.2h-.3v.1h-.1v-.1l-.1,.1v-.2h.5v.1h.1v-.1l.1,.1v-.1h.1l.3,-.1v.1h.1v-.2h.1v-.1h-.1v-.1l-.2,.1h.1l-.1,.1v-.1h-.3v-.1h-.1v-.1v.1h-.3h.1l-.3,.1v.1v-.2h-.2v.1h.1v.1h-.2v-.2l-.2,.1v.1h-.1v-.1H677v.1h-.1v.1l-.1,-.1h-.3l.1,.1h-.1v-.1h-.1v.1h-.1v-.1l-.1,.1h-.1v-.1H676v-.1h-.2v-.2h.1v-.1l-.1,.1v-.1h-.1l.1,.2h-.1c-.1,-.2,0,-.2,0,-.4c.3,0,0,0,.3,-.1c-.1,-.1,.1,-.1,-.1,-.2c.2,-.1,.2,-.2,.3,-.4c.2,-.1,.3,-.3,.4,-.5c.2,0,0,0,.2,-.1v-.1h.1v.1h.1c0,-.2,.1,0,0,-.2c.3,-.2,.6,-.4,1,-.4v-.2h.1v.1l.4,-.1v-.1h.2l.1,.1v-.1h.1V875l.6,-.1v-.1h.2v.1l.2,-.1h.2H680l.2,-.1l.4,-.1v.1l.2,-.1l.2,-.1v.1h.3l.3,-.1v-.1h.1v.2c.2,-.1,.3,-.1,.4,-.1c0,0,.1,0,.2,0l.1,.2q.1,-.1,.1,-.1q.1,0,.1,.1h.1v-.1l.1,.1h.1v-.1h.1v.1l.1,-.1v.3h.1v-.1c.1,.2,.2,.2,.3,.2q.1,0,.1,0c0,.1,.1,.1,.1,.1v.1q.2,.1,.3,.2q.2,0,.3,.2h.1c.2,.5,.4,1.1,.4,1.7c-.1,.1,-.2,.1,-.4,.2l-.1,.3q.2,0,.2,0q.1,0,.3,0c-.1,0,0,.1,-.2,.1c0,.2,0,.1,0,.4h.1q.1,0,.2,.1h.1v-.1h.2l-.1,.1c.1,.2,.2,.3,.3,.5c.2,0,.4,.2,.3,.4c.1,0,.2,0,.3,0c.5,0,1.1,.2,1.6,.3v.1q.1,0,.1,0q.1,0,.1,0q0,.1,.1,.1h.1q.1,.1,.3,.1c.1,.2,.3,.3,.4,.3c.3,.5,.3,1,.3,1.5c-.2,.1,-.2,.3,-.4,.4c-.1,.2,-.2,.2,-.4,.3v.2c-.3,.1,0,0,-.3,.1c-.1,.1,0,.1,-.2,.2c-.1,.1,0,.1,-.2,.2c-.1,.1,0,.1,-.2,.2c-.1,.1,0,.1,-.2,.1v.2c-.2,.1,-2.9,1.7,-3.4,1.7l-3.3,.5c0,.1,-.1,.1,-.3,.1Z"/></clipPath>
<clipPath id="c7_238"><path d="M131,484.5V271.4h55.9V484.5Z"/></clipPath>
<clipPath id="c8_238"><path d="M546.7,917.7v0H765.6Zm0,-1.6V685.6H765.6V916.1Z"/></clipPath>
<clipPath id="c9_238"><path d="M546.7,917.7v-1.6H765.6v1.6Z"/></clipPath>
<clipPath id="ca_238"><path d="M650.6,824.1l-6.1,-38.3L660,783.3l6.2,38.3l-15.6,2.5Z"/></clipPath>
<clipPath id="cb_238"><path d="M693.3,856.6l-3.7,-23.3l15.5,-2.5l3.8,23.3l-15.6,2.5Z"/></clipPath>
<clipPath id="cc_238"><path d="M689.5,777.6l-5.8,-35.9l10.4,-1.6l12.2,-2L712,774l-22.5,3.6Z"/></clipPath>
<clipPath id="cd_238"><path d="M591.1,783.1L573,743.5L595.9,733l18.2,39.6l-23,10.5Z"/></clipPath>
<clipPath id="ce_238"><path d="M614.7,865.6l-4.5,-10L606.7,848l10.2,-4.6l8,17.5l-10.2,4.7Z"/></clipPath>
<clipPath id="cf_238"><path d="M666.9,886.5l-2.7,-16.6l.8,-.1l10.1,-1.6l2.7,16.5l-1.9,.3l-9,1.5Z"/></clipPath>
<clipPath id="cg_238"><path d="M-2.6,1047.7V-2.6H910.2V1047.7Z"/></clipPath>
<style type="text/css"><![CDATA[
.g0_238{
fill: #FFFFFF;
}
.g1_238{
}
.g2_238{
fill: none;
stroke: #000000;
stroke-width: 0.349;
stroke-linecap: butt;
stroke-linejoin: miter;
stroke-miterlimit: 4;
}
.g3_238{
fill: none;
stroke: #000000;
stroke-width: 0.262;
stroke-linecap: butt;
stroke-linejoin: miter;
stroke-miterlimit: 4;
}
.g4_238{
fill: none;
stroke: #000000;
stroke-width: 0.174;
stroke-linecap: butt;
stroke-linejoin: miter;
stroke-miterlimit: 4;
}
.g5_238{
fill: none;
stroke: #3D3D3D;
stroke-width: 0.349;
stroke-linecap: butt;
stroke-linejoin: miter;
stroke-miterlimit: 4;
}
.g6_238{
fill: #3D3D3D;
}
.g7_238{
fill: none;
stroke: #3D3D3D;
stroke-width: 0.152;
stroke-linecap: butt;
stroke-linejoin: miter;
stroke-miterlimit: 4;
}
.g8_238{
fill: none;
stroke: #3D3D3D;
stroke-width: 1.527;
stroke-linecap: butt;
stroke-linejoin: miter;
stroke-miterlimit: 4;
}
.g9_238{
fill: none;
stroke: #000000;
stroke-width: 1.527;
stroke-linecap: butt;
stroke-linejoin: miter;
stroke-miterlimit: 4;
}
.ga_238{
fill: none;
stroke: #000000;
stroke-width: 1.145;
stroke-linecap: butt;
stroke-linejoin: miter;
stroke-miterlimit: 4;
}
.gb_238{
fill: none;
stroke: #000000;
stroke-width: 0.763;
stroke-linecap: butt;
stroke-linejoin: miter;
stroke-miterlimit: 4;
}
.gc_238{
fill: none;
stroke: #FFFFFF;
stroke-width: 1.909;
stroke-linecap: butt;
stroke-linejoin: miter;
}
.gd_238{
fill: none;
stroke: #000000;
stroke-width: 0.381;
stroke-linecap: butt;
stroke-linejoin: miter;
}
]]></style>
</defs>
<path d="M138.1,692.1v59.8H372.5V692.1H138.1Z" class="g0_238"/>
<path d="M136.7,677h-.8V917.7H783.7V676.3H135.9v.7h.8v.8H783V677h-.8V916.9h.8v-.8H136.7v.8h.8V677h-.8v.8V677Z" class="g1_238"/>
<path d="M134.5,663.4v59.8H338.2V663.4H134.5Z" class="g0_238"/>
<image clip-path="url(#c8_238)" preserveAspectRatio="none" x="546" y="685" width="220" height="233" xlink:href="img/1.jpg"/>
<image clip-path="url(#c9_238)" preserveAspectRatio="none" x="546" y="916" width="220" height="2" xlink:href="img/2.jpg"/>
<path d="M555,721.3l30,185.8L755,879.7L725.1,693.9L555,721.3Z" class="g0_238"/>
<path d="M555,721.3l30,185.8L755,879.7L725.1,693.9L555,721.3Z" class="g2_238"/>
<g clip-path="url(#ca_238)">
<image clip-path="url(#c0_238)" preserveAspectRatio="none" x="644" y="783" width="22" height="41" xlink:href="img/3.png"/>
</g>
<g clip-path="url(#cb_238)">
<image clip-path="url(#c1_238)" preserveAspectRatio="none" x="690" y="831" width="19" height="26" xlink:href="img/4.png"/>
</g>
<g clip-path="url(#cc_238)">
<image clip-path="url(#c2_238)" preserveAspectRatio="none" x="684" y="738" width="28" height="40" xlink:href="img/5.png"/>
</g>
<path d="M666.1,718c-.5,.2,-.9,.6,-1.3,.8c-.5,.2,-.8,.3,-1.2,.7c-.3,.4,-.3,.6,-.8,.8c0,.8,.1,1.3,.7,1.8c.3,.4,1.4,1.2,1.9,1.1c-.5,1.1,-1.1,2.1,-.3,3.2c.3,.5,1.3,1.5,1.9,1.6c.6,.2,1.4,-.2,2,-.2c.2,.4,.1,1,.3,1.4c.4,.6,1.3,1.3,2,1.7c1.4,1,4.8,2.5,6.3,.9c.9,1.2,2.7,2.2,4.4,2.4c1.2,.2,3.5,.1,4.5,-.5c.7,-.3,1.2,-1.3,1.9,-1.6c.3,-.1,1.5,.4,1.9,.4c1.6,0,3.5,-.3,5,-.9c2.2,-.7,3.1,-2.4,3.5,-4.3c.7,.9,3.3,-.3,4,-.8c1.4,-.9,2.7,-2.1,3.1,-3.5c.3,-1.1,-1.1,-1.9,-.9,-2.7c0,-.4,.5,-.7,.7,-1.1c1,-2,.2,-3.7,-1.3,-5.2c-1.5,-1.5,-3.4,-2.4,-5.9,-2.6c-.6,-.1,-1.2,-.1,-1.8,0c-.4,.1,-.5,.3,-.9,.3c1.5,-2.2,-5.1,-3,-6.2,-2.9c-2.9,0,-6.2,1,-8.7,2.2c-1.2,.6,-2.3,1.4,-3.4,2c-.2,-2.1,-4.7,-.7,-5.9,-.2c-1.4,.6,-3.1,1.7,-3.9,2.9c-.4,.7,-.5,1.6,-.9,2.4Z" class="g0_238"/>
<path d="M666.1,718c-.5,.2,-.9,.6,-1.3,.8c-.5,.3,-.8,.3,-1.2,.7c-.3,.4,-.3,.6,-.8,.8c0,.8,.1,1.3,.7,1.8c.3,.4,1.4,1.2,1.9,1.1c-.5,1.1,-1.1,2.1,-.3,3.2c.3,.5,1.3,1.5,1.9,1.6c.6,.2,1.4,-.2,2,-.2c.2,.4,.1,1,.3,1.4c.4,.6,1.3,1.3,2,1.7c1.4,1,4.8,2.5,6.3,.9c.9,1.2,2.7,2.2,4.4,2.4c1.2,.2,3.5,.1,4.5,-.5c.7,-.3,1.2,-1.3,1.9,-1.6c.3,-.1,1.5,.4,1.9,.4c1.6,0,3.5,-.3,5,-.9c2.2,-.7,3.1,-2.4,3.5,-4.3c.7,.9,3.3,-.3,4,-.8c1.4,-.8,2.7,-2.1,3.1,-3.5c.3,-1.1,-1.1,-1.9,-.9,-2.7c0,-.4,.5,-.7,.7,-1.1c1,-2,.2,-3.7,-1.3,-5.1c-1.5,-1.6,-3.4,-2.5,-5.9,-2.7c-.6,-.1,-1.2,-.1,-1.8,0c-.4,.1,-.5,.3,-.9,.3c1.5,-2.2,-5.1,-3,-6.2,-2.9c-2.9,0,-6.2,1,-8.7,2.2c-1.2,.6,-2.3,1.4,-3.4,2c-.1,-2.1,-4.7,-.7,-5.9,-.2c-1.4,.6,-3.1,1.7,-3.8,2.9c-.5,.7,-.6,1.6,-1,2.4" class="g2_238"/>
<path d="M690.8,734.9l-.1,-.2c-1.5,-.2,-.4,3.3,1.1,1.9c1.4,-1.5,-1.3,-2.4,-1.5,-1.3Z" class="g0_238"/>
<path d="M690.8,734.9l-.1,-.2c-1.5,-.2,-.4,3.3,1.1,1.9c1.4,-1.5,-1.3,-2.4,-1.5,-1.3" class="g3_238"/>
<path d="M693,737.6c-.7,.3,-.5,1,-.3,1.5c.4,.2,.7,.2,1.1,.1c0,-.6,-.1,-1.6,-1.1,-1.3Z" class="g0_238"/>
<path d="M693,737.6c-.7,.3,-.5,1,-.3,1.6c.4,.1,.7,.1,1.1,0c0,-.6,-.1,-1.6,-1,-1.3" class="g4_238"/>
<g clip-path="url(#cd_238)">
<image clip-path="url(#c3_238)" preserveAspectRatio="none" x="573" y="733" width="42" height="50" xlink:href="img/6.png"/>
</g>
<path d="M680.4,753.4c0,0,-58.8,-25.5,-68.8,-7" class="g5_238"/>
<path d="M610.7,748.1l2,-1.7h-1.1l-.5,-.9l-.4,2.6Z" class="g6_238"/>
<g clip-path="url(#ce_238)">
<image clip-path="url(#c4_238)" preserveAspectRatio="none" x="607" y="843" width="18" height="23" xlink:href="img/7.png"/>
</g>
<path d="M605.6,781c0,0,-3.7,26.4,36.7,20.6" class="g5_238"/>
<path d="M644.2,801.4l-2.6,-.6l.7,.8l-.4,1l2.3,-1.2Z" class="g6_238"/>
<path d="M656.7,824.5c0,0,-11,22.5,-29.7,24.3" class="g5_238"/>
<path d="M625.1,849l2.6,.6l-.7,-.8l.5,-1l-2.4,1.2Z" class="g6_238"/>
<path d="M627,856.7c0,0,43.5,3.6,59.7,-8.5" class="g5_238"/>
<path d="M688.2,847.1l-2.5,.7l1,.4l.1,1.1l1.4,-2.2Z" class="g6_238"/>
<path d="M700.6,858.1h-.3m.3,.2h-.3m.3,.2h-.3m.3,.2l-.3,-.1m.3,.2h-.4m.4,.2h-.4m.4,.2h-.4m.4,.2h-.4m.4,.2l-.4,-.1m.4,.2h-.4m.3,.2h-.3m.3,.2h-.3m.3,.2l-.3,-.1m.3,.2h-.4m.4,.2h-.4m.4,.2h-.4m.3,.2l-.3,-.1m.3,.3l-.3,-.1m.3,.2H700m.4,.2H700m.3,.2l-.3,-.1m.3,.3l-.3,-.1m.3,.2h-.4m.4,.2h-.4m.3,.2l-.3,-.1m.3,.3l-.4,-.1m.4,.3l-.4,-.1m.3,.2h-.3m.3,.2l-.3,-.1m.3,.3l-.4,-.1m.3,.3l-.3,-.1m.3,.2h-.4m.4,.2l-.4,-.1m.3,.3l-.3,-.1m.3,.3l-.4,-.1m.3,.2l-.3,-.1m.3,.3l-.4,-.1m.3,.3l-.3,-.1m.3,.2h-.3m.3,.2l-.4,-.1m.3,.3l-.3,-.1m.3,.3l-.4,-.1m.3,.2l-.3,-.1m.3,.3l-.4,-.1m.3,.3l-.3,-.1m.3,.3L699,866m.3,.2l-.3,-.1m.2,.3l-.3,-.1m.3,.3l-.3,-.1m.2,.2l-.3,-.1m.3,.3l-.4,-.1m.3,.3l-.3,-.1m.3,.2l-.4,-.1m.3,.3l-.3,-.1m.2,.3l-.3,-.1m.3,.2l-.4,-.1m.3,.3l-.3,-.1m.2,.3l-.3,-.2m.3,.3l-.4,-.1m.3,.3l-.3,-.1m.2,.3l-.3,-.2m.2,.3l-.3,-.1m.3,.3l-.3,-.1m.2,.3l-.3,-.2m.2,.3l-.3,-.1m.2,.3l-.3,-.2m.3,.4l-.4,-.2m.3,.3l-.3,-.1m.2,.3l-.3,-.2m.2,.3l-.3,-.1m.2,.3l-.3,-.2m.3,.4l-.4,-.2m.3,.3l-.3,-.2m.2,.4l-.3,-.2m.2,.3l-.3,-.2m.2,.4l-.3,-.2m.2,.3l-.3,-.2m.2,.4l-.3,-.2m.2,.3l-.3,-.1m.2,.3l-.3,-.2m.2,.3l-.3,-.2m.2,.4l-.3,-.2m.2,.3l-.3,-.2m.2,.4l-.3,-.2m.2,.3l-.3,-.2m.2,.4l-.3,-.2m.2,.3l-.3,-.2m.2,.4l-.3,-.2m.2,.3l-.3,-.2m.2,.4l-.3,-.3m.2,.4l-.3,-.2m.2,.3l-.3,-.2m.2,.4l-.3,-.2m.1,.3l-.2,-.2m.1,.4l-.2,-.3m.1,.4l-.3,-.2m.2,.3l-.3,-.2m.2,.4l-.3,-.3m.1,.4l-.2,-.2m.1,.3l-.2,-.2m.1,.4l-.3,-.3m.2,.4l-.3,-.3m.1,.4l-.2,-.2m.1,.3l-.2,-.2m.1,.4l-.3,-.3m.1,.4l-.2,-.3m.1,.4l-.2,-.3m.1,.4l-.3,-.2m.1,.3l-.2,-.2m.1,.4l-.2,-.3m.1,.4l-.3,-.3m.1,.4l-.2,-.3m.1,.4l-.2,-.3m.1,.4l-.3,-.3m.1,.4l-.2,-.3m.1,.4l-.2,-.2m0,.3l-.2,-.2m.1,.4l-.2,-.3m0,.4l-.2,-.3m.1,.4l-.2,-.3m0,.4l-.2,-.3m.1,.4l-.2,-.3m0,.4l-.2,-.3m.1,.4l-.2,-.3m0,.4l-.2,-.3m.1,.3l-.2,-.3m0,.4l-.2,-.3m.1,.4l-.2,-.3m0,.4l-.2,-.3" class="g7_238"/>
<path d="M688.7,878.4l2.6,-.4l-.9,-.5v-1.1l-1.7,2Z" class="g6_238"/>
<g clip-path="url(#cf_238)">
<image clip-path="url(#c5_238)" preserveAspectRatio="none" x="664" y="868" width="14" height="18" xlink:href="img/8.png"/>
</g>
<g clip-path="url(#c6_238)">
<image clip-path="url(#c6_238)" preserveAspectRatio="none" x="670" y="871" width="21" height="17" xlink:href="img/9.jpg"/>
</g>
<path d="M434.5,747.8c1.8,-1.4,3,-3.2,4.4,-4.9c1.7,-1.7,3,-3.5,4.5,-5.3c3.1,-3.7,7.4,-6.4,12.1,-8.6c2,-1,4.2,-1.8,6.3,-2.6c2,-.8,4.1,-1.7,6.3,-2.1c1.3,-.2,2,.1,3.3,-.4c1.1,-.5,2.2,-.6,3.3,-.9c2,-.4,3.8,-1.1,5.8,-1.3c1.6,-.3,3.2,-.5,4.9,-.8c4.7,-.9,9.6,-.6,14.4,-.6c1.2,-.1,2.2,.3,3.4,.3c1.2,.1,2.1,0,3.3,.3c.9,.1,1.7,.2,2.6,.4c2,.4,4,1.1,5.9,1.4c2.3,.4,4.4,.7,6.6,1.2c1.9,.4,3.7,1.1,5.6,1.5c.9,.2,1.7,.3,2.6,.7c.6,.2,1.2,.4,1.9,.6c.9,.2,2,1.2,3,.9c-.5,-.5,-1.8,-.8,-2.4,-1.2c-1.1,-.6,-2.1,-1.4,-2.8,-2.3c-.3,-.3,-.4,-.7,-.6,-1c-.2,-.3,-.6,-.4,-.9,-.7c.4,.6,.9,1.2,1.4,1.7c.5,.4,1.1,.7,1.5,1.2c.4,.5,.7,1,1.2,1.4c.8,.7,2.3,2.6,3.6,2.6c-.6,0,-1,0,-1.6,.1c-1.3,.2,-2.6,.2,-3.9,.3c-1.8,.1,-3.7,.3,-5.4,.8c-1.2,.4,-2.1,1.1,-3.2,1.7" class="g8_238"/>
<g clip-path="url(#c7_238)">
<image clip-path="url(#c7_238)" preserveAspectRatio="none" x="131" y="271" width="56" height="213" xlink:href="img/10.jpg"/>
</g>
<path d="M191.3,190.3c-2.8,.7,-5.5,2.1,-8,2.8c-2.8,.8,-4.5,.7,-7.2,2.6c-2.1,1.4,-2.5,2.6,-5.4,3.1c-.8,3.6,-.3,6.2,2.2,9.1c1.5,1.8,6.9,6.5,9.9,6.6c-3.7,4.7,-8.1,9.2,-4.6,14.9c1.4,2.3,6,7.8,9.4,9.1c3.1,1.2,8,0,11.4,.4c.4,2.2,-.6,4.6,.3,6.7c1.5,3.3,6.2,7.1,9.4,9.6c7,5.7,25.1,15.6,34.9,9.1c3.8,6.5,13.2,12.3,22.5,14.8c6.3,1.7,19.3,2.9,25.7,1.1c3.9,-1.1,7.6,-5.6,11.7,-6.1c1.8,-.3,8.4,2.8,10.4,3c9,1.3,20.3,1.3,29.2,-.1c13,-2,19.5,-9.4,23.3,-17.7c3,4.4,19.1,.9,23.4,-.7c8.3,-3.2,17.1,-7.9,20.4,-14.5c2.4,-4.8,-4.7,-9.8,-2.9,-13.6c.9,-1.8,3.6,-2.8,5,-4.4c7.6,-8.7,4.4,-17.2,-2.5,-25.3C402.5,192.2,393,186.6,379.3,183.7c-3.5,-.8,-6.7,-1.2,-10.4,-1.1c-2.1,.1,-3,.9,-5,.6c10.3,-9.5,-26,-17.8,-32.5,-18.6c-16.3,-2,-35.3,.1,-50.5,4.1c-7.3,1.9,-14.3,4.7,-21.3,6.7c1.3,-10.2,-25.6,-7,-32.7,-5.5c-8.4,1.8,-19.1,5.6,-24.2,10.8c-3.2,3.2,-7.5,5.3,-10.2,8.7Z" class="g0_238"/>
<path d="M191.3,190.3c-2.9,.7,-5.5,2.1,-8.1,2.8c-2.7,.8,-4.4,.7,-7.1,2.5c-2.1,1.5,-2.5,2.7,-5.4,3.2c-.8,3.5,-.3,6.2,2.2,9.1c1.5,1.7,6.9,6.5,9.9,6.6c-3.7,4.7,-8.1,9.2,-4.6,14.9c1.4,2.3,6,7.8,9.4,9.1c3.1,1.2,8,0,11.4,.4c.4,2.2,-.6,4.6,.3,6.7c1.5,3.3,6.2,7.1,9.4,9.6c7,5.7,25.1,15.6,34.9,9.1c3.8,6.5,13.2,12.2,22.5,14.8c6.3,1.7,19.3,2.9,25.6,1.1c4,-1.1,7.7,-5.6,11.8,-6.1c1.8,-.3,8.4,2.8,10.4,3c9,1.3,20.3,1.2,29.2,-.1c13,-2,19.5,-9.4,23.3,-17.7c3,4.4,19.1,.9,23.3,-.7c8.4,-3.2,17.2,-7.9,20.5,-14.5c2.4,-4.8,-4.7,-9.8,-2.9,-13.6c.9,-1.8,3.6,-2.8,5,-4.4c7.6,-8.7,4.4,-17.2,-2.5,-25.3C402.5,192.2,393,186.6,379.3,183.7c-3.5,-.8,-6.7,-1.2,-10.4,-1.1c-2.1,.1,-3,.9,-5,.6c10.3,-9.5,-26,-17.9,-32.5,-18.6c-16.3,-2,-35.3,.1,-50.5,4.1c-7.3,1.9,-14.3,4.7,-21.3,6.7c1.3,-10.2,-25.6,-7,-32.7,-5.5c-8.4,1.8,-19.1,5.6,-24.2,10.8c-3.2,3.2,-7.5,5.3,-10.2,8.7" class="g9_238"/>
<path d="M186.9,250.5c0,-.3,-.1,-.6,-.1,-1c-6.2,-2,-4.2,13.8,3.2,8.5c7.4,-5.2,-3.6,-10.8,-5.3,-6.4Z" class="g0_238"/>
<path d="M186.9,250.5c0,-.3,-.1,-.7,-.1,-1c-6.2,-2,-4.2,13.8,3.2,8.5c7.4,-5.2,-3.6,-10.8,-5.3,-6.4" class="ga_238"/>
<path d="M180.1,260.5c-3.2,.7,-2.8,4,-2.3,6.4c1.5,.7,3,1.1,4.5,1.1c.6,-2.7,.8,-7,-3.5,-6.4Z" class="g0_238"/>
<path d="M180.1,260.5c-3.2,.7,-2.8,4,-2.3,6.4c1.5,.7,3,1.1,4.5,1.1c.6,-2.7,.8,-7,-3.5,-6.4" class="gb_238"/>
<g clip-path="url(#cg_238)">
<path d="M-4.5,13.7H-27.4m939.5,0H935M-4.5,1031.2H-27.4m939.5,0H935M13.7,-4.5V-27.4m0,1077v22.9m880,-1077V-27.4m0,1077v22.9" class="gc_238"/>
<path d="M-4.5,13.7H-27.4m939.5,0H935M-4.5,1031.2H-27.4m939.5,0H935M13.7,-4.5V-27.4m0,1077v22.9m880,-1077V-27.4m0,1077v22.9" class="gd_238"/>
</g>
</svg>