<?xml version="1.0" encoding="UTF-8" standalone="no"?>
<!DOCTYPE svg PUBLIC "-//W3C//DTD SVG 1.1//EN"
"http://www.w3.org/Graphics/SVG/1.1/DTD/svg11.dtd">
<svg viewBox="0 0 907 1045" version="1.1" xmlns="http://www.w3.org/2000/svg" xmlns:xlink="http://www.w3.org/1999/xlink">
<defs>
<clipPath id="c0_78"><path d="M146.2,904.8V687.1H308.8V904.8Z"/></clipPath>
<clipPath id="c1_78"><path d="M307.4,319.5V299H293.3V273.7H133.6V299H128V268.2H308v51.3Z"/></clipPath>
<clipPath id="c2_78"><path d="M133.6,299V273.7H293.3V299H293V274H133.9v25Z"/></clipPath>
<clipPath id="c3_78"><path d="M127.7,451.5V299h.3v20.5H307.4v132Z"/></clipPath>
<clipPath id="c4_78"><path d="M128,319.5V299h5.6v6.2H293.3V299h14.1v20.5Z"/></clipPath>
<clipPath id="c5_78"><path d="M134.2,304.6V299H292.7v5.6Z"/></clipPath>
<clipPath id="c6_78"><path d="M133.6,305.2V299h.3v5.9H293V299h.3v6.2Z"/></clipPath>
<clipPath id="c7_78"><path d="M133.9,304.9V299h.3v5.6H292.7V299h.3v5.9Z"/></clipPath>
<clipPath id="c8_78"><path d="M407.2,637.4V415.9H756.3V637.4Z"/></clipPath>
<clipPath id="c9_78"><path d="M-2.6,1047.7V-2.6H910.2V1047.7Z"/></clipPath>
<style type="text/css"><![CDATA[
.g0_78{
fill: #FFFFFF;
}
.g1_78{
}
.g2_78{
fill: none;
stroke: #000000;
stroke-width: 0.616;
stroke-linecap: butt;
stroke-linejoin: miter;
stroke-miterlimit: 4;
}
.g3_78{
fill: none;
stroke: #636363;
stroke-width: 1.527;
stroke-linecap: butt;
stroke-linejoin: miter;
stroke-miterlimit: 4;
}
.g4_78{
fill: #DFDFDF;
}
.g5_78{
fill: none;
stroke: #212121;
stroke-width: 1.893;
stroke-linecap: butt;
stroke-linejoin: miter;
stroke-miterlimit: 4;
}
.g6_78{
fill: none;
stroke: #000000;
stroke-width: 0.568;
stroke-linecap: butt;
stroke-linejoin: miter;
stroke-miterlimit: 4;
}
.g7_78{
fill: none;
stroke: #000000;
stroke-width: 1.527;
stroke-linecap: butt;
stroke-linejoin: miter;
stroke-miterlimit: 4;
}
.g8_78{
fill: none;
stroke: #606060;
stroke-width: 1.527;
stroke-linecap: butt;
stroke-linejoin: miter;
stroke-miterlimit: 4;
}
.g9_78{
fill: none;
stroke: #FFFFFF;
stroke-width: 1.909;
stroke-linecap: butt;
stroke-linejoin: miter;
}
.ga_78{
fill: none;
stroke: #000000;
stroke-width: 0.381;
stroke-linecap: butt;
stroke-linejoin: miter;
}
]]></style>
</defs>
<image clip-path="url(#c1_78)" preserveAspectRatio="none" x="128" y="268" width="180" height="52" xlink:href="img/1.jpg"/>
<image clip-path="url(#c2_78)" preserveAspectRatio="none" x="133" y="273" width="161" height="26" xlink:href="img/2.jpg"/>
<path d="M133.9,274v30.9H293V274H133.9Z" class="g0_78"/>
<path d="M133.9,274h-.3v31.2H293.3V273.7H133.6v.3h.3v.3H293V274h-.3v30.9h.3v-.3H133.9v.3h.3V274h-.3v.3V274Z" class="g1_78"/>
<image clip-path="url(#c3_78)" preserveAspectRatio="none" x="127" y="299" width="181" height="153" xlink:href="img/3.jpg"/>
<image clip-path="url(#c4_78)" preserveAspectRatio="none" x="128" y="299" width="180" height="21" xlink:href="img/4.jpg"/>
<image clip-path="url(#c5_78)" preserveAspectRatio="none" x="134" y="299" width="159" height="6" xlink:href="img/5.jpg"/>
<image clip-path="url(#c6_78)" preserveAspectRatio="none" x="133" y="299" width="161" height="7" xlink:href="img/6.jpg"/>
<image clip-path="url(#c7_78)" preserveAspectRatio="none" x="134" y="299" width="159" height="6" xlink:href="img/7.jpg"/>
<path d="M133.9,305.1v132H293.1v-132H133.9Z" class="g0_78"/>
<path d="M133.9,305.1v132H293.1v-132H133.9Z" class="g2_78"/>
<path d="M329.7,312.5c-6,2.5,-8.3,4.4,-12.4,4.8c-2.2,.2,-4.2,1.6,-6.3,2.7c-2.9,1.6,-6.2,2.3,-8.9,4c-4,2.5,-7.9,5.2,-12,7.3c-3.6,2,-7.2,3.9,-10.8,6c-4.5,2.8,-9,5,-13.8,6.9c-1.6,.7,-9.2,4,-10.1,1.1c.9,-.8,1.8,-1.9,2.1,-3.5c-1.4,1.9,-2.9,3.4,-4.3,5.3c.6,3.4,3.5,2.2,4.6,4.7m27.3,27.5c17.2,-.3,28.8,2.4,31.4,15.4c1.7,8.7,-2.9,16.8,-7.9,24.6C301.8,430,295.2,439.9,297,451.9c2.5,16.9,25.3,22.9,47.3,25.9c14.7,2.1,37.4,2,49.6,8.7c.1,-2.3,-.7,-6.5,-3.1,-8.4c-1.8,-1.4,1.4,3.5,.4,1.3c5.4,4.5,8.6,5.8,7.8,12.1c-8.6,1.5,-4.3,.9,-12.4,3.2c2.4,1.3,-3.1,2.3,0,0" class="g3_78"/>
<image clip-path="url(#c8_78)" preserveAspectRatio="none" x="407" y="416" width="350" height="222" xlink:href="img/8.jpg"/>
<path d="M412.1,419.4l-1.4,190.3l318.7,2.4l1.5,-190.3L412.1,419.4Z" class="g4_78"/>
<path d="M412.1,419.4l-1.4,190.3l318.7,2.4l1.5,-190.3L412.1,419.4Z" class="g5_78"/>
<path d="M241.4,313.7c9.2,-1.5,9.6,7.7,7.7,13.6c-1.1,3.5,-8.4,14.4,.2,13.3c-2.2,5.9,-5.2,8.8,-1.3,14.6c3.4,5.3,2.2,8.5,-4.3,9.7" class="g3_78"/>
<g clip-path="url(#c0_78)">
<image clip-path="url(#c0_78)" preserveAspectRatio="none" x="146" y="687" width="163" height="218" xlink:href="img/9.jpg"/>
</g>
<path d="M249.1,751.7c3.5,0,6.3,-2.8,6.3,-6.3c0,-3.6,-2.8,-6.4,-6.3,-6.4c-3.6,0,-6.4,2.8,-6.4,6.4c0,3.5,2.8,6.3,6.4,6.3Zm4.5,-14.4c1.4,.6,4.6,1,5.9,.1c-.4,1.3,-2.5,2.1,-1.8,3.9c.5,1.2,2.9,1.3,4.1,2.5c-1.5,.3,-3.3,-.1,-3,2.1c.1,1.3,2.4,4.4,3.4,5.4c-1.1,.1,-1.9,-.3,-3,-.6c-.7,-.2,-2.1,-.2,-2.8,-.8c.4,1.7,1.5,3.9,1.3,5.5c-1.9,.5,-3.8,-1.1,-5,-2.2c-.3,1.8,-2.1,4.7,-4.1,5c-.7,-1.2,-.7,-2.7,-.9,-4.1c-1.8,1.5,-4.1,2.3,-6.7,1.8c-.1,-1.2,1.3,-3,1.8,-4.1c-2.6,0,-4.5,-2.3,-6.9,-2.5c1.1,-1.6,4.6,-1.1,5.1,-2.7c.3,-.7,-.6,-2,-.9,-2.6c-.8,-1.6,-1.4,-4.6,-2.7,-5.8c1.7,.6,3.6,1.7,5.5,1.5c1.4,-.1,1.1,.1,1.7,-1.4c.5,-1.3,.9,-2.6,1.6,-3.7c1.1,.6,2.3,1.9,3.3,2.8c1.6,-1.1,2.5,-2.6,3.6,-4.1c0,1.1,.4,4.5,1.4,4.9" class="g6_78"/>
<path d="M249.3,804.2v9.7" class="g7_78"/>
<path d="M249.3,819.6l6,-6.4h-12l6,6.4Z" class="g1_78"/>
<path d="M222.3,671.3c0,5.1,.5,10.8,-.2,15.8c-1.1,-1.4,-2.6,-2.3,-4.2,-3.1c2.2,1.3,4.7,1.7,5.6,4.4c.2,-2.8,2.6,-3.4,4.5,-3.8c-1.5,-.1,-2.7,.6,-3.4,1.8" class="g8_78"/>
<g clip-path="url(#c9_78)">
<path d="M-4.5,13.7H-27.4m939.5,0H935M-4.5,1031.2H-27.4m939.5,0H935M13.7,-4.5V-27.4m0,1077v22.9m880,-1077V-27.4m0,1077v22.9" class="g9_78"/>
<path d="M-4.5,13.7H-27.4m939.5,0H935M-4.5,1031.2H-27.4m939.5,0H935M13.7,-4.5V-27.4m0,1077v22.9m880,-1077V-27.4m0,1077v22.9" class="ga_78"/>
</g>
</svg>