<?xml version="1.0" encoding="UTF-8" standalone="no"?>
<!DOCTYPE svg PUBLIC "-//W3C//DTD SVG 1.1//EN"
"http://www.w3.org/Graphics/SVG/1.1/DTD/svg11.dtd">
<svg viewBox="0 0 907 1045" version="1.1" xmlns="http://www.w3.org/2000/svg" xmlns:xlink="http://www.w3.org/1999/xlink">
<defs>
<clipPath id="c0_350"><path d="M114.4,222.5V134.3H269.2v88.2Z"/></clipPath>
<clipPath id="c1_350"><path d="M322.7,631.5V580.4H553.8v51.1Z"/></clipPath>
<clipPath id="c2_350"><path d="M307.3,218.5V171.2H444.6v47.3Z"/></clipPath>
<clipPath id="c3_350"><path d="M113.9,222.5V134.3H269.8v88.2Z"/></clipPath>
<clipPath id="c4_350"><path d="M322.7,631.7V580.4H553.8v51.3Z"/></clipPath>
<clipPath id="c5_350"><path d="M642.3,364.1V303.9h10V285.2h-10V271.3H516.9v13.9h-1.7v18.7h1.7v60.2ZM511.4,378.7V265.8H656.6V378.7H610.8l-4.6,-3.8l-.5,.5l3.9,3.3H546l3.8,-3.3l-.5,-.5l-4.5,3.8Z"/></clipPath>
<clipPath id="c6_350"><path d="M516.9,364.1V303.9h.2V364H642.2V303.9h.1v60.2Zm0,-78.9V271.3H642.3v13.9h-.1V271.5H517.1v13.7Z"/></clipPath>
<clipPath id="c7_350"><path d="M544.8,378.7l4.5,-3.8l.5,.5l-3.8,3.3Z"/></clipPath>
<clipPath id="c8_350"><path d="M609.6,378.7l-3.9,-3.3l.5,-.5l4.6,3.8Z"/></clipPath>
<clipPath id="c9_350"><path d="M515.2,303.9V285.2h1.7v18.7Zm127.1,0V285.2h10v18.7Z"/></clipPath>
<clipPath id="ca_350"><path d="M565.4,302.4v-7.1H521.6v7.1Zm-48.1,1.5V285.2h32.5v.5h60.1v-.5H642v18.7Z"/></clipPath>
<clipPath id="cb_350"><path d="M516.9,303.9V285.2h.2v18.7Zm125.3,0V285.2h.1v18.7Z"/></clipPath>
<clipPath id="cc_350"><path d="M517.1,303.9V285.2h.2v18.7Zm124.9,0V285.2h.2v18.7Z"/></clipPath>
<clipPath id="cd_350"><path d="M521.6,302.4v-7.1h43.8v7.1Z"/></clipPath>
<clipPath id="ce_350"><path d="M535,300.4c0,0,.3,0,.5,-.2c0,0,.3,-.1,.4,-.4c0,0,.1,-.2,.1,-.7v-.2c0,0,-.3,.1,-.9,.2c0,0,-.3,.1,-.5,.1c0,0,-.1,.1,-.2,.3c0,0,-.1,.1,-.1,.3c0,0,0,.3,.2,.4c0,0,.2,.2,.5,.2Zm-5.7,-1.9c0,0,-.1,-.5,-.2,-.8c0,0,-.3,-.3,-.7,-.3c0,0,-.4,0,-.6,.3c0,0,-.3,.3,-.3,.8Zm12.3,0c0,0,0,-.5,-.2,-.8c0,0,-.3,-.3,-.7,-.3c0,0,-.3,0,-.6,.3c0,0,-.2,.3,-.3,.8Zm7.9,0c0,0,0,-.5,-.2,-.8c0,0,-.3,-.3,-.7,-.3c0,0,-.3,0,-.6,.3c0,0,-.3,.3,-.3,.8Zm11.3,0c0,0,0,-.5,-.2,-.8c0,0,-.2,-.3,-.6,-.3c0,0,-.4,0,-.7,.3c0,0,-.2,.3,-.3,.8Zm-37.9,1.9c0,0,.4,0,.7,-.4c0,0,.2,-.4,.2,-1.2c0,0,0,-.7,-.2,-1.1c0,0,-.3,-.4,-.7,-.4c0,0,-.3,0,-.6,.4c0,0,-.2,.4,-.2,1.2c0,0,0,.7,.2,1.1c0,0,.3,.4,.6,.4Zm9,0c0,0,.3,0,.6,-.4c0,0,.2,-.4,.2,-1.2c0,0,0,-.7,-.2,-1.1c0,0,-.3,-.4,-.6,-.4c0,0,-.4,0,-.6,.4c0,0,-.3,.4,-.3,1.2c0,0,0,.7,.3,1.1c0,0,.2,.4,.6,.4Zm24.7,0c0,0,.3,0,.6,-.4c0,0,.2,-.4,.2,-1.2c0,0,0,-.7,-.2,-1.1c0,0,-.3,-.4,-.6,-.4c0,0,-.4,0,-.6,.4c0,0,-.3,.4,-.3,1.2c0,0,0,.7,.3,1.1c0,0,.2,.4,.6,.4Zm-2.8,.4v-3.9h.6v3.9Zm-32.2,1.5v-5.4h.5v.5c0,0,.2,-.3,.4,-.4c0,0,.2,-.2,.5,-.2c0,0,.4,0,.7,.3c0,0,.3,.2,.5,.6c0,0,.2,.5,.2,1.1c0,0,0,1,-.5,1.6c0,0,-.4,.5,-.9,.5c0,0,-.3,0,-.5,-.1c0,0,-.2,-.1,-.4,-.4v1.9Zm3.4,-1.5v-3.9h.5v.6c0,0,.2,-.4,.4,-.5c0,0,.1,-.2,.3,-.2c0,0,.3,0,.6,.2l-.2,.7c0,0,-.2,-.2,-.4,-.2c0,0,-.2,0,-.3,.1c0,0,-.2,.2,-.2,.4c0,0,-.1,.3,-.1,.8v2Zm3.4,.1c0,0,-.7,0,-1.1,-.5c0,0,-.4,-.5,-.4,-1.5c0,0,0,-1,.4,-1.5c0,0,.4,-.6,1.1,-.6c0,0,.6,0,1,.5c0,0,.4,.6,.4,1.6v.1h-2.4c0,0,.1,.7,.4,1c0,0,.2,.4,.6,.4c0,0,.6,0,.9,-.8h.5c0,0,-.1,.7,-.5,1c0,0,-.3,.3,-.9,.3Zm2.1,1.4v-5.4h.5v.5c0,0,.2,-.3,.4,-.4c0,0,.2,-.2,.5,-.2c0,0,.4,0,.7,.3c0,0,.3,.2,.5,.6c0,0,.2,.5,.2,1.1c0,0,0,1,-.4,1.6c0,0,-.4,.5,-1,.5c0,0,-.3,0,-.5,-.1c0,0,-.2,-.1,-.4,-.4v1.9Zm4.4,-1.4c0,0,-.6,0,-.8,-.3c0,0,-.3,-.3,-.3,-.8c0,0,0,-.3,.1,-.6c0,0,.1,-.3,.4,-.4c0,0,.2,-.2,.7,-.2c0,0,.7,-.1,1,-.3v-.1c0,0,0,-.4,-.2,-.6c0,0,-.2,-.2,-.6,-.2c0,0,-.4,0,-.5,.1c0,0,-.2,.2,-.3,.6l-.6,-.1c0,0,.2,-.6,.5,-.9c0,0,.4,-.3,1,-.3c0,0,.5,0,.8,.2c0,0,.3,.2,.4,.5c0,0,0,.3,0,.8v.9c0,0,0,.9,.1,1.1c0,0,0,.3,.1,.5h-.6c0,0,0,-.2,-.1,-.5c0,0,-.2,.3,-.5,.5c0,0,-.3,.1,-.6,.1Zm2.5,-.1v-3.9h.5v.6c0,0,.1,-.4,.3,-.5c0,0,.2,-.2,.4,-.2c0,0,.2,0,.5,.2l-.2,.7c0,0,-.2,-.2,-.4,-.2c0,0,-.1,0,-.3,.1c0,0,-.1,.2,-.2,.4c0,0,-.1,.3,-.1,.8v2Zm3.4,.1c0,0,-.7,0,-1.1,-.5c0,0,-.5,-.5,-.5,-1.5c0,0,0,-1,.5,-1.5c0,0,.4,-.6,1,-.6c0,0,.7,0,1.1,.5c0,0,.4,.6,.4,1.6v.1h-2.4c0,0,0,.7,.3,1c0,0,.3,.4,.7,.4c0,0,.6,0,.8,-.8h.6c0,0,-.2,.7,-.5,1c0,0,-.4,.3,-.9,.3Zm7.9,0c0,0,-.7,0,-1.1,-.5c0,0,-.5,-.5,-.5,-1.5c0,0,0,-1,.5,-1.5c0,0,.4,-.6,1,-.6c0,0,.7,0,1.1,.5c0,0,.4,.6,.4,1.6v.1h-2.4c0,0,0,.7,.3,1c0,0,.3,.4,.7,.4c0,0,.6,0,.8,-.8h.6c0,0,-.2,.7,-.5,1c0,0,-.4,.3,-.9,.3Zm3.3,0c0,0,-.6,0,-1,-.5c0,0,-.4,-.5,-.4,-1.5c0,0,0,-1.1,.4,-1.6c0,0,.4,-.5,1.1,-.5c0,0,.5,0,.8,.3c0,0,.3,.3,.4,1l-.5,.1c0,0,-.1,-.4,-.3,-.6c0,0,-.2,-.2,-.4,-.2c0,0,-.4,0,-.7,.3c0,0,-.3,.4,-.3,1.2c0,0,0,.8,.3,1.1c0,0,.3,.4,.6,.4c0,0,.4,0,.6,-.3c0,0,.2,-.2,.2,-.7l.6,.1c0,0,-.1,.7,-.5,1c0,0,-.3,.4,-.9,.4Zm3.2,1.4v-5.4h.5v.5c0,0,.2,-.3,.4,-.4c0,0,.2,-.2,.5,-.2c0,0,.4,0,.7,.3c0,0,.3,.2,.5,.6c0,0,.2,.5,.2,1.1c0,0,0,1,-.4,1.6c0,0,-.4,.5,-1,.5c0,0,-.3,0,-.5,-.1c0,0,-.2,-.1,-.4,-.4v1.9Zm4.8,-1.4c0,0,-.7,0,-1.1,-.5c0,0,-.4,-.5,-.4,-1.5c0,0,0,-1,.4,-1.5c0,0,.4,-.6,1.1,-.6c0,0,.6,0,1,.5c0,0,.4,.6,.4,1.6v.1H559c0,0,0,.7,.3,1c0,0,.3,.4,.7,.4c0,0,.6,0,.8,-.8h.6c0,0,-.2,.7,-.5,1c0,0,-.4,.3,-.9,.3Zm-15.2,-3.1c0,0,.4,0,.6,-.1c0,0,.2,-.1,.3,-.3c0,0,.2,-.2,.2,-.5c0,0,0,-.4,-.3,-.6c0,0,-.2,-.3,-.7,-.3h-1.4v1.8Zm-1.9,3v-5.4h2c0,0,.6,0,.9,.2c0,0,.3,.1,.5,.5c0,0,.2,.3,.2,.8c0,0,0,.6,-.4,1c0,0,-.3,.4,-.9,.5c0,0,.3,.1,.4,.3c0,0,.3,.3,.5,.6l.7,1.5h-.7l-.6,-1.1c0,0,-.3,-.7,-.5,-.9c0,0,-.2,-.2,-.3,-.3c0,0,-.2,-.1,-.5,-.1h-.7v2.4Zm10.9,-4.6v-.8h.6v.8Zm9.3,6.2c0,0,-.4,-.6,-.7,-1.6c0,0,-.4,-.9,-.4,-1.9c0,0,0,-1.8,1.1,-3.6h.4c0,0,-.4,.9,-.6,1.4c0,0,-.1,.5,-.2,1c0,0,-.1,.6,-.1,1.2c0,0,0,1.7,.9,3.5Zm.9,0c0,0,.9,-1.8,.9,-3.5c0,0,0,-.6,-.1,-1.2c0,0,-.1,-.5,-.3,-1c0,0,-.1,-.5,-.5,-1.4h.3c0,0,1.1,1.8,1.1,3.6c0,0,0,1,-.3,1.9c0,0,-.3,.9,-.8,1.6Z"/></clipPath>
<clipPath id="cf_350"><path d="M549.8,285.7v-.5h60.1v.5Z"/></clipPath>
<clipPath id="cg_350"><path d="M556,283.1c0,0,.2,0,.4,-.1c0,0,.2,-.2,.4,-.4c0,0,.1,-.2,.2,-.7v-.1c0,0,-.1,0,-.2,0c0,0,-.8,.1,-1,.3c0,0,-.2,.2,-.2,.5c0,0,0,.2,.1,.3c0,0,.1,.2,.3,.2Zm43.3,0c0,0,.2,0,.4,-.1c0,0,.2,-.2,.3,-.4c0,0,.1,-.2,.2,-.7v-.1c0,0,-.1,0,-.2,0c0,0,-.7,.1,-1,.3c0,0,-.2,.2,-.2,.5c0,0,0,.2,.1,.3c0,0,.2,.2,.4,.2ZM580,282.9c0,0,.6,0,.9,-.1c0,0,.2,-.1,.3,-.3c0,0,.2,-.2,.2,-.5c0,0,0,-.4,-.2,-.6c0,0,-.2,-.2,-.6,-.2h-1.3l-.3,1.7Zm-13.8,-1.7v-.1c0,0,0,-.5,-.2,-.7c0,0,-.2,-.3,-.5,-.3c0,0,-.3,0,-.6,.3c0,0,-.2,.3,-.3,.8Zm10.4,0v-.1c0,0,0,-.5,-.2,-.7c0,0,-.2,-.3,-.5,-.3c0,0,-.3,0,-.6,.3c0,0,-.2,.3,-.3,.8Zm9.2,0v-.1c0,0,0,-.5,-.2,-.7c0,0,-.2,-.3,-.5,-.3c0,0,-.3,0,-.6,.3c0,0,-.2,.3,-.3,.8Zm8,0v-.1c0,0,0,-.5,-.2,-.7c0,0,-.2,-.3,-.5,-.3c0,0,-.3,0,-.6,.3c0,0,-.2,.3,-.3,.8Zm9.8,1.8c0,0,.2,0,.5,-.2c0,0,.2,-.2,.4,-.6c0,0,.1,-.5,.1,-1c0,0,0,-.5,-.2,-.8c0,0,-.2,-.3,-.5,-.3c0,0,-.2,0,-.4,.2c0,0,-.2,.2,-.4,.7c0,0,-.1,.5,-.1,.9c0,0,0,.6,.2,.9c0,0,.1,.2,.4,.2Zm5.4,-1.8v-.1c0,0,0,-.5,-.2,-.7c0,0,-.2,-.3,-.5,-.3c0,0,-.3,0,-.5,.3c0,0,-.3,.3,-.4,.8Zm-41.6,2.7l.8,-4.6h1l-.8,4.6Zm20.6,0l-.7,-4.6h.9l.3,2c0,0,.1,.8,.1,1.1l.3,-.5l.2,-.6l1,-2h1.1l-2.3,4.6Zm-32.3,.1c0,0,-.5,0,-.8,-.4c0,0,-.3,-.3,-.3,-.9c0,0,0,-.7,.4,-1.1c0,0,.3,-.4,1.2,-.4c0,0,.7,-.1,1,-.2c0,0,.1,-.3,.1,-.4c0,0,0,-.2,-.2,-.4c0,0,-.1,-.1,-.4,-.1c0,0,-.6,0,-.7,.5l-1,-.1c0,0,.2,-.6,.6,-.9c0,0,.5,-.4,1.2,-.4c0,0,.7,0,1,.4c0,0,.4,.3,.4,.9c0,0,0,.2,0,.4c0,0,0,.2,-.3,1.2c0,0,-.1,.8,-.1,1.2c0,0,0,.2,.1,.6h-1c0,0,-.1,-.3,-.1,-.5c0,0,-.2,.3,-.5,.4c0,0,-.3,.2,-.6,.2Zm9.5,0c0,0,-.7,0,-1.2,-.6c0,0,-.5,-.5,-.5,-1.5c0,0,0,-1.1,.6,-1.9c0,0,.5,-.8,1.5,-.8c0,0,.7,0,1.1,.5c0,0,.4,.5,.4,1.5c0,0,0,.5,-.1,.8h-2.5v.1c0,0,0,.5,.2,.7c0,0,.2,.3,.5,.3c0,0,.5,0,.8,-.6l.9,.2c0,0,-.3,.6,-.7,1c0,0,-.5,.3,-1,.3Zm4.2,-.1l.8,-4.6h.9l-.1,.6c0,0,.4,-.4,.7,-.5c0,0,.3,-.2,.7,-.2c0,0,.4,0,.7,.4c0,0,.2,.3,.2,.8c0,0,0,.2,-.1,.9l-.4,2.6h-1l.4,-2.6c0,0,.1,-.6,.1,-.7c0,0,0,-.2,-.1,-.4c0,0,-.1,-.1,-.3,-.1c0,0,-.2,0,-.4,.2c0,0,-.3,.2,-.5,.5c0,0,-.1,.4,-.3,1.2l-.3,1.9Zm6.2,.1c0,0,-.7,0,-1.2,-.6c0,0,-.5,-.5,-.5,-1.5c0,0,0,-1.1,.6,-1.9c0,0,.5,-.8,1.5,-.8c0,0,.7,0,1.1,.5c0,0,.4,.5,.4,1.5c0,0,0,.5,-.1,.8h-2.5v.1c0,0,0,.5,.2,.7c0,0,.2,.3,.5,.3c0,0,.5,0,.8,-.6l.9,.2c0,0,-.3,.6,-.7,1c0,0,-.4,.3,-1,.3Zm9.2,0c0,0,-.7,0,-1.2,-.6c0,0,-.5,-.5,-.5,-1.5c0,0,0,-1.1,.6,-1.9c0,0,.5,-.8,1.5,-.8c0,0,.7,0,1.1,.5c0,0,.4,.5,.4,1.5c0,0,0,.5,-.1,.8h-2.5v.1c0,0,0,.5,.2,.7c0,0,.2,.3,.5,.3c0,0,.5,0,.8,-.6l.9,.2c0,0,-.3,.6,-.7,1c0,0,-.4,.3,-1,.3Zm8,0c0,0,-.7,0,-1.2,-.6c0,0,-.5,-.5,-.5,-1.5c0,0,0,-1.1,.6,-1.9c0,0,.5,-.8,1.5,-.8c0,0,.7,0,1.1,.5c0,0,.4,.5,.4,1.5c0,0,0,.5,-.1,.8h-2.5v.1c0,0,0,.5,.2,.7c0,0,.2,.3,.5,.3c0,0,.5,0,.8,-.6l.9,.2c0,0,-.2,.6,-.7,1c0,0,-.4,.3,-1,.3Zm2.2,-.1l.7,-4.6h1l-.2,.9c0,0,.5,-1,1.2,-1c0,0,.2,0,.4,.2l-.4,1c0,0,-.1,-.1,-.2,-.1c0,0,-.3,0,-.5,.2c0,0,-.3,.2,-.5,.6c0,0,-.1,.4,-.3,1.4l-.2,1.4Zm3.9,.1c0,0,-.4,0,-.7,-.4c0,0,-.4,-.3,-.4,-.9c0,0,0,-.7,.4,-1.1c0,0,.4,-.4,1.2,-.4c0,0,.8,-.1,1,-.2c0,0,.1,-.3,.1,-.4c0,0,0,-.2,-.2,-.4c0,0,-.1,-.1,-.4,-.1c0,0,-.5,0,-.7,.5l-.9,-.1c0,0,.1,-.6,.6,-.9c0,0,.4,-.4,1.1,-.4c0,0,.7,0,1.1,.4c0,0,.4,.3,.4,.9c0,0,0,.2,-.1,.4c0,0,0,.2,-.2,1.2c0,0,-.2,.8,-.2,1.2c0,0,0,.2,.1,.6h-1c0,0,-.1,-.3,-.1,-.5c0,0,-.2,.3,-.5,.4c0,0,-.3,.2,-.6,.2Zm4.5,1.7c0,0,-.8,0,-1.2,-.2c0,0,-.4,-.4,-.4,-1.2v-.2l1,.2c0,0,0,.3,.2,.4c0,0,.1,.2,.4,.2c0,0,.2,0,.4,-.1c0,0,.2,-.1,.3,-.4c0,0,.1,-.2,.2,-.8v-.2c0,0,-.5,.5,-1.1,.5c0,0,-.5,0,-.9,-.4c0,0,-.3,-.5,-.3,-1.4c0,0,0,-.9,.2,-1.6c0,0,.3,-.6,.7,-.9c0,0,.4,-.4,.8,-.4c0,0,.4,0,.7,.3c0,0,.3,.2,.5,.7l.1,-.9h1l-.7,3.8c0,0,-.1,1.1,-.3,1.6c0,0,-.2,.5,-.6,.8c0,0,-.4,.2,-1,.2ZM608,284c0,0,-.7,0,-1.2,-.6c0,0,-.5,-.5,-.5,-1.5c0,0,0,-1.1,.6,-1.9c0,0,.5,-.8,1.5,-.8c0,0,.7,0,1.1,.5c0,0,.4,.5,.4,1.5c0,0,0,.5,0,.8h-2.6v.1c0,0,0,.5,.2,.7c0,0,.2,.3,.5,.3c0,0,.5,0,.8,-.6l.9,.2c0,0,-.2,.6,-.7,1c0,0,-.4,.3,-1,.3Zm-27.7,-3.9c0,0,.5,0,.8,0c0,0,.2,-.1,.3,-.3c0,0,.2,-.2,.2,-.5c0,0,0,-.2,-.1,-.4c0,0,-.1,-.1,-.3,-.2c0,0,-.1,0,-.6,0h-.9l-.2,1.4Zm-12,-1.4l.2,-1.1h1l-.2,1.1Zm9.5,5.2l1.1,-6.3h1.7c0,0,.7,0,1,.1c0,0,.5,.1,.8,.5c0,0,.2,.4,.2,.9c0,0,0,.6,-.2,1c0,0,-.3,.3,-.8,.5c0,0,.4,.2,.7,.5c0,0,.2,.3,.2,.8c0,0,0,.6,-.3,1.1c0,0,-.3,.5,-.7,.7c0,0,-.5,.2,-1.3,.2Zm-26,.1c0,0,-.9,0,-1.5,-.7c0,0,-.5,-.7,-.5,-2c0,0,0,-1.2,.4,-2c0,0,.4,-.9,1,-1.4c0,0,.6,-.4,1.3,-.4c0,0,.8,0,1.3,.5c0,0,.6,.6,.7,1.5l-1.1,.2c0,0,0,-.6,-.3,-.8c0,0,-.2,-.3,-.6,-.3c0,0,-.4,0,-.8,.3c0,0,-.4,.3,-.6,1c0,0,-.3,.6,-.3,1.5c0,0,0,.7,.3,1.1c0,0,.3,.4,.7,.4c0,0,.5,0,.8,-.3c0,0,.4,-.3,.5,-1l1.1,.2c0,0,-.3,1.1,-1,1.7c0,0,-.6,.5,-1.4,.5Zm6.9,-.1l.6,-3.7h-.6l.2,-.9h.6v-.4c0,0,.1,-.7,.3,-.9c0,0,.1,-.2,.3,-.4c0,0,.3,-.1,.6,-.1c0,0,.5,0,1,.2l-.2,.9c0,0,-.4,-.2,-.6,-.2c0,0,-.2,0,-.2,.1c0,0,-.1,.1,-.2,.5v.3h.7l-.2,.9h-.7l-.6,3.7Zm2.4,0l.6,-3.7h-.6l.2,-.9h.6v-.4c0,0,.1,-.7,.3,-.9c0,0,.1,-.2,.3,-.4c0,0,.3,-.1,.6,-.1c0,0,.5,0,1,.2l-.2,.9c0,0,-.4,-.2,-.6,-.2c0,0,-.2,0,-.2,.1c0,0,-.1,.1,-.2,.5l-.1,.3h.8l-.2,.9h-.7l-.6,3.7Z"/></clipPath>
<clipPath id="ch_350"><path d="M423.4,490.8V416h77.4l-6.6,5.5H428.9v12.6h-1.7v18.7h1.7v23.9H554.3V452.8h10V434.1h-10V421.5H495.4l6.5,-5.5h66.7v74.8Z"/></clipPath>
<clipPath id="ci_350"><path d="M494.2,421.5l6.6,-5.5h1.1l-6.5,5.5Z"/></clipPath>
<clipPath id="cj_350"><path d="M428.9,434.1V421.5h65.3l-.2,.2H429.1v12.4Zm125.3,0V421.7h-59l.2,-.2h58.9v12.6Z"/></clipPath>
<clipPath id="ck_350"><path d="M494,421.7l.2,-.2h1.2l-.2,.2Z"/></clipPath>
<clipPath id="cl_350"><path d="M428.9,476.7V452.8h.2v23.7H554.2V452.8h.1v23.9Z"/></clipPath>
<clipPath id="cm_350"><path d="M427.2,452.8V434.1h1.7v18.7Zm127.1,0V434.1h10v18.7Z"/></clipPath>
<clipPath id="cn_350"><path d="M450.6,452.1V445H433.9v7.1Zm-21.4,.7V434.1H554v18.7Z"/></clipPath>
<clipPath id="co_350"><path d="M428.9,452.8V434.1h.2v18.7Zm125.3,0V434.1h.1v18.7Z"/></clipPath>
<clipPath id="cp_350"><path d="M429.1,452.8V434.1h.1v18.7Zm124.9,0V434.1h.2v18.7Z"/></clipPath>
<clipPath id="cq_350"><path d="M433.9,452.1V445h16.7v7.1Z"/></clipPath>
<clipPath id="cr_350"><path d="M435.3,450.1c0,0,.3,0,.6,-.4c0,0,.2,-.4,.2,-1.1c0,0,0,-.8,-.2,-1.2c0,0,-.3,-.3,-.6,-.3c0,0,-.4,0,-.6,.4c0,0,-.3,.3,-.3,1c0,0,0,.7,.1,1c0,0,.1,.3,.3,.4c0,0,.2,.2,.5,.2Zm6.3,-1.9c0,0,-.1,-.5,-.2,-.8c0,0,-.3,-.3,-.7,-.3c0,0,-.4,0,-.6,.3c0,0,-.3,.3,-.3,.8Zm1.8,2.3l-1,-3.9h.6l.5,2.3l.2,.8l.2,-.8l.5,-2.3h.5l.5,2.3l.2,.7l.1,-.7l.6,-2.3h.5l-1,3.9h-.5l-.6,-2.3l-.1,-.7l-.6,3h-.6Zm-6.1,0v-3.9h.5v.6c0,0,.2,-.4,.4,-.5c0,0,.1,-.2,.3,-.2c0,0,.3,0,.6,.2l-.2,.7c0,0,-.2,-.2,-.4,-.2c0,0,-.2,0,-.3,.1c0,0,-.2,.2,-.2,.4c0,0,-.1,.4,-.1,.8v2Zm3.4,.1c0,0,-.7,0,-1.1,-.5c0,0,-.4,-.5,-.4,-1.5c0,0,0,-1,.4,-1.5c0,0,.4,-.6,1.1,-.6c0,0,.6,0,1,.6c0,0,.4,.5,.4,1.5v.1h-2.3c0,0,0,.7,.3,1c0,0,.2,.4,.6,.4c0,0,.6,0,.9,-.8l.5,.1c0,0,-.1,.6,-.5,.9c0,0,-.3,.3,-.9,.3Zm-5.4,0c0,0,-.3,0,-.5,-.1c0,0,-.2,-.2,-.4,-.5v.5h-.5v-5.4h.5v2c0,0,.2,-.3,.4,-.4c0,0,.2,-.2,.5,-.2c0,0,.4,0,.7,.3c0,0,.3,.2,.5,.6c0,0,.2,.5,.2,1.1c0,0,0,1,-.4,1.6c0,0,-.5,.5,-1,.5Zm13,1.5c0,0,-.4,-.6,-.7,-1.6c0,0,-.4,-.9,-.4,-1.9c0,0,0,-1.8,1.1,-3.6h.4c0,0,-.4,.9,-.6,1.4c0,0,-.1,.5,-.2,1c0,0,-.1,.6,-.1,1.2c0,0,0,1.7,.9,3.5Zm.9,0c0,0,.9,-1.8,.9,-3.5c0,0,0,-.6,-.1,-1.2c0,0,-.1,-.5,-.3,-1c0,0,-.1,-.5,-.5,-1.4h.3c0,0,1.1,1.8,1.1,3.6c0,0,0,1,-.3,1.9c0,0,-.3,.9,-.8,1.6Z"/></clipPath>
<clipPath id="cs_350"><path d="M597.7,493V416h56l6.5,5.5h-57v12.6h-1.7v18.7h1.7v25.6H728.6V452.8h10V434.1h-10V421.5H661.4L654.8,416h88.1v77Z"/></clipPath>
<clipPath id="ct_350"><path d="M660.2,421.5L653.7,416h1.1l6.6,5.5Z"/></clipPath>
<clipPath id="cu_350"><path d="M603.2,478.4V452.8h.2v25.5H728.5V452.8h.1v25.6Zm0,-44.3V421.5h57l.2,.2h-57v12.4Zm125.3,0V421.7h-67l-.1,-.2h67.2v12.6Z"/></clipPath>
<clipPath id="cv_350"><path d="M660.4,421.7l-.2,-.2h1.2l.1,.2Z"/></clipPath>
<clipPath id="cw_350"><path d="M601.5,452.8V434.1h1.7v18.7Zm127.1,0V434.1h10v18.7Z"/></clipPath>
<clipPath id="cx_350"><path d="M624.9,452.1V445H608.2v7.1Zm-21.4,.7V434.1H728.3v18.7Z"/></clipPath>
<clipPath id="cy_350"><path d="M603.2,452.8V434.1h.2v18.7Zm125.3,0V434.1h.1v18.7Z"/></clipPath>
<clipPath id="cz_350"><path d="M603.4,452.8V434.1h.1v18.7Zm124.9,0V434.1h.2v18.7Z"/></clipPath>
<clipPath id="c10_350"><path d="M608.2,452.1V445h16.7v7.1Z"/></clipPath>
<clipPath id="c11_350"><path d="M609.6,450.1c0,0,.3,0,.6,-.4c0,0,.2,-.4,.2,-1.1c0,0,0,-.8,-.2,-1.2c0,0,-.3,-.3,-.6,-.3c0,0,-.4,0,-.6,.4c0,0,-.3,.3,-.3,1c0,0,0,.7,.1,1c0,0,.1,.3,.3,.4c0,0,.2,.2,.5,.2Zm6.3,-1.9c0,0,-.1,-.5,-.2,-.8c0,0,-.3,-.3,-.7,-.3c0,0,-.4,0,-.6,.3c0,0,-.3,.3,-.3,.8Zm1.8,2.3l-1,-3.9h.6l.5,2.3l.2,.8l.2,-.8l.5,-2.3h.5l.5,2.3l.2,.7l.2,-.7l.5,-2.3h.5l-1,3.9h-.5l-.5,-2.3l-.2,-.7l-.6,3Zm-6.1,0v-3.9h.5v.6c0,0,.2,-.4,.4,-.5c0,0,.1,-.2,.3,-.2c0,0,.3,0,.6,.2l-.2,.7c0,0,-.2,-.2,-.4,-.2c0,0,-.2,0,-.3,.1c0,0,-.2,.2,-.2,.4c0,0,-.1,.4,-.1,.8v2Zm3.4,.1c0,0,-.7,0,-1.1,-.5c0,0,-.4,-.5,-.4,-1.5c0,0,0,-1,.4,-1.5c0,0,.5,-.6,1.1,-.6c0,0,.6,0,1,.6c0,0,.5,.5,.5,1.5v.1h-2.4c0,0,0,.7,.3,1c0,0,.2,.4,.6,.4c0,0,.6,0,.9,-.8l.5,.1c0,0,-.1,.6,-.5,.9c0,0,-.3,.3,-.9,.3Zm-5.4,0c0,0,-.3,0,-.5,-.1c0,0,-.2,-.2,-.4,-.5v.5h-.5v-5.4h.5v2c0,0,.2,-.3,.4,-.4c0,0,.3,-.2,.5,-.2c0,0,.4,0,.7,.3c0,0,.3,.2,.5,.6c0,0,.2,.5,.2,1.1c0,0,0,1,-.4,1.6c0,0,-.5,.5,-1,.5Zm13,1.5c0,0,-.4,-.6,-.7,-1.5c0,0,-.3,-1,-.3,-2c0,0,0,-1.8,1,-3.6h.4c0,0,-.4,.9,-.6,1.4c0,0,-.1,.5,-.2,1c0,0,-.1,.6,-.1,1.2c0,0,0,1.7,.9,3.5Zm.9,0c0,0,.9,-1.8,.9,-3.5c0,0,0,-.6,-.1,-1.2c0,0,-.1,-.5,-.3,-1c0,0,-.1,-.5,-.5,-1.4h.4c0,0,1,1.8,1,3.6c0,0,0,1,-.3,1.9c0,0,-.3,.9,-.7,1.6Z"/></clipPath>
<clipPath id="c12_350"><path d="M-2.6,1047.7V-2.6H910.2V1047.7Z"/></clipPath>
<style type="text/css"><![CDATA[
.g0_350{
fill: none;
stroke: #101010;
stroke-width: 1.139;
stroke-linecap: butt;
stroke-linejoin: miter;
stroke-miterlimit: 4;
}
.g1_350{
fill: #FFFFFF;
}
.g2_350{
fill: none;
stroke: #3D3D3D;
stroke-width: 1.139;
stroke-linecap: butt;
stroke-linejoin: miter;
stroke-miterlimit: 4;
}
.g3_350{
fill: none;
stroke: #636363;
stroke-width: 1.139;
stroke-linecap: butt;
stroke-linejoin: miter;
stroke-miterlimit: 4;
}
.g4_350{
fill: none;
stroke: #000000;
stroke-width: 1.257;
stroke-linecap: butt;
stroke-linejoin: miter;
stroke-miterlimit: 4;
}
.g5_350{
}
.g6_350{
fill: none;
stroke: #000000;
stroke-width: 0.416;
stroke-linecap: butt;
stroke-linejoin: miter;
stroke-miterlimit: 4;
}
.g7_350{
fill: none;
stroke: #000000;
stroke-width: 0.431;
stroke-linecap: butt;
stroke-linejoin: miter;
stroke-miterlimit: 4;
}
.g8_350{
fill: #B6B6B6;
}
.g9_350{
fill: #333333;
}
.ga_350{
fill: #7C7C7C;
}
.gb_350{
fill: #909090;
}
.gc_350{
fill: #727272;
}
.gd_350{
fill: #C8C8C8;
}
.ge_350{
fill: #ACACAC;
}
.gf_350{
fill: #A8A8A8;
}
.gg_350{
fill: #E5E5E5;
}
.gh_350{
fill: #D2D2D2;
}
.gi_350{
fill: #CFCFCF;
}
.gj_350{
fill: #ECECEC;
}
.gk_350{
fill: #DDDDDD;
}
.gl_350{
fill: #DBDBDB;
}
.gm_350{
fill: #D6D6D6;
}
.gn_350{
fill: #3C3C3C;
}
.go_350{
fill: none;
stroke: #FFFFFF;
stroke-width: 1.909;
stroke-linecap: butt;
stroke-linejoin: miter;
}
.gp_350{
fill: none;
stroke: #000000;
stroke-width: 0.381;
stroke-linecap: butt;
stroke-linejoin: miter;
}
]]></style>
</defs>
<g clip-path="url(#c3_350)">
<image clip-path="url(#c0_350)" preserveAspectRatio="none" x="114" y="100" width="155" height="155" xlink:href="img/1.jpg"/>
</g>
<path d="M197.3,614.9V952.8H677.7V614.9H197.3Z" class="g0_350"/>
<path d="M312.3,583.3v43.4H573.9V583.3H312.3Z" class="g1_350"/>
<g clip-path="url(#c4_350)">
<image clip-path="url(#c1_350)" preserveAspectRatio="none" x="323" y="580" width="231" height="51" xlink:href="img/2.jpg"/>
</g>
<path d="M262.1,723.7H602.7" class="g2_350"/>
<path d="M354.6,771.3c2.1,.9,3.8,2.2,5.2,4c10.8,9,21.2,18.4,31.7,27.8c10.9,9.7,22.2,18.8,33.6,27.8c5.6,4.4,10.8,9.4,16.5,13.6c5.3,3.9,14.4,9.5,21.3,10.2m-126,-17.4c7.5,-4.5,14.9,-9,22.3,-13.8c14.6,-8.9,29.8,-16.2,44.9,-24.3c3.9,-2,7.7,-4.3,11.2,-6.9c3.2,-2.5,5.7,-5.5,9.1,-7.8c4.5,-3.2,8.8,-6.2,12.9,-9.8c1.5,-1.3,3.7,-4.4,5.5,-4.8M369,918.5c5.1,-1.2,10.4,-1.5,15.8,-.7c17.6,-.1,35.2,-.5,52.8,-1.1c13.1,-.3,27.6,.8,40.8,-1.1" class="g3_350"/>
<path d="M310.1,186.3V524.6h501V186.3h-501Z" class="g4_350"/>
<image clip-path="url(#c5_350)" preserveAspectRatio="none" x="511" y="265" width="146" height="114" xlink:href="img/3.jpg"/>
<image clip-path="url(#c6_350)" preserveAspectRatio="none" x="517" y="271" width="126" height="93" xlink:href="img/4.jpg"/>
<image clip-path="url(#c7_350)" preserveAspectRatio="none" x="544" y="375" width="6" height="4" xlink:href="img/5.jpg"/>
<image clip-path="url(#c8_350)" preserveAspectRatio="none" x="605" y="375" width="6" height="4" xlink:href="img/6.jpg"/>
<path d="M517.1,271.5V364H642.2V271.5H517.1Z" class="g1_350"/>
<path d="M517.1,271.5h-.2v92.6H642.3V271.3H516.9v.2h.2v.1H642.2v-.1H642V364h.2v-.1H517.1v.1h.2V271.5h-.2v.1v-.1Z" class="g5_350"/>
<image clip-path="url(#c9_350)" preserveAspectRatio="none" x="515" y="285" width="138" height="19" xlink:href="img/7.jpg"/>
<image clip-path="url(#ca_350)" preserveAspectRatio="none" x="517" y="285" width="125" height="19" xlink:href="img/8.jpg"/>
<image clip-path="url(#cb_350)" preserveAspectRatio="none" x="517" y="285" width="126" height="19" xlink:href="img/9.jpg"/>
<image clip-path="url(#cc_350)" preserveAspectRatio="none" x="517" y="285" width="125" height="19" xlink:href="img/10.jpg"/>
<image clip-path="url(#cd_350)" preserveAspectRatio="none" x="521" y="295" width="45" height="8" xlink:href="img/11.jpg"/>
<image clip-path="url(#ce_350)" preserveAspectRatio="none" x="521" y="295" width="45" height="8" xlink:href="img/12.jpg"/>
<image clip-path="url(#cf_350)" preserveAspectRatio="none" x="549" y="285" width="61" height="1" xlink:href="img/13.jpg"/>
<image clip-path="url(#cg_350)" preserveAspectRatio="none" x="549" y="285" width="61" height="1" xlink:href="img/14.jpg"/>
<path d="M517.1,290.2H641.9" class="g6_350"/>
<path d="M460.9,450.7l88.9,-75.3l-.5,-.5l-88.9,75.2l.5,.6Z" class="g5_350"/>
<path d="M555.2,371l-9.4,-1.7l7.6,10.5l1.8,-8.8Z" class="g1_350"/>
<path d="M555.2,371l-9.4,-1.7l7.6,10.5l1.8,-8.8Z" class="g7_350"/>
<image clip-path="url(#ch_350)" preserveAspectRatio="none" x="423" y="416" width="146" height="75" xlink:href="img/15.jpg"/>
<image clip-path="url(#ci_350)" preserveAspectRatio="none" x="494" y="416" width="8" height="6" xlink:href="img/16.jpg"/>
<image clip-path="url(#cj_350)" preserveAspectRatio="none" x="428" y="421" width="127" height="13" xlink:href="img/17.jpg"/>
<image clip-path="url(#ck_350)" preserveAspectRatio="none" x="494" y="421" width="2" height="1" xlink:href="img/18.jpg"/>
<image clip-path="url(#cl_350)" preserveAspectRatio="none" x="428" y="452" width="127" height="25" xlink:href="img/19.jpg"/>
<path d="M429.1,421.7v54.8H554.2V421.7H429.1Z" class="g1_350"/>
<path d="M429.1,421.7h-.2v55H554.3V421.5H428.9v.2h.2v.1H554.2v-.1H554v54.8h.2v-.1H429.1v.1h.1V421.7h-.1v.1v-.1Z" class="g5_350"/>
<image clip-path="url(#cm_350)" preserveAspectRatio="none" x="427" y="434" width="138" height="19" xlink:href="img/20.jpg"/>
<image clip-path="url(#cn_350)" preserveAspectRatio="none" x="429" y="434" width="125" height="19" xlink:href="img/21.jpg"/>
<image clip-path="url(#co_350)" preserveAspectRatio="none" x="429" y="434" width="126" height="19" xlink:href="img/22.jpg"/>
<image clip-path="url(#cp_350)" preserveAspectRatio="none" x="429" y="434" width="125" height="19" xlink:href="img/23.jpg"/>
<image clip-path="url(#cq_350)" preserveAspectRatio="none" x="433" y="445" width="18" height="7" xlink:href="img/24.jpg"/>
<image clip-path="url(#cr_350)" preserveAspectRatio="none" x="433" y="445" width="18" height="7" xlink:href="img/25.jpg"/>
<path d="M429.1,439.1H553.8" class="g6_350"/>
<path d="M344.3,198.7v49.2H537.2V198.7H344.3Z" class="g1_350"/>
<path d="M309.5,175.1v49.2H466.9V175.1H309.5Z" class="g1_350"/>
<path d="M306.1,169.3v36.9H449.8V169.3H306.1Z" class="g1_350"/>
<path d="M307.3,171.2v56.6H449.7V171.2H307.3Z" class="g1_350"/>
<g clip-path="url(#c2_350)">
<path d="M350.8,215.4l-.9,-.2l.3,.7l7.6,1l-5.4,-4.6l-.6,.4l-.4,.4l-.2,.5l-.3,.5l-.1,.9v.4Z" class="g5_350"/>
<path d="M340.1,204.1v0l.9,1.2l.7,1l.3,.7l.4,.8l.1,.7l.1,.8l.1,.7l-.3,.7l-.4,.6l-.6,.7l-.9,.4l-1.1,.5l10.5,2.3l-.3,-1l-.1,-.9l.2,-.8l.2,-.6l.3,-.4l.2,-.3l.4,-.2l1.6,1.3l-3.6,-3.7L346,205.5l-1,-1.4l-.7,-1.1l-.2,.3l-.1,.3l-.3,.3l-.5,.3l-.7,.2h-1.1l-1.3,-.3Z" class="g8_350"/>
<path d="M349.9,215.2l.9,.2V215l.1,-.9l.3,-.5l.2,-.5l.4,-.4l.6,-.4L350.8,211l-.4,.2l-.2,.3l-.3,.4l-.2,.6l-.2,.8l.1,.9l.3,1Z" class="g9_350"/>
<path d="M317.4,194.6v0l1.8,1.2l2,1.1l3.9,2.6l3.8,2.8l3.5,2.8l3.1,2.5l2.3,2l2.1,1.9l-.3,.4l.7,-.7l.6,-.6l.3,-.8V209l-.1,-.8l-.2,-.8l-.2,-.7l-.4,-.8l-.9,-1.4l-.7,-1.1l-1,-1l.9,.4l1.1,.3l1.1,.2h1l1.8,-.2l.7,-.1l-1.4,-.4l-1.4,-.6l-3.2,-1.5l-3.2,-1.7l-3.4,-2l-3.1,-2l-2.9,-1.9l-4.2,-3.1l-1.2,.4l-.9,.6l-.7,.6l-.6,.5l-.4,.7l-.2,.7l-.1,.7v.6Z" class="ga_350"/>
<path d="M339.3,212.9v0h.1h-.1Z" class="ga_350"/>
<path d="M339.6,211.9v0l-.3,1h.1l1.1,-.5l.9,-.4l.6,-.7l.4,-.6l.3,-.7l-.1,-.7l-.1,-.8l-.1,-.7L342,207l-.3,-.7l-.7,-1l-.9,-1.2l1.3,.3h1.1l.7,-.2l.5,-.3l.3,-.3l.1,-.3l.2,-.3l-.7,.1l-1.8,.2h-1l-1.1,-.2l-1.1,-.3l-.9,-.4l1,1l.7,1.1l.9,1.4l.4,.8l.2,.7l.2,.8l.1,.8v.8l-.3,.8l-.6,.6l-.7,.7Z" class="gb_350"/>
<path d="M308.9,186.8v0l-.3,.7l-.1,.6v1.1l.3,.9l.4,.7l.5,.6l.5,.4l.5,.4l1.2,.2l-.1,-.9v-.8l.2,-.6l.2,-.7l.2,-.6l.4,-.5l.8,-.8l.8,-.7l.8,-.3l.6,-.3l.6,-.2l-.8,-.8l-.6,-.3l-.7,-.3l-.7,-.4h-.9l-.9,.1l-1,.3l-.7,.4l-.5,.5l-.4,.6l-.3,.7Z" class="gc_350"/>
<path d="M313.6,192.9v0l1.8,.8v-1.4l.2,-.6l.4,-.8l.6,-.6l.8,-.6l1.2,-.6l1.4,-.3l1.5,1l.5,-.1l-.4,-.5l-1,-1.1l-.8,-.5l-.9,-.7l-1.1,-.5l-1.2,-.4h-.2l.4,.8l-.7,.2l-.5,.3l-.6,.2l-.3,.4l-.4,.4l-.3,.4l-.4,.9l-.1,1l-.1,.9v.7l.2,.7Z" class="gd_350"/>
<path d="M315.4,193.7v0l2,.9V194l.1,-.7l.2,-.7l.4,-.7l.6,-.5l.7,-.6l.9,-.6l1.2,-.4l-1.5,-1l-1.4,.3l-1.2,.6l-.8,.6l-.6,.6l-.4,.8l-.2,.6v1.4Z" class="ge_350"/>
<path d="M311.9,192.4v0l1.7,.5l-.2,-.7v-.7l.1,-.9l.1,-1l.4,-.9l.3,-.4l.4,-.4l.3,-.4l.6,-.2l.5,-.3l.7,-.2l-.4,-.8l-.6,.2l-.6,.3l-.8,.3l-.8,.7l-.8,.8l-.4,.5l-.2,.6l-.2,.7l-.2,.6v.8l.1,.9Z" class="gf_350"/>
<path d="M338.2,212.7l.1,-.1l-.1,.1Z" class="gg_350"/>
<path d="M338.3,212.6v0l.4,.4l.6,-.1l-1,-.3Z" class="gh_350"/>
<path d="M317.6,196.2v0l1.6,.9l1.6,.9l3.3,2.2l3.3,2.5l2.9,2.5l2.7,2.5l2.4,2l2.9,2.9l.7,-.3l.6,-.4l.3,-.4l-2.1,-1.9l-2.3,-2l-3.1,-2.5l-3.5,-2.8l-3.8,-2.8l-3.9,-2.6l-2,-1.1l-1.8,-1.2l.1,.9l.1,.7Z" class="gb_350"/>
<path d="M338.3,212.6l1,.3l.3,-1l-.6,.4l-.7,.3Z" class="gb_350"/>
<path d="M309,185.7v0l-.9,2.1l-.6,2.2l.2,.7l.4,.6l.5,.5l.5,.5l.6,.5l.7,.5l.8,.1l.9,.3l-.2,-1.3l-1.2,-.2l-.5,-.4l-.5,-.4l-.5,-.6l-.4,-.7l-.3,-.9v-1.1l.1,-.6l.3,-.7l.3,-.7l.4,-.6l.5,-.5l.7,-.4l-1.1,.5l-.7,.6Z" class="gi_350"/>
<path d="M318.5,198.1v0l-.4,-.5l-.3,-.7l-.2,-.7l-1.8,-.9l-.2,-.5l-.1,-.4l-.1,-.7l-1.8,-.8l.2,.7l-.9,.2l-.8,-.1v.6l.7,.6l.5,.6l.8,.7l.9,.7l1.1,.6l1.1,.4l.7,.1l.6,.1Z" class="gj_350"/>
<path d="M315.8,195.3v0l1.8,.9l-.1,-.7l-.1,-.9l-2,-.9l.1,.7l.1,.4l.2,.5Z" class="gk_350"/>
<path d="M313.6,192.9v0l-1.7,-.5l.2,1.3l.8,.1l.9,-.2l-.2,-.7Z" class="gl_350"/>
<path clip-path="url(#c2_350)" d="M307.5,190v0l.6,-2.2l.9,-2.1l-.5,.5l-.4,.4l-.4,.5l-.2,.6l-.1,.6l-.1,.6l.1,.6l.1,.5Z" class="gm_350"/>
<path d="M336.9,212.4v0l-4.7,-3.8l-4.9,-3.8l-5,-3.6l-2.5,-1.6l-2.6,-1.7l-.1,.5l1.3,.6l1.3,1l2.5,1.7l5,3.7l4.9,3.7l2.2,1.8l2.4,1.9l-.1,-.1l.3,-.3Z" class="gn_350"/>
<path d="M343.3,200.4v0l-5.4,-2.6l-5.4,-2.6l-2.6,-1.4l-2.6,-1.3l-2.6,-1.6l-2.5,-1.7l-.2,.5l2.5,1.6l2.5,1.5l2.6,1.5l2.7,1.3l5.4,2.7l5.3,2.5l.3,-.4Z" class="gn_350"/>
<path d="M318.5,199.3v0l-.7,-.9l-.4,-.9l-.3,-.9l-.1,-1.1v-1.2l.4,-1.1l.4,-1.1l.4,-.5l.4,-.3l.9,-.8l1,-.5l1,-.3l1.1,-.4l-.3,-.5l-1.1,.4l-1,.4l-1,.7l-.9,.7l-.5,.5l-.4,.5l-.4,1.1l-.5,1.2v1.3l.2,1.1l.2,1.1l.7,.9l.3,.5l.4,.4l.2,-.3Z" class="gn_350"/>
<path d="M315.2,196.6v0l-.4,-.8l-.3,-.8l-.1,-.8l-.2,-.8l.1,-.9l.1,-.8l.2,-.8l.3,-.8l.4,-.7l.4,-.7l.6,-.5l.7,-.4l.7,-.5l.8,-.2l.7,-.1h.9l-.1,-.5l-.8,.1l-.9,.1l-.8,.3l-.8,.3l-.6,.5l-.7,.6l-.6,.7l-.4,.7l-.3,.9l-.2,.9v1.8l.1,.8l.2,.9l.2,.8l.5,.9l.3,-.2Z" class="gn_350"/>
<path d="M313.3,194.6v0l-.3,-1.3v-2.4l.2,-1.1l.3,-.9l.3,-.6l.4,-.6l.5,-.5l.7,-.4l.5,-.4l1.4,-.7l-.3,-.5l-1.4,.8l-.6,.4l-.6,.5l-.5,.5l-.4,.6l-.4,.8l-.4,.7l-.1,1.3l-.2,1.3l.1,1.4l.4,1.3l.4,-.2Z" class="gn_350"/>
<path d="M319.8,187.4v0l-1.5,-1.2l-1.5,-1.4l-.3,.3l1.5,1.4l1.5,1.3l.3,-.4Z" class="gn_350"/>
<path d="M316.2,196.4v0l-2,-1.1l-2.1,-1l-.1,.4l2,1l2,1.2l.2,-.5Z" class="gn_350"/>
<path d="M311.4,193.5v0l-1,-.6l-1,-.8l-.5,-.5l-.4,-.4l-.3,-.7l-.1,-.6L308,189v-.9l.2,-1l.4,-.7l.7,-.8l.8,-.6l.8,-.5l.9,-.3l1,-.3l.9,.1l1,.2l.9,.3l.2,-.4l-1,-.4l-1,-.2l-1.1,.1l-1.1,.1l-1,.4l-.8,.5l-.8,.7l-.7,.8l-.3,.6l-.2,.5l-.3,.6l.1,.6l-.1,1.2l.3,1.2l.3,.5l.4,.6l.8,.8l.9,.6l1.1,.6l.1,-.4Z" class="gn_350"/>
<path d="M341.4,203.7v0l-2.8,-1.4l-2.8,-1.4l-2.7,-1.6l-2.7,-1.6l-5.3,-3.4l-5.2,-3.5l-.2,.5l5.3,3.4l5.2,3.5l2.7,1.6l2.7,1.5l2.8,1.5l2.8,1.4l.2,-.5Z" class="gn_350"/>
<image x="339" y="203" width="5" height="10" xlink:href="shade/1.png"/>
<path d="M345.2,203.2v0l-.9,.2l-1.1,.1l-2,.3v.5l2.2,-.3l1,-.1l1,-.3l-.2,-.4Z" class="gn_350"/>
<path d="M359.4,217.3v0l-5,-1.1l-5.1,-.8l-5,-.9l-5,-.7l-.1,.4l5,.7l5.1,.9l5,.9l4.9,1.2l.2,-.6Z" class="gn_350"/>
<path d="M359.5,216.8v0l-3.9,-3.5l-3.7,-3.9l-3.5,-3.9l-3.5,-4l-.3,.2l3.4,4.2l3.5,3.8l3.8,3.9l3.9,3.5l.3,-.3Z" class="gn_350"/>
<path d="M352.5,215.7v0l-.3,-.6l-.2,-.7V213l.4,-.6l.3,-.5l.3,-.6l.5,-.4l-.2,-.5l-.6,.6l-.4,.6l-.5,.6l-.2,.8l-.1,.7v.8l.2,.8l.3,.6l.5,-.2Z" class="gn_350"/>
</g>
<path d="M694.6,450.7L605.8,375.4l.4,-.5l88.9,75.2l-.5,.6Z" class="g5_350"/>
<path d="M601.4,371.9l9.3,-1.7l-7.5,10.5l-1.8,-8.8Z" class="g1_350"/>
<path d="M601.4,371.9l9.3,-1.7l-7.5,10.5l-1.8,-8.8Z" class="g7_350"/>
<image clip-path="url(#cs_350)" preserveAspectRatio="none" x="597" y="416" width="146" height="77" xlink:href="img/26.jpg"/>
<image clip-path="url(#ct_350)" preserveAspectRatio="none" x="653" y="416" width="9" height="6" xlink:href="img/27.jpg"/>
<image clip-path="url(#cu_350)" preserveAspectRatio="none" x="603" y="421" width="126" height="58" xlink:href="img/28.jpg"/>
<image clip-path="url(#cv_350)" preserveAspectRatio="none" x="660" y="421" width="2" height="1" xlink:href="img/29.jpg"/>
<path d="M603.4,421.7v56.6H728.5V421.7H603.4Z" class="g1_350"/>
<path d="M603.4,421.7h-.2v56.7H728.6V421.5H603.2v.2h.2v.1H728.5v-.1h-.2v56.6h.2v-.2H603.4v.2h.1V421.7h-.1v.1v-.1Z" class="g5_350"/>
<image clip-path="url(#cw_350)" preserveAspectRatio="none" x="601" y="434" width="138" height="19" xlink:href="img/30.jpg"/>
<image clip-path="url(#cx_350)" preserveAspectRatio="none" x="603" y="434" width="126" height="19" xlink:href="img/31.jpg"/>
<image clip-path="url(#cy_350)" preserveAspectRatio="none" x="603" y="434" width="126" height="19" xlink:href="img/32.jpg"/>
<image clip-path="url(#cz_350)" preserveAspectRatio="none" x="603" y="434" width="126" height="19" xlink:href="img/33.jpg"/>
<image clip-path="url(#c10_350)" preserveAspectRatio="none" x="608" y="445" width="17" height="7" xlink:href="img/34.jpg"/>
<image clip-path="url(#c11_350)" preserveAspectRatio="none" x="608" y="445" width="17" height="7" xlink:href="img/35.jpg"/>
<path d="M603.4,439.1H728.2" class="g6_350"/>
<g clip-path="url(#c12_350)">
<path d="M-4.5,13.7H-27.4m939.5,0H935M-4.5,1031.2H-27.4m939.5,0H935M13.7,-4.5V-27.4m0,1077v22.9m880,-1077V-27.4m0,1077v22.9" class="go_350"/>
<path d="M-4.5,13.7H-27.4m939.5,0H935M-4.5,1031.2H-27.4m939.5,0H935M13.7,-4.5V-27.4m0,1077v22.9m880,-1077V-27.4m0,1077v22.9" class="gp_350"/>
</g>
</svg>