<?xml version="1.0" encoding="UTF-8" standalone="no"?>
<!DOCTYPE svg PUBLIC "-//W3C//DTD SVG 1.1//EN"
"http://www.w3.org/Graphics/SVG/1.1/DTD/svg11.dtd">
<svg viewBox="0 0 770 1017" version="1.1" xmlns="http://www.w3.org/2000/svg" xmlns:xlink="http://www.w3.org/1999/xlink">
<defs>
<style type="text/css"><![CDATA[
.g0_137{
fill: none;
stroke: #000000;
stroke-width: 0.618;
stroke-linecap: butt;
stroke-linejoin: miter;
}
.g1_137{
fill: none;
stroke: #000000;
stroke-width: 0.288;
stroke-linecap: butt;
stroke-linejoin: miter;
}
.g2_137{
fill: none;
stroke: #000000;
stroke-width: 0.343;
stroke-linecap: butt;
stroke-linejoin: miter;
}
]]></style>
</defs>
<path d="M74.2,69.2H713.5" class="g0_137"/>
<path d="M180.2,156.1H353.8V144.5H180.2v11.6ZM168.6,179.3h81V167.7h-81v11.6ZM284.4,179.3h81V167.7h-81v11.6ZM157,190.9h34.7v11.5H157V190.9ZM226.5,202.4h34.7V190.9H226.5v11.5ZM272.8,202.4h34.7V190.9H272.8v11.5ZM342.3,190.9H377v11.5H342.3V190.9ZM261.2,179.3h11.6V167.7H261.2v11.6ZM203.3,202.4h11.6V190.9H203.3v11.5ZM319.1,202.4h11.6V190.9H319.1v11.5ZM168.6,225.6h11.6V214H168.6v11.6ZM238,225.6h11.6V214H238v11.6ZM157,225.6h11.6V214H157v11.6ZM180.2,225.6h11.5V214H180.2v11.6ZM226.5,225.6H238V214H226.5v11.6ZM249.6,225.6h11.6V214H249.6v11.6ZM272.8,225.6h11.6V214H272.8v11.6ZM284.4,225.6h11.5V214H284.4v11.6ZM295.9,225.6h11.6V214H295.9v11.6ZM342.3,225.6h11.5V214H342.3v11.6ZM365.4,225.6H377V214H365.4v11.6ZM353.8,225.6h11.6V214H353.8v11.6ZM267,156.1v11.6m57.9,-11.6v11.6M212,156.1v11.6m-37.6,11.6v11.6m34.7,-11.6v11.6m34.7,-11.6v11.6m46.4,-11.6v11.6m34.7,-11.6v11.6m34.7,-11.6v11.6M162.8,202.4V214m11.6,-11.6V214m11.5,-11.6V214m46.4,-11.6V214m11.5,-11.6V214m11.6,-11.6V214m23.2,-11.6V214m11.6,-11.6V214m11.5,-11.6V214M348,202.4V214m11.6,-11.6V214m11.6,-11.6V214" class="g1_137"/>
<path d="M428.3,115.5H634.5V101.7H428.3v13.8ZM442,143H634.5V129.2H442V143ZM455.8,170.5H634.5V156.7H455.8v13.8ZM469.5,198h165V184.2h-165V198ZM483.3,225.5H634.5V211.7H483.3v13.8ZM414.5,143h13.8V129.2H414.5V143ZM428.3,170.5H442V156.7H428.3v13.8ZM442,198h13.8V184.2H442V198ZM455.8,225.5h13.7V211.7H455.8v13.8ZM431.7,115.5l-10.3,13.7m26.1,13.1L437.2,156m24.1,13.8L451,183.5m24,13.8L464.7,211m66.7,-95.5v13.7m0,13.8v13.7m0,13.8v13.7m0,13.8v13.7" class="g2_137"/>
<path d="M83.4,279.1h621" class="g0_137"/>
</svg>