<?xml version="1.0" encoding="UTF-8" standalone="no"?>
<!DOCTYPE svg PUBLIC "-//W3C//DTD SVG 1.1//EN"
"http://www.w3.org/Graphics/SVG/1.1/DTD/svg11.dtd">
<svg viewBox="0 0 931 1096" version="1.1" xmlns="http://www.w3.org/2000/svg" xmlns:xlink="http://www.w3.org/1999/xlink">
<defs>
<clipPath id="c0_203"><path d="M534.1,827.5V716.6H667V827.5Z"/></clipPath>
<clipPath id="c1_203"><path d="M534.1,827.5V715.1h139V827.5Z"/></clipPath>
<clipPath id="c2_203"><path d="M555,959.9c-3.5,0,-6.4,-2.8,-6.4,-6.4V879.9c0,-3.5,2.9,-6.4,6.4,-6.4H673.9c3.6,0,6.4,2.9,6.4,6.4v73.6c0,3.6,-2.8,6.4,-6.4,6.4Z"/></clipPath>
<clipPath id="c3_203"><path d="M131.4,740V707.8h96.5V740Z"/></clipPath>
<style type="text/css"><![CDATA[
.g0_203{
fill: none;
stroke: #241F1F;
stroke-width: 0.481;
stroke-miterlimit: 10;
}
.g1_203{
fill: none;
stroke: #241F1F;
stroke-width: 0.482;
stroke-linecap: round;
stroke-linejoin: round;
}
.g2_203{
fill: none;
stroke: #241F1F;
stroke-width: 0.898;
stroke-linecap: round;
stroke-linejoin: round;
}
.g3_203{
fill: none;
stroke: #241F1F;
stroke-width: 0.563;
stroke-linecap: round;
stroke-linejoin: round;
}
.g4_203{
fill: none;
stroke: #241F1F;
stroke-width: 0.345;
stroke-linecap: round;
stroke-linejoin: round;
}
.g5_203{
fill: #241F1F;
}
.g6_203{
fill: #FFF;
}
.g7_203{
fill: none;
stroke: #241F1F;
stroke-width: 0.762;
stroke-miterlimit: 3;
}
.g8_203{
fill: none;
stroke: #241F1F;
stroke-width: 0.533;
stroke-linecap: round;
stroke-linejoin: round;
}
.g9_203{
fill: none;
stroke: #241F1F;
stroke-width: 0.99;
stroke-linecap: round;
stroke-linejoin: round;
}
.ga_203{
fill: none;
stroke: #241F1F;
stroke-width: 0.38;
stroke-linecap: round;
stroke-linejoin: round;
}
.gb_203{
fill: none;
stroke: #241F1F;
stroke-width: 0.991;
stroke-linecap: round;
stroke-linejoin: round;
}
.gc_203{
fill: none;
stroke: #241F1F;
stroke-width: 0.689;
stroke-miterlimit: 3;
}
.gd_203{
fill: none;
stroke: #241F1F;
stroke-width: 0.536;
stroke-linecap: round;
stroke-linejoin: round;
}
.ge_203{
fill: none;
stroke: #241F1F;
stroke-width: 0.994;
stroke-linecap: round;
stroke-linejoin: round;
}
.gf_203{
fill: none;
stroke: #B5B5B6;
stroke-width: 0.916;
stroke-linejoin: round;
}
.gg_203{
fill: none;
stroke: #241F1F;
stroke-width: 0.534;
stroke-linecap: round;
stroke-linejoin: round;
}
.gh_203{
fill: none;
stroke: #241F1F;
stroke-width: 0.763;
stroke-linejoin: round;
stroke-dasharray: 9,4;
}
.gi_203{
fill: none;
stroke: #241F1F;
stroke-width: 0.763;
stroke-miterlimit: 3;
}
.gj_203{
fill: none;
stroke: #241F1F;
stroke-width: 0.42;
stroke-linecap: round;
stroke-linejoin: round;
}
.gk_203{
fill: none;
stroke: #241F1F;
stroke-width: 0.916;
stroke-linejoin: round;
}
.gl_203{
fill: none;
stroke: #241F1F;
stroke-width: 0.305;
stroke-linecap: round;
stroke-linejoin: round;
}
.gm_203{
fill: none;
stroke: #241F1F;
stroke-width: 0.99;
stroke-linecap: round;
stroke-linejoin: round;
stroke-dasharray: 7,4;
}
.gn_203{
fill: none;
stroke: #B5B5B6;
stroke-width: 0.99;
stroke-linecap: round;
stroke-linejoin: round;
}
.go_203{
fill: none;
stroke: #241F1F;
stroke-width: 0.76;
stroke-miterlimit: 3;
}
.gp_203{
fill: none;
stroke: #241F1F;
stroke-width: 1.306;
stroke-linecap: round;
stroke-linejoin: round;
}
.gq_203{
fill: none;
stroke: #241F1F;
stroke-width: 0.609;
stroke-linecap: round;
stroke-linejoin: round;
}
.gr_203{
fill: none;
stroke: #241F1F;
stroke-width: 0.435;
stroke-linecap: round;
stroke-linejoin: round;
}
.gs_203{
fill: none;
stroke: #241F1F;
stroke-width: 0.687;
stroke-miterlimit: 10;
}
.gt_203{
fill: none;
stroke: #241F1F;
stroke-width: 0.993;
stroke-linecap: round;
stroke-linejoin: round;
}
.gu_203{
fill: none;
stroke: #241F1F;
stroke-width: 0.381;
stroke-linecap: round;
stroke-linejoin: round;
}
.gv_203{
fill: none;
stroke: #241F1F;
stroke-width: 0.916;
stroke-linecap: round;
stroke-linejoin: round;
}
]]></style>
</defs>
<path d="M579,268.3h4.8m158.3,0h4.8m52.4,0h4.8" class="g0_203"/>
<path d="M694.9,412.8V340.3m-56.4,56.4H773.4" class="g1_203"/>
<path d="M640.9,368.4l5.6,1.5l5.6,1.6l5.6,1.7l5.6,1.9l5.6,2l5.6,2.2l5.6,2.6l5.6,3.2l2.8,2l1.4,1.1l1.4,1.4l1.4,1.6l.7,1.1l.4,.6l.3,.8l.2,.5l.2,.7l.1,1m.1,-41.6l41.7,42.3m0,0h.8l.3,-.1h.2l.4,-.1l.4,-.1l.4,-.2l.9,-.4l.8,-.4l.8,-.7l1.7,-1.5l1.7,-2l1.7,-2.4l1.7,-2.9l1.6,-3.3l1.7,-3.7l1.7,-4.2l1.7,-4.7l1.7,-5.1l1.7,-5.5l1.6,-5.9l1.7,-6.4l1.7,-6.9" class="g2_203"/>
<path d="M638.5,396.7H773.4m-78.5,16.1V340.3" class="g3_203"/>
<path d="M694.9,412.8V340.3" class="g4_203"/>
<path fill-rule="evenodd" d="M694.9,340.3l-1.9,1.3l1.9,-5.1l1.9,5.1Z" class="g5_203"/>
<path d="M638.5,396.7H773.4" class="g4_203"/>
<path fill-rule="evenodd" d="M773.4,396.7l-1.2,-1.9l5,1.9l-5,1.9Z" class="g5_203"/>
<path d="M693.2,354.2c0,-1,.7,-1.8,1.7,-1.8c.9,0,1.7,.8,1.7,1.8c0,.9,-.8,1.7,-1.7,1.7c-1,0,-1.7,-.8,-1.7,-1.7Z" class="g5_203"/>
<path d="M693.2,354.2c0,-1,.7,-1.8,1.7,-1.8c.9,0,1.7,.8,1.7,1.8c0,.9,-.8,1.7,-1.7,1.7c-1,0,-1.7,-.8,-1.7,-1.7Z" class="g4_203"/>
<path d="M734.8,396.7c0,-1,.8,-1.7,1.7,-1.7c1,0,1.8,.7,1.8,1.7c0,.9,-.8,1.7,-1.8,1.7c-.9,0,-1.7,-.8,-1.7,-1.7Z" class="g6_203"/>
<path d="M734.8,396.7c0,-1,.8,-1.7,1.7,-1.7c1,0,1.8,.7,1.8,1.7c0,.9,-.8,1.7,-1.8,1.7c-.9,0,-1.7,-.8,-1.7,-1.7Z" class="g1_203"/>
<path d="M693.2,396.7c0,-1,.7,-1.7,1.7,-1.7c.9,0,1.7,.7,1.7,1.7c0,.9,-.8,1.7,-1.7,1.7c-1,0,-1.7,-.8,-1.7,-1.7Z" class="g6_203"/>
<path d="M693.2,396.7c0,-1,.7,-1.7,1.7,-1.7c.9,0,1.7,.7,1.7,1.7c0,.9,-.8,1.7,-1.7,1.7c-1,0,-1.7,-.8,-1.7,-1.7Z" class="g1_203"/>
<path d="M552.3,511.6H671.6c3.4,0,6.1,2.8,6.1,6.2v74c0,3.4,-2.7,6.2,-6.1,6.2H552.3c-3.4,0,-6.2,-2.8,-6.2,-6.2v-74c0,-3.4,2.8,-6.2,6.2,-6.2Z" class="g7_203"/>
<path d="M546.2,554.4H677.8M612,597.6V511.2M628.4,553v2.8m-17.8,-8.6h2.7m31.6,5.8v2.8M661.3,553v2.8M562.6,553v2.8M579.1,553v2.8M595.5,553v2.8M610.6,540h2.7m-2.7,28.8h2.7m-2.7,-7.2h2.7m-2.7,-28.8h2.7M610.6,576h2.7m-2.7,7.2h2.7m-2.7,7.2h2.7m-2.7,-64.8h2.7m-2.7,-7.2h2.7" class="g8_203"/>
<path d="M569.7,597.7l1.4,-5.6l2.6,-8.5l2.8,-8.3l2.8,-6.5l2.8,-5.6l2.5,-3.9l2.8,-3.6l2.8,-2.3l2.8,-1.8l2.6,-.8l2.8,-.3l2.8,.2l2.6,.5l2.6,1l2.8,1l2.8,1.1l2.8,1.2l2.6,1.1l2.8,1l2.8,.6l2.8,.2l2.8,-.4l2.8,-1l2.6,-1.5l2.7,-2.3l2.8,-3.5l2.6,-4.1l2.8,-5.5l2.8,-6.4l2.8,-8.3l2.8,-9.2l1.2,-4.9m-35.9,86.4l1.6,-3.7l2.8,-5.9l2.8,-5.8l2.8,-6.6l2.8,-5.8l2.6,-6l2.7,-5.7l2.8,-6.2l2.6,-5.8l2.8,-6.1l2.8,-5.8l2.8,-6.4l2.8,-6l2.6,-5.9l2.2,-4.7" class="g9_203"/>
<path fill-rule="evenodd" d="M598.4,725.3l-2.1,1.4l2.1,-5.5l2.1,5.5Z" class="g5_203"/>
<path d="M534.3,776.6H662.8" class="ga_203"/>
<path fill-rule="evenodd" d="M662.8,776.6l-1.4,-2.1l5.6,2.1l-5.6,2Z" class="g5_203"/>
<path clip-path="url(#c0_203)" d="M598.4,829.2V725.3m-64.1,51.3H662.8" class="g8_203"/>
<path clip-path="url(#c1_203)" d="M561.3,728.3c4.6,55.2,11.5,96.7,18.3,96.7c5.6,0,13.3,-27.9,18.7,-48.4C603.7,756,611.5,728.1,617,728.1c7.1,0,14.1,43.7,18.8,101.1" class="g9_203"/>
<path d="M615.5,845.8h6.3m145.2,0h4.8m45.4,0H822" class="g0_203"/>
<g clip-path="url(#c2_203)">
<path d="M647.4,959.9V873.7M646,902.3h2.7M548.4,916.7H680.1M646,887.9h2.7M646,945.5h2.7M646,931.1h2.7m-34.3,-13v-2.8m-32.9,2.8v-2.8" class="g8_203"/>
<path d="M548.7,920.9l2.6,.2m0,0h2.8m0,0h2.8m0,0l2.8,.2m0,0h2.6m0,0h2.8m0,0l2.8,.2m0,0h2.8m0,0h2.8m0,0l2.5,.2m0,0h2.8m0,0h2.8m0,0l2.8,.2m0,0H587m0,0l2.8,.2m0,0h2.8m0,0l2.8,.2m0,0H598m0,0l2.8,.1m0,0l2.8,.2m0,0h2.6m0,0l2.6,.2m0,0l2.8,.2m0,0h3m0,0l2.6,.2m0,0l2.6,.2m0,0l2.8,.2m0,0l2.8,.4m0,0l2.8,.2m0,0l2.8,.2m0,0l2.8,.4m0,0l2.6,.4m0,0l2.7,.3m0,0l2.8,.4m0,0l2.6,.6m0,0l2.8,.6m0,0l2.8,.8m0,0l2.8,1.1m0,0l2.8,1.4m0,0l2.6,1.9m0,0l1.4,1.5m0,0l.8,.8m0,0l.6,1.2m0,0l.8,.9m0,0l.6,1.4m0,0l.6,1.7m0,0l.6,2m0,0l.4,1.5m0,0l.4,1.7m0,0l.4,2.2m0,0l.2,2.7m0,0l.4,3.6m0,0l.4,5.1m0,0v1.5m-117.2,-74l2.6,.4m0,0l2.8,.4m0,0l2.8,.4m0,0l2.8,.4m0,0l2.6,.4m0,0l2.8,.2m0,0l2.8,.3m0,0l2.8,.6m0,0l2.8,.4m0,0l2.5,.4m0,0l2.8,.4m0,0l2.8,.4m0,0l2.8,.4m0,0l2.6,.3m0,0l2.8,.6m0,0l2.8,.4m0,0l2.8,.4m0,0l2.6,.4m0,0l2.8,.6m0,0l2.8,.4m0,0l2.6,.5m0,0l2.6,.4m0,0l2.8,.6m0,0l3,.6m0,0l2.6,.6m0,0l2.6,.3m0,0l2.8,.6m0,0l2.8,.8m0,0l2.8,.6m0,0l2.8,.5m0,0l2.8,.6m0,0l2.6,.8m0,0l2.7,.6m0,0l2.8,.7m0,0l2.6,.8m0,0l2.8,1m0,0l2.8,.8m0,0l2.8,1.1m0,0l2.8,1m0,0l2.6,1.2m0,0l1.4,.7m0,0l1.4,.8m0,0l1.4,.8m0,0l1.2,.9m0,0l.8,.6m0,0l.6,.6m0,0l.4,.4m0,0l.4,.4m0,0l.4,.5m0,0l.4,.6m0,0l.2,1m0,0v.7" class="gb_203"/>
</g>
<path d="M555,873.5H673.9c3.6,0,6.4,2.9,6.4,6.4v73.6c0,3.6,-2.8,6.4,-6.4,6.4H555c-3.5,0,-6.4,-2.8,-6.4,-6.4V879.9c0,-3.5,2.9,-6.4,6.4,-6.4Z" class="g7_203"/>
<path d="M154.7,232.3H274.1c3.5,0,6.4,2.9,6.4,6.4v74c0,3.5,-2.9,6.4,-6.4,6.4H154.7c-3.6,0,-6.5,-2.9,-6.5,-6.4v-74c0,-3.5,2.9,-6.4,6.5,-6.4Z" class="gc_203"/>
<path d="M148.2,290H280.4m-44,29.1V232.4m-1.3,28.8h2.7m-45.5,27.4v2.8" class="gd_203"/>
<path d="M148.3,307.1l2.6,-1.2l2.8,-1.1l2.8,-1.2l2.8,-1.1l2.6,-1.2l2.8,-1l2.8,-1.1l2.8,-1.2l2.8,-1l2.6,-.9l2.9,-1.2l2.8,-1l2.8,-.9l2.6,-1l2.8,-1l2.8,-1l2.8,-.9l2.6,-.8l2.8,-.8l2.8,-.8L206,286l2.6,-.6l2.9,-.8l3,-.6l2.6,-.3l2.6,-.4l2.8,-.4h5.6l2.8,.6l1.4,.5l1.4,.6l.6,.6l.8,.8l.2,.4l.4,.5l.4,.8l.2,2.3l.4,-2.7l.4,-1.3l.6,-2l1.4,-2.9l1.4,-2.5l1.5,-2.5l2.6,-3.9l2.8,-3.8l2.8,-3.5l2.8,-3.3l2.8,-3.3l2.6,-3.1l2.8,-3.1l2.6,-2.9l3,-3.1l2.6,-2.7l2.8,-2.9l2.6,-2.8l3.1,-2.9l.7,-.6" class="ge_203"/>
<path d="M289.7,480.2l21.5,-84.8" class="gf_203"/>
<path d="M233.3,469.6h129" class="gg_203"/>
<path d="M233.3,406.1h129" class="gh_203"/>
<path d="M297.8,480.1V395.5" class="gg_203"/>
<path d="M238.6,395.5H356.9c3,0,5.4,2.4,5.4,5.3v74c0,2.9,-2.4,5.3,-5.4,5.3H238.6c-2.9,0,-5.3,-2.4,-5.3,-5.3v-74c0,-2.9,2.4,-5.3,5.3,-5.3Z" class="gi_203"/>
<path d="M249.4,471.7v-4.2m16.1,4.2v-4.2m16.1,4.2v-4.2m32.3,4.2v-4.2m16.1,4.2v-4.2m16.2,4.2v-4.2" class="gg_203"/>
<path d="M295.7,459h4.2m-4.2,-10.6h4.2m-4.2,-10.6h4.2m-4.2,-10.6h4.2m-4.2,-10.6h4.2m-4.2,-10.5h4.2" class="gj_203"/>
<path d="M268.9,395.4l.1,.4l.2,1.2l.3,1.2l.2,1.2l.2,1.2l.2,1.2l.2,1.2l.2,1.1l.2,1.1l.3,1.1l.2,1.2l.2,1.1l.2,1.1l.2,1.1l.2,1.1l.2,1l.3,1.1l.2,1.1l.2,1l.2,1l.2,1l.2,1l.2,.9l.3,1.1l.2,.9l.2,.9l.2,1l.2,.9l.3,1l.2,.9l.2,.8l.2,.9l.2,.9l.2,.8l.3,1l.1,.7l.3,.9l.2,.8l.2,.8l.2,.8l.2,.8l.3,.8l.2,.7l.2,.8l.2,.7l.2,.7l.2,.8l.2,.6l.3,.7l.2,.7l.2,.7l.2,.6l.2,.7l.2,.6l.3,.7l.2,.5l.2,.7l.2,.5l.2,.6l.2,.6l.2,.5l.3,.6l.2,.5l.2,.5l.2,.5l.2,.5l.2,.5l.3,.5l.2,.5l.2,.5l.2,.4l.2,.4l.2,.4l.2,.4l.3,.4l.2,.4l.2,.4l.2,.4l.2,.3l.2,.3l.3,.4l.2,.3l.2,.3l.2,.3l.2,.3l.2,.3l.3,.2l.2,.3l.2,.2l.2,.2l.2,.2l.2,.3l.2,.1l.3,.2l.2,.2l.2,.2l.2,.1l.2,.1l.2,.2l.3,.1l.2,.1l.2,.1l.2,.1h.2l.2,.1h.3l.2,.1h1l.3,-.1h.1l.3,-.1h.2l.2,-.1l.2,-.1l.2,-.1l.2,-.1l.3,-.1l.2,-.2l.2,-.1l.2,-.2l.2,-.2l.2,-.1l.3,-.2l.2,-.2l.2,-.2l.2,-.3l.2,-.2l.2,-.3l.3,-.2l.2,-.3l.2,-.3l.2,-.3l.2,-.3l.2,-.3l.3,-.3l.2,-.3l.2,-.4l.2,-.4l.2,-.4l.2,-.3l.2,-.4l.3,-.4l.2,-.5l.2,-.4l.2,-.4l.2,-.5l.2,-.5l.3,-.4l.2,-.5l.2,-.5l.2,-.5l.2,-.5l.2,-.5l.2,-.6l.3,-.6l.2,-.5l.2,-.6l.2,-.6l.2,-.6l.2,-.6l.2,-.6l.3,-.6l.2,-.7l.2,-.6l.2,-.8l.2,-.6l.2,-.7l.3,-.7l.2,-.7l.2,-.7l.2,-.8l.2,-.7l.2,-.8l.2,-.7l.3,-.8l.2,-.9l.2,-.7l.2,-.9l.2,-.8l.2,-.8l.2,-.8l.3,-.9l.2,-.9l.2,-.9l.2,-.9l.2,-.9l.2,-.8l.3,-1l.2,-1l.2,-.9l.2,-1l.2,-.9l.2,-1l.3,-1l.2,-1.1l.2,-.9l.2,-1.1l.2,-1l.2,-1.1l.3,-1.1l.2,-1l.2,-1.1l.2,-1.2l.2,-1l.2,-1.2l.3,-1.1l.1,-1.1l.3,-1.1l.2,-1.2l.2,-1.2l.2,-1.2l.2,-1.3l.2,-1.1l.3,-1.2v-.4" class="gk_203"/>
<path d="M308,419.6l12.4,18.8" class="gl_203"/>
<path d="M308,419.6l1.2,-.2c0,0,-2,-1,-2.6,-1.9c.6,.9,.8,3.1,.8,3.1l.6,-1Z" class="g5_203"/>
<path d="M308,419.6l1.2,-.2c0,0,-2,-1,-2.6,-1.9c.6,.9,.8,3.1,.8,3.1l.6,-1Z" class="gl_203"/>
<path d="M191.1,546.1v-2.8m-39.2,1.4H282.7M202.9,536h2.7m-1.4,68.7V518.8m13.2,27.3v-2.8m-14.5,10h2.7m-2.7,-25.9h2.7m-2.7,34.5h2.7m-2.7,8.6h2.7m-2.7,8.7h2.7m-2.7,8.6h2.7m-2.7,8.6h2.7M178,546.1v-2.8m-13.2,2.8v-2.8m65.8,2.8v-2.8m13.1,2.8v-2.8m13.2,2.8v-2.8m13.1,2.8v-2.8" class="g8_203"/>
<path d="M151.7,596.5h2.6m0,0h2.8m0,0h2.8m0,0h2.8m0,0h2.6m0,0h2.8m0,0h2.8m0,0h2.8m0,0h2.8m0,0h2.6m0,0h2.7m0,0h2.8m0,0h2.8m0,0H190m0,0h2.8m0,0h2.8m0,0h2.8m0,0H201m0,0h2.8m0,0h2.8m0,0h2.6m0,0h2.6m0,0h2.8m0,0h2.8m0,0h2.8m0,0h2.6m0,0h2.7m0,0h2.8m0,0h2.8m0,0h2.8m0,0h2.8m0,0h2.6m0,0h2.8m0,0h2.8m0,0h2.6m0,0h2.8m0,0h2.8m0,0h2.8m0,0h2.8m0,0h2.6m0,0H264m0,0h2.6m0,0h3m0,0h2.6m0,0H275m0,0h2.6m0,0h3m0,0h2.6m-92,-77.7l1.6,7.1m0,0l2.8,8.5m0,0l2.8,5.8m0,0l2.6,3.1m0,0l2.8,1.3m0,0l2.8,-.4m0,0l2.6,-1.5m0,0l2.6,-2.1m0,0l2.8,-2.5m0,0l2.8,-2.2m0,0l2.8,-1.3m0,0l2.6,-.2m0,0l2.7,1.5m0,0l2.8,3.9m0,0l2.8,6m0,0l2.8,10.2m0,0l2.8,12.7m0,0l2.6,16.8m0,0l2.6,19.4" class="g9_203"/>
<path d="M206.6,518.8l2.6,10.8l2.6,10.2l2.8,11l2.8,11l2.8,10.4l2.6,10.8l2.7,11l2.7,10.7" class="gm_203"/>
<path d="M191.3,604.6L192.8,594l2.8,-14.8l2.8,-13.5L201,555.2l2.8,-9l2.8,-6.6l2.6,-4.4l2.6,-2l2.8,.2l2.8,2.5l2.8,4.5l2.6,6.9l2.7,9.3l2.8,11.8l2.8,13.1l2.8,17.2l1,6.1" class="gn_203"/>
<path d="M158,518.8H276.8c3.5,0,6.4,2.8,6.4,6.4v73.5c0,3.5,-2.9,6.4,-6.4,6.4H158c-3.5,0,-6.4,-2.9,-6.4,-6.4V525.2c0,-3.6,2.9,-6.4,6.4,-6.4Z" class="go_203"/>
<path d="M155.4,634.2h4.8" class="g0_203"/>
<path d="M297.8,725.9H405.7m0,-43.9H438" class="gp_203"/>
<path d="M405.7,706.1v-4.2M297.8,704H439.5m-99.6,41.2V663.5" class="gq_203"/>
<path d="M404.1,725.9c0,-.8,.7,-1.5,1.5,-1.5c.9,0,1.6,.7,1.6,1.5c0,.9,-.7,1.6,-1.6,1.6c-.8,0,-1.5,-.7,-1.5,-1.6Z" class="g6_203"/>
<path d="M404.1,725.9c0,-.8,.7,-1.5,1.5,-1.5c.9,0,1.6,.7,1.6,1.5c0,.9,-.7,1.6,-1.6,1.6c-.8,0,-1.5,-.7,-1.5,-1.6Z" class="gq_203"/>
<path d="M404.1,682.1c0,-.9,.7,-1.6,1.5,-1.6c.9,0,1.6,.7,1.6,1.6c0,.8,-.7,1.5,-1.6,1.5c-.8,0,-1.5,-.7,-1.5,-1.5Z" class="g6_203"/>
<path d="M404.1,682.1c0,-.9,.7,-1.6,1.5,-1.6c.9,0,1.6,.7,1.6,1.6c0,.8,-.7,1.5,-1.6,1.5c-.8,0,-1.5,-.7,-1.5,-1.5Z" class="gq_203"/>
<path d="M297.8,704H439.5" class="gr_203"/>
<path fill-rule="evenodd" d="M439.5,704L438,701.8l5.8,2.2l-5.8,2.2Z" class="g5_203"/>
<path d="M339.9,745.2V663.5" class="gr_203"/>
<path fill-rule="evenodd" d="M339.9,663.5l-2.2,1.4l2.2,-5.8l2.1,5.8Z" class="g5_203"/>
<path d="M342,682h-4.2" class="gq_203"/>
<path clip-path="url(#c3_203)" d="M179.3,722.3h49" class="gs_203"/>
<path d="M157.3,836h97.9m-49.7,56.2V778" class="gg_203"/>
<path d="M176.8,892.1l2.7,-10.7m0,0l5.2,-16.3l5.2,-12.7l2.6,-5l2.6,-4.1l2.6,-3.2l1.3,-1.3l1.3,-1l1.3,-.8l.6,-.3l.7,-.2l.6,-.2l.4,-.1l.3,-.1h.5l.1,-.1h1.6l.4,-.1l.3,-.1h.3l.7,-.2l.6,-.3l.7,-.3l1.3,-.8l1.2,-1l1.3,-1.3l2.6,-3.2l2.6,-4l2.6,-5L226.2,807l5.2,-16.4l3.5,-13.2" class="gt_203"/>
<path d="M205.5,892.2V778" class="gu_203"/>
<path fill-rule="evenodd" d="M205.5,778l-2.1,1.4l2.1,-5.6l2.1,5.6Z" class="g5_203"/>
<path d="M157.3,836h97.9" class="gu_203"/>
<path fill-rule="evenodd" d="M255.2,836l-1.4,-2.1l5.6,2.1l-5.6,2.1Z" class="g5_203"/>
<path d="M167.5,924.8v61.4H296.7m-110,2.3v-4.6m32.1,4.6v-4.6m12.9,4.6v-4.6m32,4.6v-4.6m25.7,4.6v-4.6" class="gg_203"/>
<path d="M185.4,977c0,-.7,.6,-1.3,1.3,-1.3c.8,0,1.4,.6,1.4,1.3c0,.8,-.6,1.4,-1.4,1.4c-.7,0,-1.3,-.6,-1.3,-1.4Z" class="g5_203"/>
<path d="M185.4,977c0,-.7,.6,-1.3,1.3,-1.3c.8,0,1.4,.6,1.4,1.3c0,.8,-.6,1.4,-1.4,1.4c-.7,0,-1.3,-.6,-1.3,-1.4Z" class="gu_203"/>
<path d="M217.5,963.3c0,-.8,.6,-1.4,1.3,-1.4c.8,0,1.4,.6,1.4,1.4c0,.7,-.6,1.3,-1.4,1.3c-.7,0,-1.3,-.6,-1.3,-1.3Z" class="g5_203"/>
<path d="M217.5,963.3c0,-.8,.6,-1.4,1.3,-1.4c.8,0,1.4,.6,1.4,1.4c0,.7,-.6,1.3,-1.4,1.3c-.7,0,-1.3,-.6,-1.3,-1.3Z" class="gu_203"/>
<path d="M230.3,963.3c0,-.8,.6,-1.4,1.4,-1.4c.7,0,1.3,.6,1.3,1.4c0,.7,-.6,1.3,-1.3,1.3c-.8,0,-1.4,-.6,-1.4,-1.3Z" class="g5_203"/>
<path d="M230.3,963.3c0,-.8,.6,-1.4,1.4,-1.4c.7,0,1.3,.6,1.3,1.4c0,.7,-.6,1.3,-1.3,1.3c-.8,0,-1.4,-.6,-1.4,-1.3Z" class="gu_203"/>
<path d="M262.4,940.3c0,-.7,.6,-1.3,1.3,-1.3c.8,0,1.4,.6,1.4,1.3c0,.8,-.6,1.4,-1.4,1.4c-.7,0,-1.3,-.6,-1.3,-1.4Z" class="g5_203"/>
<path d="M262.4,940.3c0,-.7,.6,-1.3,1.3,-1.3c.8,0,1.4,.6,1.4,1.3c0,.8,-.6,1.4,-1.4,1.4c-.7,0,-1.3,-.6,-1.3,-1.4Z" class="gu_203"/>
<path d="M288.1,929.3c0,-.7,.6,-1.3,1.3,-1.3c.8,0,1.4,.6,1.4,1.3c0,.8,-.6,1.4,-1.4,1.4c-.7,0,-1.3,-.6,-1.3,-1.4Z" class="g5_203"/>
<path d="M288.1,929.3c0,-.7,.6,-1.3,1.3,-1.3c.8,0,1.4,.6,1.4,1.3c0,.8,-.6,1.4,-1.4,1.4c-.7,0,-1.3,-.6,-1.3,-1.4Z" class="gu_203"/>
<path d="M167.5,986.2c5.3,-.7,11.1,-1.1,19.2,-9.2m0,0l32.1,-13.7m0,0h12.9m0,0l32,-23m0,0l25.7,-11" class="gv_203"/>
<path fill-rule="evenodd" d="M167.6,924.4l-2.1,1.4l2.1,-5.6l2.1,5.6Z" class="g5_203"/>
<path fill-rule="evenodd" d="M296.9,986.2l-1.4,-2.1l5.6,2.1l-5.6,2.1Z" class="g5_203"/>
<path d="M341.2,925.6v55H470.5m-110,2.3v-4.6m32.1,4.6v-4.6m12.8,4.6v-4.6m32.1,4.6v-4.6m25.7,4.6v-4.6M360.5,934.8l-19.3,22.9m19.3,0h32.1m0,22.5h12.8m0,-36.3h32.1m0,13.8h25.7" class="gg_203"/>
<path d="M358.6,934.8c0,-1.1,.8,-2,1.9,-2c1,0,1.9,.9,1.9,2c0,1,-.9,1.9,-1.9,1.9c-1.1,0,-1.9,-.9,-1.9,-1.9Z" class="g6_203"/>
<path d="M358.6,934.8c0,-1.1,.8,-2,1.9,-2c1,0,1.9,.9,1.9,2c0,1,-.9,1.9,-1.9,1.9c-1.1,0,-1.9,-.9,-1.9,-1.9Z" class="gg_203"/>
<path d="M358.6,957.7c0,-1.1,.8,-1.9,1.9,-1.9c1,0,1.9,.8,1.9,1.9c0,1,-.9,1.9,-1.9,1.9c-1.1,0,-1.9,-.9,-1.9,-1.9Z" class="g6_203"/>
<path d="M358.6,957.7c0,-1.1,.8,-1.9,1.9,-1.9c1,0,1.9,.8,1.9,1.9c0,1,-.9,1.9,-1.9,1.9c-1.1,0,-1.9,-.9,-1.9,-1.9Z" class="gg_203"/>
<path d="M390.7,957.7c0,-1.1,.8,-1.9,1.9,-1.9c1,0,1.9,.8,1.9,1.9c0,1,-.9,1.9,-1.9,1.9c-1.1,0,-1.9,-.9,-1.9,-1.9Z" class="g6_203"/>
<path d="M390.7,957.7c0,-1.1,.8,-1.9,1.9,-1.9c1,0,1.9,.8,1.9,1.9c0,1,-.9,1.9,-1.9,1.9c-1.1,0,-1.9,-.9,-1.9,-1.9Z" class="gg_203"/>
<path d="M390.7,980.6c0,-1.1,.8,-1.9,1.9,-1.9c1,0,1.9,.8,1.9,1.9c0,1,-.9,1.9,-1.9,1.9c-1.1,0,-1.9,-.9,-1.9,-1.9Z" class="g6_203"/>
<path d="M390.7,980.6c0,-1.1,.8,-1.9,1.9,-1.9c1,0,1.9,.8,1.9,1.9c0,1,-.9,1.9,-1.9,1.9c-1.1,0,-1.9,-.9,-1.9,-1.9Z" class="gg_203"/>
<path d="M403.5,980.6c0,-1.1,.9,-1.9,1.9,-1.9c1.1,0,1.9,.8,1.9,1.9c0,1,-.8,1.9,-1.9,1.9c-1,0,-1.9,-.9,-1.9,-1.9Z" class="g6_203"/>
<path d="M403.5,980.6c0,-1.1,.9,-1.9,1.9,-1.9c1.1,0,1.9,.8,1.9,1.9c0,1,-.8,1.9,-1.9,1.9c-1,0,-1.9,-.9,-1.9,-1.9Z" class="gg_203"/>
<path d="M403.5,943.9c0,-1,.9,-1.9,1.9,-1.9c1.1,0,1.9,.9,1.9,1.9c0,1.1,-.8,1.9,-1.9,1.9c-1,0,-1.9,-.8,-1.9,-1.9Z" class="g6_203"/>
<path d="M403.5,943.9c0,-1,.9,-1.9,1.9,-1.9c1.1,0,1.9,.9,1.9,1.9c0,1.1,-.8,1.9,-1.9,1.9c-1,0,-1.9,-.8,-1.9,-1.9Z" class="gg_203"/>
<path d="M435.6,943.9c0,-1,.8,-1.9,1.9,-1.9c1.1,0,1.9,.9,1.9,1.9c0,1.1,-.8,1.9,-1.9,1.9c-1.1,0,-1.9,-.8,-1.9,-1.9Z" class="g6_203"/>
<path d="M435.6,943.9c0,-1,.8,-1.9,1.9,-1.9c1.1,0,1.9,.9,1.9,1.9c0,1.1,-.8,1.9,-1.9,1.9c-1.1,0,-1.9,-.8,-1.9,-1.9Z" class="gg_203"/>
<path d="M435.6,957.7c0,-1.1,.8,-1.9,1.9,-1.9c1.1,0,1.9,.8,1.9,1.9c0,1,-.8,1.9,-1.9,1.9c-1.1,0,-1.9,-.9,-1.9,-1.9Z" class="g6_203"/>
<path d="M435.6,957.7c0,-1.1,.8,-1.9,1.9,-1.9c1.1,0,1.9,.8,1.9,1.9c0,1,-.8,1.9,-1.9,1.9c-1.1,0,-1.9,-.9,-1.9,-1.9Z" class="gg_203"/>
<path d="M461.3,957.7c0,-1.1,.8,-1.9,1.9,-1.9c1,0,1.9,.8,1.9,1.9c0,1,-.9,1.9,-1.9,1.9c-1.1,0,-1.9,-.9,-1.9,-1.9Z" class="g6_203"/>
<path d="M461.3,957.7c0,-1.1,.8,-1.9,1.9,-1.9c1,0,1.9,.8,1.9,1.9c0,1,-.9,1.9,-1.9,1.9c-1.1,0,-1.9,-.9,-1.9,-1.9Z" class="gg_203"/>
<path fill-rule="evenodd" d="M341.1,925.8l-2.1,1.4l2.1,-5.6l2.1,5.6Z" class="g5_203"/>
<path fill-rule="evenodd" d="M470.6,980.6l-1.4,-2.1l5.6,2.1l-5.6,2.1Z" class="g5_203"/>
</svg>