<?xml version="1.0" encoding="UTF-8" standalone="no"?>
<!DOCTYPE svg PUBLIC "-//W3C//DTD SVG 1.1//EN"
"http://www.w3.org/Graphics/SVG/1.1/DTD/svg11.dtd">
<svg viewBox="0 0 907 1045" version="1.1" xmlns="http://www.w3.org/2000/svg" xmlns:xlink="http://www.w3.org/1999/xlink">
<defs>
<clipPath id="c0_482"><path d="M773.9,341.6c0,-.4,0,-.7,0,-1.1c0,-.5,0,-1,-.1,-1.5c0,-.6,-.3,-1.4,-.6,-2.1c0,-.2,-.1,-.3,-.2,-.4c.7,.1,1.3,.4,1.9,.7c1.3,.8,2.5,2,3.3,3c.1,.2,.3,.4,.4,.6c-.2,-.1,-.4,-.1,-.6,-.1c-.8,0,-1.6,.2,-2,.2c-.9,0,-1.5,.3,-1.9,.5c-.1,.1,-.2,.1,-.2,.2Zm-5.4,13.2v-1.5h-8.6V350h15.6v-4H759.9v-3.3h8.4v-4.1h-8.4v-2.2h7.4c.8,0,1.9,-.2,2.8,-.2c.4,0,.8,.1,.9,.1c.1,0,.2,.2,.4,.4c.2,.3,.4,.8,.6,1.3c.2,.4,.3,.9,.3,1.1c.1,.5,.1,.9,.1,1.4c0,.7,-.1,1.5,-.1,2.1l-.1,1l.9,-.2c.9,-.1,1.4,-.4,1.8,-.6c.3,-.3,.5,-.4,1.2,-.4c.5,0,1.2,-.1,1.8,-.1c0,0,.1,0,.1,0q.1,0,.1,0c.4,0,.6,0,.8,.1h.1v.1l.3,-.1l.1,12.4Zm12.4,0l-.1,-13.2v-.3c-.1,-.1,-.9,-1.6,-2.4,-3.2c-.8,-.8,-1.7,-1.6,-2.8,-2.2c-1,-.6,-2.3,-1.1,-3.6,-1.1v.3c-.1,0,-.2,-.1,-.3,-.1c-.5,-.3,-1.1,-.3,-1.6,-.3c-1,0,-2.2,.1,-2.7,.1h-7.5v-6.7h18l9.5,1v25.7Z"/></clipPath>
<clipPath id="c1_482"><path d="M787.4,329.1l-9.5,-1h9.5v1Z"/></clipPath>
<clipPath id="c2_482"><path d="M773.9,341.6v0c0,-.1,.1,-.1,.2,-.2c.4,-.2,1,-.5,1.9,-.5c.4,0,1.2,-.2,2,-.2c.2,0,.4,0,.6,.1c-.1,-.2,-.3,-.4,-.4,-.6c-.8,-1,-2,-2.2,-3.3,-3c-.6,-.3,-1.2,-.6,-1.9,-.7c.1,.1,.2,.2,.2,.4c.3,.7,.6,1.5,.6,2.1c.1,.5,.1,1,.1,1.5c0,.4,0,.7,0,1.1Zm5.5,13.2l-.1,-12.4l-.3,.1v-.1h-.1c-.2,-.1,-.4,-.1,-.8,-.1H778c0,0,-.1,0,-.1,0c-.6,0,-1.3,.1,-1.8,.1c-.7,0,-.9,.1,-1.2,.4c-.4,.2,-.9,.5,-1.8,.6l-.9,.2l.1,-1c0,-.6,.1,-1.4,.1,-2.1c0,-.5,0,-.9,-.1,-1.4c0,-.2,-.1,-.7,-.3,-1.1c-.2,-.5,-.4,-1,-.6,-1.3c-.2,-.2,-.3,-.4,-.4,-.4c-.1,0,-.5,-.1,-.9,-.1c-.9,0,-2,.2,-2.8,.2h-7.4v-1.6h7.4q.1,0,.1,0c.5,0,1.7,-.1,2.7,-.1c.5,0,1.1,0,1.6,.3c.1,0,.2,.1,.3,.1v-.3c1.3,0,2.6,.5,3.6,1.1c1.1,.6,2,1.4,2.8,2.2c1.5,1.6,2.3,3.1,2.4,3.2v.3l.1,13.2Z"/></clipPath>
<clipPath id="c3_482"><path d="M759.9,342.7v-4.1h8.4v4.1Z"/></clipPath>
<clipPath id="c4_482"><path d="M752.1,342.1c0,0,.3,0,.5,-.2c0,0,.3,-.4,.3,-.9v-.7c0,0,0,-.5,-.3,-.8c0,0,-.2,-.2,-.5,-.2c0,0,-.2,0,-.4,.2c0,0,-.3,.3,-.3,.8v.7c0,0,0,.5,.3,.9c0,0,.1,.2,.4,.2Zm10.9,0c0,0,.2,0,.4,-.2c0,0,.3,-.4,.3,-.9v-.7c0,0,0,-.5,-.3,-.8c0,0,-.2,-.2,-.5,-.2c0,0,-.2,0,-.4,.2c0,0,-.3,.3,-.3,.8v.7c0,0,0,.5,.3,.9c0,0,.2,.2,.5,.2Zm-15.4,.5c0,0,-.2,0,-.3,-.1c0,0,-.1,-.1,-.1,-.2c0,0,0,-.1,.1,-.2c0,0,.1,-.1,.3,-.1h.6v-2.5l-.5,.1c0,0,-.2,0,-.2,0c0,0,-.1,0,-.2,-.1c0,0,-.1,-.1,-.1,-.2c0,0,0,-.1,.1,-.2c0,0,0,-.1,.2,-.1l1.3,-.3V342h.7c0,0,.2,0,.3,.1c0,0,.1,.1,.1,.2c0,0,0,.1,-.1,.2c0,0,-.1,.1,-.3,.1Zm4.5,.1c0,0,-.3,0,-.6,-.2c0,0,-.2,-.1,-.5,-.6c0,0,-.2,-.4,-.2,-.9v-.7c0,0,0,-.6,.3,-1.1c0,0,.4,-.5,1,-.5c0,0,.4,0,.6,.1c0,0,.3,.2,.5,.6c0,0,.3,.5,.3,.9v.7c0,0,0,.6,-.4,1.2c0,0,-.3,.5,-1,.5Zm2.7,-.1c0,0,-.2,0,-.3,-.1c0,0,-.1,-.1,-.1,-.2c0,0,0,-.1,.1,-.2c0,0,.1,-.1,.3,-.1h.6v-2.5l-.5,.1c0,0,-.1,0,-.2,0c0,0,-.1,0,-.2,-.1c0,0,-.1,-.1,-.1,-.2c0,0,0,-.1,.1,-.2c0,0,0,-.1,.2,-.1l1.3,-.3V342h.7c0,0,.2,0,.3,.1c0,0,.1,.1,.1,.2c0,0,0,.1,-.1,.2c0,0,-.1,.1,-.3,.1Zm3.6,0c0,0,-.2,0,-.3,-.1c0,0,-.1,-.1,-.1,-.2c0,0,0,-.1,.1,-.2c0,0,.1,-.1,.3,-.1h.6v-2.5l-.5,.1c0,0,-.1,0,-.2,0c0,0,-.1,0,-.2,-.1c0,0,-.1,-.1,-.1,-.2c0,0,0,-.1,.1,-.2c0,0,0,-.1,.2,-.1l1.4,-.3V342h.6c0,0,.2,0,.3,.1c0,0,.1,.1,.1,.2c0,0,0,.1,-.1,.2c0,0,-.1,.1,-.3,.1Zm4.6,.1c0,0,-.4,0,-.7,-.2c0,0,-.2,-.1,-.5,-.6c0,0,-.2,-.4,-.2,-.9v-.7c0,0,0,-.6,.4,-1.1c0,0,.3,-.5,.9,-.5c0,0,.4,0,.7,.1c0,0,.2,.2,.5,.6c0,0,.2,.5,.2,.9v.7c0,0,0,.6,-.4,1.2c0,0,-.3,.5,-.9,.5Zm2.6,-.1c0,0,-.2,0,-.3,-.1c0,0,-.1,-.1,-.1,-.2c0,0,0,-.1,.1,-.2c0,0,.1,-.1,.3,-.1h.7v-2.5l-.6,.1c0,0,-.1,0,-.2,0c0,0,-.1,0,-.2,-.1c0,0,-.1,-.1,-.1,-.2c0,0,0,-.1,.1,-.2c0,0,0,-.1,.2,-.1l1.4,-.3V342h.6c0,0,.2,0,.3,.1c0,0,.1,.1,.1,.2c0,0,0,.1,-.1,.2c0,0,-.1,.1,-.3,.1Z"/></clipPath>
<clipPath id="c5_482"><path d="M759.9,350v-4h15.6v4Z"/></clipPath>
<clipPath id="c6_482"><path d="M752.1,349.4c0,0,.3,0,.5,-.2c0,0,.3,-.3,.3,-.9v-.6c0,0,0,-.5,-.3,-.9c0,0,-.2,-.2,-.5,-.2c0,0,-.2,0,-.4,.2c0,0,-.3,.4,-.3,.9v.6c0,0,0,.6,.3,.9c0,0,.1,.2,.4,.2Zm14.5,0c0,0,.2,0,.4,-.2c0,0,.3,-.3,.3,-.9v-.6c0,0,0,-.5,-.3,-.9c0,0,-.2,-.2,-.4,-.2c0,0,-.3,0,-.5,.2c0,0,-.3,.4,-.3,.9v.6c0,0,0,.6,.3,.9c0,0,.2,.2,.5,.2Zm-19,.5c0,0,-.2,0,-.3,0c0,0,-.1,-.1,-.1,-.3c0,0,0,-.1,.1,-.2c0,0,.1,-.1,.3,-.1h.6v-2.5l-.5,.1c0,0,-.2,.1,-.2,.1c0,0,-.1,0,-.2,-.1c0,0,-.1,-.1,-.1,-.3c0,0,0,-.1,.1,-.1c0,0,0,-.1,.2,-.2l1.3,-.3v3.3h.7c0,0,.2,0,.3,.1c0,0,.1,.1,.1,.2c0,0,0,.2,-.1,.3c0,0,-.1,0,-.3,0Zm4.5,.1c0,0,-.3,0,-.6,-.1c0,0,-.2,-.2,-.5,-.6c0,0,-.2,-.5,-.2,-1v-.6c0,0,0,-.6,.3,-1.2c0,0,.4,-.5,1,-.5c0,0,.4,0,.6,.1c0,0,.3,.2,.5,.6c0,0,.3,.5,.3,1v.6c0,0,0,.6,-.4,1.2c0,0,-.3,.5,-1,.5Zm6.3,-.1c0,0,-.2,0,-.3,0c0,0,-.1,-.1,-.1,-.3c0,0,0,-.1,.1,-.2c0,0,.1,-.1,.3,-.1h.6v-2.5l-.5,.1c0,0,-.1,.1,-.2,.1c0,0,-.1,0,-.2,-.1c0,0,-.1,-.1,-.1,-.3c0,0,0,-.1,.1,-.1c0,0,0,-.1,.2,-.2l1.4,-.3v3.3h.6c0,0,.2,0,.3,.1c0,0,.1,.1,.1,.2c0,0,0,.2,-.1,.3c0,0,-.1,0,-.3,0Zm3.6,0c0,0,-.2,0,-.3,0c0,0,-.1,-.1,-.1,-.3c0,0,0,-.1,.1,-.2c0,0,.1,-.1,.3,-.1h.6v-2.5l-.5,.1c0,0,-.1,.1,-.2,.1c0,0,-.1,0,-.2,-.1c0,0,-.1,-.1,-.1,-.3c0,0,0,-.1,.1,-.1c0,0,0,-.1,.2,-.2l1.4,-.3v3.3h.6c0,0,.2,0,.3,.1c0,0,.1,.1,.1,.2c0,0,0,.2,-.1,.3c0,0,-.1,0,-.3,0Zm4.6,.1c0,0,-.4,0,-.7,-.1c0,0,-.2,-.2,-.5,-.6c0,0,-.2,-.5,-.2,-1v-.6c0,0,0,-.6,.4,-1.2c0,0,.3,-.5,.9,-.5c0,0,.4,0,.7,.1c0,0,.2,.2,.5,.6c0,0,.2,.5,.2,1v.6c0,0,0,.6,-.4,1.2c0,0,-.3,.5,-.9,.5Zm6.2,-.1c0,0,-.2,0,-.3,0c0,0,-.1,-.1,-.1,-.3c0,0,0,-.1,.1,-.2c0,0,.1,-.1,.3,-.1h.7v-2.5l-.6,.1c0,0,-.1,.1,-.2,.1c0,0,-.1,0,-.2,-.1c0,0,-.1,-.1,-.1,-.3c0,0,0,-.1,.1,-.1c0,0,.1,-.1,.3,-.2l1.3,-.3v3.3h.6c0,0,.2,0,.3,.1c0,0,.1,.1,.1,.2c0,0,0,.2,-.1,.3c0,0,-.1,0,-.3,0Z"/></clipPath>
<clipPath id="c7_482"><path d="M759.9,354.8v-1.5h8.6v1.5Z"/></clipPath>
<clipPath id="c8_482"><path d="M748.7,356.8c0,0,.3,0,.5,-.3c0,0,.3,-.3,.3,-.8V355c0,0,0,-.5,-.3,-.9c0,0,-.2,-.2,-.5,-.2c0,0,-.2,0,-.4,.3c0,0,-.3,.3,-.3,.8v.7c0,0,0,.5,.3,.9c0,0,.1,.2,.4,.2Zm18.1,0c0,0,.2,0,.4,-.3c0,0,.3,-.3,.3,-.8V355c0,0,0,-.5,-.3,-.9c0,0,-.2,-.2,-.4,-.2c0,0,-.3,0,-.5,.3c0,0,-.3,.3,-.3,.8v.7c0,0,0,.5,.3,.9c0,0,.2,.2,.5,.2Zm-18.1,.6c0,0,-.3,0,-.6,-.2c0,0,-.2,-.2,-.5,-.6c0,0,-.2,-.4,-.2,-.9V355c0,0,0,-.6,.3,-1.1c0,0,.4,-.6,1,-.6c0,0,.4,0,.7,.2c0,0,.2,.1,.4,.6c0,0,.3,.4,.3,.9v.7c0,0,0,.6,-.4,1.1c0,0,-.3,.6,-1,.6Zm6.3,-.1c0,0,-.2,0,-.3,-.1c0,0,-.1,-.1,-.1,-.2c0,0,0,-.2,.1,-.2c0,0,.1,-.1,.3,-.1h.6v-2.6l-.5,.2c0,0,-.1,0,-.2,0c0,0,-.1,0,-.2,-.1c0,0,-.1,-.1,-.1,-.2c0,0,0,-.1,.1,-.2c0,0,0,-.1,.2,-.1l1.4,-.4v3.4h.6c0,0,.2,0,.3,.1c0,0,.1,0,.1,.2c0,0,0,.1,-.1,.2c0,0,-.1,.1,-.3,.1Zm3.6,0c0,0,-.2,0,-.3,-.1c0,0,-.1,-.1,-.1,-.2c0,0,0,-.2,.1,-.2c0,0,.1,-.1,.3,-.1h.6v-2.6l-.5,.2c0,0,-.1,0,-.2,0c0,0,-.1,0,-.2,-.1c0,0,-.1,-.1,-.1,-.2c0,0,0,-.1,.1,-.2c0,0,0,-.1,.2,-.1l1.4,-.4v3.4h.6c0,0,.2,0,.3,.1c0,0,.1,0,.1,.2c0,0,0,.1,-.1,.2c0,0,-.1,.1,-.3,.1Zm8.2,.1c0,0,-.4,0,-.7,-.2c0,0,-.2,-.2,-.4,-.6c0,0,-.3,-.4,-.3,-.9V355c0,0,0,-.6,.4,-1.1c0,0,.3,-.6,1,-.6c0,0,.3,0,.6,.2c0,0,.2,.1,.5,.6c0,0,.2,.4,.2,.9v.7c0,0,0,.6,-.3,1.1c0,0,-.4,.6,-1,.6Z"/></clipPath>
<clipPath id="c9_482"><path d="M773.9,421.9c0,-.3,0,-.6,0,-1c0,-.5,0,-1,-.1,-1.5c0,-.6,-.3,-1.4,-.6,-2.1c0,-.2,-.1,-.3,-.2,-.4c.7,.1,1.3,.4,1.9,.7c1.3,.8,2.5,2,3.3,3c.1,.2,.3,.4,.4,.6c-.2,-.1,-.4,-.1,-.6,-.1c-.8,0,-1.6,.1,-2,.2c-.9,0,-1.5,.3,-1.9,.5c-.1,.1,-.2,.1,-.2,.1Zm-5.4,13.3v-1.5h-8.6v-3.3h15.6v-4H759.9v-3.3h8.4V419h-8.4v-2.3h7.4c.7,0,1.8,-.1,2.7,-.1h.2c.4,0,.7,.1,.8,.1c.1,0,.2,.2,.4,.4c.2,.3,.4,.8,.6,1.3c.2,.4,.3,.9,.3,1.1c.1,.5,.1,.9,.1,1.4c0,.7,-.1,1.4,-.1,2.1l-.1,1l.9,-.2c.9,-.1,1.4,-.4,1.8,-.7c.3,-.2,.5,-.3,1.2,-.3c.6,0,1.3,-.1,1.9,-.1q.1,0,.1,0c.4,0,.6,0,.8,.1h.1v.1l.3,-.1l.1,12.4Zm12.4,0L780.8,422v-.4c-.1,0,-.9,-1.5,-2.4,-3.1c-.8,-.8,-1.7,-1.6,-2.8,-2.2c-1,-.7,-2.3,-1.1,-3.6,-1.1v.3c-.1,0,-.2,-.1,-.3,-.1c-.5,-.3,-1.1,-.3,-1.6,-.3c-1,0,-2.2,.1,-2.7,.1h-7.5v-6.7h27.5v26.7Z"/></clipPath>
<clipPath id="ca_482"><path d="M773.9,421.9v0c0,0,.1,0,.2,-.1c.4,-.2,1,-.5,1.9,-.5c.4,-.1,1.2,-.2,2,-.2c.2,0,.4,0,.6,.1c-.1,-.2,-.3,-.4,-.4,-.6c-.8,-1,-2,-2.2,-3.3,-3c-.6,-.3,-1.2,-.6,-1.9,-.7c.1,.1,.2,.2,.2,.4c.3,.7,.6,1.5,.6,2.1c.1,.5,.1,1,.1,1.5c0,.4,0,.7,0,1Zm5.5,13.3l-.1,-12.4l-.3,.1v-.1h-.1c-.2,-.1,-.4,-.1,-.8,-.1H778c-.6,0,-1.3,.1,-1.9,.1c-.7,0,-.9,.1,-1.2,.3c-.4,.3,-.9,.6,-1.8,.7l-.9,.2l.1,-1c0,-.7,.1,-1.4,.1,-2.1c0,-.5,0,-.9,-.1,-1.4c0,-.2,-.1,-.7,-.3,-1.1c-.2,-.5,-.4,-1,-.6,-1.3c-.2,-.2,-.3,-.4,-.4,-.4c-.1,0,-.4,-.1,-.8,-.1q-.1,0,-.1,0H770c-.9,0,-2,.1,-2.7,.1h-7.4v-1.5h7.4q.1,0,.1,0c.5,0,1.7,-.1,2.7,-.1c.5,0,1.1,0,1.6,.3c.1,0,.2,.1,.3,.1v-.3c1.3,0,2.6,.4,3.6,1.1c1.1,.6,2,1.4,2.8,2.2c1.5,1.6,2.3,3.1,2.4,3.1v.4l.1,13.2Z"/></clipPath>
<clipPath id="cb_482"><path d="M759.9,423.1V419h8.4v4.1Z"/></clipPath>
<clipPath id="cc_482"><path d="M752.1,422.5c0,0,.3,0,.5,-.2c0,0,.3,-.4,.3,-.9v-.7c0,0,0,-.5,-.3,-.8c0,0,-.2,-.2,-.5,-.2c0,0,-.2,0,-.4,.2c0,0,-.3,.3,-.3,.8v.7c0,0,0,.5,.3,.9c0,0,.1,.2,.4,.2Zm10.9,0c0,0,.2,0,.4,-.2c0,0,.3,-.4,.3,-.9v-.7c0,0,0,-.5,-.3,-.8c0,0,-.2,-.2,-.5,-.2c0,0,-.2,0,-.4,.2c0,0,-.3,.3,-.3,.8v.7c0,0,0,.5,.3,.9c0,0,.2,.2,.5,.2Zm-15.4,.5c0,0,-.2,0,-.3,-.1c0,0,-.1,-.1,-.1,-.2c0,0,0,-.1,.1,-.2c0,0,.1,-.1,.3,-.1h.6v-2.6l-.5,.2c0,0,-.2,0,-.2,0c0,0,-.1,0,-.2,-.1c0,0,-.1,-.1,-.1,-.2c0,0,0,-.1,.1,-.2c0,0,0,-.1,.2,-.1l1.3,-.4v3.4h.7c0,0,.2,0,.3,.1c0,0,.1,.1,.1,.2c0,0,0,.1,-.1,.2c0,0,-.1,.1,-.3,.1Zm4.5,.1c0,0,-.3,0,-.6,-.2c0,0,-.2,-.1,-.5,-.6c0,0,-.2,-.4,-.2,-.9v-.7c0,0,0,-.6,.3,-1.1c0,0,.4,-.6,1,-.6c0,0,.4,0,.6,.2c0,0,.3,.2,.5,.6c0,0,.3,.4,.3,.9v.7c0,0,0,.6,-.4,1.1c0,0,-.3,.6,-1,.6Zm2.7,-.1c0,0,-.2,0,-.3,-.1c0,0,-.1,-.1,-.1,-.2c0,0,0,-.1,.1,-.2c0,0,.1,-.1,.3,-.1h.6v-2.6l-.5,.2c0,0,-.1,0,-.2,0c0,0,-.1,0,-.2,-.1c0,0,-.1,-.1,-.1,-.2c0,0,0,-.1,.1,-.2c0,0,0,-.1,.2,-.1L756,419v3.4h.7c0,0,.2,0,.3,.1c0,0,.1,.1,.1,.2c0,0,0,.1,-.1,.2c0,0,-.1,.1,-.3,.1Zm3.6,0c0,0,-.2,0,-.3,-.1c0,0,-.1,-.1,-.1,-.2c0,0,0,-.1,.1,-.2c0,0,.1,-.1,.3,-.1h.6v-2.6l-.5,.2c0,0,-.1,0,-.2,0c0,0,-.1,0,-.2,-.1c0,0,-.1,-.1,-.1,-.2c0,0,0,-.1,.1,-.2c0,0,0,-.1,.2,-.1l1.4,-.4v3.4h.6c0,0,.2,0,.3,.1c0,0,.1,.1,.1,.2c0,0,0,.1,-.1,.2c0,0,-.1,.1,-.3,.1Zm4.6,.1c0,0,-.4,0,-.7,-.2c0,0,-.2,-.1,-.5,-.6c0,0,-.2,-.4,-.2,-.9v-.7c0,0,0,-.6,.4,-1.1c0,0,.3,-.6,.9,-.6c0,0,.4,0,.7,.2c0,0,.2,.2,.5,.6c0,0,.2,.4,.2,.9v.7c0,0,0,.6,-.4,1.1c0,0,-.3,.6,-.9,.6Zm2.6,-.1c0,0,-.2,0,-.3,-.1c0,0,-.1,-.1,-.1,-.2c0,0,0,-.1,.1,-.2c0,0,.1,-.1,.3,-.1h.7v-2.6l-.6,.2c0,0,-.1,0,-.2,0c0,0,-.1,0,-.2,-.1c0,0,-.1,-.1,-.1,-.2c0,0,0,-.1,.1,-.2c0,0,0,-.1,.2,-.1l1.4,-.4v3.4h.6c0,0,.2,0,.3,.1c0,0,.1,.1,.1,.2c0,0,0,.1,-.1,.2c0,0,-.1,.1,-.3,.1Z"/></clipPath>
<clipPath id="cd_482"><path d="M759.9,430.4v-4h15.6v4Z"/></clipPath>
<clipPath id="ce_482"><path d="M752.1,429.8c0,0,.3,0,.5,-.2c0,0,.3,-.4,.3,-.9v-.6c0,0,0,-.5,-.3,-.9c0,0,-.2,-.2,-.5,-.2c0,0,-.2,0,-.4,.2c0,0,-.3,.4,-.3,.9v.6c0,0,0,.5,.3,.9c0,0,.1,.2,.4,.2Zm14.5,0c0,0,.2,0,.4,-.2c0,0,.3,-.4,.3,-.9v-.6c0,0,0,-.5,-.3,-.9c0,0,-.2,-.2,-.4,-.2c0,0,-.3,0,-.5,.2c0,0,-.3,.4,-.3,.9v.6c0,0,0,.5,.3,.9c0,0,.2,.2,.5,.2Zm-19,.5c0,0,-.2,0,-.3,-.1c0,0,-.1,0,-.1,-.2c0,0,0,-.1,.1,-.2c0,0,.1,-.1,.3,-.1h.6v-2.5l-.5,.1c0,0,-.2,0,-.2,0c0,0,-.1,0,-.2,0c0,0,-.1,-.1,-.1,-.3c0,0,0,-.1,.1,-.2l.2,-.1l1.3,-.3v3.3h.7c0,0,.2,0,.3,.1c0,0,.1,.1,.1,.2c0,0,0,.2,-.1,.2c0,0,-.1,.1,-.3,.1Zm4.5,.1c0,0,-.3,0,-.6,-.1c0,0,-.2,-.2,-.5,-.6c0,0,-.2,-.5,-.2,-1v-.6c0,0,0,-.6,.3,-1.2c0,0,.4,-.5,1,-.5c0,0,.4,0,.6,.1c0,0,.3,.2,.5,.6c0,0,.3,.5,.3,1v.6c0,0,0,.6,-.4,1.2c0,0,-.3,.5,-1,.5Zm6.3,-.1c0,0,-.2,0,-.3,-.1c0,0,-.1,0,-.1,-.2c0,0,0,-.1,.1,-.2c0,0,.1,-.1,.3,-.1h.6v-2.5l-.5,.1c0,0,-.1,0,-.2,0c0,0,-.1,0,-.2,0c0,0,-.1,-.1,-.1,-.3c0,0,0,-.1,.1,-.2l.2,-.1l1.4,-.3v3.3h.6c0,0,.2,0,.3,.1c0,0,.1,.1,.1,.2c0,0,0,.2,-.1,.2c0,0,-.1,.1,-.3,.1Zm3.6,0c0,0,-.2,0,-.3,-.1c0,0,-.1,0,-.1,-.2c0,0,0,-.1,.1,-.2c0,0,.1,-.1,.3,-.1h.6v-2.5l-.5,.1c0,0,-.1,0,-.2,0c0,0,-.1,0,-.2,0c0,0,-.1,-.1,-.1,-.3c0,0,0,-.1,.1,-.2l.2,-.1l1.4,-.3v3.3h.6c0,0,.2,0,.3,.1c0,0,.1,.1,.1,.2c0,0,0,.2,-.1,.2c0,0,-.1,.1,-.3,.1Zm4.6,.1c0,0,-.4,0,-.7,-.1c0,0,-.2,-.2,-.5,-.6c0,0,-.2,-.5,-.2,-1v-.6c0,0,0,-.6,.4,-1.2c0,0,.3,-.5,.9,-.5c0,0,.4,0,.7,.1c0,0,.2,.2,.5,.6c0,0,.2,.5,.2,1v.6c0,0,0,.6,-.4,1.2c0,0,-.3,.5,-.9,.5Zm6.2,-.1c0,0,-.2,0,-.3,-.1c0,0,-.1,0,-.1,-.2c0,0,0,-.1,.1,-.2c0,0,.1,-.1,.3,-.1h.7v-2.5l-.6,.1c0,0,-.1,0,-.2,0c0,0,-.1,0,-.2,0c0,0,-.1,-.1,-.1,-.3c0,0,0,-.1,.1,-.2c0,0,.1,0,.3,-.1l1.3,-.3v3.3h.6c0,0,.2,0,.3,.1c0,0,.1,.1,.1,.2c0,0,0,.2,-.1,.2c0,0,-.1,.1,-.3,.1Z"/></clipPath>
<clipPath id="cf_482"><path d="M759.9,435.2v-1.5h8.6v1.5Z"/></clipPath>
<clipPath id="cg_482"><path d="M748.7,437.1c0,0,.3,0,.5,-.2c0,0,.3,-.3,.3,-.8v-.7c0,0,0,-.5,-.3,-.9c0,0,-.2,-.2,-.5,-.2c0,0,-.2,0,-.4,.2c0,0,-.3,.4,-.3,.9v.7c0,0,0,.5,.3,.8c0,0,.1,.2,.4,.2Zm18.1,0c0,0,.2,0,.4,-.2c0,0,.3,-.3,.3,-.8v-.7c0,0,0,-.5,-.3,-.9c0,0,-.2,-.2,-.4,-.2c0,0,-.3,0,-.5,.2c0,0,-.3,.4,-.3,.9v.7c0,0,0,.5,.3,.8c0,0,.2,.2,.5,.2Zm-18.1,.7c0,0,-.3,0,-.6,-.2c0,0,-.2,-.2,-.5,-.6c0,0,-.2,-.4,-.2,-.9v-.7c0,0,0,-.6,.3,-1.1c0,0,.4,-.6,1,-.6c0,0,.4,0,.7,.2c0,0,.2,.1,.4,.6c0,0,.3,.4,.3,.9v.7c0,0,0,.6,-.4,1.1c0,0,-.3,.6,-1,.6Zm6.3,-.1c0,0,-.2,0,-.3,-.1c0,0,-.1,-.1,-.1,-.2c0,0,0,-.2,.1,-.3c0,0,.1,0,.3,0h.6v-2.6l-.5,.1c0,0,-.1,.1,-.2,.1c0,0,-.1,0,-.2,-.1c0,0,-.1,-.1,-.1,-.2c0,0,0,-.2,.1,-.2c0,0,0,-.1,.2,-.2l1.4,-.3v3.4h.6c0,0,.2,0,.3,0c0,0,.1,.1,.1,.3c0,0,0,.1,-.1,.2c0,0,-.1,.1,-.3,.1Zm3.6,0c0,0,-.2,0,-.3,-.1c0,0,-.1,-.1,-.1,-.2c0,0,0,-.2,.1,-.3c0,0,.1,0,.3,0h.6v-2.6l-.5,.1c0,0,-.1,.1,-.2,.1c0,0,-.1,0,-.2,-.1c0,0,-.1,-.1,-.1,-.2c0,0,0,-.2,.1,-.2c0,0,0,-.1,.2,-.2l1.4,-.3v3.4h.6c0,0,.2,0,.3,0c0,0,.1,.1,.1,.3c0,0,0,.1,-.1,.2c0,0,-.1,.1,-.3,.1Zm8.2,.1c0,0,-.4,0,-.7,-.2c0,0,-.2,-.2,-.4,-.6c0,0,-.3,-.4,-.3,-.9v-.7c0,0,0,-.6,.4,-1.1c0,0,.3,-.6,1,-.6c0,0,.3,0,.6,.2c0,0,.2,.1,.5,.6c0,0,.2,.4,.2,.9v.7c0,0,0,.6,-.3,1.1c0,0,-.4,.6,-1,.6Z"/></clipPath>
<clipPath id="ch_482"><path d="M-2.6,1047.7V-2.6H910.2V1047.7Z"/></clipPath>
<style type="text/css"><![CDATA[
.g0_482{
fill: #B8B8B8;
}
.g1_482{
fill: none;
stroke: #000000;
stroke-width: 1.675;
stroke-linecap: butt;
stroke-linejoin: miter;
stroke-miterlimit: 4;
}
.g2_482{
fill: #393939;
}
.g3_482{
fill: none;
stroke: #404040;
stroke-width: 2.898;
stroke-linecap: butt;
stroke-linejoin: miter;
stroke-miterlimit: 4;
}
.g4_482{
fill: #FFFFFF;
}
.g5_482{
}
.g6_482{
fill: none;
stroke: #000000;
stroke-width: 1.527;
stroke-linecap: butt;
stroke-linejoin: miter;
stroke-miterlimit: 4;
}
.g7_482{
fill: none;
stroke: #FFFFFF;
stroke-width: 1.909;
stroke-linecap: butt;
stroke-linejoin: miter;
}
.g8_482{
fill: none;
stroke: #000000;
stroke-width: 0.381;
stroke-linecap: butt;
stroke-linejoin: miter;
}
]]></style>
</defs>
<path d="M102.2,193.6c5.4,0,9.8,-4.4,9.8,-9.8c0,-5.4,-4.4,-9.8,-9.8,-9.8c-5.4,0,-9.8,4.4,-9.8,9.8c0,5.4,4.4,9.8,9.8,9.8Z" class="g0_482"/>
<path d="M102.2,193.6c5.4,0,9.8,-4.4,9.8,-9.8c0,-5.4,-4.4,-9.8,-9.8,-9.8c-5.4,0,-9.8,4.4,-9.8,9.8c0,5.4,4.4,9.8,9.8,9.8Z" class="g1_482"/>
<path d="M487.6,351.1V449H679.3V351.1H487.6Z" class="g2_482"/>
<path d="M487.6,351.1V449H679.3V351.1H487.6Z" class="g3_482"/>
<path d="M488.6,351.7v12.6h189V351.7h-189Z" class="g4_482"/>
<path d="M102.2,663.1c5.4,0,9.8,-4.3,9.8,-9.7c0,-5.4,-4.4,-9.8,-9.8,-9.8c-5.4,0,-9.8,4.4,-9.8,9.8c0,5.4,4.4,9.7,9.8,9.7Z" class="g0_482"/>
<path d="M102.2,663.1c5.4,0,9.8,-4.3,9.8,-9.7c0,-5.4,-4.4,-9.8,-9.8,-9.8c-5.4,0,-9.8,4.4,-9.8,9.8c0,5.4,4.4,9.7,9.8,9.7Z" class="g1_482"/>
<path d="M516.6,643.5v97.8H708.3V643.5H516.6Z" class="g2_482"/>
<path d="M516.6,643.4v97.9H708.3V643.4H516.6Z" class="g3_482"/>
<path d="M517.6,644.1v12.6h189V644.1h-189Z" class="g4_482"/>
<path d="M103.5,858.6c5.4,0,9.8,-4.3,9.8,-9.7c0,-5.4,-4.4,-9.8,-9.8,-9.8c-5.4,0,-9.8,4.4,-9.8,9.8c0,5.4,4.4,9.7,9.8,9.7Z" class="g0_482"/>
<path d="M103.5,858.6c5.4,0,9.8,-4.3,9.8,-9.7c0,-5.4,-4.4,-9.8,-9.8,-9.8c-5.4,0,-9.8,4.4,-9.8,9.8c0,5.4,4.4,9.7,9.8,9.7Z" class="g1_482"/>
<path d="M517.9,849.6v97.9H709.6V849.6H517.9Z" class="g2_482"/>
<path d="M517.9,849.6v97.9H709.6V849.6H517.9Z" class="g3_482"/>
<path d="M518.9,850.3v12.6h189V850.3h-189Z" class="g4_482"/>
<path d="M780.5,342.4c0,-.3,-.1,-.6,-.3,-.9c-.3,-.4,-.7,-.5,-1.1,-.6c-.3,-.1,-.7,-.2,-1.1,-.2c-.8,0,-1.6,.2,-2,.2c-.9,0,-1.5,.3,-1.9,.5c-.5,.3,-.7,.4,-1.2,.5l.1,.8l.8,.1c0,-.7,.1,-1.5,.1,-2.3c0,-.5,0,-1,-.1,-1.5c0,-.6,-.3,-1.4,-.6,-2.1c-.2,-.4,-.4,-.8,-.6,-1.1c-.2,-.3,-.5,-.6,-.9,-.8c-.5,-.3,-1.1,-.3,-1.6,-.3c-1.1,0,-2.2,.1,-2.8,.1c-7.6,0,-15.1,0,-22.7,0h-.8v48.9H781v-.8l-.2,-41.3v-.3c-.1,-.1,-.9,-1.6,-2.4,-3.2c-.8,-.8,-1.7,-1.6,-2.8,-2.2c-1,-.6,-2.3,-1.1,-3.6,-1.1v1.6c1,0,2,.3,2.9,.8c1.3,.8,2.5,2,3.3,3c.4,.5,.7,1,.9,1.3c.1,.2,.2,.3,.2,.4l.1,.1l.7,-.4h-.8l.2,41.3h.7v-.7H744.6v.7h.7V335.6h-.7v.8c7.6,0,15.1,0,22.7,0c.8,0,1.9,-.2,2.8,-.2c.4,0,.8,.1,.9,.1c.1,0,.2,.2,.4,.4c.2,.3,.4,.8,.6,1.3c.2,.4,.3,.9,.3,1.1c.1,.5,.1,.9,.1,1.4c0,.7,-.1,1.5,-.1,2.1l-.1,1l.9,-.2c.9,-.1,1.4,-.4,1.8,-.6c.3,-.3,.5,-.4,1.2,-.4c.6,0,1.3,-.1,1.9,-.1c.4,0,.7,0,.9,.1h.1v.1l1.5,-.1Z" class="g5_482"/>
<image clip-path="url(#c0_482)" preserveAspectRatio="none" x="760" y="328" width="28" height="27" xlink:href="img/1.jpg"/>
<image clip-path="url(#c1_482)" preserveAspectRatio="none" x="778" y="328" width="10" height="2" xlink:href="img/2.jpg"/>
<image clip-path="url(#c2_482)" preserveAspectRatio="none" x="760" y="334" width="21" height="21" xlink:href="img/3.jpg"/>
<image clip-path="url(#c3_482)" preserveAspectRatio="none" x="760" y="338" width="9" height="5" xlink:href="img/4.jpg"/>
<image clip-path="url(#c4_482)" preserveAspectRatio="none" x="760" y="338" width="9" height="5" xlink:href="img/5.jpg"/>
<image clip-path="url(#c5_482)" preserveAspectRatio="none" x="760" y="346" width="16" height="4" xlink:href="img/6.jpg"/>
<image clip-path="url(#c6_482)" preserveAspectRatio="none" x="760" y="346" width="16" height="4" xlink:href="img/7.jpg"/>
<image clip-path="url(#c7_482)" preserveAspectRatio="none" x="760" y="353" width="9" height="2" xlink:href="img/8.jpg"/>
<image clip-path="url(#c8_482)" preserveAspectRatio="none" x="760" y="353" width="9" height="2" xlink:href="img/9.jpg"/>
<path d="M771.8,335.7c0,.2,.3,.4,.4,.6c.1,.3,.2,.7,.3,1.1c0,.2,.1,.4,.1,.6c0,.2,0,.3,0,.5c.1,.3,.1,.6,.1,1c.1,.2,.1,.3,.1,.5c.1,.1,.1,.3,.1,.4c0,.4,-.1,.8,0,1.2c0,.1,.1,.2,.1,.3v.4c0,.2,.1,.5,.2,.7l.2,-.1l.3,-.2l.4,-.2l.4,-.1c.2,-.2,.6,-.2,.9,-.3c.4,-.1,1,-.1,1.4,-.2c.6,-.2,1.3,-.1,1.9,-.1c.2,0,.5,0,.7,0h.4l.3,-.1c-.2,-.3,-.4,-.6,-.6,-.9c-.3,-.4,-.7,-.7,-.9,-1.1c-.2,-.2,-.4,-.3,-.5,-.5c-.1,-.2,-.3,-.3,-.4,-.4c-.5,-.4,-.8,-.8,-1.2,-1.1c-.3,-.1,-.6,-.3,-.9,-.5c-.5,-.4,-1.1,-.7,-1.6,-.8c-.3,-.1,-.5,-.2,-.7,-.3H773c-.2,-.1,-.3,-.1,-.4,-.2c-.2,0,-.3,0,-.5,0c-.1,-.1,-.3,-.2,-.5,-.1l.1,.1Z" class="g4_482"/>
<path d="M771.8,335.7c0,.2,.3,.4,.4,.6c.1,.3,.2,.7,.3,1.1c0,.2,.1,.4,.1,.6c0,.2,0,.3,0,.5c.1,.3,.1,.7,.1,1c.1,.2,.1,.3,.2,.5c0,.2,0,.3,0,.5c0,.3,-.1,.7,0,1.1c0,.1,.1,.2,.1,.3v.4c0,.2,.1,.5,.2,.7l.2,-.1l.3,-.2l.4,-.2l.4,-.1c.2,-.2,.6,-.2,.9,-.3c.4,-.1,1,-.1,1.4,-.2c.6,-.2,1.3,-.1,1.9,-.1c.3,0,.5,0,.7,0h.4l.3,-.1c-.2,-.3,-.4,-.6,-.6,-.9c-.3,-.4,-.7,-.7,-.9,-1.1c-.2,-.2,-.3,-.3,-.5,-.5c-.1,-.2,-.3,-.3,-.4,-.4c-.4,-.4,-.8,-.8,-1.2,-1.1c-.3,-.1,-.6,-.3,-.9,-.5c-.5,-.4,-1.1,-.7,-1.6,-.8c-.2,-.1,-.5,-.2,-.7,-.3H773c-.2,0,-.3,-.1,-.4,-.2c-.2,0,-.3,0,-.5,0c-.1,-.1,-.3,-.2,-.5,-.1l.1,.1" class="g6_482"/>
<path d="M780.5,422.8c0,-.3,-.1,-.7,-.3,-.9c-.3,-.4,-.7,-.6,-1.1,-.7c-.3,-.1,-.7,-.1,-1.1,-.1c-.8,0,-1.6,.1,-2,.2c-.9,0,-1.5,.3,-1.9,.5c-.5,.3,-.7,.4,-1.2,.5l.1,.8l.8,.1c0,-.8,.1,-1.5,.1,-2.3c0,-.5,0,-1,-.1,-1.5c0,-.6,-.3,-1.4,-.6,-2.1c-.2,-.4,-.4,-.8,-.6,-1.1c-.2,-.3,-.5,-.6,-.9,-.8c-.5,-.3,-1.1,-.3,-1.6,-.3c-1.1,0,-2.2,.1,-2.8,.1c-7.6,0,-15.1,0,-22.7,0h-.8v48.9H781v-.8L780.8,422v-.4c-.1,0,-.9,-1.5,-2.4,-3.1c-.8,-.8,-1.7,-1.6,-2.8,-2.2c-1,-.7,-2.3,-1.1,-3.6,-1.1v1.5c1,0,2,.4,2.9,.9c1.3,.8,2.5,2,3.3,3c.4,.5,.7,.9,.9,1.3c.1,.1,.2,.3,.2,.4l.1,.1l.7,-.4h-.8l.2,41.3h.7v-.8H744.6v.8h.7V416h-.7v.7c7.6,0,15.1,0,22.7,0c.8,0,1.9,-.1,2.8,-.1c.4,0,.8,0,.9,.1c.1,0,.2,.2,.4,.4c.2,.3,.4,.8,.6,1.3c.2,.4,.3,.9,.3,1.1c.1,.5,.1,.9,.1,1.4c0,.7,-.1,1.4,-.1,2.1l-.1,1l.9,-.2c.9,-.1,1.4,-.4,1.8,-.7c.3,-.2,.5,-.3,1.2,-.3c.6,0,1.3,-.1,1.9,-.1c.4,-.1,.7,0,.9,.1h.1v.1l1.5,-.1Z" class="g5_482"/>
<image clip-path="url(#c9_482)" preserveAspectRatio="none" x="760" y="408" width="28" height="28" xlink:href="img/10.jpg"/>
<image clip-path="url(#ca_482)" preserveAspectRatio="none" x="760" y="415" width="21" height="21" xlink:href="img/11.jpg"/>
<image clip-path="url(#cb_482)" preserveAspectRatio="none" x="760" y="419" width="9" height="4" xlink:href="img/12.jpg"/>
<image clip-path="url(#cc_482)" preserveAspectRatio="none" x="760" y="419" width="9" height="4" xlink:href="img/13.jpg"/>
<image clip-path="url(#cd_482)" preserveAspectRatio="none" x="760" y="426" width="16" height="5" xlink:href="img/14.jpg"/>
<image clip-path="url(#ce_482)" preserveAspectRatio="none" x="760" y="426" width="16" height="5" xlink:href="img/15.jpg"/>
<image clip-path="url(#cf_482)" preserveAspectRatio="none" x="760" y="433" width="9" height="3" xlink:href="img/16.jpg"/>
<image clip-path="url(#cg_482)" preserveAspectRatio="none" x="760" y="433" width="9" height="3" xlink:href="img/17.jpg"/>
<path d="M771.8,416.1c0,.2,.3,.4,.4,.6c.1,.3,.2,.7,.3,1.1c0,.2,.1,.3,.1,.5c0,.2,0,.4,0,.6c.1,.3,.1,.6,.1,1c.1,.2,.1,.3,.1,.5c.1,.1,.1,.3,.1,.4c0,.4,-.1,.8,0,1.1c0,.2,.1,.3,.1,.4v.4c0,.2,.1,.4,.2,.7l.2,-.1l.3,-.2l.4,-.2l.4,-.1c.2,-.2,.6,-.2,.9,-.3c.4,-.1,1,-.1,1.4,-.2c.6,-.2,1.3,-.1,1.9,-.1c.2,0,.5,0,.7,0h.4l.3,-.1c-.2,-.3,-.4,-.6,-.6,-.9c-.3,-.4,-.7,-.7,-.9,-1.1c-.2,-.2,-.4,-.3,-.5,-.5c-.1,-.2,-.3,-.3,-.4,-.5c-.5,-.3,-.8,-.7,-1.2,-1c-.3,-.2,-.6,-.4,-.9,-.6c-.5,-.3,-1.1,-.6,-1.6,-.8c-.3,0,-.5,-.1,-.7,-.2H773c-.2,-.1,-.3,-.1,-.4,-.2c-.2,0,-.3,0,-.5,0c-.1,-.1,-.3,-.2,-.5,-.1l.1,.1Z" class="g4_482"/>
<path d="M771.8,416.1c0,.2,.3,.4,.4,.6c.1,.3,.2,.7,.3,1.1c0,.2,.1,.4,.1,.5c0,.3,0,.4,0,.6c.1,.3,.1,.6,.1,1c.1,.2,.1,.3,.2,.5c0,.1,0,.3,0,.4c0,.4,-.1,.8,0,1.2c0,.1,.1,.2,.1,.3v.4c0,.2,.1,.5,.2,.7l.2,-.1l.3,-.2l.4,-.2l.4,-.1c.2,-.2,.6,-.2,.9,-.3c.4,-.1,1,-.1,1.4,-.2c.6,-.2,1.3,-.1,1.9,-.1c.3,0,.5,0,.7,0h.4l.3,-.1c-.2,-.3,-.4,-.6,-.6,-.9c-.3,-.4,-.7,-.7,-.9,-1.1c-.2,-.2,-.3,-.3,-.5,-.5c-.1,-.2,-.3,-.3,-.4,-.5c-.4,-.3,-.8,-.7,-1.2,-1c-.3,-.2,-.6,-.3,-.9,-.6c-.5,-.3,-1.1,-.6,-1.6,-.8c-.2,0,-.5,-.1,-.7,-.2H773c-.2,-.1,-.3,-.1,-.4,-.2c-.2,0,-.3,0,-.5,0c-.1,-.1,-.3,-.2,-.5,-.1l.1,.1" class="g6_482"/>
<g clip-path="url(#ch_482)">
<path d="M-4.5,13.7H-27.4m939.5,0H935M-4.5,1031.2H-27.4m939.5,0H935M13.7,-4.5V-27.4m0,1077v22.9m880,-1077V-27.4m0,1077v22.9" class="g7_482"/>
<path d="M-4.5,13.7H-27.4m939.5,0H935M-4.5,1031.2H-27.4m939.5,0H935M13.7,-4.5V-27.4m0,1077v22.9m880,-1077V-27.4m0,1077v22.9" class="g8_482"/>
</g>
</svg>