<?xml version="1.0" encoding="UTF-8" standalone="no"?>
<!DOCTYPE svg PUBLIC "-//W3C//DTD SVG 1.1//EN"
"http://www.w3.org/Graphics/SVG/1.1/DTD/svg11.dtd">
<svg viewBox="0 0 907 1045" version="1.1" xmlns="http://www.w3.org/2000/svg" xmlns:xlink="http://www.w3.org/1999/xlink">
<defs>
<clipPath id="c0_226"><path d="M120.2,572.9V528.8H247.5v44.1Z"/></clipPath>
<clipPath id="c1_226"><path d="M298.8,181.6V115.2h57.4v66.4Z"/></clipPath>
<clipPath id="c2_226"><path d="M298,339.5V323.9H435.1v15.6ZM440.2,321.2v-3.1h1.5v3.1Zm2.5,0v-3.1h13.2v3.1ZM274.4,339.5V299.9H297v4.4H278.8v19.6H297v15.6ZM298,304.3v-4.4H434.9v4.4Z"/></clipPath>
<clipPath id="c3_226"><path d="M297,339.5V323.9h1v15.6Zm0,-35.2v-4.4h1v4.4Z"/></clipPath>
<clipPath id="c4_226"><path d="M441.7,321.2v-3.1h1v3.1Z"/></clipPath>
<clipPath id="c5_226"><path d="M298,323.9v-.5H435.1v.5Zm141.7,-2.7v-3.1h.5v3.1Zm-160.9,2.7V304.3H297v.5H279.3v18.6H297v.5ZM298,304.8v-.5H434.9v.5Z"/></clipPath>
<clipPath id="c6_226"><path d="M297,323.9v-.5h1v.5Zm0,-19.1v-.5h1v.5Z"/></clipPath>
<clipPath id="c7_226"><path d="M439.1,383.2v-2.8h1.8V360.8h.8v22.4Zm8.5,12.3V383.2h-4.9V360.8h13.7v34.7Zm-152.5,0V341.2H297v54.3Zm2.9,0V341.2H435.1v4.5H299.5v34.7H438.2v2.8H308.3v12.3Z"/></clipPath>
<clipPath id="c8_226"><path d="M438.2,383.2v-2.8h.9v2.8ZM297,395.5V341.2h1v54.3Z"/></clipPath>
<clipPath id="c9_226"><path d="M441.7,383.2V360.8h1v22.4Z"/></clipPath>
<clipPath id="ca_226"><path d="M439.1,380.4v-.5h1.3V360.8h.5v19.6Zm-139.6,0V345.7H435.1v.5H300v33.7H438.2v.5Z"/></clipPath>
<clipPath id="cb_226"><path d="M438.2,380.4v-.5h.9v.5Z"/></clipPath>
<clipPath id="cc_226"><path d="M298,286.8V271H434.9v15.8Zm-22.3,0V232.5H297V237H280.1v34H297v15.8ZM298,237v-4.5H438.2V237Zm141.1,0v-4.5h2.6V237Zm4.6,26.9V237h-1v-4.5H459v31.4Z"/></clipPath>
<clipPath id="cd_226"><path d="M297,286.8V271h1v15.8ZM297,237v-4.5h1V237Zm141.2,0v-4.5h.9V237Z"/></clipPath>
<clipPath id="ce_226"><path d="M441.7,237v-4.5h1V237Z"/></clipPath>
<clipPath id="cf_226"><path d="M298,271v-.5H434.9v.5Zm-17.9,0V237H297v.4H280.6v33.1H297v.5ZM298,237.4V237H438.2v.4Zm141.1,0V237h2.6v.4Zm4.1,26.5V237.4h-.5V237h1v26.9Z"/></clipPath>
<clipPath id="cg_226"><path d="M297,271v-.5h1v.5Zm0,-33.6V237h1v.4Zm141.2,0V237h.9v.4Z"/></clipPath>
<clipPath id="ch_226"><path d="M441.7,237.4V237h1v.4Z"/></clipPath>
<clipPath id="ci_226"><path d="M434.9,299.9V286.8h3.3v13.1Zm4.2,0V286.8h2.6v13.1Zm16.8,18.2V299.9H442.7V286.8H459V263.9H582.8v54.2Zm127.9,0V263.9H587v54.2Zm4.1,0V263.9h30.3v54.2Z"/></clipPath>
<clipPath id="cj_226"><path d="M438.2,299.9V286.8h.9v13.1Z"/></clipPath>
<clipPath id="ck_226"><path d="M441.7,299.9V286.8h1v13.1Zm141.1,18.2V263.9h1v54.2Z"/></clipPath>
<clipPath id="cl_226"><path d="M587,318.1V263.9h.9v54.2Z"/></clipPath>
<clipPath id="cm_226"><path d="M434.9,304.3v-4.4h3.3v4.4Zm5.3,13.8V304.3h-1.1v-4.4h2.6v18.2Zm2.5,0V299.9h13.2v18.2Z"/></clipPath>
<clipPath id="cn_226"><path d="M438.2,304.3v-4.4h.9v4.4Z"/></clipPath>
<clipPath id="co_226"><path d="M441.7,318.1V299.9h1v18.2Z"/></clipPath>
<clipPath id="cp_226"><path d="M434.9,318.1V305.3h4.4v12.8Z"/></clipPath>
<clipPath id="cq_226"><path d="M434.9,304.8v-.5h3.3v.5Zm4.8,13.3V304.8h-.6v-.5h1.1v13.8Z"/></clipPath>
<clipPath id="cr_226"><path d="M438.2,304.8v-.5h.9v.5Z"/></clipPath>
<clipPath id="cs_226"><path d="M439.3,318.1V305.3h-4.4v-.5h4.8v13.3Z"/></clipPath>
<clipPath id="ct_226"><path d="M434.9,286.8V271h3.3v15.8Zm4.2,0V271h2.6v15.8Zm3.6,0V271h1v-7.1H459v22.9Z"/></clipPath>
<clipPath id="cu_226"><path d="M438.2,286.8V271h.9v15.8Z"/></clipPath>
<clipPath id="cv_226"><path d="M441.7,286.8V271h1v15.8Z"/></clipPath>
<clipPath id="cw_226"><path d="M434.9,270v-6.1h7.8V270Z"/></clipPath>
<clipPath id="cx_226"><path d="M434.9,271v-.5h3.3v.5Zm4.2,0v-.5h2.6v.5Zm3.6,0v-.5h.5v-6.6h.5V271Z"/></clipPath>
<clipPath id="cy_226"><path d="M438.2,271v-.5h.9v.5Z"/></clipPath>
<clipPath id="cz_226"><path d="M441.7,271v-.5h1v.5Z"/></clipPath>
<clipPath id="c10_226"><path d="M434.9,270.5V270h7.8v-6.1h.5v6.6Z"/></clipPath>
<clipPath id="c11_226"><path d="M435.1,341.2v-1.7h3.1v1.7Zm4,0v-1.7h2.6v1.7Zm17.3,19.6V341.2H442.7v-1.7h13.2V321.2H582.8v39.6Zm127.4,0V321.2H587v39.6Zm4.1,0V321.2h28.7v39.6Z"/></clipPath>
<clipPath id="c12_226"><path d="M438.2,341.2v-1.7h.9v1.7Z"/></clipPath>
<clipPath id="c13_226"><path d="M441.7,341.2v-1.7h1v1.7Zm141.1,19.6V321.2h1v39.6Z"/></clipPath>
<clipPath id="c14_226"><path d="M587,360.8V321.2h.9v39.6Z"/></clipPath>
<clipPath id="c15_226"><path d="M435.1,339.5V323.9h3.1v15.6Zm4,0V323.9h1.1v-2.7h1.5v18.3Zm3.6,0V321.2h13.2v18.3Z"/></clipPath>
<clipPath id="c16_226"><path d="M438.2,339.5V323.9h.9v15.6Z"/></clipPath>
<clipPath id="c17_226"><path d="M441.7,339.5V321.2h1v18.3Z"/></clipPath>
<clipPath id="c18_226"><path d="M435.1,322.9v-1.7h4.2v1.7Z"/></clipPath>
<clipPath id="c19_226"><path d="M435.1,323.9v-.5h3.1v.5Zm4,0v-.5h.7v-2.2h.4v2.7Z"/></clipPath>
<clipPath id="c1a_226"><path d="M438.2,323.9v-.5h.9v.5Z"/></clipPath>
<clipPath id="c1b_226"><path d="M435.1,323.4v-.5h4.2v-1.7h.5v2.2Z"/></clipPath>
<clipPath id="c1c_226"><path d="M435.1,345.7v-4.5h3.1v4.5Zm5.8,15.1V345.7h-1.8v-4.5h2.6v19.6Zm1.8,0V341.2h13.7v19.6Z"/></clipPath>
<clipPath id="c1d_226"><path d="M438.2,345.7v-4.5h.9v4.5Z"/></clipPath>
<clipPath id="c1e_226"><path d="M441.7,360.8V341.2h1v19.6Z"/></clipPath>
<clipPath id="c1f_226"><path d="M435.1,360.8V346.6h4.8v14.2Z"/></clipPath>
<clipPath id="c1g_226"><path d="M435.1,346.2v-.5h3.1v.5Zm5.3,14.6V346.2h-1.3v-.5h1.8v15.1Z"/></clipPath>
<clipPath id="c1h_226"><path d="M438.2,346.2v-.5h.9v.5Z"/></clipPath>
<clipPath id="c1i_226"><path d="M439.9,360.8V346.6h-4.8v-.4h5.3v14.6Z"/></clipPath>
<clipPath id="c1j_226"><path d="M447.8,465.5V411.2h135v42H453.1v12.3Zm136,-12.3v-42H587v42Zm8.7,12.3V453.2h-4.6v-42h21.2v54.3Z"/></clipPath>
<clipPath id="c1k_226"><path d="M582.8,453.2v-42h1v42Z"/></clipPath>
<clipPath id="c1l_226"><path d="M587,453.2v-42h.9v42Z"/></clipPath>
<clipPath id="c1m_226"><path d="M308.3,422.8V395.5H438.1v27.3Zm130.8,0V395.5h2.6v27.3Zm3.6,0V395.5h4.9v27.3Z"/></clipPath>
<clipPath id="c1n_226"><path d="M438.1,422.8V395.5h1v27.3Z"/></clipPath>
<clipPath id="c1o_226"><path d="M441.7,422.8V395.5h1v27.3Z"/></clipPath>
<clipPath id="c1p_226"><path d="M308.3,395.5V383.2H438.1v12.3Zm130.8,0V383.2h2.6v12.3Zm3.6,0V383.2h4.9v12.3Z"/></clipPath>
<clipPath id="c1q_226"><path d="M438.1,395.5V383.2h1v12.3Z"/></clipPath>
<clipPath id="c1r_226"><path d="M441.7,395.5V383.2h1v12.3Z"/></clipPath>
<clipPath id="c1s_226"><path d="M453.1,476.6V465.5H582.8v11.1Zm0,16.2V477.6H583.8V465.5H587v12.1h5.5v15.2ZM587.9,476.6V465.5h4.6v11.1Z"/></clipPath>
<clipPath id="c1t_226"><path d="M453.1,477.6v-1H582.8V465.5h1v12.1Z"/></clipPath>
<clipPath id="c1u_226"><path d="M587,477.6V465.5h.9v11.1h4.6v1Z"/></clipPath>
<clipPath id="c1v_226"><path d="M453.1,465.5V453.2H582.8v12.3Zm130.7,0V453.2H587v12.3Zm4.1,0V453.2h4.6v12.3Z"/></clipPath>
<clipPath id="c1w_226"><path d="M582.8,465.5V453.2h1v12.3Z"/></clipPath>
<clipPath id="c1x_226"><path d="M587,465.5V453.2h.9v12.3Z"/></clipPath>
<clipPath id="c1y_226"><path d="M298.7,181.6V115.2h57.5v66.4Z"/></clipPath>
<clipPath id="c1z_226"><path d="M-2.6,1047.7V-2.6H910.2V1047.7Z"/></clipPath>
<style type="text/css"><![CDATA[
.g0_226{
}
.g1_226{
fill: #B6B6B6;
}
.g2_226{
fill: #333333;
}
.g3_226{
fill: #7C7C7C;
}
.g4_226{
fill: #909090;
}
.g5_226{
fill: #727272;
}
.g6_226{
fill: #C8C8C8;
}
.g7_226{
fill: #ACACAC;
}
.g8_226{
fill: #A8A8A8;
}
.g9_226{
fill: #E5E5E5;
}
.ga_226{
fill: #D2D2D2;
}
.gb_226{
fill: #CFCFCF;
}
.gc_226{
fill: #ECECEC;
}
.gd_226{
fill: #DDDDDD;
}
.ge_226{
fill: #DBDBDB;
}
.gf_226{
fill: #D6D6D6;
}
.gg_226{
fill: #3C3C3C;
}
.gh_226{
fill: #FFFFFF;
}
.gi_226{
fill: none;
stroke: #000000;
stroke-width: 1.156;
stroke-linecap: butt;
stroke-linejoin: miter;
stroke-miterlimit: 4;
}
.gj_226{
fill: none;
stroke: #000000;
stroke-width: 1.124;
stroke-linecap: butt;
stroke-linejoin: miter;
stroke-miterlimit: 4;
}
.gk_226{
fill: none;
stroke: #000000;
stroke-width: 0.963;
stroke-linecap: butt;
stroke-linejoin: miter;
stroke-miterlimit: 4;
}
.gl_226{
fill: none;
stroke: #3D3D3D;
stroke-width: 1.527;
stroke-linecap: butt;
stroke-linejoin: miter;
stroke-miterlimit: 4;
}
.gm_226{
fill: none;
stroke: #FFFFFF;
stroke-width: 1.909;
stroke-linecap: butt;
stroke-linejoin: miter;
}
.gn_226{
fill: none;
stroke: #000000;
stroke-width: 0.381;
stroke-linecap: butt;
stroke-linejoin: miter;
}
]]></style>
</defs>
<path d="M120.2,528.8v52h131v-52h-131Z" class="gh_226"/>
<g clip-path="url(#c0_226)">
<path d="M160.2,569.4l-.8,-.2l.2,.7l7,.9l-4.9,-4.2l-.6,.3l-.3,.4l-.2,.5l-.3,.4l-.1,.8v.4Z" class="g0_226"/>
<path d="M150.3,559v0l.9,1.1l.7,1l.2,.6l.3,.7l.2,.7l.1,.7v.6l-.2,.7l-.4,.5l-.6,.7l-.8,.4l-1,.4l9.7,2.1l-.3,-.9l-.1,-.8l.2,-.8l.2,-.5l.2,-.4l.3,-.3l.3,-.2l1.5,1.3l-3.3,-3.5l-2.6,-2.8l-1,-1.3l-.6,-1l-.1,.3l-.2,.3l-.2,.3l-.5,.2l-.7,.2h-1l-1.2,-.3Z" class="g1_226"/>
<path d="M159.4,569.2l.8,.2V569l.1,-.8l.3,-.4l.2,-.5l.3,-.4l.6,-.3l-1.5,-1.3l-.3,.2l-.3,.3l-.2,.4l-.2,.5l-.2,.8l.1,.8l.3,.9Z" class="g2_226"/>
<path d="M129.5,550.3v0l1.7,1.1l1.8,1l3.5,2.4l3.5,2.6l3.3,2.5l2.8,2.3l2.2,1.9l1.9,1.7l-.3,.4l.7,-.6l.5,-.6l.2,-.8l.1,-.7l-.1,-.7l-.2,-.7l-.2,-.7l-.4,-.7l-.7,-1.3l-.7,-1l-1,-.9l.9,.3l1,.3l1,.2h.9l1.7,-.2l.6,-.1l-1.3,-.3l-1.3,-.6l-2.9,-1.4l-3,-1.5l-3,-1.9l-2.9,-1.9l-2.7,-1.7l-3.8,-2.8l-1.2,.4l-.7,.5l-.7,.5l-.5,.5l-.4,.7l-.2,.6l-.1,.6v.6Z" class="g3_226"/>
<path d="M149.6,567.1v0h.1h-.1Z" class="g3_226"/>
<path d="M149.9,566.2v0l-.3,.9h.1l1,-.4l.8,-.4l.6,-.7l.4,-.5l.2,-.7v-.6l-.1,-.7l-.2,-.7l-.3,-.7l-.2,-.6l-.7,-1l-.9,-1.1l1.2,.3h1l.7,-.2l.5,-.2l.2,-.3l.2,-.3l.1,-.3l-.6,.1l-1.7,.2H151l-1,-.2l-1,-.3l-.9,-.3l1,.9l.7,1l.7,1.3l.4,.7l.2,.7l.2,.7l.1,.7l-.1,.7l-.2,.8l-.5,.6l-.7,.6Z" class="g4_226"/>
<path d="M121.7,543.1v0l-.3,.7l-.1,.5v1l.2,.9l.4,.6l.5,.6l.4,.3l.6,.3l1,.2l-.1,-.8l.1,-.7l.2,-.6l.1,-.6l.2,-.5l.4,-.5l.7,-.7l.7,-.7l.7,-.3l.6,-.3l.6,-.1l-.8,-.7l-.5,-.4l-.7,-.3l-.6,-.3h-.8l-.9,.1l-.9,.3l-.6,.3l-.4,.5l-.5,.6l-.2,.6Z" class="g5_226"/>
<path d="M126,548.7v0l1.7,.8l-.1,-.7l.1,-.6l.2,-.6l.3,-.7l.6,-.6l.7,-.5l1.1,-.6l1.3,-.3l1.4,1l.4,-.2l-.3,-.3l-1,-1.1l-.7,-.5l-.8,-.6l-1,-.4l-1.1,-.4h-.2l.4,.7l-.7,.2l-.5,.2l-.5,.3l-.3,.3l-.4,.4l-.2,.3l-.4,.9l-.1,.9l-.1,.8v.7l.2,.6Z" class="g6_226"/>
<path d="M127.7,549.5v0l1.8,.8v-.6l.1,-.6l.2,-.6l.4,-.7l.5,-.5l.7,-.5l.7,-.5l1.2,-.4l-1.4,-1l-1.3,.3l-1.1,.6l-.7,.5l-.6,.6l-.3,.7l-.2,.6l-.1,.6l.1,.7Z" class="g7_226"/>
<path d="M124.4,548.2v0l1.6,.5l-.2,-.6v-.7l.1,-.8l.1,-.9l.4,-.9l.2,-.3l.4,-.4l.3,-.3l.5,-.3l.5,-.2l.7,-.2l-.4,-.7l-.6,.1l-.6,.3l-.7,.3l-.7,.7l-.7,.7l-.4,.5l-.2,.5l-.1,.6l-.2,.6l-.1,.7l.1,.8Z" class="g8_226"/>
<path d="M148.6,566.9h.1h-.1Z" class="g9_226"/>
<path d="M148.7,566.9v0l.4,.3l.5,-.1l-.9,-.2Z" class="ga_226"/>
<path d="M129.7,551.7v0l1.4,.8l1.5,.9l3,2.1l3,2.2l2.8,2.3l2.5,2.3l2.1,1.9l2.7,2.7l.6,-.3l.6,-.4l.3,-.4l-1.9,-1.7l-2.2,-1.9l-2.8,-2.3L140,557.4l-3.5,-2.6L133,552.4l-1.8,-1l-1.7,-1.1v.8l.2,.6Z" class="g4_226"/>
<path d="M148.7,566.9l.9,.2l.3,-.9l-.6,.4l-.6,.3Z" class="g4_226"/>
<path d="M121.7,542.1v0L121,544l-.6,2l.1,.7l.4,.6l.5,.4l.4,.5l.6,.4l.7,.4l.7,.2l.8,.3l-.2,-1.3l-1,-.2l-.6,-.3l-.4,-.3l-.5,-.6l-.4,-.6l-.2,-.9v-1l.1,-.5l.3,-.7l.2,-.6l.5,-.6l.4,-.5l.6,-.3l-1,.5l-.7,.5Z" class="gb_226"/>
<path d="M130.5,553.5v0l-.4,-.5l-.2,-.6l-.2,-.7l-1.7,-.8l-.2,-.4l-.1,-.4v-.6l-1.7,-.8l.2,.7l-.9,.1h-.7l.1,.5l.5,.6l.5,.5l.8,.7l.8,.6l1,.5l1,.5h.6l.6,.1Z" class="gc_226"/>
<path d="M128,550.9v0l1.7,.8l-.2,-.6v-.8l-1.8,-.8v.6l.1,.4l.2,.4Z" class="gd_226"/>
<path d="M126,548.7v0l-1.6,-.5l.2,1.3h.7l.9,-.1l-.2,-.7Z" class="ge_226"/>
<path clip-path="url(#c0_226)" d="M120.4,546v0l.6,-2l.7,-1.9l-.4,.4l-.4,.5l-.3,.4l-.2,.5l-.1,.6l-.1,.5l.1,.6l.1,.4Z" class="gf_226"/>
<path d="M147.4,566.6v0l-4.3,-3.4l-4.5,-3.5L134,556.3l-2.3,-1.5l-2.4,-1.4l-.1,.3l1.2,.7l1.2,.8l2.3,1.6l4.6,3.4l4.5,3.4l2.1,1.6l2.1,1.8v-.1l.2,-.3Z" class="gg_226"/>
<path d="M153.3,555.6v0l-5,-2.3l-4.9,-2.5L141,549.6l-2.4,-1.3l-2.4,-1.5l-2.3,-1.5l-.2,.4l2.3,1.5l2.3,1.4l2.4,1.4l2.5,1.2l5,2.4L153,556l.3,-.4Z" class="gg_226"/>
<path d="M130.5,554.6v0l-.6,-.8l-.4,-.8l-.3,-.9l-.1,-1l.1,-1.1l.3,-1l.4,-1l.3,-.4l.4,-.4l.8,-.6l.9,-.5l.9,-.4l1.1,-.3L134,545l-1,.3l-.9,.4l-1,.6l-.8,.7l-.5,.4l-.3,.5l-.4,1l-.4,1.1v1.2l.1,1l.3,1l.5,.9l.4,.4l.3,.4l.2,-.3Z" class="gg_226"/>
<path d="M127.4,552.1v0l-.3,-.7l-.3,-.8v-.7l-.2,-.7v-.8l.1,-.8l.2,-.7l.2,-.8l.4,-.6l.5,-.6l.5,-.5l.6,-.4l.7,-.4l.7,-.2l.6,-.1h.8v-.5l-.7,.1l-.9,.1l-.7,.3l-.7,.3l-.6,.4l-.6,.6l-.6,.6l-.4,.7l-.2,.8l-.2,.8l-.1,.8v.9l.1,.7l.2,.8l.2,.8l.4,.8l.3,-.2Z" class="gg_226"/>
<path d="M125.7,550.3v0l-.3,-1.2v-2.2l.2,-1.1l.3,-.7l.3,-.6l.4,-.5l.4,-.5l.6,-.4l.5,-.3l1.3,-.7l-.2,-.4l-1.3,.7l-.6,.3l-.6,.5l-.4,.5l-.4,.6l-.4,.6l-.3,.7l-.1,1.2l-.2,1.2l.1,1.2l.3,1.2l.4,-.1Z" class="gg_226"/>
<path d="M131.7,543.7v0l-1.4,-1.2l-1.4,-1.2l-.2,.3l1.3,1.2l1.4,1.2l.3,-.3Z" class="gg_226"/>
<path d="M128.4,552v0l-1.8,-1.1l-1.9,-.9l-.2,.4l1.8,.9l1.9,1.1l.2,-.4Z" class="gg_226"/>
<path d="M124,549.3v0l-.9,-.6l-1,-.7l-.4,-.5l-.4,-.3l-.2,-.7l-.2,-.5l-.1,-.9v-.8l.3,-.9l.3,-.7l.6,-.7l.8,-.6l.7,-.4l.8,-.3l.9,-.2h.8l1,.2l.8,.3l.2,-.4l-.9,-.4l-.9,-.1h-1l-1,.2l-.9,.3l-.8,.5l-.8,.6l-.6,.7l-.3,.6l-.2,.5l-.2,.5l.1,.6l-.1,1.1l.3,1l.2,.6l.4,.5l.7,.7l.8,.6l1.1,.5l.1,-.3Z" class="gg_226"/>
<path d="M151.6,558.7v0L149,557.4l-2.6,-1.3l-2.5,-1.5l-2.5,-1.4L136.6,550l-4.8,-3.2l-.2,.4l4.8,3.2l4.9,3.1l2.4,1.5l2.5,1.5l2.6,1.3l2.6,1.3l.2,-.4Z" class="gg_226"/>
<image x="149" y="558" width="5" height="9" xlink:href="shade/1.png"/>
<path d="M155.1,558.2v0l-.9,.2l-1,.1l-1.8,.2v.5l2,-.3l.9,-.1l1,-.2l-.2,-.4Z" class="gg_226"/>
<path d="M168.1,571.2v0l-4.6,-1l-4.7,-.8l-4.6,-.8l-4.6,-.7v.4l4.5,.7l4.7,.7l4.6,.9l4.6,1.1l.1,-.5Z" class="gg_226"/>
<path d="M168.2,570.7v0l-3.6,-3.3l-3.4,-3.5L158,560.3l-3.2,-3.7l-.3,.2l3.1,3.8l3.3,3.6l3.5,3.5l3.5,3.3l.3,-.3Z" class="gg_226"/>
<path d="M161.7,569.7v0l-.2,-.5l-.2,-.7v-1.3l.3,-.5l.3,-.6l.3,-.5l.5,-.4l-.2,-.4l-.5,.5l-.5,.6l-.4,.6l-.1,.7l-.2,.6l.1,.8l.2,.7l.2,.6l.4,-.2Z" class="gg_226"/>
</g>
<path d="M113.5,526V953.3H610.8V526H113.5Z" class="gi_226"/>
<path d="M198.6,641.2v25.7H544.7V641.2H198.6Zm1.2,95.6v79.9H545.9V736.8H199.8Z" class="gj_226"/>
<path d="M198,673.9v12.7h46.1V673.9H198Z" class="gh_226"/>
<path d="M198,673.9v12.7h46.1V673.9H198Z" class="gj_226"/>
<path d="M272.3,105.9V495H680.9V105.9H272.3Z" class="gk_226"/>
<path d="M297.5,195.3H297V477.6H439.1V194.8H297v.5h.5v.5H438.6v-.5h-.4V477.1h.4v-.5H297.5v.5h.5V195.3h-.5v.5v-.5Z" class="g0_226"/>
<path d="M442.2,195.3h-.5V477.6H583.8V194.8H441.7v.5h.5v.5H583.3v-.5h-.5V477.1h.5v-.5H442.2v.5h.5V195.3h-.5v.5v-.5Z" class="g0_226"/>
<path d="M587.5,195.3H587V477.6h80V194.8H587v.5h.5v.5h79v-.5h-.4V477.1h.4v-.5h-79v.5h.4V195.3h-.4v.5v-.5Z" class="g0_226"/>
<image clip-path="url(#c2_226)" preserveAspectRatio="none" x="274" y="300" width="182" height="40" xlink:href="img/1.jpg"/>
<image clip-path="url(#c3_226)" preserveAspectRatio="none" x="297" y="300" width="1" height="40" xlink:href="img/2.jpg"/>
<image clip-path="url(#c4_226)" preserveAspectRatio="none" x="441" y="318" width="2" height="4" xlink:href="img/3.jpg"/>
<image clip-path="url(#c5_226)" preserveAspectRatio="none" x="278" y="304" width="162" height="20" xlink:href="img/4.jpg"/>
<image clip-path="url(#c6_226)" preserveAspectRatio="none" x="297" y="304" width="1" height="20" xlink:href="img/5.jpg"/>
<path d="M279.3,304.8v18.6H439.7V304.8H279.3Z" class="gh_226"/>
<path d="M279.3,304.8h-.5v19.1H440.2V304.3H278.8v.5h.5v.5H439.7v-.5h-.4v18.6h.4v-.5H279.3v.5h.5V304.8h-.5v.5v-.5Z" class="g0_226"/>
<image clip-path="url(#c7_226)" preserveAspectRatio="none" x="295" y="341" width="162" height="55" xlink:href="img/6.jpg"/>
<image clip-path="url(#c8_226)" preserveAspectRatio="none" x="297" y="341" width="143" height="55" xlink:href="img/7.jpg"/>
<image clip-path="url(#c9_226)" preserveAspectRatio="none" x="441" y="360" width="2" height="23" xlink:href="img/8.jpg"/>
<image clip-path="url(#ca_226)" preserveAspectRatio="none" x="299" y="345" width="142" height="36" xlink:href="img/9.jpg"/>
<image clip-path="url(#cb_226)" preserveAspectRatio="none" x="438" y="379" width="2" height="2" xlink:href="img/10.jpg"/>
<path d="M300,346.2v33.7H440.4V346.2H300Z" class="gh_226"/>
<path d="M300,346.2h-.5v34.2H440.9V345.7H299.5v.5h.5v.4H440.4v-.4h-.5v33.7h.5v-.5H300v.5h.5V346.2H300v.4v-.4Z" class="g0_226"/>
<image clip-path="url(#cc_226)" preserveAspectRatio="none" x="275" y="232" width="184" height="55" xlink:href="img/11.jpg"/>
<image clip-path="url(#cd_226)" preserveAspectRatio="none" x="297" y="232" width="143" height="55" xlink:href="img/12.jpg"/>
<image clip-path="url(#ce_226)" preserveAspectRatio="none" x="441" y="232" width="2" height="5" xlink:href="img/13.jpg"/>
<image clip-path="url(#cf_226)" preserveAspectRatio="none" x="280" y="237" width="164" height="34" xlink:href="img/14.jpg"/>
<image clip-path="url(#cg_226)" preserveAspectRatio="none" x="297" y="237" width="143" height="34" xlink:href="img/15.jpg"/>
<image clip-path="url(#ch_226)" preserveAspectRatio="none" x="441" y="237" width="2" height="1" xlink:href="img/16.jpg"/>
<path d="M280.6,237.4v33.1H443.2V237.4H280.6Z" class="gh_226"/>
<path d="M280.6,237.4h-.5V271H443.7V237H280.1v.4h.5v.5H443.2v-.5h-.5v33.1h.5V270H280.6v.5h.5V237.4h-.5v.5v-.5Z" class="g0_226"/>
<image clip-path="url(#ci_226)" preserveAspectRatio="none" x="435" y="264" width="184" height="55" xlink:href="img/17.jpg"/>
<image clip-path="url(#cj_226)" preserveAspectRatio="none" x="438" y="286" width="2" height="14" xlink:href="img/18.jpg"/>
<image clip-path="url(#ck_226)" preserveAspectRatio="none" x="441" y="264" width="143" height="55" xlink:href="img/19.jpg"/>
<image clip-path="url(#cl_226)" preserveAspectRatio="none" x="587" y="264" width="1" height="55" xlink:href="img/20.jpg"/>
<image clip-path="url(#cm_226)" preserveAspectRatio="none" x="435" y="299" width="21" height="20" xlink:href="img/21.jpg"/>
<image clip-path="url(#cn_226)" preserveAspectRatio="none" x="438" y="299" width="2" height="6" xlink:href="img/22.jpg"/>
<image clip-path="url(#co_226)" preserveAspectRatio="none" x="441" y="299" width="2" height="20" xlink:href="img/23.jpg"/>
<image clip-path="url(#cp_226)" preserveAspectRatio="none" x="435" y="305" width="5" height="14" xlink:href="img/24.jpg"/>
<image clip-path="url(#cq_226)" preserveAspectRatio="none" x="435" y="304" width="6" height="15" xlink:href="img/25.jpg"/>
<image clip-path="url(#cr_226)" preserveAspectRatio="none" x="438" y="304" width="2" height="1" xlink:href="img/26.jpg"/>
<image clip-path="url(#cs_226)" preserveAspectRatio="none" x="435" y="305" width="5" height="14" xlink:href="img/27.jpg"/>
<image clip-path="url(#ct_226)" preserveAspectRatio="none" x="435" y="264" width="24" height="23" xlink:href="img/28.jpg"/>
<image clip-path="url(#cu_226)" preserveAspectRatio="none" x="438" y="270" width="2" height="17" xlink:href="img/29.jpg"/>
<image clip-path="url(#cv_226)" preserveAspectRatio="none" x="441" y="270" width="2" height="17" xlink:href="img/30.jpg"/>
<image clip-path="url(#cw_226)" preserveAspectRatio="none" x="435" y="264" width="8" height="6" xlink:href="img/31.jpg"/>
<image clip-path="url(#cx_226)" preserveAspectRatio="none" x="435" y="264" width="9" height="7" xlink:href="img/32.jpg"/>
<image clip-path="url(#cy_226)" preserveAspectRatio="none" x="438" y="270" width="2" height="1" xlink:href="img/33.jpg"/>
<image clip-path="url(#cz_226)" preserveAspectRatio="none" x="441" y="270" width="2" height="1" xlink:href="img/34.jpg"/>
<image clip-path="url(#c10_226)" preserveAspectRatio="none" x="435" y="264" width="9" height="7" xlink:href="img/35.jpg"/>
<path d="M439.8,268.8v33H602.4v-33H439.8Z" class="gh_226"/>
<path d="M439.8,268.8v33H602.4v-33H439.8Z" class="gk_226"/>
<image clip-path="url(#c11_226)" preserveAspectRatio="none" x="435" y="321" width="182" height="40" xlink:href="img/36.jpg"/>
<image clip-path="url(#c12_226)" preserveAspectRatio="none" x="438" y="339" width="2" height="3" xlink:href="img/37.jpg"/>
<image clip-path="url(#c13_226)" preserveAspectRatio="none" x="441" y="321" width="143" height="40" xlink:href="img/38.jpg"/>
<image clip-path="url(#c14_226)" preserveAspectRatio="none" x="587" y="321" width="1" height="40" xlink:href="img/39.jpg"/>
<image clip-path="url(#c15_226)" preserveAspectRatio="none" x="435" y="321" width="21" height="19" xlink:href="img/40.jpg"/>
<image clip-path="url(#c16_226)" preserveAspectRatio="none" x="438" y="323" width="2" height="17" xlink:href="img/41.jpg"/>
<image clip-path="url(#c17_226)" preserveAspectRatio="none" x="441" y="321" width="2" height="19" xlink:href="img/42.jpg"/>
<image clip-path="url(#c18_226)" preserveAspectRatio="none" x="435" y="321" width="5" height="2" xlink:href="img/43.jpg"/>
<image clip-path="url(#c19_226)" preserveAspectRatio="none" x="435" y="321" width="6" height="3" xlink:href="img/44.jpg"/>
<image clip-path="url(#c1a_226)" preserveAspectRatio="none" x="438" y="323" width="2" height="1" xlink:href="img/45.jpg"/>
<image clip-path="url(#c1b_226)" preserveAspectRatio="none" x="435" y="321" width="5" height="3" xlink:href="img/46.jpg"/>
<image clip-path="url(#c1c_226)" preserveAspectRatio="none" x="435" y="341" width="22" height="20" xlink:href="img/47.jpg"/>
<image clip-path="url(#c1d_226)" preserveAspectRatio="none" x="438" y="341" width="2" height="5" xlink:href="img/48.jpg"/>
<image clip-path="url(#c1e_226)" preserveAspectRatio="none" x="441" y="341" width="2" height="20" xlink:href="img/49.jpg"/>
<image clip-path="url(#c1f_226)" preserveAspectRatio="none" x="435" y="346" width="5" height="15" xlink:href="img/50.jpg"/>
<image clip-path="url(#c1g_226)" preserveAspectRatio="none" x="435" y="345" width="6" height="16" xlink:href="img/51.jpg"/>
<image clip-path="url(#c1h_226)" preserveAspectRatio="none" x="438" y="345" width="2" height="2" xlink:href="img/52.jpg"/>
<image clip-path="url(#c1i_226)" preserveAspectRatio="none" x="435" y="346" width="6" height="15" xlink:href="img/53.jpg"/>
<path d="M440.1,326.1v18.7H600.5V326.1H440.1Z" class="gh_226"/>
<path d="M440,326.2v18.6H600.5V326.2H440Z" class="gk_226"/>
<image clip-path="url(#c1j_226)" preserveAspectRatio="none" x="447" y="411" width="163" height="55" xlink:href="img/54.jpg"/>
<image clip-path="url(#c1k_226)" preserveAspectRatio="none" x="582" y="411" width="2" height="43" xlink:href="img/55.jpg"/>
<image clip-path="url(#c1l_226)" preserveAspectRatio="none" x="587" y="411" width="1" height="43" xlink:href="img/56.jpg"/>
<path d="M452.7,416.1v33.7H593.2V416.1H452.7Z" class="gh_226"/>
<path d="M452.7,416.1v33.7H593.2V416.1H452.7Z" class="gk_226"/>
<image clip-path="url(#c1m_226)" preserveAspectRatio="none" x="308" y="395" width="140" height="28" xlink:href="img/57.jpg"/>
<image clip-path="url(#c1n_226)" preserveAspectRatio="none" x="438" y="395" width="2" height="28" xlink:href="img/58.jpg"/>
<image clip-path="url(#c1o_226)" preserveAspectRatio="none" x="441" y="395" width="2" height="28" xlink:href="img/59.jpg"/>
<image clip-path="url(#c1p_226)" preserveAspectRatio="none" x="308" y="383" width="140" height="13" xlink:href="img/60.jpg"/>
<image clip-path="url(#c1q_226)" preserveAspectRatio="none" x="438" y="383" width="2" height="13" xlink:href="img/61.jpg"/>
<image clip-path="url(#c1r_226)" preserveAspectRatio="none" x="441" y="383" width="2" height="13" xlink:href="img/62.jpg"/>
<path d="M313.2,388.1v19H432v-19H313.2Z" class="gh_226"/>
<path d="M313.2,388.1v19H432v-19H313.2Z" class="gk_226"/>
<image clip-path="url(#c1s_226)" preserveAspectRatio="none" x="453" y="465" width="140" height="28" xlink:href="img/63.jpg"/>
<image clip-path="url(#c1t_226)" preserveAspectRatio="none" x="453" y="465" width="131" height="13" xlink:href="img/64.jpg"/>
<image clip-path="url(#c1u_226)" preserveAspectRatio="none" x="587" y="465" width="6" height="13" xlink:href="img/65.jpg"/>
<image clip-path="url(#c1v_226)" preserveAspectRatio="none" x="453" y="453" width="140" height="13" xlink:href="img/66.jpg"/>
<image clip-path="url(#c1w_226)" preserveAspectRatio="none" x="583" y="453" width="1" height="13" xlink:href="img/67.jpg"/>
<image clip-path="url(#c1x_226)" preserveAspectRatio="none" x="587" y="453" width="1" height="13" xlink:href="img/68.jpg"/>
<path d="M458.1,458.1v19.1H576.8V458.1H458.1Z" class="gh_226"/>
<path d="M458.1,458.1v19.1H576.8V458.1H458.1Z" class="gk_226"/>
<g clip-path="url(#c1y_226)">
<image clip-path="url(#c1_226)" preserveAspectRatio="none" x="299" y="115" width="57" height="67" xlink:href="img/69.jpg"/>
</g>
<path d="M706.3,416.7c1.6,-1.6,-1.1,-5.3,-1.9,-6.5c-2.3,-3.5,-5.1,-6.2,-8.2,-8.9c-1.8,-1.5,-3.7,-2.9,-6,-3.7c-2.1,-.8,-4.2,-1.3,-6.3,-1.9c-2.6,-.8,-5.3,-1.7,-8.1,-1.8c-1.9,-.1,-3.8,-.8,-5.7,-1.1c.2,-.2,.5,-.6,.8,-.8c.7,-.4,2,-.2,2.3,-.8c-.6,.2,-1,.5,-1.5,1c-.6,.5,-2.2,1.7,-2.5,2.3c-.2,.1,-.3,.3,-.3,.5c.4,.3,.6,.6,.9,.9c.6,.6,1.9,2.7,2.8,2.7m24,27.9c-1.8,.7,-3.2,1.7,-4.9,2.3c-2.3,.8,-4.6,1.7,-6.9,2.3c-2.4,.7,-4.5,.3,-7,.1c-.7,0,-1.4,-.1,-2.1,-.2c-.6,-.4,-1.1,-.7,-1.7,-1.1c-1.1,-.5,-2.2,-.6,-3.2,-1.1c-1.2,-.6,-2.3,-1,-3.4,-1.8c-.9,-.5,-1.6,-1.2,-2.4,-1.8c-.4,-.3,-1,-.5,-1.2,-.9c.2,1.6,.1,3.2,.1,4.9c0,-1.2,0,-2.3,-.1,-3.4c-.1,-1.2,-.5,-2.4,-.4,-3.7c1.8,-.1,4.1,2.1,6,1.2c0,-.2,0,-.3,0,-.5M691.5,288.1c-5.1,-.1,-10.8,2,-14.9,5.1c-3.1,2.2,-5.9,5,-8.6,7.7c-3.9,3.7,-6.4,7.1,-7.2,12.5c-.6,3.5,-.8,6.8,-2,10.2c-.5,1.5,-1.2,3,-2,4.3c-1.7,2.5,-4.3,4,-6.4,6c-2.1,1.9,-3.6,4.4,-6.2,5.7c-3.2,1.7,-7.3,2.4,-10.9,2.9c-3.3,.4,-6.6,.6,-9.8,1.7c-3.8,1.2,-7.4,2.2,-11.3,2.6c-6.9,.6,-12.8,2.3,-19.2,4.9c-3.9,1.7,-8,1.7,-12.2,1.8c-2.1,0,-6.4,0,-8.2,1.3c.9,-1.7,3.3,-3.3,3.6,-5.1c-.9,.4,-1.4,1.3,-2.1,2c-1.6,1.4,-5.4,2.3,-6,4.5c1.9,1.4,4.8,2.5,7.2,2.3" class="gl_226"/>
<g clip-path="url(#c1z_226)">
<path d="M-4.5,13.7H-27.4m939.5,0H935M-4.5,1031.2H-27.4m939.5,0H935M13.7,-4.5V-27.4m0,1077v22.9m880,-1077V-27.4m0,1077v22.9" class="gm_226"/>
<path d="M-4.5,13.7H-27.4m939.5,0H935M-4.5,1031.2H-27.4m939.5,0H935M13.7,-4.5V-27.4m0,1077v22.9m880,-1077V-27.4m0,1077v22.9" class="gn_226"/>
</g>
</svg>