<?xml version="1.0" encoding="UTF-8" standalone="no"?>
<!DOCTYPE svg PUBLIC "-//W3C//DTD SVG 1.1//EN"
"http://www.w3.org/Graphics/SVG/1.1/DTD/svg11.dtd">
<svg viewBox="0 0 931 1096" version="1.1" xmlns="http://www.w3.org/2000/svg" xmlns:xlink="http://www.w3.org/1999/xlink">
<defs>
<clipPath id="c0_335"><path d="M387.2,733.2V653.4H833.5v79.8Z"/></clipPath>
<clipPath id="c1_335"><path d="M485.5,979.5V948.2h69.7v31.3Z"/></clipPath>
<clipPath id="c2_335"><path d="M485.5,1033v-32.8h73.3V1033Z"/></clipPath>
<style type="text/css"><![CDATA[
.g0_335{
fill: #FFF;
}
.g1_335{
fill: none;
stroke: #00AEEF;
stroke-width: 1.145;
}
.g2_335{
fill: none;
stroke: #00AEEF;
stroke-width: 0.763;
}
.g3_335{
fill: none;
stroke: #241F1F;
stroke-width: 0.611;
stroke-miterlimit: 3;
}
.g4_335{
fill: none;
stroke: #EE008C;
stroke-width: 0.916;
stroke-miterlimit: 3;
}
.g5_335{
fill: #EE008C;
}
.g6_335{
fill: none;
stroke: #EE008C;
stroke-width: 0.763;
stroke-miterlimit: 3;
}
.g7_335{
fill: #241F1F;
}
.g8_335{
fill: none;
stroke: #241F1F;
stroke-width: 0.381;
stroke-miterlimit: 3;
}
.g9_335{
fill: none;
stroke: #241F1F;
stroke-width: 0.534;
stroke-miterlimit: 3;
}
.ga_335{
fill: none;
stroke: #241F1F;
stroke-width: 0.763;
stroke-miterlimit: 3;
}
.gb_335{
fill: #E8F6FE;
}
.gc_335{
fill: none;
stroke: #241F1F;
stroke-width: 0.763;
stroke-miterlimit: 10;
}
.gd_335{
fill: none;
stroke: #241F1F;
stroke-width: 0.687;
stroke-miterlimit: 10;
}
]]></style>
</defs>
<path d="M345.7,206.2c0,0,-3.1,0,-3.1,3V364.3c0,0,0,3,3.1,3H875.1c0,0,3,0,3,-3V209.2c0,0,0,-3,-3,-3Z" class="g0_335"/>
<path d="M358.8,220.9c0,0,-1.5,0,-1.5,1.5v14.1c0,0,0,1.6,1.5,1.6H373c0,0,1.5,0,1.5,-1.6V222.4c0,0,0,-1.5,-1.5,-1.5H358.8Z" class="g1_335"/>
<path d="M345.7,206.2c0,0,-3.1,0,-3.1,3V364.3c0,0,0,3,3.1,3H875.1c0,0,3,0,3,-3V209.2c0,0,0,-3,-3,-3H345.7Z" class="g2_335"/>
<path d="M700.3,684.9H828.6" class="g3_335"/>
<path d="M516.9,684.9H700.3" class="g4_335"/>
<path d="M606.9,684.9c0,-.9,.8,-1.7,1.7,-1.7c1,0,1.7,.8,1.7,1.7c0,1,-.7,1.7,-1.7,1.7c-.9,0,-1.7,-.7,-1.7,-1.7Z" class="g5_335"/>
<path d="M606.9,684.9c0,-.9,.8,-1.7,1.7,-1.7c1,0,1.7,.8,1.7,1.7c0,1,-.7,1.7,-1.7,1.7c-.9,0,-1.7,-.7,-1.7,-1.7Z" class="g6_335"/>
<path d="M388.6,684.9H516.9" class="g3_335"/>
<path fill-rule="evenodd" d="M828.6,684.9L827,682.5l6.5,2.4l-6.5,2.5Z" class="g7_335"/>
<path d="M536.4,723.1H453.6v-4.6" class="g8_335"/>
<path d="M453.6,715.2l1.6,4.4l-1.6,-1.1l-1.7,1.1Z" class="g7_335"/>
<path clip-path="url(#c0_335)" d="M829.8,711.9h-60c-2.9,.1,-5.2,-.2,-5.3,2.4c-.1,-2.6,-2.4,-2.3,-5.4,-2.4H705.9c-2.9,-.1,-5.5,-.7,-5.6,-3.3m-184,0c0,2.6,-2.4,3.2,-5.3,3.3H458.8c-3,.1,-5.3,-.2,-5.4,2.4c-.1,-2.6,-2.4,-2.3,-5.3,-2.4H387.2M517.5,678c.1,-2.6,2.5,-3.2,5.4,-3.3h79.7c2.9,-.1,5.3,.3,5.4,-2.3c.1,2.6,2.4,2.2,5.3,2.3H694c2.9,.1,5.6,.7,5.7,3.3" class="g9_335"/>
<path d="M515.2,684.9c0,-.9,.8,-1.7,1.7,-1.7c1,0,1.8,.8,1.8,1.7c0,1,-.8,1.7,-1.8,1.7c-.9,0,-1.7,-.7,-1.7,-1.7Z" class="g0_335"/>
<path d="M515.2,684.9c0,-.9,.8,-1.7,1.7,-1.7c1,0,1.8,.8,1.8,1.7c0,1,-.8,1.7,-1.8,1.7c-.9,0,-1.7,-.7,-1.7,-1.7Z" class="ga_335"/>
<path d="M698.6,684.9c0,-.9,.7,-1.7,1.7,-1.7c.9,0,1.7,.8,1.7,1.7c0,1,-.8,1.7,-1.7,1.7c-1,0,-1.7,-.7,-1.7,-1.7Z" class="g0_335"/>
<path d="M698.6,684.9c0,-.9,.7,-1.7,1.7,-1.7c.9,0,1.7,.8,1.7,1.7c0,1,-.8,1.7,-1.7,1.7c-1,0,-1.7,-.7,-1.7,-1.7Z" class="ga_335"/>
<path d="M680.8,723.1h83.7v-4.6" class="g8_335"/>
<path d="M764.5,715.2l1.6,4.4l-1.6,-1.1l-1.7,1.1Z" class="g7_335"/>
<path d="M342.6,813.1H467.9v27.5H342.6Zm125.3,0H576.4v27.5H467.9Zm108.5,0H727.6v27.5H576.4Zm151.2,0H878.9v27.5H727.6Z" class="gb_335"/>
<path d="M467.9,840.2V813.4m108.5,26.8V813.4m151.2,26.8V813.4m-259.7,73V840.9m108.5,45.5V840.9m151.2,45.5V840.9M467.9,936.8V886.4m108.5,50.4V886.4m151.2,50.4V886.4M467.9,987.2V936.8m108.5,50.4V936.8m151.2,50.4V936.8M467.9,1041.9V987.2m108.5,54.7V987.2m151.2,54.7V987.2M342.6,886.4V840.9m536.3,45.5V840.9M342.6,936.8V886.4m536.3,50.4V886.4M342.6,987.2V936.8m536.3,50.4V936.8M342.6,1041.9V987.2m536.3,54.7V987.2m-536.7,55H467.9m0,0H576.4m0,0H727.6m0,0H879.3M342.2,813.1H467.9m0,0H576.4m0,0H727.6m0,0H879.3M342.2,840.6H467.9m0,0H576.4m0,0H727.6m0,0H879.3m-536.7,-.4V813.4m536.3,26.8V813.4" class="gc_335"/>
<path clip-path="url(#c1_335)" d="M504.8,963.8h50.8" class="gd_335"/>
<path clip-path="url(#c2_335)" d="M504.8,1016.4h54.3" class="gd_335"/>
<path d="M108.5,222.7c7,0,11.8,-30.9,18.3,-30.9c5.7,0,10.5,34.9,16.6,34.9c9,0,12.4,-40.3,19.1,-40.3c6.1,0,11.7,52.4,17.5,52.4c10,0,12.7,-104.9,21.6,-104.9c9,0,11.7,104.9,21.7,104.9c5.7,0,11.4,-52.4,17.5,-52.4c6.7,0,10.1,40.3,19,40.3c6.2,0,11,-34.9,16.7,-34.9c6.5,0,11.2,30.9,18.3,30.9" class="g4_335"/>
<path d="M258.8,204.2v6.1M144.4,204.2v6.1" class="ga_335"/>
<path d="M201.6,253V106.4" class="g3_335"/>
<path fill-rule="evenodd" d="M201.6,106.4l-2.4,1.6l2.4,-6.5l2.5,6.5Z" class="g7_335"/>
<path d="M108.5,207.2H294.8" class="g3_335"/>
<path fill-rule="evenodd" d="M294.8,207.2l-1.6,-2.4l6.5,2.4l-6.5,2.5Z" class="g7_335"/>
<path d="M198.6,133.9h6.1" class="g3_335"/>
</svg>