<?xml version="1.0" encoding="UTF-8" standalone="no"?>
<!DOCTYPE svg PUBLIC "-//W3C//DTD SVG 1.1//EN"
"http://www.w3.org/Graphics/SVG/1.1/DTD/svg11.dtd">
<svg viewBox="0 0 907 1045" version="1.1" xmlns="http://www.w3.org/2000/svg" xmlns:xlink="http://www.w3.org/1999/xlink">
<defs>
<clipPath id="c0_344"><path d="M430.5,963.9V943h26.6V745.4h21V963.9Z"/></clipPath>
<clipPath id="c1_344"><path d="M194.3,963.9V943H431.2v20.9Z"/></clipPath>
<clipPath id="c2_344"><path d="M193.6,943V744.6H457.1v.8H194.3V943Z"/></clipPath>
<clipPath id="c3_344"><path d="M194.3,943V745.4H457.1V943Z"/></clipPath>
<clipPath id="c4_344"><path d="M684.9,209.4v-104H808.3v104Z"/></clipPath>
<clipPath id="c5_344"><path d="M-2.6,1047.7V-2.6H910.2V1047.7Z"/></clipPath>
<style type="text/css"><![CDATA[
.g0_344{
fill: none;
stroke: #636363;
stroke-width: 1.527;
stroke-linecap: butt;
stroke-linejoin: miter;
stroke-miterlimit: 4;
}
.g1_344{
fill: none;
stroke: #FFFFFF;
stroke-width: 1.909;
stroke-linecap: butt;
stroke-linejoin: miter;
}
.g2_344{
fill: none;
stroke: #000000;
stroke-width: 0.381;
stroke-linecap: butt;
stroke-linejoin: miter;
}
]]></style>
</defs>
<image clip-path="url(#c0_344)" preserveAspectRatio="none" x="430" y="745" width="48" height="219" xlink:href="img/1.jpg"/>
<image clip-path="url(#c1_344)" preserveAspectRatio="none" x="194" y="909" width="237" height="55" xlink:href="img/2.jpg"/>
<image clip-path="url(#c2_344)" preserveAspectRatio="none" x="193" y="744" width="265" height="200" xlink:href="img/3.jpg"/>
<image clip-path="url(#c3_344)" preserveAspectRatio="none" x="194" y="745" width="263" height="198" xlink:href="img/4.jpg"/>
<path d="M535.5,514.3C532.4,502.1,520.6,501.7,510.7,499c-9.8,-2.7,-21.2,-4.8,-31.5,-4.8c-12.7,0,-25.3,0,-34.2,9.7c1.1,-2.2,2.9,-4.2,3.4,-6.2c-1.3,4.1,-6.6,7.4,-6.9,12.1c1.5,-4.4,9.4,-5.6,13.6,-6.1M476,833.5c-7,-10.4,-16.2,-18.6,-28.3,-21.8c-13.3,-3.4,-27.4,-2.5,-41,-2.6c-6.8,0,-13.3,1,-20,1.1c-2.3,0,-4.7,-.2,-7,-.1c-3.8,.3,-6.7,1.8,-10.4,2.6c-4.6,.9,-7.8,1.2,-12,3.3c-2.2,1.1,-5,1.9,-7.1,3.2c-2,1.2,-1.6,3,-4.2,2.5c-1,-2.3,2.3,-5.3,3.2,-7.5c-1.8,2.4,-1.3,5,-2.5,7.4c-1.4,3.1,-3.4,4.7,-4,8.4c1.7,-.8,3.3,-.3,5,-.7c4.4,-1.1,7,-2.3,11.9,-2.2" class="g0_344"/>
<image clip-path="url(#c4_344)" preserveAspectRatio="none" x="685" y="105" width="124" height="105" xlink:href="img/5.jpg"/>
<path d="M614.2,376.2c-2.9,-1.9,-5.9,-2.6,-9.2,-3.6c-2.3,-.7,-4.7,-.6,-7.1,-1c-3.5,-.6,-6.4,-1.1,-10,-1.1c-4.2,.1,-8.4,-.4,-12.6,-.4c-3.8,0,-7.4,.4,-11.2,.4c-3.3,0,-6.5,-.4,-9.8,-.4c-2.4,0,-4.7,-.1,-7.1,.1c-3,.2,-5.8,1.3,-8.9,1.6c-4.7,.5,-9.4,.2,-14.1,.2c-5.2,.1,-10.1,1.4,-15.3,2.1c-3.4,.4,-6.9,.5,-10.4,1.2c-4.6,.9,-9.3,.2,-14,1c-2.5,.4,-4.7,1.1,-7.3,1.1c-2.8,.1,-5.4,0,-8.2,.3c-2,.2,-4,.4,-6,.5c-2.4,.2,-4.7,1,-7.1,1.1c-3.8,.2,-7.4,.3,-11.1,1c-4.1,.8,-8.4,1.2,-12.1,3.2c-1.2,.7,-2.4,1.6,-3.8,1.8c-1.3,.2,-2.6,-.1,-3.5,.9c.1,-2.8,4,-4.1,5.8,-5.5c-1.4,1.1,-2.9,2.5,-4.1,3.8c-1,1.2,-2.3,2.5,-2.6,4c.5,.1,1.3,.2,1.8,.4c1,.4,1.6,1.5,2.7,1.5M492.6,283.6c-4.5,-2.8,-10.9,-2.7,-15.9,-2.8c-10.8,-.2,-21.5,1.5,-31.5,5.3c-6.5,2.5,-12.6,5.6,-18.5,9.3c-6.9,4.5,-11.1,10.9,-16.1,17.1c-1.5,1.5,-2.7,3.1,-3.6,4.9c-1.1,2.2,-1.6,4.7,-2.5,7c-1.6,4.4,-3,8.6,-3.4,13.3c-.5,5.5,-.5,10.9,-1,16.3c-1.8,.3,-3.1,-3,-4.5,-3.6c.2,1.2,1.9,3.9,2.9,4.5c.6,.5,-.2,.2,.9,.4c1.8,-.7,3.5,-1.3,5.3,-1.9c1.8,-.6,3.6,-1,5.5,-1.4c.1,.2,.2,.4,.2,.7" class="g0_344"/>
<g clip-path="url(#c5_344)">
<path d="M-4.5,13.7H-27.4m939.5,0H935M-4.5,1031.2H-27.4m939.5,0H935M13.7,-4.5V-27.4m0,1077v22.9m880,-1077V-27.4m0,1077v22.9" class="g1_344"/>
<path d="M-4.5,13.7H-27.4m939.5,0H935M-4.5,1031.2H-27.4m939.5,0H935M13.7,-4.5V-27.4m0,1077v22.9m880,-1077V-27.4m0,1077v22.9" class="g2_344"/>
</g>
</svg>