<?xml version="1.0" encoding="UTF-8" standalone="no"?>
<!DOCTYPE svg PUBLIC "-//W3C//DTD SVG 1.1//EN"
"http://www.w3.org/Graphics/SVG/1.1/DTD/svg11.dtd">
<svg viewBox="0 0 907 1045" version="1.1" xmlns="http://www.w3.org/2000/svg" xmlns:xlink="http://www.w3.org/1999/xlink">
<defs>
<clipPath id="c0_652"><path d="M356.9,362.3c-11.2,-7.5,-24,-7.9,-19.8,-29.3c2.3,-11.3,10.8,-15.9,20.5,-19.9h10.7c24.7,11.2,18.9,38.9,-2.9,49.2Z"/></clipPath>
<clipPath id="c1_652"><path d="M175.9,453c-8.9,-5.9,-19,-6.2,-15.7,-23.1c1.8,-9,8.6,-12.6,16.2,-15.8h8.4c19.5,8.9,15,30.8,-2.2,38.9Z"/></clipPath>
<clipPath id="c2_652"><path d="M356.2,446.7c-9,-6,-19.5,-6.4,-16,-23.7c1.8,-9.2,8.7,-12.9,16.6,-16.1h8.6c20,9.1,15.3,31.5,-2.3,39.8Z"/></clipPath>
<clipPath id="c3_652"><path d="M560.5,454c-9,-6.1,-19.4,-6.4,-16,-23.7c1.8,-9.2,8.7,-12.9,16.6,-16.2h8.6c20,9.1,15.4,31.6,-2.3,39.9Z"/></clipPath>
<clipPath id="c4_652"><path d="M220,533.2c-8.8,-5.9,-19,-6.2,-15.7,-23.1c1.8,-9,8.6,-12.6,16.3,-15.8H229c19.5,8.9,15,30.8,-2.3,38.9Z"/></clipPath>
<clipPath id="c5_652"><path d="M393.1,531.9C384.2,526,374,525.7,377.4,508.8c1.8,-9,8.5,-12.6,16.2,-15.9H402c19.6,9,15.1,30.9,-2.2,39Z"/></clipPath>
<clipPath id="c6_652"><path d="M344.3,531.9c-8.8,-5.9,-19,-6.2,-15.6,-23.1c1.7,-9,8.5,-12.6,16.2,-15.9h8.4c19.6,9,15,30.9,-2.2,39Z"/></clipPath>
<clipPath id="c7_652"><path d="M173.2,535.9c-8.8,-5.9,-19,-6.3,-15.6,-23.2c1.7,-9,8.5,-12.6,16.2,-15.8h8.4c19.6,8.9,15,30.9,-2.2,39Z"/></clipPath>
<clipPath id="c8_652"><path d="M548,531.9c-8.9,-5.9,-19.1,-6.2,-15.7,-23.1c1.8,-9,8.6,-12.6,16.2,-15.9h8.4c19.6,9,15.1,30.9,-2.2,39Z"/></clipPath>
<clipPath id="c9_652"><path d="M598.7,530.5c-8.9,-5.9,-19.1,-6.2,-15.7,-23.1c1.8,-9,8.5,-12.6,16.2,-15.9h8.4c19.6,9,15.1,30.9,-2.2,39Z"/></clipPath>
<clipPath id="ca_652"><path d="M124,535.4c-8.9,-5.9,-19,-6.3,-15.7,-23.2c1.8,-9,8.6,-12.6,16.3,-15.8H133c19.5,8.9,15,30.8,-2.3,39Z"/></clipPath>
<clipPath id="cb_652"><path d="M242.2,608.2c-8.9,-5.9,-19.1,-6.3,-15.7,-23.2c1.8,-9,8.5,-12.6,16.2,-15.8h8.4c19.6,8.9,15,30.8,-2.2,39Z"/></clipPath>
<clipPath id="cc_652"><path d="M421.6,603.4c-8.9,-5.9,-19.1,-6.3,-15.7,-23.2c1.8,-9,8.5,-12.6,16.2,-15.8h8.4c19.6,8.9,15,30.8,-2.2,39Z"/></clipPath>
<clipPath id="cd_652"><path d="M300,536.7c-8.8,-5.9,-19,-6.2,-15.7,-23.2c1.8,-9,8.6,-12.6,16.3,-15.8H309c19.5,9,15,30.9,-2.3,39Z"/></clipPath>
<clipPath id="ce_652"><path d="M451.1,531.2c-8.8,-6,-19,-6.3,-15.7,-23.2c1.8,-9,8.6,-12.6,16.3,-15.8h8.4c19.5,8.9,15,30.8,-2.3,39Z"/></clipPath>
<clipPath id="cf_652"><path d="M473.3,606.1c-8.9,-6,-19.1,-6.3,-15.7,-23.2c1.8,-9,8.5,-12.6,16.2,-15.8h8.4c19.6,8.9,15,30.8,-2.2,39Z"/></clipPath>
<clipPath id="cg_652"><path d="M653,532.8c-8.8,-5.9,-19,-6.2,-15.7,-23.1c1.8,-9,8.6,-12.6,16.3,-15.9H662c19.5,9,15,30.9,-2.3,39Z"/></clipPath>
<clipPath id="ch_652"><path d="M681.5,604.3c-8.8,-5.9,-19,-6.3,-15.7,-23.2c1.8,-9,8.6,-12.6,16.3,-15.8h8.4c19.5,8.9,15,30.9,-2.3,39Z"/></clipPath>
<clipPath id="ci_652"><path d="M-2.6,1047.7V-2.6H910.2V1047.7Z"/></clipPath>
<style type="text/css"><![CDATA[
.g0_652{
fill: #FFFFFF;
}
.g1_652{
fill: none;
stroke: #000000;
stroke-width: 1.323;
stroke-linecap: butt;
stroke-linejoin: miter;
stroke-miterlimit: 4;
}
.g2_652{
}
.g3_652{
fill: none;
stroke: #454545;
stroke-width: 1.527;
stroke-linecap: butt;
stroke-linejoin: miter;
stroke-miterlimit: 4;
}
.g4_652{
fill: none;
stroke: #FFFFFF;
stroke-width: 1.909;
stroke-linecap: butt;
stroke-linejoin: miter;
}
.g5_652{
fill: none;
stroke: #000000;
stroke-width: 0.381;
stroke-linecap: butt;
stroke-linejoin: miter;
}
]]></style>
</defs>
<path d="M92.3,200.1v22.8H294.9V200.1H92.3Z" class="g0_652"/>
<path d="M91.4,754.3v22.3h294V754.3H91.4Z" class="g0_652"/>
<image clip-path="url(#c0_652)" preserveAspectRatio="none" x="336" y="312" width="51" height="52" xlink:href="img/1.jpg"/>
<image clip-path="url(#c1_652)" preserveAspectRatio="none" x="159" y="413" width="41" height="41" xlink:href="img/2.jpg"/>
<image clip-path="url(#c2_652)" preserveAspectRatio="none" x="339" y="406" width="42" height="42" xlink:href="img/3.jpg"/>
<image clip-path="url(#c3_652)" preserveAspectRatio="none" x="543" y="413" width="42" height="42" xlink:href="img/4.jpg"/>
<path d="M354,376.8l-154,38l154,-38Zm4.5,-.5l.5,17.9" class="g1_652"/>
<path d="M359.3,401.4l3.1,-9.4l-6.8,.2l3.7,9.2Z" class="g2_652"/>
<path d="M362.5,376.8l172.7,38.5" class="g1_652"/>
<path d="M542.3,416.9L534,411.6l-1.5,6.5l9.8,-1.2Z" class="g2_652"/>
<path d="M178.3,464.9l-.9,20.8" class="g1_652"/>
<path d="M177,492.9l3.8,-9.1l-6.7,-.3l2.9,9.4Z" class="g2_652"/>
<path d="M172.7,465.3l-31.4,22.2" class="g1_652"/>
<path d="M135.4,491.6l9.5,-2.6L141,483.5l-5.6,8.1Z" class="g2_652"/>
<path d="M185.4,464.9l18.7,21.7" class="g1_652"/>
<path d="M208.8,492.1l-3.5,-9.3l-5.1,4.4l8.6,4.9Z" class="g2_652"/>
<path d="M358.1,458.9l-48,32.1" class="g1_652"/>
<path d="M304.1,495l9.6,-2.3l-3.8,-5.6l-5.8,7.9Z" class="g2_652"/>
<path d="M362.1,458.4l-11.4,25.4" class="g1_652"/>
<path d="M347.8,490.3l6.8,-7l-6.1,-2.8l-.7,9.8Z" class="g2_652"/>
<path d="M365.5,458.9L378,482.6" class="g1_652"/>
<path d="M381.4,489l-1.3,-9.8l-6,3.2l7.3,6.6Z" class="g2_652"/>
<path d="M565.8,467.3l-8.4,14.8" class="g1_652"/>
<path d="M553.8,488.3l7.5,-6.3l-5.8,-3.4l-1.7,9.7Z" class="g2_652"/>
<path d="M571.7,466.9L583,483.2" class="g1_652"/>
<path d="M587.1,489.1l-2.5,-9.5l-5.6,3.8l8.1,5.7Z" class="g2_652"/>
<image clip-path="url(#c4_652)" preserveAspectRatio="none" x="203" y="493" width="41" height="41" xlink:href="img/5.jpg"/>
<image clip-path="url(#c5_652)" preserveAspectRatio="none" x="376" y="492" width="41" height="41" xlink:href="img/6.jpg"/>
<path d="M228.5,544.8l6.8,14.1" class="g1_652"/>
<path d="M238.4,565.4l-.9,-9.8l-6.1,2.9l7,6.9Z" class="g2_652"/>
<path d="M401.6,544.8l6.7,14.1" class="g1_652"/>
<path d="M411.5,565.4l-1,-9.8l-6.1,2.9l7.1,6.9Z" class="g2_652"/>
<image clip-path="url(#c6_652)" preserveAspectRatio="none" x="328" y="492" width="40" height="41" xlink:href="img/7.jpg"/>
<image clip-path="url(#c7_652)" preserveAspectRatio="none" x="156" y="496" width="41" height="41" xlink:href="img/8.jpg"/>
<image clip-path="url(#c8_652)" preserveAspectRatio="none" x="531" y="492" width="41" height="41" xlink:href="img/9.jpg"/>
<image clip-path="url(#c9_652)" preserveAspectRatio="none" x="582" y="490" width="41" height="42" xlink:href="img/10.jpg"/>
<image clip-path="url(#ca_652)" preserveAspectRatio="none" x="107" y="495" width="41" height="42" xlink:href="img/11.jpg"/>
<image clip-path="url(#cb_652)" preserveAspectRatio="none" x="225" y="568" width="41" height="41" xlink:href="img/12.jpg"/>
<image clip-path="url(#cc_652)" preserveAspectRatio="none" x="405" y="563" width="41" height="42" xlink:href="img/13.jpg"/>
<image clip-path="url(#cd_652)" preserveAspectRatio="none" x="283" y="497" width="41" height="41" xlink:href="img/14.jpg"/>
<path d="M373.9,458.9l59.5,28" class="g1_652"/>
<path d="M439.9,490L433,482.9l-2.9,6.2l9.8,.9Z" class="g2_652"/>
<image clip-path="url(#ce_652)" preserveAspectRatio="none" x="434" y="491" width="41" height="41" xlink:href="img/15.jpg"/>
<path d="M459.6,542.7l6.8,14.1" class="g1_652"/>
<path d="M469.5,563.3l-1,-9.8l-6,2.9l7,6.9Z" class="g2_652"/>
<image clip-path="url(#cf_652)" preserveAspectRatio="none" x="456" y="566" width="41" height="41" xlink:href="img/16.jpg"/>
<path d="M581.2,465.9l53.5,21.3" class="g1_652"/>
<path d="M641.4,489.9L634,483.3l-2.5,6.3l9.9,.3Z" class="g2_652"/>
<image clip-path="url(#cg_652)" preserveAspectRatio="none" x="636" y="493" width="41" height="41" xlink:href="img/17.jpg"/>
<path d="M661.5,545.7l6.8,14.1" class="g1_652"/>
<path d="M671.4,566.3l-1,-9.8l-6,2.9l7,6.9Z" class="g2_652"/>
<image clip-path="url(#ch_652)" preserveAspectRatio="none" x="665" y="564" width="41" height="41" xlink:href="img/18.jpg"/>
<path d="M550,369.1c-4.8,-.6,-4.3,7.5,-4.4,10.3c-4.3,-1.7,-8.4,-6.3,-10.8,-10.2c2.2,2.8,7,9.8,10.9,9.5c-6.7,-12.2,-3.3,-31.3,2.2,-43.4m-2.1,-15.9c-8,-2.3,-18.9,10,-23.9,14.6c-5.5,5.1,-9.9,11.2,-14.3,17.2c-.1,-4.9,-.7,-9.8,-1,-14.7c.4,5.5,-1.1,10.1,.2,15.6c3.3,1.8,6.8,.5,9.3,-2m26.5,-44.4c-8.1,-.5,-16.3,-3.2,-23.7,1.1c-4.2,2.4,-8.3,5.2,-11.9,8.2c-1.9,1.6,-3.7,4.6,-6.4,4.5c-1.2,-2.5,.8,-4.8,2,-6.9c-.7,4.7,-3.7,9.6,-3.1,14.3c3.8,-1.6,8.1,-4,12.4,-3.2M461.1,667.4c-6.3,6.1,-16.8,14.4,-26.4,10.8c-4.6,-1.7,-9.4,-7,-11.9,-10.9c-1.6,-3.2,-3.5,-6.1,-5.6,-9c-1.1,-1.6,-3.9,-7.7,-5.7,-9c-.6,5.2,0,10.7,-.1,15.9c1.3,-4.3,1,-9,.5,-13.4c3,.6,7.5,2.1,10.1,-.3" class="g3_652"/>
<g clip-path="url(#ci_652)">
<path d="M-4.5,13.7H-27.4m939.5,0H935M-4.5,1031.2H-27.4m939.5,0H935M13.7,-4.5V-27.4m0,1077v22.9m880,-1077V-27.4m0,1077v22.9" class="g4_652"/>
<path d="M-4.5,13.7H-27.4m939.5,0H935M-4.5,1031.2H-27.4m939.5,0H935M13.7,-4.5V-27.4m0,1077v22.9m880,-1077V-27.4m0,1077v22.9" class="g5_652"/>
</g>
</svg>