<?xml version="1.0" encoding="UTF-8" standalone="no"?>
<!DOCTYPE svg PUBLIC "-//W3C//DTD SVG 1.1//EN"
"http://www.w3.org/Graphics/SVG/1.1/DTD/svg11.dtd">
<svg viewBox="0 0 931 1096" version="1.1" xmlns="http://www.w3.org/2000/svg" xmlns:xlink="http://www.w3.org/1999/xlink">
<defs>
<clipPath id="c0_36"><path d="M462.7,560.5V528.6H513v31.9Z"/></clipPath>
<clipPath id="c1_36"><path d="M596.1,563.5V528.6H648v34.9Z"/></clipPath>
<clipPath id="c2_36"><path d="M463.8,646V609.2H646.9V646Z"/></clipPath>
<clipPath id="c3_36"><path d="M522,787.3V752.6h66.7v34.7Z"/></clipPath>
<clipPath id="c4_36"><path d="M53.5,399.1V239.3h209V399.1Z"/></clipPath>
<clipPath id="c5_36"><path d="M53.5,1018.6V828.8H263.8v189.8Z"/></clipPath>
<clipPath id="c6_36"><path d="M53.5,758V540.9H264.9V758Z"/></clipPath>
<style type="text/css"><![CDATA[
.g0_36{
fill: none;
stroke: #241F1F;
stroke-width: 0.763;
stroke-miterlimit: 10;
}
.g1_36{
fill: none;
stroke: #00AEEF;
stroke-width: 1.145;
}
.g2_36{
fill: none;
stroke: #00AEEF;
stroke-width: 0.763;
}
.g3_36{
fill: #C1E8FB;
}
.g4_36{
fill: none;
stroke: #EE008C;
stroke-width: 0.916;
stroke-linejoin: round;
}
.g5_36{
fill: #EE008C;
}
.g6_36{
fill: none;
stroke: #241F1F;
stroke-width: 0.611;
stroke-miterlimit: 3;
}
.g7_36{
fill: #241F1F;
}
.g8_36{
fill: none;
stroke: #241F1F;
stroke-width: 0.763;
stroke-linejoin: round;
}
.g9_36{
fill: none;
stroke: #EE008C;
stroke-width: 0.763;
stroke-miterlimit: 3;
}
.ga_36{
fill: none;
stroke: #241F1F;
stroke-width: 0.381;
stroke-miterlimit: 3;
}
.gb_36{
fill: #FFDEB8;
}
.gc_36{
fill: none;
stroke: #F9951B;
stroke-width: 0.916;
stroke-linejoin: round;
}
]]></style>
</defs>
<path d="M364.3,222.3h19m65.7,0h19m124.4,0h19M360.6,323.2h19m65.8,0h18.9m124.5,0h18.9m-55,55h18.9m29.9,0h19" class="g0_36"/>
<path clip-path="url(#c0_36)" d="M494.3,544.7h19.1" class="g0_36"/>
<path clip-path="url(#c1_36)" d="M629.4,544.7h19" class="g0_36"/>
<path clip-path="url(#c2_36)" d="M464.2,627.2h21.5m21.8,0h36.4m21.9,0h36.4m21.9,0h23.2" class="g0_36"/>
<path d="M306.1,686.2c0,0,-1.5,0,-1.5,1.5v14.2c0,0,0,1.5,1.5,1.5h14.2c0,0,1.5,0,1.5,-1.5V687.7c0,0,0,-1.5,-1.5,-1.5H306.1Z" class="g1_36"/>
<path clip-path="url(#c3_36)" d="M522.4,768.5h21.5m21.9,0h23.3" class="g0_36"/>
<path d="M290.7,673.8c0,0,-3.1,0,-3.1,3.1V802c0,0,0,3,3.1,3H820.1c0,0,3,0,3,-3V676.9c0,0,0,-3.1,-3,-3.1H290.7Z" class="g2_36"/>
<path d="M170.2,280.9c0,-12.4,10.1,-22.4,22.6,-22.4c12.5,0,22.6,10,22.6,22.4c0,12.4,-10.1,22.4,-22.6,22.4c-12.5,0,-22.6,-10,-22.6,-22.4Z" class="g3_36"/>
<path d="M144.6,340.2c10.8,-2.5,21.5,-7.7,30.1,-14.4" class="g4_36"/>
<path d="M178.2,323l-3.2,5.4l-.3,-2.6l-2.4,-.9Z" class="g5_36"/>
<path d="M174.8,325.8c9.6,-7.5,16.8,-17.1,19,-27.2" class="g4_36"/>
<path d="M76.1,399.1V250" class="g6_36"/>
<path fill-rule="evenodd" d="M76.1,250l-2.4,1.7l2.4,-6.6l2.4,6.6Z" class="g7_36"/>
<path d="M53.5,376.5H257.6" class="g6_36"/>
<g clip-path="url(#c4_36)">
<path fill-rule="evenodd" d="M257.6,376.5L256,374.1l6.5,2.4L256,379Z" class="g7_36"/>
<path d="M133.3,363.4c-10.3,-10.2,8.5,-9.8,3.8,-20.9C131.7,331.7,114,329.2,103.7,322.8C92.1,315.7,80.1,308.7,85.4,285.5c4.4,-19.7,38.2,-27.4,61.4,-28.4c51.2,-2.5,82.5,4.9,98.6,21.7c28,29.3,12.2,58.3,-2.5,71.1C209,379.3,141,368.3,133.3,363.4Z" class="g8_36"/>
</g>
<path d="M193.8,298.6V286.5" class="g4_36"/>
<path d="M193.8,282l2.2,5.9l-2.2,-1.4l-2.2,1.4Z" class="g5_36"/>
<path d="M192.2,280.3c0,-.8,.7,-1.5,1.6,-1.5c.8,0,1.5,.7,1.5,1.5c0,.9,-.7,1.5,-1.5,1.5c-.9,0,-1.6,-.6,-1.6,-1.5Z" class="g5_36"/>
<path d="M192.2,280.3c0,-.8,.7,-1.5,1.6,-1.5c.8,0,1.5,.7,1.5,1.5c0,.9,-.7,1.5,-1.5,1.5c-.9,0,-1.6,-.6,-1.6,-1.5Z" class="g9_36"/>
<path d="M143,340.4c0,-.8,.7,-1.5,1.5,-1.5c.8,0,1.5,.7,1.5,1.5c0,.9,-.7,1.5,-1.5,1.5c-.8,0,-1.5,-.6,-1.5,-1.5Z" class="g5_36"/>
<path d="M143,340.4c0,-.8,.7,-1.5,1.5,-1.5c.8,0,1.5,.7,1.5,1.5c0,.9,-.7,1.5,-1.5,1.5c-.8,0,-1.5,-.6,-1.5,-1.5Z" class="g9_36"/>
<path d="M161.9,284l24.6,-3.3" class="ga_36"/>
<path d="M189.8,280.3l-4.1,2.2l.8,-1.8l-1.2,-1.5Z" class="g7_36"/>
<path d="M212.2,304.5l-12.3,-4" class="ga_36"/>
<path d="M196.8,299.5l4.6,-.3l-1.5,1.3l.5,1.9Z" class="g7_36"/>
<path d="M192.2,298.6c0,-.9,.7,-1.6,1.6,-1.6c.8,0,1.5,.7,1.5,1.6c0,.8,-.7,1.5,-1.5,1.5c-.9,0,-1.6,-.7,-1.6,-1.5Z" class="g5_36"/>
<path d="M192.2,298.6c0,-.9,.7,-1.6,1.6,-1.6c.8,0,1.5,.7,1.5,1.6c0,.8,-.7,1.5,-1.5,1.5c-.9,0,-1.6,-.7,-1.6,-1.5Z" class="g9_36"/>
<path d="M160.6,875.1c-7.2,0,-18.1,3.9,-27.5,3.9c-17.7,0,-23.6,-7.2,-23.6,-18.3c0,-14.4,15,-31.5,51.1,-31.5c36.1,0,51.1,17.1,51.1,31.5c0,11.1,-5.9,18.3,-23.6,18.3c-9.4,0,-20.2,-3.9,-27.5,-3.9Z" class="gb_36"/>
<path d="M160.6,875.1c-7.2,0,-18.1,3.9,-27.5,3.9c-17.7,0,-23.6,-7.2,-23.6,-18.3c0,-14.4,15,-31.5,51.1,-31.5c36.1,0,51.1,17.1,51.1,31.5c0,11.1,-5.9,18.3,-23.6,18.3c-9.4,0,-20.2,-3.9,-27.5,-3.9Z" class="gc_36"/>
<g clip-path="url(#c5_36)">
<path fill-rule="evenodd" d="M73.9,933.1c20,-10.7,47.3,-12,54,.7c6.8,12.7,-9.6,34.5,-29.6,45.2c-16.5,8.8,-35.6,5.3,-42.1,-6.8C49.8,960,57.3,941.9,73.9,933.1m7.7,18.6c1.5,-4.1,5.2,-6.6,8.2,-5.5c3.1,1.1,4.3,5.3,2.8,9.5c-1.6,4.2,-5.2,6.7,-8.3,5.6c-3,-1.1,-4.2,-5.4,-2.7,-9.6Z" class="gb_36"/>
<path d="M73.9,933.1c20,-10.7,47.3,-12,54,.7c6.8,12.7,-9.6,34.5,-29.6,45.2c-16.5,8.8,-35.6,5.3,-42.1,-6.8C49.8,960,57.3,941.9,73.9,933.1Zm7.7,18.6c1.5,-4.1,5.2,-6.6,8.2,-5.5c3.1,1.1,4.3,5.3,2.8,9.5c-1.6,4.2,-5.2,6.7,-8.3,5.6c-3,-1.1,-4.2,-5.4,-2.7,-9.6Z" class="gc_36"/>
</g>
<path fill-rule="evenodd" d="M142.5,969.8c0,-22.7,11.6,-47.4,26,-47.4c14.3,0,22.1,25.7,24.6,49.5c2,18.6,-7.5,26.3,-21.3,26.3c-13.7,0,-29.3,-9.7,-29.3,-28.4m26.2,16.9c-5.9,.2,-10.8,-3.1,-11,-7.4c-.1,-4.3,4.6,-7.9,10.5,-8.1c5.9,-.3,10.9,3.1,11,7.3c.1,4.3,-4.5,8,-10.5,8.2m-3.5,-36.4c-2.2,-.4,-3.7,-3,-3.1,-5.8c.5,-2.8,3.1,-7.5,5.3,-7.1c2.3,.5,3.5,5.9,3,8.7c-.6,2.8,-2.9,4.7,-5.2,4.2Z" class="gb_36"/>
<path d="M142.5,969.8c0,-22.7,11.6,-47.4,26,-47.4c14.3,0,22.1,25.7,24.6,49.5c2,18.6,-7.5,26.3,-21.3,26.3c-13.7,0,-29.3,-9.7,-29.3,-28.4Zm26.2,16.9c-5.9,.2,-10.8,-3.1,-11,-7.4c-.1,-4.3,4.6,-7.9,10.5,-8.1c5.9,-.3,10.9,3.1,11,7.3c.1,4.3,-4.5,8,-10.5,8.2Zm-3.5,-36.4c-2.2,-.4,-3.7,-3,-3.1,-5.8c.5,-2.8,3.1,-7.5,5.3,-7.1c2.3,.5,3.5,5.9,3,8.7c-.6,2.8,-2.9,4.7,-5.2,4.2Z" class="gc_36"/>
<path d="M204.4,954c.2,-10.8,11.7,-22,26.1,-22c14.5,0,29.3,10.6,31.1,22Z" class="gb_36"/>
<path d="M204.4,954c.2,-10.8,11.7,-22,26.1,-22c14.5,0,29.3,10.6,31.1,22H204.4Z" class="gc_36"/>
<path d="M263.4,959.3c-1.8,11.5,-12.8,22.9,-28.6,22.9c-15.8,0,-27,-12.7,-28.5,-22.9Z" class="gb_36"/>
<path d="M263.4,959.3c-1.8,11.5,-12.8,22.9,-28.6,22.9c-15.8,0,-27,-12.7,-28.5,-22.9h57.1Z" class="gc_36"/>
<path clip-path="url(#c6_36)" d="M198.2,718.7c32.3,-4.8,36.4,-64.5,51.2,-66c9.8,-.9,13.1,9,12.2,18.6c-1.8,12.1,-3.3,19,-13,22.6C236.9,698.1,220.4,674.8,212,665.2c-9.5,-10.7,-28.6,-8.7,-35.5,7.3c-16,37.5,11.5,47.7,21.7,46.2ZM144.7,704.6c-1.6,10.9,-7.9,16.1,-20.6,14.5c-7.2,-.7,-16,-14.2,-25.5,-14.2c-11.1,0,-25.7,20.7,-39.7,7.4c-15.3,-14.5,6.4,-56.7,43.8,-51.7c14.5,2,21,3.5,29.5,11.2c11,9.9,14.5,19.4,12.5,32.8ZM57.7,601.5c0,-21.1,1.8,-48.9,16.8,-50.1c18,-1.5,28.7,34.4,50.8,34.1c13,-.2,20.2,-31.8,15.6,-44.3m31.3,62.6C178.4,588.1,186.8,558,201.7,558c11.8,0,23.6,12.9,40.5,12.9c12.9,0,27.8,-5,20.2,-21.8c-9.9,-21.9,-45.8,7.6,-45.8,29c0,10,3,21.8,8.4,31.8" class="g4_36"/>
</svg>