<?xml version="1.0" encoding="UTF-8" standalone="no"?>
<!DOCTYPE svg PUBLIC "-//W3C//DTD SVG 1.1//EN"
"http://www.w3.org/Graphics/SVG/1.1/DTD/svg11.dtd">
<svg viewBox="0 0 770 1017" version="1.1" xmlns="http://www.w3.org/2000/svg" xmlns:xlink="http://www.w3.org/1999/xlink">
<defs>
<style type="text/css"><![CDATA[
.g0_168{
fill: none;
stroke: #000000;
stroke-width: 0.618;
stroke-linecap: butt;
stroke-linejoin: miter;
}
.g1_168{
fill: none;
stroke: #C0C0C0;
stroke-width: 0.979;
stroke-linecap: round;
stroke-linejoin: round;
}
.g2_168{
fill: none;
stroke: #FF0000;
stroke-width: 3.914;
stroke-linecap: round;
stroke-linejoin: round;
}
.g3_168{
}
.g4_168{
fill: none;
stroke: #0000FF;
stroke-width: 3.914;
stroke-linecap: round;
stroke-linejoin: round;
}
.g5_168{
fill: none;
stroke: #FF0000;
stroke-width: 0.979;
stroke-linecap: round;
stroke-linejoin: round;
}
]]></style>
</defs>
<path d="M56,69.2H695.2" class="g0_168"/>
<path d="M131.4,323.4h30.4m-30.4,0V289.8m0,33.6l-12.8,-9.1m43.2,9.1h30.5m-30.5,0V289.8m0,33.6L149,314.3m43.3,9.1h30.4m-30.4,0V289.8m0,33.6l-12.8,-9.1m43.2,9.1h30.5m-30.5,0V289.8m0,33.6l-12.8,-9.1m43.3,9.1V289.8m0,33.6l-12.9,-9.1M131.4,289.8h30.4m-30.4,0V256.2m0,33.6l-12.8,-9.1" class="g1_168"/>
<path d="M161.8,289.8h30.5" class="g2_168"/>
<path d="M161.8,289.8V256.2" class="g1_168"/>
<path d="M161.8,289.8L149,280.7m43.3,9.1h30.4" class="g2_168"/>
<path d="M192.3,289.8V256.2m0,33.6l-12.8,-9.1m43.2,9.1h30.5" class="g1_168"/>
<path d="M222.7,289.8V256.2" class="g2_168"/>
<path d="M222.7,289.8l-12.8,-9.1m43.3,9.1V256.2m0,33.6l-12.9,-9.1M131.4,256.2h30.4m-30.4,0V222.6m0,33.6l-12.8,-9.1m43.2,9.1h30.5m-30.5,0V222.6m0,33.6L149,247.1m43.3,9.1h30.4m-30.4,0V222.6m0,33.6l-12.8,-9.1m43.2,9.1h30.5" class="g1_168"/>
<path d="M222.7,256.2V222.6" class="g2_168"/>
<path d="M222.7,256.2l-12.8,-9.1m43.3,9.1V222.6m0,33.6l-12.9,-9.1M131.4,222.6h30.4m-30.4,0V189m0,33.6l-12.8,-9.1m43.2,9.1h30.5m-30.5,0V189m0,33.6L149,213.5m43.3,9.1h30.4m-30.4,0V189m0,33.6l-12.8,-9.1m43.2,9.1h30.5m-30.5,0V189" class="g1_168"/>
<path d="M222.7,222.6l-12.8,-9.1" class="g2_168"/>
<path d="M253.2,222.6V189m0,33.6l-12.9,-9.1M131.4,189h30.4m-30.4,0l-12.8,-9.1m43.2,9.1h30.5m-30.5,0L149,179.9m43.3,9.1h30.4m-30.4,0l-12.8,-9.1m43.2,9.1h30.5m-30.5,0l-12.8,-9.1m43.3,9.1l-12.9,-9.1M118.6,314.3H149m-30.4,0V280.7m0,33.6l-12.8,-9.1" class="g1_168"/>
<path d="M149,314.3h30.5m-30.5,0V280.7" class="g2_168"/>
<path d="M149,314.3l-12.8,-9.1m43.3,9.1h30.4" class="g1_168"/>
<path d="M179.5,314.3V280.7" class="g2_168"/>
<path d="M179.5,314.3l-12.9,-9.1m43.3,9.1h30.4m-30.4,0V280.7m0,33.6l-12.8,-9.1m43.2,9.1V280.7m0,33.6l-12.8,-9.1" class="g1_168"/>
<path d="M118.6,280.7H149m-30.4,0V247.1" class="g2_168"/>
<path d="M118.6,280.7l-12.8,-9.1" class="g1_168"/>
<path d="M149,280.7h30.5m-30.5,0V247.1m0,33.6l-12.8,-9.1" class="g2_168"/>
<path d="M179.5,280.7h30.4" class="g1_168"/>
<path d="M179.5,280.7V247.1m0,33.6l-12.9,-9.1" class="g2_168"/>
<path d="M209.9,280.7h30.4m-30.4,0V247.1m0,33.6l-12.8,-9.1m43.2,9.1V247.1m0,33.6l-12.8,-9.1" class="g1_168"/>
<path d="M118.6,247.1H149" class="g2_168"/>
<path d="M118.6,247.1V213.5m0,33.6L105.8,238" class="g1_168"/>
<path d="M149,247.1h30.5" class="g2_168"/>
<path d="M149,247.1V213.5" class="g1_168"/>
<path d="M149,247.1L136.2,238" class="g2_168"/>
<path d="M179.5,247.1h30.4" class="g1_168"/>
<path d="M179.5,247.1V213.5m0,33.6L166.6,238" class="g2_168"/>
<path d="M209.9,247.1h30.4m-30.4,0V213.5m0,33.6L197.1,238m43.2,9.1V213.5m0,33.6L227.5,238M118.6,213.5H149m-30.4,0V179.9m0,33.6l-12.8,-9.1m43.2,9.1h30.5m-30.5,0V179.9m0,33.6l-12.8,-9.1m43.3,9.1h30.4m-30.4,0V179.9" class="g1_168"/>
<path d="M179.5,213.5l-12.9,-9.1" class="g2_168"/>
<path d="M209.9,213.5h30.4m-30.4,0V179.9" class="g1_168"/>
<path d="M209.9,213.5l-12.8,-9.1" class="g2_168"/>
<path d="M240.3,213.5V179.9m0,33.6l-12.8,-9.1M118.6,179.9H149m-30.4,0l-12.8,-9.1m43.2,9.1h30.5m-30.5,0l-12.8,-9.1m43.3,9.1h30.4m-30.4,0l-12.9,-9.1m43.3,9.1h30.4m-30.4,0l-12.8,-9.1m43.2,9.1l-12.8,-9.1M105.8,305.2h30.4m-30.4,0V271.6m0,33.6L92.9,296.1m43.3,9.1h30.4m-30.4,0V271.6m0,33.6l-12.8,-9.1m43.2,9.1h30.5m-30.5,0V271.6m0,33.6l-12.8,-9.1m43.3,9.1h30.4m-30.4,0V271.6m0,33.6l-12.8,-9.1m43.2,9.1V271.6m0,33.6l-12.8,-9.1M105.8,271.6h30.4m-30.4,0V238m0,33.6L92.9,262.5m43.3,9.1h30.4" class="g1_168"/>
<path d="M136.2,271.6V238" class="g2_168"/>
<path d="M136.2,271.6l-12.8,-9.1m43.2,9.1h30.5" class="g1_168"/>
<path d="M166.6,271.6V238" class="g2_168"/>
<path d="M166.6,271.6l-12.8,-9.1m43.3,9.1h30.4m-30.4,0V238m0,33.6l-12.8,-9.1m43.2,9.1V238m0,33.6l-12.8,-9.1M105.8,238h30.4m-30.4,0V204.4m0,33.6L92.9,228.9m43.3,9.1h30.4" class="g1_168"/>
<path d="M136.2,238V204.4m0,33.6l-12.8,-9.1" class="g2_168"/>
<path d="M166.6,238h30.5" class="g1_168"/>
<path d="M166.6,238V204.4m0,33.6l-12.8,-9.1" class="g2_168"/>
<path d="M197.1,238h30.4m-30.4,0V204.4m0,33.6l-12.8,-9.1m43.2,9.1V204.4m0,33.6l-12.8,-9.1M105.8,204.4h30.4m-30.4,0V170.8m0,33.6l-12.9,-9m43.3,9h30.4m-30.4,0V170.8" class="g1_168"/>
<path d="M136.2,204.4l-12.8,-9" class="g2_168"/>
<path d="M166.6,204.4h30.5" class="g1_168"/>
<path d="M166.6,204.4V170.8m0,33.6l-12.8,-9" class="g2_168"/>
<path d="M197.1,204.4h30.4m-30.4,0V170.8" class="g1_168"/>
<path d="M197.1,204.4l-12.8,-9" class="g2_168"/>
<path d="M227.5,204.4V170.8m0,33.6l-12.8,-9M105.8,170.8h30.4m-30.4,0l-12.9,-9m43.3,9h30.4m-30.4,0l-12.8,-9m43.2,9h30.5" class="g1_168"/>
<path d="M166.6,170.8l-12.8,-9" class="g2_168"/>
<path d="M197.1,170.8h30.4m-30.4,0l-12.8,-9m43.2,9l-12.8,-9M92.9,296.1h30.5m-30.5,0V262.5m0,33.6l-12.8,-9m43.3,9h30.4m-30.4,0V262.5m0,33.6l-12.8,-9m43.2,9h30.5m-30.5,0V262.5m0,33.6l-12.8,-9m43.3,9h30.4m-30.4,0V262.5m0,33.6l-12.8,-9m43.2,9V262.5m0,33.6l-12.8,-9M92.9,262.5h30.5m-30.5,0V228.9m0,33.6l-12.8,-9m43.3,9h30.4m-30.4,0V228.9m0,33.6l-12.8,-9m43.2,9h30.5m-30.5,0V228.9m0,33.6l-12.8,-9m43.3,9h30.4m-30.4,0V228.9m0,33.6l-12.8,-9m43.2,9V228.9m0,33.6l-12.8,-9M92.9,228.9h30.5m-30.5,0V195.4m0,33.5l-12.8,-9" class="g1_168"/>
<path d="M123.4,228.9h30.4" class="g2_168"/>
<path d="M123.4,228.9V195.4m0,33.5l-12.8,-9m43.2,9h30.5" class="g1_168"/>
<path d="M153.8,228.9V195.4m0,33.5l-12.8,-9" class="g2_168"/>
<path d="M184.3,228.9h30.4m-30.4,0V195.4m0,33.5l-12.8,-9m43.2,9V195.4m0,33.5l-12.8,-9M92.9,195.4h30.5m-30.5,0V161.8m0,33.6L80.1,186.3" class="g1_168"/>
<path d="M123.4,195.4h30.4" class="g2_168"/>
<path d="M123.4,195.4V161.8m0,33.6l-12.8,-9.1" class="g1_168"/>
<path d="M153.8,195.4h30.5m-30.5,0V161.8m0,33.6L141,186.3" class="g2_168"/>
<path d="M184.3,195.4h30.4m-30.4,0V161.8m0,33.6l-12.8,-9.1m43.2,9.1V161.8m0,33.6l-12.8,-9.1M92.9,161.8h30.5m-30.5,0L80.1,152.7m43.3,9.1h30.4m-30.4,0l-12.8,-9.1m43.2,9.1h30.5m-30.5,0L141,152.7m43.3,9.1h30.4m-30.4,0l-12.8,-9.1m43.2,9.1l-12.8,-9.1M80.1,287.1h30.5m-30.5,0V253.5m30.5,33.6H141m-30.4,0V253.5M141,287.1h30.5m-30.5,0V253.5m30.5,33.6h30.4m-30.4,0V253.5m30.4,33.6V253.5m-121.8,0h30.5m-30.5,0V219.9m30.5,33.6H141m-30.4,0V219.9M141,253.5h30.5m-30.5,0V219.9m30.5,33.6h30.4m-30.4,0V219.9m30.4,33.6V219.9m-121.8,0h30.5m-30.5,0V186.3m30.5,33.6H141m-30.4,0V186.3M141,219.9h30.5" class="g1_168"/>
<path d="M141,219.9V186.3" class="g2_168"/>
<path d="M171.5,219.9h30.4m-30.4,0V186.3m30.4,33.6V186.3m-121.8,0h30.5m-30.5,0V152.7m30.5,33.6H141m-30.4,0V152.7M141,186.3h30.5m-30.5,0V152.7m30.5,33.6h30.4m-30.4,0V152.7m30.4,33.6V152.7m-121.8,0h91.4m0,0h30.4" class="g1_168"/>
<path d="M133.8,323.4c0,-1.4,-1.1,-2.5,-2.4,-2.5c-1.4,0,-2.5,1.1,-2.5,2.5c0,1.3,1.1,2.4,2.5,2.4c1.3,0,2.4,-1.1,2.4,-2.4Z" class="g3_168"/>
<path d="M164.3,323.4c0,-1.4,-1.1,-2.5,-2.5,-2.5c-1.3,0,-2.4,1.1,-2.4,2.5c0,1.3,1.1,2.4,2.4,2.4c1.4,0,2.5,-1.1,2.5,-2.4Z" class="g3_168"/>
<path d="M194.7,323.4c0,-1.4,-1.1,-2.5,-2.4,-2.5c-1.4,0,-2.5,1.1,-2.5,2.5c0,1.3,1.1,2.4,2.5,2.4c1.3,0,2.4,-1.1,2.4,-2.4Z" class="g3_168"/>
<path d="M225.2,323.4c0,-1.4,-1.1,-2.5,-2.5,-2.5c-1.3,0,-2.4,1.1,-2.4,2.5c0,1.3,1.1,2.4,2.4,2.4c1.4,0,2.5,-1.1,2.5,-2.4Z" class="g3_168"/>
<path d="M255.6,323.4c0,-1.4,-1.1,-2.5,-2.5,-2.5c-1.3,0,-2.4,1.1,-2.4,2.5c0,1.3,1.1,2.4,2.4,2.4c1.4,0,2.5,-1.1,2.5,-2.4Z" class="g3_168"/>
<path d="M133.8,289.8c0,-1.4,-1.1,-2.5,-2.4,-2.5c-1.4,0,-2.5,1.1,-2.5,2.5c0,1.3,1.1,2.4,2.5,2.4c1.3,0,2.4,-1.1,2.4,-2.4Z" class="g3_168"/>
<path d="M164.3,289.8c0,-1.4,-1.1,-2.5,-2.5,-2.5c-1.3,0,-2.4,1.1,-2.4,2.5c0,1.3,1.1,2.4,2.4,2.4c1.4,0,2.5,-1.1,2.5,-2.4Z" class="g3_168"/>
<path d="M194.7,289.8c0,-1.4,-1.1,-2.5,-2.4,-2.5c-1.4,0,-2.5,1.1,-2.5,2.5c0,1.3,1.1,2.4,2.5,2.4c1.3,0,2.4,-1.1,2.4,-2.4Z" class="g3_168"/>
<path d="M225.2,289.8c0,-1.4,-1.1,-2.5,-2.5,-2.5c-1.3,0,-2.4,1.1,-2.4,2.5c0,1.3,1.1,2.4,2.4,2.4c1.4,0,2.5,-1.1,2.5,-2.4Z" class="g3_168"/>
<path d="M255.6,289.8c0,-1.4,-1.1,-2.5,-2.5,-2.5c-1.3,0,-2.4,1.1,-2.4,2.5c0,1.3,1.1,2.4,2.4,2.4c1.4,0,2.5,-1.1,2.5,-2.4Z" class="g3_168"/>
<path d="M133.8,256.2c0,-1.4,-1.1,-2.5,-2.4,-2.5c-1.4,0,-2.5,1.1,-2.5,2.5c0,1.3,1.1,2.4,2.5,2.4c1.3,0,2.4,-1.1,2.4,-2.4Z" class="g3_168"/>
<path d="M164.3,256.2c0,-1.4,-1.1,-2.5,-2.5,-2.5c-1.3,0,-2.4,1.1,-2.4,2.5c0,1.3,1.1,2.4,2.4,2.4c1.4,0,2.5,-1.1,2.5,-2.4Z" class="g3_168"/>
<path d="M194.7,256.2c0,-1.4,-1.1,-2.5,-2.4,-2.5c-1.4,0,-2.5,1.1,-2.5,2.5c0,1.3,1.1,2.4,2.5,2.4c1.3,0,2.4,-1.1,2.4,-2.4Z" class="g3_168"/>
<path d="M225.2,256.2c0,-1.4,-1.1,-2.5,-2.5,-2.5c-1.3,0,-2.4,1.1,-2.4,2.5c0,1.3,1.1,2.4,2.4,2.4c1.4,0,2.5,-1.1,2.5,-2.4Z" class="g3_168"/>
<path d="M255.6,256.2c0,-1.4,-1.1,-2.5,-2.5,-2.5c-1.3,0,-2.4,1.1,-2.4,2.5c0,1.3,1.1,2.4,2.4,2.4c1.4,0,2.5,-1.1,2.5,-2.4Z" class="g3_168"/>
<path d="M133.8,222.6c0,-1.4,-1.1,-2.5,-2.4,-2.5c-1.4,0,-2.5,1.1,-2.5,2.5c0,1.3,1.1,2.4,2.5,2.4c1.3,0,2.4,-1.1,2.4,-2.4Z" class="g3_168"/>
<path d="M164.3,222.6c0,-1.4,-1.1,-2.5,-2.5,-2.5c-1.3,0,-2.4,1.1,-2.4,2.5c0,1.3,1.1,2.4,2.4,2.4c1.4,0,2.5,-1.1,2.5,-2.4Z" class="g3_168"/>
<path d="M194.7,222.6c0,-1.4,-1.1,-2.5,-2.4,-2.5c-1.4,0,-2.5,1.1,-2.5,2.5c0,1.3,1.1,2.4,2.5,2.4c1.3,0,2.4,-1.1,2.4,-2.4Z" class="g3_168"/>
<path d="M225.2,222.6c0,-1.4,-1.1,-2.5,-2.5,-2.5c-1.3,0,-2.4,1.1,-2.4,2.5c0,1.3,1.1,2.4,2.4,2.4c1.4,0,2.5,-1.1,2.5,-2.4Z" class="g3_168"/>
<path d="M255.6,222.6c0,-1.4,-1.1,-2.5,-2.5,-2.5c-1.3,0,-2.4,1.1,-2.4,2.5c0,1.3,1.1,2.4,2.4,2.4c1.4,0,2.5,-1.1,2.5,-2.4Z" class="g3_168"/>
<path d="M133.8,189c0,-1.4,-1.1,-2.5,-2.4,-2.5c-1.4,0,-2.5,1.1,-2.5,2.5c0,1.3,1.1,2.4,2.5,2.4c1.3,0,2.4,-1.1,2.4,-2.4Z" class="g3_168"/>
<path d="M164.3,189c0,-1.4,-1.1,-2.5,-2.5,-2.5c-1.3,0,-2.4,1.1,-2.4,2.5c0,1.3,1.1,2.4,2.4,2.4c1.4,0,2.5,-1.1,2.5,-2.4Z" class="g3_168"/>
<path d="M194.7,189c0,-1.4,-1.1,-2.5,-2.4,-2.5c-1.4,0,-2.5,1.1,-2.5,2.5c0,1.3,1.1,2.4,2.5,2.4c1.3,0,2.4,-1.1,2.4,-2.4Z" class="g3_168"/>
<path d="M225.2,189c0,-1.4,-1.1,-2.5,-2.5,-2.5c-1.3,0,-2.4,1.1,-2.4,2.5c0,1.3,1.1,2.4,2.4,2.4c1.4,0,2.5,-1.1,2.5,-2.4Z" class="g3_168"/>
<path d="M255.6,189c0,-1.4,-1.1,-2.5,-2.5,-2.5c-1.3,0,-2.4,1.1,-2.4,2.5c0,1.3,1.1,2.4,2.4,2.4c1.4,0,2.5,-1.1,2.5,-2.4Z" class="g3_168"/>
<path d="M121,314.3c0,-1.4,-1.1,-2.5,-2.4,-2.5c-1.4,0,-2.5,1.1,-2.5,2.5c0,1.3,1.1,2.4,2.5,2.4c1.3,0,2.4,-1.1,2.4,-2.4Z" class="g3_168"/>
<path d="M151.5,314.3c0,-1.4,-1.1,-2.5,-2.5,-2.5c-1.3,0,-2.4,1.1,-2.4,2.5c0,1.3,1.1,2.4,2.4,2.4c1.4,0,2.5,-1.1,2.5,-2.4Z" class="g3_168"/>
<path d="M181.9,314.3c0,-1.4,-1.1,-2.5,-2.5,-2.5c-1.3,0,-2.4,1.1,-2.4,2.5c0,1.3,1.1,2.4,2.4,2.4c1.4,0,2.5,-1.1,2.5,-2.4Z" class="g3_168"/>
<path d="M212.3,314.3c0,-1.4,-1.1,-2.5,-2.4,-2.5c-1.4,0,-2.5,1.1,-2.5,2.5c0,1.3,1.1,2.4,2.5,2.4c1.3,0,2.4,-1.1,2.4,-2.4Z" class="g3_168"/>
<path d="M242.8,314.3c0,-1.4,-1.1,-2.5,-2.4,-2.5c-1.4,0,-2.5,1.1,-2.5,2.5c0,1.3,1.1,2.4,2.5,2.4c1.3,0,2.4,-1.1,2.4,-2.4Z" class="g3_168"/>
<path d="M121,280.7c0,-1.3,-1.1,-2.4,-2.4,-2.4c-1.4,0,-2.5,1.1,-2.5,2.4c0,1.4,1.1,2.5,2.5,2.5c1.3,0,2.4,-1.1,2.4,-2.5Z" class="g3_168"/>
<path d="M155.9,280.7c0,-3.8,-3.1,-6.8,-6.9,-6.8c-3.8,0,-6.8,3,-6.8,6.8c0,3.8,3,6.9,6.8,6.9c3.8,0,6.9,-3.1,6.9,-6.9Z" class="g3_168"/>
<path d="M181.9,280.7c0,-1.3,-1.1,-2.4,-2.5,-2.4c-1.3,0,-2.4,1.1,-2.4,2.4c0,1.4,1.1,2.5,2.4,2.5c1.4,0,2.5,-1.1,2.5,-2.5Z" class="g3_168"/>
<path d="M212.3,280.7c0,-1.3,-1.1,-2.4,-2.4,-2.4c-1.4,0,-2.5,1.1,-2.5,2.4c0,1.4,1.1,2.5,2.5,2.5c1.3,0,2.4,-1.1,2.4,-2.5Z" class="g3_168"/>
<path d="M242.8,280.7c0,-1.3,-1.1,-2.4,-2.4,-2.4c-1.4,0,-2.5,1.1,-2.5,2.4c0,1.4,1.1,2.5,2.5,2.5c1.3,0,2.4,-1.1,2.4,-2.5Z" class="g3_168"/>
<path d="M121,247.1c0,-1.3,-1.1,-2.4,-2.4,-2.4c-1.4,0,-2.5,1.1,-2.5,2.4c0,1.4,1.1,2.5,2.5,2.5c1.3,0,2.4,-1.1,2.4,-2.5Z" class="g3_168"/>
<path d="M151.5,247.1c0,-1.3,-1.1,-2.4,-2.5,-2.4c-1.3,0,-2.4,1.1,-2.4,2.4c0,1.4,1.1,2.5,2.4,2.5c1.4,0,2.5,-1.1,2.5,-2.5Z" class="g3_168"/>
<path d="M181.9,247.1c0,-1.3,-1.1,-2.4,-2.5,-2.4c-1.3,0,-2.4,1.1,-2.4,2.4c0,1.4,1.1,2.5,2.4,2.5c1.4,0,2.5,-1.1,2.5,-2.5Z" class="g3_168"/>
<path d="M212.3,247.1c0,-1.3,-1.1,-2.4,-2.4,-2.4c-1.4,0,-2.5,1.1,-2.5,2.4c0,1.4,1.1,2.5,2.5,2.5c1.3,0,2.4,-1.1,2.4,-2.5Z" class="g3_168"/>
<path d="M242.8,247.1c0,-1.3,-1.1,-2.4,-2.4,-2.4c-1.4,0,-2.5,1.1,-2.5,2.4c0,1.4,1.1,2.5,2.5,2.5c1.3,0,2.4,-1.1,2.4,-2.5Z" class="g3_168"/>
<path d="M121,213.5c0,-1.3,-1.1,-2.4,-2.4,-2.4c-1.4,0,-2.5,1.1,-2.5,2.4c0,1.4,1.1,2.5,2.5,2.5c1.3,0,2.4,-1.1,2.4,-2.5Z" class="g3_168"/>
<path d="M151.5,213.5c0,-1.3,-1.1,-2.4,-2.5,-2.4c-1.3,0,-2.4,1.1,-2.4,2.4c0,1.4,1.1,2.5,2.4,2.5c1.4,0,2.5,-1.1,2.5,-2.5Z" class="g3_168"/>
<path d="M181.9,213.5c0,-1.3,-1.1,-2.4,-2.5,-2.4c-1.3,0,-2.4,1.1,-2.4,2.4c0,1.4,1.1,2.5,2.4,2.5c1.4,0,2.5,-1.1,2.5,-2.5Z" class="g3_168"/>
<path d="M212.3,213.5c0,-1.3,-1.1,-2.4,-2.4,-2.4c-1.4,0,-2.5,1.1,-2.5,2.4c0,1.4,1.1,2.5,2.5,2.5c1.3,0,2.4,-1.1,2.4,-2.5Z" class="g3_168"/>
<path d="M242.8,213.5c0,-1.3,-1.1,-2.4,-2.4,-2.4c-1.4,0,-2.5,1.1,-2.5,2.4c0,1.4,1.1,2.5,2.5,2.5c1.3,0,2.4,-1.1,2.4,-2.5Z" class="g3_168"/>
<path d="M121,179.9c0,-1.3,-1.1,-2.4,-2.4,-2.4c-1.4,0,-2.5,1.1,-2.5,2.4c0,1.4,1.1,2.5,2.5,2.5c1.3,0,2.4,-1.1,2.4,-2.5Z" class="g3_168"/>
<path d="M151.5,179.9c0,-1.3,-1.1,-2.4,-2.5,-2.4c-1.3,0,-2.4,1.1,-2.4,2.4c0,1.4,1.1,2.5,2.4,2.5c1.4,0,2.5,-1.1,2.5,-2.5Z" class="g3_168"/>
<path d="M181.9,179.9c0,-1.3,-1.1,-2.4,-2.5,-2.4c-1.3,0,-2.4,1.1,-2.4,2.4c0,1.4,1.1,2.5,2.4,2.5c1.4,0,2.5,-1.1,2.5,-2.5Z" class="g3_168"/>
<path d="M212.3,179.9c0,-1.3,-1.1,-2.4,-2.4,-2.4c-1.4,0,-2.5,1.1,-2.5,2.4c0,1.4,1.1,2.5,2.5,2.5c1.3,0,2.4,-1.1,2.4,-2.5Z" class="g3_168"/>
<path d="M242.8,179.9c0,-1.3,-1.1,-2.4,-2.4,-2.4c-1.4,0,-2.5,1.1,-2.5,2.4c0,1.4,1.1,2.5,2.5,2.5c1.3,0,2.4,-1.1,2.4,-2.5Z" class="g3_168"/>
<path d="M108.2,305.2c0,-1.3,-1.1,-2.4,-2.4,-2.4c-1.4,0,-2.5,1.1,-2.5,2.4c0,1.4,1.1,2.5,2.5,2.5c1.3,0,2.4,-1.1,2.4,-2.5Z" class="g3_168"/>
<path d="M138.7,305.2c0,-1.3,-1.1,-2.4,-2.5,-2.4c-1.3,0,-2.4,1.1,-2.4,2.4c0,1.4,1.1,2.5,2.4,2.5c1.4,0,2.5,-1.1,2.5,-2.5Z" class="g3_168"/>
<path d="M169.1,305.2c0,-1.3,-1.1,-2.4,-2.4,-2.4c-1.4,0,-2.5,1.1,-2.5,2.4c0,1.4,1.1,2.5,2.5,2.5c1.3,0,2.4,-1.1,2.4,-2.5Z" class="g3_168"/>
<path d="M199.5,305.2c0,-1.3,-1.1,-2.4,-2.4,-2.4c-1.4,0,-2.5,1.1,-2.5,2.4c0,1.4,1.1,2.5,2.5,2.5c1.3,0,2.4,-1.1,2.4,-2.5Z" class="g3_168"/>
<path d="M230,305.2c0,-1.3,-1.1,-2.4,-2.5,-2.4c-1.3,0,-2.4,1.1,-2.4,2.4c0,1.4,1.1,2.5,2.4,2.5c1.4,0,2.5,-1.1,2.5,-2.5Z" class="g3_168"/>
<path d="M108.2,271.6c0,-1.3,-1.1,-2.4,-2.4,-2.4c-1.4,0,-2.5,1.1,-2.5,2.4c0,1.4,1.1,2.5,2.5,2.5c1.3,0,2.4,-1.1,2.4,-2.5Z" class="g3_168"/>
<path d="M138.7,271.6c0,-1.3,-1.1,-2.4,-2.5,-2.4c-1.3,0,-2.4,1.1,-2.4,2.4c0,1.4,1.1,2.5,2.4,2.5c1.4,0,2.5,-1.1,2.5,-2.5Z" class="g3_168"/>
<path d="M169.1,271.6c0,-1.3,-1.1,-2.4,-2.4,-2.4c-1.4,0,-2.5,1.1,-2.5,2.4c0,1.4,1.1,2.5,2.5,2.5c1.3,0,2.4,-1.1,2.4,-2.5Z" class="g3_168"/>
<path d="M199.5,271.6c0,-1.3,-1.1,-2.4,-2.4,-2.4c-1.4,0,-2.5,1.1,-2.5,2.4c0,1.4,1.1,2.5,2.5,2.5c1.3,0,2.4,-1.1,2.4,-2.5Z" class="g3_168"/>
<path d="M230,271.6c0,-1.3,-1.1,-2.4,-2.5,-2.4c-1.3,0,-2.4,1.1,-2.4,2.4c0,1.4,1.1,2.5,2.4,2.5c1.4,0,2.5,-1.1,2.5,-2.5Z" class="g3_168"/>
<path d="M108.2,238c0,-1.3,-1.1,-2.4,-2.4,-2.4c-1.4,0,-2.5,1.1,-2.5,2.4c0,1.4,1.1,2.5,2.5,2.5c1.3,0,2.4,-1.1,2.4,-2.5Z" class="g3_168"/>
<path d="M138.7,238c0,-1.3,-1.1,-2.4,-2.5,-2.4c-1.3,0,-2.4,1.1,-2.4,2.4c0,1.4,1.1,2.5,2.4,2.5c1.4,0,2.5,-1.1,2.5,-2.5Z" class="g3_168"/>
<path d="M169.1,238c0,-1.3,-1.1,-2.4,-2.4,-2.4c-1.4,0,-2.5,1.1,-2.5,2.4c0,1.4,1.1,2.5,2.5,2.5c1.3,0,2.4,-1.1,2.4,-2.5Z" class="g3_168"/>
<path d="M199.5,238c0,-1.3,-1.1,-2.4,-2.4,-2.4c-1.4,0,-2.5,1.1,-2.5,2.4c0,1.4,1.1,2.5,2.5,2.5c1.3,0,2.4,-1.1,2.4,-2.5Z" class="g3_168"/>
<path d="M230,238c0,-1.3,-1.1,-2.4,-2.5,-2.4c-1.3,0,-2.4,1.1,-2.4,2.4c0,1.4,1.1,2.5,2.4,2.5c1.4,0,2.5,-1.1,2.5,-2.5Z" class="g3_168"/>
<path d="M108.2,204.4c0,-1.3,-1.1,-2.4,-2.4,-2.4c-1.4,0,-2.5,1.1,-2.5,2.4c0,1.4,1.1,2.5,2.5,2.5c1.3,0,2.4,-1.1,2.4,-2.5Z" class="g3_168"/>
<path d="M138.7,204.4c0,-1.3,-1.1,-2.4,-2.5,-2.4c-1.3,0,-2.4,1.1,-2.4,2.4c0,1.4,1.1,2.5,2.4,2.5c1.4,0,2.5,-1.1,2.5,-2.5Z" class="g3_168"/>
<path d="M169.1,204.4c0,-1.3,-1.1,-2.4,-2.4,-2.4c-1.4,0,-2.5,1.1,-2.5,2.4c0,1.4,1.1,2.5,2.5,2.5c1.3,0,2.4,-1.1,2.4,-2.5Z" class="g3_168"/>
<path d="M199.5,204.4c0,-1.3,-1.1,-2.4,-2.4,-2.4c-1.4,0,-2.5,1.1,-2.5,2.4c0,1.4,1.1,2.5,2.5,2.5c1.3,0,2.4,-1.1,2.4,-2.5Z" class="g3_168"/>
<path d="M230,204.4c0,-1.3,-1.1,-2.4,-2.5,-2.4c-1.3,0,-2.4,1.1,-2.4,2.4c0,1.4,1.1,2.5,2.4,2.5c1.4,0,2.5,-1.1,2.5,-2.5Z" class="g3_168"/>
<path d="M108.2,170.8c0,-1.3,-1.1,-2.4,-2.4,-2.4c-1.4,0,-2.5,1.1,-2.5,2.4c0,1.4,1.1,2.5,2.5,2.5c1.3,0,2.4,-1.1,2.4,-2.5Z" class="g3_168"/>
<path d="M138.7,170.8c0,-1.3,-1.1,-2.4,-2.5,-2.4c-1.3,0,-2.4,1.1,-2.4,2.4c0,1.4,1.1,2.5,2.4,2.5c1.4,0,2.5,-1.1,2.5,-2.5Z" class="g3_168"/>
<path d="M169.1,170.8c0,-1.3,-1.1,-2.4,-2.4,-2.4c-1.4,0,-2.5,1.1,-2.5,2.4c0,1.4,1.1,2.5,2.5,2.5c1.3,0,2.4,-1.1,2.4,-2.5Z" class="g3_168"/>
<path d="M199.5,170.8c0,-1.3,-1.1,-2.4,-2.4,-2.4c-1.4,0,-2.5,1.1,-2.5,2.4c0,1.4,1.1,2.5,2.5,2.5c1.3,0,2.4,-1.1,2.4,-2.5Z" class="g3_168"/>
<path d="M230,170.8c0,-1.3,-1.1,-2.4,-2.5,-2.4c-1.3,0,-2.4,1.1,-2.4,2.4c0,1.4,1.1,2.5,2.4,2.5c1.4,0,2.5,-1.1,2.5,-2.5Z" class="g3_168"/>
<path d="M95.4,296.1c0,-1.3,-1.1,-2.4,-2.4,-2.4c-1.4,0,-2.5,1.1,-2.5,2.4c0,1.4,1.1,2.5,2.5,2.5c1.3,0,2.4,-1.1,2.4,-2.5Z" class="g3_168"/>
<path d="M125.8,296.1c0,-1.3,-1.1,-2.4,-2.4,-2.4c-1.4,0,-2.5,1.1,-2.5,2.4c0,1.4,1.1,2.5,2.5,2.5c1.3,0,2.4,-1.1,2.4,-2.5Z" class="g3_168"/>
<path d="M156.3,296.1c0,-1.3,-1.1,-2.4,-2.5,-2.4c-1.3,0,-2.4,1.1,-2.4,2.4c0,1.4,1.1,2.5,2.4,2.5c1.4,0,2.5,-1.1,2.5,-2.5Z" class="g3_168"/>
<path d="M186.7,296.1c0,-1.3,-1.1,-2.4,-2.4,-2.4c-1.4,0,-2.5,1.1,-2.5,2.4c0,1.4,1.1,2.5,2.5,2.5c1.3,0,2.4,-1.1,2.4,-2.5Z" class="g3_168"/>
<path d="M217.2,296.1c0,-1.3,-1.1,-2.4,-2.5,-2.4c-1.3,0,-2.4,1.1,-2.4,2.4c0,1.4,1.1,2.5,2.4,2.5c1.4,0,2.5,-1.1,2.5,-2.5Z" class="g3_168"/>
<path d="M95.4,262.6c0,-1.4,-1.1,-2.5,-2.4,-2.5c-1.4,0,-2.5,1.1,-2.5,2.5c0,1.3,1.1,2.4,2.5,2.4c1.3,0,2.4,-1.1,2.4,-2.4Z" class="g3_168"/>
<path d="M125.8,262.6c0,-1.4,-1.1,-2.5,-2.4,-2.5c-1.4,0,-2.5,1.1,-2.5,2.5c0,1.3,1.1,2.4,2.5,2.4c1.3,0,2.4,-1.1,2.4,-2.4Z" class="g3_168"/>
<path d="M156.3,262.6c0,-1.4,-1.1,-2.5,-2.5,-2.5c-1.3,0,-2.4,1.1,-2.4,2.5c0,1.3,1.1,2.4,2.4,2.4c1.4,0,2.5,-1.1,2.5,-2.4Z" class="g3_168"/>
<path d="M186.7,262.6c0,-1.4,-1.1,-2.5,-2.4,-2.5c-1.4,0,-2.5,1.1,-2.5,2.5c0,1.3,1.1,2.4,2.5,2.4c1.3,0,2.4,-1.1,2.4,-2.4Z" class="g3_168"/>
<path d="M217.2,262.6c0,-1.4,-1.1,-2.5,-2.5,-2.5c-1.3,0,-2.4,1.1,-2.4,2.5c0,1.3,1.1,2.4,2.4,2.4c1.4,0,2.5,-1.1,2.5,-2.4Z" class="g3_168"/>
<path d="M95.4,229c0,-1.4,-1.1,-2.5,-2.4,-2.5c-1.4,0,-2.5,1.1,-2.5,2.5c0,1.3,1.1,2.4,2.5,2.4c1.3,0,2.4,-1.1,2.4,-2.4Z" class="g3_168"/>
<path d="M125.8,229c0,-1.4,-1.1,-2.5,-2.4,-2.5c-1.4,0,-2.5,1.1,-2.5,2.5c0,1.3,1.1,2.4,2.5,2.4c1.3,0,2.4,-1.1,2.4,-2.4Z" class="g3_168"/>
<path d="M156.3,229c0,-1.4,-1.1,-2.5,-2.5,-2.5c-1.3,0,-2.4,1.1,-2.4,2.5c0,1.3,1.1,2.4,2.4,2.4c1.4,0,2.5,-1.1,2.5,-2.4Z" class="g3_168"/>
<path d="M186.7,229c0,-1.4,-1.1,-2.5,-2.4,-2.5c-1.4,0,-2.5,1.1,-2.5,2.5c0,1.3,1.1,2.4,2.5,2.4c1.3,0,2.4,-1.1,2.4,-2.4Z" class="g3_168"/>
<path d="M217.2,229c0,-1.4,-1.1,-2.5,-2.5,-2.5c-1.3,0,-2.4,1.1,-2.4,2.5c0,1.3,1.1,2.4,2.4,2.4c1.4,0,2.5,-1.1,2.5,-2.4Z" class="g3_168"/>
<path d="M95.4,195.4c0,-1.4,-1.1,-2.5,-2.4,-2.5c-1.4,0,-2.5,1.1,-2.5,2.5c0,1.3,1.1,2.4,2.5,2.4c1.3,0,2.4,-1.1,2.4,-2.4Z" class="g3_168"/>
<path d="M125.8,195.4c0,-1.4,-1.1,-2.5,-2.4,-2.5c-1.4,0,-2.5,1.1,-2.5,2.5c0,1.3,1.1,2.4,2.5,2.4c1.3,0,2.4,-1.1,2.4,-2.4Z" class="g3_168"/>
<path d="M160.7,195.4c0,-3.8,-3.1,-6.9,-6.9,-6.9c-3.8,0,-6.8,3.1,-6.8,6.9c0,3.7,3,6.8,6.8,6.8c3.8,0,6.9,-3.1,6.9,-6.8Z" class="g3_168"/>
<path d="M186.7,195.4c0,-1.4,-1.1,-2.5,-2.4,-2.5c-1.4,0,-2.5,1.1,-2.5,2.5c0,1.3,1.1,2.4,2.5,2.4c1.3,0,2.4,-1.1,2.4,-2.4Z" class="g3_168"/>
<path d="M217.2,195.4c0,-1.4,-1.1,-2.5,-2.5,-2.5c-1.3,0,-2.4,1.1,-2.4,2.5c0,1.3,1.1,2.4,2.4,2.4c1.4,0,2.5,-1.1,2.5,-2.4Z" class="g3_168"/>
<path d="M95.4,161.8c0,-1.4,-1.1,-2.5,-2.4,-2.5c-1.4,0,-2.5,1.1,-2.5,2.5c0,1.3,1.1,2.4,2.5,2.4c1.3,0,2.4,-1.1,2.4,-2.4Z" class="g3_168"/>
<path d="M125.8,161.8c0,-1.4,-1.1,-2.5,-2.4,-2.5c-1.4,0,-2.5,1.1,-2.5,2.5c0,1.3,1.1,2.4,2.5,2.4c1.3,0,2.4,-1.1,2.4,-2.4Z" class="g3_168"/>
<path d="M156.3,161.8c0,-1.4,-1.1,-2.5,-2.5,-2.5c-1.3,0,-2.4,1.1,-2.4,2.5c0,1.3,1.1,2.4,2.4,2.4c1.4,0,2.5,-1.1,2.5,-2.4Z" class="g3_168"/>
<path d="M186.7,161.8c0,-1.4,-1.1,-2.5,-2.4,-2.5c-1.4,0,-2.5,1.1,-2.5,2.5c0,1.3,1.1,2.4,2.5,2.4c1.3,0,2.4,-1.1,2.4,-2.4Z" class="g3_168"/>
<path d="M217.2,161.8c0,-1.4,-1.1,-2.5,-2.5,-2.5c-1.3,0,-2.4,1.1,-2.4,2.5c0,1.3,1.1,2.4,2.4,2.4c1.4,0,2.5,-1.1,2.5,-2.4Z" class="g3_168"/>
<path d="M82.6,287.1c0,-1.4,-1.1,-2.5,-2.5,-2.5c-1.3,0,-2.4,1.1,-2.4,2.5c0,1.3,1.1,2.4,2.4,2.4c1.4,0,2.5,-1.1,2.5,-2.4Z" class="g3_168"/>
<path d="M113,287.1c0,-1.4,-1.1,-2.5,-2.4,-2.5c-1.4,0,-2.5,1.1,-2.5,2.5c0,1.3,1.1,2.4,2.5,2.4c1.3,0,2.4,-1.1,2.4,-2.4Z" class="g3_168"/>
<path d="M143.5,287.1c0,-1.4,-1.1,-2.5,-2.5,-2.5c-1.3,0,-2.4,1.1,-2.4,2.5c0,1.3,1.1,2.4,2.4,2.4c1.4,0,2.5,-1.1,2.5,-2.4Z" class="g3_168"/>
<path d="M173.9,287.1c0,-1.4,-1.1,-2.5,-2.4,-2.5c-1.4,0,-2.5,1.1,-2.5,2.5c0,1.3,1.1,2.4,2.5,2.4c1.3,0,2.4,-1.1,2.4,-2.4Z" class="g3_168"/>
<path d="M204.4,287.1c0,-1.4,-1.1,-2.5,-2.5,-2.5c-1.3,0,-2.4,1.1,-2.4,2.5c0,1.3,1.1,2.4,2.4,2.4c1.4,0,2.5,-1.1,2.5,-2.4Z" class="g3_168"/>
<path d="M82.6,253.5c0,-1.4,-1.1,-2.5,-2.5,-2.5c-1.3,0,-2.4,1.1,-2.4,2.5c0,1.3,1.1,2.4,2.4,2.4c1.4,0,2.5,-1.1,2.5,-2.4Z" class="g3_168"/>
<path d="M113,253.5c0,-1.4,-1.1,-2.5,-2.4,-2.5c-1.4,0,-2.5,1.1,-2.5,2.5c0,1.3,1.1,2.4,2.5,2.4c1.3,0,2.4,-1.1,2.4,-2.4Z" class="g3_168"/>
<path d="M143.5,253.5c0,-1.4,-1.1,-2.5,-2.5,-2.5c-1.3,0,-2.4,1.1,-2.4,2.5c0,1.3,1.1,2.4,2.4,2.4c1.4,0,2.5,-1.1,2.5,-2.4Z" class="g3_168"/>
<path d="M173.9,253.5c0,-1.4,-1.1,-2.5,-2.4,-2.5c-1.4,0,-2.5,1.1,-2.5,2.5c0,1.3,1.1,2.4,2.5,2.4c1.3,0,2.4,-1.1,2.4,-2.4Z" class="g3_168"/>
<path d="M204.4,253.5c0,-1.4,-1.1,-2.5,-2.5,-2.5c-1.3,0,-2.4,1.1,-2.4,2.5c0,1.3,1.1,2.4,2.4,2.4c1.4,0,2.5,-1.1,2.5,-2.4Z" class="g3_168"/>
<path d="M82.6,219.9c0,-1.4,-1.1,-2.5,-2.5,-2.5c-1.3,0,-2.4,1.1,-2.4,2.5c0,1.3,1.1,2.4,2.4,2.4c1.4,0,2.5,-1.1,2.5,-2.4Z" class="g3_168"/>
<path d="M113,219.9c0,-1.4,-1.1,-2.5,-2.4,-2.5c-1.4,0,-2.5,1.1,-2.5,2.5c0,1.3,1.1,2.4,2.5,2.4c1.3,0,2.4,-1.1,2.4,-2.4Z" class="g3_168"/>
<path d="M143.5,219.9c0,-1.4,-1.1,-2.5,-2.5,-2.5c-1.3,0,-2.4,1.1,-2.4,2.5c0,1.3,1.1,2.4,2.4,2.4c1.4,0,2.5,-1.1,2.5,-2.4Z" class="g3_168"/>
<path d="M173.9,219.9c0,-1.4,-1.1,-2.5,-2.4,-2.5c-1.4,0,-2.5,1.1,-2.5,2.5c0,1.3,1.1,2.4,2.5,2.4c1.3,0,2.4,-1.1,2.4,-2.4Z" class="g3_168"/>
<path d="M204.4,219.9c0,-1.4,-1.1,-2.5,-2.5,-2.5c-1.3,0,-2.4,1.1,-2.4,2.5c0,1.3,1.1,2.4,2.4,2.4c1.4,0,2.5,-1.1,2.5,-2.4Z" class="g3_168"/>
<path d="M82.6,186.3c0,-1.4,-1.1,-2.5,-2.5,-2.5c-1.3,0,-2.4,1.1,-2.4,2.5c0,1.3,1.1,2.4,2.4,2.4c1.4,0,2.5,-1.1,2.5,-2.4Z" class="g3_168"/>
<path d="M113,186.3c0,-1.4,-1.1,-2.5,-2.4,-2.5c-1.4,0,-2.5,1.1,-2.5,2.5c0,1.3,1.1,2.4,2.5,2.4c1.3,0,2.4,-1.1,2.4,-2.4Z" class="g3_168"/>
<path d="M143.5,186.3c0,-1.4,-1.1,-2.5,-2.5,-2.5c-1.3,0,-2.4,1.1,-2.4,2.5c0,1.3,1.1,2.4,2.4,2.4c1.4,0,2.5,-1.1,2.5,-2.4Z" class="g3_168"/>
<path d="M173.9,186.3c0,-1.4,-1.1,-2.5,-2.4,-2.5c-1.4,0,-2.5,1.1,-2.5,2.5c0,1.3,1.1,2.4,2.5,2.4c1.3,0,2.4,-1.1,2.4,-2.4Z" class="g3_168"/>
<path d="M204.4,186.3c0,-1.4,-1.1,-2.5,-2.5,-2.5c-1.3,0,-2.4,1.1,-2.4,2.5c0,1.3,1.1,2.4,2.4,2.4c1.4,0,2.5,-1.1,2.5,-2.4Z" class="g3_168"/>
<path d="M82.6,152.7c0,-1.4,-1.1,-2.5,-2.5,-2.5c-1.3,0,-2.4,1.1,-2.4,2.5c0,1.3,1.1,2.4,2.4,2.4c1.4,0,2.5,-1.1,2.5,-2.4Z" class="g3_168"/>
<path d="M113,152.7c0,-1.4,-1.1,-2.5,-2.4,-2.5c-1.4,0,-2.5,1.1,-2.5,2.5c0,1.3,1.1,2.4,2.5,2.4c1.3,0,2.4,-1.1,2.4,-2.4Z" class="g3_168"/>
<path d="M143.5,152.7c0,-1.4,-1.1,-2.5,-2.5,-2.5c-1.3,0,-2.4,1.1,-2.4,2.5c0,1.3,1.1,2.4,2.4,2.4c1.4,0,2.5,-1.1,2.5,-2.4Z" class="g3_168"/>
<path d="M173.9,152.7c0,-1.4,-1.1,-2.5,-2.4,-2.5c-1.4,0,-2.5,1.1,-2.5,2.5c0,1.3,1.1,2.4,2.5,2.4c1.3,0,2.4,-1.1,2.4,-2.4Z" class="g3_168"/>
<path d="M204.4,152.7c0,-1.4,-1.1,-2.5,-2.5,-2.5c-1.3,0,-2.4,1.1,-2.4,2.5c0,1.3,1.1,2.4,2.4,2.4c1.4,0,2.5,-1.1,2.5,-2.4Z" class="g3_168"/>
<path d="M289.1,232.5l11.6,22.6" class="g4_168"/>
<path d="M289.1,232.5l22.7,-11.6m-22.7,11.6L361,304.3" class="g5_168"/>
<path d="M289.1,232.5L361,160.6m-60.3,94.5l22.6,-11.5" class="g4_168"/>
<path d="M300.7,255.1L372.5,327M300.7,255.1l71.8,-71.9" class="g5_168"/>
<path d="M323.3,243.6L311.8,220.9" class="g4_168"/>
<path d="M323.3,243.6l71.9,71.8M323.3,243.6l71.9,-71.9" class="g5_168"/>
<path d="M311.8,220.9l71.8,71.9" class="g4_168"/>
<path d="M311.8,220.9l71.8,-71.8" class="g5_168"/>
<path d="M361,304.3L372.5,327M361,304.3l22.6,-11.5" class="g4_168"/>
<path d="M361,304.3l71.9,-71.8" class="g5_168"/>
<path d="M372.5,327l22.7,-11.6" class="g4_168"/>
<path d="M372.5,327l71.9,-71.9m-49.2,60.3L383.6,292.8" class="g5_168"/>
<path d="M395.2,315.4l71.9,-71.8" class="g4_168"/>
<path d="M383.6,292.8l71.9,-71.9" class="g5_168"/>
<path d="M432.9,232.5l11.5,22.6M432.9,232.5l22.6,-11.6" class="g4_168"/>
<path d="M432.9,232.5L361,160.6" class="g5_168"/>
<path d="M444.4,255.1l22.7,-11.5" class="g4_168"/>
<path d="M444.4,255.1L372.5,183.2m94.6,60.4L455.5,220.9m11.6,22.7L395.2,171.7" class="g5_168"/>
<path d="M455.5,220.9L383.6,149.1M361,160.6l11.5,22.6" class="g4_168"/>
<path d="M361,160.6l22.6,-11.5" class="g5_168"/>
<path d="M372.5,183.2l22.7,-11.5m0,0L383.6,149.1" class="g4_168"/>
<path d="M291.6,232.5c0,-1.4,-1.1,-2.5,-2.5,-2.5c-1.3,0,-2.4,1.1,-2.4,2.5c0,1.3,1.1,2.4,2.4,2.4c1.4,0,2.5,-1.1,2.5,-2.4Z" class="g3_168"/>
<path d="M303.1,255.1c0,-1.3,-1.1,-2.4,-2.4,-2.4c-1.4,0,-2.5,1.1,-2.5,2.4c0,1.4,1.1,2.5,2.5,2.5c1.3,0,2.4,-1.1,2.4,-2.5Z" class="g3_168"/>
<path d="M325.8,243.6c0,-1.4,-1.1,-2.5,-2.5,-2.5c-1.3,0,-2.4,1.1,-2.4,2.5c0,1.3,1.1,2.4,2.4,2.4c1.4,0,2.5,-1.1,2.5,-2.4Z" class="g3_168"/>
<path d="M314.2,220.9c0,-1.3,-1.1,-2.4,-2.4,-2.4c-1.4,0,-2.5,1.1,-2.5,2.4c0,1.4,1.1,2.5,2.5,2.5c1.3,0,2.4,-1.1,2.4,-2.5Z" class="g3_168"/>
<path d="M363.5,304.4c0,-1.4,-1.1,-2.5,-2.5,-2.5c-1.3,0,-2.4,1.1,-2.4,2.5c0,1.3,1.1,2.4,2.4,2.4c1.4,0,2.5,-1.1,2.5,-2.4Z" class="g3_168"/>
<path d="M375,327c0,-1.4,-1.1,-2.4,-2.5,-2.4c-1.3,0,-2.4,1,-2.4,2.4c0,1.3,1.1,2.4,2.4,2.4c1.4,0,2.5,-1.1,2.5,-2.4Z" class="g3_168"/>
<path d="M397.6,315.4c0,-1.3,-1.1,-2.4,-2.4,-2.4c-1.4,0,-2.5,1.1,-2.5,2.4c0,1.4,1.1,2.5,2.5,2.5c1.3,0,2.4,-1.1,2.4,-2.5Z" class="g3_168"/>
<path d="M386.1,292.8c0,-1.3,-1.1,-2.4,-2.5,-2.4c-1.3,0,-2.4,1.1,-2.4,2.4c0,1.4,1.1,2.5,2.4,2.5c1.4,0,2.5,-1.1,2.5,-2.5Z" class="g3_168"/>
<path d="M435.3,232.5c0,-1.4,-1.1,-2.5,-2.4,-2.5c-1.4,0,-2.5,1.1,-2.5,2.5c0,1.3,1.1,2.4,2.5,2.4c1.3,0,2.4,-1.1,2.4,-2.4Z" class="g3_168"/>
<path d="M446.8,255.1c0,-1.3,-1,-2.4,-2.4,-2.4c-1.4,0,-2.4,1.1,-2.4,2.4c0,1.4,1,2.5,2.4,2.5c1.4,0,2.4,-1.1,2.4,-2.5Z" class="g3_168"/>
<path d="M469.5,243.6c0,-1.4,-1.1,-2.5,-2.5,-2.5c-1.3,0,-2.4,1.1,-2.4,2.5c0,1.3,1.1,2.4,2.4,2.4c1.4,0,2.5,-1.1,2.5,-2.4Z" class="g3_168"/>
<path d="M458,220.9c0,-1.3,-1.1,-2.4,-2.5,-2.4c-1.3,0,-2.4,1.1,-2.4,2.4c0,1.4,1.1,2.5,2.4,2.5c1.4,0,2.5,-1.1,2.5,-2.5Z" class="g3_168"/>
<path d="M363.5,160.6c0,-1.4,-1.1,-2.4,-2.5,-2.4c-1.3,0,-2.4,1,-2.4,2.4c0,1.4,1.1,2.4,2.4,2.4c1.4,0,2.5,-1,2.5,-2.4Z" class="g3_168"/>
<path d="M375,183.2c0,-1.3,-1.1,-2.4,-2.5,-2.4c-1.3,0,-2.4,1.1,-2.4,2.4c0,1.4,1.1,2.5,2.4,2.5c1.4,0,2.5,-1.1,2.5,-2.5Z" class="g3_168"/>
<path d="M397.6,171.7c0,-1.3,-1.1,-2.4,-2.4,-2.4c-1.4,0,-2.5,1.1,-2.5,2.4c0,1.4,1.1,2.5,2.5,2.5c1.3,0,2.4,-1.1,2.4,-2.5Z" class="g3_168"/>
<path d="M386.1,149.1c0,-1.4,-1.1,-2.5,-2.5,-2.5c-1.3,0,-2.4,1.1,-2.4,2.5c0,1.3,1.1,2.4,2.4,2.4c1.4,0,2.5,-1.1,2.5,-2.4Z" class="g3_168"/>
<path d="M594.8,155.6l-47.7,27.5" class="g5_168"/>
<path d="M594.8,155.6l23.4,16.5l24.4,11M594.8,155.6l24.5,11l23.3,16.5" class="g1_168"/>
<path d="M547.1,183.1l-31.9,27.5" class="g5_168"/>
<path d="M547.1,183.1l-.5,13.7l.5,13.8m0,-27.5l.5,13.7l-.5,13.8m0,-27.5l15.4,15.6l16.4,11.9M547.1,183.1L563.5,195l15.4,15.6m-63.7,0l-5.8,13.1L504.6,238m10.6,-27.4l-4.7,14.3L504.6,238" class="g1_168"/>
<path d="M515.2,210.6V238" class="g5_168"/>
<path d="M515.2,210.6l4.8,14.3l5.9,13.1M515.2,210.6l5.9,13.1l4.8,14.3m-21.3,0l-.5,13.8l.5,13.7m0,-27.5l.6,13.8l-.6,13.7m-4,54.9L598.8,293" class="g1_168"/>
<path d="M502,293l-1.4,27.4" class="g5_168"/>
<path d="M502,293l2.6,-27.5M502,293l37.1,-27.5M502,293l.1,13.8l1.2,13.6M502,293l1.2,13.6l.1,13.8" class="g1_168"/>
<path d="M504.6,265.5L502,293" class="g5_168"/>
<path d="M504.6,265.5l.8,13.9l1.9,13.6m-2.7,-27.5l1.9,13.6l.8,13.9m15.9,-27.5L525.9,238m-2.7,27.5L634.7,238" class="g1_168"/>
<path d="M525.9,238l-2.7,27.5" class="g5_168"/>
<path d="M525.9,238l.7,13.9l1.9,13.6M525.9,238l1.8,13.6l.8,13.9" class="g1_168"/>
<path d="M547.1,210.6l-8,27.4" class="g5_168"/>
<path d="M547.1,210.6l3.4,14.1L555,238m-7.9,-27.4l4.5,13.2L555,238m-15.9,0l-.5,13.8l.5,13.7m0,-27.5l.6,13.8l-.6,13.7m-33.2,54.9L606.8,293" class="g1_168"/>
<path d="M507.3,293l-1.4,27.4" class="g5_168"/>
<path d="M507.3,293l.1,13.8l1.2,13.6M507.3,293l1.2,13.6l.1,13.8m30.5,-54.9L555,238m87.6,-54.9l-12.5,12.3l-11.4,15.2m23.9,-27.5l-11.4,15.1l-12.5,12.4m23.9,-27.5L654,198.2l12.5,12.4M642.6,183.1l12.5,12.3l11.4,15.2" class="g1_168"/>
<path d="M618.7,210.6L602.8,238" class="g5_168"/>
<path d="M618.7,210.6l-.5,13.7l.5,13.7m0,-27.4l.6,13.7l-.6,13.7m0,-27.4l7.5,14.6l8.5,12.8m-16,-27.4l8.5,12.8l7.5,14.6m-31.9,0l-.5,13.8l.5,13.7m0,-27.5l.5,13.8l-.5,13.7m-99.5,54.9L598.8,293m0,0l55.8,-27.5" class="g1_168"/>
<path d="M602.8,265.5l-4,27.5" class="g5_168"/>
<path d="M602.8,265.5l1.5,14l2.5,13.5m-4,-27.5l2.5,13.5l1.5,14M528.5,265.5L634.7,238m0,0l31.8,-27.4m0,0l-6.5,13L654.6,238m11.9,-27.4L661.1,225l-6.5,13m11.9,-27.4l5.4,14.4l6.5,13M666.5,210.6l6.5,13l5.4,14.4m-23.8,0l-.6,13.8l.6,13.7m0,-27.5l.5,13.8l-.5,13.7m-146,54.9L606.8,293m0,0l47.8,-27.5m0,0L678.4,238" class="g1_168"/>
<path d="M597.3,155.6c0,-1.3,-1.1,-2.4,-2.5,-2.4c-1.3,0,-2.4,1.1,-2.4,2.4c0,1.4,1.1,2.5,2.4,2.5c1.4,0,2.5,-1.1,2.5,-2.5Z" class="g3_168"/>
<path d="M549.5,183.1c0,-1.4,-1.1,-2.5,-2.4,-2.5c-1.4,0,-2.5,1.1,-2.5,2.5c0,1.3,1.1,2.4,2.5,2.4c1.3,0,2.4,-1.1,2.4,-2.4Z" class="g3_168"/>
<path d="M517.7,210.6c0,-1.4,-1.1,-2.5,-2.5,-2.5c-1.3,0,-2.4,1.1,-2.4,2.5c0,1.3,1.1,2.4,2.4,2.4c1.4,0,2.5,-1.1,2.5,-2.4Z" class="g3_168"/>
<path d="M507.1,238c0,-1.3,-1.1,-2.4,-2.5,-2.4c-1.3,0,-2.4,1.1,-2.4,2.4c0,1.4,1.1,2.5,2.4,2.5c1.4,0,2.5,-1.1,2.5,-2.5Z" class="g3_168"/>
<path d="M503.1,320.4c0,-1.3,-1.1,-2.4,-2.5,-2.4c-1.3,0,-2.4,1.1,-2.4,2.4c0,1.4,1.1,2.5,2.4,2.5c1.4,0,2.5,-1.1,2.5,-2.5Z" class="g3_168"/>
<path d="M504.4,292.9c0,-1.3,-1.1,-2.4,-2.4,-2.4c-1.4,0,-2.5,1.1,-2.5,2.4c0,1.4,1.1,2.5,2.5,2.5c1.3,0,2.4,-1.1,2.4,-2.5Z" class="g3_168"/>
<path d="M507.1,265.5c0,-1.4,-1.1,-2.5,-2.5,-2.5c-1.3,0,-2.4,1.1,-2.4,2.5c0,1.3,1.1,2.4,2.4,2.4c1.4,0,2.5,-1.1,2.5,-2.4Z" class="g3_168"/>
<path d="M517.7,238c0,-1.3,-1.1,-2.4,-2.5,-2.4c-1.3,0,-2.4,1.1,-2.4,2.4c0,1.4,1.1,2.5,2.4,2.5c1.4,0,2.5,-1.1,2.5,-2.5Z" class="g3_168"/>
<path d="M525.6,265.5c0,-1.4,-1.1,-2.5,-2.4,-2.5c-1.4,0,-2.5,1.1,-2.5,2.5c0,1.3,1.1,2.4,2.5,2.4c1.3,0,2.4,-1.1,2.4,-2.4Z" class="g3_168"/>
<path d="M528.3,238c0,-1.3,-1.1,-2.4,-2.5,-2.4c-1.3,0,-2.4,1.1,-2.4,2.4c0,1.4,1.1,2.5,2.4,2.5c1.4,0,2.5,-1.1,2.5,-2.5Z" class="g3_168"/>
<path d="M549.5,210.6c0,-1.4,-1.1,-2.5,-2.4,-2.5c-1.4,0,-2.5,1.1,-2.5,2.5c0,1.3,1.1,2.4,2.5,2.4c1.3,0,2.4,-1.1,2.4,-2.4Z" class="g3_168"/>
<path d="M541.6,238c0,-1.3,-1.1,-2.4,-2.5,-2.4c-1.3,0,-2.4,1.1,-2.4,2.4c0,1.4,1.1,2.5,2.4,2.5c1.4,0,2.5,-1.1,2.5,-2.5Z" class="g3_168"/>
<path d="M508.4,320.4c0,-1.3,-1.1,-2.4,-2.4,-2.4c-1.4,0,-2.5,1.1,-2.5,2.4c0,1.4,1.1,2.5,2.5,2.5c1.3,0,2.4,-1.1,2.4,-2.5Z" class="g3_168"/>
<path d="M509.7,292.9c0,-1.3,-1.1,-2.4,-2.4,-2.4c-1.4,0,-2.5,1.1,-2.5,2.4c0,1.4,1.1,2.5,2.5,2.5c1.3,0,2.4,-1.1,2.4,-2.5Z" class="g3_168"/>
<path d="M541.6,265.5c0,-1.4,-1.1,-2.5,-2.5,-2.5c-1.3,0,-2.4,1.1,-2.4,2.5c0,1.3,1.1,2.4,2.4,2.4c1.4,0,2.5,-1.1,2.5,-2.4Z" class="g3_168"/>
<path d="M557.5,238c0,-1.3,-1.1,-2.4,-2.5,-2.4c-1.3,0,-2.4,1.1,-2.4,2.4c0,1.4,1.1,2.5,2.4,2.5c1.4,0,2.5,-1.1,2.5,-2.5Z" class="g3_168"/>
<path d="M581.4,210.6c0,-1.4,-1.1,-2.5,-2.5,-2.5c-1.3,0,-2.4,1.1,-2.4,2.5c0,1.3,1.1,2.4,2.4,2.4c1.4,0,2.5,-1.1,2.5,-2.4Z" class="g3_168"/>
<path d="M645.1,183.1c0,-1.4,-1.1,-2.5,-2.5,-2.5c-1.3,0,-2.4,1.1,-2.4,2.5c0,1.3,1.1,2.4,2.4,2.4c1.4,0,2.5,-1.1,2.5,-2.4Z" class="g3_168"/>
<path d="M621.2,210.6c0,-1.4,-1.1,-2.5,-2.5,-2.5c-1.3,0,-2.4,1.1,-2.4,2.5c0,1.3,1.1,2.4,2.4,2.4c1.4,0,2.5,-1.1,2.5,-2.4Z" class="g3_168"/>
<path d="M605.2,238c0,-1.3,-1,-2.4,-2.4,-2.4c-1.4,0,-2.4,1.1,-2.4,2.4c0,1.4,1,2.5,2.4,2.5c1.4,0,2.4,-1.1,2.4,-2.5Z" class="g3_168"/>
<path d="M505.7,320.4c0,-1.3,-1.1,-2.4,-2.4,-2.4c-1.4,0,-2.5,1.1,-2.5,2.4c0,1.4,1.1,2.5,2.5,2.5c1.3,0,2.4,-1.1,2.4,-2.5Z" class="g3_168"/>
<path d="M601.3,292.9c0,-1.3,-1.1,-2.4,-2.5,-2.4c-1.3,0,-2.4,1.1,-2.4,2.4c0,1.4,1.1,2.5,2.4,2.5c1.4,0,2.5,-1.1,2.5,-2.5Z" class="g3_168"/>
<path d="M605.2,265.5c0,-1.4,-1,-2.5,-2.4,-2.5c-1.4,0,-2.4,1.1,-2.4,2.5c0,1.3,1,2.4,2.4,2.4c1.4,0,2.4,-1.1,2.4,-2.4Z" class="g3_168"/>
<path d="M621.2,238c0,-1.3,-1.1,-2.4,-2.5,-2.4c-1.3,0,-2.4,1.1,-2.4,2.4c0,1.4,1.1,2.5,2.4,2.5c1.4,0,2.5,-1.1,2.5,-2.5Z" class="g3_168"/>
<path d="M531,265.5c0,-1.4,-1.1,-2.5,-2.5,-2.5c-1.3,0,-2.4,1.1,-2.4,2.5c0,1.3,1.1,2.4,2.4,2.4c1.4,0,2.5,-1.1,2.5,-2.4Z" class="g3_168"/>
<path d="M637.1,238c0,-1.3,-1.1,-2.4,-2.4,-2.4c-1.4,0,-2.5,1.1,-2.5,2.4c0,1.4,1.1,2.5,2.5,2.5c1.3,0,2.4,-1.1,2.4,-2.5Z" class="g3_168"/>
<path d="M669,210.6c0,-1.4,-1.1,-2.5,-2.5,-2.5c-1.3,0,-2.4,1.1,-2.4,2.5c0,1.3,1.1,2.4,2.4,2.4c1.4,0,2.5,-1.1,2.5,-2.4Z" class="g3_168"/>
<path d="M657,238c0,-1.3,-1.1,-2.4,-2.5,-2.4c-1.3,0,-2.4,1.1,-2.4,2.4c0,1.4,1.1,2.5,2.4,2.5c1.4,0,2.5,-1.1,2.5,-2.5Z" class="g3_168"/>
<path d="M511.1,320.4c0,-1.3,-1.1,-2.4,-2.5,-2.4c-1.3,0,-2.4,1.1,-2.4,2.4c0,1.4,1.1,2.5,2.4,2.5c1.4,0,2.5,-1.1,2.5,-2.5Z" class="g3_168"/>
<path d="M609.2,292.9c0,-1.3,-1.1,-2.4,-2.4,-2.4c-1.4,0,-2.5,1.1,-2.5,2.4c0,1.4,1.1,2.5,2.5,2.5c1.3,0,2.4,-1.1,2.4,-2.5Z" class="g3_168"/>
<path d="M657,265.5c0,-1.4,-1.1,-2.5,-2.5,-2.5c-1.3,0,-2.4,1.1,-2.4,2.5c0,1.3,1.1,2.4,2.4,2.4c1.4,0,2.5,-1.1,2.5,-2.4Z" class="g3_168"/>
<path d="M680.9,238c0,-1.3,-1.1,-2.4,-2.5,-2.4c-1.3,0,-2.4,1.1,-2.4,2.4c0,1.4,1.1,2.5,2.4,2.5c1.4,0,2.5,-1.1,2.5,-2.5Z" class="g3_168"/>
<path d="M65.1,444.7h621" class="g0_168"/>
</svg>