<?xml version="1.0" encoding="UTF-8" standalone="no"?>
<!DOCTYPE svg PUBLIC "-//W3C//DTD SVG 1.1//EN"
"http://www.w3.org/Graphics/SVG/1.1/DTD/svg11.dtd">
<svg viewBox="0 0 811 1017" version="1.1" xmlns="http://www.w3.org/2000/svg" xmlns:xlink="http://www.w3.org/1999/xlink">
<defs>
<clipPath id="c0_451"><path d="M115.8,475.4V385.1h91.7v90.3Z"/></clipPath>
<clipPath id="c1_451"><path d="M207.3,475.4V385.1H299v90.3Z"/></clipPath>
<clipPath id="c2_451"><path d="M115.8,520.2V475.1H298.9v45.1Z"/></clipPath>
<style type="text/css"><![CDATA[
.g0_451{
fill: #222326;
}
.g1_451{
fill: #FED9A1;
}
.g2_451{
fill: none;
stroke: #040504;
stroke-width: 0.759;
stroke-miterlimit: 10;
}
.g3_451{
fill: #211E1E;
}
.g4_451{
fill: #92C4E9;
}
]]></style>
</defs>
<image clip-path="url(#c0_451)" preserveAspectRatio="none" x="116" y="385" width="92" height="90" xlink:href="img/1.jpg"/>
<image clip-path="url(#c1_451)" preserveAspectRatio="none" x="207" y="385" width="92" height="90" xlink:href="img/2.jpg"/>
<image clip-path="url(#c2_451)" preserveAspectRatio="none" x="116" y="475" width="183" height="45" xlink:href="img/3.jpg"/>
<path d="M299,521v-.2H116V385.3H298.8V521h.2v-.2v.2h.2V384.9H115.6V521.2H299.2V521H299Z" class="g0_451"/>
<path d="M409.2,473.1c0,7.3,5.9,13.2,13.2,13.2h43.1c7.3,0,13.2,-5.9,13.2,-13.2V433c0,-7.2,-5.9,-13.1,-13.2,-13.1H422.4c-7.3,0,-13.2,5.9,-13.2,13.1v40.1Z" class="g1_451"/>
<path d="M409.2,473.1c0,7.3,5.9,13.2,13.2,13.2h43.1c7.3,0,13.2,-5.9,13.2,-13.2V433c0,-7.2,-5.9,-13.1,-13.2,-13.1H422.4c-7.3,0,-13.2,5.9,-13.2,13.1v40.1Z" class="g2_451"/>
<path d="M305,453.5H409.2v-.9H305Z" class="g0_451"/>
<path d="M303,453.9c1.4,.4,2.3,.8,3.4,1.2V451c-.4,.2,-2,.8,-3.4,1.2c-1.4,.4,-2.8,.7,-3.6,.9c.8,.1,2.2,.4,3.6,.8Z" class="g3_451"/>
<path d="M619.7,384.5l20.7,-31.1h48.1l20.8,31.1l-20.8,31.6H640.4L619.7,384.5Z" class="g4_451"/>
<path d="M619.7,384.5l20.7,-31.1h48.1l20.8,31.1l-20.8,31.6H640.4L619.7,384.5Z" class="g2_451"/>
<path d="M619.7,452.9l20.7,-31h48.1l20.8,31l-20.8,31.6H640.4L619.7,452.9Z" class="g4_451"/>
<path d="M619.7,452.9l20.7,-31h48.1l20.8,31l-20.8,31.6H640.4L619.7,452.9Z" class="g2_451"/>
<path d="M619.7,521.9l20.7,-31.1h48.1l20.8,31.1l-20.8,31.6H640.4L619.7,521.9Z" class="g4_451"/>
<path d="M619.7,521.9l20.7,-31.1h48.1l20.8,31.1l-20.8,31.6H640.4L619.7,521.9Z" class="g2_451"/>
<path d="M484.3,453.5h130v-.9h-130Z" class="g0_451"/>
<path d="M482.4,453.9c1.4,.4,2.3,.8,3.3,1.2V451c-.3,.2,-1.9,.8,-3.3,1.2c-1.5,.4,-2.8,.7,-3.6,.9c.8,.1,2.1,.4,3.6,.8Z" class="g3_451"/>
<path d="M616.2,452.2c-1.3,-.4,-2.2,-.8,-3.3,-1.2v4.1c.4,-.1,2,-.8,3.3,-1.2c1.5,-.4,2.8,-.7,3.7,-.8c-.9,-.1,-2.2,-.4,-3.7,-.9Z" class="g3_451"/>
<path d="M614.1,385.7L483.9,436l.3,.7L614.4,386.5l-.3,-.8Z" class="g0_451"/>
<path d="M482.5,437.8c1.4,-.1,2.4,0,3.6,0l-1.5,-3.9c-.3,.3,-1.6,1.5,-2.7,2.3c-1.2,1,-2.3,1.7,-3.1,2.2c.9,-.3,2.2,-.5,3.7,-.6Z" class="g3_451"/>
<path d="M615.8,384.6c-1.4,.1,-2.4,.1,-3.6,0l1.5,3.9c.3,-.3,1.6,-1.5,2.7,-2.3c1.2,-1,2.3,-1.7,3.1,-2.1c-.9,.2,-2.2,.4,-3.7,.5Z" class="g3_451"/>
<path d="M614.7,519.2L484.4,469l-.3,.8l130.3,50.1l.3,-.7Z" class="g0_451"/>
<path d="M482.1,469.5c1.1,.9,1.8,1.5,2.7,2.3l1.5,-3.8c-.4,0,-2.1,0,-3.6,-.1c-1.5,-.1,-2.8,-.3,-3.7,-.5c.8,.4,1.9,1.2,3.1,2.1Z" class="g3_451"/>
<path d="M616.7,519.4c-1.2,-.8,-1.9,-1.5,-2.7,-2.3l-1.5,3.9c.4,-.1,2.1,-.1,3.5,0c1.6,.1,2.9,.3,3.7,.5c-.7,-.4,-1.8,-1.1,-3,-2.1Z" class="g3_451"/>
</svg>