<?xml version="1.0" encoding="UTF-8" standalone="no"?>
<!DOCTYPE svg PUBLIC "-//W3C//DTD SVG 1.1//EN"
"http://www.w3.org/Graphics/SVG/1.1/DTD/svg11.dtd">
<svg viewBox="0 0 931 1096" version="1.1" xmlns="http://www.w3.org/2000/svg" xmlns:xlink="http://www.w3.org/1999/xlink">
<defs>
<clipPath id="c0_142"><path d="M100.1,203.9V188h82.3v15.9Z"/></clipPath>
<clipPath id="c1_142"><path d="M100.1,511V495.1h76.7V511Z"/></clipPath>
<clipPath id="c2_142"><path d="M180.1,853.4c3.4,-6.3,5.7,-18.2,5.7,-31.7v-.1c0,-14,-2.3,-26.1,-5.9,-32.3c5.5,4.2,13.1,7.7,22.3,10.6c8.9,2.8,19.2,5.1,30.5,7c10.2,1.7,21.2,3,32.5,4c8.9,.9,18,1.5,27.1,2c9.8,.6,19.6,1,29.2,1.4c8.5,.2,16.7,.5,24.6,.6c13.1,.3,25,.5,35.1,.8c.5,0,1,0,1.4,0c2.1,0,2.3,4.9,2.3,6.1c-.1,3.1,-1.4,5.8,-2.3,5.8c-.5,0,-.9,0,-1.4,0c-10.1,.3,-22.1,.4,-35.1,.7c-7.9,.2,-16.2,.3,-24.6,.6c-9.6,.3,-19.4,.7,-29.2,1.2c-9,.5,-18.1,1.2,-27,2c-11.3,1,-22.3,2.3,-32.5,3.9c-11.2,1.8,-21.6,4.1,-30.5,6.9c-9.1,2.9,-16.7,6.3,-22.2,10.5Z"/></clipPath>
<clipPath id="c3_142"><path d="M119.2,871.3V757.2H385V871.3Z"/></clipPath>
<clipPath id="c4_142"><path d="M773,492.7v-16h45.8v16Z"/></clipPath>
<style type="text/css"><![CDATA[
.g0_142{
fill: none;
stroke: #00AEEF;
stroke-width: 0.763;
stroke-miterlimit: 10;
}
.g1_142{
fill: none;
stroke: #241F1F;
stroke-width: 0.481;
stroke-miterlimit: 10;
}
.g2_142{
fill: none;
stroke: #241F1F;
stroke-width: 0.687;
stroke-miterlimit: 10;
}
.g3_142{
fill: #6DC8ED;
}
.g4_142{
fill: none;
stroke: #00C3F4;
stroke-width: 0.536;
stroke-linejoin: round;
}
.g5_142{
fill: none;
stroke: #00C3F4;
stroke-width: 0.612;
stroke-miterlimit: 3;
stroke-dasharray: 4,3;
}
.g6_142{
fill: none;
stroke: #241F1F;
stroke-width: 0.612;
stroke-miterlimit: 3;
}
.g7_142{
fill: #241F1F;
}
.g8_142{
fill: none;
stroke: #969698;
stroke-width: 0.612;
stroke-miterlimit: 3;
stroke-dasharray: 10,4;
}
.g9_142{
fill: none;
stroke: #241F1F;
stroke-width: 0.536;
stroke-miterlimit: 3;
}
.ga_142{
fill: #00AEEF;
}
]]></style>
</defs>
<path d="M74.9,246.5H429.3M74.9,394.7H429.3M74.9,527.6H429.3M74.9,651.4H429.3" class="g0_142"/>
<path d="M128.6,144.6h4.8" class="g1_142"/>
<path clip-path="url(#c0_142)" d="M136.7,188.3h46.1" class="g2_142"/>
<path d="M126.5,222.5h4.8m32.5,0h4.8M126.5,344.7h4.8" class="g1_142"/>
<path clip-path="url(#c1_142)" d="M136.7,495.4h40.4" class="g2_142"/>
<image clip-path="url(#c2_142)" x="179" y="789" width="206" height="65" xlink:href="shade/1.png"/>
<path d="M162.7,821.6c0,-20.1,5.2,-36.7,11.7,-36.7c6.4,0,11.4,16.6,11.4,36.7c0,20.1,-5,36.4,-11.4,36.4c-6.5,0,-11.7,-16.3,-11.7,-36.4Z" class="g3_142"/>
<path d="M162.7,821.6c0,-20.1,5.2,-36.7,11.7,-36.7c6.4,0,11.4,16.6,11.4,36.7c0,20.1,-5,36.4,-11.4,36.4c-6.5,0,-11.7,-16.3,-11.7,-36.4Z" class="g4_142"/>
<path d="M382.4,827.4c-1,0,-1.8,-2.7,-1.8,-6c0,-3.3,.9,-5.7,2,-5.7" class="g5_142"/>
<path clip-path="url(#c3_142)" d="M137.5,876.8V766.5" class="g6_142"/>
<path fill-rule="evenodd" d="M137.5,766.5l-2.4,1.7l2.4,-6.6l2.5,6.6Z" class="g7_142"/>
<path d="M174.3,818.6v6.1m-55.1,-3.1h66.6" class="g6_142"/>
<path d="M188.8,821.6H378.7" class="g8_142"/>
<path fill-rule="evenodd" d="M378.7,821.6l-1.6,-2.4l6.5,2.4l-6.5,2.5Z" class="g7_142"/>
<path d="M239.2,788.3h7.2" class="g9_142"/>
<path d="M180,853.2c3.4,-6.3,5.6,-18.2,5.6,-31.7c0,-14.1,-2.2,-26.2,-5.8,-32.4c33.7,25.8,147.6,25,202.7,26.4c1,0,2.2,2.5,2.2,5.7c0,3.3,-1.2,6.2,-2.3,6.2c-55,1.4,-168.7,.1,-202.4,25.8Z" class="g4_142"/>
<path d="M53.9,424.9H69.5v-9.8H53.9v9.8Z" class="ga_142"/>
<path d="M53.9,557.8H69.5V548H53.9v9.8Z" class="ga_142"/>
<path d="M575.3,234.8h16.6m19.7,0h19.3" class="g2_142"/>
<path clip-path="url(#c4_142)" d="M809.6,477.1h9.5" class="g2_142"/>
<path d="M656,1002.6h71.1" class="g2_142"/>
<path d="M448,473.8h15.7V464H448v9.8Z" class="ga_142"/>
</svg>