<?xml version="1.0" encoding="UTF-8" standalone="no"?>
<!DOCTYPE svg PUBLIC "-//W3C//DTD SVG 1.1//EN"
"http://www.w3.org/Graphics/SVG/1.1/DTD/svg11.dtd">
<svg viewBox="0 0 770 1017" version="1.1" xmlns="http://www.w3.org/2000/svg" xmlns:xlink="http://www.w3.org/1999/xlink">
<defs>
<style type="text/css"><![CDATA[
.g0_601{
fill: none;
stroke: #000000;
stroke-width: 0.618;
stroke-linecap: butt;
stroke-linejoin: miter;
}
.g1_601{
fill: none;
stroke: #000000;
stroke-width: 3.009;
stroke-linecap: butt;
stroke-linejoin: miter;
}
.g2_601{
fill: none;
stroke: #000000;
stroke-width: 0.6;
stroke-linecap: butt;
stroke-linejoin: miter;
}
.g3_601{
stroke: #000000;
stroke-width: 0.73;
stroke-linecap: butt;
stroke-linejoin: miter;
}
.g4_601{
fill: none;
stroke: #000000;
stroke-width: 2.921;
stroke-linecap: butt;
stroke-linejoin: miter;
}
.g5_601{
stroke: #000000;
stroke-width: 2.921;
stroke-linecap: butt;
stroke-linejoin: miter;
}
]]></style>
</defs>
<path d="M74.2,69.2H713.5" class="g0_601"/>
<path d="M86.9,150.8V331.3L350.1,286.2L154.6,241L365.2,173.3L86.9,150.8M147,421.6H327.6L297.5,113.1L252.3,353.9L207.2,105.6L147,421.6" class="g1_601"/>
<path d="M397.4,423.1v-316" class="g2_601"/>
<path fill-rule="evenodd" d="M604.5,270.4l-6.9,32.8l51,-9.1l-1.3,-14.2Z" class="g3_601"/>
<path d="M485.6,419.8H660.8L631.6,120.4L587.8,354.1L544,113.1L485.6,419.8Z" class="g4_601"/>
<path fill-rule="evenodd" d="M519.2,251.9l52.6,11.7l7.3,42.3L506,319.1l13.2,-67.2Z" class="g5_601"/>
<path fill-rule="evenodd" d="M535.2,167.2h19l8.8,55.5l-40.9,11.6l11.7,-67.1" class="g5_601"/>
<path fill-rule="evenodd" d="M624.3,174.5h13.2v21.9L617,203.7L621.4,173" class="g5_601"/>
<path d="M427.2,156.9V332.2L682.8,288.4L492.9,244.6L697.4,178.8L427.2,156.9Z" class="g4_601"/>
<path d="M83.4,454.3h621" class="g0_601"/>
</svg>