<?xml version="1.0" encoding="UTF-8" standalone="no"?>
<!DOCTYPE svg PUBLIC "-//W3C//DTD SVG 1.1//EN"
"http://www.w3.org/Graphics/SVG/1.1/DTD/svg11.dtd">
<svg viewBox="0 0 811 1017" version="1.1" xmlns="http://www.w3.org/2000/svg" xmlns:xlink="http://www.w3.org/1999/xlink">
<defs>
<style type="text/css"><![CDATA[
.g0_66{
fill: #ECECD0;
}
.g1_66{
fill: #224867;
}
]]></style>
</defs>
<path d="M650.4,137l2.9,-1l3,-.8l6,-1.7l6.2,-1.6c16.9,-4.1,41.7,-8.1,57,2.7l1.1,.8l1.1,.9c9.1,7.9,6.4,22.5,.8,31.6l-.8,1.3l-.9,1.2l-1,1.2l-1,1.2c-15.3,17.4,-45,24.8,-67.1,28l-2.9,.4l-2.7,.3c-4.8,.6,-19.3,.9,-16.8,9.1l.2,.4l.3,.4l.3,.4l.7,.5l.9,.4l1,.3l1,.1c1.9,.2,3.7,-.2,5.5,-.6l.8,-.1l.9,-.1c7.7,-1.6,15.6,-2.9,23.5,-3.2l2.7,-.1l1.9,.1l1.8,.1c12.9,.7,25.1,5.7,30,18.5l.5,1.6l.5,1.7l.3,1.7l.3,1.8c2.6,20.9,-7.7,41.4,-22.4,55.7l-2,2l-2.1,1.9c-22.4,20,-50.8,27.5,-79.9,31.4l-4.9,.6l-4.8,.6l-9.6,1l-2.4,8.5h6.2l6.3,-.2c49.3,-2.3,110,-19.7,137.2,-65l1.6,-2.8l1.5,-2.9c12.7,-24.6,8.5,-64.1,-23.9,-68.7l-2,-.2h-2.1v-.7l4.4,-2l4.5,-2.1l4.7,-2.1c12.9,-6.3,27.2,-14.8,34.6,-27.8l1.1,-2.1l1,-2.2c3.9,-9.3,4,-21.9,-.5,-31.1l-1.2,-2.2l-1.4,-2l-1.5,-2C732.6,98.3,686.3,98.9,661.4,107.2l-2.4,.7l-2.4,.9Z" class="g0_66"/>
<path d="M220.3,283.9H724.4v-.4H220.3v.4Z" class="g1_66"/>
<path d="M119.4,594.1H490.7v-113H119.4v113Z" class="g0_66"/>
<image preserveAspectRatio="none" x="203" y="990" width="405" height="28" xlink:href="img/1.jpg"/>
</svg>