<?xml version="1.0" encoding="UTF-8" standalone="no"?>
<!DOCTYPE svg PUBLIC "-//W3C//DTD SVG 1.1//EN"
"http://www.w3.org/Graphics/SVG/1.1/DTD/svg11.dtd">
<svg viewBox="0 0 907 1045" version="1.1" xmlns="http://www.w3.org/2000/svg" xmlns:xlink="http://www.w3.org/1999/xlink">
<defs>
<clipPath id="c0_555"><path d="M796.7,273.5v0c-.2,0,-.3,-.1,-.3,-.3c.1,.1,.2,.2,.3,.3Zm-1.2,.2v-1h.9c0,.2,0,.4,0,.5h-.5v.5Zm-58.8,94.5v-.4h-7.8v-.5H728v.5h-.5c-1.2,-.8,-5.2,-1.6,-6.4,-1.9c-1.4,-.3,-3.8,-1.6,-5.9,-1.6c-.5,0,-1,0,-1.4,.3c-.3,-.6,-.3,-.3,-.5,-1h-.5v.5h-.4c-.1,-.4,-.2,-.5,-.3,-.5c-.1,0,-.1,-.1,-.2,-.9c-1.7,-.1,-.1,-.2,-1.8,-.4c-.5,-1,-1.4,-1.4,-1.9,-2.3c-1.3,-.2,-.5,-.1,-1.3,-.5c-.5,-1.4,-.4,-.5,-.5,-2.3h-.5v.9h-.4c.1,-.3,0,-.5,-.2,-.5c-.1,0,-.2,0,-.3,.1c.1,-1.5,-.8,-2.4,-1.8,-2.8c-.1,-1.8,-.4,0,-.5,-1.8c-.7,-.1,-.3,-.2,-.9,-.5c0,-.4,0,-.9,0,-1.4h-.4v.5h-.5c-.1,-.3,-.1,-.5,.2,-.5c0,0,.1,0,.3,0c-.6,-.7,-.9,-1.4,-1,-2.7c-.4,-.3,-.4,-.2,-.9,-.5c1.6,-2.8,-1.2,-10.2,-2.3,-12.8c-1.1,-2.8,-2.6,-6.1,-3.2,-8.7c-1.3,-5.7,-2.3,-13.2,-.4,-18.9c.9,-2.9,1.8,-5.1,2.7,-7.8c1,-.3,.5,-.8,1.8,-.9c.2,-2.5,1.6,-2.1,1.9,-4.1c.8,-.8,1.1,-1,2.3,-1.4c.5,-1.3,1.8,-2.3,3.2,-2.8c0,-5.7,-.4,-3.6,.4,-5.9h1V286h.4v1.4h.9v.5h1c.1,-.4,0,-.5,-.2,-.5c-.1,0,-.2,0,-.3,0c.5,-.9,0,-.7,.5,-1.4c-.6,-.1,-.5,-.1,-1,-.4c.3,-.6,.4,-.3,.5,-.9h-.9v.4h-.5c.3,-.1,1,-1.3,1.4,-1.3c-5.9,-2.3,-12.5,-4.1,-18.4,-5.6c-.5,-1,-.8,-1.7,-1.8,-2.3c-.9,-1.9,.6,-4.3,1.4,-5c-.1,-.9,-.6,-1.9,-1.4,-2.3c-.4,-2.7,-1.2,-4.4,-.5,-6.9c.9,-.3,.8,-.9,1.4,-1.4H694v.5h2.8v.5h.4v-.5h.5v.5h1.8c0,-1.9,.8,-3.2,1.4,-4.6c.6,-.3,.3,-.2,.9,-.5c.4,-2.1,-.2,-1.7,.9,-2.3c.4,-1.7,-.1,-1.3,1,-1.8c.3,-1.9,.2,0,.4,-2.3c.3,-.3,.6,-.3,.9,-.5c.3,-1.4,.2,-.7,.9,-1.4c.4,-1.3,.3,-.6,1,-1.3c.3,-1.4,.2,-.7,.9,-1.4c.6,-1.2,.3,-1.2,1.4,-1.9c.5,-1.1,.3,-1.2,1.3,-1.8c.6,-1.6,1.6,-2.7,3.3,-3.2c0,-1.3,.5,-.9,.9,-1.8c1.1,-.6,1.2,-.4,1.8,-1.4c.2,0,.3,0,.4,0c1.1,0,-.2,-.4,1.4,-.5c0,-.3,0,-.6,0,-.9h1c.5,.4,0,.9,1,.9c.1,0,.2,0,.3,0c-.7,1.7,.2,.9,-.4,1.9c1,0,1.2,.6,1.8,.9h2.8v-.9h.4V236h.5v.9h.9v-.4h.5v.4h3.6v-.4h1.4v.4h.5v-.4H734V236h2.3v-.5h.4v.5h.5v.5h1.3c-.4,-1.1,-.3,-1,-.4,-2.3c.1,0,.2,0,.3,0c.2,0,.3,-.2,.1,-.5c1.1,.3,1.7,.4,2,.4c.7,0,-.1,-.6,.8,-.9c0,-.3,0,-.6,0,-.9h.9v.5h.9v-.5h.5v-.4h.5v.4h.4v.5h-.4v.4h.9v-.9h.9c.8,1,1.7,1.1,3.2,1.4c.6,.6,1.2,1.2,1.8,1.8c1.4,.2,1,.6,2.3,1c.5,1.3,2.9,3.5,4.2,4.1c.5,1.1,.3,1.2,1.4,1.8c.3,1.4,.2,.7,.9,1.4c.4,1.2,.5,1.6,.9,2.8c.5,.3,.3,.2,.9,.4c0,2,1.1,3.2,1.4,5.1c.7,4,.8,9.8,0,13.7c-.8,3.9,-1.1,7.2,-2.8,10.1c1,.6,.2,.8,0,1.4h.9v-.9h.5v-.5h.5v.5h2.3v.5h5.5v-.5h2.7v.5h2.3v-.5h.9v-.5h1.4v-.4h-2.3V275h2.8v.5h.4v.4h2.3v-1.3h-.4v.4H778c-.3,-.3,-.2,-.5,-.4,-.9c0,0,.1,0,.1,0c2.2,0,6.5,-.7,7.7,-1.8h1.4v.4h.9v-.4h3.7c0,.5,-.1,.7,-.5,.7c-.2,0,-.5,-.1,-.9,-.3c-.2,.8,-.1,1.2,.5,1.2c.2,0,.5,-.1,.9,-.2c-.3,.3,-.3,.5,-.5,.9c.2,-.1,.4,-.2,.6,-.2c.3,0,.4,.2,.3,.6h.5v-.4h.4v.9h1.4v.9h.5v-.9h.9V275h.4v.5h.5c.4,-.4,.2,-.8,.9,-.9c-.2,-.3,-.4,-.8,-.6,-1.1c.1,0,.2,.1,.3,.1c.3,0,.7,-.2,1.2,-.4c1.1,1,-.2,.2,1.9,.9c.3,1.7,2.9,3.5,4.1,4.6c.1,1.8,.4,0,.5,1.8c.6,.3,.2,.2,.9,.5c.6,1.9,1.8,3.2,1.8,5.5c.5,.3,.4,.2,.9,.5c0,3.7,2.3,6.4,2.8,10.5c.8,6.3,1.2,12.4,0,19.3c-.8,4.6,-3.7,9.5,-5.5,13.8c3.4,1.5,1.4,7.8,.4,10.5c-.2,.3,-.5,.3,-.9,.5c-.6,1.2,-.3,1.2,-1.4,1.8c-.5,1.2,-.3,1.3,-1.3,1.9c-.6,1.6,-1.6,1.8,-2.3,3.2c-1.7,.2,-.1,.3,-1.9,.5q-.1,.8,-.2,.8c-.1,0,-.1,.1,-.2,.5c-1.4,.4,-.6,.4,-1.4,.9c-1.4,.4,-.7,.3,-1.4,1c-1.8,.1,0,.3,-1.8,.4c-.4,.6,-.6,.8,-.9,1.4c-1.4,.3,-.7,.2,-1.4,.9c-1.4,.3,-.7,.2,-1.4,.9c-.2,-.1,-.4,-.1,-.6,-.1c-.3,0,-.4,.2,-.3,.6h-.5v-.5h-.4v.5h-.5v.5h-.4v.9h-.5v-.5h-.5c.1,.4,0,.6,-.3,.6c-.1,0,-.3,0,-.6,-.1c-.3,.5,-.1,.4,-.4,.9c-2.4,.2,-.5,.1,-2.3,.5c-.3,.2,-.3,.5,-.5,.9c-1.2,.6,-.6,.2,-1.4,.9c-2.5,.5,-10.7,1.8,-11.9,3.7h-.5v-.5H767c-.8,1.3,-5,1.6,-6.4,2.3h-1.8v-.5h-.5v.5h-.5v-.5h-.4v.5h-4.6v.5h-2.3v.4H750v-.4h-.4v.9h-1v-.5h-1.8v-.4h-.4v.4h-1v.5h-.9v-.5h-.4v.5h-5.6v.4h-.9v-.4h-.4v.4Z"/></clipPath>
<clipPath id="c1_555"><path d="M-2.6,1047.7V-2.6H910.2V1047.7Z"/></clipPath>
<style type="text/css"><![CDATA[
.g0_555{
fill: #B8B8B8;
}
.g1_555{
fill: none;
stroke: #000000;
stroke-width: 1.675;
stroke-linecap: butt;
stroke-linejoin: miter;
stroke-miterlimit: 4;
}
.g2_555{
fill: #FFFFFF;
}
.g3_555{
fill: none;
stroke: #000000;
stroke-width: 1.527;
stroke-linecap: butt;
stroke-linejoin: miter;
stroke-miterlimit: 4;
}
.g4_555{
fill: none;
stroke: #636363;
stroke-width: 1.527;
stroke-linecap: butt;
stroke-linejoin: miter;
stroke-miterlimit: 4;
}
.g5_555{
fill: none;
stroke: #FFFFFF;
stroke-width: 1.909;
stroke-linecap: butt;
stroke-linejoin: miter;
}
.g6_555{
fill: none;
stroke: #000000;
stroke-width: 0.381;
stroke-linecap: butt;
stroke-linejoin: miter;
}
]]></style>
</defs>
<path d="M102.2,188.6c5.4,0,9.8,-4.4,9.8,-9.8c0,-5.4,-4.4,-9.8,-9.8,-9.8c-5.4,0,-9.8,4.4,-9.8,9.8c0,5.4,4.4,9.8,9.8,9.8Z" class="g0_555"/>
<path d="M102.2,188.6c5.4,0,9.8,-4.4,9.8,-9.8c0,-5.4,-4.4,-9.8,-9.8,-9.8c-5.4,0,-9.8,4.4,-9.8,9.8c0,5.4,4.4,9.8,9.8,9.8Z" class="g1_555"/>
<image clip-path="url(#c0_555)" preserveAspectRatio="none" x="680" y="219" width="138" height="155" xlink:href="img/1.jpg"/>
<path d="M685.1,210.1c-2.7,.8,-2.2,3.9,-1.8,6.1c4.3,2.1,8.2,1.9,10.1,-2.7c-1.8,-1.5,-6.8,-6.4,-8.3,-2.3Z" class="g2_555"/>
<path d="M685.1,210.1c-2.7,.8,-2.2,3.9,-1.8,6.1c4.3,2.1,8.2,1.9,10.1,-2.7c-1.8,-1.5,-6.8,-6.4,-8.3,-2.3" class="g3_555"/>
<path d="M700.8,226.5c-3.9,-1.2,-3.2,3.3,-2.8,5.8c2.6,-.6,5.1,5,6.6,-.2c.9,-3.3,-2.6,-6.2,-5.7,-5.6Z" class="g2_555"/>
<path d="M700.8,226.5c-3.9,-1.2,-3.2,3.3,-2.8,5.8c2.6,-.6,5.1,5,6.6,-.2c.9,-3.3,-2.6,-6.2,-5.7,-5.6" class="g3_555"/>
<path d="M611.5,136.8c-4.3,-.9,-6.7,6.2,-7,8.7c-.3,3,1.5,5.2,3.9,7.4c1.6,1.4,3.2,1.5,4.9,2.6c-1.6,3,-2.6,5.1,-1,8.8c1.9,4.6,8.9,12.6,14.1,15.1c1.8,.9,4.7,.1,5.9,1.7c1,1.2,.7,3.2,1.7,4.6c3.1,4,9.4,6.6,14.6,7c3.8,.3,13.9,.5,16.2,-3.7c1.2,.8,2.2,2.3,3.4,3.4c5.3,4.4,10.9,4.9,18.3,5.7c6.4,.8,10.8,-.4,16.1,-3.8c1.9,-1.2,5.1,-2.6,5.9,-4.6c6.7,5.4,18.4,3.1,25.9,.5c7.3,-2.5,13.9,-6.3,13.1,-13.5c1,2.5,9,-2,10.1,-2.6c3.9,-2,6,-4,8.3,-7.2c1.9,-2.7,3.9,-4.9,3.7,-8.2c.3,-1.5,-.1,-2.8,-1.2,-4c-1,-1.1,-4.7,-2.4,-4.9,-3.9c2.7,-1.4,4.8,-2.5,6.4,-4.9c3,-4.3,2.1,-10.5,0,-15c-3.8,-8,-14.6,-11,-23.9,-10.6c2.5,-.9,5.3,-2.5,4.8,-5.1c-.3,-1.8,-4,-4.6,-5.3,-5.6c-3,-2.4,-3.9,-2,-8.5,-2.6c-11.7,-1.4,-21.5,-2.1,-32.8,.8c-5,1.3,-15,3.6,-15.6,9.3c1.1,-3.2,-2.9,-6.2,-5.9,-7.6c-7.1,-3.2,-14.5,-3,-22.2,-2.1c-5.5,.6,-22.8,3.8,-19.1,11.5c-4.9,-4.9,-16.2,-.4,-20.9,2.9c-1.4,1.1,-14.7,14.7,-9,15.5Z" class="g2_555"/>
<path d="M611.5,136.8c-4.3,-.9,-6.7,6.2,-7,8.7c-.3,3,1.5,5.2,3.9,7.4c1.6,1.4,3.2,1.5,4.9,2.6c-1.6,3,-2.6,5.1,-1,8.8c1.9,4.6,8.9,12.6,14.1,15.1c1.8,.9,4.7,.1,5.9,1.7c1,1.2,.7,3.2,1.7,4.6c3.1,4,9.4,6.6,14.6,7c3.8,.3,13.9,.5,16.2,-3.7c1.2,.8,2.2,2.3,3.4,3.4c5.3,4.4,10.9,4.9,18.3,5.7c6.4,.8,10.8,-.4,16.1,-3.8c1.9,-1.2,5.1,-2.6,5.9,-4.6c6.7,5.4,18.4,3.1,25.9,.5c7.3,-2.5,13.9,-6.3,13.1,-13.5c1,2.5,9,-2,10.1,-2.6c3.9,-2,6,-4,8.3,-7.2c1.9,-2.7,3.9,-4.9,3.7,-8.2c.3,-1.5,-.1,-2.8,-1.2,-4c-1,-1.1,-4.7,-2.4,-4.9,-3.9c2.7,-1.4,4.8,-2.5,6.4,-4.9c3,-4.3,2.1,-10.5,0,-15c-3.8,-8,-14.6,-11,-23.9,-10.6c2.5,-.9,5.3,-2.5,4.8,-5.1c-.3,-1.8,-4,-4.6,-5.3,-5.6c-3,-2.4,-3.9,-2,-8.5,-2.6c-11.7,-1.4,-21.5,-2.1,-32.8,.8c-5,1.3,-15,3.6,-15.6,9.3c1.1,-3.2,-2.9,-6.2,-5.9,-7.6c-7.1,-3.2,-14.5,-3,-22.2,-2.1c-5.5,.6,-22.8,3.8,-19.1,11.5c-4.9,-4.9,-16.2,-.4,-20.9,2.9c-1.4,1.1,-14.7,14.7,-9,15.5" class="g3_555"/>
<path d="M760.1,410.9c1.7,-1.2,2.9,-2.3,3.9,-4.2c.9,-1.8,.8,-3.6,1.2,-5.6c.5,-2.1,1.8,-3.7,1.6,-5.9c-.2,-1.6,-.5,-3,-.4,-4.6c0,-.5,0,-.9,0,-1.4c-.1,-.8,-.5,-1.2,-.7,-2c-.3,-1.5,-.3,-3.1,-.8,-4.6c-.4,-1.1,-1.6,-4,-2.6,-4.4c0,2.5,-1,6.5,-2.2,8.7c0,-1.4,1,-3.2,1.2,-4.7c.3,-1.8,.3,-3.3,-.8,-4.7c3.7,1.6,11.6,3.7,14.4,-.6m-162,194.3c-4.1,1.7,-7.7,4.3,-11.6,6.4c-9.1,4.9,-19.3,8.1,-29.2,10.8c-12.7,3.5,-25.7,7,-38.6,9.6c-7.3,1.5,-14.9,1.4,-22.1,3.4c-5.3,1.4,-10.5,3,-16,3.9c3.3,-2.1,6.3,-4.4,9.4,-6.8c-3.3,2.3,-8.9,6,-10.9,9.5c-3.8,6.2,12.2,.7,14.5,.5M612.2,725.2c-12.6,8.6,-27.7,11.4,-42.5,7.4c-2.3,-.6,-5.2,-.9,-3.8,-3.3c.4,-.5,2.8,-1.3,3.2,-1.6c1.7,-1,3.2,-2.4,4.7,-3.6c-1.3,.3,-3.5,1.4,-4.8,2.1c-2.8,1.6,-8.1,3.4,-9.6,6.5c2.2,2.5,12.7,2.7,12.1,6.8M593.1,849c-2.3,-.2,-4.5,.4,-6.8,.4c-5.4,.1,-11.1,-1.1,-16.4,-2c-2.4,-.3,-6,-.4,-7.9,-2.2c-2.8,-2.9,-2.1,-8,-4.1,-11.4c-5.1,-8.4,-5.8,6.1,-7.1,8.9c-.4,-2.2,-.2,-4.5,0,-6.7c.2,-2.1,-.2,-6,.6,-8c1.6,.3,3.1,1.3,4.7,1.7c3.8,1,6.7,.3,10.4,-.7M442.2,503.9c-3.1,-1.3,-7.4,.7,-9.6,2.8c-2.1,1.8,-3.2,5.3,-3.2,8c0,3.3,2.3,6.6,3.3,9.6c.7,2,1.8,3.9,3.2,5.5c1.1,1.2,2,2.1,2.6,3.8c.6,1.5,1.2,3.1,1.5,4.7c.1,.7,.5,1.9,.5,2.6c-.7,-.6,-1.5,-1.1,-2.2,-1.6c-.9,-.7,-1.8,-2.1,-2.9,-2.2c.2,.6,.9,1.3,1.4,1.7c.4,.4,1.9,2,2.4,2c.7,0,1.1,-1.7,1.3,-2.1c.4,-1.4,.9,-2.4,1.5,-3.7c0,.1,1.2,-1.7,.9,-2.1" class="g4_555"/>
<g clip-path="url(#c1_555)">
<path d="M-4.5,13.7H-27.4m939.5,0H935M-4.5,1031.2H-27.4m939.5,0H935M13.7,-4.5V-27.4m0,1077v22.9m880,-1077V-27.4m0,1077v22.9" class="g5_555"/>
<path d="M-4.5,13.7H-27.4m939.5,0H935M-4.5,1031.2H-27.4m939.5,0H935M13.7,-4.5V-27.4m0,1077v22.9m880,-1077V-27.4m0,1077v22.9" class="g6_555"/>
</g>
</svg>