<?xml version="1.0" encoding="UTF-8" standalone="no"?>
<!DOCTYPE svg PUBLIC "-//W3C//DTD SVG 1.1//EN"
"http://www.w3.org/Graphics/SVG/1.1/DTD/svg11.dtd">
<svg viewBox="0 0 931 1096" version="1.1" xmlns="http://www.w3.org/2000/svg" xmlns:xlink="http://www.w3.org/1999/xlink">
<defs>
<clipPath id="c0_258"><path d="M287.2,723.8V706.9h83.7v16.9Z"/></clipPath>
<clipPath id="c1_258"><path d="M52,854V820.4H825V854Z"/></clipPath>
<clipPath id="c2_258"><path d="M491.2,1049.5V899H625.3v150.5Z"/></clipPath>
<clipPath id="c3_258"><path d="M684,1049.5V899H818.2v150.5Z"/></clipPath>
<style type="text/css"><![CDATA[
.g0_258{
fill: none;
stroke: #241F1F;
stroke-width: 0.763;
stroke-miterlimit: 10;
}
.g1_258{
fill: none;
stroke: #00AEEF;
stroke-width: 0.763;
}
.g2_258{
fill: none;
stroke: #00AEEF;
stroke-width: 1.145;
}
.g3_258{
fill: none;
stroke: #EE008C;
stroke-width: 0.916;
stroke-linejoin: round;
}
.g4_258{
fill: none;
stroke: #241F1F;
stroke-width: 0.611;
stroke-miterlimit: 3;
}
.g5_258{
fill: #241F1F;
}
.g6_258{
fill: none;
stroke: #00AEEF;
stroke-width: 0.763;
stroke-miterlimit: 10;
}
.g7_258{
fill: #CFEDFC;
}
.g8_258{
fill: none;
stroke: #00AEEF;
stroke-width: 0.916;
stroke-miterlimit: 10;
}
.g9_258{
fill: none;
stroke: #00AEEF;
stroke-width: 0.916;
stroke-linecap: square;
stroke-miterlimit: 10;
}
]]></style>
</defs>
<path d="M334.7,152.2h19.8m47.6,0h19.8m47.6,0h19.9m90.8,0H600m-83.4,53.5h19.9m89,0h19.8m-175.8,55h19.9m45.4,95.5h19.8m47.6,.8H622M524.2,331.5H638.7M585.5,477.8h19.8M540.9,451.5h81" class="g0_258"/>
<path d="M412.1,432.6c0,0,-3,0,-3,3v77.1c0,0,0,3.1,3,3.1H698.6c0,0,3,0,3,-3.1V435.6c0,0,0,-3,-3,-3H412.1Z" class="g1_258"/>
<path d="M411.4,648h19.8M368.4,621.7h79.5M523.3,637H656m75.5,0H804" class="g0_258"/>
<path clip-path="url(#c0_258)" d="M298.9,707.3h72.4" class="g0_258"/>
<path d="M304.6,466c0,0,-1.5,0,-1.5,1.5v14.1c0,0,0,1.6,1.5,1.6h14.1c0,0,1.6,0,1.6,-1.6V467.5c0,0,0,-1.5,-1.6,-1.5H304.6Z" class="g2_258"/>
<path d="M133.4,592.3c26.6,0,53.6,21.5,53.6,51.6c0,24.1,-17.7,41.3,-36.4,41.3c-14.5,0,-17.3,-10.3,-17.3,-10.3c0,0,-2.7,10.3,-17.3,10.3C97.4,685.2,79.7,668,79.7,643.9c0,-30.1,27,-51.6,53.7,-51.6Z" class="g3_258"/>
<path d="M53.5,675.1H209.1" class="g4_258"/>
<path fill-rule="evenodd" d="M209.1,675.1l-1.6,-2.4l6.5,2.4l-6.5,2.5Z" class="g5_258"/>
<path d="M133.3,697.1V560.4" class="g4_258"/>
<image clip-path="url(#c1_258)" preserveAspectRatio="none" x="52" y="820" width="773" height="34" xlink:href="img/1.png"/>
<path d="M62.7,1040.7H420.2" class="g6_258"/>
<path d="M491.2,964H620.4" class="g4_258"/>
<path fill-rule="evenodd" d="M620.4,964l-1.6,-2.4l6.5,2.4l-6.5,2.5Z" class="g5_258"/>
<g clip-path="url(#c2_258)">
<path d="M555.8,1024.8V899" class="g4_258"/>
<path d="M555.9,964c0,0,35.1,3.9,48.4,-14.4c19.5,-26.8,-14.4,-52.7,-35.6,-31.1C554,933.4,555.8,957.2,555.9,964Z" class="g7_258"/>
<path d="M555.9,964c0,0,35.1,3.9,48.4,-14.4c19.5,-26.8,-14.4,-52.7,-35.6,-31.1C554,933.4,555.8,957.2,555.9,964Zm0,0c0,0,-35,-3.8,-48.4,14.5c-19.5,26.7,14.4,52.6,35.7,31c14.7,-14.9,12.9,-38.7,12.7,-45.5Z" class="g8_258"/>
</g>
<path d="M725.8,920.6c-11.4,5.5,-21.5,18,-21.5,43.4c0,.4,7.7,-.1,21.4,0Z" class="g7_258"/>
<path d="M684,964H813.3" class="g4_258"/>
<g clip-path="url(#c3_258)">
<path fill-rule="evenodd" d="M813.3,964l-1.7,-2.4l6.6,2.4l-6.6,2.5Z" class="g5_258"/>
<path d="M725.7,1024.8V899" class="g4_258"/>
</g>
<path d="M704.3,964c0,38.4,23.1,47.3,38.5,47.3c35.6,0,46.8,-31.1,46.8,-47.3c0,-16.2,-11.2,-47.3,-46.8,-47.3c-15.4,0,-38.5,8.9,-38.5,47.3Z" class="g9_258"/>
</svg>