<?xml version="1.0" encoding="UTF-8" standalone="no"?>
<!DOCTYPE svg PUBLIC "-//W3C//DTD SVG 1.1//EN"
"http://www.w3.org/Graphics/SVG/1.1/DTD/svg11.dtd">
<svg viewBox="0 0 770 1017" version="1.1" xmlns="http://www.w3.org/2000/svg" xmlns:xlink="http://www.w3.org/1999/xlink">
<defs>
<clipPath id="c0_421"><path d="M232.8,286l2.3,-10.2l6.9,7.9l-2.8,-11l-9.1,2.4l2.7,10.9ZM80.5,329.7V102.4h286V329.7Z"/></clipPath>
<clipPath id="c1_421"><path d="M296.5,141l-7.9,-6.8l10.2,-2.4l-10.9,-2.6l-2.4,9.1l11,2.7ZM80.5,329.7V102.4h286V329.7Z"/></clipPath>
<clipPath id="c2_421"><path d="M226.6,132.3l6.7,-6.7l-8,-8l3.3,10.1l-10,-3.4l8,8ZM80.5,329.7V102.4h286V329.7Z"/></clipPath>
<clipPath id="c3_421"><path d="M156.8,136.6L160.3,126l-7.4,7.4L151.5,123l-3.6,10.6l8.9,3ZM80.5,329.7V102.4h286V329.7Z"/></clipPath>
<clipPath id="c4_421"><path d="M315.1,221.3l2.3,-10.2l6.8,7.9l-2.7,-10.9l-9.1,2.3l2.7,10.9ZM80.5,329.7V102.4h286V329.7Z"/></clipPath>
<clipPath id="c5_421"><path d="M105.8,178.8l9.3,-6.3l-5.2,-7.8l-9.4,6.2L111,169.7l-5.2,9.1ZM80.5,329.7V102.4h286V329.7Z"/></clipPath>
<style type="text/css"><![CDATA[
.g0_421{
fill: none;
stroke: #000000;
stroke-width: 0.618;
stroke-linecap: butt;
stroke-linejoin: miter;
}
.g1_421{
fill: none;
stroke: #000000;
stroke-width: 1.174;
stroke-linecap: butt;
stroke-linejoin: miter;
}
.g2_421{
fill: none;
stroke: #000000;
stroke-width: 0.588;
stroke-linecap: butt;
stroke-linejoin: miter;
}
.g3_421{
fill: #CCCCCC;
stroke: #000000;
stroke-width: 1.174;
stroke-linecap: butt;
stroke-linejoin: miter;
}
.g4_421{
}
.g5_421{
fill: none;
stroke: #000000;
stroke-width: 1.339;
stroke-linecap: butt;
stroke-linejoin: miter;
}
.g6_421{
fill: none;
stroke: #000000;
stroke-width: 1.339;
stroke-linecap: butt;
stroke-linejoin: miter;
stroke-dasharray: 9;
}
.g7_421{
fill: #CCCCCC;
}
]]></style>
</defs>
<path d="M74.2,69.2H713.5" class="g0_421"/>
<path d="M223.2,104.6L93.9,263.3M152.7,110.5L364.3,216.3m-47,-94L282,304.4M82.2,163.4L211.5,328M82.2,328L358.4,280.9M123.3,288L334.9,235.1" class="g1_421"/>
<path clip-path="url(#c0_421)" d="M240.9,298.6L235,275.1" class="g1_421"/>
<path d="M242,283.7l-6.9,-7.9L232.8,286" class="g2_421"/>
<path clip-path="url(#c1_421)" d="M311.4,139.9L287.9,134" class="g1_421"/>
<path d="M298.8,131.8l-10.2,2.4l7.9,6.8" class="g2_421"/>
<path clip-path="url(#c2_421)" d="M217.4,116.4l11.7,11.7" class="g1_421"/>
<path d="M218.6,124.3l10,3.4l-3.3,-10.1" class="g2_421"/>
<path clip-path="url(#c3_421)" d="M158.6,116.4L152.7,134" class="g1_421"/>
<path d="M151.5,123l1.4,10.4l7.4,-7.4" class="g2_421"/>
<path clip-path="url(#c4_421)" d="M323.1,233.9l-5.8,-23.5" class="g1_421"/>
<path d="M324.2,219l-6.8,-7.9l-2.3,10.2" class="g2_421"/>
<path clip-path="url(#c5_421)" d="M93.9,181l17.7,-11.7" class="g1_421"/>
<path d="M105.8,178.8l5.2,-9.1l-10.5,1.2" class="g2_421"/>
<path fill-rule="evenodd" d="M199.7,134l-70.5,88.2l41.1,52.9L293.8,245.7l11.7,-58.8L199.7,134Z" class="g3_421"/>
<path d="M398.9,329.7V102.4" class="g0_421"/>
<path fill-rule="evenodd" d="M541.7,166.9c0,3.4,-2.8,6.1,-6.2,6.1c-3.4,0,-6.1,-2.7,-6.1,-6.1c0,-3.4,2.7,-6.2,6.1,-6.2c3.4,0,6.2,2.8,6.2,6.2Z" class="g4_421"/>
<path d="M541.7,166.9c0,3.4,-2.8,6.1,-6.2,6.1c-3.4,0,-6.1,-2.7,-6.1,-6.1c0,-3.4,2.7,-6.2,6.1,-6.2c3.4,0,6.2,2.8,6.2,6.2Z" class="g5_421"/>
<path d="M428.3,166.8H709.8" class="g6_421"/>
<path fill-rule="evenodd" d="M535.5,166.8L455.1,267.4L502,327.7L642.8,294.2l13.4,-67L535.5,166.8Z" class="g7_421"/>
<path d="M535.5,166.8L455.1,267.4L502,327.7L642.8,294.2l13.4,-67L535.5,166.8Z" class="g5_421"/>
<path d="M83.4,355.9h621" class="g0_421"/>
</svg>