<?xml version="1.0" encoding="UTF-8" standalone="no"?>
<!DOCTYPE svg PUBLIC "-//W3C//DTD SVG 1.1//EN"
"http://www.w3.org/Graphics/SVG/1.1/DTD/svg11.dtd">
<svg viewBox="0 0 931 1096" version="1.1" xmlns="http://www.w3.org/2000/svg" xmlns:xlink="http://www.w3.org/1999/xlink">
<defs>
<clipPath id="c0_356"><path d="M489.2,698V664.2H621.5V698Z"/></clipPath>
<style type="text/css"><![CDATA[
.g0_356{
fill: none;
stroke: #241F1F;
stroke-width: 0.763;
stroke-miterlimit: 10;
}
.g1_356{
fill: none;
stroke: #00AEEF;
stroke-width: 0.534;
stroke-miterlimit: 3;
}
.g2_356{
fill: none;
stroke: #EE008C;
stroke-width: 0.916;
stroke-miterlimit: 3;
}
.g3_356{
fill: none;
stroke: #241F1F;
stroke-width: 0.534;
stroke-miterlimit: 3;
}
.g4_356{
fill: none;
stroke: #00AEEF;
stroke-width: 0.916;
stroke-miterlimit: 3;
}
.g5_356{
fill: none;
stroke: #6AC48C;
stroke-width: 0.993;
stroke-miterlimit: 3;
}
]]></style>
</defs>
<path clip-path="url(#c0_356)" d="M537.9,682.2h84" class="g0_356"/>
<path d="M312.4,873.9H468.1c3.4,0,6.1,2.8,6.1,6.1v97.7c0,3.4,-2.7,6.1,-6.1,6.1H312.4c-3.4,0,-6.1,-2.7,-6.1,-6.1V880c0,-3.3,2.7,-6.1,6.1,-6.1Z" class="g1_356"/>
<path d="M306.3,978.3c69.7,0,75,1.1,77.5,1.1c3,0,4.2,-1.7,4.2,-4.3c0,-23.1,.9,-62.8,2.7,-96.4c.8,23.8,2.2,57.2,2.2,69.3c0,27.4,.2,28.8,28.7,29.3l52.6,.4" class="g2_356"/>
<path d="M390.6,983.9v-110M306.8,978.3H474.5" class="g3_356"/>
<path d="M580.8,875.3H736.5c3.3,0,6.1,2.7,6.1,6.1v97.7c0,3.4,-2.8,6.1,-6.1,6.1H580.8c-3.4,0,-6.1,-2.7,-6.1,-6.1V881.4c0,-3.4,2.7,-6.1,6.1,-6.1Z" class="g1_356"/>
<path d="M720.8,919.5l1,.1l1.1,.1l1,.1H725l1,.1l1.1,.1l1.1,.1l1,.1l1.1,.1h1l1.1,.1l1.1,.1h1l1.1,.1l1,.1h1.1l1.1,.1l1,.1h1.1l1,.1H743M668.8,880.7l1.1,5.2l1.1,4.2l1,3.4l1.1,2.8l1,2.4l1.1,2l1.1,1.7l1,1.5l1.1,1.3l1,1.2l1.1,1l1.1,1l1,.8l1.1,.8l1,.7l1.1,.6l1.1,.6l1,.5l1.1,.5l1,.5l1.1,.4l1,.4l1.1,.3l1.1,.4l1,.3l1.1,.3l1,.3l1.1,.3l1.1,.2l1,.3l1.1,.2l1,.2l1.1,.2l1.1,.2l1,.2l1.1,.2l1,.1l1.1,.2l1.1,.1l1,.2l1.1,.1l1,.2l1.1,.1l1.1,.1l1,.1l1.1,.2l1,.1l1.1,.1l1.1,.1M668,875.4l.8,5.3m-12.6,-5.4l-.1,4.7m-3.4,67.1l.1,-.3l.2,-.2l.2,-.8l.3,-.9l.3,-1.3l.2,-1.8l.3,-2.2l.2,-3l.3,-4l.3,-5.2l.2,-6.9l.3,-9.5l.3,-12.9l.1,-8.2l.1,-9.9m-29.6,54.1l1,.3l1.1,.3l1,.3l1.1,.3l1.1,.3l1,.4l1.1,.4l1,.4l1.1,.4l1.1,.5l1,.5l1.1,.6l1,.6l1.1,.6l1.1,.7l1,.8l1.1,.8l1,.8l1.1,1l1.1,1l1,.9l1.1,1l.5,.4l.3,.1l.2,.2h.2l.1,.1h.3v.1h.3v-.1h.3l.2,-.1l.1,-.1l.1,-.2l.3,-.3M574.6,928.8l1,.1h1.1l1,.1h1.1l1.1,.1h1l1.1,.1h1l1.1,.1h1.1l1,.1l1.1,.1h1l1.1,.1l1.1,.1h1l1.1,.1l1,.1h1.1l1,.1l1.1,.1l1.1,.1h1l1.1,.1l1,.1l1.1,.1l1.1,.1l1,.1l1.1,.1l1,.1l1.1,.1l1.1,.1l1,.2l1.1,.1l1,.1l1.1,.2l1.1,.1l1,.2l1.1,.1l1,.2l1.1,.1l1.1,.2l1,.2l1.1,.2l1,.2l1.1,.2l1,.2l1.1,.3l1.1,.2" class="g2_356"/>
<path d="M657.2,902.8h3.2m-3.2,55h3.2m-1.6,27.4V875.3m-83.9,55.3H742.7" class="g3_356"/>
<path d="M78.8,111.1H234.7c3.3,0,6.1,2.7,6.1,6.1V215c0,3.3,-2.8,6.1,-6.1,6.1H78.8c-3.3,0,-6.1,-2.8,-6.1,-6.1V117.2c0,-3.4,2.8,-6.1,6.1,-6.1Zm0,202.4H234.7c3.3,0,6.1,2.7,6.1,6.1v97.8c0,3.3,-2.8,6.1,-6.1,6.1H78.8c-3.3,0,-6.1,-2.8,-6.1,-6.1V319.6c0,-3.4,2.8,-6.1,6.1,-6.1Z" class="g1_356"/>
<path d="M203.3,111.1l-.9,10.7M179.8,202v0h.5l.1,-.1h.8l.3,-.1l.5,-.1l.5,-.1l.5,-.2l.6,-.2l1,-.6l1.1,-.8l1,-1.1l1.1,-1.3l1,-1.6l1.1,-1.9l1,-2.3l1.1,-2.8l1,-3.3l1.1,-3.8l1,-4.5l1.1,-5.2l1,-5.9l1.1,-6.8l1,-7.7l1.1,-8.8l1,-9.8l1,-11.2m-62.9,5.9l1,3l1.1,3.2l1,3.3l1.1,3.4l1,3.5l1.1,3.4l1,3.4l1.1,3.4l1,3.3l1.1,3.2l1,3.2l1.1,3l1,2.9l1.1,2.7l1,2.6l1.1,2.5l1,2.3l1.1,2.2l1,2l1.1,1.9l1,1.8l1.1,1.7l1,1.4l1.1,1.4l1,1.3l1.1,1.2l1,1l1.1,1l1,.9l1.1,.8l1,.7l1.1,.6l1,.5l1.1,.5l1,.4l.5,.2l.6,.1l.5,.1l.5,.1l.3,.1h1v.1h.2m-61.3,16.5l1,-18.2l1.1,-16l1,-13.9l1.1,-11.9l1,-10.1l1.1,-8.4l1,-7l1.1,-5.6l1,-4.3l.6,-1.7l.5,-1.5l.5,-1.3l.5,-.9l.6,-.8l.2,-.3l.3,-.2l.3,-.2l.1,-.1l.1,-.1h.1l.2,-.1h.3l.1,-.1h.1l.1,.1h.4l.3,.2l.2,.1l.3,.2l.5,.5l1.1,1.3l1,1.9l1.1,2.2l1,2.5l1.1,2.9m-21.2,93.4l.2,-2.6" class="g4_356"/>
<path d="M212.5,338.2l1,-4.2l1.1,-4.6l1,-5l1.1,-5.4l1,-5.6m-32.3,61.1h2.4l.2,-.1h.6l.5,-.1l1,-.2l1.1,-.2l1.1,-.4l1,-.4l1.1,-.6l1.1,-.6l1,-.8l1.1,-.9l1.1,-1l1,-1.2l1.1,-1.3l1,-1.5l1.1,-1.6l1.1,-1.9l1,-2.1l1.1,-2.3l1.1,-2.5l1,-2.7l1.1,-3l1,-3.4l1.1,-3.6l1.1,-3.9m-56.1,30.7h1.1l.2,.1h1.6l1.1,.1l1.1,.2l1,.1l1.1,.2l1,.2l1.1,.2l1.1,.3l1,.2l1.1,.3l1.1,.3l1,.3l1.1,.3l1,.3l1.1,.3l1.1,.3l1,.3l1.1,.2l1.1,.3l1,.2l1.1,.3l1.1,.2l1,.1l.5,.1l.6,.1h.5l.5,.1h.6m-71.2,48.9l.5,-1.5l1.1,-3.3l1,-3.2l1.1,-3.1l1.1,-2.9l1,-2.8l1.1,-2.7l1,-2.5l1.1,-2.5l1.1,-2.2l1,-2.2l1.1,-2.1l1.1,-1.9l1,-1.8l1.1,-1.8l1,-1.6l1.1,-1.6l1.1,-1.4l1,-1.3l1.1,-1.3l1.1,-1.2l1,-1.1l1.1,-1l1,-.9l1.1,-.9l1.1,-.8l1,-.7l1.1,-.6l1.1,-.6l1,-.6l1.1,-.4l1,-.4l1.1,-.4l1.1,-.3l1,-.3l1.1,-.2l1.1,-.1l.5,-.1l.5,-.1h1.6l.3,-.1h.5" class="g2_356"/>
<path d="M207.7,201.7v-3.2m-67.3,3.2v-3.2m31.5,-42.8h3.2m-68.4,46v-3.2M173.5,221V111.1M73,200.1H240.9M156.7,423.5v-110M72.8,368.9H240.7" class="g3_356"/>
<path d="M78.9,507.3H234.7c3.4,0,6.1,2.7,6.1,6.1v97.7c0,3.4,-2.7,6.2,-6.1,6.2H78.9c-3.4,0,-6.2,-2.8,-6.2,-6.2V513.4c0,-3.4,2.8,-6.1,6.2,-6.1Z" class="g1_356"/>
<path d="M187.8,506.7l-.8,4.7m-37.1,88l1,-2.2l1.1,-2.5l1,-2.6l1.1,-2.8l1,-2.8l1.1,-2.9l1.1,-3l1,-2.9l1.1,-2.8l1,-2.8l1.1,-2.7l1.1,-2.7l1,-2.4l1.1,-2.4l1,-2.3l1.1,-2.1l1.1,-2l1,-1.9l1.1,-1.8l1.1,-1.7l1,-1.7l1.1,-1.6l1,-1.6l1.1,-1.6l1.1,-1.7l1,-1.7l1.1,-1.9l1,-2.1l1.1,-2.4l1.1,-2.6l1,-3l1.1,-3.4l1,-3.9l1.1,-4.4l1.1,-5.1m-56.2,5.4l1,15.4l1.1,13.4l1,11.8l1.1,10.2l1.1,8.6l1,7.3l1.1,6.1l1,4.9l1.1,3.8l.5,1.6l.6,1.3l.5,1.1l.5,.9l.6,.7l.2,.2l.3,.3l.3,.2l.2,.1l.2,.1h.3v.1h.6l.1,-.1h.3l.1,-.1l.3,-.1l.2,-.2l.6,-.3l.5,-.6l.5,-.6l1.1,-1.6l1.1,-1.9M130.1,506.7l.7,10.1" class="g5_356"/>
<path d="M171.9,590h3.2m32.2,-53.4v-3.3m-35.4,29h3.2m-35,-25.7v-3.3m-33.4,3.3v-3.3m66.8,84.5V507.1M73,535H240.9" class="g3_356"/>
</svg>