<?xml version="1.0" encoding="UTF-8" standalone="no"?>
<!DOCTYPE svg PUBLIC "-//W3C//DTD SVG 1.1//EN"
"http://www.w3.org/Graphics/SVG/1.1/DTD/svg11.dtd">
<svg viewBox="0 0 662 1017" version="1.1" xmlns="http://www.w3.org/2000/svg" xmlns:xlink="http://www.w3.org/1999/xlink">
<defs>
<style type="text/css"><![CDATA[
.g0_354{
fill: none;
stroke: #000;
stroke-width: 0.733;
stroke-linecap: round;
stroke-miterlimit: 10;
}
.g1_354{
fill: #000;
}
.g2_354{
fill: #FFF;
stroke: #FFF;
stroke-width: 1.527;
stroke-miterlimit: 10;
}
]]></style>
</defs>
<path d="M62.1 134.5h55v-33h-55Zm0 49.5h55V151h-55Zm110.1 55h55V206h-55Zm55 0h27.5V206H227.2Z" class="g0_354"/>
<path d="M244.2 222.5c0 1.8 -1.5 3.3 -3.3 3.3c-1.8 0 -3.3 -1.5 -3.3 -3.3c0 -1.8 1.5 -3.3 3.3 -3.3c1.8 0 3.3 1.5 3.3 3.3Z" class="g1_354"/>
<path d="M244.2 222.5c0 1.8 -1.5 3.3 -3.3 3.3c-1.8 0 -3.3 -1.5 -3.3 -3.3c0 -1.8 1.5 -3.3 3.3 -3.3c1.8 0 3.3 1.5 3.3 3.3m38 16.5h55V206h-55Zm55 0h27.4V206H337.2Z" class="g0_354"/>
<path d="M354.2 222.5c0 1.8 -1.5 3.3 -3.3 3.3c-1.8 0 -3.3 -1.5 -3.3 -3.3c0 -1.8 1.5 -3.3 3.3 -3.3c1.8 0 3.3 1.5 3.3 3.3Z" class="g1_354"/>
<path d="M354.2 222.5c0 1.8 -1.5 3.3 -3.3 3.3c-1.8 0 -3.3 -1.5 -3.3 -3.3c0 -1.8 1.5 -3.3 3.3 -3.3c1.8 0 3.3 1.5 3.3 3.3M392.1 239h55V206h-55Zm55 0h27.5V206H447.1Z" class="g0_354"/>
<path d="M464.2 222.5c0 1.8 -1.5 3.3 -3.3 3.3c-1.8 0 -3.3 -1.5 -3.3 -3.3c0 -1.8 1.5 -3.3 3.3 -3.3c1.8 0 3.3 1.5 3.3 3.3Z" class="g1_354"/>
<path d="M464.2 222.5c0 1.8 -1.5 3.3 -3.3 3.3c-1.8 0 -3.3 -1.5 -3.3 -3.3c0 -1.8 1.5 -3.3 3.3 -3.3c1.8 0 3.3 1.5 3.3 3.3M502.1 239h55V206h-55Zm55 0h27.5V206H557.1Z" class="g0_354"/>
<path d="M574.2 222.5c0 1.8 -1.5 3.3 -3.3 3.3c-1.8 0 -3.3 -1.5 -3.3 -3.3c0 -1.8 1.5 -3.3 3.3 -3.3c1.8 0 3.3 1.5 3.3 3.3Z" class="g1_354"/>
<path d="M574.2 222.5c0 1.8 -1.5 3.3 -3.3 3.3c-1.8 0 -3.3 -1.5 -3.3 -3.3c0 -1.8 1.5 -3.3 3.3 -3.3c1.8 0 3.3 1.5 3.3 3.3m-333.4 0c5.2 -6 12.7 -9.4 20.6 -9.4c7.9 0 15.4 3.4 20.7 9.4" class="g0_354"/>
<path d="M276.8 212.2l5.4 10.3l-9.4 -6.4Z" class="g1_354"/>
<path d="M276.8 212.2l5.4 10.3l-9.4 -6.4Zm74 10.3c5.2 -6 12.7 -9.4 20.6 -9.4c7.9 0 15.4 3.4 20.7 9.4" class="g0_354"/>
<path d="M386.8 212.2l5.3 10.3l-9.3 -6.4Z" class="g1_354"/>
<path d="M386.8 212.2l5.3 10.3l-9.3 -6.4Zm74 10.3c5.2 -6 12.7 -9.4 20.6 -9.4c7.9 0 15.4 3.4 20.7 9.4" class="g0_354"/>
<path d="M496.8 212.2l5.3 10.3l-9.3 -6.4Z" class="g1_354"/>
<path d="M496.8 212.2l5.3 10.3l-9.3 -6.4ZM117.4 167.4c20.2 9.9 38.7 22.9 55 38.5" class="g0_354"/>
<path d="M166.1 196.3l6.1 9.7l-10 -5.7Z" class="g1_354"/>
<path d="M166.1 196.3l6.1 9.7l-10 -5.7ZM117.2 118c97.9 4.3 192.8 34.7 275 88" class="g0_354"/>
<path d="M384.5 197.7l7.6 8.3l-10.8 -3.7Z" class="g1_354"/>
<path d="M384.5 197.7l7.6 8.3l-10.8 -3.7ZM62.1 328.3h55v-33h-55Zm0 49.5h55v-33h-55Zm110.1 55h55v-33h-55Zm55 0h27.5v-33H227.2Z" class="g0_354"/>
<path d="M244.2 416.3c0 1.8 -1.5 3.3 -3.3 3.3c-1.8 0 -3.3 -1.5 -3.3 -3.3c0 -1.8 1.5 -3.3 3.3 -3.3c1.8 0 3.3 1.5 3.3 3.3Z" class="g1_354"/>
<path d="M244.2 416.3c0 1.8 -1.5 3.3 -3.3 3.3c-1.8 0 -3.3 -1.5 -3.3 -3.3c0 -1.8 1.5 -3.3 3.3 -3.3c1.8 0 3.3 1.5 3.3 3.3m38 16.5h55v-33h-55Zm55 0h27.4v-33H337.2Z" class="g0_354"/>
<path d="M354.2 416.3c0 1.8 -1.5 3.3 -3.3 3.3c-1.8 0 -3.3 -1.5 -3.3 -3.3c0 -1.8 1.5 -3.3 3.3 -3.3c1.8 0 3.3 1.5 3.3 3.3Z" class="g1_354"/>
<path d="M354.2 416.3c0 1.8 -1.5 3.3 -3.3 3.3c-1.8 0 -3.3 -1.5 -3.3 -3.3c0 -1.8 1.5 -3.3 3.3 -3.3c1.8 0 3.3 1.5 3.3 3.3m37.9 16.5h55v-33h-55Zm55 0h27.5v-33H447.1Z" class="g0_354"/>
<path d="M464.2 416.3c0 1.8 -1.5 3.3 -3.3 3.3c-1.8 0 -3.3 -1.5 -3.3 -3.3c0 -1.8 1.5 -3.3 3.3 -3.3c1.8 0 3.3 1.5 3.3 3.3Z" class="g1_354"/>
<path d="M464.2 416.3c0 1.8 -1.5 3.3 -3.3 3.3c-1.8 0 -3.3 -1.5 -3.3 -3.3c0 -1.8 1.5 -3.3 3.3 -3.3c1.8 0 3.3 1.5 3.3 3.3m37.9 16.5h55v-33h-55Zm55 0h27.5v-33H557.1Z" class="g0_354"/>
<path d="M574.2 416.3c0 1.8 -1.5 3.3 -3.3 3.3c-1.8 0 -3.3 -1.5 -3.3 -3.3c0 -1.8 1.5 -3.3 3.3 -3.3c1.8 0 3.3 1.5 3.3 3.3Z" class="g1_354"/>
<path d="M574.2 416.3c0 1.8 -1.5 3.3 -3.3 3.3c-1.8 0 -3.3 -1.5 -3.3 -3.3c0 -1.8 1.5 -3.3 3.3 -3.3c1.8 0 3.3 1.5 3.3 3.3m-333.4 -.1c5.2 -5.9 12.7 -9.3 20.6 -9.3c7.9 0 15.4 3.4 20.7 9.3" class="g0_354"/>
<path d="M276.8 406l5.4 10.3l-9.4 -6.4Z" class="g1_354"/>
<path d="M276.8 406l5.4 10.3l-9.4 -6.4Zm74 10.2c5.2 -5.9 12.7 -9.3 20.6 -9.3c7.9 0 15.4 3.4 20.7 9.3" class="g0_354"/>
<path d="M386.8 406l5.3 10.3l-9.3 -6.4Z" class="g1_354"/>
<path d="M386.8 406l5.3 10.3l-9.3 -6.4Zm74 10.2c5.2 -5.9 12.7 -9.3 20.6 -9.3c7.9 0 15.4 3.4 20.7 9.3" class="g0_354"/>
<path d="M496.8 406l5.3 10.3l-9.3 -6.4Z" class="g1_354"/>
<path d="M496.8 406l5.3 10.3l-9.3 -6.4ZM117.4 361.2c20.2 9.9 38.7 22.9 55 38.5" class="g0_354"/>
<path d="M166.1 390.1l6.1 9.7l-10 -5.7Z" class="g1_354"/>
<path d="M166.1 390.1l6.1 9.7l-10 -5.7Zm-49 -78.4c25.9 -3.7 52 -5.6 78.2 -5.6c109.3 0 216.1 32.6 306.9 93.6" class="g0_354"/>
<path d="M494.5 391.2l7.6 8.6l-10.8 -3.9Z" class="g1_354"/>
<path d="M494.5 391.2l7.6 8.6l-10.8 -3.9Z" class="g0_354"/>
<path d="M56.8 918.6v-1.5H276.6v1.5Z" class="g1_354"/>
<path d="M454.3 1016H660.7v-15.9H454.3Z" class="g2_354"/>
</svg>