<?xml version="1.0" encoding="UTF-8" standalone="no"?>
<!DOCTYPE svg PUBLIC "-//W3C//DTD SVG 1.1//EN"
"http://www.w3.org/Graphics/SVG/1.1/DTD/svg11.dtd">
<svg viewBox="0 0 931 1096" version="1.1" xmlns="http://www.w3.org/2000/svg" xmlns:xlink="http://www.w3.org/1999/xlink">
<defs>
<clipPath id="c0_191"><path d="M503.2,217.8V184.7H771v33.1Z"/></clipPath>
<clipPath id="c1_191"><path d="M436.8,333.9V300.1H802.2v33.8Z"/></clipPath>
<clipPath id="c2_191"><path d="M556.6,677.8V645.7H664.1v32.1Z"/></clipPath>
<clipPath id="c3_191"><path d="M563.2,865.7V831.8h94.3v33.9Z"/></clipPath>
<clipPath id="c4_191"><path d="M505.3,1038V996H715.4v42Z"/></clipPath>
<clipPath id="c5_191"><path d="M143.6,382.7c-5,0,-9.1,-4.1,-9.1,-9.1V281.9c0,-5.1,4.1,-9.2,9.1,-9.2H293.3c5.1,0,9.2,4.1,9.2,9.2v91.7c0,5,-4.1,9.1,-9.2,9.1Z"/></clipPath>
<style type="text/css"><![CDATA[
.g0_191{
fill: none;
stroke: #241F1F;
stroke-width: 0.763;
stroke-miterlimit: 10;
}
.g1_191{
fill: none;
stroke: #00AEEF;
stroke-width: 0.916;
stroke-miterlimit: 3;
}
.g2_191{
fill: none;
stroke: #6AC48C;
stroke-width: 1.069;
stroke-miterlimit: 3;
}
.g3_191{
fill: none;
stroke: #EE008C;
stroke-width: 0.916;
stroke-miterlimit: 3;
}
.g4_191{
fill: none;
stroke: #00AEEF;
stroke-width: 0.534;
stroke-miterlimit: 3;
}
.g5_191{
fill: none;
stroke: #241F1F;
stroke-width: 0.534;
stroke-linecap: square;
stroke-miterlimit: 1;
}
.g6_191{
fill: #EE008C;
}
]]></style>
</defs>
<path clip-path="url(#c0_191)" d="M654.6,202H771.4" class="g0_191"/>
<path d="M584.4,260.1H773.9" class="g0_191"/>
<path clip-path="url(#c1_191)" d="M584.4,318.1H802.6" class="g0_191"/>
<path clip-path="url(#c2_191)" d="M646.3,661.9h18.1" class="g0_191"/>
<path d="M593.1,849.8h18.6" class="g0_191"/>
<path clip-path="url(#c3_191)" d="M633.6,849.8h24.3" class="g0_191"/>
<path d="M596.8,1017.9h19.8m14.3,0h26.6" class="g0_191"/>
<path clip-path="url(#c4_191)" d="M690,1017.9h25.8" class="g0_191"/>
<g clip-path="url(#c5_191)">
<path d="M300,285.3l2.4,-7m-6.2,16l3.8,-9m-7.1,16.3l3.3,-7.3m-6.8,13.9l3.5,-6.6M285.8,314l3.6,-5.8m-7.2,11.5l3.6,-5.7m-6.9,9.8l3.3,-4.1m-6.8,8l3.5,-3.9m-7,6.9l3.5,-3m-7,5.4l3.5,-2.4m-7.2,4.5l3.7,-2.1m-7.2,3.4l3.5,-1.3m-7,2.3l3.5,-1m-7,1.6l3.5,-.6m-7,.6h3.5m-7,-.2l3.5,.2m-7,-.7l3.5,.5m-6.9,-1.4l3.4,.9m-7.2,-2.1l3.8,1.2M233.2,334l3.3,1.3m-7,-2.9l3.7,1.6M226,330.9l3.5,1.5m-7,-3.2l3.5,1.7m-6.8,-3.2l3.3,1.5m-7,-3.4l3.7,1.9M212,324.1l3.5,1.7m-6.9,-3.2l3.4,1.5m-7,-2.9l3.6,1.4m-7.1,-2.8l3.5,1.4m-7.2,-2.6l3.7,1.2m-7,-1.8l3.3,.6M191,317.3l3.5,.7m-6.9,-.9l3.4,.2m-7.2,-.2h3.8m-7,.5l3.2,-.5m-6.8,1.5l3.6,-1m-7.1,2.4l3.5,-1.4m-7.2,3.4l3.7,-2m-7,4.3l3.3,-2.3m-7,5.7l3.7,-3.4m-7.2,7.1l3.5,-3.7m-7,8.1l3.5,-4.4m-7,9.6l3.5,-5.2m-7,11.1l3.5,-5.9m-7,12.6l3.5,-6.7m-7,14.5l3.5,-7.8m-7.2,16.5l3.7,-8.7m-6.1,15.4l2.4,-6.7" class="g1_191"/>
<path d="M236.5,276.6l1.3,-4m-4.6,13.8l3.3,-9.8m-7,20.2l3.7,-10.4M226,307.6l3.5,-10.8m-7,21L226,307.6m-6.8,20.1l3.3,-9.9m-7,20.3l3.7,-10.4M212,348.6l3.5,-10.5m-6.9,20.2l3.4,-9.7m-7,20.1l3.6,-10.4m-7.1,20.8L205,368.7m-4.6,13.8l1.1,-3.4" class="g2_191"/>
<path d="M271.9,282.5l3.5,-9.9m-7,19.3l3.5,-9.4m-7.2,18.4l3.7,-9m-7.2,16.8l3.5,-7.8m-7,15.4l3.5,-7.6m-7,14l3.5,-6.4m-7,12.7l3.5,-6.3m-7,11.8l3.5,-5.5m-7,10.2l3.5,-4.7m-6.9,8.8l3.4,-4.1m-7.2,7.9l3.8,-3.8m-7.1,6.5l3.3,-2.7m-7,5.1l3.7,-2.4m-7.2,4.1l3.5,-1.7m-7,2.5l3.5,-.8m-6.8,1.2l3.3,-.4m-7,0l3.7,.4M212,353.7l3.5,1m-6.9,-2.5l3.4,1.5m-7,-3.9l3.6,2.4m-7.1,-5.3l3.5,2.9m-7.2,-6.5l3.7,3.6m-7,-7.5l3.3,3.9M191,334.5l3.5,4.9m-6.9,-10.2l3.4,5.3m-7.2,-11.9l3.8,6.6m-7,-12.8l3.2,6.2M177,308.7l3.6,7.7m-7.1,-15.7l3.5,8m-7.2,-17l3.7,9m-7,-17.7l3.3,8.7m-7,-19.1l3.7,10.4" class="g3_191"/>
</g>
<path d="M143.6,272.7H293.3c5.1,0,9.2,4.1,9.2,9.2v91.7c0,5,-4.1,9.1,-9.2,9.1H143.6c-5,0,-9.1,-4.1,-9.1,-9.1V281.9c0,-5.1,4.1,-9.2,9.1,-9.2Z" class="g4_191"/>
<path d="M219.3,382.6V272.7m-1.6,82.4h2.7m-2.7,-55h2.7m-85.5,27.7H302.7m-139.9,1.9v-3.4m28.2,3.4v-3.4m56.2,3.4v-3.4m28.2,3.4v-3.4" class="g5_191"/>
<path d="M111.5,449.9c0,0,-3,0,-3,3.1v9.1c0,0,0,3.1,3,3.1h21.4c0,0,3.1,0,3.1,-3.1V453c0,0,0,-3.1,-3.1,-3.1Z" class="g6_191"/>
</svg>