<?xml version="1.0" encoding="UTF-8" standalone="no"?>
<!DOCTYPE svg PUBLIC "-//W3C//DTD SVG 1.1//EN"
"http://www.w3.org/Graphics/SVG/1.1/DTD/svg11.dtd">
<svg viewBox="0 0 935 1210" version="1.1" xmlns="http://www.w3.org/2000/svg" xmlns:xlink="http://www.w3.org/1999/xlink">
<defs>
<clipPath id="c0_509"><path d="M42.8,1168.2V41.8H892.2V1168.2Z"/></clipPath>
<style type="text/css"><![CDATA[
.g0_509{
fill: #D9D9D9;
}
.g1_509{
}
]]></style>
</defs>
<path d="M93.4,531.3H855.9v42.9H93.4V531.3Z" class="g0_509"/>
<path d="M93.4,574.2H855.9v42.9H93.4V574.2Z" class="g0_509"/>
<path d="M93.4,617.1H855.9V660H93.4V617.1Z" class="g0_509"/>
<path d="M93.4,660H855.9v39.6H93.4V660Z" class="g0_509"/>
<path d="M93.4,660H857v1.1H93.4V660Z" class="g1_509"/>
<path d="M93.4,699.6H857v1.1H93.4v-1.1Z" class="g1_509"/>
<path d="M93.4,660h1.1v40.7H93.4V660Z" class="g1_509"/>
<path d="M855.9,660H857v40.7h-1.1V660Z" class="g1_509"/>
<path d="M93.4,617.1H857v1.1H93.4v-1.1Z" class="g1_509"/>
<path d="M93.4,660H857v1.1H93.4V660Z" class="g1_509"/>
<path d="M93.4,617.1h1.1v44H93.4v-44Z" class="g1_509"/>
<path d="M855.9,617.1H857v44h-1.1v-44Z" class="g1_509"/>
<path d="M93.4,574.2H857v1.1H93.4v-1.1Z" class="g1_509"/>
<path d="M93.4,617.1H857v1.1H93.4v-1.1Z" class="g1_509"/>
<path d="M93.4,574.2h1.1v44H93.4v-44Z" class="g1_509"/>
<path d="M855.9,574.2H857v44h-1.1v-44Z" class="g1_509"/>
<path d="M93.4,531.3H857v1.1H93.4v-1.1Z" class="g1_509"/>
<path d="M93.4,574.2H857v1.1H93.4v-1.1Z" class="g1_509"/>
<path d="M93.4,531.3h1.1v44H93.4v-44Z" class="g1_509"/>
<path d="M855.9,531.3H857v44h-1.1v-44Z" class="g1_509"/>
<image clip-path="url(#c0_509)" preserveAspectRatio="none" x="43" y="42" width="849" height="391" xlink:href="img/1.jpg"/>
</svg>